<?xml version="1.0" standalone="no"?><!DOCTYPE svg PUBLIC "-//W3C//DTD SVG 1.1//EN" "http://www.w3.org/Graphics/SVG/1.1/DTD/svg11.dtd"><svg xmlns="http://www.w3.org/2000/svg" version="1.1" width="74.2px" height="25.3px" viewBox="0 -3 74.2 25.3" style="top:-3px">  <desc>innos</desc>  <defs/>  <g id="Polygon81739">    <path d="M 1.6 2.6 C 1.6 2.3 1.5 2.2 1.2 2.2 C 1.24 2.21 0.5 2.2 0.5 2.2 L 0.5 0.7 C 0.5 0.7 2.23 0.75 2.2 0.7 C 3 0.7 3.3 1.1 3.3 1.8 C 3.3 1.8 3.3 8.5 3.3 8.5 C 3.3 10.3 4.5 11.4 6.2 11.4 C 7.9 11.4 9.1 10.3 9.1 8.5 C 9.1 8.5 9.1 1.8 9.1 1.8 C 9.1 1.1 9.4 0.7 10.2 0.7 C 10.17 0.75 11.9 0.7 11.9 0.7 L 11.9 2.2 C 11.9 2.2 11.14 2.21 11.1 2.2 C 10.9 2.2 10.8 2.3 10.8 2.6 C 10.8 2.6 10.8 8.6 10.8 8.6 C 10.8 11.2 8.9 13 6.2 13 C 3.5 13 1.6 11.2 1.6 8.6 C 1.6 8.6 1.6 2.6 1.6 2.6 Z M 6.8 -2.2 L 8.4 -2.2 L 6.8 -0.1 L 5.5 -0.1 L 6.8 -2.2 Z M 17.6 3.9 C 18.6 3.9 20.7 4.4 20.7 5.8 C 20.71 5.83 20.7 6.7 20.7 6.7 L 19.2 6.7 C 19.2 6.7 19.21 6.24 19.2 6.2 C 19.2 5.6 18.2 5.4 17.6 5.4 C 15.9 5.4 14.7 6.6 14.7 8.4 C 14.7 10.4 16.1 11.5 17.7 11.5 C 19.31 11.49 20.4 10.3 20.4 10.3 L 21.1 11.5 C 21.1 11.5 19.86 12.95 17.6 13 C 14.9 13 13 11 13 8.4 C 13 5.9 14.8 3.9 17.6 3.9 Z M 15.1 0.7 L 16.4 0.7 L 17.3 2.1 L 17.3 2.1 L 18.2 0.7 L 19.6 0.7 L 18.1 2.9 L 16.6 2.9 L 15.1 0.7 Z M 23 0.7 L 24.5 0.7 L 24.5 2.5 L 23 2.5 L 23 0.7 Z M 23 5.9 C 23 5.7 22.8 5.6 22.6 5.6 C 22.59 5.56 21.9 5.6 21.9 5.6 L 21.9 4.1 C 21.9 4.1 23.51 4.15 23.5 4.1 C 24.3 4.1 24.6 4.5 24.6 5.2 C 24.6 5.2 24.6 11 24.6 11 C 24.6 11.2 24.7 11.3 25 11.3 C 24.97 11.34 25.7 11.3 25.7 11.3 L 25.7 12.8 C 25.7 12.8 24.05 12.75 24.1 12.8 C 23.3 12.8 23 12.4 23 11.7 C 23 11.7 23 5.9 23 5.9 Z M 27.6 5.9 C 27.6 5.7 27.4 5.6 27.2 5.6 C 27.18 5.56 26.5 5.6 26.5 5.6 L 26.5 4.1 C 26.5 4.1 28.07 4.15 28.1 4.1 C 28.8 4.1 29.2 4.5 29.2 5.1 C 29.2 5.1 29.2 5.4 29.2 5.4 C 29.15 5.69 29.1 5.9 29.1 5.9 C 29.1 5.9 29.15 5.92 29.2 5.9 C 29.5 5.2 30.5 3.9 32.4 3.9 C 34.4 3.9 35.3 5 35.3 7.2 C 35.3 7.2 35.3 11 35.3 11 C 35.3 11.2 35.5 11.3 35.7 11.3 C 35.72 11.34 36.4 11.3 36.4 11.3 L 36.4 12.8 C 36.4 12.8 34.78 12.75 34.8 12.8 C 34 12.8 33.7 12.4 33.7 11.7 C 33.7 11.7 33.7 7.6 33.7 7.6 C 33.7 6.4 33.5 5.5 32.1 5.5 C 30.8 5.5 29.7 6.3 29.4 7.6 C 29.2 7.9 29.2 8.3 29.2 8.7 C 29.21 8.72 29.2 12.8 29.2 12.8 L 27.6 12.8 C 27.6 12.8 27.56 5.93 27.6 5.9 Z M 38.2 5.9 C 38.2 5.7 38.1 5.6 37.8 5.6 C 37.82 5.56 37.1 5.6 37.1 5.6 L 37.1 4.1 C 37.1 4.1 38.71 4.15 38.7 4.1 C 39.4 4.1 39.8 4.5 39.8 5.1 C 39.8 5.1 39.8 5.4 39.8 5.4 C 39.8 5.69 39.8 5.9 39.8 5.9 C 39.8 5.9 39.8 5.92 39.8 5.9 C 40.1 5.2 41.2 3.9 43 3.9 C 45.1 3.9 46 5 46 7.2 C 46 7.2 46 11 46 11 C 46 11.2 46.1 11.3 46.4 11.3 C 46.36 11.34 47.1 11.3 47.1 11.3 L 47.1 12.8 C 47.1 12.8 45.42 12.75 45.4 12.8 C 44.7 12.8 44.3 12.4 44.3 11.7 C 44.3 11.7 44.3 7.6 44.3 7.6 C 44.3 6.4 44.1 5.5 42.7 5.5 C 41.4 5.5 40.3 6.3 40 7.6 C 39.9 7.9 39.8 8.3 39.8 8.7 C 39.85 8.72 39.8 12.8 39.8 12.8 L 38.2 12.8 C 38.2 12.8 38.2 5.93 38.2 5.9 Z M 52.6 3.9 C 55.2 3.9 57.3 5.8 57.3 8.4 C 57.3 11 55.2 13 52.6 13 C 50.1 13 48 11 48 8.4 C 48 5.8 50.1 3.9 52.6 3.9 Z M 52.6 11.5 C 54.3 11.5 55.6 10.2 55.6 8.4 C 55.6 6.6 54.3 5.4 52.6 5.4 C 51 5.4 49.7 6.6 49.7 8.4 C 49.7 10.2 51 11.5 52.6 11.5 Z M 59.2 10.3 C 59.2 10.3 60.21 11.61 61.8 11.6 C 62.6 11.6 63.3 11.3 63.3 10.5 C 63.3 9 58.6 9.1 58.6 6.4 C 58.6 4.7 60 3.9 61.8 3.9 C 62.8 3.9 64.6 4.3 64.6 5.6 C 64.62 5.61 64.6 6.4 64.6 6.4 L 63.1 6.4 C 63.1 6.4 63.14 6 63.1 6 C 63.1 5.5 62.4 5.3 61.8 5.3 C 60.9 5.3 60.2 5.6 60.2 6.3 C 60.2 7.9 64.9 7.6 64.9 10.4 C 64.9 12 63.6 13 61.8 13 C 59.48 12.95 58.3 11.4 58.3 11.4 L 59.2 10.3 Z M 67.1 5.5 L 66 5.5 L 66 4.1 L 67.2 4.1 L 67.2 1.8 L 68.8 1.8 L 68.8 4.1 L 70.9 4.1 L 70.9 5.5 L 68.8 5.5 C 68.8 5.5 68.8 9.42 68.8 9.4 C 68.8 11.1 70 11.4 70.6 11.4 C 70.86 11.36 71 11.3 71 11.3 L 71 12.8 C 71 12.8 70.79 12.82 70.4 12.8 C 69.3 12.8 67.1 12.5 67.1 9.6 C 67.15 9.6 67.1 5.5 67.1 5.5 Z M 71.2 0.7 C 71.3 1.1 71.3 1.3 71.3 1.6 C 71.3 2.1 71.2 2.6 70.9 3.1 C 70.9 3.1 69.7 3.1 69.7 3.1 C 69.9 2.6 70.1 2.2 70.1 1.8 C 70.1 1.4 70 1.1 69.9 0.7 C 69.9 0.7 71.2 0.7 71.2 0.7 Z " stroke="none" fill="#ee3078"/>  </g></svg>