<?xml version="1.0" standalone="no"?><!DOCTYPE svg PUBLIC "-//W3C//DTD SVG 1.1//EN" "http://www.w3.org/Graphics/SVG/1.1/DTD/svg11.dtd"><svg xmlns="http://www.w3.org/2000/svg" version="1.1" width="30px" height="16.8px" viewBox="0 -2 30 16.8" style="top:-2px">  <desc>F X</desc>  <defs/>  <g id="Polygon76780">    <path d="M 8.5 0.5 L 12.6 0.5 L 12.6 1.2 L 9.3 1.2 L 9.3 4.1 L 12.1 4.1 L 12.1 4.8 L 9.3 4.8 L 9.3 8.2 L 8.5 8.2 L 8.5 0.5 Z M 18.8 4.2 L 16.5 0.5 L 17.4 0.5 C 17.4 0.5 18.77 2.81 18.8 2.8 C 19 3.2 19.3 3.7 19.3 3.7 L 19.3 3.7 C 19.3 3.7 19.52 3.2 19.8 2.8 C 19.76 2.81 21.1 0.5 21.1 0.5 L 22 0.5 L 19.8 4.2 L 22.2 8.2 L 21.4 8.2 C 21.4 8.2 19.75 5.58 19.7 5.6 C 19.5 5.18 19.3 4.7 19.3 4.7 L 19.2 4.7 C 19.2 4.7 19.01 5.18 18.8 5.6 C 18.77 5.59 17.2 8.2 17.2 8.2 L 16.3 8.2 L 18.8 4.2 Z " stroke="none" fill="#000"/>  </g></svg>