<?xml version="1.0" standalone="no"?><!DOCTYPE svg PUBLIC "-//W3C//DTD SVG 1.1//EN" "http://www.w3.org/Graphics/SVG/1.1/DTD/svg11.dtd"><svg xmlns="http://www.w3.org/2000/svg" version="1.1" width="18.1px" height="16.8px" viewBox="0 -2 18.1 16.8" style="top:-2px">  <desc>F IX</desc>  <defs/>  <g id="Polygon76682">    <path d="M 1.1 0.5 L 5.2 0.5 L 5.2 1.2 L 1.9 1.2 L 1.9 4.1 L 4.7 4.1 L 4.7 4.8 L 1.9 4.8 L 1.9 8.2 L 1.1 8.2 L 1.1 0.5 Z M 9.7 0.5 L 10.5 0.5 L 10.5 8.2 L 9.7 8.2 L 9.7 0.5 Z M 14.4 4.2 L 12.1 0.5 L 13 0.5 C 13 0.5 14.37 2.81 14.4 2.8 C 14.6 3.2 14.9 3.7 14.9 3.7 L 14.9 3.7 C 14.9 3.7 15.11 3.2 15.4 2.8 C 15.36 2.81 16.7 0.5 16.7 0.5 L 17.6 0.5 L 15.4 4.2 L 17.8 8.2 L 17 8.2 C 17 8.2 15.34 5.58 15.3 5.6 C 15.1 5.18 14.9 4.7 14.9 4.7 L 14.8 4.7 C 14.8 4.7 14.61 5.18 14.4 5.6 C 14.37 5.59 12.8 8.2 12.8 8.2 L 11.9 8.2 L 14.4 4.2 Z " stroke="none" fill="#000"/>  </g></svg>