<?xml version="1.0" standalone="no"?><!DOCTYPE svg PUBLIC "-//W3C//DTD SVG 1.1//EN" "http://www.w3.org/Graphics/SVG/1.1/DTD/svg11.dtd"><svg xmlns="http://www.w3.org/2000/svg" version="1.1" width="152px" height="127.5px" viewBox="-54 -55 152 127.5" style="left:-54px;top:-55px">  <desc>35.1%</desc>  <defs/>  <g id="Polygon79905">    <path d="M 11 12.6 C 10.5 12.6 10 12.5 9.6 12.4 C 9.56 12.42 9.6 11.7 9.6 11.7 C 9.6 11.7 9.63 11.69 9.6 11.7 C 9.8 11.7 10 11.8 10.2 11.8 C 10.4 11.8 10.6 11.8 10.8 11.8 C 11.5 11.8 11.9 11.7 12.2 11.4 C 12.5 11.1 12.7 10.7 12.7 10.2 C 12.7 9.7 12.5 9.2 12.2 8.9 C 11.9 8.7 11.4 8.5 10.7 8.5 C 10.68 8.52 10.3 8.5 10.3 8.5 L 10.3 7.8 C 10.3 7.8 10.67 7.8 10.7 7.8 C 11.3 7.8 11.7 7.7 12 7.4 C 12.3 7.1 12.5 6.8 12.5 6.2 C 12.5 5.2 11.9 4.7 10.9 4.7 C 10.7 4.7 10.6 4.7 10.3 4.8 C 10.1 4.8 9.9 4.8 9.7 4.9 C 9.66 4.87 9.6 4.9 9.6 4.9 C 9.6 4.9 9.52 4.15 9.5 4.2 C 9.8 4.1 10 4 10.3 4 C 10.5 4 10.8 4 11 4 C 11.8 4 12.4 4.2 12.8 4.5 C 13.2 4.9 13.4 5.4 13.4 6.1 C 13.4 6.6 13.3 7.1 13 7.4 C 12.8 7.7 12.5 8 12 8.1 C 12 8.1 12 8.2 12 8.2 C 12.5 8.3 12.9 8.5 13.2 8.9 C 13.5 9.2 13.6 9.7 13.6 10.3 C 13.6 11 13.4 11.6 12.9 12 C 12.5 12.4 11.8 12.6 11 12.6 Z M 16.1 12.6 C 15.7 12.6 15.2 12.6 14.7 12.4 C 14.67 12.44 14.7 11.7 14.7 11.7 C 14.7 11.7 14.87 11.69 14.9 11.7 C 15.3 11.8 15.7 11.8 16 11.8 C 17.3 11.8 17.9 11.2 17.9 10 C 17.9 9.7 17.8 9.5 17.7 9.2 C 17.7 9 17.5 8.8 17.3 8.7 C 17.2 8.6 16.9 8.5 16.6 8.4 C 16.3 8.3 16 8.3 15.6 8.3 C 15.55 8.31 14.9 8.3 14.9 8.3 L 14.8 8.2 L 15.1 4.1 L 18.5 4.1 L 18.5 4.9 L 15.8 4.9 C 15.8 4.9 15.63 7.59 15.6 7.6 C 16.2 7.6 16.7 7.6 17.1 7.7 C 17.5 7.8 17.8 8 18.1 8.2 C 18.3 8.4 18.5 8.6 18.6 8.9 C 18.7 9.2 18.8 9.6 18.8 10 C 18.8 10.9 18.6 11.5 18.1 12 C 17.6 12.4 16.9 12.6 16.1 12.6 Z M 21 11.9 C 21 12.3 20.8 12.5 20.4 12.5 C 20.1 12.5 19.9 12.3 19.9 11.9 C 19.9 11.6 20.1 11.4 20.4 11.4 C 20.6 11.4 20.8 11.4 20.9 11.5 C 21 11.6 21 11.7 21 11.9 C 21 11.9 21 11.9 21 11.9 Z M 23.3 5.2 L 23.2 5.2 L 21.6 6.1 L 21.5 6.1 L 21.3 5.7 L 21.3 5.6 L 23.5 4.1 L 24.2 4.1 L 24.2 12.5 L 23.3 12.5 L 23.3 5.2 Z M 27.4 9.3 C 26.8 9.3 26.3 9.1 26 8.6 C 25.7 8.2 25.5 7.5 25.5 6.6 C 25.5 5.8 25.7 5.1 26 4.6 C 26.3 4.2 26.8 4 27.4 4 C 28 4 28.5 4.2 28.8 4.6 C 29.1 5.1 29.2 5.8 29.2 6.6 C 29.2 7.5 29.1 8.2 28.8 8.6 C 28.5 9.1 28 9.3 27.4 9.3 Z M 26.3 6.6 C 26.3 8 26.6 8.6 27.4 8.6 C 28.1 8.6 28.5 8 28.5 6.6 C 28.5 5.3 28.1 4.6 27.4 4.6 C 26.6 4.6 26.3 5.3 26.3 6.6 C 26.3 6.6 26.3 6.6 26.3 6.6 Z M 32.7 12.6 C 32.1 12.6 31.6 12.4 31.3 11.9 C 31 11.5 30.8 10.8 30.8 10 C 30.8 9.1 31 8.4 31.3 8 C 31.6 7.5 32.1 7.3 32.7 7.3 C 33.3 7.3 33.7 7.5 34 8 C 34.3 8.4 34.5 9.1 34.5 10 C 34.5 10.8 34.3 11.5 34 11.9 C 33.7 12.4 33.3 12.6 32.7 12.6 Z M 31.5 10 C 31.5 11.3 31.9 12 32.7 12 C 33.4 12 33.8 11.3 33.8 10 C 33.8 8.6 33.4 8 32.7 8 C 31.9 8 31.5 8.6 31.5 10 C 31.5 10 31.5 10 31.5 10 Z M 31.2 4.1 L 32 4.1 L 28.8 12.5 L 28 12.5 L 31.2 4.1 Z " stroke="none" fill="#ee3078"/>  </g></svg>