<?xml version="1.0" standalone="no"?><!DOCTYPE svg PUBLIC "-//W3C//DTD SVG 1.1//EN" "http://www.w3.org/Graphics/SVG/1.1/DTD/svg11.dtd"><svg xmlns="http://www.w3.org/2000/svg" version="1.1" width="53px" height="20.5px" viewBox="0 -2 53 20.5" style="top:-2px">  <desc>15E4/LNG</desc>  <defs/>  <g id="Polygon73448">    <path d="M 4 6.6 L 5.5 6.6 C 5.5 6.6 5.52 2.08 5.5 2.1 C 5.52 1.86 5.5 1.6 5.5 1.6 L 5.5 1.6 C 5.5 1.6 5.43 1.8 5.2 2.1 C 5.18 2.05 4.5 2.7 4.5 2.7 L 3.9 2.1 L 5.6 0.4 L 6.5 0.4 L 6.5 6.6 L 8.1 6.6 L 8.1 7.5 L 4 7.5 L 4 6.6 Z M 9.3 5.9 C 9.3 5.9 9.92 6.68 11 6.7 C 11.9 6.7 12.5 6.1 12.5 5.3 C 12.5 4.4 11.8 3.8 10.8 3.8 C 10.06 3.83 9.5 4.2 9.5 4.2 L 9.1 4 C 9.1 4 9.37 1.08 9.4 1.1 C 9.4 0.6 9.6 0.4 10 0.4 C 10 0.4 12.5 0.4 12.5 0.4 C 12.9 0.4 13.1 0.6 13.1 1.1 C 13.11 1.08 13.1 2 13.1 2 L 12.2 2 C 12.2 2 12.2 1.52 12.2 1.5 C 12.2 1.4 12.1 1.3 12 1.3 C 12 1.3 10.5 1.3 10.5 1.3 C 10.4 1.3 10.3 1.4 10.3 1.5 C 10.3 1.5 10.1 2.8 10.1 2.8 C 10.12 3.03 10.1 3.2 10.1 3.2 L 10.1 3.2 C 10.1 3.2 10.49 2.97 11 3 C 12.5 3 13.5 4 13.5 5.3 C 13.5 6.5 12.5 7.6 11 7.6 C 9.54 7.62 8.8 6.6 8.8 6.6 L 9.3 5.9 Z M 15.1 1.3 L 14.5 1.3 L 14.5 0.4 C 14.5 0.4 18.65 0.44 18.6 0.4 C 19.1 0.4 19.3 0.6 19.3 1.1 C 19.29 1.08 19.3 2 19.3 2 L 18.4 2 C 18.4 2 18.38 1.52 18.4 1.5 C 18.4 1.4 18.3 1.3 18.2 1.3 C 18.16 1.3 16.1 1.3 16.1 1.3 L 16.1 3.5 L 18.6 3.5 L 18.6 4.4 L 16.1 4.4 C 16.1 4.4 16.15 6.42 16.1 6.4 C 16.1 6.6 16.2 6.6 16.4 6.6 C 16.4 6.6 18.4 6.6 18.4 6.6 C 18.6 6.6 18.6 6.6 18.6 6.4 C 18.65 6.42 18.6 6 18.6 6 L 19.6 6 C 19.6 6 19.57 6.86 19.6 6.9 C 19.6 7.3 19.4 7.5 18.9 7.5 C 18.9 7.5 15.8 7.5 15.8 7.5 C 15.3 7.5 15.1 7.3 15.1 6.9 C 15.15 6.86 15.1 1.3 15.1 1.3 Z M 20 5 L 23.1 0.4 L 24.3 0.4 L 24.3 4.8 L 25.4 4.8 L 25.4 5.6 L 24.3 5.6 L 24.3 7.5 L 23.3 7.5 L 23.3 5.6 L 20 5.6 L 20 5 Z M 23.3 2.3 C 23.3 2.02 23.3 1.6 23.3 1.6 L 23.3 1.6 C 23.3 1.6 23.14 1.96 23 2.2 C 23 2.2 21.4 4.3 21.4 4.3 C 21.24 4.58 21 4.8 21 4.8 L 21 4.8 C 21 4.8 21.34 4.77 21.6 4.8 C 21.65 4.77 23.3 4.8 23.3 4.8 C 23.3 4.8 23.3 2.34 23.3 2.3 Z M 28.1 0.1 L 29 0.1 L 26.4 7.9 L 25.6 7.9 L 28.1 0.1 Z M 30 1.5 C 30 1.4 30 1.3 29.8 1.3 C 29.82 1.3 29.4 1.3 29.4 1.3 L 29.4 0.4 C 29.4 0.4 30.4 0.44 30.4 0.4 C 30.8 0.4 31 0.6 31 1.1 C 31 1.1 31 6.4 31 6.4 C 31 6.6 31.1 6.6 31.3 6.6 C 31.3 6.6 33.2 6.6 33.2 6.6 C 33.3 6.6 33.4 6.6 33.4 6.4 C 33.43 6.42 33.4 6 33.4 6 L 34.3 6 C 34.3 6 34.34 6.86 34.3 6.9 C 34.3 7.3 34.1 7.5 33.7 7.5 C 33.7 7.5 30.7 7.5 30.7 7.5 C 30.2 7.5 30 7.3 30 6.9 C 30 6.9 30 1.5 30 1.5 Z M 34.8 6.6 C 34.8 6.6 35.25 6.64 35.2 6.6 C 35.4 6.6 35.5 6.6 35.5 6.4 C 35.47 6.42 35.5 0.4 35.5 0.4 L 36.4 0.4 C 36.4 0.4 39.52 4.91 39.5 4.9 C 39.78 5.29 40.1 5.9 40.1 5.9 L 40.1 5.9 C 40.1 5.9 40.06 5.31 40.1 4.9 C 40.1 4.9 40.1 1.1 40.1 1.1 C 40.1 0.6 40.2 0.4 40.7 0.4 C 40.71 0.44 41.7 0.4 41.7 0.4 L 41.7 1.3 C 41.7 1.3 41.28 1.3 41.3 1.3 C 41.1 1.3 41.1 1.4 41.1 1.5 C 41.06 1.52 41.1 7.5 41.1 7.5 L 40.2 7.5 C 40.2 7.5 37.01 3.03 37 3 C 36.75 2.65 36.4 2.1 36.4 2.1 L 36.4 2.1 C 36.4 2.1 36.47 2.64 36.5 3 C 36.5 3 36.5 6.9 36.5 6.9 C 36.5 7.3 36.3 7.5 35.8 7.5 C 35.83 7.5 34.8 7.5 34.8 7.5 L 34.8 6.6 Z M 46 0.3 C 47.69 0.32 48.5 1.2 48.5 1.2 L 47.9 1.9 C 47.9 1.9 47.19 1.24 46 1.2 C 44.6 1.2 43.5 2.4 43.5 3.9 C 43.5 5.6 44.6 6.7 46 6.7 C 47.3 6.68 48 5.8 48 5.8 C 48 5.8 48.05 5.09 48 5.1 C 48 4.9 48 4.9 47.8 4.9 C 47.83 4.87 47.4 4.9 47.4 4.9 L 47.4 4 C 47.4 4 48.33 4.01 48.3 4 C 48.8 4 49 4.2 49 4.6 C 48.97 4.65 49 7.5 49 7.5 L 48.1 7.5 C 48.1 7.5 48.09 7.06 48.1 7.1 C 48.1 6.9 48.1 6.8 48.1 6.8 C 48.1 6.76 48.1 6.8 48.1 6.8 C 48.1 6.8 47.29 7.62 45.9 7.6 C 44 7.6 42.4 6.1 42.4 3.9 C 42.4 1.9 44 0.3 46 0.3 Z " stroke="none" fill="#000"/>  </g></svg>