<?xml version="1.0" standalone="no"?><!DOCTYPE svg PUBLIC "-//W3C//DTD SVG 1.1//EN" "http://www.w3.org/Graphics/SVG/1.1/DTD/svg11.dtd"><svg xmlns="http://www.w3.org/2000/svg" version="1.1" width="90.4px" height="17.8px" viewBox="0 -3 90.4 17.8" style="top:-3px">  <desc>Thrombin (F IIA)</desc>  <defs/>  <g id="Polygon77123">    <path d="M 4.5 1.4 L 4.5 0.5 L 11 0.5 L 11 1.4 L 8.3 1.4 L 8.3 8.3 L 7.2 8.3 L 7.2 1.4 L 4.5 1.4 Z M 11.9 8.3 L 11.9 0.5 L 12.9 0.5 L 12.9 3.3 L 12.9 3.8 C 12.9 3.8 12.92 3.8 12.9 3.8 C 13.1 3.5 13.3 3.2 13.7 2.9 C 14 2.7 14.5 2.6 15 2.6 C 15.6 2.6 16.1 2.7 16.4 3.1 C 16.7 3.4 16.9 4 16.9 4.7 C 16.89 4.68 16.9 8.3 16.9 8.3 L 15.8 8.3 C 15.8 8.3 15.83 4.93 15.8 4.9 C 15.8 4.7 15.8 4.5 15.8 4.4 C 15.8 4.2 15.7 4.1 15.6 3.9 C 15.6 3.8 15.5 3.7 15.3 3.6 C 15.2 3.6 15 3.5 14.8 3.5 C 14.4 3.5 14 3.7 13.7 3.9 C 13.3 4.2 13.1 4.5 13 4.9 C 13 5.1 12.9 5.4 12.9 5.6 C 12.92 5.65 12.9 8.3 12.9 8.3 L 11.9 8.3 Z M 18.5 8.3 L 18.5 2.7 L 19.5 2.7 L 19.5 3.7 L 19.5 4.1 C 19.5 4.1 19.52 4.07 19.5 4.1 C 19.6 3.6 19.9 3.3 20.2 3 C 20.5 2.8 20.9 2.6 21.3 2.6 C 21.28 2.62 21.6 2.6 21.6 2.6 C 21.6 2.6 21.55 3.7 21.6 3.7 C 21.5 3.7 21.4 3.7 21.2 3.7 C 20.9 3.7 20.6 3.8 20.3 4 C 20 4.2 19.8 4.6 19.7 5 C 19.6 5.3 19.5 5.6 19.5 6 C 19.55 5.97 19.5 8.3 19.5 8.3 L 18.5 8.3 Z M 22.2 5.5 C 22.2 5 22.2 4.7 22.4 4.3 C 22.6 3.9 22.8 3.6 23 3.4 C 23.3 3.1 23.6 2.9 24 2.8 C 24.4 2.6 24.8 2.6 25.2 2.6 C 25.6 2.6 26 2.6 26.3 2.8 C 26.7 2.9 27 3.1 27.3 3.4 C 27.6 3.6 27.8 3.9 27.9 4.3 C 28.1 4.7 28.2 5 28.2 5.5 C 28.2 6 28 6.5 27.8 7 C 27.5 7.4 27.1 7.8 26.7 8 C 26.2 8.3 25.7 8.4 25.2 8.4 C 24.6 8.4 24.1 8.3 23.7 8 C 23.2 7.8 22.8 7.4 22.6 7 C 22.3 6.5 22.2 6 22.2 5.5 Z M 23.3 5.5 C 23.3 6 23.4 6.5 23.8 6.9 C 24.2 7.3 24.6 7.5 25.2 7.5 C 25.7 7.5 26.2 7.3 26.5 6.9 C 26.9 6.5 27.1 6 27.1 5.5 C 27.1 4.9 26.9 4.4 26.5 4 C 26.2 3.7 25.7 3.5 25.2 3.5 C 24.6 3.5 24.2 3.7 23.8 4 C 23.4 4.4 23.3 4.9 23.3 5.5 Z M 29.4 8.3 L 29.4 2.7 L 30.5 2.7 L 30.5 3.4 L 30.4 3.8 C 30.4 3.8 30.47 3.83 30.5 3.8 C 30.6 3.5 30.9 3.2 31.2 2.9 C 31.6 2.7 32 2.6 32.4 2.6 C 33.3 2.6 33.9 3 34.1 3.8 C 34.1 3.8 34.1 3.8 34.1 3.8 C 34.2 3.5 34.5 3.2 34.9 2.9 C 35.2 2.7 35.6 2.6 36.1 2.6 C 36.7 2.6 37.1 2.7 37.4 3.1 C 37.7 3.4 37.9 4 37.9 4.7 C 37.89 4.68 37.9 8.3 37.9 8.3 L 36.8 8.3 C 36.8 8.3 36.83 4.91 36.8 4.9 C 36.8 4.7 36.8 4.5 36.8 4.4 C 36.8 4.2 36.7 4.1 36.7 3.9 C 36.6 3.8 36.5 3.7 36.3 3.6 C 36.2 3.6 36 3.5 35.8 3.5 C 35.5 3.5 35.1 3.7 34.9 3.9 C 34.6 4.2 34.4 4.5 34.3 4.9 C 34.2 5.2 34.2 5.4 34.2 5.7 C 34.2 5.71 34.2 8.3 34.2 8.3 L 33.1 8.3 C 33.1 8.3 33.13 4.91 33.1 4.9 C 33.1 4.7 33.1 4.6 33.1 4.5 C 33.1 4.4 33.1 4.2 33 4.1 C 33 4 32.9 3.9 32.9 3.8 C 32.8 3.7 32.7 3.6 32.6 3.6 C 32.5 3.5 32.3 3.5 32.2 3.5 C 31.8 3.5 31.4 3.7 31.2 3.9 C 30.9 4.2 30.7 4.6 30.6 5 C 30.5 5.2 30.5 5.4 30.5 5.7 C 30.5 5.71 30.5 8.3 30.5 8.3 L 29.4 8.3 Z M 39.5 8.3 L 39.5 0.5 L 40.6 0.5 L 40.6 3 L 40.5 3.5 C 40.5 3.5 40.55 3.51 40.6 3.5 C 40.6 3.5 40.6 3.4 40.6 3.4 C 40.6 3.4 40.7 3.3 40.8 3.2 C 40.9 3.1 41 3 41.1 2.9 C 41.3 2.8 41.4 2.7 41.6 2.7 C 41.9 2.6 42.1 2.6 42.3 2.6 C 43.1 2.6 43.7 2.8 44.1 3.4 C 44.6 3.9 44.8 4.6 44.8 5.5 C 44.8 6.4 44.5 7.1 44.1 7.6 C 43.6 8.1 43 8.4 42.2 8.4 C 42 8.4 41.8 8.4 41.6 8.3 C 41.4 8.2 41.2 8.1 41.1 8 C 41 8 40.9 7.9 40.8 7.8 C 40.7 7.7 40.6 7.6 40.6 7.5 C 40.56 7.53 40.5 7.4 40.5 7.4 C 40.5 7.4 40.48 7.43 40.5 7.4 C 40.5 7.6 40.5 7.7 40.5 7.8 C 40.5 7.85 40.5 8.3 40.5 8.3 L 39.5 8.3 Z M 40.5 5.5 C 40.5 5.8 40.6 6.2 40.7 6.5 C 40.8 6.7 41 7 41.2 7.2 C 41.5 7.4 41.8 7.5 42.1 7.5 C 42.6 7.5 42.9 7.3 43.2 6.9 C 43.5 6.6 43.7 6.1 43.7 5.5 C 43.7 4.9 43.6 4.4 43.3 4 C 43 3.7 42.6 3.5 42.1 3.5 C 41.7 3.5 41.3 3.7 41 4 C 40.7 4.3 40.5 4.8 40.5 5.5 Z M 46.1 1.6 L 46.1 0.5 L 47.1 0.5 L 47.1 1.6 L 46.1 1.6 Z M 46.1 8.3 L 46.1 2.7 L 47.1 2.7 L 47.1 8.3 L 46.1 8.3 Z M 48.8 8.3 L 48.8 2.7 L 49.8 2.7 L 49.8 3.4 L 49.8 3.8 C 49.8 3.8 49.85 3.83 49.8 3.8 C 49.9 3.7 50 3.6 50.1 3.4 C 50.2 3.3 50.4 3.1 50.5 3 C 50.7 2.9 50.9 2.8 51.1 2.7 C 51.4 2.6 51.7 2.6 51.9 2.6 C 52.6 2.6 53.1 2.7 53.4 3.1 C 53.7 3.4 53.8 4 53.8 4.7 C 53.85 4.68 53.8 8.3 53.8 8.3 L 52.8 8.3 C 52.8 8.3 52.79 4.93 52.8 4.9 C 52.8 4.7 52.8 4.5 52.7 4.4 C 52.7 4.2 52.7 4.1 52.6 3.9 C 52.5 3.8 52.4 3.7 52.3 3.6 C 52.1 3.6 51.9 3.5 51.7 3.5 C 51.3 3.5 50.9 3.7 50.6 3.9 C 50.3 4.2 50.1 4.5 50 4.9 C 49.9 5.1 49.9 5.4 49.9 5.6 C 49.88 5.65 49.9 8.3 49.9 8.3 L 48.8 8.3 Z M 58.2 4.5 C 58.2 3 58.7 1.5 59.5 0.2 C 59.5 0.2 60.5 0.2 60.5 0.2 C 59.6 1.5 59.2 3 59.2 4.5 C 59.2 6.2 59.6 7.8 60.5 9.3 C 60.5 9.3 59.5 9.3 59.5 9.3 C 59.1 8.6 58.8 7.9 58.6 7.1 C 58.4 6.2 58.2 5.4 58.2 4.5 Z M 61.8 8.3 L 61.8 0.5 L 66.1 0.5 L 66.1 1.4 L 62.9 1.4 L 62.9 4 L 65.6 4 L 65.6 4.9 L 62.9 4.9 L 62.9 8.3 L 61.8 8.3 Z M 70.4 8.3 L 70.4 0.5 L 71.5 0.5 L 71.5 8.3 L 70.4 8.3 Z M 73.6 8.3 L 73.6 0.5 L 74.6 0.5 L 74.6 8.3 L 73.6 8.3 Z M 75.8 8.3 L 78.6 0.5 L 79.7 0.5 L 82.5 8.3 L 81.4 8.3 L 80.6 6 L 77.7 6 L 76.9 8.3 L 75.8 8.3 Z M 78 5.1 L 80.3 5.1 C 80.3 5.1 79.46 2.65 79.5 2.7 C 79.4 2.5 79.4 2.4 79.3 2.2 C 79.3 2 79.2 1.9 79.2 1.7 C 79.21 1.74 79.2 1.6 79.2 1.6 C 79.2 1.6 79.14 1.55 79.1 1.6 C 79 2 78.9 2.4 78.8 2.7 C 78.84 2.65 78 5.1 78 5.1 Z M 82.9 9.3 C 83.7 7.8 84.2 6.2 84.2 4.5 C 84.2 3 83.7 1.6 82.9 0.2 C 82.9 0.2 83.8 0.2 83.8 0.2 C 84.7 1.5 85.1 3 85.1 4.5 C 85.1 5.4 85 6.2 84.8 7.1 C 84.6 7.9 84.3 8.6 83.8 9.3 C 83.8 9.3 82.9 9.3 82.9 9.3 Z " stroke="none" fill="#000"/>  </g></svg>