<?xml version="1.0" standalone="no"?><!DOCTYPE svg PUBLIC "-//W3C//DTD SVG 1.1//EN" "http://www.w3.org/Graphics/SVG/1.1/DTD/svg11.dtd"><svg xmlns="http://www.w3.org/2000/svg" version="1.1" width="113.4px" height="78.9px" viewBox="0 0 113.4 78.9">  <desc>Stredn (~ 50 %)</desc>  <defs/>  <g id="Polygon69890">    <path d="M 38.1 40.7 C 38.1 40.7 39 40.7 39 40.7 C 38.2 42 37.8 43.5 37.8 45.1 C 37.8 46.7 38.2 48.3 39.1 49.8 C 39.1 49.8 38.1 49.8 38.1 49.8 C 37.3 48.5 36.8 46.8 36.8 45.1 C 36.8 43.5 37.2 42 38.1 40.7 Z M 41.8 44.6 C 42.9 44.6 43.1 45.7 43.9 45.7 C 44.5 45.7 44.6 45.2 44.6 44.7 C 44.6 44.7 45.5 44.7 45.5 44.7 C 45.5 46 44.9 46.6 44 46.6 C 42.8 46.6 42.7 45.5 41.8 45.5 C 41.3 45.5 41.1 46.1 41.1 46.5 C 41.1 46.5 40.2 46.5 40.2 46.5 C 40.2 45.2 40.8 44.6 41.8 44.6 Z M 50.4 47 C 50.4 47 51.04 47.85 52.2 47.8 C 53.2 47.8 53.9 47.2 53.9 46.3 C 53.9 45.3 53.1 44.7 52.1 44.7 C 51.19 44.71 50.6 45.1 50.6 45.1 L 50.1 44.9 C 50.1 44.9 50.43 41.69 50.4 41.7 C 50.5 41.2 50.6 41 51.1 41 C 51.1 41 53.8 41 53.8 41 C 54.3 41 54.5 41.2 54.5 41.7 C 54.55 41.69 54.5 42.7 54.5 42.7 L 53.5 42.7 C 53.5 42.7 53.55 42.17 53.5 42.2 C 53.5 42 53.5 41.9 53.3 41.9 C 53.3 41.9 51.7 41.9 51.7 41.9 C 51.5 41.9 51.5 42 51.4 42.2 C 51.4 42.2 51.3 43.6 51.3 43.6 C 51.26 43.83 51.2 44 51.2 44 L 51.2 44 C 51.2 44 51.67 43.77 52.2 43.8 C 53.9 43.8 55 44.9 55 46.3 C 55 47.7 53.9 48.9 52.2 48.9 C 50.62 48.88 49.8 47.8 49.8 47.8 L 50.4 47 Z M 56.2 44.9 C 56.2 42.6 56.8 40.9 58.9 40.9 C 61 40.9 61.7 42.6 61.7 44.9 C 61.7 47.1 61 48.9 58.9 48.9 C 56.8 48.9 56.2 47.1 56.2 44.9 Z M 60.6 44.9 C 60.6 43.2 60.2 41.9 58.9 41.9 C 57.6 41.9 57.3 43.2 57.3 44.9 C 57.3 46.6 57.6 47.9 58.9 47.9 C 60.2 47.9 60.6 46.6 60.6 44.9 Z M 65.9 42.5 C 65.9 41.6 66.6 40.9 67.5 40.9 C 68.5 40.9 69.2 41.6 69.2 42.5 C 69.2 43.4 68.5 44.1 67.5 44.1 C 66.6 44.1 65.9 43.4 65.9 42.5 Z M 72 41 L 73 41 L 67.1 48.8 L 66 48.8 L 72 41 Z M 68.3 42.5 C 68.3 42 68 41.7 67.5 41.7 C 67.1 41.7 66.7 42 66.7 42.5 C 66.7 42.9 67.1 43.3 67.5 43.3 C 68 43.3 68.3 42.9 68.3 42.5 Z M 71.5 45.6 C 72.4 45.6 73.2 46.4 73.2 47.3 C 73.2 48.2 72.4 48.9 71.5 48.9 C 70.6 48.9 69.8 48.2 69.8 47.3 C 69.8 46.4 70.6 45.6 71.5 45.6 Z M 70.7 47.3 C 70.7 47.7 71.1 48.1 71.5 48.1 C 72 48.1 72.3 47.7 72.3 47.3 C 72.3 46.8 72 46.4 71.5 46.4 C 71.1 46.4 70.7 46.8 70.7 47.3 C 70.7 47.3 70.7 47.3 70.7 47.3 Z M 75.6 45.1 C 75.6 43.5 75.2 42 74.4 40.7 C 74.4 40.7 75.3 40.7 75.3 40.7 C 76.1 42 76.5 43.5 76.5 45.1 C 76.5 46.8 76.1 48.5 75.3 49.8 C 75.3 49.8 74.3 49.8 74.3 49.8 C 75.2 48.3 75.6 46.7 75.6 45.1 Z " stroke="none" fill="#323232"/>  </g>  <g id="Polygon69889">    <path d="M 38 33.7 C 38 33.7 38.82 34.68 40 34.7 C 40.7 34.7 41.3 34.2 41.3 33.5 C 41.3 31.9 37.6 32.2 37.6 29.7 C 37.6 28.6 38.6 27.7 40 27.7 C 40.9 27.7 42.3 28 42.3 29.1 C 42.25 29.08 42.3 29.7 42.3 29.7 L 41.2 29.7 C 41.2 29.7 41.24 29.36 41.2 29.4 C 41.2 29 40.7 28.7 40 28.7 C 39.2 28.7 38.7 29.1 38.7 29.7 C 38.7 31.3 42.4 30.9 42.4 33.5 C 42.4 34.7 41.5 35.7 40 35.7 C 38.31 35.68 37.4 34.5 37.4 34.5 L 38 33.7 Z M 43.9 30.8 L 43.1 30.8 L 43.1 30 L 43.9 30 L 43.9 28.5 L 44.9 28.5 L 44.9 30 L 46.2 30 L 46.2 30.8 L 44.9 30.8 C 44.9 30.8 44.92 33.4 44.9 33.4 C 44.9 34.5 45.7 34.6 46.1 34.6 C 46.25 34.65 46.3 34.6 46.3 34.6 L 46.3 35.6 C 46.3 35.6 46.2 35.59 46 35.6 C 45.3 35.6 43.9 35.4 43.9 33.5 C 43.85 33.52 43.9 30.8 43.9 30.8 Z M 47.7 31.1 C 47.7 31 47.6 30.9 47.4 30.9 C 47.44 30.9 47 30.9 47 30.9 L 47 30 C 47 30 48 29.99 48 30 C 48.5 30 48.7 30.2 48.7 30.6 C 48.7 30.6 48.7 31 48.7 31 C 48.71 31.21 48.7 31.4 48.7 31.4 C 48.7 31.4 48.71 31.37 48.7 31.4 C 49 30.6 49.6 29.9 50.5 29.9 C 50.61 29.92 50.8 29.9 50.8 29.9 L 50.8 31 C 50.8 31 50.61 30.96 50.4 31 C 49.8 31 49.1 31.4 48.9 32.3 C 48.8 32.6 48.7 32.9 48.7 33.3 C 48.74 33.27 48.7 35.6 48.7 35.6 L 47.7 35.6 C 47.7 35.6 47.68 31.14 47.7 31.1 Z M 54 29.9 C 55.5 29.9 56.4 31 56.4 32.5 C 56.37 32.6 56.3 32.9 56.3 32.9 C 56.3 32.9 52.28 32.9 52.3 32.9 C 52.3 34.1 53.2 34.8 54.2 34.8 C 55.15 34.76 55.8 34.1 55.8 34.1 L 56.3 34.9 C 56.3 34.9 55.46 35.68 54.1 35.7 C 52.4 35.7 51.2 34.4 51.2 32.8 C 51.2 31 52.4 29.9 54 29.9 Z M 55.3 32.1 C 55.2 31.2 54.7 30.7 54 30.7 C 53.1 30.7 52.5 31.2 52.3 32.1 C 52.3 32.1 55.3 32.1 55.3 32.1 Z M 59.8 29.9 C 61.07 29.85 61.5 30.7 61.5 30.7 L 61.5 30.7 C 61.5 30.7 61.5 30.55 61.5 30.3 C 61.5 30.3 61.5 28.9 61.5 28.9 C 61.5 28.8 61.4 28.7 61.3 28.7 C 61.25 28.7 60.8 28.7 60.8 28.7 L 60.8 27.8 C 60.8 27.8 61.86 27.79 61.9 27.8 C 62.4 27.8 62.6 28 62.6 28.5 C 62.6 28.5 62.6 34.4 62.6 34.4 C 62.6 34.6 62.6 34.6 62.8 34.6 C 62.8 34.64 63.3 34.6 63.3 34.6 L 63.3 35.6 C 63.3 35.6 62.23 35.55 62.2 35.6 C 61.7 35.6 61.5 35.3 61.5 35 C 61.5 34.8 61.6 34.7 61.6 34.7 C 61.56 34.67 61.5 34.7 61.5 34.7 C 61.5 34.7 61.08 35.68 59.7 35.7 C 58.2 35.7 57.3 34.5 57.3 32.8 C 57.3 31 58.3 29.9 59.8 29.9 Z M 61.5 32.8 C 61.5 31.8 61 30.8 59.9 30.8 C 59.1 30.8 58.3 31.5 58.3 32.8 C 58.3 34 59 34.8 59.9 34.8 C 60.7 34.8 61.5 34.2 61.5 32.8 Z M 64.4 31.1 C 64.4 31 64.4 30.9 64.2 30.9 C 64.2 30.9 63.7 30.9 63.7 30.9 L 63.7 30 C 63.7 30 64.77 29.99 64.8 30 C 65.2 30 65.5 30.2 65.5 30.6 C 65.5 30.6 65.5 30.8 65.5 30.8 C 65.48 30.99 65.5 31.1 65.5 31.1 C 65.5 31.1 65.48 31.13 65.5 31.1 C 65.7 30.6 66.4 29.9 67.6 29.9 C 68.9 29.9 69.5 30.6 69.5 32 C 69.5 32 69.5 34.4 69.5 34.4 C 69.5 34.6 69.6 34.6 69.7 34.6 C 69.72 34.64 70.2 34.6 70.2 34.6 L 70.2 35.6 C 70.2 35.6 69.12 35.55 69.1 35.6 C 68.6 35.6 68.4 35.3 68.4 34.8 C 68.4 34.8 68.4 32.2 68.4 32.2 C 68.4 31.4 68.3 30.8 67.4 30.8 C 66.5 30.8 65.8 31.4 65.6 32.2 C 65.5 32.4 65.5 32.7 65.5 32.9 C 65.51 32.94 65.5 35.6 65.5 35.6 L 64.4 35.6 C 64.4 35.6 64.44 31.14 64.4 31.1 Z M 74.2 32.1 C 74.16 32.09 74.4 32.1 74.4 32.1 C 74.4 32.1 74.4 32.03 74.4 32 C 74.4 31.1 74 30.7 73.2 30.7 C 72.9 30.7 72.3 30.8 72.3 31.1 C 72.25 31.13 72.3 31.4 72.3 31.4 L 71.3 31.4 C 71.3 31.4 71.25 30.9 71.3 30.9 C 71.3 30 72.6 29.9 73.2 29.9 C 75 29.9 75.5 30.8 75.5 32 C 75.5 32 75.5 34.4 75.5 34.4 C 75.5 34.6 75.6 34.6 75.7 34.6 C 75.71 34.64 76.2 34.6 76.2 34.6 L 76.2 35.6 C 76.2 35.6 75.16 35.55 75.2 35.6 C 74.7 35.6 74.5 35.3 74.5 34.9 C 74.5 34.7 74.5 34.6 74.5 34.6 C 74.49 34.58 74.5 34.6 74.5 34.6 C 74.5 34.6 74.02 35.68 72.7 35.7 C 71.7 35.7 70.8 35.1 70.8 34 C 70.8 32.2 73.2 32.1 74.2 32.1 Z M 72.9 34.8 C 73.8 34.8 74.4 33.9 74.4 33.1 C 74.41 33.05 74.4 32.9 74.4 32.9 C 74.4 32.9 74.13 32.87 74.1 32.9 C 73.3 32.9 71.9 32.9 71.9 33.9 C 71.9 34.4 72.2 34.8 72.9 34.8 Z M 73.7 27.8 L 74.8 27.8 L 73.7 29.2 L 72.9 29.2 L 73.7 27.8 Z " stroke="none" fill="#323232"/>  </g></svg>