<?xml version="1.0" standalone="no"?><!DOCTYPE svg PUBLIC "-//W3C//DTD SVG 1.1//EN" "http://www.w3.org/Graphics/SVG/1.1/DTD/svg11.dtd"><svg xmlns="http://www.w3.org/2000/svg" version="1.1" width="104.5px" height="29px" viewBox="0 0 104.5 29">  <desc>Podr denos</desc>  <defs/>  <g id="Polygon72282">    <path d="M 14.7 9.8 L 13.9 9.8 L 13.9 8.8 C 13.9 8.8 17.65 8.78 17.7 8.8 C 19.2 8.8 20.3 9.8 20.3 11.4 C 20.3 13 19.2 14.1 17.7 14.1 C 17.65 14.12 15.9 14.1 15.9 14.1 L 15.9 17.3 L 14.7 17.3 L 14.7 9.8 Z M 17.5 13.1 C 18.5 13.1 19.1 12.5 19.1 11.4 C 19.1 10.4 18.5 9.8 17.5 9.8 C 17.47 9.82 15.9 9.8 15.9 9.8 L 15.9 13.1 C 15.9 13.1 17.46 13.09 17.5 13.1 Z M 24 11 C 25.8 11 27.3 12.4 27.3 14.2 C 27.3 16.1 25.8 17.4 24 17.4 C 22.2 17.4 20.8 16.1 20.8 14.2 C 20.8 12.4 22.2 11 24 11 Z M 24 16.4 C 25.2 16.4 26.1 15.5 26.1 14.2 C 26.1 12.9 25.2 12 24 12 C 22.9 12 21.9 12.9 21.9 14.2 C 21.9 15.5 22.9 16.4 24 16.4 Z M 30.9 11 C 32.33 11.04 32.8 12 32.8 12 L 32.8 12 C 32.8 12 32.8 11.8 32.8 11.6 C 32.8 11.6 32.8 10 32.8 10 C 32.8 9.9 32.7 9.8 32.5 9.8 C 32.53 9.78 32 9.8 32 9.8 L 32 8.8 C 32 8.8 33.19 8.78 33.2 8.8 C 33.7 8.8 34 9 34 9.6 C 34 9.6 34 16 34 16 C 34 16.2 34.1 16.3 34.2 16.3 C 34.22 16.26 34.7 16.3 34.7 16.3 L 34.7 17.3 C 34.7 17.3 33.6 17.26 33.6 17.3 C 33.1 17.3 32.9 17 32.9 16.6 C 32.9 16.4 32.9 16.3 32.9 16.3 C 32.87 16.3 32.8 16.3 32.8 16.3 C 32.8 16.3 32.34 17.4 30.9 17.4 C 29.2 17.4 28.2 16.1 28.2 14.2 C 28.2 12.3 29.3 11 30.9 11 Z M 32.8 14.2 C 32.8 13.1 32.3 12 31.1 12 C 30.2 12 29.4 12.8 29.4 14.2 C 29.4 15.5 30.1 16.4 31.1 16.4 C 32 16.4 32.8 15.8 32.8 14.2 Z M 36 12.4 C 36 12.3 35.9 12.2 35.7 12.2 C 35.75 12.18 35.3 12.2 35.3 12.2 L 35.3 11.2 C 35.3 11.2 36.36 11.18 36.4 11.2 C 36.9 11.2 37.1 11.4 37.1 11.9 C 37.1 11.9 37.1 12.3 37.1 12.3 C 37.14 12.52 37.1 12.7 37.1 12.7 C 37.1 12.7 37.14 12.7 37.1 12.7 C 37.4 11.8 38.1 11.1 39.1 11.1 C 39.21 11.11 39.4 11.1 39.4 11.1 L 39.4 12.3 C 39.4 12.3 39.21 12.25 39 12.3 C 38.3 12.3 37.6 12.8 37.3 13.7 C 37.2 14 37.2 14.4 37.2 14.8 C 37.17 14.77 37.2 17.3 37.2 17.3 L 36 17.3 C 36 17.3 36.01 12.44 36 12.4 Z M 43.4 13.5 C 43.37 13.48 43.6 13.5 43.6 13.5 C 43.6 13.5 43.63 13.42 43.6 13.4 C 43.6 12.3 43.2 12 42.3 12 C 42 12 41.3 12 41.3 12.4 C 41.29 12.43 41.3 12.8 41.3 12.8 L 40.2 12.8 C 40.2 12.8 40.2 12.18 40.2 12.2 C 40.2 11.2 41.7 11 42.3 11 C 44.3 11 44.8 12.1 44.8 13.4 C 44.8 13.4 44.8 16 44.8 16 C 44.8 16.2 44.9 16.3 45.1 16.3 C 45.06 16.26 45.5 16.3 45.5 16.3 L 45.5 17.3 C 45.5 17.3 44.46 17.26 44.5 17.3 C 43.9 17.3 43.7 17 43.7 16.6 C 43.7 16.4 43.7 16.2 43.7 16.2 C 43.73 16.2 43.7 16.2 43.7 16.2 C 43.7 16.2 43.22 17.4 41.8 17.4 C 40.7 17.4 39.7 16.8 39.7 15.6 C 39.7 13.6 42.3 13.5 43.4 13.5 Z M 42 16.5 C 43 16.5 43.6 15.4 43.6 14.5 C 43.64 14.53 43.6 14.3 43.6 14.3 C 43.6 14.3 43.34 14.33 43.3 14.3 C 42.5 14.3 40.9 14.4 40.9 15.5 C 40.9 16 41.3 16.5 42 16.5 Z M 42.9 8.8 L 44 8.8 L 42.9 10.3 L 42 10.3 L 42.9 8.8 Z M 46.2 16.6 C 46.2 16.6 49.29 12.74 49.3 12.7 C 49.56 12.42 49.8 12.2 49.8 12.2 L 49.8 12.2 C 49.8 12.2 49.61 12.18 49.2 12.2 C 49.2 12.2 47.6 12.2 47.6 12.2 C 47.4 12.2 47.3 12.3 47.3 12.4 C 47.29 12.44 47.3 12.9 47.3 12.9 L 46.2 12.9 C 46.2 12.9 46.22 11.95 46.2 12 C 46.2 11.4 46.5 11.2 47 11.2 C 46.99 11.18 51.3 11.2 51.3 11.2 L 51.3 11.9 C 51.3 11.9 48.21 15.71 48.2 15.7 C 47.96 16.01 47.7 16.3 47.7 16.3 L 47.7 16.3 C 47.7 16.3 47.9 16.26 48.3 16.3 C 48.3 16.3 50.2 16.3 50.2 16.3 C 50.4 16.3 50.5 16.2 50.5 16 C 50.51 16 50.5 15.6 50.5 15.6 L 51.6 15.6 C 51.6 15.6 51.56 16.49 51.6 16.5 C 51.6 17 51.3 17.3 50.8 17.3 C 50.79 17.26 46.2 17.3 46.2 17.3 L 46.2 16.6 Z M 47.3 8.8 L 48.3 8.8 L 48.9 9.8 L 48.9 9.8 L 49.5 8.8 L 50.5 8.8 L 49.4 10.3 L 48.4 10.3 L 47.3 8.8 Z M 54.9 11 C 56.33 11.04 56.8 12 56.8 12 L 56.8 12 C 56.8 12 56.79 11.8 56.8 11.6 C 56.8 11.6 56.8 10 56.8 10 C 56.8 9.9 56.7 9.8 56.5 9.8 C 56.53 9.78 56 9.8 56 9.8 L 56 8.8 C 56 8.8 57.19 8.78 57.2 8.8 C 57.7 8.8 58 9 58 9.6 C 58 9.6 58 16 58 16 C 58 16.2 58.1 16.3 58.2 16.3 C 58.22 16.26 58.7 16.3 58.7 16.3 L 58.7 17.3 C 58.7 17.3 57.6 17.26 57.6 17.3 C 57.1 17.3 56.9 17 56.9 16.6 C 56.9 16.4 56.9 16.3 56.9 16.3 C 56.87 16.3 56.8 16.3 56.8 16.3 C 56.8 16.3 56.34 17.4 54.9 17.4 C 53.2 17.4 52.2 16.1 52.2 14.2 C 52.2 12.3 53.3 11 54.9 11 Z M 56.8 14.2 C 56.8 13.1 56.3 12 55.1 12 C 54.2 12 53.4 12.8 53.4 14.2 C 53.4 15.5 54.1 16.4 55.1 16.4 C 56 16.4 56.8 15.8 56.8 14.2 Z M 62.5 11 C 64.2 11 65.1 12.3 65.1 13.9 C 65.09 14.04 65 14.4 65 14.4 C 65 14.4 60.62 14.36 60.6 14.4 C 60.7 15.7 61.6 16.4 62.7 16.4 C 63.75 16.39 64.5 15.7 64.5 15.7 L 65 16.5 C 65 16.5 64.09 17.4 62.7 17.4 C 60.7 17.4 59.4 16 59.4 14.2 C 59.4 12.3 60.7 11 62.5 11 Z M 63.9 13.5 C 63.9 12.5 63.2 12 62.5 12 C 61.6 12 60.8 12.5 60.7 13.5 C 60.7 13.5 63.9 13.5 63.9 13.5 Z M 66.6 12.4 C 66.6 12.3 66.5 12.2 66.4 12.2 C 66.37 12.18 65.9 12.2 65.9 12.2 L 65.9 11.2 C 65.9 11.2 66.99 11.18 67 11.2 C 67.5 11.2 67.8 11.4 67.8 11.9 C 67.8 11.9 67.8 12.1 67.8 12.1 C 67.76 12.28 67.7 12.4 67.7 12.4 C 67.7 12.4 67.76 12.43 67.8 12.4 C 68 11.9 68.7 11 70 11 C 71.5 11 72.1 11.8 72.1 13.4 C 72.1 13.4 72.1 16 72.1 16 C 72.1 16.2 72.2 16.3 72.4 16.3 C 72.39 16.26 72.9 16.3 72.9 16.3 L 72.9 17.3 C 72.9 17.3 71.73 17.26 71.7 17.3 C 71.2 17.3 71 17 71 16.5 C 71 16.5 71 13.6 71 13.6 C 71 12.8 70.8 12.1 69.8 12.1 C 68.9 12.1 68.1 12.7 67.9 13.6 C 67.8 13.8 67.8 14.1 67.8 14.4 C 67.8 14.41 67.8 17.3 67.8 17.3 L 66.6 17.3 C 66.6 17.3 66.63 12.44 66.6 12.4 Z M 76.8 11 C 78.6 11 80.1 12.4 80.1 14.2 C 80.1 16.1 78.6 17.4 76.8 17.4 C 75 17.4 73.6 16.1 73.6 14.2 C 73.6 12.4 75 11 76.8 11 Z M 76.8 16.4 C 78 16.4 78.9 15.5 78.9 14.2 C 78.9 12.9 78 12 76.8 12 C 75.7 12 74.7 12.9 74.7 14.2 C 74.7 15.5 75.7 16.4 76.8 16.4 Z M 81.5 15.6 C 81.5 15.6 82.17 16.45 83.3 16.5 C 83.9 16.5 84.3 16.2 84.3 15.7 C 84.3 14.6 81 14.7 81 12.7 C 81 11.6 82.1 11 83.3 11 C 84 11 85.3 11.3 85.3 12.2 C 85.28 12.22 85.3 12.8 85.3 12.8 L 84.2 12.8 C 84.2 12.8 84.24 12.49 84.2 12.5 C 84.2 12.1 83.7 12 83.3 12 C 82.6 12 82.2 12.2 82.2 12.7 C 82.2 13.8 85.5 13.6 85.5 15.6 C 85.5 16.7 84.6 17.4 83.3 17.4 C 81.66 17.4 80.9 16.3 80.9 16.3 L 81.5 15.6 Z M 87.1 12.1 L 86.3 12.1 L 86.3 11.2 L 87.1 11.2 L 87.1 9.5 L 88.2 9.5 L 88.2 11.2 L 89.7 11.2 L 89.7 12.1 L 88.2 12.1 C 88.2 12.1 88.23 14.9 88.2 14.9 C 88.2 16.1 89.1 16.3 89.5 16.3 C 89.68 16.27 89.8 16.2 89.8 16.2 L 89.8 17.3 C 89.8 17.3 89.64 17.3 89.4 17.3 C 88.6 17.3 87.1 17.1 87.1 15 C 87.07 15.04 87.1 12.1 87.1 12.1 Z M 89.9 8.8 C 90 9 90 9.2 90 9.4 C 90 9.7 89.9 10.1 89.7 10.5 C 89.7 10.5 88.9 10.5 88.9 10.5 C 89 10.1 89.1 9.8 89.1 9.5 C 89.1 9.3 89.1 9 89 8.8 C 89 8.8 89.9 8.8 89.9 8.8 Z " stroke="none" fill="#000"/>  </g></svg>