<?xml version="1.0" standalone="no"?><!DOCTYPE svg PUBLIC "-//W3C//DTD SVG 1.1//EN" "http://www.w3.org/Graphics/SVG/1.1/DTD/svg11.dtd"><svg xmlns="http://www.w3.org/2000/svg" version="1.1" width="135.2px" height="81.8px" viewBox="0 0 135.2 81.8">  <desc>2 zlyhania pou vateliek</desc>  <defs/>  <g id="Polygon81008">    <path d="M 23.9 47.1 C 23.9 46.9 23.8 46.7 23.6 46.7 C 23.56 46.73 22.9 46.7 22.9 46.7 L 22.9 45.8 C 22.9 45.8 23.97 45.85 24 45.8 C 24.6 45.8 24.9 46.1 24.9 46.6 C 24.9 46.9 24.8 47.2 24.8 47.2 C 24.85 47.15 24.9 47.2 24.9 47.2 C 24.9 47.2 25.48 45.67 27.5 45.7 C 29.5 45.7 30.8 47.3 30.8 49.6 C 30.8 52 29.3 53.6 27.4 53.6 C 25.54 53.57 24.9 52.1 24.9 52.1 L 24.9 52.1 C 24.9 52.1 24.91 52.42 24.9 52.8 C 24.91 52.81 24.9 56.4 24.9 56.4 L 23.9 56.4 C 23.9 56.4 23.89 47.06 23.9 47.1 Z M 27.3 52.7 C 28.6 52.7 29.7 51.5 29.7 49.6 C 29.7 47.8 28.7 46.6 27.3 46.6 C 26.1 46.6 24.9 47.5 24.9 49.6 C 24.9 51.2 25.7 52.7 27.3 52.7 Z M 36 45.7 C 38.2 45.7 40 47.3 40 49.6 C 40 51.9 38.2 53.6 36 53.6 C 33.8 53.6 32 51.9 32 49.6 C 32 47.3 33.8 45.7 36 45.7 Z M 36 52.7 C 37.6 52.7 38.9 51.3 38.9 49.6 C 38.9 47.9 37.6 46.6 36 46.6 C 34.4 46.6 33 47.9 33 49.6 C 33 51.3 34.4 52.7 36 52.7 Z M 41.8 47.1 C 41.8 46.9 41.7 46.7 41.5 46.7 C 41.5 46.73 40.9 46.7 40.9 46.7 L 40.9 45.8 C 40.9 45.8 41.94 45.85 41.9 45.8 C 42.6 45.8 42.8 46.1 42.8 46.7 C 42.8 46.7 42.8 50.4 42.8 50.4 C 42.8 51.6 43 52.6 44.5 52.6 C 46.2 52.6 47.3 51.1 47.3 49.5 C 47.28 49.46 47.3 45.8 47.3 45.8 L 48.3 45.8 C 48.3 45.8 48.29 52.18 48.3 52.2 C 48.3 52.4 48.4 52.5 48.6 52.5 C 48.62 52.51 49.3 52.5 49.3 52.5 L 49.3 53.4 C 49.3 53.4 48.22 53.39 48.2 53.4 C 47.6 53.4 47.3 53.1 47.3 52.6 C 47.3 52.6 47.3 52.2 47.3 52.2 C 47.3 51.9 47.3 51.7 47.3 51.7 C 47.3 51.7 47.3 51.7 47.3 51.7 C 47 52.4 46 53.6 44.4 53.6 C 42.6 53.6 41.8 52.6 41.8 50.6 C 41.8 50.6 41.8 47.1 41.8 47.1 Z M 50.2 52.7 C 50.2 52.7 54.43 47.44 54.4 47.4 C 54.71 47.08 55 46.7 55 46.7 L 55 46.7 C 55 46.7 54.77 46.75 54.3 46.7 C 54.3 46.7 51.5 46.7 51.5 46.7 C 51.3 46.7 51.2 46.9 51.2 47.1 C 51.19 47.08 51.2 47.7 51.2 47.7 L 50.2 47.7 C 50.2 47.7 50.23 46.76 50.2 46.8 C 50.2 46.1 50.5 45.8 51.1 45.8 C 51.14 45.85 56.4 45.8 56.4 45.8 L 56.4 46.5 C 56.4 46.5 52.15 51.8 52.1 51.8 C 51.85 52.16 51.5 52.5 51.5 52.5 L 51.5 52.5 C 51.5 52.5 51.79 52.49 52.3 52.5 C 52.3 52.5 55.4 52.5 55.4 52.5 C 55.6 52.5 55.7 52.4 55.7 52.2 C 55.74 52.16 55.7 51.6 55.7 51.6 L 56.7 51.6 C 56.7 51.6 56.69 52.48 56.7 52.5 C 56.7 53.1 56.4 53.4 55.8 53.4 C 55.78 53.39 50.2 53.4 50.2 53.4 L 50.2 52.7 Z M 51.7 42.8 L 52.6 42.8 L 53.5 44 L 53.5 44 L 54.3 42.8 L 55.2 42.8 L 54 44.6 L 52.9 44.6 L 51.7 42.8 Z M 58.5 47.1 C 58.5 46.9 58.4 46.7 58.2 46.7 C 58.15 46.73 57.5 46.7 57.5 46.7 L 57.5 45.8 C 57.5 45.8 58.59 45.85 58.6 45.8 C 59.2 45.8 59.5 46.1 59.5 46.8 C 59.5 46.8 59.5 52.2 59.5 52.2 C 59.5 52.4 59.6 52.5 59.8 52.5 C 59.83 52.51 60.5 52.5 60.5 52.5 L 60.5 53.4 C 60.5 53.4 59.39 53.39 59.4 53.4 C 58.7 53.4 58.5 53.1 58.5 52.5 C 58.5 52.5 58.5 47.1 58.5 47.1 Z M 59.5 42.8 L 60.6 42.8 L 59.3 44.6 L 58.4 44.6 L 59.5 42.8 Z M 61.7 47.1 C 61.6 46.8 61.4 46.7 61.1 46.7 C 61.14 46.73 61 46.7 61 46.7 L 61 45.8 C 61 45.8 61.41 45.85 61.4 45.8 C 62.1 45.8 62.4 46 62.6 46.7 C 62.6 46.7 64.4 51.4 64.4 51.4 C 64.55 51.76 64.7 52.3 64.7 52.3 L 64.7 52.3 C 64.7 52.3 64.82 51.76 65 51.4 C 65 51.4 66.8 46.7 66.8 46.7 C 67 46 67.3 45.8 68 45.8 C 67.96 45.85 68.3 45.8 68.3 45.8 L 68.3 46.7 C 68.3 46.7 68.21 46.73 68.2 46.7 C 67.9 46.7 67.8 46.8 67.7 47.1 C 67.69 47.08 65.2 53.4 65.2 53.4 L 64.1 53.4 C 64.1 53.4 61.66 47.08 61.7 47.1 Z M 73.7 48.7 C 73.71 48.74 74.1 48.7 74.1 48.7 C 74.1 48.7 74.13 48.65 74.1 48.7 C 74.1 47.1 73.6 46.5 72.2 46.5 C 71.8 46.5 70.7 46.6 70.7 47.2 C 70.7 47.18 70.7 47.7 70.7 47.7 L 69.7 47.7 C 69.7 47.7 69.73 46.94 69.7 46.9 C 69.7 45.9 71.5 45.7 72.2 45.7 C 74.6 45.7 75.1 46.9 75.1 48.6 C 75.1 48.6 75.1 52.2 75.1 52.2 C 75.1 52.4 75.3 52.5 75.5 52.5 C 75.47 52.51 76.1 52.5 76.1 52.5 L 76.1 53.4 C 76.1 53.4 75.07 53.39 75.1 53.4 C 74.4 53.4 74.2 53.1 74.2 52.5 C 74.2 52.2 74.2 51.9 74.2 51.9 C 74.2 51.9 74.2 51.9 74.2 51.9 C 74.2 51.9 73.5 53.6 71.6 53.6 C 70.4 53.6 69.1 52.8 69.1 51.3 C 69.1 48.8 72.4 48.7 73.7 48.7 Z M 71.8 52.7 C 73.3 52.7 74.1 51.2 74.1 49.9 C 74.13 49.9 74.1 49.6 74.1 49.6 C 74.1 49.6 73.69 49.55 73.7 49.6 C 72.5 49.6 70.1 49.6 70.1 51.3 C 70.1 52 70.7 52.7 71.8 52.7 Z M 77.8 46.7 L 76.8 46.7 L 76.8 45.8 L 77.8 45.8 L 77.8 43.8 L 78.8 43.8 L 78.8 45.8 L 80.7 45.8 L 80.7 46.7 L 78.8 46.7 C 78.8 46.7 78.83 50.54 78.8 50.5 C 78.8 52.3 80 52.5 80.5 52.5 C 80.74 52.54 80.9 52.5 80.9 52.5 L 80.9 53.4 C 80.9 53.4 80.69 53.45 80.4 53.5 C 79.6 53.5 77.8 53.2 77.8 50.6 C 77.82 50.65 77.8 46.7 77.8 46.7 Z M 85.6 45.7 C 87.7 45.7 88.8 47.3 88.8 49.1 C 88.78 49.33 88.7 49.7 88.7 49.7 C 88.7 49.7 82.96 49.66 83 49.7 C 83 51.6 84.3 52.7 85.9 52.7 C 87.27 52.66 88.1 51.7 88.1 51.7 L 88.6 52.5 C 88.6 52.5 87.55 53.57 85.8 53.6 C 83.6 53.6 81.9 52 81.9 49.6 C 81.9 47.2 83.6 45.7 85.6 45.7 Z M 87.7 48.8 C 87.7 47.3 86.7 46.5 85.6 46.5 C 84.4 46.5 83.3 47.3 83 48.8 C 83 48.8 87.7 48.8 87.7 48.8 Z M 90.8 44.1 C 90.8 43.9 90.7 43.7 90.5 43.7 C 90.48 43.73 89.8 43.7 89.8 43.7 L 89.8 42.8 C 89.8 42.8 90.91 42.85 90.9 42.8 C 91.6 42.8 91.8 43.1 91.8 43.8 C 91.8 43.8 91.8 52.2 91.8 52.2 C 91.8 52.4 91.9 52.5 92.2 52.5 C 92.15 52.51 92.8 52.5 92.8 52.5 L 92.8 53.4 C 92.8 53.4 91.72 53.39 91.7 53.4 C 91.1 53.4 90.8 53.1 90.8 52.5 C 90.8 52.5 90.8 44.1 90.8 44.1 Z M 94.5 42.8 L 95.5 42.8 L 95.5 44.1 L 94.5 44.1 L 94.5 42.8 Z M 94.6 47.1 C 94.6 46.9 94.4 46.7 94.2 46.7 C 94.24 46.73 93.6 46.7 93.6 46.7 L 93.6 45.8 C 93.6 45.8 94.67 45.85 94.7 45.8 C 95.3 45.8 95.6 46.1 95.6 46.8 C 95.6 46.8 95.6 52.2 95.6 52.2 C 95.6 52.4 95.7 52.5 95.9 52.5 C 95.92 52.51 96.5 52.5 96.5 52.5 L 96.5 53.4 C 96.5 53.4 95.48 53.39 95.5 53.4 C 94.8 53.4 94.6 53.1 94.6 52.5 C 94.6 52.5 94.6 47.1 94.6 47.1 Z M 101.3 45.7 C 103.4 45.7 104.4 47.3 104.4 49.1 C 104.44 49.33 104.4 49.7 104.4 49.7 C 104.4 49.7 98.62 49.66 98.6 49.7 C 98.6 51.6 100 52.7 101.5 52.7 C 102.92 52.66 103.8 51.7 103.8 51.7 L 104.3 52.5 C 104.3 52.5 103.21 53.57 101.5 53.6 C 99.3 53.6 97.6 52 97.6 49.6 C 97.6 47.2 99.2 45.7 101.3 45.7 Z M 103.4 48.8 C 103.3 47.3 102.4 46.5 101.3 46.5 C 100 46.5 98.9 47.3 98.7 48.8 C 98.7 48.8 103.4 48.8 103.4 48.8 Z M 106.4 44.1 C 106.4 43.9 106.3 43.7 106.1 43.7 C 106.1 43.73 105.5 43.7 105.5 43.7 L 105.5 42.8 C 105.5 42.8 106.54 42.85 106.5 42.8 C 107.2 42.8 107.5 43.1 107.5 43.7 C 107.45 43.72 107.5 48.7 107.5 48.7 C 107.5 48.7 108.23 48.73 108.2 48.7 C 108.5 48.7 108.9 48.6 109.1 48.4 C 109.09 48.37 111 45.8 111 45.8 L 112.3 45.8 C 112.3 45.8 110.09 48.61 110.1 48.6 C 109.72 49.07 109.5 49.1 109.5 49.1 L 109.5 49.2 C 109.5 49.2 109.75 49.28 110 49.7 C 110 49.7 111.4 52.2 111.4 52.2 C 111.5 52.4 111.6 52.5 112 52.5 C 112.04 52.51 112.4 52.5 112.4 52.5 L 112.4 53.4 C 112.4 53.4 111.74 53.39 111.7 53.4 C 111 53.4 110.8 53.3 110.4 52.6 C 110.4 52.6 108.9 49.9 108.9 49.9 C 108.8 49.6 108.4 49.6 108.1 49.6 C 108.14 49.61 107.5 49.6 107.5 49.6 L 107.5 53.4 L 106.4 53.4 C 106.4 53.4 106.43 44.06 106.4 44.1 Z " stroke="none" fill="#000"/>  </g>  <g id="Polygon81007">    <path d="M 41.1 27.6 C 41.1 26.5 40.2 25.7 38.9 25.7 C 37.8 25.7 37 26.2 37 26.8 C 37.02 26.8 37 27.3 37 27.3 L 36 27.3 C 36 27.3 36.03 26.51 36 26.5 C 36 25.2 37.8 24.7 38.9 24.7 C 40.9 24.7 42.1 26 42.1 27.6 C 42.1 31.3 36.6 31.2 36.6 34.2 C 36.6 34.4 36.7 34.5 36.9 34.5 C 36.9 34.5 41.3 34.5 41.3 34.5 C 41.5 34.5 41.6 34.4 41.6 34.1 C 41.64 34.13 41.6 33.4 41.6 33.4 L 42.6 33.4 C 42.6 33.4 42.62 34.48 42.6 34.5 C 42.6 35.1 42.3 35.4 41.7 35.4 C 41.7 35.4 36.4 35.4 36.4 35.4 C 35.7 35.4 35.5 35.1 35.5 34.4 C 35.5 30.4 41.1 30.8 41.1 27.6 Z M 48 34.7 C 48 34.7 52.22 29.44 52.2 29.4 C 52.5 29.08 52.8 28.7 52.8 28.7 L 52.8 28.7 C 52.8 28.7 52.56 28.75 52.1 28.7 C 52.1 28.7 49.3 28.7 49.3 28.7 C 49.1 28.7 49 28.9 49 29.1 C 48.98 29.08 49 29.7 49 29.7 L 48 29.7 C 48 29.7 48.02 28.76 48 28.8 C 48 28.1 48.3 27.8 48.9 27.8 C 48.93 27.85 54.2 27.8 54.2 27.8 L 54.2 28.5 C 54.2 28.5 49.94 33.8 49.9 33.8 C 49.64 34.16 49.3 34.5 49.3 34.5 L 49.3 34.5 C 49.3 34.5 49.58 34.49 50.1 34.5 C 50.1 34.5 53.2 34.5 53.2 34.5 C 53.4 34.5 53.5 34.4 53.5 34.2 C 53.52 34.16 53.5 33.6 53.5 33.6 L 54.5 33.6 C 54.5 33.6 54.48 34.48 54.5 34.5 C 54.5 35.1 54.2 35.4 53.6 35.4 C 53.57 35.39 48 35.4 48 35.4 L 48 34.7 Z M 56.2 26.1 C 56.2 25.9 56 25.7 55.8 25.7 C 55.83 25.73 55.2 25.7 55.2 25.7 L 55.2 24.8 C 55.2 24.8 56.27 24.85 56.3 24.8 C 56.9 24.8 57.2 25.1 57.2 25.8 C 57.2 25.8 57.2 34.2 57.2 34.2 C 57.2 34.4 57.3 34.5 57.5 34.5 C 57.51 34.51 58.1 34.5 58.1 34.5 L 58.1 35.4 C 58.1 35.4 57.08 35.39 57.1 35.4 C 56.4 35.4 56.2 35.1 56.2 34.5 C 56.2 34.5 56.2 26.1 56.2 26.1 Z M 60.3 37.6 C 60.9 37.6 61.4 37.1 61.7 36.4 C 61.67 36.4 62.1 35.4 62.1 35.4 C 62.1 35.4 59.46 29.08 59.5 29.1 C 59.3 28.8 59.2 28.7 58.9 28.7 C 58.94 28.73 58.8 28.7 58.8 28.7 L 58.8 27.8 C 58.8 27.8 59.25 27.85 59.3 27.8 C 59.9 27.8 60.1 28 60.4 28.7 C 60.4 28.7 62.3 33.4 62.3 33.4 C 62.49 33.76 62.6 34.2 62.6 34.2 L 62.6 34.2 C 62.6 34.2 62.75 33.76 62.9 33.4 C 62.9 33.4 64.8 28.7 64.8 28.7 C 65 28 65.2 27.8 65.9 27.8 C 65.93 27.85 66.4 27.8 66.4 27.8 L 66.4 28.7 C 66.4 28.7 66.24 28.73 66.2 28.7 C 66 28.7 65.8 28.8 65.7 29.1 C 65.7 29.1 62.5 37 62.5 37 C 62.1 37.9 61.3 38.5 60.3 38.5 C 59.25 38.54 58.7 37.8 58.7 37.8 C 58.7 37.8 59.15 37.06 59.1 37.1 C 59.1 37.1 59.6 37.6 60.3 37.6 Z M 67.9 26.1 C 67.9 25.9 67.8 25.7 67.6 25.7 C 67.56 25.73 66.9 25.7 66.9 25.7 L 66.9 24.8 C 66.9 24.8 68 24.85 68 24.8 C 68.6 24.8 68.9 25.1 68.9 25.7 C 68.9 25.7 68.9 28.9 68.9 28.9 C 68.91 29.27 68.9 29.5 68.9 29.5 C 68.9 29.5 68.91 29.54 68.9 29.5 C 69.2 28.8 70.2 27.7 71.9 27.7 C 73.8 27.7 74.4 28.7 74.4 30.6 C 74.4 30.6 74.4 34.2 74.4 34.2 C 74.4 34.4 74.6 34.5 74.8 34.5 C 74.76 34.51 75.4 34.5 75.4 34.5 L 75.4 35.4 C 75.4 35.4 74.33 35.39 74.3 35.4 C 73.7 35.4 73.4 35.1 73.4 34.5 C 73.4 34.5 73.4 30.9 73.4 30.9 C 73.4 29.7 73.2 28.6 71.8 28.6 C 70.5 28.6 69.4 29.5 69 30.8 C 68.9 31.1 68.9 31.4 68.9 31.8 C 68.91 31.78 68.9 35.4 68.9 35.4 L 67.9 35.4 C 67.9 35.4 67.89 26.06 67.9 26.1 Z M 80.9 30.7 C 80.93 30.74 81.3 30.7 81.3 30.7 C 81.3 30.7 81.35 30.65 81.3 30.7 C 81.3 29.1 80.8 28.5 79.4 28.5 C 79 28.5 77.9 28.6 77.9 29.2 C 77.93 29.18 77.9 29.7 77.9 29.7 L 77 29.7 C 77 29.7 76.95 28.94 77 28.9 C 77 27.9 78.8 27.7 79.4 27.7 C 81.8 27.7 82.4 28.9 82.4 30.6 C 82.4 30.6 82.4 34.2 82.4 34.2 C 82.4 34.4 82.5 34.5 82.7 34.5 C 82.7 34.51 83.3 34.5 83.3 34.5 L 83.3 35.4 C 83.3 35.4 82.29 35.39 82.3 35.4 C 81.6 35.4 81.4 35.1 81.4 34.5 C 81.4 34.2 81.4 33.9 81.4 33.9 C 81.4 33.9 81.4 33.9 81.4 33.9 C 81.4 33.9 80.8 35.6 78.9 35.6 C 77.6 35.6 76.3 34.8 76.3 33.3 C 76.3 30.8 79.6 30.7 80.9 30.7 Z M 79 34.7 C 80.5 34.7 81.3 33.2 81.3 31.9 C 81.35 31.9 81.3 31.6 81.3 31.6 C 81.3 31.6 80.91 31.55 80.9 31.6 C 79.7 31.6 77.4 31.6 77.4 33.3 C 77.4 34 77.9 34.7 79 34.7 Z M 84.9 29.1 C 84.9 28.9 84.8 28.7 84.6 28.7 C 84.62 28.73 84 28.7 84 28.7 L 84 27.8 C 84 27.8 85.04 27.85 85 27.8 C 85.7 27.8 86 28.1 86 28.7 C 86 28.7 86 29 86 29 C 85.95 29.33 85.9 29.6 85.9 29.6 C 85.9 29.6 85.95 29.57 86 29.6 C 86.2 28.9 87.2 27.7 89 27.7 C 90.8 27.7 91.5 28.7 91.5 30.6 C 91.5 30.6 91.5 34.2 91.5 34.2 C 91.5 34.4 91.6 34.5 91.8 34.5 C 91.82 34.51 92.4 34.5 92.4 34.5 L 92.4 35.4 C 92.4 35.4 91.38 35.39 91.4 35.4 C 90.7 35.4 90.5 35.1 90.5 34.5 C 90.5 34.5 90.5 30.9 90.5 30.9 C 90.5 29.7 90.3 28.6 88.8 28.6 C 87.5 28.6 86.4 29.5 86.1 30.8 C 86 31.1 86 31.4 86 31.8 C 85.97 31.78 86 35.4 86 35.4 L 84.9 35.4 C 84.9 35.4 84.95 29.06 84.9 29.1 Z M 94.1 24.8 L 95.1 24.8 L 95.1 26.1 L 94.1 26.1 L 94.1 24.8 Z M 94.1 29.1 C 94.1 28.9 94 28.7 93.8 28.7 C 93.81 28.73 93.2 28.7 93.2 28.7 L 93.2 27.8 C 93.2 27.8 94.25 27.85 94.2 27.8 C 94.9 27.8 95.2 28.1 95.2 28.8 C 95.2 28.8 95.2 34.2 95.2 34.2 C 95.2 34.4 95.3 34.5 95.5 34.5 C 95.49 34.51 96.1 34.5 96.1 34.5 L 96.1 35.4 C 96.1 35.4 95.06 35.39 95.1 35.4 C 94.4 35.4 94.1 35.1 94.1 34.5 C 94.1 34.5 94.1 29.1 94.1 29.1 Z M 101.7 30.7 C 101.75 30.74 102.2 30.7 102.2 30.7 C 102.2 30.7 102.17 30.65 102.2 30.7 C 102.2 29.1 101.6 28.5 100.2 28.5 C 99.8 28.5 98.7 28.6 98.7 29.2 C 98.75 29.18 98.7 29.7 98.7 29.7 L 97.8 29.7 C 97.8 29.7 97.77 28.94 97.8 28.9 C 97.8 27.9 99.6 27.7 100.2 27.7 C 102.6 27.7 103.2 28.9 103.2 30.6 C 103.2 30.6 103.2 34.2 103.2 34.2 C 103.2 34.4 103.3 34.5 103.5 34.5 C 103.52 34.51 104.1 34.5 104.1 34.5 L 104.1 35.4 C 104.1 35.4 103.11 35.39 103.1 35.4 C 102.5 35.4 102.2 35.1 102.2 34.5 C 102.2 34.2 102.2 33.9 102.2 33.9 C 102.2 33.9 102.2 33.9 102.2 33.9 C 102.2 33.9 101.6 35.6 99.7 35.6 C 98.4 35.6 97.1 34.8 97.1 33.3 C 97.1 30.8 100.4 30.7 101.7 30.7 Z M 99.9 34.7 C 101.3 34.7 102.2 33.2 102.2 31.9 C 102.17 31.9 102.2 31.6 102.2 31.6 C 102.2 31.6 101.73 31.55 101.7 31.6 C 100.5 31.6 98.2 31.6 98.2 33.3 C 98.2 34 98.7 34.7 99.9 34.7 Z " stroke="none" fill="#000"/>  </g></svg>