<?xml version="1.0" standalone="no"?><!DOCTYPE svg PUBLIC "-//W3C//DTD SVG 1.1//EN" "http://www.w3.org/Graphics/SVG/1.1/DTD/svg11.dtd"><svg xmlns="http://www.w3.org/2000/svg" version="1.1" width="291.4px" height="16.5px" viewBox="0 -2 291.4 16.5" style="top:-2px">  <desc>Cit cia: Data on file. MIT Es0001. April 201</desc>  <defs/>  <g id="Polygon76239">    <path d="M 4.6 0.4 C 5.6 0.4 7 0.8 7 1.7 C 7 1.8 7 1.9 6.9 2.1 C 6.94 2.07 6.9 2.4 6.9 2.4 L 6.2 2.4 C 6.2 2.4 6.29 2.03 6.3 2 C 6.4 1.3 5.2 1 4.6 1 C 2.8 1 1.2 2.6 1.2 4.6 C 1.2 5.9 2 7 3.5 7 C 4.4 7 5.3 6.7 5.9 6.1 C 5.9 6.1 6.3 6.6 6.3 6.6 C 5.6 7.2 4.5 7.6 3.4 7.6 C 1.6 7.6 0.4 6.3 0.4 4.6 C 0.4 2.4 2.3 0.4 4.6 0.4 Z M 8.6 0.5 L 9.3 0.5 L 9.1 1.3 L 8.5 1.3 L 8.6 0.5 Z M 7.4 6.8 C 7.4 6.8 8.1 3.4 8.1 3.4 C 8.1 3.3 8.1 3.3 8.1 3.2 C 8.1 3.1 8.1 3.1 7.9 3.1 C 7.94 3.06 7.5 3.1 7.5 3.1 L 7.6 2.5 C 7.6 2.5 8.32 2.47 8.3 2.5 C 8.7 2.5 8.8 2.6 8.8 2.9 C 8.8 3 8.8 3.1 8.8 3.2 C 8.8 3.2 8.1 6.6 8.1 6.6 C 8.1 6.6 8.1 6.7 8.1 6.8 C 8.1 6.9 8.2 6.9 8.3 6.9 C 8.31 6.91 8.7 6.9 8.7 6.9 L 8.6 7.5 C 8.6 7.5 7.92 7.5 7.9 7.5 C 7.6 7.5 7.4 7.4 7.4 7.1 C 7.4 7 7.4 6.9 7.4 6.8 Z M 10.1 5.7 C 10.08 5.65 10.6 3 10.6 3 L 9.9 3 L 10 2.5 L 10.7 2.5 L 11 1.1 L 11.6 1.1 L 11.4 2.5 L 12.6 2.5 L 12.5 3 L 11.3 3 C 11.3 3 10.78 5.58 10.8 5.6 C 10.7 5.8 10.7 5.9 10.7 6.1 C 10.7 6.9 11.3 6.9 11.6 6.9 C 11.79 6.93 11.9 6.9 11.9 6.9 L 11.8 7.5 C 11.8 7.5 11.64 7.54 11.5 7.5 C 11 7.5 10 7.3 10 6.2 C 10 6 10 5.8 10.1 5.7 Z M 12.5 6.3 C 12.5 4.8 14.4 4.4 15.9 4.4 C 15.93 4.4 16.2 4.4 16.2 4.4 C 16.2 4.4 16.27 4.27 16.3 4.3 C 16.3 4.1 16.3 4 16.3 3.8 C 16.3 3.2 16 2.9 15.3 2.9 C 14.9 2.9 14.2 3 14.2 3.4 C 14.17 3.36 14.1 3.7 14.1 3.7 L 13.5 3.7 C 13.5 3.7 13.55 3.2 13.5 3.2 C 13.7 2.6 14.7 2.4 15.4 2.4 C 16.5 2.4 17 2.9 17 3.7 C 17 3.9 17 4.1 16.9 4.4 C 16.9 4.4 16.5 6.5 16.5 6.5 C 16.5 6.6 16.5 6.7 16.5 6.8 C 16.5 6.8 16.5 6.9 16.6 6.9 C 16.65 6.91 17.1 6.9 17.1 6.9 L 17 7.5 C 17 7.5 16.32 7.5 16.3 7.5 C 15.9 7.5 15.8 7.3 15.8 7.1 C 15.8 7 15.8 6.7 15.9 6.5 C 15.9 6.5 15.9 6.5 15.9 6.5 C 15.9 6.5 15.3 7.6 14 7.6 C 13.2 7.6 12.5 7.2 12.5 6.3 C 12.5 6.3 12.5 6.3 12.5 6.3 Z M 13.2 6.2 C 13.2 6.8 13.6 7.1 14.1 7.1 C 15.2 7.1 16 5.9 16.1 5.2 C 16.1 5.17 16.1 4.9 16.1 4.9 C 16.1 4.9 15.86 4.94 15.9 4.9 C 15 4.9 13.2 5.1 13.2 6.2 C 13.2 6.2 13.2 6.2 13.2 6.2 Z M 16.2 0.5 L 17 0.5 L 15.9 1.7 L 15.3 1.7 L 16.2 0.5 Z M 21 2.4 C 21.6 2.4 22.9 2.6 22.7 3.5 C 22.7 3.46 22.6 3.9 22.6 3.9 L 22 3.9 C 22 3.9 22.04 3.62 22 3.6 C 22.1 3.1 21.4 3 20.9 3 C 19.8 3 18.6 4 18.6 5.4 C 18.6 6.4 19.2 7 20.2 7 C 21.32 7 21.9 6.4 21.9 6.4 L 22.1 6.9 C 22.1 6.9 21.48 7.62 20.2 7.6 C 18.8 7.6 17.9 6.8 17.9 5.4 C 17.9 3.7 19.4 2.4 21 2.4 Z M 24.6 0.5 L 25.2 0.5 L 25.1 1.3 L 24.4 1.3 L 24.6 0.5 Z M 23.4 6.8 C 23.4 6.8 24 3.4 24 3.4 C 24 3.3 24.1 3.3 24.1 3.2 C 24.1 3.1 24 3.1 23.9 3.1 C 23.88 3.06 23.5 3.1 23.5 3.1 L 23.6 2.5 C 23.6 2.5 24.26 2.47 24.3 2.5 C 24.6 2.5 24.8 2.6 24.8 2.9 C 24.8 3 24.8 3.1 24.7 3.2 C 24.7 3.2 24.1 6.6 24.1 6.6 C 24.1 6.6 24.1 6.7 24.1 6.8 C 24.1 6.9 24.1 6.9 24.2 6.9 C 24.25 6.91 24.7 6.9 24.7 6.9 L 24.6 7.5 C 24.6 7.5 23.86 7.5 23.9 7.5 C 23.5 7.5 23.3 7.4 23.3 7.1 C 23.3 7 23.3 6.9 23.4 6.8 Z M 25.4 6.3 C 25.4 4.8 27.2 4.4 28.8 4.4 C 28.78 4.4 29.1 4.4 29.1 4.4 C 29.1 4.4 29.12 4.27 29.1 4.3 C 29.1 4.1 29.2 4 29.2 3.8 C 29.2 3.2 28.8 2.9 28.1 2.9 C 27.8 2.9 27.1 3 27 3.4 C 27.02 3.36 27 3.7 27 3.7 L 26.3 3.7 C 26.3 3.7 26.4 3.2 26.4 3.2 C 26.5 2.6 27.5 2.4 28.2 2.4 C 29.4 2.4 29.8 2.9 29.8 3.7 C 29.8 3.9 29.8 4.1 29.8 4.4 C 29.8 4.4 29.4 6.5 29.4 6.5 C 29.3 6.6 29.3 6.7 29.3 6.8 C 29.3 6.8 29.4 6.9 29.5 6.9 C 29.5 6.91 29.9 6.9 29.9 6.9 L 29.8 7.5 C 29.8 7.5 29.17 7.5 29.2 7.5 C 28.8 7.5 28.6 7.3 28.6 7.1 C 28.6 7 28.7 6.7 28.7 6.5 C 28.7 6.5 28.7 6.5 28.7 6.5 C 28.7 6.5 28.1 7.6 26.8 7.6 C 26.1 7.6 25.4 7.2 25.4 6.3 C 25.4 6.3 25.4 6.3 25.4 6.3 Z M 26.1 6.2 C 26.1 6.8 26.4 7.1 27 7.1 C 28 7.1 28.8 5.9 28.9 5.2 C 28.95 5.17 29 4.9 29 4.9 C 29 4.9 28.71 4.94 28.7 4.9 C 27.9 4.9 26.1 5.1 26.1 6.2 C 26.1 6.2 26.1 6.2 26.1 6.2 Z M 31.6 2.5 L 32.4 2.5 L 32.3 3.3 L 31.5 3.3 L 31.6 2.5 Z M 30.8 6.7 L 31.6 6.7 L 31.4 7.5 L 30.7 7.5 L 30.8 6.7 Z M 36 6.7 C 36.05 6.72 37.1 1.1 37.1 1.1 L 36.5 1.1 L 36.6 0.5 C 36.6 0.5 39.37 0.47 39.4 0.5 C 41.2 0.5 42.4 1.4 42.4 3.3 C 42.4 5.5 40.7 7.5 38.1 7.5 C 38.1 7.5 36.5 7.5 36.5 7.5 C 36.2 7.5 36 7.3 36 7.1 C 36 7 36 6.9 36 6.7 Z M 36.9 6.9 C 36.9 6.9 38.1 6.9 38.1 6.9 C 40.3 6.9 41.6 5.2 41.6 3.3 C 41.6 1.8 40.7 1.1 39.2 1.1 C 39.25 1.09 37.8 1.1 37.8 1.1 C 37.8 1.1 36.79 6.5 36.8 6.5 C 36.8 6.6 36.8 6.7 36.8 6.7 C 36.8 6.8 36.8 6.9 36.9 6.9 Z M 42.6 6.3 C 42.6 4.8 44.5 4.4 46 4.4 C 46.03 4.4 46.3 4.4 46.3 4.4 C 46.3 4.4 46.37 4.27 46.4 4.3 C 46.4 4.1 46.4 4 46.4 3.8 C 46.4 3.2 46.1 2.9 45.4 2.9 C 45 2.9 44.3 3 44.3 3.4 C 44.27 3.36 44.2 3.7 44.2 3.7 L 43.6 3.7 C 43.6 3.7 43.65 3.2 43.6 3.2 C 43.8 2.6 44.8 2.4 45.5 2.4 C 46.6 2.4 47.1 2.9 47.1 3.7 C 47.1 3.9 47.1 4.1 47 4.4 C 47 4.4 46.6 6.5 46.6 6.5 C 46.6 6.6 46.6 6.7 46.6 6.8 C 46.6 6.8 46.6 6.9 46.7 6.9 C 46.75 6.91 47.2 6.9 47.2 6.9 L 47.1 7.5 C 47.1 7.5 46.42 7.5 46.4 7.5 C 46 7.5 45.9 7.3 45.9 7.1 C 45.9 7 45.9 6.7 46 6.5 C 46 6.5 46 6.5 46 6.5 C 46 6.5 45.4 7.6 44.1 7.6 C 43.3 7.6 42.6 7.2 42.6 6.3 C 42.6 6.3 42.6 6.3 42.6 6.3 Z M 43.3 6.2 C 43.3 6.8 43.7 7.1 44.2 7.1 C 45.3 7.1 46.1 5.9 46.2 5.2 C 46.2 5.17 46.2 4.9 46.2 4.9 C 46.2 4.9 45.96 4.94 46 4.9 C 45.1 4.9 43.3 5.1 43.3 6.2 C 43.3 6.2 43.3 6.2 43.3 6.2 Z M 48.4 5.7 C 48.42 5.65 48.9 3 48.9 3 L 48.3 3 L 48.4 2.5 L 49 2.5 L 49.3 1.1 L 50 1.1 L 49.7 2.5 L 51 2.5 L 50.9 3 L 49.6 3 C 49.6 3 49.12 5.58 49.1 5.6 C 49.1 5.8 49.1 5.9 49.1 6.1 C 49.1 6.9 49.6 6.9 50 6.9 C 50.13 6.93 50.2 6.9 50.2 6.9 L 50.1 7.5 C 50.1 7.5 49.98 7.54 49.8 7.5 C 49.3 7.5 48.4 7.3 48.4 6.2 C 48.4 6 48.4 5.8 48.4 5.7 Z M 50.9 6.3 C 50.9 4.8 52.7 4.4 54.3 4.4 C 54.27 4.4 54.6 4.4 54.6 4.4 C 54.6 4.4 54.61 4.27 54.6 4.3 C 54.6 4.1 54.7 4 54.7 3.8 C 54.7 3.2 54.3 2.9 53.6 2.9 C 53.3 2.9 52.6 3 52.5 3.4 C 52.51 3.36 52.5 3.7 52.5 3.7 L 51.8 3.7 C 51.8 3.7 51.89 3.2 51.9 3.2 C 52 2.6 53 2.4 53.7 2.4 C 54.8 2.4 55.3 2.9 55.3 3.7 C 55.3 3.9 55.3 4.1 55.3 4.4 C 55.3 4.4 54.8 6.5 54.8 6.5 C 54.8 6.6 54.8 6.7 54.8 6.8 C 54.8 6.8 54.9 6.9 55 6.9 C 54.99 6.91 55.4 6.9 55.4 6.9 L 55.3 7.5 C 55.3 7.5 54.66 7.5 54.7 7.5 C 54.3 7.5 54.1 7.3 54.1 7.1 C 54.1 7 54.2 6.7 54.2 6.5 C 54.2 6.5 54.2 6.5 54.2 6.5 C 54.2 6.5 53.6 7.6 52.3 7.6 C 51.6 7.6 50.9 7.2 50.9 6.3 C 50.9 6.3 50.9 6.3 50.9 6.3 Z M 51.6 6.2 C 51.6 6.8 51.9 7.1 52.5 7.1 C 53.5 7.1 54.3 5.9 54.4 5.2 C 54.44 5.17 54.5 4.9 54.5 4.9 C 54.5 4.9 54.2 4.94 54.2 4.9 C 53.3 4.9 51.6 5.1 51.6 6.2 C 51.6 6.2 51.6 6.2 51.6 6.2 Z M 62.2 2.4 C 63.5 2.4 64.4 3.2 64.4 4.5 C 64.4 6.3 62.9 7.6 61.3 7.6 C 60 7.6 59 6.7 59 5.4 C 59 3.7 60.6 2.4 62.2 2.4 Z M 61.3 7 C 62.5 7 63.7 5.9 63.7 4.5 C 63.7 3.6 63.1 3 62.1 3 C 60.9 3 59.7 4 59.7 5.4 C 59.7 6.3 60.4 7 61.3 7 Z M 65.9 3.4 C 65.9 3.4 65.9 3.3 65.9 3.2 C 65.9 3.1 65.9 3.1 65.7 3.1 C 65.75 3.06 65.3 3.1 65.3 3.1 L 65.5 2.5 C 65.5 2.5 66.14 2.47 66.1 2.5 C 66.5 2.5 66.7 2.6 66.7 2.9 C 66.7 3.1 66.6 3.4 66.5 3.6 C 66.5 3.6 66.5 3.6 66.5 3.6 C 66.8 3.2 67.6 2.4 68.7 2.4 C 69.7 2.4 70.2 2.9 70.2 3.7 C 70.2 3.9 70.1 4.1 70.1 4.3 C 70.1 4.3 69.7 6.6 69.7 6.6 C 69.6 6.6 69.6 6.7 69.6 6.8 C 69.6 6.9 69.7 6.9 69.8 6.9 C 69.82 6.91 70.2 6.9 70.2 6.9 L 70.1 7.5 C 70.1 7.5 69.43 7.5 69.4 7.5 C 69.1 7.5 68.9 7.4 68.9 7.1 C 68.9 7 68.9 6.9 68.9 6.8 C 68.9 6.8 69.4 4.5 69.4 4.5 C 69.4 4.3 69.5 4.1 69.5 3.9 C 69.5 3.4 69.3 3 68.6 3 C 67.4 3 66.5 4.1 66.3 5.1 C 66.27 5.11 65.8 7.5 65.8 7.5 L 65.1 7.5 C 65.1 7.5 65.91 3.45 65.9 3.4 Z M 74.8 3 L 74.1 3 L 74.2 2.5 L 74.9 2.5 C 74.9 2.5 74.92 2.29 74.9 2.3 C 75.2 0.6 76.4 0.4 76.9 0.4 C 77.17 0.42 77.3 0.4 77.3 0.4 C 77.3 0.4 77.2 1.03 77.2 1 C 77.2 1 77.1 1 76.9 1 C 76.5 1 75.8 1.2 75.6 2.3 C 75.6 2.29 75.6 2.5 75.6 2.5 C 75.6 2.5 77.93 2.47 77.9 2.5 C 78.3 2.5 78.5 2.6 78.5 2.9 C 78.5 3 78.4 3.1 78.4 3.2 C 78.4 3.2 77.8 6.6 77.8 6.6 C 77.7 6.6 77.7 6.7 77.7 6.8 C 77.7 6.9 77.8 6.9 77.9 6.9 C 77.92 6.91 78.3 6.9 78.3 6.9 L 78.2 7.5 C 78.2 7.5 77.53 7.5 77.5 7.5 C 77.2 7.5 77 7.4 77 7.1 C 77 7 77 6.9 77 6.8 C 77 6.8 77.7 3.4 77.7 3.4 C 77.7 3.3 77.7 3.3 77.7 3.2 C 77.7 3.1 77.7 3 77.5 3 C 77.55 3.04 75.4 3 75.4 3 L 74.6 7.5 L 73.9 7.5 L 74.8 3 Z M 78.2 0.5 L 78.9 0.5 L 78.7 1.3 L 78.1 1.3 L 78.2 0.5 Z M 79.5 6.8 C 79.5 6.8 80.5 1.4 80.5 1.4 C 80.5 1.3 80.5 1.3 80.5 1.2 C 80.5 1.1 80.5 1.1 80.4 1.1 C 80.37 1.06 79.9 1.1 79.9 1.1 L 80.1 0.5 C 80.1 0.5 80.76 0.47 80.8 0.5 C 81.1 0.5 81.3 0.6 81.3 0.9 C 81.3 1 81.3 1.1 81.2 1.2 C 81.2 1.2 80.2 6.6 80.2 6.6 C 80.2 6.6 80.2 6.7 80.2 6.8 C 80.2 6.9 80.2 6.9 80.4 6.9 C 80.36 6.91 80.8 6.9 80.8 6.9 L 80.7 7.5 C 80.7 7.5 79.97 7.5 80 7.5 C 79.6 7.5 79.4 7.4 79.4 7.1 C 79.4 7 79.5 6.9 79.5 6.8 Z M 84.6 2.4 C 85.9 2.4 86.5 3.1 86.5 4.2 C 86.46 4.56 86.3 5 86.3 5 L 82.5 5 C 82.5 5 82.41 5.22 82.4 5.4 C 82.4 6.3 83 7 84 7 C 84.93 7.01 85.7 6.4 85.7 6.4 L 85.9 7 C 85.9 7 85.05 7.62 84 7.6 C 82.6 7.6 81.7 6.8 81.7 5.5 C 81.7 3.9 82.9 2.4 84.6 2.4 Z M 85.7 4.5 C 85.7 4.5 85.76 4.3 85.8 4.1 C 85.8 3.3 85.3 2.9 84.6 2.9 C 83.8 2.9 83 3.5 82.6 4.5 C 82.6 4.47 85.7 4.5 85.7 4.5 Z M 87.1 6.7 L 87.9 6.7 L 87.7 7.5 L 86.9 7.5 L 87.1 6.7 Z M 91.5 6.9 C 91.5 6.9 91.85 6.88 91.8 6.9 C 92 6.9 92.1 6.8 92.1 6.7 C 92.11 6.66 93.8 0.5 93.8 0.5 L 94.5 0.5 C 94.5 0.5 95.56 4.56 95.6 4.6 C 95.65 4.93 95.7 5.4 95.7 5.4 L 95.8 5.4 C 95.8 5.4 96.02 4.94 96.3 4.6 C 96.27 4.56 98.9 0.5 98.9 0.5 L 99.7 0.5 C 99.7 0.5 98.97 6.5 99 6.5 C 99 6.6 98.9 6.7 98.9 6.7 C 98.9 6.8 99 6.9 99.1 6.9 C 99.12 6.88 99.5 6.9 99.5 6.9 L 99.4 7.5 C 99.4 7.5 98.76 7.5 98.8 7.5 C 98.4 7.5 98.2 7.4 98.2 7 C 98.2 7 98.2 6.9 98.2 6.8 C 98.2 6.8 98.7 2.6 98.7 2.6 C 98.75 2.24 98.9 1.6 98.9 1.6 L 98.8 1.6 C 98.8 1.6 98.53 2.27 98.3 2.6 C 98.3 2.62 95.9 6.2 95.9 6.2 L 95.3 6.2 C 95.3 6.2 94.34 2.62 94.3 2.6 C 94.25 2.27 94.2 1.6 94.2 1.6 L 94.1 1.6 C 94.1 1.6 94.02 2.25 93.9 2.6 C 93.9 2.6 92.7 6.9 92.7 6.9 C 92.6 7.3 92.5 7.5 92.1 7.5 C 92.07 7.5 91.4 7.5 91.4 7.5 L 91.5 6.9 Z M 100.3 6.9 L 100.9 6.9 L 102.1 1.1 L 101.4 1.1 L 101.5 0.5 L 103.5 0.5 L 103.4 1.1 L 102.7 1.1 L 101.6 6.9 L 102.3 6.9 L 102.2 7.5 L 100.2 7.5 L 100.3 6.9 Z M 106.6 1.1 C 106.6 1.1 104.91 1.09 104.9 1.1 C 104.7 1.1 104.7 1.1 104.6 1.3 C 104.65 1.31 104.6 1.8 104.6 1.8 L 103.9 1.8 C 103.9 1.8 104.07 0.99 104.1 1 C 104.1 0.6 104.3 0.5 104.7 0.5 C 104.7 0.5 109.4 0.5 109.4 0.5 C 109.8 0.5 110 0.7 110 0.9 C 110 1 109.9 1.1 109.9 1.3 C 109.91 1.27 109.8 1.8 109.8 1.8 L 109.2 1.8 C 109.2 1.8 109.22 1.48 109.2 1.5 C 109.2 1.4 109.3 1.3 109.3 1.2 C 109.3 1.1 109.2 1.1 109.1 1.1 C 109.07 1.09 107.3 1.1 107.3 1.1 L 106.1 7.5 L 105.4 7.5 L 106.6 1.1 Z M 109.7 4.4 L 112.5 4.4 L 112.4 5 L 109.6 5 L 109.7 4.4 Z M 113.8 6.7 C 113.79 6.72 114.9 1.1 114.9 1.1 L 114.2 1.1 L 114.4 0.5 C 114.4 0.5 118.36 0.47 118.4 0.5 C 118.8 0.5 118.9 0.7 118.9 0.9 C 118.9 1 118.9 1.1 118.8 1.3 C 118.83 1.27 118.7 1.8 118.7 1.8 L 118.1 1.8 C 118.1 1.8 118.13 1.48 118.1 1.5 C 118.1 1.4 118.2 1.3 118.2 1.2 C 118.2 1.1 118.1 1.1 118 1.1 C 117.98 1.09 115.6 1.1 115.6 1.1 L 115.1 3.7 L 117.7 3.7 L 117.6 4.3 L 115 4.3 C 115 4.3 114.53 6.5 114.5 6.5 C 114.5 6.6 114.5 6.7 114.5 6.7 C 114.5 6.8 114.5 6.9 114.7 6.9 C 114.7 6.9 117.1 6.9 117.1 6.9 C 117.3 6.9 117.4 6.8 117.4 6.7 C 117.42 6.66 117.5 6.2 117.5 6.2 L 118.2 6.2 C 118.2 6.2 118.02 6.91 118 6.9 C 117.9 7.3 117.7 7.5 117.3 7.5 C 117.3 7.5 114.3 7.5 114.3 7.5 C 113.9 7.5 113.7 7.3 113.7 7.1 C 113.7 7 113.8 6.9 113.8 6.7 Z M 119.1 6.3 C 119.1 6.3 119.59 7.03 120.6 7 C 121.3 7 121.8 6.7 121.8 6.2 C 121.8 5.7 121.4 5.5 120.8 5.3 C 120.2 5 119.5 4.7 119.5 3.8 C 119.5 2.9 120.3 2.4 121.3 2.4 C 122 2.4 123 2.6 122.9 3.4 C 122.88 3.37 122.8 3.7 122.8 3.7 L 122.2 3.7 C 122.2 3.7 122.23 3.48 122.2 3.5 C 122.3 3.2 121.9 2.9 121.3 2.9 C 120.6 2.9 120.1 3.3 120.1 3.7 C 120.1 4.3 120.7 4.5 121.2 4.7 C 121.9 5 122.5 5.3 122.5 6.1 C 122.5 7 121.8 7.6 120.6 7.6 C 119.27 7.62 118.7 6.8 118.7 6.8 L 119.1 6.3 Z M 126.9 0.4 C 128.4 0.4 128.9 1.3 128.9 2.6 C 128.9 4.4 128.1 7.6 125.7 7.6 C 124.3 7.6 123.8 6.7 123.8 5.4 C 123.8 3.5 124.5 0.4 126.9 0.4 Z M 125.7 7 C 127.6 7 128.2 4.2 128.2 2.6 C 128.2 1.6 127.9 1 126.9 1 C 125.2 1 124.5 3.6 124.5 5.4 C 124.5 6.3 124.8 7 125.7 7 Z M 133 0.4 C 134.4 0.4 134.9 1.3 134.9 2.6 C 134.9 4.4 134.2 7.6 131.8 7.6 C 130.3 7.6 129.8 6.7 129.8 5.4 C 129.8 3.5 130.6 0.4 133 0.4 Z M 131.8 7 C 133.6 7 134.2 4.2 134.2 2.6 C 134.2 1.6 133.9 1 132.9 1 C 131.2 1 130.5 3.6 130.5 5.4 C 130.5 6.3 130.8 7 131.8 7 Z M 139 0.4 C 140.5 0.4 141 1.3 141 2.6 C 141 4.4 140.2 7.6 137.8 7.6 C 136.4 7.6 135.8 6.7 135.8 5.4 C 135.8 3.5 136.6 0.4 139 0.4 Z M 137.8 7 C 139.6 7 140.2 4.2 140.2 2.6 C 140.2 1.6 139.9 1 139 1 C 137.2 1 136.5 3.6 136.5 5.4 C 136.5 6.3 136.9 7 137.8 7 Z M 141.3 6.9 L 142.9 6.9 C 142.9 6.9 143.87 1.72 143.9 1.7 C 143.91 1.52 143.9 1.3 143.9 1.3 L 143.9 1.3 C 143.9 1.3 143.83 1.48 143.5 1.8 C 143.49 1.75 142.6 2.5 142.6 2.5 L 142.2 2.1 L 144.1 0.5 L 144.8 0.5 L 143.6 6.9 L 145.1 6.9 L 145 7.5 L 141.2 7.5 L 141.3 6.9 Z M 145.9 6.7 L 146.7 6.7 L 146.5 7.5 L 145.7 7.5 L 145.9 6.7 Z M 150.2 6.9 C 150.2 6.9 150.37 6.88 150.4 6.9 C 150.5 6.9 150.6 6.9 150.7 6.7 C 150.71 6.66 154.2 0.5 154.2 0.5 L 155 0.5 C 155 0.5 156.07 6.69 156.1 6.7 C 156.1 6.9 156.2 6.9 156.3 6.9 C 156.32 6.88 156.5 6.9 156.5 6.9 L 156.4 7.5 C 156.4 7.5 155.95 7.5 155.9 7.5 C 155.5 7.5 155.5 7.4 155.4 6.9 C 155.37 6.92 155.1 5.3 155.1 5.3 L 152.3 5.3 C 152.3 5.3 151.35 6.92 151.3 6.9 C 151.1 7.4 150.9 7.5 150.5 7.5 C 150.53 7.5 150.1 7.5 150.1 7.5 L 150.2 6.9 Z M 155 4.7 C 155 4.7 154.56 2.14 154.6 2.1 C 154.51 1.81 154.5 1.2 154.5 1.2 L 154.4 1.2 C 154.4 1.2 154.19 1.81 154 2.1 C 154 2.14 152.6 4.7 152.6 4.7 L 155 4.7 Z M 158.1 3.4 C 158.1 3.3 158.1 3.3 158.1 3.2 C 158.1 3.1 158.1 3.1 158 3.1 C 157.96 3.06 157.5 3.1 157.5 3.1 L 157.6 2.5 C 157.6 2.5 158.35 2.47 158.3 2.5 C 158.7 2.5 158.8 2.6 158.8 2.8 C 158.8 3 158.8 3.2 158.7 3.4 C 158.7 3.4 158.7 3.4 158.7 3.4 C 159.1 2.9 159.7 2.4 160.6 2.4 C 161.8 2.4 162.5 3.1 162.5 4.4 C 162.5 6.3 161.1 7.6 159.7 7.6 C 159 7.6 158.4 7.3 158.2 6.6 C 158.16 6.61 158.1 6.6 158.1 6.6 C 158.1 6.6 158.12 6.84 158.1 7.1 C 158.07 7.09 157.6 9.5 157.6 9.5 L 156.9 9.5 C 156.9 9.5 158.11 3.45 158.1 3.4 Z M 158.4 5.5 C 158.4 6.4 158.8 7 159.7 7 C 160.7 7 161.8 6 161.8 4.5 C 161.8 3.5 161.3 3 160.5 3 C 159.3 3 158.4 4.3 158.4 5.5 C 158.4 5.5 158.4 5.5 158.4 5.5 Z M 164 3.3 C 164 3.2 164 3.1 163.8 3.1 C 163.84 3.06 163.4 3.1 163.4 3.1 L 163.5 2.5 C 163.5 2.5 164.24 2.47 164.2 2.5 C 164.6 2.5 164.7 2.6 164.7 2.9 C 164.7 3 164.6 3.6 164.5 3.8 C 164.5 3.8 164.6 3.8 164.6 3.8 C 164.9 3.1 165.6 2.4 166.4 2.4 C 166.5 2.4 166.6 2.4 166.7 2.5 C 166.7 2.5 166.6 3.1 166.6 3.1 C 166.5 3.1 166.4 3.1 166.3 3.1 C 165.2 3.1 164.5 4.4 164.3 5.6 C 164.26 5.58 163.9 7.5 163.9 7.5 L 163.2 7.5 C 163.2 7.5 164.02 3.28 164 3.3 Z M 168.1 0.5 L 168.7 0.5 L 168.6 1.3 L 167.9 1.3 L 168.1 0.5 Z M 166.9 6.8 C 166.9 6.8 167.5 3.4 167.5 3.4 C 167.5 3.3 167.6 3.3 167.6 3.2 C 167.6 3.1 167.5 3.1 167.4 3.1 C 167.38 3.06 167 3.1 167 3.1 L 167.1 2.5 C 167.1 2.5 167.76 2.47 167.8 2.5 C 168.1 2.5 168.3 2.6 168.3 2.9 C 168.3 3 168.3 3.1 168.2 3.2 C 168.2 3.2 167.6 6.6 167.6 6.6 C 167.6 6.6 167.6 6.7 167.6 6.8 C 167.6 6.9 167.6 6.9 167.7 6.9 C 167.75 6.91 168.2 6.9 168.2 6.9 L 168.1 7.5 C 168.1 7.5 167.36 7.5 167.4 7.5 C 167 7.5 166.8 7.4 166.8 7.1 C 166.8 7 166.8 6.9 166.9 6.8 Z M 169.3 6.8 C 169.3 6.8 170.3 1.4 170.3 1.4 C 170.4 1.3 170.4 1.3 170.4 1.2 C 170.4 1.1 170.3 1.1 170.2 1.1 C 170.2 1.06 169.8 1.1 169.8 1.1 L 169.9 0.5 C 169.9 0.5 170.59 0.47 170.6 0.5 C 170.9 0.5 171.1 0.6 171.1 0.9 C 171.1 1 171.1 1.1 171.1 1.2 C 171.1 1.2 170 6.6 170 6.6 C 170 6.6 170 6.7 170 6.8 C 170 6.9 170.1 6.9 170.2 6.9 C 170.19 6.91 170.6 6.9 170.6 6.9 L 170.5 7.5 C 170.5 7.5 169.8 7.5 169.8 7.5 C 169.4 7.5 169.3 7.4 169.3 7.1 C 169.3 7 169.3 6.9 169.3 6.8 Z M 174 6.9 C 174 4.4 178.6 4.3 178.6 2.1 C 178.6 1.4 178.2 1 177.4 1 C 176.7 1 176.1 1.3 176 1.8 C 176.03 1.81 176 2.1 176 2.1 L 175.3 2.1 C 175.3 2.1 175.4 1.63 175.4 1.6 C 175.6 0.7 176.6 0.4 177.5 0.4 C 178.7 0.4 179.4 1 179.4 2 C 179.4 4.6 174.8 5 174.8 6.7 C 174.8 6.8 174.8 6.9 175 6.9 C 175 6.9 177.9 6.9 177.9 6.9 C 178 6.9 178.1 6.8 178.2 6.7 C 178.16 6.66 178.2 6.2 178.2 6.2 L 178.9 6.2 C 178.9 6.2 178.78 6.89 178.8 6.9 C 178.7 7.3 178.5 7.5 178 7.5 C 178 7.5 174.5 7.5 174.5 7.5 C 174.1 7.5 174 7.3 174 6.9 Z M 183.4 0.4 C 184.8 0.4 185.3 1.3 185.3 2.6 C 185.3 4.4 184.5 7.6 182.1 7.6 C 180.7 7.6 180.2 6.7 180.2 5.4 C 180.2 3.5 181 0.4 183.4 0.4 Z M 182.2 7 C 184 7 184.6 4.2 184.6 2.6 C 184.6 1.6 184.3 1 183.3 1 C 181.6 1 180.9 3.6 180.9 5.4 C 180.9 6.3 181.2 7 182.2 7 Z M 185.6 6.9 L 187.2 6.9 C 187.2 6.9 188.23 1.72 188.2 1.7 C 188.27 1.52 188.3 1.3 188.3 1.3 L 188.3 1.3 C 188.3 1.3 188.19 1.48 187.8 1.8 C 187.85 1.75 187 2.5 187 2.5 L 186.6 2.1 L 188.5 0.5 L 189.2 0.5 L 187.9 6.9 L 189.5 6.9 L 189.3 7.5 L 185.5 7.5 L 185.6 6.9 Z " stroke="none" fill="#000"/>  </g></svg>