<?xml version="1.0" standalone="no"?><!DOCTYPE svg PUBLIC "-//W3C//DTD SVG 1.1//EN" "http://www.w3.org/Graphics/SVG/1.1/DTD/svg11.dtd"><svg xmlns="http://www.w3.org/2000/svg" version="1.1" width="723px" height="84px" viewBox="0 -4 723 84" style="top:-4px">  <desc>Estetrol nezvy uje riziko Ca prsn ka, lebo antagonizuje norm lne aj n dorov tkanivo mlie nej azy. Toto preukazuje ...</desc>  <defs/>  <g id="Polygon75168">    <path d="M 1.8 48.9 L 3.6 48.9 L 3.6 50.9 L 1.8 50.9 L 1.8 48.9 Z M 1.8 55 C 1.8 54.7 1.6 54.5 1.4 54.5 C 1.36 54.54 0.5 54.5 0.5 54.5 L 0.5 52.9 C 0.5 52.9 2.44 52.88 2.4 52.9 C 3.3 52.9 3.7 53.3 3.7 54.2 C 3.7 54.2 3.7 60.9 3.7 60.9 C 3.7 61.2 3.9 61.3 4.2 61.3 C 4.16 61.34 5 61.3 5 61.3 L 5 63 C 5 63 3.08 63 3.1 63 C 2.2 63 1.8 62.6 1.8 61.7 C 1.8 61.7 1.8 55 1.8 55 Z M 12.5 55 C 12.5 54.7 12.4 54.5 12.1 54.5 C 12.1 54.54 11.3 54.5 11.3 54.5 L 11.3 52.9 C 11.3 52.9 13.18 52.88 13.2 52.9 C 14.1 52.9 14.5 53.3 14.5 54.1 C 14.5 54.1 14.5 58.9 14.5 58.9 C 14.5 60.3 14.8 61.4 16.4 61.4 C 18.4 61.4 19.7 59.6 19.7 57.6 C 19.66 57.62 19.7 52.9 19.7 52.9 L 21.6 52.9 C 21.6 52.9 21.6 60.9 21.6 60.9 C 21.6 61.2 21.8 61.3 22 61.3 C 22.04 61.34 22.9 61.3 22.9 61.3 L 22.9 63 C 22.9 63 21 63 21 63 C 20.1 63 19.7 62.6 19.7 61.9 C 19.7 61.9 19.7 61.5 19.7 61.5 C 19.72 61.18 19.7 60.9 19.7 60.9 C 19.7 60.9 19.7 60.92 19.7 60.9 C 19.3 61.9 18 63.2 16 63.2 C 13.7 63.2 12.5 62 12.5 59.4 C 12.5 59.4 12.5 55 12.5 55 Z M 30.3 51 C 30.3 50.7 30.2 50.5 29.9 50.5 C 29.9 50.54 29.1 50.5 29.1 50.5 L 29.1 48.9 C 29.1 48.9 31 48.88 31 48.9 C 31.9 48.9 32.3 49.3 32.3 50.2 C 32.3 50.2 32.3 60.9 32.3 60.9 C 32.3 61.2 32.4 61.3 32.7 61.3 C 32.72 61.34 33.5 61.3 33.5 61.3 L 33.5 63 C 33.5 63 31.62 63 31.6 63 C 30.7 63 30.3 62.6 30.3 61.7 C 30.3 61.7 30.3 51 30.3 51 Z M 35 48.9 C 35.1 49.2 35.1 49.6 35.1 49.9 C 35.1 50.5 34.9 51 34.6 51.7 C 34.6 51.7 33.2 51.7 33.2 51.7 C 33.5 51.1 33.6 50.6 33.6 50.1 C 33.6 49.7 33.6 49.3 33.4 48.9 C 33.4 48.9 35 48.9 35 48.9 Z M 37.4 55 C 37.4 54.7 37.3 54.5 37 54.5 C 36.98 54.54 36.2 54.5 36.2 54.5 L 36.2 52.9 C 36.2 52.9 38.06 52.88 38.1 52.9 C 39 52.9 39.4 53.3 39.4 54.1 C 39.4 54.1 39.4 58.9 39.4 58.9 C 39.4 60.3 39.6 61.4 41.2 61.4 C 43.3 61.4 44.5 59.6 44.5 57.6 C 44.54 57.62 44.5 52.9 44.5 52.9 L 46.5 52.9 C 46.5 52.9 46.48 60.9 46.5 60.9 C 46.5 61.2 46.6 61.3 46.9 61.3 C 46.92 61.34 47.7 61.3 47.7 61.3 L 47.7 63 C 47.7 63 45.88 63 45.9 63 C 45 63 44.6 62.6 44.6 61.9 C 44.6 61.9 44.6 61.5 44.6 61.5 C 44.6 61.18 44.6 60.9 44.6 60.9 C 44.6 60.9 44.58 60.92 44.6 60.9 C 44.2 61.9 42.9 63.2 40.9 63.2 C 38.6 63.2 37.4 62 37.4 59.4 C 37.4 59.4 37.4 55 37.4 55 Z M 53.5 52.6 C 55.84 52.64 56.6 54.2 56.6 54.2 L 56.7 54.2 C 56.7 54.2 56.62 53.9 56.6 53.5 C 56.6 53.5 56.6 51 56.6 51 C 56.6 50.7 56.5 50.5 56.2 50.5 C 56.18 50.54 55.4 50.5 55.4 50.5 L 55.4 48.9 C 55.4 48.9 57.28 48.88 57.3 48.9 C 58.2 48.9 58.6 49.3 58.6 50.2 C 58.6 50.2 58.6 60.9 58.6 60.9 C 58.6 61.2 58.7 61.3 59 61.3 C 59 61.34 59.8 61.3 59.8 61.3 L 59.8 63 C 59.8 63 57.96 63 58 63 C 57.1 63 56.7 62.6 56.7 61.9 C 56.72 61.62 56.7 61.4 56.7 61.4 L 56.7 61.4 C 56.7 61.4 55.86 63.24 53.4 63.2 C 50.6 63.2 48.9 61.1 48.9 57.9 C 48.9 54.7 50.8 52.6 53.5 52.6 Z M 56.7 57.9 C 56.7 56.1 55.7 54.3 53.8 54.3 C 52.2 54.3 50.9 55.6 50.9 57.9 C 50.9 60.1 52.1 61.6 53.8 61.6 C 55.3 61.6 56.7 60.5 56.7 57.9 Z M 62.1 55 C 62.1 54.7 61.9 54.5 61.6 54.5 C 61.64 54.54 60.8 54.5 60.8 54.5 L 60.8 52.9 C 60.8 52.9 62.74 52.88 62.7 52.9 C 63.6 52.9 64 53.3 64 54.2 C 64 54.2 64 60.9 64 60.9 C 64 61.2 64.2 61.3 64.5 61.3 C 64.46 61.34 65.3 61.3 65.3 61.3 L 65.3 63 C 65.3 63 63.38 63 63.4 63 C 62.5 63 62.1 62.6 62.1 61.7 C 62.1 61.7 62.1 55 62.1 55 Z M 63.6 48.9 L 65.5 48.9 L 63.6 51.4 L 62.1 51.4 L 63.6 48.9 Z M 67.2 60.9 L 69.2 60.9 L 69.2 63 L 67.2 63 L 67.2 60.9 Z " stroke="none" fill="#ee3078"/>  </g>  <g id="Polygon75167">    <path d="M 1.8 30.4 L 0.5 30.4 L 0.5 28.9 L 1.8 28.9 L 1.8 26.1 L 3.7 26.1 L 3.7 28.9 L 6.1 28.9 L 6.1 30.4 L 3.7 30.4 C 3.7 30.4 3.72 35.08 3.7 35.1 C 3.7 37.1 5.1 37.4 5.9 37.4 C 6.14 37.36 6.3 37.3 6.3 37.3 L 6.3 39 C 6.3 39 6.06 39.08 5.6 39.1 C 4.4 39.1 1.8 38.7 1.8 35.3 C 1.78 35.3 1.8 30.4 1.8 30.4 Z M 8.5 27 C 8.5 26.7 8.4 26.5 8.1 26.5 C 8.08 26.54 7.3 26.5 7.3 26.5 L 7.3 24.9 C 7.3 24.9 9.18 24.88 9.2 24.9 C 10.1 24.9 10.5 25.1 10.5 26 C 10.46 26.04 10.5 32.6 10.5 32.6 C 10.5 32.6 11.36 32.6 11.4 32.6 C 11.7 32.6 12.2 32.5 12.4 32.2 C 12.42 32.16 14.8 28.9 14.8 28.9 L 17 28.9 C 17 28.9 14.24 32.64 14.2 32.6 C 13.78 33.26 13.5 33.4 13.5 33.4 L 13.5 33.4 C 13.5 33.4 13.82 33.56 14.2 34.2 C 14.2 34.2 15.7 36.9 15.7 36.9 C 15.8 37.3 16 37.3 16.5 37.3 C 16.52 37.34 17.1 37.3 17.1 37.3 L 17.1 39 C 17.1 39 15.74 39 15.7 39 C 14.8 39 14.5 38.8 14.1 38.1 C 14.1 38.1 12.2 34.7 12.2 34.7 C 12 34.3 11.5 34.2 11.2 34.2 C 11.22 34.24 10.5 34.2 10.5 34.2 L 10.5 39 L 8.5 39 C 8.5 39 8.52 26.98 8.5 27 Z M 24.1 32.7 C 24.14 32.7 24.6 32.7 24.6 32.7 C 24.6 32.7 24.58 32.6 24.6 32.6 C 24.6 30.8 23.9 30.2 22.3 30.2 C 21.9 30.2 20.7 30.3 20.7 31 C 20.68 30.96 20.7 31.5 20.7 31.5 L 18.9 31.5 C 18.9 31.5 18.86 30.54 18.9 30.5 C 18.9 28.9 21.4 28.6 22.4 28.6 C 25.6 28.6 26.5 30.4 26.5 32.6 C 26.5 32.6 26.5 36.9 26.5 36.9 C 26.5 37.2 26.7 37.3 27 37.3 C 26.96 37.34 27.8 37.3 27.8 37.3 L 27.8 39 C 27.8 39 25.96 39 26 39 C 25.1 39 24.7 38.6 24.7 37.8 C 24.7 37.5 24.7 37.2 24.7 37.2 L 24.7 37.2 C 24.7 37.2 23.9 39.24 21.5 39.2 C 19.7 39.2 18 38.2 18 36.2 C 18 32.9 22.4 32.7 24.1 32.7 Z M 21.9 37.7 C 23.5 37.7 24.6 36 24.6 34.5 C 24.6 34.46 24.6 34.1 24.6 34.1 C 24.6 34.1 24.1 34.12 24.1 34.1 C 22.6 34.1 20 34.2 20 36.1 C 20 36.9 20.6 37.7 21.9 37.7 Z M 29.9 31 C 29.9 30.7 29.7 30.5 29.4 30.5 C 29.44 30.54 28.6 30.5 28.6 30.5 L 28.6 28.9 C 28.6 28.9 30.48 28.88 30.5 28.9 C 31.3 28.9 31.8 29.3 31.8 30 C 31.8 30 31.8 30.4 31.8 30.4 C 31.76 30.7 31.7 31 31.7 31 C 31.7 31 31.76 30.96 31.8 31 C 32.2 30.1 33.4 28.6 35.6 28.6 C 38 28.6 39 29.9 39 32.5 C 39 32.5 39 36.9 39 36.9 C 39 37.2 39.2 37.3 39.5 37.3 C 39.48 37.34 40.3 37.3 40.3 37.3 L 40.3 39 C 40.3 39 38.38 39 38.4 39 C 37.5 39 37.1 38.6 37.1 37.7 C 37.1 37.7 37.1 33 37.1 33 C 37.1 31.5 36.8 30.4 35.2 30.4 C 33.6 30.4 32.4 31.4 32 32.9 C 31.9 33.3 31.8 33.8 31.8 34.3 C 31.82 34.26 31.8 39 31.8 39 L 29.9 39 C 29.9 39 29.88 30.98 29.9 31 Z M 42.5 24.9 L 44.3 24.9 L 44.3 26.9 L 42.5 26.9 L 42.5 24.9 Z M 42.5 31 C 42.5 30.7 42.3 30.5 42.1 30.5 C 42.06 30.54 41.2 30.5 41.2 30.5 L 41.2 28.9 C 41.2 28.9 43.14 28.88 43.1 28.9 C 44 28.9 44.4 29.3 44.4 30.2 C 44.4 30.2 44.4 36.9 44.4 36.9 C 44.4 37.2 44.6 37.3 44.9 37.3 C 44.86 37.34 45.7 37.3 45.7 37.3 L 45.7 39 C 45.7 39 43.78 39 43.8 39 C 42.9 39 42.5 38.6 42.5 37.7 C 42.5 37.7 42.5 31 42.5 31 Z M 47.2 30.9 C 47.1 30.6 46.9 30.5 46.6 30.5 C 46.56 30.54 46.4 30.5 46.4 30.5 L 46.4 28.9 C 46.4 28.9 47.36 28.88 47.4 28.9 C 48.3 28.9 48.6 29.1 48.9 29.9 C 48.9 29.9 51.1 35.7 51.1 35.7 C 51.28 36.28 51.4 37 51.4 37 L 51.5 37 C 51.5 37 51.64 36.28 51.8 35.7 C 51.8 35.7 54 29.9 54 29.9 C 54.3 29.1 54.7 28.9 55.5 28.9 C 55.54 28.88 56.5 28.9 56.5 28.9 L 56.5 30.5 C 56.5 30.5 56.28 30.54 56.3 30.5 C 55.9 30.5 55.7 30.6 55.6 30.9 C 55.62 30.94 52.5 39 52.5 39 L 50.3 39 C 50.3 39 47.18 30.94 47.2 30.9 Z M 62.7 28.6 C 65.7 28.6 68.2 30.9 68.2 33.9 C 68.2 37 65.7 39.2 62.7 39.2 C 59.7 39.2 57.3 37 57.3 33.9 C 57.3 30.9 59.7 28.6 62.7 28.6 Z M 62.7 37.6 C 64.6 37.6 66.2 36 66.2 33.9 C 66.2 31.8 64.6 30.3 62.7 30.3 C 60.8 30.3 59.2 31.8 59.2 33.9 C 59.2 36 60.8 37.6 62.7 37.6 Z M 76 31 C 76 30.7 75.8 30.5 75.5 30.5 C 75.52 30.54 74.7 30.5 74.7 30.5 L 74.7 28.9 C 74.7 28.9 76.56 28.88 76.6 28.9 C 77.4 28.9 77.8 29.3 77.8 30 C 77.8 30 77.8 30.4 77.8 30.4 C 77.84 30.7 77.8 31 77.8 31 C 77.8 31 77.86 30.96 77.9 31 C 78.3 29.8 79.7 28.6 81.3 28.6 C 83 28.6 84 29.4 84.4 30.9 C 84.4 30.9 84.4 30.9 84.4 30.9 C 85 29.7 86.4 28.6 88 28.6 C 90.3 28.6 91.3 29.9 91.3 32.5 C 91.3 32.5 91.3 36.9 91.3 36.9 C 91.3 37.2 91.5 37.3 91.8 37.3 C 91.78 37.34 92.6 37.3 92.6 37.3 L 92.6 39 C 92.6 39 90.68 39 90.7 39 C 89.8 39 89.4 38.6 89.4 37.7 C 89.4 37.7 89.4 32.9 89.4 32.9 C 89.4 31.5 89.1 30.4 87.6 30.4 C 86.2 30.4 85.1 31.6 84.8 33 C 84.7 33.4 84.6 33.9 84.6 34.4 C 84.62 34.38 84.6 39 84.6 39 L 82.7 39 C 82.7 39 82.68 32.94 82.7 32.9 C 82.7 31.6 82.5 30.4 80.9 30.4 C 79.5 30.4 78.4 31.6 78 33.1 C 77.9 33.5 77.9 33.9 77.9 34.4 C 77.9 34.38 77.9 39 77.9 39 L 76 39 C 76 39 75.96 30.98 76 31 Z M 94.7 27 C 94.7 26.7 94.5 26.5 94.2 26.5 C 94.22 26.54 93.4 26.5 93.4 26.5 L 93.4 24.9 C 93.4 24.9 95.32 24.88 95.3 24.9 C 96.2 24.9 96.6 25.3 96.6 26.2 C 96.6 26.2 96.6 36.9 96.6 36.9 C 96.6 37.2 96.8 37.3 97 37.3 C 97.04 37.34 97.9 37.3 97.9 37.3 L 97.9 39 C 97.9 39 95.94 39 95.9 39 C 95 39 94.7 38.6 94.7 37.7 C 94.7 37.7 94.7 27 94.7 27 Z M 100.2 24.9 L 101.9 24.9 L 101.9 26.9 L 100.2 26.9 L 100.2 24.9 Z M 100.2 31 C 100.2 30.7 100 30.5 99.7 30.5 C 99.72 30.54 98.9 30.5 98.9 30.5 L 98.9 28.9 C 98.9 28.9 100.8 28.88 100.8 28.9 C 101.7 28.9 102.1 29.3 102.1 30.2 C 102.1 30.2 102.1 36.9 102.1 36.9 C 102.1 37.2 102.2 37.3 102.5 37.3 C 102.52 37.34 103.3 37.3 103.3 37.3 L 103.3 39 C 103.3 39 101.44 39 101.4 39 C 100.5 39 100.2 38.6 100.2 37.7 C 100.2 37.7 100.2 31 100.2 31 Z M 109.7 28.6 C 112.5 28.6 114 30.8 114 33.4 C 114.02 33.64 114 34.2 114 34.2 C 114 34.2 106.58 34.18 106.6 34.2 C 106.7 36.3 108.3 37.6 110.1 37.6 C 111.8 37.56 113 36.4 113 36.4 L 113.9 37.8 C 113.9 37.8 112.36 39.24 110 39.2 C 106.8 39.2 104.6 36.9 104.6 33.9 C 104.6 30.7 106.8 28.6 109.7 28.6 Z M 112 32.8 C 112 31.1 110.9 30.2 109.6 30.2 C 108.2 30.2 107 31.1 106.7 32.8 C 106.7 32.8 112 32.8 112 32.8 Z M 121.1 28.6 C 122.3 28.6 124.7 29.1 124.7 30.9 C 124.7 30.86 124.7 31.9 124.7 31.9 L 122.9 31.9 C 122.9 31.9 122.94 31.34 122.9 31.3 C 122.9 30.6 121.8 30.3 121.1 30.3 C 119.1 30.3 117.6 31.8 117.6 33.9 C 117.6 36.2 119.3 37.5 121.2 37.5 C 123.06 37.52 124.3 36.1 124.3 36.1 L 125.1 37.5 C 125.1 37.5 123.7 39.24 121 39.2 C 117.8 39.2 115.6 37 115.6 33.9 C 115.6 31 117.8 28.6 121.1 28.6 Z M 118.1 24.9 L 119.7 24.9 L 120.7 26.5 L 120.7 26.5 L 121.8 24.9 L 123.4 24.9 L 121.6 27.4 L 119.8 27.4 L 118.1 24.9 Z M 127.3 31 C 127.3 30.7 127.1 30.5 126.8 30.5 C 126.82 30.54 126 30.5 126 30.5 L 126 28.9 C 126 28.9 127.86 28.88 127.9 28.9 C 128.7 28.9 129.1 29.3 129.1 30 C 129.1 30 129.1 30.4 129.1 30.4 C 129.14 30.7 129.1 31 129.1 31 C 129.1 31 129.14 30.96 129.1 31 C 129.5 30.1 130.7 28.6 132.9 28.6 C 135.3 28.6 136.4 29.9 136.4 32.5 C 136.4 32.5 136.4 36.9 136.4 36.9 C 136.4 37.2 136.6 37.3 136.9 37.3 C 136.86 37.34 137.7 37.3 137.7 37.3 L 137.7 39 C 137.7 39 135.76 39 135.8 39 C 134.9 39 134.5 38.6 134.5 37.7 C 134.5 37.7 134.5 33 134.5 33 C 134.5 31.5 134.2 30.4 132.6 30.4 C 131 30.4 129.8 31.4 129.4 32.9 C 129.2 33.3 129.2 33.8 129.2 34.3 C 129.2 34.26 129.2 39 129.2 39 L 127.3 39 C 127.3 39 127.26 30.98 127.3 31 Z M 143.9 28.6 C 146.7 28.6 148.2 30.8 148.2 33.4 C 148.24 33.64 148.2 34.2 148.2 34.2 C 148.2 34.2 140.8 34.18 140.8 34.2 C 140.9 36.3 142.5 37.6 144.3 37.6 C 146.02 37.56 147.2 36.4 147.2 36.4 L 148.1 37.8 C 148.1 37.8 146.58 39.24 144.2 39.2 C 141 39.2 138.8 36.9 138.8 33.9 C 138.8 30.7 141 28.6 143.9 28.6 Z M 146.2 32.8 C 146.2 31.1 145.1 30.2 143.9 30.2 C 142.4 30.2 141.2 31.1 140.9 32.8 C 140.9 32.8 146.2 32.8 146.2 32.8 Z M 151.4 24.9 L 153.1 24.9 L 153.1 26.9 L 151.4 26.9 L 151.4 24.9 Z M 149.2 41.4 C 149.9 41.4 151.3 41.2 151.3 39.2 C 151.3 39.2 151.3 31 151.3 31 C 151.3 30.7 151.2 30.5 150.9 30.5 C 150.88 30.54 150.1 30.5 150.1 30.5 L 150.1 28.9 C 150.1 28.9 151.98 28.88 152 28.9 C 152.9 28.9 153.3 29.3 153.3 30.2 C 153.3 30.2 153.3 39.3 153.3 39.3 C 153.3 42.7 150.7 43.1 149.4 43.1 C 148.98 43.12 148.7 43.1 148.7 43.1 L 148.7 41.4 C 148.7 41.4 148.9 41.44 149.2 41.4 Z M 160.9 37.9 C 160.9 37.9 166.06 31.48 166.1 31.5 C 166.5 30.94 166.9 30.5 166.9 30.5 L 166.9 30.5 C 166.9 30.5 166.58 30.54 165.9 30.5 C 165.9 30.5 163.2 30.5 163.2 30.5 C 162.9 30.5 162.7 30.7 162.7 31 C 162.72 30.98 162.7 31.7 162.7 31.7 L 160.9 31.7 C 160.9 31.7 160.94 30.16 160.9 30.2 C 160.9 29.3 161.3 28.9 162.2 28.9 C 162.22 28.88 169.5 28.9 169.5 28.9 L 169.5 30 C 169.5 30 164.26 36.42 164.3 36.4 C 163.84 36.92 163.4 37.3 163.4 37.3 L 163.4 37.4 C 163.4 37.4 163.74 37.34 164.4 37.3 C 164.4 37.3 167.6 37.3 167.6 37.3 C 167.9 37.3 168.1 37.2 168.1 36.9 C 168.08 36.9 168.1 36.2 168.1 36.2 L 169.8 36.2 C 169.8 36.2 169.84 37.72 169.8 37.7 C 169.8 38.6 169.5 39 168.6 39 C 168.56 39 160.9 39 160.9 39 L 160.9 37.9 Z M 162.8 24.9 L 164.4 24.9 L 165.4 26.5 L 165.4 26.5 L 166.5 24.9 L 168.1 24.9 L 166.3 27.4 L 164.5 27.4 L 162.8 24.9 Z M 172 27 C 172 26.7 171.8 26.5 171.5 26.5 C 171.54 26.54 170.7 26.5 170.7 26.5 L 170.7 24.9 C 170.7 24.9 172.64 24.88 172.6 24.9 C 173.5 24.9 173.9 25.3 173.9 26.2 C 173.9 26.2 173.9 36.9 173.9 36.9 C 173.9 37.2 174.1 37.3 174.4 37.3 C 174.36 37.34 175.2 37.3 175.2 37.3 L 175.2 39 C 175.2 39 173.26 39 173.3 39 C 172.4 39 172 38.6 172 37.7 C 172 37.7 172 27 172 27 Z M 176.6 24.9 C 176.7 25.2 176.7 25.6 176.7 25.9 C 176.7 26.5 176.6 27 176.3 27.7 C 176.3 27.7 174.9 27.7 174.9 27.7 C 175.1 27.1 175.3 26.6 175.3 26.1 C 175.3 25.7 175.2 25.3 175 24.9 C 175 24.9 176.6 24.9 176.6 24.9 Z M 184.2 32.7 C 184.24 32.7 184.7 32.7 184.7 32.7 C 184.7 32.7 184.68 32.6 184.7 32.6 C 184.7 30.8 184 30.2 182.4 30.2 C 182 30.2 180.8 30.3 180.8 31 C 180.78 30.96 180.8 31.5 180.8 31.5 L 179 31.5 C 179 31.5 178.96 30.54 179 30.5 C 179 28.9 181.5 28.6 182.5 28.6 C 185.7 28.6 186.6 30.4 186.6 32.6 C 186.6 32.6 186.6 36.9 186.6 36.9 C 186.6 37.2 186.8 37.3 187.1 37.3 C 187.06 37.34 187.9 37.3 187.9 37.3 L 187.9 39 C 187.9 39 186.06 39 186.1 39 C 185.2 39 184.8 38.6 184.8 37.8 C 184.8 37.5 184.8 37.2 184.8 37.2 L 184.8 37.2 C 184.8 37.2 184 39.24 181.6 39.2 C 179.8 39.2 178.1 38.2 178.1 36.2 C 178.1 32.9 182.5 32.7 184.2 32.7 Z M 182 37.7 C 183.6 37.7 184.7 36 184.7 34.5 C 184.7 34.46 184.7 34.1 184.7 34.1 C 184.7 34.1 184.2 34.12 184.2 34.1 C 182.7 34.1 180.1 34.2 180.1 36.1 C 180.1 36.9 180.7 37.7 182 37.7 Z M 188.9 37.9 C 188.9 37.9 194.12 31.48 194.1 31.5 C 194.56 30.94 195 30.5 195 30.5 L 195 30.5 C 195 30.5 194.64 30.54 194 30.5 C 194 30.5 191.2 30.5 191.2 30.5 C 190.9 30.5 190.8 30.7 190.8 31 C 190.78 30.98 190.8 31.7 190.8 31.7 L 189 31.7 C 189 31.7 189 30.16 189 30.2 C 189 29.3 189.4 28.9 190.3 28.9 C 190.28 28.88 197.5 28.9 197.5 28.9 L 197.5 30 C 197.5 30 192.32 36.42 192.3 36.4 C 191.9 36.92 191.5 37.3 191.5 37.3 L 191.5 37.4 C 191.5 37.4 191.8 37.34 192.5 37.3 C 192.5 37.3 195.7 37.3 195.7 37.3 C 196 37.3 196.1 37.2 196.1 36.9 C 196.14 36.9 196.1 36.2 196.1 36.2 L 197.9 36.2 C 197.9 36.2 197.9 37.72 197.9 37.7 C 197.9 38.6 197.5 39 196.6 39 C 196.62 39 188.9 39 188.9 39 L 188.9 37.9 Z M 200.5 41.5 C 201.2 41.5 201.9 41 202.2 40.1 C 202.24 40.06 202.7 39 202.7 39 C 202.7 39 199.24 30.94 199.2 30.9 C 199.1 30.6 198.9 30.5 198.6 30.5 C 198.6 30.54 198.4 30.5 198.4 30.5 L 198.4 28.9 C 198.4 28.9 199.5 28.88 199.5 28.9 C 200.3 28.9 200.6 29.1 200.9 29.9 C 200.9 29.9 203.2 35.6 203.2 35.6 C 203.44 36.12 203.6 36.8 203.6 36.8 L 203.6 36.8 C 203.6 36.8 203.78 36.12 204 35.6 C 204 35.6 206.1 29.9 206.1 29.9 C 206.4 29.1 206.7 28.9 207.6 28.9 C 207.56 28.88 208.7 28.9 208.7 28.9 L 208.7 30.5 C 208.7 30.5 208.46 30.54 208.5 30.5 C 208.1 30.5 208 30.6 207.8 30.9 C 207.8 30.9 203.8 40.8 203.8 40.8 C 203.2 42.4 202 43.2 200.6 43.2 C 199.06 43.2 198.2 42.2 198.2 42.2 C 198.2 42.2 198.98 40.8 199 40.8 C 199 40.8 199.6 41.5 200.5 41.5 Z M 209.5 36.9 L 211.5 36.9 L 211.5 39 L 209.5 39 L 209.5 36.9 Z M 223.2 26.6 C 223.2 26.6 220.4 26.6 220.4 26.6 C 220.1 26.6 220 26.7 220 27 C 219.96 27.04 220 27.9 220 27.9 L 218.2 27.9 C 218.2 27.9 218.18 26.08 218.2 26.1 C 218.2 25.2 218.5 24.9 219.4 24.9 C 219.4 24.9 229.1 24.9 229.1 24.9 C 230 24.9 230.3 25.2 230.3 26.1 C 230.3 26.08 230.3 27.9 230.3 27.9 L 228.5 27.9 C 228.5 27.9 228.52 27.04 228.5 27 C 228.5 26.7 228.4 26.6 228.1 26.6 C 228.08 26.6 225.2 26.6 225.2 26.6 L 225.2 39 L 223.2 39 L 223.2 26.6 Z M 235.3 28.6 C 238.3 28.6 240.7 30.9 240.7 33.9 C 240.7 37 238.3 39.2 235.3 39.2 C 232.2 39.2 229.8 37 229.8 33.9 C 229.8 30.9 232.2 28.6 235.3 28.6 Z M 235.3 37.6 C 237.2 37.6 238.7 36 238.7 33.9 C 238.7 31.8 237.2 30.3 235.3 30.3 C 233.4 30.3 231.8 31.8 231.8 33.9 C 231.8 36 233.4 37.6 235.3 37.6 Z M 243.2 30.4 L 241.9 30.4 L 241.9 28.9 L 243.3 28.9 L 243.3 26.1 L 245.2 26.1 L 245.2 28.9 L 247.6 28.9 L 247.6 30.4 L 245.2 30.4 C 245.2 30.4 245.16 35.08 245.2 35.1 C 245.2 37.1 246.6 37.4 247.3 37.4 C 247.58 37.36 247.8 37.3 247.8 37.3 L 247.8 39 C 247.8 39 247.5 39.08 247.1 39.1 C 245.8 39.1 243.2 38.7 243.2 35.3 C 243.22 35.3 243.2 30.4 243.2 30.4 Z M 254.5 28.6 C 257.5 28.6 259.9 30.9 259.9 33.9 C 259.9 37 257.5 39.2 254.5 39.2 C 251.4 39.2 249 37 249 33.9 C 249 30.9 251.4 28.6 254.5 28.6 Z M 254.5 37.6 C 256.4 37.6 257.9 36 257.9 33.9 C 257.9 31.8 256.4 30.3 254.5 30.3 C 252.6 30.3 251 31.8 251 33.9 C 251 36 252.6 37.6 254.5 37.6 Z M 267.7 31 C 267.7 30.7 267.6 30.5 267.3 30.5 C 267.28 30.54 266.5 30.5 266.5 30.5 L 266.5 28.9 C 266.5 28.9 268.28 28.88 268.3 28.9 C 269.2 28.9 269.5 29.3 269.5 29.9 C 269.52 30.2 269.5 30.4 269.5 30.4 L 269.5 30.4 C 269.5 30.4 270.38 28.64 272.9 28.6 C 275.6 28.6 277.4 30.8 277.4 33.9 C 277.4 37.2 275.4 39.2 272.8 39.2 C 270.52 39.24 269.7 37.6 269.7 37.6 L 269.6 37.6 C 269.6 37.6 269.66 37.98 269.7 38.5 C 269.66 38.5 269.7 43 269.7 43 L 267.7 43 C 267.7 43 267.72 30.98 267.7 31 Z M 272.5 37.6 C 274.1 37.6 275.4 36.3 275.4 34 C 275.4 31.8 274.2 30.3 272.5 30.3 C 271 30.3 269.6 31.4 269.6 34 C 269.6 35.8 270.6 37.6 272.5 37.6 Z M 279.8 31 C 279.8 30.7 279.6 30.5 279.4 30.5 C 279.36 30.54 278.5 30.5 278.5 30.5 L 278.5 28.9 C 278.5 28.9 280.38 28.88 280.4 28.9 C 281.3 28.9 281.7 29.2 281.7 30.1 C 281.7 30.1 281.7 30.7 281.7 30.7 C 281.68 31.1 281.6 31.4 281.6 31.4 C 281.6 31.4 281.68 31.4 281.7 31.4 C 282.2 29.9 283.3 28.8 284.9 28.8 C 285.14 28.76 285.4 28.8 285.4 28.8 L 285.4 30.7 C 285.4 30.7 285.14 30.66 284.8 30.7 C 283.6 30.7 282.4 31.5 282 33 C 281.8 33.6 281.7 34.2 281.7 34.9 C 281.74 34.86 281.7 39 281.7 39 L 279.8 39 C 279.8 39 279.8 30.98 279.8 31 Z M 291.2 28.6 C 294.1 28.6 295.6 30.8 295.6 33.4 C 295.6 33.64 295.5 34.2 295.5 34.2 C 295.5 34.2 288.16 34.18 288.2 34.2 C 288.3 36.3 289.8 37.6 291.6 37.6 C 293.38 37.56 294.6 36.4 294.6 36.4 L 295.4 37.8 C 295.4 37.8 293.94 39.24 291.5 39.2 C 288.3 39.2 286.2 36.9 286.2 33.9 C 286.2 30.7 288.4 28.6 291.2 28.6 Z M 293.6 32.8 C 293.5 31.1 292.5 30.2 291.2 30.2 C 289.7 30.2 288.5 31.1 288.2 32.8 C 288.2 32.8 293.6 32.8 293.6 32.8 Z M 298.1 31 C 298.1 30.7 298 30.5 297.7 30.5 C 297.7 30.54 296.9 30.5 296.9 30.5 L 296.9 28.9 C 296.9 28.9 298.78 28.88 298.8 28.9 C 299.7 28.9 300.1 29.3 300.1 30.1 C 300.1 30.1 300.1 34.9 300.1 34.9 C 300.1 36.3 300.4 37.4 302 37.4 C 304 37.4 305.3 35.6 305.3 33.6 C 305.26 33.62 305.3 28.9 305.3 28.9 L 307.2 28.9 C 307.2 28.9 307.2 36.9 307.2 36.9 C 307.2 37.2 307.4 37.3 307.6 37.3 C 307.64 37.34 308.5 37.3 308.5 37.3 L 308.5 39 C 308.5 39 306.6 39 306.6 39 C 305.7 39 305.3 38.6 305.3 37.9 C 305.3 37.9 305.3 37.5 305.3 37.5 C 305.32 37.18 305.3 36.9 305.3 36.9 C 305.3 36.9 305.3 36.92 305.3 36.9 C 304.9 37.9 303.6 39.2 301.6 39.2 C 299.3 39.2 298.1 38 298.1 35.4 C 298.1 35.4 298.1 31 298.1 31 Z M 310.5 27 C 310.5 26.7 310.4 26.5 310.1 26.5 C 310.08 26.54 309.3 26.5 309.3 26.5 L 309.3 24.9 C 309.3 24.9 311.18 24.88 311.2 24.9 C 312.1 24.9 312.5 25.1 312.5 26 C 312.46 26.04 312.5 32.6 312.5 32.6 C 312.5 32.6 313.36 32.6 313.4 32.6 C 313.7 32.6 314.2 32.5 314.4 32.2 C 314.42 32.16 316.8 28.9 316.8 28.9 L 319 28.9 C 319 28.9 316.24 32.64 316.2 32.6 C 315.78 33.26 315.5 33.4 315.5 33.4 L 315.5 33.4 C 315.5 33.4 315.82 33.56 316.2 34.2 C 316.2 34.2 317.7 36.9 317.7 36.9 C 317.8 37.3 318 37.3 318.5 37.3 C 318.52 37.34 319.1 37.3 319.1 37.3 L 319.1 39 C 319.1 39 317.74 39 317.7 39 C 316.8 39 316.5 38.8 316.1 38.1 C 316.1 38.1 314.2 34.7 314.2 34.7 C 314 34.3 313.5 34.2 313.2 34.2 C 313.22 34.24 312.5 34.2 312.5 34.2 L 312.5 39 L 310.5 39 C 310.5 39 310.52 26.98 310.5 27 Z M 326.1 32.7 C 326.14 32.7 326.6 32.7 326.6 32.7 C 326.6 32.7 326.58 32.6 326.6 32.6 C 326.6 30.8 325.9 30.2 324.3 30.2 C 323.9 30.2 322.7 30.3 322.7 31 C 322.68 30.96 322.7 31.5 322.7 31.5 L 320.9 31.5 C 320.9 31.5 320.86 30.54 320.9 30.5 C 320.9 28.9 323.4 28.6 324.4 28.6 C 327.6 28.6 328.5 30.4 328.5 32.6 C 328.5 32.6 328.5 36.9 328.5 36.9 C 328.5 37.2 328.7 37.3 329 37.3 C 328.96 37.34 329.8 37.3 329.8 37.3 L 329.8 39 C 329.8 39 327.96 39 328 39 C 327.1 39 326.7 38.6 326.7 37.8 C 326.7 37.5 326.7 37.2 326.7 37.2 L 326.7 37.2 C 326.7 37.2 325.9 39.24 323.5 39.2 C 321.7 39.2 320 38.2 320 36.2 C 320 32.9 324.4 32.7 326.1 32.7 Z M 323.9 37.7 C 325.5 37.7 326.6 36 326.6 34.5 C 326.6 34.46 326.6 34.1 326.6 34.1 C 326.6 34.1 326.1 34.12 326.1 34.1 C 324.6 34.1 322 34.2 322 36.1 C 322 36.9 322.6 37.7 323.9 37.7 Z M 330.8 37.9 C 330.8 37.9 336.02 31.48 336 31.5 C 336.46 30.94 336.9 30.5 336.9 30.5 L 336.9 30.5 C 336.9 30.5 336.54 30.54 335.9 30.5 C 335.9 30.5 333.1 30.5 333.1 30.5 C 332.8 30.5 332.7 30.7 332.7 31 C 332.68 30.98 332.7 31.7 332.7 31.7 L 330.9 31.7 C 330.9 31.7 330.9 30.16 330.9 30.2 C 330.9 29.3 331.3 28.9 332.2 28.9 C 332.18 28.88 339.4 28.9 339.4 28.9 L 339.4 30 C 339.4 30 334.22 36.42 334.2 36.4 C 333.8 36.92 333.4 37.3 333.4 37.3 L 333.4 37.4 C 333.4 37.4 333.7 37.34 334.4 37.3 C 334.4 37.3 337.6 37.3 337.6 37.3 C 337.9 37.3 338 37.2 338 36.9 C 338.04 36.9 338 36.2 338 36.2 L 339.8 36.2 C 339.8 36.2 339.8 37.72 339.8 37.7 C 339.8 38.6 339.4 39 338.5 39 C 338.52 39 330.8 39 330.8 39 L 330.8 37.9 Z M 341.9 31 C 341.9 30.7 341.8 30.5 341.5 30.5 C 341.5 30.54 340.7 30.5 340.7 30.5 L 340.7 28.9 C 340.7 28.9 342.58 28.88 342.6 28.9 C 343.5 28.9 343.9 29.3 343.9 30.1 C 343.9 30.1 343.9 34.9 343.9 34.9 C 343.9 36.3 344.2 37.4 345.8 37.4 C 347.8 37.4 349.1 35.6 349.1 33.6 C 349.06 33.62 349.1 28.9 349.1 28.9 L 351 28.9 C 351 28.9 351 36.9 351 36.9 C 351 37.2 351.2 37.3 351.4 37.3 C 351.44 37.34 352.3 37.3 352.3 37.3 L 352.3 39 C 352.3 39 350.4 39 350.4 39 C 349.5 39 349.1 38.6 349.1 37.9 C 349.1 37.9 349.1 37.5 349.1 37.5 C 349.12 37.18 349.1 36.9 349.1 36.9 C 349.1 36.9 349.1 36.92 349.1 36.9 C 348.7 37.9 347.4 39.2 345.4 39.2 C 343.1 39.2 341.9 38 341.9 35.4 C 341.9 35.4 341.9 31 341.9 31 Z M 354.9 24.9 L 356.7 24.9 L 356.7 26.9 L 354.9 26.9 L 354.9 24.9 Z M 352.7 41.4 C 353.5 41.4 354.9 41.2 354.9 39.2 C 354.9 39.2 354.9 31 354.9 31 C 354.9 30.7 354.7 30.5 354.5 30.5 C 354.46 30.54 353.6 30.5 353.6 30.5 L 353.6 28.9 C 353.6 28.9 355.56 28.88 355.6 28.9 C 356.5 28.9 356.8 29.3 356.8 30.2 C 356.8 30.2 356.8 39.3 356.8 39.3 C 356.8 42.7 354.2 43.1 353 43.1 C 352.56 43.12 352.3 43.1 352.3 43.1 L 352.3 41.4 C 352.3 41.4 352.48 41.44 352.7 41.4 Z M 364.2 28.6 C 367.1 28.6 368.6 30.8 368.6 33.4 C 368.58 33.64 368.5 34.2 368.5 34.2 C 368.5 34.2 361.14 34.18 361.1 34.2 C 361.3 36.3 362.8 37.6 364.6 37.6 C 366.36 37.56 367.6 36.4 367.6 36.4 L 368.4 37.8 C 368.4 37.8 366.92 39.24 364.5 39.2 C 361.3 39.2 359.1 36.9 359.1 33.9 C 359.1 30.7 361.3 28.6 364.2 28.6 Z M 366.6 32.8 C 366.5 31.1 365.5 30.2 364.2 30.2 C 362.7 30.2 361.5 31.1 361.2 32.8 C 361.2 32.8 366.6 32.8 366.6 32.8 Z M 376.4 36.2 C 376.4 36.2 377.57 37.66 379.4 37.7 C 380.4 37.7 381.2 37.2 381.2 36.4 C 381.2 34.5 375.7 34.7 375.7 31.5 C 375.7 29.5 377.4 28.6 379.4 28.6 C 380.7 28.6 382.8 29.1 382.8 30.6 C 382.75 30.6 382.8 31.6 382.8 31.6 L 381 31.6 C 381 31.6 381.01 31.06 381 31.1 C 381 30.5 380.1 30.2 379.5 30.2 C 378.4 30.2 377.6 30.6 377.6 31.4 C 377.6 33.3 383.1 32.9 383.1 36.3 C 383.1 38.1 381.5 39.2 379.4 39.2 C 376.71 39.24 375.4 37.5 375.4 37.5 L 376.4 36.2 Z M 376.7 24.9 L 378.3 24.9 L 379.3 26.5 L 379.4 26.5 L 380.4 24.9 L 382 24.9 L 380.2 27.4 L 378.5 27.4 L 376.7 24.9 Z M 385.7 30.4 L 384.4 30.4 L 384.4 28.9 L 385.7 28.9 L 385.7 26.1 L 387.6 26.1 L 387.6 28.9 L 390.1 28.9 L 390.1 30.4 L 387.6 30.4 C 387.6 30.4 387.63 35.08 387.6 35.1 C 387.6 37.1 389 37.4 389.8 37.4 C 390.05 37.36 390.2 37.3 390.2 37.3 L 390.2 39 C 390.2 39 389.97 39.08 389.6 39.1 C 388.3 39.1 385.7 38.7 385.7 35.3 C 385.69 35.3 385.7 30.4 385.7 30.4 Z M 392.6 31 C 392.6 30.7 392.5 30.5 392.2 30.5 C 392.17 30.54 391.4 30.5 391.4 30.5 L 391.4 28.9 C 391.4 28.9 393.25 28.88 393.3 28.9 C 394.2 28.9 394.6 29.3 394.6 30.1 C 394.6 30.1 394.6 34.9 394.6 34.9 C 394.6 36.3 394.8 37.4 396.4 37.4 C 398.5 37.4 399.7 35.6 399.7 33.6 C 399.73 33.62 399.7 28.9 399.7 28.9 L 401.7 28.9 C 401.7 28.9 401.67 36.9 401.7 36.9 C 401.7 37.2 401.8 37.3 402.1 37.3 C 402.11 37.34 402.9 37.3 402.9 37.3 L 402.9 39 C 402.9 39 401.07 39 401.1 39 C 400.2 39 399.8 38.6 399.8 37.9 C 399.8 37.9 399.8 37.5 399.8 37.5 C 399.79 37.18 399.8 36.9 399.8 36.9 C 399.8 36.9 399.77 36.92 399.8 36.9 C 399.4 37.9 398.1 39.2 396.1 39.2 C 393.8 39.2 392.6 38 392.6 35.4 C 392.6 35.4 392.6 31 392.6 31 Z M 397.7 24.9 L 399.7 24.9 L 397.8 27.4 L 396.3 27.4 L 397.7 24.9 Z M 408.7 28.6 C 411.03 28.64 411.8 30.2 411.8 30.2 L 411.9 30.2 C 411.9 30.2 411.81 29.9 411.8 29.5 C 411.8 29.5 411.8 27 411.8 27 C 411.8 26.7 411.7 26.5 411.4 26.5 C 411.37 26.54 410.6 26.5 410.6 26.5 L 410.6 24.9 C 410.6 24.9 412.47 24.88 412.5 24.9 C 413.4 24.9 413.8 25.3 413.8 26.2 C 413.8 26.2 413.8 36.9 413.8 36.9 C 413.8 37.2 413.9 37.3 414.2 37.3 C 414.19 37.34 415 37.3 415 37.3 L 415 39 C 415 39 413.15 39 413.2 39 C 412.3 39 411.9 38.6 411.9 37.9 C 411.91 37.62 411.9 37.4 411.9 37.4 L 411.9 37.4 C 411.9 37.4 411.05 39.24 408.6 39.2 C 405.8 39.2 404.1 37.1 404.1 33.9 C 404.1 30.7 406 28.6 408.7 28.6 Z M 411.9 33.9 C 411.9 32.1 410.9 30.3 409 30.3 C 407.4 30.3 406.1 31.6 406.1 33.9 C 406.1 36.1 407.3 37.6 409 37.6 C 410.5 37.6 411.9 36.5 411.9 33.9 Z M 417.3 24.9 L 419.1 24.9 L 419.1 26.9 L 417.3 26.9 L 417.3 24.9 Z M 417.3 31 C 417.3 30.7 417.1 30.5 416.8 30.5 C 416.83 30.54 416 30.5 416 30.5 L 416 28.9 C 416 28.9 417.91 28.88 417.9 28.9 C 418.8 28.9 419.2 29.3 419.2 30.2 C 419.2 30.2 419.2 36.9 419.2 36.9 C 419.2 37.2 419.4 37.3 419.6 37.3 C 419.63 37.34 420.5 37.3 420.5 37.3 L 420.5 39 C 420.5 39 418.55 39 418.6 39 C 417.7 39 417.3 38.6 417.3 37.7 C 417.3 37.7 417.3 31 417.3 31 Z M 427.8 32.7 C 427.81 32.7 428.3 32.7 428.3 32.7 C 428.3 32.7 428.25 32.6 428.3 32.6 C 428.3 30.8 427.6 30.2 426 30.2 C 425.5 30.2 424.4 30.3 424.4 31 C 424.35 30.96 424.4 31.5 424.4 31.5 L 422.5 31.5 C 422.5 31.5 422.53 30.54 422.5 30.5 C 422.5 28.9 425.1 28.6 426 28.6 C 429.3 28.6 430.2 30.4 430.2 32.6 C 430.2 32.6 430.2 36.9 430.2 36.9 C 430.2 37.2 430.4 37.3 430.6 37.3 C 430.63 37.34 431.5 37.3 431.5 37.3 L 431.5 39 C 431.5 39 429.63 39 429.6 39 C 428.7 39 428.4 38.6 428.4 37.8 C 428.37 37.5 428.4 37.2 428.4 37.2 L 428.4 37.2 C 428.4 37.2 427.57 39.24 425.2 39.2 C 423.4 39.2 421.7 38.2 421.7 36.2 C 421.7 32.9 426.1 32.7 427.8 32.7 Z M 425.6 37.7 C 427.2 37.7 428.3 36 428.3 34.5 C 428.27 34.46 428.3 34.1 428.3 34.1 C 428.3 34.1 427.77 34.12 427.8 34.1 C 426.3 34.1 423.7 34.2 423.7 36.1 C 423.7 36.9 424.3 37.7 425.6 37.7 Z M 438.9 31 C 438.9 30.7 438.8 30.5 438.5 30.5 C 438.49 30.54 437.7 30.5 437.7 30.5 L 437.7 28.9 C 437.7 28.9 439.53 28.88 439.5 28.9 C 440.4 28.9 440.8 29.3 440.8 30 C 440.8 30 440.8 30.4 440.8 30.4 C 440.81 30.7 440.8 31 440.8 31 C 440.8 31 440.81 30.96 440.8 31 C 441.2 30.1 442.4 28.6 444.6 28.6 C 447 28.6 448.1 29.9 448.1 32.5 C 448.1 32.5 448.1 36.9 448.1 36.9 C 448.1 37.2 448.3 37.3 448.5 37.3 C 448.53 37.34 449.4 37.3 449.4 37.3 L 449.4 39 C 449.4 39 447.43 39 447.4 39 C 446.5 39 446.2 38.6 446.2 37.7 C 446.2 37.7 446.2 33 446.2 33 C 446.2 31.5 445.9 30.4 444.3 30.4 C 442.7 30.4 441.5 31.4 441.1 32.9 C 440.9 33.3 440.9 33.8 440.9 34.3 C 440.87 34.26 440.9 39 440.9 39 L 438.9 39 C 438.9 39 438.93 30.98 438.9 31 Z M 456.6 32.7 C 456.59 32.7 457 32.7 457 32.7 C 457 32.7 457.03 32.6 457 32.6 C 457 30.8 456.4 30.2 454.8 30.2 C 454.3 30.2 453.1 30.3 453.1 31 C 453.13 30.96 453.1 31.5 453.1 31.5 L 451.3 31.5 C 451.3 31.5 451.31 30.54 451.3 30.5 C 451.3 28.9 453.8 28.6 454.8 28.6 C 458.1 28.6 459 30.4 459 32.6 C 459 32.6 459 36.9 459 36.9 C 459 37.2 459.1 37.3 459.4 37.3 C 459.41 37.34 460.2 37.3 460.2 37.3 L 460.2 39 C 460.2 39 458.41 39 458.4 39 C 457.5 39 457.2 38.6 457.2 37.8 C 457.15 37.5 457.2 37.2 457.2 37.2 L 457.2 37.2 C 457.2 37.2 456.35 39.24 453.9 39.2 C 452.2 39.2 450.5 38.2 450.5 36.2 C 450.5 32.9 454.9 32.7 456.6 32.7 Z M 454.4 37.7 C 456 37.7 457.1 36 457.1 34.5 C 457.05 34.46 457.1 34.1 457.1 34.1 C 457.1 34.1 456.55 34.12 456.6 34.1 C 455.1 34.1 452.5 34.2 452.5 36.1 C 452.5 36.9 453.1 37.7 454.4 37.7 Z M 472.9 32.7 C 472.85 32.7 473.3 32.7 473.3 32.7 C 473.3 32.7 473.29 32.6 473.3 32.6 C 473.3 30.8 472.6 30.2 471.1 30.2 C 470.6 30.2 469.4 30.3 469.4 31 C 469.39 30.96 469.4 31.5 469.4 31.5 L 467.6 31.5 C 467.6 31.5 467.57 30.54 467.6 30.5 C 467.6 28.9 470.1 28.6 471.1 28.6 C 474.4 28.6 475.2 30.4 475.2 32.6 C 475.2 32.6 475.2 36.9 475.2 36.9 C 475.2 37.2 475.4 37.3 475.7 37.3 C 475.67 37.34 476.5 37.3 476.5 37.3 L 476.5 39 C 476.5 39 474.67 39 474.7 39 C 473.8 39 473.4 38.6 473.4 37.8 C 473.41 37.5 473.5 37.2 473.5 37.2 L 473.4 37.2 C 473.4 37.2 472.61 39.24 470.2 39.2 C 468.5 39.2 466.8 38.2 466.8 36.2 C 466.8 32.9 471.2 32.7 472.9 32.7 Z M 470.6 37.7 C 472.3 37.7 473.3 36 473.3 34.5 C 473.31 34.46 473.3 34.1 473.3 34.1 C 473.3 34.1 472.81 34.12 472.8 34.1 C 471.4 34.1 468.7 34.2 468.7 36.1 C 468.7 36.9 469.3 37.7 470.6 37.7 Z M 478.6 31 C 478.6 30.7 478.4 30.5 478.2 30.5 C 478.15 30.54 477.3 30.5 477.3 30.5 L 477.3 28.9 C 477.3 28.9 479.19 28.88 479.2 28.9 C 480.1 28.9 480.5 29.3 480.5 30 C 480.5 30 480.5 30.4 480.5 30.4 C 480.47 30.7 480.4 31 480.4 31 C 480.4 31 480.47 30.96 480.5 31 C 480.9 30.1 482.1 28.6 484.3 28.6 C 486.7 28.6 487.8 29.9 487.8 32.5 C 487.8 32.5 487.8 36.9 487.8 36.9 C 487.8 37.2 487.9 37.3 488.2 37.3 C 488.19 37.34 489 37.3 489 37.3 L 489 39 C 489 39 487.09 39 487.1 39 C 486.2 39 485.8 38.6 485.8 37.7 C 485.8 37.7 485.8 33 485.8 33 C 485.8 31.5 485.5 30.4 483.9 30.4 C 482.4 30.4 481.1 31.4 480.7 32.9 C 480.6 33.3 480.5 33.8 480.5 34.3 C 480.53 34.26 480.5 39 480.5 39 L 478.6 39 C 478.6 39 478.59 30.98 478.6 31 Z M 491.3 24.9 L 493 24.9 L 493 26.9 L 491.3 26.9 L 491.3 24.9 Z M 491.2 31 C 491.2 30.7 491.1 30.5 490.8 30.5 C 490.77 30.54 490 30.5 490 30.5 L 490 28.9 C 490 28.9 491.85 28.88 491.9 28.9 C 492.8 28.9 493.1 29.3 493.1 30.2 C 493.1 30.2 493.1 36.9 493.1 36.9 C 493.1 37.2 493.3 37.3 493.6 37.3 C 493.57 37.34 494.4 37.3 494.4 37.3 L 494.4 39 C 494.4 39 492.49 39 492.5 39 C 491.6 39 491.2 38.6 491.2 37.7 C 491.2 37.7 491.2 31 491.2 31 Z M 496.6 31 C 496.6 30.7 496.5 30.5 496.2 30.5 C 496.17 30.54 495.4 30.5 495.4 30.5 L 495.4 28.9 C 495.4 28.9 497.21 28.88 497.2 28.9 C 498.1 28.9 498.5 29.3 498.5 30 C 498.5 30 498.5 30.4 498.5 30.4 C 498.49 30.7 498.5 31 498.5 31 C 498.5 31 498.51 30.96 498.5 31 C 499 29.8 500.4 28.6 502 28.6 C 503.7 28.6 504.7 29.4 505 30.9 C 505 30.9 505.1 30.9 505.1 30.9 C 505.6 29.7 507 28.6 508.7 28.6 C 510.9 28.6 512 29.9 512 32.5 C 512 32.5 512 36.9 512 36.9 C 512 37.2 512.2 37.3 512.4 37.3 C 512.43 37.34 513.3 37.3 513.3 37.3 L 513.3 39 C 513.3 39 511.33 39 511.3 39 C 510.4 39 510.1 38.6 510.1 37.7 C 510.1 37.7 510.1 32.9 510.1 32.9 C 510.1 31.5 509.8 30.4 508.3 30.4 C 506.9 30.4 505.8 31.6 505.4 33 C 505.3 33.4 505.3 33.9 505.3 34.4 C 505.27 34.38 505.3 39 505.3 39 L 503.3 39 C 503.3 39 503.33 32.94 503.3 32.9 C 503.3 31.6 503.1 30.4 501.6 30.4 C 500.1 30.4 499.1 31.6 498.7 33.1 C 498.6 33.5 498.6 33.9 498.6 34.4 C 498.55 34.38 498.6 39 498.6 39 L 496.6 39 C 496.6 39 496.61 30.98 496.6 31 Z M 520.5 32.7 C 520.49 32.7 520.9 32.7 520.9 32.7 C 520.9 32.7 520.93 32.6 520.9 32.6 C 520.9 30.8 520.3 30.2 518.7 30.2 C 518.2 30.2 517 30.3 517 31 C 517.03 30.96 517 31.5 517 31.5 L 515.2 31.5 C 515.2 31.5 515.21 30.54 515.2 30.5 C 515.2 28.9 517.7 28.6 518.7 28.6 C 522 28.6 522.9 30.4 522.9 32.6 C 522.9 32.6 522.9 36.9 522.9 36.9 C 522.9 37.2 523 37.3 523.3 37.3 C 523.31 37.34 524.1 37.3 524.1 37.3 L 524.1 39 C 524.1 39 522.31 39 522.3 39 C 521.4 39 521.1 38.6 521.1 37.8 C 521.05 37.5 521.1 37.2 521.1 37.2 L 521.1 37.2 C 521.1 37.2 520.25 39.24 517.8 39.2 C 516.1 39.2 514.4 38.2 514.4 36.2 C 514.4 32.9 518.8 32.7 520.5 32.7 Z M 518.3 37.7 C 519.9 37.7 521 36 521 34.5 C 520.95 34.46 521 34.1 521 34.1 C 521 34.1 520.45 34.12 520.5 34.1 C 519 34.1 516.4 34.2 516.4 36.1 C 516.4 36.9 517 37.7 518.3 37.7 Z M 519.6 24.9 L 521.6 24.9 L 519.7 27.4 L 518.2 27.4 L 519.6 24.9 Z M 526.2 27 C 526.2 26.7 526 26.5 525.8 26.5 C 525.75 26.54 524.9 26.5 524.9 26.5 L 524.9 24.9 C 524.9 24.9 526.85 24.88 526.9 24.9 C 527.8 24.9 528.1 25.3 528.1 26.2 C 528.1 26.2 528.1 36.9 528.1 36.9 C 528.1 37.2 528.3 37.3 528.6 37.3 C 528.57 37.34 529.4 37.3 529.4 37.3 L 529.4 39 C 529.4 39 527.47 39 527.5 39 C 526.6 39 526.2 38.6 526.2 37.7 C 526.2 37.7 526.2 27 526.2 27 Z M 531.6 31 C 531.6 30.7 531.4 30.5 531.2 30.5 C 531.15 30.54 530.3 30.5 530.3 30.5 L 530.3 28.9 C 530.3 28.9 532.19 28.88 532.2 28.9 C 533.1 28.9 533.5 29.3 533.5 30 C 533.5 30 533.5 30.4 533.5 30.4 C 533.47 30.7 533.4 31 533.4 31 C 533.4 31 533.47 30.96 533.5 31 C 533.9 30.1 535.1 28.6 537.3 28.6 C 539.7 28.6 540.8 29.9 540.8 32.5 C 540.8 32.5 540.8 36.9 540.8 36.9 C 540.8 37.2 540.9 37.3 541.2 37.3 C 541.19 37.34 542 37.3 542 37.3 L 542 39 C 542 39 540.09 39 540.1 39 C 539.2 39 538.8 38.6 538.8 37.7 C 538.8 37.7 538.8 33 538.8 33 C 538.8 31.5 538.5 30.4 536.9 30.4 C 535.4 30.4 534.1 31.4 533.7 32.9 C 533.6 33.3 533.5 33.8 533.5 34.3 C 533.53 34.26 533.5 39 533.5 39 L 531.6 39 C 531.6 39 531.59 30.98 531.6 31 Z M 544.6 41.5 C 545.4 41.5 546 41 546.4 40.1 C 546.35 40.06 546.8 39 546.8 39 C 546.8 39 543.35 30.94 543.4 30.9 C 543.2 30.6 543 30.5 542.7 30.5 C 542.71 30.54 542.5 30.5 542.5 30.5 L 542.5 28.9 C 542.5 28.9 543.61 28.88 543.6 28.9 C 544.4 28.9 544.7 29.1 545.1 29.9 C 545.1 29.9 547.4 35.6 547.4 35.6 C 547.55 36.12 547.7 36.8 547.7 36.8 L 547.8 36.8 C 547.8 36.8 547.89 36.12 548.1 35.6 C 548.1 35.6 550.2 29.9 550.2 29.9 C 550.5 29.1 550.9 28.9 551.7 28.9 C 551.67 28.88 552.8 28.9 552.8 28.9 L 552.8 30.5 C 552.8 30.5 552.57 30.54 552.6 30.5 C 552.3 30.5 552.1 30.6 551.9 30.9 C 551.9 30.9 547.9 40.8 547.9 40.8 C 547.3 42.4 546.1 43.2 544.7 43.2 C 543.17 43.2 542.3 42.2 542.3 42.2 C 542.3 42.2 543.09 40.8 543.1 40.8 C 543.1 40.8 543.7 41.5 544.6 41.5 Z M 559.1 28.6 C 560.3 28.6 562.7 29.1 562.7 30.9 C 562.71 30.86 562.7 31.9 562.7 31.9 L 561 31.9 C 561 31.9 560.95 31.34 561 31.3 C 561 30.6 559.8 30.3 559.1 30.3 C 557.1 30.3 555.6 31.8 555.6 33.9 C 555.6 36.2 557.3 37.5 559.2 37.5 C 561.07 37.52 562.3 36.1 562.3 36.1 L 563.2 37.5 C 563.2 37.5 561.71 39.24 559 39.2 C 555.9 39.2 553.6 37 553.6 33.9 C 553.6 31 555.8 28.6 559.1 28.6 Z M 565.1 27 C 565.1 26.7 565 26.5 564.7 26.5 C 564.69 26.54 563.9 26.5 563.9 26.5 L 563.9 24.9 C 563.9 24.9 565.79 24.88 565.8 24.9 C 566.7 24.9 567.1 25.3 567.1 26.1 C 567.1 26.1 567.1 30.1 567.1 30.1 C 567.07 30.54 567 30.9 567 30.9 C 567 30.9 567.07 30.9 567.1 30.9 C 567.5 29.9 568.8 28.6 570.8 28.6 C 573.2 28.6 574.3 29.9 574.3 32.5 C 574.3 32.5 574.3 36.9 574.3 36.9 C 574.3 37.2 574.5 37.3 574.7 37.3 C 574.73 37.34 575.6 37.3 575.6 37.3 L 575.6 39 C 575.6 39 573.65 39 573.7 39 C 572.8 39 572.4 38.6 572.4 37.7 C 572.4 37.7 572.4 33 572.4 33 C 572.4 31.5 572.1 30.4 570.5 30.4 C 568.9 30.4 567.7 31.5 567.3 32.9 C 567.1 33.3 567.1 33.8 567.1 34.3 C 567.07 34.26 567.1 39 567.1 39 L 565.1 39 C 565.1 39 565.13 26.98 565.1 27 Z M 583 31 C 583 30.7 582.9 30.5 582.6 30.5 C 582.59 30.54 581.8 30.5 581.8 30.5 L 581.8 28.9 C 581.8 28.9 583.63 28.88 583.6 28.9 C 584.5 28.9 584.9 29.3 584.9 30 C 584.9 30 584.9 30.4 584.9 30.4 C 584.91 30.7 584.9 31 584.9 31 C 584.9 31 584.93 30.96 584.9 31 C 585.4 29.8 586.8 28.6 588.4 28.6 C 590.1 28.6 591.1 29.4 591.4 30.9 C 591.4 30.9 591.5 30.9 591.5 30.9 C 592 29.7 593.4 28.6 595.1 28.6 C 597.4 28.6 598.4 29.9 598.4 32.5 C 598.4 32.5 598.4 36.9 598.4 36.9 C 598.4 37.2 598.6 37.3 598.9 37.3 C 598.85 37.34 599.7 37.3 599.7 37.3 L 599.7 39 C 599.7 39 597.75 39 597.8 39 C 596.9 39 596.5 38.6 596.5 37.7 C 596.5 37.7 596.5 32.9 596.5 32.9 C 596.5 31.5 596.2 30.4 594.7 30.4 C 593.3 30.4 592.2 31.6 591.9 33 C 591.8 33.4 591.7 33.9 591.7 34.4 C 591.69 34.38 591.7 39 591.7 39 L 589.8 39 C 589.8 39 589.75 32.94 589.8 32.9 C 589.8 31.6 589.6 30.4 588 30.4 C 586.5 30.4 585.5 31.6 585.1 33.1 C 585 33.5 585 33.9 585 34.4 C 584.97 34.38 585 39 585 39 L 583 39 C 583 39 583.03 30.98 583 31 Z M 606.2 28.6 C 609.3 28.6 611.7 30.9 611.7 33.9 C 611.7 37 609.3 39.2 606.2 39.2 C 603.2 39.2 600.8 37 600.8 33.9 C 600.8 30.9 603.2 28.6 606.2 28.6 Z M 606.2 37.6 C 608.2 37.6 609.7 36 609.7 33.9 C 609.7 31.8 608.2 30.3 606.2 30.3 C 604.3 30.3 602.8 31.8 602.8 33.9 C 602.8 36 604.3 37.6 606.2 37.6 Z M 617.7 28.6 C 620.07 28.64 620.9 30.2 620.9 30.2 L 620.9 30.2 C 620.9 30.2 620.85 29.9 620.9 29.5 C 620.9 29.5 620.9 27 620.9 27 C 620.9 26.7 620.7 26.5 620.4 26.5 C 620.41 26.54 619.6 26.5 619.6 26.5 L 619.6 24.9 C 619.6 24.9 621.51 24.88 621.5 24.9 C 622.4 24.9 622.8 25.3 622.8 26.2 C 622.8 26.2 622.8 36.9 622.8 36.9 C 622.8 37.2 623 37.3 623.2 37.3 C 623.23 37.34 624.1 37.3 624.1 37.3 L 624.1 39 C 624.1 39 622.19 39 622.2 39 C 621.3 39 621 38.6 621 37.9 C 620.95 37.62 621 37.4 621 37.4 L 620.9 37.4 C 620.9 37.4 620.09 39.24 617.6 39.2 C 614.9 39.2 613.2 37.1 613.2 33.9 C 613.2 30.7 615.1 28.6 617.7 28.6 Z M 620.9 33.9 C 620.9 32.1 620 30.3 618 30.3 C 616.5 30.3 615.1 31.6 615.1 33.9 C 615.1 36.1 616.3 37.6 618 37.6 C 619.5 37.6 620.9 36.5 620.9 33.9 Z M 630.3 28.6 C 633.2 28.6 634.7 30.8 634.7 33.4 C 634.67 33.64 634.6 34.2 634.6 34.2 C 634.6 34.2 627.23 34.18 627.2 34.2 C 627.4 36.3 628.9 37.6 630.7 37.6 C 632.45 37.56 633.7 36.4 633.7 36.4 L 634.5 37.8 C 634.5 37.8 633.01 39.24 630.6 39.2 C 627.4 39.2 625.2 36.9 625.2 33.9 C 625.2 30.7 627.4 28.6 630.3 28.6 Z M 632.7 32.8 C 632.6 31.1 631.6 30.2 630.3 30.2 C 628.8 30.2 627.6 31.1 627.3 32.8 C 627.3 32.8 632.7 32.8 632.7 32.8 Z M 637.2 27 C 637.2 26.7 637.1 26.5 636.8 26.5 C 636.77 26.54 636 26.5 636 26.5 L 636 24.9 C 636 24.9 637.87 24.88 637.9 24.9 C 638.8 24.9 639.2 25.3 639.2 26.2 C 639.2 26.2 639.2 36.9 639.2 36.9 C 639.2 37.2 639.3 37.3 639.6 37.3 C 639.59 37.34 640.4 37.3 640.4 37.3 L 640.4 39 C 640.4 39 638.49 39 638.5 39 C 637.6 39 637.2 38.6 637.2 37.7 C 637.2 37.7 637.2 27 637.2 27 Z M 647.1 28.6 C 650.1 28.6 652.5 30.9 652.5 33.9 C 652.5 37 650.1 39.2 647.1 39.2 C 644.1 39.2 641.6 37 641.6 33.9 C 641.6 30.9 644.1 28.6 647.1 28.6 Z M 647.1 37.6 C 649 37.6 650.6 36 650.6 33.9 C 650.6 31.8 649 30.3 647.1 30.3 C 645.2 30.3 643.6 31.8 643.6 33.9 C 643.6 36 645.2 37.6 647.1 37.6 Z M 659.4 28.6 C 660.6 28.6 663.1 29.1 663.1 30.9 C 663.05 30.86 663.1 31.9 663.1 31.9 L 661.3 31.9 C 661.3 31.9 661.29 31.34 661.3 31.3 C 661.3 30.6 660.2 30.3 659.4 30.3 C 657.4 30.3 656 31.8 656 33.9 C 656 36.2 657.6 37.5 659.5 37.5 C 661.41 37.52 662.7 36.1 662.7 36.1 L 663.5 37.5 C 663.5 37.5 662.05 39.24 659.4 39.2 C 656.2 39.2 654 37 654 33.9 C 654 31 656.2 28.6 659.4 28.6 Z M 665.5 27 C 665.5 26.7 665.3 26.5 665 26.5 C 665.03 26.54 664.2 26.5 664.2 26.5 L 664.2 24.9 C 664.2 24.9 666.13 24.88 666.1 24.9 C 667 24.9 667.4 25.3 667.4 26.1 C 667.4 26.1 667.4 30.1 667.4 30.1 C 667.41 30.54 667.4 30.9 667.4 30.9 C 667.4 30.9 667.41 30.9 667.4 30.9 C 667.9 29.9 669.2 28.6 671.2 28.6 C 673.6 28.6 674.6 29.9 674.6 32.5 C 674.6 32.5 674.6 36.9 674.6 36.9 C 674.6 37.2 674.8 37.3 675.1 37.3 C 675.07 37.34 675.9 37.3 675.9 37.3 L 675.9 39 C 675.9 39 673.99 39 674 39 C 673.1 39 672.7 38.6 672.7 37.7 C 672.7 37.7 672.7 33 672.7 33 C 672.7 31.5 672.4 30.4 670.8 30.4 C 669.3 30.4 668 31.5 667.6 32.9 C 667.5 33.3 667.4 33.8 667.4 34.3 C 667.41 34.26 667.4 39 667.4 39 L 665.5 39 C 665.5 39 665.47 26.98 665.5 27 Z " stroke="none" fill="#ee3078"/>  </g>  <g id="Polygon75166">    <path d="M 2.1 2.6 L 0.8 2.6 L 0.8 0.9 C 0.8 0.9 9.06 0.88 9.1 0.9 C 10 0.9 10.3 1.3 10.3 2.2 C 10.34 2.16 10.3 3.9 10.3 3.9 L 8.5 3.9 C 8.5 3.9 8.52 3.04 8.5 3 C 8.5 2.7 8.4 2.6 8.1 2.6 C 8.08 2.6 4.1 2.6 4.1 2.6 L 4.1 7 L 9 7 L 9 8.7 L 4.1 8.7 C 4.1 8.7 4.06 12.84 4.1 12.8 C 4.1 13.1 4.2 13.3 4.5 13.3 C 4.5 13.3 8.6 13.3 8.6 13.3 C 8.9 13.3 9.1 13.1 9.1 12.8 C 9.06 12.84 9.1 11.9 9.1 11.9 L 10.9 11.9 C 10.9 11.9 10.9 13.72 10.9 13.7 C 10.9 14.6 10.5 15 9.6 15 C 9.6 15 3.3 15 3.3 15 C 2.4 15 2.1 14.6 2.1 13.7 C 2.06 13.72 2.1 2.6 2.1 2.6 Z M 12.9 12.2 C 12.9 12.2 14.1 13.66 16 13.7 C 16.9 13.7 17.7 13.2 17.7 12.4 C 17.7 10.5 12.2 10.7 12.2 7.5 C 12.2 5.5 13.9 4.6 16 4.6 C 17.2 4.6 19.3 5.1 19.3 6.6 C 19.28 6.6 19.3 7.6 19.3 7.6 L 17.5 7.6 C 17.5 7.6 17.54 7.06 17.5 7.1 C 17.5 6.5 16.6 6.2 16 6.2 C 14.9 6.2 14.1 6.6 14.1 7.4 C 14.1 9.3 19.7 8.9 19.7 12.3 C 19.7 14.1 18.1 15.2 15.9 15.2 C 13.24 15.24 11.9 13.5 11.9 13.5 L 12.9 12.2 Z M 22.2 6.4 L 20.9 6.4 L 20.9 4.9 L 22.3 4.9 L 22.3 2.1 L 24.2 2.1 L 24.2 4.9 L 26.6 4.9 L 26.6 6.4 L 24.2 6.4 C 24.2 6.4 24.16 11.08 24.2 11.1 C 24.2 13.1 25.6 13.4 26.3 13.4 C 26.58 13.36 26.8 13.3 26.8 13.3 L 26.8 15 C 26.8 15 26.5 15.08 26.1 15.1 C 24.8 15.1 22.2 14.7 22.2 11.3 C 22.22 11.3 22.2 6.4 22.2 6.4 Z M 33.1 4.6 C 35.9 4.6 37.5 6.8 37.5 9.4 C 37.46 9.64 37.4 10.2 37.4 10.2 C 37.4 10.2 30.02 10.18 30 10.2 C 30.1 12.3 31.7 13.6 33.5 13.6 C 35.24 13.56 36.5 12.4 36.5 12.4 L 37.3 13.8 C 37.3 13.8 35.8 15.24 33.4 15.2 C 30.2 15.2 28 12.9 28 9.9 C 28 6.7 30.2 4.6 33.1 4.6 Z M 35.5 8.8 C 35.4 7.1 34.3 6.2 33.1 6.2 C 31.6 6.2 30.4 7.1 30.1 8.8 C 30.1 8.8 35.5 8.8 35.5 8.8 Z M 40.1 6.4 L 38.8 6.4 L 38.8 4.9 L 40.2 4.9 L 40.2 2.1 L 42.1 2.1 L 42.1 4.9 L 44.5 4.9 L 44.5 6.4 L 42.1 6.4 C 42.1 6.4 42.06 11.08 42.1 11.1 C 42.1 13.1 43.5 13.4 44.2 13.4 C 44.48 13.36 44.7 13.3 44.7 13.3 L 44.7 15 C 44.7 15 44.4 15.08 44 15.1 C 42.7 15.1 40.1 14.7 40.1 11.3 C 40.12 11.3 40.1 6.4 40.1 6.4 Z M 47.1 7 C 47.1 6.7 46.9 6.5 46.6 6.5 C 46.64 6.54 45.8 6.5 45.8 6.5 L 45.8 4.9 C 45.8 4.9 47.66 4.88 47.7 4.9 C 48.5 4.9 49 5.2 49 6.1 C 49 6.1 49 6.7 49 6.7 C 48.96 7.1 48.9 7.4 48.9 7.4 C 48.9 7.4 48.96 7.4 49 7.4 C 49.4 5.9 50.6 4.8 52.2 4.8 C 52.42 4.76 52.7 4.8 52.7 4.8 L 52.7 6.7 C 52.7 6.7 52.42 6.66 52.1 6.7 C 50.9 6.7 49.7 7.5 49.3 9 C 49.1 9.6 49 10.2 49 10.9 C 49.02 10.86 49 15 49 15 L 47.1 15 C 47.1 15 47.08 6.98 47.1 7 Z M 58.9 4.6 C 61.9 4.6 64.3 6.9 64.3 9.9 C 64.3 13 61.9 15.2 58.9 15.2 C 55.9 15.2 53.4 13 53.4 9.9 C 53.4 6.9 55.9 4.6 58.9 4.6 Z M 58.9 13.6 C 60.8 13.6 62.4 12 62.4 9.9 C 62.4 7.8 60.8 6.3 58.9 6.3 C 57 6.3 55.4 7.8 55.4 9.9 C 55.4 12 57 13.6 58.9 13.6 Z M 66.5 3 C 66.5 2.7 66.4 2.5 66.1 2.5 C 66.1 2.54 65.3 2.5 65.3 2.5 L 65.3 0.9 C 65.3 0.9 67.2 0.88 67.2 0.9 C 68.1 0.9 68.5 1.3 68.5 2.2 C 68.5 2.2 68.5 12.9 68.5 12.9 C 68.5 13.2 68.6 13.3 68.9 13.3 C 68.92 13.34 69.7 13.3 69.7 13.3 L 69.7 15 C 69.7 15 67.82 15 67.8 15 C 66.9 15 66.5 14.6 66.5 13.7 C 66.5 13.7 66.5 3 66.5 3 Z M 77.3 7 C 77.3 6.7 77.2 6.5 76.9 6.5 C 76.88 6.54 76.1 6.5 76.1 6.5 L 76.1 4.9 C 76.1 4.9 77.92 4.88 77.9 4.9 C 78.8 4.9 79.2 5.3 79.2 6 C 79.2 6 79.2 6.4 79.2 6.4 C 79.2 6.7 79.2 7 79.2 7 C 79.2 7 79.2 6.96 79.2 7 C 79.6 6.1 80.8 4.6 83 4.6 C 85.4 4.6 86.5 5.9 86.5 8.5 C 86.5 8.5 86.5 12.9 86.5 12.9 C 86.5 13.2 86.6 13.3 86.9 13.3 C 86.92 13.34 87.7 13.3 87.7 13.3 L 87.7 15 C 87.7 15 85.82 15 85.8 15 C 84.9 15 84.5 14.6 84.5 13.7 C 84.5 13.7 84.5 9 84.5 9 C 84.5 7.5 84.3 6.4 82.6 6.4 C 81.1 6.4 79.8 7.4 79.4 8.9 C 79.3 9.3 79.3 9.8 79.3 10.3 C 79.26 10.26 79.3 15 79.3 15 L 77.3 15 C 77.3 15 77.32 6.98 77.3 7 Z M 93.9 4.6 C 96.8 4.6 98.3 6.8 98.3 9.4 C 98.3 9.64 98.2 10.2 98.2 10.2 C 98.2 10.2 90.86 10.18 90.9 10.2 C 91 12.3 92.5 13.6 94.3 13.6 C 96.08 13.56 97.3 12.4 97.3 12.4 L 98.1 13.8 C 98.1 13.8 96.64 15.24 94.2 15.2 C 91 15.2 88.9 12.9 88.9 9.9 C 88.9 6.7 91.1 4.6 93.9 4.6 Z M 96.3 8.8 C 96.2 7.1 95.2 6.2 93.9 6.2 C 92.4 6.2 91.2 7.1 90.9 8.8 C 90.9 8.8 96.3 8.8 96.3 8.8 Z M 99.8 13.9 C 99.8 13.9 105.02 7.48 105 7.5 C 105.46 6.94 105.9 6.5 105.9 6.5 L 105.9 6.5 C 105.9 6.5 105.54 6.54 104.9 6.5 C 104.9 6.5 102.1 6.5 102.1 6.5 C 101.8 6.5 101.7 6.7 101.7 7 C 101.68 6.98 101.7 7.7 101.7 7.7 L 99.9 7.7 C 99.9 7.7 99.9 6.16 99.9 6.2 C 99.9 5.3 100.3 4.9 101.2 4.9 C 101.18 4.88 108.4 4.9 108.4 4.9 L 108.4 6 C 108.4 6 103.22 12.42 103.2 12.4 C 102.8 12.92 102.4 13.3 102.4 13.3 L 102.4 13.4 C 102.4 13.4 102.7 13.34 103.4 13.3 C 103.4 13.3 106.6 13.3 106.6 13.3 C 106.9 13.3 107 13.2 107 12.9 C 107.04 12.9 107 12.2 107 12.2 L 108.8 12.2 C 108.8 12.2 108.8 13.72 108.8 13.7 C 108.8 14.6 108.4 15 107.5 15 C 107.52 15 99.8 15 99.8 15 L 99.8 13.9 Z M 110 6.9 C 109.9 6.6 109.7 6.5 109.4 6.5 C 109.38 6.54 109.2 6.5 109.2 6.5 L 109.2 4.9 C 109.2 4.9 110.18 4.88 110.2 4.9 C 111.1 4.9 111.4 5.1 111.7 5.9 C 111.7 5.9 113.9 11.7 113.9 11.7 C 114.1 12.28 114.3 13 114.3 13 L 114.3 13 C 114.3 13 114.46 12.28 114.7 11.7 C 114.7 11.7 116.8 5.9 116.8 5.9 C 117.1 5.1 117.5 4.9 118.4 4.9 C 118.36 4.88 119.3 4.9 119.3 4.9 L 119.3 6.5 C 119.3 6.5 119.1 6.54 119.1 6.5 C 118.8 6.5 118.6 6.6 118.4 6.9 C 118.44 6.94 115.4 15 115.4 15 L 113.1 15 C 113.1 15 110 6.94 110 6.9 Z M 121.9 17.5 C 122.7 17.5 123.3 17 123.7 16.1 C 123.72 16.06 124.2 15 124.2 15 C 124.2 15 120.72 6.94 120.7 6.9 C 120.6 6.6 120.4 6.5 120.1 6.5 C 120.08 6.54 119.8 6.5 119.8 6.5 L 119.8 4.9 C 119.8 4.9 120.98 4.88 121 4.9 C 121.8 4.9 122.1 5.1 122.4 5.9 C 122.4 5.9 124.7 11.6 124.7 11.6 C 124.92 12.12 125.1 12.8 125.1 12.8 L 125.1 12.8 C 125.1 12.8 125.26 12.12 125.5 11.6 C 125.5 11.6 127.6 5.9 127.6 5.9 C 127.9 5.1 128.2 4.9 129 4.9 C 129.04 4.88 130.2 4.9 130.2 4.9 L 130.2 6.5 C 130.2 6.5 129.94 6.54 129.9 6.5 C 129.6 6.5 129.4 6.6 129.3 6.9 C 129.3 6.9 125.3 16.8 125.3 16.8 C 124.7 18.4 123.5 19.2 122 19.2 C 120.54 19.2 119.7 18.2 119.7 18.2 C 119.7 18.2 120.46 16.8 120.5 16.8 C 120.5 16.8 121.1 17.5 121.9 17.5 Z M 132 12.2 C 132 12.2 133.22 13.66 135.1 13.7 C 136 13.7 136.8 13.2 136.8 12.4 C 136.8 10.5 131.3 10.7 131.3 7.5 C 131.3 5.5 133 4.6 135.1 4.6 C 136.3 4.6 138.4 5.1 138.4 6.6 C 138.4 6.6 138.4 7.6 138.4 7.6 L 136.7 7.6 C 136.7 7.6 136.66 7.06 136.7 7.1 C 136.7 6.5 135.8 6.2 135.1 6.2 C 134 6.2 133.3 6.6 133.3 7.4 C 133.3 9.3 138.8 8.9 138.8 12.3 C 138.8 14.1 137.2 15.2 135.1 15.2 C 132.36 15.24 131 13.5 131 13.5 L 132 12.2 Z M 132.3 0.9 L 133.9 0.9 L 135 2.5 L 135 2.5 L 136 0.9 L 137.6 0.9 L 135.9 3.4 L 134.1 3.4 L 132.3 0.9 Z M 141.2 7 C 141.2 6.7 141.1 6.5 140.8 6.5 C 140.78 6.54 140 6.5 140 6.5 L 140 4.9 C 140 4.9 141.86 4.88 141.9 4.9 C 142.8 4.9 143.2 5.3 143.2 6.1 C 143.2 6.1 143.2 10.9 143.2 10.9 C 143.2 12.3 143.4 13.4 145 13.4 C 147.1 13.4 148.3 11.6 148.3 9.6 C 148.34 9.62 148.3 4.9 148.3 4.9 L 150.3 4.9 C 150.3 4.9 150.28 12.9 150.3 12.9 C 150.3 13.2 150.4 13.3 150.7 13.3 C 150.72 13.34 151.5 13.3 151.5 13.3 L 151.5 15 C 151.5 15 149.68 15 149.7 15 C 148.8 15 148.4 14.6 148.4 13.9 C 148.4 13.9 148.4 13.5 148.4 13.5 C 148.4 13.18 148.4 12.9 148.4 12.9 C 148.4 12.9 148.38 12.92 148.4 12.9 C 148 13.9 146.7 15.2 144.7 15.2 C 142.4 15.2 141.2 14 141.2 11.4 C 141.2 11.4 141.2 7 141.2 7 Z M 154.2 0.9 L 156 0.9 L 156 2.9 L 154.2 2.9 L 154.2 0.9 Z M 152 17.4 C 152.8 17.4 154.2 17.2 154.2 15.2 C 154.2 15.2 154.2 7 154.2 7 C 154.2 6.7 154 6.5 153.7 6.5 C 153.74 6.54 152.9 6.5 152.9 6.5 L 152.9 4.9 C 152.9 4.9 154.84 4.88 154.8 4.9 C 155.7 4.9 156.1 5.3 156.1 6.2 C 156.1 6.2 156.1 15.3 156.1 15.3 C 156.1 18.7 153.5 19.1 152.2 19.1 C 151.84 19.12 151.6 19.1 151.6 19.1 L 151.6 17.4 C 151.6 17.4 151.76 17.44 152 17.4 Z M 163.5 4.6 C 166.3 4.6 167.9 6.8 167.9 9.4 C 167.86 9.64 167.8 10.2 167.8 10.2 C 167.8 10.2 160.42 10.18 160.4 10.2 C 160.5 12.3 162.1 13.6 163.9 13.6 C 165.64 13.56 166.9 12.4 166.9 12.4 L 167.7 13.8 C 167.7 13.8 166.2 15.24 163.8 15.2 C 160.6 15.2 158.4 12.9 158.4 9.9 C 158.4 6.7 160.6 4.6 163.5 4.6 Z M 165.9 8.8 C 165.8 7.1 164.7 6.2 163.5 6.2 C 162 6.2 160.8 7.1 160.5 8.8 C 160.5 8.8 165.9 8.8 165.9 8.8 Z M 175.8 7 C 175.8 6.7 175.7 6.5 175.4 6.5 C 175.38 6.54 174.6 6.5 174.6 6.5 L 174.6 4.9 C 174.6 4.9 176.4 4.88 176.4 4.9 C 177.3 4.9 177.7 5.2 177.7 6.1 C 177.7 6.1 177.7 6.7 177.7 6.7 C 177.7 7.1 177.7 7.4 177.7 7.4 C 177.7 7.4 177.7 7.4 177.7 7.4 C 178.2 5.9 179.3 4.8 180.9 4.8 C 181.16 4.76 181.4 4.8 181.4 4.8 L 181.4 6.7 C 181.4 6.7 181.16 6.66 180.8 6.7 C 179.6 6.7 178.5 7.5 178 9 C 177.8 9.6 177.8 10.2 177.8 10.9 C 177.76 10.86 177.8 15 177.8 15 L 175.8 15 C 175.8 15 175.82 6.98 175.8 7 Z M 183.7 0.9 L 185.4 0.9 L 185.4 2.9 L 183.7 2.9 L 183.7 0.9 Z M 183.7 7 C 183.7 6.7 183.5 6.5 183.2 6.5 C 183.22 6.54 182.4 6.5 182.4 6.5 L 182.4 4.9 C 182.4 4.9 184.3 4.88 184.3 4.9 C 185.2 4.9 185.6 5.3 185.6 6.2 C 185.6 6.2 185.6 12.9 185.6 12.9 C 185.6 13.2 185.7 13.3 186 13.3 C 186.02 13.34 186.8 13.3 186.8 13.3 L 186.8 15 C 186.8 15 184.94 15 184.9 15 C 184 15 183.7 14.6 183.7 13.7 C 183.7 13.7 183.7 7 183.7 7 Z M 188 13.9 C 188 13.9 193.2 7.48 193.2 7.5 C 193.64 6.94 194 6.5 194 6.5 L 194 6.5 C 194 6.5 193.72 6.54 193.1 6.5 C 193.1 6.5 190.3 6.5 190.3 6.5 C 190 6.5 189.9 6.7 189.9 7 C 189.86 6.98 189.9 7.7 189.9 7.7 L 188.1 7.7 C 188.1 7.7 188.08 6.16 188.1 6.2 C 188.1 5.3 188.5 4.9 189.4 4.9 C 189.36 4.88 196.6 4.9 196.6 4.9 L 196.6 6 C 196.6 6 191.4 12.42 191.4 12.4 C 190.98 12.92 190.6 13.3 190.6 13.3 L 190.6 13.4 C 190.6 13.4 190.88 13.34 191.5 13.3 C 191.5 13.3 194.8 13.3 194.8 13.3 C 195.1 13.3 195.2 13.2 195.2 12.9 C 195.22 12.9 195.2 12.2 195.2 12.2 L 197 12.2 C 197 12.2 196.98 13.72 197 13.7 C 197 14.6 196.6 15 195.7 15 C 195.7 15 188 15 188 15 L 188 13.9 Z M 199.3 0.9 L 201 0.9 L 201 2.9 L 199.3 2.9 L 199.3 0.9 Z M 199.3 7 C 199.3 6.7 199.1 6.5 198.8 6.5 C 198.82 6.54 198 6.5 198 6.5 L 198 4.9 C 198 4.9 199.9 4.88 199.9 4.9 C 200.8 4.9 201.2 5.3 201.2 6.2 C 201.2 6.2 201.2 12.9 201.2 12.9 C 201.2 13.2 201.3 13.3 201.6 13.3 C 201.62 13.34 202.4 13.3 202.4 13.3 L 202.4 15 C 202.4 15 200.54 15 200.5 15 C 199.6 15 199.3 14.6 199.3 13.7 C 199.3 13.7 199.3 7 199.3 7 Z M 204.6 3 C 204.6 2.7 204.4 2.5 204.1 2.5 C 204.14 2.54 203.3 2.5 203.3 2.5 L 203.3 0.9 C 203.3 0.9 205.24 0.88 205.2 0.9 C 206.1 0.9 206.5 1.1 206.5 2 C 206.52 2.04 206.5 8.6 206.5 8.6 C 206.5 8.6 207.42 8.6 207.4 8.6 C 207.8 8.6 208.2 8.5 208.5 8.2 C 208.48 8.16 210.8 4.9 210.8 4.9 L 213 4.9 C 213 4.9 210.3 8.64 210.3 8.6 C 209.84 9.26 209.5 9.4 209.5 9.4 L 209.5 9.4 C 209.5 9.4 209.88 9.56 210.2 10.2 C 210.2 10.2 211.7 12.9 211.7 12.9 C 211.9 13.3 212.1 13.3 212.6 13.3 C 212.58 13.34 213.2 13.3 213.2 13.3 L 213.2 15 C 213.2 15 211.8 15 211.8 15 C 210.9 15 210.6 14.8 210.1 14.1 C 210.1 14.1 208.3 10.7 208.3 10.7 C 208.1 10.3 207.6 10.2 207.3 10.2 C 207.28 10.24 206.5 10.2 206.5 10.2 L 206.5 15 L 204.6 15 C 204.6 15 204.58 2.98 204.6 3 Z M 219.4 4.6 C 222.5 4.6 224.9 6.9 224.9 9.9 C 224.9 13 222.5 15.2 219.4 15.2 C 216.4 15.2 214 13 214 9.9 C 214 6.9 216.4 4.6 219.4 4.6 Z M 219.4 13.6 C 221.4 13.6 222.9 12 222.9 9.9 C 222.9 7.8 221.4 6.3 219.4 6.3 C 217.5 6.3 216 7.8 216 9.9 C 216 12 217.5 13.6 219.4 13.6 Z M 238.8 0.6 C 240.7 0.6 244.1 1.4 244.1 3.7 C 244.06 3.7 244.1 5.1 244.1 5.1 L 242.2 5.1 C 242.2 5.1 242.22 4.28 242.2 4.3 C 242.2 3.1 240.2 2.5 238.8 2.5 C 236 2.5 233.8 4.6 233.8 7.8 C 233.8 10.9 236 13.4 238.9 13.4 C 241.66 13.36 243.3 11.4 243.3 11.4 L 244.4 12.9 C 244.4 12.9 242.4 15.24 238.8 15.2 C 234.6 15.2 231.7 12 231.7 7.8 C 231.7 3.7 234.7 0.6 238.8 0.6 Z M 251.9 8.7 C 251.86 8.7 252.3 8.7 252.3 8.7 C 252.3 8.7 252.3 8.6 252.3 8.6 C 252.3 6.8 251.6 6.2 250.1 6.2 C 249.6 6.2 248.4 6.3 248.4 7 C 248.4 6.96 248.4 7.5 248.4 7.5 L 246.6 7.5 C 246.6 7.5 246.58 6.54 246.6 6.5 C 246.6 4.9 249.1 4.6 250.1 4.6 C 253.4 4.6 254.2 6.4 254.2 8.6 C 254.2 8.6 254.2 12.9 254.2 12.9 C 254.2 13.2 254.4 13.3 254.7 13.3 C 254.68 13.34 255.5 13.3 255.5 13.3 L 255.5 15 C 255.5 15 253.68 15 253.7 15 C 252.8 15 252.4 14.6 252.4 13.8 C 252.42 13.5 252.5 13.2 252.5 13.2 L 252.4 13.2 C 252.4 13.2 251.62 15.24 249.2 15.2 C 247.5 15.2 245.8 14.2 245.8 12.2 C 245.8 8.9 250.2 8.7 251.9 8.7 Z M 249.6 13.7 C 251.3 13.7 252.3 12 252.3 10.5 C 252.32 10.46 252.3 10.1 252.3 10.1 C 252.3 10.1 251.82 10.12 251.8 10.1 C 250.4 10.1 247.7 10.2 247.7 12.1 C 247.7 12.9 248.3 13.7 249.6 13.7 Z M 263 7 C 263 6.7 262.8 6.5 262.5 6.5 C 262.54 6.54 261.7 6.5 261.7 6.5 L 261.7 4.9 C 261.7 4.9 263.54 4.88 263.5 4.9 C 264.4 4.9 264.8 5.3 264.8 5.9 C 264.78 6.2 264.8 6.4 264.8 6.4 L 264.8 6.4 C 264.8 6.4 265.64 4.64 268.2 4.6 C 270.9 4.6 272.6 6.8 272.6 9.9 C 272.6 13.2 270.7 15.2 268 15.2 C 265.78 15.24 264.9 13.6 264.9 13.6 L 264.9 13.6 C 264.9 13.6 264.92 13.98 264.9 14.5 C 264.92 14.5 264.9 19 264.9 19 L 263 19 C 263 19 262.98 6.98 263 7 Z M 267.7 13.6 C 269.3 13.6 270.6 12.3 270.6 10 C 270.6 7.8 269.5 6.3 267.8 6.3 C 266.3 6.3 264.9 7.4 264.9 10 C 264.9 11.8 265.8 13.6 267.7 13.6 Z M 275.1 7 C 275.1 6.7 274.9 6.5 274.6 6.5 C 274.62 6.54 273.8 6.5 273.8 6.5 L 273.8 4.9 C 273.8 4.9 275.64 4.88 275.6 4.9 C 276.5 4.9 276.9 5.2 276.9 6.1 C 276.9 6.1 276.9 6.7 276.9 6.7 C 276.94 7.1 276.9 7.4 276.9 7.4 C 276.9 7.4 276.94 7.4 276.9 7.4 C 277.4 5.9 278.6 4.8 280.1 4.8 C 280.4 4.76 280.7 4.8 280.7 4.8 L 280.7 6.7 C 280.7 6.7 280.4 6.66 280.1 6.7 C 278.8 6.7 277.7 7.5 277.2 9 C 277.1 9.6 277 10.2 277 10.9 C 277 10.86 277 15 277 15 L 275.1 15 C 275.1 15 275.06 6.98 275.1 7 Z M 282.6 12.2 C 282.6 12.2 283.84 13.66 285.7 13.7 C 286.6 13.7 287.5 13.2 287.5 12.4 C 287.5 10.5 281.9 10.7 281.9 7.5 C 281.9 5.5 283.6 4.6 285.7 4.6 C 286.9 4.6 289 5.1 289 6.6 C 289.02 6.6 289 7.6 289 7.6 L 287.3 7.6 C 287.3 7.6 287.28 7.06 287.3 7.1 C 287.3 6.5 286.4 6.2 285.8 6.2 C 284.6 6.2 283.9 6.6 283.9 7.4 C 283.9 9.3 289.4 8.9 289.4 12.3 C 289.4 14.1 287.8 15.2 285.7 15.2 C 282.98 15.24 281.6 13.5 281.6 13.5 L 282.6 12.2 Z M 291.9 7 C 291.9 6.7 291.7 6.5 291.4 6.5 C 291.44 6.54 290.6 6.5 290.6 6.5 L 290.6 4.9 C 290.6 4.9 292.48 4.88 292.5 4.9 C 293.3 4.9 293.8 5.3 293.8 6 C 293.8 6 293.8 6.4 293.8 6.4 C 293.76 6.7 293.7 7 293.7 7 C 293.7 7 293.76 6.96 293.8 7 C 294.2 6.1 295.4 4.6 297.6 4.6 C 300 4.6 301 5.9 301 8.5 C 301 8.5 301 12.9 301 12.9 C 301 13.2 301.2 13.3 301.5 13.3 C 301.48 13.34 302.3 13.3 302.3 13.3 L 302.3 15 C 302.3 15 300.38 15 300.4 15 C 299.5 15 299.1 14.6 299.1 13.7 C 299.1 13.7 299.1 9 299.1 9 C 299.1 7.5 298.8 6.4 297.2 6.4 C 295.6 6.4 294.4 7.4 294 8.9 C 293.9 9.3 293.8 9.8 293.8 10.3 C 293.82 10.26 293.8 15 293.8 15 L 291.9 15 C 291.9 15 291.88 6.98 291.9 7 Z M 304.5 7 C 304.5 6.7 304.3 6.5 304.1 6.5 C 304.06 6.54 303.2 6.5 303.2 6.5 L 303.2 4.9 C 303.2 4.9 305.16 4.88 305.2 4.9 C 306.1 4.9 306.4 5.3 306.4 6.2 C 306.4 6.2 306.4 12.9 306.4 12.9 C 306.4 13.2 306.6 13.3 306.9 13.3 C 306.88 13.34 307.7 13.3 307.7 13.3 L 307.7 15 C 307.7 15 305.8 15 305.8 15 C 304.9 15 304.5 14.6 304.5 13.7 C 304.5 13.7 304.5 7 304.5 7 Z M 306 0.9 L 308 0.9 L 306.1 3.4 L 304.5 3.4 L 306 0.9 Z M 309.9 3 C 309.9 2.7 309.7 2.5 309.4 2.5 C 309.42 2.54 308.6 2.5 308.6 2.5 L 308.6 0.9 C 308.6 0.9 310.52 0.88 310.5 0.9 C 311.4 0.9 311.8 1.1 311.8 2 C 311.8 2.04 311.8 8.6 311.8 8.6 C 311.8 8.6 312.7 8.6 312.7 8.6 C 313.1 8.6 313.5 8.5 313.8 8.2 C 313.76 8.16 316.1 4.9 316.1 4.9 L 318.3 4.9 C 318.3 4.9 315.58 8.64 315.6 8.6 C 315.12 9.26 314.8 9.4 314.8 9.4 L 314.8 9.4 C 314.8 9.4 315.16 9.56 315.5 10.2 C 315.5 10.2 317 12.9 317 12.9 C 317.2 13.3 317.4 13.3 317.9 13.3 C 317.86 13.34 318.5 13.3 318.5 13.3 L 318.5 15 C 318.5 15 317.08 15 317.1 15 C 316.1 15 315.8 14.8 315.4 14.1 C 315.4 14.1 313.6 10.7 313.6 10.7 C 313.3 10.3 312.9 10.2 312.6 10.2 C 312.56 10.24 311.8 10.2 311.8 10.2 L 311.8 15 L 309.9 15 C 309.9 15 309.86 2.98 309.9 3 Z M 325.5 8.7 C 325.48 8.7 325.9 8.7 325.9 8.7 C 325.9 8.7 325.92 8.6 325.9 8.6 C 325.9 6.8 325.3 6.2 323.7 6.2 C 323.2 6.2 322 6.3 322 7 C 322.02 6.96 322 7.5 322 7.5 L 320.2 7.5 C 320.2 7.5 320.2 6.54 320.2 6.5 C 320.2 4.9 322.7 4.6 323.7 4.6 C 327 4.6 327.9 6.4 327.9 8.6 C 327.9 8.6 327.9 12.9 327.9 12.9 C 327.9 13.2 328 13.3 328.3 13.3 C 328.3 13.34 329.1 13.3 329.1 13.3 L 329.1 15 C 329.1 15 327.3 15 327.3 15 C 326.4 15 326 14.6 326 13.8 C 326.04 13.5 326.1 13.2 326.1 13.2 L 326 13.2 C 326 13.2 325.24 15.24 322.8 15.2 C 321.1 15.2 319.4 14.2 319.4 12.2 C 319.4 8.9 323.8 8.7 325.5 8.7 Z M 323.2 13.7 C 324.9 13.7 325.9 12 325.9 10.5 C 325.94 10.46 325.9 10.1 325.9 10.1 C 325.9 10.1 325.44 10.12 325.4 10.1 C 324 10.1 321.3 10.2 321.3 12.1 C 321.3 12.9 322 13.7 323.2 13.7 Z M 333.2 12.9 L 331.5 17 L 330 17 L 331.2 12.9 L 333.2 12.9 Z M 341.4 3 C 341.4 2.7 341.2 2.5 340.9 2.5 C 340.92 2.54 340.1 2.5 340.1 2.5 L 340.1 0.9 C 340.1 0.9 342.02 0.88 342 0.9 C 342.9 0.9 343.3 1.3 343.3 2.2 C 343.3 2.2 343.3 12.9 343.3 12.9 C 343.3 13.2 343.5 13.3 343.7 13.3 C 343.74 13.34 344.6 13.3 344.6 13.3 L 344.6 15 C 344.6 15 342.64 15 342.6 15 C 341.7 15 341.4 14.6 341.4 13.7 C 341.4 13.7 341.4 3 341.4 3 Z M 350.9 4.6 C 353.7 4.6 355.2 6.8 355.2 9.4 C 355.22 9.64 355.2 10.2 355.2 10.2 C 355.2 10.2 347.78 10.18 347.8 10.2 C 347.9 12.3 349.5 13.6 351.3 13.6 C 353 13.56 354.2 12.4 354.2 12.4 L 355.1 13.8 C 355.1 13.8 353.56 15.24 351.2 15.2 C 348 15.2 345.8 12.9 345.8 9.9 C 345.8 6.7 348 4.6 350.9 4.6 Z M 353.2 8.8 C 353.2 7.1 352.1 6.2 350.8 6.2 C 349.4 6.2 348.2 7.1 347.9 8.8 C 347.9 8.8 353.2 8.8 353.2 8.8 Z M 357.7 3 C 357.7 2.7 357.6 2.5 357.3 2.5 C 357.27 2.54 356.5 2.5 356.5 2.5 L 356.5 0.9 C 356.5 0.9 358.37 0.88 358.4 0.9 C 359.3 0.9 359.7 1.3 359.7 2.2 C 359.7 2.2 359.7 5.5 359.7 5.5 C 359.65 5.94 359.6 6.3 359.6 6.3 L 359.7 6.3 C 359.7 6.3 360.53 4.64 362.9 4.6 C 365.6 4.6 367.4 6.8 367.4 9.9 C 367.4 13.2 365.4 15.2 362.8 15.2 C 360.49 15.24 359.6 13.5 359.6 13.5 L 359.5 13.5 C 359.5 13.5 359.57 13.86 359.6 14.3 C 359.57 14.3 359.6 15 359.6 15 L 357.7 15 C 357.7 15 357.71 2.98 357.7 3 Z M 362.5 13.6 C 364.1 13.6 365.4 12.3 365.4 10 C 365.4 7.8 364.2 6.3 362.5 6.3 C 361 6.3 359.6 7.4 359.6 10 C 359.6 11.8 360.6 13.6 362.5 13.6 Z M 374.3 4.6 C 377.3 4.6 379.7 6.9 379.7 9.9 C 379.7 13 377.3 15.2 374.3 15.2 C 371.2 15.2 368.8 13 368.8 9.9 C 368.8 6.9 371.2 4.6 374.3 4.6 Z M 374.3 13.6 C 376.2 13.6 377.7 12 377.7 9.9 C 377.7 7.8 376.2 6.3 374.3 6.3 C 372.4 6.3 370.8 7.8 370.8 9.9 C 370.8 12 372.4 13.6 374.3 13.6 Z M 392.7 8.7 C 392.65 8.7 393.1 8.7 393.1 8.7 C 393.1 8.7 393.09 8.6 393.1 8.6 C 393.1 6.8 392.4 6.2 390.9 6.2 C 390.4 6.2 389.2 6.3 389.2 7 C 389.19 6.96 389.2 7.5 389.2 7.5 L 387.4 7.5 C 387.4 7.5 387.37 6.54 387.4 6.5 C 387.4 4.9 389.9 4.6 390.9 4.6 C 394.2 4.6 395 6.4 395 8.6 C 395 8.6 395 12.9 395 12.9 C 395 13.2 395.2 13.3 395.5 13.3 C 395.47 13.34 396.3 13.3 396.3 13.3 L 396.3 15 C 396.3 15 394.47 15 394.5 15 C 393.6 15 393.2 14.6 393.2 13.8 C 393.21 13.5 393.3 13.2 393.3 13.2 L 393.2 13.2 C 393.2 13.2 392.41 15.24 390 15.2 C 388.3 15.2 386.6 14.2 386.6 12.2 C 386.6 8.9 391 8.7 392.7 8.7 Z M 390.4 13.7 C 392.1 13.7 393.1 12 393.1 10.5 C 393.11 10.46 393.1 10.1 393.1 10.1 C 393.1 10.1 392.61 10.12 392.6 10.1 C 391.2 10.1 388.5 10.2 388.5 12.1 C 388.5 12.9 389.1 13.7 390.4 13.7 Z M 398.4 7 C 398.4 6.7 398.2 6.5 398 6.5 C 397.95 6.54 397.1 6.5 397.1 6.5 L 397.1 4.9 C 397.1 4.9 398.99 4.88 399 4.9 C 399.9 4.9 400.3 5.3 400.3 6 C 400.3 6 400.3 6.4 400.3 6.4 C 400.27 6.7 400.2 7 400.2 7 C 400.2 7 400.27 6.96 400.3 7 C 400.7 6.1 401.9 4.6 404.1 4.6 C 406.5 4.6 407.6 5.9 407.6 8.5 C 407.6 8.5 407.6 12.9 407.6 12.9 C 407.6 13.2 407.7 13.3 408 13.3 C 407.99 13.34 408.8 13.3 408.8 13.3 L 408.8 15 C 408.8 15 406.89 15 406.9 15 C 406 15 405.6 14.6 405.6 13.7 C 405.6 13.7 405.6 9 405.6 9 C 405.6 7.5 405.3 6.4 403.7 6.4 C 402.2 6.4 400.9 7.4 400.5 8.9 C 400.4 9.3 400.3 9.8 400.3 10.3 C 400.33 10.26 400.3 15 400.3 15 L 398.4 15 C 398.4 15 398.39 6.98 398.4 7 Z M 411 6.4 L 409.7 6.4 L 409.7 4.9 L 411 4.9 L 411 2.1 L 412.9 2.1 L 412.9 4.9 L 415.4 4.9 L 415.4 6.4 L 412.9 6.4 C 412.9 6.4 412.93 11.08 412.9 11.1 C 412.9 13.1 414.3 13.4 415.1 13.4 C 415.35 13.36 415.5 13.3 415.5 13.3 L 415.5 15 C 415.5 15 415.27 15.08 414.9 15.1 C 413.6 15.1 411 14.7 411 11.3 C 410.99 11.3 411 6.4 411 6.4 Z M 423 8.7 C 422.99 8.7 423.4 8.7 423.4 8.7 C 423.4 8.7 423.43 8.6 423.4 8.6 C 423.4 6.8 422.8 6.2 421.2 6.2 C 420.7 6.2 419.5 6.3 419.5 7 C 419.53 6.96 419.5 7.5 419.5 7.5 L 417.7 7.5 C 417.7 7.5 417.71 6.54 417.7 6.5 C 417.7 4.9 420.2 4.6 421.2 4.6 C 424.5 4.6 425.4 6.4 425.4 8.6 C 425.4 8.6 425.4 12.9 425.4 12.9 C 425.4 13.2 425.5 13.3 425.8 13.3 C 425.81 13.34 426.6 13.3 426.6 13.3 L 426.6 15 C 426.6 15 424.81 15 424.8 15 C 423.9 15 423.6 14.6 423.6 13.8 C 423.55 13.5 423.6 13.2 423.6 13.2 L 423.6 13.2 C 423.6 13.2 422.75 15.24 420.3 15.2 C 418.6 15.2 416.9 14.2 416.9 12.2 C 416.9 8.9 421.3 8.7 423 8.7 Z M 420.8 13.7 C 422.4 13.7 423.5 12 423.5 10.5 C 423.45 10.46 423.5 10.1 423.5 10.1 C 423.5 10.1 422.95 10.12 423 10.1 C 421.5 10.1 418.9 10.2 418.9 12.1 C 418.9 12.9 419.5 13.7 420.8 13.7 Z M 432.2 4.6 C 434.73 4.64 435.5 6.2 435.5 6.2 L 435.5 6.2 C 435.5 6.2 435.49 6.06 435.5 5.9 C 435.5 5.3 435.8 4.9 436.6 4.9 C 436.61 4.88 438.5 4.9 438.5 4.9 L 438.5 6.5 C 438.5 6.5 437.69 6.54 437.7 6.5 C 437.4 6.5 437.3 6.7 437.3 6.9 C 437.3 6.9 437.3 14.6 437.3 14.6 C 437.3 17.9 434.7 19.2 432.2 19.2 C 430.9 19.2 429.7 18.9 428.7 18.4 C 428.69 18.36 429.4 16.8 429.4 16.8 C 429.4 16.8 430.59 17.48 432.1 17.5 C 433.9 17.5 435.3 16.7 435.3 14.7 C 435.3 14.7 435.3 14 435.3 14 C 435.31 13.66 435.4 13.3 435.4 13.3 C 435.4 13.3 435.31 13.34 435.3 13.3 C 434.7 14.3 433.8 14.9 432.3 14.9 C 429.5 14.9 427.8 12.6 427.8 9.7 C 427.8 6.8 429.4 4.6 432.2 4.6 Z M 435.4 9.7 C 435.4 7.1 434.1 6.3 432.5 6.3 C 430.8 6.3 429.8 7.6 429.8 9.7 C 429.8 11.8 430.9 13.2 432.7 13.2 C 434.1 13.2 435.4 12.4 435.4 9.7 Z M 445.1 4.6 C 448.1 4.6 450.6 6.9 450.6 9.9 C 450.6 13 448.1 15.2 445.1 15.2 C 442.1 15.2 439.7 13 439.7 9.9 C 439.7 6.9 442.1 4.6 445.1 4.6 Z M 445.1 13.6 C 447 13.6 448.6 12 448.6 9.9 C 448.6 7.8 447 6.3 445.1 6.3 C 443.2 6.3 441.6 7.8 441.6 9.9 C 441.6 12 443.2 13.6 445.1 13.6 Z M 453 7 C 453 6.7 452.8 6.5 452.5 6.5 C 452.53 6.54 451.7 6.5 451.7 6.5 L 451.7 4.9 C 451.7 4.9 453.57 4.88 453.6 4.9 C 454.4 4.9 454.9 5.3 454.9 6 C 454.9 6 454.9 6.4 454.9 6.4 C 454.85 6.7 454.8 7 454.8 7 C 454.8 7 454.85 6.96 454.9 7 C 455.3 6.1 456.5 4.6 458.7 4.6 C 461.1 4.6 462.1 5.9 462.1 8.5 C 462.1 8.5 462.1 12.9 462.1 12.9 C 462.1 13.2 462.3 13.3 462.6 13.3 C 462.57 13.34 463.4 13.3 463.4 13.3 L 463.4 15 C 463.4 15 461.47 15 461.5 15 C 460.6 15 460.2 14.6 460.2 13.7 C 460.2 13.7 460.2 9 460.2 9 C 460.2 7.5 459.9 6.4 458.3 6.4 C 456.7 6.4 455.5 7.4 455.1 8.9 C 455 9.3 454.9 9.8 454.9 10.3 C 454.91 10.26 454.9 15 454.9 15 L 453 15 C 453 15 452.97 6.98 453 7 Z M 465.6 0.9 L 467.4 0.9 L 467.4 2.9 L 465.6 2.9 L 465.6 0.9 Z M 465.6 7 C 465.6 6.7 465.4 6.5 465.2 6.5 C 465.15 6.54 464.3 6.5 464.3 6.5 L 464.3 4.9 C 464.3 4.9 466.23 4.88 466.2 4.9 C 467.1 4.9 467.5 5.3 467.5 6.2 C 467.5 6.2 467.5 12.9 467.5 12.9 C 467.5 13.2 467.7 13.3 468 13.3 C 467.95 13.34 468.8 13.3 468.8 13.3 L 468.8 15 C 468.8 15 466.87 15 466.9 15 C 466 15 465.6 14.6 465.6 13.7 C 465.6 13.7 465.6 7 465.6 7 Z M 470 13.9 C 470 13.9 475.13 7.48 475.1 7.5 C 475.57 6.94 476 6.5 476 6.5 L 476 6.5 C 476 6.5 475.65 6.54 475 6.5 C 475 6.5 472.2 6.5 472.2 6.5 C 472 6.5 471.8 6.7 471.8 7 C 471.79 6.98 471.8 7.7 471.8 7.7 L 470 7.7 C 470 7.7 470.01 6.16 470 6.2 C 470 5.3 470.4 4.9 471.3 4.9 C 471.29 4.88 478.5 4.9 478.5 4.9 L 478.5 6 C 478.5 6 473.33 12.42 473.3 12.4 C 472.91 12.92 472.5 13.3 472.5 13.3 L 472.5 13.4 C 472.5 13.4 472.81 13.34 473.5 13.3 C 473.5 13.3 476.7 13.3 476.7 13.3 C 477 13.3 477.2 13.2 477.2 12.9 C 477.15 12.9 477.2 12.2 477.2 12.2 L 478.9 12.2 C 478.9 12.2 478.91 13.72 478.9 13.7 C 478.9 14.6 478.5 15 477.6 15 C 477.63 15 470 15 470 15 L 470 13.9 Z M 481.1 7 C 481.1 6.7 480.9 6.5 480.6 6.5 C 480.61 6.54 479.8 6.5 479.8 6.5 L 479.8 4.9 C 479.8 4.9 481.69 4.88 481.7 4.9 C 482.6 4.9 483 5.3 483 6.1 C 483 6.1 483 10.9 483 10.9 C 483 12.3 483.3 13.4 484.9 13.4 C 487 13.4 488.2 11.6 488.2 9.6 C 488.17 9.62 488.2 4.9 488.2 4.9 L 490.1 4.9 C 490.1 4.9 490.11 12.9 490.1 12.9 C 490.1 13.2 490.3 13.3 490.6 13.3 C 490.55 13.34 491.4 13.3 491.4 13.3 L 491.4 15 C 491.4 15 489.51 15 489.5 15 C 488.7 15 488.2 14.6 488.2 13.9 C 488.2 13.9 488.2 13.5 488.2 13.5 C 488.23 13.18 488.3 12.9 488.3 12.9 C 488.3 12.9 488.21 12.92 488.2 12.9 C 487.8 13.9 486.5 15.2 484.5 15.2 C 482.2 15.2 481.1 14 481.1 11.4 C 481.1 11.4 481.1 7 481.1 7 Z M 494.1 0.9 L 495.8 0.9 L 495.8 2.9 L 494.1 2.9 L 494.1 0.9 Z M 491.9 17.4 C 492.6 17.4 494 17.2 494 15.2 C 494 15.2 494 7 494 7 C 494 6.7 493.9 6.5 493.6 6.5 C 493.57 6.54 492.8 6.5 492.8 6.5 L 492.8 4.9 C 492.8 4.9 494.67 4.88 494.7 4.9 C 495.6 4.9 496 5.3 496 6.2 C 496 6.2 496 15.3 496 15.3 C 496 18.7 493.4 19.1 492.1 19.1 C 491.67 19.12 491.4 19.1 491.4 19.1 L 491.4 17.4 C 491.4 17.4 491.59 17.44 491.9 17.4 Z M 503.3 4.6 C 506.2 4.6 507.7 6.8 507.7 9.4 C 507.69 9.64 507.6 10.2 507.6 10.2 C 507.6 10.2 500.25 10.18 500.3 10.2 C 500.4 12.3 501.9 13.6 503.7 13.6 C 505.47 13.56 506.7 12.4 506.7 12.4 L 507.5 13.8 C 507.5 13.8 506.03 15.24 503.6 15.2 C 500.4 15.2 498.3 12.9 498.3 9.9 C 498.3 6.7 500.5 4.6 503.3 4.6 Z M 505.7 8.8 C 505.6 7.1 504.6 6.2 503.3 6.2 C 501.8 6.2 500.6 7.1 500.3 8.8 C 500.3 8.8 505.7 8.8 505.7 8.8 Z M 515.7 7 C 515.7 6.7 515.5 6.5 515.2 6.5 C 515.21 6.54 514.4 6.5 514.4 6.5 L 514.4 4.9 C 514.4 4.9 516.25 4.88 516.3 4.9 C 517.1 4.9 517.5 5.3 517.5 6 C 517.5 6 517.5 6.4 517.5 6.4 C 517.53 6.7 517.5 7 517.5 7 C 517.5 7 517.53 6.96 517.5 7 C 517.9 6.1 519.1 4.6 521.3 4.6 C 523.7 4.6 524.8 5.9 524.8 8.5 C 524.8 8.5 524.8 12.9 524.8 12.9 C 524.8 13.2 525 13.3 525.3 13.3 C 525.25 13.34 526.1 13.3 526.1 13.3 L 526.1 15 C 526.1 15 524.15 15 524.2 15 C 523.3 15 522.9 14.6 522.9 13.7 C 522.9 13.7 522.9 9 522.9 9 C 522.9 7.5 522.6 6.4 521 6.4 C 519.4 6.4 518.2 7.4 517.8 8.9 C 517.6 9.3 517.6 9.8 517.6 10.3 C 517.59 10.26 517.6 15 517.6 15 L 515.7 15 C 515.7 15 515.65 6.98 515.7 7 Z M 532.6 4.6 C 535.7 4.6 538.1 6.9 538.1 9.9 C 538.1 13 535.7 15.2 532.6 15.2 C 529.6 15.2 527.2 13 527.2 9.9 C 527.2 6.9 529.6 4.6 532.6 4.6 Z M 532.6 13.6 C 534.6 13.6 536.1 12 536.1 9.9 C 536.1 7.8 534.6 6.3 532.6 6.3 C 530.7 6.3 529.2 7.8 529.2 9.9 C 529.2 12 530.7 13.6 532.6 13.6 Z M 540.5 7 C 540.5 6.7 540.4 6.5 540.1 6.5 C 540.07 6.54 539.3 6.5 539.3 6.5 L 539.3 4.9 C 539.3 4.9 541.09 4.88 541.1 4.9 C 542 4.9 542.4 5.2 542.4 6.1 C 542.4 6.1 542.4 6.7 542.4 6.7 C 542.39 7.1 542.4 7.4 542.4 7.4 C 542.4 7.4 542.39 7.4 542.4 7.4 C 542.9 5.9 544 4.8 545.6 4.8 C 545.85 4.76 546.1 4.8 546.1 4.8 L 546.1 6.7 C 546.1 6.7 545.85 6.66 545.5 6.7 C 544.3 6.7 543.2 7.5 542.7 9 C 542.5 9.6 542.5 10.2 542.5 10.9 C 542.45 10.86 542.5 15 542.5 15 L 540.5 15 C 540.5 15 540.51 6.98 540.5 7 Z M 548.4 7 C 548.4 6.7 548.2 6.5 548 6.5 C 547.95 6.54 547.1 6.5 547.1 6.5 L 547.1 4.9 C 547.1 4.9 548.99 4.88 549 4.9 C 549.9 4.9 550.3 5.3 550.3 6 C 550.3 6 550.3 6.4 550.3 6.4 C 550.27 6.7 550.3 7 550.3 7 C 550.3 7 550.29 6.96 550.3 7 C 550.8 5.8 552.2 4.6 553.8 4.6 C 555.5 4.6 556.5 5.4 556.8 6.9 C 556.8 6.9 556.8 6.9 556.8 6.9 C 557.4 5.7 558.8 4.6 560.4 4.6 C 562.7 4.6 563.8 5.9 563.8 8.5 C 563.8 8.5 563.8 12.9 563.8 12.9 C 563.8 13.2 563.9 13.3 564.2 13.3 C 564.21 13.34 565 13.3 565 13.3 L 565 15 C 565 15 563.11 15 563.1 15 C 562.2 15 561.8 14.6 561.8 13.7 C 561.8 13.7 561.8 8.9 561.8 8.9 C 561.8 7.5 561.6 6.4 560.1 6.4 C 558.7 6.4 557.6 7.6 557.2 9 C 557.1 9.4 557.1 9.9 557.1 10.4 C 557.05 10.38 557.1 15 557.1 15 L 555.1 15 C 555.1 15 555.11 8.94 555.1 8.9 C 555.1 7.6 554.9 6.4 553.4 6.4 C 551.9 6.4 550.9 7.6 550.5 9.1 C 550.4 9.5 550.3 9.9 550.3 10.4 C 550.33 10.38 550.3 15 550.3 15 L 548.4 15 C 548.4 15 548.39 6.98 548.4 7 Z M 572.3 8.7 C 572.27 8.7 572.7 8.7 572.7 8.7 C 572.7 8.7 572.71 8.6 572.7 8.6 C 572.7 6.8 572.1 6.2 570.5 6.2 C 570 6.2 568.8 6.3 568.8 7 C 568.81 6.96 568.8 7.5 568.8 7.5 L 567 7.5 C 567 7.5 566.99 6.54 567 6.5 C 567 4.9 569.5 4.6 570.5 4.6 C 573.8 4.6 574.7 6.4 574.7 8.6 C 574.7 8.6 574.7 12.9 574.7 12.9 C 574.7 13.2 574.8 13.3 575.1 13.3 C 575.09 13.34 575.9 13.3 575.9 13.3 L 575.9 15 C 575.9 15 574.09 15 574.1 15 C 573.2 15 572.8 14.6 572.8 13.8 C 572.83 13.5 572.9 13.2 572.9 13.2 L 572.8 13.2 C 572.8 13.2 572.03 15.24 569.6 15.2 C 567.9 15.2 566.2 14.2 566.2 12.2 C 566.2 8.9 570.6 8.7 572.3 8.7 Z M 570 13.7 C 571.7 13.7 572.7 12 572.7 10.5 C 572.73 10.46 572.7 10.1 572.7 10.1 C 572.7 10.1 572.23 10.12 572.2 10.1 C 570.8 10.1 568.1 10.2 568.1 12.1 C 568.1 12.9 568.8 13.7 570 13.7 Z M 571.4 0.9 L 573.4 0.9 L 571.5 3.4 L 570 3.4 L 571.4 0.9 Z M 578 3 C 578 2.7 577.8 2.5 577.5 2.5 C 577.53 2.54 576.7 2.5 576.7 2.5 L 576.7 0.9 C 576.7 0.9 578.63 0.88 578.6 0.9 C 579.5 0.9 579.9 1.3 579.9 2.2 C 579.9 2.2 579.9 12.9 579.9 12.9 C 579.9 13.2 580.1 13.3 580.4 13.3 C 580.35 13.34 581.2 13.3 581.2 13.3 L 581.2 15 C 581.2 15 579.25 15 579.3 15 C 578.4 15 578 14.6 578 13.7 C 578 13.7 578 3 578 3 Z M 583.4 7 C 583.4 6.7 583.2 6.5 582.9 6.5 C 582.93 6.54 582.1 6.5 582.1 6.5 L 582.1 4.9 C 582.1 4.9 583.97 4.88 584 4.9 C 584.8 4.9 585.3 5.3 585.3 6 C 585.3 6 585.3 6.4 585.3 6.4 C 585.25 6.7 585.2 7 585.2 7 C 585.2 7 585.25 6.96 585.3 7 C 585.7 6.1 586.9 4.6 589.1 4.6 C 591.5 4.6 592.5 5.9 592.5 8.5 C 592.5 8.5 592.5 12.9 592.5 12.9 C 592.5 13.2 592.7 13.3 593 13.3 C 592.97 13.34 593.8 13.3 593.8 13.3 L 593.8 15 C 593.8 15 591.87 15 591.9 15 C 591 15 590.6 14.6 590.6 13.7 C 590.6 13.7 590.6 9 590.6 9 C 590.6 7.5 590.3 6.4 588.7 6.4 C 587.1 6.4 585.9 7.4 585.5 8.9 C 585.4 9.3 585.3 9.8 585.3 10.3 C 585.31 10.26 585.3 15 585.3 15 L 583.4 15 C 583.4 15 583.37 6.98 583.4 7 Z M 600 4.6 C 602.8 4.6 604.4 6.8 604.4 9.4 C 604.35 9.64 604.3 10.2 604.3 10.2 C 604.3 10.2 596.91 10.18 596.9 10.2 C 597 12.3 598.6 13.6 600.4 13.6 C 602.13 13.56 603.4 12.4 603.4 12.4 L 604.2 13.8 C 604.2 13.8 602.69 15.24 600.3 15.2 C 597.1 15.2 594.9 12.9 594.9 9.9 C 594.9 6.7 597.1 4.6 600 4.6 Z M 602.4 8.8 C 602.3 7.1 601.2 6.2 600 6.2 C 598.5 6.2 597.3 7.1 597 8.8 C 597 8.8 602.4 8.8 602.4 8.8 Z M 617.5 8.7 C 617.45 8.7 617.9 8.7 617.9 8.7 C 617.9 8.7 617.89 8.6 617.9 8.6 C 617.9 6.8 617.2 6.2 615.7 6.2 C 615.2 6.2 614 6.3 614 7 C 613.99 6.96 614 7.5 614 7.5 L 612.2 7.5 C 612.2 7.5 612.17 6.54 612.2 6.5 C 612.2 4.9 614.7 4.6 615.7 4.6 C 619 4.6 619.8 6.4 619.8 8.6 C 619.8 8.6 619.8 12.9 619.8 12.9 C 619.8 13.2 620 13.3 620.3 13.3 C 620.27 13.34 621.1 13.3 621.1 13.3 L 621.1 15 C 621.1 15 619.27 15 619.3 15 C 618.4 15 618 14.6 618 13.8 C 618.01 13.5 618.1 13.2 618.1 13.2 L 618 13.2 C 618 13.2 617.21 15.24 614.8 15.2 C 613.1 15.2 611.4 14.2 611.4 12.2 C 611.4 8.9 615.8 8.7 617.5 8.7 Z M 615.2 13.7 C 616.9 13.7 617.9 12 617.9 10.5 C 617.91 10.46 617.9 10.1 617.9 10.1 C 617.9 10.1 617.41 10.12 617.4 10.1 C 616 10.1 613.3 10.2 613.3 12.1 C 613.3 12.9 613.9 13.7 615.2 13.7 Z M 623.7 0.9 L 625.5 0.9 L 625.5 2.9 L 623.7 2.9 L 623.7 0.9 Z M 621.5 17.4 C 622.3 17.4 623.7 17.2 623.7 15.2 C 623.7 15.2 623.7 7 623.7 7 C 623.7 6.7 623.5 6.5 623.3 6.5 C 623.25 6.54 622.4 6.5 622.4 6.5 L 622.4 4.9 C 622.4 4.9 624.35 4.88 624.4 4.9 C 625.3 4.9 625.6 5.3 625.6 6.2 C 625.6 6.2 625.6 15.3 625.6 15.3 C 625.6 18.7 623 19.1 621.8 19.1 C 621.35 19.12 621.1 19.1 621.1 19.1 L 621.1 17.4 C 621.1 17.4 621.27 17.44 621.5 17.4 Z M 634.3 7 C 634.3 6.7 634.1 6.5 633.9 6.5 C 633.85 6.54 633 6.5 633 6.5 L 633 4.9 C 633 4.9 634.89 4.88 634.9 4.9 C 635.8 4.9 636.2 5.3 636.2 6 C 636.2 6 636.2 6.4 636.2 6.4 C 636.17 6.7 636.1 7 636.1 7 C 636.1 7 636.17 6.96 636.2 7 C 636.6 6.1 637.8 4.6 640 4.6 C 642.4 4.6 643.5 5.9 643.5 8.5 C 643.5 8.5 643.5 12.9 643.5 12.9 C 643.5 13.2 643.6 13.3 643.9 13.3 C 643.89 13.34 644.7 13.3 644.7 13.3 L 644.7 15 C 644.7 15 642.79 15 642.8 15 C 641.9 15 641.5 14.6 641.5 13.7 C 641.5 13.7 641.5 9 641.5 9 C 641.5 7.5 641.2 6.4 639.6 6.4 C 638.1 6.4 636.8 7.4 636.4 8.9 C 636.3 9.3 636.2 9.8 636.2 10.3 C 636.23 10.26 636.2 15 636.2 15 L 634.3 15 C 634.3 15 634.29 6.98 634.3 7 Z M 652 8.7 C 651.95 8.7 652.4 8.7 652.4 8.7 C 652.4 8.7 652.39 8.6 652.4 8.6 C 652.4 6.8 651.7 6.2 650.2 6.2 C 649.7 6.2 648.5 6.3 648.5 7 C 648.49 6.96 648.5 7.5 648.5 7.5 L 646.7 7.5 C 646.7 7.5 646.67 6.54 646.7 6.5 C 646.7 4.9 649.2 4.6 650.2 4.6 C 653.5 4.6 654.3 6.4 654.3 8.6 C 654.3 8.6 654.3 12.9 654.3 12.9 C 654.3 13.2 654.5 13.3 654.8 13.3 C 654.77 13.34 655.6 13.3 655.6 13.3 L 655.6 15 C 655.6 15 653.77 15 653.8 15 C 652.9 15 652.5 14.6 652.5 13.8 C 652.51 13.5 652.6 13.2 652.6 13.2 L 652.5 13.2 C 652.5 13.2 651.71 15.24 649.3 15.2 C 647.6 15.2 645.9 14.2 645.9 12.2 C 645.9 8.9 650.3 8.7 652 8.7 Z M 649.7 13.7 C 651.4 13.7 652.4 12 652.4 10.5 C 652.41 10.46 652.4 10.1 652.4 10.1 C 652.4 10.1 651.91 10.12 651.9 10.1 C 650.5 10.1 647.8 10.2 647.8 12.1 C 647.8 12.9 648.4 13.7 649.7 13.7 Z M 651.1 0.9 L 653.1 0.9 L 651.2 3.4 L 649.6 3.4 L 651.1 0.9 Z M 661.3 4.6 C 663.65 4.64 664.4 6.2 664.4 6.2 L 664.5 6.2 C 664.5 6.2 664.43 5.9 664.4 5.5 C 664.4 5.5 664.4 3 664.4 3 C 664.4 2.7 664.3 2.5 664 2.5 C 663.99 2.54 663.2 2.5 663.2 2.5 L 663.2 0.9 C 663.2 0.9 665.09 0.88 665.1 0.9 C 666 0.9 666.4 1.3 666.4 2.2 C 666.4 2.2 666.4 12.9 666.4 12.9 C 666.4 13.2 666.5 13.3 666.8 13.3 C 666.81 13.34 667.6 13.3 667.6 13.3 L 667.6 15 C 667.6 15 665.77 15 665.8 15 C 664.9 15 664.5 14.6 664.5 13.9 C 664.53 13.62 664.5 13.4 664.5 13.4 L 664.5 13.4 C 664.5 13.4 663.67 15.24 661.2 15.2 C 658.5 15.2 656.7 13.1 656.7 9.9 C 656.7 6.7 658.6 4.6 661.3 4.6 Z M 664.5 9.9 C 664.5 8.1 663.5 6.3 661.6 6.3 C 660 6.3 658.7 7.6 658.7 9.9 C 658.7 12.1 659.9 13.6 661.6 13.6 C 663.1 13.6 664.5 12.5 664.5 9.9 Z M 674.2 4.6 C 677.3 4.6 679.7 6.9 679.7 9.9 C 679.7 13 677.3 15.2 674.2 15.2 C 671.2 15.2 668.8 13 668.8 9.9 C 668.8 6.9 671.2 4.6 674.2 4.6 Z M 674.2 13.6 C 676.2 13.6 677.7 12 677.7 9.9 C 677.7 7.8 676.2 6.3 674.2 6.3 C 672.3 6.3 670.8 7.8 670.8 9.9 C 670.8 12 672.3 13.6 674.2 13.6 Z M 682.1 7 C 682.1 6.7 682 6.5 681.7 6.5 C 681.69 6.54 680.9 6.5 680.9 6.5 L 680.9 4.9 C 680.9 4.9 682.71 4.88 682.7 4.9 C 683.6 4.9 684 5.2 684 6.1 C 684 6.1 684 6.7 684 6.7 C 684.01 7.1 684 7.4 684 7.4 C 684 7.4 684.01 7.4 684 7.4 C 684.5 5.9 685.6 4.8 687.2 4.8 C 687.47 4.76 687.7 4.8 687.7 4.8 L 687.7 6.7 C 687.7 6.7 687.47 6.66 687.1 6.7 C 685.9 6.7 684.8 7.5 684.3 9 C 684.1 9.6 684.1 10.2 684.1 10.9 C 684.07 10.86 684.1 15 684.1 15 L 682.1 15 C 682.1 15 682.13 6.98 682.1 7 Z M 693.9 4.6 C 696.9 4.6 699.4 6.9 699.4 9.9 C 699.4 13 696.9 15.2 693.9 15.2 C 690.9 15.2 688.5 13 688.5 9.9 C 688.5 6.9 690.9 4.6 693.9 4.6 Z M 693.9 13.6 C 695.8 13.6 697.4 12 697.4 9.9 C 697.4 7.8 695.8 6.3 693.9 6.3 C 692 6.3 690.5 7.8 690.5 9.9 C 690.5 12 692 13.6 693.9 13.6 Z M 701 6.9 C 700.9 6.6 700.7 6.5 700.4 6.5 C 700.37 6.54 700.2 6.5 700.2 6.5 L 700.2 4.9 C 700.2 4.9 701.17 4.88 701.2 4.9 C 702.1 4.9 702.4 5.1 702.7 5.9 C 702.7 5.9 704.9 11.7 704.9 11.7 C 705.09 12.28 705.2 13 705.2 13 L 705.3 13 C 705.3 13 705.45 12.28 705.6 11.7 C 705.6 11.7 707.8 5.9 707.8 5.9 C 708.1 5.1 708.5 4.9 709.3 4.9 C 709.35 4.88 710.3 4.9 710.3 4.9 L 710.3 6.5 C 710.3 6.5 710.09 6.54 710.1 6.5 C 709.7 6.5 709.5 6.6 709.4 6.9 C 709.43 6.94 706.3 15 706.3 15 L 704.1 15 C 704.1 15 700.99 6.94 701 6.9 Z M 716.1 4.6 C 719 4.6 720.5 6.8 720.5 9.4 C 720.51 9.64 720.4 10.2 720.4 10.2 C 720.4 10.2 713.07 10.18 713.1 10.2 C 713.2 12.3 714.7 13.6 716.5 13.6 C 718.29 13.56 719.5 12.4 719.5 12.4 L 720.3 13.8 C 720.3 13.8 718.85 15.24 716.4 15.2 C 713.2 15.2 711.1 12.9 711.1 9.9 C 711.1 6.7 713.3 4.6 716.1 4.6 Z M 718.5 8.8 C 718.4 7.1 717.4 6.2 716.1 6.2 C 714.6 6.2 713.4 7.1 713.1 8.8 C 713.1 8.8 718.5 8.8 718.5 8.8 Z M 716.8 0.9 L 718.7 0.9 L 716.8 3.4 L 715.3 3.4 L 716.8 0.9 Z " stroke="none" fill="#ee3078"/>  </g></svg>