<?xml version="1.0" standalone="no"?><!DOCTYPE svg PUBLIC "-//W3C//DTD SVG 1.1//EN" "http://www.w3.org/Graphics/SVG/1.1/DTD/svg11.dtd"><svg xmlns="http://www.w3.org/2000/svg" version="1.1" width="16px" height="15.5px" viewBox="0 -2 16 15.5" style="top:-2px">  <desc>60</desc>  <defs/>  <g id="Polygon73007">    <path d="M 4.5 4.4 C 4.5 2.6 5.4 0.4 7.6 0.4 C 8.34 0.35 8.9 0.6 8.9 0.6 L 8.6 1.2 C 8.6 1.2 8.16 1 7.6 1 C 6.1 1 5.4 2.5 5.2 3.9 C 5.2 3.9 5.3 3.9 5.3 3.9 C 5.6 3.3 6.3 3 7 3 C 8.3 3 9.2 4 9.2 5.3 C 9.2 6.7 8.3 7.6 7 7.6 C 5.5 7.6 4.5 6.3 4.5 4.4 Z M 7 7 C 8 7 8.5 6.3 8.5 5.3 C 8.5 4.3 7.9 3.7 6.9 3.7 C 6 3.7 5.2 4.3 5.2 4.9 C 5.2 5.8 6 7 7 7 Z M 10.2 4 C 10.2 2 10.8 0.4 12.6 0.4 C 14.4 0.4 15 2 15 4 C 15 6 14.4 7.6 12.6 7.6 C 10.8 7.6 10.2 6 10.2 4 Z M 14.3 4 C 14.3 2.3 13.9 1 12.6 1 C 11.3 1 10.9 2.3 10.9 4 C 10.9 5.7 11.3 7 12.6 7 C 13.9 7 14.3 5.7 14.3 4 Z " stroke="none" fill="#000"/>  </g></svg>