<?xml version="1.0" standalone="no"?><!DOCTYPE svg PUBLIC "-//W3C//DTD SVG 1.1//EN" "http://www.w3.org/Graphics/SVG/1.1/DTD/svg11.dtd"><svg xmlns="http://www.w3.org/2000/svg" version="1.1" width="49.3px" height="19px" viewBox="0 -3 49.3 19" style="top:-3px">  <desc>219,0 %</desc>  <defs/>  <g id="Polygon75841">    <path d="M 8.6 2.8 C 8.6 2.1 8 1.5 7.1 1.5 C 6.4 1.5 5.8 1.9 5.8 2.3 C 5.8 2.29 5.8 2.7 5.8 2.7 L 4.7 2.7 C 4.7 2.7 4.7 1.94 4.7 1.9 C 4.7 0.8 6.2 0.4 7.2 0.4 C 8.7 0.4 9.8 1.4 9.8 2.8 C 9.8 5.7 5.5 5.8 5.5 7.7 C 5.5 7.9 5.6 8 5.8 8 C 5.8 8 8.8 8 8.8 8 C 9 8 9.1 7.9 9.1 7.7 C 9.11 7.7 9.1 7.2 9.1 7.2 L 10.2 7.2 C 10.2 7.2 10.21 8.23 10.2 8.2 C 10.2 8.8 10 9 9.4 9 C 9.4 9 5.1 9 5.1 9 C 4.4 9 4.3 8.7 4.3 8 C 4.3 4.9 8.6 5.1 8.6 2.8 Z M 11.5 8 L 13.3 8 C 13.3 8 13.34 2.5 13.3 2.5 C 13.34 2.23 13.4 2 13.4 2 L 13.3 2 C 13.3 2 13.23 2.16 12.9 2.5 C 12.93 2.46 12.1 3.2 12.1 3.2 L 11.4 2.5 L 13.4 0.5 L 14.5 0.5 L 14.5 8 L 16.4 8 L 16.4 9 L 11.5 9 L 11.5 8 Z M 17.9 7.8 C 17.9 7.8 18.43 8.05 19.1 8.1 C 20.6 8.1 21.5 6.6 21.6 5.1 C 21.6 5.1 21.6 5.1 21.6 5.1 C 21.3 5.7 20.5 6 19.7 6 C 18.1 6 17.1 4.8 17.1 3.2 C 17.1 1.5 18.2 0.4 19.8 0.4 C 21.6 0.4 23 1.9 23 4.3 C 23 6.5 21.8 9.1 19.1 9.1 C 18.14 9.14 17.5 8.8 17.5 8.8 L 17.9 7.8 Z M 21.7 3.8 C 21.7 2.7 20.9 1.5 19.8 1.5 C 18.8 1.5 18.2 2.2 18.2 3.2 C 18.2 4.2 18.9 5 20 5 C 20.9 5 21.7 4.4 21.7 3.8 Z M 25.1 7.7 L 24.1 10.2 L 23.2 10.2 L 23.9 7.7 L 25.1 7.7 Z M 26.2 4.8 C 26.2 2.3 27 0.4 29.2 0.4 C 31.5 0.4 32.2 2.3 32.2 4.8 C 32.2 7.2 31.5 9.1 29.2 9.1 C 27 9.1 26.2 7.2 26.2 4.8 Z M 31 4.8 C 31 2.9 30.6 1.5 29.2 1.5 C 27.8 1.5 27.4 2.9 27.4 4.8 C 27.4 6.6 27.8 8.1 29.2 8.1 C 30.6 8.1 31 6.6 31 4.8 Z M 36.8 2.2 C 36.8 1.2 37.6 0.4 38.6 0.4 C 39.6 0.4 40.4 1.2 40.4 2.2 C 40.4 3.1 39.6 3.9 38.6 3.9 C 37.6 3.9 36.8 3.1 36.8 2.2 Z M 43.5 0.5 L 44.6 0.5 L 38.1 9 L 37 9 L 43.5 0.5 Z M 39.5 2.2 C 39.5 1.7 39.1 1.3 38.6 1.3 C 38.1 1.3 37.7 1.7 37.7 2.2 C 37.7 2.7 38.1 3 38.6 3 C 39.1 3 39.5 2.7 39.5 2.2 Z M 43 5.6 C 44 5.6 44.8 6.4 44.8 7.4 C 44.8 8.4 44 9.1 43 9.1 C 41.9 9.1 41.1 8.4 41.1 7.4 C 41.1 6.4 41.9 5.6 43 5.6 Z M 42.1 7.4 C 42.1 7.9 42.5 8.3 43 8.3 C 43.5 8.3 43.9 7.9 43.9 7.4 C 43.9 6.9 43.5 6.5 43 6.5 C 42.5 6.5 42.1 6.9 42.1 7.4 C 42.1 7.4 42.1 7.4 42.1 7.4 Z " stroke="none" fill="#000"/>  </g></svg>