<?xml version="1.0" standalone="no"?><!DOCTYPE svg PUBLIC "-//W3C//DTD SVG 1.1//EN" "http://www.w3.org/Graphics/SVG/1.1/DTD/svg11.dtd"><svg xmlns="http://www.w3.org/2000/svg" version="1.1" width="162px" height="43.5px" viewBox="0 -5 162 43.5" style="top:-5px">  <desc>NEST</desc>  <defs/>  <g id="Polygon66668">    <path d="M 1.3 20.6 C 1.3 20.6 2.55 20.64 2.5 20.6 C 3 20.6 3.2 20.4 3.2 20 C 3.21 19.98 3.2 1.4 3.2 1.4 L 5.1 1.4 C 5.1 1.4 15.9 16.44 15.9 16.4 C 16.62 17.49 17.6 19.2 17.6 19.2 L 17.7 19.2 C 17.7 19.2 17.52 17.55 17.5 16.4 C 17.5 16.4 17.5 3.2 17.5 3.2 C 17.5 2 18.1 1.4 19.4 1.4 C 19.35 1.41 21.6 1.4 21.6 1.4 L 21.6 3.3 C 21.6 3.3 20.28 3.27 20.3 3.3 C 19.9 3.3 19.6 3.5 19.6 3.9 C 19.62 3.93 19.6 22.5 19.6 22.5 L 17.7 22.5 C 17.7 22.5 6.93 7.47 6.9 7.5 C 6.18 6.45 5.2 4.7 5.2 4.7 L 5.1 4.7 C 5.1 4.7 5.31 6.36 5.3 7.5 C 5.3 7.5 5.3 20.7 5.3 20.7 C 5.3 22 4.8 22.5 3.5 22.5 C 3.48 22.5 1.3 22.5 1.3 22.5 L 1.3 20.6 Z M 26 3.3 L 24.1 3.3 L 24.1 1.4 C 24.1 1.4 36.12 1.41 36.1 1.4 C 37.4 1.4 37.9 2 37.9 3.2 C 37.95 3.24 37.9 5.3 37.9 5.3 L 36 5.3 C 36 5.3 35.97 3.93 36 3.9 C 36 3.5 35.7 3.3 35.3 3.3 C 35.31 3.27 28.1 3.3 28.1 3.3 L 28.1 10.9 L 36 10.9 L 36 12.8 L 28.1 12.8 C 28.1 12.8 28.11 19.98 28.1 20 C 28.1 20.4 28.3 20.6 28.8 20.6 C 28.8 20.6 36.2 20.6 36.2 20.6 C 36.6 20.6 36.8 20.4 36.8 20 C 36.84 19.98 36.8 18.6 36.8 18.6 L 38.8 18.6 C 38.8 18.6 38.79 20.67 38.8 20.7 C 38.8 22 38.2 22.5 37 22.5 C 37 22.5 27.8 22.5 27.8 22.5 C 26.5 22.5 26 22 26 20.7 C 26.01 20.67 26 3.3 26 3.3 Z M 41.9 18.3 C 41.9 18.3 44.07 20.91 47.4 20.9 C 49.7 20.9 51.6 19.4 51.6 17.2 C 51.6 11.9 41.2 13 41.2 6.5 C 41.2 3.5 43.7 1.1 47.6 1.1 C 49.6 1.1 53.3 1.9 53.3 4.7 C 53.31 4.68 53.3 6.2 53.3 6.2 L 51.3 6.2 C 51.3 6.2 51.33 5.19 51.3 5.2 C 51.3 3.9 49.6 3 47.6 3 C 44.9 3 43.3 4.6 43.3 6.4 C 43.3 11.3 53.7 10.1 53.7 17 C 53.7 20.2 51.3 22.9 47.3 22.9 C 43.02 22.86 40.6 19.9 40.6 19.9 L 41.9 18.3 Z M 63.3 3.3 C 63.3 3.3 58.11 3.27 58.1 3.3 C 57.7 3.3 57.4 3.5 57.4 3.9 C 57.45 3.93 57.4 5.3 57.4 5.3 L 55.5 5.3 C 55.5 5.3 55.53 3.12 55.5 3.1 C 55.5 1.8 55.9 1.4 57.2 1.4 C 57.2 1.4 71.5 1.4 71.5 1.4 C 72.8 1.4 73.2 1.8 73.2 3.1 C 73.23 3.12 73.2 5.3 73.2 5.3 L 71.3 5.3 C 71.3 5.3 71.28 3.93 71.3 3.9 C 71.3 3.5 71.1 3.3 70.6 3.3 C 70.62 3.27 65.4 3.3 65.4 3.3 L 65.4 22.5 L 63.3 22.5 L 63.3 3.3 Z " stroke="none" fill="#ee3078"/>  </g></svg>