<?xml version="1.0" standalone="no"?><!DOCTYPE svg PUBLIC "-//W3C//DTD SVG 1.1//EN" "http://www.w3.org/Graphics/SVG/1.1/DTD/svg11.dtd"><svg xmlns="http://www.w3.org/2000/svg" version="1.1" width="137px" height="43.5px" viewBox="0 -5 137 43.5" style="top:-5px">  <desc>etrnos</desc>  <defs/>  <g id="Polygon70930">    <path d="M 2.4 18.3 C 2.4 18.3 4.53 20.91 7.9 20.9 C 10.2 20.9 12 19.4 12 17.2 C 12 11.9 1.6 13 1.6 6.5 C 1.6 3.5 4.2 1.1 8.1 1.1 C 10.1 1.1 13.8 1.9 13.8 4.7 C 13.77 4.68 13.8 6.2 13.8 6.2 L 11.8 6.2 C 11.8 6.2 11.79 5.19 11.8 5.2 C 11.8 3.9 10.1 3 8.1 3 C 5.4 3 3.8 4.6 3.8 6.4 C 3.8 11.3 14.2 10.1 14.2 17 C 14.2 20.2 11.8 22.9 7.8 22.9 C 3.48 22.86 1.1 19.9 1.1 19.9 L 2.4 18.3 Z M 4.4 -3.6 L 6.3 -3.6 L 7.9 -1.2 L 8 -1.2 L 9.6 -3.6 L 11.5 -3.6 L 9 -0.1 L 6.9 -0.1 L 4.4 -3.6 Z M 24.3 7.1 C 28.5 7.1 30.7 10.3 30.7 14 C 30.66 14.37 30.6 15 30.6 15 C 30.6 15 19.02 15.03 19 15 C 19.1 18.8 21.7 21 24.9 21 C 27.63 21.03 29.4 19.2 29.4 19.2 L 30.4 20.7 C 30.4 20.7 28.2 22.86 24.8 22.9 C 20.3 22.9 16.9 19.6 16.9 15 C 16.9 10 20.3 7.1 24.3 7.1 Z M 28.6 13.4 C 28.4 10.3 26.5 8.8 24.3 8.8 C 21.8 8.8 19.6 10.4 19.1 13.4 C 19.1 13.4 28.6 13.4 28.6 13.4 Z M 34.9 9.1 L 32.9 9.1 L 32.9 7.4 L 34.9 7.4 L 34.9 3.2 L 37 3.2 L 37 7.4 L 40.7 7.4 L 40.7 9.1 L 37 9.1 C 37 9.1 36.96 16.8 37 16.8 C 37 20.3 39.2 20.8 40.3 20.8 C 40.77 20.79 41 20.7 41 20.7 L 41 22.6 C 41 22.6 40.68 22.62 40.2 22.6 C 38.4 22.6 34.9 22.1 34.9 17 C 34.92 17.01 34.9 9.1 34.9 9.1 Z M 44.8 9.8 C 44.8 9.4 44.5 9.2 44.1 9.2 C 44.13 9.18 42.9 9.2 42.9 9.2 L 42.9 7.4 C 42.9 7.4 44.97 7.41 45 7.4 C 46.2 7.4 46.8 7.9 46.8 9.1 C 46.8 9.1 46.8 10.1 46.8 10.1 C 46.8 10.77 46.7 11.3 46.7 11.3 C 46.7 11.3 46.8 11.28 46.8 11.3 C 47.5 9 49.2 7.3 51.6 7.3 C 51.99 7.26 52.4 7.4 52.4 7.4 L 52.4 9.4 C 52.4 9.4 52.02 9.3 51.6 9.3 C 49.5 9.3 47.9 11 47.2 13.2 C 46.9 14.2 46.8 15.2 46.8 16.1 C 46.83 16.14 46.8 22.5 46.8 22.5 L 44.8 22.5 C 44.8 22.5 44.79 9.84 44.8 9.8 Z M 55.9 9.8 C 55.9 9.4 55.6 9.2 55.2 9.2 C 55.2 9.18 53.9 9.2 53.9 9.2 L 53.9 7.4 C 53.9 7.4 56.04 7.41 56 7.4 C 57.3 7.4 57.9 8 57.9 9.1 C 57.9 9.1 57.9 9.8 57.9 9.8 C 57.87 10.38 57.8 10.9 57.8 10.9 C 57.8 10.9 57.87 10.86 57.9 10.9 C 58.4 9.5 60.3 7.1 63.9 7.1 C 67.6 7.1 68.9 9.2 68.9 12.9 C 68.9 12.9 68.9 20.1 68.9 20.1 C 68.9 20.5 69.2 20.7 69.6 20.7 C 69.6 20.73 70.9 20.7 70.9 20.7 L 70.9 22.5 C 70.9 22.5 68.73 22.5 68.7 22.5 C 67.4 22.5 66.9 22 66.9 20.7 C 66.9 20.7 66.9 13.4 66.9 13.4 C 66.9 11.1 66.5 9 63.6 9 C 61 9 58.8 10.7 58.1 13.2 C 58 13.9 57.9 14.6 57.9 15.3 C 57.9 15.27 57.9 22.5 57.9 22.5 L 55.9 22.5 C 55.9 22.5 55.86 9.84 55.9 9.8 Z M 80.6 7.1 C 85 7.1 88.6 10.4 88.6 14.9 C 88.6 19.4 85 22.9 80.7 22.9 C 76.3 22.9 72.7 19.4 72.7 14.9 C 72.7 10.4 76.3 7.1 80.6 7.1 Z M 80.7 21 C 83.9 21 86.5 18.4 86.5 14.9 C 86.5 11.5 83.9 8.9 80.7 8.9 C 77.4 8.9 74.8 11.5 74.8 14.9 C 74.8 18.4 77.4 21 80.7 21 Z M 91.9 18.8 C 91.9 18.8 93.54 21.09 96.5 21.1 C 98.2 21.1 99.7 20.3 99.7 18.7 C 99.7 15.4 91.2 16 91.2 11.1 C 91.2 8.4 93.6 7.1 96.6 7.1 C 98.1 7.1 101.2 7.7 101.2 9.8 C 101.19 9.78 101.2 11.1 101.2 11.1 L 99.3 11.1 C 99.3 11.1 99.27 10.35 99.3 10.4 C 99.3 9.2 97.6 8.8 96.7 8.8 C 94.6 8.8 93.3 9.5 93.3 11 C 93.3 14.4 101.8 13.6 101.8 18.6 C 101.8 21.1 99.5 22.9 96.5 22.9 C 92.55 22.86 90.7 20.2 90.7 20.2 L 91.9 18.8 Z M 105.8 9.1 L 103.9 9.1 L 103.9 7.4 L 105.9 7.4 L 105.9 3.2 L 107.9 3.2 L 107.9 7.4 L 111.7 7.4 L 111.7 9.1 L 107.9 9.1 C 107.9 9.1 107.88 16.8 107.9 16.8 C 107.9 20.3 110.1 20.8 111.3 20.8 C 111.69 20.79 112 20.7 112 20.7 L 112 22.6 C 112 22.6 111.6 22.62 111.1 22.6 C 109.3 22.6 105.8 22.1 105.8 17 C 105.84 17.01 105.8 9.1 105.8 9.1 Z M 111.8 1.4 C 111.9 1.9 112 2.4 112 2.9 C 112 3.8 111.7 4.5 111.3 5.5 C 111.3 5.5 109.7 5.5 109.7 5.5 C 110 4.6 110.2 3.9 110.2 3.1 C 110.2 2.6 110.2 2 109.9 1.4 C 109.9 1.4 111.8 1.4 111.8 1.4 Z " stroke="none" fill="#ee3078"/>  </g></svg>