<?xml version="1.0" standalone="no"?><!DOCTYPE svg PUBLIC "-//W3C//DTD SVG 1.1//EN" "http://www.w3.org/Graphics/SVG/1.1/DTD/svg11.dtd"><svg xmlns="http://www.w3.org/2000/svg" version="1.1" width="367.1px" height="21px" viewBox="0 -3 367.1 21" style="top:-3px">  <desc>Neantikoncep n v hody – spokojnos s u van m Drovelisu</desc>  <defs/>  <g id="Polygon71916">    <path d="M 0.4 7.7 C 0.4 7.7 0.92 7.67 0.9 7.7 C 1.1 7.7 1.2 7.6 1.2 7.4 C 1.19 7.4 1.2 0.5 1.2 0.5 L 2.6 0.5 C 2.6 0.5 5.83 5.2 5.8 5.2 C 6.17 5.69 6.5 6.4 6.5 6.4 L 6.6 6.4 C 6.6 6.4 6.48 5.69 6.5 5.2 C 6.5 5.2 6.5 1.3 6.5 1.3 C 6.5 0.7 6.7 0.5 7.3 0.5 C 7.3 0.48 8.8 0.5 8.8 0.5 L 8.8 1.8 C 8.8 1.8 8.32 1.81 8.3 1.8 C 8.1 1.8 8.1 1.9 8.1 2.1 C 8.05 2.08 8.1 9 8.1 9 L 6.6 9 C 6.6 9 3.41 4.3 3.4 4.3 C 3.07 3.82 2.7 3.1 2.7 3.1 L 2.7 3.1 C 2.7 3.1 2.76 3.8 2.8 4.3 C 2.8 4.3 2.8 8.2 2.8 8.2 C 2.8 8.8 2.5 9 1.9 9 C 1.94 9 0.4 9 0.4 9 L 0.4 7.7 Z M 12.7 2.7 C 14.4 2.7 15.4 4 15.4 5.6 C 15.38 5.82 15.3 6.2 15.3 6.2 C 15.3 6.2 11.12 6.2 11.1 6.2 C 11.2 7.3 12 7.8 13 7.8 C 13.94 7.85 14.7 7.2 14.7 7.2 L 15.3 8.2 C 15.3 8.2 14.38 9.14 12.9 9.1 C 10.8 9.1 9.6 7.7 9.6 5.9 C 9.6 4.1 10.8 2.7 12.7 2.7 Z M 13.8 5.1 C 13.8 4.4 13.3 3.9 12.7 3.9 C 11.9 3.9 11.3 4.4 11.2 5.1 C 11.2 5.1 13.8 5.1 13.8 5.1 Z M 19.9 5.2 C 19.9 5.16 20.1 5.2 20.1 5.2 C 20.1 5.2 20.09 5.11 20.1 5.1 C 20.1 4.2 19.7 3.9 19 3.9 C 18.7 3.9 18.1 4 18.1 4.3 C 18.14 4.32 18.1 4.6 18.1 4.6 L 16.7 4.6 C 16.7 4.6 16.73 4 16.7 4 C 16.7 2.9 18.3 2.7 19 2.7 C 21 2.7 21.6 3.8 21.6 5.2 C 21.6 5.2 21.6 7.5 21.6 7.5 C 21.6 7.6 21.7 7.7 21.9 7.7 C 21.88 7.72 22.4 7.7 22.4 7.7 L 22.4 9 C 22.4 9 20.99 9 21 9 C 20.4 9 20.2 8.7 20.2 8.3 C 20.2 8.2 20.2 8.1 20.2 8.1 C 20.22 8.06 20.2 8.1 20.2 8.1 C 20.2 8.1 19.73 9.14 18.3 9.1 C 17.3 9.1 16.3 8.5 16.3 7.2 C 16.3 5.3 18.9 5.2 19.9 5.2 Z M 18.7 8 C 19.5 8 20.1 7.1 20.1 6.3 C 20.11 6.35 20.1 6.2 20.1 6.2 C 20.1 6.2 19.85 6.2 19.8 6.2 C 19.1 6.2 17.8 6.3 17.8 7.2 C 17.8 7.6 18.1 8 18.7 8 Z M 23.6 4.4 C 23.6 4.3 23.5 4.2 23.3 4.2 C 23.32 4.18 22.8 4.2 22.8 4.2 L 22.8 2.9 C 22.8 2.9 24.24 2.88 24.2 2.9 C 24.8 2.9 25 3.1 25 3.6 C 25 3.6 25 3.7 25 3.7 C 25 3.9 25 4 25 4 C 25 4 25 4 25 4 C 25.3 3.5 26 2.7 27.2 2.7 C 28.6 2.7 29.3 3.4 29.3 5.1 C 29.3 5.1 29.3 7.5 29.3 7.5 C 29.3 7.6 29.4 7.7 29.6 7.7 C 29.6 7.72 30.1 7.7 30.1 7.7 L 30.1 9 C 30.1 9 28.63 9 28.6 9 C 28.1 9 27.8 8.8 27.8 8.2 C 27.8 8.2 27.8 5.4 27.8 5.4 C 27.8 4.6 27.6 4.1 26.9 4.1 C 26 4.1 25.4 4.6 25.2 5.4 C 25.1 5.6 25.1 5.9 25.1 6.2 C 25.09 6.19 25.1 9 25.1 9 L 23.6 9 C 23.6 9 23.58 4.44 23.6 4.4 Z M 31.3 4.1 L 30.5 4.1 L 30.5 2.9 L 31.4 2.9 L 31.4 1.2 L 32.8 1.2 L 32.8 2.9 L 34.2 2.9 L 34.2 4.1 L 32.8 4.1 C 32.8 4.1 32.84 6.56 32.8 6.6 C 32.8 7.6 33.6 7.7 34.1 7.7 C 34.22 7.72 34.3 7.7 34.3 7.7 L 34.3 9 C 34.3 9 34.14 9.06 33.9 9.1 C 33 9.1 31.3 8.8 31.3 6.8 C 31.32 6.76 31.3 4.1 31.3 4.1 Z M 35.9 0.5 L 37.2 0.5 L 37.2 1.9 L 35.9 1.9 L 35.9 0.5 Z M 35.8 4.4 C 35.8 4.3 35.7 4.2 35.5 4.2 C 35.52 4.18 35 4.2 35 4.2 L 35 2.9 C 35 2.9 36.49 2.88 36.5 2.9 C 37.1 2.9 37.3 3.1 37.3 3.7 C 37.3 3.7 37.3 7.5 37.3 7.5 C 37.3 7.6 37.4 7.7 37.6 7.7 C 37.56 7.72 38 7.7 38 7.7 L 38 9 C 38 9 36.59 9 36.6 9 C 36 9 35.8 8.8 35.8 8.2 C 35.8 8.2 35.8 4.4 35.8 4.4 Z M 39.3 2 C 39.3 1.9 39.2 1.8 39 1.8 C 39.01 1.78 38.5 1.8 38.5 1.8 L 38.5 0.5 C 38.5 0.5 39.98 0.48 40 0.5 C 40.5 0.5 40.8 0.6 40.8 1.2 C 40.8 1.18 40.8 5 40.8 5 C 40.8 5 41.25 5.04 41.3 5 C 41.4 5 41.7 5 41.8 4.8 C 41.83 4.81 43.1 2.9 43.1 2.9 L 44.8 2.9 C 44.8 2.9 43.22 5.18 43.2 5.2 C 42.96 5.57 42.8 5.7 42.8 5.7 L 42.8 5.7 C 42.8 5.7 42.98 5.77 43.2 6.2 C 43.2 6.2 43.9 7.5 43.9 7.5 C 44 7.7 44.1 7.7 44.4 7.7 C 44.4 7.72 44.8 7.7 44.8 7.7 L 44.8 9 C 44.8 9 43.68 9 43.7 9 C 43.2 9 43 8.9 42.7 8.5 C 42.7 8.5 41.7 6.6 41.7 6.6 C 41.6 6.3 41.3 6.3 41.1 6.3 C 41.13 6.32 40.8 6.3 40.8 6.3 L 40.8 9 L 39.3 9 C 39.3 9 39.28 2.04 39.3 2 Z M 48.6 2.7 C 50.5 2.7 52 4.1 52 5.9 C 52 7.8 50.5 9.1 48.6 9.1 C 46.7 9.1 45.3 7.8 45.3 5.9 C 45.3 4.1 46.7 2.7 48.6 2.7 Z M 48.6 7.8 C 49.6 7.8 50.4 7.1 50.4 5.9 C 50.4 4.8 49.6 4 48.6 4 C 47.6 4 46.8 4.8 46.8 5.9 C 46.8 7.1 47.6 7.8 48.6 7.8 Z M 53.3 4.4 C 53.3 4.3 53.2 4.2 53.1 4.2 C 53.08 4.18 52.6 4.2 52.6 4.2 L 52.6 2.9 C 52.6 2.9 54 2.88 54 2.9 C 54.5 2.9 54.8 3.1 54.8 3.6 C 54.8 3.6 54.8 3.7 54.8 3.7 C 54.8 3.9 54.8 4 54.8 4 C 54.8 4 54.8 4 54.8 4 C 55.1 3.5 55.7 2.7 57 2.7 C 58.3 2.7 59.1 3.4 59.1 5.1 C 59.1 5.1 59.1 7.5 59.1 7.5 C 59.1 7.6 59.2 7.7 59.4 7.7 C 59.36 7.72 59.8 7.7 59.8 7.7 L 59.8 9 C 59.8 9 58.39 9 58.4 9 C 57.8 9 57.6 8.8 57.6 8.2 C 57.6 8.2 57.6 5.4 57.6 5.4 C 57.6 4.6 57.4 4.1 56.6 4.1 C 55.8 4.1 55.2 4.6 55 5.4 C 54.9 5.6 54.9 5.9 54.9 6.2 C 54.85 6.19 54.9 9 54.9 9 L 53.3 9 C 53.3 9 53.34 4.44 53.3 4.4 Z M 63.8 2.7 C 64.6 2.7 66 3.1 66 4.1 C 66.01 4.12 66 4.8 66 4.8 L 64.7 4.8 C 64.7 4.8 64.67 4.5 64.7 4.5 C 64.7 4.2 64.2 4 63.8 4 C 62.7 4 62 4.8 62 5.9 C 62 7.2 62.9 7.8 63.9 7.8 C 64.93 7.81 65.7 7 65.7 7 L 66.3 8 C 66.3 8 65.42 9.14 63.8 9.1 C 61.7 9.1 60.4 7.7 60.4 5.9 C 60.4 4.2 61.7 2.7 63.8 2.7 Z M 70 2.7 C 71.8 2.7 72.7 4 72.7 5.6 C 72.72 5.82 72.7 6.2 72.7 6.2 C 72.7 6.2 68.46 6.2 68.5 6.2 C 68.6 7.3 69.4 7.8 70.3 7.8 C 71.28 7.85 72 7.2 72 7.2 L 72.6 8.2 C 72.6 8.2 71.71 9.14 70.2 9.1 C 68.2 9.1 66.9 7.7 66.9 5.9 C 66.9 4.1 68.2 2.7 70 2.7 Z M 71.2 5.1 C 71.1 4.4 70.6 3.9 70 3.9 C 69.2 3.9 68.7 4.4 68.5 5.1 C 68.5 5.1 71.2 5.1 71.2 5.1 Z M 74.2 4.4 C 74.2 4.3 74.1 4.2 73.9 4.2 C 73.93 4.18 73.5 4.2 73.5 4.2 L 73.5 2.9 C 73.5 2.9 74.81 2.88 74.8 2.9 C 75.4 2.9 75.6 3.1 75.6 3.5 C 75.6 3.6 75.6 3.7 75.6 3.7 C 75.57 3.71 75.6 3.7 75.6 3.7 C 75.6 3.7 76.11 2.74 77.5 2.7 C 79.2 2.7 80.3 4 80.3 5.9 C 80.3 7.9 79.1 9.1 77.5 9.1 C 76.25 9.14 75.7 8.3 75.7 8.3 L 75.7 8.3 C 75.7 8.3 75.71 8.56 75.7 8.9 C 75.71 8.87 75.7 11.4 75.7 11.4 L 74.2 11.4 C 74.2 11.4 74.2 4.44 74.2 4.4 Z M 77.2 7.9 C 78 7.9 78.7 7.2 78.7 6 C 78.7 4.8 78.1 4 77.2 4 C 76.4 4 75.7 4.6 75.7 6 C 75.7 6.9 76.2 7.9 77.2 7.9 Z M 84.4 2.7 C 85.2 2.7 86.6 3.1 86.6 4.1 C 86.6 4.12 86.6 4.8 86.6 4.8 L 85.3 4.8 C 85.3 4.8 85.26 4.5 85.3 4.5 C 85.3 4.2 84.8 4 84.4 4 C 83.3 4 82.6 4.8 82.6 5.9 C 82.6 7.2 83.5 7.8 84.5 7.8 C 85.52 7.81 86.3 7 86.3 7 L 86.9 8 C 86.9 8 86.01 9.14 84.3 9.1 C 82.3 9.1 81 7.7 81 5.9 C 81 4.2 82.3 2.7 84.4 2.7 Z M 82.4 0.5 L 83.5 0.5 L 84.1 1.5 L 84.2 1.5 L 84.8 0.5 L 85.9 0.5 L 84.8 2.1 L 83.5 2.1 L 82.4 0.5 Z M 88.1 4.4 C 88.1 4.3 88 4.2 87.8 4.2 C 87.84 4.18 87.4 4.2 87.4 4.2 L 87.4 2.9 C 87.4 2.9 88.76 2.88 88.8 2.9 C 89.3 2.9 89.6 3.1 89.6 3.6 C 89.6 3.6 89.6 3.7 89.6 3.7 C 89.6 3.9 89.5 4 89.5 4 C 89.5 4 89.6 4 89.6 4 C 89.8 3.5 90.5 2.7 91.7 2.7 C 93.1 2.7 93.9 3.4 93.9 5.1 C 93.9 5.1 93.9 7.5 93.9 7.5 C 93.9 7.6 94 7.7 94.1 7.7 C 94.13 7.72 94.6 7.7 94.6 7.7 L 94.6 9 C 94.6 9 93.15 9 93.2 9 C 92.6 9 92.3 8.8 92.3 8.2 C 92.3 8.2 92.3 5.4 92.3 5.4 C 92.3 4.6 92.1 4.1 91.4 4.1 C 90.6 4.1 90 4.6 89.7 5.4 C 89.7 5.6 89.6 5.9 89.6 6.2 C 89.61 6.19 89.6 9 89.6 9 L 88.1 9 C 88.1 9 88.1 4.44 88.1 4.4 Z M 98.3 2.7 C 100.1 2.7 101 4 101 5.6 C 101.03 5.82 101 6.2 101 6.2 C 101 6.2 96.77 6.2 96.8 6.2 C 96.9 7.3 97.7 7.8 98.6 7.8 C 99.59 7.85 100.3 7.2 100.3 7.2 L 101 8.2 C 101 8.2 100.02 9.14 98.5 9.1 C 96.5 9.1 95.2 7.7 95.2 5.9 C 95.2 4.1 96.5 2.7 98.3 2.7 Z M 99.5 5.1 C 99.4 4.4 98.9 3.9 98.3 3.9 C 97.5 3.9 97 4.4 96.8 5.1 C 96.8 5.1 99.5 5.1 99.5 5.1 Z M 98.6 0.5 L 100.1 0.5 L 98.8 2.1 L 97.7 2.1 L 98.6 0.5 Z M 105.3 4.4 C 105.2 4.2 105.1 4.2 105 4.2 C 104.96 4.18 104.8 4.2 104.8 4.2 L 104.8 2.9 C 104.8 2.9 105.71 2.88 105.7 2.9 C 106.2 2.9 106.5 3 106.6 3.5 C 106.6 3.5 107.8 6.7 107.8 6.7 C 107.89 7.03 108 7.5 108 7.5 L 108 7.5 C 108 7.5 108.11 7.03 108.2 6.7 C 108.2 6.7 109.4 3.5 109.4 3.5 C 109.5 3 109.8 2.9 110.3 2.9 C 110.28 2.88 111.1 2.9 111.1 2.9 L 111.1 4.2 C 111.1 4.2 110.95 4.18 110.9 4.2 C 110.8 4.2 110.7 4.2 110.6 4.4 C 110.61 4.39 108.9 9 108.9 9 L 107.1 9 C 107.1 9 105.3 4.39 105.3 4.4 Z M 112.7 10.2 C 113.1 10.2 113.5 10 113.7 9.5 C 113.71 9.46 113.9 9 113.9 9 C 113.9 9 111.88 4.39 111.9 4.4 C 111.8 4.2 111.7 4.2 111.6 4.2 C 111.55 4.18 111.4 4.2 111.4 4.2 L 111.4 2.9 C 111.4 2.9 112.38 2.88 112.4 2.9 C 112.8 2.9 113 3 113.2 3.5 C 113.2 3.5 114.4 6.5 114.4 6.5 C 114.5 6.83 114.6 7.3 114.6 7.3 L 114.6 7.3 C 114.6 7.3 114.72 6.83 114.8 6.5 C 114.8 6.5 115.9 3.5 115.9 3.5 C 116 3 116.3 2.9 116.7 2.9 C 116.69 2.88 117.7 2.9 117.7 2.9 L 117.7 4.2 C 117.7 4.2 117.54 4.18 117.5 4.2 C 117.4 4.2 117.3 4.2 117.2 4.4 C 117.2 4.4 115 9.9 115 9.9 C 114.6 11 113.7 11.5 112.8 11.5 C 111.83 11.52 111.2 10.9 111.2 10.9 L 111.8 9.8 C 111.8 9.8 112.2 10.24 112.7 10.2 Z M 114.9 0.5 L 116.4 0.5 L 115.1 2.1 L 114 2.1 L 114.9 0.5 Z M 118.8 2 C 118.8 1.9 118.7 1.8 118.5 1.8 C 118.55 1.78 118.1 1.8 118.1 1.8 L 118.1 0.5 C 118.1 0.5 119.52 0.48 119.5 0.5 C 120.1 0.5 120.3 0.7 120.3 1.3 C 120.3 1.3 120.3 3.4 120.3 3.4 C 120.33 3.73 120.3 3.9 120.3 3.9 C 120.3 3.9 120.33 3.95 120.3 3.9 C 120.6 3.4 121.4 2.7 122.4 2.7 C 123.8 2.7 124.6 3.4 124.6 5.1 C 124.6 5.1 124.6 7.5 124.6 7.5 C 124.6 7.6 124.7 7.7 124.8 7.7 C 124.83 7.72 125.3 7.7 125.3 7.7 L 125.3 9 C 125.3 9 123.86 9 123.9 9 C 123.3 9 123.1 8.8 123.1 8.2 C 123.1 8.2 123.1 5.4 123.1 5.4 C 123.1 4.6 122.9 4.1 122.1 4.1 C 121.3 4.1 120.7 4.7 120.4 5.4 C 120.4 5.6 120.3 5.9 120.3 6.2 C 120.33 6.19 120.3 9 120.3 9 L 118.8 9 C 118.8 9 118.81 2.04 118.8 2 Z M 129.3 2.7 C 131.1 2.7 132.6 4.1 132.6 5.9 C 132.6 7.8 131.1 9.1 129.3 9.1 C 127.4 9.1 125.9 7.8 125.9 5.9 C 125.9 4.1 127.4 2.7 129.3 2.7 Z M 129.3 7.8 C 130.3 7.8 131.1 7.1 131.1 5.9 C 131.1 4.8 130.3 4 129.3 4 C 128.3 4 127.5 4.8 127.5 5.9 C 127.5 7.1 128.3 7.8 129.3 7.8 Z M 136.2 2.7 C 137.52 2.74 138 3.5 138 3.5 L 138 3.5 C 138 3.5 137.96 3.32 138 3.1 C 138 3.1 138 2 138 2 C 138 1.9 137.9 1.8 137.7 1.8 C 137.7 1.78 137.2 1.8 137.2 1.8 L 137.2 0.5 C 137.2 0.5 138.67 0.48 138.7 0.5 C 139.2 0.5 139.5 0.7 139.5 1.3 C 139.5 1.3 139.5 7.5 139.5 7.5 C 139.5 7.6 139.6 7.7 139.7 7.7 C 139.75 7.72 140.2 7.7 140.2 7.7 L 140.2 9 C 140.2 9 138.81 9 138.8 9 C 138.3 9 138.1 8.7 138.1 8.4 C 138.1 8.2 138.1 8.1 138.1 8.1 C 138.06 8.15 138 8.1 138 8.1 C 138 8.1 137.53 9.14 136.1 9.1 C 134.5 9.1 133.4 7.8 133.4 5.9 C 133.4 4 134.6 2.7 136.2 2.7 Z M 138 5.9 C 138 5 137.5 4 136.5 4 C 135.6 4 134.9 4.7 134.9 5.9 C 134.9 7.1 135.6 7.9 136.5 7.9 C 137.3 7.9 138 7.3 138 5.9 Z M 142 10.2 C 142.4 10.2 142.8 10 143 9.5 C 142.97 9.46 143.2 9 143.2 9 C 143.2 9 141.13 4.39 141.1 4.4 C 141.1 4.2 141 4.2 140.8 4.2 C 140.81 4.18 140.6 4.2 140.6 4.2 L 140.6 2.9 C 140.6 2.9 141.63 2.88 141.6 2.9 C 142.1 2.9 142.3 3 142.4 3.5 C 142.4 3.5 143.6 6.5 143.6 6.5 C 143.76 6.83 143.9 7.3 143.9 7.3 L 143.9 7.3 C 143.9 7.3 143.97 6.83 144.1 6.5 C 144.1 6.5 145.1 3.5 145.1 3.5 C 145.3 3 145.5 2.9 145.9 2.9 C 145.94 2.88 147 2.9 147 2.9 L 147 4.2 C 147 4.2 146.79 4.18 146.8 4.2 C 146.6 4.2 146.5 4.2 146.4 4.4 C 146.4 4.4 144.3 9.9 144.3 9.9 C 143.8 11 143 11.5 142 11.5 C 141.08 11.52 140.5 10.9 140.5 10.9 L 141.1 9.8 C 141.1 9.8 141.45 10.24 142 10.2 Z M 151 5 L 157.6 5 L 157.6 6.2 L 151 6.2 L 151 5 Z M 162.5 7.1 C 162.5 7.1 163.23 7.96 164.3 8 C 164.7 8 165.1 7.8 165.1 7.4 C 165.1 6.5 161.9 6.5 161.9 4.5 C 161.9 3.3 163 2.7 164.3 2.7 C 165.1 2.7 166.4 3 166.4 4 C 166.4 4.01 166.4 4.6 166.4 4.6 L 165.1 4.6 C 165.1 4.6 165.06 4.34 165.1 4.3 C 165.1 4.1 164.6 3.9 164.3 3.9 C 163.7 3.9 163.4 4.1 163.4 4.5 C 163.4 5.4 166.6 5.2 166.6 7.3 C 166.6 8.4 165.6 9.1 164.3 9.1 C 162.6 9.14 161.7 8.1 161.7 8.1 L 162.5 7.1 Z M 168 4.4 C 168 4.3 168 4.2 167.8 4.2 C 167.78 4.18 167.3 4.2 167.3 4.2 L 167.3 2.9 C 167.3 2.9 168.66 2.88 168.7 2.9 C 169.2 2.9 169.4 3.1 169.4 3.5 C 169.4 3.6 169.4 3.7 169.4 3.7 C 169.43 3.71 169.4 3.7 169.4 3.7 C 169.4 3.7 169.97 2.74 171.4 2.7 C 173.1 2.7 174.1 4 174.1 5.9 C 174.1 7.9 172.9 9.1 171.3 9.1 C 170.1 9.14 169.6 8.3 169.6 8.3 L 169.5 8.3 C 169.5 8.3 169.56 8.56 169.6 8.9 C 169.56 8.87 169.6 11.4 169.6 11.4 L 168 11.4 C 168 11.4 168.05 4.44 168 4.4 Z M 171 7.9 C 171.9 7.9 172.6 7.2 172.6 6 C 172.6 4.8 172 4 171.1 4 C 170.3 4 169.5 4.6 169.5 6 C 169.5 6.9 170 7.9 171 7.9 Z M 178.2 2.7 C 180.1 2.7 181.6 4.1 181.6 5.9 C 181.6 7.8 180.1 9.1 178.2 9.1 C 176.4 9.1 174.9 7.8 174.9 5.9 C 174.9 4.1 176.4 2.7 178.2 2.7 Z M 178.2 7.8 C 179.2 7.8 180.1 7.1 180.1 5.9 C 180.1 4.8 179.2 4 178.2 4 C 177.2 4 176.4 4.8 176.4 5.9 C 176.4 7.1 177.2 7.8 178.2 7.8 Z M 182.8 2 C 182.8 1.9 182.7 1.8 182.6 1.8 C 182.57 1.78 182.1 1.8 182.1 1.8 L 182.1 0.5 C 182.1 0.5 183.54 0.48 183.5 0.5 C 184.1 0.5 184.4 0.6 184.4 1.2 C 184.35 1.18 184.4 5 184.4 5 C 184.4 5 184.81 5.04 184.8 5 C 185 5 185.3 5 185.4 4.8 C 185.39 4.81 186.6 2.9 186.6 2.9 L 188.3 2.9 C 188.3 2.9 186.78 5.18 186.8 5.2 C 186.51 5.57 186.3 5.7 186.3 5.7 L 186.3 5.7 C 186.3 5.7 186.54 5.77 186.8 6.2 C 186.8 6.2 187.4 7.5 187.4 7.5 C 187.5 7.7 187.7 7.7 188 7.7 C 187.95 7.72 188.4 7.7 188.4 7.7 L 188.4 9 C 188.4 9 187.23 9 187.2 9 C 186.7 9 186.5 8.9 186.3 8.5 C 186.3 8.5 185.3 6.6 185.3 6.6 C 185.1 6.3 184.9 6.3 184.7 6.3 C 184.69 6.32 184.4 6.3 184.4 6.3 L 184.4 9 L 182.8 9 C 182.8 9 182.83 2.04 182.8 2 Z M 192.2 2.7 C 194 2.7 195.5 4.1 195.5 5.9 C 195.5 7.8 194 9.1 192.2 9.1 C 190.3 9.1 188.8 7.8 188.8 5.9 C 188.8 4.1 190.3 2.7 192.2 2.7 Z M 192.2 7.8 C 193.2 7.8 194 7.1 194 5.9 C 194 4.8 193.2 4 192.2 4 C 191.2 4 190.3 4.8 190.3 5.9 C 190.3 7.1 191.2 7.8 192.2 7.8 Z M 197.2 0.5 L 198.5 0.5 L 198.5 1.9 L 197.2 1.9 L 197.2 0.5 Z M 195.9 10.2 C 196.4 10.2 197.2 10.1 197.2 9.1 C 197.2 9.1 197.2 4.4 197.2 4.4 C 197.2 4.3 197.1 4.2 196.9 4.2 C 196.89 4.18 196.4 4.2 196.4 4.2 L 196.4 2.9 C 196.4 2.9 197.87 2.88 197.9 2.9 C 198.4 2.9 198.7 3.1 198.7 3.7 C 198.7 3.7 198.7 9.2 198.7 9.2 C 198.7 11.2 197 11.5 196.1 11.5 C 195.9 11.5 195.7 11.4 195.7 11.4 C 195.67 11.45 195.7 10.2 195.7 10.2 C 195.7 10.2 195.78 10.19 195.9 10.2 Z M 200.6 4.4 C 200.6 4.3 200.5 4.2 200.3 4.2 C 200.29 4.18 199.8 4.2 199.8 4.2 L 199.8 2.9 C 199.8 2.9 201.21 2.88 201.2 2.9 C 201.8 2.9 202 3.1 202 3.6 C 202 3.6 202 3.7 202 3.7 C 202 3.9 202 4 202 4 C 202 4 202 4 202 4 C 202.3 3.5 202.9 2.7 204.2 2.7 C 205.5 2.7 206.3 3.4 206.3 5.1 C 206.3 5.1 206.3 7.5 206.3 7.5 C 206.3 7.6 206.4 7.7 206.6 7.7 C 206.58 7.72 207.1 7.7 207.1 7.7 L 207.1 9 C 207.1 9 205.61 9 205.6 9 C 205 9 204.8 8.8 204.8 8.2 C 204.8 8.2 204.8 5.4 204.8 5.4 C 204.8 4.6 204.6 4.1 203.8 4.1 C 203 4.1 202.4 4.6 202.2 5.4 C 202.1 5.6 202.1 5.9 202.1 6.2 C 202.06 6.19 202.1 9 202.1 9 L 200.6 9 C 200.6 9 200.55 4.44 200.6 4.4 Z M 211 2.7 C 212.9 2.7 214.4 4.1 214.4 5.9 C 214.4 7.8 212.9 9.1 211 9.1 C 209.1 9.1 207.7 7.8 207.7 5.9 C 207.7 4.1 209.1 2.7 211 2.7 Z M 211 7.8 C 212 7.8 212.8 7.1 212.8 5.9 C 212.8 4.8 212 4 211 4 C 210 4 209.2 4.8 209.2 5.9 C 209.2 7.1 210 7.8 211 7.8 Z M 215.8 7.1 C 215.8 7.1 216.55 7.96 217.6 8 C 218.1 8 218.4 7.8 218.4 7.4 C 218.4 6.5 215.2 6.5 215.2 4.5 C 215.2 3.3 216.3 2.7 217.6 2.7 C 218.4 2.7 219.7 3 219.7 4 C 219.72 4.01 219.7 4.6 219.7 4.6 L 218.4 4.6 C 218.4 4.6 218.37 4.34 218.4 4.3 C 218.4 4.1 217.9 3.9 217.6 3.9 C 217.1 3.9 216.7 4.1 216.7 4.5 C 216.7 5.4 219.9 5.2 219.9 7.3 C 219.9 8.4 218.9 9.1 217.6 9.1 C 215.91 9.14 215 8.1 215 8.1 L 215.8 7.1 Z M 221.4 4.1 L 220.6 4.1 L 220.6 2.9 L 221.5 2.9 L 221.5 1.2 L 222.9 1.2 L 222.9 2.9 L 224.3 2.9 L 224.3 4.1 L 222.9 4.1 C 222.9 4.1 222.94 6.56 222.9 6.6 C 222.9 7.6 223.7 7.7 224.2 7.7 C 224.32 7.72 224.4 7.7 224.4 7.7 L 224.4 9 C 224.4 9 224.24 9.06 224 9.1 C 223.1 9.1 221.4 8.8 221.4 6.8 C 221.42 6.76 221.4 4.1 221.4 4.1 Z M 224.8 0.5 C 224.8 0.7 224.9 0.9 224.9 1.1 C 224.9 1.5 224.7 1.8 224.5 2.2 C 224.5 2.2 223.5 2.2 223.5 2.2 C 223.7 1.8 223.8 1.5 223.8 1.2 C 223.8 1 223.7 0.8 223.6 0.5 C 223.6 0.5 224.8 0.5 224.8 0.5 Z M 229.5 7.1 C 229.5 7.1 230.3 7.96 231.3 8 C 231.8 8 232.2 7.8 232.2 7.4 C 232.2 6.5 228.9 6.5 228.9 4.5 C 228.9 3.3 230 2.7 231.3 2.7 C 232.1 2.7 233.5 3 233.5 4 C 233.47 4.01 233.5 4.6 233.5 4.6 L 232.1 4.6 C 232.1 4.6 232.13 4.34 232.1 4.3 C 232.1 4.1 231.7 3.9 231.4 3.9 C 230.8 3.9 230.4 4.1 230.4 4.5 C 230.4 5.4 233.7 5.2 233.7 7.3 C 233.7 8.4 232.7 9.1 231.3 9.1 C 229.67 9.14 228.8 8.1 228.8 8.1 L 229.5 7.1 Z M 238.3 4.4 C 238.3 4.3 238.2 4.2 238 4.2 C 238.01 4.18 237.5 4.2 237.5 4.2 L 237.5 2.9 C 237.5 2.9 238.98 2.88 239 2.9 C 239.5 2.9 239.8 3.1 239.8 3.7 C 239.8 3.7 239.8 6.5 239.8 6.5 C 239.8 7.2 240 7.8 240.7 7.8 C 241.8 7.8 242.4 6.8 242.4 5.7 C 242.45 5.69 242.4 2.9 242.4 2.9 L 244 2.9 C 244 2.9 243.97 7.45 244 7.5 C 244 7.6 244.1 7.7 244.2 7.7 C 244.23 7.72 244.7 7.7 244.7 7.7 L 244.7 9 C 244.7 9 243.31 9 243.3 9 C 242.8 9 242.5 8.7 242.5 8.3 C 242.5 8.3 242.5 8.1 242.5 8.1 C 242.5 8 242.5 7.9 242.5 7.9 C 242.5 7.9 242.5 7.9 242.5 7.9 C 242.2 8.5 241.4 9.1 240.4 9.1 C 239.1 9.1 238.3 8.5 238.3 6.8 C 238.3 6.8 238.3 4.4 238.3 4.4 Z M 245.3 8.2 C 245.3 8.2 248.1 4.74 248.1 4.7 C 248.37 4.39 248.6 4.2 248.6 4.2 L 248.6 4.2 C 248.6 4.2 248.43 4.18 248 4.2 C 248 4.2 246.9 4.2 246.9 4.2 C 246.8 4.2 246.7 4.3 246.7 4.4 C 246.68 4.44 246.7 4.8 246.7 4.8 L 245.3 4.8 C 245.3 4.8 245.3 3.7 245.3 3.7 C 245.3 3.1 245.5 2.9 246.1 2.9 C 246.12 2.88 250.6 2.9 250.6 2.9 L 250.6 3.7 C 250.6 3.7 247.78 7.15 247.8 7.2 C 247.51 7.49 247.3 7.7 247.3 7.7 L 247.3 7.7 C 247.3 7.7 247.45 7.7 247.8 7.7 C 247.8 7.7 249.2 7.7 249.2 7.7 C 249.4 7.7 249.5 7.6 249.5 7.4 C 249.45 7.44 249.5 7.1 249.5 7.1 L 250.8 7.1 C 250.8 7.1 250.83 8.18 250.8 8.2 C 250.8 8.8 250.6 9 250 9 C 250.03 9 245.3 9 245.3 9 L 245.3 8.2 Z M 246.3 0.5 L 247.5 0.5 L 248.1 1.5 L 248.1 1.5 L 248.7 0.5 L 249.9 0.5 L 248.7 2.1 L 247.4 2.1 L 246.3 0.5 Z M 252.1 4.4 C 252.1 4.3 252 4.2 251.9 4.2 C 251.88 4.18 251.4 4.2 251.4 4.2 L 251.4 2.9 C 251.4 2.9 252.85 2.88 252.8 2.9 C 253.4 2.9 253.7 3.1 253.7 3.7 C 253.7 3.7 253.7 7.5 253.7 7.5 C 253.7 7.6 253.8 7.7 253.9 7.7 C 253.93 7.72 254.4 7.7 254.4 7.7 L 254.4 9 C 254.4 9 252.96 9 253 9 C 252.4 9 252.1 8.8 252.1 8.2 C 252.1 8.2 252.1 4.4 252.1 4.4 Z M 253.1 0.5 L 254.6 0.5 L 253.3 2.1 L 252.2 2.1 L 253.1 0.5 Z M 255.3 4.4 C 255.2 4.2 255.1 4.2 254.9 4.2 C 254.93 4.18 254.8 4.2 254.8 4.2 L 254.8 2.9 C 254.8 2.9 255.67 2.88 255.7 2.9 C 256.2 2.9 256.4 3 256.6 3.5 C 256.6 3.5 257.7 6.7 257.7 6.7 C 257.85 7.03 257.9 7.5 257.9 7.5 L 258 7.5 C 258 7.5 258.07 7.03 258.2 6.7 C 258.2 6.7 259.3 3.5 259.3 3.5 C 259.5 3 259.7 2.9 260.2 2.9 C 260.24 2.88 261.1 2.9 261.1 2.9 L 261.1 4.2 C 261.1 4.2 260.91 4.18 260.9 4.2 C 260.7 4.2 260.6 4.2 260.6 4.4 C 260.58 4.39 258.8 9 258.8 9 L 257 9 C 257 9 255.26 4.39 255.3 4.4 Z M 265.2 5.2 C 265.16 5.16 265.4 5.2 265.4 5.2 C 265.4 5.2 265.35 5.11 265.4 5.1 C 265.4 4.2 265 3.9 264.2 3.9 C 263.9 3.9 263.4 4 263.4 4.3 C 263.41 4.32 263.4 4.6 263.4 4.6 L 262 4.6 C 262 4.6 261.99 4 262 4 C 262 2.9 263.6 2.7 264.2 2.7 C 266.3 2.7 266.9 3.8 266.9 5.2 C 266.9 5.2 266.9 7.5 266.9 7.5 C 266.9 7.6 267 7.7 267.1 7.7 C 267.14 7.72 267.6 7.7 267.6 7.7 L 267.6 9 C 267.6 9 266.25 9 266.3 9 C 265.7 9 265.5 8.7 265.5 8.3 C 265.5 8.2 265.5 8.1 265.5 8.1 C 265.49 8.06 265.5 8.1 265.5 8.1 C 265.5 8.1 264.99 9.14 263.6 9.1 C 262.5 9.1 261.5 8.5 261.5 7.2 C 261.5 5.3 264.2 5.2 265.2 5.2 Z M 264 8 C 264.8 8 265.4 7.1 265.4 6.3 C 265.38 6.35 265.4 6.2 265.4 6.2 C 265.4 6.2 265.11 6.2 265.1 6.2 C 264.3 6.2 263.1 6.3 263.1 7.2 C 263.1 7.6 263.4 8 264 8 Z M 268.8 4.4 C 268.8 4.3 268.7 4.2 268.6 4.2 C 268.58 4.18 268.1 4.2 268.1 4.2 L 268.1 2.9 C 268.1 2.9 269.5 2.88 269.5 2.9 C 270 2.9 270.3 3.1 270.3 3.6 C 270.3 3.6 270.3 3.7 270.3 3.7 C 270.3 3.9 270.3 4 270.3 4 C 270.3 4 270.3 4 270.3 4 C 270.6 3.5 271.2 2.7 272.5 2.7 C 273.8 2.7 274.6 3.4 274.6 5.1 C 274.6 5.1 274.6 7.5 274.6 7.5 C 274.6 7.6 274.7 7.7 274.9 7.7 C 274.87 7.72 275.3 7.7 275.3 7.7 L 275.3 9 C 275.3 9 273.9 9 273.9 9 C 273.3 9 273.1 8.8 273.1 8.2 C 273.1 8.2 273.1 5.4 273.1 5.4 C 273.1 4.6 272.9 4.1 272.1 4.1 C 271.3 4.1 270.7 4.6 270.5 5.4 C 270.4 5.6 270.4 5.9 270.4 6.2 C 270.36 6.19 270.4 9 270.4 9 L 268.8 9 C 268.8 9 268.85 4.44 268.8 4.4 Z M 276.6 4.4 C 276.6 4.3 276.5 4.2 276.4 4.2 C 276.36 4.18 275.9 4.2 275.9 4.2 L 275.9 2.9 C 275.9 2.9 277.33 2.88 277.3 2.9 C 277.9 2.9 278.1 3.1 278.1 3.7 C 278.1 3.7 278.1 7.5 278.1 7.5 C 278.1 7.6 278.2 7.7 278.4 7.7 C 278.41 7.72 278.9 7.7 278.9 7.7 L 278.9 9 C 278.9 9 277.44 9 277.4 9 C 276.9 9 276.6 8.8 276.6 8.2 C 276.6 8.2 276.6 4.4 276.6 4.4 Z M 277.6 0.5 L 279.1 0.5 L 277.8 2.1 L 276.7 2.1 L 277.6 0.5 Z M 280.2 4.4 C 280.2 4.3 280.1 4.2 279.9 4.2 C 279.92 4.18 279.4 4.2 279.4 4.2 L 279.4 2.9 C 279.4 2.9 280.84 2.88 280.8 2.9 C 281.4 2.9 281.6 3.1 281.6 3.6 C 281.6 3.6 281.6 3.7 281.6 3.7 C 281.6 3.9 281.6 4 281.6 4 C 281.6 4 281.7 4 281.7 4 C 281.9 3.4 282.7 2.7 283.6 2.7 C 284.6 2.7 285.2 3.2 285.4 4 C 285.4 4 285.5 4 285.5 4 C 285.8 3.3 286.6 2.7 287.5 2.7 C 288.8 2.7 289.5 3.5 289.5 5.1 C 289.5 5.1 289.5 7.5 289.5 7.5 C 289.5 7.6 289.6 7.7 289.8 7.7 C 289.81 7.72 290.3 7.7 290.3 7.7 L 290.3 9 C 290.3 9 288.84 9 288.8 9 C 288.3 9 288 8.8 288 8.2 C 288 8.2 288 5.4 288 5.4 C 288 4.7 287.9 4.1 287.2 4.1 C 286.4 4.1 285.9 4.8 285.7 5.5 C 285.6 5.8 285.6 6 285.6 6.3 C 285.62 6.31 285.6 9 285.6 9 L 284.1 9 C 284.1 9 284.1 5.35 284.1 5.4 C 284.1 4.7 284 4.1 283.3 4.1 C 282.5 4.1 282 4.8 281.8 5.5 C 281.7 5.8 281.7 6 281.7 6.3 C 281.7 6.31 281.7 9 281.7 9 L 280.2 9 C 280.2 9 280.18 4.44 280.2 4.4 Z M 294.9 1.8 L 294.1 1.8 L 294.1 0.5 C 294.1 0.5 297.56 0.48 297.6 0.5 C 300.2 0.5 301.9 2 301.9 4.7 C 301.9 7.4 300.2 9 297.6 9 C 297.6 9 295.7 9 295.7 9 C 295.1 9 294.9 8.8 294.9 8.2 C 294.87 8.18 294.9 1.8 294.9 1.8 Z M 296.7 7.7 C 296.7 7.7 297.5 7.7 297.5 7.7 C 299.2 7.7 300.3 6.6 300.3 4.7 C 300.3 2.8 299.2 1.8 297.5 1.8 C 297.48 1.81 296.4 1.8 296.4 1.8 C 296.4 1.8 296.44 7.4 296.4 7.4 C 296.4 7.6 296.5 7.7 296.7 7.7 Z M 303.3 4.4 C 303.3 4.3 303.2 4.2 303.1 4.2 C 303.08 4.18 302.6 4.2 302.6 4.2 L 302.6 2.9 C 302.6 2.9 303.99 2.88 304 2.9 C 304.5 2.9 304.8 3.1 304.8 3.6 C 304.8 3.6 304.8 4 304.8 4 C 304.81 4.21 304.8 4.4 304.8 4.4 C 304.8 4.4 304.81 4.37 304.8 4.4 C 305.1 3.5 305.8 2.8 306.8 2.8 C 306.88 2.8 307 2.8 307 2.8 L 307 4.3 C 307 4.3 306.87 4.3 306.7 4.3 C 306 4.3 305.3 4.7 305 5.6 C 304.9 5.9 304.9 6.2 304.9 6.6 C 304.86 6.58 304.9 9 304.9 9 L 303.3 9 C 303.3 9 303.34 4.44 303.3 4.4 Z M 310.8 2.7 C 312.7 2.7 314.2 4.1 314.2 5.9 C 314.2 7.8 312.7 9.1 310.8 9.1 C 308.9 9.1 307.4 7.8 307.4 5.9 C 307.4 4.1 308.9 2.7 310.8 2.7 Z M 310.8 7.8 C 311.8 7.8 312.6 7.1 312.6 5.9 C 312.6 4.8 311.8 4 310.8 4 C 309.8 4 309 4.8 309 5.9 C 309 7.1 309.8 7.8 310.8 7.8 Z M 315 4.4 C 315 4.2 314.9 4.2 314.7 4.2 C 314.7 4.18 314.6 4.2 314.6 4.2 L 314.6 2.9 C 314.6 2.9 315.44 2.88 315.4 2.9 C 315.9 2.9 316.2 3 316.3 3.5 C 316.3 3.5 317.5 6.7 317.5 6.7 C 317.62 7.03 317.7 7.5 317.7 7.5 L 317.7 7.5 C 317.7 7.5 317.84 7.03 318 6.7 C 318 6.7 319.1 3.5 319.1 3.5 C 319.3 3 319.5 2.9 320 2.9 C 320.01 2.88 320.8 2.9 320.8 2.9 L 320.8 4.2 C 320.8 4.2 320.68 4.18 320.7 4.2 C 320.5 4.2 320.4 4.2 320.3 4.4 C 320.35 4.39 318.6 9 318.6 9 L 316.8 9 C 316.8 9 315.03 4.39 315 4.4 Z M 324.3 2.7 C 326.1 2.7 327 4 327 5.6 C 327.04 5.82 327 6.2 327 6.2 C 327 6.2 322.78 6.2 322.8 6.2 C 322.9 7.3 323.7 7.8 324.6 7.8 C 325.6 7.85 326.3 7.2 326.3 7.2 L 327 8.2 C 327 8.2 326.04 9.14 324.5 9.1 C 322.5 9.1 321.2 7.7 321.2 5.9 C 321.2 4.1 322.5 2.7 324.3 2.7 Z M 325.5 5.1 C 325.5 4.4 325 3.9 324.3 3.9 C 323.6 3.9 323 4.4 322.8 5.1 C 322.8 5.1 325.5 5.1 325.5 5.1 Z M 328.5 2 C 328.5 1.9 328.4 1.8 328.2 1.8 C 328.22 1.78 327.7 1.8 327.7 1.8 L 327.7 0.5 C 327.7 0.5 329.19 0.48 329.2 0.5 C 329.8 0.5 330 0.7 330 1.3 C 330 1.3 330 7.5 330 7.5 C 330 7.6 330.1 7.7 330.3 7.7 C 330.27 7.72 330.7 7.7 330.7 7.7 L 330.7 9 C 330.7 9 329.3 9 329.3 9 C 328.7 9 328.5 8.8 328.5 8.2 C 328.5 8.2 328.5 2 328.5 2 Z M 332.1 0.5 L 333.5 0.5 L 333.5 1.9 L 332.1 1.9 L 332.1 0.5 Z M 332.1 4.4 C 332.1 4.3 332 4.2 331.8 4.2 C 331.8 4.18 331.3 4.2 331.3 4.2 L 331.3 2.9 C 331.3 2.9 332.77 2.88 332.8 2.9 C 333.3 2.9 333.6 3.1 333.6 3.7 C 333.6 3.7 333.6 7.5 333.6 7.5 C 333.6 7.6 333.7 7.7 333.8 7.7 C 333.83 7.72 334.3 7.7 334.3 7.7 L 334.3 9 C 334.3 9 332.86 9 332.9 9 C 332.3 9 332.1 8.8 332.1 8.2 C 332.1 8.2 332.1 4.4 332.1 4.4 Z M 335.6 7.1 C 335.6 7.1 336.4 7.96 337.4 8 C 337.9 8 338.3 7.8 338.3 7.4 C 338.3 6.5 335 6.5 335 4.5 C 335 3.3 336.2 2.7 337.4 2.7 C 338.3 2.7 339.6 3 339.6 4 C 339.57 4.01 339.6 4.6 339.6 4.6 L 338.2 4.6 C 338.2 4.6 338.23 4.34 338.2 4.3 C 338.2 4.1 337.8 3.9 337.5 3.9 C 336.9 3.9 336.5 4.1 336.5 4.5 C 336.5 5.4 339.8 5.2 339.8 7.3 C 339.8 8.4 338.8 9.1 337.4 9.1 C 335.77 9.14 334.9 8.1 334.9 8.1 L 335.6 7.1 Z M 341.2 4.4 C 341.2 4.3 341.1 4.2 340.9 4.2 C 340.93 4.18 340.4 4.2 340.4 4.2 L 340.4 2.9 C 340.4 2.9 341.9 2.88 341.9 2.9 C 342.5 2.9 342.7 3.1 342.7 3.7 C 342.7 3.7 342.7 6.5 342.7 6.5 C 342.7 7.2 342.9 7.8 343.7 7.8 C 344.8 7.8 345.4 6.8 345.4 5.7 C 345.37 5.69 345.4 2.9 345.4 2.9 L 346.9 2.9 C 346.9 2.9 346.89 7.45 346.9 7.5 C 346.9 7.6 347 7.7 347.2 7.7 C 347.15 7.72 347.6 7.7 347.6 7.7 L 347.6 9 C 347.6 9 346.23 9 346.2 9 C 345.7 9 345.4 8.7 345.4 8.3 C 345.4 8.3 345.4 8.1 345.4 8.1 C 345.4 8 345.4 7.9 345.4 7.9 C 345.4 7.9 345.4 7.9 345.4 7.9 C 345.1 8.5 344.4 9.1 343.3 9.1 C 342 9.1 341.2 8.5 341.2 6.8 C 341.2 6.8 341.2 4.4 341.2 4.4 Z " stroke="none" fill="#000"/>  </g></svg>