<?xml version="1.0" standalone="no"?><!DOCTYPE svg PUBLIC "-//W3C//DTD SVG 1.1//EN" "http://www.w3.org/Graphics/SVG/1.1/DTD/svg11.dtd"><svg xmlns="http://www.w3.org/2000/svg" version="1.1" width="30px" height="16.8px" viewBox="0 -2 30 16.8" style="top:-2px">  <desc>F VIIIa</desc>  <defs/>  <g id="Polygon77711">    <path d="M 1.1 0.5 L 5.2 0.5 L 5.2 1.2 L 1.9 1.2 L 1.9 4.1 L 4.7 4.1 L 4.7 4.8 L 1.9 4.8 L 1.9 8.2 L 1.1 8.2 L 1.1 0.5 Z M 8.5 0.5 L 9.4 0.5 C 9.4 0.5 11.5 6.39 11.5 6.4 C 11.64 6.79 11.8 7.4 11.8 7.4 L 11.8 7.4 C 11.8 7.4 11.97 6.79 12.1 6.4 C 12.12 6.39 14.3 0.5 14.3 0.5 L 15.1 0.5 L 12.2 8.2 L 11.4 8.2 L 8.5 0.5 Z M 16.3 0.5 L 17.1 0.5 L 17.1 8.2 L 16.3 8.2 L 16.3 0.5 Z M 19.3 0.5 L 20.1 0.5 L 20.1 8.2 L 19.3 8.2 L 19.3 0.5 Z M 22.3 0.5 L 23.1 0.5 L 23.1 8.2 L 22.3 8.2 L 22.3 0.5 Z M 28.1 4.8 C 28.05 4.83 28.4 4.8 28.4 4.8 C 28.4 4.8 28.36 4.69 28.4 4.7 C 28.4 3.6 27.8 3.3 27 3.3 C 26.07 3.26 25.4 3.8 25.4 3.8 L 25.1 3.2 C 25.1 3.2 25.8 2.59 27 2.6 C 28.4 2.6 29.1 3.3 29.1 4.7 C 29.11 4.71 29.1 8.2 29.1 8.2 L 28.4 8.2 C 28.4 8.2 28.4 7.64 28.4 7.6 C 28.4 7.4 28.4 7.2 28.4 7.2 C 28.42 7.18 28.4 7.2 28.4 7.2 C 28.4 7.2 27.93 8.38 26.5 8.4 C 25.6 8.4 24.7 7.8 24.7 6.7 C 24.7 4.9 27.1 4.8 28.1 4.8 Z M 26.7 7.7 C 27.7 7.7 28.4 6.6 28.4 5.7 C 28.36 5.69 28.4 5.4 28.4 5.4 C 28.4 5.4 28.04 5.44 28 5.4 C 27.2 5.4 25.4 5.5 25.4 6.7 C 25.4 7.2 25.8 7.7 26.7 7.7 Z " stroke="none" fill="#000"/>  </g></svg>