<?xml version="1.0" standalone="no"?><!DOCTYPE svg PUBLIC "-//W3C//DTD SVG 1.1//EN" "http://www.w3.org/Graphics/SVG/1.1/DTD/svg11.dtd"><svg xmlns="http://www.w3.org/2000/svg" version="1.1" width="184.3px" height="33.5px" viewBox="0 -4 184.3 33.5" style="top:-4px">  <desc>Metabolick profil</desc>  <defs/>  <g id="Polygon67173">    <path d="M 17.3 12 C 17.3 12 17.89 11.95 17.9 12 C 18.1 12 18.3 11.8 18.3 11.6 C 18.29 11.56 19.2 0.8 19.2 0.8 L 21 0.8 C 21 0.8 24 7.52 24 7.5 C 24.3 8.21 24.6 9.1 24.6 9.1 L 24.7 9.1 C 24.7 9.1 24.99 8.21 25.3 7.5 C 25.29 7.52 28.3 0.8 28.3 0.8 L 30.1 0.8 C 30.1 0.8 31 11.56 31 11.6 C 31 11.8 31.1 12 31.4 12 C 31.39 11.95 32 12 32 12 L 32 13.5 C 32 13.5 30.39 13.5 30.4 13.5 C 29.6 13.5 29.3 13.2 29.2 12.3 C 29.2 12.3 28.7 5.6 28.7 5.6 C 28.66 4.88 28.7 3.8 28.7 3.8 L 28.6 3.8 C 28.6 3.8 28.28 4.95 28 5.6 C 27.97 5.63 25.4 11.2 25.4 11.2 L 23.9 11.2 C 23.9 11.2 21.31 5.63 21.3 5.6 C 21.01 4.97 20.6 3.7 20.6 3.7 L 20.6 3.7 C 20.6 3.7 20.61 4.88 20.6 5.6 C 20.6 5.6 20.1 12.3 20.1 12.3 C 20 13.2 19.7 13.5 18.9 13.5 C 18.88 13.5 17.3 13.5 17.3 13.5 L 17.3 12 Z M 37.6 4.2 C 40.1 4.2 41.5 6.1 41.5 8.4 C 41.49 8.68 41.4 9.2 41.4 9.2 C 41.4 9.2 34.8 9.16 34.8 9.2 C 34.9 11.1 36.3 12.2 37.9 12.2 C 39.49 12.2 40.6 11.1 40.6 11.1 L 41.3 12.4 C 41.3 12.4 40 13.72 37.8 13.7 C 35 13.7 33 11.6 33 8.9 C 33 6 35 4.2 37.6 4.2 Z M 39.7 7.9 C 39.6 6.4 38.7 5.6 37.6 5.6 C 36.2 5.6 35.1 6.4 34.9 7.9 C 34.9 7.9 39.7 7.9 39.7 7.9 Z M 43.9 5.8 L 42.7 5.8 L 42.7 4.4 L 43.9 4.4 L 43.9 1.9 L 45.6 1.9 L 45.6 4.4 L 47.8 4.4 L 47.8 5.8 L 45.6 5.8 C 45.6 5.8 45.63 9.97 45.6 10 C 45.6 11.8 46.9 12 47.6 12 C 47.81 12.02 48 12 48 12 L 48 13.5 C 48 13.5 47.74 13.57 47.4 13.6 C 46.2 13.6 43.9 13.2 43.9 10.2 C 43.89 10.17 43.9 5.8 43.9 5.8 Z M 54.7 7.8 C 54.69 7.83 55.1 7.8 55.1 7.8 C 55.1 7.8 55.08 7.74 55.1 7.7 C 55.1 6.1 54.5 5.6 53.1 5.6 C 52.6 5.6 51.6 5.7 51.6 6.3 C 51.57 6.26 51.6 6.8 51.6 6.8 L 49.9 6.8 C 49.9 6.8 49.93 5.89 49.9 5.9 C 49.9 4.4 52.2 4.2 53.1 4.2 C 56 4.2 56.8 5.7 56.8 7.7 C 56.8 7.7 56.8 11.6 56.8 11.6 C 56.8 11.9 57 12 57.2 12 C 57.22 12.01 58 12 58 12 L 58 13.5 C 58 13.5 56.32 13.5 56.3 13.5 C 55.5 13.5 55.2 13.1 55.2 12.5 C 55.19 12.15 55.2 11.9 55.2 11.9 L 55.2 11.9 C 55.2 11.9 54.47 13.72 52.3 13.7 C 50.7 13.7 49.2 12.8 49.2 10.9 C 49.2 8 53.2 7.8 54.7 7.8 Z M 52.7 12.3 C 54.1 12.3 55.1 10.8 55.1 9.4 C 55.1 9.41 55.1 9.1 55.1 9.1 C 55.1 9.1 54.65 9.11 54.7 9.1 C 53.3 9.1 51 9.2 51 10.9 C 51 11.6 51.5 12.3 52.7 12.3 Z M 59.8 2.7 C 59.8 2.4 59.6 2.3 59.4 2.3 C 59.38 2.29 58.6 2.3 58.6 2.3 L 58.6 0.8 C 58.6 0.8 60.37 0.79 60.4 0.8 C 61.2 0.8 61.5 1.1 61.5 1.9 C 61.5 1.9 61.5 4.9 61.5 4.9 C 61.53 5.35 61.5 5.7 61.5 5.7 L 61.5 5.7 C 61.5 5.7 62.32 4.18 64.5 4.2 C 66.9 4.2 68.5 6.1 68.5 8.9 C 68.5 11.8 66.7 13.7 64.3 13.7 C 62.28 13.72 61.5 12.2 61.5 12.2 L 61.4 12.2 C 61.4 12.2 61.45 12.47 61.5 12.9 C 61.45 12.87 61.5 13.5 61.5 13.5 L 59.8 13.5 C 59.8 13.5 59.78 2.68 59.8 2.7 Z M 64.1 12.2 C 65.5 12.2 66.7 11 66.7 9 C 66.7 7 65.6 5.7 64.1 5.7 C 62.8 5.7 61.5 6.7 61.5 9 C 61.5 10.6 62.3 12.2 64.1 12.2 Z M 74.7 4.2 C 77.4 4.2 79.6 6.2 79.6 8.9 C 79.6 11.7 77.4 13.7 74.7 13.7 C 71.9 13.7 69.8 11.7 69.8 8.9 C 69.8 6.2 71.9 4.2 74.7 4.2 Z M 74.7 12.2 C 76.4 12.2 77.8 10.8 77.8 8.9 C 77.8 7 76.4 5.7 74.7 5.7 C 73 5.7 71.6 7 71.6 8.9 C 71.6 10.8 73 12.2 74.7 12.2 Z M 81.6 2.7 C 81.6 2.4 81.4 2.3 81.2 2.3 C 81.16 2.29 80.4 2.3 80.4 2.3 L 80.4 0.8 C 80.4 0.8 82.15 0.79 82.2 0.8 C 83 0.8 83.3 1.1 83.3 1.9 C 83.3 1.9 83.3 11.6 83.3 11.6 C 83.3 11.9 83.5 12 83.7 12 C 83.7 12.01 84.4 12 84.4 12 L 84.4 13.5 C 84.4 13.5 82.71 13.5 82.7 13.5 C 81.9 13.5 81.6 13.2 81.6 12.3 C 81.6 12.3 81.6 2.7 81.6 2.7 Z M 86.5 0.8 L 88.1 0.8 L 88.1 2.6 L 86.5 2.6 L 86.5 0.8 Z M 86.5 6.3 C 86.5 6 86.4 5.9 86.1 5.9 C 86.11 5.89 85.4 5.9 85.4 5.9 L 85.4 4.4 C 85.4 4.4 87.09 4.39 87.1 4.4 C 87.9 4.4 88.2 4.7 88.2 5.5 C 88.2 5.5 88.2 11.6 88.2 11.6 C 88.2 11.9 88.4 12 88.6 12 C 88.63 12.01 89.4 12 89.4 12 L 89.4 13.5 C 89.4 13.5 87.66 13.5 87.7 13.5 C 86.9 13.5 86.5 13.2 86.5 12.3 C 86.5 12.3 86.5 6.3 86.5 6.3 Z M 95.4 4.2 C 96.5 4.2 98.7 4.6 98.7 6.2 C 98.66 6.17 98.7 7.1 98.7 7.1 L 97.1 7.1 C 97.1 7.1 97.08 6.61 97.1 6.6 C 97.1 6 96 5.7 95.4 5.7 C 93.6 5.7 92.3 7 92.3 8.9 C 92.3 11 93.8 12.2 95.5 12.2 C 97.18 12.17 98.3 10.9 98.3 10.9 L 99.1 12.2 C 99.1 12.2 97.76 13.72 95.3 13.7 C 92.5 13.7 90.5 11.7 90.5 8.9 C 90.5 6.3 92.4 4.2 95.4 4.2 Z M 100.8 2.7 C 100.8 2.4 100.7 2.3 100.4 2.3 C 100.44 2.29 99.7 2.3 99.7 2.3 L 99.7 0.8 C 99.7 0.8 101.43 0.79 101.4 0.8 C 102.2 0.8 102.6 1 102.6 1.8 C 102.58 1.84 102.6 7.7 102.6 7.7 C 102.6 7.7 103.39 7.74 103.4 7.7 C 103.7 7.7 104.1 7.7 104.3 7.3 C 104.35 7.34 106.5 4.4 106.5 4.4 L 108.5 4.4 C 108.5 4.4 105.99 7.78 106 7.8 C 105.57 8.33 105.3 8.5 105.3 8.5 L 105.3 8.5 C 105.3 8.5 105.61 8.6 105.9 9.2 C 105.9 9.2 107.3 11.6 107.3 11.6 C 107.4 11.9 107.6 12 108 12 C 108.04 12.01 108.6 12 108.6 12 L 108.6 13.5 C 108.6 13.5 107.34 13.5 107.3 13.5 C 106.5 13.5 106.2 13.4 105.8 12.7 C 105.8 12.7 104.2 9.6 104.2 9.6 C 104 9.3 103.6 9.2 103.3 9.2 C 103.27 9.22 102.6 9.2 102.6 9.2 L 102.6 13.5 L 100.8 13.5 C 100.8 13.5 100.84 2.68 100.8 2.7 Z M 110.8 15.8 C 111.5 15.8 112 15.3 112.4 14.5 C 112.38 14.45 112.8 13.5 112.8 13.5 C 112.8 13.5 109.68 6.25 109.7 6.2 C 109.5 6 109.4 5.9 109.1 5.9 C 109.1 5.89 108.9 5.9 108.9 5.9 L 108.9 4.4 C 108.9 4.4 109.91 4.39 109.9 4.4 C 110.6 4.4 110.9 4.6 111.2 5.3 C 111.2 5.3 113.3 10.4 113.3 10.4 C 113.46 10.91 113.6 11.5 113.6 11.5 L 113.6 11.5 C 113.6 11.5 113.76 10.91 113.9 10.4 C 113.9 10.4 115.8 5.3 115.8 5.3 C 116.1 4.6 116.4 4.4 117.2 4.4 C 117.16 4.39 118.2 4.4 118.2 4.4 L 118.2 5.9 C 118.2 5.9 117.97 5.89 118 5.9 C 117.7 5.9 117.5 6 117.4 6.2 C 117.4 6.2 113.8 15.1 113.8 15.1 C 113.2 16.5 112.1 17.3 110.9 17.3 C 109.51 17.28 108.7 16.4 108.7 16.4 C 108.7 16.4 109.44 15.12 109.4 15.1 C 109.4 15.1 110 15.8 110.8 15.8 Z M 114.2 0.8 L 115.9 0.8 L 114.2 3.1 L 112.8 3.1 L 114.2 0.8 Z M 124.8 6.3 C 124.8 6 124.7 5.9 124.4 5.9 C 124.44 5.89 123.7 5.9 123.7 5.9 L 123.7 4.4 C 123.7 4.4 125.34 4.39 125.3 4.4 C 126.1 4.4 126.5 4.7 126.5 5.3 C 126.45 5.58 126.4 5.8 126.4 5.8 L 126.5 5.8 C 126.5 5.8 127.23 4.18 129.5 4.2 C 131.9 4.2 133.5 6.1 133.5 8.9 C 133.5 11.8 131.7 13.7 129.4 13.7 C 127.35 13.72 126.6 12.3 126.6 12.3 L 126.5 12.3 C 126.5 12.3 126.58 12.58 126.6 13.1 C 126.58 13.05 126.6 17.1 126.6 17.1 L 124.8 17.1 C 124.8 17.1 124.83 6.28 124.8 6.3 Z M 129.1 12.2 C 130.5 12.2 131.7 11 131.7 9 C 131.7 7 130.7 5.7 129.2 5.7 C 127.8 5.7 126.5 6.7 126.5 9 C 126.5 10.6 127.4 12.2 129.1 12.2 Z M 135.7 6.3 C 135.7 6 135.6 5.9 135.3 5.9 C 135.31 5.89 134.6 5.9 134.6 5.9 L 134.6 4.4 C 134.6 4.4 136.23 4.39 136.2 4.4 C 137 4.4 137.4 4.7 137.4 5.5 C 137.4 5.5 137.4 6 137.4 6 C 137.4 6.39 137.4 6.7 137.4 6.7 C 137.4 6.7 137.4 6.66 137.4 6.7 C 137.8 5.3 138.9 4.3 140.3 4.3 C 140.51 4.28 140.7 4.3 140.7 4.3 L 140.7 6 C 140.7 6 140.51 5.99 140.2 6 C 139.1 6 138.1 6.8 137.7 8.1 C 137.5 8.7 137.4 9.2 137.4 9.8 C 137.45 9.77 137.4 13.5 137.4 13.5 L 135.7 13.5 C 135.7 13.5 135.7 6.28 135.7 6.3 Z M 146.3 4.2 C 149 4.2 151.2 6.2 151.2 8.9 C 151.2 11.7 149 13.7 146.3 13.7 C 143.6 13.7 141.4 11.7 141.4 8.9 C 141.4 6.2 143.6 4.2 146.3 4.2 Z M 146.3 12.2 C 148.1 12.2 149.5 10.8 149.5 8.9 C 149.5 7 148.1 5.7 146.3 5.7 C 144.6 5.7 143.2 7 143.2 8.9 C 143.2 10.8 144.6 12.2 146.3 12.2 Z M 153.4 5.8 L 152.3 5.8 L 152.3 4.4 L 153.4 4.4 C 153.4 4.4 153.42 4.09 153.4 4.1 C 153.4 1.1 155.7 0.7 156.9 0.7 C 157.25 0.7 157.5 0.8 157.5 0.8 L 157.5 2.3 C 157.5 2.3 157.32 2.21 157 2.2 C 156.3 2.2 155.2 2.4 155.2 4.1 C 155.16 4.14 155.2 4.4 155.2 4.4 C 155.2 4.4 159.75 4.39 159.8 4.4 C 160.6 4.4 160.9 4.7 160.9 5.5 C 160.9 5.5 160.9 11.6 160.9 11.6 C 160.9 11.9 161 12 161.3 12 C 161.3 12.01 162 12 162 12 L 162 13.5 C 162 13.5 160.33 13.5 160.3 13.5 C 159.5 13.5 159.2 13.2 159.2 12.3 C 159.2 12.3 159.2 6.2 159.2 6.2 C 159.2 5.9 159 5.8 158.8 5.8 C 158.76 5.8 155.2 5.8 155.2 5.8 L 155.2 13.5 L 153.4 13.5 L 153.4 5.8 Z M 159.2 0.8 L 160.8 0.8 L 160.8 2.6 L 159.2 2.6 L 159.2 0.8 Z M 164 2.7 C 164 2.4 163.9 2.3 163.6 2.3 C 163.6 2.29 162.9 2.3 162.9 2.3 L 162.9 0.8 C 162.9 0.8 164.59 0.79 164.6 0.8 C 165.4 0.8 165.7 1.1 165.7 1.9 C 165.7 1.9 165.7 11.6 165.7 11.6 C 165.7 11.9 165.9 12 166.1 12 C 166.14 12.01 166.9 12 166.9 12 L 166.9 13.5 C 166.9 13.5 165.15 13.5 165.2 13.5 C 164.3 13.5 164 13.2 164 12.3 C 164 12.3 164 2.7 164 2.7 Z " stroke="none" fill="#ee3078"/>  </g></svg>