<?xml version="1.0" standalone="no"?><!DOCTYPE svg PUBLIC "-//W3C//DTD SVG 1.1//EN" "http://www.w3.org/Graphics/SVG/1.1/DTD/svg11.dtd"><svg xmlns="http://www.w3.org/2000/svg" version="1.1" width="217.4px" height="85.2px" viewBox="0 0 217.4 85.2">  <desc>5 tehotenstiev po as 14 759 cyklov</desc>  <defs/>  <g id="Polygon80861">    <path d="M 41.7 49 C 41.7 48.8 41.6 48.6 41.4 48.6 C 41.36 48.65 40.7 48.6 40.7 48.6 L 40.7 47.8 C 40.7 47.8 41.76 47.77 41.8 47.8 C 42.4 47.8 42.7 48 42.7 48.6 C 42.7 48.9 42.6 49.1 42.6 49.1 C 42.65 49.07 42.7 49.1 42.7 49.1 C 42.7 49.1 43.28 47.59 45.3 47.6 C 47.3 47.6 48.6 49.2 48.6 51.5 C 48.6 53.9 47.1 55.5 45.2 55.5 C 43.34 55.49 42.7 54.1 42.7 54.1 L 42.7 54.1 C 42.7 54.1 42.71 54.34 42.7 54.7 C 42.71 54.73 42.7 58.3 42.7 58.3 L 41.7 58.3 C 41.7 58.3 41.69 48.98 41.7 49 Z M 45.1 54.6 C 46.4 54.6 47.5 53.5 47.5 51.5 C 47.5 49.7 46.5 48.5 45.1 48.5 C 43.9 48.5 42.7 49.4 42.7 51.6 C 42.7 53.1 43.5 54.6 45.1 54.6 Z M 53.8 47.6 C 56 47.6 57.8 49.3 57.8 51.5 C 57.8 53.8 56 55.5 53.8 55.5 C 51.6 55.5 49.8 53.8 49.8 51.5 C 49.8 49.3 51.6 47.6 53.8 47.6 Z M 53.8 54.6 C 55.4 54.6 56.7 53.3 56.7 51.5 C 56.7 49.8 55.4 48.5 53.8 48.5 C 52.2 48.5 50.8 49.8 50.8 51.5 C 50.8 53.3 52.2 54.6 53.8 54.6 Z M 62.9 47.6 C 63.8 47.6 65.6 47.9 65.6 49.2 C 65.61 49.19 65.6 49.9 65.6 49.9 L 64.7 49.9 C 64.7 49.9 64.65 49.43 64.7 49.4 C 64.7 48.8 63.6 48.5 62.9 48.5 C 61.3 48.5 60 49.7 60 51.5 C 60 53.4 61.4 54.6 63 54.6 C 64.5 54.56 65.4 53.5 65.4 53.5 L 65.9 54.3 C 65.9 54.3 64.85 55.49 62.9 55.5 C 60.7 55.5 59 53.9 59 51.5 C 59 49.2 60.7 47.6 62.9 47.6 Z M 60.9 44.8 L 61.9 44.8 L 62.7 46 L 62.7 46 L 63.5 44.8 L 64.5 44.8 L 63.2 46.5 L 62.2 46.5 L 60.9 44.8 Z M 71.5 50.7 C 71.49 50.66 71.9 50.7 71.9 50.7 C 71.9 50.7 71.91 50.57 71.9 50.6 C 71.9 49 71.3 48.4 70 48.4 C 69.6 48.4 68.5 48.5 68.5 49.1 C 68.49 49.1 68.5 49.6 68.5 49.6 L 67.5 49.6 C 67.5 49.6 67.52 48.86 67.5 48.9 C 67.5 47.8 69.3 47.6 70 47.6 C 72.4 47.6 72.9 48.9 72.9 50.5 C 72.9 50.5 72.9 54.1 72.9 54.1 C 72.9 54.3 73.1 54.4 73.3 54.4 C 73.26 54.43 73.9 54.4 73.9 54.4 L 73.9 55.3 C 73.9 55.3 72.86 55.31 72.9 55.3 C 72.2 55.3 72 55 72 54.4 C 72 54.1 72 53.9 72 53.9 C 72 53.9 71.9 53.9 71.9 53.9 C 72 53.9 71.3 55.5 69.4 55.5 C 68.2 55.5 66.9 54.8 66.9 53.3 C 66.9 50.8 70.2 50.7 71.5 50.7 Z M 69.6 54.6 C 71 54.6 71.9 53.1 71.9 51.8 C 71.91 51.81 71.9 51.5 71.9 51.5 C 71.9 51.5 71.48 51.47 71.5 51.5 C 70.3 51.5 67.9 51.5 67.9 53.2 C 67.9 53.9 68.5 54.6 69.6 54.6 Z M 75.2 53.5 C 75.2 53.5 76.07 54.61 77.6 54.6 C 78.4 54.6 79.1 54.2 79.1 53.4 C 79.1 51.8 74.9 52.1 74.9 49.6 C 74.9 48.3 76.1 47.6 77.6 47.6 C 78.4 47.6 79.9 47.9 79.9 48.9 C 79.89 48.95 79.9 49.6 79.9 49.6 L 78.9 49.6 C 78.9 49.6 78.93 49.23 78.9 49.2 C 78.9 48.7 78.1 48.5 77.6 48.5 C 76.6 48.5 75.9 48.8 75.9 49.6 C 75.9 51.3 80.2 50.9 80.2 53.4 C 80.2 54.6 79 55.5 77.5 55.5 C 75.57 55.49 74.6 54.2 74.6 54.2 L 75.2 53.5 Z M 85.8 54.4 L 88.2 54.4 C 88.2 54.4 88.2 46.64 88.2 46.6 C 88.2 46.34 88.2 46.1 88.2 46.1 L 88.2 46.1 C 88.2 46.1 88.08 46.28 87.7 46.7 C 87.66 46.69 86.5 47.8 86.5 47.8 L 85.9 47.1 L 88.3 44.8 L 89.3 44.8 L 89.3 54.4 L 91.6 54.4 L 91.6 55.3 L 85.8 55.3 L 85.8 54.4 Z M 92 51.7 L 97.1 44.8 L 98.2 44.8 L 98.2 51.5 L 99.9 51.5 L 99.9 52.4 L 98.2 52.4 L 98.2 55.3 L 97.2 55.3 L 97.2 52.4 L 92 52.4 L 92 51.7 Z M 97.2 47.2 C 97.2 46.71 97.2 46.1 97.2 46.1 L 97.2 46.1 C 97.2 46.1 96.96 46.58 96.7 47 C 96.7 47 93.8 50.8 93.8 50.8 C 93.47 51.2 93.2 51.5 93.2 51.5 L 93.2 51.5 C 93.2 51.5 93.62 51.47 94.1 51.5 C 94.07 51.47 97.2 51.5 97.2 51.5 C 97.2 51.5 97.2 47.16 97.2 47.2 Z M 110 46.7 C 110.34 46.1 110.6 45.7 110.6 45.7 L 110.6 45.7 C 110.6 45.7 110.36 45.69 109.8 45.7 C 109.8 45.7 106 45.7 106 45.7 C 105.8 45.7 105.7 45.8 105.7 46 C 105.71 46.02 105.7 46.7 105.7 46.7 L 104.7 46.7 C 104.7 46.7 104.72 45.68 104.7 45.7 C 104.7 45 105 44.8 105.6 44.8 C 105.62 44.77 111.8 44.8 111.8 44.8 L 111.8 45.5 L 106.6 55.3 L 105.5 55.3 C 105.5 55.3 110.04 46.67 110 46.7 Z M 113.4 53.3 C 113.4 53.3 114.17 54.5 115.8 54.5 C 117.3 54.5 118.4 53.4 118.4 52 C 118.4 50.6 117.2 49.6 115.7 49.6 C 114.53 49.56 113.7 50.1 113.7 50.1 L 113.1 49.9 C 113.1 49.9 113.6 45.68 113.6 45.7 C 113.7 45 113.9 44.8 114.5 44.8 C 114.5 44.8 118 44.8 118 44.8 C 118.6 44.8 118.9 45 118.9 45.7 C 118.88 45.68 118.9 46.7 118.9 46.7 L 117.9 46.7 C 117.9 46.7 117.9 46.02 117.9 46 C 117.9 45.8 117.8 45.7 117.6 45.7 C 117.6 45.7 114.9 45.7 114.9 45.7 C 114.7 45.7 114.6 45.8 114.6 46 C 114.6 46 114.3 48.4 114.3 48.4 C 114.26 48.79 114.2 49 114.2 49 L 114.2 49 C 114.2 49 114.9 48.62 115.8 48.6 C 118 48.6 119.5 50.1 119.5 52.1 C 119.5 53.9 118 55.5 115.8 55.5 C 113.72 55.49 112.7 54 112.7 54 L 113.4 53.3 Z M 122 54.1 C 122 54.1 122.63 54.52 123.5 54.5 C 125.7 54.5 126.8 52.3 127 50.2 C 127 50.2 127 50.2 127 50.2 C 126.5 51 125.4 51.5 124.3 51.5 C 122.4 51.5 121 50.1 121 48.1 C 121 45.9 122.5 44.6 124.3 44.6 C 126.6 44.6 128.1 46.6 128.1 49.4 C 128.1 52.1 126.8 55.5 123.5 55.5 C 122.36 55.49 121.6 55.1 121.6 55.1 L 122 54.1 Z M 127 48.7 C 127 47.3 125.9 45.6 124.4 45.6 C 122.9 45.6 122.1 46.6 122.1 48.1 C 122.1 49.6 123 50.5 124.5 50.5 C 125.9 50.5 127 49.6 127 48.7 Z M 137.4 47.6 C 138.3 47.6 140.1 47.9 140.1 49.2 C 140.13 49.19 140.1 49.9 140.1 49.9 L 139.2 49.9 C 139.2 49.9 139.17 49.43 139.2 49.4 C 139.2 48.8 138.1 48.5 137.4 48.5 C 135.8 48.5 134.5 49.7 134.5 51.5 C 134.5 53.4 135.9 54.6 137.5 54.6 C 139.02 54.56 139.9 53.5 139.9 53.5 L 140.4 54.3 C 140.4 54.3 139.37 55.49 137.4 55.5 C 135.2 55.5 133.5 53.9 133.5 51.5 C 133.5 49.2 135.2 47.6 137.4 47.6 Z M 142.4 57.5 C 143.1 57.5 143.6 57 143.8 56.3 C 143.84 56.32 144.3 55.3 144.3 55.3 C 144.3 55.3 141.63 48.99 141.6 49 C 141.5 48.7 141.4 48.6 141.1 48.6 C 141.11 48.65 141 48.6 141 48.6 L 141 47.8 C 141 47.8 141.42 47.77 141.4 47.8 C 142.1 47.8 142.3 47.9 142.6 48.6 C 142.6 48.6 144.5 53.3 144.5 53.3 C 144.66 53.68 144.8 54.1 144.8 54.1 L 144.8 54.1 C 144.8 54.1 144.92 53.68 145.1 53.3 C 145.1 53.3 146.9 48.6 146.9 48.6 C 147.2 47.9 147.4 47.8 148.1 47.8 C 148.1 47.77 148.6 47.8 148.6 47.8 L 148.6 48.6 C 148.6 48.6 148.41 48.65 148.4 48.6 C 148.1 48.6 148 48.7 147.9 49 C 147.9 49 144.6 56.9 144.6 56.9 C 144.2 57.8 143.5 58.5 142.5 58.5 C 141.42 58.46 140.8 57.7 140.8 57.7 C 140.8 57.7 141.32 56.98 141.3 57 C 141.3 57 141.8 57.5 142.4 57.5 Z M 150.1 46 C 150.1 45.8 149.9 45.6 149.7 45.6 C 149.73 45.65 149.1 45.6 149.1 45.6 L 149.1 44.8 C 149.1 44.8 150.17 44.77 150.2 44.8 C 150.8 44.8 151.1 45 151.1 45.6 C 151.08 45.63 151.1 50.6 151.1 50.6 C 151.1 50.6 151.86 50.65 151.9 50.6 C 152.1 50.6 152.5 50.6 152.7 50.3 C 152.72 50.29 154.7 47.8 154.7 47.8 L 155.9 47.8 C 155.9 47.8 153.72 50.53 153.7 50.5 C 153.35 50.99 153.2 51.1 153.2 51.1 L 153.2 51.1 C 153.2 51.1 153.38 51.2 153.6 51.6 C 153.6 51.6 155 54.1 155 54.1 C 155.1 54.4 155.3 54.4 155.7 54.4 C 155.67 54.43 156.1 54.4 156.1 54.4 L 156.1 55.3 C 156.1 55.3 155.37 55.31 155.4 55.3 C 154.6 55.3 154.4 55.2 154.1 54.6 C 154.1 54.6 152.6 51.9 152.6 51.9 C 152.4 51.6 152 51.5 151.8 51.5 C 151.77 51.53 151.1 51.5 151.1 51.5 L 151.1 55.3 L 150.1 55.3 C 150.1 55.3 150.06 45.98 150.1 46 Z M 157.5 46 C 157.5 45.8 157.3 45.6 157.1 45.6 C 157.13 45.65 156.5 45.6 156.5 45.6 L 156.5 44.8 C 156.5 44.8 157.56 44.77 157.6 44.8 C 158.2 44.8 158.5 45 158.5 45.7 C 158.5 45.7 158.5 54.1 158.5 54.1 C 158.5 54.3 158.6 54.4 158.8 54.4 C 158.81 54.43 159.4 54.4 159.4 54.4 L 159.4 55.3 C 159.4 55.3 158.37 55.31 158.4 55.3 C 157.7 55.3 157.5 55 157.5 54.4 C 157.5 54.4 157.5 46 157.5 46 Z M 164.4 47.6 C 166.6 47.6 168.4 49.3 168.4 51.5 C 168.4 53.8 166.6 55.5 164.4 55.5 C 162.2 55.5 160.4 53.8 160.4 51.5 C 160.4 49.3 162.2 47.6 164.4 47.6 Z M 164.4 54.6 C 166 54.6 167.4 53.3 167.4 51.5 C 167.4 49.8 166 48.5 164.4 48.5 C 162.8 48.5 161.5 49.8 161.5 51.5 C 161.5 53.3 162.8 54.6 164.4 54.6 Z M 169.7 49 C 169.6 48.7 169.5 48.6 169.2 48.6 C 169.2 48.65 169.1 48.6 169.1 48.6 L 169.1 47.8 C 169.1 47.8 169.47 47.77 169.5 47.8 C 170.2 47.8 170.4 47.9 170.7 48.6 C 170.7 48.6 172.5 53.3 172.5 53.3 C 172.62 53.68 172.7 54.2 172.7 54.2 L 172.8 54.2 C 172.8 54.2 172.89 53.68 173 53.3 C 173 53.3 174.8 48.6 174.8 48.6 C 175.1 47.9 175.3 47.8 176 47.8 C 176.02 47.77 176.4 47.8 176.4 47.8 L 176.4 48.6 C 176.4 48.6 176.28 48.65 176.3 48.6 C 176 48.6 175.8 48.7 175.8 49 C 175.76 48.99 173.3 55.3 173.3 55.3 L 172.2 55.3 C 172.2 55.3 169.73 48.99 169.7 49 Z " stroke="none" fill="#000"/>  </g>  <g id="Polygon80860">    <path d="M 61.2 35.3 C 61.2 35.3 62 36.5 63.6 36.5 C 65.1 36.5 66.3 35.4 66.3 34 C 66.3 32.6 65.1 31.6 63.5 31.6 C 62.36 31.56 61.5 32.1 61.5 32.1 L 61 31.9 C 61 31.9 61.43 27.68 61.4 27.7 C 61.5 27 61.7 26.8 62.3 26.8 C 62.3 26.8 65.8 26.8 65.8 26.8 C 66.4 26.8 66.7 27 66.7 27.7 C 66.71 27.68 66.7 28.7 66.7 28.7 L 65.7 28.7 C 65.7 28.7 65.73 28.02 65.7 28 C 65.7 27.8 65.6 27.7 65.4 27.7 C 65.4 27.7 62.7 27.7 62.7 27.7 C 62.5 27.7 62.4 27.8 62.4 28 C 62.4 28 62.1 30.4 62.1 30.4 C 62.09 30.79 62 31 62 31 L 62.1 31 C 62.1 31 62.73 30.62 63.7 30.6 C 65.8 30.6 67.4 32.1 67.4 34.1 C 67.4 35.9 65.8 37.5 63.6 37.5 C 61.55 37.49 60.5 36 60.5 36 L 61.2 35.3 Z M 73.7 30.6 L 72.8 30.6 L 72.8 29.8 L 73.8 29.8 L 73.8 27.7 L 74.8 27.7 L 74.8 29.8 L 76.7 29.8 L 76.7 30.6 L 74.8 30.6 C 74.8 30.6 74.76 34.46 74.8 34.5 C 74.8 36.2 75.9 36.5 76.5 36.5 C 76.67 36.46 76.8 36.4 76.8 36.4 L 76.8 37.3 C 76.8 37.3 76.62 37.37 76.4 37.4 C 75.5 37.4 73.7 37.1 73.7 34.6 C 73.74 34.57 73.7 30.6 73.7 30.6 Z M 81.5 29.6 C 83.6 29.6 84.7 31.2 84.7 33.1 C 84.71 33.24 84.7 33.6 84.7 33.6 C 84.7 33.6 78.89 33.57 78.9 33.6 C 78.9 35.5 80.3 36.6 81.8 36.6 C 83.19 36.58 84.1 35.6 84.1 35.6 L 84.6 36.4 C 84.6 36.4 83.48 37.49 81.8 37.5 C 79.5 37.5 77.8 35.9 77.8 33.5 C 77.8 31.1 79.5 29.6 81.5 29.6 Z M 83.7 32.8 C 83.6 31.2 82.6 30.4 81.5 30.4 C 80.3 30.4 79.2 31.2 78.9 32.8 C 78.9 32.8 83.7 32.8 83.7 32.8 Z M 86.7 28 C 86.7 27.8 86.6 27.6 86.4 27.6 C 86.37 27.65 85.7 27.6 85.7 27.6 L 85.7 26.8 C 85.7 26.8 86.81 26.77 86.8 26.8 C 87.5 26.8 87.7 27 87.7 27.6 C 87.7 27.6 87.7 30.8 87.7 30.8 C 87.72 31.19 87.7 31.5 87.7 31.5 C 87.7 31.5 87.72 31.46 87.7 31.5 C 88 30.7 89 29.6 90.7 29.6 C 92.6 29.6 93.2 30.6 93.2 32.5 C 93.2 32.5 93.2 36.1 93.2 36.1 C 93.2 36.3 93.4 36.4 93.6 36.4 C 93.57 36.43 94.2 36.4 94.2 36.4 L 94.2 37.3 C 94.2 37.3 93.14 37.31 93.1 37.3 C 92.5 37.3 92.2 37 92.2 36.4 C 92.2 36.4 92.2 32.8 92.2 32.8 C 92.2 31.6 92 30.5 90.6 30.5 C 89.3 30.5 88.2 31.4 87.8 32.7 C 87.8 33 87.7 33.3 87.7 33.7 C 87.72 33.7 87.7 37.3 87.7 37.3 L 86.7 37.3 C 86.7 37.3 86.7 27.98 86.7 28 Z M 99.1 29.6 C 101.3 29.6 103.1 31.3 103.1 33.5 C 103.1 35.8 101.3 37.5 99.1 37.5 C 96.9 37.5 95.1 35.8 95.1 33.5 C 95.1 31.3 96.9 29.6 99.1 29.6 Z M 99.1 36.6 C 100.7 36.6 102 35.3 102 33.5 C 102 31.8 100.7 30.5 99.1 30.5 C 97.5 30.5 96.2 31.8 96.2 33.5 C 96.2 35.3 97.5 36.6 99.1 36.6 Z M 105.1 30.6 L 104.1 30.6 L 104.1 29.8 L 105.1 29.8 L 105.1 27.7 L 106.1 27.7 L 106.1 29.8 L 108 29.8 L 108 30.6 L 106.1 30.6 C 106.1 30.6 106.1 34.46 106.1 34.5 C 106.1 36.2 107.2 36.5 107.8 36.5 C 108 36.46 108.1 36.4 108.1 36.4 L 108.1 37.3 C 108.1 37.3 107.96 37.37 107.7 37.4 C 106.8 37.4 105.1 37.1 105.1 34.6 C 105.08 34.57 105.1 30.6 105.1 30.6 Z M 112.9 29.6 C 115 29.6 116 31.2 116 33.1 C 116.04 33.24 116 33.6 116 33.6 C 116 33.6 110.22 33.57 110.2 33.6 C 110.3 35.5 111.6 36.6 113.1 36.6 C 114.53 36.58 115.4 35.6 115.4 35.6 L 115.9 36.4 C 115.9 36.4 114.81 37.49 113.1 37.5 C 110.9 37.5 109.2 35.9 109.2 33.5 C 109.2 31.1 110.9 29.6 112.9 29.6 Z M 115 32.8 C 114.9 31.2 114 30.4 112.9 30.4 C 111.6 30.4 110.5 31.2 110.3 32.8 C 110.3 32.8 115 32.8 115 32.8 Z M 118.1 31 C 118.1 30.8 118 30.6 117.8 30.6 C 117.75 30.65 117.1 30.6 117.1 30.6 L 117.1 29.8 C 117.1 29.8 118.17 29.77 118.2 29.8 C 118.8 29.8 119.1 30 119.1 30.6 C 119.1 30.6 119.1 30.9 119.1 30.9 C 119.09 31.25 119.1 31.5 119.1 31.5 C 119.1 31.5 119.09 31.49 119.1 31.5 C 119.4 30.8 120.3 29.6 122.1 29.6 C 124 29.6 124.6 30.6 124.6 32.5 C 124.6 32.5 124.6 36.1 124.6 36.1 C 124.6 36.3 124.7 36.4 125 36.4 C 124.95 36.43 125.6 36.4 125.6 36.4 L 125.6 37.3 C 125.6 37.3 124.52 37.31 124.5 37.3 C 123.9 37.3 123.6 37 123.6 36.4 C 123.6 36.4 123.6 32.8 123.6 32.8 C 123.6 31.6 123.4 30.5 122 30.5 C 120.7 30.5 119.6 31.4 119.2 32.7 C 119.1 33 119.1 33.3 119.1 33.7 C 119.1 33.7 119.1 37.3 119.1 37.3 L 118.1 37.3 C 118.1 37.3 118.08 30.98 118.1 31 Z M 126.9 35.5 C 126.9 35.5 127.76 36.61 129.2 36.6 C 130.1 36.6 130.8 36.2 130.8 35.4 C 130.8 33.8 126.6 34.1 126.6 31.6 C 126.6 30.3 127.8 29.6 129.3 29.6 C 130.1 29.6 131.6 29.9 131.6 30.9 C 131.58 30.95 131.6 31.6 131.6 31.6 L 130.6 31.6 C 130.6 31.6 130.62 31.23 130.6 31.2 C 130.6 30.7 129.8 30.5 129.3 30.5 C 128.3 30.5 127.6 30.8 127.6 31.6 C 127.6 33.3 131.9 32.9 131.9 35.4 C 131.9 36.6 130.7 37.5 129.2 37.5 C 127.26 37.49 126.3 36.2 126.3 36.2 L 126.9 35.5 Z M 133.9 30.6 L 132.9 30.6 L 132.9 29.8 L 133.9 29.8 L 133.9 27.7 L 134.9 27.7 L 134.9 29.8 L 136.8 29.8 L 136.8 30.6 L 134.9 30.6 C 134.9 30.6 134.91 34.46 134.9 34.5 C 134.9 36.2 136 36.5 136.6 36.5 C 136.82 36.46 137 36.4 137 36.4 L 137 37.3 C 137 37.3 136.77 37.37 136.5 37.4 C 135.6 37.4 133.9 37.1 133.9 34.6 C 133.89 34.57 133.9 30.6 133.9 30.6 Z M 138.9 26.8 L 139.9 26.8 L 139.9 28.1 L 138.9 28.1 L 138.9 26.8 Z M 138.9 31 C 138.9 30.8 138.8 30.6 138.6 30.6 C 138.57 30.65 137.9 30.6 137.9 30.6 L 137.9 29.8 C 137.9 29.8 139.01 29.77 139 29.8 C 139.7 29.8 139.9 30 139.9 30.7 C 139.9 30.7 139.9 36.1 139.9 36.1 C 139.9 36.3 140 36.4 140.2 36.4 C 140.25 36.43 140.9 36.4 140.9 36.4 L 140.9 37.3 C 140.9 37.3 139.82 37.31 139.8 37.3 C 139.2 37.3 138.9 37 138.9 36.4 C 138.9 36.4 138.9 31 138.9 31 Z M 145.6 29.6 C 147.7 29.6 148.8 31.2 148.8 33.1 C 148.77 33.24 148.7 33.6 148.7 33.6 C 148.7 33.6 142.95 33.57 142.9 33.6 C 143 35.5 144.3 36.6 145.9 36.6 C 147.26 36.58 148.1 35.6 148.1 35.6 L 148.6 36.4 C 148.6 36.4 147.54 37.49 145.8 37.5 C 143.6 37.5 141.9 35.9 141.9 33.5 C 141.9 31.1 143.6 29.6 145.6 29.6 Z M 147.7 32.8 C 147.7 31.2 146.7 30.4 145.6 30.4 C 144.3 30.4 143.2 31.2 143 32.8 C 143 32.8 147.7 32.8 147.7 32.8 Z M 150.4 31 C 150.3 30.7 150.1 30.6 149.9 30.6 C 149.85 30.65 149.7 30.6 149.7 30.6 L 149.7 29.8 C 149.7 29.8 150.12 29.77 150.1 29.8 C 150.8 29.8 151.1 29.9 151.3 30.6 C 151.3 30.6 153.1 35.3 153.1 35.3 C 153.27 35.68 153.4 36.2 153.4 36.2 L 153.4 36.2 C 153.4 36.2 153.54 35.68 153.7 35.3 C 153.7 35.3 155.5 30.6 155.5 30.6 C 155.7 29.9 156 29.8 156.7 29.8 C 156.67 29.77 157.1 29.8 157.1 29.8 L 157.1 30.6 C 157.1 30.6 156.93 30.65 156.9 30.6 C 156.7 30.6 156.5 30.7 156.4 31 C 156.4 30.99 153.9 37.3 153.9 37.3 L 152.8 37.3 C 152.8 37.3 150.38 30.99 150.4 31 Z " stroke="none" fill="#000"/>  </g></svg>