<?xml version="1.0" standalone="no"?><!DOCTYPE svg PUBLIC "-//W3C//DTD SVG 1.1//EN" "http://www.w3.org/Graphics/SVG/1.1/DTD/svg11.dtd"><svg xmlns="http://www.w3.org/2000/svg" version="1.1" width="44px" height="19.5px" viewBox="0 -1 44 19.5" style="top:-1px">  <desc>47.4%</desc>  <defs/>  <g id="Polygon79375">    <path d="M 8.2 10 L 8.2 9.9 L 11 4 L 11.1 4 L 11.9 4.1 L 11.9 4.2 L 9.2 9.7 L 9.2 9.7 L 11.8 9.7 L 12.1 6.8 L 12.7 6.8 L 12.7 9.7 L 13.7 9.7 L 13.7 10.5 L 12.7 10.5 L 12.7 12.5 L 11.8 12.5 L 11.8 10.5 L 8.4 10.5 L 8.2 10 Z M 15.4 12.6 L 14.7 12.5 L 14.7 12.3 L 17.3 4.9 L 14.1 4.9 L 14 4.2 L 14.1 4.1 L 18 4.1 L 18.2 4.6 L 18.2 4.9 L 15.6 12.5 L 15.4 12.6 Z M 19.6 11.9 C 19.6 12.3 19.4 12.5 19 12.5 C 18.6 12.5 18.4 12.3 18.4 11.9 C 18.4 11.6 18.6 11.4 19 11.4 C 19.2 11.4 19.3 11.4 19.4 11.5 C 19.5 11.6 19.6 11.7 19.6 11.9 C 19.6 11.9 19.6 11.9 19.6 11.9 Z M 20.4 10 L 20.4 9.9 L 23.1 4 L 23.2 4 L 24 4.1 L 24 4.2 L 21.3 9.7 L 21.3 9.7 L 24 9.7 L 24.2 6.8 L 24.9 6.8 L 24.9 9.7 L 25.9 9.7 L 25.9 10.5 L 24.9 10.5 L 24.9 12.5 L 24 12.5 L 24 10.5 L 20.6 10.5 L 20.4 10 Z M 28.4 9.3 C 27.8 9.3 27.3 9.1 27 8.6 C 26.7 8.2 26.5 7.5 26.5 6.6 C 26.5 5.8 26.7 5.1 27 4.6 C 27.3 4.2 27.8 4 28.4 4 C 29 4 29.4 4.2 29.8 4.6 C 30.1 5.1 30.2 5.8 30.2 6.6 C 30.2 7.5 30.1 8.2 29.8 8.6 C 29.4 9.1 29 9.3 28.4 9.3 Z M 27.3 6.6 C 27.3 8 27.6 8.6 28.4 8.6 C 29.1 8.6 29.5 8 29.5 6.6 C 29.5 5.3 29.1 4.6 28.4 4.6 C 27.6 4.6 27.3 5.3 27.3 6.6 C 27.3 6.6 27.3 6.6 27.3 6.6 Z M 33.6 12.6 C 33 12.6 32.6 12.4 32.3 11.9 C 32 11.5 31.8 10.8 31.8 10 C 31.8 9.1 32 8.4 32.3 8 C 32.6 7.5 33 7.3 33.6 7.3 C 34.3 7.3 34.7 7.5 35 8 C 35.3 8.4 35.5 9.1 35.5 10 C 35.5 10.8 35.3 11.5 35 11.9 C 34.7 12.4 34.3 12.6 33.6 12.6 Z M 32.5 10 C 32.5 11.3 32.9 12 33.6 12 C 34.4 12 34.8 11.3 34.8 10 C 34.8 8.6 34.4 8 33.6 8 C 32.9 8 32.5 8.6 32.5 10 C 32.5 10 32.5 10 32.5 10 Z M 32.2 4.1 L 33 4.1 L 29.7 12.5 L 28.9 12.5 L 32.2 4.1 Z " stroke="none" fill="#68adca"/>  </g></svg>