<?xml version="1.0" standalone="no"?><!DOCTYPE svg PUBLIC "-//W3C//DTD SVG 1.1//EN" "http://www.w3.org/Graphics/SVG/1.1/DTD/svg11.dtd"><svg xmlns="http://www.w3.org/2000/svg" version="1.1" width="353px" height="43.5px" viewBox="0 -5 353 43.5" style="top:-5px">  <desc>Hemostatick profil</desc>  <defs/>  <g id="Polygon66257">    <path d="M 3.2 3.9 C 3.2 3.5 3 3.3 2.5 3.3 C 2.55 3.27 1.3 3.3 1.3 3.3 L 1.3 1.4 C 1.3 1.4 3.48 1.41 3.5 1.4 C 4.8 1.4 5.3 2 5.3 3.2 C 5.31 3.24 5.3 11 5.3 11 L 17.4 11 C 17.4 11 17.43 3.24 17.4 3.2 C 17.4 2 18 1.4 19.2 1.4 C 19.23 1.41 21.5 1.4 21.5 1.4 L 21.5 3.3 C 21.5 3.3 20.19 3.27 20.2 3.3 C 19.8 3.3 19.5 3.5 19.5 3.9 C 19.53 3.93 19.5 22.5 19.5 22.5 L 17.4 22.5 L 17.4 12.9 L 5.3 12.9 L 5.3 22.5 L 3.2 22.5 C 3.2 22.5 3.21 3.93 3.2 3.9 Z M 31.2 7.1 C 35.4 7.1 37.5 10.3 37.5 14 C 37.53 14.37 37.5 15 37.5 15 C 37.5 15 25.89 15.03 25.9 15 C 25.9 18.8 28.6 21 31.7 21 C 34.5 21.03 36.3 19.2 36.3 19.2 L 37.3 20.7 C 37.3 20.7 35.07 22.86 31.6 22.9 C 27.2 22.9 23.8 19.6 23.8 15 C 23.8 10 27.1 7.1 31.2 7.1 Z M 35.4 13.4 C 35.3 10.3 33.4 8.8 31.2 8.8 C 28.7 8.8 26.5 10.4 26 13.4 C 26 13.4 35.4 13.4 35.4 13.4 Z M 41.6 9.8 C 41.6 9.4 41.4 9.2 40.9 9.2 C 40.95 9.18 39.7 9.2 39.7 9.2 L 39.7 7.4 C 39.7 7.4 41.79 7.41 41.8 7.4 C 43 7.4 43.6 8 43.6 9.1 C 43.6 9.1 43.6 9.8 43.6 9.8 C 43.62 10.38 43.6 10.9 43.6 10.9 C 43.6 10.9 43.62 10.86 43.6 10.9 C 44.4 8.8 46.7 7.1 49.1 7.1 C 51.9 7.1 53.3 8.3 53.8 10.8 C 53.8 10.8 53.8 10.8 53.8 10.8 C 54.6 8.8 56.8 7.1 59.4 7.1 C 63 7.1 64.4 9.2 64.4 12.9 C 64.4 12.9 64.4 20.1 64.4 20.1 C 64.4 20.5 64.6 20.7 65 20.7 C 65.04 20.73 66.3 20.7 66.3 20.7 L 66.3 22.5 C 66.3 22.5 64.17 22.5 64.2 22.5 C 62.9 22.5 62.3 22 62.3 20.7 C 62.3 20.7 62.3 13.4 62.3 13.4 C 62.3 10.9 61.8 8.9 59.1 8.9 C 56.8 8.9 54.9 10.9 54.3 13.2 C 54.1 13.8 54 14.6 54 15.4 C 54.03 15.36 54 22.5 54 22.5 L 52 22.5 C 52 22.5 51.99 13.41 52 13.4 C 52 11.1 51.7 8.9 48.8 8.9 C 46.3 8.9 44.5 11 43.9 13.4 C 43.7 14 43.6 14.7 43.6 15.4 C 43.65 15.36 43.6 22.5 43.6 22.5 L 41.6 22.5 C 41.6 22.5 41.61 9.84 41.6 9.8 Z M 76.1 7.1 C 80.5 7.1 84.1 10.4 84.1 14.9 C 84.1 19.4 80.5 22.9 76.1 22.9 C 71.7 22.9 68.1 19.4 68.1 14.9 C 68.1 10.4 71.7 7.1 76.1 7.1 Z M 76.1 21 C 79.3 21 82 18.4 82 14.9 C 82 11.5 79.3 8.9 76.1 8.9 C 72.9 8.9 70.2 11.5 70.2 14.9 C 70.2 18.4 72.9 21 76.1 21 Z M 87.3 18.8 C 87.3 18.8 88.98 21.09 91.9 21.1 C 93.6 21.1 95.1 20.3 95.1 18.7 C 95.1 15.4 86.7 16 86.7 11.1 C 86.7 8.4 89 7.1 92 7.1 C 93.6 7.1 96.6 7.7 96.6 9.8 C 96.63 9.78 96.6 11.1 96.6 11.1 L 94.7 11.1 C 94.7 11.1 94.71 10.35 94.7 10.4 C 94.7 9.2 93.1 8.8 92.1 8.8 C 90 8.8 88.7 9.5 88.7 11 C 88.7 14.4 97.2 13.6 97.2 18.6 C 97.2 21.1 94.9 22.9 91.9 22.9 C 87.99 22.86 86.1 20.2 86.1 20.2 L 87.3 18.8 Z M 101.2 9.1 L 99.3 9.1 L 99.3 7.4 L 101.3 7.4 L 101.3 3.2 L 103.3 3.2 L 103.3 7.4 L 107.1 7.4 L 107.1 9.1 L 103.3 9.1 C 103.3 9.1 103.29 16.8 103.3 16.8 C 103.3 20.3 105.5 20.8 106.7 20.8 C 107.1 20.79 107.4 20.7 107.4 20.7 L 107.4 22.6 C 107.4 22.6 107.01 22.62 106.5 22.6 C 104.8 22.6 101.2 22.1 101.2 17 C 101.25 17.01 101.2 9.1 101.2 9.1 Z M 118.7 13.2 C 118.74 13.2 119.6 13.2 119.6 13.2 C 119.6 13.2 119.58 13.02 119.6 13 C 119.6 9.9 118.4 8.8 115.7 8.8 C 114.9 8.8 112.7 9 112.7 10.1 C 112.74 10.08 112.7 11 112.7 11 L 110.8 11 C 110.8 11 110.79 9.6 110.8 9.6 C 110.8 7.5 114.4 7.1 115.7 7.1 C 120.5 7.1 121.6 9.6 121.6 12.8 C 121.6 12.8 121.6 20.1 121.6 20.1 C 121.6 20.5 121.9 20.7 122.3 20.7 C 122.28 20.73 123.5 20.7 123.5 20.7 L 123.5 22.5 C 123.5 22.5 121.47 22.5 121.5 22.5 C 120.2 22.5 119.7 21.9 119.7 20.7 C 119.67 20.04 119.7 19.6 119.7 19.6 C 119.7 19.6 119.64 19.59 119.6 19.6 C 119.7 19.6 118.4 22.9 114.6 22.9 C 112.1 22.9 109.5 21.4 109.5 18.4 C 109.5 13.4 116.1 13.2 118.7 13.2 Z M 115 21.1 C 117.8 21.1 119.6 18.1 119.6 15.5 C 119.58 15.51 119.6 14.8 119.6 14.8 C 119.6 14.8 118.71 14.82 118.7 14.8 C 116.3 14.8 111.6 14.9 111.6 18.3 C 111.6 19.7 112.7 21.1 115 21.1 Z M 127 9.1 L 125 9.1 L 125 7.4 L 127 7.4 L 127 3.2 L 129 3.2 L 129 7.4 L 132.8 7.4 L 132.8 9.1 L 129 9.1 C 129 9.1 129 16.8 129 16.8 C 129 20.3 131.2 20.8 132.4 20.8 C 132.81 20.79 133.1 20.7 133.1 20.7 L 133.1 22.6 C 133.1 22.6 132.72 22.62 132.2 22.6 C 130.5 22.6 127 22.1 127 17 C 126.96 17.01 127 9.1 127 9.1 Z M 136.9 1.4 L 138.9 1.4 L 138.9 4 L 136.9 4 L 136.9 1.4 Z M 137 9.8 C 137 9.4 136.7 9.2 136.3 9.2 C 136.32 9.18 135.1 9.2 135.1 9.2 L 135.1 7.4 C 135.1 7.4 137.19 7.41 137.2 7.4 C 138.5 7.4 139 8 139 9.2 C 139 9.2 139 20.1 139 20.1 C 139 20.5 139.3 20.7 139.7 20.7 C 139.68 20.73 140.9 20.7 140.9 20.7 L 140.9 22.5 C 140.9 22.5 138.81 22.5 138.8 22.5 C 137.5 22.5 137 22 137 20.7 C 137 20.7 137 9.8 137 9.8 Z M 150.9 7.1 C 152.6 7.1 156.3 7.8 156.3 10.3 C 156.27 10.26 156.3 11.6 156.3 11.6 L 154.3 11.6 C 154.3 11.6 154.35 10.74 154.3 10.7 C 154.3 9.5 152.2 8.9 150.9 8.9 C 147.7 8.9 145 11.3 145 15 C 145 18.7 147.8 21 151 21 C 154.05 21 155.8 18.9 155.8 18.9 L 156.8 20.4 C 156.8 20.4 154.74 22.86 150.9 22.9 C 146.4 22.9 142.9 19.7 142.9 15 C 142.9 10.4 146.4 7.1 150.9 7.1 Z M 160 3.8 C 160 3.4 159.8 3.2 159.4 3.2 C 159.36 3.18 158.1 3.2 158.1 3.2 L 158.1 1.4 C 158.1 1.4 160.23 1.41 160.2 1.4 C 161.5 1.4 162.1 1.9 162.1 3.1 C 162.06 3.15 162.1 13.2 162.1 13.2 C 162.1 13.2 163.62 13.17 163.6 13.2 C 164.2 13.2 164.9 13 165.3 12.4 C 165.33 12.45 169.2 7.4 169.2 7.4 L 171.7 7.4 C 171.7 7.4 167.34 12.93 167.3 12.9 C 166.59 13.86 166.2 14 166.2 14 L 166.2 14.1 C 166.2 14.1 166.65 14.28 167.1 15.2 C 167.1 15.2 169.9 20.1 169.9 20.1 C 170.1 20.6 170.4 20.7 171.2 20.7 C 171.24 20.73 172 20.7 172 20.7 L 172 22.5 C 172 22.5 170.64 22.5 170.6 22.5 C 169.1 22.5 168.7 22.3 168 21 C 168 21 165 15.6 165 15.6 C 164.7 15 164 14.9 163.4 14.9 C 163.44 14.94 162.1 14.9 162.1 14.9 L 162.1 22.5 L 160 22.5 C 160 22.5 160.02 3.84 160 3.8 Z M 175.6 27 C 176.9 27 177.8 25.9 178.3 24.5 C 178.35 24.51 179.2 22.4 179.2 22.4 C 179.2 22.4 173.94 9.87 173.9 9.9 C 173.7 9.3 173.4 9.2 172.9 9.2 C 172.89 9.18 172.6 9.2 172.6 9.2 L 172.6 7.4 C 172.6 7.4 173.52 7.41 173.5 7.4 C 174.9 7.4 175.3 7.7 175.8 9.1 C 175.8 9.1 179.7 18.5 179.7 18.5 C 180 19.23 180.2 20.1 180.2 20.1 L 180.3 20.1 C 180.3 20.1 180.51 19.23 180.8 18.5 C 180.8 18.5 184.5 9.1 184.5 9.1 C 185 7.7 185.5 7.4 186.9 7.4 C 186.87 7.41 187.8 7.4 187.8 7.4 L 187.8 9.2 C 187.8 9.2 187.5 9.18 187.5 9.2 C 187 9.2 186.7 9.3 186.4 9.9 C 186.4 9.9 179.9 25.6 179.9 25.6 C 179.2 27.6 177.6 28.8 175.6 28.8 C 173.52 28.8 172.3 27.3 172.3 27.3 C 172.3 27.3 173.31 25.83 173.3 25.8 C 173.3 25.9 174.3 27 175.6 27 Z M 181.3 1.4 L 183.6 1.4 L 181 5 L 179.2 5 L 181.3 1.4 Z M 199 9.8 C 199 9.4 198.8 9.2 198.4 9.2 C 198.39 9.18 197.1 9.2 197.1 9.2 L 197.1 7.4 C 197.1 7.4 199.2 7.41 199.2 7.4 C 200.5 7.4 201 8 201 9 C 201 9.6 201 10 201 10 L 201 10 C 201 10 202.23 7.05 206.2 7.1 C 210.3 7.1 212.8 10.3 212.8 15 C 212.8 19.7 209.9 22.9 206 22.9 C 202.35 22.86 201.1 20 201.1 20 L 201 20 C 201 20 201.09 20.55 201.1 21.3 C 201.09 21.33 201.1 28.5 201.1 28.5 L 199 28.5 C 199 28.5 199.05 9.84 199 9.8 Z M 205.8 21.1 C 208.5 21.1 210.7 18.8 210.7 15 C 210.7 11.3 208.7 8.9 205.9 8.9 C 203.4 8.9 201 10.7 201 15 C 201 18 202.7 21.1 205.8 21.1 Z M 216.7 9.8 C 216.7 9.4 216.4 9.2 216 9.2 C 216 9.18 214.7 9.2 214.7 9.2 L 214.7 7.4 C 214.7 7.4 216.84 7.41 216.8 7.4 C 218.1 7.4 218.7 7.9 218.7 9.1 C 218.7 9.1 218.7 10.1 218.7 10.1 C 218.67 10.77 218.6 11.3 218.6 11.3 C 218.6 11.3 218.67 11.28 218.7 11.3 C 219.4 9 221.1 7.3 223.4 7.3 C 223.86 7.26 224.2 7.4 224.2 7.4 L 224.2 9.4 C 224.2 9.4 223.89 9.3 223.5 9.3 C 221.4 9.3 219.8 11 219.1 13.2 C 218.8 14.2 218.7 15.2 218.7 16.1 C 218.7 16.14 218.7 22.5 218.7 22.5 L 216.7 22.5 C 216.7 22.5 216.66 9.84 216.7 9.8 Z M 233.5 7.1 C 237.9 7.1 241.4 10.4 241.4 14.9 C 241.4 19.4 237.9 22.9 233.5 22.9 C 229.1 22.9 225.5 19.4 225.5 14.9 C 225.5 10.4 229.1 7.1 233.5 7.1 Z M 233.5 21 C 236.7 21 239.3 18.4 239.3 14.9 C 239.3 11.5 236.7 8.9 233.5 8.9 C 230.2 8.9 227.6 11.5 227.6 14.9 C 227.6 18.4 230.2 21 233.5 21 Z M 245.3 9.1 L 243.4 9.1 L 243.4 7.4 L 245.3 7.4 C 245.3 7.4 245.28 6.87 245.3 6.9 C 245.3 1.9 248.8 1.3 250.5 1.3 C 251.04 1.26 251.4 1.3 251.4 1.3 L 251.4 3.1 C 251.4 3.1 251.1 3.09 250.6 3.1 C 249.5 3.1 247.3 3.5 247.3 6.9 C 247.32 6.87 247.3 7.4 247.3 7.4 C 247.3 7.4 254.46 7.41 254.5 7.4 C 255.7 7.4 256.3 8 256.3 9.2 C 256.3 9.2 256.3 20.1 256.3 20.1 C 256.3 20.5 256.5 20.7 256.9 20.7 C 256.95 20.73 258.2 20.7 258.2 20.7 L 258.2 22.5 C 258.2 22.5 256.08 22.5 256.1 22.5 C 254.8 22.5 254.2 22 254.2 20.7 C 254.2 20.7 254.2 9.8 254.2 9.8 C 254.2 9.4 254 9.1 253.6 9.1 C 253.59 9.12 247.3 9.1 247.3 9.1 L 247.3 22.5 L 245.3 22.5 L 245.3 9.1 Z M 254.2 1.4 L 256.2 1.4 L 256.2 4 L 254.2 4 L 254.2 1.4 Z M 261.6 3.8 C 261.6 3.4 261.4 3.2 260.9 3.2 C 260.94 3.18 259.7 3.2 259.7 3.2 L 259.7 1.4 C 259.7 1.4 261.81 1.41 261.8 1.4 C 263.1 1.4 263.6 2 263.6 3.2 C 263.6 3.2 263.6 20.1 263.6 20.1 C 263.6 20.5 263.9 20.7 264.3 20.7 C 264.3 20.73 265.6 20.7 265.6 20.7 L 265.6 22.5 C 265.6 22.5 263.43 22.5 263.4 22.5 C 262.1 22.5 261.6 22 261.6 20.7 C 261.6 20.7 261.6 3.8 261.6 3.8 Z " stroke="none" fill="#ee3078"/>  </g></svg>