<?xml version="1.0" standalone="no"?><!DOCTYPE svg PUBLIC "-//W3C//DTD SVG 1.1//EN" "http://www.w3.org/Graphics/SVG/1.1/DTD/svg11.dtd"><svg xmlns="http://www.w3.org/2000/svg" version="1.1" width="18px" height="15.5px" viewBox="0 -2 18 15.5" style="top:-2px">  <desc>100</desc>  <defs/>  <g id="Polygon73105">    <path d="M 1.6 6.9 L 3.1 6.9 C 3.1 6.9 3.14 1.72 3.1 1.7 C 3.14 1.52 3.1 1.3 3.1 1.3 L 3.1 1.3 C 3.1 1.3 3.06 1.48 2.8 1.8 C 2.78 1.75 2 2.5 2 2.5 L 1.6 2.1 L 3.2 0.5 L 3.8 0.5 L 3.8 6.9 L 5.4 6.9 L 5.4 7.5 L 1.6 7.5 L 1.6 6.9 Z M 6.1 4 C 6.1 2 6.7 0.4 8.5 0.4 C 10.4 0.4 11 2 11 4 C 11 6 10.4 7.6 8.5 7.6 C 6.7 7.6 6.1 6 6.1 4 Z M 10.3 4 C 10.3 2.3 9.9 1 8.5 1 C 7.2 1 6.8 2.3 6.8 4 C 6.8 5.7 7.2 7 8.5 7 C 9.9 7 10.3 5.7 10.3 4 Z M 12.1 4 C 12.1 2 12.7 0.4 14.6 0.4 C 16.4 0.4 17 2 17 4 C 17 6 16.4 7.6 14.6 7.6 C 12.7 7.6 12.1 6 12.1 4 Z M 16.3 4 C 16.3 2.3 15.9 1 14.6 1 C 13.2 1 12.9 2.3 12.9 4 C 12.9 5.7 13.2 7 14.6 7 C 15.9 7 16.3 5.7 16.3 4 Z " stroke="none" fill="#000"/>  </g></svg>