<?xml version="1.0" standalone="no"?><!DOCTYPE svg PUBLIC "-//W3C//DTD SVG 1.1//EN" "http://www.w3.org/Graphics/SVG/1.1/DTD/svg11.dtd"><svg xmlns="http://www.w3.org/2000/svg" version="1.1" width="16px" height="15.5px" viewBox="0 -2 16 15.5" style="top:-2px">  <desc>80</desc>  <defs/>  <g id="Polygon73693">    <path d="M 5.7 3.7 C 5.7 3.66 5.7 3.6 5.7 3.6 C 5.7 3.6 4.74 3.19 4.7 2.2 C 4.7 1.2 5.5 0.4 6.9 0.4 C 8.2 0.4 9 1.1 9 2.2 C 9 3.3 8.1 4 8.1 4 C 8.1 4 8.1 4 8.1 4 C 8.7 4.3 9.2 4.8 9.2 5.6 C 9.2 6.7 8.2 7.6 6.8 7.6 C 5.6 7.6 4.5 6.9 4.5 5.5 C 4.5 4.3 5.7 3.7 5.7 3.7 Z M 7.4 3.7 C 7.7 3.7 8.3 3 8.3 2.2 C 8.3 1.5 7.7 1 6.9 1 C 6 1 5.4 1.5 5.4 2.2 C 5.4 2.9 6.1 3.2 6.8 3.5 C 7 3.5 7.3 3.7 7.4 3.7 Z M 6.8 7 C 7.7 7 8.5 6.4 8.5 5.6 C 8.5 4.9 7.9 4.6 7.1 4.3 C 6.9 4.2 6.4 4 6.3 4 C 6.1 4 5.2 4.6 5.2 5.5 C 5.2 6.4 6 7 6.8 7 Z M 10.2 4 C 10.2 2 10.8 0.4 12.6 0.4 C 14.4 0.4 15 2 15 4 C 15 6 14.4 7.6 12.6 7.6 C 10.8 7.6 10.2 6 10.2 4 Z M 14.3 4 C 14.3 2.3 13.9 1 12.6 1 C 11.3 1 10.9 2.3 10.9 4 C 10.9 5.7 11.3 7 12.6 7 C 13.9 7 14.3 5.7 14.3 4 Z " stroke="none" fill="#000"/>  </g></svg>