<?xml version="1.0" standalone="no"?><!DOCTYPE svg PUBLIC "-//W3C//DTD SVG 1.1//EN" "http://www.w3.org/Graphics/SVG/1.1/DTD/svg11.dtd"><svg xmlns="http://www.w3.org/2000/svg" version="1.1" width="30px" height="16.8px" viewBox="0 -2 30 16.8" style="top:-2px">  <desc>F IXa</desc>  <defs/>  <g id="Polygon76731">    <path d="M 4.2 0.5 L 8.2 0.5 L 8.2 1.2 L 4.9 1.2 L 4.9 4.1 L 7.8 4.1 L 7.8 4.8 L 4.9 4.8 L 4.9 8.2 L 4.2 8.2 L 4.2 0.5 Z M 12.8 0.5 L 13.5 0.5 L 13.5 8.2 L 12.8 8.2 L 12.8 0.5 Z M 17.4 4.2 L 15.2 0.5 L 16.1 0.5 C 16.1 0.5 17.41 2.81 17.4 2.8 C 17.64 3.2 17.9 3.7 17.9 3.7 L 17.9 3.7 C 17.9 3.7 18.16 3.2 18.4 2.8 C 18.4 2.81 19.8 0.5 19.8 0.5 L 20.7 0.5 L 18.4 4.2 L 20.9 8.2 L 20 8.2 C 20 8.2 18.39 5.58 18.4 5.6 C 18.15 5.18 17.9 4.7 17.9 4.7 L 17.9 4.7 C 17.9 4.7 17.65 5.18 17.4 5.6 C 17.41 5.59 15.8 8.2 15.8 8.2 L 14.9 8.2 L 17.4 4.2 Z M 25 4.8 C 25.01 4.83 25.3 4.8 25.3 4.8 C 25.3 4.8 25.32 4.69 25.3 4.7 C 25.3 3.6 24.7 3.3 23.9 3.3 C 23.03 3.26 22.4 3.8 22.4 3.8 L 22 3.2 C 22 3.2 22.75 2.59 24 2.6 C 25.3 2.6 26.1 3.3 26.1 4.7 C 26.07 4.71 26.1 8.2 26.1 8.2 L 25.4 8.2 C 25.4 8.2 25.35 7.64 25.4 7.6 C 25.4 7.4 25.4 7.2 25.4 7.2 C 25.37 7.18 25.4 7.2 25.4 7.2 C 25.4 7.2 24.89 8.38 23.5 8.4 C 22.6 8.4 21.6 7.8 21.6 6.7 C 21.6 4.9 24.1 4.8 25 4.8 Z M 23.6 7.7 C 24.7 7.7 25.3 6.6 25.3 5.7 C 25.32 5.69 25.3 5.4 25.3 5.4 C 25.3 5.4 25 5.44 25 5.4 C 24.1 5.4 22.4 5.5 22.4 6.7 C 22.4 7.2 22.8 7.7 23.6 7.7 Z " stroke="none" fill="#000"/>  </g></svg>