<?xml version="1.0" standalone="no"?><!DOCTYPE svg PUBLIC "-//W3C//DTD SVG 1.1//EN" "http://www.w3.org/Graphics/SVG/1.1/DTD/svg11.dtd"><svg xmlns="http://www.w3.org/2000/svg" version="1.1" width="44px" height="19.5px" viewBox="0 -1 44 19.5" style="top:-1px">  <desc>81.2%</desc>  <defs/>  <g id="Polygon79746">    <path d="M 3 12.5 C 2.3 12.5 1.6 12.3 1.2 12 C 0.8 11.6 0.5 11.1 0.5 10.4 C 0.5 10.1 0.6 9.8 0.6 9.6 C 0.7 9.3 0.8 9.1 0.9 9 C 1.1 8.8 1.2 8.6 1.4 8.5 C 1.5 8.3 1.7 8.2 1.9 8.1 C 1.6 7.9 1.3 7.7 1.1 7.4 C 0.9 7.1 0.7 6.6 0.7 6.1 C 0.7 5.4 1 4.9 1.4 4.5 C 1.8 4.2 2.3 4 3 4 C 3.8 4 4.3 4.2 4.7 4.5 C 5.1 4.9 5.3 5.4 5.3 6.1 C 5.3 6.7 5.2 7.1 5 7.4 C 4.8 7.7 4.5 8 4.1 8.2 C 4.6 8.4 4.9 8.6 5.2 9 C 5.4 9.3 5.5 9.7 5.5 10.3 C 5.5 11 5.3 11.5 4.9 11.9 C 4.4 12.3 3.8 12.5 3 12.5 Z M 2.6 8.4 C 2.3 8.6 2 8.8 1.7 9.1 C 1.5 9.4 1.4 9.8 1.4 10.3 C 1.4 10.8 1.5 11.2 1.8 11.4 C 2.1 11.7 2.5 11.8 3 11.8 C 3.5 11.8 3.9 11.7 4.2 11.4 C 4.5 11.2 4.7 10.8 4.7 10.4 C 4.7 10.1 4.7 9.9 4.6 9.7 C 4.5 9.5 4.4 9.3 4.2 9.2 C 4.1 9 3.9 8.9 3.7 8.8 C 3.5 8.7 3.2 8.6 2.9 8.5 C 2.9 8.5 2.6 8.4 2.6 8.4 Z M 1.6 6.2 C 1.6 6.4 1.6 6.6 1.7 6.8 C 1.8 7 1.9 7.1 2.1 7.3 C 2.2 7.4 2.4 7.5 2.6 7.6 C 2.8 7.7 3.1 7.8 3.3 7.9 C 3.3 7.9 3.4 7.9 3.4 7.9 C 3.7 7.8 4 7.5 4.2 7.3 C 4.4 7 4.5 6.6 4.5 6.1 C 4.5 5.7 4.4 5.3 4.1 5 C 3.8 4.8 3.5 4.7 3 4.7 C 2.6 4.7 2.2 4.8 2 5.1 C 1.7 5.3 1.6 5.7 1.6 6.2 Z M 8.2 5.2 L 8.2 5.2 L 6.6 6.1 L 6.5 6.1 L 6.3 5.7 L 6.3 5.6 L 8.5 4.1 L 9.1 4.1 L 9.1 12.5 L 8.2 12.5 L 8.2 5.2 Z M 11.9 11.9 C 11.9 12.3 11.7 12.5 11.3 12.5 C 10.9 12.5 10.7 12.3 10.7 11.9 C 10.7 11.6 10.9 11.4 11.3 11.4 C 11.5 11.4 11.6 11.4 11.7 11.5 C 11.8 11.6 11.9 11.7 11.9 11.9 C 11.9 11.9 11.9 11.9 11.9 11.9 Z M 13 11.3 C 13 11 13 10.7 13.1 10.4 C 13.2 10.1 13.3 9.9 13.4 9.6 C 13.6 9.3 13.8 9.1 14.1 8.9 C 14.3 8.6 14.6 8.4 15 8.2 C 15.5 7.8 15.9 7.5 16.1 7.2 C 16.3 6.9 16.4 6.5 16.4 6.1 C 16.4 5.2 15.9 4.8 14.9 4.8 C 14.4 4.8 13.9 4.9 13.3 5.1 C 13.3 5.1 13.2 4.3 13.2 4.3 C 13.5 4.2 13.9 4.1 14.2 4.1 C 14.5 4 14.8 4 15.1 4 C 16.6 4 17.3 4.7 17.3 6.1 C 17.3 6.3 17.3 6.6 17.2 6.8 C 17.2 7 17.1 7.3 16.9 7.5 C 16.8 7.7 16.6 7.9 16.4 8.1 C 16.2 8.3 15.9 8.5 15.6 8.7 C 15.3 8.9 15 9.2 14.8 9.4 C 14.6 9.6 14.4 9.7 14.3 9.9 C 14.1 10.1 14 10.3 14 10.5 C 13.9 10.7 13.9 10.9 13.9 11.2 C 13.88 11.18 13.9 11.7 13.9 11.7 L 17.3 11.7 L 17.3 12.5 L 13 12.5 C 13 12.5 12.97 11.35 13 11.3 Z M 20.1 9.3 C 19.5 9.3 19.1 9.1 18.7 8.6 C 18.4 8.2 18.3 7.5 18.3 6.6 C 18.3 5.8 18.4 5.1 18.8 4.6 C 19.1 4.2 19.5 4 20.1 4 C 20.7 4 21.2 4.2 21.5 4.6 C 21.8 5.1 22 5.8 22 6.6 C 22 7.5 21.8 8.2 21.5 8.6 C 21.2 9.1 20.7 9.3 20.1 9.3 Z M 19 6.6 C 19 8 19.4 8.6 20.1 8.6 C 20.9 8.6 21.2 8 21.2 6.6 C 21.2 5.3 20.9 4.6 20.1 4.6 C 19.4 4.6 19 5.3 19 6.6 C 19 6.6 19 6.6 19 6.6 Z M 25.4 12.6 C 24.8 12.6 24.3 12.4 24 11.9 C 23.7 11.5 23.5 10.8 23.5 10 C 23.5 9.1 23.7 8.4 24 8 C 24.3 7.5 24.8 7.3 25.4 7.3 C 26 7.3 26.5 7.5 26.8 8 C 27.1 8.4 27.2 9.1 27.2 10 C 27.2 10.8 27.1 11.5 26.8 11.9 C 26.5 12.4 26 12.6 25.4 12.6 Z M 24.3 10 C 24.3 11.3 24.6 12 25.4 12 C 26.1 12 26.5 11.3 26.5 10 C 26.5 8.6 26.1 8 25.4 8 C 24.6 8 24.3 8.6 24.3 10 C 24.3 10 24.3 10 24.3 10 Z M 24 4.1 L 24.8 4.1 L 21.5 12.5 L 20.7 12.5 L 24 4.1 Z " stroke="none" fill="#ee3078"/>  </g></svg>