<?xml version="1.0" standalone="no"?><!DOCTYPE svg PUBLIC "-//W3C//DTD SVG 1.1//EN" "http://www.w3.org/Graphics/SVG/1.1/DTD/svg11.dtd"><svg xmlns="http://www.w3.org/2000/svg" version="1.1" width="103px" height="43.5px" viewBox="0 -5 103 43.5" style="top:-5px">  <desc>Estetrol</desc>  <defs/>  <g id="Polygon67561">    <path d="M 3.2 3.3 L 1.3 3.3 L 1.3 1.4 C 1.3 1.4 13.32 1.41 13.3 1.4 C 14.6 1.4 15.1 2 15.1 3.2 C 15.15 3.24 15.1 5.3 15.1 5.3 L 13.2 5.3 C 13.2 5.3 13.17 3.93 13.2 3.9 C 13.2 3.5 12.9 3.3 12.5 3.3 C 12.51 3.27 5.3 3.3 5.3 3.3 L 5.3 10.9 L 13.2 10.9 L 13.2 12.8 L 5.3 12.8 C 5.3 12.8 5.31 19.98 5.3 20 C 5.3 20.4 5.5 20.6 6 20.6 C 6 20.6 13.4 20.6 13.4 20.6 C 13.8 20.6 14 20.4 14 20 C 14.04 19.98 14 18.6 14 18.6 L 16 18.6 C 16 18.6 15.99 20.67 16 20.7 C 16 22 15.4 22.5 14.2 22.5 C 14.2 22.5 5 22.5 5 22.5 C 3.8 22.5 3.2 22 3.2 20.7 C 3.21 20.67 3.2 3.3 3.2 3.3 Z M 18.8 18.8 C 18.8 18.8 20.46 21.09 23.4 21.1 C 25.1 21.1 26.6 20.3 26.6 18.7 C 26.6 15.4 18.1 16 18.1 11.1 C 18.1 8.4 20.5 7.1 23.5 7.1 C 25 7.1 28.1 7.7 28.1 9.8 C 28.11 9.78 28.1 11.1 28.1 11.1 L 26.2 11.1 C 26.2 11.1 26.19 10.35 26.2 10.4 C 26.2 9.2 24.6 8.8 23.6 8.8 C 21.5 8.8 20.2 9.5 20.2 11 C 20.2 14.4 28.7 13.6 28.7 18.6 C 28.7 21.1 26.4 22.9 23.4 22.9 C 19.47 22.86 17.6 20.2 17.6 20.2 L 18.8 18.8 Z M 32.7 9.1 L 30.7 9.1 L 30.7 7.4 L 32.8 7.4 L 32.8 3.2 L 34.8 3.2 L 34.8 7.4 L 38.5 7.4 L 38.5 9.1 L 34.8 9.1 C 34.8 9.1 34.77 16.8 34.8 16.8 C 34.8 20.3 37 20.8 38.2 20.8 C 38.58 20.79 38.8 20.7 38.8 20.7 L 38.8 22.6 C 38.8 22.6 38.49 22.62 38 22.6 C 36.2 22.6 32.7 22.1 32.7 17 C 32.73 17.01 32.7 9.1 32.7 9.1 Z M 48.3 7.1 C 52.5 7.1 54.7 10.3 54.7 14 C 54.66 14.37 54.6 15 54.6 15 C 54.6 15 43.02 15.03 43 15 C 43.1 18.8 45.7 21 48.9 21 C 51.63 21.03 53.4 19.2 53.4 19.2 L 54.4 20.7 C 54.4 20.7 52.2 22.86 48.8 22.9 C 44.3 22.9 40.9 19.6 40.9 15 C 40.9 10 44.3 7.1 48.3 7.1 Z M 52.6 13.4 C 52.4 10.3 50.5 8.8 48.3 8.8 C 45.8 8.8 43.6 10.4 43.1 13.4 C 43.1 13.4 52.6 13.4 52.6 13.4 Z M 58.9 9.1 L 56.9 9.1 L 56.9 7.4 L 58.9 7.4 L 58.9 3.2 L 61 3.2 L 61 7.4 L 64.7 7.4 L 64.7 9.1 L 61 9.1 C 61 9.1 60.96 16.8 61 16.8 C 61 20.3 63.2 20.8 64.3 20.8 C 64.77 20.79 65 20.7 65 20.7 L 65 22.6 C 65 22.6 64.68 22.62 64.2 22.6 C 62.4 22.6 58.9 22.1 58.9 17 C 58.92 17.01 58.9 9.1 58.9 9.1 Z M 68.8 9.8 C 68.8 9.4 68.5 9.2 68.1 9.2 C 68.13 9.18 66.9 9.2 66.9 9.2 L 66.9 7.4 C 66.9 7.4 68.97 7.41 69 7.4 C 70.2 7.4 70.8 7.9 70.8 9.1 C 70.8 9.1 70.8 10.1 70.8 10.1 C 70.8 10.77 70.7 11.3 70.7 11.3 C 70.7 11.3 70.8 11.28 70.8 11.3 C 71.5 9 73.2 7.3 75.6 7.3 C 75.99 7.26 76.4 7.4 76.4 7.4 L 76.4 9.4 C 76.4 9.4 76.02 9.3 75.6 9.3 C 73.5 9.3 71.9 11 71.2 13.2 C 70.9 14.2 70.8 15.2 70.8 16.1 C 70.83 16.14 70.8 22.5 70.8 22.5 L 68.8 22.5 C 68.8 22.5 68.79 9.84 68.8 9.8 Z M 85.6 7.1 C 90 7.1 93.6 10.4 93.6 14.9 C 93.6 19.4 90 22.9 85.6 22.9 C 81.2 22.9 77.6 19.4 77.6 14.9 C 77.6 10.4 81.2 7.1 85.6 7.1 Z M 85.6 21 C 88.8 21 91.5 18.4 91.5 14.9 C 91.5 11.5 88.8 8.9 85.6 8.9 C 82.4 8.9 79.7 11.5 79.7 14.9 C 79.7 18.4 82.4 21 85.6 21 Z M 97.1 3.8 C 97.1 3.4 96.8 3.2 96.4 3.2 C 96.42 3.18 95.2 3.2 95.2 3.2 L 95.2 1.4 C 95.2 1.4 97.29 1.41 97.3 1.4 C 98.6 1.4 99.1 2 99.1 3.2 C 99.1 3.2 99.1 20.1 99.1 20.1 C 99.1 20.5 99.4 20.7 99.8 20.7 C 99.78 20.73 101 20.7 101 20.7 L 101 22.5 C 101 22.5 98.91 22.5 98.9 22.5 C 97.6 22.5 97.1 22 97.1 20.7 C 97.1 20.7 97.1 3.8 97.1 3.8 Z " stroke="none" fill="#ee3078"/>  </g></svg>