<?xml version="1.0" standalone="no"?><!DOCTYPE svg PUBLIC "-//W3C//DTD SVG 1.1//EN" "http://www.w3.org/Graphics/SVG/1.1/DTD/svg11.dtd"><svg xmlns="http://www.w3.org/2000/svg" version="1.1" width="31px" height="16.5px" viewBox="0 -2 31 16.5" style="top:-2px">  <desc>250 %</desc>  <defs/>  <g id="Polygon76190">    <path d="M 7.3 2.3 C 7.3 1.6 6.8 1 5.9 1 C 5.2 1 4.6 1.4 4.6 1.8 C 4.63 1.77 4.6 2.1 4.6 2.1 L 4 2.1 C 4 2.1 3.98 1.58 4 1.6 C 4 0.7 5.2 0.4 5.9 0.4 C 7.2 0.4 8 1.2 8 2.3 C 8 4.8 4.3 4.7 4.3 6.7 C 4.3 6.8 4.4 6.9 4.6 6.9 C 4.6 6.9 7.5 6.9 7.5 6.9 C 7.6 6.9 7.7 6.8 7.7 6.7 C 7.72 6.66 7.7 6.2 7.7 6.2 L 8.4 6.2 C 8.4 6.2 8.36 6.89 8.4 6.9 C 8.4 7.3 8.2 7.5 7.8 7.5 C 7.8 7.5 4.2 7.5 4.2 7.5 C 3.8 7.5 3.6 7.3 3.6 6.8 C 3.6 4.2 7.3 4.4 7.3 2.3 Z M 9.8 6.1 C 9.8 6.1 10.34 6.96 11.4 7 C 12.4 7 13.2 6.3 13.2 5.3 C 13.2 4.3 12.4 3.7 11.4 3.7 C 10.58 3.67 10 4.1 10 4.1 L 9.7 3.9 C 9.7 3.9 9.96 1.08 10 1.1 C 10 0.7 10.1 0.5 10.6 0.5 C 10.6 0.5 12.9 0.5 12.9 0.5 C 13.3 0.5 13.5 0.7 13.5 1.1 C 13.47 1.08 13.5 1.8 13.5 1.8 L 12.8 1.8 C 12.8 1.8 12.83 1.31 12.8 1.3 C 12.8 1.2 12.7 1.1 12.6 1.1 C 12.6 1.1 10.8 1.1 10.8 1.1 C 10.7 1.1 10.6 1.2 10.6 1.3 C 10.6 1.3 10.4 2.9 10.4 2.9 C 10.4 3.15 10.4 3.3 10.4 3.3 L 10.4 3.3 C 10.4 3.3 10.83 3.04 11.4 3 C 12.9 3 13.9 4.1 13.9 5.3 C 13.9 6.6 12.9 7.6 11.4 7.6 C 10.04 7.62 9.4 6.6 9.4 6.6 L 9.8 6.1 Z M 15 4 C 15 2 15.6 0.4 17.5 0.4 C 19.3 0.4 19.9 2 19.9 4 C 19.9 6 19.3 7.6 17.5 7.6 C 15.6 7.6 15 6 15 4 Z M 19.2 4 C 19.2 2.3 18.8 1 17.5 1 C 16.1 1 15.7 2.3 15.7 4 C 15.7 5.7 16.1 7 17.5 7 C 18.8 7 19.2 5.7 19.2 4 Z M 23.8 1.7 C 23.8 1 24.4 0.4 25.2 0.4 C 26 0.4 26.6 1 26.6 1.7 C 26.6 2.5 26 3.1 25.2 3.1 C 24.4 3.1 23.8 2.5 23.8 1.7 Z M 29.2 0.5 L 29.9 0.5 L 24.6 7.5 L 23.9 7.5 L 29.2 0.5 Z M 26 1.7 C 26 1.3 25.7 0.9 25.2 0.9 C 24.7 0.9 24.4 1.3 24.4 1.7 C 24.4 2.2 24.7 2.6 25.2 2.6 C 25.7 2.6 26 2.2 26 1.7 Z M 28.6 4.8 C 29.4 4.8 30 5.5 30 6.2 C 30 7 29.4 7.6 28.6 7.6 C 27.8 7.6 27.2 7 27.2 6.2 C 27.2 5.5 27.8 4.8 28.6 4.8 Z M 27.8 6.2 C 27.8 6.7 28.1 7.1 28.6 7.1 C 29 7.1 29.4 6.7 29.4 6.2 C 29.4 5.8 29 5.4 28.6 5.4 C 28.1 5.4 27.8 5.8 27.8 6.2 C 27.8 6.2 27.8 6.2 27.8 6.2 Z " stroke="none" fill="#000"/>  </g></svg>