<?xml version="1.0" standalone="no"?><!DOCTYPE svg PUBLIC "-//W3C//DTD SVG 1.1//EN" "http://www.w3.org/Graphics/SVG/1.1/DTD/svg11.dtd"><svg xmlns="http://www.w3.org/2000/svg" version="1.1" width="137.1px" height="20.5px" viewBox="0 -3 137.1 20.5" style="top:-3px">  <desc>Efekt ER v jadre = efekt E4</desc>  <defs/>  <g id="Polygon68514">    <path d="M 1 1.5 L 0.3 1.5 L 0.3 0.4 C 0.3 0.4 4.63 0.4 4.6 0.4 C 5.1 0.4 5.3 0.6 5.3 1.1 C 5.31 1.08 5.3 2.2 5.3 2.2 L 4.1 2.2 C 4.1 2.2 4.12 1.73 4.1 1.7 C 4.1 1.6 4 1.5 3.9 1.5 C 3.9 1.51 2.3 1.5 2.3 1.5 L 2.3 3.4 L 4.6 3.4 L 4.6 4.5 L 2.3 4.5 C 2.3 4.5 2.3 6.17 2.3 6.2 C 2.3 6.3 2.4 6.4 2.5 6.4 C 2.5 6.4 4.2 6.4 4.2 6.4 C 4.3 6.4 4.4 6.3 4.4 6.2 C 4.38 6.17 4.4 5.7 4.4 5.7 L 5.6 5.7 C 5.6 5.7 5.57 6.82 5.6 6.8 C 5.6 7.3 5.4 7.5 4.9 7.5 C 4.9 7.5 1.7 7.5 1.7 7.5 C 1.2 7.5 1 7.3 1 6.8 C 0.99 6.82 1 1.5 1 1.5 Z M 6.7 3.4 L 6 3.4 L 6 2.4 L 6.7 2.4 C 6.7 2.4 6.67 2.25 6.7 2.3 C 6.7 0.6 8 0.4 8.7 0.4 C 9 0.4 9.2 0.4 9.2 0.4 C 9.18 0.4 9.2 1.5 9.2 1.5 C 9.2 1.5 9.07 1.45 8.9 1.4 C 8.6 1.4 7.9 1.5 7.9 2.3 C 7.94 2.28 7.9 2.4 7.9 2.4 L 9 2.4 L 9 3.4 L 7.9 3.4 L 7.9 7.5 L 6.7 7.5 L 6.7 3.4 Z M 12 2.3 C 13.4 2.3 14.2 3.3 14.2 4.7 C 14.24 4.85 14.2 5.2 14.2 5.2 C 14.2 5.2 10.69 5.17 10.7 5.2 C 10.8 6.1 11.4 6.5 12.2 6.5 C 13.04 6.54 13.6 6 13.6 6 L 14.2 6.9 C 14.2 6.9 13.4 7.62 12.1 7.6 C 10.4 7.6 9.4 6.4 9.4 4.9 C 9.4 3.4 10.4 2.3 12 2.3 Z M 12.9 4.3 C 12.9 3.7 12.5 3.3 12 3.3 C 11.3 3.3 10.9 3.6 10.7 4.3 C 10.7 4.3 12.9 4.3 12.9 4.3 Z M 15.4 1.7 C 15.4 1.5 15.4 1.5 15.2 1.5 C 15.21 1.48 14.8 1.5 14.8 1.5 L 14.8 0.4 C 14.8 0.4 16.02 0.4 16 0.4 C 16.5 0.4 16.7 0.5 16.7 1 C 16.7 0.98 16.7 4.2 16.7 4.2 C 16.7 4.2 17.08 4.2 17.1 4.2 C 17.2 4.2 17.4 4.2 17.6 4 C 17.56 4.01 18.6 2.4 18.6 2.4 L 20 2.4 C 20 2.4 18.72 4.32 18.7 4.3 C 18.5 4.64 18.3 4.7 18.3 4.7 L 18.3 4.7 C 18.3 4.7 18.52 4.81 18.7 5.1 C 18.7 5.1 19.3 6.2 19.3 6.2 C 19.4 6.4 19.5 6.4 19.7 6.4 C 19.7 6.43 20 6.4 20 6.4 L 20 7.5 C 20 7.5 19.1 7.5 19.1 7.5 C 18.7 7.5 18.5 7.4 18.3 7.1 C 18.3 7.1 17.4 5.5 17.4 5.5 C 17.3 5.3 17.1 5.3 17 5.3 C 16.98 5.27 16.7 5.3 16.7 5.3 L 16.7 7.5 L 15.4 7.5 C 15.4 7.5 15.43 1.7 15.4 1.7 Z M 21 3.4 L 20.4 3.4 L 20.4 2.4 L 21.1 2.4 L 21.1 1 L 22.3 1 L 22.3 2.4 L 23.4 2.4 L 23.4 3.4 L 22.3 3.4 C 22.3 3.4 22.29 5.47 22.3 5.5 C 22.3 6.3 22.9 6.4 23.3 6.4 C 23.44 6.43 23.5 6.4 23.5 6.4 L 23.5 7.5 C 23.5 7.5 23.37 7.55 23.1 7.5 C 22.4 7.5 21 7.3 21 5.6 C 21.02 5.63 21 3.4 21 3.4 Z M 27.5 1.5 L 26.9 1.5 L 26.9 0.4 C 26.9 0.4 31.15 0.4 31.1 0.4 C 31.6 0.4 31.8 0.6 31.8 1.1 C 31.83 1.08 31.8 2.2 31.8 2.2 L 30.6 2.2 C 30.6 2.2 30.64 1.73 30.6 1.7 C 30.6 1.6 30.6 1.5 30.4 1.5 C 30.42 1.51 28.8 1.5 28.8 1.5 L 28.8 3.4 L 31.1 3.4 L 31.1 4.5 L 28.8 4.5 C 28.8 4.5 28.82 6.17 28.8 6.2 C 28.8 6.3 28.9 6.4 29 6.4 C 29 6.4 30.7 6.4 30.7 6.4 C 30.8 6.4 30.9 6.3 30.9 6.2 C 30.9 6.17 30.9 5.7 30.9 5.7 L 32.1 5.7 C 32.1 5.7 32.09 6.82 32.1 6.8 C 32.1 7.3 31.9 7.5 31.4 7.5 C 31.4 7.5 28.2 7.5 28.2 7.5 C 27.7 7.5 27.5 7.3 27.5 6.8 C 27.51 6.82 27.5 1.5 27.5 1.5 Z M 33.3 1.5 L 32.6 1.5 L 32.6 0.4 C 32.6 0.4 35.82 0.4 35.8 0.4 C 37.1 0.4 38 1.2 38 2.5 C 38 3.8 37.1 4.3 36.8 4.4 C 36.85 4.41 36.8 4.4 36.8 4.4 C 36.8 4.4 37.07 4.53 37.2 4.8 C 37.2 4.8 37.9 6.2 37.9 6.2 C 38 6.4 38.2 6.4 38.4 6.4 C 38.39 6.39 38.5 6.4 38.5 6.4 L 38.5 7.5 C 38.5 7.5 37.83 7.5 37.8 7.5 C 37.3 7.5 37.1 7.4 36.8 7 C 36.8 7 35.9 5.2 35.9 5.2 C 35.8 4.9 35.6 4.8 35.3 4.8 C 35.26 4.85 34.6 4.8 34.6 4.8 L 34.6 7.5 L 33.3 7.5 L 33.3 1.5 Z M 35.6 3.7 C 36.3 3.7 36.7 3.3 36.7 2.6 C 36.7 1.9 36.3 1.5 35.7 1.5 C 35.66 1.51 34.6 1.5 34.6 1.5 L 34.6 3.7 C 34.6 3.7 35.64 3.73 35.6 3.7 Z M 41.8 3.7 C 41.7 3.5 41.6 3.5 41.5 3.5 C 41.5 3.48 41.4 3.5 41.4 3.5 L 41.4 2.4 C 41.4 2.4 42.12 2.4 42.1 2.4 C 42.5 2.4 42.7 2.5 42.9 2.9 C 42.9 2.9 43.8 5.6 43.8 5.6 C 43.94 5.86 44 6.3 44 6.3 L 44 6.3 C 44 6.3 44.12 5.86 44.2 5.6 C 44.2 5.6 45.2 2.9 45.2 2.9 C 45.3 2.5 45.5 2.4 45.9 2.4 C 45.93 2.4 46.6 2.4 46.6 2.4 L 46.6 3.5 C 46.6 3.5 46.49 3.48 46.5 3.5 C 46.3 3.5 46.3 3.5 46.2 3.7 C 46.21 3.66 44.7 7.5 44.7 7.5 L 43.2 7.5 C 43.2 7.5 41.78 3.66 41.8 3.7 Z M 50.5 0.4 L 51.6 0.4 L 51.6 1.6 L 50.5 1.6 L 50.5 0.4 Z M 49.4 8.5 C 49.8 8.5 50.4 8.4 50.4 7.6 C 50.4 7.6 50.4 3.7 50.4 3.7 C 50.4 3.5 50.3 3.5 50.2 3.5 C 50.2 3.48 49.8 3.5 49.8 3.5 L 49.8 2.4 C 49.8 2.4 51.01 2.4 51 2.4 C 51.5 2.4 51.7 2.6 51.7 3.1 C 51.7 3.1 51.7 7.7 51.7 7.7 C 51.7 9.4 50.3 9.6 49.6 9.6 C 49.3 9.6 49.2 9.5 49.2 9.5 C 49.18 9.54 49.2 8.5 49.2 8.5 C 49.2 8.5 49.27 8.49 49.4 8.5 Z M 55.8 4.3 C 55.78 4.3 55.9 4.3 55.9 4.3 C 55.9 4.3 55.94 4.26 55.9 4.3 C 55.9 3.5 55.6 3.3 55 3.3 C 54.8 3.3 54.3 3.3 54.3 3.6 C 54.32 3.6 54.3 3.9 54.3 3.9 L 53.1 3.9 C 53.1 3.9 53.14 3.33 53.1 3.3 C 53.1 2.4 54.5 2.3 55 2.3 C 56.7 2.3 57.2 3.2 57.2 4.3 C 57.2 4.3 57.2 6.2 57.2 6.2 C 57.2 6.4 57.3 6.4 57.4 6.4 C 57.43 6.43 57.8 6.4 57.8 6.4 L 57.8 7.5 C 57.8 7.5 56.69 7.5 56.7 7.5 C 56.2 7.5 56 7.2 56 6.9 C 56 6.8 56 6.7 56 6.7 C 56.05 6.72 56 6.7 56 6.7 C 56 6.7 55.64 7.62 54.5 7.6 C 53.6 7.6 52.7 7.1 52.7 6 C 52.7 4.4 54.9 4.3 55.8 4.3 Z M 54.8 6.6 C 55.5 6.6 56 5.9 56 5.3 C 55.96 5.29 56 5.2 56 5.2 C 56 5.2 55.74 5.17 55.7 5.2 C 55.1 5.2 54 5.3 54 6 C 54 6.3 54.3 6.6 54.8 6.6 Z M 60.7 2.3 C 61.77 2.28 62.1 2.9 62.1 2.9 L 62.1 2.9 C 62.1 2.9 62.14 2.77 62.1 2.6 C 62.1 2.6 62.1 1.7 62.1 1.7 C 62.1 1.5 62.1 1.5 61.9 1.5 C 61.92 1.48 61.5 1.5 61.5 1.5 L 61.5 0.4 C 61.5 0.4 62.73 0.4 62.7 0.4 C 63.2 0.4 63.4 0.6 63.4 1.1 C 63.4 1.1 63.4 6.2 63.4 6.2 C 63.4 6.4 63.5 6.4 63.6 6.4 C 63.63 6.43 64 6.4 64 6.4 L 64 7.5 C 64 7.5 62.85 7.5 62.8 7.5 C 62.4 7.5 62.2 7.3 62.2 7 C 62.2 6.9 62.2 6.8 62.2 6.8 C 62.22 6.79 62.2 6.8 62.2 6.8 C 62.2 6.8 61.78 7.62 60.6 7.6 C 59.2 7.6 58.3 6.5 58.3 5 C 58.3 3.3 59.3 2.3 60.7 2.3 Z M 62.2 4.9 C 62.2 4.1 61.8 3.4 60.9 3.4 C 60.2 3.4 59.6 3.9 59.6 4.9 C 59.6 5.9 60.1 6.6 60.9 6.6 C 61.5 6.6 62.2 6.1 62.2 4.9 Z M 65.1 3.7 C 65.1 3.5 65 3.5 64.8 3.5 C 64.85 3.48 64.4 3.5 64.4 3.5 L 64.4 2.4 C 64.4 2.4 65.61 2.4 65.6 2.4 C 66.1 2.4 66.3 2.6 66.3 3 C 66.3 3 66.3 3.3 66.3 3.3 C 66.29 3.51 66.3 3.6 66.3 3.6 C 66.3 3.6 66.29 3.64 66.3 3.6 C 66.5 2.9 67.1 2.3 67.9 2.3 C 68.02 2.33 68.1 2.4 68.1 2.4 L 68.1 3.6 C 68.1 3.6 68.01 3.58 67.8 3.6 C 67.3 3.6 66.7 3.9 66.4 4.6 C 66.4 4.9 66.3 5.2 66.3 5.5 C 66.33 5.48 66.3 7.5 66.3 7.5 L 65.1 7.5 C 65.1 7.5 65.07 3.7 65.1 3.7 Z M 71.1 2.3 C 72.5 2.3 73.3 3.3 73.3 4.7 C 73.34 4.85 73.3 5.2 73.3 5.2 C 73.3 5.2 69.79 5.17 69.8 5.2 C 69.9 6.1 70.5 6.5 71.3 6.5 C 72.14 6.54 72.7 6 72.7 6 L 73.3 6.9 C 73.3 6.9 72.5 7.62 71.2 7.6 C 69.5 7.6 68.5 6.4 68.5 4.9 C 68.5 3.4 69.5 2.3 71.1 2.3 Z M 72 4.3 C 72 3.7 71.6 3.3 71.1 3.3 C 70.4 3.3 70 3.6 69.8 4.3 C 69.8 4.3 72 4.3 72 4.3 Z M 77 3.1 L 81.9 3.1 L 81.9 4.1 L 77 4.1 L 77 3.1 Z M 77 5.2 L 81.9 5.2 L 81.9 6.2 L 77 6.2 L 77 5.2 Z M 88.1 2.3 C 89.6 2.3 90.4 3.3 90.4 4.7 C 90.4 4.85 90.4 5.2 90.4 5.2 C 90.4 5.2 86.85 5.17 86.8 5.2 C 86.9 6.1 87.6 6.5 88.4 6.5 C 89.2 6.54 89.8 6 89.8 6 L 90.3 6.9 C 90.3 6.9 89.56 7.62 88.3 7.6 C 86.6 7.6 85.5 6.4 85.5 4.9 C 85.5 3.4 86.6 2.3 88.1 2.3 Z M 89.1 4.3 C 89.1 3.7 88.7 3.3 88.1 3.3 C 87.5 3.3 87 3.6 86.9 4.3 C 86.9 4.3 89.1 4.3 89.1 4.3 Z M 91.6 3.4 L 91 3.4 L 91 2.4 L 91.6 2.4 C 91.6 2.4 91.63 2.25 91.6 2.3 C 91.6 0.6 93 0.4 93.7 0.4 C 94 0.4 94.1 0.4 94.1 0.4 C 94.14 0.4 94.1 1.5 94.1 1.5 C 94.1 1.5 94.03 1.45 93.9 1.4 C 93.5 1.4 92.9 1.5 92.9 2.3 C 92.9 2.28 92.9 2.4 92.9 2.4 L 94 2.4 L 94 3.4 L 92.9 3.4 L 92.9 7.5 L 91.6 7.5 L 91.6 3.4 Z M 96.9 2.3 C 98.4 2.3 99.2 3.3 99.2 4.7 C 99.2 4.85 99.2 5.2 99.2 5.2 C 99.2 5.2 95.65 5.17 95.6 5.2 C 95.7 6.1 96.4 6.5 97.2 6.5 C 98 6.54 98.6 6 98.6 6 L 99.1 6.9 C 99.1 6.9 98.36 7.62 97.1 7.6 C 95.4 7.6 94.3 6.4 94.3 4.9 C 94.3 3.4 95.4 2.3 96.9 2.3 Z M 97.9 4.3 C 97.9 3.7 97.5 3.3 96.9 3.3 C 96.3 3.3 95.8 3.6 95.7 4.3 C 95.7 4.3 97.9 4.3 97.9 4.3 Z M 100.4 1.7 C 100.4 1.5 100.3 1.5 100.2 1.5 C 100.17 1.48 99.8 1.5 99.8 1.5 L 99.8 0.4 C 99.8 0.4 100.98 0.4 101 0.4 C 101.4 0.4 101.7 0.5 101.7 1 C 101.66 0.98 101.7 4.2 101.7 4.2 C 101.7 4.2 102.04 4.2 102 4.2 C 102.2 4.2 102.4 4.2 102.5 4 C 102.52 4.01 103.6 2.4 103.6 2.4 L 105 2.4 C 105 2.4 103.68 4.32 103.7 4.3 C 103.46 4.64 103.3 4.7 103.3 4.7 L 103.3 4.7 C 103.3 4.7 103.48 4.81 103.7 5.1 C 103.7 5.1 104.2 6.2 104.2 6.2 C 104.3 6.4 104.4 6.4 104.7 6.4 C 104.66 6.43 105 6.4 105 6.4 L 105 7.5 C 105 7.5 104.06 7.5 104.1 7.5 C 103.6 7.5 103.5 7.4 103.3 7.1 C 103.3 7.1 102.4 5.5 102.4 5.5 C 102.3 5.3 102.1 5.3 101.9 5.3 C 101.94 5.27 101.7 5.3 101.7 5.3 L 101.7 7.5 L 100.4 7.5 C 100.4 7.5 100.39 1.7 100.4 1.7 Z M 106 3.4 L 105.3 3.4 L 105.3 2.4 L 106 2.4 L 106 1 L 107.2 1 L 107.2 2.4 L 108.4 2.4 L 108.4 3.4 L 107.2 3.4 C 107.2 3.4 107.25 5.47 107.2 5.5 C 107.2 6.3 107.9 6.4 108.3 6.4 C 108.4 6.43 108.5 6.4 108.5 6.4 L 108.5 7.5 C 108.5 7.5 108.33 7.55 108.1 7.5 C 107.4 7.5 106 7.3 106 5.6 C 105.98 5.63 106 3.4 106 3.4 Z M 112.5 1.5 L 111.8 1.5 L 111.8 0.4 C 111.8 0.4 116.11 0.4 116.1 0.4 C 116.6 0.4 116.8 0.6 116.8 1.1 C 116.79 1.08 116.8 2.2 116.8 2.2 L 115.6 2.2 C 115.6 2.2 115.6 1.73 115.6 1.7 C 115.6 1.6 115.5 1.5 115.4 1.5 C 115.38 1.51 113.8 1.5 113.8 1.5 L 113.8 3.4 L 116.1 3.4 L 116.1 4.5 L 113.8 4.5 C 113.8 4.5 113.78 6.17 113.8 6.2 C 113.8 6.3 113.9 6.4 114 6.4 C 114 6.4 115.6 6.4 115.6 6.4 C 115.8 6.4 115.9 6.3 115.9 6.2 C 115.86 6.17 115.9 5.7 115.9 5.7 L 117 5.7 C 117 5.7 117.05 6.82 117 6.8 C 117 7.3 116.8 7.5 116.4 7.5 C 116.4 7.5 113.1 7.5 113.1 7.5 C 112.7 7.5 112.5 7.3 112.5 6.8 C 112.47 6.82 112.5 1.5 112.5 1.5 Z M 117.4 4.9 L 120.4 0.4 L 121.9 0.4 L 121.9 4.6 L 123 4.6 L 123 5.7 L 121.9 5.7 L 121.9 7.5 L 120.6 7.5 L 120.6 5.7 L 117.4 5.7 L 117.4 4.9 Z M 120.6 2.6 C 120.63 2.28 120.7 1.9 120.7 1.9 L 120.7 1.9 C 120.7 1.9 120.46 2.24 120.3 2.5 C 120.3 2.5 119.2 4.1 119.2 4.1 C 118.98 4.41 118.8 4.6 118.8 4.6 L 118.8 4.6 C 118.8 4.6 119.1 4.6 119.4 4.6 C 119.43 4.6 120.6 4.6 120.6 4.6 C 120.6 4.6 120.63 2.63 120.6 2.6 Z " stroke="none" fill="#000"/>  </g></svg>