<?xml version="1.0" standalone="no"?><!DOCTYPE svg PUBLIC "-//W3C//DTD SVG 1.1//EN" "http://www.w3.org/Graphics/SVG/1.1/DTD/svg11.dtd"><svg xmlns="http://www.w3.org/2000/svg" version="1.1" width="722.3px" height="21px" viewBox="0 -3 722.3 21" style="top:-3px">  <desc>Z znam men trua n ho krv cania – percento ien s ak mko vek krv can m i pinen m po as 12 cyklov</desc>  <defs/>  <g id="Polygon78376">    <path d="M 60.5 8 C 60.5 8 64.34 2.58 64.3 2.6 C 64.69 2.1 65 1.8 65 1.8 L 65 1.8 C 65 1.8 64.74 1.81 64.3 1.8 C 64.3 1.8 62.3 1.8 62.3 1.8 C 62.1 1.8 62 1.9 62 2.1 C 62.01 2.08 62 2.6 62 2.6 L 60.6 2.6 C 60.6 2.6 60.59 1.3 60.6 1.3 C 60.6 0.7 60.8 0.5 61.4 0.5 C 61.4 0.48 66.9 0.5 66.9 0.5 L 66.9 1.5 C 66.9 1.5 63.11 6.9 63.1 6.9 C 62.76 7.39 62.5 7.7 62.5 7.7 L 62.5 7.7 C 62.5 7.7 62.71 7.67 63.1 7.7 C 63.1 7.7 65.4 7.7 65.4 7.7 C 65.6 7.7 65.7 7.6 65.7 7.4 C 65.7 7.4 65.7 6.9 65.7 6.9 L 67.1 6.9 C 67.1 6.9 67.11 8.18 67.1 8.2 C 67.1 8.8 66.9 9 66.3 9 C 66.3 9 60.5 9 60.5 9 L 60.5 8 Z M 71.4 5.2 C 71.4 5.16 71.6 5.2 71.6 5.2 C 71.6 5.2 71.59 5.11 71.6 5.1 C 71.6 4.2 71.2 3.9 70.5 3.9 C 70.2 3.9 69.6 4 69.6 4.3 C 69.64 4.32 69.6 4.6 69.6 4.6 L 68.2 4.6 C 68.2 4.6 68.23 4 68.2 4 C 68.2 2.9 69.8 2.7 70.5 2.7 C 72.5 2.7 73.1 3.8 73.1 5.2 C 73.1 5.2 73.1 7.5 73.1 7.5 C 73.1 7.6 73.2 7.7 73.4 7.7 C 73.38 7.72 73.9 7.7 73.9 7.7 L 73.9 9 C 73.9 9 72.49 9 72.5 9 C 71.9 9 71.7 8.7 71.7 8.3 C 71.7 8.2 71.7 8.1 71.7 8.1 C 71.72 8.06 71.7 8.1 71.7 8.1 C 71.7 8.1 71.23 9.14 69.8 9.1 C 68.8 9.1 67.8 8.5 67.8 7.2 C 67.8 5.3 70.4 5.2 71.4 5.2 Z M 70.2 8 C 71 8 71.6 7.1 71.6 6.3 C 71.61 6.35 71.6 6.2 71.6 6.2 C 71.6 6.2 71.35 6.2 71.4 6.2 C 70.6 6.2 69.3 6.3 69.3 7.2 C 69.3 7.6 69.6 8 70.2 8 Z M 70.9 0.5 L 72.4 0.5 L 71.1 2.1 L 70 2.1 L 70.9 0.5 Z M 74.4 8.2 C 74.4 8.2 77.23 4.74 77.2 4.7 C 77.51 4.39 77.7 4.2 77.7 4.2 L 77.7 4.2 C 77.7 4.2 77.57 4.18 77.2 4.2 C 77.2 4.2 76.1 4.2 76.1 4.2 C 75.9 4.2 75.8 4.3 75.8 4.4 C 75.81 4.44 75.8 4.8 75.8 4.8 L 74.4 4.8 C 74.4 4.8 74.43 3.7 74.4 3.7 C 74.4 3.1 74.7 2.9 75.2 2.9 C 75.25 2.88 79.7 2.9 79.7 2.9 L 79.7 3.7 C 79.7 3.7 76.92 7.15 76.9 7.2 C 76.64 7.49 76.4 7.7 76.4 7.7 L 76.4 7.7 C 76.4 7.7 76.58 7.7 77 7.7 C 77 7.7 78.3 7.7 78.3 7.7 C 78.5 7.7 78.6 7.6 78.6 7.4 C 78.59 7.44 78.6 7.1 78.6 7.1 L 80 7.1 C 80 7.1 79.96 8.18 80 8.2 C 80 8.8 79.7 9 79.2 9 C 79.16 9 74.4 9 74.4 9 L 74.4 8.2 Z M 81.2 4.4 C 81.2 4.3 81.1 4.2 81 4.2 C 80.95 4.18 80.5 4.2 80.5 4.2 L 80.5 2.9 C 80.5 2.9 81.87 2.88 81.9 2.9 C 82.4 2.9 82.7 3.1 82.7 3.6 C 82.7 3.6 82.7 3.7 82.7 3.7 C 82.7 3.9 82.7 4 82.7 4 C 82.7 4 82.7 4 82.7 4 C 82.9 3.5 83.6 2.7 84.8 2.7 C 86.2 2.7 87 3.4 87 5.1 C 87 5.1 87 7.5 87 7.5 C 87 7.6 87.1 7.7 87.2 7.7 C 87.24 7.72 87.7 7.7 87.7 7.7 L 87.7 9 C 87.7 9 86.27 9 86.3 9 C 85.7 9 85.5 8.8 85.5 8.2 C 85.5 8.2 85.5 5.4 85.5 5.4 C 85.5 4.6 85.3 4.1 84.5 4.1 C 83.7 4.1 83.1 4.6 82.8 5.4 C 82.8 5.6 82.7 5.9 82.7 6.2 C 82.72 6.19 82.7 9 82.7 9 L 81.2 9 C 81.2 9 81.21 4.44 81.2 4.4 Z M 92 5.2 C 91.97 5.16 92.2 5.2 92.2 5.2 C 92.2 5.2 92.16 5.11 92.2 5.1 C 92.2 4.2 91.8 3.9 91 3.9 C 90.8 3.9 90.2 4 90.2 4.3 C 90.21 4.32 90.2 4.6 90.2 4.6 L 88.8 4.6 C 88.8 4.6 88.8 4 88.8 4 C 88.8 2.9 90.4 2.7 91 2.7 C 93.1 2.7 93.7 3.8 93.7 5.2 C 93.7 5.2 93.7 7.5 93.7 7.5 C 93.7 7.6 93.8 7.7 93.9 7.7 C 93.94 7.72 94.4 7.7 94.4 7.7 L 94.4 9 C 94.4 9 93.06 9 93.1 9 C 92.5 9 92.3 8.7 92.3 8.3 C 92.3 8.2 92.3 8.1 92.3 8.1 C 92.29 8.06 92.3 8.1 92.3 8.1 C 92.3 8.1 91.8 9.14 90.4 9.1 C 89.3 9.1 88.3 8.5 88.3 7.2 C 88.3 5.3 91 5.2 92 5.2 Z M 90.8 8 C 91.6 8 92.2 7.1 92.2 6.3 C 92.18 6.35 92.2 6.2 92.2 6.2 C 92.2 6.2 91.92 6.2 91.9 6.2 C 91.1 6.2 89.9 6.3 89.9 7.2 C 89.9 7.6 90.2 8 90.8 8 Z M 95.6 4.4 C 95.6 4.3 95.6 4.2 95.4 4.2 C 95.39 4.18 94.9 4.2 94.9 4.2 L 94.9 2.9 C 94.9 2.9 96.31 2.88 96.3 2.9 C 96.8 2.9 97.1 3.1 97.1 3.6 C 97.1 3.6 97.1 3.7 97.1 3.7 C 97.1 3.9 97.1 4 97.1 4 C 97.1 4 97.1 4 97.1 4 C 97.4 3.4 98.1 2.7 99.1 2.7 C 100 2.7 100.6 3.2 100.9 4 C 100.9 4 100.9 4 100.9 4 C 101.2 3.3 102 2.7 103 2.7 C 104.3 2.7 105 3.5 105 5.1 C 105 5.1 105 7.5 105 7.5 C 105 7.6 105.1 7.7 105.3 7.7 C 105.27 7.72 105.7 7.7 105.7 7.7 L 105.7 9 C 105.7 9 104.3 9 104.3 9 C 103.7 9 103.5 8.8 103.5 8.2 C 103.5 8.2 103.5 5.4 103.5 5.4 C 103.5 4.7 103.4 4.1 102.6 4.1 C 101.9 4.1 101.3 4.8 101.2 5.5 C 101.1 5.8 101.1 6 101.1 6.3 C 101.08 6.31 101.1 9 101.1 9 L 99.6 9 C 99.6 9 99.56 5.35 99.6 5.4 C 99.6 4.7 99.5 4.1 98.7 4.1 C 98 4.1 97.4 4.8 97.3 5.5 C 97.2 5.8 97.2 6 97.2 6.3 C 97.16 6.31 97.2 9 97.2 9 L 95.6 9 C 95.6 9 95.65 4.44 95.6 4.4 Z M 110.1 4.4 C 110.1 4.3 110 4.2 109.9 4.2 C 109.88 4.18 109.4 4.2 109.4 4.2 L 109.4 2.9 C 109.4 2.9 110.81 2.88 110.8 2.9 C 111.3 2.9 111.6 3.1 111.6 3.6 C 111.6 3.6 111.6 3.7 111.6 3.7 C 111.6 3.9 111.6 4 111.6 4 C 111.6 4 111.6 4 111.6 4 C 111.9 3.4 112.6 2.7 113.6 2.7 C 114.5 2.7 115.1 3.2 115.4 4 C 115.4 4 115.4 4 115.4 4 C 115.7 3.3 116.5 2.7 117.5 2.7 C 118.8 2.7 119.5 3.5 119.5 5.1 C 119.5 5.1 119.5 7.5 119.5 7.5 C 119.5 7.6 119.6 7.7 119.8 7.7 C 119.77 7.72 120.2 7.7 120.2 7.7 L 120.2 9 C 120.2 9 118.8 9 118.8 9 C 118.2 9 118 8.8 118 8.2 C 118 8.2 118 5.4 118 5.4 C 118 4.7 117.8 4.1 117.1 4.1 C 116.4 4.1 115.8 4.8 115.7 5.5 C 115.6 5.8 115.6 6 115.6 6.3 C 115.58 6.31 115.6 9 115.6 9 L 114.1 9 C 114.1 9 114.06 5.35 114.1 5.4 C 114.1 4.7 114 4.1 113.2 4.1 C 112.5 4.1 111.9 4.8 111.8 5.5 C 111.7 5.8 111.7 6 111.7 6.3 C 111.66 6.31 111.7 9 111.7 9 L 110.1 9 C 110.1 9 110.15 4.44 110.1 4.4 Z M 124 2.7 C 125.7 2.7 126.7 4 126.7 5.6 C 126.67 5.82 126.6 6.2 126.6 6.2 C 126.6 6.2 122.41 6.2 122.4 6.2 C 122.5 7.3 123.3 7.8 124.2 7.8 C 125.23 7.85 126 7.2 126 7.2 L 126.6 8.2 C 126.6 8.2 125.66 9.14 124.1 9.1 C 122.1 9.1 120.8 7.7 120.8 5.9 C 120.8 4.1 122.1 2.7 124 2.7 Z M 125.1 5.1 C 125.1 4.4 124.6 3.9 124 3.9 C 123.2 3.9 122.6 4.4 122.5 5.1 C 122.5 5.1 125.1 5.1 125.1 5.1 Z M 128.1 4.4 C 128.1 4.3 128 4.2 127.9 4.2 C 127.88 4.18 127.4 4.2 127.4 4.2 L 127.4 2.9 C 127.4 2.9 128.81 2.88 128.8 2.9 C 129.3 2.9 129.6 3.1 129.6 3.6 C 129.6 3.6 129.6 3.7 129.6 3.7 C 129.6 3.9 129.6 4 129.6 4 C 129.6 4 129.6 4 129.6 4 C 129.9 3.5 130.5 2.7 131.8 2.7 C 133.1 2.7 133.9 3.4 133.9 5.1 C 133.9 5.1 133.9 7.5 133.9 7.5 C 133.9 7.6 134 7.7 134.2 7.7 C 134.17 7.72 134.6 7.7 134.6 7.7 L 134.6 9 C 134.6 9 133.2 9 133.2 9 C 132.6 9 132.4 8.8 132.4 8.2 C 132.4 8.2 132.4 5.4 132.4 5.4 C 132.4 4.6 132.2 4.1 131.4 4.1 C 130.6 4.1 130 4.6 129.8 5.4 C 129.7 5.6 129.7 5.9 129.7 6.2 C 129.66 6.19 129.7 9 129.7 9 L 128.1 9 C 128.1 9 128.15 4.44 128.1 4.4 Z M 135.9 7.1 C 135.9 7.1 136.66 7.96 137.7 8 C 138.2 8 138.5 7.8 138.5 7.4 C 138.5 6.5 135.3 6.5 135.3 4.5 C 135.3 3.3 136.4 2.7 137.7 2.7 C 138.5 2.7 139.8 3 139.8 4 C 139.83 4.01 139.8 4.6 139.8 4.6 L 138.5 4.6 C 138.5 4.6 138.49 4.34 138.5 4.3 C 138.5 4.1 138.1 3.9 137.7 3.9 C 137.2 3.9 136.8 4.1 136.8 4.5 C 136.8 5.4 140.1 5.2 140.1 7.3 C 140.1 8.4 139 9.1 137.7 9.1 C 136.03 9.14 135.2 8.1 135.2 8.1 L 135.9 7.1 Z M 135.9 0.5 L 137 0.5 L 137.6 1.5 L 137.6 1.5 L 138.2 0.5 L 139.4 0.5 L 138.3 2.1 L 137 2.1 L 135.9 0.5 Z M 141.5 4.1 L 140.7 4.1 L 140.7 2.9 L 141.5 2.9 L 141.5 1.2 L 143 1.2 L 143 2.9 L 144.4 2.9 L 144.4 4.1 L 143 4.1 C 143 4.1 143.02 6.56 143 6.6 C 143 7.6 143.8 7.7 144.2 7.7 C 144.4 7.72 144.5 7.7 144.5 7.7 L 144.5 9 C 144.5 9 144.32 9.06 144 9.1 C 143.2 9.1 141.5 8.8 141.5 6.8 C 141.5 6.76 141.5 4.1 141.5 4.1 Z M 145.9 4.4 C 145.9 4.3 145.8 4.2 145.7 4.2 C 145.65 4.18 145.2 4.2 145.2 4.2 L 145.2 2.9 C 145.2 2.9 146.56 2.88 146.6 2.9 C 147.1 2.9 147.4 3.1 147.4 3.6 C 147.4 3.6 147.4 4 147.4 4 C 147.38 4.21 147.4 4.4 147.4 4.4 C 147.4 4.4 147.38 4.37 147.4 4.4 C 147.7 3.5 148.4 2.8 149.3 2.8 C 149.46 2.8 149.6 2.8 149.6 2.8 L 149.6 4.3 C 149.6 4.3 149.44 4.3 149.2 4.3 C 148.6 4.3 147.8 4.7 147.6 5.6 C 147.5 5.9 147.4 6.2 147.4 6.6 C 147.43 6.58 147.4 9 147.4 9 L 145.9 9 C 145.9 9 145.92 4.44 145.9 4.4 Z M 150.9 4.4 C 150.9 4.3 150.8 4.2 150.6 4.2 C 150.65 4.18 150.2 4.2 150.2 4.2 L 150.2 2.9 C 150.2 2.9 151.62 2.88 151.6 2.9 C 152.2 2.9 152.4 3.1 152.4 3.7 C 152.4 3.7 152.4 6.5 152.4 6.5 C 152.4 7.2 152.6 7.8 153.4 7.8 C 154.5 7.8 155.1 6.8 155.1 5.7 C 155.09 5.69 155.1 2.9 155.1 2.9 L 156.6 2.9 C 156.6 2.9 156.61 7.45 156.6 7.5 C 156.6 7.6 156.7 7.7 156.9 7.7 C 156.87 7.72 157.4 7.7 157.4 7.7 L 157.4 9 C 157.4 9 155.95 9 155.9 9 C 155.4 9 155.1 8.7 155.1 8.3 C 155.1 8.3 155.1 8.1 155.1 8.1 C 155.1 8 155.2 7.9 155.2 7.9 C 155.2 7.9 155.1 7.9 155.1 7.9 C 154.8 8.5 154.1 9.1 153 9.1 C 151.7 9.1 150.9 8.5 150.9 6.8 C 150.9 6.8 150.9 4.4 150.9 4.4 Z M 161.6 5.2 C 161.62 5.16 161.8 5.2 161.8 5.2 C 161.8 5.2 161.82 5.11 161.8 5.1 C 161.8 4.2 161.5 3.9 160.7 3.9 C 160.4 3.9 159.9 4 159.9 4.3 C 159.87 4.32 159.9 4.6 159.9 4.6 L 158.5 4.6 C 158.5 4.6 158.46 4 158.5 4 C 158.5 2.9 160.1 2.7 160.7 2.7 C 162.7 2.7 163.3 3.8 163.3 5.2 C 163.3 5.2 163.3 7.5 163.3 7.5 C 163.3 7.6 163.4 7.7 163.6 7.7 C 163.6 7.72 164.1 7.7 164.1 7.7 L 164.1 9 C 164.1 9 162.72 9 162.7 9 C 162.2 9 161.9 8.7 161.9 8.3 C 161.9 8.2 161.9 8.1 161.9 8.1 C 161.95 8.06 161.9 8.1 161.9 8.1 C 161.9 8.1 161.46 9.14 160.1 9.1 C 159 9.1 158 8.5 158 7.2 C 158 5.3 160.6 5.2 161.6 5.2 Z M 160.4 8 C 161.3 8 161.8 7.1 161.8 6.3 C 161.84 6.35 161.8 6.2 161.8 6.2 C 161.8 6.2 161.58 6.2 161.6 6.2 C 160.8 6.2 159.5 6.3 159.5 7.2 C 159.5 7.6 159.8 8 160.4 8 Z M 168 2.7 C 168.8 2.7 170.3 3.1 170.3 4.1 C 170.26 4.12 170.3 4.8 170.3 4.8 L 168.9 4.8 C 168.9 4.8 168.92 4.5 168.9 4.5 C 168.9 4.2 168.4 4 168 4 C 167 4 166.2 4.8 166.2 5.9 C 166.2 7.2 167.2 7.8 168.1 7.8 C 169.18 7.81 170 7 170 7 L 170.6 8 C 170.6 8 169.68 9.14 168 9.1 C 166 9.1 164.7 7.7 164.7 5.9 C 164.7 4.2 165.9 2.7 168 2.7 Z M 166.1 0.5 L 167.2 0.5 L 167.8 1.5 L 167.8 1.5 L 168.4 0.5 L 169.6 0.5 L 168.5 2.1 L 167.2 2.1 L 166.1 0.5 Z M 171.8 4.4 C 171.8 4.3 171.7 4.2 171.5 4.2 C 171.5 4.18 171 4.2 171 4.2 L 171 2.9 C 171 2.9 172.42 2.88 172.4 2.9 C 173 2.9 173.2 3.1 173.2 3.6 C 173.2 3.6 173.2 3.7 173.2 3.7 C 173.2 3.9 173.2 4 173.2 4 C 173.2 4 173.2 4 173.2 4 C 173.5 3.5 174.2 2.7 175.4 2.7 C 176.7 2.7 177.5 3.4 177.5 5.1 C 177.5 5.1 177.5 7.5 177.5 7.5 C 177.5 7.6 177.6 7.7 177.8 7.7 C 177.79 7.72 178.3 7.7 178.3 7.7 L 178.3 9 C 178.3 9 176.82 9 176.8 9 C 176.2 9 176 8.8 176 8.2 C 176 8.2 176 5.4 176 5.4 C 176 4.6 175.8 4.1 175 4.1 C 174.2 4.1 173.6 4.6 173.4 5.4 C 173.3 5.6 173.3 5.9 173.3 6.2 C 173.28 6.19 173.3 9 173.3 9 L 171.8 9 C 171.8 9 171.76 4.44 171.8 4.4 Z M 182 2.7 C 183.7 2.7 184.7 4 184.7 5.6 C 184.69 5.82 184.7 6.2 184.7 6.2 C 184.7 6.2 180.43 6.2 180.4 6.2 C 180.5 7.3 181.3 7.8 182.3 7.8 C 183.25 7.85 184 7.2 184 7.2 L 184.6 8.2 C 184.6 8.2 183.68 9.14 182.2 9.1 C 180.1 9.1 178.9 7.7 178.9 5.9 C 178.9 4.1 180.1 2.7 182 2.7 Z M 183.1 5.1 C 183.1 4.4 182.6 3.9 182 3.9 C 181.2 3.9 180.6 4.4 180.5 5.1 C 180.5 5.1 183.1 5.1 183.1 5.1 Z M 182.3 0.5 L 183.7 0.5 L 182.5 2.1 L 181.4 2.1 L 182.3 0.5 Z M 186.1 2 C 186.1 1.9 186 1.8 185.9 1.8 C 185.85 1.78 185.4 1.8 185.4 1.8 L 185.4 0.5 C 185.4 0.5 186.82 0.48 186.8 0.5 C 187.4 0.5 187.6 0.7 187.6 1.3 C 187.6 1.3 187.6 3.4 187.6 3.4 C 187.64 3.73 187.6 3.9 187.6 3.9 C 187.6 3.9 187.64 3.95 187.6 3.9 C 187.9 3.4 188.7 2.7 189.7 2.7 C 191.1 2.7 191.9 3.4 191.9 5.1 C 191.9 5.1 191.9 7.5 191.9 7.5 C 191.9 7.6 192 7.7 192.1 7.7 C 192.14 7.72 192.6 7.7 192.6 7.7 L 192.6 9 C 192.6 9 191.17 9 191.2 9 C 190.6 9 190.4 8.8 190.4 8.2 C 190.4 8.2 190.4 5.4 190.4 5.4 C 190.4 4.6 190.2 4.1 189.4 4.1 C 188.6 4.1 188 4.7 187.7 5.4 C 187.7 5.6 187.6 5.9 187.6 6.2 C 187.64 6.19 187.6 9 187.6 9 L 186.1 9 C 186.1 9 186.12 2.04 186.1 2 Z M 196.6 2.7 C 198.5 2.7 199.9 4.1 199.9 5.9 C 199.9 7.8 198.5 9.1 196.6 9.1 C 194.7 9.1 193.2 7.8 193.2 5.9 C 193.2 4.1 194.7 2.7 196.6 2.7 Z M 196.6 7.8 C 197.6 7.8 198.4 7.1 198.4 5.9 C 198.4 4.8 197.6 4 196.6 4 C 195.6 4 194.8 4.8 194.8 5.9 C 194.8 7.1 195.6 7.8 196.6 7.8 Z M 204.5 2 C 204.5 1.9 204.4 1.8 204.2 1.8 C 204.19 1.78 203.7 1.8 203.7 1.8 L 203.7 0.5 C 203.7 0.5 205.16 0.48 205.2 0.5 C 205.7 0.5 206 0.6 206 1.2 C 205.98 1.18 206 5 206 5 C 206 5 206.43 5.04 206.4 5 C 206.6 5 206.9 5 207 4.8 C 207.01 4.81 208.3 2.9 208.3 2.9 L 209.9 2.9 C 209.9 2.9 208.4 5.18 208.4 5.2 C 208.14 5.57 207.9 5.7 207.9 5.7 L 207.9 5.7 C 207.9 5.7 208.16 5.77 208.4 6.2 C 208.4 6.2 209.1 7.5 209.1 7.5 C 209.2 7.7 209.3 7.7 209.6 7.7 C 209.58 7.72 210 7.7 210 7.7 L 210 9 C 210 9 208.86 9 208.9 9 C 208.3 9 208.1 8.9 207.9 8.5 C 207.9 8.5 206.9 6.6 206.9 6.6 C 206.8 6.3 206.5 6.3 206.3 6.3 C 206.31 6.32 206 6.3 206 6.3 L 206 9 L 204.5 9 C 204.5 9 204.45 2.04 204.5 2 Z M 211.1 4.4 C 211.1 4.3 211 4.2 210.9 4.2 C 210.87 4.18 210.4 4.2 210.4 4.2 L 210.4 2.9 C 210.4 2.9 211.78 2.88 211.8 2.9 C 212.3 2.9 212.6 3.1 212.6 3.6 C 212.6 3.6 212.6 4 212.6 4 C 212.6 4.21 212.6 4.4 212.6 4.4 C 212.6 4.4 212.6 4.37 212.6 4.4 C 212.9 3.5 213.6 2.8 214.5 2.8 C 214.67 2.8 214.8 2.8 214.8 2.8 L 214.8 4.3 C 214.8 4.3 214.66 4.3 214.4 4.3 C 213.8 4.3 213.1 4.7 212.8 5.6 C 212.7 5.9 212.6 6.2 212.6 6.6 C 212.65 6.58 212.6 9 212.6 9 L 211.1 9 C 211.1 9 211.14 4.44 211.1 4.4 Z M 215.9 4.4 C 215.8 4.2 215.7 4.2 215.5 4.2 C 215.52 4.18 215.4 4.2 215.4 4.2 L 215.4 2.9 C 215.4 2.9 216.26 2.88 216.3 2.9 C 216.8 2.9 217 3 217.2 3.5 C 217.2 3.5 218.3 6.7 218.3 6.7 C 218.44 7.03 218.5 7.5 218.5 7.5 L 218.6 7.5 C 218.6 7.5 218.66 7.03 218.8 6.7 C 218.8 6.7 219.9 3.5 219.9 3.5 C 220.1 3 220.3 2.9 220.8 2.9 C 220.83 2.88 221.6 2.9 221.6 2.9 L 221.6 4.2 C 221.6 4.2 221.5 4.18 221.5 4.2 C 221.3 4.2 221.2 4.2 221.2 4.4 C 221.17 4.39 219.4 9 219.4 9 L 217.6 9 C 217.6 9 215.85 4.39 215.9 4.4 Z M 225.8 5.2 C 225.75 5.16 225.9 5.2 225.9 5.2 C 225.9 5.2 225.94 5.11 225.9 5.1 C 225.9 4.2 225.6 3.9 224.8 3.9 C 224.5 3.9 224 4 224 4.3 C 224 4.32 224 4.6 224 4.6 L 222.6 4.6 C 222.6 4.6 222.58 4 222.6 4 C 222.6 2.9 224.2 2.7 224.8 2.7 C 226.9 2.7 227.5 3.8 227.5 5.2 C 227.5 5.2 227.5 7.5 227.5 7.5 C 227.5 7.6 227.6 7.7 227.7 7.7 C 227.73 7.72 228.2 7.7 228.2 7.7 L 228.2 9 C 228.2 9 226.84 9 226.8 9 C 226.3 9 226.1 8.7 226.1 8.3 C 226.1 8.2 226.1 8.1 226.1 8.1 C 226.08 8.06 226.1 8.1 226.1 8.1 C 226.1 8.1 225.58 9.14 224.2 9.1 C 223.1 9.1 222.1 8.5 222.1 7.2 C 222.1 5.3 224.8 5.2 225.8 5.2 Z M 224.6 8 C 225.4 8 226 7.1 226 6.3 C 225.97 6.35 226 6.2 226 6.2 C 226 6.2 225.7 6.2 225.7 6.2 C 224.9 6.2 223.7 6.3 223.7 7.2 C 223.7 7.6 224 8 224.6 8 Z M 225.3 0.5 L 226.8 0.5 L 225.5 2.1 L 224.4 2.1 L 225.3 0.5 Z M 232.2 2.7 C 233 2.7 234.4 3.1 234.4 4.1 C 234.39 4.12 234.4 4.8 234.4 4.8 L 233 4.8 C 233 4.8 233.05 4.5 233 4.5 C 233 4.2 232.5 4 232.2 4 C 231.1 4 230.4 4.8 230.4 5.9 C 230.4 7.2 231.3 7.8 232.3 7.8 C 233.31 7.81 234.1 7 234.1 7 L 234.7 8 C 234.7 8 233.8 9.14 232.1 9.1 C 230.1 9.1 228.8 7.7 228.8 5.9 C 228.8 4.2 230.1 2.7 232.2 2.7 Z M 238.9 5.2 C 238.93 5.16 239.1 5.2 239.1 5.2 C 239.1 5.2 239.12 5.11 239.1 5.1 C 239.1 4.2 238.8 3.9 238 3.9 C 237.7 3.9 237.2 4 237.2 4.3 C 237.17 4.32 237.2 4.6 237.2 4.6 L 235.8 4.6 C 235.8 4.6 235.76 4 235.8 4 C 235.8 2.9 237.4 2.7 238 2.7 C 240 2.7 240.6 3.8 240.6 5.2 C 240.6 5.2 240.6 7.5 240.6 7.5 C 240.6 7.6 240.7 7.7 240.9 7.7 C 240.91 7.72 241.4 7.7 241.4 7.7 L 241.4 9 C 241.4 9 240.02 9 240 9 C 239.5 9 239.2 8.7 239.2 8.3 C 239.2 8.2 239.3 8.1 239.3 8.1 C 239.25 8.06 239.2 8.1 239.2 8.1 C 239.2 8.1 238.76 9.14 237.4 9.1 C 236.3 9.1 235.3 8.5 235.3 7.2 C 235.3 5.3 237.9 5.2 238.9 5.2 Z M 237.8 8 C 238.6 8 239.1 7.1 239.1 6.3 C 239.14 6.35 239.1 6.2 239.1 6.2 C 239.1 6.2 238.88 6.2 238.9 6.2 C 238.1 6.2 236.8 6.3 236.8 7.2 C 236.8 7.6 237.1 8 237.8 8 Z M 242.6 4.4 C 242.6 4.3 242.5 4.2 242.3 4.2 C 242.35 4.18 241.9 4.2 241.9 4.2 L 241.9 2.9 C 241.9 2.9 243.27 2.88 243.3 2.9 C 243.8 2.9 244.1 3.1 244.1 3.6 C 244.1 3.6 244.1 3.7 244.1 3.7 C 244.1 3.9 244.1 4 244.1 4 C 244.1 4 244.1 4 244.1 4 C 244.3 3.5 245 2.7 246.2 2.7 C 247.6 2.7 248.4 3.4 248.4 5.1 C 248.4 5.1 248.4 7.5 248.4 7.5 C 248.4 7.6 248.5 7.7 248.6 7.7 C 248.63 7.72 249.1 7.7 249.1 7.7 L 249.1 9 C 249.1 9 247.66 9 247.7 9 C 247.1 9 246.8 8.8 246.8 8.2 C 246.8 8.2 246.8 5.4 246.8 5.4 C 246.8 4.6 246.7 4.1 245.9 4.1 C 245.1 4.1 244.5 4.6 244.2 5.4 C 244.2 5.6 244.1 5.9 244.1 6.2 C 244.12 6.19 244.1 9 244.1 9 L 242.6 9 C 242.6 9 242.61 4.44 242.6 4.4 Z M 250.4 0.5 L 251.8 0.5 L 251.8 1.9 L 250.4 1.9 L 250.4 0.5 Z M 250.4 4.4 C 250.4 4.3 250.3 4.2 250.1 4.2 C 250.11 4.18 249.6 4.2 249.6 4.2 L 249.6 2.9 C 249.6 2.9 251.08 2.88 251.1 2.9 C 251.6 2.9 251.9 3.1 251.9 3.7 C 251.9 3.7 251.9 7.5 251.9 7.5 C 251.9 7.6 252 7.7 252.2 7.7 C 252.15 7.72 252.6 7.7 252.6 7.7 L 252.6 9 C 252.6 9 251.18 9 251.2 9 C 250.6 9 250.4 8.8 250.4 8.2 C 250.4 8.2 250.4 4.4 250.4 4.4 Z M 257 5.2 C 256.95 5.16 257.1 5.2 257.1 5.2 C 257.1 5.2 257.14 5.11 257.1 5.1 C 257.1 4.2 256.8 3.9 256 3.9 C 255.7 3.9 255.2 4 255.2 4.3 C 255.2 4.32 255.2 4.6 255.2 4.6 L 253.8 4.6 C 253.8 4.6 253.78 4 253.8 4 C 253.8 2.9 255.4 2.7 256 2.7 C 258.1 2.7 258.7 3.8 258.7 5.2 C 258.7 5.2 258.7 7.5 258.7 7.5 C 258.7 7.6 258.8 7.7 258.9 7.7 C 258.93 7.72 259.4 7.7 259.4 7.7 L 259.4 9 C 259.4 9 258.04 9 258 9 C 257.5 9 257.3 8.7 257.3 8.3 C 257.3 8.2 257.3 8.1 257.3 8.1 C 257.28 8.06 257.3 8.1 257.3 8.1 C 257.3 8.1 256.78 9.14 255.4 9.1 C 254.3 9.1 253.3 8.5 253.3 7.2 C 253.3 5.3 256 5.2 257 5.2 Z M 255.8 8 C 256.6 8 257.2 7.1 257.2 6.3 C 257.17 6.35 257.2 6.2 257.2 6.2 C 257.2 6.2 256.9 6.2 256.9 6.2 C 256.1 6.2 254.9 6.3 254.9 7.2 C 254.9 7.6 255.2 8 255.8 8 Z M 263.5 5 L 270.1 5 L 270.1 6.2 L 263.5 6.2 L 263.5 5 Z M 275 4.4 C 275 4.3 274.9 4.2 274.7 4.2 C 274.69 4.18 274.2 4.2 274.2 4.2 L 274.2 2.9 C 274.2 2.9 275.56 2.88 275.6 2.9 C 276.1 2.9 276.3 3.1 276.3 3.5 C 276.3 3.6 276.3 3.7 276.3 3.7 C 276.33 3.71 276.4 3.7 276.4 3.7 C 276.4 3.7 276.87 2.74 278.3 2.7 C 280 2.7 281 4 281 5.9 C 281 7.9 279.8 9.1 278.2 9.1 C 277 9.14 276.5 8.3 276.5 8.3 L 276.4 8.3 C 276.4 8.3 276.46 8.56 276.5 8.9 C 276.46 8.87 276.5 11.4 276.5 11.4 L 275 11.4 C 275 11.4 274.95 4.44 275 4.4 Z M 277.9 7.9 C 278.8 7.9 279.5 7.2 279.5 6 C 279.5 4.8 278.9 4 278 4 C 277.2 4 276.4 4.6 276.4 6 C 276.4 6.9 276.9 7.9 277.9 7.9 Z M 284.9 2.7 C 286.7 2.7 287.6 4 287.6 5.6 C 287.61 5.82 287.6 6.2 287.6 6.2 C 287.6 6.2 283.35 6.2 283.4 6.2 C 283.5 7.3 284.3 7.8 285.2 7.8 C 286.17 7.85 286.9 7.2 286.9 7.2 L 287.5 8.2 C 287.5 8.2 286.6 9.14 285.1 9.1 C 283.1 9.1 281.8 7.7 281.8 5.9 C 281.8 4.1 283.1 2.7 284.9 2.7 Z M 286.1 5.1 C 286 4.4 285.5 3.9 284.9 3.9 C 284.1 3.9 283.6 4.4 283.4 5.1 C 283.4 5.1 286.1 5.1 286.1 5.1 Z M 289.1 4.4 C 289.1 4.3 289 4.2 288.8 4.2 C 288.82 4.18 288.3 4.2 288.3 4.2 L 288.3 2.9 C 288.3 2.9 289.73 2.88 289.7 2.9 C 290.3 2.9 290.6 3.1 290.6 3.6 C 290.6 3.6 290.6 4 290.6 4 C 290.55 4.21 290.5 4.4 290.5 4.4 C 290.5 4.4 290.55 4.37 290.6 4.4 C 290.8 3.5 291.6 2.8 292.5 2.8 C 292.63 2.8 292.8 2.8 292.8 2.8 L 292.8 4.3 C 292.8 4.3 292.61 4.3 292.4 4.3 C 291.8 4.3 291 4.7 290.7 5.6 C 290.6 5.9 290.6 6.2 290.6 6.6 C 290.6 6.58 290.6 9 290.6 9 L 289.1 9 C 289.1 9 289.09 4.44 289.1 4.4 Z M 296.5 2.7 C 297.3 2.7 298.8 3.1 298.8 4.1 C 298.76 4.12 298.8 4.8 298.8 4.8 L 297.4 4.8 C 297.4 4.8 297.42 4.5 297.4 4.5 C 297.4 4.2 296.9 4 296.5 4 C 295.5 4 294.7 4.8 294.7 5.9 C 294.7 7.2 295.7 7.8 296.6 7.8 C 297.68 7.81 298.4 7 298.4 7 L 299.1 8 C 299.1 8 298.17 9.14 296.5 9.1 C 294.5 9.1 293.2 7.7 293.2 5.9 C 293.2 4.2 294.4 2.7 296.5 2.7 Z M 302.8 2.7 C 304.5 2.7 305.5 4 305.5 5.6 C 305.47 5.82 305.4 6.2 305.4 6.2 C 305.4 6.2 301.21 6.2 301.2 6.2 C 301.3 7.3 302.1 7.8 303 7.8 C 304.03 7.85 304.8 7.2 304.8 7.2 L 305.4 8.2 C 305.4 8.2 304.46 9.14 302.9 9.1 C 300.9 9.1 299.6 7.7 299.6 5.9 C 299.6 4.1 300.9 2.7 302.8 2.7 Z M 303.9 5.1 C 303.9 4.4 303.4 3.9 302.8 3.9 C 302 3.9 301.4 4.4 301.3 5.1 C 301.3 5.1 303.9 5.1 303.9 5.1 Z M 306.9 4.4 C 306.9 4.3 306.8 4.2 306.7 4.2 C 306.68 4.18 306.2 4.2 306.2 4.2 L 306.2 2.9 C 306.2 2.9 307.6 2.88 307.6 2.9 C 308.1 2.9 308.4 3.1 308.4 3.6 C 308.4 3.6 308.4 3.7 308.4 3.7 C 308.4 3.9 308.4 4 308.4 4 C 308.4 4 308.4 4 308.4 4 C 308.7 3.5 309.3 2.7 310.6 2.7 C 311.9 2.7 312.7 3.4 312.7 5.1 C 312.7 5.1 312.7 7.5 312.7 7.5 C 312.7 7.6 312.8 7.7 313 7.7 C 312.97 7.72 313.4 7.7 313.4 7.7 L 313.4 9 C 313.4 9 311.99 9 312 9 C 311.4 9 311.2 8.8 311.2 8.2 C 311.2 8.2 311.2 5.4 311.2 5.4 C 311.2 4.6 311 4.1 310.2 4.1 C 309.4 4.1 308.8 4.6 308.6 5.4 C 308.5 5.6 308.5 5.9 308.5 6.2 C 308.45 6.19 308.5 9 308.5 9 L 306.9 9 C 306.9 9 306.94 4.44 306.9 4.4 Z M 314.7 4.1 L 313.9 4.1 L 313.9 2.9 L 314.7 2.9 L 314.7 1.2 L 316.2 1.2 L 316.2 2.9 L 317.6 2.9 L 317.6 4.1 L 316.2 4.1 C 316.2 4.1 316.21 6.56 316.2 6.6 C 316.2 7.6 317 7.7 317.4 7.7 C 317.59 7.72 317.7 7.7 317.7 7.7 L 317.7 9 C 317.7 9 317.5 9.06 317.2 9.1 C 316.4 9.1 314.7 8.8 314.7 6.8 C 314.68 6.76 314.7 4.1 314.7 4.1 Z M 321.7 2.7 C 323.6 2.7 325.1 4.1 325.1 5.9 C 325.1 7.8 323.6 9.1 321.7 9.1 C 319.9 9.1 318.4 7.8 318.4 5.9 C 318.4 4.1 319.9 2.7 321.7 2.7 Z M 321.7 7.8 C 322.7 7.8 323.6 7.1 323.6 5.9 C 323.6 4.8 322.7 4 321.7 4 C 320.8 4 319.9 4.8 319.9 5.9 C 319.9 7.1 320.8 7.8 321.7 7.8 Z M 329 8.2 C 329 8.2 331.81 4.74 331.8 4.7 C 332.08 4.39 332.3 4.2 332.3 4.2 L 332.3 4.2 C 332.3 4.2 332.14 4.18 331.8 4.2 C 331.8 4.2 330.7 4.2 330.7 4.2 C 330.5 4.2 330.4 4.3 330.4 4.4 C 330.39 4.44 330.4 4.8 330.4 4.8 L 329 4.8 C 329 4.8 329.01 3.7 329 3.7 C 329 3.1 329.3 2.9 329.8 2.9 C 329.83 2.88 334.3 2.9 334.3 2.9 L 334.3 3.7 C 334.3 3.7 331.49 7.15 331.5 7.2 C 331.22 7.49 331 7.7 331 7.7 L 331 7.7 C 331 7.7 331.16 7.7 331.6 7.7 C 331.6 7.7 332.9 7.7 332.9 7.7 C 333.1 7.7 333.2 7.6 333.2 7.4 C 333.16 7.44 333.2 7.1 333.2 7.1 L 334.5 7.1 C 334.5 7.1 334.54 8.18 334.5 8.2 C 334.5 8.8 334.3 9 333.7 9 C 333.74 9 329 9 329 9 L 329 8.2 Z M 330.1 0.5 L 331.2 0.5 L 331.8 1.5 L 331.8 1.5 L 332.4 0.5 L 333.6 0.5 L 332.5 2.1 L 331.2 2.1 L 330.1 0.5 Z M 335.9 0.5 L 337.2 0.5 L 337.2 1.9 L 335.9 1.9 L 335.9 0.5 Z M 335.8 4.4 C 335.8 4.3 335.7 4.2 335.6 4.2 C 335.57 4.18 335.1 4.2 335.1 4.2 L 335.1 2.9 C 335.1 2.9 336.55 2.88 336.5 2.9 C 337.1 2.9 337.3 3.1 337.3 3.7 C 337.3 3.7 337.3 7.5 337.3 7.5 C 337.3 7.6 337.4 7.7 337.6 7.7 C 337.61 7.72 338.1 7.7 338.1 7.7 L 338.1 9 C 338.1 9 336.64 9 336.6 9 C 336.1 9 335.8 8.8 335.8 8.2 C 335.8 8.2 335.8 4.4 335.8 4.4 Z M 341.9 2.7 C 343.6 2.7 344.6 4 344.6 5.6 C 344.59 5.82 344.5 6.2 344.5 6.2 C 344.5 6.2 340.33 6.2 340.3 6.2 C 340.4 7.3 341.2 7.8 342.2 7.8 C 343.15 7.85 343.9 7.2 343.9 7.2 L 344.5 8.2 C 344.5 8.2 343.58 9.14 342.1 9.1 C 340 9.1 338.8 7.7 338.8 5.9 C 338.8 4.1 340 2.7 341.9 2.7 Z M 343 5.1 C 343 4.4 342.5 3.9 341.9 3.9 C 341.1 3.9 340.5 4.4 340.4 5.1 C 340.4 5.1 343 5.1 343 5.1 Z M 346.1 4.4 C 346.1 4.3 346 4.2 345.8 4.2 C 345.8 4.18 345.3 4.2 345.3 4.2 L 345.3 2.9 C 345.3 2.9 346.72 2.88 346.7 2.9 C 347.3 2.9 347.5 3.1 347.5 3.6 C 347.5 3.6 347.5 3.7 347.5 3.7 C 347.5 3.9 347.5 4 347.5 4 C 347.5 4 347.5 4 347.5 4 C 347.8 3.5 348.4 2.7 349.7 2.7 C 351 2.7 351.8 3.4 351.8 5.1 C 351.8 5.1 351.8 7.5 351.8 7.5 C 351.8 7.6 351.9 7.7 352.1 7.7 C 352.09 7.72 352.6 7.7 352.6 7.7 L 352.6 9 C 352.6 9 351.11 9 351.1 9 C 350.5 9 350.3 8.8 350.3 8.2 C 350.3 8.2 350.3 5.4 350.3 5.4 C 350.3 4.6 350.1 4.1 349.3 4.1 C 348.5 4.1 347.9 4.6 347.7 5.4 C 347.6 5.6 347.6 5.9 347.6 6.2 C 347.57 6.19 347.6 9 347.6 9 L 346.1 9 C 346.1 9 346.06 4.44 346.1 4.4 Z M 357 7.1 C 357 7.1 357.76 7.96 358.8 8 C 359.3 8 359.6 7.8 359.6 7.4 C 359.6 6.5 356.4 6.5 356.4 4.5 C 356.4 3.3 357.5 2.7 358.8 2.7 C 359.6 2.7 360.9 3 360.9 4 C 360.93 4.01 360.9 4.6 360.9 4.6 L 359.6 4.6 C 359.6 4.6 359.59 4.34 359.6 4.3 C 359.6 4.1 359.2 3.9 358.8 3.9 C 358.3 3.9 357.9 4.1 357.9 4.5 C 357.9 5.4 361.2 5.2 361.2 7.3 C 361.2 8.4 360.1 9.1 358.8 9.1 C 357.13 9.14 356.3 8.1 356.3 8.1 L 357 7.1 Z M 368.8 5.2 C 368.79 5.16 369 5.2 369 5.2 C 369 5.2 368.98 5.11 369 5.1 C 369 4.2 368.6 3.9 367.9 3.9 C 367.6 3.9 367 4 367 4.3 C 367.04 4.32 367 4.6 367 4.6 L 365.6 4.6 C 365.6 4.6 365.62 4 365.6 4 C 365.6 2.9 367.2 2.7 367.9 2.7 C 369.9 2.7 370.5 3.8 370.5 5.2 C 370.5 5.2 370.5 7.5 370.5 7.5 C 370.5 7.6 370.6 7.7 370.8 7.7 C 370.77 7.72 371.2 7.7 371.2 7.7 L 371.2 9 C 371.2 9 369.88 9 369.9 9 C 369.3 9 369.1 8.7 369.1 8.3 C 369.1 8.2 369.1 8.1 369.1 8.1 C 369.11 8.06 369.1 8.1 369.1 8.1 C 369.1 8.1 368.62 9.14 367.2 9.1 C 366.1 9.1 365.2 8.5 365.2 7.2 C 365.2 5.3 367.8 5.2 368.8 5.2 Z M 367.6 8 C 368.4 8 369 7.1 369 6.3 C 369.01 6.35 369 6.2 369 6.2 C 369 6.2 368.74 6.2 368.7 6.2 C 367.9 6.2 366.7 6.3 366.7 7.2 C 366.7 7.6 367 8 367.6 8 Z M 372.4 2 C 372.4 1.9 372.3 1.8 372.2 1.8 C 372.16 1.78 371.7 1.8 371.7 1.8 L 371.7 0.5 C 371.7 0.5 373.13 0.48 373.1 0.5 C 373.7 0.5 373.9 0.6 373.9 1.2 C 373.95 1.18 373.9 5 373.9 5 C 373.9 5 374.4 5.04 374.4 5 C 374.6 5 374.8 5 375 4.8 C 374.98 4.81 376.2 2.9 376.2 2.9 L 377.9 2.9 C 377.9 2.9 376.37 5.18 376.4 5.2 C 376.11 5.57 375.9 5.7 375.9 5.7 L 375.9 5.7 C 375.9 5.7 376.13 5.77 376.3 6.2 C 376.3 6.2 377 7.5 377 7.5 C 377.1 7.7 377.3 7.7 377.5 7.7 C 377.55 7.72 378 7.7 378 7.7 L 378 9 C 378 9 376.83 9 376.8 9 C 376.3 9 376.1 8.9 375.9 8.5 C 375.9 8.5 374.8 6.6 374.8 6.6 C 374.7 6.3 374.5 6.3 374.3 6.3 C 374.28 6.32 373.9 6.3 373.9 6.3 L 373.9 9 L 372.4 9 C 372.4 9 372.43 2.04 372.4 2 Z M 379.5 10.2 C 379.9 10.2 380.2 10 380.5 9.5 C 380.47 9.46 380.7 9 380.7 9 C 380.7 9 378.63 4.39 378.6 4.4 C 378.6 4.2 378.5 4.2 378.3 4.2 C 378.31 4.18 378.1 4.2 378.1 4.2 L 378.1 2.9 C 378.1 2.9 379.13 2.88 379.1 2.9 C 379.6 2.9 379.8 3 379.9 3.5 C 379.9 3.5 381.1 6.5 381.1 6.5 C 381.26 6.83 381.4 7.3 381.4 7.3 L 381.4 7.3 C 381.4 7.3 381.47 6.83 381.6 6.5 C 381.6 6.5 382.6 3.5 382.6 3.5 C 382.8 3 383 2.9 383.4 2.9 C 383.44 2.88 384.5 2.9 384.5 2.9 L 384.5 4.2 C 384.5 4.2 384.29 4.18 384.3 4.2 C 384.1 4.2 384 4.2 383.9 4.4 C 383.9 4.4 381.7 9.9 381.7 9.9 C 381.3 11 380.5 11.5 379.5 11.5 C 378.58 11.52 378 10.9 378 10.9 L 378.6 9.8 C 378.6 9.8 378.95 10.24 379.5 10.2 Z M 381.7 0.5 L 383.1 0.5 L 381.9 2.1 L 380.7 2.1 L 381.7 0.5 Z M 385.6 4.4 C 385.6 4.3 385.5 4.2 385.4 4.2 C 385.35 4.18 384.9 4.2 384.9 4.2 L 384.9 2.9 C 384.9 2.9 386.27 2.88 386.3 2.9 C 386.8 2.9 387.1 3.1 387.1 3.6 C 387.1 3.6 387.1 3.7 387.1 3.7 C 387.1 3.9 387.1 4 387.1 4 C 387.1 4 387.1 4 387.1 4 C 387.4 3.4 388.1 2.7 389.1 2.7 C 390 2.7 390.6 3.2 390.9 4 C 390.9 4 390.9 4 390.9 4 C 391.2 3.3 392 2.7 393 2.7 C 394.2 2.7 395 3.5 395 5.1 C 395 5.1 395 7.5 395 7.5 C 395 7.6 395.1 7.7 395.2 7.7 C 395.24 7.72 395.7 7.7 395.7 7.7 L 395.7 9 C 395.7 9 394.27 9 394.3 9 C 393.7 9 393.5 8.8 393.5 8.2 C 393.5 8.2 393.5 5.4 393.5 5.4 C 393.5 4.7 393.3 4.1 392.6 4.1 C 391.9 4.1 391.3 4.8 391.1 5.5 C 391.1 5.8 391 6 391 6.3 C 391.05 6.31 391 9 391 9 L 389.5 9 C 389.5 9 389.53 5.35 389.5 5.4 C 389.5 4.7 389.4 4.1 388.7 4.1 C 387.9 4.1 387.4 4.8 387.2 5.5 C 387.2 5.8 387.1 6 387.1 6.3 C 387.12 6.31 387.1 9 387.1 9 L 385.6 9 C 385.6 9 385.61 4.44 385.6 4.4 Z M 396.9 2 C 396.9 1.9 396.8 1.8 396.6 1.8 C 396.62 1.78 396.1 1.8 396.1 1.8 L 396.1 0.5 C 396.1 0.5 397.59 0.48 397.6 0.5 C 398.2 0.5 398.4 0.6 398.4 1.2 C 398.4 1.18 398.4 5 398.4 5 C 398.4 5 398.86 5.04 398.9 5 C 399.1 5 399.3 5 399.4 4.8 C 399.44 4.81 400.7 2.9 400.7 2.9 L 402.4 2.9 C 402.4 2.9 400.83 5.18 400.8 5.2 C 400.56 5.57 400.4 5.7 400.4 5.7 L 400.4 5.7 C 400.4 5.7 400.59 5.77 400.8 6.2 C 400.8 6.2 401.5 7.5 401.5 7.5 C 401.6 7.7 401.7 7.7 402 7.7 C 402 7.72 402.4 7.7 402.4 7.7 L 402.4 9 C 402.4 9 401.28 9 401.3 9 C 400.8 9 400.6 8.9 400.3 8.5 C 400.3 8.5 399.3 6.6 399.3 6.6 C 399.2 6.3 398.9 6.3 398.7 6.3 C 398.74 6.32 398.4 6.3 398.4 6.3 L 398.4 9 L 396.9 9 C 396.9 9 396.88 2.04 396.9 2 Z M 406.2 2.7 C 408.1 2.7 409.6 4.1 409.6 5.9 C 409.6 7.8 408.1 9.1 406.2 9.1 C 404.3 9.1 402.9 7.8 402.9 5.9 C 402.9 4.1 404.3 2.7 406.2 2.7 Z M 406.2 7.8 C 407.2 7.8 408 7.1 408 5.9 C 408 4.8 407.2 4 406.2 4 C 405.2 4 404.4 4.8 404.4 5.9 C 404.4 7.1 405.2 7.8 406.2 7.8 Z M 410.8 2 C 410.8 1.9 410.7 1.8 410.6 1.8 C 410.55 1.78 410.1 1.8 410.1 1.8 L 410.1 0.5 C 410.1 0.5 411.52 0.48 411.5 0.5 C 412.1 0.5 412.3 0.7 412.3 1.3 C 412.3 1.3 412.3 7.5 412.3 7.5 C 412.3 7.6 412.4 7.7 412.6 7.7 C 412.6 7.72 413.1 7.7 413.1 7.7 L 413.1 9 C 413.1 9 411.63 9 411.6 9 C 411.1 9 410.8 8.8 410.8 8.2 C 410.8 8.2 410.8 2 410.8 2 Z M 414.1 0.5 C 414.1 0.7 414.2 0.9 414.2 1.1 C 414.2 1.5 414.1 1.8 413.9 2.2 C 413.9 2.2 412.9 2.2 412.9 2.2 C 413 1.8 413.1 1.5 413.1 1.2 C 413.1 1 413 0.8 413 0.5 C 413 0.5 414.1 0.5 414.1 0.5 Z M 415.2 4.4 C 415.1 4.2 415 4.2 414.8 4.2 C 414.82 4.18 414.7 4.2 414.7 4.2 L 414.7 2.9 C 414.7 2.9 415.57 2.88 415.6 2.9 C 416.1 2.9 416.3 3 416.5 3.5 C 416.5 3.5 417.6 6.7 417.6 6.7 C 417.75 7.03 417.8 7.5 417.8 7.5 L 417.9 7.5 C 417.9 7.5 417.97 7.03 418.1 6.7 C 418.1 6.7 419.2 3.5 419.2 3.5 C 419.4 3 419.6 2.9 420.1 2.9 C 420.14 2.88 421 2.9 421 2.9 L 421 4.2 C 421 4.2 420.81 4.18 420.8 4.2 C 420.6 4.2 420.5 4.2 420.5 4.4 C 420.47 4.39 418.7 9 418.7 9 L 416.9 9 C 416.9 9 415.16 4.39 415.2 4.4 Z M 424.5 2.7 C 426.2 2.7 427.2 4 427.2 5.6 C 427.17 5.82 427.1 6.2 427.1 6.2 C 427.1 6.2 422.91 6.2 422.9 6.2 C 423 7.3 423.8 7.8 424.7 7.8 C 425.73 7.85 426.5 7.2 426.5 7.2 L 427.1 8.2 C 427.1 8.2 426.16 9.14 424.6 9.1 C 422.6 9.1 421.4 7.7 421.4 5.9 C 421.4 4.1 422.6 2.7 424.5 2.7 Z M 425.6 5.1 C 425.6 4.4 425.1 3.9 424.5 3.9 C 423.7 3.9 423.1 4.4 423 5.1 C 423 5.1 425.6 5.1 425.6 5.1 Z M 428.6 2 C 428.6 1.9 428.5 1.8 428.3 1.8 C 428.33 1.78 427.9 1.8 427.9 1.8 L 427.9 0.5 C 427.9 0.5 429.31 0.48 429.3 0.5 C 429.9 0.5 430.1 0.6 430.1 1.2 C 430.12 1.18 430.1 5 430.1 5 C 430.1 5 430.58 5.04 430.6 5 C 430.8 5 431 5 431.2 4.8 C 431.15 4.81 432.4 2.9 432.4 2.9 L 434.1 2.9 C 434.1 2.9 432.54 5.18 432.5 5.2 C 432.28 5.57 432.1 5.7 432.1 5.7 L 432.1 5.7 C 432.1 5.7 432.3 5.77 432.5 6.2 C 432.5 6.2 433.2 7.5 433.2 7.5 C 433.3 7.7 433.4 7.7 433.7 7.7 C 433.72 7.72 434.1 7.7 434.1 7.7 L 434.1 9 C 434.1 9 433 9 433 9 C 432.5 9 432.3 8.9 432 8.5 C 432 8.5 431 6.6 431 6.6 C 430.9 6.3 430.6 6.3 430.5 6.3 C 430.46 6.32 430.1 6.3 430.1 6.3 L 430.1 9 L 428.6 9 C 428.6 9 428.6 2.04 428.6 2 Z M 438.4 2 C 438.4 1.9 438.3 1.8 438.1 1.8 C 438.15 1.78 437.7 1.8 437.7 1.8 L 437.7 0.5 C 437.7 0.5 439.12 0.48 439.1 0.5 C 439.7 0.5 439.9 0.6 439.9 1.2 C 439.94 1.18 439.9 5 439.9 5 C 439.9 5 440.39 5.04 440.4 5 C 440.6 5 440.8 5 441 4.8 C 440.97 4.81 442.2 2.9 442.2 2.9 L 443.9 2.9 C 443.9 2.9 442.36 5.18 442.4 5.2 C 442.1 5.57 441.9 5.7 441.9 5.7 L 441.9 5.7 C 441.9 5.7 442.12 5.77 442.3 6.2 C 442.3 6.2 443 7.5 443 7.5 C 443.1 7.7 443.2 7.7 443.5 7.7 C 443.54 7.72 443.9 7.7 443.9 7.7 L 443.9 9 C 443.9 9 442.82 9 442.8 9 C 442.3 9 442.1 8.9 441.9 8.5 C 441.9 8.5 440.8 6.6 440.8 6.6 C 440.7 6.3 440.5 6.3 440.3 6.3 C 440.27 6.32 439.9 6.3 439.9 6.3 L 439.9 9 L 438.4 9 C 438.4 9 438.41 2.04 438.4 2 Z M 445.1 4.4 C 445.1 4.3 445 4.2 444.8 4.2 C 444.83 4.18 444.4 4.2 444.4 4.2 L 444.4 2.9 C 444.4 2.9 445.75 2.88 445.7 2.9 C 446.3 2.9 446.6 3.1 446.6 3.6 C 446.6 3.6 446.6 4 446.6 4 C 446.56 4.21 446.5 4.4 446.5 4.4 C 446.5 4.4 446.56 4.37 446.6 4.4 C 446.8 3.5 447.6 2.8 448.5 2.8 C 448.64 2.8 448.8 2.8 448.8 2.8 L 448.8 4.3 C 448.8 4.3 448.62 4.3 448.4 4.3 C 447.8 4.3 447 4.7 446.7 5.6 C 446.7 5.9 446.6 6.2 446.6 6.6 C 446.61 6.58 446.6 9 446.6 9 L 445.1 9 C 445.1 9 445.1 4.44 445.1 4.4 Z M 449.8 4.4 C 449.8 4.2 449.6 4.2 449.5 4.2 C 449.48 4.18 449.3 4.2 449.3 4.2 L 449.3 2.9 C 449.3 2.9 450.22 2.88 450.2 2.9 C 450.7 2.9 451 3 451.1 3.5 C 451.1 3.5 452.3 6.7 452.3 6.7 C 452.4 7.03 452.5 7.5 452.5 7.5 L 452.5 7.5 C 452.5 7.5 452.62 7.03 452.7 6.7 C 452.7 6.7 453.9 3.5 453.9 3.5 C 454 3 454.3 2.9 454.8 2.9 C 454.79 2.88 455.6 2.9 455.6 2.9 L 455.6 4.2 C 455.6 4.2 455.46 4.18 455.5 4.2 C 455.3 4.2 455.2 4.2 455.1 4.4 C 455.13 4.39 453.4 9 453.4 9 L 451.6 9 C 451.6 9 449.81 4.39 449.8 4.4 Z M 459.7 5.2 C 459.71 5.16 459.9 5.2 459.9 5.2 C 459.9 5.2 459.91 5.11 459.9 5.1 C 459.9 4.2 459.6 3.9 458.8 3.9 C 458.5 3.9 458 4 458 4.3 C 457.96 4.32 458 4.6 458 4.6 L 456.5 4.6 C 456.5 4.6 456.55 4 456.5 4 C 456.5 2.9 458.2 2.7 458.8 2.7 C 460.8 2.7 461.4 3.8 461.4 5.2 C 461.4 5.2 461.4 7.5 461.4 7.5 C 461.4 7.6 461.5 7.7 461.7 7.7 C 461.69 7.72 462.2 7.7 462.2 7.7 L 462.2 9 C 462.2 9 460.8 9 460.8 9 C 460.2 9 460 8.7 460 8.3 C 460 8.2 460 8.1 460 8.1 C 460.04 8.06 460 8.1 460 8.1 C 460 8.1 459.55 9.14 458.2 9.1 C 457.1 9.1 456.1 8.5 456.1 7.2 C 456.1 5.3 458.7 5.2 459.7 5.2 Z M 458.5 8 C 459.4 8 459.9 7.1 459.9 6.3 C 459.93 6.35 459.9 6.2 459.9 6.2 C 459.9 6.2 459.67 6.2 459.7 6.2 C 458.9 6.2 457.6 6.3 457.6 7.2 C 457.6 7.6 457.9 8 458.5 8 Z M 459.3 0.5 L 460.7 0.5 L 459.5 2.1 L 458.3 2.1 L 459.3 0.5 Z M 466.1 2.7 C 466.9 2.7 468.4 3.1 468.4 4.1 C 468.35 4.12 468.4 4.8 468.4 4.8 L 467 4.8 C 467 4.8 467.01 4.5 467 4.5 C 467 4.2 466.5 4 466.1 4 C 465.1 4 464.3 4.8 464.3 5.9 C 464.3 7.2 465.2 7.8 466.2 7.8 C 467.27 7.81 468 7 468 7 L 468.7 8 C 468.7 8 467.76 9.14 466.1 9.1 C 464.1 9.1 462.8 7.7 462.8 5.9 C 462.8 4.2 464 2.7 466.1 2.7 Z M 472.9 5.2 C 472.89 5.16 473.1 5.2 473.1 5.2 C 473.1 5.2 473.08 5.11 473.1 5.1 C 473.1 4.2 472.7 3.9 472 3.9 C 471.7 3.9 471.1 4 471.1 4.3 C 471.14 4.32 471.1 4.6 471.1 4.6 L 469.7 4.6 C 469.7 4.6 469.72 4 469.7 4 C 469.7 2.9 471.3 2.7 472 2.7 C 474 2.7 474.6 3.8 474.6 5.2 C 474.6 5.2 474.6 7.5 474.6 7.5 C 474.6 7.6 474.7 7.7 474.9 7.7 C 474.87 7.72 475.3 7.7 475.3 7.7 L 475.3 9 C 475.3 9 473.98 9 474 9 C 473.4 9 473.2 8.7 473.2 8.3 C 473.2 8.2 473.2 8.1 473.2 8.1 C 473.21 8.06 473.2 8.1 473.2 8.1 C 473.2 8.1 472.72 9.14 471.3 9.1 C 470.2 9.1 469.3 8.5 469.3 7.2 C 469.3 5.3 471.9 5.2 472.9 5.2 Z M 471.7 8 C 472.5 8 473.1 7.1 473.1 6.3 C 473.11 6.35 473.1 6.2 473.1 6.2 C 473.1 6.2 472.84 6.2 472.8 6.2 C 472 6.2 470.8 6.3 470.8 7.2 C 470.8 7.6 471.1 8 471.7 8 Z M 476.6 4.4 C 476.6 4.3 476.5 4.2 476.3 4.2 C 476.31 4.18 475.8 4.2 475.8 4.2 L 475.8 2.9 C 475.8 2.9 477.23 2.88 477.2 2.9 C 477.8 2.9 478 3.1 478 3.6 C 478 3.6 478 3.7 478 3.7 C 478 3.9 478 4 478 4 C 478 4 478 4 478 4 C 478.3 3.5 479 2.7 480.2 2.7 C 481.6 2.7 482.3 3.4 482.3 5.1 C 482.3 5.1 482.3 7.5 482.3 7.5 C 482.3 7.6 482.4 7.7 482.6 7.7 C 482.6 7.72 483.1 7.7 483.1 7.7 L 483.1 9 C 483.1 9 481.62 9 481.6 9 C 481 9 480.8 8.8 480.8 8.2 C 480.8 8.2 480.8 5.4 480.8 5.4 C 480.8 4.6 480.6 4.1 479.8 4.1 C 479 4.1 478.4 4.6 478.2 5.4 C 478.1 5.6 478.1 5.9 478.1 6.2 C 478.08 6.19 478.1 9 478.1 9 L 476.6 9 C 476.6 9 476.57 4.44 476.6 4.4 Z M 484.3 4.4 C 484.3 4.3 484.3 4.2 484.1 4.2 C 484.09 4.18 483.6 4.2 483.6 4.2 L 483.6 2.9 C 483.6 2.9 485.06 2.88 485.1 2.9 C 485.6 2.9 485.9 3.1 485.9 3.7 C 485.9 3.7 485.9 7.5 485.9 7.5 C 485.9 7.6 486 7.7 486.1 7.7 C 486.14 7.72 486.6 7.7 486.6 7.7 L 486.6 9 C 486.6 9 485.16 9 485.2 9 C 484.6 9 484.3 8.8 484.3 8.2 C 484.3 8.2 484.3 4.4 484.3 4.4 Z M 485.3 0.5 L 486.8 0.5 L 485.5 2.1 L 484.4 2.1 L 485.3 0.5 Z M 487.9 4.4 C 487.9 4.3 487.8 4.2 487.6 4.2 C 487.65 4.18 487.2 4.2 487.2 4.2 L 487.2 2.9 C 487.2 2.9 488.57 2.88 488.6 2.9 C 489.1 2.9 489.4 3.1 489.4 3.6 C 489.4 3.6 489.4 3.7 489.4 3.7 C 489.4 3.9 489.4 4 489.4 4 C 489.4 4 489.4 4 489.4 4 C 489.7 3.4 490.4 2.7 491.4 2.7 C 492.3 2.7 492.9 3.2 493.2 4 C 493.2 4 493.2 4 493.2 4 C 493.5 3.3 494.3 2.7 495.3 2.7 C 496.5 2.7 497.3 3.5 497.3 5.1 C 497.3 5.1 497.3 7.5 497.3 7.5 C 497.3 7.6 497.4 7.7 497.5 7.7 C 497.54 7.72 498 7.7 498 7.7 L 498 9 C 498 9 496.56 9 496.6 9 C 496 9 495.7 8.8 495.7 8.2 C 495.7 8.2 495.7 5.4 495.7 5.4 C 495.7 4.7 495.6 4.1 494.9 4.1 C 494.2 4.1 493.6 4.8 493.4 5.5 C 493.4 5.8 493.3 6 493.3 6.3 C 493.35 6.31 493.3 9 493.3 9 L 491.8 9 C 491.8 9 491.83 5.35 491.8 5.4 C 491.8 4.7 491.7 4.1 491 4.1 C 490.2 4.1 489.7 4.8 489.5 5.5 C 489.5 5.8 489.4 6 489.4 6.3 C 489.42 6.31 489.4 9 489.4 9 L 487.9 9 C 487.9 9 487.91 4.44 487.9 4.4 Z M 505.1 2.7 C 505.9 2.7 507.4 3.1 507.4 4.1 C 507.36 4.12 507.4 4.8 507.4 4.8 L 506 4.8 C 506 4.8 506.02 4.5 506 4.5 C 506 4.2 505.5 4 505.1 4 C 504.1 4 503.3 4.8 503.3 5.9 C 503.3 7.2 504.3 7.8 505.2 7.8 C 506.28 7.81 507.1 7 507.1 7 L 507.7 8 C 507.7 8 506.78 9.14 505.1 9.1 C 503.1 9.1 501.8 7.7 501.8 5.9 C 501.8 4.2 503 2.7 505.1 2.7 Z M 503.2 0.5 L 504.3 0.5 L 504.9 1.5 L 504.9 1.5 L 505.5 0.5 L 506.7 0.5 L 505.6 2.1 L 504.3 2.1 L 503.2 0.5 Z M 509 0.5 L 510.3 0.5 L 510.3 1.9 L 509 1.9 L 509 0.5 Z M 508.9 4.4 C 508.9 4.3 508.8 4.2 508.6 4.2 C 508.65 4.18 508.2 4.2 508.2 4.2 L 508.2 2.9 C 508.2 2.9 509.62 2.88 509.6 2.9 C 510.2 2.9 510.4 3.1 510.4 3.7 C 510.4 3.7 510.4 7.5 510.4 7.5 C 510.4 7.6 510.5 7.7 510.7 7.7 C 510.69 7.72 511.2 7.7 511.2 7.7 L 511.2 9 C 511.2 9 509.72 9 509.7 9 C 509.2 9 508.9 8.8 508.9 8.2 C 508.9 8.2 508.9 4.4 508.9 4.4 Z M 515.7 7.1 C 515.7 7.1 516.44 7.96 517.5 8 C 517.9 8 518.3 7.8 518.3 7.4 C 518.3 6.5 515.1 6.5 515.1 4.5 C 515.1 3.3 516.2 2.7 517.5 2.7 C 518.3 2.7 519.6 3 519.6 4 C 519.6 4.01 519.6 4.6 519.6 4.6 L 518.3 4.6 C 518.3 4.6 518.26 4.34 518.3 4.3 C 518.3 4.1 517.8 3.9 517.5 3.9 C 517 3.9 516.6 4.1 516.6 4.5 C 516.6 5.4 519.8 5.2 519.8 7.3 C 519.8 8.4 518.8 9.1 517.5 9.1 C 515.8 9.14 514.9 8.1 514.9 8.1 L 515.7 7.1 Z M 515.7 0.5 L 516.8 0.5 L 517.4 1.5 L 517.4 1.5 L 518 0.5 L 519.2 0.5 L 518.1 2.1 L 516.8 2.1 L 515.7 0.5 Z M 521.2 4.4 C 521.2 4.3 521.2 4.2 521 4.2 C 520.98 4.18 520.5 4.2 520.5 4.2 L 520.5 2.9 C 520.5 2.9 521.86 2.88 521.9 2.9 C 522.4 2.9 522.6 3.1 522.6 3.5 C 522.6 3.6 522.6 3.7 522.6 3.7 C 522.63 3.71 522.7 3.7 522.7 3.7 C 522.7 3.7 523.17 2.74 524.6 2.7 C 526.3 2.7 527.3 4 527.3 5.9 C 527.3 7.9 526.1 9.1 524.5 9.1 C 523.3 9.14 522.8 8.3 522.8 8.3 L 522.7 8.3 C 522.7 8.3 522.76 8.56 522.8 8.9 C 522.76 8.87 522.8 11.4 522.8 11.4 L 521.2 11.4 C 521.2 11.4 521.25 4.44 521.2 4.4 Z M 524.2 7.9 C 525.1 7.9 525.8 7.2 525.8 6 C 525.8 4.8 525.2 4 524.3 4 C 523.5 4 522.7 4.6 522.7 6 C 522.7 6.9 523.2 7.9 524.2 7.9 Z M 528.8 0.5 L 530.1 0.5 L 530.1 1.9 L 528.8 1.9 L 528.8 0.5 Z M 528.7 4.4 C 528.7 4.3 528.7 4.2 528.5 4.2 C 528.48 4.18 528 4.2 528 4.2 L 528 2.9 C 528 2.9 529.46 2.88 529.5 2.9 C 530 2.9 530.3 3.1 530.3 3.7 C 530.3 3.7 530.3 7.5 530.3 7.5 C 530.3 7.6 530.4 7.7 530.5 7.7 C 530.52 7.72 531 7.7 531 7.7 L 531 9 C 531 9 529.55 9 529.6 9 C 529 9 528.7 8.8 528.7 8.2 C 528.7 8.2 528.7 4.4 528.7 4.4 Z M 532.3 4.4 C 532.3 4.3 532.2 4.2 532 4.2 C 532.02 4.18 531.5 4.2 531.5 4.2 L 531.5 2.9 C 531.5 2.9 532.95 2.88 532.9 2.9 C 533.5 2.9 533.8 3.1 533.8 3.6 C 533.8 3.6 533.8 3.7 533.8 3.7 C 533.8 3.9 533.7 4 533.7 4 C 533.7 4 533.8 4 533.8 4 C 534 3.5 534.7 2.7 535.9 2.7 C 537.3 2.7 538 3.4 538 5.1 C 538 5.1 538 7.5 538 7.5 C 538 7.6 538.1 7.7 538.3 7.7 C 538.31 7.72 538.8 7.7 538.8 7.7 L 538.8 9 C 538.8 9 537.34 9 537.3 9 C 536.8 9 536.5 8.8 536.5 8.2 C 536.5 8.2 536.5 5.4 536.5 5.4 C 536.5 4.6 536.3 4.1 535.6 4.1 C 534.7 4.1 534.1 4.6 533.9 5.4 C 533.8 5.6 533.8 5.9 533.8 6.2 C 533.8 6.19 533.8 9 533.8 9 L 532.3 9 C 532.3 9 532.29 4.44 532.3 4.4 Z M 542.5 2.7 C 544.3 2.7 545.2 4 545.2 5.6 C 545.21 5.82 545.2 6.2 545.2 6.2 C 545.2 6.2 540.95 6.2 541 6.2 C 541.1 7.3 541.9 7.8 542.8 7.8 C 543.77 7.85 544.5 7.2 544.5 7.2 L 545.1 8.2 C 545.1 8.2 544.2 9.14 542.7 9.1 C 540.7 9.1 539.4 7.7 539.4 5.9 C 539.4 4.1 540.7 2.7 542.5 2.7 Z M 543.7 5.1 C 543.6 4.4 543.1 3.9 542.5 3.9 C 541.7 3.9 541.2 4.4 541 5.1 C 541 5.1 543.7 5.1 543.7 5.1 Z M 546.7 4.4 C 546.7 4.3 546.6 4.2 546.4 4.2 C 546.42 4.18 545.9 4.2 545.9 4.2 L 545.9 2.9 C 545.9 2.9 547.35 2.88 547.3 2.9 C 547.9 2.9 548.2 3.1 548.2 3.6 C 548.2 3.6 548.2 3.7 548.2 3.7 C 548.2 3.9 548.1 4 548.1 4 C 548.1 4 548.2 4 548.2 4 C 548.4 3.5 549.1 2.7 550.3 2.7 C 551.7 2.7 552.4 3.4 552.4 5.1 C 552.4 5.1 552.4 7.5 552.4 7.5 C 552.4 7.6 552.5 7.7 552.7 7.7 C 552.71 7.72 553.2 7.7 553.2 7.7 L 553.2 9 C 553.2 9 551.74 9 551.7 9 C 551.2 9 550.9 8.8 550.9 8.2 C 550.9 8.2 550.9 5.4 550.9 5.4 C 550.9 4.6 550.7 4.1 550 4.1 C 549.1 4.1 548.5 4.6 548.3 5.4 C 548.2 5.6 548.2 5.9 548.2 6.2 C 548.2 6.19 548.2 9 548.2 9 L 546.7 9 C 546.7 9 546.69 4.44 546.7 4.4 Z M 554.5 4.4 C 554.5 4.3 554.4 4.2 554.2 4.2 C 554.2 4.18 553.7 4.2 553.7 4.2 L 553.7 2.9 C 553.7 2.9 555.17 2.88 555.2 2.9 C 555.7 2.9 556 3.1 556 3.7 C 556 3.7 556 7.5 556 7.5 C 556 7.6 556.1 7.7 556.3 7.7 C 556.25 7.72 556.7 7.7 556.7 7.7 L 556.7 9 C 556.7 9 555.28 9 555.3 9 C 554.7 9 554.5 8.8 554.5 8.2 C 554.5 8.2 554.5 4.4 554.5 4.4 Z M 555.5 0.5 L 556.9 0.5 L 555.7 2.1 L 554.5 2.1 L 555.5 0.5 Z M 558 4.4 C 558 4.3 557.9 4.2 557.8 4.2 C 557.76 4.18 557.3 4.2 557.3 4.2 L 557.3 2.9 C 557.3 2.9 558.69 2.88 558.7 2.9 C 559.2 2.9 559.5 3.1 559.5 3.6 C 559.5 3.6 559.5 3.7 559.5 3.7 C 559.5 3.9 559.5 4 559.5 4 C 559.5 4 559.5 4 559.5 4 C 559.8 3.4 560.5 2.7 561.5 2.7 C 562.4 2.7 563 3.2 563.3 4 C 563.3 4 563.3 4 563.3 4 C 563.6 3.3 564.4 2.7 565.4 2.7 C 566.7 2.7 567.4 3.5 567.4 5.1 C 567.4 5.1 567.4 7.5 567.4 7.5 C 567.4 7.6 567.5 7.7 567.7 7.7 C 567.65 7.72 568.1 7.7 568.1 7.7 L 568.1 9 C 568.1 9 566.68 9 566.7 9 C 566.1 9 565.9 8.8 565.9 8.2 C 565.9 8.2 565.9 5.4 565.9 5.4 C 565.9 4.7 565.7 4.1 565 4.1 C 564.3 4.1 563.7 4.8 563.6 5.5 C 563.5 5.8 563.5 6 563.5 6.3 C 563.46 6.31 563.5 9 563.5 9 L 561.9 9 C 561.9 9 561.94 5.35 561.9 5.4 C 561.9 4.7 561.8 4.1 561.1 4.1 C 560.3 4.1 559.8 4.8 559.6 5.5 C 559.6 5.8 559.5 6 559.5 6.3 C 559.54 6.31 559.5 9 559.5 9 L 558 9 C 558 9 558.03 4.44 558 4.4 Z M 572.5 4.4 C 572.5 4.3 572.4 4.2 572.3 4.2 C 572.26 4.18 571.8 4.2 571.8 4.2 L 571.8 2.9 C 571.8 2.9 573.14 2.88 573.1 2.9 C 573.7 2.9 573.9 3.1 573.9 3.5 C 573.9 3.6 573.9 3.7 573.9 3.7 C 573.9 3.71 573.9 3.7 573.9 3.7 C 573.9 3.7 574.44 2.74 575.9 2.7 C 577.5 2.7 578.6 4 578.6 5.9 C 578.6 7.9 577.4 9.1 575.8 9.1 C 574.57 9.14 574 8.3 574 8.3 L 574 8.3 C 574 8.3 574.03 8.56 574 8.9 C 574.03 8.87 574 11.4 574 11.4 L 572.5 11.4 C 572.5 11.4 572.52 4.44 572.5 4.4 Z M 575.5 7.9 C 576.4 7.9 577.1 7.2 577.1 6 C 577.1 4.8 576.4 4 575.5 4 C 574.7 4 574 4.6 574 6 C 574 6.9 574.5 7.9 575.5 7.9 Z M 582.7 2.7 C 584.6 2.7 586.1 4.1 586.1 5.9 C 586.1 7.8 584.6 9.1 582.7 9.1 C 580.9 9.1 579.4 7.8 579.4 5.9 C 579.4 4.1 580.9 2.7 582.7 2.7 Z M 582.7 7.8 C 583.7 7.8 584.5 7.1 584.5 5.9 C 584.5 4.8 583.7 4 582.7 4 C 581.7 4 580.9 4.8 580.9 5.9 C 580.9 7.1 581.7 7.8 582.7 7.8 Z M 590.2 2.7 C 591 2.7 592.4 3.1 592.4 4.1 C 592.41 4.12 592.4 4.8 592.4 4.8 L 591.1 4.8 C 591.1 4.8 591.06 4.5 591.1 4.5 C 591.1 4.2 590.6 4 590.2 4 C 589.1 4 588.4 4.8 588.4 5.9 C 588.4 7.2 589.3 7.8 590.3 7.8 C 591.33 7.81 592.1 7 592.1 7 L 592.7 8 C 592.7 8 591.82 9.14 590.2 9.1 C 588.1 9.1 586.8 7.7 586.8 5.9 C 586.8 4.2 588.1 2.7 590.2 2.7 Z M 588.2 0.5 L 589.3 0.5 L 589.9 1.5 L 590 1.5 L 590.6 0.5 L 591.7 0.5 L 590.6 2.1 L 589.3 2.1 L 588.2 0.5 Z M 596.9 5.2 C 596.94 5.16 597.1 5.2 597.1 5.2 C 597.1 5.2 597.14 5.11 597.1 5.1 C 597.1 4.2 596.8 3.9 596 3.9 C 595.7 3.9 595.2 4 595.2 4.3 C 595.19 4.32 595.2 4.6 595.2 4.6 L 593.8 4.6 C 593.8 4.6 593.78 4 593.8 4 C 593.8 2.9 595.4 2.7 596 2.7 C 598.1 2.7 598.7 3.8 598.7 5.2 C 598.7 5.2 598.7 7.5 598.7 7.5 C 598.7 7.6 598.8 7.7 598.9 7.7 C 598.92 7.72 599.4 7.7 599.4 7.7 L 599.4 9 C 599.4 9 598.03 9 598 9 C 597.5 9 597.3 8.7 597.3 8.3 C 597.3 8.2 597.3 8.1 597.3 8.1 C 597.27 8.06 597.2 8.1 597.2 8.1 C 597.2 8.1 596.78 9.14 595.4 9.1 C 594.3 9.1 593.3 8.5 593.3 7.2 C 593.3 5.3 595.9 5.2 596.9 5.2 Z M 595.8 8 C 596.6 8 597.2 7.1 597.2 6.3 C 597.16 6.35 597.2 6.2 597.2 6.2 C 597.2 6.2 596.9 6.2 596.9 6.2 C 596.1 6.2 594.8 6.3 594.8 7.2 C 594.8 7.6 595.1 8 595.8 8 Z M 600.7 7.1 C 600.7 7.1 601.43 7.96 602.5 8 C 602.9 8 603.3 7.8 603.3 7.4 C 603.3 6.5 600.1 6.5 600.1 4.5 C 600.1 3.3 601.2 2.7 602.5 2.7 C 603.3 2.7 604.6 3 604.6 4 C 604.6 4.01 604.6 4.6 604.6 4.6 L 603.3 4.6 C 603.3 4.6 603.26 4.34 603.3 4.3 C 603.3 4.1 602.8 3.9 602.5 3.9 C 601.9 3.9 601.6 4.1 601.6 4.5 C 601.6 5.4 604.8 5.2 604.8 7.3 C 604.8 8.4 603.8 9.1 602.5 9.1 C 600.79 9.14 599.9 8.1 599.9 8.1 L 600.7 7.1 Z M 609.2 7.7 L 611 7.7 C 611 7.7 611.03 2.94 611 2.9 C 611.03 2.65 611 2.4 611 2.4 L 611 2.4 C 611 2.4 610.92 2.57 610.6 2.8 C 610.65 2.84 610 3.5 610 3.5 L 609.1 2.5 L 611.2 0.5 L 612.6 0.5 L 612.6 7.7 L 614.4 7.7 L 614.4 9 L 609.2 9 L 609.2 7.7 Z M 619.4 2.9 C 619.4 2.2 618.9 1.8 618.1 1.8 C 617.5 1.8 617 2.1 617 2.4 C 617.03 2.45 617 2.8 617 2.8 L 615.6 2.8 C 615.6 2.8 615.62 1.98 615.6 2 C 615.6 0.9 617.1 0.3 618.2 0.3 C 619.7 0.3 621 1.3 621 2.9 C 621 5.7 616.8 5.9 616.8 7.5 C 616.8 7.6 616.9 7.7 617.2 7.7 C 617.2 7.7 619.7 7.7 619.7 7.7 C 619.8 7.7 619.9 7.6 619.9 7.4 C 619.94 7.4 619.9 6.9 619.9 6.9 L 621.3 6.9 C 621.3 6.9 621.35 8.18 621.3 8.2 C 621.3 8.8 621.1 9 620.5 9 C 620.5 9 616.1 9 616.1 9 C 615.4 9 615.2 8.7 615.2 7.9 C 615.2 4.8 619.4 5 619.4 2.9 Z M 628.7 2.7 C 629.5 2.7 630.9 3.1 630.9 4.1 C 630.93 4.12 630.9 4.8 630.9 4.8 L 629.6 4.8 C 629.6 4.8 629.58 4.5 629.6 4.5 C 629.6 4.2 629.1 4 628.7 4 C 627.7 4 626.9 4.8 626.9 5.9 C 626.9 7.2 627.8 7.8 628.8 7.8 C 629.85 7.81 630.6 7 630.6 7 L 631.2 8 C 631.2 8 630.34 9.14 628.7 9.1 C 626.7 9.1 625.4 7.7 625.4 5.9 C 625.4 4.2 626.6 2.7 628.7 2.7 Z M 632.8 10.2 C 633.3 10.2 633.6 10 633.9 9.5 C 633.85 9.46 634.1 9 634.1 9 C 634.1 9 632.02 4.39 632 4.4 C 631.9 4.2 631.9 4.2 631.7 4.2 C 631.7 4.18 631.5 4.2 631.5 4.2 L 631.5 2.9 C 631.5 2.9 632.52 2.88 632.5 2.9 C 633 2.9 633.2 3 633.3 3.5 C 633.3 3.5 634.5 6.5 634.5 6.5 C 634.65 6.83 634.7 7.3 634.7 7.3 L 634.8 7.3 C 634.8 7.3 634.86 6.83 635 6.5 C 635 6.5 636 3.5 636 3.5 C 636.2 3 636.4 2.9 636.8 2.9 C 636.83 2.88 637.9 2.9 637.9 2.9 L 637.9 4.2 C 637.9 4.2 637.68 4.18 637.7 4.2 C 637.5 4.2 637.4 4.2 637.3 4.4 C 637.3 4.4 635.1 9.9 635.1 9.9 C 634.7 11 633.8 11.5 632.9 11.5 C 631.97 11.52 631.4 10.9 631.4 10.9 L 632 9.8 C 632 9.8 632.34 10.24 632.8 10.2 Z M 639 2 C 639 1.9 638.9 1.8 638.7 1.8 C 638.69 1.78 638.2 1.8 638.2 1.8 L 638.2 0.5 C 638.2 0.5 639.66 0.48 639.7 0.5 C 640.2 0.5 640.5 0.6 640.5 1.2 C 640.48 1.18 640.5 5 640.5 5 C 640.5 5 640.93 5.04 640.9 5 C 641.1 5 641.4 5 641.5 4.8 C 641.51 4.81 642.8 2.9 642.8 2.9 L 644.4 2.9 C 644.4 2.9 642.9 5.18 642.9 5.2 C 642.64 5.57 642.4 5.7 642.4 5.7 L 642.4 5.7 C 642.4 5.7 642.66 5.77 642.9 6.2 C 642.9 6.2 643.6 7.5 643.6 7.5 C 643.7 7.7 643.8 7.7 644.1 7.7 C 644.08 7.72 644.5 7.7 644.5 7.7 L 644.5 9 C 644.5 9 643.36 9 643.4 9 C 642.8 9 642.6 8.9 642.4 8.5 C 642.4 8.5 641.4 6.6 641.4 6.6 C 641.3 6.3 641 6.3 640.8 6.3 C 640.81 6.32 640.5 6.3 640.5 6.3 L 640.5 9 L 639 9 C 639 9 638.96 2.04 639 2 Z M 645.5 2 C 645.5 1.9 645.4 1.8 645.3 1.8 C 645.27 1.78 644.8 1.8 644.8 1.8 L 644.8 0.5 C 644.8 0.5 646.24 0.48 646.2 0.5 C 646.8 0.5 647.1 0.7 647.1 1.3 C 647.1 1.3 647.1 7.5 647.1 7.5 C 647.1 7.6 647.1 7.7 647.3 7.7 C 647.32 7.72 647.8 7.7 647.8 7.7 L 647.8 9 C 647.8 9 646.35 9 646.3 9 C 645.8 9 645.5 8.8 645.5 8.2 C 645.5 8.2 645.5 2 645.5 2 Z M 651.8 2.7 C 653.7 2.7 655.2 4.1 655.2 5.9 C 655.2 7.8 653.7 9.1 651.8 9.1 C 649.9 9.1 648.4 7.8 648.4 5.9 C 648.4 4.1 649.9 2.7 651.8 2.7 Z M 651.8 7.8 C 652.8 7.8 653.6 7.1 653.6 5.9 C 653.6 4.8 652.8 4 651.8 4 C 650.8 4 650 4.8 650 5.9 C 650 7.1 650.8 7.8 651.8 7.8 Z M 656 4.4 C 656 4.2 655.9 4.2 655.7 4.2 C 655.69 4.18 655.6 4.2 655.6 4.2 L 655.6 2.9 C 655.6 2.9 656.44 2.88 656.4 2.9 C 656.9 2.9 657.2 3 657.3 3.5 C 657.3 3.5 658.5 6.7 658.5 6.7 C 658.62 7.03 658.7 7.5 658.7 7.5 L 658.7 7.5 C 658.7 7.5 658.84 7.03 659 6.7 C 659 6.7 660.1 3.5 660.1 3.5 C 660.3 3 660.5 2.9 661 2.9 C 661.01 2.88 661.8 2.9 661.8 2.9 L 661.8 4.2 C 661.8 4.2 661.68 4.18 661.7 4.2 C 661.5 4.2 661.4 4.2 661.3 4.4 C 661.35 4.39 659.6 9 659.6 9 L 657.8 9 C 657.8 9 656.03 4.39 656 4.4 Z " stroke="none" fill="#000"/>  </g></svg>