<?xml version="1.0" standalone="no"?><!DOCTYPE svg PUBLIC "-//W3C//DTD SVG 1.1//EN" "http://www.w3.org/Graphics/SVG/1.1/DTD/svg11.dtd"><svg xmlns="http://www.w3.org/2000/svg" version="1.1" width="44px" height="19.5px" viewBox="0 -1 44 19.5" style="top:-1px">  <desc>51.5%</desc>  <defs/>  <g id="Polygon79216">    <path d="M 10.8 12.6 C 10.3 12.6 9.9 12.6 9.3 12.4 C 9.33 12.44 9.3 11.7 9.3 11.7 C 9.3 11.7 9.53 11.69 9.5 11.7 C 10 11.8 10.4 11.8 10.7 11.8 C 11.9 11.8 12.5 11.2 12.5 10 C 12.5 9.7 12.5 9.5 12.4 9.2 C 12.3 9 12.2 8.8 12 8.7 C 11.8 8.6 11.6 8.5 11.3 8.4 C 11 8.3 10.6 8.3 10.2 8.3 C 10.21 8.31 9.5 8.3 9.5 8.3 L 9.5 8.2 L 9.8 4.1 L 13.1 4.1 L 13.1 4.9 L 10.5 4.9 C 10.5 4.9 10.29 7.59 10.3 7.6 C 10.9 7.6 11.3 7.6 11.7 7.7 C 12.1 7.8 12.5 8 12.7 8.2 C 13 8.4 13.2 8.6 13.3 8.9 C 13.4 9.2 13.5 9.6 13.5 10 C 13.5 10.9 13.2 11.5 12.7 12 C 12.3 12.4 11.6 12.6 10.8 12.6 Z M 15.9 5.2 L 15.9 5.2 L 14.3 6.1 L 14.2 6.1 L 14 5.7 L 14 5.6 L 16.2 4.1 L 16.9 4.1 L 16.9 12.5 L 15.9 12.5 L 15.9 5.2 Z M 19.6 11.9 C 19.6 12.3 19.4 12.5 19 12.5 C 18.6 12.5 18.4 12.3 18.4 11.9 C 18.4 11.6 18.6 11.4 19 11.4 C 19.2 11.4 19.4 11.4 19.5 11.5 C 19.6 11.6 19.6 11.7 19.6 11.9 C 19.6 11.9 19.6 11.9 19.6 11.9 Z M 22.2 12.6 C 21.8 12.6 21.3 12.6 20.8 12.4 C 20.77 12.44 20.8 11.7 20.8 11.7 C 20.8 11.7 20.97 11.69 21 11.7 C 21.4 11.8 21.8 11.8 22.1 11.8 C 23.4 11.8 24 11.2 24 10 C 24 9.7 23.9 9.5 23.8 9.2 C 23.8 9 23.6 8.8 23.4 8.7 C 23.3 8.6 23 8.5 22.7 8.4 C 22.4 8.3 22.1 8.3 21.7 8.3 C 21.65 8.31 21 8.3 21 8.3 L 20.9 8.2 L 21.2 4.1 L 24.6 4.1 L 24.6 4.9 L 21.9 4.9 C 21.9 4.9 21.73 7.59 21.7 7.6 C 22.3 7.6 22.8 7.6 23.2 7.7 C 23.6 7.8 23.9 8 24.2 8.2 C 24.4 8.4 24.6 8.6 24.7 8.9 C 24.8 9.2 24.9 9.6 24.9 10 C 24.9 10.9 24.7 11.5 24.2 12 C 23.7 12.4 23 12.6 22.2 12.6 Z M 27.6 9.3 C 27 9.3 26.5 9.1 26.2 8.6 C 25.9 8.2 25.8 7.5 25.8 6.6 C 25.8 5.8 25.9 5.1 26.2 4.6 C 26.5 4.2 27 4 27.6 4 C 28.2 4 28.7 4.2 29 4.6 C 29.3 5.1 29.4 5.8 29.4 6.6 C 29.4 7.5 29.3 8.2 29 8.6 C 28.7 9.1 28.2 9.3 27.6 9.3 Z M 26.5 6.6 C 26.5 8 26.8 8.6 27.6 8.6 C 28.3 8.6 28.7 8 28.7 6.6 C 28.7 5.3 28.3 4.6 27.6 4.6 C 26.8 4.6 26.5 5.3 26.5 6.6 C 26.5 6.6 26.5 6.6 26.5 6.6 Z M 32.9 12.6 C 32.3 12.6 31.8 12.4 31.5 11.9 C 31.2 11.5 31 10.8 31 10 C 31 9.1 31.2 8.4 31.5 8 C 31.8 7.5 32.3 7.3 32.9 7.3 C 33.5 7.3 33.9 7.5 34.2 8 C 34.5 8.4 34.7 9.1 34.7 10 C 34.7 10.8 34.5 11.5 34.2 11.9 C 33.9 12.4 33.5 12.6 32.9 12.6 Z M 31.7 10 C 31.7 11.3 32.1 12 32.9 12 C 33.6 12 34 11.3 34 10 C 34 8.6 33.6 8 32.9 8 C 32.1 8 31.7 8.6 31.7 10 C 31.7 10 31.7 10 31.7 10 Z M 31.4 4.1 L 32.2 4.1 L 29 12.5 L 28.2 12.5 L 31.4 4.1 Z " stroke="none" fill="#68adca"/>  </g></svg>