<?xml version="1.0" standalone="no"?><!DOCTYPE svg PUBLIC "-//W3C//DTD SVG 1.1//EN" "http://www.w3.org/Graphics/SVG/1.1/DTD/svg11.dtd"><svg xmlns="http://www.w3.org/2000/svg" version="1.1" width="152px" height="127.5px" viewBox="-54 -55 152 127.5" style="left:-54px;top:-55px">  <desc>33.4%</desc>  <defs/>  <g id="Polygon80011">    <path d="M 9.7 12.6 C 9.3 12.6 8.8 12.5 8.3 12.4 C 8.33 12.42 8.3 11.7 8.3 11.7 C 8.3 11.7 8.4 11.69 8.4 11.7 C 8.6 11.7 8.8 11.8 9 11.8 C 9.2 11.8 9.4 11.8 9.6 11.8 C 10.2 11.8 10.7 11.7 11 11.4 C 11.3 11.1 11.5 10.7 11.5 10.2 C 11.5 9.7 11.3 9.2 11 8.9 C 10.7 8.7 10.1 8.5 9.5 8.5 C 9.45 8.52 9.1 8.5 9.1 8.5 L 9.1 7.8 C 9.1 7.8 9.44 7.8 9.4 7.8 C 10 7.8 10.5 7.7 10.8 7.4 C 11.1 7.1 11.2 6.8 11.2 6.2 C 11.2 5.2 10.7 4.7 9.7 4.7 C 9.5 4.7 9.3 4.7 9.1 4.8 C 8.9 4.8 8.7 4.8 8.4 4.9 C 8.43 4.87 8.4 4.9 8.4 4.9 C 8.4 4.9 8.3 4.15 8.3 4.2 C 8.5 4.1 8.8 4 9 4 C 9.3 4 9.5 4 9.8 4 C 10.5 4 11.1 4.2 11.5 4.5 C 12 4.9 12.2 5.4 12.2 6.1 C 12.2 6.6 12 7.1 11.8 7.4 C 11.6 7.7 11.2 8 10.8 8.1 C 10.8 8.1 10.8 8.2 10.8 8.2 C 11.3 8.3 11.7 8.5 12 8.9 C 12.3 9.2 12.4 9.7 12.4 10.3 C 12.4 11 12.2 11.6 11.7 12 C 11.2 12.4 10.6 12.6 9.7 12.6 Z M 14.9 12.6 C 14.4 12.6 13.9 12.5 13.5 12.4 C 13.47 12.42 13.5 11.7 13.5 11.7 C 13.5 11.7 13.54 11.69 13.5 11.7 C 13.7 11.7 13.9 11.8 14.1 11.8 C 14.3 11.8 14.6 11.8 14.8 11.8 C 15.4 11.8 15.8 11.7 16.1 11.4 C 16.4 11.1 16.6 10.7 16.6 10.2 C 16.6 9.7 16.4 9.2 16.1 8.9 C 15.8 8.7 15.3 8.5 14.6 8.5 C 14.59 8.52 14.2 8.5 14.2 8.5 L 14.2 7.8 C 14.2 7.8 14.58 7.8 14.6 7.8 C 15.2 7.8 15.6 7.7 15.9 7.4 C 16.2 7.1 16.4 6.8 16.4 6.2 C 16.4 5.2 15.9 4.7 14.8 4.7 C 14.6 4.7 14.5 4.7 14.3 4.8 C 14 4.8 13.8 4.8 13.6 4.9 C 13.57 4.87 13.5 4.9 13.5 4.9 C 13.5 4.9 13.43 4.15 13.4 4.2 C 13.7 4.1 13.9 4 14.2 4 C 14.4 4 14.7 4 14.9 4 C 15.7 4 16.3 4.2 16.7 4.5 C 17.1 4.9 17.3 5.4 17.3 6.1 C 17.3 6.6 17.2 7.1 16.9 7.4 C 16.7 7.7 16.4 8 15.9 8.1 C 15.9 8.1 15.9 8.2 15.9 8.2 C 16.5 8.3 16.9 8.5 17.1 8.9 C 17.4 9.2 17.5 9.7 17.5 10.3 C 17.5 11 17.3 11.6 16.8 12 C 16.4 12.4 15.7 12.6 14.9 12.6 Z M 19.8 11.9 C 19.8 12.3 19.6 12.5 19.2 12.5 C 18.8 12.5 18.6 12.3 18.6 11.9 C 18.6 11.6 18.8 11.4 19.2 11.4 C 19.4 11.4 19.6 11.4 19.7 11.5 C 19.8 11.6 19.8 11.7 19.8 11.9 C 19.8 11.9 19.8 11.9 19.8 11.9 Z M 20.6 10 L 20.6 9.9 L 23.4 4 L 23.4 4 L 24.2 4.1 L 24.3 4.2 L 21.6 9.7 L 21.6 9.7 L 24.2 9.7 L 24.5 6.8 L 25.1 6.8 L 25.1 9.7 L 26.1 9.7 L 26.1 10.5 L 25.1 10.5 L 25.1 12.5 L 24.2 12.5 L 24.2 10.5 L 20.8 10.5 L 20.6 10 Z M 28.6 9.3 C 28 9.3 27.5 9.1 27.2 8.6 C 26.9 8.2 26.8 7.5 26.8 6.6 C 26.8 5.8 26.9 5.1 27.2 4.6 C 27.6 4.2 28 4 28.6 4 C 29.2 4 29.7 4.2 30 4.6 C 30.3 5.1 30.4 5.8 30.4 6.6 C 30.4 7.5 30.3 8.2 30 8.6 C 29.7 9.1 29.2 9.3 28.6 9.3 Z M 27.5 6.6 C 27.5 8 27.9 8.6 28.6 8.6 C 29.4 8.6 29.7 8 29.7 6.6 C 29.7 5.3 29.4 4.6 28.6 4.6 C 27.9 4.6 27.5 5.3 27.5 6.6 C 27.5 6.6 27.5 6.6 27.5 6.6 Z M 33.9 12.6 C 33.3 12.6 32.8 12.4 32.5 11.9 C 32.2 11.5 32 10.8 32 10 C 32 9.1 32.2 8.4 32.5 8 C 32.8 7.5 33.3 7.3 33.9 7.3 C 34.5 7.3 34.9 7.5 35.3 8 C 35.6 8.4 35.7 9.1 35.7 10 C 35.7 10.8 35.6 11.5 35.3 11.9 C 34.9 12.4 34.5 12.6 33.9 12.6 Z M 32.8 10 C 32.8 11.3 33.1 12 33.9 12 C 34.6 12 35 11.3 35 10 C 35 8.6 34.6 8 33.9 8 C 33.1 8 32.8 8.6 32.8 10 C 32.8 10 32.8 10 32.8 10 Z M 32.5 4.1 L 33.2 4.1 L 30 12.5 L 29.2 12.5 L 32.5 4.1 Z " stroke="none" fill="#ee3078"/>  </g></svg>