<?xml version="1.0" standalone="no"?><!DOCTYPE svg PUBLIC "-//W3C//DTD SVG 1.1//EN" "http://www.w3.org/Graphics/SVG/1.1/DTD/svg11.dtd"><svg xmlns="http://www.w3.org/2000/svg" version="1.1" width="526.1px" height="43.5px" viewBox="0 -5 526.1 43.5" style="top:-5px">  <desc>Eko</desc>  <defs/>  <g id="Polygon70979">    <path d="M 2.3 18.8 L 13.3 14 L 13.3 13.9 L 2.3 9.2 L 2.3 7.2 L 15.9 13.2 L 15.9 14.7 L 2.3 20.8 L 2.3 18.8 Z M 29.5 3.3 L 27.6 3.3 L 27.6 1.4 C 27.6 1.4 39.66 1.41 39.7 1.4 C 40.9 1.4 41.5 2 41.5 3.2 C 41.49 3.24 41.5 5.3 41.5 5.3 L 39.5 5.3 C 39.5 5.3 39.51 3.93 39.5 3.9 C 39.5 3.5 39.3 3.3 38.8 3.3 C 38.85 3.27 31.6 3.3 31.6 3.3 L 31.6 10.9 L 39.6 10.9 L 39.6 12.8 L 31.6 12.8 C 31.6 12.8 31.65 19.98 31.6 20 C 31.6 20.4 31.9 20.6 32.3 20.6 C 32.3 20.6 39.7 20.6 39.7 20.6 C 40.1 20.6 40.4 20.4 40.4 20 C 40.38 19.98 40.4 18.6 40.4 18.6 L 42.3 18.6 C 42.3 18.6 42.33 20.67 42.3 20.7 C 42.3 22 41.8 22.5 40.5 22.5 C 40.5 22.5 31.4 22.5 31.4 22.5 C 30.1 22.5 29.5 22 29.5 20.7 C 29.55 20.67 29.5 3.3 29.5 3.3 Z M 45.6 3.8 C 45.6 3.4 45.4 3.2 44.9 3.2 C 44.94 3.18 43.7 3.2 43.7 3.2 L 43.7 1.4 C 43.7 1.4 45.81 1.41 45.8 1.4 C 47.1 1.4 47.6 1.9 47.6 3.1 C 47.64 3.15 47.6 13.2 47.6 13.2 C 47.6 13.2 49.2 13.17 49.2 13.2 C 49.8 13.2 50.5 13 50.9 12.4 C 50.91 12.45 54.8 7.4 54.8 7.4 L 57.3 7.4 C 57.3 7.4 52.92 12.93 52.9 12.9 C 52.17 13.86 51.8 14 51.8 14 L 51.8 14.1 C 51.8 14.1 52.23 14.28 52.7 15.2 C 52.7 15.2 55.4 20.1 55.4 20.1 C 55.7 20.6 56 20.7 56.8 20.7 C 56.82 20.73 57.6 20.7 57.6 20.7 L 57.6 22.5 C 57.6 22.5 56.22 22.5 56.2 22.5 C 54.7 22.5 54.3 22.3 53.6 21 C 53.6 21 50.6 15.6 50.6 15.6 C 50.3 15 49.6 14.9 49 14.9 C 49.02 14.94 47.6 14.9 47.6 14.9 L 47.6 22.5 L 45.6 22.5 C 45.6 22.5 45.6 3.84 45.6 3.8 Z M 66.9 7.1 C 71.3 7.1 74.8 10.4 74.8 14.9 C 74.8 19.4 71.3 22.9 66.9 22.9 C 62.5 22.9 58.9 19.4 58.9 14.9 C 58.9 10.4 62.5 7.1 66.9 7.1 Z M 66.9 21 C 70.1 21 72.7 18.4 72.7 14.9 C 72.7 11.5 70.1 8.9 66.9 8.9 C 63.7 8.9 61 11.5 61 14.9 C 61 18.4 63.7 21 66.9 21 Z " stroke="none" fill="#ee3078"/>  </g></svg>