<?xml version="1.0" standalone="no"?><!DOCTYPE svg PUBLIC "-//W3C//DTD SVG 1.1//EN" "http://www.w3.org/Graphics/SVG/1.1/DTD/svg11.dtd"><svg xmlns="http://www.w3.org/2000/svg" version="1.1" width="448.2px" height="93px" viewBox="0 -3 448.2 93" style="top:-3px">  <desc>Prim rny estrog n u ien po menopauze Syntetizuje sa vo viacer ch tkaniv ch vr tane vaje n kov a tukov ho tkaniva Per...</desc>  <defs/>  <g id="Polygon68963">    <path d="M 1.3 66.2 C 1.3 66.2 2.15 67.23 3.3 67.2 C 4 67.2 4.6 66.9 4.6 66.2 C 4.6 64.8 0.6 64.9 0.6 62.2 C 0.6 60.9 1.8 59.8 3.4 59.8 C 4.4 59.8 5.9 60.3 5.9 61.5 C 5.93 61.52 5.9 62.3 5.9 62.3 L 4.5 62.3 C 4.5 62.3 4.51 61.93 4.5 61.9 C 4.5 61.5 3.9 61.3 3.4 61.3 C 2.7 61.3 2.1 61.6 2.1 62.2 C 2.1 63.6 6.1 63.3 6.1 66.1 C 6.1 67.5 5.1 68.6 3.3 68.6 C 1.43 68.65 0.4 67.3 0.4 67.3 L 1.3 66.2 Z M 7.7 60 L 9 60 L 9 61.4 L 7.7 61.4 L 7.7 60 Z M 7.6 63.9 C 7.6 63.8 7.5 63.7 7.4 63.7 C 7.37 63.68 6.9 63.7 6.9 63.7 L 6.9 62.4 C 6.9 62.4 8.34 62.38 8.3 62.4 C 8.9 62.4 9.1 62.6 9.1 63.2 C 9.1 63.2 9.1 67 9.1 67 C 9.1 67.1 9.2 67.2 9.4 67.2 C 9.41 67.22 9.9 67.2 9.9 67.2 L 9.9 68.5 C 9.9 68.5 8.44 68.5 8.4 68.5 C 7.9 68.5 7.6 68.3 7.6 67.7 C 7.6 67.7 7.6 63.9 7.6 63.9 Z M 11.1 61.5 C 11.1 61.4 11 61.3 10.9 61.3 C 10.87 61.28 10.4 61.3 10.4 61.3 L 10.4 60 C 10.4 60 11.84 59.98 11.8 60 C 12.4 60 12.7 60.2 12.7 60.8 C 12.7 60.8 12.7 67 12.7 67 C 12.7 67.1 12.8 67.2 12.9 67.2 C 12.92 67.22 13.4 67.2 13.4 67.2 L 13.4 68.5 C 13.4 68.5 11.95 68.5 12 68.5 C 11.4 68.5 11.1 68.3 11.1 67.7 C 11.1 67.7 11.1 61.5 11.1 61.5 Z M 17.7 64.7 C 17.7 64.66 17.9 64.7 17.9 64.7 C 17.9 64.7 17.89 64.62 17.9 64.6 C 17.9 63.7 17.5 63.4 16.8 63.4 C 16.5 63.4 15.9 63.5 15.9 63.8 C 15.95 63.82 15.9 64.1 15.9 64.1 L 14.5 64.1 C 14.5 64.1 14.53 63.5 14.5 63.5 C 14.5 62.4 16.1 62.2 16.8 62.2 C 18.8 62.2 19.4 63.3 19.4 64.7 C 19.4 64.7 19.4 67 19.4 67 C 19.4 67.1 19.5 67.2 19.7 67.2 C 19.68 67.22 20.2 67.2 20.2 67.2 L 20.2 68.5 C 20.2 68.5 18.79 68.5 18.8 68.5 C 18.2 68.5 18 68.2 18 67.8 C 18 67.7 18 67.6 18 67.6 C 18.02 67.57 18 67.6 18 67.6 C 18 67.6 17.53 68.65 16.2 68.6 C 15.1 68.6 14.1 68 14.1 66.7 C 14.1 64.8 16.7 64.7 17.7 64.7 Z M 16.5 67.5 C 17.3 67.5 17.9 66.6 17.9 65.9 C 17.92 65.85 17.9 65.7 17.9 65.7 C 17.9 65.7 17.65 65.71 17.7 65.7 C 16.9 65.7 15.6 65.8 15.6 66.7 C 15.6 67.1 15.9 67.5 16.5 67.5 Z M 21.5 62.4 L 23 62.4 L 23 63.9 L 21.5 63.9 L 21.5 62.4 Z M 21.5 67 L 23 67 L 23 68.5 L 21.5 68.5 L 21.5 67 Z M 28 67.2 L 29.8 67.2 C 29.8 67.2 29.84 62.44 29.8 62.4 C 29.84 62.16 29.9 61.9 29.9 61.9 L 29.8 61.9 C 29.8 61.9 29.74 62.07 29.5 62.3 C 29.46 62.35 28.8 63 28.8 63 L 27.9 62 L 30 60 L 31.4 60 L 31.4 67.2 L 33.3 67.2 L 33.3 68.5 L 28 68.5 L 28 67.2 Z M 34 64.2 C 34 61.8 34.8 59.8 37.1 59.8 C 39.5 59.8 40.2 61.8 40.2 64.2 C 40.2 66.7 39.5 68.6 37.1 68.6 C 34.8 68.6 34 66.7 34 64.2 Z M 38.6 64.2 C 38.6 62.6 38.3 61.3 37.1 61.3 C 36 61.3 35.6 62.6 35.6 64.2 C 35.6 65.9 36 67.2 37.1 67.2 C 38.3 67.2 38.6 65.9 38.6 64.2 Z M 44.6 61.7 C 44.6 60.7 45.5 59.8 46.6 59.8 C 47.7 59.8 48.6 60.7 48.6 61.7 C 48.6 62.8 47.7 63.6 46.6 63.6 C 45.5 63.6 44.6 62.8 44.6 61.7 Z M 51.5 60 L 52.9 60 L 46.3 68.5 L 44.9 68.5 L 51.5 60 Z M 47.4 61.7 C 47.4 61.3 47 60.9 46.6 60.9 C 46.2 60.9 45.8 61.3 45.8 61.7 C 45.8 62.2 46.2 62.5 46.6 62.5 C 47 62.5 47.4 62.2 47.4 61.7 Z M 51.3 64.9 C 52.3 64.9 53.2 65.7 53.2 66.8 C 53.2 67.8 52.3 68.6 51.3 68.6 C 50.2 68.6 49.3 67.8 49.3 66.8 C 49.3 65.7 50.2 64.9 51.3 64.9 Z M 50.5 66.8 C 50.5 67.2 50.8 67.5 51.3 67.5 C 51.7 67.5 52.1 67.2 52.1 66.8 C 52.1 66.3 51.7 66 51.3 66 C 50.8 66 50.5 66.3 50.5 66.8 C 50.5 66.8 50.5 66.8 50.5 66.8 Z M 58.1 66.6 C 58.1 66.6 58.86 67.46 59.9 67.5 C 60.4 67.5 60.7 67.3 60.7 66.9 C 60.7 66 57.5 66 57.5 64 C 57.5 62.8 58.6 62.2 59.9 62.2 C 60.7 62.2 62 62.5 62 63.5 C 62.03 63.51 62 64.1 62 64.1 L 60.7 64.1 C 60.7 64.1 60.68 63.85 60.7 63.8 C 60.7 63.6 60.3 63.4 59.9 63.4 C 59.4 63.4 59 63.6 59 64 C 59 64.9 62.3 64.7 62.3 66.8 C 62.3 67.9 61.2 68.6 59.9 68.6 C 58.22 68.65 57.4 67.6 57.4 67.6 L 58.1 66.6 Z M 63.8 60 L 65.1 60 L 65.1 61.4 L 63.8 61.4 L 63.8 60 Z M 63.7 63.9 C 63.7 63.8 63.6 63.7 63.5 63.7 C 63.46 63.68 63 63.7 63 63.7 L 63 62.4 C 63 62.4 64.43 62.38 64.4 62.4 C 65 62.4 65.2 62.6 65.2 63.2 C 65.2 63.2 65.2 67 65.2 67 C 65.2 67.1 65.3 67.2 65.5 67.2 C 65.49 67.22 66 67.2 66 67.2 L 66 68.5 C 66 68.5 64.52 68.5 64.5 68.5 C 64 68.5 63.7 68.3 63.7 67.7 C 63.7 67.7 63.7 63.9 63.7 63.9 Z M 67.2 61.5 C 67.2 61.4 67.1 61.3 67 61.3 C 66.96 61.28 66.5 61.3 66.5 61.3 L 66.5 60 C 66.5 60 67.93 59.98 67.9 60 C 68.5 60 68.7 60.2 68.7 60.8 C 68.7 60.8 68.7 67 68.7 67 C 68.7 67.1 68.8 67.2 69 67.2 C 69.01 67.22 69.5 67.2 69.5 67.2 L 69.5 68.5 C 69.5 68.5 68.04 68.5 68 68.5 C 67.5 68.5 67.2 68.3 67.2 67.7 C 67.2 67.7 67.2 61.5 67.2 61.5 Z M 71.2 69.7 C 71.7 69.7 72 69.5 72.2 69 C 72.24 68.96 72.4 68.5 72.4 68.5 C 72.4 68.5 70.4 63.9 70.4 63.9 C 70.3 63.7 70.2 63.7 70.1 63.7 C 70.08 63.68 69.9 63.7 69.9 63.7 L 69.9 62.4 C 69.9 62.4 70.91 62.38 70.9 62.4 C 71.3 62.4 71.6 62.5 71.7 63 C 71.7 63 72.9 66 72.9 66 C 73.03 66.33 73.1 66.8 73.1 66.8 L 73.2 66.8 C 73.2 66.8 73.25 66.33 73.4 66 C 73.4 66 74.4 63 74.4 63 C 74.5 62.5 74.8 62.4 75.2 62.4 C 75.21 62.38 76.2 62.4 76.2 62.4 L 76.2 63.7 C 76.2 63.7 76.07 63.68 76.1 63.7 C 75.9 63.7 75.8 63.7 75.7 63.9 C 75.7 63.9 73.5 69.4 73.5 69.4 C 73.1 70.5 72.2 71 71.3 71 C 70.36 71.02 69.8 70.4 69.8 70.4 L 70.4 69.3 C 70.4 69.3 70.73 69.74 71.2 69.7 Z M 80.8 61.3 L 80 61.3 L 80 60 C 80 60 85.13 59.98 85.1 60 C 85.7 60 85.9 60.2 85.9 60.8 C 85.94 60.8 85.9 62.1 85.9 62.1 L 84.5 62.1 C 84.5 62.1 84.52 61.58 84.5 61.6 C 84.5 61.4 84.4 61.3 84.3 61.3 C 84.25 61.32 82.3 61.3 82.3 61.3 L 82.3 63.5 L 85.1 63.5 L 85.1 64.9 L 82.3 64.9 C 82.3 64.9 82.33 66.91 82.3 66.9 C 82.3 67.1 82.4 67.2 82.6 67.2 C 82.6 67.2 84.6 67.2 84.6 67.2 C 84.7 67.2 84.8 67.1 84.8 66.9 C 84.83 66.91 84.8 66.4 84.8 66.4 L 86.3 66.4 C 86.3 66.4 86.25 67.69 86.3 67.7 C 86.3 68.3 86 68.5 85.4 68.5 C 85.4 68.5 81.6 68.5 81.6 68.5 C 81 68.5 80.8 68.3 80.8 67.7 C 80.76 67.69 80.8 61.3 80.8 61.3 Z M 91.1 62.4 C 91.1 61.7 90.6 61.3 89.8 61.3 C 89.2 61.3 88.7 61.6 88.7 62 C 88.71 61.95 88.7 62.3 88.7 62.3 L 87.3 62.3 C 87.3 62.3 87.3 61.48 87.3 61.5 C 87.3 60.4 88.8 59.8 89.9 59.8 C 91.4 59.8 92.7 60.8 92.7 62.4 C 92.7 65.2 88.5 65.4 88.5 67 C 88.5 67.1 88.6 67.2 88.9 67.2 C 88.9 67.2 91.4 67.2 91.4 67.2 C 91.5 67.2 91.6 67.1 91.6 66.9 C 91.62 66.91 91.6 66.4 91.6 66.4 L 93 66.4 C 93 66.4 93.03 67.69 93 67.7 C 93 68.3 92.8 68.5 92.2 68.5 C 92.2 68.5 87.8 68.5 87.8 68.5 C 87 68.5 86.9 68.2 86.9 67.4 C 86.9 64.3 91.1 64.5 91.1 62.4 Z " stroke="none" fill="#5f0f50"/>  </g>  <g id="Polygon68962">    <path d="M 1.2 41.5 L 0.4 41.5 L 0.4 40.2 C 0.4 40.2 4.31 40.15 4.3 40.2 C 5.9 40.2 7 41.3 7 42.9 C 7 44.6 5.9 45.7 4.3 45.7 C 4.31 45.73 2.8 45.7 2.8 45.7 L 2.8 48.7 L 1.2 48.7 L 1.2 41.5 Z M 4 44.4 C 4.9 44.4 5.4 43.8 5.4 42.9 C 5.4 42 4.9 41.5 4 41.5 C 4.04 41.48 2.8 41.5 2.8 41.5 L 2.8 44.4 C 2.8 44.4 4.02 44.39 4 44.4 Z M 10.5 42.4 C 12.3 42.4 13.2 43.7 13.2 45.3 C 13.22 45.49 13.2 45.9 13.2 45.9 C 13.2 45.9 8.96 45.87 9 45.9 C 9.1 47 9.9 47.5 10.8 47.5 C 11.78 47.52 12.5 46.8 12.5 46.8 L 13.2 47.9 C 13.2 47.9 12.22 48.81 10.7 48.8 C 8.7 48.8 7.4 47.3 7.4 45.6 C 7.4 43.7 8.7 42.4 10.5 42.4 Z M 11.7 44.8 C 11.6 44.1 11.1 43.6 10.5 43.6 C 9.7 43.6 9.2 44 9 44.8 C 9 44.8 11.7 44.8 11.7 44.8 Z M 14.7 44.1 C 14.7 43.9 14.6 43.8 14.4 43.8 C 14.44 43.84 14 43.8 14 43.8 L 14 42.6 C 14 42.6 15.35 42.55 15.3 42.6 C 15.9 42.6 16.2 42.8 16.2 43.3 C 16.2 43.3 16.2 43.7 16.2 43.7 C 16.16 43.88 16.1 44 16.1 44 C 16.1 44 16.16 44.04 16.2 44 C 16.4 43.2 17.2 42.5 18.1 42.5 C 18.24 42.47 18.4 42.5 18.4 42.5 L 18.4 44 C 18.4 44 18.23 43.96 18 44 C 17.4 44 16.6 44.3 16.3 45.2 C 16.3 45.5 16.2 45.9 16.2 46.2 C 16.21 46.24 16.2 48.7 16.2 48.7 L 14.7 48.7 C 14.7 48.7 14.7 44.11 14.7 44.1 Z M 22.2 42.4 C 24 42.4 25.5 43.7 25.5 45.6 C 25.5 47.5 24 48.8 22.2 48.8 C 20.3 48.8 18.8 47.5 18.8 45.6 C 18.8 43.7 20.3 42.4 22.2 42.4 Z M 22.2 47.5 C 23.1 47.5 24 46.7 24 45.6 C 24 44.5 23.1 43.7 22.2 43.7 C 21.2 43.7 20.3 44.5 20.3 45.6 C 20.3 46.7 21.2 47.5 22.2 47.5 Z M 26.9 44.1 C 26.9 43.9 26.8 43.8 26.6 43.8 C 26.63 43.84 26.1 43.8 26.1 43.8 L 26.1 42.6 C 26.1 42.6 27.54 42.55 27.5 42.6 C 28.1 42.6 28.4 42.8 28.4 43.3 C 28.4 43.3 28.4 43.7 28.4 43.7 C 28.35 43.88 28.3 44 28.3 44 C 28.3 44 28.35 44.04 28.4 44 C 28.6 43.2 29.4 42.5 30.3 42.5 C 30.43 42.47 30.6 42.5 30.6 42.5 L 30.6 44 C 30.6 44 30.42 43.96 30.2 44 C 29.6 44 28.8 44.3 28.5 45.2 C 28.5 45.5 28.4 45.9 28.4 46.2 C 28.4 46.24 28.4 48.7 28.4 48.7 L 26.9 48.7 C 26.9 48.7 26.89 44.11 26.9 44.1 Z M 34.5 44.8 C 34.51 44.83 34.7 44.8 34.7 44.8 C 34.7 44.8 34.7 44.78 34.7 44.8 C 34.7 43.9 34.4 43.6 33.6 43.6 C 33.3 43.6 32.8 43.7 32.8 44 C 32.76 43.99 32.8 44.3 32.8 44.3 L 31.3 44.3 C 31.3 44.3 31.34 43.66 31.3 43.7 C 31.3 42.5 33 42.4 33.6 42.4 C 35.6 42.4 36.2 43.5 36.2 44.8 C 36.2 44.8 36.2 47.1 36.2 47.1 C 36.2 47.3 36.3 47.4 36.5 47.4 C 36.49 47.39 37 47.4 37 47.4 L 37 48.7 C 37 48.7 35.6 48.67 35.6 48.7 C 35 48.7 34.8 48.4 34.8 48 C 34.8 47.8 34.8 47.7 34.8 47.7 C 34.84 47.73 34.8 47.7 34.8 47.7 C 34.8 47.7 34.34 48.81 33 48.8 C 31.9 48.8 30.9 48.1 30.9 46.9 C 30.9 45 33.5 44.8 34.5 44.8 Z M 33.3 47.6 C 34.2 47.6 34.7 46.8 34.7 46 C 34.73 46.02 34.7 45.9 34.7 45.9 C 34.7 45.9 34.46 45.87 34.5 45.9 C 33.7 45.9 32.4 46 32.4 46.8 C 32.4 47.2 32.7 47.6 33.3 47.6 Z M 34.1 40.2 L 35.5 40.2 L 34.3 41.8 L 33.1 41.8 L 34.1 40.2 Z M 38.2 41.7 C 38.2 41.5 38.1 41.4 37.9 41.4 C 37.9 41.44 37.4 41.4 37.4 41.4 L 37.4 40.2 C 37.4 40.2 38.87 40.15 38.9 40.2 C 39.4 40.2 39.7 40.4 39.7 41 C 39.7 41 39.7 47.1 39.7 47.1 C 39.7 47.3 39.8 47.4 39.9 47.4 C 39.95 47.39 40.4 47.4 40.4 47.4 L 40.4 48.7 C 40.4 48.7 38.98 48.67 39 48.7 C 38.4 48.7 38.2 48.4 38.2 47.9 C 38.2 47.9 38.2 41.7 38.2 41.7 Z M 41.7 44.1 C 41.7 43.9 41.6 43.8 41.4 43.8 C 41.42 43.84 40.9 43.8 40.9 43.8 L 40.9 42.6 C 40.9 42.6 42.35 42.55 42.3 42.6 C 42.9 42.6 43.2 42.8 43.2 43.2 C 43.2 43.2 43.2 43.4 43.2 43.4 C 43.2 43.5 43.1 43.7 43.1 43.7 C 43.1 43.7 43.2 43.7 43.2 43.7 C 43.4 43.2 44.1 42.4 45.3 42.4 C 46.7 42.4 47.4 43.1 47.4 44.7 C 47.4 44.7 47.4 47.1 47.4 47.1 C 47.4 47.3 47.5 47.4 47.7 47.4 C 47.71 47.39 48.2 47.4 48.2 47.4 L 48.2 48.7 C 48.2 48.7 46.74 48.67 46.7 48.7 C 46.2 48.7 45.9 48.4 45.9 47.9 C 45.9 47.9 45.9 45 45.9 45 C 45.9 44.3 45.7 43.8 45 43.8 C 44.1 43.8 43.5 44.3 43.3 45 C 43.2 45.3 43.2 45.6 43.2 45.9 C 43.2 45.86 43.2 48.7 43.2 48.7 L 41.7 48.7 C 41.7 48.7 41.69 44.11 41.7 44.1 Z M 52.4 44.8 C 52.44 44.83 52.6 44.8 52.6 44.8 C 52.6 44.8 52.63 44.78 52.6 44.8 C 52.6 43.9 52.3 43.6 51.5 43.6 C 51.2 43.6 50.7 43.7 50.7 44 C 50.69 43.99 50.7 44.3 50.7 44.3 L 49.3 44.3 C 49.3 44.3 49.27 43.66 49.3 43.7 C 49.3 42.5 50.9 42.4 51.5 42.4 C 53.6 42.4 54.2 43.5 54.2 44.8 C 54.2 44.8 54.2 47.1 54.2 47.1 C 54.2 47.3 54.3 47.4 54.4 47.4 C 54.42 47.39 54.9 47.4 54.9 47.4 L 54.9 48.7 C 54.9 48.7 53.53 48.67 53.5 48.7 C 53 48.7 52.8 48.4 52.8 48 C 52.8 47.8 52.8 47.7 52.8 47.7 C 52.76 47.73 52.7 47.7 52.7 47.7 C 52.7 47.7 52.27 48.81 50.9 48.8 C 49.8 48.8 48.8 48.1 48.8 46.9 C 48.8 45 51.4 44.8 52.4 44.8 Z M 51.3 47.6 C 52.1 47.6 52.7 46.8 52.7 46 C 52.66 46.02 52.7 45.9 52.7 45.9 C 52.7 45.9 52.39 45.87 52.4 45.9 C 51.6 45.9 50.3 46 50.3 46.8 C 50.3 47.2 50.6 47.6 51.3 47.6 Z M 59.3 41.7 C 59.3 41.5 59.2 41.4 59 41.4 C 58.99 41.44 58.5 41.4 58.5 41.4 L 58.5 40.2 C 58.5 40.2 59.96 40.15 60 40.2 C 60.5 40.2 60.8 40.4 60.8 41 C 60.8 41 60.8 42.7 60.8 42.7 C 60.78 43.04 60.8 43.3 60.8 43.3 L 60.8 43.3 C 60.8 43.3 61.32 42.41 62.6 42.4 C 64.3 42.4 65.3 43.7 65.3 45.6 C 65.3 47.6 64.1 48.8 62.5 48.8 C 61.25 48.81 60.7 47.9 60.7 47.9 L 60.7 47.9 C 60.7 47.9 60.69 48.12 60.7 48.4 C 60.69 48.36 60.7 48.7 60.7 48.7 L 59.3 48.7 C 59.3 48.7 59.26 41.71 59.3 41.7 Z M 62.3 47.5 C 63.1 47.5 63.8 46.8 63.8 45.6 C 63.8 44.5 63.2 43.7 62.3 43.7 C 61.5 43.7 60.7 44.3 60.7 45.6 C 60.7 46.6 61.2 47.5 62.3 47.5 Z M 66.8 40.2 L 68.2 40.2 L 68.2 41.6 L 66.8 41.6 L 66.8 40.2 Z M 66.8 44.1 C 66.8 43.9 66.7 43.8 66.5 43.8 C 66.5 43.84 66 43.8 66 43.8 L 66 42.6 C 66 42.6 67.48 42.55 67.5 42.6 C 68 42.6 68.3 42.8 68.3 43.4 C 68.3 43.4 68.3 47.1 68.3 47.1 C 68.3 47.3 68.4 47.4 68.5 47.4 C 68.54 47.39 69 47.4 69 47.4 L 69 48.7 C 69 48.7 67.57 48.67 67.6 48.7 C 67 48.7 66.8 48.4 66.8 47.9 C 66.8 47.9 66.8 44.1 66.8 44.1 Z M 73 42.4 C 74.9 42.4 76.4 43.7 76.4 45.6 C 76.4 47.5 74.9 48.8 73 48.8 C 71.2 48.8 69.7 47.5 69.7 45.6 C 69.7 43.7 71.2 42.4 73 42.4 Z M 73 47.5 C 74 47.5 74.9 46.7 74.9 45.6 C 74.9 44.5 74 43.7 73 43.7 C 72.1 43.7 71.2 44.5 71.2 45.6 C 71.2 46.7 72.1 47.5 73 47.5 Z M 77.7 41.7 C 77.7 41.5 77.6 41.4 77.4 41.4 C 77.39 41.44 76.9 41.4 76.9 41.4 L 76.9 40.2 C 76.9 40.2 78.36 40.15 78.4 40.2 C 78.9 40.2 79.2 40.4 79.2 41 C 79.2 41 79.2 47.1 79.2 47.1 C 79.2 47.3 79.3 47.4 79.4 47.4 C 79.44 47.39 79.9 47.4 79.9 47.4 L 79.9 48.7 C 79.9 48.7 78.47 48.67 78.5 48.7 C 77.9 48.7 77.7 48.4 77.7 47.9 C 77.7 47.9 77.7 41.7 77.7 41.7 Z M 83.9 42.4 C 85.8 42.4 87.3 43.7 87.3 45.6 C 87.3 47.5 85.8 48.8 83.9 48.8 C 82.1 48.8 80.6 47.5 80.6 45.6 C 80.6 43.7 82.1 42.4 83.9 42.4 Z M 83.9 47.5 C 84.9 47.5 85.7 46.7 85.7 45.6 C 85.7 44.5 84.9 43.7 83.9 43.7 C 82.9 43.7 82.1 44.5 82.1 45.6 C 82.1 46.7 82.9 47.5 83.9 47.5 Z M 90.8 42.4 C 92.2 42.4 92.6 43.3 92.6 43.3 C 92.64 43.27 92.7 43.3 92.7 43.3 C 92.7 43.3 92.66 43.2 92.7 43.1 C 92.7 42.8 92.9 42.6 93.3 42.6 C 93.33 42.55 94.7 42.6 94.7 42.6 L 94.7 43.8 C 94.7 43.8 94.28 43.84 94.3 43.8 C 94.1 43.8 94 43.9 94 44.1 C 94 44.1 94 48.3 94 48.3 C 94 50.4 92.4 51.2 90.8 51.2 C 90 51.2 89.2 51 88.6 50.7 C 88.62 50.66 89.1 49.5 89.1 49.5 C 89.1 49.5 89.84 49.87 90.8 49.9 C 91.7 49.9 92.5 49.5 92.5 48.4 C 92.5 48.4 92.5 48.1 92.5 48.1 C 92.51 47.94 92.5 47.8 92.5 47.8 C 92.5 47.8 92.5 47.76 92.5 47.8 C 92.1 48.3 91.6 48.5 90.8 48.5 C 89 48.5 88 47.1 88 45.5 C 88 43.8 89 42.4 90.8 42.4 Z M 92.5 45.5 C 92.5 44.1 91.8 43.7 91 43.7 C 90.1 43.7 89.6 44.4 89.6 45.4 C 89.6 46.5 90.1 47.3 91.1 47.3 C 91.8 47.3 92.5 46.8 92.5 45.5 Z M 96.1 40.2 L 97.4 40.2 L 97.4 41.6 L 96.1 41.6 L 96.1 40.2 Z M 96 44.1 C 96 43.9 96 43.8 95.8 43.8 C 95.78 43.84 95.3 43.8 95.3 43.8 L 95.3 42.6 C 95.3 42.6 96.75 42.55 96.8 42.6 C 97.3 42.6 97.6 42.8 97.6 43.4 C 97.6 43.4 97.6 47.1 97.6 47.1 C 97.6 47.3 97.7 47.4 97.8 47.4 C 97.82 47.39 98.3 47.4 98.3 47.4 L 98.3 48.7 C 98.3 48.7 96.85 48.67 96.9 48.7 C 96.3 48.7 96 48.4 96 47.9 C 96 47.9 96 44.1 96 44.1 Z M 102.3 42.4 C 103.1 42.4 104.5 42.7 104.5 43.8 C 104.54 43.78 104.5 44.5 104.5 44.5 L 103.2 44.5 C 103.2 44.5 103.2 44.17 103.2 44.2 C 103.2 43.8 102.7 43.7 102.3 43.7 C 101.3 43.7 100.5 44.5 100.5 45.6 C 100.5 46.8 101.4 47.5 102.4 47.5 C 103.46 47.48 104.2 46.7 104.2 46.7 L 104.9 47.7 C 104.9 47.7 103.95 48.81 102.3 48.8 C 100.3 48.8 99 47.4 99 45.6 C 99 43.9 100.2 42.4 102.3 42.4 Z M 106 41.7 C 106 41.5 105.9 41.4 105.7 41.4 C 105.7 41.44 105.2 41.4 105.2 41.4 L 105.2 40.2 C 105.2 40.2 106.67 40.15 106.7 40.2 C 107.2 40.2 107.5 40.3 107.5 40.8 C 107.48 40.85 107.5 44.7 107.5 44.7 C 107.5 44.7 107.94 44.71 107.9 44.7 C 108.1 44.7 108.4 44.7 108.5 44.5 C 108.51 44.48 109.8 42.6 109.8 42.6 L 111.5 42.6 C 111.5 42.6 109.91 44.85 109.9 44.9 C 109.64 45.24 109.4 45.3 109.4 45.3 L 109.4 45.4 C 109.4 45.4 109.67 45.44 109.9 45.8 C 109.9 45.8 110.6 47.2 110.6 47.2 C 110.7 47.3 110.8 47.4 111.1 47.4 C 111.08 47.39 111.5 47.4 111.5 47.4 L 111.5 48.7 C 111.5 48.7 110.36 48.67 110.4 48.7 C 109.8 48.7 109.6 48.6 109.4 48.1 C 109.4 48.1 108.4 46.2 108.4 46.2 C 108.3 46 108 46 107.8 46 C 107.82 45.99 107.5 46 107.5 46 L 107.5 48.7 L 106 48.7 C 106 48.7 105.96 41.71 106 41.7 Z M 115.6 44.8 C 115.64 44.83 115.8 44.8 115.8 44.8 C 115.8 44.8 115.84 44.78 115.8 44.8 C 115.8 43.9 115.5 43.6 114.7 43.6 C 114.4 43.6 113.9 43.7 113.9 44 C 113.89 43.99 113.9 44.3 113.9 44.3 L 112.5 44.3 C 112.5 44.3 112.48 43.66 112.5 43.7 C 112.5 42.5 114.1 42.4 114.7 42.4 C 116.8 42.4 117.4 43.5 117.4 44.8 C 117.4 44.8 117.4 47.1 117.4 47.1 C 117.4 47.3 117.5 47.4 117.6 47.4 C 117.62 47.39 118.1 47.4 118.1 47.4 L 118.1 48.7 C 118.1 48.7 116.73 48.67 116.7 48.7 C 116.2 48.7 116 48.4 116 48 C 116 47.8 116 47.7 116 47.7 C 115.97 47.73 115.9 47.7 115.9 47.7 C 115.9 47.7 115.48 48.81 114.1 48.8 C 113 48.8 112 48.1 112 46.9 C 112 45 114.6 44.8 115.6 44.8 Z M 114.5 47.6 C 115.3 47.6 115.9 46.8 115.9 46 C 115.86 46.02 115.9 45.9 115.9 45.9 C 115.9 45.9 115.6 45.87 115.6 45.9 C 114.8 45.9 113.5 46 113.5 46.8 C 113.5 47.2 113.8 47.6 114.5 47.6 Z M 115.2 40.2 L 116.6 40.2 L 115.4 41.8 L 114.3 41.8 L 115.2 40.2 Z M 124.7 42.4 C 126.01 42.41 126.4 43.1 126.4 43.1 L 126.5 43.1 C 126.5 43.1 126.46 42.99 126.5 42.8 C 126.5 42.8 126.5 41.7 126.5 41.7 C 126.5 41.5 126.4 41.4 126.2 41.4 C 126.19 41.44 125.7 41.4 125.7 41.4 L 125.7 40.2 C 125.7 40.2 127.16 40.15 127.2 40.2 C 127.7 40.2 128 40.4 128 41 C 128 41 128 47.1 128 47.1 C 128 47.3 128.1 47.4 128.2 47.4 C 128.24 47.39 128.7 47.4 128.7 47.4 L 128.7 48.7 C 128.7 48.7 127.31 48.67 127.3 48.7 C 126.8 48.7 126.6 48.4 126.6 48 C 126.6 47.9 126.6 47.8 126.6 47.8 C 126.55 47.82 126.5 47.8 126.5 47.8 C 126.5 47.8 126.02 48.81 124.6 48.8 C 123 48.8 121.9 47.5 121.9 45.6 C 121.9 43.7 123.1 42.4 124.7 42.4 Z M 126.5 45.6 C 126.5 44.6 126 43.7 125 43.7 C 124.1 43.7 123.4 44.4 123.4 45.6 C 123.4 46.8 124.1 47.5 125 47.5 C 125.7 47.5 126.5 47 126.5 45.6 Z M 132.7 42.4 C 134.6 42.4 136.1 43.7 136.1 45.6 C 136.1 47.5 134.6 48.8 132.7 48.8 C 130.8 48.8 129.4 47.5 129.4 45.6 C 129.4 43.7 130.8 42.4 132.7 42.4 Z M 132.7 47.5 C 133.7 47.5 134.5 46.7 134.5 45.6 C 134.5 44.5 133.7 43.7 132.7 43.7 C 131.7 43.7 130.9 44.5 130.9 45.6 C 130.9 46.7 131.7 47.5 132.7 47.5 Z M 137.5 46.7 C 137.5 46.7 138.25 47.63 139.3 47.6 C 139.8 47.6 140.1 47.4 140.1 47 C 140.1 46.2 136.9 46.2 136.9 44.2 C 136.9 43 138 42.4 139.3 42.4 C 140.1 42.4 141.4 42.7 141.4 43.7 C 141.42 43.68 141.4 44.3 141.4 44.3 L 140.1 44.3 C 140.1 44.3 140.08 44.01 140.1 44 C 140.1 43.7 139.6 43.6 139.3 43.6 C 138.8 43.6 138.4 43.8 138.4 44.1 C 138.4 45.1 141.6 44.9 141.6 46.9 C 141.6 48.1 140.6 48.8 139.3 48.8 C 137.61 48.81 136.8 47.7 136.8 47.7 L 137.5 46.7 Z M 143.1 43.8 L 142.3 43.8 L 142.3 42.6 L 143.1 42.6 L 143.1 40.9 L 144.6 40.9 L 144.6 42.6 L 146 42.6 L 146 43.8 L 144.6 43.8 C 144.6 43.8 144.61 46.23 144.6 46.2 C 144.6 47.2 145.4 47.4 145.8 47.4 C 145.99 47.39 146.1 47.4 146.1 47.4 L 146.1 48.7 C 146.1 48.7 145.91 48.73 145.6 48.7 C 144.8 48.7 143.1 48.5 143.1 46.4 C 143.09 46.42 143.1 43.8 143.1 43.8 Z M 147.5 44.1 C 147.5 43.9 147.4 43.8 147.2 43.8 C 147.21 43.84 146.7 43.8 146.7 43.8 L 146.7 42.6 C 146.7 42.6 148.19 42.55 148.2 42.6 C 148.7 42.6 149 42.8 149 43.4 C 149 43.4 149 46.2 149 46.2 C 149 46.9 149.2 47.4 149.9 47.4 C 151 47.4 151.7 46.4 151.7 45.4 C 151.65 45.36 151.7 42.6 151.7 42.6 L 153.2 42.6 C 153.2 42.6 153.18 47.12 153.2 47.1 C 153.2 47.3 153.3 47.4 153.4 47.4 C 153.44 47.39 153.9 47.4 153.9 47.4 L 153.9 48.7 C 153.9 48.7 152.52 48.67 152.5 48.7 C 152 48.7 151.7 48.4 151.7 48 C 151.7 48 151.7 47.8 151.7 47.8 C 151.7 47.7 151.7 47.5 151.7 47.5 C 151.7 47.5 151.7 47.5 151.7 47.5 C 151.4 48.2 150.6 48.8 149.6 48.8 C 148.3 48.8 147.5 48.2 147.5 46.5 C 147.5 46.5 147.5 44.1 147.5 44.1 Z M 155.2 44.1 C 155.2 43.9 155.1 43.8 154.9 43.8 C 154.89 43.84 154.4 43.8 154.4 43.8 L 154.4 42.6 C 154.4 42.6 155.77 42.55 155.8 42.6 C 156.3 42.6 156.5 42.8 156.5 43.1 C 156.5 43.3 156.5 43.4 156.5 43.4 C 156.54 43.38 156.6 43.4 156.6 43.4 C 156.6 43.4 157.08 42.41 158.5 42.4 C 160.2 42.4 161.2 43.7 161.2 45.6 C 161.2 47.6 160 48.8 158.4 48.8 C 157.21 48.81 156.7 48 156.7 48 L 156.6 48 C 156.6 48 156.67 48.23 156.7 48.5 C 156.67 48.54 156.7 51.1 156.7 51.1 L 155.2 51.1 C 155.2 51.1 155.16 44.11 155.2 44.1 Z M 158.1 47.5 C 159 47.5 159.7 46.8 159.7 45.6 C 159.7 44.5 159.1 43.7 158.2 43.7 C 157.4 43.7 156.6 44.3 156.6 45.6 C 156.6 46.6 157.1 47.5 158.1 47.5 Z M 162.6 44.1 C 162.6 43.9 162.5 43.8 162.3 43.8 C 162.35 43.84 161.9 43.8 161.9 43.8 L 161.9 42.6 C 161.9 42.6 163.27 42.55 163.3 42.6 C 163.8 42.6 164.1 42.8 164.1 43.2 C 164.1 43.2 164.1 43.4 164.1 43.4 C 164.1 43.5 164 43.7 164 43.7 C 164 43.7 164.1 43.7 164.1 43.7 C 164.3 43.2 165 42.4 166.2 42.4 C 167.6 42.4 168.4 43.1 168.4 44.7 C 168.4 44.7 168.4 47.1 168.4 47.1 C 168.4 47.3 168.5 47.4 168.6 47.4 C 168.63 47.39 169.1 47.4 169.1 47.4 L 169.1 48.7 C 169.1 48.7 167.66 48.67 167.7 48.7 C 167.1 48.7 166.8 48.4 166.8 47.9 C 166.8 47.9 166.8 45 166.8 45 C 166.8 44.3 166.7 43.8 165.9 43.8 C 165.1 43.8 164.5 44.3 164.2 45 C 164.2 45.3 164.1 45.6 164.1 45.9 C 164.12 45.86 164.1 48.7 164.1 48.7 L 162.6 48.7 C 162.6 48.7 162.61 44.11 162.6 44.1 Z M 173.1 42.4 C 174.9 42.4 176.4 43.7 176.4 45.6 C 176.4 47.5 174.9 48.8 173.1 48.8 C 171.2 48.8 169.7 47.5 169.7 45.6 C 169.7 43.7 171.2 42.4 173.1 42.4 Z M 173.1 47.5 C 174.1 47.5 174.9 46.7 174.9 45.6 C 174.9 44.5 174.1 43.7 173.1 43.7 C 172.1 43.7 171.2 44.5 171.2 45.6 C 171.2 46.7 172.1 47.5 173.1 47.5 Z M 177.8 46.7 C 177.8 46.7 178.6 47.63 179.6 47.6 C 180.1 47.6 180.5 47.4 180.5 47 C 180.5 46.2 177.3 46.2 177.3 44.2 C 177.3 43 178.4 42.4 179.6 42.4 C 180.5 42.4 181.8 42.7 181.8 43.7 C 181.77 43.68 181.8 44.3 181.8 44.3 L 180.4 44.3 C 180.4 44.3 180.43 44.01 180.4 44 C 180.4 43.7 180 43.6 179.7 43.6 C 179.1 43.6 178.7 43.8 178.7 44.1 C 178.7 45.1 182 44.9 182 46.9 C 182 48.1 181 48.8 179.6 48.8 C 177.97 48.81 177.1 47.7 177.1 47.7 L 177.8 46.7 Z M 183.5 43.8 L 182.7 43.8 L 182.7 42.6 L 183.5 42.6 L 183.5 40.9 L 185 40.9 L 185 42.6 L 186.4 42.6 L 186.4 43.8 L 185 43.8 C 185 43.8 185 46.23 185 46.2 C 185 47.2 185.8 47.4 186.2 47.4 C 186.38 47.39 186.5 47.4 186.5 47.4 L 186.5 48.7 C 186.5 48.7 186.3 48.73 186 48.7 C 185.2 48.7 183.5 48.5 183.5 46.4 C 183.48 46.42 183.5 43.8 183.5 43.8 Z M 186.8 40.2 C 186.9 40.4 186.9 40.6 186.9 40.8 C 186.9 41.1 186.8 41.5 186.6 41.9 C 186.6 41.9 185.6 41.9 185.6 41.9 C 185.7 41.5 185.8 41.2 185.8 40.9 C 185.8 40.7 185.8 40.4 185.7 40.2 C 185.7 40.2 186.8 40.2 186.8 40.2 Z M 191.3 44.7 L 197.1 42.2 L 197.1 43.5 L 192.9 45.2 L 192.9 45.2 L 197.1 47 L 197.1 48.3 L 191.3 45.7 L 191.3 44.7 Z M 199.3 46.4 C 199.3 46.4 200.07 47.35 201.3 47.4 C 202.3 47.4 202.9 46.7 202.9 45.9 C 202.9 45 202 44.5 201 44.5 C 200.11 44.48 199.4 44.9 199.4 44.9 L 198.9 44.6 C 198.9 44.6 199.2 40.97 199.2 41 C 199.2 40.4 199.4 40.2 200 40.2 C 200 40.2 203.1 40.2 203.1 40.2 C 203.7 40.2 204 40.4 204 41 C 203.96 40.97 204 42.3 204 42.3 L 202.5 42.3 C 202.5 42.3 202.53 41.74 202.5 41.7 C 202.5 41.6 202.4 41.5 202.3 41.5 C 202.3 41.5 200.9 41.5 200.9 41.5 C 200.7 41.5 200.6 41.6 200.6 41.7 C 200.6 41.7 200.5 42.9 200.5 42.9 C 200.47 43.15 200.4 43.3 200.4 43.3 L 200.5 43.3 C 200.5 43.3 200.85 43.16 201.4 43.2 C 203.3 43.2 204.5 44.4 204.5 46 C 204.5 47.4 203.3 48.8 201.3 48.8 C 199.52 48.82 198.5 47.6 198.5 47.6 L 199.3 46.4 Z M 209 41.9 C 209 40.9 209.8 40 210.9 40 C 212 40 212.9 40.9 212.9 41.9 C 212.9 43 212 43.8 210.9 43.8 C 209.8 43.8 209 43 209 41.9 Z M 215.8 40.1 L 217.2 40.1 L 210.7 48.7 L 209.3 48.7 L 215.8 40.1 Z M 211.7 41.9 C 211.7 41.5 211.4 41.1 210.9 41.1 C 210.5 41.1 210.1 41.5 210.1 41.9 C 210.1 42.3 210.5 42.7 210.9 42.7 C 211.4 42.7 211.7 42.3 211.7 41.9 Z M 215.6 45 C 216.7 45 217.5 45.9 217.5 46.9 C 217.5 48 216.7 48.8 215.6 48.8 C 214.5 48.8 213.6 48 213.6 46.9 C 213.6 45.9 214.5 45 215.6 45 Z M 214.8 46.9 C 214.8 47.4 215.1 47.7 215.6 47.7 C 216 47.7 216.4 47.4 216.4 46.9 C 216.4 46.5 216 46.1 215.6 46.1 C 215.1 46.1 214.8 46.5 214.8 46.9 C 214.8 46.9 214.8 46.9 214.8 46.9 Z " stroke="none" fill="#5f0f50"/>  </g>  <g id="Polygon68961">    <path d="M 1.3 26.6 C 1.3 26.6 2.15 27.56 3.3 27.6 C 4 27.6 4.6 27.2 4.6 26.6 C 4.6 25.1 0.6 25.2 0.6 22.6 C 0.6 21.2 1.8 20.2 3.4 20.2 C 4.4 20.2 5.9 20.6 5.9 21.9 C 5.93 21.85 5.9 22.6 5.9 22.6 L 4.5 22.6 C 4.5 22.6 4.51 22.26 4.5 22.3 C 4.5 21.9 3.9 21.6 3.4 21.6 C 2.7 21.6 2.1 22 2.1 22.5 C 2.1 24 6.1 23.7 6.1 26.5 C 6.1 27.8 5.1 29 3.3 29 C 1.43 28.98 0.4 27.7 0.4 27.7 L 1.3 26.6 Z M 8.1 30.1 C 8.5 30.1 8.9 29.8 9.1 29.3 C 9.07 29.29 9.3 28.8 9.3 28.8 C 9.3 28.8 7.24 24.23 7.2 24.2 C 7.2 24 7.1 24 6.9 24 C 6.91 24.01 6.7 24 6.7 24 L 6.7 22.7 C 6.7 22.7 7.74 22.72 7.7 22.7 C 8.2 22.7 8.4 22.9 8.5 23.3 C 8.5 23.3 9.7 26.4 9.7 26.4 C 9.86 26.66 10 27.2 10 27.2 L 10 27.2 C 10 27.2 10.08 26.66 10.2 26.4 C 10.2 26.4 11.2 23.3 11.2 23.3 C 11.4 22.9 11.6 22.7 12 22.7 C 12.05 22.72 13.1 22.7 13.1 22.7 L 13.1 24 C 13.1 24 12.9 24.01 12.9 24 C 12.7 24 12.6 24 12.6 24.2 C 12.6 24.2 10.4 29.8 10.4 29.8 C 9.9 30.9 9.1 31.4 8.1 31.4 C 7.19 31.35 6.6 30.7 6.6 30.7 L 7.2 29.7 C 7.2 29.7 7.56 30.07 8.1 30.1 Z M 14.2 24.3 C 14.2 24.1 14.1 24 14 24 C 13.96 24.01 13.5 24 13.5 24 L 13.5 22.7 C 13.5 22.7 14.88 22.72 14.9 22.7 C 15.4 22.7 15.7 23 15.7 23.4 C 15.7 23.4 15.7 23.6 15.7 23.6 C 15.7 23.7 15.7 23.8 15.7 23.8 C 15.7 23.8 15.7 23.8 15.7 23.8 C 15.9 23.3 16.6 22.6 17.8 22.6 C 19.2 22.6 20 23.3 20 24.9 C 20 24.9 20 27.3 20 27.3 C 20 27.5 20.1 27.6 20.2 27.6 C 20.24 27.55 20.7 27.6 20.7 27.6 L 20.7 28.8 C 20.7 28.8 19.27 28.83 19.3 28.8 C 18.7 28.8 18.5 28.6 18.5 28 C 18.5 28 18.5 25.2 18.5 25.2 C 18.5 24.5 18.3 24 17.5 24 C 16.7 24 16.1 24.5 15.9 25.2 C 15.8 25.5 15.7 25.7 15.7 26 C 15.73 26.03 15.7 28.8 15.7 28.8 L 14.2 28.8 C 14.2 28.8 14.22 24.27 14.2 24.3 Z M 22 23.9 L 21.2 23.9 L 21.2 22.7 L 22 22.7 L 22 21 L 23.5 21 L 23.5 22.7 L 24.9 22.7 L 24.9 23.9 L 23.5 23.9 C 23.5 23.9 23.48 26.4 23.5 26.4 C 23.5 27.4 24.3 27.6 24.7 27.6 C 24.86 27.55 25 27.5 25 27.5 L 25 28.9 C 25 28.9 24.78 28.89 24.5 28.9 C 23.7 28.9 22 28.6 22 26.6 C 21.96 26.59 22 23.9 22 23.9 Z M 28.8 22.6 C 30.5 22.6 31.5 23.9 31.5 25.5 C 31.49 25.65 31.5 26 31.5 26 C 31.5 26 27.23 26.04 27.2 26 C 27.3 27.1 28.1 27.7 29.1 27.7 C 30.05 27.68 30.8 27 30.8 27 L 31.4 28.1 C 31.4 28.1 30.48 28.98 29 29 C 26.9 29 25.7 27.5 25.7 25.8 C 25.7 23.9 26.9 22.6 28.8 22.6 Z M 29.9 25 C 29.9 24.3 29.4 23.7 28.8 23.7 C 28 23.7 27.4 24.2 27.3 25 C 27.3 25 29.9 25 29.9 25 Z M 33 23.9 L 32.2 23.9 L 32.2 22.7 L 33 22.7 L 33 21 L 34.5 21 L 34.5 22.7 L 35.9 22.7 L 35.9 23.9 L 34.5 23.9 C 34.5 23.9 34.51 26.4 34.5 26.4 C 34.5 27.4 35.3 27.6 35.7 27.6 C 35.89 27.55 36 27.5 36 27.5 L 36 28.9 C 36 28.9 35.81 28.89 35.5 28.9 C 34.7 28.9 33 28.6 33 26.6 C 32.99 26.59 33 23.9 33 23.9 Z M 37.5 20.3 L 38.8 20.3 L 38.8 21.7 L 37.5 21.7 L 37.5 20.3 Z M 37.5 24.3 C 37.5 24.1 37.4 24 37.2 24 C 37.19 24.01 36.7 24 36.7 24 L 36.7 22.7 C 36.7 22.7 38.16 22.72 38.2 22.7 C 38.7 22.7 39 23 39 23.5 C 39 23.5 39 27.3 39 27.3 C 39 27.5 39.1 27.6 39.2 27.6 C 39.23 27.55 39.7 27.6 39.7 27.6 L 39.7 28.8 C 39.7 28.8 38.26 28.83 38.3 28.8 C 37.7 28.8 37.5 28.6 37.5 28 C 37.5 28 37.5 24.3 37.5 24.3 Z M 40.3 28 C 40.3 28 43.14 24.57 43.1 24.6 C 43.42 24.23 43.7 24 43.7 24 L 43.7 24 C 43.7 24 43.48 24.01 43.1 24 C 43.1 24 42 24 42 24 C 41.8 24 41.7 24.1 41.7 24.3 C 41.72 24.27 41.7 24.6 41.7 24.6 L 40.3 24.6 C 40.3 24.6 40.34 23.53 40.3 23.5 C 40.3 23 40.6 22.7 41.2 22.7 C 41.16 22.72 45.6 22.7 45.6 22.7 L 45.6 23.5 C 45.6 23.5 42.83 26.99 42.8 27 C 42.55 27.32 42.3 27.6 42.3 27.6 L 42.3 27.6 C 42.3 27.6 42.49 27.54 42.9 27.5 C 42.9 27.5 44.2 27.5 44.2 27.5 C 44.4 27.5 44.5 27.5 44.5 27.3 C 44.5 27.28 44.5 26.9 44.5 26.9 L 45.9 26.9 C 45.9 26.9 45.87 28.02 45.9 28 C 45.9 28.6 45.6 28.8 45.1 28.8 C 45.07 28.83 40.3 28.8 40.3 28.8 L 40.3 28 Z M 47.1 24.3 C 47.1 24.1 47 24 46.8 24 C 46.84 24.01 46.4 24 46.4 24 L 46.4 22.7 C 46.4 22.7 47.81 22.72 47.8 22.7 C 48.4 22.7 48.6 23 48.6 23.5 C 48.6 23.5 48.6 26.3 48.6 26.3 C 48.6 27.1 48.8 27.6 49.6 27.6 C 50.7 27.6 51.3 26.6 51.3 25.5 C 51.28 25.52 51.3 22.7 51.3 22.7 L 52.8 22.7 C 52.8 22.7 52.8 27.29 52.8 27.3 C 52.8 27.5 52.9 27.6 53.1 27.6 C 53.06 27.55 53.5 27.6 53.5 27.6 L 53.5 28.8 C 53.5 28.8 52.14 28.83 52.1 28.8 C 51.6 28.8 51.3 28.6 51.3 28.2 C 51.3 28.2 51.3 28 51.3 28 C 51.3 27.8 51.3 27.7 51.3 27.7 C 51.3 27.7 51.3 27.7 51.3 27.7 C 51 28.3 50.3 29 49.2 29 C 47.9 29 47.1 28.3 47.1 26.7 C 47.1 26.7 47.1 24.3 47.1 24.3 Z M 55.1 20.3 L 56.4 20.3 L 56.4 21.7 L 55.1 21.7 L 55.1 20.3 Z M 53.8 30 C 54.3 30 55 29.9 55 28.9 C 55 28.9 55 24.3 55 24.3 C 55 24.1 54.9 24 54.8 24 C 54.78 24.01 54.3 24 54.3 24 L 54.3 22.7 C 54.3 22.7 55.75 22.72 55.8 22.7 C 56.3 22.7 56.6 23 56.6 23.5 C 56.6 23.5 56.6 29 56.6 29 C 56.6 31.1 54.9 31.3 54 31.3 C 53.7 31.3 53.6 31.3 53.6 31.3 C 53.56 31.28 53.6 30 53.6 30 C 53.6 30 53.66 30.02 53.8 30 Z M 60.9 22.6 C 62.7 22.6 63.6 23.9 63.6 25.5 C 63.65 25.65 63.6 26 63.6 26 C 63.6 26 59.39 26.04 59.4 26 C 59.5 27.1 60.3 27.7 61.2 27.7 C 62.21 27.68 62.9 27 62.9 27 L 63.6 28.1 C 63.6 28.1 62.64 28.98 61.1 29 C 59.1 29 57.8 27.5 57.8 25.8 C 57.8 23.9 59.1 22.6 60.9 22.6 Z M 62.1 25 C 62.1 24.3 61.6 23.7 60.9 23.7 C 60.2 23.7 59.6 24.2 59.4 25 C 59.4 25 62.1 25 62.1 25 Z M 68.3 26.9 C 68.3 26.9 69.11 27.79 70.2 27.8 C 70.6 27.8 71 27.6 71 27.2 C 71 26.3 67.8 26.3 67.8 24.4 C 67.8 23.1 68.9 22.6 70.1 22.6 C 71 22.6 72.3 22.8 72.3 23.8 C 72.27 23.84 72.3 24.5 72.3 24.5 L 70.9 24.5 C 70.9 24.5 70.93 24.18 70.9 24.2 C 70.9 23.9 70.5 23.7 70.2 23.7 C 69.6 23.7 69.3 23.9 69.3 24.3 C 69.3 25.3 72.5 25.1 72.5 27.1 C 72.5 28.3 71.5 29 70.2 29 C 68.47 28.98 67.6 27.9 67.6 27.9 L 68.3 26.9 Z M 77 25 C 76.96 25 77.1 25 77.1 25 C 77.1 25 77.15 24.95 77.1 24.9 C 77.1 24.1 76.8 23.7 76 23.7 C 75.7 23.7 75.2 23.8 75.2 24.2 C 75.2 24.15 75.2 24.5 75.2 24.5 L 73.8 24.5 C 73.8 24.5 73.79 23.83 73.8 23.8 C 73.8 22.7 75.4 22.6 76 22.6 C 78.1 22.6 78.7 23.6 78.7 25 C 78.7 25 78.7 27.3 78.7 27.3 C 78.7 27.5 78.8 27.6 78.9 27.6 C 78.93 27.55 79.4 27.6 79.4 27.6 L 79.4 28.8 C 79.4 28.8 78.05 28.83 78 28.8 C 77.5 28.8 77.3 28.5 77.3 28.2 C 77.3 28 77.3 27.9 77.3 27.9 C 77.28 27.9 77.3 27.9 77.3 27.9 C 77.3 27.9 76.79 28.98 75.4 29 C 74.3 29 73.3 28.3 73.3 27.1 C 73.3 25.2 76 25 77 25 Z M 75.8 27.8 C 76.6 27.8 77.2 26.9 77.2 26.2 C 77.17 26.18 77.2 26 77.2 26 C 77.2 26 76.91 26.04 76.9 26 C 76.1 26 74.9 26.1 74.9 27 C 74.9 27.4 75.2 27.8 75.8 27.8 Z M 83.4 24.2 C 83.4 24.1 83.3 24 83.1 24 C 83.1 24.01 83 24 83 24 L 83 22.7 C 83 22.7 83.84 22.72 83.8 22.7 C 84.3 22.7 84.6 22.9 84.7 23.3 C 84.7 23.3 85.9 26.5 85.9 26.5 C 86.03 26.87 86.1 27.4 86.1 27.4 L 86.1 27.4 C 86.1 27.4 86.24 26.87 86.4 26.5 C 86.4 26.5 87.5 23.3 87.5 23.3 C 87.7 22.9 87.9 22.7 88.4 22.7 C 88.41 22.72 89.2 22.7 89.2 22.7 L 89.2 24 C 89.2 24 89.09 24.01 89.1 24 C 88.9 24 88.8 24.1 88.8 24.2 C 88.75 24.23 87 28.8 87 28.8 L 85.2 28.8 C 85.2 28.8 83.44 24.23 83.4 24.2 Z M 93 22.6 C 94.8 22.6 96.3 23.9 96.3 25.8 C 96.3 27.7 94.8 29 93 29 C 91.1 29 89.6 27.7 89.6 25.8 C 89.6 23.9 91.1 22.6 93 22.6 Z M 93 27.7 C 94 27.7 94.8 26.9 94.8 25.8 C 94.8 24.6 94 23.9 93 23.9 C 92 23.9 91.2 24.6 91.2 25.8 C 91.2 26.9 92 27.7 93 27.7 Z M 100.5 24.2 C 100.5 24.1 100.3 24 100.2 24 C 100.18 24.01 100 24 100 24 L 100 22.7 C 100 22.7 100.92 22.72 100.9 22.7 C 101.4 22.7 101.7 22.9 101.8 23.3 C 101.8 23.3 103 26.5 103 26.5 C 103.1 26.87 103.2 27.4 103.2 27.4 L 103.2 27.4 C 103.2 27.4 103.32 26.87 103.4 26.5 C 103.4 26.5 104.6 23.3 104.6 23.3 C 104.7 22.9 105 22.7 105.5 22.7 C 105.49 22.72 106.3 22.7 106.3 22.7 L 106.3 24 C 106.3 24 106.16 24.01 106.2 24 C 106 24 105.9 24.1 105.8 24.2 C 105.83 24.23 104.1 28.8 104.1 28.8 L 102.3 28.8 C 102.3 28.8 100.51 24.23 100.5 24.2 Z M 107.6 20.3 L 108.9 20.3 L 108.9 21.7 L 107.6 21.7 L 107.6 20.3 Z M 107.5 24.3 C 107.5 24.1 107.4 24 107.2 24 C 107.22 24.01 106.7 24 106.7 24 L 106.7 22.7 C 106.7 22.7 108.19 22.72 108.2 22.7 C 108.8 22.7 109 23 109 23.5 C 109 23.5 109 27.3 109 27.3 C 109 27.5 109.1 27.6 109.3 27.6 C 109.26 27.55 109.7 27.6 109.7 27.6 L 109.7 28.8 C 109.7 28.8 108.29 28.83 108.3 28.8 C 107.7 28.8 107.5 28.6 107.5 28 C 107.5 28 107.5 24.3 107.5 24.3 Z M 114.1 25 C 114.06 25 114.3 25 114.3 25 C 114.3 25 114.25 24.95 114.3 24.9 C 114.3 24.1 113.9 23.7 113.1 23.7 C 112.8 23.7 112.3 23.8 112.3 24.2 C 112.31 24.15 112.3 24.5 112.3 24.5 L 110.9 24.5 C 110.9 24.5 110.89 23.83 110.9 23.8 C 110.9 22.7 112.5 22.6 113.1 22.6 C 115.2 22.6 115.8 23.6 115.8 25 C 115.8 25 115.8 27.3 115.8 27.3 C 115.8 27.5 115.9 27.6 116 27.6 C 116.04 27.55 116.5 27.6 116.5 27.6 L 116.5 28.8 C 116.5 28.8 115.15 28.83 115.2 28.8 C 114.6 28.8 114.4 28.5 114.4 28.2 C 114.4 28 114.4 27.9 114.4 27.9 C 114.38 27.9 114.4 27.9 114.4 27.9 C 114.4 27.9 113.89 28.98 112.5 29 C 111.4 29 110.4 28.3 110.4 27.1 C 110.4 25.2 113.1 25 114.1 25 Z M 112.9 27.8 C 113.7 27.8 114.3 26.9 114.3 26.2 C 114.28 26.18 114.3 26 114.3 26 C 114.3 26 114.01 26.04 114 26 C 113.2 26 112 26.1 112 27 C 112 27.4 112.3 27.8 112.9 27.8 Z M 120.5 22.6 C 121.3 22.6 122.7 22.9 122.7 23.9 C 122.7 23.95 122.7 24.7 122.7 24.7 L 121.4 24.7 C 121.4 24.7 121.36 24.33 121.4 24.3 C 121.4 24 120.9 23.9 120.5 23.9 C 119.4 23.9 118.7 24.7 118.7 25.8 C 118.7 27 119.6 27.6 120.6 27.6 C 121.62 27.65 122.4 26.8 122.4 26.8 L 123 27.9 C 123 27.9 122.11 28.98 120.4 29 C 118.4 29 117.1 27.6 117.1 25.8 C 117.1 24 118.4 22.6 120.5 22.6 Z M 126.7 22.6 C 128.4 22.6 129.4 23.9 129.4 25.5 C 129.41 25.65 129.4 26 129.4 26 C 129.4 26 125.15 26.04 125.1 26 C 125.3 27.1 126.1 27.7 127 27.7 C 127.97 27.68 128.7 27 128.7 27 L 129.3 28.1 C 129.3 28.1 128.4 28.98 126.9 29 C 124.8 29 123.6 27.5 123.6 25.8 C 123.6 23.9 124.9 22.6 126.7 22.6 Z M 127.8 25 C 127.8 24.3 127.3 23.7 126.7 23.7 C 125.9 23.7 125.4 24.2 125.2 25 C 125.2 25 127.8 25 127.8 25 Z M 130.9 24.3 C 130.9 24.1 130.8 24 130.6 24 C 130.62 24.01 130.1 24 130.1 24 L 130.1 22.7 C 130.1 22.7 131.53 22.72 131.5 22.7 C 132.1 22.7 132.3 22.9 132.3 23.5 C 132.3 23.5 132.3 23.8 132.3 23.8 C 132.35 24.05 132.3 24.2 132.3 24.2 C 132.3 24.2 132.35 24.2 132.3 24.2 C 132.6 23.3 133.4 22.6 134.3 22.6 C 134.42 22.63 134.6 22.7 134.6 22.7 L 134.6 24.2 C 134.6 24.2 134.41 24.13 134.2 24.1 C 133.5 24.1 132.8 24.5 132.5 25.4 C 132.4 25.7 132.4 26 132.4 26.4 C 132.39 26.41 132.4 28.8 132.4 28.8 L 130.9 28.8 C 130.9 28.8 130.88 24.27 130.9 24.3 Z M 136.5 30.1 C 136.9 30.1 137.3 29.8 137.5 29.3 C 137.47 29.29 137.7 28.8 137.7 28.8 C 137.7 28.8 135.63 24.23 135.6 24.2 C 135.6 24 135.5 24 135.3 24 C 135.31 24.01 135.1 24 135.1 24 L 135.1 22.7 C 135.1 22.7 136.14 22.72 136.1 22.7 C 136.6 22.7 136.8 22.9 136.9 23.3 C 136.9 23.3 138.1 26.4 138.1 26.4 C 138.26 26.66 138.4 27.2 138.4 27.2 L 138.4 27.2 C 138.4 27.2 138.48 26.66 138.6 26.4 C 138.6 26.4 139.6 23.3 139.6 23.3 C 139.8 22.9 140 22.7 140.4 22.7 C 140.45 22.72 141.5 22.7 141.5 22.7 L 141.5 24 C 141.5 24 141.3 24.01 141.3 24 C 141.1 24 141 24 140.9 24.2 C 140.9 24.2 138.8 29.8 138.8 29.8 C 138.3 30.9 137.5 31.4 136.5 31.4 C 135.59 31.35 135 30.7 135 30.7 L 135.6 29.7 C 135.6 29.7 135.96 30.07 136.5 30.1 Z M 138.7 20.3 L 140.1 20.3 L 138.9 21.9 L 137.7 21.9 L 138.7 20.3 Z M 145.2 22.6 C 146 22.6 147.5 22.9 147.5 23.9 C 147.45 23.95 147.5 24.7 147.5 24.7 L 146.1 24.7 C 146.1 24.7 146.11 24.33 146.1 24.3 C 146.1 24 145.6 23.9 145.2 23.9 C 144.2 23.9 143.4 24.7 143.4 25.8 C 143.4 27 144.3 27.6 145.3 27.6 C 146.37 27.65 147.1 26.8 147.1 26.8 L 147.8 27.9 C 147.8 27.9 146.87 28.98 145.2 29 C 143.2 29 141.9 27.6 141.9 25.8 C 141.9 24 143.1 22.6 145.2 22.6 Z M 148.9 21.9 C 148.9 21.7 148.8 21.6 148.6 21.6 C 148.61 21.61 148.1 21.6 148.1 21.6 L 148.1 20.3 C 148.1 20.3 149.58 20.32 149.6 20.3 C 150.1 20.3 150.4 20.6 150.4 21.1 C 150.4 21.1 150.4 23.3 150.4 23.3 C 150.39 23.57 150.4 23.8 150.4 23.8 C 150.4 23.8 150.39 23.78 150.4 23.8 C 150.7 23.2 151.4 22.6 152.5 22.6 C 153.9 22.6 154.6 23.3 154.6 24.9 C 154.6 24.9 154.6 27.3 154.6 27.3 C 154.6 27.5 154.7 27.6 154.9 27.6 C 154.89 27.55 155.4 27.6 155.4 27.6 L 155.4 28.8 C 155.4 28.8 153.92 28.83 153.9 28.8 C 153.4 28.8 153.1 28.6 153.1 28 C 153.1 28 153.1 25.2 153.1 25.2 C 153.1 24.5 152.9 24 152.1 24 C 151.3 24 150.7 24.5 150.5 25.2 C 150.4 25.5 150.4 25.7 150.4 26 C 150.39 26.03 150.4 28.8 150.4 28.8 L 148.9 28.8 C 148.9 28.8 148.87 21.87 148.9 21.9 Z M 159.8 23.9 L 159 23.9 L 159 22.7 L 159.8 22.7 L 159.8 21 L 161.3 21 L 161.3 22.7 L 162.7 22.7 L 162.7 23.9 L 161.3 23.9 C 161.3 23.9 161.33 26.4 161.3 26.4 C 161.3 27.4 162.1 27.6 162.5 27.6 C 162.71 27.55 162.8 27.5 162.8 27.5 L 162.8 28.9 C 162.8 28.9 162.62 28.89 162.3 28.9 C 161.5 28.9 159.8 28.6 159.8 26.6 C 159.8 26.59 159.8 23.9 159.8 23.9 Z M 164.1 21.9 C 164.1 21.7 164 21.6 163.8 21.6 C 163.83 21.61 163.4 21.6 163.4 21.6 L 163.4 20.3 C 163.4 20.3 164.81 20.32 164.8 20.3 C 165.4 20.3 165.6 20.4 165.6 21 C 165.62 21.01 165.6 24.9 165.6 24.9 C 165.6 24.9 166.08 24.88 166.1 24.9 C 166.3 24.9 166.5 24.8 166.7 24.6 C 166.65 24.65 167.9 22.7 167.9 22.7 L 169.6 22.7 C 169.6 22.7 168.05 25.02 168 25 C 167.78 25.4 167.6 25.5 167.6 25.5 L 167.6 25.5 C 167.6 25.5 167.81 25.61 168 26 C 168 26 168.7 27.3 168.7 27.3 C 168.8 27.5 168.9 27.6 169.2 27.6 C 169.22 27.55 169.6 27.6 169.6 27.6 L 169.6 28.8 C 169.6 28.8 168.5 28.83 168.5 28.8 C 168 28.8 167.8 28.7 167.5 28.3 C 167.5 28.3 166.5 26.4 166.5 26.4 C 166.4 26.2 166.1 26.2 166 26.2 C 165.96 26.16 165.6 26.2 165.6 26.2 L 165.6 28.8 L 164.1 28.8 C 164.1 28.8 164.1 21.87 164.1 21.9 Z M 173.8 25 C 173.78 25 174 25 174 25 C 174 25 173.97 24.95 174 24.9 C 174 24.1 173.6 23.7 172.8 23.7 C 172.6 23.7 172 23.8 172 24.2 C 172.03 24.15 172 24.5 172 24.5 L 170.6 24.5 C 170.6 24.5 170.61 23.83 170.6 23.8 C 170.6 22.7 172.2 22.6 172.9 22.6 C 174.9 22.6 175.5 23.6 175.5 25 C 175.5 25 175.5 27.3 175.5 27.3 C 175.5 27.5 175.6 27.6 175.8 27.6 C 175.76 27.55 176.2 27.6 176.2 27.6 L 176.2 28.8 C 176.2 28.8 174.87 28.83 174.9 28.8 C 174.3 28.8 174.1 28.5 174.1 28.2 C 174.1 28 174.1 27.9 174.1 27.9 C 174.11 27.9 174.1 27.9 174.1 27.9 C 174.1 27.9 173.61 28.98 172.2 29 C 171.1 29 170.1 28.3 170.1 27.1 C 170.1 25.2 172.8 25 173.8 25 Z M 172.6 27.8 C 173.4 27.8 174 26.9 174 26.2 C 174 26.18 174 26 174 26 C 174 26 173.73 26.04 173.7 26 C 172.9 26 171.7 26.1 171.7 27 C 171.7 27.4 172 27.8 172.6 27.8 Z M 177.5 24.3 C 177.5 24.1 177.4 24 177.2 24 C 177.2 24.01 176.7 24 176.7 24 L 176.7 22.7 C 176.7 22.7 178.13 22.72 178.1 22.7 C 178.7 22.7 178.9 23 178.9 23.4 C 178.9 23.4 178.9 23.6 178.9 23.6 C 178.9 23.7 178.9 23.8 178.9 23.8 C 178.9 23.8 178.9 23.8 178.9 23.8 C 179.2 23.3 179.9 22.6 181.1 22.6 C 182.4 22.6 183.2 23.3 183.2 24.9 C 183.2 24.9 183.2 27.3 183.2 27.3 C 183.2 27.5 183.3 27.6 183.5 27.6 C 183.49 27.55 184 27.6 184 27.6 L 184 28.8 C 184 28.8 182.52 28.83 182.5 28.8 C 181.9 28.8 181.7 28.6 181.7 28 C 181.7 28 181.7 25.2 181.7 25.2 C 181.7 24.5 181.5 24 180.7 24 C 179.9 24 179.3 24.5 179.1 25.2 C 179 25.5 179 25.7 179 26 C 178.98 26.03 179 28.8 179 28.8 L 177.5 28.8 C 177.5 28.8 177.47 24.27 177.5 24.3 Z M 185.3 20.3 L 186.6 20.3 L 186.6 21.7 L 185.3 21.7 L 185.3 20.3 Z M 185.2 24.3 C 185.2 24.1 185.1 24 185 24 C 184.97 24.01 184.5 24 184.5 24 L 184.5 22.7 C 184.5 22.7 185.94 22.72 185.9 22.7 C 186.5 22.7 186.7 23 186.7 23.5 C 186.7 23.5 186.7 27.3 186.7 27.3 C 186.7 27.5 186.8 27.6 187 27.6 C 187.01 27.55 187.5 27.6 187.5 27.6 L 187.5 28.8 C 187.5 28.8 186.03 28.83 186 28.8 C 185.5 28.8 185.2 28.6 185.2 28 C 185.2 28 185.2 24.3 185.2 24.3 Z M 188.3 24.2 C 188.3 24.1 188.2 24 188 24 C 187.99 24.01 187.9 24 187.9 24 L 187.9 22.7 C 187.9 22.7 188.73 22.72 188.7 22.7 C 189.2 22.7 189.5 22.9 189.6 23.3 C 189.6 23.3 190.8 26.5 190.8 26.5 C 190.92 26.87 191 27.4 191 27.4 L 191 27.4 C 191 27.4 191.13 26.87 191.3 26.5 C 191.3 26.5 192.4 23.3 192.4 23.3 C 192.6 22.9 192.8 22.7 193.3 22.7 C 193.31 22.72 194.1 22.7 194.1 22.7 L 194.1 24 C 194.1 24 193.98 24.01 194 24 C 193.8 24 193.7 24.1 193.6 24.2 C 193.64 24.23 191.9 28.8 191.9 28.8 L 190.1 28.8 C 190.1 28.8 188.33 24.23 188.3 24.2 Z M 198.2 25 C 198.23 25 198.4 25 198.4 25 C 198.4 25 198.42 24.95 198.4 24.9 C 198.4 24.1 198.1 23.7 197.3 23.7 C 197 23.7 196.5 23.8 196.5 24.2 C 196.47 24.15 196.5 24.5 196.5 24.5 L 195.1 24.5 C 195.1 24.5 195.06 23.83 195.1 23.8 C 195.1 22.7 196.7 22.6 197.3 22.6 C 199.3 22.6 199.9 23.6 199.9 25 C 199.9 25 199.9 27.3 199.9 27.3 C 199.9 27.5 200 27.6 200.2 27.6 C 200.21 27.55 200.7 27.6 200.7 27.6 L 200.7 28.8 C 200.7 28.8 199.32 28.83 199.3 28.8 C 198.8 28.8 198.5 28.5 198.5 28.2 C 198.5 28 198.6 27.9 198.6 27.9 C 198.55 27.9 198.5 27.9 198.5 27.9 C 198.5 27.9 198.06 28.98 196.7 29 C 195.6 29 194.6 28.3 194.6 27.1 C 194.6 25.2 197.2 25 198.2 25 Z M 197 27.8 C 197.9 27.8 198.4 26.9 198.4 26.2 C 198.44 26.18 198.4 26 198.4 26 C 198.4 26 198.18 26.04 198.2 26 C 197.4 26 196.1 26.1 196.1 27 C 196.1 27.4 196.4 27.8 197 27.8 Z M 197.8 20.3 L 199.2 20.3 L 198 21.9 L 196.9 21.9 L 197.8 20.3 Z M 204.6 22.6 C 205.4 22.6 206.9 22.9 206.9 23.9 C 206.87 23.95 206.9 24.7 206.9 24.7 L 205.5 24.7 C 205.5 24.7 205.52 24.33 205.5 24.3 C 205.5 24 205 23.9 204.6 23.9 C 203.6 23.9 202.8 24.7 202.8 25.8 C 202.8 27 203.8 27.6 204.7 27.6 C 205.79 27.65 206.6 26.8 206.6 26.8 L 207.2 27.9 C 207.2 27.9 206.28 28.98 204.6 29 C 202.6 29 201.3 27.6 201.3 25.8 C 201.3 24 202.5 22.6 204.6 22.6 Z M 208.3 21.9 C 208.3 21.7 208.2 21.6 208 21.6 C 208.02 21.61 207.5 21.6 207.5 21.6 L 207.5 20.3 C 207.5 20.3 208.99 20.32 209 20.3 C 209.6 20.3 209.8 20.6 209.8 21.1 C 209.8 21.1 209.8 23.3 209.8 23.3 C 209.81 23.57 209.8 23.8 209.8 23.8 C 209.8 23.8 209.81 23.78 209.8 23.8 C 210.1 23.2 210.8 22.6 211.9 22.6 C 213.3 22.6 214 23.3 214 24.9 C 214 24.9 214 27.3 214 27.3 C 214 27.5 214.1 27.6 214.3 27.6 C 214.31 27.55 214.8 27.6 214.8 27.6 L 214.8 28.8 C 214.8 28.8 213.33 28.83 213.3 28.8 C 212.8 28.8 212.5 28.6 212.5 28 C 212.5 28 212.5 25.2 212.5 25.2 C 212.5 24.5 212.3 24 211.6 24 C 210.8 24 210.1 24.5 209.9 25.2 C 209.8 25.5 209.8 25.7 209.8 26 C 209.81 26.03 209.8 28.8 209.8 28.8 L 208.3 28.8 C 208.3 28.8 208.28 21.87 208.3 21.9 Z M 218.8 24.2 C 218.7 24.1 218.6 24 218.5 24 C 218.47 24.01 218.3 24 218.3 24 L 218.3 22.7 C 218.3 22.7 219.21 22.72 219.2 22.7 C 219.7 22.7 220 22.9 220.1 23.3 C 220.1 23.3 221.3 26.5 221.3 26.5 C 221.4 26.87 221.5 27.4 221.5 27.4 L 221.5 27.4 C 221.5 27.4 221.61 26.87 221.7 26.5 C 221.7 26.5 222.9 23.3 222.9 23.3 C 223 22.9 223.3 22.7 223.8 22.7 C 223.79 22.72 224.6 22.7 224.6 22.7 L 224.6 24 C 224.6 24 224.46 24.01 224.5 24 C 224.3 24 224.2 24.1 224.1 24.2 C 224.12 24.23 222.4 28.8 222.4 28.8 L 220.6 28.8 C 220.6 28.8 218.81 24.23 218.8 24.2 Z M 225.7 24.3 C 225.7 24.1 225.6 24 225.5 24 C 225.47 24.01 225 24 225 24 L 225 22.7 C 225 22.7 226.38 22.72 226.4 22.7 C 226.9 22.7 227.2 22.9 227.2 23.5 C 227.2 23.5 227.2 23.8 227.2 23.8 C 227.19 24.05 227.2 24.2 227.2 24.2 C 227.2 24.2 227.19 24.2 227.2 24.2 C 227.5 23.3 228.2 22.6 229.1 22.6 C 229.27 22.63 229.4 22.7 229.4 22.7 L 229.4 24.2 C 229.4 24.2 229.26 24.13 229 24.1 C 228.4 24.1 227.6 24.5 227.4 25.4 C 227.3 25.7 227.2 26 227.2 26.4 C 227.24 26.41 227.2 28.8 227.2 28.8 L 225.7 28.8 C 225.7 28.8 225.73 24.27 225.7 24.3 Z M 233.4 25 C 233.35 25 233.5 25 233.5 25 C 233.5 25 233.54 24.95 233.5 24.9 C 233.5 24.1 233.2 23.7 232.4 23.7 C 232.1 23.7 231.6 23.8 231.6 24.2 C 231.6 24.15 231.6 24.5 231.6 24.5 L 230.2 24.5 C 230.2 24.5 230.18 23.83 230.2 23.8 C 230.2 22.7 231.8 22.6 232.4 22.6 C 234.5 22.6 235.1 23.6 235.1 25 C 235.1 25 235.1 27.3 235.1 27.3 C 235.1 27.5 235.2 27.6 235.3 27.6 C 235.33 27.55 235.8 27.6 235.8 27.6 L 235.8 28.8 C 235.8 28.8 234.44 28.83 234.4 28.8 C 233.9 28.8 233.7 28.5 233.7 28.2 C 233.7 28 233.7 27.9 233.7 27.9 C 233.67 27.9 233.7 27.9 233.7 27.9 C 233.7 27.9 233.18 28.98 231.8 29 C 230.7 29 229.7 28.3 229.7 27.1 C 229.7 25.2 232.4 25 233.4 25 Z M 232.2 27.8 C 233 27.8 233.6 26.9 233.6 26.2 C 233.57 26.18 233.6 26 233.6 26 C 233.6 26 233.3 26.04 233.3 26 C 232.5 26 231.2 26.1 231.2 27 C 231.2 27.4 231.5 27.8 232.2 27.8 Z M 232.9 20.3 L 234.4 20.3 L 233.1 21.9 L 232 21.9 L 232.9 20.3 Z M 237.1 23.9 L 236.3 23.9 L 236.3 22.7 L 237.1 22.7 L 237.1 21 L 238.6 21 L 238.6 22.7 L 240 22.7 L 240 23.9 L 238.6 23.9 C 238.6 23.9 238.58 26.4 238.6 26.4 C 238.6 27.4 239.4 27.6 239.8 27.6 C 239.96 27.55 240.1 27.5 240.1 27.5 L 240.1 28.9 C 240.1 28.9 239.88 28.89 239.6 28.9 C 238.7 28.9 237.1 28.6 237.1 26.6 C 237.06 26.59 237.1 23.9 237.1 23.9 Z M 244.5 25 C 244.47 25 244.7 25 244.7 25 C 244.7 25 244.67 24.95 244.7 24.9 C 244.7 24.1 244.3 23.7 243.5 23.7 C 243.3 23.7 242.7 23.8 242.7 24.2 C 242.72 24.15 242.7 24.5 242.7 24.5 L 241.3 24.5 C 241.3 24.5 241.31 23.83 241.3 23.8 C 241.3 22.7 242.9 22.6 243.5 22.6 C 245.6 22.6 246.2 23.6 246.2 25 C 246.2 25 246.2 27.3 246.2 27.3 C 246.2 27.5 246.3 27.6 246.5 27.6 C 246.45 27.55 246.9 27.6 246.9 27.6 L 246.9 28.8 C 246.9 28.8 245.57 28.83 245.6 28.8 C 245 28.8 244.8 28.5 244.8 28.2 C 244.8 28 244.8 27.9 244.8 27.9 C 244.8 27.9 244.8 27.9 244.8 27.9 C 244.8 27.9 244.31 28.98 242.9 29 C 241.8 29 240.8 28.3 240.8 27.1 C 240.8 25.2 243.5 25 244.5 25 Z M 243.3 27.8 C 244.1 27.8 244.7 26.9 244.7 26.2 C 244.69 26.18 244.7 26 244.7 26 C 244.7 26 244.43 26.04 244.4 26 C 243.6 26 242.4 26.1 242.4 27 C 242.4 27.4 242.7 27.8 243.3 27.8 Z M 248.2 24.3 C 248.2 24.1 248.1 24 247.9 24 C 247.89 24.01 247.4 24 247.4 24 L 247.4 22.7 C 247.4 22.7 248.82 22.72 248.8 22.7 C 249.4 22.7 249.6 23 249.6 23.4 C 249.6 23.4 249.6 23.6 249.6 23.6 C 249.6 23.7 249.6 23.8 249.6 23.8 C 249.6 23.8 249.6 23.8 249.6 23.8 C 249.9 23.3 250.5 22.6 251.8 22.6 C 253.1 22.6 253.9 23.3 253.9 24.9 C 253.9 24.9 253.9 27.3 253.9 27.3 C 253.9 27.5 254 27.6 254.2 27.6 C 254.18 27.55 254.7 27.6 254.7 27.6 L 254.7 28.8 C 254.7 28.8 253.21 28.83 253.2 28.8 C 252.6 28.8 252.4 28.6 252.4 28 C 252.4 28 252.4 25.2 252.4 25.2 C 252.4 24.5 252.2 24 251.4 24 C 250.6 24 250 24.5 249.8 25.2 C 249.7 25.5 249.7 25.7 249.7 26 C 249.67 26.03 249.7 28.8 249.7 28.8 L 248.2 28.8 C 248.2 28.8 248.16 24.27 248.2 24.3 Z M 258.4 22.6 C 260.1 22.6 261.1 23.9 261.1 25.5 C 261.08 25.65 261 26 261 26 C 261 26 256.82 26.04 256.8 26 C 256.9 27.1 257.7 27.7 258.7 27.7 C 259.64 27.68 260.4 27 260.4 27 L 261 28.1 C 261 28.1 260.07 28.98 258.6 29 C 256.5 29 255.3 27.5 255.3 25.8 C 255.3 23.9 256.5 22.6 258.4 22.6 Z M 259.5 25 C 259.5 24.3 259 23.7 258.4 23.7 C 257.6 23.7 257 24.2 256.9 25 C 256.9 25 259.5 25 259.5 25 Z M 265.4 24.2 C 265.3 24.1 265.2 24 265 24 C 265.02 24.01 264.9 24 264.9 24 L 264.9 22.7 C 264.9 22.7 265.76 22.72 265.8 22.7 C 266.3 22.7 266.5 22.9 266.7 23.3 C 266.7 23.3 267.8 26.5 267.8 26.5 C 267.95 26.87 268 27.4 268 27.4 L 268.1 27.4 C 268.1 27.4 268.16 26.87 268.3 26.5 C 268.3 26.5 269.4 23.3 269.4 23.3 C 269.6 22.9 269.8 22.7 270.3 22.7 C 270.33 22.72 271.1 22.7 271.1 22.7 L 271.1 24 C 271.1 24 271.01 24.01 271 24 C 270.8 24 270.7 24.1 270.7 24.2 C 270.67 24.23 268.9 28.8 268.9 28.8 L 267.1 28.8 C 267.1 28.8 265.35 24.23 265.4 24.2 Z M 275.3 25 C 275.25 25 275.4 25 275.4 25 C 275.4 25 275.45 24.95 275.4 24.9 C 275.4 24.1 275.1 23.7 274.3 23.7 C 274 23.7 273.5 23.8 273.5 24.2 C 273.5 24.15 273.5 24.5 273.5 24.5 L 272.1 24.5 C 272.1 24.5 272.09 23.83 272.1 23.8 C 272.1 22.7 273.7 22.6 274.3 22.6 C 276.4 22.6 277 23.6 277 25 C 277 25 277 27.3 277 27.3 C 277 27.5 277.1 27.6 277.2 27.6 C 277.23 27.55 277.7 27.6 277.7 27.6 L 277.7 28.8 C 277.7 28.8 276.35 28.83 276.3 28.8 C 275.8 28.8 275.6 28.5 275.6 28.2 C 275.6 28 275.6 27.9 275.6 27.9 C 275.58 27.9 275.6 27.9 275.6 27.9 C 275.6 27.9 275.09 28.98 273.7 29 C 272.6 29 271.6 28.3 271.6 27.1 C 271.6 25.2 274.3 25 275.3 25 Z M 274.1 27.8 C 274.9 27.8 275.5 26.9 275.5 26.2 C 275.47 26.18 275.5 26 275.5 26 C 275.5 26 275.21 26.04 275.2 26 C 274.4 26 273.2 26.1 273.2 27 C 273.2 27.4 273.5 27.8 274.1 27.8 Z M 279.3 20.3 L 280.6 20.3 L 280.6 21.7 L 279.3 21.7 L 279.3 20.3 Z M 278 30 C 278.4 30 279.2 29.9 279.2 28.9 C 279.2 28.9 279.2 24.3 279.2 24.3 C 279.2 24.1 279.1 24 278.9 24 C 278.94 24.01 278.5 24 278.5 24 L 278.5 22.7 C 278.5 22.7 279.91 22.72 279.9 22.7 C 280.5 22.7 280.7 23 280.7 23.5 C 280.7 23.5 280.7 29 280.7 29 C 280.7 31.1 279 31.3 278.2 31.3 C 277.9 31.3 277.7 31.3 277.7 31.3 C 277.71 31.28 277.7 30 277.7 30 C 277.7 30 277.82 30.02 278 30 Z M 285.1 22.6 C 286.8 22.6 287.8 23.9 287.8 25.5 C 287.8 25.65 287.8 26 287.8 26 C 287.8 26 283.54 26.04 283.5 26 C 283.7 27.1 284.5 27.7 285.4 27.7 C 286.37 27.68 287.1 27 287.1 27 L 287.7 28.1 C 287.7 28.1 286.8 28.98 285.3 29 C 283.2 29 282 27.5 282 25.8 C 282 23.9 283.3 22.6 285.1 22.6 Z M 286.2 25 C 286.2 24.3 285.7 23.7 285.1 23.7 C 284.3 23.7 283.8 24.2 283.6 25 C 283.6 25 286.2 25 286.2 25 Z M 292 22.6 C 292.8 22.6 294.2 22.9 294.2 23.9 C 294.24 23.95 294.2 24.7 294.2 24.7 L 292.9 24.7 C 292.9 24.7 292.89 24.33 292.9 24.3 C 292.9 24 292.4 23.9 292 23.9 C 291 23.9 290.2 24.7 290.2 25.8 C 290.2 27 291.1 27.6 292.1 27.6 C 293.16 27.65 293.9 26.8 293.9 26.8 L 294.6 27.9 C 294.6 27.9 293.65 28.98 292 29 C 290 29 288.7 27.6 288.7 25.8 C 288.7 24 289.9 22.6 292 22.6 Z M 290 20.3 L 291.2 20.3 L 291.8 21.3 L 291.8 21.3 L 292.4 20.3 L 293.6 20.3 L 292.4 21.9 L 291.1 21.9 L 290 20.3 Z M 295.7 24.3 C 295.7 24.1 295.6 24 295.5 24 C 295.47 24.01 295 24 295 24 L 295 22.7 C 295 22.7 296.4 22.72 296.4 22.7 C 296.9 22.7 297.2 23 297.2 23.4 C 297.2 23.4 297.2 23.6 297.2 23.6 C 297.2 23.7 297.2 23.8 297.2 23.8 C 297.2 23.8 297.2 23.8 297.2 23.8 C 297.5 23.3 298.1 22.6 299.4 22.6 C 300.7 22.6 301.5 23.3 301.5 24.9 C 301.5 24.9 301.5 27.3 301.5 27.3 C 301.5 27.5 301.6 27.6 301.8 27.6 C 301.76 27.55 302.2 27.6 302.2 27.6 L 302.2 28.8 C 302.2 28.8 300.79 28.83 300.8 28.8 C 300.2 28.8 300 28.6 300 28 C 300 28 300 25.2 300 25.2 C 300 24.5 299.8 24 299 24 C 298.2 24 297.6 24.5 297.4 25.2 C 297.3 25.5 297.2 25.7 297.2 26 C 297.25 26.03 297.2 28.8 297.2 28.8 L 295.7 28.8 C 295.7 28.8 295.74 24.27 295.7 24.3 Z M 303.5 24.3 C 303.5 24.1 303.4 24 303.3 24 C 303.25 24.01 302.8 24 302.8 24 L 302.8 22.7 C 302.8 22.7 304.22 22.72 304.2 22.7 C 304.8 22.7 305 23 305 23.5 C 305 23.5 305 27.3 305 27.3 C 305 27.5 305.1 27.6 305.3 27.6 C 305.3 27.55 305.8 27.6 305.8 27.6 L 305.8 28.8 C 305.8 28.8 304.33 28.83 304.3 28.8 C 303.8 28.8 303.5 28.6 303.5 28 C 303.5 28 303.5 24.3 303.5 24.3 Z M 304.5 20.3 L 306 20.3 L 304.7 22 L 303.6 22 L 304.5 20.3 Z M 307 21.9 C 307 21.7 306.9 21.6 306.8 21.6 C 306.77 21.61 306.3 21.6 306.3 21.6 L 306.3 20.3 C 306.3 20.3 307.74 20.32 307.7 20.3 C 308.3 20.3 308.6 20.4 308.6 21 C 308.55 21.01 308.6 24.9 308.6 24.9 C 308.6 24.9 309.01 24.88 309 24.9 C 309.2 24.9 309.5 24.8 309.6 24.6 C 309.58 24.65 310.8 22.7 310.8 22.7 L 312.5 22.7 C 312.5 22.7 310.98 25.02 311 25 C 310.71 25.4 310.5 25.5 310.5 25.5 L 310.5 25.5 C 310.5 25.5 310.74 25.61 311 26 C 311 26 311.6 27.3 311.6 27.3 C 311.7 27.5 311.9 27.6 312.2 27.6 C 312.15 27.55 312.6 27.6 312.6 27.6 L 312.6 28.8 C 312.6 28.8 311.43 28.83 311.4 28.8 C 310.9 28.8 310.7 28.7 310.5 28.3 C 310.5 28.3 309.5 26.4 309.5 26.4 C 309.3 26.2 309.1 26.2 308.9 26.2 C 308.89 26.16 308.6 26.2 308.6 26.2 L 308.6 28.8 L 307 28.8 C 307 28.8 307.03 21.87 307 21.9 Z M 316.4 22.6 C 318.2 22.6 319.7 23.9 319.7 25.8 C 319.7 27.7 318.2 29 316.4 29 C 314.5 29 313 27.7 313 25.8 C 313 23.9 314.5 22.6 316.4 22.6 Z M 316.4 27.7 C 317.3 27.7 318.2 26.9 318.2 25.8 C 318.2 24.6 317.3 23.9 316.4 23.9 C 315.4 23.9 314.5 24.6 314.5 25.8 C 314.5 26.9 315.4 27.7 316.4 27.7 Z M 320.6 24.2 C 320.5 24.1 320.4 24 320.3 24 C 320.25 24.01 320.1 24 320.1 24 L 320.1 22.7 C 320.1 22.7 321 22.72 321 22.7 C 321.5 22.7 321.7 22.9 321.9 23.3 C 321.9 23.3 323 26.5 323 26.5 C 323.18 26.87 323.3 27.4 323.3 27.4 L 323.3 27.4 C 323.3 27.4 323.4 26.87 323.5 26.5 C 323.5 26.5 324.7 23.3 324.7 23.3 C 324.8 22.9 325.1 22.7 325.6 22.7 C 325.57 22.72 326.4 22.7 326.4 22.7 L 326.4 24 C 326.4 24 326.24 24.01 326.2 24 C 326.1 24 326 24.1 325.9 24.2 C 325.9 24.23 324.2 28.8 324.2 28.8 L 322.3 28.8 C 322.3 28.8 320.59 24.23 320.6 24.2 Z M 333.7 25 C 333.73 25 333.9 25 333.9 25 C 333.9 25 333.92 24.95 333.9 24.9 C 333.9 24.1 333.6 23.7 332.8 23.7 C 332.5 23.7 332 23.8 332 24.2 C 331.98 24.15 332 24.5 332 24.5 L 330.6 24.5 C 330.6 24.5 330.56 23.83 330.6 23.8 C 330.6 22.7 332.2 22.6 332.8 22.6 C 334.8 22.6 335.4 23.6 335.4 25 C 335.4 25 335.4 27.3 335.4 27.3 C 335.4 27.5 335.5 27.6 335.7 27.6 C 335.71 27.55 336.2 27.6 336.2 27.6 L 336.2 28.8 C 336.2 28.8 334.82 28.83 334.8 28.8 C 334.3 28.8 334 28.5 334 28.2 C 334 28 334.1 27.9 334.1 27.9 C 334.05 27.9 334 27.9 334 27.9 C 334 27.9 333.56 28.98 332.2 29 C 331.1 29 330.1 28.3 330.1 27.1 C 330.1 25.2 332.7 25 333.7 25 Z M 332.6 27.8 C 333.4 27.8 333.9 26.9 333.9 26.2 C 333.95 26.18 333.9 26 333.9 26 C 333.9 26 333.68 26.04 333.7 26 C 332.9 26 331.6 26.1 331.6 27 C 331.6 27.4 331.9 27.8 332.6 27.8 Z M 340.6 23.9 L 339.8 23.9 L 339.8 22.7 L 340.7 22.7 L 340.7 21 L 342.1 21 L 342.1 22.7 L 343.5 22.7 L 343.5 23.9 L 342.1 23.9 C 342.1 23.9 342.14 26.4 342.1 26.4 C 342.1 27.4 342.9 27.6 343.4 27.6 C 343.52 27.55 343.6 27.5 343.6 27.5 L 343.6 28.9 C 343.6 28.9 343.44 28.89 343.2 28.9 C 342.3 28.9 340.6 28.6 340.6 26.6 C 340.62 26.59 340.6 23.9 340.6 23.9 Z M 345 24.3 C 345 24.1 344.9 24 344.7 24 C 344.75 24.01 344.3 24 344.3 24 L 344.3 22.7 C 344.3 22.7 345.72 22.72 345.7 22.7 C 346.3 22.7 346.5 23 346.5 23.5 C 346.5 23.5 346.5 26.3 346.5 26.3 C 346.5 27.1 346.7 27.6 347.5 27.6 C 348.6 27.6 349.2 26.6 349.2 25.5 C 349.19 25.52 349.2 22.7 349.2 22.7 L 350.7 22.7 C 350.7 22.7 350.71 27.29 350.7 27.3 C 350.7 27.5 350.8 27.6 351 27.6 C 350.97 27.55 351.5 27.6 351.5 27.6 L 351.5 28.8 C 351.5 28.8 350.05 28.83 350 28.8 C 349.5 28.8 349.2 28.6 349.2 28.2 C 349.2 28.2 349.2 28 349.2 28 C 349.2 27.8 349.3 27.7 349.3 27.7 C 349.3 27.7 349.2 27.7 349.2 27.7 C 348.9 28.3 348.2 29 347.1 29 C 345.8 29 345 28.3 345 26.7 C 345 26.7 345 24.3 345 24.3 Z M 352.6 21.9 C 352.6 21.7 352.5 21.6 352.4 21.6 C 352.38 21.61 351.9 21.6 351.9 21.6 L 351.9 20.3 C 351.9 20.3 353.35 20.32 353.3 20.3 C 353.9 20.3 354.2 20.4 354.2 21 C 354.16 21.01 354.2 24.9 354.2 24.9 C 354.2 24.9 354.62 24.88 354.6 24.9 C 354.8 24.9 355.1 24.8 355.2 24.6 C 355.2 24.65 356.4 22.7 356.4 22.7 L 358.1 22.7 C 358.1 22.7 356.59 25.02 356.6 25 C 356.32 25.4 356.1 25.5 356.1 25.5 L 356.1 25.5 C 356.1 25.5 356.35 25.61 356.6 26 C 356.6 26 357.3 27.3 357.3 27.3 C 357.4 27.5 357.5 27.6 357.8 27.6 C 357.76 27.55 358.2 27.6 358.2 27.6 L 358.2 28.8 C 358.2 28.8 357.04 28.83 357 28.8 C 356.5 28.8 356.3 28.7 356.1 28.3 C 356.1 28.3 355.1 26.4 355.1 26.4 C 354.9 26.2 354.7 26.2 354.5 26.2 C 354.5 26.16 354.2 26.2 354.2 26.2 L 354.2 28.8 L 352.6 28.8 C 352.6 28.8 352.64 21.87 352.6 21.9 Z M 362 22.6 C 363.8 22.6 365.3 23.9 365.3 25.8 C 365.3 27.7 363.8 29 362 29 C 360.1 29 358.6 27.7 358.6 25.8 C 358.6 23.9 360.1 22.6 362 22.6 Z M 362 27.7 C 363 27.7 363.8 26.9 363.8 25.8 C 363.8 24.6 363 23.9 362 23.9 C 361 23.9 360.2 24.6 360.2 25.8 C 360.2 26.9 361 27.7 362 27.7 Z M 366.2 24.2 C 366.1 24.1 366 24 365.9 24 C 365.87 24.01 365.7 24 365.7 24 L 365.7 22.7 C 365.7 22.7 366.61 22.72 366.6 22.7 C 367.1 22.7 367.4 22.9 367.5 23.3 C 367.5 23.3 368.7 26.5 368.7 26.5 C 368.79 26.87 368.9 27.4 368.9 27.4 L 368.9 27.4 C 368.9 27.4 369.01 26.87 369.1 26.5 C 369.1 26.5 370.3 23.3 370.3 23.3 C 370.4 22.9 370.7 22.7 371.2 22.7 C 371.18 22.72 372 22.7 372 22.7 L 372 24 C 372 24 371.85 24.01 371.9 24 C 371.7 24 371.6 24.1 371.5 24.2 C 371.52 24.23 369.8 28.8 369.8 28.8 L 368 28.8 C 368 28.8 366.2 24.23 366.2 24.2 Z M 375.5 22.6 C 377.3 22.6 378.2 23.9 378.2 25.5 C 378.21 25.65 378.2 26 378.2 26 C 378.2 26 373.95 26.04 374 26 C 374.1 27.1 374.9 27.7 375.8 27.7 C 376.77 27.68 377.5 27 377.5 27 L 378.1 28.1 C 378.1 28.1 377.21 28.98 375.7 29 C 373.7 29 372.4 27.5 372.4 25.8 C 372.4 23.9 373.7 22.6 375.5 22.6 Z M 376.7 25 C 376.6 24.3 376.1 23.7 375.5 23.7 C 374.7 23.7 374.2 24.2 374 25 C 374 25 376.7 25 376.7 25 Z M 375.8 20.3 L 377.3 20.3 L 376 21.9 L 374.9 21.9 L 375.8 20.3 Z M 379.6 21.9 C 379.6 21.7 379.5 21.6 379.4 21.6 C 379.38 21.61 378.9 21.6 378.9 21.6 L 378.9 20.3 C 378.9 20.3 380.35 20.32 380.3 20.3 C 380.9 20.3 381.2 20.6 381.2 21.1 C 381.2 21.1 381.2 23.3 381.2 23.3 C 381.16 23.57 381.1 23.8 381.1 23.8 C 381.1 23.8 381.16 23.78 381.2 23.8 C 381.5 23.2 382.2 22.6 383.3 22.6 C 384.6 22.6 385.4 23.3 385.4 24.9 C 385.4 24.9 385.4 27.3 385.4 27.3 C 385.4 27.5 385.5 27.6 385.7 27.6 C 385.66 27.55 386.1 27.6 386.1 27.6 L 386.1 28.8 C 386.1 28.8 384.69 28.83 384.7 28.8 C 384.1 28.8 383.9 28.6 383.9 28 C 383.9 28 383.9 25.2 383.9 25.2 C 383.9 24.5 383.7 24 382.9 24 C 382.1 24 381.5 24.5 381.3 25.2 C 381.2 25.5 381.2 25.7 381.2 26 C 381.16 26.03 381.2 28.8 381.2 28.8 L 379.6 28.8 C 379.6 28.8 379.64 21.87 379.6 21.9 Z M 390.1 22.6 C 392 22.6 393.5 23.9 393.5 25.8 C 393.5 27.7 392 29 390.1 29 C 388.2 29 386.8 27.7 386.8 25.8 C 386.8 23.9 388.2 22.6 390.1 22.6 Z M 390.1 27.7 C 391.1 27.7 391.9 26.9 391.9 25.8 C 391.9 24.6 391.1 23.9 390.1 23.9 C 389.1 23.9 388.3 24.6 388.3 25.8 C 388.3 26.9 389.1 27.7 390.1 27.7 Z M 398 23.9 L 397.3 23.9 L 397.3 22.7 L 398.1 22.7 L 398.1 21 L 399.6 21 L 399.6 22.7 L 401 22.7 L 401 23.9 L 399.6 23.9 C 399.6 23.9 399.57 26.4 399.6 26.4 C 399.6 27.4 400.4 27.6 400.8 27.6 C 400.95 27.55 401.1 27.5 401.1 27.5 L 401.1 28.9 C 401.1 28.9 400.87 28.89 400.6 28.9 C 399.7 28.9 398 28.6 398 26.6 C 398.05 26.59 398 23.9 398 23.9 Z M 402.3 21.9 C 402.3 21.7 402.2 21.6 402.1 21.6 C 402.08 21.61 401.6 21.6 401.6 21.6 L 401.6 20.3 C 401.6 20.3 403.05 20.32 403.1 20.3 C 403.6 20.3 403.9 20.4 403.9 21 C 403.87 21.01 403.9 24.9 403.9 24.9 C 403.9 24.9 404.32 24.88 404.3 24.9 C 404.5 24.9 404.8 24.8 404.9 24.6 C 404.9 24.65 406.1 22.7 406.1 22.7 L 407.8 22.7 C 407.8 22.7 406.29 25.02 406.3 25 C 406.03 25.4 405.8 25.5 405.8 25.5 L 405.8 25.5 C 405.8 25.5 406.05 25.61 406.3 26 C 406.3 26 407 27.3 407 27.3 C 407.1 27.5 407.2 27.6 407.5 27.6 C 407.47 27.55 407.9 27.6 407.9 27.6 L 407.9 28.8 C 407.9 28.8 406.75 28.83 406.7 28.8 C 406.2 28.8 406 28.7 405.8 28.3 C 405.8 28.3 404.8 26.4 404.8 26.4 C 404.6 26.2 404.4 26.2 404.2 26.2 C 404.2 26.16 403.9 26.2 403.9 26.2 L 403.9 28.8 L 402.3 28.8 C 402.3 28.8 402.35 21.87 402.3 21.9 Z M 412 25 C 412.03 25 412.2 25 412.2 25 C 412.2 25 412.22 24.95 412.2 24.9 C 412.2 24.1 411.9 23.7 411.1 23.7 C 410.8 23.7 410.3 23.8 410.3 24.2 C 410.28 24.15 410.3 24.5 410.3 24.5 L 408.9 24.5 C 408.9 24.5 408.86 23.83 408.9 23.8 C 408.9 22.7 410.5 22.6 411.1 22.6 C 413.1 22.6 413.7 23.6 413.7 25 C 413.7 25 413.7 27.3 413.7 27.3 C 413.7 27.5 413.8 27.6 414 27.6 C 414.01 27.55 414.5 27.6 414.5 27.6 L 414.5 28.8 C 414.5 28.8 413.12 28.83 413.1 28.8 C 412.6 28.8 412.3 28.5 412.3 28.2 C 412.3 28 412.4 27.9 412.4 27.9 C 412.35 27.9 412.3 27.9 412.3 27.9 C 412.3 27.9 411.86 28.98 410.5 29 C 409.4 29 408.4 28.3 408.4 27.1 C 408.4 25.2 411 25 412 25 Z M 410.9 27.8 C 411.7 27.8 412.2 26.9 412.2 26.2 C 412.25 26.18 412.2 26 412.2 26 C 412.2 26 411.98 26.04 412 26 C 411.2 26 409.9 26.1 409.9 27 C 409.9 27.4 410.2 27.8 410.9 27.8 Z M 415.7 24.3 C 415.7 24.1 415.6 24 415.4 24 C 415.45 24.01 415 24 415 24 L 415 22.7 C 415 22.7 416.37 22.72 416.4 22.7 C 416.9 22.7 417.2 23 417.2 23.4 C 417.2 23.4 417.2 23.6 417.2 23.6 C 417.2 23.7 417.2 23.8 417.2 23.8 C 417.2 23.8 417.2 23.8 417.2 23.8 C 417.4 23.3 418.1 22.6 419.3 22.6 C 420.7 22.6 421.5 23.3 421.5 24.9 C 421.5 24.9 421.5 27.3 421.5 27.3 C 421.5 27.5 421.6 27.6 421.7 27.6 C 421.74 27.55 422.2 27.6 422.2 27.6 L 422.2 28.8 C 422.2 28.8 420.76 28.83 420.8 28.8 C 420.2 28.8 419.9 28.6 419.9 28 C 419.9 28 419.9 25.2 419.9 25.2 C 419.9 24.5 419.8 24 419 24 C 418.2 24 417.6 24.5 417.3 25.2 C 417.3 25.5 417.2 25.7 417.2 26 C 417.22 26.03 417.2 28.8 417.2 28.8 L 415.7 28.8 C 415.7 28.8 415.71 24.27 415.7 24.3 Z M 423.5 20.3 L 424.9 20.3 L 424.9 21.7 L 423.5 21.7 L 423.5 20.3 Z M 423.5 24.3 C 423.5 24.1 423.4 24 423.2 24 C 423.21 24.01 422.7 24 422.7 24 L 422.7 22.7 C 422.7 22.7 424.18 22.72 424.2 22.7 C 424.7 22.7 425 23 425 23.5 C 425 23.5 425 27.3 425 27.3 C 425 27.5 425.1 27.6 425.3 27.6 C 425.25 27.55 425.7 27.6 425.7 27.6 L 425.7 28.8 C 425.7 28.8 424.28 28.83 424.3 28.8 C 423.7 28.8 423.5 28.6 423.5 28 C 423.5 28 423.5 24.3 423.5 24.3 Z M 426.6 24.2 C 426.5 24.1 426.4 24 426.2 24 C 426.24 24.01 426.1 24 426.1 24 L 426.1 22.7 C 426.1 22.7 426.98 22.72 427 22.7 C 427.5 22.7 427.7 22.9 427.9 23.3 C 427.9 23.3 429 26.5 429 26.5 C 429.16 26.87 429.3 27.4 429.3 27.4 L 429.3 27.4 C 429.3 27.4 429.38 26.87 429.5 26.5 C 429.5 26.5 430.7 23.3 430.7 23.3 C 430.8 22.9 431.1 22.7 431.6 22.7 C 431.55 22.72 432.4 22.7 432.4 22.7 L 432.4 24 C 432.4 24 432.22 24.01 432.2 24 C 432.1 24 431.9 24.1 431.9 24.2 C 431.89 24.23 430.1 28.8 430.1 28.8 L 428.3 28.8 C 428.3 28.8 426.57 24.23 426.6 24.2 Z M 436.5 25 C 436.47 25 436.7 25 436.7 25 C 436.7 25 436.67 24.95 436.7 24.9 C 436.7 24.1 436.3 23.7 435.5 23.7 C 435.3 23.7 434.7 23.8 434.7 24.2 C 434.72 24.15 434.7 24.5 434.7 24.5 L 433.3 24.5 C 433.3 24.5 433.31 23.83 433.3 23.8 C 433.3 22.7 434.9 22.6 435.5 22.6 C 437.6 22.6 438.2 23.6 438.2 25 C 438.2 25 438.2 27.3 438.2 27.3 C 438.2 27.5 438.3 27.6 438.5 27.6 C 438.45 27.55 438.9 27.6 438.9 27.6 L 438.9 28.8 C 438.9 28.8 437.56 28.83 437.6 28.8 C 437 28.8 436.8 28.5 436.8 28.2 C 436.8 28 436.8 27.9 436.8 27.9 C 436.8 27.9 436.8 27.9 436.8 27.9 C 436.8 27.9 436.31 28.98 434.9 29 C 433.8 29 432.8 28.3 432.8 27.1 C 432.8 25.2 435.5 25 436.5 25 Z M 435.3 27.8 C 436.1 27.8 436.7 26.9 436.7 26.2 C 436.69 26.18 436.7 26 436.7 26 C 436.7 26 436.43 26.04 436.4 26 C 435.6 26 434.4 26.1 434.4 27 C 434.4 27.4 434.7 27.8 435.3 27.8 Z " stroke="none" fill="#5f0f50"/>  </g>  <g id="Polygon68960">    <path d="M 1.2 1.8 L 0.4 1.8 L 0.4 0.5 C 0.4 0.5 4.31 0.48 4.3 0.5 C 5.9 0.5 7 1.6 7 3.3 C 7 4.9 5.9 6.1 4.3 6.1 C 4.31 6.06 2.8 6.1 2.8 6.1 L 2.8 9 L 1.2 9 L 1.2 1.8 Z M 4 4.7 C 4.9 4.7 5.4 4.1 5.4 3.3 C 5.4 2.4 4.9 1.8 4 1.8 C 4.04 1.81 2.8 1.8 2.8 1.8 L 2.8 4.7 C 2.8 4.7 4.02 4.72 4 4.7 Z M 8.3 4.4 C 8.3 4.3 8.2 4.2 8 4.2 C 7.99 4.18 7.5 4.2 7.5 4.2 L 7.5 2.9 C 7.5 2.9 8.9 2.88 8.9 2.9 C 9.4 2.9 9.7 3.1 9.7 3.6 C 9.7 3.6 9.7 4 9.7 4 C 9.72 4.21 9.7 4.4 9.7 4.4 C 9.7 4.4 9.72 4.37 9.7 4.4 C 10 3.5 10.7 2.8 11.7 2.8 C 11.8 2.8 11.9 2.8 11.9 2.8 L 11.9 4.3 C 11.9 4.3 11.78 4.3 11.6 4.3 C 10.9 4.3 10.2 4.7 9.9 5.6 C 9.8 5.9 9.8 6.2 9.8 6.6 C 9.77 6.58 9.8 9 9.8 9 L 8.3 9 C 8.3 9 8.26 4.44 8.3 4.4 Z M 13.3 0.5 L 14.6 0.5 L 14.6 1.9 L 13.3 1.9 L 13.3 0.5 Z M 13.2 4.4 C 13.2 4.3 13.2 4.2 13 4.2 C 12.98 4.18 12.5 4.2 12.5 4.2 L 12.5 2.9 C 12.5 2.9 13.96 2.88 14 2.9 C 14.5 2.9 14.8 3.1 14.8 3.7 C 14.8 3.7 14.8 7.5 14.8 7.5 C 14.8 7.6 14.9 7.7 15 7.7 C 15.02 7.72 15.5 7.7 15.5 7.7 L 15.5 9 C 15.5 9 14.05 9 14.1 9 C 13.5 9 13.2 8.8 13.2 8.2 C 13.2 8.2 13.2 4.4 13.2 4.4 Z M 16.8 4.4 C 16.8 4.3 16.7 4.2 16.5 4.2 C 16.52 4.18 16 4.2 16 4.2 L 16 2.9 C 16 2.9 17.45 2.88 17.4 2.9 C 18 2.9 18.3 3.1 18.3 3.6 C 18.3 3.6 18.3 3.7 18.3 3.7 C 18.3 3.9 18.2 4 18.2 4 C 18.2 4 18.3 4 18.3 4 C 18.6 3.4 19.3 2.7 20.2 2.7 C 21.2 2.7 21.8 3.2 22 4 C 22 4 22.1 4 22.1 4 C 22.4 3.3 23.2 2.7 24.1 2.7 C 25.4 2.7 26.1 3.5 26.1 5.1 C 26.1 5.1 26.1 7.5 26.1 7.5 C 26.1 7.6 26.2 7.7 26.4 7.7 C 26.41 7.72 26.9 7.7 26.9 7.7 L 26.9 9 C 26.9 9 25.44 9 25.4 9 C 24.9 9 24.6 8.8 24.6 8.2 C 24.6 8.2 24.6 5.4 24.6 5.4 C 24.6 4.7 24.5 4.1 23.8 4.1 C 23 4.1 22.5 4.8 22.3 5.5 C 22.2 5.8 22.2 6 22.2 6.3 C 22.22 6.31 22.2 9 22.2 9 L 20.7 9 C 20.7 9 20.7 5.35 20.7 5.4 C 20.7 4.7 20.6 4.1 19.9 4.1 C 19.1 4.1 18.6 4.8 18.4 5.5 C 18.3 5.8 18.3 6 18.3 6.3 C 18.3 6.31 18.3 9 18.3 9 L 16.8 9 C 16.8 9 16.79 4.44 16.8 4.4 Z M 31.1 5.2 C 31.14 5.16 31.3 5.2 31.3 5.2 C 31.3 5.2 31.33 5.11 31.3 5.1 C 31.3 4.2 31 3.9 30.2 3.9 C 29.9 3.9 29.4 4 29.4 4.3 C 29.39 4.32 29.4 4.6 29.4 4.6 L 28 4.6 C 28 4.6 27.97 4 28 4 C 28 2.9 29.6 2.7 30.2 2.7 C 32.3 2.7 32.9 3.8 32.9 5.2 C 32.9 5.2 32.9 7.5 32.9 7.5 C 32.9 7.6 33 7.7 33.1 7.7 C 33.12 7.72 33.6 7.7 33.6 7.7 L 33.6 9 C 33.6 9 32.23 9 32.2 9 C 31.7 9 31.5 8.7 31.5 8.3 C 31.5 8.2 31.5 8.1 31.5 8.1 C 31.46 8.06 31.4 8.1 31.4 8.1 C 31.4 8.1 30.97 9.14 29.6 9.1 C 28.5 9.1 27.5 8.5 27.5 7.2 C 27.5 5.3 30.1 5.2 31.1 5.2 Z M 30 8 C 30.8 8 31.4 7.1 31.4 6.3 C 31.36 6.35 31.4 6.2 31.4 6.2 C 31.4 6.2 31.09 6.2 31.1 6.2 C 30.3 6.2 29 6.3 29 7.2 C 29 7.6 29.3 8 30 8 Z M 30.7 0.5 L 32.1 0.5 L 30.9 2.1 L 29.8 2.1 L 30.7 0.5 Z M 34.8 4.4 C 34.8 4.3 34.7 4.2 34.6 4.2 C 34.56 4.18 34.1 4.2 34.1 4.2 L 34.1 2.9 C 34.1 2.9 35.47 2.88 35.5 2.9 C 36 2.9 36.3 3.1 36.3 3.6 C 36.3 3.6 36.3 4 36.3 4 C 36.29 4.21 36.3 4.4 36.3 4.4 C 36.3 4.4 36.29 4.37 36.3 4.4 C 36.6 3.5 37.3 2.8 38.2 2.8 C 38.36 2.8 38.5 2.8 38.5 2.8 L 38.5 4.3 C 38.5 4.3 38.35 4.3 38.1 4.3 C 37.5 4.3 36.7 4.7 36.5 5.6 C 36.4 5.9 36.3 6.2 36.3 6.6 C 36.33 6.58 36.3 9 36.3 9 L 34.8 9 C 34.8 9 34.82 4.44 34.8 4.4 Z M 39.8 4.4 C 39.8 4.3 39.7 4.2 39.6 4.2 C 39.58 4.18 39.1 4.2 39.1 4.2 L 39.1 2.9 C 39.1 2.9 40.5 2.88 40.5 2.9 C 41 2.9 41.3 3.1 41.3 3.6 C 41.3 3.6 41.3 3.7 41.3 3.7 C 41.3 3.9 41.3 4 41.3 4 C 41.3 4 41.3 4 41.3 4 C 41.6 3.5 42.2 2.7 43.5 2.7 C 44.8 2.7 45.6 3.4 45.6 5.1 C 45.6 5.1 45.6 7.5 45.6 7.5 C 45.6 7.6 45.7 7.7 45.9 7.7 C 45.86 7.72 46.3 7.7 46.3 7.7 L 46.3 9 C 46.3 9 44.89 9 44.9 9 C 44.3 9 44.1 8.8 44.1 8.2 C 44.1 8.2 44.1 5.4 44.1 5.4 C 44.1 4.6 43.9 4.1 43.1 4.1 C 42.3 4.1 41.7 4.6 41.5 5.4 C 41.4 5.6 41.4 5.9 41.4 6.2 C 41.35 6.19 41.4 9 41.4 9 L 39.8 9 C 39.8 9 39.84 4.44 39.8 4.4 Z M 47.9 10.2 C 48.3 10.2 48.7 10 48.9 9.5 C 48.92 9.46 49.1 9 49.1 9 C 49.1 9 47.09 4.39 47.1 4.4 C 47 4.2 46.9 4.2 46.8 4.2 C 46.76 4.18 46.6 4.2 46.6 4.2 L 46.6 2.9 C 46.6 2.9 47.59 2.88 47.6 2.9 C 48 2.9 48.2 3 48.4 3.5 C 48.4 3.5 49.6 6.5 49.6 6.5 C 49.72 6.83 49.8 7.3 49.8 7.3 L 49.8 7.3 C 49.8 7.3 49.93 6.83 50 6.5 C 50 6.5 51.1 3.5 51.1 3.5 C 51.2 3 51.5 2.9 51.9 2.9 C 51.9 2.88 52.9 2.9 52.9 2.9 L 52.9 4.2 C 52.9 4.2 52.75 4.18 52.8 4.2 C 52.6 4.2 52.5 4.2 52.4 4.4 C 52.4 4.4 50.2 9.9 50.2 9.9 C 49.8 11 48.9 11.5 48 11.5 C 47.04 11.52 46.5 10.9 46.5 10.9 L 47 9.8 C 47 9.8 47.41 10.24 47.9 10.2 Z M 59.7 2.7 C 61.5 2.7 62.5 4 62.5 5.6 C 62.46 5.82 62.4 6.2 62.4 6.2 C 62.4 6.2 58.2 6.2 58.2 6.2 C 58.3 7.3 59.1 7.8 60 7.8 C 61.02 7.85 61.8 7.2 61.8 7.2 L 62.4 8.2 C 62.4 8.2 61.45 9.14 59.9 9.1 C 57.9 9.1 56.6 7.7 56.6 5.9 C 56.6 4.1 57.9 2.7 59.7 2.7 Z M 60.9 5.1 C 60.9 4.4 60.4 3.9 59.7 3.9 C 59 3.9 58.4 4.4 58.2 5.1 C 58.2 5.1 60.9 5.1 60.9 5.1 Z M 64 7.1 C 64 7.1 64.74 7.96 65.8 8 C 66.3 8 66.6 7.8 66.6 7.4 C 66.6 6.5 63.4 6.5 63.4 4.5 C 63.4 3.3 64.5 2.7 65.8 2.7 C 66.6 2.7 67.9 3 67.9 4 C 67.91 4.01 67.9 4.6 67.9 4.6 L 66.6 4.6 C 66.6 4.6 66.56 4.34 66.6 4.3 C 66.6 4.1 66.1 3.9 65.8 3.9 C 65.3 3.9 64.9 4.1 64.9 4.5 C 64.9 5.4 68.1 5.2 68.1 7.3 C 68.1 8.4 67.1 9.1 65.8 9.1 C 64.1 9.14 63.2 8.1 63.2 8.1 L 64 7.1 Z M 69.6 4.1 L 68.8 4.1 L 68.8 2.9 L 69.6 2.9 L 69.6 1.2 L 71.1 1.2 L 71.1 2.9 L 72.5 2.9 L 72.5 4.1 L 71.1 4.1 C 71.1 4.1 71.1 6.56 71.1 6.6 C 71.1 7.6 71.9 7.7 72.3 7.7 C 72.48 7.72 72.6 7.7 72.6 7.7 L 72.6 9 C 72.6 9 72.39 9.06 72.1 9.1 C 71.3 9.1 69.6 8.8 69.6 6.8 C 69.58 6.76 69.6 4.1 69.6 4.1 Z M 74 4.4 C 74 4.3 73.9 4.2 73.7 4.2 C 73.73 4.18 73.2 4.2 73.2 4.2 L 73.2 2.9 C 73.2 2.9 74.64 2.88 74.6 2.9 C 75.2 2.9 75.5 3.1 75.5 3.6 C 75.5 3.6 75.5 4 75.5 4 C 75.45 4.21 75.4 4.4 75.4 4.4 C 75.4 4.4 75.45 4.37 75.5 4.4 C 75.7 3.5 76.5 2.8 77.4 2.8 C 77.53 2.8 77.7 2.8 77.7 2.8 L 77.7 4.3 C 77.7 4.3 77.52 4.3 77.3 4.3 C 76.7 4.3 75.9 4.7 75.6 5.6 C 75.6 5.9 75.5 6.2 75.5 6.6 C 75.5 6.58 75.5 9 75.5 9 L 74 9 C 74 9 73.99 4.44 74 4.4 Z M 81.4 2.7 C 83.3 2.7 84.8 4.1 84.8 5.9 C 84.8 7.8 83.3 9.1 81.4 9.1 C 79.6 9.1 78.1 7.8 78.1 5.9 C 78.1 4.1 79.6 2.7 81.4 2.7 Z M 81.4 7.8 C 82.4 7.8 83.3 7.1 83.3 5.9 C 83.3 4.8 82.4 4 81.4 4 C 80.5 4 79.6 4.8 79.6 5.9 C 79.6 7.1 80.5 7.8 81.4 7.8 Z M 88.3 2.7 C 89.7 2.7 90.2 3.6 90.2 3.6 C 90.17 3.6 90.2 3.6 90.2 3.6 C 90.2 3.6 90.19 3.53 90.2 3.4 C 90.2 3.2 90.4 2.9 90.9 2.9 C 90.86 2.88 92.3 2.9 92.3 2.9 L 92.3 4.2 C 92.3 4.2 91.81 4.18 91.8 4.2 C 91.7 4.2 91.5 4.3 91.5 4.4 C 91.5 4.4 91.5 8.6 91.5 8.6 C 91.5 10.7 89.9 11.5 88.3 11.5 C 87.6 11.5 86.7 11.3 86.1 11 C 86.15 10.99 86.6 9.8 86.6 9.8 C 86.6 9.8 87.37 10.2 88.3 10.2 C 89.2 10.2 90 9.8 90 8.7 C 90 8.7 90 8.4 90 8.4 C 90.04 8.27 90 8.1 90 8.1 C 90 8.1 90.02 8.09 90 8.1 C 89.7 8.6 89.1 8.9 88.3 8.9 C 86.6 8.9 85.6 7.5 85.6 5.8 C 85.6 4.1 86.5 2.7 88.3 2.7 Z M 90.1 5.8 C 90.1 4.4 89.4 4 88.5 4 C 87.6 4 87.1 4.7 87.1 5.7 C 87.1 6.8 87.7 7.6 88.6 7.6 C 89.4 7.6 90.1 7.2 90.1 5.8 Z M 96 2.7 C 97.8 2.7 98.7 4 98.7 5.6 C 98.73 5.82 98.7 6.2 98.7 6.2 C 98.7 6.2 94.47 6.2 94.5 6.2 C 94.6 7.3 95.4 7.8 96.3 7.8 C 97.3 7.85 98 7.2 98 7.2 L 98.7 8.2 C 98.7 8.2 97.73 9.14 96.2 9.1 C 94.2 9.1 92.9 7.7 92.9 5.9 C 92.9 4.1 94.2 2.7 96 2.7 Z M 97.2 5.1 C 97.2 4.4 96.6 3.9 96 3.9 C 95.2 3.9 94.7 4.4 94.5 5.1 C 94.5 5.1 97.2 5.1 97.2 5.1 Z M 96.3 0.5 L 97.8 0.5 L 96.5 2.1 L 95.4 2.1 L 96.3 0.5 Z M 100.2 4.4 C 100.2 4.3 100.1 4.2 99.9 4.2 C 99.95 4.18 99.5 4.2 99.5 4.2 L 99.5 2.9 C 99.5 2.9 100.87 2.88 100.9 2.9 C 101.4 2.9 101.7 3.1 101.7 3.6 C 101.7 3.6 101.7 3.7 101.7 3.7 C 101.7 3.9 101.6 4 101.6 4 C 101.6 4 101.7 4 101.7 4 C 101.9 3.5 102.6 2.7 103.8 2.7 C 105.2 2.7 106 3.4 106 5.1 C 106 5.1 106 7.5 106 7.5 C 106 7.6 106.1 7.7 106.2 7.7 C 106.23 7.72 106.7 7.7 106.7 7.7 L 106.7 9 C 106.7 9 105.26 9 105.3 9 C 104.7 9 104.4 8.8 104.4 8.2 C 104.4 8.2 104.4 5.4 104.4 5.4 C 104.4 4.6 104.3 4.1 103.5 4.1 C 102.7 4.1 102.1 4.6 101.8 5.4 C 101.8 5.6 101.7 5.9 101.7 6.2 C 101.72 6.19 101.7 9 101.7 9 L 100.2 9 C 100.2 9 100.21 4.44 100.2 4.4 Z M 111.1 4.4 C 111.1 4.3 111 4.2 110.8 4.2 C 110.82 4.18 110.3 4.2 110.3 4.2 L 110.3 2.9 C 110.3 2.9 111.79 2.88 111.8 2.9 C 112.4 2.9 112.6 3.1 112.6 3.7 C 112.6 3.7 112.6 6.5 112.6 6.5 C 112.6 7.2 112.8 7.8 113.5 7.8 C 114.6 7.8 115.3 6.8 115.3 5.7 C 115.26 5.69 115.3 2.9 115.3 2.9 L 116.8 2.9 C 116.8 2.9 116.78 7.45 116.8 7.5 C 116.8 7.6 116.9 7.7 117 7.7 C 117.05 7.72 117.5 7.7 117.5 7.7 L 117.5 9 C 117.5 9 116.12 9 116.1 9 C 115.6 9 115.3 8.7 115.3 8.3 C 115.3 8.3 115.3 8.1 115.3 8.1 C 115.3 8 115.3 7.9 115.3 7.9 C 115.3 7.9 115.3 7.9 115.3 7.9 C 115 8.5 114.3 9.1 113.2 9.1 C 111.9 9.1 111.1 8.5 111.1 6.8 C 111.1 6.8 111.1 4.4 111.1 4.4 Z M 121.3 8.2 C 121.3 8.2 124.09 4.74 124.1 4.7 C 124.37 4.39 124.6 4.2 124.6 4.2 L 124.6 4.2 C 124.6 4.2 124.43 4.18 124 4.2 C 124 4.2 122.9 4.2 122.9 4.2 C 122.8 4.2 122.7 4.3 122.7 4.4 C 122.67 4.44 122.7 4.8 122.7 4.8 L 121.3 4.8 C 121.3 4.8 121.3 3.7 121.3 3.7 C 121.3 3.1 121.5 2.9 122.1 2.9 C 122.11 2.88 126.6 2.9 126.6 2.9 L 126.6 3.7 C 126.6 3.7 123.78 7.15 123.8 7.2 C 123.5 7.49 123.3 7.7 123.3 7.7 L 123.3 7.7 C 123.3 7.7 123.44 7.7 123.8 7.7 C 123.8 7.7 125.2 7.7 125.2 7.7 C 125.4 7.7 125.4 7.6 125.4 7.4 C 125.45 7.44 125.4 7.1 125.4 7.1 L 126.8 7.1 C 126.8 7.1 126.83 8.18 126.8 8.2 C 126.8 8.8 126.6 9 126 9 C 126.02 9 121.3 9 121.3 9 L 121.3 8.2 Z M 122.3 0.5 L 123.5 0.5 L 124.1 1.5 L 124.1 1.5 L 124.7 0.5 L 125.9 0.5 L 124.7 2.1 L 123.4 2.1 L 122.3 0.5 Z M 128.2 0.5 L 129.5 0.5 L 129.5 1.9 L 128.2 1.9 L 128.2 0.5 Z M 128.1 4.4 C 128.1 4.3 128 4.2 127.9 4.2 C 127.86 4.18 127.4 4.2 127.4 4.2 L 127.4 2.9 C 127.4 2.9 128.83 2.88 128.8 2.9 C 129.4 2.9 129.6 3.1 129.6 3.7 C 129.6 3.7 129.6 7.5 129.6 7.5 C 129.6 7.6 129.7 7.7 129.9 7.7 C 129.9 7.72 130.4 7.7 130.4 7.7 L 130.4 9 C 130.4 9 128.93 9 128.9 9 C 128.4 9 128.1 8.8 128.1 8.2 C 128.1 8.2 128.1 4.4 128.1 4.4 Z M 134.2 2.7 C 135.9 2.7 136.9 4 136.9 5.6 C 136.87 5.82 136.8 6.2 136.8 6.2 C 136.8 6.2 132.61 6.2 132.6 6.2 C 132.7 7.3 133.5 7.8 134.4 7.8 C 135.43 7.85 136.2 7.2 136.2 7.2 L 136.8 8.2 C 136.8 8.2 135.86 9.14 134.3 9.1 C 132.3 9.1 131.1 7.7 131.1 5.9 C 131.1 4.1 132.3 2.7 134.2 2.7 Z M 135.3 5.1 C 135.3 4.4 134.8 3.9 134.2 3.9 C 133.4 3.9 132.8 4.4 132.7 5.1 C 132.7 5.1 135.3 5.1 135.3 5.1 Z M 138.3 4.4 C 138.3 4.3 138.3 4.2 138.1 4.2 C 138.08 4.18 137.6 4.2 137.6 4.2 L 137.6 2.9 C 137.6 2.9 139.01 2.88 139 2.9 C 139.5 2.9 139.8 3.1 139.8 3.6 C 139.8 3.6 139.8 3.7 139.8 3.7 C 139.8 3.9 139.8 4 139.8 4 C 139.8 4 139.8 4 139.8 4 C 140.1 3.5 140.7 2.7 142 2.7 C 143.3 2.7 144.1 3.4 144.1 5.1 C 144.1 5.1 144.1 7.5 144.1 7.5 C 144.1 7.6 144.2 7.7 144.4 7.7 C 144.37 7.72 144.8 7.7 144.8 7.7 L 144.8 9 C 144.8 9 143.4 9 143.4 9 C 142.8 9 142.6 8.8 142.6 8.2 C 142.6 8.2 142.6 5.4 142.6 5.4 C 142.6 4.6 142.4 4.1 141.6 4.1 C 140.8 4.1 140.2 4.6 140 5.4 C 139.9 5.6 139.9 5.9 139.9 6.2 C 139.86 6.19 139.9 9 139.9 9 L 138.3 9 C 138.3 9 138.35 4.44 138.3 4.4 Z M 149.2 4.4 C 149.2 4.3 149.1 4.2 149 4.2 C 148.98 4.18 148.5 4.2 148.5 4.2 L 148.5 2.9 C 148.5 2.9 149.85 2.88 149.9 2.9 C 150.4 2.9 150.6 3.1 150.6 3.5 C 150.6 3.6 150.6 3.7 150.6 3.7 C 150.62 3.71 150.6 3.7 150.6 3.7 C 150.6 3.7 151.16 2.74 152.6 2.7 C 154.2 2.7 155.3 4 155.3 5.9 C 155.3 7.9 154.1 9.1 152.5 9.1 C 151.29 9.14 150.8 8.3 150.8 8.3 L 150.7 8.3 C 150.7 8.3 150.75 8.56 150.8 8.9 C 150.75 8.87 150.8 11.4 150.8 11.4 L 149.2 11.4 C 149.2 11.4 149.24 4.44 149.2 4.4 Z M 152.2 7.9 C 153.1 7.9 153.8 7.2 153.8 6 C 153.8 4.8 153.2 4 152.3 4 C 151.5 4 150.7 4.6 150.7 6 C 150.7 6.9 151.2 7.9 152.2 7.9 Z M 159.4 2.7 C 161.3 2.7 162.8 4.1 162.8 5.9 C 162.8 7.8 161.3 9.1 159.4 9.1 C 157.6 9.1 156.1 7.8 156.1 5.9 C 156.1 4.1 157.6 2.7 159.4 2.7 Z M 159.4 7.8 C 160.4 7.8 161.3 7.1 161.3 5.9 C 161.3 4.8 160.4 4 159.4 4 C 158.4 4 157.6 4.8 157.6 5.9 C 157.6 7.1 158.4 7.8 159.4 7.8 Z M 167.4 4.4 C 167.4 4.3 167.3 4.2 167.1 4.2 C 167.09 4.18 166.6 4.2 166.6 4.2 L 166.6 2.9 C 166.6 2.9 168.01 2.88 168 2.9 C 168.5 2.9 168.8 3.1 168.8 3.6 C 168.8 3.6 168.8 3.7 168.8 3.7 C 168.8 3.9 168.8 4 168.8 4 C 168.8 4 168.8 4 168.8 4 C 169.1 3.4 169.8 2.7 170.8 2.7 C 171.7 2.7 172.3 3.2 172.6 4 C 172.6 4 172.6 4 172.6 4 C 172.9 3.3 173.7 2.7 174.7 2.7 C 176 2.7 176.7 3.5 176.7 5.1 C 176.7 5.1 176.7 7.5 176.7 7.5 C 176.7 7.6 176.8 7.7 177 7.7 C 176.97 7.72 177.4 7.7 177.4 7.7 L 177.4 9 C 177.4 9 176 9 176 9 C 175.4 9 175.2 8.8 175.2 8.2 C 175.2 8.2 175.2 5.4 175.2 5.4 C 175.2 4.7 175.1 4.1 174.3 4.1 C 173.6 4.1 173 4.8 172.9 5.5 C 172.8 5.8 172.8 6 172.8 6.3 C 172.78 6.31 172.8 9 172.8 9 L 171.3 9 C 171.3 9 171.26 5.35 171.3 5.4 C 171.3 4.7 171.2 4.1 170.4 4.1 C 169.7 4.1 169.1 4.8 169 5.5 C 168.9 5.8 168.9 6 168.9 6.3 C 168.86 6.31 168.9 9 168.9 9 L 167.4 9 C 167.4 9 167.35 4.44 167.4 4.4 Z M 181.2 2.7 C 182.9 2.7 183.9 4 183.9 5.6 C 183.87 5.82 183.8 6.2 183.8 6.2 C 183.8 6.2 179.61 6.2 179.6 6.2 C 179.7 7.3 180.5 7.8 181.4 7.8 C 182.43 7.85 183.2 7.2 183.2 7.2 L 183.8 8.2 C 183.8 8.2 182.87 9.14 181.3 9.1 C 179.3 9.1 178.1 7.7 178.1 5.9 C 178.1 4.1 179.3 2.7 181.2 2.7 Z M 182.3 5.1 C 182.3 4.4 181.8 3.9 181.2 3.9 C 180.4 3.9 179.8 4.4 179.7 5.1 C 179.7 5.1 182.3 5.1 182.3 5.1 Z M 185.4 4.4 C 185.4 4.3 185.3 4.2 185.1 4.2 C 185.09 4.18 184.6 4.2 184.6 4.2 L 184.6 2.9 C 184.6 2.9 186.01 2.88 186 2.9 C 186.5 2.9 186.8 3.1 186.8 3.6 C 186.8 3.6 186.8 3.7 186.8 3.7 C 186.8 3.9 186.8 4 186.8 4 C 186.8 4 186.8 4 186.8 4 C 187.1 3.5 187.7 2.7 189 2.7 C 190.3 2.7 191.1 3.4 191.1 5.1 C 191.1 5.1 191.1 7.5 191.1 7.5 C 191.1 7.6 191.2 7.7 191.4 7.7 C 191.37 7.72 191.9 7.7 191.9 7.7 L 191.9 9 C 191.9 9 190.4 9 190.4 9 C 189.8 9 189.6 8.8 189.6 8.2 C 189.6 8.2 189.6 5.4 189.6 5.4 C 189.6 4.6 189.4 4.1 188.6 4.1 C 187.8 4.1 187.2 4.6 187 5.4 C 186.9 5.6 186.9 5.9 186.9 6.2 C 186.86 6.19 186.9 9 186.9 9 L 185.4 9 C 185.4 9 185.35 4.44 185.4 4.4 Z M 195.8 2.7 C 197.7 2.7 199.2 4.1 199.2 5.9 C 199.2 7.8 197.7 9.1 195.8 9.1 C 193.9 9.1 192.5 7.8 192.5 5.9 C 192.5 4.1 193.9 2.7 195.8 2.7 Z M 195.8 7.8 C 196.8 7.8 197.6 7.1 197.6 5.9 C 197.6 4.8 196.8 4 195.8 4 C 194.8 4 194 4.8 194 5.9 C 194 7.1 194.8 7.8 195.8 7.8 Z M 200.5 4.4 C 200.5 4.3 200.4 4.2 200.3 4.2 C 200.28 4.18 199.8 4.2 199.8 4.2 L 199.8 2.9 C 199.8 2.9 201.15 2.88 201.2 2.9 C 201.7 2.9 201.9 3.1 201.9 3.5 C 201.9 3.6 201.9 3.7 201.9 3.7 C 201.92 3.71 201.9 3.7 201.9 3.7 C 201.9 3.7 202.46 2.74 203.9 2.7 C 205.5 2.7 206.6 4 206.6 5.9 C 206.6 7.9 205.4 9.1 203.8 9.1 C 202.59 9.14 202.1 8.3 202.1 8.3 L 202 8.3 C 202 8.3 202.05 8.56 202.1 8.9 C 202.05 8.87 202.1 11.4 202.1 11.4 L 200.5 11.4 C 200.5 11.4 200.54 4.44 200.5 4.4 Z M 203.5 7.9 C 204.4 7.9 205.1 7.2 205.1 6 C 205.1 4.8 204.5 4 203.6 4 C 202.8 4 202 4.6 202 6 C 202 6.9 202.5 7.9 203.5 7.9 Z M 211 5.2 C 210.97 5.16 211.2 5.2 211.2 5.2 C 211.2 5.2 211.16 5.11 211.2 5.1 C 211.2 4.2 210.8 3.9 210 3.9 C 209.8 3.9 209.2 4 209.2 4.3 C 209.22 4.32 209.2 4.6 209.2 4.6 L 207.8 4.6 C 207.8 4.6 207.8 4 207.8 4 C 207.8 2.9 209.4 2.7 210 2.7 C 212.1 2.7 212.7 3.8 212.7 5.2 C 212.7 5.2 212.7 7.5 212.7 7.5 C 212.7 7.6 212.8 7.7 212.9 7.7 C 212.95 7.72 213.4 7.7 213.4 7.7 L 213.4 9 C 213.4 9 212.06 9 212.1 9 C 211.5 9 211.3 8.7 211.3 8.3 C 211.3 8.2 211.3 8.1 211.3 8.1 C 211.29 8.06 211.3 8.1 211.3 8.1 C 211.3 8.1 210.8 9.14 209.4 9.1 C 208.3 9.1 207.3 8.5 207.3 7.2 C 207.3 5.3 210 5.2 211 5.2 Z M 209.8 8 C 210.6 8 211.2 7.1 211.2 6.3 C 211.19 6.35 211.2 6.2 211.2 6.2 C 211.2 6.2 210.92 6.2 210.9 6.2 C 210.1 6.2 208.9 6.3 208.9 7.2 C 208.9 7.6 209.2 8 209.8 8 Z M 214.6 4.4 C 214.6 4.3 214.5 4.2 214.4 4.2 C 214.37 4.18 213.9 4.2 213.9 4.2 L 213.9 2.9 C 213.9 2.9 215.34 2.88 215.3 2.9 C 215.9 2.9 216.1 3.1 216.1 3.7 C 216.1 3.7 216.1 6.5 216.1 6.5 C 216.1 7.2 216.3 7.8 217.1 7.8 C 218.2 7.8 218.8 6.8 218.8 5.7 C 218.81 5.69 218.8 2.9 218.8 2.9 L 220.3 2.9 C 220.3 2.9 220.33 7.45 220.3 7.5 C 220.3 7.6 220.4 7.7 220.6 7.7 C 220.59 7.72 221.1 7.7 221.1 7.7 L 221.1 9 C 221.1 9 219.67 9 219.7 9 C 219.1 9 218.9 8.7 218.9 8.3 C 218.9 8.3 218.9 8.1 218.9 8.1 C 218.9 8 218.9 7.9 218.9 7.9 C 218.9 7.9 218.9 7.9 218.9 7.9 C 218.6 8.5 217.8 9.1 216.7 9.1 C 215.4 9.1 214.6 8.5 214.6 6.8 C 214.6 6.8 214.6 4.4 214.6 4.4 Z M 221.6 8.2 C 221.6 8.2 224.46 4.74 224.5 4.7 C 224.73 4.39 225 4.2 225 4.2 L 225 4.2 C 225 4.2 224.79 4.18 224.4 4.2 C 224.4 4.2 223.3 4.2 223.3 4.2 C 223.1 4.2 223 4.3 223 4.4 C 223.04 4.44 223 4.8 223 4.8 L 221.7 4.8 C 221.7 4.8 221.66 3.7 221.7 3.7 C 221.7 3.1 221.9 2.9 222.5 2.9 C 222.48 2.88 227 2.9 227 2.9 L 227 3.7 C 227 3.7 224.14 7.15 224.1 7.2 C 223.87 7.49 223.6 7.7 223.6 7.7 L 223.6 7.7 C 223.6 7.7 223.81 7.7 224.2 7.7 C 224.2 7.7 225.5 7.7 225.5 7.7 C 225.7 7.7 225.8 7.6 225.8 7.4 C 225.81 7.44 225.8 7.1 225.8 7.1 L 227.2 7.1 C 227.2 7.1 227.19 8.18 227.2 8.2 C 227.2 8.8 227 9 226.4 9 C 226.39 9 221.6 9 221.6 9 L 221.6 8.2 Z M 230.8 2.7 C 232.6 2.7 233.5 4 233.5 5.6 C 233.53 5.82 233.5 6.2 233.5 6.2 C 233.5 6.2 229.27 6.2 229.3 6.2 C 229.4 7.3 230.2 7.8 231.1 7.8 C 232.09 7.85 232.8 7.2 232.8 7.2 L 233.5 8.2 C 233.5 8.2 232.52 9.14 231 9.1 C 229 9.1 227.7 7.7 227.7 5.9 C 227.7 4.1 229 2.7 230.8 2.7 Z M 232 5.1 C 231.9 4.4 231.4 3.9 230.8 3.9 C 230 3.9 229.5 4.4 229.3 5.1 C 229.3 5.1 232 5.1 232 5.1 Z " stroke="none" fill="#5f0f50"/>  </g></svg>