<?xml version="1.0" standalone="no"?><!DOCTYPE svg PUBLIC "-//W3C//DTD SVG 1.1//EN" "http://www.w3.org/Graphics/SVG/1.1/DTD/svg11.dtd"><svg xmlns="http://www.w3.org/2000/svg" version="1.1" width="71px" height="23.4px" viewBox="0 -1 71 23.4" style="top:-1px">  <desc>Drovelis 1.1</desc>  <defs/>  <g id="Polygon81324">    <path d="M 13.5 2.9 C 15.6 2.9 16.4 4.2 16.4 6.2 C 16.4 8.1 15.7 9.5 13.5 9.5 C 13.5 9.52 11.4 9.5 11.4 9.5 L 11.4 2.9 C 11.4 2.9 13.5 2.86 13.5 2.9 Z M 12.2 8.8 C 12.2 8.8 13.47 8.81 13.5 8.8 C 15 8.8 15.6 7.9 15.6 6.2 C 15.6 4.6 15 3.6 13.5 3.6 C 13.47 3.56 12.2 3.6 12.2 3.6 L 12.2 8.8 Z M 18 4.4 L 18.8 4.4 L 18.8 5.2 C 18.8 5.2 18.8 5.19 18.8 5.2 C 18.9 4.8 19.3 4.3 20.2 4.3 C 20.3 4.3 20.4 4.3 20.5 4.3 C 20.5 4.3 20.5 5.1 20.5 5.1 C 20.4 5 20.3 5 20.1 5 C 19.2 5 18.8 5.6 18.8 6.3 C 18.76 6.28 18.8 9.5 18.8 9.5 L 18 9.5 L 18 4.4 Z M 25.8 6.6 C 25.8 6.6 25.8 7.4 25.8 7.4 C 25.8 8.8 24.9 9.6 23.7 9.6 C 22.4 9.6 21.5 8.8 21.5 7.4 C 21.5 7.4 21.5 6.6 21.5 6.6 C 21.5 5.2 22.4 4.3 23.7 4.3 C 24.9 4.3 25.8 5.1 25.8 6.6 Z M 22.3 6.6 C 22.3 6.6 22.3 7.3 22.3 7.3 C 22.3 8.3 22.8 8.9 23.7 8.9 C 24.6 8.9 25.1 8.3 25.1 7.3 C 25.1 7.3 25.1 6.6 25.1 6.6 C 25.1 5.7 24.5 5 23.7 5 C 22.8 5 22.3 5.7 22.3 6.6 Z M 26.7 4.4 L 27.6 4.4 L 28.9 8.7 L 28.9 8.7 L 30.4 4.4 L 31.2 4.4 L 29.3 9.5 L 28.5 9.5 L 26.7 4.4 Z M 32 7.4 C 32 7.4 32 6.5 32 6.5 C 32 5.2 32.9 4.3 34.1 4.3 C 35.3 4.3 36.2 5.2 36.2 6.5 C 36.21 6.55 36.2 7.2 36.2 7.2 L 32.8 7.2 C 32.8 7.2 32.81 7.44 32.8 7.4 C 32.8 8.3 33.3 8.9 34.2 8.9 C 34.8 8.9 35.2 8.6 35.3 8.3 C 35.3 8.3 36.1 8.3 36.1 8.3 C 36.1 8.8 35.4 9.6 34.2 9.6 C 32.8 9.6 32 8.7 32 7.4 Z M 35.4 6.6 C 35.4 6.6 35.44 6.48 35.4 6.5 C 35.4 5.6 34.9 5 34.1 5 C 33.3 5 32.8 5.6 32.8 6.5 C 32.81 6.48 32.8 6.6 32.8 6.6 L 35.4 6.6 Z M 37.8 2.3 L 38.5 2.3 L 38.5 9.5 L 37.8 9.5 L 37.8 2.3 Z M 40.5 4.4 L 41.2 4.4 L 41.2 9.5 L 40.5 9.5 L 40.5 4.4 Z M 40.9 2.2 C 41.2 2.2 41.4 2.5 41.4 2.8 C 41.4 3.1 41.2 3.4 40.9 3.4 C 40.5 3.4 40.3 3.1 40.3 2.8 C 40.3 2.5 40.5 2.2 40.9 2.2 Z M 44.8 4.3 C 45.9 4.3 46.6 4.9 46.6 5.7 C 46.6 5.7 45.9 5.7 45.9 5.7 C 45.8 5.4 45.5 5 44.7 5 C 44.1 5 43.7 5.2 43.7 5.8 C 43.7 6.4 44.3 6.5 44.9 6.6 C 45.9 6.8 46.7 7 46.7 8 C 46.7 9 45.9 9.6 44.7 9.6 C 43.6 9.6 42.8 9.1 42.8 8.2 C 42.8 8.2 43.6 8.2 43.6 8.2 C 43.7 8.7 44 9 44.7 9 C 45.6 9 46 8.6 46 8.1 C 46 7.5 45.4 7.4 44.7 7.3 C 43.7 7.1 42.9 6.9 42.9 5.9 C 42.9 4.8 43.8 4.3 44.8 4.3 Z M 52 9.5 L 52 3.7 L 51.9 3.7 L 50.4 4.9 L 50.4 4 L 52 2.9 L 52.7 2.9 L 52.7 9.5 L 52 9.5 Z M 55.2 8.3 C 55.6 8.3 55.9 8.6 55.9 9 C 55.9 9.3 55.6 9.6 55.2 9.6 C 54.9 9.6 54.6 9.3 54.6 9 C 54.6 8.6 54.9 8.3 55.2 8.3 Z M 58.3 9.5 L 58.3 3.7 L 58.3 3.7 L 56.7 4.9 L 56.7 4 L 58.3 2.9 L 59.1 2.9 L 59.1 9.5 L 58.3 9.5 Z " stroke="none" fill="#000"/>  </g></svg>