<?xml version="1.0" standalone="no"?><!DOCTYPE svg PUBLIC "-//W3C//DTD SVG 1.1//EN" "http://www.w3.org/Graphics/SVG/1.1/DTD/svg11.dtd"><svg xmlns="http://www.w3.org/2000/svg" version="1.1" width="198.4px" height="29px" viewBox="0 0 198.4 29">  <desc>C tite sa smutn i zle naladen</desc>  <defs/>  <g id="Polygon72141">    <path d="M 14.7 8.6 C 15.9 8.6 17.9 9.1 17.9 10.5 C 17.92 10.48 17.9 11.3 17.9 11.3 L 16.8 11.3 C 16.8 11.3 16.82 10.82 16.8 10.8 C 16.8 10.1 15.6 9.8 14.8 9.8 C 13.1 9.8 11.7 11 11.7 12.9 C 11.7 14.8 13.1 16.3 14.8 16.3 C 16.48 16.27 17.5 15.1 17.5 15.1 L 18.1 16 C 18.1 16 16.93 17.4 14.8 17.4 C 12.3 17.4 10.5 15.4 10.5 12.9 C 10.5 10.5 12.3 8.6 14.7 8.6 Z M 19.6 12.4 C 19.6 12.3 19.5 12.2 19.3 12.2 C 19.32 12.18 18.8 12.2 18.8 12.2 L 18.8 11.2 C 18.8 11.2 19.98 11.18 20 11.2 C 20.5 11.2 20.7 11.4 20.7 12 C 20.7 12 20.7 16 20.7 16 C 20.7 16.2 20.8 16.3 21 16.3 C 21.01 16.26 21.5 16.3 21.5 16.3 L 21.5 17.3 C 21.5 17.3 20.36 17.26 20.4 17.3 C 19.8 17.3 19.6 17 19.6 16.5 C 19.6 16.5 19.6 12.4 19.6 12.4 Z M 20.5 8.8 L 21.7 8.8 L 20.5 10.3 L 19.6 10.3 L 20.5 8.8 Z M 22.9 12.1 L 22.1 12.1 L 22.1 11.2 L 22.9 11.2 L 22.9 9.5 L 24.1 9.5 L 24.1 11.2 L 25.5 11.2 L 25.5 12.1 L 24.1 12.1 C 24.1 12.1 24.05 14.9 24.1 14.9 C 24.1 16.1 24.9 16.3 25.3 16.3 C 25.51 16.27 25.6 16.2 25.6 16.2 L 25.6 17.3 C 25.6 17.3 25.46 17.3 25.2 17.3 C 24.4 17.3 22.9 17.1 22.9 15 C 22.89 15.04 22.9 12.1 22.9 12.1 Z M 27.2 8.8 L 28.2 8.8 L 28.2 10 L 27.2 10 L 27.2 8.8 Z M 27.1 12.4 C 27.1 12.3 27 12.2 26.9 12.2 C 26.86 12.18 26.4 12.2 26.4 12.2 L 26.4 11.2 C 26.4 11.2 27.51 11.18 27.5 11.2 C 28.1 11.2 28.3 11.4 28.3 12 C 28.3 12 28.3 16 28.3 16 C 28.3 16.2 28.4 16.3 28.5 16.3 C 28.54 16.26 29 16.3 29 16.3 L 29 17.3 C 29 17.3 27.89 17.26 27.9 17.3 C 27.4 17.3 27.1 17 27.1 16.5 C 27.1 16.5 27.1 12.4 27.1 12.4 Z M 30.4 12.1 L 29.6 12.1 L 29.6 11.2 L 30.4 11.2 L 30.4 9.5 L 31.6 9.5 L 31.6 11.2 L 33 11.2 L 33 12.1 L 31.6 12.1 C 31.6 12.1 31.58 14.9 31.6 14.9 C 31.6 16.1 32.4 16.3 32.9 16.3 C 33.03 16.27 33.1 16.2 33.1 16.2 L 33.1 17.3 C 33.1 17.3 32.98 17.3 32.7 17.3 C 32 17.3 30.4 17.1 30.4 15 C 30.42 15.04 30.4 12.1 30.4 12.1 Z M 36.9 11 C 38.6 11 39.6 12.3 39.6 13.9 C 39.56 14.04 39.5 14.4 39.5 14.4 C 39.5 14.4 35.09 14.36 35.1 14.4 C 35.2 15.7 36.1 16.4 37.2 16.4 C 38.23 16.39 39 15.7 39 15.7 L 39.5 16.5 C 39.5 16.5 38.56 17.4 37.1 17.4 C 35.2 17.4 33.9 16 33.9 14.2 C 33.9 12.3 35.2 11 36.9 11 Z M 38.4 13.5 C 38.3 12.5 37.7 12 36.9 12 C 36 12 35.3 12.5 35.1 13.5 C 35.1 13.5 38.4 13.5 38.4 13.5 Z M 44.2 15.6 C 44.2 15.6 44.96 16.45 46.1 16.5 C 46.6 16.5 47.1 16.2 47.1 15.7 C 47.1 14.6 43.8 14.7 43.8 12.7 C 43.8 11.6 44.8 11 46.1 11 C 46.8 11 48.1 11.3 48.1 12.2 C 48.07 12.22 48.1 12.8 48.1 12.8 L 47 12.8 C 47 12.8 47.02 12.49 47 12.5 C 47 12.1 46.5 12 46.1 12 C 45.4 12 45 12.2 45 12.7 C 45 13.8 48.3 13.6 48.3 15.6 C 48.3 16.7 47.3 17.4 46.1 17.4 C 44.44 17.4 43.6 16.3 43.6 16.3 L 44.2 15.6 Z M 52.9 13.5 C 52.87 13.48 53.1 13.5 53.1 13.5 C 53.1 13.5 53.13 13.42 53.1 13.4 C 53.1 12.3 52.7 12 51.8 12 C 51.5 12 50.8 12 50.8 12.4 C 50.79 12.43 50.8 12.8 50.8 12.8 L 49.7 12.8 C 49.7 12.8 49.7 12.18 49.7 12.2 C 49.7 11.2 51.2 11 51.8 11 C 53.8 11 54.3 12.1 54.3 13.4 C 54.3 13.4 54.3 16 54.3 16 C 54.3 16.2 54.4 16.3 54.6 16.3 C 54.56 16.26 55.1 16.3 55.1 16.3 L 55.1 17.3 C 55.1 17.3 53.96 17.26 54 17.3 C 53.4 17.3 53.2 17 53.2 16.6 C 53.2 16.4 53.2 16.2 53.2 16.2 C 53.23 16.2 53.2 16.2 53.2 16.2 C 53.2 16.2 52.72 17.4 51.3 17.4 C 50.2 17.4 49.2 16.8 49.2 15.6 C 49.2 13.6 51.8 13.5 52.9 13.5 Z M 51.5 16.5 C 52.5 16.5 53.1 15.4 53.1 14.5 C 53.14 14.53 53.1 14.3 53.1 14.3 C 53.1 14.3 52.84 14.33 52.8 14.3 C 52 14.3 50.4 14.4 50.4 15.5 C 50.4 16 50.8 16.5 51.5 16.5 Z M 59.4 15.6 C 59.4 15.6 60.16 16.45 61.3 16.5 C 61.8 16.5 62.3 16.2 62.3 15.7 C 62.3 14.6 59 14.7 59 12.7 C 59 11.6 60 11 61.3 11 C 62 11 63.3 11.3 63.3 12.2 C 63.27 12.22 63.3 12.8 63.3 12.8 L 62.2 12.8 C 62.2 12.8 62.23 12.49 62.2 12.5 C 62.2 12.1 61.7 12 61.3 12 C 60.6 12 60.2 12.2 60.2 12.7 C 60.2 13.8 63.5 13.6 63.5 15.6 C 63.5 16.7 62.5 17.4 61.3 17.4 C 59.65 17.4 58.8 16.3 58.8 16.3 L 59.4 15.6 Z M 65 12.4 C 65 12.3 64.9 12.2 64.7 12.2 C 64.72 12.18 64.2 12.2 64.2 12.2 L 64.2 11.2 C 64.2 11.2 65.35 11.18 65.3 11.2 C 65.9 11.2 66.1 11.4 66.1 11.9 C 66.1 11.9 66.1 12.1 66.1 12.1 C 66.11 12.28 66.1 12.4 66.1 12.4 C 66.1 12.4 66.13 12.43 66.1 12.4 C 66.4 11.7 67.3 11 68.2 11 C 69.2 11 69.8 11.5 70 12.4 C 70 12.4 70.1 12.4 70.1 12.4 C 70.4 11.7 71.2 11 72.2 11 C 73.6 11 74.2 11.8 74.2 13.4 C 74.2 13.4 74.2 16 74.2 16 C 74.2 16.2 74.3 16.3 74.5 16.3 C 74.48 16.26 75 16.3 75 16.3 L 75 17.3 C 75 17.3 73.82 17.26 73.8 17.3 C 73.3 17.3 73.1 17 73.1 16.5 C 73.1 16.5 73.1 13.6 73.1 13.6 C 73.1 12.8 72.9 12.1 72 12.1 C 71.1 12.1 70.5 12.8 70.3 13.7 C 70.2 13.9 70.2 14.2 70.2 14.5 C 70.18 14.48 70.2 17.3 70.2 17.3 L 69 17.3 C 69 17.3 69.02 13.62 69 13.6 C 69 12.8 68.9 12.1 68 12.1 C 67.1 12.1 66.5 12.8 66.2 13.7 C 66.2 13.9 66.1 14.2 66.1 14.5 C 66.15 14.48 66.1 17.3 66.1 17.3 L 65 17.3 C 65 17.3 64.99 12.44 65 12.4 Z M 76.2 12.4 C 76.2 12.3 76.1 12.2 75.9 12.2 C 75.94 12.18 75.5 12.2 75.5 12.2 L 75.5 11.2 C 75.5 11.2 76.59 11.18 76.6 11.2 C 77.1 11.2 77.4 11.4 77.4 11.9 C 77.4 11.9 77.4 14.8 77.4 14.8 C 77.4 15.6 77.5 16.3 78.5 16.3 C 79.7 16.3 80.5 15.2 80.5 14 C 80.48 14.03 80.5 11.2 80.5 11.2 L 81.6 11.2 C 81.6 11.2 81.64 16 81.6 16 C 81.6 16.2 81.7 16.3 81.9 16.3 C 81.91 16.26 82.4 16.3 82.4 16.3 L 82.4 17.3 C 82.4 17.3 81.28 17.26 81.3 17.3 C 80.8 17.3 80.5 17 80.5 16.6 C 80.5 16.6 80.5 16.4 80.5 16.4 C 80.5 16.2 80.5 16 80.5 16 C 80.5 16 80.5 16 80.5 16 C 80.3 16.6 79.5 17.4 78.3 17.4 C 76.9 17.4 76.2 16.7 76.2 15.1 C 76.2 15.1 76.2 12.4 76.2 12.4 Z M 83.7 12.1 L 82.9 12.1 L 82.9 11.2 L 83.8 11.2 L 83.8 9.5 L 84.9 9.5 L 84.9 11.2 L 86.3 11.2 L 86.3 12.1 L 84.9 12.1 C 84.9 12.1 84.89 14.9 84.9 14.9 C 84.9 16.1 85.7 16.3 86.2 16.3 C 86.35 16.27 86.5 16.2 86.5 16.2 L 86.5 17.3 C 86.5 17.3 86.3 17.3 86 17.3 C 85.3 17.3 83.7 17.1 83.7 15 C 83.73 15.04 83.7 12.1 83.7 12.1 Z M 87.9 12.4 C 87.9 12.3 87.8 12.2 87.6 12.2 C 87.64 12.18 87.2 12.2 87.2 12.2 L 87.2 11.2 C 87.2 11.2 88.27 11.18 88.3 11.2 C 88.8 11.2 89 11.4 89 11.9 C 89 11.9 89 12.1 89 12.1 C 89.03 12.28 89 12.4 89 12.4 C 89 12.4 89.03 12.43 89 12.4 C 89.3 11.9 90 11 91.3 11 C 92.8 11 93.4 11.8 93.4 13.4 C 93.4 13.4 93.4 16 93.4 16 C 93.4 16.2 93.5 16.3 93.7 16.3 C 93.67 16.26 94.2 16.3 94.2 16.3 L 94.2 17.3 C 94.2 17.3 93.01 17.26 93 17.3 C 92.5 17.3 92.2 17 92.2 16.5 C 92.2 16.5 92.2 13.6 92.2 13.6 C 92.2 12.8 92.1 12.1 91.1 12.1 C 90.2 12.1 89.4 12.7 89.2 13.6 C 89.1 13.8 89.1 14.1 89.1 14.4 C 89.07 14.41 89.1 17.3 89.1 17.3 L 87.9 17.3 C 87.9 17.3 87.91 12.44 87.9 12.4 Z M 98.5 13.5 C 98.5 13.48 98.8 13.5 98.8 13.5 C 98.8 13.5 98.77 13.42 98.8 13.4 C 98.8 12.3 98.4 12 97.4 12 C 97.1 12 96.4 12 96.4 12.4 C 96.43 12.43 96.4 12.8 96.4 12.8 L 95.3 12.8 C 95.3 12.8 95.33 12.18 95.3 12.2 C 95.3 11.2 96.8 11 97.4 11 C 99.4 11 99.9 12.1 99.9 13.4 C 99.9 13.4 99.9 16 99.9 16 C 99.9 16.2 100 16.3 100.2 16.3 C 100.19 16.26 100.7 16.3 100.7 16.3 L 100.7 17.3 C 100.7 17.3 99.59 17.26 99.6 17.3 C 99.1 17.3 98.8 17 98.8 16.6 C 98.8 16.4 98.9 16.2 98.9 16.2 C 98.86 16.2 98.8 16.2 98.8 16.2 C 98.8 16.2 98.36 17.4 96.9 17.4 C 95.9 17.4 94.8 16.8 94.8 15.6 C 94.8 13.6 97.5 13.5 98.5 13.5 Z M 97.2 16.5 C 98.1 16.5 98.8 15.4 98.8 14.5 C 98.78 14.53 98.8 14.3 98.8 14.3 C 98.8 14.3 98.48 14.33 98.5 14.3 C 97.6 14.3 96 14.4 96 15.5 C 96 16 96.4 16.5 97.2 16.5 Z M 98 8.8 L 99.2 8.8 L 98 10.3 L 97.1 10.3 L 98 8.8 Z M 107.9 11 C 108.6 11 110 11.3 110 12.4 C 110.03 12.37 110 13 110 13 L 109 13 C 109 13 108.98 12.66 109 12.7 C 109 12.2 108.3 12 107.9 12 C 106.7 12 105.8 12.9 105.8 14.2 C 105.8 15.6 106.8 16.4 107.9 16.4 C 109.05 16.37 109.8 15.5 109.8 15.5 L 110.3 16.4 C 110.3 16.4 109.43 17.4 107.8 17.4 C 105.9 17.4 104.6 16 104.6 14.2 C 104.6 12.4 105.9 11 107.9 11 Z M 106.1 8.8 L 107 8.8 L 107.6 9.8 L 107.7 9.8 L 108.3 8.8 L 109.2 8.8 L 108.2 10.3 L 107.1 10.3 L 106.1 8.8 Z M 111.7 8.8 L 112.7 8.8 L 112.7 10 L 111.7 10 L 111.7 8.8 Z M 111.6 12.4 C 111.6 12.3 111.5 12.2 111.4 12.2 C 111.37 12.18 110.9 12.2 110.9 12.2 L 110.9 11.2 C 110.9 11.2 112.01 11.18 112 11.2 C 112.6 11.2 112.8 11.4 112.8 12 C 112.8 12 112.8 16 112.8 16 C 112.8 16.2 112.9 16.3 113 16.3 C 113.05 16.26 113.5 16.3 113.5 16.3 L 113.5 17.3 C 113.5 17.3 112.4 17.26 112.4 17.3 C 111.9 17.3 111.6 17 111.6 16.5 C 111.6 16.5 111.6 12.4 111.6 12.4 Z M 117.5 16.6 C 117.5 16.6 120.58 12.74 120.6 12.7 C 120.85 12.42 121.1 12.2 121.1 12.2 L 121.1 12.2 C 121.1 12.2 120.89 12.18 120.5 12.2 C 120.5 12.2 118.8 12.2 118.8 12.2 C 118.7 12.2 118.6 12.3 118.6 12.4 C 118.58 12.44 118.6 12.9 118.6 12.9 L 117.5 12.9 C 117.5 12.9 117.51 11.95 117.5 12 C 117.5 11.4 117.7 11.2 118.3 11.2 C 118.28 11.18 122.6 11.2 122.6 11.2 L 122.6 11.9 C 122.6 11.9 119.5 15.71 119.5 15.7 C 119.25 16.01 119 16.3 119 16.3 L 119 16.3 C 119 16.3 119.19 16.26 119.6 16.3 C 119.6 16.3 121.5 16.3 121.5 16.3 C 121.7 16.3 121.8 16.2 121.8 16 C 121.79 16 121.8 15.6 121.8 15.6 L 122.8 15.6 C 122.8 15.6 122.85 16.49 122.8 16.5 C 122.8 17 122.6 17.3 122.1 17.3 C 122.08 17.26 117.5 17.3 117.5 17.3 L 117.5 16.6 Z M 124.1 10 C 124.1 9.9 124 9.8 123.9 9.8 C 123.87 9.78 123.4 9.8 123.4 9.8 L 123.4 8.8 C 123.4 8.8 124.53 8.78 124.5 8.8 C 125.1 8.8 125.3 9 125.3 9.6 C 125.3 9.6 125.3 16 125.3 16 C 125.3 16.2 125.4 16.3 125.6 16.3 C 125.56 16.26 126.1 16.3 126.1 16.3 L 126.1 17.3 C 126.1 17.3 124.9 17.26 124.9 17.3 C 124.4 17.3 124.1 17 124.1 16.5 C 124.1 16.5 124.1 10 124.1 10 Z M 129.8 11 C 131.5 11 132.4 12.3 132.4 13.9 C 132.45 14.04 132.4 14.4 132.4 14.4 C 132.4 14.4 127.98 14.36 128 14.4 C 128.1 15.7 129 16.4 130.1 16.4 C 131.12 16.39 131.8 15.7 131.8 15.7 L 132.4 16.5 C 132.4 16.5 131.45 17.4 130 17.4 C 128.1 17.4 126.8 16 126.8 14.2 C 126.8 12.3 128.1 11 129.8 11 Z M 131.3 13.5 C 131.2 12.5 130.6 12 129.8 12 C 128.9 12 128.2 12.5 128 13.5 C 128 13.5 131.3 13.5 131.3 13.5 Z M 137.2 12.4 C 137.2 12.3 137.1 12.2 137 12.2 C 136.96 12.18 136.5 12.2 136.5 12.2 L 136.5 11.2 C 136.5 11.2 137.59 11.18 137.6 11.2 C 138.1 11.2 138.4 11.4 138.4 11.9 C 138.4 11.9 138.4 12.1 138.4 12.1 C 138.35 12.28 138.3 12.4 138.3 12.4 C 138.3 12.4 138.35 12.43 138.4 12.4 C 138.6 11.9 139.3 11 140.6 11 C 142.1 11 142.7 11.8 142.7 13.4 C 142.7 13.4 142.7 16 142.7 16 C 142.7 16.2 142.8 16.3 143 16.3 C 142.98 16.26 143.5 16.3 143.5 16.3 L 143.5 17.3 C 143.5 17.3 142.33 17.26 142.3 17.3 C 141.8 17.3 141.6 17 141.6 16.5 C 141.6 16.5 141.6 13.6 141.6 13.6 C 141.6 12.8 141.4 12.1 140.4 12.1 C 139.5 12.1 138.7 12.7 138.5 13.6 C 138.4 13.8 138.4 14.1 138.4 14.4 C 138.39 14.41 138.4 17.3 138.4 17.3 L 137.2 17.3 C 137.2 17.3 137.23 12.44 137.2 12.4 Z M 147.8 13.5 C 147.82 13.48 148.1 13.5 148.1 13.5 C 148.1 13.5 148.09 13.42 148.1 13.4 C 148.1 12.3 147.7 12 146.7 12 C 146.5 12 145.7 12 145.7 12.4 C 145.74 12.43 145.7 12.8 145.7 12.8 L 144.7 12.8 C 144.7 12.8 144.65 12.18 144.7 12.2 C 144.7 11.2 146.2 11 146.8 11 C 148.7 11 149.2 12.1 149.2 13.4 C 149.2 13.4 149.2 16 149.2 16 C 149.2 16.2 149.3 16.3 149.5 16.3 C 149.51 16.26 150 16.3 150 16.3 L 150 17.3 C 150 17.3 148.91 17.26 148.9 17.3 C 148.4 17.3 148.2 17 148.2 16.6 C 148.2 16.4 148.2 16.2 148.2 16.2 C 148.18 16.2 148.2 16.2 148.2 16.2 C 148.2 16.2 147.68 17.4 146.2 17.4 C 145.2 17.4 144.2 16.8 144.2 15.6 C 144.2 13.6 146.8 13.5 147.8 13.5 Z M 146.5 16.5 C 147.5 16.5 148.1 15.4 148.1 14.5 C 148.1 14.53 148.1 14.3 148.1 14.3 C 148.1 14.3 147.8 14.33 147.8 14.3 C 146.9 14.3 145.3 14.4 145.3 15.5 C 145.3 16 145.7 16.5 146.5 16.5 Z M 151.2 10 C 151.2 9.9 151.1 9.8 151 9.8 C 150.98 9.78 150.5 9.8 150.5 9.8 L 150.5 8.8 C 150.5 8.8 151.64 8.78 151.6 8.8 C 152.2 8.8 152.4 9 152.4 9.6 C 152.4 9.6 152.4 16 152.4 16 C 152.4 16.2 152.5 16.3 152.7 16.3 C 152.67 16.26 153.2 16.3 153.2 16.3 L 153.2 17.3 C 153.2 17.3 152.01 17.26 152 17.3 C 151.5 17.3 151.2 17 151.2 16.5 C 151.2 16.5 151.2 10 151.2 10 Z M 157.6 13.5 C 157.57 13.48 157.8 13.5 157.8 13.5 C 157.8 13.5 157.83 13.42 157.8 13.4 C 157.8 12.3 157.4 12 156.5 12 C 156.2 12 155.5 12 155.5 12.4 C 155.49 12.43 155.5 12.8 155.5 12.8 L 154.4 12.8 C 154.4 12.8 154.4 12.18 154.4 12.2 C 154.4 11.2 155.9 11 156.5 11 C 158.5 11 159 12.1 159 13.4 C 159 13.4 159 16 159 16 C 159 16.2 159.1 16.3 159.3 16.3 C 159.26 16.26 159.7 16.3 159.7 16.3 L 159.7 17.3 C 159.7 17.3 158.66 17.26 158.7 17.3 C 158.1 17.3 157.9 17 157.9 16.6 C 157.9 16.4 157.9 16.2 157.9 16.2 C 157.93 16.2 157.9 16.2 157.9 16.2 C 157.9 16.2 157.42 17.4 156 17.4 C 154.9 17.4 153.9 16.8 153.9 15.6 C 153.9 13.6 156.5 13.5 157.6 13.5 Z M 156.2 16.5 C 157.2 16.5 157.8 15.4 157.8 14.5 C 157.84 14.53 157.8 14.3 157.8 14.3 C 157.8 14.3 157.54 14.33 157.5 14.3 C 156.7 14.3 155.1 14.4 155.1 15.5 C 155.1 16 155.5 16.5 156.2 16.5 Z M 163.2 11 C 164.59 11.04 165.1 12 165.1 12 L 165.1 12 C 165.1 12 165.05 11.8 165.1 11.6 C 165.1 11.6 165.1 10 165.1 10 C 165.1 9.9 165 9.8 164.8 9.8 C 164.79 9.78 164.3 9.8 164.3 9.8 L 164.3 8.8 C 164.3 8.8 165.45 8.78 165.4 8.8 C 166 8.8 166.2 9 166.2 9.6 C 166.2 9.6 166.2 16 166.2 16 C 166.2 16.2 166.3 16.3 166.5 16.3 C 166.48 16.26 167 16.3 167 16.3 L 167 17.3 C 167 17.3 165.86 17.26 165.9 17.3 C 165.3 17.3 165.1 17 165.1 16.6 C 165.1 16.4 165.1 16.3 165.1 16.3 C 165.13 16.3 165.1 16.3 165.1 16.3 C 165.1 16.3 164.6 17.4 163.1 17.4 C 161.5 17.4 160.4 16.1 160.4 14.2 C 160.4 12.3 161.6 11 163.2 11 Z M 165.1 14.2 C 165.1 13.1 164.5 12 163.4 12 C 162.4 12 161.6 12.8 161.6 14.2 C 161.6 15.5 162.3 16.4 163.3 16.4 C 164.2 16.4 165.1 15.8 165.1 14.2 Z M 170.7 11 C 172.4 11 173.3 12.3 173.3 13.9 C 173.34 14.04 173.3 14.4 173.3 14.4 C 173.3 14.4 168.88 14.36 168.9 14.4 C 169 15.7 169.9 16.4 171 16.4 C 172.01 16.39 172.7 15.7 172.7 15.7 L 173.2 16.5 C 173.2 16.5 172.35 17.4 170.9 17.4 C 169 17.4 167.7 16 167.7 14.2 C 167.7 12.3 169 11 170.7 11 Z M 172.1 13.5 C 172.1 12.5 171.5 12 170.7 12 C 169.8 12 169.1 12.5 168.9 13.5 C 168.9 13.5 172.1 13.5 172.1 13.5 Z M 174.9 12.4 C 174.9 12.3 174.8 12.2 174.6 12.2 C 174.63 12.18 174.1 12.2 174.1 12.2 L 174.1 11.2 C 174.1 11.2 175.25 11.18 175.3 11.2 C 175.8 11.2 176 11.4 176 11.9 C 176 11.9 176 12.1 176 12.1 C 176.02 12.28 176 12.4 176 12.4 C 176 12.4 176.02 12.43 176 12.4 C 176.3 11.9 177 11 178.3 11 C 179.7 11 180.4 11.8 180.4 13.4 C 180.4 13.4 180.4 16 180.4 16 C 180.4 16.2 180.5 16.3 180.7 16.3 C 180.65 16.26 181.1 16.3 181.1 16.3 L 181.1 17.3 C 181.1 17.3 179.99 17.26 180 17.3 C 179.5 17.3 179.2 17 179.2 16.5 C 179.2 16.5 179.2 13.6 179.2 13.6 C 179.2 12.8 179.1 12.1 178.1 12.1 C 177.1 12.1 176.4 12.7 176.2 13.6 C 176.1 13.8 176.1 14.1 176.1 14.4 C 176.06 14.41 176.1 17.3 176.1 17.3 L 174.9 17.3 C 174.9 17.3 174.89 12.44 174.9 12.4 Z M 185.5 13.5 C 185.49 13.48 185.8 13.5 185.8 13.5 C 185.8 13.5 185.75 13.42 185.8 13.4 C 185.8 12.3 185.4 12 184.4 12 C 184.1 12 183.4 12 183.4 12.4 C 183.41 12.43 183.4 12.8 183.4 12.8 L 182.3 12.8 C 182.3 12.8 182.32 12.18 182.3 12.2 C 182.3 11.2 183.8 11 184.4 11 C 186.4 11 186.9 12.1 186.9 13.4 C 186.9 13.4 186.9 16 186.9 16 C 186.9 16.2 187 16.3 187.2 16.3 C 187.18 16.26 187.7 16.3 187.7 16.3 L 187.7 17.3 C 187.7 17.3 186.58 17.26 186.6 17.3 C 186 17.3 185.8 17 185.8 16.6 C 185.8 16.4 185.8 16.2 185.8 16.2 C 185.85 16.2 185.8 16.2 185.8 16.2 C 185.8 16.2 185.35 17.4 183.9 17.4 C 182.8 17.4 181.8 16.8 181.8 15.6 C 181.8 13.6 184.5 13.5 185.5 13.5 Z M 184.1 16.5 C 185.1 16.5 185.8 15.4 185.8 14.5 C 185.77 14.53 185.8 14.3 185.8 14.3 C 185.8 14.3 185.47 14.33 185.5 14.3 C 184.6 14.3 183 14.4 183 15.5 C 183 16 183.4 16.5 184.1 16.5 Z M 185 8.8 L 186.1 8.8 L 185 10.3 L 184.1 10.3 L 185 8.8 Z " stroke="none" fill="#000"/>  </g></svg>