<?xml version="1.0" standalone="no"?><!DOCTYPE svg PUBLIC "-//W3C//DTD SVG 1.1//EN" "http://www.w3.org/Graphics/SVG/1.1/DTD/svg11.dtd"><svg xmlns="http://www.w3.org/2000/svg" version="1.1" width="464px" height="22.5px" viewBox="0 -3 464 22.5" style="top:-3px">  <desc>Zmeny plazmatick ch hlad n tukov po iestich mesiacoch u vania</desc>  <defs/>  <g id="Polygon74726">    <path d="M 8.6 9.3 C 8.6 9.3 13.06 3.01 13.1 3 C 13.47 2.45 13.8 2.1 13.8 2.1 L 13.8 2.1 C 13.8 2.1 13.53 2.11 13.1 2.1 C 13.1 2.1 10.7 2.1 10.7 2.1 C 10.5 2.1 10.3 2.2 10.3 2.4 C 10.35 2.42 10.3 3 10.3 3 L 8.7 3 C 8.7 3 8.68 1.51 8.7 1.5 C 8.7 0.9 9 0.6 9.6 0.6 C 9.63 0.56 16.1 0.6 16.1 0.6 L 16.1 1.7 C 16.1 1.7 11.62 8.05 11.6 8.1 C 11.21 8.62 10.9 8.9 10.9 8.9 L 10.9 9 C 10.9 9 11.16 8.95 11.6 8.9 C 11.6 8.9 14.3 8.9 14.3 8.9 C 14.5 8.9 14.6 8.8 14.6 8.6 C 14.65 8.64 14.6 8 14.6 8 L 16.3 8 C 16.3 8 16.3 9.55 16.3 9.5 C 16.3 10.2 16 10.5 15.3 10.5 C 15.35 10.5 8.6 10.5 8.6 10.5 L 8.6 9.3 Z M 17.8 5.2 C 17.8 5 17.6 4.9 17.4 4.9 C 17.45 4.87 16.9 4.9 16.9 4.9 L 16.9 3.4 C 16.9 3.4 18.52 3.36 18.5 3.4 C 19.2 3.4 19.5 3.7 19.5 4.2 C 19.5 4.2 19.5 4.4 19.5 4.4 C 19.5 4.5 19.4 4.7 19.4 4.7 C 19.4 4.7 19.5 4.7 19.5 4.7 C 19.8 4 20.7 3.2 21.8 3.2 C 22.9 3.2 23.6 3.7 23.9 4.7 C 23.9 4.7 23.9 4.7 23.9 4.7 C 24.3 3.9 25.2 3.2 26.3 3.2 C 27.8 3.2 28.7 4 28.7 5.9 C 28.7 5.9 28.7 8.7 28.7 8.7 C 28.7 8.9 28.8 9 29 9 C 28.98 9 29.5 9 29.5 9 L 29.5 10.5 C 29.5 10.5 27.85 10.5 27.8 10.5 C 27.2 10.5 26.9 10.2 26.9 9.5 C 26.9 9.5 26.9 6.2 26.9 6.2 C 26.9 5.4 26.7 4.8 25.9 4.8 C 25 4.8 24.4 5.6 24.2 6.5 C 24.1 6.7 24.1 7 24.1 7.4 C 24.09 7.36 24.1 10.5 24.1 10.5 L 22.3 10.5 C 22.3 10.5 22.32 6.24 22.3 6.2 C 22.3 5.5 22.2 4.8 21.4 4.8 C 20.5 4.8 19.9 5.6 19.6 6.5 C 19.6 6.7 19.5 7 19.5 7.4 C 19.52 7.36 19.5 10.5 19.5 10.5 L 17.8 10.5 C 17.8 10.5 17.75 5.18 17.8 5.2 Z M 33.9 3.2 C 35.9 3.2 37 4.7 37 6.6 C 37.03 6.79 37 7.2 37 7.2 C 37 7.2 32.06 7.24 32.1 7.2 C 32.2 8.5 33.1 9.2 34.2 9.2 C 35.35 9.16 36.2 8.4 36.2 8.4 L 36.9 9.6 C 36.9 9.6 35.86 10.67 34.1 10.7 C 31.7 10.7 30.2 9 30.2 6.9 C 30.2 4.7 31.7 3.2 33.9 3.2 Z M 35.2 6 C 35.2 5.2 34.6 4.6 33.9 4.6 C 33 4.6 32.3 5.1 32.1 6 C 32.1 6 35.2 6 35.2 6 Z M 38.8 5.2 C 38.8 5 38.6 4.9 38.4 4.9 C 38.45 4.87 37.9 4.9 37.9 4.9 L 37.9 3.4 C 37.9 3.4 39.52 3.36 39.5 3.4 C 40.2 3.4 40.5 3.7 40.5 4.2 C 40.5 4.2 40.5 4.4 40.5 4.4 C 40.5 4.5 40.4 4.7 40.4 4.7 C 40.4 4.7 40.5 4.7 40.5 4.7 C 40.8 4.1 41.5 3.2 43 3.2 C 44.6 3.2 45.5 4 45.5 5.9 C 45.5 5.9 45.5 8.7 45.5 8.7 C 45.5 8.9 45.6 9 45.8 9 C 45.78 9 46.3 9 46.3 9 L 46.3 10.5 C 46.3 10.5 44.65 10.5 44.6 10.5 C 44 10.5 43.7 10.2 43.7 9.5 C 43.7 9.5 43.7 6.3 43.7 6.3 C 43.7 5.4 43.5 4.8 42.6 4.8 C 41.6 4.8 40.9 5.4 40.7 6.3 C 40.6 6.6 40.5 6.9 40.5 7.2 C 40.52 7.22 40.5 10.5 40.5 10.5 L 38.8 10.5 C 38.8 10.5 38.75 5.18 38.8 5.2 Z M 48.2 11.9 C 48.7 11.9 49.1 11.6 49.4 11 C 49.35 11.03 49.6 10.5 49.6 10.5 C 49.6 10.5 47.21 5.12 47.2 5.1 C 47.1 4.9 47 4.9 46.8 4.9 C 46.83 4.87 46.6 4.9 46.6 4.9 L 46.6 3.4 C 46.6 3.4 47.8 3.36 47.8 3.4 C 48.3 3.4 48.6 3.5 48.7 4 C 48.7 4 50.1 7.6 50.1 7.6 C 50.27 7.97 50.4 8.6 50.4 8.6 L 50.4 8.6 C 50.4 8.6 50.53 7.97 50.7 7.6 C 50.7 7.6 51.9 4 51.9 4 C 52 3.5 52.3 3.4 52.8 3.4 C 52.82 3.36 54 3.4 54 3.4 L 54 4.9 C 54 4.9 53.82 4.87 53.8 4.9 C 53.6 4.9 53.5 4.9 53.4 5.1 C 53.4 5.1 50.8 11.6 50.8 11.6 C 50.3 12.9 49.3 13.4 48.3 13.4 C 47.15 13.44 46.5 12.7 46.5 12.7 L 47.2 11.5 C 47.2 11.5 47.59 11.94 48.2 11.9 Z M 59.1 5.2 C 59.1 5 59 4.9 58.8 4.9 C 58.76 4.87 58.2 4.9 58.2 4.9 L 58.2 3.4 C 58.2 3.4 59.78 3.36 59.8 3.4 C 60.4 3.4 60.7 3.7 60.7 4 C 60.7 4.2 60.7 4.3 60.7 4.3 C 60.68 4.33 60.7 4.3 60.7 4.3 C 60.7 4.3 61.31 3.19 63 3.2 C 64.9 3.2 66.1 4.7 66.1 6.9 C 66.1 9.2 64.8 10.7 62.9 10.7 C 61.46 10.67 60.8 9.7 60.8 9.7 L 60.8 9.7 C 60.8 9.7 60.83 9.98 60.8 10.3 C 60.83 10.35 60.8 13.3 60.8 13.3 L 59.1 13.3 C 59.1 13.3 59.07 5.18 59.1 5.2 Z M 62.6 9.2 C 63.5 9.2 64.4 8.4 64.4 7 C 64.4 5.6 63.6 4.7 62.6 4.7 C 61.7 4.7 60.8 5.4 60.8 7 C 60.8 8.1 61.4 9.2 62.6 9.2 Z M 67.6 2.4 C 67.6 2.2 67.5 2.1 67.3 2.1 C 67.3 2.07 66.7 2.1 66.7 2.1 L 66.7 0.6 C 66.7 0.6 68.43 0.56 68.4 0.6 C 69.1 0.6 69.4 0.9 69.4 1.5 C 69.4 1.5 69.4 8.7 69.4 8.7 C 69.4 8.9 69.5 9 69.7 9 C 69.69 9 70.2 9 70.2 9 L 70.2 10.5 C 70.2 10.5 68.56 10.5 68.6 10.5 C 67.9 10.5 67.6 10.2 67.6 9.5 C 67.6 9.5 67.6 2.4 67.6 2.4 Z M 75.3 6 C 75.27 6.02 75.5 6 75.5 6 C 75.5 6 75.49 5.96 75.5 6 C 75.5 4.9 75.1 4.6 74.2 4.6 C 73.9 4.6 73.2 4.6 73.2 5 C 73.22 5.04 73.2 5.4 73.2 5.4 L 71.6 5.4 C 71.6 5.4 71.57 4.66 71.6 4.7 C 71.6 3.3 73.4 3.2 74.2 3.2 C 76.6 3.2 77.3 4.4 77.3 6 C 77.3 6 77.3 8.7 77.3 8.7 C 77.3 8.9 77.4 9 77.6 9 C 77.57 9 78.1 9 78.1 9 L 78.1 10.5 C 78.1 10.5 76.54 10.5 76.5 10.5 C 75.9 10.5 75.6 10.1 75.6 9.7 C 75.6 9.5 75.6 9.4 75.6 9.4 C 75.64 9.41 75.6 9.4 75.6 9.4 C 75.6 9.4 75.07 10.67 73.5 10.7 C 72.2 10.7 71 9.9 71 8.4 C 71 6.2 74.1 6 75.3 6 Z M 73.9 9.3 C 74.8 9.3 75.5 8.3 75.5 7.4 C 75.52 7.41 75.5 7.2 75.5 7.2 C 75.5 7.2 75.21 7.24 75.2 7.2 C 74.3 7.2 72.8 7.4 72.8 8.4 C 72.8 8.8 73.2 9.3 73.9 9.3 Z M 78.8 9.5 C 78.8 9.5 82.07 5.53 82.1 5.5 C 82.39 5.12 82.7 4.9 82.7 4.9 L 82.7 4.8 C 82.7 4.8 82.46 4.87 82 4.9 C 82 4.9 80.7 4.9 80.7 4.9 C 80.5 4.9 80.4 5 80.4 5.2 C 80.42 5.18 80.4 5.6 80.4 5.6 L 78.8 5.6 C 78.8 5.6 78.81 4.31 78.8 4.3 C 78.8 3.7 79.1 3.4 79.8 3.4 C 79.76 3.36 85 3.4 85 3.4 L 85 4.3 C 85 4.3 81.7 8.34 81.7 8.3 C 81.38 8.74 81.1 9 81.1 9 L 81.1 9 C 81.1 9 81.31 8.99 81.8 9 C 81.8 9 83.3 9 83.3 9 C 83.5 9 83.7 8.9 83.7 8.7 C 83.65 8.68 83.7 8.3 83.7 8.3 L 85.3 8.3 C 85.3 8.3 85.26 9.55 85.3 9.5 C 85.3 10.2 85 10.5 84.3 10.5 C 84.32 10.5 78.8 10.5 78.8 10.5 L 78.8 9.5 Z M 86.7 5.2 C 86.7 5 86.6 4.9 86.4 4.9 C 86.41 4.87 85.8 4.9 85.8 4.9 L 85.8 3.4 C 85.8 3.4 87.49 3.36 87.5 3.4 C 88.1 3.4 88.4 3.7 88.4 4.2 C 88.4 4.2 88.4 4.4 88.4 4.4 C 88.4 4.5 88.4 4.7 88.4 4.7 C 88.4 4.7 88.4 4.7 88.4 4.7 C 88.8 4 89.6 3.2 90.7 3.2 C 91.8 3.2 92.5 3.7 92.8 4.7 C 92.8 4.7 92.9 4.7 92.9 4.7 C 93.2 3.9 94.2 3.2 95.3 3.2 C 96.8 3.2 97.6 4 97.6 5.9 C 97.6 5.9 97.6 8.7 97.6 8.7 C 97.6 8.9 97.7 9 97.9 9 C 97.94 9 98.5 9 98.5 9 L 98.5 10.5 C 98.5 10.5 96.81 10.5 96.8 10.5 C 96.1 10.5 95.9 10.2 95.9 9.5 C 95.9 9.5 95.9 6.2 95.9 6.2 C 95.9 5.4 95.7 4.8 94.9 4.8 C 94 4.8 93.4 5.6 93.2 6.5 C 93.1 6.7 93.1 7 93.1 7.4 C 93.06 7.36 93.1 10.5 93.1 10.5 L 91.3 10.5 C 91.3 10.5 91.28 6.24 91.3 6.2 C 91.3 5.5 91.2 4.8 90.3 4.8 C 89.4 4.8 88.8 5.6 88.6 6.5 C 88.5 6.7 88.5 7 88.5 7.4 C 88.48 7.36 88.5 10.5 88.5 10.5 L 86.7 10.5 C 86.7 10.5 86.72 5.18 86.7 5.2 Z M 103.5 6 C 103.46 6.02 103.7 6 103.7 6 C 103.7 6 103.69 5.96 103.7 6 C 103.7 4.9 103.3 4.6 102.4 4.6 C 102 4.6 101.4 4.6 101.4 5 C 101.42 5.04 101.4 5.4 101.4 5.4 L 99.8 5.4 C 99.8 5.4 99.77 4.66 99.8 4.7 C 99.8 3.3 101.6 3.2 102.4 3.2 C 104.8 3.2 105.5 4.4 105.5 6 C 105.5 6 105.5 8.7 105.5 8.7 C 105.5 8.9 105.6 9 105.8 9 C 105.77 9 106.3 9 106.3 9 L 106.3 10.5 C 106.3 10.5 104.73 10.5 104.7 10.5 C 104.1 10.5 103.8 10.1 103.8 9.7 C 103.8 9.5 103.8 9.4 103.8 9.4 C 103.84 9.41 103.8 9.4 103.8 9.4 C 103.8 9.4 103.26 10.67 101.7 10.7 C 100.4 10.7 99.2 9.9 99.2 8.4 C 99.2 6.2 102.3 6 103.5 6 Z M 102.1 9.3 C 103 9.3 103.7 8.3 103.7 7.4 C 103.71 7.41 103.7 7.2 103.7 7.2 C 103.7 7.2 103.4 7.24 103.4 7.2 C 102.5 7.2 101 7.4 101 8.4 C 101 8.8 101.4 9.3 102.1 9.3 Z M 107.8 4.8 L 106.9 4.8 L 106.9 3.4 L 107.8 3.4 L 107.8 1.4 L 109.6 1.4 L 109.6 3.4 L 111.2 3.4 L 111.2 4.8 L 109.6 4.8 C 109.6 4.8 109.56 7.66 109.6 7.7 C 109.6 8.8 110.5 9 111 9 C 111.17 9 111.3 9 111.3 9 L 111.3 10.5 C 111.3 10.5 111.08 10.57 110.8 10.6 C 109.8 10.6 107.8 10.3 107.8 7.9 C 107.79 7.88 107.8 4.8 107.8 4.8 Z M 113.1 0.6 L 114.6 0.6 L 114.6 2.2 L 113.1 2.2 L 113.1 0.6 Z M 113 5.2 C 113 5 112.9 4.9 112.7 4.9 C 112.69 4.87 112.1 4.9 112.1 4.9 L 112.1 3.4 C 112.1 3.4 113.82 3.36 113.8 3.4 C 114.5 3.4 114.8 3.7 114.8 4.3 C 114.8 4.3 114.8 8.7 114.8 8.7 C 114.8 8.9 114.9 9 115.1 9 C 115.07 9 115.6 9 115.6 9 L 115.6 10.5 C 115.6 10.5 113.93 10.5 113.9 10.5 C 113.3 10.5 113 10.2 113 9.5 C 113 9.5 113 5.2 113 5.2 Z M 120.3 3.2 C 121.2 3.2 122.9 3.6 122.9 4.8 C 122.91 4.8 122.9 5.6 122.9 5.6 L 121.3 5.6 C 121.3 5.6 121.34 5.25 121.3 5.2 C 121.3 4.9 120.8 4.7 120.3 4.7 C 119.1 4.7 118.2 5.6 118.2 6.9 C 118.2 8.4 119.3 9.1 120.4 9.1 C 121.65 9.11 122.5 8.1 122.5 8.1 L 123.3 9.4 C 123.3 9.4 122.22 10.67 120.3 10.7 C 117.9 10.7 116.4 9 116.4 6.9 C 116.4 4.9 117.9 3.2 120.3 3.2 Z M 124.6 2.4 C 124.6 2.2 124.4 2.1 124.3 2.1 C 124.25 2.07 123.7 2.1 123.7 2.1 L 123.7 0.6 C 123.7 0.6 125.38 0.56 125.4 0.6 C 126 0.6 126.3 0.7 126.3 1.4 C 126.34 1.37 126.3 5.9 126.3 5.9 C 126.3 5.9 126.87 5.88 126.9 5.9 C 127.1 5.9 127.4 5.8 127.5 5.6 C 127.54 5.61 129 3.4 129 3.4 L 131 3.4 C 131 3.4 129.16 6.05 129.2 6 C 128.86 6.5 128.6 6.6 128.6 6.6 L 128.6 6.6 C 128.6 6.6 128.88 6.73 129.1 7.2 C 129.1 7.2 129.9 8.7 129.9 8.7 C 130.1 8.9 130.2 9 130.5 9 C 130.54 9 131 9 131 9 L 131 10.5 C 131 10.5 129.7 10.5 129.7 10.5 C 129.1 10.5 128.9 10.4 128.6 9.9 C 128.6 9.9 127.4 7.6 127.4 7.6 C 127.2 7.4 127 7.4 126.7 7.4 C 126.73 7.38 126.3 7.4 126.3 7.4 L 126.3 10.5 L 124.6 10.5 C 124.6 10.5 124.56 2.38 124.6 2.4 Z M 132.8 11.9 C 133.3 11.9 133.7 11.6 133.9 11 C 133.94 11.03 134.2 10.5 134.2 10.5 C 134.2 10.5 131.8 5.12 131.8 5.1 C 131.7 4.9 131.6 4.9 131.4 4.9 C 131.42 4.87 131.2 4.9 131.2 4.9 L 131.2 3.4 C 131.2 3.4 132.38 3.36 132.4 3.4 C 132.9 3.4 133.1 3.5 133.3 4 C 133.3 4 134.7 7.6 134.7 7.6 C 134.86 7.97 135 8.6 135 8.6 L 135 8.6 C 135 8.6 135.11 7.97 135.2 7.6 C 135.2 7.6 136.5 4 136.5 4 C 136.6 3.5 136.9 3.4 137.4 3.4 C 137.41 3.36 138.6 3.4 138.6 3.4 L 138.6 4.9 C 138.6 4.9 138.4 4.87 138.4 4.9 C 138.2 4.9 138.1 4.9 138 5.1 C 138 5.1 135.4 11.6 135.4 11.6 C 134.9 12.9 133.9 13.4 132.9 13.4 C 131.74 13.44 131.1 12.7 131.1 12.7 L 131.7 11.5 C 131.7 11.5 132.17 11.94 132.8 11.9 Z M 135.3 0.6 L 137 0.6 L 135.6 2.5 L 134.3 2.5 L 135.3 0.6 Z M 143 3.2 C 143.9 3.2 145.6 3.6 145.6 4.8 C 145.59 4.8 145.6 5.6 145.6 5.6 L 144 5.6 C 144 5.6 144.02 5.25 144 5.2 C 144 4.9 143.4 4.7 143 4.7 C 141.8 4.7 140.9 5.6 140.9 6.9 C 140.9 8.4 142 9.1 143.1 9.1 C 144.33 9.11 145.2 8.1 145.2 8.1 L 146 9.4 C 146 9.4 144.9 10.67 143 10.7 C 140.6 10.7 139.1 9 139.1 6.9 C 139.1 4.9 140.5 3.2 143 3.2 Z M 147.2 2.4 C 147.2 2.2 147.1 2.1 146.9 2.1 C 146.93 2.07 146.4 2.1 146.4 2.1 L 146.4 0.6 C 146.4 0.6 148.06 0.56 148.1 0.6 C 148.7 0.6 149 0.9 149 1.5 C 149 1.5 149 4 149 4 C 149.02 4.35 149 4.6 149 4.6 C 149 4.6 149.02 4.61 149 4.6 C 149.4 3.9 150.2 3.2 151.5 3.2 C 153.1 3.2 154 4 154 5.9 C 154 5.9 154 8.7 154 8.7 C 154 8.9 154.1 9 154.3 9 C 154.27 9 154.8 9 154.8 9 L 154.8 10.5 C 154.8 10.5 153.13 10.5 153.1 10.5 C 152.5 10.5 152.2 10.2 152.2 9.5 C 152.2 9.5 152.2 6.3 152.2 6.3 C 152.2 5.4 152 4.8 151.1 4.8 C 150.1 4.8 149.4 5.4 149.1 6.3 C 149 6.6 149 6.9 149 7.2 C 149.02 7.22 149 10.5 149 10.5 L 147.2 10.5 C 147.2 10.5 147.24 2.38 147.2 2.4 Z M 159.9 2.4 C 159.9 2.2 159.8 2.1 159.6 2.1 C 159.6 2.07 159 2.1 159 2.1 L 159 0.6 C 159 0.6 160.73 0.56 160.7 0.6 C 161.4 0.6 161.7 0.9 161.7 1.5 C 161.7 1.5 161.7 4 161.7 4 C 161.69 4.35 161.7 4.6 161.7 4.6 C 161.7 4.6 161.69 4.61 161.7 4.6 C 162 3.9 162.9 3.2 164.1 3.2 C 165.7 3.2 166.6 4 166.6 5.9 C 166.6 5.9 166.6 8.7 166.6 8.7 C 166.6 8.9 166.7 9 166.9 9 C 166.94 9 167.5 9 167.5 9 L 167.5 10.5 C 167.5 10.5 165.8 10.5 165.8 10.5 C 165.1 10.5 164.9 10.2 164.9 9.5 C 164.9 9.5 164.9 6.3 164.9 6.3 C 164.9 5.4 164.6 4.8 163.7 4.8 C 162.8 4.8 162.1 5.4 161.8 6.3 C 161.7 6.6 161.7 6.9 161.7 7.2 C 161.69 7.22 161.7 10.5 161.7 10.5 L 159.9 10.5 C 159.9 10.5 159.91 2.38 159.9 2.4 Z M 168.9 2.4 C 168.9 2.2 168.8 2.1 168.6 2.1 C 168.58 2.07 168 2.1 168 2.1 L 168 0.6 C 168 0.6 169.71 0.56 169.7 0.6 C 170.4 0.6 170.7 0.9 170.7 1.5 C 170.7 1.5 170.7 8.7 170.7 8.7 C 170.7 8.9 170.8 9 171 9 C 170.97 9 171.5 9 171.5 9 L 171.5 10.5 C 171.5 10.5 169.83 10.5 169.8 10.5 C 169.2 10.5 168.9 10.2 168.9 9.5 C 168.9 9.5 168.9 2.4 168.9 2.4 Z M 176.5 6 C 176.54 6.02 176.8 6 176.8 6 C 176.8 6 176.76 5.96 176.8 6 C 176.8 4.9 176.4 4.6 175.4 4.6 C 175.1 4.6 174.5 4.6 174.5 5 C 174.5 5.04 174.5 5.4 174.5 5.4 L 172.8 5.4 C 172.8 5.4 172.84 4.66 172.8 4.7 C 172.8 3.3 174.7 3.2 175.5 3.2 C 177.8 3.2 178.5 4.4 178.5 6 C 178.5 6 178.5 8.7 178.5 8.7 C 178.5 8.9 178.7 9 178.8 9 C 178.85 9 179.4 9 179.4 9 L 179.4 10.5 C 179.4 10.5 177.81 10.5 177.8 10.5 C 177.2 10.5 176.9 10.1 176.9 9.7 C 176.9 9.5 176.9 9.4 176.9 9.4 C 176.92 9.41 176.9 9.4 176.9 9.4 C 176.9 9.4 176.34 10.67 174.7 10.7 C 173.5 10.7 172.3 9.9 172.3 8.4 C 172.3 6.2 175.4 6 176.5 6 Z M 175.2 9.3 C 176.1 9.3 176.8 8.3 176.8 7.4 C 176.79 7.41 176.8 7.2 176.8 7.2 C 176.8 7.2 176.48 7.24 176.5 7.2 C 175.6 7.2 174.1 7.4 174.1 8.4 C 174.1 8.8 174.4 9.3 175.2 9.3 Z M 183.4 3.2 C 184.93 3.19 185.4 4.1 185.4 4.1 L 185.5 4.1 C 185.5 4.1 185.44 3.88 185.4 3.6 C 185.4 3.6 185.4 2.4 185.4 2.4 C 185.4 2.2 185.3 2.1 185.1 2.1 C 185.14 2.07 184.6 2.1 184.6 2.1 L 184.6 0.6 C 184.6 0.6 186.27 0.56 186.3 0.6 C 186.9 0.6 187.2 0.9 187.2 1.5 C 187.2 1.5 187.2 8.7 187.2 8.7 C 187.2 8.9 187.3 9 187.5 9 C 187.53 9 188.1 9 188.1 9 L 188.1 10.5 C 188.1 10.5 186.44 10.5 186.4 10.5 C 185.8 10.5 185.6 10.2 185.6 9.8 C 185.6 9.6 185.6 9.5 185.6 9.5 C 185.56 9.51 185.5 9.5 185.5 9.5 C 185.5 9.5 184.94 10.67 183.3 10.7 C 181.4 10.7 180.1 9.1 180.1 6.9 C 180.1 4.7 181.5 3.2 183.4 3.2 Z M 185.5 6.9 C 185.5 5.8 184.9 4.7 183.7 4.7 C 182.7 4.7 181.9 5.5 181.9 6.9 C 181.9 8.3 182.6 9.2 183.7 9.2 C 184.6 9.2 185.5 8.5 185.5 6.9 Z M 189.6 5.2 C 189.6 5 189.5 4.9 189.3 4.9 C 189.31 4.87 188.7 4.9 188.7 4.9 L 188.7 3.4 C 188.7 3.4 190.44 3.36 190.4 3.4 C 191.1 3.4 191.4 3.7 191.4 4.3 C 191.4 4.3 191.4 8.7 191.4 8.7 C 191.4 8.9 191.5 9 191.7 9 C 191.7 9 192.2 9 192.2 9 L 192.2 10.5 C 192.2 10.5 190.57 10.5 190.6 10.5 C 189.9 10.5 189.6 10.2 189.6 9.5 C 189.6 9.5 189.6 5.2 189.6 5.2 Z M 190.8 0.6 L 192.5 0.6 L 191 2.5 L 189.7 2.5 L 190.8 0.6 Z M 193.8 5.2 C 193.8 5 193.7 4.9 193.5 4.9 C 193.47 4.87 192.9 4.9 192.9 4.9 L 192.9 3.4 C 192.9 3.4 194.54 3.36 194.5 3.4 C 195.2 3.4 195.5 3.7 195.5 4.2 C 195.5 4.2 195.5 4.4 195.5 4.4 C 195.5 4.5 195.5 4.7 195.5 4.7 C 195.5 4.7 195.5 4.7 195.5 4.7 C 195.8 4.1 196.6 3.2 198 3.2 C 199.6 3.2 200.5 4 200.5 5.9 C 200.5 5.9 200.5 8.7 200.5 8.7 C 200.5 8.9 200.6 9 200.8 9 C 200.8 9 201.4 9 201.4 9 L 201.4 10.5 C 201.4 10.5 199.67 10.5 199.7 10.5 C 199 10.5 198.7 10.2 198.7 9.5 C 198.7 9.5 198.7 6.3 198.7 6.3 C 198.7 5.4 198.5 4.8 197.6 4.8 C 196.6 4.8 195.9 5.4 195.7 6.3 C 195.6 6.6 195.5 6.9 195.5 7.2 C 195.54 7.22 195.5 10.5 195.5 10.5 L 193.8 10.5 C 193.8 10.5 193.77 5.18 193.8 5.2 Z M 206.5 4.8 L 205.6 4.8 L 205.6 3.4 L 206.6 3.4 L 206.6 1.4 L 208.3 1.4 L 208.3 3.4 L 209.9 3.4 L 209.9 4.8 L 208.3 4.8 C 208.3 4.8 208.29 7.66 208.3 7.7 C 208.3 8.8 209.2 9 209.7 9 C 209.9 9 210 9 210 9 L 210 10.5 C 210 10.5 209.8 10.57 209.5 10.6 C 208.5 10.6 206.5 10.3 206.5 7.9 C 206.51 7.88 206.5 4.8 206.5 4.8 Z M 211.6 5.2 C 211.6 5 211.5 4.9 211.3 4.9 C 211.33 4.87 210.8 4.9 210.8 4.9 L 210.8 3.4 C 210.8 3.4 212.46 3.36 212.5 3.4 C 213.1 3.4 213.4 3.7 213.4 4.3 C 213.4 4.3 213.4 7.6 213.4 7.6 C 213.4 8.5 213.6 9 214.5 9 C 215.8 9 216.5 7.9 216.5 6.6 C 216.51 6.64 216.5 3.4 216.5 3.4 L 218.3 3.4 C 218.3 3.4 218.29 8.69 218.3 8.7 C 218.3 8.9 218.4 9 218.6 9 C 218.59 9 219.2 9 219.2 9 L 219.2 10.5 C 219.2 10.5 217.52 10.5 217.5 10.5 C 216.9 10.5 216.6 10.2 216.6 9.7 C 216.6 9.7 216.6 9.5 216.6 9.5 C 216.6 9.3 216.6 9.2 216.6 9.2 C 216.6 9.2 216.6 9.2 216.6 9.2 C 216.2 9.9 215.3 10.7 214.1 10.7 C 212.6 10.7 211.6 9.9 211.6 8 C 211.6 8 211.6 5.2 211.6 5.2 Z M 220.5 2.4 C 220.5 2.2 220.4 2.1 220.2 2.1 C 220.23 2.07 219.7 2.1 219.7 2.1 L 219.7 0.6 C 219.7 0.6 221.37 0.56 221.4 0.6 C 222 0.6 222.3 0.7 222.3 1.4 C 222.32 1.37 222.3 5.9 222.3 5.9 C 222.3 5.9 222.85 5.88 222.9 5.9 C 223.1 5.9 223.4 5.8 223.5 5.6 C 223.52 5.61 225 3.4 225 3.4 L 227 3.4 C 227 3.4 225.15 6.05 225.1 6 C 224.84 6.5 224.6 6.6 224.6 6.6 L 224.6 6.6 C 224.6 6.6 224.87 6.73 225.1 7.2 C 225.1 7.2 225.9 8.7 225.9 8.7 C 226 8.9 226.2 9 226.5 9 C 226.52 9 227 9 227 9 L 227 10.5 C 227 10.5 225.68 10.5 225.7 10.5 C 225.1 10.5 224.8 10.4 224.6 9.9 C 224.6 9.9 223.4 7.6 223.4 7.6 C 223.2 7.4 222.9 7.4 222.7 7.4 C 222.71 7.38 222.3 7.4 222.3 7.4 L 222.3 10.5 L 220.5 10.5 C 220.5 10.5 220.54 2.38 220.5 2.4 Z M 231.4 3.2 C 233.6 3.2 235.3 4.7 235.3 6.9 C 235.3 9.1 233.6 10.7 231.4 10.7 C 229.2 10.7 227.5 9.1 227.5 6.9 C 227.5 4.7 229.2 3.2 231.4 3.2 Z M 231.4 9.2 C 232.6 9.2 233.5 8.3 233.5 6.9 C 233.5 5.6 232.6 4.7 231.4 4.7 C 230.3 4.7 229.3 5.6 229.3 6.9 C 229.3 8.3 230.3 9.2 231.4 9.2 Z M 236.4 5.1 C 236.3 4.9 236.2 4.9 236 4.9 C 235.97 4.87 235.8 4.9 235.8 4.9 L 235.8 3.4 C 235.8 3.4 236.84 3.36 236.8 3.4 C 237.4 3.4 237.7 3.5 237.9 4 C 237.9 4 239.2 7.8 239.2 7.8 C 239.39 8.2 239.5 8.8 239.5 8.8 L 239.5 8.8 C 239.5 8.8 239.64 8.2 239.8 7.8 C 239.8 7.8 241.1 4 241.1 4 C 241.3 3.5 241.6 3.4 242.2 3.4 C 242.17 3.36 243.1 3.4 243.1 3.4 L 243.1 4.9 C 243.1 4.9 242.95 4.87 243 4.9 C 242.8 4.9 242.6 4.9 242.6 5.1 C 242.56 5.12 240.5 10.5 240.5 10.5 L 238.4 10.5 C 238.4 10.5 236.36 5.12 236.4 5.1 Z M 248.1 5.2 C 248.1 5 248 4.9 247.8 4.9 C 247.84 4.87 247.3 4.9 247.3 4.9 L 247.3 3.4 C 247.3 3.4 248.86 3.36 248.9 3.4 C 249.5 3.4 249.8 3.7 249.8 4 C 249.8 4.2 249.8 4.3 249.8 4.3 C 249.76 4.33 249.8 4.3 249.8 4.3 C 249.8 4.3 250.39 3.19 252.1 3.2 C 254 3.2 255.2 4.7 255.2 6.9 C 255.2 9.2 253.8 10.7 252 10.7 C 250.54 10.67 249.9 9.7 249.9 9.7 L 249.9 9.7 C 249.9 9.7 249.91 9.98 249.9 10.3 C 249.91 10.35 249.9 13.3 249.9 13.3 L 248.1 13.3 C 248.1 13.3 248.15 5.18 248.1 5.2 Z M 251.6 9.2 C 252.6 9.2 253.4 8.4 253.4 7 C 253.4 5.6 252.7 4.7 251.7 4.7 C 250.7 4.7 249.9 5.4 249.9 7 C 249.9 8.1 250.5 9.2 251.6 9.2 Z M 260 3.2 C 262.2 3.2 264 4.7 264 6.9 C 264 9.1 262.2 10.7 260 10.7 C 257.9 10.7 256.1 9.1 256.1 6.9 C 256.1 4.7 257.9 3.2 260 3.2 Z M 260 9.2 C 261.2 9.2 262.2 8.3 262.2 6.9 C 262.2 5.6 261.2 4.7 260 4.7 C 258.9 4.7 257.9 5.6 257.9 6.9 C 257.9 8.3 258.9 9.2 260 9.2 Z M 269.3 8.2 C 269.3 8.2 270.21 9.28 271.4 9.3 C 272 9.3 272.4 9.1 272.4 8.6 C 272.4 7.6 268.6 7.6 268.6 5.3 C 268.6 3.9 269.9 3.2 271.4 3.2 C 272.4 3.2 273.9 3.5 273.9 4.7 C 273.91 4.68 273.9 5.4 273.9 5.4 L 272.3 5.4 C 272.3 5.4 272.34 5.07 272.3 5.1 C 272.3 4.7 271.8 4.6 271.4 4.6 C 270.8 4.6 270.4 4.8 270.4 5.2 C 270.4 6.3 274.2 6.1 274.2 8.5 C 274.2 9.8 273 10.7 271.4 10.7 C 269.47 10.67 268.5 9.4 268.5 9.4 L 269.3 8.2 Z M 269.3 0.6 L 270.6 0.6 L 271.3 1.7 L 271.4 1.7 L 272.1 0.6 L 273.4 0.6 L 272.1 2.5 L 270.6 2.5 L 269.3 0.6 Z M 276 0.6 L 277.5 0.6 L 277.5 2.2 L 276 2.2 L 276 0.6 Z M 275.9 5.2 C 275.9 5 275.8 4.9 275.6 4.9 C 275.58 4.87 275 4.9 275 4.9 L 275 3.4 C 275 3.4 276.71 3.36 276.7 3.4 C 277.4 3.4 277.6 3.7 277.6 4.3 C 277.6 4.3 277.6 8.7 277.6 8.7 C 277.6 8.9 277.8 9 278 9 C 277.95 9 278.5 9 278.5 9 L 278.5 10.5 C 278.5 10.5 276.82 10.5 276.8 10.5 C 276.2 10.5 275.9 10.2 275.9 9.5 C 275.9 9.5 275.9 5.2 275.9 5.2 Z M 282.9 3.2 C 285 3.2 286.1 4.7 286.1 6.6 C 286.09 6.79 286 7.2 286 7.2 C 286 7.2 281.12 7.24 281.1 7.2 C 281.3 8.5 282.2 9.2 283.3 9.2 C 284.41 9.16 285.3 8.4 285.3 8.4 L 286 9.6 C 286 9.6 284.91 10.67 283.1 10.7 C 280.8 10.7 279.3 9 279.3 6.9 C 279.3 4.7 280.8 3.2 282.9 3.2 Z M 284.3 6 C 284.2 5.2 283.7 4.6 282.9 4.6 C 282 4.6 281.4 5.1 281.2 6 C 281.2 6 284.3 6 284.3 6 Z M 287.8 8.2 C 287.8 8.2 288.75 9.28 290 9.3 C 290.5 9.3 290.9 9.1 290.9 8.6 C 290.9 7.6 287.2 7.6 287.2 5.3 C 287.2 3.9 288.5 3.2 289.9 3.2 C 290.9 3.2 292.4 3.5 292.4 4.7 C 292.44 4.68 292.4 5.4 292.4 5.4 L 290.9 5.4 C 290.9 5.4 290.88 5.07 290.9 5.1 C 290.9 4.7 290.4 4.6 290 4.6 C 289.3 4.6 288.9 4.8 288.9 5.2 C 288.9 6.3 292.7 6.1 292.7 8.5 C 292.7 9.8 291.5 10.7 290 10.7 C 288.01 10.67 287 9.4 287 9.4 L 287.8 8.2 Z M 294.4 4.8 L 293.5 4.8 L 293.5 3.4 L 294.4 3.4 L 294.4 1.4 L 296.2 1.4 L 296.2 3.4 L 297.8 3.4 L 297.8 4.8 L 296.2 4.8 C 296.2 4.8 296.17 7.66 296.2 7.7 C 296.2 8.8 297.1 9 297.6 9 C 297.78 9 297.9 9 297.9 9 L 297.9 10.5 C 297.9 10.5 297.68 10.57 297.4 10.6 C 296.4 10.6 294.4 10.3 294.4 7.9 C 294.39 7.88 294.4 4.8 294.4 4.8 Z M 299.7 0.6 L 301.2 0.6 L 301.2 2.2 L 299.7 2.2 L 299.7 0.6 Z M 299.6 5.2 C 299.6 5 299.5 4.9 299.3 4.9 C 299.29 4.87 298.7 4.9 298.7 4.9 L 298.7 3.4 C 298.7 3.4 300.42 3.36 300.4 3.4 C 301.1 3.4 301.4 3.7 301.4 4.3 C 301.4 4.3 301.4 8.7 301.4 8.7 C 301.4 8.9 301.5 9 301.7 9 C 301.67 9 302.2 9 302.2 9 L 302.2 10.5 C 302.2 10.5 300.54 10.5 300.5 10.5 C 299.9 10.5 299.6 10.2 299.6 9.5 C 299.6 9.5 299.6 5.2 299.6 5.2 Z M 306.9 3.2 C 307.8 3.2 309.5 3.6 309.5 4.8 C 309.51 4.8 309.5 5.6 309.5 5.6 L 307.9 5.6 C 307.9 5.6 307.94 5.25 307.9 5.2 C 307.9 4.9 307.4 4.7 306.9 4.7 C 305.7 4.7 304.8 5.6 304.8 6.9 C 304.8 8.4 305.9 9.1 307 9.1 C 308.25 9.11 309.1 8.1 309.1 8.1 L 309.9 9.4 C 309.9 9.4 308.82 10.67 306.9 10.7 C 304.5 10.7 303 9 303 6.9 C 303 4.9 304.5 3.2 306.9 3.2 Z M 311.2 2.4 C 311.2 2.2 311.1 2.1 310.9 2.1 C 310.85 2.07 310.3 2.1 310.3 2.1 L 310.3 0.6 C 310.3 0.6 311.99 0.56 312 0.6 C 312.6 0.6 312.9 0.9 312.9 1.5 C 312.9 1.5 312.9 4 312.9 4 C 312.94 4.35 312.9 4.6 312.9 4.6 C 312.9 4.6 312.94 4.61 312.9 4.6 C 313.3 3.9 314.2 3.2 315.4 3.2 C 317 3.2 317.9 4 317.9 5.9 C 317.9 5.9 317.9 8.7 317.9 8.7 C 317.9 8.9 318 9 318.2 9 C 318.19 9 318.7 9 318.7 9 L 318.7 10.5 C 318.7 10.5 317.06 10.5 317.1 10.5 C 316.4 10.5 316.1 10.2 316.1 9.5 C 316.1 9.5 316.1 6.3 316.1 6.3 C 316.1 5.4 315.9 4.8 315 4.8 C 314 4.8 313.3 5.4 313.1 6.3 C 313 6.6 312.9 6.9 312.9 7.2 C 312.94 7.22 312.9 10.5 312.9 10.5 L 311.2 10.5 C 311.2 10.5 311.16 2.38 311.2 2.4 Z M 323.9 5.2 C 323.9 5 323.8 4.9 323.6 4.9 C 323.58 4.87 323 4.9 323 4.9 L 323 3.4 C 323 3.4 324.66 3.36 324.7 3.4 C 325.3 3.4 325.6 3.7 325.6 4.2 C 325.6 4.2 325.6 4.4 325.6 4.4 C 325.6 4.5 325.6 4.7 325.6 4.7 C 325.6 4.7 325.6 4.7 325.6 4.7 C 325.9 4 326.8 3.2 327.9 3.2 C 329 3.2 329.7 3.7 330 4.7 C 330 4.7 330 4.7 330 4.7 C 330.4 3.9 331.3 3.2 332.5 3.2 C 334 3.2 334.8 4 334.8 5.9 C 334.8 5.9 334.8 8.7 334.8 8.7 C 334.8 8.9 334.9 9 335.1 9 C 335.12 9 335.7 9 335.7 9 L 335.7 10.5 C 335.7 10.5 333.98 10.5 334 10.5 C 333.3 10.5 333 10.2 333 9.5 C 333 9.5 333 6.2 333 6.2 C 333 5.4 332.9 4.8 332.1 4.8 C 331.2 4.8 330.5 5.6 330.3 6.5 C 330.3 6.7 330.2 7 330.2 7.4 C 330.23 7.36 330.2 10.5 330.2 10.5 L 328.5 10.5 C 328.5 10.5 328.45 6.24 328.5 6.2 C 328.5 5.5 328.3 4.8 327.5 4.8 C 326.6 4.8 326 5.6 325.8 6.5 C 325.7 6.7 325.7 7 325.7 7.4 C 325.65 7.36 325.7 10.5 325.7 10.5 L 323.9 10.5 C 323.9 10.5 323.89 5.18 323.9 5.2 Z M 340 3.2 C 342 3.2 343.2 4.7 343.2 6.6 C 343.17 6.79 343.1 7.2 343.1 7.2 C 343.1 7.2 338.2 7.24 338.2 7.2 C 338.3 8.5 339.3 9.2 340.3 9.2 C 341.49 9.16 342.3 8.4 342.3 8.4 L 343.1 9.6 C 343.1 9.6 341.99 10.67 340.2 10.7 C 337.8 10.7 336.4 9 336.4 6.9 C 336.4 4.7 337.9 3.2 340 3.2 Z M 341.3 6 C 341.3 5.2 340.7 4.6 340 4.6 C 339.1 4.6 338.4 5.1 338.3 6 C 338.3 6 341.3 6 341.3 6 Z M 344.9 8.2 C 344.9 8.2 345.83 9.28 347 9.3 C 347.6 9.3 348 9.1 348 8.6 C 348 7.6 344.2 7.6 344.2 5.3 C 344.2 3.9 345.5 3.2 347 3.2 C 348 3.2 349.5 3.5 349.5 4.7 C 349.52 4.68 349.5 5.4 349.5 5.4 L 348 5.4 C 348 5.4 347.95 5.07 348 5.1 C 348 4.7 347.5 4.6 347.1 4.6 C 346.4 4.6 346 4.8 346 5.2 C 346 6.3 349.8 6.1 349.8 8.5 C 349.8 9.8 348.6 10.7 347 10.7 C 345.08 10.67 344.1 9.4 344.1 9.4 L 344.9 8.2 Z M 351.6 0.6 L 353.1 0.6 L 353.1 2.2 L 351.6 2.2 L 351.6 0.6 Z M 351.5 5.2 C 351.5 5 351.4 4.9 351.2 4.9 C 351.19 4.87 350.6 4.9 350.6 4.9 L 350.6 3.4 C 350.6 3.4 352.32 3.36 352.3 3.4 C 353 3.4 353.3 3.7 353.3 4.3 C 353.3 4.3 353.3 8.7 353.3 8.7 C 353.3 8.9 353.4 9 353.6 9 C 353.57 9 354.1 9 354.1 9 L 354.1 10.5 C 354.1 10.5 352.43 10.5 352.4 10.5 C 351.8 10.5 351.5 10.2 351.5 9.5 C 351.5 9.5 351.5 5.2 351.5 5.2 Z M 359.2 6 C 359.17 6.02 359.4 6 359.4 6 C 359.4 6 359.39 5.96 359.4 6 C 359.4 4.9 359 4.6 358.1 4.6 C 357.8 4.6 357.1 4.6 357.1 5 C 357.12 5.04 357.1 5.4 357.1 5.4 L 355.5 5.4 C 355.5 5.4 355.47 4.66 355.5 4.7 C 355.5 3.3 357.3 3.2 358.1 3.2 C 360.5 3.2 361.2 4.4 361.2 6 C 361.2 6 361.2 8.7 361.2 8.7 C 361.2 8.9 361.3 9 361.5 9 C 361.48 9 362 9 362 9 L 362 10.5 C 362 10.5 360.44 10.5 360.4 10.5 C 359.8 10.5 359.5 10.1 359.5 9.7 C 359.5 9.5 359.5 9.4 359.5 9.4 C 359.55 9.41 359.5 9.4 359.5 9.4 C 359.5 9.4 358.97 10.67 357.4 10.7 C 356.1 10.7 354.9 9.9 354.9 8.4 C 354.9 6.2 358 6 359.2 6 Z M 357.8 9.3 C 358.7 9.3 359.4 8.3 359.4 7.4 C 359.42 7.41 359.4 7.2 359.4 7.2 C 359.4 7.2 359.11 7.24 359.1 7.2 C 358.2 7.2 356.7 7.4 356.7 8.4 C 356.7 8.8 357.1 9.3 357.8 9.3 Z M 366.7 3.2 C 367.6 3.2 369.2 3.6 369.2 4.8 C 369.25 4.8 369.2 5.6 369.2 5.6 L 367.7 5.6 C 367.7 5.6 367.68 5.25 367.7 5.2 C 367.7 4.9 367.1 4.7 366.7 4.7 C 365.4 4.7 364.5 5.6 364.5 6.9 C 364.5 8.4 365.6 9.1 366.8 9.1 C 367.99 9.11 368.9 8.1 368.9 8.1 L 369.6 9.4 C 369.6 9.4 368.56 10.67 366.6 10.7 C 364.3 10.7 362.8 9 362.8 6.9 C 362.8 4.9 364.2 3.2 366.7 3.2 Z M 374.2 3.2 C 376.4 3.2 378.1 4.7 378.1 6.9 C 378.1 9.1 376.4 10.7 374.2 10.7 C 372 10.7 370.3 9.1 370.3 6.9 C 370.3 4.7 372 3.2 374.2 3.2 Z M 374.2 9.2 C 375.4 9.2 376.3 8.3 376.3 6.9 C 376.3 5.6 375.4 4.7 374.2 4.7 C 373 4.7 372.1 5.6 372.1 6.9 C 372.1 8.3 373 9.2 374.2 9.2 Z M 382.9 3.2 C 383.8 3.2 385.5 3.6 385.5 4.8 C 385.5 4.8 385.5 5.6 385.5 5.6 L 383.9 5.6 C 383.9 5.6 383.93 5.25 383.9 5.2 C 383.9 4.9 383.3 4.7 382.9 4.7 C 381.7 4.7 380.8 5.6 380.8 6.9 C 380.8 8.4 381.9 9.1 383 9.1 C 384.24 9.11 385.1 8.1 385.1 8.1 L 385.9 9.4 C 385.9 9.4 384.82 10.67 382.9 10.7 C 380.5 10.7 379 9 379 6.9 C 379 4.9 380.5 3.2 382.9 3.2 Z M 387.2 2.4 C 387.2 2.2 387 2.1 386.8 2.1 C 386.85 2.07 386.3 2.1 386.3 2.1 L 386.3 0.6 C 386.3 0.6 387.98 0.56 388 0.6 C 388.6 0.6 388.9 0.9 388.9 1.5 C 388.9 1.5 388.9 4 388.9 4 C 388.93 4.35 388.9 4.6 388.9 4.6 C 388.9 4.6 388.93 4.61 388.9 4.6 C 389.3 3.9 390.1 3.2 391.4 3.2 C 393 3.2 393.9 4 393.9 5.9 C 393.9 5.9 393.9 8.7 393.9 8.7 C 393.9 8.9 394 9 394.2 9 C 394.18 9 394.7 9 394.7 9 L 394.7 10.5 C 394.7 10.5 393.05 10.5 393 10.5 C 392.4 10.5 392.1 10.2 392.1 9.5 C 392.1 9.5 392.1 6.3 392.1 6.3 C 392.1 5.4 391.9 4.8 391 4.8 C 390 4.8 389.3 5.4 389 6.3 C 389 6.6 388.9 6.9 388.9 7.2 C 388.93 7.22 388.9 10.5 388.9 10.5 L 387.2 10.5 C 387.2 10.5 387.15 2.38 387.2 2.4 Z M 399.9 5.2 C 399.9 5 399.7 4.9 399.5 4.9 C 399.54 4.87 399 4.9 399 4.9 L 399 3.4 C 399 3.4 400.68 3.36 400.7 3.4 C 401.3 3.4 401.6 3.7 401.6 4.3 C 401.6 4.3 401.6 7.6 401.6 7.6 C 401.6 8.5 401.8 9 402.7 9 C 404 9 404.7 7.9 404.7 6.6 C 404.72 6.64 404.7 3.4 404.7 3.4 L 406.5 3.4 C 406.5 3.4 406.5 8.69 406.5 8.7 C 406.5 8.9 406.6 9 406.8 9 C 406.81 9 407.4 9 407.4 9 L 407.4 10.5 C 407.4 10.5 405.73 10.5 405.7 10.5 C 405.1 10.5 404.8 10.2 404.8 9.7 C 404.8 9.7 404.8 9.5 404.8 9.5 C 404.8 9.3 404.8 9.2 404.8 9.2 C 404.8 9.2 404.8 9.2 404.8 9.2 C 404.4 9.9 403.5 10.7 402.3 10.7 C 400.8 10.7 399.9 9.9 399.9 8 C 399.9 8 399.9 5.2 399.9 5.2 Z M 408 9.5 C 408 9.5 411.32 5.53 411.3 5.5 C 411.64 5.12 411.9 4.9 411.9 4.9 L 411.9 4.8 C 411.9 4.8 411.71 4.87 411.3 4.9 C 411.3 4.9 410 4.9 410 4.9 C 409.8 4.9 409.7 5 409.7 5.2 C 409.66 5.18 409.7 5.6 409.7 5.6 L 408.1 5.6 C 408.1 5.6 408.06 4.31 408.1 4.3 C 408.1 3.7 408.3 3.4 409 3.4 C 409.01 3.36 414.2 3.4 414.2 3.4 L 414.2 4.3 C 414.2 4.3 410.95 8.34 411 8.3 C 410.63 8.74 410.4 9 410.4 9 L 410.4 9 C 410.4 9 410.56 8.99 411 9 C 411 9 412.6 9 412.6 9 C 412.8 9 412.9 8.9 412.9 8.7 C 412.9 8.68 412.9 8.3 412.9 8.3 L 414.5 8.3 C 414.5 8.3 414.51 9.55 414.5 9.5 C 414.5 10.2 414.2 10.5 413.6 10.5 C 413.57 10.5 408 10.5 408 10.5 L 408 9.5 Z M 409.3 0.6 L 410.6 0.6 L 411.3 1.7 L 411.3 1.7 L 412 0.6 L 413.4 0.6 L 412.1 2.5 L 410.6 2.5 L 409.3 0.6 Z M 416 5.2 C 416 5 415.9 4.9 415.7 4.9 C 415.73 4.87 415.2 4.9 415.2 4.9 L 415.2 3.4 C 415.2 3.4 416.86 3.36 416.9 3.4 C 417.5 3.4 417.8 3.7 417.8 4.3 C 417.8 4.3 417.8 8.7 417.8 8.7 C 417.8 8.9 417.9 9 418.1 9 C 418.12 9 418.7 9 418.7 9 L 418.7 10.5 C 418.7 10.5 416.99 10.5 417 10.5 C 416.3 10.5 416 10.2 416 9.5 C 416 9.5 416 5.2 416 5.2 Z M 417.2 0.6 L 418.9 0.6 L 417.4 2.5 L 416.1 2.5 L 417.2 0.6 Z M 419.7 5.1 C 419.6 4.9 419.5 4.9 419.3 4.9 C 419.28 4.87 419.1 4.9 419.1 4.9 L 419.1 3.4 C 419.1 3.4 420.15 3.36 420.2 3.4 C 420.7 3.4 421 3.5 421.2 4 C 421.2 4 422.5 7.8 422.5 7.8 C 422.7 8.2 422.8 8.8 422.8 8.8 L 422.8 8.8 C 422.8 8.8 422.95 8.2 423.1 7.8 C 423.1 7.8 424.4 4 424.4 4 C 424.6 3.5 424.9 3.4 425.5 3.4 C 425.48 3.36 426.4 3.4 426.4 3.4 L 426.4 4.9 C 426.4 4.9 426.27 4.87 426.3 4.9 C 426.1 4.9 425.9 4.9 425.9 5.1 C 425.88 5.12 423.8 10.5 423.8 10.5 L 421.7 10.5 C 421.7 10.5 419.68 5.12 419.7 5.1 Z M 431.2 6 C 431.23 6.02 431.4 6 431.4 6 C 431.4 6 431.45 5.96 431.4 6 C 431.4 4.9 431 4.6 430.1 4.6 C 429.8 4.6 429.2 4.6 429.2 5 C 429.18 5.04 429.2 5.4 429.2 5.4 L 427.5 5.4 C 427.5 5.4 427.53 4.66 427.5 4.7 C 427.5 3.3 429.4 3.2 430.1 3.2 C 432.5 3.2 433.2 4.4 433.2 6 C 433.2 6 433.2 8.7 433.2 8.7 C 433.2 8.9 433.3 9 433.5 9 C 433.53 9 434.1 9 434.1 9 L 434.1 10.5 C 434.1 10.5 432.5 10.5 432.5 10.5 C 431.8 10.5 431.6 10.1 431.6 9.7 C 431.6 9.5 431.6 9.4 431.6 9.4 C 431.6 9.41 431.6 9.4 431.6 9.4 C 431.6 9.4 431.03 10.67 429.4 10.7 C 428.1 10.7 427 9.9 427 8.4 C 427 6.2 430.1 6 431.2 6 Z M 429.9 9.3 C 430.8 9.3 431.5 8.3 431.5 7.4 C 431.48 7.41 431.5 7.2 431.5 7.2 C 431.5 7.2 431.17 7.24 431.2 7.2 C 430.2 7.2 428.8 7.4 428.8 8.4 C 428.8 8.8 429.1 9.3 429.9 9.3 Z M 435.5 5.2 C 435.5 5 435.4 4.9 435.2 4.9 C 435.22 4.87 434.7 4.9 434.7 4.9 L 434.7 3.4 C 434.7 3.4 436.29 3.36 436.3 3.4 C 436.9 3.4 437.2 3.7 437.2 4.2 C 437.2 4.2 437.2 4.4 437.2 4.4 C 437.2 4.5 437.2 4.7 437.2 4.7 C 437.2 4.7 437.2 4.7 437.2 4.7 C 437.5 4.1 438.3 3.2 439.8 3.2 C 441.3 3.2 442.2 4 442.2 5.9 C 442.2 5.9 442.2 8.7 442.2 8.7 C 442.2 8.9 442.4 9 442.6 9 C 442.55 9 443.1 9 443.1 9 L 443.1 10.5 C 443.1 10.5 441.42 10.5 441.4 10.5 C 440.7 10.5 440.5 10.2 440.5 9.5 C 440.5 9.5 440.5 6.3 440.5 6.3 C 440.5 5.4 440.2 4.8 439.3 4.8 C 438.4 4.8 437.7 5.4 437.4 6.3 C 437.3 6.6 437.3 6.9 437.3 7.2 C 437.29 7.22 437.3 10.5 437.3 10.5 L 435.5 10.5 C 435.5 10.5 435.52 5.18 435.5 5.2 Z M 444.7 0.6 L 446.2 0.6 L 446.2 2.2 L 444.7 2.2 L 444.7 0.6 Z M 444.6 5.2 C 444.6 5 444.5 4.9 444.3 4.9 C 444.27 4.87 443.7 4.9 443.7 4.9 L 443.7 3.4 C 443.7 3.4 445.41 3.36 445.4 3.4 C 446.1 3.4 446.3 3.7 446.3 4.3 C 446.3 4.3 446.3 8.7 446.3 8.7 C 446.3 8.9 446.5 9 446.7 9 C 446.65 9 447.2 9 447.2 9 L 447.2 10.5 C 447.2 10.5 445.52 10.5 445.5 10.5 C 444.9 10.5 444.6 10.2 444.6 9.5 C 444.6 9.5 444.6 5.2 444.6 5.2 Z M 452.3 6 C 452.25 6.02 452.5 6 452.5 6 C 452.5 6 452.48 5.96 452.5 6 C 452.5 4.9 452.1 4.6 451.2 4.6 C 450.8 4.6 450.2 4.6 450.2 5 C 450.21 5.04 450.2 5.4 450.2 5.4 L 448.6 5.4 C 448.6 5.4 448.56 4.66 448.6 4.7 C 448.6 3.3 450.4 3.2 451.2 3.2 C 453.6 3.2 454.3 4.4 454.3 6 C 454.3 6 454.3 8.7 454.3 8.7 C 454.3 8.9 454.4 9 454.6 9 C 454.56 9 455.1 9 455.1 9 L 455.1 10.5 C 455.1 10.5 453.53 10.5 453.5 10.5 C 452.9 10.5 452.6 10.1 452.6 9.7 C 452.6 9.5 452.6 9.4 452.6 9.4 C 452.63 9.41 452.6 9.4 452.6 9.4 C 452.6 9.4 452.06 10.67 450.4 10.7 C 449.2 10.7 448 9.9 448 8.4 C 448 6.2 451.1 6 452.3 6 Z M 450.9 9.3 C 451.8 9.3 452.5 8.3 452.5 7.4 C 452.51 7.41 452.5 7.2 452.5 7.2 C 452.5 7.2 452.2 7.24 452.2 7.2 C 451.3 7.2 449.8 7.4 449.8 8.4 C 449.8 8.8 450.2 9.3 450.9 9.3 Z " stroke="none" fill="#000"/>  </g></svg>