<?xml version="1.0" standalone="no"?><!DOCTYPE svg PUBLIC "-//W3C//DTD SVG 1.1//EN" "http://www.w3.org/Graphics/SVG/1.1/DTD/svg11.dtd"><svg xmlns="http://www.w3.org/2000/svg" version="1.1" width="31px" height="16.5px" viewBox="0 -2 31 16.5" style="top:-2px">  <desc>100 %</desc>  <defs/>  <g id="Polygon76043">    <path d="M 4.5 6.9 L 6 6.9 C 6 6.9 6.03 1.72 6 1.7 C 6.03 1.52 6 1.3 6 1.3 L 6 1.3 C 6 1.3 5.95 1.48 5.7 1.8 C 5.67 1.75 4.9 2.5 4.9 2.5 L 4.5 2.1 L 6.1 0.5 L 6.7 0.5 L 6.7 6.9 L 8.3 6.9 L 8.3 7.5 L 4.5 7.5 L 4.5 6.9 Z M 9 4 C 9 2 9.6 0.4 11.4 0.4 C 13.3 0.4 13.9 2 13.9 4 C 13.9 6 13.3 7.6 11.4 7.6 C 9.6 7.6 9 6 9 4 Z M 13.1 4 C 13.1 2.3 12.8 1 11.4 1 C 10.1 1 9.7 2.3 9.7 4 C 9.7 5.7 10.1 7 11.4 7 C 12.8 7 13.1 5.7 13.1 4 Z M 15 4 C 15 2 15.6 0.4 17.5 0.4 C 19.3 0.4 19.9 2 19.9 4 C 19.9 6 19.3 7.6 17.5 7.6 C 15.6 7.6 15 6 15 4 Z M 19.2 4 C 19.2 2.3 18.8 1 17.5 1 C 16.1 1 15.7 2.3 15.7 4 C 15.7 5.7 16.1 7 17.5 7 C 18.8 7 19.2 5.7 19.2 4 Z M 23.8 1.7 C 23.8 1 24.4 0.4 25.2 0.4 C 26 0.4 26.6 1 26.6 1.7 C 26.6 2.5 26 3.1 25.2 3.1 C 24.4 3.1 23.8 2.5 23.8 1.7 Z M 29.2 0.5 L 29.9 0.5 L 24.6 7.5 L 23.9 7.5 L 29.2 0.5 Z M 26 1.7 C 26 1.3 25.7 0.9 25.2 0.9 C 24.7 0.9 24.4 1.3 24.4 1.7 C 24.4 2.2 24.7 2.6 25.2 2.6 C 25.7 2.6 26 2.2 26 1.7 Z M 28.6 4.8 C 29.4 4.8 30 5.5 30 6.2 C 30 7 29.4 7.6 28.6 7.6 C 27.8 7.6 27.2 7 27.2 6.2 C 27.2 5.5 27.8 4.8 28.6 4.8 Z M 27.8 6.2 C 27.8 6.7 28.1 7.1 28.6 7.1 C 29 7.1 29.4 6.7 29.4 6.2 C 29.4 5.8 29 5.4 28.6 5.4 C 28.1 5.4 27.8 5.8 27.8 6.2 C 27.8 6.2 27.8 6.2 27.8 6.2 Z " stroke="none" fill="#000"/>  </g></svg>