<?xml version="1.0" standalone="no"?><!DOCTYPE svg PUBLIC "-//W3C//DTD SVG 1.1//EN" "http://www.w3.org/Graphics/SVG/1.1/DTD/svg11.dtd"><svg xmlns="http://www.w3.org/2000/svg" version="1.1" width="154px" height="42.5px" viewBox="0 -3 154 42.5" style="top:-3px">  <desc>Vag na4 Podporuje udr iavanie tkaniva</desc>  <defs/>  <g id="Polygon68073">    <path d="M 5.3 18.9 L 4.6 18.9 L 4.6 18.3 C 4.6 18.3 7.61 18.31 7.6 18.3 C 8.9 18.3 9.8 19.1 9.8 20.4 C 9.8 21.7 8.9 22.6 7.6 22.6 C 7.61 22.57 6 22.6 6 22.6 L 6 25.3 L 5.3 25.3 L 5.3 18.9 Z M 7.5 22 C 8.4 22 9.1 21.4 9.1 20.4 C 9.1 19.5 8.4 18.9 7.5 18.9 C 7.53 18.92 6 18.9 6 18.9 L 6 22 C 6 22 7.52 21.96 7.5 22 Z M 12.9 20.2 C 14.3 20.2 15.5 21.3 15.5 22.8 C 15.5 24.3 14.3 25.5 12.9 25.5 C 11.4 25.5 10.2 24.3 10.2 22.8 C 10.2 21.3 11.4 20.2 12.9 20.2 Z M 12.9 24.8 C 13.9 24.8 14.8 24 14.8 22.8 C 14.8 21.7 13.9 20.8 12.9 20.8 C 11.8 20.8 10.9 21.7 10.9 22.8 C 10.9 24 11.8 24.8 12.9 24.8 Z M 18.6 20.2 C 19.82 20.19 20.2 21.1 20.2 21.1 L 20.3 21.1 C 20.3 21.1 20.24 20.95 20.2 20.7 C 20.2 20.7 20.2 19.1 20.2 19.1 C 20.2 19 20.2 18.9 20 18.9 C 20.02 18.89 19.6 18.9 19.6 18.9 L 19.6 18.3 C 19.6 18.3 20.31 18.31 20.3 18.3 C 20.7 18.3 20.9 18.5 20.9 18.9 C 20.9 18.9 20.9 24.5 20.9 24.5 C 20.9 24.7 21 24.7 21.1 24.7 C 21.14 24.75 21.6 24.7 21.6 24.7 L 21.6 25.3 C 21.6 25.3 20.86 25.33 20.9 25.3 C 20.4 25.3 20.3 25.1 20.3 24.8 C 20.3 24.6 20.3 24.5 20.3 24.5 C 20.28 24.46 20.3 24.5 20.3 24.5 C 20.3 24.5 19.85 25.45 18.5 25.5 C 17.2 25.5 16.3 24.4 16.3 22.8 C 16.3 21.2 17.3 20.2 18.6 20.2 Z M 20.3 22.8 C 20.3 21.8 19.7 20.8 18.7 20.8 C 17.8 20.8 17 21.5 17 22.8 C 17 24.1 17.7 24.8 18.6 24.8 C 19.5 24.8 20.3 24.2 20.3 22.8 Z M 22.7 21.1 C 22.7 21 22.6 20.9 22.4 20.9 C 22.45 20.89 22 20.9 22 20.9 L 22 20.3 C 22 20.3 22.72 20.31 22.7 20.3 C 23.1 20.3 23.3 20.5 23.3 20.8 C 23.3 21 23.3 21.2 23.3 21.2 C 23.31 21.17 23.3 21.2 23.3 21.2 C 23.3 21.2 23.73 20.19 25.1 20.2 C 26.4 20.2 27.2 21.3 27.2 22.8 C 27.2 24.4 26.3 25.5 25 25.5 C 23.77 25.45 23.3 24.5 23.3 24.5 L 23.3 24.5 C 23.3 24.5 23.35 24.69 23.3 24.9 C 23.35 24.95 23.3 27.3 23.3 27.3 L 22.7 27.3 C 22.7 27.3 22.67 21.11 22.7 21.1 Z M 24.9 24.9 C 25.8 24.9 26.5 24.1 26.5 22.8 C 26.5 21.6 25.9 20.8 25 20.8 C 24.1 20.8 23.3 21.4 23.3 22.8 C 23.3 23.8 23.9 24.9 24.9 24.9 Z M 30.7 20.2 C 32.2 20.2 33.4 21.3 33.4 22.8 C 33.4 24.3 32.2 25.5 30.7 25.5 C 29.3 25.5 28.1 24.3 28.1 22.8 C 28.1 21.3 29.3 20.2 30.7 20.2 Z M 30.7 24.8 C 31.8 24.8 32.7 24 32.7 22.8 C 32.7 21.7 31.8 20.8 30.7 20.8 C 29.6 20.8 28.8 21.7 28.8 22.8 C 28.8 24 29.6 24.8 30.7 24.8 Z M 34.6 21.1 C 34.6 21 34.6 20.9 34.4 20.9 C 34.43 20.89 34 20.9 34 20.9 L 34 20.3 C 34 20.3 34.71 20.31 34.7 20.3 C 35.1 20.3 35.3 20.5 35.3 20.9 C 35.3 20.9 35.3 21.2 35.3 21.2 C 35.32 21.42 35.3 21.6 35.3 21.6 C 35.3 21.6 35.32 21.59 35.3 21.6 C 35.6 20.8 36.1 20.3 36.9 20.3 C 37 20.3 37.2 20.3 37.2 20.3 C 37.18 20.29 37.2 21 37.2 21 C 37.2 21 37.06 20.93 36.9 20.9 C 36.2 20.9 35.7 21.5 35.5 22.2 C 35.4 22.6 35.3 22.9 35.3 23.2 C 35.33 23.21 35.3 25.3 35.3 25.3 L 34.6 25.3 C 34.6 25.3 34.65 21.11 34.6 21.1 Z M 38.3 21.1 C 38.3 21 38.2 20.9 38.1 20.9 C 38.1 20.89 37.7 20.9 37.7 20.9 L 37.7 20.3 C 37.7 20.3 38.39 20.31 38.4 20.3 C 38.8 20.3 39 20.5 39 20.9 C 39 20.9 39 23.3 39 23.3 C 39 24.1 39.1 24.8 40.1 24.8 C 41.2 24.8 41.9 23.8 41.9 22.7 C 41.95 22.71 41.9 20.3 41.9 20.3 L 42.6 20.3 C 42.6 20.3 42.63 24.53 42.6 24.5 C 42.6 24.7 42.7 24.7 42.8 24.7 C 42.85 24.75 43.3 24.7 43.3 24.7 L 43.3 25.3 C 43.3 25.3 42.58 25.33 42.6 25.3 C 42.2 25.3 42 25.2 42 24.8 C 42 24.8 42 24.5 42 24.5 C 42 24.3 42 24.2 42 24.2 C 42 24.2 42 24.2 42 24.2 C 41.8 24.7 41.1 25.5 40 25.5 C 38.8 25.5 38.3 24.8 38.3 23.5 C 38.3 23.5 38.3 21.1 38.3 21.1 Z M 44.6 18.3 L 45.3 18.3 L 45.3 19.2 L 44.6 19.2 L 44.6 18.3 Z M 43.5 26.8 C 43.9 26.8 44.6 26.6 44.6 25.5 C 44.6 25.5 44.6 21.1 44.6 21.1 C 44.6 21 44.6 20.9 44.4 20.9 C 44.43 20.89 44 20.9 44 20.9 L 44 20.3 C 44 20.3 44.72 20.31 44.7 20.3 C 45.1 20.3 45.3 20.5 45.3 20.9 C 45.3 20.9 45.3 25.5 45.3 25.5 C 45.3 27.2 44.1 27.4 43.6 27.4 C 43.4 27.4 43.3 27.4 43.3 27.4 C 43.29 27.36 43.3 26.8 43.3 26.8 C 43.3 26.8 43.38 26.79 43.5 26.8 Z M 49.1 20.2 C 50.4 20.2 51.2 21.3 51.2 22.5 C 51.17 22.62 51.1 22.8 51.1 22.8 C 51.1 22.8 47.29 22.84 47.3 22.8 C 47.3 24.1 48.2 24.8 49.2 24.8 C 50.16 24.85 50.7 24.2 50.7 24.2 L 51.1 24.7 C 51.1 24.7 50.35 25.45 49.2 25.5 C 47.7 25.5 46.6 24.4 46.6 22.8 C 46.6 21.2 47.7 20.2 49.1 20.2 Z M 50.5 22.3 C 50.4 21.3 49.8 20.8 49 20.8 C 48.2 20.8 47.5 21.3 47.3 22.3 C 47.3 22.3 50.5 22.3 50.5 22.3 Z M 55.2 21.1 C 55.2 21 55.1 20.9 55 20.9 C 55.01 20.89 54.6 20.9 54.6 20.9 L 54.6 20.3 C 54.6 20.3 55.3 20.31 55.3 20.3 C 55.7 20.3 55.9 20.5 55.9 20.9 C 55.9 20.9 55.9 23.3 55.9 23.3 C 55.9 24.1 56 24.8 57 24.8 C 58.1 24.8 58.9 23.8 58.9 22.7 C 58.86 22.71 58.9 20.3 58.9 20.3 L 59.5 20.3 C 59.5 20.3 59.53 24.53 59.5 24.5 C 59.5 24.7 59.6 24.7 59.8 24.7 C 59.75 24.75 60.2 24.7 60.2 24.7 L 60.2 25.3 C 60.2 25.3 59.48 25.33 59.5 25.3 C 59.1 25.3 58.9 25.2 58.9 24.8 C 58.9 24.8 58.9 24.5 58.9 24.5 C 58.9 24.3 58.9 24.2 58.9 24.2 C 58.9 24.2 58.9 24.2 58.9 24.2 C 58.7 24.7 58 25.5 56.9 25.5 C 55.7 25.5 55.2 24.8 55.2 23.5 C 55.2 23.5 55.2 21.1 55.2 21.1 Z M 63.1 20.2 C 64.31 20.19 64.7 21.1 64.7 21.1 L 64.7 21.1 C 64.7 21.1 64.73 20.95 64.7 20.7 C 64.7 20.7 64.7 19.1 64.7 19.1 C 64.7 19 64.6 18.9 64.5 18.9 C 64.51 18.89 64.1 18.9 64.1 18.9 L 64.1 18.3 C 64.1 18.3 64.8 18.31 64.8 18.3 C 65.2 18.3 65.4 18.5 65.4 18.9 C 65.4 18.9 65.4 24.5 65.4 24.5 C 65.4 24.7 65.5 24.7 65.6 24.7 C 65.62 24.75 66 24.7 66 24.7 L 66 25.3 C 66 25.3 65.34 25.33 65.3 25.3 C 64.9 25.3 64.7 25.1 64.7 24.8 C 64.7 24.6 64.8 24.5 64.8 24.5 C 64.77 24.46 64.7 24.5 64.7 24.5 C 64.7 24.5 64.34 25.45 63 25.5 C 61.7 25.5 60.8 24.4 60.8 22.8 C 60.8 21.2 61.8 20.2 63.1 20.2 Z M 64.7 22.8 C 64.7 21.8 64.2 20.8 63.1 20.8 C 62.3 20.8 61.5 21.5 61.5 22.8 C 61.5 24.1 62.2 24.8 63.1 24.8 C 64 24.8 64.7 24.2 64.7 22.8 Z M 67.2 21.1 C 67.2 21 67.1 20.9 66.9 20.9 C 66.94 20.89 66.5 20.9 66.5 20.9 L 66.5 20.3 C 66.5 20.3 67.22 20.31 67.2 20.3 C 67.6 20.3 67.8 20.5 67.8 20.9 C 67.8 20.9 67.8 21.2 67.8 21.2 C 67.82 21.42 67.8 21.6 67.8 21.6 C 67.8 21.6 67.82 21.59 67.8 21.6 C 68.1 20.8 68.6 20.3 69.4 20.3 C 69.6 20.3 69.7 20.3 69.7 20.3 C 69.68 20.29 69.7 21 69.7 21 C 69.7 21 69.56 20.93 69.4 20.9 C 68.7 20.9 68.2 21.5 68 22.2 C 67.9 22.6 67.8 22.9 67.8 23.2 C 67.83 23.21 67.8 25.3 67.8 25.3 L 67.2 25.3 C 67.2 25.3 67.16 21.11 67.2 21.1 Z M 70.3 24.9 C 70.3 24.9 73.13 21.36 73.1 21.4 C 73.32 21.12 73.5 20.9 73.5 20.9 L 73.5 20.9 C 73.5 20.9 73.36 20.9 73 20.9 C 73 20.9 71.2 20.9 71.2 20.9 C 71 20.9 71 21 71 21.1 C 70.96 21.12 71 21.5 71 21.5 L 70.3 21.5 C 70.3 21.5 70.33 20.91 70.3 20.9 C 70.3 20.5 70.5 20.3 70.9 20.3 C 70.93 20.31 74.4 20.3 74.4 20.3 L 74.4 20.8 C 74.4 20.8 71.61 24.28 71.6 24.3 C 71.4 24.52 71.2 24.7 71.2 24.7 L 71.2 24.8 C 71.2 24.8 71.36 24.74 71.7 24.7 C 71.7 24.7 73.8 24.7 73.8 24.7 C 73.9 24.7 74 24.7 74 24.5 C 74 24.52 74 24.1 74 24.1 L 74.6 24.1 C 74.6 24.1 74.63 24.73 74.6 24.7 C 74.6 25.2 74.5 25.3 74 25.3 C 74.03 25.33 70.3 25.3 70.3 25.3 L 70.3 24.9 Z M 71.3 18.3 L 71.9 18.3 L 72.5 19.1 L 72.5 19.1 L 73 18.3 L 73.7 18.3 L 72.8 19.5 L 72.1 19.5 L 71.3 18.3 Z M 75.8 18.3 L 76.5 18.3 L 76.5 19.2 L 75.8 19.2 L 75.8 18.3 Z M 75.8 21.1 C 75.8 21 75.7 20.9 75.6 20.9 C 75.6 20.89 75.2 20.9 75.2 20.9 L 75.2 20.3 C 75.2 20.3 75.89 20.31 75.9 20.3 C 76.3 20.3 76.5 20.5 76.5 20.9 C 76.5 20.9 76.5 24.5 76.5 24.5 C 76.5 24.7 76.6 24.7 76.7 24.7 C 76.71 24.75 77.1 24.7 77.1 24.7 L 77.1 25.3 C 77.1 25.3 76.42 25.33 76.4 25.3 C 76 25.3 75.8 25.2 75.8 24.7 C 75.8 24.7 75.8 21.1 75.8 21.1 Z M 80.9 22.2 C 80.89 22.24 81.2 22.2 81.2 22.2 C 81.2 22.2 81.17 22.18 81.2 22.2 C 81.2 21.1 80.8 20.8 79.9 20.8 C 79.6 20.8 78.9 20.8 78.9 21.2 C 78.88 21.19 78.9 21.5 78.9 21.5 L 78.2 21.5 C 78.2 21.5 78.24 21.03 78.2 21 C 78.2 20.3 79.4 20.2 79.9 20.2 C 81.5 20.2 81.8 21 81.8 22.1 C 81.8 22.1 81.8 24.5 81.8 24.5 C 81.8 24.7 81.9 24.7 82.1 24.7 C 82.06 24.75 82.5 24.7 82.5 24.7 L 82.5 25.3 C 82.5 25.3 81.79 25.33 81.8 25.3 C 81.4 25.3 81.2 25.1 81.2 24.7 C 81.2 24.5 81.2 24.4 81.2 24.4 C 81.2 24.4 81.2 24.4 81.2 24.4 C 81.2 24.4 80.8 25.5 79.5 25.5 C 78.7 25.5 77.8 25 77.8 24 C 77.8 22.3 80 22.2 80.9 22.2 Z M 79.6 24.9 C 80.6 24.9 81.2 23.9 81.2 23 C 81.17 23 81.2 22.8 81.2 22.8 C 81.2 22.8 80.88 22.77 80.9 22.8 C 80.1 22.8 78.5 22.8 78.5 23.9 C 78.5 24.4 78.9 24.9 79.6 24.9 Z M 83.2 21.1 C 83.1 20.9 83 20.9 82.8 20.9 C 82.81 20.89 82.7 20.9 82.7 20.9 L 82.7 20.3 C 82.7 20.3 82.99 20.31 83 20.3 C 83.5 20.3 83.6 20.4 83.8 20.9 C 83.8 20.9 85 24 85 24 C 85.09 24.25 85.2 24.6 85.2 24.6 L 85.2 24.6 C 85.2 24.6 85.27 24.25 85.4 24 C 85.4 24 86.6 20.9 86.6 20.9 C 86.7 20.4 86.9 20.3 87.4 20.3 C 87.35 20.31 87.6 20.3 87.6 20.3 L 87.6 20.9 C 87.6 20.9 87.52 20.89 87.5 20.9 C 87.3 20.9 87.2 20.9 87.2 21.1 C 87.17 21.12 85.5 25.3 85.5 25.3 L 84.8 25.3 C 84.8 25.3 83.16 21.12 83.2 21.1 Z M 91.2 22.2 C 91.19 22.24 91.5 22.2 91.5 22.2 C 91.5 22.2 91.47 22.18 91.5 22.2 C 91.5 21.1 91.1 20.8 90.2 20.8 C 89.9 20.8 89.2 20.8 89.2 21.2 C 89.18 21.19 89.2 21.5 89.2 21.5 L 88.5 21.5 C 88.5 21.5 88.54 21.03 88.5 21 C 88.5 20.3 89.7 20.2 90.2 20.2 C 91.8 20.2 92.1 21 92.1 22.1 C 92.1 22.1 92.1 24.5 92.1 24.5 C 92.1 24.7 92.2 24.7 92.4 24.7 C 92.36 24.75 92.8 24.7 92.8 24.7 L 92.8 25.3 C 92.8 25.3 92.09 25.33 92.1 25.3 C 91.7 25.3 91.5 25.1 91.5 24.7 C 91.5 24.5 91.5 24.4 91.5 24.4 C 91.5 24.4 91.5 24.4 91.5 24.4 C 91.5 24.4 91.1 25.5 89.8 25.5 C 89 25.5 88.1 25 88.1 24 C 88.1 22.3 90.3 22.2 91.2 22.2 Z M 89.9 24.9 C 90.9 24.9 91.5 23.9 91.5 23 C 91.47 23 91.5 22.8 91.5 22.8 C 91.5 22.8 91.18 22.77 91.2 22.8 C 90.4 22.8 88.8 22.8 88.8 23.9 C 88.8 24.4 89.2 24.9 89.9 24.9 Z M 93.9 21.1 C 93.9 21 93.8 20.9 93.6 20.9 C 93.65 20.89 93.2 20.9 93.2 20.9 L 93.2 20.3 C 93.2 20.3 93.93 20.31 93.9 20.3 C 94.3 20.3 94.5 20.5 94.5 20.9 C 94.5 20.9 94.5 21.1 94.5 21.1 C 94.53 21.29 94.5 21.5 94.5 21.5 C 94.5 21.5 94.53 21.45 94.5 21.5 C 94.7 21 95.4 20.2 96.5 20.2 C 97.8 20.2 98.2 20.9 98.2 22.1 C 98.2 22.1 98.2 24.5 98.2 24.5 C 98.2 24.7 98.3 24.7 98.4 24.7 C 98.44 24.75 98.9 24.7 98.9 24.7 L 98.9 25.3 C 98.9 25.3 98.15 25.33 98.2 25.3 C 97.7 25.3 97.5 25.2 97.5 24.7 C 97.5 24.7 97.5 22.3 97.5 22.3 C 97.5 21.5 97.4 20.8 96.5 20.8 C 95.6 20.8 94.9 21.4 94.6 22.2 C 94.6 22.5 94.5 22.7 94.5 22.9 C 94.54 22.92 94.5 25.3 94.5 25.3 L 93.9 25.3 C 93.9 25.3 93.87 21.11 93.9 21.1 Z M 100 18.3 L 100.6 18.3 L 100.6 19.2 L 100 19.2 L 100 18.3 Z M 100 21.1 C 100 21 99.9 20.9 99.8 20.9 C 99.78 20.89 99.4 20.9 99.4 20.9 L 99.4 20.3 C 99.4 20.3 100.07 20.31 100.1 20.3 C 100.5 20.3 100.7 20.5 100.7 20.9 C 100.7 20.9 100.7 24.5 100.7 24.5 C 100.7 24.7 100.8 24.7 100.9 24.7 C 100.89 24.75 101.3 24.7 101.3 24.7 L 101.3 25.3 C 101.3 25.3 100.6 25.33 100.6 25.3 C 100.2 25.3 100 25.2 100 24.7 C 100 24.7 100 21.1 100 21.1 Z M 104.5 20.2 C 105.9 20.2 106.6 21.3 106.6 22.5 C 106.57 22.62 106.6 22.8 106.6 22.8 C 106.6 22.8 102.69 22.84 102.7 22.8 C 102.7 24.1 103.6 24.8 104.6 24.8 C 105.57 24.85 106.2 24.2 106.2 24.2 L 106.5 24.7 C 106.5 24.7 105.76 25.45 104.6 25.5 C 103.1 25.5 102 24.4 102 22.8 C 102 21.2 103.1 20.2 104.5 20.2 Z M 105.9 22.3 C 105.8 21.3 105.2 20.8 104.5 20.8 C 103.6 20.8 102.9 21.3 102.7 22.3 C 102.7 22.3 105.9 22.3 105.9 22.3 Z M 110.7 20.9 L 110.1 20.9 L 110.1 20.3 L 110.7 20.3 L 110.7 18.9 L 111.4 18.9 L 111.4 20.3 L 112.7 20.3 L 112.7 20.9 L 111.4 20.9 C 111.4 20.9 111.39 23.43 111.4 23.4 C 111.4 24.6 112.1 24.8 112.5 24.8 C 112.66 24.77 112.8 24.7 112.8 24.7 L 112.8 25.4 C 112.8 25.4 112.63 25.37 112.5 25.4 C 111.9 25.4 110.7 25.2 110.7 23.5 C 110.72 23.5 110.7 20.9 110.7 20.9 Z M 113.9 19.1 C 113.9 19 113.8 18.9 113.7 18.9 C 113.69 18.89 113.3 18.9 113.3 18.9 L 113.3 18.3 C 113.3 18.3 113.98 18.31 114 18.3 C 114.4 18.3 114.6 18.5 114.6 18.9 C 114.58 18.88 114.6 22.2 114.6 22.2 C 114.6 22.2 115.1 22.23 115.1 22.2 C 115.3 22.2 115.5 22.2 115.7 22 C 115.67 21.99 117 20.3 117 20.3 L 117.8 20.3 C 117.8 20.3 116.34 22.15 116.3 22.1 C 116.09 22.45 116 22.5 116 22.5 L 116 22.5 C 116 22.5 116.11 22.59 116.3 22.9 C 116.3 22.9 117.2 24.5 117.2 24.5 C 117.3 24.7 117.4 24.7 117.6 24.7 C 117.64 24.75 117.9 24.7 117.9 24.7 L 117.9 25.3 C 117.9 25.3 117.44 25.33 117.4 25.3 C 116.9 25.3 116.8 25.3 116.6 24.8 C 116.6 24.8 115.6 23 115.6 23 C 115.5 22.8 115.2 22.8 115 22.8 C 115.04 22.81 114.6 22.8 114.6 22.8 L 114.6 25.3 L 113.9 25.3 C 113.9 25.3 113.91 19.11 113.9 19.1 Z M 121.5 22.2 C 121.46 22.24 121.7 22.2 121.7 22.2 C 121.7 22.2 121.74 22.18 121.7 22.2 C 121.7 21.1 121.4 20.8 120.4 20.8 C 120.2 20.8 119.5 20.8 119.5 21.2 C 119.45 21.19 119.5 21.5 119.5 21.5 L 118.8 21.5 C 118.8 21.5 118.81 21.03 118.8 21 C 118.8 20.3 120 20.2 120.4 20.2 C 122 20.2 122.4 21 122.4 22.1 C 122.4 22.1 122.4 24.5 122.4 24.5 C 122.4 24.7 122.5 24.7 122.6 24.7 C 122.63 24.75 123.1 24.7 123.1 24.7 L 123.1 25.3 C 123.1 25.3 122.36 25.33 122.4 25.3 C 121.9 25.3 121.8 25.1 121.8 24.7 C 121.8 24.5 121.8 24.4 121.8 24.4 C 121.8 24.4 121.8 24.4 121.8 24.4 C 121.8 24.4 121.3 25.5 120.1 25.5 C 119.2 25.5 118.4 25 118.4 24 C 118.4 22.3 120.6 22.2 121.5 22.2 Z M 120.2 24.9 C 121.2 24.9 121.7 23.9 121.7 23 C 121.74 23 121.7 22.8 121.7 22.8 C 121.7 22.8 121.45 22.77 121.4 22.8 C 120.7 22.8 119.1 22.8 119.1 23.9 C 119.1 24.4 119.4 24.9 120.2 24.9 Z M 124.1 21.1 C 124.1 21 124.1 20.9 123.9 20.9 C 123.92 20.89 123.5 20.9 123.5 20.9 L 123.5 20.3 C 123.5 20.3 124.2 20.31 124.2 20.3 C 124.6 20.3 124.8 20.5 124.8 20.9 C 124.8 20.9 124.8 21.1 124.8 21.1 C 124.8 21.29 124.8 21.5 124.8 21.5 C 124.8 21.5 124.8 21.45 124.8 21.5 C 125 21 125.6 20.2 126.8 20.2 C 128.1 20.2 128.5 20.9 128.5 22.1 C 128.5 22.1 128.5 24.5 128.5 24.5 C 128.5 24.7 128.6 24.7 128.7 24.7 C 128.71 24.75 129.1 24.7 129.1 24.7 L 129.1 25.3 C 129.1 25.3 128.42 25.33 128.4 25.3 C 128 25.3 127.8 25.2 127.8 24.7 C 127.8 24.7 127.8 22.3 127.8 22.3 C 127.8 21.5 127.7 20.8 126.7 20.8 C 125.9 20.8 125.1 21.4 124.9 22.2 C 124.8 22.5 124.8 22.7 124.8 22.9 C 124.81 22.92 124.8 25.3 124.8 25.3 L 124.1 25.3 C 124.1 25.3 124.14 21.11 124.1 21.1 Z M 130.2 18.3 L 130.9 18.3 L 130.9 19.2 L 130.2 19.2 L 130.2 18.3 Z M 130.3 21.1 C 130.3 21 130.2 20.9 130 20.9 C 130.05 20.89 129.6 20.9 129.6 20.9 L 129.6 20.3 C 129.6 20.3 130.33 20.31 130.3 20.3 C 130.8 20.3 130.9 20.5 130.9 20.9 C 130.9 20.9 130.9 24.5 130.9 24.5 C 130.9 24.7 131 24.7 131.2 24.7 C 131.16 24.75 131.6 24.7 131.6 24.7 L 131.6 25.3 C 131.6 25.3 130.87 25.33 130.9 25.3 C 130.4 25.3 130.3 25.2 130.3 24.7 C 130.3 24.7 130.3 21.1 130.3 21.1 Z M 132.4 21.1 C 132.3 20.9 132.2 20.9 132 20.9 C 132.04 20.89 131.9 20.9 131.9 20.9 L 131.9 20.3 C 131.9 20.3 132.22 20.31 132.2 20.3 C 132.7 20.3 132.8 20.4 133 20.9 C 133 20.9 134.2 24 134.2 24 C 134.31 24.25 134.4 24.6 134.4 24.6 L 134.4 24.6 C 134.4 24.6 134.49 24.25 134.6 24 C 134.6 24 135.8 20.9 135.8 20.9 C 136 20.4 136.1 20.3 136.6 20.3 C 136.58 20.31 136.8 20.3 136.8 20.3 L 136.8 20.9 C 136.8 20.9 136.75 20.89 136.8 20.9 C 136.6 20.9 136.5 20.9 136.4 21.1 C 136.4 21.12 134.8 25.3 134.8 25.3 L 134 25.3 C 134 25.3 132.38 21.12 132.4 21.1 Z M 140.4 22.2 C 140.41 22.24 140.7 22.2 140.7 22.2 C 140.7 22.2 140.7 22.18 140.7 22.2 C 140.7 21.1 140.3 20.8 139.4 20.8 C 139.1 20.8 138.4 20.8 138.4 21.2 C 138.41 21.19 138.4 21.5 138.4 21.5 L 137.8 21.5 C 137.8 21.5 137.77 21.03 137.8 21 C 137.8 20.3 139 20.2 139.4 20.2 C 141 20.2 141.4 21 141.4 22.1 C 141.4 22.1 141.4 24.5 141.4 24.5 C 141.4 24.7 141.5 24.7 141.6 24.7 C 141.59 24.75 142 24.7 142 24.7 L 142 25.3 C 142 25.3 141.32 25.33 141.3 25.3 C 140.9 25.3 140.7 25.1 140.7 24.7 C 140.7 24.5 140.7 24.4 140.7 24.4 C 140.7 24.4 140.7 24.4 140.7 24.4 C 140.7 24.4 140.3 25.5 139 25.5 C 138.2 25.5 137.3 25 137.3 24 C 137.3 22.3 139.5 22.2 140.4 22.2 Z M 139.2 24.9 C 140.1 24.9 140.7 23.9 140.7 23 C 140.7 23 140.7 22.8 140.7 22.8 C 140.7 22.8 140.4 22.77 140.4 22.8 C 139.6 22.8 138 22.8 138 23.9 C 138 24.4 138.4 24.9 139.2 24.9 Z " stroke="none" fill="#000"/>  </g>  <g id="Polygon68072">    <path d="M 91.9 2.4 C 91.8 2.2 91.7 2.1 91.4 2.1 C 91.43 2.11 91.2 2.1 91.2 2.1 L 91.2 0.6 C 91.2 0.6 92.34 0.56 92.3 0.6 C 93 0.6 93.3 0.7 93.5 1.4 C 93.5 1.4 95.4 6.9 95.4 6.9 C 95.61 7.48 95.8 8.4 95.8 8.4 L 95.8 8.4 C 95.8 8.4 96.01 7.48 96.2 6.9 C 96.2 6.9 98.1 1.4 98.1 1.4 C 98.3 0.7 98.6 0.6 99.3 0.6 C 99.27 0.56 100.4 0.6 100.4 0.6 L 100.4 2.1 C 100.4 2.1 100.18 2.11 100.2 2.1 C 99.9 2.1 99.8 2.2 99.7 2.4 C 99.74 2.42 96.8 10.5 96.8 10.5 L 94.8 10.5 C 94.8 10.5 91.86 2.42 91.9 2.4 Z M 104.6 6 C 104.64 6.02 104.9 6 104.9 6 C 104.9 6 104.87 5.96 104.9 6 C 104.9 4.9 104.5 4.6 103.6 4.6 C 103.2 4.6 102.6 4.6 102.6 5 C 102.6 5.04 102.6 5.4 102.6 5.4 L 100.9 5.4 C 100.9 5.4 100.95 4.66 100.9 4.7 C 100.9 3.3 102.8 3.2 103.6 3.2 C 105.9 3.2 106.6 4.4 106.6 6 C 106.6 6 106.6 8.7 106.6 8.7 C 106.6 8.9 106.8 9 107 9 C 106.95 9 107.5 9 107.5 9 L 107.5 10.5 C 107.5 10.5 105.92 10.5 105.9 10.5 C 105.3 10.5 105 10.1 105 9.7 C 105 9.5 105 9.4 105 9.4 C 105.02 9.41 105 9.4 105 9.4 C 105 9.4 104.45 10.67 102.8 10.7 C 101.6 10.7 100.4 9.9 100.4 8.4 C 100.4 6.2 103.5 6 104.6 6 Z M 103.3 9.3 C 104.2 9.3 104.9 8.3 104.9 7.4 C 104.9 7.41 104.9 7.2 104.9 7.2 C 104.9 7.2 104.59 7.24 104.6 7.2 C 103.7 7.2 102.2 7.4 102.2 8.4 C 102.2 8.8 102.5 9.3 103.3 9.3 Z M 111.4 3.2 C 113 3.2 113.6 4.2 113.6 4.2 C 113.59 4.2 113.6 4.2 113.6 4.2 C 113.6 4.2 113.62 4.12 113.6 4 C 113.6 3.7 113.8 3.4 114.4 3.4 C 114.4 3.36 116.1 3.4 116.1 3.4 L 116.1 4.9 C 116.1 4.9 115.51 4.87 115.5 4.9 C 115.3 4.9 115.2 5 115.2 5.2 C 115.2 5.2 115.2 10.1 115.2 10.1 C 115.2 12.5 113.3 13.4 111.4 13.4 C 110.5 13.4 109.6 13.2 108.9 12.8 C 108.9 12.82 109.4 11.4 109.4 11.4 C 109.4 11.4 110.33 11.9 111.4 11.9 C 112.5 11.9 113.4 11.4 113.4 10.1 C 113.4 10.1 113.4 9.8 113.4 9.8 C 113.44 9.65 113.5 9.4 113.5 9.4 C 113.5 9.4 113.42 9.44 113.4 9.4 C 113 10 112.4 10.4 111.4 10.4 C 109.4 10.4 108.2 8.7 108.2 6.7 C 108.2 4.8 109.3 3.2 111.4 3.2 Z M 113.5 6.8 C 113.5 5.1 112.7 4.7 111.7 4.7 C 110.6 4.7 110 5.5 110 6.7 C 110 7.9 110.7 8.9 111.8 8.9 C 112.7 8.9 113.5 8.4 113.5 6.8 Z M 117.6 5.2 C 117.6 5 117.5 4.9 117.3 4.9 C 117.27 4.87 116.7 4.9 116.7 4.9 L 116.7 3.4 C 116.7 3.4 118.41 3.36 118.4 3.4 C 119.1 3.4 119.4 3.7 119.4 4.3 C 119.4 4.3 119.4 8.7 119.4 8.7 C 119.4 8.9 119.5 9 119.7 9 C 119.66 9 120.2 9 120.2 9 L 120.2 10.5 C 120.2 10.5 118.53 10.5 118.5 10.5 C 117.9 10.5 117.6 10.2 117.6 9.5 C 117.6 9.5 117.6 5.2 117.6 5.2 Z M 118.7 0.6 L 120.4 0.6 L 119 2.5 L 117.7 2.5 L 118.7 0.6 Z M 121.7 5.2 C 121.7 5 121.6 4.9 121.4 4.9 C 121.43 4.87 120.9 4.9 120.9 4.9 L 120.9 3.4 C 120.9 3.4 122.51 3.36 122.5 3.4 C 123.1 3.4 123.4 3.7 123.4 4.2 C 123.4 4.2 123.4 4.4 123.4 4.4 C 123.4 4.5 123.4 4.7 123.4 4.7 C 123.4 4.7 123.4 4.7 123.4 4.7 C 123.8 4.1 124.5 3.2 126 3.2 C 127.5 3.2 128.5 4 128.5 5.9 C 128.5 5.9 128.5 8.7 128.5 8.7 C 128.5 8.9 128.6 9 128.8 9 C 128.76 9 129.3 9 129.3 9 L 129.3 10.5 C 129.3 10.5 127.63 10.5 127.6 10.5 C 127 10.5 126.7 10.2 126.7 9.5 C 126.7 9.5 126.7 6.3 126.7 6.3 C 126.7 5.4 126.5 4.8 125.6 4.8 C 124.6 4.8 123.9 5.4 123.6 6.3 C 123.5 6.6 123.5 6.9 123.5 7.2 C 123.5 7.22 123.5 10.5 123.5 10.5 L 121.7 10.5 C 121.7 10.5 121.74 5.18 121.7 5.2 Z M 134.3 6 C 134.28 6.02 134.5 6 134.5 6 C 134.5 6 134.51 5.96 134.5 6 C 134.5 4.9 134.1 4.6 133.2 4.6 C 132.9 4.6 132.2 4.6 132.2 5 C 132.24 5.04 132.2 5.4 132.2 5.4 L 130.6 5.4 C 130.6 5.4 130.59 4.66 130.6 4.7 C 130.6 3.3 132.5 3.2 133.2 3.2 C 135.6 3.2 136.3 4.4 136.3 6 C 136.3 6 136.3 8.7 136.3 8.7 C 136.3 8.9 136.4 9 136.6 9 C 136.59 9 137.2 9 137.2 9 L 137.2 10.5 C 137.2 10.5 135.55 10.5 135.6 10.5 C 134.9 10.5 134.6 10.1 134.6 9.7 C 134.6 9.5 134.7 9.4 134.7 9.4 C 134.66 9.41 134.6 9.4 134.6 9.4 C 134.6 9.4 134.09 10.67 132.5 10.7 C 131.2 10.7 130 9.9 130 8.4 C 130 6.2 133.1 6 134.3 6 Z M 132.9 9.3 C 133.9 9.3 134.5 8.3 134.5 7.4 C 134.53 7.41 134.5 7.2 134.5 7.2 C 134.5 7.2 134.23 7.24 134.2 7.2 C 133.3 7.2 131.8 7.4 131.8 8.4 C 131.8 8.8 132.2 9.3 132.9 9.3 Z M 137.6 3.7 L 140 0 L 141.2 0 L 141.2 3.5 L 142.1 3.5 L 142.1 4.4 L 141.2 4.4 L 141.2 5.8 L 140.2 5.8 L 140.2 4.4 L 137.6 4.4 L 137.6 3.7 Z M 140.2 1.9 C 140.17 1.58 140.2 1.2 140.2 1.2 L 140.2 1.2 C 140.2 1.2 140.03 1.54 139.9 1.8 C 139.9 1.8 139 3.1 139 3.1 C 138.82 3.32 138.7 3.5 138.7 3.5 L 138.7 3.5 C 138.7 3.5 138.92 3.47 139.2 3.5 C 139.19 3.47 140.2 3.5 140.2 3.5 C 140.2 3.5 140.17 1.86 140.2 1.9 Z " stroke="none" fill="#5f0f50"/>  </g></svg>