<?xml version="1.0" standalone="no"?><!DOCTYPE svg PUBLIC "-//W3C//DTD SVG 1.1//EN" "http://www.w3.org/Graphics/SVG/1.1/DTD/svg11.dtd"><svg xmlns="http://www.w3.org/2000/svg" version="1.1" width="526.1px" height="43.5px" viewBox="0 -5 526.1 43.5" style="top:-5px">  <desc>E4 je NEST</desc>  <defs/>  <g id="Polygon67610">    <path d="M 2.3 18.8 L 13.3 14 L 13.3 13.9 L 2.3 9.2 L 2.3 7.2 L 15.9 13.2 L 15.9 14.7 L 2.3 20.8 L 2.3 18.8 Z M 29.5 3.3 L 27.6 3.3 L 27.6 1.4 C 27.6 1.4 39.66 1.41 39.7 1.4 C 40.9 1.4 41.5 2 41.5 3.2 C 41.49 3.24 41.5 5.3 41.5 5.3 L 39.5 5.3 C 39.5 5.3 39.51 3.93 39.5 3.9 C 39.5 3.5 39.3 3.3 38.8 3.3 C 38.85 3.27 31.6 3.3 31.6 3.3 L 31.6 10.9 L 39.6 10.9 L 39.6 12.8 L 31.6 12.8 C 31.6 12.8 31.65 19.98 31.6 20 C 31.6 20.4 31.9 20.6 32.3 20.6 C 32.3 20.6 39.7 20.6 39.7 20.6 C 40.1 20.6 40.4 20.4 40.4 20 C 40.38 19.98 40.4 18.6 40.4 18.6 L 42.3 18.6 C 42.3 18.6 42.33 20.67 42.3 20.7 C 42.3 22 41.8 22.5 40.5 22.5 C 40.5 22.5 31.4 22.5 31.4 22.5 C 30.1 22.5 29.5 22 29.5 20.7 C 29.55 20.67 29.5 3.3 29.5 3.3 Z M 43.5 15.3 L 53.8 1.4 L 56 1.4 L 56 14.8 L 59.4 14.8 L 59.4 16.7 L 56 16.7 L 56 22.5 L 53.9 22.5 L 53.9 16.7 L 43.5 16.7 L 43.5 15.3 Z M 54 6.2 C 53.97 5.31 54.1 4.2 54.1 4.2 L 54 4.2 C 54 4.2 53.49 5.04 52.9 5.8 C 52.9 5.8 47.1 13.5 47.1 13.5 C 46.5 14.28 46 14.9 46 14.9 L 46 14.9 C 46 14.9 46.8 14.82 47.7 14.8 C 47.7 14.82 54 14.8 54 14.8 C 54 14.8 53.97 6.21 54 6.2 Z M 71.5 1.4 L 73.5 1.4 L 73.5 4 L 71.5 4 L 71.5 1.4 Z M 68.1 26.8 C 69.3 26.8 71.5 26.4 71.5 23 C 71.5 23 71.5 9.8 71.5 9.8 C 71.5 9.4 71.3 9.2 70.9 9.2 C 70.89 9.18 69.6 9.2 69.6 9.2 L 69.6 7.4 C 69.6 7.4 71.76 7.41 71.8 7.4 C 73 7.4 73.6 8 73.6 9.2 C 73.6 9.2 73.6 23.1 73.6 23.1 C 73.6 28.1 70 28.7 68.3 28.7 C 67.8 28.68 67.5 28.6 67.5 28.6 L 67.5 26.8 C 67.5 26.8 67.74 26.85 68.1 26.8 Z M 84.8 7.1 C 88.9 7.1 91.1 10.3 91.1 14 C 91.11 14.37 91 15 91 15 C 91 15 79.47 15.03 79.5 15 C 79.5 18.8 82.2 21 85.3 21 C 88.08 21.03 89.8 19.2 89.8 19.2 L 90.8 20.7 C 90.8 20.7 88.65 22.86 85.2 22.9 C 80.8 22.9 77.3 19.6 77.3 15 C 77.3 10 80.7 7.1 84.8 7.1 Z M 89 13.4 C 88.9 10.3 87 8.8 84.7 8.8 C 82.3 8.8 80.1 10.4 79.6 13.4 C 79.6 13.4 89 13.4 89 13.4 Z M 102 20.6 C 102 20.6 103.29 20.64 103.3 20.6 C 103.7 20.6 103.9 20.4 103.9 20 C 103.95 19.98 103.9 1.4 103.9 1.4 L 105.9 1.4 C 105.9 1.4 116.64 16.44 116.6 16.4 C 117.36 17.49 118.3 19.2 118.3 19.2 L 118.4 19.2 C 118.4 19.2 118.26 17.55 118.3 16.4 C 118.3 16.4 118.3 3.2 118.3 3.2 C 118.3 2 118.8 1.4 120.1 1.4 C 120.09 1.41 122.3 1.4 122.3 1.4 L 122.3 3.3 C 122.3 3.3 121.02 3.27 121 3.3 C 120.6 3.3 120.4 3.5 120.4 3.9 C 120.36 3.93 120.4 22.5 120.4 22.5 L 118.4 22.5 C 118.4 22.5 107.67 7.47 107.7 7.5 C 106.92 6.45 105.9 4.7 105.9 4.7 L 105.9 4.7 C 105.9 4.7 106.05 6.36 106 7.5 C 106 7.5 106 20.7 106 20.7 C 106 22 105.5 22.5 104.2 22.5 C 104.22 22.5 102 22.5 102 22.5 L 102 20.6 Z M 126.7 3.3 L 124.8 3.3 L 124.8 1.4 C 124.8 1.4 136.86 1.41 136.9 1.4 C 138.1 1.4 138.7 2 138.7 3.2 C 138.69 3.24 138.7 5.3 138.7 5.3 L 136.7 5.3 C 136.7 5.3 136.71 3.93 136.7 3.9 C 136.7 3.5 136.5 3.3 136 3.3 C 136.05 3.27 128.8 3.3 128.8 3.3 L 128.8 10.9 L 136.8 10.9 L 136.8 12.8 L 128.8 12.8 C 128.8 12.8 128.85 19.98 128.8 20 C 128.8 20.4 129.1 20.6 129.5 20.6 C 129.5 20.6 136.9 20.6 136.9 20.6 C 137.3 20.6 137.6 20.4 137.6 20 C 137.58 19.98 137.6 18.6 137.6 18.6 L 139.5 18.6 C 139.5 18.6 139.53 20.67 139.5 20.7 C 139.5 22 139 22.5 137.7 22.5 C 137.7 22.5 128.6 22.5 128.6 22.5 C 127.3 22.5 126.7 22 126.7 20.7 C 126.75 20.67 126.7 3.3 126.7 3.3 Z M 142.7 18.3 C 142.7 18.3 144.81 20.91 148.1 20.9 C 150.4 20.9 152.3 19.4 152.3 17.2 C 152.3 11.9 141.9 13 141.9 6.5 C 141.9 3.5 144.4 1.1 148.3 1.1 C 150.4 1.1 154 1.9 154 4.7 C 154.05 4.68 154 6.2 154 6.2 L 152.1 6.2 C 152.1 6.2 152.07 5.19 152.1 5.2 C 152.1 3.9 150.3 3 148.4 3 C 145.6 3 144.1 4.6 144.1 6.4 C 144.1 11.3 154.5 10.1 154.5 17 C 154.5 20.2 152 22.9 148.1 22.9 C 143.76 22.86 141.4 19.9 141.4 19.9 L 142.7 18.3 Z M 164.1 3.3 C 164.1 3.3 158.85 3.27 158.8 3.3 C 158.4 3.3 158.2 3.5 158.2 3.9 C 158.19 3.93 158.2 5.3 158.2 5.3 L 156.3 5.3 C 156.3 5.3 156.27 3.12 156.3 3.1 C 156.3 1.8 156.7 1.4 158 1.4 C 158 1.4 172.3 1.4 172.3 1.4 C 173.5 1.4 174 1.8 174 3.1 C 173.97 3.12 174 5.3 174 5.3 L 172 5.3 C 172 5.3 172.02 3.93 172 3.9 C 172 3.5 171.8 3.3 171.4 3.3 C 171.36 3.27 166.2 3.3 166.2 3.3 L 166.2 22.5 L 164.1 22.5 L 164.1 3.3 Z " stroke="none" fill="#ee3078"/>  </g></svg>