<?xml version="1.0" standalone="no"?><!DOCTYPE svg PUBLIC "-//W3C//DTD SVG 1.1//EN" "http://www.w3.org/Graphics/SVG/1.1/DTD/svg11.dtd"><svg xmlns="http://www.w3.org/2000/svg" version="1.1" width="113.4px" height="80.3px" viewBox="0 0 113.4 80.3">  <desc>Estradiol („E2“)</desc>  <defs/>  <g id="Polygon70238">    <path d="M 42.7 41.6 C 42.7 41.6 43.8 41.6 43.8 41.6 C 42.8 43.2 42.4 44.9 42.4 46.8 C 42.4 48.7 42.9 50.6 43.9 52.4 C 43.9 52.4 42.8 52.4 42.8 52.4 C 41.8 50.8 41.2 48.8 41.2 46.8 C 41.2 44.9 41.7 43.1 42.7 41.6 Z M 47.4 49.8 L 48.6 49.8 L 47.8 52.3 L 46.8 52.3 L 47.4 49.8 Z M 46.8 49.8 L 46 52.3 L 45.1 52.3 L 45.6 49.8 L 46.8 49.8 Z M 50.3 43.1 L 49.4 43.1 L 49.4 41.9 C 49.4 41.9 54.84 41.95 54.8 41.9 C 55.4 41.9 55.7 42.2 55.7 42.8 C 55.67 42.78 55.7 43.9 55.7 43.9 L 54.5 43.9 C 54.5 43.9 54.49 43.35 54.5 43.4 C 54.5 43.2 54.4 43.1 54.2 43.1 C 54.21 43.06 51.6 43.1 51.6 43.1 L 51.6 45.9 L 54.8 45.9 L 54.8 47.1 L 51.6 47.1 C 51.6 47.1 51.59 49.72 51.6 49.7 C 51.6 49.9 51.7 50 51.9 50 C 51.9 50 54.6 50 54.6 50 C 54.7 50 54.8 49.9 54.8 49.7 C 54.84 49.72 54.8 49.1 54.8 49.1 L 56 49.1 C 56 49.1 56.04 50.29 56 50.3 C 56 50.9 55.8 51.1 55.2 51.1 C 55.2 51.1 51.1 51.1 51.1 51.1 C 50.5 51.1 50.3 50.9 50.3 50.3 C 50.29 50.29 50.3 43.1 50.3 43.1 Z M 61.5 44.4 C 61.5 43.6 60.9 43 59.9 43 C 59.1 43 58.5 43.4 58.5 43.9 C 58.47 43.86 58.5 44.3 58.5 44.3 L 57.3 44.3 C 57.3 44.3 57.27 43.48 57.3 43.5 C 57.3 42.3 58.9 41.8 59.9 41.8 C 61.6 41.8 62.8 42.9 62.8 44.4 C 62.8 47.6 58.2 47.6 58.2 49.8 C 58.2 49.9 58.3 50 58.5 50 C 58.5 50 61.8 50 61.8 50 C 61.9 50 62 49.9 62 49.7 C 62.05 49.72 62 49.1 62 49.1 L 63.2 49.1 C 63.2 49.1 63.24 50.29 63.2 50.3 C 63.2 50.9 63 51.1 62.4 51.1 C 62.4 51.1 57.7 51.1 57.7 51.1 C 57 51.1 56.8 50.8 56.8 50.1 C 56.8 46.7 61.5 46.9 61.5 44.4 Z M 67 41.8 L 67.9 41.8 L 67.4 44.3 L 66.2 44.3 L 67 41.8 Z M 65.2 41.8 L 66.1 41.8 L 65.6 44.3 L 64.4 44.3 L 65.2 41.8 Z M 70.6 46.8 C 70.6 44.9 70.2 43.2 69.2 41.6 C 69.2 41.6 70.3 41.6 70.3 41.6 C 71.3 43.1 71.8 44.9 71.8 46.8 C 71.8 48.8 71.2 50.8 70.2 52.4 C 70.2 52.4 69.1 52.4 69.1 52.4 C 70.1 50.6 70.6 48.7 70.6 46.8 Z " stroke="none" fill="#fff"/>  </g>  <g id="Polygon70237">    <path d="M 31.6 27.5 L 30.8 27.5 L 30.8 26.3 C 30.8 26.3 36.19 26.35 36.2 26.3 C 36.8 26.3 37 26.6 37 27.2 C 37.03 27.18 37 28.3 37 28.3 L 35.8 28.3 C 35.8 28.3 35.84 27.75 35.8 27.8 C 35.8 27.6 35.7 27.5 35.6 27.5 C 35.56 27.46 32.9 27.5 32.9 27.5 L 32.9 30.3 L 36.2 30.3 L 36.2 31.5 L 32.9 31.5 C 32.9 31.5 32.94 34.12 32.9 34.1 C 32.9 34.3 33 34.4 33.2 34.4 C 33.2 34.4 35.9 34.4 35.9 34.4 C 36.1 34.4 36.2 34.3 36.2 34.1 C 36.2 34.12 36.2 33.5 36.2 33.5 L 37.4 33.5 C 37.4 33.5 37.39 34.69 37.4 34.7 C 37.4 35.3 37.1 35.5 36.6 35.5 C 36.6 35.5 32.5 35.5 32.5 35.5 C 31.9 35.5 31.6 35.3 31.6 34.7 C 31.65 34.69 31.6 27.5 31.6 27.5 Z M 38.7 33.7 C 38.7 33.7 39.47 34.65 40.7 34.7 C 41.3 34.7 41.8 34.4 41.8 33.8 C 41.8 32.6 38.2 32.8 38.2 30.6 C 38.2 29.4 39.3 28.8 40.7 28.8 C 41.5 28.8 42.8 29.1 42.8 30.1 C 42.84 30.06 42.8 30.7 42.8 30.7 L 41.7 30.7 C 41.7 30.7 41.71 30.36 41.7 30.4 C 41.7 30 41.1 29.8 40.7 29.8 C 40 29.8 39.5 30.1 39.5 30.6 C 39.5 31.8 43.1 31.6 43.1 33.8 C 43.1 34.9 42 35.7 40.7 35.7 C 38.91 35.68 38 34.5 38 34.5 L 38.7 33.7 Z M 44.7 30 L 43.9 30 L 43.9 28.9 L 44.8 28.9 L 44.8 27.1 L 46 27.1 L 46 28.9 L 47.6 28.9 L 47.6 30 L 46 30 C 46 30 46.01 32.98 46 33 C 46 34.3 46.9 34.5 47.4 34.5 C 47.58 34.46 47.7 34.4 47.7 34.4 L 47.7 35.6 C 47.7 35.6 47.53 35.58 47.3 35.6 C 46.4 35.6 44.7 35.3 44.7 33.1 C 44.75 33.12 44.7 30 44.7 30 Z M 49.3 30.3 C 49.3 30.1 49.2 30 49 30 C 48.99 30.03 48.5 30 48.5 30 L 48.5 28.9 C 48.5 28.9 49.65 28.95 49.6 28.9 C 50.2 28.9 50.5 29.2 50.5 29.7 C 50.5 29.7 50.5 30.1 50.5 30.1 C 50.49 30.39 50.5 30.6 50.5 30.6 C 50.5 30.6 50.49 30.58 50.5 30.6 C 50.8 29.6 51.6 28.9 52.6 28.9 C 52.74 28.87 52.9 28.9 52.9 28.9 L 52.9 30.1 C 52.9 30.1 52.74 30.1 52.5 30.1 C 51.7 30.1 51 30.7 50.7 31.7 C 50.6 32 50.5 32.4 50.5 32.8 C 50.53 32.83 50.5 35.5 50.5 35.5 L 49.3 35.5 C 49.3 35.5 49.27 30.31 49.3 30.3 Z M 57.2 31.4 C 57.24 31.43 57.5 31.4 57.5 31.4 C 57.5 31.4 57.53 31.37 57.5 31.4 C 57.5 30.2 57.1 29.8 56.1 29.8 C 55.8 29.8 55 29.9 55 30.3 C 54.99 30.3 55 30.7 55 30.7 L 53.8 30.7 C 53.8 30.7 53.81 30.03 53.8 30 C 53.8 28.9 55.4 28.8 56.1 28.8 C 58.2 28.8 58.8 29.9 58.8 31.4 C 58.8 31.4 58.8 34.2 58.8 34.2 C 58.8 34.4 58.9 34.4 59.1 34.4 C 59.07 34.45 59.6 34.4 59.6 34.4 L 59.6 35.5 C 59.6 35.5 58.42 35.52 58.4 35.5 C 57.8 35.5 57.6 35.2 57.6 34.8 C 57.6 34.6 57.6 34.4 57.6 34.4 C 57.63 34.38 57.6 34.4 57.6 34.4 C 57.6 34.4 57.09 35.68 55.5 35.7 C 54.4 35.7 53.3 35 53.3 33.7 C 53.3 31.6 56.1 31.4 57.2 31.4 Z M 55.8 34.7 C 56.9 34.7 57.5 33.5 57.5 32.6 C 57.54 32.57 57.5 32.4 57.5 32.4 C 57.5 32.4 57.22 32.35 57.2 32.4 C 56.3 32.4 54.5 32.4 54.5 33.6 C 54.5 34.1 55 34.7 55.8 34.7 Z M 63.3 28.8 C 64.85 28.79 65.4 29.8 65.4 29.8 L 65.4 29.8 C 65.4 29.8 65.35 29.61 65.4 29.4 C 65.4 29.4 65.4 27.7 65.4 27.7 C 65.4 27.5 65.2 27.4 65.1 27.4 C 65.07 27.43 64.5 27.4 64.5 27.4 L 64.5 26.3 C 64.5 26.3 65.78 26.35 65.8 26.3 C 66.4 26.3 66.6 26.6 66.6 27.2 C 66.6 27.2 66.6 34.2 66.6 34.2 C 66.6 34.4 66.7 34.4 66.9 34.4 C 66.9 34.45 67.4 34.4 67.4 34.4 L 67.4 35.5 C 67.4 35.5 66.22 35.52 66.2 35.5 C 65.7 35.5 65.4 35.3 65.4 34.8 C 65.4 34.6 65.4 34.5 65.4 34.5 C 65.43 34.49 65.4 34.5 65.4 34.5 C 65.4 34.5 64.86 35.68 63.2 35.7 C 61.5 35.7 60.3 34.3 60.3 32.2 C 60.3 30.1 61.6 28.8 63.3 28.8 Z M 65.4 32.2 C 65.4 31.1 64.8 29.9 63.5 29.9 C 62.5 29.9 61.6 30.7 61.6 32.2 C 61.6 33.7 62.4 34.6 63.5 34.6 C 64.5 34.6 65.4 33.9 65.4 32.2 Z M 68.9 26.3 L 70.1 26.3 L 70.1 27.7 L 68.9 27.7 L 68.9 26.3 Z M 68.9 30.3 C 68.9 30.1 68.8 30 68.6 30 C 68.62 30.03 68.1 30 68.1 30 L 68.1 28.9 C 68.1 28.9 69.32 28.95 69.3 28.9 C 69.9 28.9 70.1 29.2 70.1 29.8 C 70.1 29.8 70.1 34.2 70.1 34.2 C 70.1 34.4 70.3 34.4 70.4 34.4 C 70.44 34.45 71 34.4 71 34.4 L 71 35.5 C 71 35.5 69.73 35.52 69.7 35.5 C 69.1 35.5 68.9 35.3 68.9 34.7 C 68.9 34.7 68.9 30.3 68.9 30.3 Z M 75.3 28.8 C 77.3 28.8 78.9 30.2 78.9 32.2 C 78.9 34.2 77.3 35.7 75.3 35.7 C 73.3 35.7 71.8 34.2 71.8 32.2 C 71.8 30.2 73.3 28.8 75.3 28.8 Z M 75.3 34.6 C 76.6 34.6 77.6 33.6 77.6 32.2 C 77.6 30.9 76.6 29.9 75.3 29.9 C 74.1 29.9 73.1 30.9 73.1 32.2 C 73.1 33.6 74.1 34.6 75.3 34.6 Z M 80.3 27.7 C 80.3 27.5 80.2 27.4 80 27.4 C 80 27.43 79.5 27.4 79.5 27.4 L 79.5 26.3 C 79.5 26.3 80.72 26.35 80.7 26.3 C 81.3 26.3 81.6 26.6 81.6 27.2 C 81.6 27.2 81.6 34.2 81.6 34.2 C 81.6 34.4 81.7 34.4 81.8 34.4 C 81.84 34.45 82.4 34.4 82.4 34.4 L 82.4 35.5 C 82.4 35.5 81.12 35.52 81.1 35.5 C 80.5 35.5 80.3 35.3 80.3 34.7 C 80.3 34.7 80.3 27.7 80.3 27.7 Z " stroke="none" fill="#fff"/>  </g></svg>