<?xml version="1.0" standalone="no"?><!DOCTYPE svg PUBLIC "-//W3C//DTD SVG 1.1//EN" "http://www.w3.org/Graphics/SVG/1.1/DTD/svg11.dtd"><svg xmlns="http://www.w3.org/2000/svg" version="1.1" width="93px" height="16.8px" viewBox="0 -2 93 16.8" style="top:-2px">  <desc>HMWK. PK. F XII</desc>  <defs/>  <g id="Polygon76486">    <path d="M 7.5 0.5 L 8.2 0.5 L 8.2 4 L 12.7 4 L 12.7 0.5 L 13.5 0.5 L 13.5 8.2 L 12.7 8.2 L 12.7 4.7 L 8.2 4.7 L 8.2 8.2 L 7.5 8.2 L 7.5 0.5 Z M 16.1 0.5 L 16.9 0.5 C 16.9 0.5 18.92 5.06 18.9 5.1 C 19.1 5.46 19.3 6 19.3 6 L 19.3 6 C 19.3 6 19.53 5.46 19.7 5.1 C 19.71 5.06 21.7 0.5 21.7 0.5 L 22.5 0.5 L 23.1 8.2 L 22.4 8.2 C 22.4 8.2 21.94 2.84 21.9 2.8 C 21.91 2.42 21.9 1.8 21.9 1.8 L 21.9 1.8 C 21.9 1.8 21.66 2.44 21.5 2.8 C 21.49 2.84 19.7 6.8 19.7 6.8 L 19 6.8 C 19 6.8 17.14 2.84 17.1 2.8 C 16.97 2.45 16.7 1.7 16.7 1.7 L 16.7 1.7 C 16.7 1.7 16.71 2.42 16.7 2.8 C 16.68 2.84 16.3 8.2 16.3 8.2 L 15.5 8.2 L 16.1 0.5 Z M 29 1.6 C 29 1.6 28.89 2.31 28.8 2.8 C 28.76 2.8 27.3 8.2 27.3 8.2 L 26.4 8.2 L 24.4 0.5 L 25.2 0.5 C 25.2 0.5 26.66 6.52 26.7 6.5 C 26.76 6.92 26.8 7.3 26.8 7.3 C 26.8 7.3 26.86 7.35 26.9 7.3 C 26.9 7.3 26.9 6.9 27 6.5 C 27.03 6.52 28.7 0.5 28.7 0.5 L 29.4 0.5 C 29.4 0.5 31.01 6.52 31 6.5 C 31.1 6.9 31.2 7.3 31.2 7.3 C 31.19 7.35 31.2 7.3 31.2 7.3 C 31.2 7.3 31.29 6.92 31.4 6.5 C 31.39 6.52 32.9 0.5 32.9 0.5 L 33.7 0.5 L 31.7 8.2 L 30.8 8.2 C 30.8 8.2 29.29 2.8 29.3 2.8 C 29.15 2.31 29 1.6 29 1.6 L 29 1.6 Z M 35.3 0.5 L 36 0.5 L 36 3.9 L 37.3 3.9 L 39.4 0.5 L 40.3 0.5 L 38 4.2 L 38 4.2 L 40.4 8.2 L 39.5 8.2 L 37.3 4.6 L 36 4.6 L 36 8.2 L 35.3 8.2 L 35.3 0.5 Z M 41.7 7.4 L 42.5 7.4 L 42.5 8.2 L 41.7 8.2 L 41.7 7.4 Z M 47.5 0.5 C 47.5 0.5 50.22 0.52 50.2 0.5 C 51.6 0.5 52.6 1.4 52.6 2.8 C 52.6 4.3 51.6 5.2 50.2 5.2 C 50.22 5.21 48.3 5.2 48.3 5.2 L 48.3 8.2 L 47.5 8.2 L 47.5 0.5 Z M 50.1 4.5 C 51.2 4.5 51.8 3.9 51.8 2.8 C 51.8 1.8 51.2 1.2 50.1 1.2 C 50.13 1.2 48.3 1.2 48.3 1.2 L 48.3 4.5 C 48.3 4.5 50.12 4.53 50.1 4.5 Z M 54.1 0.5 L 54.9 0.5 L 54.9 3.9 L 56.2 3.9 L 58.3 0.5 L 59.1 0.5 L 56.8 4.2 L 56.8 4.2 L 59.3 8.2 L 58.4 8.2 L 56.2 4.6 L 54.9 4.6 L 54.9 8.2 L 54.1 8.2 L 54.1 0.5 Z M 60.5 7.4 L 61.4 7.4 L 61.4 8.2 L 60.5 8.2 L 60.5 7.4 Z M 66.4 0.5 L 70.5 0.5 L 70.5 1.2 L 67.2 1.2 L 67.2 4.1 L 70 4.1 L 70 4.8 L 67.2 4.8 L 67.2 8.2 L 66.4 8.2 L 66.4 0.5 Z M 76.7 4.2 L 74.4 0.5 L 75.3 0.5 C 75.3 0.5 76.65 2.81 76.7 2.8 C 76.88 3.2 77.2 3.7 77.2 3.7 L 77.2 3.7 C 77.2 3.7 77.4 3.2 77.6 2.8 C 77.64 2.81 79 0.5 79 0.5 L 79.9 0.5 L 77.6 4.2 L 80.1 8.2 L 79.2 8.2 C 79.2 8.2 77.63 5.58 77.6 5.6 C 77.39 5.18 77.1 4.7 77.1 4.7 L 77.1 4.7 C 77.1 4.7 76.89 5.18 76.7 5.6 C 76.65 5.59 75.1 8.2 75.1 8.2 L 74.2 8.2 L 76.7 4.2 Z M 81.5 0.5 L 82.3 0.5 L 82.3 8.2 L 81.5 8.2 L 81.5 0.5 Z M 84.5 0.5 L 85.3 0.5 L 85.3 8.2 L 84.5 8.2 L 84.5 0.5 Z " stroke="none" fill="#000"/>  </g></svg>