<?xml version="1.0" standalone="no"?><!DOCTYPE svg PUBLIC "-//W3C//DTD SVG 1.1//EN" "http://www.w3.org/Graphics/SVG/1.1/DTD/svg11.dtd"><svg xmlns="http://www.w3.org/2000/svg" version="1.1" width="448.2px" height="93px" viewBox="0 -3 448.2 93" style="top:-3px">  <desc>Naj astej a najsilnej estrog n u ien v reproduk nom veku Vylu uje sa z vaje n kov Peror lna biologick dostupnos...</desc>  <defs/>  <g id="Polygon69016">    <path d="M 1.2 61.3 L 0.4 61.3 L 0.4 60 C 0.4 60 4.31 59.98 4.3 60 C 5.9 60 7 61.1 7 62.8 C 7 64.4 5.9 65.6 4.3 65.6 C 4.31 65.56 2.8 65.6 2.8 65.6 L 2.8 68.5 L 1.2 68.5 L 1.2 61.3 Z M 4 64.2 C 4.9 64.2 5.4 63.6 5.4 62.8 C 5.4 61.9 4.9 61.3 4 61.3 C 4.04 61.32 2.8 61.3 2.8 61.3 L 2.8 64.2 C 2.8 64.2 4.02 64.22 4 64.2 Z M 10.8 62.2 C 12.6 62.2 14.1 63.6 14.1 65.4 C 14.1 67.3 12.6 68.6 10.8 68.6 C 8.9 68.6 7.4 67.3 7.4 65.4 C 7.4 63.6 8.9 62.2 10.8 62.2 Z M 10.8 67.4 C 11.7 67.4 12.6 66.6 12.6 65.4 C 12.6 64.3 11.7 63.5 10.8 63.5 C 9.8 63.5 8.9 64.3 8.9 65.4 C 8.9 66.6 9.8 67.4 10.8 67.4 Z M 15.4 61.5 C 15.4 61.4 15.3 61.3 15.1 61.3 C 15.1 61.28 14.6 61.3 14.6 61.3 L 14.6 60 C 14.6 60 16.07 59.98 16.1 60 C 16.6 60 16.9 60.2 16.9 60.8 C 16.9 60.8 16.9 67 16.9 67 C 16.9 67.1 17 67.2 17.1 67.2 C 17.15 67.22 17.6 67.2 17.6 67.2 L 17.6 68.5 C 17.6 68.5 16.18 68.5 16.2 68.5 C 15.6 68.5 15.4 68.3 15.4 67.7 C 15.4 67.7 15.4 61.5 15.4 61.5 Z M 21.6 62.2 C 22.4 62.2 23.8 62.6 23.8 63.6 C 23.84 63.62 23.8 64.3 23.8 64.3 L 22.5 64.3 C 22.5 64.3 22.5 64 22.5 64 C 22.5 63.7 22 63.5 21.6 63.5 C 20.6 63.5 19.8 64.3 19.8 65.4 C 19.8 66.7 20.7 67.3 21.7 67.3 C 22.76 67.32 23.5 66.5 23.5 66.5 L 24.2 67.5 C 24.2 67.5 23.26 68.65 21.6 68.6 C 19.6 68.6 18.3 67.2 18.3 65.4 C 18.3 63.7 19.5 62.2 21.6 62.2 Z M 19.6 60 L 20.8 60 L 21.4 61 L 21.4 61 L 22 60 L 23.2 60 L 22 61.6 L 20.7 61.6 L 19.6 60 Z M 28.4 64.7 C 28.38 64.66 28.6 64.7 28.6 64.7 C 28.6 64.7 28.57 64.62 28.6 64.6 C 28.6 63.7 28.2 63.4 27.4 63.4 C 27.2 63.4 26.6 63.5 26.6 63.8 C 26.63 63.82 26.6 64.1 26.6 64.1 L 25.2 64.1 C 25.2 64.1 25.21 63.5 25.2 63.5 C 25.2 62.4 26.8 62.2 27.5 62.2 C 29.5 62.2 30.1 63.3 30.1 64.7 C 30.1 64.7 30.1 67 30.1 67 C 30.1 67.1 30.2 67.2 30.4 67.2 C 30.36 67.22 30.8 67.2 30.8 67.2 L 30.8 68.5 C 30.8 68.5 29.47 68.5 29.5 68.5 C 28.9 68.5 28.7 68.2 28.7 67.8 C 28.7 67.7 28.7 67.6 28.7 67.6 C 28.7 67.57 28.7 67.6 28.7 67.6 C 28.7 67.6 28.21 68.65 26.8 68.6 C 25.7 68.6 24.7 68 24.7 66.7 C 24.7 64.8 27.4 64.7 28.4 64.7 Z M 27.2 67.5 C 28 67.5 28.6 66.6 28.6 65.9 C 28.6 65.85 28.6 65.7 28.6 65.7 C 28.6 65.7 28.33 65.71 28.3 65.7 C 27.5 65.7 26.3 65.8 26.3 66.7 C 26.3 67.1 26.6 67.5 27.2 67.5 Z M 32.1 66.6 C 32.1 66.6 32.87 67.46 33.9 67.5 C 34.4 67.5 34.7 67.3 34.7 66.9 C 34.7 66 31.5 66 31.5 64 C 31.5 62.8 32.6 62.2 33.9 62.2 C 34.7 62.2 36 62.5 36 63.5 C 36.03 63.51 36 64.1 36 64.1 L 34.7 64.1 C 34.7 64.1 34.69 63.85 34.7 63.8 C 34.7 63.6 34.3 63.4 33.9 63.4 C 33.4 63.4 33 63.6 33 64 C 33 64.9 36.3 64.7 36.3 66.8 C 36.3 67.9 35.2 68.6 33.9 68.6 C 32.23 68.65 31.4 67.6 31.4 67.6 L 32.1 66.6 Z M 42.2 59.6 C 42.2 59.6 43.5 59.6 43.5 59.6 C 42.6 61.1 42.2 62.8 42.2 64.5 C 42.2 66.3 42.7 68 43.6 69.6 C 43.6 69.6 42.3 69.6 42.3 69.6 C 41.3 68.3 40.8 66.4 40.8 64.6 C 40.8 62.8 41.3 61 42.2 59.6 Z M 45.1 63.9 C 45.1 63.8 45 63.7 44.8 63.7 C 44.81 63.68 44.3 63.7 44.3 63.7 L 44.3 62.4 C 44.3 62.4 45.68 62.38 45.7 62.4 C 46.2 62.4 46.5 62.6 46.5 63 C 46.5 63.1 46.5 63.2 46.5 63.2 C 46.45 63.21 46.5 63.2 46.5 63.2 C 46.5 63.2 46.99 62.24 48.4 62.2 C 50.1 62.2 51.1 63.5 51.1 65.4 C 51.1 67.4 49.9 68.6 48.3 68.6 C 47.12 68.65 46.6 67.8 46.6 67.8 L 46.6 67.8 C 46.6 67.8 46.58 68.06 46.6 68.4 C 46.58 68.37 46.6 70.9 46.6 70.9 L 45.1 70.9 C 45.1 70.9 45.07 63.94 45.1 63.9 Z M 48.1 67.4 C 48.9 67.4 49.6 66.7 49.6 65.5 C 49.6 64.3 49 63.5 48.1 63.5 C 47.3 63.5 46.5 64.1 46.5 65.5 C 46.5 66.4 47.1 67.4 48.1 67.4 Z M 55 62.2 C 56.8 62.2 57.7 63.5 57.7 65.1 C 57.73 65.32 57.7 65.7 57.7 65.7 C 57.7 65.7 53.47 65.71 53.5 65.7 C 53.6 66.8 54.4 67.4 55.3 67.4 C 56.29 67.35 57 66.7 57 66.7 L 57.7 67.7 C 57.7 67.7 56.72 68.65 55.2 68.6 C 53.2 68.6 51.9 67.2 51.9 65.4 C 51.9 63.6 53.2 62.2 55 62.2 Z M 56.2 64.7 C 56.1 63.9 55.6 63.4 55 63.4 C 54.2 63.4 53.7 63.9 53.5 64.7 C 53.5 64.7 56.2 64.7 56.2 64.7 Z M 59.2 63.9 C 59.2 63.8 59.1 63.7 58.9 63.7 C 58.94 63.68 58.5 63.7 58.5 63.7 L 58.5 62.4 C 58.5 62.4 59.86 62.38 59.9 62.4 C 60.4 62.4 60.7 62.6 60.7 63.1 C 60.7 63.1 60.7 63.5 60.7 63.5 C 60.67 63.72 60.6 63.9 60.6 63.9 C 60.6 63.9 60.67 63.87 60.7 63.9 C 60.9 63 61.7 62.3 62.6 62.3 C 62.75 62.3 62.9 62.3 62.9 62.3 L 62.9 63.8 C 62.9 63.8 62.73 63.8 62.5 63.8 C 61.9 63.8 61.1 64.2 60.9 65.1 C 60.8 65.4 60.7 65.7 60.7 66.1 C 60.72 66.08 60.7 68.5 60.7 68.5 L 59.2 68.5 C 59.2 68.5 59.21 63.94 59.2 63.9 Z M 66.7 62.2 C 68.5 62.2 70 63.6 70 65.4 C 70 67.3 68.5 68.6 66.7 68.6 C 64.8 68.6 63.3 67.3 63.3 65.4 C 63.3 63.6 64.8 62.2 66.7 62.2 Z M 66.7 67.4 C 67.7 67.4 68.5 66.6 68.5 65.4 C 68.5 64.3 67.7 63.5 66.7 63.5 C 65.7 63.5 64.8 64.3 64.8 65.4 C 64.8 66.6 65.7 67.4 66.7 67.4 Z M 71.4 63.9 C 71.4 63.8 71.3 63.7 71.1 63.7 C 71.14 63.68 70.7 63.7 70.7 63.7 L 70.7 62.4 C 70.7 62.4 72.05 62.38 72 62.4 C 72.6 62.4 72.9 62.6 72.9 63.1 C 72.9 63.1 72.9 63.5 72.9 63.5 C 72.86 63.72 72.8 63.9 72.8 63.9 C 72.8 63.9 72.86 63.87 72.9 63.9 C 73.1 63 73.9 62.3 74.8 62.3 C 74.94 62.3 75.1 62.3 75.1 62.3 L 75.1 63.8 C 75.1 63.8 74.93 63.8 74.7 63.8 C 74.1 63.8 73.3 64.2 73 65.1 C 73 65.4 72.9 65.7 72.9 66.1 C 72.91 66.08 72.9 68.5 72.9 68.5 L 71.4 68.5 C 71.4 68.5 71.4 63.94 71.4 63.9 Z M 79 64.7 C 79.02 64.66 79.2 64.7 79.2 64.7 C 79.2 64.7 79.21 64.62 79.2 64.6 C 79.2 63.7 78.9 63.4 78.1 63.4 C 77.8 63.4 77.3 63.5 77.3 63.8 C 77.27 63.82 77.3 64.1 77.3 64.1 L 75.9 64.1 C 75.9 64.1 75.85 63.5 75.9 63.5 C 75.9 62.4 77.5 62.2 78.1 62.2 C 80.1 62.2 80.7 63.3 80.7 64.7 C 80.7 64.7 80.7 67 80.7 67 C 80.7 67.1 80.8 67.2 81 67.2 C 81 67.22 81.5 67.2 81.5 67.2 L 81.5 68.5 C 81.5 68.5 80.11 68.5 80.1 68.5 C 79.5 68.5 79.3 68.2 79.3 67.8 C 79.3 67.7 79.3 67.6 79.3 67.6 C 79.34 67.57 79.3 67.6 79.3 67.6 C 79.3 67.6 78.85 68.65 77.5 68.6 C 76.4 68.6 75.4 68 75.4 66.7 C 75.4 64.8 78 64.7 79 64.7 Z M 77.8 67.5 C 78.7 67.5 79.2 66.6 79.2 65.9 C 79.24 65.85 79.2 65.7 79.2 65.7 C 79.2 65.7 78.97 65.71 79 65.7 C 78.2 65.7 76.9 65.8 76.9 66.7 C 76.9 67.1 77.2 67.5 77.8 67.5 Z M 78.6 60 L 80 60 L 78.8 61.6 L 77.7 61.6 L 78.6 60 Z M 82.7 61.5 C 82.7 61.4 82.6 61.3 82.4 61.3 C 82.4 61.28 81.9 61.3 81.9 61.3 L 81.9 60 C 81.9 60 83.37 59.98 83.4 60 C 83.9 60 84.2 60.2 84.2 60.8 C 84.2 60.8 84.2 67 84.2 67 C 84.2 67.1 84.3 67.2 84.5 67.2 C 84.45 67.22 84.9 67.2 84.9 67.2 L 84.9 68.5 C 84.9 68.5 83.48 68.5 83.5 68.5 C 82.9 68.5 82.7 68.3 82.7 67.7 C 82.7 67.7 82.7 61.5 82.7 61.5 Z M 86.2 63.9 C 86.2 63.8 86.1 63.7 85.9 63.7 C 85.93 63.68 85.5 63.7 85.5 63.7 L 85.5 62.4 C 85.5 62.4 86.85 62.38 86.9 62.4 C 87.4 62.4 87.7 62.6 87.7 63.1 C 87.7 63.1 87.7 63.2 87.7 63.2 C 87.7 63.4 87.6 63.5 87.6 63.5 C 87.6 63.5 87.7 63.5 87.7 63.5 C 87.9 63 88.6 62.2 89.8 62.2 C 91.2 62.2 92 62.9 92 64.6 C 92 64.6 92 67 92 67 C 92 67.1 92 67.2 92.2 67.2 C 92.22 67.22 92.7 67.2 92.7 67.2 L 92.7 68.5 C 92.7 68.5 91.25 68.5 91.2 68.5 C 90.7 68.5 90.4 68.3 90.4 67.7 C 90.4 67.7 90.4 64.9 90.4 64.9 C 90.4 64.1 90.2 63.6 89.5 63.6 C 88.7 63.6 88 64.1 87.8 64.9 C 87.7 65.1 87.7 65.4 87.7 65.7 C 87.71 65.7 87.7 68.5 87.7 68.5 L 86.2 68.5 C 86.2 68.5 86.2 63.94 86.2 63.9 Z M 96.4 62.2 C 98.2 62.2 99.1 63.5 99.1 65.1 C 99.12 65.32 99.1 65.7 99.1 65.7 C 99.1 65.7 94.86 65.71 94.9 65.7 C 95 66.8 95.8 67.4 96.7 67.4 C 97.68 67.35 98.4 66.7 98.4 66.7 L 99 67.7 C 99 67.7 98.11 68.65 96.6 68.6 C 94.6 68.6 93.3 67.2 93.3 65.4 C 93.3 63.6 94.6 62.2 96.4 62.2 Z M 97.6 64.7 C 97.5 63.9 97 63.4 96.4 63.4 C 95.6 63.4 95.1 63.9 94.9 64.7 C 94.9 64.7 97.6 64.7 97.6 64.7 Z M 103.8 63.9 C 103.8 63.8 103.7 63.7 103.5 63.7 C 103.51 63.68 103 63.7 103 63.7 L 103 62.4 C 103 62.4 104.39 62.38 104.4 62.4 C 104.9 62.4 105.2 62.6 105.2 63 C 105.2 63.1 105.2 63.2 105.2 63.2 C 105.15 63.21 105.2 63.2 105.2 63.2 C 105.2 63.2 105.69 62.24 107.1 62.2 C 108.8 62.2 109.8 63.5 109.8 65.4 C 109.8 67.4 108.6 68.6 107 68.6 C 105.83 68.65 105.3 67.8 105.3 67.8 L 105.3 67.8 C 105.3 67.8 105.29 68.06 105.3 68.4 C 105.29 68.37 105.3 70.9 105.3 70.9 L 103.8 70.9 C 103.8 70.9 103.78 63.94 103.8 63.9 Z M 106.8 67.4 C 107.6 67.4 108.3 66.7 108.3 65.5 C 108.3 64.3 107.7 63.5 106.8 63.5 C 106 63.5 105.2 64.1 105.2 65.5 C 105.2 66.4 105.8 67.4 106.8 67.4 Z M 114 62.2 C 115.8 62.2 117.3 63.6 117.3 65.4 C 117.3 67.3 115.8 68.6 114 68.6 C 112.1 68.6 110.6 67.3 110.6 65.4 C 110.6 63.6 112.1 62.2 114 62.2 Z M 114 67.4 C 115 67.4 115.8 66.6 115.8 65.4 C 115.8 64.3 115 63.5 114 63.5 C 113 63.5 112.1 64.3 112.1 65.4 C 112.1 66.6 113 67.4 114 67.4 Z M 120.9 62.2 C 122.21 62.24 122.6 63 122.6 63 L 122.7 63 C 122.7 63 122.65 62.83 122.7 62.6 C 122.7 62.6 122.7 61.5 122.7 61.5 C 122.7 61.4 122.6 61.3 122.4 61.3 C 122.39 61.28 121.9 61.3 121.9 61.3 L 121.9 60 C 121.9 60 123.36 59.98 123.4 60 C 123.9 60 124.2 60.2 124.2 60.8 C 124.2 60.8 124.2 67 124.2 67 C 124.2 67.1 124.3 67.2 124.4 67.2 C 124.44 67.22 124.9 67.2 124.9 67.2 L 124.9 68.5 C 124.9 68.5 123.5 68.5 123.5 68.5 C 123 68.5 122.7 68.2 122.7 67.9 C 122.7 67.7 122.7 67.7 122.7 67.7 C 122.75 67.65 122.7 67.7 122.7 67.7 C 122.7 67.7 122.22 68.65 120.8 68.6 C 119.2 68.6 118.1 67.3 118.1 65.4 C 118.1 63.5 119.3 62.2 120.9 62.2 Z M 122.7 65.4 C 122.7 64.5 122.2 63.5 121.2 63.5 C 120.3 63.5 119.6 64.2 119.6 65.4 C 119.6 66.6 120.2 67.4 121.2 67.4 C 121.9 67.4 122.7 66.8 122.7 65.4 Z M 129.2 64.7 C 129.2 64.66 129.4 64.7 129.4 64.7 C 129.4 64.7 129.39 64.62 129.4 64.6 C 129.4 63.7 129 63.4 128.3 63.4 C 128 63.4 127.4 63.5 127.4 63.8 C 127.45 63.82 127.4 64.1 127.4 64.1 L 126 64.1 C 126 64.1 126.03 63.5 126 63.5 C 126 62.4 127.6 62.2 128.3 62.2 C 130.3 62.2 130.9 63.3 130.9 64.7 C 130.9 64.7 130.9 67 130.9 67 C 130.9 67.1 131 67.2 131.2 67.2 C 131.18 67.22 131.7 67.2 131.7 67.2 L 131.7 68.5 C 131.7 68.5 130.29 68.5 130.3 68.5 C 129.7 68.5 129.5 68.2 129.5 67.8 C 129.5 67.7 129.5 67.6 129.5 67.6 C 129.53 67.57 129.5 67.6 129.5 67.6 C 129.5 67.6 129.03 68.65 127.7 68.6 C 126.6 68.6 125.6 68 125.6 66.7 C 125.6 64.8 128.2 64.7 129.2 64.7 Z M 128 67.5 C 128.8 67.5 129.4 66.6 129.4 65.9 C 129.42 65.85 129.4 65.7 129.4 65.7 C 129.4 65.7 129.15 65.71 129.2 65.7 C 128.4 65.7 127.1 65.8 127.1 66.7 C 127.1 67.1 127.4 67.5 128 67.5 Z M 132.9 63.9 C 132.9 63.8 132.8 63.7 132.6 63.7 C 132.62 63.68 132.1 63.7 132.1 63.7 L 132.1 62.4 C 132.1 62.4 133.55 62.38 133.5 62.4 C 134.1 62.4 134.3 62.6 134.3 63.1 C 134.3 63.1 134.3 63.2 134.3 63.2 C 134.3 63.4 134.3 63.5 134.3 63.5 C 134.3 63.5 134.3 63.5 134.3 63.5 C 134.6 63 135.3 62.2 136.5 62.2 C 137.9 62.2 138.6 62.9 138.6 64.6 C 138.6 64.6 138.6 67 138.6 67 C 138.6 67.1 138.7 67.2 138.9 67.2 C 138.91 67.22 139.4 67.2 139.4 67.2 L 139.4 68.5 C 139.4 68.5 137.94 68.5 137.9 68.5 C 137.4 68.5 137.1 68.3 137.1 67.7 C 137.1 67.7 137.1 64.9 137.1 64.9 C 137.1 64.1 136.9 63.6 136.2 63.6 C 135.3 63.6 134.7 64.1 134.5 64.9 C 134.4 65.1 134.4 65.4 134.4 65.7 C 134.4 65.7 134.4 68.5 134.4 68.5 L 132.9 68.5 C 132.9 68.5 132.89 63.94 132.9 63.9 Z M 140.7 60 L 142 60 L 142 61.4 L 140.7 61.4 L 140.7 60 Z M 140.7 63.9 C 140.7 63.8 140.6 63.7 140.4 63.7 C 140.39 63.68 139.9 63.7 139.9 63.7 L 139.9 62.4 C 139.9 62.4 141.36 62.38 141.4 62.4 C 141.9 62.4 142.2 62.6 142.2 63.2 C 142.2 63.2 142.2 67 142.2 67 C 142.2 67.1 142.3 67.2 142.4 67.2 C 142.43 67.22 142.9 67.2 142.9 67.2 L 142.9 68.5 C 142.9 68.5 141.45 68.5 141.5 68.5 C 140.9 68.5 140.7 68.3 140.7 67.7 C 140.7 67.7 140.7 63.9 140.7 63.9 Z M 146.7 62.2 C 148.4 62.2 149.4 63.5 149.4 65.1 C 149.4 65.32 149.4 65.7 149.4 65.7 C 149.4 65.7 145.14 65.71 145.1 65.7 C 145.3 66.8 146 67.4 147 67.4 C 147.96 67.35 148.7 66.7 148.7 66.7 L 149.3 67.7 C 149.3 67.7 148.39 68.65 146.9 68.6 C 144.8 68.6 143.6 67.2 143.6 65.4 C 143.6 63.6 144.8 62.2 146.7 62.2 Z M 147.8 64.7 C 147.8 63.9 147.3 63.4 146.7 63.4 C 145.9 63.4 145.4 63.9 145.2 64.7 C 145.2 64.7 147.8 64.7 147.8 64.7 Z M 151.8 64.5 C 151.8 62.8 151.3 61.1 150.4 59.6 C 150.4 59.6 151.7 59.6 151.7 59.6 C 152.7 61 153.1 62.8 153.1 64.6 C 153.1 66.4 152.6 68.3 151.7 69.6 C 151.7 69.6 150.4 69.6 150.4 69.6 C 151.3 68 151.8 66.3 151.8 64.5 Z M 155.2 62.4 L 156.7 62.4 L 156.7 63.9 L 155.2 63.9 L 155.2 62.4 Z M 155.2 67 L 156.7 67 L 156.7 68.5 L 155.2 68.5 L 155.2 67 Z M 161.7 67.2 L 163.5 67.2 C 163.5 67.2 163.55 62.44 163.5 62.4 C 163.55 62.16 163.6 61.9 163.6 61.9 L 163.5 61.9 C 163.5 61.9 163.44 62.07 163.2 62.3 C 163.16 62.35 162.5 63 162.5 63 L 161.6 62 L 163.7 60 L 165.1 60 L 165.1 67.2 L 167 67.2 L 167 68.5 L 161.7 68.5 L 161.7 67.2 Z M 168.4 66.3 C 168.4 66.3 169.22 67.18 170.5 67.2 C 171.3 67.2 171.9 66.7 171.9 65.9 C 171.9 65.2 171.2 64.7 170.3 64.7 C 170.33 64.66 169.7 64.7 169.7 64.7 L 169.4 63.9 C 169.4 63.9 170.85 61.95 170.9 62 C 171.14 61.52 171.4 61.3 171.4 61.3 L 171.4 61.3 C 171.4 61.3 171.15 61.32 170.7 61.3 C 170.7 61.3 169.6 61.3 169.6 61.3 C 169.4 61.3 169.3 61.4 169.3 61.6 C 169.33 61.58 169.3 62.1 169.3 62.1 L 167.9 62.1 C 167.9 62.1 167.91 60.8 167.9 60.8 C 167.9 60.2 168.1 60 168.7 60 C 168.66 59.98 173.3 60 173.3 60 L 173.3 61 C 173.3 61 171.33 63.4 171.3 63.4 C 172.5 63.6 173.5 64.4 173.5 65.9 C 173.5 67.3 172.4 68.6 170.5 68.6 C 168.65 68.65 167.6 67.4 167.6 67.4 L 168.4 66.3 Z M 177.8 64.5 L 184.4 64.5 L 184.4 65.7 L 177.8 65.7 L 177.8 64.5 Z M 192.8 62.4 C 192.8 61.7 192.3 61.3 191.6 61.3 C 190.9 61.3 190.5 61.6 190.5 62 C 190.48 61.95 190.5 62.3 190.5 62.3 L 189.1 62.3 C 189.1 62.3 189.07 61.48 189.1 61.5 C 189.1 60.4 190.6 59.8 191.7 59.8 C 193.1 59.8 194.4 60.8 194.4 62.4 C 194.4 65.2 190.3 65.4 190.3 67 C 190.3 67.1 190.4 67.2 190.6 67.2 C 190.6 67.2 193.1 67.2 193.1 67.2 C 193.3 67.2 193.4 67.1 193.4 66.9 C 193.39 66.91 193.4 66.4 193.4 66.4 L 194.8 66.4 C 194.8 66.4 194.8 67.69 194.8 67.7 C 194.8 68.3 194.6 68.5 194 68.5 C 194 68.5 189.5 68.5 189.5 68.5 C 188.8 68.5 188.7 68.2 188.7 67.4 C 188.7 64.3 192.8 64.5 192.8 62.4 Z M 195.8 64.2 C 195.8 61.8 196.5 59.8 198.9 59.8 C 201.2 59.8 201.9 61.8 201.9 64.2 C 201.9 66.7 201.2 68.6 198.9 68.6 C 196.5 68.6 195.8 66.7 195.8 64.2 Z M 200.4 64.2 C 200.4 62.6 200 61.3 198.9 61.3 C 197.7 61.3 197.4 62.6 197.4 64.2 C 197.4 65.9 197.7 67.2 198.9 67.2 C 200 67.2 200.4 65.9 200.4 64.2 Z M 206.7 61.5 C 206.7 61.4 206.6 61.3 206.4 61.3 C 206.4 61.28 205.9 61.3 205.9 61.3 L 205.9 60 C 205.9 60 207.37 59.98 207.4 60 C 207.9 60 208.2 60.2 208.2 60.8 C 208.2 60.8 208.2 62.9 208.2 62.9 C 208.18 63.24 208.2 63.5 208.2 63.5 C 208.2 63.5 208.18 63.45 208.2 63.5 C 208.5 62.9 209.2 62.2 210.3 62.2 C 211.7 62.2 212.4 62.9 212.4 64.6 C 212.4 64.6 212.4 67 212.4 67 C 212.4 67.1 212.5 67.2 212.7 67.2 C 212.68 67.22 213.2 67.2 213.2 67.2 L 213.2 68.5 C 213.2 68.5 211.71 68.5 211.7 68.5 C 211.2 68.5 210.9 68.3 210.9 67.7 C 210.9 67.7 210.9 64.9 210.9 64.9 C 210.9 64.1 210.7 63.6 209.9 63.6 C 209.1 63.6 208.5 64.2 208.3 64.9 C 208.2 65.1 208.2 65.4 208.2 65.7 C 208.18 65.7 208.2 68.5 208.2 68.5 L 206.7 68.5 C 206.7 68.5 206.66 61.54 206.7 61.5 Z M 217.1 62.2 C 219 62.2 220.5 63.6 220.5 65.4 C 220.5 67.3 219 68.6 217.1 68.6 C 215.3 68.6 213.8 67.3 213.8 65.4 C 213.8 63.6 215.3 62.2 217.1 62.2 Z M 217.1 67.4 C 218.1 67.4 219 66.6 219 65.4 C 219 64.3 218.1 63.5 217.1 63.5 C 216.1 63.5 215.3 64.3 215.3 65.4 C 215.3 66.6 216.1 67.4 217.1 67.4 Z M 224 62.2 C 225.37 62.24 225.8 63 225.8 63 L 225.8 63 C 225.8 63 225.81 62.83 225.8 62.6 C 225.8 62.6 225.8 61.5 225.8 61.5 C 225.8 61.4 225.7 61.3 225.5 61.3 C 225.55 61.28 225.1 61.3 225.1 61.3 L 225.1 60 C 225.1 60 226.52 59.98 226.5 60 C 227.1 60 227.3 60.2 227.3 60.8 C 227.3 60.8 227.3 67 227.3 67 C 227.3 67.1 227.4 67.2 227.6 67.2 C 227.6 67.22 228.1 67.2 228.1 67.2 L 228.1 68.5 C 228.1 68.5 226.67 68.5 226.7 68.5 C 226.1 68.5 225.9 68.2 225.9 67.9 C 225.9 67.7 225.9 67.7 225.9 67.7 C 225.91 67.65 225.9 67.7 225.9 67.7 C 225.9 67.7 225.38 68.65 224 68.6 C 222.3 68.6 221.3 67.3 221.3 65.4 C 221.3 63.5 222.4 62.2 224 62.2 Z M 225.9 65.4 C 225.9 64.5 225.4 63.5 224.3 63.5 C 223.5 63.5 222.8 64.2 222.8 65.4 C 222.8 66.6 223.4 67.4 224.3 67.4 C 225.1 67.4 225.9 66.8 225.9 65.4 Z M 229.4 63.9 C 229.4 63.8 229.3 63.7 229.1 63.7 C 229.13 63.68 228.6 63.7 228.6 63.7 L 228.6 62.4 C 228.6 62.4 230.1 62.38 230.1 62.4 C 230.7 62.4 230.9 62.6 230.9 63.2 C 230.9 63.2 230.9 67 230.9 67 C 230.9 67.1 231 67.2 231.2 67.2 C 231.18 67.22 231.6 67.2 231.6 67.2 L 231.6 68.5 C 231.6 68.5 230.21 68.5 230.2 68.5 C 229.6 68.5 229.4 68.3 229.4 67.7 C 229.4 67.7 229.4 63.9 229.4 63.9 Z M 230.4 60 L 231.8 60 L 230.6 61.6 L 229.5 61.6 L 230.4 60 Z M 233 63.9 C 233 63.8 232.9 63.7 232.7 63.7 C 232.69 63.68 232.2 63.7 232.2 63.7 L 232.2 62.4 C 232.2 62.4 233.61 62.38 233.6 62.4 C 234.2 62.4 234.4 62.6 234.4 63.1 C 234.4 63.1 234.4 63.2 234.4 63.2 C 234.4 63.4 234.4 63.5 234.4 63.5 C 234.4 63.5 234.4 63.5 234.4 63.5 C 234.7 63 235.3 62.2 236.6 62.2 C 237.9 62.2 238.7 62.9 238.7 64.6 C 238.7 64.6 238.7 67 238.7 67 C 238.7 67.1 238.8 67.2 239 67.2 C 238.98 67.22 239.5 67.2 239.5 67.2 L 239.5 68.5 C 239.5 68.5 238.01 68.5 238 68.5 C 237.4 68.5 237.2 68.3 237.2 67.7 C 237.2 67.7 237.2 64.9 237.2 64.9 C 237.2 64.1 237 63.6 236.2 63.6 C 235.4 63.6 234.8 64.1 234.6 64.9 C 234.5 65.1 234.5 65.4 234.5 65.7 C 234.46 65.7 234.5 68.5 234.5 68.5 L 233 68.5 C 233 68.5 232.95 63.94 233 63.9 Z " stroke="none" fill="#5f0f50"/>  </g>  <g id="Polygon69015">    <path d="M 1.2 41.5 L 0.4 41.5 L 0.4 40.2 C 0.4 40.2 4.31 40.15 4.3 40.2 C 5.9 40.2 7 41.3 7 42.9 C 7 44.6 5.9 45.7 4.3 45.7 C 4.31 45.73 2.8 45.7 2.8 45.7 L 2.8 48.7 L 1.2 48.7 L 1.2 41.5 Z M 4 44.4 C 4.9 44.4 5.4 43.8 5.4 42.9 C 5.4 42 4.9 41.5 4 41.5 C 4.04 41.48 2.8 41.5 2.8 41.5 L 2.8 44.4 C 2.8 44.4 4.02 44.39 4 44.4 Z M 10.5 42.4 C 12.3 42.4 13.2 43.7 13.2 45.3 C 13.22 45.49 13.2 45.9 13.2 45.9 C 13.2 45.9 8.96 45.87 9 45.9 C 9.1 47 9.9 47.5 10.8 47.5 C 11.78 47.52 12.5 46.8 12.5 46.8 L 13.2 47.9 C 13.2 47.9 12.22 48.81 10.7 48.8 C 8.7 48.8 7.4 47.3 7.4 45.6 C 7.4 43.7 8.7 42.4 10.5 42.4 Z M 11.7 44.8 C 11.6 44.1 11.1 43.6 10.5 43.6 C 9.7 43.6 9.2 44 9 44.8 C 9 44.8 11.7 44.8 11.7 44.8 Z M 14.7 44.1 C 14.7 43.9 14.6 43.8 14.4 43.8 C 14.44 43.84 14 43.8 14 43.8 L 14 42.6 C 14 42.6 15.35 42.55 15.3 42.6 C 15.9 42.6 16.2 42.8 16.2 43.3 C 16.2 43.3 16.2 43.7 16.2 43.7 C 16.16 43.88 16.1 44 16.1 44 C 16.1 44 16.16 44.04 16.2 44 C 16.4 43.2 17.2 42.5 18.1 42.5 C 18.24 42.47 18.4 42.5 18.4 42.5 L 18.4 44 C 18.4 44 18.23 43.96 18 44 C 17.4 44 16.6 44.3 16.3 45.2 C 16.3 45.5 16.2 45.9 16.2 46.2 C 16.21 46.24 16.2 48.7 16.2 48.7 L 14.7 48.7 C 14.7 48.7 14.7 44.11 14.7 44.1 Z M 22.2 42.4 C 24 42.4 25.5 43.7 25.5 45.6 C 25.5 47.5 24 48.8 22.2 48.8 C 20.3 48.8 18.8 47.5 18.8 45.6 C 18.8 43.7 20.3 42.4 22.2 42.4 Z M 22.2 47.5 C 23.1 47.5 24 46.7 24 45.6 C 24 44.5 23.1 43.7 22.2 43.7 C 21.2 43.7 20.3 44.5 20.3 45.6 C 20.3 46.7 21.2 47.5 22.2 47.5 Z M 26.9 44.1 C 26.9 43.9 26.8 43.8 26.6 43.8 C 26.63 43.84 26.1 43.8 26.1 43.8 L 26.1 42.6 C 26.1 42.6 27.54 42.55 27.5 42.6 C 28.1 42.6 28.4 42.8 28.4 43.3 C 28.4 43.3 28.4 43.7 28.4 43.7 C 28.35 43.88 28.3 44 28.3 44 C 28.3 44 28.35 44.04 28.4 44 C 28.6 43.2 29.4 42.5 30.3 42.5 C 30.43 42.47 30.6 42.5 30.6 42.5 L 30.6 44 C 30.6 44 30.42 43.96 30.2 44 C 29.6 44 28.8 44.3 28.5 45.2 C 28.5 45.5 28.4 45.9 28.4 46.2 C 28.4 46.24 28.4 48.7 28.4 48.7 L 26.9 48.7 C 26.9 48.7 26.89 44.11 26.9 44.1 Z M 34.5 44.8 C 34.51 44.83 34.7 44.8 34.7 44.8 C 34.7 44.8 34.7 44.78 34.7 44.8 C 34.7 43.9 34.4 43.6 33.6 43.6 C 33.3 43.6 32.8 43.7 32.8 44 C 32.76 43.99 32.8 44.3 32.8 44.3 L 31.3 44.3 C 31.3 44.3 31.34 43.66 31.3 43.7 C 31.3 42.5 33 42.4 33.6 42.4 C 35.6 42.4 36.2 43.5 36.2 44.8 C 36.2 44.8 36.2 47.1 36.2 47.1 C 36.2 47.3 36.3 47.4 36.5 47.4 C 36.49 47.39 37 47.4 37 47.4 L 37 48.7 C 37 48.7 35.6 48.67 35.6 48.7 C 35 48.7 34.8 48.4 34.8 48 C 34.8 47.8 34.8 47.7 34.8 47.7 C 34.84 47.73 34.8 47.7 34.8 47.7 C 34.8 47.7 34.34 48.81 33 48.8 C 31.9 48.8 30.9 48.1 30.9 46.9 C 30.9 45 33.5 44.8 34.5 44.8 Z M 33.3 47.6 C 34.2 47.6 34.7 46.8 34.7 46 C 34.73 46.02 34.7 45.9 34.7 45.9 C 34.7 45.9 34.46 45.87 34.5 45.9 C 33.7 45.9 32.4 46 32.4 46.8 C 32.4 47.2 32.7 47.6 33.3 47.6 Z M 34.1 40.2 L 35.5 40.2 L 34.3 41.8 L 33.1 41.8 L 34.1 40.2 Z M 38.2 41.7 C 38.2 41.5 38.1 41.4 37.9 41.4 C 37.9 41.44 37.4 41.4 37.4 41.4 L 37.4 40.2 C 37.4 40.2 38.87 40.15 38.9 40.2 C 39.4 40.2 39.7 40.4 39.7 41 C 39.7 41 39.7 47.1 39.7 47.1 C 39.7 47.3 39.8 47.4 39.9 47.4 C 39.95 47.39 40.4 47.4 40.4 47.4 L 40.4 48.7 C 40.4 48.7 38.98 48.67 39 48.7 C 38.4 48.7 38.2 48.4 38.2 47.9 C 38.2 47.9 38.2 41.7 38.2 41.7 Z M 41.7 44.1 C 41.7 43.9 41.6 43.8 41.4 43.8 C 41.42 43.84 40.9 43.8 40.9 43.8 L 40.9 42.6 C 40.9 42.6 42.35 42.55 42.3 42.6 C 42.9 42.6 43.2 42.8 43.2 43.2 C 43.2 43.2 43.2 43.4 43.2 43.4 C 43.2 43.5 43.1 43.7 43.1 43.7 C 43.1 43.7 43.2 43.7 43.2 43.7 C 43.4 43.2 44.1 42.4 45.3 42.4 C 46.7 42.4 47.4 43.1 47.4 44.7 C 47.4 44.7 47.4 47.1 47.4 47.1 C 47.4 47.3 47.5 47.4 47.7 47.4 C 47.71 47.39 48.2 47.4 48.2 47.4 L 48.2 48.7 C 48.2 48.7 46.74 48.67 46.7 48.7 C 46.2 48.7 45.9 48.4 45.9 47.9 C 45.9 47.9 45.9 45 45.9 45 C 45.9 44.3 45.7 43.8 45 43.8 C 44.1 43.8 43.5 44.3 43.3 45 C 43.2 45.3 43.2 45.6 43.2 45.9 C 43.2 45.86 43.2 48.7 43.2 48.7 L 41.7 48.7 C 41.7 48.7 41.69 44.11 41.7 44.1 Z M 52.4 44.8 C 52.44 44.83 52.6 44.8 52.6 44.8 C 52.6 44.8 52.63 44.78 52.6 44.8 C 52.6 43.9 52.3 43.6 51.5 43.6 C 51.2 43.6 50.7 43.7 50.7 44 C 50.69 43.99 50.7 44.3 50.7 44.3 L 49.3 44.3 C 49.3 44.3 49.27 43.66 49.3 43.7 C 49.3 42.5 50.9 42.4 51.5 42.4 C 53.6 42.4 54.2 43.5 54.2 44.8 C 54.2 44.8 54.2 47.1 54.2 47.1 C 54.2 47.3 54.3 47.4 54.4 47.4 C 54.42 47.39 54.9 47.4 54.9 47.4 L 54.9 48.7 C 54.9 48.7 53.53 48.67 53.5 48.7 C 53 48.7 52.8 48.4 52.8 48 C 52.8 47.8 52.8 47.7 52.8 47.7 C 52.76 47.73 52.7 47.7 52.7 47.7 C 52.7 47.7 52.27 48.81 50.9 48.8 C 49.8 48.8 48.8 48.1 48.8 46.9 C 48.8 45 51.4 44.8 52.4 44.8 Z M 51.3 47.6 C 52.1 47.6 52.7 46.8 52.7 46 C 52.66 46.02 52.7 45.9 52.7 45.9 C 52.7 45.9 52.39 45.87 52.4 45.9 C 51.6 45.9 50.3 46 50.3 46.8 C 50.3 47.2 50.6 47.6 51.3 47.6 Z M 59.3 41.7 C 59.3 41.5 59.2 41.4 59 41.4 C 58.99 41.44 58.5 41.4 58.5 41.4 L 58.5 40.2 C 58.5 40.2 59.96 40.15 60 40.2 C 60.5 40.2 60.8 40.4 60.8 41 C 60.8 41 60.8 42.7 60.8 42.7 C 60.78 43.04 60.8 43.3 60.8 43.3 L 60.8 43.3 C 60.8 43.3 61.32 42.41 62.6 42.4 C 64.3 42.4 65.3 43.7 65.3 45.6 C 65.3 47.6 64.1 48.8 62.5 48.8 C 61.25 48.81 60.7 47.9 60.7 47.9 L 60.7 47.9 C 60.7 47.9 60.69 48.12 60.7 48.4 C 60.69 48.36 60.7 48.7 60.7 48.7 L 59.3 48.7 C 59.3 48.7 59.26 41.71 59.3 41.7 Z M 62.3 47.5 C 63.1 47.5 63.8 46.8 63.8 45.6 C 63.8 44.5 63.2 43.7 62.3 43.7 C 61.5 43.7 60.7 44.3 60.7 45.6 C 60.7 46.6 61.2 47.5 62.3 47.5 Z M 66.8 40.2 L 68.2 40.2 L 68.2 41.6 L 66.8 41.6 L 66.8 40.2 Z M 66.8 44.1 C 66.8 43.9 66.7 43.8 66.5 43.8 C 66.5 43.84 66 43.8 66 43.8 L 66 42.6 C 66 42.6 67.48 42.55 67.5 42.6 C 68 42.6 68.3 42.8 68.3 43.4 C 68.3 43.4 68.3 47.1 68.3 47.1 C 68.3 47.3 68.4 47.4 68.5 47.4 C 68.54 47.39 69 47.4 69 47.4 L 69 48.7 C 69 48.7 67.57 48.67 67.6 48.7 C 67 48.7 66.8 48.4 66.8 47.9 C 66.8 47.9 66.8 44.1 66.8 44.1 Z M 73 42.4 C 74.9 42.4 76.4 43.7 76.4 45.6 C 76.4 47.5 74.9 48.8 73 48.8 C 71.2 48.8 69.7 47.5 69.7 45.6 C 69.7 43.7 71.2 42.4 73 42.4 Z M 73 47.5 C 74 47.5 74.9 46.7 74.9 45.6 C 74.9 44.5 74 43.7 73 43.7 C 72.1 43.7 71.2 44.5 71.2 45.6 C 71.2 46.7 72.1 47.5 73 47.5 Z M 77.7 41.7 C 77.7 41.5 77.6 41.4 77.4 41.4 C 77.39 41.44 76.9 41.4 76.9 41.4 L 76.9 40.2 C 76.9 40.2 78.36 40.15 78.4 40.2 C 78.9 40.2 79.2 40.4 79.2 41 C 79.2 41 79.2 47.1 79.2 47.1 C 79.2 47.3 79.3 47.4 79.4 47.4 C 79.44 47.39 79.9 47.4 79.9 47.4 L 79.9 48.7 C 79.9 48.7 78.47 48.67 78.5 48.7 C 77.9 48.7 77.7 48.4 77.7 47.9 C 77.7 47.9 77.7 41.7 77.7 41.7 Z M 83.9 42.4 C 85.8 42.4 87.3 43.7 87.3 45.6 C 87.3 47.5 85.8 48.8 83.9 48.8 C 82.1 48.8 80.6 47.5 80.6 45.6 C 80.6 43.7 82.1 42.4 83.9 42.4 Z M 83.9 47.5 C 84.9 47.5 85.7 46.7 85.7 45.6 C 85.7 44.5 84.9 43.7 83.9 43.7 C 82.9 43.7 82.1 44.5 82.1 45.6 C 82.1 46.7 82.9 47.5 83.9 47.5 Z M 90.8 42.4 C 92.2 42.4 92.6 43.3 92.6 43.3 C 92.64 43.27 92.7 43.3 92.7 43.3 C 92.7 43.3 92.66 43.2 92.7 43.1 C 92.7 42.8 92.9 42.6 93.3 42.6 C 93.33 42.55 94.7 42.6 94.7 42.6 L 94.7 43.8 C 94.7 43.8 94.28 43.84 94.3 43.8 C 94.1 43.8 94 43.9 94 44.1 C 94 44.1 94 48.3 94 48.3 C 94 50.4 92.4 51.2 90.8 51.2 C 90 51.2 89.2 51 88.6 50.7 C 88.62 50.66 89.1 49.5 89.1 49.5 C 89.1 49.5 89.84 49.87 90.8 49.9 C 91.7 49.9 92.5 49.5 92.5 48.4 C 92.5 48.4 92.5 48.1 92.5 48.1 C 92.51 47.94 92.5 47.8 92.5 47.8 C 92.5 47.8 92.5 47.76 92.5 47.8 C 92.1 48.3 91.6 48.5 90.8 48.5 C 89 48.5 88 47.1 88 45.5 C 88 43.8 89 42.4 90.8 42.4 Z M 92.5 45.5 C 92.5 44.1 91.8 43.7 91 43.7 C 90.1 43.7 89.6 44.4 89.6 45.4 C 89.6 46.5 90.1 47.3 91.1 47.3 C 91.8 47.3 92.5 46.8 92.5 45.5 Z M 96.1 40.2 L 97.4 40.2 L 97.4 41.6 L 96.1 41.6 L 96.1 40.2 Z M 96 44.1 C 96 43.9 96 43.8 95.8 43.8 C 95.78 43.84 95.3 43.8 95.3 43.8 L 95.3 42.6 C 95.3 42.6 96.75 42.55 96.8 42.6 C 97.3 42.6 97.6 42.8 97.6 43.4 C 97.6 43.4 97.6 47.1 97.6 47.1 C 97.6 47.3 97.7 47.4 97.8 47.4 C 97.82 47.39 98.3 47.4 98.3 47.4 L 98.3 48.7 C 98.3 48.7 96.85 48.67 96.9 48.7 C 96.3 48.7 96 48.4 96 47.9 C 96 47.9 96 44.1 96 44.1 Z M 102.3 42.4 C 103.1 42.4 104.5 42.7 104.5 43.8 C 104.54 43.78 104.5 44.5 104.5 44.5 L 103.2 44.5 C 103.2 44.5 103.2 44.17 103.2 44.2 C 103.2 43.8 102.7 43.7 102.3 43.7 C 101.3 43.7 100.5 44.5 100.5 45.6 C 100.5 46.8 101.4 47.5 102.4 47.5 C 103.46 47.48 104.2 46.7 104.2 46.7 L 104.9 47.7 C 104.9 47.7 103.95 48.81 102.3 48.8 C 100.3 48.8 99 47.4 99 45.6 C 99 43.9 100.2 42.4 102.3 42.4 Z M 106 41.7 C 106 41.5 105.9 41.4 105.7 41.4 C 105.7 41.44 105.2 41.4 105.2 41.4 L 105.2 40.2 C 105.2 40.2 106.67 40.15 106.7 40.2 C 107.2 40.2 107.5 40.3 107.5 40.8 C 107.48 40.85 107.5 44.7 107.5 44.7 C 107.5 44.7 107.94 44.71 107.9 44.7 C 108.1 44.7 108.4 44.7 108.5 44.5 C 108.51 44.48 109.8 42.6 109.8 42.6 L 111.5 42.6 C 111.5 42.6 109.91 44.85 109.9 44.9 C 109.64 45.24 109.4 45.3 109.4 45.3 L 109.4 45.4 C 109.4 45.4 109.67 45.44 109.9 45.8 C 109.9 45.8 110.6 47.2 110.6 47.2 C 110.7 47.3 110.8 47.4 111.1 47.4 C 111.08 47.39 111.5 47.4 111.5 47.4 L 111.5 48.7 C 111.5 48.7 110.36 48.67 110.4 48.7 C 109.8 48.7 109.6 48.6 109.4 48.1 C 109.4 48.1 108.4 46.2 108.4 46.2 C 108.3 46 108 46 107.8 46 C 107.82 45.99 107.5 46 107.5 46 L 107.5 48.7 L 106 48.7 C 106 48.7 105.96 41.71 106 41.7 Z M 115.6 44.8 C 115.64 44.83 115.8 44.8 115.8 44.8 C 115.8 44.8 115.84 44.78 115.8 44.8 C 115.8 43.9 115.5 43.6 114.7 43.6 C 114.4 43.6 113.9 43.7 113.9 44 C 113.89 43.99 113.9 44.3 113.9 44.3 L 112.5 44.3 C 112.5 44.3 112.48 43.66 112.5 43.7 C 112.5 42.5 114.1 42.4 114.7 42.4 C 116.8 42.4 117.4 43.5 117.4 44.8 C 117.4 44.8 117.4 47.1 117.4 47.1 C 117.4 47.3 117.5 47.4 117.6 47.4 C 117.62 47.39 118.1 47.4 118.1 47.4 L 118.1 48.7 C 118.1 48.7 116.73 48.67 116.7 48.7 C 116.2 48.7 116 48.4 116 48 C 116 47.8 116 47.7 116 47.7 C 115.97 47.73 115.9 47.7 115.9 47.7 C 115.9 47.7 115.48 48.81 114.1 48.8 C 113 48.8 112 48.1 112 46.9 C 112 45 114.6 44.8 115.6 44.8 Z M 114.5 47.6 C 115.3 47.6 115.9 46.8 115.9 46 C 115.86 46.02 115.9 45.9 115.9 45.9 C 115.9 45.9 115.6 45.87 115.6 45.9 C 114.8 45.9 113.5 46 113.5 46.8 C 113.5 47.2 113.8 47.6 114.5 47.6 Z M 115.2 40.2 L 116.6 40.2 L 115.4 41.8 L 114.3 41.8 L 115.2 40.2 Z M 124.7 42.4 C 126.01 42.41 126.4 43.1 126.4 43.1 L 126.5 43.1 C 126.5 43.1 126.46 42.99 126.5 42.8 C 126.5 42.8 126.5 41.7 126.5 41.7 C 126.5 41.5 126.4 41.4 126.2 41.4 C 126.19 41.44 125.7 41.4 125.7 41.4 L 125.7 40.2 C 125.7 40.2 127.16 40.15 127.2 40.2 C 127.7 40.2 128 40.4 128 41 C 128 41 128 47.1 128 47.1 C 128 47.3 128.1 47.4 128.2 47.4 C 128.24 47.39 128.7 47.4 128.7 47.4 L 128.7 48.7 C 128.7 48.7 127.31 48.67 127.3 48.7 C 126.8 48.7 126.6 48.4 126.6 48 C 126.6 47.9 126.6 47.8 126.6 47.8 C 126.55 47.82 126.5 47.8 126.5 47.8 C 126.5 47.8 126.02 48.81 124.6 48.8 C 123 48.8 121.9 47.5 121.9 45.6 C 121.9 43.7 123.1 42.4 124.7 42.4 Z M 126.5 45.6 C 126.5 44.6 126 43.7 125 43.7 C 124.1 43.7 123.4 44.4 123.4 45.6 C 123.4 46.8 124.1 47.5 125 47.5 C 125.7 47.5 126.5 47 126.5 45.6 Z M 132.7 42.4 C 134.6 42.4 136.1 43.7 136.1 45.6 C 136.1 47.5 134.6 48.8 132.7 48.8 C 130.8 48.8 129.4 47.5 129.4 45.6 C 129.4 43.7 130.8 42.4 132.7 42.4 Z M 132.7 47.5 C 133.7 47.5 134.5 46.7 134.5 45.6 C 134.5 44.5 133.7 43.7 132.7 43.7 C 131.7 43.7 130.9 44.5 130.9 45.6 C 130.9 46.7 131.7 47.5 132.7 47.5 Z M 137.5 46.7 C 137.5 46.7 138.25 47.63 139.3 47.6 C 139.8 47.6 140.1 47.4 140.1 47 C 140.1 46.2 136.9 46.2 136.9 44.2 C 136.9 43 138 42.4 139.3 42.4 C 140.1 42.4 141.4 42.7 141.4 43.7 C 141.42 43.68 141.4 44.3 141.4 44.3 L 140.1 44.3 C 140.1 44.3 140.08 44.01 140.1 44 C 140.1 43.7 139.6 43.6 139.3 43.6 C 138.8 43.6 138.4 43.8 138.4 44.1 C 138.4 45.1 141.6 44.9 141.6 46.9 C 141.6 48.1 140.6 48.8 139.3 48.8 C 137.61 48.81 136.8 47.7 136.8 47.7 L 137.5 46.7 Z M 143.1 43.8 L 142.3 43.8 L 142.3 42.6 L 143.1 42.6 L 143.1 40.9 L 144.6 40.9 L 144.6 42.6 L 146 42.6 L 146 43.8 L 144.6 43.8 C 144.6 43.8 144.61 46.23 144.6 46.2 C 144.6 47.2 145.4 47.4 145.8 47.4 C 145.99 47.39 146.1 47.4 146.1 47.4 L 146.1 48.7 C 146.1 48.7 145.91 48.73 145.6 48.7 C 144.8 48.7 143.1 48.5 143.1 46.4 C 143.09 46.42 143.1 43.8 143.1 43.8 Z M 147.5 44.1 C 147.5 43.9 147.4 43.8 147.2 43.8 C 147.21 43.84 146.7 43.8 146.7 43.8 L 146.7 42.6 C 146.7 42.6 148.19 42.55 148.2 42.6 C 148.7 42.6 149 42.8 149 43.4 C 149 43.4 149 46.2 149 46.2 C 149 46.9 149.2 47.4 149.9 47.4 C 151 47.4 151.7 46.4 151.7 45.4 C 151.65 45.36 151.7 42.6 151.7 42.6 L 153.2 42.6 C 153.2 42.6 153.18 47.12 153.2 47.1 C 153.2 47.3 153.3 47.4 153.4 47.4 C 153.44 47.39 153.9 47.4 153.9 47.4 L 153.9 48.7 C 153.9 48.7 152.52 48.67 152.5 48.7 C 152 48.7 151.7 48.4 151.7 48 C 151.7 48 151.7 47.8 151.7 47.8 C 151.7 47.7 151.7 47.5 151.7 47.5 C 151.7 47.5 151.7 47.5 151.7 47.5 C 151.4 48.2 150.6 48.8 149.6 48.8 C 148.3 48.8 147.5 48.2 147.5 46.5 C 147.5 46.5 147.5 44.1 147.5 44.1 Z M 155.2 44.1 C 155.2 43.9 155.1 43.8 154.9 43.8 C 154.89 43.84 154.4 43.8 154.4 43.8 L 154.4 42.6 C 154.4 42.6 155.77 42.55 155.8 42.6 C 156.3 42.6 156.5 42.8 156.5 43.1 C 156.5 43.3 156.5 43.4 156.5 43.4 C 156.54 43.38 156.6 43.4 156.6 43.4 C 156.6 43.4 157.08 42.41 158.5 42.4 C 160.2 42.4 161.2 43.7 161.2 45.6 C 161.2 47.6 160 48.8 158.4 48.8 C 157.21 48.81 156.7 48 156.7 48 L 156.6 48 C 156.6 48 156.67 48.23 156.7 48.5 C 156.67 48.54 156.7 51.1 156.7 51.1 L 155.2 51.1 C 155.2 51.1 155.16 44.11 155.2 44.1 Z M 158.1 47.5 C 159 47.5 159.7 46.8 159.7 45.6 C 159.7 44.5 159.1 43.7 158.2 43.7 C 157.4 43.7 156.6 44.3 156.6 45.6 C 156.6 46.6 157.1 47.5 158.1 47.5 Z M 162.6 44.1 C 162.6 43.9 162.5 43.8 162.3 43.8 C 162.35 43.84 161.9 43.8 161.9 43.8 L 161.9 42.6 C 161.9 42.6 163.27 42.55 163.3 42.6 C 163.8 42.6 164.1 42.8 164.1 43.2 C 164.1 43.2 164.1 43.4 164.1 43.4 C 164.1 43.5 164 43.7 164 43.7 C 164 43.7 164.1 43.7 164.1 43.7 C 164.3 43.2 165 42.4 166.2 42.4 C 167.6 42.4 168.4 43.1 168.4 44.7 C 168.4 44.7 168.4 47.1 168.4 47.1 C 168.4 47.3 168.5 47.4 168.6 47.4 C 168.63 47.39 169.1 47.4 169.1 47.4 L 169.1 48.7 C 169.1 48.7 167.66 48.67 167.7 48.7 C 167.1 48.7 166.8 48.4 166.8 47.9 C 166.8 47.9 166.8 45 166.8 45 C 166.8 44.3 166.7 43.8 165.9 43.8 C 165.1 43.8 164.5 44.3 164.2 45 C 164.2 45.3 164.1 45.6 164.1 45.9 C 164.12 45.86 164.1 48.7 164.1 48.7 L 162.6 48.7 C 162.6 48.7 162.61 44.11 162.6 44.1 Z M 173.1 42.4 C 174.9 42.4 176.4 43.7 176.4 45.6 C 176.4 47.5 174.9 48.8 173.1 48.8 C 171.2 48.8 169.7 47.5 169.7 45.6 C 169.7 43.7 171.2 42.4 173.1 42.4 Z M 173.1 47.5 C 174.1 47.5 174.9 46.7 174.9 45.6 C 174.9 44.5 174.1 43.7 173.1 43.7 C 172.1 43.7 171.2 44.5 171.2 45.6 C 171.2 46.7 172.1 47.5 173.1 47.5 Z M 177.8 46.7 C 177.8 46.7 178.6 47.63 179.6 47.6 C 180.1 47.6 180.5 47.4 180.5 47 C 180.5 46.2 177.3 46.2 177.3 44.2 C 177.3 43 178.4 42.4 179.6 42.4 C 180.5 42.4 181.8 42.7 181.8 43.7 C 181.77 43.68 181.8 44.3 181.8 44.3 L 180.4 44.3 C 180.4 44.3 180.43 44.01 180.4 44 C 180.4 43.7 180 43.6 179.7 43.6 C 179.1 43.6 178.7 43.8 178.7 44.1 C 178.7 45.1 182 44.9 182 46.9 C 182 48.1 181 48.8 179.6 48.8 C 177.97 48.81 177.1 47.7 177.1 47.7 L 177.8 46.7 Z M 183.5 43.8 L 182.7 43.8 L 182.7 42.6 L 183.5 42.6 L 183.5 40.9 L 185 40.9 L 185 42.6 L 186.4 42.6 L 186.4 43.8 L 185 43.8 C 185 43.8 185 46.23 185 46.2 C 185 47.2 185.8 47.4 186.2 47.4 C 186.38 47.39 186.5 47.4 186.5 47.4 L 186.5 48.7 C 186.5 48.7 186.3 48.73 186 48.7 C 185.2 48.7 183.5 48.5 183.5 46.4 C 183.48 46.42 183.5 43.8 183.5 43.8 Z M 186.8 40.2 C 186.9 40.4 186.9 40.6 186.9 40.8 C 186.9 41.1 186.8 41.5 186.6 41.9 C 186.6 41.9 185.6 41.9 185.6 41.9 C 185.7 41.5 185.8 41.2 185.8 40.9 C 185.8 40.7 185.8 40.4 185.7 40.2 C 185.7 40.2 186.8 40.2 186.8 40.2 Z M 188.5 42.6 L 189.9 42.6 L 189.9 44.1 L 188.5 44.1 L 188.5 42.6 Z M 188.5 47.1 L 189.9 47.1 L 189.9 48.7 L 188.5 48.7 L 188.5 47.1 Z M 195 44.7 L 200.8 42.2 L 200.8 43.5 L 196.6 45.2 L 196.6 45.2 L 200.8 47 L 200.8 48.3 L 195 45.7 L 195 44.7 Z M 203 46.4 C 203 46.4 203.75 47.35 205 47.4 C 205.9 47.4 206.6 46.7 206.6 45.9 C 206.6 45 205.7 44.5 204.7 44.5 C 203.78 44.48 203.1 44.9 203.1 44.9 L 202.6 44.6 C 202.6 44.6 202.87 40.97 202.9 41 C 202.9 40.4 203.1 40.2 203.7 40.2 C 203.7 40.2 206.8 40.2 206.8 40.2 C 207.4 40.2 207.6 40.4 207.6 41 C 207.63 40.97 207.6 42.3 207.6 42.3 L 206.2 42.3 C 206.2 42.3 206.21 41.74 206.2 41.7 C 206.2 41.6 206.1 41.5 205.9 41.5 C 205.9 41.5 204.5 41.5 204.5 41.5 C 204.4 41.5 204.3 41.6 204.3 41.7 C 204.3 41.7 204.2 42.9 204.2 42.9 C 204.14 43.15 204.1 43.3 204.1 43.3 L 204.1 43.3 C 204.1 43.3 204.53 43.16 205 43.2 C 207 43.2 208.1 44.4 208.1 46 C 208.1 47.4 207 48.8 205 48.8 C 203.19 48.82 202.2 47.6 202.2 47.6 L 203 46.4 Z M 212.6 41.9 C 212.6 40.9 213.5 40 214.6 40 C 215.7 40 216.6 40.9 216.6 41.9 C 216.6 43 215.7 43.8 214.6 43.8 C 213.5 43.8 212.6 43 212.6 41.9 Z M 219.5 40.1 L 220.9 40.1 L 214.3 48.7 L 212.9 48.7 L 219.5 40.1 Z M 215.4 41.9 C 215.4 41.5 215 41.1 214.6 41.1 C 214.1 41.1 213.8 41.5 213.8 41.9 C 213.8 42.3 214.1 42.7 214.6 42.7 C 215 42.7 215.4 42.3 215.4 41.9 Z M 219.2 45 C 220.3 45 221.2 45.9 221.2 46.9 C 221.2 48 220.3 48.8 219.2 48.8 C 218.2 48.8 217.3 48 217.3 46.9 C 217.3 45.9 218.2 45 219.2 45 Z M 218.5 46.9 C 218.5 47.4 218.8 47.7 219.2 47.7 C 219.7 47.7 220.1 47.4 220.1 46.9 C 220.1 46.5 219.7 46.1 219.2 46.1 C 218.8 46.1 218.5 46.5 218.5 46.9 C 218.5 46.9 218.5 46.9 218.5 46.9 Z " stroke="none" fill="#5f0f50"/>  </g>  <g id="Polygon69014">    <path d="M 0.7 21.9 C 0.6 21.7 0.6 21.6 0.3 21.6 C 0.35 21.65 0.1 21.6 0.1 21.6 L 0.1 20.3 C 0.1 20.3 1.13 20.32 1.1 20.3 C 1.7 20.3 1.9 20.5 2.1 21 C 2.1 21 3.8 25.8 3.8 25.8 C 3.94 26.24 4.1 27 4.1 27 L 4.1 27 C 4.1 27 4.27 26.24 4.4 25.8 C 4.4 25.8 6.1 21 6.1 21 C 6.3 20.5 6.5 20.3 7.1 20.3 C 7.07 20.32 8.1 20.3 8.1 20.3 L 8.1 21.6 C 8.1 21.6 7.85 21.65 7.8 21.6 C 7.6 21.6 7.5 21.7 7.5 21.9 C 7.48 21.91 4.9 28.8 4.9 28.8 L 3.3 28.8 C 3.3 28.8 0.72 21.91 0.7 21.9 Z M 9.7 30.1 C 10.1 30.1 10.5 29.8 10.7 29.3 C 10.69 29.29 10.9 28.8 10.9 28.8 C 10.9 28.8 8.86 24.23 8.9 24.2 C 8.8 24 8.7 24 8.5 24 C 8.53 24.01 8.4 24 8.4 24 L 8.4 22.7 C 8.4 22.7 9.36 22.72 9.4 22.7 C 9.8 22.7 10 22.9 10.2 23.3 C 10.2 23.3 11.4 26.4 11.4 26.4 C 11.48 26.66 11.6 27.2 11.6 27.2 L 11.6 27.2 C 11.6 27.2 11.7 26.66 11.8 26.4 C 11.8 26.4 12.9 23.3 12.9 23.3 C 13 22.9 13.2 22.7 13.7 22.7 C 13.67 22.72 14.7 22.7 14.7 22.7 L 14.7 24 C 14.7 24 14.52 24.01 14.5 24 C 14.3 24 14.2 24 14.2 24.2 C 14.2 24.2 12 29.8 12 29.8 C 11.5 30.9 10.7 31.4 9.8 31.4 C 8.81 31.35 8.2 30.7 8.2 30.7 L 8.8 29.7 C 8.8 29.7 9.18 30.07 9.7 30.1 Z M 15.8 21.9 C 15.8 21.7 15.7 21.6 15.5 21.6 C 15.54 21.61 15.1 21.6 15.1 21.6 L 15.1 20.3 C 15.1 20.3 16.51 20.32 16.5 20.3 C 17.1 20.3 17.3 20.6 17.3 21.1 C 17.3 21.1 17.3 27.3 17.3 27.3 C 17.3 27.5 17.4 27.6 17.6 27.6 C 17.59 27.55 18.1 27.6 18.1 27.6 L 18.1 28.8 C 18.1 28.8 16.62 28.83 16.6 28.8 C 16 28.8 15.8 28.6 15.8 28 C 15.8 28 15.8 21.9 15.8 21.9 Z M 19.3 24.3 C 19.3 24.1 19.2 24 19 24 C 19.04 24.01 18.6 24 18.6 24 L 18.6 22.7 C 18.6 22.7 20.02 22.72 20 22.7 C 20.6 22.7 20.8 23 20.8 23.5 C 20.8 23.5 20.8 26.3 20.8 26.3 C 20.8 27.1 21 27.6 21.8 27.6 C 22.9 27.6 23.5 26.6 23.5 25.5 C 23.48 25.52 23.5 22.7 23.5 22.7 L 25 22.7 C 25 22.7 25.01 27.29 25 27.3 C 25 27.5 25.1 27.6 25.3 27.6 C 25.27 27.55 25.8 27.6 25.8 27.6 L 25.8 28.8 C 25.8 28.8 24.35 28.83 24.3 28.8 C 23.8 28.8 23.5 28.6 23.5 28.2 C 23.5 28.2 23.5 28 23.5 28 C 23.5 27.8 23.6 27.7 23.6 27.7 C 23.6 27.7 23.5 27.7 23.5 27.7 C 23.2 28.3 22.5 29 21.4 29 C 20.1 29 19.3 28.3 19.3 26.7 C 19.3 26.7 19.3 24.3 19.3 24.3 Z M 29.7 22.6 C 30.5 22.6 31.9 22.9 31.9 23.9 C 31.94 23.95 31.9 24.7 31.9 24.7 L 30.6 24.7 C 30.6 24.7 30.6 24.33 30.6 24.3 C 30.6 24 30.1 23.9 29.7 23.9 C 28.7 23.9 27.9 24.7 27.9 25.8 C 27.9 27 28.8 27.6 29.8 27.6 C 30.86 27.65 31.6 26.8 31.6 26.8 L 32.3 27.9 C 32.3 27.9 31.36 28.98 29.7 29 C 27.7 29 26.4 27.6 26.4 25.8 C 26.4 24 27.6 22.6 29.7 22.6 Z M 27.7 20.3 L 28.9 20.3 L 29.5 21.3 L 29.5 21.3 L 30.1 20.3 L 31.3 20.3 L 30.1 21.9 L 28.8 21.9 L 27.7 20.3 Z M 33.4 24.3 C 33.4 24.1 33.3 24 33.2 24 C 33.16 24.01 32.7 24 32.7 24 L 32.7 22.7 C 32.7 22.7 34.13 22.72 34.1 22.7 C 34.7 22.7 34.9 23 34.9 23.5 C 34.9 23.5 34.9 26.3 34.9 26.3 C 34.9 27.1 35.1 27.6 35.9 27.6 C 37 27.6 37.6 26.6 37.6 25.5 C 37.6 25.52 37.6 22.7 37.6 22.7 L 39.1 22.7 C 39.1 22.7 39.12 27.29 39.1 27.3 C 39.1 27.5 39.2 27.6 39.4 27.6 C 39.38 27.55 39.9 27.6 39.9 27.6 L 39.9 28.8 C 39.9 28.8 38.46 28.83 38.5 28.8 C 37.9 28.8 37.7 28.6 37.7 28.2 C 37.7 28.2 37.7 28 37.7 28 C 37.7 27.8 37.7 27.7 37.7 27.7 C 37.7 27.7 37.6 27.7 37.6 27.7 C 37.4 28.3 36.6 29 35.5 29 C 34.2 29 33.4 28.3 33.4 26.7 C 33.4 26.7 33.4 24.3 33.4 24.3 Z M 41.4 20.3 L 42.8 20.3 L 42.8 21.7 L 41.4 21.7 L 41.4 20.3 Z M 40.1 30 C 40.6 30 41.4 29.9 41.4 28.9 C 41.4 28.9 41.4 24.3 41.4 24.3 C 41.4 24.1 41.3 24 41.1 24 C 41.1 24.01 40.6 24 40.6 24 L 40.6 22.7 C 40.6 22.7 42.07 22.72 42.1 22.7 C 42.6 22.7 42.9 23 42.9 23.5 C 42.9 23.5 42.9 29 42.9 29 C 42.9 31.1 41.2 31.3 40.3 31.3 C 40.1 31.3 39.9 31.3 39.9 31.3 C 39.88 31.28 39.9 30 39.9 30 C 39.9 30 39.98 30.02 40.1 30 Z M 47.3 22.6 C 49 22.6 50 23.9 50 25.5 C 49.97 25.65 49.9 26 49.9 26 C 49.9 26 45.71 26.04 45.7 26 C 45.8 27.1 46.6 27.7 47.5 27.7 C 48.53 27.68 49.3 27 49.3 27 L 49.9 28.1 C 49.9 28.1 48.96 28.98 47.4 29 C 45.4 29 44.1 27.5 44.1 25.8 C 44.1 23.9 45.4 22.6 47.3 22.6 Z M 48.4 25 C 48.4 24.3 47.9 23.7 47.3 23.7 C 46.5 23.7 45.9 24.2 45.8 25 C 45.8 25 48.4 25 48.4 25 Z M 54.6 26.9 C 54.6 26.9 55.43 27.79 56.5 27.8 C 56.9 27.8 57.3 27.6 57.3 27.2 C 57.3 26.3 54.1 26.3 54.1 24.4 C 54.1 23.1 55.2 22.6 56.4 22.6 C 57.3 22.6 58.6 22.8 58.6 23.8 C 58.59 23.84 58.6 24.5 58.6 24.5 L 57.3 24.5 C 57.3 24.5 57.25 24.18 57.3 24.2 C 57.3 23.9 56.8 23.7 56.5 23.7 C 55.9 23.7 55.6 23.9 55.6 24.3 C 55.6 25.3 58.8 25.1 58.8 27.1 C 58.8 28.3 57.8 29 56.5 29 C 54.79 28.98 53.9 27.9 53.9 27.9 L 54.6 26.9 Z M 63.3 25 C 63.28 25 63.5 25 63.5 25 C 63.5 25 63.47 24.95 63.5 24.9 C 63.5 24.1 63.1 23.7 62.3 23.7 C 62.1 23.7 61.5 23.8 61.5 24.2 C 61.52 24.15 61.5 24.5 61.5 24.5 L 60.1 24.5 C 60.1 24.5 60.11 23.83 60.1 23.8 C 60.1 22.7 61.7 22.6 62.4 22.6 C 64.4 22.6 65 23.6 65 25 C 65 25 65 27.3 65 27.3 C 65 27.5 65.1 27.6 65.3 27.6 C 65.25 27.55 65.7 27.6 65.7 27.6 L 65.7 28.8 C 65.7 28.8 64.37 28.83 64.4 28.8 C 63.8 28.8 63.6 28.5 63.6 28.2 C 63.6 28 63.6 27.9 63.6 27.9 C 63.6 27.9 63.6 27.9 63.6 27.9 C 63.6 27.9 63.11 28.98 61.7 29 C 60.6 29 59.6 28.3 59.6 27.1 C 59.6 25.2 62.3 25 63.3 25 Z M 62.1 27.8 C 62.9 27.8 63.5 26.9 63.5 26.2 C 63.49 26.18 63.5 26 63.5 26 C 63.5 26 63.23 26.04 63.2 26 C 62.4 26 61.2 26.1 61.2 27 C 61.2 27.4 61.5 27.8 62.1 27.8 Z M 69.5 28 C 69.5 28 72.29 24.57 72.3 24.6 C 72.56 24.23 72.8 24 72.8 24 L 72.8 24 C 72.8 24 72.62 24.01 72.2 24 C 72.2 24 71.1 24 71.1 24 C 71 24 70.9 24.1 70.9 24.3 C 70.87 24.27 70.9 24.6 70.9 24.6 L 69.5 24.6 C 69.5 24.6 69.49 23.53 69.5 23.5 C 69.5 23 69.7 22.7 70.3 22.7 C 70.31 22.72 74.8 22.7 74.8 22.7 L 74.8 23.5 C 74.8 23.5 71.97 26.99 72 27 C 71.7 27.32 71.5 27.6 71.5 27.6 L 71.5 27.6 C 71.5 27.6 71.64 27.54 72 27.5 C 72 27.5 73.4 27.5 73.4 27.5 C 73.5 27.5 73.6 27.5 73.6 27.3 C 73.64 27.28 73.6 26.9 73.6 26.9 L 75 26.9 C 75 26.9 75.02 28.02 75 28 C 75 28.6 74.8 28.8 74.2 28.8 C 74.22 28.83 69.5 28.8 69.5 28.8 L 69.5 28 Z M 79.1 24.2 C 79 24.1 78.9 24 78.7 24 C 78.73 24.01 78.6 24 78.6 24 L 78.6 22.7 C 78.6 22.7 79.48 22.72 79.5 22.7 C 80 22.7 80.2 22.9 80.4 23.3 C 80.4 23.3 81.5 26.5 81.5 26.5 C 81.66 26.87 81.8 27.4 81.8 27.4 L 81.8 27.4 C 81.8 27.4 81.87 26.87 82 26.5 C 82 26.5 83.1 23.3 83.1 23.3 C 83.3 22.9 83.6 22.7 84 22.7 C 84.05 22.72 84.9 22.7 84.9 22.7 L 84.9 24 C 84.9 24 84.72 24.01 84.7 24 C 84.5 24 84.4 24.1 84.4 24.2 C 84.38 24.23 82.6 28.8 82.6 28.8 L 80.8 28.8 C 80.8 28.8 79.07 24.23 79.1 24.2 Z M 89 25 C 88.97 25 89.2 25 89.2 25 C 89.2 25 89.16 24.95 89.2 24.9 C 89.2 24.1 88.8 23.7 88 23.7 C 87.8 23.7 87.2 23.8 87.2 24.2 C 87.21 24.15 87.2 24.5 87.2 24.5 L 85.8 24.5 C 85.8 24.5 85.8 23.83 85.8 23.8 C 85.8 22.7 87.4 22.6 88 22.6 C 90.1 22.6 90.7 23.6 90.7 25 C 90.7 25 90.7 27.3 90.7 27.3 C 90.7 27.5 90.8 27.6 90.9 27.6 C 90.95 27.55 91.4 27.6 91.4 27.6 L 91.4 28.8 C 91.4 28.8 90.06 28.83 90.1 28.8 C 89.5 28.8 89.3 28.5 89.3 28.2 C 89.3 28 89.3 27.9 89.3 27.9 C 89.29 27.9 89.3 27.9 89.3 27.9 C 89.3 27.9 88.8 28.98 87.4 29 C 86.3 29 85.3 28.3 85.3 27.1 C 85.3 25.2 88 25 89 25 Z M 87.8 27.8 C 88.6 27.8 89.2 26.9 89.2 26.2 C 89.18 26.18 89.2 26 89.2 26 C 89.2 26 88.92 26.04 88.9 26 C 88.1 26 86.9 26.1 86.9 27 C 86.9 27.4 87.2 27.8 87.8 27.8 Z M 93 20.3 L 94.3 20.3 L 94.3 21.7 L 93 21.7 L 93 20.3 Z M 91.7 30 C 92.1 30 92.9 29.9 92.9 28.9 C 92.9 28.9 92.9 24.3 92.9 24.3 C 92.9 24.1 92.8 24 92.7 24 C 92.65 24.01 92.2 24 92.2 24 L 92.2 22.7 C 92.2 22.7 93.62 22.72 93.6 22.7 C 94.2 22.7 94.4 23 94.4 23.5 C 94.4 23.5 94.4 29 94.4 29 C 94.4 31.1 92.7 31.3 91.9 31.3 C 91.6 31.3 91.4 31.3 91.4 31.3 C 91.43 31.28 91.4 30 91.4 30 C 91.4 30 91.54 30.02 91.7 30 Z M 98.8 22.6 C 100.6 22.6 101.5 23.9 101.5 25.5 C 101.52 25.65 101.5 26 101.5 26 C 101.5 26 97.26 26.04 97.3 26 C 97.4 27.1 98.2 27.7 99.1 27.7 C 100.08 27.68 100.8 27 100.8 27 L 101.4 28.1 C 101.4 28.1 100.51 28.98 99 29 C 97 29 95.7 27.5 95.7 25.8 C 95.7 23.9 97 22.6 98.8 22.6 Z M 100 25 C 99.9 24.3 99.4 23.7 98.8 23.7 C 98 23.7 97.5 24.2 97.3 25 C 97.3 25 100 25 100 25 Z M 105.7 22.6 C 106.5 22.6 107.9 22.9 107.9 23.9 C 107.95 23.95 107.9 24.7 107.9 24.7 L 106.6 24.7 C 106.6 24.7 106.61 24.33 106.6 24.3 C 106.6 24 106.1 23.9 105.7 23.9 C 104.7 23.9 103.9 24.7 103.9 25.8 C 103.9 27 104.8 27.6 105.8 27.6 C 106.87 27.65 107.6 26.8 107.6 26.8 L 108.3 27.9 C 108.3 27.9 107.36 28.98 105.7 29 C 103.7 29 102.4 27.6 102.4 25.8 C 102.4 24 103.6 22.6 105.7 22.6 Z M 103.8 20.3 L 104.9 20.3 L 105.5 21.3 L 105.5 21.3 L 106.1 20.3 L 107.3 20.3 L 106.2 21.9 L 104.9 21.9 L 103.8 20.3 Z M 109.5 24.3 C 109.5 24.1 109.4 24 109.2 24 C 109.19 24.01 108.7 24 108.7 24 L 108.7 22.7 C 108.7 22.7 110.11 22.72 110.1 22.7 C 110.7 22.7 110.9 23 110.9 23.4 C 110.9 23.4 110.9 23.6 110.9 23.6 C 110.9 23.7 110.9 23.8 110.9 23.8 C 110.9 23.8 110.9 23.8 110.9 23.8 C 111.2 23.3 111.8 22.6 113.1 22.6 C 114.4 22.6 115.2 23.3 115.2 24.9 C 115.2 24.9 115.2 27.3 115.2 27.3 C 115.2 27.5 115.3 27.6 115.5 27.6 C 115.47 27.55 116 27.6 116 27.6 L 116 28.8 C 116 28.8 114.5 28.83 114.5 28.8 C 113.9 28.8 113.7 28.6 113.7 28 C 113.7 28 113.7 25.2 113.7 25.2 C 113.7 24.5 113.5 24 112.7 24 C 111.9 24 111.3 24.5 111.1 25.2 C 111 25.5 111 25.7 111 26 C 110.96 26.03 111 28.8 111 28.8 L 109.5 28.8 C 109.5 28.8 109.45 24.27 109.5 24.3 Z M 117.2 24.3 C 117.2 24.1 117.1 24 117 24 C 116.96 24.01 116.5 24 116.5 24 L 116.5 22.7 C 116.5 22.7 117.93 22.72 117.9 22.7 C 118.5 22.7 118.7 23 118.7 23.5 C 118.7 23.5 118.7 27.3 118.7 27.3 C 118.7 27.5 118.8 27.6 119 27.6 C 119.01 27.55 119.5 27.6 119.5 27.6 L 119.5 28.8 C 119.5 28.8 118.04 28.83 118 28.8 C 117.5 28.8 117.2 28.6 117.2 28 C 117.2 28 117.2 24.3 117.2 24.3 Z M 118.2 20.3 L 119.7 20.3 L 118.4 22 L 117.3 22 L 118.2 20.3 Z M 120.7 21.9 C 120.7 21.7 120.6 21.6 120.5 21.6 C 120.48 21.61 120 21.6 120 21.6 L 120 20.3 C 120 20.3 121.45 20.32 121.5 20.3 C 122 20.3 122.3 20.4 122.3 21 C 122.27 21.01 122.3 24.9 122.3 24.9 C 122.3 24.9 122.72 24.88 122.7 24.9 C 122.9 24.9 123.2 24.8 123.3 24.6 C 123.3 24.65 124.5 22.7 124.5 22.7 L 126.2 22.7 C 126.2 22.7 124.69 25.02 124.7 25 C 124.43 25.4 124.2 25.5 124.2 25.5 L 124.2 25.5 C 124.2 25.5 124.45 25.61 124.7 26 C 124.7 26 125.4 27.3 125.4 27.3 C 125.5 27.5 125.6 27.6 125.9 27.6 C 125.87 27.55 126.3 27.6 126.3 27.6 L 126.3 28.8 C 126.3 28.8 125.15 28.83 125.1 28.8 C 124.6 28.8 124.4 28.7 124.2 28.3 C 124.2 28.3 123.2 26.4 123.2 26.4 C 123 26.2 122.8 26.2 122.6 26.2 C 122.6 26.16 122.3 26.2 122.3 26.2 L 122.3 28.8 L 120.7 28.8 C 120.7 28.8 120.74 21.87 120.7 21.9 Z M 130.1 22.6 C 131.9 22.6 133.4 23.9 133.4 25.8 C 133.4 27.7 131.9 29 130.1 29 C 128.2 29 126.7 27.7 126.7 25.8 C 126.7 23.9 128.2 22.6 130.1 22.6 Z M 130.1 27.7 C 131.1 27.7 131.9 26.9 131.9 25.8 C 131.9 24.6 131.1 23.9 130.1 23.9 C 129.1 23.9 128.3 24.6 128.3 25.8 C 128.3 26.9 129.1 27.7 130.1 27.7 Z M 134.3 24.2 C 134.2 24.1 134.1 24 134 24 C 133.97 24.01 133.8 24 133.8 24 L 133.8 22.7 C 133.8 22.7 134.71 22.72 134.7 22.7 C 135.2 22.7 135.5 22.9 135.6 23.3 C 135.6 23.3 136.8 26.5 136.8 26.5 C 136.89 26.87 137 27.4 137 27.4 L 137 27.4 C 137 27.4 137.11 26.87 137.2 26.5 C 137.2 26.5 138.4 23.3 138.4 23.3 C 138.5 22.9 138.8 22.7 139.3 22.7 C 139.28 22.72 140.1 22.7 140.1 22.7 L 140.1 24 C 140.1 24 139.95 24.01 140 24 C 139.8 24 139.7 24.1 139.6 24.2 C 139.62 24.23 137.9 28.8 137.9 28.8 L 136.1 28.8 C 136.1 28.8 134.3 24.23 134.3 24.2 Z " stroke="none" fill="#5f0f50"/>  </g>  <g id="Polygon69013">    <path d="M 0.4 7.7 C 0.4 7.7 0.92 7.67 0.9 7.7 C 1.1 7.7 1.2 7.6 1.2 7.4 C 1.19 7.4 1.2 0.5 1.2 0.5 L 2.6 0.5 C 2.6 0.5 5.83 5.2 5.8 5.2 C 6.17 5.69 6.5 6.4 6.5 6.4 L 6.6 6.4 C 6.6 6.4 6.48 5.69 6.5 5.2 C 6.5 5.2 6.5 1.3 6.5 1.3 C 6.5 0.7 6.7 0.5 7.3 0.5 C 7.3 0.48 8.8 0.5 8.8 0.5 L 8.8 1.8 C 8.8 1.8 8.32 1.81 8.3 1.8 C 8.1 1.8 8.1 1.9 8.1 2.1 C 8.05 2.08 8.1 9 8.1 9 L 6.6 9 C 6.6 9 3.41 4.3 3.4 4.3 C 3.07 3.82 2.7 3.1 2.7 3.1 L 2.7 3.1 C 2.7 3.1 2.76 3.8 2.8 4.3 C 2.8 4.3 2.8 8.2 2.8 8.2 C 2.8 8.8 2.5 9 1.9 9 C 1.94 9 0.4 9 0.4 9 L 0.4 7.7 Z M 13.2 5.2 C 13.15 5.16 13.3 5.2 13.3 5.2 C 13.3 5.2 13.34 5.11 13.3 5.1 C 13.3 4.2 13 3.9 12.2 3.9 C 11.9 3.9 11.4 4 11.4 4.3 C 11.4 4.32 11.4 4.6 11.4 4.6 L 10 4.6 C 10 4.6 9.98 4 10 4 C 10 2.9 11.6 2.7 12.2 2.7 C 14.3 2.7 14.9 3.8 14.9 5.2 C 14.9 5.2 14.9 7.5 14.9 7.5 C 14.9 7.6 15 7.7 15.1 7.7 C 15.13 7.72 15.6 7.7 15.6 7.7 L 15.6 9 C 15.6 9 14.24 9 14.2 9 C 13.7 9 13.5 8.7 13.5 8.3 C 13.5 8.2 13.5 8.1 13.5 8.1 C 13.48 8.06 13.5 8.1 13.5 8.1 C 13.5 8.1 12.98 9.14 11.6 9.1 C 10.5 9.1 9.5 8.5 9.5 7.2 C 9.5 5.3 12.2 5.2 13.2 5.2 Z M 12 8 C 12.8 8 13.4 7.1 13.4 6.3 C 13.37 6.35 13.4 6.2 13.4 6.2 C 13.4 6.2 13.1 6.2 13.1 6.2 C 12.3 6.2 11.1 6.3 11.1 7.2 C 11.1 7.6 11.4 8 12 8 Z M 17.2 0.5 L 18.5 0.5 L 18.5 1.9 L 17.2 1.9 L 17.2 0.5 Z M 15.9 10.2 C 16.3 10.2 17.1 10.1 17.1 9.1 C 17.1 9.1 17.1 4.4 17.1 4.4 C 17.1 4.3 17 4.2 16.8 4.2 C 16.84 4.18 16.4 4.2 16.4 4.2 L 16.4 2.9 C 16.4 2.9 17.81 2.88 17.8 2.9 C 18.4 2.9 18.6 3.1 18.6 3.7 C 18.6 3.7 18.6 9.2 18.6 9.2 C 18.6 11.2 16.9 11.5 16.1 11.5 C 15.8 11.5 15.6 11.4 15.6 11.4 C 15.61 11.45 15.6 10.2 15.6 10.2 C 15.6 10.2 15.72 10.19 15.9 10.2 Z M 23.2 2.7 C 24 2.7 25.5 3.1 25.5 4.1 C 25.45 4.12 25.5 4.8 25.5 4.8 L 24.1 4.8 C 24.1 4.8 24.11 4.5 24.1 4.5 C 24.1 4.2 23.6 4 23.2 4 C 22.2 4 21.4 4.8 21.4 5.9 C 21.4 7.2 22.3 7.8 23.3 7.8 C 24.37 7.81 25.1 7 25.1 7 L 25.8 8 C 25.8 8 24.86 9.14 23.2 9.1 C 21.2 9.1 19.9 7.7 19.9 5.9 C 19.9 4.2 21.1 2.7 23.2 2.7 Z M 21.3 0.5 L 22.4 0.5 L 23 1.5 L 23 1.5 L 23.6 0.5 L 24.8 0.5 L 23.7 2.1 L 22.4 2.1 L 21.3 0.5 Z M 30 5.2 C 29.99 5.16 30.2 5.2 30.2 5.2 C 30.2 5.2 30.18 5.11 30.2 5.1 C 30.2 4.2 29.8 3.9 29.1 3.9 C 28.8 3.9 28.2 4 28.2 4.3 C 28.23 4.32 28.2 4.6 28.2 4.6 L 26.8 4.6 C 26.8 4.6 26.82 4 26.8 4 C 26.8 2.9 28.4 2.7 29.1 2.7 C 31.1 2.7 31.7 3.8 31.7 5.2 C 31.7 5.2 31.7 7.5 31.7 7.5 C 31.7 7.6 31.8 7.7 32 7.7 C 31.97 7.72 32.4 7.7 32.4 7.7 L 32.4 9 C 32.4 9 31.08 9 31.1 9 C 30.5 9 30.3 8.7 30.3 8.3 C 30.3 8.2 30.3 8.1 30.3 8.1 C 30.31 8.06 30.3 8.1 30.3 8.1 C 30.3 8.1 29.82 9.14 28.4 9.1 C 27.3 9.1 26.4 8.5 26.4 7.2 C 26.4 5.3 29 5.2 30 5.2 Z M 28.8 8 C 29.6 8 30.2 7.1 30.2 6.3 C 30.2 6.35 30.2 6.2 30.2 6.2 C 30.2 6.2 29.94 6.2 29.9 6.2 C 29.1 6.2 27.9 6.3 27.9 7.2 C 27.9 7.6 28.2 8 28.8 8 Z M 33.7 7.1 C 33.7 7.1 34.48 7.96 35.5 8 C 36 8 36.3 7.8 36.3 7.4 C 36.3 6.5 33.1 6.5 33.1 4.5 C 33.1 3.3 34.2 2.7 35.5 2.7 C 36.3 2.7 37.6 3 37.6 4 C 37.64 4.01 37.6 4.6 37.6 4.6 L 36.3 4.6 C 36.3 4.6 36.3 4.34 36.3 4.3 C 36.3 4.1 35.9 3.9 35.5 3.9 C 35 3.9 34.6 4.1 34.6 4.5 C 34.6 5.4 37.9 5.2 37.9 7.3 C 37.9 8.4 36.9 9.1 35.5 9.1 C 33.84 9.14 33 8.1 33 8.1 L 33.7 7.1 Z M 39.3 4.1 L 38.5 4.1 L 38.5 2.9 L 39.3 2.9 L 39.3 1.2 L 40.8 1.2 L 40.8 2.9 L 42.2 2.9 L 42.2 4.1 L 40.8 4.1 C 40.8 4.1 40.83 6.56 40.8 6.6 C 40.8 7.6 41.6 7.7 42 7.7 C 42.21 7.72 42.3 7.7 42.3 7.7 L 42.3 9 C 42.3 9 42.13 9.06 41.9 9.1 C 41 9.1 39.3 8.8 39.3 6.8 C 39.31 6.76 39.3 4.1 39.3 4.1 Z M 46.1 2.7 C 47.9 2.7 48.8 4 48.8 5.6 C 48.84 5.82 48.8 6.2 48.8 6.2 C 48.8 6.2 44.58 6.2 44.6 6.2 C 44.7 7.3 45.5 7.8 46.4 7.8 C 47.4 7.85 48.1 7.2 48.1 7.2 L 48.8 8.2 C 48.8 8.2 47.83 9.14 46.3 9.1 C 44.3 9.1 43 7.7 43 5.9 C 43 4.1 44.3 2.7 46.1 2.7 Z M 47.3 5.1 C 47.3 4.4 46.8 3.9 46.1 3.9 C 45.3 3.9 44.8 4.4 44.6 5.1 C 44.6 5.1 47.3 5.1 47.3 5.1 Z M 50.6 0.5 L 52 0.5 L 52 1.9 L 50.6 1.9 L 50.6 0.5 Z M 49.4 10.2 C 49.8 10.2 50.6 10.1 50.6 9.1 C 50.6 9.1 50.6 4.4 50.6 4.4 C 50.6 4.3 50.5 4.2 50.3 4.2 C 50.32 4.18 49.8 4.2 49.8 4.2 L 49.8 2.9 C 49.8 2.9 51.29 2.88 51.3 2.9 C 51.9 2.9 52.1 3.1 52.1 3.7 C 52.1 3.7 52.1 9.2 52.1 9.2 C 52.1 11.2 50.4 11.5 49.5 11.5 C 49.3 11.5 49.1 11.4 49.1 11.4 C 49.09 11.45 49.1 10.2 49.1 10.2 C 49.1 10.2 49.2 10.19 49.4 10.2 Z M 54 7.1 C 54 7.1 54.78 7.96 55.8 8 C 56.3 8 56.7 7.8 56.7 7.4 C 56.7 6.5 53.4 6.5 53.4 4.5 C 53.4 3.3 54.5 2.7 55.8 2.7 C 56.6 2.7 57.9 3 57.9 4 C 57.95 4.01 57.9 4.6 57.9 4.6 L 56.6 4.6 C 56.6 4.6 56.6 4.34 56.6 4.3 C 56.6 4.1 56.2 3.9 55.8 3.9 C 55.3 3.9 54.9 4.1 54.9 4.5 C 54.9 5.4 58.2 5.2 58.2 7.3 C 58.2 8.4 57.2 9.1 55.8 9.1 C 54.14 9.14 53.3 8.1 53.3 8.1 L 54 7.1 Z M 54 0.5 L 55.1 0.5 L 55.7 1.5 L 55.8 1.5 L 56.4 0.5 L 57.5 0.5 L 56.4 2.1 L 55.1 2.1 L 54 0.5 Z M 59.7 4.4 C 59.7 4.3 59.6 4.2 59.4 4.2 C 59.39 4.18 58.9 4.2 58.9 4.2 L 58.9 2.9 C 58.9 2.9 60.36 2.88 60.4 2.9 C 60.9 2.9 61.2 3.1 61.2 3.7 C 61.2 3.7 61.2 7.5 61.2 7.5 C 61.2 7.6 61.3 7.7 61.4 7.7 C 61.44 7.72 61.9 7.7 61.9 7.7 L 61.9 9 C 61.9 9 60.47 9 60.5 9 C 59.9 9 59.7 8.8 59.7 8.2 C 59.7 8.2 59.7 4.4 59.7 4.4 Z M 60.6 0.5 L 62.1 0.5 L 60.9 2.1 L 59.7 2.1 L 60.6 0.5 Z M 69.4 5.2 C 69.43 5.16 69.6 5.2 69.6 5.2 C 69.6 5.2 69.62 5.11 69.6 5.1 C 69.6 4.2 69.3 3.9 68.5 3.9 C 68.2 3.9 67.7 4 67.7 4.3 C 67.68 4.32 67.7 4.6 67.7 4.6 L 66.3 4.6 C 66.3 4.6 66.26 4 66.3 4 C 66.3 2.9 67.9 2.7 68.5 2.7 C 70.5 2.7 71.1 3.8 71.1 5.2 C 71.1 5.2 71.1 7.5 71.1 7.5 C 71.1 7.6 71.2 7.7 71.4 7.7 C 71.41 7.72 71.9 7.7 71.9 7.7 L 71.9 9 C 71.9 9 70.52 9 70.5 9 C 70 9 69.7 8.7 69.7 8.3 C 69.7 8.2 69.8 8.1 69.8 8.1 C 69.76 8.06 69.7 8.1 69.7 8.1 C 69.7 8.1 69.26 9.14 67.9 9.1 C 66.8 9.1 65.8 8.5 65.8 7.2 C 65.8 5.3 68.4 5.2 69.4 5.2 Z M 68.3 8 C 69.1 8 69.6 7.1 69.6 6.3 C 69.65 6.35 69.6 6.2 69.6 6.2 C 69.6 6.2 69.38 6.2 69.4 6.2 C 68.6 6.2 67.3 6.3 67.3 7.2 C 67.3 7.6 67.6 8 68.3 8 Z M 76.3 4.4 C 76.3 4.3 76.2 4.2 76 4.2 C 76.03 4.18 75.6 4.2 75.6 4.2 L 75.6 2.9 C 75.6 2.9 76.96 2.88 77 2.9 C 77.5 2.9 77.8 3.1 77.8 3.6 C 77.8 3.6 77.8 3.7 77.8 3.7 C 77.8 3.9 77.7 4 77.7 4 C 77.7 4 77.8 4 77.8 4 C 78 3.5 78.7 2.7 79.9 2.7 C 81.3 2.7 82.1 3.4 82.1 5.1 C 82.1 5.1 82.1 7.5 82.1 7.5 C 82.1 7.6 82.2 7.7 82.3 7.7 C 82.32 7.72 82.8 7.7 82.8 7.7 L 82.8 9 C 82.8 9 81.35 9 81.3 9 C 80.8 9 80.5 8.8 80.5 8.2 C 80.5 8.2 80.5 5.4 80.5 5.4 C 80.5 4.6 80.3 4.1 79.6 4.1 C 78.8 4.1 78.1 4.6 77.9 5.4 C 77.8 5.6 77.8 5.9 77.8 6.2 C 77.81 6.19 77.8 9 77.8 9 L 76.3 9 C 76.3 9 76.3 4.44 76.3 4.4 Z M 87 5.2 C 87.05 5.16 87.2 5.2 87.2 5.2 C 87.2 5.2 87.24 5.11 87.2 5.1 C 87.2 4.2 86.9 3.9 86.1 3.9 C 85.8 3.9 85.3 4 85.3 4.3 C 85.29 4.32 85.3 4.6 85.3 4.6 L 83.9 4.6 C 83.9 4.6 83.88 4 83.9 4 C 83.9 2.9 85.5 2.7 86.1 2.7 C 88.2 2.7 88.8 3.8 88.8 5.2 C 88.8 5.2 88.8 7.5 88.8 7.5 C 88.8 7.6 88.9 7.7 89 7.7 C 89.03 7.72 89.5 7.7 89.5 7.7 L 89.5 9 C 89.5 9 88.14 9 88.1 9 C 87.6 9 87.4 8.7 87.4 8.3 C 87.4 8.2 87.4 8.1 87.4 8.1 C 87.37 8.06 87.3 8.1 87.3 8.1 C 87.3 8.1 86.88 9.14 85.5 9.1 C 84.4 9.1 83.4 8.5 83.4 7.2 C 83.4 5.3 86.1 5.2 87 5.2 Z M 85.9 8 C 86.7 8 87.3 7.1 87.3 6.3 C 87.26 6.35 87.3 6.2 87.3 6.2 C 87.3 6.2 87 6.2 87 6.2 C 86.2 6.2 84.9 6.3 84.9 7.2 C 84.9 7.6 85.2 8 85.9 8 Z M 91.1 0.5 L 92.4 0.5 L 92.4 1.9 L 91.1 1.9 L 91.1 0.5 Z M 89.8 10.2 C 90.2 10.2 91 10.1 91 9.1 C 91 9.1 91 4.4 91 4.4 C 91 4.3 90.9 4.2 90.7 4.2 C 90.73 4.18 90.3 4.2 90.3 4.2 L 90.3 2.9 C 90.3 2.9 91.7 2.88 91.7 2.9 C 92.3 2.9 92.5 3.1 92.5 3.7 C 92.5 3.7 92.5 9.2 92.5 9.2 C 92.5 11.2 90.8 11.5 90 11.5 C 89.7 11.5 89.5 11.4 89.5 11.4 C 89.51 11.45 89.5 10.2 89.5 10.2 C 89.5 10.2 89.62 10.19 89.8 10.2 Z M 94.4 7.1 C 94.4 7.1 95.19 7.96 96.2 8 C 96.7 8 97.1 7.8 97.1 7.4 C 97.1 6.5 93.8 6.5 93.8 4.5 C 93.8 3.3 94.9 2.7 96.2 2.7 C 97 2.7 98.4 3 98.4 4 C 98.36 4.01 98.4 4.6 98.4 4.6 L 97 4.6 C 97 4.6 97.02 4.34 97 4.3 C 97 4.1 96.6 3.9 96.3 3.9 C 95.7 3.9 95.3 4.1 95.3 4.5 C 95.3 5.4 98.6 5.2 98.6 7.3 C 98.6 8.4 97.6 9.1 96.2 9.1 C 94.56 9.14 93.7 8.1 93.7 8.1 L 94.4 7.1 Z M 100.1 0.5 L 101.4 0.5 L 101.4 1.9 L 100.1 1.9 L 100.1 0.5 Z M 100.1 4.4 C 100.1 4.3 100 4.2 99.8 4.2 C 99.79 4.18 99.3 4.2 99.3 4.2 L 99.3 2.9 C 99.3 2.9 100.76 2.88 100.8 2.9 C 101.3 2.9 101.6 3.1 101.6 3.7 C 101.6 3.7 101.6 7.5 101.6 7.5 C 101.6 7.6 101.7 7.7 101.8 7.7 C 101.83 7.72 102.3 7.7 102.3 7.7 L 102.3 9 C 102.3 9 100.86 9 100.9 9 C 100.3 9 100.1 8.8 100.1 8.2 C 100.1 8.2 100.1 4.4 100.1 4.4 Z M 103.6 2 C 103.6 1.9 103.5 1.8 103.3 1.8 C 103.3 1.78 102.8 1.8 102.8 1.8 L 102.8 0.5 C 102.8 0.5 104.27 0.48 104.3 0.5 C 104.8 0.5 105.1 0.7 105.1 1.3 C 105.1 1.3 105.1 7.5 105.1 7.5 C 105.1 7.6 105.2 7.7 105.3 7.7 C 105.35 7.72 105.8 7.7 105.8 7.7 L 105.8 9 C 105.8 9 104.37 9 104.4 9 C 103.8 9 103.6 8.8 103.6 8.2 C 103.6 8.2 103.6 2 103.6 2 Z M 107.1 4.4 C 107.1 4.3 107 4.2 106.8 4.2 C 106.82 4.18 106.3 4.2 106.3 4.2 L 106.3 2.9 C 106.3 2.9 107.75 2.88 107.7 2.9 C 108.3 2.9 108.5 3.1 108.5 3.6 C 108.5 3.6 108.5 3.7 108.5 3.7 C 108.5 3.9 108.5 4 108.5 4 C 108.5 4 108.5 4 108.5 4 C 108.8 3.5 109.5 2.7 110.7 2.7 C 112.1 2.7 112.8 3.4 112.8 5.1 C 112.8 5.1 112.8 7.5 112.8 7.5 C 112.8 7.6 112.9 7.7 113.1 7.7 C 113.11 7.72 113.6 7.7 113.6 7.7 L 113.6 9 C 113.6 9 112.14 9 112.1 9 C 111.6 9 111.3 8.8 111.3 8.2 C 111.3 8.2 111.3 5.4 111.3 5.4 C 111.3 4.6 111.1 4.1 110.4 4.1 C 109.5 4.1 108.9 4.6 108.7 5.4 C 108.6 5.6 108.6 5.9 108.6 6.2 C 108.6 6.19 108.6 9 108.6 9 L 107.1 9 C 107.1 9 107.09 4.44 107.1 4.4 Z M 117.3 2.7 C 119.1 2.7 120 4 120 5.6 C 120.01 5.82 120 6.2 120 6.2 C 120 6.2 115.75 6.2 115.7 6.2 C 115.9 7.3 116.7 7.8 117.6 7.8 C 118.57 7.85 119.3 7.2 119.3 7.2 L 119.9 8.2 C 119.9 8.2 119 9.14 117.5 9.1 C 115.4 9.1 114.2 7.7 114.2 5.9 C 114.2 4.1 115.5 2.7 117.3 2.7 Z M 118.5 5.1 C 118.4 4.4 117.9 3.9 117.3 3.9 C 116.5 3.9 116 4.4 115.8 5.1 C 115.8 5.1 118.5 5.1 118.5 5.1 Z M 121.8 0.5 L 123.1 0.5 L 123.1 1.9 L 121.8 1.9 L 121.8 0.5 Z M 120.5 10.2 C 121 10.2 121.8 10.1 121.8 9.1 C 121.8 9.1 121.8 4.4 121.8 4.4 C 121.8 4.3 121.7 4.2 121.5 4.2 C 121.49 4.18 121 4.2 121 4.2 L 121 2.9 C 121 2.9 122.46 2.88 122.5 2.9 C 123 2.9 123.3 3.1 123.3 3.7 C 123.3 3.7 123.3 9.2 123.3 9.2 C 123.3 11.2 121.6 11.5 120.7 11.5 C 120.4 11.5 120.3 11.4 120.3 11.4 C 120.26 11.45 120.3 10.2 120.3 10.2 C 120.3 10.2 120.37 10.19 120.5 10.2 Z M 125.2 7.1 C 125.2 7.1 125.95 7.96 127 8 C 127.5 8 127.8 7.8 127.8 7.4 C 127.8 6.5 124.6 6.5 124.6 4.5 C 124.6 3.3 125.7 2.7 127 2.7 C 127.8 2.7 129.1 3 129.1 4 C 129.12 4.01 129.1 4.6 129.1 4.6 L 127.8 4.6 C 127.8 4.6 127.77 4.34 127.8 4.3 C 127.8 4.1 127.3 3.9 127 3.9 C 126.5 3.9 126.1 4.1 126.1 4.5 C 126.1 5.4 129.3 5.2 129.3 7.3 C 129.3 8.4 128.3 9.1 127 9.1 C 125.31 9.14 124.5 8.1 124.5 8.1 L 125.2 7.1 Z M 125.2 0.5 L 126.3 0.5 L 126.9 1.5 L 126.9 1.5 L 127.5 0.5 L 128.7 0.5 L 127.6 2.1 L 126.3 2.1 L 125.2 0.5 Z M 130.8 4.4 C 130.8 4.3 130.7 4.2 130.6 4.2 C 130.56 4.18 130.1 4.2 130.1 4.2 L 130.1 2.9 C 130.1 2.9 131.53 2.88 131.5 2.9 C 132.1 2.9 132.3 3.1 132.3 3.7 C 132.3 3.7 132.3 7.5 132.3 7.5 C 132.3 7.6 132.4 7.7 132.6 7.7 C 132.61 7.72 133.1 7.7 133.1 7.7 L 133.1 9 C 133.1 9 131.64 9 131.6 9 C 131.1 9 130.8 8.8 130.8 8.2 C 130.8 8.2 130.8 4.4 130.8 4.4 Z M 131.8 0.5 L 133.3 0.5 L 132 2.1 L 130.9 2.1 L 131.8 0.5 Z M 140.1 2.7 C 141.8 2.7 142.8 4 142.8 5.6 C 142.77 5.82 142.7 6.2 142.7 6.2 C 142.7 6.2 138.51 6.2 138.5 6.2 C 138.6 7.3 139.4 7.8 140.4 7.8 C 141.33 7.85 142.1 7.2 142.1 7.2 L 142.7 8.2 C 142.7 8.2 141.77 9.14 140.2 9.1 C 138.2 9.1 137 7.7 137 5.9 C 137 4.1 138.2 2.7 140.1 2.7 Z M 141.2 5.1 C 141.2 4.4 140.7 3.9 140.1 3.9 C 139.3 3.9 138.7 4.4 138.6 5.1 C 138.6 5.1 141.2 5.1 141.2 5.1 Z M 144.3 7.1 C 144.3 7.1 145.05 7.96 146.1 8 C 146.6 8 146.9 7.8 146.9 7.4 C 146.9 6.5 143.7 6.5 143.7 4.5 C 143.7 3.3 144.8 2.7 146.1 2.7 C 146.9 2.7 148.2 3 148.2 4 C 148.22 4.01 148.2 4.6 148.2 4.6 L 146.9 4.6 C 146.9 4.6 146.88 4.34 146.9 4.3 C 146.9 4.1 146.4 3.9 146.1 3.9 C 145.6 3.9 145.2 4.1 145.2 4.5 C 145.2 5.4 148.4 5.2 148.4 7.3 C 148.4 8.4 147.4 9.1 146.1 9.1 C 144.42 9.14 143.6 8.1 143.6 8.1 L 144.3 7.1 Z M 149.9 4.1 L 149.1 4.1 L 149.1 2.9 L 149.9 2.9 L 149.9 1.2 L 151.4 1.2 L 151.4 2.9 L 152.8 2.9 L 152.8 4.1 L 151.4 4.1 C 151.4 4.1 151.41 6.56 151.4 6.6 C 151.4 7.6 152.2 7.7 152.6 7.7 C 152.79 7.72 152.9 7.7 152.9 7.7 L 152.9 9 C 152.9 9 152.71 9.06 152.4 9.1 C 151.6 9.1 149.9 8.8 149.9 6.8 C 149.89 6.76 149.9 4.1 149.9 4.1 Z M 154.3 4.4 C 154.3 4.3 154.2 4.2 154 4.2 C 154.04 4.18 153.6 4.2 153.6 4.2 L 153.6 2.9 C 153.6 2.9 154.95 2.88 155 2.9 C 155.5 2.9 155.8 3.1 155.8 3.6 C 155.8 3.6 155.8 4 155.8 4 C 155.77 4.21 155.7 4.4 155.7 4.4 C 155.7 4.4 155.77 4.37 155.8 4.4 C 156 3.5 156.8 2.8 157.7 2.8 C 157.84 2.8 158 2.8 158 2.8 L 158 4.3 C 158 4.3 157.83 4.3 157.6 4.3 C 157 4.3 156.2 4.7 155.9 5.6 C 155.9 5.9 155.8 6.2 155.8 6.6 C 155.82 6.58 155.8 9 155.8 9 L 154.3 9 C 154.3 9 154.31 4.44 154.3 4.4 Z M 161.8 2.7 C 163.6 2.7 165.1 4.1 165.1 5.9 C 165.1 7.8 163.6 9.1 161.8 9.1 C 159.9 9.1 158.4 7.8 158.4 5.9 C 158.4 4.1 159.9 2.7 161.8 2.7 Z M 161.8 7.8 C 162.8 7.8 163.6 7.1 163.6 5.9 C 163.6 4.8 162.8 4 161.8 4 C 160.8 4 159.9 4.8 159.9 5.9 C 159.9 7.1 160.8 7.8 161.8 7.8 Z M 168.6 2.7 C 170 2.7 170.5 3.6 170.5 3.6 C 170.48 3.6 170.5 3.6 170.5 3.6 C 170.5 3.6 170.51 3.53 170.5 3.4 C 170.5 3.2 170.7 2.9 171.2 2.9 C 171.18 2.88 172.6 2.9 172.6 2.9 L 172.6 4.2 C 172.6 4.2 172.12 4.18 172.1 4.2 C 172 4.2 171.9 4.3 171.9 4.4 C 171.9 4.4 171.9 8.6 171.9 8.6 C 171.9 10.7 170.2 11.5 168.6 11.5 C 167.9 11.5 167 11.3 166.5 11 C 166.46 10.99 166.9 9.8 166.9 9.8 C 166.9 9.8 167.68 10.2 168.6 10.2 C 169.5 10.2 170.3 9.8 170.3 8.7 C 170.3 8.7 170.3 8.4 170.3 8.4 C 170.35 8.27 170.4 8.1 170.4 8.1 C 170.4 8.1 170.34 8.09 170.3 8.1 C 170 8.6 169.4 8.9 168.6 8.9 C 166.9 8.9 165.9 7.5 165.9 5.8 C 165.9 4.1 166.8 2.7 168.6 2.7 Z M 170.4 5.8 C 170.4 4.4 169.7 4 168.9 4 C 167.9 4 167.4 4.7 167.4 5.7 C 167.4 6.8 168 7.6 169 7.6 C 169.7 7.6 170.4 7.2 170.4 5.8 Z M 176.3 2.7 C 178.1 2.7 179 4 179 5.6 C 179.05 5.82 179 6.2 179 6.2 C 179 6.2 174.79 6.2 174.8 6.2 C 174.9 7.3 175.7 7.8 176.6 7.8 C 177.61 7.85 178.3 7.2 178.3 7.2 L 179 8.2 C 179 8.2 178.04 9.14 176.5 9.1 C 174.5 9.1 173.2 7.7 173.2 5.9 C 173.2 4.1 174.5 2.7 176.3 2.7 Z M 177.5 5.1 C 177.5 4.4 177 3.9 176.3 3.9 C 175.6 3.9 175 4.4 174.8 5.1 C 174.8 5.1 177.5 5.1 177.5 5.1 Z M 176.6 0.5 L 178.1 0.5 L 176.8 2.1 L 175.7 2.1 L 176.6 0.5 Z M 180.5 4.4 C 180.5 4.3 180.4 4.2 180.3 4.2 C 180.26 4.18 179.8 4.2 179.8 4.2 L 179.8 2.9 C 179.8 2.9 181.19 2.88 181.2 2.9 C 181.7 2.9 182 3.1 182 3.6 C 182 3.6 182 3.7 182 3.7 C 182 3.9 182 4 182 4 C 182 4 182 4 182 4 C 182.3 3.5 182.9 2.7 184.1 2.7 C 185.5 2.7 186.3 3.4 186.3 5.1 C 186.3 5.1 186.3 7.5 186.3 7.5 C 186.3 7.6 186.4 7.7 186.5 7.7 C 186.55 7.72 187 7.7 187 7.7 L 187 9 C 187 9 185.58 9 185.6 9 C 185 9 184.8 8.8 184.8 8.2 C 184.8 8.2 184.8 5.4 184.8 5.4 C 184.8 4.6 184.6 4.1 183.8 4.1 C 183 4.1 182.4 4.6 182.2 5.4 C 182.1 5.6 182 5.9 182 6.2 C 182.04 6.19 182 9 182 9 L 180.5 9 C 180.5 9 180.53 4.44 180.5 4.4 Z M 191.4 4.4 C 191.4 4.3 191.3 4.2 191.1 4.2 C 191.13 4.18 190.7 4.2 190.7 4.2 L 190.7 2.9 C 190.7 2.9 192.1 2.88 192.1 2.9 C 192.7 2.9 192.9 3.1 192.9 3.7 C 192.9 3.7 192.9 6.5 192.9 6.5 C 192.9 7.2 193.1 7.8 193.9 7.8 C 195 7.8 195.6 6.8 195.6 5.7 C 195.57 5.69 195.6 2.9 195.6 2.9 L 197.1 2.9 C 197.1 2.9 197.1 7.45 197.1 7.5 C 197.1 7.6 197.2 7.7 197.4 7.7 C 197.36 7.72 197.8 7.7 197.8 7.7 L 197.8 9 C 197.8 9 196.44 9 196.4 9 C 195.9 9 195.6 8.7 195.6 8.3 C 195.6 8.3 195.6 8.1 195.6 8.1 C 195.6 8 195.6 7.9 195.6 7.9 C 195.6 7.9 195.6 7.9 195.6 7.9 C 195.3 8.5 194.6 9.1 193.5 9.1 C 192.2 9.1 191.4 8.5 191.4 6.8 C 191.4 6.8 191.4 4.4 191.4 4.4 Z M 201.6 8.2 C 201.6 8.2 204.4 4.74 204.4 4.7 C 204.68 4.39 204.9 4.2 204.9 4.2 L 204.9 4.2 C 204.9 4.2 204.74 4.18 204.4 4.2 C 204.4 4.2 203.3 4.2 203.3 4.2 C 203.1 4.2 203 4.3 203 4.4 C 202.99 4.44 203 4.8 203 4.8 L 201.6 4.8 C 201.6 4.8 201.61 3.7 201.6 3.7 C 201.6 3.1 201.8 2.9 202.4 2.9 C 202.42 2.88 206.9 2.9 206.9 2.9 L 206.9 3.7 C 206.9 3.7 204.09 7.15 204.1 7.2 C 203.82 7.49 203.6 7.7 203.6 7.7 L 203.6 7.7 C 203.6 7.7 203.76 7.7 204.2 7.7 C 204.2 7.7 205.5 7.7 205.5 7.7 C 205.7 7.7 205.8 7.6 205.8 7.4 C 205.76 7.44 205.8 7.1 205.8 7.1 L 207.1 7.1 C 207.1 7.1 207.14 8.18 207.1 8.2 C 207.1 8.8 206.9 9 206.3 9 C 206.34 9 201.6 9 201.6 9 L 201.6 8.2 Z M 202.7 0.5 L 203.8 0.5 L 204.4 1.5 L 204.4 1.5 L 205 0.5 L 206.2 0.5 L 205.1 2.1 L 203.8 2.1 L 202.7 0.5 Z M 208.5 0.5 L 209.8 0.5 L 209.8 1.9 L 208.5 1.9 L 208.5 0.5 Z M 208.4 4.4 C 208.4 4.3 208.3 4.2 208.2 4.2 C 208.17 4.18 207.7 4.2 207.7 4.2 L 207.7 2.9 C 207.7 2.9 209.14 2.88 209.1 2.9 C 209.7 2.9 209.9 3.1 209.9 3.7 C 209.9 3.7 209.9 7.5 209.9 7.5 C 209.9 7.6 210 7.7 210.2 7.7 C 210.21 7.72 210.7 7.7 210.7 7.7 L 210.7 9 C 210.7 9 209.24 9 209.2 9 C 208.7 9 208.4 8.8 208.4 8.2 C 208.4 8.2 208.4 4.4 208.4 4.4 Z M 214.5 2.7 C 216.2 2.7 217.2 4 217.2 5.6 C 217.18 5.82 217.1 6.2 217.1 6.2 C 217.1 6.2 212.92 6.2 212.9 6.2 C 213 7.3 213.8 7.8 214.8 7.8 C 215.75 7.85 216.5 7.2 216.5 7.2 L 217.1 8.2 C 217.1 8.2 216.18 9.14 214.7 9.1 C 212.6 9.1 211.4 7.7 211.4 5.9 C 211.4 4.1 212.6 2.7 214.5 2.7 Z M 215.6 5.1 C 215.6 4.4 215.1 3.9 214.5 3.9 C 213.7 3.9 213.1 4.4 213 5.1 C 213 5.1 215.6 5.1 215.6 5.1 Z M 218.7 4.4 C 218.7 4.3 218.6 4.2 218.4 4.2 C 218.4 4.18 217.9 4.2 217.9 4.2 L 217.9 2.9 C 217.9 2.9 219.32 2.88 219.3 2.9 C 219.9 2.9 220.1 3.1 220.1 3.6 C 220.1 3.6 220.1 3.7 220.1 3.7 C 220.1 3.9 220.1 4 220.1 4 C 220.1 4 220.1 4 220.1 4 C 220.4 3.5 221 2.7 222.3 2.7 C 223.6 2.7 224.4 3.4 224.4 5.1 C 224.4 5.1 224.4 7.5 224.4 7.5 C 224.4 7.6 224.5 7.7 224.7 7.7 C 224.68 7.72 225.2 7.7 225.2 7.7 L 225.2 9 C 225.2 9 223.71 9 223.7 9 C 223.1 9 222.9 8.8 222.9 8.2 C 222.9 8.2 222.9 5.4 222.9 5.4 C 222.9 4.6 222.7 4.1 221.9 4.1 C 221.1 4.1 220.5 4.6 220.3 5.4 C 220.2 5.6 220.2 5.9 220.2 6.2 C 220.17 6.19 220.2 9 220.2 9 L 218.7 9 C 218.7 9 218.66 4.44 218.7 4.4 Z M 229.2 4.4 C 229.1 4.2 229 4.2 228.8 4.2 C 228.84 4.18 228.7 4.2 228.7 4.2 L 228.7 2.9 C 228.7 2.9 229.58 2.88 229.6 2.9 C 230.1 2.9 230.3 3 230.5 3.5 C 230.5 3.5 231.6 6.7 231.6 6.7 C 231.76 7.03 231.9 7.5 231.9 7.5 L 231.9 7.5 C 231.9 7.5 231.98 7.03 232.1 6.7 C 232.1 6.7 233.3 3.5 233.3 3.5 C 233.4 3 233.7 2.9 234.2 2.9 C 234.15 2.88 235 2.9 235 2.9 L 235 4.2 C 235 4.2 234.82 4.18 234.8 4.2 C 234.7 4.2 234.5 4.2 234.5 4.4 C 234.49 4.39 232.7 9 232.7 9 L 230.9 9 C 230.9 9 229.17 4.39 229.2 4.4 Z M 239.3 4.4 C 239.3 4.3 239.2 4.2 239 4.2 C 239.01 4.18 238.5 4.2 238.5 4.2 L 238.5 2.9 C 238.5 2.9 239.92 2.88 239.9 2.9 C 240.5 2.9 240.7 3.1 240.7 3.6 C 240.7 3.6 240.7 4 240.7 4 C 240.74 4.21 240.7 4.4 240.7 4.4 C 240.7 4.4 240.74 4.37 240.7 4.4 C 241 3.5 241.7 2.8 242.7 2.8 C 242.82 2.8 243 2.8 243 2.8 L 243 4.3 C 243 4.3 242.8 4.3 242.6 4.3 C 241.9 4.3 241.2 4.7 240.9 5.6 C 240.8 5.9 240.8 6.2 240.8 6.6 C 240.79 6.58 240.8 9 240.8 9 L 239.3 9 C 239.3 9 239.28 4.44 239.3 4.4 Z M 246.5 2.7 C 248.2 2.7 249.2 4 249.2 5.6 C 249.2 5.82 249.2 6.2 249.2 6.2 C 249.2 6.2 244.94 6.2 244.9 6.2 C 245.1 7.3 245.9 7.8 246.8 7.8 C 247.76 7.85 248.5 7.2 248.5 7.2 L 249.1 8.2 C 249.1 8.2 248.19 9.14 246.7 9.1 C 244.6 9.1 243.4 7.7 243.4 5.9 C 243.4 4.1 244.7 2.7 246.5 2.7 Z M 247.6 5.1 C 247.6 4.4 247.1 3.9 246.5 3.9 C 245.7 3.9 245.2 4.4 245 5.1 C 245 5.1 247.6 5.1 247.6 5.1 Z M 250.7 4.4 C 250.7 4.3 250.6 4.2 250.4 4.2 C 250.41 4.18 249.9 4.2 249.9 4.2 L 249.9 2.9 C 249.9 2.9 251.29 2.88 251.3 2.9 C 251.9 2.9 252.1 3.1 252.1 3.5 C 252.1 3.6 252.1 3.7 252.1 3.7 C 252.06 3.71 252.1 3.7 252.1 3.7 C 252.1 3.7 252.6 2.74 254 2.7 C 255.7 2.7 256.7 4 256.7 5.9 C 256.7 7.9 255.5 9.1 253.9 9.1 C 252.73 9.14 252.2 8.3 252.2 8.3 L 252.2 8.3 C 252.2 8.3 252.19 8.56 252.2 8.9 C 252.19 8.87 252.2 11.4 252.2 11.4 L 250.7 11.4 C 250.7 11.4 250.68 4.44 250.7 4.4 Z M 253.7 7.9 C 254.5 7.9 255.2 7.2 255.2 6 C 255.2 4.8 254.6 4 253.7 4 C 252.9 4 252.2 4.6 252.2 6 C 252.2 6.9 252.7 7.9 253.7 7.9 Z M 258.1 4.4 C 258.1 4.3 258 4.2 257.9 4.2 C 257.86 4.18 257.4 4.2 257.4 4.2 L 257.4 2.9 C 257.4 2.9 258.78 2.88 258.8 2.9 C 259.3 2.9 259.6 3.1 259.6 3.6 C 259.6 3.6 259.6 4 259.6 4 C 259.59 4.21 259.6 4.4 259.6 4.4 C 259.6 4.4 259.59 4.37 259.6 4.4 C 259.9 3.5 260.6 2.8 261.5 2.8 C 261.67 2.8 261.8 2.8 261.8 2.8 L 261.8 4.3 C 261.8 4.3 261.66 4.3 261.4 4.3 C 260.8 4.3 260 4.7 259.8 5.6 C 259.7 5.9 259.6 6.2 259.6 6.6 C 259.64 6.58 259.6 9 259.6 9 L 258.1 9 C 258.1 9 258.13 4.44 258.1 4.4 Z M 265.6 2.7 C 267.5 2.7 268.9 4.1 268.9 5.9 C 268.9 7.8 267.5 9.1 265.6 9.1 C 263.7 9.1 262.2 7.8 262.2 5.9 C 262.2 4.1 263.7 2.7 265.6 2.7 Z M 265.6 7.8 C 266.6 7.8 267.4 7.1 267.4 5.9 C 267.4 4.8 266.6 4 265.6 4 C 264.6 4 263.8 4.8 263.8 5.9 C 263.8 7.1 264.6 7.8 265.6 7.8 Z M 272.5 2.7 C 273.82 2.74 274.3 3.5 274.3 3.5 L 274.3 3.5 C 274.3 3.5 274.27 3.32 274.3 3.1 C 274.3 3.1 274.3 2 274.3 2 C 274.3 1.9 274.2 1.8 274 1.8 C 274 1.78 273.5 1.8 273.5 1.8 L 273.5 0.5 C 273.5 0.5 274.98 0.48 275 0.5 C 275.5 0.5 275.8 0.7 275.8 1.3 C 275.8 1.3 275.8 7.5 275.8 7.5 C 275.8 7.6 275.9 7.7 276.1 7.7 C 276.05 7.72 276.5 7.7 276.5 7.7 L 276.5 9 C 276.5 9 275.12 9 275.1 9 C 274.6 9 274.4 8.7 274.4 8.4 C 274.4 8.2 274.4 8.1 274.4 8.1 C 274.36 8.15 274.3 8.1 274.3 8.1 C 274.3 8.1 273.84 9.14 272.4 9.1 C 270.8 9.1 269.7 7.8 269.7 5.9 C 269.7 4 270.9 2.7 272.5 2.7 Z M 274.3 5.9 C 274.3 5 273.8 4 272.8 4 C 272 4 271.3 4.7 271.3 5.9 C 271.3 7.1 271.9 7.9 272.8 7.9 C 273.6 7.9 274.3 7.3 274.3 5.9 Z M 277.8 4.4 C 277.8 4.3 277.7 4.2 277.5 4.2 C 277.5 4.18 277 4.2 277 4.2 L 277 2.9 C 277 2.9 278.47 2.88 278.5 2.9 C 279 2.9 279.3 3.1 279.3 3.7 C 279.3 3.7 279.3 6.5 279.3 6.5 C 279.3 7.2 279.5 7.8 280.2 7.8 C 281.3 7.8 281.9 6.8 281.9 5.7 C 281.94 5.69 281.9 2.9 281.9 2.9 L 283.5 2.9 C 283.5 2.9 283.46 7.45 283.5 7.5 C 283.5 7.6 283.6 7.7 283.7 7.7 C 283.72 7.72 284.2 7.7 284.2 7.7 L 284.2 9 C 284.2 9 282.8 9 282.8 9 C 282.3 9 282 8.7 282 8.3 C 282 8.3 282 8.1 282 8.1 C 282 8 282 7.9 282 7.9 C 282 7.9 282 7.9 282 7.9 C 281.7 8.5 280.9 9.1 279.9 9.1 C 278.6 9.1 277.8 8.5 277.8 6.8 C 277.8 6.8 277.8 4.4 277.8 4.4 Z M 285.4 2 C 285.4 1.9 285.3 1.8 285.1 1.8 C 285.13 1.78 284.6 1.8 284.6 1.8 L 284.6 0.5 C 284.6 0.5 286.1 0.48 286.1 0.5 C 286.7 0.5 286.9 0.6 286.9 1.2 C 286.91 1.18 286.9 5 286.9 5 C 286.9 5 287.37 5.04 287.4 5 C 287.6 5 287.8 5 287.9 4.8 C 287.95 4.81 289.2 2.9 289.2 2.9 L 290.9 2.9 C 290.9 2.9 289.34 5.18 289.3 5.2 C 289.07 5.57 288.9 5.7 288.9 5.7 L 288.9 5.7 C 288.9 5.7 289.1 5.77 289.3 6.2 C 289.3 6.2 290 7.5 290 7.5 C 290.1 7.7 290.2 7.7 290.5 7.7 C 290.51 7.72 290.9 7.7 290.9 7.7 L 290.9 9 C 290.9 9 289.79 9 289.8 9 C 289.3 9 289.1 8.9 288.8 8.5 C 288.8 8.5 287.8 6.6 287.8 6.6 C 287.7 6.3 287.4 6.3 287.3 6.3 C 287.25 6.32 286.9 6.3 286.9 6.3 L 286.9 9 L 285.4 9 C 285.4 9 285.39 2.04 285.4 2 Z M 294.7 2.7 C 295.5 2.7 296.9 3.1 296.9 4.1 C 296.93 4.12 296.9 4.8 296.9 4.8 L 295.6 4.8 C 295.6 4.8 295.59 4.5 295.6 4.5 C 295.6 4.2 295.1 4 294.7 4 C 293.7 4 292.9 4.8 292.9 5.9 C 292.9 7.2 293.8 7.8 294.8 7.8 C 295.86 7.81 296.6 7 296.6 7 L 297.3 8 C 297.3 8 296.35 9.14 294.7 9.1 C 292.7 9.1 291.4 7.7 291.4 5.9 C 291.4 4.2 292.6 2.7 294.7 2.7 Z M 292.7 0.5 L 293.9 0.5 L 294.5 1.5 L 294.5 1.5 L 295.1 0.5 L 296.3 0.5 L 295.1 2.1 L 293.8 2.1 L 292.7 0.5 Z M 298.4 4.4 C 298.4 4.3 298.3 4.2 298.2 4.2 C 298.17 4.18 297.7 4.2 297.7 4.2 L 297.7 2.9 C 297.7 2.9 299.1 2.88 299.1 2.9 C 299.6 2.9 299.9 3.1 299.9 3.6 C 299.9 3.6 299.9 3.7 299.9 3.7 C 299.9 3.9 299.9 4 299.9 4 C 299.9 4 299.9 4 299.9 4 C 300.2 3.5 300.8 2.7 302.1 2.7 C 303.4 2.7 304.2 3.4 304.2 5.1 C 304.2 5.1 304.2 7.5 304.2 7.5 C 304.2 7.6 304.3 7.7 304.5 7.7 C 304.46 7.72 304.9 7.7 304.9 7.7 L 304.9 9 C 304.9 9 303.49 9 303.5 9 C 302.9 9 302.7 8.8 302.7 8.2 C 302.7 8.2 302.7 5.4 302.7 5.4 C 302.7 4.6 302.5 4.1 301.7 4.1 C 300.9 4.1 300.3 4.6 300.1 5.4 C 300 5.6 299.9 5.9 299.9 6.2 C 299.95 6.19 299.9 9 299.9 9 L 298.4 9 C 298.4 9 298.44 4.44 298.4 4.4 Z M 308.9 2.7 C 310.8 2.7 312.2 4.1 312.2 5.9 C 312.2 7.8 310.8 9.1 308.9 9.1 C 307 9.1 305.5 7.8 305.5 5.9 C 305.5 4.1 307 2.7 308.9 2.7 Z M 308.9 7.8 C 309.9 7.8 310.7 7.1 310.7 5.9 C 310.7 4.8 309.9 4 308.9 4 C 307.9 4 307.1 4.8 307.1 5.9 C 307.1 7.1 307.9 7.8 308.9 7.8 Z M 313.6 4.4 C 313.6 4.3 313.5 4.2 313.4 4.2 C 313.36 4.18 312.9 4.2 312.9 4.2 L 312.9 2.9 C 312.9 2.9 314.29 2.88 314.3 2.9 C 314.8 2.9 315.1 3.1 315.1 3.6 C 315.1 3.6 315.1 3.7 315.1 3.7 C 315.1 3.9 315.1 4 315.1 4 C 315.1 4 315.1 4 315.1 4 C 315.4 3.4 316.1 2.7 317.1 2.7 C 318 2.7 318.6 3.2 318.9 4 C 318.9 4 318.9 4 318.9 4 C 319.2 3.3 320 2.7 321 2.7 C 322.3 2.7 323 3.5 323 5.1 C 323 5.1 323 7.5 323 7.5 C 323 7.6 323.1 7.7 323.3 7.7 C 323.25 7.72 323.7 7.7 323.7 7.7 L 323.7 9 C 323.7 9 322.28 9 322.3 9 C 321.7 9 321.5 8.8 321.5 8.2 C 321.5 8.2 321.5 5.4 321.5 5.4 C 321.5 4.7 321.3 4.1 320.6 4.1 C 319.9 4.1 319.3 4.8 319.2 5.5 C 319.1 5.8 319.1 6 319.1 6.3 C 319.06 6.31 319.1 9 319.1 9 L 317.5 9 C 317.5 9 317.54 5.35 317.5 5.4 C 317.5 4.7 317.4 4.1 316.7 4.1 C 315.9 4.1 315.4 4.8 315.2 5.5 C 315.2 5.8 315.1 6 315.1 6.3 C 315.14 6.31 315.1 9 315.1 9 L 313.6 9 C 313.6 9 313.63 4.44 313.6 4.4 Z M 327.7 4.4 C 327.7 4.2 327.6 4.2 327.4 4.2 C 327.4 4.18 327.3 4.2 327.3 4.2 L 327.3 2.9 C 327.3 2.9 328.15 2.88 328.1 2.9 C 328.7 2.9 328.9 3 329 3.5 C 329 3.5 330.2 6.7 330.2 6.7 C 330.33 7.03 330.4 7.5 330.4 7.5 L 330.5 7.5 C 330.5 7.5 330.55 7.03 330.7 6.7 C 330.7 6.7 331.8 3.5 331.8 3.5 C 332 3 332.2 2.9 332.7 2.9 C 332.72 2.88 333.5 2.9 333.5 2.9 L 333.5 4.2 C 333.5 4.2 333.39 4.18 333.4 4.2 C 333.2 4.2 333.1 4.2 333.1 4.4 C 333.05 4.39 331.3 9 331.3 9 L 329.5 9 C 329.5 9 327.74 4.39 327.7 4.4 Z M 337 2.7 C 338.8 2.7 339.8 4 339.8 5.6 C 339.75 5.82 339.7 6.2 339.7 6.2 C 339.7 6.2 335.49 6.2 335.5 6.2 C 335.6 7.3 336.4 7.8 337.3 7.8 C 338.31 7.85 339 7.2 339 7.2 L 339.7 8.2 C 339.7 8.2 338.74 9.14 337.2 9.1 C 335.2 9.1 333.9 7.7 333.9 5.9 C 333.9 4.1 335.2 2.7 337 2.7 Z M 338.2 5.1 C 338.2 4.4 337.7 3.9 337 3.9 C 336.3 3.9 335.7 4.4 335.5 5.1 C 335.5 5.1 338.2 5.1 338.2 5.1 Z M 341.2 2 C 341.2 1.9 341.1 1.8 340.9 1.8 C 340.92 1.78 340.4 1.8 340.4 1.8 L 340.4 0.5 C 340.4 0.5 341.89 0.48 341.9 0.5 C 342.5 0.5 342.7 0.6 342.7 1.2 C 342.7 1.18 342.7 5 342.7 5 C 342.7 5 343.16 5.04 343.2 5 C 343.4 5 343.6 5 343.7 4.8 C 343.73 4.81 345 2.9 345 2.9 L 346.7 2.9 C 346.7 2.9 345.13 5.18 345.1 5.2 C 344.86 5.57 344.7 5.7 344.7 5.7 L 344.7 5.7 C 344.7 5.7 344.89 5.77 345.1 6.2 C 345.1 6.2 345.8 7.5 345.8 7.5 C 345.9 7.7 346 7.7 346.3 7.7 C 346.3 7.72 346.7 7.7 346.7 7.7 L 346.7 9 C 346.7 9 345.58 9 345.6 9 C 345.1 9 344.9 8.9 344.6 8.5 C 344.6 8.5 343.6 6.6 343.6 6.6 C 343.5 6.3 343.2 6.3 343 6.3 C 343.04 6.32 342.7 6.3 342.7 6.3 L 342.7 9 L 341.2 9 C 341.2 9 341.18 2.04 341.2 2 Z M 347.8 4.4 C 347.8 4.3 347.7 4.2 347.6 4.2 C 347.58 4.18 347.1 4.2 347.1 4.2 L 347.1 2.9 C 347.1 2.9 348.55 2.88 348.5 2.9 C 349.1 2.9 349.4 3.1 349.4 3.7 C 349.4 3.7 349.4 6.5 349.4 6.5 C 349.4 7.2 349.5 7.8 350.3 7.8 C 351.4 7.8 352 6.8 352 5.7 C 352.02 5.69 352 2.9 352 2.9 L 353.5 2.9 C 353.5 2.9 353.54 7.45 353.5 7.5 C 353.5 7.6 353.6 7.7 353.8 7.7 C 353.8 7.72 354.3 7.7 354.3 7.7 L 354.3 9 C 354.3 9 352.88 9 352.9 9 C 352.4 9 352.1 8.7 352.1 8.3 C 352.1 8.3 352.1 8.1 352.1 8.1 C 352.1 8 352.1 7.9 352.1 7.9 C 352.1 7.9 352.1 7.9 352.1 7.9 C 351.8 8.5 351 9.1 350 9.1 C 348.6 9.1 347.8 8.5 347.8 6.8 C 347.8 6.8 347.8 4.4 347.8 4.4 Z " stroke="none" fill="#5f0f50"/>  </g></svg>