<?xml version="1.0" standalone="no"?><!DOCTYPE svg PUBLIC "-//W3C//DTD SVG 1.1//EN" "http://www.w3.org/Graphics/SVG/1.1/DTD/svg11.dtd"><svg xmlns="http://www.w3.org/2000/svg" version="1.1" width="127.4px" height="30px" viewBox="0 -4 127.4 30" style="top:-4px">  <desc>Estetrol (E4)1 7</desc>  <defs/>  <g id="Polygon68862">    <path d="M 2.1 2.6 L 0.8 2.6 L 0.8 0.9 C 0.8 0.9 9.06 0.88 9.1 0.9 C 10 0.9 10.3 1.3 10.3 2.2 C 10.34 2.16 10.3 3.9 10.3 3.9 L 8.5 3.9 C 8.5 3.9 8.52 3.04 8.5 3 C 8.5 2.7 8.4 2.6 8.1 2.6 C 8.08 2.6 4.1 2.6 4.1 2.6 L 4.1 7 L 9 7 L 9 8.7 L 4.1 8.7 C 4.1 8.7 4.06 12.84 4.1 12.8 C 4.1 13.1 4.2 13.3 4.5 13.3 C 4.5 13.3 8.6 13.3 8.6 13.3 C 8.9 13.3 9.1 13.1 9.1 12.8 C 9.06 12.84 9.1 11.9 9.1 11.9 L 10.9 11.9 C 10.9 11.9 10.9 13.72 10.9 13.7 C 10.9 14.6 10.5 15 9.6 15 C 9.6 15 3.3 15 3.3 15 C 2.4 15 2.1 14.6 2.1 13.7 C 2.06 13.72 2.1 2.6 2.1 2.6 Z M 12.9 12.2 C 12.9 12.2 14.1 13.66 16 13.7 C 16.9 13.7 17.7 13.2 17.7 12.4 C 17.7 10.5 12.2 10.7 12.2 7.5 C 12.2 5.5 13.9 4.6 16 4.6 C 17.2 4.6 19.3 5.1 19.3 6.6 C 19.28 6.6 19.3 7.6 19.3 7.6 L 17.5 7.6 C 17.5 7.6 17.54 7.06 17.5 7.1 C 17.5 6.5 16.6 6.2 16 6.2 C 14.9 6.2 14.1 6.6 14.1 7.4 C 14.1 9.3 19.7 8.9 19.7 12.3 C 19.7 14.1 18.1 15.2 15.9 15.2 C 13.24 15.24 11.9 13.5 11.9 13.5 L 12.9 12.2 Z M 22.2 6.4 L 20.9 6.4 L 20.9 4.9 L 22.3 4.9 L 22.3 2.1 L 24.2 2.1 L 24.2 4.9 L 26.6 4.9 L 26.6 6.4 L 24.2 6.4 C 24.2 6.4 24.16 11.08 24.2 11.1 C 24.2 13.1 25.6 13.4 26.3 13.4 C 26.58 13.36 26.8 13.3 26.8 13.3 L 26.8 15 C 26.8 15 26.5 15.08 26.1 15.1 C 24.8 15.1 22.2 14.7 22.2 11.3 C 22.22 11.3 22.2 6.4 22.2 6.4 Z M 33.1 4.6 C 35.9 4.6 37.5 6.8 37.5 9.4 C 37.46 9.64 37.4 10.2 37.4 10.2 C 37.4 10.2 30.02 10.18 30 10.2 C 30.1 12.3 31.7 13.6 33.5 13.6 C 35.24 13.56 36.5 12.4 36.5 12.4 L 37.3 13.8 C 37.3 13.8 35.8 15.24 33.4 15.2 C 30.2 15.2 28 12.9 28 9.9 C 28 6.7 30.2 4.6 33.1 4.6 Z M 35.5 8.8 C 35.4 7.1 34.3 6.2 33.1 6.2 C 31.6 6.2 30.4 7.1 30.1 8.8 C 30.1 8.8 35.5 8.8 35.5 8.8 Z M 40.1 6.4 L 38.8 6.4 L 38.8 4.9 L 40.2 4.9 L 40.2 2.1 L 42.1 2.1 L 42.1 4.9 L 44.5 4.9 L 44.5 6.4 L 42.1 6.4 C 42.1 6.4 42.06 11.08 42.1 11.1 C 42.1 13.1 43.5 13.4 44.2 13.4 C 44.48 13.36 44.7 13.3 44.7 13.3 L 44.7 15 C 44.7 15 44.4 15.08 44 15.1 C 42.7 15.1 40.1 14.7 40.1 11.3 C 40.12 11.3 40.1 6.4 40.1 6.4 Z M 47.1 7 C 47.1 6.7 46.9 6.5 46.6 6.5 C 46.64 6.54 45.8 6.5 45.8 6.5 L 45.8 4.9 C 45.8 4.9 47.66 4.88 47.7 4.9 C 48.5 4.9 49 5.2 49 6.1 C 49 6.1 49 6.7 49 6.7 C 48.96 7.1 48.9 7.4 48.9 7.4 C 48.9 7.4 48.96 7.4 49 7.4 C 49.4 5.9 50.6 4.8 52.2 4.8 C 52.42 4.76 52.7 4.8 52.7 4.8 L 52.7 6.7 C 52.7 6.7 52.42 6.66 52.1 6.7 C 50.9 6.7 49.7 7.5 49.3 9 C 49.1 9.6 49 10.2 49 10.9 C 49.02 10.86 49 15 49 15 L 47.1 15 C 47.1 15 47.08 6.98 47.1 7 Z M 58.9 4.6 C 61.9 4.6 64.3 6.9 64.3 9.9 C 64.3 13 61.9 15.2 58.9 15.2 C 55.9 15.2 53.4 13 53.4 9.9 C 53.4 6.9 55.9 4.6 58.9 4.6 Z M 58.9 13.6 C 60.8 13.6 62.4 12 62.4 9.9 C 62.4 7.8 60.8 6.3 58.9 6.3 C 57 6.3 55.4 7.8 55.4 9.9 C 55.4 12 57 13.6 58.9 13.6 Z M 66.5 3 C 66.5 2.7 66.4 2.5 66.1 2.5 C 66.1 2.54 65.3 2.5 65.3 2.5 L 65.3 0.9 C 65.3 0.9 67.2 0.88 67.2 0.9 C 68.1 0.9 68.5 1.3 68.5 2.2 C 68.5 2.2 68.5 12.9 68.5 12.9 C 68.5 13.2 68.6 13.3 68.9 13.3 C 68.92 13.34 69.7 13.3 69.7 13.3 L 69.7 15 C 69.7 15 67.82 15 67.8 15 C 66.9 15 66.5 14.6 66.5 13.7 C 66.5 13.7 66.5 3 66.5 3 Z M 79.5 0.3 C 79.5 0.3 81.2 0.3 81.2 0.3 C 79.8 2.8 79 5.4 79 8.3 C 79 11.2 79.8 14.2 81.3 16.9 C 81.3 16.9 79.6 16.9 79.6 16.9 C 78.1 14.6 77.3 11.5 77.3 8.4 C 77.3 5.4 78 2.6 79.5 0.3 Z M 84.3 2.6 L 83 2.6 L 83 0.9 C 83 0.9 91.28 0.88 91.3 0.9 C 92.2 0.9 92.6 1.3 92.6 2.2 C 92.56 2.16 92.6 3.9 92.6 3.9 L 90.7 3.9 C 90.7 3.9 90.74 3.04 90.7 3 C 90.7 2.7 90.6 2.6 90.3 2.6 C 90.3 2.6 86.3 2.6 86.3 2.6 L 86.3 7 L 91.2 7 L 91.2 8.7 L 86.3 8.7 C 86.3 8.7 86.28 12.84 86.3 12.8 C 86.3 13.1 86.4 13.3 86.7 13.3 C 86.7 13.3 90.8 13.3 90.8 13.3 C 91.1 13.3 91.3 13.1 91.3 12.8 C 91.28 12.84 91.3 11.9 91.3 11.9 L 93.1 11.9 C 93.1 11.9 93.12 13.72 93.1 13.7 C 93.1 14.6 92.7 15 91.8 15 C 91.8 15 85.6 15 85.6 15 C 84.7 15 84.3 14.6 84.3 13.7 C 84.28 13.72 84.3 2.6 84.3 2.6 Z M 93.9 10 L 100.3 0.9 L 102.6 0.9 L 102.6 9.5 L 104.8 9.5 L 104.8 11.3 L 102.6 11.3 L 102.6 15 L 100.6 15 L 100.6 11.3 L 93.9 11.3 L 93.9 10 Z M 100.6 4.7 C 100.58 4.04 100.7 3.2 100.7 3.2 L 100.6 3.2 C 100.6 3.2 100.26 3.92 99.9 4.4 C 99.9 4.4 96.8 8.7 96.8 8.7 C 96.46 9.16 96.1 9.6 96.1 9.6 L 96.1 9.6 C 96.1 9.6 96.66 9.54 97.3 9.5 C 97.28 9.54 100.6 9.5 100.6 9.5 C 100.6 9.5 100.58 4.68 100.6 4.7 Z M 108.3 8.3 C 108.3 5.4 107.5 2.8 106.1 0.3 C 106.1 0.3 107.8 0.3 107.8 0.3 C 109.3 2.6 110 5.4 110 8.4 C 110 11.5 109.2 14.6 107.7 16.9 C 107.7 16.9 106 16.9 106 16.9 C 107.5 14.2 108.3 11.2 108.3 8.3 Z M 112.4 7.3 L 114.2 7.3 C 114.2 7.3 114.23 2.02 114.2 2 C 114.23 1.76 114.2 1.5 114.2 1.5 L 114.2 1.5 C 114.2 1.5 114.13 1.69 113.8 2 C 113.84 1.99 113.1 2.7 113.1 2.7 L 112.4 2 L 114.3 0.1 L 115.4 0.1 L 115.4 7.3 L 117.2 7.3 L 117.2 8.3 L 112.4 8.3 L 112.4 7.3 Z M 117.8 4.5 L 121.2 4.5 L 121.2 5.5 L 117.8 5.5 L 117.8 4.5 Z M 125.5 1.9 C 125.73 1.39 125.9 1.1 125.9 1.1 L 125.9 1.1 C 125.9 1.1 125.76 1.11 125.4 1.1 C 125.4 1.1 122.9 1.1 122.9 1.1 C 122.7 1.1 122.6 1.2 122.6 1.4 C 122.62 1.37 122.6 1.9 122.6 1.9 L 121.5 1.9 C 121.5 1.9 121.54 0.85 121.5 0.9 C 121.5 0.3 121.7 0.1 122.3 0.1 C 122.25 0.11 127.3 0.1 127.3 0.1 L 127.3 0.9 L 123.3 8.3 L 122 8.3 C 122 8.3 125.47 1.86 125.5 1.9 Z " stroke="none" fill="#ee3078"/>  </g></svg>