<?xml version="1.0" standalone="no"?><!DOCTYPE svg PUBLIC "-//W3C//DTD SVG 1.1//EN" "http://www.w3.org/Graphics/SVG/1.1/DTD/svg11.dtd"><svg xmlns="http://www.w3.org/2000/svg" version="1.1" width="101px" height="29px" viewBox="0 0 101 29">  <desc>Bolesti chrbta</desc>  <defs/>  <g id="Polygon72376">    <path d="M 12.7 9.8 L 12 9.8 L 12 8.8 C 12 8.8 15.58 8.78 15.6 8.8 C 17 8.8 18 9.6 18 10.9 C 18 11.9 17.5 12.5 17 12.8 C 17 12.8 17 12.8 17 12.8 C 17.9 13.1 18.4 13.9 18.4 14.8 C 18.4 16.4 17.2 17.3 15.7 17.3 C 15.7 17.3 13.5 17.3 13.5 17.3 C 13 17.3 12.7 17 12.7 16.5 C 12.74 16.49 12.7 9.8 12.7 9.8 Z M 15.6 12.3 C 16.3 12.3 16.8 11.8 16.8 11.1 C 16.8 10.3 16.4 9.8 15.6 9.8 C 15.57 9.82 13.9 9.8 13.9 9.8 L 13.9 12.3 C 13.9 12.3 15.59 12.35 15.6 12.3 Z M 14.2 16.2 C 14.2 16.2 15.7 16.2 15.7 16.2 C 16.6 16.2 17.1 15.6 17.1 14.8 C 17.1 13.9 16.6 13.3 15.7 13.3 C 15.71 13.33 13.9 13.3 13.9 13.3 C 13.9 13.3 13.93 15.96 13.9 16 C 13.9 16.1 14 16.2 14.2 16.2 Z M 22.6 11 C 24.4 11 25.9 12.4 25.9 14.2 C 25.9 16.1 24.4 17.4 22.6 17.4 C 20.8 17.4 19.3 16.1 19.3 14.2 C 19.3 12.4 20.8 11 22.6 11 Z M 22.6 16.4 C 23.8 16.4 24.7 15.5 24.7 14.2 C 24.7 12.9 23.8 12 22.6 12 C 21.5 12 20.5 12.9 20.5 14.2 C 20.5 15.5 21.5 16.4 22.6 16.4 Z M 27.2 10 C 27.2 9.9 27.1 9.8 26.9 9.8 C 26.94 9.78 26.5 9.8 26.5 9.8 L 26.5 8.8 C 26.5 8.8 27.6 8.78 27.6 8.8 C 28.1 8.8 28.4 9 28.4 9.6 C 28.4 9.6 28.4 16 28.4 16 C 28.4 16.2 28.5 16.3 28.6 16.3 C 28.63 16.26 29.1 16.3 29.1 16.3 L 29.1 17.3 C 29.1 17.3 27.97 17.26 28 17.3 C 27.4 17.3 27.2 17 27.2 16.5 C 27.2 16.5 27.2 10 27.2 10 Z M 32.9 11 C 34.6 11 35.5 12.3 35.5 13.9 C 35.52 14.04 35.5 14.4 35.5 14.4 C 35.5 14.4 31.06 14.36 31.1 14.4 C 31.1 15.7 32.1 16.4 33.1 16.4 C 34.19 16.39 34.9 15.7 34.9 15.7 L 35.4 16.5 C 35.4 16.5 34.53 17.4 33.1 17.4 C 31.2 17.4 29.9 16 29.9 14.2 C 29.9 12.3 31.2 11 32.9 11 Z M 34.3 13.5 C 34.3 12.5 33.7 12 32.9 12 C 32 12 31.3 12.5 31.1 13.5 C 31.1 13.5 34.3 13.5 34.3 13.5 Z M 37 15.6 C 37 15.6 37.69 16.45 38.8 16.5 C 39.4 16.5 39.9 16.2 39.9 15.7 C 39.9 14.6 36.6 14.7 36.6 12.7 C 36.6 11.6 37.6 11 38.8 11 C 39.5 11 40.8 11.3 40.8 12.2 C 40.8 12.22 40.8 12.8 40.8 12.8 L 39.8 12.8 C 39.8 12.8 39.76 12.49 39.8 12.5 C 39.8 12.1 39.2 12 38.8 12 C 38.2 12 37.7 12.2 37.7 12.7 C 37.7 13.8 41 13.6 41 15.6 C 41 16.7 40.1 17.4 38.8 17.4 C 37.18 17.4 36.4 16.3 36.4 16.3 L 37 15.6 Z M 42.6 12.1 L 41.8 12.1 L 41.8 11.2 L 42.6 11.2 L 42.6 9.5 L 43.7 9.5 L 43.7 11.2 L 45.2 11.2 L 45.2 12.1 L 43.7 12.1 C 43.7 12.1 43.73 14.9 43.7 14.9 C 43.7 16.1 44.6 16.3 45 16.3 C 45.18 16.27 45.3 16.2 45.3 16.2 L 45.3 17.3 C 45.3 17.3 45.13 17.3 44.9 17.3 C 44.1 17.3 42.6 17.1 42.6 15 C 42.57 15.04 42.6 12.1 42.6 12.1 Z M 46.8 8.8 L 47.9 8.8 L 47.9 10 L 46.8 10 L 46.8 8.8 Z M 46.8 12.4 C 46.8 12.3 46.7 12.2 46.5 12.2 C 46.54 12.18 46 12.2 46 12.2 L 46 11.2 C 46 11.2 47.19 11.18 47.2 11.2 C 47.7 11.2 48 11.4 48 12 C 48 12 48 16 48 16 C 48 16.2 48 16.3 48.2 16.3 C 48.22 16.26 48.7 16.3 48.7 16.3 L 48.7 17.3 C 48.7 17.3 47.57 17.26 47.6 17.3 C 47 17.3 46.8 17 46.8 16.5 C 46.8 16.5 46.8 12.4 46.8 12.4 Z M 55.9 11 C 56.7 11 58.1 11.3 58.1 12.4 C 58.13 12.37 58.1 13 58.1 13 L 57.1 13 C 57.1 13 57.07 12.66 57.1 12.7 C 57.1 12.2 56.4 12 55.9 12 C 54.8 12 53.9 12.9 53.9 14.2 C 53.9 15.6 54.9 16.4 56 16.4 C 57.15 16.37 57.9 15.5 57.9 15.5 L 58.4 16.4 C 58.4 16.4 57.53 17.4 55.9 17.4 C 54 17.4 52.7 16 52.7 14.2 C 52.7 12.4 54 11 55.9 11 Z M 59.6 10 C 59.6 9.9 59.5 9.8 59.3 9.8 C 59.32 9.78 58.8 9.8 58.8 9.8 L 58.8 8.8 C 58.8 8.8 59.98 8.78 60 8.8 C 60.5 8.8 60.7 9 60.7 9.5 C 60.7 9.5 60.7 11.9 60.7 11.9 C 60.75 12.18 60.7 12.4 60.7 12.4 C 60.7 12.4 60.75 12.4 60.7 12.4 C 61 11.8 61.8 11 63 11 C 64.4 11 65.1 11.8 65.1 13.4 C 65.1 13.4 65.1 16 65.1 16 C 65.1 16.2 65.2 16.3 65.3 16.3 C 65.34 16.26 65.8 16.3 65.8 16.3 L 65.8 17.3 C 65.8 17.3 64.69 17.26 64.7 17.3 C 64.2 17.3 63.9 17 63.9 16.5 C 63.9 16.5 63.9 13.6 63.9 13.6 C 63.9 12.8 63.7 12.1 62.8 12.1 C 61.8 12.1 61.1 12.7 60.9 13.6 C 60.8 13.8 60.7 14.1 60.7 14.4 C 60.75 14.41 60.7 17.3 60.7 17.3 L 59.6 17.3 C 59.6 17.3 59.58 10.04 59.6 10 Z M 67.1 12.4 C 67.1 12.3 67 12.2 66.8 12.2 C 66.83 12.18 66.3 12.2 66.3 12.2 L 66.3 11.2 C 66.3 11.2 67.44 11.18 67.4 11.2 C 68 11.2 68.2 11.4 68.2 11.9 C 68.2 11.9 68.2 12.3 68.2 12.3 C 68.22 12.52 68.2 12.7 68.2 12.7 C 68.2 12.7 68.22 12.7 68.2 12.7 C 68.5 11.8 69.2 11.1 70.1 11.1 C 70.3 11.11 70.5 11.1 70.5 11.1 L 70.5 12.3 C 70.5 12.3 70.3 12.25 70.1 12.3 C 69.4 12.3 68.7 12.8 68.4 13.7 C 68.3 14 68.3 14.4 68.3 14.8 C 68.26 14.77 68.3 17.3 68.3 17.3 L 67.1 17.3 C 67.1 17.3 67.09 12.44 67.1 12.4 Z M 71.6 10 C 71.6 9.9 71.5 9.8 71.3 9.8 C 71.31 9.78 70.8 9.8 70.8 9.8 L 70.8 8.8 C 70.8 8.8 71.97 8.78 72 8.8 C 72.5 8.8 72.7 9 72.7 9.6 C 72.7 9.6 72.7 11.5 72.7 11.5 C 72.73 11.82 72.7 12 72.7 12 L 72.7 12 C 72.7 12 73.26 11.04 74.7 11 C 76.3 11 77.4 12.3 77.4 14.2 C 77.4 16.2 76.2 17.4 74.6 17.4 C 73.24 17.4 72.7 16.4 72.7 16.4 L 72.7 16.4 C 72.7 16.4 72.69 16.57 72.7 16.8 C 72.69 16.84 72.7 17.3 72.7 17.3 L 71.6 17.3 C 71.6 17.3 71.57 10.04 71.6 10 Z M 74.4 16.4 C 75.4 16.4 76.2 15.6 76.2 14.2 C 76.2 12.9 75.5 12.1 74.4 12.1 C 73.5 12.1 72.7 12.7 72.7 14.2 C 72.7 15.3 73.3 16.4 74.4 16.4 Z M 78.9 12.1 L 78.1 12.1 L 78.1 11.2 L 78.9 11.2 L 78.9 9.5 L 80 9.5 L 80 11.2 L 81.5 11.2 L 81.5 12.1 L 80 12.1 C 80 12.1 80.03 14.9 80 14.9 C 80 16.1 80.9 16.3 81.3 16.3 C 81.48 16.27 81.6 16.2 81.6 16.2 L 81.6 17.3 C 81.6 17.3 81.43 17.3 81.2 17.3 C 80.4 17.3 78.9 17.1 78.9 15 C 78.87 15.04 78.9 12.1 78.9 12.1 Z M 86.1 13.5 C 86.07 13.48 86.3 13.5 86.3 13.5 C 86.3 13.5 86.33 13.42 86.3 13.4 C 86.3 12.3 85.9 12 85 12 C 84.7 12 84 12 84 12.4 C 83.99 12.43 84 12.8 84 12.8 L 82.9 12.8 C 82.9 12.8 82.9 12.18 82.9 12.2 C 82.9 11.2 84.4 11 85 11 C 87 11 87.5 12.1 87.5 13.4 C 87.5 13.4 87.5 16 87.5 16 C 87.5 16.2 87.6 16.3 87.8 16.3 C 87.76 16.26 88.2 16.3 88.2 16.3 L 88.2 17.3 C 88.2 17.3 87.16 17.26 87.2 17.3 C 86.6 17.3 86.4 17 86.4 16.6 C 86.4 16.4 86.4 16.2 86.4 16.2 C 86.43 16.2 86.4 16.2 86.4 16.2 C 86.4 16.2 85.92 17.4 84.5 17.4 C 83.4 17.4 82.4 16.8 82.4 15.6 C 82.4 13.6 85 13.5 86.1 13.5 Z M 84.7 16.5 C 85.7 16.5 86.3 15.4 86.3 14.5 C 86.34 14.53 86.3 14.3 86.3 14.3 C 86.3 14.3 86.04 14.33 86 14.3 C 85.2 14.3 83.6 14.4 83.6 15.5 C 83.6 16 84 16.5 84.7 16.5 Z " stroke="none" fill="#000"/>  </g></svg>