<?xml version="1.0" standalone="no"?><!DOCTYPE svg PUBLIC "-//W3C//DTD SVG 1.1//EN" "http://www.w3.org/Graphics/SVG/1.1/DTD/svg11.dtd"><svg xmlns="http://www.w3.org/2000/svg" version="1.1" width="119.1px" height="43.5px" viewBox="0 -5 119.1 43.5" style="top:-5px">  <desc>Promo</desc>  <defs/>  <g id="Polygon66514">    <path d="M 3.2 3.3 L 1.3 3.3 L 1.3 1.4 C 1.3 1.4 10.17 1.41 10.2 1.4 C 13.9 1.4 16.7 3.9 16.7 7.8 C 16.7 11.7 13.9 14.2 10.2 14.2 C 10.17 14.22 5.3 14.2 5.3 14.2 L 5.3 22.5 L 3.2 22.5 L 3.2 3.3 Z M 9.9 12.4 C 12.7 12.4 14.5 10.7 14.5 7.8 C 14.5 4.9 12.7 3.3 9.9 3.3 C 9.93 3.27 5.3 3.3 5.3 3.3 L 5.3 12.4 C 5.3 12.4 9.9 12.36 9.9 12.4 Z M 20 9.8 C 20 9.4 19.7 9.2 19.3 9.2 C 19.32 9.18 18.1 9.2 18.1 9.2 L 18.1 7.4 C 18.1 7.4 20.16 7.41 20.2 7.4 C 21.4 7.4 22 7.9 22 9.1 C 22 9.1 22 10.1 22 10.1 C 21.99 10.77 21.9 11.3 21.9 11.3 C 21.9 11.3 21.99 11.28 22 11.3 C 22.7 9 24.4 7.3 26.8 7.3 C 27.18 7.26 27.6 7.4 27.6 7.4 L 27.6 9.4 C 27.6 9.4 27.21 9.3 26.8 9.3 C 24.7 9.3 23.1 11 22.4 13.2 C 22.1 14.2 22 15.2 22 16.1 C 22.02 16.14 22 22.5 22 22.5 L 20 22.5 C 20 22.5 19.98 9.84 20 9.8 Z M 36.8 7.1 C 41.2 7.1 44.8 10.4 44.8 14.9 C 44.8 19.4 41.2 22.9 36.8 22.9 C 32.4 22.9 28.8 19.4 28.8 14.9 C 28.8 10.4 32.4 7.1 36.8 7.1 Z M 36.8 21 C 40 21 42.7 18.4 42.7 14.9 C 42.7 11.5 40 8.9 36.8 8.9 C 33.6 8.9 30.9 11.5 30.9 14.9 C 30.9 18.4 33.6 21 36.8 21 Z M 48.6 9.8 C 48.6 9.4 48.3 9.2 47.9 9.2 C 47.91 9.18 46.6 9.2 46.6 9.2 L 46.6 7.4 C 46.6 7.4 48.75 7.41 48.7 7.4 C 50 7.4 50.6 8 50.6 9.1 C 50.6 9.1 50.6 9.8 50.6 9.8 C 50.58 10.38 50.5 10.9 50.5 10.9 C 50.5 10.9 50.58 10.86 50.6 10.9 C 51.3 8.8 53.7 7.1 56 7.1 C 58.8 7.1 60.3 8.3 60.7 10.8 C 60.7 10.8 60.8 10.8 60.8 10.8 C 61.6 8.8 63.8 7.1 66.3 7.1 C 70 7.1 71.3 9.2 71.3 12.9 C 71.3 12.9 71.3 20.1 71.3 20.1 C 71.3 20.5 71.6 20.7 72 20.7 C 72 20.73 73.3 20.7 73.3 20.7 L 73.3 22.5 C 73.3 22.5 71.13 22.5 71.1 22.5 C 69.8 22.5 69.3 22 69.3 20.7 C 69.3 20.7 69.3 13.4 69.3 13.4 C 69.3 10.9 68.8 8.9 66 8.9 C 63.7 8.9 61.9 10.9 61.3 13.2 C 61 13.8 61 14.6 61 15.4 C 60.99 15.36 61 22.5 61 22.5 L 58.9 22.5 C 58.9 22.5 58.95 13.41 58.9 13.4 C 58.9 11.1 58.6 8.9 55.8 8.9 C 53.3 8.9 51.5 11 50.8 13.4 C 50.7 14 50.6 14.7 50.6 15.4 C 50.61 15.36 50.6 22.5 50.6 22.5 L 48.6 22.5 C 48.6 22.5 48.57 9.84 48.6 9.8 Z M 83 7.1 C 87.4 7.1 91 10.4 91 14.9 C 91 19.4 87.4 22.9 83.1 22.9 C 78.7 22.9 75.1 19.4 75.1 14.9 C 75.1 10.4 78.7 7.1 83 7.1 Z M 83.1 21 C 86.3 21 88.9 18.4 88.9 14.9 C 88.9 11.5 86.3 8.9 83.1 8.9 C 79.8 8.9 77.2 11.5 77.2 14.9 C 77.2 18.4 79.8 21 83.1 21 Z M 102.7 18.8 L 113.7 14 L 113.7 13.9 L 102.7 9.2 L 102.7 7.2 L 116.2 13.2 L 116.2 14.7 L 102.7 20.8 L 102.7 18.8 Z " stroke="none" fill="#ee3078"/>  </g></svg>