<?xml version="1.0" standalone="no"?><!DOCTYPE svg PUBLIC "-//W3C//DTD SVG 1.1//EN" "http://www.w3.org/Graphics/SVG/1.1/DTD/svg11.dtd"><svg xmlns="http://www.w3.org/2000/svg" version="1.1" width="162px" height="43.5px" viewBox="0 -5 162 43.5" style="top:-5px">  <desc>Bezpe nos</desc>  <defs/>  <g id="Polygon75064">    <path d="M 3.1 3.3 L 1.2 3.3 L 1.2 1.4 C 1.2 1.4 10.17 1.41 10.2 1.4 C 13.5 1.4 15.9 3.4 15.9 6.7 C 15.9 9 14.7 10.6 13.2 11.3 C 13.2 11.3 13.2 11.4 13.2 11.4 C 15.3 12 16.7 14 16.7 16.6 C 16.7 20.3 13.9 22.5 10.4 22.5 C 10.4 22.5 5 22.5 5 22.5 C 3.7 22.5 3.1 22 3.1 20.7 C 3.15 20.67 3.1 3.3 3.1 3.3 Z M 10.1 10.6 C 12.3 10.6 13.7 9.1 13.7 6.9 C 13.7 4.7 12.3 3.3 10.1 3.3 C 10.11 3.27 5.3 3.3 5.3 3.3 L 5.3 10.6 C 5.3 10.6 10.14 10.56 10.1 10.6 Z M 5.9 20.6 C 5.9 20.6 10.4 20.6 10.4 20.6 C 13 20.6 14.5 19.1 14.5 16.5 C 14.5 14 12.8 12.4 10.4 12.4 C 10.38 12.36 5.3 12.4 5.3 12.4 C 5.3 12.4 5.25 19.98 5.3 20 C 5.3 20.4 5.5 20.6 5.9 20.6 Z M 26.8 7.1 C 31 7.1 33.1 10.3 33.1 14 C 33.15 14.37 33.1 15 33.1 15 C 33.1 15 21.51 15.03 21.5 15 C 21.6 18.8 24.2 21 27.4 21 C 30.12 21.03 31.9 19.2 31.9 19.2 L 32.9 20.7 C 32.9 20.7 30.69 22.86 27.3 22.9 C 22.8 22.9 19.4 19.6 19.4 15 C 19.4 10 22.8 7.1 26.8 7.1 Z M 31 13.4 C 30.9 10.3 29 8.8 26.8 8.8 C 24.3 8.8 22.1 10.4 21.6 13.4 C 21.6 13.4 31 13.4 31 13.4 Z M 35.8 21.2 C 35.8 21.2 44.28 10.59 44.3 10.6 C 44.85 9.87 45.5 9.2 45.5 9.2 L 45.5 9.2 C 45.5 9.2 44.97 9.21 44 9.2 C 44 9.2 38.5 9.2 38.5 9.2 C 38 9.2 37.8 9.4 37.8 9.9 C 37.8 9.87 37.8 11 37.8 11 L 35.9 11 C 35.9 11 35.88 9.24 35.9 9.2 C 35.9 8 36.4 7.4 37.7 7.4 C 37.71 7.41 48.2 7.4 48.2 7.4 L 48.2 8.8 C 48.2 8.8 39.72 19.32 39.7 19.3 C 39.12 20.04 38.5 20.7 38.5 20.7 L 38.5 20.8 C 38.5 20.8 39 20.7 40 20.7 C 40 20.7 46.2 20.7 46.2 20.7 C 46.6 20.7 46.9 20.5 46.9 20 C 46.89 20.04 46.9 18.9 46.9 18.9 L 48.8 18.9 C 48.8 18.9 48.81 20.67 48.8 20.7 C 48.8 22 48.3 22.5 47 22.5 C 46.98 22.5 35.8 22.5 35.8 22.5 L 35.8 21.2 Z M 52.2 9.8 C 52.2 9.4 52 9.2 51.5 9.2 C 51.54 9.18 50.3 9.2 50.3 9.2 L 50.3 7.4 C 50.3 7.4 52.35 7.41 52.3 7.4 C 53.6 7.4 54.1 8 54.1 9 C 54.15 9.6 54.1 10 54.1 10 L 54.2 10 C 54.2 10 55.38 7.05 59.4 7.1 C 63.4 7.1 65.9 10.3 65.9 15 C 65.9 19.7 63.1 22.9 59.2 22.9 C 55.5 22.86 54.2 20 54.2 20 L 54.2 20 C 54.2 20 54.24 20.55 54.2 21.3 C 54.24 21.33 54.2 28.5 54.2 28.5 L 52.2 28.5 C 52.2 28.5 52.2 9.84 52.2 9.8 Z M 59 21.1 C 61.6 21.1 63.8 18.8 63.8 15 C 63.8 11.3 61.9 8.9 59.1 8.9 C 56.5 8.9 54.2 10.7 54.2 15 C 54.2 18 55.8 21.1 59 21.1 Z M 75.8 7.1 C 80 7.1 82.2 10.3 82.2 14 C 82.17 14.37 82.1 15 82.1 15 C 82.1 15 70.53 15.03 70.5 15 C 70.6 18.8 73.3 21 76.4 21 C 79.14 21.03 80.9 19.2 80.9 19.2 L 81.9 20.7 C 81.9 20.7 79.71 22.86 76.3 22.9 C 71.8 22.9 68.4 19.6 68.4 15 C 68.4 10 71.8 7.1 75.8 7.1 Z M 80.1 13.4 C 79.9 10.3 78 8.8 75.8 8.8 C 73.3 8.8 71.1 10.4 70.6 13.4 C 70.6 13.4 80.1 13.4 80.1 13.4 Z M 92.8 7.1 C 94.5 7.1 98.2 7.8 98.2 10.3 C 98.16 10.26 98.2 11.6 98.2 11.6 L 96.2 11.6 C 96.2 11.6 96.24 10.74 96.2 10.7 C 96.2 9.5 94 8.9 92.8 8.9 C 89.5 8.9 86.9 11.3 86.9 15 C 86.9 18.7 89.7 21 92.8 21 C 95.94 21 97.7 18.9 97.7 18.9 L 98.7 20.4 C 98.7 20.4 96.63 22.86 92.8 22.9 C 88.3 22.9 84.8 19.7 84.8 15 C 84.8 10.4 88.3 7.1 92.8 7.1 Z M 88.8 1.4 L 90.7 1.4 L 92.3 3.8 L 92.4 3.8 L 94 1.4 L 95.9 1.4 L 93.4 5 L 91.3 5 L 88.8 1.4 Z M 102.1 9.8 C 102.1 9.4 101.8 9.2 101.4 9.2 C 101.43 9.18 100.2 9.2 100.2 9.2 L 100.2 7.4 C 100.2 7.4 102.27 7.41 102.3 7.4 C 103.5 7.4 104.1 8 104.1 9.1 C 104.1 9.1 104.1 9.8 104.1 9.8 C 104.1 10.38 104 10.9 104 10.9 C 104 10.9 104.1 10.86 104.1 10.9 C 104.6 9.5 106.6 7.1 110.1 7.1 C 113.8 7.1 115.2 9.2 115.2 12.9 C 115.2 12.9 115.2 20.1 115.2 20.1 C 115.2 20.5 115.4 20.7 115.8 20.7 C 115.83 20.73 117.1 20.7 117.1 20.7 L 117.1 22.5 C 117.1 22.5 114.96 22.5 115 22.5 C 113.7 22.5 113.1 22 113.1 20.7 C 113.1 20.7 113.1 13.4 113.1 13.4 C 113.1 11.1 112.8 9 109.9 9 C 107.3 9 105.1 10.7 104.4 13.2 C 104.2 13.9 104.1 14.6 104.1 15.3 C 104.13 15.27 104.1 22.5 104.1 22.5 L 102.1 22.5 C 102.1 22.5 102.09 9.84 102.1 9.8 Z M 126.9 7.1 C 131.3 7.1 134.8 10.4 134.8 14.9 C 134.8 19.4 131.3 22.9 126.9 22.9 C 122.5 22.9 118.9 19.4 118.9 14.9 C 118.9 10.4 122.5 7.1 126.9 7.1 Z M 126.9 21 C 130.1 21 132.7 18.4 132.7 14.9 C 132.7 11.5 130.1 8.9 126.9 8.9 C 123.7 8.9 121 11.5 121 14.9 C 121 18.4 123.7 21 126.9 21 Z M 138.1 18.8 C 138.1 18.8 139.77 21.09 142.7 21.1 C 144.4 21.1 145.9 20.3 145.9 18.7 C 145.9 15.4 137.5 16 137.5 11.1 C 137.5 8.4 139.8 7.1 142.8 7.1 C 144.4 7.1 147.4 7.7 147.4 9.8 C 147.42 9.78 147.4 11.1 147.4 11.1 L 145.5 11.1 C 145.5 11.1 145.5 10.35 145.5 10.4 C 145.5 9.2 143.9 8.8 142.9 8.8 C 140.8 8.8 139.5 9.5 139.5 11 C 139.5 14.4 148 13.6 148 18.6 C 148 21.1 145.7 22.9 142.7 22.9 C 138.78 22.86 136.9 20.2 136.9 20.2 L 138.1 18.8 Z M 152.1 9.1 L 150.1 9.1 L 150.1 7.4 L 152.1 7.4 L 152.1 3.2 L 154.1 3.2 L 154.1 7.4 L 157.9 7.4 L 157.9 9.1 L 154.1 9.1 C 154.1 9.1 154.11 16.8 154.1 16.8 C 154.1 20.3 156.4 20.8 157.5 20.8 C 157.92 20.79 158.2 20.7 158.2 20.7 L 158.2 22.6 C 158.2 22.6 157.83 22.62 157.3 22.6 C 155.6 22.6 152.1 22.1 152.1 17 C 152.07 17.01 152.1 9.1 152.1 9.1 Z M 158 1.4 C 158.2 1.9 158.2 2.4 158.2 2.9 C 158.2 3.8 157.9 4.5 157.5 5.5 C 157.5 5.5 155.9 5.5 155.9 5.5 C 156.3 4.6 156.5 3.9 156.5 3.1 C 156.5 2.6 156.4 2 156.1 1.4 C 156.1 1.4 158 1.4 158 1.4 Z " stroke="none" fill="#ee3078"/>  </g></svg>