<?xml version="1.0" standalone="no"?><!DOCTYPE svg PUBLIC "-//W3C//DTD SVG 1.1//EN" "http://www.w3.org/Graphics/SVG/1.1/DTD/svg11.dtd"><svg xmlns="http://www.w3.org/2000/svg" version="1.1" width="93px" height="16.8px" viewBox="0 -2 93 16.8" style="top:-2px">  <desc>Fibrin multimer</desc>  <defs/>  <g id="Polygon77319">    <path d="M 9.4 0.5 L 13.5 0.5 L 13.5 1.2 L 10.2 1.2 L 10.2 4.1 L 13 4.1 L 13 4.8 L 10.2 4.8 L 10.2 8.2 L 9.4 8.2 L 9.4 0.5 Z M 14.8 0.5 L 15.6 0.5 L 15.6 1.5 L 14.8 1.5 L 14.8 0.5 Z M 14.8 2.7 L 15.6 2.7 L 15.6 8.2 L 14.8 8.2 L 14.8 2.7 Z M 17.4 0.5 L 18.1 0.5 C 18.1 0.5 18.14 3.2 18.1 3.2 C 18.14 3.45 18.1 3.7 18.1 3.7 L 18.1 3.7 C 18.1 3.7 18.61 2.59 20 2.6 C 21.5 2.6 22.4 3.8 22.4 5.5 C 22.4 7.2 21.4 8.4 19.9 8.4 C 18.62 8.38 18.1 7.3 18.1 7.3 L 18.1 7.3 C 18.1 7.3 18.12 7.49 18.1 7.8 C 18.12 7.76 18.1 8.2 18.1 8.2 L 17.4 8.2 L 17.4 0.5 Z M 19.9 7.7 C 20.9 7.7 21.7 6.9 21.7 5.5 C 21.7 4.1 20.9 3.3 19.9 3.3 C 19 3.3 18.1 3.9 18.1 5.5 C 18.1 6.6 18.7 7.7 19.9 7.7 Z M 23.9 2.7 L 24.6 2.7 C 24.6 2.7 24.61 3.7 24.6 3.7 C 24.6 3.9 24.6 4.1 24.6 4.1 C 24.6 4.1 24.6 4.1 24.6 4.1 C 24.9 3.3 25.5 2.7 26.4 2.7 C 26.5 2.7 26.7 2.7 26.7 2.7 C 26.66 2.7 26.7 3.4 26.7 3.4 C 26.7 3.4 26.53 3.41 26.4 3.4 C 25.6 3.4 25 4 24.8 4.8 C 24.7 5.2 24.6 5.6 24.6 5.9 C 24.62 5.92 24.6 8.2 24.6 8.2 L 23.9 8.2 L 23.9 2.7 Z M 27.8 0.5 L 28.5 0.5 L 28.5 1.5 L 27.8 1.5 L 27.8 0.5 Z M 27.8 2.7 L 28.5 2.7 L 28.5 8.2 L 27.8 8.2 L 27.8 2.7 Z M 30.3 2.7 L 31.1 2.7 C 31.1 2.7 31.08 3.54 31.1 3.5 C 31.1 3.8 31.1 4 31.1 4 C 31.1 4 31.1 4 31.1 4 C 31.3 3.5 32 2.6 33.3 2.6 C 34.7 2.6 35.1 3.4 35.1 4.7 C 35.14 4.73 35.1 8.2 35.1 8.2 L 34.4 8.2 C 34.4 8.2 34.39 4.93 34.4 4.9 C 34.4 4.1 34.3 3.3 33.2 3.3 C 32.2 3.3 31.4 3.9 31.2 4.9 C 31.1 5.1 31.1 5.3 31.1 5.6 C 31.09 5.6 31.1 8.2 31.1 8.2 L 30.3 8.2 L 30.3 2.7 Z M 39.8 2.7 L 40.6 2.7 C 40.6 2.7 40.56 3.54 40.6 3.5 C 40.6 3.8 40.5 4 40.5 4 C 40.5 4 40.6 4 40.6 4 C 40.8 3.2 41.7 2.6 42.6 2.6 C 43.6 2.6 44.1 3.1 44.3 4 C 44.3 4 44.3 4 44.3 4 C 44.6 3.2 45.4 2.6 46.3 2.6 C 47.7 2.6 48.2 3.4 48.2 4.7 C 48.17 4.73 48.2 8.2 48.2 8.2 L 47.4 8.2 C 47.4 8.2 47.43 4.92 47.4 4.9 C 47.4 4 47.2 3.3 46.2 3.3 C 45.4 3.3 44.7 4 44.5 4.8 C 44.4 5.1 44.4 5.3 44.4 5.6 C 44.38 5.63 44.4 8.2 44.4 8.2 L 43.6 8.2 C 43.6 8.2 43.63 4.92 43.6 4.9 C 43.6 4.1 43.5 3.3 42.5 3.3 C 41.6 3.3 40.9 4 40.6 4.9 C 40.6 5.1 40.6 5.4 40.6 5.6 C 40.57 5.63 40.6 8.2 40.6 8.2 L 39.8 8.2 L 39.8 2.7 Z M 49.8 2.7 L 50.6 2.7 C 50.6 2.7 50.57 6.04 50.6 6 C 50.6 6.9 50.7 7.7 51.8 7.7 C 53 7.7 53.8 6.6 53.8 5.4 C 53.82 5.37 53.8 2.7 53.8 2.7 L 54.6 2.7 L 54.6 8.2 L 53.8 8.2 C 53.8 8.2 53.84 7.42 53.8 7.4 C 53.8 7.2 53.9 7 53.9 7 C 53.9 7 53.8 7 53.8 7 C 53.6 7.5 52.9 8.4 51.7 8.4 C 50.4 8.4 49.8 7.7 49.8 6.2 C 49.82 6.24 49.8 2.7 49.8 2.7 Z M 56.3 0.5 L 57.1 0.5 C 57.1 0.5 57.06 6.78 57.1 6.8 C 57.1 7.5 57.4 7.6 57.7 7.6 C 57.78 7.61 57.9 7.6 57.9 7.6 L 57.9 8.3 C 57.9 8.3 57.73 8.29 57.6 8.3 C 57.1 8.3 56.3 8.2 56.3 6.9 C 56.31 6.94 56.3 0.5 56.3 0.5 Z M 59.3 3.4 L 58.6 3.4 L 58.6 2.8 L 59.3 2.8 L 59.3 1.2 L 60 1.2 L 60 2.8 L 61.4 2.8 L 61.4 3.4 L 60 3.4 C 60 3.4 60.04 6.16 60 6.2 C 60 7.5 60.9 7.6 61.3 7.6 C 61.44 7.62 61.5 7.6 61.5 7.6 L 61.5 8.3 C 61.5 8.3 61.42 8.29 61.2 8.3 C 60.6 8.3 59.3 8.1 59.3 6.2 C 59.3 6.24 59.3 3.4 59.3 3.4 Z M 62.7 0.5 L 63.5 0.5 L 63.5 1.5 L 62.7 1.5 L 62.7 0.5 Z M 62.8 2.7 L 63.5 2.7 L 63.5 8.2 L 62.8 8.2 L 62.8 2.7 Z M 65.3 2.7 L 66.1 2.7 C 66.1 2.7 66.06 3.54 66.1 3.5 C 66.1 3.8 66 4 66 4 C 66 4 66.1 4 66.1 4 C 66.3 3.2 67.2 2.6 68.1 2.6 C 69.1 2.6 69.6 3.1 69.8 4 C 69.8 4 69.8 4 69.8 4 C 70.1 3.2 70.9 2.6 71.8 2.6 C 73.2 2.6 73.7 3.4 73.7 4.7 C 73.67 4.73 73.7 8.2 73.7 8.2 L 72.9 8.2 C 72.9 8.2 72.92 4.92 72.9 4.9 C 72.9 4 72.7 3.3 71.7 3.3 C 70.9 3.3 70.2 4 70 4.8 C 69.9 5.1 69.9 5.3 69.9 5.6 C 69.88 5.63 69.9 8.2 69.9 8.2 L 69.1 8.2 C 69.1 8.2 69.13 4.92 69.1 4.9 C 69.1 4.1 69 3.3 68 3.3 C 67.1 3.3 66.4 4 66.1 4.9 C 66.1 5.1 66.1 5.4 66.1 5.6 C 66.07 5.63 66.1 8.2 66.1 8.2 L 65.3 8.2 L 65.3 2.7 Z M 77.7 2.6 C 79.3 2.6 80.1 3.8 80.1 5.1 C 80.05 5.27 80 5.5 80 5.5 C 80 5.5 75.78 5.52 75.8 5.5 C 75.8 6.9 76.8 7.7 77.9 7.7 C 78.94 7.71 79.6 7 79.6 7 L 80 7.6 C 80 7.6 79.15 8.38 77.9 8.4 C 76.3 8.4 75 7.2 75 5.5 C 75 3.7 76.2 2.6 77.7 2.6 Z M 79.3 4.9 C 79.2 3.8 78.5 3.2 77.7 3.2 C 76.8 3.2 76 3.8 75.8 4.9 C 75.8 4.9 79.3 4.9 79.3 4.9 Z M 81.5 2.7 L 82.2 2.7 C 82.2 2.7 82.22 3.7 82.2 3.7 C 82.2 3.9 82.2 4.1 82.2 4.1 C 82.2 4.1 82.2 4.1 82.2 4.1 C 82.5 3.3 83.1 2.7 84 2.7 C 84.1 2.7 84.3 2.7 84.3 2.7 C 84.26 2.7 84.3 3.4 84.3 3.4 C 84.3 3.4 84.13 3.41 84 3.4 C 83.2 3.4 82.6 4 82.4 4.8 C 82.3 5.2 82.2 5.6 82.2 5.9 C 82.23 5.92 82.2 8.2 82.2 8.2 L 81.5 8.2 L 81.5 2.7 Z " stroke="none" fill="#000"/>  </g></svg>