<?xml version="1.0" standalone="no"?><!DOCTYPE svg PUBLIC "-//W3C//DTD SVG 1.1//EN" "http://www.w3.org/Graphics/SVG/1.1/DTD/svg11.dtd"><svg xmlns="http://www.w3.org/2000/svg" version="1.1" width="113.4px" height="84px" viewBox="0 -1 113.4 84" style="top:-1px">  <desc>Prsia</desc>  <defs/>  <g id="Polygon78042">    <path d="M 39.5 35.3 L 38.5 35.3 L 38.5 33.5 C 38.5 33.5 43.69 33.47 43.7 33.5 C 45.8 33.5 47.3 35 47.3 37.2 C 47.3 39.4 45.8 40.9 43.7 40.9 C 43.69 40.91 41.6 40.9 41.6 40.9 L 41.6 44.8 L 39.5 44.8 L 39.5 35.3 Z M 43.3 39.1 C 44.5 39.1 45.2 38.4 45.2 37.2 C 45.2 36 44.5 35.3 43.3 35.3 C 43.33 35.25 41.6 35.3 41.6 35.3 L 41.6 39.1 C 41.6 39.1 43.3 39.12 43.3 39.1 Z M 48.9 38.8 C 48.9 38.5 48.8 38.4 48.6 38.4 C 48.6 38.4 48 38.4 48 38.4 L 48 36.7 C 48 36.7 49.81 36.67 49.8 36.7 C 50.5 36.7 50.9 37 50.9 37.7 C 50.9 37.7 50.9 38.1 50.9 38.1 C 50.9 38.45 50.9 38.7 50.9 38.7 C 50.9 38.7 50.9 38.66 50.9 38.7 C 51.3 37.5 52.2 36.6 53.5 36.6 C 53.67 36.56 53.9 36.6 53.9 36.6 L 53.9 38.6 C 53.9 38.6 53.65 38.56 53.4 38.6 C 52.5 38.6 51.5 39.1 51.1 40.3 C 51 40.7 51 41.1 51 41.6 C 50.97 41.6 51 44.8 51 44.8 L 48.9 44.8 C 48.9 44.8 48.95 38.75 48.9 38.8 Z M 55.6 42.2 C 55.6 42.2 56.61 43.44 58 43.4 C 58.6 43.4 59.1 43.2 59.1 42.6 C 59.1 41.5 54.8 41.5 54.8 38.9 C 54.8 37.2 56.3 36.5 58 36.5 C 59.1 36.5 60.8 36.9 60.8 38.2 C 60.84 38.18 60.8 39 60.8 39 L 59 39 C 59 39 59.04 38.63 59 38.6 C 59 38.2 58.5 38.1 58 38.1 C 57.3 38.1 56.8 38.3 56.8 38.8 C 56.8 40.1 61.1 39.8 61.1 42.5 C 61.1 44.1 59.8 45 58 45 C 55.76 45.03 54.6 43.6 54.6 43.6 L 55.6 42.2 Z M 63.2 33.5 L 64.9 33.5 L 64.9 35.3 L 63.2 35.3 L 63.2 33.5 Z M 63.1 38.8 C 63.1 38.5 63 38.4 62.7 38.4 C 62.74 38.4 62.1 38.4 62.1 38.4 L 62.1 36.7 C 62.1 36.7 64.04 36.67 64 36.7 C 64.8 36.7 65.1 37 65.1 37.8 C 65.1 37.8 65.1 42.8 65.1 42.8 C 65.1 43 65.2 43.1 65.5 43.1 C 65.46 43.12 66.1 43.1 66.1 43.1 L 66.1 44.8 C 66.1 44.8 64.16 44.83 64.2 44.8 C 63.4 44.8 63.1 44.5 63.1 43.7 C 63.1 43.7 63.1 38.8 63.1 38.8 Z M 71.9 39.7 C 71.86 39.71 72.1 39.7 72.1 39.7 C 72.1 39.7 72.12 39.65 72.1 39.7 C 72.1 38.5 71.7 38.1 70.6 38.1 C 70.2 38.1 69.5 38.1 69.5 38.6 C 69.52 38.59 69.5 39 69.5 39 L 67.6 39 C 67.6 39 67.64 38.16 67.6 38.2 C 67.6 36.6 69.8 36.5 70.6 36.5 C 73.3 36.5 74.1 37.9 74.1 39.7 C 74.1 39.7 74.1 42.8 74.1 42.8 C 74.1 43 74.3 43.1 74.5 43.1 C 74.5 43.12 75.1 43.1 75.1 43.1 L 75.1 44.8 C 75.1 44.8 73.32 44.83 73.3 44.8 C 72.6 44.8 72.3 44.4 72.3 43.9 C 72.28 43.73 72.3 43.6 72.3 43.6 L 72.3 43.6 C 72.3 43.6 71.64 45.03 69.8 45 C 68.3 45 67 44.1 67 42.5 C 67 39.9 70.5 39.7 71.9 39.7 Z M 70.3 43.4 C 71.4 43.4 72.1 42.3 72.1 41.3 C 72.15 41.3 72.1 41.1 72.1 41.1 C 72.1 41.1 71.8 41.11 71.8 41.1 C 70.7 41.1 69.1 41.3 69.1 42.4 C 69.1 42.9 69.5 43.4 70.3 43.4 Z " stroke="none" fill="#ee3078"/>  </g></svg>