<?xml version="1.0" standalone="no"?><!DOCTYPE svg PUBLIC "-//W3C//DTD SVG 1.1//EN" "http://www.w3.org/Graphics/SVG/1.1/DTD/svg11.dtd"><svg xmlns="http://www.w3.org/2000/svg" version="1.1" width="107px" height="20.8px" viewBox="0 -2 107 20.8" style="top:-2px">  <desc>Activated Protein C</desc>  <defs/>  <g id="Polygon77564">    <path d="M 10.1 5.8 L 6.9 5.8 L 6.1 8.2 L 5.3 8.2 L 8.1 0.5 L 8.9 0.5 L 11.7 8.2 L 10.9 8.2 L 10.1 5.8 Z M 8.5 1.3 C 8.5 1.3 8.32 1.96 8.2 2.3 C 8.19 2.32 7.2 5.1 7.2 5.1 L 9.8 5.1 C 9.8 5.1 8.81 2.32 8.8 2.3 C 8.68 1.96 8.5 1.3 8.5 1.3 L 8.5 1.3 Z M 15.3 2.6 C 16.66 2.59 17.3 3.4 17.3 3.4 L 16.9 3.9 C 16.9 3.9 16.33 3.27 15.3 3.3 C 14.1 3.3 13.2 4.2 13.2 5.5 C 13.2 6.8 14.1 7.7 15.4 7.7 C 16.47 7.71 17.1 6.9 17.1 6.9 L 17.5 7.5 C 17.5 7.5 16.72 8.38 15.3 8.4 C 13.7 8.4 12.4 7.2 12.4 5.5 C 12.4 3.8 13.7 2.6 15.3 2.6 Z M 19 3.4 L 18.3 3.4 L 18.3 2.8 L 19 2.8 L 19 1.2 L 19.8 1.2 L 19.8 2.8 L 21.2 2.8 L 21.2 3.4 L 19.8 3.4 C 19.8 3.4 19.79 6.16 19.8 6.2 C 19.8 7.5 20.6 7.6 21 7.6 C 21.18 7.62 21.3 7.6 21.3 7.6 L 21.3 8.3 C 21.3 8.3 21.16 8.29 21 8.3 C 20.3 8.3 19 8.1 19 6.2 C 19.04 6.24 19 3.4 19 3.4 Z M 22.5 0.5 L 23.3 0.5 L 23.3 1.5 L 22.5 1.5 L 22.5 0.5 Z M 22.5 2.7 L 23.3 2.7 L 23.3 8.2 L 22.5 8.2 L 22.5 2.7 Z M 24.3 2.7 L 25.1 2.7 C 25.1 2.7 26.64 6.78 26.6 6.8 C 26.74 7.05 26.8 7.4 26.8 7.4 L 26.8 7.4 C 26.8 7.4 26.94 7.06 27 6.8 C 27.05 6.78 28.6 2.7 28.6 2.7 L 29.4 2.7 L 27.2 8.2 L 26.4 8.2 L 24.3 2.7 Z M 33.3 4.8 C 33.34 4.83 33.6 4.8 33.6 4.8 C 33.6 4.8 33.65 4.69 33.6 4.7 C 33.6 3.6 33.1 3.3 32.3 3.3 C 31.36 3.26 30.7 3.8 30.7 3.8 L 30.4 3.2 C 30.4 3.2 31.08 2.59 32.3 2.6 C 33.7 2.6 34.4 3.3 34.4 4.7 C 34.39 4.71 34.4 8.2 34.4 8.2 L 33.7 8.2 C 33.7 8.2 33.68 7.64 33.7 7.6 C 33.7 7.4 33.7 7.2 33.7 7.2 C 33.7 7.18 33.7 7.2 33.7 7.2 C 33.7 7.2 33.22 8.38 31.8 8.4 C 30.9 8.4 30 7.8 30 6.7 C 30 4.9 32.4 4.8 33.3 4.8 Z M 32 7.7 C 33 7.7 33.6 6.6 33.6 5.7 C 33.65 5.69 33.6 5.4 33.6 5.4 C 33.6 5.4 33.33 5.44 33.3 5.4 C 32.5 5.4 30.7 5.5 30.7 6.7 C 30.7 7.2 31.1 7.7 32 7.7 Z M 36.3 3.4 L 35.6 3.4 L 35.6 2.8 L 36.3 2.8 L 36.3 1.2 L 37 1.2 L 37 2.8 L 38.4 2.8 L 38.4 3.4 L 37 3.4 C 37 3.4 37.04 6.16 37 6.2 C 37 7.5 37.9 7.6 38.3 7.6 C 38.44 7.62 38.5 7.6 38.5 7.6 L 38.5 8.3 C 38.5 8.3 38.42 8.29 38.2 8.3 C 37.6 8.3 36.3 8.1 36.3 6.2 C 36.3 6.24 36.3 3.4 36.3 3.4 Z M 42.1 2.6 C 43.6 2.6 44.4 3.8 44.4 5.1 C 44.42 5.27 44.4 5.5 44.4 5.5 C 44.4 5.5 40.16 5.52 40.2 5.5 C 40.2 6.9 41.2 7.7 42.3 7.7 C 43.32 7.71 44 7 44 7 L 44.3 7.6 C 44.3 7.6 43.52 8.38 42.3 8.4 C 40.6 8.4 39.4 7.2 39.4 5.5 C 39.4 3.7 40.6 2.6 42.1 2.6 Z M 43.7 4.9 C 43.6 3.8 42.9 3.2 42.1 3.2 C 41.2 3.2 40.4 3.8 40.2 4.9 C 40.2 4.9 43.7 4.9 43.7 4.9 Z M 48 2.6 C 49.32 2.59 49.8 3.6 49.8 3.6 L 49.8 3.6 C 49.8 3.6 49.78 3.44 49.8 3.2 C 49.78 3.21 49.8 0.5 49.8 0.5 L 50.5 0.5 L 50.5 8.2 L 49.8 8.2 C 49.8 8.2 49.81 7.67 49.8 7.7 C 49.8 7.4 49.8 7.3 49.8 7.3 C 49.83 7.27 49.8 7.3 49.8 7.3 C 49.8 7.3 49.35 8.38 47.9 8.4 C 46.4 8.4 45.5 7.2 45.5 5.5 C 45.5 3.7 46.5 2.6 48 2.6 Z M 48 7.7 C 48.9 7.7 49.8 7.1 49.8 5.5 C 49.8 4.4 49.2 3.3 48 3.3 C 47.1 3.3 46.3 4.1 46.3 5.5 C 46.3 6.8 47 7.7 48 7.7 Z M 55.5 0.5 C 55.5 0.5 58.19 0.52 58.2 0.5 C 59.6 0.5 60.6 1.4 60.6 2.8 C 60.6 4.3 59.6 5.2 58.2 5.2 C 58.19 5.21 56.3 5.2 56.3 5.2 L 56.3 8.2 L 55.5 8.2 L 55.5 0.5 Z M 58.1 4.5 C 59.1 4.5 59.8 3.9 59.8 2.8 C 59.8 1.8 59.1 1.2 58.1 1.2 C 58.1 1.2 56.3 1.2 56.3 1.2 L 56.3 4.5 C 56.3 4.5 58.09 4.53 58.1 4.5 Z M 61.9 2.7 L 62.6 2.7 C 62.6 2.7 62.61 3.7 62.6 3.7 C 62.6 3.9 62.6 4.1 62.6 4.1 C 62.6 4.1 62.6 4.1 62.6 4.1 C 62.9 3.3 63.5 2.7 64.4 2.7 C 64.5 2.7 64.7 2.7 64.7 2.7 C 64.65 2.7 64.7 3.4 64.7 3.4 C 64.7 3.4 64.52 3.41 64.4 3.4 C 63.6 3.4 63 4 62.8 4.8 C 62.7 5.2 62.6 5.6 62.6 5.9 C 62.62 5.92 62.6 8.2 62.6 8.2 L 61.9 8.2 L 61.9 2.7 Z M 68.2 2.6 C 69.9 2.6 71.2 3.8 71.2 5.5 C 71.2 7.1 69.9 8.4 68.2 8.4 C 66.6 8.4 65.3 7.1 65.3 5.5 C 65.3 3.8 66.6 2.6 68.2 2.6 Z M 68.2 7.7 C 69.4 7.7 70.4 6.7 70.4 5.5 C 70.4 4.2 69.4 3.3 68.2 3.3 C 67.1 3.3 66.1 4.2 66.1 5.5 C 66.1 6.7 67.1 7.7 68.2 7.7 Z M 72.8 3.4 L 72 3.4 L 72 2.8 L 72.8 2.8 L 72.8 1.2 L 73.5 1.2 L 73.5 2.8 L 74.9 2.8 L 74.9 3.4 L 73.5 3.4 C 73.5 3.4 73.52 6.16 73.5 6.2 C 73.5 7.5 74.3 7.6 74.8 7.6 C 74.92 7.62 75 7.6 75 7.6 L 75 8.3 C 75 8.3 74.89 8.29 74.7 8.3 C 74.1 8.3 72.8 8.1 72.8 6.2 C 72.77 6.24 72.8 3.4 72.8 3.4 Z M 78.6 2.6 C 80.1 2.6 80.9 3.8 80.9 5.1 C 80.9 5.27 80.9 5.5 80.9 5.5 C 80.9 5.5 76.63 5.52 76.6 5.5 C 76.7 6.9 77.6 7.7 78.8 7.7 C 79.79 7.71 80.5 7 80.5 7 L 80.8 7.6 C 80.8 7.6 80 8.38 78.8 8.4 C 77.1 8.4 75.9 7.2 75.9 5.5 C 75.9 3.7 77.1 2.6 78.6 2.6 Z M 80.1 4.9 C 80.1 3.8 79.4 3.2 78.6 3.2 C 77.6 3.2 76.8 3.8 76.7 4.9 C 76.7 4.9 80.1 4.9 80.1 4.9 Z M 82.3 0.5 L 83.1 0.5 L 83.1 1.5 L 82.3 1.5 L 82.3 0.5 Z M 82.3 2.7 L 83.1 2.7 L 83.1 8.2 L 82.3 8.2 L 82.3 2.7 Z M 84.9 2.7 L 85.6 2.7 C 85.6 2.7 85.62 3.54 85.6 3.5 C 85.6 3.8 85.6 4 85.6 4 C 85.6 4 85.6 4 85.6 4 C 85.8 3.5 86.5 2.6 87.8 2.6 C 89.2 2.6 89.7 3.4 89.7 4.7 C 89.68 4.73 89.7 8.2 89.7 8.2 L 88.9 8.2 C 88.9 8.2 88.93 4.93 88.9 4.9 C 88.9 4.1 88.8 3.3 87.7 3.3 C 86.8 3.3 86 3.9 85.7 4.9 C 85.7 5.1 85.6 5.3 85.6 5.6 C 85.63 5.6 85.6 8.2 85.6 8.2 L 84.9 8.2 L 84.9 2.7 Z M 97.9 0.4 C 99.8 0.39 100.7 1.4 100.7 1.4 L 100.3 1.9 C 100.3 1.9 99.42 1.09 98 1.1 C 96.2 1.1 94.9 2.5 94.9 4.3 C 94.9 6.2 96.2 7.7 98 7.7 C 99.56 7.68 100.5 6.6 100.5 6.6 L 100.9 7.2 C 100.9 7.2 99.89 8.38 98 8.4 C 95.7 8.4 94.1 6.6 94.1 4.3 C 94.1 2.1 95.7 0.4 97.9 0.4 Z " stroke="none" fill="#000"/>  </g></svg>