<?xml version="1.0" standalone="no"?><!DOCTYPE svg PUBLIC "-//W3C//DTD SVG 1.1//EN" "http://www.w3.org/Graphics/SVG/1.1/DTD/svg11.dtd"><svg xmlns="http://www.w3.org/2000/svg" version="1.1" width="571px" height="43px" viewBox="0 -1 571 43" style="top:-1px">  <desc>Pozit va jednotliv ch typov estrog nov</desc>  <defs/>  <g id="Polygon67767">    <path d="M 106.2 13.1 L 104.9 13.1 L 104.9 11.4 C 104.9 11.4 111.08 11.38 111.1 11.4 C 113.7 11.4 115.5 13.1 115.5 15.8 C 115.5 18.5 113.7 20.3 111.1 20.3 C 111.08 20.28 108.2 20.3 108.2 20.3 L 108.2 25.5 L 106.2 25.5 L 106.2 13.1 Z M 110.8 18.6 C 112.4 18.6 113.4 17.5 113.4 15.8 C 113.4 14.1 112.4 13.1 110.8 13.1 C 110.78 13.1 108.2 13.1 108.2 13.1 L 108.2 18.6 C 108.2 18.6 110.76 18.56 110.8 18.6 Z M 121.7 15.1 C 124.7 15.1 127.2 17.4 127.2 20.4 C 127.2 23.5 124.7 25.7 121.7 25.7 C 118.7 25.7 116.3 23.5 116.3 20.4 C 116.3 17.4 118.7 15.1 121.7 15.1 Z M 121.7 24.1 C 123.6 24.1 125.2 22.5 125.2 20.4 C 125.2 18.3 123.6 16.8 121.7 16.8 C 119.8 16.8 118.2 18.3 118.2 20.4 C 118.2 22.5 119.8 24.1 121.7 24.1 Z M 128.3 24.4 C 128.3 24.4 133.52 17.98 133.5 18 C 133.96 17.44 134.4 17 134.4 17 L 134.4 17 C 134.4 17 134.04 17.04 133.4 17 C 133.4 17 130.6 17 130.6 17 C 130.3 17 130.2 17.2 130.2 17.5 C 130.18 17.48 130.2 18.2 130.2 18.2 L 128.4 18.2 C 128.4 18.2 128.4 16.66 128.4 16.7 C 128.4 15.8 128.8 15.4 129.7 15.4 C 129.68 15.38 136.9 15.4 136.9 15.4 L 136.9 16.5 C 136.9 16.5 131.72 22.92 131.7 22.9 C 131.3 23.42 130.9 23.8 130.9 23.8 L 130.9 23.9 C 130.9 23.9 131.2 23.84 131.9 23.8 C 131.9 23.8 135.1 23.8 135.1 23.8 C 135.4 23.8 135.5 23.7 135.5 23.4 C 135.54 23.4 135.5 22.7 135.5 22.7 L 137.3 22.7 C 137.3 22.7 137.3 24.22 137.3 24.2 C 137.3 25.1 136.9 25.5 136 25.5 C 136.02 25.5 128.3 25.5 128.3 25.5 L 128.3 24.4 Z M 139.6 11.4 L 141.4 11.4 L 141.4 13.4 L 139.6 13.4 L 139.6 11.4 Z M 139.6 17.5 C 139.6 17.2 139.4 17 139.1 17 C 139.14 17.04 138.3 17 138.3 17 L 138.3 15.4 C 138.3 15.4 140.22 15.38 140.2 15.4 C 141.1 15.4 141.5 15.8 141.5 16.7 C 141.5 16.7 141.5 23.4 141.5 23.4 C 141.5 23.7 141.7 23.8 141.9 23.8 C 141.94 23.84 142.8 23.8 142.8 23.8 L 142.8 25.5 C 142.8 25.5 140.86 25.5 140.9 25.5 C 140 25.5 139.6 25.1 139.6 24.2 C 139.6 24.2 139.6 17.5 139.6 17.5 Z M 145.1 16.9 L 143.7 16.9 L 143.7 15.4 L 145.1 15.4 L 145.1 12.6 L 147 12.6 L 147 15.4 L 149.4 15.4 L 149.4 16.9 L 147 16.9 C 147 16.9 147 21.58 147 21.6 C 147 23.6 148.4 23.9 149.1 23.9 C 149.42 23.86 149.6 23.8 149.6 23.8 L 149.6 25.5 C 149.6 25.5 149.34 25.58 148.9 25.6 C 147.6 25.6 145.1 25.2 145.1 21.8 C 145.06 21.8 145.1 16.9 145.1 16.9 Z M 152.1 17.5 C 152.1 17.2 152 17 151.7 17 C 151.68 17.04 150.9 17 150.9 17 L 150.9 15.4 C 150.9 15.4 152.78 15.38 152.8 15.4 C 153.7 15.4 154.1 15.8 154.1 16.7 C 154.1 16.7 154.1 23.4 154.1 23.4 C 154.1 23.7 154.2 23.8 154.5 23.8 C 154.5 23.84 155.3 23.8 155.3 23.8 L 155.3 25.5 C 155.3 25.5 153.42 25.5 153.4 25.5 C 152.5 25.5 152.1 25.1 152.1 24.2 C 152.1 24.2 152.1 17.5 152.1 17.5 Z M 153.6 11.4 L 155.6 11.4 L 153.7 13.9 L 152.2 13.9 L 153.6 11.4 Z M 156.8 17.4 C 156.7 17.1 156.5 17 156.2 17 C 156.22 17.04 156 17 156 17 L 156 15.4 C 156 15.4 157.02 15.38 157 15.4 C 157.9 15.4 158.3 15.6 158.6 16.4 C 158.6 16.4 160.7 22.2 160.7 22.2 C 160.94 22.78 161.1 23.5 161.1 23.5 L 161.1 23.5 C 161.1 23.5 161.3 22.78 161.5 22.2 C 161.5 22.2 163.7 16.4 163.7 16.4 C 164 15.6 164.3 15.4 165.2 15.4 C 165.2 15.38 166.1 15.4 166.1 15.4 L 166.1 17 C 166.1 17 165.94 17.04 165.9 17 C 165.6 17 165.4 17.1 165.3 17.4 C 165.28 17.44 162.2 25.5 162.2 25.5 L 160 25.5 C 160 25.5 156.84 17.44 156.8 17.4 Z M 173.1 19.2 C 173.14 19.2 173.6 19.2 173.6 19.2 C 173.6 19.2 173.58 19.1 173.6 19.1 C 173.6 17.3 172.9 16.7 171.3 16.7 C 170.9 16.7 169.7 16.8 169.7 17.5 C 169.68 17.46 169.7 18 169.7 18 L 167.9 18 C 167.9 18 167.86 17.04 167.9 17 C 167.9 15.4 170.4 15.1 171.4 15.1 C 174.6 15.1 175.5 16.9 175.5 19.1 C 175.5 19.1 175.5 23.4 175.5 23.4 C 175.5 23.7 175.7 23.8 176 23.8 C 175.96 23.84 176.8 23.8 176.8 23.8 L 176.8 25.5 C 176.8 25.5 174.96 25.5 175 25.5 C 174.1 25.5 173.7 25.1 173.7 24.3 C 173.7 24 173.7 23.7 173.7 23.7 L 173.7 23.7 C 173.7 23.7 172.9 25.74 170.5 25.7 C 168.7 25.7 167 24.7 167 22.7 C 167 19.4 171.4 19.2 173.1 19.2 Z M 170.9 24.2 C 172.5 24.2 173.6 22.5 173.6 21 C 173.6 20.96 173.6 20.6 173.6 20.6 C 173.6 20.6 173.1 20.62 173.1 20.6 C 171.6 20.6 169 20.7 169 22.6 C 169 23.4 169.6 24.2 170.9 24.2 Z M 184.8 11.4 L 186.6 11.4 L 186.6 13.4 L 184.8 13.4 L 184.8 11.4 Z M 182.6 27.9 C 183.3 27.9 184.8 27.7 184.8 25.7 C 184.8 25.7 184.8 17.5 184.8 17.5 C 184.8 17.2 184.6 17 184.3 17 C 184.32 17.04 183.5 17 183.5 17 L 183.5 15.4 C 183.5 15.4 185.42 15.38 185.4 15.4 C 186.3 15.4 186.7 15.8 186.7 16.7 C 186.7 16.7 186.7 25.8 186.7 25.8 C 186.7 29.2 184.1 29.6 182.8 29.6 C 182.42 29.62 182.2 29.6 182.2 29.6 L 182.2 27.9 C 182.2 27.9 182.34 27.94 182.6 27.9 Z M 194.1 15.1 C 196.9 15.1 198.4 17.3 198.4 19.9 C 198.44 20.14 198.4 20.7 198.4 20.7 C 198.4 20.7 191 20.68 191 20.7 C 191.1 22.8 192.7 24.1 194.5 24.1 C 196.22 24.06 197.4 22.9 197.4 22.9 L 198.3 24.3 C 198.3 24.3 196.78 25.74 194.4 25.7 C 191.2 25.7 189 23.4 189 20.4 C 189 17.2 191.2 15.1 194.1 15.1 Z M 196.4 19.3 C 196.4 17.6 195.3 16.7 194.1 16.7 C 192.6 16.7 191.4 17.6 191.1 19.3 C 191.1 19.3 196.4 19.3 196.4 19.3 Z M 204.6 15.1 C 206.98 15.14 207.8 16.7 207.8 16.7 L 207.8 16.7 C 207.8 16.7 207.76 16.4 207.8 16 C 207.8 16 207.8 13.5 207.8 13.5 C 207.8 13.2 207.6 13 207.3 13 C 207.32 13.04 206.5 13 206.5 13 L 206.5 11.4 C 206.5 11.4 208.42 11.38 208.4 11.4 C 209.3 11.4 209.7 11.8 209.7 12.7 C 209.7 12.7 209.7 23.4 209.7 23.4 C 209.7 23.7 209.9 23.8 210.1 23.8 C 210.14 23.84 211 23.8 211 23.8 L 211 25.5 C 211 25.5 209.1 25.5 209.1 25.5 C 208.2 25.5 207.9 25.1 207.9 24.4 C 207.86 24.12 207.9 23.9 207.9 23.9 L 207.8 23.9 C 207.8 23.9 207 25.74 204.5 25.7 C 201.8 25.7 200.1 23.6 200.1 20.4 C 200.1 17.2 202 15.1 204.6 15.1 Z M 207.8 20.4 C 207.8 18.6 206.9 16.8 204.9 16.8 C 203.4 16.8 202 18.1 202 20.4 C 202 22.6 203.2 24.1 204.9 24.1 C 206.4 24.1 207.8 23 207.8 20.4 Z M 213.1 17.5 C 213.1 17.2 213 17 212.7 17 C 212.68 17.04 211.9 17 211.9 17 L 211.9 15.4 C 211.9 15.4 213.72 15.38 213.7 15.4 C 214.6 15.4 215 15.8 215 16.5 C 215 16.5 215 16.9 215 16.9 C 215 17.2 215 17.5 215 17.5 C 215 17.5 215 17.46 215 17.5 C 215.4 16.6 216.6 15.1 218.8 15.1 C 221.2 15.1 222.3 16.4 222.3 19 C 222.3 19 222.3 23.4 222.3 23.4 C 222.3 23.7 222.4 23.8 222.7 23.8 C 222.72 23.84 223.5 23.8 223.5 23.8 L 223.5 25.5 C 223.5 25.5 221.62 25.5 221.6 25.5 C 220.7 25.5 220.3 25.1 220.3 24.2 C 220.3 24.2 220.3 19.5 220.3 19.5 C 220.3 18 220.1 16.9 218.4 16.9 C 216.9 16.9 215.6 17.9 215.2 19.4 C 215.1 19.8 215.1 20.3 215.1 20.8 C 215.06 20.76 215.1 25.5 215.1 25.5 L 213.1 25.5 C 213.1 25.5 213.12 17.48 213.1 17.5 Z M 230.1 15.1 C 233.1 15.1 235.6 17.4 235.6 20.4 C 235.6 23.5 233.1 25.7 230.1 25.7 C 227.1 25.7 224.7 23.5 224.7 20.4 C 224.7 17.4 227.1 15.1 230.1 15.1 Z M 230.1 24.1 C 232 24.1 233.6 22.5 233.6 20.4 C 233.6 18.3 232 16.8 230.1 16.8 C 228.2 16.8 226.6 18.3 226.6 20.4 C 226.6 22.5 228.2 24.1 230.1 24.1 Z M 238.1 16.9 L 236.7 16.9 L 236.7 15.4 L 238.1 15.4 L 238.1 12.6 L 240 12.6 L 240 15.4 L 242.4 15.4 L 242.4 16.9 L 240 16.9 C 240 16.9 240 21.58 240 21.6 C 240 23.6 241.4 23.9 242.1 23.9 C 242.42 23.86 242.6 23.8 242.6 23.8 L 242.6 25.5 C 242.6 25.5 242.34 25.58 241.9 25.6 C 240.6 25.6 238.1 25.2 238.1 21.8 C 238.06 21.8 238.1 16.9 238.1 16.9 Z M 244.8 13.5 C 244.8 13.2 244.7 13 244.4 13 C 244.4 13.04 243.6 13 243.6 13 L 243.6 11.4 C 243.6 11.4 245.5 11.38 245.5 11.4 C 246.4 11.4 246.8 11.8 246.8 12.7 C 246.8 12.7 246.8 23.4 246.8 23.4 C 246.8 23.7 246.9 23.8 247.2 23.8 C 247.22 23.84 248 23.8 248 23.8 L 248 25.5 C 248 25.5 246.12 25.5 246.1 25.5 C 245.2 25.5 244.8 25.1 244.8 24.2 C 244.8 24.2 244.8 13.5 244.8 13.5 Z M 250.4 11.4 L 252.1 11.4 L 252.1 13.4 L 250.4 13.4 L 250.4 11.4 Z M 250.3 17.5 C 250.3 17.2 250.2 17 249.9 17 C 249.9 17.04 249.1 17 249.1 17 L 249.1 15.4 C 249.1 15.4 250.98 15.38 251 15.4 C 251.9 15.4 252.3 15.8 252.3 16.7 C 252.3 16.7 252.3 23.4 252.3 23.4 C 252.3 23.7 252.4 23.8 252.7 23.8 C 252.7 23.84 253.5 23.8 253.5 23.8 L 253.5 25.5 C 253.5 25.5 251.62 25.5 251.6 25.5 C 250.7 25.5 250.3 25.1 250.3 24.2 C 250.3 24.2 250.3 17.5 250.3 17.5 Z M 255 17.4 C 254.9 17.1 254.7 17 254.4 17 C 254.4 17.04 254.2 17 254.2 17 L 254.2 15.4 C 254.2 15.4 255.2 15.38 255.2 15.4 C 256.1 15.4 256.4 15.6 256.7 16.4 C 256.7 16.4 258.9 22.2 258.9 22.2 C 259.12 22.78 259.3 23.5 259.3 23.5 L 259.3 23.5 C 259.3 23.5 259.48 22.78 259.7 22.2 C 259.7 22.2 261.8 16.4 261.8 16.4 C 262.1 15.6 262.5 15.4 263.4 15.4 C 263.38 15.38 264.3 15.4 264.3 15.4 L 264.3 17 C 264.3 17 264.12 17.04 264.1 17 C 263.8 17 263.6 17.1 263.5 17.4 C 263.46 17.44 260.4 25.5 260.4 25.5 L 258.1 25.5 C 258.1 25.5 255.02 17.44 255 17.4 Z M 267 28 C 267.7 28 268.4 27.5 268.7 26.6 C 268.74 26.56 269.2 25.5 269.2 25.5 C 269.2 25.5 265.74 17.44 265.7 17.4 C 265.6 17.1 265.4 17 265.1 17 C 265.1 17.04 264.9 17 264.9 17 L 264.9 15.4 C 264.9 15.4 266 15.38 266 15.4 C 266.8 15.4 267.1 15.6 267.4 16.4 C 267.4 16.4 269.7 22.1 269.7 22.1 C 269.94 22.62 270.1 23.3 270.1 23.3 L 270.1 23.3 C 270.1 23.3 270.28 22.62 270.5 22.1 C 270.5 22.1 272.6 16.4 272.6 16.4 C 272.9 15.6 273.2 15.4 274.1 15.4 C 274.06 15.38 275.2 15.4 275.2 15.4 L 275.2 17 C 275.2 17 274.96 17.04 275 17 C 274.6 17 274.5 17.1 274.3 17.4 C 274.3 17.4 270.3 27.3 270.3 27.3 C 269.7 28.9 268.5 29.7 267.1 29.7 C 265.56 29.7 264.7 28.7 264.7 28.7 C 264.7 28.7 265.48 27.3 265.5 27.3 C 265.5 27.3 266.1 28 267 28 Z M 270.7 11.4 L 272.7 11.4 L 270.8 13.9 L 269.3 13.9 L 270.7 11.4 Z M 281.5 15.1 C 282.7 15.1 285.1 15.6 285.1 17.4 C 285.1 17.36 285.1 18.4 285.1 18.4 L 283.3 18.4 C 283.3 18.4 283.34 17.84 283.3 17.8 C 283.3 17.1 282.2 16.8 281.5 16.8 C 279.5 16.8 278 18.3 278 20.4 C 278 22.7 279.7 24 281.6 24 C 283.46 24.02 284.7 22.6 284.7 22.6 L 285.5 24 C 285.5 24 284.1 25.74 281.4 25.7 C 278.2 25.7 276 23.5 276 20.4 C 276 17.5 278.2 15.1 281.5 15.1 Z M 287.5 13.5 C 287.5 13.2 287.4 13 287.1 13 C 287.08 13.04 286.3 13 286.3 13 L 286.3 11.4 C 286.3 11.4 288.18 11.38 288.2 11.4 C 289.1 11.4 289.5 11.8 289.5 12.6 C 289.5 12.6 289.5 16.6 289.5 16.6 C 289.46 17.04 289.4 17.4 289.4 17.4 C 289.4 17.4 289.46 17.4 289.5 17.4 C 289.9 16.4 291.2 15.1 293.2 15.1 C 295.6 15.1 296.7 16.4 296.7 19 C 296.7 19 296.7 23.4 296.7 23.4 C 296.7 23.7 296.8 23.8 297.1 23.8 C 297.12 23.84 297.9 23.8 297.9 23.8 L 297.9 25.5 C 297.9 25.5 296.04 25.5 296 25.5 C 295.1 25.5 294.8 25.1 294.8 24.2 C 294.8 24.2 294.8 19.5 294.8 19.5 C 294.8 18 294.5 16.9 292.8 16.9 C 291.3 16.9 290.1 18 289.6 19.4 C 289.5 19.8 289.5 20.3 289.5 20.8 C 289.46 20.76 289.5 25.5 289.5 25.5 L 287.5 25.5 C 287.5 25.5 287.52 13.48 287.5 13.5 Z M 305.5 16.9 L 304.2 16.9 L 304.2 15.4 L 305.5 15.4 L 305.5 12.6 L 307.4 12.6 L 307.4 15.4 L 309.9 15.4 L 309.9 16.9 L 307.4 16.9 C 307.4 16.9 307.44 21.58 307.4 21.6 C 307.4 23.6 308.8 23.9 309.6 23.9 C 309.86 23.86 310 23.8 310 23.8 L 310 25.5 C 310 25.5 309.78 25.58 309.4 25.6 C 308.1 25.6 305.5 25.2 305.5 21.8 C 305.5 21.8 305.5 16.9 305.5 16.9 Z M 312.9 28 C 313.7 28 314.3 27.5 314.7 26.6 C 314.72 26.56 315.2 25.5 315.2 25.5 C 315.2 25.5 311.72 17.44 311.7 17.4 C 311.6 17.1 311.4 17 311.1 17 C 311.08 17.04 310.8 17 310.8 17 L 310.8 15.4 C 310.8 15.4 311.98 15.38 312 15.4 C 312.8 15.4 313.1 15.6 313.4 16.4 C 313.4 16.4 315.7 22.1 315.7 22.1 C 315.92 22.62 316.1 23.3 316.1 23.3 L 316.1 23.3 C 316.1 23.3 316.26 22.62 316.5 22.1 C 316.5 22.1 318.6 16.4 318.6 16.4 C 318.9 15.6 319.2 15.4 320 15.4 C 320.04 15.38 321.2 15.4 321.2 15.4 L 321.2 17 C 321.2 17 320.94 17.04 320.9 17 C 320.6 17 320.4 17.1 320.3 17.4 C 320.3 17.4 316.3 27.3 316.3 27.3 C 315.7 28.9 314.5 29.7 313 29.7 C 311.54 29.7 310.7 28.7 310.7 28.7 C 310.7 28.7 311.46 27.3 311.5 27.3 C 311.5 27.3 312.1 28 312.9 28 Z M 323.2 17.5 C 323.2 17.2 323 17 322.7 17 C 322.73 17.04 321.9 17 321.9 17 L 321.9 15.4 C 321.9 15.4 323.73 15.38 323.7 15.4 C 324.6 15.4 325 15.8 325 16.4 C 324.97 16.7 325 16.9 325 16.9 L 325 16.9 C 325 16.9 325.83 15.14 328.4 15.1 C 331.1 15.1 332.8 17.3 332.8 20.4 C 332.8 23.7 330.9 25.7 328.2 25.7 C 325.97 25.74 325.1 24.1 325.1 24.1 L 325.1 24.1 C 325.1 24.1 325.11 24.48 325.1 25 C 325.11 25 325.1 29.5 325.1 29.5 L 323.2 29.5 C 323.2 29.5 323.17 17.48 323.2 17.5 Z M 327.9 24.1 C 329.5 24.1 330.8 22.8 330.8 20.5 C 330.8 18.3 329.7 16.8 328 16.8 C 326.5 16.8 325.1 17.9 325.1 20.5 C 325.1 22.3 326 24.1 327.9 24.1 Z M 339.7 15.1 C 342.7 15.1 345.2 17.4 345.2 20.4 C 345.2 23.5 342.7 25.7 339.7 25.7 C 336.7 25.7 334.3 23.5 334.3 20.4 C 334.3 17.4 336.7 15.1 339.7 15.1 Z M 339.7 24.1 C 341.6 24.1 343.2 22.5 343.2 20.4 C 343.2 18.3 341.6 16.8 339.7 16.8 C 337.8 16.8 336.3 18.3 336.3 20.4 C 336.3 22.5 337.8 24.1 339.7 24.1 Z M 346.8 17.4 C 346.7 17.1 346.5 17 346.2 17 C 346.15 17.04 346 17 346 17 L 346 15.4 C 346 15.4 346.95 15.38 347 15.4 C 347.9 15.4 348.2 15.6 348.5 16.4 C 348.5 16.4 350.7 22.2 350.7 22.2 C 350.87 22.78 351 23.5 351 23.5 L 351.1 23.5 C 351.1 23.5 351.23 22.78 351.4 22.2 C 351.4 22.2 353.6 16.4 353.6 16.4 C 353.9 15.6 354.3 15.4 355.1 15.4 C 355.13 15.38 356.1 15.4 356.1 15.4 L 356.1 17 C 356.1 17 355.87 17.04 355.9 17 C 355.5 17 355.3 17.1 355.2 17.4 C 355.21 17.44 352.1 25.5 352.1 25.5 L 349.9 25.5 C 349.9 25.5 346.77 17.44 346.8 17.4 Z M 367.5 15.1 C 370.4 15.1 371.9 17.3 371.9 19.9 C 371.87 20.14 371.8 20.7 371.8 20.7 C 371.8 20.7 364.43 20.68 364.4 20.7 C 364.6 22.8 366.1 24.1 367.9 24.1 C 369.65 24.06 370.9 22.9 370.9 22.9 L 371.7 24.3 C 371.7 24.3 370.21 25.74 367.8 25.7 C 364.6 25.7 362.4 23.4 362.4 20.4 C 362.4 17.2 364.6 15.1 367.5 15.1 Z M 369.9 19.3 C 369.8 17.6 368.8 16.7 367.5 16.7 C 366 16.7 364.8 17.6 364.5 19.3 C 364.5 19.3 369.9 19.3 369.9 19.3 Z M 374.3 22.7 C 374.3 22.7 375.49 24.16 377.4 24.2 C 378.3 24.2 379.1 23.7 379.1 22.9 C 379.1 21 373.6 21.2 373.6 18 C 373.6 16 375.3 15.1 377.4 15.1 C 378.6 15.1 380.7 15.6 380.7 17.1 C 380.67 17.1 380.7 18.1 380.7 18.1 L 378.9 18.1 C 378.9 18.1 378.93 17.56 378.9 17.6 C 378.9 17 378 16.7 377.4 16.7 C 376.3 16.7 375.5 17.1 375.5 17.9 C 375.5 19.8 381.1 19.4 381.1 22.8 C 381.1 24.6 379.5 25.7 377.3 25.7 C 374.63 25.74 373.3 24 373.3 24 L 374.3 22.7 Z M 383.6 16.9 L 382.3 16.9 L 382.3 15.4 L 383.7 15.4 L 383.7 12.6 L 385.6 12.6 L 385.6 15.4 L 388 15.4 L 388 16.9 L 385.6 16.9 C 385.6 16.9 385.55 21.58 385.6 21.6 C 385.6 23.6 387 23.9 387.7 23.9 C 387.97 23.86 388.2 23.8 388.2 23.8 L 388.2 25.5 C 388.2 25.5 387.89 25.58 387.5 25.6 C 386.2 25.6 383.6 25.2 383.6 21.8 C 383.61 21.8 383.6 16.9 383.6 16.9 Z M 390.6 17.5 C 390.6 17.2 390.4 17 390.1 17 C 390.13 17.04 389.3 17 389.3 17 L 389.3 15.4 C 389.3 15.4 391.15 15.38 391.2 15.4 C 392 15.4 392.5 15.7 392.5 16.6 C 392.5 16.6 392.5 17.2 392.5 17.2 C 392.45 17.6 392.4 17.9 392.4 17.9 C 392.4 17.9 392.45 17.9 392.5 17.9 C 392.9 16.4 394.1 15.3 395.7 15.3 C 395.91 15.26 396.2 15.3 396.2 15.3 L 396.2 17.2 C 396.2 17.2 395.91 17.16 395.6 17.2 C 394.4 17.2 393.2 18 392.8 19.5 C 392.6 20.1 392.5 20.7 392.5 21.4 C 392.51 21.36 392.5 25.5 392.5 25.5 L 390.6 25.5 C 390.6 25.5 390.57 17.48 390.6 17.5 Z M 402.4 15.1 C 405.4 15.1 407.8 17.4 407.8 20.4 C 407.8 23.5 405.4 25.7 402.4 25.7 C 399.4 25.7 396.9 23.5 396.9 20.4 C 396.9 17.4 399.4 15.1 402.4 15.1 Z M 402.4 24.1 C 404.3 24.1 405.9 22.5 405.9 20.4 C 405.9 18.3 404.3 16.8 402.4 16.8 C 400.5 16.8 398.9 18.3 398.9 20.4 C 398.9 22.5 400.5 24.1 402.4 24.1 Z M 413.7 15.1 C 416.25 15.14 417 16.7 417 16.7 L 417 16.7 C 417 16.7 417.01 16.56 417 16.4 C 417 15.8 417.3 15.4 418.1 15.4 C 418.13 15.38 420 15.4 420 15.4 L 420 17 C 420 17 419.21 17.04 419.2 17 C 419 17 418.8 17.2 418.8 17.4 C 418.8 17.4 418.8 25.1 418.8 25.1 C 418.8 28.4 416.2 29.7 413.7 29.7 C 412.5 29.7 411.2 29.4 410.2 28.9 C 410.21 28.86 410.9 27.3 410.9 27.3 C 410.9 27.3 412.11 27.98 413.6 28 C 415.4 28 416.8 27.2 416.8 25.2 C 416.8 25.2 416.8 24.5 416.8 24.5 C 416.83 24.16 416.9 23.8 416.9 23.8 C 416.9 23.8 416.83 23.84 416.8 23.8 C 416.2 24.8 415.3 25.4 413.8 25.4 C 411 25.4 409.3 23.1 409.3 20.2 C 409.3 17.3 410.9 15.1 413.7 15.1 Z M 416.9 20.2 C 416.9 17.6 415.6 16.8 414 16.8 C 412.3 16.8 411.3 18.1 411.3 20.2 C 411.3 22.3 412.4 23.7 414.2 23.7 C 415.6 23.7 416.9 22.9 416.9 20.2 Z M 426.3 15.1 C 429.1 15.1 430.6 17.3 430.6 19.9 C 430.61 20.14 430.6 20.7 430.6 20.7 C 430.6 20.7 423.17 20.68 423.2 20.7 C 423.3 22.8 424.9 24.1 426.7 24.1 C 428.39 24.06 429.6 22.9 429.6 22.9 L 430.5 24.3 C 430.5 24.3 428.95 25.74 426.6 25.7 C 423.4 25.7 421.2 23.4 421.2 20.4 C 421.2 17.2 423.4 15.1 426.3 15.1 Z M 428.6 19.3 C 428.6 17.6 427.5 16.7 426.2 16.7 C 424.8 16.7 423.6 17.6 423.3 19.3 C 423.3 19.3 428.6 19.3 428.6 19.3 Z M 426.9 11.4 L 428.8 11.4 L 426.9 13.9 L 425.4 13.9 L 426.9 11.4 Z M 433.2 17.5 C 433.2 17.2 433 17 432.8 17 C 432.75 17.04 431.9 17 431.9 17 L 431.9 15.4 C 431.9 15.4 433.79 15.38 433.8 15.4 C 434.7 15.4 435.1 15.8 435.1 16.5 C 435.1 16.5 435.1 16.9 435.1 16.9 C 435.07 17.2 435 17.5 435 17.5 C 435 17.5 435.07 17.46 435.1 17.5 C 435.5 16.6 436.7 15.1 438.9 15.1 C 441.3 15.1 442.4 16.4 442.4 19 C 442.4 19 442.4 23.4 442.4 23.4 C 442.4 23.7 442.5 23.8 442.8 23.8 C 442.79 23.84 443.6 23.8 443.6 23.8 L 443.6 25.5 C 443.6 25.5 441.69 25.5 441.7 25.5 C 440.8 25.5 440.4 25.1 440.4 24.2 C 440.4 24.2 440.4 19.5 440.4 19.5 C 440.4 18 440.1 16.9 438.5 16.9 C 437 16.9 435.7 17.9 435.3 19.4 C 435.2 19.8 435.1 20.3 435.1 20.8 C 435.13 20.76 435.1 25.5 435.1 25.5 L 433.2 25.5 C 433.2 25.5 433.19 17.48 433.2 17.5 Z M 450.2 15.1 C 453.2 15.1 455.6 17.4 455.6 20.4 C 455.6 23.5 453.2 25.7 450.2 25.7 C 447.2 25.7 444.7 23.5 444.7 20.4 C 444.7 17.4 447.2 15.1 450.2 15.1 Z M 450.2 24.1 C 452.1 24.1 453.7 22.5 453.7 20.4 C 453.7 18.3 452.1 16.8 450.2 16.8 C 448.3 16.8 446.7 18.3 446.7 20.4 C 446.7 22.5 448.3 24.1 450.2 24.1 Z M 457.2 17.4 C 457.1 17.1 456.9 17 456.6 17 C 456.61 17.04 456.4 17 456.4 17 L 456.4 15.4 C 456.4 15.4 457.41 15.38 457.4 15.4 C 458.3 15.4 458.7 15.6 459 16.4 C 459 16.4 461.1 22.2 461.1 22.2 C 461.33 22.78 461.5 23.5 461.5 23.5 L 461.5 23.5 C 461.5 23.5 461.69 22.78 461.9 22.2 C 461.9 22.2 464.1 16.4 464.1 16.4 C 464.4 15.6 464.7 15.4 465.6 15.4 C 465.59 15.38 466.5 15.4 466.5 15.4 L 466.5 17 C 466.5 17 466.33 17.04 466.3 17 C 466 17 465.8 17.1 465.7 17.4 C 465.67 17.44 462.6 25.5 462.6 25.5 L 460.4 25.5 C 460.4 25.5 457.23 17.44 457.2 17.4 Z " stroke="none" fill="#ee3078"/>  </g></svg>