<?xml version="1.0" standalone="no"?><!DOCTYPE svg PUBLIC "-//W3C//DTD SVG 1.1//EN" "http://www.w3.org/Graphics/SVG/1.1/DTD/svg11.dtd"><svg xmlns="http://www.w3.org/2000/svg" version="1.1" width="526.1px" height="43.5px" viewBox="0 -5 526.1 43.5" style="top:-5px">  <desc>Hmotnostn stabilita</desc>  <defs/>  <g id="Polygon71492">    <path d="M 2.3 18.8 L 13.3 14 L 13.3 13.9 L 2.3 9.2 L 2.3 7.2 L 15.9 13.2 L 15.9 14.7 L 2.3 20.8 L 2.3 18.8 Z M 29.5 3.9 C 29.5 3.5 29.3 3.3 28.9 3.3 C 28.89 3.27 27.6 3.3 27.6 3.3 L 27.6 1.4 C 27.6 1.4 29.82 1.41 29.8 1.4 C 31.1 1.4 31.6 2 31.6 3.2 C 31.65 3.24 31.6 11 31.6 11 L 43.8 11 C 43.8 11 43.77 3.24 43.8 3.2 C 43.8 2 44.3 1.4 45.6 1.4 C 45.57 1.41 47.8 1.4 47.8 1.4 L 47.8 3.3 C 47.8 3.3 46.53 3.27 46.5 3.3 C 46.1 3.3 45.9 3.5 45.9 3.9 C 45.87 3.93 45.9 22.5 45.9 22.5 L 43.8 22.5 L 43.8 12.9 L 31.6 12.9 L 31.6 22.5 L 29.5 22.5 C 29.5 22.5 29.55 3.93 29.5 3.9 Z M 51.7 9.8 C 51.7 9.4 51.4 9.2 51 9.2 C 51 9.18 49.7 9.2 49.7 9.2 L 49.7 7.4 C 49.7 7.4 51.84 7.41 51.8 7.4 C 53.1 7.4 53.7 8 53.7 9.1 C 53.7 9.1 53.7 9.8 53.7 9.8 C 53.67 10.38 53.6 10.9 53.6 10.9 C 53.6 10.9 53.67 10.86 53.7 10.9 C 54.4 8.8 56.8 7.1 59.1 7.1 C 61.9 7.1 63.4 8.3 63.8 10.8 C 63.8 10.8 63.9 10.8 63.9 10.8 C 64.7 8.8 66.9 7.1 69.4 7.1 C 73.1 7.1 74.4 9.2 74.4 12.9 C 74.4 12.9 74.4 20.1 74.4 20.1 C 74.4 20.5 74.7 20.7 75.1 20.7 C 75.09 20.73 76.3 20.7 76.3 20.7 L 76.3 22.5 C 76.3 22.5 74.22 22.5 74.2 22.5 C 72.9 22.5 72.4 22 72.4 20.7 C 72.4 20.7 72.4 13.4 72.4 13.4 C 72.4 10.9 71.9 8.9 69.1 8.9 C 66.8 8.9 64.9 10.9 64.3 13.2 C 64.1 13.8 64.1 14.6 64.1 15.4 C 64.08 15.36 64.1 22.5 64.1 22.5 L 62 22.5 C 62 22.5 62.04 13.41 62 13.4 C 62 11.1 61.7 8.9 58.9 8.9 C 56.4 8.9 54.6 11 53.9 13.4 C 53.8 14 53.7 14.7 53.7 15.4 C 53.7 15.36 53.7 22.5 53.7 22.5 L 51.7 22.5 C 51.7 22.5 51.66 9.84 51.7 9.8 Z M 86.1 7.1 C 90.5 7.1 94.1 10.4 94.1 14.9 C 94.1 19.4 90.5 22.9 86.2 22.9 C 81.7 22.9 78.2 19.4 78.2 14.9 C 78.2 10.4 81.7 7.1 86.1 7.1 Z M 86.2 21 C 89.4 21 92 18.4 92 14.9 C 92 11.5 89.4 8.9 86.2 8.9 C 82.9 8.9 80.3 11.5 80.3 14.9 C 80.3 18.4 82.9 21 86.2 21 Z M 98.1 9.1 L 96.1 9.1 L 96.1 7.4 L 98.1 7.4 L 98.1 3.2 L 100.1 3.2 L 100.1 7.4 L 103.9 7.4 L 103.9 9.1 L 100.1 9.1 C 100.1 9.1 100.14 16.8 100.1 16.8 C 100.1 20.3 102.4 20.8 103.5 20.8 C 103.95 20.79 104.2 20.7 104.2 20.7 L 104.2 22.6 C 104.2 22.6 103.86 22.62 103.3 22.6 C 101.6 22.6 98.1 22.1 98.1 17 C 98.1 17.01 98.1 9.1 98.1 9.1 Z M 108 9.8 C 108 9.4 107.7 9.2 107.3 9.2 C 107.31 9.18 106 9.2 106 9.2 L 106 7.4 C 106 7.4 108.15 7.41 108.1 7.4 C 109.4 7.4 110 8 110 9.1 C 110 9.1 110 9.8 110 9.8 C 109.98 10.38 109.9 10.9 109.9 10.9 C 109.9 10.9 109.98 10.86 110 10.9 C 110.5 9.5 112.4 7.1 116 7.1 C 119.7 7.1 121 9.2 121 12.9 C 121 12.9 121 20.1 121 20.1 C 121 20.5 121.3 20.7 121.7 20.7 C 121.71 20.73 123 20.7 123 20.7 L 123 22.5 C 123 22.5 120.84 22.5 120.8 22.5 C 119.5 22.5 119 22 119 20.7 C 119 20.7 119 13.4 119 13.4 C 119 11.1 118.6 9 115.7 9 C 113.2 9 110.9 10.7 110.2 13.2 C 110.1 13.9 110 14.6 110 15.3 C 110.01 15.27 110 22.5 110 22.5 L 108 22.5 C 108 22.5 107.97 9.84 108 9.8 Z M 132.7 7.1 C 137.2 7.1 140.7 10.4 140.7 14.9 C 140.7 19.4 137.2 22.9 132.8 22.9 C 128.4 22.9 124.8 19.4 124.8 14.9 C 124.8 10.4 128.4 7.1 132.7 7.1 Z M 132.8 21 C 136 21 138.6 18.4 138.6 14.9 C 138.6 11.5 136 8.9 132.8 8.9 C 129.5 8.9 126.9 11.5 126.9 14.9 C 126.9 18.4 129.5 21 132.8 21 Z M 144 18.8 C 144 18.8 145.65 21.09 148.6 21.1 C 150.3 21.1 151.8 20.3 151.8 18.7 C 151.8 15.4 143.3 16 143.3 11.1 C 143.3 8.4 145.7 7.1 148.7 7.1 C 150.2 7.1 153.3 7.7 153.3 9.8 C 153.3 9.78 153.3 11.1 153.3 11.1 L 151.4 11.1 C 151.4 11.1 151.38 10.35 151.4 10.4 C 151.4 9.2 149.8 8.8 148.8 8.8 C 146.7 8.8 145.4 9.5 145.4 11 C 145.4 14.4 153.9 13.6 153.9 18.6 C 153.9 21.1 151.6 22.9 148.6 22.9 C 144.66 22.86 142.8 20.2 142.8 20.2 L 144 18.8 Z M 157.9 9.1 L 155.9 9.1 L 155.9 7.4 L 157.9 7.4 L 157.9 3.2 L 160 3.2 L 160 7.4 L 163.7 7.4 L 163.7 9.1 L 160 9.1 C 160 9.1 159.96 16.8 160 16.8 C 160 20.3 162.2 20.8 163.3 20.8 C 163.77 20.79 164 20.7 164 20.7 L 164 22.6 C 164 22.6 163.68 22.62 163.2 22.6 C 161.4 22.6 157.9 22.1 157.9 17 C 157.92 17.01 157.9 9.1 157.9 9.1 Z M 167.8 9.8 C 167.8 9.4 167.5 9.2 167.1 9.2 C 167.13 9.18 165.9 9.2 165.9 9.2 L 165.9 7.4 C 165.9 7.4 167.97 7.41 168 7.4 C 169.2 7.4 169.8 8 169.8 9.1 C 169.8 9.1 169.8 9.8 169.8 9.8 C 169.8 10.38 169.7 10.9 169.7 10.9 C 169.7 10.9 169.8 10.86 169.8 10.9 C 170.3 9.5 172.3 7.1 175.8 7.1 C 179.5 7.1 180.9 9.2 180.9 12.9 C 180.9 12.9 180.9 20.1 180.9 20.1 C 180.9 20.5 181.1 20.7 181.5 20.7 C 181.53 20.73 182.8 20.7 182.8 20.7 L 182.8 22.5 C 182.8 22.5 180.66 22.5 180.7 22.5 C 179.4 22.5 178.8 22 178.8 20.7 C 178.8 20.7 178.8 13.4 178.8 13.4 C 178.8 11.1 178.5 9 175.6 9 C 173 9 170.8 10.7 170.1 13.2 C 169.9 13.9 169.8 14.6 169.8 15.3 C 169.83 15.27 169.8 22.5 169.8 22.5 L 167.8 22.5 C 167.8 22.5 167.79 9.84 167.8 9.8 Z M 193.9 13.2 C 193.86 13.2 194.7 13.2 194.7 13.2 C 194.7 13.2 194.7 13.02 194.7 13 C 194.7 9.9 193.6 8.8 190.8 8.8 C 190 8.8 187.9 9 187.9 10.1 C 187.86 10.08 187.9 11 187.9 11 L 185.9 11 C 185.9 11 185.91 9.6 185.9 9.6 C 185.9 7.5 189.5 7.1 190.8 7.1 C 195.6 7.1 196.7 9.6 196.7 12.8 C 196.7 12.8 196.7 20.1 196.7 20.1 C 196.7 20.5 197 20.7 197.4 20.7 C 197.4 20.73 198.7 20.7 198.7 20.7 L 198.7 22.5 C 198.7 22.5 196.59 22.5 196.6 22.5 C 195.3 22.5 194.8 21.9 194.8 20.7 C 194.79 20.04 194.8 19.6 194.8 19.6 C 194.8 19.6 194.76 19.59 194.8 19.6 C 194.8 19.6 193.5 22.9 189.7 22.9 C 187.2 22.9 184.6 21.4 184.6 18.4 C 184.6 13.4 191.2 13.2 193.9 13.2 Z M 190.1 21.1 C 193 21.1 194.7 18.1 194.7 15.5 C 194.7 15.51 194.7 14.8 194.7 14.8 C 194.7 14.8 193.83 14.82 193.8 14.8 C 191.5 14.8 186.7 14.9 186.7 18.3 C 186.7 19.7 187.8 21.1 190.1 21.1 Z M 192.4 1.4 L 194.7 1.4 L 192.1 5 L 190.3 5 L 192.4 1.4 Z M 209.5 18.8 C 209.5 18.8 211.17 21.09 214.1 21.1 C 215.8 21.1 217.3 20.3 217.3 18.7 C 217.3 15.4 208.9 16 208.9 11.1 C 208.9 8.4 211.2 7.1 214.2 7.1 C 215.8 7.1 218.8 7.7 218.8 9.8 C 218.82 9.78 218.8 11.1 218.8 11.1 L 216.9 11.1 C 216.9 11.1 216.9 10.35 216.9 10.4 C 216.9 9.2 215.3 8.8 214.3 8.8 C 212.2 8.8 210.9 9.5 210.9 11 C 210.9 14.4 219.4 13.6 219.4 18.6 C 219.4 21.1 217.1 22.9 214.1 22.9 C 210.18 22.86 208.3 20.2 208.3 20.2 L 209.5 18.8 Z M 223.4 9.1 L 221.5 9.1 L 221.5 7.4 L 223.5 7.4 L 223.5 3.2 L 225.5 3.2 L 225.5 7.4 L 229.3 7.4 L 229.3 9.1 L 225.5 9.1 C 225.5 9.1 225.48 16.8 225.5 16.8 C 225.5 20.3 227.7 20.8 228.9 20.8 C 229.29 20.79 229.6 20.7 229.6 20.7 L 229.6 22.6 C 229.6 22.6 229.2 22.62 228.7 22.6 C 226.9 22.6 223.4 22.1 223.4 17 C 223.44 17.01 223.4 9.1 223.4 9.1 Z M 240.9 13.2 C 240.93 13.2 241.8 13.2 241.8 13.2 C 241.8 13.2 241.77 13.02 241.8 13 C 241.8 9.9 240.6 8.8 237.9 8.8 C 237.1 8.8 234.9 9 234.9 10.1 C 234.93 10.08 234.9 11 234.9 11 L 233 11 C 233 11 232.98 9.6 233 9.6 C 233 7.5 236.6 7.1 237.9 7.1 C 242.7 7.1 243.8 9.6 243.8 12.8 C 243.8 12.8 243.8 20.1 243.8 20.1 C 243.8 20.5 244 20.7 244.5 20.7 C 244.47 20.73 245.7 20.7 245.7 20.7 L 245.7 22.5 C 245.7 22.5 243.66 22.5 243.7 22.5 C 242.4 22.5 241.9 21.9 241.9 20.7 C 241.86 20.04 241.9 19.6 241.9 19.6 C 241.9 19.6 241.83 19.59 241.8 19.6 C 241.9 19.6 240.6 22.9 236.8 22.9 C 234.3 22.9 231.7 21.4 231.7 18.4 C 231.7 13.4 238.3 13.2 240.9 13.2 Z M 237.1 21.1 C 240 21.1 241.8 18.1 241.8 15.5 C 241.77 15.51 241.8 14.8 241.8 14.8 C 241.8 14.8 240.9 14.82 240.9 14.8 C 238.5 14.8 233.8 14.9 233.8 18.3 C 233.8 19.7 234.9 21.1 237.1 21.1 Z M 248.9 3.8 C 248.9 3.4 248.6 3.2 248.2 3.2 C 248.22 3.18 247 3.2 247 3.2 L 247 1.4 C 247 1.4 249.09 1.41 249.1 1.4 C 250.4 1.4 250.9 2 250.9 3.2 C 250.9 3.2 250.9 8.7 250.9 8.7 C 250.92 9.39 250.9 9.9 250.9 9.9 L 250.9 9.9 C 250.9 9.9 252.18 7.05 256 7.1 C 260.1 7.1 262.6 10.3 262.6 15 C 262.6 19.7 259.8 22.9 255.8 22.9 C 252.21 22.86 250.9 20 250.9 20 L 250.8 20 C 250.8 20 250.86 20.46 250.9 21.2 C 250.86 21.18 250.9 22.5 250.9 22.5 L 248.9 22.5 C 248.9 22.5 248.88 3.84 248.9 3.8 Z M 255.7 21.1 C 258.3 21.1 260.5 18.8 260.5 15 C 260.5 11.3 258.5 8.9 255.7 8.9 C 253.2 8.9 250.9 10.7 250.9 15 C 250.9 18 252.4 21.1 255.7 21.1 Z M 266.6 1.4 L 268.6 1.4 L 268.6 4 L 266.6 4 L 266.6 1.4 Z M 266.6 9.8 C 266.6 9.4 266.4 9.2 266 9.2 C 265.98 9.18 264.7 9.2 264.7 9.2 L 264.7 7.4 C 264.7 7.4 266.85 7.41 266.8 7.4 C 268.1 7.4 268.7 8 268.7 9.2 C 268.7 9.2 268.7 20.1 268.7 20.1 C 268.7 20.5 268.9 20.7 269.3 20.7 C 269.34 20.73 270.6 20.7 270.6 20.7 L 270.6 22.5 C 270.6 22.5 268.47 22.5 268.5 22.5 C 267.2 22.5 266.6 22 266.6 20.7 C 266.6 20.7 266.6 9.8 266.6 9.8 Z M 274 3.8 C 274 3.4 273.7 3.2 273.3 3.2 C 273.33 3.18 272.1 3.2 272.1 3.2 L 272.1 1.4 C 272.1 1.4 274.2 1.41 274.2 1.4 C 275.5 1.4 276 2 276 3.2 C 276 3.2 276 20.1 276 20.1 C 276 20.5 276.3 20.7 276.7 20.7 C 276.69 20.73 277.9 20.7 277.9 20.7 L 277.9 22.5 C 277.9 22.5 275.82 22.5 275.8 22.5 C 274.5 22.5 274 22 274 20.7 C 274 20.7 274 3.8 274 3.8 Z M 281.5 1.4 L 283.4 1.4 L 283.4 4 L 281.5 4 L 281.5 1.4 Z M 281.5 9.8 C 281.5 9.4 281.3 9.2 280.9 9.2 C 280.86 9.18 279.6 9.2 279.6 9.2 L 279.6 7.4 C 279.6 7.4 281.73 7.41 281.7 7.4 C 283 7.4 283.6 8 283.6 9.2 C 283.6 9.2 283.6 20.1 283.6 20.1 C 283.6 20.5 283.8 20.7 284.2 20.7 C 284.22 20.73 285.5 20.7 285.5 20.7 L 285.5 22.5 C 285.5 22.5 283.35 22.5 283.3 22.5 C 282.1 22.5 281.5 22 281.5 20.7 C 281.5 20.7 281.5 9.8 281.5 9.8 Z M 289.1 9.1 L 287.1 9.1 L 287.1 7.4 L 289.1 7.4 L 289.1 3.2 L 291.1 3.2 L 291.1 7.4 L 294.9 7.4 L 294.9 9.1 L 291.1 9.1 C 291.1 9.1 291.11 16.8 291.1 16.8 C 291.1 20.3 293.4 20.8 294.5 20.8 C 294.92 20.79 295.2 20.7 295.2 20.7 L 295.2 22.6 C 295.2 22.6 294.83 22.62 294.3 22.6 C 292.6 22.6 289.1 22.1 289.1 17 C 289.07 17.01 289.1 9.1 289.1 9.1 Z M 306.6 13.2 C 306.57 13.2 307.4 13.2 307.4 13.2 C 307.4 13.2 307.41 13.02 307.4 13 C 307.4 9.9 306.3 8.8 303.5 8.8 C 302.8 8.8 300.6 9 300.6 10.1 C 300.57 10.08 300.6 11 300.6 11 L 298.6 11 C 298.6 11 298.62 9.6 298.6 9.6 C 298.6 7.5 302.2 7.1 303.5 7.1 C 308.3 7.1 309.4 9.6 309.4 12.8 C 309.4 12.8 309.4 20.1 309.4 20.1 C 309.4 20.5 309.7 20.7 310.1 20.7 C 310.11 20.73 311.4 20.7 311.4 20.7 L 311.4 22.5 C 311.4 22.5 309.3 22.5 309.3 22.5 C 308 22.5 307.5 21.9 307.5 20.7 C 307.5 20.04 307.5 19.6 307.5 19.6 C 307.5 19.6 307.47 19.59 307.5 19.6 C 307.5 19.6 306.2 22.9 302.5 22.9 C 299.9 22.9 297.3 21.4 297.3 18.4 C 297.3 13.4 304 13.2 306.6 13.2 Z M 302.8 21.1 C 305.7 21.1 307.4 18.1 307.4 15.5 C 307.41 15.51 307.4 14.8 307.4 14.8 C 307.4 14.8 306.54 14.82 306.5 14.8 C 304.2 14.8 299.4 14.9 299.4 18.3 C 299.4 19.7 300.5 21.1 302.8 21.1 Z " stroke="none" fill="#ee3078"/>  </g></svg>