<?xml version="1.0" standalone="no"?><!DOCTYPE svg PUBLIC "-//W3C//DTD SVG 1.1//EN" "http://www.w3.org/Graphics/SVG/1.1/DTD/svg11.dtd"><svg xmlns="http://www.w3.org/2000/svg" version="1.1" width="158.4px" height="84px" viewBox="0 -1 158.4 84" style="top:-1px">  <desc>VTE</desc>  <defs/>  <g id="Polygon77963">    <path d="M 64.8 35.6 C 64.7 35.3 64.6 35.3 64.3 35.3 C 64.29 35.25 64 35.3 64 35.3 L 64 33.5 C 64 33.5 65.33 33.47 65.3 33.5 C 66.1 33.5 66.4 33.7 66.7 34.4 C 66.7 34.4 68.9 40.7 68.9 40.7 C 69.08 41.38 69.3 42.4 69.3 42.4 L 69.3 42.4 C 69.3 42.4 69.52 41.38 69.7 40.7 C 69.7 40.7 71.9 34.4 71.9 34.4 C 72.2 33.7 72.5 33.5 73.3 33.5 C 73.25 33.47 74.6 33.5 74.6 33.5 L 74.6 35.3 C 74.6 35.3 74.29 35.25 74.3 35.3 C 74 35.3 73.9 35.3 73.8 35.6 C 73.8 35.6 70.4 44.8 70.4 44.8 L 68.2 44.8 C 68.2 44.8 64.79 35.6 64.8 35.6 Z M 79.1 35.3 C 79.1 35.3 77.32 35.25 77.3 35.3 C 77.1 35.3 77 35.4 77 35.6 C 76.96 35.6 77 36.3 77 36.3 L 75.1 36.3 C 75.1 36.3 75.12 34.5 75.1 34.5 C 75.1 33.7 75.4 33.5 76.1 33.5 C 76.1 33.5 84.1 33.5 84.1 33.5 C 84.8 33.5 85.1 33.7 85.1 34.5 C 85.09 34.5 85.1 36.3 85.1 36.3 L 83.3 36.3 C 83.3 36.3 83.25 35.6 83.3 35.6 C 83.3 35.4 83.1 35.3 82.9 35.3 C 82.9 35.25 81.2 35.3 81.2 35.3 L 81.2 44.8 L 79.1 44.8 L 79.1 35.3 Z M 86.9 35.3 L 85.9 35.3 L 85.9 33.5 C 85.9 33.5 92.74 33.47 92.7 33.5 C 93.5 33.5 93.8 33.8 93.8 34.6 C 93.83 34.56 93.8 36.3 93.8 36.3 L 91.9 36.3 C 91.9 36.3 91.92 35.6 91.9 35.6 C 91.9 35.4 91.8 35.3 91.6 35.3 C 91.57 35.25 89 35.3 89 35.3 L 89 38.2 L 92.7 38.2 L 92.7 40 L 89 40 C 89 40 89.01 42.71 89 42.7 C 89 42.9 89.1 43.1 89.4 43.1 C 89.4 43.1 92 43.1 92 43.1 C 92.2 43.1 92.3 42.9 92.3 42.7 C 92.34 42.71 92.3 42 92.3 42 L 94.2 42 C 94.2 42 94.24 43.75 94.2 43.7 C 94.2 44.5 93.9 44.8 93.2 44.8 C 93.2 44.8 88 44.8 88 44.8 C 87.2 44.8 86.9 44.5 86.9 43.7 C 86.92 43.75 86.9 35.3 86.9 35.3 Z " stroke="none" fill="#ee3078"/>  </g></svg>