<?xml version="1.0" standalone="no"?><!DOCTYPE svg PUBLIC "-//W3C//DTD SVG 1.1//EN" "http://www.w3.org/Graphics/SVG/1.1/DTD/svg11.dtd"><svg xmlns="http://www.w3.org/2000/svg" version="1.1" width="113.4px" height="80.3px" viewBox="0 0 113.4 80.3">  <desc>Estradiolvaler t („E2V“)</desc>  <defs/>  <g id="Polygon70189">    <path d="M 38.3 41.6 C 38.3 41.6 39.4 41.6 39.4 41.6 C 38.5 43.2 38 44.9 38 46.8 C 38 48.7 38.5 50.6 39.5 52.4 C 39.5 52.4 38.4 52.4 38.4 52.4 C 37.4 50.8 36.9 48.8 36.9 46.8 C 36.9 44.9 37.3 43.1 38.3 41.6 Z M 43 49.8 L 44.2 49.8 L 43.4 52.3 L 42.5 52.3 L 43 49.8 Z M 42.4 49.8 L 41.6 52.3 L 40.7 52.3 L 41.2 49.8 L 42.4 49.8 Z M 45.9 43.1 L 45.1 43.1 L 45.1 41.9 C 45.1 41.9 50.47 41.95 50.5 41.9 C 51.1 41.9 51.3 42.2 51.3 42.8 C 51.3 42.78 51.3 43.9 51.3 43.9 L 50.1 43.9 C 50.1 43.9 50.12 43.35 50.1 43.4 C 50.1 43.2 50 43.1 49.8 43.1 C 49.83 43.06 47.2 43.1 47.2 43.1 L 47.2 45.9 L 50.4 45.9 L 50.4 47.1 L 47.2 47.1 C 47.2 47.1 47.22 49.72 47.2 49.7 C 47.2 49.9 47.3 50 47.5 50 C 47.5 50 50.2 50 50.2 50 C 50.4 50 50.5 49.9 50.5 49.7 C 50.47 49.72 50.5 49.1 50.5 49.1 L 51.7 49.1 C 51.7 49.1 51.66 50.29 51.7 50.3 C 51.7 50.9 51.4 51.1 50.8 51.1 C 50.8 51.1 46.7 51.1 46.7 51.1 C 46.2 51.1 45.9 50.9 45.9 50.3 C 45.92 50.29 45.9 43.1 45.9 43.1 Z M 57.1 44.4 C 57.1 43.6 56.5 43 55.5 43 C 54.7 43 54.1 43.4 54.1 43.9 C 54.09 43.86 54.1 44.3 54.1 44.3 L 52.9 44.3 C 52.9 44.3 52.9 43.48 52.9 43.5 C 52.9 42.3 54.5 41.8 55.6 41.8 C 57.2 41.8 58.4 42.9 58.4 44.4 C 58.4 47.6 53.8 47.6 53.8 49.8 C 53.8 49.9 53.9 50 54.1 50 C 54.1 50 57.4 50 57.4 50 C 57.6 50 57.7 49.9 57.7 49.7 C 57.67 49.72 57.7 49.1 57.7 49.1 L 58.9 49.1 C 58.9 49.1 58.87 50.29 58.9 50.3 C 58.9 50.9 58.6 51.1 58 51.1 C 58 51.1 53.3 51.1 53.3 51.1 C 52.6 51.1 52.5 50.8 52.5 50.1 C 52.5 46.7 57.1 46.9 57.1 44.4 Z M 60.2 43.4 C 60.1 43.1 60 43.1 59.8 43.1 C 59.75 43.06 59.6 43.1 59.6 43.1 L 59.6 41.9 C 59.6 41.9 60.3 41.95 60.3 41.9 C 60.9 41.9 61.2 42.1 61.4 42.7 C 61.4 42.7 63.4 48.4 63.4 48.4 C 63.56 48.85 63.7 49.6 63.7 49.6 L 63.8 49.6 C 63.8 49.6 63.94 48.85 64.1 48.4 C 64.1 48.4 66.1 42.7 66.1 42.7 C 66.4 42.1 66.6 41.9 67.2 41.9 C 67.21 41.95 67.9 41.9 67.9 41.9 L 67.9 43.1 C 67.9 43.1 67.76 43.06 67.8 43.1 C 67.5 43.1 67.4 43.1 67.3 43.4 C 67.33 43.35 64.4 51.1 64.4 51.1 L 63.1 51.1 C 63.1 51.1 60.18 43.35 60.2 43.4 Z M 71.4 41.8 L 72.3 41.8 L 71.8 44.3 L 70.6 44.3 L 71.4 41.8 Z M 69.6 41.8 L 70.5 41.8 L 70 44.3 L 68.8 44.3 L 69.6 41.8 Z M 75 46.8 C 75 44.9 74.5 43.2 73.6 41.6 C 73.6 41.6 74.7 41.6 74.7 41.6 C 75.7 43.1 76.1 44.9 76.1 46.8 C 76.1 48.8 75.6 50.8 74.6 52.4 C 74.6 52.4 73.5 52.4 73.5 52.4 C 74.5 50.6 75 48.7 75 46.8 Z " stroke="none" fill="#fff"/>  </g>  <g id="Polygon70188">    <path d="M 11.2 27.5 L 10.4 27.5 L 10.4 26.3 C 10.4 26.3 15.77 26.35 15.8 26.3 C 16.3 26.3 16.6 26.6 16.6 27.2 C 16.6 27.18 16.6 28.3 16.6 28.3 L 15.4 28.3 C 15.4 28.3 15.41 27.75 15.4 27.8 C 15.4 27.6 15.3 27.5 15.1 27.5 C 15.13 27.46 12.5 27.5 12.5 27.5 L 12.5 30.3 L 15.7 30.3 L 15.7 31.5 L 12.5 31.5 C 12.5 31.5 12.51 34.12 12.5 34.1 C 12.5 34.3 12.6 34.4 12.8 34.4 C 12.8 34.4 15.5 34.4 15.5 34.4 C 15.7 34.4 15.8 34.3 15.8 34.1 C 15.77 34.12 15.8 33.5 15.8 33.5 L 17 33.5 C 17 33.5 16.96 34.69 17 34.7 C 17 35.3 16.7 35.5 16.1 35.5 C 16.1 35.5 12 35.5 12 35.5 C 11.5 35.5 11.2 35.3 11.2 34.7 C 11.22 34.69 11.2 27.5 11.2 27.5 Z M 18.3 33.7 C 18.3 33.7 19.04 34.65 20.2 34.7 C 20.9 34.7 21.4 34.4 21.4 33.8 C 21.4 32.6 17.8 32.8 17.8 30.6 C 17.8 29.4 18.9 28.8 20.3 28.8 C 21 28.8 22.4 29.1 22.4 30.1 C 22.41 30.06 22.4 30.7 22.4 30.7 L 21.3 30.7 C 21.3 30.7 21.28 30.36 21.3 30.4 C 21.3 30 20.7 29.8 20.3 29.8 C 19.5 29.8 19.1 30.1 19.1 30.6 C 19.1 31.8 22.7 31.6 22.7 33.8 C 22.7 34.9 21.6 35.7 20.2 35.7 C 18.48 35.68 17.6 34.5 17.6 34.5 L 18.3 33.7 Z M 24.3 30 L 23.5 30 L 23.5 28.9 L 24.3 28.9 L 24.3 27.1 L 25.6 27.1 L 25.6 28.9 L 27.2 28.9 L 27.2 30 L 25.6 30 C 25.6 30 25.58 32.98 25.6 33 C 25.6 34.3 26.5 34.5 27 34.5 C 27.15 34.46 27.3 34.4 27.3 34.4 L 27.3 35.6 C 27.3 35.6 27.1 35.58 26.8 35.6 C 26 35.6 24.3 35.3 24.3 33.1 C 24.32 33.12 24.3 30 24.3 30 Z M 28.8 30.3 C 28.8 30.1 28.7 30 28.6 30 C 28.56 30.03 28 30 28 30 L 28 28.9 C 28 28.9 29.22 28.95 29.2 28.9 C 29.8 28.9 30.1 29.2 30.1 29.7 C 30.1 29.7 30.1 30.1 30.1 30.1 C 30.06 30.39 30 30.6 30 30.6 C 30 30.6 30.06 30.58 30.1 30.6 C 30.4 29.6 31.1 28.9 32.1 28.9 C 32.31 28.87 32.5 28.9 32.5 28.9 L 32.5 30.1 C 32.5 30.1 32.31 30.1 32.1 30.1 C 31.3 30.1 30.6 30.7 30.3 31.7 C 30.1 32 30.1 32.4 30.1 32.8 C 30.1 32.83 30.1 35.5 30.1 35.5 L 28.8 35.5 C 28.8 35.5 28.84 30.31 28.8 30.3 Z M 36.8 31.4 C 36.81 31.43 37.1 31.4 37.1 31.4 C 37.1 31.4 37.1 31.37 37.1 31.4 C 37.1 30.2 36.7 29.8 35.6 29.8 C 35.3 29.8 34.6 29.9 34.6 30.3 C 34.56 30.3 34.6 30.7 34.6 30.7 L 33.4 30.7 C 33.4 30.7 33.38 30.03 33.4 30 C 33.4 28.9 35 28.8 35.7 28.8 C 37.8 28.8 38.4 29.9 38.4 31.4 C 38.4 31.4 38.4 34.2 38.4 34.2 C 38.4 34.4 38.5 34.4 38.6 34.4 C 38.64 34.45 39.2 34.4 39.2 34.4 L 39.2 35.5 C 39.2 35.5 37.99 35.52 38 35.5 C 37.4 35.5 37.2 35.2 37.2 34.8 C 37.2 34.6 37.2 34.4 37.2 34.4 C 37.2 34.38 37.2 34.4 37.2 34.4 C 37.2 34.4 36.66 35.68 35.1 35.7 C 34 35.7 32.8 35 32.8 33.7 C 32.8 31.6 35.7 31.4 36.8 31.4 Z M 35.4 34.7 C 36.4 34.7 37.1 33.5 37.1 32.6 C 37.11 32.57 37.1 32.4 37.1 32.4 C 37.1 32.4 36.79 32.35 36.8 32.4 C 35.8 32.4 34.1 32.4 34.1 33.6 C 34.1 34.1 34.5 34.7 35.4 34.7 Z M 42.9 28.8 C 44.42 28.79 44.9 29.8 44.9 29.8 L 45 29.8 C 45 29.8 44.92 29.61 44.9 29.4 C 44.9 29.4 44.9 27.7 44.9 27.7 C 44.9 27.5 44.8 27.4 44.6 27.4 C 44.64 27.43 44.1 27.4 44.1 27.4 L 44.1 26.3 C 44.1 26.3 45.35 26.35 45.4 26.3 C 45.9 26.3 46.2 26.6 46.2 27.2 C 46.2 27.2 46.2 34.2 46.2 34.2 C 46.2 34.4 46.3 34.4 46.5 34.4 C 46.47 34.45 47 34.4 47 34.4 L 47 35.5 C 47 35.5 45.79 35.52 45.8 35.5 C 45.2 35.5 45 35.3 45 34.8 C 45 34.6 45 34.5 45 34.5 C 45 34.49 45 34.5 45 34.5 C 45 34.5 44.43 35.68 42.8 35.7 C 41 35.7 39.9 34.3 39.9 32.2 C 39.9 30.1 41.2 28.8 42.9 28.8 Z M 45 32.2 C 45 31.1 44.4 29.9 43.1 29.9 C 42.1 29.9 41.2 30.7 41.2 32.2 C 41.2 33.7 42 34.6 43.1 34.6 C 44 34.6 45 33.9 45 32.2 Z M 48.5 26.3 L 49.6 26.3 L 49.6 27.7 L 48.5 27.7 L 48.5 26.3 Z M 48.5 30.3 C 48.5 30.1 48.4 30 48.2 30 C 48.19 30.03 47.7 30 47.7 30 L 47.7 28.9 C 47.7 28.9 48.89 28.95 48.9 28.9 C 49.5 28.9 49.7 29.2 49.7 29.8 C 49.7 29.8 49.7 34.2 49.7 34.2 C 49.7 34.4 49.8 34.4 50 34.4 C 50.01 34.45 50.5 34.4 50.5 34.4 L 50.5 35.5 C 50.5 35.5 49.3 35.52 49.3 35.5 C 48.7 35.5 48.5 35.3 48.5 34.7 C 48.5 34.7 48.5 30.3 48.5 30.3 Z M 54.9 28.8 C 56.8 28.8 58.4 30.2 58.4 32.2 C 58.4 34.2 56.8 35.7 54.9 35.7 C 52.9 35.7 51.3 34.2 51.3 32.2 C 51.3 30.2 52.9 28.8 54.9 28.8 Z M 54.9 34.6 C 56.1 34.6 57.1 33.6 57.1 32.2 C 57.1 30.9 56.1 29.9 54.9 29.9 C 53.6 29.9 52.6 30.9 52.6 32.2 C 52.6 33.6 53.6 34.6 54.9 34.6 Z M 59.9 27.7 C 59.9 27.5 59.8 27.4 59.6 27.4 C 59.58 27.43 59 27.4 59 27.4 L 59 26.3 C 59 26.3 60.29 26.35 60.3 26.3 C 60.9 26.3 61.1 26.6 61.1 27.2 C 61.1 27.2 61.1 34.2 61.1 34.2 C 61.1 34.4 61.2 34.4 61.4 34.4 C 61.41 34.45 61.9 34.4 61.9 34.4 L 61.9 35.5 C 61.9 35.5 60.69 35.52 60.7 35.5 C 60.1 35.5 59.9 35.3 59.9 34.7 C 59.9 34.7 59.9 27.7 59.9 27.7 Z M 63 30.3 C 62.9 30.1 62.8 30 62.6 30 C 62.57 30.03 62.4 30 62.4 30 L 62.4 28.9 C 62.4 28.9 63.09 28.95 63.1 28.9 C 63.7 28.9 63.9 29.1 64.1 29.6 C 64.1 29.6 65.5 33.4 65.5 33.4 C 65.63 33.76 65.7 34.3 65.7 34.3 L 65.8 34.3 C 65.8 34.3 65.87 33.76 66 33.4 C 66 33.4 67.4 29.6 67.4 29.6 C 67.6 29.1 67.8 28.9 68.4 28.9 C 68.4 28.95 69 28.9 69 28.9 L 69 30 C 69 30 68.88 30.03 68.9 30 C 68.7 30 68.5 30.1 68.5 30.3 C 68.45 30.29 66.5 35.5 66.5 35.5 L 65 35.5 C 65 35.5 62.97 30.29 63 30.3 Z M 73.6 31.4 C 73.56 31.43 73.8 31.4 73.8 31.4 C 73.8 31.4 73.85 31.37 73.8 31.4 C 73.8 30.2 73.4 29.8 72.4 29.8 C 72.1 29.8 71.3 29.9 71.3 30.3 C 71.31 30.3 71.3 30.7 71.3 30.7 L 70.1 30.7 C 70.1 30.7 70.13 30.03 70.1 30 C 70.1 28.9 71.8 28.8 72.4 28.8 C 74.5 28.8 75.1 29.9 75.1 31.4 C 75.1 31.4 75.1 34.2 75.1 34.2 C 75.1 34.4 75.2 34.4 75.4 34.4 C 75.39 34.45 75.9 34.4 75.9 34.4 L 75.9 35.5 C 75.9 35.5 74.75 35.52 74.7 35.5 C 74.2 35.5 73.9 35.2 73.9 34.8 C 73.9 34.6 74 34.4 74 34.4 C 73.95 34.38 73.9 34.4 73.9 34.4 C 73.9 34.4 73.41 35.68 71.8 35.7 C 70.7 35.7 69.6 35 69.6 33.7 C 69.6 31.6 72.5 31.4 73.6 31.4 Z M 72.1 34.7 C 73.2 34.7 73.9 33.5 73.9 32.6 C 73.86 32.57 73.9 32.4 73.9 32.4 C 73.9 32.4 73.54 32.35 73.5 32.4 C 72.6 32.4 70.9 32.4 70.9 33.6 C 70.9 34.1 71.3 34.7 72.1 34.7 Z M 77.3 27.7 C 77.3 27.5 77.2 27.4 77 27.4 C 76.98 27.43 76.4 27.4 76.4 27.4 L 76.4 26.3 C 76.4 26.3 77.7 26.35 77.7 26.3 C 78.3 26.3 78.5 26.6 78.5 27.2 C 78.5 27.2 78.5 34.2 78.5 34.2 C 78.5 34.4 78.6 34.4 78.8 34.4 C 78.81 34.45 79.3 34.4 79.3 34.4 L 79.3 35.5 C 79.3 35.5 78.1 35.52 78.1 35.5 C 77.5 35.5 77.3 35.3 77.3 34.7 C 77.3 34.7 77.3 27.7 77.3 27.7 Z M 83.4 28.8 C 85.3 28.8 86.3 30.2 86.3 31.9 C 86.28 32.04 86.2 32.4 86.2 32.4 C 86.2 32.4 81.44 32.39 81.4 32.4 C 81.5 33.8 82.5 34.6 83.7 34.6 C 84.83 34.59 85.6 33.8 85.6 33.8 L 86.2 34.7 C 86.2 34.7 85.2 35.68 83.6 35.7 C 81.6 35.7 80.1 34.2 80.1 32.2 C 80.1 30.1 81.6 28.8 83.4 28.8 Z M 85 31.5 C 84.9 30.4 84.2 29.8 83.4 29.8 C 82.5 29.8 81.7 30.4 81.5 31.5 C 81.5 31.5 85 31.5 85 31.5 Z M 88 30.3 C 88 30.1 87.8 30 87.7 30 C 87.67 30.03 87.1 30 87.1 30 L 87.1 28.9 C 87.1 28.9 88.33 28.95 88.3 28.9 C 88.9 28.9 89.2 29.2 89.2 29.7 C 89.2 29.7 89.2 30.1 89.2 30.1 C 89.17 30.39 89.1 30.6 89.1 30.6 C 89.1 30.6 89.17 30.58 89.2 30.6 C 89.5 29.6 90.2 28.9 91.3 28.9 C 91.42 28.87 91.6 28.9 91.6 28.9 L 91.6 30.1 C 91.6 30.1 91.42 30.1 91.2 30.1 C 90.4 30.1 89.7 30.7 89.4 31.7 C 89.3 32 89.2 32.4 89.2 32.8 C 89.21 32.83 89.2 35.5 89.2 35.5 L 88 35.5 C 88 35.5 87.95 30.31 88 30.3 Z M 95.9 31.4 C 95.92 31.43 96.2 31.4 96.2 31.4 C 96.2 31.4 96.21 31.37 96.2 31.4 C 96.2 30.2 95.8 29.8 94.8 29.8 C 94.4 29.8 93.7 29.9 93.7 30.3 C 93.67 30.3 93.7 30.7 93.7 30.7 L 92.5 30.7 C 92.5 30.7 92.49 30.03 92.5 30 C 92.5 28.9 94.1 28.8 94.8 28.8 C 96.9 28.8 97.5 29.9 97.5 31.4 C 97.5 31.4 97.5 34.2 97.5 34.2 C 97.5 34.4 97.6 34.4 97.8 34.4 C 97.75 34.45 98.3 34.4 98.3 34.4 L 98.3 35.5 C 98.3 35.5 97.1 35.52 97.1 35.5 C 96.5 35.5 96.3 35.2 96.3 34.8 C 96.3 34.6 96.3 34.4 96.3 34.4 C 96.31 34.38 96.3 34.4 96.3 34.4 C 96.3 34.4 95.77 35.68 94.2 35.7 C 93.1 35.7 92 35 92 33.7 C 92 31.6 94.8 31.4 95.9 31.4 Z M 94.5 34.7 C 95.5 34.7 96.2 33.5 96.2 32.6 C 96.22 32.57 96.2 32.4 96.2 32.4 C 96.2 32.4 95.9 32.35 95.9 32.4 C 94.9 32.4 93.2 32.4 93.2 33.6 C 93.2 34.1 93.6 34.7 94.5 34.7 Z M 95.4 26.3 L 96.6 26.3 L 95.4 28 L 94.4 28 L 95.4 26.3 Z M 99.7 30 L 98.8 30 L 98.8 28.9 L 99.7 28.9 L 99.7 27.1 L 101 27.1 L 101 28.9 L 102.5 28.9 L 102.5 30 L 101 30 C 101 30 100.97 32.98 101 33 C 101 34.3 101.9 34.5 102.4 34.5 C 102.54 34.46 102.7 34.4 102.7 34.4 L 102.7 35.6 C 102.7 35.6 102.49 35.58 102.2 35.6 C 101.4 35.6 99.7 35.3 99.7 33.1 C 99.71 33.12 99.7 30 99.7 30 Z " stroke="none" fill="#fff"/>  </g></svg>