<?xml version="1.0" standalone="no"?><!DOCTYPE svg PUBLIC "-//W3C//DTD SVG 1.1//EN" "http://www.w3.org/Graphics/SVG/1.1/DTD/svg11.dtd"><svg xmlns="http://www.w3.org/2000/svg" version="1.1" width="93px" height="19px" viewBox="0 -3 93 19" style="top:-3px">  <desc>Contact system:</desc>  <defs/>  <g id="Polygon76388">    <path d="M 4.7 0.3 C 5.8 0.3 7.9 0.8 7.9 2.2 C 7.91 2.24 7.9 3.2 7.9 3.2 L 6.5 3.2 C 6.5 3.2 6.48 2.71 6.5 2.7 C 6.5 2.1 5.5 1.8 4.7 1.8 C 3.2 1.8 2 2.9 2 4.7 C 2 6.3 3.2 7.7 4.8 7.7 C 6.37 7.68 7.3 6.6 7.3 6.6 L 8.2 7.7 C 8.2 7.7 6.94 9.14 4.7 9.1 C 2.1 9.1 0.4 7.2 0.4 4.7 C 0.4 2.2 2.2 0.3 4.7 0.3 Z M 12.2 2.7 C 14.1 2.7 15.6 4.1 15.6 5.9 C 15.6 7.8 14.1 9.1 12.2 9.1 C 10.4 9.1 8.9 7.8 8.9 5.9 C 8.9 4.1 10.4 2.7 12.2 2.7 Z M 12.2 7.8 C 13.2 7.8 14.1 7.1 14.1 5.9 C 14.1 4.8 13.2 4 12.2 4 C 11.3 4 10.4 4.8 10.4 5.9 C 10.4 7.1 11.3 7.8 12.2 7.8 Z M 17 4.4 C 17 4.3 16.9 4.2 16.7 4.2 C 16.72 4.18 16.2 4.2 16.2 4.2 L 16.2 2.9 C 16.2 2.9 17.64 2.88 17.6 2.9 C 18.2 2.9 18.4 3.1 18.4 3.6 C 18.4 3.6 18.4 3.7 18.4 3.7 C 18.4 3.9 18.4 4 18.4 4 C 18.4 4 18.4 4 18.4 4 C 18.7 3.5 19.4 2.7 20.6 2.7 C 22 2.7 22.7 3.4 22.7 5.1 C 22.7 5.1 22.7 7.5 22.7 7.5 C 22.7 7.6 22.8 7.7 23 7.7 C 23 7.72 23.5 7.7 23.5 7.7 L 23.5 9 C 23.5 9 22.03 9 22 9 C 21.5 9 21.2 8.8 21.2 8.2 C 21.2 8.2 21.2 5.4 21.2 5.4 C 21.2 4.6 21 4.1 20.3 4.1 C 19.4 4.1 18.8 4.6 18.6 5.4 C 18.5 5.6 18.5 5.9 18.5 6.2 C 18.49 6.19 18.5 9 18.5 9 L 17 9 C 17 9 16.98 4.44 17 4.4 Z M 24.7 4.1 L 23.9 4.1 L 23.9 2.9 L 24.8 2.9 L 24.8 1.2 L 26.2 1.2 L 26.2 2.9 L 27.6 2.9 L 27.6 4.1 L 26.2 4.1 C 26.2 4.1 26.24 6.56 26.2 6.6 C 26.2 7.6 27 7.7 27.5 7.7 C 27.62 7.72 27.7 7.7 27.7 7.7 L 27.7 9 C 27.7 9 27.54 9.06 27.3 9.1 C 26.4 9.1 24.7 8.8 24.7 6.8 C 24.72 6.76 24.7 4.1 24.7 4.1 Z M 32.1 5.2 C 32.14 5.16 32.3 5.2 32.3 5.2 C 32.3 5.2 32.33 5.11 32.3 5.1 C 32.3 4.2 32 3.9 31.2 3.9 C 30.9 3.9 30.4 4 30.4 4.3 C 30.38 4.32 30.4 4.6 30.4 4.6 L 29 4.6 C 29 4.6 28.97 4 29 4 C 29 2.9 30.6 2.7 31.2 2.7 C 33.3 2.7 33.9 3.8 33.9 5.2 C 33.9 5.2 33.9 7.5 33.9 7.5 C 33.9 7.6 33.9 7.7 34.1 7.7 C 34.12 7.72 34.6 7.7 34.6 7.7 L 34.6 9 C 34.6 9 33.23 9 33.2 9 C 32.7 9 32.4 8.7 32.4 8.3 C 32.4 8.2 32.5 8.1 32.5 8.1 C 32.46 8.06 32.4 8.1 32.4 8.1 C 32.4 8.1 31.97 9.14 30.6 9.1 C 29.5 9.1 28.5 8.5 28.5 7.2 C 28.5 5.3 31.1 5.2 32.1 5.2 Z M 31 8 C 31.8 8 32.4 7.1 32.4 6.3 C 32.35 6.35 32.4 6.2 32.4 6.2 C 32.4 6.2 32.09 6.2 32.1 6.2 C 31.3 6.2 30 6.3 30 7.2 C 30 7.6 30.3 8 31 8 Z M 38.6 2.7 C 39.3 2.7 40.8 3.1 40.8 4.1 C 40.77 4.12 40.8 4.8 40.8 4.8 L 39.4 4.8 C 39.4 4.8 39.43 4.5 39.4 4.5 C 39.4 4.2 38.9 4 38.6 4 C 37.5 4 36.7 4.8 36.7 5.9 C 36.7 7.2 37.7 7.8 38.7 7.8 C 39.7 7.81 40.5 7 40.5 7 L 41.1 8 C 41.1 8 40.19 9.14 38.5 9.1 C 36.5 9.1 35.2 7.7 35.2 5.9 C 35.2 4.2 36.5 2.7 38.6 2.7 Z M 42.3 4.1 L 41.5 4.1 L 41.5 2.9 L 42.3 2.9 L 42.3 1.2 L 43.8 1.2 L 43.8 2.9 L 45.2 2.9 L 45.2 4.1 L 43.8 4.1 C 43.8 4.1 43.82 6.56 43.8 6.6 C 43.8 7.6 44.6 7.7 45 7.7 C 45.2 7.72 45.3 7.7 45.3 7.7 L 45.3 9 C 45.3 9 45.12 9.06 44.8 9.1 C 44 9.1 42.3 8.8 42.3 6.8 C 42.3 6.76 42.3 4.1 42.3 4.1 Z M 49.9 7.1 C 49.9 7.1 50.7 7.96 51.7 8 C 52.2 8 52.6 7.8 52.6 7.4 C 52.6 6.5 49.3 6.5 49.3 4.5 C 49.3 3.3 50.4 2.7 51.7 2.7 C 52.5 2.7 53.9 3 53.9 4 C 53.87 4.01 53.9 4.6 53.9 4.6 L 52.5 4.6 C 52.5 4.6 52.52 4.34 52.5 4.3 C 52.5 4.1 52.1 3.9 51.8 3.9 C 51.2 3.9 50.8 4.1 50.8 4.5 C 50.8 5.4 54.1 5.2 54.1 7.3 C 54.1 8.4 53.1 9.1 51.7 9.1 C 50.06 9.14 49.2 8.1 49.2 8.1 L 49.9 7.1 Z M 56 10.2 C 56.4 10.2 56.8 10 57 9.5 C 57 9.46 57.2 9 57.2 9 C 57.2 9 55.16 4.39 55.2 4.4 C 55.1 4.2 55 4.2 54.8 4.2 C 54.84 4.18 54.7 4.2 54.7 4.2 L 54.7 2.9 C 54.7 2.9 55.67 2.88 55.7 2.9 C 56.1 2.9 56.3 3 56.5 3.5 C 56.5 3.5 57.7 6.5 57.7 6.5 C 57.79 6.83 57.9 7.3 57.9 7.3 L 57.9 7.3 C 57.9 7.3 58.01 6.83 58.1 6.5 C 58.1 6.5 59.2 3.5 59.2 3.5 C 59.3 3 59.6 2.9 60 2.9 C 59.97 2.88 61 2.9 61 2.9 L 61 4.2 C 61 4.2 60.83 4.18 60.8 4.2 C 60.6 4.2 60.6 4.2 60.5 4.4 C 60.5 4.4 58.3 9.9 58.3 9.9 C 57.9 11 57 11.5 56.1 11.5 C 55.12 11.52 54.5 10.9 54.5 10.9 L 55.1 9.8 C 55.1 9.8 55.49 10.24 56 10.2 Z M 62.2 7.1 C 62.2 7.1 62.95 7.96 64 8 C 64.5 8 64.8 7.8 64.8 7.4 C 64.8 6.5 61.6 6.5 61.6 4.5 C 61.6 3.3 62.7 2.7 64 2.7 C 64.8 2.7 66.1 3 66.1 4 C 66.12 4.01 66.1 4.6 66.1 4.6 L 64.8 4.6 C 64.8 4.6 64.78 4.34 64.8 4.3 C 64.8 4.1 64.3 3.9 64 3.9 C 63.5 3.9 63.1 4.1 63.1 4.5 C 63.1 5.4 66.3 5.2 66.3 7.3 C 66.3 8.4 65.3 9.1 64 9.1 C 62.32 9.14 61.5 8.1 61.5 8.1 L 62.2 7.1 Z M 67.8 4.1 L 67 4.1 L 67 2.9 L 67.8 2.9 L 67.8 1.2 L 69.3 1.2 L 69.3 2.9 L 70.7 2.9 L 70.7 4.1 L 69.3 4.1 C 69.3 4.1 69.31 6.56 69.3 6.6 C 69.3 7.6 70.1 7.7 70.5 7.7 C 70.69 7.72 70.8 7.7 70.8 7.7 L 70.8 9 C 70.8 9 70.61 9.06 70.3 9.1 C 69.5 9.1 67.8 8.8 67.8 6.8 C 67.79 6.76 67.8 4.1 67.8 4.1 Z M 74.6 2.7 C 76.4 2.7 77.3 4 77.3 5.6 C 77.31 5.82 77.3 6.2 77.3 6.2 C 77.3 6.2 73.05 6.2 73.1 6.2 C 73.2 7.3 74 7.8 74.9 7.8 C 75.88 7.85 76.6 7.2 76.6 7.2 L 77.2 8.2 C 77.2 8.2 76.31 9.14 74.8 9.1 C 72.8 9.1 71.5 7.7 71.5 5.9 C 71.5 4.1 72.8 2.7 74.6 2.7 Z M 75.8 5.1 C 75.7 4.4 75.2 3.9 74.6 3.9 C 73.8 3.9 73.3 4.4 73.1 5.1 C 73.1 5.1 75.8 5.1 75.8 5.1 Z M 78.8 4.4 C 78.8 4.3 78.7 4.2 78.5 4.2 C 78.53 4.18 78 4.2 78 4.2 L 78 2.9 C 78 2.9 79.45 2.88 79.5 2.9 C 80 2.9 80.3 3.1 80.3 3.6 C 80.3 3.6 80.3 3.7 80.3 3.7 C 80.3 3.9 80.2 4 80.2 4 C 80.2 4 80.3 4 80.3 4 C 80.6 3.4 81.3 2.7 82.2 2.7 C 83.2 2.7 83.8 3.2 84 4 C 84 4 84.1 4 84.1 4 C 84.4 3.3 85.2 2.7 86.1 2.7 C 87.4 2.7 88.2 3.5 88.2 5.1 C 88.2 5.1 88.2 7.5 88.2 7.5 C 88.2 7.6 88.2 7.7 88.4 7.7 C 88.41 7.72 88.9 7.7 88.9 7.7 L 88.9 9 C 88.9 9 87.44 9 87.4 9 C 86.9 9 86.6 8.8 86.6 8.2 C 86.6 8.2 86.6 5.4 86.6 5.4 C 86.6 4.7 86.5 4.1 85.8 4.1 C 85 4.1 84.5 4.8 84.3 5.5 C 84.3 5.8 84.2 6 84.2 6.3 C 84.23 6.31 84.2 9 84.2 9 L 82.7 9 C 82.7 9 82.7 5.35 82.7 5.4 C 82.7 4.7 82.6 4.1 81.9 4.1 C 81.1 4.1 80.6 4.8 80.4 5.5 C 80.3 5.8 80.3 6 80.3 6.3 C 80.3 6.31 80.3 9 80.3 9 L 78.8 9 C 78.8 9 78.79 4.44 78.8 4.4 Z M 90.2 2.9 L 91.7 2.9 L 91.7 4.4 L 90.2 4.4 L 90.2 2.9 Z M 90.2 7.5 L 91.7 7.5 L 91.7 9 L 90.2 9 L 90.2 7.5 Z " stroke="none" fill="#67aeca"/>  </g></svg>