<?xml version="1.0" standalone="no"?><!DOCTYPE svg PUBLIC "-//W3C//DTD SVG 1.1//EN" "http://www.w3.org/Graphics/SVG/1.1/DTD/svg11.dtd"><svg xmlns="http://www.w3.org/2000/svg" version="1.1" width="429px" height="63px" viewBox="0 -8 429 63" style="top:-8px">  <desc>Antikoncepcie...</desc>  <defs/>  <g id="Polygon65485">    <path d="M 42.7 28.1 C 42.7 28.1 43.38 28.12 43.4 28.1 C 44.1 28.1 44.5 27.9 44.7 27.1 C 44.75 27.15 54 1.8 54 1.8 L 60.1 1.8 C 60.1 1.8 69.3 27.15 69.3 27.1 C 69.6 27.9 69.9 28.1 70.7 28.1 C 70.66 28.12 71.4 28.1 71.4 28.1 L 71.4 33 C 71.4 33 67.94 33 67.9 33 C 65.7 33 64.9 32.4 64.2 30.4 C 64.24 30.45 62.3 25 62.3 25 L 51.7 25 C 51.7 25 49.81 30.45 49.8 30.4 C 49.1 32.4 48.4 33 46.2 33 C 46.16 33 42.7 33 42.7 33 L 42.7 28.1 Z M 61 20.2 C 61 20.2 58.3 12.41 58.3 12.4 C 57.73 10.69 57.1 7.7 57.1 7.7 L 57 7.7 C 57 7.7 56.32 10.69 55.7 12.4 C 55.75 12.41 53.1 20.2 53.1 20.2 L 61 20.2 Z M 72.9 28.1 C 72.9 28.1 74.8 28.12 74.8 28.1 C 75.4 28.1 75.8 27.8 75.8 27.1 C 75.77 27.15 75.8 1.8 75.8 1.8 L 81 1.8 C 81 1.8 92.8 19.05 92.8 19.1 C 94.03 20.86 95.4 23.5 95.4 23.5 L 95.5 23.5 C 95.5 23.5 95.17 20.86 95.2 19.1 C 95.2 19.1 95.2 4.8 95.2 4.8 C 95.2 2.7 96.1 1.8 98.2 1.8 C 98.16 1.76 103.8 1.8 103.8 1.8 L 103.8 6.6 C 103.8 6.6 101.9 6.64 101.9 6.6 C 101.3 6.6 100.9 7 100.9 7.6 C 100.94 7.61 100.9 33 100.9 33 L 95.8 33 C 95.8 33 83.91 15.75 83.9 15.8 C 82.68 13.99 81.3 11.4 81.3 11.4 L 81.2 11.4 C 81.2 11.4 81.53 13.95 81.5 15.8 C 81.5 15.8 81.5 30 81.5 30 C 81.5 32.1 80.7 33 78.5 33 C 78.54 33 72.9 33 72.9 33 L 72.9 28.1 Z M 116.3 6.6 C 116.3 6.6 111.54 6.64 111.5 6.6 C 110.9 6.6 110.6 7 110.6 7.6 C 110.57 7.61 110.6 9.5 110.6 9.5 L 105.5 9.5 C 105.5 9.5 105.51 4.58 105.5 4.6 C 105.5 2.5 106.2 1.8 108.3 1.8 C 108.3 1.8 130.1 1.8 130.1 1.8 C 132.2 1.8 132.9 2.5 132.9 4.6 C 132.92 4.58 132.9 9.5 132.9 9.5 L 127.9 9.5 C 127.9 9.5 127.86 7.61 127.9 7.6 C 127.9 7 127.5 6.6 126.9 6.6 C 126.9 6.64 122.1 6.6 122.1 6.6 L 122.1 33 L 116.3 33 L 116.3 6.6 Z M 134.8 28.1 L 137.9 28.1 L 137.9 6.6 L 134.8 6.6 L 134.8 1.8 L 146.5 1.8 L 146.5 6.6 L 143.4 6.6 L 143.4 28.1 L 146.5 28.1 L 146.5 33 L 134.8 33 L 134.8 28.1 Z M 152.1 7.6 C 152.1 7 151.8 6.6 151.1 6.6 C 151.14 6.64 149.2 6.6 149.2 6.6 L 149.2 1.8 C 149.2 1.8 154.88 1.76 154.9 1.8 C 157 1.8 157.9 2.7 157.9 4.8 C 157.87 4.75 157.9 14.5 157.9 14.5 C 157.9 14.5 160.07 14.48 160.1 14.5 C 161.2 14.5 162.1 14.4 162.6 13.5 C 162.58 13.46 168.9 1.8 168.9 1.8 L 175.2 1.8 C 175.2 1.8 168.17 14.61 168.2 14.6 C 167.2 16.37 166.2 16.9 166.2 16.9 L 166.2 17 C 166.2 17 167.24 17.25 168.2 19.1 C 168.2 19.1 172.2 27.1 172.2 27.1 C 172.6 28 173.4 28.1 174.4 28.1 C 174.37 28.12 175.2 28.1 175.2 28.1 L 175.2 33 C 175.2 33 171.91 33 171.9 33 C 169.6 33 168.6 32.7 167.6 30.7 C 167.6 30.7 162.4 20.4 162.4 20.4 C 161.9 19.4 161 19.4 159.7 19.4 C 159.72 19.36 157.9 19.4 157.9 19.4 L 157.9 33 L 152.1 33 C 152.1 33 152.11 7.61 152.1 7.6 Z M 191.7 1.2 C 200.9 1.2 207.8 8.2 207.8 17.2 C 207.8 26.4 200.9 33.5 191.7 33.5 C 182.5 33.5 175.5 26.4 175.5 17.2 C 175.5 8.2 182.5 1.2 191.7 1.2 Z M 191.7 28.2 C 197.3 28.2 201.8 23.4 201.8 17.2 C 201.8 11.2 197.3 6.6 191.7 6.6 C 186 6.6 181.5 11.2 181.5 17.2 C 181.5 23.4 186 28.2 191.7 28.2 Z M 210.2 28.1 C 210.2 28.1 212.08 28.12 212.1 28.1 C 212.7 28.1 213 27.8 213 27.1 C 213.05 27.15 213 1.8 213 1.8 L 218.2 1.8 C 218.2 1.8 230.07 19.05 230.1 19.1 C 231.31 20.86 232.7 23.5 232.7 23.5 L 232.8 23.5 C 232.8 23.5 232.45 20.86 232.5 19.1 C 232.5 19.1 232.5 4.8 232.5 4.8 C 232.5 2.7 233.3 1.8 235.4 1.8 C 235.44 1.76 241.1 1.8 241.1 1.8 L 241.1 6.6 C 241.1 6.6 239.18 6.64 239.2 6.6 C 238.6 6.6 238.2 7 238.2 7.6 C 238.21 7.61 238.2 33 238.2 33 L 233.1 33 C 233.1 33 221.19 15.75 221.2 15.8 C 219.95 13.99 218.6 11.4 218.6 11.4 L 218.5 11.4 C 218.5 11.4 218.81 13.95 218.8 15.8 C 218.8 15.8 218.8 30 218.8 30 C 218.8 32.1 217.9 33 215.8 33 C 215.82 33 210.2 33 210.2 33 L 210.2 28.1 Z M 259.3 1.2 C 263.3 1.2 271.1 2.9 271.1 8.2 C 271.13 8.23 271.1 11.7 271.1 11.7 L 265.9 11.7 C 265.9 11.7 265.89 9.94 265.9 9.9 C 265.9 7.7 262.2 6.6 259.4 6.6 C 253.8 6.6 249.4 10.6 249.4 17.1 C 249.4 23.2 253.9 28.2 259.6 28.2 C 265.49 28.16 269.1 24 269.1 24 L 272.1 28.2 C 272.1 28.2 267.56 33.53 259.5 33.5 C 250 33.5 243.5 26.4 243.5 17.1 C 243.5 8.1 250.2 1.2 259.3 1.2 Z M 277.2 6.6 L 274.4 6.6 L 274.4 1.8 C 274.4 1.8 293.26 1.76 293.3 1.8 C 295.3 1.8 296.3 2.7 296.3 4.8 C 296.25 4.75 296.3 9.5 296.3 9.5 L 291 9.5 C 291 9.5 291.01 7.61 291 7.6 C 291 7 290.7 6.6 290 6.6 C 290.05 6.64 283 6.6 283 6.6 L 283 14.8 L 293.1 14.8 L 293.1 19.7 L 283 19.7 C 283 19.7 283.01 27.15 283 27.1 C 283 27.8 283.4 28.1 284 28.1 C 284 28.1 291.2 28.1 291.2 28.1 C 291.8 28.1 292.2 27.8 292.2 27.1 C 292.16 27.15 292.2 25.3 292.2 25.3 L 297.4 25.3 C 297.4 25.3 297.39 30.01 297.4 30 C 297.4 32.1 296.5 33 294.4 33 C 294.4 33 280.2 33 280.2 33 C 278.1 33 277.2 32.1 277.2 30 C 277.24 30.01 277.2 6.6 277.2 6.6 Z M 302.2 6.6 L 299.4 6.6 L 299.4 1.8 C 299.4 1.8 313.67 1.76 313.7 1.8 C 319.5 1.8 323.6 5.9 323.6 11.9 C 323.6 18 319.5 22.2 313.7 22.2 C 313.67 22.22 308 22.2 308 22.2 L 308 33 L 302.2 33 L 302.2 6.6 Z M 312.6 17.3 C 315.9 17.3 317.7 15.2 317.7 11.9 C 317.7 8.7 315.9 6.6 312.7 6.6 C 312.71 6.64 308 6.6 308 6.6 L 308 17.3 C 308 17.3 312.62 17.29 312.6 17.3 Z M 341.2 1.2 C 345.2 1.2 353.1 2.9 353.1 8.2 C 353.05 8.23 353.1 11.7 353.1 11.7 L 347.8 11.7 C 347.8 11.7 347.82 9.94 347.8 9.9 C 347.8 7.7 344.1 6.6 341.3 6.6 C 335.8 6.6 331.4 10.6 331.4 17.1 C 331.4 23.2 335.8 28.2 341.5 28.2 C 347.42 28.16 351 24 351 24 L 354 28.2 C 354 28.2 349.49 33.53 341.4 33.5 C 331.9 33.5 325.4 26.4 325.4 17.1 C 325.4 8.1 332.2 1.2 341.2 1.2 Z M 356.5 28.1 L 359.6 28.1 L 359.6 6.6 L 356.5 6.6 L 356.5 1.8 L 368.2 1.8 L 368.2 6.6 L 365.1 6.6 L 365.1 28.1 L 368.2 28.1 L 368.2 33 L 356.5 33 L 356.5 28.1 Z M 373.8 6.6 L 370.9 6.6 L 370.9 1.8 C 370.9 1.8 389.79 1.76 389.8 1.8 C 391.9 1.8 392.8 2.7 392.8 4.8 C 392.79 4.75 392.8 9.5 392.8 9.5 L 387.5 9.5 C 387.5 9.5 387.55 7.61 387.5 7.6 C 387.5 7 387.2 6.6 386.6 6.6 C 386.58 6.64 379.5 6.6 379.5 6.6 L 379.5 14.8 L 389.7 14.8 L 389.7 19.7 L 379.5 19.7 C 379.5 19.7 379.54 27.15 379.5 27.1 C 379.5 27.8 379.9 28.1 380.5 28.1 C 380.5 28.1 387.7 28.1 387.7 28.1 C 388.3 28.1 388.7 27.8 388.7 27.1 C 388.69 27.15 388.7 25.3 388.7 25.3 L 393.9 25.3 C 393.9 25.3 393.93 30.01 393.9 30 C 393.9 32.1 393 33 390.9 33 C 390.9 33 376.8 33 376.8 33 C 374.7 33 373.8 32.1 373.8 30 C 373.78 30.01 373.8 6.6 373.8 6.6 Z M 397.5 27.4 L 402.9 27.4 L 402.9 33 L 397.5 33 L 397.5 27.4 Z M 408.8 27.4 L 414.2 27.4 L 414.2 33 L 408.8 33 L 408.8 27.4 Z M 420 27.4 L 425.4 27.4 L 425.4 33 L 420 33 L 420 27.4 Z " stroke="none" fill="#e52a6f"/>  </g></svg>