<?xml version="1.0" standalone="no"?><!DOCTYPE svg PUBLIC "-//W3C//DTD SVG 1.1//EN" "http://www.w3.org/Graphics/SVG/1.1/DTD/svg11.dtd"><svg xmlns="http://www.w3.org/2000/svg" version="1.1" width="139px" height="30.5px" viewBox="0 -4 139 30.5" style="top:-4px">  <desc>P sobenie E4</desc>  <defs/>  <g id="Polygon67013">    <path d="M 14.9 2.3 L 13.7 2.3 L 13.7 0.8 C 13.7 0.8 19.32 0.79 19.3 0.8 C 21.6 0.8 23.3 2.4 23.3 4.8 C 23.3 7.2 21.6 8.8 19.3 8.8 C 19.32 8.8 16.7 8.8 16.7 8.8 L 16.7 13.5 L 14.9 13.5 L 14.9 2.3 Z M 19 7.3 C 20.5 7.3 21.4 6.3 21.4 4.8 C 21.4 3.2 20.5 2.3 19 2.3 C 19.05 2.34 16.7 2.3 16.7 2.3 L 16.7 7.3 C 16.7 7.3 19.03 7.25 19 7.3 Z M 28.9 4.2 C 31.6 4.2 33.8 6.2 33.8 8.9 C 33.8 11.7 31.6 13.7 28.9 13.7 C 26.2 13.7 24 11.7 24 8.9 C 24 6.2 26.2 4.2 28.9 4.2 Z M 28.9 12.2 C 30.6 12.2 32 10.8 32 8.9 C 32 7 30.6 5.7 28.9 5.7 C 27.2 5.7 25.8 7 25.8 8.9 C 25.8 10.8 27.2 12.2 28.9 12.2 Z M 28.1 0.8 L 29.7 0.8 L 31.3 3.1 L 29.8 3.1 L 28.9 1.6 L 28.9 1.6 L 27.9 3.1 L 26.5 3.1 L 28.1 0.8 Z M 35.8 10.9 C 35.8 10.9 36.91 12.29 38.6 12.3 C 39.4 12.3 40.2 11.9 40.2 11.1 C 40.2 9.5 35.2 9.7 35.2 6.7 C 35.2 5 36.7 4.2 38.6 4.2 C 39.7 4.2 41.6 4.6 41.6 5.9 C 41.57 5.94 41.6 6.8 41.6 6.8 L 40 6.8 C 40 6.8 40 6.35 40 6.4 C 40 5.8 39.2 5.6 38.6 5.6 C 37.6 5.6 36.9 5.9 36.9 6.7 C 36.9 8.4 41.9 8 41.9 11.1 C 41.9 12.7 40.5 13.7 38.6 13.7 C 36.13 13.72 34.9 12.1 34.9 12.1 L 35.8 10.9 Z M 48.2 4.2 C 50.9 4.2 53.1 6.2 53.1 8.9 C 53.1 11.7 50.9 13.7 48.2 13.7 C 45.4 13.7 43.3 11.7 43.3 8.9 C 43.3 6.2 45.4 4.2 48.2 4.2 Z M 48.2 12.2 C 49.9 12.2 51.3 10.8 51.3 8.9 C 51.3 7 49.9 5.7 48.2 5.7 C 46.4 5.7 45 7 45 8.9 C 45 10.8 46.4 12.2 48.2 12.2 Z M 55 2.7 C 55 2.4 54.9 2.3 54.6 2.3 C 54.62 2.29 53.9 2.3 53.9 2.3 L 53.9 0.8 C 53.9 0.8 55.61 0.79 55.6 0.8 C 56.4 0.8 56.8 1.1 56.8 1.9 C 56.8 1.9 56.8 4.9 56.8 4.9 C 56.76 5.35 56.7 5.7 56.7 5.7 L 56.8 5.7 C 56.8 5.7 57.55 4.18 59.7 4.2 C 62.1 4.2 63.7 6.1 63.7 8.9 C 63.7 11.8 61.9 13.7 59.5 13.7 C 57.52 13.72 56.7 12.2 56.7 12.2 L 56.7 12.2 C 56.7 12.2 56.69 12.47 56.7 12.9 C 56.69 12.87 56.7 13.5 56.7 13.5 L 55 13.5 C 55 13.5 55.01 2.68 55 2.7 Z M 59.3 12.2 C 60.7 12.2 61.9 11 61.9 9 C 61.9 7 60.9 5.7 59.3 5.7 C 58 5.7 56.7 6.7 56.7 9 C 56.7 10.6 57.6 12.2 59.3 12.2 Z M 69.6 4.2 C 72.1 4.2 73.5 6.1 73.5 8.4 C 73.5 8.68 73.4 9.2 73.4 9.2 C 73.4 9.2 66.8 9.16 66.8 9.2 C 66.9 11.1 68.3 12.2 69.9 12.2 C 71.5 12.2 72.6 11.1 72.6 11.1 L 73.4 12.4 C 73.4 12.4 72.01 13.72 69.8 13.7 C 67 13.7 65 11.6 65 8.9 C 65 6 67 4.2 69.6 4.2 Z M 71.7 7.9 C 71.6 6.4 70.7 5.6 69.6 5.6 C 68.2 5.6 67.1 6.4 66.9 7.9 C 66.9 7.9 71.7 7.9 71.7 7.9 Z M 75.8 6.3 C 75.8 6 75.7 5.9 75.4 5.9 C 75.42 5.89 74.7 5.9 74.7 5.9 L 74.7 4.4 C 74.7 4.4 76.36 4.39 76.4 4.4 C 77.1 4.4 77.5 4.7 77.5 5.4 C 77.5 5.4 77.5 5.7 77.5 5.7 C 77.51 6.03 77.5 6.3 77.5 6.3 C 77.5 6.3 77.51 6.26 77.5 6.3 C 77.9 5.5 79 4.2 80.9 4.2 C 83.1 4.2 84.1 5.3 84.1 7.7 C 84.1 7.7 84.1 11.6 84.1 11.6 C 84.1 11.9 84.2 12 84.5 12 C 84.46 12.01 85.2 12 85.2 12 L 85.2 13.5 C 85.2 13.5 83.47 13.5 83.5 13.5 C 82.7 13.5 82.3 13.2 82.3 12.3 C 82.3 12.3 82.3 8.1 82.3 8.1 C 82.3 6.8 82.1 5.8 80.6 5.8 C 79.2 5.8 78.1 6.7 77.7 8 C 77.6 8.4 77.6 8.8 77.6 9.2 C 77.57 9.23 77.6 13.5 77.6 13.5 L 75.8 13.5 C 75.8 13.5 75.82 6.28 75.8 6.3 Z M 87.2 0.8 L 88.8 0.8 L 88.8 2.6 L 87.2 2.6 L 87.2 0.8 Z M 87.2 6.3 C 87.2 6 87 5.9 86.8 5.9 C 86.78 5.89 86 5.9 86 5.9 L 86 4.4 C 86 4.4 87.75 4.39 87.8 4.4 C 88.6 4.4 88.9 4.7 88.9 5.5 C 88.9 5.5 88.9 11.6 88.9 11.6 C 88.9 11.9 89.1 12 89.3 12 C 89.3 12.01 90 12 90 12 L 90 13.5 C 90 13.5 88.33 13.5 88.3 13.5 C 87.5 13.5 87.2 13.2 87.2 12.3 C 87.2 12.3 87.2 6.3 87.2 6.3 Z M 95.7 4.2 C 98.3 4.2 99.7 6.1 99.7 8.4 C 99.65 8.68 99.6 9.2 99.6 9.2 C 99.6 9.2 92.96 9.16 93 9.2 C 93.1 11.1 94.5 12.2 96.1 12.2 C 97.65 12.2 98.8 11.1 98.8 11.1 L 99.5 12.4 C 99.5 12.4 98.16 13.72 96 13.7 C 93.1 13.7 91.2 11.6 91.2 8.9 C 91.2 6 93.1 4.2 95.7 4.2 Z M 97.9 7.9 C 97.8 6.4 96.8 5.6 95.7 5.6 C 94.4 5.6 93.3 6.4 93 7.9 C 93 7.9 97.9 7.9 97.9 7.9 Z M 107.1 2.3 L 106 2.3 L 106 0.8 C 106 0.8 113.44 0.79 113.4 0.8 C 114.3 0.8 114.6 1.1 114.6 1.9 C 114.59 1.94 114.6 3.5 114.6 3.5 L 113 3.5 C 113 3.5 112.95 2.74 113 2.7 C 113 2.5 112.8 2.3 112.6 2.3 C 112.56 2.34 108.9 2.3 108.9 2.3 L 108.9 6.3 L 113.4 6.3 L 113.4 7.9 L 108.9 7.9 C 108.9 7.9 108.94 11.56 108.9 11.6 C 108.9 11.8 109.1 12 109.3 12 C 109.3 12 113 12 113 12 C 113.3 12 113.4 11.8 113.4 11.6 C 113.44 11.56 113.4 10.7 113.4 10.7 L 115.1 10.7 C 115.1 10.7 115.1 12.35 115.1 12.3 C 115.1 13.2 114.8 13.5 113.9 13.5 C 113.9 13.5 108.3 13.5 108.3 13.5 C 107.5 13.5 107.1 13.2 107.1 12.3 C 107.14 12.35 107.1 2.3 107.1 2.3 Z M 115.8 9 L 121.5 0.8 L 123.6 0.8 L 123.6 8.6 L 125.6 8.6 L 125.6 10.1 L 123.6 10.1 L 123.6 13.5 L 121.8 13.5 L 121.8 10.1 L 115.8 10.1 L 115.8 9 Z M 121.8 4.2 C 121.81 3.64 121.9 2.9 121.9 2.9 L 121.8 2.9 C 121.8 2.9 121.52 3.53 121.2 4 C 121.2 4 118.4 7.8 118.4 7.8 C 118.1 8.24 117.8 8.6 117.8 8.6 L 117.8 8.6 C 117.8 8.6 118.28 8.59 118.8 8.6 C 118.84 8.59 121.8 8.6 121.8 8.6 C 121.8 8.6 121.81 4.21 121.8 4.2 Z " stroke="none" fill="#ee3078"/>  </g></svg>