<?xml version="1.0" standalone="no"?><!DOCTYPE svg PUBLIC "-//W3C//DTD SVG 1.1//EN" "http://www.w3.org/Graphics/SVG/1.1/DTD/svg11.dtd"><svg xmlns="http://www.w3.org/2000/svg" version="1.1" width="100.3px" height="25.9px" viewBox="0 0 100.3 25.9">  <desc>odosla</desc>  <defs/>  <g id="Polygon65315">    <path d="M 34.9 12.2 C 34.9 12.2 34.9 12.9 34.9 12.9 C 34.9 14.8 33.8 15.8 32.1 15.8 C 30.4 15.8 29.3 14.8 29.3 12.9 C 29.3 12.9 29.3 12.2 29.3 12.2 C 29.3 10.5 30.5 9.4 32.1 9.4 C 33.8 9.4 34.9 10.4 34.9 12.2 Z M 30.7 12.2 C 30.7 12.2 30.7 12.9 30.7 12.9 C 30.7 13.9 31.2 14.7 32.1 14.7 C 33 14.7 33.5 13.9 33.5 12.9 C 33.5 12.9 33.5 12.2 33.5 12.2 C 33.5 11.3 33 10.5 32.1 10.5 C 31.2 10.5 30.7 11.3 30.7 12.2 Z M 40.4 10.4 C 40.38 10.4 40.4 10.4 40.4 10.4 L 40.4 7.1 L 41.8 7.1 L 41.8 15.7 L 40.5 15.7 L 40.5 14.7 C 40.5 14.7 40.41 14.69 40.4 14.7 C 40.2 15.2 39.6 15.8 38.6 15.8 C 37.2 15.8 36.2 14.8 36.2 13.1 C 36.2 13.1 36.2 12.1 36.2 12.1 C 36.2 10.4 37.2 9.4 38.6 9.4 C 39.6 9.4 40.2 9.9 40.4 10.4 Z M 37.6 12.2 C 37.6 12.2 37.6 12.9 37.6 12.9 C 37.6 14 38.2 14.6 39 14.6 C 39.9 14.6 40.4 14 40.4 13 C 40.4 13 40.4 12.1 40.4 12.1 C 40.4 11.2 39.8 10.5 39 10.5 C 38.2 10.5 37.6 11.2 37.6 12.2 Z M 49 12.2 C 49 12.2 49 12.9 49 12.9 C 49 14.8 47.9 15.8 46.3 15.8 C 44.6 15.8 43.5 14.8 43.5 12.9 C 43.5 12.9 43.5 12.2 43.5 12.2 C 43.5 10.5 44.6 9.4 46.3 9.4 C 47.9 9.4 49 10.4 49 12.2 Z M 44.9 12.2 C 44.9 12.2 44.9 12.9 44.9 12.9 C 44.9 13.9 45.3 14.7 46.3 14.7 C 47.2 14.7 47.7 13.9 47.7 12.9 C 47.7 12.9 47.7 12.2 47.7 12.2 C 47.7 11.3 47.2 10.5 46.3 10.5 C 45.4 10.5 44.9 11.3 44.9 12.2 Z M 52.9 9.4 C 54.2 9.4 55.2 10 55.2 11.2 C 55.2 11.2 53.9 11.2 53.9 11.2 C 53.9 10.8 53.5 10.4 52.8 10.4 C 52.2 10.4 51.7 10.7 51.7 11.2 C 51.7 11.8 52.6 11.9 53.3 12 C 54.5 12.2 55.3 12.6 55.3 13.8 C 55.3 15 54.4 15.8 52.8 15.8 C 51.2 15.8 50.3 15.1 50.3 14 C 50.3 14 51.6 14 51.6 14 C 51.7 14.5 52.1 14.8 52.8 14.8 C 53.7 14.8 54 14.4 54 13.9 C 54 13.3 53.3 13.2 52.5 13.1 C 51.3 12.9 50.4 12.5 50.4 11.3 C 50.4 9.9 51.6 9.4 52.9 9.4 Z M 57 7.1 L 58.4 7.1 L 58.4 15.7 L 57 15.7 L 57 7.1 Z M 60 13.9 C 60 12.8 60.7 12 62.2 12 C 62.18 12.03 63.7 12 63.7 12 C 63.7 12 63.73 11.46 63.7 11.5 C 63.7 10.8 63.3 10.5 62.6 10.5 C 61.9 10.5 61.6 10.8 61.5 11.2 C 61.5 11.2 60.2 11.2 60.2 11.2 C 60.3 10.1 61 9.4 62.6 9.4 C 64 9.4 65.1 9.9 65.1 11.5 C 65.11 11.49 65.1 15.7 65.1 15.7 L 63.8 15.7 L 63.8 14.9 C 63.8 14.9 63.73 14.88 63.7 14.9 C 63.5 15.3 62.9 15.8 62 15.8 C 60.8 15.8 60 15 60 13.9 Z M 63.7 13.6 C 63.73 13.59 63.7 12.9 63.7 12.9 C 63.7 12.9 62.43 12.94 62.4 12.9 C 61.7 12.9 61.4 13.3 61.4 13.8 C 61.4 14.4 61.9 14.7 62.5 14.7 C 63.2 14.7 63.7 14.2 63.7 13.6 Z M 70.9 5.8 L 70.6 8.6 L 69.7 8.6 L 69.7 5.8 L 70.9 5.8 Z M 67.4 8 L 68.7 8 L 68.7 9.5 L 70.1 9.5 L 70.1 10.6 L 68.7 10.6 C 68.7 10.6 68.73 13.77 68.7 13.8 C 68.7 14.4 69 14.6 69.7 14.6 C 69.8 14.6 70.1 14.6 70.2 14.6 C 70.2 14.6 70.2 15.7 70.2 15.7 C 70.1 15.7 69.6 15.7 69.3 15.7 C 67.8 15.7 67.4 15.2 67.4 13.9 C 67.36 13.93 67.4 10.6 67.4 10.6 L 66.4 10.6 L 66.4 9.5 L 67.4 9.5 L 67.4 8 Z " stroke="none" fill="#fff"/>  </g></svg>