<?xml version="1.0" standalone="no"?><!DOCTYPE svg PUBLIC "-//W3C//DTD SVG 1.1//EN" "http://www.w3.org/Graphics/SVG/1.1/DTD/svg11.dtd"><svg xmlns="http://www.w3.org/2000/svg" version="1.1" width="537.2px" height="38.5px" viewBox="0 -2 537.2 38.5" style="top:-2px">  <desc>Cit cia: Gendel Danielsson. A novel estetrol containing combined oral contraceptive: European expert panel review. Th...</desc>  <defs/>  <g id="Polygon76289">    <path d="M 117.1 13.1 C 117.1 13.1 115.38 13.09 115.4 13.1 C 115.2 13.1 115.2 13.1 115.1 13.3 C 115.12 13.31 115 13.8 115 13.8 L 114.4 13.8 C 114.4 13.8 114.54 12.99 114.5 13 C 114.6 12.6 114.8 12.5 115.2 12.5 C 115.2 12.5 119.9 12.5 119.9 12.5 C 120.3 12.5 120.4 12.7 120.4 12.9 C 120.4 13 120.4 13.1 120.4 13.3 C 120.38 13.27 120.3 13.8 120.3 13.8 L 119.6 13.8 C 119.6 13.8 119.69 13.48 119.7 13.5 C 119.7 13.4 119.7 13.3 119.7 13.2 C 119.7 13.1 119.7 13.1 119.5 13.1 C 119.54 13.09 117.8 13.1 117.8 13.1 L 116.6 19.5 L 115.9 19.5 L 117.1 13.1 Z M 121.3 13.4 C 121.3 13.4 121.3 13.3 121.3 13.2 C 121.3 13.1 121.3 13.1 121.2 13.1 C 121.16 13.06 120.7 13.1 120.7 13.1 L 120.9 12.5 C 120.9 12.5 121.55 12.47 121.5 12.5 C 121.9 12.5 122.1 12.6 122.1 12.9 C 122.1 13 122.1 13.1 122 13.2 C 122 13.2 121.6 15.2 121.6 15.2 C 121.6 15.42 121.5 15.6 121.5 15.6 C 121.5 15.6 121.57 15.62 121.6 15.6 C 121.8 15.2 122.6 14.4 123.8 14.4 C 124.7 14.4 125.2 14.9 125.2 15.7 C 125.2 15.9 125.1 16.1 125.1 16.3 C 125.1 16.3 124.7 18.6 124.7 18.6 C 124.7 18.6 124.6 18.7 124.6 18.8 C 124.6 18.9 124.7 18.9 124.8 18.9 C 124.83 18.91 125.2 18.9 125.2 18.9 L 125.1 19.5 C 125.1 19.5 124.44 19.5 124.4 19.5 C 124.1 19.5 123.9 19.4 123.9 19.1 C 123.9 19 123.9 18.9 123.9 18.8 C 123.9 18.8 124.4 16.5 124.4 16.5 C 124.4 16.3 124.5 16.1 124.5 15.9 C 124.5 15.4 124.3 15 123.6 15 C 122.4 15 121.5 16.1 121.3 17.1 C 121.28 17.11 120.8 19.5 120.8 19.5 L 120.1 19.5 C 120.1 19.5 121.31 13.44 121.3 13.4 Z M 129.1 14.4 C 130.3 14.4 130.9 15.1 130.9 16.2 C 130.87 16.56 130.7 17 130.7 17 L 126.9 17 C 126.9 17 126.82 17.22 126.8 17.4 C 126.8 18.3 127.4 19 128.4 19 C 129.34 19.01 130.1 18.4 130.1 18.4 L 130.3 19 C 130.3 19 129.46 19.62 128.4 19.6 C 127 19.6 126.1 18.8 126.1 17.5 C 126.1 15.9 127.4 14.4 129.1 14.4 Z M 130.1 16.5 C 130.1 16.5 130.17 16.3 130.2 16.1 C 130.2 15.3 129.7 14.9 129 14.9 C 128.2 14.9 127.4 15.5 127 16.5 C 127.01 16.47 130.1 16.5 130.1 16.5 Z M 134.6 18.7 C 134.57 18.72 135.7 13.1 135.7 13.1 L 135 13.1 L 135.1 12.5 C 135.1 12.5 139.14 12.47 139.1 12.5 C 139.5 12.5 139.7 12.7 139.7 12.9 C 139.7 13 139.6 13.1 139.6 13.3 C 139.61 13.27 139.5 13.8 139.5 13.8 L 138.9 13.8 C 138.9 13.8 138.91 13.48 138.9 13.5 C 138.9 13.4 138.9 13.3 138.9 13.2 C 138.9 13.1 138.9 13.1 138.8 13.1 C 138.76 13.09 136.4 13.1 136.4 13.1 L 135.9 15.7 L 138.5 15.7 L 138.4 16.3 L 135.7 16.3 C 135.7 16.3 135.31 18.5 135.3 18.5 C 135.3 18.6 135.3 18.7 135.3 18.7 C 135.3 18.8 135.3 18.9 135.5 18.9 C 135.5 18.9 137.9 18.9 137.9 18.9 C 138.1 18.9 138.2 18.8 138.2 18.7 C 138.2 18.66 138.3 18.2 138.3 18.2 L 138.9 18.2 C 138.9 18.2 138.8 18.91 138.8 18.9 C 138.7 19.3 138.5 19.5 138.1 19.5 C 138.1 19.5 135 19.5 135 19.5 C 134.7 19.5 134.5 19.3 134.5 19.1 C 134.5 19 134.5 18.9 134.6 18.7 Z M 140.3 17.7 C 140.3 17.7 140.7 15.4 140.7 15.4 C 140.7 15.3 140.8 15.2 140.8 15.2 C 140.8 15.1 140.7 15.1 140.6 15.1 C 140.58 15.06 140.2 15.1 140.2 15.1 L 140.3 14.5 C 140.3 14.5 140.98 14.47 141 14.5 C 141.3 14.5 141.5 14.6 141.5 14.9 C 141.5 15 141.5 15.1 141.5 15.1 C 141.5 15.1 141 17.5 141 17.5 C 141 17.7 140.9 17.9 140.9 18.1 C 140.9 18.6 141.1 19 141.8 19 C 143 19 143.9 17.8 144.1 16.8 C 144.1 16.79 144.5 14.5 144.5 14.5 L 145.2 14.5 C 145.2 14.5 144.44 18.53 144.4 18.5 C 144.4 18.6 144.4 18.7 144.4 18.8 C 144.4 18.9 144.5 18.9 144.6 18.9 C 144.6 18.91 145 18.9 145 18.9 L 144.9 19.5 C 144.9 19.5 144.21 19.5 144.2 19.5 C 143.8 19.5 143.7 19.3 143.7 19.1 C 143.7 18.9 143.8 18.6 143.8 18.3 C 143.8 18.3 143.8 18.3 143.8 18.3 C 143.5 18.8 142.8 19.6 141.6 19.6 C 140.7 19.6 140.2 19.1 140.2 18.3 C 140.2 18.1 140.3 17.9 140.3 17.7 Z M 146.8 15.3 C 146.8 15.2 146.8 15.1 146.6 15.1 C 146.64 15.06 146.2 15.1 146.2 15.1 L 146.3 14.5 C 146.3 14.5 147.04 14.47 147 14.5 C 147.4 14.5 147.5 14.6 147.5 14.9 C 147.5 15 147.4 15.6 147.3 15.8 C 147.3 15.8 147.4 15.8 147.4 15.8 C 147.7 15.1 148.4 14.4 149.2 14.4 C 149.3 14.4 149.4 14.4 149.5 14.5 C 149.5 14.5 149.4 15.1 149.4 15.1 C 149.3 15.1 149.2 15.1 149.1 15.1 C 148 15.1 147.3 16.4 147.1 17.6 C 147.06 17.58 146.7 19.5 146.7 19.5 L 146 19.5 C 146 19.5 146.82 15.28 146.8 15.3 Z M 152.6 14.4 C 153.9 14.4 154.8 15.2 154.8 16.5 C 154.8 18.3 153.3 19.6 151.7 19.6 C 150.3 19.6 149.4 18.7 149.4 17.4 C 149.4 15.7 150.9 14.4 152.6 14.4 Z M 151.7 19 C 152.9 19 154.1 17.9 154.1 16.5 C 154.1 15.6 153.4 15 152.5 15 C 151.3 15 150.1 16 150.1 17.4 C 150.1 18.3 150.8 19 151.7 19 Z M 156.3 15.4 C 156.3 15.3 156.3 15.3 156.3 15.2 C 156.3 15.1 156.3 15.1 156.1 15.1 C 156.14 15.06 155.7 15.1 155.7 15.1 L 155.8 14.5 C 155.8 14.5 156.53 14.47 156.5 14.5 C 156.9 14.5 157 14.6 157 14.8 C 157 15 157 15.2 156.9 15.4 C 156.9 15.4 156.9 15.4 156.9 15.4 C 157.3 14.9 157.9 14.4 158.8 14.4 C 160 14.4 160.6 15.1 160.6 16.4 C 160.6 18.3 159.3 19.6 157.9 19.6 C 157.2 19.6 156.6 19.3 156.3 18.6 C 156.34 18.61 156.3 18.6 156.3 18.6 C 156.3 18.6 156.3 18.84 156.2 19.1 C 156.25 19.09 155.8 21.5 155.8 21.5 L 155.1 21.5 C 155.1 21.5 156.29 15.45 156.3 15.4 Z M 156.6 17.5 C 156.6 18.4 157 19 157.8 19 C 158.8 19 159.9 18 159.9 16.5 C 159.9 15.5 159.5 15 158.7 15 C 157.4 15 156.6 16.3 156.6 17.5 C 156.6 17.5 156.6 17.5 156.6 17.5 Z M 164.3 14.4 C 165.5 14.4 166.1 15.1 166.1 16.2 C 166.09 16.56 165.9 17 165.9 17 L 162.1 17 C 162.1 17 162.04 17.22 162 17.4 C 162 18.3 162.6 19 163.6 19 C 164.56 19.01 165.3 18.4 165.3 18.4 L 165.5 19 C 165.5 19 164.68 19.62 163.6 19.6 C 162.2 19.6 161.3 18.8 161.3 17.5 C 161.3 15.9 162.6 14.4 164.3 14.4 Z M 165.4 16.5 C 165.4 16.5 165.39 16.3 165.4 16.1 C 165.4 15.3 164.9 14.9 164.2 14.9 C 163.4 14.9 162.6 15.5 162.2 16.5 C 162.23 16.47 165.4 16.5 165.4 16.5 Z M 166.4 18.3 C 166.4 16.8 168.3 16.4 169.8 16.4 C 169.83 16.4 170.1 16.4 170.1 16.4 C 170.1 16.4 170.17 16.27 170.2 16.3 C 170.2 16.1 170.2 16 170.2 15.8 C 170.2 15.2 169.9 14.9 169.2 14.9 C 168.8 14.9 168.1 15 168.1 15.4 C 168.07 15.36 168 15.7 168 15.7 L 167.4 15.7 C 167.4 15.7 167.45 15.2 167.4 15.2 C 167.6 14.6 168.6 14.4 169.3 14.4 C 170.4 14.4 170.9 14.9 170.9 15.7 C 170.9 15.9 170.9 16.1 170.8 16.4 C 170.8 16.4 170.4 18.5 170.4 18.5 C 170.4 18.6 170.4 18.7 170.4 18.8 C 170.4 18.8 170.4 18.9 170.5 18.9 C 170.55 18.91 171 18.9 171 18.9 L 170.9 19.5 C 170.9 19.5 170.22 19.5 170.2 19.5 C 169.8 19.5 169.7 19.3 169.7 19.1 C 169.7 19 169.7 18.7 169.8 18.5 C 169.8 18.5 169.8 18.5 169.8 18.5 C 169.8 18.5 169.2 19.6 167.9 19.6 C 167.1 19.6 166.4 19.2 166.4 18.3 C 166.4 18.3 166.4 18.3 166.4 18.3 Z M 167.1 18.2 C 167.1 18.8 167.5 19.1 168 19.1 C 169.1 19.1 169.9 17.9 170 17.2 C 170 17.17 170 16.9 170 16.9 C 170 16.9 169.76 16.94 169.8 16.9 C 168.9 16.9 167.1 17.1 167.1 18.2 C 167.1 18.2 167.1 18.2 167.1 18.2 Z M 172.7 15.4 C 172.7 15.4 172.7 15.3 172.7 15.2 C 172.7 15.1 172.6 15.1 172.5 15.1 C 172.51 15.06 172.1 15.1 172.1 15.1 L 172.2 14.5 C 172.2 14.5 172.9 14.47 172.9 14.5 C 173.3 14.5 173.4 14.6 173.4 14.9 C 173.4 15.1 173.3 15.4 173.3 15.6 C 173.3 15.6 173.3 15.6 173.3 15.6 C 173.6 15.2 174.3 14.4 175.5 14.4 C 176.5 14.4 176.9 14.9 176.9 15.7 C 176.9 15.9 176.9 16.1 176.9 16.3 C 176.9 16.3 176.4 18.6 176.4 18.6 C 176.4 18.6 176.4 18.7 176.4 18.8 C 176.4 18.9 176.5 18.9 176.6 18.9 C 176.58 18.91 177 18.9 177 18.9 L 176.9 19.5 C 176.9 19.5 176.19 19.5 176.2 19.5 C 175.8 19.5 175.7 19.4 175.7 19.1 C 175.7 19 175.7 18.9 175.7 18.8 C 175.7 18.8 176.1 16.5 176.1 16.5 C 176.2 16.3 176.2 16.1 176.2 15.9 C 176.2 15.4 176 15 175.3 15 C 174.2 15 173.2 16.1 173 17.1 C 173.03 17.11 172.6 19.5 172.6 19.5 L 171.9 19.5 C 171.9 19.5 172.67 15.45 172.7 15.4 Z M 180.4 17.5 C 180.41 17.51 180.4 17.3 180.4 17.3 L 181.1 17.3 C 181.1 17.3 181.11 17.49 181.1 17.5 C 181.1 17.7 181.1 17.8 181.1 17.9 C 181.1 18.7 181.6 19 182.1 19 C 182.7 19 183.4 18.6 183.7 17.5 C 183.7 17.5 184.4 13.5 184.4 13.5 C 184.5 13.4 184.5 13.3 184.5 13.2 C 184.5 13.1 184.4 13.1 184.3 13.1 C 184.29 13.09 182.6 13.1 182.6 13.1 L 182.7 12.5 C 182.7 12.5 184.72 12.47 184.7 12.5 C 185.1 12.5 185.2 12.7 185.2 12.9 C 185.2 13 185.2 13.1 185.2 13.3 C 185.2 13.3 184.3 17.6 184.3 17.6 C 184 19.1 183 19.6 182.1 19.6 C 181.2 19.6 180.3 19.1 180.3 18.1 C 180.3 17.9 180.4 17.7 180.4 17.5 Z M 188.7 14.4 C 190 14.4 190.9 15.2 190.9 16.5 C 190.9 18.3 189.4 19.6 187.8 19.6 C 186.5 19.6 185.5 18.7 185.5 17.4 C 185.5 15.7 187.1 14.4 188.7 14.4 Z M 187.8 19 C 189 19 190.2 17.9 190.2 16.5 C 190.2 15.6 189.6 15 188.6 15 C 187.4 15 186.2 16 186.2 17.4 C 186.2 18.3 186.9 19 187.8 19 Z M 192 17.7 C 192 17.7 192.4 15.4 192.4 15.4 C 192.5 15.3 192.5 15.2 192.5 15.2 C 192.5 15.1 192.4 15.1 192.3 15.1 C 192.29 15.06 191.9 15.1 191.9 15.1 L 192 14.5 C 192 14.5 192.69 14.47 192.7 14.5 C 193 14.5 193.2 14.6 193.2 14.9 C 193.2 15 193.2 15.1 193.2 15.1 C 193.2 15.1 192.7 17.5 192.7 17.5 C 192.7 17.7 192.7 17.9 192.7 18.1 C 192.7 18.6 192.9 19 193.5 19 C 194.7 19 195.6 17.8 195.8 16.8 C 195.81 16.79 196.3 14.5 196.3 14.5 L 196.9 14.5 C 196.9 14.5 196.15 18.53 196.1 18.5 C 196.1 18.6 196.1 18.7 196.1 18.8 C 196.1 18.9 196.2 18.9 196.3 18.9 C 196.31 18.91 196.7 18.9 196.7 18.9 L 196.6 19.5 C 196.6 19.5 195.92 19.5 195.9 19.5 C 195.6 19.5 195.4 19.3 195.4 19.1 C 195.4 18.9 195.5 18.6 195.5 18.3 C 195.5 18.3 195.5 18.3 195.5 18.3 C 195.3 18.8 194.5 19.6 193.4 19.6 C 192.4 19.6 191.9 19.1 191.9 18.3 C 191.9 18.1 192 17.9 192 17.7 Z M 198.5 15.3 C 198.5 15.2 198.5 15.1 198.3 15.1 C 198.35 15.06 197.9 15.1 197.9 15.1 L 198 14.5 C 198 14.5 198.75 14.47 198.7 14.5 C 199.1 14.5 199.3 14.6 199.3 14.9 C 199.3 15 199.1 15.6 199.1 15.8 C 199.1 15.8 199.1 15.8 199.1 15.8 C 199.4 15.1 200.1 14.4 200.9 14.4 C 201 14.4 201.1 14.4 201.2 14.5 C 201.2 14.5 201.1 15.1 201.1 15.1 C 201 15.1 200.9 15.1 200.8 15.1 C 199.8 15.1 199 16.4 198.8 17.6 C 198.77 17.58 198.4 19.5 198.4 19.5 L 197.7 19.5 C 197.7 19.5 198.53 15.28 198.5 15.3 Z M 202 15.4 C 202 15.4 202 15.3 202 15.2 C 202 15.1 202 15.1 201.9 15.1 C 201.86 15.06 201.5 15.1 201.5 15.1 L 201.6 14.5 C 201.6 14.5 202.25 14.47 202.2 14.5 C 202.6 14.5 202.8 14.6 202.8 14.9 C 202.8 15.1 202.7 15.4 202.6 15.6 C 202.6 15.6 202.6 15.6 202.6 15.6 C 202.9 15.2 203.7 14.4 204.9 14.4 C 205.8 14.4 206.3 14.9 206.3 15.7 C 206.3 15.9 206.2 16.1 206.2 16.3 C 206.2 16.3 205.8 18.6 205.8 18.6 C 205.8 18.6 205.7 18.7 205.7 18.8 C 205.7 18.9 205.8 18.9 205.9 18.9 C 205.93 18.91 206.3 18.9 206.3 18.9 L 206.2 19.5 C 206.2 19.5 205.54 19.5 205.5 19.5 C 205.2 19.5 205 19.4 205 19.1 C 205 19 205 18.9 205 18.8 C 205 18.8 205.5 16.5 205.5 16.5 C 205.5 16.3 205.6 16.1 205.6 15.9 C 205.6 15.4 205.4 15 204.7 15 C 203.5 15 202.6 16.1 202.4 17.1 C 202.38 17.11 201.9 19.5 201.9 19.5 L 201.2 19.5 C 201.2 19.5 202.02 15.45 202 15.4 Z M 207 18.3 C 207 16.8 208.9 16.4 210.4 16.4 C 210.4 16.4 210.7 16.4 210.7 16.4 C 210.7 16.4 210.74 16.27 210.7 16.3 C 210.8 16.1 210.8 16 210.8 15.8 C 210.8 15.2 210.4 14.9 209.8 14.9 C 209.4 14.9 208.7 15 208.6 15.4 C 208.64 15.36 208.6 15.7 208.6 15.7 L 207.9 15.7 C 207.9 15.7 208.02 15.2 208 15.2 C 208.1 14.6 209.2 14.4 209.8 14.4 C 211 14.4 211.5 14.9 211.5 15.7 C 211.5 15.9 211.4 16.1 211.4 16.4 C 211.4 16.4 211 18.5 211 18.5 C 211 18.6 210.9 18.7 210.9 18.8 C 210.9 18.8 211 18.9 211.1 18.9 C 211.12 18.91 211.5 18.9 211.5 18.9 L 211.4 19.5 C 211.4 19.5 210.79 19.5 210.8 19.5 C 210.4 19.5 210.2 19.3 210.2 19.1 C 210.2 19 210.3 18.7 210.4 18.5 C 210.4 18.5 210.3 18.5 210.3 18.5 C 210.4 18.5 209.7 19.6 208.5 19.6 C 207.7 19.6 207 19.2 207 18.3 C 207 18.3 207 18.3 207 18.3 Z M 207.7 18.2 C 207.7 18.8 208.1 19.1 208.6 19.1 C 209.6 19.1 210.4 17.9 210.6 17.2 C 210.57 17.17 210.6 16.9 210.6 16.9 C 210.6 16.9 210.33 16.94 210.3 16.9 C 209.5 16.9 207.7 17.1 207.7 18.2 C 207.7 18.2 207.7 18.2 207.7 18.2 Z M 212.6 18.8 C 212.6 18.8 213.7 13.4 213.7 13.4 C 213.7 13.3 213.7 13.3 213.7 13.2 C 213.7 13.1 213.6 13.1 213.5 13.1 C 213.51 13.06 213.1 13.1 213.1 13.1 L 213.2 12.5 C 213.2 12.5 213.9 12.47 213.9 12.5 C 214.3 12.5 214.4 12.6 214.4 12.9 C 214.4 13 214.4 13.1 214.4 13.2 C 214.4 13.2 213.3 18.6 213.3 18.6 C 213.3 18.6 213.3 18.7 213.3 18.8 C 213.3 18.9 213.4 18.9 213.5 18.9 C 213.5 18.91 213.9 18.9 213.9 18.9 L 213.8 19.5 C 213.8 19.5 213.11 19.5 213.1 19.5 C 212.8 19.5 212.6 19.4 212.6 19.1 C 212.6 19 212.6 18.9 212.6 18.8 Z M 220.8 14.4 C 222.1 14.4 223 15.2 223 16.5 C 223 18.3 221.5 19.6 219.9 19.6 C 218.5 19.6 217.6 18.7 217.6 17.4 C 217.6 15.7 219.1 14.4 220.8 14.4 Z M 219.9 19 C 221.1 19 222.3 17.9 222.3 16.5 C 222.3 15.6 221.6 15 220.7 15 C 219.5 15 218.3 16 218.3 17.4 C 218.3 18.3 219 19 219.9 19 Z M 224.5 15 L 223.9 15 L 224 14.5 L 224.7 14.5 C 224.7 14.5 224.7 14.29 224.7 14.3 C 225 12.6 226.2 12.4 226.7 12.4 C 226.95 12.42 227.1 12.4 227.1 12.4 C 227.1 12.4 226.98 13.03 227 13 C 227 13 226.9 13 226.7 13 C 226.3 13 225.6 13.2 225.4 14.3 C 225.38 14.29 225.3 14.5 225.3 14.5 L 226.6 14.5 L 226.5 15 L 225.2 15 L 224.4 19.5 L 223.7 19.5 L 224.5 15 Z M 233.7 12.4 C 234.7 12.4 236.1 12.8 236.1 13.7 C 236.1 13.8 236.1 13.9 236.1 14.1 C 236.06 14.07 236 14.4 236 14.4 L 235.3 14.4 C 235.3 14.4 235.41 14.03 235.4 14 C 235.6 13.3 234.3 13 233.7 13 C 231.9 13 230.3 14.6 230.3 16.6 C 230.3 17.9 231.1 19 232.6 19 C 233.5 19 234.4 18.7 235 18.1 C 235 18.1 235.4 18.6 235.4 18.6 C 234.7 19.2 233.6 19.6 232.5 19.6 C 230.7 19.6 229.6 18.3 229.6 16.6 C 229.6 14.4 231.4 12.4 233.7 12.4 Z M 239.4 14.4 C 240.7 14.4 241.6 15.2 241.6 16.5 C 241.6 18.3 240.1 19.6 238.5 19.6 C 237.2 19.6 236.2 18.7 236.2 17.4 C 236.2 15.7 237.8 14.4 239.4 14.4 Z M 238.6 19 C 239.7 19 240.9 17.9 240.9 16.5 C 240.9 15.6 240.3 15 239.3 15 C 238.1 15 236.9 16 236.9 17.4 C 236.9 18.3 237.6 19 238.6 19 Z M 243.1 15.4 C 243.1 15.4 243.1 15.3 243.1 15.2 C 243.1 15.1 243.1 15.1 243 15.1 C 242.96 15.06 242.6 15.1 242.6 15.1 L 242.7 14.5 C 242.7 14.5 243.35 14.47 243.3 14.5 C 243.7 14.5 243.9 14.6 243.9 14.9 C 243.9 15.1 243.8 15.4 243.7 15.6 C 243.7 15.6 243.7 15.6 243.7 15.6 C 244 15.2 244.8 14.4 246 14.4 C 246.9 14.4 247.4 14.9 247.4 15.7 C 247.4 15.9 247.3 16.1 247.3 16.3 C 247.3 16.3 246.9 18.6 246.9 18.6 C 246.9 18.6 246.8 18.7 246.8 18.8 C 246.8 18.9 246.9 18.9 247 18.9 C 247.03 18.91 247.4 18.9 247.4 18.9 L 247.3 19.5 C 247.3 19.5 246.64 19.5 246.6 19.5 C 246.3 19.5 246.1 19.4 246.1 19.1 C 246.1 19 246.1 18.9 246.1 18.8 C 246.1 18.8 246.6 16.5 246.6 16.5 C 246.6 16.3 246.7 16.1 246.7 15.9 C 246.7 15.4 246.5 15 245.8 15 C 244.6 15 243.7 16.1 243.5 17.1 C 243.48 17.11 243 19.5 243 19.5 L 242.3 19.5 C 242.3 19.5 243.12 15.45 243.1 15.4 Z M 248.7 17.7 C 248.7 17.65 249.2 15 249.2 15 L 248.5 15 L 248.7 14.5 L 249.3 14.5 L 249.6 13.1 L 250.3 13.1 L 250 14.5 L 251.3 14.5 L 251.1 15 L 249.9 15 C 249.9 15 249.4 17.58 249.4 17.6 C 249.4 17.8 249.3 17.9 249.3 18.1 C 249.3 18.9 249.9 18.9 250.3 18.9 C 250.41 18.93 250.5 18.9 250.5 18.9 L 250.4 19.5 C 250.4 19.5 250.26 19.54 250.1 19.5 C 249.6 19.5 248.6 19.3 248.6 18.2 C 248.6 18 248.7 17.8 248.7 17.7 Z M 252.3 15.3 C 252.3 15.2 252.3 15.1 252.1 15.1 C 252.09 15.06 251.7 15.1 251.7 15.1 L 251.8 14.5 C 251.8 14.5 252.49 14.47 252.5 14.5 C 252.9 14.5 253 14.6 253 14.9 C 253 15 252.9 15.6 252.8 15.8 C 252.8 15.8 252.8 15.8 252.8 15.8 C 253.2 15.1 253.8 14.4 254.7 14.4 C 254.8 14.4 254.9 14.4 255 14.5 C 255 14.5 254.8 15.1 254.8 15.1 C 254.8 15.1 254.7 15.1 254.6 15.1 C 253.5 15.1 252.7 16.4 252.5 17.6 C 252.51 17.58 252.1 19.5 252.1 19.5 L 251.5 19.5 C 251.5 19.5 252.27 15.28 252.3 15.3 Z M 254.6 18.3 C 254.6 16.8 256.5 16.4 258 16.4 C 258.03 16.4 258.3 16.4 258.3 16.4 C 258.3 16.4 258.37 16.27 258.4 16.3 C 258.4 16.1 258.4 16 258.4 15.8 C 258.4 15.2 258.1 14.9 257.4 14.9 C 257 14.9 256.3 15 256.3 15.4 C 256.27 15.36 256.2 15.7 256.2 15.7 L 255.6 15.7 C 255.6 15.7 255.65 15.2 255.6 15.2 C 255.8 14.6 256.8 14.4 257.5 14.4 C 258.6 14.4 259.1 14.9 259.1 15.7 C 259.1 15.9 259.1 16.1 259 16.4 C 259 16.4 258.6 18.5 258.6 18.5 C 258.6 18.6 258.6 18.7 258.6 18.8 C 258.6 18.8 258.6 18.9 258.7 18.9 C 258.75 18.91 259.2 18.9 259.2 18.9 L 259.1 19.5 C 259.1 19.5 258.42 19.5 258.4 19.5 C 258 19.5 257.9 19.3 257.9 19.1 C 257.9 19 257.9 18.7 258 18.5 C 258 18.5 258 18.5 258 18.5 C 258 18.5 257.4 19.6 256.1 19.6 C 255.3 19.6 254.6 19.2 254.6 18.3 C 254.6 18.3 254.6 18.3 254.6 18.3 Z M 255.3 18.2 C 255.3 18.8 255.7 19.1 256.2 19.1 C 257.3 19.1 258.1 17.9 258.2 17.2 C 258.2 17.17 258.2 16.9 258.2 16.9 C 258.2 16.9 257.96 16.94 258 16.9 C 257.1 16.9 255.3 17.1 255.3 18.2 C 255.3 18.2 255.3 18.2 255.3 18.2 Z M 263.1 14.4 C 263.7 14.4 265 14.6 264.8 15.5 C 264.8 15.46 264.7 15.9 264.7 15.9 L 264.1 15.9 C 264.1 15.9 264.14 15.62 264.1 15.6 C 264.2 15.1 263.5 15 263 15 C 261.9 15 260.7 16 260.7 17.4 C 260.7 18.4 261.3 19 262.3 19 C 263.42 19 264 18.4 264 18.4 L 264.2 18.9 C 264.2 18.9 263.58 19.62 262.3 19.6 C 260.9 19.6 260 18.8 260 17.4 C 260 15.7 261.5 14.4 263.1 14.4 Z M 268.2 14.4 C 269.5 14.4 270 15.1 270 16.2 C 270.03 16.56 269.9 17 269.9 17 L 266 17 C 266 17 265.98 17.22 266 17.4 C 266 18.3 266.5 19 267.6 19 C 268.5 19.01 269.2 18.4 269.2 18.4 L 269.4 19 C 269.4 19 268.62 19.62 267.5 19.6 C 266.2 19.6 265.3 18.8 265.3 17.5 C 265.3 15.9 266.5 14.4 268.2 14.4 Z M 269.3 16.5 C 269.3 16.5 269.33 16.3 269.3 16.1 C 269.3 15.3 268.8 14.9 268.2 14.9 C 267.4 14.9 266.5 15.5 266.2 16.5 C 266.17 16.47 269.3 16.5 269.3 16.5 Z M 271.5 15.4 C 271.5 15.3 271.5 15.3 271.5 15.2 C 271.5 15.1 271.5 15.1 271.3 15.1 C 271.32 15.06 270.9 15.1 270.9 15.1 L 271 14.5 C 271 14.5 271.71 14.47 271.7 14.5 C 272.1 14.5 272.2 14.6 272.2 14.8 C 272.2 15 272.2 15.2 272.1 15.4 C 272.1 15.4 272.1 15.4 272.1 15.4 C 272.4 14.9 273 14.4 274 14.4 C 275.1 14.4 275.8 15.1 275.8 16.4 C 275.8 18.3 274.5 19.6 273.1 19.6 C 272.4 19.6 271.7 19.3 271.5 18.6 C 271.52 18.61 271.5 18.6 271.5 18.6 C 271.5 18.6 271.48 18.84 271.4 19.1 C 271.43 19.09 271 21.5 271 21.5 L 270.3 21.5 C 270.3 21.5 271.47 15.45 271.5 15.4 Z M 271.8 17.5 C 271.8 18.4 272.2 19 273 19 C 274 19 275.1 18 275.1 16.5 C 275.1 15.5 274.6 15 273.9 15 C 272.6 15 271.8 16.3 271.8 17.5 C 271.8 17.5 271.8 17.5 271.8 17.5 Z M 276.9 17.7 C 276.92 17.65 277.4 15 277.4 15 L 276.8 15 L 276.9 14.5 L 277.5 14.5 L 277.8 13.1 L 278.5 13.1 L 278.2 14.5 L 279.5 14.5 L 279.4 15 L 278.1 15 C 278.1 15 277.62 17.58 277.6 17.6 C 277.6 17.8 277.6 17.9 277.6 18.1 C 277.6 18.9 278.1 18.9 278.5 18.9 C 278.63 18.93 278.7 18.9 278.7 18.9 L 278.6 19.5 C 278.6 19.5 278.48 19.54 278.3 19.5 C 277.8 19.5 276.9 19.3 276.9 18.2 C 276.9 18 276.9 17.8 276.9 17.7 Z M 281 12.5 L 281.7 12.5 L 281.5 13.3 L 280.9 13.3 L 281 12.5 Z M 279.8 18.8 C 279.8 18.8 280.5 15.4 280.5 15.4 C 280.5 15.3 280.5 15.3 280.5 15.2 C 280.5 15.1 280.4 15.1 280.3 15.1 C 280.33 15.06 279.9 15.1 279.9 15.1 L 280 14.5 C 280 14.5 280.71 14.47 280.7 14.5 C 281.1 14.5 281.2 14.6 281.2 14.9 C 281.2 15 281.2 15.1 281.2 15.2 C 281.2 15.2 280.5 18.6 280.5 18.6 C 280.5 18.6 280.5 18.7 280.5 18.8 C 280.5 18.9 280.6 18.9 280.7 18.9 C 280.7 18.91 281.1 18.9 281.1 18.9 L 281 19.5 C 281 19.5 280.31 19.5 280.3 19.5 C 280 19.5 279.8 19.4 279.8 19.1 C 279.8 19 279.8 18.9 279.8 18.8 Z M 285.2 14.4 C 286.5 14.4 287.4 15.2 287.4 16.5 C 287.4 18.3 285.9 19.6 284.3 19.6 C 283 19.6 282 18.7 282 17.4 C 282 15.7 283.6 14.4 285.2 14.4 Z M 284.3 19 C 285.5 19 286.7 17.9 286.7 16.5 C 286.7 15.6 286.1 15 285.1 15 C 283.9 15 282.7 16 282.7 17.4 C 282.7 18.3 283.4 19 284.3 19 Z M 288.9 15.4 C 288.9 15.4 288.9 15.3 288.9 15.2 C 288.9 15.1 288.9 15.1 288.7 15.1 C 288.75 15.06 288.3 15.1 288.3 15.1 L 288.5 14.5 C 288.5 14.5 289.14 14.47 289.1 14.5 C 289.5 14.5 289.7 14.6 289.7 14.9 C 289.7 15.1 289.6 15.4 289.5 15.6 C 289.5 15.6 289.5 15.6 289.5 15.6 C 289.8 15.2 290.6 14.4 291.7 14.4 C 292.7 14.4 293.2 14.9 293.2 15.7 C 293.2 15.9 293.1 16.1 293.1 16.3 C 293.1 16.3 292.7 18.6 292.7 18.6 C 292.6 18.6 292.6 18.7 292.6 18.8 C 292.6 18.9 292.7 18.9 292.8 18.9 C 292.82 18.91 293.2 18.9 293.2 18.9 L 293.1 19.5 C 293.1 19.5 292.43 19.5 292.4 19.5 C 292.1 19.5 291.9 19.4 291.9 19.1 C 291.9 19 291.9 18.9 291.9 18.8 C 291.9 18.8 292.4 16.5 292.4 16.5 C 292.4 16.3 292.5 16.1 292.5 15.9 C 292.5 15.4 292.3 15 291.6 15 C 290.4 15 289.5 16.1 289.3 17.1 C 289.27 17.11 288.8 19.5 288.8 19.5 L 288.1 19.5 C 288.1 19.5 288.91 15.45 288.9 15.4 Z M 298.5 15.7 C 298.5 15.71 298.5 15.7 298.5 15.7 C 298.5 15.7 297.78 15.43 297.8 14.5 C 297.8 13.2 298.8 12.4 300.1 12.4 C 300.6 12.4 301 12.5 301 12.5 C 301.03 12.47 300.7 13 300.7 13 C 300.7 13 300.45 12.97 300.1 13 C 299.3 13 298.5 13.5 298.5 14.5 C 298.5 14.9 298.7 15.5 299.8 15.5 C 299.79 15.45 301.3 15.5 301.3 15.5 L 301.5 14.5 L 302.1 14.5 L 302 15.5 L 302.9 15.5 L 302.8 16 L 301.8 16 C 301.8 16 301.64 17.09 301.6 17.1 C 301.3 18.9 300.3 19.6 298.9 19.6 C 297.6 19.6 296.8 18.9 296.8 17.8 C 296.8 16.9 297.5 16 298.5 15.7 Z M 298.9 19 C 299.9 19 300.7 18.4 300.9 17.1 C 300.95 17.07 301.1 16 301.1 16 C 301.1 16 299.67 16.05 299.7 16 C 298.6 16 297.5 16.7 297.5 17.8 C 297.5 18.5 298 19 298.9 19 Z M 307.3 13.1 L 306.6 13.1 L 306.7 12.5 C 306.7 12.5 309.68 12.47 309.7 12.5 C 310.7 12.5 311.4 13.1 311.4 14.1 C 311.4 15.3 310.5 16.2 309.6 16.3 C 309.62 16.34 309.6 16.4 309.6 16.4 C 309.6 16.4 309.72 16.45 309.8 16.6 C 309.8 16.6 310.4 18.6 310.4 18.6 C 310.4 18.8 310.6 18.9 310.7 18.9 C 310.74 18.88 311 18.9 311 18.9 L 310.9 19.5 C 310.9 19.5 310.5 19.5 310.5 19.5 C 310.1 19.5 309.9 19.4 309.8 19 C 309.8 19 309.1 17 309.1 17 C 309 16.6 308.9 16.5 308.5 16.5 C 308.53 16.54 307.3 16.5 307.3 16.5 L 306.7 19.5 L 306 19.5 L 307.3 13.1 Z M 309 15.9 C 309.9 15.9 310.7 15.2 310.7 14.2 C 310.7 13.5 310.3 13.1 309.5 13.1 C 309.55 13.09 308 13.1 308 13.1 L 307.4 15.9 C 307.4 15.9 308.99 15.92 309 15.9 Z M 314.7 14.4 C 316 14.4 316.6 15.1 316.6 16.2 C 316.56 16.56 316.4 17 316.4 17 L 312.6 17 C 312.6 17 312.51 17.22 312.5 17.4 C 312.5 18.3 313.1 19 314.1 19 C 315.03 19.01 315.8 18.4 315.8 18.4 L 316 19 C 316 19 315.15 19.62 314.1 19.6 C 312.7 19.6 311.8 18.8 311.8 17.5 C 311.8 15.9 313 14.4 314.7 14.4 Z M 315.8 16.5 C 315.8 16.5 315.86 16.3 315.9 16.1 C 315.9 15.3 315.4 14.9 314.7 14.9 C 313.9 14.9 313.1 15.5 312.7 16.5 C 312.7 16.47 315.8 16.5 315.8 16.5 Z M 318 15.4 C 318 15.3 318 15.3 318 15.2 C 318 15.1 318 15.1 317.8 15.1 C 317.85 15.06 317.4 15.1 317.4 15.1 L 317.5 14.5 C 317.5 14.5 318.24 14.47 318.2 14.5 C 318.6 14.5 318.7 14.6 318.7 14.8 C 318.7 15 318.7 15.2 318.6 15.4 C 318.6 15.4 318.6 15.4 318.6 15.4 C 319 14.9 319.6 14.4 320.5 14.4 C 321.7 14.4 322.3 15.1 322.3 16.4 C 322.3 18.3 321 19.6 319.6 19.6 C 318.9 19.6 318.3 19.3 318 18.6 C 318.05 18.61 318 18.6 318 18.6 C 318 18.6 318.01 18.84 318 19.1 C 317.96 19.09 317.5 21.5 317.5 21.5 L 316.8 21.5 C 316.8 21.5 318 15.45 318 15.4 Z M 318.3 17.5 C 318.3 18.4 318.7 19 319.5 19 C 320.5 19 321.6 18 321.6 16.5 C 321.6 15.5 321.2 15 320.4 15 C 319.1 15 318.3 16.3 318.3 17.5 C 318.3 17.5 318.3 17.5 318.3 17.5 Z M 323.9 15.3 C 323.9 15.2 323.9 15.1 323.7 15.1 C 323.73 15.06 323.3 15.1 323.3 15.1 L 323.4 14.5 C 323.4 14.5 324.13 14.47 324.1 14.5 C 324.5 14.5 324.6 14.6 324.6 14.9 C 324.6 15 324.5 15.6 324.4 15.8 C 324.4 15.8 324.5 15.8 324.5 15.8 C 324.8 15.1 325.5 14.4 326.3 14.4 C 326.4 14.4 326.5 14.4 326.6 14.5 C 326.6 14.5 326.5 15.1 326.5 15.1 C 326.4 15.1 326.3 15.1 326.2 15.1 C 325.1 15.1 324.4 16.4 324.1 17.6 C 324.15 17.58 323.8 19.5 323.8 19.5 L 323.1 19.5 C 323.1 19.5 323.91 15.28 323.9 15.3 Z M 329.6 14.4 C 331 14.4 331.9 15.2 331.9 16.5 C 331.9 18.3 330.4 19.6 328.7 19.6 C 327.4 19.6 326.5 18.7 326.5 17.4 C 326.5 15.7 328 14.4 329.6 14.4 Z M 328.8 19 C 330 19 331.2 17.9 331.2 16.5 C 331.2 15.6 330.5 15 329.6 15 C 328.4 15 327.2 16 327.2 17.4 C 327.2 18.3 327.9 19 328.8 19 Z M 332.6 17.6 C 332.6 15.7 333.9 14.4 335.3 14.4 C 336 14.4 336.7 14.7 336.9 15.4 C 336.89 15.37 336.9 15.4 336.9 15.4 C 336.9 15.4 336.92 15.16 337 14.9 C 337 14.9 337.2 13.4 337.2 13.4 C 337.3 13.3 337.3 13.3 337.3 13.2 C 337.3 13.1 337.2 13.1 337.1 13.1 C 337.1 13.06 336.7 13.1 336.7 13.1 L 336.8 12.5 C 336.8 12.5 337.49 12.47 337.5 12.5 C 337.8 12.5 338 12.6 338 12.9 C 338 13 338 13.1 338 13.2 C 338 13.2 336.9 18.5 336.9 18.5 C 336.9 18.6 336.9 18.7 336.9 18.8 C 336.9 18.8 336.9 18.9 337.1 18.9 C 337.08 18.91 337.5 18.9 337.5 18.9 L 337.4 19.5 C 337.4 19.5 336.75 19.5 336.7 19.5 C 336.4 19.5 336.2 19.3 336.2 19.1 C 336.2 19 336.3 18.7 336.3 18.6 C 336.3 18.6 336.3 18.6 336.3 18.6 C 336 19.1 335.3 19.6 334.5 19.6 C 333.3 19.6 332.6 18.8 332.6 17.6 C 332.6 17.6 332.6 17.6 332.6 17.6 Z M 333.3 17.6 C 333.3 18.5 333.8 19 334.6 19 C 335.8 19 336.6 17.6 336.6 16.4 C 336.6 15.6 336.2 15 335.4 15 C 334.4 15 333.3 15.9 333.3 17.6 C 333.3 17.6 333.3 17.6 333.3 17.6 Z M 338.9 17.7 C 338.9 17.7 339.3 15.4 339.3 15.4 C 339.3 15.3 339.3 15.2 339.3 15.2 C 339.3 15.1 339.3 15.1 339.1 15.1 C 339.14 15.06 338.7 15.1 338.7 15.1 L 338.8 14.5 C 338.8 14.5 339.54 14.47 339.5 14.5 C 339.9 14.5 340.1 14.6 340.1 14.9 C 340.1 15 340 15.1 340 15.1 C 340 15.1 339.6 17.5 339.6 17.5 C 339.5 17.7 339.5 17.9 339.5 18.1 C 339.5 18.6 339.7 19 340.4 19 C 341.5 19 342.5 17.8 342.7 16.8 C 342.66 16.79 343.1 14.5 343.1 14.5 L 343.8 14.5 C 343.8 14.5 343 18.53 343 18.5 C 343 18.6 343 18.7 343 18.8 C 343 18.9 343 18.9 343.2 18.9 C 343.16 18.91 343.6 18.9 343.6 18.9 L 343.5 19.5 C 343.5 19.5 342.77 19.5 342.8 19.5 C 342.4 19.5 342.3 19.3 342.3 19.1 C 342.3 18.9 342.3 18.6 342.4 18.3 C 342.4 18.3 342.4 18.3 342.4 18.3 C 342.1 18.8 341.3 19.6 340.2 19.6 C 339.2 19.6 338.8 19.1 338.8 18.3 C 338.8 18.1 338.8 17.9 338.9 17.7 Z M 347.5 14.4 C 348.2 14.4 349.4 14.6 349.2 15.5 C 349.24 15.46 349.2 15.9 349.2 15.9 L 348.5 15.9 C 348.5 15.9 348.58 15.62 348.6 15.6 C 348.7 15.1 347.9 15 347.4 15 C 346.3 15 345.2 16 345.2 17.4 C 345.2 18.4 345.7 19 346.8 19 C 347.86 19 348.5 18.4 348.5 18.4 L 348.7 18.9 C 348.7 18.9 348.02 19.62 346.7 19.6 C 345.3 19.6 344.5 18.8 344.5 17.4 C 344.5 15.7 345.9 14.4 347.5 14.4 Z M 350.2 17.7 C 350.17 17.65 350.7 15 350.7 15 L 350 15 L 350.1 14.5 L 350.8 14.5 L 351.1 13.1 L 351.7 13.1 L 351.5 14.5 L 352.7 14.5 L 352.6 15 L 351.4 15 C 351.4 15 350.87 17.58 350.9 17.6 C 350.8 17.8 350.8 17.9 350.8 18.1 C 350.8 18.9 351.4 18.9 351.7 18.9 C 351.88 18.93 352 18.9 352 18.9 L 351.8 19.5 C 351.8 19.5 351.73 19.54 351.6 19.5 C 351 19.5 350.1 19.3 350.1 18.2 C 350.1 18 350.1 17.8 350.2 17.7 Z M 354.3 12.5 L 354.9 12.5 L 354.8 13.3 L 354.1 13.3 L 354.3 12.5 Z M 353.1 18.8 C 353.1 18.8 353.7 15.4 353.7 15.4 C 353.7 15.3 353.8 15.3 353.8 15.2 C 353.8 15.1 353.7 15.1 353.6 15.1 C 353.58 15.06 353.2 15.1 353.2 15.1 L 353.3 14.5 C 353.3 14.5 353.96 14.47 354 14.5 C 354.3 14.5 354.5 14.6 354.5 14.9 C 354.5 15 354.5 15.1 354.4 15.2 C 354.4 15.2 353.8 18.6 353.8 18.6 C 353.8 18.6 353.8 18.7 353.8 18.8 C 353.8 18.9 353.8 18.9 353.9 18.9 C 353.95 18.91 354.4 18.9 354.4 18.9 L 354.3 19.5 C 354.3 19.5 353.56 19.5 353.6 19.5 C 353.2 19.5 353 19.4 353 19.1 C 353 19 353 18.9 353.1 18.8 Z M 355.8 15.3 C 355.8 15.1 355.7 15.1 355.5 15.1 C 355.53 15.06 355.4 15.1 355.4 15.1 L 355.5 14.5 C 355.5 14.5 355.84 14.47 355.8 14.5 C 356.2 14.5 356.4 14.6 356.4 15 C 356.4 15 357 18.2 357 18.2 C 357.06 18.37 357.1 18.8 357.1 18.8 L 357.1 18.8 C 357.1 18.8 357.25 18.4 357.4 18.2 C 357.4 18.2 359.2 15 359.2 15 C 359.5 14.6 359.6 14.5 360.1 14.5 C 360.06 14.47 360.4 14.5 360.4 14.5 L 360.3 15.1 C 360.3 15.1 360.17 15.06 360.2 15.1 C 360 15.1 359.9 15.1 359.8 15.3 C 359.81 15.29 357.4 19.5 357.4 19.5 L 356.6 19.5 C 356.6 19.5 355.8 15.33 355.8 15.3 Z M 363.4 14.4 C 364.6 14.4 365.2 15.1 365.2 16.2 C 365.18 16.56 365 17 365 17 L 361.2 17 C 361.2 17 361.13 17.22 361.1 17.4 C 361.1 18.3 361.7 19 362.7 19 C 363.65 19.01 364.4 18.4 364.4 18.4 L 364.6 19 C 364.6 19 363.77 19.62 362.7 19.6 C 361.3 19.6 360.4 18.8 360.4 17.5 C 360.4 15.9 361.7 14.4 363.4 14.4 Z M 364.4 16.5 C 364.4 16.5 364.48 16.3 364.5 16.1 C 364.5 15.3 364 14.9 363.3 14.9 C 362.5 14.9 361.7 15.5 361.3 16.5 C 361.32 16.47 364.4 16.5 364.4 16.5 Z M 369.9 13.5 C 369.9 13.4 369.9 13.3 369.9 13.2 C 369.9 13.1 369.9 13.1 369.7 13.1 C 369.73 13.09 369.3 13.1 369.3 13.1 L 369.4 12.5 C 369.4 12.5 370.16 12.47 370.2 12.5 C 370.6 12.5 370.7 12.7 370.7 12.9 C 370.7 13 370.7 13.1 370.6 13.3 C 370.63 13.27 370.2 15.7 370.2 15.7 L 374.2 15.7 C 374.2 15.7 374.71 13.03 374.7 13 C 374.8 12.6 375 12.5 375.4 12.5 C 375.4 12.47 376.2 12.5 376.2 12.5 L 376.1 13.1 C 376.1 13.1 375.61 13.09 375.6 13.1 C 375.5 13.1 375.4 13.1 375.4 13.3 C 375.36 13.31 374.1 19.5 374.1 19.5 L 373.4 19.5 L 374.1 16.3 L 370 16.3 L 369.4 19.5 L 368.7 19.5 C 368.7 19.5 369.88 13.51 369.9 13.5 Z M 378.8 14.4 C 380 14.4 380.6 15.1 380.6 16.2 C 380.58 16.56 380.4 17 380.4 17 L 376.6 17 C 376.6 17 376.53 17.22 376.5 17.4 C 376.5 18.3 377.1 19 378.1 19 C 379.05 19.01 379.8 18.4 379.8 18.4 L 380 19 C 380 19 379.17 19.62 378.1 19.6 C 376.7 19.6 375.8 18.8 375.8 17.5 C 375.8 15.9 377.1 14.4 378.8 14.4 Z M 379.8 16.5 C 379.8 16.5 379.88 16.3 379.9 16.1 C 379.9 15.3 379.4 14.9 378.7 14.9 C 377.9 14.9 377.1 15.5 376.7 16.5 C 376.72 16.47 379.8 16.5 379.8 16.5 Z M 380.9 18.3 C 380.9 16.8 382.8 16.4 384.3 16.4 C 384.32 16.4 384.6 16.4 384.6 16.4 C 384.6 16.4 384.66 16.27 384.7 16.3 C 384.7 16.1 384.7 16 384.7 15.8 C 384.7 15.2 384.4 14.9 383.7 14.9 C 383.3 14.9 382.6 15 382.6 15.4 C 382.56 15.36 382.5 15.7 382.5 15.7 L 381.8 15.7 C 381.8 15.7 381.94 15.2 381.9 15.2 C 382.1 14.6 383.1 14.4 383.8 14.4 C 384.9 14.4 385.4 14.9 385.4 15.7 C 385.4 15.9 385.4 16.1 385.3 16.4 C 385.3 16.4 384.9 18.5 384.9 18.5 C 384.9 18.6 384.9 18.7 384.9 18.8 C 384.9 18.8 384.9 18.9 385 18.9 C 385.04 18.91 385.5 18.9 385.5 18.9 L 385.3 19.5 C 385.3 19.5 384.71 19.5 384.7 19.5 C 384.3 19.5 384.2 19.3 384.2 19.1 C 384.2 19 384.2 18.7 384.3 18.5 C 384.3 18.5 384.3 18.5 384.3 18.5 C 384.3 18.5 383.7 19.6 382.4 19.6 C 381.6 19.6 380.9 19.2 380.9 18.3 C 380.9 18.3 380.9 18.3 380.9 18.3 Z M 381.6 18.2 C 381.6 18.8 382 19.1 382.5 19.1 C 383.6 19.1 384.3 17.9 384.5 17.2 C 384.49 17.17 384.5 16.9 384.5 16.9 C 384.5 16.9 384.25 16.94 384.2 16.9 C 383.4 16.9 381.6 17.1 381.6 18.2 C 381.6 18.2 381.6 18.2 381.6 18.2 Z M 386.5 18.8 C 386.5 18.8 387.6 13.4 387.6 13.4 C 387.6 13.3 387.6 13.3 387.6 13.2 C 387.6 13.1 387.5 13.1 387.4 13.1 C 387.43 13.06 387 13.1 387 13.1 L 387.1 12.5 C 387.1 12.5 387.82 12.47 387.8 12.5 C 388.2 12.5 388.3 12.6 388.3 12.9 C 388.3 13 388.3 13.1 388.3 13.2 C 388.3 13.2 387.3 18.6 387.3 18.6 C 387.2 18.6 387.2 18.7 387.2 18.8 C 387.2 18.9 387.3 18.9 387.4 18.9 C 387.42 18.91 387.8 18.9 387.8 18.9 L 387.7 19.5 C 387.7 19.5 387.03 19.5 387 19.5 C 386.7 19.5 386.5 19.4 386.5 19.1 C 386.5 19 386.5 18.9 386.5 18.8 Z M 389.2 17.7 C 389.21 17.65 389.7 15 389.7 15 L 389.1 15 L 389.2 14.5 L 389.8 14.5 L 390.1 13.1 L 390.8 13.1 L 390.5 14.5 L 391.8 14.5 L 391.7 15 L 390.4 15 C 390.4 15 389.91 17.58 389.9 17.6 C 389.9 17.8 389.9 17.9 389.9 18.1 C 389.9 18.9 390.4 18.9 390.8 18.9 C 390.92 18.93 391 18.9 391 18.9 L 390.9 19.5 C 390.9 19.5 390.77 19.54 390.6 19.5 C 390.1 19.5 389.1 19.3 389.1 18.2 C 389.1 18 389.2 17.8 389.2 17.7 Z M 393 13.4 C 393 13.4 393.1 13.3 393.1 13.2 C 393.1 13.1 393 13.1 392.9 13.1 C 392.87 13.06 392.4 13.1 392.4 13.1 L 392.6 12.5 C 392.6 12.5 393.26 12.47 393.3 12.5 C 393.6 12.5 393.8 12.6 393.8 12.9 C 393.8 13 393.8 13.1 393.8 13.2 C 393.8 13.2 393.4 15.2 393.4 15.2 C 393.31 15.42 393.3 15.6 393.3 15.6 C 393.3 15.6 393.28 15.62 393.3 15.6 C 393.6 15.2 394.3 14.4 395.5 14.4 C 396.5 14.4 396.9 14.9 396.9 15.7 C 396.9 15.9 396.9 16.1 396.8 16.3 C 396.8 16.3 396.4 18.6 396.4 18.6 C 396.4 18.6 396.4 18.7 396.4 18.8 C 396.4 18.9 396.4 18.9 396.5 18.9 C 396.54 18.91 397 18.9 397 18.9 L 396.8 19.5 C 396.8 19.5 396.15 19.5 396.1 19.5 C 395.8 19.5 395.6 19.4 395.6 19.1 C 395.6 19 395.6 18.9 395.6 18.8 C 395.6 18.8 396.1 16.5 396.1 16.5 C 396.1 16.3 396.2 16.1 396.2 15.9 C 396.2 15.4 396 15 395.3 15 C 394.1 15 393.2 16.1 393 17.1 C 392.99 17.11 392.5 19.5 392.5 19.5 L 391.8 19.5 C 391.8 19.5 393.02 13.44 393 13.4 Z M 404.9 12.4 C 406 12.4 407.3 12.8 407.3 13.7 C 407.3 13.8 407.3 13.9 407.3 14.1 C 407.28 14.07 407.2 14.4 407.2 14.4 L 406.6 14.4 C 406.6 14.4 406.63 14.03 406.6 14 C 406.8 13.3 405.5 13 404.9 13 C 403.1 13 401.5 14.6 401.5 16.6 C 401.5 17.9 402.4 19 403.8 19 C 404.7 19 405.6 18.7 406.3 18.1 C 406.3 18.1 406.6 18.6 406.6 18.6 C 405.9 19.2 404.8 19.6 403.8 19.6 C 401.9 19.6 400.8 18.3 400.8 16.6 C 400.8 14.4 402.6 12.4 404.9 12.4 Z M 407.3 18.3 C 407.3 16.8 409.2 16.4 410.7 16.4 C 410.72 16.4 411 16.4 411 16.4 C 411 16.4 411.06 16.27 411.1 16.3 C 411.1 16.1 411.1 16 411.1 15.8 C 411.1 15.2 410.8 14.9 410.1 14.9 C 409.7 14.9 409 15 409 15.4 C 408.96 15.36 408.9 15.7 408.9 15.7 L 408.2 15.7 C 408.2 15.7 408.34 15.2 408.3 15.2 C 408.5 14.6 409.5 14.4 410.2 14.4 C 411.3 14.4 411.8 14.9 411.8 15.7 C 411.8 15.9 411.8 16.1 411.7 16.4 C 411.7 16.4 411.3 18.5 411.3 18.5 C 411.3 18.6 411.3 18.7 411.3 18.8 C 411.3 18.8 411.3 18.9 411.4 18.9 C 411.44 18.91 411.9 18.9 411.9 18.9 L 411.7 19.5 C 411.7 19.5 411.11 19.5 411.1 19.5 C 410.7 19.5 410.6 19.3 410.6 19.1 C 410.6 19 410.6 18.7 410.7 18.5 C 410.7 18.5 410.7 18.5 410.7 18.5 C 410.7 18.5 410.1 19.6 408.8 19.6 C 408 19.6 407.3 19.2 407.3 18.3 C 407.3 18.3 407.3 18.3 407.3 18.3 Z M 408 18.2 C 408 18.8 408.4 19.1 408.9 19.1 C 410 19.1 410.7 17.9 410.9 17.2 C 410.89 17.17 410.9 16.9 410.9 16.9 C 410.9 16.9 410.65 16.94 410.6 16.9 C 409.8 16.9 408 17.1 408 18.2 C 408 18.2 408 18.2 408 18.2 Z M 413.6 15.3 C 413.6 15.2 413.6 15.1 413.4 15.1 C 413.41 15.06 413 15.1 413 15.1 L 413.1 14.5 C 413.1 14.5 413.81 14.47 413.8 14.5 C 414.2 14.5 414.3 14.6 414.3 14.9 C 414.3 15 414.2 15.6 414.1 15.8 C 414.1 15.8 414.1 15.8 414.1 15.8 C 414.5 15.1 415.2 14.4 416 14.4 C 416.1 14.4 416.2 14.4 416.3 14.5 C 416.3 14.5 416.1 15.1 416.1 15.1 C 416.1 15.1 416 15.1 415.9 15.1 C 414.8 15.1 414 16.4 413.8 17.6 C 413.83 17.58 413.5 19.5 413.5 19.5 L 412.8 19.5 C 412.8 19.5 413.59 15.28 413.6 15.3 Z M 419.1 14.4 C 420.4 14.4 420.9 15.1 420.9 16.2 C 420.95 16.56 420.8 17 420.8 17 L 416.9 17 C 416.9 17 416.9 17.22 416.9 17.4 C 416.9 18.3 417.4 19 418.5 19 C 419.42 19.01 420.1 18.4 420.1 18.4 L 420.4 19 C 420.4 19 419.54 19.62 418.5 19.6 C 417.1 19.6 416.2 18.8 416.2 17.5 C 416.2 15.9 417.4 14.4 419.1 14.4 Z M 420.2 16.5 C 420.2 16.5 420.25 16.3 420.2 16.1 C 420.2 15.3 419.8 14.9 419.1 14.9 C 418.3 14.9 417.4 15.5 417.1 16.5 C 417.09 16.47 420.2 16.5 420.2 16.5 Z M 421.6 18.7 L 422.3 18.7 L 422.2 19.5 L 421.4 19.5 L 421.6 18.7 Z " stroke="none" fill="#000"/>  </g>  <g id="Polygon76288">    <path d="M 11.3 0.4 C 12.4 0.4 13.7 0.8 13.7 1.7 C 13.7 1.8 13.7 1.9 13.7 2.1 C 13.69 2.07 13.6 2.4 13.6 2.4 L 13 2.4 C 13 2.4 13.04 2.03 13 2 C 13.2 1.3 12 1 11.3 1 C 9.5 1 7.9 2.6 7.9 4.6 C 7.9 5.9 8.8 7 10.2 7 C 11.1 7 12 6.7 12.7 6.1 C 12.7 6.1 13 6.6 13 6.6 C 12.3 7.2 11.2 7.6 10.2 7.6 C 8.3 7.6 7.2 6.3 7.2 4.6 C 7.2 2.4 9 0.4 11.3 0.4 Z M 15.4 0.5 L 16 0.5 L 15.9 1.3 L 15.2 1.3 L 15.4 0.5 Z M 14.2 6.8 C 14.2 6.8 14.8 3.4 14.8 3.4 C 14.9 3.3 14.9 3.3 14.9 3.2 C 14.9 3.1 14.8 3.1 14.7 3.1 C 14.69 3.06 14.3 3.1 14.3 3.1 L 14.4 2.5 C 14.4 2.5 15.07 2.47 15.1 2.5 C 15.4 2.5 15.6 2.6 15.6 2.9 C 15.6 3 15.6 3.1 15.6 3.2 C 15.6 3.2 14.9 6.6 14.9 6.6 C 14.9 6.6 14.9 6.7 14.9 6.8 C 14.9 6.9 14.9 6.9 15.1 6.9 C 15.06 6.91 15.5 6.9 15.5 6.9 L 15.4 7.5 C 15.4 7.5 14.67 7.5 14.7 7.5 C 14.3 7.5 14.1 7.4 14.1 7.1 C 14.1 7 14.2 6.9 14.2 6.8 Z M 16.8 5.7 C 16.83 5.65 17.3 3 17.3 3 L 16.7 3 L 16.8 2.5 L 17.5 2.5 L 17.7 1.1 L 18.4 1.1 L 18.1 2.5 L 19.4 2.5 L 19.3 3 L 18 3 C 18 3 17.53 5.58 17.5 5.6 C 17.5 5.8 17.5 5.9 17.5 6.1 C 17.5 6.9 18.1 6.9 18.4 6.9 C 18.54 6.93 18.6 6.9 18.6 6.9 L 18.5 7.5 C 18.5 7.5 18.39 7.54 18.2 7.5 C 17.7 7.5 16.8 7.3 16.8 6.2 C 16.8 6 16.8 5.8 16.8 5.7 Z M 19.3 6.3 C 19.3 4.8 21.1 4.4 22.7 4.4 C 22.68 4.4 23 4.4 23 4.4 C 23 4.4 23.02 4.27 23 4.3 C 23 4.1 23.1 4 23.1 3.8 C 23.1 3.2 22.7 2.9 22 2.9 C 21.7 2.9 21 3 20.9 3.4 C 20.92 3.36 20.9 3.7 20.9 3.7 L 20.2 3.7 C 20.2 3.7 20.3 3.2 20.3 3.2 C 20.4 2.6 21.4 2.4 22.1 2.4 C 23.3 2.4 23.7 2.9 23.7 3.7 C 23.7 3.9 23.7 4.1 23.7 4.4 C 23.7 4.4 23.3 6.5 23.3 6.5 C 23.2 6.6 23.2 6.7 23.2 6.8 C 23.2 6.8 23.3 6.9 23.4 6.9 C 23.4 6.91 23.8 6.9 23.8 6.9 L 23.7 7.5 C 23.7 7.5 23.07 7.5 23.1 7.5 C 22.7 7.5 22.5 7.3 22.5 7.1 C 22.5 7 22.6 6.7 22.6 6.5 C 22.6 6.5 22.6 6.5 22.6 6.5 C 22.6 6.5 22 7.6 20.7 7.6 C 20 7.6 19.3 7.2 19.3 6.3 C 19.3 6.3 19.3 6.3 19.3 6.3 Z M 20 6.2 C 20 6.8 20.3 7.1 20.9 7.1 C 21.9 7.1 22.7 5.9 22.8 5.2 C 22.85 5.17 22.9 4.9 22.9 4.9 C 22.9 4.9 22.61 4.94 22.6 4.9 C 21.8 4.9 20 5.1 20 6.2 C 20 6.2 20 6.2 20 6.2 Z M 23 0.5 L 23.8 0.5 L 22.7 1.7 L 22.1 1.7 L 23 0.5 Z M 27.7 2.4 C 28.4 2.4 29.6 2.6 29.4 3.5 C 29.45 3.46 29.4 3.9 29.4 3.9 L 28.7 3.9 C 28.7 3.9 28.79 3.62 28.8 3.6 C 28.9 3.1 28.1 3 27.7 3 C 26.5 3 25.4 4 25.4 5.4 C 25.4 6.4 26 7 27 7 C 28.07 7 28.7 6.4 28.7 6.4 L 28.9 6.9 C 28.9 6.9 28.23 7.62 26.9 7.6 C 25.5 7.6 24.7 6.8 24.7 5.4 C 24.7 3.7 26.1 2.4 27.7 2.4 Z M 31.3 0.5 L 32 0.5 L 31.8 1.3 L 31.2 1.3 L 31.3 0.5 Z M 30.1 6.8 C 30.1 6.8 30.8 3.4 30.8 3.4 C 30.8 3.3 30.8 3.3 30.8 3.2 C 30.8 3.1 30.7 3.1 30.6 3.1 C 30.63 3.06 30.2 3.1 30.2 3.1 L 30.3 2.5 C 30.3 2.5 31.01 2.47 31 2.5 C 31.4 2.5 31.5 2.6 31.5 2.9 C 31.5 3 31.5 3.1 31.5 3.2 C 31.5 3.2 30.8 6.6 30.8 6.6 C 30.8 6.6 30.8 6.7 30.8 6.8 C 30.8 6.9 30.9 6.9 31 6.9 C 31 6.91 31.4 6.9 31.4 6.9 L 31.3 7.5 C 31.3 7.5 30.61 7.5 30.6 7.5 C 30.3 7.5 30.1 7.4 30.1 7.1 C 30.1 7 30.1 6.9 30.1 6.8 Z M 32.1 6.3 C 32.1 4.8 34 4.4 35.5 4.4 C 35.53 4.4 35.8 4.4 35.8 4.4 C 35.8 4.4 35.87 4.27 35.9 4.3 C 35.9 4.1 35.9 4 35.9 3.8 C 35.9 3.2 35.6 2.9 34.9 2.9 C 34.5 2.9 33.8 3 33.8 3.4 C 33.77 3.36 33.7 3.7 33.7 3.7 L 33.1 3.7 C 33.1 3.7 33.15 3.2 33.1 3.2 C 33.3 2.6 34.3 2.4 35 2.4 C 36.1 2.4 36.6 2.9 36.6 3.7 C 36.6 3.9 36.6 4.1 36.5 4.4 C 36.5 4.4 36.1 6.5 36.1 6.5 C 36.1 6.6 36.1 6.7 36.1 6.8 C 36.1 6.8 36.1 6.9 36.2 6.9 C 36.25 6.91 36.7 6.9 36.7 6.9 L 36.6 7.5 C 36.6 7.5 35.92 7.5 35.9 7.5 C 35.5 7.5 35.4 7.3 35.4 7.1 C 35.4 7 35.4 6.7 35.5 6.5 C 35.5 6.5 35.5 6.5 35.5 6.5 C 35.5 6.5 34.9 7.6 33.6 7.6 C 32.8 7.6 32.1 7.2 32.1 6.3 C 32.1 6.3 32.1 6.3 32.1 6.3 Z M 32.8 6.2 C 32.8 6.8 33.2 7.1 33.7 7.1 C 34.8 7.1 35.6 5.9 35.7 5.2 C 35.7 5.17 35.7 4.9 35.7 4.9 C 35.7 4.9 35.46 4.94 35.5 4.9 C 34.6 4.9 32.8 5.1 32.8 6.2 C 32.8 6.2 32.8 6.2 32.8 6.2 Z M 38.4 2.5 L 39.2 2.5 L 39 3.3 L 38.2 3.3 L 38.4 2.5 Z M 37.6 6.7 L 38.3 6.7 L 38.2 7.5 L 37.4 7.5 L 37.6 6.7 Z M 46.9 0.4 C 48.37 0.35 49.1 1.2 49.1 1.2 L 48.7 1.7 C 48.7 1.7 48.08 1.01 46.8 1 C 45 1 43.3 2.7 43.3 4.6 C 43.3 6 44.2 7 45.6 7 C 47 7 48 5.9 48 5.9 C 48 5.9 48.2 5.2 48.2 5.2 C 48.2 5.1 48.2 5 48.2 5 C 48.2 4.9 48.2 4.8 48 4.8 C 48.03 4.82 47.6 4.8 47.6 4.8 L 47.7 4.2 C 47.7 4.2 48.4 4.22 48.4 4.2 C 48.8 4.2 48.9 4.4 48.9 4.6 C 48.9 4.7 48.9 4.9 48.9 5 C 48.87 5.02 48.4 7.5 48.4 7.5 L 47.7 7.5 C 47.7 7.5 47.85 6.96 47.8 7 C 47.87 6.87 47.9 6.7 47.9 6.7 C 47.9 6.7 47.9 6.67 47.9 6.7 C 47.5 7.1 46.6 7.6 45.5 7.6 C 43.7 7.6 42.6 6.4 42.6 4.6 C 42.6 2.4 44.5 0.4 46.9 0.4 Z M 52.6 2.4 C 53.8 2.4 54.4 3.1 54.4 4.2 C 54.42 4.56 54.3 5 54.3 5 L 50.4 5 C 50.4 5 50.37 5.22 50.4 5.4 C 50.4 6.3 50.9 7 52 7 C 52.89 7.01 53.6 6.4 53.6 6.4 L 53.8 7 C 53.8 7 53.01 7.62 51.9 7.6 C 50.6 7.6 49.7 6.8 49.7 5.5 C 49.7 3.9 50.9 2.4 52.6 2.4 Z M 53.7 4.5 C 53.7 4.5 53.72 4.3 53.7 4.1 C 53.7 3.3 53.2 2.9 52.6 2.9 C 51.7 2.9 50.9 3.5 50.6 4.5 C 50.56 4.47 53.7 4.5 53.7 4.5 Z M 55.8 3.4 C 55.9 3.4 55.9 3.3 55.9 3.2 C 55.9 3.1 55.8 3.1 55.7 3.1 C 55.69 3.06 55.3 3.1 55.3 3.1 L 55.4 2.5 C 55.4 2.5 56.08 2.47 56.1 2.5 C 56.4 2.5 56.6 2.6 56.6 2.9 C 56.6 3.1 56.5 3.4 56.5 3.6 C 56.5 3.6 56.5 3.6 56.5 3.6 C 56.8 3.2 57.5 2.4 58.7 2.4 C 59.7 2.4 60.1 2.9 60.1 3.7 C 60.1 3.9 60.1 4.1 60 4.3 C 60 4.3 59.6 6.6 59.6 6.6 C 59.6 6.6 59.6 6.7 59.6 6.8 C 59.6 6.9 59.6 6.9 59.8 6.9 C 59.76 6.91 60.2 6.9 60.2 6.9 L 60.1 7.5 C 60.1 7.5 59.37 7.5 59.4 7.5 C 59 7.5 58.8 7.4 58.8 7.1 C 58.8 7 58.9 6.9 58.9 6.8 C 58.9 6.8 59.3 4.5 59.3 4.5 C 59.4 4.3 59.4 4.1 59.4 3.9 C 59.4 3.4 59.2 3 58.5 3 C 57.4 3 56.4 4.1 56.2 5.1 C 56.21 5.11 55.7 7.5 55.7 7.5 L 55.1 7.5 C 55.1 7.5 55.85 3.45 55.8 3.4 Z M 61.1 5.6 C 61.1 3.7 62.4 2.4 63.8 2.4 C 64.6 2.4 65.2 2.7 65.4 3.4 C 65.4 3.37 65.4 3.4 65.4 3.4 C 65.4 3.4 65.43 3.16 65.5 2.9 C 65.5 2.9 65.8 1.4 65.8 1.4 C 65.8 1.3 65.8 1.3 65.8 1.2 C 65.8 1.1 65.7 1.1 65.6 1.1 C 65.61 1.06 65.2 1.1 65.2 1.1 L 65.3 0.5 C 65.3 0.5 66 0.47 66 0.5 C 66.4 0.5 66.5 0.6 66.5 0.9 C 66.5 1 66.5 1.1 66.5 1.2 C 66.5 1.2 65.4 6.5 65.4 6.5 C 65.4 6.6 65.4 6.7 65.4 6.8 C 65.4 6.8 65.5 6.9 65.6 6.9 C 65.59 6.91 66 6.9 66 6.9 L 65.9 7.5 C 65.9 7.5 65.26 7.5 65.3 7.5 C 64.9 7.5 64.7 7.3 64.7 7.1 C 64.7 7 64.8 6.7 64.8 6.6 C 64.8 6.6 64.8 6.6 64.8 6.6 C 64.5 7.1 63.8 7.6 63 7.6 C 61.8 7.6 61.1 6.8 61.1 5.6 C 61.1 5.6 61.1 5.6 61.1 5.6 Z M 61.8 5.6 C 61.8 6.5 62.3 7 63.1 7 C 64.3 7 65.1 5.6 65.1 4.4 C 65.1 3.6 64.8 3 63.9 3 C 62.9 3 61.8 3.9 61.8 5.6 C 61.8 5.6 61.8 5.6 61.8 5.6 Z M 69.9 2.4 C 71.1 2.4 71.7 3.1 71.7 4.2 C 71.68 4.56 71.5 5 71.5 5 L 67.7 5 C 67.7 5 67.63 5.22 67.6 5.4 C 67.6 6.3 68.2 7 69.2 7 C 70.15 7.01 70.9 6.4 70.9 6.4 L 71.1 7 C 71.1 7 70.27 7.62 69.2 7.6 C 67.8 7.6 66.9 6.8 66.9 5.5 C 66.9 3.9 68.2 2.4 69.9 2.4 Z M 70.9 4.5 C 70.9 4.5 70.98 4.3 71 4.1 C 71 3.3 70.5 2.9 69.8 2.9 C 69 2.9 68.2 3.5 67.8 4.5 C 67.82 4.47 70.9 4.5 70.9 4.5 Z M 72.4 6.8 C 72.4 6.8 73.5 1.4 73.5 1.4 C 73.5 1.3 73.5 1.3 73.5 1.2 C 73.5 1.1 73.5 1.1 73.3 1.1 C 73.34 1.06 72.9 1.1 72.9 1.1 L 73 0.5 C 73 0.5 73.73 0.47 73.7 0.5 C 74.1 0.5 74.3 0.6 74.3 0.9 C 74.3 1 74.2 1.1 74.2 1.2 C 74.2 1.2 73.2 6.6 73.2 6.6 C 73.2 6.6 73.1 6.7 73.1 6.8 C 73.1 6.9 73.2 6.9 73.3 6.9 C 73.33 6.91 73.7 6.9 73.7 6.9 L 73.6 7.5 C 73.6 7.5 72.94 7.5 72.9 7.5 C 72.6 7.5 72.4 7.4 72.4 7.1 C 72.4 7 72.4 6.9 72.4 6.8 Z M 75.2 4.4 L 78 4.4 L 77.9 5 L 75.1 5 L 75.2 4.4 Z M 79.3 6.7 C 79.29 6.72 80.4 1.1 80.4 1.1 L 79.7 1.1 L 79.9 0.5 C 79.9 0.5 82.61 0.47 82.6 0.5 C 84.5 0.5 85.6 1.4 85.6 3.3 C 85.6 5.5 83.9 7.5 81.4 7.5 C 81.4 7.5 79.8 7.5 79.8 7.5 C 79.4 7.5 79.2 7.3 79.2 7.1 C 79.2 7 79.3 6.9 79.3 6.7 Z M 80.2 6.9 C 80.2 6.9 81.4 6.9 81.4 6.9 C 83.6 6.9 84.9 5.2 84.9 3.3 C 84.9 1.8 84 1.1 82.5 1.1 C 82.49 1.09 81.1 1.1 81.1 1.1 C 81.1 1.1 80.03 6.5 80 6.5 C 80 6.6 80 6.7 80 6.7 C 80 6.8 80 6.9 80.2 6.9 Z M 85.9 6.3 C 85.9 4.8 87.7 4.4 89.3 4.4 C 89.27 4.4 89.6 4.4 89.6 4.4 C 89.6 4.4 89.61 4.27 89.6 4.3 C 89.6 4.1 89.7 4 89.7 3.8 C 89.7 3.2 89.3 2.9 88.6 2.9 C 88.3 2.9 87.6 3 87.5 3.4 C 87.51 3.36 87.5 3.7 87.5 3.7 L 86.8 3.7 C 86.8 3.7 86.89 3.2 86.9 3.2 C 87 2.6 88 2.4 88.7 2.4 C 89.8 2.4 90.3 2.9 90.3 3.7 C 90.3 3.9 90.3 4.1 90.3 4.4 C 90.3 4.4 89.8 6.5 89.8 6.5 C 89.8 6.6 89.8 6.7 89.8 6.8 C 89.8 6.8 89.9 6.9 90 6.9 C 89.99 6.91 90.4 6.9 90.4 6.9 L 90.3 7.5 C 90.3 7.5 89.66 7.5 89.7 7.5 C 89.3 7.5 89.1 7.3 89.1 7.1 C 89.1 7 89.2 6.7 89.2 6.5 C 89.2 6.5 89.2 6.5 89.2 6.5 C 89.2 6.5 88.6 7.6 87.3 7.6 C 86.6 7.6 85.9 7.2 85.9 6.3 C 85.9 6.3 85.9 6.3 85.9 6.3 Z M 86.6 6.2 C 86.6 6.8 86.9 7.1 87.5 7.1 C 88.5 7.1 89.3 5.9 89.4 5.2 C 89.44 5.17 89.5 4.9 89.5 4.9 C 89.5 4.9 89.2 4.94 89.2 4.9 C 88.3 4.9 86.6 5.1 86.6 6.2 C 86.6 6.2 86.6 6.2 86.6 6.2 Z M 92.1 3.4 C 92.1 3.4 92.1 3.3 92.1 3.2 C 92.1 3.1 92.1 3.1 91.9 3.1 C 91.95 3.06 91.5 3.1 91.5 3.1 L 91.7 2.5 C 91.7 2.5 92.34 2.47 92.3 2.5 C 92.7 2.5 92.9 2.6 92.9 2.9 C 92.9 3.1 92.8 3.4 92.7 3.6 C 92.7 3.6 92.7 3.6 92.7 3.6 C 93 3.2 93.8 2.4 94.9 2.4 C 95.9 2.4 96.4 2.9 96.4 3.7 C 96.4 3.9 96.3 4.1 96.3 4.3 C 96.3 4.3 95.9 6.6 95.9 6.6 C 95.8 6.6 95.8 6.7 95.8 6.8 C 95.8 6.9 95.9 6.9 96 6.9 C 96.02 6.91 96.4 6.9 96.4 6.9 L 96.3 7.5 C 96.3 7.5 95.63 7.5 95.6 7.5 C 95.3 7.5 95.1 7.4 95.1 7.1 C 95.1 7 95.1 6.9 95.1 6.8 C 95.1 6.8 95.6 4.5 95.6 4.5 C 95.6 4.3 95.7 4.1 95.7 3.9 C 95.7 3.4 95.5 3 94.8 3 C 93.6 3 92.7 4.1 92.5 5.1 C 92.47 5.11 92 7.5 92 7.5 L 91.3 7.5 C 91.3 7.5 92.11 3.45 92.1 3.4 Z M 98.7 0.5 L 99.4 0.5 L 99.2 1.3 L 98.5 1.3 L 98.7 0.5 Z M 97.5 6.8 C 97.5 6.8 98.1 3.4 98.1 3.4 C 98.2 3.3 98.2 3.3 98.2 3.2 C 98.2 3.1 98.1 3.1 98 3.1 C 98 3.06 97.6 3.1 97.6 3.1 L 97.7 2.5 C 97.7 2.5 98.38 2.47 98.4 2.5 C 98.7 2.5 98.9 2.6 98.9 2.9 C 98.9 3 98.9 3.1 98.9 3.2 C 98.9 3.2 98.2 6.6 98.2 6.6 C 98.2 6.6 98.2 6.7 98.2 6.8 C 98.2 6.9 98.2 6.9 98.4 6.9 C 98.37 6.91 98.8 6.9 98.8 6.9 L 98.7 7.5 C 98.7 7.5 97.98 7.5 98 7.5 C 97.6 7.5 97.5 7.4 97.5 7.1 C 97.5 7 97.5 6.9 97.5 6.8 Z M 102.7 2.4 C 103.9 2.4 104.5 3.1 104.5 4.2 C 104.47 4.56 104.3 5 104.3 5 L 100.5 5 C 100.5 5 100.42 5.22 100.4 5.4 C 100.4 6.3 101 7 102 7 C 102.94 7.01 103.7 6.4 103.7 6.4 L 103.9 7 C 103.9 7 103.06 7.62 102 7.6 C 100.6 7.6 99.7 6.8 99.7 5.5 C 99.7 3.9 101 2.4 102.7 2.4 Z M 103.7 4.5 C 103.7 4.5 103.77 4.3 103.8 4.1 C 103.8 3.3 103.3 2.9 102.6 2.9 C 101.8 2.9 101 3.5 100.6 4.5 C 100.61 4.47 103.7 4.5 103.7 4.5 Z M 105.2 6.8 C 105.2 6.8 106.3 1.4 106.3 1.4 C 106.3 1.3 106.3 1.3 106.3 1.2 C 106.3 1.1 106.2 1.1 106.1 1.1 C 106.13 1.06 105.7 1.1 105.7 1.1 L 105.8 0.5 C 105.8 0.5 106.52 0.47 106.5 0.5 C 106.9 0.5 107 0.6 107 0.9 C 107 1 107 1.1 107 1.2 C 107 1.2 106 6.6 106 6.6 C 105.9 6.6 105.9 6.7 105.9 6.8 C 105.9 6.9 106 6.9 106.1 6.9 C 106.12 6.91 106.5 6.9 106.5 6.9 L 106.4 7.5 C 106.4 7.5 105.73 7.5 105.7 7.5 C 105.4 7.5 105.2 7.4 105.2 7.1 C 105.2 7 105.2 6.9 105.2 6.8 Z M 107.5 6.3 C 107.5 6.3 108.03 7.03 109.1 7 C 109.7 7 110.3 6.7 110.3 6.2 C 110.3 5.7 109.8 5.5 109.3 5.3 C 108.6 5 107.9 4.7 107.9 3.8 C 107.9 2.9 108.7 2.4 109.7 2.4 C 110.5 2.4 111.5 2.6 111.3 3.4 C 111.32 3.37 111.3 3.7 111.3 3.7 L 110.6 3.7 C 110.6 3.7 110.67 3.48 110.7 3.5 C 110.7 3.2 110.4 2.9 109.7 2.9 C 109 2.9 108.6 3.3 108.6 3.7 C 108.6 4.3 109.1 4.5 109.6 4.7 C 110.3 5 111 5.3 111 6.1 C 111 7 110.2 7.6 109.1 7.6 C 107.71 7.62 107.2 6.8 107.2 6.8 L 107.5 6.3 Z M 111.9 6.3 C 111.9 6.3 112.43 7.03 113.5 7 C 114.1 7 114.7 6.7 114.7 6.2 C 114.7 5.7 114.2 5.5 113.7 5.3 C 113 5 112.3 4.7 112.3 3.8 C 112.3 2.9 113.1 2.4 114.1 2.4 C 114.9 2.4 115.9 2.6 115.7 3.4 C 115.72 3.37 115.7 3.7 115.7 3.7 L 115 3.7 C 115 3.7 115.07 3.48 115.1 3.5 C 115.1 3.2 114.8 2.9 114.1 2.9 C 113.4 2.9 113 3.3 113 3.7 C 113 4.3 113.5 4.5 114 4.7 C 114.7 5 115.4 5.3 115.4 6.1 C 115.4 7 114.6 7.6 113.5 7.6 C 112.11 7.62 111.6 6.8 111.6 6.8 L 111.9 6.3 Z M 119.5 2.4 C 120.8 2.4 121.7 3.2 121.7 4.5 C 121.7 6.3 120.2 7.6 118.6 7.6 C 117.2 7.6 116.3 6.7 116.3 5.4 C 116.3 3.7 117.8 2.4 119.5 2.4 Z M 118.6 7 C 119.8 7 121 5.9 121 4.5 C 121 3.6 120.3 3 119.4 3 C 118.2 3 117 4 117 5.4 C 117 6.3 117.7 7 118.6 7 Z M 123.2 3.4 C 123.2 3.4 123.2 3.3 123.2 3.2 C 123.2 3.1 123.1 3.1 123 3.1 C 123.01 3.06 122.6 3.1 122.6 3.1 L 122.7 2.5 C 122.7 2.5 123.4 2.47 123.4 2.5 C 123.8 2.5 123.9 2.6 123.9 2.9 C 123.9 3.1 123.8 3.4 123.8 3.6 C 123.8 3.6 123.8 3.6 123.8 3.6 C 124.1 3.2 124.8 2.4 126 2.4 C 127 2.4 127.4 2.9 127.4 3.7 C 127.4 3.9 127.4 4.1 127.4 4.3 C 127.4 4.3 126.9 6.6 126.9 6.6 C 126.9 6.6 126.9 6.7 126.9 6.8 C 126.9 6.9 127 6.9 127.1 6.9 C 127.08 6.91 127.5 6.9 127.5 6.9 L 127.4 7.5 C 127.4 7.5 126.69 7.5 126.7 7.5 C 126.3 7.5 126.2 7.4 126.2 7.1 C 126.2 7 126.2 6.9 126.2 6.8 C 126.2 6.8 126.7 4.5 126.7 4.5 C 126.7 4.3 126.7 4.1 126.7 3.9 C 126.7 3.4 126.5 3 125.8 3 C 124.7 3 123.7 4.1 123.5 5.1 C 123.53 5.11 123.1 7.5 123.1 7.5 L 122.4 7.5 C 122.4 7.5 123.17 3.45 123.2 3.4 Z M 128.4 6.7 L 129.2 6.7 L 129.1 7.5 L 128.3 7.5 L 128.4 6.7 Z M 132.7 6.9 C 132.7 6.9 132.92 6.88 132.9 6.9 C 133.1 6.9 133.2 6.9 133.3 6.7 C 133.26 6.66 136.8 0.5 136.8 0.5 L 137.5 0.5 C 137.5 0.5 138.62 6.69 138.6 6.7 C 138.7 6.9 138.7 6.9 138.9 6.9 C 138.87 6.88 139.1 6.9 139.1 6.9 L 138.9 7.5 C 138.9 7.5 138.5 7.5 138.5 7.5 C 138.1 7.5 138 7.4 137.9 6.9 C 137.92 6.92 137.6 5.3 137.6 5.3 L 134.8 5.3 C 134.8 5.3 133.9 6.92 133.9 6.9 C 133.6 7.4 133.5 7.5 133.1 7.5 C 133.08 7.5 132.6 7.5 132.6 7.5 L 132.7 6.9 Z M 137.6 4.7 C 137.6 4.7 137.11 2.14 137.1 2.1 C 137.06 1.81 137 1.2 137 1.2 L 137 1.2 C 137 1.2 136.74 1.81 136.6 2.1 C 136.55 2.14 135.2 4.7 135.2 4.7 L 137.6 4.7 Z M 143.4 3.4 C 143.4 3.4 143.4 3.3 143.4 3.2 C 143.4 3.1 143.3 3.1 143.2 3.1 C 143.21 3.06 142.8 3.1 142.8 3.1 L 142.9 2.5 C 142.9 2.5 143.6 2.47 143.6 2.5 C 144 2.5 144.1 2.6 144.1 2.9 C 144.1 3.1 144 3.4 144 3.6 C 144 3.6 144 3.6 144 3.6 C 144.3 3.2 145 2.4 146.2 2.4 C 147.2 2.4 147.6 2.9 147.6 3.7 C 147.6 3.9 147.6 4.1 147.6 4.3 C 147.6 4.3 147.1 6.6 147.1 6.6 C 147.1 6.6 147.1 6.7 147.1 6.8 C 147.1 6.9 147.2 6.9 147.3 6.9 C 147.28 6.91 147.7 6.9 147.7 6.9 L 147.6 7.5 C 147.6 7.5 146.89 7.5 146.9 7.5 C 146.5 7.5 146.4 7.4 146.4 7.1 C 146.4 7 146.4 6.9 146.4 6.8 C 146.4 6.8 146.9 4.5 146.9 4.5 C 146.9 4.3 146.9 4.1 146.9 3.9 C 146.9 3.4 146.7 3 146 3 C 144.9 3 143.9 4.1 143.7 5.1 C 143.73 5.11 143.3 7.5 143.3 7.5 L 142.6 7.5 C 142.6 7.5 143.37 3.45 143.4 3.4 Z M 151.7 2.4 C 153.1 2.4 154 3.2 154 4.5 C 154 6.3 152.4 7.6 150.8 7.6 C 149.5 7.6 148.6 6.7 148.6 5.4 C 148.6 3.7 150.1 2.4 151.7 2.4 Z M 150.9 7 C 152.1 7 153.3 5.9 153.3 4.5 C 153.3 3.6 152.6 3 151.7 3 C 150.5 3 149.3 4 149.3 5.4 C 149.3 6.3 149.9 7 150.9 7 Z M 155.1 3.3 C 155 3.1 155 3.1 154.8 3.1 C 154.8 3.06 154.7 3.1 154.7 3.1 L 154.8 2.5 C 154.8 2.5 155.11 2.47 155.1 2.5 C 155.5 2.5 155.6 2.6 155.7 3 C 155.7 3 156.3 6.2 156.3 6.2 C 156.33 6.37 156.4 6.8 156.4 6.8 L 156.4 6.8 C 156.4 6.8 156.52 6.4 156.7 6.2 C 156.7 6.2 158.5 3 158.5 3 C 158.7 2.6 158.9 2.5 159.3 2.5 C 159.33 2.47 159.7 2.5 159.7 2.5 L 159.6 3.1 C 159.6 3.1 159.44 3.06 159.4 3.1 C 159.3 3.1 159.2 3.1 159.1 3.3 C 159.08 3.29 156.6 7.5 156.6 7.5 L 155.9 7.5 C 155.9 7.5 155.07 3.33 155.1 3.3 Z M 162.6 2.4 C 163.9 2.4 164.5 3.1 164.5 4.2 C 164.45 4.56 164.3 5 164.3 5 L 160.5 5 C 160.5 5 160.4 5.22 160.4 5.4 C 160.4 6.3 161 7 162 7 C 162.92 7.01 163.7 6.4 163.7 6.4 L 163.9 7 C 163.9 7 163.04 7.62 162 7.6 C 160.6 7.6 159.7 6.8 159.7 5.5 C 159.7 3.9 160.9 2.4 162.6 2.4 Z M 163.7 4.5 C 163.7 4.5 163.75 4.3 163.8 4.1 C 163.8 3.3 163.3 2.9 162.6 2.9 C 161.8 2.9 161 3.5 160.6 4.5 C 160.59 4.47 163.7 4.5 163.7 4.5 Z M 165.2 6.8 C 165.2 6.8 166.3 1.4 166.3 1.4 C 166.3 1.3 166.3 1.3 166.3 1.2 C 166.3 1.1 166.2 1.1 166.1 1.1 C 166.11 1.06 165.7 1.1 165.7 1.1 L 165.8 0.5 C 165.8 0.5 166.5 0.47 166.5 0.5 C 166.9 0.5 167 0.6 167 0.9 C 167 1 167 1.1 167 1.2 C 167 1.2 165.9 6.6 165.9 6.6 C 165.9 6.6 165.9 6.7 165.9 6.8 C 165.9 6.9 166 6.9 166.1 6.9 C 166.1 6.91 166.5 6.9 166.5 6.9 L 166.4 7.5 C 166.4 7.5 165.71 7.5 165.7 7.5 C 165.4 7.5 165.2 7.4 165.2 7.1 C 165.2 7 165.2 6.9 165.2 6.8 Z M 173.2 2.4 C 174.4 2.4 175 3.1 175 4.2 C 174.96 4.56 174.8 5 174.8 5 L 171 5 C 171 5 170.91 5.22 170.9 5.4 C 170.9 6.3 171.5 7 172.5 7 C 173.43 7.01 174.2 6.4 174.2 6.4 L 174.4 7 C 174.4 7 173.55 7.62 172.5 7.6 C 171.1 7.6 170.2 6.8 170.2 5.5 C 170.2 3.9 171.5 2.4 173.2 2.4 Z M 174.2 4.5 C 174.2 4.5 174.26 4.3 174.3 4.1 C 174.3 3.3 173.8 2.9 173.1 2.9 C 172.3 2.9 171.5 3.5 171.1 4.5 C 171.1 4.47 174.2 4.5 174.2 4.5 Z M 175.6 6.3 C 175.6 6.3 176.08 7.03 177.1 7 C 177.8 7 178.3 6.7 178.3 6.2 C 178.3 5.7 177.9 5.5 177.3 5.3 C 176.7 5 176 4.7 176 3.8 C 176 2.9 176.8 2.4 177.8 2.4 C 178.5 2.4 179.5 2.6 179.4 3.4 C 179.37 3.37 179.3 3.7 179.3 3.7 L 178.7 3.7 C 178.7 3.7 178.72 3.48 178.7 3.5 C 178.8 3.2 178.4 2.9 177.8 2.9 C 177.1 2.9 176.6 3.3 176.6 3.7 C 176.6 4.3 177.2 4.5 177.7 4.7 C 178.4 5 179 5.3 179 6.1 C 179 7 178.3 7.6 177.1 7.6 C 175.76 7.62 175.2 6.8 175.2 6.8 L 175.6 6.3 Z M 180.4 5.7 C 180.41 5.65 180.9 3 180.9 3 L 180.3 3 L 180.4 2.5 L 181 2.5 L 181.3 1.1 L 182 1.1 L 181.7 2.5 L 183 2.5 L 182.9 3 L 181.6 3 C 181.6 3 181.11 5.58 181.1 5.6 C 181.1 5.8 181.1 5.9 181.1 6.1 C 181.1 6.9 181.6 6.9 182 6.9 C 182.12 6.93 182.2 6.9 182.2 6.9 L 182.1 7.5 C 182.1 7.5 181.97 7.54 181.8 7.5 C 181.3 7.5 180.4 7.3 180.4 6.2 C 180.4 6 180.4 5.8 180.4 5.7 Z M 186.1 2.4 C 187.3 2.4 187.9 3.1 187.9 4.2 C 187.87 4.56 187.7 5 187.7 5 L 183.9 5 C 183.9 5 183.82 5.22 183.8 5.4 C 183.8 6.3 184.4 7 185.4 7 C 186.34 7.01 187.1 6.4 187.1 6.4 L 187.3 7 C 187.3 7 186.46 7.62 185.4 7.6 C 184 7.6 183.1 6.8 183.1 5.5 C 183.1 3.9 184.4 2.4 186.1 2.4 Z M 187.1 4.5 C 187.1 4.5 187.17 4.3 187.2 4.1 C 187.2 3.3 186.7 2.9 186 2.9 C 185.2 2.9 184.4 3.5 184 4.5 C 184.01 4.47 187.1 4.5 187.1 4.5 Z M 188.9 5.7 C 188.88 5.65 189.4 3 189.4 3 L 188.7 3 L 188.8 2.5 L 189.5 2.5 L 189.8 1.1 L 190.5 1.1 L 190.2 2.5 L 191.4 2.5 L 191.3 3 L 190.1 3 C 190.1 3 189.58 5.58 189.6 5.6 C 189.5 5.8 189.5 5.9 189.5 6.1 C 189.5 6.9 190.1 6.9 190.4 6.9 C 190.59 6.93 190.7 6.9 190.7 6.9 L 190.6 7.5 C 190.6 7.5 190.44 7.54 190.3 7.5 C 189.8 7.5 188.8 7.3 188.8 6.2 C 188.8 6 188.8 5.8 188.9 5.7 Z M 192.5 3.3 C 192.5 3.2 192.4 3.1 192.3 3.1 C 192.27 3.06 191.9 3.1 191.9 3.1 L 192 2.5 C 192 2.5 192.67 2.47 192.7 2.5 C 193.1 2.5 193.2 2.6 193.2 2.9 C 193.2 3 193.1 3.6 193 3.8 C 193 3.8 193 3.8 193 3.8 C 193.4 3.1 194 2.4 194.9 2.4 C 195 2.4 195.1 2.4 195.1 2.5 C 195.1 2.5 195 3.1 195 3.1 C 194.9 3.1 194.9 3.1 194.8 3.1 C 193.7 3.1 192.9 4.4 192.7 5.6 C 192.69 5.58 192.3 7.5 192.3 7.5 L 191.6 7.5 C 191.6 7.5 192.45 3.28 192.5 3.3 Z M 198.2 2.4 C 199.5 2.4 200.4 3.2 200.4 4.5 C 200.4 6.3 198.9 7.6 197.3 7.6 C 196 7.6 195 6.7 195 5.4 C 195 3.7 196.6 2.4 198.2 2.4 Z M 197.4 7 C 198.5 7 199.7 5.9 199.7 4.5 C 199.7 3.6 199.1 3 198.1 3 C 196.9 3 195.7 4 195.7 5.4 C 195.7 6.3 196.4 7 197.4 7 Z M 201.3 6.8 C 201.3 6.8 202.3 1.4 202.3 1.4 C 202.4 1.3 202.4 1.3 202.4 1.2 C 202.4 1.1 202.3 1.1 202.2 1.1 C 202.18 1.06 201.8 1.1 201.8 1.1 L 201.9 0.5 C 201.9 0.5 202.57 0.47 202.6 0.5 C 202.9 0.5 203.1 0.6 203.1 0.9 C 203.1 1 203.1 1.1 203.1 1.2 C 203.1 1.2 202 6.6 202 6.6 C 202 6.6 202 6.7 202 6.8 C 202 6.9 202.1 6.9 202.2 6.9 C 202.17 6.91 202.6 6.9 202.6 6.9 L 202.5 7.5 C 202.5 7.5 201.78 7.5 201.8 7.5 C 201.4 7.5 201.3 7.4 201.3 7.1 C 201.3 7 201.3 6.9 201.3 6.8 Z M 204 4.4 L 206.9 4.4 L 206.7 5 L 203.9 5 L 204 4.4 Z M 210.8 2.4 C 211.5 2.4 212.7 2.6 212.5 3.5 C 212.51 3.46 212.4 3.9 212.4 3.9 L 211.8 3.9 C 211.8 3.9 211.85 3.62 211.9 3.6 C 211.9 3.1 211.2 3 210.7 3 C 209.6 3 208.5 4 208.5 5.4 C 208.5 6.4 209 7 210.1 7 C 211.13 7 211.7 6.4 211.7 6.4 L 212 6.9 C 212 6.9 211.29 7.62 210 7.6 C 208.6 7.6 207.8 6.8 207.8 5.4 C 207.8 3.7 209.2 2.4 210.8 2.4 Z M 216.1 2.4 C 217.5 2.4 218.4 3.2 218.4 4.5 C 218.4 6.3 216.9 7.6 215.2 7.6 C 213.9 7.6 213 6.7 213 5.4 C 213 3.7 214.5 2.4 216.1 2.4 Z M 215.3 7 C 216.5 7 217.7 5.9 217.7 4.5 C 217.7 3.6 217 3 216.1 3 C 214.9 3 213.7 4 213.7 5.4 C 213.7 6.3 214.4 7 215.3 7 Z M 219.9 3.4 C 219.9 3.4 219.9 3.3 219.9 3.2 C 219.9 3.1 219.8 3.1 219.7 3.1 C 219.7 3.06 219.3 3.1 219.3 3.1 L 219.4 2.5 C 219.4 2.5 220.09 2.47 220.1 2.5 C 220.5 2.5 220.6 2.6 220.6 2.9 C 220.6 3.1 220.5 3.4 220.5 3.6 C 220.5 3.6 220.5 3.6 220.5 3.6 C 220.8 3.2 221.5 2.4 222.7 2.4 C 223.7 2.4 224.1 2.9 224.1 3.7 C 224.1 3.9 224.1 4.1 224.1 4.3 C 224.1 4.3 223.6 6.6 223.6 6.6 C 223.6 6.6 223.6 6.7 223.6 6.8 C 223.6 6.9 223.7 6.9 223.8 6.9 C 223.77 6.91 224.2 6.9 224.2 6.9 L 224.1 7.5 C 224.1 7.5 223.38 7.5 223.4 7.5 C 223 7.5 222.9 7.4 222.9 7.1 C 222.9 7 222.9 6.9 222.9 6.8 C 222.9 6.8 223.3 4.5 223.3 4.5 C 223.4 4.3 223.4 4.1 223.4 3.9 C 223.4 3.4 223.2 3 222.5 3 C 221.4 3 220.4 4.1 220.2 5.1 C 220.22 5.11 219.8 7.5 219.8 7.5 L 219.1 7.5 C 219.1 7.5 219.86 3.45 219.9 3.4 Z M 225.4 5.7 C 225.44 5.65 226 3 226 3 L 225.3 3 L 225.4 2.5 L 226.1 2.5 L 226.3 1.1 L 227 1.1 L 226.7 2.5 L 228 2.5 L 227.9 3 L 226.6 3 C 226.6 3 226.14 5.58 226.1 5.6 C 226.1 5.8 226.1 5.9 226.1 6.1 C 226.1 6.9 226.7 6.9 227 6.9 C 227.15 6.93 227.2 6.9 227.2 6.9 L 227.1 7.5 C 227.1 7.5 227 7.54 226.8 7.5 C 226.3 7.5 225.4 7.3 225.4 6.2 C 225.4 6 225.4 5.8 225.4 5.7 Z M 227.9 6.3 C 227.9 4.8 229.8 4.4 231.3 4.4 C 231.29 4.4 231.6 4.4 231.6 4.4 C 231.6 4.4 231.63 4.27 231.6 4.3 C 231.7 4.1 231.7 4 231.7 3.8 C 231.7 3.2 231.3 2.9 230.7 2.9 C 230.3 2.9 229.6 3 229.5 3.4 C 229.53 3.36 229.5 3.7 229.5 3.7 L 228.8 3.7 C 228.8 3.7 228.91 3.2 228.9 3.2 C 229 2.6 230.1 2.4 230.7 2.4 C 231.9 2.4 232.4 2.9 232.4 3.7 C 232.4 3.9 232.3 4.1 232.3 4.4 C 232.3 4.4 231.9 6.5 231.9 6.5 C 231.9 6.6 231.8 6.7 231.8 6.8 C 231.8 6.8 231.9 6.9 232 6.9 C 232.01 6.91 232.4 6.9 232.4 6.9 L 232.3 7.5 C 232.3 7.5 231.68 7.5 231.7 7.5 C 231.3 7.5 231.1 7.3 231.1 7.1 C 231.1 7 231.2 6.7 231.3 6.5 C 231.3 6.5 231.2 6.5 231.2 6.5 C 231.3 6.5 230.6 7.6 229.4 7.6 C 228.6 7.6 227.9 7.2 227.9 6.3 C 227.9 6.3 227.9 6.3 227.9 6.3 Z M 228.6 6.2 C 228.6 6.8 229 7.1 229.5 7.1 C 230.5 7.1 231.3 5.9 231.5 5.2 C 231.46 5.17 231.5 4.9 231.5 4.9 C 231.5 4.9 231.22 4.94 231.2 4.9 C 230.4 4.9 228.6 5.1 228.6 6.2 C 228.6 6.2 228.6 6.2 228.6 6.2 Z M 234.7 0.5 L 235.4 0.5 L 235.2 1.3 L 234.5 1.3 L 234.7 0.5 Z M 233.5 6.8 C 233.5 6.8 234.1 3.4 234.1 3.4 C 234.2 3.3 234.2 3.3 234.2 3.2 C 234.2 3.1 234.1 3.1 234 3.1 C 233.99 3.06 233.6 3.1 233.6 3.1 L 233.7 2.5 C 233.7 2.5 234.37 2.47 234.4 2.5 C 234.7 2.5 234.9 2.6 234.9 2.9 C 234.9 3 234.9 3.1 234.9 3.2 C 234.9 3.2 234.2 6.6 234.2 6.6 C 234.2 6.6 234.2 6.7 234.2 6.8 C 234.2 6.9 234.2 6.9 234.4 6.9 C 234.36 6.91 234.8 6.9 234.8 6.9 L 234.7 7.5 C 234.7 7.5 233.97 7.5 234 7.5 C 233.6 7.5 233.5 7.4 233.5 7.1 C 233.5 7 233.5 6.9 233.5 6.8 Z M 236.6 3.4 C 236.6 3.4 236.6 3.3 236.6 3.2 C 236.6 3.1 236.6 3.1 236.4 3.1 C 236.42 3.06 236 3.1 236 3.1 L 236.1 2.5 C 236.1 2.5 236.81 2.47 236.8 2.5 C 237.2 2.5 237.3 2.6 237.3 2.9 C 237.3 3.1 237.3 3.4 237.2 3.6 C 237.2 3.6 237.2 3.6 237.2 3.6 C 237.5 3.2 238.3 2.4 239.4 2.4 C 240.4 2.4 240.8 2.9 240.8 3.7 C 240.8 3.9 240.8 4.1 240.8 4.3 C 240.8 4.3 240.3 6.6 240.3 6.6 C 240.3 6.6 240.3 6.7 240.3 6.8 C 240.3 6.9 240.4 6.9 240.5 6.9 C 240.49 6.91 240.9 6.9 240.9 6.9 L 240.8 7.5 C 240.8 7.5 240.1 7.5 240.1 7.5 C 239.7 7.5 239.6 7.4 239.6 7.1 C 239.6 7 239.6 6.9 239.6 6.8 C 239.6 6.8 240.1 4.5 240.1 4.5 C 240.1 4.3 240.1 4.1 240.1 3.9 C 240.1 3.4 239.9 3 239.2 3 C 238.1 3 237.1 4.1 236.9 5.1 C 236.94 5.11 236.5 7.5 236.5 7.5 L 235.8 7.5 C 235.8 7.5 236.58 3.45 236.6 3.4 Z M 243.2 0.5 L 243.8 0.5 L 243.7 1.3 L 243 1.3 L 243.2 0.5 Z M 242 6.8 C 242 6.8 242.6 3.4 242.6 3.4 C 242.6 3.3 242.7 3.3 242.7 3.2 C 242.7 3.1 242.6 3.1 242.5 3.1 C 242.47 3.06 242.1 3.1 242.1 3.1 L 242.2 2.5 C 242.2 2.5 242.85 2.47 242.9 2.5 C 243.2 2.5 243.4 2.6 243.4 2.9 C 243.4 3 243.4 3.1 243.3 3.2 C 243.3 3.2 242.7 6.6 242.7 6.6 C 242.7 6.6 242.7 6.7 242.7 6.8 C 242.7 6.9 242.7 6.9 242.8 6.9 C 242.84 6.91 243.3 6.9 243.3 6.9 L 243.2 7.5 C 243.2 7.5 242.45 7.5 242.5 7.5 C 242.1 7.5 241.9 7.4 241.9 7.1 C 241.9 7 241.9 6.9 242 6.8 Z M 245.1 3.4 C 245.1 3.4 245.1 3.3 245.1 3.2 C 245.1 3.1 245 3.1 244.9 3.1 C 244.9 3.06 244.5 3.1 244.5 3.1 L 244.6 2.5 C 244.6 2.5 245.29 2.47 245.3 2.5 C 245.7 2.5 245.8 2.6 245.8 2.9 C 245.8 3.1 245.7 3.4 245.7 3.6 C 245.7 3.6 245.7 3.6 245.7 3.6 C 246 3.2 246.7 2.4 247.9 2.4 C 248.9 2.4 249.3 2.9 249.3 3.7 C 249.3 3.9 249.3 4.1 249.3 4.3 C 249.3 4.3 248.8 6.6 248.8 6.6 C 248.8 6.6 248.8 6.7 248.8 6.8 C 248.8 6.9 248.9 6.9 249 6.9 C 248.97 6.91 249.4 6.9 249.4 6.9 L 249.3 7.5 C 249.3 7.5 248.58 7.5 248.6 7.5 C 248.2 7.5 248.1 7.4 248.1 7.1 C 248.1 7 248.1 6.9 248.1 6.8 C 248.1 6.8 248.5 4.5 248.5 4.5 C 248.6 4.3 248.6 4.1 248.6 3.9 C 248.6 3.4 248.4 3 247.7 3 C 246.6 3 245.6 4.1 245.4 5.1 C 245.42 5.11 245 7.5 245 7.5 L 244.3 7.5 C 244.3 7.5 245.06 3.45 245.1 3.4 Z M 251.6 9 C 252.6 9 253.5 8.5 253.7 7.2 C 253.81 6.75 253.9 6.5 253.9 6.5 C 253.9 6.5 253.88 6.54 253.9 6.5 C 253.5 7.1 252.9 7.5 252.2 7.5 C 251 7.5 250.3 6.7 250.3 5.5 C 250.3 4.1 251.2 2.4 252.9 2.4 C 253.7 2.4 254.4 2.7 254.5 3.3 C 254.54 3.27 254.6 3.3 254.6 3.3 C 254.6 3.3 254.55 3.2 254.6 3 C 254.6 2.7 254.8 2.5 255.3 2.5 C 255.26 2.47 256 2.5 256 2.5 L 255.9 3.1 C 255.9 3.1 255.44 3.07 255.4 3.1 C 255.3 3.1 255.2 3.1 255.2 3.3 C 255.2 3.3 254.4 7.4 254.4 7.4 C 254.1 9 252.8 9.6 251.7 9.6 C 250.9 9.6 250.3 9.4 250 9.2 C 249.97 9.19 250.3 8.6 250.3 8.6 C 250.3 8.6 250.87 8.98 251.6 9 Z M 252.3 6.9 C 253.6 6.9 254.3 5.3 254.3 4.2 C 254.3 3.3 253.7 3 253 3 C 251.7 3 251 4.2 251 5.4 C 251 6.3 251.5 6.9 252.3 6.9 Z M 261.8 2.4 C 262.5 2.4 263.7 2.6 263.5 3.5 C 263.52 3.46 263.4 3.9 263.4 3.9 L 262.8 3.9 C 262.8 3.9 262.86 3.62 262.9 3.6 C 262.9 3.1 262.2 3 261.7 3 C 260.6 3 259.5 4 259.5 5.4 C 259.5 6.4 260 7 261.1 7 C 262.14 7 262.8 6.4 262.8 6.4 L 263 6.9 C 263 6.9 262.3 7.62 261 7.6 C 259.6 7.6 258.8 6.8 258.8 5.4 C 258.8 3.7 260.2 2.4 261.8 2.4 Z M 267.2 2.4 C 268.5 2.4 269.4 3.2 269.4 4.5 C 269.4 6.3 267.9 7.6 266.3 7.6 C 264.9 7.6 264 6.7 264 5.4 C 264 3.7 265.5 2.4 267.2 2.4 Z M 266.3 7 C 267.5 7 268.7 5.9 268.7 4.5 C 268.7 3.6 268 3 267.1 3 C 265.9 3 264.7 4 264.7 5.4 C 264.7 6.3 265.4 7 266.3 7 Z M 270.9 3.4 C 270.9 3.4 270.9 3.3 270.9 3.2 C 270.9 3.1 270.8 3.1 270.7 3.1 C 270.71 3.06 270.3 3.1 270.3 3.1 L 270.4 2.5 C 270.4 2.5 271.1 2.47 271.1 2.5 C 271.5 2.5 271.6 2.6 271.6 2.9 C 271.6 3.1 271.6 3.4 271.5 3.6 C 271.5 3.6 271.5 3.6 271.5 3.6 C 271.8 3.2 272.5 2.4 273.6 2.4 C 274.5 2.4 274.9 2.8 274.9 3.6 C 274.9 3.6 274.9 3.6 274.9 3.6 C 275.2 3.1 276 2.4 277 2.4 C 278 2.4 278.4 2.9 278.4 3.7 C 278.4 3.9 278.3 4.1 278.3 4.3 C 278.3 4.3 277.9 6.6 277.9 6.6 C 277.8 6.6 277.8 6.7 277.8 6.8 C 277.8 6.9 277.9 6.9 278 6.9 C 278 6.91 278.4 6.9 278.4 6.9 L 278.3 7.5 C 278.3 7.5 277.61 7.5 277.6 7.5 C 277.3 7.5 277.1 7.4 277.1 7.1 C 277.1 7 277.1 6.9 277.1 6.8 C 277.1 6.8 277.6 4.5 277.6 4.5 C 277.6 4.2 277.7 4 277.7 3.9 C 277.7 3.4 277.5 3 276.9 3 C 275.8 3 274.9 4.1 274.7 5.1 C 274.68 5.13 274.2 7.5 274.2 7.5 L 273.5 7.5 C 273.5 7.5 274.13 4.47 274.1 4.5 C 274.2 4.2 274.2 4 274.2 3.9 C 274.2 3.4 274 3 273.4 3 C 272.3 3 271.4 4.1 271.2 5.1 C 271.23 5.14 270.8 7.5 270.8 7.5 L 270.1 7.5 C 270.1 7.5 270.87 3.45 270.9 3.4 Z M 280.5 1.4 C 280.5 1.3 280.5 1.3 280.5 1.2 C 280.5 1.1 280.4 1.1 280.3 1.1 C 280.3 1.06 279.9 1.1 279.9 1.1 L 280 0.5 C 280 0.5 280.68 0.47 280.7 0.5 C 281.1 0.5 281.2 0.6 281.2 0.9 C 281.2 1 281.2 1.1 281.2 1.2 C 281.2 1.2 280.9 2.9 280.9 2.9 C 280.8 3.14 280.7 3.4 280.7 3.4 C 280.7 3.4 280.74 3.36 280.7 3.4 C 281.1 2.8 281.8 2.4 282.6 2.4 C 283.7 2.4 284.4 3.1 284.4 4.4 C 284.4 6.3 283.1 7.6 281.7 7.6 C 280.9 7.6 280.3 7.3 280.1 6.6 C 280.09 6.58 280.1 6.6 280.1 6.6 C 280.1 6.6 280.07 6.79 280 7 C 280.02 7.03 279.9 7.5 279.9 7.5 L 279.3 7.5 C 279.3 7.5 280.45 1.43 280.5 1.4 Z M 280.4 5.6 C 280.4 6.4 280.7 7 281.6 7 C 282.6 7 283.7 6 283.7 4.4 C 283.7 3.5 283.2 3 282.4 3 C 281.2 3 280.4 4.3 280.4 5.6 C 280.4 5.6 280.4 5.6 280.4 5.6 Z M 286.5 0.5 L 287.2 0.5 L 287 1.3 L 286.3 1.3 L 286.5 0.5 Z M 285.3 6.8 C 285.3 6.8 286 3.4 286 3.4 C 286 3.3 286 3.3 286 3.2 C 286 3.1 285.9 3.1 285.8 3.1 C 285.8 3.06 285.4 3.1 285.4 3.1 L 285.5 2.5 C 285.5 2.5 286.18 2.47 286.2 2.5 C 286.5 2.5 286.7 2.6 286.7 2.9 C 286.7 3 286.7 3.1 286.7 3.2 C 286.7 3.2 286 6.6 286 6.6 C 286 6.6 286 6.7 286 6.8 C 286 6.9 286.1 6.9 286.2 6.9 C 286.17 6.91 286.6 6.9 286.6 6.9 L 286.5 7.5 C 286.5 7.5 285.78 7.5 285.8 7.5 C 285.4 7.5 285.3 7.4 285.3 7.1 C 285.3 7 285.3 6.9 285.3 6.8 Z M 288.4 3.4 C 288.4 3.4 288.4 3.3 288.4 3.2 C 288.4 3.1 288.4 3.1 288.2 3.1 C 288.23 3.06 287.8 3.1 287.8 3.1 L 287.9 2.5 C 287.9 2.5 288.62 2.47 288.6 2.5 C 289 2.5 289.1 2.6 289.1 2.9 C 289.1 3.1 289.1 3.4 289 3.6 C 289 3.6 289 3.6 289 3.6 C 289.3 3.2 290.1 2.4 291.2 2.4 C 292.2 2.4 292.7 2.9 292.7 3.7 C 292.7 3.9 292.6 4.1 292.6 4.3 C 292.6 4.3 292.1 6.6 292.1 6.6 C 292.1 6.6 292.1 6.7 292.1 6.8 C 292.1 6.9 292.2 6.9 292.3 6.9 C 292.3 6.91 292.7 6.9 292.7 6.9 L 292.6 7.5 C 292.6 7.5 291.91 7.5 291.9 7.5 C 291.6 7.5 291.4 7.4 291.4 7.1 C 291.4 7 291.4 6.9 291.4 6.8 C 291.4 6.8 291.9 4.5 291.9 4.5 C 291.9 4.3 291.9 4.1 291.9 3.9 C 291.9 3.4 291.7 3 291 3 C 289.9 3 289 4.1 288.8 5.1 C 288.75 5.11 288.3 7.5 288.3 7.5 L 287.6 7.5 C 287.6 7.5 288.39 3.45 288.4 3.4 Z M 296.5 2.4 C 297.8 2.4 298.3 3.1 298.3 4.2 C 298.34 4.56 298.2 5 298.2 5 L 294.3 5 C 294.3 5 294.29 5.22 294.3 5.4 C 294.3 6.3 294.8 7 295.9 7 C 296.81 7.01 297.5 6.4 297.5 6.4 L 297.8 7 C 297.8 7 296.93 7.62 295.9 7.6 C 294.5 7.6 293.6 6.8 293.6 5.5 C 293.6 3.9 294.8 2.4 296.5 2.4 Z M 297.6 4.5 C 297.6 4.5 297.64 4.3 297.6 4.1 C 297.6 3.3 297.2 2.9 296.5 2.9 C 295.7 2.9 294.8 3.5 294.5 4.5 C 294.48 4.47 297.6 4.5 297.6 4.5 Z M 299 5.6 C 299 3.7 300.3 2.4 301.7 2.4 C 302.4 2.4 303 2.7 303.3 3.4 C 303.25 3.37 303.3 3.4 303.3 3.4 C 303.3 3.4 303.28 3.16 303.3 2.9 C 303.3 2.9 303.6 1.4 303.6 1.4 C 303.6 1.3 303.6 1.3 303.6 1.2 C 303.6 1.1 303.6 1.1 303.5 1.1 C 303.46 1.06 303 1.1 303 1.1 L 303.2 0.5 C 303.2 0.5 303.85 0.47 303.9 0.5 C 304.2 0.5 304.4 0.6 304.4 0.9 C 304.4 1 304.4 1.1 304.4 1.2 C 304.4 1.2 303.3 6.5 303.3 6.5 C 303.3 6.6 303.3 6.7 303.3 6.8 C 303.3 6.8 303.3 6.9 303.4 6.9 C 303.44 6.91 303.9 6.9 303.9 6.9 L 303.8 7.5 C 303.8 7.5 303.11 7.5 303.1 7.5 C 302.7 7.5 302.6 7.3 302.6 7.1 C 302.6 7 302.6 6.7 302.7 6.6 C 302.7 6.6 302.7 6.6 302.7 6.6 C 302.3 7.1 301.7 7.6 300.8 7.6 C 299.6 7.6 299 6.8 299 5.6 C 299 5.6 299 5.6 299 5.6 Z M 299.7 5.6 C 299.7 6.5 300.1 7 300.9 7 C 302.2 7 303 5.6 303 4.4 C 303 3.6 302.6 3 301.7 3 C 300.8 3 299.7 3.9 299.7 5.6 C 299.7 5.6 299.7 5.6 299.7 5.6 Z M 310.7 2.4 C 312 2.4 312.9 3.2 312.9 4.5 C 312.9 6.3 311.4 7.6 309.8 7.6 C 308.5 7.6 307.5 6.7 307.5 5.4 C 307.5 3.7 309.1 2.4 310.7 2.4 Z M 309.9 7 C 311 7 312.2 5.9 312.2 4.5 C 312.2 3.6 311.6 3 310.6 3 C 309.4 3 308.2 4 308.2 5.4 C 308.2 6.3 308.9 7 309.9 7 Z M 314.4 3.3 C 314.5 3.2 314.4 3.1 314.3 3.1 C 314.26 3.06 313.8 3.1 313.8 3.1 L 314 2.5 C 314 2.5 314.66 2.47 314.7 2.5 C 315 2.5 315.2 2.6 315.2 2.9 C 315.2 3 315.1 3.6 315 3.8 C 315 3.8 315 3.8 315 3.8 C 315.3 3.1 316 2.4 316.9 2.4 C 317 2.4 317.1 2.4 317.1 2.5 C 317.1 2.5 317 3.1 317 3.1 C 316.9 3.1 316.9 3.1 316.8 3.1 C 315.7 3.1 314.9 4.4 314.7 5.6 C 314.68 5.58 314.3 7.5 314.3 7.5 L 313.6 7.5 C 313.6 7.5 314.44 3.28 314.4 3.3 Z M 316.8 6.3 C 316.8 4.8 318.7 4.4 320.2 4.4 C 320.2 4.4 320.5 4.4 320.5 4.4 C 320.5 4.4 320.54 4.27 320.5 4.3 C 320.6 4.1 320.6 4 320.6 3.8 C 320.6 3.2 320.3 2.9 319.6 2.9 C 319.2 2.9 318.5 3 318.4 3.4 C 318.44 3.36 318.4 3.7 318.4 3.7 L 317.7 3.7 C 317.7 3.7 317.82 3.2 317.8 3.2 C 318 2.6 319 2.4 319.7 2.4 C 320.8 2.4 321.3 2.9 321.3 3.7 C 321.3 3.9 321.3 4.1 321.2 4.4 C 321.2 4.4 320.8 6.5 320.8 6.5 C 320.8 6.6 320.7 6.7 320.7 6.8 C 320.7 6.8 320.8 6.9 320.9 6.9 C 320.92 6.91 321.3 6.9 321.3 6.9 L 321.2 7.5 C 321.2 7.5 320.59 7.5 320.6 7.5 C 320.2 7.5 320.1 7.3 320.1 7.1 C 320.1 7 320.1 6.7 320.2 6.5 C 320.2 6.5 320.2 6.5 320.2 6.5 C 320.2 6.5 319.5 7.6 318.3 7.6 C 317.5 7.6 316.8 7.2 316.8 6.3 C 316.8 6.3 316.8 6.3 316.8 6.3 Z M 317.5 6.2 C 317.5 6.8 317.9 7.1 318.4 7.1 C 319.5 7.1 320.2 5.9 320.4 5.2 C 320.37 5.17 320.4 4.9 320.4 4.9 C 320.4 4.9 320.13 4.94 320.1 4.9 C 319.3 4.9 317.5 5.1 317.5 6.2 C 317.5 6.2 317.5 6.2 317.5 6.2 Z M 322.4 6.8 C 322.4 6.8 323.5 1.4 323.5 1.4 C 323.5 1.3 323.5 1.3 323.5 1.2 C 323.5 1.1 323.4 1.1 323.3 1.1 C 323.31 1.06 322.9 1.1 322.9 1.1 L 323 0.5 C 323 0.5 323.7 0.47 323.7 0.5 C 324.1 0.5 324.2 0.6 324.2 0.9 C 324.2 1 324.2 1.1 324.2 1.2 C 324.2 1.2 323.1 6.6 323.1 6.6 C 323.1 6.6 323.1 6.7 323.1 6.8 C 323.1 6.9 323.2 6.9 323.3 6.9 C 323.3 6.91 323.7 6.9 323.7 6.9 L 323.6 7.5 C 323.6 7.5 322.91 7.5 322.9 7.5 C 322.6 7.5 322.4 7.4 322.4 7.1 C 322.4 7 322.4 6.9 322.4 6.8 Z M 330.4 2.4 C 331.1 2.4 332.3 2.6 332.2 3.5 C 332.17 3.46 332.1 3.9 332.1 3.9 L 331.5 3.9 C 331.5 3.9 331.51 3.62 331.5 3.6 C 331.6 3.1 330.9 3 330.4 3 C 329.2 3 328.1 4 328.1 5.4 C 328.1 6.4 328.7 7 329.7 7 C 330.79 7 331.4 6.4 331.4 6.4 L 331.6 6.9 C 331.6 6.9 330.95 7.62 329.7 7.6 C 328.3 7.6 327.4 6.8 327.4 5.4 C 327.4 3.7 328.9 2.4 330.4 2.4 Z M 335.8 2.4 C 337.1 2.4 338.1 3.2 338.1 4.5 C 338.1 6.3 336.5 7.6 334.9 7.6 C 333.6 7.6 332.7 6.7 332.7 5.4 C 332.7 3.7 334.2 2.4 335.8 2.4 Z M 335 7 C 336.1 7 337.4 5.9 337.4 4.5 C 337.4 3.6 336.7 3 335.7 3 C 334.5 3 333.4 4 333.4 5.4 C 333.4 6.3 334 7 335 7 Z M 339.5 3.4 C 339.5 3.4 339.6 3.3 339.6 3.2 C 339.6 3.1 339.5 3.1 339.4 3.1 C 339.36 3.06 339 3.1 339 3.1 L 339.1 2.5 C 339.1 2.5 339.75 2.47 339.8 2.5 C 340.1 2.5 340.3 2.6 340.3 2.9 C 340.3 3.1 340.2 3.4 340.1 3.6 C 340.1 3.6 340.2 3.6 340.2 3.6 C 340.4 3.2 341.2 2.4 342.4 2.4 C 343.4 2.4 343.8 2.9 343.8 3.7 C 343.8 3.9 343.8 4.1 343.7 4.3 C 343.7 4.3 343.3 6.6 343.3 6.6 C 343.3 6.6 343.3 6.7 343.3 6.8 C 343.3 6.9 343.3 6.9 343.4 6.9 C 343.43 6.91 343.9 6.9 343.9 6.9 L 343.7 7.5 C 343.7 7.5 343.04 7.5 343 7.5 C 342.7 7.5 342.5 7.4 342.5 7.1 C 342.5 7 342.5 6.9 342.5 6.8 C 342.5 6.8 343 4.5 343 4.5 C 343 4.3 343.1 4.1 343.1 3.9 C 343.1 3.4 342.9 3 342.2 3 C 341 3 340.1 4.1 339.9 5.1 C 339.88 5.11 339.4 7.5 339.4 7.5 L 338.7 7.5 C 338.7 7.5 339.52 3.45 339.5 3.4 Z M 345.1 5.7 C 345.1 5.65 345.6 3 345.6 3 L 345 3 L 345.1 2.5 L 345.7 2.5 L 346 1.1 L 346.7 1.1 L 346.4 2.5 L 347.7 2.5 L 347.6 3 L 346.3 3 C 346.3 3 345.8 5.58 345.8 5.6 C 345.8 5.8 345.8 5.9 345.8 6.1 C 345.8 6.9 346.3 6.9 346.7 6.9 C 346.81 6.93 346.9 6.9 346.9 6.9 L 346.8 7.5 C 346.8 7.5 346.66 7.54 346.5 7.5 C 346 7.5 345 7.3 345 6.2 C 345 6 345.1 5.8 345.1 5.7 Z M 348.7 3.3 C 348.7 3.2 348.7 3.1 348.5 3.1 C 348.49 3.06 348.1 3.1 348.1 3.1 L 348.2 2.5 C 348.2 2.5 348.89 2.47 348.9 2.5 C 349.3 2.5 349.4 2.6 349.4 2.9 C 349.4 3 349.3 3.6 349.2 3.8 C 349.2 3.8 349.2 3.8 349.2 3.8 C 349.6 3.1 350.2 2.4 351.1 2.4 C 351.2 2.4 351.3 2.4 351.4 2.5 C 351.4 2.5 351.2 3.1 351.2 3.1 C 351.2 3.1 351.1 3.1 351 3.1 C 349.9 3.1 349.1 4.4 348.9 5.6 C 348.91 5.58 348.5 7.5 348.5 7.5 L 347.9 7.5 C 347.9 7.5 348.67 3.28 348.7 3.3 Z M 351 6.3 C 351 4.8 352.9 4.4 354.4 4.4 C 354.43 4.4 354.8 4.4 354.8 4.4 C 354.8 4.4 354.77 4.27 354.8 4.3 C 354.8 4.1 354.8 4 354.8 3.8 C 354.8 3.2 354.5 2.9 353.8 2.9 C 353.5 2.9 352.7 3 352.7 3.4 C 352.67 3.36 352.6 3.7 352.6 3.7 L 352 3.7 C 352 3.7 352.05 3.2 352.1 3.2 C 352.2 2.6 353.2 2.4 353.9 2.4 C 355 2.4 355.5 2.9 355.5 3.7 C 355.5 3.9 355.5 4.1 355.4 4.4 C 355.4 4.4 355 6.5 355 6.5 C 355 6.6 355 6.7 355 6.8 C 355 6.8 355 6.9 355.2 6.9 C 355.15 6.91 355.6 6.9 355.6 6.9 L 355.5 7.5 C 355.5 7.5 354.82 7.5 354.8 7.5 C 354.4 7.5 354.3 7.3 354.3 7.1 C 354.3 7 354.3 6.7 354.4 6.5 C 354.4 6.5 354.4 6.5 354.4 6.5 C 354.4 6.5 353.8 7.6 352.5 7.6 C 351.7 7.6 351 7.2 351 6.3 C 351 6.3 351 6.3 351 6.3 Z M 351.7 6.2 C 351.7 6.8 352.1 7.1 352.6 7.1 C 353.7 7.1 354.5 5.9 354.6 5.2 C 354.6 5.17 354.6 4.9 354.6 4.9 C 354.6 4.9 354.36 4.94 354.4 4.9 C 353.5 4.9 351.7 5.1 351.7 6.2 C 351.7 6.2 351.7 6.2 351.7 6.2 Z M 359.5 2.4 C 360.1 2.4 361.4 2.6 361.2 3.5 C 361.2 3.46 361.1 3.9 361.1 3.9 L 360.5 3.9 C 360.5 3.9 360.54 3.62 360.5 3.6 C 360.6 3.1 359.9 3 359.4 3 C 358.3 3 357.2 4 357.2 5.4 C 357.2 6.4 357.7 7 358.8 7 C 359.82 7 360.4 6.4 360.4 6.4 L 360.7 6.9 C 360.7 6.9 359.98 7.62 358.7 7.6 C 357.3 7.6 356.5 6.8 356.5 5.4 C 356.5 3.7 357.9 2.4 359.5 2.4 Z M 364.6 2.4 C 365.9 2.4 366.4 3.1 366.4 4.2 C 366.43 4.56 366.3 5 366.3 5 L 362.4 5 C 362.4 5 362.38 5.22 362.4 5.4 C 362.4 6.3 362.9 7 364 7 C 364.9 7.01 365.6 6.4 365.6 6.4 L 365.9 7 C 365.9 7 365.02 7.62 364 7.6 C 362.6 7.6 361.7 6.8 361.7 5.5 C 361.7 3.9 362.9 2.4 364.6 2.4 Z M 365.7 4.5 C 365.7 4.5 365.73 4.3 365.7 4.1 C 365.7 3.3 365.3 2.9 364.6 2.9 C 363.8 2.9 362.9 3.5 362.6 4.5 C 362.57 4.47 365.7 4.5 365.7 4.5 Z M 367.9 3.4 C 367.9 3.3 367.9 3.3 367.9 3.2 C 367.9 3.1 367.9 3.1 367.7 3.1 C 367.72 3.06 367.3 3.1 367.3 3.1 L 367.4 2.5 C 367.4 2.5 368.11 2.47 368.1 2.5 C 368.5 2.5 368.6 2.6 368.6 2.8 C 368.6 3 368.6 3.2 368.5 3.4 C 368.5 3.4 368.5 3.4 368.5 3.4 C 368.8 2.9 369.5 2.4 370.4 2.4 C 371.6 2.4 372.2 3.1 372.2 4.4 C 372.2 6.3 370.9 7.6 369.5 7.6 C 368.8 7.6 368.2 7.3 367.9 6.6 C 367.92 6.61 367.9 6.6 367.9 6.6 C 367.9 6.6 367.88 6.84 367.8 7.1 C 367.83 7.09 367.4 9.5 367.4 9.5 L 366.7 9.5 C 366.7 9.5 367.87 3.45 367.9 3.4 Z M 368.2 5.5 C 368.2 6.4 368.6 7 369.4 7 C 370.4 7 371.5 6 371.5 4.5 C 371.5 3.5 371.1 3 370.3 3 C 369 3 368.2 4.3 368.2 5.5 C 368.2 5.5 368.2 5.5 368.2 5.5 Z M 373.3 5.7 C 373.32 5.65 373.8 3 373.8 3 L 373.2 3 L 373.3 2.5 L 374 2.5 L 374.2 1.1 L 374.9 1.1 L 374.6 2.5 L 375.9 2.5 L 375.8 3 L 374.5 3 C 374.5 3 374.02 5.58 374 5.6 C 374 5.8 374 5.9 374 6.1 C 374 6.9 374.6 6.9 374.9 6.9 C 375.03 6.93 375.1 6.9 375.1 6.9 L 375 7.5 C 375 7.5 374.88 7.54 374.7 7.5 C 374.2 7.5 373.3 7.3 373.3 6.2 C 373.3 6 373.3 5.8 373.3 5.7 Z M 377.4 0.5 L 378.1 0.5 L 377.9 1.3 L 377.3 1.3 L 377.4 0.5 Z M 376.2 6.8 C 376.2 6.8 376.9 3.4 376.9 3.4 C 376.9 3.3 376.9 3.3 376.9 3.2 C 376.9 3.1 376.9 3.1 376.7 3.1 C 376.73 3.06 376.3 3.1 376.3 3.1 L 376.4 2.5 C 376.4 2.5 377.11 2.47 377.1 2.5 C 377.5 2.5 377.6 2.6 377.6 2.9 C 377.6 3 377.6 3.1 377.6 3.2 C 377.6 3.2 376.9 6.6 376.9 6.6 C 376.9 6.6 376.9 6.7 376.9 6.8 C 376.9 6.9 377 6.9 377.1 6.9 C 377.1 6.91 377.5 6.9 377.5 6.9 L 377.4 7.5 C 377.4 7.5 376.71 7.5 376.7 7.5 C 376.4 7.5 376.2 7.4 376.2 7.1 C 376.2 7 376.2 6.9 376.2 6.8 Z M 379 3.3 C 378.9 3.1 378.8 3.1 378.7 3.1 C 378.68 3.06 378.6 3.1 378.6 3.1 L 378.7 2.5 C 378.7 2.5 378.99 2.47 379 2.5 C 379.3 2.5 379.5 2.6 379.6 3 C 379.6 3 380.2 6.2 380.2 6.2 C 380.21 6.37 380.3 6.8 380.3 6.8 L 380.3 6.8 C 380.3 6.8 380.4 6.4 380.6 6.2 C 380.6 6.2 382.4 3 382.4 3 C 382.6 2.6 382.7 2.5 383.2 2.5 C 383.21 2.47 383.6 2.5 383.6 2.5 L 383.5 3.1 C 383.5 3.1 383.32 3.06 383.3 3.1 C 383.2 3.1 383.1 3.1 383 3.3 C 382.96 3.29 380.5 7.5 380.5 7.5 L 379.8 7.5 C 379.8 7.5 378.95 3.33 379 3.3 Z M 386.5 2.4 C 387.8 2.4 388.3 3.1 388.3 4.2 C 388.33 4.56 388.2 5 388.2 5 L 384.3 5 C 384.3 5 384.28 5.22 384.3 5.4 C 384.3 6.3 384.8 7 385.9 7 C 386.8 7.01 387.5 6.4 387.5 6.4 L 387.8 7 C 387.8 7 386.92 7.62 385.9 7.6 C 384.5 7.6 383.6 6.8 383.6 5.5 C 383.6 3.9 384.8 2.4 386.5 2.4 Z M 387.6 4.5 C 387.6 4.5 387.63 4.3 387.6 4.1 C 387.6 3.3 387.2 2.9 386.5 2.9 C 385.7 2.9 384.8 3.5 384.5 4.5 C 384.47 4.47 387.6 4.5 387.6 4.5 Z M 389.8 2.5 L 390.5 2.5 L 390.4 3.3 L 389.6 3.3 L 389.8 2.5 Z M 388.9 6.7 L 389.7 6.7 L 389.6 7.5 L 388.8 7.5 L 388.9 6.7 Z M 394.2 6.7 C 394.15 6.72 395.3 1.1 395.3 1.1 L 394.6 1.1 L 394.7 0.5 C 394.7 0.5 398.72 0.47 398.7 0.5 C 399.1 0.5 399.2 0.7 399.2 0.9 C 399.2 1 399.2 1.1 399.2 1.3 C 399.19 1.27 399.1 1.8 399.1 1.8 L 398.4 1.8 C 398.4 1.8 398.49 1.48 398.5 1.5 C 398.5 1.4 398.5 1.3 398.5 1.2 C 398.5 1.1 398.5 1.1 398.3 1.1 C 398.34 1.09 396 1.1 396 1.1 L 395.5 3.7 L 398.1 3.7 L 398 4.3 L 395.3 4.3 C 395.3 4.3 394.89 6.5 394.9 6.5 C 394.9 6.6 394.9 6.7 394.9 6.7 C 394.9 6.8 394.9 6.9 395 6.9 C 395 6.9 397.5 6.9 397.5 6.9 C 397.7 6.9 397.8 6.8 397.8 6.7 C 397.78 6.66 397.9 6.2 397.9 6.2 L 398.5 6.2 C 398.5 6.2 398.38 6.91 398.4 6.9 C 398.3 7.3 398.1 7.5 397.7 7.5 C 397.7 7.5 394.6 7.5 394.6 7.5 C 394.3 7.5 394.1 7.3 394.1 7.1 C 394.1 7 394.1 6.9 394.2 6.7 Z M 399.9 5.7 C 399.9 5.7 400.3 3.4 400.3 3.4 C 400.3 3.3 400.4 3.2 400.4 3.2 C 400.4 3.1 400.3 3.1 400.2 3.1 C 400.16 3.06 399.7 3.1 399.7 3.1 L 399.9 2.5 C 399.9 2.5 400.56 2.47 400.6 2.5 C 400.9 2.5 401.1 2.6 401.1 2.9 C 401.1 3 401.1 3.1 401.1 3.1 C 401.1 3.1 400.6 5.5 400.6 5.5 C 400.6 5.7 400.5 5.9 400.5 6.1 C 400.5 6.6 400.7 7 401.4 7 C 402.5 7 403.5 5.8 403.7 4.8 C 403.68 4.79 404.1 2.5 404.1 2.5 L 404.8 2.5 C 404.8 2.5 404.02 6.53 404 6.5 C 404 6.6 404 6.7 404 6.8 C 404 6.9 404.1 6.9 404.2 6.9 C 404.18 6.91 404.6 6.9 404.6 6.9 L 404.5 7.5 C 404.5 7.5 403.79 7.5 403.8 7.5 C 403.4 7.5 403.3 7.3 403.3 7.1 C 403.3 6.9 403.4 6.6 403.4 6.3 C 403.4 6.3 403.4 6.3 403.4 6.3 C 403.1 6.8 402.4 7.6 401.2 7.6 C 400.2 7.6 399.8 7.1 399.8 6.3 C 399.8 6.1 399.8 5.9 399.9 5.7 Z M 406.4 3.3 C 406.4 3.2 406.4 3.1 406.2 3.1 C 406.22 3.06 405.8 3.1 405.8 3.1 L 405.9 2.5 C 405.9 2.5 406.62 2.47 406.6 2.5 C 407 2.5 407.1 2.6 407.1 2.9 C 407.1 3 407 3.6 406.9 3.8 C 406.9 3.8 407 3.8 407 3.8 C 407.3 3.1 408 2.4 408.8 2.4 C 408.9 2.4 409 2.4 409.1 2.5 C 409.1 2.5 409 3.1 409 3.1 C 408.9 3.1 408.8 3.1 408.7 3.1 C 407.6 3.1 406.9 4.4 406.6 5.6 C 406.64 5.58 406.3 7.5 406.3 7.5 L 405.6 7.5 C 405.6 7.5 406.4 3.28 406.4 3.3 Z M 412.1 2.4 C 413.5 2.4 414.4 3.2 414.4 4.5 C 414.4 6.3 412.9 7.6 411.2 7.6 C 409.9 7.6 409 6.7 409 5.4 C 409 3.7 410.5 2.4 412.1 2.4 Z M 411.3 7 C 412.5 7 413.7 5.9 413.7 4.5 C 413.7 3.6 413 3 412.1 3 C 410.9 3 409.7 4 409.7 5.4 C 409.7 6.3 410.4 7 411.3 7 Z M 415.9 3.4 C 415.9 3.3 415.9 3.3 415.9 3.2 C 415.9 3.1 415.9 3.1 415.7 3.1 C 415.72 3.06 415.3 3.1 415.3 3.1 L 415.4 2.5 C 415.4 2.5 416.11 2.47 416.1 2.5 C 416.5 2.5 416.6 2.6 416.6 2.8 C 416.6 3 416.6 3.2 416.5 3.4 C 416.5 3.4 416.5 3.4 416.5 3.4 C 416.8 2.9 417.5 2.4 418.4 2.4 C 419.6 2.4 420.2 3.1 420.2 4.4 C 420.2 6.3 418.9 7.6 417.5 7.6 C 416.8 7.6 416.2 7.3 415.9 6.6 C 415.92 6.61 415.9 6.6 415.9 6.6 C 415.9 6.6 415.88 6.84 415.8 7.1 C 415.83 7.09 415.4 9.5 415.4 9.5 L 414.7 9.5 C 414.7 9.5 415.87 3.45 415.9 3.4 Z M 416.2 5.5 C 416.2 6.4 416.6 7 417.4 7 C 418.4 7 419.5 6 419.5 4.5 C 419.5 3.5 419.1 3 418.3 3 C 417 3 416.2 4.3 416.2 5.5 C 416.2 5.5 416.2 5.5 416.2 5.5 Z M 423.9 2.4 C 425.1 2.4 425.7 3.1 425.7 4.2 C 425.67 4.56 425.5 5 425.5 5 L 421.7 5 C 421.7 5 421.62 5.22 421.6 5.4 C 421.6 6.3 422.2 7 423.2 7 C 424.14 7.01 424.9 6.4 424.9 6.4 L 425.1 7 C 425.1 7 424.26 7.62 423.2 7.6 C 421.8 7.6 420.9 6.8 420.9 5.5 C 420.9 3.9 422.2 2.4 423.9 2.4 Z M 424.9 4.5 C 424.9 4.5 424.97 4.3 425 4.1 C 425 3.3 424.5 2.9 423.8 2.9 C 423 2.9 422.2 3.5 421.8 4.5 C 421.81 4.47 424.9 4.5 424.9 4.5 Z M 426 6.3 C 426 4.8 427.9 4.4 429.4 4.4 C 429.41 4.4 429.7 4.4 429.7 4.4 C 429.7 4.4 429.75 4.27 429.7 4.3 C 429.8 4.1 429.8 4 429.8 3.8 C 429.8 3.2 429.5 2.9 428.8 2.9 C 428.4 2.9 427.7 3 427.6 3.4 C 427.65 3.36 427.6 3.7 427.6 3.7 L 426.9 3.7 C 426.9 3.7 427.03 3.2 427 3.2 C 427.2 2.6 428.2 2.4 428.9 2.4 C 430 2.4 430.5 2.9 430.5 3.7 C 430.5 3.9 430.5 4.1 430.4 4.4 C 430.4 4.4 430 6.5 430 6.5 C 430 6.6 429.9 6.7 429.9 6.8 C 429.9 6.8 430 6.9 430.1 6.9 C 430.13 6.91 430.5 6.9 430.5 6.9 L 430.4 7.5 C 430.4 7.5 429.8 7.5 429.8 7.5 C 429.4 7.5 429.3 7.3 429.3 7.1 C 429.3 7 429.3 6.7 429.4 6.5 C 429.4 6.5 429.4 6.5 429.4 6.5 C 429.4 6.5 428.7 7.6 427.5 7.6 C 426.7 7.6 426 7.2 426 6.3 C 426 6.3 426 6.3 426 6.3 Z M 426.7 6.2 C 426.7 6.8 427.1 7.1 427.6 7.1 C 428.7 7.1 429.4 5.9 429.6 5.2 C 429.58 5.17 429.6 4.9 429.6 4.9 C 429.6 4.9 429.34 4.94 429.3 4.9 C 428.5 4.9 426.7 5.1 426.7 6.2 C 426.7 6.2 426.7 6.2 426.7 6.2 Z M 432.2 3.4 C 432.3 3.4 432.3 3.3 432.3 3.2 C 432.3 3.1 432.2 3.1 432.1 3.1 C 432.09 3.06 431.7 3.1 431.7 3.1 L 431.8 2.5 C 431.8 2.5 432.48 2.47 432.5 2.5 C 432.8 2.5 433 2.6 433 2.9 C 433 3.1 432.9 3.4 432.9 3.6 C 432.9 3.6 432.9 3.6 432.9 3.6 C 433.2 3.2 433.9 2.4 435.1 2.4 C 436.1 2.4 436.5 2.9 436.5 3.7 C 436.5 3.9 436.5 4.1 436.4 4.3 C 436.4 4.3 436 6.6 436 6.6 C 436 6.6 436 6.7 436 6.8 C 436 6.9 436 6.9 436.2 6.9 C 436.16 6.91 436.6 6.9 436.6 6.9 L 436.5 7.5 C 436.5 7.5 435.77 7.5 435.8 7.5 C 435.4 7.5 435.2 7.4 435.2 7.1 C 435.2 7 435.3 6.9 435.3 6.8 C 435.3 6.8 435.7 4.5 435.7 4.5 C 435.8 4.3 435.8 4.1 435.8 3.9 C 435.8 3.4 435.6 3 434.9 3 C 433.8 3 432.8 4.1 432.6 5.1 C 432.61 5.11 432.1 7.5 432.1 7.5 L 431.5 7.5 C 431.5 7.5 432.25 3.45 432.2 3.4 Z M 443.1 2.4 C 444.4 2.4 445 3.1 445 4.2 C 444.96 4.56 444.8 5 444.8 5 L 441 5 C 441 5 440.91 5.22 440.9 5.4 C 440.9 6.3 441.5 7 442.5 7 C 443.43 7.01 444.2 6.4 444.2 6.4 L 444.4 7 C 444.4 7 443.55 7.62 442.5 7.6 C 441.1 7.6 440.2 6.8 440.2 5.5 C 440.2 3.9 441.4 2.4 443.1 2.4 Z M 444.2 4.5 C 444.2 4.5 444.26 4.3 444.3 4.1 C 444.3 3.3 443.8 2.9 443.1 2.9 C 442.3 2.9 441.5 3.5 441.1 4.5 C 441.1 4.47 444.2 4.5 444.2 4.5 Z M 447.3 4.8 C 447.3 4.8 446.51 3.26 446.5 3.3 C 446.4 3.1 446.3 3.1 446.1 3.1 C 446.08 3.06 445.9 3.1 445.9 3.1 L 446 2.5 C 446 2.5 446.41 2.47 446.4 2.5 C 446.8 2.5 446.9 2.6 447.1 3 C 447.1 3 447.7 4.1 447.7 4.1 C 447.74 4.24 447.8 4.4 447.8 4.4 L 447.8 4.4 C 447.8 4.4 447.93 4.24 448 4.1 C 448 4.1 448.9 3 448.9 3 C 449.3 2.6 449.4 2.5 449.9 2.5 C 449.94 2.47 450.4 2.5 450.4 2.5 L 450.3 3.1 C 450.3 3.1 450.08 3.06 450.1 3.1 C 449.9 3.1 449.7 3.1 449.6 3.3 C 449.57 3.26 448.1 4.9 448.1 4.9 L 449.4 7.5 L 448.7 7.5 L 447.8 5.6 L 447.6 5.4 L 447.6 5.4 C 447.6 5.4 447.53 5.51 447.4 5.6 C 447.4 5.65 445.8 7.5 445.8 7.5 L 445 7.5 L 447.3 4.8 Z M 451.3 3.4 C 451.4 3.3 451.4 3.3 451.4 3.2 C 451.4 3.1 451.3 3.1 451.2 3.1 C 451.2 3.06 450.8 3.1 450.8 3.1 L 450.9 2.5 C 450.9 2.5 451.59 2.47 451.6 2.5 C 452 2.5 452.1 2.6 452.1 2.8 C 452.1 3 452 3.2 452 3.4 C 452 3.4 452 3.4 452 3.4 C 452.3 2.9 452.9 2.4 453.9 2.4 C 455 2.4 455.7 3.1 455.7 4.4 C 455.7 6.3 454.4 7.6 453 7.6 C 452.3 7.6 451.6 7.3 451.4 6.6 C 451.4 6.61 451.4 6.6 451.4 6.6 C 451.4 6.6 451.36 6.84 451.3 7.1 C 451.31 7.09 450.8 9.5 450.8 9.5 L 450.2 9.5 C 450.2 9.5 451.35 3.45 451.3 3.4 Z M 451.7 5.5 C 451.7 6.4 452.1 7 452.9 7 C 453.9 7 455 6 455 4.5 C 455 3.5 454.5 3 453.7 3 C 452.5 3 451.7 4.3 451.7 5.5 C 451.7 5.5 451.7 5.5 451.7 5.5 Z M 459.3 2.4 C 460.6 2.4 461.1 3.1 461.1 4.2 C 461.15 4.56 461 5 461 5 L 457.1 5 C 457.1 5 457.1 5.22 457.1 5.4 C 457.1 6.3 457.6 7 458.7 7 C 459.62 7.01 460.3 6.4 460.3 6.4 L 460.6 7 C 460.6 7 459.74 7.62 458.7 7.6 C 457.3 7.6 456.4 6.8 456.4 5.5 C 456.4 3.9 457.6 2.4 459.3 2.4 Z M 460.4 4.5 C 460.4 4.5 460.45 4.3 460.4 4.1 C 460.4 3.3 460 2.9 459.3 2.9 C 458.5 2.9 457.6 3.5 457.3 4.5 C 457.29 4.47 460.4 4.5 460.4 4.5 Z M 462.6 3.3 C 462.6 3.2 462.6 3.1 462.4 3.1 C 462.43 3.06 462 3.1 462 3.1 L 462.1 2.5 C 462.1 2.5 462.83 2.47 462.8 2.5 C 463.2 2.5 463.3 2.6 463.3 2.9 C 463.3 3 463.2 3.6 463.1 3.8 C 463.1 3.8 463.2 3.8 463.2 3.8 C 463.5 3.1 464.2 2.4 465 2.4 C 465.1 2.4 465.2 2.4 465.3 2.5 C 465.3 2.5 465.2 3.1 465.2 3.1 C 465.1 3.1 465 3.1 464.9 3.1 C 463.8 3.1 463.1 4.4 462.8 5.6 C 462.85 5.58 462.5 7.5 462.5 7.5 L 461.8 7.5 C 461.8 7.5 462.61 3.28 462.6 3.3 Z M 465.7 5.7 C 465.72 5.65 466.2 3 466.2 3 L 465.6 3 L 465.7 2.5 L 466.3 2.5 L 466.6 1.1 L 467.3 1.1 L 467 2.5 L 468.3 2.5 L 468.2 3 L 466.9 3 C 466.9 3 466.42 5.58 466.4 5.6 C 466.4 5.8 466.4 5.9 466.4 6.1 C 466.4 6.9 466.9 6.9 467.3 6.9 C 467.43 6.93 467.5 6.9 467.5 6.9 L 467.4 7.5 C 467.4 7.5 467.28 7.54 467.1 7.5 C 466.6 7.5 465.7 7.3 465.7 6.2 C 465.7 6 465.7 5.8 465.7 5.7 Z M 472 3.4 C 472 3.3 472 3.3 472 3.2 C 472 3.1 472 3.1 471.8 3.1 C 471.84 3.06 471.4 3.1 471.4 3.1 L 471.5 2.5 C 471.5 2.5 472.23 2.47 472.2 2.5 C 472.6 2.5 472.7 2.6 472.7 2.8 C 472.7 3 472.7 3.2 472.6 3.4 C 472.6 3.4 472.6 3.4 472.6 3.4 C 473 2.9 473.6 2.4 474.5 2.4 C 475.7 2.4 476.3 3.1 476.3 4.4 C 476.3 6.3 475 7.6 473.6 7.6 C 472.9 7.6 472.3 7.3 472 6.6 C 472.04 6.61 472 6.6 472 6.6 C 472 6.6 472 6.84 471.9 7.1 C 471.95 7.09 471.5 9.5 471.5 9.5 L 470.8 9.5 C 470.8 9.5 471.99 3.45 472 3.4 Z M 472.3 5.5 C 472.3 6.4 472.7 7 473.5 7 C 474.5 7 475.6 6 475.6 4.5 C 475.6 3.5 475.2 3 474.4 3 C 473.1 3 472.3 4.3 472.3 5.5 C 472.3 5.5 472.3 5.5 472.3 5.5 Z M 476.8 6.3 C 476.8 4.8 478.6 4.4 480.2 4.4 C 480.18 4.4 480.5 4.4 480.5 4.4 C 480.5 4.4 480.52 4.27 480.5 4.3 C 480.5 4.1 480.6 4 480.6 3.8 C 480.6 3.2 480.2 2.9 479.5 2.9 C 479.2 2.9 478.5 3 478.4 3.4 C 478.42 3.36 478.4 3.7 478.4 3.7 L 477.7 3.7 C 477.7 3.7 477.8 3.2 477.8 3.2 C 477.9 2.6 478.9 2.4 479.6 2.4 C 480.8 2.4 481.2 2.9 481.2 3.7 C 481.2 3.9 481.2 4.1 481.2 4.4 C 481.2 4.4 480.8 6.5 480.8 6.5 C 480.7 6.6 480.7 6.7 480.7 6.8 C 480.7 6.8 480.8 6.9 480.9 6.9 C 480.9 6.91 481.3 6.9 481.3 6.9 L 481.2 7.5 C 481.2 7.5 480.57 7.5 480.6 7.5 C 480.2 7.5 480 7.3 480 7.1 C 480 7 480.1 6.7 480.1 6.5 C 480.1 6.5 480.1 6.5 480.1 6.5 C 480.1 6.5 479.5 7.6 478.2 7.6 C 477.5 7.6 476.8 7.2 476.8 6.3 C 476.8 6.3 476.8 6.3 476.8 6.3 Z M 477.5 6.2 C 477.5 6.8 477.8 7.1 478.4 7.1 C 479.4 7.1 480.2 5.9 480.3 5.2 C 480.35 5.17 480.4 4.9 480.4 4.9 C 480.4 4.9 480.11 4.94 480.1 4.9 C 479.3 4.9 477.5 5.1 477.5 6.2 C 477.5 6.2 477.5 6.2 477.5 6.2 Z M 483 3.4 C 483 3.4 483 3.3 483 3.2 C 483 3.1 483 3.1 482.9 3.1 C 482.86 3.06 482.5 3.1 482.5 3.1 L 482.6 2.5 C 482.6 2.5 483.25 2.47 483.2 2.5 C 483.6 2.5 483.8 2.6 483.8 2.9 C 483.8 3.1 483.7 3.4 483.6 3.6 C 483.6 3.6 483.6 3.6 483.6 3.6 C 483.9 3.2 484.7 2.4 485.9 2.4 C 486.8 2.4 487.3 2.9 487.3 3.7 C 487.3 3.9 487.2 4.1 487.2 4.3 C 487.2 4.3 486.8 6.6 486.8 6.6 C 486.8 6.6 486.7 6.7 486.7 6.8 C 486.7 6.9 486.8 6.9 486.9 6.9 C 486.93 6.91 487.3 6.9 487.3 6.9 L 487.2 7.5 C 487.2 7.5 486.54 7.5 486.5 7.5 C 486.2 7.5 486 7.4 486 7.1 C 486 7 486 6.9 486 6.8 C 486 6.8 486.5 4.5 486.5 4.5 C 486.5 4.3 486.6 4.1 486.6 3.9 C 486.6 3.4 486.4 3 485.7 3 C 484.5 3 483.6 4.1 483.4 5.1 C 483.38 5.11 482.9 7.5 482.9 7.5 L 482.2 7.5 C 482.2 7.5 483.02 3.45 483 3.4 Z M 491.2 2.4 C 492.4 2.4 493 3.1 493 4.2 C 492.97 4.56 492.8 5 492.8 5 L 489 5 C 489 5 488.92 5.22 488.9 5.4 C 488.9 6.3 489.5 7 490.5 7 C 491.44 7.01 492.2 6.4 492.2 6.4 L 492.4 7 C 492.4 7 491.56 7.62 490.5 7.6 C 489.1 7.6 488.2 6.8 488.2 5.5 C 488.2 3.9 489.5 2.4 491.2 2.4 Z M 492.2 4.5 C 492.2 4.5 492.27 4.3 492.3 4.1 C 492.3 3.3 491.8 2.9 491.1 2.9 C 490.3 2.9 489.5 3.5 489.1 4.5 C 489.11 4.47 492.2 4.5 492.2 4.5 Z M 493.7 6.8 C 493.7 6.8 494.8 1.4 494.8 1.4 C 494.8 1.3 494.8 1.3 494.8 1.2 C 494.8 1.1 494.7 1.1 494.6 1.1 C 494.63 1.06 494.2 1.1 494.2 1.1 L 494.3 0.5 C 494.3 0.5 495.02 0.47 495 0.5 C 495.4 0.5 495.5 0.6 495.5 0.9 C 495.5 1 495.5 1.1 495.5 1.2 C 495.5 1.2 494.5 6.6 494.5 6.6 C 494.4 6.6 494.4 6.7 494.4 6.8 C 494.4 6.9 494.5 6.9 494.6 6.9 C 494.62 6.91 495 6.9 495 6.9 L 494.9 7.5 C 494.9 7.5 494.23 7.5 494.2 7.5 C 493.9 7.5 493.7 7.4 493.7 7.1 C 493.7 7 493.7 6.9 493.7 6.8 Z M 499.6 3.3 C 499.6 3.2 499.6 3.1 499.4 3.1 C 499.41 3.06 499 3.1 499 3.1 L 499.1 2.5 C 499.1 2.5 499.81 2.47 499.8 2.5 C 500.2 2.5 500.3 2.6 500.3 2.9 C 500.3 3 500.2 3.6 500.1 3.8 C 500.1 3.8 500.1 3.8 500.1 3.8 C 500.5 3.1 501.2 2.4 502 2.4 C 502.1 2.4 502.2 2.4 502.3 2.5 C 502.3 2.5 502.1 3.1 502.1 3.1 C 502.1 3.1 502 3.1 501.9 3.1 C 500.8 3.1 500 4.4 499.8 5.6 C 499.83 5.58 499.5 7.5 499.5 7.5 L 498.8 7.5 C 498.8 7.5 499.59 3.28 499.6 3.3 Z M 505.1 2.4 C 506.4 2.4 506.9 3.1 506.9 4.2 C 506.95 4.56 506.8 5 506.8 5 L 502.9 5 C 502.9 5 502.9 5.22 502.9 5.4 C 502.9 6.3 503.4 7 504.5 7 C 505.42 7.01 506.1 6.4 506.1 6.4 L 506.4 7 C 506.4 7 505.54 7.62 504.5 7.6 C 503.1 7.6 502.2 6.8 502.2 5.5 C 502.2 3.9 503.4 2.4 505.1 2.4 Z M 506.2 4.5 C 506.2 4.5 506.25 4.3 506.2 4.1 C 506.2 3.3 505.8 2.9 505.1 2.9 C 504.3 2.9 503.4 3.5 503.1 4.5 C 503.09 4.47 506.2 4.5 506.2 4.5 Z M 508 3.3 C 508 3.1 507.9 3.1 507.8 3.1 C 507.76 3.06 507.6 3.1 507.6 3.1 L 507.7 2.5 C 507.7 2.5 508.07 2.47 508.1 2.5 C 508.4 2.5 508.6 2.6 508.7 3 C 508.7 3 509.3 6.2 509.3 6.2 C 509.29 6.37 509.3 6.8 509.3 6.8 L 509.3 6.8 C 509.3 6.8 509.48 6.4 509.6 6.2 C 509.6 6.2 511.4 3 511.4 3 C 511.7 2.6 511.8 2.5 512.3 2.5 C 512.29 2.47 512.6 2.5 512.6 2.5 L 512.5 3.1 C 512.5 3.1 512.4 3.06 512.4 3.1 C 512.2 3.1 512.1 3.1 512 3.3 C 512.04 3.29 509.6 7.5 509.6 7.5 L 508.8 7.5 C 508.8 7.5 508.03 3.33 508 3.3 Z M 514.1 0.5 L 514.7 0.5 L 514.5 1.3 L 513.9 1.3 L 514.1 0.5 Z M 512.8 6.8 C 512.8 6.8 513.5 3.4 513.5 3.4 C 513.5 3.3 513.5 3.3 513.5 3.2 C 513.5 3.1 513.5 3.1 513.4 3.1 C 513.36 3.06 512.9 3.1 512.9 3.1 L 513.1 2.5 C 513.1 2.5 513.74 2.47 513.7 2.5 C 514.1 2.5 514.3 2.6 514.3 2.9 C 514.3 3 514.2 3.1 514.2 3.2 C 514.2 3.2 513.6 6.6 513.6 6.6 C 513.6 6.6 513.5 6.7 513.5 6.8 C 513.5 6.9 513.6 6.9 513.7 6.9 C 513.73 6.91 514.1 6.9 514.1 6.9 L 514 7.5 C 514 7.5 513.34 7.5 513.3 7.5 C 513 7.5 512.8 7.4 512.8 7.1 C 512.8 7 512.8 6.9 512.8 6.8 Z M 518 2.4 C 519.3 2.4 519.8 3.1 519.8 4.2 C 519.83 4.56 519.7 5 519.7 5 L 515.8 5 C 515.8 5 515.78 5.22 515.8 5.4 C 515.8 6.3 516.3 7 517.4 7 C 518.3 7.01 519 6.4 519 6.4 L 519.2 7 C 519.2 7 518.42 7.62 517.3 7.6 C 516 7.6 515.1 6.8 515.1 5.5 C 515.1 3.9 516.3 2.4 518 2.4 Z M 519.1 4.5 C 519.1 4.5 519.13 4.3 519.1 4.1 C 519.1 3.3 518.6 2.9 518 2.9 C 517.2 2.9 516.3 3.5 516 4.5 C 515.97 4.47 519.1 4.5 519.1 4.5 Z M 521 3.3 C 520.9 3.1 520.9 3.1 520.7 3.1 C 520.7 3.06 520.5 3.1 520.5 3.1 L 520.6 2.5 C 520.6 2.5 521.08 2.47 521.1 2.5 C 521.4 2.5 521.6 2.6 521.6 3 C 521.6 3 522 6.2 522 6.2 C 522.09 6.47 522.1 6.8 522.1 6.8 L 522.1 6.8 C 522.1 6.8 522.24 6.47 522.4 6.2 C 522.37 6.22 524.3 2.5 524.3 2.5 L 525 2.5 C 525 2.5 525.52 6.22 525.5 6.2 C 525.55 6.47 525.6 6.8 525.6 6.8 L 525.6 6.8 C 525.6 6.8 525.71 6.47 525.8 6.2 C 525.8 6.2 527.5 3 527.5 3 C 527.7 2.6 527.9 2.5 528.3 2.5 C 528.35 2.47 528.8 2.5 528.8 2.5 L 528.7 3.1 C 528.7 3.1 528.52 3.06 528.5 3.1 C 528.3 3.1 528.2 3.1 528.1 3.3 C 528.13 3.29 525.9 7.5 525.9 7.5 L 525.1 7.5 C 525.1 7.5 524.58 3.92 524.6 3.9 C 524.54 3.67 524.5 3.4 524.5 3.4 L 524.5 3.4 C 524.5 3.4 524.38 3.67 524.2 3.9 C 524.25 3.92 522.3 7.5 522.3 7.5 L 521.6 7.5 C 521.6 7.5 520.96 3.29 521 3.3 Z M 528.5 6.7 L 529.3 6.7 L 529.2 7.5 L 528.4 7.5 L 528.5 6.7 Z " stroke="none" fill="#000"/>  </g></svg>