<?xml version="1.0" standalone="no"?><!DOCTYPE svg PUBLIC "-//W3C//DTD SVG 1.1//EN" "http://www.w3.org/Graphics/SVG/1.1/DTD/svg11.dtd"><svg xmlns="http://www.w3.org/2000/svg" version="1.1" width="93px" height="16.8px" viewBox="0 -2 93 16.8" style="top:-2px">  <desc>Factor XIII</desc>  <defs/>  <g id="Polygon77417">    <path d="M 22.4 0.5 L 26.5 0.5 L 26.5 1.2 L 23.2 1.2 L 23.2 4.1 L 26 4.1 L 26 4.8 L 23.2 4.8 L 23.2 8.2 L 22.4 8.2 L 22.4 0.5 Z M 30.6 4.8 C 30.63 4.83 30.9 4.8 30.9 4.8 C 30.9 4.8 30.94 4.69 30.9 4.7 C 30.9 3.6 30.4 3.3 29.6 3.3 C 28.65 3.26 28 3.8 28 3.8 L 27.7 3.2 C 27.7 3.2 28.38 2.59 29.6 2.6 C 31 2.6 31.7 3.3 31.7 4.7 C 31.69 4.71 31.7 8.2 31.7 8.2 L 31 8.2 C 31 8.2 30.98 7.64 31 7.6 C 31 7.4 31 7.2 31 7.2 C 31 7.18 31 7.2 31 7.2 C 31 7.2 30.51 8.38 29.1 8.4 C 28.2 8.4 27.2 7.8 27.2 6.7 C 27.2 4.9 29.7 4.8 30.6 4.8 Z M 29.2 7.7 C 30.3 7.7 30.9 6.6 30.9 5.7 C 30.94 5.69 30.9 5.4 30.9 5.4 C 30.9 5.4 30.62 5.44 30.6 5.4 C 29.8 5.4 28 5.5 28 6.7 C 28 7.2 28.4 7.7 29.2 7.7 Z M 35.9 2.6 C 37.29 2.59 38 3.4 38 3.4 L 37.6 3.9 C 37.6 3.9 36.96 3.27 36 3.3 C 34.7 3.3 33.8 4.2 33.8 5.5 C 33.8 6.8 34.8 7.7 36 7.7 C 37.1 7.71 37.8 6.9 37.8 6.9 L 38.1 7.5 C 38.1 7.5 37.34 8.38 35.9 8.4 C 34.3 8.4 33 7.2 33 5.5 C 33 3.8 34.3 2.6 35.9 2.6 Z M 39.7 3.4 L 38.9 3.4 L 38.9 2.8 L 39.7 2.8 L 39.7 1.2 L 40.4 1.2 L 40.4 2.8 L 41.8 2.8 L 41.8 3.4 L 40.4 3.4 C 40.4 3.4 40.41 6.16 40.4 6.2 C 40.4 7.5 41.2 7.6 41.7 7.6 C 41.81 7.62 41.9 7.6 41.9 7.6 L 41.9 8.3 C 41.9 8.3 41.79 8.29 41.6 8.3 C 41 8.3 39.7 8.1 39.7 6.2 C 39.67 6.24 39.7 3.4 39.7 3.4 Z M 45.7 2.6 C 47.3 2.6 48.6 3.8 48.6 5.5 C 48.6 7.1 47.3 8.4 45.7 8.4 C 44 8.4 42.7 7.1 42.7 5.5 C 42.7 3.8 44 2.6 45.7 2.6 Z M 45.7 7.7 C 46.8 7.7 47.8 6.7 47.8 5.5 C 47.8 4.2 46.8 3.3 45.7 3.3 C 44.5 3.3 43.5 4.2 43.5 5.5 C 43.5 6.7 44.5 7.7 45.7 7.7 Z M 50 2.7 L 50.7 2.7 C 50.7 2.7 50.72 3.7 50.7 3.7 C 50.7 3.9 50.7 4.1 50.7 4.1 C 50.7 4.1 50.7 4.1 50.7 4.1 C 51 3.3 51.6 2.7 52.5 2.7 C 52.6 2.7 52.8 2.7 52.8 2.7 C 52.77 2.7 52.8 3.4 52.8 3.4 C 52.8 3.4 52.63 3.41 52.5 3.4 C 51.7 3.4 51.1 4 50.9 4.8 C 50.8 5.2 50.7 5.6 50.7 5.9 C 50.73 5.92 50.7 8.2 50.7 8.2 L 50 8.2 L 50 2.7 Z M 58.7 4.2 L 56.5 0.5 L 57.4 0.5 C 57.4 0.5 58.71 2.81 58.7 2.8 C 58.94 3.2 59.2 3.7 59.2 3.7 L 59.2 3.7 C 59.2 3.7 59.45 3.2 59.7 2.8 C 59.7 2.81 61.1 0.5 61.1 0.5 L 62 0.5 L 59.7 4.2 L 62.2 8.2 L 61.3 8.2 C 61.3 8.2 59.68 5.58 59.7 5.6 C 59.44 5.18 59.2 4.7 59.2 4.7 L 59.2 4.7 C 59.2 4.7 58.95 5.18 58.7 5.6 C 58.71 5.59 57.1 8.2 57.1 8.2 L 56.2 8.2 L 58.7 4.2 Z M 63.6 0.5 L 64.3 0.5 L 64.3 8.2 L 63.6 8.2 L 63.6 0.5 Z M 66.6 0.5 L 67.4 0.5 L 67.4 8.2 L 66.6 8.2 L 66.6 0.5 Z M 69.6 0.5 L 70.4 0.5 L 70.4 8.2 L 69.6 8.2 L 69.6 0.5 Z " stroke="none" fill="#000"/>  </g></svg>