<?xml version="1.0" standalone="no"?><!DOCTYPE svg PUBLIC "-//W3C//DTD SVG 1.1//EN" "http://www.w3.org/Graphics/SVG/1.1/DTD/svg11.dtd"><svg xmlns="http://www.w3.org/2000/svg" version="1.1" width="30px" height="16.8px" viewBox="0 -2 30 16.8" style="top:-2px">  <desc>F Va</desc>  <defs/>  <g id="Polygon76878">    <path d="M 5.6 0.5 L 9.7 0.5 L 9.7 1.2 L 6.4 1.2 L 6.4 4.1 L 9.2 4.1 L 9.2 4.8 L 6.4 4.8 L 6.4 8.2 L 5.6 8.2 L 5.6 0.5 Z M 13.3 0.5 L 14.1 0.5 C 14.1 0.5 16.23 6.39 16.2 6.4 C 16.37 6.79 16.5 7.4 16.5 7.4 L 16.5 7.4 C 16.5 7.4 16.7 6.79 16.8 6.4 C 16.84 6.39 19 0.5 19 0.5 L 19.8 0.5 L 16.9 8.2 L 16.1 8.2 L 13.3 0.5 Z M 23.5 4.8 C 23.53 4.83 23.8 4.8 23.8 4.8 C 23.8 4.8 23.84 4.69 23.8 4.7 C 23.8 3.6 23.3 3.3 22.5 3.3 C 21.55 3.26 20.9 3.8 20.9 3.8 L 20.5 3.2 C 20.5 3.2 21.28 2.59 22.5 2.6 C 23.9 2.6 24.6 3.3 24.6 4.7 C 24.59 4.71 24.6 8.2 24.6 8.2 L 23.9 8.2 C 23.9 8.2 23.87 7.64 23.9 7.6 C 23.9 7.4 23.9 7.2 23.9 7.2 C 23.89 7.18 23.9 7.2 23.9 7.2 C 23.9 7.2 23.41 8.38 22 8.4 C 21.1 8.4 20.1 7.8 20.1 6.7 C 20.1 4.9 22.6 4.8 23.5 4.8 Z M 22.1 7.7 C 23.2 7.7 23.8 6.6 23.8 5.7 C 23.84 5.69 23.8 5.4 23.8 5.4 C 23.8 5.4 23.52 5.44 23.5 5.4 C 22.7 5.4 20.9 5.5 20.9 6.7 C 20.9 7.2 21.3 7.7 22.1 7.7 Z " stroke="none" fill="#000"/>  </g></svg>