<?xml version="1.0" standalone="no"?><!DOCTYPE svg PUBLIC "-//W3C//DTD SVG 1.1//EN" "http://www.w3.org/Graphics/SVG/1.1/DTD/svg11.dtd"><svg xmlns="http://www.w3.org/2000/svg" version="1.1" width="526.1px" height="43.5px" viewBox="0 -5 526.1 43.5" style="top:-5px">  <desc>Pe e CYP</desc>  <defs/>  <g id="Polygon74849">    <path d="M 2.3 18.8 L 13.3 14 L 13.3 13.9 L 2.3 9.2 L 2.3 7.2 L 15.9 13.2 L 15.9 14.7 L 2.3 20.8 L 2.3 18.8 Z M 29.5 3.3 L 27.6 3.3 L 27.6 1.4 C 27.6 1.4 36.51 1.41 36.5 1.4 C 40.3 1.4 43 3.9 43 7.8 C 43 11.7 40.3 14.2 36.5 14.2 C 36.51 14.22 31.6 14.2 31.6 14.2 L 31.6 22.5 L 29.5 22.5 L 29.5 3.3 Z M 36.2 12.4 C 39 12.4 40.9 10.7 40.9 7.8 C 40.9 4.9 39 3.3 36.3 3.3 C 36.27 3.27 31.6 3.3 31.6 3.3 L 31.6 12.4 C 31.6 12.4 36.24 12.36 36.2 12.4 Z M 51.7 7.1 C 55.9 7.1 58.1 10.3 58.1 14 C 58.08 14.37 58 15 58 15 C 58 15 46.44 15.03 46.4 15 C 46.5 18.8 49.2 21 52.3 21 C 55.05 21.03 56.8 19.2 56.8 19.2 L 57.8 20.7 C 57.8 20.7 55.62 22.86 52.2 22.9 C 47.7 22.9 44.3 19.6 44.3 15 C 44.3 10 47.7 7.1 51.7 7.1 Z M 56 13.4 C 55.9 10.3 53.9 8.8 51.7 8.8 C 49.2 8.8 47 10.4 46.5 13.4 C 46.5 13.4 56 13.4 56 13.4 Z M 68.7 7.1 C 70.4 7.1 74.1 7.8 74.1 10.3 C 74.07 10.26 74.1 11.6 74.1 11.6 L 72.1 11.6 C 72.1 11.6 72.15 10.74 72.1 10.7 C 72.1 9.5 70 8.9 68.7 8.9 C 65.5 8.9 62.8 11.3 62.8 15 C 62.8 18.7 65.6 21 68.8 21 C 71.85 21 73.6 18.9 73.6 18.9 L 74.6 20.4 C 74.6 20.4 72.54 22.86 68.7 22.9 C 64.2 22.9 60.7 19.7 60.7 15 C 60.7 10.4 64.2 7.1 68.7 7.1 Z M 64.7 1.4 L 66.6 1.4 L 68.2 3.8 L 68.3 3.8 L 69.9 1.4 L 71.8 1.4 L 69.3 5 L 67.2 5 L 64.7 1.4 Z M 84 7.1 C 88.2 7.1 90.4 10.3 90.4 14 C 90.36 14.37 90.3 15 90.3 15 C 90.3 15 78.72 15.03 78.7 15 C 78.8 18.8 81.4 21 84.6 21 C 87.33 21.03 89.1 19.2 89.1 19.2 L 90.1 20.7 C 90.1 20.7 87.9 22.86 84.5 22.9 C 80 22.9 76.6 19.6 76.6 15 C 76.6 10 80 7.1 84 7.1 Z M 88.3 13.4 C 88.1 10.3 86.2 8.8 84 8.8 C 81.5 8.8 79.3 10.4 78.8 13.4 C 78.8 13.4 88.3 13.4 88.3 13.4 Z M 94.4 9.8 C 94.4 9.4 94.2 9.2 93.8 9.2 C 93.78 9.18 92.5 9.2 92.5 9.2 L 92.5 7.4 C 92.5 7.4 94.62 7.41 94.6 7.4 C 95.9 7.4 96.4 8 96.4 9.1 C 96.4 9.1 96.4 9.8 96.4 9.8 C 96.45 10.38 96.4 10.9 96.4 10.9 C 96.4 10.9 96.45 10.86 96.4 10.9 C 97 9.5 98.9 7.1 102.4 7.1 C 106.2 7.1 107.5 9.2 107.5 12.9 C 107.5 12.9 107.5 20.1 107.5 20.1 C 107.5 20.5 107.8 20.7 108.2 20.7 C 108.18 20.73 109.4 20.7 109.4 20.7 L 109.4 22.5 C 109.4 22.5 107.31 22.5 107.3 22.5 C 106 22.5 105.5 22 105.5 20.7 C 105.5 20.7 105.5 13.4 105.5 13.4 C 105.5 11.1 105.1 9 102.2 9 C 99.6 9 97.4 10.7 96.7 13.2 C 96.5 13.9 96.5 14.6 96.5 15.3 C 96.48 15.27 96.5 22.5 96.5 22.5 L 94.4 22.5 C 94.4 22.5 94.44 9.84 94.4 9.8 Z M 97.8 1.4 L 99.7 1.4 L 101.3 3.8 L 101.4 3.8 L 103 1.4 L 104.9 1.4 L 102.4 5 L 100.3 5 L 97.8 1.4 Z M 129.8 1.1 C 132.8 1.1 137.7 2.3 137.7 5.5 C 137.67 5.52 137.7 7.3 137.7 7.3 L 135.7 7.3 C 135.7 7.3 135.69 6.09 135.7 6.1 C 135.7 4.1 132.3 3 129.8 3 C 125.2 3 121.6 6.7 121.6 11.8 C 121.6 16.8 125.1 20.9 129.9 20.9 C 134.28 20.88 136.8 17.9 136.8 17.9 L 138 19.4 C 138 19.4 135.12 22.86 129.9 22.9 C 123.7 22.9 119.4 17.9 119.4 11.8 C 119.4 5.7 123.8 1.1 129.8 1.1 Z M 146.6 13.3 C 146.6 13.3 140.94 4.05 140.9 4.1 C 140.5 3.4 140.2 3.3 139.5 3.3 C 139.53 3.27 139 3.3 139 3.3 L 139 1.4 C 139 1.4 139.86 1.41 139.9 1.4 C 141.3 1.4 141.8 1.6 142.7 3.1 C 142.7 3.1 146.3 9.1 146.3 9.1 C 146.97 10.17 147.6 11.4 147.6 11.4 L 147.7 11.4 C 147.7 11.4 148.29 10.17 148.9 9.1 C 148.9 9.1 152.5 3.1 152.5 3.1 C 153.4 1.6 154 1.4 155.4 1.4 C 155.4 1.41 156.2 1.4 156.2 1.4 L 156.2 3.3 C 156.2 3.3 155.73 3.27 155.7 3.3 C 155.1 3.3 154.7 3.4 154.3 4.1 C 154.35 4.05 148.7 13.3 148.7 13.3 L 148.7 22.5 L 146.6 22.5 L 146.6 13.3 Z M 159.7 3.3 L 157.8 3.3 L 157.8 1.4 C 157.8 1.4 166.68 1.41 166.7 1.4 C 170.4 1.4 173.2 3.9 173.2 7.8 C 173.2 11.7 170.4 14.2 166.7 14.2 C 166.68 14.22 161.8 14.2 161.8 14.2 L 161.8 22.5 L 159.7 22.5 L 159.7 3.3 Z M 166.4 12.4 C 169.2 12.4 171 10.7 171 7.8 C 171 4.9 169.2 3.3 166.4 3.3 C 166.44 3.27 161.8 3.3 161.8 3.3 L 161.8 12.4 C 161.8 12.4 166.41 12.36 166.4 12.4 Z " stroke="none" fill="#ee3078"/>  </g></svg>