<?xml version="1.0" standalone="no"?><!DOCTYPE svg PUBLIC "-//W3C//DTD SVG 1.1//EN" "http://www.w3.org/Graphics/SVG/1.1/DTD/svg11.dtd"><svg xmlns="http://www.w3.org/2000/svg" version="1.1" width="113.4px" height="78.9px" viewBox="0 0 113.4 78.9">  <desc>Vysok (~ 70 %)</desc>  <defs/>  <g id="Polygon69700">    <path d="M 39.9 40.7 C 39.9 40.7 40.9 40.7 40.9 40.7 C 40.1 42 39.7 43.5 39.7 45.1 C 39.7 46.7 40.1 48.3 40.9 49.8 C 40.9 49.8 40 49.8 40 49.8 C 39.2 48.5 38.7 46.8 38.7 45.1 C 38.7 43.5 39.1 42 39.9 40.7 Z M 43.6 44.6 C 44.8 44.6 44.9 45.7 45.7 45.7 C 46.3 45.7 46.5 45.2 46.5 44.7 C 46.5 44.7 47.3 44.7 47.3 44.7 C 47.3 46 46.8 46.6 45.8 46.6 C 44.7 46.6 44.5 45.5 43.7 45.5 C 43.1 45.5 43 46.1 43 46.5 C 43 46.5 42.1 46.5 42.1 46.5 C 42.1 45.2 42.7 44.6 43.6 44.6 Z M 55.1 42.6 C 55.36 42.19 55.6 41.9 55.6 41.9 L 55.6 41.9 C 55.6 41.9 55.39 41.93 55 41.9 C 55 41.9 52.7 41.9 52.7 41.9 C 52.5 41.9 52.4 42 52.4 42.2 C 52.42 42.17 52.4 42.7 52.4 42.7 L 51.4 42.7 C 51.4 42.7 51.41 41.69 51.4 41.7 C 51.4 41.2 51.6 41 52.1 41 C 52.08 40.99 56.8 41 56.8 41 L 56.8 41.7 L 53 48.8 L 51.8 48.8 C 51.8 48.8 55.11 42.63 55.1 42.6 Z M 57.3 44.9 C 57.3 42.6 57.9 40.9 60 40.9 C 62.1 40.9 62.8 42.6 62.8 44.9 C 62.8 47.1 62.1 48.9 60 48.9 C 57.9 48.9 57.3 47.1 57.3 44.9 Z M 61.6 44.9 C 61.6 43.2 61.3 41.9 60 41.9 C 58.7 41.9 58.4 43.2 58.4 44.9 C 58.4 46.6 58.7 47.9 60 47.9 C 61.3 47.9 61.6 46.6 61.6 44.9 Z M 67 42.5 C 67 41.6 67.7 40.9 68.6 40.9 C 69.5 40.9 70.3 41.6 70.3 42.5 C 70.3 43.4 69.5 44.1 68.6 44.1 C 67.7 44.1 67 43.4 67 42.5 Z M 73.1 41 L 74.1 41 L 68.2 48.8 L 67.1 48.8 L 73.1 41 Z M 69.4 42.5 C 69.4 42 69.1 41.7 68.6 41.7 C 68.2 41.7 67.8 42 67.8 42.5 C 67.8 42.9 68.2 43.3 68.6 43.3 C 69.1 43.3 69.4 42.9 69.4 42.5 Z M 72.6 45.6 C 73.5 45.6 74.3 46.4 74.3 47.3 C 74.3 48.2 73.5 48.9 72.6 48.9 C 71.7 48.9 70.9 48.2 70.9 47.3 C 70.9 46.4 71.7 45.6 72.6 45.6 Z M 71.8 47.3 C 71.8 47.7 72.2 48.1 72.6 48.1 C 73.1 48.1 73.4 47.7 73.4 47.3 C 73.4 46.8 73.1 46.4 72.6 46.4 C 72.2 46.4 71.8 46.8 71.8 47.3 C 71.8 47.3 71.8 47.3 71.8 47.3 Z M 76.7 45.1 C 76.7 43.5 76.3 42 75.5 40.7 C 75.5 40.7 76.4 40.7 76.4 40.7 C 77.2 42 77.6 43.5 77.6 45.1 C 77.6 46.8 77.2 48.5 76.4 49.8 C 76.4 49.8 75.4 49.8 75.4 49.8 C 76.2 48.3 76.7 46.7 76.7 45.1 Z " stroke="none" fill="#fff"/>  </g>  <g id="Polygon69699">    <path d="M 39 29 C 38.9 28.8 38.8 28.7 38.6 28.7 C 38.61 28.73 38.5 28.7 38.5 28.7 L 38.5 27.8 C 38.5 27.8 39.07 27.79 39.1 27.8 C 39.6 27.8 39.8 27.9 40 28.4 C 40 28.4 41.7 33.2 41.7 33.2 C 41.83 33.63 42 34.3 42 34.3 L 42 34.3 C 42 34.3 42.15 33.63 42.3 33.2 C 42.3 33.2 44 28.4 44 28.4 C 44.2 27.9 44.4 27.8 44.9 27.8 C 44.92 27.79 45.5 27.8 45.5 27.8 L 45.5 28.7 C 45.5 28.7 45.38 28.73 45.4 28.7 C 45.2 28.7 45.1 28.8 45 29 C 45.02 28.97 42.6 35.6 42.6 35.6 L 41.4 35.6 C 41.4 35.6 38.97 28.97 39 29 Z M 47 36.9 C 47.4 36.9 47.8 36.6 48 36.1 C 47.96 36.13 48.2 35.5 48.2 35.5 C 48.2 35.5 46.31 31.12 46.3 31.1 C 46.2 30.9 46.1 30.9 46 30.9 C 45.96 30.9 45.8 30.9 45.8 30.9 L 45.8 30 C 45.8 30 46.45 29.99 46.5 30 C 46.9 30 47.1 30.1 47.2 30.5 C 47.2 30.5 48.5 33.7 48.5 33.7 C 48.62 33.97 48.7 34.4 48.7 34.4 L 48.7 34.4 C 48.7 34.4 48.81 33.97 48.9 33.7 C 48.9 33.7 50.1 30.5 50.1 30.5 C 50.2 30.1 50.4 30 50.9 30 C 50.88 29.99 51.5 30 51.5 30 L 51.5 30.9 C 51.5 30.9 51.38 30.9 51.4 30.9 C 51.2 30.9 51.1 30.9 51 31.1 C 51 31.1 48.8 36.6 48.8 36.6 C 48.5 37.4 47.8 37.9 47 37.9 C 46.21 37.86 45.7 37.3 45.7 37.3 C 45.7 37.3 46.17 36.54 46.2 36.5 C 46.2 36.6 46.5 36.9 47 36.9 Z M 52.5 34 C 52.5 34 53.18 34.82 54.2 34.8 C 54.7 34.8 55.2 34.6 55.2 34.1 C 55.2 33.1 52.1 33.2 52.1 31.4 C 52.1 30.3 53.1 29.9 54.2 29.9 C 54.9 29.9 56 30.1 56 30.9 C 56.03 30.93 56 31.5 56 31.5 L 55.1 31.5 C 55.1 31.5 55.08 31.18 55.1 31.2 C 55.1 30.9 54.6 30.7 54.2 30.7 C 53.6 30.7 53.2 30.9 53.2 31.4 C 53.2 32.4 56.2 32.2 56.2 34.1 C 56.2 35 55.4 35.7 54.2 35.7 C 52.71 35.68 52 34.7 52 34.7 L 52.5 34 Z M 60.1 29.9 C 61.7 29.9 63.1 31.1 63.1 32.8 C 63.1 34.5 61.7 35.7 60.1 35.7 C 58.4 35.7 57.1 34.5 57.1 32.8 C 57.1 31.1 58.4 29.9 60.1 29.9 Z M 60.1 34.8 C 61.1 34.8 62 33.9 62 32.8 C 62 31.6 61.1 30.8 60.1 30.8 C 59 30.8 58.2 31.6 58.2 32.8 C 58.2 33.9 59 34.8 60.1 34.8 Z M 64.3 28.9 C 64.3 28.8 64.2 28.7 64 28.7 C 64.01 28.7 63.6 28.7 63.6 28.7 L 63.6 27.8 C 63.6 27.8 64.61 27.79 64.6 27.8 C 65.1 27.8 65.3 27.9 65.3 28.4 C 65.32 28.42 65.3 32 65.3 32 C 65.3 32 65.81 32.03 65.8 32 C 66 32 66.3 32 66.4 31.8 C 66.39 31.79 67.7 30 67.7 30 L 68.9 30 C 68.9 30 67.4 32.05 67.4 32.1 C 67.14 32.39 67 32.5 67 32.5 L 67 32.5 C 67 32.5 67.16 32.56 67.4 32.9 C 67.4 32.9 68.2 34.4 68.2 34.4 C 68.3 34.6 68.4 34.6 68.6 34.6 C 68.65 34.64 69 34.6 69 34.6 L 69 35.6 C 69 35.6 68.22 35.55 68.2 35.6 C 67.7 35.6 67.5 35.5 67.3 35 C 67.3 35 66.3 33.2 66.3 33.2 C 66.2 33 65.9 32.9 65.7 32.9 C 65.73 32.93 65.3 32.9 65.3 32.9 L 65.3 35.6 L 64.3 35.6 C 64.3 35.6 64.25 28.94 64.3 28.9 Z M 72.8 32.1 C 72.84 32.09 73.1 32.1 73.1 32.1 C 73.1 32.1 73.08 32.03 73.1 32 C 73.1 31.1 72.7 30.7 71.9 30.7 C 71.6 30.7 70.9 30.8 70.9 31.1 C 70.94 31.13 70.9 31.4 70.9 31.4 L 69.9 31.4 C 69.9 31.4 69.94 30.9 69.9 30.9 C 69.9 30 71.3 29.9 71.9 29.9 C 73.7 29.9 74.1 30.8 74.1 32 C 74.1 32 74.1 34.4 74.1 34.4 C 74.1 34.6 74.2 34.6 74.4 34.6 C 74.39 34.64 74.8 34.6 74.8 34.6 L 74.8 35.6 C 74.8 35.6 73.84 35.55 73.8 35.6 C 73.3 35.6 73.1 35.3 73.1 34.9 C 73.1 34.7 73.2 34.6 73.2 34.6 C 73.17 34.58 73.1 34.6 73.1 34.6 C 73.1 34.6 72.71 35.68 71.4 35.7 C 70.4 35.7 69.5 35.1 69.5 34 C 69.5 32.2 71.9 32.1 72.8 32.1 Z M 71.6 34.8 C 72.5 34.8 73.1 33.9 73.1 33.1 C 73.09 33.05 73.1 32.9 73.1 32.9 C 73.1 32.9 72.82 32.87 72.8 32.9 C 72 32.9 70.6 32.9 70.6 33.9 C 70.6 34.4 70.9 34.8 71.6 34.8 Z M 72.4 27.8 L 73.4 27.8 L 72.4 29.2 L 71.6 29.2 L 72.4 27.8 Z " stroke="none" fill="#fff"/>  </g></svg>