<?xml version="1.0" standalone="no"?><!DOCTYPE svg PUBLIC "-//W3C//DTD SVG 1.1//EN" "http://www.w3.org/Graphics/SVG/1.1/DTD/svg11.dtd"><svg xmlns="http://www.w3.org/2000/svg" version="1.1" width="44px" height="19.5px" viewBox="0 -1 44 19.5" style="top:-1px">  <desc>26.4%</desc>  <defs/>  <g id="Polygon80170">    <path d="M 7.6 11.3 C 7.6 11 7.7 10.7 7.7 10.4 C 7.8 10.1 7.9 9.9 8.1 9.6 C 8.3 9.3 8.5 9.1 8.7 8.9 C 9 8.6 9.3 8.4 9.6 8.2 C 10.1 7.8 10.5 7.5 10.7 7.2 C 11 6.9 11.1 6.5 11.1 6.1 C 11.1 5.2 10.6 4.8 9.6 4.8 C 9.1 4.8 8.6 4.9 7.9 5.1 C 7.9 5.1 7.8 4.3 7.8 4.3 C 8.2 4.2 8.5 4.1 8.8 4.1 C 9.2 4 9.5 4 9.7 4 C 11.2 4 12 4.7 12 6.1 C 12 6.3 11.9 6.6 11.9 6.8 C 11.8 7 11.7 7.3 11.6 7.5 C 11.4 7.7 11.2 7.9 11 8.1 C 10.8 8.3 10.5 8.5 10.2 8.7 C 9.9 8.9 9.6 9.2 9.4 9.4 C 9.2 9.6 9 9.7 8.9 9.9 C 8.8 10.1 8.7 10.3 8.6 10.5 C 8.6 10.7 8.5 10.9 8.5 11.2 C 8.53 11.18 8.5 11.7 8.5 11.7 L 12 11.7 L 12 12.5 L 7.6 12.5 C 7.6 12.5 7.61 11.35 7.6 11.3 Z M 15.7 12.6 C 14.9 12.6 14.2 12.3 13.7 11.6 C 13.3 11 13.1 10 13.1 8.8 C 13.1 8 13.1 7.3 13.3 6.7 C 13.4 6.1 13.7 5.6 13.9 5.2 C 14.2 4.8 14.6 4.5 15 4.3 C 15.4 4.1 15.9 4 16.5 4 C 16.7 4 16.9 4 17.1 4 C 17.3 4 17.5 4.1 17.8 4.2 C 17.8 4.2 17.7 4.9 17.7 4.9 C 17.5 4.8 17.2 4.8 17 4.8 C 16.9 4.7 16.7 4.7 16.5 4.7 C 15.7 4.7 15.1 5 14.7 5.6 C 14.3 6.2 14 7 14 8.1 C 14.2 7.9 14.5 7.7 14.9 7.5 C 15.2 7.4 15.5 7.3 15.9 7.3 C 16.2 7.3 16.6 7.4 16.9 7.5 C 17.1 7.6 17.4 7.8 17.6 8 C 17.8 8.2 18 8.5 18.1 8.8 C 18.2 9.1 18.2 9.4 18.2 9.8 C 18.2 10.2 18.2 10.6 18.1 10.9 C 18 11.3 17.8 11.6 17.6 11.8 C 17.3 12.1 17.1 12.3 16.8 12.4 C 16.5 12.5 16.1 12.6 15.7 12.6 Z M 15.7 8 C 15.4 8 15.1 8.1 14.8 8.3 C 14.5 8.4 14.2 8.6 13.9 8.9 C 14 9.9 14.1 10.6 14.4 11.1 C 14.7 11.6 15.1 11.8 15.7 11.8 C 16.2 11.8 16.6 11.7 16.9 11.3 C 17.2 10.9 17.3 10.4 17.3 9.8 C 17.3 9.2 17.2 8.8 16.9 8.5 C 16.6 8.2 16.2 8 15.7 8 Z M 20.5 11.9 C 20.5 12.3 20.3 12.5 19.9 12.5 C 19.5 12.5 19.3 12.3 19.3 11.9 C 19.3 11.6 19.5 11.4 19.9 11.4 C 20 11.4 20.2 11.4 20.3 11.5 C 20.4 11.6 20.5 11.7 20.5 11.9 C 20.5 11.9 20.5 11.9 20.5 11.9 Z M 21.2 10 L 21.2 9.9 L 24 4 L 24.1 4 L 24.9 4.1 L 24.9 4.2 L 22.2 9.7 L 22.2 9.7 L 24.8 9.7 L 25.1 6.8 L 25.7 6.8 L 25.7 9.7 L 26.7 9.7 L 26.7 10.5 L 25.7 10.5 L 25.7 12.5 L 24.8 12.5 L 24.8 10.5 L 21.4 10.5 L 21.2 10 Z M 29.2 9.3 C 28.6 9.3 28.2 9.1 27.9 8.6 C 27.6 8.2 27.4 7.5 27.4 6.6 C 27.4 5.8 27.6 5.1 27.9 4.6 C 28.2 4.2 28.6 4 29.2 4 C 29.9 4 30.3 4.2 30.6 4.6 C 30.9 5.1 31.1 5.8 31.1 6.6 C 31.1 7.5 30.9 8.2 30.6 8.6 C 30.3 9.1 29.9 9.3 29.2 9.3 Z M 28.1 6.6 C 28.1 8 28.5 8.6 29.2 8.6 C 30 8.6 30.3 8 30.3 6.6 C 30.3 5.3 30 4.6 29.2 4.6 C 28.5 4.6 28.1 5.3 28.1 6.6 C 28.1 6.6 28.1 6.6 28.1 6.6 Z M 34.5 12.6 C 33.9 12.6 33.4 12.4 33.1 11.9 C 32.8 11.5 32.7 10.8 32.7 10 C 32.7 9.1 32.8 8.4 33.1 8 C 33.4 7.5 33.9 7.3 34.5 7.3 C 35.1 7.3 35.6 7.5 35.9 8 C 36.2 8.4 36.3 9.1 36.3 10 C 36.3 10.8 36.2 11.5 35.9 11.9 C 35.6 12.4 35.1 12.6 34.5 12.6 Z M 33.4 10 C 33.4 11.3 33.8 12 34.5 12 C 35.3 12 35.6 11.3 35.6 10 C 35.6 8.6 35.3 8 34.5 8 C 33.8 8 33.4 8.6 33.4 10 C 33.4 10 33.4 10 33.4 10 Z M 33.1 4.1 L 33.9 4.1 L 30.6 12.5 L 29.8 12.5 L 33.1 4.1 Z " stroke="none" fill="#ee3078"/>  </g></svg>