<?xml version="1.0" standalone="no"?><!DOCTYPE svg PUBLIC "-//W3C//DTD SVG 1.1//EN" "http://www.w3.org/Graphics/SVG/1.1/DTD/svg11.dtd"><svg xmlns="http://www.w3.org/2000/svg" version="1.1" width="16px" height="15.5px" viewBox="0 -2 16 15.5" style="top:-2px">  <desc>20</desc>  <defs/>  <g id="Polygon73301">    <path d="M 8.1 2.3 C 8.1 1.6 7.6 1 6.7 1 C 6 1 5.4 1.4 5.4 1.8 C 5.43 1.77 5.4 2.1 5.4 2.1 L 4.8 2.1 C 4.8 2.1 4.77 1.58 4.8 1.6 C 4.8 0.7 6 0.4 6.7 0.4 C 8 0.4 8.8 1.2 8.8 2.3 C 8.8 4.8 5.1 4.7 5.1 6.7 C 5.1 6.8 5.2 6.9 5.4 6.9 C 5.4 6.9 8.3 6.9 8.3 6.9 C 8.4 6.9 8.5 6.8 8.5 6.7 C 8.51 6.66 8.5 6.2 8.5 6.2 L 9.2 6.2 C 9.2 6.2 9.16 6.89 9.2 6.9 C 9.2 7.3 9 7.5 8.6 7.5 C 8.6 7.5 5 7.5 5 7.5 C 4.6 7.5 4.4 7.3 4.4 6.8 C 4.4 4.2 8.1 4.4 8.1 2.3 Z M 10.2 4 C 10.2 2 10.8 0.4 12.6 0.4 C 14.4 0.4 15 2 15 4 C 15 6 14.4 7.6 12.6 7.6 C 10.8 7.6 10.2 6 10.2 4 Z M 14.3 4 C 14.3 2.3 13.9 1 12.6 1 C 11.3 1 10.9 2.3 10.9 4 C 10.9 5.7 11.3 7 12.6 7 C 13.9 7 14.3 5.7 14.3 4 Z " stroke="none" fill="#000"/>  </g></svg>