<?xml version="1.0" standalone="no"?><!DOCTYPE svg PUBLIC "-//W3C//DTD SVG 1.1//EN" "http://www.w3.org/Graphics/SVG/1.1/DTD/svg11.dtd"><svg xmlns="http://www.w3.org/2000/svg" version="1.1" width="375.4px" height="27.9px" viewBox="0 -1 375.4 27.9" style="top:-1px">  <desc>Cyklus (po et astn ok)</desc>  <defs/>  <g id="Polygon78457">    <path d="M 125.4 13.7 C 124 13.7 123 13.3 122.3 12.5 C 121.6 11.7 121.3 10.4 121.3 8.7 C 121.3 7.9 121.4 7.1 121.5 6.5 C 121.7 5.8 121.9 5.3 122.3 4.9 C 122.6 4.5 123 4.2 123.6 4 C 124.1 3.8 124.7 3.7 125.4 3.7 C 125.7 3.7 125.9 3.7 126.2 3.8 C 126.5 3.8 126.8 3.8 127.1 3.9 C 127.1 3.9 127.1 4.8 127.1 4.8 C 126.9 4.7 126.6 4.7 126.3 4.7 C 126.1 4.7 125.8 4.6 125.6 4.6 C 125 4.6 124.5 4.7 124.1 4.9 C 123.7 5 123.4 5.2 123.1 5.6 C 122.9 5.9 122.7 6.3 122.5 6.8 C 122.4 7.4 122.4 8 122.4 8.7 C 122.4 9.5 122.4 10.1 122.6 10.6 C 122.7 11.1 122.9 11.5 123.1 11.9 C 123.4 12.2 123.7 12.4 124.1 12.6 C 124.5 12.7 124.9 12.8 125.5 12.8 C 125.6 12.8 125.7 12.8 125.8 12.8 C 126 12.8 126.1 12.8 126.3 12.8 C 126.4 12.8 126.6 12.7 126.7 12.7 C 126.9 12.7 127 12.7 127.1 12.6 C 127.1 12.6 127.1 13.5 127.1 13.5 C 126.9 13.6 126.6 13.7 126.3 13.7 C 126.1 13.7 125.7 13.7 125.4 13.7 Z M 129.2 16.3 L 129.2 16.2 L 130.2 13.6 L 127.6 6.6 L 127.6 6.5 L 128.7 6.5 L 130.4 11.6 L 130.7 12.5 L 130.7 12.5 L 131 11.6 L 132.8 6.5 L 133.8 6.5 L 133.8 6.6 L 130.2 16.5 L 129.2 16.3 Z M 134.9 2.9 L 135.9 2.9 L 135.9 9.6 L 136.9 9.6 L 139 6.5 L 140.1 6.5 L 137.8 9.8 L 137.6 9.9 L 137.6 10 L 137.8 10.1 L 140.4 13.6 L 139.2 13.6 L 136.9 10.3 L 135.9 10.3 L 135.9 13.6 L 134.9 13.6 L 134.9 2.9 Z M 141.3 2.9 L 142.3 2.9 L 142.3 13.6 L 141.3 13.6 L 141.3 2.9 Z M 145.7 13.7 C 145.2 13.7 144.7 13.6 144.4 13.3 C 144.2 13 144 12.5 144 11.8 C 144.03 11.84 144 6.5 144 6.5 L 145.1 6.5 C 145.1 6.5 145.07 11.56 145.1 11.6 C 145.1 12 145.1 12.4 145.3 12.5 C 145.4 12.7 145.7 12.8 146.1 12.8 C 146.4 12.8 146.7 12.7 147.1 12.6 C 147.4 12.5 147.8 12.3 148.2 12 C 148.16 12.01 148.2 6.5 148.2 6.5 L 149.2 6.5 L 149.2 13.6 L 148.3 13.6 L 148.2 12.8 C 148.2 12.8 148.19 12.82 148.2 12.8 C 147.9 13 147.7 13.1 147.4 13.2 C 147.2 13.4 147 13.5 146.8 13.5 C 146.6 13.6 146.5 13.7 146.3 13.7 C 146.1 13.7 145.9 13.7 145.7 13.7 Z M 152.6 13.8 C 152.3 13.8 152 13.7 151.7 13.7 C 151.4 13.6 151 13.6 150.6 13.5 C 150.6 13.5 150.6 12.6 150.6 12.6 C 150.9 12.7 151.3 12.8 151.6 12.8 C 151.9 12.9 152.3 12.9 152.6 12.9 C 153 12.9 153.4 12.8 153.6 12.6 C 153.8 12.4 154 12.1 154 11.7 C 154 11.3 153.8 11.1 153.6 10.9 C 153.4 10.7 153.1 10.5 152.7 10.4 C 152.5 10.4 152.2 10.3 152 10.2 C 151.8 10.2 151.6 10.1 151.4 9.9 C 151.2 9.8 151 9.6 150.9 9.3 C 150.7 9.1 150.7 8.8 150.7 8.3 C 150.7 7.7 150.9 7.2 151.3 6.9 C 151.7 6.5 152.2 6.3 152.9 6.3 C 153.2 6.3 153.5 6.3 153.7 6.4 C 154 6.4 154.3 6.5 154.7 6.5 C 154.7 6.5 154.7 7.4 154.7 7.4 C 154.3 7.3 154 7.3 153.8 7.2 C 153.5 7.2 153.3 7.2 153.1 7.2 C 152.6 7.2 152.3 7.3 152 7.5 C 151.8 7.7 151.7 8 151.7 8.3 C 151.7 8.5 151.7 8.7 151.8 8.9 C 151.8 9 151.9 9.1 152.1 9.2 C 152.2 9.3 152.3 9.4 152.5 9.4 C 152.7 9.5 152.8 9.5 153 9.6 C 153.3 9.6 153.6 9.7 153.8 9.8 C 154 9.9 154.2 10.1 154.4 10.2 C 154.6 10.4 154.7 10.6 154.8 10.8 C 154.9 11 155 11.3 155 11.7 C 155 12.3 154.7 12.8 154.3 13.2 C 153.9 13.6 153.3 13.8 152.6 13.8 Z M 160.7 15.7 C 160.1 14.7 159.6 13.7 159.2 12.5 C 158.9 11.4 158.7 10.2 158.7 8.9 C 158.7 7.7 158.9 6.5 159.2 5.3 C 159.6 4.2 160.1 3.1 160.7 2.1 C 160.73 2.14 161.7 2.1 161.7 2.1 C 161.7 2.1 161.65 2.19 161.7 2.2 C 161 3.2 160.5 4.2 160.1 5.4 C 159.8 6.5 159.6 7.7 159.6 8.9 C 159.6 10.2 159.8 11.4 160.1 12.5 C 160.5 13.7 161 14.7 161.7 15.7 C 161.65 15.67 161.7 15.7 161.7 15.7 L 160.7 15.7 C 160.7 15.7 160.73 15.73 160.7 15.7 Z M 162.4 6.5 L 163.3 6.5 L 163.4 7.2 C 163.4 7.2 163.48 7.23 163.5 7.2 C 163.7 6.9 164 6.7 164.3 6.6 C 164.6 6.4 165 6.4 165.4 6.4 C 166.2 6.4 166.9 6.7 167.3 7.2 C 167.7 7.8 167.9 8.7 167.9 9.9 C 167.9 10.5 167.9 11 167.7 11.4 C 167.6 11.9 167.4 12.3 167.2 12.7 C 166.9 13 166.6 13.3 166.1 13.5 C 165.7 13.6 165.3 13.7 164.7 13.7 C 164.5 13.7 164.3 13.7 164.1 13.7 C 163.9 13.7 163.7 13.7 163.5 13.6 C 163.46 13.62 163.5 16.5 163.5 16.5 L 162.4 16.5 L 162.4 6.5 Z M 163.5 12.8 C 163.9 12.9 164.3 12.9 164.7 12.9 C 165.4 12.9 166 12.7 166.3 12.2 C 166.7 11.8 166.8 11 166.8 10 C 166.8 9 166.7 8.3 166.4 7.8 C 166.2 7.4 165.7 7.2 165.1 7.2 C 164.9 7.2 164.7 7.2 164.5 7.3 C 164.3 7.4 164.1 7.5 164 7.6 C 163.8 7.7 163.7 7.9 163.6 8.1 C 163.5 8.3 163.5 8.5 163.5 8.7 C 163.46 8.74 163.5 12.8 163.5 12.8 C 163.5 12.8 163.46 12.79 163.5 12.8 Z M 171.9 13.7 C 171 13.7 170.2 13.4 169.8 12.8 C 169.3 12.2 169 11.3 169 10 C 169 8.8 169.3 7.9 169.8 7.3 C 170.3 6.7 171 6.3 171.9 6.3 C 172.9 6.3 173.6 6.7 174.1 7.3 C 174.6 7.9 174.8 8.8 174.8 10 C 174.8 11.3 174.6 12.2 174.1 12.8 C 173.6 13.4 172.9 13.7 171.9 13.7 Z M 171.9 12.9 C 172.6 12.9 173 12.6 173.3 12.2 C 173.6 11.7 173.8 11 173.8 10 C 173.8 9.1 173.6 8.3 173.3 7.9 C 173 7.4 172.6 7.2 171.9 7.2 C 171.3 7.2 170.8 7.4 170.5 7.9 C 170.2 8.3 170.1 9.1 170.1 10 C 170.1 11 170.2 11.7 170.5 12.2 C 170.8 12.6 171.3 12.9 171.9 12.9 Z M 176.6 3.4 L 178.5 4.4 L 180.4 3.4 L 180.4 4.3 L 178.5 5.2 L 176.6 4.3 L 176.6 3.4 Z M 179 13.7 C 178 13.7 177.2 13.4 176.7 12.8 C 176.2 12.2 176 11.3 176 10 C 176 7.6 177 6.3 179 6.3 C 179.4 6.3 179.8 6.4 180.4 6.5 C 180.4 6.5 180.4 7.4 180.4 7.4 C 180.1 7.3 179.9 7.3 179.7 7.3 C 179.5 7.3 179.3 7.3 179.1 7.3 C 178.4 7.3 177.9 7.5 177.5 7.9 C 177.2 8.4 177 9.1 177 10 C 177 11 177.2 11.7 177.5 12.2 C 177.8 12.6 178.4 12.8 179.1 12.8 C 179.3 12.8 179.5 12.8 179.7 12.8 C 179.9 12.8 180.1 12.7 180.4 12.7 C 180.4 12.7 180.4 13.6 180.4 13.6 C 180.2 13.6 180 13.7 179.7 13.7 C 179.5 13.7 179.2 13.7 179 13.7 Z M 184.2 13.7 C 183.2 13.7 182.5 13.4 182 12.8 C 181.5 12.2 181.3 11.3 181.3 10.2 C 181.3 8.9 181.5 8 182 7.3 C 182.5 6.7 183.2 6.4 184.1 6.4 C 184.9 6.4 185.5 6.6 185.9 7.1 C 186.3 7.7 186.5 8.4 186.5 9.5 C 186.5 9.7 186.5 9.9 186.5 10 C 186.5 10.2 186.5 10.3 186.5 10.4 C 186.5 10.4 182.3 10.4 182.3 10.4 C 182.3 11.3 182.5 11.9 182.8 12.3 C 183.2 12.7 183.6 12.9 184.3 12.9 C 184.9 12.9 185.5 12.7 186.2 12.5 C 186.2 12.5 186.2 13.3 186.2 13.3 C 186 13.4 185.6 13.5 185.3 13.6 C 184.9 13.7 184.6 13.7 184.2 13.7 Z M 184.1 7.2 C 183 7.2 182.4 8 182.3 9.6 C 182.3 9.6 185.6 9.6 185.6 9.6 C 185.5 8.8 185.4 8.1 185.2 7.8 C 185 7.4 184.6 7.2 184.1 7.2 Z M 191.5 13.6 C 191.1 13.7 190.7 13.7 190.4 13.7 C 189.2 13.7 188.5 13 188.5 11.7 C 188.52 11.75 188.5 7.4 188.5 7.4 L 187.2 7.4 L 187.2 6.5 L 188.6 6.5 L 188.7 4.7 L 189.6 4.6 L 189.6 6.5 L 191.5 6.5 L 191.5 7.4 L 189.6 7.4 C 189.6 7.4 189.55 11.55 189.6 11.5 C 189.6 12.4 189.9 12.8 190.7 12.8 C 190.8 12.8 190.9 12.8 191 12.8 C 191.2 12.8 191.3 12.8 191.5 12.7 C 191.45 12.73 191.5 13.6 191.5 13.6 C 191.5 13.6 191.45 13.57 191.5 13.6 Z M 197.4 5.5 L 198.3 3 L 199.4 3 L 198.1 5.6 L 197.4 5.5 Z M 196.9 13.7 C 196.3 13.7 195.9 13.6 195.6 13.3 C 195.3 13 195.2 12.5 195.2 11.8 C 195.15 11.84 195.2 6.5 195.2 6.5 L 196.2 6.5 C 196.2 6.5 196.2 11.56 196.2 11.6 C 196.2 12 196.3 12.4 196.4 12.5 C 196.6 12.7 196.8 12.8 197.2 12.8 C 197.5 12.8 197.9 12.7 198.2 12.6 C 198.5 12.5 198.9 12.3 199.3 12 C 199.29 12.01 199.3 6.5 199.3 6.5 L 200.3 6.5 L 200.3 13.6 L 199.4 13.6 L 199.4 12.8 C 199.4 12.8 199.32 12.82 199.3 12.8 C 199 13 198.8 13.1 198.6 13.2 C 198.4 13.4 198.2 13.5 198 13.5 C 197.8 13.6 197.6 13.7 197.4 13.7 C 197.2 13.7 197.1 13.7 196.9 13.7 Z M 202.4 3.4 L 204.3 4.4 L 206.2 3.4 L 206.2 4.3 L 204.3 5.2 L 202.4 4.3 L 202.4 3.4 Z M 204.8 13.7 C 203.8 13.7 203 13.4 202.5 12.8 C 202 12.2 201.8 11.3 201.8 10 C 201.8 7.6 202.8 6.3 204.8 6.3 C 205.2 6.3 205.7 6.4 206.2 6.5 C 206.2 6.5 206.2 7.4 206.2 7.4 C 205.9 7.3 205.7 7.3 205.5 7.3 C 205.3 7.3 205.1 7.3 204.9 7.3 C 204.2 7.3 203.7 7.5 203.3 7.9 C 203 8.4 202.8 9.1 202.8 10 C 202.8 11 203 11.7 203.3 12.2 C 203.7 12.6 204.2 12.8 204.9 12.8 C 205.1 12.8 205.3 12.8 205.5 12.8 C 205.7 12.8 205.9 12.7 206.2 12.7 C 206.2 12.7 206.2 13.6 206.2 13.6 C 206 13.6 205.8 13.7 205.5 13.7 C 205.3 13.7 205 13.7 204.8 13.7 Z M 208.9 13.7 C 208.3 13.7 207.9 13.5 207.6 13.2 C 207.2 12.9 207.1 12.4 207.1 11.8 C 207.1 11.1 207.3 10.6 207.7 10.3 C 208.1 9.9 208.8 9.7 209.7 9.6 C 209.65 9.62 211.1 9.5 211.1 9.5 C 211.1 9.5 211.06 8.84 211.1 8.8 C 211.1 8.2 211 7.8 210.7 7.6 C 210.5 7.3 210.1 7.2 209.5 7.2 C 209.3 7.2 209 7.2 208.6 7.3 C 208.3 7.3 208 7.4 207.7 7.4 C 207.7 7.4 207.6 6.6 207.6 6.6 C 208.4 6.5 209.1 6.4 209.7 6.4 C 210.5 6.4 211.1 6.6 211.5 6.9 C 211.9 7.3 212.1 7.9 212.1 8.6 C 212.1 8.64 212.1 13.6 212.1 13.6 L 211.2 13.6 L 211.1 12.7 C 211.1 12.7 211.05 12.74 211.1 12.7 C 210.7 13 210.4 13.2 210 13.4 C 209.6 13.6 209.3 13.7 208.9 13.7 Z M 208.1 11.7 C 208.1 12.5 208.5 12.8 209.2 12.8 C 209.4 12.8 209.5 12.8 209.7 12.8 C 209.8 12.7 210 12.6 210.2 12.6 C 210.3 12.5 210.5 12.4 210.6 12.3 C 210.8 12.2 210.9 12.1 211.1 12.1 C 211.06 12.05 211.1 10.2 211.1 10.2 C 211.1 10.2 209.89 10.33 209.9 10.3 C 209.3 10.4 208.8 10.5 208.5 10.7 C 208.3 10.9 208.1 11.3 208.1 11.7 C 208.1 11.7 208.1 11.7 208.1 11.7 Z M 215.5 13.8 C 215.2 13.8 214.9 13.7 214.6 13.7 C 214.3 13.6 213.9 13.6 213.5 13.5 C 213.5 13.5 213.5 12.6 213.5 12.6 C 213.8 12.7 214.1 12.8 214.5 12.8 C 214.8 12.9 215.1 12.9 215.4 12.9 C 215.9 12.9 216.2 12.8 216.4 12.6 C 216.7 12.4 216.8 12.1 216.8 11.7 C 216.8 11.3 216.7 11.1 216.5 10.9 C 216.3 10.7 216 10.5 215.6 10.4 C 215.3 10.4 215.1 10.3 214.9 10.2 C 214.6 10.2 214.4 10.1 214.2 9.9 C 214 9.8 213.8 9.6 213.7 9.3 C 213.6 9.1 213.5 8.8 213.5 8.3 C 213.5 7.7 213.7 7.2 214.1 6.9 C 214.5 6.5 215.1 6.3 215.8 6.3 C 216.1 6.3 216.3 6.3 216.6 6.4 C 216.8 6.4 217.1 6.5 217.6 6.5 C 217.6 6.5 217.5 7.4 217.5 7.4 C 217.1 7.3 216.8 7.3 216.6 7.2 C 216.4 7.2 216.2 7.2 215.9 7.2 C 215.5 7.2 215.1 7.3 214.9 7.5 C 214.6 7.7 214.5 8 214.5 8.3 C 214.5 8.5 214.5 8.7 214.6 8.9 C 214.7 9 214.8 9.1 214.9 9.2 C 215 9.3 215.2 9.4 215.3 9.4 C 215.5 9.5 215.7 9.5 215.9 9.6 C 216.2 9.6 216.4 9.7 216.7 9.8 C 216.9 9.9 217.1 10.1 217.3 10.2 C 217.4 10.4 217.6 10.6 217.7 10.8 C 217.8 11 217.8 11.3 217.8 11.7 C 217.8 12.3 217.6 12.8 217.2 13.2 C 216.8 13.6 216.2 13.8 215.5 13.8 Z M 222.7 13.6 C 222.4 13.7 222 13.7 221.7 13.7 C 220.4 13.7 219.8 13 219.8 11.7 C 219.8 11.75 219.8 7.4 219.8 7.4 L 218.5 7.4 L 218.5 6.5 L 219.9 6.5 L 220 4.7 L 220.8 4.6 L 220.8 6.5 L 222.7 6.5 L 222.7 7.4 L 220.8 7.4 C 220.8 7.4 220.83 11.55 220.8 11.5 C 220.8 12.4 221.2 12.8 222 12.8 C 222.1 12.8 222.2 12.8 222.3 12.8 C 222.5 12.8 222.6 12.8 222.7 12.7 C 222.73 12.73 222.7 13.6 222.7 13.6 C 222.7 13.6 222.73 13.57 222.7 13.6 Z M 223.8 6.5 L 224.7 6.5 L 224.8 7.3 C 224.8 7.3 224.85 7.27 224.8 7.3 C 225.4 6.9 225.8 6.7 226.2 6.6 C 226.6 6.4 227 6.3 227.4 6.3 C 227.9 6.3 228.3 6.5 228.6 6.8 C 228.9 7.1 229 7.6 229 8.2 C 229 8.25 229 13.6 229 13.6 L 228 13.6 C 228 13.6 227.97 8.54 228 8.5 C 228 8.1 227.9 7.8 227.7 7.6 C 227.6 7.4 227.3 7.3 227 7.3 C 226.7 7.3 226.3 7.3 226 7.5 C 225.6 7.6 225.3 7.8 224.9 8 C 224.87 8.01 224.9 13.6 224.9 13.6 L 223.8 13.6 L 223.8 6.5 Z M 230.9 5.5 L 231.9 3 L 232.9 3 L 231.7 5.6 L 230.9 5.5 Z M 230.7 6.5 L 231.8 6.5 L 231.8 13.6 L 230.7 13.6 L 230.7 6.5 Z M 233.9 3.4 L 235.8 4.4 L 237.7 3.4 L 237.7 4.3 L 235.8 5.2 L 233.9 4.3 L 233.9 3.4 Z M 236.3 13.7 C 235.2 13.7 234.5 13.4 234 12.8 C 233.5 12.2 233.2 11.3 233.2 10 C 233.2 7.6 234.2 6.3 236.3 6.3 C 236.7 6.3 237.1 6.4 237.6 6.5 C 237.6 6.5 237.6 7.4 237.6 7.4 C 237.4 7.3 237.2 7.3 237 7.3 C 236.8 7.3 236.6 7.3 236.4 7.3 C 235.7 7.3 235.1 7.5 234.8 7.9 C 234.5 8.4 234.3 9.1 234.3 10 C 234.3 11 234.5 11.7 234.8 12.2 C 235.1 12.6 235.6 12.8 236.4 12.8 C 236.6 12.8 236.8 12.8 237 12.8 C 237.2 12.8 237.4 12.7 237.6 12.7 C 237.6 12.7 237.6 13.6 237.6 13.6 C 237.4 13.6 237.2 13.7 237 13.7 C 236.7 13.7 236.5 13.7 236.3 13.7 Z M 241.4 13.7 C 240.5 13.7 239.7 13.4 239.3 12.8 C 238.8 12.2 238.5 11.3 238.5 10 C 238.5 8.8 238.8 7.9 239.3 7.3 C 239.8 6.7 240.5 6.3 241.4 6.3 C 242.4 6.3 243.1 6.7 243.6 7.3 C 244.1 7.9 244.3 8.8 244.3 10 C 244.3 11.3 244.1 12.2 243.6 12.8 C 243.1 13.4 242.4 13.7 241.4 13.7 Z M 241.4 12.9 C 242.1 12.9 242.5 12.6 242.8 12.2 C 243.1 11.7 243.3 11 243.3 10 C 243.3 9.1 243.1 8.3 242.8 7.9 C 242.5 7.4 242.1 7.2 241.4 7.2 C 240.8 7.2 240.3 7.4 240 7.9 C 239.7 8.3 239.6 9.1 239.6 10 C 239.6 11 239.7 11.7 240 12.2 C 240.3 12.6 240.8 12.9 241.4 12.9 Z M 245.8 2.9 L 246.8 2.9 L 246.8 9.6 L 247.8 9.6 L 249.9 6.5 L 251.1 6.5 L 248.7 9.8 L 248.5 9.9 L 248.5 10 L 248.7 10.1 L 251.3 13.6 L 250.1 13.6 L 247.8 10.3 L 246.8 10.3 L 246.8 13.6 L 245.8 13.6 L 245.8 2.9 Z M 251.3 15.7 C 251.3 15.7 251.26 15.67 251.3 15.7 C 251.9 14.7 252.4 13.7 252.8 12.5 C 253.1 11.4 253.3 10.2 253.3 8.9 C 253.3 7.7 253.1 6.5 252.8 5.4 C 252.4 4.2 251.9 3.2 251.3 2.2 C 251.26 2.19 251.3 2.1 251.3 2.1 C 251.3 2.1 252.19 2.14 252.2 2.1 C 252.9 3.1 253.4 4.2 253.7 5.3 C 254.1 6.5 254.2 7.7 254.2 8.9 C 254.2 10.2 254.1 11.4 253.7 12.5 C 253.4 13.7 252.9 14.7 252.2 15.7 C 252.19 15.73 251.3 15.7 251.3 15.7 Z " stroke="none" fill="#000"/>  </g></svg>