<?xml version="1.0" standalone="no"?><!DOCTYPE svg PUBLIC "-//W3C//DTD SVG 1.1//EN" "http://www.w3.org/Graphics/SVG/1.1/DTD/svg11.dtd"><svg xmlns="http://www.w3.org/2000/svg" version="1.1" width="139px" height="30.5px" viewBox="0 -4 139 30.5" style="top:-4px">  <desc>Spokojnos</desc>  <defs/>  <g id="Polygon67331">    <path d="M 23.9 10.5 C 23.9 10.5 25.21 12.08 27.1 12.1 C 28.3 12.1 29.3 11.4 29.3 10.2 C 29.3 7.5 23.1 7.9 23.1 4 C 23.1 2.1 24.8 0.6 27.2 0.6 C 28.6 0.6 30.8 1.2 30.8 2.9 C 30.82 2.92 30.8 4 30.8 4 L 29.2 4 C 29.2 4 29.17 3.37 29.2 3.4 C 29.2 2.7 28.2 2.2 27.2 2.2 C 25.8 2.2 25 3 25 3.9 C 25 6.5 31.1 5.9 31.1 10.1 C 31.1 12 29.6 13.7 27.1 13.7 C 24.36 13.72 22.8 11.8 22.8 11.8 L 23.9 10.5 Z M 33.4 6.3 C 33.4 6 33.3 5.9 33.1 5.9 C 33.05 5.89 32.3 5.9 32.3 5.9 L 32.3 4.4 C 32.3 4.4 33.95 4.39 34 4.4 C 34.8 4.4 35.1 4.7 35.1 5.3 C 35.07 5.58 35.1 5.8 35.1 5.8 L 35.1 5.8 C 35.1 5.8 35.84 4.18 38.1 4.2 C 40.6 4.2 42.1 6.1 42.1 8.9 C 42.1 11.8 40.4 13.7 38 13.7 C 35.97 13.72 35.2 12.3 35.2 12.3 L 35.2 12.3 C 35.2 12.3 35.2 12.58 35.2 13.1 C 35.2 13.05 35.2 17.1 35.2 17.1 L 33.4 17.1 C 33.4 17.1 33.45 6.28 33.4 6.3 Z M 37.7 12.2 C 39.2 12.2 40.3 11 40.3 9 C 40.3 7 39.3 5.7 37.8 5.7 C 36.4 5.7 35.1 6.7 35.1 9 C 35.1 10.6 36 12.2 37.7 12.2 Z M 48.3 4.2 C 51.1 4.2 53.2 6.2 53.2 8.9 C 53.2 11.7 51.1 13.7 48.3 13.7 C 45.6 13.7 43.4 11.7 43.4 8.9 C 43.4 6.2 45.6 4.2 48.3 4.2 Z M 48.3 12.2 C 50.1 12.2 51.5 10.8 51.5 8.9 C 51.5 7 50.1 5.7 48.3 5.7 C 46.6 5.7 45.2 7 45.2 8.9 C 45.2 10.8 46.6 12.2 48.3 12.2 Z M 55.2 2.7 C 55.2 2.4 55 2.3 54.8 2.3 C 54.8 2.29 54.1 2.3 54.1 2.3 L 54.1 0.8 C 54.1 0.8 55.79 0.79 55.8 0.8 C 56.6 0.8 56.9 1 56.9 1.8 C 56.94 1.84 56.9 7.7 56.9 7.7 C 56.9 7.7 57.75 7.74 57.7 7.7 C 58.1 7.7 58.5 7.7 58.7 7.3 C 58.7 7.34 60.8 4.4 60.8 4.4 L 62.8 4.4 C 62.8 4.4 60.34 7.78 60.3 7.8 C 59.93 8.33 59.7 8.5 59.7 8.5 L 59.7 8.5 C 59.7 8.5 59.96 8.6 60.3 9.2 C 60.3 9.2 61.6 11.6 61.6 11.6 C 61.8 11.9 61.9 12 62.4 12 C 62.39 12.01 63 12 63 12 L 63 13.5 C 63 13.5 61.69 13.5 61.7 13.5 C 60.8 13.5 60.6 13.4 60.2 12.7 C 60.2 12.7 58.5 9.6 58.5 9.6 C 58.3 9.3 57.9 9.2 57.6 9.2 C 57.62 9.22 56.9 9.2 56.9 9.2 L 56.9 13.5 L 55.2 13.5 C 55.2 13.5 55.19 2.68 55.2 2.7 Z M 68.6 4.2 C 71.3 4.2 73.5 6.2 73.5 8.9 C 73.5 11.7 71.3 13.7 68.6 13.7 C 65.8 13.7 63.7 11.7 63.7 8.9 C 63.7 6.2 65.8 4.2 68.6 4.2 Z M 68.6 12.2 C 70.3 12.2 71.7 10.8 71.7 8.9 C 71.7 7 70.3 5.7 68.6 5.7 C 66.9 5.7 65.5 7 65.5 8.9 C 65.5 10.8 66.9 12.2 68.6 12.2 Z M 76.1 0.8 L 77.7 0.8 L 77.7 2.6 L 76.1 2.6 L 76.1 0.8 Z M 74.2 15.7 C 74.8 15.7 76.1 15.5 76.1 13.7 C 76.1 13.7 76.1 6.3 76.1 6.3 C 76.1 6 76 5.9 75.7 5.9 C 75.71 5.89 75 5.9 75 5.9 L 75 4.4 C 75 4.4 76.7 4.39 76.7 4.4 C 77.5 4.4 77.9 4.7 77.9 5.5 C 77.9 5.5 77.9 13.8 77.9 13.8 C 77.9 16.8 75.5 17.2 74.4 17.2 C 74 17.21 73.8 17.2 73.8 17.2 L 73.8 15.7 C 73.8 15.7 73.93 15.7 74.2 15.7 Z M 80.8 6.3 C 80.8 6 80.7 5.9 80.4 5.9 C 80.41 5.89 79.7 5.9 79.7 5.9 L 79.7 4.4 C 79.7 4.4 81.35 4.39 81.3 4.4 C 82.1 4.4 82.5 4.7 82.5 5.4 C 82.5 5.4 82.5 5.7 82.5 5.7 C 82.5 6.03 82.5 6.3 82.5 6.3 C 82.5 6.3 82.5 6.26 82.5 6.3 C 82.9 5.5 83.9 4.2 85.9 4.2 C 88.1 4.2 89.1 5.3 89.1 7.7 C 89.1 7.7 89.1 11.6 89.1 11.6 C 89.1 11.9 89.2 12 89.4 12 C 89.45 12.01 90.2 12 90.2 12 L 90.2 13.5 C 90.2 13.5 88.46 13.5 88.5 13.5 C 87.6 13.5 87.3 13.2 87.3 12.3 C 87.3 12.3 87.3 8.1 87.3 8.1 C 87.3 6.8 87.1 5.8 85.6 5.8 C 84.2 5.8 83.1 6.7 82.7 8 C 82.6 8.4 82.6 8.8 82.6 9.2 C 82.55 9.23 82.6 13.5 82.6 13.5 L 80.8 13.5 C 80.8 13.5 80.81 6.28 80.8 6.3 Z M 96.1 4.2 C 98.8 4.2 101 6.2 101 8.9 C 101 11.7 98.8 13.7 96.1 13.7 C 93.4 13.7 91.2 11.7 91.2 8.9 C 91.2 6.2 93.4 4.2 96.1 4.2 Z M 96.1 12.2 C 97.8 12.2 99.2 10.8 99.2 8.9 C 99.2 7 97.8 5.7 96.1 5.7 C 94.4 5.7 93 7 93 8.9 C 93 10.8 94.4 12.2 96.1 12.2 Z M 103 10.9 C 103 10.9 104.12 12.29 105.8 12.3 C 106.6 12.3 107.4 11.9 107.4 11.1 C 107.4 9.5 102.4 9.7 102.4 6.7 C 102.4 5 103.9 4.2 105.8 4.2 C 106.9 4.2 108.8 4.6 108.8 5.9 C 108.78 5.94 108.8 6.8 108.8 6.8 L 107.2 6.8 C 107.2 6.8 107.21 6.35 107.2 6.4 C 107.2 5.8 106.4 5.6 105.8 5.6 C 104.8 5.6 104.2 5.9 104.2 6.7 C 104.2 8.4 109.1 8 109.1 11.1 C 109.1 12.7 107.7 13.7 105.8 13.7 C 103.34 13.72 102.1 12.1 102.1 12.1 L 103 10.9 Z M 111.5 5.8 L 110.3 5.8 L 110.3 4.4 L 111.5 4.4 L 111.5 1.9 L 113.2 1.9 L 113.2 4.4 L 115.4 4.4 L 115.4 5.8 L 113.2 5.8 C 113.2 5.8 113.21 9.97 113.2 10 C 113.2 11.8 114.5 12 115.1 12 C 115.38 12.02 115.5 12 115.5 12 L 115.5 13.5 C 115.5 13.5 115.31 13.57 114.9 13.6 C 113.8 13.6 111.5 13.2 111.5 10.2 C 111.46 10.17 111.5 5.8 111.5 5.8 Z M 115.8 0.8 C 115.8 1.1 115.9 1.4 115.9 1.7 C 115.9 2.2 115.7 2.7 115.4 3.3 C 115.4 3.3 114.2 3.3 114.2 3.3 C 114.4 2.8 114.5 2.3 114.5 1.9 C 114.5 1.5 114.5 1.2 114.3 0.8 C 114.3 0.8 115.8 0.8 115.8 0.8 Z " stroke="none" fill="#ee3078"/>  </g></svg>