<?xml version="1.0" standalone="no"?><!DOCTYPE svg PUBLIC "-//W3C//DTD SVG 1.1//EN" "http://www.w3.org/Graphics/SVG/1.1/DTD/svg11.dtd"><svg xmlns="http://www.w3.org/2000/svg" version="1.1" width="216.4px" height="84.2px" viewBox="0 0 216.4 84.2">  <desc>Pearlov index zlyhania met dy 0,26</desc>  <defs/>  <g id="Polygon80959">    <path d="M 66.7 48.5 C 66.7 48.3 66.5 48.1 66.3 48.1 C 66.33 48.15 65.7 48.1 65.7 48.1 L 65.7 47.3 C 65.7 47.3 66.75 47.27 66.8 47.3 C 67.4 47.3 67.7 47.5 67.7 48.1 C 67.7 48.1 67.7 48.4 67.7 48.4 C 67.66 48.75 67.6 49 67.6 49 C 67.6 49 67.66 48.99 67.7 49 C 68 48 69.2 47.1 70.4 47.1 C 71.8 47.1 72.5 47.7 72.7 49 C 72.7 49 72.8 49 72.8 49 C 73.2 48 74.3 47.1 75.5 47.1 C 77.4 47.1 78 48.1 78 50 C 78 50 78 53.6 78 53.6 C 78 53.8 78.2 53.9 78.4 53.9 C 78.37 53.93 79 53.9 79 53.9 L 79 54.8 C 79 54.8 77.94 54.81 77.9 54.8 C 77.3 54.8 77 54.5 77 53.9 C 77 53.9 77 50.3 77 50.3 C 77 49 76.8 48 75.4 48 C 74.2 48 73.3 49 73 50.1 C 72.9 50.5 72.9 50.8 72.9 51.2 C 72.87 51.24 72.9 54.8 72.9 54.8 L 71.9 54.8 C 71.9 54.8 71.85 50.26 71.9 50.3 C 71.9 49.1 71.7 48 70.3 48 C 69 48 68.1 49.1 67.8 50.2 C 67.7 50.5 67.7 50.9 67.7 51.2 C 67.68 51.24 67.7 54.8 67.7 54.8 L 66.7 54.8 C 66.7 54.8 66.66 48.48 66.7 48.5 Z M 83.6 47.1 C 85.7 47.1 86.8 48.7 86.8 50.6 C 86.8 50.74 86.8 51.1 86.8 51.1 C 86.8 51.1 80.98 51.07 81 51.1 C 81 53 82.3 54.1 83.9 54.1 C 85.29 54.08 86.2 53.1 86.2 53.1 L 86.7 53.9 C 86.7 53.9 85.58 54.99 83.9 55 C 81.6 55 79.9 53.4 79.9 51 C 79.9 48.6 81.6 47.1 83.6 47.1 Z M 85.8 50.3 C 85.7 48.7 84.7 47.9 83.6 47.9 C 82.4 47.9 81.3 48.7 81 50.3 C 81 50.3 85.8 50.3 85.8 50.3 Z M 88.9 48.1 L 87.9 48.1 L 87.9 47.3 L 89 47.3 L 89 45.2 L 90 45.2 L 90 47.3 L 91.8 47.3 L 91.8 48.1 L 90 48.1 C 90 48.1 89.95 51.96 90 52 C 90 53.7 91.1 54 91.6 54 C 91.86 53.96 92 53.9 92 53.9 L 92 54.8 C 92 54.8 91.81 54.87 91.6 54.9 C 90.7 54.9 88.9 54.6 88.9 52.1 C 88.94 52.07 88.9 48.1 88.9 48.1 Z M 97 47.1 C 99.2 47.1 101 48.8 101 51 C 101 53.3 99.2 55 97 55 C 94.8 55 93 53.3 93 51 C 93 48.8 94.8 47.1 97 47.1 Z M 97 54.1 C 98.6 54.1 99.9 52.8 99.9 51 C 99.9 49.3 98.6 48 97 48 C 95.4 48 94.1 49.3 94.1 51 C 94.1 52.8 95.4 54.1 97 54.1 Z M 97.6 44.3 L 98.7 44.3 L 97.4 46 L 96.6 46 L 97.6 44.3 Z M 105.6 47.1 C 107.43 47.09 108.1 48.5 108.1 48.5 L 108.1 48.5 C 108.1 48.5 108.06 48.24 108.1 47.9 C 108.1 47.9 108.1 45.5 108.1 45.5 C 108.1 45.3 107.9 45.1 107.7 45.1 C 107.73 45.15 107.1 45.1 107.1 45.1 L 107.1 44.3 C 107.1 44.3 108.16 44.27 108.2 44.3 C 108.8 44.3 109.1 44.5 109.1 45.2 C 109.1 45.2 109.1 53.6 109.1 53.6 C 109.1 53.8 109.2 53.9 109.4 53.9 C 109.41 53.93 110 53.9 110 53.9 L 110 54.8 C 110 54.8 108.99 54.81 109 54.8 C 108.4 54.8 108.1 54.5 108.1 54 C 108.1 53.7 108.1 53.5 108.1 53.5 C 108.12 53.49 108.1 53.5 108.1 53.5 C 108.1 53.5 107.47 54.99 105.5 55 C 103.5 55 102.2 53.4 102.2 51 C 102.2 48.6 103.6 47.1 105.6 47.1 Z M 108.1 51 C 108.1 49.5 107.3 48 105.7 48 C 104.4 48 103.3 49.1 103.3 51 C 103.3 52.9 104.2 54.1 105.6 54.1 C 106.9 54.1 108.1 53.2 108.1 51 Z M 112.1 57 C 112.8 57 113.2 56.5 113.5 55.8 C 113.52 55.82 114 54.8 114 54.8 C 114 54.8 111.31 48.49 111.3 48.5 C 111.2 48.2 111.1 48.1 110.8 48.1 C 110.79 48.15 110.6 48.1 110.6 48.1 L 110.6 47.3 C 110.6 47.3 111.1 47.27 111.1 47.3 C 111.8 47.3 112 47.4 112.3 48.1 C 112.3 48.1 114.2 52.8 114.2 52.8 C 114.34 53.18 114.5 53.6 114.5 53.6 L 114.5 53.6 C 114.5 53.6 114.6 53.18 114.7 52.8 C 114.7 52.8 116.6 48.1 116.6 48.1 C 116.9 47.4 117.1 47.3 117.8 47.3 C 117.78 47.27 118.2 47.3 118.2 47.3 L 118.2 48.1 C 118.2 48.1 118.09 48.15 118.1 48.1 C 117.8 48.1 117.7 48.2 117.6 48.5 C 117.6 48.5 114.3 56.4 114.3 56.4 C 113.9 57.3 113.2 58 112.2 58 C 111.1 57.96 110.5 57.2 110.5 57.2 C 110.5 57.2 111 56.48 111 56.5 C 111 56.5 111.5 57 112.1 57 Z M 123.4 49.5 C 123.4 46.5 124.3 44.1 127.1 44.1 C 129.8 44.1 130.7 46.5 130.7 49.5 C 130.7 52.6 129.8 55 127.1 55 C 124.3 55 123.4 52.6 123.4 49.5 Z M 129.6 49.5 C 129.6 47 129.1 45.1 127.1 45.1 C 125.1 45.1 124.5 47 124.5 49.5 C 124.5 52.1 125.1 54 127.1 54 C 129.1 54 129.6 52.1 129.6 49.5 Z M 133.3 53.6 L 132.2 56.3 L 131.3 56.3 L 132.2 53.6 L 133.3 53.6 Z M 140.4 47.1 C 140.4 45.9 139.6 45.1 138.3 45.1 C 137.2 45.1 136.4 45.6 136.4 46.2 C 136.39 46.21 136.4 46.7 136.4 46.7 L 135.4 46.7 C 135.4 46.7 135.4 45.93 135.4 45.9 C 135.4 44.6 137.2 44.1 138.3 44.1 C 140.3 44.1 141.5 45.4 141.5 47 C 141.5 50.7 135.9 50.7 135.9 53.6 C 135.9 53.8 136 53.9 136.3 53.9 C 136.3 53.9 140.7 53.9 140.7 53.9 C 140.9 53.9 141 53.8 141 53.6 C 141.01 53.55 141 52.8 141 52.8 L 142 52.8 C 142 52.8 141.99 53.9 142 53.9 C 142 54.5 141.7 54.8 141.1 54.8 C 141.1 54.8 135.8 54.8 135.8 54.8 C 135.1 54.8 134.8 54.5 134.8 53.8 C 134.8 49.9 140.4 50.2 140.4 47.1 Z M 143.3 50.2 C 143.3 47.5 144.7 44.1 148 44.1 C 149.11 44.09 149.9 44.5 149.9 44.5 L 149.5 45.4 C 149.5 45.4 148.84 45.06 148 45.1 C 145.8 45.1 144.6 47.3 144.4 49.4 C 144.4 49.4 144.5 49.4 144.5 49.4 C 145 48.6 146.1 48.1 147.2 48.1 C 149.1 48.1 150.4 49.5 150.4 51.5 C 150.4 53.7 149 55 147.1 55 C 144.8 55 143.3 52.9 143.3 50.2 Z M 147.1 54 C 148.5 54 149.4 52.9 149.4 51.5 C 149.4 50 148.4 49 147 49 C 145.6 49 144.4 50 144.4 50.8 C 144.4 52.2 145.5 54 147.1 54 Z " stroke="none" fill="#fff"/>  </g>  <g id="Polygon80958">    <path d="M 33.5 27.2 L 32.6 27.2 L 32.6 26.3 C 32.6 26.3 37.01 26.27 37 26.3 C 38.9 26.3 40.3 27.5 40.3 29.4 C 40.3 31.4 38.9 32.7 37 32.7 C 37.01 32.67 34.6 32.7 34.6 32.7 L 34.6 36.8 L 33.5 36.8 L 33.5 27.2 Z M 36.9 31.7 C 38.3 31.7 39.2 30.9 39.2 29.4 C 39.2 28 38.3 27.2 36.9 27.2 C 36.89 27.19 34.6 27.2 34.6 27.2 L 34.6 31.7 C 34.6 31.7 36.88 31.74 36.9 31.7 Z M 44.6 29.1 C 46.7 29.1 47.8 30.7 47.8 32.6 C 47.8 32.74 47.8 33.1 47.8 33.1 C 47.8 33.1 41.98 33.07 42 33.1 C 42 35 43.3 36.1 44.9 36.1 C 46.28 36.08 47.2 35.1 47.2 35.1 L 47.7 35.9 C 47.7 35.9 46.57 36.99 44.9 37 C 42.6 37 40.9 35.4 40.9 33 C 40.9 30.6 42.6 29.1 44.6 29.1 Z M 46.7 32.3 C 46.7 30.7 45.7 29.9 44.6 29.9 C 43.4 29.9 42.3 30.7 42 32.3 C 42 32.3 46.7 32.3 46.7 32.3 Z M 53.8 32.2 C 53.75 32.16 54.2 32.2 54.2 32.2 C 54.2 32.2 54.17 32.07 54.2 32.1 C 54.2 30.5 53.6 29.9 52.2 29.9 C 51.8 29.9 50.8 30 50.8 30.6 C 50.75 30.6 50.8 31.1 50.8 31.1 L 49.8 31.1 C 49.8 31.1 49.78 30.36 49.8 30.4 C 49.8 29.3 51.6 29.1 52.2 29.1 C 54.6 29.1 55.2 30.4 55.2 32 C 55.2 32 55.2 35.6 55.2 35.6 C 55.2 35.8 55.3 35.9 55.5 35.9 C 55.52 35.93 56.2 35.9 56.2 35.9 L 56.2 36.8 C 56.2 36.8 55.12 36.81 55.1 36.8 C 54.5 36.8 54.2 36.5 54.2 35.9 C 54.2 35.6 54.2 35.4 54.2 35.4 C 54.2 35.4 54.2 35.4 54.2 35.4 C 54.2 35.4 53.6 37 51.7 37 C 50.4 37 49.1 36.3 49.1 34.8 C 49.1 32.3 52.4 32.2 53.8 32.2 Z M 51.9 36.1 C 53.3 36.1 54.2 34.6 54.2 33.3 C 54.17 33.31 54.2 33 54.2 33 C 54.2 33 53.74 32.97 53.7 33 C 52.6 33 50.2 33 50.2 34.7 C 50.2 35.4 50.7 36.1 51.9 36.1 Z M 57.8 30.5 C 57.8 30.3 57.7 30.1 57.4 30.1 C 57.44 30.15 56.8 30.1 56.8 30.1 L 56.8 29.3 C 56.8 29.3 57.86 29.27 57.9 29.3 C 58.5 29.3 58.8 29.5 58.8 30.1 C 58.8 30.1 58.8 30.6 58.8 30.6 C 58.78 30.94 58.7 31.2 58.7 31.2 C 58.7 31.2 58.78 31.2 58.8 31.2 C 59.1 30.1 60 29.2 61.2 29.2 C 61.4 29.2 61.6 29.2 61.6 29.2 C 61.57 29.24 61.6 30.2 61.6 30.2 C 61.6 30.2 61.39 30.21 61.2 30.2 C 60.1 30.2 59.3 31 59 32.2 C 58.9 32.6 58.8 33.1 58.8 33.6 C 58.79 33.63 58.8 36.8 58.8 36.8 L 57.8 36.8 C 57.8 36.8 57.77 30.48 57.8 30.5 Z M 63 27.5 C 63 27.3 62.9 27.1 62.7 27.1 C 62.69 27.15 62.1 27.1 62.1 27.1 L 62.1 26.3 C 62.1 26.3 63.13 26.27 63.1 26.3 C 63.8 26.3 64 26.5 64 27.2 C 64 27.2 64 35.6 64 35.6 C 64 35.8 64.2 35.9 64.4 35.9 C 64.37 35.93 65 35.9 65 35.9 L 65 36.8 C 65 36.8 63.94 36.81 63.9 36.8 C 63.3 36.8 63 36.5 63 35.9 C 63 35.9 63 27.5 63 27.5 Z M 70 29.1 C 72.2 29.1 74 30.8 74 33 C 74 35.3 72.2 37 70 37 C 67.8 37 66 35.3 66 33 C 66 30.8 67.8 29.1 70 29.1 Z M 70 36.1 C 71.6 36.1 72.9 34.8 72.9 33 C 72.9 31.3 71.6 30 70 30 C 68.4 30 67.1 31.3 67.1 33 C 67.1 34.8 68.4 36.1 70 36.1 Z M 75.3 30.5 C 75.2 30.2 75 30.1 74.8 30.1 C 74.77 30.15 74.6 30.1 74.6 30.1 L 74.6 29.3 C 74.6 29.3 75.04 29.27 75 29.3 C 75.8 29.3 76 29.4 76.2 30.1 C 76.2 30.1 78.1 34.8 78.1 34.8 C 78.19 35.18 78.3 35.7 78.3 35.7 L 78.3 35.7 C 78.3 35.7 78.46 35.18 78.6 34.8 C 78.6 34.8 80.4 30.1 80.4 30.1 C 80.7 29.4 80.9 29.3 81.6 29.3 C 81.59 29.27 82 29.3 82 29.3 L 82 30.1 C 82 30.1 81.85 30.15 81.8 30.1 C 81.6 30.1 81.4 30.2 81.3 30.5 C 81.32 30.49 78.9 36.8 78.9 36.8 L 77.8 36.8 C 77.8 36.8 75.29 30.49 75.3 30.5 Z M 87.6 26.3 L 88.6 26.3 L 88.6 27.6 L 87.6 27.6 L 87.6 26.3 Z M 87.7 30.5 C 87.7 30.3 87.5 30.1 87.3 30.1 C 87.32 30.15 86.7 30.1 86.7 30.1 L 86.7 29.3 C 86.7 29.3 87.76 29.27 87.8 29.3 C 88.4 29.3 88.7 29.5 88.7 30.2 C 88.7 30.2 88.7 35.6 88.7 35.6 C 88.7 35.8 88.8 35.9 89 35.9 C 89 35.93 89.6 35.9 89.6 35.9 L 89.6 36.8 C 89.6 36.8 88.57 36.81 88.6 36.8 C 87.9 36.8 87.7 36.5 87.7 35.9 C 87.7 35.9 87.7 30.5 87.7 30.5 Z M 91.3 30.5 C 91.3 30.3 91.2 30.1 91 30.1 C 91.01 30.15 90.4 30.1 90.4 30.1 L 90.4 29.3 C 90.4 29.3 91.43 29.27 91.4 29.3 C 92.1 29.3 92.3 29.5 92.3 30.1 C 92.3 30.1 92.3 30.4 92.3 30.4 C 92.35 30.75 92.3 31 92.3 31 C 92.3 31 92.35 30.99 92.3 31 C 92.6 30.3 93.6 29.1 95.3 29.1 C 97.2 29.1 97.9 30.1 97.9 32 C 97.9 32 97.9 35.6 97.9 35.6 C 97.9 35.8 98 35.9 98.2 35.9 C 98.21 35.93 98.8 35.9 98.8 35.9 L 98.8 36.8 C 98.8 36.8 97.78 36.81 97.8 36.8 C 97.1 36.8 96.9 36.5 96.9 35.9 C 96.9 35.9 96.9 32.3 96.9 32.3 C 96.9 31.1 96.7 30 95.2 30 C 93.9 30 92.8 30.9 92.5 32.2 C 92.4 32.5 92.4 32.8 92.4 33.2 C 92.36 33.2 92.4 36.8 92.4 36.8 L 91.3 36.8 C 91.3 36.8 91.34 30.48 91.3 30.5 Z M 103.2 29.1 C 105.01 29.09 105.6 30.5 105.6 30.5 L 105.7 30.5 C 105.7 30.5 105.64 30.24 105.6 29.9 C 105.6 29.9 105.6 27.5 105.6 27.5 C 105.6 27.3 105.5 27.1 105.3 27.1 C 105.31 27.15 104.7 27.1 104.7 27.1 L 104.7 26.3 C 104.7 26.3 105.74 26.27 105.7 26.3 C 106.4 26.3 106.7 26.5 106.7 27.2 C 106.7 27.2 106.7 35.6 106.7 35.6 C 106.7 35.8 106.8 35.9 107 35.9 C 106.99 35.93 107.6 35.9 107.6 35.9 L 107.6 36.8 C 107.6 36.8 106.57 36.81 106.6 36.8 C 105.9 36.8 105.7 36.5 105.7 36 C 105.7 35.7 105.7 35.5 105.7 35.5 C 105.7 35.49 105.7 35.5 105.7 35.5 C 105.7 35.5 105.05 36.99 103.1 37 C 101 37 99.8 35.4 99.8 33 C 99.8 30.6 101.2 29.1 103.2 29.1 Z M 105.7 33 C 105.7 31.5 104.9 30 103.3 30 C 101.9 30 100.8 31.1 100.8 33 C 100.8 34.9 101.8 36.1 103.2 36.1 C 104.5 36.1 105.7 35.2 105.7 33 Z M 112.3 29.1 C 114.4 29.1 115.5 30.7 115.5 32.6 C 115.46 32.74 115.4 33.1 115.4 33.1 C 115.4 33.1 109.64 33.07 109.6 33.1 C 109.7 35 111 36.1 112.6 36.1 C 113.95 36.08 114.8 35.1 114.8 35.1 L 115.3 35.9 C 115.3 35.9 114.23 36.99 112.5 37 C 110.3 37 108.6 35.4 108.6 33 C 108.6 30.6 110.3 29.1 112.3 29.1 Z M 114.4 32.3 C 114.4 30.7 113.4 29.9 112.3 29.9 C 111 29.9 109.9 30.7 109.7 32.3 C 109.7 32.3 114.4 32.3 114.4 32.3 Z M 119.1 32.9 C 119.1 32.9 117.47 30.46 117.5 30.5 C 117.3 30.2 117.1 30.1 116.8 30.1 C 116.78 30.15 116.5 30.1 116.5 30.1 L 116.5 29.3 C 116.5 29.3 117.02 29.27 117 29.3 C 117.8 29.3 118 29.4 118.4 30.1 C 118.4 30.1 119.5 31.8 119.5 31.8 C 119.63 31.96 119.8 32.2 119.8 32.2 L 119.8 32.2 C 119.8 32.2 119.93 31.96 120 31.8 C 120 31.8 121.1 30.1 121.1 30.1 C 121.6 29.4 121.8 29.3 122.5 29.3 C 122.54 29.27 123.1 29.3 123.1 29.3 L 123.1 30.1 C 123.1 30.1 122.78 30.15 122.8 30.1 C 122.5 30.1 122.2 30.2 122.1 30.4 C 122.08 30.45 120.4 32.9 120.4 32.9 L 123.1 36.8 L 121.9 36.8 C 121.9 36.8 120.04 34 120 34 C 119.92 33.81 119.8 33.6 119.8 33.6 L 119.8 33.6 C 119.8 33.6 119.65 33.79 119.5 34 C 119.51 34 117.7 36.8 117.7 36.8 L 116.5 36.8 L 119.1 32.9 Z M 128 36.2 C 128 36.2 132.26 30.85 132.3 30.9 C 132.55 30.49 132.9 30.2 132.9 30.2 L 132.9 30.1 C 132.9 30.1 132.61 30.16 132.1 30.2 C 132.1 30.2 129.4 30.2 129.4 30.2 C 129.1 30.2 129 30.3 129 30.5 C 129.02 30.49 129 31.1 129 31.1 L 128.1 31.1 C 128.1 31.1 128.06 30.18 128.1 30.2 C 128.1 29.5 128.3 29.3 129 29.3 C 128.98 29.27 134.2 29.3 134.2 29.3 L 134.2 29.9 C 134.2 29.9 129.98 35.22 130 35.2 C 129.68 35.58 129.4 35.9 129.4 35.9 L 129.4 35.9 C 129.4 35.9 129.62 35.91 130.1 35.9 C 130.1 35.9 133.2 35.9 133.2 35.9 C 133.4 35.9 133.6 35.8 133.6 35.6 C 133.57 35.58 133.6 35 133.6 35 L 134.5 35 C 134.5 35 134.53 35.9 134.5 35.9 C 134.5 36.5 134.3 36.8 133.6 36.8 C 133.61 36.81 128 36.8 128 36.8 L 128 36.2 Z M 136.2 27.5 C 136.2 27.3 136.1 27.1 135.9 27.1 C 135.88 27.15 135.2 27.1 135.2 27.1 L 135.2 26.3 C 135.2 26.3 136.31 26.27 136.3 26.3 C 137 26.3 137.2 26.5 137.2 27.2 C 137.2 27.2 137.2 35.6 137.2 35.6 C 137.2 35.8 137.3 35.9 137.6 35.9 C 137.56 35.93 138.2 35.9 138.2 35.9 L 138.2 36.8 C 138.2 36.8 137.12 36.81 137.1 36.8 C 136.5 36.8 136.2 36.5 136.2 35.9 C 136.2 35.9 136.2 27.5 136.2 27.5 Z M 140.3 39 C 141 39 141.4 38.5 141.7 37.8 C 141.71 37.82 142.2 36.8 142.2 36.8 C 142.2 36.8 139.51 30.49 139.5 30.5 C 139.4 30.2 139.3 30.1 139 30.1 C 138.98 30.15 138.8 30.1 138.8 30.1 L 138.8 29.3 C 138.8 29.3 139.3 29.27 139.3 29.3 C 140 29.3 140.2 29.4 140.5 30.1 C 140.5 30.1 142.4 34.8 142.4 34.8 C 142.54 35.18 142.7 35.6 142.7 35.6 L 142.7 35.6 C 142.7 35.6 142.79 35.18 142.9 34.8 C 142.9 34.8 144.8 30.1 144.8 30.1 C 145.1 29.4 145.3 29.3 146 29.3 C 145.97 29.27 146.4 29.3 146.4 29.3 L 146.4 30.1 C 146.4 30.1 146.29 30.15 146.3 30.1 C 146 30.1 145.9 30.2 145.8 30.5 C 145.8 30.5 142.5 38.4 142.5 38.4 C 142.1 39.3 141.4 40 140.3 40 C 139.3 39.96 138.7 39.2 138.7 39.2 C 138.7 39.2 139.19 38.48 139.2 38.5 C 139.2 38.5 139.7 39 140.3 39 Z M 147.9 27.5 C 147.9 27.3 147.8 27.1 147.6 27.1 C 147.61 27.15 147 27.1 147 27.1 L 147 26.3 C 147 26.3 148.04 26.27 148 26.3 C 148.7 26.3 149 26.5 149 27.1 C 149 27.1 149 30.3 149 30.3 C 148.96 30.69 148.9 31 148.9 31 C 148.9 31 148.96 30.96 149 31 C 149.2 30.2 150.2 29.1 151.9 29.1 C 153.8 29.1 154.5 30.1 154.5 32 C 154.5 32 154.5 35.6 154.5 35.6 C 154.5 35.8 154.6 35.9 154.8 35.9 C 154.81 35.93 155.4 35.9 155.4 35.9 L 155.4 36.8 C 155.4 36.8 154.37 36.81 154.4 36.8 C 153.7 36.8 153.5 36.5 153.5 35.9 C 153.5 35.9 153.5 32.3 153.5 32.3 C 153.5 31.1 153.3 30 151.8 30 C 150.5 30 149.4 30.9 149.1 32.2 C 149 32.5 149 32.8 149 33.2 C 148.96 33.2 149 36.8 149 36.8 L 147.9 36.8 C 147.9 36.8 147.94 27.48 147.9 27.5 Z M 161 32.2 C 160.97 32.16 161.4 32.2 161.4 32.2 C 161.4 32.2 161.39 32.07 161.4 32.1 C 161.4 30.5 160.8 29.9 159.4 29.9 C 159.1 29.9 158 30 158 30.6 C 157.97 30.6 158 31.1 158 31.1 L 157 31.1 C 157 31.1 157 30.36 157 30.4 C 157 29.3 158.8 29.1 159.5 29.1 C 161.8 29.1 162.4 30.4 162.4 32 C 162.4 32 162.4 35.6 162.4 35.6 C 162.4 35.8 162.5 35.9 162.7 35.9 C 162.74 35.93 163.4 35.9 163.4 35.9 L 163.4 36.8 C 163.4 36.8 162.34 36.81 162.3 36.8 C 161.7 36.8 161.4 36.5 161.4 35.9 C 161.4 35.6 161.5 35.4 161.5 35.4 C 161.5 35.4 161.4 35.4 161.4 35.4 C 161.4 35.4 160.8 37 158.9 37 C 157.7 37 156.4 36.3 156.4 34.8 C 156.4 32.3 159.7 32.2 161 32.2 Z M 159.1 36.1 C 160.5 36.1 161.4 34.6 161.4 33.3 C 161.39 33.31 161.4 33 161.4 33 C 161.4 33 160.96 32.97 161 33 C 159.8 33 157.4 33 157.4 34.7 C 157.4 35.4 158 36.1 159.1 36.1 Z M 165 30.5 C 165 30.3 164.9 30.1 164.7 30.1 C 164.66 30.15 164 30.1 164 30.1 L 164 29.3 C 164 29.3 165.08 29.27 165.1 29.3 C 165.7 29.3 166 29.5 166 30.1 C 166 30.1 166 30.4 166 30.4 C 165.99 30.75 166 31 166 31 C 166 31 165.99 30.99 166 31 C 166.3 30.3 167.2 29.1 169 29.1 C 170.9 29.1 171.5 30.1 171.5 32 C 171.5 32 171.5 35.6 171.5 35.6 C 171.5 35.8 171.6 35.9 171.9 35.9 C 171.86 35.93 172.5 35.9 172.5 35.9 L 172.5 36.8 C 172.5 36.8 171.43 36.81 171.4 36.8 C 170.8 36.8 170.5 36.5 170.5 35.9 C 170.5 35.9 170.5 32.3 170.5 32.3 C 170.5 31.1 170.3 30 168.9 30 C 167.6 30 166.5 30.9 166.1 32.2 C 166 32.5 166 32.8 166 33.2 C 166.01 33.2 166 36.8 166 36.8 L 165 36.8 C 165 36.8 164.99 30.48 165 30.5 Z M 174.2 26.3 L 175.1 26.3 L 175.1 27.6 L 174.2 27.6 L 174.2 26.3 Z M 174.2 30.5 C 174.2 30.3 174.1 30.1 173.9 30.1 C 173.86 30.15 173.2 30.1 173.2 30.1 L 173.2 29.3 C 173.2 29.3 174.29 29.27 174.3 29.3 C 174.9 29.3 175.2 29.5 175.2 30.2 C 175.2 30.2 175.2 35.6 175.2 35.6 C 175.2 35.8 175.3 35.9 175.5 35.9 C 175.53 35.93 176.2 35.9 176.2 35.9 L 176.2 36.8 C 176.2 36.8 175.1 36.81 175.1 36.8 C 174.5 36.8 174.2 36.5 174.2 35.9 C 174.2 35.9 174.2 30.5 174.2 30.5 Z M 181.8 32.2 C 181.79 32.16 182.2 32.2 182.2 32.2 C 182.2 32.2 182.21 32.07 182.2 32.1 C 182.2 30.5 181.6 29.9 180.3 29.9 C 179.9 29.9 178.8 30 178.8 30.6 C 178.79 30.6 178.8 31.1 178.8 31.1 L 177.8 31.1 C 177.8 31.1 177.82 30.36 177.8 30.4 C 177.8 29.3 179.6 29.1 180.3 29.1 C 182.7 29.1 183.2 30.4 183.2 32 C 183.2 32 183.2 35.6 183.2 35.6 C 183.2 35.8 183.3 35.9 183.6 35.9 C 183.56 35.93 184.2 35.9 184.2 35.9 L 184.2 36.8 C 184.2 36.8 183.15 36.81 183.2 36.8 C 182.5 36.8 182.3 36.5 182.3 35.9 C 182.3 35.6 182.3 35.4 182.3 35.4 C 182.3 35.4 182.2 35.4 182.2 35.4 C 182.3 35.4 181.6 37 179.7 37 C 178.5 37 177.2 36.3 177.2 34.8 C 177.2 32.3 180.5 32.2 181.8 32.2 Z M 179.9 36.1 C 181.3 36.1 182.2 34.6 182.2 33.3 C 182.21 33.31 182.2 33 182.2 33 C 182.2 33 181.78 32.97 181.8 33 C 180.6 33 178.2 33 178.2 34.7 C 178.2 35.4 178.8 36.1 179.9 36.1 Z " stroke="none" fill="#fff"/>  </g></svg>