<?xml version="1.0" standalone="no"?><!DOCTYPE svg PUBLIC "-//W3C//DTD SVG 1.1//EN" "http://www.w3.org/Graphics/SVG/1.1/DTD/svg11.dtd"><svg xmlns="http://www.w3.org/2000/svg" version="1.1" width="41px" height="19px" viewBox="0 -3 41 19" style="top:-3px">  <desc>30,0 %</desc>  <defs/>  <g id="Polygon75743">    <path d="M 3.4 7.1 C 3.4 7.1 4.25 8.02 5.6 8 C 6.5 8 7.2 7.4 7.2 6.5 C 7.2 5.5 6.4 5 5.4 5 C 5.42 4.96 4.8 5 4.8 5 L 4.6 4.3 C 4.6 4.3 6.33 2.1 6.3 2.1 C 6.58 1.74 6.8 1.5 6.8 1.5 L 6.8 1.5 C 6.8 1.5 6.57 1.56 6.1 1.6 C 6.1 1.6 4.5 1.6 4.5 1.6 C 4.3 1.6 4.2 1.6 4.2 1.8 C 4.2 1.82 4.2 2.4 4.2 2.4 L 3.1 2.4 C 3.1 2.4 3.1 1.3 3.1 1.3 C 3.1 0.8 3.3 0.5 3.8 0.5 C 3.83 0.53 8.3 0.5 8.3 0.5 L 8.3 1.3 C 8.3 1.3 6.06 3.97 6.1 4 C 7.2 4.1 8.5 4.8 8.5 6.5 C 8.5 7.9 7.3 9.1 5.6 9.1 C 3.8 9.14 2.8 8 2.8 8 L 3.4 7.1 Z M 9.6 4.8 C 9.6 2.3 10.3 0.4 12.6 0.4 C 14.8 0.4 15.6 2.3 15.6 4.8 C 15.6 7.2 14.8 9.1 12.6 9.1 C 10.3 9.1 9.6 7.2 9.6 4.8 Z M 14.4 4.8 C 14.4 2.9 14 1.5 12.6 1.5 C 11.2 1.5 10.8 2.9 10.8 4.8 C 10.8 6.6 11.2 8.1 12.6 8.1 C 14 8.1 14.4 6.6 14.4 4.8 Z M 17.9 7.7 L 16.9 10.2 L 16 10.2 L 16.8 7.7 L 17.9 7.7 Z M 19 4.8 C 19 2.3 19.8 0.4 22 0.4 C 24.3 0.4 25 2.3 25 4.8 C 25 7.2 24.3 9.1 22 9.1 C 19.8 9.1 19 7.2 19 4.8 Z M 23.8 4.8 C 23.8 2.9 23.4 1.5 22 1.5 C 20.6 1.5 20.2 2.9 20.2 4.8 C 20.2 6.6 20.6 8.1 22 8.1 C 23.4 8.1 23.8 6.6 23.8 4.8 Z M 29.6 2.2 C 29.6 1.2 30.4 0.4 31.4 0.4 C 32.4 0.4 33.2 1.2 33.2 2.2 C 33.2 3.1 32.4 3.9 31.4 3.9 C 30.4 3.9 29.6 3.1 29.6 2.2 Z M 36.3 0.5 L 37.4 0.5 L 30.9 9 L 29.8 9 L 36.3 0.5 Z M 32.3 2.2 C 32.3 1.7 31.9 1.3 31.4 1.3 C 30.9 1.3 30.5 1.7 30.5 2.2 C 30.5 2.7 30.9 3 31.4 3 C 31.9 3 32.3 2.7 32.3 2.2 Z M 35.8 5.6 C 36.8 5.6 37.6 6.4 37.6 7.4 C 37.6 8.4 36.8 9.1 35.8 9.1 C 34.8 9.1 34 8.4 34 7.4 C 34 6.4 34.8 5.6 35.8 5.6 Z M 34.9 7.4 C 34.9 7.9 35.3 8.3 35.8 8.3 C 36.3 8.3 36.7 7.9 36.7 7.4 C 36.7 6.9 36.3 6.5 35.8 6.5 C 35.3 6.5 34.9 6.9 34.9 7.4 C 34.9 7.4 34.9 7.4 34.9 7.4 Z " stroke="none" fill="#000"/>  </g></svg>