<?xml version="1.0" standalone="no"?><!DOCTYPE svg PUBLIC "-//W3C//DTD SVG 1.1//EN" "http://www.w3.org/Graphics/SVG/1.1/DTD/svg11.dtd"><svg xmlns="http://www.w3.org/2000/svg" version="1.1" width="44px" height="19.5px" viewBox="0 -1 44 19.5" style="top:-1px">  <desc>61.4%</desc>  <defs/>  <g id="Polygon79110">    <path d="M 3.2 12.6 C 2.3 12.6 1.7 12.3 1.2 11.6 C 0.8 11 0.5 10 0.5 8.8 C 0.5 8 0.6 7.3 0.8 6.7 C 0.9 6.1 1.1 5.6 1.4 5.2 C 1.7 4.8 2.1 4.5 2.5 4.3 C 2.9 4.1 3.4 4 3.9 4 C 4.1 4 4.3 4 4.6 4 C 4.8 4 5 4.1 5.2 4.2 C 5.2 4.2 5.2 4.9 5.2 4.9 C 4.9 4.8 4.7 4.8 4.5 4.8 C 4.3 4.7 4.1 4.7 3.9 4.7 C 3.2 4.7 2.6 5 2.2 5.6 C 1.8 6.2 1.5 7 1.5 8.1 C 1.7 7.9 2 7.7 2.3 7.5 C 2.7 7.4 3 7.3 3.4 7.3 C 3.7 7.3 4 7.4 4.3 7.5 C 4.6 7.6 4.9 7.8 5.1 8 C 5.3 8.2 5.4 8.5 5.6 8.8 C 5.7 9.1 5.7 9.4 5.7 9.8 C 5.7 10.2 5.7 10.6 5.5 10.9 C 5.4 11.3 5.3 11.6 5 11.8 C 4.8 12.1 4.6 12.3 4.3 12.4 C 3.9 12.5 3.6 12.6 3.2 12.6 Z M 3.2 8 C 2.9 8 2.6 8.1 2.3 8.3 C 2 8.4 1.7 8.6 1.4 8.9 C 1.4 9.9 1.6 10.6 1.9 11.1 C 2.2 11.6 2.6 11.8 3.2 11.8 C 3.7 11.8 4.1 11.7 4.4 11.3 C 4.7 10.9 4.8 10.4 4.8 9.8 C 4.8 9.2 4.7 8.8 4.4 8.5 C 4.1 8.2 3.7 8 3.2 8 Z M 8.1 5.2 L 8.1 5.2 L 6.5 6.1 L 6.4 6.1 L 6.2 5.7 L 6.2 5.6 L 8.4 4.1 L 9 4.1 L 9 12.5 L 8.1 12.5 L 8.1 5.2 Z M 11.8 11.9 C 11.8 12.3 11.6 12.5 11.2 12.5 C 10.8 12.5 10.6 12.3 10.6 11.9 C 10.6 11.6 10.8 11.4 11.2 11.4 C 11.4 11.4 11.5 11.4 11.7 11.5 C 11.8 11.6 11.8 11.7 11.8 11.9 C 11.8 11.9 11.8 11.9 11.8 11.9 Z M 12.6 10 L 12.6 9.9 L 15.4 4 L 15.4 4 L 16.2 4.1 L 16.3 4.2 L 13.6 9.7 L 13.6 9.7 L 16.2 9.7 L 16.4 6.8 L 17.1 6.8 L 17.1 9.7 L 18.1 9.7 L 18.1 10.5 L 17.1 10.5 L 17.1 12.5 L 16.2 12.5 L 16.2 10.5 L 12.8 10.5 L 12.6 10 Z M 20.6 9.3 C 20 9.3 19.5 9.1 19.2 8.6 C 18.9 8.2 18.8 7.5 18.8 6.6 C 18.8 5.8 18.9 5.1 19.2 4.6 C 19.5 4.2 20 4 20.6 4 C 21.2 4 21.7 4.2 22 4.6 C 22.3 5.1 22.4 5.8 22.4 6.6 C 22.4 7.5 22.3 8.2 22 8.6 C 21.7 9.1 21.2 9.3 20.6 9.3 Z M 19.5 6.6 C 19.5 8 19.8 8.6 20.6 8.6 C 21.3 8.6 21.7 8 21.7 6.6 C 21.7 5.3 21.3 4.6 20.6 4.6 C 19.8 4.6 19.5 5.3 19.5 6.6 C 19.5 6.6 19.5 6.6 19.5 6.6 Z M 25.9 12.6 C 25.3 12.6 24.8 12.4 24.5 11.9 C 24.2 11.5 24 10.8 24 10 C 24 9.1 24.2 8.4 24.5 8 C 24.8 7.5 25.3 7.3 25.9 7.3 C 26.5 7.3 26.9 7.5 27.2 8 C 27.5 8.4 27.7 9.1 27.7 10 C 27.7 10.8 27.5 11.5 27.2 11.9 C 26.9 12.4 26.5 12.6 25.9 12.6 Z M 24.7 10 C 24.7 11.3 25.1 12 25.9 12 C 26.6 12 27 11.3 27 10 C 27 8.6 26.6 8 25.9 8 C 25.1 8 24.7 8.6 24.7 10 C 24.7 10 24.7 10 24.7 10 Z M 24.4 4.1 L 25.2 4.1 L 22 12.5 L 21.2 12.5 L 24.4 4.1 Z " stroke="none" fill="#68adca"/>  </g></svg>