<?xml version="1.0" standalone="no"?><!DOCTYPE svg PUBLIC "-//W3C//DTD SVG 1.1//EN" "http://www.w3.org/Graphics/SVG/1.1/DTD/svg11.dtd"><svg xmlns="http://www.w3.org/2000/svg" version="1.1" width="152px" height="127.5px" viewBox="-54 -55 152 127.5" style="left:-54px;top:-55px">  <desc>34.2%</desc>  <defs/>  <g id="Polygon79958">    <path d="M 9.6 12.6 C 9.1 12.6 8.6 12.5 8.2 12.4 C 8.17 12.42 8.2 11.7 8.2 11.7 C 8.2 11.7 8.24 11.69 8.2 11.7 C 8.4 11.7 8.6 11.8 8.8 11.8 C 9 11.8 9.3 11.8 9.5 11.8 C 10.1 11.8 10.5 11.7 10.8 11.4 C 11.2 11.1 11.3 10.7 11.3 10.2 C 11.3 9.7 11.1 9.2 10.8 8.9 C 10.5 8.7 10 8.5 9.3 8.5 C 9.3 8.52 8.9 8.5 8.9 8.5 L 8.9 7.8 C 8.9 7.8 9.28 7.8 9.3 7.8 C 9.9 7.8 10.3 7.7 10.6 7.4 C 10.9 7.1 11.1 6.8 11.1 6.2 C 11.1 5.2 10.6 4.7 9.5 4.7 C 9.4 4.7 9.2 4.7 9 4.8 C 8.8 4.8 8.5 4.8 8.3 4.9 C 8.28 4.87 8.2 4.9 8.2 4.9 C 8.2 4.9 8.14 4.15 8.1 4.2 C 8.4 4.1 8.6 4 8.9 4 C 9.1 4 9.4 4 9.6 4 C 10.4 4 11 4.2 11.4 4.5 C 11.8 4.9 12 5.4 12 6.1 C 12 6.6 11.9 7.1 11.7 7.4 C 11.4 7.7 11.1 8 10.6 8.1 C 10.6 8.1 10.6 8.2 10.6 8.2 C 11.2 8.3 11.6 8.5 11.8 8.9 C 12.1 9.2 12.2 9.7 12.2 10.3 C 12.2 11 12 11.6 11.5 12 C 11.1 12.4 10.4 12.6 9.6 12.6 Z M 13 10 L 13 9.9 L 15.8 4 L 15.8 4 L 16.6 4.1 L 16.7 4.2 L 14 9.7 L 14 9.7 L 16.6 9.7 L 16.8 6.8 L 17.5 6.8 L 17.5 9.7 L 18.5 9.7 L 18.5 10.5 L 17.5 10.5 L 17.5 12.5 L 16.6 12.5 L 16.6 10.5 L 13.2 10.5 L 13 10 Z M 20.6 11.9 C 20.6 12.3 20.4 12.5 20 12.5 C 19.6 12.5 19.4 12.3 19.4 11.9 C 19.4 11.6 19.6 11.4 20 11.4 C 20.1 11.4 20.3 11.4 20.4 11.5 C 20.5 11.6 20.6 11.7 20.6 11.9 C 20.6 11.9 20.6 11.9 20.6 11.9 Z M 21.6 11.3 C 21.6 11 21.7 10.7 21.7 10.4 C 21.8 10.1 21.9 9.9 22.1 9.6 C 22.3 9.3 22.5 9.1 22.7 8.9 C 23 8.6 23.3 8.4 23.6 8.2 C 24.2 7.8 24.5 7.5 24.7 7.2 C 25 6.9 25.1 6.5 25.1 6.1 C 25.1 5.2 24.6 4.8 23.6 4.8 C 23.1 4.8 22.6 4.9 21.9 5.1 C 21.9 5.1 21.8 4.3 21.8 4.3 C 22.2 4.2 22.5 4.1 22.8 4.1 C 23.2 4 23.5 4 23.7 4 C 25.2 4 26 4.7 26 6.1 C 26 6.3 25.9 6.6 25.9 6.8 C 25.8 7 25.7 7.3 25.6 7.5 C 25.4 7.7 25.2 7.9 25 8.1 C 24.8 8.3 24.5 8.5 24.2 8.7 C 23.9 8.9 23.7 9.2 23.4 9.4 C 23.2 9.6 23 9.7 22.9 9.9 C 22.8 10.1 22.7 10.3 22.6 10.5 C 22.6 10.7 22.5 10.9 22.5 11.2 C 22.53 11.18 22.5 11.7 22.5 11.7 L 26 11.7 L 26 12.5 L 21.6 12.5 C 21.6 12.5 21.62 11.35 21.6 11.3 Z M 28.8 9.3 C 28.2 9.3 27.7 9.1 27.4 8.6 C 27.1 8.2 26.9 7.5 26.9 6.6 C 26.9 5.8 27.1 5.1 27.4 4.6 C 27.7 4.2 28.2 4 28.8 4 C 29.4 4 29.8 4.2 30.1 4.6 C 30.5 5.1 30.6 5.8 30.6 6.6 C 30.6 7.5 30.5 8.2 30.1 8.6 C 29.8 9.1 29.4 9.3 28.8 9.3 Z M 27.6 6.6 C 27.6 8 28 8.6 28.8 8.6 C 29.5 8.6 29.9 8 29.9 6.6 C 29.9 5.3 29.5 4.6 28.8 4.6 C 28 4.6 27.6 5.3 27.6 6.6 C 27.6 6.6 27.6 6.6 27.6 6.6 Z M 34 12.6 C 33.4 12.6 33 12.4 32.7 11.9 C 32.3 11.5 32.2 10.8 32.2 10 C 32.2 9.1 32.3 8.4 32.7 8 C 33 7.5 33.4 7.3 34 7.3 C 34.6 7.3 35.1 7.5 35.4 8 C 35.7 8.4 35.9 9.1 35.9 10 C 35.9 10.8 35.7 11.5 35.4 11.9 C 35.1 12.4 34.6 12.6 34 12.6 Z M 32.9 10 C 32.9 11.3 33.3 12 34 12 C 34.8 12 35.1 11.3 35.1 10 C 35.1 8.6 34.8 8 34 8 C 33.3 8 32.9 8.6 32.9 10 C 32.9 10 32.9 10 32.9 10 Z M 32.6 4.1 L 33.4 4.1 L 30.1 12.5 L 29.3 12.5 L 32.6 4.1 Z " stroke="none" fill="#ee3078"/>  </g></svg>