<?xml version="1.0" standalone="no"?><!DOCTYPE svg PUBLIC "-//W3C//DTD SVG 1.1//EN" "http://www.w3.org/Graphics/SVG/1.1/DTD/svg11.dtd"><svg xmlns="http://www.w3.org/2000/svg" version="1.1" width="45px" height="16.8px" viewBox="0 -2 45 16.8" style="top:-2px">  <desc>Protein S</desc>  <defs/>  <g id="Polygon77613">    <path d="M 1.1 0.5 C 1.1 0.5 3.8 0.52 3.8 0.5 C 5.2 0.5 6.2 1.4 6.2 2.8 C 6.2 4.3 5.2 5.2 3.8 5.2 C 3.8 5.21 1.9 5.2 1.9 5.2 L 1.9 8.2 L 1.1 8.2 L 1.1 0.5 Z M 3.7 4.5 C 4.7 4.5 5.4 3.9 5.4 2.8 C 5.4 1.8 4.7 1.2 3.7 1.2 C 3.71 1.2 1.9 1.2 1.9 1.2 L 1.9 4.5 C 1.9 4.5 3.7 4.53 3.7 4.5 Z M 7.5 2.7 L 8.2 2.7 C 8.2 2.7 8.22 3.7 8.2 3.7 C 8.2 3.9 8.2 4.1 8.2 4.1 C 8.2 4.1 8.2 4.1 8.2 4.1 C 8.5 3.3 9.1 2.7 10 2.7 C 10.1 2.7 10.3 2.7 10.3 2.7 C 10.26 2.7 10.3 3.4 10.3 3.4 C 10.3 3.4 10.13 3.41 10 3.4 C 9.2 3.4 8.6 4 8.4 4.8 C 8.3 5.2 8.2 5.6 8.2 5.9 C 8.23 5.92 8.2 8.2 8.2 8.2 L 7.5 8.2 L 7.5 2.7 Z M 13.8 2.6 C 15.5 2.6 16.8 3.8 16.8 5.5 C 16.8 7.1 15.5 8.4 13.8 8.4 C 12.2 8.4 10.9 7.1 10.9 5.5 C 10.9 3.8 12.2 2.6 13.8 2.6 Z M 13.8 7.7 C 15 7.7 16 6.7 16 5.5 C 16 4.2 15 3.3 13.8 3.3 C 12.7 3.3 11.7 4.2 11.7 5.5 C 11.7 6.7 12.7 7.7 13.8 7.7 Z M 18.4 3.4 L 17.7 3.4 L 17.7 2.8 L 18.4 2.8 L 18.4 1.2 L 19.1 1.2 L 19.1 2.8 L 20.5 2.8 L 20.5 3.4 L 19.1 3.4 C 19.1 3.4 19.13 6.16 19.1 6.2 C 19.1 7.5 20 7.6 20.4 7.6 C 20.53 7.62 20.6 7.6 20.6 7.6 L 20.6 8.3 C 20.6 8.3 20.5 8.29 20.3 8.3 C 19.7 8.3 18.4 8.1 18.4 6.2 C 18.38 6.24 18.4 3.4 18.4 3.4 Z M 24.2 2.6 C 25.7 2.6 26.5 3.8 26.5 5.1 C 26.51 5.27 26.5 5.5 26.5 5.5 C 26.5 5.5 22.24 5.52 22.2 5.5 C 22.3 6.9 23.2 7.7 24.4 7.7 C 25.4 7.71 26.1 7 26.1 7 L 26.4 7.6 C 26.4 7.6 25.61 8.38 24.4 8.4 C 22.7 8.4 21.5 7.2 21.5 5.5 C 21.5 3.7 22.7 2.6 24.2 2.6 Z M 25.8 4.9 C 25.7 3.8 25 3.2 24.2 3.2 C 23.3 3.2 22.5 3.8 22.3 4.9 C 22.3 4.9 25.8 4.9 25.8 4.9 Z M 27.9 0.5 L 28.7 0.5 L 28.7 1.5 L 27.9 1.5 L 27.9 0.5 Z M 27.9 2.7 L 28.7 2.7 L 28.7 8.2 L 27.9 8.2 L 27.9 2.7 Z M 30.5 2.7 L 31.2 2.7 C 31.2 2.7 31.23 3.54 31.2 3.5 C 31.2 3.8 31.2 4 31.2 4 C 31.2 4 31.2 4 31.2 4 C 31.4 3.5 32.1 2.6 33.4 2.6 C 34.8 2.6 35.3 3.4 35.3 4.7 C 35.29 4.73 35.3 8.2 35.3 8.2 L 34.5 8.2 C 34.5 8.2 34.54 4.93 34.5 4.9 C 34.5 4.1 34.4 3.3 33.3 3.3 C 32.4 3.3 31.6 3.9 31.3 4.9 C 31.3 5.1 31.2 5.3 31.2 5.6 C 31.24 5.6 31.2 8.2 31.2 8.2 L 30.5 8.2 L 30.5 2.7 Z M 40.1 6.8 C 40.1 6.8 40.87 7.66 42.1 7.7 C 42.9 7.7 43.6 7.2 43.6 6.3 C 43.6 4.4 39.8 4.9 39.8 2.5 C 39.8 1.4 40.8 0.4 42.2 0.4 C 43.53 0.39 44.3 1.1 44.3 1.1 L 43.9 1.8 C 43.9 1.8 43.2 1.11 42.2 1.1 C 41.2 1.1 40.6 1.8 40.6 2.4 C 40.6 4.3 44.4 3.8 44.4 6.3 C 44.4 7.4 43.5 8.4 42.1 8.4 C 40.49 8.38 39.6 7.4 39.6 7.4 L 40.1 6.8 Z " stroke="none" fill="#000"/>  </g></svg>