<?xml version="1.0" standalone="no"?><!DOCTYPE svg PUBLIC "-//W3C//DTD SVG 1.1//EN" "http://www.w3.org/Graphics/SVG/1.1/DTD/svg11.dtd"><svg xmlns="http://www.w3.org/2000/svg" version="1.1" width="53px" height="20.5px" viewBox="0 -2 53 20.5" style="top:-2px">  <desc>20E4/LNG</desc>  <defs/>  <g id="Polygon73497">    <path d="M 6.8 2.4 C 6.8 1.7 6.3 1.2 5.6 1.2 C 4.9 1.2 4.5 1.6 4.5 1.9 C 4.49 1.91 4.5 2.2 4.5 2.2 L 3.6 2.2 C 3.6 2.2 3.57 1.62 3.6 1.6 C 3.6 0.7 4.8 0.3 5.6 0.3 C 6.9 0.3 7.8 1.1 7.8 2.3 C 7.8 4.8 4.3 4.8 4.3 6.5 C 4.3 6.6 4.3 6.6 4.5 6.6 C 4.5 6.6 7 6.6 7 6.6 C 7.2 6.6 7.2 6.6 7.2 6.4 C 7.24 6.42 7.2 6 7.2 6 L 8.2 6 C 8.2 6 8.16 6.86 8.2 6.9 C 8.2 7.3 8 7.5 7.5 7.5 C 7.5 7.5 3.9 7.5 3.9 7.5 C 3.3 7.5 3.2 7.3 3.2 6.7 C 3.2 4.1 6.8 4.3 6.8 2.4 Z M 9.1 4 C 9.1 1.9 9.7 0.3 11.6 0.3 C 13.4 0.3 14.1 1.9 14.1 4 C 14.1 6 13.4 7.6 11.6 7.6 C 9.7 7.6 9.1 6 9.1 4 Z M 13 4 C 13 2.4 12.7 1.2 11.6 1.2 C 10.4 1.2 10.1 2.4 10.1 4 C 10.1 5.5 10.4 6.7 11.6 6.7 C 12.7 6.7 13 5.5 13 4 Z M 15.6 1.3 L 15 1.3 L 15 0.4 C 15 0.4 19.13 0.44 19.1 0.4 C 19.6 0.4 19.8 0.6 19.8 1.1 C 19.77 1.08 19.8 2 19.8 2 L 18.9 2 C 18.9 2 18.86 1.52 18.9 1.5 C 18.9 1.4 18.8 1.3 18.6 1.3 C 18.64 1.3 16.6 1.3 16.6 1.3 L 16.6 3.5 L 19.1 3.5 L 19.1 4.4 L 16.6 4.4 C 16.6 4.4 16.63 6.42 16.6 6.4 C 16.6 6.6 16.7 6.6 16.8 6.6 C 16.8 6.6 18.9 6.6 18.9 6.6 C 19 6.6 19.1 6.6 19.1 6.4 C 19.13 6.42 19.1 6 19.1 6 L 20 6 C 20 6 20.05 6.86 20 6.9 C 20 7.3 19.9 7.5 19.4 7.5 C 19.4 7.5 16.3 7.5 16.3 7.5 C 15.8 7.5 15.6 7.3 15.6 6.9 C 15.63 6.86 15.6 1.3 15.6 1.3 Z M 20.4 5 L 23.6 0.4 L 24.8 0.4 L 24.8 4.8 L 25.9 4.8 L 25.9 5.6 L 24.8 5.6 L 24.8 7.5 L 23.8 7.5 L 23.8 5.6 L 20.4 5.6 L 20.4 5 Z M 23.8 2.3 C 23.78 2.02 23.8 1.6 23.8 1.6 L 23.8 1.6 C 23.8 1.6 23.62 1.96 23.4 2.2 C 23.4 2.2 21.9 4.3 21.9 4.3 C 21.72 4.58 21.5 4.8 21.5 4.8 L 21.5 4.8 C 21.5 4.8 21.82 4.77 22.1 4.8 C 22.13 4.77 23.8 4.8 23.8 4.8 C 23.8 4.8 23.78 2.34 23.8 2.3 Z M 28.6 0.1 L 29.4 0.1 L 26.9 7.9 L 26 7.9 L 28.6 0.1 Z M 30.5 1.5 C 30.5 1.4 30.4 1.3 30.3 1.3 C 30.3 1.3 29.9 1.3 29.9 1.3 L 29.9 0.4 C 29.9 0.4 30.88 0.44 30.9 0.4 C 31.3 0.4 31.5 0.6 31.5 1.1 C 31.5 1.1 31.5 6.4 31.5 6.4 C 31.5 6.6 31.6 6.6 31.7 6.6 C 31.7 6.6 33.7 6.6 33.7 6.6 C 33.8 6.6 33.9 6.6 33.9 6.4 C 33.91 6.42 33.9 6 33.9 6 L 34.8 6 C 34.8 6 34.82 6.86 34.8 6.9 C 34.8 7.3 34.6 7.5 34.2 7.5 C 34.2 7.5 31.2 7.5 31.2 7.5 C 30.7 7.5 30.5 7.3 30.5 6.9 C 30.5 6.9 30.5 1.5 30.5 1.5 Z M 35.3 6.6 C 35.3 6.6 35.73 6.64 35.7 6.6 C 35.9 6.6 35.9 6.6 35.9 6.4 C 35.95 6.42 35.9 0.4 35.9 0.4 L 36.9 0.4 C 36.9 0.4 40 4.91 40 4.9 C 40.26 5.29 40.6 5.9 40.6 5.9 L 40.6 5.9 C 40.6 5.9 40.54 5.31 40.5 4.9 C 40.5 4.9 40.5 1.1 40.5 1.1 C 40.5 0.6 40.7 0.4 41.2 0.4 C 41.19 0.44 42.2 0.4 42.2 0.4 L 42.2 1.3 C 42.2 1.3 41.76 1.3 41.8 1.3 C 41.6 1.3 41.5 1.4 41.5 1.5 C 41.54 1.52 41.5 7.5 41.5 7.5 L 40.6 7.5 C 40.6 7.5 37.49 3.03 37.5 3 C 37.23 2.65 36.9 2.1 36.9 2.1 L 36.9 2.1 C 36.9 2.1 36.95 2.64 36.9 3 C 36.9 3 36.9 6.9 36.9 6.9 C 36.9 7.3 36.8 7.5 36.3 7.5 C 36.31 7.5 35.3 7.5 35.3 7.5 L 35.3 6.6 Z M 46.5 0.3 C 48.17 0.32 49 1.2 49 1.2 L 48.4 1.9 C 48.4 1.9 47.67 1.24 46.5 1.2 C 45.1 1.2 44 2.4 44 3.9 C 44 5.6 45.1 6.7 46.5 6.7 C 47.78 6.68 48.5 5.8 48.5 5.8 C 48.5 5.8 48.53 5.09 48.5 5.1 C 48.5 4.9 48.4 4.9 48.3 4.9 C 48.31 4.87 47.9 4.9 47.9 4.9 L 47.9 4 C 47.9 4 48.81 4.01 48.8 4 C 49.3 4 49.4 4.2 49.4 4.6 C 49.45 4.65 49.4 7.5 49.4 7.5 L 48.6 7.5 C 48.6 7.5 48.57 7.06 48.6 7.1 C 48.6 6.9 48.6 6.8 48.6 6.8 C 48.58 6.76 48.6 6.8 48.6 6.8 C 48.6 6.8 47.77 7.62 46.4 7.6 C 44.5 7.6 42.9 6.1 42.9 3.9 C 42.9 1.9 44.5 0.3 46.5 0.3 Z " stroke="none" fill="#000"/>  </g></svg>