<?xml version="1.0" standalone="no"?><!DOCTYPE svg PUBLIC "-//W3C//DTD SVG 1.1//EN" "http://www.w3.org/Graphics/SVG/1.1/DTD/svg11.dtd"><svg xmlns="http://www.w3.org/2000/svg" version="1.1" width="116px" height="30px" viewBox="0 -4 116 30" style="top:-4px">  <desc>Estriol (E3)1 4</desc>  <defs/>  <g id="Polygon68813">    <path d="M 2.1 2.6 L 0.8 2.6 L 0.8 0.9 C 0.8 0.9 9.06 0.88 9.1 0.9 C 10 0.9 10.3 1.3 10.3 2.2 C 10.34 2.16 10.3 3.9 10.3 3.9 L 8.5 3.9 C 8.5 3.9 8.52 3.04 8.5 3 C 8.5 2.7 8.4 2.6 8.1 2.6 C 8.08 2.6 4.1 2.6 4.1 2.6 L 4.1 7 L 9 7 L 9 8.7 L 4.1 8.7 C 4.1 8.7 4.06 12.84 4.1 12.8 C 4.1 13.1 4.2 13.3 4.5 13.3 C 4.5 13.3 8.6 13.3 8.6 13.3 C 8.9 13.3 9.1 13.1 9.1 12.8 C 9.06 12.84 9.1 11.9 9.1 11.9 L 10.9 11.9 C 10.9 11.9 10.9 13.72 10.9 13.7 C 10.9 14.6 10.5 15 9.6 15 C 9.6 15 3.3 15 3.3 15 C 2.4 15 2.1 14.6 2.1 13.7 C 2.06 13.72 2.1 2.6 2.1 2.6 Z M 12.9 12.2 C 12.9 12.2 14.1 13.66 16 13.7 C 16.9 13.7 17.7 13.2 17.7 12.4 C 17.7 10.5 12.2 10.7 12.2 7.5 C 12.2 5.5 13.9 4.6 16 4.6 C 17.2 4.6 19.3 5.1 19.3 6.6 C 19.28 6.6 19.3 7.6 19.3 7.6 L 17.5 7.6 C 17.5 7.6 17.54 7.06 17.5 7.1 C 17.5 6.5 16.6 6.2 16 6.2 C 14.9 6.2 14.1 6.6 14.1 7.4 C 14.1 9.3 19.7 8.9 19.7 12.3 C 19.7 14.1 18.1 15.2 15.9 15.2 C 13.24 15.24 11.9 13.5 11.9 13.5 L 12.9 12.2 Z M 22.2 6.4 L 20.9 6.4 L 20.9 4.9 L 22.3 4.9 L 22.3 2.1 L 24.2 2.1 L 24.2 4.9 L 26.6 4.9 L 26.6 6.4 L 24.2 6.4 C 24.2 6.4 24.16 11.08 24.2 11.1 C 24.2 13.1 25.6 13.4 26.3 13.4 C 26.58 13.36 26.8 13.3 26.8 13.3 L 26.8 15 C 26.8 15 26.5 15.08 26.1 15.1 C 24.8 15.1 22.2 14.7 22.2 11.3 C 22.22 11.3 22.2 6.4 22.2 6.4 Z M 29.2 7 C 29.2 6.7 29 6.5 28.7 6.5 C 28.74 6.54 27.9 6.5 27.9 6.5 L 27.9 4.9 C 27.9 4.9 29.76 4.88 29.8 4.9 C 30.6 4.9 31.1 5.2 31.1 6.1 C 31.1 6.1 31.1 6.7 31.1 6.7 C 31.06 7.1 31 7.4 31 7.4 C 31 7.4 31.06 7.4 31.1 7.4 C 31.5 5.9 32.7 4.8 34.3 4.8 C 34.52 4.76 34.8 4.8 34.8 4.8 L 34.8 6.7 C 34.8 6.7 34.52 6.66 34.2 6.7 C 33 6.7 31.8 7.5 31.4 9 C 31.2 9.6 31.1 10.2 31.1 10.9 C 31.12 10.86 31.1 15 31.1 15 L 29.2 15 C 29.2 15 29.18 6.98 29.2 7 Z M 37.1 0.9 L 38.8 0.9 L 38.8 2.9 L 37.1 2.9 L 37.1 0.9 Z M 37 7 C 37 6.7 36.9 6.5 36.6 6.5 C 36.58 6.54 35.8 6.5 35.8 6.5 L 35.8 4.9 C 35.8 4.9 37.66 4.88 37.7 4.9 C 38.6 4.9 38.9 5.3 38.9 6.2 C 38.9 6.2 38.9 12.9 38.9 12.9 C 38.9 13.2 39.1 13.3 39.4 13.3 C 39.38 13.34 40.2 13.3 40.2 13.3 L 40.2 15 C 40.2 15 38.3 15 38.3 15 C 37.4 15 37 14.6 37 13.7 C 37 13.7 37 7 37 7 Z M 46.9 4.6 C 49.9 4.6 52.3 6.9 52.3 9.9 C 52.3 13 49.9 15.2 46.9 15.2 C 43.9 15.2 41.4 13 41.4 9.9 C 41.4 6.9 43.9 4.6 46.9 4.6 Z M 46.9 13.6 C 48.8 13.6 50.4 12 50.4 9.9 C 50.4 7.8 48.8 6.3 46.9 6.3 C 45 6.3 43.4 7.8 43.4 9.9 C 43.4 12 45 13.6 46.9 13.6 Z M 54.5 3 C 54.5 2.7 54.4 2.5 54.1 2.5 C 54.1 2.54 53.3 2.5 53.3 2.5 L 53.3 0.9 C 53.3 0.9 55.2 0.88 55.2 0.9 C 56.1 0.9 56.5 1.3 56.5 2.2 C 56.5 2.2 56.5 12.9 56.5 12.9 C 56.5 13.2 56.6 13.3 56.9 13.3 C 56.92 13.34 57.7 13.3 57.7 13.3 L 57.7 15 C 57.7 15 55.82 15 55.8 15 C 54.9 15 54.5 14.6 54.5 13.7 C 54.5 13.7 54.5 3 54.5 3 Z M 67.5 0.3 C 67.5 0.3 69.2 0.3 69.2 0.3 C 67.8 2.8 67 5.4 67 8.3 C 67 11.2 67.8 14.2 69.3 16.9 C 69.3 16.9 67.6 16.9 67.6 16.9 C 66.1 14.6 65.3 11.5 65.3 8.4 C 65.3 5.4 66 2.6 67.5 0.3 Z M 72.3 2.6 L 71 2.6 L 71 0.9 C 71 0.9 79.28 0.88 79.3 0.9 C 80.2 0.9 80.6 1.3 80.6 2.2 C 80.56 2.16 80.6 3.9 80.6 3.9 L 78.7 3.9 C 78.7 3.9 78.74 3.04 78.7 3 C 78.7 2.7 78.6 2.6 78.3 2.6 C 78.3 2.6 74.3 2.6 74.3 2.6 L 74.3 7 L 79.2 7 L 79.2 8.7 L 74.3 8.7 C 74.3 8.7 74.28 12.84 74.3 12.8 C 74.3 13.1 74.4 13.3 74.7 13.3 C 74.7 13.3 78.8 13.3 78.8 13.3 C 79.1 13.3 79.3 13.1 79.3 12.8 C 79.28 12.84 79.3 11.9 79.3 11.9 L 81.1 11.9 C 81.1 11.9 81.12 13.72 81.1 13.7 C 81.1 14.6 80.7 15 79.8 15 C 79.8 15 73.6 15 73.6 15 C 72.7 15 72.3 14.6 72.3 13.7 C 72.28 13.72 72.3 2.6 72.3 2.6 Z M 83.2 11.8 C 83.2 11.8 84.58 13.36 86.8 13.4 C 88.3 13.4 89.6 12.3 89.6 10.8 C 89.6 9.2 88.2 8.3 86.5 8.3 C 86.52 8.26 85.5 8.3 85.5 8.3 L 85.1 7.2 C 85.1 7.2 88.04 3.5 88 3.5 C 88.46 2.9 88.9 2.6 88.9 2.6 L 88.9 2.5 C 88.9 2.5 88.44 2.6 87.7 2.6 C 87.7 2.6 84.9 2.6 84.9 2.6 C 84.7 2.6 84.5 2.7 84.5 3 C 84.5 3.04 84.5 3.9 84.5 3.9 L 82.7 3.9 C 82.7 3.9 82.66 2.16 82.7 2.2 C 82.7 1.3 83 0.9 83.9 0.9 C 83.88 0.88 91.3 0.9 91.3 0.9 L 91.3 2.1 C 91.3 2.1 87.6 6.62 87.6 6.6 C 89.4 6.8 91.6 8 91.6 10.8 C 91.6 13.1 89.7 15.2 86.8 15.2 C 83.82 15.24 82.1 13.3 82.1 13.3 L 83.2 11.8 Z M 95.6 8.3 C 95.6 5.4 94.9 2.8 93.4 0.3 C 93.4 0.3 95.1 0.3 95.1 0.3 C 96.6 2.6 97.3 5.4 97.3 8.4 C 97.3 11.5 96.5 14.6 95 16.9 C 95 16.9 93.3 16.9 93.3 16.9 C 94.8 14.2 95.6 11.2 95.6 8.3 Z M 99.7 7.3 L 101.6 7.3 C 101.6 7.3 101.55 2.02 101.6 2 C 101.55 1.76 101.6 1.5 101.6 1.5 L 101.5 1.5 C 101.5 1.5 101.45 1.69 101.2 2 C 101.16 1.99 100.4 2.7 100.4 2.7 L 99.7 2 L 101.7 0.1 L 102.7 0.1 L 102.7 7.3 L 104.5 7.3 L 104.5 8.3 L 99.7 8.3 L 99.7 7.3 Z M 105.1 4.5 L 108.5 4.5 L 108.5 5.5 L 105.1 5.5 L 105.1 4.5 Z M 109.5 5.4 L 113.2 0.1 L 114.6 0.1 L 114.6 5.2 L 115.8 5.2 L 115.8 6.2 L 114.6 6.2 L 114.6 8.3 L 113.4 8.3 L 113.4 6.2 L 109.5 6.2 L 109.5 5.4 Z M 113.4 2.3 C 113.4 1.95 113.4 1.5 113.4 1.5 L 113.4 1.5 C 113.4 1.5 113.21 1.88 113 2.2 C 113 2.2 111.2 4.6 111.2 4.6 C 111 4.94 110.8 5.2 110.8 5.2 L 110.8 5.2 C 110.8 5.2 111.11 5.16 111.5 5.2 C 111.48 5.16 113.4 5.2 113.4 5.2 C 113.4 5.2 113.4 2.32 113.4 2.3 Z " stroke="none" fill="#ee3078"/>  </g></svg>