<?xml version="1.0" standalone="no"?><!DOCTYPE svg PUBLIC "-//W3C//DTD SVG 1.1//EN" "http://www.w3.org/Graphics/SVG/1.1/DTD/svg11.dtd"><svg xmlns="http://www.w3.org/2000/svg" version="1.1" width="152px" height="127.5px" viewBox="-54 -55 152 127.5" style="left:-54px;top:-55px">  <desc>41.9%</desc>  <defs/>  <g id="Polygon79640">    <path d="M 8.2 10 L 8.2 9.9 L 11 4 L 11.1 4 L 11.9 4.1 L 11.9 4.2 L 9.2 9.7 L 9.2 9.7 L 11.8 9.7 L 12.1 6.8 L 12.7 6.8 L 12.7 9.7 L 13.7 9.7 L 13.7 10.5 L 12.7 10.5 L 12.7 12.5 L 11.8 12.5 L 11.8 10.5 L 8.4 10.5 L 8.2 10 Z M 15.8 5.2 L 15.8 5.2 L 14.2 6.1 L 14.1 6.1 L 13.9 5.7 L 13.9 5.6 L 16.1 4.1 L 16.7 4.1 L 16.7 12.5 L 15.8 12.5 L 15.8 5.2 Z M 19.5 11.9 C 19.5 12.3 19.3 12.5 18.9 12.5 C 18.5 12.5 18.3 12.3 18.3 11.9 C 18.3 11.6 18.5 11.4 18.9 11.4 C 19.1 11.4 19.2 11.4 19.3 11.5 C 19.4 11.6 19.5 11.7 19.5 11.9 C 19.5 11.9 19.5 11.9 19.5 11.9 Z M 22.9 4 C 23.8 4 24.5 4.3 24.9 4.9 C 25.4 5.6 25.6 6.5 25.6 7.8 C 25.6 8.6 25.5 9.2 25.4 9.8 C 25.2 10.4 25 10.9 24.7 11.3 C 24.4 11.8 24.1 12.1 23.7 12.3 C 23.2 12.5 22.8 12.6 22.2 12.6 C 22 12.6 21.8 12.6 21.6 12.6 C 21.4 12.5 21.1 12.5 20.9 12.4 C 20.9 12.4 21 11.6 21 11.6 C 21.2 11.7 21.4 11.8 21.6 11.8 C 21.8 11.8 22 11.8 22.2 11.8 C 23 11.8 23.5 11.5 24 11 C 24.4 10.4 24.6 9.5 24.7 8.4 C 24.4 8.7 24.1 8.9 23.8 9 C 23.5 9.2 23.1 9.2 22.8 9.2 C 22.4 9.2 22.1 9.2 21.8 9.1 C 21.5 8.9 21.3 8.8 21.1 8.6 C 20.8 8.4 20.7 8.1 20.6 7.8 C 20.5 7.5 20.4 7.1 20.4 6.8 C 20.4 6.3 20.5 6 20.6 5.6 C 20.7 5.3 20.9 5 21.1 4.7 C 21.3 4.5 21.6 4.3 21.9 4.2 C 22.2 4 22.5 4 22.9 4 Z M 22.9 8.5 C 23.2 8.5 23.5 8.5 23.9 8.3 C 24.2 8.1 24.5 7.9 24.7 7.7 C 24.7 6.7 24.6 5.9 24.3 5.4 C 24 5 23.5 4.7 22.9 4.7 C 22.4 4.7 22 4.9 21.8 5.3 C 21.5 5.6 21.3 6.1 21.3 6.8 C 21.3 7.3 21.5 7.8 21.7 8.1 C 22 8.4 22.4 8.5 22.9 8.5 Z M 28.4 9.3 C 27.8 9.3 27.3 9.1 27 8.6 C 26.7 8.2 26.5 7.5 26.5 6.6 C 26.5 5.8 26.7 5.1 27 4.6 C 27.3 4.2 27.8 4 28.4 4 C 29 4 29.5 4.2 29.8 4.6 C 30.1 5.1 30.2 5.8 30.2 6.6 C 30.2 7.5 30.1 8.2 29.8 8.6 C 29.5 9.1 29 9.3 28.4 9.3 Z M 27.3 6.6 C 27.3 8 27.6 8.6 28.4 8.6 C 29.1 8.6 29.5 8 29.5 6.6 C 29.5 5.3 29.1 4.6 28.4 4.6 C 27.6 4.6 27.3 5.3 27.3 6.6 C 27.3 6.6 27.3 6.6 27.3 6.6 Z M 33.7 12.6 C 33 12.6 32.6 12.4 32.3 11.9 C 32 11.5 31.8 10.8 31.8 10 C 31.8 9.1 32 8.4 32.3 8 C 32.6 7.5 33 7.3 33.7 7.3 C 34.3 7.3 34.7 7.5 35 8 C 35.3 8.4 35.5 9.1 35.5 10 C 35.5 10.8 35.3 11.5 35 11.9 C 34.7 12.4 34.3 12.6 33.7 12.6 Z M 32.5 10 C 32.5 11.3 32.9 12 33.7 12 C 34.4 12 34.8 11.3 34.8 10 C 34.8 8.6 34.4 8 33.7 8 C 32.9 8 32.5 8.6 32.5 10 C 32.5 10 32.5 10 32.5 10 Z M 32.2 4.1 L 33 4.1 L 29.8 12.5 L 29 12.5 L 32.2 4.1 Z " stroke="none" fill="#68adca"/>  </g></svg>