<?xml version="1.0" standalone="no"?><!DOCTYPE svg PUBLIC "-//W3C//DTD SVG 1.1//EN" "http://www.w3.org/Graphics/SVG/1.1/DTD/svg11.dtd"><svg xmlns="http://www.w3.org/2000/svg" version="1.1" width="30px" height="16.8px" viewBox="0 -2 30 16.8" style="top:-2px">  <desc>F VII</desc>  <defs/>  <g id="Polygon76976">    <path d="M 5.4 0.5 L 9.5 0.5 L 9.5 1.2 L 6.1 1.2 L 6.1 4.1 L 9 4.1 L 9 4.8 L 6.1 4.8 L 6.1 8.2 L 5.4 8.2 L 5.4 0.5 Z M 13 0.5 L 13.8 0.5 C 13.8 0.5 15.96 6.39 16 6.4 C 16.11 6.79 16.3 7.4 16.3 7.4 L 16.3 7.4 C 16.3 7.4 16.44 6.79 16.6 6.4 C 16.58 6.39 18.7 0.5 18.7 0.5 L 19.5 0.5 L 16.7 8.2 L 15.9 8.2 L 13 0.5 Z M 20.8 0.5 L 21.6 0.5 L 21.6 8.2 L 20.8 8.2 L 20.8 0.5 Z M 23.8 0.5 L 24.6 0.5 L 24.6 8.2 L 23.8 8.2 L 23.8 0.5 Z " stroke="none" fill="#000"/>  </g></svg>