<?xml version="1.0" standalone="no"?><!DOCTYPE svg PUBLIC "-//W3C//DTD SVG 1.1//EN" "http://www.w3.org/Graphics/SVG/1.1/DTD/svg11.dtd"><svg xmlns="http://www.w3.org/2000/svg" version="1.1" width="353px" height="43.5px" viewBox="0 -5 353 43.5" style="top:-5px">  <desc>Hmotnostn stabilita</desc>  <defs/>  <g id="Polygon65951">    <path d="M 3.2 3.9 C 3.2 3.5 3 3.3 2.5 3.3 C 2.55 3.27 1.3 3.3 1.3 3.3 L 1.3 1.4 C 1.3 1.4 3.48 1.41 3.5 1.4 C 4.8 1.4 5.3 2 5.3 3.2 C 5.31 3.24 5.3 11 5.3 11 L 17.4 11 C 17.4 11 17.43 3.24 17.4 3.2 C 17.4 2 18 1.4 19.2 1.4 C 19.23 1.41 21.5 1.4 21.5 1.4 L 21.5 3.3 C 21.5 3.3 20.19 3.27 20.2 3.3 C 19.8 3.3 19.5 3.5 19.5 3.9 C 19.53 3.93 19.5 22.5 19.5 22.5 L 17.4 22.5 L 17.4 12.9 L 5.3 12.9 L 5.3 22.5 L 3.2 22.5 C 3.2 22.5 3.21 3.93 3.2 3.9 Z M 25.3 9.8 C 25.3 9.4 25.1 9.2 24.7 9.2 C 24.66 9.18 23.4 9.2 23.4 9.2 L 23.4 7.4 C 23.4 7.4 25.5 7.41 25.5 7.4 C 26.8 7.4 27.3 8 27.3 9.1 C 27.3 9.1 27.3 9.8 27.3 9.8 C 27.33 10.38 27.3 10.9 27.3 10.9 C 27.3 10.9 27.33 10.86 27.3 10.9 C 28.1 8.8 30.4 7.1 32.8 7.1 C 35.6 7.1 37 8.3 37.5 10.8 C 37.5 10.8 37.5 10.8 37.5 10.8 C 38.3 8.8 40.5 7.1 43.1 7.1 C 46.7 7.1 48.1 9.2 48.1 12.9 C 48.1 12.9 48.1 20.1 48.1 20.1 C 48.1 20.5 48.3 20.7 48.7 20.7 C 48.75 20.73 50 20.7 50 20.7 L 50 22.5 C 50 22.5 47.88 22.5 47.9 22.5 C 46.6 22.5 46 22 46 20.7 C 46 20.7 46 13.4 46 13.4 C 46 10.9 45.5 8.9 42.8 8.9 C 40.5 8.9 38.6 10.9 38 13.2 C 37.8 13.8 37.7 14.6 37.7 15.4 C 37.74 15.36 37.7 22.5 37.7 22.5 L 35.7 22.5 C 35.7 22.5 35.7 13.41 35.7 13.4 C 35.7 11.1 35.4 8.9 32.5 8.9 C 30.1 8.9 28.2 11 27.6 13.4 C 27.4 14 27.4 14.7 27.4 15.4 C 27.36 15.36 27.4 22.5 27.4 22.5 L 25.3 22.5 C 25.3 22.5 25.32 9.84 25.3 9.8 Z M 59.8 7.1 C 64.2 7.1 67.8 10.4 67.8 14.9 C 67.8 19.4 64.2 22.9 59.8 22.9 C 55.4 22.9 51.8 19.4 51.8 14.9 C 51.8 10.4 55.4 7.1 59.8 7.1 Z M 59.8 21 C 63 21 65.7 18.4 65.7 14.9 C 65.7 11.5 63 8.9 59.8 8.9 C 56.6 8.9 53.9 11.5 53.9 14.9 C 53.9 18.4 56.6 21 59.8 21 Z M 71.8 9.1 L 69.8 9.1 L 69.8 7.4 L 71.8 7.4 L 71.8 3.2 L 73.8 3.2 L 73.8 7.4 L 77.6 7.4 L 77.6 9.1 L 73.8 9.1 C 73.8 9.1 73.8 16.8 73.8 16.8 C 73.8 20.3 76 20.8 77.2 20.8 C 77.61 20.79 77.9 20.7 77.9 20.7 L 77.9 22.6 C 77.9 22.6 77.52 22.62 77 22.6 C 75.3 22.6 71.8 22.1 71.8 17 C 71.76 17.01 71.8 9.1 71.8 9.1 Z M 81.6 9.8 C 81.6 9.4 81.4 9.2 81 9.2 C 80.97 9.18 79.7 9.2 79.7 9.2 L 79.7 7.4 C 79.7 7.4 81.81 7.41 81.8 7.4 C 83.1 7.4 83.6 8 83.6 9.1 C 83.6 9.1 83.6 9.8 83.6 9.8 C 83.64 10.38 83.6 10.9 83.6 10.9 C 83.6 10.9 83.64 10.86 83.6 10.9 C 84.2 9.5 86.1 7.1 89.6 7.1 C 93.4 7.1 94.7 9.2 94.7 12.9 C 94.7 12.9 94.7 20.1 94.7 20.1 C 94.7 20.5 94.9 20.7 95.4 20.7 C 95.37 20.73 96.6 20.7 96.6 20.7 L 96.6 22.5 C 96.6 22.5 94.5 22.5 94.5 22.5 C 93.2 22.5 92.7 22 92.7 20.7 C 92.7 20.7 92.7 13.4 92.7 13.4 C 92.7 11.1 92.3 9 89.4 9 C 86.8 9 84.6 10.7 83.9 13.2 C 83.7 13.9 83.7 14.6 83.7 15.3 C 83.67 15.27 83.7 22.5 83.7 22.5 L 81.6 22.5 C 81.6 22.5 81.63 9.84 81.6 9.8 Z M 106.4 7.1 C 110.8 7.1 114.4 10.4 114.4 14.9 C 114.4 19.4 110.8 22.9 106.4 22.9 C 102 22.9 98.5 19.4 98.5 14.9 C 98.5 10.4 102 7.1 106.4 7.1 Z M 106.4 21 C 109.6 21 112.3 18.4 112.3 14.9 C 112.3 11.5 109.6 8.9 106.4 8.9 C 103.2 8.9 100.6 11.5 100.6 14.9 C 100.6 18.4 103.2 21 106.4 21 Z M 117.6 18.8 C 117.6 18.8 119.31 21.09 122.3 21.1 C 124 21.1 125.5 20.3 125.5 18.7 C 125.5 15.4 117 16 117 11.1 C 117 8.4 119.3 7.1 122.4 7.1 C 123.9 7.1 127 7.7 127 9.8 C 126.96 9.78 127 11.1 127 11.1 L 125 11.1 C 125 11.1 125.04 10.35 125 10.4 C 125 9.2 123.4 8.8 122.4 8.8 C 120.3 8.8 119.1 9.5 119.1 11 C 119.1 14.4 127.5 13.6 127.5 18.6 C 127.5 21.1 125.2 22.9 122.2 22.9 C 118.32 22.86 116.5 20.2 116.5 20.2 L 117.6 18.8 Z M 131.6 9.1 L 129.6 9.1 L 129.6 7.4 L 131.6 7.4 L 131.6 3.2 L 133.6 3.2 L 133.6 7.4 L 137.4 7.4 L 137.4 9.1 L 133.6 9.1 C 133.6 9.1 133.62 16.8 133.6 16.8 C 133.6 20.3 135.9 20.8 137 20.8 C 137.43 20.79 137.7 20.7 137.7 20.7 L 137.7 22.6 C 137.7 22.6 137.34 22.62 136.8 22.6 C 135.1 22.6 131.6 22.1 131.6 17 C 131.58 17.01 131.6 9.1 131.6 9.1 Z M 141.4 9.8 C 141.4 9.4 141.2 9.2 140.8 9.2 C 140.79 9.18 139.5 9.2 139.5 9.2 L 139.5 7.4 C 139.5 7.4 141.63 7.41 141.6 7.4 C 142.9 7.4 143.5 8 143.5 9.1 C 143.5 9.1 143.5 9.8 143.5 9.8 C 143.46 10.38 143.4 10.9 143.4 10.9 C 143.4 10.9 143.46 10.86 143.5 10.9 C 144 9.5 145.9 7.1 149.5 7.1 C 153.2 7.1 154.5 9.2 154.5 12.9 C 154.5 12.9 154.5 20.1 154.5 20.1 C 154.5 20.5 154.8 20.7 155.2 20.7 C 155.19 20.73 156.4 20.7 156.4 20.7 L 156.4 22.5 C 156.4 22.5 154.32 22.5 154.3 22.5 C 153 22.5 152.5 22 152.5 20.7 C 152.5 20.7 152.5 13.4 152.5 13.4 C 152.5 11.1 152.1 9 149.2 9 C 146.6 9 144.4 10.7 143.7 13.2 C 143.5 13.9 143.5 14.6 143.5 15.3 C 143.49 15.27 143.5 22.5 143.5 22.5 L 141.4 22.5 C 141.4 22.5 141.45 9.84 141.4 9.8 Z M 167.5 13.2 C 167.52 13.2 168.4 13.2 168.4 13.2 C 168.4 13.2 168.36 13.02 168.4 13 C 168.4 9.9 167.2 8.8 164.5 8.8 C 163.7 8.8 161.5 9 161.5 10.1 C 161.52 10.08 161.5 11 161.5 11 L 159.6 11 C 159.6 11 159.57 9.6 159.6 9.6 C 159.6 7.5 163.2 7.1 164.5 7.1 C 169.3 7.1 170.4 9.6 170.4 12.8 C 170.4 12.8 170.4 20.1 170.4 20.1 C 170.4 20.5 170.6 20.7 171.1 20.7 C 171.06 20.73 172.3 20.7 172.3 20.7 L 172.3 22.5 C 172.3 22.5 170.25 22.5 170.2 22.5 C 169 22.5 168.4 21.9 168.4 20.7 C 168.45 20.04 168.5 19.6 168.5 19.6 C 168.5 19.6 168.42 19.59 168.4 19.6 C 168.4 19.6 167.2 22.9 163.4 22.9 C 160.9 22.9 158.3 21.4 158.3 18.4 C 158.3 13.4 164.9 13.2 167.5 13.2 Z M 163.7 21.1 C 166.6 21.1 168.4 18.1 168.4 15.5 C 168.36 15.51 168.4 14.8 168.4 14.8 C 168.4 14.8 167.49 14.82 167.5 14.8 C 165.1 14.8 160.4 14.9 160.4 18.3 C 160.4 19.7 161.5 21.1 163.7 21.1 Z M 166.1 1.4 L 168.4 1.4 L 165.7 5 L 164 5 L 166.1 1.4 Z M 183.1 18.8 C 183.1 18.8 184.83 21.09 187.8 21.1 C 189.5 21.1 191 20.3 191 18.7 C 191 15.4 182.5 16 182.5 11.1 C 182.5 8.4 184.9 7.1 187.9 7.1 C 189.4 7.1 192.5 7.7 192.5 9.8 C 192.48 9.78 192.5 11.1 192.5 11.1 L 190.6 11.1 C 190.6 11.1 190.56 10.35 190.6 10.4 C 190.6 9.2 188.9 8.8 187.9 8.8 C 185.8 8.8 184.6 9.5 184.6 11 C 184.6 14.4 193 13.6 193 18.6 C 193 21.1 190.8 22.9 187.8 22.9 C 183.84 22.86 182 20.2 182 20.2 L 183.1 18.8 Z M 197.1 9.1 L 195.1 9.1 L 195.1 7.4 L 197.1 7.4 L 197.1 3.2 L 199.1 3.2 L 199.1 7.4 L 202.9 7.4 L 202.9 9.1 L 199.1 9.1 C 199.1 9.1 199.14 16.8 199.1 16.8 C 199.1 20.3 201.4 20.8 202.5 20.8 C 202.95 20.79 203.2 20.7 203.2 20.7 L 203.2 22.6 C 203.2 22.6 202.86 22.62 202.3 22.6 C 200.6 22.6 197.1 22.1 197.1 17 C 197.1 17.01 197.1 9.1 197.1 9.1 Z M 214.6 13.2 C 214.59 13.2 215.4 13.2 215.4 13.2 C 215.4 13.2 215.43 13.02 215.4 13 C 215.4 9.9 214.3 8.8 211.5 8.8 C 210.8 8.8 208.6 9 208.6 10.1 C 208.59 10.08 208.6 11 208.6 11 L 206.6 11 C 206.6 11 206.64 9.6 206.6 9.6 C 206.6 7.5 210.2 7.1 211.6 7.1 C 216.3 7.1 217.5 9.6 217.5 12.8 C 217.5 12.8 217.5 20.1 217.5 20.1 C 217.5 20.5 217.7 20.7 218.1 20.7 C 218.13 20.73 219.4 20.7 219.4 20.7 L 219.4 22.5 C 219.4 22.5 217.32 22.5 217.3 22.5 C 216 22.5 215.5 21.9 215.5 20.7 C 215.52 20.04 215.5 19.6 215.5 19.6 C 215.5 19.6 215.49 19.59 215.5 19.6 C 215.5 19.6 214.3 22.9 210.5 22.9 C 208 22.9 205.3 21.4 205.3 18.4 C 205.3 13.4 212 13.2 214.6 13.2 Z M 210.8 21.1 C 213.7 21.1 215.4 18.1 215.4 15.5 C 215.43 15.51 215.4 14.8 215.4 14.8 C 215.4 14.8 214.56 14.82 214.6 14.8 C 212.2 14.8 207.4 14.9 207.4 18.3 C 207.4 19.7 208.6 21.1 210.8 21.1 Z M 222.5 3.8 C 222.5 3.4 222.3 3.2 221.9 3.2 C 221.88 3.18 220.6 3.2 220.6 3.2 L 220.6 1.4 C 220.6 1.4 222.75 1.41 222.7 1.4 C 224 1.4 224.6 2 224.6 3.2 C 224.6 3.2 224.6 8.7 224.6 8.7 C 224.58 9.39 224.5 9.9 224.5 9.9 L 224.6 9.9 C 224.6 9.9 225.84 7.05 229.7 7.1 C 233.8 7.1 236.3 10.3 236.3 15 C 236.3 19.7 233.4 22.9 229.5 22.9 C 225.87 22.86 224.5 20 224.5 20 L 224.5 20 C 224.5 20 224.52 20.46 224.5 21.2 C 224.52 21.18 224.5 22.5 224.5 22.5 L 222.5 22.5 C 222.5 22.5 222.54 3.84 222.5 3.8 Z M 229.3 21.1 C 232 21.1 234.2 18.8 234.2 15 C 234.2 11.3 232.2 8.9 229.4 8.9 C 226.9 8.9 224.5 10.7 224.5 15 C 224.5 18 226.1 21.1 229.3 21.1 Z M 240.2 1.4 L 242.2 1.4 L 242.2 4 L 240.2 4 L 240.2 1.4 Z M 240.3 9.8 C 240.3 9.4 240.1 9.2 239.6 9.2 C 239.64 9.18 238.4 9.2 238.4 9.2 L 238.4 7.4 C 238.4 7.4 240.51 7.41 240.5 7.4 C 241.8 7.4 242.3 8 242.3 9.2 C 242.3 9.2 242.3 20.1 242.3 20.1 C 242.3 20.5 242.6 20.7 243 20.7 C 243 20.73 244.3 20.7 244.3 20.7 L 244.3 22.5 C 244.3 22.5 242.13 22.5 242.1 22.5 C 240.8 22.5 240.3 22 240.3 20.7 C 240.3 20.7 240.3 9.8 240.3 9.8 Z M 247.6 3.8 C 247.6 3.4 247.4 3.2 247 3.2 C 246.99 3.18 245.7 3.2 245.7 3.2 L 245.7 1.4 C 245.7 1.4 247.86 1.41 247.9 1.4 C 249.1 1.4 249.7 2 249.7 3.2 C 249.7 3.2 249.7 20.1 249.7 20.1 C 249.7 20.5 249.9 20.7 250.3 20.7 C 250.35 20.73 251.6 20.7 251.6 20.7 L 251.6 22.5 C 251.6 22.5 249.48 22.5 249.5 22.5 C 248.2 22.5 247.6 22 247.6 20.7 C 247.6 20.7 247.6 3.8 247.6 3.8 Z M 255.1 1.4 L 257.1 1.4 L 257.1 4 L 255.1 4 L 255.1 1.4 Z M 255.2 9.8 C 255.2 9.4 254.9 9.2 254.5 9.2 C 254.52 9.18 253.3 9.2 253.3 9.2 L 253.3 7.4 C 253.3 7.4 255.39 7.41 255.4 7.4 C 256.7 7.4 257.2 8 257.2 9.2 C 257.2 9.2 257.2 20.1 257.2 20.1 C 257.2 20.5 257.5 20.7 257.9 20.7 C 257.88 20.73 259.1 20.7 259.1 20.7 L 259.1 22.5 C 259.1 22.5 257.01 22.5 257 22.5 C 255.7 22.5 255.2 22 255.2 20.7 C 255.2 20.7 255.2 9.8 255.2 9.8 Z M 262.7 9.1 L 260.8 9.1 L 260.8 7.4 L 262.8 7.4 L 262.8 3.2 L 264.8 3.2 L 264.8 7.4 L 268.6 7.4 L 268.6 9.1 L 264.8 9.1 C 264.8 9.1 264.78 16.8 264.8 16.8 C 264.8 20.3 267 20.8 268.2 20.8 C 268.59 20.79 268.9 20.7 268.9 20.7 L 268.9 22.6 C 268.9 22.6 268.5 22.62 268 22.6 C 266.2 22.6 262.7 22.1 262.7 17 C 262.74 17.01 262.7 9.1 262.7 9.1 Z M 280.2 13.2 C 280.23 13.2 281.1 13.2 281.1 13.2 C 281.1 13.2 281.07 13.02 281.1 13 C 281.1 9.9 279.9 8.8 277.2 8.8 C 276.4 8.8 274.2 9 274.2 10.1 C 274.23 10.08 274.2 11 274.2 11 L 272.3 11 C 272.3 11 272.28 9.6 272.3 9.6 C 272.3 7.5 275.9 7.1 277.2 7.1 C 282 7.1 283.1 9.6 283.1 12.8 C 283.1 12.8 283.1 20.1 283.1 20.1 C 283.1 20.5 283.3 20.7 283.8 20.7 C 283.77 20.73 285 20.7 285 20.7 L 285 22.5 C 285 22.5 282.96 22.5 283 22.5 C 281.7 22.5 281.2 21.9 281.2 20.7 C 281.16 20.04 281.2 19.6 281.2 19.6 C 281.2 19.6 281.13 19.59 281.1 19.6 C 281.2 19.6 279.9 22.9 276.1 22.9 C 273.6 22.9 271 21.4 271 18.4 C 271 13.4 277.6 13.2 280.2 13.2 Z M 276.4 21.1 C 279.3 21.1 281.1 18.1 281.1 15.5 C 281.07 15.51 281.1 14.8 281.1 14.8 C 281.1 14.8 280.2 14.82 280.2 14.8 C 277.8 14.8 273.1 14.9 273.1 18.3 C 273.1 19.7 274.2 21.1 276.4 21.1 Z " stroke="none" fill="#ee3078"/>  </g></svg>