<?xml version="1.0" standalone="no"?><!DOCTYPE svg PUBLIC "-//W3C//DTD SVG 1.1//EN" "http://www.w3.org/Graphics/SVG/1.1/DTD/svg11.dtd"><svg xmlns="http://www.w3.org/2000/svg" version="1.1" width="371.4px" height="29px" viewBox="0 -1 371.4 29" style="top:-1px">  <desc>Cyklus (po et astn ok)</desc>  <defs/>  <g id="Polygon78849">    <path d="M 121.6 14.1 C 120.1 14.1 119 13.7 118.4 12.9 C 117.7 12 117.3 10.7 117.3 9 C 117.3 8.1 117.4 7.3 117.6 6.7 C 117.7 6 118 5.5 118.3 5.1 C 118.7 4.6 119.1 4.3 119.7 4.1 C 120.2 3.9 120.8 3.8 121.6 3.8 C 121.8 3.8 122.1 3.8 122.4 3.9 C 122.7 3.9 123 3.9 123.3 4 C 123.3 4 123.3 4.9 123.3 4.9 C 123.1 4.9 122.8 4.8 122.5 4.8 C 122.2 4.8 122 4.8 121.7 4.8 C 121.1 4.8 120.6 4.8 120.2 5 C 119.8 5.1 119.5 5.4 119.2 5.7 C 118.9 6.1 118.7 6.5 118.6 7 C 118.5 7.6 118.4 8.2 118.4 9 C 118.4 9.7 118.5 10.4 118.6 10.9 C 118.7 11.4 118.9 11.9 119.2 12.2 C 119.5 12.5 119.8 12.8 120.2 13 C 120.6 13.1 121.1 13.2 121.6 13.2 C 121.7 13.2 121.9 13.2 122 13.2 C 122.1 13.2 122.3 13.2 122.5 13.1 C 122.6 13.1 122.8 13.1 122.9 13.1 C 123.1 13.1 123.2 13 123.3 13 C 123.3 13 123.3 13.9 123.3 13.9 C 123.1 14 122.8 14.1 122.5 14.1 C 122.2 14.1 121.9 14.1 121.6 14.1 Z M 125.5 16.8 L 125.5 16.7 L 126.4 14 L 123.8 6.8 L 123.8 6.7 L 124.9 6.7 L 126.7 11.9 L 127 12.8 L 127 12.8 L 127.3 11.9 L 129.1 6.7 L 130.2 6.7 L 130.2 6.8 L 126.5 17 L 125.5 16.8 Z M 131.3 3 L 132.4 3 L 132.4 9.8 L 133.4 9.8 L 135.5 6.7 L 136.7 6.7 L 134.3 10.1 L 134.1 10.2 L 134.1 10.3 L 134.3 10.4 L 136.9 14 L 135.8 14 L 133.4 10.6 L 132.4 10.6 L 132.4 14 L 131.3 14 L 131.3 3 Z M 137.9 3 L 138.9 3 L 138.9 14 L 137.9 14 L 137.9 3 Z M 142.5 14.1 C 141.9 14.1 141.4 14 141.2 13.7 C 140.9 13.4 140.7 12.9 140.7 12.2 C 140.72 12.19 140.7 6.7 140.7 6.7 L 141.8 6.7 C 141.8 6.7 141.79 11.9 141.8 11.9 C 141.8 12.4 141.9 12.7 142 12.9 C 142.2 13.1 142.4 13.2 142.8 13.2 C 143.2 13.2 143.5 13.1 143.8 13 C 144.2 12.8 144.6 12.6 145 12.4 C 144.97 12.36 145 6.7 145 6.7 L 146 6.7 L 146 14 L 145.1 14 L 145.1 13.2 C 145.1 13.2 145 13.19 145 13.2 C 144.7 13.4 144.5 13.5 144.2 13.6 C 144 13.7 143.8 13.8 143.6 13.9 C 143.4 14 143.2 14.1 143 14.1 C 142.9 14.1 142.7 14.1 142.5 14.1 Z M 149.6 14.2 C 149.3 14.2 149 14.1 148.6 14.1 C 148.3 14 147.9 14 147.5 13.9 C 147.5 13.9 147.5 13 147.5 13 C 147.8 13.1 148.2 13.2 148.5 13.2 C 148.9 13.3 149.2 13.3 149.5 13.3 C 150 13.3 150.3 13.2 150.6 13 C 150.8 12.8 150.9 12.4 150.9 12.1 C 150.9 11.7 150.8 11.4 150.6 11.2 C 150.4 11 150.1 10.8 149.7 10.7 C 149.4 10.7 149.2 10.6 148.9 10.5 C 148.7 10.5 148.5 10.4 148.3 10.2 C 148.1 10.1 147.9 9.9 147.8 9.6 C 147.6 9.4 147.6 9 147.6 8.6 C 147.6 7.9 147.8 7.4 148.2 7.1 C 148.6 6.7 149.2 6.5 149.9 6.5 C 150.2 6.5 150.4 6.5 150.7 6.5 C 150.9 6.6 151.3 6.6 151.7 6.7 C 151.7 6.7 151.7 7.6 151.7 7.6 C 151.3 7.5 151 7.5 150.7 7.4 C 150.5 7.4 150.3 7.4 150 7.4 C 149.6 7.4 149.2 7.5 149 7.7 C 148.7 7.9 148.6 8.2 148.6 8.6 C 148.6 8.8 148.6 9 148.7 9.1 C 148.8 9.3 148.9 9.4 149 9.5 C 149.1 9.6 149.3 9.6 149.4 9.7 C 149.6 9.7 149.8 9.8 150 9.8 C 150.3 9.9 150.5 10 150.8 10.1 C 151 10.2 151.2 10.4 151.4 10.5 C 151.6 10.7 151.7 10.9 151.8 11.1 C 151.9 11.3 152 11.6 152 12 C 152 12.7 151.7 13.2 151.3 13.6 C 150.9 14 150.3 14.2 149.6 14.2 Z M 157.9 16.2 C 157.2 15.2 156.7 14.1 156.3 12.9 C 156 11.7 155.8 10.5 155.8 9.2 C 155.8 7.9 156 6.7 156.3 5.5 C 156.7 4.3 157.2 3.2 157.9 2.2 C 157.91 2.2 158.9 2.2 158.9 2.2 C 158.9 2.2 158.86 2.26 158.9 2.3 C 158.2 3.2 157.7 4.3 157.3 5.5 C 156.9 6.7 156.7 7.9 156.7 9.2 C 156.7 10.5 156.9 11.7 157.3 12.9 C 157.7 14.1 158.2 15.1 158.9 16.1 C 158.86 16.13 158.9 16.2 158.9 16.2 L 157.9 16.2 C 157.9 16.2 157.91 16.19 157.9 16.2 Z M 159.7 6.7 L 160.6 6.7 L 160.7 7.4 C 160.7 7.4 160.74 7.44 160.7 7.4 C 161 7.1 161.3 6.9 161.6 6.8 C 161.9 6.6 162.3 6.5 162.7 6.5 C 163.6 6.5 164.2 6.8 164.7 7.5 C 165.1 8.1 165.3 9 165.3 10.2 C 165.3 10.8 165.2 11.3 165.1 11.8 C 165 12.3 164.8 12.7 164.5 13 C 164.2 13.4 163.9 13.6 163.5 13.8 C 163.1 14 162.6 14.1 162 14.1 C 161.8 14.1 161.6 14.1 161.4 14.1 C 161.1 14.1 160.9 14.1 160.7 14 C 160.72 14.02 160.7 17 160.7 17 L 159.7 17 L 159.7 6.7 Z M 160.7 13.2 C 161.2 13.3 161.6 13.3 162 13.3 C 162.8 13.3 163.3 13.1 163.7 12.6 C 164 12.1 164.2 11.3 164.2 10.3 C 164.2 9.3 164.1 8.5 163.8 8.1 C 163.5 7.6 163.1 7.4 162.5 7.4 C 162.2 7.4 162 7.4 161.8 7.5 C 161.6 7.6 161.4 7.7 161.2 7.8 C 161.1 7.9 161 8.1 160.9 8.3 C 160.8 8.5 160.7 8.7 160.7 9 C 160.72 8.99 160.7 13.2 160.7 13.2 C 160.7 13.2 160.72 13.17 160.7 13.2 Z M 169.4 14.1 C 168.5 14.1 167.7 13.8 167.2 13.2 C 166.7 12.5 166.4 11.6 166.4 10.3 C 166.4 9.1 166.7 8.1 167.2 7.5 C 167.7 6.9 168.5 6.5 169.4 6.5 C 170.4 6.5 171.2 6.9 171.7 7.5 C 172.2 8.1 172.4 9.1 172.4 10.3 C 172.4 11.6 172.2 12.5 171.7 13.2 C 171.2 13.8 170.4 14.1 169.4 14.1 Z M 169.4 13.2 C 170.1 13.2 170.6 13 170.9 12.6 C 171.2 12.1 171.3 11.4 171.3 10.3 C 171.3 9.3 171.2 8.6 170.9 8.1 C 170.6 7.7 170.1 7.4 169.4 7.4 C 168.8 7.4 168.3 7.7 168 8.1 C 167.7 8.6 167.5 9.3 167.5 10.3 C 167.5 11.4 167.7 12.1 168 12.6 C 168.3 13 168.8 13.2 169.4 13.2 Z M 174.3 3.5 L 176.2 4.5 L 178.2 3.5 L 178.2 4.4 L 176.2 5.4 L 174.3 4.4 L 174.3 3.5 Z M 176.7 14.1 C 175.7 14.1 174.9 13.8 174.4 13.2 C 173.8 12.6 173.6 11.6 173.6 10.3 C 173.6 7.8 174.6 6.5 176.7 6.5 C 177.1 6.5 177.6 6.6 178.1 6.7 C 178.1 6.7 178.1 7.6 178.1 7.6 C 177.9 7.6 177.7 7.5 177.4 7.5 C 177.2 7.5 177 7.5 176.8 7.5 C 176.1 7.5 175.5 7.7 175.2 8.2 C 174.9 8.6 174.7 9.3 174.7 10.3 C 174.7 11.3 174.8 12.1 175.2 12.5 C 175.5 13 176.1 13.2 176.8 13.2 C 177 13.2 177.2 13.2 177.4 13.2 C 177.6 13.2 177.9 13.1 178.1 13.1 C 178.1 13.1 178.1 14 178.1 14 C 177.9 14 177.7 14.1 177.4 14.1 C 177.2 14.1 177 14.1 176.7 14.1 Z M 182.1 14.1 C 181.1 14.1 180.3 13.8 179.8 13.2 C 179.3 12.6 179 11.6 179 10.5 C 179 9.2 179.3 8.2 179.8 7.5 C 180.3 6.9 181 6.5 182 6.5 C 182.8 6.5 183.4 6.8 183.8 7.4 C 184.3 7.9 184.5 8.7 184.5 9.8 C 184.5 10 184.5 10.2 184.4 10.3 C 184.4 10.5 184.4 10.6 184.4 10.7 C 184.4 10.7 180.1 10.7 180.1 10.7 C 180.2 11.6 180.3 12.2 180.7 12.6 C 181 13 181.5 13.2 182.1 13.2 C 182.8 13.2 183.4 13.1 184.1 12.8 C 184.1 12.8 184.2 13.7 184.2 13.7 C 183.9 13.8 183.5 13.9 183.2 14 C 182.8 14.1 182.4 14.1 182.1 14.1 Z M 182 7.4 C 180.8 7.4 180.2 8.2 180.1 9.9 C 180.1 9.9 183.5 9.9 183.5 9.9 C 183.4 9 183.3 8.4 183.1 8 C 182.8 7.6 182.5 7.4 182 7.4 Z M 189.5 14 C 189.2 14.1 188.8 14.1 188.5 14.1 C 187.2 14.1 186.5 13.4 186.5 12.1 C 186.51 12.09 186.5 7.6 186.5 7.6 L 185.1 7.6 L 185.1 6.7 L 186.6 6.7 L 186.7 4.8 L 187.6 4.7 L 187.6 6.7 L 189.5 6.7 L 189.5 7.6 L 187.6 7.6 C 187.6 7.6 187.57 11.89 187.6 11.9 C 187.6 12.8 188 13.2 188.7 13.2 C 188.8 13.2 189 13.2 189.1 13.2 C 189.3 13.2 189.4 13.1 189.5 13.1 C 189.53 13.1 189.5 14 189.5 14 C 189.5 14 189.53 13.97 189.5 14 Z M 195.6 5.6 L 196.6 3.1 L 197.7 3.1 L 196.4 5.7 L 195.6 5.6 Z M 195.1 14.1 C 194.5 14.1 194.1 14 193.8 13.7 C 193.5 13.4 193.3 12.9 193.3 12.2 C 193.34 12.19 193.3 6.7 193.3 6.7 L 194.4 6.7 C 194.4 6.7 194.42 11.9 194.4 11.9 C 194.4 12.4 194.5 12.7 194.6 12.9 C 194.8 13.1 195.1 13.2 195.4 13.2 C 195.8 13.2 196.1 13.1 196.5 13 C 196.8 12.8 197.2 12.6 197.6 12.4 C 197.6 12.36 197.6 6.7 197.6 6.7 L 198.7 6.7 L 198.7 14 L 197.8 14 L 197.7 13.2 C 197.7 13.2 197.62 13.19 197.6 13.2 C 197.3 13.4 197.1 13.5 196.9 13.6 C 196.6 13.7 196.4 13.8 196.2 13.9 C 196 14 195.8 14.1 195.7 14.1 C 195.5 14.1 195.3 14.1 195.1 14.1 Z M 200.8 3.5 L 202.8 4.5 L 204.8 3.5 L 204.8 4.4 L 202.8 5.4 L 200.8 4.4 L 200.8 3.5 Z M 203.3 14.1 C 202.2 14.1 201.4 13.8 200.9 13.2 C 200.4 12.6 200.1 11.6 200.1 10.3 C 200.1 7.8 201.2 6.5 203.3 6.5 C 203.7 6.5 204.1 6.6 204.7 6.7 C 204.7 6.7 204.7 7.6 204.7 7.6 C 204.4 7.6 204.2 7.5 204 7.5 C 203.8 7.5 203.6 7.5 203.4 7.5 C 202.6 7.5 202.1 7.7 201.8 8.2 C 201.4 8.6 201.2 9.3 201.2 10.3 C 201.2 11.3 201.4 12.1 201.8 12.5 C 202.1 13 202.6 13.2 203.4 13.2 C 203.6 13.2 203.8 13.2 204 13.2 C 204.2 13.2 204.4 13.1 204.7 13.1 C 204.7 13.1 204.7 14 204.7 14 C 204.5 14 204.3 14.1 204 14.1 C 203.8 14.1 203.5 14.1 203.3 14.1 Z M 207.4 14.1 C 206.9 14.1 206.4 13.9 206.1 13.6 C 205.8 13.2 205.6 12.8 205.6 12.1 C 205.6 11.5 205.8 10.9 206.3 10.6 C 206.7 10.2 207.4 10 208.3 9.9 C 208.26 9.9 209.7 9.8 209.7 9.8 C 209.7 9.8 209.72 9.1 209.7 9.1 C 209.7 8.5 209.6 8 209.4 7.8 C 209.1 7.6 208.7 7.4 208.1 7.4 C 207.9 7.4 207.6 7.4 207.2 7.5 C 206.9 7.5 206.5 7.6 206.2 7.7 C 206.2 7.7 206.1 6.8 206.1 6.8 C 206.9 6.6 207.6 6.6 208.3 6.6 C 209.2 6.6 209.8 6.8 210.2 7.1 C 210.6 7.5 210.8 8.1 210.8 8.9 C 210.78 8.9 210.8 14 210.8 14 L 209.9 14 L 209.8 13.1 C 209.8 13.1 209.7 13.11 209.7 13.1 C 209.4 13.4 209 13.6 208.6 13.8 C 208.2 14 207.9 14.1 207.4 14.1 Z M 206.7 12.1 C 206.7 12.8 207.1 13.2 207.8 13.2 C 208 13.2 208.1 13.2 208.3 13.1 C 208.5 13.1 208.6 13 208.8 12.9 C 209 12.9 209.1 12.8 209.3 12.7 C 209.4 12.6 209.6 12.5 209.7 12.4 C 209.72 12.4 209.7 10.5 209.7 10.5 C 209.7 10.5 208.51 10.64 208.5 10.6 C 207.9 10.7 207.4 10.8 207.1 11.1 C 206.8 11.3 206.7 11.6 206.7 12.1 C 206.7 12.1 206.7 12.1 206.7 12.1 Z M 214.2 14.2 C 214 14.2 213.7 14.1 213.3 14.1 C 213 14 212.6 14 212.2 13.9 C 212.2 13.9 212.2 13 212.2 13 C 212.5 13.1 212.9 13.2 213.2 13.2 C 213.5 13.3 213.9 13.3 214.2 13.3 C 214.7 13.3 215 13.2 215.3 13 C 215.5 12.8 215.6 12.4 215.6 12.1 C 215.6 11.7 215.5 11.4 215.3 11.2 C 215.1 11 214.8 10.8 214.3 10.7 C 214.1 10.7 213.9 10.6 213.6 10.5 C 213.4 10.5 213.2 10.4 212.9 10.2 C 212.7 10.1 212.6 9.9 212.4 9.6 C 212.3 9.4 212.2 9 212.2 8.6 C 212.2 7.9 212.5 7.4 212.9 7.1 C 213.3 6.7 213.9 6.5 214.6 6.5 C 214.8 6.5 215.1 6.5 215.4 6.5 C 215.6 6.6 216 6.6 216.4 6.7 C 216.4 6.7 216.4 7.6 216.4 7.6 C 216 7.5 215.7 7.5 215.4 7.4 C 215.2 7.4 215 7.4 214.7 7.4 C 214.3 7.4 213.9 7.5 213.7 7.7 C 213.4 7.9 213.3 8.2 213.3 8.6 C 213.3 8.8 213.3 9 213.4 9.1 C 213.4 9.3 213.5 9.4 213.7 9.5 C 213.8 9.6 214 9.6 214.1 9.7 C 214.3 9.7 214.5 9.8 214.7 9.8 C 215 9.9 215.2 10 215.5 10.1 C 215.7 10.2 215.9 10.4 216.1 10.5 C 216.3 10.7 216.4 10.9 216.5 11.1 C 216.6 11.3 216.7 11.6 216.7 12 C 216.7 12.7 216.4 13.2 216 13.6 C 215.6 14 215 14.2 214.2 14.2 Z M 221.7 14 C 221.4 14.1 221 14.1 220.7 14.1 C 219.4 14.1 218.7 13.4 218.7 12.1 C 218.71 12.09 218.7 7.6 218.7 7.6 L 217.3 7.6 L 217.3 6.7 L 218.8 6.7 L 218.9 4.8 L 219.8 4.7 L 219.8 6.7 L 221.7 6.7 L 221.7 7.6 L 219.8 7.6 C 219.8 7.6 219.77 11.89 219.8 11.9 C 219.8 12.8 220.2 13.2 220.9 13.2 C 221 13.2 221.2 13.2 221.3 13.2 C 221.4 13.2 221.6 13.1 221.7 13.1 C 221.73 13.1 221.7 14 221.7 14 C 221.7 14 221.73 13.97 221.7 14 Z M 222.9 6.7 L 223.8 6.7 L 223.8 7.5 C 223.8 7.5 223.9 7.48 223.9 7.5 C 224.4 7.1 224.9 6.9 225.3 6.8 C 225.7 6.6 226.1 6.5 226.5 6.5 C 227.1 6.5 227.5 6.7 227.8 7 C 228 7.3 228.2 7.8 228.2 8.5 C 228.17 8.49 228.2 14 228.2 14 L 227.1 14 C 227.1 14 227.11 8.79 227.1 8.8 C 227.1 8.3 227 8 226.9 7.8 C 226.7 7.6 226.5 7.5 226.1 7.5 C 225.8 7.5 225.4 7.5 225.1 7.7 C 224.7 7.8 224.3 8 223.9 8.2 C 223.93 8.24 223.9 14 223.9 14 L 222.9 14 L 222.9 6.7 Z M 230.2 5.6 L 231.1 3.1 L 232.2 3.1 L 230.9 5.7 L 230.2 5.6 Z M 230 6.7 L 231 6.7 L 231 14 L 230 14 L 230 6.7 Z M 233.2 3.5 L 235.2 4.5 L 237.1 3.5 L 237.1 4.4 L 235.2 5.4 L 233.2 4.4 L 233.2 3.5 Z M 235.7 14.1 C 234.6 14.1 233.8 13.8 233.3 13.2 C 232.8 12.6 232.5 11.6 232.5 10.3 C 232.5 7.8 233.6 6.5 235.7 6.5 C 236.1 6.5 236.5 6.6 237.1 6.7 C 237.1 6.7 237.1 7.6 237.1 7.6 C 236.8 7.6 236.6 7.5 236.4 7.5 C 236.2 7.5 236 7.5 235.8 7.5 C 235 7.5 234.5 7.7 234.1 8.2 C 233.8 8.6 233.6 9.3 233.6 10.3 C 233.6 11.3 233.8 12.1 234.1 12.5 C 234.5 13 235 13.2 235.7 13.2 C 236 13.2 236.2 13.2 236.4 13.2 C 236.6 13.2 236.8 13.1 237.1 13.1 C 237.1 13.1 237.1 14 237.1 14 C 236.9 14 236.6 14.1 236.4 14.1 C 236.1 14.1 235.9 14.1 235.7 14.1 Z M 241 14.1 C 240 14.1 239.2 13.8 238.7 13.2 C 238.2 12.5 238 11.6 238 10.3 C 238 9.1 238.2 8.1 238.7 7.5 C 239.2 6.9 240 6.5 241 6.5 C 242 6.5 242.7 6.9 243.2 7.5 C 243.7 8.1 244 9.1 244 10.3 C 244 11.6 243.7 12.5 243.2 13.2 C 242.7 13.8 242 14.1 241 14.1 Z M 241 13.2 C 241.6 13.2 242.1 13 242.4 12.6 C 242.7 12.1 242.9 11.4 242.9 10.3 C 242.9 9.3 242.7 8.6 242.4 8.1 C 242.1 7.7 241.6 7.4 241 7.4 C 240.3 7.4 239.8 7.7 239.5 8.1 C 239.2 8.6 239.1 9.3 239.1 10.3 C 239.1 11.4 239.2 12.1 239.5 12.6 C 239.8 13 240.3 13.2 241 13.2 Z M 245.4 3 L 246.5 3 L 246.5 9.8 L 247.5 9.8 L 249.7 6.7 L 250.9 6.7 L 248.5 10.1 L 248.3 10.2 L 248.3 10.3 L 248.5 10.4 L 251.1 14 L 249.9 14 L 247.5 10.6 L 246.5 10.6 L 246.5 14 L 245.4 14 L 245.4 3 Z M 251.1 16.2 C 251.1 16.2 251.09 16.13 251.1 16.1 C 251.8 15.1 252.3 14.1 252.7 12.9 C 253 11.7 253.2 10.5 253.2 9.2 C 253.2 7.9 253 6.7 252.7 5.5 C 252.3 4.3 251.8 3.2 251.1 2.3 C 251.09 2.26 251.1 2.2 251.1 2.2 C 251.1 2.2 252.04 2.2 252 2.2 C 252.7 3.2 253.3 4.3 253.6 5.5 C 254 6.7 254.1 7.9 254.1 9.2 C 254.1 10.5 254 11.7 253.6 12.9 C 253.3 14.1 252.7 15.2 252 16.2 C 252.04 16.19 251.1 16.2 251.1 16.2 Z " stroke="none" fill="#000"/>  </g></svg>