<?xml version="1.0" standalone="no"?><!DOCTYPE svg PUBLIC "-//W3C//DTD SVG 1.1//EN" "http://www.w3.org/Graphics/SVG/1.1/DTD/svg11.dtd"><svg xmlns="http://www.w3.org/2000/svg" version="1.1" width="113.4px" height="85px" viewBox="0 -1 113.4 85" style="top:-1px">  <desc>Drovelis Pearlov index</desc>  <defs/>  <g id="Polygon81251">    <path d="M 32.2 56.1 L 34.4 56.1 L 34.4 58.5 L 32.2 58.5 L 32.2 56.1 Z M 32.1 62.7 C 32.1 62.4 31.9 62.3 31.7 62.3 C 31.66 62.29 30.9 62.3 30.9 62.3 L 30.9 60.1 C 30.9 60.1 33.28 60.13 33.3 60.1 C 34.2 60.1 34.6 60.6 34.6 61.5 C 34.6 61.5 34.6 67.8 34.6 67.8 C 34.6 68 34.8 68.2 35.1 68.2 C 35.06 68.19 35.9 68.2 35.9 68.2 L 35.9 70.3 C 35.9 70.3 33.44 70.33 33.4 70.3 C 32.5 70.3 32.1 69.9 32.1 69 C 32.1 69 32.1 62.7 32.1 62.7 Z M 38 62.7 C 38 62.4 37.8 62.3 37.6 62.3 C 37.56 62.29 36.8 62.3 36.8 62.3 L 36.8 60.1 C 36.8 60.1 39.1 60.13 39.1 60.1 C 40 60.1 40.4 60.6 40.4 61.3 C 40.4 61.3 40.4 61.6 40.4 61.6 C 40.44 61.79 40.4 62 40.4 62 C 40.4 62 40.44 62.01 40.4 62 C 40.9 61.2 42 59.9 44 59.9 C 46.3 59.9 47.6 61.1 47.6 63.8 C 47.6 63.8 47.6 67.8 47.6 67.8 C 47.6 68 47.8 68.2 48 68.2 C 48.04 68.19 48.8 68.2 48.8 68.2 L 48.8 70.3 C 48.8 70.3 46.42 70.33 46.4 70.3 C 45.5 70.3 45.1 69.9 45.1 69 C 45.1 69 45.1 64.3 45.1 64.3 C 45.1 63.1 44.7 62.2 43.5 62.2 C 42.1 62.2 41.1 63.1 40.7 64.3 C 40.6 64.7 40.5 65.2 40.5 65.7 C 40.52 65.65 40.5 70.3 40.5 70.3 L 38 70.3 C 38 70.3 38 62.73 38 62.7 Z M 54.5 59.9 C 56.7 59.89 57.4 61.1 57.4 61.1 L 57.5 61.1 C 57.5 61.1 57.44 60.87 57.4 60.5 C 57.4 60.5 57.4 58.7 57.4 58.7 C 57.4 58.4 57.3 58.3 57 58.3 C 57 58.29 56.2 58.3 56.2 58.3 L 56.2 56.1 C 56.2 56.1 58.62 56.13 58.6 56.1 C 59.6 56.1 60 56.6 60 57.5 C 60 57.5 60 67.8 60 67.8 C 60 68 60.1 68.2 60.4 68.2 C 60.42 68.19 61.2 68.2 61.2 68.2 L 61.2 70.3 C 61.2 70.3 58.86 70.33 58.9 70.3 C 57.9 70.3 57.6 69.9 57.6 69.3 C 57.6 69.07 57.6 68.9 57.6 68.9 L 57.6 68.9 C 57.6 68.9 56.72 70.57 54.4 70.6 C 51.6 70.6 49.8 68.4 49.8 65.2 C 49.8 62 51.8 59.9 54.5 59.9 Z M 57.5 65.2 C 57.5 63.6 56.7 62.1 55 62.1 C 53.6 62.1 52.4 63.2 52.4 65.2 C 52.4 67.2 53.4 68.4 54.9 68.4 C 56.3 68.4 57.5 67.5 57.5 65.2 Z M 67.5 59.9 C 70.4 59.9 72 62 72 64.7 C 71.98 65.03 71.9 65.7 71.9 65.7 C 71.9 65.7 64.88 65.67 64.9 65.7 C 65.1 67.5 66.4 68.4 67.9 68.4 C 69.58 68.41 70.8 67.3 70.8 67.3 L 71.9 69 C 71.9 69 70.3 70.57 67.8 70.6 C 64.4 70.6 62.3 68.1 62.3 65.2 C 62.3 62.1 64.4 59.9 67.5 59.9 Z M 69.4 63.9 C 69.3 62.7 68.5 61.9 67.5 61.9 C 66.2 61.9 65.2 62.6 65 63.9 C 65 63.9 69.4 63.9 69.4 63.9 Z M 76.3 65.2 C 76.3 65.2 74.64 62.63 74.6 62.6 C 74.4 62.3 74.3 62.3 73.9 62.3 C 73.86 62.29 73.1 62.3 73.1 62.3 L 73.1 60.1 C 73.1 60.1 74.9 60.13 74.9 60.1 C 75.7 60.1 76.1 60.3 76.6 61.1 C 76.6 61.1 77.6 62.8 77.6 62.8 C 77.7 63.03 77.9 63.4 77.9 63.4 L 77.9 63.4 C 77.9 63.4 78.1 63.03 78.2 62.8 C 78.2 62.8 79.2 61.1 79.2 61.1 C 79.7 60.3 80 60.1 80.9 60.1 C 80.9 60.13 82.7 60.1 82.7 60.1 L 82.7 62.3 C 82.7 62.3 81.94 62.29 81.9 62.3 C 81.5 62.3 81.4 62.3 81.2 62.6 C 81.16 62.63 79.5 65.2 79.5 65.2 L 82.8 70.3 L 80 70.3 C 80 70.3 78.2 67.49 78.2 67.5 C 78.06 67.29 77.9 67 77.9 67 L 77.9 67 C 77.9 67 77.72 67.27 77.6 67.5 C 77.58 67.49 75.8 70.3 75.8 70.3 L 73 70.3 L 76.3 65.2 Z " stroke="none" fill="#ee3078"/>  </g>  <g id="Polygon81250">    <path d="M 23.1 34.4 L 21.8 34.4 L 21.8 32.1 C 21.8 32.1 28.34 32.13 28.3 32.1 C 31 32.1 32.9 34 32.9 36.8 C 32.9 39.5 31 41.4 28.3 41.4 C 28.34 41.43 25.8 41.4 25.8 41.4 L 25.8 46.3 L 23.1 46.3 L 23.1 34.4 Z M 27.9 39.2 C 29.3 39.2 30.2 38.2 30.2 36.8 C 30.2 35.3 29.3 34.4 27.9 34.4 C 27.9 34.35 25.8 34.4 25.8 34.4 L 25.8 39.2 C 25.8 39.2 27.86 39.19 27.9 39.2 Z M 38.7 35.9 C 41.6 35.9 43.2 38 43.2 40.7 C 43.2 41.03 43.1 41.7 43.1 41.7 C 43.1 41.7 36.1 41.67 36.1 41.7 C 36.3 43.5 37.6 44.4 39.2 44.4 C 40.8 44.41 42 43.3 42 43.3 L 43.1 45 C 43.1 45 41.52 46.57 39 46.6 C 35.6 46.6 33.5 44.1 33.5 41.2 C 33.5 38.1 35.6 35.9 38.7 35.9 Z M 40.6 39.9 C 40.6 38.7 39.7 37.9 38.7 37.9 C 37.4 37.9 36.5 38.6 36.2 39.9 C 36.2 39.9 40.6 39.9 40.6 39.9 Z M 50.7 39.9 C 50.72 39.93 51 39.9 51 39.9 C 51 39.9 51.04 39.85 51 39.9 C 51 38.4 50.5 37.9 49.2 37.9 C 48.7 37.9 47.8 38 47.8 38.5 C 47.8 38.53 47.8 39.1 47.8 39.1 L 45.4 39.1 C 45.4 39.1 45.44 37.99 45.4 38 C 45.4 36.1 48.1 35.9 49.2 35.9 C 52.6 35.9 53.6 37.7 53.6 40 C 53.6 40 53.6 43.8 53.6 43.8 C 53.6 44 53.7 44.2 54 44.2 C 54.02 44.19 54.8 44.2 54.8 44.2 L 54.8 46.3 C 54.8 46.3 52.54 46.33 52.5 46.3 C 51.6 46.3 51.2 45.8 51.2 45.2 C 51.24 44.95 51.3 44.8 51.3 44.8 L 51.2 44.8 C 51.2 44.8 50.44 46.57 48.1 46.6 C 46.3 46.6 44.7 45.4 44.7 43.4 C 44.7 40.2 49.1 39.9 50.7 39.9 Z M 48.8 44.6 C 50.1 44.6 51.1 43.2 51.1 41.9 C 51.08 41.91 51.1 41.7 51.1 41.7 C 51.1 41.7 50.64 41.67 50.6 41.7 C 49.3 41.7 47.2 41.9 47.2 43.3 C 47.2 44 47.7 44.6 48.8 44.6 Z M 56.9 38.7 C 56.9 38.4 56.7 38.3 56.4 38.3 C 56.42 38.29 55.6 38.3 55.6 38.3 L 55.6 36.1 C 55.6 36.1 57.94 36.13 57.9 36.1 C 58.8 36.1 59.3 36.5 59.3 37.4 C 59.3 37.4 59.3 38 59.3 38 C 59.3 38.35 59.3 38.6 59.3 38.6 C 59.3 38.6 59.3 38.61 59.3 38.6 C 59.8 37.2 61 36 62.5 36 C 62.76 35.99 63 36 63 36 L 63 38.5 C 63 38.5 62.74 38.49 62.4 38.5 C 61.3 38.5 60.1 39.1 59.6 40.6 C 59.5 41.1 59.4 41.7 59.4 42.3 C 59.38 42.29 59.4 46.3 59.4 46.3 L 56.9 46.3 C 56.9 46.3 56.86 38.73 56.9 38.7 Z M 64.8 34.7 C 64.8 34.4 64.7 34.3 64.4 34.3 C 64.4 34.29 63.6 34.3 63.6 34.3 L 63.6 32.1 C 63.6 32.1 66.02 32.13 66 32.1 C 67 32.1 67.4 32.6 67.4 33.5 C 67.4 33.5 67.4 43.8 67.4 43.8 C 67.4 44 67.5 44.2 67.8 44.2 C 67.82 44.19 68.6 44.2 68.6 44.2 L 68.6 46.3 C 68.6 46.3 66.2 46.33 66.2 46.3 C 65.2 46.3 64.8 45.9 64.8 45 C 64.8 45 64.8 34.7 64.8 34.7 Z M 75.3 35.9 C 78.4 35.9 80.9 38.1 80.9 41.2 C 80.9 44.4 78.4 46.6 75.3 46.6 C 72.2 46.6 69.7 44.4 69.7 41.2 C 69.7 38.1 72.2 35.9 75.3 35.9 Z M 75.3 44.4 C 76.9 44.4 78.3 43.1 78.3 41.2 C 78.3 39.4 76.9 38.1 75.3 38.1 C 73.6 38.1 72.3 39.4 72.3 41.2 C 72.3 43.1 73.6 44.4 75.3 44.4 Z M 82.3 38.7 C 82.2 38.4 82.1 38.3 81.8 38.3 C 81.78 38.29 81.6 38.3 81.6 38.3 L 81.6 36.1 C 81.6 36.1 83.02 36.13 83 36.1 C 83.9 36.1 84.3 36.4 84.5 37.1 C 84.5 37.1 86.4 42.5 86.4 42.5 C 86.66 43.05 86.8 43.9 86.8 43.9 L 86.9 43.9 C 86.9 43.9 87.02 43.05 87.2 42.5 C 87.2 42.5 89.1 37.1 89.1 37.1 C 89.4 36.4 89.8 36.1 90.6 36.1 C 90.64 36.13 92 36.1 92 36.1 L 92 38.3 C 92 38.3 91.76 38.29 91.8 38.3 C 91.5 38.3 91.3 38.4 91.2 38.7 C 91.2 38.65 88.3 46.3 88.3 46.3 L 85.3 46.3 C 85.3 46.3 82.34 38.65 82.3 38.7 Z " stroke="none" fill="#ee3078"/>  </g>  <g id="Polygon81249">    <path d="M 19.9 10.4 L 18.6 10.4 L 18.6 8.1 C 18.6 8.1 24.37 8.13 24.4 8.1 C 28.8 8.1 31.6 10.7 31.6 15.2 C 31.6 19.7 28.8 22.3 24.4 22.3 C 24.4 22.3 21.3 22.3 21.3 22.3 C 20.3 22.3 19.9 21.9 19.9 21 C 19.89 20.97 19.9 10.4 19.9 10.4 Z M 23 20.1 C 23 20.1 24.2 20.1 24.2 20.1 C 27.1 20.1 28.9 18.4 28.9 15.2 C 28.9 12.1 27 10.4 24.2 10.4 C 24.23 10.35 22.5 10.4 22.5 10.4 C 22.5 10.4 22.51 19.67 22.5 19.7 C 22.5 20 22.7 20.1 23 20.1 Z M 34 14.7 C 34 14.4 33.9 14.3 33.6 14.3 C 33.57 14.29 32.8 14.3 32.8 14.3 L 32.8 12.1 C 32.8 12.1 35.09 12.13 35.1 12.1 C 36 12.1 36.5 12.5 36.5 13.4 C 36.5 13.4 36.5 14 36.5 14 C 36.45 14.35 36.4 14.6 36.4 14.6 C 36.4 14.6 36.45 14.61 36.5 14.6 C 36.9 13.2 38.1 12 39.7 12 C 39.91 11.99 40.2 12 40.2 12 L 40.2 14.5 C 40.2 14.5 39.89 14.49 39.5 14.5 C 38.5 14.5 37.2 15.1 36.8 16.6 C 36.6 17.1 36.5 17.7 36.5 18.3 C 36.53 18.29 36.5 22.3 36.5 22.3 L 34 22.3 C 34 22.3 34.01 14.73 34 14.7 Z M 46.4 11.9 C 49.6 11.9 52 14.1 52 17.2 C 52 20.4 49.6 22.6 46.4 22.6 C 43.3 22.6 40.9 20.4 40.9 17.2 C 40.9 14.1 43.3 11.9 46.4 11.9 Z M 46.4 20.4 C 48.1 20.4 49.5 19.1 49.5 17.2 C 49.5 15.4 48.1 14.1 46.4 14.1 C 44.8 14.1 43.4 15.4 43.4 17.2 C 43.4 19.1 44.8 20.4 46.4 20.4 Z M 53.5 14.7 C 53.4 14.4 53.2 14.3 52.9 14.3 C 52.93 14.29 52.7 14.3 52.7 14.3 L 52.7 12.1 C 52.7 12.1 54.17 12.13 54.2 12.1 C 55 12.1 55.4 12.4 55.7 13.1 C 55.7 13.1 57.6 18.5 57.6 18.5 C 57.81 19.05 58 19.9 58 19.9 L 58 19.9 C 58 19.9 58.17 19.05 58.4 18.5 C 58.4 18.5 60.3 13.1 60.3 13.1 C 60.6 12.4 61 12.1 61.8 12.1 C 61.79 12.13 63.2 12.1 63.2 12.1 L 63.2 14.3 C 63.2 14.3 62.91 14.29 62.9 14.3 C 62.6 14.3 62.5 14.4 62.4 14.7 C 62.35 14.65 59.4 22.3 59.4 22.3 L 56.4 22.3 C 56.4 22.3 53.49 14.65 53.5 14.7 Z M 69 11.9 C 71.9 11.9 73.5 14 73.5 16.7 C 73.51 17.03 73.5 17.7 73.5 17.7 C 73.5 17.7 66.41 17.67 66.4 17.7 C 66.6 19.5 67.9 20.4 69.5 20.4 C 71.11 20.41 72.3 19.3 72.3 19.3 L 73.4 21 C 73.4 21 71.83 22.57 69.3 22.6 C 65.9 22.6 63.8 20.1 63.8 17.2 C 63.8 14.1 65.9 11.9 69 11.9 Z M 70.9 15.9 C 70.9 14.7 70 13.9 69 13.9 C 67.7 13.9 66.8 14.6 66.5 15.9 C 66.5 15.9 70.9 15.9 70.9 15.9 Z M 75.9 10.7 C 75.9 10.4 75.8 10.3 75.5 10.3 C 75.47 10.29 74.7 10.3 74.7 10.3 L 74.7 8.1 C 74.7 8.1 77.09 8.13 77.1 8.1 C 78 8.1 78.5 8.6 78.5 9.5 C 78.5 9.5 78.5 19.8 78.5 19.8 C 78.5 20 78.6 20.2 78.9 20.2 C 78.89 20.19 79.7 20.2 79.7 20.2 L 79.7 22.3 C 79.7 22.3 77.27 22.33 77.3 22.3 C 76.3 22.3 75.9 21.9 75.9 21 C 75.9 21 75.9 10.7 75.9 10.7 Z M 82 8.1 L 84.2 8.1 L 84.2 10.5 L 82 10.5 L 82 8.1 Z M 81.9 14.7 C 81.9 14.4 81.7 14.3 81.4 14.3 C 81.43 14.29 80.6 14.3 80.6 14.3 L 80.6 12.1 C 80.6 12.1 83.05 12.13 83.1 12.1 C 84 12.1 84.4 12.6 84.4 13.5 C 84.4 13.5 84.4 19.8 84.4 19.8 C 84.4 20 84.6 20.2 84.8 20.2 C 84.83 20.19 85.6 20.2 85.6 20.2 L 85.6 22.3 C 85.6 22.3 83.21 22.33 83.2 22.3 C 82.3 22.3 81.9 21.9 81.9 21 C 81.9 21 81.9 14.7 81.9 14.7 Z M 87.8 19.1 C 87.8 19.1 89.11 20.59 90.9 20.6 C 91.6 20.6 92.2 20.3 92.2 19.6 C 92.2 18.2 86.9 18.2 86.9 14.9 C 86.9 12.8 88.7 11.9 90.8 11.9 C 92.2 11.9 94.4 12.4 94.4 14 C 94.39 14.01 94.4 15.1 94.4 15.1 L 92.2 15.1 C 92.2 15.1 92.15 14.57 92.2 14.6 C 92.2 14.1 91.4 13.9 90.9 13.9 C 90 13.9 89.4 14.2 89.4 14.8 C 89.4 16.4 94.8 16.1 94.8 19.5 C 94.8 21.4 93.1 22.6 90.9 22.6 C 88.05 22.57 86.6 20.8 86.6 20.8 L 87.8 19.1 Z " stroke="none" fill="#ee3078"/>  </g></svg>