<?xml version="1.0" standalone="no"?><!DOCTYPE svg PUBLIC "-//W3C//DTD SVG 1.1//EN" "http://www.w3.org/Graphics/SVG/1.1/DTD/svg11.dtd"><svg xmlns="http://www.w3.org/2000/svg" version="1.1" width="90.4px" height="17.8px" viewBox="0 -2 90.4 17.8" style="top:-2px">  <desc>Antithrombin</desc>  <defs/>  <g id="Polygon77074">    <path d="M 17.1 5.8 L 14 5.8 L 13.1 8.2 L 12.3 8.2 L 15.2 0.5 L 16 0.5 L 18.8 8.2 L 18 8.2 L 17.1 5.8 Z M 15.6 1.3 C 15.6 1.3 15.39 1.96 15.3 2.3 C 15.26 2.32 14.2 5.1 14.2 5.1 L 16.9 5.1 C 16.9 5.1 15.88 2.32 15.9 2.3 C 15.74 1.96 15.6 1.3 15.6 1.3 L 15.6 1.3 Z M 19.9 2.7 L 20.6 2.7 C 20.6 2.7 20.59 3.54 20.6 3.5 C 20.6 3.8 20.6 4 20.6 4 C 20.6 4 20.6 4 20.6 4 C 20.8 3.5 21.5 2.6 22.8 2.6 C 24.2 2.6 24.7 3.4 24.7 4.7 C 24.65 4.73 24.7 8.2 24.7 8.2 L 23.9 8.2 C 23.9 8.2 23.91 4.93 23.9 4.9 C 23.9 4.1 23.8 3.3 22.7 3.3 C 21.8 3.3 20.9 3.9 20.7 4.9 C 20.6 5.1 20.6 5.3 20.6 5.6 C 20.61 5.6 20.6 8.2 20.6 8.2 L 19.9 8.2 L 19.9 2.7 Z M 26.6 3.4 L 25.9 3.4 L 25.9 2.8 L 26.6 2.8 L 26.6 1.2 L 27.3 1.2 L 27.3 2.8 L 28.7 2.8 L 28.7 3.4 L 27.3 3.4 C 27.3 3.4 27.34 6.16 27.3 6.2 C 27.3 7.5 28.2 7.6 28.6 7.6 C 28.73 7.62 28.8 7.6 28.8 7.6 L 28.8 8.3 C 28.8 8.3 28.71 8.29 28.5 8.3 C 27.9 8.3 26.6 8.1 26.6 6.2 C 26.59 6.24 26.6 3.4 26.6 3.4 Z M 30 0.5 L 30.8 0.5 L 30.8 1.5 L 30 1.5 L 30 0.5 Z M 30.1 2.7 L 30.8 2.7 L 30.8 8.2 L 30.1 8.2 L 30.1 2.7 Z M 32.8 3.4 L 32.1 3.4 L 32.1 2.8 L 32.8 2.8 L 32.8 1.2 L 33.6 1.2 L 33.6 2.8 L 35 2.8 L 35 3.4 L 33.6 3.4 C 33.6 3.4 33.57 6.16 33.6 6.2 C 33.6 7.5 34.4 7.6 34.8 7.6 C 34.97 7.62 35.1 7.6 35.1 7.6 L 35.1 8.3 C 35.1 8.3 34.95 8.29 34.8 8.3 C 34.1 8.3 32.8 8.1 32.8 6.2 C 32.83 6.24 32.8 3.4 32.8 3.4 Z M 36.3 0.5 L 37.1 0.5 C 37.1 0.5 37.05 3.51 37.1 3.5 C 37.05 3.76 37 4 37 4 C 37 4 37.05 3.96 37.1 4 C 37.3 3.4 38 2.6 39.3 2.6 C 40.6 2.6 41.1 3.4 41.1 4.7 C 41.1 4.73 41.1 8.2 41.1 8.2 L 40.4 8.2 C 40.4 8.2 40.35 4.93 40.4 4.9 C 40.4 4.1 40.2 3.3 39.2 3.3 C 38.2 3.3 37.4 3.9 37.1 4.9 C 37.1 5.1 37.1 5.3 37.1 5.6 C 37.05 5.6 37.1 8.2 37.1 8.2 L 36.3 8.2 L 36.3 0.5 Z M 42.8 2.7 L 43.6 2.7 C 43.6 2.7 43.56 3.7 43.6 3.7 C 43.6 3.9 43.5 4.1 43.5 4.1 C 43.5 4.1 43.6 4.1 43.6 4.1 C 43.8 3.3 44.4 2.7 45.3 2.7 C 45.5 2.7 45.6 2.7 45.6 2.7 C 45.61 2.7 45.6 3.4 45.6 3.4 C 45.6 3.4 45.48 3.41 45.3 3.4 C 44.6 3.4 44 4 43.7 4.8 C 43.6 5.2 43.6 5.6 43.6 5.9 C 43.57 5.92 43.6 8.2 43.6 8.2 L 42.8 8.2 L 42.8 2.7 Z M 49.2 2.6 C 50.8 2.6 52.1 3.8 52.1 5.5 C 52.1 7.1 50.8 8.4 49.2 8.4 C 47.6 8.4 46.3 7.1 46.3 5.5 C 46.3 3.8 47.6 2.6 49.2 2.6 Z M 49.2 7.7 C 50.4 7.7 51.4 6.7 51.4 5.5 C 51.4 4.2 50.4 3.3 49.2 3.3 C 48 3.3 47 4.2 47 5.5 C 47 6.7 48 7.7 49.2 7.7 Z M 53.5 2.7 L 54.3 2.7 C 54.3 2.7 54.25 3.54 54.3 3.5 C 54.3 3.8 54.2 4 54.2 4 C 54.2 4 54.3 4 54.3 4 C 54.5 3.2 55.4 2.6 56.3 2.6 C 57.3 2.6 57.8 3.1 58 4 C 58 4 58 4 58 4 C 58.3 3.2 59.1 2.6 60 2.6 C 61.4 2.6 61.9 3.4 61.9 4.7 C 61.87 4.73 61.9 8.2 61.9 8.2 L 61.1 8.2 C 61.1 8.2 61.12 4.92 61.1 4.9 C 61.1 4 60.9 3.3 59.9 3.3 C 59.1 3.3 58.4 4 58.2 4.8 C 58.1 5.1 58.1 5.3 58.1 5.6 C 58.07 5.63 58.1 8.2 58.1 8.2 L 57.3 8.2 C 57.3 8.2 57.32 4.92 57.3 4.9 C 57.3 4.1 57.2 3.3 56.2 3.3 C 55.3 3.3 54.6 4 54.3 4.9 C 54.3 5.1 54.3 5.4 54.3 5.6 C 54.26 5.63 54.3 8.2 54.3 8.2 L 53.5 8.2 L 53.5 2.7 Z M 63.6 0.5 L 64.3 0.5 C 64.3 0.5 64.34 3.2 64.3 3.2 C 64.34 3.45 64.3 3.7 64.3 3.7 L 64.3 3.7 C 64.3 3.7 64.8 2.59 66.2 2.6 C 67.7 2.6 68.6 3.8 68.6 5.5 C 68.6 7.2 67.6 8.4 66.1 8.4 C 64.81 8.38 64.3 7.3 64.3 7.3 L 64.3 7.3 C 64.3 7.3 64.32 7.49 64.3 7.8 C 64.32 7.76 64.3 8.2 64.3 8.2 L 63.6 8.2 L 63.6 0.5 Z M 66.1 7.7 C 67.1 7.7 67.9 6.9 67.9 5.5 C 67.9 4.1 67.1 3.3 66.1 3.3 C 65.2 3.3 64.3 3.9 64.3 5.5 C 64.3 6.6 64.9 7.7 66.1 7.7 Z M 70.1 0.5 L 70.8 0.5 L 70.8 1.5 L 70.1 1.5 L 70.1 0.5 Z M 70.1 2.7 L 70.8 2.7 L 70.8 8.2 L 70.1 8.2 L 70.1 2.7 Z M 72.6 2.7 L 73.4 2.7 C 73.4 2.7 73.36 3.54 73.4 3.5 C 73.4 3.8 73.3 4 73.3 4 C 73.3 4 73.4 4 73.4 4 C 73.6 3.5 74.3 2.6 75.6 2.6 C 76.9 2.6 77.4 3.4 77.4 4.7 C 77.42 4.73 77.4 8.2 77.4 8.2 L 76.7 8.2 C 76.7 8.2 76.67 4.93 76.7 4.9 C 76.7 4.1 76.5 3.3 75.5 3.3 C 74.5 3.3 73.7 3.9 73.5 4.9 C 73.4 5.1 73.4 5.3 73.4 5.6 C 73.37 5.6 73.4 8.2 73.4 8.2 L 72.6 8.2 L 72.6 2.7 Z " stroke="none" fill="#000"/>  </g></svg>