<?xml version="1.0" standalone="no"?><!DOCTYPE svg PUBLIC "-//W3C//DTD SVG 1.1//EN" "http://www.w3.org/Graphics/SVG/1.1/DTD/svg11.dtd"><svg xmlns="http://www.w3.org/2000/svg" version="1.1" width="180.2px" height="20.5px" viewBox="0 -3 180.2 20.5" style="top:-3px">  <desc>Preva ne efekt z visl od membr ny</desc>  <defs/>  <g id="Polygon68563">    <path d="M 1 1.5 L 0.3 1.5 L 0.3 0.4 C 0.3 0.4 3.59 0.4 3.6 0.4 C 4.9 0.4 5.8 1.3 5.8 2.7 C 5.8 4.1 4.9 5 3.6 5 C 3.59 5.05 2.3 5 2.3 5 L 2.3 7.5 L 1 7.5 L 1 1.5 Z M 3.3 3.9 C 4.1 3.9 4.5 3.5 4.5 2.7 C 4.5 2 4.1 1.5 3.4 1.5 C 3.37 1.51 2.3 1.5 2.3 1.5 L 2.3 3.9 C 2.3 3.9 3.35 3.93 3.3 3.9 Z M 6.9 3.7 C 6.9 3.5 6.8 3.5 6.7 3.5 C 6.66 3.48 6.3 3.5 6.3 3.5 L 6.3 2.4 C 6.3 2.4 7.42 2.4 7.4 2.4 C 7.9 2.4 8.1 2.6 8.1 3 C 8.1 3 8.1 3.3 8.1 3.3 C 8.1 3.51 8.1 3.6 8.1 3.6 C 8.1 3.6 8.1 3.64 8.1 3.6 C 8.3 2.9 8.9 2.3 9.7 2.3 C 9.83 2.33 9.9 2.4 9.9 2.4 L 9.9 3.6 C 9.9 3.6 9.82 3.58 9.6 3.6 C 9.1 3.6 8.5 3.9 8.2 4.6 C 8.2 4.9 8.1 5.2 8.1 5.5 C 8.14 5.48 8.1 7.5 8.1 7.5 L 6.9 7.5 C 6.9 7.5 6.88 3.7 6.9 3.7 Z M 12.9 2.3 C 14.4 2.3 15.1 3.3 15.1 4.7 C 15.15 4.85 15.1 5.2 15.1 5.2 C 15.1 5.2 11.6 5.17 11.6 5.2 C 11.7 6.1 12.4 6.5 13.1 6.5 C 13.95 6.54 14.6 6 14.6 6 L 15.1 6.9 C 15.1 6.9 14.31 7.62 13 7.6 C 11.3 7.6 10.3 6.4 10.3 4.9 C 10.3 3.4 11.4 2.3 12.9 2.3 Z M 13.9 4.3 C 13.8 3.7 13.4 3.3 12.9 3.3 C 12.2 3.3 11.8 3.6 11.6 4.3 C 11.6 4.3 13.9 4.3 13.9 4.3 Z M 16.1 3.7 C 16 3.5 15.9 3.5 15.8 3.5 C 15.78 3.48 15.7 3.5 15.7 3.5 L 15.7 2.4 C 15.7 2.4 16.4 2.4 16.4 2.4 C 16.8 2.4 17 2.5 17.2 2.9 C 17.2 2.9 18.1 5.6 18.1 5.6 C 18.22 5.86 18.3 6.3 18.3 6.3 L 18.3 6.3 C 18.3 6.3 18.4 5.86 18.5 5.6 C 18.5 5.6 19.5 2.9 19.5 2.9 C 19.6 2.5 19.8 2.4 20.2 2.4 C 20.21 2.4 20.9 2.4 20.9 2.4 L 20.9 3.5 C 20.9 3.5 20.77 3.48 20.8 3.5 C 20.6 3.5 20.5 3.5 20.5 3.7 C 20.49 3.66 19 7.5 19 7.5 L 17.5 7.5 C 17.5 7.5 16.06 3.66 16.1 3.7 Z M 24.3 4.3 C 24.31 4.3 24.5 4.3 24.5 4.3 C 24.5 4.3 24.47 4.26 24.5 4.3 C 24.5 3.5 24.2 3.3 23.5 3.3 C 23.3 3.3 22.8 3.3 22.8 3.6 C 22.85 3.6 22.8 3.9 22.8 3.9 L 21.7 3.9 C 21.7 3.9 21.67 3.33 21.7 3.3 C 21.7 2.4 23 2.3 23.5 2.3 C 25.2 2.3 25.7 3.2 25.7 4.3 C 25.7 4.3 25.7 6.2 25.7 6.2 C 25.7 6.4 25.8 6.4 26 6.4 C 25.96 6.43 26.4 6.4 26.4 6.4 L 26.4 7.5 C 26.4 7.5 25.22 7.5 25.2 7.5 C 24.8 7.5 24.6 7.2 24.6 6.9 C 24.6 6.8 24.6 6.7 24.6 6.7 C 24.58 6.72 24.6 6.7 24.6 6.7 C 24.6 6.7 24.17 7.62 23 7.6 C 22.1 7.6 21.3 7.1 21.3 6 C 21.3 4.4 23.5 4.3 24.3 4.3 Z M 23.3 6.6 C 24 6.6 24.5 5.9 24.5 5.3 C 24.49 5.29 24.5 5.2 24.5 5.2 C 24.5 5.2 24.27 5.17 24.3 5.2 C 23.6 5.2 22.6 5.3 22.6 6 C 22.6 6.3 22.8 6.6 23.3 6.6 Z M 26.8 6.8 C 26.8 6.8 29.17 3.95 29.2 3.9 C 29.4 3.66 29.6 3.5 29.6 3.5 L 29.6 3.5 C 29.6 3.5 29.45 3.48 29.1 3.5 C 29.1 3.5 28.2 3.5 28.2 3.5 C 28.1 3.5 28 3.6 28 3.7 C 27.99 3.7 28 4 28 4 L 26.8 4 C 26.8 4 26.84 3.08 26.8 3.1 C 26.8 2.6 27 2.4 27.5 2.4 C 27.52 2.4 31.3 2.4 31.3 2.4 L 31.3 3.1 C 31.3 3.1 28.91 5.96 28.9 6 C 28.68 6.24 28.5 6.4 28.5 6.4 L 28.5 6.5 C 28.5 6.5 28.63 6.42 29 6.4 C 29 6.4 30.1 6.4 30.1 6.4 C 30.2 6.4 30.3 6.4 30.3 6.2 C 30.3 6.2 30.3 5.9 30.3 5.9 L 31.4 5.9 C 31.4 5.9 31.45 6.82 31.4 6.8 C 31.4 7.3 31.2 7.5 30.8 7.5 C 30.78 7.5 26.8 7.5 26.8 7.5 L 26.8 6.8 Z M 27.7 0.4 L 28.7 0.4 L 29.2 1.2 L 29.2 1.2 L 29.7 0.4 L 30.6 0.4 L 29.7 1.8 L 28.6 1.8 L 27.7 0.4 Z M 32.5 3.7 C 32.5 3.5 32.4 3.5 32.3 3.5 C 32.27 3.48 31.9 3.5 31.9 3.5 L 31.9 2.4 C 31.9 2.4 33.04 2.4 33 2.4 C 33.5 2.4 33.7 2.6 33.7 3 C 33.7 3 33.7 3.1 33.7 3.1 C 33.7 3.2 33.7 3.3 33.7 3.3 C 33.7 3.3 33.7 3.3 33.7 3.3 C 33.9 2.9 34.5 2.3 35.5 2.3 C 36.6 2.3 37.3 2.9 37.3 4.2 C 37.3 4.2 37.3 6.2 37.3 6.2 C 37.3 6.4 37.4 6.4 37.5 6.4 C 37.51 6.43 37.9 6.4 37.9 6.4 L 37.9 7.5 C 37.9 7.5 36.7 7.5 36.7 7.5 C 36.2 7.5 36 7.3 36 6.8 C 36 6.8 36 4.5 36 4.5 C 36 3.9 35.9 3.4 35.2 3.4 C 34.5 3.4 34 3.9 33.8 4.5 C 33.8 4.7 33.7 4.9 33.7 5.2 C 33.75 5.16 33.7 7.5 33.7 7.5 L 32.5 7.5 C 32.5 7.5 32.49 3.7 32.5 3.7 Z M 41 2.3 C 42.5 2.3 43.3 3.3 43.3 4.7 C 43.26 4.85 43.2 5.2 43.2 5.2 C 43.2 5.2 39.71 5.17 39.7 5.2 C 39.8 6.1 40.5 6.5 41.2 6.5 C 42.06 6.54 42.7 6 42.7 6 L 43.2 6.9 C 43.2 6.9 42.42 7.62 41.1 7.6 C 39.5 7.6 38.4 6.4 38.4 4.9 C 38.4 3.4 39.5 2.3 41 2.3 Z M 42 4.3 C 41.9 3.7 41.5 3.3 41 3.3 C 40.3 3.3 39.9 3.6 39.7 4.3 C 39.7 4.3 42 4.3 42 4.3 Z M 49.2 2.3 C 50.7 2.3 51.5 3.3 51.5 4.7 C 51.48 4.85 51.4 5.2 51.4 5.2 C 51.4 5.2 47.93 5.17 47.9 5.2 C 48 6.1 48.7 6.5 49.5 6.5 C 50.28 6.54 50.9 6 50.9 6 L 51.4 6.9 C 51.4 6.9 50.64 7.62 49.4 7.6 C 47.7 7.6 46.6 6.4 46.6 4.9 C 46.6 3.4 47.7 2.3 49.2 2.3 Z M 50.2 4.3 C 50.2 3.7 49.7 3.3 49.2 3.3 C 48.6 3.3 48.1 3.6 48 4.3 C 48 4.3 50.2 4.3 50.2 4.3 Z M 52.7 3.4 L 52.1 3.4 L 52.1 2.4 L 52.7 2.4 C 52.7 2.4 52.71 2.25 52.7 2.3 C 52.7 0.6 54.1 0.4 54.8 0.4 C 55 0.4 55.2 0.4 55.2 0.4 C 55.22 0.4 55.2 1.5 55.2 1.5 C 55.2 1.5 55.11 1.45 55 1.4 C 54.6 1.4 54 1.5 54 2.3 C 53.98 2.28 54 2.4 54 2.4 L 55.1 2.4 L 55.1 3.4 L 54 3.4 L 54 7.5 L 52.7 7.5 L 52.7 3.4 Z M 58 2.3 C 59.5 2.3 60.3 3.3 60.3 4.7 C 60.28 4.85 60.2 5.2 60.2 5.2 C 60.2 5.2 56.73 5.17 56.7 5.2 C 56.8 6.1 57.5 6.5 58.3 6.5 C 59.08 6.54 59.7 6 59.7 6 L 60.2 6.9 C 60.2 6.9 59.44 7.62 58.2 7.6 C 56.5 7.6 55.4 6.4 55.4 4.9 C 55.4 3.4 56.5 2.3 58 2.3 Z M 59 4.3 C 59 3.7 58.5 3.3 58 3.3 C 57.4 3.3 56.9 3.6 56.8 4.3 C 56.8 4.3 59 4.3 59 4.3 Z M 61.5 1.7 C 61.5 1.5 61.4 1.5 61.2 1.5 C 61.25 1.48 60.8 1.5 60.8 1.5 L 60.8 0.4 C 60.8 0.4 62.06 0.4 62.1 0.4 C 62.5 0.4 62.7 0.5 62.7 1 C 62.74 0.98 62.7 4.2 62.7 4.2 C 62.7 4.2 63.12 4.2 63.1 4.2 C 63.3 4.2 63.5 4.2 63.6 4 C 63.6 4.01 64.6 2.4 64.6 2.4 L 66 2.4 C 66 2.4 64.76 4.32 64.8 4.3 C 64.54 4.64 64.4 4.7 64.4 4.7 L 64.4 4.7 C 64.4 4.7 64.56 4.81 64.7 5.1 C 64.7 5.1 65.3 6.2 65.3 6.2 C 65.4 6.4 65.5 6.4 65.7 6.4 C 65.74 6.43 66.1 6.4 66.1 6.4 L 66.1 7.5 C 66.1 7.5 65.14 7.5 65.1 7.5 C 64.7 7.5 64.5 7.4 64.3 7.1 C 64.3 7.1 63.5 5.5 63.5 5.5 C 63.4 5.3 63.2 5.3 63 5.3 C 63.02 5.27 62.7 5.3 62.7 5.3 L 62.7 7.5 L 61.5 7.5 C 61.5 7.5 61.47 1.7 61.5 1.7 Z M 67.1 3.4 L 66.4 3.4 L 66.4 2.4 L 67.1 2.4 L 67.1 1 L 68.3 1 L 68.3 2.4 L 69.5 2.4 L 69.5 3.4 L 68.3 3.4 C 68.3 3.4 68.33 5.47 68.3 5.5 C 68.3 6.3 69 6.4 69.3 6.4 C 69.48 6.43 69.6 6.4 69.6 6.4 L 69.6 7.5 C 69.6 7.5 69.41 7.55 69.2 7.5 C 68.5 7.5 67.1 7.3 67.1 5.6 C 67.06 5.63 67.1 3.4 67.1 3.4 Z M 72.8 6.8 C 72.8 6.8 75.18 3.95 75.2 3.9 C 75.41 3.66 75.6 3.5 75.6 3.5 L 75.6 3.5 C 75.6 3.5 75.46 3.48 75.1 3.5 C 75.1 3.5 74.2 3.5 74.2 3.5 C 74.1 3.5 74 3.6 74 3.7 C 74 3.7 74 4 74 4 L 72.8 4 C 72.8 4 72.85 3.08 72.8 3.1 C 72.8 2.6 73 2.4 73.5 2.4 C 73.53 2.4 77.3 2.4 77.3 2.4 L 77.3 3.1 C 77.3 3.1 74.92 5.96 74.9 6 C 74.69 6.24 74.5 6.4 74.5 6.4 L 74.5 6.5 C 74.5 6.5 74.64 6.42 75 6.4 C 75 6.4 76.1 6.4 76.1 6.4 C 76.2 6.4 76.3 6.4 76.3 6.2 C 76.31 6.2 76.3 5.9 76.3 5.9 L 77.5 5.9 C 77.5 5.9 77.46 6.82 77.5 6.8 C 77.5 7.3 77.3 7.5 76.8 7.5 C 76.79 7.5 72.8 7.5 72.8 7.5 L 72.8 6.8 Z M 81 4.3 C 81.03 4.3 81.2 4.3 81.2 4.3 C 81.2 4.3 81.19 4.26 81.2 4.3 C 81.2 3.5 80.9 3.3 80.2 3.3 C 80 3.3 79.6 3.3 79.6 3.6 C 79.57 3.6 79.6 3.9 79.6 3.9 L 78.4 3.9 C 78.4 3.9 78.39 3.33 78.4 3.3 C 78.4 2.4 79.7 2.3 80.3 2.3 C 82 2.3 82.5 3.2 82.5 4.3 C 82.5 4.3 82.5 6.2 82.5 6.2 C 82.5 6.4 82.5 6.4 82.7 6.4 C 82.68 6.43 83.1 6.4 83.1 6.4 L 83.1 7.5 C 83.1 7.5 81.94 7.5 81.9 7.5 C 81.5 7.5 81.3 7.2 81.3 6.9 C 81.3 6.8 81.3 6.7 81.3 6.7 C 81.3 6.72 81.3 6.7 81.3 6.7 C 81.3 6.7 80.89 7.62 79.7 7.6 C 78.8 7.6 78 7.1 78 6 C 78 4.4 80.2 4.3 81 4.3 Z M 80 6.6 C 80.7 6.6 81.2 5.9 81.2 5.3 C 81.21 5.29 81.2 5.2 81.2 5.2 C 81.2 5.2 80.99 5.17 81 5.2 C 80.3 5.2 79.3 5.3 79.3 6 C 79.3 6.3 79.5 6.6 80 6.6 Z M 80.6 0.4 L 81.9 0.4 L 80.8 1.8 L 79.9 1.8 L 80.6 0.4 Z M 83.7 3.7 C 83.6 3.5 83.5 3.5 83.4 3.5 C 83.4 3.48 83.3 3.5 83.3 3.5 L 83.3 2.4 C 83.3 2.4 84.02 2.4 84 2.4 C 84.4 2.4 84.6 2.5 84.8 2.9 C 84.8 2.9 85.7 5.6 85.7 5.6 C 85.84 5.86 85.9 6.3 85.9 6.3 L 85.9 6.3 C 85.9 6.3 86.02 5.86 86.1 5.6 C 86.1 5.6 87.1 2.9 87.1 2.9 C 87.2 2.5 87.4 2.4 87.8 2.4 C 87.83 2.4 88.5 2.4 88.5 2.4 L 88.5 3.5 C 88.5 3.5 88.39 3.48 88.4 3.5 C 88.2 3.5 88.2 3.5 88.1 3.7 C 88.11 3.66 86.6 7.5 86.6 7.5 L 85.1 7.5 C 85.1 7.5 83.68 3.66 83.7 3.7 Z M 89.5 0.4 L 90.6 0.4 L 90.6 1.6 L 89.5 1.6 L 89.5 0.4 Z M 89.5 3.7 C 89.5 3.5 89.4 3.5 89.3 3.5 C 89.27 3.48 88.9 3.5 88.9 3.5 L 88.9 2.4 C 88.9 2.4 90.08 2.4 90.1 2.4 C 90.5 2.4 90.7 2.6 90.7 3.1 C 90.7 3.1 90.7 6.2 90.7 6.2 C 90.7 6.4 90.8 6.4 91 6.4 C 90.97 6.43 91.4 6.4 91.4 6.4 L 91.4 7.5 C 91.4 7.5 90.16 7.5 90.2 7.5 C 89.7 7.5 89.5 7.3 89.5 6.8 C 89.5 6.8 89.5 3.7 89.5 3.7 Z M 92.5 5.9 C 92.5 5.9 93.11 6.63 94 6.6 C 94.4 6.6 94.7 6.5 94.7 6.1 C 94.7 5.4 92 5.4 92 3.8 C 92 2.8 92.9 2.3 94 2.3 C 94.6 2.3 95.7 2.5 95.7 3.3 C 95.75 3.34 95.7 3.9 95.7 3.9 L 94.6 3.9 C 94.6 3.9 94.63 3.62 94.6 3.6 C 94.6 3.4 94.3 3.3 94 3.3 C 93.5 3.3 93.2 3.4 93.2 3.7 C 93.2 4.5 95.9 4.4 95.9 6.1 C 95.9 7 95.1 7.6 94 7.6 C 92.58 7.62 91.9 6.7 91.9 6.7 L 92.5 5.9 Z M 97.1 1.7 C 97.1 1.5 97 1.5 96.9 1.5 C 96.87 1.48 96.5 1.5 96.5 1.5 L 96.5 0.4 C 96.5 0.4 97.68 0.4 97.7 0.4 C 98.1 0.4 98.4 0.6 98.4 1.1 C 98.4 1.1 98.4 6.2 98.4 6.2 C 98.4 6.4 98.4 6.4 98.6 6.4 C 98.58 6.43 99 6.4 99 6.4 L 99 7.5 C 99 7.5 97.77 7.5 97.8 7.5 C 97.3 7.5 97.1 7.3 97.1 6.8 C 97.1 6.8 97.1 1.7 97.1 1.7 Z M 100.4 8.5 C 100.8 8.5 101.1 8.3 101.3 7.9 C 101.27 7.88 101.4 7.5 101.4 7.5 C 101.4 7.5 99.74 3.66 99.7 3.7 C 99.7 3.5 99.6 3.5 99.5 3.5 C 99.47 3.48 99.3 3.5 99.3 3.5 L 99.3 2.4 C 99.3 2.4 100.16 2.4 100.2 2.4 C 100.5 2.4 100.7 2.5 100.8 2.9 C 100.8 2.9 101.8 5.4 101.8 5.4 C 101.93 5.69 102 6.1 102 6.1 L 102 6.1 C 102 6.1 102.11 5.69 102.2 5.4 C 102.2 5.4 103.1 2.9 103.1 2.9 C 103.2 2.5 103.4 2.4 103.7 2.4 C 103.75 2.4 104.6 2.4 104.6 2.4 L 104.6 3.5 C 104.6 3.5 104.46 3.48 104.5 3.5 C 104.3 3.5 104.2 3.5 104.2 3.7 C 104.2 3.7 102.3 8.3 102.3 8.3 C 102 9.2 101.3 9.6 100.5 9.6 C 99.7 9.6 99.2 9.1 99.2 9.1 L 99.7 8.2 C 99.7 8.2 100.01 8.53 100.4 8.5 Z M 102.3 0.4 L 103.5 0.4 L 102.4 1.8 L 101.5 1.8 L 102.3 0.4 Z M 110.5 2.3 C 112 2.3 113.3 3.4 113.3 4.9 C 113.3 6.5 112 7.6 110.5 7.6 C 108.9 7.6 107.7 6.5 107.7 4.9 C 107.7 3.4 108.9 2.3 110.5 2.3 Z M 110.5 6.5 C 111.3 6.5 112 5.9 112 4.9 C 112 4 111.3 3.4 110.5 3.4 C 109.7 3.4 109 4 109 4.9 C 109 5.9 109.7 6.5 110.5 6.5 Z M 116.2 2.3 C 117.36 2.28 117.7 2.9 117.7 2.9 L 117.7 2.9 C 117.7 2.9 117.73 2.77 117.7 2.6 C 117.7 2.6 117.7 1.7 117.7 1.7 C 117.7 1.5 117.6 1.5 117.5 1.5 C 117.51 1.48 117.1 1.5 117.1 1.5 L 117.1 0.4 C 117.1 0.4 118.32 0.4 118.3 0.4 C 118.8 0.4 119 0.6 119 1.1 C 119 1.1 119 6.2 119 6.2 C 119 6.4 119.1 6.4 119.2 6.4 C 119.22 6.43 119.6 6.4 119.6 6.4 L 119.6 7.5 C 119.6 7.5 118.44 7.5 118.4 7.5 C 118 7.5 117.8 7.3 117.8 7 C 117.8 6.9 117.8 6.8 117.8 6.8 C 117.81 6.79 117.8 6.8 117.8 6.8 C 117.8 6.8 117.37 7.62 116.2 7.6 C 114.8 7.6 113.9 6.5 113.9 5 C 113.9 3.3 114.9 2.3 116.2 2.3 Z M 117.8 4.9 C 117.8 4.1 117.3 3.4 116.5 3.4 C 115.8 3.4 115.2 3.9 115.2 4.9 C 115.2 5.9 115.7 6.6 116.5 6.6 C 117.1 6.6 117.8 6.1 117.8 4.9 Z M 123.3 3.7 C 123.3 3.5 123.2 3.5 123.1 3.5 C 123.09 3.48 122.7 3.5 122.7 3.5 L 122.7 2.4 C 122.7 2.4 123.86 2.4 123.9 2.4 C 124.3 2.4 124.5 2.6 124.5 3 C 124.5 3 124.5 3.1 124.5 3.1 C 124.5 3.2 124.5 3.3 124.5 3.3 C 124.5 3.3 124.5 3.3 124.5 3.3 C 124.8 2.8 125.4 2.3 126.2 2.3 C 127 2.3 127.5 2.6 127.7 3.3 C 127.7 3.3 127.7 3.3 127.7 3.3 C 128 2.8 128.6 2.3 129.4 2.3 C 130.5 2.3 131.1 2.9 131.1 4.2 C 131.1 4.2 131.1 6.2 131.1 6.2 C 131.1 6.4 131.2 6.4 131.3 6.4 C 131.33 6.43 131.7 6.4 131.7 6.4 L 131.7 7.5 C 131.7 7.5 130.52 7.5 130.5 7.5 C 130 7.5 129.8 7.3 129.8 6.8 C 129.8 6.8 129.8 4.5 129.8 4.5 C 129.8 3.9 129.7 3.4 129.1 3.4 C 128.5 3.4 128.1 4 127.9 4.6 C 127.9 4.8 127.8 5 127.8 5.3 C 127.84 5.26 127.8 7.5 127.8 7.5 L 126.6 7.5 C 126.6 7.5 126.57 4.46 126.6 4.5 C 126.6 3.9 126.5 3.4 125.9 3.4 C 125.2 3.4 124.8 4 124.6 4.6 C 124.6 4.8 124.6 5 124.6 5.3 C 124.57 5.26 124.6 7.5 124.6 7.5 L 123.3 7.5 C 123.3 7.5 123.31 3.7 123.3 3.7 Z M 134.8 2.3 C 136.3 2.3 137.1 3.3 137.1 4.7 C 137.08 4.85 137 5.2 137 5.2 C 137 5.2 133.53 5.17 133.5 5.2 C 133.6 6.1 134.3 6.5 135.1 6.5 C 135.88 6.54 136.5 6 136.5 6 L 137 6.9 C 137 6.9 136.24 7.62 135 7.6 C 133.3 7.6 132.2 6.4 132.2 4.9 C 132.2 3.4 133.3 2.3 134.8 2.3 Z M 135.8 4.3 C 135.8 3.7 135.3 3.3 134.8 3.3 C 134.2 3.3 133.7 3.6 133.6 4.3 C 133.6 4.3 135.8 4.3 135.8 4.3 Z M 138.3 3.7 C 138.3 3.5 138.2 3.5 138.1 3.5 C 138.09 3.48 137.7 3.5 137.7 3.5 L 137.7 2.4 C 137.7 2.4 138.86 2.4 138.9 2.4 C 139.3 2.4 139.5 2.6 139.5 3 C 139.5 3 139.5 3.1 139.5 3.1 C 139.5 3.2 139.5 3.3 139.5 3.3 C 139.5 3.3 139.5 3.3 139.5 3.3 C 139.8 2.8 140.4 2.3 141.2 2.3 C 142 2.3 142.5 2.6 142.7 3.3 C 142.7 3.3 142.7 3.3 142.7 3.3 C 143 2.8 143.6 2.3 144.4 2.3 C 145.5 2.3 146.1 2.9 146.1 4.2 C 146.1 4.2 146.1 6.2 146.1 6.2 C 146.1 6.4 146.2 6.4 146.3 6.4 C 146.33 6.43 146.7 6.4 146.7 6.4 L 146.7 7.5 C 146.7 7.5 145.52 7.5 145.5 7.5 C 145 7.5 144.8 7.3 144.8 6.8 C 144.8 6.8 144.8 4.5 144.8 4.5 C 144.8 3.9 144.7 3.4 144.1 3.4 C 143.5 3.4 143.1 4 142.9 4.6 C 142.9 4.8 142.8 5 142.8 5.3 C 142.84 5.26 142.8 7.5 142.8 7.5 L 141.6 7.5 C 141.6 7.5 141.57 4.46 141.6 4.5 C 141.6 3.9 141.5 3.4 140.9 3.4 C 140.2 3.4 139.8 4 139.6 4.6 C 139.6 4.8 139.6 5 139.6 5.3 C 139.57 5.26 139.6 7.5 139.6 7.5 L 138.3 7.5 C 138.3 7.5 138.31 3.7 138.3 3.7 Z M 147.7 1.7 C 147.7 1.5 147.6 1.5 147.5 1.5 C 147.48 1.48 147.1 1.5 147.1 1.5 L 147.1 0.4 C 147.1 0.4 148.29 0.4 148.3 0.4 C 148.8 0.4 149 0.6 149 1.1 C 149 1.1 149 2.6 149 2.6 C 148.97 2.81 148.9 3 148.9 3 L 149 3 C 149 3 149.42 2.28 150.5 2.3 C 151.9 2.3 152.8 3.4 152.8 4.9 C 152.8 6.6 151.8 7.6 150.4 7.6 C 149.36 7.62 148.9 6.9 148.9 6.9 L 148.9 6.9 C 148.9 6.9 148.9 7.04 148.9 7.2 C 148.9 7.24 148.9 7.5 148.9 7.5 L 147.7 7.5 C 147.7 7.5 147.7 1.7 147.7 1.7 Z M 150.2 6.6 C 150.9 6.6 151.5 6 151.5 5 C 151.5 4 151 3.4 150.2 3.4 C 149.5 3.4 148.9 3.8 148.9 5 C 148.9 5.8 149.3 6.6 150.2 6.6 Z M 153.9 3.7 C 153.9 3.5 153.8 3.5 153.7 3.5 C 153.7 3.48 153.3 3.5 153.3 3.5 L 153.3 2.4 C 153.3 2.4 154.46 2.4 154.5 2.4 C 154.9 2.4 155.1 2.6 155.1 3 C 155.1 3 155.1 3.3 155.1 3.3 C 155.14 3.51 155.1 3.6 155.1 3.6 C 155.1 3.6 155.14 3.64 155.1 3.6 C 155.4 2.9 156 2.3 156.8 2.3 C 156.87 2.33 157 2.4 157 2.4 L 157 3.6 C 157 3.6 156.86 3.58 156.7 3.6 C 156.1 3.6 155.5 3.9 155.3 4.6 C 155.2 4.9 155.2 5.2 155.2 5.5 C 155.18 5.48 155.2 7.5 155.2 7.5 L 153.9 7.5 C 153.9 7.5 153.92 3.7 153.9 3.7 Z M 160.3 4.3 C 160.27 4.3 160.4 4.3 160.4 4.3 C 160.4 4.3 160.43 4.26 160.4 4.3 C 160.4 3.5 160.1 3.3 159.5 3.3 C 159.3 3.3 158.8 3.3 158.8 3.6 C 158.81 3.6 158.8 3.9 158.8 3.9 L 157.6 3.9 C 157.6 3.9 157.63 3.33 157.6 3.3 C 157.6 2.4 159 2.3 159.5 2.3 C 161.2 2.3 161.7 3.2 161.7 4.3 C 161.7 4.3 161.7 6.2 161.7 6.2 C 161.7 6.4 161.8 6.4 161.9 6.4 C 161.92 6.43 162.3 6.4 162.3 6.4 L 162.3 7.5 C 162.3 7.5 161.18 7.5 161.2 7.5 C 160.7 7.5 160.5 7.2 160.5 6.9 C 160.5 6.8 160.5 6.7 160.5 6.7 C 160.54 6.72 160.5 6.7 160.5 6.7 C 160.5 6.7 160.13 7.62 159 7.6 C 158.1 7.6 157.2 7.1 157.2 6 C 157.2 4.4 159.4 4.3 160.3 4.3 Z M 159.3 6.6 C 160 6.6 160.4 5.9 160.4 5.3 C 160.45 5.29 160.4 5.2 160.4 5.2 C 160.4 5.2 160.23 5.17 160.2 5.2 C 159.6 5.2 158.5 5.3 158.5 6 C 158.5 6.3 158.8 6.6 159.3 6.6 Z M 159.9 0.4 L 161.1 0.4 L 160.1 1.8 L 159.1 1.8 L 159.9 0.4 Z M 163.3 3.7 C 163.3 3.5 163.3 3.5 163.1 3.5 C 163.12 3.48 162.7 3.5 162.7 3.5 L 162.7 2.4 C 162.7 2.4 163.89 2.4 163.9 2.4 C 164.3 2.4 164.6 2.6 164.6 3 C 164.6 3 164.6 3.1 164.6 3.1 C 164.6 3.2 164.5 3.3 164.5 3.3 C 164.5 3.3 164.6 3.3 164.6 3.3 C 164.8 2.9 165.3 2.3 166.4 2.3 C 167.5 2.3 168.1 2.9 168.1 4.2 C 168.1 4.2 168.1 6.2 168.1 6.2 C 168.1 6.4 168.2 6.4 168.4 6.4 C 168.36 6.43 168.8 6.4 168.8 6.4 L 168.8 7.5 C 168.8 7.5 167.55 7.5 167.5 7.5 C 167.1 7.5 166.9 7.3 166.9 6.8 C 166.9 6.8 166.9 4.5 166.9 4.5 C 166.9 3.9 166.7 3.4 166.1 3.4 C 165.4 3.4 164.9 3.9 164.7 4.5 C 164.6 4.7 164.6 4.9 164.6 5.2 C 164.6 5.16 164.6 7.5 164.6 7.5 L 163.3 7.5 C 163.3 7.5 163.34 3.7 163.3 3.7 Z M 170.1 8.5 C 170.4 8.5 170.7 8.3 170.9 7.9 C 170.91 7.88 171.1 7.5 171.1 7.5 C 171.1 7.5 169.38 3.66 169.4 3.7 C 169.3 3.5 169.2 3.5 169.1 3.5 C 169.11 3.48 169 3.5 169 3.5 L 169 2.4 C 169 2.4 169.8 2.4 169.8 2.4 C 170.2 2.4 170.3 2.5 170.5 2.9 C 170.5 2.9 171.5 5.4 171.5 5.4 C 171.57 5.69 171.6 6.1 171.6 6.1 L 171.7 6.1 C 171.7 6.1 171.75 5.69 171.8 5.4 C 171.8 5.4 172.7 2.9 172.7 2.9 C 172.8 2.5 173 2.4 173.4 2.4 C 173.39 2.4 174.2 2.4 174.2 2.4 L 174.2 3.5 C 174.2 3.5 174.1 3.48 174.1 3.5 C 173.9 3.5 173.9 3.5 173.8 3.7 C 173.8 3.7 172 8.3 172 8.3 C 171.6 9.2 170.9 9.6 170.1 9.6 C 169.34 9.6 168.8 9.1 168.8 9.1 L 169.3 8.2 C 169.3 8.2 169.65 8.53 170.1 8.5 Z " stroke="none" fill="#000"/>  </g></svg>