<?xml version="1.0" standalone="no"?><!DOCTYPE svg PUBLIC "-//W3C//DTD SVG 1.1//EN" "http://www.w3.org/Graphics/SVG/1.1/DTD/svg11.dtd"><svg xmlns="http://www.w3.org/2000/svg" version="1.1" width="20px" height="18.5px" viewBox="0 -2 20 18.5" style="top:-2px">  <desc>0 %</desc>  <defs/>  <g id="Polygon75645">    <path d="M 4.3 4 C 4.3 2 4.9 0.4 6.8 0.4 C 8.6 0.4 9.2 2 9.2 4 C 9.2 6 8.6 7.6 6.8 7.6 C 4.9 7.6 4.3 6 4.3 4 Z M 8.5 4 C 8.5 2.3 8.1 1 6.8 1 C 5.4 1 5 2.3 5 4 C 5 5.7 5.4 7 6.8 7 C 8.1 7 8.5 5.7 8.5 4 Z M 13.1 1.7 C 13.1 1 13.7 0.4 14.5 0.4 C 15.3 0.4 15.9 1 15.9 1.7 C 15.9 2.5 15.3 3.1 14.5 3.1 C 13.7 3.1 13.1 2.5 13.1 1.7 Z M 18.5 0.5 L 19.2 0.5 L 13.9 7.5 L 13.2 7.5 L 18.5 0.5 Z M 15.3 1.7 C 15.3 1.3 15 0.9 14.5 0.9 C 14 0.9 13.7 1.3 13.7 1.7 C 13.7 2.2 14 2.6 14.5 2.6 C 15 2.6 15.3 2.2 15.3 1.7 Z M 17.9 4.8 C 18.7 4.8 19.3 5.5 19.3 6.2 C 19.3 7 18.7 7.6 17.9 7.6 C 17.1 7.6 16.5 7 16.5 6.2 C 16.5 5.5 17.1 4.8 17.9 4.8 Z M 17.1 6.2 C 17.1 6.7 17.4 7.1 17.9 7.1 C 18.3 7.1 18.7 6.7 18.7 6.2 C 18.7 5.8 18.3 5.4 17.9 5.4 C 17.4 5.4 17.1 5.8 17.1 6.2 C 17.1 6.2 17.1 6.2 17.1 6.2 Z " stroke="none" fill="#000"/>  </g></svg>