<?xml version="1.0" standalone="no"?><!DOCTYPE svg PUBLIC "-//W3C//DTD SVG 1.1//EN" "http://www.w3.org/Graphics/SVG/1.1/DTD/svg11.dtd"><svg xmlns="http://www.w3.org/2000/svg" version="1.1" width="43px" height="178.5px" viewBox="0 -1 43 178.5" style="top:-1px">  <desc>100% 90% 80% 70% 60% 50% 40% 30% 20% 10% 0%</desc>  <defs/>  <g id="Polygon78795">    <path d="M 29.7 161.1 C 28.8 161.1 28.1 160.7 27.6 160 C 27.1 159.3 26.9 158.2 26.9 156.8 C 26.9 155.3 27.1 154.3 27.6 153.5 C 28.1 152.8 28.8 152.5 29.7 152.5 C 30.6 152.5 31.2 152.8 31.7 153.5 C 32.2 154.3 32.4 155.3 32.4 156.8 C 32.4 158.2 32.2 159.3 31.7 160 C 31.2 160.7 30.6 161.1 29.7 161.1 Z M 29.7 160.3 C 30.3 160.3 30.7 160 31 159.4 C 31.3 158.9 31.5 158 31.5 156.8 C 31.5 155.6 31.3 154.7 31 154.1 C 30.7 153.5 30.3 153.2 29.7 153.2 C 28.4 153.2 27.8 154.4 27.8 156.8 C 27.8 158 28 158.9 28.3 159.4 C 28.6 160 29 160.3 29.7 160.3 Z M 35.2 157.8 C 34.6 157.8 34.1 157.5 33.8 157.1 C 33.5 156.6 33.4 156 33.4 155.1 C 33.4 154.2 33.5 153.6 33.8 153.1 C 34.1 152.7 34.6 152.5 35.2 152.5 C 35.8 152.5 36.3 152.7 36.6 153.1 C 36.9 153.6 37 154.2 37 155.1 C 37 156 36.9 156.6 36.6 157.1 C 36.3 157.5 35.8 157.8 35.2 157.8 Z M 34.1 155.1 C 34.1 156.4 34.5 157.1 35.2 157.1 C 35.9 157.1 36.3 156.4 36.3 155.1 C 36.3 153.8 35.9 153.1 35.2 153.1 C 34.5 153.1 34.1 153.8 34.1 155.1 C 34.1 155.1 34.1 155.1 34.1 155.1 Z M 40.5 161.1 C 39.9 161.1 39.4 160.9 39.1 160.4 C 38.8 160 38.6 159.3 38.6 158.4 C 38.6 157.6 38.8 156.9 39.1 156.5 C 39.4 156 39.9 155.8 40.5 155.8 C 41.1 155.8 41.5 156 41.8 156.5 C 42.2 156.9 42.3 157.6 42.3 158.4 C 42.3 159.3 42.2 160 41.8 160.4 C 41.5 160.9 41.1 161.1 40.5 161.1 Z M 39.3 158.4 C 39.3 159.8 39.7 160.4 40.5 160.4 C 41.2 160.4 41.6 159.8 41.6 158.4 C 41.6 157.1 41.2 156.4 40.5 156.4 C 39.7 156.4 39.3 157.1 39.3 158.4 C 39.3 158.4 39.3 158.4 39.3 158.4 Z M 39 152.6 L 39.8 152.6 L 36.6 161 L 35.8 161 L 39 152.6 Z " stroke="none" fill="#000"/>  </g>  <g id="Polygon78794">    <path d="M 24.5 138.7 L 24.4 138.7 L 22.9 139.7 L 22.7 139.7 L 22.5 139.2 L 22.6 139.1 L 24.8 137.6 L 25.4 137.6 L 25.4 146 L 24.5 146 L 24.5 138.7 Z M 29.7 146.1 C 28.8 146.1 28.1 145.8 27.6 145.1 C 27.1 144.3 26.9 143.3 26.9 141.8 C 26.9 140.4 27.1 139.3 27.6 138.6 C 28.1 137.9 28.8 137.5 29.7 137.5 C 30.6 137.5 31.2 137.9 31.7 138.6 C 32.2 139.3 32.4 140.4 32.4 141.8 C 32.4 143.3 32.2 144.3 31.7 145.1 C 31.2 145.8 30.6 146.1 29.7 146.1 Z M 29.7 145.4 C 30.3 145.4 30.7 145.1 31 144.5 C 31.3 143.9 31.5 143 31.5 141.8 C 31.5 140.7 31.3 139.8 31 139.2 C 30.7 138.6 30.3 138.3 29.7 138.3 C 28.4 138.3 27.8 139.5 27.8 141.8 C 27.8 143 28 143.9 28.3 144.5 C 28.6 145.1 29 145.4 29.7 145.4 Z M 35.2 142.8 C 34.6 142.8 34.1 142.6 33.8 142.2 C 33.5 141.7 33.4 141.1 33.4 140.2 C 33.4 139.3 33.5 138.7 33.8 138.2 C 34.1 137.8 34.6 137.5 35.2 137.5 C 35.8 137.5 36.3 137.8 36.6 138.2 C 36.9 138.7 37 139.3 37 140.2 C 37 141.1 36.9 141.7 36.6 142.2 C 36.3 142.6 35.8 142.8 35.2 142.8 Z M 34.1 140.2 C 34.1 141.5 34.5 142.2 35.2 142.2 C 35.9 142.2 36.3 141.5 36.3 140.2 C 36.3 138.9 35.9 138.2 35.2 138.2 C 34.5 138.2 34.1 138.9 34.1 140.2 C 34.1 140.2 34.1 140.2 34.1 140.2 Z M 40.5 146.2 C 39.9 146.2 39.4 145.9 39.1 145.5 C 38.8 145.1 38.6 144.4 38.6 143.5 C 38.6 142.6 38.8 142 39.1 141.5 C 39.4 141.1 39.9 140.9 40.5 140.9 C 41.1 140.9 41.5 141.1 41.8 141.5 C 42.2 142 42.3 142.6 42.3 143.5 C 42.3 144.4 42.2 145.1 41.8 145.5 C 41.5 145.9 41.1 146.2 40.5 146.2 Z M 39.3 143.5 C 39.3 144.8 39.7 145.5 40.5 145.5 C 41.2 145.5 41.6 144.8 41.6 143.5 C 41.6 142.2 41.2 141.5 40.5 141.5 C 39.7 141.5 39.3 142.2 39.3 143.5 C 39.3 143.5 39.3 143.5 39.3 143.5 Z M 39 137.6 L 39.8 137.6 L 36.6 146 L 35.8 146 L 39 137.6 Z " stroke="none" fill="#000"/>  </g>  <g id="Polygon78793">    <path d="M 21.5 130 C 21.5 129.6 21.5 129.3 21.6 129 C 21.6 128.7 21.8 128.5 21.9 128.2 C 22.1 128 22.3 127.7 22.6 127.5 C 22.8 127.3 23.1 127 23.5 126.8 C 24 126.4 24.4 126.1 24.6 125.8 C 24.8 125.5 24.9 125.2 24.9 124.8 C 24.9 123.9 24.4 123.4 23.4 123.4 C 22.9 123.4 22.4 123.5 21.8 123.7 C 21.8 123.7 21.7 122.9 21.7 122.9 C 22 122.8 22.4 122.7 22.7 122.7 C 23 122.6 23.3 122.6 23.6 122.6 C 25.1 122.6 25.8 123.3 25.8 124.7 C 25.8 125 25.8 125.2 25.7 125.4 C 25.7 125.7 25.6 125.9 25.4 126.1 C 25.3 126.3 25.1 126.5 24.9 126.7 C 24.6 126.9 24.4 127.1 24.1 127.3 C 23.7 127.6 23.5 127.8 23.3 128 C 23.1 128.2 22.9 128.4 22.8 128.6 C 22.6 128.8 22.5 128.9 22.5 129.2 C 22.4 129.4 22.4 129.6 22.4 129.8 C 22.37 129.81 22.4 130.3 22.4 130.3 L 25.8 130.3 L 25.8 131.1 L 21.5 131.1 C 21.5 131.1 21.45 129.98 21.5 130 Z M 29.7 131.2 C 28.8 131.2 28.1 130.9 27.6 130.1 C 27.1 129.4 26.9 128.3 26.9 126.9 C 26.9 125.5 27.1 124.4 27.6 123.7 C 28.1 123 28.8 122.6 29.7 122.6 C 30.6 122.6 31.2 123 31.7 123.7 C 32.2 124.4 32.4 125.5 32.4 126.9 C 32.4 128.3 32.2 129.4 31.7 130.1 C 31.2 130.9 30.6 131.2 29.7 131.2 Z M 29.7 130.4 C 30.3 130.4 30.7 130.1 31 129.6 C 31.3 129 31.5 128.1 31.5 126.9 C 31.5 125.7 31.3 124.8 31 124.3 C 30.7 123.7 30.3 123.4 29.7 123.4 C 28.4 123.4 27.8 124.6 27.8 126.9 C 27.8 128.1 28 129 28.3 129.6 C 28.6 130.1 29 130.4 29.7 130.4 Z M 35.2 127.9 C 34.6 127.9 34.1 127.7 33.8 127.2 C 33.5 126.8 33.4 126.1 33.4 125.3 C 33.4 124.4 33.5 123.7 33.8 123.3 C 34.1 122.8 34.6 122.6 35.2 122.6 C 35.8 122.6 36.3 122.8 36.6 123.3 C 36.9 123.7 37 124.4 37 125.3 C 37 126.1 36.9 126.8 36.6 127.2 C 36.3 127.7 35.8 127.9 35.2 127.9 Z M 34.1 125.3 C 34.1 126.6 34.5 127.2 35.2 127.2 C 35.9 127.2 36.3 126.6 36.3 125.3 C 36.3 123.9 35.9 123.3 35.2 123.3 C 34.5 123.3 34.1 123.9 34.1 125.3 C 34.1 125.3 34.1 125.3 34.1 125.3 Z M 40.5 131.2 C 39.9 131.2 39.4 131 39.1 130.6 C 38.8 130.1 38.6 129.5 38.6 128.6 C 38.6 127.7 38.8 127.1 39.1 126.6 C 39.4 126.2 39.9 125.9 40.5 125.9 C 41.1 125.9 41.5 126.2 41.8 126.6 C 42.2 127.1 42.3 127.7 42.3 128.6 C 42.3 129.5 42.2 130.1 41.8 130.6 C 41.5 131 41.1 131.2 40.5 131.2 Z M 39.3 128.6 C 39.3 129.9 39.7 130.6 40.5 130.6 C 41.2 130.6 41.6 129.9 41.6 128.6 C 41.6 127.3 41.2 126.6 40.5 126.6 C 39.7 126.6 39.3 127.3 39.3 128.6 C 39.3 128.6 39.3 128.6 39.3 128.6 Z M 39 122.7 L 39.8 122.7 L 36.6 131.1 L 35.8 131.1 L 39 122.7 Z " stroke="none" fill="#000"/>  </g>  <g id="Polygon78792">    <path d="M 23.2 116.3 C 22.7 116.3 22.2 116.2 21.8 116.1 C 21.78 116.12 21.8 115.4 21.8 115.4 C 21.8 115.4 21.85 115.39 21.8 115.4 C 22 115.4 22.2 115.5 22.4 115.5 C 22.7 115.5 22.9 115.5 23.1 115.5 C 23.7 115.5 24.1 115.4 24.5 115.1 C 24.8 114.8 24.9 114.4 24.9 113.9 C 24.9 113.4 24.8 112.9 24.4 112.6 C 24.1 112.4 23.6 112.2 22.9 112.2 C 22.9 112.22 22.5 112.2 22.5 112.2 L 22.5 111.5 C 22.5 111.5 22.89 111.5 22.9 111.5 C 23.5 111.5 23.9 111.4 24.2 111.1 C 24.5 110.8 24.7 110.5 24.7 109.9 C 24.7 108.9 24.2 108.4 23.1 108.4 C 23 108.4 22.8 108.4 22.6 108.5 C 22.4 108.5 22.1 108.5 21.9 108.6 C 21.88 108.57 21.8 108.6 21.8 108.6 C 21.8 108.6 21.75 107.85 21.7 107.9 C 22 107.8 22.2 107.7 22.5 107.7 C 22.7 107.7 23 107.7 23.2 107.7 C 24 107.7 24.6 107.9 25 108.2 C 25.4 108.6 25.6 109.1 25.6 109.8 C 25.6 110.3 25.5 110.8 25.3 111.1 C 25 111.4 24.7 111.7 24.3 111.8 C 24.3 111.8 24.3 111.9 24.3 111.9 C 24.8 112 25.2 112.2 25.4 112.6 C 25.7 112.9 25.8 113.4 25.8 114 C 25.8 114.7 25.6 115.3 25.1 115.7 C 24.7 116.1 24 116.3 23.2 116.3 Z M 29.7 116.3 C 28.8 116.3 28.1 115.9 27.6 115.2 C 27.1 114.5 26.9 113.4 26.9 112 C 26.9 110.6 27.1 109.5 27.6 108.8 C 28.1 108 28.8 107.7 29.7 107.7 C 30.6 107.7 31.2 108 31.7 108.8 C 32.2 109.5 32.4 110.6 32.4 112 C 32.4 113.4 32.2 114.5 31.7 115.2 C 31.2 115.9 30.6 116.3 29.7 116.3 Z M 29.7 115.5 C 30.3 115.5 30.7 115.2 31 114.6 C 31.3 114.1 31.5 113.2 31.5 112 C 31.5 110.8 31.3 109.9 31 109.3 C 30.7 108.7 30.3 108.5 29.7 108.5 C 28.4 108.5 27.8 109.6 27.8 112 C 27.8 113.2 28 114.1 28.3 114.6 C 28.6 115.2 29 115.5 29.7 115.5 Z M 35.2 113 C 34.6 113 34.1 112.8 33.8 112.3 C 33.5 111.9 33.4 111.2 33.4 110.3 C 33.4 109.5 33.5 108.8 33.8 108.3 C 34.1 107.9 34.6 107.7 35.2 107.7 C 35.8 107.7 36.3 107.9 36.6 108.3 C 36.9 108.8 37 109.5 37 110.3 C 37 111.2 36.9 111.9 36.6 112.3 C 36.3 112.8 35.8 113 35.2 113 Z M 34.1 110.3 C 34.1 111.7 34.5 112.3 35.2 112.3 C 35.9 112.3 36.3 111.7 36.3 110.3 C 36.3 109 35.9 108.3 35.2 108.3 C 34.5 108.3 34.1 109 34.1 110.3 C 34.1 110.3 34.1 110.3 34.1 110.3 Z M 40.5 116.3 C 39.9 116.3 39.4 116.1 39.1 115.6 C 38.8 115.2 38.6 114.5 38.6 113.7 C 38.6 112.8 38.8 112.1 39.1 111.7 C 39.4 111.2 39.9 111 40.5 111 C 41.1 111 41.5 111.2 41.8 111.7 C 42.2 112.1 42.3 112.8 42.3 113.7 C 42.3 114.5 42.2 115.2 41.8 115.6 C 41.5 116.1 41.1 116.3 40.5 116.3 Z M 39.3 113.7 C 39.3 115 39.7 115.7 40.5 115.7 C 41.2 115.7 41.6 115 41.6 113.7 C 41.6 112.3 41.2 111.7 40.5 111.7 C 39.7 111.7 39.3 112.3 39.3 113.7 C 39.3 113.7 39.3 113.7 39.3 113.7 Z M 39 107.8 L 39.8 107.8 L 36.6 116.2 L 35.8 116.2 L 39 107.8 Z " stroke="none" fill="#000"/>  </g>  <g id="Polygon78791">    <path d="M 20.6 98.7 L 20.6 98.7 L 23.4 92.7 L 23.4 92.7 L 24.2 92.9 L 24.3 92.9 L 21.6 98.5 L 21.6 98.5 L 24.2 98.5 L 24.4 95.5 L 25.1 95.5 L 25.1 98.5 L 26.1 98.5 L 26.1 99.2 L 25.1 99.2 L 25.1 101.2 L 24.2 101.2 L 24.2 99.2 L 20.8 99.2 L 20.6 98.7 Z M 29.7 101.4 C 28.8 101.4 28.1 101 27.6 100.3 C 27.1 99.6 26.9 98.5 26.9 97.1 C 26.9 95.6 27.1 94.6 27.6 93.8 C 28.1 93.1 28.8 92.7 29.7 92.7 C 30.6 92.7 31.2 93.1 31.7 93.8 C 32.2 94.6 32.4 95.6 32.4 97.1 C 32.4 98.5 32.2 99.6 31.7 100.3 C 31.2 101 30.6 101.4 29.7 101.4 Z M 29.7 100.6 C 30.3 100.6 30.7 100.3 31 99.7 C 31.3 99.1 31.5 98.3 31.5 97.1 C 31.5 95.9 31.3 95 31 94.4 C 30.7 93.8 30.3 93.5 29.7 93.5 C 28.4 93.5 27.8 94.7 27.8 97.1 C 27.8 98.3 28 99.1 28.3 99.7 C 28.6 100.3 29 100.6 29.7 100.6 Z M 35.2 98 C 34.6 98 34.1 97.8 33.8 97.4 C 33.5 96.9 33.4 96.3 33.4 95.4 C 33.4 94.5 33.5 93.9 33.8 93.4 C 34.1 93 34.6 92.7 35.2 92.7 C 35.8 92.7 36.3 93 36.6 93.4 C 36.9 93.9 37 94.5 37 95.4 C 37 96.3 36.9 96.9 36.6 97.4 C 36.3 97.8 35.8 98 35.2 98 Z M 34.1 95.4 C 34.1 96.7 34.5 97.4 35.2 97.4 C 35.9 97.4 36.3 96.7 36.3 95.4 C 36.3 94.1 35.9 93.4 35.2 93.4 C 34.5 93.4 34.1 94.1 34.1 95.4 C 34.1 95.4 34.1 95.4 34.1 95.4 Z M 40.5 101.4 C 39.9 101.4 39.4 101.2 39.1 100.7 C 38.8 100.3 38.6 99.6 38.6 98.7 C 38.6 97.9 38.8 97.2 39.1 96.8 C 39.4 96.3 39.9 96.1 40.5 96.1 C 41.1 96.1 41.5 96.3 41.8 96.8 C 42.2 97.2 42.3 97.9 42.3 98.7 C 42.3 99.6 42.2 100.3 41.8 100.7 C 41.5 101.2 41.1 101.4 40.5 101.4 Z M 39.3 98.7 C 39.3 100.1 39.7 100.7 40.5 100.7 C 41.2 100.7 41.6 100.1 41.6 98.7 C 41.6 97.4 41.2 96.7 40.5 96.7 C 39.7 96.7 39.3 97.4 39.3 98.7 C 39.3 98.7 39.3 98.7 39.3 98.7 Z M 39 92.9 L 39.8 92.9 L 36.6 101.2 L 35.8 101.2 L 39 92.9 Z " stroke="none" fill="#000"/>  </g>  <g id="Polygon78790">    <path d="M 23.2 86.5 C 22.8 86.5 22.3 86.4 21.8 86.3 C 21.78 86.28 21.8 85.5 21.8 85.5 C 21.8 85.5 21.99 85.53 22 85.5 C 22.4 85.6 22.8 85.7 23.1 85.7 C 24.4 85.7 25 85.1 25 83.9 C 25 83.6 24.9 83.3 24.9 83.1 C 24.8 82.9 24.6 82.7 24.5 82.6 C 24.3 82.4 24 82.3 23.7 82.3 C 23.4 82.2 23.1 82.2 22.7 82.2 C 22.67 82.16 22 82.1 22 82.1 L 21.9 82.1 L 22.2 77.9 L 25.6 77.9 L 25.6 78.7 L 22.9 78.7 C 22.9 78.7 22.74 81.43 22.7 81.4 C 23.3 81.4 23.8 81.5 24.2 81.6 C 24.6 81.7 24.9 81.8 25.2 82 C 25.4 82.2 25.6 82.4 25.7 82.8 C 25.9 83.1 25.9 83.4 25.9 83.9 C 25.9 84.7 25.7 85.4 25.2 85.8 C 24.7 86.2 24.1 86.5 23.2 86.5 Z M 29.7 86.4 C 28.8 86.4 28.1 86.1 27.6 85.4 C 27.1 84.6 26.9 83.6 26.9 82.1 C 26.9 80.7 27.1 79.6 27.6 78.9 C 28.1 78.2 28.8 77.8 29.7 77.8 C 30.6 77.8 31.2 78.2 31.7 78.9 C 32.2 79.6 32.4 80.7 32.4 82.1 C 32.4 83.6 32.2 84.6 31.7 85.3 C 31.2 86.1 30.6 86.4 29.7 86.4 Z M 29.7 85.6 C 30.3 85.6 30.7 85.4 31 84.8 C 31.3 84.2 31.5 83.3 31.5 82.1 C 31.5 80.9 31.3 80.1 31 79.5 C 30.7 78.9 30.3 78.6 29.7 78.6 C 28.4 78.6 27.8 79.8 27.8 82.1 C 27.8 83.3 28 84.2 28.3 84.8 C 28.6 85.4 29 85.6 29.7 85.6 Z M 35.2 83.1 C 34.6 83.1 34.1 82.9 33.8 82.5 C 33.5 82 33.4 81.3 33.4 80.5 C 33.4 79.6 33.5 78.9 33.8 78.5 C 34.1 78 34.6 77.8 35.2 77.8 C 35.8 77.8 36.3 78 36.6 78.5 C 36.9 78.9 37 79.6 37 80.5 C 37 81.3 36.9 82 36.6 82.5 C 36.3 82.9 35.8 83.1 35.2 83.1 Z M 34.1 80.5 C 34.1 81.8 34.5 82.5 35.2 82.5 C 35.9 82.5 36.3 81.8 36.3 80.5 C 36.3 79.1 35.9 78.5 35.2 78.5 C 34.5 78.5 34.1 79.1 34.1 80.5 C 34.1 80.5 34.1 80.5 34.1 80.5 Z M 40.5 86.5 C 39.9 86.5 39.4 86.2 39.1 85.8 C 38.8 85.3 38.6 84.7 38.6 83.8 C 38.6 82.9 38.8 82.3 39.1 81.8 C 39.4 81.4 39.9 81.1 40.5 81.1 C 41.1 81.1 41.5 81.4 41.8 81.8 C 42.2 82.3 42.3 82.9 42.3 83.8 C 42.3 84.7 42.2 85.3 41.8 85.8 C 41.5 86.2 41.1 86.5 40.5 86.5 Z M 39.3 83.8 C 39.3 85.1 39.7 85.8 40.5 85.8 C 41.2 85.8 41.6 85.1 41.6 83.8 C 41.6 82.5 41.2 81.8 40.5 81.8 C 39.7 81.8 39.3 82.5 39.3 83.8 C 39.3 83.8 39.3 83.8 39.3 83.8 Z M 39 77.9 L 39.8 77.9 L 36.6 86.3 L 35.8 86.3 L 39 77.9 Z " stroke="none" fill="#000"/>  </g>  <g id="Polygon78789">    <path d="M 23.4 71.5 C 22.6 71.5 21.9 71.2 21.4 70.5 C 21 69.9 20.8 68.9 20.8 67.7 C 20.8 66.9 20.8 66.2 21 65.6 C 21.1 65 21.4 64.5 21.7 64.1 C 21.9 63.7 22.3 63.4 22.7 63.2 C 23.1 63 23.6 62.9 24.2 62.9 C 24.4 62.9 24.6 62.9 24.8 62.9 C 25 63 25.2 63 25.5 63.1 C 25.5 63.1 25.4 63.8 25.4 63.8 C 25.2 63.8 24.9 63.7 24.8 63.7 C 24.6 63.7 24.4 63.6 24.2 63.6 C 23.4 63.6 22.8 63.9 22.4 64.5 C 22 65.1 21.7 65.9 21.7 67 C 21.9 66.8 22.2 66.6 22.6 66.5 C 22.9 66.3 23.2 66.2 23.6 66.2 C 23.9 66.2 24.3 66.3 24.6 66.4 C 24.9 66.5 25.1 66.7 25.3 66.9 C 25.5 67.1 25.7 67.4 25.8 67.7 C 25.9 68 26 68.3 26 68.7 C 26 69.1 25.9 69.5 25.8 69.9 C 25.7 70.2 25.5 70.5 25.3 70.7 C 25.1 71 24.8 71.2 24.5 71.3 C 24.2 71.4 23.8 71.5 23.4 71.5 Z M 23.4 66.9 C 23.1 66.9 22.8 67 22.5 67.2 C 22.2 67.3 21.9 67.5 21.7 67.8 C 21.7 68.8 21.8 69.5 22.1 70 C 22.4 70.5 22.8 70.8 23.4 70.8 C 23.9 70.8 24.3 70.6 24.6 70.2 C 24.9 69.8 25 69.3 25 68.7 C 25 68.1 24.9 67.7 24.6 67.4 C 24.3 67.1 23.9 66.9 23.4 66.9 Z M 29.7 71.5 C 28.8 71.5 28.1 71.1 27.6 70.4 C 27.1 69.7 26.9 68.6 26.9 67.2 C 26.9 65.8 27.1 64.7 27.6 64 C 28.1 63.2 28.8 62.9 29.7 62.9 C 30.6 62.9 31.2 63.2 31.7 64 C 32.2 64.7 32.4 65.8 32.4 67.2 C 32.4 68.6 32.2 69.7 31.7 70.4 C 31.2 71.1 30.6 71.5 29.7 71.5 Z M 29.7 70.7 C 30.3 70.7 30.7 70.4 31 69.9 C 31.3 69.3 31.5 68.4 31.5 67.2 C 31.5 66 31.3 65.1 31 64.5 C 30.7 64 30.3 63.7 29.7 63.7 C 28.4 63.7 27.8 64.8 27.8 67.2 C 27.8 68.4 28 69.3 28.3 69.9 C 28.6 70.4 29 70.7 29.7 70.7 Z M 35.2 68.2 C 34.6 68.2 34.1 68 33.8 67.5 C 33.5 67.1 33.4 66.4 33.4 65.5 C 33.4 64.7 33.5 64 33.8 63.6 C 34.1 63.1 34.6 62.9 35.2 62.9 C 35.8 62.9 36.3 63.1 36.6 63.6 C 36.9 64 37 64.7 37 65.5 C 37 66.4 36.9 67.1 36.6 67.5 C 36.3 68 35.8 68.2 35.2 68.2 Z M 34.1 65.5 C 34.1 66.9 34.5 67.5 35.2 67.5 C 35.9 67.5 36.3 66.9 36.3 65.5 C 36.3 64.2 35.9 63.5 35.2 63.5 C 34.5 63.5 34.1 64.2 34.1 65.5 C 34.1 65.5 34.1 65.5 34.1 65.5 Z M 40.5 71.5 C 39.9 71.5 39.4 71.3 39.1 70.9 C 38.8 70.4 38.6 69.7 38.6 68.9 C 38.6 68 38.8 67.3 39.1 66.9 C 39.4 66.4 39.9 66.2 40.5 66.2 C 41.1 66.2 41.5 66.4 41.8 66.9 C 42.2 67.3 42.3 68 42.3 68.9 C 42.3 69.7 42.2 70.4 41.8 70.9 C 41.5 71.3 41.1 71.5 40.5 71.5 Z M 39.3 68.9 C 39.3 70.2 39.7 70.9 40.5 70.9 C 41.2 70.9 41.6 70.2 41.6 68.9 C 41.6 67.5 41.2 66.9 40.5 66.9 C 39.7 66.9 39.3 67.5 39.3 68.9 C 39.3 68.9 39.3 68.9 39.3 68.9 Z M 39 63 L 39.8 63 L 36.6 71.4 L 35.8 71.4 L 39 63 Z " stroke="none" fill="#000"/>  </g>  <g id="Polygon78788">    <path d="M 23.4 56.6 L 22.6 56.5 L 22.6 56.3 L 25.3 48.9 L 22 48.9 L 22 48.2 L 22 48.1 L 26 48.1 L 26.2 48.6 L 26.2 48.9 L 23.6 56.5 L 23.4 56.6 Z M 29.7 56.6 C 28.8 56.6 28.1 56.2 27.6 55.5 C 27.1 54.8 26.9 53.7 26.9 52.3 C 26.9 50.8 27.1 49.8 27.6 49 C 28.1 48.3 28.8 48 29.7 48 C 30.6 48 31.2 48.3 31.7 49 C 32.2 49.8 32.4 50.8 32.4 52.3 C 32.4 53.7 32.2 54.8 31.7 55.5 C 31.2 56.2 30.6 56.6 29.7 56.6 Z M 29.7 55.8 C 30.3 55.8 30.7 55.5 31 54.9 C 31.3 54.4 31.5 53.5 31.5 52.3 C 31.5 51.1 31.3 50.2 31 49.6 C 30.7 49 30.3 48.7 29.7 48.7 C 28.4 48.7 27.8 49.9 27.8 52.3 C 27.8 53.5 28 54.4 28.3 54.9 C 28.6 55.5 29 55.8 29.7 55.8 Z M 35.2 53.3 C 34.6 53.3 34.1 53 33.8 52.6 C 33.5 52.1 33.4 51.5 33.4 50.6 C 33.4 49.7 33.5 49.1 33.8 48.6 C 34.1 48.2 34.6 48 35.2 48 C 35.8 48 36.3 48.2 36.6 48.6 C 36.9 49.1 37 49.7 37 50.6 C 37 51.5 36.9 52.1 36.6 52.6 C 36.3 53 35.8 53.3 35.2 53.3 Z M 34.1 50.6 C 34.1 51.9 34.5 52.6 35.2 52.6 C 35.9 52.6 36.3 51.9 36.3 50.6 C 36.3 49.3 35.9 48.6 35.2 48.6 C 34.5 48.6 34.1 49.3 34.1 50.6 C 34.1 50.6 34.1 50.6 34.1 50.6 Z M 40.5 56.6 C 39.9 56.6 39.4 56.4 39.1 55.9 C 38.8 55.5 38.6 54.8 38.6 53.9 C 38.6 53.1 38.8 52.4 39.1 52 C 39.4 51.5 39.9 51.3 40.5 51.3 C 41.1 51.3 41.5 51.5 41.8 52 C 42.2 52.4 42.3 53.1 42.3 53.9 C 42.3 54.8 42.2 55.5 41.8 55.9 C 41.5 56.4 41.1 56.6 40.5 56.6 Z M 39.3 53.9 C 39.3 55.3 39.7 55.9 40.5 55.9 C 41.2 55.9 41.6 55.3 41.6 53.9 C 41.6 52.6 41.2 51.9 40.5 51.9 C 39.7 51.9 39.3 52.6 39.3 53.9 C 39.3 53.9 39.3 53.9 39.3 53.9 Z M 39 48.1 L 39.8 48.1 L 36.6 56.5 L 35.8 56.5 L 39 48.1 Z " stroke="none" fill="#000"/>  </g>  <g id="Polygon78787">    <path d="M 23.3 41.6 C 22.5 41.6 21.9 41.4 21.5 41 C 21 40.6 20.8 40.1 20.8 39.4 C 20.8 39.1 20.9 38.9 20.9 38.6 C 21 38.4 21.1 38.2 21.2 38 C 21.3 37.8 21.5 37.7 21.7 37.5 C 21.8 37.4 22 37.3 22.2 37.2 C 21.8 37 21.6 36.7 21.3 36.4 C 21.1 36.1 21 35.7 21 35.2 C 21 34.5 21.2 34 21.7 33.6 C 22.1 33.2 22.6 33 23.3 33 C 24 33 24.6 33.2 25 33.6 C 25.4 34 25.6 34.5 25.6 35.2 C 25.6 35.7 25.5 36.1 25.3 36.5 C 25.1 36.8 24.8 37.1 24.4 37.2 C 24.9 37.4 25.2 37.7 25.4 38 C 25.7 38.4 25.8 38.8 25.8 39.4 C 25.8 40.1 25.6 40.6 25.2 41 C 24.7 41.4 24.1 41.6 23.3 41.6 Z M 22.9 37.5 C 22.6 37.7 22.3 37.9 22 38.2 C 21.8 38.5 21.7 38.8 21.7 39.4 C 21.7 39.8 21.8 40.2 22.1 40.5 C 22.4 40.8 22.8 40.9 23.3 40.9 C 23.8 40.9 24.2 40.8 24.5 40.5 C 24.8 40.2 25 39.9 25 39.4 C 25 39.1 24.9 38.9 24.9 38.7 C 24.8 38.5 24.7 38.4 24.5 38.2 C 24.4 38.1 24.2 38 24 37.9 C 23.7 37.8 23.5 37.7 23.2 37.6 C 23.2 37.6 22.9 37.5 22.9 37.5 Z M 21.9 35.2 C 21.9 35.5 21.9 35.7 22 35.9 C 22.1 36 22.2 36.2 22.3 36.3 C 22.5 36.5 22.7 36.6 22.9 36.7 C 23.1 36.8 23.4 36.9 23.6 37 C 23.6 37 23.7 37 23.7 37 C 24 36.8 24.3 36.6 24.5 36.3 C 24.7 36 24.8 35.7 24.8 35.2 C 24.8 34.7 24.6 34.4 24.4 34.1 C 24.1 33.9 23.8 33.7 23.3 33.7 C 22.9 33.7 22.5 33.9 22.3 34.1 C 22 34.4 21.9 34.7 21.9 35.2 Z M 29.7 41.6 C 28.8 41.6 28.1 41.3 27.6 40.6 C 27.1 39.8 26.9 38.8 26.9 37.3 C 26.9 35.9 27.1 34.8 27.6 34.1 C 28.1 33.4 28.8 33 29.7 33 C 30.6 33 31.2 33.4 31.7 34.1 C 32.2 34.8 32.4 35.9 32.4 37.3 C 32.4 38.8 32.2 39.8 31.7 40.6 C 31.2 41.3 30.6 41.6 29.7 41.6 Z M 29.7 40.9 C 30.3 40.9 30.7 40.6 31 40 C 31.3 39.4 31.5 38.5 31.5 37.3 C 31.5 36.2 31.3 35.3 31 34.7 C 30.7 34.1 30.3 33.8 29.7 33.8 C 28.4 33.8 27.8 35 27.8 37.3 C 27.8 38.5 28 39.4 28.3 40 C 28.6 40.6 29 40.9 29.7 40.9 Z M 35.2 38.3 C 34.6 38.3 34.1 38.1 33.8 37.7 C 33.5 37.2 33.4 36.6 33.4 35.7 C 33.4 34.8 33.5 34.2 33.8 33.7 C 34.1 33.3 34.6 33 35.2 33 C 35.8 33 36.3 33.3 36.6 33.7 C 36.9 34.2 37 34.8 37 35.7 C 37 36.6 36.9 37.2 36.6 37.7 C 36.3 38.1 35.8 38.3 35.2 38.3 Z M 34.1 35.7 C 34.1 37 34.5 37.7 35.2 37.7 C 35.9 37.7 36.3 37 36.3 35.7 C 36.3 34.4 35.9 33.7 35.2 33.7 C 34.5 33.7 34.1 34.4 34.1 35.7 C 34.1 35.7 34.1 35.7 34.1 35.7 Z M 40.5 41.7 C 39.9 41.7 39.4 41.4 39.1 41 C 38.8 40.6 38.6 39.9 38.6 39 C 38.6 38.1 38.8 37.5 39.1 37 C 39.4 36.6 39.9 36.4 40.5 36.4 C 41.1 36.4 41.5 36.6 41.8 37 C 42.2 37.5 42.3 38.1 42.3 39 C 42.3 39.9 42.2 40.6 41.8 41 C 41.5 41.4 41.1 41.7 40.5 41.7 Z M 39.3 39 C 39.3 40.3 39.7 41 40.5 41 C 41.2 41 41.6 40.3 41.6 39 C 41.6 37.7 41.2 37 40.5 37 C 39.7 37 39.3 37.7 39.3 39 C 39.3 39 39.3 39 39.3 39 Z M 39 33.1 L 39.8 33.1 L 36.6 41.5 L 35.8 41.5 L 39 33.1 Z " stroke="none" fill="#000"/>  </g>  <g id="Polygon78786">    <path d="M 23.2 18.1 C 24 18.1 24.7 18.4 25.1 19.1 C 25.6 19.7 25.8 20.7 25.8 21.9 C 25.8 22.7 25.7 23.4 25.6 24 C 25.4 24.6 25.2 25.1 24.9 25.5 C 24.6 25.9 24.3 26.2 23.9 26.4 C 23.5 26.6 23 26.7 22.4 26.7 C 22.2 26.7 22 26.7 21.8 26.7 C 21.6 26.7 21.4 26.6 21.1 26.5 C 21.1 26.5 21.2 25.8 21.2 25.8 C 21.4 25.8 21.6 25.9 21.8 25.9 C 22 26 22.2 26 22.4 26 C 23.2 26 23.8 25.7 24.2 25.1 C 24.6 24.5 24.8 23.7 24.9 22.6 C 24.6 22.8 24.3 23 24 23.2 C 23.7 23.3 23.3 23.4 23 23.4 C 22.6 23.4 22.3 23.3 22 23.2 C 21.7 23.1 21.5 22.9 21.3 22.7 C 21.1 22.5 20.9 22.2 20.8 21.9 C 20.7 21.6 20.6 21.3 20.6 20.9 C 20.6 20.5 20.7 20.1 20.8 19.7 C 20.9 19.4 21.1 19.1 21.3 18.9 C 21.5 18.6 21.8 18.4 22.1 18.3 C 22.4 18.2 22.8 18.1 23.2 18.1 Z M 23.2 22.7 C 23.5 22.7 23.8 22.6 24.1 22.4 C 24.4 22.3 24.7 22.1 24.9 21.8 C 24.9 20.8 24.8 20.1 24.5 19.6 C 24.2 19.1 23.7 18.9 23.2 18.9 C 22.7 18.9 22.3 19 22 19.4 C 21.7 19.8 21.5 20.3 21.5 20.9 C 21.5 21.5 21.7 21.9 22 22.2 C 22.2 22.5 22.6 22.7 23.2 22.7 Z M 29.7 26.7 C 28.8 26.7 28.1 26.4 27.6 25.6 C 27.1 24.9 26.9 23.8 26.9 22.4 C 26.9 21 27.1 19.9 27.6 19.2 C 28.1 18.5 28.8 18.1 29.7 18.1 C 30.6 18.1 31.2 18.5 31.7 19.2 C 32.2 19.9 32.4 21 32.4 22.4 C 32.4 23.8 32.2 24.9 31.7 25.6 C 31.2 26.4 30.6 26.7 29.7 26.7 Z M 29.7 25.9 C 30.3 25.9 30.7 25.6 31 25.1 C 31.3 24.5 31.5 23.6 31.5 22.4 C 31.5 21.2 31.3 20.3 31 19.8 C 30.7 19.2 30.3 18.9 29.7 18.9 C 28.4 18.9 27.8 20.1 27.8 22.4 C 27.8 23.6 28 24.5 28.3 25.1 C 28.6 25.6 29 25.9 29.7 25.9 Z M 35.2 23.4 C 34.6 23.4 34.1 23.2 33.8 22.7 C 33.5 22.3 33.4 21.6 33.4 20.8 C 33.4 19.9 33.5 19.2 33.8 18.8 C 34.1 18.3 34.6 18.1 35.2 18.1 C 35.8 18.1 36.3 18.3 36.6 18.8 C 36.9 19.2 37 19.9 37 20.8 C 37 21.6 36.9 22.3 36.6 22.7 C 36.3 23.2 35.8 23.4 35.2 23.4 Z M 34.1 20.8 C 34.1 22.1 34.5 22.7 35.2 22.7 C 35.9 22.7 36.3 22.1 36.3 20.8 C 36.3 19.4 35.9 18.8 35.2 18.8 C 34.5 18.8 34.1 19.4 34.1 20.8 C 34.1 20.8 34.1 20.8 34.1 20.8 Z M 40.5 26.7 C 39.9 26.7 39.4 26.5 39.1 26.1 C 38.8 25.6 38.6 25 38.6 24.1 C 38.6 23.2 38.8 22.6 39.1 22.1 C 39.4 21.7 39.9 21.4 40.5 21.4 C 41.1 21.4 41.5 21.7 41.8 22.1 C 42.2 22.6 42.3 23.2 42.3 24.1 C 42.3 25 42.2 25.6 41.8 26.1 C 41.5 26.5 41.1 26.7 40.5 26.7 Z M 39.3 24.1 C 39.3 25.4 39.7 26.1 40.5 26.1 C 41.2 26.1 41.6 25.4 41.6 24.1 C 41.6 22.8 41.2 22.1 40.5 22.1 C 39.7 22.1 39.3 22.8 39.3 24.1 C 39.3 24.1 39.3 24.1 39.3 24.1 Z M 39 18.2 L 39.8 18.2 L 36.6 26.6 L 35.8 26.6 L 39 18.2 Z " stroke="none" fill="#000"/>  </g>  <g id="Polygon78785">    <path d="M 17.9 4.4 L 17.8 4.4 L 16.3 5.3 L 16.1 5.3 L 15.9 4.9 L 16 4.8 L 18.2 3.3 L 18.8 3.3 L 18.8 11.7 L 17.9 11.7 L 17.9 4.4 Z M 23.1 11.8 C 22.2 11.8 21.5 11.4 21 10.7 C 20.5 10 20.3 8.9 20.3 7.5 C 20.3 6.1 20.5 5 21 4.3 C 21.5 3.5 22.2 3.2 23.1 3.2 C 24 3.2 24.6 3.5 25.1 4.3 C 25.6 5 25.8 6.1 25.8 7.5 C 25.8 8.9 25.6 10 25.1 10.7 C 24.6 11.4 24 11.8 23.1 11.8 Z M 23.1 11 C 23.7 11 24.1 10.7 24.4 10.1 C 24.7 9.6 24.9 8.7 24.9 7.5 C 24.9 6.3 24.7 5.4 24.4 4.8 C 24.1 4.2 23.7 4 23.1 4 C 21.8 4 21.2 5.1 21.2 7.5 C 21.2 8.7 21.4 9.6 21.7 10.1 C 22 10.7 22.4 11 23.1 11 Z M 29.7 11.8 C 28.8 11.8 28.1 11.4 27.6 10.7 C 27.1 10 26.9 8.9 26.9 7.5 C 26.9 6.1 27.1 5 27.6 4.3 C 28.1 3.5 28.8 3.2 29.7 3.2 C 30.6 3.2 31.2 3.5 31.7 4.3 C 32.2 5 32.4 6.1 32.4 7.5 C 32.4 8.9 32.2 10 31.7 10.7 C 31.2 11.4 30.6 11.8 29.7 11.8 Z M 29.7 11 C 30.3 11 30.7 10.7 31 10.1 C 31.3 9.6 31.5 8.7 31.5 7.5 C 31.5 6.3 31.3 5.4 31 4.8 C 30.7 4.2 30.3 4 29.7 4 C 28.4 4 27.8 5.1 27.8 7.5 C 27.8 8.7 28 9.6 28.3 10.1 C 28.6 10.7 29 11 29.7 11 Z M 35.2 8.5 C 34.6 8.5 34.1 8.3 33.8 7.8 C 33.5 7.4 33.4 6.7 33.4 5.8 C 33.4 5 33.5 4.3 33.8 3.8 C 34.1 3.4 34.6 3.2 35.2 3.2 C 35.8 3.2 36.3 3.4 36.6 3.8 C 36.9 4.3 37 5 37 5.8 C 37 6.7 36.9 7.4 36.6 7.8 C 36.3 8.3 35.8 8.5 35.2 8.5 Z M 34.1 5.8 C 34.1 7.2 34.5 7.8 35.2 7.8 C 35.9 7.8 36.3 7.2 36.3 5.8 C 36.3 4.5 35.9 3.8 35.2 3.8 C 34.5 3.8 34.1 4.5 34.1 5.8 C 34.1 5.8 34.1 5.8 34.1 5.8 Z M 40.5 11.8 C 39.9 11.8 39.4 11.6 39.1 11.1 C 38.8 10.7 38.6 10 38.6 9.2 C 38.6 8.3 38.8 7.6 39.1 7.2 C 39.4 6.7 39.9 6.5 40.5 6.5 C 41.1 6.5 41.5 6.7 41.8 7.2 C 42.2 7.6 42.3 8.3 42.3 9.2 C 42.3 10 42.2 10.7 41.8 11.1 C 41.5 11.6 41.1 11.8 40.5 11.8 Z M 39.3 9.2 C 39.3 10.5 39.7 11.2 40.5 11.2 C 41.2 11.2 41.6 10.5 41.6 9.2 C 41.6 7.8 41.2 7.2 40.5 7.2 C 39.7 7.2 39.3 7.8 39.3 9.2 C 39.3 9.2 39.3 9.2 39.3 9.2 Z M 39 3.3 L 39.8 3.3 L 36.6 11.7 L 35.8 11.7 L 39 3.3 Z " stroke="none" fill="#000"/>  </g></svg>