<?xml version="1.0" standalone="no"?><!DOCTYPE svg PUBLIC "-//W3C//DTD SVG 1.1//EN" "http://www.w3.org/Graphics/SVG/1.1/DTD/svg11.dtd"><svg xmlns="http://www.w3.org/2000/svg" version="1.1" width="129.3px" height="80.3px" viewBox="0 0 129.3 80.3">  <desc>Peror lna biologick dostupnos Podiel lieku, ktor sa dostane do tkaniva</desc>  <defs/>  <g id="Polygon70091">    <path d="M 11.9 55.1 C 12.95 55.14 13.3 55.8 13.3 55.8 L 13.3 55.8 C 13.3 55.8 13.3 55.71 13.3 55.5 C 13.3 55.5 13.3 54.4 13.3 54.4 C 13.3 54.3 13.2 54.2 13.1 54.2 C 13.1 54.19 12.7 54.2 12.7 54.2 L 12.7 53.4 C 12.7 53.4 13.6 53.45 13.6 53.4 C 14 53.4 14.2 53.6 14.2 54 C 14.2 54 14.2 58.9 14.2 58.9 C 14.2 59 14.2 59.1 14.4 59.1 C 14.37 59.06 14.7 59.1 14.7 59.1 L 14.7 59.8 C 14.7 59.8 13.9 59.8 13.9 59.8 C 13.5 59.8 13.3 59.6 13.3 59.3 C 13.3 59.2 13.4 59.1 13.4 59.1 C 13.36 59.08 13.3 59.1 13.3 59.1 C 13.3 59.1 12.96 59.91 11.8 59.9 C 10.6 59.9 9.8 58.9 9.8 57.5 C 9.8 56.1 10.7 55.1 11.9 55.1 Z M 13.3 57.5 C 13.3 56.7 12.9 55.9 12 55.9 C 11.3 55.9 10.7 56.5 10.7 57.5 C 10.7 58.5 11.3 59.2 12 59.2 C 12.7 59.2 13.3 58.7 13.3 57.5 Z M 17.7 55.1 C 19.1 55.1 20.2 56.1 20.2 57.5 C 20.2 58.9 19.1 59.9 17.7 59.9 C 16.4 59.9 15.3 58.9 15.3 57.5 C 15.3 56.1 16.4 55.1 17.7 55.1 Z M 17.7 59.2 C 18.6 59.2 19.3 58.5 19.3 57.5 C 19.3 56.6 18.6 55.9 17.7 55.9 C 16.9 55.9 16.2 56.6 16.2 57.5 C 16.2 58.5 16.9 59.2 17.7 59.2 Z M 21.2 58.5 C 21.2 58.5 21.73 59.2 22.6 59.2 C 23 59.2 23.4 59 23.4 58.6 C 23.4 57.8 20.9 57.9 20.9 56.4 C 20.9 55.5 21.6 55.1 22.6 55.1 C 23.1 55.1 24.1 55.3 24.1 56 C 24.07 56.02 24.1 56.5 24.1 56.5 L 23.3 56.5 C 23.3 56.5 23.28 56.23 23.3 56.2 C 23.3 56 22.9 55.8 22.6 55.8 C 22.1 55.8 21.8 56 21.8 56.4 C 21.8 57.2 24.2 57.1 24.2 58.6 C 24.2 59.4 23.5 59.9 22.6 59.9 C 21.35 59.91 20.7 59.1 20.7 59.1 L 21.2 58.5 Z M 25.4 55.9 L 24.8 55.9 L 24.8 55.2 L 25.4 55.2 L 25.4 54 L 26.3 54 L 26.3 55.2 L 27.4 55.2 L 27.4 55.9 L 26.3 55.9 C 26.3 55.9 26.26 58.04 26.3 58 C 26.3 58.9 26.9 59.1 27.2 59.1 C 27.35 59.06 27.4 59 27.4 59 L 27.4 59.8 C 27.4 59.8 27.31 59.84 27.1 59.8 C 26.5 59.8 25.4 59.7 25.4 58.1 C 25.39 58.14 25.4 55.9 25.4 55.9 Z M 30.8 57 C 30.79 56.97 31 57 31 57 C 31 57 30.99 56.92 31 56.9 C 31 56.1 30.7 55.8 30 55.8 C 29.8 55.8 29.2 55.9 29.2 56.2 C 29.23 56.18 29.2 56.4 29.2 56.4 L 28.4 56.4 C 28.4 56.4 28.41 55.99 28.4 56 C 28.4 55.2 29.5 55.1 30 55.1 C 31.5 55.1 31.9 55.9 31.9 56.9 C 31.9 56.9 31.9 58.9 31.9 58.9 C 31.9 59 31.9 59.1 32.1 59.1 C 32.06 59.06 32.4 59.1 32.4 59.1 L 32.4 59.8 C 32.4 59.8 31.61 59.8 31.6 59.8 C 31.2 59.8 31 59.6 31 59.3 C 31 59.1 31.1 59 31.1 59 C 31.06 59.01 31 59 31 59 C 31 59 30.68 59.91 29.6 59.9 C 28.8 59.9 28 59.4 28 58.5 C 28 57.1 30 57 30.8 57 Z M 29.8 59.2 C 30.5 59.2 31 58.4 31 57.8 C 31 57.76 31 57.6 31 57.6 C 31 57.6 30.77 57.61 30.8 57.6 C 30.1 57.6 28.9 57.6 28.9 58.5 C 28.9 58.8 29.2 59.2 29.8 59.2 Z M 33.4 56.2 C 33.4 56.1 33.3 56 33.2 56 C 33.17 55.99 32.8 56 32.8 56 L 32.8 55.2 C 32.8 55.2 33.64 55.25 33.6 55.2 C 34 55.2 34.2 55.4 34.2 55.8 C 34.2 55.8 34.2 55.9 34.2 55.9 C 34.22 56.07 34.2 56.2 34.2 56.2 C 34.2 56.2 34.22 56.18 34.2 56.2 C 34.4 55.8 34.9 55.1 35.9 55.1 C 37 55.1 37.5 55.7 37.5 56.9 C 37.5 56.9 37.5 58.9 37.5 58.9 C 37.5 59 37.6 59.1 37.7 59.1 C 37.69 59.06 38.1 59.1 38.1 59.1 L 38.1 59.8 C 38.1 59.8 37.2 59.8 37.2 59.8 C 36.8 59.8 36.6 59.6 36.6 59.2 C 36.6 59.2 36.6 57.1 36.6 57.1 C 36.6 56.4 36.5 55.9 35.8 55.9 C 35.1 55.9 34.5 56.4 34.3 57.1 C 34.3 57.2 34.2 57.4 34.2 57.7 C 34.24 57.67 34.2 59.8 34.2 59.8 L 33.4 59.8 C 33.4 59.8 33.37 56.19 33.4 56.2 Z M 40.9 55.1 C 42.1 55.1 42.8 56.1 42.8 57.3 C 42.81 57.39 42.8 57.6 42.8 57.6 C 42.8 57.6 39.46 57.63 39.5 57.6 C 39.5 58.6 40.2 59.2 41 59.2 C 41.81 59.15 42.4 58.6 42.4 58.6 L 42.7 59.2 C 42.7 59.2 42.07 59.91 41 59.9 C 39.5 59.9 38.6 58.9 38.6 57.5 C 38.6 56.1 39.6 55.1 40.9 55.1 Z M 41.9 57 C 41.9 56.2 41.4 55.8 40.8 55.8 C 40.2 55.8 39.6 56.2 39.5 57 C 39.5 57 41.9 57 41.9 57 Z M 48 55.1 C 49.08 55.14 49.4 55.8 49.4 55.8 L 49.4 55.8 C 49.4 55.8 49.43 55.71 49.4 55.5 C 49.4 55.5 49.4 54.4 49.4 54.4 C 49.4 54.3 49.4 54.2 49.2 54.2 C 49.23 54.19 48.9 54.2 48.9 54.2 L 48.9 53.4 C 48.9 53.4 49.72 53.45 49.7 53.4 C 50.1 53.4 50.3 53.6 50.3 54 C 50.3 54 50.3 58.9 50.3 58.9 C 50.3 59 50.4 59.1 50.5 59.1 C 50.5 59.06 50.9 59.1 50.9 59.1 L 50.9 59.8 C 50.9 59.8 50.03 59.8 50 59.8 C 49.6 59.8 49.5 59.6 49.5 59.3 C 49.5 59.2 49.5 59.1 49.5 59.1 C 49.48 59.08 49.5 59.1 49.5 59.1 C 49.5 59.1 49.09 59.91 48 59.9 C 46.7 59.9 46 58.9 46 57.5 C 46 56.1 46.8 55.1 48 55.1 Z M 49.5 57.5 C 49.5 56.7 49 55.9 48.2 55.9 C 47.4 55.9 46.9 56.5 46.9 57.5 C 46.9 58.5 47.4 59.2 48.1 59.2 C 48.8 59.2 49.5 58.7 49.5 57.5 Z M 53.8 55.1 C 55.2 55.1 56.3 56.1 56.3 57.5 C 56.3 58.9 55.2 59.9 53.8 59.9 C 52.5 59.9 51.4 58.9 51.4 57.5 C 51.4 56.1 52.5 55.1 53.8 55.1 Z M 53.8 59.2 C 54.7 59.2 55.4 58.5 55.4 57.5 C 55.4 56.6 54.7 55.9 53.8 55.9 C 53 55.9 52.3 56.6 52.3 57.5 C 52.3 58.5 53 59.2 53.8 59.2 Z M 59.8 55.9 L 59.3 55.9 L 59.3 55.2 L 59.9 55.2 L 59.9 54 L 60.7 54 L 60.7 55.2 L 61.8 55.2 L 61.8 55.9 L 60.7 55.9 C 60.7 55.9 60.72 58.04 60.7 58 C 60.7 58.9 61.4 59.1 61.7 59.1 C 61.81 59.06 61.9 59 61.9 59 L 61.9 59.8 C 61.9 59.8 61.77 59.84 61.6 59.8 C 61 59.8 59.8 59.7 59.8 58.1 C 59.85 58.14 59.8 55.9 59.8 55.9 Z M 62.9 54.4 C 62.9 54.3 62.8 54.2 62.7 54.2 C 62.68 54.19 62.3 54.2 62.3 54.2 L 62.3 53.4 C 62.3 53.4 63.18 53.45 63.2 53.4 C 63.6 53.4 63.8 53.6 63.8 54 C 63.75 53.97 63.8 56.9 63.8 56.9 C 63.8 56.9 64.16 56.92 64.2 56.9 C 64.3 56.9 64.5 56.9 64.6 56.7 C 64.64 56.72 65.7 55.2 65.7 55.2 L 66.7 55.2 C 66.7 55.2 65.46 56.94 65.5 56.9 C 65.25 57.22 65.1 57.3 65.1 57.3 L 65.1 57.3 C 65.1 57.3 65.27 57.35 65.4 57.6 C 65.4 57.6 66.1 58.9 66.1 58.9 C 66.2 59 66.3 59.1 66.5 59.1 C 66.48 59.06 66.8 59.1 66.8 59.1 L 66.8 59.8 C 66.8 59.8 66.13 59.8 66.1 59.8 C 65.7 59.8 65.6 59.7 65.4 59.4 C 65.4 59.4 64.5 57.8 64.5 57.8 C 64.4 57.7 64.2 57.7 64.1 57.7 C 64.1 57.66 63.8 57.7 63.8 57.7 L 63.8 59.8 L 62.9 59.8 C 62.9 59.8 62.88 54.39 62.9 54.4 Z M 69.9 57 C 69.91 56.97 70.1 57 70.1 57 C 70.1 57 70.11 56.92 70.1 56.9 C 70.1 56.1 69.8 55.8 69.1 55.8 C 68.9 55.8 68.4 55.9 68.4 56.2 C 68.35 56.18 68.4 56.4 68.4 56.4 L 67.5 56.4 C 67.5 56.4 67.54 55.99 67.5 56 C 67.5 55.2 68.7 55.1 69.1 55.1 C 70.6 55.1 71 55.9 71 56.9 C 71 56.9 71 58.9 71 58.9 C 71 59 71.1 59.1 71.2 59.1 C 71.18 59.06 71.5 59.1 71.5 59.1 L 71.5 59.8 C 71.5 59.8 70.73 59.8 70.7 59.8 C 70.3 59.8 70.2 59.6 70.2 59.3 C 70.2 59.1 70.2 59 70.2 59 C 70.18 59.01 70.2 59 70.2 59 C 70.2 59 69.8 59.91 68.7 59.9 C 67.9 59.9 67.2 59.4 67.2 58.5 C 67.2 57.1 69.1 57 69.9 57 Z M 68.9 59.2 C 69.6 59.2 70.1 58.4 70.1 57.8 C 70.12 57.76 70.1 57.6 70.1 57.6 C 70.1 57.6 69.89 57.61 69.9 57.6 C 69.2 57.6 68 57.6 68 58.5 C 68 58.8 68.3 59.2 68.9 59.2 Z M 72.5 56.2 C 72.5 56.1 72.4 56 72.3 56 C 72.3 55.99 71.9 56 71.9 56 L 71.9 55.2 C 71.9 55.2 72.76 55.25 72.8 55.2 C 73.2 55.2 73.3 55.4 73.3 55.8 C 73.3 55.8 73.3 55.9 73.3 55.9 C 73.34 56.07 73.3 56.2 73.3 56.2 C 73.3 56.2 73.34 56.18 73.3 56.2 C 73.5 55.8 74.1 55.1 75.1 55.1 C 76.1 55.1 76.6 55.7 76.6 56.9 C 76.6 56.9 76.6 58.9 76.6 58.9 C 76.6 59 76.7 59.1 76.8 59.1 C 76.81 59.06 77.2 59.1 77.2 59.1 L 77.2 59.8 C 77.2 59.8 76.32 59.8 76.3 59.8 C 75.9 59.8 75.7 59.6 75.7 59.2 C 75.7 59.2 75.7 57.1 75.7 57.1 C 75.7 56.4 75.6 55.9 74.9 55.9 C 74.2 55.9 73.6 56.4 73.4 57.1 C 73.4 57.2 73.4 57.4 73.4 57.7 C 73.37 57.67 73.4 59.8 73.4 59.8 L 72.5 59.8 C 72.5 59.8 72.49 56.19 72.5 56.2 Z M 78.2 53.4 L 79 53.4 L 79 54.4 L 78.2 54.4 L 78.2 53.4 Z M 78.2 56.2 C 78.2 56.1 78.1 56 78 56 C 77.98 55.99 77.6 56 77.6 56 L 77.6 55.2 C 77.6 55.2 78.46 55.25 78.5 55.2 C 78.9 55.2 79 55.4 79 55.8 C 79 55.8 79 58.9 79 58.9 C 79 59 79.1 59.1 79.2 59.1 C 79.23 59.06 79.6 59.1 79.6 59.1 L 79.6 59.8 C 79.6 59.8 78.75 59.8 78.7 59.8 C 78.3 59.8 78.2 59.6 78.2 59.2 C 78.2 59.2 78.2 56.2 78.2 56.2 Z M 80.3 56.2 C 80.2 56 80.1 56 80 56 C 80 55.99 79.9 56 79.9 56 L 79.9 55.2 C 79.9 55.2 80.36 55.25 80.4 55.2 C 80.8 55.2 80.9 55.3 81.1 55.7 C 81.1 55.7 82 58.3 82 58.3 C 82.12 58.58 82.2 58.9 82.2 58.9 L 82.2 58.9 C 82.2 58.9 82.29 58.58 82.4 58.3 C 82.4 58.3 83.3 55.7 83.3 55.7 C 83.5 55.3 83.6 55.2 84 55.2 C 84.04 55.25 84.5 55.2 84.5 55.2 L 84.5 56 C 84.5 56 84.37 55.99 84.4 56 C 84.2 56 84.1 56 84.1 56.2 C 84.08 56.17 82.7 59.8 82.7 59.8 L 81.7 59.8 C 81.7 59.8 80.28 56.17 80.3 56.2 Z M 87.6 57 C 87.61 56.97 87.8 57 87.8 57 C 87.8 57 87.81 56.92 87.8 56.9 C 87.8 56.1 87.5 55.8 86.8 55.8 C 86.6 55.8 86.1 55.9 86.1 56.2 C 86.06 56.18 86.1 56.4 86.1 56.4 L 85.2 56.4 C 85.2 56.4 85.24 55.99 85.2 56 C 85.2 55.2 86.4 55.1 86.8 55.1 C 88.3 55.1 88.7 55.9 88.7 56.9 C 88.7 56.9 88.7 58.9 88.7 58.9 C 88.7 59 88.8 59.1 88.9 59.1 C 88.88 59.06 89.3 59.1 89.3 59.1 L 89.3 59.8 C 89.3 59.8 88.43 59.8 88.4 59.8 C 88 59.8 87.9 59.6 87.9 59.3 C 87.9 59.1 87.9 59 87.9 59 C 87.88 59.01 87.9 59 87.9 59 C 87.9 59 87.51 59.91 86.4 59.9 C 85.6 59.9 84.9 59.4 84.9 58.5 C 84.9 57.1 86.8 57 87.6 57 Z M 86.6 59.2 C 87.3 59.2 87.8 58.4 87.8 57.8 C 87.82 57.76 87.8 57.6 87.8 57.6 C 87.8 57.6 87.6 57.61 87.6 57.6 C 86.9 57.6 85.8 57.6 85.8 58.5 C 85.8 58.8 86 59.2 86.6 59.2 Z " stroke="none" fill="#323232"/>  </g>  <g id="Polygon70090">    <path d="M 10.4 43.4 L 9.8 43.4 L 9.8 42.6 C 9.8 42.6 12.64 42.65 12.6 42.6 C 13.8 42.6 14.6 43.4 14.6 44.6 C 14.6 45.8 13.8 46.7 12.6 46.7 C 12.64 46.65 11.3 46.7 11.3 46.7 L 11.3 49 L 10.4 49 L 10.4 43.4 Z M 12.5 45.9 C 13.2 45.9 13.7 45.4 13.7 44.6 C 13.7 43.9 13.2 43.4 12.5 43.4 C 12.51 43.42 11.3 43.4 11.3 43.4 L 11.3 45.9 C 11.3 45.9 12.5 45.88 12.5 45.9 Z M 17.4 44.3 C 18.8 44.3 19.9 45.3 19.9 46.7 C 19.9 48.1 18.8 49.1 17.4 49.1 C 16.1 49.1 15 48.1 15 46.7 C 15 45.3 16.1 44.3 17.4 44.3 Z M 17.4 48.4 C 18.3 48.4 19 47.7 19 46.7 C 19 45.8 18.3 45.1 17.4 45.1 C 16.6 45.1 15.9 45.8 15.9 46.7 C 15.9 47.7 16.6 48.4 17.4 48.4 Z M 22.6 44.3 C 23.65 44.34 24 45 24 45 L 24 45 C 24 45 24 44.91 24 44.7 C 24 44.7 24 43.6 24 43.6 C 24 43.5 23.9 43.4 23.8 43.4 C 23.81 43.39 23.4 43.4 23.4 43.4 L 23.4 42.6 C 23.4 42.6 24.3 42.65 24.3 42.6 C 24.7 42.6 24.9 42.8 24.9 43.2 C 24.9 43.2 24.9 48.1 24.9 48.1 C 24.9 48.2 24.9 48.3 25.1 48.3 C 25.07 48.26 25.4 48.3 25.4 48.3 L 25.4 49 C 25.4 49 24.61 49 24.6 49 C 24.2 49 24 48.8 24 48.5 C 24 48.4 24.1 48.3 24.1 48.3 C 24.06 48.28 24 48.3 24 48.3 C 24 48.3 23.66 49.11 22.5 49.1 C 21.3 49.1 20.5 48.1 20.5 46.7 C 20.5 45.3 21.4 44.3 22.6 44.3 Z M 24 46.7 C 24 45.9 23.6 45.1 22.7 45.1 C 22 45.1 21.4 45.7 21.4 46.7 C 21.4 47.7 22 48.4 22.7 48.4 C 23.4 48.4 24 47.9 24 46.7 Z M 26.5 42.6 L 27.3 42.6 L 27.3 43.6 L 26.5 43.6 L 26.5 42.6 Z M 26.5 45.4 C 26.5 45.3 26.4 45.2 26.3 45.2 C 26.26 45.19 25.9 45.2 25.9 45.2 L 25.9 44.4 C 25.9 44.4 26.75 44.45 26.7 44.4 C 27.2 44.4 27.3 44.6 27.3 45 C 27.3 45 27.3 48.1 27.3 48.1 C 27.3 48.2 27.4 48.3 27.5 48.3 C 27.52 48.26 27.9 48.3 27.9 48.3 L 27.9 49 C 27.9 49 27.04 49 27 49 C 26.6 49 26.5 48.8 26.5 48.4 C 26.5 48.4 26.5 45.4 26.5 45.4 Z M 30.7 44.3 C 32 44.3 32.7 45.3 32.7 46.5 C 32.7 46.59 32.7 46.8 32.7 46.8 C 32.7 46.8 29.35 46.83 29.3 46.8 C 29.4 47.8 30.1 48.4 30.9 48.4 C 31.7 48.35 32.2 47.8 32.2 47.8 L 32.6 48.4 C 32.6 48.4 31.95 49.11 30.9 49.1 C 29.4 49.1 28.4 48.1 28.4 46.7 C 28.4 45.3 29.4 44.3 30.7 44.3 Z M 31.8 46.2 C 31.8 45.4 31.3 45 30.7 45 C 30.1 45 29.5 45.4 29.4 46.2 C 29.4 46.2 31.8 46.2 31.8 46.2 Z M 33.8 43.6 C 33.8 43.5 33.8 43.4 33.6 43.4 C 33.64 43.39 33.3 43.4 33.3 43.4 L 33.3 42.6 C 33.3 42.6 34.14 42.65 34.1 42.6 C 34.5 42.6 34.7 42.8 34.7 43.2 C 34.7 43.2 34.7 48.1 34.7 48.1 C 34.7 48.2 34.8 48.3 34.9 48.3 C 34.91 48.26 35.3 48.3 35.3 48.3 L 35.3 49 C 35.3 49 34.42 49 34.4 49 C 34 49 33.8 48.8 33.8 48.4 C 33.8 48.4 33.8 43.6 33.8 43.6 Z M 38.7 43.6 C 38.7 43.5 38.6 43.4 38.5 43.4 C 38.48 43.39 38.1 43.4 38.1 43.4 L 38.1 42.6 C 38.1 42.6 38.97 42.65 39 42.6 C 39.4 42.6 39.5 42.8 39.5 43.2 C 39.5 43.2 39.5 48.1 39.5 48.1 C 39.5 48.2 39.6 48.3 39.7 48.3 C 39.74 48.26 40.1 48.3 40.1 48.3 L 40.1 49 C 40.1 49 39.25 49 39.2 49 C 38.8 49 38.7 48.8 38.7 48.4 C 38.7 48.4 38.7 43.6 38.7 43.6 Z M 41.2 42.6 L 41.9 42.6 L 41.9 43.6 L 41.2 43.6 L 41.2 42.6 Z M 41.1 45.4 C 41.1 45.3 41.1 45.2 41 45.2 C 40.95 45.19 40.6 45.2 40.6 45.2 L 40.6 44.4 C 40.6 44.4 41.44 44.45 41.4 44.4 C 41.8 44.4 42 44.6 42 45 C 42 45 42 48.1 42 48.1 C 42 48.2 42.1 48.3 42.2 48.3 C 42.21 48.26 42.6 48.3 42.6 48.3 L 42.6 49 C 42.6 49 41.72 49 41.7 49 C 41.3 49 41.1 48.8 41.1 48.4 C 41.1 48.4 41.1 45.4 41.1 45.4 Z M 45.4 44.3 C 46.7 44.3 47.4 45.3 47.4 46.5 C 47.38 46.59 47.4 46.8 47.4 46.8 C 47.4 46.8 44.04 46.83 44 46.8 C 44.1 47.8 44.8 48.4 45.6 48.4 C 46.39 48.35 46.9 47.8 46.9 47.8 L 47.3 48.4 C 47.3 48.4 46.64 49.11 45.6 49.1 C 44.1 49.1 43.1 48.1 43.1 46.7 C 43.1 45.3 44.1 44.3 45.4 44.3 Z M 46.5 46.2 C 46.5 45.4 46 45 45.4 45 C 44.7 45 44.2 45.4 44.1 46.2 C 44.1 46.2 46.5 46.2 46.5 46.2 Z M 48.5 43.6 C 48.5 43.5 48.4 43.4 48.3 43.4 C 48.31 43.39 47.9 43.4 47.9 43.4 L 47.9 42.6 C 47.9 42.6 48.81 42.65 48.8 42.6 C 49.2 42.6 49.4 42.8 49.4 43.2 C 49.38 43.17 49.4 46.1 49.4 46.1 C 49.4 46.1 49.79 46.12 49.8 46.1 C 49.9 46.1 50.1 46.1 50.3 45.9 C 50.26 45.92 51.3 44.4 51.3 44.4 L 52.3 44.4 C 52.3 44.4 51.08 46.14 51.1 46.1 C 50.88 46.42 50.7 46.5 50.7 46.5 L 50.7 46.5 C 50.7 46.5 50.89 46.55 51 46.8 C 51 46.8 51.7 48.1 51.7 48.1 C 51.8 48.2 51.9 48.3 52.1 48.3 C 52.11 48.26 52.4 48.3 52.4 48.3 L 52.4 49 C 52.4 49 51.76 49 51.8 49 C 51.3 49 51.2 48.9 51 48.6 C 51 48.6 50.2 47 50.2 47 C 50.1 46.9 49.9 46.9 49.7 46.9 C 49.72 46.86 49.4 46.9 49.4 46.9 L 49.4 49 L 48.5 49 C 48.5 49 48.51 43.59 48.5 43.6 Z M 53.3 45.4 C 53.3 45.3 53.2 45.2 53.1 45.2 C 53.05 45.19 52.7 45.2 52.7 45.2 L 52.7 44.4 C 52.7 44.4 53.54 44.45 53.5 44.4 C 54 44.4 54.1 44.6 54.1 45 C 54.1 45 54.1 47.2 54.1 47.2 C 54.1 47.8 54.3 48.3 55 48.3 C 55.9 48.3 56.5 47.5 56.5 46.6 C 56.46 46.58 56.5 44.4 56.5 44.4 L 57.3 44.4 C 57.3 44.4 57.33 48.06 57.3 48.1 C 57.3 48.2 57.4 48.3 57.5 48.3 C 57.53 48.26 57.9 48.3 57.9 48.3 L 57.9 49 C 57.9 49 57.06 49 57.1 49 C 56.7 49 56.5 48.8 56.5 48.5 C 56.5 48.5 56.5 48.3 56.5 48.3 C 56.5 48.2 56.5 48.1 56.5 48.1 C 56.5 48.1 56.5 48.1 56.5 48.1 C 56.3 48.5 55.7 49.1 54.8 49.1 C 53.8 49.1 53.3 48.6 53.3 47.4 C 53.3 47.4 53.3 45.4 53.3 45.4 Z M 59.7 48.1 L 59 49.9 L 58.3 49.9 L 58.9 48.1 L 59.7 48.1 Z M 63.4 43.6 C 63.4 43.5 63.3 43.4 63.2 43.4 C 63.21 43.39 62.8 43.4 62.8 43.4 L 62.8 42.6 C 62.8 42.6 63.7 42.65 63.7 42.6 C 64.1 42.6 64.3 42.8 64.3 43.2 C 64.28 43.17 64.3 46.1 64.3 46.1 C 64.3 46.1 64.68 46.12 64.7 46.1 C 64.8 46.1 65 46.1 65.2 45.9 C 65.16 45.92 66.2 44.4 66.2 44.4 L 67.2 44.4 C 67.2 44.4 65.98 46.14 66 46.1 C 65.77 46.42 65.6 46.5 65.6 46.5 L 65.6 46.5 C 65.6 46.5 65.79 46.55 65.9 46.8 C 65.9 46.8 66.6 48.1 66.6 48.1 C 66.7 48.2 66.8 48.3 67 48.3 C 67 48.26 67.3 48.3 67.3 48.3 L 67.3 49 C 67.3 49 66.65 49 66.7 49 C 66.2 49 66.1 48.9 65.9 48.6 C 65.9 48.6 65.1 47 65.1 47 C 65 46.9 64.8 46.9 64.6 46.9 C 64.62 46.86 64.3 46.9 64.3 46.9 L 64.3 49 L 63.4 49 C 63.4 49 63.4 43.59 63.4 43.6 Z M 68.2 45.1 L 67.6 45.1 L 67.6 44.4 L 68.2 44.4 L 68.2 43.2 L 69.1 43.2 L 69.1 44.4 L 70.2 44.4 L 70.2 45.1 L 69.1 45.1 C 69.1 45.1 69.07 47.24 69.1 47.2 C 69.1 48.1 69.7 48.3 70 48.3 C 70.16 48.26 70.2 48.2 70.2 48.2 L 70.2 49 C 70.2 49 70.13 49.04 69.9 49 C 69.4 49 68.2 48.9 68.2 47.3 C 68.2 47.34 68.2 45.1 68.2 45.1 Z M 73.3 44.3 C 74.6 44.3 75.7 45.3 75.7 46.7 C 75.7 48.1 74.6 49.1 73.3 49.1 C 71.9 49.1 70.8 48.1 70.8 46.7 C 70.8 45.3 71.9 44.3 73.3 44.3 Z M 73.3 48.4 C 74.1 48.4 74.8 47.7 74.8 46.7 C 74.8 45.8 74.1 45.1 73.3 45.1 C 72.4 45.1 71.7 45.8 71.7 46.7 C 71.7 47.7 72.4 48.4 73.3 48.4 Z M 76.8 45.4 C 76.8 45.3 76.7 45.2 76.6 45.2 C 76.61 45.19 76.2 45.2 76.2 45.2 L 76.2 44.4 C 76.2 44.4 77.07 44.45 77.1 44.4 C 77.5 44.4 77.7 44.6 77.7 45 C 77.7 45 77.7 45.3 77.7 45.3 C 77.65 45.45 77.6 45.6 77.6 45.6 C 77.6 45.6 77.65 45.58 77.7 45.6 C 77.9 44.9 78.4 44.4 79.1 44.4 C 79.21 44.39 79.3 44.4 79.3 44.4 L 79.3 45.3 C 79.3 45.3 79.21 45.25 79.1 45.2 C 78.5 45.2 78 45.6 77.8 46.3 C 77.7 46.6 77.7 46.9 77.7 47.1 C 77.68 47.14 77.7 49 77.7 49 L 76.8 49 C 76.8 49 76.81 45.39 76.8 45.4 Z M 80.7 50.1 C 81.1 50.1 81.3 49.9 81.5 49.5 C 81.51 49.48 81.7 49 81.7 49 C 81.7 49 80.16 45.37 80.2 45.4 C 80.1 45.2 80 45.2 79.9 45.2 C 79.87 45.19 79.8 45.2 79.8 45.2 L 79.8 44.4 C 79.8 44.4 80.28 44.45 80.3 44.4 C 80.6 44.4 80.8 44.5 80.9 44.9 C 80.9 44.9 82 47.5 82 47.5 C 82.05 47.71 82.1 48 82.1 48 L 82.1 48 C 82.1 48 82.2 47.71 82.3 47.5 C 82.3 47.5 83.2 44.9 83.2 44.9 C 83.4 44.5 83.5 44.4 83.9 44.4 C 83.91 44.45 84.4 44.4 84.4 44.4 L 84.4 45.2 C 84.4 45.2 84.31 45.19 84.3 45.2 C 84.2 45.2 84.1 45.2 84 45.4 C 84 45.4 82.2 49.8 82.2 49.8 C 81.9 50.5 81.4 50.9 80.8 50.9 C 80.08 50.89 79.7 50.4 79.7 50.4 C 79.7 50.4 80.05 49.81 80 49.8 C 80 49.8 80.3 50.1 80.7 50.1 Z M 82.4 42.6 L 83.3 42.6 L 82.4 43.8 L 81.7 43.8 L 82.4 42.6 Z M 87.7 47.7 C 87.7 47.7 88.21 48.4 89 48.4 C 89.5 48.4 89.8 48.2 89.8 47.8 C 89.8 47 87.4 47.1 87.4 45.6 C 87.4 44.7 88.1 44.3 89 44.3 C 89.6 44.3 90.5 44.5 90.5 45.2 C 90.54 45.22 90.5 45.7 90.5 45.7 L 89.8 45.7 C 89.8 45.7 89.76 45.43 89.8 45.4 C 89.8 45.2 89.4 45 89.1 45 C 88.6 45 88.2 45.2 88.2 45.6 C 88.2 46.4 90.7 46.3 90.7 47.8 C 90.7 48.6 90 49.1 89 49.1 C 87.82 49.11 87.2 48.3 87.2 48.3 L 87.7 47.7 Z M 94.1 46.2 C 94.14 46.17 94.3 46.2 94.3 46.2 C 94.3 46.2 94.34 46.12 94.3 46.1 C 94.3 45.3 94 45 93.3 45 C 93.1 45 92.6 45.1 92.6 45.4 C 92.58 45.38 92.6 45.6 92.6 45.6 L 91.8 45.6 C 91.8 45.6 91.76 45.19 91.8 45.2 C 91.8 44.4 92.9 44.3 93.3 44.3 C 94.8 44.3 95.2 45.1 95.2 46.1 C 95.2 46.1 95.2 48.1 95.2 48.1 C 95.2 48.2 95.3 48.3 95.4 48.3 C 95.41 48.26 95.8 48.3 95.8 48.3 L 95.8 49 C 95.8 49 94.96 49 95 49 C 94.6 49 94.4 48.8 94.4 48.5 C 94.4 48.3 94.4 48.2 94.4 48.2 C 94.41 48.21 94.4 48.2 94.4 48.2 C 94.4 48.2 94.03 49.11 92.9 49.1 C 92.2 49.1 91.4 48.6 91.4 47.7 C 91.4 46.3 93.4 46.2 94.1 46.2 Z M 93.1 48.4 C 93.9 48.4 94.3 47.6 94.3 47 C 94.35 46.96 94.3 46.8 94.3 46.8 C 94.3 46.8 94.12 46.81 94.1 46.8 C 93.5 46.8 92.3 46.8 92.3 47.7 C 92.3 48 92.6 48.4 93.1 48.4 Z " stroke="none" fill="#323232"/>  </g>  <g id="Polygon70089">    <path d="M 12.1 30.1 C 13.14 30.1 13.5 30.5 13.5 30.5 L 13.5 30.5 C 13.5 30.5 13.46 30.36 13.5 30.2 C 13.5 30.2 13.5 29.9 13.5 29.9 C 13.5 29.7 13.4 29.7 13.2 29.7 C 13.24 29.67 12.9 29.7 12.9 29.7 L 12.9 28.2 C 12.9 28.2 14.46 28.22 14.5 28.2 C 15 28.2 15.2 28.4 15.2 28.9 C 15.2 28.9 15.2 33.7 15.2 33.7 C 15.2 33.8 15.3 33.9 15.4 33.9 C 15.41 33.92 15.8 33.9 15.8 33.9 L 15.8 35.4 C 15.8 35.4 14.25 35.37 14.3 35.4 C 13.8 35.4 13.6 35.1 13.6 34.9 C 13.58 34.84 13.6 34.8 13.6 34.8 L 13.6 34.8 C 13.6 34.8 13.13 35.49 12.1 35.5 C 10.7 35.5 9.8 34.4 9.8 32.8 C 9.8 31.2 10.7 30.1 12.1 30.1 Z M 13.5 32.8 C 13.5 32.2 13.2 31.6 12.5 31.6 C 12 31.6 11.5 32 11.5 32.8 C 11.5 33.6 11.9 34.1 12.5 34.1 C 13 34.1 13.5 33.7 13.5 32.8 Z M 19.1 30.1 C 20.8 30.1 22.1 31.2 22.1 32.8 C 22.1 34.4 20.8 35.5 19.2 35.5 C 17.5 35.5 16.2 34.4 16.2 32.8 C 16.2 31.2 17.5 30.1 19.1 30.1 Z M 19.2 34 C 19.8 34 20.3 33.6 20.3 32.8 C 20.3 32 19.8 31.5 19.2 31.5 C 18.5 31.5 18 32 18 32.8 C 18 33.6 18.5 34 19.2 34 Z M 23.3 33.4 C 23.3 33.4 24.01 34.18 24.8 34.2 C 25.1 34.2 25.2 34.1 25.2 33.9 C 25.2 33.5 22.6 33.4 22.6 31.7 C 22.6 30.6 23.6 30.1 24.7 30.1 C 25.6 30.1 26.7 30.3 26.7 31.3 C 26.73 31.27 26.7 31.9 26.7 31.9 L 25.2 31.9 C 25.2 31.9 25.23 31.63 25.2 31.6 C 25.2 31.5 25 31.4 24.8 31.4 C 24.5 31.4 24.3 31.5 24.3 31.6 C 24.3 32.2 26.9 32.1 26.9 33.8 C 26.9 34.9 26 35.5 24.8 35.5 C 23.32 35.49 22.5 34.5 22.5 34.5 L 23.3 33.4 Z M 28 31.6 L 27.4 31.6 L 27.4 30.2 L 28.1 30.2 L 28.1 28.8 L 29.7 28.8 L 29.7 30.2 L 30.8 30.2 L 30.8 31.6 L 29.7 31.6 C 29.7 31.6 29.74 33.24 29.7 33.2 C 29.7 33.8 30.3 33.9 30.7 33.9 C 30.8 33.9 30.9 33.9 30.9 33.9 L 30.9 35.4 C 30.9 35.4 30.7 35.42 30.4 35.4 C 29.6 35.4 28 35.2 28 33.5 C 28.01 33.47 28 31.6 28 31.6 Z M 32 31.9 C 32 31.7 31.9 31.7 31.7 31.7 C 31.74 31.67 31.4 31.7 31.4 31.7 L 31.4 30.2 C 31.4 30.2 32.96 30.22 33 30.2 C 33.5 30.2 33.7 30.4 33.7 30.9 C 33.7 30.9 33.7 33.2 33.7 33.2 C 33.7 33.7 33.9 33.9 34.2 33.9 C 35 33.9 35.3 33.3 35.3 32.5 C 35.33 32.5 35.3 30.2 35.3 30.2 L 37.1 30.2 C 37.1 30.2 37.06 33.7 37.1 33.7 C 37.1 33.8 37.1 33.9 37.3 33.9 C 37.28 33.92 37.7 33.9 37.7 33.9 L 37.7 35.4 C 37.7 35.4 36.13 35.37 36.1 35.4 C 35.7 35.4 35.4 35.1 35.4 34.8 C 35.4 34.8 35.4 34.7 35.4 34.7 C 35.4 34.7 35.4 34.6 35.4 34.6 C 35.4 34.6 35.4 34.6 35.4 34.6 C 35.1 35.1 34.5 35.5 33.8 35.5 C 32.8 35.5 32 35 32 33.6 C 32 33.6 32 31.9 32 31.9 Z M 38.6 31.9 C 38.6 31.7 38.6 31.7 38.4 31.7 C 38.42 31.67 38 31.7 38 31.7 L 38 30.2 C 38 30.2 39.53 30.22 39.5 30.2 C 40 30.2 40.2 30.4 40.2 30.7 C 40.2 30.73 40.2 30.8 40.2 30.8 L 40.2 30.8 C 40.2 30.8 40.67 30.1 41.8 30.1 C 43.2 30.1 44.1 31.2 44.1 32.8 C 44.1 34.4 43.1 35.5 41.7 35.5 C 40.84 35.49 40.4 35 40.4 35 L 40.4 35 C 40.4 35 40.37 35.23 40.4 35.5 C 40.37 35.49 40.4 37.4 40.4 37.4 L 38.6 37.4 C 38.6 37.4 38.64 31.89 38.6 31.9 Z M 40.3 32.8 C 40.3 33.4 40.7 34.1 41.3 34.1 C 41.9 34.1 42.3 33.6 42.3 32.8 C 42.3 32.1 41.9 31.6 41.3 31.6 C 40.8 31.6 40.3 31.9 40.3 32.8 C 40.3 32.8 40.3 32.8 40.3 32.8 Z M 45.1 31.9 C 45.1 31.7 45 31.7 44.9 31.7 C 44.9 31.67 44.5 31.7 44.5 31.7 L 44.5 30.2 C 44.5 30.2 46.06 30.22 46.1 30.2 C 46.5 30.2 46.8 30.4 46.8 30.8 C 46.8 30.8 46.8 30.9 46.8 30.9 C 46.8 30.9 46.8 31 46.8 31 C 46.8 31 46.8 31 46.8 31 C 47 30.6 47.5 30.1 48.4 30.1 C 49.5 30.1 50.3 30.6 50.3 32 C 50.3 32 50.3 33.7 50.3 33.7 C 50.3 33.8 50.4 33.9 50.5 33.9 C 50.49 33.92 50.9 33.9 50.9 33.9 L 50.9 35.4 C 50.9 35.4 49.27 35.37 49.3 35.4 C 48.8 35.4 48.5 35.1 48.5 34.6 C 48.5 34.6 48.5 32.3 48.5 32.3 C 48.5 31.9 48.4 31.7 48 31.7 C 47.4 31.7 47.1 32 47 32.4 C 46.9 32.6 46.9 32.8 46.9 33.1 C 46.85 33.09 46.9 35.4 46.9 35.4 L 45.1 35.4 C 45.1 35.4 45.12 31.89 45.1 31.9 Z M 54.2 30.1 C 55.8 30.1 57.1 31.2 57.1 32.8 C 57.1 34.4 55.8 35.5 54.2 35.5 C 52.6 35.5 51.3 34.4 51.3 32.8 C 51.3 31.2 52.6 30.1 54.2 30.1 Z M 54.2 34 C 54.8 34 55.4 33.6 55.4 32.8 C 55.4 32 54.8 31.5 54.2 31.5 C 53.6 31.5 53 32 53 32.8 C 53 33.6 53.6 34 54.2 34 Z M 58.3 33.4 C 58.3 33.4 59.06 34.18 59.9 34.2 C 60.1 34.2 60.2 34.1 60.2 33.9 C 60.2 33.5 57.7 33.4 57.7 31.7 C 57.7 30.6 58.7 30.1 59.8 30.1 C 60.6 30.1 61.8 30.3 61.8 31.3 C 61.78 31.27 61.8 31.9 61.8 31.9 L 60.3 31.9 C 60.3 31.9 60.28 31.63 60.3 31.6 C 60.3 31.5 60.1 31.4 59.8 31.4 C 59.6 31.4 59.4 31.5 59.4 31.6 C 59.4 32.2 62 32.1 62 33.8 C 62 34.9 61.1 35.5 59.9 35.5 C 58.37 35.49 57.6 34.5 57.6 34.5 L 58.3 33.4 Z M 63.1 31.6 L 62.5 31.6 L 62.5 30.2 L 63.2 30.2 L 63.2 28.8 L 64.8 28.8 L 64.8 30.2 L 65.9 30.2 L 65.9 31.6 L 64.8 31.6 C 64.8 31.6 64.84 33.24 64.8 33.2 C 64.8 33.8 65.4 33.9 65.8 33.9 C 65.9 33.9 66 33.9 66 33.9 L 66 35.4 C 66 35.4 65.8 35.42 65.5 35.4 C 64.7 35.4 63.1 35.2 63.1 33.5 C 63.11 33.47 63.1 31.6 63.1 31.6 Z M 66.5 28.2 C 66.6 28.4 66.6 28.6 66.6 28.7 C 66.6 29.1 66.5 29.4 66.3 29.7 C 66.3 29.7 65.2 29.7 65.2 29.7 C 65.4 29.4 65.4 29.1 65.4 28.8 C 65.4 28.7 65.4 28.5 65.3 28.2 C 65.3 28.2 66.5 28.2 66.5 28.2 Z " stroke="none" fill="#5f0f50"/>  </g>  <g id="Polygon70088">    <path d="M 10.4 19.7 L 9.8 19.7 L 9.8 18.2 C 9.8 18.2 13.25 18.22 13.3 18.2 C 14.6 18.2 15.6 19.2 15.6 20.7 C 15.6 22.1 14.6 23.2 13.3 23.2 C 13.25 23.16 12.2 23.2 12.2 23.2 L 12.2 25.4 L 10.4 25.4 L 10.4 19.7 Z M 12.9 21.7 C 13.5 21.7 13.8 21.2 13.8 20.7 C 13.8 20.1 13.5 19.7 12.9 19.7 C 12.92 19.72 12.2 19.7 12.2 19.7 L 12.2 21.7 C 12.2 21.7 12.89 21.66 12.9 21.7 Z M 18.5 20.1 C 20 20.1 20.9 21.2 20.9 22.6 C 20.86 22.76 20.8 23.1 20.8 23.1 C 20.8 23.1 17.57 23.11 17.6 23.1 C 17.7 23.8 18.2 24 18.8 24 C 19.51 24.05 20.1 23.5 20.1 23.5 L 20.8 24.7 C 20.8 24.7 20 25.49 18.6 25.5 C 16.8 25.5 15.8 24.2 15.8 22.8 C 15.8 21.3 16.8 20.1 18.5 20.1 Z M 19.1 22.1 C 19.1 21.7 18.8 21.4 18.5 21.4 C 18 21.4 17.7 21.7 17.6 22.1 C 17.6 22.1 19.1 22.1 19.1 22.1 Z M 22 21.9 C 22 21.7 21.9 21.7 21.8 21.7 C 21.76 21.67 21.4 21.7 21.4 21.7 L 21.4 20.2 C 21.4 20.2 22.91 20.22 22.9 20.2 C 23.4 20.2 23.6 20.4 23.6 20.9 C 23.6 20.9 23.6 21.1 23.6 21.1 C 23.6 21.3 23.6 21.4 23.6 21.4 C 23.6 21.4 23.6 21.4 23.6 21.4 C 23.9 20.7 24.5 20.1 25.3 20.1 C 25.38 20.13 25.5 20.1 25.5 20.1 L 25.5 21.8 C 25.5 21.8 25.34 21.82 25.1 21.8 C 24.7 21.8 24.1 21.9 23.8 22.7 C 23.7 22.9 23.7 23.1 23.7 23.4 C 23.71 23.42 23.7 25.4 23.7 25.4 L 22 25.4 C 22 25.4 21.98 21.89 22 21.9 Z M 28.7 20.1 C 30.3 20.1 31.6 21.2 31.6 22.8 C 31.6 24.4 30.3 25.5 28.7 25.5 C 27.1 25.5 25.8 24.4 25.8 22.8 C 25.8 21.2 27.1 20.1 28.7 20.1 Z M 28.7 24 C 29.3 24 29.9 23.6 29.9 22.8 C 29.9 22 29.3 21.5 28.7 21.5 C 28.1 21.5 27.5 22 27.5 22.8 C 27.5 23.6 28.1 24 28.7 24 Z M 32.6 21.9 C 32.6 21.7 32.6 21.7 32.4 21.7 C 32.41 21.67 32 21.7 32 21.7 L 32 20.2 C 32 20.2 33.56 20.22 33.6 20.2 C 34 20.2 34.3 20.4 34.3 20.9 C 34.3 20.9 34.3 21.1 34.3 21.1 C 34.3 21.3 34.3 21.4 34.3 21.4 C 34.3 21.4 34.3 21.4 34.3 21.4 C 34.5 20.7 35.2 20.1 35.9 20.1 C 36.03 20.13 36.1 20.1 36.1 20.1 L 36.1 21.8 C 36.1 21.8 35.99 21.82 35.8 21.8 C 35.4 21.8 34.7 21.9 34.5 22.7 C 34.4 22.9 34.4 23.1 34.4 23.4 C 34.36 23.42 34.4 25.4 34.4 25.4 L 32.6 25.4 C 32.6 25.4 32.63 21.89 32.6 21.9 Z M 39.4 22.1 C 39.35 22.13 39.4 22.1 39.4 22.1 C 39.4 22.1 39.42 22.07 39.4 22.1 C 39.4 21.6 39.2 21.4 38.8 21.4 C 38.5 21.4 38.3 21.4 38.3 21.6 C 38.31 21.65 38.3 21.9 38.3 21.9 L 36.7 21.9 C 36.7 21.9 36.71 21.31 36.7 21.3 C 36.7 20.2 38.2 20.1 38.8 20.1 C 40.6 20.1 41.2 21 41.2 22.2 C 41.2 22.2 41.2 23.7 41.2 23.7 C 41.2 23.8 41.2 23.9 41.4 23.9 C 41.37 23.92 41.8 23.9 41.8 23.9 L 41.8 25.4 C 41.8 25.4 40.25 25.37 40.3 25.4 C 39.8 25.4 39.6 25.1 39.6 24.8 C 39.57 24.79 39.6 24.7 39.6 24.7 L 39.6 24.7 C 39.6 24.7 39.19 25.49 38.1 25.5 C 37.2 25.5 36.4 24.8 36.4 23.8 C 36.4 22.3 38.6 22.1 39.4 22.1 Z M 38.6 24.2 C 39 24.2 39.4 23.7 39.4 23.3 C 39.44 23.26 39.4 23.2 39.4 23.2 C 39.4 23.2 39.28 23.18 39.3 23.2 C 38.7 23.2 38.1 23.3 38.1 23.7 C 38.1 24 38.3 24.2 38.6 24.2 Z M 39.1 18.2 L 40.6 18.2 L 39.5 19.7 L 38.3 19.7 L 39.1 18.2 Z M 42.7 19.9 C 42.7 19.7 42.6 19.7 42.5 19.7 C 42.45 19.67 42.1 19.7 42.1 19.7 L 42.1 18.2 C 42.1 18.2 43.67 18.22 43.7 18.2 C 44.2 18.2 44.4 18.4 44.4 18.9 C 44.4 18.9 44.4 23.7 44.4 23.7 C 44.4 23.8 44.5 23.9 44.6 23.9 C 44.62 23.92 45 23.9 45 23.9 L 45 25.4 C 45 25.4 43.4 25.37 43.4 25.4 C 42.9 25.4 42.7 25.1 42.7 24.6 C 42.7 24.6 42.7 19.9 42.7 19.9 Z M 46 21.9 C 46 21.7 45.9 21.7 45.8 21.7 C 45.77 21.67 45.4 21.7 45.4 21.7 L 45.4 20.2 C 45.4 20.2 46.93 20.22 46.9 20.2 C 47.4 20.2 47.7 20.4 47.7 20.8 C 47.7 20.8 47.7 20.9 47.7 20.9 C 47.7 20.9 47.6 21 47.6 21 C 47.6 21 47.7 21 47.7 21 C 47.9 20.6 48.4 20.1 49.3 20.1 C 50.3 20.1 51.1 20.6 51.1 22 C 51.1 22 51.1 23.7 51.1 23.7 C 51.1 23.8 51.2 23.9 51.4 23.9 C 51.36 23.92 51.7 23.9 51.7 23.9 L 51.7 25.4 C 51.7 25.4 50.14 25.37 50.1 25.4 C 49.6 25.4 49.4 25.1 49.4 24.6 C 49.4 24.6 49.4 22.3 49.4 22.3 C 49.4 21.9 49.2 21.7 48.8 21.7 C 48.3 21.7 48 22 47.8 22.4 C 47.8 22.6 47.7 22.8 47.7 23.1 C 47.72 23.09 47.7 25.4 47.7 25.4 L 46 25.4 C 46 25.4 45.99 21.89 46 21.9 Z M 55.2 22.1 C 55.18 22.13 55.3 22.1 55.3 22.1 C 55.3 22.1 55.25 22.07 55.3 22.1 C 55.3 21.6 55 21.4 54.6 21.4 C 54.4 21.4 54.1 21.4 54.1 21.6 C 54.14 21.65 54.1 21.9 54.1 21.9 L 52.5 21.9 C 52.5 21.9 52.54 21.31 52.5 21.3 C 52.5 20.2 54 20.1 54.6 20.1 C 56.4 20.1 57 21 57 22.2 C 57 22.2 57 23.7 57 23.7 C 57 23.8 57.1 23.9 57.2 23.9 C 57.2 23.92 57.6 23.9 57.6 23.9 L 57.6 25.4 C 57.6 25.4 56.08 25.37 56.1 25.4 C 55.6 25.4 55.4 25.1 55.4 24.8 C 55.4 24.79 55.4 24.7 55.4 24.7 L 55.4 24.7 C 55.4 24.7 55.02 25.49 53.9 25.5 C 53 25.5 52.2 24.8 52.2 23.8 C 52.2 22.3 54.4 22.1 55.2 22.1 Z M 54.4 24.2 C 54.9 24.2 55.3 23.7 55.3 23.3 C 55.27 23.26 55.3 23.2 55.3 23.2 C 55.3 23.2 55.11 23.18 55.1 23.2 C 54.6 23.2 53.9 23.3 53.9 23.7 C 53.9 24 54.1 24.2 54.4 24.2 Z M 61.1 19.9 C 61.1 19.7 61 19.7 60.9 19.7 C 60.88 19.67 60.5 19.7 60.5 19.7 L 60.5 18.2 C 60.5 18.2 62.1 18.22 62.1 18.2 C 62.6 18.2 62.8 18.4 62.8 18.9 C 62.8 18.9 62.8 20.2 62.8 20.2 C 62.83 20.42 62.8 20.6 62.8 20.6 L 62.8 20.6 C 62.8 20.6 63.31 20.1 64.2 20.1 C 65.6 20.1 66.5 21.2 66.5 22.8 C 66.5 24.4 65.5 25.5 64.1 25.5 C 63.19 25.49 62.7 25 62.7 25 L 62.7 25 C 62.7 25 62.72 25.09 62.7 25.2 C 62.72 25.25 62.7 25.4 62.7 25.4 L 61.1 25.4 C 61.1 25.4 61.1 19.89 61.1 19.9 Z M 63.8 24.1 C 64.3 24.1 64.8 23.6 64.8 22.8 C 64.8 22.1 64.4 21.6 63.8 21.6 C 63.3 21.6 62.8 21.9 62.8 22.8 C 62.8 23.4 63.1 24.1 63.8 24.1 Z M 67.7 18.2 L 69.2 18.2 L 69.2 19.6 L 67.7 19.6 L 67.7 18.2 Z M 67.6 21.9 C 67.6 21.7 67.5 21.7 67.4 21.7 C 67.39 21.67 67 21.7 67 21.7 L 67 20.2 C 67 20.2 68.61 20.22 68.6 20.2 C 69.1 20.2 69.3 20.4 69.3 20.9 C 69.3 20.9 69.3 23.7 69.3 23.7 C 69.3 23.8 69.4 23.9 69.6 23.9 C 69.56 23.92 69.9 23.9 69.9 23.9 L 69.9 25.4 C 69.9 25.4 68.34 25.37 68.3 25.4 C 67.8 25.4 67.6 25.1 67.6 24.6 C 67.6 24.6 67.6 21.9 67.6 21.9 Z M 73.3 20.1 C 74.9 20.1 76.2 21.2 76.2 22.8 C 76.2 24.4 74.9 25.5 73.3 25.5 C 71.7 25.5 70.4 24.4 70.4 22.8 C 70.4 21.2 71.7 20.1 73.3 20.1 Z M 73.3 24 C 74 24 74.5 23.6 74.5 22.8 C 74.5 22 74 21.5 73.3 21.5 C 72.7 21.5 72.2 22 72.2 22.8 C 72.2 23.6 72.7 24 73.3 24 Z M 77.2 19.9 C 77.2 19.7 77.1 19.7 76.9 19.7 C 76.94 19.67 76.6 19.7 76.6 19.7 L 76.6 18.2 C 76.6 18.2 78.16 18.22 78.2 18.2 C 78.7 18.2 78.9 18.4 78.9 18.9 C 78.9 18.9 78.9 23.7 78.9 23.7 C 78.9 23.8 79 23.9 79.1 23.9 C 79.11 23.92 79.5 23.9 79.5 23.9 L 79.5 25.4 C 79.5 25.4 77.89 25.37 77.9 25.4 C 77.4 25.4 77.2 25.1 77.2 24.6 C 77.2 24.6 77.2 19.9 77.2 19.9 Z M 82.8 20.1 C 84.5 20.1 85.8 21.2 85.8 22.8 C 85.8 24.4 84.5 25.5 82.9 25.5 C 81.2 25.5 79.9 24.4 79.9 22.8 C 79.9 21.2 81.2 20.1 82.8 20.1 Z M 82.9 24 C 83.5 24 84 23.6 84 22.8 C 84 22 83.5 21.5 82.9 21.5 C 82.2 21.5 81.7 22 81.7 22.8 C 81.7 23.6 82.2 24 82.9 24 Z M 88.6 20.1 C 89.6 20.1 90.1 20.7 90.1 20.7 C 90.06 20.7 90.1 20.7 90.1 20.7 C 90.1 20.7 90.08 20.67 90.1 20.6 C 90.1 20.5 90.2 20.2 90.6 20.2 C 90.63 20.22 92.2 20.2 92.2 20.2 L 92.2 21.7 C 92.2 21.7 91.83 21.67 91.8 21.7 C 91.7 21.7 91.6 21.7 91.6 21.9 C 91.6 21.9 91.6 24.9 91.6 24.9 C 91.6 26.8 90.1 27.5 88.7 27.5 C 88 27.5 87.3 27.3 86.8 27 C 86.75 27.01 87.3 25.7 87.3 25.7 C 87.3 25.7 87.88 25.99 88.7 26 C 89.3 26 89.9 25.8 89.9 25 C 89.9 25 89.9 24.9 89.9 24.9 C 89.88 24.86 89.9 24.7 89.9 24.7 C 89.9 24.7 89.87 24.73 89.9 24.7 C 89.6 25.1 89.2 25.2 88.6 25.2 C 87 25.2 86.3 23.9 86.3 22.6 C 86.3 21.3 87 20.1 88.6 20.1 Z M 89.9 22.6 C 89.9 21.7 89.4 21.5 88.9 21.5 C 88.3 21.5 88 22 88 22.6 C 88 23.2 88.3 23.8 89 23.8 C 89.4 23.8 89.9 23.5 89.9 22.6 Z M 93.3 18.2 L 94.8 18.2 L 94.8 19.6 L 93.3 19.6 L 93.3 18.2 Z M 93.2 21.9 C 93.2 21.7 93.1 21.7 93 21.7 C 92.98 21.67 92.6 21.7 92.6 21.7 L 92.6 20.2 C 92.6 20.2 94.2 20.22 94.2 20.2 C 94.7 20.2 94.9 20.4 94.9 20.9 C 94.9 20.9 94.9 23.7 94.9 23.7 C 94.9 23.8 95 23.9 95.2 23.9 C 95.15 23.92 95.5 23.9 95.5 23.9 L 95.5 25.4 C 95.5 25.4 93.93 25.37 93.9 25.4 C 93.4 25.4 93.2 25.1 93.2 24.6 C 93.2 24.6 93.2 21.9 93.2 21.9 Z M 98.9 20.1 C 99.6 20.1 100.8 20.4 100.8 21.3 C 100.81 21.31 100.8 22 100.8 22 L 99.3 22 C 99.3 22 99.31 21.75 99.3 21.7 C 99.3 21.6 99.1 21.5 98.9 21.5 C 98.2 21.5 97.7 22.1 97.7 22.8 C 97.7 23.6 98.4 24 99 24 C 99.78 24 100.5 23.3 100.5 23.3 L 101.2 24.5 C 101.2 24.5 100.34 25.49 98.9 25.5 C 97 25.5 96 24.2 96 22.8 C 96 21.4 97 20.1 98.9 20.1 Z M 101.9 19.9 C 101.9 19.7 101.9 19.7 101.7 19.7 C 101.71 19.67 101.3 19.7 101.3 19.7 L 101.3 18.2 C 101.3 18.2 102.93 18.22 102.9 18.2 C 103.4 18.2 103.7 18.3 103.7 18.8 C 103.66 18.8 103.7 21.9 103.7 21.9 C 103.7 21.9 103.93 21.92 103.9 21.9 C 104.1 21.9 104.3 21.9 104.3 21.8 C 104.34 21.76 105.2 20.2 105.2 20.2 L 107.1 20.2 C 107.1 20.2 105.89 22.2 105.9 22.2 C 105.7 22.53 105.5 22.6 105.5 22.6 L 105.5 22.6 C 105.5 22.6 105.72 22.73 105.9 23.1 C 105.9 23.1 106.2 23.7 106.2 23.7 C 106.3 23.9 106.4 23.9 106.6 23.9 C 106.61 23.92 107 23.9 107 23.9 L 107 25.4 C 107 25.4 105.7 25.37 105.7 25.4 C 105.3 25.4 105.1 25.3 105 25 C 105 25 104.2 23.5 104.2 23.5 C 104.1 23.4 103.9 23.4 103.8 23.4 C 103.81 23.37 103.7 23.4 103.7 23.4 L 103.7 25.4 L 101.9 25.4 C 101.9 25.4 101.93 19.89 101.9 19.9 Z M 110.4 22.1 C 110.41 22.13 110.5 22.1 110.5 22.1 C 110.5 22.1 110.48 22.07 110.5 22.1 C 110.5 21.6 110.3 21.4 109.8 21.4 C 109.6 21.4 109.4 21.4 109.4 21.6 C 109.37 21.65 109.4 21.9 109.4 21.9 L 107.8 21.9 C 107.8 21.9 107.77 21.31 107.8 21.3 C 107.8 20.2 109.2 20.1 109.8 20.1 C 111.6 20.1 112.2 21 112.2 22.2 C 112.2 22.2 112.2 23.7 112.2 23.7 C 112.2 23.8 112.3 23.9 112.4 23.9 C 112.43 23.92 112.8 23.9 112.8 23.9 L 112.8 25.4 C 112.8 25.4 111.31 25.37 111.3 25.4 C 110.8 25.4 110.6 25.1 110.6 24.8 C 110.63 24.79 110.6 24.7 110.6 24.7 L 110.6 24.7 C 110.6 24.7 110.25 25.49 109.2 25.5 C 108.2 25.5 107.4 24.8 107.4 23.8 C 107.4 22.3 109.6 22.1 110.4 22.1 Z M 109.7 24.2 C 110.1 24.2 110.5 23.7 110.5 23.3 C 110.5 23.26 110.5 23.2 110.5 23.2 C 110.5 23.2 110.34 23.18 110.3 23.2 C 109.8 23.2 109.2 23.3 109.2 23.7 C 109.2 24 109.3 24.2 109.7 24.2 Z M 110.1 18.2 L 111.7 18.2 L 110.5 19.7 L 109.3 19.7 L 110.1 18.2 Z " stroke="none" fill="#5f0f50"/>  </g></svg>