<?xml version="1.0" standalone="no"?><!DOCTYPE svg PUBLIC "-//W3C//DTD SVG 1.1//EN" "http://www.w3.org/Graphics/SVG/1.1/DTD/svg11.dtd"><svg xmlns="http://www.w3.org/2000/svg" version="1.1" width="52.2px" height="29px" viewBox="0 0 52.2 29">  <desc>K e</desc>  <defs/>  <g id="Polygon72329">    <path d="M 14.9 10.1 C 14.9 9.9 14.8 9.8 14.6 9.8 C 14.61 9.82 14.1 9.8 14.1 9.8 L 14.1 8.8 C 14.1 8.8 15.31 8.78 15.3 8.8 C 15.8 8.8 16.1 9 16.1 9.6 C 16.08 9.55 16.1 12.3 16.1 12.3 C 16.1 12.3 16.88 12.35 16.9 12.3 C 17.2 12.3 17.4 12.3 17.6 12.1 C 17.58 12.06 19.5 8.8 19.5 8.8 L 20.8 8.8 C 20.8 8.8 18.75 12.3 18.8 12.3 C 18.51 12.72 18.3 12.9 18.3 12.9 L 18.3 12.9 C 18.3 12.9 18.51 12.94 18.8 13.4 C 18.8 13.4 20 15.9 20 15.9 C 20.1 16.2 20.3 16.2 20.6 16.2 C 20.62 16.22 20.9 16.2 20.9 16.2 L 20.9 17.3 C 20.9 17.3 20.19 17.26 20.2 17.3 C 19.5 17.3 19.3 17.2 19 16.6 C 19 16.6 17.6 13.7 17.6 13.7 C 17.4 13.4 17.1 13.4 16.8 13.4 C 16.8 13.37 16.1 13.4 16.1 13.4 L 16.1 17.3 L 14.9 17.3 C 14.9 17.3 14.88 10.08 14.9 10.1 Z M 22 12.4 C 22 12.3 21.9 12.2 21.7 12.2 C 21.73 12.18 21.2 12.2 21.2 12.2 L 21.2 11.2 C 21.2 11.2 22.34 11.18 22.3 11.2 C 22.9 11.2 23.1 11.4 23.1 11.9 C 23.1 11.9 23.1 12.3 23.1 12.3 C 23.12 12.52 23.1 12.7 23.1 12.7 C 23.1 12.7 23.12 12.7 23.1 12.7 C 23.4 11.8 24.1 11.1 25 11.1 C 25.2 11.11 25.4 11.1 25.4 11.1 L 25.4 12.3 C 25.4 12.3 25.2 12.25 25 12.3 C 24.3 12.3 23.6 12.8 23.3 13.7 C 23.2 14 23.2 14.4 23.2 14.8 C 23.16 14.77 23.2 17.3 23.2 17.3 L 22 17.3 C 22 17.3 21.99 12.44 22 12.4 Z M 23.8 8.8 L 24.9 8.8 L 23.8 10.3 L 22.9 10.3 L 23.8 8.8 Z M 29 11 C 29.8 11 31.2 11.3 31.2 12.4 C 31.22 12.37 31.2 13 31.2 13 L 30.2 13 C 30.2 13 30.16 12.66 30.2 12.7 C 30.2 12.2 29.5 12 29 12 C 27.8 12 27 12.9 27 14.2 C 27 15.6 28 16.4 29.1 16.4 C 30.24 16.37 31 15.5 31 15.5 L 31.5 16.4 C 31.5 16.4 30.62 17.4 29 17.4 C 27.1 17.4 25.8 16 25.8 14.2 C 25.8 12.4 27.1 11 29 11 Z M 27.2 8.8 L 28.2 8.8 L 28.8 9.8 L 28.8 9.8 L 29.5 8.8 L 30.4 8.8 L 29.4 10.3 L 28.3 10.3 L 27.2 8.8 Z M 35.2 11 C 36.9 11 37.8 12.3 37.8 13.9 C 37.83 14.04 37.8 14.4 37.8 14.4 C 37.8 14.4 33.37 14.36 33.4 14.4 C 33.4 15.7 34.4 16.4 35.5 16.4 C 36.5 16.39 37.2 15.7 37.2 15.7 L 37.7 16.5 C 37.7 16.5 36.84 17.4 35.4 17.4 C 33.5 17.4 32.2 16 32.2 14.2 C 32.2 12.3 33.5 11 35.2 11 Z M 36.6 13.5 C 36.6 12.5 36 12 35.2 12 C 34.3 12 33.6 12.5 33.4 13.5 C 33.4 13.5 36.6 13.5 36.6 13.5 Z " stroke="none" fill="#000"/>  </g></svg>