<?xml version="1.0" standalone="no"?><!DOCTYPE svg PUBLIC "-//W3C//DTD SVG 1.1//EN" "http://www.w3.org/Graphics/SVG/1.1/DTD/svg11.dtd"><svg xmlns="http://www.w3.org/2000/svg" version="1.1" width="723px" height="71px" viewBox="0 -3 723 71" style="top:-3px">  <desc>Estetrol (E4) objavil v roku 1965 profesor Diczfalusy v Karol nskom in tit te v tokholme. Ide o prirodzen estrog n ...</desc>  <defs/>  <g id="Polygon71341">    <path d="M 1.3 43.8 L 0.5 43.8 L 0.5 43.1 C 0.5 43.1 4.07 43.07 4.1 43.1 C 5.6 43.1 6.7 44.1 6.7 45.6 C 6.7 47.2 5.6 48.2 4.1 48.2 C 4.07 48.19 2.1 48.2 2.1 48.2 L 2.1 51.5 L 1.3 51.5 L 1.3 43.8 Z M 4 47.4 C 5.1 47.4 5.8 46.8 5.8 45.6 C 5.8 44.5 5.1 43.8 4 43.8 C 3.97 43.81 2.1 43.8 2.1 43.8 L 2.1 47.4 C 2.1 47.4 3.96 47.45 4 47.4 Z M 8 46.4 C 8 46.3 7.9 46.2 7.7 46.2 C 7.73 46.18 7.2 46.2 7.2 46.2 L 7.2 45.5 C 7.2 45.5 8.06 45.47 8.1 45.5 C 8.6 45.5 8.8 45.7 8.8 46.2 C 8.8 46.2 8.8 46.6 8.8 46.6 C 8.8 46.81 8.8 47 8.8 47 C 8.8 47 8.8 47.02 8.8 47 C 9.1 46.1 9.8 45.4 10.7 45.4 C 10.9 45.4 11 45.4 11 45.4 C 11.03 45.44 11 46.2 11 46.2 C 11 46.2 10.88 46.22 10.7 46.2 C 9.9 46.2 9.2 46.9 9 47.8 C 8.9 48.2 8.8 48.6 8.8 49 C 8.81 48.96 8.8 51.5 8.8 51.5 L 8 51.5 C 8 51.5 7.99 46.44 8 46.4 Z M 14.7 45.3 C 16.5 45.3 17.9 46.7 17.9 48.5 C 17.9 50.3 16.5 51.6 14.7 51.6 C 13 51.6 11.5 50.3 11.5 48.5 C 11.5 46.7 13 45.3 14.7 45.3 Z M 14.7 50.9 C 16 50.9 17.1 49.9 17.1 48.5 C 17.1 47.1 16 46.1 14.7 46.1 C 13.4 46.1 12.4 47.1 12.4 48.5 C 12.4 49.9 13.4 50.9 14.7 50.9 Z M 21.6 45.3 C 23.06 45.32 23.6 46.5 23.6 46.5 L 23.6 46.5 C 23.6 46.5 23.57 46.25 23.6 46 C 23.6 46 23.6 44 23.6 44 C 23.6 43.9 23.5 43.8 23.3 43.8 C 23.3 43.78 22.8 43.8 22.8 43.8 L 22.8 43.1 C 22.8 43.1 23.65 43.07 23.7 43.1 C 24.2 43.1 24.4 43.3 24.4 43.8 C 24.4 43.8 24.4 50.5 24.4 50.5 C 24.4 50.7 24.5 50.8 24.6 50.8 C 24.65 50.8 25.2 50.8 25.2 50.8 L 25.2 51.5 C 25.2 51.5 24.31 51.5 24.3 51.5 C 23.8 51.5 23.6 51.3 23.6 50.8 C 23.6 50.6 23.6 50.4 23.6 50.4 C 23.62 50.45 23.6 50.4 23.6 50.4 C 23.6 50.4 23.1 51.65 21.5 51.6 C 19.9 51.6 18.9 50.4 18.9 48.5 C 18.9 46.6 20 45.3 21.6 45.3 Z M 23.6 48.5 C 23.6 47.3 23 46.1 21.7 46.1 C 20.6 46.1 19.7 47 19.7 48.5 C 19.7 50 20.5 50.9 21.6 50.9 C 22.6 50.9 23.6 50.2 23.6 48.5 Z M 26.5 46.4 C 26.5 46.3 26.4 46.2 26.2 46.2 C 26.2 46.18 25.7 46.2 25.7 46.2 L 25.7 45.5 C 25.7 45.5 26.54 45.47 26.5 45.5 C 27.1 45.5 27.3 45.7 27.3 46.2 C 27.3 46.2 27.3 49.1 27.3 49.1 C 27.3 50 27.4 50.9 28.6 50.9 C 30 50.9 30.8 49.7 30.8 48.4 C 30.82 48.36 30.8 45.5 30.8 45.5 L 31.6 45.5 C 31.6 45.5 31.63 50.53 31.6 50.5 C 31.6 50.7 31.7 50.8 31.9 50.8 C 31.9 50.8 32.4 50.8 32.4 50.8 L 32.4 51.5 C 32.4 51.5 31.57 51.5 31.6 51.5 C 31.1 51.5 30.8 51.3 30.8 50.8 C 30.8 50.8 30.8 50.6 30.8 50.6 C 30.8 50.3 30.9 50.1 30.9 50.1 C 30.9 50.1 30.8 50.1 30.8 50.1 C 30.6 50.7 29.8 51.6 28.5 51.6 C 27.1 51.6 26.5 50.9 26.5 49.3 C 26.5 49.3 26.5 46.4 26.5 46.4 Z M 33.7 44 C 33.7 43.9 33.6 43.8 33.4 43.8 C 33.42 43.78 32.9 43.8 32.9 43.8 L 32.9 43.1 C 32.9 43.1 33.77 43.07 33.8 43.1 C 34.3 43.1 34.5 43.2 34.5 43.8 C 34.5 43.76 34.5 47.8 34.5 47.8 C 34.5 47.8 35.12 47.77 35.1 47.8 C 35.4 47.8 35.6 47.7 35.8 47.5 C 35.81 47.48 37.4 45.5 37.4 45.5 L 38.4 45.5 C 38.4 45.5 36.61 47.68 36.6 47.7 C 36.31 48.05 36.2 48.1 36.2 48.1 L 36.2 48.1 C 36.2 48.1 36.34 48.22 36.5 48.6 C 36.5 48.6 37.6 50.5 37.6 50.5 C 37.7 50.7 37.8 50.8 38.2 50.8 C 38.17 50.8 38.5 50.8 38.5 50.8 L 38.5 51.5 C 38.5 51.5 37.93 51.5 37.9 51.5 C 37.3 51.5 37.2 51.4 36.9 50.9 C 36.9 50.9 35.7 48.7 35.7 48.7 C 35.6 48.5 35.3 48.5 35.1 48.5 C 35.05 48.48 34.5 48.5 34.5 48.5 L 34.5 51.5 L 33.7 51.5 C 33.7 51.5 33.68 44.04 33.7 44 Z M 39.7 46.4 C 39.7 46.3 39.6 46.2 39.4 46.2 C 39.41 46.18 38.9 46.2 38.9 46.2 L 38.9 45.5 C 38.9 45.5 39.76 45.47 39.8 45.5 C 40.3 45.5 40.5 45.7 40.5 46.2 C 40.5 46.2 40.5 49.1 40.5 49.1 C 40.5 50 40.6 50.9 41.8 50.9 C 43.2 50.9 44 49.7 44 48.4 C 44.03 48.36 44 45.5 44 45.5 L 44.8 45.5 C 44.8 45.5 44.84 50.53 44.8 50.5 C 44.8 50.7 44.9 50.8 45.1 50.8 C 45.11 50.8 45.6 50.8 45.6 50.8 L 45.6 51.5 C 45.6 51.5 44.78 51.5 44.8 51.5 C 44.3 51.5 44.1 51.3 44.1 50.8 C 44.1 50.8 44.1 50.6 44.1 50.6 C 44.1 50.3 44.1 50.1 44.1 50.1 C 44.1 50.1 44.1 50.1 44.1 50.1 C 43.8 50.7 43 51.6 41.7 51.6 C 40.3 51.6 39.7 50.9 39.7 49.3 C 39.7 49.3 39.7 46.4 39.7 46.4 Z M 47.3 43.1 L 48 43.1 L 48 44.1 L 47.3 44.1 L 47.3 43.1 Z M 45.9 53.2 C 46.4 53.2 47.3 53.1 47.3 51.7 C 47.3 51.7 47.3 46.4 47.3 46.4 C 47.3 46.3 47.2 46.2 47 46.2 C 47 46.18 46.5 46.2 46.5 46.2 L 46.5 45.5 C 46.5 45.5 47.35 45.47 47.4 45.5 C 47.9 45.5 48.1 45.7 48.1 46.2 C 48.1 46.2 48.1 51.7 48.1 51.7 C 48.1 53.7 46.7 54 46 54 C 45.8 54 45.6 53.9 45.6 53.9 C 45.64 53.94 45.6 53.2 45.6 53.2 C 45.6 53.2 45.74 53.24 45.9 53.2 Z M 52.6 45.3 C 54.2 45.3 55.1 46.6 55.1 48.1 C 55.09 48.25 55.1 48.5 55.1 48.5 C 55.1 48.5 50.43 48.52 50.4 48.5 C 50.5 50 51.5 50.9 52.8 50.9 C 53.88 50.92 54.6 50.2 54.6 50.2 L 55 50.8 C 55 50.8 54.11 51.65 52.7 51.6 C 51 51.6 49.6 50.4 49.6 48.5 C 49.6 46.5 50.9 45.3 52.6 45.3 Z M 54.3 47.9 C 54.2 46.6 53.4 46 52.5 46 C 51.6 46 50.7 46.7 50.5 47.9 C 50.5 47.9 54.3 47.9 54.3 47.9 Z M 59.8 50 C 59.8 50 60.43 50.94 61.6 50.9 C 62.3 50.9 62.9 50.6 62.9 50 C 62.9 48.7 59.5 48.9 59.5 47 C 59.5 45.9 60.4 45.3 61.7 45.3 C 62.3 45.3 63.5 45.6 63.5 46.4 C 63.49 46.42 63.5 46.9 63.5 46.9 L 62.7 46.9 C 62.7 46.9 62.72 46.64 62.7 46.6 C 62.7 46.2 62.1 46 61.7 46 C 60.8 46 60.3 46.3 60.3 46.9 C 60.3 48.3 63.7 48 63.7 50 C 63.7 51 62.8 51.6 61.6 51.6 C 60.04 51.65 59.3 50.6 59.3 50.6 L 59.8 50 Z M 68.4 47.8 C 68.4 47.78 68.7 47.8 68.7 47.8 C 68.7 47.8 68.74 47.71 68.7 47.7 C 68.7 46.5 68.3 46 67.2 46 C 66.9 46 66 46.1 66 46.5 C 66 46.54 66 46.9 66 46.9 L 65.2 46.9 C 65.2 46.9 65.22 46.34 65.2 46.3 C 65.2 45.5 66.7 45.3 67.2 45.3 C 69.1 45.3 69.6 46.3 69.6 47.6 C 69.6 47.6 69.6 50.5 69.6 50.5 C 69.6 50.7 69.6 50.8 69.8 50.8 C 69.81 50.8 70.3 50.8 70.3 50.8 L 70.3 51.5 C 70.3 51.5 69.49 51.5 69.5 51.5 C 69 51.5 68.8 51.3 68.8 50.8 C 68.8 50.5 68.8 50.3 68.8 50.3 C 68.8 50.3 68.8 50.3 68.8 50.3 C 68.8 50.3 68.3 51.6 66.8 51.6 C 65.7 51.6 64.7 51.1 64.7 49.9 C 64.7 47.9 67.4 47.8 68.4 47.8 Z M 66.9 51 C 68 51 68.7 49.8 68.7 48.7 C 68.74 48.71 68.7 48.4 68.7 48.4 C 68.7 48.4 68.39 48.43 68.4 48.4 C 67.4 48.4 65.5 48.5 65.5 49.8 C 65.5 50.4 66 51 66.9 51 Z M 74.9 43.1 L 75.7 43.1 L 75.7 44.1 L 74.9 44.1 L 74.9 43.1 Z M 74.9 46.4 C 74.9 46.3 74.8 46.2 74.7 46.2 C 74.68 46.18 74.2 46.2 74.2 46.2 L 74.2 45.5 C 74.2 45.5 75.02 45.47 75 45.5 C 75.5 45.5 75.8 45.7 75.8 46.2 C 75.8 46.2 75.8 50.5 75.8 50.5 C 75.8 50.7 75.9 50.8 76 50.8 C 76.02 50.8 76.5 50.8 76.5 50.8 L 76.5 51.5 C 76.5 51.5 75.67 51.5 75.7 51.5 C 75.2 51.5 74.9 51.3 74.9 50.8 C 74.9 50.8 74.9 46.4 74.9 46.4 Z M 77.9 44 C 77.9 43.9 77.8 43.8 77.6 43.8 C 77.59 43.78 77.1 43.8 77.1 43.8 L 77.1 43.1 C 77.1 43.1 77.94 43.07 77.9 43.1 C 78.5 43.1 78.7 43.3 78.7 43.8 C 78.7 43.8 78.7 46 78.7 46 C 78.67 46.26 78.6 46.5 78.6 46.5 L 78.7 46.5 C 78.7 46.5 79.17 45.32 80.7 45.3 C 82.3 45.3 83.4 46.6 83.4 48.5 C 83.4 50.4 82.2 51.6 80.6 51.6 C 79.19 51.65 78.6 50.5 78.6 50.5 L 78.6 50.5 C 78.6 50.5 78.65 50.69 78.6 51 C 78.65 50.98 78.6 51.5 78.6 51.5 L 77.9 51.5 C 77.9 51.5 77.86 44.04 77.9 44 Z M 80.6 50.9 C 81.6 50.9 82.5 50 82.5 48.5 C 82.5 47 81.7 46.1 80.6 46.1 C 79.6 46.1 78.6 46.8 78.6 48.5 C 78.6 49.7 79.3 50.9 80.6 50.9 Z M 88 47.8 C 87.97 47.78 88.3 47.8 88.3 47.8 C 88.3 47.8 88.31 47.71 88.3 47.7 C 88.3 46.5 87.9 46 86.7 46 C 86.4 46 85.6 46.1 85.6 46.5 C 85.57 46.54 85.6 46.9 85.6 46.9 L 84.8 46.9 C 84.8 46.9 84.79 46.34 84.8 46.3 C 84.8 45.5 86.2 45.3 86.8 45.3 C 88.7 45.3 89.1 46.3 89.1 47.6 C 89.1 47.6 89.1 50.5 89.1 50.5 C 89.1 50.7 89.2 50.8 89.4 50.8 C 89.39 50.8 89.9 50.8 89.9 50.8 L 89.9 51.5 C 89.9 51.5 89.06 51.5 89.1 51.5 C 88.5 51.5 88.3 51.3 88.3 50.8 C 88.3 50.5 88.4 50.3 88.4 50.3 C 88.4 50.3 88.3 50.3 88.3 50.3 C 88.3 50.3 87.8 51.6 86.3 51.6 C 85.3 51.6 84.3 51.1 84.3 49.9 C 84.3 47.9 86.9 47.8 88 47.8 Z M 86.5 51 C 87.6 51 88.3 49.8 88.3 48.7 C 88.31 48.71 88.3 48.4 88.3 48.4 C 88.3 48.4 87.96 48.43 88 48.4 C 87 48.4 85.1 48.5 85.1 49.8 C 85.1 50.4 85.6 51 86.5 51 Z M 94.5 46.4 C 94.5 46.3 94.4 46.2 94.2 46.2 C 94.19 46.18 93.7 46.2 93.7 46.2 L 93.7 45.5 C 93.7 45.5 94.51 45.47 94.5 45.5 C 95 45.5 95.2 45.7 95.2 46.1 C 95.2 46.3 95.2 46.5 95.2 46.5 C 95.22 46.51 95.2 46.5 95.2 46.5 C 95.2 46.5 95.72 45.32 97.3 45.3 C 98.9 45.3 99.9 46.6 99.9 48.5 C 99.9 50.4 98.8 51.6 97.2 51.6 C 95.77 51.65 95.3 50.5 95.3 50.5 L 95.2 50.5 C 95.2 50.5 95.27 50.72 95.3 51 C 95.27 51.04 95.3 53.9 95.3 53.9 L 94.5 53.9 C 94.5 53.9 94.45 46.44 94.5 46.4 Z M 97.2 50.9 C 98.2 50.9 99.1 50 99.1 48.5 C 99.1 47 98.3 46.1 97.2 46.1 C 96.2 46.1 95.2 46.8 95.2 48.5 C 95.2 49.7 95.9 50.9 97.2 50.9 Z M 104.1 45.3 C 105.9 45.3 107.3 46.7 107.3 48.5 C 107.3 50.3 105.9 51.6 104.1 51.6 C 102.4 51.6 100.9 50.3 100.9 48.5 C 100.9 46.7 102.4 45.3 104.1 45.3 Z M 104.1 50.9 C 105.4 50.9 106.5 49.9 106.5 48.5 C 106.5 47.1 105.4 46.1 104.1 46.1 C 102.8 46.1 101.8 47.1 101.8 48.5 C 101.8 49.9 102.8 50.9 104.1 50.9 Z M 111.4 45.3 C 112.1 45.3 113.6 45.6 113.6 46.6 C 113.59 46.61 113.6 47.1 113.6 47.1 L 112.8 47.1 C 112.8 47.1 112.82 46.8 112.8 46.8 C 112.8 46.3 111.9 46.1 111.4 46.1 C 110.1 46.1 109.1 47 109.1 48.5 C 109.1 50 110.2 50.9 111.5 50.9 C 112.7 50.9 113.4 50.1 113.4 50.1 L 113.8 50.7 C 113.8 50.7 112.98 51.65 111.4 51.6 C 109.6 51.6 108.3 50.4 108.3 48.5 C 108.3 46.6 109.6 45.3 111.4 45.3 Z M 109.8 43.1 L 110.6 43.1 L 111.3 44 L 111.3 44 L 111.9 43.1 L 112.7 43.1 L 111.7 44.5 L 110.9 44.5 L 109.8 43.1 Z M 118.3 47.8 C 118.3 47.78 118.6 47.8 118.6 47.8 C 118.6 47.8 118.63 47.71 118.6 47.7 C 118.6 46.5 118.2 46 117.1 46 C 116.8 46 115.9 46.1 115.9 46.5 C 115.89 46.54 115.9 46.9 115.9 46.9 L 115.1 46.9 C 115.1 46.9 115.12 46.34 115.1 46.3 C 115.1 45.5 116.6 45.3 117.1 45.3 C 119 45.3 119.4 46.3 119.4 47.6 C 119.4 47.6 119.4 50.5 119.4 50.5 C 119.4 50.7 119.5 50.8 119.7 50.8 C 119.71 50.8 120.2 50.8 120.2 50.8 L 120.2 51.5 C 120.2 51.5 119.39 51.5 119.4 51.5 C 118.9 51.5 118.7 51.3 118.7 50.8 C 118.7 50.5 118.7 50.3 118.7 50.3 C 118.7 50.3 118.7 50.3 118.7 50.3 C 118.7 50.3 118.2 51.6 116.7 51.6 C 115.6 51.6 114.6 51.1 114.6 49.9 C 114.6 47.9 117.3 47.8 118.3 47.8 Z M 116.8 51 C 117.9 51 118.6 49.8 118.6 48.7 C 118.63 48.71 118.6 48.4 118.6 48.4 C 118.6 48.4 118.28 48.43 118.3 48.4 C 117.3 48.4 115.4 48.5 115.4 49.8 C 115.4 50.4 115.9 51 116.8 51 Z M 121.3 50 C 121.3 50 121.95 50.94 123.1 50.9 C 123.8 50.9 124.4 50.6 124.4 50 C 124.4 48.7 121 48.9 121 47 C 121 45.9 122 45.3 123.2 45.3 C 123.8 45.3 125 45.6 125 46.4 C 125.01 46.42 125 46.9 125 46.9 L 124.2 46.9 C 124.2 46.9 124.25 46.64 124.2 46.6 C 124.2 46.2 123.6 46 123.2 46 C 122.4 46 121.9 46.3 121.9 46.9 C 121.9 48.3 125.2 48 125.2 50 C 125.2 51 124.3 51.6 123.1 51.6 C 121.56 51.65 120.8 50.6 120.8 50.6 L 121.3 50 Z M 130.1 46.2 L 129.3 46.2 L 129.3 45.5 L 130.1 45.5 L 130.1 43.8 L 130.9 43.8 L 130.9 45.5 L 132.5 45.5 L 132.5 46.2 L 130.9 46.2 C 130.9 46.2 130.94 49.22 130.9 49.2 C 130.9 50.6 131.8 50.8 132.3 50.8 C 132.47 50.82 132.6 50.8 132.6 50.8 L 132.6 51.5 C 132.6 51.5 132.43 51.55 132.2 51.6 C 131.5 51.6 130.1 51.3 130.1 49.3 C 130.13 49.31 130.1 46.2 130.1 46.2 Z M 136.4 45.3 C 138 45.3 138.9 46.6 138.9 48.1 C 138.9 48.25 138.9 48.5 138.9 48.5 C 138.9 48.5 134.24 48.52 134.2 48.5 C 134.3 50 135.3 50.9 136.6 50.9 C 137.69 50.92 138.4 50.2 138.4 50.2 L 138.8 50.8 C 138.8 50.8 137.91 51.65 136.5 51.6 C 134.8 51.6 133.4 50.4 133.4 48.5 C 133.4 46.5 134.7 45.3 136.4 45.3 Z M 138.1 47.9 C 138 46.6 137.2 46 136.4 46 C 135.4 46 134.5 46.7 134.3 47.9 C 134.3 47.9 138.1 47.9 138.1 47.9 Z M 140.5 44 C 140.5 43.9 140.4 43.8 140.2 43.8 C 140.23 43.78 139.7 43.8 139.7 43.8 L 139.7 43.1 C 139.7 43.1 140.58 43.07 140.6 43.1 C 141.1 43.1 141.3 43.3 141.3 43.8 C 141.3 43.8 141.3 46.3 141.3 46.3 C 141.31 46.61 141.3 46.8 141.3 46.8 C 141.3 46.8 141.31 46.82 141.3 46.8 C 141.5 46.2 142.3 45.3 143.7 45.3 C 145.2 45.3 145.7 46.2 145.7 47.7 C 145.7 47.7 145.7 50.5 145.7 50.5 C 145.7 50.7 145.8 50.8 146 50.8 C 145.99 50.8 146.5 50.8 146.5 50.8 L 146.5 51.5 C 146.5 51.5 145.64 51.5 145.6 51.5 C 145.1 51.5 144.9 51.3 144.9 50.8 C 144.9 50.8 144.9 47.9 144.9 47.9 C 144.9 46.9 144.8 46.1 143.6 46.1 C 142.6 46.1 141.7 46.8 141.4 47.8 C 141.3 48 141.3 48.3 141.3 48.6 C 141.31 48.61 141.3 51.5 141.3 51.5 L 140.5 51.5 C 140.5 51.5 140.49 44.04 140.5 44 Z M 150.4 45.3 C 152.2 45.3 153.6 46.7 153.6 48.5 C 153.6 50.3 152.2 51.6 150.4 51.6 C 148.7 51.6 147.2 50.3 147.2 48.5 C 147.2 46.7 148.7 45.3 150.4 45.3 Z M 150.4 50.9 C 151.7 50.9 152.8 49.9 152.8 48.5 C 152.8 47.1 151.7 46.1 150.4 46.1 C 149.1 46.1 148.1 47.1 148.1 48.5 C 148.1 49.9 149.1 50.9 150.4 50.9 Z M 155.2 46.2 L 154.4 46.2 L 154.4 45.5 L 155.2 45.5 L 155.2 43.8 L 156 43.8 L 156 45.5 L 157.5 45.5 L 157.5 46.2 L 156 46.2 C 156 46.2 156.01 49.22 156 49.2 C 156 50.6 156.9 50.8 157.4 50.8 C 157.53 50.82 157.6 50.8 157.6 50.8 L 157.6 51.5 C 157.6 51.5 157.5 51.55 157.3 51.6 C 156.6 51.6 155.2 51.3 155.2 49.3 C 155.19 49.31 155.2 46.2 155.2 46.2 Z M 161.4 45.3 C 163.1 45.3 164 46.6 164 48.1 C 163.96 48.25 163.9 48.5 163.9 48.5 C 163.9 48.5 159.31 48.52 159.3 48.5 C 159.3 50 160.4 50.9 161.6 50.9 C 162.75 50.92 163.5 50.2 163.5 50.2 L 163.9 50.8 C 163.9 50.8 162.98 51.65 161.6 51.6 C 159.8 51.6 158.5 50.4 158.5 48.5 C 158.5 46.5 159.8 45.3 161.4 45.3 Z M 163.1 47.9 C 163.1 46.6 162.3 46 161.4 46 C 160.4 46 159.5 46.7 159.3 47.9 C 159.3 47.9 163.1 47.9 163.1 47.9 Z M 165.6 46.4 C 165.6 46.3 165.5 46.2 165.3 46.2 C 165.33 46.18 164.8 46.2 164.8 46.2 L 164.8 45.5 C 164.8 45.5 165.67 45.47 165.7 45.5 C 166.2 45.5 166.4 45.7 166.4 46.1 C 166.4 46.1 166.4 46.4 166.4 46.4 C 166.4 46.66 166.4 46.8 166.4 46.8 C 166.4 46.8 166.4 46.85 166.4 46.8 C 166.6 46.3 167.4 45.3 168.8 45.3 C 170.3 45.3 170.8 46.2 170.8 47.7 C 170.8 47.7 170.8 50.5 170.8 50.5 C 170.8 50.7 170.9 50.8 171.1 50.8 C 171.09 50.8 171.6 50.8 171.6 50.8 L 171.6 51.5 C 171.6 51.5 170.74 51.5 170.7 51.5 C 170.2 51.5 170 51.3 170 50.8 C 170 50.8 170 47.9 170 47.9 C 170 46.9 169.9 46.1 168.7 46.1 C 167.7 46.1 166.8 46.8 166.5 47.8 C 166.4 48 166.4 48.3 166.4 48.6 C 166.41 48.61 166.4 51.5 166.4 51.5 L 165.6 51.5 C 165.6 51.5 165.6 46.44 165.6 46.4 Z M 172.7 50 C 172.7 50 173.34 50.94 174.5 50.9 C 175.2 50.9 175.8 50.6 175.8 50 C 175.8 48.7 172.4 48.9 172.4 47 C 172.4 45.9 173.3 45.3 174.6 45.3 C 175.2 45.3 176.4 45.6 176.4 46.4 C 176.4 46.42 176.4 46.9 176.4 46.9 L 175.6 46.9 C 175.6 46.9 175.63 46.64 175.6 46.6 C 175.6 46.2 175 46 174.6 46 C 173.7 46 173.2 46.3 173.2 46.9 C 173.2 48.3 176.6 48 176.6 50 C 176.6 51 175.7 51.6 174.5 51.6 C 172.94 51.65 172.2 50.6 172.2 50.6 L 172.7 50 Z M 178.2 46.2 L 177.5 46.2 L 177.5 45.5 L 178.3 45.5 L 178.3 43.8 L 179.1 43.8 L 179.1 45.5 L 180.6 45.5 L 180.6 46.2 L 179.1 46.2 C 179.1 46.2 179.06 49.22 179.1 49.2 C 179.1 50.6 180 50.8 180.4 50.8 C 180.58 50.82 180.7 50.8 180.7 50.8 L 180.7 51.5 C 180.7 51.5 180.55 51.55 180.3 51.6 C 179.6 51.6 178.2 51.3 178.2 49.3 C 178.25 49.31 178.2 46.2 178.2 46.2 Z M 181.7 46.5 C 181.6 46.2 181.5 46.2 181.3 46.2 C 181.31 46.18 181.2 46.2 181.2 46.2 L 181.2 45.5 C 181.2 45.5 181.52 45.47 181.5 45.5 C 182.1 45.5 182.3 45.6 182.5 46.1 C 182.5 46.1 183.9 49.9 183.9 49.9 C 184.04 50.2 184.1 50.6 184.1 50.6 L 184.2 50.6 C 184.2 50.6 184.26 50.2 184.4 49.9 C 184.4 49.9 185.8 46.1 185.8 46.1 C 186 45.6 186.2 45.5 186.8 45.5 C 186.76 45.47 187.1 45.5 187.1 45.5 L 187.1 46.2 C 187.1 46.2 186.97 46.18 187 46.2 C 186.8 46.2 186.6 46.2 186.5 46.5 C 186.55 46.45 184.6 51.5 184.6 51.5 L 183.7 51.5 C 183.7 51.5 181.73 46.45 181.7 46.5 Z M 191.4 47.8 C 191.36 47.78 191.7 47.8 191.7 47.8 C 191.7 47.8 191.7 47.71 191.7 47.7 C 191.7 46.5 191.2 46 190.1 46 C 189.8 46 189 46.1 189 46.5 C 188.96 46.54 189 46.9 189 46.9 L 188.2 46.9 C 188.2 46.9 188.18 46.34 188.2 46.3 C 188.2 45.5 189.6 45.3 190.1 45.3 C 192.1 45.3 192.5 46.3 192.5 47.6 C 192.5 47.6 192.5 50.5 192.5 50.5 C 192.5 50.7 192.6 50.8 192.8 50.8 C 192.78 50.8 193.3 50.8 193.3 50.8 L 193.3 51.5 C 193.3 51.5 192.45 51.5 192.5 51.5 C 191.9 51.5 191.7 51.3 191.7 50.8 C 191.7 50.5 191.7 50.3 191.7 50.3 C 191.7 50.3 191.7 50.3 191.7 50.3 C 191.7 50.3 191.2 51.6 189.7 51.6 C 188.7 51.6 187.7 51.1 187.7 49.9 C 187.7 47.9 190.3 47.8 191.4 47.8 Z M 189.8 51 C 191 51 191.7 49.8 191.7 48.7 C 191.7 48.71 191.7 48.4 191.7 48.4 C 191.7 48.4 191.35 48.43 191.3 48.4 C 190.4 48.4 188.5 48.5 188.5 49.8 C 188.5 50.4 188.9 51 189.8 51 Z M 201 47.8 C 200.97 47.78 201.3 47.8 201.3 47.8 C 201.3 47.8 201.31 47.71 201.3 47.7 C 201.3 46.5 200.9 46 199.7 46 C 199.4 46 198.6 46.1 198.6 46.5 C 198.57 46.54 198.6 46.9 198.6 46.9 L 197.8 46.9 C 197.8 46.9 197.79 46.34 197.8 46.3 C 197.8 45.5 199.2 45.3 199.8 45.3 C 201.7 45.3 202.1 46.3 202.1 47.6 C 202.1 47.6 202.1 50.5 202.1 50.5 C 202.1 50.7 202.2 50.8 202.4 50.8 C 202.39 50.8 202.9 50.8 202.9 50.8 L 202.9 51.5 C 202.9 51.5 202.06 51.5 202.1 51.5 C 201.5 51.5 201.3 51.3 201.3 50.8 C 201.3 50.5 201.4 50.3 201.4 50.3 C 201.4 50.3 201.3 50.3 201.3 50.3 C 201.3 50.3 200.8 51.6 199.3 51.6 C 198.3 51.6 197.3 51.1 197.3 49.9 C 197.3 47.9 199.9 47.8 201 47.8 Z M 199.5 51 C 200.6 51 201.3 49.8 201.3 48.7 C 201.31 48.71 201.3 48.4 201.3 48.4 C 201.3 48.4 200.96 48.43 201 48.4 C 200 48.4 198.1 48.5 198.1 49.8 C 198.1 50.4 198.6 51 199.5 51 Z M 209.6 45.3 C 211.09 45.32 211.6 46.5 211.6 46.5 L 211.6 46.5 C 211.6 46.5 211.59 46.25 211.6 46 C 211.6 46 211.6 44 211.6 44 C 211.6 43.9 211.5 43.8 211.3 43.8 C 211.33 43.78 210.8 43.8 210.8 43.8 L 210.8 43.1 C 210.8 43.1 211.68 43.07 211.7 43.1 C 212.2 43.1 212.4 43.3 212.4 43.8 C 212.4 43.8 212.4 50.5 212.4 50.5 C 212.4 50.7 212.5 50.8 212.7 50.8 C 212.67 50.8 213.2 50.8 213.2 50.8 L 213.2 51.5 C 213.2 51.5 212.34 51.5 212.3 51.5 C 211.8 51.5 211.6 51.3 211.6 50.8 C 211.6 50.6 211.6 50.4 211.6 50.4 C 211.64 50.45 211.6 50.4 211.6 50.4 C 211.6 50.4 211.13 51.65 209.5 51.6 C 207.9 51.6 206.9 50.4 206.9 48.5 C 206.9 46.6 208 45.3 209.6 45.3 Z M 211.6 48.5 C 211.6 47.3 211 46.1 209.7 46.1 C 208.6 46.1 207.8 47 207.8 48.5 C 207.8 50 208.5 50.9 209.7 50.9 C 210.7 50.9 211.6 50.2 211.6 48.5 Z M 217.1 45.3 C 218.9 45.3 220.3 46.7 220.3 48.5 C 220.3 50.3 218.9 51.6 217.1 51.6 C 215.4 51.6 213.9 50.3 213.9 48.5 C 213.9 46.7 215.4 45.3 217.1 45.3 Z M 217.1 50.9 C 218.4 50.9 219.5 49.9 219.5 48.5 C 219.5 47.1 218.4 46.1 217.1 46.1 C 215.8 46.1 214.8 47.1 214.8 48.5 C 214.8 49.9 215.8 50.9 217.1 50.9 Z M 225.2 46.2 L 224.4 46.2 L 224.4 45.5 L 225.2 45.5 L 225.2 43.8 L 226 43.8 L 226 45.5 L 227.5 45.5 L 227.5 46.2 L 226 46.2 C 226 46.2 225.99 49.22 226 49.2 C 226 50.6 226.9 50.8 227.3 50.8 C 227.52 50.82 227.6 50.8 227.6 50.8 L 227.6 51.5 C 227.6 51.5 227.48 51.55 227.3 51.6 C 226.6 51.6 225.2 51.3 225.2 49.3 C 225.18 49.31 225.2 46.2 225.2 46.2 Z M 231.4 45.3 C 233.1 45.3 233.9 46.6 233.9 48.1 C 233.95 48.25 233.9 48.5 233.9 48.5 C 233.9 48.5 229.29 48.52 229.3 48.5 C 229.3 50 230.4 50.9 231.6 50.9 C 232.74 50.92 233.4 50.2 233.4 50.2 L 233.8 50.8 C 233.8 50.8 232.97 51.65 231.6 51.6 C 229.8 51.6 228.4 50.4 228.4 48.5 C 228.4 46.5 229.8 45.3 231.4 45.3 Z M 233.1 47.9 C 233.1 46.6 232.3 46 231.4 46 C 230.4 46 229.5 46.7 229.3 47.9 C 229.3 47.9 233.1 47.9 233.1 47.9 Z M 235.6 44 C 235.6 43.9 235.5 43.8 235.3 43.8 C 235.31 43.78 234.8 43.8 234.8 43.8 L 234.8 43.1 C 234.8 43.1 235.65 43.07 235.7 43.1 C 236.2 43.1 236.4 43.3 236.4 43.8 C 236.4 43.8 236.4 50.5 236.4 50.5 C 236.4 50.7 236.5 50.8 236.6 50.8 C 236.65 50.8 237.2 50.8 237.2 50.8 L 237.2 51.5 C 237.2 51.5 236.3 51.5 236.3 51.5 C 235.8 51.5 235.6 51.3 235.6 50.8 C 235.6 50.8 235.6 44 235.6 44 Z M 241.7 47.8 C 241.65 47.78 242 47.8 242 47.8 C 242 47.8 241.99 47.71 242 47.7 C 242 46.5 241.5 46 240.4 46 C 240.1 46 239.3 46.1 239.3 46.5 C 239.25 46.54 239.3 46.9 239.3 46.9 L 238.5 46.9 C 238.5 46.9 238.47 46.34 238.5 46.3 C 238.5 45.5 239.9 45.3 240.4 45.3 C 242.3 45.3 242.8 46.3 242.8 47.6 C 242.8 47.6 242.8 50.5 242.8 50.5 C 242.8 50.7 242.9 50.8 243.1 50.8 C 243.07 50.8 243.6 50.8 243.6 50.8 L 243.6 51.5 C 243.6 51.5 242.74 51.5 242.7 51.5 C 242.2 51.5 242 51.3 242 50.8 C 242 50.5 242 50.3 242 50.3 C 242 50.3 242 50.3 242 50.3 C 242 50.3 241.5 51.6 240 51.6 C 239 51.6 238 51.1 238 49.9 C 238 47.9 240.6 47.8 241.7 47.8 Z M 240.1 51 C 241.3 51 242 49.8 242 48.7 C 241.99 48.71 242 48.4 242 48.4 C 242 48.4 241.64 48.43 241.6 48.4 C 240.7 48.4 238.8 48.5 238.8 49.8 C 238.8 50.4 239.2 51 240.1 51 Z M 248.1 46.4 C 248.1 46.3 248 46.2 247.9 46.2 C 247.87 46.18 247.4 46.2 247.4 46.2 L 247.4 45.5 C 247.4 45.5 248.2 45.47 248.2 45.5 C 248.7 45.5 248.9 45.7 248.9 46.1 C 248.9 46.1 248.9 46.4 248.9 46.4 C 248.94 46.66 248.9 46.8 248.9 46.8 C 248.9 46.8 248.94 46.85 248.9 46.8 C 249.2 46 250.2 45.3 251.1 45.3 C 252.2 45.3 252.8 45.8 253 46.8 C 253 46.8 253 46.8 253 46.8 C 253.3 46 254.2 45.3 255.2 45.3 C 256.7 45.3 257.2 46.2 257.2 47.7 C 257.2 47.7 257.2 50.5 257.2 50.5 C 257.2 50.7 257.3 50.8 257.5 50.8 C 257.5 50.8 258 50.8 258 50.8 L 258 51.5 C 258 51.5 257.16 51.5 257.2 51.5 C 256.6 51.5 256.4 51.3 256.4 50.8 C 256.4 50.8 256.4 47.9 256.4 47.9 C 256.4 46.9 256.2 46.1 255.1 46.1 C 254.2 46.1 253.4 46.9 253.2 47.8 C 253.1 48 253.1 48.3 253.1 48.6 C 253.1 48.65 253.1 51.5 253.1 51.5 L 252.3 51.5 C 252.3 51.5 252.28 47.87 252.3 47.9 C 252.3 47 252.2 46.1 251 46.1 C 250 46.1 249.3 46.9 249 47.8 C 249 48.1 248.9 48.4 248.9 48.6 C 248.95 48.65 248.9 51.5 248.9 51.5 L 248.1 51.5 C 248.1 51.5 248.13 46.44 248.1 46.4 Z M 262.4 47.8 C 262.44 47.78 262.8 47.8 262.8 47.8 C 262.8 47.8 262.77 47.71 262.8 47.7 C 262.8 46.5 262.3 46 261.2 46 C 260.9 46 260 46.1 260 46.5 C 260.04 46.54 260 46.9 260 46.9 L 259.3 46.9 C 259.3 46.9 259.26 46.34 259.3 46.3 C 259.3 45.5 260.7 45.3 261.2 45.3 C 263.1 45.3 263.6 46.3 263.6 47.6 C 263.6 47.6 263.6 50.5 263.6 50.5 C 263.6 50.7 263.7 50.8 263.9 50.8 C 263.85 50.8 264.4 50.8 264.4 50.8 L 264.4 51.5 C 264.4 51.5 263.53 51.5 263.5 51.5 C 263 51.5 262.8 51.3 262.8 50.8 C 262.8 50.5 262.8 50.3 262.8 50.3 C 262.8 50.3 262.8 50.3 262.8 50.3 C 262.8 50.3 262.3 51.6 260.8 51.6 C 259.8 51.6 258.7 51.1 258.7 49.9 C 258.7 47.9 261.4 47.8 262.4 47.8 Z M 260.9 51 C 262.1 51 262.8 49.8 262.8 48.7 C 262.77 48.71 262.8 48.4 262.8 48.4 C 262.8 48.4 262.42 48.43 262.4 48.4 C 261.5 48.4 259.6 48.5 259.6 49.8 C 259.6 50.4 260 51 260.9 51 Z M 265.7 46.2 L 264.9 46.2 L 264.9 45.5 L 265.7 45.5 L 265.7 43.8 L 266.5 43.8 L 266.5 45.5 L 268.1 45.5 L 268.1 46.2 L 266.5 46.2 C 266.5 46.2 266.54 49.22 266.5 49.2 C 266.5 50.6 267.4 50.8 267.9 50.8 C 268.06 50.82 268.2 50.8 268.2 50.8 L 268.2 51.5 C 268.2 51.5 268.03 51.55 267.8 51.6 C 267.1 51.6 265.7 51.3 265.7 49.3 C 265.72 49.31 265.7 46.2 265.7 46.2 Z M 269.6 44 C 269.6 43.9 269.5 43.8 269.3 43.8 C 269.29 43.78 268.8 43.8 268.8 43.8 L 268.8 43.1 C 268.8 43.1 269.64 43.07 269.6 43.1 C 270.2 43.1 270.4 43.2 270.4 43.8 C 270.37 43.76 270.4 47.8 270.4 47.8 C 270.4 47.8 270.99 47.77 271 47.8 C 271.2 47.8 271.5 47.7 271.7 47.5 C 271.68 47.48 273.2 45.5 273.2 45.5 L 274.2 45.5 C 274.2 45.5 272.48 47.68 272.5 47.7 C 272.18 48.05 272 48.1 272 48.1 L 272 48.1 C 272 48.1 272.2 48.22 272.4 48.6 C 272.4 48.6 273.5 50.5 273.5 50.5 C 273.6 50.7 273.7 50.8 274 50.8 C 274.04 50.8 274.4 50.8 274.4 50.8 L 274.4 51.5 C 274.4 51.5 273.8 51.5 273.8 51.5 C 273.2 51.5 273 51.4 272.8 50.9 C 272.8 50.9 271.6 48.7 271.6 48.7 C 271.4 48.5 271.1 48.5 270.9 48.5 C 270.92 48.48 270.4 48.5 270.4 48.5 L 270.4 51.5 L 269.6 51.5 C 269.6 51.5 269.55 44.04 269.6 44 Z M 275.8 53.3 C 276.3 53.3 276.7 52.9 276.9 52.3 C 276.88 52.31 277.2 51.5 277.2 51.5 C 277.2 51.5 275.12 46.45 275.1 46.5 C 275 46.2 274.9 46.2 274.7 46.2 C 274.7 46.18 274.6 46.2 274.6 46.2 L 274.6 45.5 C 274.6 45.5 274.95 45.47 275 45.5 C 275.5 45.5 275.7 45.6 275.9 46.1 C 275.9 46.1 277.4 49.9 277.4 49.9 C 277.54 50.2 277.6 50.5 277.6 50.5 L 277.7 50.5 C 277.7 50.5 277.75 50.2 277.9 49.9 C 277.9 49.9 279.4 46.1 279.4 46.1 C 279.6 45.6 279.7 45.5 280.3 45.5 C 280.29 45.47 280.7 45.5 280.7 45.5 L 280.7 46.2 C 280.7 46.2 280.54 46.18 280.5 46.2 C 280.3 46.2 280.2 46.2 280.1 46.5 C 280.1 46.5 277.5 52.8 277.5 52.8 C 277.2 53.5 276.6 54 275.8 54 C 274.95 54.02 274.5 53.4 274.5 53.4 C 274.5 53.4 274.87 52.84 274.9 52.8 C 274.9 52.8 275.3 53.3 275.8 53.3 Z M 284.9 50 C 284.9 50 285.61 50.94 286.8 50.9 C 287.5 50.9 288.1 50.6 288.1 50 C 288.1 48.7 284.7 48.9 284.7 47 C 284.7 45.9 285.6 45.3 286.8 45.3 C 287.4 45.3 288.7 45.6 288.7 46.4 C 288.67 46.42 288.7 46.9 288.7 46.9 L 287.9 46.9 C 287.9 46.9 287.9 46.64 287.9 46.6 C 287.9 46.2 287.3 46 286.9 46 C 286 46 285.5 46.3 285.5 46.9 C 285.5 48.3 288.9 48 288.9 50 C 288.9 51 288 51.6 286.8 51.6 C 285.21 51.65 284.5 50.6 284.5 50.6 L 284.9 50 Z M 293.6 47.8 C 293.58 47.78 293.9 47.8 293.9 47.8 C 293.9 47.8 293.91 47.71 293.9 47.7 C 293.9 46.5 293.5 46 292.4 46 C 292.1 46 291.2 46.1 291.2 46.5 C 291.17 46.54 291.2 46.9 291.2 46.9 L 290.4 46.9 C 290.4 46.9 290.4 46.34 290.4 46.3 C 290.4 45.5 291.8 45.3 292.4 45.3 C 294.3 45.3 294.7 46.3 294.7 47.6 C 294.7 47.6 294.7 50.5 294.7 50.5 C 294.7 50.7 294.8 50.8 295 50.8 C 294.99 50.8 295.5 50.8 295.5 50.8 L 295.5 51.5 C 295.5 51.5 294.67 51.5 294.7 51.5 C 294.2 51.5 293.9 51.3 293.9 50.8 C 293.9 50.5 294 50.3 294 50.3 C 294 50.3 293.9 50.3 293.9 50.3 C 293.9 50.3 293.4 51.6 291.9 51.6 C 290.9 51.6 289.9 51.1 289.9 49.9 C 289.9 47.9 292.5 47.8 293.6 47.8 Z M 292.1 51 C 293.2 51 293.9 49.8 293.9 48.7 C 293.91 48.71 293.9 48.4 293.9 48.4 C 293.9 48.4 293.56 48.43 293.6 48.4 C 292.6 48.4 290.7 48.5 290.7 49.8 C 290.7 50.4 291.2 51 292.1 51 Z M 302.2 45.3 C 303.69 45.32 304.2 46.5 304.2 46.5 L 304.2 46.5 C 304.2 46.5 304.2 46.25 304.2 46 C 304.2 46 304.2 44 304.2 44 C 304.2 43.9 304.1 43.8 303.9 43.8 C 303.93 43.78 303.4 43.8 303.4 43.8 L 303.4 43.1 C 303.4 43.1 304.28 43.07 304.3 43.1 C 304.8 43.1 305 43.3 305 43.8 C 305 43.8 305 50.5 305 50.5 C 305 50.7 305.1 50.8 305.3 50.8 C 305.27 50.8 305.8 50.8 305.8 50.8 L 305.8 51.5 C 305.8 51.5 304.94 51.5 304.9 51.5 C 304.4 51.5 304.2 51.3 304.2 50.8 C 304.2 50.6 304.2 50.4 304.2 50.4 C 304.24 50.45 304.2 50.4 304.2 50.4 C 304.2 50.4 303.73 51.65 302.1 51.6 C 300.5 51.6 299.5 50.4 299.5 48.5 C 299.5 46.6 300.6 45.3 302.2 45.3 Z M 304.2 48.5 C 304.2 47.3 303.6 46.1 302.3 46.1 C 301.2 46.1 300.4 47 300.4 48.5 C 300.4 50 301.1 50.9 302.3 50.9 C 303.3 50.9 304.2 50.2 304.2 48.5 Z M 309.7 45.3 C 311.5 45.3 312.9 46.7 312.9 48.5 C 312.9 50.3 311.5 51.6 309.7 51.6 C 308 51.6 306.5 50.3 306.5 48.5 C 306.5 46.7 308 45.3 309.7 45.3 Z M 309.7 50.9 C 311 50.9 312.1 49.9 312.1 48.5 C 312.1 47.1 311 46.1 309.7 46.1 C 308.4 46.1 307.4 47.1 307.4 48.5 C 307.4 49.9 308.4 50.9 309.7 50.9 Z M 314.2 50 C 314.2 50 314.89 50.94 316.1 50.9 C 316.7 50.9 317.3 50.6 317.3 50 C 317.3 48.7 314 48.9 314 47 C 314 45.9 314.9 45.3 316.1 45.3 C 316.7 45.3 317.9 45.6 317.9 46.4 C 317.95 46.42 317.9 46.9 317.9 46.9 L 317.2 46.9 C 317.2 46.9 317.18 46.64 317.2 46.6 C 317.2 46.2 316.5 46 316.1 46 C 315.3 46 314.8 46.3 314.8 46.9 C 314.8 48.3 318.2 48 318.2 50 C 318.2 51 317.3 51.6 316.1 51.6 C 314.49 51.65 313.7 50.6 313.7 50.6 L 314.2 50 Z M 319.8 46.2 L 319 46.2 L 319 45.5 L 319.8 45.5 L 319.8 43.8 L 320.6 43.8 L 320.6 45.5 L 322.1 45.5 L 322.1 46.2 L 320.6 46.2 C 320.6 46.2 320.61 49.22 320.6 49.2 C 320.6 50.6 321.5 50.8 322 50.8 C 322.13 50.82 322.2 50.8 322.2 50.8 L 322.2 51.5 C 322.2 51.5 322.1 51.55 321.9 51.6 C 321.2 51.6 319.8 51.3 319.8 49.3 C 319.8 49.31 319.8 46.2 319.8 46.2 Z M 326.8 47.8 C 326.79 47.78 327.1 47.8 327.1 47.8 C 327.1 47.8 327.13 47.71 327.1 47.7 C 327.1 46.5 326.7 46 325.6 46 C 325.3 46 324.4 46.1 324.4 46.5 C 324.39 46.54 324.4 46.9 324.4 46.9 L 323.6 46.9 C 323.6 46.9 323.61 46.34 323.6 46.3 C 323.6 45.5 325.1 45.3 325.6 45.3 C 327.5 45.3 327.9 46.3 327.9 47.6 C 327.9 47.6 327.9 50.5 327.9 50.5 C 327.9 50.7 328 50.8 328.2 50.8 C 328.21 50.8 328.7 50.8 328.7 50.8 L 328.7 51.5 C 328.7 51.5 327.88 51.5 327.9 51.5 C 327.4 51.5 327.2 51.3 327.2 50.8 C 327.2 50.5 327.2 50.3 327.2 50.3 C 327.2 50.3 327.2 50.3 327.2 50.3 C 327.2 50.3 326.7 51.6 325.1 51.6 C 324.1 51.6 323.1 51.1 323.1 49.9 C 323.1 47.9 325.7 47.8 326.8 47.8 Z M 325.3 51 C 326.4 51 327.1 49.8 327.1 48.7 C 327.13 48.71 327.1 48.4 327.1 48.4 C 327.1 48.4 326.78 48.43 326.8 48.4 C 325.8 48.4 323.9 48.5 323.9 49.8 C 323.9 50.4 324.4 51 325.3 51 Z M 326.2 43.1 L 327.1 43.1 L 326.1 44.5 L 325.4 44.5 L 326.2 43.1 Z M 329.5 46.5 C 329.4 46.2 329.3 46.2 329.1 46.2 C 329.1 46.18 329 46.2 329 46.2 L 329 45.5 C 329 45.5 329.31 45.47 329.3 45.5 C 329.9 45.5 330.1 45.6 330.3 46.1 C 330.3 46.1 331.7 49.9 331.7 49.9 C 331.83 50.2 331.9 50.6 331.9 50.6 L 332 50.6 C 332 50.6 332.05 50.2 332.2 49.9 C 332.2 49.9 333.6 46.1 333.6 46.1 C 333.8 45.6 334 45.5 334.6 45.5 C 334.55 45.47 334.9 45.5 334.9 45.5 L 334.9 46.2 C 334.9 46.2 334.76 46.18 334.8 46.2 C 334.5 46.2 334.4 46.2 334.3 46.5 C 334.34 46.45 332.4 51.5 332.4 51.5 L 331.5 51.5 C 331.5 51.5 329.52 46.45 329.5 46.5 Z M 339.2 47.8 C 339.15 47.78 339.5 47.8 339.5 47.8 C 339.5 47.8 339.49 47.71 339.5 47.7 C 339.5 46.5 339 46 337.9 46 C 337.6 46 336.8 46.1 336.8 46.5 C 336.75 46.54 336.8 46.9 336.8 46.9 L 336 46.9 C 336 46.9 335.97 46.34 336 46.3 C 336 45.5 337.4 45.3 337.9 45.3 C 339.8 45.3 340.3 46.3 340.3 47.6 C 340.3 47.6 340.3 50.5 340.3 50.5 C 340.3 50.7 340.4 50.8 340.6 50.8 C 340.57 50.8 341.1 50.8 341.1 50.8 L 341.1 51.5 C 341.1 51.5 340.24 51.5 340.2 51.5 C 339.7 51.5 339.5 51.3 339.5 50.8 C 339.5 50.5 339.5 50.3 339.5 50.3 C 339.5 50.3 339.5 50.3 339.5 50.3 C 339.5 50.3 339 51.6 337.5 51.6 C 336.5 51.6 335.5 51.1 335.5 49.9 C 335.5 47.9 338.1 47.8 339.2 47.8 Z M 337.6 51 C 338.8 51 339.5 49.8 339.5 48.7 C 339.49 48.71 339.5 48.4 339.5 48.4 C 339.5 48.4 339.14 48.43 339.1 48.4 C 338.2 48.4 336.3 48.5 336.3 49.8 C 336.3 50.4 336.7 51 337.6 51 Z M 348.2 45.3 C 348.9 45.3 350.4 45.6 350.4 46.6 C 350.39 46.61 350.4 47.1 350.4 47.1 L 349.6 47.1 C 349.6 47.1 349.63 46.8 349.6 46.8 C 349.6 46.3 348.8 46.1 348.2 46.1 C 347 46.1 345.9 47 345.9 48.5 C 345.9 50 347 50.9 348.3 50.9 C 349.51 50.9 350.2 50.1 350.2 50.1 L 350.6 50.7 C 350.6 50.7 349.78 51.65 348.2 51.6 C 346.4 51.6 345.1 50.4 345.1 48.5 C 345.1 46.6 346.4 45.3 348.2 45.3 Z M 354.4 45.3 C 356 45.3 356.9 46.6 356.9 48.1 C 356.91 48.25 356.9 48.5 356.9 48.5 C 356.9 48.5 352.25 48.52 352.3 48.5 C 352.3 50 353.3 50.9 354.6 50.9 C 355.7 50.92 356.4 50.2 356.4 50.2 L 356.8 50.8 C 356.8 50.8 355.93 51.65 354.6 51.6 C 352.8 51.6 351.4 50.4 351.4 48.5 C 351.4 46.5 352.8 45.3 354.4 45.3 Z M 356.1 47.9 C 356 46.6 355.3 46 354.4 46 C 353.4 46 352.5 46.7 352.3 47.9 C 352.3 47.9 356.1 47.9 356.1 47.9 Z M 358 51 C 358 51 361.36 46.74 361.4 46.7 C 361.59 46.45 361.8 46.2 361.8 46.2 L 361.8 46.2 C 361.8 46.2 361.64 46.19 361.2 46.2 C 361.2 46.2 359 46.2 359 46.2 C 358.9 46.2 358.8 46.3 358.8 46.5 C 358.77 46.45 358.8 46.9 358.8 46.9 L 358 46.9 C 358 46.9 358 46.2 358 46.2 C 358 45.7 358.2 45.5 358.7 45.5 C 358.73 45.47 362.9 45.5 362.9 45.5 L 362.9 46 C 362.9 46 359.54 50.23 359.5 50.2 C 359.3 50.52 359 50.8 359 50.8 L 359 50.8 C 359 50.8 359.25 50.78 359.6 50.8 C 359.6 50.8 362.1 50.8 362.1 50.8 C 362.3 50.8 362.4 50.7 362.4 50.5 C 362.41 50.52 362.4 50.1 362.4 50.1 L 363.2 50.1 C 363.2 50.1 363.17 50.77 363.2 50.8 C 363.2 51.3 363 51.5 362.4 51.5 C 362.44 51.5 358 51.5 358 51.5 L 358 51 Z M 367.8 46.4 C 367.8 46.3 367.7 46.2 367.5 46.2 C 367.53 46.18 367 46.2 367 46.2 L 367 45.5 C 367 45.5 367.86 45.47 367.9 45.5 C 368.4 45.5 368.6 45.7 368.6 46.1 C 368.6 46.3 368.6 46.5 368.6 46.5 C 368.56 46.51 368.6 46.5 368.6 46.5 C 368.6 46.5 369.07 45.32 370.7 45.3 C 372.3 45.3 373.3 46.6 373.3 48.5 C 373.3 50.4 372.2 51.6 370.6 51.6 C 369.11 51.65 368.6 50.5 368.6 50.5 L 368.6 50.5 C 368.6 50.5 368.61 50.72 368.6 51 C 368.61 51.04 368.6 53.9 368.6 53.9 L 367.8 53.9 C 367.8 53.9 367.8 46.44 367.8 46.4 Z M 370.5 50.9 C 371.6 50.9 372.5 50 372.5 48.5 C 372.5 47 371.7 46.1 370.5 46.1 C 369.5 46.1 368.6 46.8 368.6 48.5 C 368.6 49.7 369.2 50.9 370.5 50.9 Z M 374.7 44 C 374.7 43.9 374.6 43.8 374.5 43.8 C 374.46 43.78 374 43.8 374 43.8 L 374 43.1 C 374 43.1 374.8 43.07 374.8 43.1 C 375.3 43.1 375.5 43.3 375.5 43.8 C 375.5 43.8 375.5 50.5 375.5 50.5 C 375.5 50.7 375.6 50.8 375.8 50.8 C 375.8 50.8 376.3 50.8 376.3 50.8 L 376.3 51.5 C 376.3 51.5 375.45 51.5 375.4 51.5 C 374.9 51.5 374.7 51.3 374.7 50.8 C 374.7 50.8 374.7 44 374.7 44 Z M 380.8 47.8 C 380.8 47.78 381.1 47.8 381.1 47.8 C 381.1 47.8 381.14 47.71 381.1 47.7 C 381.1 46.5 380.7 46 379.6 46 C 379.3 46 378.4 46.1 378.4 46.5 C 378.4 46.54 378.4 46.9 378.4 46.9 L 377.6 46.9 C 377.6 46.9 377.62 46.34 377.6 46.3 C 377.6 45.5 379.1 45.3 379.6 45.3 C 381.5 45.3 382 46.3 382 47.6 C 382 47.6 382 50.5 382 50.5 C 382 50.7 382 50.8 382.2 50.8 C 382.22 50.8 382.7 50.8 382.7 50.8 L 382.7 51.5 C 382.7 51.5 381.89 51.5 381.9 51.5 C 381.4 51.5 381.2 51.3 381.2 50.8 C 381.2 50.5 381.2 50.3 381.2 50.3 C 381.2 50.3 381.2 50.3 381.2 50.3 C 381.2 50.3 380.7 51.6 379.2 51.6 C 378.1 51.6 377.1 51.1 377.1 49.9 C 377.1 47.9 379.8 47.8 380.8 47.8 Z M 379.3 51 C 380.4 51 381.1 49.8 381.1 48.7 C 381.14 48.71 381.1 48.4 381.1 48.4 C 381.1 48.4 380.79 48.43 380.8 48.4 C 379.8 48.4 377.9 48.5 377.9 49.8 C 377.9 50.4 378.4 51 379.3 51 Z M 386.6 45.3 C 387.3 45.3 388.8 45.6 388.8 46.6 C 388.78 46.61 388.8 47.1 388.8 47.1 L 388 47.1 C 388 47.1 388.01 46.8 388 46.8 C 388 46.3 387.1 46.1 386.6 46.1 C 385.3 46.1 384.3 47 384.3 48.5 C 384.3 50 385.4 50.9 386.7 50.9 C 387.89 50.9 388.6 50.1 388.6 50.1 L 389 50.7 C 389 50.7 388.17 51.65 386.6 51.6 C 384.8 51.6 383.5 50.4 383.5 48.5 C 383.5 46.6 384.8 45.3 386.6 45.3 Z M 392.8 45.3 C 394.4 45.3 395.3 46.6 395.3 48.1 C 395.3 48.25 395.3 48.5 395.3 48.5 C 395.3 48.5 390.64 48.52 390.6 48.5 C 390.7 50 391.7 50.9 393 50.9 C 394.09 50.92 394.8 50.2 394.8 50.2 L 395.2 50.8 C 395.2 50.8 394.31 51.65 392.9 51.6 C 391.2 51.6 389.8 50.4 389.8 48.5 C 389.8 46.5 391.1 45.3 392.8 45.3 Z M 394.5 47.9 C 394.4 46.6 393.6 46 392.8 46 C 391.8 46 390.9 46.7 390.7 47.9 C 390.7 47.9 394.5 47.9 394.5 47.9 Z M 396.9 46.4 C 396.9 46.3 396.8 46.2 396.7 46.2 C 396.67 46.18 396.2 46.2 396.2 46.2 L 396.2 45.5 C 396.2 45.5 397 45.47 397 45.5 C 397.5 45.5 397.7 45.7 397.7 46.1 C 397.7 46.1 397.7 46.4 397.7 46.4 C 397.73 46.66 397.7 46.8 397.7 46.8 C 397.7 46.8 397.73 46.85 397.7 46.8 C 397.9 46.3 398.7 45.3 400.1 45.3 C 401.6 45.3 402.2 46.2 402.2 47.7 C 402.2 47.7 402.2 50.5 402.2 50.5 C 402.2 50.7 402.3 50.8 402.4 50.8 C 402.43 50.8 402.9 50.8 402.9 50.8 L 402.9 51.5 C 402.9 51.5 402.08 51.5 402.1 51.5 C 401.6 51.5 401.3 51.3 401.3 50.8 C 401.3 50.8 401.3 47.9 401.3 47.9 C 401.3 46.9 401.2 46.1 400 46.1 C 399 46.1 398.1 46.8 397.8 47.8 C 397.8 48 397.7 48.3 397.7 48.6 C 397.75 48.61 397.7 51.5 397.7 51.5 L 396.9 51.5 C 396.9 51.5 396.93 46.44 396.9 46.4 Z M 404.3 46.2 L 403.5 46.2 L 403.5 45.5 L 404.3 45.5 L 404.3 43.8 L 405.1 43.8 L 405.1 45.5 L 406.6 45.5 L 406.6 46.2 L 405.1 46.2 C 405.1 46.2 405.11 49.22 405.1 49.2 C 405.1 50.6 406 50.8 406.5 50.8 C 406.64 50.82 406.7 50.8 406.7 50.8 L 406.7 51.5 C 406.7 51.5 406.6 51.55 406.4 51.6 C 405.7 51.6 404.3 51.3 404.3 49.3 C 404.3 49.31 404.3 46.2 404.3 46.2 Z M 408.2 46.4 C 408.2 46.3 408.1 46.2 408 46.2 C 407.96 46.18 407.5 46.2 407.5 46.2 L 407.5 45.5 C 407.5 45.5 408.31 45.47 408.3 45.5 C 408.8 45.5 409 45.7 409 46.2 C 409 46.2 409 49.1 409 49.1 C 409 50 409.2 50.9 410.4 50.9 C 411.7 50.9 412.6 49.7 412.6 48.4 C 412.58 48.36 412.6 45.5 412.6 45.5 L 413.4 45.5 C 413.4 45.5 413.39 50.53 413.4 50.5 C 413.4 50.7 413.5 50.8 413.7 50.8 C 413.66 50.8 414.2 50.8 414.2 50.8 L 414.2 51.5 C 414.2 51.5 413.33 51.5 413.3 51.5 C 412.8 51.5 412.6 51.3 412.6 50.8 C 412.6 50.8 412.6 50.6 412.6 50.6 C 412.6 50.3 412.6 50.1 412.6 50.1 C 412.6 50.1 412.6 50.1 412.6 50.1 C 412.4 50.7 411.6 51.6 410.2 51.6 C 408.8 51.6 408.2 50.9 408.2 49.3 C 408.2 49.3 408.2 46.4 408.2 46.4 Z M 415.3 50.5 L 416.2 50.5 L 416.2 51.5 L 415.3 51.5 L 415.3 50.5 Z " stroke="none" fill="#000"/>  </g>  <g id="Polygon71340">    <path d="M 1 21.4 C 1 21.3 0.9 21.2 0.7 21.2 C 0.73 21.18 0.3 21.2 0.3 21.2 L 0.3 19.9 C 0.3 19.9 1.61 19.88 1.6 19.9 C 2.2 19.9 2.4 20.1 2.4 20.5 C 2.4 20.6 2.4 20.7 2.4 20.7 C 2.38 20.71 2.4 20.7 2.4 20.7 C 2.4 20.7 2.92 19.74 4.3 19.7 C 6 19.7 7.1 21 7.1 22.9 C 7.1 24.9 5.9 26.1 4.3 26.1 C 3.05 26.14 2.5 25.3 2.5 25.3 L 2.5 25.3 C 2.5 25.3 2.51 25.56 2.5 25.9 C 2.51 25.87 2.5 28.4 2.5 28.4 L 1 28.4 C 1 28.4 1 21.44 1 21.4 Z M 4 24.9 C 4.8 24.9 5.5 24.2 5.5 23 C 5.5 21.8 4.9 21 4 21 C 3.2 21 2.5 21.6 2.5 23 C 2.5 23.9 3 24.9 4 24.9 Z M 8.4 21.4 C 8.4 21.3 8.4 21.2 8.2 21.2 C 8.18 21.18 7.7 21.2 7.7 21.2 L 7.7 19.9 C 7.7 19.9 9.1 19.88 9.1 19.9 C 9.6 19.9 9.9 20.1 9.9 20.6 C 9.9 20.6 9.9 21 9.9 21 C 9.91 21.21 9.9 21.4 9.9 21.4 C 9.9 21.4 9.91 21.37 9.9 21.4 C 10.2 20.5 10.9 19.8 11.9 19.8 C 11.99 19.8 12.1 19.8 12.1 19.8 L 12.1 21.3 C 12.1 21.3 11.98 21.3 11.8 21.3 C 11.1 21.3 10.4 21.7 10.1 22.6 C 10 22.9 10 23.2 10 23.6 C 9.96 23.58 10 26 10 26 L 8.4 26 C 8.4 26 8.45 21.44 8.4 21.4 Z M 15.9 19.7 C 17.8 19.7 19.3 21.1 19.3 22.9 C 19.3 24.8 17.8 26.1 15.9 26.1 C 14 26.1 12.6 24.8 12.6 22.9 C 12.6 21.1 14 19.7 15.9 19.7 Z M 15.9 24.8 C 16.9 24.8 17.7 24.1 17.7 22.9 C 17.7 21.8 16.9 21 15.9 21 C 14.9 21 14.1 21.8 14.1 22.9 C 14.1 24.1 14.9 24.8 15.9 24.8 Z M 22.8 19.7 C 24.14 19.74 24.6 20.5 24.6 20.5 L 24.6 20.5 C 24.6 20.5 24.59 20.32 24.6 20.1 C 24.6 20.1 24.6 19 24.6 19 C 24.6 18.9 24.5 18.8 24.3 18.8 C 24.32 18.78 23.8 18.8 23.8 18.8 L 23.8 17.5 C 23.8 17.5 25.3 17.48 25.3 17.5 C 25.9 17.5 26.1 17.7 26.1 18.3 C 26.1 18.3 26.1 24.5 26.1 24.5 C 26.1 24.6 26.2 24.7 26.4 24.7 C 26.37 24.72 26.8 24.7 26.8 24.7 L 26.8 26 C 26.8 26 25.44 26 25.4 26 C 24.9 26 24.7 25.7 24.7 25.4 C 24.7 25.2 24.7 25.1 24.7 25.1 C 24.68 25.15 24.7 25.1 24.7 25.1 C 24.7 25.1 24.16 26.14 22.8 26.1 C 21.1 26.1 20 24.8 20 22.9 C 20 21 21.2 19.7 22.8 19.7 Z M 24.6 22.9 C 24.6 22 24.1 21 23.1 21 C 22.3 21 21.6 21.7 21.6 22.9 C 21.6 24.1 22.2 24.9 23.1 24.9 C 23.9 24.9 24.6 24.3 24.6 22.9 Z M 28.1 21.4 C 28.1 21.3 28 21.2 27.8 21.2 C 27.82 21.18 27.3 21.2 27.3 21.2 L 27.3 19.9 C 27.3 19.9 28.79 19.88 28.8 19.9 C 29.4 19.9 29.6 20.1 29.6 20.7 C 29.6 20.7 29.6 23.5 29.6 23.5 C 29.6 24.2 29.8 24.8 30.5 24.8 C 31.6 24.8 32.3 23.8 32.3 22.7 C 32.26 22.69 32.3 19.9 32.3 19.9 L 33.8 19.9 C 33.8 19.9 33.78 24.45 33.8 24.5 C 33.8 24.6 33.9 24.7 34 24.7 C 34.04 24.72 34.5 24.7 34.5 24.7 L 34.5 26 C 34.5 26 33.12 26 33.1 26 C 32.6 26 32.3 25.7 32.3 25.3 C 32.3 25.3 32.3 25.1 32.3 25.1 C 32.3 25 32.3 24.9 32.3 24.9 C 32.3 24.9 32.3 24.9 32.3 24.9 C 32 25.5 31.2 26.1 30.2 26.1 C 28.9 26.1 28.1 25.5 28.1 23.8 C 28.1 23.8 28.1 21.4 28.1 21.4 Z M 35.7 19 C 35.7 18.9 35.6 18.8 35.4 18.8 C 35.45 18.78 35 18.8 35 18.8 L 35 17.5 C 35 17.5 36.42 17.48 36.4 17.5 C 37 17.5 37.2 17.6 37.2 18.2 C 37.23 18.18 37.2 22 37.2 22 C 37.2 22 37.69 22.04 37.7 22 C 37.9 22 38.1 22 38.3 21.8 C 38.27 21.81 39.5 19.9 39.5 19.9 L 41.2 19.9 C 41.2 19.9 39.66 22.18 39.7 22.2 C 39.39 22.57 39.2 22.7 39.2 22.7 L 39.2 22.7 C 39.2 22.7 39.42 22.77 39.6 23.2 C 39.6 23.2 40.3 24.5 40.3 24.5 C 40.4 24.7 40.5 24.7 40.8 24.7 C 40.83 24.72 41.2 24.7 41.2 24.7 L 41.2 26 C 41.2 26 40.11 26 40.1 26 C 39.6 26 39.4 25.9 39.2 25.5 C 39.2 25.5 38.1 23.6 38.1 23.6 C 38 23.3 37.8 23.3 37.6 23.3 C 37.57 23.32 37.2 23.3 37.2 23.3 L 37.2 26 L 35.7 26 C 35.7 26 35.71 19.04 35.7 19 Z M 45 19.7 C 46.9 19.7 48.4 21.1 48.4 22.9 C 48.4 24.8 46.9 26.1 45 26.1 C 43.2 26.1 41.7 24.8 41.7 22.9 C 41.7 21.1 43.2 19.7 45 19.7 Z M 45 24.8 C 46 24.8 46.9 24.1 46.9 22.9 C 46.9 21.8 46 21 45 21 C 44.1 21 43.2 21.8 43.2 22.9 C 43.2 24.1 44.1 24.8 45 24.8 Z M 49.3 21.4 C 49.2 21.2 49.1 21.2 48.9 21.2 C 48.94 21.18 48.8 21.2 48.8 21.2 L 48.8 19.9 C 48.8 19.9 49.68 19.88 49.7 19.9 C 50.2 19.9 50.4 20 50.6 20.5 C 50.6 20.5 51.7 23.7 51.7 23.7 C 51.86 24.03 52 24.5 52 24.5 L 52 24.5 C 52 24.5 52.08 24.03 52.2 23.7 C 52.2 23.7 53.4 20.5 53.4 20.5 C 53.5 20 53.8 19.9 54.3 19.9 C 54.25 19.88 55.1 19.9 55.1 19.9 L 55.1 21.2 C 55.1 21.2 54.92 21.18 54.9 21.2 C 54.8 21.2 54.6 21.2 54.6 21.4 C 54.59 21.39 52.8 26 52.8 26 L 51 26 C 51 26 49.27 21.39 49.3 21.4 Z M 59.2 22.2 C 59.17 22.16 59.4 22.2 59.4 22.2 C 59.4 22.2 59.36 22.11 59.4 22.1 C 59.4 21.2 59 20.9 58.2 20.9 C 58 20.9 57.4 21 57.4 21.3 C 57.42 21.32 57.4 21.6 57.4 21.6 L 56 21.6 C 56 21.6 56 21 56 21 C 56 19.9 57.6 19.7 58.2 19.7 C 60.3 19.7 60.9 20.8 60.9 22.2 C 60.9 22.2 60.9 24.5 60.9 24.5 C 60.9 24.6 61 24.7 61.2 24.7 C 61.15 24.72 61.6 24.7 61.6 24.7 L 61.6 26 C 61.6 26 60.26 26 60.3 26 C 59.7 26 59.5 25.7 59.5 25.3 C 59.5 25.2 59.5 25.1 59.5 25.1 C 59.5 25.06 59.5 25.1 59.5 25.1 C 59.5 25.1 59 26.14 57.6 26.1 C 56.5 26.1 55.5 25.5 55.5 24.2 C 55.5 22.3 58.2 22.2 59.2 22.2 Z M 58 25 C 58.8 25 59.4 24.1 59.4 23.3 C 59.39 23.35 59.4 23.2 59.4 23.2 C 59.4 23.2 59.12 23.2 59.1 23.2 C 58.3 23.2 57.1 23.3 57.1 24.2 C 57.1 24.6 57.4 25 58 25 Z M 62.9 21.4 C 62.9 21.3 62.8 21.2 62.6 21.2 C 62.59 21.18 62.1 21.2 62.1 21.2 L 62.1 19.9 C 62.1 19.9 63.52 19.88 63.5 19.9 C 64.1 19.9 64.3 20.1 64.3 20.6 C 64.3 20.6 64.3 20.7 64.3 20.7 C 64.3 20.9 64.3 21 64.3 21 C 64.3 21 64.3 21 64.3 21 C 64.6 20.5 65.2 19.7 66.5 19.7 C 67.8 19.7 68.6 20.4 68.6 22.1 C 68.6 22.1 68.6 24.5 68.6 24.5 C 68.6 24.6 68.7 24.7 68.9 24.7 C 68.88 24.72 69.4 24.7 69.4 24.7 L 69.4 26 C 69.4 26 67.91 26 67.9 26 C 67.3 26 67.1 25.8 67.1 25.2 C 67.1 25.2 67.1 22.4 67.1 22.4 C 67.1 21.6 66.9 21.1 66.1 21.1 C 65.3 21.1 64.7 21.6 64.5 22.4 C 64.4 22.6 64.4 22.9 64.4 23.2 C 64.37 23.19 64.4 26 64.4 26 L 62.9 26 C 62.9 26 62.86 21.44 62.9 21.4 Z M 70.9 27.2 C 71.4 27.2 71.7 27 71.9 26.5 C 71.94 26.46 72.1 26 72.1 26 C 72.1 26 70.1 21.39 70.1 21.4 C 70 21.2 69.9 21.2 69.8 21.2 C 69.78 21.18 69.6 21.2 69.6 21.2 L 69.6 19.9 C 69.6 19.9 70.61 19.88 70.6 19.9 C 71 19.9 71.3 20 71.4 20.5 C 71.4 20.5 72.6 23.5 72.6 23.5 C 72.73 23.83 72.8 24.3 72.8 24.3 L 72.9 24.3 C 72.9 24.3 72.95 23.83 73.1 23.5 C 73.1 23.5 74.1 20.5 74.1 20.5 C 74.2 20 74.5 19.9 74.9 19.9 C 74.91 19.88 75.9 19.9 75.9 19.9 L 75.9 21.2 C 75.9 21.2 75.77 21.18 75.8 21.2 C 75.6 21.2 75.5 21.2 75.4 21.4 C 75.4 21.4 73.2 26.9 73.2 26.9 C 72.8 28 71.9 28.5 71 28.5 C 70.06 28.52 69.5 27.9 69.5 27.9 L 70.1 26.8 C 70.1 26.8 70.43 27.24 70.9 27.2 Z M 73.1 17.5 L 74.6 17.5 L 73.3 19.1 L 72.2 19.1 L 73.1 17.5 Z M 80.3 21.1 L 79.5 21.1 L 79.5 19.9 L 80.3 19.9 C 80.3 19.9 80.27 19.7 80.3 19.7 C 80.3 17.7 81.9 17.4 82.8 17.4 C 83.1 17.4 83.3 17.5 83.3 17.5 C 83.28 17.48 83.3 18.8 83.3 18.8 C 83.3 18.8 83.15 18.74 83 18.7 C 82.5 18.7 81.8 18.8 81.8 19.7 C 81.79 19.74 81.8 19.9 81.8 19.9 L 83.1 19.9 L 83.1 21.1 L 81.8 21.1 L 81.8 26 L 80.3 26 L 80.3 21.1 Z M 86.6 19.7 C 88.4 19.7 89.4 21 89.4 22.6 C 89.35 22.82 89.3 23.2 89.3 23.2 C 89.3 23.2 85.09 23.2 85.1 23.2 C 85.2 24.3 86 24.8 86.9 24.8 C 87.91 24.85 88.6 24.2 88.6 24.2 L 89.3 25.2 C 89.3 25.2 88.34 26.14 86.8 26.1 C 84.8 26.1 83.5 24.7 83.5 22.9 C 83.5 21.1 84.8 19.7 86.6 19.7 Z M 87.8 22.1 C 87.8 21.4 87.3 20.9 86.6 20.9 C 85.9 20.9 85.3 21.4 85.1 22.1 C 85.1 22.1 87.8 22.1 87.8 22.1 Z M 90.9 21.1 L 90.1 21.1 L 90.1 19.9 L 90.9 19.9 L 90.9 18.2 L 92.4 18.2 L 92.4 19.9 L 93.8 19.9 L 93.8 21.1 L 92.4 21.1 C 92.4 21.1 92.37 23.56 92.4 23.6 C 92.4 24.6 93.2 24.7 93.6 24.7 C 93.75 24.72 93.9 24.7 93.9 24.7 L 93.9 26 C 93.9 26 93.67 26.06 93.4 26.1 C 92.5 26.1 90.9 25.8 90.9 23.8 C 90.85 23.76 90.9 21.1 90.9 21.1 Z M 98.3 22.2 C 98.27 22.16 98.5 22.2 98.5 22.2 C 98.5 22.2 98.46 22.11 98.5 22.1 C 98.5 21.2 98.1 20.9 97.3 20.9 C 97.1 20.9 96.5 21 96.5 21.3 C 96.51 21.32 96.5 21.6 96.5 21.6 L 95.1 21.6 C 95.1 21.6 95.1 21 95.1 21 C 95.1 19.9 96.7 19.7 97.3 19.7 C 99.4 19.7 100 20.8 100 22.2 C 100 22.2 100 24.5 100 24.5 C 100 24.6 100.1 24.7 100.2 24.7 C 100.25 24.72 100.7 24.7 100.7 24.7 L 100.7 26 C 100.7 26 99.36 26 99.4 26 C 98.8 26 98.6 25.7 98.6 25.3 C 98.6 25.2 98.6 25.1 98.6 25.1 C 98.59 25.06 98.6 25.1 98.6 25.1 C 98.6 25.1 98.1 26.14 96.7 26.1 C 95.6 26.1 94.6 25.5 94.6 24.2 C 94.6 22.3 97.3 22.2 98.3 22.2 Z M 97.1 25 C 97.9 25 98.5 24.1 98.5 23.3 C 98.48 23.35 98.5 23.2 98.5 23.2 C 98.5 23.2 98.22 23.2 98.2 23.2 C 97.4 23.2 96.2 23.3 96.2 24.2 C 96.2 24.6 96.5 25 97.1 25 Z M 97.8 17.5 L 99.3 17.5 L 98 19.1 L 96.9 19.1 L 97.8 17.5 Z M 101.9 19 C 101.9 18.9 101.8 18.8 101.7 18.8 C 101.65 18.78 101.2 18.8 101.2 18.8 L 101.2 17.5 C 101.2 17.5 102.62 17.48 102.6 17.5 C 103.2 17.5 103.4 17.7 103.4 18.3 C 103.4 18.3 103.4 24.5 103.4 24.5 C 103.4 24.6 103.5 24.7 103.7 24.7 C 103.7 24.72 104.2 24.7 104.2 24.7 L 104.2 26 C 104.2 26 102.73 26 102.7 26 C 102.2 26 101.9 25.8 101.9 25.2 C 101.9 25.2 101.9 19 101.9 19 Z M 105.4 21.4 C 105.4 21.3 105.3 21.2 105.2 21.2 C 105.18 21.18 104.7 21.2 104.7 21.2 L 104.7 19.9 C 104.7 19.9 106.1 19.88 106.1 19.9 C 106.6 19.9 106.9 20.1 106.9 20.6 C 106.9 20.6 106.9 20.7 106.9 20.7 C 106.9 20.9 106.9 21 106.9 21 C 106.9 21 106.9 21 106.9 21 C 107.2 20.5 107.8 19.7 109.1 19.7 C 110.4 19.7 111.2 20.4 111.2 22.1 C 111.2 22.1 111.2 24.5 111.2 24.5 C 111.2 24.6 111.3 24.7 111.5 24.7 C 111.47 24.72 111.9 24.7 111.9 24.7 L 111.9 26 C 111.9 26 110.49 26 110.5 26 C 109.9 26 109.7 25.8 109.7 25.2 C 109.7 25.2 109.7 22.4 109.7 22.4 C 109.7 21.6 109.5 21.1 108.7 21.1 C 107.9 21.1 107.3 21.6 107.1 22.4 C 107 22.6 107 22.9 107 23.2 C 106.95 23.19 107 26 107 26 L 105.4 26 C 105.4 26 105.44 21.44 105.4 21.4 Z M 115.9 19.7 C 117.8 19.7 119.3 21.1 119.3 22.9 C 119.3 24.8 117.8 26.1 115.9 26.1 C 114 26.1 112.5 24.8 112.5 22.9 C 112.5 21.1 114 19.7 115.9 19.7 Z M 115.9 24.8 C 116.9 24.8 117.7 24.1 117.7 22.9 C 117.7 21.8 116.9 21 115.9 21 C 114.9 21 114.1 21.8 114.1 22.9 C 114.1 24.1 114.9 24.8 115.9 24.8 Z M 120.6 21.4 C 120.6 21.3 120.5 21.2 120.3 21.2 C 120.35 21.18 119.9 21.2 119.9 21.2 L 119.9 19.9 C 119.9 19.9 121.32 19.88 121.3 19.9 C 121.9 19.9 122.1 20.1 122.1 20.7 C 122.1 20.7 122.1 23.5 122.1 23.5 C 122.1 24.2 122.3 24.8 123.1 24.8 C 124.2 24.8 124.8 23.8 124.8 22.7 C 124.79 22.69 124.8 19.9 124.8 19.9 L 126.3 19.9 C 126.3 19.9 126.31 24.45 126.3 24.5 C 126.3 24.6 126.4 24.7 126.6 24.7 C 126.57 24.72 127.1 24.7 127.1 24.7 L 127.1 26 C 127.1 26 125.65 26 125.7 26 C 125.1 26 124.8 25.7 124.8 25.3 C 124.8 25.3 124.8 25.1 124.8 25.1 C 124.8 25 124.9 24.9 124.9 24.9 C 124.9 24.9 124.8 24.9 124.8 24.9 C 124.5 25.5 123.8 26.1 122.7 26.1 C 121.4 26.1 120.6 25.5 120.6 23.8 C 120.6 23.8 120.6 21.4 120.6 21.4 Z M 131.5 21.4 C 131.5 21.3 131.4 21.2 131.2 21.2 C 131.21 21.18 130.7 21.2 130.7 21.2 L 130.7 19.9 C 130.7 19.9 132.08 19.88 132.1 19.9 C 132.6 19.9 132.8 20.1 132.8 20.5 C 132.8 20.6 132.8 20.7 132.8 20.7 C 132.85 20.71 132.9 20.7 132.9 20.7 C 132.9 20.7 133.39 19.74 134.8 19.7 C 136.5 19.7 137.5 21 137.5 22.9 C 137.5 24.9 136.3 26.1 134.7 26.1 C 133.52 26.14 133 25.3 133 25.3 L 133 25.3 C 133 25.3 132.98 25.56 133 25.9 C 132.98 25.87 133 28.4 133 28.4 L 131.5 28.4 C 131.5 28.4 131.47 21.44 131.5 21.4 Z M 134.5 24.9 C 135.3 24.9 136 24.2 136 23 C 136 21.8 135.4 21 134.5 21 C 133.7 21 132.9 21.6 132.9 23 C 132.9 23.9 133.4 24.9 134.5 24.9 Z M 141.4 19.7 C 143.2 19.7 144.1 21 144.1 22.6 C 144.13 22.82 144.1 23.2 144.1 23.2 C 144.1 23.2 139.87 23.2 139.9 23.2 C 140 24.3 140.8 24.8 141.7 24.8 C 142.69 24.85 143.4 24.2 143.4 24.2 L 144.1 25.2 C 144.1 25.2 143.12 26.14 141.6 26.1 C 139.6 26.1 138.3 24.7 138.3 22.9 C 138.3 21.1 139.6 19.7 141.4 19.7 Z M 142.6 22.1 C 142.5 21.4 142 20.9 141.4 20.9 C 140.6 20.9 140.1 21.4 139.9 22.1 C 139.9 22.1 142.6 22.1 142.6 22.1 Z M 148.3 19.7 C 149.1 19.7 150.6 20.1 150.6 21.1 C 150.56 21.12 150.6 21.8 150.6 21.8 L 149.2 21.8 C 149.2 21.8 149.22 21.5 149.2 21.5 C 149.2 21.2 148.7 21 148.3 21 C 147.3 21 146.5 21.8 146.5 22.9 C 146.5 24.2 147.5 24.8 148.4 24.8 C 149.48 24.81 150.2 24 150.2 24 L 150.9 25 C 150.9 25 149.97 26.14 148.3 26.1 C 146.3 26.1 145 24.7 145 22.9 C 145 21.2 146.2 19.7 148.3 19.7 Z M 146.4 17.5 L 147.5 17.5 L 148.1 18.5 L 148.1 18.5 L 148.7 17.5 L 149.9 17.5 L 148.8 19.1 L 147.5 19.1 L 146.4 17.5 Z M 154.6 19.7 C 156.3 19.7 157.3 21 157.3 22.6 C 157.27 22.82 157.2 23.2 157.2 23.2 C 157.2 23.2 153.01 23.2 153 23.2 C 153.1 24.3 153.9 24.8 154.8 24.8 C 155.83 24.85 156.6 24.2 156.6 24.2 L 157.2 25.2 C 157.2 25.2 156.26 26.14 154.7 26.1 C 152.7 26.1 151.5 24.7 151.5 22.9 C 151.5 21.1 152.7 19.7 154.6 19.7 Z M 155.7 22.1 C 155.7 21.4 155.2 20.9 154.6 20.9 C 153.8 20.9 153.2 21.4 153.1 22.1 C 153.1 22.1 155.7 22.1 155.7 22.1 Z M 158.7 21.4 C 158.7 21.3 158.7 21.2 158.5 21.2 C 158.48 21.18 158 21.2 158 21.2 L 158 19.9 C 158 19.9 159.41 19.88 159.4 19.9 C 159.9 19.9 160.2 20.1 160.2 20.6 C 160.2 20.6 160.2 20.7 160.2 20.7 C 160.2 20.9 160.2 21 160.2 21 C 160.2 21 160.2 21 160.2 21 C 160.5 20.5 161.1 19.7 162.4 19.7 C 163.7 19.7 164.5 20.4 164.5 22.1 C 164.5 22.1 164.5 24.5 164.5 24.5 C 164.5 24.6 164.6 24.7 164.8 24.7 C 164.77 24.72 165.2 24.7 165.2 24.7 L 165.2 26 C 165.2 26 163.8 26 163.8 26 C 163.2 26 163 25.8 163 25.2 C 163 25.2 163 22.4 163 22.4 C 163 21.6 162.8 21.1 162 21.1 C 161.2 21.1 160.6 21.6 160.4 22.4 C 160.3 22.6 160.3 22.9 160.3 23.2 C 160.26 23.19 160.3 26 160.3 26 L 158.7 26 C 158.7 26 158.75 21.44 158.7 21.4 Z M 159.9 17.5 L 161.1 17.5 L 161.7 18.5 L 161.7 18.5 L 162.3 17.5 L 163.5 17.5 L 162.3 19.1 L 161.1 19.1 L 159.9 17.5 Z M 169.2 19.7 C 171.1 19.7 172.6 21.1 172.6 22.9 C 172.6 24.8 171.1 26.1 169.2 26.1 C 167.3 26.1 165.9 24.8 165.9 22.9 C 165.9 21.1 167.3 19.7 169.2 19.7 Z M 169.2 24.8 C 170.2 24.8 171 24.1 171 22.9 C 171 21.8 170.2 21 169.2 21 C 168.2 21 167.4 21.8 167.4 22.9 C 167.4 24.1 168.2 24.8 169.2 24.8 Z M 173.9 21.4 C 173.9 21.3 173.8 21.2 173.7 21.2 C 173.65 21.18 173.2 21.2 173.2 21.2 L 173.2 19.9 C 173.2 19.9 174.62 19.88 174.6 19.9 C 175.2 19.9 175.4 20.1 175.4 20.7 C 175.4 20.7 175.4 23.5 175.4 23.5 C 175.4 24.2 175.6 24.8 176.4 24.8 C 177.5 24.8 178.1 23.8 178.1 22.7 C 178.09 22.69 178.1 19.9 178.1 19.9 L 179.6 19.9 C 179.6 19.9 179.61 24.45 179.6 24.5 C 179.6 24.6 179.7 24.7 179.9 24.7 C 179.88 24.72 180.4 24.7 180.4 24.7 L 180.4 26 C 180.4 26 178.95 26 179 26 C 178.4 26 178.2 25.7 178.2 25.3 C 178.2 25.3 178.2 25.1 178.2 25.1 C 178.2 25 178.2 24.9 178.2 24.9 C 178.2 24.9 178.1 24.9 178.1 24.9 C 177.9 25.5 177.1 26.1 176 26.1 C 174.7 26.1 173.9 25.5 173.9 23.8 C 173.9 23.8 173.9 21.4 173.9 21.4 Z M 181.5 24.5 L 182.9 24.5 L 182.9 26 L 181.5 26 L 181.5 24.5 Z " stroke="none" fill="#000"/>  </g>  <g id="Polygon71339">    <path d="M 1.2 1.8 L 0.4 1.8 L 0.4 0.5 C 0.4 0.5 5.56 0.48 5.6 0.5 C 6.1 0.5 6.4 0.7 6.4 1.3 C 6.37 1.3 6.4 2.6 6.4 2.6 L 4.9 2.6 C 4.9 2.6 4.94 2.08 4.9 2.1 C 4.9 1.9 4.8 1.8 4.7 1.8 C 4.68 1.81 2.8 1.8 2.8 1.8 L 2.8 4 L 5.5 4 L 5.5 5.4 L 2.8 5.4 C 2.8 5.4 2.76 7.4 2.8 7.4 C 2.8 7.6 2.9 7.7 3 7.7 C 3 7.7 5 7.7 5 7.7 C 5.2 7.7 5.3 7.6 5.3 7.4 C 5.26 7.4 5.3 6.9 5.3 6.9 L 6.7 6.9 C 6.7 6.9 6.68 8.18 6.7 8.2 C 6.7 8.8 6.4 9 5.9 9 C 5.9 9 2 9 2 9 C 1.4 9 1.2 8.8 1.2 8.2 C 1.19 8.18 1.2 1.8 1.2 1.8 Z M 8 7.1 C 8 7.1 8.74 7.96 9.8 8 C 10.2 8 10.6 7.8 10.6 7.4 C 10.6 6.5 7.4 6.5 7.4 4.5 C 7.4 3.3 8.5 2.7 9.8 2.7 C 10.6 2.7 11.9 3 11.9 4 C 11.9 4.01 11.9 4.6 11.9 4.6 L 10.6 4.6 C 10.6 4.6 10.56 4.34 10.6 4.3 C 10.6 4.1 10.1 3.9 9.8 3.9 C 9.3 3.9 8.9 4.1 8.9 4.5 C 8.9 5.4 12.1 5.2 12.1 7.3 C 12.1 8.4 11.1 9.1 9.8 9.1 C 8.1 9.14 7.2 8.1 7.2 8.1 L 8 7.1 Z M 13.6 4.1 L 12.8 4.1 L 12.8 2.9 L 13.6 2.9 L 13.6 1.2 L 15.1 1.2 L 15.1 2.9 L 16.5 2.9 L 16.5 4.1 L 15.1 4.1 C 15.1 4.1 15.09 6.56 15.1 6.6 C 15.1 7.6 15.9 7.7 16.3 7.7 C 16.47 7.72 16.6 7.7 16.6 7.7 L 16.6 9 C 16.6 9 16.39 9.06 16.1 9.1 C 15.3 9.1 13.6 8.8 13.6 6.8 C 13.57 6.76 13.6 4.1 13.6 4.1 Z M 20.4 2.7 C 22.1 2.7 23.1 4 23.1 5.6 C 23.1 5.82 23.1 6.2 23.1 6.2 C 23.1 6.2 18.84 6.2 18.8 6.2 C 19 7.3 19.8 7.8 20.7 7.8 C 21.66 7.85 22.4 7.2 22.4 7.2 L 23 8.2 C 23 8.2 22.09 9.14 20.6 9.1 C 18.5 9.1 17.3 7.7 17.3 5.9 C 17.3 4.1 18.6 2.7 20.4 2.7 Z M 21.5 5.1 C 21.5 4.4 21 3.9 20.4 3.9 C 19.6 3.9 19.1 4.4 18.9 5.1 C 18.9 5.1 21.5 5.1 21.5 5.1 Z M 24.6 4.1 L 23.8 4.1 L 23.8 2.9 L 24.6 2.9 L 24.6 1.2 L 26.1 1.2 L 26.1 2.9 L 27.5 2.9 L 27.5 4.1 L 26.1 4.1 C 26.1 4.1 26.12 6.56 26.1 6.6 C 26.1 7.6 26.9 7.7 27.3 7.7 C 27.5 7.72 27.6 7.7 27.6 7.7 L 27.6 9 C 27.6 9 27.42 9.06 27.1 9.1 C 26.3 9.1 24.6 8.8 24.6 6.8 C 24.6 6.76 24.6 4.1 24.6 4.1 Z M 29 4.4 C 29 4.3 28.9 4.2 28.8 4.2 C 28.75 4.18 28.3 4.2 28.3 4.2 L 28.3 2.9 C 28.3 2.9 29.66 2.88 29.7 2.9 C 30.2 2.9 30.5 3.1 30.5 3.6 C 30.5 3.6 30.5 4 30.5 4 C 30.48 4.21 30.5 4.4 30.5 4.4 C 30.5 4.4 30.48 4.37 30.5 4.4 C 30.8 3.5 31.5 2.8 32.4 2.8 C 32.55 2.8 32.7 2.8 32.7 2.8 L 32.7 4.3 C 32.7 4.3 32.54 4.3 32.3 4.3 C 31.7 4.3 30.9 4.7 30.7 5.6 C 30.6 5.9 30.5 6.2 30.5 6.6 C 30.53 6.58 30.5 9 30.5 9 L 29 9 C 29 9 29.02 4.44 29 4.4 Z M 36.5 2.7 C 38.3 2.7 39.8 4.1 39.8 5.9 C 39.8 7.8 38.3 9.1 36.5 9.1 C 34.6 9.1 33.1 7.8 33.1 5.9 C 33.1 4.1 34.6 2.7 36.5 2.7 Z M 36.5 7.8 C 37.5 7.8 38.3 7.1 38.3 5.9 C 38.3 4.8 37.5 4 36.5 4 C 35.5 4 34.7 4.8 34.7 5.9 C 34.7 7.1 35.5 7.8 36.5 7.8 Z M 41.1 2 C 41.1 1.9 41 1.8 40.8 1.8 C 40.81 1.78 40.3 1.8 40.3 1.8 L 40.3 0.5 C 40.3 0.5 41.78 0.48 41.8 0.5 C 42.3 0.5 42.6 0.7 42.6 1.3 C 42.6 1.3 42.6 7.5 42.6 7.5 C 42.6 7.6 42.7 7.7 42.9 7.7 C 42.86 7.72 43.3 7.7 43.3 7.7 L 43.3 9 C 43.3 9 41.89 9 41.9 9 C 41.3 9 41.1 8.8 41.1 8.2 C 41.1 8.2 41.1 2 41.1 2 Z M 49.2 0.1 C 49.2 0.1 50.5 0.1 50.5 0.1 C 49.5 1.6 49.1 3.3 49.1 5 C 49.1 6.8 49.6 8.5 50.5 10.1 C 50.5 10.1 49.2 10.1 49.2 10.1 C 48.3 8.7 47.8 6.9 47.8 5.1 C 47.8 3.3 48.2 1.5 49.2 0.1 Z M 52.2 1.8 L 51.4 1.8 L 51.4 0.5 C 51.4 0.5 56.56 0.48 56.6 0.5 C 57.1 0.5 57.4 0.7 57.4 1.3 C 57.37 1.3 57.4 2.6 57.4 2.6 L 55.9 2.6 C 55.9 2.6 55.94 2.08 55.9 2.1 C 55.9 1.9 55.8 1.8 55.7 1.8 C 55.68 1.81 53.8 1.8 53.8 1.8 L 53.8 4 L 56.5 4 L 56.5 5.4 L 53.8 5.4 C 53.8 5.4 53.76 7.4 53.8 7.4 C 53.8 7.6 53.9 7.7 54 7.7 C 54 7.7 56 7.7 56 7.7 C 56.2 7.7 56.3 7.6 56.3 7.4 C 56.26 7.4 56.3 6.9 56.3 6.9 L 57.7 6.9 C 57.7 6.9 57.68 8.18 57.7 8.2 C 57.7 8.8 57.4 9 56.9 9 C 56.9 9 53 9 53 9 C 52.4 9 52.2 8.8 52.2 8.2 C 52.19 8.18 52.2 1.8 52.2 1.8 Z M 58.2 5.9 L 61.7 0.5 L 63.5 0.5 L 63.5 5.5 L 64.8 5.5 L 64.8 6.9 L 63.5 6.9 L 63.5 9 L 62 9 L 62 6.9 L 58.2 6.9 L 58.2 5.9 Z M 62 3.2 C 61.98 2.74 62 2.2 62 2.2 L 62 2.2 C 62 2.2 61.78 2.69 61.6 3 C 61.6 3 60.2 5 60.2 5 C 60 5.29 59.8 5.5 59.8 5.5 L 59.8 5.6 C 59.8 5.6 60.14 5.52 60.5 5.5 C 60.54 5.52 62 5.5 62 5.5 C 62 5.5 61.98 3.16 62 3.2 Z M 66.9 5 C 66.9 3.3 66.5 1.6 65.5 0.1 C 65.5 0.1 66.8 0.1 66.8 0.1 C 67.8 1.5 68.3 3.3 68.3 5.1 C 68.3 6.9 67.8 8.7 66.8 10.1 C 66.8 10.1 65.5 10.1 65.5 10.1 C 66.4 8.5 66.9 6.8 66.9 5 Z M 76.1 2.7 C 78 2.7 79.5 4.1 79.5 5.9 C 79.5 7.8 78 9.1 76.1 9.1 C 74.3 9.1 72.8 7.8 72.8 5.9 C 72.8 4.1 74.3 2.7 76.1 2.7 Z M 76.1 7.8 C 77.1 7.8 78 7.1 78 5.9 C 78 4.8 77.1 4 76.1 4 C 75.1 4 74.3 4.8 74.3 5.9 C 74.3 7.1 75.1 7.8 76.1 7.8 Z M 80.7 2 C 80.7 1.9 80.6 1.8 80.5 1.8 C 80.46 1.78 80 1.8 80 1.8 L 80 0.5 C 80 0.5 81.43 0.48 81.4 0.5 C 82 0.5 82.2 0.7 82.2 1.3 C 82.2 1.3 82.2 3.1 82.2 3.1 C 82.25 3.37 82.2 3.6 82.2 3.6 L 82.2 3.6 C 82.2 3.6 82.79 2.74 84.1 2.7 C 85.7 2.7 86.8 4 86.8 5.9 C 86.8 7.9 85.6 9.1 84 9.1 C 82.71 9.14 82.2 8.3 82.2 8.3 L 82.1 8.3 C 82.1 8.3 82.16 8.45 82.2 8.7 C 82.16 8.69 82.2 9 82.2 9 L 80.7 9 C 80.7 9 80.72 2.04 80.7 2 Z M 83.7 7.9 C 84.6 7.9 85.3 7.2 85.3 6 C 85.3 4.8 84.6 4 83.7 4 C 82.9 4 82.2 4.6 82.2 6 C 82.2 6.9 82.7 7.9 83.7 7.9 Z M 88.5 0.5 L 89.8 0.5 L 89.8 1.9 L 88.5 1.9 L 88.5 0.5 Z M 87.2 10.2 C 87.7 10.2 88.5 10.1 88.5 9.1 C 88.5 9.1 88.5 4.4 88.5 4.4 C 88.5 4.3 88.4 4.2 88.2 4.2 C 88.19 4.18 87.7 4.2 87.7 4.2 L 87.7 2.9 C 87.7 2.9 89.16 2.88 89.2 2.9 C 89.7 2.9 90 3.1 90 3.7 C 90 3.7 90 9.2 90 9.2 C 90 11.2 88.3 11.5 87.4 11.5 C 87.1 11.5 87 11.4 87 11.4 C 86.96 11.45 87 10.2 87 10.2 C 87 10.2 87.07 10.19 87.2 10.2 Z M 94.9 5.2 C 94.88 5.16 95.1 5.2 95.1 5.2 C 95.1 5.2 95.08 5.11 95.1 5.1 C 95.1 4.2 94.7 3.9 93.9 3.9 C 93.7 3.9 93.1 4 93.1 4.3 C 93.13 4.32 93.1 4.6 93.1 4.6 L 91.7 4.6 C 91.7 4.6 91.72 4 91.7 4 C 91.7 2.9 93.3 2.7 94 2.7 C 96 2.7 96.6 3.8 96.6 5.2 C 96.6 5.2 96.6 7.5 96.6 7.5 C 96.6 7.6 96.7 7.7 96.9 7.7 C 96.86 7.72 97.3 7.7 97.3 7.7 L 97.3 9 C 97.3 9 95.97 9 96 9 C 95.4 9 95.2 8.7 95.2 8.3 C 95.2 8.2 95.2 8.1 95.2 8.1 C 95.21 8.06 95.2 8.1 95.2 8.1 C 95.2 8.1 94.72 9.14 93.3 9.1 C 92.2 9.1 91.2 8.5 91.2 7.2 C 91.2 5.3 93.9 5.2 94.9 5.2 Z M 93.7 8 C 94.5 8 95.1 7.1 95.1 6.3 C 95.1 6.35 95.1 6.2 95.1 6.2 C 95.1 6.2 94.84 6.2 94.8 6.2 C 94 6.2 92.8 6.3 92.8 7.2 C 92.8 7.6 93.1 8 93.7 8 Z M 98.1 4.4 C 98 4.2 97.9 4.2 97.7 4.2 C 97.73 4.18 97.6 4.2 97.6 4.2 L 97.6 2.9 C 97.6 2.9 98.47 2.88 98.5 2.9 C 99 2.9 99.2 3 99.4 3.5 C 99.4 3.5 100.5 6.7 100.5 6.7 C 100.65 7.03 100.8 7.5 100.8 7.5 L 100.8 7.5 C 100.8 7.5 100.87 7.03 101 6.7 C 101 6.7 102.1 3.5 102.1 3.5 C 102.3 3 102.6 2.9 103 2.9 C 103.04 2.88 103.9 2.9 103.9 2.9 L 103.9 4.2 C 103.9 4.2 103.71 4.18 103.7 4.2 C 103.5 4.2 103.4 4.2 103.4 4.4 C 103.38 4.39 101.6 9 101.6 9 L 99.8 9 C 99.8 9 98.06 4.39 98.1 4.4 Z M 105.1 0.5 L 106.4 0.5 L 106.4 1.9 L 105.1 1.9 L 105.1 0.5 Z M 105 4.4 C 105 4.3 104.9 4.2 104.8 4.2 C 104.77 4.18 104.3 4.2 104.3 4.2 L 104.3 2.9 C 104.3 2.9 105.74 2.88 105.7 2.9 C 106.3 2.9 106.5 3.1 106.5 3.7 C 106.5 3.7 106.5 7.5 106.5 7.5 C 106.5 7.6 106.6 7.7 106.8 7.7 C 106.81 7.72 107.3 7.7 107.3 7.7 L 107.3 9 C 107.3 9 105.84 9 105.8 9 C 105.3 9 105 8.8 105 8.2 C 105 8.2 105 4.4 105 4.4 Z M 108.5 2 C 108.5 1.9 108.4 1.8 108.3 1.8 C 108.28 1.78 107.8 1.8 107.8 1.8 L 107.8 0.5 C 107.8 0.5 109.25 0.48 109.2 0.5 C 109.8 0.5 110.1 0.7 110.1 1.3 C 110.1 1.3 110.1 7.5 110.1 7.5 C 110.1 7.6 110.2 7.7 110.3 7.7 C 110.33 7.72 110.8 7.7 110.8 7.7 L 110.8 9 C 110.8 9 109.35 9 109.4 9 C 108.8 9 108.5 8.8 108.5 8.2 C 108.5 8.2 108.5 2 108.5 2 Z M 114.9 4.4 C 114.8 4.2 114.7 4.2 114.5 4.2 C 114.53 4.18 114.4 4.2 114.4 4.2 L 114.4 2.9 C 114.4 2.9 115.27 2.88 115.3 2.9 C 115.8 2.9 116 3 116.2 3.5 C 116.2 3.5 117.3 6.7 117.3 6.7 C 117.45 7.03 117.6 7.5 117.6 7.5 L 117.6 7.5 C 117.6 7.5 117.67 7.03 117.8 6.7 C 117.8 6.7 118.9 3.5 118.9 3.5 C 119.1 3 119.3 2.9 119.8 2.9 C 119.84 2.88 120.7 2.9 120.7 2.9 L 120.7 4.2 C 120.7 4.2 120.51 4.18 120.5 4.2 C 120.3 4.2 120.2 4.2 120.2 4.4 C 120.18 4.39 118.4 9 118.4 9 L 116.6 9 C 116.6 9 114.86 4.39 114.9 4.4 Z M 125 4.4 C 125 4.3 124.9 4.2 124.7 4.2 C 124.7 4.18 124.2 4.2 124.2 4.2 L 124.2 2.9 C 124.2 2.9 125.61 2.88 125.6 2.9 C 126.2 2.9 126.4 3.1 126.4 3.6 C 126.4 3.6 126.4 4 126.4 4 C 126.43 4.21 126.4 4.4 126.4 4.4 C 126.4 4.4 126.43 4.37 126.4 4.4 C 126.7 3.5 127.4 2.8 128.4 2.8 C 128.51 2.8 128.6 2.8 128.6 2.8 L 128.6 4.3 C 128.6 4.3 128.49 4.3 128.3 4.3 C 127.6 4.3 126.9 4.7 126.6 5.6 C 126.5 5.9 126.5 6.2 126.5 6.6 C 126.48 6.58 126.5 9 126.5 9 L 125 9 C 125 9 124.97 4.44 125 4.4 Z M 132.4 2.7 C 134.3 2.7 135.8 4.1 135.8 5.9 C 135.8 7.8 134.3 9.1 132.4 9.1 C 130.6 9.1 129.1 7.8 129.1 5.9 C 129.1 4.1 130.6 2.7 132.4 2.7 Z M 132.4 7.8 C 133.4 7.8 134.2 7.1 134.2 5.9 C 134.2 4.8 133.4 4 132.4 4 C 131.4 4 130.6 4.8 130.6 5.9 C 130.6 7.1 131.4 7.8 132.4 7.8 Z M 137 2 C 137 1.9 136.9 1.8 136.8 1.8 C 136.75 1.78 136.3 1.8 136.3 1.8 L 136.3 0.5 C 136.3 0.5 137.72 0.48 137.7 0.5 C 138.3 0.5 138.5 0.6 138.5 1.2 C 138.54 1.18 138.5 5 138.5 5 C 138.5 5 138.99 5.04 139 5 C 139.2 5 139.4 5 139.6 4.8 C 139.57 4.81 140.8 2.9 140.8 2.9 L 142.5 2.9 C 142.5 2.9 140.96 5.18 141 5.2 C 140.7 5.57 140.5 5.7 140.5 5.7 L 140.5 5.7 C 140.5 5.7 140.72 5.77 140.9 6.2 C 140.9 6.2 141.6 7.5 141.6 7.5 C 141.7 7.7 141.8 7.7 142.1 7.7 C 142.14 7.72 142.5 7.7 142.5 7.7 L 142.5 9 C 142.5 9 141.42 9 141.4 9 C 140.9 9 140.7 8.9 140.5 8.5 C 140.5 8.5 139.4 6.6 139.4 6.6 C 139.3 6.3 139.1 6.3 138.9 6.3 C 138.87 6.32 138.5 6.3 138.5 6.3 L 138.5 9 L 137 9 C 137 9 137.01 2.04 137 2 Z M 143.7 4.4 C 143.7 4.3 143.6 4.2 143.4 4.2 C 143.41 4.18 142.9 4.2 142.9 4.2 L 142.9 2.9 C 142.9 2.9 144.38 2.88 144.4 2.9 C 144.9 2.9 145.2 3.1 145.2 3.7 C 145.2 3.7 145.2 6.5 145.2 6.5 C 145.2 7.2 145.4 7.8 146.1 7.8 C 147.2 7.8 147.9 6.8 147.9 5.7 C 147.85 5.69 147.9 2.9 147.9 2.9 L 149.4 2.9 C 149.4 2.9 149.37 7.45 149.4 7.5 C 149.4 7.6 149.5 7.7 149.6 7.7 C 149.64 7.72 150.1 7.7 150.1 7.7 L 150.1 9 C 150.1 9 148.71 9 148.7 9 C 148.2 9 147.9 8.7 147.9 8.3 C 147.9 8.3 147.9 8.1 147.9 8.1 C 147.9 8 147.9 7.9 147.9 7.9 C 147.9 7.9 147.9 7.9 147.9 7.9 C 147.6 8.5 146.8 9.1 145.8 9.1 C 144.5 9.1 143.7 8.5 143.7 6.8 C 143.7 6.8 143.7 4.4 143.7 4.4 Z M 154.3 7.7 L 156.1 7.7 C 156.1 7.7 156.14 2.94 156.1 2.9 C 156.14 2.65 156.2 2.4 156.2 2.4 L 156.1 2.4 C 156.1 2.4 156.03 2.57 155.8 2.8 C 155.76 2.84 155.1 3.5 155.1 3.5 L 154.2 2.5 L 156.3 0.5 L 157.7 0.5 L 157.7 7.7 L 159.5 7.7 L 159.5 9 L 154.3 9 L 154.3 7.7 Z M 161 7.5 C 161 7.5 161.6 7.73 162.2 7.7 C 163.6 7.7 164.3 6.6 164.5 5.4 C 164.5 5.4 164.5 5.4 164.5 5.4 C 164.2 5.8 163.5 6 162.9 6 C 161.2 6 160.2 4.7 160.2 3.2 C 160.2 1.6 161.3 0.3 163 0.3 C 164.7 0.3 166.3 1.8 166.3 4.3 C 166.3 6.6 165 9.1 162.3 9.1 C 161.27 9.14 160.6 8.8 160.6 8.8 L 161 7.5 Z M 164.7 3.8 C 164.7 2.8 163.9 1.8 163 1.8 C 162.2 1.8 161.7 2.4 161.7 3.2 C 161.7 4 162.2 4.8 163.3 4.8 C 164 4.8 164.7 4.4 164.7 3.8 Z M 167.1 5.2 C 167.1 2.9 168.4 0.3 171 0.3 C 172.08 0.34 172.7 0.7 172.7 0.7 L 172.3 2 C 172.3 2 171.74 1.76 171.1 1.8 C 169.8 1.8 169 2.9 168.8 4.1 C 168.8 4.1 168.9 4.1 168.9 4.1 C 169.1 3.7 169.8 3.5 170.4 3.5 C 172.1 3.5 173.2 4.8 173.2 6.3 C 173.2 7.9 172.1 9.1 170.4 9.1 C 168.6 9.1 167.1 7.7 167.1 5.2 Z M 170.4 7.7 C 171.2 7.7 171.6 7.1 171.6 6.3 C 171.6 5.4 171.1 4.7 170.1 4.7 C 169.3 4.7 168.7 5.1 168.7 5.7 C 168.7 6.7 169.5 7.7 170.4 7.7 Z M 174.9 6.8 C 174.9 6.8 175.61 7.68 176.9 7.7 C 177.8 7.7 178.4 7 178.4 6.3 C 178.4 5.3 177.6 4.8 176.6 4.8 C 175.64 4.81 175 5.2 175 5.2 L 174.4 4.9 C 174.4 4.9 174.73 1.3 174.7 1.3 C 174.8 0.7 175 0.5 175.5 0.5 C 175.5 0.5 178.7 0.5 178.7 0.5 C 179.2 0.5 179.5 0.7 179.5 1.3 C 179.49 1.3 179.5 2.6 179.5 2.6 L 178.1 2.6 C 178.1 2.6 178.07 2.08 178.1 2.1 C 178.1 1.9 178 1.8 177.8 1.8 C 177.8 1.8 176.4 1.8 176.4 1.8 C 176.2 1.8 176.1 1.9 176.1 2.1 C 176.1 2.1 176 3.3 176 3.3 C 176 3.48 176 3.6 176 3.6 L 176 3.6 C 176 3.6 176.39 3.49 176.9 3.5 C 178.8 3.5 180 4.7 180 6.3 C 180 7.8 178.8 9.2 176.9 9.2 C 175.05 9.16 174.1 8 174.1 8 L 174.9 6.8 Z M 184.8 4.4 C 184.8 4.3 184.7 4.2 184.6 4.2 C 184.57 4.18 184.1 4.2 184.1 4.2 L 184.1 2.9 C 184.1 2.9 185.45 2.88 185.4 2.9 C 186 2.9 186.2 3.1 186.2 3.5 C 186.2 3.6 186.2 3.7 186.2 3.7 C 186.21 3.71 186.2 3.7 186.2 3.7 C 186.2 3.7 186.75 2.74 188.2 2.7 C 189.8 2.7 190.9 4 190.9 5.9 C 190.9 7.9 189.7 9.1 188.1 9.1 C 186.89 9.14 186.3 8.3 186.3 8.3 L 186.3 8.3 C 186.3 8.3 186.34 8.56 186.3 8.9 C 186.34 8.87 186.3 11.4 186.3 11.4 L 184.8 11.4 C 184.8 11.4 184.83 4.44 184.8 4.4 Z M 187.8 7.9 C 188.7 7.9 189.4 7.2 189.4 6 C 189.4 4.8 188.7 4 187.8 4 C 187.1 4 186.3 4.6 186.3 6 C 186.3 6.9 186.8 7.9 187.8 7.9 Z M 192.3 4.4 C 192.3 4.3 192.2 4.2 192 4.2 C 192.02 4.18 191.5 4.2 191.5 4.2 L 191.5 2.9 C 191.5 2.9 192.93 2.88 192.9 2.9 C 193.5 2.9 193.7 3.1 193.7 3.6 C 193.7 3.6 193.7 4 193.7 4 C 193.75 4.21 193.7 4.4 193.7 4.4 C 193.7 4.4 193.75 4.37 193.7 4.4 C 194 3.5 194.8 2.8 195.7 2.8 C 195.82 2.8 196 2.8 196 2.8 L 196 4.3 C 196 4.3 195.81 4.3 195.6 4.3 C 194.9 4.3 194.2 4.7 193.9 5.6 C 193.8 5.9 193.8 6.2 193.8 6.6 C 193.8 6.58 193.8 9 193.8 9 L 192.3 9 C 192.3 9 192.29 4.44 192.3 4.4 Z M 199.7 2.7 C 201.6 2.7 203.1 4.1 203.1 5.9 C 203.1 7.8 201.6 9.1 199.7 9.1 C 197.9 9.1 196.4 7.8 196.4 5.9 C 196.4 4.1 197.9 2.7 199.7 2.7 Z M 199.7 7.8 C 200.7 7.8 201.6 7.1 201.6 5.9 C 201.6 4.8 200.7 4 199.7 4 C 198.8 4 197.9 4.8 197.9 5.9 C 197.9 7.1 198.8 7.8 199.7 7.8 Z M 204.5 4.1 L 203.7 4.1 L 203.7 2.9 L 204.5 2.9 C 204.5 2.9 204.48 2.7 204.5 2.7 C 204.5 0.7 206.1 0.4 207 0.4 C 207.3 0.4 207.5 0.5 207.5 0.5 C 207.49 0.48 207.5 1.8 207.5 1.8 C 207.5 1.8 207.36 1.74 207.2 1.7 C 206.7 1.7 206 1.8 206 2.7 C 206 2.74 206 2.9 206 2.9 L 207.3 2.9 L 207.3 4.1 L 206 4.1 L 206 9 L 204.5 9 L 204.5 4.1 Z M 210.8 2.7 C 212.6 2.7 213.6 4 213.6 5.6 C 213.56 5.82 213.5 6.2 213.5 6.2 C 213.5 6.2 209.3 6.2 209.3 6.2 C 209.4 7.3 210.2 7.8 211.1 7.8 C 212.12 7.85 212.9 7.2 212.9 7.2 L 213.5 8.2 C 213.5 8.2 212.55 9.14 211 9.1 C 209 9.1 207.7 7.7 207.7 5.9 C 207.7 4.1 209 2.7 210.8 2.7 Z M 212 5.1 C 212 4.4 211.5 3.9 210.8 3.9 C 210.1 3.9 209.5 4.4 209.3 5.1 C 209.3 5.1 212 5.1 212 5.1 Z M 215.1 7.1 C 215.1 7.1 215.84 7.96 216.9 8 C 217.4 8 217.7 7.8 217.7 7.4 C 217.7 6.5 214.5 6.5 214.5 4.5 C 214.5 3.3 215.6 2.7 216.9 2.7 C 217.7 2.7 219 3 219 4 C 219.01 4.01 219 4.6 219 4.6 L 217.7 4.6 C 217.7 4.6 217.67 4.34 217.7 4.3 C 217.7 4.1 217.2 3.9 216.9 3.9 C 216.4 3.9 216 4.1 216 4.5 C 216 5.4 219.2 5.2 219.2 7.3 C 219.2 8.4 218.2 9.1 216.9 9.1 C 215.21 9.14 214.3 8.1 214.3 8.1 L 215.1 7.1 Z M 223.4 2.7 C 225.3 2.7 226.7 4.1 226.7 5.9 C 226.7 7.8 225.3 9.1 223.4 9.1 C 221.5 9.1 220 7.8 220 5.9 C 220 4.1 221.5 2.7 223.4 2.7 Z M 223.4 7.8 C 224.4 7.8 225.2 7.1 225.2 5.9 C 225.2 4.8 224.4 4 223.4 4 C 222.4 4 221.6 4.8 221.6 5.9 C 221.6 7.1 222.4 7.8 223.4 7.8 Z M 228.1 4.4 C 228.1 4.3 228 4.2 227.9 4.2 C 227.87 4.18 227.4 4.2 227.4 4.2 L 227.4 2.9 C 227.4 2.9 228.78 2.88 228.8 2.9 C 229.3 2.9 229.6 3.1 229.6 3.6 C 229.6 3.6 229.6 4 229.6 4 C 229.59 4.21 229.6 4.4 229.6 4.4 C 229.6 4.4 229.59 4.37 229.6 4.4 C 229.9 3.5 230.6 2.8 231.5 2.8 C 231.67 2.8 231.8 2.8 231.8 2.8 L 231.8 4.3 C 231.8 4.3 231.66 4.3 231.4 4.3 C 230.8 4.3 230 4.7 229.8 5.6 C 229.7 5.9 229.6 6.2 229.6 6.6 C 229.64 6.58 229.6 9 229.6 9 L 228.1 9 C 228.1 9 228.13 4.44 228.1 4.4 Z M 236.4 1.8 L 235.7 1.8 L 235.7 0.5 C 235.7 0.5 239.13 0.48 239.1 0.5 C 241.8 0.5 243.5 2 243.5 4.7 C 243.5 7.4 241.8 9 239.1 9 C 239.1 9 237.3 9 237.3 9 C 236.7 9 236.4 8.8 236.4 8.2 C 236.45 8.18 236.4 1.8 236.4 1.8 Z M 238.3 7.7 C 238.3 7.7 239 7.7 239 7.7 C 240.8 7.7 241.8 6.6 241.8 4.7 C 241.8 2.8 240.7 1.8 239 1.8 C 239.05 1.81 238 1.8 238 1.8 C 238 1.8 238.02 7.4 238 7.4 C 238 7.6 238.1 7.7 238.3 7.7 Z M 245 0.5 L 246.4 0.5 L 246.4 1.9 L 245 1.9 L 245 0.5 Z M 245 4.4 C 245 4.3 244.9 4.2 244.7 4.2 C 244.7 4.18 244.2 4.2 244.2 4.2 L 244.2 2.9 C 244.2 2.9 245.67 2.88 245.7 2.9 C 246.2 2.9 246.5 3.1 246.5 3.7 C 246.5 3.7 246.5 7.5 246.5 7.5 C 246.5 7.6 246.6 7.7 246.7 7.7 C 246.74 7.72 247.2 7.7 247.2 7.7 L 247.2 9 C 247.2 9 245.77 9 245.8 9 C 245.2 9 245 8.8 245 8.2 C 245 8.2 245 4.4 245 4.4 Z M 251.2 2.7 C 252 2.7 253.5 3.1 253.5 4.1 C 253.46 4.12 253.5 4.8 253.5 4.8 L 252.1 4.8 C 252.1 4.8 252.12 4.5 252.1 4.5 C 252.1 4.2 251.6 4 251.2 4 C 250.2 4 249.4 4.8 249.4 5.9 C 249.4 7.2 250.4 7.8 251.3 7.8 C 252.38 7.81 253.1 7 253.1 7 L 253.8 8 C 253.8 8 252.87 9.14 251.2 9.1 C 249.2 9.1 247.9 7.7 247.9 5.9 C 247.9 4.2 249.1 2.7 251.2 2.7 Z M 254.3 8.2 C 254.3 8.2 257.11 4.74 257.1 4.7 C 257.38 4.39 257.6 4.2 257.6 4.2 L 257.6 4.2 C 257.6 4.2 257.44 4.18 257.1 4.2 C 257.1 4.2 256 4.2 256 4.2 C 255.8 4.2 255.7 4.3 255.7 4.4 C 255.69 4.44 255.7 4.8 255.7 4.8 L 254.3 4.8 C 254.3 4.8 254.31 3.7 254.3 3.7 C 254.3 3.1 254.6 2.9 255.1 2.9 C 255.13 2.88 259.6 2.9 259.6 2.9 L 259.6 3.7 C 259.6 3.7 256.8 7.15 256.8 7.2 C 256.52 7.49 256.3 7.7 256.3 7.7 L 256.3 7.7 C 256.3 7.7 256.46 7.7 256.9 7.7 C 256.9 7.7 258.2 7.7 258.2 7.7 C 258.4 7.7 258.5 7.6 258.5 7.4 C 258.47 7.44 258.5 7.1 258.5 7.1 L 259.8 7.1 C 259.8 7.1 259.84 8.18 259.8 8.2 C 259.8 8.8 259.6 9 259 9 C 259.04 9 254.3 9 254.3 9 L 254.3 8.2 Z M 261.1 4.1 L 260.3 4.1 L 260.3 2.9 L 261.1 2.9 C 261.1 2.9 261.09 2.7 261.1 2.7 C 261.1 0.7 262.7 0.4 263.6 0.4 C 263.9 0.4 264.1 0.5 264.1 0.5 C 264.1 0.48 264.1 1.8 264.1 1.8 C 264.1 1.8 263.97 1.74 263.8 1.7 C 263.4 1.7 262.6 1.8 262.6 2.7 C 262.62 2.74 262.6 2.9 262.6 2.9 L 263.9 2.9 L 263.9 4.1 L 262.6 4.1 L 262.6 9 L 261.1 9 L 261.1 4.1 Z M 268.1 5.2 C 268.05 5.16 268.2 5.2 268.2 5.2 C 268.2 5.2 268.24 5.11 268.2 5.1 C 268.2 4.2 267.9 3.9 267.1 3.9 C 266.8 3.9 266.3 4 266.3 4.3 C 266.3 4.32 266.3 4.6 266.3 4.6 L 264.9 4.6 C 264.9 4.6 264.88 4 264.9 4 C 264.9 2.9 266.5 2.7 267.1 2.7 C 269.2 2.7 269.8 3.8 269.8 5.2 C 269.8 5.2 269.8 7.5 269.8 7.5 C 269.8 7.6 269.9 7.7 270 7.7 C 270.03 7.72 270.5 7.7 270.5 7.7 L 270.5 9 C 270.5 9 269.14 9 269.1 9 C 268.6 9 268.4 8.7 268.4 8.3 C 268.4 8.2 268.4 8.1 268.4 8.1 C 268.38 8.06 268.4 8.1 268.4 8.1 C 268.4 8.1 267.88 9.14 266.5 9.1 C 265.4 9.1 264.4 8.5 264.4 7.2 C 264.4 5.3 267.1 5.2 268.1 5.2 Z M 266.9 8 C 267.7 8 268.3 7.1 268.3 6.3 C 268.27 6.35 268.3 6.2 268.3 6.2 C 268.3 6.2 268 6.2 268 6.2 C 267.2 6.2 266 6.3 266 7.2 C 266 7.6 266.3 8 266.9 8 Z M 271.7 2 C 271.7 1.9 271.6 1.8 271.4 1.8 C 271.44 1.78 271 1.8 271 1.8 L 271 0.5 C 271 0.5 272.41 0.48 272.4 0.5 C 273 0.5 273.2 0.7 273.2 1.3 C 273.2 1.3 273.2 7.5 273.2 7.5 C 273.2 7.6 273.3 7.7 273.5 7.7 C 273.49 7.72 274 7.7 274 7.7 L 274 9 C 274 9 272.52 9 272.5 9 C 271.9 9 271.7 8.8 271.7 8.2 C 271.7 8.2 271.7 2 271.7 2 Z M 275.2 4.4 C 275.2 4.3 275.1 4.2 274.9 4.2 C 274.94 4.18 274.5 4.2 274.5 4.2 L 274.5 2.9 C 274.5 2.9 275.91 2.88 275.9 2.9 C 276.5 2.9 276.7 3.1 276.7 3.7 C 276.7 3.7 276.7 6.5 276.7 6.5 C 276.7 7.2 276.9 7.8 277.7 7.8 C 278.8 7.8 279.4 6.8 279.4 5.7 C 279.38 5.69 279.4 2.9 279.4 2.9 L 280.9 2.9 C 280.9 2.9 280.9 7.45 280.9 7.5 C 280.9 7.6 281 7.7 281.2 7.7 C 281.17 7.72 281.6 7.7 281.6 7.7 L 281.6 9 C 281.6 9 280.24 9 280.2 9 C 279.7 9 279.4 8.7 279.4 8.3 C 279.4 8.3 279.4 8.1 279.4 8.1 C 279.4 8 279.5 7.9 279.5 7.9 C 279.5 7.9 279.4 7.9 279.4 7.9 C 279.1 8.5 278.4 9.1 277.3 9.1 C 276 9.1 275.2 8.5 275.2 6.8 C 275.2 6.8 275.2 4.4 275.2 4.4 Z M 282.9 7.1 C 282.9 7.1 283.69 7.96 284.7 8 C 285.2 8 285.6 7.8 285.6 7.4 C 285.6 6.5 282.3 6.5 282.3 4.5 C 282.3 3.3 283.4 2.7 284.7 2.7 C 285.5 2.7 286.9 3 286.9 4 C 286.86 4.01 286.9 4.6 286.9 4.6 L 285.5 4.6 C 285.5 4.6 285.51 4.34 285.5 4.3 C 285.5 4.1 285.1 3.9 284.7 3.9 C 284.2 3.9 283.8 4.1 283.8 4.5 C 283.8 5.4 287.1 5.2 287.1 7.3 C 287.1 8.4 286.1 9.1 284.7 9.1 C 283.05 9.14 282.2 8.1 282.2 8.1 L 282.9 7.1 Z M 289 10.2 C 289.4 10.2 289.8 10 290 9.5 C 289.99 9.46 290.2 9 290.2 9 C 290.2 9 288.15 4.39 288.2 4.4 C 288.1 4.2 288 4.2 287.8 4.2 C 287.83 4.18 287.6 4.2 287.6 4.2 L 287.6 2.9 C 287.6 2.9 288.66 2.88 288.7 2.9 C 289.1 2.9 289.3 3 289.5 3.5 C 289.5 3.5 290.7 6.5 290.7 6.5 C 290.78 6.83 290.9 7.3 290.9 7.3 L 290.9 7.3 C 290.9 7.3 291 6.83 291.1 6.5 C 291.1 6.5 292.1 3.5 292.1 3.5 C 292.3 3 292.5 2.9 293 2.9 C 292.96 2.88 294 2.9 294 2.9 L 294 4.2 C 294 4.2 293.81 4.18 293.8 4.2 C 293.6 4.2 293.5 4.2 293.5 4.4 C 293.5 4.4 291.3 9.9 291.3 9.9 C 290.8 11 290 11.5 289.1 11.5 C 288.1 11.52 287.5 10.9 287.5 10.9 L 288.1 9.8 C 288.1 9.8 288.48 10.24 289 10.2 Z M 297.9 4.4 C 297.9 4.2 297.8 4.2 297.6 4.2 C 297.6 4.18 297.5 4.2 297.5 4.2 L 297.5 2.9 C 297.5 2.9 298.34 2.88 298.3 2.9 C 298.8 2.9 299.1 3 299.2 3.5 C 299.2 3.5 300.4 6.7 300.4 6.7 C 300.52 7.03 300.6 7.5 300.6 7.5 L 300.6 7.5 C 300.6 7.5 300.74 7.03 300.9 6.7 C 300.9 6.7 302 3.5 302 3.5 C 302.2 3 302.4 2.9 302.9 2.9 C 302.91 2.88 303.7 2.9 303.7 2.9 L 303.7 4.2 C 303.7 4.2 303.58 4.18 303.6 4.2 C 303.4 4.2 303.3 4.2 303.2 4.4 C 303.25 4.39 301.5 9 301.5 9 L 299.7 9 C 299.7 9 297.93 4.39 297.9 4.4 Z M 308.2 2.1 C 308.2 1.9 308.1 1.8 308 1.8 C 307.96 1.81 307.4 1.8 307.4 1.8 L 307.4 0.5 C 307.4 0.5 308.98 0.48 309 0.5 C 309.6 0.5 309.8 0.7 309.8 1.3 C 309.8 1.3 309.8 3.9 309.8 3.9 C 309.8 3.9 310.4 3.95 310.4 3.9 C 310.7 3.9 310.9 3.9 311.1 3.7 C 311.08 3.67 312.8 0.5 312.8 0.5 L 314.5 0.5 C 314.5 0.5 312.61 3.98 312.6 4 C 312.34 4.46 312.1 4.6 312.1 4.6 L 312.1 4.6 C 312.1 4.6 312.35 4.7 312.6 5.2 C 312.6 5.2 313.7 7.4 313.7 7.4 C 313.8 7.6 314 7.7 314.3 7.7 C 314.3 7.67 314.5 7.7 314.5 7.7 L 314.5 9 C 314.5 9 313.63 9 313.6 9 C 313 9 312.7 8.9 312.4 8.4 C 312.4 8.4 311 5.6 311 5.6 C 310.9 5.3 310.6 5.3 310.3 5.3 C 310.3 5.28 309.8 5.3 309.8 5.3 L 309.8 9 L 308.2 9 C 308.2 9 308.23 2.08 308.2 2.1 Z M 318.7 5.2 C 318.68 5.16 318.9 5.2 318.9 5.2 C 318.9 5.2 318.87 5.11 318.9 5.1 C 318.9 4.2 318.5 3.9 317.7 3.9 C 317.5 3.9 316.9 4 316.9 4.3 C 316.93 4.32 316.9 4.6 316.9 4.6 L 315.5 4.6 C 315.5 4.6 315.51 4 315.5 4 C 315.5 2.9 317.1 2.7 317.8 2.7 C 319.8 2.7 320.4 3.8 320.4 5.2 C 320.4 5.2 320.4 7.5 320.4 7.5 C 320.4 7.6 320.5 7.7 320.7 7.7 C 320.66 7.72 321.1 7.7 321.1 7.7 L 321.1 9 C 321.1 9 319.77 9 319.8 9 C 319.2 9 319 8.7 319 8.3 C 319 8.2 319 8.1 319 8.1 C 319 8.06 319 8.1 319 8.1 C 319 8.1 318.51 9.14 317.1 9.1 C 316 9.1 315 8.5 315 7.2 C 315 5.3 317.7 5.2 318.7 5.2 Z M 317.5 8 C 318.3 8 318.9 7.1 318.9 6.3 C 318.9 6.35 318.9 6.2 318.9 6.2 C 318.9 6.2 318.63 6.2 318.6 6.2 C 317.8 6.2 316.6 6.3 316.6 7.2 C 316.6 7.6 316.9 8 317.5 8 Z M 322.4 4.4 C 322.4 4.3 322.3 4.2 322.1 4.2 C 322.1 4.18 321.6 4.2 321.6 4.2 L 321.6 2.9 C 321.6 2.9 323.01 2.88 323 2.9 C 323.6 2.9 323.8 3.1 323.8 3.6 C 323.8 3.6 323.8 4 323.8 4 C 323.83 4.21 323.8 4.4 323.8 4.4 C 323.8 4.4 323.83 4.37 323.8 4.4 C 324.1 3.5 324.8 2.8 325.8 2.8 C 325.9 2.8 326 2.8 326 2.8 L 326 4.3 C 326 4.3 325.89 4.3 325.7 4.3 C 325 4.3 324.3 4.7 324 5.6 C 323.9 5.9 323.9 6.2 323.9 6.6 C 323.87 6.58 323.9 9 323.9 9 L 322.4 9 C 322.4 9 322.36 4.44 322.4 4.4 Z M 329.8 2.7 C 331.7 2.7 333.2 4.1 333.2 5.9 C 333.2 7.8 331.7 9.1 329.8 9.1 C 328 9.1 326.5 7.8 326.5 5.9 C 326.5 4.1 328 2.7 329.8 2.7 Z M 329.8 7.8 C 330.8 7.8 331.6 7.1 331.6 5.9 C 331.6 4.8 330.8 4 329.8 4 C 328.8 4 328 4.8 328 5.9 C 328 7.1 328.8 7.8 329.8 7.8 Z M 334.4 2 C 334.4 1.9 334.3 1.8 334.2 1.8 C 334.16 1.78 333.7 1.8 333.7 1.8 L 333.7 0.5 C 333.7 0.5 335.13 0.48 335.1 0.5 C 335.7 0.5 335.9 0.7 335.9 1.3 C 335.9 1.3 335.9 7.5 335.9 7.5 C 335.9 7.6 336 7.7 336.2 7.7 C 336.21 7.72 336.7 7.7 336.7 7.7 L 336.7 9 C 336.7 9 335.24 9 335.2 9 C 334.7 9 334.4 8.8 334.4 8.2 C 334.4 8.2 334.4 2 334.4 2 Z M 338 4.4 C 338 4.3 337.9 4.2 337.7 4.2 C 337.75 4.18 337.3 4.2 337.3 4.2 L 337.3 2.9 C 337.3 2.9 338.72 2.88 338.7 2.9 C 339.3 2.9 339.5 3.1 339.5 3.7 C 339.5 3.7 339.5 7.5 339.5 7.5 C 339.5 7.6 339.6 7.7 339.8 7.7 C 339.8 7.72 340.3 7.7 340.3 7.7 L 340.3 9 C 340.3 9 338.83 9 338.8 9 C 338.3 9 338 8.8 338 8.2 C 338 8.2 338 4.4 338 4.4 Z M 339 0.5 L 340.5 0.5 L 339.2 2.1 L 338.1 2.1 L 339 0.5 Z M 341.6 4.4 C 341.6 4.3 341.5 4.2 341.3 4.2 C 341.31 4.18 340.8 4.2 340.8 4.2 L 340.8 2.9 C 340.8 2.9 342.23 2.88 342.2 2.9 C 342.8 2.9 343 3.1 343 3.6 C 343 3.6 343 3.7 343 3.7 C 343 3.9 343 4 343 4 C 343 4 343 4 343 4 C 343.3 3.5 344 2.7 345.2 2.7 C 346.6 2.7 347.3 3.4 347.3 5.1 C 347.3 5.1 347.3 7.5 347.3 7.5 C 347.3 7.6 347.4 7.7 347.6 7.7 C 347.6 7.72 348.1 7.7 348.1 7.7 L 348.1 9 C 348.1 9 346.63 9 346.6 9 C 346.1 9 345.8 8.8 345.8 8.2 C 345.8 8.2 345.8 5.4 345.8 5.4 C 345.8 4.6 345.6 4.1 344.9 4.1 C 344 4.1 343.4 4.6 343.2 5.4 C 343.1 5.6 343.1 5.9 343.1 6.2 C 343.09 6.19 343.1 9 343.1 9 L 341.6 9 C 341.6 9 341.58 4.44 341.6 4.4 Z M 349.3 7.1 C 349.3 7.1 350.09 7.96 351.1 8 C 351.6 8 352 7.8 352 7.4 C 352 6.5 348.7 6.5 348.7 4.5 C 348.7 3.3 349.8 2.7 351.1 2.7 C 351.9 2.7 353.3 3 353.3 4 C 353.26 4.01 353.3 4.6 353.3 4.6 L 351.9 4.6 C 351.9 4.6 351.92 4.34 351.9 4.3 C 351.9 4.1 351.5 3.9 351.2 3.9 C 350.6 3.9 350.2 4.1 350.2 4.5 C 350.2 5.4 353.5 5.2 353.5 7.3 C 353.5 8.4 352.5 9.1 351.1 9.1 C 349.46 9.14 348.6 8.1 348.6 8.1 L 349.3 7.1 Z M 354.9 2 C 354.9 1.9 354.8 1.8 354.6 1.8 C 354.6 1.78 354.1 1.8 354.1 1.8 L 354.1 0.5 C 354.1 0.5 355.57 0.48 355.6 0.5 C 356.1 0.5 356.4 0.6 356.4 1.2 C 356.38 1.18 356.4 5 356.4 5 C 356.4 5 356.84 5.04 356.8 5 C 357 5 357.3 5 357.4 4.8 C 357.41 4.81 358.7 2.9 358.7 2.9 L 360.4 2.9 C 360.4 2.9 358.81 5.18 358.8 5.2 C 358.54 5.57 358.3 5.7 358.3 5.7 L 358.3 5.7 C 358.3 5.7 358.57 5.77 358.8 6.2 C 358.8 6.2 359.5 7.5 359.5 7.5 C 359.6 7.7 359.7 7.7 360 7.7 C 359.98 7.72 360.4 7.7 360.4 7.7 L 360.4 9 C 360.4 9 359.26 9 359.3 9 C 358.7 9 358.5 8.9 358.3 8.5 C 358.3 8.5 357.3 6.6 357.3 6.6 C 357.2 6.3 356.9 6.3 356.7 6.3 C 356.72 6.32 356.4 6.3 356.4 6.3 L 356.4 9 L 354.9 9 C 354.9 9 354.86 2.04 354.9 2 Z M 364.2 2.7 C 366.1 2.7 367.5 4.1 367.5 5.9 C 367.5 7.8 366.1 9.1 364.2 9.1 C 362.3 9.1 360.8 7.8 360.8 5.9 C 360.8 4.1 362.3 2.7 364.2 2.7 Z M 364.2 7.8 C 365.2 7.8 366 7.1 366 5.9 C 366 4.8 365.2 4 364.2 4 C 363.2 4 362.4 4.8 362.4 5.9 C 362.4 7.1 363.2 7.8 364.2 7.8 Z M 368.9 4.4 C 368.9 4.3 368.8 4.2 368.7 4.2 C 368.66 4.18 368.2 4.2 368.2 4.2 L 368.2 2.9 C 368.2 2.9 369.58 2.88 369.6 2.9 C 370.1 2.9 370.4 3.1 370.4 3.6 C 370.4 3.6 370.4 3.7 370.4 3.7 C 370.4 3.9 370.4 4 370.4 4 C 370.4 4 370.4 4 370.4 4 C 370.7 3.4 371.4 2.7 372.4 2.7 C 373.3 2.7 373.9 3.2 374.2 4 C 374.2 4 374.2 4 374.2 4 C 374.5 3.3 375.3 2.7 376.3 2.7 C 377.6 2.7 378.3 3.5 378.3 5.1 C 378.3 5.1 378.3 7.5 378.3 7.5 C 378.3 7.6 378.4 7.7 378.5 7.7 C 378.55 7.72 379 7.7 379 7.7 L 379 9 C 379 9 377.57 9 377.6 9 C 377 9 376.8 8.8 376.8 8.2 C 376.8 8.2 376.8 5.4 376.8 5.4 C 376.8 4.7 376.6 4.1 375.9 4.1 C 375.2 4.1 374.6 4.8 374.5 5.5 C 374.4 5.8 374.4 6 374.4 6.3 C 374.36 6.31 374.4 9 374.4 9 L 372.8 9 C 372.8 9 372.84 5.35 372.8 5.4 C 372.8 4.7 372.7 4.1 372 4.1 C 371.2 4.1 370.7 4.8 370.5 5.5 C 370.5 5.8 370.4 6 370.4 6.3 C 370.43 6.31 370.4 9 370.4 9 L 368.9 9 C 368.9 9 368.92 4.44 368.9 4.4 Z M 383.5 0.5 L 384.9 0.5 L 384.9 1.9 L 383.5 1.9 L 383.5 0.5 Z M 383.5 4.4 C 383.5 4.3 383.4 4.2 383.2 4.2 C 383.2 4.18 382.7 4.2 382.7 4.2 L 382.7 2.9 C 382.7 2.9 384.17 2.88 384.2 2.9 C 384.7 2.9 385 3.1 385 3.7 C 385 3.7 385 7.5 385 7.5 C 385 7.6 385.1 7.7 385.2 7.7 C 385.24 7.72 385.7 7.7 385.7 7.7 L 385.7 9 C 385.7 9 384.27 9 384.3 9 C 383.7 9 383.5 8.8 383.5 8.2 C 383.5 8.2 383.5 4.4 383.5 4.4 Z M 387 4.4 C 387 4.3 386.9 4.2 386.7 4.2 C 386.74 4.18 386.3 4.2 386.3 4.2 L 386.3 2.9 C 386.3 2.9 387.67 2.88 387.7 2.9 C 388.2 2.9 388.5 3.1 388.5 3.6 C 388.5 3.6 388.5 3.7 388.5 3.7 C 388.5 3.9 388.4 4 388.4 4 C 388.4 4 388.5 4 388.5 4 C 388.7 3.5 389.4 2.7 390.6 2.7 C 392 2.7 392.8 3.4 392.8 5.1 C 392.8 5.1 392.8 7.5 392.8 7.5 C 392.8 7.6 392.9 7.7 393 7.7 C 393.03 7.72 393.5 7.7 393.5 7.7 L 393.5 9 C 393.5 9 392.06 9 392.1 9 C 391.5 9 391.2 8.8 391.2 8.2 C 391.2 8.2 391.2 5.4 391.2 5.4 C 391.2 4.6 391.1 4.1 390.3 4.1 C 389.5 4.1 388.9 4.6 388.6 5.4 C 388.6 5.6 388.5 5.9 388.5 6.2 C 388.52 6.19 388.5 9 388.5 9 L 387 9 C 387 9 387.01 4.44 387 4.4 Z M 394.7 7.1 C 394.7 7.1 395.53 7.96 396.6 8 C 397 8 397.4 7.8 397.4 7.4 C 397.4 6.5 394.2 6.5 394.2 4.5 C 394.2 3.3 395.3 2.7 396.5 2.7 C 397.4 2.7 398.7 3 398.7 4 C 398.69 4.01 398.7 4.6 398.7 4.6 L 397.4 4.6 C 397.4 4.6 397.35 4.34 397.4 4.3 C 397.4 4.1 396.9 3.9 396.6 3.9 C 396 3.9 395.7 4.1 395.7 4.5 C 395.7 5.4 398.9 5.2 398.9 7.3 C 398.9 8.4 397.9 9.1 396.6 9.1 C 394.89 9.14 394 8.1 394 8.1 L 394.7 7.1 Z M 394.7 0.5 L 395.9 0.5 L 396.5 1.5 L 396.5 1.5 L 397.1 0.5 L 398.3 0.5 L 397.1 2.1 L 395.9 2.1 L 394.7 0.5 Z M 400.4 4.1 L 399.6 4.1 L 399.6 2.9 L 400.4 2.9 L 400.4 1.2 L 401.9 1.2 L 401.9 2.9 L 403.3 2.9 L 403.3 4.1 L 401.9 4.1 C 401.9 4.1 401.89 6.56 401.9 6.6 C 401.9 7.6 402.7 7.7 403.1 7.7 C 403.27 7.72 403.4 7.7 403.4 7.7 L 403.4 9 C 403.4 9 403.18 9.06 402.9 9.1 C 402.1 9.1 400.4 8.8 400.4 6.8 C 400.36 6.76 400.4 4.1 400.4 4.1 Z M 404.9 0.5 L 406.2 0.5 L 406.2 1.9 L 404.9 1.9 L 404.9 0.5 Z M 404.8 4.4 C 404.8 4.3 404.7 4.2 404.6 4.2 C 404.56 4.18 404.1 4.2 404.1 4.2 L 404.1 2.9 C 404.1 2.9 405.53 2.88 405.5 2.9 C 406.1 2.9 406.3 3.1 406.3 3.7 C 406.3 3.7 406.3 7.5 406.3 7.5 C 406.3 7.6 406.4 7.7 406.6 7.7 C 406.6 7.72 407.1 7.7 407.1 7.7 L 407.1 9 C 407.1 9 405.63 9 405.6 9 C 405.1 9 404.8 8.8 404.8 8.2 C 404.8 8.2 404.8 4.4 404.8 4.4 Z M 408.4 4.1 L 407.6 4.1 L 407.6 2.9 L 408.4 2.9 L 408.4 1.2 L 409.9 1.2 L 409.9 2.9 L 411.3 2.9 L 411.3 4.1 L 409.9 4.1 C 409.9 4.1 409.91 6.56 409.9 6.6 C 409.9 7.6 410.7 7.7 411.1 7.7 C 411.29 7.72 411.4 7.7 411.4 7.7 L 411.4 9 C 411.4 9 411.21 9.06 410.9 9.1 C 410.1 9.1 408.4 8.8 408.4 6.8 C 408.39 6.76 408.4 4.1 408.4 4.1 Z M 412.8 4.4 C 412.8 4.3 412.7 4.2 412.5 4.2 C 412.52 4.18 412 4.2 412 4.2 L 412 2.9 C 412 2.9 413.49 2.88 413.5 2.9 C 414.1 2.9 414.3 3.1 414.3 3.7 C 414.3 3.7 414.3 6.5 414.3 6.5 C 414.3 7.2 414.5 7.8 415.2 7.8 C 416.3 7.8 417 6.8 417 5.7 C 416.96 5.69 417 2.9 417 2.9 L 418.5 2.9 C 418.5 2.9 418.48 7.45 418.5 7.5 C 418.5 7.6 418.6 7.7 418.7 7.7 C 418.74 7.72 419.2 7.7 419.2 7.7 L 419.2 9 C 419.2 9 417.82 9 417.8 9 C 417.3 9 417 8.7 417 8.3 C 417 8.3 417 8.1 417 8.1 C 417 8 417 7.9 417 7.9 C 417 7.9 417 7.9 417 7.9 C 416.7 8.5 415.9 9.1 414.9 9.1 C 413.6 9.1 412.8 8.5 412.8 6.8 C 412.8 6.8 412.8 4.4 412.8 4.4 Z M 415.9 0.5 L 417.4 0.5 L 416.1 2.1 L 415 2.1 L 415.9 0.5 Z M 420.5 4.1 L 419.7 4.1 L 419.7 2.9 L 420.5 2.9 L 420.5 1.2 L 422 1.2 L 422 2.9 L 423.4 2.9 L 423.4 4.1 L 422 4.1 C 422 4.1 422.01 6.56 422 6.6 C 422 7.6 422.8 7.7 423.2 7.7 C 423.39 7.72 423.5 7.7 423.5 7.7 L 423.5 9 C 423.5 9 423.3 9.06 423 9.1 C 422.2 9.1 420.5 8.8 420.5 6.8 C 420.49 6.76 420.5 4.1 420.5 4.1 Z M 427.3 2.7 C 429.1 2.7 430 4 430 5.6 C 430.01 5.82 430 6.2 430 6.2 C 430 6.2 425.75 6.2 425.8 6.2 C 425.9 7.3 426.7 7.8 427.6 7.8 C 428.57 7.85 429.3 7.2 429.3 7.2 L 429.9 8.2 C 429.9 8.2 429.01 9.14 427.5 9.1 C 425.5 9.1 424.2 7.7 424.2 5.9 C 424.2 4.1 425.5 2.7 427.3 2.7 Z M 428.5 5.1 C 428.4 4.4 427.9 3.9 427.3 3.9 C 426.5 3.9 426 4.4 425.8 5.1 C 425.8 5.1 428.5 5.1 428.5 5.1 Z M 434.3 4.4 C 434.2 4.2 434.1 4.2 434 4.2 C 433.95 4.18 433.8 4.2 433.8 4.2 L 433.8 2.9 C 433.8 2.9 434.69 2.88 434.7 2.9 C 435.2 2.9 435.4 3 435.6 3.5 C 435.6 3.5 436.7 6.7 436.7 6.7 C 436.88 7.03 437 7.5 437 7.5 L 437 7.5 C 437 7.5 437.09 7.03 437.2 6.7 C 437.2 6.7 438.4 3.5 438.4 3.5 C 438.5 3 438.8 2.9 439.3 2.9 C 439.26 2.88 440.1 2.9 440.1 2.9 L 440.1 4.2 C 440.1 4.2 439.94 4.18 439.9 4.2 C 439.8 4.2 439.7 4.2 439.6 4.4 C 439.6 4.39 437.8 9 437.8 9 L 436 9 C 436 9 434.29 4.39 434.3 4.4 Z M 444.7 6.7 C 444.7 6.7 445.54 7.73 446.7 7.7 C 447.4 7.7 448 7.4 448 6.7 C 448 5.3 443.9 5.4 443.9 2.7 C 443.9 1.4 445.1 0.3 446.8 0.3 C 447.8 0.3 449.3 0.8 449.3 2 C 449.32 2.02 449.3 2.8 449.3 2.8 L 447.9 2.8 C 447.9 2.8 447.91 2.42 447.9 2.4 C 447.9 2 447.3 1.8 446.8 1.8 C 446.1 1.8 445.5 2.1 445.5 2.7 C 445.5 4.1 449.5 3.8 449.5 6.6 C 449.5 8 448.5 9.1 446.7 9.1 C 444.82 9.14 443.8 7.8 443.8 7.8 L 444.7 6.7 Z M 445 -1.7 L 446.2 -1.7 L 446.8 -0.7 L 446.8 -0.7 L 447.4 -1.7 L 448.5 -1.7 L 447.4 -0.1 L 446.1 -0.1 L 445 -1.7 Z M 451 4.1 L 450.2 4.1 L 450.2 2.9 L 451 2.9 L 451 1.2 L 452.5 1.2 L 452.5 2.9 L 453.9 2.9 L 453.9 4.1 L 452.5 4.1 C 452.5 4.1 452.52 6.56 452.5 6.6 C 452.5 7.6 453.3 7.7 453.7 7.7 C 453.9 7.72 454 7.7 454 7.7 L 454 9 C 454 9 453.82 9.06 453.5 9.1 C 452.7 9.1 451 8.8 451 6.8 C 451 6.76 451 4.1 451 4.1 Z M 458.1 2.7 C 459.9 2.7 461.4 4.1 461.4 5.9 C 461.4 7.8 459.9 9.1 458.1 9.1 C 456.2 9.1 454.7 7.8 454.7 5.9 C 454.7 4.1 456.2 2.7 458.1 2.7 Z M 458.1 7.8 C 459.1 7.8 459.9 7.1 459.9 5.9 C 459.9 4.8 459.1 4 458.1 4 C 457.1 4 456.2 4.8 456.2 5.9 C 456.2 7.1 457.1 7.8 458.1 7.8 Z M 462.7 2 C 462.7 1.9 462.6 1.8 462.4 1.8 C 462.39 1.78 461.9 1.8 461.9 1.8 L 461.9 0.5 C 461.9 0.5 463.36 0.48 463.4 0.5 C 463.9 0.5 464.2 0.6 464.2 1.2 C 464.18 1.18 464.2 5 464.2 5 C 464.2 5 464.63 5.04 464.6 5 C 464.8 5 465.1 5 465.2 4.8 C 465.21 4.81 466.5 2.9 466.5 2.9 L 468.1 2.9 C 468.1 2.9 466.6 5.18 466.6 5.2 C 466.34 5.57 466.1 5.7 466.1 5.7 L 466.1 5.7 C 466.1 5.7 466.36 5.77 466.6 6.2 C 466.6 6.2 467.3 7.5 467.3 7.5 C 467.4 7.7 467.5 7.7 467.8 7.7 C 467.78 7.72 468.2 7.7 468.2 7.7 L 468.2 9 C 468.2 9 467.06 9 467.1 9 C 466.5 9 466.3 8.9 466.1 8.5 C 466.1 8.5 465.1 6.6 465.1 6.6 C 465 6.3 464.7 6.3 464.5 6.3 C 464.51 6.32 464.2 6.3 464.2 6.3 L 464.2 9 L 462.7 9 C 462.7 9 462.65 2.04 462.7 2 Z M 469.2 2 C 469.2 1.9 469.1 1.8 469 1.8 C 468.95 1.78 468.5 1.8 468.5 1.8 L 468.5 0.5 C 468.5 0.5 469.93 0.48 469.9 0.5 C 470.5 0.5 470.7 0.7 470.7 1.3 C 470.7 1.3 470.7 3.4 470.7 3.4 C 470.74 3.73 470.7 3.9 470.7 3.9 C 470.7 3.9 470.74 3.95 470.7 3.9 C 471 3.4 471.8 2.7 472.8 2.7 C 474.2 2.7 475 3.4 475 5.1 C 475 5.1 475 7.5 475 7.5 C 475 7.6 475.1 7.7 475.2 7.7 C 475.24 7.72 475.7 7.7 475.7 7.7 L 475.7 9 C 475.7 9 474.27 9 474.3 9 C 473.7 9 473.5 8.8 473.5 8.2 C 473.5 8.2 473.5 5.4 473.5 5.4 C 473.5 4.6 473.3 4.1 472.5 4.1 C 471.7 4.1 471.1 4.7 470.8 5.4 C 470.8 5.6 470.7 5.9 470.7 6.2 C 470.74 6.19 470.7 9 470.7 9 L 469.2 9 C 469.2 9 469.22 2.04 469.2 2 Z M 479.7 2.7 C 481.6 2.7 483 4.1 483 5.9 C 483 7.8 481.6 9.1 479.7 9.1 C 477.8 9.1 476.3 7.8 476.3 5.9 C 476.3 4.1 477.8 2.7 479.7 2.7 Z M 479.7 7.8 C 480.7 7.8 481.5 7.1 481.5 5.9 C 481.5 4.8 480.7 4 479.7 4 C 478.7 4 477.9 4.8 477.9 5.9 C 477.9 7.1 478.7 7.8 479.7 7.8 Z M 484.3 2 C 484.3 1.9 484.2 1.8 484 1.8 C 484.03 1.78 483.5 1.8 483.5 1.8 L 483.5 0.5 C 483.5 0.5 485 0.48 485 0.5 C 485.6 0.5 485.8 0.7 485.8 1.3 C 485.8 1.3 485.8 7.5 485.8 7.5 C 485.8 7.6 485.9 7.7 486.1 7.7 C 486.08 7.72 486.5 7.7 486.5 7.7 L 486.5 9 C 486.5 9 485.1 9 485.1 9 C 484.5 9 484.3 8.8 484.3 8.2 C 484.3 8.2 484.3 2 484.3 2 Z M 487.8 4.4 C 487.8 4.3 487.7 4.2 487.6 4.2 C 487.55 4.18 487.1 4.2 487.1 4.2 L 487.1 2.9 C 487.1 2.9 488.48 2.88 488.5 2.9 C 489 2.9 489.3 3.1 489.3 3.6 C 489.3 3.6 489.3 3.7 489.3 3.7 C 489.3 3.9 489.3 4 489.3 4 C 489.3 4 489.3 4 489.3 4 C 489.6 3.4 490.3 2.7 491.3 2.7 C 492.2 2.7 492.8 3.2 493.1 4 C 493.1 4 493.1 4 493.1 4 C 493.4 3.3 494.2 2.7 495.2 2.7 C 496.4 2.7 497.2 3.5 497.2 5.1 C 497.2 5.1 497.2 7.5 497.2 7.5 C 497.2 7.6 497.3 7.7 497.4 7.7 C 497.44 7.72 497.9 7.7 497.9 7.7 L 497.9 9 C 497.9 9 496.47 9 496.5 9 C 495.9 9 495.7 8.8 495.7 8.2 C 495.7 8.2 495.7 5.4 495.7 5.4 C 495.7 4.7 495.5 4.1 494.8 4.1 C 494.1 4.1 493.5 4.8 493.3 5.5 C 493.3 5.8 493.3 6 493.3 6.3 C 493.25 6.31 493.3 9 493.3 9 L 491.7 9 C 491.7 9 491.73 5.35 491.7 5.4 C 491.7 4.7 491.6 4.1 490.9 4.1 C 490.1 4.1 489.6 4.8 489.4 5.5 C 489.4 5.8 489.3 6 489.3 6.3 C 489.33 6.31 489.3 9 489.3 9 L 487.8 9 C 487.8 9 487.82 4.44 487.8 4.4 Z M 501.6 2.7 C 503.4 2.7 504.3 4 504.3 5.6 C 504.34 5.82 504.3 6.2 504.3 6.2 C 504.3 6.2 500.08 6.2 500.1 6.2 C 500.2 7.3 501 7.8 501.9 7.8 C 502.9 7.85 503.6 7.2 503.6 7.2 L 504.3 8.2 C 504.3 8.2 503.33 9.14 501.8 9.1 C 499.8 9.1 498.5 7.7 498.5 5.9 C 498.5 4.1 499.8 2.7 501.6 2.7 Z M 502.8 5.1 C 502.8 4.4 502.3 3.9 501.6 3.9 C 500.8 3.9 500.3 4.4 500.1 5.1 C 500.1 5.1 502.8 5.1 502.8 5.1 Z M 505.7 7.5 L 507.1 7.5 L 507.1 9 L 505.7 9 L 505.7 7.5 Z M 511.6 7.7 L 512.5 7.7 L 512.5 1.8 L 511.6 1.8 L 511.6 0.5 L 514.8 0.5 L 514.8 1.8 L 514 1.8 L 514 7.7 L 514.8 7.7 L 514.8 9 L 511.6 9 L 511.6 7.7 Z M 518.5 2.7 C 519.79 2.74 520.2 3.5 520.2 3.5 L 520.2 3.5 C 520.2 3.5 520.23 3.32 520.2 3.1 C 520.2 3.1 520.2 2 520.2 2 C 520.2 1.9 520.1 1.8 520 1.8 C 519.97 1.78 519.5 1.8 519.5 1.8 L 519.5 0.5 C 519.5 0.5 520.94 0.48 520.9 0.5 C 521.5 0.5 521.8 0.7 521.8 1.3 C 521.8 1.3 521.8 7.5 521.8 7.5 C 521.8 7.6 521.8 7.7 522 7.7 C 522.02 7.72 522.5 7.7 522.5 7.7 L 522.5 9 C 522.5 9 521.08 9 521.1 9 C 520.5 9 520.3 8.7 520.3 8.4 C 520.3 8.2 520.3 8.1 520.3 8.1 C 520.33 8.15 520.3 8.1 520.3 8.1 C 520.3 8.1 519.8 9.14 518.4 9.1 C 516.7 9.1 515.7 7.8 515.7 5.9 C 515.7 4 516.8 2.7 518.5 2.7 Z M 520.3 5.9 C 520.3 5 519.8 4 518.8 4 C 517.9 4 517.2 4.7 517.2 5.9 C 517.2 7.1 517.8 7.9 518.7 7.9 C 519.5 7.9 520.3 7.3 520.3 5.9 Z M 526.2 2.7 C 528 2.7 529 4 529 5.6 C 528.95 5.82 528.9 6.2 528.9 6.2 C 528.9 6.2 524.69 6.2 524.7 6.2 C 524.8 7.3 525.6 7.8 526.5 7.8 C 527.51 7.85 528.2 7.2 528.2 7.2 L 528.9 8.2 C 528.9 8.2 527.94 9.14 526.4 9.1 C 524.4 9.1 523.1 7.7 523.1 5.9 C 523.1 4.1 524.4 2.7 526.2 2.7 Z M 527.4 5.1 C 527.4 4.4 526.9 3.9 526.2 3.9 C 525.5 3.9 524.9 4.4 524.7 5.1 C 524.7 5.1 527.4 5.1 527.4 5.1 Z M 536.3 2.7 C 538.2 2.7 539.7 4.1 539.7 5.9 C 539.7 7.8 538.2 9.1 536.3 9.1 C 534.5 9.1 533 7.8 533 5.9 C 533 4.1 534.5 2.7 536.3 2.7 Z M 536.3 7.8 C 537.3 7.8 538.2 7.1 538.2 5.9 C 538.2 4.8 537.3 4 536.3 4 C 535.4 4 534.5 4.8 534.5 5.9 C 534.5 7.1 535.4 7.8 536.3 7.8 Z M 544.3 4.4 C 544.3 4.3 544.2 4.2 544 4.2 C 544 4.18 543.5 4.2 543.5 4.2 L 543.5 2.9 C 543.5 2.9 544.88 2.88 544.9 2.9 C 545.4 2.9 545.6 3.1 545.6 3.5 C 545.6 3.6 545.6 3.7 545.6 3.7 C 545.64 3.71 545.7 3.7 545.7 3.7 C 545.7 3.7 546.18 2.74 547.6 2.7 C 549.3 2.7 550.3 4 550.3 5.9 C 550.3 7.9 549.1 9.1 547.5 9.1 C 546.32 9.14 545.8 8.3 545.8 8.3 L 545.8 8.3 C 545.8 8.3 545.78 8.56 545.8 8.9 C 545.78 8.87 545.8 11.4 545.8 11.4 L 544.3 11.4 C 544.3 11.4 544.27 4.44 544.3 4.4 Z M 547.3 7.9 C 548.1 7.9 548.8 7.2 548.8 6 C 548.8 4.8 548.2 4 547.3 4 C 546.5 4 545.7 4.6 545.7 6 C 545.7 6.9 546.2 7.9 547.3 7.9 Z M 551.7 4.4 C 551.7 4.3 551.6 4.2 551.5 4.2 C 551.45 4.18 551 4.2 551 4.2 L 551 2.9 C 551 2.9 552.36 2.88 552.4 2.9 C 552.9 2.9 553.2 3.1 553.2 3.6 C 553.2 3.6 553.2 4 553.2 4 C 553.18 4.21 553.2 4.4 553.2 4.4 C 553.2 4.4 553.18 4.37 553.2 4.4 C 553.5 3.5 554.2 2.8 555.1 2.8 C 555.26 2.8 555.4 2.8 555.4 2.8 L 555.4 4.3 C 555.4 4.3 555.24 4.3 555 4.3 C 554.4 4.3 553.6 4.7 553.4 5.6 C 553.3 5.9 553.2 6.2 553.2 6.6 C 553.23 6.58 553.2 9 553.2 9 L 551.7 9 C 551.7 9 551.72 4.44 551.7 4.4 Z M 556.8 0.5 L 558.1 0.5 L 558.1 1.9 L 556.8 1.9 L 556.8 0.5 Z M 556.7 4.4 C 556.7 4.3 556.6 4.2 556.4 4.2 C 556.44 4.18 556 4.2 556 4.2 L 556 2.9 C 556 2.9 557.42 2.88 557.4 2.9 C 558 2.9 558.2 3.1 558.2 3.7 C 558.2 3.7 558.2 7.5 558.2 7.5 C 558.2 7.6 558.3 7.7 558.5 7.7 C 558.48 7.72 559 7.7 559 7.7 L 559 9 C 559 9 557.51 9 557.5 9 C 556.9 9 556.7 8.8 556.7 8.2 C 556.7 8.2 556.7 4.4 556.7 4.4 Z M 560.2 4.4 C 560.2 4.3 560.2 4.2 560 4.2 C 559.98 4.18 559.5 4.2 559.5 4.2 L 559.5 2.9 C 559.5 2.9 560.9 2.88 560.9 2.9 C 561.4 2.9 561.7 3.1 561.7 3.6 C 561.7 3.6 561.7 4 561.7 4 C 561.71 4.21 561.7 4.4 561.7 4.4 C 561.7 4.4 561.71 4.37 561.7 4.4 C 562 3.5 562.7 2.8 563.7 2.8 C 563.79 2.8 563.9 2.8 563.9 2.8 L 563.9 4.3 C 563.9 4.3 563.78 4.3 563.6 4.3 C 562.9 4.3 562.2 4.7 561.9 5.6 C 561.8 5.9 561.8 6.2 561.8 6.6 C 561.76 6.58 561.8 9 561.8 9 L 560.2 9 C 560.2 9 560.25 4.44 560.2 4.4 Z M 567.7 2.7 C 569.6 2.7 571.1 4.1 571.1 5.9 C 571.1 7.8 569.6 9.1 567.7 9.1 C 565.8 9.1 564.4 7.8 564.4 5.9 C 564.4 4.1 565.8 2.7 567.7 2.7 Z M 567.7 7.8 C 568.7 7.8 569.5 7.1 569.5 5.9 C 569.5 4.8 568.7 4 567.7 4 C 566.7 4 565.9 4.8 565.9 5.9 C 565.9 7.1 566.7 7.8 567.7 7.8 Z M 574.6 2.7 C 575.94 2.74 576.4 3.5 576.4 3.5 L 576.4 3.5 C 576.4 3.5 576.39 3.32 576.4 3.1 C 576.4 3.1 576.4 2 576.4 2 C 576.4 1.9 576.3 1.8 576.1 1.8 C 576.12 1.78 575.6 1.8 575.6 1.8 L 575.6 0.5 C 575.6 0.5 577.1 0.48 577.1 0.5 C 577.7 0.5 577.9 0.7 577.9 1.3 C 577.9 1.3 577.9 7.5 577.9 7.5 C 577.9 7.6 578 7.7 578.2 7.7 C 578.17 7.72 578.6 7.7 578.6 7.7 L 578.6 9 C 578.6 9 577.24 9 577.2 9 C 576.7 9 576.5 8.7 576.5 8.4 C 576.5 8.2 576.5 8.1 576.5 8.1 C 576.48 8.15 576.5 8.1 576.5 8.1 C 576.5 8.1 575.96 9.14 574.6 9.1 C 572.9 9.1 571.8 7.8 571.8 5.9 C 571.8 4 573 2.7 574.6 2.7 Z M 576.4 5.9 C 576.4 5 575.9 4 574.9 4 C 574.1 4 573.4 4.7 573.4 5.9 C 573.4 7.1 574 7.9 574.9 7.9 C 575.7 7.9 576.4 7.3 576.4 5.9 Z M 579.2 8.2 C 579.2 8.2 582.05 4.74 582.1 4.7 C 582.33 4.39 582.6 4.2 582.6 4.2 L 582.6 4.2 C 582.6 4.2 582.39 4.18 582 4.2 C 582 4.2 580.9 4.2 580.9 4.2 C 580.7 4.2 580.6 4.3 580.6 4.4 C 580.63 4.44 580.6 4.8 580.6 4.8 L 579.3 4.8 C 579.3 4.8 579.26 3.7 579.3 3.7 C 579.3 3.1 579.5 2.9 580.1 2.9 C 580.07 2.88 584.6 2.9 584.6 2.9 L 584.6 3.7 C 584.6 3.7 581.74 7.15 581.7 7.2 C 581.46 7.49 581.2 7.7 581.2 7.7 L 581.2 7.7 C 581.2 7.7 581.4 7.7 581.8 7.7 C 581.8 7.7 583.1 7.7 583.1 7.7 C 583.3 7.7 583.4 7.6 583.4 7.4 C 583.41 7.44 583.4 7.1 583.4 7.1 L 584.8 7.1 C 584.8 7.1 584.79 8.18 584.8 8.2 C 584.8 8.8 584.5 9 584 9 C 583.98 9 579.2 9 579.2 9 L 579.2 8.2 Z M 588.4 2.7 C 590.2 2.7 591.1 4 591.1 5.6 C 591.12 5.82 591.1 6.2 591.1 6.2 C 591.1 6.2 586.86 6.2 586.9 6.2 C 587 7.3 587.8 7.8 588.7 7.8 C 589.68 7.85 590.4 7.2 590.4 7.2 L 591.1 8.2 C 591.1 8.2 590.12 9.14 588.6 9.1 C 586.6 9.1 585.3 7.7 585.3 5.9 C 585.3 4.1 586.6 2.7 588.4 2.7 Z M 589.6 5.1 C 589.5 4.4 589 3.9 588.4 3.9 C 587.6 3.9 587.1 4.4 586.9 5.1 C 586.9 5.1 589.6 5.1 589.6 5.1 Z M 592.6 4.4 C 592.6 4.3 592.5 4.2 592.3 4.2 C 592.34 4.18 591.9 4.2 591.9 4.2 L 591.9 2.9 C 591.9 2.9 593.26 2.88 593.3 2.9 C 593.8 2.9 594.1 3.1 594.1 3.6 C 594.1 3.6 594.1 3.7 594.1 3.7 C 594.1 3.9 594 4 594 4 C 594 4 594.1 4 594.1 4 C 594.3 3.5 595 2.7 596.2 2.7 C 597.6 2.7 598.4 3.4 598.4 5.1 C 598.4 5.1 598.4 7.5 598.4 7.5 C 598.4 7.6 598.5 7.7 598.6 7.7 C 598.62 7.72 599.1 7.7 599.1 7.7 L 599.1 9 C 599.1 9 597.65 9 597.7 9 C 597.1 9 596.8 8.8 596.8 8.2 C 596.8 8.2 596.8 5.4 596.8 5.4 C 596.8 4.6 596.6 4.1 595.9 4.1 C 595.1 4.1 594.4 4.6 594.2 5.4 C 594.1 5.6 594.1 5.9 594.1 6.2 C 594.11 6.19 594.1 9 594.1 9 L 592.6 9 C 592.6 9 592.6 4.44 592.6 4.4 Z M 600.7 10.2 C 601.1 10.2 601.5 10 601.7 9.5 C 601.68 9.46 601.9 9 601.9 9 C 601.9 9 599.85 4.39 599.8 4.4 C 599.8 4.2 599.7 4.2 599.5 4.2 C 599.52 4.18 599.3 4.2 599.3 4.2 L 599.3 2.9 C 599.3 2.9 600.35 2.88 600.4 2.9 C 600.8 2.9 601 3 601.2 3.5 C 601.2 3.5 602.4 6.5 602.4 6.5 C 602.48 6.83 602.6 7.3 602.6 7.3 L 602.6 7.3 C 602.6 7.3 602.69 6.83 602.8 6.5 C 602.8 6.5 603.8 3.5 603.8 3.5 C 604 3 604.2 2.9 604.7 2.9 C 604.66 2.88 605.7 2.9 605.7 2.9 L 605.7 4.2 C 605.7 4.2 605.51 4.18 605.5 4.2 C 605.3 4.2 605.2 4.2 605.2 4.4 C 605.2 4.4 603 9.9 603 9.9 C 602.5 11 601.7 11.5 600.8 11.5 C 599.8 11.52 599.2 10.9 599.2 10.9 L 599.8 9.8 C 599.8 9.8 600.17 10.24 600.7 10.2 Z M 602.9 0.5 L 604.3 0.5 L 603.1 2.1 L 602 2.1 L 602.9 0.5 Z M 612.5 2.7 C 614.3 2.7 615.2 4 615.2 5.6 C 615.22 5.82 615.2 6.2 615.2 6.2 C 615.2 6.2 610.96 6.2 611 6.2 C 611.1 7.3 611.9 7.8 612.8 7.8 C 613.78 7.85 614.5 7.2 614.5 7.2 L 615.1 8.2 C 615.1 8.2 614.21 9.14 612.7 9.1 C 610.7 9.1 609.4 7.7 609.4 5.9 C 609.4 4.1 610.7 2.7 612.5 2.7 Z M 613.7 5.1 C 613.6 4.4 613.1 3.9 612.5 3.9 C 611.7 3.9 611.2 4.4 611 5.1 C 611 5.1 613.7 5.1 613.7 5.1 Z M 616.7 7.1 C 616.7 7.1 617.5 7.96 618.5 8 C 619 8 619.4 7.8 619.4 7.4 C 619.4 6.5 616.1 6.5 616.1 4.5 C 616.1 3.3 617.2 2.7 618.5 2.7 C 619.3 2.7 620.7 3 620.7 4 C 620.67 4.01 620.7 4.6 620.7 4.6 L 619.3 4.6 C 619.3 4.6 619.32 4.34 619.3 4.3 C 619.3 4.1 618.9 3.9 618.6 3.9 C 618 3.9 617.6 4.1 617.6 4.5 C 617.6 5.4 620.9 5.2 620.9 7.3 C 620.9 8.4 619.9 9.1 618.5 9.1 C 616.86 9.14 616 8.1 616 8.1 L 616.7 7.1 Z M 622.3 4.1 L 621.5 4.1 L 621.5 2.9 L 622.4 2.9 L 622.4 1.2 L 623.9 1.2 L 623.9 2.9 L 625.3 2.9 L 625.3 4.1 L 623.9 4.1 C 623.9 4.1 623.86 6.56 623.9 6.6 C 623.9 7.6 624.7 7.7 625.1 7.7 C 625.24 7.72 625.3 7.7 625.3 7.7 L 625.3 9 C 625.3 9 625.15 9.06 624.9 9.1 C 624 9.1 622.3 8.8 622.3 6.8 C 622.34 6.76 622.3 4.1 622.3 4.1 Z M 626.8 4.4 C 626.8 4.3 626.7 4.2 626.5 4.2 C 626.49 4.18 626 4.2 626 4.2 L 626 2.9 C 626 2.9 627.4 2.88 627.4 2.9 C 627.9 2.9 628.2 3.1 628.2 3.6 C 628.2 3.6 628.2 4 628.2 4 C 628.21 4.21 628.2 4.4 628.2 4.4 C 628.2 4.4 628.21 4.37 628.2 4.4 C 628.5 3.5 629.2 2.8 630.2 2.8 C 630.29 2.8 630.4 2.8 630.4 2.8 L 630.4 4.3 C 630.4 4.3 630.28 4.3 630.1 4.3 C 629.4 4.3 628.7 4.7 628.4 5.6 C 628.3 5.9 628.3 6.2 628.3 6.6 C 628.26 6.58 628.3 9 628.3 9 L 626.8 9 C 626.8 9 626.75 4.44 626.8 4.4 Z M 634.2 2.7 C 636.1 2.7 637.6 4.1 637.6 5.9 C 637.6 7.8 636.1 9.1 634.2 9.1 C 632.3 9.1 630.9 7.8 630.9 5.9 C 630.9 4.1 632.3 2.7 634.2 2.7 Z M 634.2 7.8 C 635.2 7.8 636 7.1 636 5.9 C 636 4.8 635.2 4 634.2 4 C 633.2 4 632.4 4.8 632.4 5.9 C 632.4 7.1 633.2 7.8 634.2 7.8 Z M 641 2.7 C 642.5 2.7 642.9 3.6 642.9 3.6 C 642.93 3.6 643 3.6 643 3.6 C 643 3.6 642.95 3.53 643 3.4 C 643 3.2 643.1 2.9 643.6 2.9 C 643.62 2.88 645 2.9 645 2.9 L 645 4.2 C 645 4.2 644.57 4.18 644.6 4.2 C 644.4 4.2 644.3 4.3 644.3 4.4 C 644.3 4.4 644.3 8.6 644.3 8.6 C 644.3 10.7 642.7 11.5 641.1 11.5 C 640.3 11.5 639.5 11.3 638.9 11 C 638.91 10.99 639.4 9.8 639.4 9.8 C 639.4 9.8 640.13 10.2 641.1 10.2 C 642 10.2 642.8 9.8 642.8 8.7 C 642.8 8.7 642.8 8.4 642.8 8.4 C 642.8 8.27 642.8 8.1 642.8 8.1 C 642.8 8.1 642.78 8.09 642.8 8.1 C 642.4 8.6 641.9 8.9 641.1 8.9 C 639.3 8.9 638.3 7.5 638.3 5.8 C 638.3 4.1 639.3 2.7 641 2.7 Z M 642.8 5.8 C 642.8 4.4 642.1 4 641.3 4 C 640.4 4 639.9 4.7 639.9 5.7 C 639.9 6.8 640.4 7.6 641.4 7.6 C 642.1 7.6 642.8 7.2 642.8 5.8 Z M 648.8 2.7 C 650.5 2.7 651.5 4 651.5 5.6 C 651.49 5.82 651.5 6.2 651.5 6.2 C 651.5 6.2 647.23 6.2 647.2 6.2 C 647.4 7.3 648.1 7.8 649.1 7.8 C 650.06 7.85 650.8 7.2 650.8 7.2 L 651.4 8.2 C 651.4 8.2 650.49 9.14 649 9.1 C 646.9 9.1 645.7 7.7 645.7 5.9 C 645.7 4.1 646.9 2.7 648.8 2.7 Z M 649.9 5.1 C 649.9 4.4 649.4 3.9 648.8 3.9 C 648 3.9 647.4 4.4 647.3 5.1 C 647.3 5.1 649.9 5.1 649.9 5.1 Z M 649.1 0.5 L 650.5 0.5 L 649.3 2.1 L 648.2 2.1 L 649.1 0.5 Z M 653 4.4 C 653 4.3 652.9 4.2 652.7 4.2 C 652.71 4.18 652.2 4.2 652.2 4.2 L 652.2 2.9 C 652.2 2.9 653.63 2.88 653.6 2.9 C 654.2 2.9 654.4 3.1 654.4 3.6 C 654.4 3.6 654.4 3.7 654.4 3.7 C 654.4 3.9 654.4 4 654.4 4 C 654.4 4 654.4 4 654.4 4 C 654.7 3.5 655.4 2.7 656.6 2.7 C 658 2.7 658.7 3.4 658.7 5.1 C 658.7 5.1 658.7 7.5 658.7 7.5 C 658.7 7.6 658.8 7.7 659 7.7 C 658.99 7.72 659.5 7.7 659.5 7.7 L 659.5 9 C 659.5 9 658.02 9 658 9 C 657.4 9 657.2 8.8 657.2 8.2 C 657.2 8.2 657.2 5.4 657.2 5.4 C 657.2 4.6 657 4.1 656.2 4.1 C 655.4 4.1 654.8 4.6 654.6 5.4 C 654.5 5.6 654.5 5.9 654.5 6.2 C 654.48 6.19 654.5 9 654.5 9 L 653 9 C 653 9 652.97 4.44 653 4.4 Z " stroke="none" fill="#000"/>  </g></svg>