<?xml version="1.0" standalone="no"?><!DOCTYPE svg PUBLIC "-//W3C//DTD SVG 1.1//EN" "http://www.w3.org/Graphics/SVG/1.1/DTD/svg11.dtd"><svg xmlns="http://www.w3.org/2000/svg" version="1.1" width="139px" height="30.5px" viewBox="0 -4 139 30.5" style="top:-4px">  <desc>Kontrola cyklu</desc>  <defs/>  <g id="Polygon66934">    <path d="M 10.7 2.7 C 10.7 2.5 10.6 2.3 10.3 2.3 C 10.3 2.34 9.5 2.3 9.5 2.3 L 9.5 0.8 C 9.5 0.8 11.35 0.79 11.3 0.8 C 12.2 0.8 12.5 1.1 12.5 1.9 C 12.5 1.94 12.5 6.1 12.5 6.1 C 12.5 6.1 13.7 6.14 13.7 6.1 C 14.2 6.1 14.5 6.1 14.7 5.7 C 14.75 5.71 17.6 0.8 17.6 0.8 L 19.6 0.8 C 19.6 0.8 16.51 6.07 16.5 6.1 C 16.15 6.7 15.8 6.9 15.8 6.9 L 15.8 6.9 C 15.8 6.9 16.15 7.02 16.5 7.7 C 16.5 7.7 18.4 11.5 18.4 11.5 C 18.6 11.9 18.9 12 19.3 12 C 19.32 11.95 19.7 12 19.7 12 L 19.7 13.5 C 19.7 13.5 18.67 13.5 18.7 13.5 C 17.7 13.5 17.3 13.4 16.9 12.5 C 16.9 12.5 14.7 8.1 14.7 8.1 C 14.5 7.7 14.1 7.7 13.6 7.7 C 13.58 7.67 12.5 7.7 12.5 7.7 L 12.5 13.5 L 10.7 13.5 C 10.7 13.5 10.7 2.74 10.7 2.7 Z M 25.2 4.2 C 27.9 4.2 30.1 6.2 30.1 8.9 C 30.1 11.7 27.9 13.7 25.2 13.7 C 22.5 13.7 20.3 11.7 20.3 8.9 C 20.3 6.2 22.5 4.2 25.2 4.2 Z M 25.2 12.2 C 27 12.2 28.4 10.8 28.4 8.9 C 28.4 7 27 5.7 25.2 5.7 C 23.5 5.7 22.1 7 22.1 8.9 C 22.1 10.8 23.5 12.2 25.2 12.2 Z M 32.3 6.3 C 32.3 6 32.2 5.9 31.9 5.9 C 31.92 5.89 31.2 5.9 31.2 5.9 L 31.2 4.4 C 31.2 4.4 32.86 4.39 32.9 4.4 C 33.6 4.4 34 4.7 34 5.4 C 34 5.4 34 5.7 34 5.7 C 34.01 6.03 34 6.3 34 6.3 C 34 6.3 34.01 6.26 34 6.3 C 34.4 5.5 35.4 4.2 37.4 4.2 C 39.6 4.2 40.6 5.3 40.6 7.7 C 40.6 7.7 40.6 11.6 40.6 11.6 C 40.6 11.9 40.7 12 41 12 C 40.96 12.01 41.7 12 41.7 12 L 41.7 13.5 C 41.7 13.5 39.97 13.5 40 13.5 C 39.2 13.5 38.8 13.2 38.8 12.3 C 38.8 12.3 38.8 8.1 38.8 8.1 C 38.8 6.8 38.6 5.8 37.1 5.8 C 35.7 5.8 34.6 6.7 34.2 8 C 34.1 8.4 34.1 8.8 34.1 9.2 C 34.06 9.23 34.1 13.5 34.1 13.5 L 32.3 13.5 C 32.3 13.5 32.32 6.28 32.3 6.3 Z M 43.7 5.8 L 42.5 5.8 L 42.5 4.4 L 43.7 4.4 L 43.7 1.9 L 45.4 1.9 L 45.4 4.4 L 47.6 4.4 L 47.6 5.8 L 45.4 5.8 C 45.4 5.8 45.4 9.97 45.4 10 C 45.4 11.8 46.7 12 47.3 12 C 47.58 12.02 47.7 12 47.7 12 L 47.7 13.5 C 47.7 13.5 47.51 13.57 47.1 13.6 C 46 13.6 43.7 13.2 43.7 10.2 C 43.66 10.17 43.7 5.8 43.7 5.8 Z M 49.9 6.3 C 49.9 6 49.8 5.9 49.5 5.9 C 49.52 5.89 48.8 5.9 48.8 5.9 L 48.8 4.4 C 48.8 4.4 50.44 4.39 50.4 4.4 C 51.2 4.4 51.6 4.7 51.6 5.5 C 51.6 5.5 51.6 6 51.6 6 C 51.61 6.39 51.6 6.7 51.6 6.7 C 51.6 6.7 51.61 6.66 51.6 6.7 C 52 5.3 53.1 4.3 54.5 4.3 C 54.72 4.28 55 4.3 55 4.3 L 55 6 C 55 6 54.72 5.99 54.4 6 C 53.3 6 52.3 6.8 51.9 8.1 C 51.7 8.7 51.7 9.2 51.7 9.8 C 51.66 9.77 51.7 13.5 51.7 13.5 L 49.9 13.5 C 49.9 13.5 49.92 6.28 49.9 6.3 Z M 60.5 4.2 C 63.3 4.2 65.5 6.2 65.5 8.9 C 65.5 11.7 63.3 13.7 60.5 13.7 C 57.8 13.7 55.6 11.7 55.6 8.9 C 55.6 6.2 57.8 4.2 60.5 4.2 Z M 60.5 12.2 C 62.3 12.2 63.7 10.8 63.7 8.9 C 63.7 7 62.3 5.7 60.5 5.7 C 58.8 5.7 57.4 7 57.4 8.9 C 57.4 10.8 58.8 12.2 60.5 12.2 Z M 67.4 2.7 C 67.4 2.4 67.3 2.3 67 2.3 C 67.04 2.29 66.3 2.3 66.3 2.3 L 66.3 0.8 C 66.3 0.8 68.03 0.79 68 0.8 C 68.8 0.8 69.2 1.1 69.2 1.9 C 69.2 1.9 69.2 11.6 69.2 11.6 C 69.2 11.9 69.3 12 69.6 12 C 69.58 12.01 70.3 12 70.3 12 L 70.3 13.5 C 70.3 13.5 68.59 13.5 68.6 13.5 C 67.8 13.5 67.4 13.2 67.4 12.3 C 67.4 12.3 67.4 2.7 67.4 2.7 Z M 76.9 7.8 C 76.92 7.83 77.3 7.8 77.3 7.8 C 77.3 7.8 77.31 7.74 77.3 7.7 C 77.3 6.1 76.7 5.6 75.3 5.6 C 74.9 5.6 73.8 5.7 73.8 6.3 C 73.8 6.26 73.8 6.8 73.8 6.8 L 72.2 6.8 C 72.2 6.8 72.17 5.89 72.2 5.9 C 72.2 4.4 74.4 4.2 75.3 4.2 C 78.3 4.2 79.1 5.7 79.1 7.7 C 79.1 7.7 79.1 11.6 79.1 11.6 C 79.1 11.9 79.2 12 79.5 12 C 79.46 12.01 80.2 12 80.2 12 L 80.2 13.5 C 80.2 13.5 78.56 13.5 78.6 13.5 C 77.7 13.5 77.4 13.1 77.4 12.5 C 77.42 12.15 77.5 11.9 77.5 11.9 L 77.4 11.9 C 77.4 11.9 76.7 13.72 74.5 13.7 C 73 13.7 71.4 12.8 71.4 10.9 C 71.4 8 75.4 7.8 76.9 7.8 Z M 74.9 12.3 C 76.4 12.3 77.3 10.8 77.3 9.4 C 77.33 9.41 77.3 9.1 77.3 9.1 C 77.3 9.1 76.88 9.11 76.9 9.1 C 75.6 9.1 73.2 9.2 73.2 10.9 C 73.2 11.6 73.8 12.3 74.9 12.3 Z M 90.9 4.2 C 92 4.2 94.2 4.6 94.2 6.2 C 94.22 6.17 94.2 7.1 94.2 7.1 L 92.6 7.1 C 92.6 7.1 92.63 6.61 92.6 6.6 C 92.6 6 91.6 5.7 90.9 5.7 C 89.2 5.7 87.8 7 87.8 8.9 C 87.8 11 89.3 12.2 91 12.2 C 92.74 12.17 93.9 10.9 93.9 10.9 L 94.6 12.2 C 94.6 12.2 93.32 13.72 90.9 13.7 C 88 13.7 86 11.7 86 8.9 C 86 6.3 88 4.2 90.9 4.2 Z M 97 15.8 C 97.7 15.8 98.3 15.3 98.6 14.5 C 98.64 14.45 99.1 13.5 99.1 13.5 C 99.1 13.5 95.94 6.25 95.9 6.2 C 95.8 6 95.7 5.9 95.4 5.9 C 95.37 5.89 95.2 5.9 95.2 5.9 L 95.2 4.4 C 95.2 4.4 96.18 4.39 96.2 4.4 C 96.9 4.4 97.2 4.6 97.5 5.3 C 97.5 5.3 99.5 10.4 99.5 10.4 C 99.72 10.91 99.9 11.5 99.9 11.5 L 99.9 11.5 C 99.9 11.5 100.03 10.91 100.2 10.4 C 100.2 10.4 102.1 5.3 102.1 5.3 C 102.4 4.6 102.7 4.4 103.4 4.4 C 103.43 4.39 104.5 4.4 104.5 4.4 L 104.5 5.9 C 104.5 5.9 104.24 5.89 104.2 5.9 C 104 5.9 103.8 6 103.7 6.2 C 103.7 6.2 100.1 15.1 100.1 15.1 C 99.5 16.5 98.4 17.3 97.1 17.3 C 95.78 17.28 95 16.4 95 16.4 C 95 16.4 95.71 15.12 95.7 15.1 C 95.7 15.1 96.3 15.8 97 15.8 Z M 106.2 2.7 C 106.2 2.4 106 2.3 105.8 2.3 C 105.79 2.29 105.1 2.3 105.1 2.3 L 105.1 0.8 C 105.1 0.8 106.78 0.79 106.8 0.8 C 107.6 0.8 107.9 1 107.9 1.8 C 107.93 1.84 107.9 7.7 107.9 7.7 C 107.9 7.7 108.74 7.74 108.7 7.7 C 109.1 7.7 109.5 7.7 109.7 7.3 C 109.7 7.34 111.8 4.4 111.8 4.4 L 113.8 4.4 C 113.8 4.4 111.33 7.78 111.3 7.8 C 110.92 8.33 110.7 8.5 110.7 8.5 L 110.7 8.5 C 110.7 8.5 110.96 8.6 111.3 9.2 C 111.3 9.2 112.6 11.6 112.6 11.6 C 112.8 11.9 112.9 12 113.4 12 C 113.39 12.01 113.9 12 113.9 12 L 113.9 13.5 C 113.9 13.5 112.68 13.5 112.7 13.5 C 111.8 13.5 111.6 13.4 111.2 12.7 C 111.2 12.7 109.5 9.6 109.5 9.6 C 109.3 9.3 108.9 9.2 108.6 9.2 C 108.62 9.22 107.9 9.2 107.9 9.2 L 107.9 13.5 L 106.2 13.5 C 106.2 13.5 106.19 2.68 106.2 2.7 Z M 115.5 2.7 C 115.5 2.4 115.4 2.3 115.2 2.3 C 115.15 2.29 114.4 2.3 114.4 2.3 L 114.4 0.8 C 114.4 0.8 116.14 0.79 116.1 0.8 C 117 0.8 117.3 1.1 117.3 1.9 C 117.3 1.9 117.3 11.6 117.3 11.6 C 117.3 11.9 117.4 12 117.7 12 C 117.69 12.01 118.4 12 118.4 12 L 118.4 13.5 C 118.4 13.5 116.7 13.5 116.7 13.5 C 115.9 13.5 115.5 13.2 115.5 12.3 C 115.5 12.3 115.5 2.7 115.5 2.7 Z M 120.4 6.3 C 120.4 6 120.2 5.9 120 5.9 C 119.97 5.89 119.2 5.9 119.2 5.9 L 119.2 4.4 C 119.2 4.4 120.95 4.39 120.9 4.4 C 121.8 4.4 122.1 4.7 122.1 5.5 C 122.1 5.5 122.1 9.8 122.1 9.8 C 122.1 11.1 122.4 12.1 123.8 12.1 C 125.7 12.1 126.8 10.5 126.8 8.7 C 126.78 8.66 126.8 4.4 126.8 4.4 L 128.5 4.4 C 128.5 4.4 128.52 11.61 128.5 11.6 C 128.5 11.9 128.7 12 128.9 12 C 128.92 12.01 129.7 12 129.7 12 L 129.7 13.5 C 129.7 13.5 127.98 13.5 128 13.5 C 127.2 13.5 126.8 13.1 126.8 12.5 C 126.8 12.5 126.8 12.2 126.8 12.2 C 126.83 11.86 126.9 11.6 126.9 11.6 C 126.9 11.6 126.81 11.63 126.8 11.6 C 126.4 12.5 125.3 13.7 123.5 13.7 C 121.4 13.7 120.4 12.6 120.4 10.2 C 120.4 10.2 120.4 6.3 120.4 6.3 Z " stroke="none" fill="#ee3078"/>  </g></svg>