<?xml version="1.0" standalone="no"?><!DOCTYPE svg PUBLIC "-//W3C//DTD SVG 1.1//EN" "http://www.w3.org/Graphics/SVG/1.1/DTD/svg11.dtd"><svg xmlns="http://www.w3.org/2000/svg" version="1.1" width="53px" height="20.5px" viewBox="0 -2 53 20.5" style="top:-2px">  <desc>20E4/DRSP</desc>  <defs/>  <g id="Polygon72762">    <path d="M 4.7 2.4 C 4.7 1.7 4.3 1.2 3.5 1.2 C 2.9 1.2 2.4 1.6 2.4 1.9 C 2.42 1.91 2.4 2.2 2.4 2.2 L 1.5 2.2 C 1.5 2.2 1.5 1.62 1.5 1.6 C 1.5 0.7 2.7 0.3 3.5 0.3 C 4.8 0.3 5.8 1.1 5.8 2.3 C 5.8 4.8 2.2 4.8 2.2 6.5 C 2.2 6.6 2.3 6.6 2.4 6.6 C 2.4 6.6 4.9 6.6 4.9 6.6 C 5.1 6.6 5.2 6.6 5.2 6.4 C 5.17 6.42 5.2 6 5.2 6 L 6.1 6 C 6.1 6 6.09 6.86 6.1 6.9 C 6.1 7.3 5.9 7.5 5.4 7.5 C 5.4 7.5 1.8 7.5 1.8 7.5 C 1.3 7.5 1.2 7.3 1.2 6.7 C 1.2 4.1 4.7 4.3 4.7 2.4 Z M 7 4 C 7 1.9 7.6 0.3 9.5 0.3 C 11.4 0.3 12 1.9 12 4 C 12 6 11.4 7.6 9.5 7.6 C 7.6 7.6 7 6 7 4 Z M 11 4 C 11 2.4 10.6 1.2 9.5 1.2 C 8.3 1.2 8 2.4 8 4 C 8 5.5 8.3 6.7 9.5 6.7 C 10.6 6.7 11 5.5 11 4 Z M 13.6 1.3 L 12.9 1.3 L 12.9 0.4 C 12.9 0.4 17.06 0.44 17.1 0.4 C 17.5 0.4 17.7 0.6 17.7 1.1 C 17.7 1.08 17.7 2 17.7 2 L 16.8 2 C 16.8 2 16.79 1.52 16.8 1.5 C 16.8 1.4 16.7 1.3 16.6 1.3 C 16.57 1.3 14.6 1.3 14.6 1.3 L 14.6 3.5 L 17 3.5 L 17 4.4 L 14.6 4.4 C 14.6 4.4 14.56 6.42 14.6 6.4 C 14.6 6.6 14.6 6.6 14.8 6.6 C 14.8 6.6 16.8 6.6 16.8 6.6 C 17 6.6 17.1 6.6 17.1 6.4 C 17.06 6.42 17.1 6 17.1 6 L 18 6 C 18 6 17.98 6.86 18 6.9 C 18 7.3 17.8 7.5 17.3 7.5 C 17.3 7.5 14.2 7.5 14.2 7.5 C 13.7 7.5 13.6 7.3 13.6 6.9 C 13.56 6.86 13.6 1.3 13.6 1.3 Z M 18.4 5 L 21.6 0.4 L 22.7 0.4 L 22.7 4.8 L 23.8 4.8 L 23.8 5.6 L 22.7 5.6 L 22.7 7.5 L 21.7 7.5 L 21.7 5.6 L 18.4 5.6 L 18.4 5 Z M 21.7 2.3 C 21.71 2.02 21.7 1.6 21.7 1.6 L 21.7 1.6 C 21.7 1.6 21.55 1.96 21.4 2.2 C 21.4 2.2 19.8 4.3 19.8 4.3 C 19.65 4.58 19.5 4.8 19.5 4.8 L 19.5 4.8 C 19.5 4.8 19.75 4.77 20.1 4.8 C 20.06 4.77 21.7 4.8 21.7 4.8 C 21.7 4.8 21.71 2.34 21.7 2.3 Z M 26.5 0.1 L 27.4 0.1 L 24.8 7.9 L 24 7.9 L 26.5 0.1 Z M 28.4 1.3 L 27.8 1.3 L 27.8 0.4 C 27.8 0.4 30.66 0.44 30.7 0.4 C 32.8 0.4 34.2 1.7 34.2 4 C 34.2 6.2 32.8 7.5 30.7 7.5 C 30.7 7.5 29.1 7.5 29.1 7.5 C 28.6 7.5 28.4 7.3 28.4 6.9 C 28.45 6.86 28.4 1.3 28.4 1.3 Z M 29.7 6.6 C 29.7 6.6 30.6 6.6 30.6 6.6 C 32.2 6.6 33.2 5.7 33.2 4 C 33.2 2.2 32.1 1.3 30.6 1.3 C 30.59 1.3 29.4 1.3 29.4 1.3 C 29.4 1.3 29.45 6.42 29.4 6.4 C 29.4 6.6 29.5 6.6 29.7 6.6 Z M 35.6 1.3 L 34.9 1.3 L 34.9 0.4 C 34.9 0.4 38.03 0.44 38 0.4 C 39.3 0.4 40.1 1.2 40.1 2.5 C 40.1 3.7 39.4 4.3 38.9 4.4 C 38.87 4.38 38.9 4.4 38.9 4.4 C 38.9 4.4 39.05 4.49 39.2 4.7 C 39.2 4.7 40 6.4 40 6.4 C 40.1 6.6 40.3 6.6 40.5 6.6 C 40.52 6.64 40.6 6.6 40.6 6.6 L 40.6 7.5 C 40.6 7.5 40.16 7.5 40.2 7.5 C 39.6 7.5 39.4 7.4 39.2 7 C 39.2 7 38.2 5.1 38.2 5.1 C 38 4.7 37.9 4.7 37.5 4.7 C 37.52 4.69 36.6 4.7 36.6 4.7 L 36.6 7.5 L 35.6 7.5 L 35.6 1.3 Z M 37.9 3.8 C 38.7 3.8 39.1 3.3 39.1 2.6 C 39.1 1.8 38.7 1.3 37.9 1.3 C 37.92 1.3 36.6 1.3 36.6 1.3 L 36.6 3.8 C 36.6 3.8 37.9 3.83 37.9 3.8 Z M 41.7 5.9 C 41.7 5.9 42.4 6.71 43.4 6.7 C 44.1 6.7 44.7 6.3 44.7 5.7 C 44.7 4.2 41.2 4.4 41.2 2.2 C 41.2 1.1 42.2 0.3 43.5 0.3 C 44.3 0.3 45.5 0.7 45.5 1.6 C 45.52 1.62 45.5 2.2 45.5 2.2 L 44.6 2.2 C 44.6 2.2 44.6 1.87 44.6 1.9 C 44.6 1.5 44.1 1.2 43.5 1.2 C 42.7 1.2 42.3 1.6 42.3 2.2 C 42.3 3.6 45.7 3.3 45.7 5.6 C 45.7 6.7 44.8 7.6 43.4 7.6 C 41.93 7.62 41.1 6.6 41.1 6.6 L 41.7 5.9 Z M 47.1 1.3 L 46.5 1.3 L 46.5 0.4 C 46.5 0.4 49.57 0.44 49.6 0.4 C 50.9 0.4 51.8 1.3 51.8 2.6 C 51.8 4 50.9 4.9 49.6 4.9 C 49.57 4.89 48.1 4.9 48.1 4.9 L 48.1 7.5 L 47.1 7.5 L 47.1 1.3 Z M 49.4 4 C 50.2 4 50.7 3.5 50.7 2.6 C 50.7 1.8 50.2 1.3 49.4 1.3 C 49.42 1.3 48.1 1.3 48.1 1.3 L 48.1 4 C 48.1 4 49.41 4.03 49.4 4 Z " stroke="none" fill="#000"/>  </g></svg>