<?xml version="1.0" standalone="no"?><!DOCTYPE svg PUBLIC "-//W3C//DTD SVG 1.1//EN" "http://www.w3.org/Graphics/SVG/1.1/DTD/svg11.dtd"><svg xmlns="http://www.w3.org/2000/svg" version="1.1" width="723px" height="71px" viewBox="0 -3 723 71" style="top:-3px">  <desc>Pri metabolizme estetrol podlieha procesu glukuronid cie a ako neakt vny metabolit sa vylu uje najm v mo i, iba mal ...</desc>  <defs/>  <g id="Polygon71085">    <path d="M 0.5 50.8 C 0.5 50.8 1.02 50.76 1 50.8 C 1.2 50.8 1.3 50.7 1.3 50.5 C 1.28 50.5 1.3 43.1 1.3 43.1 L 2.1 43.1 C 2.1 43.1 6.36 49.08 6.4 49.1 C 6.65 49.5 7 50.2 7 50.2 L 7.1 50.2 C 7.1 50.2 7.01 49.52 7 49.1 C 7 49.1 7 43.8 7 43.8 C 7 43.3 7.2 43.1 7.7 43.1 C 7.74 43.07 8.6 43.1 8.6 43.1 L 8.6 43.8 C 8.6 43.8 8.11 43.81 8.1 43.8 C 7.9 43.8 7.8 43.9 7.8 44.1 C 7.85 44.08 7.8 51.5 7.8 51.5 L 7.1 51.5 C 7.1 51.5 2.77 45.49 2.8 45.5 C 2.47 45.08 2.1 44.4 2.1 44.4 L 2.1 44.4 C 2.1 44.4 2.12 45.05 2.1 45.5 C 2.1 45.5 2.1 50.8 2.1 50.8 C 2.1 51.3 1.9 51.5 1.4 51.5 C 1.39 51.5 0.5 51.5 0.5 51.5 L 0.5 50.8 Z M 12.5 45.3 C 14.2 45.3 15 46.6 15 48.1 C 15.05 48.25 15 48.5 15 48.5 C 15 48.5 10.39 48.52 10.4 48.5 C 10.4 50 11.5 50.9 12.7 50.9 C 13.84 50.92 14.5 50.2 14.5 50.2 L 14.9 50.8 C 14.9 50.8 14.06 51.65 12.7 51.6 C 10.9 51.6 9.5 50.4 9.5 48.5 C 9.5 46.5 10.9 45.3 12.5 45.3 Z M 14.2 47.9 C 14.2 46.6 13.4 46 12.5 46 C 11.5 46 10.6 46.7 10.4 47.9 C 10.4 47.9 14.2 47.9 14.2 47.9 Z M 16.1 51 C 16.1 51 19.5 46.74 19.5 46.7 C 19.73 46.45 20 46.2 20 46.2 L 20 46.2 C 20 46.2 19.78 46.19 19.4 46.2 C 19.4 46.2 17.2 46.2 17.2 46.2 C 17 46.2 16.9 46.3 16.9 46.5 C 16.91 46.45 16.9 46.9 16.9 46.9 L 16.1 46.9 C 16.1 46.9 16.14 46.2 16.1 46.2 C 16.1 45.7 16.4 45.5 16.9 45.5 C 16.87 45.47 21.1 45.5 21.1 45.5 L 21.1 46 C 21.1 46 17.68 50.23 17.7 50.2 C 17.44 50.52 17.2 50.8 17.2 50.8 L 17.2 50.8 C 17.2 50.8 17.39 50.78 17.8 50.8 C 17.8 50.8 20.3 50.8 20.3 50.8 C 20.4 50.8 20.5 50.7 20.5 50.5 C 20.54 50.52 20.5 50.1 20.5 50.1 L 21.3 50.1 C 21.3 50.1 21.31 50.77 21.3 50.8 C 21.3 51.3 21.1 51.5 20.6 51.5 C 20.58 51.5 16.1 51.5 16.1 51.5 L 16.1 51 Z M 22.7 46.4 C 22.7 46.3 22.6 46.2 22.4 46.2 C 22.4 46.18 21.9 46.2 21.9 46.2 L 21.9 45.5 C 21.9 45.5 22.74 45.47 22.7 45.5 C 23.2 45.5 23.5 45.7 23.5 46.1 C 23.5 46.1 23.5 46.4 23.5 46.4 C 23.47 46.66 23.4 46.8 23.4 46.8 C 23.4 46.8 23.47 46.85 23.5 46.8 C 23.7 46.3 24.5 45.3 25.9 45.3 C 27.4 45.3 27.9 46.2 27.9 47.7 C 27.9 47.7 27.9 50.5 27.9 50.5 C 27.9 50.7 28 50.8 28.2 50.8 C 28.16 50.8 28.7 50.8 28.7 50.8 L 28.7 51.5 C 28.7 51.5 27.82 51.5 27.8 51.5 C 27.3 51.5 27.1 51.3 27.1 50.8 C 27.1 50.8 27.1 47.9 27.1 47.9 C 27.1 46.9 26.9 46.1 25.8 46.1 C 24.7 46.1 23.9 46.8 23.6 47.8 C 23.5 48 23.5 48.3 23.5 48.6 C 23.48 48.61 23.5 51.5 23.5 51.5 L 22.7 51.5 C 22.7 51.5 22.67 46.44 22.7 46.4 Z M 32.4 45.3 C 34 45.3 34.9 46.6 34.9 48.1 C 34.91 48.25 34.9 48.5 34.9 48.5 C 34.9 48.5 30.25 48.52 30.3 48.5 C 30.3 50 31.3 50.9 32.6 50.9 C 33.7 50.92 34.4 50.2 34.4 50.2 L 34.8 50.8 C 34.8 50.8 33.92 51.65 32.6 51.6 C 30.8 51.6 29.4 50.4 29.4 48.5 C 29.4 46.5 30.8 45.3 32.4 45.3 Z M 34.1 47.9 C 34 46.6 33.3 46 32.4 46 C 31.4 46 30.5 46.7 30.3 47.9 C 30.3 47.9 34.1 47.9 34.1 47.9 Z M 39.2 45.3 C 39.8 45.3 41.3 45.6 41.3 46.6 C 41.3 46.61 41.3 47.1 41.3 47.1 L 40.5 47.1 C 40.5 47.1 40.54 46.8 40.5 46.8 C 40.5 46.3 39.7 46.1 39.2 46.1 C 37.9 46.1 36.8 47 36.8 48.5 C 36.8 50 37.9 50.9 39.2 50.9 C 40.42 50.9 41.1 50.1 41.1 50.1 L 41.5 50.7 C 41.5 50.7 40.69 51.65 39.1 51.6 C 37.3 51.6 36 50.4 36 48.5 C 36 46.6 37.4 45.3 39.2 45.3 Z M 37.6 43.1 L 38.3 43.1 L 39 44 L 39 44 L 39.6 43.1 L 40.4 43.1 L 39.4 44.5 L 38.6 44.5 L 37.6 43.1 Z M 42.9 43.1 L 43.7 43.1 L 43.7 44.1 L 42.9 44.1 L 42.9 43.1 Z M 42.9 46.4 C 42.9 46.3 42.8 46.2 42.7 46.2 C 42.67 46.18 42.2 46.2 42.2 46.2 L 42.2 45.5 C 42.2 45.5 43.02 45.47 43 45.5 C 43.5 45.5 43.8 45.7 43.8 46.2 C 43.8 46.2 43.8 50.5 43.8 50.5 C 43.8 50.7 43.8 50.8 44 50.8 C 44.01 50.8 44.5 50.8 44.5 50.8 L 44.5 51.5 C 44.5 51.5 43.67 51.5 43.7 51.5 C 43.2 51.5 42.9 51.3 42.9 50.8 C 42.9 50.8 42.9 46.4 42.9 46.4 Z M 45.7 50 C 45.7 50 46.33 50.94 47.5 50.9 C 48.2 50.9 48.8 50.6 48.8 50 C 48.8 48.7 45.4 48.9 45.4 47 C 45.4 45.9 46.3 45.3 47.6 45.3 C 48.2 45.3 49.4 45.6 49.4 46.4 C 49.39 46.42 49.4 46.9 49.4 46.9 L 48.6 46.9 C 48.6 46.9 48.62 46.64 48.6 46.6 C 48.6 46.2 48 46 47.6 46 C 46.7 46 46.2 46.3 46.2 46.9 C 46.2 48.3 49.6 48 49.6 50 C 49.6 51 48.7 51.6 47.5 51.6 C 45.94 51.65 45.2 50.6 45.2 50.6 L 45.7 50 Z M 51.3 46.2 L 50.5 46.2 L 50.5 45.5 L 51.3 45.5 L 51.3 43.8 L 52.1 43.8 L 52.1 45.5 L 53.6 45.5 L 53.6 46.2 L 52.1 46.2 C 52.1 46.2 52.07 49.22 52.1 49.2 C 52.1 50.6 53 50.8 53.4 50.8 C 53.59 50.82 53.7 50.8 53.7 50.8 L 53.7 51.5 C 53.7 51.5 53.55 51.55 53.4 51.6 C 52.7 51.6 51.3 51.3 51.3 49.3 C 51.25 49.31 51.3 46.2 51.3 46.2 Z M 53.6 43.1 C 53.7 43.3 53.7 43.5 53.7 43.6 C 53.7 44 53.6 44.3 53.4 44.7 C 53.4 44.7 52.8 44.7 52.8 44.7 C 52.9 44.4 53 44.1 53 43.8 C 53 43.5 53 43.3 52.9 43.1 C 52.9 43.1 53.6 43.1 53.6 43.1 Z M 55.3 46.4 C 55.3 46.3 55.2 46.2 55.1 46.2 C 55.06 46.18 54.6 46.2 54.6 46.2 L 54.6 45.5 C 54.6 45.5 55.4 45.47 55.4 45.5 C 55.9 45.5 56.1 45.7 56.1 46.2 C 56.1 46.2 56.1 49.1 56.1 49.1 C 56.1 50 56.3 50.9 57.5 50.9 C 58.8 50.9 59.7 49.7 59.7 48.4 C 59.68 48.36 59.7 45.5 59.7 45.5 L 60.5 45.5 C 60.5 45.5 60.49 50.53 60.5 50.5 C 60.5 50.7 60.6 50.8 60.8 50.8 C 60.75 50.8 61.3 50.8 61.3 50.8 L 61.3 51.5 C 61.3 51.5 60.43 51.5 60.4 51.5 C 59.9 51.5 59.7 51.3 59.7 50.8 C 59.7 50.8 59.7 50.6 59.7 50.6 C 59.7 50.3 59.7 50.1 59.7 50.1 C 59.7 50.1 59.7 50.1 59.7 50.1 C 59.5 50.7 58.7 51.6 57.3 51.6 C 55.9 51.6 55.3 50.9 55.3 49.3 C 55.3 49.3 55.3 46.4 55.3 46.4 Z M 62.9 43.1 L 63.7 43.1 L 63.7 44.1 L 62.9 44.1 L 62.9 43.1 Z M 61.5 53.2 C 62 53.2 62.9 53.1 62.9 51.7 C 62.9 51.7 62.9 46.4 62.9 46.4 C 62.9 46.3 62.8 46.2 62.7 46.2 C 62.65 46.18 62.1 46.2 62.1 46.2 L 62.1 45.5 C 62.1 45.5 63 45.47 63 45.5 C 63.5 45.5 63.7 45.7 63.7 46.2 C 63.7 46.2 63.7 51.7 63.7 51.7 C 63.7 53.7 62.3 54 61.6 54 C 61.4 54 61.3 53.9 61.3 53.9 C 61.28 53.94 61.3 53.2 61.3 53.2 C 61.3 53.2 61.39 53.24 61.5 53.2 Z M 68.2 45.3 C 69.9 45.3 70.7 46.6 70.7 48.1 C 70.74 48.25 70.7 48.5 70.7 48.5 C 70.7 48.5 66.08 48.52 66.1 48.5 C 66.1 50 67.2 50.9 68.4 50.9 C 69.53 50.92 70.2 50.2 70.2 50.2 L 70.6 50.8 C 70.6 50.8 69.76 51.65 68.4 51.6 C 66.6 51.6 65.2 50.4 65.2 48.5 C 65.2 46.5 66.6 45.3 68.2 45.3 Z M 69.9 47.9 C 69.9 46.6 69.1 46 68.2 46 C 67.2 46 66.3 46.7 66.1 47.9 C 66.1 47.9 69.9 47.9 69.9 47.9 Z M 78.3 45.3 C 80 45.3 81.4 46.7 81.4 48.5 C 81.4 50.3 80 51.6 78.3 51.6 C 76.5 51.6 75.1 50.3 75.1 48.5 C 75.1 46.7 76.5 45.3 78.3 45.3 Z M 78.3 50.9 C 79.5 50.9 80.6 49.9 80.6 48.5 C 80.6 47.1 79.5 46.1 78.3 46.1 C 77 46.1 75.9 47.1 75.9 48.5 C 75.9 49.9 77 50.9 78.3 50.9 Z M 85.1 45.3 C 86.6 45.32 87.1 46.5 87.1 46.5 L 87.1 46.5 C 87.1 46.5 87.11 46.25 87.1 46 C 87.1 46 87.1 44 87.1 44 C 87.1 43.9 87 43.8 86.8 43.8 C 86.84 43.78 86.3 43.8 86.3 43.8 L 86.3 43.1 C 86.3 43.1 87.19 43.07 87.2 43.1 C 87.7 43.1 87.9 43.3 87.9 43.8 C 87.9 43.8 87.9 50.5 87.9 50.5 C 87.9 50.7 88 50.8 88.2 50.8 C 88.19 50.8 88.7 50.8 88.7 50.8 L 88.7 51.5 C 88.7 51.5 87.85 51.5 87.9 51.5 C 87.3 51.5 87.1 51.3 87.1 50.8 C 87.1 50.6 87.2 50.4 87.2 50.4 C 87.16 50.45 87.1 50.4 87.1 50.4 C 87.1 50.4 86.64 51.65 85.1 51.6 C 83.4 51.6 82.4 50.4 82.4 48.5 C 82.4 46.6 83.6 45.3 85.1 45.3 Z M 87.1 48.5 C 87.1 47.3 86.5 46.1 85.2 46.1 C 84.1 46.1 83.3 47 83.3 48.5 C 83.3 50 84 50.9 85.2 50.9 C 86.2 50.9 87.1 50.2 87.1 48.5 Z M 90 46.4 C 90 46.3 89.9 46.2 89.8 46.2 C 89.76 46.18 89.3 46.2 89.3 46.2 L 89.3 45.5 C 89.3 45.5 90.08 45.47 90.1 45.5 C 90.6 45.5 90.8 45.7 90.8 46.1 C 90.8 46.3 90.8 46.5 90.8 46.5 C 90.79 46.51 90.8 46.5 90.8 46.5 C 90.8 46.5 91.29 45.32 92.9 45.3 C 94.5 45.3 95.5 46.6 95.5 48.5 C 95.5 50.4 94.4 51.6 92.8 51.6 C 91.34 51.65 90.8 50.5 90.8 50.5 L 90.8 50.5 C 90.8 50.5 90.84 50.72 90.8 51 C 90.84 51.04 90.8 53.9 90.8 53.9 L 90 53.9 C 90 53.9 90.02 46.44 90 46.4 Z M 92.7 50.9 C 93.8 50.9 94.7 50 94.7 48.5 C 94.7 47 93.9 46.1 92.8 46.1 C 91.8 46.1 90.8 46.8 90.8 48.5 C 90.8 49.7 91.5 50.9 92.7 50.9 Z M 100.1 47.8 C 100.14 47.78 100.5 47.8 100.5 47.8 C 100.5 47.8 100.48 47.71 100.5 47.7 C 100.5 46.5 100 46 98.9 46 C 98.6 46 97.7 46.1 97.7 46.5 C 97.74 46.54 97.7 46.9 97.7 46.9 L 97 46.9 C 97 46.9 96.96 46.34 97 46.3 C 97 45.5 98.4 45.3 98.9 45.3 C 100.8 45.3 101.3 46.3 101.3 47.6 C 101.3 47.6 101.3 50.5 101.3 50.5 C 101.3 50.7 101.4 50.8 101.6 50.8 C 101.55 50.8 102.1 50.8 102.1 50.8 L 102.1 51.5 C 102.1 51.5 101.23 51.5 101.2 51.5 C 100.7 51.5 100.5 51.3 100.5 50.8 C 100.5 50.5 100.5 50.3 100.5 50.3 C 100.5 50.3 100.5 50.3 100.5 50.3 C 100.5 50.3 100 51.6 98.5 51.6 C 97.5 51.6 96.4 51.1 96.4 49.9 C 96.4 47.9 99.1 47.8 100.1 47.8 Z M 98.6 51 C 99.8 51 100.5 49.8 100.5 48.7 C 100.48 48.71 100.5 48.4 100.5 48.4 C 100.5 48.4 100.13 48.43 100.1 48.4 C 99.2 48.4 97.3 48.5 97.3 49.8 C 97.3 50.4 97.7 51 98.6 51 Z M 105.5 45.3 C 106.99 45.32 107.5 46.5 107.5 46.5 L 107.5 46.5 C 107.5 46.5 107.5 46.25 107.5 46 C 107.5 46 107.5 44 107.5 44 C 107.5 43.9 107.4 43.8 107.2 43.8 C 107.23 43.78 106.7 43.8 106.7 43.8 L 106.7 43.1 C 106.7 43.1 107.58 43.07 107.6 43.1 C 108.1 43.1 108.3 43.3 108.3 43.8 C 108.3 43.8 108.3 50.5 108.3 50.5 C 108.3 50.7 108.4 50.8 108.6 50.8 C 108.57 50.8 109.1 50.8 109.1 50.8 L 109.1 51.5 C 109.1 51.5 108.24 51.5 108.2 51.5 C 107.7 51.5 107.5 51.3 107.5 50.8 C 107.5 50.6 107.5 50.4 107.5 50.4 C 107.54 50.45 107.5 50.4 107.5 50.4 C 107.5 50.4 107.03 51.65 105.4 51.6 C 103.8 51.6 102.8 50.4 102.8 48.5 C 102.8 46.6 103.9 45.3 105.5 45.3 Z M 107.5 48.5 C 107.5 47.3 106.9 46.1 105.6 46.1 C 104.5 46.1 103.7 47 103.7 48.5 C 103.7 50 104.4 50.9 105.6 50.9 C 106.6 50.9 107.5 50.2 107.5 48.5 Z M 113 45.3 C 114.8 45.3 116.2 46.7 116.2 48.5 C 116.2 50.3 114.8 51.6 113 51.6 C 111.3 51.6 109.8 50.3 109.8 48.5 C 109.8 46.7 111.3 45.3 113 45.3 Z M 113 50.9 C 114.3 50.9 115.4 49.9 115.4 48.5 C 115.4 47.1 114.3 46.1 113 46.1 C 111.7 46.1 110.7 47.1 110.7 48.5 C 110.7 49.9 111.7 50.9 113 50.9 Z M 117.3 46.5 C 117.2 46.2 117.1 46.2 116.9 46.2 C 116.86 46.18 116.7 46.2 116.7 46.2 L 116.7 45.5 C 116.7 45.5 117.07 45.47 117.1 45.5 C 117.6 45.5 117.8 45.6 118 46.1 C 118 46.1 119.5 49.9 119.5 49.9 C 119.59 50.2 119.7 50.6 119.7 50.6 L 119.7 50.6 C 119.7 50.6 119.81 50.2 119.9 49.9 C 119.9 49.9 121.4 46.1 121.4 46.1 C 121.6 45.6 121.7 45.5 122.3 45.5 C 122.31 45.47 122.6 45.5 122.6 45.5 L 122.6 46.2 C 122.6 46.2 122.52 46.18 122.5 46.2 C 122.3 46.2 122.2 46.2 122.1 46.5 C 122.1 46.45 120.1 51.5 120.1 51.5 L 119.2 51.5 C 119.2 51.5 117.28 46.45 117.3 46.5 Z M 126.1 45.3 C 127.8 45.3 128.7 46.6 128.7 48.1 C 128.66 48.25 128.6 48.5 128.6 48.5 C 128.6 48.5 124.01 48.52 124 48.5 C 124 50 125.1 50.9 126.3 50.9 C 127.45 50.92 128.2 50.2 128.2 50.2 L 128.6 50.8 C 128.6 50.8 127.68 51.65 126.3 51.6 C 124.5 51.6 123.2 50.4 123.2 48.5 C 123.2 46.5 124.5 45.3 126.1 45.3 Z M 127.8 47.9 C 127.8 46.6 127 46 126.1 46 C 125.1 46 124.2 46.7 124 47.9 C 124 47.9 127.8 47.9 127.8 47.9 Z M 126.6 43.1 L 127.5 43.1 L 126.5 44.5 L 125.7 44.5 L 126.6 43.1 Z M 133.2 46.5 C 133.1 46.2 133 46.2 132.8 46.2 C 132.79 46.18 132.7 46.2 132.7 46.2 L 132.7 45.5 C 132.7 45.5 133.01 45.47 133 45.5 C 133.6 45.5 133.8 45.6 134 46.1 C 134 46.1 135.4 49.9 135.4 49.9 C 135.53 50.2 135.6 50.6 135.6 50.6 L 135.6 50.6 C 135.6 50.6 135.74 50.2 135.9 49.9 C 135.9 49.9 137.3 46.1 137.3 46.1 C 137.5 45.6 137.7 45.5 138.2 45.5 C 138.25 45.47 138.6 45.5 138.6 45.5 L 138.6 46.2 C 138.6 46.2 138.45 46.18 138.5 46.2 C 138.2 46.2 138.1 46.2 138 46.5 C 138.03 46.45 136.1 51.5 136.1 51.5 L 135.2 51.5 C 135.2 51.5 133.21 46.45 133.2 46.5 Z M 142.3 45.3 C 144 45.3 145.5 46.7 145.5 48.5 C 145.5 50.3 144 51.6 142.3 51.6 C 140.5 51.6 139.1 50.3 139.1 48.5 C 139.1 46.7 140.5 45.3 142.3 45.3 Z M 142.3 50.9 C 143.6 50.9 144.6 49.9 144.6 48.5 C 144.6 47.1 143.6 46.1 142.3 46.1 C 141 46.1 139.9 47.1 139.9 48.5 C 139.9 49.9 141 50.9 142.3 50.9 Z M 149.2 45.3 C 150.62 45.32 151.1 46.5 151.1 46.5 L 151.2 46.5 C 151.2 46.5 151.13 46.25 151.1 46 C 151.1 46 151.1 44 151.1 44 C 151.1 43.9 151 43.8 150.9 43.8 C 150.86 43.78 150.4 43.8 150.4 43.8 L 150.4 43.1 C 150.4 43.1 151.21 43.07 151.2 43.1 C 151.7 43.1 151.9 43.3 151.9 43.8 C 151.9 43.8 151.9 50.5 151.9 50.5 C 151.9 50.7 152 50.8 152.2 50.8 C 152.21 50.8 152.7 50.8 152.7 50.8 L 152.7 51.5 C 152.7 51.5 151.87 51.5 151.9 51.5 C 151.4 51.5 151.2 51.3 151.2 50.8 C 151.2 50.6 151.2 50.4 151.2 50.4 C 151.17 50.45 151.2 50.4 151.2 50.4 C 151.2 50.4 150.66 51.65 149.1 51.6 C 147.5 51.6 146.4 50.4 146.4 48.5 C 146.4 46.6 147.6 45.3 149.2 45.3 Z M 151.2 48.5 C 151.2 47.3 150.5 46.1 149.2 46.1 C 148.2 46.1 147.3 47 147.3 48.5 C 147.3 50 148.1 50.9 149.2 50.9 C 150.2 50.9 151.2 50.2 151.2 48.5 Z M 154.4 53.3 C 154.9 53.3 155.3 52.9 155.5 52.3 C 155.49 52.31 155.9 51.5 155.9 51.5 C 155.9 51.5 153.73 46.45 153.7 46.5 C 153.6 46.2 153.5 46.2 153.3 46.2 C 153.31 46.18 153.2 46.2 153.2 46.2 L 153.2 45.5 C 153.2 45.5 153.56 45.47 153.6 45.5 C 154.1 45.5 154.3 45.6 154.5 46.1 C 154.5 46.1 156 49.9 156 49.9 C 156.15 50.2 156.2 50.5 156.2 50.5 L 156.3 50.5 C 156.3 50.5 156.36 50.2 156.5 49.9 C 156.5 49.9 158 46.1 158 46.1 C 158.2 45.6 158.3 45.5 158.9 45.5 C 158.9 45.47 159.3 45.5 159.3 45.5 L 159.3 46.2 C 159.3 46.2 159.15 46.18 159.2 46.2 C 158.9 46.2 158.8 46.2 158.7 46.5 C 158.7 46.5 156.1 52.8 156.1 52.8 C 155.8 53.5 155.2 54 154.4 54 C 153.56 54.02 153.1 53.4 153.1 53.4 C 153.1 53.4 153.48 52.84 153.5 52.8 C 153.5 52.8 153.9 53.3 154.4 53.3 Z M 166.9 47.8 C 166.91 47.78 167.2 47.8 167.2 47.8 C 167.2 47.8 167.24 47.71 167.2 47.7 C 167.2 46.5 166.8 46 165.7 46 C 165.4 46 164.5 46.1 164.5 46.5 C 164.5 46.54 164.5 46.9 164.5 46.9 L 163.7 46.9 C 163.7 46.9 163.73 46.34 163.7 46.3 C 163.7 45.5 165.2 45.3 165.7 45.3 C 167.6 45.3 168.1 46.3 168.1 47.6 C 168.1 47.6 168.1 50.5 168.1 50.5 C 168.1 50.7 168.2 50.8 168.3 50.8 C 168.32 50.8 168.8 50.8 168.8 50.8 L 168.8 51.5 C 168.8 51.5 168 51.5 168 51.5 C 167.5 51.5 167.3 51.3 167.3 50.8 C 167.3 50.5 167.3 50.3 167.3 50.3 C 167.3 50.3 167.3 50.3 167.3 50.3 C 167.3 50.3 166.8 51.6 165.3 51.6 C 164.3 51.6 163.2 51.1 163.2 49.9 C 163.2 47.9 165.9 47.8 166.9 47.8 Z M 165.4 51 C 166.5 51 167.2 49.8 167.2 48.7 C 167.24 48.71 167.2 48.4 167.2 48.4 C 167.2 48.4 166.89 48.43 166.9 48.4 C 165.9 48.4 164 48.5 164 49.8 C 164 50.4 164.5 51 165.4 51 Z M 173.4 46.4 C 173.4 46.3 173.3 46.2 173.1 46.2 C 173.12 46.18 172.6 46.2 172.6 46.2 L 172.6 45.5 C 172.6 45.5 173.46 45.47 173.5 45.5 C 174 45.5 174.2 45.7 174.2 46.1 C 174.2 46.1 174.2 46.4 174.2 46.4 C 174.19 46.66 174.2 46.8 174.2 46.8 C 174.2 46.8 174.19 46.85 174.2 46.8 C 174.4 46.3 175.2 45.3 176.6 45.3 C 178.1 45.3 178.6 46.2 178.6 47.7 C 178.6 47.7 178.6 50.5 178.6 50.5 C 178.6 50.7 178.7 50.8 178.9 50.8 C 178.88 50.8 179.4 50.8 179.4 50.8 L 179.4 51.5 C 179.4 51.5 178.53 51.5 178.5 51.5 C 178 51.5 177.8 51.3 177.8 50.8 C 177.8 50.8 177.8 47.9 177.8 47.9 C 177.8 46.9 177.7 46.1 176.5 46.1 C 175.5 46.1 174.6 46.8 174.3 47.8 C 174.2 48 174.2 48.3 174.2 48.6 C 174.2 48.61 174.2 51.5 174.2 51.5 L 173.4 51.5 C 173.4 51.5 173.39 46.44 173.4 46.4 Z M 183.1 45.3 C 184.8 45.3 185.6 46.6 185.6 48.1 C 185.62 48.25 185.6 48.5 185.6 48.5 C 185.6 48.5 180.97 48.52 181 48.5 C 181 50 182.1 50.9 183.3 50.9 C 184.41 50.92 185.1 50.2 185.1 50.2 L 185.5 50.8 C 185.5 50.8 184.64 51.65 183.3 51.6 C 181.5 51.6 180.1 50.4 180.1 48.5 C 180.1 46.5 181.5 45.3 183.1 45.3 Z M 184.8 47.9 C 184.7 46.6 184 46 183.1 46 C 182.1 46 181.2 46.7 181 47.9 C 181 47.9 184.8 47.9 184.8 47.9 Z M 187.2 44 C 187.2 43.9 187.1 43.8 187 43.8 C 186.96 43.78 186.5 43.8 186.5 43.8 L 186.5 43.1 C 186.5 43.1 187.31 43.07 187.3 43.1 C 187.8 43.1 188 43.2 188 43.8 C 188.04 43.76 188 47.8 188 47.8 C 188 47.8 188.66 47.77 188.7 47.8 C 188.9 47.8 189.2 47.7 189.3 47.5 C 189.34 47.48 190.9 45.5 190.9 45.5 L 191.9 45.5 C 191.9 45.5 190.15 47.68 190.1 47.7 C 189.85 48.05 189.7 48.1 189.7 48.1 L 189.7 48.1 C 189.7 48.1 189.87 48.22 190.1 48.6 C 190.1 48.6 191.2 50.5 191.2 50.5 C 191.3 50.7 191.4 50.8 191.7 50.8 C 191.71 50.8 192 50.8 192 50.8 L 192 51.5 C 192 51.5 191.47 51.5 191.5 51.5 C 190.9 51.5 190.7 51.4 190.4 50.9 C 190.4 50.9 189.2 48.7 189.2 48.7 C 189.1 48.5 188.8 48.5 188.6 48.5 C 188.59 48.48 188 48.5 188 48.5 L 188 51.5 L 187.2 51.5 C 187.2 51.5 187.22 44.04 187.2 44 Z M 193.2 46.4 C 193.2 46.3 193.1 46.2 192.9 46.2 C 192.95 46.18 192.4 46.2 192.4 46.2 L 192.4 45.5 C 192.4 45.5 193.29 45.47 193.3 45.5 C 193.8 45.5 194 45.7 194 46.2 C 194 46.2 194 49.1 194 49.1 C 194 50 194.2 50.9 195.3 50.9 C 196.7 50.9 197.6 49.7 197.6 48.4 C 197.57 48.36 197.6 45.5 197.6 45.5 L 198.4 45.5 C 198.4 45.5 198.38 50.53 198.4 50.5 C 198.4 50.7 198.5 50.8 198.6 50.8 C 198.64 50.8 199.1 50.8 199.1 50.8 L 199.1 51.5 C 199.1 51.5 198.32 51.5 198.3 51.5 C 197.8 51.5 197.6 51.3 197.6 50.8 C 197.6 50.8 197.6 50.6 197.6 50.6 C 197.6 50.3 197.6 50.1 197.6 50.1 C 197.6 50.1 197.6 50.1 197.6 50.1 C 197.3 50.7 196.6 51.6 195.2 51.6 C 193.8 51.6 193.2 50.9 193.2 49.3 C 193.2 49.3 193.2 46.4 193.2 46.4 Z M 200.5 46.4 C 200.5 46.3 200.4 46.2 200.2 46.2 C 200.21 46.18 199.7 46.2 199.7 46.2 L 199.7 45.5 C 199.7 45.5 200.54 45.47 200.5 45.5 C 201 45.5 201.3 45.7 201.3 46.1 C 201.3 46.1 201.3 46.4 201.3 46.4 C 201.27 46.66 201.2 46.8 201.2 46.8 C 201.2 46.8 201.27 46.85 201.3 46.8 C 201.6 46 202.5 45.3 203.5 45.3 C 204.6 45.3 205.1 45.8 205.3 46.8 C 205.3 46.8 205.4 46.8 205.4 46.8 C 205.7 46 206.6 45.3 207.6 45.3 C 209 45.3 209.6 46.2 209.6 47.7 C 209.6 47.7 209.6 50.5 209.6 50.5 C 209.6 50.7 209.7 50.8 209.8 50.8 C 209.84 50.8 210.3 50.8 210.3 50.8 L 210.3 51.5 C 210.3 51.5 209.49 51.5 209.5 51.5 C 209 51.5 208.8 51.3 208.8 50.8 C 208.8 50.8 208.8 47.9 208.8 47.9 C 208.8 46.9 208.6 46.1 207.5 46.1 C 206.5 46.1 205.8 46.9 205.5 47.8 C 205.5 48 205.4 48.3 205.4 48.6 C 205.44 48.65 205.4 51.5 205.4 51.5 L 204.6 51.5 C 204.6 51.5 204.62 47.87 204.6 47.9 C 204.6 47 204.5 46.1 203.3 46.1 C 202.4 46.1 201.6 46.9 201.4 47.8 C 201.3 48.1 201.3 48.4 201.3 48.6 C 201.28 48.65 201.3 51.5 201.3 51.5 L 200.5 51.5 C 200.5 51.5 200.47 46.44 200.5 46.4 Z M 211.6 46.4 C 211.6 46.3 211.5 46.2 211.4 46.2 C 211.35 46.18 210.8 46.2 210.8 46.2 L 210.8 45.5 C 210.8 45.5 211.7 45.47 211.7 45.5 C 212.2 45.5 212.4 45.7 212.4 46.2 C 212.4 46.2 212.4 49.1 212.4 49.1 C 212.4 50 212.6 50.9 213.8 50.9 C 215.1 50.9 216 49.7 216 48.4 C 215.97 48.36 216 45.5 216 45.5 L 216.8 45.5 C 216.8 45.5 216.79 50.53 216.8 50.5 C 216.8 50.7 216.9 50.8 217.1 50.8 C 217.05 50.8 217.6 50.8 217.6 50.8 L 217.6 51.5 C 217.6 51.5 216.73 51.5 216.7 51.5 C 216.2 51.5 216 51.3 216 50.8 C 216 50.8 216 50.6 216 50.6 C 216 50.3 216 50.1 216 50.1 C 216 50.1 216 50.1 216 50.1 C 215.8 50.7 215 51.6 213.6 51.6 C 212.2 51.6 211.6 50.9 211.6 49.3 C 211.6 49.3 211.6 46.4 211.6 46.4 Z M 218.9 44 C 218.9 43.9 218.8 43.8 218.6 43.8 C 218.6 43.78 218.1 43.8 218.1 43.8 L 218.1 43.1 C 218.1 43.1 218.95 43.07 218.9 43.1 C 219.5 43.1 219.7 43.3 219.7 43.8 C 219.7 43.8 219.7 50.5 219.7 50.5 C 219.7 50.7 219.8 50.8 219.9 50.8 C 219.94 50.8 220.4 50.8 220.4 50.8 L 220.4 51.5 C 220.4 51.5 219.6 51.5 219.6 51.5 C 219.1 51.5 218.9 51.3 218.9 50.8 C 218.9 50.8 218.9 44 218.9 44 Z M 221.8 46.4 C 221.8 46.3 221.7 46.2 221.5 46.2 C 221.53 46.18 221 46.2 221 46.2 L 221 45.5 C 221 45.5 221.88 45.47 221.9 45.5 C 222.4 45.5 222.6 45.7 222.6 46.2 C 222.6 46.2 222.6 49.1 222.6 49.1 C 222.6 50 222.8 50.9 223.9 50.9 C 225.3 50.9 226.1 49.7 226.1 48.4 C 226.15 48.36 226.1 45.5 226.1 45.5 L 227 45.5 C 227 45.5 226.96 50.53 227 50.5 C 227 50.7 227.1 50.8 227.2 50.8 C 227.23 50.8 227.7 50.8 227.7 50.8 L 227.7 51.5 C 227.7 51.5 226.9 51.5 226.9 51.5 C 226.4 51.5 226.2 51.3 226.2 50.8 C 226.2 50.8 226.2 50.6 226.2 50.6 C 226.2 50.3 226.2 50.1 226.2 50.1 C 226.2 50.1 226.2 50.1 226.2 50.1 C 225.9 50.7 225.1 51.6 223.8 51.6 C 222.4 51.6 221.8 50.9 221.8 49.3 C 221.8 49.3 221.8 46.4 221.8 46.4 Z M 229.4 43.1 L 230.2 43.1 L 230.2 44.1 L 229.4 44.1 L 229.4 43.1 Z M 228 53.2 C 228.5 53.2 229.4 53.1 229.4 51.7 C 229.4 51.7 229.4 46.4 229.4 46.4 C 229.4 46.3 229.3 46.2 229.1 46.2 C 229.13 46.18 228.6 46.2 228.6 46.2 L 228.6 45.5 C 228.6 45.5 229.47 45.47 229.5 45.5 C 230 45.5 230.2 45.7 230.2 46.2 C 230.2 46.2 230.2 51.7 230.2 51.7 C 230.2 53.7 228.8 54 228.1 54 C 227.9 54 227.8 53.9 227.8 53.9 C 227.76 53.94 227.8 53.2 227.8 53.2 C 227.8 53.2 227.87 53.24 228 53.2 Z M 234.7 45.3 C 236.3 45.3 237.2 46.6 237.2 48.1 C 237.21 48.25 237.2 48.5 237.2 48.5 C 237.2 48.5 232.56 48.52 232.6 48.5 C 232.6 50 233.6 50.9 234.9 50.9 C 236 50.92 236.7 50.2 236.7 50.2 L 237.1 50.8 C 237.1 50.8 236.23 51.65 234.9 51.6 C 233.1 51.6 231.7 50.4 231.7 48.5 C 231.7 46.5 233.1 45.3 234.7 45.3 Z M 236.4 47.9 C 236.3 46.6 235.6 46 234.7 46 C 233.7 46 232.8 46.7 232.6 47.9 C 232.6 47.9 236.4 47.9 236.4 47.9 Z M 241.9 50 C 241.9 50 242.55 50.94 243.7 50.9 C 244.4 50.9 245 50.6 245 50 C 245 48.7 241.6 48.9 241.6 47 C 241.6 45.9 242.6 45.3 243.8 45.3 C 244.4 45.3 245.6 45.6 245.6 46.4 C 245.61 46.42 245.6 46.9 245.6 46.9 L 244.8 46.9 C 244.8 46.9 244.85 46.64 244.8 46.6 C 244.8 46.2 244.2 46 243.8 46 C 243 46 242.5 46.3 242.5 46.9 C 242.5 48.3 245.8 48 245.8 50 C 245.8 51 244.9 51.6 243.7 51.6 C 242.16 51.65 241.4 50.6 241.4 50.6 L 241.9 50 Z M 250.5 47.8 C 250.52 47.78 250.9 47.8 250.9 47.8 C 250.9 47.8 250.86 47.71 250.9 47.7 C 250.9 46.5 250.4 46 249.3 46 C 249 46 248.1 46.1 248.1 46.5 C 248.12 46.54 248.1 46.9 248.1 46.9 L 247.3 46.9 C 247.3 46.9 247.34 46.34 247.3 46.3 C 247.3 45.5 248.8 45.3 249.3 45.3 C 251.2 45.3 251.7 46.3 251.7 47.6 C 251.7 47.6 251.7 50.5 251.7 50.5 C 251.7 50.7 251.8 50.8 251.9 50.8 C 251.94 50.8 252.4 50.8 252.4 50.8 L 252.4 51.5 C 252.4 51.5 251.61 51.5 251.6 51.5 C 251.1 51.5 250.9 51.3 250.9 50.8 C 250.9 50.5 250.9 50.3 250.9 50.3 C 250.9 50.3 250.9 50.3 250.9 50.3 C 250.9 50.3 250.4 51.6 248.9 51.6 C 247.9 51.6 246.8 51.1 246.8 49.9 C 246.8 47.9 249.5 47.8 250.5 47.8 Z M 249 51 C 250.2 51 250.9 49.8 250.9 48.7 C 250.86 48.71 250.9 48.4 250.9 48.4 C 250.9 48.4 250.51 48.43 250.5 48.4 C 249.6 48.4 247.7 48.5 247.7 49.8 C 247.7 50.4 248.1 51 249 51 Z M 256.7 46.5 C 256.6 46.2 256.4 46.2 256.2 46.2 C 256.23 46.18 256.1 46.2 256.1 46.2 L 256.1 45.5 C 256.1 45.5 256.45 45.47 256.4 45.5 C 257 45.5 257.2 45.6 257.4 46.1 C 257.4 46.1 258.9 49.9 258.9 49.9 C 258.97 50.2 259.1 50.6 259.1 50.6 L 259.1 50.6 C 259.1 50.6 259.18 50.2 259.3 49.9 C 259.3 49.9 260.7 46.1 260.7 46.1 C 260.9 45.6 261.1 45.5 261.7 45.5 C 261.69 45.47 262 45.5 262 45.5 L 262 46.2 C 262 46.2 261.9 46.18 261.9 46.2 C 261.7 46.2 261.5 46.2 261.5 46.5 C 261.48 46.45 259.5 51.5 259.5 51.5 L 258.6 51.5 C 258.6 51.5 256.65 46.45 256.7 46.5 Z M 265.7 45.3 C 267.5 45.3 268.9 46.7 268.9 48.5 C 268.9 50.3 267.5 51.6 265.7 51.6 C 264 51.6 262.5 50.3 262.5 48.5 C 262.5 46.7 264 45.3 265.7 45.3 Z M 265.7 50.9 C 267 50.9 268.1 49.9 268.1 48.5 C 268.1 47.1 267 46.1 265.7 46.1 C 264.4 46.1 263.4 47.1 263.4 48.5 C 263.4 49.9 264.4 50.9 265.7 50.9 Z M 273.3 46.5 C 273.3 46.2 273.1 46.2 272.9 46.2 C 272.92 46.18 272.8 46.2 272.8 46.2 L 272.8 45.5 C 272.8 45.5 273.14 45.47 273.1 45.5 C 273.7 45.5 273.9 45.6 274.1 46.1 C 274.1 46.1 275.6 49.9 275.6 49.9 C 275.66 50.2 275.8 50.6 275.8 50.6 L 275.8 50.6 C 275.8 50.6 275.88 50.2 276 49.9 C 276 49.9 277.4 46.1 277.4 46.1 C 277.6 45.6 277.8 45.5 278.4 45.5 C 278.38 45.47 278.7 45.5 278.7 45.5 L 278.7 46.2 C 278.7 46.2 278.59 46.18 278.6 46.2 C 278.4 46.2 278.2 46.2 278.2 46.5 C 278.17 46.45 276.2 51.5 276.2 51.5 L 275.3 51.5 C 275.3 51.5 273.34 46.45 273.3 46.5 Z M 282.4 45.3 C 284.2 45.3 285.6 46.7 285.6 48.5 C 285.6 50.3 284.2 51.6 282.4 51.6 C 280.7 51.6 279.2 50.3 279.2 48.5 C 279.2 46.7 280.7 45.3 282.4 45.3 Z M 282.4 50.9 C 283.7 50.9 284.8 49.9 284.8 48.5 C 284.8 47.1 283.7 46.1 282.4 46.1 C 281.1 46.1 280.1 47.1 280.1 48.5 C 280.1 49.9 281.1 50.9 282.4 50.9 Z M 289.3 45.3 C 290.76 45.32 291.3 46.5 291.3 46.5 L 291.3 46.5 C 291.3 46.5 291.26 46.25 291.3 46 C 291.3 46 291.3 44 291.3 44 C 291.3 43.9 291.2 43.8 291 43.8 C 291 43.78 290.5 43.8 290.5 43.8 L 290.5 43.1 C 290.5 43.1 291.34 43.07 291.3 43.1 C 291.9 43.1 292.1 43.3 292.1 43.8 C 292.1 43.8 292.1 50.5 292.1 50.5 C 292.1 50.7 292.2 50.8 292.3 50.8 C 292.34 50.8 292.8 50.8 292.8 50.8 L 292.8 51.5 C 292.8 51.5 292 51.5 292 51.5 C 291.5 51.5 291.3 51.3 291.3 50.8 C 291.3 50.6 291.3 50.4 291.3 50.4 C 291.31 50.45 291.3 50.4 291.3 50.4 C 291.3 50.4 290.79 51.65 289.2 51.6 C 287.6 51.6 286.6 50.4 286.6 48.5 C 286.6 46.6 287.7 45.3 289.3 45.3 Z M 291.3 48.5 C 291.3 47.3 290.7 46.1 289.4 46.1 C 288.3 46.1 287.4 47 287.4 48.5 C 287.4 50 288.2 50.9 289.3 50.9 C 290.3 50.9 291.3 50.2 291.3 48.5 Z M 296.6 45.3 C 298.3 45.3 299.1 46.6 299.1 48.1 C 299.12 48.25 299.1 48.5 299.1 48.5 C 299.1 48.5 294.46 48.52 294.5 48.5 C 294.5 50 295.6 50.9 296.8 50.9 C 297.91 50.92 298.6 50.2 298.6 50.2 L 299 50.8 C 299 50.8 298.14 51.65 296.8 51.6 C 295 51.6 293.6 50.4 293.6 48.5 C 293.6 46.5 295 45.3 296.6 45.3 Z M 298.3 47.9 C 298.2 46.6 297.5 46 296.6 46 C 295.6 46 294.7 46.7 294.5 47.9 C 294.5 47.9 298.3 47.9 298.3 47.9 Z M 307.1 47.8 C 307.15 47.78 307.5 47.8 307.5 47.8 C 307.5 47.8 307.48 47.71 307.5 47.7 C 307.5 46.5 307 46 305.9 46 C 305.6 46 304.7 46.1 304.7 46.5 C 304.75 46.54 304.7 46.9 304.7 46.9 L 304 46.9 C 304 46.9 303.97 46.34 304 46.3 C 304 45.5 305.4 45.3 305.9 45.3 C 307.8 45.3 308.3 46.3 308.3 47.6 C 308.3 47.6 308.3 50.5 308.3 50.5 C 308.3 50.7 308.4 50.8 308.6 50.8 C 308.56 50.8 309.1 50.8 309.1 50.8 L 309.1 51.5 C 309.1 51.5 308.24 51.5 308.2 51.5 C 307.7 51.5 307.5 51.3 307.5 50.8 C 307.5 50.5 307.5 50.3 307.5 50.3 C 307.5 50.3 307.5 50.3 307.5 50.3 C 307.5 50.3 307 51.6 305.5 51.6 C 304.5 51.6 303.5 51.1 303.5 49.9 C 303.5 47.9 306.1 47.8 307.1 47.8 Z M 305.6 51 C 306.8 51 307.5 49.8 307.5 48.7 C 307.48 48.71 307.5 48.4 307.5 48.4 C 307.5 48.4 307.14 48.43 307.1 48.4 C 306.2 48.4 304.3 48.5 304.3 49.8 C 304.3 50.4 304.7 51 305.6 51 Z M 313.1 51 C 313.1 51 316.45 46.74 316.4 46.7 C 316.68 46.45 316.9 46.2 316.9 46.2 L 316.9 46.2 C 316.9 46.2 316.72 46.19 316.3 46.2 C 316.3 46.2 314.1 46.2 314.1 46.2 C 314 46.2 313.9 46.3 313.9 46.5 C 313.85 46.45 313.9 46.9 313.9 46.9 L 313.1 46.9 C 313.1 46.9 313.09 46.2 313.1 46.2 C 313.1 45.7 313.3 45.5 313.8 45.5 C 313.82 45.47 318 45.5 318 45.5 L 318 46 C 318 46 314.62 50.23 314.6 50.2 C 314.38 50.52 314.1 50.8 314.1 50.8 L 314.1 50.8 C 314.1 50.8 314.33 50.78 314.7 50.8 C 314.7 50.8 317.2 50.8 317.2 50.8 C 317.4 50.8 317.5 50.7 317.5 50.5 C 317.49 50.52 317.5 50.1 317.5 50.1 L 318.3 50.1 C 318.3 50.1 318.26 50.77 318.3 50.8 C 318.3 51.3 318 51.5 317.5 51.5 C 317.53 51.5 313.1 51.5 313.1 51.5 L 313.1 51 Z M 314.3 43.1 L 315 43.1 L 315.7 44 L 315.7 44 L 316.3 43.1 L 317.1 43.1 L 316.1 44.5 L 315.3 44.5 L 314.3 43.1 Z M 319.7 43.1 L 320.4 43.1 L 320.4 44.1 L 319.7 44.1 L 319.7 43.1 Z M 319.7 46.4 C 319.7 46.3 319.6 46.2 319.4 46.2 C 319.41 46.18 318.9 46.2 318.9 46.2 L 318.9 45.5 C 318.9 45.5 319.76 45.47 319.8 45.5 C 320.3 45.5 320.5 45.7 320.5 46.2 C 320.5 46.2 320.5 50.5 320.5 50.5 C 320.5 50.7 320.6 50.8 320.8 50.8 C 320.75 50.8 321.3 50.8 321.3 50.8 L 321.3 51.5 C 321.3 51.5 320.41 51.5 320.4 51.5 C 319.9 51.5 319.7 51.3 319.7 50.8 C 319.7 50.8 319.7 46.4 319.7 46.4 Z M 322.2 46.5 C 322.1 46.2 322 46.2 321.8 46.2 C 321.8 46.18 321.7 46.2 321.7 46.2 L 321.7 45.5 C 321.7 45.5 322.02 45.47 322 45.5 C 322.6 45.5 322.8 45.6 323 46.1 C 323 46.1 324.4 49.9 324.4 49.9 C 324.53 50.2 324.6 50.6 324.6 50.6 L 324.7 50.6 C 324.7 50.6 324.75 50.2 324.9 49.9 C 324.9 49.9 326.3 46.1 326.3 46.1 C 326.5 45.6 326.7 45.5 327.3 45.5 C 327.26 45.47 327.6 45.5 327.6 45.5 L 327.6 46.2 C 327.6 46.2 327.46 46.18 327.5 46.2 C 327.2 46.2 327.1 46.2 327 46.5 C 327.04 46.45 325.1 51.5 325.1 51.5 L 324.2 51.5 C 324.2 51.5 322.22 46.45 322.2 46.5 Z M 331.3 45.3 C 333 45.3 334.5 46.7 334.5 48.5 C 334.5 50.3 333 51.6 331.3 51.6 C 329.5 51.6 328.1 50.3 328.1 48.5 C 328.1 46.7 329.5 45.3 331.3 45.3 Z M 331.3 50.9 C 332.6 50.9 333.6 49.9 333.6 48.5 C 333.6 47.1 332.6 46.1 331.3 46.1 C 330 46.1 328.9 47.1 328.9 48.5 C 328.9 49.9 330 50.9 331.3 50.9 Z M 336.1 46.2 L 335.3 46.2 L 335.3 45.5 L 336.1 45.5 L 336.1 43.8 L 336.9 43.8 L 336.9 45.5 L 338.4 45.5 L 338.4 46.2 L 336.9 46.2 C 336.9 46.2 336.88 49.22 336.9 49.2 C 336.9 50.6 337.8 50.8 338.2 50.8 C 338.41 50.82 338.5 50.8 338.5 50.8 L 338.5 51.5 C 338.5 51.5 338.37 51.55 338.2 51.6 C 337.5 51.6 336.1 51.3 336.1 49.3 C 336.07 49.31 336.1 46.2 336.1 46.2 Z M 340 46.4 C 340 46.3 339.9 46.2 339.8 46.2 C 339.75 46.18 339.2 46.2 339.2 46.2 L 339.2 45.5 C 339.2 45.5 340.09 45.47 340.1 45.5 C 340.6 45.5 340.8 45.7 340.8 46.1 C 340.8 46.1 340.8 46.4 340.8 46.4 C 340.82 46.66 340.8 46.8 340.8 46.8 C 340.8 46.8 340.82 46.85 340.8 46.8 C 341 46.3 341.8 45.3 343.2 45.3 C 344.7 45.3 345.2 46.2 345.2 47.7 C 345.2 47.7 345.2 50.5 345.2 50.5 C 345.2 50.7 345.3 50.8 345.5 50.8 C 345.51 50.8 346 50.8 346 50.8 L 346 51.5 C 346 51.5 345.16 51.5 345.2 51.5 C 344.6 51.5 344.4 51.3 344.4 50.8 C 344.4 50.8 344.4 47.9 344.4 47.9 C 344.4 46.9 344.3 46.1 343.1 46.1 C 342.1 46.1 341.2 46.8 340.9 47.8 C 340.9 48 340.8 48.3 340.8 48.6 C 340.83 48.61 340.8 51.5 340.8 51.5 L 340 51.5 C 340 51.5 340.02 46.44 340 46.4 Z M 349.9 45.3 C 351.7 45.3 353.1 46.7 353.1 48.5 C 353.1 50.3 351.7 51.6 349.9 51.6 C 348.2 51.6 346.7 50.3 346.7 48.5 C 346.7 46.7 348.2 45.3 349.9 45.3 Z M 349.9 50.9 C 351.2 50.9 352.3 49.9 352.3 48.5 C 352.3 47.1 351.2 46.1 349.9 46.1 C 348.6 46.1 347.6 47.1 347.6 48.5 C 347.6 49.9 348.6 50.9 349.9 50.9 Z M 354.6 46.4 C 354.6 46.3 354.5 46.2 354.4 46.2 C 354.38 46.18 353.9 46.2 353.9 46.2 L 353.9 45.5 C 353.9 45.5 354.72 45.47 354.7 45.5 C 355.2 45.5 355.4 45.7 355.4 46.1 C 355.4 46.1 355.4 46.4 355.4 46.4 C 355.45 46.66 355.4 46.8 355.4 46.8 C 355.4 46.8 355.45 46.85 355.4 46.8 C 355.7 46 356.7 45.3 357.6 45.3 C 358.7 45.3 359.3 45.8 359.5 46.8 C 359.5 46.8 359.5 46.8 359.5 46.8 C 359.8 46 360.7 45.3 361.7 45.3 C 363.2 45.3 363.7 46.2 363.7 47.7 C 363.7 47.7 363.7 50.5 363.7 50.5 C 363.7 50.7 363.8 50.8 364 50.8 C 364.01 50.8 364.5 50.8 364.5 50.8 L 364.5 51.5 C 364.5 51.5 363.67 51.5 363.7 51.5 C 363.2 51.5 362.9 51.3 362.9 50.8 C 362.9 50.8 362.9 47.9 362.9 47.9 C 362.9 46.9 362.7 46.1 361.6 46.1 C 360.7 46.1 360 46.9 359.7 47.8 C 359.6 48 359.6 48.3 359.6 48.6 C 359.61 48.65 359.6 51.5 359.6 51.5 L 358.8 51.5 C 358.8 51.5 358.8 47.87 358.8 47.9 C 358.8 47 358.7 46.1 357.5 46.1 C 356.5 46.1 355.8 46.9 355.6 47.8 C 355.5 48.1 355.5 48.4 355.5 48.6 C 355.46 48.65 355.5 51.5 355.5 51.5 L 354.6 51.5 C 354.6 51.5 354.64 46.44 354.6 46.4 Z M 369.1 46.4 C 369.1 46.3 369 46.2 368.8 46.2 C 368.82 46.18 368.3 46.2 368.3 46.2 L 368.3 45.5 C 368.3 45.5 369.14 45.47 369.1 45.5 C 369.7 45.5 369.9 45.7 369.9 46.1 C 369.9 46.3 369.8 46.5 369.8 46.5 C 369.85 46.51 369.9 46.5 369.9 46.5 C 369.9 46.5 370.35 45.32 371.9 45.3 C 373.6 45.3 374.6 46.6 374.6 48.5 C 374.6 50.4 373.4 51.6 371.9 51.6 C 370.4 51.65 369.9 50.5 369.9 50.5 L 369.9 50.5 C 369.9 50.5 369.89 50.72 369.9 51 C 369.89 51.04 369.9 53.9 369.9 53.9 L 369.1 53.9 C 369.1 53.9 369.08 46.44 369.1 46.4 Z M 371.8 50.9 C 372.9 50.9 373.7 50 373.7 48.5 C 373.7 47 373 46.1 371.8 46.1 C 370.8 46.1 369.9 46.8 369.9 48.5 C 369.9 49.7 370.5 50.9 371.8 50.9 Z M 376.1 46.4 C 376.1 46.3 376 46.2 375.9 46.2 C 375.86 46.18 375.4 46.2 375.4 46.2 L 375.4 45.5 C 375.4 45.5 376.19 45.47 376.2 45.5 C 376.7 45.5 376.9 45.7 376.9 46.2 C 376.9 46.2 376.9 46.6 376.9 46.6 C 376.93 46.81 376.9 47 376.9 47 C 376.9 47 376.93 47.02 376.9 47 C 377.2 46.1 377.9 45.4 378.8 45.4 C 379 45.4 379.2 45.4 379.2 45.4 C 379.16 45.44 379.2 46.2 379.2 46.2 C 379.2 46.2 379.01 46.22 378.9 46.2 C 378 46.2 377.4 46.9 377.1 47.8 C 377 48.2 376.9 48.6 376.9 49 C 376.94 48.96 376.9 51.5 376.9 51.5 L 376.1 51.5 C 376.1 51.5 376.12 46.44 376.1 46.4 Z M 382.8 45.3 C 384.6 45.3 386 46.7 386 48.5 C 386 50.3 384.6 51.6 382.9 51.6 C 381.1 51.6 379.7 50.3 379.7 48.5 C 379.7 46.7 381.1 45.3 382.8 45.3 Z M 382.9 50.9 C 384.1 50.9 385.2 49.9 385.2 48.5 C 385.2 47.1 384.1 46.1 382.9 46.1 C 381.6 46.1 380.5 47.1 380.5 48.5 C 380.5 49.9 381.6 50.9 382.9 50.9 Z M 387.3 50 C 387.3 50 388 50.94 389.2 50.9 C 389.9 50.9 390.5 50.6 390.5 50 C 390.5 48.7 387.1 48.9 387.1 47 C 387.1 45.9 388 45.3 389.2 45.3 C 389.8 45.3 391.1 45.6 391.1 46.4 C 391.06 46.42 391.1 46.9 391.1 46.9 L 390.3 46.9 C 390.3 46.9 390.29 46.64 390.3 46.6 C 390.3 46.2 389.6 46 389.3 46 C 388.4 46 387.9 46.3 387.9 46.9 C 387.9 48.3 391.3 48 391.3 50 C 391.3 51 390.4 51.6 389.2 51.6 C 387.61 51.65 386.9 50.6 386.9 50.6 L 387.3 50 Z M 392.9 46.2 L 392.1 46.2 L 392.1 45.5 L 392.9 45.5 L 392.9 43.8 L 393.7 43.8 L 393.7 45.5 L 395.2 45.5 L 395.2 46.2 L 393.7 46.2 C 393.7 46.2 393.73 49.22 393.7 49.2 C 393.7 50.6 394.6 50.8 395.1 50.8 C 395.25 50.82 395.4 50.8 395.4 50.8 L 395.4 51.5 C 395.4 51.5 395.21 51.55 395 51.6 C 394.3 51.6 392.9 51.3 392.9 49.3 C 392.91 49.31 392.9 46.2 392.9 46.2 Z M 396.9 46.4 C 396.9 46.3 396.8 46.2 396.6 46.2 C 396.59 46.18 396.1 46.2 396.1 46.2 L 396.1 45.5 C 396.1 45.5 396.93 45.47 396.9 45.5 C 397.4 45.5 397.7 45.7 397.7 46.2 C 397.7 46.2 397.7 46.6 397.7 46.6 C 397.66 46.81 397.6 47 397.6 47 C 397.6 47 397.66 47.02 397.7 47 C 397.9 46.1 398.6 45.4 399.6 45.4 C 399.7 45.4 399.9 45.4 399.9 45.4 C 399.89 45.44 399.9 46.2 399.9 46.2 C 399.9 46.2 399.75 46.22 399.6 46.2 C 398.7 46.2 398.1 46.9 397.8 47.8 C 397.7 48.2 397.7 48.6 397.7 49 C 397.67 48.96 397.7 51.5 397.7 51.5 L 396.9 51.5 C 396.9 51.5 396.86 46.44 396.9 46.4 Z M 403.4 45.3 C 405 45.3 405.9 46.6 405.9 48.1 C 405.91 48.25 405.9 48.5 405.9 48.5 C 405.9 48.5 401.25 48.52 401.2 48.5 C 401.3 50 402.3 50.9 403.6 50.9 C 404.69 50.92 405.4 50.2 405.4 50.2 L 405.8 50.8 C 405.8 50.8 404.92 51.65 403.6 51.6 C 401.8 51.6 400.4 50.4 400.4 48.5 C 400.4 46.5 401.8 45.3 403.4 45.3 Z M 405.1 47.9 C 405 46.6 404.3 46 403.4 46 C 402.4 46 401.5 46.7 401.3 47.9 C 401.3 47.9 405.1 47.9 405.1 47.9 Z M 409.7 45.3 C 411.17 45.32 411.7 46.5 411.7 46.5 L 411.7 46.5 C 411.7 46.5 411.68 46.25 411.7 46 C 411.7 46 411.7 44 411.7 44 C 411.7 43.9 411.6 43.8 411.4 43.8 C 411.41 43.78 410.9 43.8 410.9 43.8 L 410.9 43.1 C 410.9 43.1 411.76 43.07 411.8 43.1 C 412.3 43.1 412.5 43.3 412.5 43.8 C 412.5 43.8 412.5 50.5 412.5 50.5 C 412.5 50.7 412.6 50.8 412.8 50.8 C 412.76 50.8 413.3 50.8 413.3 50.8 L 413.3 51.5 C 413.3 51.5 412.42 51.5 412.4 51.5 C 411.9 51.5 411.7 51.3 411.7 50.8 C 411.7 50.6 411.7 50.4 411.7 50.4 C 411.73 50.45 411.7 50.4 411.7 50.4 C 411.7 50.4 411.21 51.65 409.6 51.6 C 408 51.6 407 50.4 407 48.5 C 407 46.6 408.1 45.3 409.7 45.3 Z M 411.7 48.5 C 411.7 47.3 411.1 46.1 409.8 46.1 C 408.7 46.1 407.8 47 407.8 48.5 C 407.8 50 408.6 50.9 409.7 50.9 C 410.8 50.9 411.7 50.2 411.7 48.5 Z M 414.7 46.4 C 414.7 46.3 414.6 46.2 414.4 46.2 C 414.4 46.18 413.9 46.2 413.9 46.2 L 413.9 45.5 C 413.9 45.5 414.75 45.47 414.8 45.5 C 415.3 45.5 415.5 45.7 415.5 46.2 C 415.5 46.2 415.5 50.5 415.5 50.5 C 415.5 50.7 415.6 50.8 415.7 50.8 C 415.75 50.8 416.2 50.8 416.2 50.8 L 416.2 51.5 C 416.2 51.5 415.4 51.5 415.4 51.5 C 414.9 51.5 414.7 51.3 414.7 50.8 C 414.7 50.8 414.7 46.4 414.7 46.4 Z M 415.5 43.1 L 416.4 43.1 L 415.3 44.5 L 414.6 44.5 L 415.5 43.1 Z M 417.4 50.5 L 418.3 50.5 L 418.3 51.5 L 417.4 51.5 L 417.4 50.5 Z " stroke="none" fill="#000"/>  </g>  <g id="Polygon71084">    <path d="M 1.1 17.5 L 2.4 17.5 L 2.4 18.9 L 1.1 18.9 L 1.1 17.5 Z M 1 21.4 C 1 21.3 0.9 21.2 0.8 21.2 C 0.78 21.18 0.3 21.2 0.3 21.2 L 0.3 19.9 C 0.3 19.9 1.75 19.88 1.8 19.9 C 2.3 19.9 2.6 20.1 2.6 20.7 C 2.6 20.7 2.6 24.5 2.6 24.5 C 2.6 24.6 2.7 24.7 2.8 24.7 C 2.82 24.72 3.3 24.7 3.3 24.7 L 3.3 26 C 3.3 26 1.85 26 1.8 26 C 1.3 26 1 25.8 1 25.2 C 1 25.2 1 21.4 1 21.4 Z M 4.5 19 C 4.5 18.9 4.4 18.8 4.3 18.8 C 4.27 18.78 3.8 18.8 3.8 18.8 L 3.8 17.5 C 3.8 17.5 5.24 17.48 5.2 17.5 C 5.8 17.5 6.1 17.7 6.1 18.3 C 6.1 18.3 6.1 20.1 6.1 20.1 C 6.06 20.37 6 20.6 6 20.6 L 6.1 20.6 C 6.1 20.6 6.6 19.74 7.9 19.7 C 9.6 19.7 10.6 21 10.6 22.9 C 10.6 24.9 9.4 26.1 7.8 26.1 C 6.53 26.14 6 25.3 6 25.3 L 6 25.3 C 6 25.3 5.98 25.45 6 25.7 C 5.98 25.69 6 26 6 26 L 4.5 26 C 4.5 26 4.54 19.04 4.5 19 Z M 7.5 24.9 C 8.4 24.9 9.1 24.2 9.1 23 C 9.1 21.8 8.4 21 7.5 21 C 6.8 21 6 21.6 6 23 C 6 23.9 6.5 24.9 7.5 24.9 Z M 15 22.2 C 14.98 22.16 15.2 22.2 15.2 22.2 C 15.2 22.2 15.17 22.11 15.2 22.1 C 15.2 21.2 14.8 20.9 14 20.9 C 13.8 20.9 13.2 21 13.2 21.3 C 13.22 21.32 13.2 21.6 13.2 21.6 L 11.8 21.6 C 11.8 21.6 11.81 21 11.8 21 C 11.8 19.9 13.4 19.7 14.1 19.7 C 16.1 19.7 16.7 20.8 16.7 22.2 C 16.7 22.2 16.7 24.5 16.7 24.5 C 16.7 24.6 16.8 24.7 17 24.7 C 16.96 24.72 17.4 24.7 17.4 24.7 L 17.4 26 C 17.4 26 16.07 26 16.1 26 C 15.5 26 15.3 25.7 15.3 25.3 C 15.3 25.2 15.3 25.1 15.3 25.1 C 15.3 25.06 15.3 25.1 15.3 25.1 C 15.3 25.1 14.81 26.14 13.4 26.1 C 12.3 26.1 11.3 25.5 11.3 24.2 C 11.3 22.3 14 22.2 15 22.2 Z M 13.8 25 C 14.6 25 15.2 24.1 15.2 23.3 C 15.19 23.35 15.2 23.2 15.2 23.2 C 15.2 23.2 14.93 23.2 14.9 23.2 C 14.1 23.2 12.9 23.3 12.9 24.2 C 12.9 24.6 13.2 25 13.8 25 Z M 21.8 21.4 C 21.8 21.3 21.7 21.2 21.6 21.2 C 21.58 21.18 21.1 21.2 21.1 21.2 L 21.1 19.9 C 21.1 19.9 22.5 19.88 22.5 19.9 C 23 19.9 23.3 20.1 23.3 20.6 C 23.3 20.6 23.3 20.7 23.3 20.7 C 23.3 20.9 23.3 21 23.3 21 C 23.3 21 23.3 21 23.3 21 C 23.6 20.4 24.3 19.7 25.3 19.7 C 26.2 19.7 26.8 20.2 27.1 21 C 27.1 21 27.1 21 27.1 21 C 27.4 20.3 28.2 19.7 29.2 19.7 C 30.5 19.7 31.2 20.5 31.2 22.1 C 31.2 22.1 31.2 24.5 31.2 24.5 C 31.2 24.6 31.3 24.7 31.5 24.7 C 31.46 24.72 31.9 24.7 31.9 24.7 L 31.9 26 C 31.9 26 30.49 26 30.5 26 C 29.9 26 29.7 25.8 29.7 25.2 C 29.7 25.2 29.7 22.4 29.7 22.4 C 29.7 21.7 29.5 21.1 28.8 21.1 C 28.1 21.1 27.5 21.8 27.4 22.5 C 27.3 22.8 27.3 23 27.3 23.3 C 27.28 23.31 27.3 26 27.3 26 L 25.8 26 C 25.8 26 25.75 22.35 25.8 22.4 C 25.8 21.7 25.7 21.1 24.9 21.1 C 24.2 21.1 23.6 21.8 23.4 22.5 C 23.4 22.8 23.4 23 23.4 23.3 C 23.35 23.31 23.4 26 23.4 26 L 21.8 26 C 21.8 26 21.84 21.44 21.8 21.4 Z M 36.2 22.2 C 36.19 22.16 36.4 22.2 36.4 22.2 C 36.4 22.2 36.38 22.11 36.4 22.1 C 36.4 21.2 36 20.9 35.3 20.9 C 35 20.9 34.4 21 34.4 21.3 C 34.44 21.32 34.4 21.6 34.4 21.6 L 33 21.6 C 33 21.6 33.02 21 33 21 C 33 19.9 34.6 19.7 35.3 19.7 C 37.3 19.7 37.9 20.8 37.9 22.2 C 37.9 22.2 37.9 24.5 37.9 24.5 C 37.9 24.6 38 24.7 38.2 24.7 C 38.17 24.72 38.7 24.7 38.7 24.7 L 38.7 26 C 38.7 26 37.28 26 37.3 26 C 36.7 26 36.5 25.7 36.5 25.3 C 36.5 25.2 36.5 25.1 36.5 25.1 C 36.52 25.06 36.5 25.1 36.5 25.1 C 36.5 25.1 36.02 26.14 34.6 26.1 C 33.6 26.1 32.6 25.5 32.6 24.2 C 32.6 22.3 35.2 22.2 36.2 22.2 Z M 35 25 C 35.8 25 36.4 24.1 36.4 23.3 C 36.41 23.35 36.4 23.2 36.4 23.2 C 36.4 23.2 36.14 23.2 36.1 23.2 C 35.4 23.2 34.1 23.3 34.1 24.2 C 34.1 24.6 34.4 25 35 25 Z M 39.8 19 C 39.8 18.9 39.7 18.8 39.6 18.8 C 39.58 18.78 39.1 18.8 39.1 18.8 L 39.1 17.5 C 39.1 17.5 40.55 17.48 40.5 17.5 C 41.1 17.5 41.4 17.7 41.4 18.3 C 41.4 18.3 41.4 24.5 41.4 24.5 C 41.4 24.6 41.5 24.7 41.6 24.7 C 41.63 24.72 42.1 24.7 42.1 24.7 L 42.1 26 C 42.1 26 40.66 26 40.7 26 C 40.1 26 39.8 25.8 39.8 25.2 C 39.8 25.2 39.8 19 39.8 19 Z M 46.4 22.2 C 46.4 22.16 46.6 22.2 46.6 22.2 C 46.6 22.2 46.6 22.11 46.6 22.1 C 46.6 21.2 46.2 20.9 45.5 20.9 C 45.2 20.9 44.7 21 44.7 21.3 C 44.65 21.32 44.7 21.6 44.7 21.6 L 43.2 21.6 C 43.2 21.6 43.24 21 43.2 21 C 43.2 19.9 44.8 19.7 45.5 19.7 C 47.5 19.7 48.1 20.8 48.1 22.2 C 48.1 22.2 48.1 24.5 48.1 24.5 C 48.1 24.6 48.2 24.7 48.4 24.7 C 48.38 24.72 48.9 24.7 48.9 24.7 L 48.9 26 C 48.9 26 47.5 26 47.5 26 C 46.9 26 46.7 25.7 46.7 25.3 C 46.7 25.2 46.7 25.1 46.7 25.1 C 46.73 25.06 46.7 25.1 46.7 25.1 C 46.7 25.1 46.24 26.14 44.9 26.1 C 43.8 26.1 42.8 25.5 42.8 24.2 C 42.8 22.3 45.4 22.2 46.4 22.2 Z M 45.2 25 C 46 25 46.6 24.1 46.6 23.3 C 46.62 23.35 46.6 23.2 46.6 23.2 C 46.6 23.2 46.36 23.2 46.4 23.2 C 45.6 23.2 44.3 23.3 44.3 24.2 C 44.3 24.6 44.6 25 45.2 25 Z M 45.9 17.5 L 47.4 17.5 L 46.2 19.1 L 45 19.1 L 45.9 17.5 Z M 56 19.7 C 56.8 19.7 58.2 20.1 58.2 21.1 C 58.22 21.12 58.2 21.8 58.2 21.8 L 56.9 21.8 C 56.9 21.8 56.88 21.5 56.9 21.5 C 56.9 21.2 56.4 21 56 21 C 54.9 21 54.2 21.8 54.2 22.9 C 54.2 24.2 55.1 24.8 56.1 24.8 C 57.14 24.81 57.9 24 57.9 24 L 58.5 25 C 58.5 25 57.64 26.14 56 26.1 C 54 26.1 52.7 24.7 52.7 22.9 C 52.7 21.2 53.9 19.7 56 19.7 Z M 54 17.5 L 55.2 17.5 L 55.8 18.5 L 55.8 18.5 L 56.4 17.5 L 57.5 17.5 L 56.4 19.1 L 55.1 19.1 L 54 17.5 Z M 62.8 22.2 C 62.76 22.16 63 22.2 63 22.2 C 63 22.2 62.95 22.11 63 22.1 C 63 21.2 62.6 20.9 61.8 20.9 C 61.5 20.9 61 21 61 21.3 C 61.01 21.32 61 21.6 61 21.6 L 59.6 21.6 C 59.6 21.6 59.59 21 59.6 21 C 59.6 19.9 61.2 19.7 61.8 19.7 C 63.9 19.7 64.5 20.8 64.5 22.2 C 64.5 22.2 64.5 24.5 64.5 24.5 C 64.5 24.6 64.6 24.7 64.7 24.7 C 64.74 24.72 65.2 24.7 65.2 24.7 L 65.2 26 C 65.2 26 63.85 26 63.9 26 C 63.3 26 63.1 25.7 63.1 25.3 C 63.1 25.2 63.1 25.1 63.1 25.1 C 63.08 25.06 63.1 25.1 63.1 25.1 C 63.1 25.1 62.59 26.14 61.2 26.1 C 60.1 26.1 59.1 25.5 59.1 24.2 C 59.1 22.3 61.8 22.2 62.8 22.2 Z M 61.6 25 C 62.4 25 63 24.1 63 23.3 C 62.98 23.35 63 23.2 63 23.2 C 63 23.2 62.71 23.2 62.7 23.2 C 61.9 23.2 60.7 23.3 60.7 24.2 C 60.7 24.6 61 25 61.6 25 Z M 66.5 24.1 C 66.5 24.1 67.25 24.96 68.3 25 C 68.8 25 69.1 24.8 69.1 24.4 C 69.1 23.5 65.9 23.5 65.9 21.5 C 65.9 20.3 67 19.7 68.3 19.7 C 69.1 19.7 70.4 20 70.4 21 C 70.41 21.01 70.4 21.6 70.4 21.6 L 69.1 21.6 C 69.1 21.6 69.07 21.34 69.1 21.3 C 69.1 21.1 68.6 20.9 68.3 20.9 C 67.8 20.9 67.4 21.1 67.4 21.5 C 67.4 22.4 70.6 22.2 70.6 24.3 C 70.6 25.4 69.6 26.1 68.3 26.1 C 66.61 26.14 65.7 25.1 65.7 25.1 L 66.5 24.1 Z M 72.1 21.1 L 71.3 21.1 L 71.3 19.9 L 72.2 19.9 L 72.2 18.2 L 73.6 18.2 L 73.6 19.9 L 75 19.9 L 75 21.1 L 73.6 21.1 C 73.6 21.1 73.64 23.56 73.6 23.6 C 73.6 24.6 74.4 24.7 74.9 24.7 C 75.02 24.72 75.1 24.7 75.1 24.7 L 75.1 26 C 75.1 26 74.94 26.06 74.7 26.1 C 73.8 26.1 72.1 25.8 72.1 23.8 C 72.12 23.76 72.1 21.1 72.1 21.1 Z M 75.5 17.5 C 75.5 17.7 75.6 17.9 75.6 18.1 C 75.6 18.5 75.4 18.8 75.2 19.2 C 75.2 19.2 74.2 19.2 74.2 19.2 C 74.4 18.8 74.5 18.5 74.5 18.2 C 74.5 18 74.4 17.8 74.3 17.5 C 74.3 17.5 75.5 17.5 75.5 17.5 Z M 79.8 21.4 C 79.8 21.2 79.6 21.2 79.5 21.2 C 79.48 21.18 79.3 21.2 79.3 21.2 L 79.3 19.9 C 79.3 19.9 80.22 19.88 80.2 19.9 C 80.7 19.9 81 20 81.1 20.5 C 81.1 20.5 82.3 23.7 82.3 23.7 C 82.4 24.03 82.5 24.5 82.5 24.5 L 82.5 24.5 C 82.5 24.5 82.62 24.03 82.7 23.7 C 82.7 23.7 83.9 20.5 83.9 20.5 C 84 20 84.3 19.9 84.8 19.9 C 84.79 19.88 85.6 19.9 85.6 19.9 L 85.6 21.2 C 85.6 21.2 85.46 21.18 85.5 21.2 C 85.3 21.2 85.2 21.2 85.1 21.4 C 85.13 21.39 83.4 26 83.4 26 L 81.6 26 C 81.6 26 79.81 21.39 79.8 21.4 Z M 89.9 24.1 C 89.9 24.1 90.72 24.96 91.8 25 C 92.2 25 92.6 24.8 92.6 24.4 C 92.6 23.5 89.4 23.5 89.4 21.5 C 89.4 20.3 90.5 19.7 91.7 19.7 C 92.6 19.7 93.9 20 93.9 21 C 93.89 21.01 93.9 21.6 93.9 21.6 L 92.5 21.6 C 92.5 21.6 92.54 21.34 92.5 21.3 C 92.5 21.1 92.1 20.9 91.8 20.9 C 91.2 20.9 90.9 21.1 90.9 21.5 C 90.9 22.4 94.1 22.2 94.1 24.3 C 94.1 25.4 93.1 26.1 91.8 26.1 C 90.08 26.14 89.2 25.1 89.2 25.1 L 89.9 24.1 Z M 95.6 21.1 L 94.8 21.1 L 94.8 19.9 L 95.6 19.9 L 95.6 18.2 L 97.1 18.2 L 97.1 19.9 L 98.5 19.9 L 98.5 21.1 L 97.1 21.1 C 97.1 21.1 97.08 23.56 97.1 23.6 C 97.1 24.6 97.9 24.7 98.3 24.7 C 98.46 24.72 98.6 24.7 98.6 24.7 L 98.6 26 C 98.6 26 98.37 26.06 98.1 26.1 C 97.2 26.1 95.6 25.8 95.6 23.8 C 95.56 23.76 95.6 21.1 95.6 21.1 Z M 102.6 19.7 C 104.5 19.7 106 21.1 106 22.9 C 106 24.8 104.5 26.1 102.6 26.1 C 100.8 26.1 99.3 24.8 99.3 22.9 C 99.3 21.1 100.8 19.7 102.6 19.7 Z M 102.6 24.8 C 103.6 24.8 104.4 24.1 104.4 22.9 C 104.4 21.8 103.6 21 102.6 21 C 101.6 21 100.8 21.8 100.8 22.9 C 100.8 24.1 101.6 24.8 102.6 24.8 Z M 107.2 19 C 107.2 18.9 107.1 18.8 107 18.8 C 106.96 18.78 106.5 18.8 106.5 18.8 L 106.5 17.5 C 106.5 17.5 107.93 17.48 107.9 17.5 C 108.5 17.5 108.7 17.7 108.7 18.3 C 108.7 18.3 108.7 24.5 108.7 24.5 C 108.7 24.6 108.8 24.7 109 24.7 C 109.01 24.72 109.5 24.7 109.5 24.7 L 109.5 26 C 109.5 26 108.03 26 108 26 C 107.5 26 107.2 25.8 107.2 25.2 C 107.2 25.2 107.2 19 107.2 19 Z M 110.9 17.5 L 112.2 17.5 L 112.2 18.9 L 110.9 18.9 L 110.9 17.5 Z M 110.8 21.4 C 110.8 21.3 110.7 21.2 110.5 21.2 C 110.53 21.18 110.1 21.2 110.1 21.2 L 110.1 19.9 C 110.1 19.9 111.5 19.88 111.5 19.9 C 112.1 19.9 112.3 20.1 112.3 20.7 C 112.3 20.7 112.3 24.5 112.3 24.5 C 112.3 24.6 112.4 24.7 112.6 24.7 C 112.57 24.72 113.1 24.7 113.1 24.7 L 113.1 26 C 113.1 26 111.6 26 111.6 26 C 111 26 110.8 25.8 110.8 25.2 C 110.8 25.2 110.8 21.4 110.8 21.4 Z M 117.1 19.7 C 117.9 19.7 119.3 20.1 119.3 21.1 C 119.29 21.12 119.3 21.8 119.3 21.8 L 117.9 21.8 C 117.9 21.8 117.95 21.5 117.9 21.5 C 117.9 21.2 117.4 21 117.1 21 C 116 21 115.3 21.8 115.3 22.9 C 115.3 24.2 116.2 24.8 117.2 24.8 C 118.21 24.81 119 24 119 24 L 119.6 25 C 119.6 25 118.7 26.14 117 26.1 C 115 26.1 113.7 24.7 113.7 22.9 C 113.7 21.2 115 19.7 117.1 19.7 Z M 120.9 17.5 L 122.2 17.5 L 122.2 18.9 L 120.9 18.9 L 120.9 17.5 Z M 120.8 21.4 C 120.8 21.3 120.7 21.2 120.6 21.2 C 120.58 21.18 120.1 21.2 120.1 21.2 L 120.1 19.9 C 120.1 19.9 121.55 19.88 121.5 19.9 C 122.1 19.9 122.3 20.1 122.3 20.7 C 122.3 20.7 122.3 24.5 122.3 24.5 C 122.3 24.6 122.4 24.7 122.6 24.7 C 122.61 24.72 123.1 24.7 123.1 24.7 L 123.1 26 C 123.1 26 121.64 26 121.6 26 C 121.1 26 120.8 25.8 120.8 25.2 C 120.8 25.2 120.8 21.4 120.8 21.4 Z M 124.2 24.5 L 125.7 24.5 L 125.7 26 L 124.2 26 L 124.2 24.5 Z " stroke="none" fill="#000"/>  </g>  <g id="Polygon71083">    <path d="M 1.2 1.8 L 0.4 1.8 L 0.4 0.5 C 0.4 0.5 4.31 0.48 4.3 0.5 C 5.9 0.5 7 1.6 7 3.3 C 7 4.9 5.9 6.1 4.3 6.1 C 4.31 6.06 2.8 6.1 2.8 6.1 L 2.8 9 L 1.2 9 L 1.2 1.8 Z M 4 4.7 C 4.9 4.7 5.4 4.1 5.4 3.3 C 5.4 2.4 4.9 1.8 4 1.8 C 4.04 1.81 2.8 1.8 2.8 1.8 L 2.8 4.7 C 2.8 4.7 4.02 4.72 4 4.7 Z M 8.3 4.4 C 8.3 4.3 8.2 4.2 8 4.2 C 7.99 4.18 7.5 4.2 7.5 4.2 L 7.5 2.9 C 7.5 2.9 8.9 2.88 8.9 2.9 C 9.4 2.9 9.7 3.1 9.7 3.6 C 9.7 3.6 9.7 4 9.7 4 C 9.72 4.21 9.7 4.4 9.7 4.4 C 9.7 4.4 9.72 4.37 9.7 4.4 C 10 3.5 10.7 2.8 11.7 2.8 C 11.8 2.8 11.9 2.8 11.9 2.8 L 11.9 4.3 C 11.9 4.3 11.78 4.3 11.6 4.3 C 10.9 4.3 10.2 4.7 9.9 5.6 C 9.8 5.9 9.8 6.2 9.8 6.6 C 9.77 6.58 9.8 9 9.8 9 L 8.3 9 C 8.3 9 8.26 4.44 8.3 4.4 Z M 13.3 0.5 L 14.6 0.5 L 14.6 1.9 L 13.3 1.9 L 13.3 0.5 Z M 13.2 4.4 C 13.2 4.3 13.2 4.2 13 4.2 C 12.98 4.18 12.5 4.2 12.5 4.2 L 12.5 2.9 C 12.5 2.9 13.96 2.88 14 2.9 C 14.5 2.9 14.8 3.1 14.8 3.7 C 14.8 3.7 14.8 7.5 14.8 7.5 C 14.8 7.6 14.9 7.7 15 7.7 C 15.02 7.72 15.5 7.7 15.5 7.7 L 15.5 9 C 15.5 9 14.05 9 14.1 9 C 13.5 9 13.2 8.8 13.2 8.2 C 13.2 8.2 13.2 4.4 13.2 4.4 Z M 20 4.4 C 20 4.3 19.9 4.2 19.7 4.2 C 19.7 4.18 19.2 4.2 19.2 4.2 L 19.2 2.9 C 19.2 2.9 20.63 2.88 20.6 2.9 C 21.2 2.9 21.4 3.1 21.4 3.6 C 21.4 3.6 21.4 3.7 21.4 3.7 C 21.4 3.9 21.4 4 21.4 4 C 21.4 4 21.4 4 21.4 4 C 21.7 3.4 22.5 2.7 23.4 2.7 C 24.3 2.7 24.9 3.2 25.2 4 C 25.2 4 25.2 4 25.2 4 C 25.6 3.3 26.4 2.7 27.3 2.7 C 28.6 2.7 29.3 3.5 29.3 5.1 C 29.3 5.1 29.3 7.5 29.3 7.5 C 29.3 7.6 29.4 7.7 29.6 7.7 C 29.59 7.72 30.1 7.7 30.1 7.7 L 30.1 9 C 30.1 9 28.62 9 28.6 9 C 28 9 27.8 8.8 27.8 8.2 C 27.8 8.2 27.8 5.4 27.8 5.4 C 27.8 4.7 27.7 4.1 27 4.1 C 26.2 4.1 25.7 4.8 25.5 5.5 C 25.4 5.8 25.4 6 25.4 6.3 C 25.4 6.31 25.4 9 25.4 9 L 23.9 9 C 23.9 9 23.88 5.35 23.9 5.4 C 23.9 4.7 23.8 4.1 23.1 4.1 C 22.3 4.1 21.8 4.8 21.6 5.5 C 21.5 5.8 21.5 6 21.5 6.3 C 21.48 6.31 21.5 9 21.5 9 L 20 9 C 20 9 19.97 4.44 20 4.4 Z M 33.8 2.7 C 35.5 2.7 36.5 4 36.5 5.6 C 36.49 5.82 36.5 6.2 36.5 6.2 C 36.5 6.2 32.23 6.2 32.2 6.2 C 32.4 7.3 33.1 7.8 34.1 7.8 C 35.05 7.85 35.8 7.2 35.8 7.2 L 36.4 8.2 C 36.4 8.2 35.48 9.14 34 9.1 C 31.9 9.1 30.7 7.7 30.7 5.9 C 30.7 4.1 31.9 2.7 33.8 2.7 Z M 34.9 5.1 C 34.9 4.4 34.4 3.9 33.8 3.9 C 33 3.9 32.4 4.4 32.3 5.1 C 32.3 5.1 34.9 5.1 34.9 5.1 Z M 38 4.1 L 37.2 4.1 L 37.2 2.9 L 38 2.9 L 38 1.2 L 39.5 1.2 L 39.5 2.9 L 40.9 2.9 L 40.9 4.1 L 39.5 4.1 C 39.5 4.1 39.51 6.56 39.5 6.6 C 39.5 7.6 40.3 7.7 40.7 7.7 C 40.89 7.72 41 7.7 41 7.7 L 41 9 C 41 9 40.81 9.06 40.5 9.1 C 39.7 9.1 38 8.8 38 6.8 C 37.99 6.76 38 4.1 38 4.1 Z M 45.4 5.2 C 45.41 5.16 45.6 5.2 45.6 5.2 C 45.6 5.2 45.6 5.11 45.6 5.1 C 45.6 4.2 45.3 3.9 44.5 3.9 C 44.2 3.9 43.7 4 43.7 4.3 C 43.65 4.32 43.7 4.6 43.7 4.6 L 42.2 4.6 C 42.2 4.6 42.24 4 42.2 4 C 42.2 2.9 43.8 2.7 44.5 2.7 C 46.5 2.7 47.1 3.8 47.1 5.2 C 47.1 5.2 47.1 7.5 47.1 7.5 C 47.1 7.6 47.2 7.7 47.4 7.7 C 47.39 7.72 47.9 7.7 47.9 7.7 L 47.9 9 C 47.9 9 46.5 9 46.5 9 C 45.9 9 45.7 8.7 45.7 8.3 C 45.7 8.2 45.7 8.1 45.7 8.1 C 45.73 8.06 45.7 8.1 45.7 8.1 C 45.7 8.1 45.24 9.14 43.9 9.1 C 42.8 9.1 41.8 8.5 41.8 7.2 C 41.8 5.3 44.4 5.2 45.4 5.2 Z M 44.2 8 C 45 8 45.6 7.1 45.6 6.3 C 45.62 6.35 45.6 6.2 45.6 6.2 C 45.6 6.2 45.36 6.2 45.4 6.2 C 44.6 6.2 43.3 6.3 43.3 7.2 C 43.3 7.6 43.6 8 44.2 8 Z M 49 2 C 49 1.9 48.9 1.8 48.8 1.8 C 48.78 1.78 48.3 1.8 48.3 1.8 L 48.3 0.5 C 48.3 0.5 49.75 0.48 49.8 0.5 C 50.3 0.5 50.6 0.7 50.6 1.3 C 50.6 1.3 50.6 3.1 50.6 3.1 C 50.57 3.37 50.5 3.6 50.5 3.6 L 50.6 3.6 C 50.6 3.6 51.11 2.74 52.4 2.7 C 54.1 2.7 55.1 4 55.1 5.9 C 55.1 7.9 53.9 9.1 52.3 9.1 C 51.04 9.14 50.5 8.3 50.5 8.3 L 50.5 8.3 C 50.5 8.3 50.48 8.45 50.5 8.7 C 50.48 8.69 50.5 9 50.5 9 L 49 9 C 49 9 49.04 2.04 49 2 Z M 52 7.9 C 52.9 7.9 53.6 7.2 53.6 6 C 53.6 4.8 53 4 52.1 4 C 51.3 4 50.5 4.6 50.5 6 C 50.5 6.9 51 7.9 52 7.9 Z M 59.2 2.7 C 61.1 2.7 62.6 4.1 62.6 5.9 C 62.6 7.8 61.1 9.1 59.2 9.1 C 57.4 9.1 55.9 7.8 55.9 5.9 C 55.9 4.1 57.4 2.7 59.2 2.7 Z M 59.2 7.8 C 60.2 7.8 61.1 7.1 61.1 5.9 C 61.1 4.8 60.2 4 59.2 4 C 58.3 4 57.4 4.8 57.4 5.9 C 57.4 7.1 58.3 7.8 59.2 7.8 Z M 63.9 2 C 63.9 1.9 63.8 1.8 63.6 1.8 C 63.59 1.78 63.1 1.8 63.1 1.8 L 63.1 0.5 C 63.1 0.5 64.56 0.48 64.6 0.5 C 65.1 0.5 65.4 0.7 65.4 1.3 C 65.4 1.3 65.4 7.5 65.4 7.5 C 65.4 7.6 65.5 7.7 65.6 7.7 C 65.64 7.72 66.1 7.7 66.1 7.7 L 66.1 9 C 66.1 9 64.67 9 64.7 9 C 64.1 9 63.9 8.8 63.9 8.2 C 63.9 8.2 63.9 2 63.9 2 Z M 67.5 0.5 L 68.8 0.5 L 68.8 1.9 L 67.5 1.9 L 67.5 0.5 Z M 67.4 4.4 C 67.4 4.3 67.3 4.2 67.2 4.2 C 67.16 4.18 66.7 4.2 66.7 4.2 L 66.7 2.9 C 66.7 2.9 68.14 2.88 68.1 2.9 C 68.7 2.9 68.9 3.1 68.9 3.7 C 68.9 3.7 68.9 7.5 68.9 7.5 C 68.9 7.6 69 7.7 69.2 7.7 C 69.2 7.72 69.7 7.7 69.7 7.7 L 69.7 9 C 69.7 9 68.23 9 68.2 9 C 67.7 9 67.4 8.8 67.4 8.2 C 67.4 8.2 67.4 4.4 67.4 4.4 Z M 70.3 8.2 C 70.3 8.2 73.12 4.74 73.1 4.7 C 73.39 4.39 73.6 4.2 73.6 4.2 L 73.6 4.2 C 73.6 4.2 73.45 4.18 73.1 4.2 C 73.1 4.2 72 4.2 72 4.2 C 71.8 4.2 71.7 4.3 71.7 4.4 C 71.7 4.44 71.7 4.8 71.7 4.8 L 70.3 4.8 C 70.3 4.8 70.32 3.7 70.3 3.7 C 70.3 3.1 70.6 2.9 71.1 2.9 C 71.14 2.88 75.6 2.9 75.6 2.9 L 75.6 3.7 C 75.6 3.7 72.8 7.15 72.8 7.2 C 72.53 7.49 72.3 7.7 72.3 7.7 L 72.3 7.7 C 72.3 7.7 72.47 7.7 72.9 7.7 C 72.9 7.7 74.2 7.7 74.2 7.7 C 74.4 7.7 74.5 7.6 74.5 7.4 C 74.47 7.44 74.5 7.1 74.5 7.1 L 75.9 7.1 C 75.9 7.1 75.85 8.18 75.9 8.2 C 75.9 8.8 75.6 9 75 9 C 75.05 9 70.3 9 70.3 9 L 70.3 8.2 Z M 77.1 4.4 C 77.1 4.3 77 4.2 76.8 4.2 C 76.84 4.18 76.4 4.2 76.4 4.2 L 76.4 2.9 C 76.4 2.9 77.76 2.88 77.8 2.9 C 78.3 2.9 78.6 3.1 78.6 3.6 C 78.6 3.6 78.6 3.7 78.6 3.7 C 78.6 3.9 78.6 4 78.6 4 C 78.6 4 78.6 4 78.6 4 C 78.9 3.4 79.6 2.7 80.6 2.7 C 81.5 2.7 82.1 3.2 82.3 4 C 82.3 4 82.4 4 82.4 4 C 82.7 3.3 83.5 2.7 84.5 2.7 C 85.7 2.7 86.5 3.5 86.5 5.1 C 86.5 5.1 86.5 7.5 86.5 7.5 C 86.5 7.6 86.6 7.7 86.7 7.7 C 86.72 7.72 87.2 7.7 87.2 7.7 L 87.2 9 C 87.2 9 85.75 9 85.8 9 C 85.2 9 84.9 8.8 84.9 8.2 C 84.9 8.2 84.9 5.4 84.9 5.4 C 84.9 4.7 84.8 4.1 84.1 4.1 C 83.3 4.1 82.8 4.8 82.6 5.5 C 82.6 5.8 82.5 6 82.5 6.3 C 82.53 6.31 82.5 9 82.5 9 L 81 9 C 81 9 81.01 5.35 81 5.4 C 81 4.7 80.9 4.1 80.2 4.1 C 79.4 4.1 78.9 4.8 78.7 5.5 C 78.6 5.8 78.6 6 78.6 6.3 C 78.61 6.31 78.6 9 78.6 9 L 77.1 9 C 77.1 9 77.1 4.44 77.1 4.4 Z M 90.9 2.7 C 92.7 2.7 93.6 4 93.6 5.6 C 93.62 5.82 93.6 6.2 93.6 6.2 C 93.6 6.2 89.36 6.2 89.4 6.2 C 89.5 7.3 90.3 7.8 91.2 7.8 C 92.18 7.85 92.9 7.2 92.9 7.2 L 93.6 8.2 C 93.6 8.2 92.62 9.14 91.1 9.1 C 89.1 9.1 87.8 7.7 87.8 5.9 C 87.8 4.1 89.1 2.7 90.9 2.7 Z M 92.1 5.1 C 92 4.4 91.5 3.9 90.9 3.9 C 90.1 3.9 89.6 4.4 89.4 5.1 C 89.4 5.1 92.1 5.1 92.1 5.1 Z M 100.8 2.7 C 102.5 2.7 103.5 4 103.5 5.6 C 103.49 5.82 103.5 6.2 103.5 6.2 C 103.5 6.2 99.23 6.2 99.2 6.2 C 99.3 7.3 100.1 7.8 101.1 7.8 C 102.05 7.85 102.8 7.2 102.8 7.2 L 103.4 8.2 C 103.4 8.2 102.48 9.14 101 9.1 C 98.9 9.1 97.7 7.7 97.7 5.9 C 97.7 4.1 98.9 2.7 100.8 2.7 Z M 101.9 5.1 C 101.9 4.4 101.4 3.9 100.8 3.9 C 100 3.9 99.4 4.4 99.3 5.1 C 99.3 5.1 101.9 5.1 101.9 5.1 Z M 105 7.1 C 105 7.1 105.77 7.96 106.8 8 C 107.3 8 107.6 7.8 107.6 7.4 C 107.6 6.5 104.4 6.5 104.4 4.5 C 104.4 3.3 105.5 2.7 106.8 2.7 C 107.6 2.7 108.9 3 108.9 4 C 108.93 4.01 108.9 4.6 108.9 4.6 L 107.6 4.6 C 107.6 4.6 107.59 4.34 107.6 4.3 C 107.6 4.1 107.2 3.9 106.8 3.9 C 106.3 3.9 105.9 4.1 105.9 4.5 C 105.9 5.4 109.2 5.2 109.2 7.3 C 109.2 8.4 108.1 9.1 106.8 9.1 C 105.13 9.14 104.3 8.1 104.3 8.1 L 105 7.1 Z M 110.6 4.1 L 109.8 4.1 L 109.8 2.9 L 110.6 2.9 L 110.6 1.2 L 112.1 1.2 L 112.1 2.9 L 113.5 2.9 L 113.5 4.1 L 112.1 4.1 C 112.1 4.1 112.13 6.56 112.1 6.6 C 112.1 7.6 112.9 7.7 113.3 7.7 C 113.51 7.72 113.6 7.7 113.6 7.7 L 113.6 9 C 113.6 9 113.42 9.06 113.1 9.1 C 112.3 9.1 110.6 8.8 110.6 6.8 C 110.6 6.76 110.6 4.1 110.6 4.1 Z M 117.4 2.7 C 119.2 2.7 120.1 4 120.1 5.6 C 120.13 5.82 120.1 6.2 120.1 6.2 C 120.1 6.2 115.87 6.2 115.9 6.2 C 116 7.3 116.8 7.8 117.7 7.8 C 118.69 7.85 119.4 7.2 119.4 7.2 L 120.1 8.2 C 120.1 8.2 119.12 9.14 117.6 9.1 C 115.6 9.1 114.3 7.7 114.3 5.9 C 114.3 4.1 115.6 2.7 117.4 2.7 Z M 118.6 5.1 C 118.5 4.4 118 3.9 117.4 3.9 C 116.6 3.9 116.1 4.4 115.9 5.1 C 115.9 5.1 118.6 5.1 118.6 5.1 Z M 121.6 4.1 L 120.8 4.1 L 120.8 2.9 L 121.7 2.9 L 121.7 1.2 L 123.2 1.2 L 123.2 2.9 L 124.5 2.9 L 124.5 4.1 L 123.2 4.1 C 123.2 4.1 123.15 6.56 123.2 6.6 C 123.2 7.6 123.9 7.7 124.4 7.7 C 124.53 7.72 124.6 7.7 124.6 7.7 L 124.6 9 C 124.6 9 124.45 9.06 124.2 9.1 C 123.3 9.1 121.6 8.8 121.6 6.8 C 121.63 6.76 121.6 4.1 121.6 4.1 Z M 126 4.4 C 126 4.3 126 4.2 125.8 4.2 C 125.78 4.18 125.3 4.2 125.3 4.2 L 125.3 2.9 C 125.3 2.9 126.69 2.88 126.7 2.9 C 127.2 2.9 127.5 3.1 127.5 3.6 C 127.5 3.6 127.5 4 127.5 4 C 127.51 4.21 127.5 4.4 127.5 4.4 C 127.5 4.4 127.51 4.37 127.5 4.4 C 127.8 3.5 128.5 2.8 129.5 2.8 C 129.59 2.8 129.7 2.8 129.7 2.8 L 129.7 4.3 C 129.7 4.3 129.57 4.3 129.4 4.3 C 128.7 4.3 128 4.7 127.7 5.6 C 127.6 5.9 127.6 6.2 127.6 6.6 C 127.56 6.58 127.6 9 127.6 9 L 126 9 C 126 9 126.05 4.44 126 4.4 Z M 133.5 2.7 C 135.4 2.7 136.9 4.1 136.9 5.9 C 136.9 7.8 135.4 9.1 133.5 9.1 C 131.6 9.1 130.2 7.8 130.2 5.9 C 130.2 4.1 131.6 2.7 133.5 2.7 Z M 133.5 7.8 C 134.5 7.8 135.3 7.1 135.3 5.9 C 135.3 4.8 134.5 4 133.5 4 C 132.5 4 131.7 4.8 131.7 5.9 C 131.7 7.1 132.5 7.8 133.5 7.8 Z M 138.1 2 C 138.1 1.9 138 1.8 137.8 1.8 C 137.84 1.78 137.4 1.8 137.4 1.8 L 137.4 0.5 C 137.4 0.5 138.81 0.48 138.8 0.5 C 139.4 0.5 139.6 0.7 139.6 1.3 C 139.6 1.3 139.6 7.5 139.6 7.5 C 139.6 7.6 139.7 7.7 139.9 7.7 C 139.89 7.72 140.4 7.7 140.4 7.7 L 140.4 9 C 140.4 9 138.92 9 138.9 9 C 138.3 9 138.1 8.8 138.1 8.2 C 138.1 8.2 138.1 2 138.1 2 Z M 144.8 4.4 C 144.8 4.3 144.7 4.2 144.6 4.2 C 144.55 4.18 144.1 4.2 144.1 4.2 L 144.1 2.9 C 144.1 2.9 145.43 2.88 145.4 2.9 C 146 2.9 146.2 3.1 146.2 3.5 C 146.2 3.6 146.2 3.7 146.2 3.7 C 146.19 3.71 146.2 3.7 146.2 3.7 C 146.2 3.7 146.73 2.74 148.2 2.7 C 149.8 2.7 150.9 4 150.9 5.9 C 150.9 7.9 149.7 9.1 148.1 9.1 C 146.87 9.14 146.3 8.3 146.3 8.3 L 146.3 8.3 C 146.3 8.3 146.33 8.56 146.3 8.9 C 146.33 8.87 146.3 11.4 146.3 11.4 L 144.8 11.4 C 144.8 11.4 144.81 4.44 144.8 4.4 Z M 147.8 7.9 C 148.6 7.9 149.4 7.2 149.4 6 C 149.4 4.8 148.7 4 147.8 4 C 147 4 146.3 4.6 146.3 6 C 146.3 6.9 146.8 7.9 147.8 7.9 Z M 155 2.7 C 156.9 2.7 158.4 4.1 158.4 5.9 C 158.4 7.8 156.9 9.1 155 9.1 C 153.1 9.1 151.7 7.8 151.7 5.9 C 151.7 4.1 153.1 2.7 155 2.7 Z M 155 7.8 C 156 7.8 156.8 7.1 156.8 5.9 C 156.8 4.8 156 4 155 4 C 154 4 153.2 4.8 153.2 5.9 C 153.2 7.1 154 7.8 155 7.8 Z M 161.9 2.7 C 163.25 2.74 163.7 3.5 163.7 3.5 L 163.7 3.5 C 163.7 3.5 163.69 3.32 163.7 3.1 C 163.7 3.1 163.7 2 163.7 2 C 163.7 1.9 163.6 1.8 163.4 1.8 C 163.43 1.78 162.9 1.8 162.9 1.8 L 162.9 0.5 C 162.9 0.5 164.4 0.48 164.4 0.5 C 165 0.5 165.2 0.7 165.2 1.3 C 165.2 1.3 165.2 7.5 165.2 7.5 C 165.2 7.6 165.3 7.7 165.5 7.7 C 165.48 7.72 165.9 7.7 165.9 7.7 L 165.9 9 C 165.9 9 164.54 9 164.5 9 C 164 9 163.8 8.7 163.8 8.4 C 163.8 8.2 163.8 8.1 163.8 8.1 C 163.79 8.15 163.8 8.1 163.8 8.1 C 163.8 8.1 163.26 9.14 161.9 9.1 C 160.2 9.1 159.1 7.8 159.1 5.9 C 159.1 4 160.3 2.7 161.9 2.7 Z M 163.7 5.9 C 163.7 5 163.2 4 162.2 4 C 161.4 4 160.7 4.7 160.7 5.9 C 160.7 7.1 161.3 7.9 162.2 7.9 C 163 7.9 163.7 7.3 163.7 5.9 Z M 167.2 2 C 167.2 1.9 167.1 1.8 166.9 1.8 C 166.91 1.78 166.4 1.8 166.4 1.8 L 166.4 0.5 C 166.4 0.5 167.88 0.48 167.9 0.5 C 168.4 0.5 168.7 0.7 168.7 1.3 C 168.7 1.3 168.7 7.5 168.7 7.5 C 168.7 7.6 168.8 7.7 169 7.7 C 168.96 7.72 169.4 7.7 169.4 7.7 L 169.4 9 C 169.4 9 167.99 9 168 9 C 167.4 9 167.2 8.8 167.2 8.2 C 167.2 8.2 167.2 2 167.2 2 Z M 170.8 0.5 L 172.1 0.5 L 172.1 1.9 L 170.8 1.9 L 170.8 0.5 Z M 170.7 4.4 C 170.7 4.3 170.7 4.2 170.5 4.2 C 170.48 4.18 170 4.2 170 4.2 L 170 2.9 C 170 2.9 171.45 2.88 171.5 2.9 C 172 2.9 172.3 3.1 172.3 3.7 C 172.3 3.7 172.3 7.5 172.3 7.5 C 172.3 7.6 172.4 7.7 172.5 7.7 C 172.52 7.72 173 7.7 173 7.7 L 173 9 C 173 9 171.55 9 171.5 9 C 171 9 170.7 8.8 170.7 8.2 C 170.7 8.2 170.7 4.4 170.7 4.4 Z M 176.8 2.7 C 178.5 2.7 179.5 4 179.5 5.6 C 179.49 5.82 179.5 6.2 179.5 6.2 C 179.5 6.2 175.23 6.2 175.2 6.2 C 175.4 7.3 176.1 7.8 177.1 7.8 C 178.05 7.85 178.8 7.2 178.8 7.2 L 179.4 8.2 C 179.4 8.2 178.49 9.14 177 9.1 C 174.9 9.1 173.7 7.7 173.7 5.9 C 173.7 4.1 174.9 2.7 176.8 2.7 Z M 177.9 5.1 C 177.9 4.4 177.4 3.9 176.8 3.9 C 176 3.9 175.4 4.4 175.3 5.1 C 175.3 5.1 177.9 5.1 177.9 5.1 Z M 180.9 2 C 180.9 1.9 180.8 1.8 180.7 1.8 C 180.66 1.78 180.2 1.8 180.2 1.8 L 180.2 0.5 C 180.2 0.5 181.63 0.48 181.6 0.5 C 182.2 0.5 182.4 0.7 182.4 1.3 C 182.4 1.3 182.4 3.4 182.4 3.4 C 182.44 3.73 182.4 3.9 182.4 3.9 C 182.4 3.9 182.44 3.95 182.4 3.9 C 182.7 3.4 183.5 2.7 184.5 2.7 C 185.9 2.7 186.7 3.4 186.7 5.1 C 186.7 5.1 186.7 7.5 186.7 7.5 C 186.7 7.6 186.8 7.7 186.9 7.7 C 186.94 7.72 187.4 7.7 187.4 7.7 L 187.4 9 C 187.4 9 185.97 9 186 9 C 185.4 9 185.2 8.8 185.2 8.2 C 185.2 8.2 185.2 5.4 185.2 5.4 C 185.2 4.6 185 4.1 184.2 4.1 C 183.4 4.1 182.8 4.7 182.5 5.4 C 182.5 5.6 182.4 5.9 182.4 6.2 C 182.44 6.19 182.4 9 182.4 9 L 180.9 9 C 180.9 9 180.92 2.04 180.9 2 Z M 191.7 5.2 C 191.69 5.16 191.9 5.2 191.9 5.2 C 191.9 5.2 191.88 5.11 191.9 5.1 C 191.9 4.2 191.5 3.9 190.7 3.9 C 190.5 3.9 189.9 4 189.9 4.3 C 189.93 4.32 189.9 4.6 189.9 4.6 L 188.5 4.6 C 188.5 4.6 188.52 4 188.5 4 C 188.5 2.9 190.1 2.7 190.8 2.7 C 192.8 2.7 193.4 3.8 193.4 5.2 C 193.4 5.2 193.4 7.5 193.4 7.5 C 193.4 7.6 193.5 7.7 193.7 7.7 C 193.66 7.72 194.1 7.7 194.1 7.7 L 194.1 9 C 194.1 9 192.78 9 192.8 9 C 192.2 9 192 8.7 192 8.3 C 192 8.2 192 8.1 192 8.1 C 192.01 8.06 192 8.1 192 8.1 C 192 8.1 191.52 9.14 190.1 9.1 C 189 9.1 188.1 8.5 188.1 7.2 C 188.1 5.3 190.7 5.2 191.7 5.2 Z M 190.5 8 C 191.3 8 191.9 7.1 191.9 6.3 C 191.9 6.35 191.9 6.2 191.9 6.2 C 191.9 6.2 191.64 6.2 191.6 6.2 C 190.8 6.2 189.6 6.3 189.6 7.2 C 189.6 7.6 189.9 8 190.5 8 Z M 198.5 4.4 C 198.5 4.3 198.5 4.2 198.3 4.2 C 198.29 4.18 197.8 4.2 197.8 4.2 L 197.8 2.9 C 197.8 2.9 199.16 2.88 199.2 2.9 C 199.7 2.9 199.9 3.1 199.9 3.5 C 199.9 3.6 199.9 3.7 199.9 3.7 C 199.93 3.71 200 3.7 200 3.7 C 200 3.7 200.47 2.74 201.9 2.7 C 203.6 2.7 204.6 4 204.6 5.9 C 204.6 7.9 203.4 9.1 201.8 9.1 C 200.6 9.14 200.1 8.3 200.1 8.3 L 200 8.3 C 200 8.3 200.06 8.56 200.1 8.9 C 200.06 8.87 200.1 11.4 200.1 11.4 L 198.5 11.4 C 198.5 11.4 198.55 4.44 198.5 4.4 Z M 201.5 7.9 C 202.4 7.9 203.1 7.2 203.1 6 C 203.1 4.8 202.5 4 201.6 4 C 200.8 4 200 4.6 200 6 C 200 6.9 200.5 7.9 201.5 7.9 Z M 206 4.4 C 206 4.3 205.9 4.2 205.7 4.2 C 205.74 4.18 205.3 4.2 205.3 4.2 L 205.3 2.9 C 205.3 2.9 206.65 2.88 206.6 2.9 C 207.2 2.9 207.5 3.1 207.5 3.6 C 207.5 3.6 207.5 4 207.5 4 C 207.46 4.21 207.4 4.4 207.4 4.4 C 207.4 4.4 207.46 4.37 207.5 4.4 C 207.7 3.5 208.5 2.8 209.4 2.8 C 209.54 2.8 209.7 2.8 209.7 2.8 L 209.7 4.3 C 209.7 4.3 209.53 4.3 209.3 4.3 C 208.7 4.3 207.9 4.7 207.6 5.6 C 207.6 5.9 207.5 6.2 207.5 6.6 C 207.51 6.58 207.5 9 207.5 9 L 206 9 C 206 9 206 4.44 206 4.4 Z M 213.5 2.7 C 215.3 2.7 216.8 4.1 216.8 5.9 C 216.8 7.8 215.3 9.1 213.5 9.1 C 211.6 9.1 210.1 7.8 210.1 5.9 C 210.1 4.1 211.6 2.7 213.5 2.7 Z M 213.5 7.8 C 214.4 7.8 215.3 7.1 215.3 5.9 C 215.3 4.8 214.4 4 213.5 4 C 212.5 4 211.6 4.8 211.6 5.9 C 211.6 7.1 212.5 7.8 213.5 7.8 Z M 220.9 2.7 C 221.7 2.7 223.1 3.1 223.1 4.1 C 223.15 4.12 223.1 4.8 223.1 4.8 L 221.8 4.8 C 221.8 4.8 221.81 4.5 221.8 4.5 C 221.8 4.2 221.3 4 220.9 4 C 219.9 4 219.1 4.8 219.1 5.9 C 219.1 7.2 220 7.8 221 7.8 C 222.07 7.81 222.8 7 222.8 7 L 223.5 8 C 223.5 8 222.56 9.14 220.9 9.1 C 218.9 9.1 217.6 7.7 217.6 5.9 C 217.6 4.2 218.8 2.7 220.9 2.7 Z M 227.1 2.7 C 228.9 2.7 229.9 4 229.9 5.6 C 229.86 5.82 229.8 6.2 229.8 6.2 C 229.8 6.2 225.6 6.2 225.6 6.2 C 225.7 7.3 226.5 7.8 227.4 7.8 C 228.42 7.85 229.1 7.2 229.1 7.2 L 229.8 8.2 C 229.8 8.2 228.85 9.14 227.3 9.1 C 225.3 9.1 224 7.7 224 5.9 C 224 4.1 225.3 2.7 227.1 2.7 Z M 228.3 5.1 C 228.3 4.4 227.8 3.9 227.1 3.9 C 226.4 3.9 225.8 4.4 225.6 5.1 C 225.6 5.1 228.3 5.1 228.3 5.1 Z M 231.4 7.1 C 231.4 7.1 232.14 7.96 233.2 8 C 233.6 8 234 7.8 234 7.4 C 234 6.5 230.8 6.5 230.8 4.5 C 230.8 3.3 231.9 2.7 233.2 2.7 C 234 2.7 235.3 3 235.3 4 C 235.3 4.01 235.3 4.6 235.3 4.6 L 234 4.6 C 234 4.6 233.96 4.34 234 4.3 C 234 4.1 233.5 3.9 233.2 3.9 C 232.7 3.9 232.3 4.1 232.3 4.5 C 232.3 5.4 235.5 5.2 235.5 7.3 C 235.5 8.4 234.5 9.1 233.2 9.1 C 231.5 9.14 230.6 8.1 230.6 8.1 L 231.4 7.1 Z M 236.9 4.4 C 236.9 4.3 236.8 4.2 236.7 4.2 C 236.66 4.18 236.2 4.2 236.2 4.2 L 236.2 2.9 C 236.2 2.9 237.63 2.88 237.6 2.9 C 238.2 2.9 238.4 3.1 238.4 3.7 C 238.4 3.7 238.4 6.5 238.4 6.5 C 238.4 7.2 238.6 7.8 239.4 7.8 C 240.5 7.8 241.1 6.8 241.1 5.7 C 241.1 5.69 241.1 2.9 241.1 2.9 L 242.6 2.9 C 242.6 2.9 242.62 7.45 242.6 7.5 C 242.6 7.6 242.7 7.7 242.9 7.7 C 242.89 7.72 243.4 7.7 243.4 7.7 L 243.4 9 C 243.4 9 241.96 9 242 9 C 241.4 9 241.2 8.7 241.2 8.3 C 241.2 8.3 241.2 8.1 241.2 8.1 C 241.2 8 241.2 7.9 241.2 7.9 C 241.2 7.9 241.1 7.9 241.1 7.9 C 240.9 8.5 240.1 9.1 239 9.1 C 237.7 9.1 236.9 8.5 236.9 6.8 C 236.9 6.8 236.9 4.4 236.9 4.4 Z M 249.9 2.7 C 251.3 2.7 251.8 3.6 251.8 3.6 C 251.77 3.6 251.8 3.6 251.8 3.6 C 251.8 3.6 251.79 3.53 251.8 3.4 C 251.8 3.2 252 2.9 252.5 2.9 C 252.46 2.88 253.9 2.9 253.9 2.9 L 253.9 4.2 C 253.9 4.2 253.41 4.18 253.4 4.2 C 253.3 4.2 253.1 4.3 253.1 4.4 C 253.1 4.4 253.1 8.6 253.1 8.6 C 253.1 10.7 251.5 11.5 249.9 11.5 C 249.2 11.5 248.3 11.3 247.7 11 C 247.75 10.99 248.2 9.8 248.2 9.8 C 248.2 9.8 248.97 10.2 249.9 10.2 C 250.8 10.2 251.6 9.8 251.6 8.7 C 251.6 8.7 251.6 8.4 251.6 8.4 C 251.64 8.27 251.6 8.1 251.6 8.1 C 251.6 8.1 251.63 8.09 251.6 8.1 C 251.3 8.6 250.7 8.9 249.9 8.9 C 248.2 8.9 247.2 7.5 247.2 5.8 C 247.2 4.1 248.1 2.7 249.9 2.7 Z M 251.7 5.8 C 251.7 4.4 251 4 250.1 4 C 249.2 4 248.7 4.7 248.7 5.7 C 248.7 6.8 249.3 7.6 250.2 7.6 C 251 7.6 251.7 7.2 251.7 5.8 Z M 255.1 2 C 255.1 1.9 255 1.8 254.8 1.8 C 254.83 1.78 254.3 1.8 254.3 1.8 L 254.3 0.5 C 254.3 0.5 255.8 0.48 255.8 0.5 C 256.4 0.5 256.6 0.7 256.6 1.3 C 256.6 1.3 256.6 7.5 256.6 7.5 C 256.6 7.6 256.7 7.7 256.9 7.7 C 256.88 7.72 257.3 7.7 257.3 7.7 L 257.3 9 C 257.3 9 255.91 9 255.9 9 C 255.3 9 255.1 8.8 255.1 8.2 C 255.1 8.2 255.1 2 255.1 2 Z M 258.6 4.4 C 258.6 4.3 258.5 4.2 258.3 4.2 C 258.33 4.18 257.9 4.2 257.9 4.2 L 257.9 2.9 C 257.9 2.9 259.3 2.88 259.3 2.9 C 259.9 2.9 260.1 3.1 260.1 3.7 C 260.1 3.7 260.1 6.5 260.1 6.5 C 260.1 7.2 260.3 7.8 261.1 7.8 C 262.2 7.8 262.8 6.8 262.8 5.7 C 262.77 5.69 262.8 2.9 262.8 2.9 L 264.3 2.9 C 264.3 2.9 264.3 7.45 264.3 7.5 C 264.3 7.6 264.4 7.7 264.6 7.7 C 264.56 7.72 265 7.7 265 7.7 L 265 9 C 265 9 263.64 9 263.6 9 C 263.1 9 262.8 8.7 262.8 8.3 C 262.8 8.3 262.8 8.1 262.8 8.1 C 262.8 8 262.8 7.9 262.8 7.9 C 262.8 7.9 262.8 7.9 262.8 7.9 C 262.5 8.5 261.8 9.1 260.7 9.1 C 259.4 9.1 258.6 8.5 258.6 6.8 C 258.6 6.8 258.6 4.4 258.6 4.4 Z M 266.2 2 C 266.2 1.9 266.1 1.8 266 1.8 C 265.96 1.78 265.5 1.8 265.5 1.8 L 265.5 0.5 C 265.5 0.5 266.94 0.48 266.9 0.5 C 267.5 0.5 267.8 0.6 267.8 1.2 C 267.75 1.18 267.8 5 267.8 5 C 267.8 5 268.21 5.04 268.2 5 C 268.4 5 268.7 5 268.8 4.8 C 268.78 4.81 270 2.9 270 2.9 L 271.7 2.9 C 271.7 2.9 270.18 5.18 270.2 5.2 C 269.91 5.57 269.7 5.7 269.7 5.7 L 269.7 5.7 C 269.7 5.7 269.94 5.77 270.2 6.2 C 270.2 6.2 270.8 7.5 270.8 7.5 C 270.9 7.7 271.1 7.7 271.4 7.7 C 271.35 7.72 271.8 7.7 271.8 7.7 L 271.8 9 C 271.8 9 270.63 9 270.6 9 C 270.1 9 269.9 8.9 269.7 8.5 C 269.7 8.5 268.7 6.6 268.7 6.6 C 268.5 6.3 268.3 6.3 268.1 6.3 C 268.09 6.32 267.8 6.3 267.8 6.3 L 267.8 9 L 266.2 9 C 266.2 9 266.23 2.04 266.2 2 Z M 272.9 4.4 C 272.9 4.3 272.8 4.2 272.6 4.2 C 272.62 4.18 272.1 4.2 272.1 4.2 L 272.1 2.9 C 272.1 2.9 273.6 2.88 273.6 2.9 C 274.2 2.9 274.4 3.1 274.4 3.7 C 274.4 3.7 274.4 6.5 274.4 6.5 C 274.4 7.2 274.6 7.8 275.3 7.8 C 276.5 7.8 277.1 6.8 277.1 5.7 C 277.06 5.69 277.1 2.9 277.1 2.9 L 278.6 2.9 C 278.6 2.9 278.59 7.45 278.6 7.5 C 278.6 7.6 278.7 7.7 278.9 7.7 C 278.85 7.72 279.3 7.7 279.3 7.7 L 279.3 9 C 279.3 9 277.93 9 277.9 9 C 277.4 9 277.1 8.7 277.1 8.3 C 277.1 8.3 277.1 8.1 277.1 8.1 C 277.1 8 277.1 7.9 277.1 7.9 C 277.1 7.9 277.1 7.9 277.1 7.9 C 276.8 8.5 276.1 9.1 275 9.1 C 273.7 9.1 272.9 8.5 272.9 6.8 C 272.9 6.8 272.9 4.4 272.9 4.4 Z M 280.6 4.4 C 280.6 4.3 280.5 4.2 280.3 4.2 C 280.3 4.18 279.8 4.2 279.8 4.2 L 279.8 2.9 C 279.8 2.9 281.22 2.88 281.2 2.9 C 281.8 2.9 282 3.1 282 3.6 C 282 3.6 282 4 282 4 C 282.03 4.21 282 4.4 282 4.4 C 282 4.4 282.03 4.37 282 4.4 C 282.3 3.5 283 2.8 284 2.8 C 284.11 2.8 284.3 2.8 284.3 2.8 L 284.3 4.3 C 284.3 4.3 284.09 4.3 283.9 4.3 C 283.2 4.3 282.5 4.7 282.2 5.6 C 282.1 5.9 282.1 6.2 282.1 6.6 C 282.08 6.58 282.1 9 282.1 9 L 280.6 9 C 280.6 9 280.57 4.44 280.6 4.4 Z M 288 2.7 C 289.9 2.7 291.4 4.1 291.4 5.9 C 291.4 7.8 289.9 9.1 288 9.1 C 286.2 9.1 284.7 7.8 284.7 5.9 C 284.7 4.1 286.2 2.7 288 2.7 Z M 288 7.8 C 289 7.8 289.8 7.1 289.8 5.9 C 289.8 4.8 289 4 288 4 C 287 4 286.2 4.8 286.2 5.9 C 286.2 7.1 287 7.8 288 7.8 Z M 292.8 4.4 C 292.8 4.3 292.7 4.2 292.5 4.2 C 292.5 4.18 292 4.2 292 4.2 L 292 2.9 C 292 2.9 293.42 2.88 293.4 2.9 C 294 2.9 294.2 3.1 294.2 3.6 C 294.2 3.6 294.2 3.7 294.2 3.7 C 294.2 3.9 294.2 4 294.2 4 C 294.2 4 294.2 4 294.2 4 C 294.5 3.5 295.1 2.7 296.4 2.7 C 297.7 2.7 298.5 3.4 298.5 5.1 C 298.5 5.1 298.5 7.5 298.5 7.5 C 298.5 7.6 298.6 7.7 298.8 7.7 C 298.78 7.72 299.3 7.7 299.3 7.7 L 299.3 9 C 299.3 9 297.81 9 297.8 9 C 297.2 9 297 8.8 297 8.2 C 297 8.2 297 5.4 297 5.4 C 297 4.6 296.8 4.1 296 4.1 C 295.2 4.1 294.6 4.6 294.4 5.4 C 294.3 5.6 294.3 5.9 294.3 6.2 C 294.27 6.19 294.3 9 294.3 9 L 292.8 9 C 292.8 9 292.76 4.44 292.8 4.4 Z M 300.6 0.5 L 301.9 0.5 L 301.9 1.9 L 300.6 1.9 L 300.6 0.5 Z M 300.5 4.4 C 300.5 4.3 300.4 4.2 300.3 4.2 C 300.26 4.18 299.8 4.2 299.8 4.2 L 299.8 2.9 C 299.8 2.9 301.23 2.88 301.2 2.9 C 301.8 2.9 302 3.1 302 3.7 C 302 3.7 302 7.5 302 7.5 C 302 7.6 302.1 7.7 302.3 7.7 C 302.3 7.72 302.8 7.7 302.8 7.7 L 302.8 9 C 302.8 9 301.33 9 301.3 9 C 300.8 9 300.5 8.8 300.5 8.2 C 300.5 8.2 300.5 4.4 300.5 4.4 Z M 306.2 2.7 C 307.57 2.74 308 3.5 308 3.5 L 308 3.5 C 308 3.5 308.01 3.32 308 3.1 C 308 3.1 308 2 308 2 C 308 1.9 307.9 1.8 307.7 1.8 C 307.75 1.78 307.3 1.8 307.3 1.8 L 307.3 0.5 C 307.3 0.5 308.72 0.48 308.7 0.5 C 309.3 0.5 309.5 0.7 309.5 1.3 C 309.5 1.3 309.5 7.5 309.5 7.5 C 309.5 7.6 309.6 7.7 309.8 7.7 C 309.8 7.72 310.3 7.7 310.3 7.7 L 310.3 9 C 310.3 9 308.86 9 308.9 9 C 308.3 9 308.1 8.7 308.1 8.4 C 308.1 8.2 308.1 8.1 308.1 8.1 C 308.11 8.15 308.1 8.1 308.1 8.1 C 308.1 8.1 307.58 9.14 306.2 9.1 C 304.5 9.1 303.5 7.8 303.5 5.9 C 303.5 4 304.6 2.7 306.2 2.7 Z M 308 5.9 C 308 5 307.6 4 306.5 4 C 305.7 4 305 4.7 305 5.9 C 305 7.1 305.6 7.9 306.5 7.9 C 307.3 7.9 308 7.3 308 5.9 Z M 314.6 5.2 C 314.56 5.16 314.8 5.2 314.8 5.2 C 314.8 5.2 314.76 5.11 314.8 5.1 C 314.8 4.2 314.4 3.9 313.6 3.9 C 313.4 3.9 312.8 4 312.8 4.3 C 312.81 4.32 312.8 4.6 312.8 4.6 L 311.4 4.6 C 311.4 4.6 311.4 4 311.4 4 C 311.4 2.9 313 2.7 313.6 2.7 C 315.7 2.7 316.3 3.8 316.3 5.2 C 316.3 5.2 316.3 7.5 316.3 7.5 C 316.3 7.6 316.4 7.7 316.5 7.7 C 316.54 7.72 317 7.7 317 7.7 L 317 9 C 317 9 315.65 9 315.7 9 C 315.1 9 314.9 8.7 314.9 8.3 C 314.9 8.2 314.9 8.1 314.9 8.1 C 314.89 8.06 314.9 8.1 314.9 8.1 C 314.9 8.1 314.4 9.14 313 9.1 C 311.9 9.1 310.9 8.5 310.9 7.2 C 310.9 5.3 313.6 5.2 314.6 5.2 Z M 313.4 8 C 314.2 8 314.8 7.1 314.8 6.3 C 314.78 6.35 314.8 6.2 314.8 6.2 C 314.8 6.2 314.52 6.2 314.5 6.2 C 313.7 6.2 312.5 6.3 312.5 7.2 C 312.5 7.6 312.8 8 313.4 8 Z M 314.1 0.5 L 315.6 0.5 L 314.3 2.1 L 313.2 2.1 L 314.1 0.5 Z M 321 2.7 C 321.8 2.7 323.2 3.1 323.2 4.1 C 323.2 4.12 323.2 4.8 323.2 4.8 L 321.9 4.8 C 321.9 4.8 321.86 4.5 321.9 4.5 C 321.9 4.2 321.4 4 321 4 C 319.9 4 319.2 4.8 319.2 5.9 C 319.2 7.2 320.1 7.8 321.1 7.8 C 322.12 7.81 322.9 7 322.9 7 L 323.5 8 C 323.5 8 322.62 9.14 320.9 9.1 C 318.9 9.1 317.6 7.7 317.6 5.9 C 317.6 4.2 318.9 2.7 321 2.7 Z M 324.8 0.5 L 326.1 0.5 L 326.1 1.9 L 324.8 1.9 L 324.8 0.5 Z M 324.8 4.4 C 324.8 4.3 324.7 4.2 324.5 4.2 C 324.49 4.18 324 4.2 324 4.2 L 324 2.9 C 324 2.9 325.46 2.88 325.5 2.9 C 326 2.9 326.3 3.1 326.3 3.7 C 326.3 3.7 326.3 7.5 326.3 7.5 C 326.3 7.6 326.4 7.7 326.5 7.7 C 326.53 7.72 327 7.7 327 7.7 L 327 9 C 327 9 325.55 9 325.6 9 C 325 9 324.8 8.8 324.8 8.2 C 324.8 8.2 324.8 4.4 324.8 4.4 Z M 330.8 2.7 C 332.5 2.7 333.5 4 333.5 5.6 C 333.5 5.82 333.5 6.2 333.5 6.2 C 333.5 6.2 329.24 6.2 329.2 6.2 C 329.4 7.3 330.2 7.8 331.1 7.8 C 332.06 7.85 332.8 7.2 332.8 7.2 L 333.4 8.2 C 333.4 8.2 332.49 9.14 331 9.1 C 328.9 9.1 327.7 7.7 327.7 5.9 C 327.7 4.1 329 2.7 330.8 2.7 Z M 331.9 5.1 C 331.9 4.4 331.4 3.9 330.8 3.9 C 330 3.9 329.5 4.4 329.3 5.1 C 329.3 5.1 331.9 5.1 331.9 5.1 Z M 341.2 5.2 C 341.19 5.16 341.4 5.2 341.4 5.2 C 341.4 5.2 341.38 5.11 341.4 5.1 C 341.4 4.2 341 3.9 340.3 3.9 C 340 3.9 339.4 4 339.4 4.3 C 339.44 4.32 339.4 4.6 339.4 4.6 L 338 4.6 C 338 4.6 338.02 4 338 4 C 338 2.9 339.6 2.7 340.3 2.7 C 342.3 2.7 342.9 3.8 342.9 5.2 C 342.9 5.2 342.9 7.5 342.9 7.5 C 342.9 7.6 343 7.7 343.2 7.7 C 343.17 7.72 343.7 7.7 343.7 7.7 L 343.7 9 C 343.7 9 342.28 9 342.3 9 C 341.7 9 341.5 8.7 341.5 8.3 C 341.5 8.2 341.5 8.1 341.5 8.1 C 341.52 8.06 341.5 8.1 341.5 8.1 C 341.5 8.1 341.02 9.14 339.6 9.1 C 338.6 9.1 337.6 8.5 337.6 7.2 C 337.6 5.3 340.2 5.2 341.2 5.2 Z M 340 8 C 340.8 8 341.4 7.1 341.4 6.3 C 341.41 6.35 341.4 6.2 341.4 6.2 C 341.4 6.2 341.14 6.2 341.1 6.2 C 340.4 6.2 339.1 6.3 339.1 7.2 C 339.1 7.6 339.4 8 340 8 Z M 351.1 5.2 C 351.09 5.16 351.3 5.2 351.3 5.2 C 351.3 5.2 351.28 5.11 351.3 5.1 C 351.3 4.2 350.9 3.9 350.2 3.9 C 349.9 3.9 349.3 4 349.3 4.3 C 349.34 4.32 349.3 4.6 349.3 4.6 L 347.9 4.6 C 347.9 4.6 347.92 4 347.9 4 C 347.9 2.9 349.5 2.7 350.2 2.7 C 352.2 2.7 352.8 3.8 352.8 5.2 C 352.8 5.2 352.8 7.5 352.8 7.5 C 352.8 7.6 352.9 7.7 353.1 7.7 C 353.07 7.72 353.6 7.7 353.6 7.7 L 353.6 9 C 353.6 9 352.18 9 352.2 9 C 351.6 9 351.4 8.7 351.4 8.3 C 351.4 8.2 351.4 8.1 351.4 8.1 C 351.42 8.06 351.4 8.1 351.4 8.1 C 351.4 8.1 350.92 9.14 349.5 9.1 C 348.5 9.1 347.5 8.5 347.5 7.2 C 347.5 5.3 350.1 5.2 351.1 5.2 Z M 349.9 8 C 350.7 8 351.3 7.1 351.3 6.3 C 351.31 6.35 351.3 6.2 351.3 6.2 C 351.3 6.2 351.04 6.2 351 6.2 C 350.3 6.2 349 6.3 349 7.2 C 349 7.6 349.3 8 349.9 8 Z M 354.7 2 C 354.7 1.9 354.6 1.8 354.5 1.8 C 354.46 1.78 354 1.8 354 1.8 L 354 0.5 C 354 0.5 355.43 0.48 355.4 0.5 C 356 0.5 356.3 0.6 356.3 1.2 C 356.25 1.18 356.3 5 356.3 5 C 356.3 5 356.71 5.04 356.7 5 C 356.9 5 357.2 5 357.3 4.8 C 357.28 4.81 358.5 2.9 358.5 2.9 L 360.2 2.9 C 360.2 2.9 358.67 5.18 358.7 5.2 C 358.41 5.57 358.2 5.7 358.2 5.7 L 358.2 5.7 C 358.2 5.7 358.43 5.77 358.7 6.2 C 358.7 6.2 359.3 7.5 359.3 7.5 C 359.4 7.7 359.6 7.7 359.9 7.7 C 359.85 7.72 360.3 7.7 360.3 7.7 L 360.3 9 C 360.3 9 359.13 9 359.1 9 C 358.6 9 358.4 8.9 358.2 8.5 C 358.2 8.5 357.2 6.6 357.2 6.6 C 357 6.3 356.8 6.3 356.6 6.3 C 356.59 6.32 356.3 6.3 356.3 6.3 L 356.3 9 L 354.7 9 C 354.7 9 354.73 2.04 354.7 2 Z M 364.1 2.7 C 365.9 2.7 367.4 4.1 367.4 5.9 C 367.4 7.8 365.9 9.1 364.1 9.1 C 362.2 9.1 360.7 7.8 360.7 5.9 C 360.7 4.1 362.2 2.7 364.1 2.7 Z M 364.1 7.8 C 365 7.8 365.9 7.1 365.9 5.9 C 365.9 4.8 365 4 364.1 4 C 363.1 4 362.2 4.8 362.2 5.9 C 362.2 7.1 363.1 7.8 364.1 7.8 Z M 372 4.4 C 372 4.3 371.9 4.2 371.7 4.2 C 371.71 4.18 371.2 4.2 371.2 4.2 L 371.2 2.9 C 371.2 2.9 372.63 2.88 372.6 2.9 C 373.2 2.9 373.4 3.1 373.4 3.6 C 373.4 3.6 373.4 3.7 373.4 3.7 C 373.4 3.9 373.4 4 373.4 4 C 373.4 4 373.4 4 373.4 4 C 373.7 3.5 374.4 2.7 375.6 2.7 C 377 2.7 377.7 3.4 377.7 5.1 C 377.7 5.1 377.7 7.5 377.7 7.5 C 377.7 7.6 377.8 7.7 378 7.7 C 377.99 7.72 378.5 7.7 378.5 7.7 L 378.5 9 C 378.5 9 377.02 9 377 9 C 376.4 9 376.2 8.8 376.2 8.2 C 376.2 8.2 376.2 5.4 376.2 5.4 C 376.2 4.6 376 4.1 375.2 4.1 C 374.4 4.1 373.8 4.6 373.6 5.4 C 373.5 5.6 373.5 5.9 373.5 6.2 C 373.48 6.19 373.5 9 373.5 9 L 372 9 C 372 9 371.97 4.44 372 4.4 Z M 382.2 2.7 C 383.9 2.7 384.9 4 384.9 5.6 C 384.89 5.82 384.9 6.2 384.9 6.2 C 384.9 6.2 380.63 6.2 380.6 6.2 C 380.8 7.3 381.5 7.8 382.5 7.8 C 383.46 7.85 384.2 7.2 384.2 7.2 L 384.8 8.2 C 384.8 8.2 383.89 9.14 382.4 9.1 C 380.3 9.1 379.1 7.7 379.1 5.9 C 379.1 4.1 380.3 2.7 382.2 2.7 Z M 383.3 5.1 C 383.3 4.4 382.8 3.9 382.2 3.9 C 381.4 3.9 380.8 4.4 380.7 5.1 C 380.7 5.1 383.3 5.1 383.3 5.1 Z M 389.4 5.2 C 389.41 5.16 389.6 5.2 389.6 5.2 C 389.6 5.2 389.6 5.11 389.6 5.1 C 389.6 4.2 389.3 3.9 388.5 3.9 C 388.2 3.9 387.7 4 387.7 4.3 C 387.65 4.32 387.7 4.6 387.7 4.6 L 386.2 4.6 C 386.2 4.6 386.24 4 386.2 4 C 386.2 2.9 387.8 2.7 388.5 2.7 C 390.5 2.7 391.1 3.8 391.1 5.2 C 391.1 5.2 391.1 7.5 391.1 7.5 C 391.1 7.6 391.2 7.7 391.4 7.7 C 391.39 7.72 391.9 7.7 391.9 7.7 L 391.9 9 C 391.9 9 390.5 9 390.5 9 C 389.9 9 389.7 8.7 389.7 8.3 C 389.7 8.2 389.7 8.1 389.7 8.1 C 389.73 8.06 389.7 8.1 389.7 8.1 C 389.7 8.1 389.24 9.14 387.9 9.1 C 386.8 9.1 385.8 8.5 385.8 7.2 C 385.8 5.3 388.4 5.2 389.4 5.2 Z M 388.2 8 C 389 8 389.6 7.1 389.6 6.3 C 389.62 6.35 389.6 6.2 389.6 6.2 C 389.6 6.2 389.36 6.2 389.4 6.2 C 388.6 6.2 387.3 6.3 387.3 7.2 C 387.3 7.6 387.6 8 388.2 8 Z M 393 2 C 393 1.9 392.9 1.8 392.8 1.8 C 392.78 1.78 392.3 1.8 392.3 1.8 L 392.3 0.5 C 392.3 0.5 393.75 0.48 393.8 0.5 C 394.3 0.5 394.6 0.6 394.6 1.2 C 394.57 1.18 394.6 5 394.6 5 C 394.6 5 395.02 5.04 395 5 C 395.2 5 395.5 5 395.6 4.8 C 395.6 4.81 396.8 2.9 396.8 2.9 L 398.5 2.9 C 398.5 2.9 396.99 5.18 397 5.2 C 396.73 5.57 396.5 5.7 396.5 5.7 L 396.5 5.7 C 396.5 5.7 396.75 5.77 397 6.2 C 397 6.2 397.7 7.5 397.7 7.5 C 397.8 7.7 397.9 7.7 398.2 7.7 C 398.17 7.72 398.6 7.7 398.6 7.7 L 398.6 9 C 398.6 9 397.45 9 397.4 9 C 396.9 9 396.7 8.9 396.5 8.5 C 396.5 8.5 395.5 6.6 395.5 6.6 C 395.3 6.3 395.1 6.3 394.9 6.3 C 394.9 6.32 394.6 6.3 394.6 6.3 L 394.6 9 L 393 9 C 393 9 393.04 2.04 393 2 Z M 399.8 4.1 L 399 4.1 L 399 2.9 L 399.8 2.9 L 399.8 1.2 L 401.3 1.2 L 401.3 2.9 L 402.7 2.9 L 402.7 4.1 L 401.3 4.1 C 401.3 4.1 401.27 6.56 401.3 6.6 C 401.3 7.6 402.1 7.7 402.5 7.7 C 402.65 7.72 402.8 7.7 402.8 7.7 L 402.8 9 C 402.8 9 402.57 9.06 402.3 9.1 C 401.4 9.1 399.8 8.8 399.8 6.8 C 399.75 6.76 399.8 4.1 399.8 4.1 Z M 404.2 4.4 C 404.2 4.3 404.1 4.2 404 4.2 C 403.96 4.18 403.5 4.2 403.5 4.2 L 403.5 2.9 C 403.5 2.9 404.93 2.88 404.9 2.9 C 405.5 2.9 405.7 3.1 405.7 3.7 C 405.7 3.7 405.7 7.5 405.7 7.5 C 405.7 7.6 405.8 7.7 406 7.7 C 406.01 7.72 406.5 7.7 406.5 7.7 L 406.5 9 C 406.5 9 405.04 9 405 9 C 404.5 9 404.2 8.8 404.2 8.2 C 404.2 8.2 404.2 4.4 404.2 4.4 Z M 405.2 0.5 L 406.7 0.5 L 405.4 2.1 L 404.3 2.1 L 405.2 0.5 Z M 407.3 4.4 C 407.3 4.2 407.2 4.2 407 4.2 C 407.01 4.18 406.9 4.2 406.9 4.2 L 406.9 2.9 C 406.9 2.9 407.75 2.88 407.8 2.9 C 408.3 2.9 408.5 3 408.7 3.5 C 408.7 3.5 409.8 6.7 409.8 6.7 C 409.94 7.03 410 7.5 410 7.5 L 410.1 7.5 C 410.1 7.5 410.15 7.03 410.3 6.7 C 410.3 6.7 411.4 3.5 411.4 3.5 C 411.6 3 411.8 2.9 412.3 2.9 C 412.33 2.88 413.1 2.9 413.1 2.9 L 413.1 4.2 C 413.1 4.2 413 4.18 413 4.2 C 412.8 4.2 412.7 4.2 412.7 4.4 C 412.66 4.39 410.9 9 410.9 9 L 409.1 9 C 409.1 9 407.35 4.39 407.3 4.4 Z M 414.3 4.4 C 414.3 4.3 414.2 4.2 414 4.2 C 414.01 4.18 413.5 4.2 413.5 4.2 L 413.5 2.9 C 413.5 2.9 414.93 2.88 414.9 2.9 C 415.5 2.9 415.7 3.1 415.7 3.6 C 415.7 3.6 415.7 3.7 415.7 3.7 C 415.7 3.9 415.7 4 415.7 4 C 415.7 4 415.7 4 415.7 4 C 416 3.5 416.7 2.7 417.9 2.7 C 419.3 2.7 420 3.4 420 5.1 C 420 5.1 420 7.5 420 7.5 C 420 7.6 420.1 7.7 420.3 7.7 C 420.29 7.72 420.8 7.7 420.8 7.7 L 420.8 9 C 420.8 9 419.32 9 419.3 9 C 418.7 9 418.5 8.8 418.5 8.2 C 418.5 8.2 418.5 5.4 418.5 5.4 C 418.5 4.6 418.3 4.1 417.5 4.1 C 416.7 4.1 416.1 4.6 415.9 5.4 C 415.8 5.6 415.8 5.9 415.8 6.2 C 415.78 6.19 415.8 9 415.8 9 L 414.3 9 C 414.3 9 414.27 4.44 414.3 4.4 Z M 422.3 10.2 C 422.8 10.2 423.1 10 423.4 9.5 C 423.35 9.46 423.6 9 423.6 9 C 423.6 9 421.52 4.39 421.5 4.4 C 421.4 4.2 421.4 4.2 421.2 4.2 C 421.19 4.18 421 4.2 421 4.2 L 421 2.9 C 421 2.9 422.02 2.88 422 2.9 C 422.5 2.9 422.7 3 422.8 3.5 C 422.8 3.5 424 6.5 424 6.5 C 424.15 6.83 424.2 7.3 424.2 7.3 L 424.3 7.3 C 424.3 7.3 424.36 6.83 424.5 6.5 C 424.5 6.5 425.5 3.5 425.5 3.5 C 425.7 3 425.9 2.9 426.3 2.9 C 426.33 2.88 427.4 2.9 427.4 2.9 L 427.4 4.2 C 427.4 4.2 427.18 4.18 427.2 4.2 C 427 4.2 426.9 4.2 426.8 4.4 C 426.8 4.4 424.6 9.9 424.6 9.9 C 424.2 11 423.3 11.5 422.4 11.5 C 421.47 11.52 420.9 10.9 420.9 10.9 L 421.5 9.8 C 421.5 9.8 421.84 10.24 422.3 10.2 Z M 431.7 4.4 C 431.7 4.3 431.6 4.2 431.4 4.2 C 431.42 4.18 430.9 4.2 430.9 4.2 L 430.9 2.9 C 430.9 2.9 432.34 2.88 432.3 2.9 C 432.9 2.9 433.1 3.1 433.1 3.6 C 433.1 3.6 433.1 3.7 433.1 3.7 C 433.1 3.9 433.1 4 433.1 4 C 433.1 4 433.2 4 433.2 4 C 433.4 3.4 434.2 2.7 435.1 2.7 C 436.1 2.7 436.7 3.2 436.9 4 C 436.9 4 436.9 4 436.9 4 C 437.3 3.3 438.1 2.7 439 2.7 C 440.3 2.7 441 3.5 441 5.1 C 441 5.1 441 7.5 441 7.5 C 441 7.6 441.1 7.7 441.3 7.7 C 441.31 7.72 441.8 7.7 441.8 7.7 L 441.8 9 C 441.8 9 440.33 9 440.3 9 C 439.8 9 439.5 8.8 439.5 8.2 C 439.5 8.2 439.5 5.4 439.5 5.4 C 439.5 4.7 439.4 4.1 438.7 4.1 C 437.9 4.1 437.4 4.8 437.2 5.5 C 437.1 5.8 437.1 6 437.1 6.3 C 437.12 6.31 437.1 9 437.1 9 L 435.6 9 C 435.6 9 435.59 5.35 435.6 5.4 C 435.6 4.7 435.5 4.1 434.8 4.1 C 434 4.1 433.5 4.8 433.3 5.5 C 433.2 5.8 433.2 6 433.2 6.3 C 433.19 6.31 433.2 9 433.2 9 L 431.7 9 C 431.7 9 431.68 4.44 431.7 4.4 Z M 445.5 2.7 C 447.2 2.7 448.2 4 448.2 5.6 C 448.21 5.82 448.2 6.2 448.2 6.2 C 448.2 6.2 443.95 6.2 443.9 6.2 C 444.1 7.3 444.9 7.8 445.8 7.8 C 446.77 7.85 447.5 7.2 447.5 7.2 L 448.1 8.2 C 448.1 8.2 447.2 9.14 445.7 9.1 C 443.6 9.1 442.4 7.7 442.4 5.9 C 442.4 4.1 443.7 2.7 445.5 2.7 Z M 446.6 5.1 C 446.6 4.4 446.1 3.9 445.5 3.9 C 444.7 3.9 444.2 4.4 444 5.1 C 444 5.1 446.6 5.1 446.6 5.1 Z M 449.7 4.1 L 448.9 4.1 L 448.9 2.9 L 449.7 2.9 L 449.7 1.2 L 451.2 1.2 L 451.2 2.9 L 452.6 2.9 L 452.6 4.1 L 451.2 4.1 C 451.2 4.1 451.23 6.56 451.2 6.6 C 451.2 7.6 452 7.7 452.4 7.7 C 452.61 7.72 452.7 7.7 452.7 7.7 L 452.7 9 C 452.7 9 452.53 9.06 452.2 9.1 C 451.4 9.1 449.7 8.8 449.7 6.8 C 449.71 6.76 449.7 4.1 449.7 4.1 Z M 457.1 5.2 C 457.12 5.16 457.3 5.2 457.3 5.2 C 457.3 5.2 457.31 5.11 457.3 5.1 C 457.3 4.2 457 3.9 456.2 3.9 C 455.9 3.9 455.4 4 455.4 4.3 C 455.37 4.32 455.4 4.6 455.4 4.6 L 454 4.6 C 454 4.6 453.95 4 454 4 C 454 2.9 455.6 2.7 456.2 2.7 C 458.2 2.7 458.8 3.8 458.8 5.2 C 458.8 5.2 458.8 7.5 458.8 7.5 C 458.8 7.6 458.9 7.7 459.1 7.7 C 459.1 7.72 459.6 7.7 459.6 7.7 L 459.6 9 C 459.6 9 458.21 9 458.2 9 C 457.7 9 457.4 8.7 457.4 8.3 C 457.4 8.2 457.4 8.1 457.4 8.1 C 457.45 8.06 457.4 8.1 457.4 8.1 C 457.4 8.1 456.95 9.14 455.6 9.1 C 454.5 9.1 453.5 8.5 453.5 7.2 C 453.5 5.3 456.1 5.2 457.1 5.2 Z M 455.9 8 C 456.8 8 457.3 7.1 457.3 6.3 C 457.34 6.35 457.3 6.2 457.3 6.2 C 457.3 6.2 457.07 6.2 457.1 6.2 C 456.3 6.2 455 6.3 455 7.2 C 455 7.6 455.3 8 455.9 8 Z M 460.8 2 C 460.8 1.9 460.7 1.8 460.5 1.8 C 460.49 1.78 460 1.8 460 1.8 L 460 0.5 C 460 0.5 461.47 0.48 461.5 0.5 C 462 0.5 462.3 0.7 462.3 1.3 C 462.3 1.3 462.3 3.1 462.3 3.1 C 462.28 3.37 462.3 3.6 462.3 3.6 L 462.3 3.6 C 462.3 3.6 462.82 2.74 464.1 2.7 C 465.8 2.7 466.8 4 466.8 5.9 C 466.8 7.9 465.6 9.1 464 9.1 C 462.75 9.14 462.2 8.3 462.2 8.3 L 462.2 8.3 C 462.2 8.3 462.2 8.45 462.2 8.7 C 462.2 8.69 462.2 9 462.2 9 L 460.8 9 C 460.8 9 460.76 2.04 460.8 2 Z M 463.8 7.9 C 464.6 7.9 465.3 7.2 465.3 6 C 465.3 4.8 464.7 4 463.8 4 C 463 4 462.2 4.6 462.2 6 C 462.2 6.9 462.7 7.9 463.8 7.9 Z M 471 2.7 C 472.8 2.7 474.3 4.1 474.3 5.9 C 474.3 7.8 472.8 9.1 471 9.1 C 469.1 9.1 467.6 7.8 467.6 5.9 C 467.6 4.1 469.1 2.7 471 2.7 Z M 471 7.8 C 472 7.8 472.8 7.1 472.8 5.9 C 472.8 4.8 472 4 471 4 C 470 4 469.1 4.8 469.1 5.9 C 469.1 7.1 470 7.8 471 7.8 Z M 475.6 2 C 475.6 1.9 475.5 1.8 475.3 1.8 C 475.3 1.78 474.8 1.8 474.8 1.8 L 474.8 0.5 C 474.8 0.5 476.27 0.48 476.3 0.5 C 476.8 0.5 477.1 0.7 477.1 1.3 C 477.1 1.3 477.1 7.5 477.1 7.5 C 477.1 7.6 477.2 7.7 477.4 7.7 C 477.35 7.72 477.8 7.7 477.8 7.7 L 477.8 9 C 477.8 9 476.38 9 476.4 9 C 475.8 9 475.6 8.8 475.6 8.2 C 475.6 8.2 475.6 2 475.6 2 Z M 479.2 0.5 L 480.5 0.5 L 480.5 1.9 L 479.2 1.9 L 479.2 0.5 Z M 479.1 4.4 C 479.1 4.3 479 4.2 478.9 4.2 C 478.88 4.18 478.4 4.2 478.4 4.2 L 478.4 2.9 C 478.4 2.9 479.85 2.88 479.8 2.9 C 480.4 2.9 480.7 3.1 480.7 3.7 C 480.7 3.7 480.7 7.5 480.7 7.5 C 480.7 7.6 480.7 7.7 480.9 7.7 C 480.92 7.72 481.4 7.7 481.4 7.7 L 481.4 9 C 481.4 9 479.95 9 479.9 9 C 479.4 9 479.1 8.8 479.1 8.2 C 479.1 8.2 479.1 4.4 479.1 4.4 Z M 482.7 4.1 L 481.9 4.1 L 481.9 2.9 L 482.7 2.9 L 482.7 1.2 L 484.2 1.2 L 484.2 2.9 L 485.6 2.9 L 485.6 4.1 L 484.2 4.1 C 484.2 4.1 484.23 6.56 484.2 6.6 C 484.2 7.6 485 7.7 485.4 7.7 C 485.61 7.72 485.7 7.7 485.7 7.7 L 485.7 9 C 485.7 9 485.52 9.06 485.2 9.1 C 484.4 9.1 482.7 8.8 482.7 6.8 C 482.71 6.76 482.7 4.1 482.7 4.1 Z M 490.3 7.1 C 490.3 7.1 491.1 7.96 492.1 8 C 492.6 8 493 7.8 493 7.4 C 493 6.5 489.8 6.5 489.8 4.5 C 489.8 3.3 490.9 2.7 492.1 2.7 C 493 2.7 494.3 3 494.3 4 C 494.27 4.01 494.3 4.6 494.3 4.6 L 492.9 4.6 C 492.9 4.6 492.93 4.34 492.9 4.3 C 492.9 4.1 492.5 3.9 492.2 3.9 C 491.6 3.9 491.2 4.1 491.2 4.5 C 491.2 5.4 494.5 5.2 494.5 7.3 C 494.5 8.4 493.5 9.1 492.1 9.1 C 490.47 9.14 489.6 8.1 489.6 8.1 L 490.3 7.1 Z M 499 5.2 C 498.95 5.16 499.1 5.2 499.1 5.2 C 499.1 5.2 499.15 5.11 499.1 5.1 C 499.1 4.2 498.8 3.9 498 3.9 C 497.7 3.9 497.2 4 497.2 4.3 C 497.2 4.32 497.2 4.6 497.2 4.6 L 495.8 4.6 C 495.8 4.6 495.79 4 495.8 4 C 495.8 2.9 497.4 2.7 498 2.7 C 500.1 2.7 500.7 3.8 500.7 5.2 C 500.7 5.2 500.7 7.5 500.7 7.5 C 500.7 7.6 500.8 7.7 500.9 7.7 C 500.93 7.72 501.4 7.7 501.4 7.7 L 501.4 9 C 501.4 9 500.05 9 500 9 C 499.5 9 499.3 8.7 499.3 8.3 C 499.3 8.2 499.3 8.1 499.3 8.1 C 499.28 8.06 499.3 8.1 499.3 8.1 C 499.3 8.1 498.79 9.14 497.4 9.1 C 496.3 9.1 495.3 8.5 495.3 7.2 C 495.3 5.3 498 5.2 499 5.2 Z M 497.8 8 C 498.6 8 499.2 7.1 499.2 6.3 C 499.17 6.35 499.2 6.2 499.2 6.2 C 499.2 6.2 498.91 6.2 498.9 6.2 C 498.1 6.2 496.9 6.3 496.9 7.2 C 496.9 7.6 497.2 8 497.8 8 Z M 505.4 4.4 C 505.4 4.2 505.3 4.2 505.1 4.2 C 505.1 4.18 505 4.2 505 4.2 L 505 2.9 C 505 2.9 505.84 2.88 505.8 2.9 C 506.3 2.9 506.6 3 506.7 3.5 C 506.7 3.5 507.9 6.7 507.9 6.7 C 508.03 7.03 508.1 7.5 508.1 7.5 L 508.1 7.5 C 508.1 7.5 508.24 7.03 508.4 6.7 C 508.4 6.7 509.5 3.5 509.5 3.5 C 509.7 3 509.9 2.9 510.4 2.9 C 510.41 2.88 511.2 2.9 511.2 2.9 L 511.2 4.2 C 511.2 4.2 511.08 4.18 511.1 4.2 C 510.9 4.2 510.8 4.2 510.7 4.4 C 510.75 4.39 509 9 509 9 L 507.2 9 C 507.2 9 505.43 4.39 505.4 4.4 Z M 512.8 10.2 C 513.3 10.2 513.6 10 513.8 9.5 C 513.85 9.46 514 9 514 9 C 514 9 512.01 4.39 512 4.4 C 511.9 4.2 511.9 4.2 511.7 4.2 C 511.69 4.18 511.5 4.2 511.5 4.2 L 511.5 2.9 C 511.5 2.9 512.51 2.88 512.5 2.9 C 512.9 2.9 513.2 3 513.3 3.5 C 513.3 3.5 514.5 6.5 514.5 6.5 C 514.64 6.83 514.7 7.3 514.7 7.3 L 514.8 7.3 C 514.8 7.3 514.85 6.83 515 6.5 C 515 6.5 516 3.5 516 3.5 C 516.1 3 516.4 2.9 516.8 2.9 C 516.82 2.88 517.9 2.9 517.9 2.9 L 517.9 4.2 C 517.9 4.2 517.67 4.18 517.7 4.2 C 517.5 4.2 517.4 4.2 517.3 4.4 C 517.3 4.4 515.1 9.9 515.1 9.9 C 514.7 11 513.8 11.5 512.9 11.5 C 511.96 11.52 511.4 10.9 511.4 10.9 L 512 9.8 C 512 9.8 512.33 10.24 512.8 10.2 Z M 519 2 C 519 1.9 518.9 1.8 518.7 1.8 C 518.69 1.78 518.2 1.8 518.2 1.8 L 518.2 0.5 C 518.2 0.5 519.67 0.48 519.7 0.5 C 520.2 0.5 520.5 0.7 520.5 1.3 C 520.5 1.3 520.5 7.5 520.5 7.5 C 520.5 7.6 520.6 7.7 520.7 7.7 C 520.74 7.72 521.2 7.7 521.2 7.7 L 521.2 9 C 521.2 9 519.77 9 519.8 9 C 519.2 9 519 8.8 519 8.2 C 519 8.2 519 2 519 2 Z M 522.5 4.4 C 522.5 4.3 522.4 4.2 522.2 4.2 C 522.2 4.18 521.7 4.2 521.7 4.2 L 521.7 2.9 C 521.7 2.9 523.17 2.88 523.2 2.9 C 523.7 2.9 524 3.1 524 3.7 C 524 3.7 524 6.5 524 6.5 C 524 7.2 524.2 7.8 524.9 7.8 C 526 7.8 526.6 6.8 526.6 5.7 C 526.64 5.69 526.6 2.9 526.6 2.9 L 528.2 2.9 C 528.2 2.9 528.16 7.45 528.2 7.5 C 528.2 7.6 528.3 7.7 528.4 7.7 C 528.42 7.72 528.9 7.7 528.9 7.7 L 528.9 9 C 528.9 9 527.5 9 527.5 9 C 527 9 526.7 8.7 526.7 8.3 C 526.7 8.3 526.7 8.1 526.7 8.1 C 526.7 8 526.7 7.9 526.7 7.9 C 526.7 7.9 526.7 7.9 526.7 7.9 C 526.4 8.5 525.6 9.1 524.6 9.1 C 523.3 9.1 522.5 8.5 522.5 6.8 C 522.5 6.8 522.5 4.4 522.5 4.4 Z M 532.9 2.7 C 533.7 2.7 535.1 3.1 535.1 4.1 C 535.1 4.12 535.1 4.8 535.1 4.8 L 533.8 4.8 C 533.8 4.8 533.75 4.5 533.8 4.5 C 533.8 4.2 533.2 4 532.9 4 C 531.8 4 531.1 4.8 531.1 5.9 C 531.1 7.2 532 7.8 533 7.8 C 534.02 7.81 534.8 7 534.8 7 L 535.4 8 C 535.4 8 534.51 9.14 532.8 9.1 C 530.8 9.1 529.5 7.7 529.5 5.9 C 529.5 4.2 530.8 2.7 532.9 2.7 Z M 530.9 0.5 L 532 0.5 L 532.6 1.5 L 532.7 1.5 L 533.3 0.5 L 534.4 0.5 L 533.3 2.1 L 532 2.1 L 530.9 0.5 Z M 536.6 4.4 C 536.6 4.3 536.5 4.2 536.3 4.2 C 536.31 4.18 535.8 4.2 535.8 4.2 L 535.8 2.9 C 535.8 2.9 537.28 2.88 537.3 2.9 C 537.8 2.9 538.1 3.1 538.1 3.7 C 538.1 3.7 538.1 6.5 538.1 6.5 C 538.1 7.2 538.3 7.8 539 7.8 C 540.1 7.8 540.7 6.8 540.7 5.7 C 540.75 5.69 540.7 2.9 540.7 2.9 L 542.3 2.9 C 542.3 2.9 542.27 7.45 542.3 7.5 C 542.3 7.6 542.4 7.7 542.5 7.7 C 542.54 7.72 543 7.7 543 7.7 L 543 9 C 543 9 541.61 9 541.6 9 C 541.1 9 540.8 8.7 540.8 8.3 C 540.8 8.3 540.8 8.1 540.8 8.1 C 540.8 8 540.8 7.9 540.8 7.9 C 540.8 7.9 540.8 7.9 540.8 7.9 C 540.5 8.5 539.7 9.1 538.7 9.1 C 537.4 9.1 536.6 8.5 536.6 6.8 C 536.6 6.8 536.6 4.4 536.6 4.4 Z M 544.6 0.5 L 545.9 0.5 L 545.9 1.9 L 544.6 1.9 L 544.6 0.5 Z M 543.3 10.2 C 543.7 10.2 544.5 10.1 544.5 9.1 C 544.5 9.1 544.5 4.4 544.5 4.4 C 544.5 4.3 544.4 4.2 544.3 4.2 C 544.25 4.18 543.8 4.2 543.8 4.2 L 543.8 2.9 C 543.8 2.9 545.22 2.88 545.2 2.9 C 545.8 2.9 546 3.1 546 3.7 C 546 3.7 546 9.2 546 9.2 C 546 11.2 544.3 11.5 543.5 11.5 C 543.2 11.5 543 11.4 543 11.4 C 543.03 11.45 543 10.2 543 10.2 C 543 10.2 543.14 10.19 543.3 10.2 Z M 550.4 2.7 C 552.2 2.7 553.1 4 553.1 5.6 C 553.12 5.82 553.1 6.2 553.1 6.2 C 553.1 6.2 548.86 6.2 548.9 6.2 C 549 7.3 549.8 7.8 550.7 7.8 C 551.68 7.85 552.4 7.2 552.4 7.2 L 553 8.2 C 553 8.2 552.11 9.14 550.6 9.1 C 548.6 9.1 547.3 7.7 547.3 5.9 C 547.3 4.1 548.6 2.7 550.4 2.7 Z M 551.6 5.1 C 551.5 4.4 551 3.9 550.4 3.9 C 549.6 3.9 549.1 4.4 548.9 5.1 C 548.9 5.1 551.6 5.1 551.6 5.1 Z M 557.8 4.4 C 557.8 4.3 557.7 4.2 557.5 4.2 C 557.51 4.18 557 4.2 557 4.2 L 557 2.9 C 557 2.9 558.44 2.88 558.4 2.9 C 559 2.9 559.2 3.1 559.2 3.6 C 559.2 3.6 559.2 3.7 559.2 3.7 C 559.2 3.9 559.2 4 559.2 4 C 559.2 4 559.2 4 559.2 4 C 559.5 3.5 560.2 2.7 561.4 2.7 C 562.8 2.7 563.5 3.4 563.5 5.1 C 563.5 5.1 563.5 7.5 563.5 7.5 C 563.5 7.6 563.6 7.7 563.8 7.7 C 563.8 7.72 564.3 7.7 564.3 7.7 L 564.3 9 C 564.3 9 562.83 9 562.8 9 C 562.3 9 562 8.8 562 8.2 C 562 8.2 562 5.4 562 5.4 C 562 4.6 561.8 4.1 561.1 4.1 C 560.2 4.1 559.6 4.6 559.4 5.4 C 559.3 5.6 559.3 5.9 559.3 6.2 C 559.29 6.19 559.3 9 559.3 9 L 557.8 9 C 557.8 9 557.78 4.44 557.8 4.4 Z M 568.5 5.2 C 568.53 5.16 568.7 5.2 568.7 5.2 C 568.7 5.2 568.72 5.11 568.7 5.1 C 568.7 4.2 568.4 3.9 567.6 3.9 C 567.3 3.9 566.8 4 566.8 4.3 C 566.78 4.32 566.8 4.6 566.8 4.6 L 565.4 4.6 C 565.4 4.6 565.36 4 565.4 4 C 565.4 2.9 567 2.7 567.6 2.7 C 569.6 2.7 570.2 3.8 570.2 5.2 C 570.2 5.2 570.2 7.5 570.2 7.5 C 570.2 7.6 570.3 7.7 570.5 7.7 C 570.51 7.72 571 7.7 571 7.7 L 571 9 C 571 9 569.62 9 569.6 9 C 569.1 9 568.8 8.7 568.8 8.3 C 568.8 8.2 568.9 8.1 568.9 8.1 C 568.85 8.06 568.8 8.1 568.8 8.1 C 568.8 8.1 568.36 9.14 567 9.1 C 565.9 9.1 564.9 8.5 564.9 7.2 C 564.9 5.3 567.5 5.2 568.5 5.2 Z M 567.4 8 C 568.2 8 568.7 7.1 568.7 6.3 C 568.74 6.35 568.7 6.2 568.7 6.2 C 568.7 6.2 568.48 6.2 568.5 6.2 C 567.7 6.2 566.4 6.3 566.4 7.2 C 566.4 7.6 566.7 8 567.4 8 Z M 572.5 0.5 L 573.9 0.5 L 573.9 1.9 L 572.5 1.9 L 572.5 0.5 Z M 571.3 10.2 C 571.7 10.2 572.5 10.1 572.5 9.1 C 572.5 9.1 572.5 4.4 572.5 4.4 C 572.5 4.3 572.4 4.2 572.2 4.2 C 572.21 4.18 571.7 4.2 571.7 4.2 L 571.7 2.9 C 571.7 2.9 573.18 2.88 573.2 2.9 C 573.8 2.9 574 3.1 574 3.7 C 574 3.7 574 9.2 574 9.2 C 574 11.2 572.3 11.5 571.4 11.5 C 571.2 11.5 571 11.4 571 11.4 C 570.99 11.45 571 10.2 571 10.2 C 571 10.2 571.1 10.19 571.3 10.2 Z M 575.9 4.4 C 575.9 4.3 575.8 4.2 575.6 4.2 C 575.61 4.18 575.1 4.2 575.1 4.2 L 575.1 2.9 C 575.1 2.9 576.53 2.88 576.5 2.9 C 577.1 2.9 577.3 3.1 577.3 3.6 C 577.3 3.6 577.3 3.7 577.3 3.7 C 577.3 3.9 577.3 4 577.3 4 C 577.3 4 577.3 4 577.3 4 C 577.6 3.4 578.4 2.7 579.3 2.7 C 580.3 2.7 580.9 3.2 581.1 4 C 581.1 4 581.1 4 581.1 4 C 581.5 3.3 582.3 2.7 583.2 2.7 C 584.5 2.7 585.2 3.5 585.2 5.1 C 585.2 5.1 585.2 7.5 585.2 7.5 C 585.2 7.6 585.3 7.7 585.5 7.7 C 585.5 7.72 586 7.7 586 7.7 L 586 9 C 586 9 584.52 9 584.5 9 C 583.9 9 583.7 8.8 583.7 8.2 C 583.7 8.2 583.7 5.4 583.7 5.4 C 583.7 4.7 583.6 4.1 582.9 4.1 C 582.1 4.1 581.6 4.8 581.4 5.5 C 581.3 5.8 581.3 6 581.3 6.3 C 581.31 6.31 581.3 9 581.3 9 L 579.8 9 C 579.8 9 579.78 5.35 579.8 5.4 C 579.8 4.7 579.7 4.1 579 4.1 C 578.2 4.1 577.7 4.8 577.5 5.5 C 577.4 5.8 577.4 6 577.4 6.3 C 577.38 6.31 577.4 9 577.4 9 L 575.9 9 C 575.9 9 575.87 4.44 575.9 4.4 Z M 590.2 5.2 C 590.22 5.16 590.4 5.2 590.4 5.2 C 590.4 5.2 590.42 5.11 590.4 5.1 C 590.4 4.2 590.1 3.9 589.3 3.9 C 589 3.9 588.5 4 588.5 4.3 C 588.47 4.32 588.5 4.6 588.5 4.6 L 587.1 4.6 C 587.1 4.6 587.06 4 587.1 4 C 587.1 2.9 588.7 2.7 589.3 2.7 C 591.3 2.7 591.9 3.8 591.9 5.2 C 591.9 5.2 591.9 7.5 591.9 7.5 C 591.9 7.6 592 7.7 592.2 7.7 C 592.2 7.72 592.7 7.7 592.7 7.7 L 592.7 9 C 592.7 9 591.32 9 591.3 9 C 590.8 9 590.5 8.7 590.5 8.3 C 590.5 8.2 590.5 8.1 590.5 8.1 C 590.55 8.06 590.5 8.1 590.5 8.1 C 590.5 8.1 590.06 9.14 588.7 9.1 C 587.6 9.1 586.6 8.5 586.6 7.2 C 586.6 5.3 589.2 5.2 590.2 5.2 Z M 589 8 C 589.9 8 590.4 7.1 590.4 6.3 C 590.44 6.35 590.4 6.2 590.4 6.2 C 590.4 6.2 590.18 6.2 590.2 6.2 C 589.4 6.2 588.1 6.3 588.1 7.2 C 588.1 7.6 588.4 8 589 8 Z M 590 0.5 L 591.1 0.5 L 591.1 1.9 L 590 1.9 L 590 0.5 Z M 587.8 0.5 L 588.9 0.5 L 588.9 1.9 L 587.8 1.9 L 587.8 0.5 Z M 596.7 4.4 C 596.6 4.2 596.5 4.2 596.4 4.2 C 596.37 4.18 596.2 4.2 596.2 4.2 L 596.2 2.9 C 596.2 2.9 597.11 2.88 597.1 2.9 C 597.6 2.9 597.9 3 598 3.5 C 598 3.5 599.2 6.7 599.2 6.7 C 599.3 7.03 599.4 7.5 599.4 7.5 L 599.4 7.5 C 599.4 7.5 599.51 7.03 599.6 6.7 C 599.6 6.7 600.8 3.5 600.8 3.5 C 600.9 3 601.2 2.9 601.7 2.9 C 601.68 2.88 602.5 2.9 602.5 2.9 L 602.5 4.2 C 602.5 4.2 602.36 4.18 602.4 4.2 C 602.2 4.2 602.1 4.2 602 4.4 C 602.02 4.39 600.3 9 600.3 9 L 598.5 9 C 598.5 9 596.7 4.39 596.7 4.4 Z M 606.8 4.4 C 606.8 4.3 606.7 4.2 606.5 4.2 C 606.54 4.18 606.1 4.2 606.1 4.2 L 606.1 2.9 C 606.1 2.9 607.47 2.88 607.5 2.9 C 608 2.9 608.3 3.1 608.3 3.6 C 608.3 3.6 608.3 3.7 608.3 3.7 C 608.3 3.9 608.3 4 608.3 4 C 608.3 4 608.3 4 608.3 4 C 608.6 3.4 609.3 2.7 610.3 2.7 C 611.2 2.7 611.8 3.2 612.1 4 C 612.1 4 612.1 4 612.1 4 C 612.4 3.3 613.2 2.7 614.2 2.7 C 615.4 2.7 616.2 3.5 616.2 5.1 C 616.2 5.1 616.2 7.5 616.2 7.5 C 616.2 7.6 616.3 7.7 616.4 7.7 C 616.43 7.72 616.9 7.7 616.9 7.7 L 616.9 9 C 616.9 9 615.46 9 615.5 9 C 614.9 9 614.6 8.8 614.6 8.2 C 614.6 8.2 614.6 5.4 614.6 5.4 C 614.6 4.7 614.5 4.1 613.8 4.1 C 613 4.1 612.5 4.8 612.3 5.5 C 612.3 5.8 612.2 6 612.2 6.3 C 612.24 6.31 612.2 9 612.2 9 L 610.7 9 C 610.7 9 610.72 5.35 610.7 5.4 C 610.7 4.7 610.6 4.1 609.9 4.1 C 609.1 4.1 608.6 4.8 608.4 5.5 C 608.4 5.8 608.3 6 608.3 6.3 C 608.32 6.31 608.3 9 608.3 9 L 606.8 9 C 606.8 9 606.81 4.44 606.8 4.4 Z M 620.9 2.7 C 622.7 2.7 624.2 4.1 624.2 5.9 C 624.2 7.8 622.7 9.1 620.9 9.1 C 619 9.1 617.5 7.8 617.5 5.9 C 617.5 4.1 619 2.7 620.9 2.7 Z M 620.9 7.8 C 621.9 7.8 622.7 7.1 622.7 5.9 C 622.7 4.8 621.9 4 620.9 4 C 619.9 4 619 4.8 619 5.9 C 619 7.1 619.9 7.8 620.9 7.8 Z M 628.3 2.7 C 629.1 2.7 630.6 3.1 630.6 4.1 C 630.55 4.12 630.6 4.8 630.6 4.8 L 629.2 4.8 C 629.2 4.8 629.21 4.5 629.2 4.5 C 629.2 4.2 628.7 4 628.3 4 C 627.3 4 626.5 4.8 626.5 5.9 C 626.5 7.2 627.4 7.8 628.4 7.8 C 629.48 7.81 630.2 7 630.2 7 L 630.9 8 C 630.9 8 629.97 9.14 628.3 9.1 C 626.3 9.1 625 7.7 625 5.9 C 625 4.2 626.2 2.7 628.3 2.7 Z M 626.4 0.5 L 627.5 0.5 L 628.1 1.5 L 628.1 1.5 L 628.7 0.5 L 629.9 0.5 L 628.8 2.1 L 627.5 2.1 L 626.4 0.5 Z M 632.2 0.5 L 633.5 0.5 L 633.5 1.9 L 632.2 1.9 L 632.2 0.5 Z M 632.1 4.4 C 632.1 4.3 632 4.2 631.8 4.2 C 631.84 4.18 631.4 4.2 631.4 4.2 L 631.4 2.9 C 631.4 2.9 632.81 2.88 632.8 2.9 C 633.4 2.9 633.6 3.1 633.6 3.7 C 633.6 3.7 633.6 7.5 633.6 7.5 C 633.6 7.6 633.7 7.7 633.9 7.7 C 633.88 7.72 634.4 7.7 634.4 7.7 L 634.4 9 C 634.4 9 632.91 9 632.9 9 C 632.3 9 632.1 8.8 632.1 8.2 C 632.1 8.2 632.1 4.4 632.1 4.4 Z M 637.2 7.5 L 636 10.3 L 634.9 10.3 L 635.7 7.5 L 637.2 7.5 Z " stroke="none" fill="#000"/>  </g></svg>