<?xml version="1.0" standalone="no"?><!DOCTYPE svg PUBLIC "-//W3C//DTD SVG 1.1//EN" "http://www.w3.org/Graphics/SVG/1.1/DTD/svg11.dtd"><svg xmlns="http://www.w3.org/2000/svg" version="1.1" width="139px" height="30.5px" viewBox="0 -4 139 30.5" style="top:-4px">  <desc>NEST</desc>  <defs/>  <g id="Polygon67489">    <path d="M 47.8 12 C 47.8 12 48.57 11.95 48.6 12 C 48.8 12 49 11.8 49 11.6 C 48.97 11.56 49 0.8 49 0.8 L 50.6 0.8 C 50.6 0.8 56.26 8.84 56.3 8.8 C 56.72 9.52 57.3 10.6 57.3 10.6 L 57.4 10.6 C 57.4 10.6 57.23 9.56 57.2 8.8 C 57.2 8.8 57.2 1.9 57.2 1.9 C 57.2 1.1 57.6 0.8 58.4 0.8 C 58.4 0.79 60.2 0.8 60.2 0.8 L 60.2 2.3 C 60.2 2.3 59.42 2.34 59.4 2.3 C 59.2 2.3 59 2.5 59 2.7 C 59.03 2.74 59 13.5 59 13.5 L 57.4 13.5 C 57.4 13.5 51.74 5.45 51.7 5.5 C 51.27 4.77 50.7 3.7 50.7 3.7 L 50.7 3.7 C 50.7 3.7 50.77 4.75 50.8 5.5 C 50.8 5.5 50.8 12.3 50.8 12.3 C 50.8 13.2 50.4 13.5 49.6 13.5 C 49.61 13.5 47.8 13.5 47.8 13.5 L 47.8 12 Z M 62.7 2.3 L 61.6 2.3 L 61.6 0.8 C 61.6 0.8 69.03 0.79 69 0.8 C 69.8 0.8 70.2 1.1 70.2 1.9 C 70.19 1.94 70.2 3.5 70.2 3.5 L 68.5 3.5 C 68.5 3.5 68.55 2.74 68.5 2.7 C 68.5 2.5 68.4 2.3 68.2 2.3 C 68.15 2.34 64.5 2.3 64.5 2.3 L 64.5 6.3 L 69 6.3 L 69 7.9 L 64.5 7.9 C 64.5 7.9 64.53 11.56 64.5 11.6 C 64.5 11.8 64.7 12 64.9 12 C 64.9 12 68.6 12 68.6 12 C 68.9 12 69 11.8 69 11.6 C 69.03 11.56 69 10.7 69 10.7 L 70.7 10.7 C 70.7 10.7 70.69 12.35 70.7 12.3 C 70.7 13.2 70.3 13.5 69.5 13.5 C 69.5 13.5 63.9 13.5 63.9 13.5 C 63.1 13.5 62.7 13.2 62.7 12.3 C 62.73 12.35 62.7 2.3 62.7 2.3 Z M 72.8 10.5 C 72.8 10.5 74.07 12.08 76 12.1 C 77.2 12.1 78.1 11.4 78.1 10.2 C 78.1 7.5 72 7.9 72 4 C 72 2.1 73.7 0.6 76.1 0.6 C 77.4 0.6 79.7 1.2 79.7 2.9 C 79.69 2.92 79.7 4 79.7 4 L 78 4 C 78 4 78.03 3.37 78 3.4 C 78 2.7 77.1 2.2 76.1 2.2 C 74.7 2.2 73.8 3 73.8 3.9 C 73.8 6.5 80 5.9 80 10.1 C 80 12 78.4 13.7 75.9 13.7 C 73.23 13.72 71.7 11.8 71.7 11.8 L 72.8 10.5 Z M 85.5 2.3 C 85.5 2.3 82.97 2.34 83 2.3 C 82.7 2.3 82.6 2.5 82.6 2.7 C 82.57 2.74 82.6 3.5 82.6 3.5 L 81 3.5 C 81 3.5 80.97 1.87 81 1.9 C 81 1.1 81.2 0.8 82 0.8 C 82 0.8 90.8 0.8 90.8 0.8 C 91.6 0.8 91.9 1.1 91.9 1.9 C 91.88 1.87 91.9 3.5 91.9 3.5 L 90.3 3.5 C 90.3 3.5 90.27 2.74 90.3 2.7 C 90.3 2.5 90.1 2.3 89.9 2.3 C 89.88 2.34 87.3 2.3 87.3 2.3 L 87.3 13.5 L 85.5 13.5 L 85.5 2.3 Z " stroke="none" fill="#ee3078"/>  </g></svg>