<?xml version="1.0" standalone="no"?><!DOCTYPE svg PUBLIC "-//W3C//DTD SVG 1.1//EN" "http://www.w3.org/Graphics/SVG/1.1/DTD/svg11.dtd"><svg xmlns="http://www.w3.org/2000/svg" version="1.1" width="137.1px" height="49.5px" viewBox="0 -3 137.1 49.5" style="top:-3px">  <desc>Kosti1,5 Udr iava miner lnu hustotu kost</desc>  <defs/>  <g id="Polygon68229">    <path d="M 0.8 31.1 C 0.8 31 0.8 30.9 0.6 30.9 C 0.62 30.89 0.2 30.9 0.2 30.9 L 0.2 30.3 C 0.2 30.3 0.91 30.31 0.9 30.3 C 1.3 30.3 1.5 30.5 1.5 30.9 C 1.5 30.9 1.5 33 1.5 33 C 1.52 33.25 1.5 33.4 1.5 33.4 C 1.5 33.4 1.52 33.43 1.5 33.4 C 1.7 33 2.4 32.2 3.5 32.2 C 4.8 32.2 5.2 32.9 5.2 34.1 C 5.2 34.1 5.2 36.5 5.2 36.5 C 5.2 36.7 5.3 36.7 5.4 36.7 C 5.42 36.75 5.8 36.7 5.8 36.7 L 5.8 37.3 C 5.8 37.3 5.13 37.33 5.1 37.3 C 4.7 37.3 4.5 37.2 4.5 36.7 C 4.5 36.7 4.5 34.3 4.5 34.3 C 4.5 33.5 4.4 32.8 3.4 32.8 C 2.6 32.8 1.8 33.4 1.6 34.3 C 1.5 34.5 1.5 34.7 1.5 34.9 C 1.52 34.92 1.5 37.3 1.5 37.3 L 0.8 37.3 C 0.8 37.3 0.84 31.11 0.8 31.1 Z M 6.9 33.1 C 6.9 33 6.8 32.9 6.7 32.9 C 6.68 32.89 6.3 32.9 6.3 32.9 L 6.3 32.3 C 6.3 32.3 6.97 32.31 7 32.3 C 7.4 32.3 7.6 32.5 7.6 32.9 C 7.6 32.9 7.6 35.3 7.6 35.3 C 7.6 36.1 7.7 36.8 8.7 36.8 C 9.8 36.8 10.5 35.8 10.5 34.7 C 10.53 34.71 10.5 32.3 10.5 32.3 L 11.2 32.3 C 11.2 32.3 11.21 36.53 11.2 36.5 C 11.2 36.7 11.3 36.7 11.4 36.7 C 11.43 36.75 11.8 36.7 11.8 36.7 L 11.8 37.3 C 11.8 37.3 11.16 37.33 11.2 37.3 C 10.7 37.3 10.6 37.2 10.6 36.8 C 10.6 36.8 10.6 36.5 10.6 36.5 C 10.6 36.3 10.6 36.2 10.6 36.2 C 10.6 36.2 10.6 36.2 10.6 36.2 C 10.4 36.7 9.7 37.5 8.6 37.5 C 7.4 37.5 6.9 36.8 6.9 35.5 C 6.9 35.5 6.9 33.1 6.9 33.1 Z M 12.8 36.1 C 12.8 36.1 13.32 36.87 14.3 36.9 C 14.9 36.9 15.4 36.6 15.4 36.1 C 15.4 35 12.6 35.2 12.6 33.5 C 12.6 32.6 13.3 32.2 14.3 32.2 C 14.9 32.2 15.9 32.4 15.9 33.1 C 15.87 33.09 15.9 33.5 15.9 33.5 L 15.2 33.5 C 15.2 33.5 15.23 33.28 15.2 33.3 C 15.2 32.9 14.7 32.8 14.4 32.8 C 13.7 32.8 13.2 33 13.2 33.5 C 13.2 34.6 16.1 34.4 16.1 36 C 16.1 36.9 15.3 37.5 14.3 37.5 C 12.99 37.45 12.4 36.6 12.4 36.6 L 12.8 36.1 Z M 17.4 32.9 L 16.8 32.9 L 16.8 32.3 L 17.4 32.3 L 17.4 30.9 L 18.1 30.9 L 18.1 32.3 L 19.3 32.3 L 19.3 32.9 L 18.1 32.9 C 18.1 32.9 18.09 35.43 18.1 35.4 C 18.1 36.6 18.8 36.8 19.2 36.8 C 19.36 36.77 19.4 36.7 19.4 36.7 L 19.4 37.4 C 19.4 37.4 19.33 37.37 19.2 37.4 C 18.6 37.4 17.4 37.2 17.4 35.5 C 17.41 35.5 17.4 32.9 17.4 32.9 Z M 22.8 32.2 C 24.3 32.2 25.4 33.3 25.4 34.8 C 25.4 36.3 24.3 37.5 22.8 37.5 C 21.3 37.5 20.1 36.3 20.1 34.8 C 20.1 33.3 21.3 32.2 22.8 32.2 Z M 22.8 36.8 C 23.9 36.8 24.7 36 24.7 34.8 C 24.7 33.7 23.9 32.8 22.8 32.8 C 21.7 32.8 20.8 33.7 20.8 34.8 C 20.8 36 21.7 36.8 22.8 36.8 Z M 26.8 32.9 L 26.1 32.9 L 26.1 32.3 L 26.8 32.3 L 26.8 30.9 L 27.4 30.9 L 27.4 32.3 L 28.7 32.3 L 28.7 32.9 L 27.4 32.9 C 27.4 32.9 27.45 35.43 27.4 35.4 C 27.4 36.6 28.2 36.8 28.6 36.8 C 28.72 36.77 28.8 36.7 28.8 36.7 L 28.8 37.4 C 28.8 37.4 28.69 37.37 28.5 37.4 C 27.9 37.4 26.8 37.2 26.8 35.5 C 26.77 35.5 26.8 32.9 26.8 32.9 Z M 30 33.1 C 30 33 30 32.9 29.8 32.9 C 29.82 32.89 29.4 32.9 29.4 32.9 L 29.4 32.3 C 29.4 32.3 30.11 32.31 30.1 32.3 C 30.5 32.3 30.7 32.5 30.7 32.9 C 30.7 32.9 30.7 35.3 30.7 35.3 C 30.7 36.1 30.8 36.8 31.8 36.8 C 33 36.8 33.7 35.8 33.7 34.7 C 33.67 34.71 33.7 32.3 33.7 32.3 L 34.3 32.3 C 34.3 32.3 34.35 36.53 34.3 36.5 C 34.3 36.7 34.4 36.7 34.6 36.7 C 34.57 36.75 35 36.7 35 36.7 L 35 37.3 C 35 37.3 34.3 37.33 34.3 37.3 C 33.9 37.3 33.7 37.2 33.7 36.8 C 33.7 36.8 33.7 36.5 33.7 36.5 C 33.7 36.3 33.7 36.2 33.7 36.2 C 33.7 36.2 33.7 36.2 33.7 36.2 C 33.5 36.7 32.8 37.5 31.7 37.5 C 30.5 37.5 30 36.8 30 35.5 C 30 35.5 30 33.1 30 33.1 Z M 38.8 31.1 C 38.8 31 38.7 30.9 38.6 30.9 C 38.56 30.89 38.1 30.9 38.1 30.9 L 38.1 30.3 C 38.1 30.3 38.85 30.31 38.8 30.3 C 39.3 30.3 39.5 30.5 39.5 30.9 C 39.46 30.88 39.5 34.2 39.5 34.2 C 39.5 34.2 39.98 34.23 40 34.2 C 40.2 34.2 40.4 34.2 40.5 34 C 40.55 33.99 41.8 32.3 41.8 32.3 L 42.7 32.3 C 42.7 32.3 41.22 34.15 41.2 34.1 C 40.97 34.45 40.8 34.5 40.8 34.5 L 40.8 34.5 C 40.8 34.5 40.99 34.59 41.1 34.9 C 41.1 34.9 42.1 36.5 42.1 36.5 C 42.1 36.7 42.2 36.7 42.5 36.7 C 42.52 36.75 42.8 36.7 42.8 36.7 L 42.8 37.3 C 42.8 37.3 42.32 37.33 42.3 37.3 C 41.8 37.3 41.7 37.3 41.4 36.8 C 41.4 36.8 40.4 35 40.4 35 C 40.3 34.8 40.1 34.8 39.9 34.8 C 39.92 34.81 39.5 34.8 39.5 34.8 L 39.5 37.3 L 38.8 37.3 C 38.8 37.3 38.78 31.11 38.8 31.1 Z M 45.9 32.2 C 47.3 32.2 48.5 33.3 48.5 34.8 C 48.5 36.3 47.3 37.5 45.9 37.5 C 44.4 37.5 43.2 36.3 43.2 34.8 C 43.2 33.3 44.4 32.2 45.9 32.2 Z M 45.9 36.8 C 46.9 36.8 47.8 36 47.8 34.8 C 47.8 33.7 46.9 32.8 45.9 32.8 C 44.8 32.8 43.9 33.7 43.9 34.8 C 43.9 36 44.8 36.8 45.9 36.8 Z M 49.6 36.1 C 49.6 36.1 50.17 36.87 51.2 36.9 C 51.7 36.9 52.2 36.6 52.2 36.1 C 52.2 35 49.4 35.2 49.4 33.5 C 49.4 32.6 50.2 32.2 51.2 32.2 C 51.7 32.2 52.7 32.4 52.7 33.1 C 52.72 33.09 52.7 33.5 52.7 33.5 L 52.1 33.5 C 52.1 33.5 52.08 33.28 52.1 33.3 C 52.1 32.9 51.5 32.8 51.2 32.8 C 50.5 32.8 50.1 33 50.1 33.5 C 50.1 34.6 52.9 34.4 52.9 36 C 52.9 36.9 52.1 37.5 51.1 37.5 C 49.84 37.45 49.2 36.6 49.2 36.6 L 49.6 36.1 Z M 54.3 32.9 L 53.6 32.9 L 53.6 32.3 L 54.3 32.3 L 54.3 30.9 L 54.9 30.9 L 54.9 32.3 L 56.2 32.3 L 56.2 32.9 L 54.9 32.9 C 54.9 32.9 54.94 35.43 54.9 35.4 C 54.9 36.6 55.7 36.8 56.1 36.8 C 56.21 36.77 56.3 36.7 56.3 36.7 L 56.3 37.4 C 56.3 37.4 56.18 37.37 56 37.4 C 55.4 37.4 54.3 37.2 54.3 35.5 C 54.26 35.5 54.3 32.9 54.3 32.9 Z M 57.6 33.1 C 57.6 33 57.5 32.9 57.4 32.9 C 57.39 32.89 57 32.9 57 32.9 L 57 32.3 C 57 32.3 57.68 32.31 57.7 32.3 C 58.1 32.3 58.3 32.5 58.3 32.9 C 58.3 32.9 58.3 36.5 58.3 36.5 C 58.3 36.7 58.4 36.7 58.5 36.7 C 58.51 36.75 58.9 36.7 58.9 36.7 L 58.9 37.3 C 58.9 37.3 58.22 37.33 58.2 37.3 C 57.8 37.3 57.6 37.2 57.6 36.7 C 57.6 36.7 57.6 33.1 57.6 33.1 Z M 58.3 30.3 L 59 30.3 L 58.2 31.5 L 57.6 31.5 L 58.3 30.3 Z " stroke="none" fill="#000"/>  </g>  <g id="Polygon68228">    <path d="M 1 19.1 C 1 19 0.9 18.9 0.8 18.9 C 0.77 18.92 0.3 18.9 0.3 18.9 L 0.3 18.3 C 0.3 18.3 1.08 18.31 1.1 18.3 C 1.5 18.3 1.7 18.5 1.7 18.9 C 1.7 18.9 1.7 22.9 1.7 22.9 C 1.7 24.1 2.4 24.8 3.6 24.8 C 4.7 24.8 5.5 24.1 5.5 22.9 C 5.5 22.9 5.5 18.9 5.5 18.9 C 5.5 18.5 5.7 18.3 6.1 18.3 C 6.09 18.31 6.8 18.3 6.8 18.3 L 6.8 18.9 C 6.8 18.9 6.4 18.92 6.4 18.9 C 6.3 18.9 6.2 19 6.2 19.1 C 6.2 19.1 6.2 22.9 6.2 22.9 C 6.2 24.4 5.1 25.5 3.6 25.5 C 2 25.5 1 24.4 1 22.9 C 1 22.9 1 19.1 1 19.1 Z M 9.8 20.2 C 11.07 20.19 11.5 21.1 11.5 21.1 L 11.5 21.1 C 11.5 21.1 11.49 20.95 11.5 20.7 C 11.5 20.7 11.5 19.1 11.5 19.1 C 11.5 19 11.4 18.9 11.3 18.9 C 11.27 18.89 10.9 18.9 10.9 18.9 L 10.9 18.3 C 10.9 18.3 11.56 18.31 11.6 18.3 C 12 18.3 12.2 18.5 12.2 18.9 C 12.2 18.9 12.2 24.5 12.2 24.5 C 12.2 24.7 12.2 24.7 12.4 24.7 C 12.39 24.75 12.8 24.7 12.8 24.7 L 12.8 25.3 C 12.8 25.3 12.11 25.33 12.1 25.3 C 11.7 25.3 11.5 25.1 11.5 24.8 C 11.5 24.6 11.5 24.5 11.5 24.5 C 11.53 24.46 11.5 24.5 11.5 24.5 C 11.5 24.5 11.1 25.45 9.8 25.5 C 8.4 25.5 7.6 24.4 7.6 22.8 C 7.6 21.2 8.5 20.2 9.8 20.2 Z M 11.5 22.8 C 11.5 21.8 11 20.8 9.9 20.8 C 9 20.8 8.3 21.5 8.3 22.8 C 8.3 24.1 8.9 24.8 9.9 24.8 C 10.7 24.8 11.5 24.2 11.5 22.8 Z M 13.9 21.1 C 13.9 21 13.8 20.9 13.7 20.9 C 13.7 20.89 13.3 20.9 13.3 20.9 L 13.3 20.3 C 13.3 20.3 13.98 20.31 14 20.3 C 14.4 20.3 14.6 20.5 14.6 20.9 C 14.6 20.9 14.6 21.2 14.6 21.2 C 14.59 21.42 14.6 21.6 14.6 21.6 C 14.6 21.6 14.59 21.59 14.6 21.6 C 14.8 20.8 15.4 20.3 16.2 20.3 C 16.3 20.3 16.4 20.3 16.4 20.3 C 16.45 20.29 16.4 21 16.4 21 C 16.4 21 16.33 20.93 16.2 20.9 C 15.5 20.9 15 21.5 14.7 22.2 C 14.6 22.6 14.6 22.9 14.6 23.2 C 14.6 23.21 14.6 25.3 14.6 25.3 L 13.9 25.3 C 13.9 25.3 13.92 21.11 13.9 21.1 Z M 17.1 24.9 C 17.1 24.9 19.89 21.36 19.9 21.4 C 20.08 21.12 20.3 20.9 20.3 20.9 L 20.3 20.9 C 20.3 20.9 20.12 20.9 19.8 20.9 C 19.8 20.9 17.9 20.9 17.9 20.9 C 17.8 20.9 17.7 21 17.7 21.1 C 17.73 21.12 17.7 21.5 17.7 21.5 L 17.1 21.5 C 17.1 21.5 17.09 20.91 17.1 20.9 C 17.1 20.5 17.3 20.3 17.7 20.3 C 17.7 20.31 21.2 20.3 21.2 20.3 L 21.2 20.8 C 21.2 20.8 18.37 24.28 18.4 24.3 C 18.17 24.52 17.9 24.7 17.9 24.7 L 17.9 24.8 C 17.9 24.8 18.13 24.74 18.5 24.7 C 18.5 24.7 20.5 24.7 20.5 24.7 C 20.7 24.7 20.8 24.7 20.8 24.5 C 20.76 24.52 20.8 24.1 20.8 24.1 L 21.4 24.1 C 21.4 24.1 21.4 24.73 21.4 24.7 C 21.4 25.2 21.2 25.3 20.8 25.3 C 20.79 25.33 17.1 25.3 17.1 25.3 L 17.1 24.9 Z M 18.1 18.3 L 18.7 18.3 L 19.2 19.1 L 19.3 19.1 L 19.8 18.3 L 20.4 18.3 L 19.6 19.5 L 18.9 19.5 L 18.1 18.3 Z M 22.6 18.3 L 23.2 18.3 L 23.2 19.2 L 22.6 19.2 L 22.6 18.3 Z M 22.6 21.1 C 22.6 21 22.5 20.9 22.4 20.9 C 22.36 20.89 21.9 20.9 21.9 20.9 L 21.9 20.3 C 21.9 20.3 22.65 20.31 22.7 20.3 C 23.1 20.3 23.3 20.5 23.3 20.9 C 23.3 20.9 23.3 24.5 23.3 24.5 C 23.3 24.7 23.3 24.7 23.5 24.7 C 23.48 24.75 23.9 24.7 23.9 24.7 L 23.9 25.3 C 23.9 25.3 23.19 25.33 23.2 25.3 C 22.8 25.3 22.6 25.2 22.6 24.7 C 22.6 24.7 22.6 21.1 22.6 21.1 Z M 27.7 22.2 C 27.65 22.24 27.9 22.2 27.9 22.2 C 27.9 22.2 27.93 22.18 27.9 22.2 C 27.9 21.1 27.6 20.8 26.6 20.8 C 26.4 20.8 25.6 20.8 25.6 21.2 C 25.65 21.19 25.6 21.5 25.6 21.5 L 25 21.5 C 25 21.5 25 21.03 25 21 C 25 20.3 26.2 20.2 26.6 20.2 C 28.2 20.2 28.6 21 28.6 22.1 C 28.6 22.1 28.6 24.5 28.6 24.5 C 28.6 24.7 28.7 24.7 28.8 24.7 C 28.83 24.75 29.2 24.7 29.2 24.7 L 29.2 25.3 C 29.2 25.3 28.56 25.33 28.6 25.3 C 28.1 25.3 28 25.1 28 24.7 C 28 24.5 28 24.4 28 24.4 C 28 24.4 28 24.4 28 24.4 C 28 24.4 27.5 25.5 26.3 25.5 C 25.4 25.5 24.6 25 24.6 24 C 24.6 22.3 26.8 22.2 27.7 22.2 Z M 26.4 24.9 C 27.4 24.9 27.9 23.9 27.9 23 C 27.93 23 27.9 22.8 27.9 22.8 C 27.9 22.8 27.64 22.77 27.6 22.8 C 26.8 22.8 25.3 22.8 25.3 23.9 C 25.3 24.4 25.6 24.9 26.4 24.9 Z M 29.9 21.1 C 29.9 20.9 29.8 20.9 29.6 20.9 C 29.57 20.89 29.5 20.9 29.5 20.9 L 29.5 20.3 C 29.5 20.3 29.75 20.31 29.8 20.3 C 30.2 20.3 30.4 20.4 30.6 20.9 C 30.6 20.9 31.8 24 31.8 24 C 31.85 24.25 31.9 24.6 31.9 24.6 L 31.9 24.6 C 31.9 24.6 32.03 24.25 32.1 24 C 32.1 24 33.3 20.9 33.3 20.9 C 33.5 20.4 33.6 20.3 34.1 20.3 C 34.12 20.31 34.4 20.3 34.4 20.3 L 34.4 20.9 C 34.4 20.9 34.29 20.89 34.3 20.9 C 34.1 20.9 34 20.9 33.9 21.1 C 33.94 21.12 32.3 25.3 32.3 25.3 L 31.6 25.3 C 31.6 25.3 29.92 21.12 29.9 21.1 Z M 38 22.2 C 37.95 22.24 38.2 22.2 38.2 22.2 C 38.2 22.2 38.23 22.18 38.2 22.2 C 38.2 21.1 37.9 20.8 36.9 20.8 C 36.7 20.8 35.9 20.8 35.9 21.2 C 35.95 21.19 35.9 21.5 35.9 21.5 L 35.3 21.5 C 35.3 21.5 35.3 21.03 35.3 21 C 35.3 20.3 36.5 20.2 36.9 20.2 C 38.5 20.2 38.9 21 38.9 22.1 C 38.9 22.1 38.9 24.5 38.9 24.5 C 38.9 24.7 39 24.7 39.1 24.7 C 39.13 24.75 39.5 24.7 39.5 24.7 L 39.5 25.3 C 39.5 25.3 38.86 25.33 38.9 25.3 C 38.4 25.3 38.3 25.1 38.3 24.7 C 38.3 24.5 38.3 24.4 38.3 24.4 C 38.3 24.4 38.3 24.4 38.3 24.4 C 38.3 24.4 37.8 25.5 36.6 25.5 C 35.7 25.5 34.9 25 34.9 24 C 34.9 22.3 37.1 22.2 38 22.2 Z M 36.7 24.9 C 37.7 24.9 38.2 23.9 38.2 23 C 38.23 23 38.2 22.8 38.2 22.8 C 38.2 22.8 37.94 22.77 37.9 22.8 C 37.1 22.8 35.6 22.8 35.6 23.9 C 35.6 24.4 35.9 24.9 36.7 24.9 Z M 43.4 21.1 C 43.4 21 43.3 20.9 43.1 20.9 C 43.13 20.89 42.7 20.9 42.7 20.9 L 42.7 20.3 C 42.7 20.3 43.41 20.31 43.4 20.3 C 43.8 20.3 44 20.5 44 20.9 C 44 20.9 44 21.1 44 21.1 C 44.02 21.29 44 21.5 44 21.5 C 44 21.5 44.02 21.45 44 21.5 C 44.3 20.8 45.1 20.2 45.8 20.2 C 46.8 20.2 47.2 20.6 47.4 21.4 C 47.4 21.4 47.4 21.4 47.4 21.4 C 47.7 20.8 48.4 20.2 49.3 20.2 C 50.5 20.2 50.9 20.9 50.9 22.1 C 50.9 22.1 50.9 24.5 50.9 24.5 C 50.9 24.7 51 24.7 51.2 24.7 C 51.16 24.75 51.6 24.7 51.6 24.7 L 51.6 25.3 C 51.6 25.3 50.87 25.33 50.9 25.3 C 50.4 25.3 50.3 25.2 50.3 24.7 C 50.3 24.7 50.3 22.3 50.3 22.3 C 50.3 21.5 50.1 20.8 49.2 20.8 C 48.4 20.8 47.8 21.5 47.6 22.2 C 47.5 22.4 47.5 22.7 47.5 23 C 47.49 22.95 47.5 25.3 47.5 25.3 L 46.8 25.3 C 46.8 25.3 46.81 22.3 46.8 22.3 C 46.8 21.5 46.7 20.8 45.7 20.8 C 44.9 20.8 44.3 21.5 44.1 22.3 C 44 22.5 44 22.7 44 23 C 44.03 22.95 44 25.3 44 25.3 L 43.4 25.3 C 43.4 25.3 43.35 21.11 43.4 21.1 Z M 52.7 18.3 L 53.3 18.3 L 53.3 19.2 L 52.7 19.2 L 52.7 18.3 Z M 52.7 21.1 C 52.7 21 52.6 20.9 52.5 20.9 C 52.49 20.89 52.1 20.9 52.1 20.9 L 52.1 20.3 C 52.1 20.3 52.78 20.31 52.8 20.3 C 53.2 20.3 53.4 20.5 53.4 20.9 C 53.4 20.9 53.4 24.5 53.4 24.5 C 53.4 24.7 53.5 24.7 53.6 24.7 C 53.61 24.75 54 24.7 54 24.7 L 54 25.3 C 54 25.3 53.32 25.33 53.3 25.3 C 52.9 25.3 52.7 25.2 52.7 24.7 C 52.7 24.7 52.7 21.1 52.7 21.1 Z M 55.2 21.1 C 55.2 21 55.1 20.9 55 20.9 C 54.95 20.89 54.5 20.9 54.5 20.9 L 54.5 20.3 C 54.5 20.3 55.23 20.31 55.2 20.3 C 55.6 20.3 55.8 20.5 55.8 20.9 C 55.8 20.9 55.8 21.1 55.8 21.1 C 55.84 21.29 55.8 21.5 55.8 21.5 C 55.8 21.5 55.84 21.45 55.8 21.5 C 56 21 56.7 20.2 57.8 20.2 C 59.1 20.2 59.5 20.9 59.5 22.1 C 59.5 22.1 59.5 24.5 59.5 24.5 C 59.5 24.7 59.6 24.7 59.7 24.7 C 59.75 24.75 60.2 24.7 60.2 24.7 L 60.2 25.3 C 60.2 25.3 59.46 25.33 59.5 25.3 C 59 25.3 58.9 25.2 58.9 24.7 C 58.9 24.7 58.9 22.3 58.9 22.3 C 58.9 21.5 58.7 20.8 57.8 20.8 C 56.9 20.8 56.2 21.4 55.9 22.2 C 55.9 22.5 55.8 22.7 55.8 22.9 C 55.85 22.92 55.8 25.3 55.8 25.3 L 55.2 25.3 C 55.2 25.3 55.17 21.11 55.2 21.1 Z M 63.3 20.2 C 64.6 20.2 65.4 21.3 65.4 22.5 C 65.37 22.62 65.3 22.8 65.3 22.8 C 65.3 22.8 61.49 22.84 61.5 22.8 C 61.5 24.1 62.4 24.8 63.4 24.8 C 64.36 24.85 64.9 24.2 64.9 24.2 L 65.3 24.7 C 65.3 24.7 64.55 25.45 63.4 25.5 C 61.9 25.5 60.8 24.4 60.8 22.8 C 60.8 21.2 61.9 20.2 63.3 20.2 Z M 64.7 22.3 C 64.6 21.3 64 20.8 63.2 20.8 C 62.4 20.8 61.7 21.3 61.5 22.3 C 61.5 22.3 64.7 22.3 64.7 22.3 Z M 66.7 21.1 C 66.7 21 66.6 20.9 66.5 20.9 C 66.51 20.89 66.1 20.9 66.1 20.9 L 66.1 20.3 C 66.1 20.3 66.79 20.31 66.8 20.3 C 67.2 20.3 67.4 20.5 67.4 20.9 C 67.4 20.9 67.4 21.2 67.4 21.2 C 67.4 21.42 67.4 21.6 67.4 21.6 C 67.4 21.6 67.4 21.59 67.4 21.6 C 67.6 20.8 68.2 20.3 69 20.3 C 69.1 20.3 69.3 20.3 69.3 20.3 C 69.26 20.29 69.3 21 69.3 21 C 69.3 21 69.14 20.93 69 20.9 C 68.3 20.9 67.8 21.5 67.5 22.2 C 67.4 22.6 67.4 22.9 67.4 23.2 C 67.41 23.21 67.4 25.3 67.4 25.3 L 66.7 25.3 C 66.7 25.3 66.73 21.11 66.7 21.1 Z M 72.6 22.2 C 72.63 22.24 72.9 22.2 72.9 22.2 C 72.9 22.2 72.91 22.18 72.9 22.2 C 72.9 21.1 72.5 20.8 71.6 20.8 C 71.4 20.8 70.6 20.8 70.6 21.2 C 70.63 21.19 70.6 21.5 70.6 21.5 L 70 21.5 C 70 21.5 69.98 21.03 70 21 C 70 20.3 71.2 20.2 71.6 20.2 C 73.2 20.2 73.6 21 73.6 22.1 C 73.6 22.1 73.6 24.5 73.6 24.5 C 73.6 24.7 73.7 24.7 73.8 24.7 C 73.81 24.75 74.2 24.7 74.2 24.7 L 74.2 25.3 C 74.2 25.3 73.54 25.33 73.5 25.3 C 73.1 25.3 72.9 25.1 72.9 24.7 C 72.9 24.5 72.9 24.4 72.9 24.4 C 72.9 24.4 72.9 24.4 72.9 24.4 C 72.9 24.4 72.5 25.5 71.3 25.5 C 70.4 25.5 69.5 25 69.5 24 C 69.5 22.3 71.8 22.2 72.6 22.2 Z M 71.4 24.9 C 72.3 24.9 72.9 23.9 72.9 23 C 72.91 23 72.9 22.8 72.9 22.8 C 72.9 22.8 72.62 22.77 72.6 22.8 C 71.8 22.8 70.2 22.8 70.2 23.9 C 70.2 24.4 70.6 24.9 71.4 24.9 Z M 72.1 18.3 L 72.9 18.3 L 72 19.5 L 71.4 19.5 L 72.1 18.3 Z M 75.3 19.1 C 75.3 19 75.2 18.9 75.1 18.9 C 75.08 18.89 74.7 18.9 74.7 18.9 L 74.7 18.3 C 74.7 18.3 75.37 18.31 75.4 18.3 C 75.8 18.3 76 18.5 76 18.9 C 76 18.9 76 24.5 76 24.5 C 76 24.7 76.1 24.7 76.2 24.7 C 76.2 24.75 76.6 24.7 76.6 24.7 L 76.6 25.3 C 76.6 25.3 75.91 25.33 75.9 25.3 C 75.5 25.3 75.3 25.2 75.3 24.7 C 75.3 24.7 75.3 19.1 75.3 19.1 Z M 77.8 21.1 C 77.8 21 77.7 20.9 77.5 20.9 C 77.54 20.89 77.1 20.9 77.1 20.9 L 77.1 20.3 C 77.1 20.3 77.82 20.31 77.8 20.3 C 78.2 20.3 78.4 20.5 78.4 20.9 C 78.4 20.9 78.4 21.1 78.4 21.1 C 78.43 21.29 78.4 21.5 78.4 21.5 C 78.4 21.5 78.43 21.45 78.4 21.5 C 78.6 21 79.2 20.2 80.4 20.2 C 81.7 20.2 82.1 20.9 82.1 22.1 C 82.1 22.1 82.1 24.5 82.1 24.5 C 82.1 24.7 82.2 24.7 82.3 24.7 C 82.34 24.75 82.8 24.7 82.8 24.7 L 82.8 25.3 C 82.8 25.3 82.05 25.33 82 25.3 C 81.6 25.3 81.4 25.2 81.4 24.7 C 81.4 24.7 81.4 22.3 81.4 22.3 C 81.4 21.5 81.3 20.8 80.3 20.8 C 79.5 20.8 78.7 21.4 78.5 22.2 C 78.5 22.5 78.4 22.7 78.4 22.9 C 78.44 22.92 78.4 25.3 78.4 25.3 L 77.8 25.3 C 77.8 25.3 77.76 21.11 77.8 21.1 Z M 83.8 21.1 C 83.8 21 83.7 20.9 83.6 20.9 C 83.6 20.89 83.2 20.9 83.2 20.9 L 83.2 20.3 C 83.2 20.3 83.89 20.31 83.9 20.3 C 84.3 20.3 84.5 20.5 84.5 20.9 C 84.5 20.9 84.5 23.3 84.5 23.3 C 84.5 24.1 84.6 24.8 85.6 24.8 C 86.7 24.8 87.4 23.8 87.4 22.7 C 87.45 22.71 87.4 20.3 87.4 20.3 L 88.1 20.3 C 88.1 20.3 88.13 24.53 88.1 24.5 C 88.1 24.7 88.2 24.7 88.3 24.7 C 88.35 24.75 88.8 24.7 88.8 24.7 L 88.8 25.3 C 88.8 25.3 88.08 25.33 88.1 25.3 C 87.7 25.3 87.5 25.2 87.5 24.8 C 87.5 24.8 87.5 24.5 87.5 24.5 C 87.5 24.3 87.5 24.2 87.5 24.2 C 87.5 24.2 87.5 24.2 87.5 24.2 C 87.3 24.7 86.6 25.5 85.5 25.5 C 84.3 25.5 83.8 24.8 83.8 23.5 C 83.8 23.5 83.8 21.1 83.8 21.1 Z " stroke="none" fill="#000"/>  </g>  <g id="Polygon68227">    <path d="M 1.4 2.4 C 1.4 2.2 1.3 2.1 1.1 2.1 C 1.08 2.11 0.5 2.1 0.5 2.1 L 0.5 0.6 C 0.5 0.6 2.27 0.56 2.3 0.6 C 2.9 0.6 3.2 0.9 3.2 1.5 C 3.22 1.51 3.2 4.6 3.2 4.6 C 3.2 4.6 3.92 4.61 3.9 4.6 C 4.3 4.6 4.5 4.6 4.7 4.3 C 4.72 4.28 6.7 0.6 6.7 0.6 L 8.7 0.6 C 8.7 0.6 6.5 4.65 6.5 4.6 C 6.19 5.21 5.9 5.4 5.9 5.4 L 5.9 5.4 C 5.9 5.4 6.2 5.49 6.5 6.1 C 6.5 6.1 7.8 8.6 7.8 8.6 C 7.9 8.9 8.1 8.9 8.5 8.9 C 8.47 8.95 8.7 8.9 8.7 8.9 L 8.7 10.5 C 8.7 10.5 7.69 10.5 7.7 10.5 C 6.9 10.5 6.6 10.4 6.3 9.8 C 6.3 9.8 4.7 6.5 4.7 6.5 C 4.5 6.2 4.2 6.2 3.8 6.2 C 3.81 6.16 3.2 6.2 3.2 6.2 L 3.2 10.5 L 1.4 10.5 C 1.4 10.5 1.39 2.42 1.4 2.4 Z M 13.1 3.2 C 15.3 3.2 17 4.7 17 6.9 C 17 9.1 15.3 10.7 13.1 10.7 C 10.9 10.7 9.2 9.1 9.2 6.9 C 9.2 4.7 10.9 3.2 13.1 3.2 Z M 13.1 9.2 C 14.3 9.2 15.2 8.3 15.2 6.9 C 15.2 5.6 14.3 4.7 13.1 4.7 C 12 4.7 11 5.6 11 6.9 C 11 8.3 12 9.2 13.1 9.2 Z M 18.7 8.2 C 18.7 8.2 19.57 9.28 20.8 9.3 C 21.3 9.3 21.8 9.1 21.8 8.6 C 21.8 7.6 18 7.6 18 5.3 C 18 3.9 19.3 3.2 20.8 3.2 C 21.7 3.2 23.3 3.5 23.3 4.7 C 23.27 4.68 23.3 5.4 23.3 5.4 L 21.7 5.4 C 21.7 5.4 21.7 5.07 21.7 5.1 C 21.7 4.7 21.2 4.6 20.8 4.6 C 20.2 4.6 19.7 4.8 19.7 5.2 C 19.7 6.3 23.5 6.1 23.5 8.5 C 23.5 9.8 22.3 10.7 20.8 10.7 C 18.83 10.67 17.8 9.4 17.8 9.4 L 18.7 8.2 Z M 25.2 4.8 L 24.3 4.8 L 24.3 3.4 L 25.3 3.4 L 25.3 1.4 L 27 1.4 L 27 3.4 L 28.6 3.4 L 28.6 4.8 L 27 4.8 C 27 4.8 26.99 7.66 27 7.7 C 27 8.8 27.9 9 28.4 9 C 28.6 9 28.7 9 28.7 9 L 28.7 10.5 C 28.7 10.5 28.5 10.57 28.2 10.6 C 27.2 10.6 25.2 10.3 25.2 7.9 C 25.21 7.88 25.2 4.8 25.2 4.8 Z M 30.5 0.6 L 32 0.6 L 32 2.2 L 30.5 2.2 L 30.5 0.6 Z M 30.4 5.2 C 30.4 5 30.3 4.9 30.1 4.9 C 30.11 4.87 29.6 4.9 29.6 4.9 L 29.6 3.4 C 29.6 3.4 31.25 3.36 31.2 3.4 C 31.9 3.4 32.2 3.7 32.2 4.3 C 32.2 4.3 32.2 8.7 32.2 8.7 C 32.2 8.9 32.3 9 32.5 9 C 32.49 9 33.1 9 33.1 9 L 33.1 10.5 C 33.1 10.5 31.36 10.5 31.4 10.5 C 30.7 10.5 30.4 10.2 30.4 9.5 C 30.4 9.5 30.4 5.2 30.4 5.2 Z M 33.9 4.9 L 35.2 4.9 C 35.2 4.9 35.16 1.72 35.2 1.7 C 35.16 1.52 35.2 1.3 35.2 1.3 L 35.2 1.3 C 35.2 1.3 35.09 1.46 34.9 1.7 C 34.9 1.65 34.4 2.1 34.4 2.1 L 33.8 1.4 L 35.3 0 L 36.2 0 L 36.2 4.9 L 37.5 4.9 L 37.5 5.8 L 33.9 5.8 L 33.9 4.9 Z M 39.5 4.8 L 38.7 6.7 L 37.9 6.7 L 38.5 4.8 L 39.5 4.8 Z M 40.8 4.3 C 40.8 4.3 41.32 4.94 42.2 4.9 C 42.8 4.9 43.2 4.5 43.2 4 C 43.2 3.3 42.6 3 42 3 C 41.35 2.99 40.9 3.3 40.9 3.3 L 40.5 3.1 C 40.5 3.1 40.73 0.6 40.7 0.6 C 40.8 0.2 40.9 0 41.3 0 C 41.3 0 43.4 0 43.4 0 C 43.8 0 44 0.2 44 0.6 C 43.97 0.6 44 1.5 44 1.5 L 43 1.5 C 43 1.5 43 1.13 43 1.1 C 43 1 42.9 0.9 42.8 0.9 C 42.8 0.9 41.9 0.9 41.9 0.9 C 41.7 0.9 41.7 1 41.7 1.1 C 41.7 1.1 41.6 1.9 41.6 1.9 C 41.59 2.08 41.6 2.2 41.6 2.2 L 41.6 2.2 C 41.6 2.2 41.85 2.09 42.2 2.1 C 43.5 2.1 44.3 2.9 44.3 4 C 44.3 5 43.5 5.9 42.2 5.9 C 40.95 5.94 40.3 5.1 40.3 5.1 L 40.8 4.3 Z " stroke="none" fill="#5f0f50"/>  </g></svg>