<?xml version="1.0" standalone="no"?><!DOCTYPE svg PUBLIC "-//W3C//DTD SVG 1.1//EN" "http://www.w3.org/Graphics/SVG/1.1/DTD/svg11.dtd"><svg xmlns="http://www.w3.org/2000/svg" version="1.1" width="44px" height="19.5px" viewBox="0 -1 44 19.5" style="top:-1px">  <desc>45.2%</desc>  <defs/>  <g id="Polygon79428">    <path d="M 7.9 10 L 7.9 9.9 L 10.6 4 L 10.7 4 L 11.5 4.1 L 11.5 4.2 L 8.8 9.7 L 8.8 9.7 L 11.5 9.7 L 11.7 6.8 L 12.4 6.8 L 12.4 9.7 L 13.4 9.7 L 13.4 10.5 L 12.4 10.5 L 12.4 12.5 L 11.5 12.5 L 11.5 10.5 L 8.1 10.5 L 7.9 10 Z M 15.6 12.6 C 15.1 12.6 14.7 12.6 14.1 12.4 C 14.15 12.44 14.1 11.7 14.1 11.7 C 14.1 11.7 14.35 11.69 14.4 11.7 C 14.8 11.8 15.2 11.8 15.5 11.8 C 16.7 11.8 17.4 11.2 17.4 10 C 17.4 9.7 17.3 9.5 17.2 9.2 C 17.1 9 17 8.8 16.8 8.7 C 16.6 8.6 16.4 8.5 16.1 8.4 C 15.8 8.3 15.4 8.3 15 8.3 C 15.03 8.31 14.3 8.3 14.3 8.3 L 14.3 8.2 L 14.6 4.1 L 17.9 4.1 L 17.9 4.9 L 15.3 4.9 C 15.3 4.9 15.11 7.59 15.1 7.6 C 15.7 7.6 16.2 7.6 16.6 7.7 C 17 7.8 17.3 8 17.5 8.2 C 17.8 8.4 18 8.6 18.1 8.9 C 18.2 9.2 18.3 9.6 18.3 10 C 18.3 10.9 18 11.5 17.6 12 C 17.1 12.4 16.4 12.6 15.6 12.6 Z M 20.5 11.9 C 20.5 12.3 20.3 12.5 19.9 12.5 C 19.5 12.5 19.3 12.3 19.3 11.9 C 19.3 11.6 19.5 11.4 19.9 11.4 C 20.1 11.4 20.3 11.4 20.4 11.5 C 20.5 11.6 20.5 11.7 20.5 11.9 C 20.5 11.9 20.5 11.9 20.5 11.9 Z M 21.6 11.3 C 21.6 11 21.6 10.7 21.7 10.4 C 21.8 10.1 21.9 9.9 22.1 9.6 C 22.2 9.3 22.4 9.1 22.7 8.9 C 22.9 8.6 23.2 8.4 23.6 8.2 C 24.1 7.8 24.5 7.5 24.7 7.2 C 24.9 6.9 25.1 6.5 25.1 6.1 C 25.1 5.2 24.5 4.8 23.5 4.8 C 23.1 4.8 22.5 4.9 21.9 5.1 C 21.9 5.1 21.8 4.3 21.8 4.3 C 22.2 4.2 22.5 4.1 22.8 4.1 C 23.1 4 23.4 4 23.7 4 C 25.2 4 26 4.7 26 6.1 C 26 6.3 25.9 6.6 25.9 6.8 C 25.8 7 25.7 7.3 25.5 7.5 C 25.4 7.7 25.2 7.9 25 8.1 C 24.8 8.3 24.5 8.5 24.2 8.7 C 23.9 8.9 23.6 9.2 23.4 9.4 C 23.2 9.6 23 9.7 22.9 9.9 C 22.8 10.1 22.7 10.3 22.6 10.5 C 22.5 10.7 22.5 10.9 22.5 11.2 C 22.51 11.18 22.5 11.7 22.5 11.7 L 26 11.7 L 26 12.5 L 21.6 12.5 C 21.6 12.5 21.59 11.35 21.6 11.3 Z M 28.7 9.3 C 28.1 9.3 27.7 9.1 27.4 8.6 C 27.1 8.2 26.9 7.5 26.9 6.6 C 26.9 5.8 27.1 5.1 27.4 4.6 C 27.7 4.2 28.1 4 28.7 4 C 29.4 4 29.8 4.2 30.1 4.6 C 30.4 5.1 30.6 5.8 30.6 6.6 C 30.6 7.5 30.4 8.2 30.1 8.6 C 29.8 9.1 29.4 9.3 28.7 9.3 Z M 27.6 6.6 C 27.6 8 28 8.6 28.7 8.6 C 29.5 8.6 29.9 8 29.9 6.6 C 29.9 5.3 29.5 4.6 28.7 4.6 C 28 4.6 27.6 5.3 27.6 6.6 C 27.6 6.6 27.6 6.6 27.6 6.6 Z M 34 12.6 C 33.4 12.6 33 12.4 32.6 11.9 C 32.3 11.5 32.2 10.8 32.2 10 C 32.2 9.1 32.3 8.4 32.6 8 C 33 7.5 33.4 7.3 34 7.3 C 34.6 7.3 35.1 7.5 35.4 8 C 35.7 8.4 35.9 9.1 35.9 10 C 35.9 10.8 35.7 11.5 35.4 11.9 C 35.1 12.4 34.6 12.6 34 12.6 Z M 32.9 10 C 32.9 11.3 33.3 12 34 12 C 34.8 12 35.1 11.3 35.1 10 C 35.1 8.6 34.8 8 34 8 C 33.3 8 32.9 8.6 32.9 10 C 32.9 10 32.9 10 32.9 10 Z M 32.6 4.1 L 33.4 4.1 L 30.1 12.5 L 29.3 12.5 L 32.6 4.1 Z " stroke="none" fill="#68adca"/>  </g></svg>