<?xml version="1.0" standalone="no"?><!DOCTYPE svg PUBLIC "-//W3C//DTD SVG 1.1//EN" "http://www.w3.org/Graphics/SVG/1.1/DTD/svg11.dtd"><svg xmlns="http://www.w3.org/2000/svg" version="1.1" width="526.1px" height="43.5px" viewBox="0 -5 526.1 43.5" style="top:-5px">  <desc>Stabilita cyklu</desc>  <defs/>  <g id="Polygon78323">    <path d="M 2.3 18.8 L 13.3 14 L 13.3 13.9 L 2.3 9.2 L 2.3 7.2 L 15.9 13.2 L 15.9 14.7 L 2.3 20.8 L 2.3 18.8 Z M 28.7 18.3 C 28.7 18.3 30.87 20.91 34.2 20.9 C 36.5 20.9 38.4 19.4 38.4 17.2 C 38.4 11.9 28 13 28 6.5 C 28 3.5 30.5 1.1 34.4 1.1 C 36.4 1.1 40.1 1.9 40.1 4.7 C 40.11 4.68 40.1 6.2 40.1 6.2 L 38.1 6.2 C 38.1 6.2 38.13 5.19 38.1 5.2 C 38.1 3.9 36.4 3 34.4 3 C 31.7 3 30.1 4.6 30.1 6.4 C 30.1 11.3 40.5 10.1 40.5 17 C 40.5 20.2 38.1 22.9 34.1 22.9 C 29.82 22.86 27.4 19.9 27.4 19.9 L 28.7 18.3 Z M 44.7 9.1 L 42.7 9.1 L 42.7 7.4 L 44.7 7.4 L 44.7 3.2 L 46.7 3.2 L 46.7 7.4 L 50.5 7.4 L 50.5 9.1 L 46.7 9.1 C 46.7 9.1 46.71 16.8 46.7 16.8 C 46.7 20.3 49 20.8 50.1 20.8 C 50.52 20.79 50.8 20.7 50.8 20.7 L 50.8 22.6 C 50.8 22.6 50.43 22.62 49.9 22.6 C 48.2 22.6 44.7 22.1 44.7 17 C 44.67 17.01 44.7 9.1 44.7 9.1 Z M 62.2 13.2 C 62.16 13.2 63 13.2 63 13.2 C 63 13.2 63 13.02 63 13 C 63 9.9 61.9 8.8 59.1 8.8 C 58.3 8.8 56.2 9 56.2 10.1 C 56.16 10.08 56.2 11 56.2 11 L 54.2 11 C 54.2 11 54.21 9.6 54.2 9.6 C 54.2 7.5 57.8 7.1 59.1 7.1 C 63.9 7.1 65 9.6 65 12.8 C 65 12.8 65 20.1 65 20.1 C 65 20.5 65.3 20.7 65.7 20.7 C 65.7 20.73 67 20.7 67 20.7 L 67 22.5 C 67 22.5 64.89 22.5 64.9 22.5 C 63.6 22.5 63.1 21.9 63.1 20.7 C 63.09 20.04 63.1 19.6 63.1 19.6 C 63.1 19.6 63.06 19.59 63.1 19.6 C 63.1 19.6 61.8 22.9 58 22.9 C 55.5 22.9 52.9 21.4 52.9 18.4 C 52.9 13.4 59.5 13.2 62.2 13.2 Z M 58.4 21.1 C 61.3 21.1 63 18.1 63 15.5 C 63 15.51 63 14.8 63 14.8 C 63 14.8 62.13 14.82 62.1 14.8 C 59.8 14.8 55 14.9 55 18.3 C 55 19.7 56.1 21.1 58.4 21.1 Z M 70.1 3.8 C 70.1 3.4 69.9 3.2 69.4 3.2 C 69.45 3.18 68.2 3.2 68.2 3.2 L 68.2 1.4 C 68.2 1.4 70.32 1.41 70.3 1.4 C 71.6 1.4 72.1 2 72.1 3.2 C 72.1 3.2 72.1 8.7 72.1 8.7 C 72.15 9.39 72.1 9.9 72.1 9.9 L 72.1 9.9 C 72.1 9.9 73.41 7.05 77.3 7.1 C 81.3 7.1 83.8 10.3 83.8 15 C 83.8 19.7 81 22.9 77 22.9 C 73.44 22.86 72.1 20 72.1 20 L 72 20 C 72 20 72.09 20.46 72.1 21.2 C 72.09 21.18 72.1 22.5 72.1 22.5 L 70.1 22.5 C 70.1 22.5 70.11 3.84 70.1 3.8 Z M 76.9 21.1 C 79.6 21.1 81.7 18.8 81.7 15 C 81.7 11.3 79.8 8.9 77 8.9 C 74.5 8.9 72.1 10.7 72.1 15 C 72.1 18 73.6 21.1 76.9 21.1 Z M 87.8 1.4 L 89.8 1.4 L 89.8 4 L 87.8 4 L 87.8 1.4 Z M 87.9 9.8 C 87.9 9.4 87.6 9.2 87.2 9.2 C 87.21 9.18 85.9 9.2 85.9 9.2 L 85.9 7.4 C 85.9 7.4 88.08 7.41 88.1 7.4 C 89.4 7.4 89.9 8 89.9 9.2 C 89.9 9.2 89.9 20.1 89.9 20.1 C 89.9 20.5 90.1 20.7 90.6 20.7 C 90.57 20.73 91.8 20.7 91.8 20.7 L 91.8 22.5 C 91.8 22.5 89.7 22.5 89.7 22.5 C 88.4 22.5 87.9 22 87.9 20.7 C 87.9 20.7 87.9 9.8 87.9 9.8 Z M 95.2 3.8 C 95.2 3.4 95 3.2 94.6 3.2 C 94.56 3.18 93.3 3.2 93.3 3.2 L 93.3 1.4 C 93.3 1.4 95.43 1.41 95.4 1.4 C 96.7 1.4 97.3 2 97.3 3.2 C 97.3 3.2 97.3 20.1 97.3 20.1 C 97.3 20.5 97.5 20.7 97.9 20.7 C 97.92 20.73 99.2 20.7 99.2 20.7 L 99.2 22.5 C 99.2 22.5 97.05 22.5 97 22.5 C 95.8 22.5 95.2 22 95.2 20.7 C 95.2 20.7 95.2 3.8 95.2 3.8 Z M 102.7 1.4 L 104.7 1.4 L 104.7 4 L 102.7 4 L 102.7 1.4 Z M 102.7 9.8 C 102.7 9.4 102.5 9.2 102.1 9.2 C 102.09 9.18 100.8 9.2 100.8 9.2 L 100.8 7.4 C 100.8 7.4 102.96 7.41 103 7.4 C 104.2 7.4 104.8 8 104.8 9.2 C 104.8 9.2 104.8 20.1 104.8 20.1 C 104.8 20.5 105 20.7 105.4 20.7 C 105.45 20.73 106.7 20.7 106.7 20.7 L 106.7 22.5 C 106.7 22.5 104.58 22.5 104.6 22.5 C 103.3 22.5 102.7 22 102.7 20.7 C 102.7 20.7 102.7 9.8 102.7 9.8 Z M 110.3 9.1 L 108.3 9.1 L 108.3 7.4 L 110.3 7.4 L 110.3 3.2 L 112.3 3.2 L 112.3 7.4 L 116.1 7.4 L 116.1 9.1 L 112.3 9.1 C 112.3 9.1 112.35 16.8 112.3 16.8 C 112.3 20.3 114.6 20.8 115.7 20.8 C 116.16 20.79 116.4 20.7 116.4 20.7 L 116.4 22.6 C 116.4 22.6 116.07 22.62 115.6 22.6 C 113.8 22.6 110.3 22.1 110.3 17 C 110.31 17.01 110.3 9.1 110.3 9.1 Z M 127.8 13.2 C 127.8 13.2 128.6 13.2 128.6 13.2 C 128.6 13.2 128.64 13.02 128.6 13 C 128.6 9.9 127.5 8.8 124.7 8.8 C 124 8.8 121.8 9 121.8 10.1 C 121.8 10.08 121.8 11 121.8 11 L 119.8 11 C 119.8 11 119.85 9.6 119.8 9.6 C 119.8 7.5 123.4 7.1 124.8 7.1 C 129.5 7.1 130.7 9.6 130.7 12.8 C 130.7 12.8 130.7 20.1 130.7 20.1 C 130.7 20.5 130.9 20.7 131.3 20.7 C 131.34 20.73 132.6 20.7 132.6 20.7 L 132.6 22.5 C 132.6 22.5 130.53 22.5 130.5 22.5 C 129.2 22.5 128.7 21.9 128.7 20.7 C 128.73 20.04 128.8 19.6 128.8 19.6 C 128.8 19.6 128.7 19.59 128.7 19.6 C 128.7 19.6 127.5 22.9 123.7 22.9 C 121.2 22.9 118.6 21.4 118.6 18.4 C 118.6 13.4 125.2 13.2 127.8 13.2 Z M 124 21.1 C 126.9 21.1 128.6 18.1 128.6 15.5 C 128.64 15.51 128.6 14.8 128.6 14.8 C 128.6 14.8 127.77 14.82 127.8 14.8 C 125.4 14.8 120.7 14.9 120.7 18.3 C 120.7 19.7 121.8 21.1 124 21.1 Z M 150.5 7.1 C 152.2 7.1 155.9 7.8 155.9 10.3 C 155.91 10.26 155.9 11.6 155.9 11.6 L 154 11.6 C 154 11.6 153.99 10.74 154 10.7 C 154 9.5 151.8 8.9 150.5 8.9 C 147.3 8.9 144.7 11.3 144.7 15 C 144.7 18.7 147.4 21 150.6 21 C 153.69 21 155.5 18.9 155.5 18.9 L 156.4 20.4 C 156.4 20.4 154.38 22.86 150.5 22.9 C 146 22.9 142.6 19.7 142.6 15 C 142.6 10.4 146 7.1 150.5 7.1 Z M 160.5 27 C 161.8 27 162.7 25.9 163.3 24.5 C 163.32 24.51 164.2 22.4 164.2 22.4 C 164.2 22.4 158.91 9.87 158.9 9.9 C 158.7 9.3 158.4 9.2 157.9 9.2 C 157.86 9.18 157.6 9.2 157.6 9.2 L 157.6 7.4 C 157.6 7.4 158.49 7.41 158.5 7.4 C 159.8 7.4 160.3 7.7 160.8 9.1 C 160.8 9.1 164.7 18.5 164.7 18.5 C 164.97 19.23 165.2 20.1 165.2 20.1 L 165.3 20.1 C 165.3 20.1 165.48 19.23 165.8 18.5 C 165.8 18.5 169.5 9.1 169.5 9.1 C 170 7.7 170.5 7.4 171.8 7.4 C 171.84 7.41 172.8 7.4 172.8 7.4 L 172.8 9.2 C 172.8 9.2 172.47 9.18 172.5 9.2 C 171.9 9.2 171.6 9.3 171.4 9.9 C 171.4 9.9 164.9 25.6 164.9 25.6 C 164.1 27.6 162.6 28.8 160.6 28.8 C 158.49 28.8 157.3 27.3 157.3 27.3 C 157.3 27.3 158.28 25.83 158.3 25.8 C 158.3 25.9 159.2 27 160.5 27 Z M 175.8 3.8 C 175.8 3.4 175.5 3.2 175.1 3.2 C 175.11 3.18 173.8 3.2 173.8 3.2 L 173.8 1.4 C 173.8 1.4 175.98 1.41 176 1.4 C 177.3 1.4 177.8 1.9 177.8 3.1 C 177.81 3.15 177.8 13.2 177.8 13.2 C 177.8 13.2 179.37 13.17 179.4 13.2 C 179.9 13.2 180.7 13 181.1 12.4 C 181.08 12.45 184.9 7.4 184.9 7.4 L 187.4 7.4 C 187.4 7.4 183.09 12.93 183.1 12.9 C 182.34 13.86 181.9 14 181.9 14 L 181.9 14.1 C 181.9 14.1 182.4 14.28 182.9 15.2 C 182.9 15.2 185.6 20.1 185.6 20.1 C 185.9 20.6 186.2 20.7 187 20.7 C 186.99 20.73 187.8 20.7 187.8 20.7 L 187.8 22.5 C 187.8 22.5 186.39 22.5 186.4 22.5 C 184.9 22.5 184.5 22.3 183.8 21 C 183.8 21 180.8 15.6 180.8 15.6 C 180.4 15 179.7 14.9 179.2 14.9 C 179.19 14.94 177.8 14.9 177.8 14.9 L 177.8 22.5 L 175.8 22.5 C 175.8 22.5 175.77 3.84 175.8 3.8 Z M 190.6 3.8 C 190.6 3.4 190.3 3.2 189.9 3.2 C 189.9 3.18 188.6 3.2 188.6 3.2 L 188.6 1.4 C 188.6 1.4 190.77 1.41 190.8 1.4 C 192.1 1.4 192.6 2 192.6 3.2 C 192.6 3.2 192.6 20.1 192.6 20.1 C 192.6 20.5 192.8 20.7 193.3 20.7 C 193.26 20.73 194.5 20.7 194.5 20.7 L 194.5 22.5 C 194.5 22.5 192.39 22.5 192.4 22.5 C 191.1 22.5 190.6 22 190.6 20.7 C 190.6 20.7 190.6 3.8 190.6 3.8 Z M 197.9 9.8 C 197.9 9.4 197.6 9.2 197.2 9.2 C 197.22 9.18 196 9.2 196 9.2 L 196 7.4 C 196 7.4 198.09 7.41 198.1 7.4 C 199.4 7.4 199.9 8 199.9 9.2 C 199.9 9.2 199.9 16.5 199.9 16.5 C 199.9 18.8 200.3 20.9 203.2 20.9 C 206.6 20.9 208.8 17.9 208.8 14.6 C 208.77 14.64 208.8 7.4 208.8 7.4 L 210.8 7.4 C 210.8 7.4 210.81 20.07 210.8 20.1 C 210.8 20.5 211 20.7 211.5 20.7 C 211.47 20.73 212.7 20.7 212.7 20.7 L 212.7 22.5 C 212.7 22.5 210.66 22.5 210.7 22.5 C 209.4 22.5 208.8 22 208.8 20.8 C 208.8 20.8 208.8 20.1 208.8 20.1 C 208.83 19.53 208.9 19.1 208.9 19.1 C 208.9 19.1 208.83 19.05 208.8 19.1 C 208.2 20.5 206.2 22.9 202.9 22.9 C 199.4 22.9 197.9 20.9 197.9 17 C 197.9 17 197.9 9.8 197.9 9.8 Z " stroke="none" fill="#ee3078"/>  </g></svg>