<?xml version="1.0" standalone="no"?><!DOCTYPE svg PUBLIC "-//W3C//DTD SVG 1.1//EN" "http://www.w3.org/Graphics/SVG/1.1/DTD/svg11.dtd"><svg xmlns="http://www.w3.org/2000/svg" version="1.1" width="152px" height="127.5px" viewBox="-54 -55 152 127.5" style="left:-54px;top:-55px">  <desc>30.3%</desc>  <defs/>  <g id="Polygon80223">    <path d="M 9.5 12.6 C 9 12.6 8.6 12.5 8.1 12.4 C 8.09 12.42 8.1 11.7 8.1 11.7 C 8.1 11.7 8.16 11.69 8.2 11.7 C 8.3 11.7 8.5 11.8 8.7 11.8 C 9 11.8 9.2 11.8 9.4 11.8 C 10 11.8 10.4 11.7 10.8 11.4 C 11.1 11.1 11.2 10.7 11.2 10.2 C 11.2 9.7 11.1 9.2 10.7 8.9 C 10.4 8.7 9.9 8.5 9.2 8.5 C 9.21 8.52 8.8 8.5 8.8 8.5 L 8.8 7.8 C 8.8 7.8 9.2 7.8 9.2 7.8 C 9.8 7.8 10.2 7.7 10.5 7.4 C 10.9 7.1 11 6.8 11 6.2 C 11 5.2 10.5 4.7 9.4 4.7 C 9.3 4.7 9.1 4.7 8.9 4.8 C 8.7 4.8 8.4 4.8 8.2 4.9 C 8.19 4.87 8.1 4.9 8.1 4.9 C 8.1 4.9 8.06 4.15 8.1 4.2 C 8.3 4.1 8.5 4 8.8 4 C 9 4 9.3 4 9.5 4 C 10.3 4 10.9 4.2 11.3 4.5 C 11.7 4.9 11.9 5.4 11.9 6.1 C 11.9 6.6 11.8 7.1 11.6 7.4 C 11.3 7.7 11 8 10.6 8.1 C 10.6 8.1 10.6 8.2 10.6 8.2 C 11.1 8.3 11.5 8.5 11.7 8.9 C 12 9.2 12.1 9.7 12.1 10.3 C 12.1 11 11.9 11.6 11.4 12 C 11 12.4 10.3 12.6 9.5 12.6 Z M 16 12.6 C 15.1 12.6 14.4 12.2 13.9 11.5 C 13.4 10.8 13.2 9.7 13.2 8.3 C 13.2 6.9 13.4 5.8 13.9 5.1 C 14.4 4.3 15.1 4 16 4 C 16.9 4 17.5 4.3 18 5.1 C 18.5 5.8 18.7 6.9 18.7 8.3 C 18.7 9.7 18.5 10.8 18 11.5 C 17.5 12.2 16.9 12.6 16 12.6 Z M 16 11.8 C 16.6 11.8 17 11.5 17.3 10.9 C 17.7 10.4 17.8 9.5 17.8 8.3 C 17.8 7.1 17.6 6.2 17.3 5.6 C 17 5 16.6 4.8 16 4.8 C 14.7 4.8 14.1 5.9 14.1 8.3 C 14.1 9.5 14.3 10.4 14.6 10.9 C 14.9 11.5 15.3 11.8 16 11.8 Z M 20.9 11.9 C 20.9 12.3 20.7 12.5 20.3 12.5 C 19.9 12.5 19.7 12.3 19.7 11.9 C 19.7 11.6 19.9 11.4 20.3 11.4 C 20.5 11.4 20.6 11.4 20.7 11.5 C 20.8 11.6 20.9 11.7 20.9 11.9 C 20.9 11.9 20.9 11.9 20.9 11.9 Z M 23.4 12.6 C 23 12.6 22.5 12.5 22 12.4 C 22.03 12.42 22 11.7 22 11.7 C 22 11.7 22.1 11.69 22.1 11.7 C 22.3 11.7 22.4 11.8 22.7 11.8 C 22.9 11.8 23.1 11.8 23.3 11.8 C 23.9 11.8 24.4 11.7 24.7 11.4 C 25 11.1 25.2 10.7 25.2 10.2 C 25.2 9.7 25 9.2 24.7 8.9 C 24.3 8.7 23.8 8.5 23.2 8.5 C 23.15 8.52 22.8 8.5 22.8 8.5 L 22.8 7.8 C 22.8 7.8 23.14 7.8 23.1 7.8 C 23.7 7.8 24.2 7.7 24.5 7.4 C 24.8 7.1 24.9 6.8 24.9 6.2 C 24.9 5.2 24.4 4.7 23.4 4.7 C 23.2 4.7 23 4.7 22.8 4.8 C 22.6 4.8 22.4 4.8 22.1 4.9 C 22.13 4.87 22.1 4.9 22.1 4.9 C 22.1 4.9 22 4.15 22 4.2 C 22.2 4.1 22.5 4 22.7 4 C 23 4 23.2 4 23.5 4 C 24.2 4 24.8 4.2 25.2 4.5 C 25.7 4.9 25.9 5.4 25.9 6.1 C 25.9 6.6 25.7 7.1 25.5 7.4 C 25.3 7.7 24.9 8 24.5 8.1 C 24.5 8.1 24.5 8.2 24.5 8.2 C 25 8.3 25.4 8.5 25.7 8.9 C 26 9.2 26.1 9.7 26.1 10.3 C 26.1 11 25.9 11.6 25.4 12 C 24.9 12.4 24.3 12.6 23.4 12.6 Z M 28.9 9.3 C 28.2 9.3 27.8 9.1 27.5 8.6 C 27.2 8.2 27 7.5 27 6.6 C 27 5.8 27.2 5.1 27.5 4.6 C 27.8 4.2 28.3 4 28.9 4 C 29.5 4 29.9 4.2 30.2 4.6 C 30.5 5.1 30.7 5.8 30.7 6.6 C 30.7 7.5 30.5 8.2 30.2 8.6 C 29.9 9.1 29.5 9.3 28.9 9.3 Z M 27.7 6.6 C 27.7 8 28.1 8.6 28.9 8.6 C 29.6 8.6 30 8 30 6.6 C 30 5.3 29.6 4.6 28.9 4.6 C 28.1 4.6 27.7 5.3 27.7 6.6 C 27.7 6.6 27.7 6.6 27.7 6.6 Z M 34.1 12.6 C 33.5 12.6 33.1 12.4 32.7 11.9 C 32.4 11.5 32.3 10.8 32.3 10 C 32.3 9.1 32.4 8.4 32.7 8 C 33.1 7.5 33.5 7.3 34.1 7.3 C 34.7 7.3 35.2 7.5 35.5 8 C 35.8 8.4 36 9.1 36 10 C 36 10.8 35.8 11.5 35.5 11.9 C 35.2 12.4 34.7 12.6 34.1 12.6 Z M 33 10 C 33 11.3 33.4 12 34.1 12 C 34.9 12 35.2 11.3 35.2 10 C 35.2 8.6 34.9 8 34.1 8 C 33.4 8 33 8.6 33 10 C 33 10 33 10 33 10 Z M 32.7 4.1 L 33.5 4.1 L 30.2 12.5 L 29.4 12.5 L 32.7 4.1 Z " stroke="none" fill="#ee3078"/>  </g></svg>