<?xml version="1.0" standalone="no"?><!DOCTYPE svg PUBLIC "-//W3C//DTD SVG 1.1//EN" "http://www.w3.org/Graphics/SVG/1.1/DTD/svg11.dtd"><svg xmlns="http://www.w3.org/2000/svg" version="1.1" width="194px" height="20.5px" viewBox="0 -2 194 20.5" style="top:-2px">  <desc>Cit cia: Wikipedia.</desc>  <defs/>  <g id="Polygon77858">    <path d="M 4.6 0.4 C 5.6 0.4 7 0.8 7 1.7 C 7 1.8 7 1.9 6.9 2.1 C 6.94 2.07 6.9 2.4 6.9 2.4 L 6.2 2.4 C 6.2 2.4 6.29 2.03 6.3 2 C 6.4 1.3 5.2 1 4.6 1 C 2.8 1 1.2 2.6 1.2 4.6 C 1.2 5.9 2 7 3.5 7 C 4.4 7 5.3 6.7 5.9 6.1 C 5.9 6.1 6.3 6.6 6.3 6.6 C 5.6 7.2 4.5 7.6 3.4 7.6 C 1.6 7.6 0.4 6.3 0.4 4.6 C 0.4 2.4 2.3 0.4 4.6 0.4 Z M 8.6 0.5 L 9.3 0.5 L 9.1 1.3 L 8.5 1.3 L 8.6 0.5 Z M 7.4 6.8 C 7.4 6.8 8.1 3.4 8.1 3.4 C 8.1 3.3 8.1 3.3 8.1 3.2 C 8.1 3.1 8.1 3.1 7.9 3.1 C 7.94 3.06 7.5 3.1 7.5 3.1 L 7.6 2.5 C 7.6 2.5 8.32 2.47 8.3 2.5 C 8.7 2.5 8.8 2.6 8.8 2.9 C 8.8 3 8.8 3.1 8.8 3.2 C 8.8 3.2 8.1 6.6 8.1 6.6 C 8.1 6.6 8.1 6.7 8.1 6.8 C 8.1 6.9 8.2 6.9 8.3 6.9 C 8.31 6.91 8.7 6.9 8.7 6.9 L 8.6 7.5 C 8.6 7.5 7.92 7.5 7.9 7.5 C 7.6 7.5 7.4 7.4 7.4 7.1 C 7.4 7 7.4 6.9 7.4 6.8 Z M 10.1 5.7 C 10.08 5.65 10.6 3 10.6 3 L 9.9 3 L 10 2.5 L 10.7 2.5 L 11 1.1 L 11.6 1.1 L 11.4 2.5 L 12.6 2.5 L 12.5 3 L 11.3 3 C 11.3 3 10.78 5.58 10.8 5.6 C 10.7 5.8 10.7 5.9 10.7 6.1 C 10.7 6.9 11.3 6.9 11.6 6.9 C 11.79 6.93 11.9 6.9 11.9 6.9 L 11.8 7.5 C 11.8 7.5 11.64 7.54 11.5 7.5 C 11 7.5 10 7.3 10 6.2 C 10 6 10 5.8 10.1 5.7 Z M 12.5 6.3 C 12.5 4.8 14.4 4.4 15.9 4.4 C 15.93 4.4 16.2 4.4 16.2 4.4 C 16.2 4.4 16.27 4.27 16.3 4.3 C 16.3 4.1 16.3 4 16.3 3.8 C 16.3 3.2 16 2.9 15.3 2.9 C 14.9 2.9 14.2 3 14.2 3.4 C 14.17 3.36 14.1 3.7 14.1 3.7 L 13.5 3.7 C 13.5 3.7 13.55 3.2 13.5 3.2 C 13.7 2.6 14.7 2.4 15.4 2.4 C 16.5 2.4 17 2.9 17 3.7 C 17 3.9 17 4.1 16.9 4.4 C 16.9 4.4 16.5 6.5 16.5 6.5 C 16.5 6.6 16.5 6.7 16.5 6.8 C 16.5 6.8 16.5 6.9 16.6 6.9 C 16.65 6.91 17.1 6.9 17.1 6.9 L 17 7.5 C 17 7.5 16.32 7.5 16.3 7.5 C 15.9 7.5 15.8 7.3 15.8 7.1 C 15.8 7 15.8 6.7 15.9 6.5 C 15.9 6.5 15.9 6.5 15.9 6.5 C 15.9 6.5 15.3 7.6 14 7.6 C 13.2 7.6 12.5 7.2 12.5 6.3 C 12.5 6.3 12.5 6.3 12.5 6.3 Z M 13.2 6.2 C 13.2 6.8 13.6 7.1 14.1 7.1 C 15.2 7.1 16 5.9 16.1 5.2 C 16.1 5.17 16.1 4.9 16.1 4.9 C 16.1 4.9 15.86 4.94 15.9 4.9 C 15 4.9 13.2 5.1 13.2 6.2 C 13.2 6.2 13.2 6.2 13.2 6.2 Z M 16.2 0.5 L 17 0.5 L 15.9 1.7 L 15.3 1.7 L 16.2 0.5 Z M 21 2.4 C 21.6 2.4 22.9 2.6 22.7 3.5 C 22.7 3.46 22.6 3.9 22.6 3.9 L 22 3.9 C 22 3.9 22.04 3.62 22 3.6 C 22.1 3.1 21.4 3 20.9 3 C 19.8 3 18.6 4 18.6 5.4 C 18.6 6.4 19.2 7 20.2 7 C 21.32 7 21.9 6.4 21.9 6.4 L 22.1 6.9 C 22.1 6.9 21.48 7.62 20.2 7.6 C 18.8 7.6 17.9 6.8 17.9 5.4 C 17.9 3.7 19.4 2.4 21 2.4 Z M 24.6 0.5 L 25.2 0.5 L 25.1 1.3 L 24.4 1.3 L 24.6 0.5 Z M 23.4 6.8 C 23.4 6.8 24 3.4 24 3.4 C 24 3.3 24.1 3.3 24.1 3.2 C 24.1 3.1 24 3.1 23.9 3.1 C 23.88 3.06 23.5 3.1 23.5 3.1 L 23.6 2.5 C 23.6 2.5 24.26 2.47 24.3 2.5 C 24.6 2.5 24.8 2.6 24.8 2.9 C 24.8 3 24.8 3.1 24.7 3.2 C 24.7 3.2 24.1 6.6 24.1 6.6 C 24.1 6.6 24.1 6.7 24.1 6.8 C 24.1 6.9 24.1 6.9 24.2 6.9 C 24.25 6.91 24.7 6.9 24.7 6.9 L 24.6 7.5 C 24.6 7.5 23.86 7.5 23.9 7.5 C 23.5 7.5 23.3 7.4 23.3 7.1 C 23.3 7 23.3 6.9 23.4 6.8 Z M 25.4 6.3 C 25.4 4.8 27.2 4.4 28.8 4.4 C 28.78 4.4 29.1 4.4 29.1 4.4 C 29.1 4.4 29.12 4.27 29.1 4.3 C 29.1 4.1 29.2 4 29.2 3.8 C 29.2 3.2 28.8 2.9 28.1 2.9 C 27.8 2.9 27.1 3 27 3.4 C 27.02 3.36 27 3.7 27 3.7 L 26.3 3.7 C 26.3 3.7 26.4 3.2 26.4 3.2 C 26.5 2.6 27.5 2.4 28.2 2.4 C 29.4 2.4 29.8 2.9 29.8 3.7 C 29.8 3.9 29.8 4.1 29.8 4.4 C 29.8 4.4 29.4 6.5 29.4 6.5 C 29.3 6.6 29.3 6.7 29.3 6.8 C 29.3 6.8 29.4 6.9 29.5 6.9 C 29.5 6.91 29.9 6.9 29.9 6.9 L 29.8 7.5 C 29.8 7.5 29.17 7.5 29.2 7.5 C 28.8 7.5 28.6 7.3 28.6 7.1 C 28.6 7 28.7 6.7 28.7 6.5 C 28.7 6.5 28.7 6.5 28.7 6.5 C 28.7 6.5 28.1 7.6 26.8 7.6 C 26.1 7.6 25.4 7.2 25.4 6.3 C 25.4 6.3 25.4 6.3 25.4 6.3 Z M 26.1 6.2 C 26.1 6.8 26.4 7.1 27 7.1 C 28 7.1 28.8 5.9 28.9 5.2 C 28.95 5.17 29 4.9 29 4.9 C 29 4.9 28.71 4.94 28.7 4.9 C 27.9 4.9 26.1 5.1 26.1 6.2 C 26.1 6.2 26.1 6.2 26.1 6.2 Z M 31.6 2.5 L 32.4 2.5 L 32.3 3.3 L 31.5 3.3 L 31.6 2.5 Z M 30.8 6.7 L 31.6 6.7 L 31.4 7.5 L 30.7 7.5 L 30.8 6.7 Z M 36.6 1.3 C 36.6 1.2 36.5 1.1 36.4 1.1 C 36.37 1.09 36.2 1.1 36.2 1.1 L 36.3 0.5 C 36.3 0.5 36.7 0.47 36.7 0.5 C 37.1 0.5 37.3 0.6 37.3 1 C 37.3 1 37.6 5.9 37.6 5.9 C 37.63 6.26 37.6 6.7 37.6 6.7 L 37.6 6.7 C 37.6 6.7 37.79 6.26 38 5.9 C 37.97 5.9 40.6 0.5 40.6 0.5 L 41.3 0.5 C 41.3 0.5 41.62 5.9 41.6 5.9 C 41.64 6.26 41.6 6.7 41.6 6.7 L 41.6 6.7 C 41.6 6.7 41.79 6.26 42 5.9 C 42 5.9 44.1 1 44.1 1 C 44.3 0.6 44.6 0.5 44.9 0.5 C 44.93 0.47 45.4 0.5 45.4 0.5 L 45.3 1.1 C 45.3 1.1 45.11 1.09 45.1 1.1 C 45 1.1 44.8 1.1 44.8 1.3 C 44.76 1.31 41.9 7.5 41.9 7.5 L 41.1 7.5 C 41.1 7.5 40.75 2.61 40.7 2.6 C 40.72 2.16 40.7 1.6 40.7 1.6 L 40.7 1.6 C 40.7 1.6 40.47 2.15 40.2 2.6 C 40.25 2.6 37.9 7.5 37.9 7.5 L 37 7.5 C 37 7.5 36.62 1.33 36.6 1.3 Z M 46.4 0.5 L 47.1 0.5 L 46.9 1.3 L 46.2 1.3 L 46.4 0.5 Z M 45.2 6.8 C 45.2 6.8 45.9 3.4 45.9 3.4 C 45.9 3.3 45.9 3.3 45.9 3.2 C 45.9 3.1 45.8 3.1 45.7 3.1 C 45.72 3.06 45.3 3.1 45.3 3.1 L 45.4 2.5 C 45.4 2.5 46.1 2.47 46.1 2.5 C 46.5 2.5 46.6 2.6 46.6 2.9 C 46.6 3 46.6 3.1 46.6 3.2 C 46.6 3.2 45.9 6.6 45.9 6.6 C 45.9 6.6 45.9 6.7 45.9 6.8 C 45.9 6.9 46 6.9 46.1 6.9 C 46.09 6.91 46.5 6.9 46.5 6.9 L 46.4 7.5 C 46.4 7.5 45.7 7.5 45.7 7.5 C 45.3 7.5 45.2 7.4 45.2 7.1 C 45.2 7 45.2 6.9 45.2 6.8 Z M 48.6 1.4 C 48.6 1.3 48.6 1.3 48.6 1.2 C 48.6 1.1 48.5 1.1 48.4 1.1 C 48.43 1.06 48 1.1 48 1.1 L 48.1 0.5 C 48.1 0.5 48.81 0.47 48.8 0.5 C 49.2 0.5 49.3 0.6 49.3 0.9 C 49.3 1 49.3 1.1 49.3 1.2 C 49.31 1.18 48.7 4.4 48.7 4.4 C 48.7 4.4 49.2 4.39 49.2 4.4 C 49.4 4.4 49.6 4.3 49.8 4.2 C 49.77 4.15 51.4 2.5 51.4 2.5 L 52.3 2.5 C 52.3 2.5 50.45 4.32 50.4 4.3 C 50.17 4.61 50 4.7 50 4.7 L 50 4.7 C 50 4.7 50.11 4.76 50.2 5.1 C 50.2 5.1 50.8 6.7 50.8 6.7 C 50.9 6.9 51 6.9 51.3 6.9 C 51.26 6.91 51.5 6.9 51.5 6.9 L 51.4 7.5 C 51.4 7.5 50.96 7.5 51 7.5 C 50.5 7.5 50.4 7.4 50.2 7 C 50.2 7 49.6 5.2 49.6 5.2 C 49.5 5 49.3 5 49.1 5 C 49.08 4.98 48.6 5 48.6 5 L 48.1 7.5 L 47.4 7.5 C 47.4 7.5 48.58 1.43 48.6 1.4 Z M 53.8 0.5 L 54.5 0.5 L 54.3 1.3 L 53.7 1.3 L 53.8 0.5 Z M 52.6 6.8 C 52.6 6.8 53.3 3.4 53.3 3.4 C 53.3 3.3 53.3 3.3 53.3 3.2 C 53.3 3.1 53.2 3.1 53.1 3.1 C 53.13 3.06 52.7 3.1 52.7 3.1 L 52.8 2.5 C 52.8 2.5 53.51 2.47 53.5 2.5 C 53.9 2.5 54 2.6 54 2.9 C 54 3 54 3.1 54 3.2 C 54 3.2 53.3 6.6 53.3 6.6 C 53.3 6.6 53.3 6.7 53.3 6.8 C 53.3 6.9 53.4 6.9 53.5 6.9 C 53.5 6.91 53.9 6.9 53.9 6.9 L 53.8 7.5 C 53.8 7.5 53.11 7.5 53.1 7.5 C 52.8 7.5 52.6 7.4 52.6 7.1 C 52.6 7 52.6 6.9 52.6 6.8 Z M 55.7 3.4 C 55.7 3.3 55.8 3.3 55.8 3.2 C 55.8 3.1 55.7 3.1 55.6 3.1 C 55.58 3.06 55.2 3.1 55.2 3.1 L 55.3 2.5 C 55.3 2.5 55.97 2.47 56 2.5 C 56.3 2.5 56.5 2.6 56.5 2.8 C 56.5 3 56.4 3.2 56.3 3.4 C 56.3 3.4 56.4 3.4 56.4 3.4 C 56.7 2.9 57.3 2.4 58.2 2.4 C 59.4 2.4 60.1 3.1 60.1 4.4 C 60.1 6.3 58.7 7.6 57.3 7.6 C 56.6 7.6 56 7.3 55.8 6.6 C 55.78 6.61 55.8 6.6 55.8 6.6 C 55.8 6.6 55.74 6.84 55.7 7.1 C 55.69 7.09 55.2 9.5 55.2 9.5 L 54.5 9.5 C 54.5 9.5 55.73 3.45 55.7 3.4 Z M 56 5.5 C 56 6.4 56.4 7 57.3 7 C 58.3 7 59.4 6 59.4 4.5 C 59.4 3.5 58.9 3 58.1 3 C 56.9 3 56 4.3 56 5.5 C 56 5.5 56 5.5 56 5.5 Z M 63.7 2.4 C 65 2.4 65.5 3.1 65.5 4.2 C 65.53 4.56 65.4 5 65.4 5 L 61.5 5 C 61.5 5 61.48 5.22 61.5 5.4 C 61.5 6.3 62 7 63.1 7 C 64 7.01 64.7 6.4 64.7 6.4 L 64.9 7 C 64.9 7 64.12 7.62 63 7.6 C 61.7 7.6 60.8 6.8 60.8 5.5 C 60.8 3.9 62 2.4 63.7 2.4 Z M 64.8 4.5 C 64.8 4.5 64.83 4.3 64.8 4.1 C 64.8 3.3 64.3 2.9 63.7 2.9 C 62.9 2.9 62 3.5 61.7 4.5 C 61.67 4.47 64.8 4.5 64.8 4.5 Z M 66.1 5.6 C 66.1 3.7 67.5 2.4 68.9 2.4 C 69.6 2.4 70.2 2.7 70.4 3.4 C 70.44 3.37 70.5 3.4 70.5 3.4 C 70.5 3.4 70.47 3.16 70.5 2.9 C 70.5 2.9 70.8 1.4 70.8 1.4 C 70.8 1.3 70.8 1.3 70.8 1.2 C 70.8 1.1 70.8 1.1 70.6 1.1 C 70.65 1.06 70.2 1.1 70.2 1.1 L 70.3 0.5 C 70.3 0.5 71.04 0.47 71 0.5 C 71.4 0.5 71.6 0.6 71.6 0.9 C 71.6 1 71.6 1.1 71.5 1.2 C 71.5 1.2 70.5 6.5 70.5 6.5 C 70.5 6.6 70.5 6.7 70.5 6.8 C 70.5 6.8 70.5 6.9 70.6 6.9 C 70.63 6.91 71 6.9 71 6.9 L 70.9 7.5 C 70.9 7.5 70.3 7.5 70.3 7.5 C 69.9 7.5 69.8 7.3 69.8 7.1 C 69.8 7 69.8 6.7 69.9 6.6 C 69.9 6.6 69.9 6.6 69.9 6.6 C 69.5 7.1 68.9 7.6 68 7.6 C 66.8 7.6 66.1 6.8 66.1 5.6 C 66.1 5.6 66.1 5.6 66.1 5.6 Z M 66.8 5.6 C 66.8 6.5 67.3 7 68.1 7 C 69.4 7 70.2 5.6 70.2 4.4 C 70.2 3.6 69.8 3 68.9 3 C 67.9 3 66.8 3.9 66.8 5.6 C 66.8 5.6 66.8 5.6 66.8 5.6 Z M 73.4 0.5 L 74.1 0.5 L 73.9 1.3 L 73.2 1.3 L 73.4 0.5 Z M 72.2 6.8 C 72.2 6.8 72.9 3.4 72.9 3.4 C 72.9 3.3 72.9 3.3 72.9 3.2 C 72.9 3.1 72.8 3.1 72.7 3.1 C 72.71 3.06 72.3 3.1 72.3 3.1 L 72.4 2.5 C 72.4 2.5 73.09 2.47 73.1 2.5 C 73.4 2.5 73.6 2.6 73.6 2.9 C 73.6 3 73.6 3.1 73.6 3.2 C 73.6 3.2 72.9 6.6 72.9 6.6 C 72.9 6.6 72.9 6.7 72.9 6.8 C 72.9 6.9 73 6.9 73.1 6.9 C 73.08 6.91 73.5 6.9 73.5 6.9 L 73.4 7.5 C 73.4 7.5 72.69 7.5 72.7 7.5 C 72.3 7.5 72.2 7.4 72.2 7.1 C 72.2 7 72.2 6.9 72.2 6.8 Z M 74.2 6.3 C 74.2 4.8 76.1 4.4 77.6 4.4 C 77.61 4.4 77.9 4.4 77.9 4.4 C 77.9 4.4 77.95 4.27 77.9 4.3 C 78 4.1 78 4 78 3.8 C 78 3.2 77.7 2.9 77 2.9 C 76.6 2.9 75.9 3 75.8 3.4 C 75.85 3.36 75.8 3.7 75.8 3.7 L 75.1 3.7 C 75.1 3.7 75.23 3.2 75.2 3.2 C 75.4 2.6 76.4 2.4 77.1 2.4 C 78.2 2.4 78.7 2.9 78.7 3.7 C 78.7 3.9 78.7 4.1 78.6 4.4 C 78.6 4.4 78.2 6.5 78.2 6.5 C 78.2 6.6 78.1 6.7 78.1 6.8 C 78.1 6.8 78.2 6.9 78.3 6.9 C 78.33 6.91 78.7 6.9 78.7 6.9 L 78.6 7.5 C 78.6 7.5 78 7.5 78 7.5 C 77.6 7.5 77.5 7.3 77.5 7.1 C 77.5 7 77.5 6.7 77.6 6.5 C 77.6 6.5 77.6 6.5 77.6 6.5 C 77.6 6.5 76.9 7.6 75.7 7.6 C 74.9 7.6 74.2 7.2 74.2 6.3 C 74.2 6.3 74.2 6.3 74.2 6.3 Z M 74.9 6.2 C 74.9 6.8 75.3 7.1 75.8 7.1 C 76.9 7.1 77.6 5.9 77.8 5.2 C 77.78 5.17 77.8 4.9 77.8 4.9 C 77.8 4.9 77.54 4.94 77.5 4.9 C 76.7 4.9 74.9 5.1 74.9 6.2 C 74.9 6.2 74.9 6.2 74.9 6.2 Z M 79.7 6.7 L 80.5 6.7 L 80.3 7.5 L 79.5 7.5 L 79.7 6.7 Z " stroke="none" fill="#000"/>  </g></svg>