<?xml version="1.0" standalone="no"?><!DOCTYPE svg PUBLIC "-//W3C//DTD SVG 1.1//EN" "http://www.w3.org/Graphics/SVG/1.1/DTD/svg11.dtd"><svg xmlns="http://www.w3.org/2000/svg" version="1.1" width="139px" height="30.5px" viewBox="0 -4 139 30.5" style="top:-4px">  <desc>Zn anlivos</desc>  <defs/>  <g id="Polygon67252">    <path d="M 16.8 12.3 C 16.8 12.3 23.05 3.49 23.1 3.5 C 23.56 2.79 24 2.3 24 2.3 L 24 2.3 C 24 2.3 23.67 2.34 23.1 2.3 C 23.1 2.3 19 2.3 19 2.3 C 18.7 2.3 18.6 2.5 18.6 2.7 C 18.57 2.74 18.6 3.5 18.6 3.5 L 16.9 3.5 C 16.9 3.5 16.93 1.94 16.9 1.9 C 16.9 1.1 17.3 0.8 18.1 0.8 C 18.09 0.79 26.2 0.8 26.2 0.8 L 26.2 2 C 26.2 2 19.96 10.8 20 10.8 C 19.47 11.5 19 12 19 12 L 19 12 C 19 12 19.36 11.95 20 12 C 20 12 24.4 12 24.4 12 C 24.7 12 24.8 11.8 24.8 11.6 C 24.84 11.56 24.8 10.7 24.8 10.7 L 26.5 10.7 C 26.5 10.7 26.49 12.35 26.5 12.3 C 26.5 13.2 26.2 13.5 25.3 13.5 C 25.34 13.5 16.8 13.5 16.8 13.5 L 16.8 12.3 Z M 28.5 6.3 C 28.5 6 28.3 5.9 28.1 5.9 C 28.08 5.89 27.3 5.9 27.3 5.9 L 27.3 4.4 C 27.3 4.4 29.01 4.39 29 4.4 C 29.8 4.4 30.2 4.7 30.2 5.4 C 30.2 5.4 30.2 5.7 30.2 5.7 C 30.16 6.03 30.1 6.3 30.1 6.3 C 30.1 6.3 30.16 6.26 30.2 6.3 C 30.5 5.5 31.6 4.2 33.6 4.2 C 35.7 4.2 36.7 5.3 36.7 7.7 C 36.7 7.7 36.7 11.6 36.7 11.6 C 36.7 11.9 36.9 12 37.1 12 C 37.11 12.01 37.9 12 37.9 12 L 37.9 13.5 C 37.9 13.5 36.12 13.5 36.1 13.5 C 35.3 13.5 35 13.2 35 12.3 C 35 12.3 35 8.1 35 8.1 C 35 6.8 34.7 5.8 33.3 5.8 C 31.9 5.8 30.7 6.7 30.4 8 C 30.3 8.4 30.2 8.8 30.2 9.2 C 30.22 9.23 30.2 13.5 30.2 13.5 L 28.5 13.5 C 28.5 13.5 28.47 6.28 28.5 6.3 Z M 44.4 7.8 C 44.37 7.83 44.8 7.8 44.8 7.8 C 44.8 7.8 44.76 7.74 44.8 7.7 C 44.8 6.1 44.2 5.6 42.7 5.6 C 42.3 5.6 41.3 5.7 41.3 6.3 C 41.25 6.26 41.3 6.8 41.3 6.8 L 39.6 6.8 C 39.6 6.8 39.61 5.89 39.6 5.9 C 39.6 4.4 41.9 4.2 42.8 4.2 C 45.7 4.2 46.5 5.7 46.5 7.7 C 46.5 7.7 46.5 11.6 46.5 11.6 C 46.5 11.9 46.7 12 46.9 12 C 46.9 12.01 47.6 12 47.6 12 L 47.6 13.5 C 47.6 13.5 46 13.5 46 13.5 C 45.2 13.5 44.9 13.1 44.9 12.5 C 44.87 12.15 44.9 11.9 44.9 11.9 L 44.9 11.9 C 44.9 11.9 44.15 13.72 42 13.7 C 40.4 13.7 38.9 12.8 38.9 10.9 C 38.9 8 42.8 7.8 44.4 7.8 Z M 42.4 12.3 C 43.8 12.3 44.8 10.8 44.8 9.4 C 44.78 9.41 44.8 9.1 44.8 9.1 C 44.8 9.1 44.33 9.11 44.3 9.1 C 43 9.1 40.6 9.2 40.6 10.9 C 40.6 11.6 41.2 12.3 42.4 12.3 Z M 43.6 0.8 L 45.4 0.8 L 43.6 3.1 L 42.3 3.1 L 43.6 0.8 Z M 49.4 10.9 C 49.4 10.9 50.47 12.29 52.1 12.3 C 53 12.3 53.7 11.9 53.7 11.1 C 53.7 9.5 48.8 9.7 48.8 6.7 C 48.8 5 50.3 4.2 52.1 4.2 C 53.2 4.2 55.1 4.6 55.1 5.9 C 55.13 5.94 55.1 6.8 55.1 6.8 L 53.6 6.8 C 53.6 6.8 53.56 6.35 53.6 6.4 C 53.6 5.8 52.8 5.6 52.2 5.6 C 51.2 5.6 50.5 5.9 50.5 6.7 C 50.5 8.4 55.5 8 55.5 11.1 C 55.5 12.7 54 13.7 52.1 13.7 C 49.69 13.72 48.5 12.1 48.5 12.1 L 49.4 10.9 Z M 49.7 0.8 L 51.1 0.8 L 52 2.3 L 52.1 2.3 L 53 0.8 L 54.4 0.8 L 52.9 3.1 L 51.3 3.1 L 49.7 0.8 Z M 62.3 7.8 C 62.33 7.83 62.7 7.8 62.7 7.8 C 62.7 7.8 62.73 7.74 62.7 7.7 C 62.7 6.1 62.1 5.6 60.7 5.6 C 60.3 5.6 59.2 5.7 59.2 6.3 C 59.22 6.26 59.2 6.8 59.2 6.8 L 57.6 6.8 C 57.6 6.8 57.58 5.89 57.6 5.9 C 57.6 4.4 59.8 4.2 60.7 4.2 C 63.7 4.2 64.5 5.7 64.5 7.7 C 64.5 7.7 64.5 11.6 64.5 11.6 C 64.5 11.9 64.6 12 64.9 12 C 64.87 12.01 65.6 12 65.6 12 L 65.6 13.5 C 65.6 13.5 63.97 13.5 64 13.5 C 63.2 13.5 62.8 13.1 62.8 12.5 C 62.83 12.15 62.9 11.9 62.9 11.9 L 62.8 11.9 C 62.8 11.9 62.11 13.72 59.9 13.7 C 58.4 13.7 56.8 12.8 56.8 10.9 C 56.8 8 60.8 7.8 62.3 7.8 Z M 60.3 12.3 C 61.8 12.3 62.7 10.8 62.7 9.4 C 62.74 9.41 62.7 9.1 62.7 9.1 C 62.7 9.1 62.29 9.11 62.3 9.1 C 61 9.1 58.6 9.2 58.6 10.9 C 58.6 11.6 59.2 12.3 60.3 12.3 Z M 67.5 6.3 C 67.5 6 67.4 5.9 67.1 5.9 C 67.1 5.89 66.4 5.9 66.4 5.9 L 66.4 4.4 C 66.4 4.4 68.04 4.39 68 4.4 C 68.8 4.4 69.2 4.7 69.2 5.4 C 69.2 5.4 69.2 5.7 69.2 5.7 C 69.19 6.03 69.2 6.3 69.2 6.3 C 69.2 6.3 69.19 6.26 69.2 6.3 C 69.5 5.5 70.6 4.2 72.6 4.2 C 74.8 4.2 75.7 5.3 75.7 7.7 C 75.7 7.7 75.7 11.6 75.7 11.6 C 75.7 11.9 75.9 12 76.1 12 C 76.14 12.01 76.9 12 76.9 12 L 76.9 13.5 C 76.9 13.5 75.15 13.5 75.1 13.5 C 74.3 13.5 74 13.2 74 12.3 C 74 12.3 74 8.1 74 8.1 C 74 6.8 73.7 5.8 72.3 5.8 C 70.9 5.8 69.8 6.7 69.4 8 C 69.3 8.4 69.2 8.8 69.2 9.2 C 69.24 9.23 69.2 13.5 69.2 13.5 L 67.5 13.5 C 67.5 13.5 67.5 6.28 67.5 6.3 Z M 78.7 2.7 C 78.7 2.4 78.6 2.3 78.3 2.3 C 78.33 2.29 77.6 2.3 77.6 2.3 L 77.6 0.8 C 77.6 0.8 79.32 0.79 79.3 0.8 C 80.1 0.8 80.5 1.1 80.5 1.9 C 80.5 1.9 80.5 11.6 80.5 11.6 C 80.5 11.9 80.6 12 80.9 12 C 80.87 12.01 81.6 12 81.6 12 L 81.6 13.5 C 81.6 13.5 79.88 13.5 79.9 13.5 C 79.1 13.5 78.7 13.2 78.7 12.3 C 78.7 12.3 78.7 2.7 78.7 2.7 Z M 83.7 0.8 L 85.3 0.8 L 85.3 2.6 L 83.7 2.6 L 83.7 0.8 Z M 83.7 6.3 C 83.7 6 83.5 5.9 83.3 5.9 C 83.28 5.89 82.5 5.9 82.5 5.9 L 82.5 4.4 C 82.5 4.4 84.25 4.39 84.3 4.4 C 85.1 4.4 85.4 4.7 85.4 5.5 C 85.4 5.5 85.4 11.6 85.4 11.6 C 85.4 11.9 85.5 12 85.8 12 C 85.8 12.01 86.5 12 86.5 12 L 86.5 13.5 C 86.5 13.5 84.83 13.5 84.8 13.5 C 84 13.5 83.7 13.2 83.7 12.3 C 83.7 12.3 83.7 6.3 83.7 6.3 Z M 87.9 6.2 C 87.8 6 87.6 5.9 87.3 5.9 C 87.33 5.89 87.2 5.9 87.2 5.9 L 87.2 4.4 C 87.2 4.4 88.05 4.39 88.1 4.4 C 88.9 4.4 89.2 4.6 89.4 5.3 C 89.4 5.3 91.4 10.5 91.4 10.5 C 91.58 11.05 91.7 11.7 91.7 11.7 L 91.8 11.7 C 91.8 11.7 91.9 11.05 92.1 10.5 C 92.1 10.5 94 5.3 94 5.3 C 94.3 4.6 94.6 4.4 95.4 4.4 C 95.41 4.39 96.3 4.4 96.3 4.4 L 96.3 5.9 C 96.3 5.9 96.08 5.89 96.1 5.9 C 95.8 5.9 95.6 6 95.5 6.2 C 95.49 6.25 92.7 13.5 92.7 13.5 L 90.7 13.5 C 90.7 13.5 87.89 6.25 87.9 6.2 Z M 101.9 4.2 C 104.6 4.2 106.8 6.2 106.8 8.9 C 106.8 11.7 104.6 13.7 101.9 13.7 C 99.1 13.7 97 11.7 97 8.9 C 97 6.2 99.1 4.2 101.9 4.2 Z M 101.9 12.2 C 103.6 12.2 105 10.8 105 8.9 C 105 7 103.6 5.7 101.9 5.7 C 100.1 5.7 98.7 7 98.7 8.9 C 98.7 10.8 100.1 12.2 101.9 12.2 Z M 108.8 10.9 C 108.8 10.9 109.89 12.29 111.6 12.3 C 112.4 12.3 113.1 11.9 113.1 11.1 C 113.1 9.5 108.2 9.7 108.2 6.7 C 108.2 5 109.7 4.2 111.6 4.2 C 112.7 4.2 114.5 4.6 114.5 5.9 C 114.55 5.94 114.5 6.8 114.5 6.8 L 113 6.8 C 113 6.8 112.98 6.35 113 6.4 C 113 5.8 112.2 5.6 111.6 5.6 C 110.6 5.6 109.9 5.9 109.9 6.7 C 109.9 8.4 114.9 8 114.9 11.1 C 114.9 12.7 113.4 13.7 111.5 13.7 C 109.11 13.72 107.9 12.1 107.9 12.1 L 108.8 10.9 Z M 117.2 5.8 L 116 5.8 L 116 4.4 L 117.3 4.4 L 117.3 1.9 L 119 1.9 L 119 4.4 L 121.2 4.4 L 121.2 5.8 L 119 5.8 C 119 5.8 118.98 9.97 119 10 C 119 11.8 120.2 12 120.9 12 C 121.15 12.02 121.3 12 121.3 12 L 121.3 13.5 C 121.3 13.5 121.08 13.57 120.7 13.6 C 119.6 13.6 117.2 13.2 117.2 10.2 C 117.23 10.17 117.2 5.8 117.2 5.8 Z M 121.5 0.8 C 121.6 1.1 121.6 1.4 121.6 1.7 C 121.6 2.2 121.5 2.7 121.2 3.3 C 121.2 3.3 120 3.3 120 3.3 C 120.2 2.8 120.3 2.3 120.3 1.9 C 120.3 1.5 120.3 1.2 120.1 0.8 C 120.1 0.8 121.5 0.8 121.5 0.8 Z " stroke="none" fill="#ee3078"/>  </g></svg>