<?xml version="1.0" standalone="no"?><!DOCTYPE svg PUBLIC "-//W3C//DTD SVG 1.1//EN" "http://www.w3.org/Graphics/SVG/1.1/DTD/svg11.dtd"><svg xmlns="http://www.w3.org/2000/svg" version="1.1" width="44px" height="19.5px" viewBox="0 -1 44 19.5" style="top:-1px">  <desc>43.0%</desc>  <defs/>  <g id="Polygon79852">    <path d="M 0.2 10 L 0.2 9.9 L 3 4 L 3.1 4 L 3.9 4.1 L 3.9 4.2 L 1.2 9.7 L 1.2 9.7 L 3.8 9.7 L 4.1 6.8 L 4.7 6.8 L 4.7 9.7 L 5.7 9.7 L 5.7 10.5 L 4.7 10.5 L 4.7 12.5 L 3.8 12.5 L 3.8 10.5 L 0.4 10.5 L 0.2 10 Z M 7.8 12.6 C 7.3 12.6 6.9 12.5 6.4 12.4 C 6.4 12.42 6.4 11.7 6.4 11.7 C 6.4 11.7 6.47 11.69 6.5 11.7 C 6.6 11.7 6.8 11.8 7.1 11.8 C 7.3 11.8 7.5 11.8 7.7 11.8 C 8.3 11.8 8.8 11.7 9.1 11.4 C 9.4 11.1 9.5 10.7 9.5 10.2 C 9.5 9.7 9.4 9.2 9.1 8.9 C 8.7 8.7 8.2 8.5 7.5 8.5 C 7.53 8.52 7.1 8.5 7.1 8.5 L 7.1 7.8 C 7.1 7.8 7.51 7.8 7.5 7.8 C 8.1 7.8 8.6 7.7 8.9 7.4 C 9.2 7.1 9.3 6.8 9.3 6.2 C 9.3 5.2 8.8 4.7 7.7 4.7 C 7.6 4.7 7.4 4.7 7.2 4.8 C 7 4.8 6.8 4.8 6.5 4.9 C 6.51 4.87 6.4 4.9 6.4 4.9 C 6.4 4.9 6.37 4.15 6.4 4.2 C 6.6 4.1 6.9 4 7.1 4 C 7.4 4 7.6 4 7.8 4 C 8.6 4 9.2 4.2 9.6 4.5 C 10 4.9 10.2 5.4 10.2 6.1 C 10.2 6.6 10.1 7.1 9.9 7.4 C 9.6 7.7 9.3 8 8.9 8.1 C 8.9 8.1 8.9 8.2 8.9 8.2 C 9.4 8.3 9.8 8.5 10.1 8.9 C 10.3 9.2 10.5 9.7 10.5 10.3 C 10.5 11 10.2 11.6 9.8 12 C 9.3 12.4 8.6 12.6 7.8 12.6 Z M 12.8 11.9 C 12.8 12.3 12.6 12.5 12.2 12.5 C 11.8 12.5 11.6 12.3 11.6 11.9 C 11.6 11.6 11.8 11.4 12.2 11.4 C 12.4 11.4 12.5 11.4 12.6 11.5 C 12.7 11.6 12.8 11.7 12.8 11.9 C 12.8 11.9 12.8 11.9 12.8 11.9 Z M 16.5 12.6 C 15.6 12.6 14.9 12.2 14.4 11.5 C 14 10.8 13.7 9.7 13.7 8.3 C 13.7 6.9 14 5.8 14.4 5.1 C 14.9 4.3 15.6 4 16.5 4 C 17.4 4 18.1 4.3 18.5 5.1 C 19 5.8 19.2 6.9 19.2 8.3 C 19.2 9.7 19 10.8 18.5 11.5 C 18.1 12.2 17.4 12.6 16.5 12.6 Z M 16.5 11.8 C 17.1 11.8 17.6 11.5 17.9 10.9 C 18.2 10.4 18.3 9.5 18.3 8.3 C 18.3 7.1 18.2 6.2 17.9 5.6 C 17.6 5 17.1 4.8 16.5 4.8 C 15.3 4.8 14.6 5.9 14.6 8.3 C 14.6 9.5 14.8 10.4 15.1 10.9 C 15.4 11.5 15.9 11.8 16.5 11.8 Z M 22 9.3 C 21.4 9.3 21 9.1 20.7 8.6 C 20.3 8.2 20.2 7.5 20.2 6.6 C 20.2 5.8 20.3 5.1 20.7 4.6 C 21 4.2 21.4 4 22 4 C 22.6 4 23.1 4.2 23.4 4.6 C 23.7 5.1 23.9 5.8 23.9 6.6 C 23.9 7.5 23.7 8.2 23.4 8.6 C 23.1 9.1 22.6 9.3 22 9.3 Z M 20.9 6.6 C 20.9 8 21.3 8.6 22 8.6 C 22.8 8.6 23.1 8 23.1 6.6 C 23.1 5.3 22.8 4.6 22 4.6 C 21.3 4.6 20.9 5.3 20.9 6.6 C 20.9 6.6 20.9 6.6 20.9 6.6 Z M 27.3 12.6 C 26.7 12.6 26.2 12.4 25.9 11.9 C 25.6 11.5 25.4 10.8 25.4 10 C 25.4 9.1 25.6 8.4 25.9 8 C 26.2 7.5 26.7 7.3 27.3 7.3 C 27.9 7.3 28.4 7.5 28.7 8 C 29 8.4 29.1 9.1 29.1 10 C 29.1 10.8 29 11.5 28.7 11.9 C 28.4 12.4 27.9 12.6 27.3 12.6 Z M 26.2 10 C 26.2 11.3 26.5 12 27.3 12 C 28 12 28.4 11.3 28.4 10 C 28.4 8.6 28 8 27.3 8 C 26.5 8 26.2 8.6 26.2 10 C 26.2 10 26.2 10 26.2 10 Z M 25.9 4.1 L 26.7 4.1 L 23.4 12.5 L 22.6 12.5 L 25.9 4.1 Z " stroke="none" fill="#ee3078"/>  </g></svg>