<?xml version="1.0" standalone="no"?><!DOCTYPE svg PUBLIC "-//W3C//DTD SVG 1.1//EN" "http://www.w3.org/Graphics/SVG/1.1/DTD/svg11.dtd"><svg xmlns="http://www.w3.org/2000/svg" version="1.1" width="161.2px" height="29px" viewBox="0 0 161.2 29">  <desc>Boles alebo citlivos p s</desc>  <defs/>  <g id="Polygon72517">    <path d="M 13.5 9.8 L 12.7 9.8 L 12.7 8.8 C 12.7 8.8 16.33 8.78 16.3 8.8 C 17.8 8.8 18.8 9.6 18.8 10.9 C 18.8 11.9 18.3 12.5 17.7 12.8 C 17.7 12.8 17.7 12.8 17.7 12.8 C 18.6 13.1 19.1 13.9 19.1 14.8 C 19.1 16.4 17.9 17.3 16.4 17.3 C 16.4 17.3 14.3 17.3 14.3 17.3 C 13.7 17.3 13.5 17 13.5 16.5 C 13.49 16.49 13.5 9.8 13.5 9.8 Z M 16.3 12.3 C 17.1 12.3 17.6 11.8 17.6 11.1 C 17.6 10.3 17.1 9.8 16.3 9.8 C 16.32 9.82 14.7 9.8 14.7 9.8 L 14.7 12.3 C 14.7 12.3 16.34 12.35 16.3 12.3 Z M 15 16.2 C 15 16.2 16.5 16.2 16.5 16.2 C 17.4 16.2 17.9 15.6 17.9 14.8 C 17.9 13.9 17.3 13.3 16.5 13.3 C 16.46 13.33 14.7 13.3 14.7 13.3 C 14.7 13.3 14.69 15.96 14.7 16 C 14.7 16.1 14.8 16.2 15 16.2 Z M 23.4 11 C 25.2 11 26.6 12.4 26.6 14.2 C 26.6 16.1 25.2 17.4 23.4 17.4 C 21.6 17.4 20.1 16.1 20.1 14.2 C 20.1 12.4 21.6 11 23.4 11 Z M 23.4 16.4 C 24.5 16.4 25.5 15.5 25.5 14.2 C 25.5 12.9 24.5 12 23.4 12 C 22.2 12 21.3 12.9 21.3 14.2 C 21.3 15.5 22.2 16.4 23.4 16.4 Z M 28 10 C 28 9.9 27.9 9.8 27.7 9.8 C 27.7 9.78 27.2 9.8 27.2 9.8 L 27.2 8.8 C 27.2 8.8 28.36 8.78 28.4 8.8 C 28.9 8.8 29.1 9 29.1 9.6 C 29.1 9.6 29.1 16 29.1 16 C 29.1 16.2 29.2 16.3 29.4 16.3 C 29.39 16.26 29.9 16.3 29.9 16.3 L 29.9 17.3 C 29.9 17.3 28.73 17.26 28.7 17.3 C 28.2 17.3 28 17 28 16.5 C 28 16.5 28 10 28 10 Z M 33.7 11 C 35.4 11 36.3 12.3 36.3 13.9 C 36.27 14.04 36.2 14.4 36.2 14.4 C 36.2 14.4 31.81 14.36 31.8 14.4 C 31.9 15.7 32.8 16.4 33.9 16.4 C 34.94 16.39 35.7 15.7 35.7 15.7 L 36.2 16.5 C 36.2 16.5 35.28 17.4 33.8 17.4 C 31.9 17.4 30.6 16 30.6 14.2 C 30.6 12.3 31.9 11 33.7 11 Z M 35.1 13.5 C 35 12.5 34.4 12 33.6 12 C 32.8 12 32 12.5 31.9 13.5 C 31.9 13.5 35.1 13.5 35.1 13.5 Z M 37.7 15.6 C 37.7 15.6 38.45 16.45 39.6 16.5 C 40.1 16.5 40.6 16.2 40.6 15.7 C 40.6 14.6 37.3 14.7 37.3 12.7 C 37.3 11.6 38.3 11 39.6 11 C 40.3 11 41.6 11.3 41.6 12.2 C 41.55 12.22 41.6 12.8 41.6 12.8 L 40.5 12.8 C 40.5 12.8 40.51 12.49 40.5 12.5 C 40.5 12.1 40 12 39.6 12 C 38.9 12 38.5 12.2 38.5 12.7 C 38.5 13.8 41.8 13.6 41.8 15.6 C 41.8 16.7 40.8 17.4 39.6 17.4 C 37.93 17.4 37.1 16.3 37.1 16.3 L 37.7 15.6 Z M 43.3 12.1 L 42.6 12.1 L 42.6 11.2 L 43.4 11.2 L 43.4 9.5 L 44.5 9.5 L 44.5 11.2 L 46 11.2 L 46 12.1 L 44.5 12.1 C 44.5 12.1 44.51 14.9 44.5 14.9 C 44.5 16.1 45.3 16.3 45.8 16.3 C 45.96 16.27 46.1 16.2 46.1 16.2 L 46.1 17.3 C 46.1 17.3 45.91 17.3 45.7 17.3 C 44.9 17.3 43.3 17.1 43.3 15 C 43.34 15.04 43.3 12.1 43.3 12.1 Z M 46.2 8.8 C 46.3 9 46.3 9.2 46.3 9.4 C 46.3 9.7 46.2 10.1 46 10.5 C 46 10.5 45.2 10.5 45.2 10.5 C 45.3 10.1 45.4 9.8 45.4 9.5 C 45.4 9.3 45.4 9 45.3 8.8 C 45.3 8.8 46.2 8.8 46.2 8.8 Z M 54.1 13.5 C 54.14 13.48 54.4 13.5 54.4 13.5 C 54.4 13.5 54.41 13.42 54.4 13.4 C 54.4 12.3 54 12 53.1 12 C 52.8 12 52.1 12 52.1 12.4 C 52.07 12.43 52.1 12.8 52.1 12.8 L 51 12.8 C 51 12.8 50.98 12.18 51 12.2 C 51 11.2 52.5 11 53.1 11 C 55 11 55.6 12.1 55.6 13.4 C 55.6 13.4 55.6 16 55.6 16 C 55.6 16.2 55.7 16.3 55.8 16.3 C 55.83 16.26 56.3 16.3 56.3 16.3 L 56.3 17.3 C 56.3 17.3 55.23 17.26 55.2 17.3 C 54.7 17.3 54.5 17 54.5 16.6 C 54.5 16.4 54.5 16.2 54.5 16.2 C 54.5 16.2 54.5 16.2 54.5 16.2 C 54.5 16.2 54 17.4 52.5 17.4 C 51.5 17.4 50.5 16.8 50.5 15.6 C 50.5 13.6 53.1 13.5 54.1 13.5 Z M 52.8 16.5 C 53.8 16.5 54.4 15.4 54.4 14.5 C 54.42 14.53 54.4 14.3 54.4 14.3 C 54.4 14.3 54.12 14.33 54.1 14.3 C 53.2 14.3 51.7 14.4 51.7 15.5 C 51.7 16 52 16.5 52.8 16.5 Z M 57.6 10 C 57.6 9.9 57.5 9.8 57.3 9.8 C 57.3 9.78 56.8 9.8 56.8 9.8 L 56.8 8.8 C 56.8 8.8 57.96 8.78 58 8.8 C 58.5 8.8 58.7 9 58.7 9.6 C 58.7 9.6 58.7 16 58.7 16 C 58.7 16.2 58.8 16.3 59 16.3 C 58.99 16.26 59.5 16.3 59.5 16.3 L 59.5 17.3 C 59.5 17.3 58.33 17.26 58.3 17.3 C 57.8 17.3 57.6 17 57.6 16.5 C 57.6 16.5 57.6 10 57.6 10 Z M 63.3 11 C 65 11 65.9 12.3 65.9 13.9 C 65.88 14.04 65.8 14.4 65.8 14.4 C 65.8 14.4 61.41 14.36 61.4 14.4 C 61.5 15.7 62.4 16.4 63.5 16.4 C 64.55 16.39 65.3 15.7 65.3 15.7 L 65.8 16.5 C 65.8 16.5 64.88 17.4 63.4 17.4 C 61.5 17.4 60.2 16 60.2 14.2 C 60.2 12.3 61.5 11 63.3 11 Z M 64.7 13.5 C 64.6 12.5 64 12 63.3 12 C 62.4 12 61.6 12.5 61.5 13.5 C 61.5 13.5 64.7 13.5 64.7 13.5 Z M 67.4 10 C 67.4 9.9 67.3 9.8 67.1 9.8 C 67.11 9.78 66.6 9.8 66.6 9.8 L 66.6 8.8 C 66.6 8.8 67.77 8.78 67.8 8.8 C 68.3 8.8 68.5 9 68.5 9.6 C 68.5 9.6 68.5 11.5 68.5 11.5 C 68.54 11.82 68.5 12 68.5 12 L 68.5 12 C 68.5 12 69.07 11.04 70.5 11 C 72.1 11 73.2 12.3 73.2 14.2 C 73.2 16.2 72 17.4 70.4 17.4 C 69.05 17.4 68.5 16.4 68.5 16.4 L 68.5 16.4 C 68.5 16.4 68.49 16.57 68.5 16.8 C 68.49 16.84 68.5 17.3 68.5 17.3 L 67.4 17.3 C 67.4 17.3 67.38 10.04 67.4 10 Z M 70.2 16.4 C 71.2 16.4 72 15.6 72 14.2 C 72 12.9 71.3 12.1 70.3 12.1 C 69.4 12.1 68.5 12.7 68.5 14.2 C 68.5 15.3 69.1 16.4 70.2 16.4 Z M 77.3 11 C 79.1 11 80.6 12.4 80.6 14.2 C 80.6 16.1 79.1 17.4 77.3 17.4 C 75.5 17.4 74 16.1 74 14.2 C 74 12.4 75.5 11 77.3 11 Z M 77.3 16.4 C 78.5 16.4 79.4 15.5 79.4 14.2 C 79.4 12.9 78.5 12 77.3 12 C 76.2 12 75.2 12.9 75.2 14.2 C 75.2 15.5 76.2 16.4 77.3 16.4 Z M 87.9 11 C 88.7 11 90.1 11.3 90.1 12.4 C 90.12 12.37 90.1 13 90.1 13 L 89.1 13 C 89.1 13 89.06 12.66 89.1 12.7 C 89.1 12.2 88.4 12 87.9 12 C 86.7 12 85.9 12.9 85.9 14.2 C 85.9 15.6 86.9 16.4 88 16.4 C 89.13 16.37 89.9 15.5 89.9 15.5 L 90.4 16.4 C 90.4 16.4 89.52 17.4 87.9 17.4 C 86 17.4 84.7 16 84.7 14.2 C 84.7 12.4 86 11 87.9 11 Z M 91.7 8.8 L 92.8 8.8 L 92.8 10 L 91.7 10 L 91.7 8.8 Z M 91.7 12.4 C 91.7 12.3 91.6 12.2 91.5 12.2 C 91.45 12.18 91 12.2 91 12.2 L 91 11.2 C 91 11.2 92.1 11.18 92.1 11.2 C 92.6 11.2 92.9 11.4 92.9 12 C 92.9 12 92.9 16 92.9 16 C 92.9 16.2 93 16.3 93.1 16.3 C 93.13 16.26 93.6 16.3 93.6 16.3 L 93.6 17.3 C 93.6 17.3 92.48 17.26 92.5 17.3 C 91.9 17.3 91.7 17 91.7 16.5 C 91.7 16.5 91.7 12.4 91.7 12.4 Z M 95 12.1 L 94.2 12.1 L 94.2 11.2 L 95 11.2 L 95 9.5 L 96.2 9.5 L 96.2 11.2 L 97.6 11.2 L 97.6 12.1 L 96.2 12.1 C 96.2 12.1 96.16 14.9 96.2 14.9 C 96.2 16.1 97 16.3 97.4 16.3 C 97.62 16.27 97.7 16.2 97.7 16.2 L 97.7 17.3 C 97.7 17.3 97.57 17.3 97.3 17.3 C 96.5 17.3 95 17.1 95 15 C 95 15.04 95 12.1 95 12.1 Z M 99.1 10 C 99.1 9.9 99 9.8 98.8 9.8 C 98.81 9.78 98.3 9.8 98.3 9.8 L 98.3 8.8 C 98.3 8.8 99.47 8.78 99.5 8.8 C 100 8.8 100.2 9 100.2 9.6 C 100.2 9.6 100.2 16 100.2 16 C 100.2 16.2 100.3 16.3 100.5 16.3 C 100.5 16.26 101 16.3 101 16.3 L 101 17.3 C 101 17.3 99.84 17.26 99.8 17.3 C 99.3 17.3 99.1 17 99.1 16.5 C 99.1 16.5 99.1 10 99.1 10 Z M 102.4 8.8 L 103.4 8.8 L 103.4 10 L 102.4 10 L 102.4 8.8 Z M 102.4 12.4 C 102.4 12.3 102.3 12.2 102.1 12.2 C 102.11 12.18 101.6 12.2 101.6 12.2 L 101.6 11.2 C 101.6 11.2 102.75 11.18 102.8 11.2 C 103.3 11.2 103.5 11.4 103.5 12 C 103.5 12 103.5 16 103.5 16 C 103.5 16.2 103.6 16.3 103.8 16.3 C 103.78 16.26 104.3 16.3 104.3 16.3 L 104.3 17.3 C 104.3 17.3 103.14 17.26 103.1 17.3 C 102.6 17.3 102.4 17 102.4 16.5 C 102.4 16.5 102.4 12.4 102.4 12.4 Z M 105.2 12.4 C 105.1 12.2 105 12.2 104.8 12.2 C 104.81 12.18 104.7 12.2 104.7 12.2 L 104.7 11.2 C 104.7 11.2 105.29 11.18 105.3 11.2 C 105.8 11.2 106 11.3 106.2 11.8 C 106.2 11.8 107.5 15.3 107.5 15.3 C 107.64 15.62 107.7 16.1 107.7 16.1 L 107.8 16.1 C 107.8 16.1 107.85 15.62 108 15.3 C 108 15.3 109.3 11.8 109.3 11.8 C 109.4 11.3 109.7 11.2 110.2 11.2 C 110.19 11.18 110.8 11.2 110.8 11.2 L 110.8 12.2 C 110.8 12.2 110.64 12.18 110.6 12.2 C 110.4 12.2 110.3 12.2 110.2 12.4 C 110.24 12.42 108.4 17.3 108.4 17.3 L 107 17.3 C 107 17.3 105.18 12.42 105.2 12.4 Z M 114.5 11 C 116.3 11 117.8 12.4 117.8 14.2 C 117.8 16.1 116.3 17.4 114.5 17.4 C 112.7 17.4 111.2 16.1 111.2 14.2 C 111.2 12.4 112.7 11 114.5 11 Z M 114.5 16.4 C 115.6 16.4 116.6 15.5 116.6 14.2 C 116.6 12.9 115.6 12 114.5 12 C 113.3 12 112.4 12.9 112.4 14.2 C 112.4 15.5 113.3 16.4 114.5 16.4 Z M 119.1 15.6 C 119.1 15.6 119.84 16.45 121 16.5 C 121.5 16.5 122 16.2 122 15.7 C 122 14.6 118.7 14.7 118.7 12.7 C 118.7 11.6 119.7 11 121 11 C 121.7 11 122.9 11.3 122.9 12.2 C 122.95 12.22 122.9 12.8 122.9 12.8 L 121.9 12.8 C 121.9 12.8 121.91 12.49 121.9 12.5 C 121.9 12.1 121.4 12 121 12 C 120.3 12 119.9 12.2 119.9 12.7 C 119.9 13.8 123.2 13.6 123.2 15.6 C 123.2 16.7 122.2 17.4 120.9 17.4 C 119.33 17.4 118.5 16.3 118.5 16.3 L 119.1 15.6 Z M 124.7 12.1 L 123.9 12.1 L 123.9 11.2 L 124.8 11.2 L 124.8 9.5 L 125.9 9.5 L 125.9 11.2 L 127.4 11.2 L 127.4 12.1 L 125.9 12.1 C 125.9 12.1 125.9 14.9 125.9 14.9 C 125.9 16.1 126.7 16.3 127.2 16.3 C 127.35 16.27 127.5 16.2 127.5 16.2 L 127.5 17.3 C 127.5 17.3 127.3 17.3 127.1 17.3 C 126.3 17.3 124.7 17.1 124.7 15 C 124.74 15.04 124.7 12.1 124.7 12.1 Z M 127.6 8.8 C 127.7 9 127.7 9.2 127.7 9.4 C 127.7 9.7 127.6 10.1 127.4 10.5 C 127.4 10.5 126.6 10.5 126.6 10.5 C 126.7 10.1 126.8 9.8 126.8 9.5 C 126.8 9.3 126.8 9 126.7 8.8 C 126.7 8.8 127.6 8.8 127.6 8.8 Z M 132.5 12.4 C 132.5 12.3 132.4 12.2 132.2 12.2 C 132.19 12.18 131.7 12.2 131.7 12.2 L 131.7 11.2 C 131.7 11.2 132.79 11.18 132.8 11.2 C 133.3 11.2 133.5 11.4 133.5 11.8 C 133.5 12 133.5 12.1 133.5 12.1 C 133.52 12.12 133.5 12.1 133.5 12.1 C 133.5 12.1 134.05 11.04 135.6 11 C 137.2 11 138.2 12.3 138.2 14.2 C 138.2 16.2 137.1 17.4 135.5 17.4 C 134.13 17.4 133.6 16.4 133.6 16.4 L 133.6 16.4 C 133.6 16.4 133.62 16.64 133.6 17 C 133.62 16.96 133.6 19.7 133.6 19.7 L 132.5 19.7 C 132.5 19.7 132.45 12.44 132.5 12.4 Z M 135.3 16.4 C 136.3 16.4 137.1 15.6 137.1 14.2 C 137.1 12.9 136.3 12.1 135.3 12.1 C 134.4 12.1 133.6 12.7 133.6 14.2 C 133.6 15.3 134.2 16.4 135.3 16.4 Z M 139.7 12.4 C 139.7 12.3 139.6 12.2 139.4 12.2 C 139.44 12.18 138.9 12.2 138.9 12.2 L 138.9 11.2 C 138.9 11.2 140.05 11.18 140 11.2 C 140.6 11.2 140.8 11.4 140.8 11.9 C 140.8 11.9 140.8 12.3 140.8 12.3 C 140.83 12.52 140.8 12.7 140.8 12.7 C 140.8 12.7 140.83 12.7 140.8 12.7 C 141.1 11.8 141.8 11.1 142.7 11.1 C 142.9 11.11 143.1 11.1 143.1 11.1 L 143.1 12.3 C 143.1 12.3 142.9 12.25 142.7 12.3 C 142 12.3 141.3 12.8 141 13.7 C 140.9 14 140.9 14.4 140.9 14.8 C 140.86 14.77 140.9 17.3 140.9 17.3 L 139.7 17.3 C 139.7 17.3 139.7 12.44 139.7 12.4 Z M 141.5 8.8 L 142.7 8.8 L 141.5 10.3 L 140.6 10.3 L 141.5 8.8 Z M 144.2 15.6 C 144.2 15.6 144.93 16.45 146 16.5 C 146.6 16.5 147.1 16.2 147.1 15.7 C 147.1 14.6 143.8 14.7 143.8 12.7 C 143.8 11.6 144.8 11 146 11 C 146.8 11 148 11.3 148 12.2 C 148.04 12.22 148 12.8 148 12.8 L 147 12.8 C 147 12.8 147 12.49 147 12.5 C 147 12.1 146.5 12 146.1 12 C 145.4 12 145 12.2 145 12.7 C 145 13.8 148.3 13.6 148.3 15.6 C 148.3 16.7 147.3 17.4 146 17.4 C 144.42 17.4 143.6 16.3 143.6 16.3 L 144.2 15.6 Z " stroke="none" fill="#000"/>  </g></svg>