<?xml version="1.0" standalone="no"?><!DOCTYPE svg PUBLIC "-//W3C//DTD SVG 1.1//EN" "http://www.w3.org/Graphics/SVG/1.1/DTD/svg11.dtd"><svg xmlns="http://www.w3.org/2000/svg" version="1.1" width="558px" height="49.5px" viewBox="0 -5 558 49.5" style="top:-5px">  <desc>Dodr iavanie u vania lie by</desc>  <defs/>  <g id="Polygon65747">    <path d="M 3.2 3.3 L 1.3 3.3 L 1.3 1.4 C 1.3 1.4 9.72 1.41 9.7 1.4 C 16.1 1.4 20.3 5.3 20.3 11.9 C 20.3 18.7 16.1 22.5 9.7 22.5 C 9.7 22.5 5 22.5 5 22.5 C 3.8 22.5 3.2 22 3.2 20.7 C 3.21 20.67 3.2 3.3 3.2 3.3 Z M 6 20.6 C 6 20.6 9.5 20.6 9.5 20.6 C 14.7 20.6 18.1 17.6 18.1 11.9 C 18.1 6.3 14.7 3.3 9.5 3.3 C 9.51 3.27 5.3 3.3 5.3 3.3 C 5.3 3.3 5.31 19.98 5.3 20 C 5.3 20.4 5.5 20.6 6 20.6 Z M 30.7 7.1 C 35.2 7.1 38.7 10.4 38.7 14.9 C 38.7 19.4 35.2 22.9 30.8 22.9 C 26.4 22.9 22.8 19.4 22.8 14.9 C 22.8 10.4 26.4 7.1 30.7 7.1 Z M 30.8 21 C 34 21 36.6 18.4 36.6 14.9 C 36.6 11.5 34 8.9 30.8 8.9 C 27.5 8.9 24.9 11.5 24.9 14.9 C 24.9 18.4 27.5 21 30.8 21 Z M 48 7.1 C 51.63 7.05 52.9 9.9 52.9 9.9 L 52.9 9.9 C 52.9 9.9 52.89 9.36 52.9 8.7 C 52.9 8.7 52.9 3.8 52.9 3.8 C 52.9 3.4 52.6 3.2 52.2 3.2 C 52.23 3.18 51 3.2 51 3.2 L 51 1.4 C 51 1.4 53.1 1.41 53.1 1.4 C 54.4 1.4 54.9 2 54.9 3.2 C 54.9 3.2 54.9 20.1 54.9 20.1 C 54.9 20.5 55.2 20.7 55.6 20.7 C 55.59 20.73 56.8 20.7 56.8 20.7 L 56.8 22.5 C 56.8 22.5 54.75 22.5 54.7 22.5 C 53.5 22.5 52.9 21.9 52.9 20.8 C 52.95 20.25 53 19.9 53 19.9 L 52.9 19.9 C 52.9 19.9 51.72 22.86 47.8 22.9 C 43.7 22.9 41.2 19.6 41.2 14.9 C 41.2 10.2 44 7.1 48 7.1 Z M 52.9 14.9 C 52.9 11.9 51.4 8.9 48.1 8.9 C 45.5 8.9 43.3 11.1 43.3 14.9 C 43.3 18.7 45.2 21 48.1 21 C 50.6 21 52.9 19.2 52.9 14.9 Z M 60.2 9.8 C 60.2 9.4 59.9 9.2 59.5 9.2 C 59.52 9.18 58.3 9.2 58.3 9.2 L 58.3 7.4 C 58.3 7.4 60.36 7.41 60.4 7.4 C 61.6 7.4 62.2 7.9 62.2 9.1 C 62.2 9.1 62.2 10.1 62.2 10.1 C 62.19 10.77 62.1 11.3 62.1 11.3 C 62.1 11.3 62.19 11.28 62.2 11.3 C 62.9 9 64.6 7.3 67 7.3 C 67.38 7.26 67.8 7.4 67.8 7.4 L 67.8 9.4 C 67.8 9.4 67.41 9.3 67 9.3 C 64.9 9.3 63.3 11 62.6 13.2 C 62.3 14.2 62.2 15.2 62.2 16.1 C 62.22 16.14 62.2 22.5 62.2 22.5 L 60.2 22.5 C 60.2 22.5 60.18 9.84 60.2 9.8 Z M 69.6 21.2 C 69.6 21.2 78.09 10.59 78.1 10.6 C 78.66 9.87 79.3 9.2 79.3 9.2 L 79.3 9.2 C 79.3 9.2 78.78 9.21 77.8 9.2 C 77.8 9.2 72.3 9.2 72.3 9.2 C 71.8 9.2 71.6 9.4 71.6 9.9 C 71.61 9.87 71.6 11 71.6 11 L 69.7 11 C 69.7 11 69.69 9.24 69.7 9.2 C 69.7 8 70.2 7.4 71.5 7.4 C 71.52 7.41 82 7.4 82 7.4 L 82 8.8 C 82 8.8 73.53 19.32 73.5 19.3 C 72.93 20.04 72.3 20.7 72.3 20.7 L 72.3 20.8 C 72.3 20.8 72.81 20.7 73.8 20.7 C 73.8 20.7 80 20.7 80 20.7 C 80.5 20.7 80.7 20.5 80.7 20 C 80.7 20.04 80.7 18.9 80.7 18.9 L 82.6 18.9 C 82.6 18.9 82.62 20.67 82.6 20.7 C 82.6 22 82.1 22.5 80.8 22.5 C 80.79 22.5 69.6 22.5 69.6 22.5 L 69.6 21.2 Z M 72.6 1.4 L 74.5 1.4 L 76.1 3.8 L 76.2 3.8 L 77.8 1.4 L 79.7 1.4 L 77.2 5 L 75.1 5 L 72.6 1.4 Z M 86.1 1.4 L 88.1 1.4 L 88.1 4 L 86.1 4 L 86.1 1.4 Z M 86.2 9.8 C 86.2 9.4 85.9 9.2 85.5 9.2 C 85.5 9.18 84.2 9.2 84.2 9.2 L 84.2 7.4 C 84.2 7.4 86.37 7.41 86.4 7.4 C 87.7 7.4 88.2 8 88.2 9.2 C 88.2 9.2 88.2 20.1 88.2 20.1 C 88.2 20.5 88.4 20.7 88.9 20.7 C 88.86 20.73 90.1 20.7 90.1 20.7 L 90.1 22.5 C 90.1 22.5 87.99 22.5 88 22.5 C 86.7 22.5 86.2 22 86.2 20.7 C 86.2 20.7 86.2 9.8 86.2 9.8 Z M 101.4 13.2 C 101.37 13.2 102.2 13.2 102.2 13.2 C 102.2 13.2 102.21 13.02 102.2 13 C 102.2 9.9 101.1 8.8 98.3 8.8 C 97.6 8.8 95.4 9 95.4 10.1 C 95.37 10.08 95.4 11 95.4 11 L 93.4 11 C 93.4 11 93.42 9.6 93.4 9.6 C 93.4 7.5 97 7.1 98.3 7.1 C 103.1 7.1 104.2 9.6 104.2 12.8 C 104.2 12.8 104.2 20.1 104.2 20.1 C 104.2 20.5 104.5 20.7 104.9 20.7 C 104.91 20.73 106.2 20.7 106.2 20.7 L 106.2 22.5 C 106.2 22.5 104.1 22.5 104.1 22.5 C 102.8 22.5 102.3 21.9 102.3 20.7 C 102.3 20.04 102.3 19.6 102.3 19.6 C 102.3 19.6 102.27 19.59 102.3 19.6 C 102.3 19.6 101 22.9 97.3 22.9 C 94.7 22.9 92.1 21.4 92.1 18.4 C 92.1 13.4 98.8 13.2 101.4 13.2 Z M 97.6 21.1 C 100.5 21.1 102.2 18.1 102.2 15.5 C 102.21 15.51 102.2 14.8 102.2 14.8 C 102.2 14.8 101.34 14.82 101.3 14.8 C 99 14.8 94.2 14.9 94.2 18.3 C 94.2 19.7 95.3 21.1 97.6 21.1 Z M 108.2 9.9 C 108 9.3 107.7 9.2 107.1 9.2 C 107.13 9.18 106.9 9.2 106.9 9.2 L 106.9 7.4 C 106.9 7.4 107.67 7.41 107.7 7.4 C 109.1 7.4 109.6 7.7 110.1 9.1 C 110.1 9.1 113.7 18.5 113.7 18.5 C 113.97 19.23 114.2 20.3 114.2 20.3 L 114.3 20.3 C 114.3 20.3 114.51 19.23 114.8 18.5 C 114.8 18.5 118.4 9.1 118.4 9.1 C 118.9 7.7 119.4 7.4 120.8 7.4 C 120.78 7.41 121.6 7.4 121.6 7.4 L 121.6 9.2 C 121.6 9.2 121.29 9.18 121.3 9.2 C 120.7 9.2 120.4 9.3 120.2 9.9 C 120.24 9.87 115.3 22.5 115.3 22.5 L 113.1 22.5 C 113.1 22.5 108.18 9.87 108.2 9.9 Z M 132.3 13.2 C 132.27 13.2 133.1 13.2 133.1 13.2 C 133.1 13.2 133.11 13.02 133.1 13 C 133.1 9.9 132 8.8 129.2 8.8 C 128.5 8.8 126.3 9 126.3 10.1 C 126.27 10.08 126.3 11 126.3 11 L 124.3 11 C 124.3 11 124.32 9.6 124.3 9.6 C 124.3 7.5 127.9 7.1 129.2 7.1 C 134 7.1 135.1 9.6 135.1 12.8 C 135.1 12.8 135.1 20.1 135.1 20.1 C 135.1 20.5 135.4 20.7 135.8 20.7 C 135.81 20.73 137.1 20.7 137.1 20.7 L 137.1 22.5 C 137.1 22.5 135 22.5 135 22.5 C 133.7 22.5 133.2 21.9 133.2 20.7 C 133.2 20.04 133.2 19.6 133.2 19.6 C 133.2 19.6 133.17 19.59 133.2 19.6 C 133.2 19.6 131.9 22.9 128.2 22.9 C 125.6 22.9 123 21.4 123 18.4 C 123 13.4 129.7 13.2 132.3 13.2 Z M 128.5 21.1 C 131.4 21.1 133.1 18.1 133.1 15.5 C 133.11 15.51 133.1 14.8 133.1 14.8 C 133.1 14.8 132.24 14.82 132.2 14.8 C 129.9 14.8 125.1 14.9 125.1 18.3 C 125.1 19.7 126.2 21.1 128.5 21.1 Z M 140.3 9.8 C 140.3 9.4 140.1 9.2 139.6 9.2 C 139.65 9.18 138.4 9.2 138.4 9.2 L 138.4 7.4 C 138.4 7.4 140.49 7.41 140.5 7.4 C 141.7 7.4 142.3 8 142.3 9.1 C 142.3 9.1 142.3 9.8 142.3 9.8 C 142.32 10.38 142.3 10.9 142.3 10.9 C 142.3 10.9 142.32 10.86 142.3 10.9 C 142.9 9.5 144.8 7.1 148.3 7.1 C 152.1 7.1 153.4 9.2 153.4 12.9 C 153.4 12.9 153.4 20.1 153.4 20.1 C 153.4 20.5 153.6 20.7 154 20.7 C 154.05 20.73 155.3 20.7 155.3 20.7 L 155.3 22.5 C 155.3 22.5 153.18 22.5 153.2 22.5 C 151.9 22.5 151.3 22 151.3 20.7 C 151.3 20.7 151.3 13.4 151.3 13.4 C 151.3 11.1 151 9 148.1 9 C 145.5 9 143.3 10.7 142.6 13.2 C 142.4 13.9 142.3 14.6 142.3 15.3 C 142.35 15.27 142.3 22.5 142.3 22.5 L 140.3 22.5 C 140.3 22.5 140.31 9.84 140.3 9.8 Z M 158.6 1.4 L 160.6 1.4 L 160.6 4 L 158.6 4 L 158.6 1.4 Z M 158.7 9.8 C 158.7 9.4 158.5 9.2 158 9.2 C 158.04 9.18 156.8 9.2 156.8 9.2 L 156.8 7.4 C 156.8 7.4 158.91 7.41 158.9 7.4 C 160.2 7.4 160.7 8 160.7 9.2 C 160.7 9.2 160.7 20.1 160.7 20.1 C 160.7 20.5 161 20.7 161.4 20.7 C 161.4 20.73 162.7 20.7 162.7 20.7 L 162.7 22.5 C 162.7 22.5 160.53 22.5 160.5 22.5 C 159.2 22.5 158.7 22 158.7 20.7 C 158.7 20.7 158.7 9.8 158.7 9.8 Z M 172.1 7.1 C 176.3 7.1 178.4 10.3 178.4 14 C 178.44 14.37 178.4 15 178.4 15 C 178.4 15 166.8 15.03 166.8 15 C 166.9 18.8 169.5 21 172.6 21 C 175.41 21.03 177.2 19.2 177.2 19.2 L 178.2 20.7 C 178.2 20.7 175.98 22.86 172.6 22.9 C 168.1 22.9 164.7 19.6 164.7 15 C 164.7 10 168.1 7.1 172.1 7.1 Z M 176.3 13.4 C 176.2 10.3 174.3 8.8 172.1 8.8 C 169.6 8.8 167.4 10.4 166.9 13.4 C 166.9 13.4 176.3 13.4 176.3 13.4 Z M 190.6 9.8 C 190.6 9.4 190.4 9.2 190 9.2 C 189.96 9.18 188.7 9.2 188.7 9.2 L 188.7 7.4 C 188.7 7.4 190.83 7.41 190.8 7.4 C 192.1 7.4 192.7 8 192.7 9.2 C 192.7 9.2 192.7 16.5 192.7 16.5 C 192.7 18.8 193 20.9 196 20.9 C 199.4 20.9 201.5 17.9 201.5 14.6 C 201.51 14.64 201.5 7.4 201.5 7.4 L 203.5 7.4 C 203.5 7.4 203.55 20.07 203.5 20.1 C 203.5 20.5 203.8 20.7 204.2 20.7 C 204.21 20.73 205.5 20.7 205.5 20.7 L 205.5 22.5 C 205.5 22.5 203.4 22.5 203.4 22.5 C 202.1 22.5 201.6 22 201.6 20.8 C 201.6 20.8 201.6 20.1 201.6 20.1 C 201.57 19.53 201.6 19.1 201.6 19.1 C 201.6 19.1 201.57 19.05 201.6 19.1 C 201 20.5 199 22.9 195.7 22.9 C 192.1 22.9 190.6 20.9 190.6 17 C 190.6 17 190.6 9.8 190.6 9.8 Z M 207.3 21.2 C 207.3 21.2 215.82 10.59 215.8 10.6 C 216.39 9.87 217 9.2 217 9.2 L 217 9.2 C 217 9.2 216.51 9.21 215.5 9.2 C 215.5 9.2 210 9.2 210 9.2 C 209.6 9.2 209.3 9.4 209.3 9.9 C 209.34 9.87 209.3 11 209.3 11 L 207.4 11 C 207.4 11 207.42 9.24 207.4 9.2 C 207.4 8 208 7.4 209.2 7.4 C 209.25 7.41 219.7 7.4 219.7 7.4 L 219.7 8.8 C 219.7 8.8 211.26 19.32 211.3 19.3 C 210.66 20.04 210 20.7 210 20.7 L 210 20.8 C 210 20.8 210.54 20.7 211.5 20.7 C 211.5 20.7 217.8 20.7 217.8 20.7 C 218.2 20.7 218.4 20.5 218.4 20 C 218.43 20.04 218.4 18.9 218.4 18.9 L 220.3 18.9 C 220.3 18.9 220.35 20.67 220.3 20.7 C 220.3 22 219.8 22.5 218.5 22.5 C 218.52 22.5 207.3 22.5 207.3 22.5 L 207.3 21.2 Z M 210.3 1.4 L 212.2 1.4 L 213.9 3.8 L 213.9 3.8 L 215.5 1.4 L 217.4 1.4 L 214.9 5 L 212.8 5 L 210.3 1.4 Z M 223.9 9.8 C 223.9 9.4 223.7 9.2 223.3 9.2 C 223.26 9.18 222 9.2 222 9.2 L 222 7.4 C 222 7.4 224.13 7.41 224.1 7.4 C 225.4 7.4 226 8 226 9.2 C 226 9.2 226 20.1 226 20.1 C 226 20.5 226.2 20.7 226.6 20.7 C 226.62 20.73 227.9 20.7 227.9 20.7 L 227.9 22.5 C 227.9 22.5 225.75 22.5 225.7 22.5 C 224.5 22.5 223.9 22 223.9 20.7 C 223.9 20.7 223.9 9.8 223.9 9.8 Z M 225.9 1.4 L 228.2 1.4 L 225.6 5 L 223.8 5 L 225.9 1.4 Z M 230.3 9.9 C 230.1 9.3 229.8 9.2 229.2 9.2 C 229.23 9.18 229 9.2 229 9.2 L 229 7.4 C 229 7.4 229.77 7.41 229.8 7.4 C 231.2 7.4 231.7 7.7 232.2 9.1 C 232.2 9.1 235.8 18.5 235.8 18.5 C 236.07 19.23 236.3 20.3 236.3 20.3 L 236.4 20.3 C 236.4 20.3 236.61 19.23 236.9 18.5 C 236.9 18.5 240.5 9.1 240.5 9.1 C 241 7.7 241.5 7.4 242.9 7.4 C 242.88 7.41 243.7 7.4 243.7 7.4 L 243.7 9.2 C 243.7 9.2 243.39 9.18 243.4 9.2 C 242.8 9.2 242.5 9.3 242.3 9.9 C 242.34 9.87 237.4 22.5 237.4 22.5 L 235.2 22.5 C 235.2 22.5 230.28 9.87 230.3 9.9 Z M 254.4 13.2 C 254.37 13.2 255.2 13.2 255.2 13.2 C 255.2 13.2 255.21 13.02 255.2 13 C 255.2 9.9 254.1 8.8 251.3 8.8 C 250.6 8.8 248.4 9 248.4 10.1 C 248.37 10.08 248.4 11 248.4 11 L 246.4 11 C 246.4 11 246.42 9.6 246.4 9.6 C 246.4 7.5 250 7.1 251.3 7.1 C 256.1 7.1 257.2 9.6 257.2 12.8 C 257.2 12.8 257.2 20.1 257.2 20.1 C 257.2 20.5 257.5 20.7 257.9 20.7 C 257.91 20.73 259.2 20.7 259.2 20.7 L 259.2 22.5 C 259.2 22.5 257.1 22.5 257.1 22.5 C 255.8 22.5 255.3 21.9 255.3 20.7 C 255.3 20.04 255.3 19.6 255.3 19.6 C 255.3 19.6 255.27 19.59 255.3 19.6 C 255.3 19.6 254 22.9 250.3 22.9 C 247.7 22.9 245.1 21.4 245.1 18.4 C 245.1 13.4 251.8 13.2 254.4 13.2 Z M 250.6 21.1 C 253.5 21.1 255.2 18.1 255.2 15.5 C 255.21 15.51 255.2 14.8 255.2 14.8 C 255.2 14.8 254.34 14.82 254.3 14.8 C 252 14.8 247.2 14.9 247.2 18.3 C 247.2 19.7 248.3 21.1 250.6 21.1 Z M 262.4 9.8 C 262.4 9.4 262.2 9.2 261.7 9.2 C 261.75 9.18 260.5 9.2 260.5 9.2 L 260.5 7.4 C 260.5 7.4 262.59 7.41 262.6 7.4 C 263.8 7.4 264.4 8 264.4 9.1 C 264.4 9.1 264.4 9.8 264.4 9.8 C 264.42 10.38 264.4 10.9 264.4 10.9 C 264.4 10.9 264.42 10.86 264.4 10.9 C 265 9.5 266.9 7.1 270.4 7.1 C 274.2 7.1 275.5 9.2 275.5 12.9 C 275.5 12.9 275.5 20.1 275.5 20.1 C 275.5 20.5 275.7 20.7 276.1 20.7 C 276.15 20.73 277.4 20.7 277.4 20.7 L 277.4 22.5 C 277.4 22.5 275.28 22.5 275.3 22.5 C 274 22.5 273.4 22 273.4 20.7 C 273.4 20.7 273.4 13.4 273.4 13.4 C 273.4 11.1 273.1 9 270.2 9 C 267.6 9 265.4 10.7 264.7 13.2 C 264.5 13.9 264.4 14.6 264.4 15.3 C 264.45 15.27 264.4 22.5 264.4 22.5 L 262.4 22.5 C 262.4 22.5 262.41 9.84 262.4 9.8 Z M 280.7 1.4 L 282.7 1.4 L 282.7 4 L 280.7 4 L 280.7 1.4 Z M 280.8 9.8 C 280.8 9.4 280.6 9.2 280.1 9.2 C 280.14 9.18 278.9 9.2 278.9 9.2 L 278.9 7.4 C 278.9 7.4 281.01 7.41 281 7.4 C 282.3 7.4 282.8 8 282.8 9.2 C 282.8 9.2 282.8 20.1 282.8 20.1 C 282.8 20.5 283.1 20.7 283.5 20.7 C 283.5 20.73 284.8 20.7 284.8 20.7 L 284.8 22.5 C 284.8 22.5 282.63 22.5 282.6 22.5 C 281.3 22.5 280.8 22 280.8 20.7 C 280.8 20.7 280.8 9.8 280.8 9.8 Z M 296 13.2 C 296.01 13.2 296.8 13.2 296.8 13.2 C 296.8 13.2 296.85 13.02 296.8 13 C 296.8 9.9 295.7 8.8 292.9 8.8 C 292.2 8.8 290 9 290 10.1 C 290.01 10.08 290 11 290 11 L 288.1 11 C 288.1 11 288.06 9.6 288.1 9.6 C 288.1 7.5 291.7 7.1 293 7.1 C 297.7 7.1 298.9 9.6 298.9 12.8 C 298.9 12.8 298.9 20.1 298.9 20.1 C 298.9 20.5 299.1 20.7 299.5 20.7 C 299.55 20.73 300.8 20.7 300.8 20.7 L 300.8 22.5 C 300.8 22.5 298.74 22.5 298.7 22.5 C 297.4 22.5 296.9 21.9 296.9 20.7 C 296.94 20.04 297 19.6 297 19.6 C 297 19.6 296.91 19.59 296.9 19.6 C 296.9 19.6 295.7 22.9 291.9 22.9 C 289.4 22.9 286.8 21.4 286.8 18.4 C 286.8 13.4 293.4 13.2 296 13.2 Z M 292.2 21.1 C 295.1 21.1 296.8 18.1 296.8 15.5 C 296.85 15.51 296.8 14.8 296.8 14.8 C 296.8 14.8 295.98 14.82 296 14.8 C 293.6 14.8 288.9 14.9 288.9 18.3 C 288.9 19.7 290 21.1 292.2 21.1 Z M 312.2 3.8 C 312.2 3.4 311.9 3.2 311.5 3.2 C 311.52 3.18 310.3 3.2 310.3 3.2 L 310.3 1.4 C 310.3 1.4 312.39 1.41 312.4 1.4 C 313.7 1.4 314.2 2 314.2 3.2 C 314.2 3.2 314.2 20.1 314.2 20.1 C 314.2 20.5 314.5 20.7 314.9 20.7 C 314.88 20.73 316.1 20.7 316.1 20.7 L 316.1 22.5 C 316.1 22.5 314.01 22.5 314 22.5 C 312.7 22.5 312.2 22 312.2 20.7 C 312.2 20.7 312.2 3.8 312.2 3.8 Z M 319.6 1.4 L 321.6 1.4 L 321.6 4 L 319.6 4 L 319.6 1.4 Z M 319.7 9.8 C 319.7 9.4 319.5 9.2 319 9.2 C 319.05 9.18 317.8 9.2 317.8 9.2 L 317.8 7.4 C 317.8 7.4 319.92 7.41 319.9 7.4 C 321.2 7.4 321.7 8 321.7 9.2 C 321.7 9.2 321.7 20.1 321.7 20.1 C 321.7 20.5 322 20.7 322.4 20.7 C 322.41 20.73 323.7 20.7 323.7 20.7 L 323.7 22.5 C 323.7 22.5 321.54 22.5 321.5 22.5 C 320.2 22.5 319.7 22 319.7 20.7 C 319.7 20.7 319.7 9.8 319.7 9.8 Z M 333.1 7.1 C 337.3 7.1 339.4 10.3 339.4 14 C 339.45 14.37 339.4 15 339.4 15 C 339.4 15 327.81 15.03 327.8 15 C 327.9 18.8 330.5 21 333.7 21 C 336.42 21.03 338.2 19.2 338.2 19.2 L 339.2 20.7 C 339.2 20.7 336.99 22.86 333.6 22.9 C 329.1 22.9 325.7 19.6 325.7 15 C 325.7 10 329.1 7.1 333.1 7.1 Z M 337.3 13.4 C 337.2 10.3 335.3 8.8 333.1 8.8 C 330.6 8.8 328.4 10.4 327.9 13.4 C 327.9 13.4 337.3 13.4 337.3 13.4 Z M 350.1 7.1 C 351.8 7.1 355.4 7.8 355.4 10.3 C 355.43 10.26 355.4 11.6 355.4 11.6 L 353.5 11.6 C 353.5 11.6 353.51 10.74 353.5 10.7 C 353.5 9.5 351.3 8.9 350.1 8.9 C 346.8 8.9 344.2 11.3 344.2 15 C 344.2 18.7 346.9 21 350.1 21 C 353.21 21 355 18.9 355 18.9 L 355.9 20.4 C 355.9 20.4 353.9 22.86 350 22.9 C 345.5 22.9 342.1 19.7 342.1 15 C 342.1 10.4 345.6 7.1 350.1 7.1 Z M 346.1 1.4 L 348 1.4 L 349.6 3.8 L 349.7 3.8 L 351.3 1.4 L 353.2 1.4 L 350.7 5 L 348.6 5 L 346.1 1.4 Z M 359.3 3.8 C 359.3 3.4 359 3.2 358.6 3.2 C 358.61 3.18 357.4 3.2 357.4 3.2 L 357.4 1.4 C 357.4 1.4 359.48 1.41 359.5 1.4 C 360.8 1.4 361.3 2 361.3 3.2 C 361.3 3.2 361.3 8.7 361.3 8.7 C 361.31 9.39 361.3 9.9 361.3 9.9 L 361.3 9.9 C 361.3 9.9 362.57 7.05 366.4 7.1 C 370.5 7.1 373 10.3 373 15 C 373 19.7 370.2 22.9 366.2 22.9 C 362.6 22.86 361.3 20 361.3 20 L 361.2 20 C 361.2 20 361.25 20.46 361.3 21.2 C 361.25 21.18 361.3 22.5 361.3 22.5 L 359.3 22.5 C 359.3 22.5 359.27 3.84 359.3 3.8 Z M 366.1 21.1 C 368.7 21.1 370.9 18.8 370.9 15 C 370.9 11.3 368.9 8.9 366.1 8.9 C 363.6 8.9 361.3 10.7 361.3 15 C 361.3 18 362.8 21.1 366.1 21.1 Z M 377.4 27 C 378.7 27 379.6 25.9 380.2 24.5 C 380.22 24.51 381.1 22.4 381.1 22.4 C 381.1 22.4 375.81 9.87 375.8 9.9 C 375.6 9.3 375.3 9.2 374.8 9.2 C 374.76 9.18 374.5 9.2 374.5 9.2 L 374.5 7.4 C 374.5 7.4 375.39 7.41 375.4 7.4 C 376.7 7.4 377.2 7.7 377.7 9.1 C 377.7 9.1 381.6 18.5 381.6 18.5 C 381.87 19.23 382.1 20.1 382.1 20.1 L 382.2 20.1 C 382.2 20.1 382.38 19.23 382.7 18.5 C 382.7 18.5 386.4 9.1 386.4 9.1 C 386.9 7.7 387.4 7.4 388.7 7.4 C 388.74 7.41 389.7 7.4 389.7 7.4 L 389.7 9.2 C 389.7 9.2 389.37 9.18 389.4 9.2 C 388.8 9.2 388.5 9.3 388.3 9.9 C 388.3 9.9 381.8 25.6 381.8 25.6 C 381 27.6 379.5 28.8 377.5 28.8 C 375.39 28.8 374.2 27.3 374.2 27.3 C 374.2 27.3 375.18 25.83 375.2 25.8 C 375.2 25.9 376.1 27 377.4 27 Z " stroke="none" fill="#ee3078"/>  </g></svg>