<?xml version="1.0" standalone="no"?><!DOCTYPE svg PUBLIC "-//W3C//DTD SVG 1.1//EN" "http://www.w3.org/Graphics/SVG/1.1/DTD/svg11.dtd"><svg xmlns="http://www.w3.org/2000/svg" version="1.1" width="53px" height="34.5px" viewBox="0 -2 53 34.5" style="top:-2px">  <desc>E4 15 mg/DRSP 3 mg</desc>  <defs/>  <g id="Polygon75891">    <path d="M 2.1 13.3 L 1.4 13.3 L 1.4 12.4 C 1.4 12.4 4.28 12.44 4.3 12.4 C 6.4 12.4 7.9 13.7 7.9 16 C 7.9 18.2 6.4 19.5 4.3 19.5 C 4.3 19.5 2.7 19.5 2.7 19.5 C 2.3 19.5 2.1 19.3 2.1 18.9 C 2.07 18.86 2.1 13.3 2.1 13.3 Z M 3.3 18.6 C 3.3 18.6 4.2 18.6 4.2 18.6 C 5.8 18.6 6.8 17.7 6.8 16 C 6.8 14.2 5.8 13.3 4.2 13.3 C 4.21 13.3 3.1 13.3 3.1 13.3 C 3.1 13.3 3.07 18.42 3.1 18.4 C 3.1 18.6 3.2 18.6 3.3 18.6 Z M 9.2 13.3 L 8.6 13.3 L 8.6 12.4 C 8.6 12.4 11.65 12.44 11.7 12.4 C 12.9 12.4 13.8 13.2 13.8 14.5 C 13.8 15.7 13 16.3 12.5 16.4 C 12.49 16.38 12.5 16.4 12.5 16.4 C 12.5 16.4 12.67 16.49 12.8 16.7 C 12.8 16.7 13.6 18.4 13.6 18.4 C 13.7 18.6 13.9 18.6 14.1 18.6 C 14.14 18.64 14.3 18.6 14.3 18.6 L 14.3 19.5 C 14.3 19.5 13.78 19.5 13.8 19.5 C 13.2 19.5 13 19.4 12.8 19 C 12.8 19 11.8 17.1 11.8 17.1 C 11.7 16.7 11.5 16.7 11.1 16.7 C 11.14 16.69 10.2 16.7 10.2 16.7 L 10.2 19.5 L 9.2 19.5 L 9.2 13.3 Z M 11.5 15.8 C 12.3 15.8 12.7 15.3 12.7 14.6 C 12.7 13.8 12.3 13.3 11.5 13.3 C 11.54 13.3 10.2 13.3 10.2 13.3 L 10.2 15.8 C 10.2 15.8 11.52 15.83 11.5 15.8 Z M 15.3 17.9 C 15.3 17.9 16.02 18.71 17.1 18.7 C 17.7 18.7 18.3 18.3 18.3 17.7 C 18.3 16.2 14.9 16.4 14.9 14.2 C 14.9 13.1 15.8 12.3 17.1 12.3 C 17.9 12.3 19.1 12.7 19.1 13.6 C 19.14 13.62 19.1 14.2 19.1 14.2 L 18.2 14.2 C 18.2 14.2 18.22 13.87 18.2 13.9 C 18.2 13.5 17.7 13.2 17.1 13.2 C 16.4 13.2 15.9 13.6 15.9 14.2 C 15.9 15.6 19.3 15.3 19.3 17.6 C 19.3 18.7 18.5 19.6 17.1 19.6 C 15.55 19.62 14.7 18.6 14.7 18.6 L 15.3 17.9 Z M 20.7 13.3 L 20.1 13.3 L 20.1 12.4 C 20.1 12.4 23.19 12.44 23.2 12.4 C 24.5 12.4 25.4 13.3 25.4 14.6 C 25.4 16 24.5 16.9 23.2 16.9 C 23.19 16.89 21.7 16.9 21.7 16.9 L 21.7 19.5 L 20.7 19.5 L 20.7 13.3 Z M 23 16 C 23.9 16 24.4 15.5 24.4 14.6 C 24.4 13.8 23.9 13.3 23 13.3 C 23.04 13.3 21.7 13.3 21.7 13.3 L 21.7 16 C 21.7 16 23.03 16.03 23 16 Z M 29.1 17.9 C 29.1 17.9 29.81 18.68 30.9 18.7 C 31.7 18.7 32.3 18.2 32.3 17.4 C 32.3 16.6 31.6 16.1 30.8 16.1 C 30.78 16.13 30.3 16.1 30.3 16.1 L 30.1 15.6 C 30.1 15.6 31.54 13.75 31.5 13.7 C 31.75 13.45 32 13.3 32 13.3 L 32 13.3 C 32 13.3 31.74 13.3 31.4 13.3 C 31.4 13.3 30 13.3 30 13.3 C 29.9 13.3 29.8 13.4 29.8 13.5 C 29.77 13.52 29.8 14 29.8 14 L 28.9 14 C 28.9 14 28.85 13.08 28.9 13.1 C 28.9 12.6 29 12.4 29.5 12.4 C 29.46 12.44 33.2 12.4 33.2 12.4 L 33.2 13.1 C 33.2 13.1 31.32 15.31 31.3 15.3 C 32.2 15.4 33.3 16 33.3 17.4 C 33.3 18.6 32.4 19.6 30.9 19.6 C 29.43 19.62 28.6 18.6 28.6 18.6 L 29.1 17.9 Z M 37.3 15.5 C 37.3 15.3 37.2 15.3 37 15.3 C 37.04 15.27 36.6 15.3 36.6 15.3 L 36.6 14.4 C 36.6 14.4 37.56 14.44 37.6 14.4 C 38 14.4 38.2 14.6 38.2 15 C 38.2 15 38.2 15.2 38.2 15.2 C 38.2 15.35 38.2 15.5 38.2 15.5 C 38.2 15.5 38.21 15.48 38.2 15.5 C 38.5 14.9 39.2 14.3 39.9 14.3 C 40.8 14.3 41.3 14.7 41.5 15.5 C 41.5 15.5 41.5 15.5 41.5 15.5 C 41.8 14.9 42.5 14.3 43.3 14.3 C 44.4 14.3 45 15 45 16.3 C 45 16.3 45 18.5 45 18.5 C 45 18.6 45 18.7 45.2 18.7 C 45.17 18.67 45.6 18.7 45.6 18.7 L 45.6 19.5 C 45.6 19.5 44.62 19.5 44.6 19.5 C 44.2 19.5 44 19.3 44 18.9 C 44 18.9 44 16.5 44 16.5 C 44 15.8 43.8 15.2 43.1 15.2 C 42.4 15.2 41.9 15.8 41.7 16.5 C 41.6 16.7 41.6 16.9 41.6 17.2 C 41.59 17.19 41.6 19.5 41.6 19.5 L 40.6 19.5 C 40.6 19.5 40.62 16.47 40.6 16.5 C 40.6 15.8 40.5 15.2 39.8 15.2 C 39 15.2 38.5 15.8 38.3 16.5 C 38.3 16.7 38.2 17 38.2 17.2 C 38.23 17.19 38.2 19.5 38.2 19.5 L 37.3 19.5 C 37.3 19.5 37.26 15.49 37.3 15.5 Z M 48.4 14.3 C 49.6 14.3 50 15.1 50 15.1 C 49.99 15.11 50 15.1 50 15.1 C 50 15.1 50.01 15.03 50 14.9 C 50 14.7 50.2 14.4 50.6 14.4 C 50.57 14.44 51.5 14.4 51.5 14.4 L 51.5 15.3 C 51.5 15.3 51.11 15.27 51.1 15.3 C 51 15.3 50.9 15.3 50.9 15.5 C 50.9 15.5 50.9 19.3 50.9 19.3 C 50.9 21 49.6 21.6 48.3 21.6 C 47.7 21.6 47.1 21.4 46.6 21.2 C 46.61 21.18 46.9 20.4 46.9 20.4 C 46.9 20.4 47.56 20.74 48.3 20.7 C 49.2 20.7 49.9 20.4 49.9 19.3 C 49.9 19.3 49.9 19 49.9 19 C 49.92 18.83 49.9 18.7 49.9 18.7 C 49.9 18.7 49.92 18.67 49.9 18.7 C 49.6 19.2 49.2 19.4 48.4 19.4 C 47 19.4 46.2 18.3 46.2 16.8 C 46.2 15.4 47 14.3 48.4 14.3 Z M 50 16.9 C 50 15.5 49.3 15.2 48.5 15.2 C 47.6 15.2 47.1 15.8 47.1 16.8 C 47.1 17.9 47.7 18.6 48.6 18.6 C 49.3 18.6 50 18.2 50 16.9 Z " stroke="none" fill="#000"/>  </g>  <g id="Polygon75890">    <path d="M 4.2 1.3 L 3.6 1.3 L 3.6 0.4 C 3.6 0.4 7.73 0.44 7.7 0.4 C 8.2 0.4 8.4 0.6 8.4 1.1 C 8.37 1.08 8.4 2 8.4 2 L 7.5 2 C 7.5 2 7.46 1.52 7.5 1.5 C 7.5 1.4 7.4 1.3 7.2 1.3 C 7.24 1.3 5.2 1.3 5.2 1.3 L 5.2 3.5 L 7.7 3.5 L 7.7 4.4 L 5.2 4.4 C 5.2 4.4 5.23 6.42 5.2 6.4 C 5.2 6.6 5.3 6.6 5.4 6.6 C 5.4 6.6 7.5 6.6 7.5 6.6 C 7.6 6.6 7.7 6.6 7.7 6.4 C 7.73 6.42 7.7 6 7.7 6 L 8.6 6 C 8.6 6 8.65 6.86 8.6 6.9 C 8.6 7.3 8.5 7.5 8 7.5 C 8 7.5 4.9 7.5 4.9 7.5 C 4.4 7.5 4.2 7.3 4.2 6.9 C 4.23 6.86 4.2 1.3 4.2 1.3 Z M 9 5 L 12.2 0.4 L 13.4 0.4 L 13.4 4.8 L 14.5 4.8 L 14.5 5.6 L 13.4 5.6 L 13.4 7.5 L 12.4 7.5 L 12.4 5.6 L 9 5.6 L 9 5 Z M 12.4 2.3 C 12.38 2.02 12.4 1.6 12.4 1.6 L 12.4 1.6 C 12.4 1.6 12.22 1.96 12 2.2 C 12 2.2 10.5 4.3 10.5 4.3 C 10.32 4.58 10.1 4.8 10.1 4.8 L 10.1 4.8 C 10.1 4.8 10.42 4.77 10.7 4.8 C 10.73 4.77 12.4 4.8 12.4 4.8 C 12.4 4.8 12.38 2.34 12.4 2.3 Z M 18 6.6 L 19.5 6.6 C 19.5 6.6 19.51 2.08 19.5 2.1 C 19.51 1.86 19.5 1.6 19.5 1.6 L 19.5 1.6 C 19.5 1.6 19.42 1.8 19.2 2.1 C 19.17 2.05 18.5 2.7 18.5 2.7 L 17.9 2.1 L 19.6 0.4 L 20.5 0.4 L 20.5 6.6 L 22 6.6 L 22 7.5 L 18 7.5 L 18 6.6 Z M 23.3 5.9 C 23.3 5.9 23.91 6.68 25 6.7 C 25.9 6.7 26.5 6.1 26.5 5.3 C 26.5 4.4 25.7 3.8 24.8 3.8 C 24.05 3.83 23.5 4.2 23.5 4.2 L 23.1 4 C 23.1 4 23.36 1.08 23.4 1.1 C 23.4 0.6 23.5 0.4 24 0.4 C 24 0.4 26.5 0.4 26.5 0.4 C 26.9 0.4 27.1 0.6 27.1 1.1 C 27.1 1.08 27.1 2 27.1 2 L 26.2 2 C 26.2 2 26.19 1.52 26.2 1.5 C 26.2 1.4 26.1 1.3 26 1.3 C 26 1.3 24.5 1.3 24.5 1.3 C 24.3 1.3 24.3 1.4 24.3 1.5 C 24.3 1.5 24.1 2.8 24.1 2.8 C 24.11 3.03 24.1 3.2 24.1 3.2 L 24.1 3.2 C 24.1 3.2 24.48 2.97 25 3 C 26.5 3 27.5 4 27.5 5.3 C 27.5 6.5 26.5 7.6 25 7.6 C 23.53 7.62 22.8 6.6 22.8 6.6 L 23.3 5.9 Z M 31.6 3.5 C 31.6 3.3 31.6 3.3 31.4 3.3 C 31.43 3.27 31 3.3 31 3.3 L 31 2.4 C 31 2.4 31.95 2.44 31.9 2.4 C 32.4 2.4 32.6 2.6 32.6 3 C 32.6 3 32.6 3.2 32.6 3.2 C 32.59 3.35 32.6 3.5 32.6 3.5 C 32.6 3.5 32.6 3.48 32.6 3.5 C 32.8 2.9 33.5 2.3 34.3 2.3 C 35.2 2.3 35.7 2.7 35.8 3.5 C 35.8 3.5 35.9 3.5 35.9 3.5 C 36.1 2.9 36.8 2.3 37.7 2.3 C 38.8 2.3 39.3 3 39.3 4.3 C 39.3 4.3 39.3 6.5 39.3 6.5 C 39.3 6.6 39.4 6.7 39.6 6.7 C 39.56 6.67 40 6.7 40 6.7 L 40 7.5 C 40 7.5 39.01 7.5 39 7.5 C 38.6 7.5 38.4 7.3 38.4 6.9 C 38.4 6.9 38.4 4.5 38.4 4.5 C 38.4 3.8 38.2 3.2 37.5 3.2 C 36.8 3.2 36.2 3.8 36.1 4.5 C 36 4.7 36 4.9 36 5.2 C 35.98 5.19 36 7.5 36 7.5 L 35 7.5 C 35 7.5 35.01 4.47 35 4.5 C 35 3.8 34.9 3.2 34.1 3.2 C 33.4 3.2 32.9 3.8 32.7 4.5 C 32.6 4.7 32.6 5 32.6 5.2 C 32.62 5.19 32.6 7.5 32.6 7.5 L 31.6 7.5 C 31.6 7.5 31.65 3.49 31.6 3.5 Z M 42.8 2.3 C 44 2.3 44.4 3.1 44.4 3.1 C 44.38 3.11 44.4 3.1 44.4 3.1 C 44.4 3.1 44.4 3.03 44.4 2.9 C 44.4 2.7 44.6 2.4 45 2.4 C 44.96 2.44 45.9 2.4 45.9 2.4 L 45.9 3.3 C 45.9 3.3 45.5 3.27 45.5 3.3 C 45.4 3.3 45.3 3.3 45.3 3.5 C 45.3 3.5 45.3 7.3 45.3 7.3 C 45.3 9 44 9.6 42.7 9.6 C 42.1 9.6 41.5 9.4 41 9.2 C 41 9.18 41.3 8.4 41.3 8.4 C 41.3 8.4 41.95 8.74 42.7 8.7 C 43.6 8.7 44.3 8.4 44.3 7.3 C 44.3 7.3 44.3 7 44.3 7 C 44.31 6.83 44.3 6.7 44.3 6.7 C 44.3 6.7 44.31 6.67 44.3 6.7 C 44 7.2 43.5 7.4 42.8 7.4 C 41.4 7.4 40.5 6.3 40.5 4.8 C 40.5 3.4 41.3 2.3 42.8 2.3 Z M 44.3 4.9 C 44.3 3.5 43.7 3.2 42.9 3.2 C 42 3.2 41.5 3.8 41.5 4.8 C 41.5 5.9 42.1 6.6 43 6.6 C 43.7 6.6 44.3 6.2 44.3 4.9 Z M 48.7 0.1 L 49.5 0.1 L 47 7.9 L 46.1 7.9 L 48.7 0.1 Z " stroke="none" fill="#000"/>  </g></svg>