<?xml version="1.0" standalone="no"?><!DOCTYPE svg PUBLIC "-//W3C//DTD SVG 1.1//EN" "http://www.w3.org/Graphics/SVG/1.1/DTD/svg11.dtd"><svg xmlns="http://www.w3.org/2000/svg" version="1.1" width="171px" height="29.8px" viewBox="0 -2 171 29.8" style="top:-2px">  <desc>Protein C + Thrombomodulin</desc>  <defs/>  <g id="Polygon77662">    <path d="M 11.8 0.5 C 11.8 0.5 14.49 0.52 14.5 0.5 C 15.9 0.5 16.9 1.4 16.9 2.8 C 16.9 4.3 15.9 5.2 14.5 5.2 C 14.49 5.21 12.6 5.2 12.6 5.2 L 12.6 8.2 L 11.8 8.2 L 11.8 0.5 Z M 14.4 4.5 C 15.4 4.5 16.1 3.9 16.1 2.8 C 16.1 1.8 15.4 1.2 14.4 1.2 C 14.4 1.2 12.6 1.2 12.6 1.2 L 12.6 4.5 C 12.6 4.5 14.39 4.53 14.4 4.5 Z M 18.2 2.7 L 18.9 2.7 C 18.9 2.7 18.91 3.7 18.9 3.7 C 18.9 3.9 18.9 4.1 18.9 4.1 C 18.9 4.1 18.9 4.1 18.9 4.1 C 19.2 3.3 19.8 2.7 20.7 2.7 C 20.8 2.7 21 2.7 21 2.7 C 20.95 2.7 21 3.4 21 3.4 C 21 3.4 20.82 3.41 20.7 3.4 C 19.9 3.4 19.3 4 19.1 4.8 C 19 5.2 18.9 5.6 18.9 5.9 C 18.92 5.92 18.9 8.2 18.9 8.2 L 18.2 8.2 L 18.2 2.7 Z M 24.5 2.6 C 26.2 2.6 27.5 3.8 27.5 5.5 C 27.5 7.1 26.2 8.4 24.5 8.4 C 22.9 8.4 21.6 7.1 21.6 5.5 C 21.6 3.8 22.9 2.6 24.5 2.6 Z M 24.5 7.7 C 25.7 7.7 26.7 6.7 26.7 5.5 C 26.7 4.2 25.7 3.3 24.5 3.3 C 23.4 3.3 22.4 4.2 22.4 5.5 C 22.4 6.7 23.4 7.7 24.5 7.7 Z M 29.1 3.4 L 28.3 3.4 L 28.3 2.8 L 29.1 2.8 L 29.1 1.2 L 29.8 1.2 L 29.8 2.8 L 31.2 2.8 L 31.2 3.4 L 29.8 3.4 C 29.8 3.4 29.82 6.16 29.8 6.2 C 29.8 7.5 30.6 7.6 31.1 7.6 C 31.22 7.62 31.3 7.6 31.3 7.6 L 31.3 8.3 C 31.3 8.3 31.19 8.29 31 8.3 C 30.4 8.3 29.1 8.1 29.1 6.2 C 29.07 6.24 29.1 3.4 29.1 3.4 Z M 34.9 2.6 C 36.4 2.6 37.2 3.8 37.2 5.1 C 37.2 5.27 37.2 5.5 37.2 5.5 C 37.2 5.5 32.93 5.52 32.9 5.5 C 33 6.9 33.9 7.7 35.1 7.7 C 36.09 7.71 36.8 7 36.8 7 L 37.1 7.6 C 37.1 7.6 36.3 8.38 35.1 8.4 C 33.4 8.4 32.2 7.2 32.2 5.5 C 32.2 3.7 33.4 2.6 34.9 2.6 Z M 36.4 4.9 C 36.4 3.8 35.7 3.2 34.9 3.2 C 33.9 3.2 33.1 3.8 33 4.9 C 33 4.9 36.4 4.9 36.4 4.9 Z M 38.6 0.5 L 39.4 0.5 L 39.4 1.5 L 38.6 1.5 L 38.6 0.5 Z M 38.6 2.7 L 39.4 2.7 L 39.4 8.2 L 38.6 8.2 L 38.6 2.7 Z M 41.2 2.7 L 41.9 2.7 C 41.9 2.7 41.92 3.54 41.9 3.5 C 41.9 3.8 41.9 4 41.9 4 C 41.9 4 41.9 4 41.9 4 C 42.1 3.5 42.8 2.6 44.1 2.6 C 45.5 2.6 46 3.4 46 4.7 C 45.98 4.73 46 8.2 46 8.2 L 45.2 8.2 C 45.2 8.2 45.23 4.93 45.2 4.9 C 45.2 4.1 45.1 3.3 44 3.3 C 43.1 3.3 42.3 3.9 42 4.9 C 42 5.1 41.9 5.3 41.9 5.6 C 41.93 5.6 41.9 8.2 41.9 8.2 L 41.2 8.2 L 41.2 2.7 Z M 54.3 0.4 C 56.1 0.39 57 1.4 57 1.4 L 56.6 1.9 C 56.6 1.9 55.72 1.09 54.3 1.1 C 52.5 1.1 51.2 2.5 51.2 4.3 C 51.2 6.2 52.5 7.7 54.3 7.7 C 55.86 7.68 56.8 6.6 56.8 6.6 L 57.2 7.2 C 57.2 7.2 56.19 8.38 54.3 8.4 C 52 8.4 50.4 6.6 50.4 4.3 C 50.4 2.1 52 0.4 54.3 0.4 Z M 61.6 4.8 L 64.2 4.8 L 64.2 2 L 64.9 2 L 64.9 4.8 L 67.4 4.8 L 67.4 5.4 L 64.9 5.4 L 64.9 8.2 L 64.2 8.2 L 64.2 5.4 L 61.6 5.4 L 61.6 4.8 Z M 74.1 1.2 L 71.3 1.2 L 71.3 0.5 L 77.6 0.5 L 77.6 1.2 L 74.9 1.2 L 74.9 8.2 L 74.1 8.2 L 74.1 1.2 Z M 78.6 0.5 L 79.4 0.5 C 79.4 0.5 79.37 3.51 79.4 3.5 C 79.37 3.76 79.4 4 79.4 4 C 79.4 4 79.37 3.96 79.4 4 C 79.6 3.4 80.3 2.6 81.6 2.6 C 82.9 2.6 83.4 3.4 83.4 4.7 C 83.42 4.73 83.4 8.2 83.4 8.2 L 82.7 8.2 C 82.7 8.2 82.68 4.93 82.7 4.9 C 82.7 4.1 82.5 3.3 81.5 3.3 C 80.5 3.3 79.7 3.9 79.5 4.9 C 79.4 5.1 79.4 5.3 79.4 5.6 C 79.37 5.6 79.4 8.2 79.4 8.2 L 78.6 8.2 L 78.6 0.5 Z M 85.2 2.7 L 85.9 2.7 C 85.9 2.7 85.89 3.7 85.9 3.7 C 85.9 3.9 85.9 4.1 85.9 4.1 C 85.9 4.1 85.9 4.1 85.9 4.1 C 86.1 3.3 86.8 2.7 87.6 2.7 C 87.8 2.7 87.9 2.7 87.9 2.7 C 87.93 2.7 87.9 3.4 87.9 3.4 C 87.9 3.4 87.8 3.41 87.7 3.4 C 86.9 3.4 86.3 4 86.1 4.8 C 85.9 5.2 85.9 5.6 85.9 5.9 C 85.9 5.92 85.9 8.2 85.9 8.2 L 85.2 8.2 L 85.2 2.7 Z M 91.5 2.6 C 93.1 2.6 94.4 3.8 94.4 5.5 C 94.4 7.1 93.1 8.4 91.5 8.4 C 89.9 8.4 88.6 7.1 88.6 5.5 C 88.6 3.8 89.9 2.6 91.5 2.6 Z M 91.5 7.7 C 92.7 7.7 93.7 6.7 93.7 5.5 C 93.7 4.2 92.7 3.3 91.5 3.3 C 90.3 3.3 89.4 4.2 89.4 5.5 C 89.4 6.7 90.3 7.7 91.5 7.7 Z M 95.8 2.7 L 96.6 2.7 C 96.6 2.7 96.58 3.54 96.6 3.5 C 96.6 3.8 96.6 4 96.6 4 C 96.6 4 96.6 4 96.6 4 C 96.8 3.2 97.7 2.6 98.6 2.6 C 99.6 2.6 100.1 3.1 100.3 4 C 100.3 4 100.3 4 100.3 4 C 100.6 3.2 101.4 2.6 102.4 2.6 C 103.7 2.6 104.2 3.4 104.2 4.7 C 104.19 4.73 104.2 8.2 104.2 8.2 L 103.4 8.2 C 103.4 8.2 103.44 4.92 103.4 4.9 C 103.4 4 103.3 3.3 102.2 3.3 C 101.4 3.3 100.7 4 100.5 4.8 C 100.4 5.1 100.4 5.3 100.4 5.6 C 100.39 5.63 100.4 8.2 100.4 8.2 L 99.6 8.2 C 99.6 8.2 99.65 4.92 99.6 4.9 C 99.6 4.1 99.5 3.3 98.5 3.3 C 97.6 3.3 96.9 4 96.7 4.9 C 96.6 5.1 96.6 5.4 96.6 5.6 C 96.59 5.63 96.6 8.2 96.6 8.2 L 95.8 8.2 L 95.8 2.7 Z M 105.9 0.5 L 106.7 0.5 C 106.7 0.5 106.66 3.2 106.7 3.2 C 106.66 3.45 106.6 3.7 106.6 3.7 L 106.7 3.7 C 106.7 3.7 107.13 2.59 108.5 2.6 C 110 2.6 111 3.8 111 5.5 C 111 7.2 109.9 8.4 108.5 8.4 C 107.14 8.38 106.6 7.3 106.6 7.3 L 106.6 7.3 C 106.6 7.3 106.64 7.49 106.6 7.8 C 106.64 7.76 106.6 8.2 106.6 8.2 L 105.9 8.2 L 105.9 0.5 Z M 108.4 7.7 C 109.4 7.7 110.2 6.9 110.2 5.5 C 110.2 4.1 109.5 3.3 108.4 3.3 C 107.5 3.3 106.6 3.9 106.6 5.5 C 106.6 6.6 107.2 7.7 108.4 7.7 Z M 114.9 2.6 C 116.5 2.6 117.8 3.8 117.8 5.5 C 117.8 7.1 116.5 8.4 114.9 8.4 C 113.3 8.4 112 7.1 112 5.5 C 112 3.8 113.3 2.6 114.9 2.6 Z M 114.9 7.7 C 116.1 7.7 117.1 6.7 117.1 5.5 C 117.1 4.2 116.1 3.3 114.9 3.3 C 113.7 3.3 112.8 4.2 112.8 5.5 C 112.8 6.7 113.7 7.7 114.9 7.7 Z M 119.2 2.7 L 120 2.7 C 120 2.7 119.97 3.54 120 3.5 C 120 3.8 120 4 120 4 C 120 4 120 4 120 4 C 120.2 3.2 121.1 2.6 122 2.6 C 123 2.6 123.5 3.1 123.7 4 C 123.7 4 123.7 4 123.7 4 C 124 3.2 124.8 2.6 125.8 2.6 C 127.1 2.6 127.6 3.4 127.6 4.7 C 127.59 4.73 127.6 8.2 127.6 8.2 L 126.8 8.2 C 126.8 8.2 126.84 4.92 126.8 4.9 C 126.8 4 126.7 3.3 125.6 3.3 C 124.8 3.3 124.1 4 123.9 4.8 C 123.8 5.1 123.8 5.3 123.8 5.6 C 123.79 5.63 123.8 8.2 123.8 8.2 L 123 8.2 C 123 8.2 123.04 4.92 123 4.9 C 123 4.1 122.9 3.3 121.9 3.3 C 121 3.3 120.3 4 120.1 4.9 C 120 5.1 120 5.4 120 5.6 C 119.99 5.63 120 8.2 120 8.2 L 119.2 8.2 L 119.2 2.7 Z M 131.8 2.6 C 133.5 2.6 134.8 3.8 134.8 5.5 C 134.8 7.1 133.5 8.4 131.8 8.4 C 130.2 8.4 128.9 7.1 128.9 5.5 C 128.9 3.8 130.2 2.6 131.8 2.6 Z M 131.8 7.7 C 133 7.7 134 6.7 134 5.5 C 134 4.2 133 3.3 131.8 3.3 C 130.6 3.3 129.7 4.2 129.7 5.5 C 129.7 6.7 130.6 7.7 131.8 7.7 Z M 138.3 2.6 C 139.62 2.59 140.1 3.6 140.1 3.6 L 140.1 3.6 C 140.1 3.6 140.08 3.44 140.1 3.2 C 140.08 3.21 140.1 0.5 140.1 0.5 L 140.8 0.5 L 140.8 8.2 L 140.1 8.2 C 140.1 8.2 140.11 7.67 140.1 7.7 C 140.1 7.4 140.1 7.3 140.1 7.3 C 140.13 7.27 140.1 7.3 140.1 7.3 C 140.1 7.3 139.65 8.38 138.2 8.4 C 136.7 8.4 135.8 7.2 135.8 5.5 C 135.8 3.7 136.8 2.6 138.3 2.6 Z M 138.3 7.7 C 139.2 7.7 140.1 7.1 140.1 5.5 C 140.1 4.4 139.5 3.3 138.3 3.3 C 137.4 3.3 136.6 4.1 136.6 5.5 C 136.6 6.8 137.3 7.7 138.3 7.7 Z M 142.6 2.7 L 143.3 2.7 C 143.3 2.7 143.3 6.04 143.3 6 C 143.3 6.9 143.4 7.7 144.5 7.7 C 145.8 7.7 146.6 6.6 146.6 5.4 C 146.55 5.37 146.6 2.7 146.6 2.7 L 147.3 2.7 L 147.3 8.2 L 146.6 8.2 C 146.6 8.2 146.57 7.42 146.6 7.4 C 146.6 7.2 146.6 7 146.6 7 C 146.6 7 146.6 7 146.6 7 C 146.4 7.5 145.6 8.4 144.4 8.4 C 143.1 8.4 142.6 7.7 142.6 6.2 C 142.56 6.24 142.6 2.7 142.6 2.7 Z M 149 0.5 L 149.8 0.5 C 149.8 0.5 149.79 6.78 149.8 6.8 C 149.8 7.5 150.1 7.6 150.4 7.6 C 150.51 7.61 150.6 7.6 150.6 7.6 L 150.6 8.3 C 150.6 8.3 150.47 8.29 150.3 8.3 C 149.9 8.3 149 8.2 149 6.9 C 149.05 6.94 149 0.5 149 0.5 Z M 151.8 0.5 L 152.6 0.5 L 152.6 1.5 L 151.8 1.5 L 151.8 0.5 Z M 151.8 2.7 L 152.6 2.7 L 152.6 8.2 L 151.8 8.2 L 151.8 2.7 Z M 154.4 2.7 L 155.1 2.7 C 155.1 2.7 155.11 3.54 155.1 3.5 C 155.1 3.8 155.1 4 155.1 4 C 155.1 4 155.1 4 155.1 4 C 155.3 3.5 156 2.6 157.3 2.6 C 158.7 2.6 159.2 3.4 159.2 4.7 C 159.17 4.73 159.2 8.2 159.2 8.2 L 158.4 8.2 C 158.4 8.2 158.42 4.93 158.4 4.9 C 158.4 4.1 158.3 3.3 157.2 3.3 C 156.3 3.3 155.5 3.9 155.2 4.9 C 155.1 5.1 155.1 5.3 155.1 5.6 C 155.12 5.6 155.1 8.2 155.1 8.2 L 154.4 8.2 L 154.4 2.7 Z " stroke="none" fill="#000"/>  </g></svg>