<?xml version="1.0" standalone="no"?><!DOCTYPE svg PUBLIC "-//W3C//DTD SVG 1.1//EN" "http://www.w3.org/Graphics/SVG/1.1/DTD/svg11.dtd"><svg xmlns="http://www.w3.org/2000/svg" version="1.1" width="129.3px" height="80.3px" viewBox="0 0 129.3 80.3">  <desc>Inhib cia pe e ov ch enz mov CYP450 i m liek intrakciu s metabolizmom in ch liekov</desc>  <defs/>  <g id="Polygon70040">    <path d="M 10.3 59.8 C 10.3 59.7 10.2 59.6 10.1 59.6 C 10.05 59.59 9.7 59.6 9.7 59.6 L 9.7 58.8 C 9.7 58.8 10.55 58.85 10.5 58.8 C 11 58.8 11.1 59 11.1 59.4 C 11.1 59.4 11.1 64.3 11.1 64.3 C 11.1 64.4 11.2 64.5 11.3 64.5 C 11.32 64.46 11.7 64.5 11.7 64.5 L 11.7 65.2 C 11.7 65.2 10.83 65.2 10.8 65.2 C 10.4 65.2 10.3 65 10.3 64.6 C 10.3 64.6 10.3 59.8 10.3 59.8 Z M 12.7 58.8 L 13.5 58.8 L 13.5 59.8 L 12.7 59.8 L 12.7 58.8 Z M 12.7 61.6 C 12.7 61.5 12.7 61.4 12.5 61.4 C 12.53 61.39 12.2 61.4 12.2 61.4 L 12.2 60.6 C 12.2 60.6 13.01 60.65 13 60.6 C 13.4 60.6 13.6 60.8 13.6 61.2 C 13.6 61.2 13.6 64.3 13.6 64.3 C 13.6 64.4 13.7 64.5 13.8 64.5 C 13.79 64.46 14.2 64.5 14.2 64.5 L 14.2 65.2 C 14.2 65.2 13.3 65.2 13.3 65.2 C 12.9 65.2 12.7 65 12.7 64.6 C 12.7 64.6 12.7 61.6 12.7 61.6 Z M 17 60.5 C 18.3 60.5 19 61.5 19 62.7 C 18.96 62.79 18.9 63 18.9 63 C 18.9 63 15.61 63.03 15.6 63 C 15.7 64 16.4 64.6 17.2 64.6 C 17.96 64.55 18.5 64 18.5 64 L 18.9 64.6 C 18.9 64.6 18.22 65.31 17.1 65.3 C 15.7 65.3 14.7 64.3 14.7 62.9 C 14.7 61.5 15.7 60.5 17 60.5 Z M 18.1 62.4 C 18 61.6 17.6 61.2 17 61.2 C 16.3 61.2 15.8 61.6 15.7 62.4 C 15.7 62.4 18.1 62.4 18.1 62.4 Z M 20.1 59.8 C 20.1 59.7 20 59.6 19.9 59.6 C 19.89 59.59 19.5 59.6 19.5 59.6 L 19.5 58.8 C 19.5 58.8 20.38 58.85 20.4 58.8 C 20.8 58.8 21 59 21 59.4 C 20.96 59.37 21 62.3 21 62.3 C 21 62.3 21.37 62.32 21.4 62.3 C 21.5 62.3 21.7 62.3 21.8 62.1 C 21.84 62.12 22.9 60.6 22.9 60.6 L 23.9 60.6 C 23.9 60.6 22.66 62.34 22.7 62.3 C 22.45 62.62 22.3 62.7 22.3 62.7 L 22.3 62.7 C 22.3 62.7 22.47 62.75 22.6 63 C 22.6 63 23.3 64.3 23.3 64.3 C 23.4 64.4 23.5 64.5 23.7 64.5 C 23.69 64.46 24 64.5 24 64.5 L 24 65.2 C 24 65.2 23.34 65.2 23.3 65.2 C 22.9 65.2 22.8 65.1 22.6 64.8 C 22.6 64.8 21.8 63.2 21.8 63.2 C 21.7 63.1 21.4 63.1 21.3 63.1 C 21.3 63.06 21 63.1 21 63.1 L 21 65.2 L 20.1 65.2 C 20.1 65.2 20.09 59.79 20.1 59.8 Z M 26.8 60.5 C 28.1 60.5 29.2 61.5 29.2 62.9 C 29.2 64.3 28.1 65.3 26.8 65.3 C 25.4 65.3 24.3 64.3 24.3 62.9 C 24.3 61.5 25.4 60.5 26.8 60.5 Z M 26.8 64.6 C 27.6 64.6 28.3 63.9 28.3 62.9 C 28.3 62 27.6 61.3 26.8 61.3 C 25.9 61.3 25.2 62 25.2 62.9 C 25.2 63.9 25.9 64.6 26.8 64.6 Z M 30 61.6 C 29.9 61.4 29.8 61.4 29.7 61.4 C 29.67 61.39 29.6 61.4 29.6 61.4 L 29.6 60.6 C 29.6 60.6 30.03 60.65 30 60.6 C 30.4 60.6 30.6 60.7 30.7 61.1 C 30.7 61.1 31.7 63.7 31.7 63.7 C 31.8 63.98 31.9 64.3 31.9 64.3 L 31.9 64.3 C 31.9 64.3 31.96 63.98 32 63.7 C 32 63.7 33 61.1 33 61.1 C 33.2 60.7 33.3 60.6 33.7 60.6 C 33.71 60.65 34.1 60.6 34.1 60.6 L 34.1 61.4 C 34.1 61.4 34.05 61.39 34 61.4 C 33.9 61.4 33.8 61.4 33.7 61.6 C 33.75 61.57 32.4 65.2 32.4 65.2 L 31.4 65.2 C 31.4 65.2 29.95 61.57 30 61.6 Z " stroke="none" fill="#323232"/>  </g>  <g id="Polygon70039">    <path d="M 10.3 50.8 C 10.3 50.7 10.2 50.6 10.1 50.6 C 10.07 50.59 9.7 50.6 9.7 50.6 L 9.7 49.8 C 9.7 49.8 10.54 49.85 10.5 49.8 C 10.9 49.8 11.1 50 11.1 50.4 C 11.1 50.4 11.1 50.5 11.1 50.5 C 11.11 50.67 11.1 50.8 11.1 50.8 C 11.1 50.8 11.12 50.78 11.1 50.8 C 11.3 50.3 12 49.7 12.7 49.7 C 13.5 49.7 13.9 50.1 14 50.8 C 14 50.8 14.1 50.8 14.1 50.8 C 14.3 50.2 14.9 49.7 15.7 49.7 C 16.7 49.7 17.2 50.3 17.2 51.5 C 17.2 51.5 17.2 53.5 17.2 53.5 C 17.2 53.6 17.3 53.7 17.4 53.7 C 17.39 53.66 17.8 53.7 17.8 53.7 L 17.8 54.4 C 17.8 54.4 16.89 54.4 16.9 54.4 C 16.5 54.4 16.3 54.2 16.3 53.8 C 16.3 53.8 16.3 51.7 16.3 51.7 C 16.3 51 16.2 50.5 15.5 50.5 C 14.9 50.5 14.4 51.1 14.2 51.7 C 14.2 51.9 14.2 52.1 14.2 52.3 C 14.17 52.32 14.2 54.4 14.2 54.4 L 13.3 54.4 C 13.3 54.4 13.29 51.67 13.3 51.7 C 13.3 51.1 13.2 50.5 12.5 50.5 C 11.8 50.5 11.4 51.1 11.2 51.7 C 11.2 51.9 11.1 52.1 11.1 52.3 C 11.14 52.32 11.1 54.4 11.1 54.4 L 10.3 54.4 C 10.3 54.4 10.27 50.79 10.3 50.8 Z M 20.5 49.7 C 21.8 49.7 22.5 50.7 22.5 51.9 C 22.51 51.99 22.5 52.2 22.5 52.2 C 22.5 52.2 19.16 52.23 19.2 52.2 C 19.2 53.2 19.9 53.8 20.7 53.8 C 21.51 53.75 22.1 53.2 22.1 53.2 L 22.4 53.8 C 22.4 53.8 21.76 54.51 20.7 54.5 C 19.2 54.5 18.3 53.5 18.3 52.1 C 18.3 50.7 19.3 49.7 20.5 49.7 Z M 21.6 51.6 C 21.6 50.8 21.1 50.4 20.5 50.4 C 19.9 50.4 19.3 50.8 19.2 51.6 C 19.2 51.6 21.6 51.6 21.6 51.6 Z M 23.7 50.5 L 23.1 50.5 L 23.1 49.8 L 23.7 49.8 L 23.7 48.6 L 24.6 48.6 L 24.6 49.8 L 25.7 49.8 L 25.7 50.5 L 24.6 50.5 C 24.6 50.5 24.58 52.64 24.6 52.6 C 24.6 53.5 25.2 53.7 25.5 53.7 C 25.67 53.66 25.7 53.6 25.7 53.6 L 25.7 54.4 C 25.7 54.4 25.63 54.44 25.4 54.4 C 24.9 54.4 23.7 54.3 23.7 52.7 C 23.71 52.74 23.7 50.5 23.7 50.5 Z M 29.1 51.6 C 29.11 51.57 29.3 51.6 29.3 51.6 C 29.3 51.6 29.3 51.52 29.3 51.5 C 29.3 50.7 29 50.4 28.3 50.4 C 28.1 50.4 27.5 50.5 27.5 50.8 C 27.55 50.78 27.5 51 27.5 51 L 26.7 51 C 26.7 51 26.73 50.59 26.7 50.6 C 26.7 49.8 27.9 49.7 28.3 49.7 C 29.8 49.7 30.2 50.5 30.2 51.5 C 30.2 51.5 30.2 53.5 30.2 53.5 C 30.2 53.6 30.2 53.7 30.4 53.7 C 30.37 53.66 30.7 53.7 30.7 53.7 L 30.7 54.4 C 30.7 54.4 29.92 54.4 29.9 54.4 C 29.5 54.4 29.4 54.2 29.4 53.9 C 29.4 53.7 29.4 53.6 29.4 53.6 C 29.38 53.61 29.4 53.6 29.4 53.6 C 29.4 53.6 29 54.51 27.9 54.5 C 27.1 54.5 26.4 54 26.4 53.1 C 26.4 51.7 28.3 51.6 29.1 51.6 Z M 28.1 53.8 C 28.8 53.8 29.3 53 29.3 52.4 C 29.31 52.36 29.3 52.2 29.3 52.2 C 29.3 52.2 29.09 52.21 29.1 52.2 C 28.4 52.2 27.2 52.2 27.2 53.1 C 27.2 53.4 27.5 53.8 28.1 53.8 Z M 31.7 49 C 31.7 48.9 31.6 48.8 31.5 48.8 C 31.46 48.79 31.1 48.8 31.1 48.8 L 31.1 48 C 31.1 48 31.95 48.05 31.9 48 C 32.4 48 32.5 48.2 32.5 48.6 C 32.5 48.6 32.5 50.1 32.5 50.1 C 32.53 50.32 32.5 50.5 32.5 50.5 L 32.5 50.5 C 32.5 50.5 32.92 49.74 34 49.7 C 35.2 49.7 36 50.7 36 52.1 C 36 53.6 35.1 54.5 33.9 54.5 C 32.9 54.51 32.5 53.7 32.5 53.7 L 32.5 53.7 C 32.5 53.7 32.49 53.89 32.5 54.1 C 32.49 54.09 32.5 54.4 32.5 54.4 L 31.7 54.4 C 31.7 54.4 31.65 48.99 31.7 49 Z M 33.8 53.8 C 34.5 53.8 35.1 53.2 35.1 52.1 C 35.1 51.1 34.6 50.5 33.8 50.5 C 33.1 50.5 32.5 51 32.5 52.1 C 32.5 53 32.9 53.8 33.8 53.8 Z M 39.1 49.7 C 40.5 49.7 41.6 50.7 41.6 52.1 C 41.6 53.5 40.5 54.5 39.1 54.5 C 37.7 54.5 36.6 53.5 36.6 52.1 C 36.6 50.7 37.7 49.7 39.1 49.7 Z M 39.1 53.8 C 40 53.8 40.7 53.1 40.7 52.1 C 40.7 51.2 40 50.5 39.1 50.5 C 38.2 50.5 37.5 51.2 37.5 52.1 C 37.5 53.1 38.2 53.8 39.1 53.8 Z M 42.5 49 C 42.5 48.9 42.5 48.8 42.3 48.8 C 42.35 48.79 42 48.8 42 48.8 L 42 48 C 42 48 42.84 48.05 42.8 48 C 43.2 48 43.4 48.2 43.4 48.6 C 43.4 48.6 43.4 53.5 43.4 53.5 C 43.4 53.6 43.5 53.7 43.6 53.7 C 43.61 53.66 44 53.7 44 53.7 L 44 54.4 C 44 54.4 43.12 54.4 43.1 54.4 C 42.7 54.4 42.5 54.2 42.5 53.8 C 42.5 53.8 42.5 49 42.5 49 Z M 45 48 L 45.8 48 L 45.8 49 L 45 49 L 45 48 Z M 45 50.8 C 45 50.7 44.9 50.6 44.8 50.6 C 44.82 50.59 44.5 50.6 44.5 50.6 L 44.5 49.8 C 44.5 49.8 45.31 49.85 45.3 49.8 C 45.7 49.8 45.9 50 45.9 50.4 C 45.9 50.4 45.9 53.5 45.9 53.5 C 45.9 53.6 46 53.7 46.1 53.7 C 46.08 53.66 46.4 53.7 46.4 53.7 L 46.4 54.4 C 46.4 54.4 45.59 54.4 45.6 54.4 C 45.2 54.4 45 54.2 45 53.8 C 45 53.8 45 50.8 45 50.8 Z M 47 53.9 C 47 53.9 49.31 51.02 49.3 51 C 49.51 50.77 49.7 50.6 49.7 50.6 L 49.7 50.6 C 49.7 50.6 49.54 50.59 49.2 50.6 C 49.2 50.6 48 50.6 48 50.6 C 47.9 50.6 47.8 50.7 47.8 50.8 C 47.81 50.79 47.8 51.1 47.8 51.1 L 47 51.1 C 47 51.1 47.01 50.42 47 50.4 C 47 50 47.2 49.8 47.6 49.8 C 47.58 49.85 50.8 49.8 50.8 49.8 L 50.8 50.4 C 50.8 50.4 48.5 53.24 48.5 53.2 C 48.31 53.47 48.1 53.7 48.1 53.7 L 48.1 53.7 C 48.1 53.7 48.27 53.66 48.6 53.7 C 48.6 53.7 50 53.7 50 53.7 C 50.1 53.7 50.2 53.6 50.2 53.5 C 50.22 53.46 50.2 53.2 50.2 53.2 L 51 53.2 C 51 53.2 51.01 53.83 51 53.8 C 51 54.2 50.8 54.4 50.4 54.4 C 50.44 54.4 47 54.4 47 54.4 L 47 53.9 Z M 52 50.8 C 52 50.7 51.9 50.6 51.8 50.6 C 51.79 50.59 51.4 50.6 51.4 50.6 L 51.4 49.8 C 51.4 49.8 52.26 49.85 52.3 49.8 C 52.7 49.8 52.8 50 52.8 50.4 C 52.8 50.4 52.8 50.5 52.8 50.5 C 52.84 50.67 52.8 50.8 52.8 50.8 C 52.8 50.8 52.85 50.78 52.8 50.8 C 53.1 50.3 53.7 49.7 54.4 49.7 C 55.2 49.7 55.6 50.1 55.8 50.8 C 55.8 50.8 55.8 50.8 55.8 50.8 C 56 50.2 56.7 49.7 57.4 49.7 C 58.4 49.7 58.9 50.3 58.9 51.5 C 58.9 51.5 58.9 53.5 58.9 53.5 C 58.9 53.6 59 53.7 59.1 53.7 C 59.11 53.66 59.5 53.7 59.5 53.7 L 59.5 54.4 C 59.5 54.4 58.62 54.4 58.6 54.4 C 58.2 54.4 58 54.2 58 53.8 C 58 53.8 58 51.7 58 51.7 C 58 51 57.9 50.5 57.2 50.5 C 56.6 50.5 56.1 51.1 56 51.7 C 55.9 51.9 55.9 52.1 55.9 52.3 C 55.89 52.32 55.9 54.4 55.9 54.4 L 55 54.4 C 55 54.4 55.02 51.67 55 51.7 C 55 51.1 54.9 50.5 54.2 50.5 C 53.6 50.5 53.1 51.1 52.9 51.7 C 52.9 51.9 52.9 52.1 52.9 52.3 C 52.86 52.32 52.9 54.4 52.9 54.4 L 52 54.4 C 52 54.4 51.99 50.79 52 50.8 Z M 62.4 49.7 C 63.8 49.7 64.9 50.7 64.9 52.1 C 64.9 53.5 63.8 54.5 62.4 54.5 C 61.1 54.5 60 53.5 60 52.1 C 60 50.7 61.1 49.7 62.4 49.7 Z M 62.4 53.8 C 63.3 53.8 64 53.1 64 52.1 C 64 51.2 63.3 50.5 62.4 50.5 C 61.6 50.5 60.9 51.2 60.9 52.1 C 60.9 53.1 61.6 53.8 62.4 53.8 Z M 66 50.8 C 66 50.7 65.9 50.6 65.8 50.6 C 65.78 50.59 65.4 50.6 65.4 50.6 L 65.4 49.8 C 65.4 49.8 66.25 49.85 66.2 49.8 C 66.6 49.8 66.8 50 66.8 50.4 C 66.8 50.4 66.8 50.5 66.8 50.5 C 66.82 50.67 66.8 50.8 66.8 50.8 C 66.8 50.8 66.83 50.78 66.8 50.8 C 67 50.3 67.7 49.7 68.4 49.7 C 69.2 49.7 69.6 50.1 69.8 50.8 C 69.8 50.8 69.8 50.8 69.8 50.8 C 70 50.2 70.7 49.7 71.4 49.7 C 72.4 49.7 72.9 50.3 72.9 51.5 C 72.9 51.5 72.9 53.5 72.9 53.5 C 72.9 53.6 73 53.7 73.1 53.7 C 73.1 53.66 73.5 53.7 73.5 53.7 L 73.5 54.4 C 73.5 54.4 72.6 54.4 72.6 54.4 C 72.2 54.4 72 54.2 72 53.8 C 72 53.8 72 51.7 72 51.7 C 72 51 71.9 50.5 71.2 50.5 C 70.6 50.5 70.1 51.1 69.9 51.7 C 69.9 51.9 69.9 52.1 69.9 52.3 C 69.87 52.32 69.9 54.4 69.9 54.4 L 69 54.4 C 69 54.4 69 51.67 69 51.7 C 69 51.1 68.9 50.5 68.2 50.5 C 67.6 50.5 67.1 51.1 66.9 51.7 C 66.9 51.9 66.9 52.1 66.9 52.3 C 66.85 52.32 66.9 54.4 66.9 54.4 L 66 54.4 C 66 54.4 65.98 50.79 66 50.8 Z M 76.9 48 L 77.7 48 L 77.7 49 L 76.9 49 L 76.9 48 Z M 76.9 50.8 C 76.9 50.7 76.8 50.6 76.7 50.6 C 76.68 50.59 76.3 50.6 76.3 50.6 L 76.3 49.8 C 76.3 49.8 77.17 49.85 77.2 49.8 C 77.6 49.8 77.7 50 77.7 50.4 C 77.7 50.4 77.7 53.5 77.7 53.5 C 77.7 53.6 77.8 53.7 77.9 53.7 C 77.94 53.66 78.3 53.7 78.3 53.7 L 78.3 54.4 C 78.3 54.4 77.45 54.4 77.5 54.4 C 77 54.4 76.9 54.2 76.9 53.8 C 76.9 53.8 76.9 50.8 76.9 50.8 Z M 79.3 50.8 C 79.3 50.7 79.2 50.6 79.1 50.6 C 79.11 50.59 78.7 50.6 78.7 50.6 L 78.7 49.8 C 78.7 49.8 79.58 49.85 79.6 49.8 C 80 49.8 80.2 50 80.2 50.4 C 80.2 50.4 80.2 50.5 80.2 50.5 C 80.15 50.67 80.1 50.8 80.1 50.8 C 80.1 50.8 80.15 50.78 80.2 50.8 C 80.3 50.4 80.9 49.7 81.9 49.7 C 82.9 49.7 83.4 50.3 83.4 51.5 C 83.4 51.5 83.4 53.5 83.4 53.5 C 83.4 53.6 83.5 53.7 83.6 53.7 C 83.63 53.66 84 53.7 84 53.7 L 84 54.4 C 84 54.4 83.13 54.4 83.1 54.4 C 82.7 54.4 82.6 54.2 82.6 53.8 C 82.6 53.8 82.6 51.7 82.6 51.7 C 82.6 51 82.4 50.5 81.7 50.5 C 81 50.5 80.4 51 80.3 51.7 C 80.2 51.8 80.2 52 80.2 52.3 C 80.18 52.27 80.2 54.4 80.2 54.4 L 79.3 54.4 C 79.3 54.4 79.31 50.79 79.3 50.8 Z M 85.1 55.5 C 85.5 55.5 85.8 55.3 85.9 54.9 C 85.95 54.88 86.2 54.4 86.2 54.4 C 86.2 54.4 84.6 50.77 84.6 50.8 C 84.5 50.6 84.5 50.6 84.3 50.6 C 84.31 50.59 84.2 50.6 84.2 50.6 L 84.2 49.8 C 84.2 49.8 84.72 49.85 84.7 49.8 C 85.1 49.8 85.2 49.9 85.4 50.3 C 85.4 50.3 86.4 52.9 86.4 52.9 C 86.49 53.11 86.6 53.4 86.6 53.4 L 86.6 53.4 C 86.6 53.4 86.64 53.11 86.7 52.9 C 86.7 52.9 87.7 50.3 87.7 50.3 C 87.8 49.9 88 49.8 88.3 49.8 C 88.34 49.85 88.9 49.8 88.9 49.8 L 88.9 50.6 C 88.9 50.6 88.75 50.59 88.7 50.6 C 88.6 50.6 88.5 50.6 88.5 50.8 C 88.5 50.8 86.7 55.2 86.7 55.2 C 86.4 55.9 85.8 56.3 85.2 56.3 C 84.52 56.29 84.1 55.8 84.1 55.8 C 84.1 55.8 84.48 55.21 84.5 55.2 C 84.5 55.2 84.8 55.5 85.1 55.5 Z M 86.8 48 L 87.7 48 L 86.9 49.2 L 86.2 49.2 L 86.8 48 Z M 91.7 49.7 C 92.2 49.7 93.3 50 93.3 50.7 C 93.31 50.74 93.3 51.2 93.3 51.2 L 92.5 51.2 C 92.5 51.2 92.52 50.95 92.5 51 C 92.5 50.6 92 50.5 91.7 50.5 C 90.8 50.5 90.1 51.2 90.1 52.1 C 90.1 53.2 90.9 53.7 91.7 53.7 C 92.57 53.74 93.1 53.1 93.1 53.1 L 93.5 53.7 C 93.5 53.7 92.86 54.51 91.7 54.5 C 90.2 54.5 89.2 53.5 89.2 52.1 C 89.2 50.8 90.2 49.7 91.7 49.7 Z M 94.4 49 C 94.4 48.9 94.3 48.8 94.2 48.8 C 94.2 48.79 93.8 48.8 93.8 48.8 L 93.8 48 C 93.8 48 94.7 48.05 94.7 48 C 95.1 48 95.3 48.2 95.3 48.6 C 95.3 48.6 95.3 50.4 95.3 50.4 C 95.27 50.59 95.3 50.8 95.3 50.8 C 95.3 50.8 95.27 50.76 95.3 50.8 C 95.5 50.3 96.1 49.7 97 49.7 C 98 49.7 98.5 50.3 98.5 51.5 C 98.5 51.5 98.5 53.5 98.5 53.5 C 98.5 53.6 98.6 53.7 98.7 53.7 C 98.72 53.66 99.1 53.7 99.1 53.7 L 99.1 54.4 C 99.1 54.4 98.23 54.4 98.2 54.4 C 97.8 54.4 97.7 54.2 97.7 53.8 C 97.7 53.8 97.7 51.7 97.7 51.7 C 97.7 51 97.5 50.5 96.8 50.5 C 96.1 50.5 95.5 51 95.4 51.7 C 95.3 51.8 95.3 52.1 95.3 52.3 C 95.27 52.27 95.3 54.4 95.3 54.4 L 94.4 54.4 C 94.4 54.4 94.4 48.99 94.4 49 Z " stroke="none" fill="#323232"/>  </g>  <g id="Polygon70038">    <path d="M 13 37.1 C 13.9 37.1 15.4 37.5 15.4 38.5 C 15.38 38.52 15.4 39.1 15.4 39.1 L 14.6 39.1 C 14.6 39.1 14.55 38.78 14.6 38.8 C 14.6 38.2 13.7 38 13 38 C 11.7 38 10.7 38.9 10.7 40.4 C 10.7 41.8 11.7 42.9 13 42.9 C 14.3 42.86 15 42 15 42 L 15.5 42.6 C 15.5 42.6 14.63 43.71 13 43.7 C 11.1 43.7 9.8 42.2 9.8 40.4 C 9.8 38.5 11.2 37.1 13 37.1 Z M 11.8 35.7 L 12.5 35.7 L 13 36.4 L 13 36.4 L 13.4 35.7 L 14.2 35.7 L 13.4 36.8 L 12.6 36.8 L 11.8 35.7 Z M 16.6 37.2 L 17.4 37.2 L 17.4 38.2 L 16.6 38.2 L 16.6 37.2 Z M 16.6 40 C 16.6 39.9 16.6 39.8 16.4 39.8 C 16.43 39.79 16.1 39.8 16.1 39.8 L 16.1 39 C 16.1 39 16.91 39.05 16.9 39 C 17.3 39 17.5 39.2 17.5 39.6 C 17.5 39.6 17.5 42.7 17.5 42.7 C 17.5 42.8 17.6 42.9 17.7 42.9 C 17.68 42.86 18.1 42.9 18.1 42.9 L 18.1 43.6 C 18.1 43.6 17.2 43.6 17.2 43.6 C 16.8 43.6 16.6 43.4 16.6 43 C 16.6 43 16.6 40 16.6 40 Z M 21.5 40 C 21.5 39.9 21.4 39.8 21.3 39.8 C 21.28 39.79 20.9 39.8 20.9 39.8 L 20.9 39 C 20.9 39 21.74 39.05 21.7 39 C 22.1 39 22.3 39.2 22.3 39.6 C 22.3 39.6 22.3 39.7 22.3 39.7 C 22.32 39.87 22.3 40 22.3 40 C 22.3 40 22.33 39.98 22.3 40 C 22.5 39.5 23.2 38.9 23.9 38.9 C 24.7 38.9 25.1 39.3 25.3 40 C 25.3 40 25.3 40 25.3 40 C 25.5 39.4 26.2 38.9 26.9 38.9 C 27.9 38.9 28.4 39.5 28.4 40.7 C 28.4 40.7 28.4 42.7 28.4 42.7 C 28.4 42.8 28.5 42.9 28.6 42.9 C 28.59 42.86 29 42.9 29 42.9 L 29 43.6 C 29 43.6 28.1 43.6 28.1 43.6 C 27.7 43.6 27.5 43.4 27.5 43 C 27.5 43 27.5 40.9 27.5 40.9 C 27.5 40.2 27.4 39.7 26.7 39.7 C 26.1 39.7 25.6 40.3 25.4 40.9 C 25.4 41.1 25.4 41.3 25.4 41.5 C 25.37 41.52 25.4 43.6 25.4 43.6 L 24.5 43.6 C 24.5 43.6 24.5 40.87 24.5 40.9 C 24.5 40.3 24.4 39.7 23.7 39.7 C 23 39.7 22.6 40.3 22.4 40.9 C 22.4 41.1 22.3 41.3 22.3 41.5 C 22.35 41.52 22.3 43.6 22.3 43.6 L 21.5 43.6 C 21.5 43.6 21.47 39.99 21.5 40 Z M 32.2 40.8 C 32.22 40.77 32.4 40.8 32.4 40.8 C 32.4 40.8 32.42 40.72 32.4 40.7 C 32.4 39.9 32.1 39.6 31.4 39.6 C 31.2 39.6 30.7 39.7 30.7 40 C 30.66 39.98 30.7 40.2 30.7 40.2 L 29.8 40.2 C 29.8 40.2 29.84 39.79 29.8 39.8 C 29.8 39 31 38.9 31.4 38.9 C 32.9 38.9 33.3 39.7 33.3 40.7 C 33.3 40.7 33.3 42.7 33.3 42.7 C 33.3 42.8 33.4 42.9 33.5 42.9 C 33.49 42.86 33.9 42.9 33.9 42.9 L 33.9 43.6 C 33.9 43.6 33.04 43.6 33 43.6 C 32.6 43.6 32.5 43.4 32.5 43.1 C 32.5 42.9 32.5 42.8 32.5 42.8 C 32.49 42.81 32.5 42.8 32.5 42.8 C 32.5 42.8 32.11 43.71 31 43.7 C 30.2 43.7 29.5 43.2 29.5 42.3 C 29.5 40.9 31.5 40.8 32.2 40.8 Z M 31.2 43 C 32 43 32.4 42.2 32.4 41.6 C 32.43 41.56 32.4 41.4 32.4 41.4 C 32.4 41.4 32.2 41.41 32.2 41.4 C 31.5 41.4 30.4 41.4 30.4 42.3 C 30.4 42.6 30.6 43 31.2 43 Z M 31.8 37.2 L 32.7 37.2 L 31.9 38.4 L 31.2 38.4 L 31.8 37.2 Z M 37.2 38.2 C 37.2 38.1 37.1 38 37 38 C 37.01 37.99 36.6 38 36.6 38 L 36.6 37.2 C 36.6 37.2 37.5 37.25 37.5 37.2 C 37.9 37.2 38.1 37.4 38.1 37.8 C 38.1 37.8 38.1 42.7 38.1 42.7 C 38.1 42.8 38.2 42.9 38.3 42.9 C 38.28 42.86 38.6 42.9 38.6 42.9 L 38.6 43.6 C 38.6 43.6 37.78 43.6 37.8 43.6 C 37.4 43.6 37.2 43.4 37.2 43 C 37.2 43 37.2 38.2 37.2 38.2 Z M 39.7 37.2 L 40.5 37.2 L 40.5 38.2 L 39.7 38.2 L 39.7 37.2 Z M 39.7 40 C 39.7 39.9 39.6 39.8 39.5 39.8 C 39.48 39.79 39.1 39.8 39.1 39.8 L 39.1 39 C 39.1 39 39.97 39.05 40 39 C 40.4 39 40.5 39.2 40.5 39.6 C 40.5 39.6 40.5 42.7 40.5 42.7 C 40.5 42.8 40.6 42.9 40.7 42.9 C 40.74 42.86 41.1 42.9 41.1 42.9 L 41.1 43.6 C 41.1 43.6 40.26 43.6 40.3 43.6 C 39.9 43.6 39.7 43.4 39.7 43 C 39.7 43 39.7 40 39.7 40 Z M 44 38.9 C 45.2 38.9 45.9 39.9 45.9 41.1 C 45.92 41.19 45.9 41.4 45.9 41.4 C 45.9 41.4 42.57 41.43 42.6 41.4 C 42.6 42.4 43.3 43 44.1 43 C 44.92 42.95 45.5 42.4 45.5 42.4 L 45.8 43 C 45.8 43 45.17 43.71 44.1 43.7 C 42.6 43.7 41.7 42.7 41.7 41.3 C 41.7 39.9 42.7 38.9 44 38.9 Z M 45 40.8 C 45 40 44.5 39.6 43.9 39.6 C 43.3 39.6 42.7 40 42.6 40.8 C 42.6 40.8 45 40.8 45 40.8 Z M 47 38.2 C 47 38.1 47 38 46.8 38 C 46.84 37.99 46.5 38 46.5 38 L 46.5 37.2 C 46.5 37.2 47.34 37.25 47.3 37.2 C 47.7 37.2 47.9 37.4 47.9 37.8 C 47.91 37.77 47.9 40.7 47.9 40.7 C 47.9 40.7 48.32 40.72 48.3 40.7 C 48.5 40.7 48.7 40.7 48.8 40.5 C 48.8 40.52 49.8 39 49.8 39 L 50.8 39 C 50.8 39 49.62 40.74 49.6 40.7 C 49.41 41.02 49.3 41.1 49.3 41.1 L 49.3 41.1 C 49.3 41.1 49.43 41.15 49.6 41.4 C 49.6 41.4 50.3 42.7 50.3 42.7 C 50.3 42.8 50.4 42.9 50.6 42.9 C 50.64 42.86 50.9 42.9 50.9 42.9 L 50.9 43.6 C 50.9 43.6 50.29 43.6 50.3 43.6 C 49.9 43.6 49.7 43.5 49.5 43.2 C 49.5 43.2 48.7 41.6 48.7 41.6 C 48.6 41.5 48.4 41.5 48.3 41.5 C 48.26 41.46 47.9 41.5 47.9 41.5 L 47.9 43.6 L 47 43.6 C 47 43.6 47.04 38.19 47 38.2 Z M 54.3 37.2 L 55.1 37.2 L 55.1 38.2 L 54.3 38.2 L 54.3 37.2 Z M 54.3 40 C 54.3 39.9 54.2 39.8 54.1 39.8 C 54.07 39.79 53.7 39.8 53.7 39.8 L 53.7 39 C 53.7 39 54.56 39.05 54.6 39 C 55 39 55.1 39.2 55.1 39.6 C 55.1 39.6 55.1 42.7 55.1 42.7 C 55.1 42.8 55.2 42.9 55.3 42.9 C 55.33 42.86 55.7 42.9 55.7 42.9 L 55.7 43.6 C 55.7 43.6 54.85 43.6 54.8 43.6 C 54.4 43.6 54.3 43.4 54.3 43 C 54.3 43 54.3 40 54.3 40 Z M 56.7 40 C 56.7 39.9 56.6 39.8 56.5 39.8 C 56.5 39.79 56.1 39.8 56.1 39.8 L 56.1 39 C 56.1 39 56.97 39.05 57 39 C 57.4 39 57.5 39.2 57.5 39.6 C 57.5 39.6 57.5 39.7 57.5 39.7 C 57.54 39.87 57.5 40 57.5 40 C 57.5 40 57.54 39.98 57.5 40 C 57.7 39.6 58.3 38.9 59.3 38.9 C 60.3 38.9 60.8 39.5 60.8 40.7 C 60.8 40.7 60.8 42.7 60.8 42.7 C 60.8 42.8 60.9 42.9 61 42.9 C 61.02 42.86 61.4 42.9 61.4 42.9 L 61.4 43.6 C 61.4 43.6 60.52 43.6 60.5 43.6 C 60.1 43.6 59.9 43.4 59.9 43 C 59.9 43 59.9 40.9 59.9 40.9 C 59.9 40.2 59.8 39.7 59.1 39.7 C 58.4 39.7 57.8 40.2 57.7 40.9 C 57.6 41 57.6 41.2 57.6 41.5 C 57.57 41.47 57.6 43.6 57.6 43.6 L 56.7 43.6 C 56.7 43.6 56.7 39.99 56.7 40 Z M 62.4 39.7 L 61.8 39.7 L 61.8 39 L 62.4 39 L 62.4 37.8 L 63.2 37.8 L 63.2 39 L 64.3 39 L 64.3 39.7 L 63.2 39.7 C 63.2 39.7 63.24 41.84 63.2 41.8 C 63.2 42.7 63.9 42.9 64.2 42.9 C 64.33 42.86 64.4 42.8 64.4 42.8 L 64.4 43.6 C 64.4 43.6 64.29 43.64 64.1 43.6 C 63.5 43.6 62.4 43.5 62.4 41.9 C 62.37 41.94 62.4 39.7 62.4 39.7 Z M 65.5 40 C 65.5 39.9 65.4 39.8 65.3 39.8 C 65.3 39.79 64.9 39.8 64.9 39.8 L 64.9 39 C 64.9 39 65.76 39.05 65.8 39 C 66.2 39 66.3 39.2 66.3 39.6 C 66.3 39.6 66.3 39.9 66.3 39.9 C 66.35 40.05 66.3 40.2 66.3 40.2 C 66.3 40.2 66.35 40.18 66.3 40.2 C 66.6 39.5 67.1 39 67.8 39 C 67.9 38.99 68 39 68 39 L 68 39.9 C 68 39.9 67.9 39.85 67.8 39.8 C 67.2 39.8 66.7 40.2 66.5 40.9 C 66.4 41.2 66.4 41.5 66.4 41.7 C 66.37 41.74 66.4 43.6 66.4 43.6 L 65.5 43.6 C 65.5 43.6 65.5 39.99 65.5 40 Z M 71 40.8 C 71.02 40.77 71.2 40.8 71.2 40.8 C 71.2 40.8 71.22 40.72 71.2 40.7 C 71.2 39.9 70.9 39.6 70.2 39.6 C 70 39.6 69.5 39.7 69.5 40 C 69.46 39.98 69.5 40.2 69.5 40.2 L 68.6 40.2 C 68.6 40.2 68.64 39.79 68.6 39.8 C 68.6 39 69.8 38.9 70.2 38.9 C 71.7 38.9 72.1 39.7 72.1 40.7 C 72.1 40.7 72.1 42.7 72.1 42.7 C 72.1 42.8 72.2 42.9 72.3 42.9 C 72.29 42.86 72.7 42.9 72.7 42.9 L 72.7 43.6 C 72.7 43.6 71.84 43.6 71.8 43.6 C 71.4 43.6 71.3 43.4 71.3 43.1 C 71.3 42.9 71.3 42.8 71.3 42.8 C 71.29 42.81 71.3 42.8 71.3 42.8 C 71.3 42.8 70.91 43.71 69.8 43.7 C 69 43.7 68.3 43.2 68.3 42.3 C 68.3 40.9 70.3 40.8 71 40.8 Z M 70 43 C 70.7 43 71.2 42.2 71.2 41.6 C 71.23 41.56 71.2 41.4 71.2 41.4 C 71.2 41.4 71 41.41 71 41.4 C 70.3 41.4 69.2 41.4 69.2 42.3 C 69.2 42.6 69.4 43 70 43 Z M 73.6 38.2 C 73.6 38.1 73.5 38 73.4 38 C 73.37 37.99 73 38 73 38 L 73 37.2 C 73 37.2 73.86 37.25 73.9 37.2 C 74.3 37.2 74.4 37.4 74.4 37.8 C 74.44 37.77 74.4 40.7 74.4 40.7 C 74.4 40.7 74.84 40.72 74.8 40.7 C 75 40.7 75.2 40.7 75.3 40.5 C 75.32 40.52 76.4 39 76.4 39 L 77.4 39 C 77.4 39 76.14 40.74 76.1 40.7 C 75.93 41.02 75.8 41.1 75.8 41.1 L 75.8 41.1 C 75.8 41.1 75.95 41.15 76.1 41.4 C 76.1 41.4 76.8 42.7 76.8 42.7 C 76.8 42.8 76.9 42.9 77.2 42.9 C 77.16 42.86 77.4 42.9 77.4 42.9 L 77.4 43.6 C 77.4 43.6 76.81 43.6 76.8 43.6 C 76.4 43.6 76.3 43.5 76.1 43.2 C 76.1 43.2 75.2 41.6 75.2 41.6 C 75.1 41.5 74.9 41.5 74.8 41.5 C 74.78 41.46 74.4 41.5 74.4 41.5 L 74.4 43.6 L 73.6 43.6 C 73.6 43.6 73.57 38.19 73.6 38.2 Z M 80.3 38.9 C 80.8 38.9 81.9 39.2 81.9 39.9 C 81.89 39.94 81.9 40.4 81.9 40.4 L 81.1 40.4 C 81.1 40.4 81.1 40.15 81.1 40.2 C 81.1 39.8 80.6 39.7 80.3 39.7 C 79.4 39.7 78.7 40.4 78.7 41.3 C 78.7 42.4 79.5 42.9 80.3 42.9 C 81.15 42.94 81.7 42.3 81.7 42.3 L 82.1 42.9 C 82.1 42.9 81.44 43.71 80.2 43.7 C 78.8 43.7 77.8 42.7 77.8 41.3 C 77.8 40 78.8 38.9 80.3 38.9 Z M 83.1 37.2 L 83.9 37.2 L 83.9 38.2 L 83.1 38.2 L 83.1 37.2 Z M 83.1 40 C 83.1 39.9 83 39.8 82.9 39.8 C 82.89 39.79 82.5 39.8 82.5 39.8 L 82.5 39 C 82.5 39 83.38 39.05 83.4 39 C 83.8 39 84 39.2 84 39.6 C 84 39.6 84 42.7 84 42.7 C 84 42.8 84 42.9 84.1 42.9 C 84.15 42.86 84.5 42.9 84.5 42.9 L 84.5 43.6 C 84.5 43.6 83.66 43.6 83.7 43.6 C 83.3 43.6 83.1 43.4 83.1 43 C 83.1 43 83.1 40 83.1 40 Z M 85.5 40 C 85.5 39.9 85.4 39.8 85.3 39.8 C 85.3 39.79 84.9 39.8 84.9 39.8 L 84.9 39 C 84.9 39 85.79 39.05 85.8 39 C 86.2 39 86.4 39.2 86.4 39.6 C 86.4 39.6 86.4 41.8 86.4 41.8 C 86.4 42.4 86.5 42.9 87.2 42.9 C 88.2 42.9 88.7 42.1 88.7 41.2 C 88.7 41.18 88.7 39 88.7 39 L 89.6 39 C 89.6 39 89.58 42.66 89.6 42.7 C 89.6 42.8 89.6 42.9 89.8 42.9 C 89.77 42.86 90.1 42.9 90.1 42.9 L 90.1 43.6 C 90.1 43.6 89.31 43.6 89.3 43.6 C 88.9 43.6 88.7 43.4 88.7 43.1 C 88.7 43.1 88.7 42.9 88.7 42.9 C 88.7 42.8 88.7 42.7 88.7 42.7 C 88.7 42.7 88.7 42.7 88.7 42.7 C 88.5 43.1 87.9 43.7 87 43.7 C 86 43.7 85.5 43.2 85.5 42 C 85.5 42 85.5 40 85.5 40 Z M 93.5 42.3 C 93.5 42.3 93.99 43 94.8 43 C 95.3 43 95.6 42.8 95.6 42.4 C 95.6 41.6 93.1 41.7 93.1 40.2 C 93.1 39.3 93.9 38.9 94.8 38.9 C 95.4 38.9 96.3 39.1 96.3 39.8 C 96.33 39.82 96.3 40.3 96.3 40.3 L 95.5 40.3 C 95.5 40.3 95.54 40.03 95.5 40 C 95.5 39.8 95.1 39.6 94.9 39.6 C 94.3 39.6 94 39.8 94 40.2 C 94 41 96.5 40.9 96.5 42.4 C 96.5 43.2 95.8 43.7 94.8 43.7 C 93.61 43.71 93 42.9 93 42.9 L 93.5 42.3 Z " stroke="none" fill="#323232"/>  </g>  <g id="Polygon70037">    <path d="M 12.4 24.7 C 14 24.7 14.8 25.8 14.8 27.2 C 14.81 27.36 14.8 27.7 14.8 27.7 C 14.8 27.7 11.52 27.71 11.5 27.7 C 11.7 28.4 12.2 28.6 12.7 28.6 C 13.46 28.65 14.1 28.1 14.1 28.1 L 14.8 29.3 C 14.8 29.3 13.95 30.09 12.6 30.1 C 10.7 30.1 9.8 28.8 9.8 27.4 C 9.8 25.9 10.8 24.7 12.4 24.7 Z M 13 26.7 C 13 26.3 12.8 26 12.4 26 C 11.9 26 11.7 26.3 11.6 26.7 C 11.6 26.7 13 26.7 13 26.7 Z M 15.9 26.5 C 15.9 26.3 15.9 26.3 15.7 26.3 C 15.71 26.27 15.3 26.3 15.3 26.3 L 15.3 24.8 C 15.3 24.8 16.87 24.82 16.9 24.8 C 17.3 24.8 17.6 25 17.6 25.4 C 17.6 25.4 17.6 25.5 17.6 25.5 C 17.6 25.5 17.6 25.6 17.6 25.6 C 17.6 25.6 17.6 25.6 17.6 25.6 C 17.8 25.2 18.3 24.7 19.2 24.7 C 20.3 24.7 21.1 25.2 21.1 26.6 C 21.1 26.6 21.1 28.3 21.1 28.3 C 21.1 28.4 21.2 28.5 21.3 28.5 C 21.3 28.52 21.7 28.5 21.7 28.5 L 21.7 30 C 21.7 30 20.08 29.97 20.1 30 C 19.6 30 19.4 29.7 19.4 29.2 C 19.4 29.2 19.4 26.9 19.4 26.9 C 19.4 26.5 19.2 26.3 18.8 26.3 C 18.2 26.3 17.9 26.6 17.8 27 C 17.7 27.2 17.7 27.4 17.7 27.7 C 17.66 27.69 17.7 30 17.7 30 L 15.9 30 C 15.9 30 15.93 26.49 15.9 26.5 Z M 22 29.1 C 22 29.1 24 26.74 24 26.7 C 24.26 26.42 24.5 26.3 24.5 26.3 L 24.5 26.2 C 24.5 26.2 24.32 26.27 24 26.3 C 24 26.3 23.8 26.3 23.8 26.3 C 23.7 26.3 23.6 26.3 23.6 26.5 C 23.59 26.49 23.6 26.7 23.6 26.7 L 22 26.7 C 22 26.7 22.04 25.55 22 25.5 C 22 25 22.3 24.8 22.8 24.8 C 22.77 24.82 26.7 24.8 26.7 24.8 L 26.7 25.7 C 26.7 25.7 24.74 28.06 24.7 28.1 C 24.49 28.37 24.3 28.5 24.3 28.5 L 24.3 28.5 C 24.3 28.5 24.41 28.52 24.7 28.5 C 24.7 28.5 25.1 28.5 25.1 28.5 C 25.3 28.5 25.3 28.4 25.3 28.3 C 25.34 28.3 25.3 28.1 25.3 28.1 L 26.9 28.1 C 26.9 28.1 26.89 29.24 26.9 29.2 C 26.9 29.7 26.7 30 26.2 30 C 26.16 29.97 22 30 22 30 L 22 29.1 Z M 27.9 26.5 C 27.9 26.3 27.8 26.3 27.7 26.3 C 27.68 26.27 27.3 26.3 27.3 26.3 L 27.3 24.8 C 27.3 24.8 28.9 24.82 28.9 24.8 C 29.4 24.8 29.6 25 29.6 25.5 C 29.6 25.5 29.6 28.3 29.6 28.3 C 29.6 28.4 29.7 28.5 29.9 28.5 C 29.85 28.52 30.2 28.5 30.2 28.5 L 30.2 30 C 30.2 30 28.63 29.97 28.6 30 C 28.1 30 27.9 29.7 27.9 29.2 C 27.9 29.2 27.9 26.5 27.9 26.5 Z M 28.9 22.8 L 30.4 22.8 L 29.3 24.3 L 28.1 24.3 L 28.9 22.8 Z M 31.3 26.5 C 31.3 26.3 31.2 26.3 31 26.3 C 31.04 26.27 30.7 26.3 30.7 26.3 L 30.7 24.8 C 30.7 24.8 32.21 24.82 32.2 24.8 C 32.7 24.8 32.9 25 32.9 25.4 C 32.9 25.4 32.9 25.5 32.9 25.5 C 32.9 25.5 32.9 25.6 32.9 25.6 C 32.9 25.6 32.9 25.6 32.9 25.6 C 33.2 25.2 33.6 24.7 34.5 24.7 C 35.1 24.7 35.6 25 35.9 25.6 C 35.9 25.6 35.9 25.6 35.9 25.6 C 36.2 25.1 36.8 24.7 37.6 24.7 C 38.5 24.7 39.2 25.2 39.2 26.6 C 39.2 26.6 39.2 28.3 39.2 28.3 C 39.2 28.4 39.3 28.5 39.5 28.5 C 39.45 28.52 39.8 28.5 39.8 28.5 L 39.8 30 C 39.8 30 38.23 29.97 38.2 30 C 37.7 30 37.5 29.7 37.5 29.2 C 37.5 29.2 37.5 26.9 37.5 26.9 C 37.5 26.5 37.4 26.3 37.1 26.3 C 36.6 26.3 36.3 26.7 36.2 27.3 C 36.1 27.4 36.1 27.6 36.1 27.8 C 36.11 27.84 36.1 30 36.1 30 L 34.4 30 C 34.4 30 34.38 26.92 34.4 26.9 C 34.4 26.5 34.3 26.3 34 26.3 C 33.5 26.3 33.2 26.7 33.1 27.2 C 33 27.4 33 27.6 33 27.8 C 32.99 27.84 33 30 33 30 L 31.3 30 C 31.3 30 31.26 26.49 31.3 26.5 Z M 43.2 24.7 C 44.8 24.7 46.1 25.8 46.1 27.4 C 46.1 29 44.8 30.1 43.2 30.1 C 41.5 30.1 40.3 29 40.3 27.4 C 40.3 25.8 41.5 24.7 43.2 24.7 Z M 43.2 28.6 C 43.8 28.6 44.3 28.2 44.3 27.4 C 44.3 26.6 43.8 26.1 43.2 26.1 C 42.5 26.1 42 26.6 42 27.4 C 42 28.2 42.5 28.6 43.2 28.6 Z M 46.7 26.4 C 46.6 26.3 46.6 26.3 46.5 26.3 C 46.45 26.27 46.3 26.3 46.3 26.3 L 46.3 24.8 C 46.3 24.8 47.42 24.82 47.4 24.8 C 47.8 24.8 48 25 48.1 25.2 C 48.1 25.2 48.9 27.6 48.9 27.6 C 49.01 27.89 49.1 28.4 49.1 28.4 L 49.1 28.4 C 49.1 28.4 49.19 27.89 49.3 27.6 C 49.3 27.6 50.1 25.2 50.1 25.2 C 50.2 25 50.4 24.8 50.8 24.8 C 50.78 24.82 51.8 24.8 51.8 24.8 L 51.8 26.3 C 51.8 26.3 51.66 26.27 51.7 26.3 C 51.5 26.3 51.5 26.3 51.4 26.4 C 51.42 26.43 50.1 30 50.1 30 L 48 30 C 48 30 46.67 26.43 46.7 26.4 Z M 58.4 22.7 C 59.3 22.7 61.2 23 61.2 24.4 C 61.17 24.37 61.2 25.3 61.2 25.3 L 59.6 25.3 C 59.6 25.3 59.57 24.92 59.6 24.9 C 59.6 24.5 58.9 24.3 58.5 24.3 C 57.4 24.3 56.6 25 56.6 26.3 C 56.6 27.5 57.5 28.4 58.5 28.4 C 59.76 28.44 60.6 27.5 60.6 27.5 L 61.5 28.8 C 61.5 28.8 60.38 30.09 58.5 30.1 C 56.2 30.1 54.7 28.5 54.7 26.3 C 54.7 24.3 56.3 22.7 58.4 22.7 Z M 63.9 26.8 C 63.9 26.8 62.34 24.54 62.3 24.5 C 62.2 24.3 62.2 24.3 62 24.3 C 61.98 24.32 61.7 24.3 61.7 24.3 L 61.7 22.8 C 61.7 22.8 62.67 22.82 62.7 22.8 C 63.1 22.8 63.4 22.9 63.6 23.3 C 63.6 23.3 64.3 24.5 64.3 24.5 C 64.59 24.99 64.8 25.3 64.8 25.3 L 64.8 25.3 C 64.8 25.3 64.93 24.99 65.2 24.5 C 65.2 24.5 65.9 23.3 65.9 23.3 C 66.2 22.9 66.4 22.8 66.8 22.8 C 66.84 22.82 67.8 22.8 67.8 22.8 L 67.8 24.3 C 67.8 24.3 67.53 24.32 67.5 24.3 C 67.3 24.3 67.3 24.3 67.2 24.5 C 67.17 24.54 65.7 26.8 65.7 26.8 L 65.7 30 L 63.9 30 L 63.9 26.8 Z M 68.9 24.3 L 68.2 24.3 L 68.2 22.8 C 68.2 22.8 71.67 22.82 71.7 22.8 C 73.1 22.8 74 23.8 74 25.3 C 74 26.7 73.1 27.8 71.7 27.8 C 71.67 27.76 70.6 27.8 70.6 27.8 L 70.6 30 L 68.9 30 L 68.9 24.3 Z M 71.3 26.3 C 71.9 26.3 72.2 25.8 72.2 25.3 C 72.2 24.7 71.9 24.3 71.3 24.3 C 71.34 24.32 70.6 24.3 70.6 24.3 L 70.6 26.3 C 70.6 26.3 71.31 26.26 71.3 26.3 Z M 74.4 27.2 L 76.9 22.8 L 79.1 22.8 L 79.1 26.8 L 80.2 26.8 L 80.2 28.3 L 79.1 28.3 L 79.1 30 L 77.3 30 L 77.3 28.3 L 74.4 28.3 L 74.4 27.2 Z M 77.3 25.5 C 77.34 25.15 77.4 24.7 77.4 24.7 L 77.4 24.7 C 77.4 24.7 77.2 25.13 77 25.4 C 77 25.4 76.5 26.3 76.5 26.3 C 76.36 26.62 76.2 26.8 76.2 26.8 L 76.2 26.8 C 76.2 26.8 76.48 26.79 76.8 26.8 C 76.84 26.79 77.3 26.8 77.3 26.8 C 77.3 26.8 77.34 25.54 77.3 25.5 Z M 81.5 27.7 C 81.5 27.7 82.2 28.44 83.2 28.4 C 83.8 28.4 84.1 28 84.1 27.6 C 84.1 27 83.5 26.7 82.8 26.7 C 82.06 26.74 81.5 27 81.5 27 L 81 26.7 C 81 26.7 81.18 23.55 81.2 23.5 C 81.2 23 81.4 22.8 81.9 22.8 C 81.9 22.8 84.8 22.8 84.8 22.8 C 85.3 22.8 85.5 23 85.5 23.5 C 85.5 23.55 85.5 24.9 85.5 24.9 L 83.9 24.9 C 83.9 24.9 83.9 24.54 83.9 24.5 C 83.9 24.4 83.8 24.3 83.7 24.3 C 83.7 24.3 83 24.3 83 24.3 C 82.8 24.3 82.8 24.4 82.8 24.5 C 82.8 24.5 82.7 25 82.7 25 C 82.72 25.17 82.7 25.3 82.7 25.3 L 82.7 25.3 C 82.7 25.3 82.97 25.27 83.2 25.3 C 85 25.3 85.9 26.3 85.9 27.6 C 85.9 28.9 85 30.1 83.2 30.1 C 81.6 30.1 80.7 29.1 80.7 29.1 L 81.5 27.7 Z M 86.8 26.4 C 86.8 24.3 87.4 22.7 89.5 22.7 C 91.5 22.7 92.2 24.3 92.2 26.4 C 92.2 28.4 91.5 30.1 89.5 30.1 C 87.4 30.1 86.8 28.4 86.8 26.4 Z M 90.4 26.4 C 90.4 25.2 90.2 24.3 89.5 24.3 C 88.8 24.3 88.6 25.2 88.6 26.4 C 88.6 27.5 88.8 28.5 89.5 28.5 C 90.2 28.5 90.4 27.5 90.4 26.4 Z " stroke="none" fill="#5f0f50"/>  </g>  <g id="Polygon70036">    <path d="M 9.8 18.5 L 10.6 18.5 L 10.6 14.3 L 9.8 14.3 L 9.8 12.8 L 13 12.8 L 13 14.3 L 12.3 14.3 L 12.3 18.5 L 13 18.5 L 13 20 L 9.8 20 L 9.8 18.5 Z M 14.1 16.5 C 14.1 16.3 14 16.3 13.9 16.3 C 13.88 16.27 13.5 16.3 13.5 16.3 L 13.5 14.8 C 13.5 14.8 15.04 14.82 15 14.8 C 15.5 14.8 15.8 15 15.8 15.4 C 15.8 15.4 15.8 15.5 15.8 15.5 C 15.8 15.5 15.8 15.6 15.8 15.6 C 15.8 15.6 15.8 15.6 15.8 15.6 C 16 15.2 16.5 14.7 17.4 14.7 C 18.4 14.7 19.3 15.2 19.3 16.6 C 19.3 16.6 19.3 18.3 19.3 18.3 C 19.3 18.4 19.3 18.5 19.5 18.5 C 19.47 18.52 19.9 18.5 19.9 18.5 L 19.9 20 C 19.9 20 18.25 19.97 18.3 20 C 17.7 20 17.5 19.7 17.5 19.2 C 17.5 19.2 17.5 16.9 17.5 16.9 C 17.5 16.5 17.3 16.3 17 16.3 C 16.4 16.3 16.1 16.6 15.9 17 C 15.9 17.2 15.8 17.4 15.8 17.7 C 15.83 17.69 15.8 20 15.8 20 L 14.1 20 C 14.1 20 14.1 16.49 14.1 16.5 Z M 20.8 14.5 C 20.8 14.3 20.7 14.3 20.6 14.3 C 20.55 14.27 20.2 14.3 20.2 14.3 L 20.2 12.8 C 20.2 12.8 21.77 12.82 21.8 12.8 C 22.3 12.8 22.5 13 22.5 13.5 C 22.5 13.5 22.5 15.1 22.5 15.1 C 22.5 15.34 22.5 15.5 22.5 15.5 C 22.5 15.5 22.5 15.52 22.5 15.5 C 22.8 15 23.4 14.7 24.1 14.7 C 25.1 14.7 25.9 15.2 25.9 16.6 C 25.9 16.6 25.9 18.3 25.9 18.3 C 25.9 18.4 26 18.5 26.1 18.5 C 26.14 18.52 26.5 18.5 26.5 18.5 L 26.5 20 C 26.5 20 24.92 19.97 24.9 20 C 24.4 20 24.2 19.7 24.2 19.2 C 24.2 19.2 24.2 16.9 24.2 16.9 C 24.2 16.5 24 16.3 23.6 16.3 C 23.1 16.3 22.7 16.6 22.6 17 C 22.5 17.2 22.5 17.4 22.5 17.7 C 22.5 17.69 22.5 20 22.5 20 L 20.8 20 C 20.8 20 20.77 14.49 20.8 14.5 Z M 27.6 12.8 L 29.1 12.8 L 29.1 14.2 L 27.6 14.2 L 27.6 12.8 Z M 27.5 16.5 C 27.5 16.3 27.4 16.3 27.3 16.3 C 27.29 16.27 26.9 16.3 26.9 16.3 L 26.9 14.8 C 26.9 14.8 28.51 14.82 28.5 14.8 C 29 14.8 29.2 15 29.2 15.5 C 29.2 15.5 29.2 18.3 29.2 18.3 C 29.2 18.4 29.3 18.5 29.5 18.5 C 29.46 18.52 29.8 18.5 29.8 18.5 L 29.8 20 C 29.8 20 28.24 19.97 28.2 20 C 27.7 20 27.5 19.7 27.5 19.2 C 27.5 19.2 27.5 16.5 27.5 16.5 Z M 30.8 14.5 C 30.8 14.3 30.7 14.3 30.6 14.3 C 30.59 14.27 30.2 14.3 30.2 14.3 L 30.2 12.8 C 30.2 12.8 31.81 12.82 31.8 12.8 C 32.3 12.8 32.5 13 32.5 13.5 C 32.5 13.5 32.5 14.8 32.5 14.8 C 32.54 15.02 32.5 15.2 32.5 15.2 L 32.5 15.2 C 32.5 15.2 33.02 14.7 33.9 14.7 C 35.3 14.7 36.3 15.8 36.3 17.4 C 36.3 19 35.2 20.1 33.9 20.1 C 32.9 20.09 32.4 19.6 32.4 19.6 L 32.4 19.6 C 32.4 19.6 32.43 19.69 32.4 19.8 C 32.43 19.85 32.4 20 32.4 20 L 30.8 20 C 30.8 20 30.81 14.49 30.8 14.5 Z M 33.5 18.7 C 34 18.7 34.5 18.2 34.5 17.4 C 34.5 16.7 34.1 16.2 33.5 16.2 C 33 16.2 32.5 16.5 32.5 17.4 C 32.5 18 32.8 18.7 33.5 18.7 Z M 37.3 16.5 C 37.3 16.3 37.3 16.3 37.1 16.3 C 37.12 16.27 36.7 16.3 36.7 16.3 L 36.7 14.8 C 36.7 14.8 38.34 14.82 38.3 14.8 C 38.9 14.8 39.1 15 39.1 15.5 C 39.1 15.5 39.1 18.3 39.1 18.3 C 39.1 18.4 39.2 18.5 39.3 18.5 C 39.29 18.52 39.7 18.5 39.7 18.5 L 39.7 20 C 39.7 20 38.07 19.97 38.1 20 C 37.6 20 37.3 19.7 37.3 19.2 C 37.3 19.2 37.3 16.5 37.3 16.5 Z M 38.3 12.8 L 39.9 12.8 L 38.7 14.3 L 37.5 14.3 L 38.3 12.8 Z M 43.1 14.7 C 43.8 14.7 45 15 45 15.9 C 44.97 15.91 45 16.6 45 16.6 L 43.5 16.6 C 43.5 16.6 43.47 16.35 43.5 16.3 C 43.5 16.2 43.3 16.1 43.1 16.1 C 42.3 16.1 41.9 16.7 41.9 17.4 C 41.9 18.2 42.6 18.6 43.2 18.6 C 43.94 18.6 44.6 17.9 44.6 17.9 L 45.3 19.1 C 45.3 19.1 44.5 20.09 43 20.1 C 41.2 20.1 40.2 18.8 40.2 17.4 C 40.2 16 41.1 14.7 43.1 14.7 Z M 46.3 12.8 L 47.8 12.8 L 47.8 14.2 L 46.3 14.2 L 46.3 12.8 Z M 46.2 16.5 C 46.2 16.3 46.1 16.3 46 16.3 C 45.97 16.27 45.6 16.3 45.6 16.3 L 45.6 14.8 C 45.6 14.8 47.19 14.82 47.2 14.8 C 47.7 14.8 47.9 15 47.9 15.5 C 47.9 15.5 47.9 18.3 47.9 18.3 C 47.9 18.4 48 18.5 48.1 18.5 C 48.14 18.52 48.5 18.5 48.5 18.5 L 48.5 20 C 48.5 20 46.92 19.97 46.9 20 C 46.4 20 46.2 19.7 46.2 19.2 C 46.2 19.2 46.2 16.5 46.2 16.5 Z M 52 16.7 C 52.01 16.73 52.1 16.7 52.1 16.7 C 52.1 16.7 52.08 16.67 52.1 16.7 C 52.1 16.2 51.9 16 51.4 16 C 51.2 16 51 16 51 16.2 C 50.97 16.25 51 16.5 51 16.5 L 49.4 16.5 C 49.4 16.5 49.37 15.91 49.4 15.9 C 49.4 14.8 50.8 14.7 51.4 14.7 C 53.2 14.7 53.8 15.6 53.8 16.8 C 53.8 16.8 53.8 18.3 53.8 18.3 C 53.8 18.4 53.9 18.5 54 18.5 C 54.03 18.52 54.4 18.5 54.4 18.5 L 54.4 20 C 54.4 20 52.91 19.97 52.9 20 C 52.4 20 52.2 19.7 52.2 19.4 C 52.23 19.39 52.2 19.3 52.2 19.3 L 52.2 19.3 C 52.2 19.3 51.85 20.09 50.8 20.1 C 49.8 20.1 49 19.4 49 18.4 C 49 16.9 51.2 16.7 52 16.7 Z M 51.3 18.8 C 51.7 18.8 52.1 18.3 52.1 17.9 C 52.1 17.86 52.1 17.8 52.1 17.8 C 52.1 17.8 51.94 17.78 51.9 17.8 C 51.4 17.8 50.8 17.9 50.8 18.3 C 50.8 18.6 50.9 18.8 51.3 18.8 Z M 58 16.5 C 58 16.3 57.9 16.3 57.8 16.3 C 57.75 16.27 57.4 16.3 57.4 16.3 L 57.4 14.8 C 57.4 14.8 58.86 14.82 58.9 14.8 C 59.4 14.8 59.5 15 59.5 15.3 C 59.53 15.33 59.5 15.4 59.5 15.4 L 59.6 15.4 C 59.6 15.4 60 14.7 61.1 14.7 C 62.5 14.7 63.4 15.8 63.4 17.4 C 63.4 19 62.4 20.1 61 20.1 C 60.17 20.09 59.7 19.6 59.7 19.6 L 59.7 19.6 C 59.7 19.6 59.7 19.83 59.7 20.1 C 59.7 20.09 59.7 22 59.7 22 L 58 22 C 58 22 57.97 16.49 58 16.5 Z M 59.7 17.4 C 59.7 18 60 18.7 60.7 18.7 C 61.2 18.7 61.7 18.2 61.7 17.4 C 61.7 16.7 61.3 16.2 60.7 16.2 C 60.1 16.2 59.7 16.5 59.7 17.4 C 59.7 17.4 59.7 17.4 59.7 17.4 Z M 66.6 14.7 C 68.1 14.7 69 15.8 69 17.2 C 68.97 17.36 68.9 17.7 68.9 17.7 C 68.9 17.7 65.68 17.71 65.7 17.7 C 65.8 18.4 66.3 18.6 66.9 18.6 C 67.62 18.65 68.3 18.1 68.3 18.1 L 68.9 19.3 C 68.9 19.3 68.11 20.09 66.7 20.1 C 64.9 20.1 63.9 18.8 63.9 17.4 C 63.9 15.9 64.9 14.7 66.6 14.7 Z M 67.2 16.7 C 67.2 16.3 67 16 66.6 16 C 66.1 16 65.8 16.3 65.7 16.7 C 65.7 16.7 67.2 16.7 67.2 16.7 Z M 72.5 14.7 C 73.2 14.7 74.4 15 74.4 15.9 C 74.36 15.91 74.4 16.6 74.4 16.6 L 72.9 16.6 C 72.9 16.6 72.86 16.35 72.9 16.3 C 72.9 16.2 72.7 16.1 72.5 16.1 C 71.7 16.1 71.3 16.7 71.3 17.4 C 71.3 18.2 72 18.6 72.6 18.6 C 73.33 18.6 74 17.9 74 17.9 L 74.7 19.1 C 74.7 19.1 73.89 20.09 72.4 20.1 C 70.6 20.1 69.6 18.8 69.6 17.4 C 69.6 16 70.5 14.7 72.5 14.7 Z M 70.5 12.8 L 71.7 12.8 L 72.2 13.6 L 72.2 13.6 L 72.7 12.8 L 73.9 12.8 L 72.9 14.3 L 71.5 14.3 L 70.5 12.8 Z M 77.7 14.7 C 79.2 14.7 80.1 15.8 80.1 17.2 C 80.07 17.36 80 17.7 80 17.7 C 80 17.7 76.78 17.71 76.8 17.7 C 76.9 18.4 77.4 18.6 78 18.6 C 78.72 18.65 79.4 18.1 79.4 18.1 L 80 19.3 C 80 19.3 79.21 20.09 77.8 20.1 C 76 20.1 75 18.8 75 17.4 C 75 15.9 76 14.7 77.7 14.7 Z M 78.3 16.7 C 78.3 16.3 78.1 16 77.7 16 C 77.2 16 76.9 16.3 76.8 16.7 C 76.8 16.7 78.3 16.7 78.3 16.7 Z M 81.2 16.5 C 81.2 16.3 81.1 16.3 81 16.3 C 80.97 16.27 80.6 16.3 80.6 16.3 L 80.6 14.8 C 80.6 14.8 82.13 14.82 82.1 14.8 C 82.6 14.8 82.9 15 82.9 15.4 C 82.9 15.4 82.9 15.5 82.9 15.5 C 82.9 15.5 82.8 15.6 82.8 15.6 C 82.8 15.6 82.9 15.6 82.9 15.6 C 83.1 15.2 83.6 14.7 84.5 14.7 C 85.5 14.7 86.3 15.2 86.3 16.6 C 86.3 16.6 86.3 18.3 86.3 18.3 C 86.3 18.4 86.4 18.5 86.6 18.5 C 86.56 18.52 86.9 18.5 86.9 18.5 L 86.9 20 C 86.9 20 85.34 19.97 85.3 20 C 84.8 20 84.6 19.7 84.6 19.2 C 84.6 19.2 84.6 16.9 84.6 16.9 C 84.6 16.5 84.4 16.3 84 16.3 C 83.5 16.3 83.2 16.6 83 17 C 83 17.2 82.9 17.4 82.9 17.7 C 82.92 17.69 82.9 20 82.9 20 L 81.2 20 C 81.2 20 81.19 16.49 81.2 16.5 Z M 82.1 12.8 L 83.3 12.8 L 83.8 13.6 L 83.8 13.6 L 84.3 12.8 L 85.5 12.8 L 84.5 14.3 L 83.1 14.3 L 82.1 12.8 Z M 90.3 14.7 C 91.9 14.7 93.2 15.8 93.2 17.4 C 93.2 19 91.9 20.1 90.3 20.1 C 88.7 20.1 87.4 19 87.4 17.4 C 87.4 15.8 88.7 14.7 90.3 14.7 Z M 90.3 18.6 C 90.9 18.6 91.4 18.2 91.4 17.4 C 91.4 16.6 90.9 16.1 90.3 16.1 C 89.6 16.1 89.1 16.6 89.1 17.4 C 89.1 18.2 89.6 18.6 90.3 18.6 Z M 93.8 16.4 C 93.7 16.3 93.7 16.3 93.6 16.3 C 93.56 16.27 93.4 16.3 93.4 16.3 L 93.4 14.8 C 93.4 14.8 94.53 14.82 94.5 14.8 C 94.9 14.8 95.1 15 95.2 15.2 C 95.2 15.2 96 17.6 96 17.6 C 96.12 17.89 96.2 18.4 96.2 18.4 L 96.2 18.4 C 96.2 18.4 96.3 17.89 96.4 17.6 C 96.4 17.6 97.2 15.2 97.2 15.2 C 97.3 15 97.5 14.8 97.9 14.8 C 97.89 14.82 98.9 14.8 98.9 14.8 L 98.9 16.3 C 98.9 16.3 98.77 16.27 98.8 16.3 C 98.7 16.3 98.6 16.3 98.5 16.4 C 98.53 16.43 97.2 20 97.2 20 L 95.1 20 C 95.1 20 93.78 16.43 93.8 16.4 Z M 100.3 20.6 C 100.6 20.6 100.9 20.5 101.1 20.1 C 101.06 20.12 101.1 20 101.1 20 C 101.1 20 99.49 16.43 99.5 16.4 C 99.4 16.3 99.4 16.3 99.3 16.3 C 99.27 16.27 99.1 16.3 99.1 16.3 L 99.1 14.8 C 99.1 14.8 100.34 14.82 100.3 14.8 C 100.6 14.8 100.8 15 100.9 15.2 C 100.9 15.2 101.7 17.3 101.7 17.3 C 101.8 17.6 101.9 18.1 101.9 18.1 L 101.9 18.1 C 101.9 18.1 102 17.6 102.1 17.3 C 102.1 17.3 102.7 15.2 102.7 15.2 C 102.7 15 103 14.8 103.3 14.8 C 103.26 14.82 104.6 14.8 104.6 14.8 L 104.6 16.3 C 104.6 16.3 104.36 16.27 104.4 16.3 C 104.2 16.3 104.2 16.3 104.1 16.4 C 104.1 16.4 102.6 20.5 102.6 20.5 C 102.1 21.7 101.2 22.1 100.4 22.1 C 99.52 22.07 99 21.5 99 21.5 L 99.6 20.3 C 99.6 20.3 99.88 20.63 100.3 20.6 Z M 102.1 12.8 L 103.6 12.8 L 102.4 14.3 L 101.2 14.3 L 102.1 12.8 Z M 107.7 14.7 C 108.4 14.7 109.6 15 109.6 15.9 C 109.61 15.91 109.6 16.6 109.6 16.6 L 108.1 16.6 C 108.1 16.6 108.11 16.35 108.1 16.3 C 108.1 16.2 107.9 16.1 107.7 16.1 C 107 16.1 106.5 16.7 106.5 17.4 C 106.5 18.2 107.2 18.6 107.8 18.6 C 108.58 18.6 109.3 17.9 109.3 17.9 L 110 19.1 C 110 19.1 109.14 20.09 107.7 20.1 C 105.8 20.1 104.8 18.8 104.8 17.4 C 104.8 16 105.8 14.7 107.7 14.7 Z M 110.7 14.5 C 110.7 14.3 110.7 14.3 110.5 14.3 C 110.51 14.27 110.1 14.3 110.1 14.3 L 110.1 12.8 C 110.1 12.8 111.73 12.82 111.7 12.8 C 112.2 12.8 112.5 13 112.5 13.5 C 112.5 13.5 112.5 15.1 112.5 15.1 C 112.46 15.34 112.4 15.5 112.4 15.5 C 112.4 15.5 112.46 15.52 112.5 15.5 C 112.8 15 113.4 14.7 114 14.7 C 115.1 14.7 115.9 15.2 115.9 16.6 C 115.9 16.6 115.9 18.3 115.9 18.3 C 115.9 18.4 116 18.5 116.1 18.5 C 116.1 18.52 116.5 18.5 116.5 18.5 L 116.5 20 C 116.5 20 114.88 19.97 114.9 20 C 114.4 20 114.2 19.7 114.2 19.2 C 114.2 19.2 114.2 16.9 114.2 16.9 C 114.2 16.5 114 16.3 113.6 16.3 C 113.1 16.3 112.7 16.6 112.6 17 C 112.5 17.2 112.5 17.4 112.5 17.7 C 112.46 17.69 112.5 20 112.5 20 L 110.7 20 C 110.7 20 110.73 14.49 110.7 14.5 Z " stroke="none" fill="#5f0f50"/>  </g></svg>