<?xml version="1.0" standalone="no"?><!DOCTYPE svg PUBLIC "-//W3C//DTD SVG 1.1//EN" "http://www.w3.org/Graphics/SVG/1.1/DTD/svg11.dtd"><svg xmlns="http://www.w3.org/2000/svg" version="1.1" width="526.1px" height="43.5px" viewBox="0 -5 526.1 43.5" style="top:-5px">  <desc>Rozdiely v typoch estrog nov</desc>  <defs/>  <g id="Polygon68662">    <path d="M 2.3 18.8 L 13.3 14 L 13.3 13.9 L 2.3 9.2 L 2.3 7.2 L 15.9 13.2 L 15.9 14.7 L 2.3 20.8 L 2.3 18.8 Z M 29.5 3.3 L 27.6 3.3 L 27.6 1.4 C 27.6 1.4 36.54 1.41 36.5 1.4 C 40.1 1.4 42.6 3.8 42.6 7.4 C 42.6 10.7 40.6 12.6 38.5 13.1 C 38.52 13.05 38.5 13.1 38.5 13.1 C 38.5 13.1 38.94 13.35 39.2 13.9 C 39.2 13.9 42.3 20 42.3 20 C 42.6 20.6 43 20.6 43.8 20.6 C 43.77 20.64 44.2 20.6 44.2 20.6 L 44.2 22.5 C 44.2 22.5 43.26 22.5 43.3 22.5 C 41.5 22.5 41 22.3 40.3 20.9 C 40.3 20.9 37.3 14.9 37.3 14.9 C 36.7 13.8 36.4 13.6 35.2 13.6 C 35.19 13.62 31.6 13.6 31.6 13.6 L 31.6 22.5 L 29.5 22.5 L 29.5 3.3 Z M 36.3 11.8 C 38.8 11.8 40.4 10.1 40.4 7.5 C 40.4 4.9 38.8 3.3 36.4 3.3 C 36.36 3.27 31.6 3.3 31.6 3.3 L 31.6 11.8 C 31.6 11.8 36.33 11.76 36.3 11.8 Z M 53.4 7.1 C 57.8 7.1 61.4 10.4 61.4 14.9 C 61.4 19.4 57.8 22.9 53.5 22.9 C 49 22.9 45.5 19.4 45.5 14.9 C 45.5 10.4 49 7.1 53.4 7.1 Z M 53.5 21 C 56.7 21 59.3 18.4 59.3 14.9 C 59.3 11.5 56.7 8.9 53.5 8.9 C 50.2 8.9 47.6 11.5 47.6 14.9 C 47.6 18.4 50.2 21 53.5 21 Z M 63.5 21.2 C 63.5 21.2 71.97 10.59 72 10.6 C 72.54 9.87 73.2 9.2 73.2 9.2 L 73.2 9.2 C 73.2 9.2 72.66 9.21 71.7 9.2 C 71.7 9.2 66.1 9.2 66.1 9.2 C 65.7 9.2 65.5 9.4 65.5 9.9 C 65.49 9.87 65.5 11 65.5 11 L 63.6 11 C 63.6 11 63.57 9.24 63.6 9.2 C 63.6 8 64.1 7.4 65.4 7.4 C 65.4 7.41 75.9 7.4 75.9 7.4 L 75.9 8.8 C 75.9 8.8 67.41 19.32 67.4 19.3 C 66.81 20.04 66.1 20.7 66.1 20.7 L 66.1 20.8 C 66.1 20.8 66.69 20.7 67.7 20.7 C 67.7 20.7 73.9 20.7 73.9 20.7 C 74.3 20.7 74.6 20.5 74.6 20 C 74.58 20.04 74.6 18.9 74.6 18.9 L 76.5 18.9 C 76.5 18.9 76.5 20.67 76.5 20.7 C 76.5 22 76 22.5 74.7 22.5 C 74.67 22.5 63.5 22.5 63.5 22.5 L 63.5 21.2 Z M 85 7.1 C 88.68 7.05 89.9 9.9 89.9 9.9 L 90 9.9 C 90 9.9 89.94 9.36 89.9 8.7 C 89.9 8.7 89.9 3.8 89.9 3.8 C 89.9 3.4 89.7 3.2 89.3 3.2 C 89.28 3.18 88 3.2 88 3.2 L 88 1.4 C 88 1.4 90.15 1.41 90.1 1.4 C 91.4 1.4 92 2 92 3.2 C 92 3.2 92 20.1 92 20.1 C 92 20.5 92.2 20.7 92.6 20.7 C 92.64 20.73 93.9 20.7 93.9 20.7 L 93.9 22.5 C 93.9 22.5 91.8 22.5 91.8 22.5 C 90.5 22.5 90 21.9 90 20.8 C 90 20.25 90.1 19.9 90.1 19.9 L 90 19.9 C 90 19.9 88.77 22.86 84.8 22.9 C 80.8 22.9 78.2 19.6 78.2 14.9 C 78.2 10.2 81.1 7.1 85 7.1 Z M 90 14.9 C 90 11.9 88.4 8.9 85.2 8.9 C 82.5 8.9 80.3 11.1 80.3 14.9 C 80.3 18.7 82.3 21 85.1 21 C 87.6 21 90 19.2 90 14.9 Z M 97.3 1.4 L 99.3 1.4 L 99.3 4 L 97.3 4 L 97.3 1.4 Z M 97.4 9.8 C 97.4 9.4 97.1 9.2 96.7 9.2 C 96.72 9.18 95.5 9.2 95.5 9.2 L 95.5 7.4 C 95.5 7.4 97.59 7.41 97.6 7.4 C 98.9 7.4 99.4 8 99.4 9.2 C 99.4 9.2 99.4 20.1 99.4 20.1 C 99.4 20.5 99.7 20.7 100.1 20.7 C 100.08 20.73 101.3 20.7 101.3 20.7 L 101.3 22.5 C 101.3 22.5 99.21 22.5 99.2 22.5 C 97.9 22.5 97.4 22 97.4 20.7 C 97.4 20.7 97.4 9.8 97.4 9.8 Z M 110.8 7.1 C 115 7.1 117.1 10.3 117.1 14 C 117.12 14.37 117.1 15 117.1 15 C 117.1 15 105.48 15.03 105.5 15 C 105.5 18.8 108.2 21 111.3 21 C 114.09 21.03 115.9 19.2 115.9 19.2 L 116.8 20.7 C 116.8 20.7 114.66 22.86 111.2 22.9 C 106.8 22.9 103.3 19.6 103.3 15 C 103.3 10 106.7 7.1 110.8 7.1 Z M 115 13.4 C 114.9 10.3 113 8.8 110.8 8.8 C 108.3 8.8 106.1 10.4 105.6 13.4 C 105.6 13.4 115 13.4 115 13.4 Z M 121.2 3.8 C 121.2 3.4 120.9 3.2 120.5 3.2 C 120.51 3.18 119.2 3.2 119.2 3.2 L 119.2 1.4 C 119.2 1.4 121.38 1.41 121.4 1.4 C 122.7 1.4 123.2 2 123.2 3.2 C 123.2 3.2 123.2 20.1 123.2 20.1 C 123.2 20.5 123.4 20.7 123.9 20.7 C 123.87 20.73 125.1 20.7 125.1 20.7 L 125.1 22.5 C 125.1 22.5 123 22.5 123 22.5 C 121.7 22.5 121.2 22 121.2 20.7 C 121.2 20.7 121.2 3.8 121.2 3.8 Z M 129.4 27 C 130.7 27 131.6 25.9 132.2 24.5 C 132.18 24.51 133.1 22.4 133.1 22.4 C 133.1 22.4 127.77 9.87 127.8 9.9 C 127.5 9.3 127.3 9.2 126.7 9.2 C 126.72 9.18 126.4 9.2 126.4 9.2 L 126.4 7.4 C 126.4 7.4 127.35 7.41 127.3 7.4 C 128.7 7.4 129.1 7.7 129.7 9.1 C 129.7 9.1 133.5 18.5 133.5 18.5 C 133.83 19.23 134.1 20.1 134.1 20.1 L 134.1 20.1 C 134.1 20.1 134.34 19.23 134.6 18.5 C 134.6 18.5 138.4 9.1 138.4 9.1 C 138.9 7.7 139.3 7.4 140.7 7.4 C 140.7 7.41 141.6 7.4 141.6 7.4 L 141.6 9.2 C 141.6 9.2 141.33 9.18 141.3 9.2 C 140.8 9.2 140.5 9.3 140.3 9.9 C 140.3 9.9 133.8 25.6 133.8 25.6 C 133 27.6 131.5 28.8 129.4 28.8 C 127.35 28.8 126.2 27.3 126.2 27.3 C 126.2 27.3 127.14 25.83 127.1 25.8 C 127.1 25.9 128.1 27 129.4 27 Z M 152 9.9 C 151.8 9.3 151.5 9.2 151 9.2 C 150.96 9.18 150.7 9.2 150.7 9.2 L 150.7 7.4 C 150.7 7.4 151.5 7.41 151.5 7.4 C 152.9 7.4 153.4 7.7 153.9 9.1 C 153.9 9.1 157.5 18.5 157.5 18.5 C 157.8 19.23 158 20.3 158 20.3 L 158.1 20.3 C 158.1 20.3 158.34 19.23 158.6 18.5 C 158.6 18.5 162.2 9.1 162.2 9.1 C 162.7 7.7 163.2 7.4 164.6 7.4 C 164.61 7.41 165.4 7.4 165.4 7.4 L 165.4 9.2 C 165.4 9.2 165.12 9.18 165.1 9.2 C 164.6 9.2 164.2 9.3 164.1 9.9 C 164.07 9.87 159.1 22.5 159.1 22.5 L 156.9 22.5 C 156.9 22.5 152.01 9.87 152 9.9 Z M 176.8 9.1 L 174.8 9.1 L 174.8 7.4 L 176.8 7.4 L 176.8 3.2 L 178.8 3.2 L 178.8 7.4 L 182.6 7.4 L 182.6 9.1 L 178.8 9.1 C 178.8 9.1 178.8 16.8 178.8 16.8 C 178.8 20.3 181 20.8 182.2 20.8 C 182.61 20.79 182.9 20.7 182.9 20.7 L 182.9 22.6 C 182.9 22.6 182.52 22.62 182 22.6 C 180.3 22.6 176.8 22.1 176.8 17 C 176.76 17.01 176.8 9.1 176.8 9.1 Z M 187.2 27 C 188.5 27 189.4 25.9 190 24.5 C 189.96 24.51 190.9 22.4 190.9 22.4 C 190.9 22.4 185.55 9.87 185.5 9.9 C 185.3 9.3 185 9.2 184.5 9.2 C 184.5 9.18 184.2 9.2 184.2 9.2 L 184.2 7.4 C 184.2 7.4 185.13 7.41 185.1 7.4 C 186.5 7.4 186.9 7.7 187.4 9.1 C 187.4 9.1 191.3 18.5 191.3 18.5 C 191.61 19.23 191.8 20.1 191.8 20.1 L 191.9 20.1 C 191.9 20.1 192.12 19.23 192.4 18.5 C 192.4 18.5 196.1 9.1 196.1 9.1 C 196.6 7.7 197.1 7.4 198.5 7.4 C 198.48 7.41 199.4 7.4 199.4 7.4 L 199.4 9.2 C 199.4 9.2 199.11 9.18 199.1 9.2 C 198.6 9.2 198.3 9.3 198.1 9.9 C 198.1 9.9 191.5 25.6 191.5 25.6 C 190.8 27.6 189.2 28.8 187.2 28.8 C 185.13 28.8 184 27.3 184 27.3 C 184 27.3 184.92 25.83 184.9 25.8 C 184.9 25.9 185.9 27 187.2 27 Z M 202.5 9.8 C 202.5 9.4 202.3 9.2 201.8 9.2 C 201.84 9.18 200.6 9.2 200.6 9.2 L 200.6 7.4 C 200.6 7.4 202.65 7.41 202.6 7.4 C 203.9 7.4 204.4 8 204.4 9 C 204.45 9.6 204.4 10 204.4 10 L 204.5 10 C 204.5 10 205.68 7.05 209.7 7.1 C 213.7 7.1 216.2 10.3 216.2 15 C 216.2 19.7 213.4 22.9 209.5 22.9 C 205.8 22.86 204.5 20 204.5 20 L 204.5 20 C 204.5 20 204.54 20.55 204.5 21.3 C 204.54 21.33 204.5 28.5 204.5 28.5 L 202.5 28.5 C 202.5 28.5 202.5 9.84 202.5 9.8 Z M 209.3 21.1 C 211.9 21.1 214.1 18.8 214.1 15 C 214.1 11.3 212.2 8.9 209.4 8.9 C 206.8 8.9 204.5 10.7 204.5 15 C 204.5 18 206.1 21.1 209.3 21.1 Z M 226.6 7.1 C 231.1 7.1 234.6 10.4 234.6 14.9 C 234.6 19.4 231.1 22.9 226.7 22.9 C 222.3 22.9 218.7 19.4 218.7 14.9 C 218.7 10.4 222.3 7.1 226.6 7.1 Z M 226.7 21 C 229.9 21 232.5 18.4 232.5 14.9 C 232.5 11.5 229.9 8.9 226.7 8.9 C 223.4 8.9 220.8 11.5 220.8 14.9 C 220.8 18.4 223.4 21 226.7 21 Z M 245 7.1 C 246.7 7.1 250.3 7.8 250.3 10.3 C 250.35 10.26 250.3 11.6 250.3 11.6 L 248.4 11.6 C 248.4 11.6 248.43 10.74 248.4 10.7 C 248.4 9.5 246.2 8.9 245 8.9 C 241.7 8.9 239.1 11.3 239.1 15 C 239.1 18.7 241.9 21 245 21 C 248.13 21 249.9 18.9 249.9 18.9 L 250.9 20.4 C 250.9 20.4 248.82 22.86 244.9 22.9 C 240.4 22.9 237 19.7 237 15 C 237 10.4 240.5 7.1 245 7.1 Z M 254.1 3.8 C 254.1 3.4 253.9 3.2 253.4 3.2 C 253.44 3.18 252.2 3.2 252.2 3.2 L 252.2 1.4 C 252.2 1.4 254.31 1.41 254.3 1.4 C 255.6 1.4 256.1 2 256.1 3.2 C 256.1 3.2 256.1 9.6 256.1 9.6 C 256.14 10.26 256.1 10.8 256.1 10.8 C 256.1 10.8 256.14 10.8 256.1 10.8 C 256.7 9.4 258.7 7.1 262.1 7.1 C 265.9 7.1 267.2 9.2 267.2 12.9 C 267.2 12.9 267.2 20.1 267.2 20.1 C 267.2 20.5 267.4 20.7 267.8 20.7 C 267.84 20.73 269.1 20.7 269.1 20.7 L 269.1 22.5 C 269.1 22.5 266.97 22.5 267 22.5 C 265.7 22.5 265.1 22 265.1 20.7 C 265.1 20.7 265.1 13.4 265.1 13.4 C 265.1 11.1 264.8 9 261.8 9 C 259.3 9 257.1 10.7 256.4 13.3 C 256.2 13.9 256.1 14.6 256.1 15.3 C 256.14 15.27 256.1 22.5 256.1 22.5 L 254.1 22.5 C 254.1 22.5 254.1 3.84 254.1 3.8 Z M 286.5 7.1 C 290.7 7.1 292.9 10.3 292.9 14 C 292.86 14.37 292.8 15 292.8 15 C 292.8 15 281.22 15.03 281.2 15 C 281.3 18.8 283.9 21 287.1 21 C 289.83 21.03 291.6 19.2 291.6 19.2 L 292.6 20.7 C 292.6 20.7 290.4 22.86 287 22.9 C 282.5 22.9 279.1 19.6 279.1 15 C 279.1 10 282.5 7.1 286.5 7.1 Z M 290.8 13.4 C 290.6 10.3 288.7 8.8 286.5 8.8 C 284 8.8 281.8 10.4 281.3 13.4 C 281.3 13.4 290.8 13.4 290.8 13.4 Z M 296.4 18.8 C 296.4 18.8 298.05 21.09 301 21.1 C 302.7 21.1 304.2 20.3 304.2 18.7 C 304.2 15.4 295.7 16 295.7 11.1 C 295.7 8.4 298.1 7.1 301.1 7.1 C 302.6 7.1 305.7 7.7 305.7 9.8 C 305.7 9.78 305.7 11.1 305.7 11.1 L 303.8 11.1 C 303.8 11.1 303.78 10.35 303.8 10.4 C 303.8 9.2 302.2 8.8 301.2 8.8 C 299.1 8.8 297.8 9.5 297.8 11 C 297.8 14.4 306.3 13.6 306.3 18.6 C 306.3 21.1 304 22.9 301 22.9 C 297.06 22.86 295.2 20.2 295.2 20.2 L 296.4 18.8 Z M 310.3 9.1 L 308.3 9.1 L 308.3 7.4 L 310.3 7.4 L 310.3 3.2 L 312.4 3.2 L 312.4 7.4 L 316.1 7.4 L 316.1 9.1 L 312.4 9.1 C 312.4 9.1 312.36 16.8 312.4 16.8 C 312.4 20.3 314.6 20.8 315.7 20.8 C 316.17 20.79 316.4 20.7 316.4 20.7 L 316.4 22.6 C 316.4 22.6 316.08 22.62 315.6 22.6 C 313.8 22.6 310.3 22.1 310.3 17 C 310.32 17.01 310.3 9.1 310.3 9.1 Z M 320.2 9.8 C 320.2 9.4 319.9 9.2 319.5 9.2 C 319.52 9.18 318.3 9.2 318.3 9.2 L 318.3 7.4 C 318.3 7.4 320.36 7.41 320.4 7.4 C 321.6 7.4 322.2 7.9 322.2 9.1 C 322.2 9.1 322.2 10.1 322.2 10.1 C 322.19 10.77 322.1 11.3 322.1 11.3 C 322.1 11.3 322.19 11.28 322.2 11.3 C 322.9 9 324.6 7.3 327 7.3 C 327.38 7.26 327.8 7.4 327.8 7.4 L 327.8 9.4 C 327.8 9.4 327.41 9.3 327 9.3 C 324.9 9.3 323.3 11 322.6 13.2 C 322.3 14.2 322.2 15.2 322.2 16.1 C 322.22 16.14 322.2 22.5 322.2 22.5 L 320.2 22.5 C 320.2 22.5 320.18 9.84 320.2 9.8 Z M 337 7.1 C 341.4 7.1 345 10.4 345 14.9 C 345 19.4 341.4 22.9 337 22.9 C 332.6 22.9 329 19.4 329 14.9 C 329 10.4 332.6 7.1 337 7.1 Z M 337 21 C 340.2 21 342.9 18.4 342.9 14.9 C 342.9 11.5 340.2 8.9 337 8.9 C 333.8 8.9 331.1 11.5 331.1 14.9 C 331.1 18.4 333.8 21 337 21 Z M 354 7.1 C 358.02 7.05 359 9.6 359 9.6 L 359 9.6 C 359 9.6 359.04 9.36 359 9.1 C 359 8 359.5 7.4 360.7 7.4 C 360.74 7.41 362.8 7.4 362.8 7.4 L 362.8 9.2 C 362.8 9.2 361.62 9.18 361.6 9.2 C 361.2 9.2 361 9.4 361 9.8 C 361 9.8 361 22.1 361 22.1 C 361 26.9 357.4 28.8 353.7 28.8 C 352 28.8 350.2 28.3 348.8 27.6 C 348.77 27.6 349.6 25.9 349.6 25.9 C 349.6 25.9 351.42 26.94 353.6 26.9 C 356.6 26.9 358.9 25.6 358.9 22.2 C 358.9 22.2 358.9 20.9 358.9 20.9 C 358.92 20.31 358.9 19.8 358.9 19.8 C 358.9 19.8 358.89 19.8 358.9 19.8 C 358 21.5 356.5 22.4 354.1 22.4 C 350.1 22.4 347.4 19.2 347.4 14.7 C 347.4 10.1 349.9 7.1 354 7.1 Z M 358.9 14.7 C 358.9 10.3 356.8 8.9 354.2 8.9 C 351.2 8.9 349.5 11 349.5 14.6 C 349.5 18.2 351.5 20.6 354.4 20.6 C 356.8 20.6 358.9 19.1 358.9 14.7 Z M 372.2 7.1 C 376.3 7.1 378.5 10.3 378.5 14 C 378.5 14.37 378.4 15 378.4 15 C 378.4 15 366.86 15.03 366.9 15 C 366.9 18.8 369.6 21 372.7 21 C 375.47 21.03 377.2 19.2 377.2 19.2 L 378.2 20.7 C 378.2 20.7 376.04 22.86 372.6 22.9 C 368.2 22.9 364.7 19.6 364.7 15 C 364.7 10 368.1 7.1 372.2 7.1 Z M 376.4 13.4 C 376.3 10.3 374.4 8.8 372.1 8.8 C 369.7 8.8 367.5 10.4 367 13.4 C 367 13.4 376.4 13.4 376.4 13.4 Z M 373.3 1.4 L 375.6 1.4 L 373 5 L 371.2 5 L 373.3 1.4 Z M 382.6 9.8 C 382.6 9.4 382.3 9.2 381.9 9.2 C 381.92 9.18 380.7 9.2 380.7 9.2 L 380.7 7.4 C 380.7 7.4 382.76 7.41 382.8 7.4 C 384 7.4 384.6 8 384.6 9.1 C 384.6 9.1 384.6 9.8 384.6 9.8 C 384.59 10.38 384.5 10.9 384.5 10.9 C 384.5 10.9 384.59 10.86 384.6 10.9 C 385.1 9.5 387.1 7.1 390.6 7.1 C 394.3 7.1 395.7 9.2 395.7 12.9 C 395.7 12.9 395.7 20.1 395.7 20.1 C 395.7 20.5 395.9 20.7 396.3 20.7 C 396.32 20.73 397.6 20.7 397.6 20.7 L 397.6 22.5 C 397.6 22.5 395.45 22.5 395.5 22.5 C 394.2 22.5 393.6 22 393.6 20.7 C 393.6 20.7 393.6 13.4 393.6 13.4 C 393.6 11.1 393.3 9 390.4 9 C 387.8 9 385.6 10.7 384.9 13.2 C 384.7 13.9 384.6 14.6 384.6 15.3 C 384.62 15.27 384.6 22.5 384.6 22.5 L 382.6 22.5 C 382.6 22.5 382.58 9.84 382.6 9.8 Z M 407.4 7.1 C 411.8 7.1 415.3 10.4 415.3 14.9 C 415.3 19.4 411.8 22.9 407.4 22.9 C 403 22.9 399.4 19.4 399.4 14.9 C 399.4 10.4 403 7.1 407.4 7.1 Z M 407.4 21 C 410.6 21 413.2 18.4 413.2 14.9 C 413.2 11.5 410.6 8.9 407.4 8.9 C 404.2 8.9 401.5 11.5 401.5 14.9 C 401.5 18.4 404.2 21 407.4 21 Z M 418 9.9 C 417.8 9.3 417.5 9.2 416.9 9.2 C 416.93 9.18 416.7 9.2 416.7 9.2 L 416.7 7.4 C 416.7 7.4 417.47 7.41 417.5 7.4 C 418.9 7.4 419.4 7.7 419.9 9.1 C 419.9 9.1 423.5 18.5 423.5 18.5 C 423.77 19.23 424 20.3 424 20.3 L 424.1 20.3 C 424.1 20.3 424.31 19.23 424.6 18.5 C 424.6 18.5 428.2 9.1 428.2 9.1 C 428.7 7.7 429.2 7.4 430.6 7.4 C 430.58 7.41 431.4 7.4 431.4 7.4 L 431.4 9.2 C 431.4 9.2 431.09 9.18 431.1 9.2 C 430.6 9.2 430.2 9.3 430 9.9 C 430.04 9.87 425.1 22.5 425.1 22.5 L 422.9 22.5 C 422.9 22.5 417.98 9.87 418 9.9 Z " stroke="none" fill="#ee3078"/>  </g></svg>