<?xml version="1.0" standalone="no"?><!DOCTYPE svg PUBLIC "-//W3C//DTD SVG 1.1//EN" "http://www.w3.org/Graphics/SVG/1.1/DTD/svg11.dtd"><svg xmlns="http://www.w3.org/2000/svg" version="1.1" width="248px" height="31.5px" viewBox="0 -4 248 31.5" style="top:-4px">  <desc>pokra ovanie u vania</desc>  <defs/>  <g id="Polygon73203">    <path d="M 31 6.3 C 31 6 30.9 5.9 30.7 5.9 C 30.65 5.89 29.9 5.9 29.9 5.9 L 29.9 4.4 C 29.9 4.4 31.55 4.39 31.6 4.4 C 32.4 4.4 32.7 4.7 32.7 5.3 C 32.67 5.58 32.7 5.8 32.7 5.8 L 32.7 5.8 C 32.7 5.8 33.44 4.18 35.7 4.2 C 38.2 4.2 39.7 6.1 39.7 8.9 C 39.7 11.8 38 13.7 35.6 13.7 C 33.57 13.72 32.8 12.3 32.8 12.3 L 32.8 12.3 C 32.8 12.3 32.8 12.58 32.8 13.1 C 32.8 13.05 32.8 17.1 32.8 17.1 L 31 17.1 C 31 17.1 31.05 6.28 31 6.3 Z M 35.3 12.2 C 36.8 12.2 37.9 11 37.9 9 C 37.9 7 36.9 5.7 35.4 5.7 C 34 5.7 32.7 6.7 32.7 9 C 32.7 10.6 33.6 12.2 35.3 12.2 Z M 45.9 4.2 C 48.7 4.2 50.8 6.2 50.8 8.9 C 50.8 11.7 48.7 13.7 45.9 13.7 C 43.2 13.7 41 11.7 41 8.9 C 41 6.2 43.2 4.2 45.9 4.2 Z M 45.9 12.2 C 47.7 12.2 49.1 10.8 49.1 8.9 C 49.1 7 47.7 5.7 45.9 5.7 C 44.2 5.7 42.8 7 42.8 8.9 C 42.8 10.8 44.2 12.2 45.9 12.2 Z M 52.8 2.7 C 52.8 2.4 52.6 2.3 52.4 2.3 C 52.4 2.29 51.7 2.3 51.7 2.3 L 51.7 0.8 C 51.7 0.8 53.39 0.79 53.4 0.8 C 54.2 0.8 54.5 1 54.5 1.8 C 54.54 1.84 54.5 7.7 54.5 7.7 C 54.5 7.7 55.35 7.74 55.3 7.7 C 55.7 7.7 56.1 7.7 56.3 7.3 C 56.3 7.34 58.4 4.4 58.4 4.4 L 60.4 4.4 C 60.4 4.4 57.94 7.78 57.9 7.8 C 57.53 8.33 57.3 8.5 57.3 8.5 L 57.3 8.5 C 57.3 8.5 57.56 8.6 57.9 9.2 C 57.9 9.2 59.2 11.6 59.2 11.6 C 59.4 11.9 59.5 12 60 12 C 59.99 12.01 60.6 12 60.6 12 L 60.6 13.5 C 60.6 13.5 59.29 13.5 59.3 13.5 C 58.4 13.5 58.2 13.4 57.8 12.7 C 57.8 12.7 56.1 9.6 56.1 9.6 C 55.9 9.3 55.5 9.2 55.2 9.2 C 55.22 9.22 54.5 9.2 54.5 9.2 L 54.5 13.5 L 52.8 13.5 C 52.8 13.5 52.79 2.68 52.8 2.7 Z M 62.3 6.3 C 62.3 6 62.2 5.9 61.9 5.9 C 61.92 5.89 61.2 5.9 61.2 5.9 L 61.2 4.4 C 61.2 4.4 62.84 4.39 62.8 4.4 C 63.6 4.4 64 4.7 64 5.5 C 64 5.5 64 6 64 6 C 64.01 6.39 64 6.7 64 6.7 C 64 6.7 64.01 6.66 64 6.7 C 64.4 5.3 65.5 4.3 66.9 4.3 C 67.12 4.28 67.4 4.3 67.4 4.3 L 67.4 6 C 67.4 6 67.12 5.99 66.8 6 C 65.7 6 64.7 6.8 64.3 8.1 C 64.1 8.7 64.1 9.2 64.1 9.8 C 64.06 9.77 64.1 13.5 64.1 13.5 L 62.3 13.5 C 62.3 13.5 62.31 6.28 62.3 6.3 Z M 73.3 7.8 C 73.35 7.83 73.7 7.8 73.7 7.8 C 73.7 7.8 73.74 7.74 73.7 7.7 C 73.7 6.1 73.2 5.6 71.7 5.6 C 71.3 5.6 70.2 5.7 70.2 6.3 C 70.23 6.26 70.2 6.8 70.2 6.8 L 68.6 6.8 C 68.6 6.8 68.6 5.89 68.6 5.9 C 68.6 4.4 70.9 4.2 71.7 4.2 C 74.7 4.2 75.5 5.7 75.5 7.7 C 75.5 7.7 75.5 11.6 75.5 11.6 C 75.5 11.9 75.6 12 75.9 12 C 75.89 12.01 76.6 12 76.6 12 L 76.6 13.5 C 76.6 13.5 74.99 13.5 75 13.5 C 74.2 13.5 73.9 13.1 73.9 12.5 C 73.85 12.15 73.9 11.9 73.9 11.9 L 73.9 11.9 C 73.9 11.9 73.13 13.72 71 13.7 C 69.4 13.7 67.9 12.8 67.9 10.9 C 67.9 8 71.8 7.8 73.3 7.8 Z M 71.3 12.3 C 72.8 12.3 73.8 10.8 73.8 9.4 C 73.76 9.41 73.8 9.1 73.8 9.1 C 73.8 9.1 73.31 9.11 73.3 9.1 C 72 9.1 69.6 9.2 69.6 10.9 C 69.6 11.6 70.2 12.3 71.3 12.3 Z M 82.5 4.2 C 83.6 4.2 85.8 4.6 85.8 6.2 C 85.8 6.17 85.8 7.1 85.8 7.1 L 84.2 7.1 C 84.2 7.1 84.22 6.61 84.2 6.6 C 84.2 6 83.2 5.7 82.5 5.7 C 80.7 5.7 79.4 7 79.4 8.9 C 79.4 11 80.9 12.2 82.6 12.2 C 84.33 12.17 85.4 10.9 85.4 10.9 L 86.2 12.2 C 86.2 12.2 84.9 13.72 82.5 13.7 C 79.6 13.7 77.6 11.7 77.6 8.9 C 77.6 6.3 79.6 4.2 82.5 4.2 Z M 79.8 0.8 L 81.3 0.8 L 82.2 2.3 L 82.2 2.3 L 83.2 0.8 L 84.6 0.8 L 83 3.1 L 81.4 3.1 L 79.8 0.8 Z M 92.1 4.2 C 94.8 4.2 97 6.2 97 8.9 C 97 11.7 94.8 13.7 92.1 13.7 C 89.4 13.7 87.2 11.7 87.2 8.9 C 87.2 6.2 89.4 4.2 92.1 4.2 Z M 92.1 12.2 C 93.9 12.2 95.3 10.8 95.3 8.9 C 95.3 7 93.9 5.7 92.1 5.7 C 90.4 5.7 89 7 89 8.9 C 89 10.8 90.4 12.2 92.1 12.2 Z M 98.5 6.2 C 98.4 6 98.2 5.9 97.9 5.9 C 97.92 5.89 97.7 5.9 97.7 5.9 L 97.7 4.4 C 97.7 4.4 98.64 4.39 98.6 4.4 C 99.4 4.4 99.8 4.6 100 5.3 C 100 5.3 102 10.5 102 10.5 C 102.17 11.05 102.3 11.7 102.3 11.7 L 102.3 11.7 C 102.3 11.7 102.49 11.05 102.7 10.5 C 102.7 10.5 104.6 5.3 104.6 5.3 C 104.9 4.6 105.2 4.4 106 4.4 C 106 4.39 106.8 4.4 106.8 4.4 L 106.8 5.9 C 106.8 5.9 106.67 5.89 106.7 5.9 C 106.4 5.9 106.2 6 106.1 6.2 C 106.07 6.25 103.3 13.5 103.3 13.5 L 101.3 13.5 C 101.3 13.5 98.48 6.25 98.5 6.2 Z M 113.1 7.8 C 113.15 7.83 113.5 7.8 113.5 7.8 C 113.5 7.8 113.54 7.74 113.5 7.7 C 113.5 6.1 112.9 5.6 111.5 5.6 C 111.1 5.6 110 5.7 110 6.3 C 110.03 6.26 110 6.8 110 6.8 L 108.4 6.8 C 108.4 6.8 108.39 5.89 108.4 5.9 C 108.4 4.4 110.7 4.2 111.5 4.2 C 114.5 4.2 115.3 5.7 115.3 7.7 C 115.3 7.7 115.3 11.6 115.3 11.6 C 115.3 11.9 115.4 12 115.7 12 C 115.68 12.01 116.4 12 116.4 12 L 116.4 13.5 C 116.4 13.5 114.78 13.5 114.8 13.5 C 114 13.5 113.7 13.1 113.7 12.5 C 113.65 12.15 113.7 11.9 113.7 11.9 L 113.7 11.9 C 113.7 11.9 112.93 13.72 110.8 13.7 C 109.2 13.7 107.7 12.8 107.7 10.9 C 107.7 8 111.6 7.8 113.1 7.8 Z M 111.1 12.3 C 112.6 12.3 113.6 10.8 113.6 9.4 C 113.56 9.41 113.6 9.1 113.6 9.1 C 113.6 9.1 113.11 9.11 113.1 9.1 C 111.8 9.1 109.4 9.2 109.4 10.9 C 109.4 11.6 110 12.3 111.1 12.3 Z M 118.3 6.3 C 118.3 6 118.2 5.9 117.9 5.9 C 117.92 5.89 117.2 5.9 117.2 5.9 L 117.2 4.4 C 117.2 4.4 118.85 4.39 118.9 4.4 C 119.6 4.4 120 4.7 120 5.4 C 120 5.4 120 5.7 120 5.7 C 120 6.03 120 6.3 120 6.3 C 120 6.3 120 6.26 120 6.3 C 120.4 5.5 121.4 4.2 123.4 4.2 C 125.6 4.2 126.6 5.3 126.6 7.7 C 126.6 7.7 126.6 11.6 126.6 11.6 C 126.6 11.9 126.7 12 127 12 C 126.95 12.01 127.7 12 127.7 12 L 127.7 13.5 C 127.7 13.5 125.96 13.5 126 13.5 C 125.2 13.5 124.8 13.2 124.8 12.3 C 124.8 12.3 124.8 8.1 124.8 8.1 C 124.8 6.8 124.6 5.8 123.1 5.8 C 121.7 5.8 120.6 6.7 120.2 8 C 120.1 8.4 120.1 8.8 120.1 9.2 C 120.06 9.23 120.1 13.5 120.1 13.5 L 118.3 13.5 C 118.3 13.5 118.31 6.28 118.3 6.3 Z M 129.7 0.8 L 131.3 0.8 L 131.3 2.6 L 129.7 2.6 L 129.7 0.8 Z M 129.7 6.3 C 129.7 6 129.5 5.9 129.3 5.9 C 129.27 5.89 128.5 5.9 128.5 5.9 L 128.5 4.4 C 128.5 4.4 130.25 4.39 130.2 4.4 C 131.1 4.4 131.4 4.7 131.4 5.5 C 131.4 5.5 131.4 11.6 131.4 11.6 C 131.4 11.9 131.5 12 131.8 12 C 131.79 12.01 132.5 12 132.5 12 L 132.5 13.5 C 132.5 13.5 130.82 13.5 130.8 13.5 C 130 13.5 129.7 13.2 129.7 12.3 C 129.7 12.3 129.7 6.3 129.7 6.3 Z M 138.2 4.2 C 140.8 4.2 142.1 6.1 142.1 8.4 C 142.14 8.68 142.1 9.2 142.1 9.2 C 142.1 9.2 135.45 9.16 135.4 9.2 C 135.6 11.1 137 12.2 138.6 12.2 C 140.15 12.2 141.2 11.1 141.2 11.1 L 142 12.4 C 142 12.4 140.65 13.72 138.5 13.7 C 135.6 13.7 133.6 11.6 133.6 8.9 C 133.6 6 135.6 4.2 138.2 4.2 Z M 140.3 7.9 C 140.3 6.4 139.3 5.6 138.2 5.6 C 136.9 5.6 135.8 6.4 135.5 7.9 C 135.5 7.9 140.3 7.9 140.3 7.9 Z M 149.3 6.3 C 149.3 6 149.1 5.9 148.9 5.9 C 148.88 5.89 148.1 5.9 148.1 5.9 L 148.1 4.4 C 148.1 4.4 149.85 4.39 149.8 4.4 C 150.7 4.4 151 4.7 151 5.5 C 151 5.5 151 9.8 151 9.8 C 151 11.1 151.3 12.1 152.7 12.1 C 154.6 12.1 155.7 10.5 155.7 8.7 C 155.68 8.66 155.7 4.4 155.7 4.4 L 157.4 4.4 C 157.4 4.4 157.43 11.61 157.4 11.6 C 157.4 11.9 157.6 12 157.8 12 C 157.82 12.01 158.6 12 158.6 12 L 158.6 13.5 C 158.6 13.5 156.89 13.5 156.9 13.5 C 156.1 13.5 155.7 13.1 155.7 12.5 C 155.7 12.5 155.7 12.2 155.7 12.2 C 155.73 11.86 155.8 11.6 155.8 11.6 C 155.8 11.6 155.72 11.63 155.7 11.6 C 155.3 12.5 154.2 13.7 152.4 13.7 C 150.3 13.7 149.3 12.6 149.3 10.2 C 149.3 10.2 149.3 6.3 149.3 6.3 Z M 159.5 12.5 C 159.5 12.5 164.21 6.73 164.2 6.7 C 164.61 6.25 165 5.9 165 5.9 L 165 5.9 C 165 5.9 164.68 5.89 164.1 5.9 C 164.1 5.9 161.6 5.9 161.6 5.9 C 161.3 5.9 161.2 6 161.2 6.3 C 161.21 6.28 161.2 6.9 161.2 6.9 L 159.6 6.9 C 159.6 6.9 159.6 5.54 159.6 5.5 C 159.6 4.7 159.9 4.4 160.8 4.4 C 160.76 4.39 167.3 4.4 167.3 4.4 L 167.3 5.4 C 167.3 5.4 162.59 11.18 162.6 11.2 C 162.21 11.63 161.8 12 161.8 12 L 161.8 12 C 161.8 12 162.12 12.01 162.7 12 C 162.7 12 165.6 12 165.6 12 C 165.9 12 166 11.9 166 11.6 C 166.03 11.61 166 11 166 11 L 167.6 11 C 167.6 11 167.61 12.35 167.6 12.3 C 167.6 13.2 167.3 13.5 166.5 13.5 C 166.46 13.5 159.5 13.5 159.5 13.5 L 159.5 12.5 Z M 161.3 0.8 L 162.7 0.8 L 163.6 2.3 L 163.7 2.3 L 164.6 0.8 L 166 0.8 L 164.4 3.1 L 162.8 3.1 L 161.3 0.8 Z M 169.7 6.3 C 169.7 6 169.5 5.9 169.3 5.9 C 169.27 5.89 168.5 5.9 168.5 5.9 L 168.5 4.4 C 168.5 4.4 170.26 4.39 170.3 4.4 C 171.1 4.4 171.4 4.7 171.4 5.5 C 171.4 5.5 171.4 11.6 171.4 11.6 C 171.4 11.9 171.6 12 171.8 12 C 171.81 12.01 172.5 12 172.5 12 L 172.5 13.5 C 172.5 13.5 170.84 13.5 170.8 13.5 C 170 13.5 169.7 13.2 169.7 12.3 C 169.7 12.3 169.7 6.3 169.7 6.3 Z M 171 0.8 L 172.8 0.8 L 171.1 3.1 L 169.7 3.1 L 171 0.8 Z M 173.9 6.2 C 173.8 6 173.6 5.9 173.4 5.9 C 173.36 5.89 173.2 5.9 173.2 5.9 L 173.2 4.4 C 173.2 4.4 174.08 4.39 174.1 4.4 C 174.9 4.4 175.2 4.6 175.5 5.3 C 175.5 5.3 177.4 10.5 177.4 10.5 C 177.6 11.05 177.7 11.7 177.7 11.7 L 177.8 11.7 C 177.8 11.7 177.93 11.05 178.1 10.5 C 178.1 10.5 180.1 5.3 180.1 5.3 C 180.3 4.6 180.6 4.4 181.4 4.4 C 181.44 4.39 182.3 4.4 182.3 4.4 L 182.3 5.9 C 182.3 5.9 182.1 5.89 182.1 5.9 C 181.8 5.9 181.6 6 181.5 6.2 C 181.51 6.25 178.7 13.5 178.7 13.5 L 176.7 13.5 C 176.7 13.5 173.91 6.25 173.9 6.2 Z M 188.6 7.8 C 188.58 7.83 189 7.8 189 7.8 C 189 7.8 188.98 7.74 189 7.7 C 189 6.1 188.4 5.6 187 5.6 C 186.5 5.6 185.5 5.7 185.5 6.3 C 185.47 6.26 185.5 6.8 185.5 6.8 L 183.8 6.8 C 183.8 6.8 183.83 5.89 183.8 5.9 C 183.8 4.4 186.1 4.2 187 4.2 C 189.9 4.2 190.7 5.7 190.7 7.7 C 190.7 7.7 190.7 11.6 190.7 11.6 C 190.7 11.9 190.9 12 191.1 12 C 191.12 12.01 191.9 12 191.9 12 L 191.9 13.5 C 191.9 13.5 190.22 13.5 190.2 13.5 C 189.4 13.5 189.1 13.1 189.1 12.5 C 189.09 12.15 189.1 11.9 189.1 11.9 L 189.1 11.9 C 189.1 11.9 188.37 13.72 186.2 13.7 C 184.6 13.7 183.1 12.8 183.1 10.9 C 183.1 8 187.1 7.8 188.6 7.8 Z M 186.6 12.3 C 188 12.3 189 10.8 189 9.4 C 189 9.41 189 9.1 189 9.1 C 189 9.1 188.55 9.11 188.5 9.1 C 187.2 9.1 184.9 9.2 184.9 10.9 C 184.9 11.6 185.4 12.3 186.6 12.3 Z M 193.7 6.3 C 193.7 6 193.6 5.9 193.4 5.9 C 193.35 5.89 192.6 5.9 192.6 5.9 L 192.6 4.4 C 192.6 4.4 194.29 4.39 194.3 4.4 C 195.1 4.4 195.4 4.7 195.4 5.4 C 195.4 5.4 195.4 5.7 195.4 5.7 C 195.44 6.03 195.4 6.3 195.4 6.3 C 195.4 6.3 195.44 6.26 195.4 6.3 C 195.8 5.5 196.9 4.2 198.9 4.2 C 201 4.2 202 5.3 202 7.7 C 202 7.7 202 11.6 202 11.6 C 202 11.9 202.1 12 202.4 12 C 202.39 12.01 203.1 12 203.1 12 L 203.1 13.5 C 203.1 13.5 201.4 13.5 201.4 13.5 C 200.6 13.5 200.2 13.2 200.2 12.3 C 200.2 12.3 200.2 8.1 200.2 8.1 C 200.2 6.8 200 5.8 198.5 5.8 C 197.1 5.8 196 6.7 195.7 8 C 195.5 8.4 195.5 8.8 195.5 9.2 C 195.5 9.23 195.5 13.5 195.5 13.5 L 193.7 13.5 C 193.7 13.5 193.75 6.28 193.7 6.3 Z M 205.1 0.8 L 206.7 0.8 L 206.7 2.6 L 205.1 2.6 L 205.1 0.8 Z M 205.1 6.3 C 205.1 6 205 5.9 204.7 5.9 C 204.71 5.89 204 5.9 204 5.9 L 204 4.4 C 204 4.4 205.68 4.39 205.7 4.4 C 206.5 4.4 206.8 4.7 206.8 5.5 C 206.8 5.5 206.8 11.6 206.8 11.6 C 206.8 11.9 207 12 207.2 12 C 207.23 12.01 208 12 208 12 L 208 13.5 C 208 13.5 206.26 13.5 206.3 13.5 C 205.4 13.5 205.1 13.2 205.1 12.3 C 205.1 12.3 205.1 6.3 205.1 6.3 Z M 214.6 7.8 C 214.59 7.83 215 7.8 215 7.8 C 215 7.8 214.99 7.74 215 7.7 C 215 6.1 214.4 5.6 213 5.6 C 212.5 5.6 211.5 5.7 211.5 6.3 C 211.48 6.26 211.5 6.8 211.5 6.8 L 209.8 6.8 C 209.8 6.8 209.84 5.89 209.8 5.9 C 209.8 4.4 212.1 4.2 213 4.2 C 215.9 4.2 216.7 5.7 216.7 7.7 C 216.7 7.7 216.7 11.6 216.7 11.6 C 216.7 11.9 216.9 12 217.1 12 C 217.13 12.01 217.9 12 217.9 12 L 217.9 13.5 C 217.9 13.5 216.23 13.5 216.2 13.5 C 215.4 13.5 215.1 13.1 215.1 12.5 C 215.1 12.15 215.1 11.9 215.1 11.9 L 215.1 11.9 C 215.1 11.9 214.38 13.72 212.2 13.7 C 210.6 13.7 209.1 12.8 209.1 10.9 C 209.1 8 213.1 7.8 214.6 7.8 Z M 212.6 12.3 C 214.1 12.3 215 10.8 215 9.4 C 215.01 9.41 215 9.1 215 9.1 C 215 9.1 214.56 9.11 214.6 9.1 C 213.2 9.1 210.9 9.2 210.9 10.9 C 210.9 11.6 211.4 12.3 212.6 12.3 Z " stroke="none" fill="#e62a70"/>  </g></svg>