<?xml version="1.0" standalone="no"?><!DOCTYPE svg PUBLIC "-//W3C//DTD SVG 1.1//EN" "http://www.w3.org/Graphics/SVG/1.1/DTD/svg11.dtd"><svg xmlns="http://www.w3.org/2000/svg" version="1.1" width="44px" height="19.5px" viewBox="0 -1 44 19.5" style="top:-1px">  <desc>46.6%</desc>  <defs/>  <g id="Polygon79322">    <path d="M 7 10 L 7 9.9 L 9.8 4 L 9.9 4 L 10.7 4.1 L 10.7 4.2 L 8 9.7 L 8 9.7 L 10.6 9.7 L 10.9 6.8 L 11.5 6.8 L 11.5 9.7 L 12.5 9.7 L 12.5 10.5 L 11.5 10.5 L 11.5 12.5 L 10.6 12.5 L 10.6 10.5 L 7.2 10.5 L 7 10 Z M 16 12.6 C 15.1 12.6 14.5 12.3 14 11.6 C 13.6 11 13.3 10 13.3 8.8 C 13.3 8 13.4 7.3 13.6 6.7 C 13.7 6.1 13.9 5.6 14.2 5.2 C 14.5 4.8 14.9 4.5 15.3 4.3 C 15.7 4.1 16.2 4 16.7 4 C 16.9 4 17.2 4 17.4 4 C 17.6 4 17.8 4.1 18.1 4.2 C 18.1 4.2 18 4.9 18 4.9 C 17.7 4.8 17.5 4.8 17.3 4.8 C 17.1 4.7 16.9 4.7 16.7 4.7 C 16 4.7 15.4 5 15 5.6 C 14.6 6.2 14.3 7 14.3 8.1 C 14.5 7.9 14.8 7.7 15.2 7.5 C 15.5 7.4 15.8 7.3 16.2 7.3 C 16.5 7.3 16.8 7.4 17.1 7.5 C 17.4 7.6 17.7 7.8 17.9 8 C 18.1 8.2 18.3 8.5 18.4 8.8 C 18.5 9.1 18.5 9.4 18.5 9.8 C 18.5 10.2 18.5 10.6 18.4 10.9 C 18.2 11.3 18.1 11.6 17.8 11.8 C 17.6 12.1 17.4 12.3 17.1 12.4 C 16.7 12.5 16.4 12.6 16 12.6 Z M 16 8 C 15.7 8 15.4 8.1 15.1 8.3 C 14.8 8.4 14.5 8.6 14.2 8.9 C 14.2 9.9 14.4 10.6 14.7 11.1 C 15 11.6 15.4 11.8 16 11.8 C 16.5 11.8 16.9 11.7 17.2 11.3 C 17.5 10.9 17.6 10.4 17.6 9.8 C 17.6 9.2 17.5 8.8 17.2 8.5 C 16.9 8.2 16.5 8 16 8 Z M 20.7 11.9 C 20.7 12.3 20.5 12.5 20.1 12.5 C 19.7 12.5 19.5 12.3 19.5 11.9 C 19.5 11.6 19.7 11.4 20.1 11.4 C 20.3 11.4 20.5 11.4 20.6 11.5 C 20.7 11.6 20.7 11.7 20.7 11.9 C 20.7 11.9 20.7 11.9 20.7 11.9 Z M 24.4 12.6 C 23.5 12.6 22.9 12.3 22.4 11.6 C 22 11 21.7 10 21.7 8.8 C 21.7 8 21.8 7.3 22 6.7 C 22.1 6.1 22.3 5.6 22.6 5.2 C 22.9 4.8 23.3 4.5 23.7 4.3 C 24.1 4.1 24.6 4 25.1 4 C 25.3 4 25.5 4 25.8 4 C 26 4 26.2 4.1 26.5 4.2 C 26.5 4.2 26.4 4.9 26.4 4.9 C 26.1 4.8 25.9 4.8 25.7 4.8 C 25.5 4.7 25.3 4.7 25.1 4.7 C 24.4 4.7 23.8 5 23.4 5.6 C 23 6.2 22.7 7 22.7 8.1 C 22.9 7.9 23.2 7.7 23.5 7.5 C 23.9 7.4 24.2 7.3 24.6 7.3 C 24.9 7.3 25.2 7.4 25.5 7.5 C 25.8 7.6 26.1 7.8 26.3 8 C 26.5 8.2 26.7 8.5 26.8 8.8 C 26.9 9.1 26.9 9.4 26.9 9.8 C 26.9 10.2 26.9 10.6 26.8 10.9 C 26.6 11.3 26.5 11.6 26.2 11.8 C 26 12.1 25.8 12.3 25.5 12.4 C 25.1 12.5 24.8 12.6 24.4 12.6 Z M 24.4 8 C 24.1 8 23.8 8.1 23.5 8.3 C 23.2 8.4 22.9 8.6 22.6 8.9 C 22.6 9.9 22.8 10.6 23.1 11.1 C 23.4 11.6 23.8 11.8 24.4 11.8 C 24.9 11.8 25.3 11.7 25.6 11.3 C 25.9 10.9 26 10.4 26 9.8 C 26 9.2 25.9 8.8 25.6 8.5 C 25.3 8.2 24.9 8 24.4 8 Z M 29.6 9.3 C 29 9.3 28.5 9.1 28.2 8.6 C 27.9 8.2 27.7 7.5 27.7 6.6 C 27.7 5.8 27.9 5.1 28.2 4.6 C 28.5 4.2 29 4 29.6 4 C 30.2 4 30.7 4.2 31 4.6 C 31.3 5.1 31.4 5.8 31.4 6.6 C 31.4 7.5 31.3 8.2 31 8.6 C 30.7 9.1 30.2 9.3 29.6 9.3 Z M 28.5 6.6 C 28.5 8 28.8 8.6 29.6 8.6 C 30.3 8.6 30.7 8 30.7 6.6 C 30.7 5.3 30.3 4.6 29.6 4.6 C 28.8 4.6 28.5 5.3 28.5 6.6 C 28.5 6.6 28.5 6.6 28.5 6.6 Z M 34.8 12.6 C 34.2 12.6 33.8 12.4 33.5 11.9 C 33.2 11.5 33 10.8 33 10 C 33 9.1 33.2 8.4 33.5 8 C 33.8 7.5 34.2 7.3 34.8 7.3 C 35.5 7.3 35.9 7.5 36.2 8 C 36.5 8.4 36.7 9.1 36.7 10 C 36.7 10.8 36.5 11.5 36.2 11.9 C 35.9 12.4 35.5 12.6 34.8 12.6 Z M 33.7 10 C 33.7 11.3 34.1 12 34.8 12 C 35.6 12 36 11.3 36 10 C 36 8.6 35.6 8 34.8 8 C 34.1 8 33.7 8.6 33.7 10 C 33.7 10 33.7 10 33.7 10 Z M 33.4 4.1 L 34.2 4.1 L 31 12.5 L 30.1 12.5 L 33.4 4.1 Z " stroke="none" fill="#68adca"/>  </g></svg>