<?xml version="1.0" standalone="no"?><!DOCTYPE svg PUBLIC "-//W3C//DTD SVG 1.1//EN" "http://www.w3.org/Graphics/SVG/1.1/DTD/svg11.dtd"><svg xmlns="http://www.w3.org/2000/svg" version="1.1" width="723px" height="84px" viewBox="0 -4 723 84" style="top:-4px">  <desc>Estetrol je etrn k pe eni, preto e neovplyv uje pe e ov cytochr m P450 a nie je n m metabolizovan . Estetrol z rov...</desc>  <defs/>  <g id="Polygon74904">    <path d="M 1.7 55 C 1.7 54.7 1.5 54.5 1.3 54.5 C 1.26 54.54 0.4 54.5 0.4 54.5 L 0.4 52.9 C 0.4 52.9 2.26 52.88 2.3 52.9 C 3.2 52.9 3.5 53.3 3.5 53.9 C 3.5 54.2 3.5 54.4 3.5 54.4 L 3.5 54.4 C 3.5 54.4 4.36 52.64 6.9 52.6 C 9.6 52.6 11.3 54.8 11.3 57.9 C 11.3 61.2 9.4 63.2 6.7 63.2 C 4.5 63.24 3.6 61.6 3.6 61.6 L 3.6 61.6 C 3.6 61.6 3.64 61.98 3.6 62.5 C 3.64 62.5 3.6 67 3.6 67 L 1.7 67 C 1.7 67 1.7 54.98 1.7 55 Z M 6.4 61.6 C 8 61.6 9.4 60.3 9.4 58 C 9.4 55.8 8.2 54.3 6.5 54.3 C 5 54.3 3.6 55.4 3.6 58 C 3.6 59.8 4.6 61.6 6.4 61.6 Z M 13.8 55 C 13.8 54.7 13.6 54.5 13.3 54.5 C 13.34 54.54 12.5 54.5 12.5 54.5 L 12.5 52.9 C 12.5 52.9 14.36 52.88 14.4 52.9 C 15.2 52.9 15.7 53.2 15.7 54.1 C 15.7 54.1 15.7 54.7 15.7 54.7 C 15.66 55.1 15.6 55.4 15.6 55.4 C 15.6 55.4 15.66 55.4 15.7 55.4 C 16.1 53.9 17.3 52.8 18.9 52.8 C 19.12 52.76 19.4 52.8 19.4 52.8 L 19.4 54.7 C 19.4 54.7 19.12 54.66 18.8 54.7 C 17.6 54.7 16.4 55.5 16 57 C 15.8 57.6 15.7 58.2 15.7 58.9 C 15.72 58.86 15.7 63 15.7 63 L 13.8 63 C 13.8 63 13.78 54.98 13.8 55 Z M 25.2 52.6 C 28.1 52.6 29.6 54.8 29.6 57.4 C 29.58 57.64 29.5 58.2 29.5 58.2 C 29.5 58.2 22.14 58.18 22.1 58.2 C 22.3 60.3 23.8 61.6 25.6 61.6 C 27.36 61.56 28.6 60.4 28.6 60.4 L 29.4 61.8 C 29.4 61.8 27.92 63.24 25.5 63.2 C 22.3 63.2 20.1 60.9 20.1 57.9 C 20.1 54.7 22.3 52.6 25.2 52.6 Z M 27.6 56.8 C 27.5 55.1 26.5 54.2 25.2 54.2 C 23.7 54.2 22.5 55.1 22.2 56.8 C 22.2 56.8 27.6 56.8 27.6 56.8 Z M 35.8 52.6 C 38.12 52.64 38.9 54.2 38.9 54.2 L 38.9 54.2 C 38.9 54.2 38.9 53.9 38.9 53.5 C 38.9 53.5 38.9 51 38.9 51 C 38.9 50.7 38.7 50.5 38.5 50.5 C 38.46 50.54 37.6 50.5 37.6 50.5 L 37.6 48.9 C 37.6 48.9 39.56 48.88 39.6 48.9 C 40.5 48.9 40.8 49.3 40.8 50.2 C 40.8 50.2 40.8 60.9 40.8 60.9 C 40.8 61.2 41 61.3 41.3 61.3 C 41.28 61.34 42.1 61.3 42.1 61.3 L 42.1 63 C 42.1 63 40.24 63 40.2 63 C 39.4 63 39 62.6 39 61.9 C 39 61.62 39 61.4 39 61.4 L 39 61.4 C 39 61.4 38.14 63.24 35.7 63.2 C 32.9 63.2 31.2 61.1 31.2 57.9 C 31.2 54.7 33.1 52.6 35.8 52.6 Z M 39 57.9 C 39 56.1 38 54.3 36.1 54.3 C 34.5 54.3 33.2 55.6 33.2 57.9 C 33.2 60.1 34.4 61.6 36 61.6 C 37.5 61.6 39 60.5 39 57.9 Z M 44.1 60.2 C 44.1 60.2 45.3 61.66 47.2 61.7 C 48.1 61.7 48.9 61.2 48.9 60.4 C 48.9 58.5 43.4 58.7 43.4 55.5 C 43.4 53.5 45.1 52.6 47.2 52.6 C 48.4 52.6 50.5 53.1 50.5 54.6 C 50.48 54.6 50.5 55.6 50.5 55.6 L 48.7 55.6 C 48.7 55.6 48.74 55.06 48.7 55.1 C 48.7 54.5 47.8 54.2 47.2 54.2 C 46.1 54.2 45.3 54.6 45.3 55.4 C 45.3 57.3 50.9 56.9 50.9 60.3 C 50.9 62.1 49.3 63.2 47.1 63.2 C 44.44 63.24 43.1 61.5 43.1 61.5 L 44.1 60.2 Z M 53.4 54.4 L 52.1 54.4 L 52.1 52.9 L 53.5 52.9 L 53.5 50.1 L 55.4 50.1 L 55.4 52.9 L 57.8 52.9 L 57.8 54.4 L 55.4 54.4 C 55.4 54.4 55.36 59.08 55.4 59.1 C 55.4 61.1 56.8 61.4 57.5 61.4 C 57.78 61.36 58 61.3 58 61.3 L 58 63 C 58 63 57.7 63.08 57.3 63.1 C 56 63.1 53.4 62.7 53.4 59.3 C 53.42 59.3 53.4 54.4 53.4 54.4 Z M 65.4 56.7 C 65.42 56.7 65.9 56.7 65.9 56.7 C 65.9 56.7 65.86 56.6 65.9 56.6 C 65.9 54.8 65.2 54.2 63.6 54.2 C 63.1 54.2 62 54.3 62 55 C 61.96 54.96 62 55.5 62 55.5 L 60.1 55.5 C 60.1 55.5 60.14 54.54 60.1 54.5 C 60.1 52.9 62.7 52.6 63.6 52.6 C 66.9 52.6 67.8 54.4 67.8 56.6 C 67.8 56.6 67.8 60.9 67.8 60.9 C 67.8 61.2 68 61.3 68.2 61.3 C 68.24 61.34 69.1 61.3 69.1 61.3 L 69.1 63 C 69.1 63 67.24 63 67.2 63 C 66.3 63 66 62.6 66 61.8 C 65.98 61.5 66 61.2 66 61.2 L 66 61.2 C 66 61.2 65.18 63.24 62.8 63.2 C 61 63.2 59.3 62.2 59.3 60.2 C 59.3 56.9 63.7 56.7 65.4 56.7 Z M 63.2 61.7 C 64.8 61.7 65.9 60 65.9 58.5 C 65.88 58.46 65.9 58.1 65.9 58.1 C 65.9 58.1 65.38 58.12 65.4 58.1 C 63.9 58.1 61.3 58.2 61.3 60.1 C 61.3 60.9 61.9 61.7 63.2 61.7 Z M 70.3 54.9 C 70.2 54.6 70 54.5 69.7 54.5 C 69.7 54.54 69.5 54.5 69.5 54.5 L 69.5 52.9 C 69.5 52.9 70.5 52.88 70.5 52.9 C 71.4 52.9 71.7 53.1 72 53.9 C 72 53.9 74.2 59.7 74.2 59.7 C 74.42 60.28 74.6 61 74.6 61 L 74.6 61 C 74.6 61 74.78 60.28 75 59.7 C 75 59.7 77.1 53.9 77.1 53.9 C 77.4 53.1 77.8 52.9 78.7 52.9 C 78.68 52.88 79.6 52.9 79.6 52.9 L 79.6 54.5 C 79.6 54.5 79.42 54.54 79.4 54.5 C 79.1 54.5 78.9 54.6 78.8 54.9 C 78.76 54.94 75.7 63 75.7 63 L 73.4 63 C 73.4 63 70.32 54.94 70.3 54.9 Z M 81.5 55 C 81.5 54.7 81.4 54.5 81.1 54.5 C 81.1 54.54 80.3 54.5 80.3 54.5 L 80.3 52.9 C 80.3 52.9 82.18 52.88 82.2 52.9 C 83.1 52.9 83.5 53.3 83.5 54.1 C 83.5 54.1 83.5 58.9 83.5 58.9 C 83.5 60.3 83.8 61.4 85.4 61.4 C 87.4 61.4 88.7 59.6 88.7 57.6 C 88.66 57.62 88.7 52.9 88.7 52.9 L 90.6 52.9 C 90.6 52.9 90.6 60.9 90.6 60.9 C 90.6 61.2 90.8 61.3 91 61.3 C 91.04 61.34 91.9 61.3 91.9 61.3 L 91.9 63 C 91.9 63 90 63 90 63 C 89.1 63 88.7 62.6 88.7 61.9 C 88.7 61.9 88.7 61.5 88.7 61.5 C 88.72 61.18 88.7 60.9 88.7 60.9 C 88.7 60.9 88.7 60.92 88.7 60.9 C 88.3 61.9 87 63.2 85 63.2 C 82.7 63.2 81.5 62 81.5 59.4 C 81.5 59.4 81.5 55 81.5 55 Z M 94.5 48.9 L 96.3 48.9 L 96.3 50.9 L 94.5 50.9 L 94.5 48.9 Z M 92.3 65.4 C 93.1 65.4 94.5 65.2 94.5 63.2 C 94.5 63.2 94.5 55 94.5 55 C 94.5 54.7 94.3 54.5 94.1 54.5 C 94.06 54.54 93.2 54.5 93.2 54.5 L 93.2 52.9 C 93.2 52.9 95.16 52.88 95.2 52.9 C 96.1 52.9 96.4 53.3 96.4 54.2 C 96.4 54.2 96.4 63.3 96.4 63.3 C 96.4 66.7 93.8 67.1 92.6 67.1 C 92.16 67.12 91.9 67.1 91.9 67.1 L 91.9 65.4 C 91.9 65.4 92.08 65.44 92.3 65.4 Z M 103.8 52.6 C 106.7 52.6 108.2 54.8 108.2 57.4 C 108.18 57.64 108.1 58.2 108.1 58.2 C 108.1 58.2 100.74 58.18 100.7 58.2 C 100.9 60.3 102.4 61.6 104.2 61.6 C 105.96 61.56 107.2 60.4 107.2 60.4 L 108 61.8 C 108 61.8 106.52 63.24 104.1 63.2 C 100.9 63.2 98.7 60.9 98.7 57.9 C 98.7 54.7 100.9 52.6 103.8 52.6 Z M 106.2 56.8 C 106.1 55.1 105.1 54.2 103.8 54.2 C 102.3 54.2 101.1 55.1 100.8 56.8 C 100.8 56.8 106.2 56.8 106.2 56.8 Z M 115.5 54.9 C 115.4 54.6 115.2 54.5 114.9 54.5 C 114.9 54.54 114.7 54.5 114.7 54.5 L 114.7 52.9 C 114.7 52.9 115.7 52.88 115.7 52.9 C 116.6 52.9 116.9 53.1 117.2 53.9 C 117.2 53.9 119.4 59.7 119.4 59.7 C 119.62 60.28 119.8 61 119.8 61 L 119.8 61 C 119.8 61 119.98 60.28 120.2 59.7 C 120.2 59.7 122.3 53.9 122.3 53.9 C 122.6 53.1 123 52.9 123.9 52.9 C 123.88 52.88 124.8 52.9 124.8 52.9 L 124.8 54.5 C 124.8 54.5 124.62 54.54 124.6 54.5 C 124.3 54.5 124.1 54.6 124 54.9 C 123.96 54.94 120.9 63 120.9 63 L 118.6 63 C 118.6 63 115.52 54.94 115.5 54.9 Z M 130.7 52.6 C 133.5 52.6 135 54.8 135 57.4 C 135.04 57.64 135 58.2 135 58.2 C 135 58.2 127.6 58.18 127.6 58.2 C 127.7 60.3 129.3 61.6 131.1 61.6 C 132.82 61.56 134 60.4 134 60.4 L 134.9 61.8 C 134.9 61.8 133.38 63.24 131 63.2 C 127.8 63.2 125.6 60.9 125.6 57.9 C 125.6 54.7 127.8 52.6 130.7 52.6 Z M 133 56.8 C 133 55.1 131.9 54.2 130.7 54.2 C 129.2 54.2 128 55.1 127.7 56.8 C 127.7 56.8 133 56.8 133 56.8 Z M 137.6 51 C 137.6 50.7 137.4 50.5 137.1 50.5 C 137.14 50.54 136.3 50.5 136.3 50.5 L 136.3 48.9 C 136.3 48.9 138.24 48.88 138.2 48.9 C 139.1 48.9 139.5 49.3 139.5 50.2 C 139.5 50.2 139.5 60.9 139.5 60.9 C 139.5 61.2 139.7 61.3 140 61.3 C 139.96 61.34 140.8 61.3 140.8 61.3 L 140.8 63 C 140.8 63 138.86 63 138.9 63 C 138 63 137.6 62.6 137.6 61.7 C 137.6 61.7 137.6 51 137.6 51 Z M 142.2 48.9 C 142.3 49.2 142.3 49.6 142.3 49.9 C 142.3 50.5 142.2 51 141.9 51.7 C 141.9 51.7 140.5 51.7 140.5 51.7 C 140.7 51.1 140.9 50.6 140.9 50.1 C 140.9 49.7 140.8 49.3 140.6 48.9 C 140.6 48.9 142.2 48.9 142.2 48.9 Z M 144.6 51 C 144.6 50.7 144.5 50.5 144.2 50.5 C 144.18 50.54 143.4 50.5 143.4 50.5 L 143.4 48.9 C 143.4 48.9 145.28 48.88 145.3 48.9 C 146.2 48.9 146.6 49.1 146.6 50 C 146.56 50.04 146.6 56.6 146.6 56.6 C 146.6 56.6 147.46 56.6 147.5 56.6 C 147.8 56.6 148.3 56.5 148.5 56.2 C 148.52 56.16 150.9 52.9 150.9 52.9 L 153.1 52.9 C 153.1 52.9 150.34 56.64 150.3 56.6 C 149.88 57.26 149.6 57.4 149.6 57.4 L 149.6 57.4 C 149.6 57.4 149.92 57.56 150.3 58.2 C 150.3 58.2 151.8 60.9 151.8 60.9 C 151.9 61.3 152.1 61.3 152.6 61.3 C 152.62 61.34 153.2 61.3 153.2 61.3 L 153.2 63 C 153.2 63 151.84 63 151.8 63 C 150.9 63 150.6 62.8 150.2 62.1 C 150.2 62.1 148.3 58.7 148.3 58.7 C 148.1 58.3 147.6 58.2 147.3 58.2 C 147.32 58.24 146.6 58.2 146.6 58.2 L 146.6 63 L 144.6 63 C 144.6 63 144.62 50.98 144.6 51 Z M 155.2 55 C 155.2 54.7 155 54.5 154.7 54.5 C 154.72 54.54 153.9 54.5 153.9 54.5 L 153.9 52.9 C 153.9 52.9 155.8 52.88 155.8 52.9 C 156.7 52.9 157.1 53.3 157.1 54.1 C 157.1 54.1 157.1 58.9 157.1 58.9 C 157.1 60.3 157.4 61.4 159 61.4 C 161.1 61.4 162.3 59.6 162.3 57.6 C 162.28 57.62 162.3 52.9 162.3 52.9 L 164.2 52.9 C 164.2 52.9 164.22 60.9 164.2 60.9 C 164.2 61.2 164.4 61.3 164.7 61.3 C 164.66 61.34 165.5 61.3 165.5 61.3 L 165.5 63 C 165.5 63 163.62 63 163.6 63 C 162.8 63 162.3 62.6 162.3 61.9 C 162.3 61.9 162.3 61.5 162.3 61.5 C 162.34 61.18 162.4 60.9 162.4 60.9 C 162.4 60.9 162.32 60.92 162.3 60.9 C 161.9 61.9 160.6 63.2 158.6 63.2 C 156.3 63.2 155.2 62 155.2 59.4 C 155.2 59.4 155.2 55 155.2 55 Z M 160.3 48.9 L 162.2 48.9 L 160.3 51.4 L 158.8 51.4 L 160.3 48.9 Z M 172.4 54.9 C 172.3 54.6 172.1 54.5 171.8 54.5 C 171.76 54.54 171.6 54.5 171.6 54.5 L 171.6 52.9 C 171.6 52.9 172.56 52.88 172.6 52.9 C 173.5 52.9 173.8 53.1 174.1 53.9 C 174.1 53.9 176.3 59.7 176.3 59.7 C 176.48 60.28 176.6 61 176.6 61 L 176.7 61 C 176.7 61 176.84 60.28 177 59.7 C 177 59.7 179.2 53.9 179.2 53.9 C 179.5 53.1 179.9 52.9 180.7 52.9 C 180.74 52.88 181.7 52.9 181.7 52.9 L 181.7 54.5 C 181.7 54.5 181.48 54.54 181.5 54.5 C 181.1 54.5 180.9 54.6 180.8 54.9 C 180.82 54.94 177.7 63 177.7 63 L 175.5 63 C 175.5 63 172.38 54.94 172.4 54.9 Z M 184.3 65.5 C 185.1 65.5 185.7 65 186.1 64.1 C 186.1 64.06 186.6 63 186.6 63 C 186.6 63 183.1 54.94 183.1 54.9 C 183 54.6 182.8 54.5 182.5 54.5 C 182.46 54.54 182.2 54.5 182.2 54.5 L 182.2 52.9 C 182.2 52.9 183.36 52.88 183.4 52.9 C 184.2 52.9 184.5 53.1 184.8 53.9 C 184.8 53.9 187.1 59.6 187.1 59.6 C 187.3 60.12 187.5 60.8 187.5 60.8 L 187.5 60.8 C 187.5 60.8 187.64 60.12 187.8 59.6 C 187.8 59.6 189.9 53.9 189.9 53.9 C 190.2 53.1 190.6 52.9 191.4 52.9 C 191.42 52.88 192.6 52.9 192.6 52.9 L 192.6 54.5 C 192.6 54.5 192.32 54.54 192.3 54.5 C 192 54.5 191.8 54.6 191.7 54.9 C 191.7 54.9 187.7 64.8 187.7 64.8 C 187.1 66.4 185.8 67.2 184.4 67.2 C 182.92 67.2 182 66.2 182 66.2 C 182 66.2 182.84 64.8 182.8 64.8 C 182.8 64.8 183.5 65.5 184.3 65.5 Z M 188.1 48.9 L 190 48.9 L 188.1 51.4 L 186.6 51.4 L 188.1 48.9 Z M 194.5 51 C 194.5 50.7 194.3 50.5 194 50.5 C 194.04 50.54 193.2 50.5 193.2 50.5 L 193.2 48.9 C 193.2 48.9 195.14 48.88 195.1 48.9 C 196 48.9 196.4 49.3 196.4 50.1 C 196.4 50.1 196.4 54.1 196.4 54.1 C 196.42 54.54 196.4 54.9 196.4 54.9 C 196.4 54.9 196.42 54.9 196.4 54.9 C 196.9 53.9 198.2 52.6 200.2 52.6 C 202.6 52.6 203.6 53.9 203.6 56.5 C 203.6 56.5 203.6 60.9 203.6 60.9 C 203.6 61.2 203.8 61.3 204.1 61.3 C 204.08 61.34 204.9 61.3 204.9 61.3 L 204.9 63 C 204.9 63 203 63 203 63 C 202.1 63 201.7 62.6 201.7 61.7 C 201.7 61.7 201.7 57 201.7 57 C 201.7 55.5 201.4 54.4 199.8 54.4 C 198.3 54.4 197 55.5 196.6 56.9 C 196.5 57.3 196.4 57.8 196.4 58.3 C 196.42 58.26 196.4 63 196.4 63 L 194.5 63 C 194.5 63 194.48 50.98 194.5 51 Z M 211.5 52.6 C 214.5 52.6 216.9 54.9 216.9 57.9 C 216.9 61 214.5 63.2 211.5 63.2 C 208.4 63.2 206 61 206 57.9 C 206 54.9 208.4 52.6 211.5 52.6 Z M 211.5 61.6 C 213.4 61.6 214.9 60 214.9 57.9 C 214.9 55.8 213.4 54.3 211.5 54.3 C 209.6 54.3 208 55.8 208 57.9 C 208 60 209.6 61.6 211.5 61.6 Z M 223 52.6 C 225.3 52.64 226.1 54.2 226.1 54.2 L 226.1 54.2 C 226.1 54.2 226.08 53.9 226.1 53.5 C 226.1 53.5 226.1 51 226.1 51 C 226.1 50.7 225.9 50.5 225.6 50.5 C 225.64 50.54 224.8 50.5 224.8 50.5 L 224.8 48.9 C 224.8 48.9 226.74 48.88 226.7 48.9 C 227.6 48.9 228 49.3 228 50.2 C 228 50.2 228 60.9 228 60.9 C 228 61.2 228.2 61.3 228.5 61.3 C 228.46 61.34 229.3 61.3 229.3 61.3 L 229.3 63 C 229.3 63 227.42 63 227.4 63 C 226.5 63 226.2 62.6 226.2 61.9 C 226.18 61.62 226.2 61.4 226.2 61.4 L 226.2 61.4 C 226.2 61.4 225.32 63.24 222.8 63.2 C 220.1 63.2 218.4 61.1 218.4 57.9 C 218.4 54.7 220.3 52.6 223 52.6 Z M 226.1 57.9 C 226.1 56.1 225.2 54.3 223.3 54.3 C 221.7 54.3 220.4 55.6 220.4 57.9 C 220.4 60.1 221.5 61.6 223.2 61.6 C 224.7 61.6 226.1 60.5 226.1 57.9 Z M 231.4 55 C 231.4 54.7 231.2 54.5 231 54.5 C 230.96 54.54 230.1 54.5 230.1 54.5 L 230.1 52.9 C 230.1 52.9 232.04 52.88 232 52.9 C 233 52.9 233.3 53.3 233.3 54.1 C 233.3 54.1 233.3 58.9 233.3 58.9 C 233.3 60.3 233.6 61.4 235.2 61.4 C 237.3 61.4 238.5 59.6 238.5 57.6 C 238.52 57.62 238.5 52.9 238.5 52.9 L 240.5 52.9 C 240.5 52.9 240.46 60.9 240.5 60.9 C 240.5 61.2 240.6 61.3 240.9 61.3 C 240.9 61.34 241.7 61.3 241.7 61.3 L 241.7 63 C 241.7 63 239.86 63 239.9 63 C 239 63 238.6 62.6 238.6 61.9 C 238.6 61.9 238.6 61.5 238.6 61.5 C 238.58 61.18 238.6 60.9 238.6 60.9 C 238.6 60.9 238.56 60.92 238.6 60.9 C 238.1 61.9 236.8 63.2 234.8 63.2 C 232.6 63.2 231.4 62 231.4 59.4 C 231.4 59.4 231.4 55 231.4 55 Z M 249.2 55 C 249.2 54.7 249.1 54.5 248.8 54.5 C 248.8 54.54 248 54.5 248 54.5 L 248 52.9 C 248 52.9 249.8 52.88 249.8 52.9 C 250.7 52.9 251 53.3 251 53.9 C 251.04 54.2 251 54.4 251 54.4 L 251.1 54.4 C 251.1 54.4 251.9 52.64 254.4 52.6 C 257.1 52.6 258.9 54.8 258.9 57.9 C 258.9 61.2 256.9 63.2 254.3 63.2 C 252.04 63.24 251.2 61.6 251.2 61.6 L 251.1 61.6 C 251.1 61.6 251.18 61.98 251.2 62.5 C 251.18 62.5 251.2 67 251.2 67 L 249.2 67 C 249.2 67 249.24 54.98 249.2 55 Z M 254 61.6 C 255.6 61.6 256.9 60.3 256.9 58 C 256.9 55.8 255.7 54.3 254 54.3 C 252.5 54.3 251.1 55.4 251.1 58 C 251.1 59.8 252.1 61.6 254 61.6 Z M 261.3 55 C 261.3 54.7 261.2 54.5 260.9 54.5 C 260.88 54.54 260.1 54.5 260.1 54.5 L 260.1 52.9 C 260.1 52.9 261.9 52.88 261.9 52.9 C 262.8 52.9 263.2 53.2 263.2 54.1 C 263.2 54.1 263.2 54.7 263.2 54.7 C 263.2 55.1 263.2 55.4 263.2 55.4 C 263.2 55.4 263.2 55.4 263.2 55.4 C 263.7 53.9 264.8 52.8 266.4 52.8 C 266.66 52.76 266.9 52.8 266.9 52.8 L 266.9 54.7 C 266.9 54.7 266.66 54.66 266.3 54.7 C 265.1 54.7 264 55.5 263.5 57 C 263.3 57.6 263.3 58.2 263.3 58.9 C 263.26 58.86 263.3 63 263.3 63 L 261.3 63 C 261.3 63 261.32 54.98 261.3 55 Z M 272.8 52.6 C 275.6 52.6 277.1 54.8 277.1 57.4 C 277.12 57.64 277.1 58.2 277.1 58.2 C 277.1 58.2 269.68 58.18 269.7 58.2 C 269.8 60.3 271.4 61.6 273.2 61.6 C 274.9 61.56 276.1 60.4 276.1 60.4 L 277 61.8 C 277 61.8 275.46 63.24 273.1 63.2 C 269.9 63.2 267.7 60.9 267.7 57.9 C 267.7 54.7 269.9 52.6 272.8 52.6 Z M 275.1 56.8 C 275.1 55.1 274 54.2 272.7 54.2 C 271.3 54.2 270.1 55.1 269.8 56.8 C 269.8 56.8 275.1 56.8 275.1 56.8 Z M 284 61.9 C 284 61.9 289.22 55.48 289.2 55.5 C 289.66 54.94 290.1 54.5 290.1 54.5 L 290.1 54.5 C 290.1 54.5 289.74 54.54 289.1 54.5 C 289.1 54.5 286.3 54.5 286.3 54.5 C 286 54.5 285.9 54.7 285.9 55 C 285.88 54.98 285.9 55.7 285.9 55.7 L 284.1 55.7 C 284.1 55.7 284.1 54.16 284.1 54.2 C 284.1 53.3 284.5 52.9 285.4 52.9 C 285.38 52.88 292.6 52.9 292.6 52.9 L 292.6 54 C 292.6 54 287.42 60.42 287.4 60.4 C 287 60.92 286.6 61.3 286.6 61.3 L 286.6 61.4 C 286.6 61.4 286.9 61.34 287.6 61.3 C 287.6 61.3 290.8 61.3 290.8 61.3 C 291.1 61.3 291.2 61.2 291.2 60.9 C 291.24 60.9 291.2 60.2 291.2 60.2 L 293 60.2 C 293 60.2 293 61.72 293 61.7 C 293 62.6 292.6 63 291.7 63 C 291.72 63 284 63 284 63 L 284 61.9 Z M 285.9 48.9 L 287.5 48.9 L 288.6 50.5 L 288.6 50.5 L 289.6 48.9 L 291.2 48.9 L 289.5 51.4 L 287.7 51.4 L 285.9 48.9 Z M 299.1 52.6 C 301.9 52.6 303.4 54.8 303.4 57.4 C 303.44 57.64 303.4 58.2 303.4 58.2 C 303.4 58.2 296 58.18 296 58.2 C 296.1 60.3 297.7 61.6 299.5 61.6 C 301.22 61.56 302.4 60.4 302.4 60.4 L 303.3 61.8 C 303.3 61.8 301.78 63.24 299.4 63.2 C 296.2 63.2 294 60.9 294 57.9 C 294 54.7 296.2 52.6 299.1 52.6 Z M 301.4 56.8 C 301.4 55.1 300.3 54.2 299.1 54.2 C 297.6 54.2 296.4 55.1 296.1 56.8 C 296.1 56.8 301.4 56.8 301.4 56.8 Z M 306 55 C 306 54.7 305.9 54.5 305.6 54.5 C 305.58 54.54 304.8 54.5 304.8 54.5 L 304.8 52.9 C 304.8 52.9 306.62 52.88 306.6 52.9 C 307.5 52.9 307.9 53.3 307.9 54 C 307.9 54 307.9 54.4 307.9 54.4 C 307.9 54.7 307.9 55 307.9 55 C 307.9 55 307.9 54.96 307.9 55 C 308.3 54.1 309.5 52.6 311.7 52.6 C 314.1 52.6 315.2 53.9 315.2 56.5 C 315.2 56.5 315.2 60.9 315.2 60.9 C 315.2 61.2 315.3 61.3 315.6 61.3 C 315.62 61.34 316.4 61.3 316.4 61.3 L 316.4 63 C 316.4 63 314.52 63 314.5 63 C 313.6 63 313.2 62.6 313.2 61.7 C 313.2 61.7 313.2 57 313.2 57 C 313.2 55.5 313 54.4 311.3 54.4 C 309.8 54.4 308.5 55.4 308.1 56.9 C 308 57.3 308 57.8 308 58.3 C 307.96 58.26 308 63 308 63 L 306 63 C 306 63 306.02 54.98 306 55 Z M 319 65.5 C 319.8 65.5 320.4 65 320.8 64.1 C 320.78 64.06 321.2 63 321.2 63 C 321.2 63 317.78 54.94 317.8 54.9 C 317.6 54.6 317.5 54.5 317.1 54.5 C 317.14 54.54 316.9 54.5 316.9 54.5 L 316.9 52.9 C 316.9 52.9 318.04 52.88 318 52.9 C 318.9 52.9 319.2 53.1 319.5 53.9 C 319.5 53.9 321.8 59.6 321.8 59.6 C 321.98 60.12 322.1 60.8 322.1 60.8 L 322.2 60.8 C 322.2 60.8 322.32 60.12 322.5 59.6 C 322.5 59.6 324.6 53.9 324.6 53.9 C 324.9 53.1 325.3 52.9 326.1 52.9 C 326.1 52.88 327.3 52.9 327.3 52.9 L 327.3 54.5 C 327.3 54.5 327 54.54 327 54.5 C 326.7 54.5 326.5 54.6 326.4 54.9 C 326.4 54.9 322.4 64.8 322.4 64.8 C 321.7 66.4 320.5 67.2 319.1 67.2 C 317.6 67.2 316.7 66.2 316.7 66.2 C 316.7 66.2 317.52 64.8 317.5 64.8 C 317.5 64.8 318.1 65.5 319 65.5 Z M 334.6 55 C 334.6 54.7 334.4 54.5 334.1 54.5 C 334.14 54.54 333.3 54.5 333.3 54.5 L 333.3 52.9 C 333.3 52.9 335.22 52.88 335.2 52.9 C 336.1 52.9 336.5 53.3 336.5 54.1 C 336.5 54.1 336.5 58.9 336.5 58.9 C 336.5 60.3 336.8 61.4 338.4 61.4 C 340.5 61.4 341.7 59.6 341.7 57.6 C 341.7 57.62 341.7 52.9 341.7 52.9 L 343.6 52.9 C 343.6 52.9 343.64 60.9 343.6 60.9 C 343.6 61.2 343.8 61.3 344.1 61.3 C 344.08 61.34 344.9 61.3 344.9 61.3 L 344.9 63 C 344.9 63 343.04 63 343 63 C 342.2 63 341.8 62.6 341.8 61.9 C 341.8 61.9 341.8 61.5 341.8 61.5 C 341.76 61.18 341.8 60.9 341.8 60.9 C 341.8 60.9 341.74 60.92 341.7 60.9 C 341.3 61.9 340 63.2 338 63.2 C 335.7 63.2 334.6 62 334.6 59.4 C 334.6 59.4 334.6 55 334.6 55 Z M 346 61.9 C 346 61.9 351.18 55.48 351.2 55.5 C 351.62 54.94 352 54.5 352 54.5 L 352 54.5 C 352 54.5 351.7 54.54 351 54.5 C 351 54.5 348.3 54.5 348.3 54.5 C 348 54.5 347.8 54.7 347.8 55 C 347.84 54.98 347.8 55.7 347.8 55.7 L 346.1 55.7 C 346.1 55.7 346.06 54.16 346.1 54.2 C 346.1 53.3 346.4 52.9 347.3 52.9 C 347.34 52.88 354.6 52.9 354.6 52.9 L 354.6 54 C 354.6 54 349.38 60.42 349.4 60.4 C 348.96 60.92 348.5 61.3 348.5 61.3 L 348.5 61.4 C 348.5 61.4 348.86 61.34 349.5 61.3 C 349.5 61.3 352.8 61.3 352.8 61.3 C 353 61.3 353.2 61.2 353.2 60.9 C 353.2 60.9 353.2 60.2 353.2 60.2 L 355 60.2 C 355 60.2 354.96 61.72 355 61.7 C 355 62.6 354.6 63 353.7 63 C 353.68 63 346 63 346 63 L 346 61.9 Z M 347.9 48.9 L 349.5 48.9 L 350.5 50.5 L 350.6 50.5 L 351.6 48.9 L 353.2 48.9 L 351.4 51.4 L 349.7 51.4 L 347.9 48.9 Z M 357.2 55 C 357.2 54.7 357.1 54.5 356.8 54.5 C 356.8 54.54 356 54.5 356 54.5 L 356 52.9 C 356 52.9 357.9 52.88 357.9 52.9 C 358.8 52.9 359.2 53.3 359.2 54.2 C 359.2 54.2 359.2 60.9 359.2 60.9 C 359.2 61.2 359.3 61.3 359.6 61.3 C 359.62 61.34 360.4 61.3 360.4 61.3 L 360.4 63 C 360.4 63 358.54 63 358.5 63 C 357.6 63 357.2 62.6 357.2 61.7 C 357.2 61.7 357.2 55 357.2 55 Z M 358.7 48.9 L 360.7 48.9 L 358.8 51.4 L 357.3 51.4 L 358.7 48.9 Z M 362 54.9 C 361.8 54.6 361.7 54.5 361.3 54.5 C 361.34 54.54 361.1 54.5 361.1 54.5 L 361.1 52.9 C 361.1 52.9 362.14 52.88 362.1 52.9 C 363 52.9 363.4 53.1 363.7 53.9 C 363.7 53.9 365.9 59.7 365.9 59.7 C 366.06 60.28 366.2 61 366.2 61 L 366.3 61 C 366.3 61 366.42 60.28 366.6 59.7 C 366.6 59.7 368.8 53.9 368.8 53.9 C 369.1 53.1 369.4 52.9 370.3 52.9 C 370.32 52.88 371.3 52.9 371.3 52.9 L 371.3 54.5 C 371.3 54.5 371.06 54.54 371.1 54.5 C 370.7 54.5 370.5 54.6 370.4 54.9 C 370.4 54.94 367.3 63 367.3 63 L 365.1 63 C 365.1 63 361.96 54.94 362 54.9 Z M 378.3 56.7 C 378.26 56.7 378.7 56.7 378.7 56.7 C 378.7 56.7 378.7 56.6 378.7 56.6 C 378.7 54.8 378 54.2 376.5 54.2 C 376 54.2 374.8 54.3 374.8 55 C 374.8 54.96 374.8 55.5 374.8 55.5 L 373 55.5 C 373 55.5 372.98 54.54 373 54.5 C 373 52.9 375.5 52.6 376.5 52.6 C 379.8 52.6 380.6 54.4 380.6 56.6 C 380.6 56.6 380.6 60.9 380.6 60.9 C 380.6 61.2 380.8 61.3 381.1 61.3 C 381.08 61.34 381.9 61.3 381.9 61.3 L 381.9 63 C 381.9 63 380.08 63 380.1 63 C 379.2 63 378.8 62.6 378.8 61.8 C 378.82 61.5 378.9 61.2 378.9 61.2 L 378.8 61.2 C 378.8 61.2 378.02 63.24 375.6 63.2 C 373.9 63.2 372.2 62.2 372.2 60.2 C 372.2 56.9 376.6 56.7 378.3 56.7 Z M 376 61.7 C 377.7 61.7 378.7 60 378.7 58.5 C 378.72 58.46 378.7 58.1 378.7 58.1 C 378.7 58.1 378.22 58.12 378.2 58.1 C 376.8 58.1 374.1 58.2 374.1 60.1 C 374.1 60.9 374.7 61.7 376 61.7 Z M 384.5 48.9 L 386.3 48.9 L 386.3 50.9 L 384.5 50.9 L 384.5 48.9 Z M 382.3 65.4 C 383.1 65.4 384.5 65.2 384.5 63.2 C 384.5 63.2 384.5 55 384.5 55 C 384.5 54.7 384.3 54.5 384.1 54.5 C 384.06 54.54 383.2 54.5 383.2 54.5 L 383.2 52.9 C 383.2 52.9 385.16 52.88 385.2 52.9 C 386.1 52.9 386.4 53.3 386.4 54.2 C 386.4 54.2 386.4 63.3 386.4 63.3 C 386.4 66.7 383.8 67.1 382.6 67.1 C 382.16 67.12 381.9 67.1 381.9 67.1 L 381.9 65.4 C 381.9 65.4 382.08 65.44 382.3 65.4 Z M 389.7 55 C 389.7 54.7 389.5 54.5 389.2 54.5 C 389.24 54.54 388.4 54.5 388.4 54.5 L 388.4 52.9 C 388.4 52.9 390.32 52.88 390.3 52.9 C 391.2 52.9 391.6 53.3 391.6 54.1 C 391.6 54.1 391.6 58.9 391.6 58.9 C 391.6 60.3 391.9 61.4 393.5 61.4 C 395.6 61.4 396.8 59.6 396.8 57.6 C 396.8 57.62 396.8 52.9 396.8 52.9 L 398.7 52.9 C 398.7 52.9 398.74 60.9 398.7 60.9 C 398.7 61.2 398.9 61.3 399.2 61.3 C 399.18 61.34 400 61.3 400 61.3 L 400 63 C 400 63 398.14 63 398.1 63 C 397.3 63 396.9 62.6 396.9 61.9 C 396.9 61.9 396.9 61.5 396.9 61.5 C 396.86 61.18 396.9 60.9 396.9 60.9 C 396.9 60.9 396.84 60.92 396.8 60.9 C 396.4 61.9 395.1 63.2 393.1 63.2 C 390.8 63.2 389.7 62 389.7 59.4 C 389.7 59.4 389.7 55 389.7 55 Z M 394.8 48.9 L 396.7 48.9 L 394.8 51.4 L 393.3 51.4 L 394.8 48.9 Z M 406.6 52.6 C 407.8 52.6 410.2 53.1 410.2 54.9 C 410.24 54.86 410.2 55.9 410.2 55.9 L 408.5 55.9 C 408.5 55.9 408.48 55.34 408.5 55.3 C 408.5 54.6 407.3 54.3 406.6 54.3 C 404.6 54.3 403.1 55.8 403.1 57.9 C 403.1 60.2 404.8 61.5 406.7 61.5 C 408.6 61.52 409.8 60.1 409.8 60.1 L 410.7 61.5 C 410.7 61.5 409.24 63.24 406.6 63.2 C 403.4 63.2 401.2 61 401.2 57.9 C 401.2 55 403.3 52.6 406.6 52.6 Z M 416.9 52.6 C 419.7 52.6 421.3 54.8 421.3 57.4 C 421.25 57.64 421.2 58.2 421.2 58.2 C 421.2 58.2 413.81 58.18 413.8 58.2 C 413.9 60.3 415.5 61.6 417.3 61.6 C 419.03 61.56 420.3 60.4 420.3 60.4 L 421.1 61.8 C 421.1 61.8 419.59 63.24 417.2 63.2 C 414 63.2 411.8 60.9 411.8 57.9 C 411.8 54.7 414 52.6 416.9 52.6 Z M 419.3 56.8 C 419.2 55.1 418.1 54.2 416.9 54.2 C 415.4 54.2 414.2 55.1 413.9 56.8 C 413.9 56.8 419.3 56.8 419.3 56.8 Z M 429.4 48.9 L 431.1 48.9 L 431.1 50.9 L 429.4 50.9 L 429.4 48.9 Z M 429.3 55 C 429.3 54.7 429.2 54.5 428.9 54.5 C 428.87 54.54 428.1 54.5 428.1 54.5 L 428.1 52.9 C 428.1 52.9 429.95 52.88 430 52.9 C 430.9 52.9 431.2 53.3 431.2 54.2 C 431.2 54.2 431.2 60.9 431.2 60.9 C 431.2 61.2 431.4 61.3 431.7 61.3 C 431.67 61.34 432.5 61.3 432.5 61.3 L 432.5 63 C 432.5 63 430.59 63 430.6 63 C 429.7 63 429.3 62.6 429.3 61.7 C 429.3 61.7 429.3 55 429.3 55 Z M 434.7 55 C 434.7 54.7 434.6 54.5 434.3 54.5 C 434.27 54.54 433.5 54.5 433.5 54.5 L 433.5 52.9 C 433.5 52.9 435.31 52.88 435.3 52.9 C 436.2 52.9 436.6 53.3 436.6 54 C 436.6 54 436.6 54.4 436.6 54.4 C 436.59 54.7 436.6 55 436.6 55 C 436.6 55 436.59 54.96 436.6 55 C 437 54.1 438.2 52.6 440.4 52.6 C 442.8 52.6 443.9 53.9 443.9 56.5 C 443.9 56.5 443.9 60.9 443.9 60.9 C 443.9 61.2 444 61.3 444.3 61.3 C 444.31 61.34 445.1 61.3 445.1 61.3 L 445.1 63 C 445.1 63 443.21 63 443.2 63 C 442.3 63 441.9 62.6 441.9 61.7 C 441.9 61.7 441.9 57 441.9 57 C 441.9 55.5 441.7 54.4 440 54.4 C 438.5 54.4 437.2 55.4 436.8 56.9 C 436.7 57.3 436.7 57.8 436.7 58.3 C 436.65 58.26 436.7 63 436.7 63 L 434.7 63 C 434.7 63 434.71 54.98 434.7 55 Z M 451.3 52.6 C 454.2 52.6 455.7 54.8 455.7 57.4 C 455.69 57.64 455.6 58.2 455.6 58.2 C 455.6 58.2 448.25 58.18 448.3 58.2 C 448.4 60.3 449.9 61.6 451.7 61.6 C 453.47 61.56 454.7 60.4 454.7 60.4 L 455.5 61.8 C 455.5 61.8 454.03 63.24 451.6 63.2 C 448.4 63.2 446.3 60.9 446.3 57.9 C 446.3 54.7 448.5 52.6 451.3 52.6 Z M 453.7 56.8 C 453.6 55.1 452.6 54.2 451.3 54.2 C 449.8 54.2 448.6 55.1 448.3 56.8 C 448.3 56.8 453.7 56.8 453.7 56.8 Z M 452 48.9 L 453.9 48.9 L 452 51.4 L 450.5 51.4 L 452 48.9 Z M 463.6 51 C 463.6 50.7 463.5 50.5 463.2 50.5 C 463.17 50.54 462.4 50.5 462.4 50.5 L 462.4 48.9 C 462.4 48.9 464.27 48.88 464.3 48.9 C 465.2 48.9 465.6 49.3 465.6 50.2 C 465.6 50.2 465.6 60.9 465.6 60.9 C 465.6 61.2 465.7 61.3 466 61.3 C 465.99 61.34 466.8 61.3 466.8 61.3 L 466.8 63 C 466.8 63 464.89 63 464.9 63 C 464 63 463.6 62.6 463.6 61.7 C 463.6 61.7 463.6 51 463.6 51 Z M 469.2 48.9 L 470.9 48.9 L 470.9 50.9 L 469.2 50.9 L 469.2 48.9 Z M 469.1 55 C 469.1 54.7 469 54.5 468.7 54.5 C 468.67 54.54 467.9 54.5 467.9 54.5 L 467.9 52.9 C 467.9 52.9 469.75 52.88 469.8 52.9 C 470.7 52.9 471 53.3 471 54.2 C 471 54.2 471 60.9 471 60.9 C 471 61.2 471.2 61.3 471.5 61.3 C 471.47 61.34 472.3 61.3 472.3 61.3 L 472.3 63 C 472.3 63 470.39 63 470.4 63 C 469.5 63 469.1 62.6 469.1 61.7 C 469.1 61.7 469.1 55 469.1 55 Z M 478.6 52.6 C 481.5 52.6 483 54.8 483 57.4 C 482.97 57.64 482.9 58.2 482.9 58.2 C 482.9 58.2 475.53 58.18 475.5 58.2 C 475.7 60.3 477.2 61.6 479 61.6 C 480.75 61.56 482 60.4 482 60.4 L 482.8 61.8 C 482.8 61.8 481.31 63.24 478.9 63.2 C 475.7 63.2 473.5 60.9 473.5 57.9 C 473.5 54.7 475.7 52.6 478.6 52.6 Z M 481 56.8 C 480.9 55.1 479.9 54.2 478.6 54.2 C 477.1 54.2 475.9 55.1 475.6 56.8 C 475.6 56.8 481 56.8 481 56.8 Z M 485.5 51 C 485.5 50.7 485.3 50.5 485 50.5 C 485.03 50.54 484.2 50.5 484.2 50.5 L 484.2 48.9 C 484.2 48.9 486.13 48.88 486.1 48.9 C 487 48.9 487.4 49.1 487.4 50 C 487.41 50.04 487.4 56.6 487.4 56.6 C 487.4 56.6 488.31 56.6 488.3 56.6 C 488.7 56.6 489.1 56.5 489.4 56.2 C 489.37 56.16 491.7 52.9 491.7 52.9 L 493.9 52.9 C 493.9 52.9 491.19 56.64 491.2 56.6 C 490.73 57.26 490.4 57.4 490.4 57.4 L 490.4 57.4 C 490.4 57.4 490.77 57.56 491.1 58.2 C 491.1 58.2 492.6 60.9 492.6 60.9 C 492.8 61.3 493 61.3 493.5 61.3 C 493.47 61.34 494.1 61.3 494.1 61.3 L 494.1 63 C 494.1 63 492.69 63 492.7 63 C 491.8 63 491.5 62.8 491 62.1 C 491 62.1 489.2 58.7 489.2 58.7 C 489 58.3 488.5 58.2 488.2 58.2 C 488.17 58.24 487.4 58.2 487.4 58.2 L 487.4 63 L 485.5 63 C 485.5 63 485.47 50.98 485.5 51 Z M 496.5 65.5 C 497.3 65.5 497.9 65 498.3 64.1 C 498.29 64.06 498.8 63 498.8 63 C 498.8 63 495.29 54.94 495.3 54.9 C 495.2 54.6 495 54.5 494.7 54.5 C 494.65 54.54 494.4 54.5 494.4 54.5 L 494.4 52.9 C 494.4 52.9 495.55 52.88 495.6 52.9 C 496.4 52.9 496.7 53.1 497 53.9 C 497 53.9 499.3 59.6 499.3 59.6 C 499.49 60.12 499.7 60.8 499.7 60.8 L 499.7 60.8 C 499.7 60.8 499.83 60.12 500 59.6 C 500 59.6 502.1 53.9 502.1 53.9 C 502.4 53.1 502.8 52.9 503.6 52.9 C 503.61 52.88 504.8 52.9 504.8 52.9 L 504.8 54.5 C 504.8 54.5 504.51 54.54 504.5 54.5 C 504.2 54.5 504 54.6 503.9 54.9 C 503.9 54.9 499.9 64.8 499.9 64.8 C 499.3 66.4 498 67.2 496.6 67.2 C 495.11 67.2 494.2 66.2 494.2 66.2 C 494.2 66.2 495.03 64.8 495 64.8 C 495 64.8 495.7 65.5 496.5 65.5 Z M 505.6 60.9 L 507.5 60.9 L 507.5 63 L 505.6 63 L 505.6 60.9 Z " stroke="none" fill="#ee3078"/>  </g>  <g id="Polygon74903">    <path d="M 6.8 32.7 C 6.84 32.7 7.3 32.7 7.3 32.7 C 7.3 32.7 7.28 32.6 7.3 32.6 C 7.3 30.8 6.6 30.2 5 30.2 C 4.6 30.2 3.4 30.3 3.4 31 C 3.38 30.96 3.4 31.5 3.4 31.5 L 1.6 31.5 C 1.6 31.5 1.56 30.54 1.6 30.5 C 1.6 28.9 4.1 28.6 5.1 28.6 C 8.3 28.6 9.2 30.4 9.2 32.6 C 9.2 32.6 9.2 36.9 9.2 36.9 C 9.2 37.2 9.4 37.3 9.7 37.3 C 9.66 37.34 10.5 37.3 10.5 37.3 L 10.5 39 C 10.5 39 8.66 39 8.7 39 C 7.8 39 7.4 38.6 7.4 37.8 C 7.4 37.5 7.4 37.2 7.4 37.2 L 7.4 37.2 C 7.4 37.2 6.6 39.24 4.2 39.2 C 2.4 39.2 0.7 38.2 0.7 36.2 C 0.7 32.9 5.1 32.7 6.8 32.7 Z M 4.6 37.7 C 6.2 37.7 7.3 36 7.3 34.5 C 7.3 34.46 7.3 34.1 7.3 34.1 C 7.3 34.1 6.8 34.12 6.8 34.1 C 5.3 34.1 2.7 34.2 2.7 36.1 C 2.7 36.9 3.3 37.7 4.6 37.7 Z M 18 31 C 18 30.7 17.8 30.5 17.5 30.5 C 17.52 30.54 16.7 30.5 16.7 30.5 L 16.7 28.9 C 16.7 28.9 18.56 28.88 18.6 28.9 C 19.4 28.9 19.8 29.3 19.8 30 C 19.8 30 19.8 30.4 19.8 30.4 C 19.84 30.7 19.8 31 19.8 31 C 19.8 31 19.84 30.96 19.8 31 C 20.2 30.1 21.4 28.6 23.6 28.6 C 26 28.6 27.1 29.9 27.1 32.5 C 27.1 32.5 27.1 36.9 27.1 36.9 C 27.1 37.2 27.3 37.3 27.6 37.3 C 27.56 37.34 28.4 37.3 28.4 37.3 L 28.4 39 C 28.4 39 26.46 39 26.5 39 C 25.6 39 25.2 38.6 25.2 37.7 C 25.2 37.7 25.2 33 25.2 33 C 25.2 31.5 24.9 30.4 23.3 30.4 C 21.7 30.4 20.5 31.4 20.1 32.9 C 19.9 33.3 19.9 33.8 19.9 34.3 C 19.9 34.26 19.9 39 19.9 39 L 18 39 C 18 39 17.96 30.98 18 31 Z M 30.6 24.9 L 32.4 24.9 L 32.4 26.9 L 30.6 26.9 L 30.6 24.9 Z M 30.6 31 C 30.6 30.7 30.4 30.5 30.1 30.5 C 30.14 30.54 29.3 30.5 29.3 30.5 L 29.3 28.9 C 29.3 28.9 31.22 28.88 31.2 28.9 C 32.1 28.9 32.5 29.3 32.5 30.2 C 32.5 30.2 32.5 36.9 32.5 36.9 C 32.5 37.2 32.7 37.3 32.9 37.3 C 32.94 37.34 33.8 37.3 33.8 37.3 L 33.8 39 C 33.8 39 31.86 39 31.9 39 C 31 39 30.6 38.6 30.6 37.7 C 30.6 37.7 30.6 31 30.6 31 Z M 40.1 28.6 C 42.9 28.6 44.4 30.8 44.4 33.4 C 44.44 33.64 44.4 34.2 44.4 34.2 C 44.4 34.2 37 34.18 37 34.2 C 37.1 36.3 38.7 37.6 40.5 37.6 C 42.22 37.56 43.4 36.4 43.4 36.4 L 44.3 37.8 C 44.3 37.8 42.78 39.24 40.4 39.2 C 37.2 39.2 35 36.9 35 33.9 C 35 30.7 37.2 28.6 40.1 28.6 Z M 42.4 32.8 C 42.4 31.1 41.3 30.2 40.1 30.2 C 38.6 30.2 37.4 31.1 37.1 32.8 C 37.1 32.8 42.4 32.8 42.4 32.8 Z M 52.9 24.9 L 54.7 24.9 L 54.7 26.9 L 52.9 26.9 L 52.9 24.9 Z M 50.7 41.4 C 51.5 41.4 52.9 41.2 52.9 39.2 C 52.9 39.2 52.9 31 52.9 31 C 52.9 30.7 52.7 30.5 52.5 30.5 C 52.46 30.54 51.6 30.5 51.6 30.5 L 51.6 28.9 C 51.6 28.9 53.56 28.88 53.6 28.9 C 54.5 28.9 54.8 29.3 54.8 30.2 C 54.8 30.2 54.8 39.3 54.8 39.3 C 54.8 42.7 52.2 43.1 51 43.1 C 50.56 43.12 50.3 43.1 50.3 43.1 L 50.3 41.4 C 50.3 41.4 50.48 41.44 50.7 41.4 Z M 62.2 28.6 C 65.1 28.6 66.6 30.8 66.6 33.4 C 66.58 33.64 66.5 34.2 66.5 34.2 C 66.5 34.2 59.14 34.18 59.1 34.2 C 59.3 36.3 60.8 37.6 62.6 37.6 C 64.36 37.56 65.6 36.4 65.6 36.4 L 66.4 37.8 C 66.4 37.8 64.92 39.24 62.5 39.2 C 59.3 39.2 57.1 36.9 57.1 33.9 C 57.1 30.7 59.3 28.6 62.2 28.6 Z M 64.6 32.8 C 64.5 31.1 63.5 30.2 62.2 30.2 C 60.7 30.2 59.5 31.1 59.2 32.8 C 59.2 32.8 64.6 32.8 64.6 32.8 Z M 74.5 31 C 74.5 30.7 74.4 30.5 74.1 30.5 C 74.1 30.54 73.3 30.5 73.3 30.5 L 73.3 28.9 C 73.3 28.9 75.14 28.88 75.1 28.9 C 76 28.9 76.4 29.3 76.4 30 C 76.4 30 76.4 30.4 76.4 30.4 C 76.42 30.7 76.4 31 76.4 31 C 76.4 31 76.42 30.96 76.4 31 C 76.8 30.1 78 28.6 80.2 28.6 C 82.6 28.6 83.7 29.9 83.7 32.5 C 83.7 32.5 83.7 36.9 83.7 36.9 C 83.7 37.2 83.9 37.3 84.1 37.3 C 84.14 37.34 85 37.3 85 37.3 L 85 39 C 85 39 83.04 39 83 39 C 82.1 39 81.8 38.6 81.8 37.7 C 81.8 37.7 81.8 33 81.8 33 C 81.8 31.5 81.5 30.4 79.9 30.4 C 78.3 30.4 77.1 31.4 76.7 32.9 C 76.5 33.3 76.5 33.8 76.5 34.3 C 76.48 34.26 76.5 39 76.5 39 L 74.5 39 C 74.5 39 74.54 30.98 74.5 31 Z M 87.2 31 C 87.2 30.7 87 30.5 86.7 30.5 C 86.72 30.54 85.9 30.5 85.9 30.5 L 85.9 28.9 C 85.9 28.9 87.82 28.88 87.8 28.9 C 88.7 28.9 89.1 29.3 89.1 30.2 C 89.1 30.2 89.1 36.9 89.1 36.9 C 89.1 37.2 89.3 37.3 89.5 37.3 C 89.54 37.34 90.4 37.3 90.4 37.3 L 90.4 39 C 90.4 39 88.46 39 88.5 39 C 87.5 39 87.2 38.6 87.2 37.7 C 87.2 37.7 87.2 31 87.2 31 Z M 88.7 24.9 L 90.6 24.9 L 88.7 27.4 L 87.2 27.4 L 88.7 24.9 Z M 92.6 31 C 92.6 30.7 92.4 30.5 92.2 30.5 C 92.16 30.54 91.3 30.5 91.3 30.5 L 91.3 28.9 C 91.3 28.9 93.2 28.88 93.2 28.9 C 94.1 28.9 94.5 29.3 94.5 30 C 94.5 30 94.5 30.4 94.5 30.4 C 94.48 30.7 94.5 31 94.5 31 C 94.5 31 94.5 30.96 94.5 31 C 95 29.8 96.4 28.6 98 28.6 C 99.7 28.6 100.7 29.4 101 30.9 C 101 30.9 101 30.9 101 30.9 C 101.6 29.7 103 28.6 104.6 28.6 C 106.9 28.6 108 29.9 108 32.5 C 108 32.5 108 36.9 108 36.9 C 108 37.2 108.1 37.3 108.4 37.3 C 108.42 37.34 109.2 37.3 109.2 37.3 L 109.2 39 C 109.2 39 107.32 39 107.3 39 C 106.4 39 106 38.6 106 37.7 C 106 37.7 106 32.9 106 32.9 C 106 31.5 105.8 30.4 104.3 30.4 C 102.9 30.4 101.8 31.6 101.4 33 C 101.3 33.4 101.3 33.9 101.3 34.4 C 101.26 34.38 101.3 39 101.3 39 L 99.3 39 C 99.3 39 99.32 32.94 99.3 32.9 C 99.3 31.6 99.1 30.4 97.6 30.4 C 96.1 30.4 95.1 31.6 94.7 33.1 C 94.6 33.5 94.5 33.9 94.5 34.4 C 94.54 34.38 94.5 39 94.5 39 L 92.6 39 C 92.6 39 92.6 30.98 92.6 31 Z M 116.7 31 C 116.7 30.7 116.6 30.5 116.3 30.5 C 116.28 30.54 115.5 30.5 115.5 30.5 L 115.5 28.9 C 115.5 28.9 117.32 28.88 117.3 28.9 C 118.2 28.9 118.6 29.3 118.6 30 C 118.6 30 118.6 30.4 118.6 30.4 C 118.6 30.7 118.6 31 118.6 31 C 118.6 31 118.62 30.96 118.6 31 C 119.1 29.8 120.5 28.6 122.1 28.6 C 123.8 28.6 124.8 29.4 125.1 30.9 C 125.1 30.9 125.2 30.9 125.2 30.9 C 125.7 29.7 127.1 28.6 128.8 28.6 C 131 28.6 132.1 29.9 132.1 32.5 C 132.1 32.5 132.1 36.9 132.1 36.9 C 132.1 37.2 132.3 37.3 132.5 37.3 C 132.54 37.34 133.4 37.3 133.4 37.3 L 133.4 39 C 133.4 39 131.44 39 131.4 39 C 130.5 39 130.2 38.6 130.2 37.7 C 130.2 37.7 130.2 32.9 130.2 32.9 C 130.2 31.5 129.9 30.4 128.4 30.4 C 127 30.4 125.9 31.6 125.5 33 C 125.4 33.4 125.4 33.9 125.4 34.4 C 125.38 34.38 125.4 39 125.4 39 L 123.4 39 C 123.4 39 123.44 32.94 123.4 32.9 C 123.4 31.6 123.2 30.4 121.7 30.4 C 120.2 30.4 119.2 31.6 118.8 33.1 C 118.7 33.5 118.7 33.9 118.7 34.4 C 118.66 34.38 118.7 39 118.7 39 L 116.7 39 C 116.7 39 116.72 30.98 116.7 31 Z M 139.6 28.6 C 142.4 28.6 143.9 30.8 143.9 33.4 C 143.92 33.64 143.9 34.2 143.9 34.2 C 143.9 34.2 136.48 34.18 136.5 34.2 C 136.6 36.3 138.2 37.6 140 37.6 C 141.7 37.56 142.9 36.4 142.9 36.4 L 143.8 37.8 C 143.8 37.8 142.26 39.24 139.9 39.2 C 136.7 39.2 134.5 36.9 134.5 33.9 C 134.5 30.7 136.7 28.6 139.6 28.6 Z M 141.9 32.8 C 141.9 31.1 140.8 30.2 139.5 30.2 C 138.1 30.2 136.9 31.1 136.6 32.8 C 136.6 32.8 141.9 32.8 141.9 32.8 Z M 146.6 30.4 L 145.3 30.4 L 145.3 28.9 L 146.6 28.9 L 146.6 26.1 L 148.5 26.1 L 148.5 28.9 L 150.9 28.9 L 150.9 30.4 L 148.5 30.4 C 148.5 30.4 148.52 35.08 148.5 35.1 C 148.5 37.1 149.9 37.4 150.7 37.4 C 150.94 37.36 151.1 37.3 151.1 37.3 L 151.1 39 C 151.1 39 150.86 39.08 150.4 39.1 C 149.2 39.1 146.6 38.7 146.6 35.3 C 146.58 35.3 146.6 30.4 146.6 30.4 Z M 158.6 32.7 C 158.58 32.7 159 32.7 159 32.7 C 159 32.7 159.02 32.6 159 32.6 C 159 30.8 158.4 30.2 156.8 30.2 C 156.3 30.2 155.1 30.3 155.1 31 C 155.12 30.96 155.1 31.5 155.1 31.5 L 153.3 31.5 C 153.3 31.5 153.3 30.54 153.3 30.5 C 153.3 28.9 155.8 28.6 156.8 28.6 C 160.1 28.6 161 30.4 161 32.6 C 161 32.6 161 36.9 161 36.9 C 161 37.2 161.1 37.3 161.4 37.3 C 161.4 37.34 162.2 37.3 162.2 37.3 L 162.2 39 C 162.2 39 160.4 39 160.4 39 C 159.5 39 159.1 38.6 159.1 37.8 C 159.14 37.5 159.2 37.2 159.2 37.2 L 159.1 37.2 C 159.1 37.2 158.34 39.24 155.9 39.2 C 154.2 39.2 152.5 38.2 152.5 36.2 C 152.5 32.9 156.9 32.7 158.6 32.7 Z M 156.3 37.7 C 158 37.7 159 36 159 34.5 C 159.04 34.46 159 34.1 159 34.1 C 159 34.1 158.54 34.12 158.5 34.1 C 157.1 34.1 154.4 34.2 154.4 36.1 C 154.4 36.9 155.1 37.7 156.3 37.7 Z M 164.2 27 C 164.2 26.7 164.1 26.5 163.8 26.5 C 163.8 26.54 163 26.5 163 26.5 L 163 24.9 C 163 24.9 164.9 24.88 164.9 24.9 C 165.8 24.9 166.2 25.3 166.2 26.2 C 166.2 26.2 166.2 29.5 166.2 29.5 C 166.18 29.94 166.1 30.3 166.1 30.3 L 166.2 30.3 C 166.2 30.3 167.06 28.64 169.4 28.6 C 172.2 28.6 173.9 30.8 173.9 33.9 C 173.9 37.2 171.9 39.2 169.3 39.2 C 167.02 39.24 166.1 37.5 166.1 37.5 L 166.1 37.5 C 166.1 37.5 166.1 37.86 166.1 38.3 C 166.1 38.3 166.1 39 166.1 39 L 164.2 39 C 164.2 39 164.24 26.98 164.2 27 Z M 169 37.6 C 170.6 37.6 171.9 36.3 171.9 34 C 171.9 31.8 170.7 30.3 169 30.3 C 167.5 30.3 166.1 31.4 166.1 34 C 166.1 35.8 167.1 37.6 169 37.6 Z M 180.8 28.6 C 183.8 28.6 186.2 30.9 186.2 33.9 C 186.2 37 183.8 39.2 180.8 39.2 C 177.8 39.2 175.3 37 175.3 33.9 C 175.3 30.9 177.8 28.6 180.8 28.6 Z M 180.8 37.6 C 182.7 37.6 184.3 36 184.3 33.9 C 184.3 31.8 182.7 30.3 180.8 30.3 C 178.9 30.3 177.3 31.8 177.3 33.9 C 177.3 36 178.9 37.6 180.8 37.6 Z M 188.4 27 C 188.4 26.7 188.3 26.5 188 26.5 C 188 26.54 187.2 26.5 187.2 26.5 L 187.2 24.9 C 187.2 24.9 189.1 24.88 189.1 24.9 C 190 24.9 190.4 25.3 190.4 26.2 C 190.4 26.2 190.4 36.9 190.4 36.9 C 190.4 37.2 190.5 37.3 190.8 37.3 C 190.82 37.34 191.6 37.3 191.6 37.3 L 191.6 39 C 191.6 39 189.72 39 189.7 39 C 188.8 39 188.4 38.6 188.4 37.7 C 188.4 37.7 188.4 27 188.4 27 Z M 194 24.9 L 195.7 24.9 L 195.7 26.9 L 194 26.9 L 194 24.9 Z M 193.9 31 C 193.9 30.7 193.8 30.5 193.5 30.5 C 193.5 30.54 192.7 30.5 192.7 30.5 L 192.7 28.9 C 192.7 28.9 194.58 28.88 194.6 28.9 C 195.5 28.9 195.9 29.3 195.9 30.2 C 195.9 30.2 195.9 36.9 195.9 36.9 C 195.9 37.2 196 37.3 196.3 37.3 C 196.3 37.34 197.1 37.3 197.1 37.3 L 197.1 39 C 197.1 39 195.22 39 195.2 39 C 194.3 39 193.9 38.6 193.9 37.7 C 193.9 37.7 193.9 31 193.9 31 Z M 198.3 37.9 C 198.3 37.9 203.48 31.48 203.5 31.5 C 203.92 30.94 204.3 30.5 204.3 30.5 L 204.3 30.5 C 204.3 30.5 204 30.54 203.3 30.5 C 203.3 30.5 200.6 30.5 200.6 30.5 C 200.3 30.5 200.1 30.7 200.1 31 C 200.14 30.98 200.1 31.7 200.1 31.7 L 198.4 31.7 C 198.4 31.7 198.36 30.16 198.4 30.2 C 198.4 29.3 198.7 28.9 199.6 28.9 C 199.64 28.88 206.9 28.9 206.9 28.9 L 206.9 30 C 206.9 30 201.68 36.42 201.7 36.4 C 201.26 36.92 200.8 37.3 200.8 37.3 L 200.8 37.4 C 200.8 37.4 201.16 37.34 201.8 37.3 C 201.8 37.3 205.1 37.3 205.1 37.3 C 205.3 37.3 205.5 37.2 205.5 36.9 C 205.5 36.9 205.5 36.2 205.5 36.2 L 207.3 36.2 C 207.3 36.2 207.26 37.72 207.3 37.7 C 207.3 38.6 206.9 39 206 39 C 205.98 39 198.3 39 198.3 39 L 198.3 37.9 Z M 213.7 28.6 C 216.7 28.6 219.2 30.9 219.2 33.9 C 219.2 37 216.7 39.2 213.7 39.2 C 210.7 39.2 208.3 37 208.3 33.9 C 208.3 30.9 210.7 28.6 213.7 28.6 Z M 213.7 37.6 C 215.6 37.6 217.2 36 217.2 33.9 C 217.2 31.8 215.6 30.3 213.7 30.3 C 211.8 30.3 210.2 31.8 210.2 33.9 C 210.2 36 211.8 37.6 213.7 37.6 Z M 220.8 30.9 C 220.6 30.6 220.5 30.5 220.1 30.5 C 220.14 30.54 219.9 30.5 219.9 30.5 L 219.9 28.9 C 219.9 28.9 220.94 28.88 220.9 28.9 C 221.8 28.9 222.2 29.1 222.5 29.9 C 222.5 29.9 224.7 35.7 224.7 35.7 C 224.86 36.28 225 37 225 37 L 225.1 37 C 225.1 37 225.22 36.28 225.4 35.7 C 225.4 35.7 227.6 29.9 227.6 29.9 C 227.9 29.1 228.2 28.9 229.1 28.9 C 229.12 28.88 230.1 28.9 230.1 28.9 L 230.1 30.5 C 230.1 30.5 229.86 30.54 229.9 30.5 C 229.5 30.5 229.3 30.6 229.2 30.9 C 229.2 30.94 226.1 39 226.1 39 L 223.9 39 C 223.9 39 220.76 30.94 220.8 30.9 Z M 237.1 32.7 C 237.06 32.7 237.5 32.7 237.5 32.7 C 237.5 32.7 237.5 32.6 237.5 32.6 C 237.5 30.8 236.8 30.2 235.3 30.2 C 234.8 30.2 233.6 30.3 233.6 31 C 233.6 30.96 233.6 31.5 233.6 31.5 L 231.8 31.5 C 231.8 31.5 231.78 30.54 231.8 30.5 C 231.8 28.9 234.3 28.6 235.3 28.6 C 238.6 28.6 239.4 30.4 239.4 32.6 C 239.4 32.6 239.4 36.9 239.4 36.9 C 239.4 37.2 239.6 37.3 239.9 37.3 C 239.88 37.34 240.7 37.3 240.7 37.3 L 240.7 39 C 240.7 39 238.88 39 238.9 39 C 238 39 237.6 38.6 237.6 37.8 C 237.62 37.5 237.7 37.2 237.7 37.2 L 237.6 37.2 C 237.6 37.2 236.82 39.24 234.4 39.2 C 232.7 39.2 231 38.2 231 36.2 C 231 32.9 235.4 32.7 237.1 32.7 Z M 234.8 37.7 C 236.5 37.7 237.5 36 237.5 34.5 C 237.52 34.46 237.5 34.1 237.5 34.1 C 237.5 34.1 237.02 34.12 237 34.1 C 235.6 34.1 232.9 34.2 232.9 36.1 C 232.9 36.9 233.5 37.7 234.8 37.7 Z M 242.8 31 C 242.8 30.7 242.6 30.5 242.4 30.5 C 242.36 30.54 241.5 30.5 241.5 30.5 L 241.5 28.9 C 241.5 28.9 243.4 28.88 243.4 28.9 C 244.3 28.9 244.7 29.3 244.7 30 C 244.7 30 244.7 30.4 244.7 30.4 C 244.68 30.7 244.6 31 244.6 31 C 244.6 31 244.68 30.96 244.7 31 C 245.1 30.1 246.3 28.6 248.5 28.6 C 250.9 28.6 252 29.9 252 32.5 C 252 32.5 252 36.9 252 36.9 C 252 37.2 252.1 37.3 252.4 37.3 C 252.4 37.34 253.2 37.3 253.2 37.3 L 253.2 39 C 253.2 39 251.3 39 251.3 39 C 250.4 39 250 38.6 250 37.7 C 250 37.7 250 33 250 33 C 250 31.5 249.7 30.4 248.1 30.4 C 246.6 30.4 245.3 31.4 244.9 32.9 C 244.8 33.3 244.7 33.8 244.7 34.3 C 244.74 34.26 244.7 39 244.7 39 L 242.8 39 C 242.8 39 242.8 30.98 242.8 31 Z M 255.8 41.5 C 256.6 41.5 257.2 41 257.6 40.1 C 257.56 40.06 258 39 258 39 C 258 39 254.56 30.94 254.6 30.9 C 254.4 30.6 254.2 30.5 253.9 30.5 C 253.92 30.54 253.7 30.5 253.7 30.5 L 253.7 28.9 C 253.7 28.9 254.82 28.88 254.8 28.9 C 255.6 28.9 255.9 29.1 256.3 29.9 C 256.3 29.9 258.6 35.6 258.6 35.6 C 258.76 36.12 258.9 36.8 258.9 36.8 L 259 36.8 C 259 36.8 259.1 36.12 259.3 35.6 C 259.3 35.6 261.4 29.9 261.4 29.9 C 261.7 29.1 262.1 28.9 262.9 28.9 C 262.88 28.88 264 28.9 264 28.9 L 264 30.5 C 264 30.5 263.78 30.54 263.8 30.5 C 263.5 30.5 263.3 30.6 263.1 30.9 C 263.1 30.9 259.1 40.8 259.1 40.8 C 258.5 42.4 257.3 43.2 255.9 43.2 C 254.38 43.2 253.5 42.2 253.5 42.2 C 253.5 42.2 254.3 40.8 254.3 40.8 C 254.3 40.8 254.9 41.5 255.8 41.5 Z M 259.5 24.9 L 261.5 24.9 L 259.6 27.4 L 258.1 27.4 L 259.5 24.9 Z M 264.8 36.9 L 266.8 36.9 L 266.8 39 L 264.8 39 L 264.8 36.9 Z M 275.7 26.6 L 274.4 26.6 L 274.4 24.9 C 274.4 24.9 282.66 24.88 282.7 24.9 C 283.6 24.9 283.9 25.3 283.9 26.2 C 283.94 26.16 283.9 27.9 283.9 27.9 L 282.1 27.9 C 282.1 27.9 282.12 27.04 282.1 27 C 282.1 26.7 282 26.6 281.7 26.6 C 281.68 26.6 277.7 26.6 277.7 26.6 L 277.7 31 L 282.6 31 L 282.6 32.7 L 277.7 32.7 C 277.7 32.7 277.66 36.84 277.7 36.8 C 277.7 37.1 277.8 37.3 278.1 37.3 C 278.1 37.3 282.2 37.3 282.2 37.3 C 282.5 37.3 282.7 37.1 282.7 36.8 C 282.66 36.84 282.7 35.9 282.7 35.9 L 284.5 35.9 C 284.5 35.9 284.5 37.72 284.5 37.7 C 284.5 38.6 284.1 39 283.2 39 C 283.2 39 276.9 39 276.9 39 C 276 39 275.7 38.6 275.7 37.7 C 275.66 37.72 275.7 26.6 275.7 26.6 Z M 286.5 36.2 C 286.5 36.2 287.7 37.66 289.6 37.7 C 290.5 37.7 291.3 37.2 291.3 36.4 C 291.3 34.5 285.8 34.7 285.8 31.5 C 285.8 29.5 287.5 28.6 289.6 28.6 C 290.8 28.6 292.9 29.1 292.9 30.6 C 292.88 30.6 292.9 31.6 292.9 31.6 L 291.1 31.6 C 291.1 31.6 291.14 31.06 291.1 31.1 C 291.1 30.5 290.2 30.2 289.6 30.2 C 288.5 30.2 287.7 30.6 287.7 31.4 C 287.7 33.3 293.3 32.9 293.3 36.3 C 293.3 38.1 291.7 39.2 289.5 39.2 C 286.84 39.24 285.5 37.5 285.5 37.5 L 286.5 36.2 Z M 295.8 30.4 L 294.5 30.4 L 294.5 28.9 L 295.9 28.9 L 295.9 26.1 L 297.8 26.1 L 297.8 28.9 L 300.2 28.9 L 300.2 30.4 L 297.8 30.4 C 297.8 30.4 297.76 35.08 297.8 35.1 C 297.8 37.1 299.2 37.4 299.9 37.4 C 300.18 37.36 300.4 37.3 300.4 37.3 L 300.4 39 C 300.4 39 300.1 39.08 299.7 39.1 C 298.4 39.1 295.8 38.7 295.8 35.3 C 295.82 35.3 295.8 30.4 295.8 30.4 Z M 306.7 28.6 C 309.5 28.6 311.1 30.8 311.1 33.4 C 311.06 33.64 311 34.2 311 34.2 C 311 34.2 303.62 34.18 303.6 34.2 C 303.7 36.3 305.3 37.6 307.1 37.6 C 308.84 37.56 310.1 36.4 310.1 36.4 L 310.9 37.8 C 310.9 37.8 309.4 39.24 307 39.2 C 303.8 39.2 301.6 36.9 301.6 33.9 C 301.6 30.7 303.8 28.6 306.7 28.6 Z M 309.1 32.8 C 309 31.1 307.9 30.2 306.7 30.2 C 305.2 30.2 304 31.1 303.7 32.8 C 303.7 32.8 309.1 32.8 309.1 32.8 Z M 313.7 30.4 L 312.4 30.4 L 312.4 28.9 L 313.8 28.9 L 313.8 26.1 L 315.7 26.1 L 315.7 28.9 L 318.1 28.9 L 318.1 30.4 L 315.7 30.4 C 315.7 30.4 315.66 35.08 315.7 35.1 C 315.7 37.1 317.1 37.4 317.8 37.4 C 318.08 37.36 318.3 37.3 318.3 37.3 L 318.3 39 C 318.3 39 318 39.08 317.6 39.1 C 316.3 39.1 313.7 38.7 313.7 35.3 C 313.72 35.3 313.7 30.4 313.7 30.4 Z M 320.7 31 C 320.7 30.7 320.5 30.5 320.2 30.5 C 320.24 30.54 319.4 30.5 319.4 30.5 L 319.4 28.9 C 319.4 28.9 321.26 28.88 321.3 28.9 C 322.1 28.9 322.6 29.2 322.6 30.1 C 322.6 30.1 322.6 30.7 322.6 30.7 C 322.56 31.1 322.5 31.4 322.5 31.4 C 322.5 31.4 322.56 31.4 322.6 31.4 C 323 29.9 324.2 28.8 325.8 28.8 C 326.02 28.76 326.3 28.8 326.3 28.8 L 326.3 30.7 C 326.3 30.7 326.02 30.66 325.7 30.7 C 324.5 30.7 323.3 31.5 322.9 33 C 322.7 33.6 322.6 34.2 322.6 34.9 C 322.62 34.86 322.6 39 322.6 39 L 320.7 39 C 320.7 39 320.68 30.98 320.7 31 Z M 332.5 28.6 C 335.5 28.6 337.9 30.9 337.9 33.9 C 337.9 37 335.5 39.2 332.5 39.2 C 329.5 39.2 327 37 327 33.9 C 327 30.9 329.5 28.6 332.5 28.6 Z M 332.5 37.6 C 334.4 37.6 336 36 336 33.9 C 336 31.8 334.4 30.3 332.5 30.3 C 330.6 30.3 329 31.8 329 33.9 C 329 36 330.6 37.6 332.5 37.6 Z M 340.1 27 C 340.1 26.7 340 26.5 339.7 26.5 C 339.7 26.54 338.9 26.5 338.9 26.5 L 338.9 24.9 C 338.9 24.9 340.8 24.88 340.8 24.9 C 341.7 24.9 342.1 25.3 342.1 26.2 C 342.1 26.2 342.1 36.9 342.1 36.9 C 342.1 37.2 342.2 37.3 342.5 37.3 C 342.52 37.34 343.3 37.3 343.3 37.3 L 343.3 39 C 343.3 39 341.42 39 341.4 39 C 340.5 39 340.1 38.6 340.1 37.7 C 340.1 37.7 340.1 27 340.1 27 Z M 349.9 37.9 C 349.9 37.9 355.06 31.48 355.1 31.5 C 355.5 30.94 355.9 30.5 355.9 30.5 L 355.9 30.5 C 355.9 30.5 355.58 30.54 354.9 30.5 C 354.9 30.5 352.2 30.5 352.2 30.5 C 351.9 30.5 351.7 30.7 351.7 31 C 351.72 30.98 351.7 31.7 351.7 31.7 L 349.9 31.7 C 349.9 31.7 349.94 30.16 349.9 30.2 C 349.9 29.3 350.3 28.9 351.2 28.9 C 351.22 28.88 358.5 28.9 358.5 28.9 L 358.5 30 C 358.5 30 353.26 36.42 353.3 36.4 C 352.84 36.92 352.4 37.3 352.4 37.3 L 352.4 37.4 C 352.4 37.4 352.74 37.34 353.4 37.3 C 353.4 37.3 356.6 37.3 356.6 37.3 C 356.9 37.3 357.1 37.2 357.1 36.9 C 357.08 36.9 357.1 36.2 357.1 36.2 L 358.8 36.2 C 358.8 36.2 358.84 37.72 358.8 37.7 C 358.8 38.6 358.5 39 357.6 39 C 357.56 39 349.9 39 349.9 39 L 349.9 37.9 Z M 366.2 32.7 C 366.16 32.7 366.6 32.7 366.6 32.7 C 366.6 32.7 366.6 32.6 366.6 32.6 C 366.6 30.8 365.9 30.2 364.4 30.2 C 363.9 30.2 362.7 30.3 362.7 31 C 362.7 30.96 362.7 31.5 362.7 31.5 L 360.9 31.5 C 360.9 31.5 360.88 30.54 360.9 30.5 C 360.9 28.9 363.4 28.6 364.4 28.6 C 367.7 28.6 368.5 30.4 368.5 32.6 C 368.5 32.6 368.5 36.9 368.5 36.9 C 368.5 37.2 368.7 37.3 369 37.3 C 368.98 37.34 369.8 37.3 369.8 37.3 L 369.8 39 C 369.8 39 367.98 39 368 39 C 367.1 39 366.7 38.6 366.7 37.8 C 366.72 37.5 366.8 37.2 366.8 37.2 L 366.7 37.2 C 366.7 37.2 365.92 39.24 363.5 39.2 C 361.8 39.2 360.1 38.2 360.1 36.2 C 360.1 32.9 364.5 32.7 366.2 32.7 Z M 363.9 37.7 C 365.6 37.7 366.6 36 366.6 34.5 C 366.62 34.46 366.6 34.1 366.6 34.1 C 366.6 34.1 366.12 34.12 366.1 34.1 C 364.7 34.1 362 34.2 362 36.1 C 362 36.9 362.6 37.7 363.9 37.7 Z M 365.3 24.9 L 367.3 24.9 L 365.4 27.4 L 363.8 27.4 L 365.3 24.9 Z M 371.9 31 C 371.9 30.7 371.7 30.5 371.5 30.5 C 371.46 30.54 370.6 30.5 370.6 30.5 L 370.6 28.9 C 370.6 28.9 372.48 28.88 372.5 28.9 C 373.4 28.9 373.8 29.2 373.8 30.1 C 373.8 30.1 373.8 30.7 373.8 30.7 C 373.78 31.1 373.7 31.4 373.7 31.4 C 373.7 31.4 373.78 31.4 373.8 31.4 C 374.3 29.9 375.4 28.8 377 28.8 C 377.24 28.76 377.5 28.8 377.5 28.8 L 377.5 30.7 C 377.5 30.7 377.24 30.66 376.9 30.7 C 375.7 30.7 374.5 31.5 374.1 33 C 373.9 33.6 373.8 34.2 373.8 34.9 C 373.84 34.86 373.8 39 373.8 39 L 371.9 39 C 371.9 39 371.9 30.98 371.9 31 Z M 383.7 28.6 C 386.7 28.6 389.2 30.9 389.2 33.9 C 389.2 37 386.7 39.2 383.7 39.2 C 380.7 39.2 378.3 37 378.3 33.9 C 378.3 30.9 380.7 28.6 383.7 28.6 Z M 383.7 37.6 C 385.6 37.6 387.2 36 387.2 33.9 C 387.2 31.8 385.6 30.3 383.7 30.3 C 381.8 30.3 380.2 31.8 380.2 33.9 C 380.2 36 381.8 37.6 383.7 37.6 Z M 390.8 30.9 C 390.6 30.6 390.5 30.5 390.1 30.5 C 390.14 30.54 389.9 30.5 389.9 30.5 L 389.9 28.9 C 389.9 28.9 390.94 28.88 390.9 28.9 C 391.8 28.9 392.2 29.1 392.5 29.9 C 392.5 29.9 394.7 35.7 394.7 35.7 C 394.86 36.28 395 37 395 37 L 395.1 37 C 395.1 37 395.22 36.28 395.4 35.7 C 395.4 35.7 397.6 29.9 397.6 29.9 C 397.9 29.1 398.2 28.9 399.1 28.9 C 399.12 28.88 400.1 28.9 400.1 28.9 L 400.1 30.5 C 400.1 30.5 399.86 30.54 399.9 30.5 C 399.5 30.5 399.3 30.6 399.2 30.9 C 399.2 30.94 396.1 39 396.1 39 L 393.9 39 C 393.9 39 390.76 30.94 390.8 30.9 Z M 405.9 28.6 C 408.8 28.6 410.3 30.8 410.3 33.4 C 410.28 33.64 410.2 34.2 410.2 34.2 C 410.2 34.2 402.84 34.18 402.8 34.2 C 403 36.3 404.5 37.6 406.3 37.6 C 408.06 37.56 409.3 36.4 409.3 36.4 L 410.1 37.8 C 410.1 37.8 408.62 39.24 406.2 39.2 C 403 39.2 400.8 36.9 400.8 33.9 C 400.8 30.7 403 28.6 405.9 28.6 Z M 408.3 32.8 C 408.2 31.1 407.2 30.2 405.9 30.2 C 404.4 30.2 403.2 31.1 402.9 32.8 C 402.9 32.8 408.3 32.8 408.3 32.8 Z M 412.9 31 C 412.9 30.7 412.7 30.5 412.4 30.5 C 412.42 30.54 411.6 30.5 411.6 30.5 L 411.6 28.9 C 411.6 28.9 413.46 28.88 413.5 28.9 C 414.3 28.9 414.7 29.3 414.7 30 C 414.7 30 414.7 30.4 414.7 30.4 C 414.74 30.7 414.7 31 414.7 31 C 414.7 31 414.74 30.96 414.7 31 C 415.1 30.1 416.3 28.6 418.5 28.6 C 420.9 28.6 422 29.9 422 32.5 C 422 32.5 422 36.9 422 36.9 C 422 37.2 422.2 37.3 422.5 37.3 C 422.46 37.34 423.3 37.3 423.3 37.3 L 423.3 39 C 423.3 39 421.36 39 421.4 39 C 420.5 39 420.1 38.6 420.1 37.7 C 420.1 37.7 420.1 33 420.1 33 C 420.1 31.5 419.8 30.4 418.2 30.4 C 416.6 30.4 415.4 31.4 415 32.9 C 414.8 33.3 414.8 33.8 414.8 34.3 C 414.8 34.26 414.8 39 414.8 39 L 412.9 39 C 412.9 39 412.86 30.98 412.9 31 Z M 415 24.9 L 416.5 24.9 L 417.6 26.5 L 417.6 26.5 L 418.7 24.9 L 420.3 24.9 L 418.5 27.4 L 416.7 27.4 L 415 24.9 Z M 430.8 31 C 430.8 30.7 430.6 30.5 430.3 30.5 C 430.32 30.54 429.5 30.5 429.5 30.5 L 429.5 28.9 C 429.5 28.9 431.36 28.88 431.4 28.9 C 432.2 28.9 432.6 29.3 432.6 30 C 432.6 30 432.6 30.4 432.6 30.4 C 432.64 30.7 432.6 31 432.6 31 C 432.6 31 432.64 30.96 432.6 31 C 433 30.1 434.2 28.6 436.4 28.6 C 438.8 28.6 439.9 29.9 439.9 32.5 C 439.9 32.5 439.9 36.9 439.9 36.9 C 439.9 37.2 440.1 37.3 440.4 37.3 C 440.36 37.34 441.2 37.3 441.2 37.3 L 441.2 39 C 441.2 39 439.26 39 439.3 39 C 438.4 39 438 38.6 438 37.7 C 438 37.7 438 33 438 33 C 438 31.5 437.7 30.4 436.1 30.4 C 434.5 30.4 433.3 31.4 432.9 32.9 C 432.7 33.3 432.7 33.8 432.7 34.3 C 432.7 34.26 432.7 39 432.7 39 L 430.8 39 C 430.8 39 430.76 30.98 430.8 31 Z M 447.4 28.6 C 450.2 28.6 451.7 30.8 451.7 33.4 C 451.74 33.64 451.7 34.2 451.7 34.2 C 451.7 34.2 444.3 34.18 444.3 34.2 C 444.4 36.3 446 37.6 447.8 37.6 C 449.52 37.56 450.7 36.4 450.7 36.4 L 451.6 37.8 C 451.6 37.8 450.08 39.24 447.7 39.2 C 444.5 39.2 442.3 36.9 442.3 33.9 C 442.3 30.7 444.5 28.6 447.4 28.6 Z M 449.7 32.8 C 449.7 31.1 448.6 30.2 447.4 30.2 C 445.9 30.2 444.7 31.1 444.4 32.8 C 444.4 32.8 449.7 32.8 449.7 32.8 Z M 454.5 24.9 L 456.2 24.9 L 456.2 26.9 L 454.5 26.9 L 454.5 24.9 Z M 454.4 31 C 454.4 30.7 454.3 30.5 454 30.5 C 453.97 30.54 453.2 30.5 453.2 30.5 L 453.2 28.9 C 453.2 28.9 455.05 28.88 455.1 28.9 C 456 28.9 456.3 29.3 456.3 30.2 C 456.3 30.2 456.3 36.9 456.3 36.9 C 456.3 37.2 456.5 37.3 456.8 37.3 C 456.77 37.34 457.6 37.3 457.6 37.3 L 457.6 39 C 457.6 39 455.69 39 455.7 39 C 454.8 39 454.4 38.6 454.4 37.7 C 454.4 37.7 454.4 31 454.4 31 Z M 459.8 31 C 459.8 30.7 459.7 30.5 459.4 30.5 C 459.37 30.54 458.6 30.5 458.6 30.5 L 458.6 28.9 C 458.6 28.9 460.41 28.88 460.4 28.9 C 461.3 28.9 461.7 29.3 461.7 30 C 461.7 30 461.7 30.4 461.7 30.4 C 461.69 30.7 461.7 31 461.7 31 C 461.7 31 461.69 30.96 461.7 31 C 462.1 30.1 463.3 28.6 465.5 28.6 C 467.9 28.6 469 29.9 469 32.5 C 469 32.5 469 36.9 469 36.9 C 469 37.2 469.1 37.3 469.4 37.3 C 469.41 37.34 470.2 37.3 470.2 37.3 L 470.2 39 C 470.2 39 468.31 39 468.3 39 C 467.4 39 467 38.6 467 37.7 C 467 37.7 467 33 467 33 C 467 31.5 466.8 30.4 465.1 30.4 C 463.6 30.4 462.3 31.4 461.9 32.9 C 461.8 33.3 461.8 33.8 461.8 34.3 C 461.75 34.26 461.8 39 461.8 39 L 459.8 39 C 459.8 39 459.81 30.98 459.8 31 Z M 472.4 30.4 L 471.1 30.4 L 471.1 28.9 L 472.5 28.9 L 472.5 26.1 L 474.4 26.1 L 474.4 28.9 L 476.8 28.9 L 476.8 30.4 L 474.4 30.4 C 474.4 30.4 474.35 35.08 474.4 35.1 C 474.4 37.1 475.8 37.4 476.5 37.4 C 476.77 37.36 477 37.3 477 37.3 L 477 39 C 477 39 476.69 39.08 476.3 39.1 C 475 39.1 472.4 38.7 472.4 35.3 C 472.41 35.3 472.4 30.4 472.4 30.4 Z M 483.3 28.6 C 486.1 28.6 487.7 30.8 487.7 33.4 C 487.65 33.64 487.6 34.2 487.6 34.2 C 487.6 34.2 480.21 34.18 480.2 34.2 C 480.3 36.3 481.9 37.6 483.7 37.6 C 485.43 37.56 486.7 36.4 486.7 36.4 L 487.5 37.8 C 487.5 37.8 485.99 39.24 483.6 39.2 C 480.4 39.2 478.2 36.9 478.2 33.9 C 478.2 30.7 480.4 28.6 483.3 28.6 Z M 485.7 32.8 C 485.6 31.1 484.5 30.2 483.3 30.2 C 481.8 30.2 480.6 31.1 480.3 32.8 C 480.3 32.8 485.7 32.8 485.7 32.8 Z M 490.2 31 C 490.2 30.7 490.1 30.5 489.8 30.5 C 489.79 30.54 489 30.5 489 30.5 L 489 28.9 C 489 28.9 490.81 28.88 490.8 28.9 C 491.7 28.9 492.1 29.2 492.1 30.1 C 492.1 30.1 492.1 30.7 492.1 30.7 C 492.11 31.1 492.1 31.4 492.1 31.4 C 492.1 31.4 492.11 31.4 492.1 31.4 C 492.6 29.9 493.8 28.8 495.3 28.8 C 495.57 28.76 495.8 28.8 495.8 28.8 L 495.8 30.7 C 495.8 30.7 495.57 30.66 495.3 30.7 C 494 30.7 492.9 31.5 492.4 33 C 492.2 33.6 492.2 34.2 492.2 34.9 C 492.17 34.86 492.2 39 492.2 39 L 490.2 39 C 490.2 39 490.23 30.98 490.2 31 Z M 502.5 32.7 C 502.49 32.7 502.9 32.7 502.9 32.7 C 502.9 32.7 502.93 32.6 502.9 32.6 C 502.9 30.8 502.3 30.2 500.7 30.2 C 500.2 30.2 499 30.3 499 31 C 499.03 30.96 499 31.5 499 31.5 L 497.2 31.5 C 497.2 31.5 497.21 30.54 497.2 30.5 C 497.2 28.9 499.7 28.6 500.7 28.6 C 504 28.6 504.9 30.4 504.9 32.6 C 504.9 32.6 504.9 36.9 504.9 36.9 C 504.9 37.2 505 37.3 505.3 37.3 C 505.31 37.34 506.1 37.3 506.1 37.3 L 506.1 39 C 506.1 39 504.31 39 504.3 39 C 503.4 39 503.1 38.6 503.1 37.8 C 503.05 37.5 503.1 37.2 503.1 37.2 L 503.1 37.2 C 503.1 37.2 502.25 39.24 499.8 39.2 C 498.1 39.2 496.4 38.2 496.4 36.2 C 496.4 32.9 500.8 32.7 502.5 32.7 Z M 500.3 37.7 C 501.9 37.7 503 36 503 34.5 C 502.95 34.46 503 34.1 503 34.1 C 503 34.1 502.45 34.12 502.5 34.1 C 501 34.1 498.4 34.2 498.4 36.1 C 498.4 36.9 499 37.7 500.3 37.7 Z M 511.7 28.6 C 514.23 28.64 515 30.2 515 30.2 L 515 30.2 C 515 30.2 514.99 30.06 515 29.9 C 515 29.3 515.3 28.9 516.1 28.9 C 516.11 28.88 518 28.9 518 28.9 L 518 30.5 C 518 30.5 517.19 30.54 517.2 30.5 C 516.9 30.5 516.8 30.7 516.8 30.9 C 516.8 30.9 516.8 38.6 516.8 38.6 C 516.8 41.9 514.2 43.2 511.7 43.2 C 510.4 43.2 509.2 42.9 508.2 42.4 C 508.19 42.36 508.9 40.8 508.9 40.8 C 508.9 40.8 510.09 41.48 511.6 41.5 C 513.4 41.5 514.8 40.7 514.8 38.7 C 514.8 38.7 514.8 38 514.8 38 C 514.81 37.66 514.9 37.3 514.9 37.3 C 514.9 37.3 514.81 37.34 514.8 37.3 C 514.2 38.3 513.3 38.9 511.8 38.9 C 509 38.9 507.3 36.6 507.3 33.7 C 507.3 30.8 508.9 28.6 511.7 28.6 Z M 514.9 33.7 C 514.9 31.1 513.6 30.3 512 30.3 C 510.3 30.3 509.3 31.6 509.3 33.7 C 509.3 35.8 510.4 37.2 512.2 37.2 C 513.6 37.2 514.9 36.4 514.9 33.7 Z M 520.1 31 C 520.1 30.7 519.9 30.5 519.7 30.5 C 519.65 30.54 518.8 30.5 518.8 30.5 L 518.8 28.9 C 518.8 28.9 520.73 28.88 520.7 28.9 C 521.7 28.9 522 29.3 522 30.1 C 522 30.1 522 34.9 522 34.9 C 522 36.3 522.3 37.4 523.9 37.4 C 526 37.4 527.2 35.6 527.2 33.6 C 527.21 33.62 527.2 28.9 527.2 28.9 L 529.2 28.9 C 529.2 28.9 529.15 36.9 529.2 36.9 C 529.2 37.2 529.3 37.3 529.6 37.3 C 529.59 37.34 530.4 37.3 530.4 37.3 L 530.4 39 C 530.4 39 528.55 39 528.6 39 C 527.7 39 527.3 38.6 527.3 37.9 C 527.3 37.9 527.3 37.5 527.3 37.5 C 527.27 37.18 527.3 36.9 527.3 36.9 C 527.3 36.9 527.25 36.92 527.3 36.9 C 526.8 37.9 525.5 39.2 523.5 39.2 C 521.3 39.2 520.1 38 520.1 35.4 C 520.1 35.4 520.1 31 520.1 31 Z M 533.1 24.9 L 534.9 24.9 L 534.9 26.9 L 533.1 26.9 L 533.1 24.9 Z M 530.9 41.4 C 531.6 41.4 533.1 41.2 533.1 39.2 C 533.1 39.2 533.1 31 533.1 31 C 533.1 30.7 532.9 30.5 532.6 30.5 C 532.61 30.54 531.8 30.5 531.8 30.5 L 531.8 28.9 C 531.8 28.9 533.71 28.88 533.7 28.9 C 534.6 28.9 535 29.3 535 30.2 C 535 30.2 535 39.3 535 39.3 C 535 42.7 532.4 43.1 531.1 43.1 C 530.71 43.12 530.5 43.1 530.5 43.1 L 530.5 41.4 C 530.5 41.4 530.63 41.44 530.9 41.4 Z M 542.4 28.6 C 545.2 28.6 546.7 30.8 546.7 33.4 C 546.73 33.64 546.7 34.2 546.7 34.2 C 546.7 34.2 539.29 34.18 539.3 34.2 C 539.4 36.3 541 37.6 542.8 37.6 C 544.51 37.56 545.7 36.4 545.7 36.4 L 546.6 37.8 C 546.6 37.8 545.07 39.24 542.7 39.2 C 539.5 39.2 537.3 36.9 537.3 33.9 C 537.3 30.7 539.5 28.6 542.4 28.6 Z M 544.7 32.8 C 544.7 31.1 543.6 30.2 542.4 30.2 C 540.9 30.2 539.7 31.1 539.4 32.8 C 539.4 32.8 544.7 32.8 544.7 32.8 Z M 554.5 36.2 C 554.5 36.2 555.73 37.66 557.6 37.7 C 558.5 37.7 559.4 37.2 559.4 36.4 C 559.4 34.5 553.8 34.7 553.8 31.5 C 553.8 29.5 555.5 28.6 557.6 28.6 C 558.8 28.6 560.9 29.1 560.9 30.6 C 560.91 30.6 560.9 31.6 560.9 31.6 L 559.2 31.6 C 559.2 31.6 559.17 31.06 559.2 31.1 C 559.2 30.5 558.3 30.2 557.7 30.2 C 556.5 30.2 555.8 30.6 555.8 31.4 C 555.8 33.3 561.3 32.9 561.3 36.3 C 561.3 38.1 559.7 39.2 557.6 39.2 C 554.87 39.24 553.5 37.5 553.5 37.5 L 554.5 36.2 Z M 569.3 24.9 L 571 24.9 L 571 26.9 L 569.3 26.9 L 569.3 24.9 Z M 569.3 31 C 569.3 30.7 569.1 30.5 568.8 30.5 C 568.81 30.54 568 30.5 568 30.5 L 568 28.9 C 568 28.9 569.89 28.88 569.9 28.9 C 570.8 28.9 571.2 29.3 571.2 30.2 C 571.2 30.2 571.2 36.9 571.2 36.9 C 571.2 37.2 571.3 37.3 571.6 37.3 C 571.61 37.34 572.4 37.3 572.4 37.3 L 572.4 39 C 572.4 39 570.53 39 570.5 39 C 569.6 39 569.3 38.6 569.3 37.7 C 569.3 37.7 569.3 31 569.3 31 Z M 574.7 31 C 574.7 30.7 574.5 30.5 574.2 30.5 C 574.21 30.54 573.4 30.5 573.4 30.5 L 573.4 28.9 C 573.4 28.9 575.25 28.88 575.3 28.9 C 576.1 28.9 576.5 29.3 576.5 30 C 576.5 30 576.5 30.4 576.5 30.4 C 576.53 30.7 576.5 31 576.5 31 C 576.5 31 576.53 30.96 576.5 31 C 576.9 30.1 578.1 28.6 580.3 28.6 C 582.7 28.6 583.8 29.9 583.8 32.5 C 583.8 32.5 583.8 36.9 583.8 36.9 C 583.8 37.2 584 37.3 584.3 37.3 C 584.25 37.34 585.1 37.3 585.1 37.3 L 585.1 39 C 585.1 39 583.15 39 583.2 39 C 582.3 39 581.9 38.6 581.9 37.7 C 581.9 37.7 581.9 33 581.9 33 C 581.9 31.5 581.6 30.4 580 30.4 C 578.4 30.4 577.2 31.4 576.8 32.9 C 576.6 33.3 576.6 33.8 576.6 34.3 C 576.59 34.26 576.6 39 576.6 39 L 574.7 39 C 574.7 39 574.65 30.98 574.7 31 Z M 587.6 41.5 C 588.4 41.5 589 41 589.4 40.1 C 589.41 40.06 589.9 39 589.9 39 C 589.9 39 586.41 30.94 586.4 30.9 C 586.3 30.6 586.1 30.5 585.8 30.5 C 585.77 30.54 585.5 30.5 585.5 30.5 L 585.5 28.9 C 585.5 28.9 586.67 28.88 586.7 28.9 C 587.5 28.9 587.8 29.1 588.1 29.9 C 588.1 29.9 590.4 35.6 590.4 35.6 C 590.61 36.12 590.8 36.8 590.8 36.8 L 590.8 36.8 C 590.8 36.8 590.95 36.12 591.2 35.6 C 591.2 35.6 593.3 29.9 593.3 29.9 C 593.6 29.1 593.9 28.9 594.7 28.9 C 594.73 28.88 595.9 28.9 595.9 28.9 L 595.9 30.5 C 595.9 30.5 595.63 30.54 595.6 30.5 C 595.3 30.5 595.1 30.6 595 30.9 C 595 30.9 591 40.8 591 40.8 C 590.4 42.4 589.2 43.2 587.7 43.2 C 586.23 43.2 585.4 42.2 585.4 42.2 C 585.4 42.2 586.15 40.8 586.2 40.8 C 586.2 40.8 586.8 41.5 587.6 41.5 Z M 591.4 24.9 L 593.4 24.9 L 591.5 27.4 L 589.9 27.4 L 591.4 24.9 Z M 597.9 31 C 597.9 30.7 597.7 30.5 597.4 30.5 C 597.43 30.54 596.6 30.5 596.6 30.5 L 596.6 28.9 C 596.6 28.9 598.47 28.88 598.5 28.9 C 599.4 28.9 599.8 29.3 599.8 30 C 599.8 30 599.8 30.4 599.8 30.4 C 599.75 30.7 599.7 31 599.7 31 C 599.7 31 599.77 30.96 599.8 31 C 600.3 29.8 601.7 28.6 603.2 28.6 C 605 28.6 605.9 29.4 606.3 30.9 C 606.3 30.9 606.3 30.9 606.3 30.9 C 606.9 29.7 608.3 28.6 609.9 28.6 C 612.2 28.6 613.3 29.9 613.3 32.5 C 613.3 32.5 613.3 36.9 613.3 36.9 C 613.3 37.2 613.4 37.3 613.7 37.3 C 613.69 37.34 614.5 37.3 614.5 37.3 L 614.5 39 C 614.5 39 612.59 39 612.6 39 C 611.7 39 611.3 38.6 611.3 37.7 C 611.3 37.7 611.3 32.9 611.3 32.9 C 611.3 31.5 611 30.4 609.5 30.4 C 608.1 30.4 607.1 31.6 606.7 33 C 606.6 33.4 606.5 33.9 606.5 34.4 C 606.53 34.38 606.5 39 606.5 39 L 604.6 39 C 604.6 39 604.59 32.94 604.6 32.9 C 604.6 31.6 604.4 30.4 602.9 30.4 C 601.4 30.4 600.3 31.6 600 33.1 C 599.9 33.5 599.8 33.9 599.8 34.4 C 599.81 34.38 599.8 39 599.8 39 L 597.9 39 C 597.9 39 597.87 30.98 597.9 31 Z M 616.8 24.9 L 618.5 24.9 L 618.5 26.9 L 616.8 26.9 L 616.8 24.9 Z M 616.7 31 C 616.7 30.7 616.6 30.5 616.3 30.5 C 616.27 30.54 615.5 30.5 615.5 30.5 L 615.5 28.9 C 615.5 28.9 617.35 28.88 617.4 28.9 C 618.3 28.9 618.6 29.3 618.6 30.2 C 618.6 30.2 618.6 36.9 618.6 36.9 C 618.6 37.2 618.8 37.3 619.1 37.3 C 619.07 37.34 619.9 37.3 619.9 37.3 L 619.9 39 C 619.9 39 617.99 39 618 39 C 617.1 39 616.7 38.6 616.7 37.7 C 616.7 37.7 616.7 31 616.7 31 Z M 627.5 27 C 627.5 26.7 627.3 26.5 627 26.5 C 627.01 26.54 626.2 26.5 626.2 26.5 L 626.2 24.9 C 626.2 24.9 628.11 24.88 628.1 24.9 C 629 24.9 629.4 25.3 629.4 26.2 C 629.4 26.2 629.4 36.9 629.4 36.9 C 629.4 37.2 629.6 37.3 629.8 37.3 C 629.83 37.34 630.7 37.3 630.7 37.3 L 630.7 39 C 630.7 39 628.73 39 628.7 39 C 627.8 39 627.5 38.6 627.5 37.7 C 627.5 37.7 627.5 27 627.5 27 Z M 633 24.9 L 634.7 24.9 L 634.7 26.9 L 633 26.9 L 633 24.9 Z M 633 31 C 633 30.7 632.8 30.5 632.5 30.5 C 632.51 30.54 631.7 30.5 631.7 30.5 L 631.7 28.9 C 631.7 28.9 633.59 28.88 633.6 28.9 C 634.5 28.9 634.9 29.3 634.9 30.2 C 634.9 30.2 634.9 36.9 634.9 36.9 C 634.9 37.2 635 37.3 635.3 37.3 C 635.31 37.34 636.1 37.3 636.1 37.3 L 636.1 39 C 636.1 39 634.23 39 634.2 39 C 633.3 39 633 38.6 633 37.7 C 633 37.7 633 31 633 31 Z M 642.5 28.6 C 645.3 28.6 646.8 30.8 646.8 33.4 C 646.81 33.64 646.8 34.2 646.8 34.2 C 646.8 34.2 639.37 34.18 639.4 34.2 C 639.5 36.3 641.1 37.6 642.9 37.6 C 644.59 37.56 645.8 36.4 645.8 36.4 L 646.7 37.8 C 646.7 37.8 645.15 39.24 642.8 39.2 C 639.6 39.2 637.4 36.9 637.4 33.9 C 637.4 30.7 639.6 28.6 642.5 28.6 Z M 644.8 32.8 C 644.8 31.1 643.7 30.2 642.4 30.2 C 641 30.2 639.8 31.1 639.5 32.8 C 639.5 32.8 644.8 32.8 644.8 32.8 Z M 649.3 27 C 649.3 26.7 649.2 26.5 648.9 26.5 C 648.87 26.54 648.1 26.5 648.1 26.5 L 648.1 24.9 C 648.1 24.9 649.97 24.88 650 24.9 C 650.9 24.9 651.3 25.1 651.3 26 C 651.25 26.04 651.3 32.6 651.3 32.6 C 651.3 32.6 652.15 32.6 652.2 32.6 C 652.5 32.6 653 32.5 653.2 32.2 C 653.21 32.16 655.6 28.9 655.6 28.9 L 657.8 28.9 C 657.8 28.9 655.03 32.64 655 32.6 C 654.57 33.26 654.3 33.4 654.3 33.4 L 654.3 33.4 C 654.3 33.4 654.61 33.56 655 34.2 C 655 34.2 656.5 36.9 656.5 36.9 C 656.6 37.3 656.8 37.3 657.3 37.3 C 657.31 37.34 657.9 37.3 657.9 37.3 L 657.9 39 C 657.9 39 656.53 39 656.5 39 C 655.6 39 655.3 38.8 654.9 38.1 C 654.9 38.1 653 34.7 653 34.7 C 652.8 34.3 652.3 34.2 652 34.2 C 652.01 34.24 651.3 34.2 651.3 34.2 L 651.3 39 L 649.3 39 C 649.3 39 649.31 26.98 649.3 27 Z M 659.9 31 C 659.9 30.7 659.7 30.5 659.5 30.5 C 659.45 30.54 658.6 30.5 658.6 30.5 L 658.6 28.9 C 658.6 28.9 660.49 28.88 660.5 28.9 C 661.4 28.9 661.8 29.3 661.8 30 C 661.8 30 661.8 30.4 661.8 30.4 C 661.77 30.7 661.8 31 661.8 31 C 661.8 31 661.79 30.96 661.8 31 C 662.3 29.8 663.7 28.6 665.3 28.6 C 667 28.6 668 29.4 668.3 30.9 C 668.3 30.9 668.3 30.9 668.3 30.9 C 668.9 29.7 670.3 28.6 671.9 28.6 C 674.2 28.6 675.3 29.9 675.3 32.5 C 675.3 32.5 675.3 36.9 675.3 36.9 C 675.3 37.2 675.4 37.3 675.7 37.3 C 675.71 37.34 676.5 37.3 676.5 37.3 L 676.5 39 C 676.5 39 674.61 39 674.6 39 C 673.7 39 673.3 38.6 673.3 37.7 C 673.3 37.7 673.3 32.9 673.3 32.9 C 673.3 31.5 673.1 30.4 671.6 30.4 C 670.2 30.4 669.1 31.6 668.7 33 C 668.6 33.4 668.6 33.9 668.6 34.4 C 668.55 34.38 668.6 39 668.6 39 L 666.6 39 C 666.6 39 666.61 32.94 666.6 32.9 C 666.6 31.6 666.4 30.4 664.9 30.4 C 663.4 30.4 662.4 31.6 662 33.1 C 661.9 33.5 661.8 33.9 661.8 34.4 C 661.83 34.38 661.8 39 661.8 39 L 659.9 39 C 659.9 39 659.89 30.98 659.9 31 Z M 678.8 24.9 L 680.5 24.9 L 680.5 26.9 L 678.8 26.9 L 678.8 24.9 Z M 678.7 31 C 678.7 30.7 678.6 30.5 678.3 30.5 C 678.29 30.54 677.5 30.5 677.5 30.5 L 677.5 28.9 C 677.5 28.9 679.37 28.88 679.4 28.9 C 680.3 28.9 680.7 29.3 680.7 30.2 C 680.7 30.2 680.7 36.9 680.7 36.9 C 680.7 37.2 680.8 37.3 681.1 37.3 C 681.09 37.34 681.9 37.3 681.9 37.3 L 681.9 39 C 681.9 39 680.01 39 680 39 C 679.1 39 678.7 38.6 678.7 37.7 C 678.7 37.7 678.7 31 678.7 31 Z M 686.1 36.9 L 684.4 41 L 682.9 41 L 684.1 36.9 L 686.1 36.9 Z M 698.8 28.6 C 700 28.6 702.4 29.1 702.4 30.9 C 702.41 30.86 702.4 31.9 702.4 31.9 L 700.7 31.9 C 700.7 31.9 700.65 31.34 700.7 31.3 C 700.7 30.6 699.5 30.3 698.8 30.3 C 696.8 30.3 695.3 31.8 695.3 33.9 C 695.3 36.2 697 37.5 698.9 37.5 C 700.77 37.52 702 36.1 702 36.1 L 702.9 37.5 C 702.9 37.5 701.41 39.24 698.7 39.2 C 695.6 39.2 693.3 37 693.3 33.9 C 693.3 31 695.5 28.6 698.8 28.6 Z M 695.8 24.9 L 697.4 24.9 L 698.4 26.5 L 698.5 26.5 L 699.5 24.9 L 701.1 24.9 L 699.3 27.4 L 697.6 27.4 L 695.8 24.9 Z M 709.4 28.6 C 712.5 28.6 714.9 30.9 714.9 33.9 C 714.9 37 712.5 39.2 709.4 39.2 C 706.4 39.2 704 37 704 33.9 C 704 30.9 706.4 28.6 709.4 28.6 Z M 709.4 37.6 C 711.4 37.6 712.9 36 712.9 33.9 C 712.9 31.8 711.4 30.3 709.4 30.3 C 707.5 30.3 706 31.8 706 33.9 C 706 36 707.5 37.6 709.4 37.6 Z " stroke="none" fill="#ee3078"/>  </g>  <g id="Polygon74902">    <path d="M 2.1 2.6 L 0.8 2.6 L 0.8 0.9 C 0.8 0.9 9.06 0.88 9.1 0.9 C 10 0.9 10.3 1.3 10.3 2.2 C 10.34 2.16 10.3 3.9 10.3 3.9 L 8.5 3.9 C 8.5 3.9 8.52 3.04 8.5 3 C 8.5 2.7 8.4 2.6 8.1 2.6 C 8.08 2.6 4.1 2.6 4.1 2.6 L 4.1 7 L 9 7 L 9 8.7 L 4.1 8.7 C 4.1 8.7 4.06 12.84 4.1 12.8 C 4.1 13.1 4.2 13.3 4.5 13.3 C 4.5 13.3 8.6 13.3 8.6 13.3 C 8.9 13.3 9.1 13.1 9.1 12.8 C 9.06 12.84 9.1 11.9 9.1 11.9 L 10.9 11.9 C 10.9 11.9 10.9 13.72 10.9 13.7 C 10.9 14.6 10.5 15 9.6 15 C 9.6 15 3.3 15 3.3 15 C 2.4 15 2.1 14.6 2.1 13.7 C 2.06 13.72 2.1 2.6 2.1 2.6 Z M 12.9 12.2 C 12.9 12.2 14.1 13.66 16 13.7 C 16.9 13.7 17.7 13.2 17.7 12.4 C 17.7 10.5 12.2 10.7 12.2 7.5 C 12.2 5.5 13.9 4.6 16 4.6 C 17.2 4.6 19.3 5.1 19.3 6.6 C 19.28 6.6 19.3 7.6 19.3 7.6 L 17.5 7.6 C 17.5 7.6 17.54 7.06 17.5 7.1 C 17.5 6.5 16.6 6.2 16 6.2 C 14.9 6.2 14.1 6.6 14.1 7.4 C 14.1 9.3 19.7 8.9 19.7 12.3 C 19.7 14.1 18.1 15.2 15.9 15.2 C 13.24 15.24 11.9 13.5 11.9 13.5 L 12.9 12.2 Z M 22.2 6.4 L 20.9 6.4 L 20.9 4.9 L 22.3 4.9 L 22.3 2.1 L 24.2 2.1 L 24.2 4.9 L 26.6 4.9 L 26.6 6.4 L 24.2 6.4 C 24.2 6.4 24.16 11.08 24.2 11.1 C 24.2 13.1 25.6 13.4 26.3 13.4 C 26.58 13.36 26.8 13.3 26.8 13.3 L 26.8 15 C 26.8 15 26.5 15.08 26.1 15.1 C 24.8 15.1 22.2 14.7 22.2 11.3 C 22.22 11.3 22.2 6.4 22.2 6.4 Z M 33.1 4.6 C 35.9 4.6 37.5 6.8 37.5 9.4 C 37.46 9.64 37.4 10.2 37.4 10.2 C 37.4 10.2 30.02 10.18 30 10.2 C 30.1 12.3 31.7 13.6 33.5 13.6 C 35.24 13.56 36.5 12.4 36.5 12.4 L 37.3 13.8 C 37.3 13.8 35.8 15.24 33.4 15.2 C 30.2 15.2 28 12.9 28 9.9 C 28 6.7 30.2 4.6 33.1 4.6 Z M 35.5 8.8 C 35.4 7.1 34.3 6.2 33.1 6.2 C 31.6 6.2 30.4 7.1 30.1 8.8 C 30.1 8.8 35.5 8.8 35.5 8.8 Z M 40.1 6.4 L 38.8 6.4 L 38.8 4.9 L 40.2 4.9 L 40.2 2.1 L 42.1 2.1 L 42.1 4.9 L 44.5 4.9 L 44.5 6.4 L 42.1 6.4 C 42.1 6.4 42.06 11.08 42.1 11.1 C 42.1 13.1 43.5 13.4 44.2 13.4 C 44.48 13.36 44.7 13.3 44.7 13.3 L 44.7 15 C 44.7 15 44.4 15.08 44 15.1 C 42.7 15.1 40.1 14.7 40.1 11.3 C 40.12 11.3 40.1 6.4 40.1 6.4 Z M 47.1 7 C 47.1 6.7 46.9 6.5 46.6 6.5 C 46.64 6.54 45.8 6.5 45.8 6.5 L 45.8 4.9 C 45.8 4.9 47.66 4.88 47.7 4.9 C 48.5 4.9 49 5.2 49 6.1 C 49 6.1 49 6.7 49 6.7 C 48.96 7.1 48.9 7.4 48.9 7.4 C 48.9 7.4 48.96 7.4 49 7.4 C 49.4 5.9 50.6 4.8 52.2 4.8 C 52.42 4.76 52.7 4.8 52.7 4.8 L 52.7 6.7 C 52.7 6.7 52.42 6.66 52.1 6.7 C 50.9 6.7 49.7 7.5 49.3 9 C 49.1 9.6 49 10.2 49 10.9 C 49.02 10.86 49 15 49 15 L 47.1 15 C 47.1 15 47.08 6.98 47.1 7 Z M 58.9 4.6 C 61.9 4.6 64.3 6.9 64.3 9.9 C 64.3 13 61.9 15.2 58.9 15.2 C 55.9 15.2 53.4 13 53.4 9.9 C 53.4 6.9 55.9 4.6 58.9 4.6 Z M 58.9 13.6 C 60.8 13.6 62.4 12 62.4 9.9 C 62.4 7.8 60.8 6.3 58.9 6.3 C 57 6.3 55.4 7.8 55.4 9.9 C 55.4 12 57 13.6 58.9 13.6 Z M 66.5 3 C 66.5 2.7 66.4 2.5 66.1 2.5 C 66.1 2.54 65.3 2.5 65.3 2.5 L 65.3 0.9 C 65.3 0.9 67.2 0.88 67.2 0.9 C 68.1 0.9 68.5 1.3 68.5 2.2 C 68.5 2.2 68.5 12.9 68.5 12.9 C 68.5 13.2 68.6 13.3 68.9 13.3 C 68.92 13.34 69.7 13.3 69.7 13.3 L 69.7 15 C 69.7 15 67.82 15 67.8 15 C 66.9 15 66.5 14.6 66.5 13.7 C 66.5 13.7 66.5 3 66.5 3 Z M 77.9 0.9 L 79.6 0.9 L 79.6 2.9 L 77.9 2.9 L 77.9 0.9 Z M 75.7 17.4 C 76.4 17.4 77.8 17.2 77.8 15.2 C 77.8 15.2 77.8 7 77.8 7 C 77.8 6.7 77.7 6.5 77.4 6.5 C 77.38 6.54 76.6 6.5 76.6 6.5 L 76.6 4.9 C 76.6 4.9 78.48 4.88 78.5 4.9 C 79.4 4.9 79.8 5.3 79.8 6.2 C 79.8 6.2 79.8 15.3 79.8 15.3 C 79.8 18.7 77.2 19.1 75.9 19.1 C 75.48 19.12 75.2 19.1 75.2 19.1 L 75.2 17.4 C 75.2 17.4 75.4 17.44 75.7 17.4 Z M 87.1 4.6 C 90 4.6 91.5 6.8 91.5 9.4 C 91.5 9.64 91.4 10.2 91.4 10.2 C 91.4 10.2 84.06 10.18 84.1 10.2 C 84.2 12.3 85.7 13.6 87.5 13.6 C 89.28 13.56 90.5 12.4 90.5 12.4 L 91.3 13.8 C 91.3 13.8 89.84 15.24 87.4 15.2 C 84.2 15.2 82.1 12.9 82.1 9.9 C 82.1 6.7 84.3 4.6 87.1 4.6 Z M 89.5 8.8 C 89.4 7.1 88.4 6.2 87.1 6.2 C 85.6 6.2 84.4 7.1 84.1 8.8 C 84.1 8.8 89.5 8.8 89.5 8.8 Z M 99.3 12.2 C 99.3 12.2 100.5 13.66 102.4 13.7 C 103.3 13.7 104.1 13.2 104.1 12.4 C 104.1 10.5 98.6 10.7 98.6 7.5 C 98.6 5.5 100.3 4.6 102.4 4.6 C 103.6 4.6 105.7 5.1 105.7 6.6 C 105.68 6.6 105.7 7.6 105.7 7.6 L 103.9 7.6 C 103.9 7.6 103.94 7.06 103.9 7.1 C 103.9 6.5 103 6.2 102.4 6.2 C 101.3 6.2 100.5 6.6 100.5 7.4 C 100.5 9.3 106.1 8.9 106.1 12.3 C 106.1 14.1 104.5 15.2 102.3 15.2 C 99.64 15.24 98.3 13.5 98.3 13.5 L 99.3 12.2 Z M 99.6 0.9 L 101.2 0.9 L 102.2 2.5 L 102.3 2.5 L 103.3 0.9 L 104.9 0.9 L 103.2 3.4 L 101.4 3.4 L 99.6 0.9 Z M 112.6 4.6 C 115.5 4.6 117 6.8 117 9.4 C 117 9.64 116.9 10.2 116.9 10.2 C 116.9 10.2 109.56 10.18 109.6 10.2 C 109.7 12.3 111.2 13.6 113 13.6 C 114.78 13.56 116 12.4 116 12.4 L 116.8 13.8 C 116.8 13.8 115.34 15.24 112.9 15.2 C 109.7 15.2 107.6 12.9 107.6 9.9 C 107.6 6.7 109.8 4.6 112.6 4.6 Z M 115 8.8 C 114.9 7.1 113.9 6.2 112.6 6.2 C 111.1 6.2 109.9 7.1 109.6 8.8 C 109.6 8.8 115 8.8 115 8.8 Z M 119.7 6.4 L 118.3 6.4 L 118.3 4.9 L 119.7 4.9 L 119.7 2.1 L 121.6 2.1 L 121.6 4.9 L 124 4.9 L 124 6.4 L 121.6 6.4 C 121.6 6.4 121.6 11.08 121.6 11.1 C 121.6 13.1 123 13.4 123.7 13.4 C 124.02 13.36 124.2 13.3 124.2 13.3 L 124.2 15 C 124.2 15 123.94 15.08 123.5 15.1 C 122.2 15.1 119.7 14.7 119.7 11.3 C 119.66 11.3 119.7 6.4 119.7 6.4 Z M 126.6 7 C 126.6 6.7 126.5 6.5 126.2 6.5 C 126.18 6.54 125.4 6.5 125.4 6.5 L 125.4 4.9 C 125.4 4.9 127.2 4.88 127.2 4.9 C 128.1 4.9 128.5 5.2 128.5 6.1 C 128.5 6.1 128.5 6.7 128.5 6.7 C 128.5 7.1 128.5 7.4 128.5 7.4 C 128.5 7.4 128.5 7.4 128.5 7.4 C 129 5.9 130.1 4.8 131.7 4.8 C 131.96 4.76 132.2 4.8 132.2 4.8 L 132.2 6.7 C 132.2 6.7 131.96 6.66 131.6 6.7 C 130.4 6.7 129.3 7.5 128.8 9 C 128.6 9.6 128.6 10.2 128.6 10.9 C 128.56 10.86 128.6 15 128.6 15 L 126.6 15 C 126.6 15 126.62 6.98 126.6 7 Z M 134.5 7 C 134.5 6.7 134.3 6.5 134.1 6.5 C 134.06 6.54 133.2 6.5 133.2 6.5 L 133.2 4.9 C 133.2 4.9 135.1 4.88 135.1 4.9 C 136 4.9 136.4 5.3 136.4 6 C 136.4 6 136.4 6.4 136.4 6.4 C 136.38 6.7 136.3 7 136.3 7 C 136.3 7 136.38 6.96 136.4 7 C 136.8 6.1 138 4.6 140.2 4.6 C 142.6 4.6 143.7 5.9 143.7 8.5 C 143.7 8.5 143.7 12.9 143.7 12.9 C 143.7 13.2 143.8 13.3 144.1 13.3 C 144.1 13.34 144.9 13.3 144.9 13.3 L 144.9 15 C 144.9 15 143 15 143 15 C 142.1 15 141.7 14.6 141.7 13.7 C 141.7 13.7 141.7 9 141.7 9 C 141.7 7.5 141.4 6.4 139.8 6.4 C 138.3 6.4 137 7.4 136.6 8.9 C 136.5 9.3 136.4 9.8 136.4 10.3 C 136.44 10.26 136.4 15 136.4 15 L 134.5 15 C 134.5 15 134.5 6.98 134.5 7 Z M 147.5 17.5 C 148.3 17.5 148.9 17 149.3 16.1 C 149.26 16.06 149.7 15 149.7 15 C 149.7 15 146.26 6.94 146.3 6.9 C 146.1 6.6 145.9 6.5 145.6 6.5 C 145.62 6.54 145.4 6.5 145.4 6.5 L 145.4 4.9 C 145.4 4.9 146.52 4.88 146.5 4.9 C 147.3 4.9 147.6 5.1 148 5.9 C 148 5.9 150.3 11.6 150.3 11.6 C 150.46 12.12 150.6 12.8 150.6 12.8 L 150.7 12.8 C 150.7 12.8 150.8 12.12 151 11.6 C 151 11.6 153.1 5.9 153.1 5.9 C 153.4 5.1 153.8 4.9 154.6 4.9 C 154.58 4.88 155.7 4.9 155.7 4.9 L 155.7 6.5 C 155.7 6.5 155.48 6.54 155.5 6.5 C 155.2 6.5 155 6.6 154.8 6.9 C 154.8 6.9 150.8 16.8 150.8 16.8 C 150.2 18.4 149 19.2 147.6 19.2 C 146.08 19.2 145.2 18.2 145.2 18.2 C 145.2 18.2 146 16.8 146 16.8 C 146 16.8 146.6 17.5 147.5 17.5 Z M 151.2 0.9 L 153.2 0.9 L 151.3 3.4 L 149.8 3.4 L 151.2 0.9 Z M 163 3 C 163 2.7 162.9 2.5 162.6 2.5 C 162.58 2.54 161.8 2.5 161.8 2.5 L 161.8 0.9 C 161.8 0.9 163.68 0.88 163.7 0.9 C 164.6 0.9 165 1.1 165 2 C 164.96 2.04 165 8.6 165 8.6 C 165 8.6 165.86 8.6 165.9 8.6 C 166.2 8.6 166.7 8.5 166.9 8.2 C 166.92 8.16 169.3 4.9 169.3 4.9 L 171.5 4.9 C 171.5 4.9 168.74 8.64 168.7 8.6 C 168.28 9.26 168 9.4 168 9.4 L 168 9.4 C 168 9.4 168.32 9.56 168.7 10.2 C 168.7 10.2 170.2 12.9 170.2 12.9 C 170.3 13.3 170.5 13.3 171 13.3 C 171.02 13.34 171.6 13.3 171.6 13.3 L 171.6 15 C 171.6 15 170.24 15 170.2 15 C 169.3 15 169 14.8 168.6 14.1 C 168.6 14.1 166.7 10.7 166.7 10.7 C 166.5 10.3 166 10.2 165.7 10.2 C 165.72 10.24 165 10.2 165 10.2 L 165 15 L 163 15 C 163 15 163.02 2.98 163 3 Z M 179 7 C 179 6.7 178.8 6.5 178.5 6.5 C 178.54 6.54 177.7 6.5 177.7 6.5 L 177.7 4.9 C 177.7 4.9 179.54 4.88 179.5 4.9 C 180.4 4.9 180.8 5.3 180.8 5.9 C 180.78 6.2 180.8 6.4 180.8 6.4 L 180.8 6.4 C 180.8 6.4 181.64 4.64 184.2 4.6 C 186.9 4.6 188.6 6.8 188.6 9.9 C 188.6 13.2 186.7 15.2 184 15.2 C 181.78 15.24 180.9 13.6 180.9 13.6 L 180.9 13.6 C 180.9 13.6 180.92 13.98 180.9 14.5 C 180.92 14.5 180.9 19 180.9 19 L 179 19 C 179 19 178.98 6.98 179 7 Z M 183.7 13.6 C 185.3 13.6 186.6 12.3 186.6 10 C 186.6 7.8 185.5 6.3 183.8 6.3 C 182.3 6.3 180.9 7.4 180.9 10 C 180.9 11.8 181.8 13.6 183.7 13.6 Z M 195.2 4.6 C 198 4.6 199.5 6.8 199.5 9.4 C 199.52 9.64 199.5 10.2 199.5 10.2 C 199.5 10.2 192.08 10.18 192.1 10.2 C 192.2 12.3 193.8 13.6 195.6 13.6 C 197.3 13.56 198.5 12.4 198.5 12.4 L 199.4 13.8 C 199.4 13.8 197.86 15.24 195.5 15.2 C 192.3 15.2 190.1 12.9 190.1 9.9 C 190.1 6.7 192.3 4.6 195.2 4.6 Z M 197.5 8.8 C 197.5 7.1 196.4 6.2 195.1 6.2 C 193.7 6.2 192.5 7.1 192.2 8.8 C 192.2 8.8 197.5 8.8 197.5 8.8 Z M 206.6 4.6 C 207.8 4.6 210.2 5.1 210.2 6.9 C 210.2 6.86 210.2 7.9 210.2 7.9 L 208.4 7.9 C 208.4 7.9 208.44 7.34 208.4 7.3 C 208.4 6.6 207.3 6.3 206.6 6.3 C 204.6 6.3 203.1 7.8 203.1 9.9 C 203.1 12.2 204.8 13.5 206.7 13.5 C 208.56 13.52 209.8 12.1 209.8 12.1 L 210.6 13.5 C 210.6 13.5 209.2 15.24 206.5 15.2 C 203.3 15.2 201.1 13 201.1 9.9 C 201.1 7 203.3 4.6 206.6 4.6 Z M 203.6 0.9 L 205.2 0.9 L 206.2 2.5 L 206.2 2.5 L 207.3 0.9 L 208.9 0.9 L 207.1 3.4 L 205.3 3.4 L 203.6 0.9 Z M 216.9 4.6 C 219.7 4.6 221.2 6.8 221.2 9.4 C 221.22 9.64 221.2 10.2 221.2 10.2 C 221.2 10.2 213.78 10.18 213.8 10.2 C 213.9 12.3 215.5 13.6 217.3 13.6 C 219 13.56 220.2 12.4 220.2 12.4 L 221.1 13.8 C 221.1 13.8 219.56 15.24 217.2 15.2 C 214 15.2 211.8 12.9 211.8 9.9 C 211.8 6.7 214 4.6 216.9 4.6 Z M 219.2 8.8 C 219.2 7.1 218.1 6.2 216.8 6.2 C 215.4 6.2 214.2 7.1 213.9 8.8 C 213.9 8.8 219.2 8.8 219.2 8.8 Z M 223.8 7 C 223.8 6.7 223.6 6.5 223.4 6.5 C 223.36 6.54 222.5 6.5 222.5 6.5 L 222.5 4.9 C 222.5 4.9 224.4 4.88 224.4 4.9 C 225.3 4.9 225.7 5.3 225.7 6 C 225.7 6 225.7 6.4 225.7 6.4 C 225.68 6.7 225.6 7 225.6 7 C 225.6 7 225.68 6.96 225.7 7 C 226.1 6.1 227.3 4.6 229.5 4.6 C 231.9 4.6 233 5.9 233 8.5 C 233 8.5 233 12.9 233 12.9 C 233 13.2 233.1 13.3 233.4 13.3 C 233.4 13.34 234.2 13.3 234.2 13.3 L 234.2 15 C 234.2 15 232.3 15 232.3 15 C 231.4 15 231 14.6 231 13.7 C 231 13.7 231 9 231 9 C 231 7.5 230.7 6.4 229.1 6.4 C 227.6 6.4 226.3 7.4 225.9 8.9 C 225.8 9.3 225.7 9.8 225.7 10.3 C 225.74 10.26 225.7 15 225.7 15 L 223.8 15 C 223.8 15 223.8 6.98 223.8 7 Z M 236.5 0.9 L 238.2 0.9 L 238.2 2.9 L 236.5 2.9 L 236.5 0.9 Z M 236.4 7 C 236.4 6.7 236.3 6.5 236 6.5 C 235.98 6.54 235.2 6.5 235.2 6.5 L 235.2 4.9 C 235.2 4.9 237.06 4.88 237.1 4.9 C 238 4.9 238.3 5.3 238.3 6.2 C 238.3 6.2 238.3 12.9 238.3 12.9 C 238.3 13.2 238.5 13.3 238.8 13.3 C 238.78 13.34 239.6 13.3 239.6 13.3 L 239.6 15 C 239.6 15 237.7 15 237.7 15 C 236.8 15 236.4 14.6 236.4 13.7 C 236.4 13.7 236.4 7 236.4 7 Z M 243.8 12.9 L 242.1 17 L 240.6 17 L 241.8 12.9 L 243.8 12.9 Z M 252 7 C 252 6.7 251.8 6.5 251.6 6.5 C 251.56 6.54 250.7 6.5 250.7 6.5 L 250.7 4.9 C 250.7 4.9 252.56 4.88 252.6 4.9 C 253.5 4.9 253.8 5.3 253.8 5.9 C 253.8 6.2 253.8 6.4 253.8 6.4 L 253.8 6.4 C 253.8 6.4 254.66 4.64 257.2 4.6 C 259.9 4.6 261.6 6.8 261.6 9.9 C 261.6 13.2 259.7 15.2 257 15.2 C 254.8 15.24 253.9 13.6 253.9 13.6 L 253.9 13.6 C 253.9 13.6 253.94 13.98 253.9 14.5 C 253.94 14.5 253.9 19 253.9 19 L 252 19 C 252 19 252 6.98 252 7 Z M 256.7 13.6 C 258.3 13.6 259.7 12.3 259.7 10 C 259.7 7.8 258.5 6.3 256.8 6.3 C 255.3 6.3 253.9 7.4 253.9 10 C 253.9 11.8 254.9 13.6 256.7 13.6 Z M 264.1 7 C 264.1 6.7 263.9 6.5 263.6 6.5 C 263.64 6.54 262.8 6.5 262.8 6.5 L 262.8 4.9 C 262.8 4.9 264.66 4.88 264.7 4.9 C 265.5 4.9 266 5.2 266 6.1 C 266 6.1 266 6.7 266 6.7 C 265.96 7.1 265.9 7.4 265.9 7.4 C 265.9 7.4 265.96 7.4 266 7.4 C 266.4 5.9 267.6 4.8 269.2 4.8 C 269.42 4.76 269.7 4.8 269.7 4.8 L 269.7 6.7 C 269.7 6.7 269.42 6.66 269.1 6.7 C 267.9 6.7 266.7 7.5 266.3 9 C 266.1 9.6 266 10.2 266 10.9 C 266.02 10.86 266 15 266 15 L 264.1 15 C 264.1 15 264.08 6.98 264.1 7 Z M 275.5 4.6 C 278.4 4.6 279.9 6.8 279.9 9.4 C 279.88 9.64 279.8 10.2 279.8 10.2 C 279.8 10.2 272.44 10.18 272.4 10.2 C 272.6 12.3 274.1 13.6 275.9 13.6 C 277.66 13.56 278.9 12.4 278.9 12.4 L 279.7 13.8 C 279.7 13.8 278.22 15.24 275.8 15.2 C 272.6 15.2 270.4 12.9 270.4 9.9 C 270.4 6.7 272.6 4.6 275.5 4.6 Z M 277.9 8.8 C 277.8 7.1 276.8 6.2 275.5 6.2 C 274 6.2 272.8 7.1 272.5 8.8 C 272.5 8.8 277.9 8.8 277.9 8.8 Z M 282.5 6.4 L 281.2 6.4 L 281.2 4.9 L 282.6 4.9 L 282.6 2.1 L 284.5 2.1 L 284.5 4.9 L 286.9 4.9 L 286.9 6.4 L 284.5 6.4 C 284.5 6.4 284.48 11.08 284.5 11.1 C 284.5 13.1 285.9 13.4 286.6 13.4 C 286.9 13.36 287.1 13.3 287.1 13.3 L 287.1 15 C 287.1 15 286.82 15.08 286.4 15.1 C 285.1 15.1 282.5 14.7 282.5 11.3 C 282.54 11.3 282.5 6.4 282.5 6.4 Z M 293.8 4.6 C 296.8 4.6 299.2 6.9 299.2 9.9 C 299.2 13 296.8 15.2 293.8 15.2 C 290.8 15.2 288.3 13 288.3 9.9 C 288.3 6.9 290.8 4.6 293.8 4.6 Z M 293.8 13.6 C 295.7 13.6 297.3 12 297.3 9.9 C 297.3 7.8 295.7 6.3 293.8 6.3 C 291.9 6.3 290.3 7.8 290.3 9.9 C 290.3 12 291.9 13.6 293.8 13.6 Z M 300.4 13.9 C 300.4 13.9 305.6 7.48 305.6 7.5 C 306.04 6.94 306.4 6.5 306.4 6.5 L 306.4 6.5 C 306.4 6.5 306.12 6.54 305.5 6.5 C 305.5 6.5 302.7 6.5 302.7 6.5 C 302.4 6.5 302.3 6.7 302.3 7 C 302.26 6.98 302.3 7.7 302.3 7.7 L 300.5 7.7 C 300.5 7.7 300.48 6.16 300.5 6.2 C 300.5 5.3 300.9 4.9 301.8 4.9 C 301.76 4.88 309 4.9 309 4.9 L 309 6 C 309 6 303.8 12.42 303.8 12.4 C 303.38 12.92 303 13.3 303 13.3 L 303 13.4 C 303 13.4 303.28 13.34 303.9 13.3 C 303.9 13.3 307.2 13.3 307.2 13.3 C 307.5 13.3 307.6 13.2 307.6 12.9 C 307.62 12.9 307.6 12.2 307.6 12.2 L 309.4 12.2 C 309.4 12.2 309.38 13.72 309.4 13.7 C 309.4 14.6 309 15 308.1 15 C 308.1 15 300.4 15 300.4 15 L 300.4 13.9 Z M 302.3 0.9 L 303.9 0.9 L 304.9 2.5 L 305 2.5 L 306 0.9 L 307.6 0.9 L 305.9 3.4 L 304.1 3.4 L 302.3 0.9 Z M 315.5 4.6 C 318.3 4.6 319.8 6.8 319.8 9.4 C 319.82 9.64 319.8 10.2 319.8 10.2 C 319.8 10.2 312.38 10.18 312.4 10.2 C 312.5 12.3 314.1 13.6 315.9 13.6 C 317.6 13.56 318.8 12.4 318.8 12.4 L 319.7 13.8 C 319.7 13.8 318.16 15.24 315.8 15.2 C 312.6 15.2 310.4 12.9 310.4 9.9 C 310.4 6.7 312.6 4.6 315.5 4.6 Z M 317.8 8.8 C 317.8 7.1 316.7 6.2 315.4 6.2 C 314 6.2 312.8 7.1 312.5 8.8 C 312.5 8.8 317.8 8.8 317.8 8.8 Z M 327.8 7 C 327.8 6.7 327.6 6.5 327.3 6.5 C 327.34 6.54 326.5 6.5 326.5 6.5 L 326.5 4.9 C 326.5 4.9 328.38 4.88 328.4 4.9 C 329.2 4.9 329.7 5.3 329.7 6 C 329.7 6 329.7 6.4 329.7 6.4 C 329.66 6.7 329.6 7 329.6 7 C 329.6 7 329.66 6.96 329.7 7 C 330.1 6.1 331.3 4.6 333.5 4.6 C 335.9 4.6 336.9 5.9 336.9 8.5 C 336.9 8.5 336.9 12.9 336.9 12.9 C 336.9 13.2 337.1 13.3 337.4 13.3 C 337.38 13.34 338.2 13.3 338.2 13.3 L 338.2 15 C 338.2 15 336.28 15 336.3 15 C 335.4 15 335 14.6 335 13.7 C 335 13.7 335 9 335 9 C 335 7.5 334.7 6.4 333.1 6.4 C 331.5 6.4 330.3 7.4 329.9 8.9 C 329.8 9.3 329.7 9.8 329.7 10.3 C 329.72 10.26 329.7 15 329.7 15 L 327.8 15 C 327.8 15 327.78 6.98 327.8 7 Z M 344.4 4.6 C 347.2 4.6 348.8 6.8 348.8 9.4 C 348.75 9.64 348.7 10.2 348.7 10.2 C 348.7 10.2 341.31 10.18 341.3 10.2 C 341.4 12.3 343 13.6 344.8 13.6 C 346.53 13.56 347.8 12.4 347.8 12.4 L 348.6 13.8 C 348.6 13.8 347.09 15.24 344.7 15.2 C 341.5 15.2 339.3 12.9 339.3 9.9 C 339.3 6.7 341.5 4.6 344.4 4.6 Z M 346.8 8.8 C 346.7 7.1 345.6 6.2 344.4 6.2 C 342.9 6.2 341.7 7.1 341.4 8.8 C 341.4 8.8 346.8 8.8 346.8 8.8 Z M 355.8 4.6 C 358.8 4.6 361.3 6.9 361.3 9.9 C 361.3 13 358.8 15.2 355.8 15.2 C 352.8 15.2 350.4 13 350.4 9.9 C 350.4 6.9 352.8 4.6 355.8 4.6 Z M 355.8 13.6 C 357.7 13.6 359.3 12 359.3 9.9 C 359.3 7.8 357.7 6.3 355.8 6.3 C 353.9 6.3 352.3 7.8 352.3 9.9 C 352.3 12 353.9 13.6 355.8 13.6 Z M 362.9 6.9 C 362.7 6.6 362.6 6.5 362.2 6.5 C 362.23 6.54 362 6.5 362 6.5 L 362 4.9 C 362 4.9 363.03 4.88 363 4.9 C 363.9 4.9 364.3 5.1 364.6 5.9 C 364.6 5.9 366.8 11.7 366.8 11.7 C 366.95 12.28 367.1 13 367.1 13 L 367.2 13 C 367.2 13 367.31 12.28 367.5 11.7 C 367.5 11.7 369.7 5.9 369.7 5.9 C 370 5.1 370.3 4.9 371.2 4.9 C 371.21 4.88 372.2 4.9 372.2 4.9 L 372.2 6.5 C 372.2 6.5 371.95 6.54 372 6.5 C 371.6 6.5 371.4 6.6 371.3 6.9 C 371.29 6.94 368.2 15 368.2 15 L 366 15 C 366 15 362.85 6.94 362.9 6.9 Z M 374.1 7 C 374.1 6.7 374 6.5 373.7 6.5 C 373.67 6.54 372.9 6.5 372.9 6.5 L 372.9 4.9 C 372.9 4.9 374.67 4.88 374.7 4.9 C 375.6 4.9 375.9 5.3 375.9 5.9 C 375.91 6.2 375.9 6.4 375.9 6.4 L 375.9 6.4 C 375.9 6.4 376.77 4.64 379.3 4.6 C 382 4.6 383.8 6.8 383.8 9.9 C 383.8 13.2 381.8 15.2 379.2 15.2 C 376.91 15.24 376.1 13.6 376.1 13.6 L 376 13.6 C 376 13.6 376.05 13.98 376.1 14.5 C 376.05 14.5 376.1 19 376.1 19 L 374.1 19 C 374.1 19 374.11 6.98 374.1 7 Z M 378.9 13.6 C 380.5 13.6 381.8 12.3 381.8 10 C 381.8 7.8 380.6 6.3 378.9 6.3 C 377.4 6.3 376 7.4 376 10 C 376 11.8 377 13.6 378.9 13.6 Z M 386 3 C 386 2.7 385.8 2.5 385.5 2.5 C 385.53 2.54 384.7 2.5 384.7 2.5 L 384.7 0.9 C 384.7 0.9 386.63 0.88 386.6 0.9 C 387.5 0.9 387.9 1.3 387.9 2.2 C 387.9 2.2 387.9 12.9 387.9 12.9 C 387.9 13.2 388.1 13.3 388.4 13.3 C 388.35 13.34 389.2 13.3 389.2 13.3 L 389.2 15 C 389.2 15 387.25 15 387.3 15 C 386.4 15 386 14.6 386 13.7 C 386 13.7 386 3 386 3 Z M 392.1 17.5 C 392.8 17.5 393.5 17 393.8 16.1 C 393.83 16.06 394.3 15 394.3 15 C 394.3 15 390.83 6.94 390.8 6.9 C 390.7 6.6 390.5 6.5 390.2 6.5 C 390.19 6.54 390 6.5 390 6.5 L 390 4.9 C 390 4.9 391.09 4.88 391.1 4.9 C 391.9 4.9 392.2 5.1 392.5 5.9 C 392.5 5.9 394.8 11.6 394.8 11.6 C 395.03 12.12 395.2 12.8 395.2 12.8 L 395.2 12.8 C 395.2 12.8 395.37 12.12 395.6 11.6 C 395.6 11.6 397.7 5.9 397.7 5.9 C 398 5.1 398.3 4.9 399.2 4.9 C 399.15 4.88 400.3 4.9 400.3 4.9 L 400.3 6.5 C 400.3 6.5 400.05 6.54 400.1 6.5 C 399.7 6.5 399.6 6.6 399.4 6.9 C 399.4 6.9 395.4 16.8 395.4 16.8 C 394.8 18.4 393.6 19.2 392.2 19.2 C 390.65 19.2 389.8 18.2 389.8 18.2 C 389.8 18.2 390.57 16.8 390.6 16.8 C 390.6 16.8 391.2 17.5 392.1 17.5 Z M 401.7 6.9 C 401.6 6.6 401.4 6.5 401.1 6.5 C 401.05 6.54 400.9 6.5 400.9 6.5 L 400.9 4.9 C 400.9 4.9 401.85 4.88 401.9 4.9 C 402.8 4.9 403.1 5.1 403.4 5.9 C 403.4 5.9 405.6 11.7 405.6 11.7 C 405.77 12.28 405.9 13 405.9 13 L 406 13 C 406 13 406.13 12.28 406.3 11.7 C 406.3 11.7 408.5 5.9 408.5 5.9 C 408.8 5.1 409.2 4.9 410 4.9 C 410.03 4.88 411 4.9 411 4.9 L 411 6.5 C 411 6.5 410.77 6.54 410.8 6.5 C 410.4 6.5 410.2 6.6 410.1 6.9 C 410.11 6.94 407 15 407 15 L 404.8 15 C 404.8 15 401.67 6.94 401.7 6.9 Z M 412.9 7 C 412.9 6.7 412.8 6.5 412.5 6.5 C 412.49 6.54 411.7 6.5 411.7 6.5 L 411.7 4.9 C 411.7 4.9 413.53 4.88 413.5 4.9 C 414.4 4.9 414.8 5.3 414.8 6 C 414.8 6 414.8 6.4 414.8 6.4 C 414.81 6.7 414.8 7 414.8 7 C 414.8 7 414.81 6.96 414.8 7 C 415.2 6.1 416.4 4.6 418.6 4.6 C 421 4.6 422.1 5.9 422.1 8.5 C 422.1 8.5 422.1 12.9 422.1 12.9 C 422.1 13.2 422.3 13.3 422.5 13.3 C 422.53 13.34 423.4 13.3 423.4 13.3 L 423.4 15 C 423.4 15 421.43 15 421.4 15 C 420.5 15 420.2 14.6 420.2 13.7 C 420.2 13.7 420.2 9 420.2 9 C 420.2 7.5 419.9 6.4 418.3 6.4 C 416.7 6.4 415.5 7.4 415.1 8.9 C 414.9 9.3 414.9 9.8 414.9 10.3 C 414.87 10.26 414.9 15 414.9 15 L 412.9 15 C 412.9 15 412.93 6.98 412.9 7 Z M 415 0.9 L 416.6 0.9 L 417.7 2.5 L 417.7 2.5 L 418.7 0.9 L 420.3 0.9 L 418.6 3.4 L 416.8 3.4 L 415 0.9 Z M 425.4 7 C 425.4 6.7 425.3 6.5 425 6.5 C 424.97 6.54 424.2 6.5 424.2 6.5 L 424.2 4.9 C 424.2 4.9 426.05 4.88 426.1 4.9 C 427 4.9 427.4 5.3 427.4 6.1 C 427.4 6.1 427.4 10.9 427.4 10.9 C 427.4 12.3 427.6 13.4 429.2 13.4 C 431.3 13.4 432.5 11.6 432.5 9.6 C 432.53 9.62 432.5 4.9 432.5 4.9 L 434.5 4.9 C 434.5 4.9 434.47 12.9 434.5 12.9 C 434.5 13.2 434.6 13.3 434.9 13.3 C 434.91 13.34 435.7 13.3 435.7 13.3 L 435.7 15 C 435.7 15 433.87 15 433.9 15 C 433 15 432.6 14.6 432.6 13.9 C 432.6 13.9 432.6 13.5 432.6 13.5 C 432.59 13.18 432.6 12.9 432.6 12.9 C 432.6 12.9 432.57 12.92 432.6 12.9 C 432.2 13.9 430.9 15.2 428.9 15.2 C 426.6 15.2 425.4 14 425.4 11.4 C 425.4 11.4 425.4 7 425.4 7 Z M 438.4 0.9 L 440.2 0.9 L 440.2 2.9 L 438.4 2.9 L 438.4 0.9 Z M 436.2 17.4 C 437 17.4 438.4 17.2 438.4 15.2 C 438.4 15.2 438.4 7 438.4 7 C 438.4 6.7 438.2 6.5 437.9 6.5 C 437.93 6.54 437.1 6.5 437.1 6.5 L 437.1 4.9 C 437.1 4.9 439.03 4.88 439 4.9 C 439.9 4.9 440.3 5.3 440.3 6.2 C 440.3 6.2 440.3 15.3 440.3 15.3 C 440.3 18.7 437.7 19.1 436.4 19.1 C 436.03 19.12 435.8 19.1 435.8 19.1 L 435.8 17.4 C 435.8 17.4 435.95 17.44 436.2 17.4 Z M 447.7 4.6 C 450.5 4.6 452.1 6.8 452.1 9.4 C 452.05 9.64 452 10.2 452 10.2 C 452 10.2 444.61 10.18 444.6 10.2 C 444.7 12.3 446.3 13.6 448.1 13.6 C 449.83 13.56 451.1 12.4 451.1 12.4 L 451.9 13.8 C 451.9 13.8 450.39 15.24 448 15.2 C 444.8 15.2 442.6 12.9 442.6 9.9 C 442.6 6.7 444.8 4.6 447.7 4.6 Z M 450.1 8.8 C 450 7.1 448.9 6.2 447.7 6.2 C 446.2 6.2 445 7.1 444.7 8.8 C 444.7 8.8 450.1 8.8 450.1 8.8 Z M 460 7 C 460 6.7 459.9 6.5 459.6 6.5 C 459.57 6.54 458.8 6.5 458.8 6.5 L 458.8 4.9 C 458.8 4.9 460.57 4.88 460.6 4.9 C 461.5 4.9 461.8 5.3 461.8 5.9 C 461.81 6.2 461.8 6.4 461.8 6.4 L 461.8 6.4 C 461.8 6.4 462.67 4.64 465.2 4.6 C 467.9 4.6 469.7 6.8 469.7 9.9 C 469.7 13.2 467.7 15.2 465.1 15.2 C 462.81 15.24 462 13.6 462 13.6 L 461.9 13.6 C 461.9 13.6 461.95 13.98 462 14.5 C 461.95 14.5 462 19 462 19 L 460 19 C 460 19 460.01 6.98 460 7 Z M 464.8 13.6 C 466.4 13.6 467.7 12.3 467.7 10 C 467.7 7.8 466.5 6.3 464.8 6.3 C 463.3 6.3 461.9 7.4 461.9 10 C 461.9 11.8 462.9 13.6 464.8 13.6 Z M 476.2 4.6 C 479 4.6 480.6 6.8 480.6 9.4 C 480.55 9.64 480.5 10.2 480.5 10.2 C 480.5 10.2 473.11 10.18 473.1 10.2 C 473.2 12.3 474.8 13.6 476.6 13.6 C 478.33 13.56 479.6 12.4 479.6 12.4 L 480.4 13.8 C 480.4 13.8 478.89 15.24 476.5 15.2 C 473.3 15.2 471.1 12.9 471.1 9.9 C 471.1 6.7 473.3 4.6 476.2 4.6 Z M 478.6 8.8 C 478.5 7.1 477.4 6.2 476.2 6.2 C 474.7 6.2 473.5 7.1 473.2 8.8 C 473.2 8.8 478.6 8.8 478.6 8.8 Z M 487.6 4.6 C 488.8 4.6 491.2 5.1 491.2 6.9 C 491.23 6.86 491.2 7.9 491.2 7.9 L 489.5 7.9 C 489.5 7.9 489.47 7.34 489.5 7.3 C 489.5 6.6 488.3 6.3 487.6 6.3 C 485.6 6.3 484.1 7.8 484.1 9.9 C 484.1 12.2 485.8 13.5 487.7 13.5 C 489.59 13.52 490.8 12.1 490.8 12.1 L 491.7 13.5 C 491.7 13.5 490.23 15.24 487.6 15.2 C 484.4 15.2 482.2 13 482.2 9.9 C 482.2 7 484.3 4.6 487.6 4.6 Z M 484.6 0.9 L 486.2 0.9 L 487.2 2.5 L 487.3 2.5 L 488.3 0.9 L 489.9 0.9 L 488.2 3.4 L 486.4 3.4 L 484.6 0.9 Z M 497.9 4.6 C 500.7 4.6 502.3 6.8 502.3 9.4 C 502.25 9.64 502.2 10.2 502.2 10.2 C 502.2 10.2 494.81 10.18 494.8 10.2 C 494.9 12.3 496.5 13.6 498.3 13.6 C 500.03 13.56 501.3 12.4 501.3 12.4 L 502.1 13.8 C 502.1 13.8 500.59 15.24 498.2 15.2 C 495 15.2 492.8 12.9 492.8 9.9 C 492.8 6.7 495 4.6 497.9 4.6 Z M 500.3 8.8 C 500.2 7.1 499.1 6.2 497.9 6.2 C 496.4 6.2 495.2 7.1 494.9 8.8 C 494.9 8.8 500.3 8.8 500.3 8.8 Z M 504.8 7 C 504.8 6.7 504.7 6.5 504.4 6.5 C 504.39 6.54 503.6 6.5 503.6 6.5 L 503.6 4.9 C 503.6 4.9 505.43 4.88 505.4 4.9 C 506.3 4.9 506.7 5.3 506.7 6 C 506.7 6 506.7 6.4 506.7 6.4 C 506.71 6.7 506.7 7 506.7 7 C 506.7 7 506.71 6.96 506.7 7 C 507.1 6.1 508.3 4.6 510.5 4.6 C 512.9 4.6 514 5.9 514 8.5 C 514 8.5 514 12.9 514 12.9 C 514 13.2 514.2 13.3 514.4 13.3 C 514.43 13.34 515.3 13.3 515.3 13.3 L 515.3 15 C 515.3 15 513.33 15 513.3 15 C 512.4 15 512.1 14.6 512.1 13.7 C 512.1 13.7 512.1 9 512.1 9 C 512.1 7.5 511.8 6.4 510.2 6.4 C 508.6 6.4 507.4 7.4 507 8.9 C 506.8 9.3 506.8 9.8 506.8 10.3 C 506.77 10.26 506.8 15 506.8 15 L 504.8 15 C 504.8 15 504.83 6.98 504.8 7 Z M 506.9 0.9 L 508.5 0.9 L 509.6 2.5 L 509.6 2.5 L 510.6 0.9 L 512.2 0.9 L 510.5 3.4 L 508.7 3.4 L 506.9 0.9 Z M 521.8 4.6 C 524.8 4.6 527.3 6.9 527.3 9.9 C 527.3 13 524.8 15.2 521.8 15.2 C 518.8 15.2 516.4 13 516.4 9.9 C 516.4 6.9 518.8 4.6 521.8 4.6 Z M 521.8 13.6 C 523.7 13.6 525.3 12 525.3 9.9 C 525.3 7.8 523.7 6.3 521.8 6.3 C 519.9 6.3 518.4 7.8 518.4 9.9 C 518.4 12 519.9 13.6 521.8 13.6 Z M 528.9 6.9 C 528.8 6.6 528.6 6.5 528.3 6.5 C 528.25 6.54 528.1 6.5 528.1 6.5 L 528.1 4.9 C 528.1 4.9 529.05 4.88 529.1 4.9 C 530 4.9 530.3 5.1 530.6 5.9 C 530.6 5.9 532.8 11.7 532.8 11.7 C 532.97 12.28 533.1 13 533.1 13 L 533.2 13 C 533.2 13 533.33 12.28 533.5 11.7 C 533.5 11.7 535.7 5.9 535.7 5.9 C 536 5.1 536.4 4.9 537.2 4.9 C 537.23 4.88 538.2 4.9 538.2 4.9 L 538.2 6.5 C 538.2 6.5 537.97 6.54 538 6.5 C 537.6 6.5 537.4 6.6 537.3 6.9 C 537.31 6.94 534.2 15 534.2 15 L 532 15 C 532 15 528.87 6.94 528.9 6.9 Z M 540.8 17.5 C 541.6 17.5 542.2 17 542.6 16.1 C 542.59 16.06 543.1 15 543.1 15 C 543.1 15 539.59 6.94 539.6 6.9 C 539.5 6.6 539.3 6.5 539 6.5 C 538.95 6.54 538.7 6.5 538.7 6.5 L 538.7 4.9 C 538.7 4.9 539.85 4.88 539.9 4.9 C 540.7 4.9 541 5.1 541.3 5.9 C 541.3 5.9 543.6 11.6 543.6 11.6 C 543.79 12.12 544 12.8 544 12.8 L 544 12.8 C 544 12.8 544.13 12.12 544.3 11.6 C 544.3 11.6 546.4 5.9 546.4 5.9 C 546.7 5.1 547.1 4.9 547.9 4.9 C 547.91 4.88 549.1 4.9 549.1 4.9 L 549.1 6.5 C 549.1 6.5 548.81 6.54 548.8 6.5 C 548.5 6.5 548.3 6.6 548.2 6.9 C 548.2 6.9 544.2 16.8 544.2 16.8 C 543.6 18.4 542.3 19.2 540.9 19.2 C 539.41 19.2 538.5 18.2 538.5 18.2 C 538.5 18.2 539.33 16.8 539.3 16.8 C 539.3 16.8 540 17.5 540.8 17.5 Z M 544.6 0.9 L 546.5 0.9 L 544.6 3.4 L 543.1 3.4 L 544.6 0.9 Z M 560.9 4.6 C 562.1 4.6 564.5 5.1 564.5 6.9 C 564.53 6.86 564.5 7.9 564.5 7.9 L 562.8 7.9 C 562.8 7.9 562.77 7.34 562.8 7.3 C 562.8 6.6 561.6 6.3 560.9 6.3 C 558.9 6.3 557.4 7.8 557.4 9.9 C 557.4 12.2 559.1 13.5 561 13.5 C 562.89 13.52 564.1 12.1 564.1 12.1 L 565 13.5 C 565 13.5 563.53 15.24 560.9 15.2 C 557.7 15.2 555.5 13 555.5 9.9 C 555.5 7 557.6 4.6 560.9 4.6 Z M 567.7 17.5 C 568.5 17.5 569.1 17 569.5 16.1 C 569.45 16.06 569.9 15 569.9 15 C 569.9 15 566.45 6.94 566.5 6.9 C 566.3 6.6 566.1 6.5 565.8 6.5 C 565.81 6.54 565.6 6.5 565.6 6.5 L 565.6 4.9 C 565.6 4.9 566.71 4.88 566.7 4.9 C 567.5 4.9 567.8 5.1 568.2 5.9 C 568.2 5.9 570.5 11.6 570.5 11.6 C 570.65 12.12 570.8 12.8 570.8 12.8 L 570.9 12.8 C 570.9 12.8 570.99 12.12 571.2 11.6 C 571.2 11.6 573.3 5.9 573.3 5.9 C 573.6 5.1 574 4.9 574.8 4.9 C 574.77 4.88 575.9 4.9 575.9 4.9 L 575.9 6.5 C 575.9 6.5 575.67 6.54 575.7 6.5 C 575.4 6.5 575.2 6.6 575 6.9 C 575 6.9 571 16.8 571 16.8 C 570.4 18.4 569.2 19.2 567.8 19.2 C 566.27 19.2 565.4 18.2 565.4 18.2 C 565.4 18.2 566.19 16.8 566.2 16.8 C 566.2 16.8 566.8 17.5 567.7 17.5 Z M 578 6.4 L 576.7 6.4 L 576.7 4.9 L 578 4.9 L 578 2.1 L 579.9 2.1 L 579.9 4.9 L 582.4 4.9 L 582.4 6.4 L 579.9 6.4 C 579.9 6.4 579.93 11.08 579.9 11.1 C 579.9 13.1 581.3 13.4 582.1 13.4 C 582.35 13.36 582.5 13.3 582.5 13.3 L 582.5 15 C 582.5 15 582.27 15.08 581.9 15.1 C 580.6 15.1 578 14.7 578 11.3 C 577.99 11.3 578 6.4 578 6.4 Z M 589.2 4.6 C 592.3 4.6 594.7 6.9 594.7 9.9 C 594.7 13 592.3 15.2 589.2 15.2 C 586.2 15.2 583.8 13 583.8 9.9 C 583.8 6.9 586.2 4.6 589.2 4.6 Z M 589.2 13.6 C 591.2 13.6 592.7 12 592.7 9.9 C 592.7 7.8 591.2 6.3 589.2 6.3 C 587.3 6.3 585.8 7.8 585.8 9.9 C 585.8 12 587.3 13.6 589.2 13.6 Z M 601.6 4.6 C 602.8 4.6 605.2 5.1 605.2 6.9 C 605.21 6.86 605.2 7.9 605.2 7.9 L 603.5 7.9 C 603.5 7.9 603.45 7.34 603.5 7.3 C 603.5 6.6 602.3 6.3 601.6 6.3 C 599.6 6.3 598.1 7.8 598.1 9.9 C 598.1 12.2 599.8 13.5 601.7 13.5 C 603.57 13.52 604.8 12.1 604.8 12.1 L 605.7 13.5 C 605.7 13.5 604.21 15.24 601.5 15.2 C 598.4 15.2 596.1 13 596.1 9.9 C 596.1 7 598.3 4.6 601.6 4.6 Z M 607.6 3 C 607.6 2.7 607.5 2.5 607.2 2.5 C 607.19 2.54 606.4 2.5 606.4 2.5 L 606.4 0.9 C 606.4 0.9 608.29 0.88 608.3 0.9 C 609.2 0.9 609.6 1.3 609.6 2.1 C 609.6 2.1 609.6 6.1 609.6 6.1 C 609.57 6.54 609.5 6.9 609.5 6.9 C 609.5 6.9 609.57 6.9 609.6 6.9 C 610 5.9 611.3 4.6 613.3 4.6 C 615.7 4.6 616.8 5.9 616.8 8.5 C 616.8 8.5 616.8 12.9 616.8 12.9 C 616.8 13.2 617 13.3 617.2 13.3 C 617.23 13.34 618.1 13.3 618.1 13.3 L 618.1 15 C 618.1 15 616.15 15 616.2 15 C 615.3 15 614.9 14.6 614.9 13.7 C 614.9 13.7 614.9 9 614.9 9 C 614.9 7.5 614.6 6.4 613 6.4 C 611.4 6.4 610.2 7.5 609.8 8.9 C 609.6 9.3 609.6 9.8 609.6 10.3 C 609.57 10.26 609.6 15 609.6 15 L 607.6 15 C 607.6 15 607.63 2.98 607.6 3 Z M 620.2 7 C 620.2 6.7 620 6.5 619.7 6.5 C 619.71 6.54 618.9 6.5 618.9 6.5 L 618.9 4.9 C 618.9 4.9 620.73 4.88 620.7 4.9 C 621.6 4.9 622 5.2 622 6.1 C 622 6.1 622 6.7 622 6.7 C 622.03 7.1 622 7.4 622 7.4 C 622 7.4 622.03 7.4 622 7.4 C 622.5 5.9 623.7 4.8 625.2 4.8 C 625.49 4.76 625.8 4.8 625.8 4.8 L 625.8 6.7 C 625.8 6.7 625.49 6.66 625.2 6.7 C 623.9 6.7 622.8 7.5 622.3 9 C 622.2 9.6 622.1 10.2 622.1 10.9 C 622.09 10.86 622.1 15 622.1 15 L 620.2 15 C 620.2 15 620.15 6.98 620.2 7 Z M 632 4.6 C 635 4.6 637.4 6.9 637.4 9.9 C 637.4 13 635 15.2 632 15.2 C 628.9 15.2 626.5 13 626.5 9.9 C 626.5 6.9 628.9 4.6 632 4.6 Z M 632 13.6 C 633.9 13.6 635.4 12 635.4 9.9 C 635.4 7.8 633.9 6.3 632 6.3 C 630.1 6.3 628.5 7.8 628.5 9.9 C 628.5 12 630.1 13.6 632 13.6 Z M 632.6 0.9 L 634.6 0.9 L 632.7 3.4 L 631.2 3.4 L 632.6 0.9 Z M 639.8 7 C 639.8 6.7 639.7 6.5 639.4 6.5 C 639.39 6.54 638.6 6.5 638.6 6.5 L 638.6 4.9 C 638.6 4.9 640.43 4.88 640.4 4.9 C 641.3 4.9 641.7 5.3 641.7 6 C 641.7 6 641.7 6.4 641.7 6.4 C 641.71 6.7 641.7 7 641.7 7 C 641.7 7 641.73 6.96 641.7 7 C 642.2 5.8 643.6 4.6 645.2 4.6 C 646.9 4.6 647.9 5.4 648.2 6.9 C 648.2 6.9 648.3 6.9 648.3 6.9 C 648.8 5.7 650.2 4.6 651.9 4.6 C 654.2 4.6 655.2 5.9 655.2 8.5 C 655.2 8.5 655.2 12.9 655.2 12.9 C 655.2 13.2 655.4 13.3 655.7 13.3 C 655.65 13.34 656.5 13.3 656.5 13.3 L 656.5 15 C 656.5 15 654.55 15 654.6 15 C 653.7 15 653.3 14.6 653.3 13.7 C 653.3 13.7 653.3 8.9 653.3 8.9 C 653.3 7.5 653 6.4 651.5 6.4 C 650.1 6.4 649 7.6 648.7 9 C 648.6 9.4 648.5 9.9 648.5 10.4 C 648.49 10.38 648.5 15 648.5 15 L 646.6 15 C 646.6 15 646.55 8.94 646.6 8.9 C 646.6 7.6 646.4 6.4 644.8 6.4 C 643.3 6.4 642.3 7.6 641.9 9.1 C 641.8 9.5 641.8 9.9 641.8 10.4 C 641.77 10.38 641.8 15 641.8 15 L 639.8 15 C 639.8 15 639.83 6.98 639.8 7 Z M 664.3 2.6 L 663 2.6 L 663 0.9 C 663 0.9 669.23 0.88 669.2 0.9 C 671.8 0.9 673.7 2.6 673.7 5.3 C 673.7 8 671.8 9.8 669.2 9.8 C 669.23 9.78 666.3 9.8 666.3 9.8 L 666.3 15 L 664.3 15 L 664.3 2.6 Z M 668.9 8.1 C 670.6 8.1 671.6 7 671.6 5.3 C 671.6 3.6 670.6 2.6 668.9 2.6 C 668.93 2.6 666.3 2.6 666.3 2.6 L 666.3 8.1 C 666.3 8.1 668.91 8.06 668.9 8.1 Z M 674.4 10 L 680.8 0.9 L 683.1 0.9 L 683.1 9.5 L 685.3 9.5 L 685.3 11.3 L 683.1 11.3 L 683.1 15 L 681.1 15 L 681.1 11.3 L 674.4 11.3 L 674.4 10 Z M 681.1 4.7 C 681.09 4.04 681.2 3.2 681.2 3.2 L 681.1 3.2 C 681.1 3.2 680.77 3.92 680.4 4.4 C 680.4 4.4 677.3 8.7 677.3 8.7 C 676.97 9.16 676.6 9.6 676.6 9.6 L 676.6 9.6 C 676.6 9.6 677.17 9.54 677.8 9.5 C 677.79 9.54 681.1 9.5 681.1 9.5 C 681.1 9.5 681.09 4.68 681.1 4.7 Z M 687.7 11.8 C 687.7 11.8 688.83 13.36 691 13.4 C 692.8 13.4 694 12.1 694 10.5 C 694 8.8 692.5 7.7 690.7 7.7 C 689.11 7.66 688 8.4 688 8.4 L 687.2 8 C 687.2 8 687.73 2.16 687.7 2.2 C 687.8 1.3 688.1 0.9 689 0.9 C 689 0.9 693.9 0.9 693.9 0.9 C 694.8 0.9 695.2 1.3 695.2 2.2 C 695.21 2.16 695.2 3.9 695.2 3.9 L 693.4 3.9 C 693.4 3.9 693.39 3.04 693.4 3 C 693.4 2.7 693.2 2.6 693 2.6 C 693 2.6 690 2.6 690 2.6 C 689.7 2.6 689.6 2.7 689.6 3 C 689.6 3 689.3 5.6 689.3 5.6 C 689.23 6.06 689.2 6.4 689.2 6.4 L 689.2 6.4 C 689.2 6.4 689.97 5.94 691 5.9 C 694.1 5.9 696.1 8 696.1 10.6 C 696.1 13.1 694.1 15.2 691 15.2 C 688.07 15.24 686.6 13.3 686.6 13.3 L 687.7 11.8 Z M 698.2 7.9 C 698.2 3.9 699.4 0.6 703.2 0.6 C 706.9 0.6 708.2 3.9 708.2 7.9 C 708.2 12 706.9 15.2 703.2 15.2 C 699.4 15.2 698.2 12 698.2 7.9 Z M 706.1 7.9 C 706.1 4.9 705.5 2.5 703.2 2.5 C 700.9 2.5 700.2 4.9 700.2 7.9 C 700.2 11 700.9 13.4 703.2 13.4 C 705.5 13.4 706.1 11 706.1 7.9 Z " stroke="none" fill="#ee3078"/>  </g></svg>