<?xml version="1.0" standalone="no"?><!DOCTYPE svg PUBLIC "-//W3C//DTD SVG 1.1//EN" "http://www.w3.org/Graphics/SVG/1.1/DTD/svg11.dtd"><svg xmlns="http://www.w3.org/2000/svg" version="1.1" width="353px" height="43.5px" viewBox="0 -5 353 43.5" style="top:-5px">  <desc>Zn anlivos</desc>  <defs/>  <g id="Polygon66053">    <path d="M 0.6 21 C 0.6 21 11.88 5.19 11.9 5.2 C 12.66 4.08 13.4 3.3 13.4 3.3 L 13.4 3.2 C 13.4 3.2 12.9 3.27 11.9 3.3 C 11.9 3.3 3.5 3.3 3.5 3.3 C 3.1 3.3 2.8 3.5 2.8 3.9 C 2.82 3.93 2.8 5.3 2.8 5.3 L 0.9 5.3 C 0.9 5.3 0.87 3.24 0.9 3.2 C 0.9 2 1.4 1.4 2.7 1.4 C 2.7 1.41 16 1.4 16 1.4 L 16 2.9 C 16 2.9 4.71 18.72 4.7 18.7 C 3.93 19.83 3.1 20.6 3.1 20.6 L 3.1 20.7 C 3.1 20.7 3.66 20.64 4.7 20.6 C 4.7 20.6 13.8 20.6 13.8 20.6 C 14.2 20.6 14.5 20.4 14.5 20 C 14.46 19.98 14.5 18.6 14.5 18.6 L 16.4 18.6 C 16.4 18.6 16.41 20.67 16.4 20.7 C 16.4 22 15.9 22.5 14.6 22.5 C 14.58 22.5 0.6 22.5 0.6 22.5 L 0.6 21 Z M 19.9 9.8 C 19.9 9.4 19.6 9.2 19.2 9.2 C 19.2 9.18 17.9 9.2 17.9 9.2 L 17.9 7.4 C 17.9 7.4 20.04 7.41 20 7.4 C 21.3 7.4 21.9 8 21.9 9.1 C 21.9 9.1 21.9 9.8 21.9 9.8 C 21.87 10.38 21.8 10.9 21.8 10.9 C 21.8 10.9 21.87 10.86 21.9 10.9 C 22.4 9.5 24.3 7.1 27.9 7.1 C 31.6 7.1 32.9 9.2 32.9 12.9 C 32.9 12.9 32.9 20.1 32.9 20.1 C 32.9 20.5 33.2 20.7 33.6 20.7 C 33.6 20.73 34.9 20.7 34.9 20.7 L 34.9 22.5 C 34.9 22.5 32.73 22.5 32.7 22.5 C 31.4 22.5 30.9 22 30.9 20.7 C 30.9 20.7 30.9 13.4 30.9 13.4 C 30.9 11.1 30.5 9 27.6 9 C 25 9 22.8 10.7 22.1 13.2 C 22 13.9 21.9 14.6 21.9 15.3 C 21.9 15.27 21.9 22.5 21.9 22.5 L 19.9 22.5 C 19.9 22.5 19.86 9.84 19.9 9.8 Z M 45.9 13.2 C 45.93 13.2 46.8 13.2 46.8 13.2 C 46.8 13.2 46.77 13.02 46.8 13 C 46.8 9.9 45.6 8.8 42.9 8.8 C 42.1 8.8 39.9 9 39.9 10.1 C 39.93 10.08 39.9 11 39.9 11 L 38 11 C 38 11 37.98 9.6 38 9.6 C 38 7.5 41.6 7.1 42.9 7.1 C 47.7 7.1 48.8 9.6 48.8 12.8 C 48.8 12.8 48.8 20.1 48.8 20.1 C 48.8 20.5 49 20.7 49.5 20.7 C 49.47 20.73 50.7 20.7 50.7 20.7 L 50.7 22.5 C 50.7 22.5 48.66 22.5 48.7 22.5 C 47.4 22.5 46.9 21.9 46.9 20.7 C 46.86 20.04 46.9 19.6 46.9 19.6 C 46.9 19.6 46.83 19.59 46.8 19.6 C 46.9 19.6 45.6 22.9 41.8 22.9 C 39.3 22.9 36.7 21.4 36.7 18.4 C 36.7 13.4 43.3 13.2 45.9 13.2 Z M 42.1 21.1 C 45 21.1 46.8 18.1 46.8 15.5 C 46.77 15.51 46.8 14.8 46.8 14.8 C 46.8 14.8 45.9 14.82 45.9 14.8 C 43.5 14.8 38.8 14.9 38.8 18.3 C 38.8 19.7 39.9 21.1 42.1 21.1 Z M 44.5 1.4 L 46.8 1.4 L 44.2 5 L 42.4 5 L 44.5 1.4 Z M 53.4 18.8 C 53.4 18.8 55.08 21.09 58 21.1 C 59.7 21.1 61.2 20.3 61.2 18.7 C 61.2 15.4 52.8 16 52.8 11.1 C 52.8 8.4 55.1 7.1 58.1 7.1 C 59.7 7.1 62.7 7.7 62.7 9.8 C 62.73 9.78 62.7 11.1 62.7 11.1 L 60.8 11.1 C 60.8 11.1 60.81 10.35 60.8 10.4 C 60.8 9.2 59.2 8.8 58.2 8.8 C 56.1 8.8 54.8 9.5 54.8 11 C 54.8 14.4 63.3 13.6 63.3 18.6 C 63.3 21.1 61 22.9 58 22.9 C 54.09 22.86 52.2 20.2 52.2 20.2 L 53.4 18.8 Z M 54.4 1.4 L 56.3 1.4 L 57.9 3.8 L 58 3.8 L 59.6 1.4 L 61.5 1.4 L 59 5 L 56.9 5 L 54.4 1.4 Z M 75 13.2 C 75 13.2 75.8 13.2 75.8 13.2 C 75.8 13.2 75.84 13.02 75.8 13 C 75.8 9.9 74.7 8.8 71.9 8.8 C 71.2 8.8 69 9 69 10.1 C 69 10.08 69 11 69 11 L 67 11 C 67 11 67.05 9.6 67 9.6 C 67 7.5 70.6 7.1 72 7.1 C 76.7 7.1 77.9 9.6 77.9 12.8 C 77.9 12.8 77.9 20.1 77.9 20.1 C 77.9 20.5 78.1 20.7 78.5 20.7 C 78.54 20.73 79.8 20.7 79.8 20.7 L 79.8 22.5 C 79.8 22.5 77.73 22.5 77.7 22.5 C 76.4 22.5 75.9 21.9 75.9 20.7 C 75.93 20.04 76 19.6 76 19.6 C 76 19.6 75.9 19.59 75.9 19.6 C 75.9 19.6 74.7 22.9 70.9 22.9 C 68.4 22.9 65.8 21.4 65.8 18.4 C 65.8 13.4 72.4 13.2 75 13.2 Z M 71.2 21.1 C 74.1 21.1 75.8 18.1 75.8 15.5 C 75.84 15.51 75.8 14.8 75.8 14.8 C 75.8 14.8 74.97 14.82 75 14.8 C 72.6 14.8 67.9 14.9 67.9 18.3 C 67.9 19.7 69 21.1 71.2 21.1 Z M 83 9.8 C 83 9.4 82.8 9.2 82.4 9.2 C 82.38 9.18 81.1 9.2 81.1 9.2 L 81.1 7.4 C 81.1 7.4 83.22 7.41 83.2 7.4 C 84.5 7.4 85 8 85 9.1 C 85 9.1 85 9.8 85 9.8 C 85.05 10.38 85 10.9 85 10.9 C 85 10.9 85.05 10.86 85 10.9 C 85.6 9.5 87.5 7.1 91 7.1 C 94.8 7.1 96.1 9.2 96.1 12.9 C 96.1 12.9 96.1 20.1 96.1 20.1 C 96.1 20.5 96.4 20.7 96.8 20.7 C 96.78 20.73 98 20.7 98 20.7 L 98 22.5 C 98 22.5 95.91 22.5 95.9 22.5 C 94.6 22.5 94.1 22 94.1 20.7 C 94.1 20.7 94.1 13.4 94.1 13.4 C 94.1 11.1 93.7 9 90.8 9 C 88.2 9 86 10.7 85.3 13.2 C 85.1 13.9 85.1 14.6 85.1 15.3 C 85.08 15.27 85.1 22.5 85.1 22.5 L 83 22.5 C 83 22.5 83.04 9.84 83 9.8 Z M 101.2 3.8 C 101.2 3.4 101 3.2 100.6 3.2 C 100.59 3.18 99.3 3.2 99.3 3.2 L 99.3 1.4 C 99.3 1.4 101.46 1.41 101.5 1.4 C 102.7 1.4 103.3 2 103.3 3.2 C 103.3 3.2 103.3 20.1 103.3 20.1 C 103.3 20.5 103.5 20.7 103.9 20.7 C 103.95 20.73 105.2 20.7 105.2 20.7 L 105.2 22.5 C 105.2 22.5 103.08 22.5 103.1 22.5 C 101.8 22.5 101.2 22 101.2 20.7 C 101.2 20.7 101.2 3.8 101.2 3.8 Z M 108.7 1.4 L 110.7 1.4 L 110.7 4 L 108.7 4 L 108.7 1.4 Z M 108.8 9.8 C 108.8 9.4 108.5 9.2 108.1 9.2 C 108.12 9.18 106.9 9.2 106.9 9.2 L 106.9 7.4 C 106.9 7.4 108.99 7.41 109 7.4 C 110.3 7.4 110.8 8 110.8 9.2 C 110.8 9.2 110.8 20.1 110.8 20.1 C 110.8 20.5 111.1 20.7 111.5 20.7 C 111.48 20.73 112.7 20.7 112.7 20.7 L 112.7 22.5 C 112.7 22.5 110.61 22.5 110.6 22.5 C 109.3 22.5 108.8 22 108.8 20.7 C 108.8 20.7 108.8 9.8 108.8 9.8 Z M 115.1 9.9 C 114.9 9.3 114.6 9.2 114.1 9.2 C 114.09 9.18 113.8 9.2 113.8 9.2 L 113.8 7.4 C 113.8 7.4 114.63 7.41 114.6 7.4 C 116.1 7.4 116.5 7.7 117 9.1 C 117 9.1 120.7 18.5 120.7 18.5 C 120.93 19.23 121.2 20.3 121.2 20.3 L 121.2 20.3 C 121.2 20.3 121.47 19.23 121.7 18.5 C 121.7 18.5 125.4 9.1 125.4 9.1 C 125.9 7.7 126.3 7.4 127.7 7.4 C 127.74 7.41 128.5 7.4 128.5 7.4 L 128.5 9.2 C 128.5 9.2 128.25 9.18 128.2 9.2 C 127.7 9.2 127.4 9.3 127.2 9.9 C 127.2 9.87 122.3 22.5 122.3 22.5 L 120.1 22.5 C 120.1 22.5 115.14 9.87 115.1 9.9 Z M 137.8 7.1 C 142.2 7.1 145.8 10.4 145.8 14.9 C 145.8 19.4 142.2 22.9 137.8 22.9 C 133.4 22.9 129.8 19.4 129.8 14.9 C 129.8 10.4 133.4 7.1 137.8 7.1 Z M 137.8 21 C 141 21 143.7 18.4 143.7 14.9 C 143.7 11.5 141 8.9 137.8 8.9 C 134.6 8.9 131.9 11.5 131.9 14.9 C 131.9 18.4 134.6 21 137.8 21 Z M 149 18.8 C 149 18.8 150.69 21.09 153.7 21.1 C 155.3 21.1 156.8 20.3 156.8 18.7 C 156.8 15.4 148.4 16 148.4 11.1 C 148.4 8.4 150.7 7.1 153.7 7.1 C 155.3 7.1 158.3 7.7 158.3 9.8 C 158.34 9.78 158.3 11.1 158.3 11.1 L 156.4 11.1 C 156.4 11.1 156.42 10.35 156.4 10.4 C 156.4 9.2 154.8 8.8 153.8 8.8 C 151.7 8.8 150.4 9.5 150.4 11 C 150.4 14.4 158.9 13.6 158.9 18.6 C 158.9 21.1 156.6 22.9 153.6 22.9 C 149.7 22.86 147.8 20.2 147.8 20.2 L 149 18.8 Z M 163 9.1 L 161 9.1 L 161 7.4 L 163 7.4 L 163 3.2 L 165 3.2 L 165 7.4 L 168.8 7.4 L 168.8 9.1 L 165 9.1 C 165 9.1 165.03 16.8 165 16.8 C 165 20.3 167.3 20.8 168.4 20.8 C 168.84 20.79 169.1 20.7 169.1 20.7 L 169.1 22.6 C 169.1 22.6 168.75 22.62 168.2 22.6 C 166.5 22.6 163 22.1 163 17 C 162.99 17.01 163 9.1 163 9.1 Z M 168.9 1.4 C 169.1 1.9 169.1 2.4 169.1 2.9 C 169.1 3.8 168.9 4.5 168.4 5.5 C 168.4 5.5 166.8 5.5 166.8 5.5 C 167.2 4.6 167.4 3.9 167.4 3.1 C 167.4 2.6 167.3 2 167.1 1.4 C 167.1 1.4 168.9 1.4 168.9 1.4 Z " stroke="none" fill="#ee3078"/>  </g></svg>