<?xml version="1.0" standalone="no"?><!DOCTYPE svg PUBLIC "-//W3C//DTD SVG 1.1//EN" "http://www.w3.org/Graphics/SVG/1.1/DTD/svg11.dtd"><svg xmlns="http://www.w3.org/2000/svg" version="1.1" width="61px" height="25.3px" viewBox="0 -3 61 25.3" style="top:-3px">  <desc>Estetrol</desc>  <defs/>  <g id="Polygon81520">    <path d="M 1.8 2.2 L 0.6 2.2 L 0.6 0.7 C 0.6 0.7 7.7 0.75 7.7 0.7 C 8.5 0.7 8.8 1.1 8.8 1.8 C 8.79 1.84 8.8 3.3 8.8 3.3 L 7.2 3.3 C 7.2 3.3 7.24 2.58 7.2 2.6 C 7.2 2.3 7.1 2.2 6.9 2.2 C 6.87 2.21 3.5 2.2 3.5 2.2 L 3.5 6 L 7.7 6 L 7.7 7.4 L 3.5 7.4 C 3.5 7.4 3.45 10.91 3.5 10.9 C 3.5 11.2 3.6 11.3 3.8 11.3 C 3.8 11.3 7.3 11.3 7.3 11.3 C 7.6 11.3 7.7 11.2 7.7 10.9 C 7.7 10.91 7.7 10.1 7.7 10.1 L 9.3 10.1 C 9.3 10.1 9.27 11.66 9.3 11.7 C 9.3 12.4 8.9 12.8 8.2 12.8 C 8.2 12.8 2.8 12.8 2.8 12.8 C 2.1 12.8 1.8 12.4 1.8 11.7 C 1.75 11.66 1.8 2.2 1.8 2.2 Z M 11 10.3 C 11 10.3 11.98 11.61 13.6 11.6 C 14.4 11.6 15.1 11.3 15.1 10.5 C 15.1 9 10.4 9.1 10.4 6.4 C 10.4 4.7 11.8 3.9 13.6 3.9 C 14.6 3.9 16.4 4.3 16.4 5.6 C 16.39 5.61 16.4 6.4 16.4 6.4 L 14.9 6.4 C 14.9 6.4 14.91 6 14.9 6 C 14.9 5.5 14.1 5.3 13.6 5.3 C 12.6 5.3 12 5.6 12 6.3 C 12 7.9 16.7 7.6 16.7 10.4 C 16.7 12 15.4 13 13.5 13 C 11.25 12.95 10.1 11.4 10.1 11.4 L 11 10.3 Z M 18.9 5.5 L 17.8 5.5 L 17.8 4.1 L 18.9 4.1 L 18.9 1.8 L 20.5 1.8 L 20.5 4.1 L 22.6 4.1 L 22.6 5.5 L 20.5 5.5 C 20.5 5.5 20.54 9.42 20.5 9.4 C 20.5 11.1 21.7 11.4 22.4 11.4 C 22.59 11.36 22.7 11.3 22.7 11.3 L 22.7 12.8 C 22.7 12.8 22.52 12.82 22.2 12.8 C 21.1 12.8 18.9 12.5 18.9 9.6 C 18.89 9.6 18.9 5.5 18.9 5.5 Z M 28.1 3.9 C 30.5 3.9 31.8 5.7 31.8 8 C 31.84 8.19 31.8 8.7 31.8 8.7 C 31.8 8.7 25.52 8.65 25.5 8.7 C 25.6 10.5 26.9 11.5 28.5 11.5 C 29.95 11.53 31 10.5 31 10.5 L 31.7 11.7 C 31.7 11.7 30.43 12.95 28.4 13 C 25.7 13 23.8 11 23.8 8.4 C 23.8 5.7 25.7 3.9 28.1 3.9 Z M 30.1 7.4 C 30.1 6 29.2 5.3 28.1 5.3 C 26.9 5.3 25.8 6 25.6 7.4 C 25.6 7.4 30.1 7.4 30.1 7.4 Z M 34.1 5.5 L 33 5.5 L 33 4.1 L 34.1 4.1 L 34.1 1.8 L 35.8 1.8 L 35.8 4.1 L 37.8 4.1 L 37.8 5.5 L 35.8 5.5 C 35.8 5.5 35.75 9.42 35.8 9.4 C 35.8 11.1 36.9 11.4 37.6 11.4 C 37.81 11.36 38 11.3 38 11.3 L 38 12.8 C 38 12.8 37.74 12.82 37.4 12.8 C 36.3 12.8 34.1 12.5 34.1 9.6 C 34.1 9.6 34.1 5.5 34.1 5.5 Z M 40 5.9 C 40 5.7 39.9 5.6 39.6 5.6 C 39.64 5.56 38.9 5.6 38.9 5.6 L 38.9 4.1 C 38.9 4.1 40.51 4.15 40.5 4.1 C 41.3 4.1 41.6 4.5 41.6 5.2 C 41.6 5.2 41.6 5.7 41.6 5.7 C 41.62 6.03 41.6 6.3 41.6 6.3 C 41.6 6.3 41.62 6.29 41.6 6.3 C 42 5 43 4 44.3 4 C 44.56 4.05 44.8 4.1 44.8 4.1 L 44.8 5.7 C 44.8 5.7 44.56 5.66 44.3 5.7 C 43.2 5.7 42.3 6.4 41.9 7.7 C 41.7 8.2 41.7 8.7 41.7 9.2 C 41.67 9.23 41.7 12.8 41.7 12.8 L 40 12.8 C 40 12.8 40.02 5.93 40 5.9 Z M 50 3.9 C 52.6 3.9 54.7 5.8 54.7 8.4 C 54.7 11 52.6 13 50 13 C 47.5 13 45.4 11 45.4 8.4 C 45.4 5.8 47.5 3.9 50 3.9 Z M 50 11.5 C 51.7 11.5 53 10.2 53 8.4 C 53 6.6 51.7 5.4 50 5.4 C 48.4 5.4 47.1 6.6 47.1 8.4 C 47.1 10.2 48.4 11.5 50 11.5 Z M 56.6 2.5 C 56.6 2.3 56.4 2.2 56.2 2.2 C 56.18 2.16 55.5 2.2 55.5 2.2 L 55.5 0.7 C 55.5 0.7 57.12 0.75 57.1 0.7 C 57.9 0.7 58.2 1.1 58.2 1.8 C 58.2 1.8 58.2 11 58.2 11 C 58.2 11.2 58.3 11.3 58.6 11.3 C 58.58 11.34 59.3 11.3 59.3 11.3 L 59.3 12.8 C 59.3 12.8 57.65 12.75 57.6 12.8 C 56.9 12.8 56.6 12.4 56.6 11.7 C 56.6 11.7 56.6 2.5 56.6 2.5 Z " stroke="none" fill="#ee3078"/>  </g></svg>