<?xml version="1.0" standalone="no"?><!DOCTYPE svg PUBLIC "-//W3C//DTD SVG 1.1//EN" "http://www.w3.org/Graphics/SVG/1.1/DTD/svg11.dtd"><svg xmlns="http://www.w3.org/2000/svg" version="1.1" width="96px" height="29px" viewBox="0 0 96 29">  <desc>Stav poko ky</desc>  <defs/>  <g id="Polygon72470">    <path d="M 11.9 15.3 C 11.9 15.3 12.8 16.31 14.1 16.3 C 14.8 16.3 15.5 15.8 15.5 15 C 15.5 13.3 11.4 13.5 11.4 10.9 C 11.4 9.6 12.5 8.6 14.1 8.6 C 15 8.6 16.5 9 16.5 10.2 C 16.54 10.2 16.5 10.9 16.5 10.9 L 15.4 10.9 C 15.4 10.9 15.44 10.5 15.4 10.5 C 15.4 10.1 14.8 9.7 14.1 9.7 C 13.2 9.7 12.6 10.2 12.6 10.9 C 12.6 12.6 16.7 12.2 16.7 15 C 16.7 16.3 15.7 17.4 14 17.4 C 12.23 17.4 11.2 16.1 11.2 16.1 L 11.9 15.3 Z M 18.3 12.1 L 17.5 12.1 L 17.5 11.2 L 18.3 11.2 L 18.3 9.5 L 19.4 9.5 L 19.4 11.2 L 20.9 11.2 L 20.9 12.1 L 19.4 12.1 C 19.4 12.1 19.44 14.9 19.4 14.9 C 19.4 16.1 20.3 16.3 20.7 16.3 C 20.9 16.27 21 16.2 21 16.2 L 21 17.3 C 21 17.3 20.85 17.3 20.6 17.3 C 19.8 17.3 18.3 17.1 18.3 15 C 18.28 15.04 18.3 12.1 18.3 12.1 Z M 25.5 13.5 C 25.48 13.48 25.7 13.5 25.7 13.5 C 25.7 13.5 25.74 13.42 25.7 13.4 C 25.7 12.3 25.3 12 24.4 12 C 24.1 12 23.4 12 23.4 12.4 C 23.4 12.43 23.4 12.8 23.4 12.8 L 22.3 12.8 C 22.3 12.8 22.31 12.18 22.3 12.2 C 22.3 11.2 23.8 11 24.4 11 C 26.4 11 26.9 12.1 26.9 13.4 C 26.9 13.4 26.9 16 26.9 16 C 26.9 16.2 27 16.3 27.2 16.3 C 27.17 16.26 27.7 16.3 27.7 16.3 L 27.7 17.3 C 27.7 17.3 26.57 17.26 26.6 17.3 C 26 17.3 25.8 17 25.8 16.6 C 25.8 16.4 25.8 16.2 25.8 16.2 C 25.84 16.2 25.8 16.2 25.8 16.2 C 25.8 16.2 25.34 17.4 23.9 17.4 C 22.8 17.4 21.8 16.8 21.8 15.6 C 21.8 13.6 24.5 13.5 25.5 13.5 Z M 24.1 16.5 C 25.1 16.5 25.8 15.4 25.8 14.5 C 25.76 14.53 25.8 14.3 25.8 14.3 C 25.8 14.3 25.46 14.33 25.5 14.3 C 24.6 14.3 23 14.4 23 15.5 C 23 16 23.4 16.5 24.1 16.5 Z M 28.4 12.4 C 28.3 12.2 28.2 12.2 28 12.2 C 28.05 12.18 27.9 12.2 27.9 12.2 L 27.9 11.2 C 27.9 11.2 28.53 11.18 28.5 11.2 C 29.1 11.2 29.3 11.3 29.5 11.8 C 29.5 11.8 30.8 15.3 30.8 15.3 C 30.88 15.62 31 16.1 31 16.1 L 31 16.1 C 31 16.1 31.1 15.62 31.2 15.3 C 31.2 15.3 32.5 11.8 32.5 11.8 C 32.7 11.3 32.9 11.2 33.4 11.2 C 33.44 11.18 34 11.2 34 11.2 L 34 12.2 C 34 12.2 33.88 12.18 33.9 12.2 C 33.7 12.2 33.6 12.2 33.5 12.4 C 33.48 12.42 31.6 17.3 31.6 17.3 L 30.3 17.3 C 30.3 17.3 28.42 12.42 28.4 12.4 Z M 38.4 12.4 C 38.4 12.3 38.3 12.2 38.1 12.2 C 38.14 12.18 37.6 12.2 37.6 12.2 L 37.6 11.2 C 37.6 11.2 38.74 11.18 38.7 11.2 C 39.3 11.2 39.5 11.4 39.5 11.8 C 39.5 12 39.5 12.1 39.5 12.1 C 39.47 12.12 39.5 12.1 39.5 12.1 C 39.5 12.1 40 11.04 41.5 11 C 43.1 11 44.2 12.3 44.2 14.2 C 44.2 16.2 43 17.4 41.4 17.4 C 40.08 17.4 39.6 16.4 39.6 16.4 L 39.5 16.4 C 39.5 16.4 39.57 16.64 39.6 17 C 39.57 16.96 39.6 19.7 39.6 19.7 L 38.4 19.7 C 38.4 19.7 38.4 12.44 38.4 12.4 Z M 41.2 16.4 C 42.2 16.4 43 15.6 43 14.2 C 43 12.9 42.3 12.1 41.3 12.1 C 40.4 12.1 39.5 12.7 39.5 14.2 C 39.5 15.3 40.1 16.4 41.2 16.4 Z M 48.3 11 C 50.1 11 51.6 12.4 51.6 14.2 C 51.6 16.1 50.1 17.4 48.3 17.4 C 46.5 17.4 45.1 16.1 45.1 14.2 C 45.1 12.4 46.5 11 48.3 11 Z M 48.3 16.4 C 49.5 16.4 50.4 15.5 50.4 14.2 C 50.4 12.9 49.5 12 48.3 12 C 47.2 12 46.3 12.9 46.3 14.2 C 46.3 15.5 47.2 16.4 48.3 16.4 Z M 52.9 10 C 52.9 9.9 52.8 9.8 52.6 9.8 C 52.64 9.78 52.1 9.8 52.1 9.8 L 52.1 8.8 C 52.1 8.8 53.3 8.78 53.3 8.8 C 53.8 8.8 54.1 8.9 54.1 9.5 C 54.06 9.48 54.1 13.4 54.1 13.4 C 54.1 13.4 54.6 13.42 54.6 13.4 C 54.8 13.4 55.1 13.4 55.2 13.2 C 55.24 13.15 56.6 11.2 56.6 11.2 L 58 11.2 C 58 11.2 56.33 13.44 56.3 13.4 C 56.06 13.81 55.9 13.9 55.9 13.9 L 55.9 13.9 C 55.9 13.9 56.08 13.99 56.3 14.4 C 56.3 14.4 57.2 16 57.2 16 C 57.3 16.2 57.4 16.3 57.7 16.3 C 57.7 16.26 58.1 16.3 58.1 16.3 L 58.1 17.3 C 58.1 17.3 57.23 17.26 57.2 17.3 C 56.7 17.3 56.5 17.2 56.2 16.7 C 56.2 16.7 55.1 14.7 55.1 14.7 C 55 14.4 54.7 14.4 54.5 14.4 C 54.52 14.4 54.1 14.4 54.1 14.4 L 54.1 17.3 L 52.9 17.3 C 52.9 17.3 52.9 10.04 52.9 10 Z M 61.8 11 C 63.6 11 65.1 12.4 65.1 14.2 C 65.1 16.1 63.6 17.4 61.8 17.4 C 60 17.4 58.6 16.1 58.6 14.2 C 58.6 12.4 60 11 61.8 11 Z M 61.8 16.4 C 63 16.4 63.9 15.5 63.9 14.2 C 63.9 12.9 63 12 61.8 12 C 60.7 12 59.7 12.9 59.7 14.2 C 59.7 15.5 60.7 16.4 61.8 16.4 Z M 65.8 16.6 C 65.8 16.6 68.91 12.74 68.9 12.7 C 69.17 12.42 69.4 12.2 69.4 12.2 L 69.4 12.2 C 69.4 12.2 69.22 12.18 68.8 12.2 C 68.8 12.2 67.2 12.2 67.2 12.2 C 67 12.2 66.9 12.3 66.9 12.4 C 66.9 12.44 66.9 12.9 66.9 12.9 L 65.8 12.9 C 65.8 12.9 65.84 11.95 65.8 12 C 65.8 11.4 66.1 11.2 66.6 11.2 C 66.6 11.18 70.9 11.2 70.9 11.2 L 70.9 11.9 C 70.9 11.9 67.83 15.71 67.8 15.7 C 67.58 16.01 67.3 16.3 67.3 16.3 L 67.3 16.3 C 67.3 16.3 67.52 16.26 67.9 16.3 C 67.9 16.3 69.9 16.3 69.9 16.3 C 70 16.3 70.1 16.2 70.1 16 C 70.12 16 70.1 15.6 70.1 15.6 L 71.2 15.6 C 71.2 15.6 71.18 16.49 71.2 16.5 C 71.2 17 70.9 17.3 70.4 17.3 C 70.41 17.26 65.8 17.3 65.8 17.3 L 65.8 16.6 Z M 66.9 8.8 L 67.9 8.8 L 68.5 9.8 L 68.5 9.8 L 69.2 8.8 L 70.1 8.8 L 69.1 10.3 L 68 10.3 L 66.9 8.8 Z M 72.4 10 C 72.4 9.9 72.3 9.8 72.2 9.8 C 72.17 9.78 71.7 9.8 71.7 9.8 L 71.7 8.8 C 71.7 8.8 72.83 8.78 72.8 8.8 C 73.4 8.8 73.6 8.9 73.6 9.5 C 73.6 9.48 73.6 13.4 73.6 13.4 C 73.6 13.4 74.14 13.42 74.1 13.4 C 74.4 13.4 74.6 13.4 74.8 13.2 C 74.78 13.15 76.2 11.2 76.2 11.2 L 77.5 11.2 C 77.5 11.2 75.87 13.44 75.9 13.4 C 75.59 13.81 75.4 13.9 75.4 13.9 L 75.4 13.9 C 75.4 13.9 75.62 13.99 75.8 14.4 C 75.8 14.4 76.7 16 76.7 16 C 76.8 16.2 76.9 16.3 77.2 16.3 C 77.24 16.26 77.6 16.3 77.6 16.3 L 77.6 17.3 C 77.6 17.3 76.77 17.26 76.8 17.3 C 76.2 17.3 76 17.2 75.8 16.7 C 75.8 16.7 74.7 14.7 74.7 14.7 C 74.5 14.4 74.2 14.4 74.1 14.4 C 74.06 14.4 73.6 14.4 73.6 14.4 L 73.6 17.3 L 72.4 17.3 C 72.4 17.3 72.44 10.04 72.4 10 Z M 79.1 18.8 C 79.5 18.8 79.9 18.4 80.1 17.9 C 80.13 17.89 80.4 17.2 80.4 17.2 C 80.4 17.2 78.33 12.42 78.3 12.4 C 78.2 12.2 78.1 12.2 77.9 12.2 C 77.94 12.18 77.8 12.2 77.8 12.2 L 77.8 11.2 C 77.8 11.2 78.48 11.18 78.5 11.2 C 79 11.2 79.2 11.3 79.3 11.8 C 79.3 11.8 80.7 15.2 80.7 15.2 C 80.85 15.53 80.9 15.9 80.9 15.9 L 81 15.9 C 81 15.9 81.05 15.53 81.2 15.2 C 81.2 15.2 82.4 11.8 82.4 11.8 C 82.6 11.3 82.8 11.2 83.3 11.2 C 83.32 11.18 84 11.2 84 11.2 L 84 12.2 C 84 12.2 83.86 12.18 83.9 12.2 C 83.7 12.2 83.6 12.2 83.5 12.4 C 83.5 12.4 81.1 18.3 81.1 18.3 C 80.7 19.3 80 19.8 79.1 19.8 C 78.22 19.78 77.7 19.2 77.7 19.2 C 77.7 19.2 78.17 18.34 78.2 18.3 C 78.2 18.3 78.5 18.8 79.1 18.8 Z " stroke="none" fill="#000"/>  </g></svg>