<?xml version="1.0" standalone="no"?><!DOCTYPE svg PUBLIC "-//W3C//DTD SVG 1.1//EN" "http://www.w3.org/Graphics/SVG/1.1/DTD/svg11.dtd"><svg xmlns="http://www.w3.org/2000/svg" version="1.1" width="53px" height="20.5px" viewBox="0 -2 53 20.5" style="top:-2px">  <desc>E2V/DNG</desc>  <defs/>  <g id="Polygon72909">    <path d="M 5.6 1.3 L 4.9 1.3 L 4.9 0.4 C 4.9 0.4 9.06 0.44 9.1 0.4 C 9.5 0.4 9.7 0.6 9.7 1.1 C 9.7 1.08 9.7 2 9.7 2 L 8.8 2 C 8.8 2 8.79 1.52 8.8 1.5 C 8.8 1.4 8.7 1.3 8.6 1.3 C 8.57 1.3 6.6 1.3 6.6 1.3 L 6.6 3.5 L 9 3.5 L 9 4.4 L 6.6 4.4 C 6.6 4.4 6.56 6.42 6.6 6.4 C 6.6 6.6 6.6 6.6 6.8 6.6 C 6.8 6.6 8.8 6.6 8.8 6.6 C 9 6.6 9.1 6.6 9.1 6.4 C 9.06 6.42 9.1 6 9.1 6 L 10 6 C 10 6 9.98 6.86 10 6.9 C 10 7.3 9.8 7.5 9.3 7.5 C 9.3 7.5 6.2 7.5 6.2 7.5 C 5.8 7.5 5.6 7.3 5.6 6.9 C 5.56 6.86 5.6 1.3 5.6 1.3 Z M 14.2 2.4 C 14.2 1.7 13.7 1.2 12.9 1.2 C 12.3 1.2 11.9 1.6 11.9 1.9 C 11.85 1.91 11.9 2.2 11.9 2.2 L 10.9 2.2 C 10.9 2.2 10.93 1.62 10.9 1.6 C 10.9 0.7 12.2 0.3 13 0.3 C 14.3 0.3 15.2 1.1 15.2 2.3 C 15.2 4.8 11.6 4.8 11.6 6.5 C 11.6 6.6 11.7 6.6 11.9 6.6 C 11.9 6.6 14.4 6.6 14.4 6.6 C 14.5 6.6 14.6 6.6 14.6 6.4 C 14.6 6.42 14.6 6 14.6 6 L 15.5 6 C 15.5 6 15.52 6.86 15.5 6.9 C 15.5 7.3 15.3 7.5 14.9 7.5 C 14.9 7.5 11.3 7.5 11.3 7.5 C 10.7 7.5 10.6 7.3 10.6 6.7 C 10.6 4.1 14.2 4.3 14.2 2.4 Z M 16.5 1.5 C 16.5 1.3 16.4 1.3 16.2 1.3 C 16.2 1.3 16.1 1.3 16.1 1.3 L 16.1 0.4 C 16.1 0.4 16.62 0.44 16.6 0.4 C 17.1 0.4 17.3 0.6 17.5 1 C 17.5 1 19 5.4 19 5.4 C 19.13 5.75 19.3 6.3 19.3 6.3 L 19.3 6.3 C 19.3 6.3 19.42 5.75 19.6 5.4 C 19.6 5.4 21.1 1 21.1 1 C 21.3 0.6 21.4 0.4 21.9 0.4 C 21.94 0.44 22.5 0.4 22.5 0.4 L 22.5 1.3 C 22.5 1.3 22.36 1.3 22.4 1.3 C 22.2 1.3 22.1 1.3 22 1.5 C 22.03 1.52 19.8 7.5 19.8 7.5 L 18.8 7.5 C 18.8 7.5 16.53 1.52 16.5 1.5 Z M 25.2 0.1 L 26 0.1 L 23.5 7.9 L 22.6 7.9 L 25.2 0.1 Z M 27.1 1.3 L 26.5 1.3 L 26.5 0.4 C 26.5 0.4 29.32 0.44 29.3 0.4 C 31.5 0.4 32.9 1.7 32.9 4 C 32.9 6.2 31.5 7.5 29.3 7.5 C 29.3 7.5 27.8 7.5 27.8 7.5 C 27.3 7.5 27.1 7.3 27.1 6.9 C 27.11 6.86 27.1 1.3 27.1 1.3 Z M 28.3 6.6 C 28.3 6.6 29.3 6.6 29.3 6.6 C 30.8 6.6 31.9 5.7 31.9 4 C 31.9 2.2 30.8 1.3 29.3 1.3 C 29.25 1.3 28.1 1.3 28.1 1.3 C 28.1 1.3 28.11 6.42 28.1 6.4 C 28.1 6.6 28.2 6.6 28.3 6.6 Z M 33.6 6.6 C 33.6 6.6 34.04 6.64 34 6.6 C 34.2 6.6 34.3 6.6 34.3 6.4 C 34.26 6.42 34.3 0.4 34.3 0.4 L 35.2 0.4 C 35.2 0.4 38.31 4.91 38.3 4.9 C 38.57 5.29 38.9 5.9 38.9 5.9 L 38.9 5.9 C 38.9 5.9 38.85 5.31 38.9 4.9 C 38.9 4.9 38.9 1.1 38.9 1.1 C 38.9 0.6 39 0.4 39.5 0.4 C 39.5 0.44 40.5 0.4 40.5 0.4 L 40.5 1.3 C 40.5 1.3 40.07 1.3 40.1 1.3 C 39.9 1.3 39.9 1.4 39.9 1.5 C 39.85 1.52 39.9 7.5 39.9 7.5 L 39 7.5 C 39 7.5 35.8 3.03 35.8 3 C 35.54 2.65 35.2 2.1 35.2 2.1 L 35.2 2.1 C 35.2 2.1 35.26 2.64 35.3 3 C 35.3 3 35.3 6.9 35.3 6.9 C 35.3 7.3 35.1 7.5 34.6 7.5 C 34.62 7.5 33.6 7.5 33.6 7.5 L 33.6 6.6 Z M 44.8 0.3 C 46.48 0.32 47.3 1.2 47.3 1.2 L 46.7 1.9 C 46.7 1.9 45.98 1.24 44.8 1.2 C 43.4 1.2 42.3 2.4 42.3 3.9 C 42.3 5.6 43.4 6.7 44.8 6.7 C 46.09 6.68 46.8 5.8 46.8 5.8 C 46.8 5.8 46.84 5.09 46.8 5.1 C 46.8 4.9 46.8 4.9 46.6 4.9 C 46.62 4.87 46.2 4.9 46.2 4.9 L 46.2 4 C 46.2 4 47.12 4.01 47.1 4 C 47.6 4 47.8 4.2 47.8 4.6 C 47.76 4.65 47.8 7.5 47.8 7.5 L 46.9 7.5 C 46.9 7.5 46.88 7.06 46.9 7.1 C 46.9 6.9 46.9 6.8 46.9 6.8 C 46.89 6.76 46.9 6.8 46.9 6.8 C 46.9 6.8 46.08 7.62 44.7 7.6 C 42.8 7.6 41.2 6.1 41.2 3.9 C 41.2 1.9 42.8 0.3 44.8 0.3 Z " stroke="none" fill="#000"/>  </g></svg>