<?xml version="1.0" standalone="no"?><!DOCTYPE svg PUBLIC "-//W3C//DTD SVG 1.1//EN" "http://www.w3.org/Graphics/SVG/1.1/DTD/svg11.dtd"><svg xmlns="http://www.w3.org/2000/svg" version="1.1" width="49.3px" height="19px" viewBox="0 -3 49.3 19" style="top:-3px">  <desc>165,0 %</desc>  <defs/>  <g id="Polygon75792">    <path d="M 4.4 8 L 6.3 8 C 6.3 8 6.28 2.5 6.3 2.5 C 6.28 2.23 6.3 2 6.3 2 L 6.3 2 C 6.3 2 6.17 2.16 5.9 2.5 C 5.87 2.46 5.1 3.2 5.1 3.2 L 4.4 2.5 L 6.4 0.5 L 7.5 0.5 L 7.5 8 L 9.3 8 L 9.3 9 L 4.4 9 L 4.4 8 Z M 10 5.2 C 10 3 11.2 0.4 13.8 0.4 C 14.84 0.38 15.5 0.7 15.5 0.7 L 15.1 1.8 C 15.1 1.8 14.55 1.48 13.9 1.5 C 12.3 1.5 11.5 2.9 11.3 4.4 C 11.3 4.4 11.4 4.4 11.4 4.4 C 11.7 3.9 12.5 3.6 13.2 3.6 C 14.8 3.6 15.9 4.8 15.9 6.3 C 15.9 8 14.8 9.1 13.2 9.1 C 11.4 9.1 10 7.6 10 5.2 Z M 13.2 8.1 C 14.2 8.1 14.7 7.3 14.7 6.3 C 14.7 5.3 14.1 4.6 13 4.6 C 12 4.6 11.3 5.1 11.3 5.7 C 11.3 6.8 12.1 8.1 13.2 8.1 Z M 17.6 7.1 C 17.6 7.1 18.24 8.02 19.5 8 C 20.6 8 21.4 7.3 21.4 6.3 C 21.4 5.3 20.5 4.6 19.3 4.6 C 18.41 4.6 17.7 5 17.7 5 L 17.2 4.8 C 17.2 4.8 17.58 1.3 17.6 1.3 C 17.6 0.8 17.8 0.5 18.4 0.5 C 18.4 0.5 21.3 0.5 21.3 0.5 C 21.8 0.5 22.1 0.8 22.1 1.3 C 22.07 1.3 22.1 2.4 22.1 2.4 L 21 2.4 C 21 2.4 20.98 1.82 21 1.8 C 21 1.6 20.9 1.6 20.7 1.6 C 20.7 1.6 18.9 1.6 18.9 1.6 C 18.8 1.6 18.7 1.6 18.7 1.8 C 18.7 1.8 18.5 3.4 18.5 3.4 C 18.48 3.64 18.4 3.8 18.4 3.8 L 18.5 3.8 C 18.5 3.8 18.93 3.56 19.6 3.6 C 21.4 3.6 22.6 4.8 22.6 6.3 C 22.6 7.8 21.4 9.1 19.5 9.1 C 17.79 9.14 16.9 8 16.9 8 L 17.6 7.1 Z M 25.3 7.7 L 24.3 10.2 L 23.4 10.2 L 24.1 7.7 L 25.3 7.7 Z M 26.4 4.8 C 26.4 2.3 27.1 0.4 29.4 0.4 C 31.7 0.4 32.4 2.3 32.4 4.8 C 32.4 7.2 31.7 9.1 29.4 9.1 C 27.1 9.1 26.4 7.2 26.4 4.8 Z M 31.2 4.8 C 31.2 2.9 30.8 1.5 29.4 1.5 C 28 1.5 27.6 2.9 27.6 4.8 C 27.6 6.6 28 8.1 29.4 8.1 C 30.8 8.1 31.2 6.6 31.2 4.8 Z M 37 2.2 C 37 1.2 37.8 0.4 38.8 0.4 C 39.8 0.4 40.6 1.2 40.6 2.2 C 40.6 3.1 39.8 3.9 38.8 3.9 C 37.8 3.9 37 3.1 37 2.2 Z M 43.6 0.5 L 44.8 0.5 L 38.3 9 L 37.2 9 L 43.6 0.5 Z M 39.7 2.2 C 39.7 1.7 39.3 1.3 38.8 1.3 C 38.3 1.3 37.9 1.7 37.9 2.2 C 37.9 2.7 38.3 3 38.8 3 C 39.3 3 39.7 2.7 39.7 2.2 Z M 43.2 5.6 C 44.2 5.6 45 6.4 45 7.4 C 45 8.4 44.2 9.1 43.2 9.1 C 42.1 9.1 41.3 8.4 41.3 7.4 C 41.3 6.4 42.1 5.6 43.2 5.6 Z M 42.3 7.4 C 42.3 7.9 42.6 8.3 43.2 8.3 C 43.6 8.3 44 7.9 44 7.4 C 44 6.9 43.6 6.5 43.2 6.5 C 42.6 6.5 42.3 6.9 42.3 7.4 C 42.3 7.4 42.3 7.4 42.3 7.4 Z " stroke="none" fill="#000"/>  </g></svg>