<?xml version="1.0" standalone="no"?><!DOCTYPE svg PUBLIC "-//W3C//DTD SVG 1.1//EN" "http://www.w3.org/Graphics/SVG/1.1/DTD/svg11.dtd"><svg xmlns="http://www.w3.org/2000/svg" version="1.1" width="527px" height="41.7px" viewBox="0 -1 527 41.7" style="top:-1px">  <desc>1,2,3,4,5,6,7,8,9,10,11,12,(2,178),(1,932),(1,788),(1,676),(1,554),(1,482),(1,418),(1,339),(1,308),(859),(759),(726)</desc>  <defs/>  <g class="svg-tables">    <g class="svg-table-background"/>  </g>  <g id="Polygon79055">    <path d="M 498.2 29.8 C 497.8 29.2 497.5 28.6 497.2 27.8 C 497 27.1 496.9 26.3 496.9 25.6 C 496.9 24.8 497 24 497.2 23.3 C 497.5 22.6 497.8 21.9 498.2 21.3 C 498.2 21.31 498.8 21.3 498.8 21.3 C 498.8 21.3 498.78 21.34 498.8 21.3 C 498.4 21.9 498 22.6 497.8 23.3 C 497.6 24.1 497.5 24.8 497.5 25.6 C 497.5 26.4 497.6 27.1 497.8 27.8 C 498 28.5 498.4 29.2 498.8 29.8 C 498.78 29.8 498.8 29.8 498.8 29.8 L 498.2 29.8 C 498.2 29.8 498.2 29.84 498.2 29.8 Z M 500.1 28.6 L 499.6 28.5 L 499.6 28.4 L 501.5 23 L 499.1 23 L 499.1 22.4 L 499.1 22.4 L 502 22.4 L 502.1 22.7 L 502.1 23 L 500.2 28.5 L 500.1 28.6 Z M 502.6 27.7 C 502.6 27.4 502.7 27.2 502.7 27 C 502.8 26.8 502.9 26.6 503 26.4 C 503.1 26.2 503.3 26 503.4 25.9 C 503.6 25.7 503.8 25.5 504.1 25.4 C 504.5 25.1 504.8 24.9 504.9 24.6 C 505.1 24.4 505.2 24.2 505.2 23.9 C 505.2 23.2 504.8 22.9 504.1 22.9 C 503.7 22.9 503.3 22.9 502.9 23.1 C 502.9 23.1 502.8 22.5 502.8 22.5 C 503.1 22.4 503.3 22.4 503.5 22.3 C 503.8 22.3 504 22.3 504.2 22.3 C 505.3 22.3 505.8 22.8 505.8 23.8 C 505.8 24 505.8 24.2 505.8 24.4 C 505.7 24.5 505.6 24.7 505.5 24.9 C 505.4 25 505.3 25.2 505.1 25.3 C 505 25.5 504.8 25.6 504.5 25.8 C 504.3 25.9 504.1 26.1 504 26.2 C 503.8 26.4 503.7 26.5 503.6 26.7 C 503.5 26.8 503.4 26.9 503.4 27.1 C 503.3 27.2 503.3 27.4 503.3 27.6 C 503.31 27.56 503.3 27.9 503.3 27.9 L 505.8 27.9 L 505.8 28.5 L 502.6 28.5 C 502.6 28.5 502.63 27.69 502.6 27.7 Z M 508.6 28.6 C 507.9 28.6 507.4 28.4 507.1 27.9 C 506.8 27.4 506.6 26.7 506.6 25.8 C 506.6 25.2 506.7 24.7 506.8 24.3 C 506.9 23.9 507.1 23.5 507.3 23.2 C 507.5 22.9 507.7 22.7 508 22.5 C 508.4 22.4 508.7 22.3 509.1 22.3 C 509.3 22.3 509.4 22.3 509.6 22.3 C 509.7 22.3 509.9 22.4 510.1 22.4 C 510.1 22.4 510 23 510 23 C 509.8 22.9 509.7 22.9 509.5 22.9 C 509.4 22.8 509.3 22.8 509.1 22.8 C 508.6 22.8 508.1 23.1 507.8 23.5 C 507.5 23.9 507.3 24.5 507.3 25.3 C 507.5 25.1 507.7 25 507.9 24.9 C 508.2 24.8 508.4 24.7 508.7 24.7 C 508.9 24.7 509.2 24.8 509.4 24.9 C 509.6 25 509.8 25.1 509.9 25.2 C 510.1 25.4 510.2 25.6 510.3 25.8 C 510.4 26 510.4 26.3 510.4 26.5 C 510.4 26.9 510.4 27.1 510.3 27.4 C 510.2 27.6 510.1 27.9 509.9 28 C 509.8 28.2 509.6 28.4 509.3 28.5 C 509.1 28.6 508.9 28.6 508.6 28.6 Z M 508.6 25.3 C 508.3 25.3 508.1 25.3 507.9 25.4 C 507.7 25.5 507.4 25.7 507.3 25.9 C 507.3 26.6 507.4 27.2 507.6 27.5 C 507.8 27.9 508.1 28 508.6 28 C 508.9 28 509.2 27.9 509.4 27.6 C 509.6 27.4 509.7 27 509.7 26.5 C 509.7 26.1 509.6 25.8 509.4 25.6 C 509.2 25.4 508.9 25.3 508.6 25.3 Z M 510.7 29.8 C 510.7 29.8 510.66 29.8 510.7 29.8 C 511.1 29.2 511.4 28.5 511.6 27.8 C 511.8 27.1 512 26.4 512 25.6 C 512 24.8 511.8 24.1 511.6 23.3 C 511.4 22.6 511.1 21.9 510.7 21.3 C 510.66 21.34 510.7 21.3 510.7 21.3 C 510.7 21.3 511.24 21.31 511.2 21.3 C 511.7 21.9 512 22.6 512.2 23.3 C 512.4 24 512.5 24.8 512.5 25.6 C 512.5 26.3 512.4 27.1 512.2 27.8 C 512 28.6 511.7 29.2 511.2 29.8 C 511.24 29.84 510.7 29.8 510.7 29.8 Z " stroke="none" fill="#000"/>  </g>  <g id="Polygon79054">    <path d="M 454.5 29.8 C 454 29.2 453.7 28.6 453.5 27.8 C 453.3 27.1 453.2 26.3 453.2 25.6 C 453.2 24.8 453.3 24 453.5 23.3 C 453.7 22.6 454 21.9 454.5 21.3 C 454.47 21.31 455 21.3 455 21.3 C 455 21.3 455.05 21.34 455 21.3 C 454.6 21.9 454.3 22.6 454.1 23.3 C 453.9 24.1 453.8 24.8 453.8 25.6 C 453.8 26.4 453.9 27.1 454.1 27.8 C 454.3 28.5 454.6 29.2 455 29.8 C 455.05 29.8 455 29.8 455 29.8 L 454.5 29.8 C 454.5 29.8 454.47 29.84 454.5 29.8 Z M 456.4 28.6 L 455.8 28.5 L 455.8 28.4 L 457.8 23 L 455.4 23 L 455.3 22.4 L 455.4 22.4 L 458.3 22.4 L 458.4 22.7 L 458.4 23 L 456.5 28.5 L 456.4 28.6 Z M 460 28.6 C 459.7 28.6 459.3 28.6 459 28.5 C 458.95 28.49 459 27.9 459 27.9 C 459 27.9 459.1 27.94 459.1 27.9 C 459.4 28 459.7 28 459.9 28 C 460.8 28 461.3 27.6 461.3 26.7 C 461.3 26.5 461.3 26.3 461.2 26.1 C 461.1 26 461 25.9 460.9 25.8 C 460.8 25.7 460.6 25.6 460.4 25.5 C 460.2 25.5 459.9 25.5 459.6 25.5 C 459.6 25.47 459.1 25.5 459.1 25.5 L 459 25.4 L 459.3 22.4 L 461.7 22.4 L 461.7 22.9 L 459.8 22.9 C 459.8 22.9 459.66 24.94 459.7 24.9 C 460.1 24.9 460.4 25 460.7 25 C 461 25.1 461.3 25.2 461.4 25.4 C 461.6 25.5 461.8 25.7 461.8 25.9 C 461.9 26.1 462 26.4 462 26.7 C 462 27.4 461.8 27.8 461.5 28.1 C 461.1 28.5 460.6 28.6 460 28.6 Z M 464.4 22.3 C 465.1 22.3 465.6 22.5 465.9 23 C 466.2 23.5 466.4 24.2 466.4 25.1 C 466.4 25.7 466.3 26.1 466.2 26.6 C 466.1 27 466 27.4 465.7 27.7 C 465.5 28 465.3 28.2 465 28.4 C 464.7 28.5 464.3 28.6 463.9 28.6 C 463.8 28.6 463.6 28.6 463.5 28.6 C 463.3 28.5 463.1 28.5 462.9 28.5 C 462.9 28.5 463 27.9 463 27.9 C 463.2 28 463.3 28 463.5 28 C 463.6 28 463.8 28 463.9 28 C 464.5 28 464.9 27.8 465.2 27.4 C 465.5 27 465.7 26.4 465.7 25.6 C 465.5 25.7 465.3 25.9 465.1 26 C 464.8 26.1 464.6 26.1 464.3 26.1 C 464.1 26.1 463.8 26.1 463.6 26 C 463.4 25.9 463.2 25.8 463.1 25.7 C 462.9 25.5 462.8 25.3 462.7 25.1 C 462.6 24.9 462.6 24.6 462.6 24.3 C 462.6 24 462.6 23.7 462.7 23.5 C 462.8 23.2 462.9 23 463.1 22.8 C 463.3 22.7 463.5 22.5 463.7 22.4 C 463.9 22.3 464.2 22.3 464.4 22.3 Z M 464.5 25.6 C 464.7 25.6 464.9 25.6 465.1 25.5 C 465.4 25.3 465.6 25.2 465.7 25 C 465.7 24.3 465.6 23.7 465.4 23.4 C 465.2 23 464.9 22.8 464.4 22.8 C 464.1 22.8 463.8 23 463.6 23.2 C 463.4 23.5 463.3 23.9 463.3 24.3 C 463.3 24.8 463.4 25.1 463.6 25.3 C 463.8 25.5 464.1 25.6 464.5 25.6 Z M 466.6 29.8 C 466.6 29.8 466.62 29.8 466.6 29.8 C 467 29.2 467.3 28.5 467.6 27.8 C 467.8 27.1 467.9 26.4 467.9 25.6 C 467.9 24.8 467.8 24.1 467.6 23.3 C 467.3 22.6 467 21.9 466.6 21.3 C 466.62 21.34 466.6 21.3 466.6 21.3 C 466.6 21.3 467.2 21.31 467.2 21.3 C 467.6 21.9 467.9 22.6 468.1 23.3 C 468.4 24 468.5 24.8 468.5 25.6 C 468.5 26.3 468.4 27.1 468.1 27.8 C 467.9 28.6 467.6 29.2 467.2 29.8 C 467.2 29.84 466.6 29.8 466.6 29.8 Z " stroke="none" fill="#000"/>  </g>  <g id="Polygon79053">    <path d="M 410.2 29.8 C 409.8 29.2 409.4 28.6 409.2 27.8 C 409 27.1 408.9 26.3 408.9 25.6 C 408.9 24.8 409 24 409.2 23.3 C 409.4 22.6 409.8 21.9 410.2 21.3 C 410.17 21.31 410.8 21.3 410.8 21.3 C 410.8 21.3 410.76 21.34 410.8 21.3 C 410.3 21.9 410 22.6 409.8 23.3 C 409.6 24.1 409.5 24.8 409.5 25.6 C 409.5 26.4 409.6 27.1 409.8 27.8 C 410 28.5 410.3 29.2 410.8 29.8 C 410.76 29.8 410.8 29.8 410.8 29.8 L 410.2 29.8 C 410.2 29.8 410.17 29.84 410.2 29.8 Z M 412.9 28.5 C 412.3 28.5 411.8 28.4 411.5 28.1 C 411.2 27.9 411 27.5 411 27 C 411 26.8 411 26.6 411.1 26.4 C 411.2 26.2 411.2 26.1 411.3 25.9 C 411.4 25.8 411.5 25.7 411.6 25.6 C 411.8 25.5 411.9 25.4 412 25.3 C 411.8 25.2 411.6 25 411.4 24.8 C 411.3 24.5 411.2 24.2 411.2 23.9 C 411.2 23.4 411.3 23 411.6 22.7 C 411.9 22.4 412.3 22.3 412.9 22.3 C 413.4 22.3 413.8 22.4 414.1 22.7 C 414.4 23 414.5 23.4 414.5 23.9 C 414.5 24.3 414.4 24.6 414.3 24.8 C 414.1 25 413.9 25.2 413.7 25.4 C 414 25.5 414.2 25.7 414.4 25.9 C 414.6 26.2 414.7 26.5 414.7 26.9 C 414.7 27.4 414.5 27.8 414.2 28.1 C 413.9 28.4 413.4 28.5 412.9 28.5 Z M 412.5 25.6 C 412.3 25.7 412.1 25.9 411.9 26.1 C 411.7 26.3 411.6 26.5 411.6 26.9 C 411.6 27.3 411.8 27.6 412 27.8 C 412.2 27.9 412.5 28 412.9 28 C 413.2 28 413.5 28 413.7 27.8 C 414 27.6 414.1 27.3 414.1 27 C 414.1 26.8 414 26.6 414 26.5 C 413.9 26.3 413.8 26.2 413.7 26.1 C 413.6 26 413.5 25.9 413.3 25.8 C 413.2 25.8 413 25.7 412.8 25.6 C 412.8 25.6 412.5 25.6 412.5 25.6 Z M 411.8 23.9 C 411.8 24.1 411.8 24.2 411.9 24.4 C 411.9 24.5 412 24.6 412.1 24.7 C 412.2 24.8 412.4 24.9 412.5 25 C 412.7 25 412.9 25.1 413.1 25.2 C 413.1 25.2 413.1 25.2 413.1 25.2 C 413.3 25.1 413.5 24.9 413.7 24.7 C 413.8 24.5 413.9 24.2 413.9 23.9 C 413.9 23.5 413.8 23.3 413.6 23.1 C 413.4 22.9 413.2 22.8 412.9 22.8 C 412.5 22.8 412.3 22.9 412.1 23.1 C 411.9 23.3 411.8 23.5 411.8 23.9 Z M 416.5 28.6 C 416.2 28.6 415.8 28.6 415.5 28.5 C 415.47 28.49 415.5 27.9 415.5 27.9 C 415.5 27.9 415.62 27.94 415.6 27.9 C 415.9 28 416.2 28 416.5 28 C 417.4 28 417.8 27.6 417.8 26.7 C 417.8 26.5 417.8 26.3 417.7 26.1 C 417.7 26 417.6 25.9 417.4 25.8 C 417.3 25.7 417.1 25.6 416.9 25.5 C 416.7 25.5 416.4 25.5 416.1 25.5 C 416.11 25.47 415.6 25.5 415.6 25.5 L 415.6 25.4 L 415.8 22.4 L 418.2 22.4 L 418.2 22.9 L 416.3 22.9 C 416.3 22.9 416.17 24.94 416.2 24.9 C 416.6 24.9 416.9 25 417.2 25 C 417.5 25.1 417.8 25.2 418 25.4 C 418.1 25.5 418.3 25.7 418.4 25.9 C 418.4 26.1 418.5 26.4 418.5 26.7 C 418.5 27.4 418.3 27.8 418 28.1 C 417.6 28.5 417.1 28.6 416.5 28.6 Z M 421 22.3 C 421.6 22.3 422.1 22.5 422.4 23 C 422.7 23.5 422.9 24.2 422.9 25.1 C 422.9 25.7 422.9 26.1 422.7 26.6 C 422.6 27 422.5 27.4 422.3 27.7 C 422 28 421.8 28.2 421.5 28.4 C 421.2 28.5 420.8 28.6 420.4 28.6 C 420.3 28.6 420.1 28.6 420 28.6 C 419.8 28.5 419.6 28.5 419.5 28.5 C 419.5 28.5 419.5 27.9 419.5 27.9 C 419.7 28 419.8 28 420 28 C 420.1 28 420.3 28 420.4 28 C 421 28 421.4 27.8 421.7 27.4 C 422 27 422.2 26.4 422.2 25.6 C 422 25.7 421.8 25.9 421.6 26 C 421.3 26.1 421.1 26.1 420.8 26.1 C 420.6 26.1 420.3 26.1 420.1 26 C 419.9 25.9 419.7 25.8 419.6 25.7 C 419.4 25.5 419.3 25.3 419.2 25.1 C 419.2 24.9 419.1 24.6 419.1 24.3 C 419.1 24 419.2 23.7 419.2 23.5 C 419.3 23.2 419.5 23 419.6 22.8 C 419.8 22.7 420 22.5 420.2 22.4 C 420.4 22.3 420.7 22.3 421 22.3 Z M 421 25.6 C 421.2 25.6 421.4 25.6 421.6 25.5 C 421.9 25.3 422.1 25.2 422.3 25 C 422.3 24.3 422.1 23.7 421.9 23.4 C 421.7 23 421.4 22.8 421 22.8 C 420.6 22.8 420.3 23 420.1 23.2 C 419.9 23.5 419.8 23.9 419.8 24.3 C 419.8 24.8 419.9 25.1 420.1 25.3 C 420.3 25.5 420.6 25.6 421 25.6 Z M 423.1 29.8 C 423.1 29.8 423.13 29.8 423.1 29.8 C 423.5 29.2 423.9 28.5 424.1 27.8 C 424.3 27.1 424.4 26.4 424.4 25.6 C 424.4 24.8 424.3 24.1 424.1 23.3 C 423.9 22.6 423.5 21.9 423.1 21.3 C 423.13 21.34 423.1 21.3 423.1 21.3 C 423.1 21.3 423.71 21.31 423.7 21.3 C 424.1 21.9 424.4 22.6 424.7 23.3 C 424.9 24 425 24.8 425 25.6 C 425 26.3 424.9 27.1 424.7 27.8 C 424.4 28.6 424.1 29.2 423.7 29.8 C 423.71 29.84 423.1 29.8 423.1 29.8 Z " stroke="none" fill="#000"/>  </g>  <g id="Polygon79052">    <path d="M 363.7 29.8 C 363.3 29.2 363 28.6 362.8 27.8 C 362.6 27.1 362.5 26.3 362.5 25.6 C 362.5 24.8 362.6 24 362.8 23.3 C 363 22.6 363.3 21.9 363.7 21.3 C 363.73 21.31 364.3 21.3 364.3 21.3 C 364.3 21.3 364.31 21.34 364.3 21.3 C 363.9 21.9 363.6 22.6 363.4 23.3 C 363.1 24.1 363 24.8 363 25.6 C 363 26.4 363.1 27.1 363.4 27.8 C 363.6 28.5 363.9 29.2 364.3 29.8 C 364.31 29.8 364.3 29.8 364.3 29.8 L 363.7 29.8 C 363.7 29.8 363.73 29.84 363.7 29.8 Z M 365.8 23.2 L 365.8 23.2 L 364.6 23.9 L 364.5 23.9 L 364.4 23.5 L 364.4 23.5 L 366 22.4 L 366.5 22.4 L 366.5 28.5 L 365.8 28.5 L 365.8 23.2 Z M 367.4 29.7 L 367.7 27.7 L 368.4 27.7 L 367.9 29.8 L 367.4 29.7 Z M 370.3 28.6 C 370 28.6 369.6 28.5 369.3 28.5 C 369.3 28.47 369.3 27.9 369.3 27.9 C 369.3 27.9 369.35 27.94 369.3 27.9 C 369.5 28 369.6 28 369.8 28 C 369.9 28 370.1 28 370.2 28 C 370.7 28 371 27.9 371.2 27.7 C 371.5 27.5 371.6 27.2 371.6 26.9 C 371.6 26.4 371.5 26.1 371.2 25.9 C 371 25.7 370.6 25.6 370.1 25.6 C 370.12 25.62 369.8 25.6 369.8 25.6 L 369.8 25.1 C 369.8 25.1 370.11 25.09 370.1 25.1 C 370.5 25.1 370.9 25 371.1 24.8 C 371.3 24.6 371.4 24.3 371.4 23.9 C 371.4 23.2 371 22.8 370.3 22.8 C 370.2 22.8 370 22.8 369.9 22.9 C 369.7 22.9 369.6 22.9 369.4 22.9 C 369.37 22.95 369.3 22.9 369.3 22.9 C 369.3 22.9 369.27 22.42 369.3 22.4 C 369.4 22.4 369.6 22.3 369.8 22.3 C 370 22.3 370.2 22.3 370.3 22.3 C 370.9 22.3 371.3 22.4 371.6 22.7 C 371.9 23 372.1 23.4 372.1 23.9 C 372.1 24.2 372 24.6 371.8 24.8 C 371.7 25.1 371.4 25.2 371.1 25.3 C 371.1 25.3 371.1 25.4 371.1 25.4 C 371.5 25.4 371.8 25.6 372 25.9 C 372.2 26.1 372.3 26.5 372.3 26.9 C 372.3 27.4 372.1 27.9 371.8 28.1 C 371.4 28.4 370.9 28.6 370.3 28.6 Z M 375.1 28.6 C 374.4 28.6 373.9 28.3 373.6 27.8 C 373.2 27.3 373 26.5 373 25.5 C 373 24.4 373.2 23.6 373.6 23.1 C 373.9 22.6 374.4 22.3 375.1 22.3 C 375.7 22.3 376.2 22.6 376.6 23.1 C 376.9 23.6 377.1 24.4 377.1 25.5 C 377.1 26.5 376.9 27.3 376.6 27.8 C 376.2 28.3 375.7 28.6 375.1 28.6 Z M 375.1 28 C 375.5 28 375.9 27.8 376.1 27.4 C 376.3 27 376.4 26.3 376.4 25.5 C 376.4 24.6 376.3 23.9 376.1 23.5 C 375.8 23.1 375.5 22.9 375.1 22.9 C 374.2 22.9 373.7 23.7 373.7 25.5 C 373.7 26.3 373.8 27 374 27.4 C 374.3 27.8 374.6 28 375.1 28 Z M 379.7 28.5 C 379.1 28.5 378.7 28.4 378.3 28.1 C 378 27.9 377.9 27.5 377.9 27 C 377.9 26.8 377.9 26.6 377.9 26.4 C 378 26.2 378.1 26.1 378.2 25.9 C 378.2 25.8 378.4 25.7 378.5 25.6 C 378.6 25.5 378.7 25.4 378.9 25.3 C 378.6 25.2 378.4 25 378.2 24.8 C 378.1 24.5 378 24.2 378 23.9 C 378 23.4 378.2 23 378.5 22.7 C 378.8 22.4 379.2 22.3 379.7 22.3 C 380.2 22.3 380.6 22.4 380.9 22.7 C 381.2 23 381.4 23.4 381.4 23.9 C 381.4 24.3 381.3 24.6 381.1 24.8 C 381 25 380.8 25.2 380.5 25.4 C 380.8 25.5 381.1 25.7 381.3 25.9 C 381.4 26.2 381.5 26.5 381.5 26.9 C 381.5 27.4 381.4 27.8 381 28.1 C 380.7 28.4 380.3 28.5 379.7 28.5 Z M 379.4 25.6 C 379.1 25.7 378.9 25.9 378.7 26.1 C 378.6 26.3 378.5 26.5 378.5 26.9 C 378.5 27.3 378.6 27.6 378.8 27.8 C 379 27.9 379.3 28 379.7 28 C 380.1 28 380.4 28 380.6 27.8 C 380.8 27.6 380.9 27.3 380.9 27 C 380.9 26.8 380.9 26.6 380.8 26.5 C 380.8 26.3 380.7 26.2 380.6 26.1 C 380.5 26 380.3 25.9 380.2 25.8 C 380 25.8 379.8 25.7 379.6 25.6 C 379.6 25.6 379.4 25.6 379.4 25.6 Z M 378.6 23.9 C 378.6 24.1 378.7 24.2 378.7 24.4 C 378.8 24.5 378.9 24.6 379 24.7 C 379.1 24.8 379.2 24.9 379.4 25 C 379.5 25 379.7 25.1 379.9 25.2 C 379.9 25.2 379.9 25.2 379.9 25.2 C 380.2 25.1 380.4 24.9 380.5 24.7 C 380.7 24.5 380.8 24.2 380.8 23.9 C 380.8 23.5 380.7 23.3 380.5 23.1 C 380.3 22.9 380 22.8 379.7 22.8 C 379.4 22.8 379.1 22.9 378.9 23.1 C 378.7 23.3 378.6 23.5 378.6 23.9 Z M 381.8 29.8 C 381.8 29.8 381.79 29.8 381.8 29.8 C 382.2 29.2 382.5 28.5 382.8 27.8 C 383 27.1 383.1 26.4 383.1 25.6 C 383.1 24.8 383 24.1 382.8 23.3 C 382.5 22.6 382.2 21.9 381.8 21.3 C 381.79 21.34 381.8 21.3 381.8 21.3 C 381.8 21.3 382.38 21.31 382.4 21.3 C 382.8 21.9 383.1 22.6 383.3 23.3 C 383.5 24 383.7 24.8 383.7 25.6 C 383.7 26.3 383.5 27.1 383.3 27.8 C 383.1 28.6 382.8 29.2 382.4 29.8 C 382.38 29.84 381.8 29.8 381.8 29.8 Z " stroke="none" fill="#000"/>  </g>  <g id="Polygon79051">    <path d="M 320.4 29.8 C 320 29.2 319.6 28.6 319.4 27.8 C 319.2 27.1 319.1 26.3 319.1 25.6 C 319.1 24.8 319.2 24 319.4 23.3 C 319.6 22.6 320 21.9 320.4 21.3 C 320.38 21.31 321 21.3 321 21.3 C 321 21.3 320.96 21.34 321 21.3 C 320.5 21.9 320.2 22.6 320 23.3 C 319.8 24.1 319.7 24.8 319.7 25.6 C 319.7 26.4 319.8 27.1 320 27.8 C 320.2 28.5 320.5 29.2 321 29.8 C 320.96 29.8 321 29.8 321 29.8 L 320.4 29.8 C 320.4 29.8 320.38 29.84 320.4 29.8 Z M 322.4 23.2 L 322.4 23.2 L 321.3 23.9 L 321.2 23.9 L 321 23.5 L 321 23.5 L 322.6 22.4 L 323.1 22.4 L 323.1 28.5 L 322.4 28.5 L 322.4 23.2 Z M 324 29.7 L 324.4 27.7 L 325.1 27.7 L 324.5 29.8 L 324 29.7 Z M 327 28.6 C 326.6 28.6 326.3 28.5 325.9 28.5 C 325.95 28.47 325.9 27.9 325.9 27.9 C 325.9 27.9 326 27.94 326 27.9 C 326.1 28 326.3 28 326.4 28 C 326.6 28 326.7 28 326.9 28 C 327.3 28 327.7 27.9 327.9 27.7 C 328.1 27.5 328.2 27.2 328.2 26.9 C 328.2 26.4 328.1 26.1 327.9 25.9 C 327.6 25.7 327.3 25.6 326.8 25.6 C 326.77 25.62 326.5 25.6 326.5 25.6 L 326.5 25.1 C 326.5 25.1 326.76 25.09 326.8 25.1 C 327.2 25.1 327.5 25 327.7 24.8 C 328 24.6 328.1 24.3 328.1 23.9 C 328.1 23.2 327.7 22.8 326.9 22.8 C 326.8 22.8 326.7 22.8 326.5 22.9 C 326.4 22.9 326.2 22.9 326 22.9 C 326.02 22.95 326 22.9 326 22.9 C 326 22.9 325.92 22.42 325.9 22.4 C 326.1 22.4 326.3 22.3 326.5 22.3 C 326.6 22.3 326.8 22.3 327 22.3 C 327.6 22.3 328 22.4 328.3 22.7 C 328.6 23 328.8 23.4 328.8 23.9 C 328.8 24.2 328.7 24.6 328.5 24.8 C 328.3 25.1 328.1 25.2 327.8 25.3 C 327.8 25.3 327.8 25.4 327.8 25.4 C 328.1 25.4 328.4 25.6 328.6 25.9 C 328.8 26.1 328.9 26.5 328.9 26.9 C 328.9 27.4 328.7 27.9 328.4 28.1 C 328.1 28.4 327.6 28.6 327 28.6 Z M 330.7 28.6 C 330.4 28.6 330 28.5 329.7 28.5 C 329.7 28.47 329.7 27.9 329.7 27.9 C 329.7 27.9 329.75 27.94 329.8 27.9 C 329.9 28 330 28 330.2 28 C 330.3 28 330.5 28 330.6 28 C 331.1 28 331.4 27.9 331.7 27.7 C 331.9 27.5 332 27.2 332 26.9 C 332 26.4 331.9 26.1 331.6 25.9 C 331.4 25.7 331 25.6 330.5 25.6 C 330.53 25.62 330.2 25.6 330.2 25.6 L 330.2 25.1 C 330.2 25.1 330.52 25.09 330.5 25.1 C 331 25.1 331.3 25 331.5 24.8 C 331.7 24.6 331.8 24.3 331.8 23.9 C 331.8 23.2 331.5 22.8 330.7 22.8 C 330.6 22.8 330.4 22.8 330.3 22.9 C 330.1 22.9 330 22.9 329.8 22.9 C 329.78 22.95 329.7 22.9 329.7 22.9 C 329.7 22.9 329.68 22.42 329.7 22.4 C 329.9 22.4 330 22.3 330.2 22.3 C 330.4 22.3 330.6 22.3 330.7 22.3 C 331.3 22.3 331.8 22.4 332.1 22.7 C 332.4 23 332.5 23.4 332.5 23.9 C 332.5 24.2 332.4 24.6 332.3 24.8 C 332.1 25.1 331.8 25.2 331.5 25.3 C 331.5 25.3 331.5 25.4 331.5 25.4 C 331.9 25.4 332.2 25.6 332.4 25.9 C 332.6 26.1 332.7 26.5 332.7 26.9 C 332.7 27.4 332.5 27.9 332.2 28.1 C 331.8 28.4 331.3 28.6 330.7 28.6 Z M 335.2 22.3 C 335.8 22.3 336.3 22.5 336.6 23 C 337 23.5 337.1 24.2 337.1 25.1 C 337.1 25.7 337.1 26.1 337 26.6 C 336.9 27 336.7 27.4 336.5 27.7 C 336.3 28 336 28.2 335.7 28.4 C 335.4 28.5 335.1 28.6 334.7 28.6 C 334.5 28.6 334.4 28.6 334.2 28.6 C 334 28.5 333.9 28.5 333.7 28.5 C 333.7 28.5 333.8 27.9 333.8 27.9 C 333.9 28 334.1 28 334.2 28 C 334.4 28 334.5 28 334.7 28 C 335.2 28 335.6 27.8 335.9 27.4 C 336.3 27 336.4 26.4 336.5 25.6 C 336.3 25.7 336.1 25.9 335.8 26 C 335.6 26.1 335.3 26.1 335.1 26.1 C 334.8 26.1 334.6 26.1 334.4 26 C 334.2 25.9 334 25.8 333.8 25.7 C 333.7 25.5 333.6 25.3 333.5 25.1 C 333.4 24.9 333.4 24.6 333.4 24.3 C 333.4 24 333.4 23.7 333.5 23.5 C 333.6 23.2 333.7 23 333.9 22.8 C 334 22.7 334.2 22.5 334.4 22.4 C 334.7 22.3 334.9 22.3 335.2 22.3 Z M 335.2 25.6 C 335.4 25.6 335.6 25.6 335.9 25.5 C 336.1 25.3 336.3 25.2 336.5 25 C 336.5 24.3 336.4 23.7 336.2 23.4 C 336 23 335.6 22.8 335.2 22.8 C 334.8 22.8 334.5 23 334.3 23.2 C 334.1 23.5 334 23.9 334 24.3 C 334 24.8 334.1 25.1 334.3 25.3 C 334.5 25.5 334.8 25.6 335.2 25.6 Z M 337.4 29.8 C 337.4 29.8 337.37 29.8 337.4 29.8 C 337.8 29.2 338.1 28.5 338.3 27.8 C 338.5 27.1 338.7 26.4 338.7 25.6 C 338.7 24.8 338.5 24.1 338.3 23.3 C 338.1 22.6 337.8 21.9 337.4 21.3 C 337.37 21.34 337.4 21.3 337.4 21.3 C 337.4 21.3 337.95 21.31 337.9 21.3 C 338.4 21.9 338.7 22.6 338.9 23.3 C 339.1 24 339.2 24.8 339.2 25.6 C 339.2 26.3 339.1 27.1 338.9 27.8 C 338.7 28.6 338.4 29.2 337.9 29.8 C 337.95 29.84 337.4 29.8 337.4 29.8 Z " stroke="none" fill="#000"/>  </g>  <g id="Polygon79050">    <path d="M 276.7 29.8 C 276.3 29.2 276 28.6 275.8 27.8 C 275.6 27.1 275.4 26.3 275.4 25.6 C 275.4 24.8 275.6 24 275.8 23.3 C 276 22.6 276.3 21.9 276.7 21.3 C 276.72 21.31 277.3 21.3 277.3 21.3 C 277.3 21.3 277.3 21.34 277.3 21.3 C 276.9 21.9 276.6 22.6 276.3 23.3 C 276.1 24.1 276 24.8 276 25.6 C 276 26.4 276.1 27.1 276.3 27.8 C 276.6 28.5 276.9 29.2 277.3 29.8 C 277.3 29.8 277.3 29.8 277.3 29.8 L 276.7 29.8 C 276.7 29.8 276.72 29.84 276.7 29.8 Z M 278.8 23.2 L 278.8 23.2 L 277.6 23.9 L 277.5 23.9 L 277.4 23.5 L 277.4 23.5 L 279 22.4 L 279.5 22.4 L 279.5 28.5 L 278.8 28.5 L 278.8 23.2 Z M 280.4 29.7 L 280.7 27.7 L 281.4 27.7 L 280.9 29.8 L 280.4 29.7 Z M 282 26.7 L 282 26.6 L 284 22.3 L 284.1 22.3 L 284.7 22.4 L 284.7 22.4 L 282.7 26.5 L 282.7 26.5 L 284.6 26.5 L 284.8 24.3 L 285.3 24.3 L 285.3 26.5 L 286 26.5 L 286 27 L 285.3 27 L 285.3 28.5 L 284.6 28.5 L 284.6 27 L 282.2 27 L 282 26.7 Z M 287.6 23.2 L 287.5 23.2 L 286.4 23.9 L 286.3 23.9 L 286.1 23.5 L 286.1 23.5 L 287.8 22.4 L 288.2 22.4 L 288.2 28.5 L 287.6 28.5 L 287.6 23.2 Z M 291.2 28.5 C 290.6 28.5 290.1 28.4 289.8 28.1 C 289.5 27.9 289.3 27.5 289.3 27 C 289.3 26.8 289.3 26.6 289.4 26.4 C 289.5 26.2 289.5 26.1 289.6 25.9 C 289.7 25.8 289.8 25.7 289.9 25.6 C 290.1 25.5 290.2 25.4 290.3 25.3 C 290.1 25.2 289.9 25 289.7 24.8 C 289.6 24.5 289.5 24.2 289.5 23.9 C 289.5 23.4 289.6 23 289.9 22.7 C 290.2 22.4 290.6 22.3 291.2 22.3 C 291.7 22.3 292.1 22.4 292.4 22.7 C 292.7 23 292.8 23.4 292.8 23.9 C 292.8 24.3 292.7 24.6 292.6 24.8 C 292.4 25 292.2 25.2 292 25.4 C 292.3 25.5 292.5 25.7 292.7 25.9 C 292.9 26.2 293 26.5 293 26.9 C 293 27.4 292.8 27.8 292.5 28.1 C 292.2 28.4 291.7 28.5 291.2 28.5 Z M 290.8 25.6 C 290.6 25.7 290.4 25.9 290.2 26.1 C 290 26.3 289.9 26.5 289.9 26.9 C 289.9 27.3 290.1 27.6 290.3 27.8 C 290.5 27.9 290.8 28 291.2 28 C 291.5 28 291.8 28 292 27.8 C 292.3 27.6 292.4 27.3 292.4 27 C 292.4 26.8 292.3 26.6 292.3 26.5 C 292.2 26.3 292.1 26.2 292 26.1 C 291.9 26 291.8 25.9 291.6 25.8 C 291.5 25.8 291.3 25.7 291.1 25.6 C 291.1 25.6 290.8 25.6 290.8 25.6 Z M 290.1 23.9 C 290.1 24.1 290.1 24.2 290.2 24.4 C 290.2 24.5 290.3 24.6 290.4 24.7 C 290.5 24.8 290.7 24.9 290.8 25 C 291 25 291.2 25.1 291.4 25.2 C 291.4 25.2 291.4 25.2 291.4 25.2 C 291.6 25.1 291.8 24.9 292 24.7 C 292.1 24.5 292.2 24.2 292.2 23.9 C 292.2 23.5 292.1 23.3 291.9 23.1 C 291.7 22.9 291.5 22.8 291.2 22.8 C 290.8 22.8 290.6 22.9 290.4 23.1 C 290.2 23.3 290.1 23.5 290.1 23.9 Z M 293.3 29.8 C 293.3 29.8 293.25 29.8 293.3 29.8 C 293.7 29.2 294 28.5 294.2 27.8 C 294.4 27.1 294.5 26.4 294.5 25.6 C 294.5 24.8 294.4 24.1 294.2 23.3 C 294 22.6 293.7 21.9 293.3 21.3 C 293.25 21.34 293.3 21.3 293.3 21.3 C 293.3 21.3 293.83 21.31 293.8 21.3 C 294.3 21.9 294.6 22.6 294.8 23.3 C 295 24 295.1 24.8 295.1 25.6 C 295.1 26.3 295 27.1 294.8 27.8 C 294.6 28.6 294.3 29.2 293.8 29.8 C 293.83 29.84 293.3 29.8 293.3 29.8 Z " stroke="none" fill="#000"/>  </g>  <g id="Polygon79049">    <path d="M 232.1 29.8 C 231.7 29.2 231.4 28.6 231.2 27.8 C 231 27.1 230.9 26.3 230.9 25.6 C 230.9 24.8 231 24 231.2 23.3 C 231.4 22.6 231.7 21.9 232.1 21.3 C 232.14 21.31 232.7 21.3 232.7 21.3 C 232.7 21.3 232.72 21.34 232.7 21.3 C 232.3 21.9 232 22.6 231.8 23.3 C 231.5 24.1 231.4 24.8 231.4 25.6 C 231.4 26.4 231.5 27.1 231.8 27.8 C 232 28.5 232.3 29.2 232.7 29.8 C 232.72 29.8 232.7 29.8 232.7 29.8 L 232.1 29.8 C 232.1 29.8 232.14 29.84 232.1 29.8 Z M 234.2 23.2 L 234.2 23.2 L 233 23.9 L 232.9 23.9 L 232.8 23.5 L 232.8 23.5 L 234.4 22.4 L 234.9 22.4 L 234.9 28.5 L 234.2 28.5 L 234.2 23.2 Z M 235.8 29.7 L 236.1 27.7 L 236.8 27.7 L 236.3 29.8 L 235.8 29.7 Z M 237.4 26.7 L 237.4 26.6 L 239.5 22.3 L 239.5 22.3 L 240.1 22.4 L 240.1 22.4 L 238.1 26.5 L 238.1 26.5 L 240.1 26.5 L 240.2 24.3 L 240.7 24.3 L 240.7 26.5 L 241.4 26.5 L 241.4 27 L 240.7 27 L 240.7 28.5 L 240.1 28.5 L 240.1 27 L 237.6 27 L 237.4 26.7 Z M 243.9 28.5 C 243.3 28.5 242.8 28.4 242.5 28.1 C 242.2 27.9 242 27.5 242 27 C 242 26.8 242.1 26.6 242.1 26.4 C 242.2 26.2 242.2 26.1 242.3 25.9 C 242.4 25.8 242.5 25.7 242.6 25.6 C 242.8 25.5 242.9 25.4 243 25.3 C 242.8 25.2 242.6 25 242.4 24.8 C 242.3 24.5 242.2 24.2 242.2 23.9 C 242.2 23.4 242.3 23 242.6 22.7 C 243 22.4 243.4 22.3 243.9 22.3 C 244.4 22.3 244.8 22.4 245.1 22.7 C 245.4 23 245.5 23.4 245.5 23.9 C 245.5 24.3 245.5 24.6 245.3 24.8 C 245.1 25 244.9 25.2 244.7 25.4 C 245 25.5 245.2 25.7 245.4 25.9 C 245.6 26.2 245.7 26.5 245.7 26.9 C 245.7 27.4 245.5 27.8 245.2 28.1 C 244.9 28.4 244.4 28.5 243.9 28.5 Z M 243.6 25.6 C 243.3 25.7 243.1 25.9 242.9 26.1 C 242.7 26.3 242.7 26.5 242.7 26.9 C 242.7 27.3 242.8 27.6 243 27.8 C 243.2 27.9 243.5 28 243.9 28 C 244.2 28 244.5 28 244.7 27.8 C 245 27.6 245.1 27.3 245.1 27 C 245.1 26.8 245.1 26.6 245 26.5 C 244.9 26.3 244.9 26.2 244.7 26.1 C 244.6 26 244.5 25.9 244.3 25.8 C 244.2 25.8 244 25.7 243.8 25.6 C 243.8 25.6 243.6 25.6 243.6 25.6 Z M 242.8 23.9 C 242.8 24.1 242.8 24.2 242.9 24.4 C 243 24.5 243 24.6 243.1 24.7 C 243.3 24.8 243.4 24.9 243.6 25 C 243.7 25 243.9 25.1 244.1 25.2 C 244.1 25.2 244.1 25.2 244.1 25.2 C 244.4 25.1 244.5 24.9 244.7 24.7 C 244.9 24.5 244.9 24.2 244.9 23.9 C 244.9 23.5 244.8 23.3 244.6 23.1 C 244.5 22.9 244.2 22.8 243.9 22.8 C 243.5 22.8 243.3 22.9 243.1 23.1 C 242.9 23.3 242.8 23.5 242.8 23.9 Z M 246.4 27.7 C 246.4 27.4 246.5 27.2 246.5 27 C 246.6 26.8 246.7 26.6 246.8 26.4 C 246.9 26.2 247.1 26 247.2 25.9 C 247.4 25.7 247.6 25.5 247.9 25.4 C 248.3 25.1 248.6 24.9 248.7 24.6 C 248.9 24.4 249 24.2 249 23.9 C 249 23.2 248.6 22.9 247.8 22.9 C 247.5 22.9 247.1 22.9 246.7 23.1 C 246.7 23.1 246.6 22.5 246.6 22.5 C 246.9 22.4 247.1 22.4 247.3 22.3 C 247.6 22.3 247.8 22.3 248 22.3 C 249.1 22.3 249.6 22.8 249.6 23.8 C 249.6 24 249.6 24.2 249.6 24.4 C 249.5 24.5 249.4 24.7 249.3 24.9 C 249.2 25 249.1 25.2 248.9 25.3 C 248.8 25.5 248.6 25.6 248.3 25.8 C 248.1 25.9 247.9 26.1 247.8 26.2 C 247.6 26.4 247.5 26.5 247.4 26.7 C 247.3 26.8 247.2 26.9 247.2 27.1 C 247.1 27.2 247.1 27.4 247.1 27.6 C 247.1 27.56 247.1 27.9 247.1 27.9 L 249.6 27.9 L 249.6 28.5 L 246.4 28.5 C 246.4 28.5 246.43 27.69 246.4 27.7 Z M 250.1 29.8 C 250.1 29.8 250.05 29.8 250.1 29.8 C 250.5 29.2 250.8 28.5 251 27.8 C 251.2 27.1 251.3 26.4 251.3 25.6 C 251.3 24.8 251.2 24.1 251 23.3 C 250.8 22.6 250.5 21.9 250.1 21.3 C 250.05 21.34 250.1 21.3 250.1 21.3 C 250.1 21.3 250.63 21.31 250.6 21.3 C 251.1 21.9 251.4 22.6 251.6 23.3 C 251.8 24 251.9 24.8 251.9 25.6 C 251.9 26.3 251.8 27.1 251.6 27.8 C 251.4 28.6 251.1 29.2 250.6 29.8 C 250.63 29.84 250.1 29.8 250.1 29.8 Z " stroke="none" fill="#000"/>  </g>  <g id="Polygon79048">    <path d="M 188.8 29.8 C 188.3 29.2 188 28.6 187.8 27.8 C 187.6 27.1 187.5 26.3 187.5 25.6 C 187.5 24.8 187.6 24 187.8 23.3 C 188 22.6 188.3 21.9 188.8 21.3 C 188.77 21.31 189.3 21.3 189.3 21.3 C 189.3 21.3 189.35 21.34 189.3 21.3 C 188.9 21.9 188.6 22.6 188.4 23.3 C 188.2 24.1 188.1 24.8 188.1 25.6 C 188.1 26.4 188.2 27.1 188.4 27.8 C 188.6 28.5 188.9 29.2 189.3 29.8 C 189.35 29.8 189.3 29.8 189.3 29.8 L 188.8 29.8 C 188.8 29.8 188.77 29.84 188.8 29.8 Z M 190.8 23.2 L 190.8 23.2 L 189.6 23.9 L 189.6 23.9 L 189.4 23.5 L 189.4 23.5 L 191 22.4 L 191.5 22.4 L 191.5 28.5 L 190.8 28.5 L 190.8 23.2 Z M 192.4 29.7 L 192.8 27.7 L 193.5 27.7 L 192.9 29.8 L 192.4 29.7 Z M 195.4 28.6 C 195 28.6 194.7 28.6 194.3 28.5 C 194.31 28.49 194.3 27.9 194.3 27.9 C 194.3 27.9 194.46 27.94 194.5 27.9 C 194.8 28 195.1 28 195.3 28 C 196.2 28 196.7 27.6 196.7 26.7 C 196.7 26.5 196.6 26.3 196.6 26.1 C 196.5 26 196.4 25.9 196.3 25.8 C 196.1 25.7 196 25.6 195.7 25.5 C 195.5 25.5 195.3 25.5 195 25.5 C 194.96 25.47 194.5 25.5 194.5 25.5 L 194.4 25.4 L 194.6 22.4 L 197.1 22.4 L 197.1 22.9 L 195.2 22.9 C 195.2 22.9 195.02 24.94 195 24.9 C 195.4 24.9 195.8 25 196.1 25 C 196.4 25.1 196.6 25.2 196.8 25.4 C 197 25.5 197.1 25.7 197.2 25.9 C 197.3 26.1 197.3 26.4 197.3 26.7 C 197.3 27.4 197.2 27.8 196.8 28.1 C 196.5 28.5 196 28.6 195.4 28.6 Z M 199.1 28.6 C 198.8 28.6 198.4 28.6 198.1 28.5 C 198.05 28.49 198.1 27.9 198.1 27.9 C 198.1 27.9 198.2 27.94 198.2 27.9 C 198.5 28 198.8 28 199 28 C 200 28 200.4 27.6 200.4 26.7 C 200.4 26.5 200.4 26.3 200.3 26.1 C 200.2 26 200.1 25.9 200 25.8 C 199.9 25.7 199.7 25.6 199.5 25.5 C 199.3 25.5 199 25.5 198.7 25.5 C 198.7 25.47 198.2 25.5 198.2 25.5 L 198.1 25.4 L 198.4 22.4 L 200.8 22.4 L 200.8 22.9 L 198.9 22.9 C 198.9 22.9 198.76 24.94 198.8 24.9 C 199.2 24.9 199.5 25 199.8 25 C 200.1 25.1 200.4 25.2 200.5 25.4 C 200.7 25.5 200.9 25.7 200.9 25.9 C 201 26.1 201.1 26.4 201.1 26.7 C 201.1 27.4 200.9 27.8 200.6 28.1 C 200.2 28.5 199.7 28.6 199.1 28.6 Z M 201.6 26.7 L 201.6 26.6 L 203.6 22.3 L 203.7 22.3 L 204.2 22.4 L 204.3 22.4 L 202.3 26.5 L 202.3 26.5 L 204.2 26.5 L 204.4 24.3 L 204.9 24.3 L 204.9 26.5 L 205.6 26.5 L 205.6 27 L 204.9 27 L 204.9 28.5 L 204.2 28.5 L 204.2 27 L 201.7 27 L 201.6 26.7 Z M 205.7 29.8 C 205.7 29.8 205.65 29.8 205.7 29.8 C 206.1 29.2 206.4 28.5 206.6 27.8 C 206.8 27.1 206.9 26.4 206.9 25.6 C 206.9 24.8 206.8 24.1 206.6 23.3 C 206.4 22.6 206.1 21.9 205.7 21.3 C 205.65 21.34 205.7 21.3 205.7 21.3 C 205.7 21.3 206.23 21.31 206.2 21.3 C 206.7 21.9 207 22.6 207.2 23.3 C 207.4 24 207.5 24.8 207.5 25.6 C 207.5 26.3 207.4 27.1 207.2 27.8 C 207 28.6 206.7 29.2 206.2 29.8 C 206.23 29.84 205.7 29.8 205.7 29.8 Z " stroke="none" fill="#000"/>  </g>  <g id="Polygon79047">    <path d="M 144.6 29.8 C 144.2 29.2 143.9 28.6 143.7 27.8 C 143.5 27.1 143.4 26.3 143.4 25.6 C 143.4 24.8 143.5 24 143.7 23.3 C 143.9 22.6 144.2 21.9 144.6 21.3 C 144.63 21.31 145.2 21.3 145.2 21.3 C 145.2 21.3 145.21 21.34 145.2 21.3 C 144.8 21.9 144.5 22.6 144.3 23.3 C 144 24.1 143.9 24.8 143.9 25.6 C 143.9 26.4 144 27.1 144.3 27.8 C 144.5 28.5 144.8 29.2 145.2 29.8 C 145.21 29.8 145.2 29.8 145.2 29.8 L 144.6 29.8 C 144.6 29.8 144.63 29.84 144.6 29.8 Z M 146.7 23.2 L 146.7 23.2 L 145.5 23.9 L 145.4 23.9 L 145.3 23.5 L 145.3 23.5 L 146.9 22.4 L 147.4 22.4 L 147.4 28.5 L 146.7 28.5 L 146.7 23.2 Z M 148.3 29.7 L 148.6 27.7 L 149.3 27.7 L 148.8 29.8 L 148.3 29.7 Z M 152 28.6 C 151.4 28.6 150.9 28.4 150.6 27.9 C 150.3 27.4 150.1 26.7 150.1 25.8 C 150.1 25.2 150.1 24.7 150.3 24.3 C 150.4 23.9 150.5 23.5 150.7 23.2 C 150.9 22.9 151.2 22.7 151.5 22.5 C 151.8 22.4 152.2 22.3 152.6 22.3 C 152.7 22.3 152.9 22.3 153 22.3 C 153.2 22.3 153.4 22.4 153.5 22.4 C 153.5 22.4 153.5 23 153.5 23 C 153.3 22.9 153.1 22.9 153 22.9 C 152.9 22.8 152.7 22.8 152.6 22.8 C 152 22.8 151.6 23.1 151.3 23.5 C 151 23.9 150.8 24.5 150.8 25.3 C 150.9 25.1 151.2 25 151.4 24.9 C 151.7 24.8 151.9 24.7 152.1 24.7 C 152.4 24.7 152.7 24.8 152.9 24.9 C 153.1 25 153.3 25.1 153.4 25.2 C 153.6 25.4 153.7 25.6 153.8 25.8 C 153.8 26 153.9 26.3 153.9 26.5 C 153.9 26.9 153.8 27.1 153.8 27.4 C 153.7 27.6 153.5 27.9 153.4 28 C 153.2 28.2 153 28.4 152.8 28.5 C 152.6 28.6 152.3 28.6 152 28.6 Z M 152 25.3 C 151.8 25.3 151.6 25.3 151.4 25.4 C 151.1 25.5 150.9 25.7 150.7 25.9 C 150.7 26.6 150.9 27.2 151.1 27.5 C 151.3 27.9 151.6 28 152 28 C 152.4 28 152.7 27.9 152.9 27.6 C 153.1 27.4 153.2 27 153.2 26.5 C 153.2 26.1 153.1 25.8 152.9 25.6 C 152.7 25.4 152.4 25.3 152 25.3 Z M 155.4 28.6 L 154.9 28.5 L 154.9 28.4 L 156.8 23 L 154.4 23 L 154.4 22.4 L 154.4 22.4 L 157.3 22.4 L 157.4 22.7 L 157.4 23 L 155.5 28.5 L 155.4 28.6 Z M 159.9 28.6 C 159.3 28.6 158.8 28.4 158.5 27.9 C 158.1 27.4 158 26.7 158 25.8 C 158 25.2 158 24.7 158.1 24.3 C 158.2 23.9 158.4 23.5 158.6 23.2 C 158.8 22.9 159.1 22.7 159.4 22.5 C 159.7 22.4 160.1 22.3 160.4 22.3 C 160.6 22.3 160.8 22.3 160.9 22.3 C 161.1 22.3 161.2 22.4 161.4 22.4 C 161.4 22.4 161.4 23 161.4 23 C 161.2 22.9 161 22.9 160.9 22.9 C 160.7 22.8 160.6 22.8 160.5 22.8 C 159.9 22.8 159.5 23.1 159.2 23.5 C 158.9 23.9 158.7 24.5 158.6 25.3 C 158.8 25.1 159 25 159.3 24.9 C 159.5 24.8 159.8 24.7 160 24.7 C 160.3 24.7 160.5 24.8 160.7 24.9 C 161 25 161.1 25.1 161.3 25.2 C 161.4 25.4 161.6 25.6 161.6 25.8 C 161.7 26 161.8 26.3 161.8 26.5 C 161.8 26.9 161.7 27.1 161.6 27.4 C 161.5 27.6 161.4 27.9 161.3 28 C 161.1 28.2 160.9 28.4 160.7 28.5 C 160.5 28.6 160.2 28.6 159.9 28.6 Z M 159.9 25.3 C 159.7 25.3 159.5 25.3 159.2 25.4 C 159 25.5 158.8 25.7 158.6 25.9 C 158.6 26.6 158.7 27.2 158.9 27.5 C 159.2 27.9 159.5 28 159.9 28 C 160.3 28 160.6 27.9 160.8 27.6 C 161 27.4 161.1 27 161.1 26.5 C 161.1 26.1 161 25.8 160.8 25.6 C 160.6 25.4 160.3 25.3 159.9 25.3 Z M 162 29.8 C 162 29.8 162.01 29.8 162 29.8 C 162.4 29.2 162.7 28.5 163 27.8 C 163.2 27.1 163.3 26.4 163.3 25.6 C 163.3 24.8 163.2 24.1 163 23.3 C 162.7 22.6 162.4 21.9 162 21.3 C 162.01 21.34 162 21.3 162 21.3 C 162 21.3 162.59 21.31 162.6 21.3 C 163 21.9 163.3 22.6 163.5 23.3 C 163.8 24 163.9 24.8 163.9 25.6 C 163.9 26.3 163.8 27.1 163.5 27.8 C 163.3 28.6 163 29.2 162.6 29.8 C 162.59 29.84 162 29.8 162 29.8 Z " stroke="none" fill="#000"/>  </g>  <g id="Polygon79046">    <path d="M 100.8 29.8 C 100.4 29.2 100.1 28.6 99.9 27.8 C 99.6 27.1 99.5 26.3 99.5 25.6 C 99.5 24.8 99.6 24 99.9 23.3 C 100.1 22.6 100.4 21.9 100.8 21.3 C 100.81 21.31 101.4 21.3 101.4 21.3 C 101.4 21.3 101.39 21.34 101.4 21.3 C 101 21.9 100.7 22.6 100.4 23.3 C 100.2 24.1 100.1 24.8 100.1 25.6 C 100.1 26.4 100.2 27.1 100.4 27.8 C 100.7 28.5 101 29.2 101.4 29.8 C 101.39 29.8 101.4 29.8 101.4 29.8 L 100.8 29.8 C 100.8 29.8 100.81 29.84 100.8 29.8 Z M 102.9 23.2 L 102.8 23.2 L 101.7 23.9 L 101.6 23.9 L 101.4 23.5 L 101.5 23.5 L 103.1 22.4 L 103.5 22.4 L 103.5 28.5 L 102.9 28.5 L 102.9 23.2 Z M 104.4 29.7 L 104.8 27.7 L 105.5 27.7 L 104.9 29.8 L 104.4 29.7 Z M 107.1 28.6 L 106.6 28.5 L 106.6 28.4 L 108.5 23 L 106.1 23 L 106.1 22.4 L 106.1 22.4 L 109 22.4 L 109.1 22.7 L 109.1 23 L 107.2 28.5 L 107.1 28.6 Z M 111.5 28.5 C 110.9 28.5 110.5 28.4 110.2 28.1 C 109.8 27.9 109.7 27.5 109.7 27 C 109.7 26.8 109.7 26.6 109.8 26.4 C 109.8 26.2 109.9 26.1 110 25.9 C 110.1 25.8 110.2 25.7 110.3 25.6 C 110.4 25.5 110.5 25.4 110.7 25.3 C 110.4 25.2 110.2 25 110.1 24.8 C 109.9 24.5 109.8 24.2 109.8 23.9 C 109.8 23.4 110 23 110.3 22.7 C 110.6 22.4 111 22.3 111.5 22.3 C 112 22.3 112.4 22.4 112.7 22.7 C 113 23 113.2 23.4 113.2 23.9 C 113.2 24.3 113.1 24.6 112.9 24.8 C 112.8 25 112.6 25.2 112.3 25.4 C 112.6 25.5 112.9 25.7 113.1 25.9 C 113.3 26.2 113.3 26.5 113.3 26.9 C 113.3 27.4 113.2 27.8 112.9 28.1 C 112.5 28.4 112.1 28.5 111.5 28.5 Z M 111.2 25.6 C 111 25.7 110.7 25.9 110.6 26.1 C 110.4 26.3 110.3 26.5 110.3 26.9 C 110.3 27.3 110.4 27.6 110.6 27.8 C 110.9 27.9 111.1 28 111.5 28 C 111.9 28 112.2 28 112.4 27.8 C 112.6 27.6 112.7 27.3 112.7 27 C 112.7 26.8 112.7 26.6 112.6 26.5 C 112.6 26.3 112.5 26.2 112.4 26.1 C 112.3 26 112.1 25.9 112 25.8 C 111.8 25.8 111.6 25.7 111.4 25.6 C 111.4 25.6 111.2 25.6 111.2 25.6 Z M 110.5 23.9 C 110.5 24.1 110.5 24.2 110.5 24.4 C 110.6 24.5 110.7 24.6 110.8 24.7 C 110.9 24.8 111 24.9 111.2 25 C 111.4 25 111.5 25.1 111.7 25.2 C 111.7 25.2 111.8 25.2 111.8 25.2 C 112 25.1 112.2 24.9 112.3 24.7 C 112.5 24.5 112.6 24.2 112.6 23.9 C 112.6 23.5 112.5 23.3 112.3 23.1 C 112.1 22.9 111.8 22.8 111.5 22.8 C 111.2 22.8 110.9 22.9 110.7 23.1 C 110.5 23.3 110.5 23.5 110.5 23.9 Z M 116 28.5 C 115.4 28.5 114.9 28.4 114.6 28.1 C 114.3 27.9 114.1 27.5 114.1 27 C 114.1 26.8 114.2 26.6 114.2 26.4 C 114.3 26.2 114.3 26.1 114.4 25.9 C 114.5 25.8 114.6 25.7 114.7 25.6 C 114.9 25.5 115 25.4 115.1 25.3 C 114.9 25.2 114.7 25 114.5 24.8 C 114.4 24.5 114.3 24.2 114.3 23.9 C 114.3 23.4 114.4 23 114.7 22.7 C 115 22.4 115.5 22.3 116 22.3 C 116.5 22.3 116.9 22.4 117.2 22.7 C 117.5 23 117.6 23.4 117.6 23.9 C 117.6 24.3 117.5 24.6 117.4 24.8 C 117.2 25 117 25.2 116.8 25.4 C 117.1 25.5 117.3 25.7 117.5 25.9 C 117.7 26.2 117.8 26.5 117.8 26.9 C 117.8 27.4 117.6 27.8 117.3 28.1 C 117 28.4 116.5 28.5 116 28.5 Z M 115.7 25.6 C 115.4 25.7 115.2 25.9 115 26.1 C 114.8 26.3 114.7 26.5 114.7 26.9 C 114.7 27.3 114.9 27.6 115.1 27.8 C 115.3 27.9 115.6 28 116 28 C 116.3 28 116.6 28 116.8 27.8 C 117.1 27.6 117.2 27.3 117.2 27 C 117.2 26.8 117.1 26.6 117.1 26.5 C 117 26.3 116.9 26.2 116.8 26.1 C 116.7 26 116.6 25.9 116.4 25.8 C 116.3 25.8 116.1 25.7 115.9 25.6 C 115.9 25.6 115.7 25.6 115.7 25.6 Z M 114.9 23.9 C 114.9 24.1 114.9 24.2 115 24.4 C 115 24.5 115.1 24.6 115.2 24.7 C 115.3 24.8 115.5 24.9 115.6 25 C 115.8 25 116 25.1 116.2 25.2 C 116.2 25.2 116.2 25.2 116.2 25.2 C 116.4 25.1 116.6 24.9 116.8 24.7 C 116.9 24.5 117 24.2 117 23.9 C 117 23.5 116.9 23.3 116.7 23.1 C 116.5 22.9 116.3 22.8 116 22.8 C 115.6 22.8 115.4 22.9 115.2 23.1 C 115 23.3 114.9 23.5 114.9 23.9 Z M 118.1 29.8 C 118.1 29.8 118.06 29.8 118.1 29.8 C 118.5 29.2 118.8 28.5 119 27.8 C 119.2 27.1 119.4 26.4 119.4 25.6 C 119.4 24.8 119.2 24.1 119 23.3 C 118.8 22.6 118.5 21.9 118.1 21.3 C 118.06 21.34 118.1 21.3 118.1 21.3 C 118.1 21.3 118.64 21.31 118.6 21.3 C 119.1 21.9 119.4 22.6 119.6 23.3 C 119.8 24 119.9 24.8 119.9 25.6 C 119.9 26.3 119.8 27.1 119.6 27.8 C 119.4 28.6 119.1 29.2 118.6 29.8 C 118.64 29.84 118.1 29.8 118.1 29.8 Z " stroke="none" fill="#000"/>  </g>  <g id="Polygon79045">    <path d="M 56.9 29.8 C 56.5 29.2 56.2 28.6 55.9 27.8 C 55.7 27.1 55.6 26.3 55.6 25.6 C 55.6 24.8 55.7 24 55.9 23.3 C 56.2 22.6 56.5 21.9 56.9 21.3 C 56.9 21.31 57.5 21.3 57.5 21.3 C 57.5 21.3 57.48 21.34 57.5 21.3 C 57.1 21.9 56.7 22.6 56.5 23.3 C 56.3 24.1 56.2 24.8 56.2 25.6 C 56.2 26.4 56.3 27.1 56.5 27.8 C 56.7 28.5 57.1 29.2 57.5 29.8 C 57.48 29.8 57.5 29.8 57.5 29.8 L 56.9 29.8 C 56.9 29.8 56.9 29.84 56.9 29.8 Z M 59 23.2 L 58.9 23.2 L 57.8 23.9 L 57.7 23.9 L 57.5 23.5 L 57.5 23.5 L 59.2 22.4 L 59.6 22.4 L 59.6 28.5 L 59 28.5 L 59 23.2 Z M 60.5 29.7 L 60.9 27.7 L 61.6 27.7 L 61 29.8 L 60.5 29.7 Z M 64.1 22.3 C 64.8 22.3 65.3 22.5 65.6 23 C 65.9 23.5 66.1 24.2 66.1 25.1 C 66.1 25.7 66 26.1 65.9 26.6 C 65.8 27 65.7 27.4 65.4 27.7 C 65.2 28 65 28.2 64.7 28.4 C 64.4 28.5 64 28.6 63.6 28.6 C 63.5 28.6 63.3 28.6 63.1 28.6 C 63 28.5 62.8 28.5 62.6 28.5 C 62.6 28.5 62.7 27.9 62.7 27.9 C 62.9 28 63 28 63.2 28 C 63.3 28 63.5 28 63.6 28 C 64.1 28 64.6 27.8 64.9 27.4 C 65.2 27 65.4 26.4 65.4 25.6 C 65.2 25.7 65 25.9 64.8 26 C 64.5 26.1 64.3 26.1 64 26.1 C 63.8 26.1 63.5 26.1 63.3 26 C 63.1 25.9 62.9 25.8 62.8 25.7 C 62.6 25.5 62.5 25.3 62.4 25.1 C 62.3 24.9 62.3 24.6 62.3 24.3 C 62.3 24 62.3 23.7 62.4 23.5 C 62.5 23.2 62.6 23 62.8 22.8 C 62.9 22.7 63.1 22.5 63.4 22.4 C 63.6 22.3 63.9 22.3 64.1 22.3 Z M 64.1 25.6 C 64.4 25.6 64.6 25.6 64.8 25.5 C 65.1 25.3 65.3 25.2 65.4 25 C 65.4 24.3 65.3 23.7 65.1 23.4 C 64.9 23 64.6 22.8 64.1 22.8 C 63.8 22.8 63.5 23 63.3 23.2 C 63.1 23.5 63 23.9 63 24.3 C 63 24.8 63.1 25.1 63.3 25.3 C 63.5 25.5 63.8 25.6 64.1 25.6 Z M 67.9 28.6 C 67.5 28.6 67.2 28.5 66.9 28.5 C 66.87 28.47 66.9 27.9 66.9 27.9 C 66.9 27.9 66.92 27.94 66.9 27.9 C 67 28 67.2 28 67.3 28 C 67.5 28 67.7 28 67.8 28 C 68.3 28 68.6 27.9 68.8 27.7 C 69.1 27.5 69.2 27.2 69.2 26.9 C 69.2 26.4 69 26.1 68.8 25.9 C 68.6 25.7 68.2 25.6 67.7 25.6 C 67.69 25.62 67.4 25.6 67.4 25.6 L 67.4 25.1 C 67.4 25.1 67.68 25.09 67.7 25.1 C 68.1 25.1 68.4 25 68.7 24.8 C 68.9 24.6 69 24.3 69 23.9 C 69 23.2 68.6 22.8 67.8 22.8 C 67.7 22.8 67.6 22.8 67.4 22.9 C 67.3 22.9 67.1 22.9 66.9 22.9 C 66.94 22.95 66.9 22.9 66.9 22.9 C 66.9 22.9 66.84 22.42 66.8 22.4 C 67 22.4 67.2 22.3 67.4 22.3 C 67.6 22.3 67.7 22.3 67.9 22.3 C 68.5 22.3 68.9 22.4 69.2 22.7 C 69.5 23 69.7 23.4 69.7 23.9 C 69.7 24.2 69.6 24.6 69.4 24.8 C 69.2 25.1 69 25.2 68.7 25.3 C 68.7 25.3 68.7 25.4 68.7 25.4 C 69.1 25.4 69.3 25.6 69.5 25.9 C 69.7 26.1 69.8 26.5 69.8 26.9 C 69.8 27.4 69.7 27.9 69.3 28.1 C 69 28.4 68.5 28.6 67.9 28.6 Z M 70.6 27.7 C 70.6 27.4 70.6 27.2 70.6 27 C 70.7 26.8 70.8 26.6 70.9 26.4 C 71 26.2 71.2 26 71.4 25.9 C 71.5 25.7 71.8 25.5 72 25.4 C 72.4 25.1 72.7 24.9 72.8 24.6 C 73 24.4 73.1 24.2 73.1 23.9 C 73.1 23.2 72.7 22.9 72 22.9 C 71.6 22.9 71.2 22.9 70.8 23.1 C 70.8 23.1 70.7 22.5 70.7 22.5 C 71 22.4 71.2 22.4 71.5 22.3 C 71.7 22.3 71.9 22.3 72.1 22.3 C 73.2 22.3 73.8 22.8 73.8 23.8 C 73.8 24 73.7 24.2 73.7 24.4 C 73.6 24.5 73.6 24.7 73.5 24.9 C 73.3 25 73.2 25.2 73.1 25.3 C 72.9 25.5 72.7 25.6 72.5 25.8 C 72.2 25.9 72 26.1 71.9 26.2 C 71.7 26.4 71.6 26.5 71.5 26.7 C 71.4 26.8 71.3 26.9 71.3 27.1 C 71.3 27.2 71.2 27.4 71.2 27.6 C 71.23 27.56 71.2 27.9 71.2 27.9 L 73.8 27.9 L 73.8 28.5 L 70.6 28.5 C 70.6 28.5 70.56 27.69 70.6 27.7 Z M 74.2 29.8 C 74.2 29.8 74.18 29.8 74.2 29.8 C 74.6 29.2 74.9 28.5 75.1 27.8 C 75.4 27.1 75.5 26.4 75.5 25.6 C 75.5 24.8 75.4 24.1 75.1 23.3 C 74.9 22.6 74.6 21.9 74.2 21.3 C 74.18 21.34 74.2 21.3 74.2 21.3 C 74.2 21.3 74.76 21.31 74.8 21.3 C 75.2 21.9 75.5 22.6 75.7 23.3 C 75.9 24 76 24.8 76 25.6 C 76 26.3 75.9 27.1 75.7 27.8 C 75.5 28.6 75.2 29.2 74.8 29.8 C 74.76 29.84 74.2 29.8 74.2 29.8 Z " stroke="none" fill="#000"/>  </g>  <g id="Polygon79044">    <path d="M 13.4 29.8 C 12.9 29.2 12.6 28.6 12.4 27.8 C 12.2 27.1 12.1 26.3 12.1 25.6 C 12.1 24.8 12.2 24 12.4 23.3 C 12.6 22.6 12.9 21.9 13.4 21.3 C 13.36 21.31 13.9 21.3 13.9 21.3 C 13.9 21.3 13.95 21.34 13.9 21.3 C 13.5 21.9 13.2 22.6 13 23.3 C 12.8 24.1 12.7 24.8 12.7 25.6 C 12.7 26.4 12.8 27.1 13 27.8 C 13.2 28.5 13.5 29.2 13.9 29.8 C 13.95 29.8 13.9 29.8 13.9 29.8 L 13.4 29.8 C 13.4 29.8 13.36 29.84 13.4 29.8 Z M 14.3 27.7 C 14.3 27.4 14.4 27.2 14.4 27 C 14.5 26.8 14.6 26.6 14.7 26.4 C 14.8 26.2 15 26 15.1 25.9 C 15.3 25.7 15.6 25.5 15.8 25.4 C 16.2 25.1 16.5 24.9 16.6 24.6 C 16.8 24.4 16.9 24.2 16.9 23.9 C 16.9 23.2 16.5 22.9 15.8 22.9 C 15.4 22.9 15 22.9 14.6 23.1 C 14.6 23.1 14.5 22.5 14.5 22.5 C 14.8 22.4 15 22.4 15.2 22.3 C 15.5 22.3 15.7 22.3 15.9 22.3 C 17 22.3 17.5 22.8 17.5 23.8 C 17.5 24 17.5 24.2 17.5 24.4 C 17.4 24.5 17.3 24.7 17.2 24.9 C 17.1 25 17 25.2 16.8 25.3 C 16.7 25.5 16.5 25.6 16.3 25.8 C 16 25.9 15.8 26.1 15.7 26.2 C 15.5 26.4 15.4 26.5 15.3 26.7 C 15.2 26.8 15.1 26.9 15.1 27.1 C 15 27.2 15 27.4 15 27.6 C 15.02 27.56 15 27.9 15 27.9 L 17.5 27.9 L 17.5 28.5 L 14.3 28.5 C 14.3 28.5 14.34 27.69 14.3 27.7 Z M 18.1 29.7 L 18.5 27.7 L 19.2 27.7 L 18.6 29.8 L 18.1 29.7 Z M 20.8 23.2 L 20.8 23.2 L 19.7 23.9 L 19.6 23.9 L 19.4 23.5 L 19.4 23.5 L 21 22.4 L 21.5 22.4 L 21.5 28.5 L 20.8 28.5 L 20.8 23.2 Z M 23.4 28.6 L 22.9 28.5 L 22.9 28.4 L 24.8 23 L 22.4 23 L 22.4 22.4 L 22.5 22.4 L 25.4 22.4 L 25.5 22.7 L 25.5 23 L 23.6 28.5 L 23.4 28.6 Z M 27.8 28.5 C 27.3 28.5 26.8 28.4 26.5 28.1 C 26.2 27.9 26 27.5 26 27 C 26 26.8 26 26.6 26.1 26.4 C 26.1 26.2 26.2 26.1 26.3 25.9 C 26.4 25.8 26.5 25.7 26.6 25.6 C 26.7 25.5 26.9 25.4 27 25.3 C 26.8 25.2 26.5 25 26.4 24.8 C 26.2 24.5 26.2 24.2 26.2 23.9 C 26.2 23.4 26.3 23 26.6 22.7 C 26.9 22.4 27.3 22.3 27.9 22.3 C 28.4 22.3 28.8 22.4 29.1 22.7 C 29.4 23 29.5 23.4 29.5 23.9 C 29.5 24.3 29.4 24.6 29.3 24.8 C 29.1 25 28.9 25.2 28.7 25.4 C 29 25.5 29.2 25.7 29.4 25.9 C 29.6 26.2 29.7 26.5 29.7 26.9 C 29.7 27.4 29.5 27.8 29.2 28.1 C 28.9 28.4 28.4 28.5 27.8 28.5 Z M 27.5 25.6 C 27.3 25.7 27.1 25.9 26.9 26.1 C 26.7 26.3 26.6 26.5 26.6 26.9 C 26.6 27.3 26.7 27.6 27 27.8 C 27.2 27.9 27.5 28 27.8 28 C 28.2 28 28.5 28 28.7 27.8 C 28.9 27.6 29.1 27.3 29.1 27 C 29.1 26.8 29 26.6 29 26.5 C 28.9 26.3 28.8 26.2 28.7 26.1 C 28.6 26 28.5 25.9 28.3 25.8 C 28.2 25.8 28 25.7 27.8 25.6 C 27.8 25.6 27.5 25.6 27.5 25.6 Z M 26.8 23.9 C 26.8 24.1 26.8 24.2 26.9 24.4 C 26.9 24.5 27 24.6 27.1 24.7 C 27.2 24.8 27.4 24.9 27.5 25 C 27.7 25 27.9 25.1 28.1 25.2 C 28.1 25.2 28.1 25.2 28.1 25.2 C 28.3 25.1 28.5 24.9 28.7 24.7 C 28.8 24.5 28.9 24.2 28.9 23.9 C 28.9 23.5 28.8 23.3 28.6 23.1 C 28.4 22.9 28.2 22.8 27.8 22.8 C 27.5 22.8 27.3 22.9 27.1 23.1 C 26.9 23.3 26.8 23.5 26.8 23.9 Z M 29.9 29.8 C 29.9 29.8 29.94 29.8 29.9 29.8 C 30.4 29.2 30.7 28.5 30.9 27.8 C 31.1 27.1 31.2 26.4 31.2 25.6 C 31.2 24.8 31.1 24.1 30.9 23.3 C 30.7 22.6 30.4 21.9 29.9 21.3 C 29.94 21.34 29.9 21.3 29.9 21.3 C 29.9 21.3 30.52 21.31 30.5 21.3 C 30.9 21.9 31.3 22.6 31.5 23.3 C 31.7 24 31.8 24.8 31.8 25.6 C 31.8 26.3 31.7 27.1 31.5 27.8 C 31.3 28.6 30.9 29.2 30.5 29.8 C 30.52 29.84 29.9 29.8 29.9 29.8 Z " stroke="none" fill="#000"/>  </g>  <g id="Polygon79043">    <path d="M 502.2 6.9 L 502.1 6.9 L 500.5 7.8 L 500.4 7.8 L 500.2 7.4 L 500.2 7.2 L 502.4 5.8 L 503.1 5.8 L 503.1 14.2 L 502.2 14.2 L 502.2 6.9 Z M 504.5 13 C 504.5 12.7 504.5 12.4 504.6 12.1 C 504.7 11.8 504.8 11.5 505 11.3 C 505.2 11 505.4 10.8 505.6 10.6 C 505.9 10.3 506.2 10.1 506.5 9.9 C 507 9.5 507.4 9.2 507.6 8.9 C 507.9 8.6 508 8.2 508 7.8 C 508 6.9 507.5 6.5 506.4 6.5 C 506 6.5 505.5 6.6 504.8 6.7 C 504.8 6.7 504.7 6 504.7 6 C 505.1 5.9 505.4 5.8 505.7 5.7 C 506.1 5.7 506.4 5.7 506.6 5.7 C 508.1 5.7 508.9 6.4 508.9 7.8 C 508.9 8 508.8 8.3 508.8 8.5 C 508.7 8.7 508.6 9 508.5 9.2 C 508.3 9.4 508.1 9.6 507.9 9.8 C 507.7 10 507.4 10.2 507.1 10.4 C 506.8 10.6 506.5 10.8 506.3 11 C 506.1 11.2 505.9 11.4 505.8 11.6 C 505.7 11.8 505.6 12 505.5 12.2 C 505.5 12.4 505.4 12.6 505.4 12.9 C 505.43 12.87 505.4 13.4 505.4 13.4 L 508.9 13.4 L 508.9 14.2 L 504.5 14.2 C 504.5 14.2 504.51 13.04 504.5 13 Z " stroke="none" fill="#000"/>  </g>  <g id="Polygon79042">    <path d="M 458.9 6.9 L 458.9 6.9 L 457.3 7.8 L 457.2 7.8 L 457 7.4 L 457 7.2 L 459.2 5.8 L 459.9 5.8 L 459.9 14.2 L 458.9 14.2 L 458.9 6.9 Z M 463 6.9 L 462.9 6.9 L 461.4 7.8 L 461.2 7.8 L 461 7.4 L 461 7.2 L 463.2 5.8 L 463.9 5.8 L 463.9 14.2 L 463 14.2 L 463 6.9 Z " stroke="none" fill="#000"/>  </g>  <g id="Polygon79041">    <path d="M 413.8 6.9 L 413.7 6.9 L 412.2 7.8 L 412 7.8 L 411.8 7.4 L 411.8 7.2 L 414 5.8 L 414.7 5.8 L 414.7 14.2 L 413.8 14.2 L 413.8 6.9 Z M 419 14.3 C 418 14.3 417.4 13.9 416.9 13.2 C 416.4 12.5 416.2 11.4 416.2 10 C 416.2 8.6 416.4 7.5 416.9 6.7 C 417.4 6 418 5.7 419 5.7 C 419.9 5.7 420.5 6 421 6.7 C 421.5 7.5 421.7 8.6 421.7 10 C 421.7 11.4 421.5 12.5 421 13.2 C 420.5 13.9 419.9 14.3 419 14.3 Z M 419 13.5 C 419.6 13.5 420 13.2 420.3 12.6 C 420.6 12.1 420.8 11.2 420.8 10 C 420.8 8.8 420.6 7.9 420.3 7.3 C 420 6.7 419.6 6.4 419 6.4 C 417.7 6.4 417.1 7.6 417.1 10 C 417.1 11.2 417.3 12.1 417.6 12.6 C 417.9 13.2 418.3 13.5 419 13.5 Z " stroke="none" fill="#000"/>  </g>  <g id="Polygon79040">    <path d="M 372.9 5.7 C 373.8 5.7 374.5 6 374.9 6.6 C 375.4 7.3 375.6 8.2 375.6 9.5 C 375.6 10.3 375.5 10.9 375.4 11.5 C 375.2 12.1 375 12.6 374.7 13 C 374.4 13.4 374.1 13.8 373.6 14 C 373.2 14.2 372.7 14.3 372.2 14.3 C 372 14.3 371.8 14.3 371.6 14.2 C 371.3 14.2 371.1 14.2 370.9 14.1 C 370.9 14.1 370.9 13.3 370.9 13.3 C 371.2 13.4 371.4 13.5 371.6 13.5 C 371.8 13.5 372 13.5 372.2 13.5 C 372.9 13.5 373.5 13.2 373.9 12.7 C 374.4 12.1 374.6 11.2 374.7 10.1 C 374.4 10.4 374.1 10.6 373.8 10.7 C 373.4 10.9 373.1 10.9 372.8 10.9 C 372.4 10.9 372.1 10.9 371.8 10.8 C 371.5 10.6 371.2 10.5 371 10.3 C 370.8 10.1 370.7 9.8 370.6 9.5 C 370.5 9.2 370.4 8.8 370.4 8.5 C 370.4 8 370.5 7.7 370.6 7.3 C 370.7 7 370.9 6.7 371.1 6.4 C 371.3 6.2 371.6 6 371.9 5.8 C 372.2 5.7 372.5 5.7 372.9 5.7 Z M 372.9 10.2 C 373.2 10.2 373.5 10.1 373.8 10 C 374.2 9.8 374.4 9.6 374.7 9.4 C 374.7 8.4 374.5 7.6 374.2 7.1 C 374 6.7 373.5 6.4 372.9 6.4 C 372.4 6.4 372 6.6 371.7 7 C 371.4 7.3 371.3 7.8 371.3 8.5 C 371.3 9 371.4 9.5 371.7 9.8 C 372 10.1 372.4 10.2 372.9 10.2 Z " stroke="none" fill="#000"/>  </g>  <g id="Polygon79039">    <path d="M 329.2 14.2 C 328.4 14.2 327.8 14 327.3 13.6 C 326.9 13.3 326.7 12.7 326.7 12.1 C 326.7 11.8 326.7 11.5 326.8 11.3 C 326.8 11 326.9 10.8 327.1 10.6 C 327.2 10.5 327.3 10.3 327.5 10.2 C 327.7 10 327.8 9.9 328 9.8 C 327.7 9.6 327.4 9.4 327.2 9.1 C 327 8.7 326.9 8.3 326.9 7.8 C 326.9 7.1 327.1 6.6 327.5 6.2 C 327.9 5.9 328.5 5.7 329.2 5.7 C 329.9 5.7 330.4 5.9 330.8 6.2 C 331.2 6.6 331.4 7.1 331.4 7.8 C 331.4 8.3 331.3 8.8 331.1 9.1 C 330.9 9.4 330.6 9.7 330.3 9.9 C 330.7 10.1 331 10.3 331.3 10.7 C 331.5 11 331.7 11.4 331.7 12 C 331.7 12.7 331.4 13.2 331 13.6 C 330.6 14 330 14.2 329.2 14.2 Z M 328.7 10.1 C 328.4 10.3 328.1 10.5 327.9 10.8 C 327.6 11.1 327.5 11.5 327.5 12 C 327.5 12.5 327.7 12.9 328 13.1 C 328.3 13.4 328.7 13.5 329.2 13.5 C 329.7 13.5 330.1 13.4 330.4 13.1 C 330.7 12.9 330.8 12.5 330.8 12 C 330.8 11.8 330.8 11.5 330.7 11.4 C 330.6 11.2 330.5 11 330.4 10.9 C 330.2 10.7 330 10.6 329.8 10.5 C 329.6 10.4 329.3 10.3 329.1 10.2 C 329.1 10.2 328.7 10.1 328.7 10.1 Z M 327.7 7.8 C 327.7 8.1 327.8 8.3 327.8 8.5 C 327.9 8.7 328 8.8 328.2 9 C 328.3 9.1 328.5 9.2 328.7 9.3 C 329 9.4 329.2 9.5 329.5 9.6 C 329.5 9.6 329.5 9.6 329.5 9.6 C 329.8 9.4 330.1 9.2 330.3 9 C 330.5 8.7 330.6 8.3 330.6 7.8 C 330.6 7.4 330.5 7 330.2 6.7 C 330 6.5 329.6 6.4 329.2 6.4 C 328.7 6.4 328.4 6.5 328.1 6.7 C 327.8 7 327.7 7.4 327.7 7.8 Z " stroke="none" fill="#000"/>  </g>  <g id="Polygon79038">    <path d="M 284.6 14.3 L 283.9 14.2 L 283.9 14 L 286.5 6.6 L 283.3 6.6 L 283.2 5.9 L 283.3 5.8 L 287.2 5.8 L 287.4 6.3 L 287.4 6.6 L 284.8 14.2 L 284.6 14.3 Z " stroke="none" fill="#000"/>  </g>  <g id="Polygon79037">    <path d="M 241.5 14.3 C 240.7 14.3 240 14 239.5 13.3 C 239.1 12.7 238.9 11.7 238.9 10.4 C 238.9 9.7 238.9 9 239.1 8.4 C 239.2 7.8 239.5 7.3 239.7 6.9 C 240 6.5 240.4 6.2 240.8 6 C 241.2 5.8 241.7 5.7 242.3 5.7 C 242.5 5.7 242.7 5.7 242.9 5.7 C 243.1 5.7 243.3 5.8 243.6 5.8 C 243.6 5.8 243.5 6.6 243.5 6.6 C 243.3 6.5 243 6.5 242.8 6.5 C 242.7 6.4 242.5 6.4 242.3 6.4 C 241.5 6.4 240.9 6.7 240.5 7.3 C 240.1 7.9 239.8 8.7 239.8 9.8 C 240 9.6 240.3 9.4 240.7 9.2 C 241 9.1 241.3 9 241.7 9 C 242 9 242.4 9.1 242.7 9.2 C 242.9 9.3 243.2 9.5 243.4 9.7 C 243.6 9.9 243.8 10.1 243.9 10.5 C 244 10.8 244 11.1 244 11.5 C 244 11.9 244 12.3 243.9 12.6 C 243.8 13 243.6 13.3 243.4 13.5 C 243.1 13.8 242.9 14 242.6 14.1 C 242.3 14.2 241.9 14.3 241.5 14.3 Z M 241.5 9.7 C 241.2 9.7 240.9 9.8 240.6 9.9 C 240.3 10.1 240 10.3 239.7 10.5 C 239.8 11.6 239.9 12.3 240.2 12.8 C 240.5 13.3 240.9 13.5 241.5 13.5 C 242 13.5 242.4 13.3 242.7 13 C 243 12.6 243.1 12.1 243.1 11.5 C 243.1 10.9 243 10.5 242.7 10.2 C 242.4 9.9 242 9.7 241.5 9.7 Z " stroke="none" fill="#000"/>  </g>  <g id="Polygon79036">    <path d="M 196.9 14.3 C 196.5 14.3 196 14.2 195.5 14.1 C 195.48 14.13 195.5 13.4 195.5 13.4 C 195.5 13.4 195.68 13.38 195.7 13.4 C 196.1 13.5 196.5 13.5 196.8 13.5 C 198.1 13.5 198.7 12.9 198.7 11.7 C 198.7 11.4 198.6 11.1 198.6 10.9 C 198.5 10.7 198.3 10.5 198.1 10.4 C 198 10.3 197.7 10.2 197.4 10.1 C 197.1 10 196.8 10 196.4 10 C 196.36 10 195.7 10 195.7 10 L 195.6 9.9 L 195.9 5.8 L 199.3 5.8 L 199.3 6.6 L 196.6 6.6 C 196.6 6.6 196.44 9.28 196.4 9.3 C 197 9.3 197.5 9.3 197.9 9.4 C 198.3 9.5 198.6 9.7 198.9 9.8 C 199.1 10 199.3 10.3 199.4 10.6 C 199.6 10.9 199.6 11.3 199.6 11.7 C 199.6 12.6 199.4 13.2 198.9 13.7 C 198.4 14.1 197.8 14.3 196.9 14.3 Z " stroke="none" fill="#000"/>  </g>  <g id="Polygon79035">    <path d="M 150.8 11.6 L 150.8 11.6 L 153.6 5.7 L 153.7 5.7 L 154.5 5.8 L 154.5 5.9 L 151.8 11.4 L 151.8 11.4 L 154.4 11.4 L 154.7 8.4 L 155.3 8.4 L 155.3 11.4 L 156.3 11.4 L 156.3 12.2 L 155.3 12.2 L 155.3 14.2 L 154.4 14.2 L 154.4 12.2 L 151 12.2 L 150.8 11.6 Z " stroke="none" fill="#000"/>  </g>  <g id="Polygon79034">    <path d="M 109.1 14.3 C 108.6 14.3 108.2 14.2 107.7 14.1 C 107.71 14.11 107.7 13.4 107.7 13.4 C 107.7 13.4 107.78 13.38 107.8 13.4 C 107.9 13.4 108.1 13.5 108.4 13.5 C 108.6 13.5 108.8 13.5 109 13.5 C 109.6 13.5 110.1 13.4 110.4 13.1 C 110.7 12.8 110.8 12.4 110.8 11.9 C 110.8 11.3 110.7 10.9 110.4 10.6 C 110 10.3 109.5 10.2 108.8 10.2 C 108.83 10.21 108.4 10.2 108.4 10.2 L 108.4 9.5 C 108.4 9.5 108.82 9.49 108.8 9.5 C 109.4 9.5 109.9 9.4 110.2 9.1 C 110.5 8.8 110.6 8.4 110.6 7.9 C 110.6 6.9 110.1 6.4 109 6.4 C 108.9 6.4 108.7 6.4 108.5 6.4 C 108.3 6.5 108.1 6.5 107.8 6.6 C 107.81 6.56 107.7 6.6 107.7 6.6 C 107.7 6.6 107.68 5.84 107.7 5.8 C 107.9 5.8 108.2 5.7 108.4 5.7 C 108.7 5.7 108.9 5.7 109.1 5.7 C 109.9 5.7 110.5 5.8 110.9 6.2 C 111.3 6.6 111.5 7.1 111.5 7.8 C 111.5 8.3 111.4 8.8 111.2 9.1 C 111 9.4 110.6 9.7 110.2 9.8 C 110.2 9.8 110.2 9.8 110.2 9.8 C 110.7 10 111.1 10.2 111.4 10.6 C 111.6 10.9 111.8 11.4 111.8 12 C 111.8 12.7 111.5 13.3 111.1 13.7 C 110.6 14.1 110 14.3 109.1 14.3 Z " stroke="none" fill="#000"/>  </g>  <g id="Polygon79033">    <path d="M 63.6 13 C 63.6 12.7 63.6 12.4 63.7 12.1 C 63.8 11.8 63.9 11.5 64.1 11.3 C 64.3 11 64.5 10.8 64.7 10.6 C 65 10.3 65.3 10.1 65.6 9.9 C 66.1 9.5 66.5 9.2 66.7 8.9 C 67 8.6 67.1 8.2 67.1 7.8 C 67.1 6.9 66.6 6.5 65.5 6.5 C 65.1 6.5 64.6 6.6 63.9 6.7 C 63.9 6.7 63.8 6 63.8 6 C 64.2 5.9 64.5 5.8 64.8 5.7 C 65.2 5.7 65.5 5.7 65.7 5.7 C 67.2 5.7 68 6.4 68 7.8 C 68 8 67.9 8.3 67.9 8.5 C 67.8 8.7 67.7 9 67.6 9.2 C 67.4 9.4 67.2 9.6 67 9.8 C 66.8 10 66.5 10.2 66.2 10.4 C 65.9 10.6 65.6 10.8 65.4 11 C 65.2 11.2 65 11.4 64.9 11.6 C 64.8 11.8 64.7 12 64.6 12.2 C 64.6 12.4 64.5 12.6 64.5 12.9 C 64.53 12.87 64.5 13.4 64.5 13.4 L 68 13.4 L 68 14.2 L 63.6 14.2 C 63.6 14.2 63.61 13.04 63.6 13 Z " stroke="none" fill="#000"/>  </g>  <g id="Polygon79032">    <path d="M 22.1 6.9 L 22 6.9 L 20.5 7.8 L 20.3 7.8 L 20.1 7.4 L 20.1 7.2 L 22.3 5.8 L 23 5.8 L 23 14.2 L 22.1 14.2 L 22.1 6.9 Z " stroke="none" fill="#000"/>  </g></svg>