<?xml version="1.0" standalone="no"?><!DOCTYPE svg PUBLIC "-//W3C//DTD SVG 1.1//EN" "http://www.w3.org/Graphics/SVG/1.1/DTD/svg11.dtd"><svg xmlns="http://www.w3.org/2000/svg" version="1.1" width="26px" height="16.8px" viewBox="0 -2 26 16.8" style="top:-2px">  <desc>F XIa</desc>  <defs/>  <g id="Polygon77809">    <path d="M 2.1 0.5 L 6.2 0.5 L 6.2 1.2 L 2.8 1.2 L 2.8 4.1 L 5.7 4.1 L 5.7 4.8 L 2.8 4.8 L 2.8 8.2 L 2.1 8.2 L 2.1 0.5 Z M 12.3 4.2 L 10.1 0.5 L 11 0.5 C 11 0.5 12.33 2.81 12.3 2.8 C 12.56 3.2 12.8 3.7 12.8 3.7 L 12.9 3.7 C 12.9 3.7 13.07 3.2 13.3 2.8 C 13.32 2.81 14.7 0.5 14.7 0.5 L 15.6 0.5 L 13.3 4.2 L 15.8 8.2 L 14.9 8.2 C 14.9 8.2 13.3 5.58 13.3 5.6 C 13.06 5.18 12.8 4.7 12.8 4.7 L 12.8 4.7 C 12.8 4.7 12.57 5.18 12.3 5.6 C 12.33 5.59 10.7 8.2 10.7 8.2 L 9.9 8.2 L 12.3 4.2 Z M 17.2 0.5 L 18 0.5 L 18 8.2 L 17.2 8.2 L 17.2 0.5 Z M 22.9 4.8 C 22.93 4.83 23.2 4.8 23.2 4.8 C 23.2 4.8 23.24 4.69 23.2 4.7 C 23.2 3.6 22.7 3.3 21.9 3.3 C 20.95 3.26 20.3 3.8 20.3 3.8 L 19.9 3.2 C 19.9 3.2 20.67 2.59 21.9 2.6 C 23.2 2.6 24 3.3 24 4.7 C 23.99 4.71 24 8.2 24 8.2 L 23.3 8.2 C 23.3 8.2 23.27 7.64 23.3 7.6 C 23.3 7.4 23.3 7.2 23.3 7.2 C 23.29 7.18 23.3 7.2 23.3 7.2 C 23.3 7.2 22.81 8.38 21.4 8.4 C 20.5 8.4 19.5 7.8 19.5 6.7 C 19.5 4.9 22 4.8 22.9 4.8 Z M 21.5 7.7 C 22.6 7.7 23.2 6.6 23.2 5.7 C 23.24 5.69 23.2 5.4 23.2 5.4 C 23.2 5.4 22.92 5.44 22.9 5.4 C 22.1 5.4 20.3 5.5 20.3 6.7 C 20.3 7.2 20.7 7.7 21.5 7.7 Z " stroke="none" fill="#000"/>  </g></svg>