<?xml version="1.0" standalone="no"?><!DOCTYPE svg PUBLIC "-//W3C//DTD SVG 1.1//EN" "http://www.w3.org/Graphics/SVG/1.1/DTD/svg11.dtd"><svg xmlns="http://www.w3.org/2000/svg" version="1.1" width="723px" height="40px" viewBox="0 -3 723 40" style="top:-3px">  <desc>Graf ukazuje zmeny APC rezistencie po 6 cykloch u vania antikoncepcie s r znym zlo en m. Najmen ie zmeny APC reziste...</desc>  <defs/>  <g id="Polygon75544">    <path d="M 0.4 24.7 C 0.4 24.7 0.92 24.67 0.9 24.7 C 1.1 24.7 1.2 24.6 1.2 24.4 C 1.19 24.4 1.2 17.5 1.2 17.5 L 2.6 17.5 C 2.6 17.5 5.83 22.2 5.8 22.2 C 6.17 22.69 6.5 23.4 6.5 23.4 L 6.6 23.4 C 6.6 23.4 6.48 22.69 6.5 22.2 C 6.5 22.2 6.5 18.3 6.5 18.3 C 6.5 17.7 6.7 17.5 7.3 17.5 C 7.3 17.48 8.8 17.5 8.8 17.5 L 8.8 18.8 C 8.8 18.8 8.32 18.81 8.3 18.8 C 8.1 18.8 8.1 18.9 8.1 19.1 C 8.05 19.08 8.1 26 8.1 26 L 6.6 26 C 6.6 26 3.41 21.3 3.4 21.3 C 3.07 20.82 2.7 20.1 2.7 20.1 L 2.7 20.1 C 2.7 20.1 2.76 20.8 2.8 21.3 C 2.8 21.3 2.8 25.2 2.8 25.2 C 2.8 25.8 2.5 26 1.9 26 C 1.94 26 0.4 26 0.4 26 L 0.4 24.7 Z M 13.2 22.2 C 13.15 22.16 13.3 22.2 13.3 22.2 C 13.3 22.2 13.34 22.11 13.3 22.1 C 13.3 21.2 13 20.9 12.2 20.9 C 11.9 20.9 11.4 21 11.4 21.3 C 11.4 21.32 11.4 21.6 11.4 21.6 L 10 21.6 C 10 21.6 9.98 21 10 21 C 10 19.9 11.6 19.7 12.2 19.7 C 14.3 19.7 14.9 20.8 14.9 22.2 C 14.9 22.2 14.9 24.5 14.9 24.5 C 14.9 24.6 15 24.7 15.1 24.7 C 15.13 24.72 15.6 24.7 15.6 24.7 L 15.6 26 C 15.6 26 14.24 26 14.2 26 C 13.7 26 13.5 25.7 13.5 25.3 C 13.5 25.2 13.5 25.1 13.5 25.1 C 13.48 25.06 13.5 25.1 13.5 25.1 C 13.5 25.1 12.98 26.14 11.6 26.1 C 10.5 26.1 9.5 25.5 9.5 24.2 C 9.5 22.3 12.2 22.2 13.2 22.2 Z M 12 25 C 12.8 25 13.4 24.1 13.4 23.3 C 13.37 23.35 13.4 23.2 13.4 23.2 C 13.4 23.2 13.1 23.2 13.1 23.2 C 12.3 23.2 11.1 23.3 11.1 24.2 C 11.1 24.6 11.4 25 12 25 Z M 17.2 17.5 L 18.5 17.5 L 18.5 18.9 L 17.2 18.9 L 17.2 17.5 Z M 15.9 27.2 C 16.3 27.2 17.1 27.1 17.1 26.1 C 17.1 26.1 17.1 21.4 17.1 21.4 C 17.1 21.3 17 21.2 16.8 21.2 C 16.84 21.18 16.4 21.2 16.4 21.2 L 16.4 19.9 C 16.4 19.9 17.81 19.88 17.8 19.9 C 18.4 19.9 18.6 20.1 18.6 20.7 C 18.6 20.7 18.6 26.2 18.6 26.2 C 18.6 28.2 16.9 28.5 16.1 28.5 C 15.8 28.5 15.6 28.4 15.6 28.4 C 15.61 28.45 15.6 27.2 15.6 27.2 C 15.6 27.2 15.72 27.19 15.9 27.2 Z M 20.5 21.4 C 20.5 21.3 20.4 21.2 20.2 21.2 C 20.23 21.18 19.8 21.2 19.8 21.2 L 19.8 19.9 C 19.8 19.9 21.16 19.88 21.2 19.9 C 21.7 19.9 22 20.1 22 20.6 C 22 20.6 22 20.7 22 20.7 C 22 20.9 21.9 21 21.9 21 C 21.9 21 22 21 22 21 C 22.3 20.4 23 19.7 24 19.7 C 24.9 19.7 25.5 20.2 25.7 21 C 25.7 21 25.8 21 25.8 21 C 26.1 20.3 26.9 19.7 27.9 19.7 C 29.1 19.7 29.9 20.5 29.9 22.1 C 29.9 22.1 29.9 24.5 29.9 24.5 C 29.9 24.6 30 24.7 30.1 24.7 C 30.12 24.72 30.6 24.7 30.6 24.7 L 30.6 26 C 30.6 26 29.15 26 29.1 26 C 28.6 26 28.3 25.8 28.3 25.2 C 28.3 25.2 28.3 22.4 28.3 22.4 C 28.3 21.7 28.2 21.1 27.5 21.1 C 26.7 21.1 26.2 21.8 26 22.5 C 26 22.8 25.9 23 25.9 23.3 C 25.93 23.31 25.9 26 25.9 26 L 24.4 26 C 24.4 26 24.41 22.35 24.4 22.4 C 24.4 21.7 24.3 21.1 23.6 21.1 C 22.8 21.1 22.3 21.8 22.1 22.5 C 22 22.8 22 23 22 23.3 C 22.01 23.31 22 26 22 26 L 20.5 26 C 20.5 26 20.5 21.44 20.5 21.4 Z M 34.3 19.7 C 36.1 19.7 37 21 37 22.6 C 37.02 22.82 37 23.2 37 23.2 C 37 23.2 32.76 23.2 32.8 23.2 C 32.9 24.3 33.7 24.8 34.6 24.8 C 35.58 24.85 36.3 24.2 36.3 24.2 L 36.9 25.2 C 36.9 25.2 36.01 26.14 34.5 26.1 C 32.5 26.1 31.2 24.7 31.2 22.9 C 31.2 21.1 32.5 19.7 34.3 19.7 Z M 35.5 22.1 C 35.4 21.4 34.9 20.9 34.3 20.9 C 33.5 20.9 33 21.4 32.8 22.1 C 32.8 22.1 35.5 22.1 35.5 22.1 Z M 38.5 21.4 C 38.5 21.3 38.4 21.2 38.2 21.2 C 38.23 21.18 37.8 21.2 37.8 21.2 L 37.8 19.9 C 37.8 19.9 39.16 19.88 39.2 19.9 C 39.7 19.9 40 20.1 40 20.6 C 40 20.6 40 20.7 40 20.7 C 40 20.9 39.9 21 39.9 21 C 39.9 21 40 21 40 21 C 40.2 20.5 40.9 19.7 42.1 19.7 C 43.5 19.7 44.3 20.4 44.3 22.1 C 44.3 22.1 44.3 24.5 44.3 24.5 C 44.3 24.6 44.4 24.7 44.5 24.7 C 44.52 24.72 45 24.7 45 24.7 L 45 26 C 45 26 43.55 26 43.5 26 C 43 26 42.7 25.8 42.7 25.2 C 42.7 25.2 42.7 22.4 42.7 22.4 C 42.7 21.6 42.5 21.1 41.8 21.1 C 41 21.1 40.3 21.6 40.1 22.4 C 40 22.6 40 22.9 40 23.2 C 40.01 23.19 40 26 40 26 L 38.5 26 C 38.5 26 38.5 21.44 38.5 21.4 Z M 46.2 24.1 C 46.2 24.1 47.01 24.96 48.1 25 C 48.5 25 48.9 24.8 48.9 24.4 C 48.9 23.5 45.7 23.5 45.7 21.5 C 45.7 20.3 46.8 19.7 48 19.7 C 48.9 19.7 50.2 20 50.2 21 C 50.18 21.01 50.2 21.6 50.2 21.6 L 48.8 21.6 C 48.8 21.6 48.84 21.34 48.8 21.3 C 48.8 21.1 48.4 20.9 48.1 20.9 C 47.5 20.9 47.2 21.1 47.2 21.5 C 47.2 22.4 50.4 22.2 50.4 24.3 C 50.4 25.4 49.4 26.1 48.1 26.1 C 46.38 26.14 45.5 25.1 45.5 25.1 L 46.2 24.1 Z M 46.2 17.5 L 47.4 17.5 L 48 18.5 L 48 18.5 L 48.6 17.5 L 49.8 17.5 L 48.6 19.1 L 47.3 19.1 L 46.2 17.5 Z M 51.9 17.5 L 53.3 17.5 L 53.3 18.9 L 51.9 18.9 L 51.9 17.5 Z M 51.9 21.4 C 51.9 21.3 51.8 21.2 51.6 21.2 C 51.61 21.18 51.1 21.2 51.1 21.2 L 51.1 19.9 C 51.1 19.9 52.58 19.88 52.6 19.9 C 53.1 19.9 53.4 20.1 53.4 20.7 C 53.4 20.7 53.4 24.5 53.4 24.5 C 53.4 24.6 53.5 24.7 53.7 24.7 C 53.65 24.72 54.1 24.7 54.1 24.7 L 54.1 26 C 54.1 26 52.68 26 52.7 26 C 52.1 26 51.9 25.8 51.9 25.2 C 51.9 25.2 51.9 21.4 51.9 21.4 Z M 57.9 19.7 C 59.7 19.7 60.6 21 60.6 22.6 C 60.62 22.82 60.6 23.2 60.6 23.2 C 60.6 23.2 56.36 23.2 56.4 23.2 C 56.5 24.3 57.3 24.8 58.2 24.8 C 59.18 24.85 59.9 24.2 59.9 24.2 L 60.6 25.2 C 60.6 25.2 59.62 26.14 58.1 26.1 C 56.1 26.1 54.8 24.7 54.8 22.9 C 54.8 21.1 56.1 19.7 57.9 19.7 Z M 59.1 22.1 C 59 21.4 58.5 20.9 57.9 20.9 C 57.1 20.9 56.6 21.4 56.4 22.1 C 56.4 22.1 59.1 22.1 59.1 22.1 Z M 64.6 25.2 C 64.6 25.2 67.43 21.74 67.4 21.7 C 67.7 21.39 67.9 21.2 67.9 21.2 L 67.9 21.2 C 67.9 21.2 67.76 21.18 67.4 21.2 C 67.4 21.2 66.3 21.2 66.3 21.2 C 66.1 21.2 66 21.3 66 21.4 C 66.01 21.44 66 21.8 66 21.8 L 64.6 21.8 C 64.6 21.8 64.63 20.7 64.6 20.7 C 64.6 20.1 64.9 19.9 65.4 19.9 C 65.45 19.88 69.9 19.9 69.9 19.9 L 69.9 20.7 C 69.9 20.7 67.12 24.15 67.1 24.2 C 66.84 24.49 66.6 24.7 66.6 24.7 L 66.6 24.7 C 66.6 24.7 66.78 24.7 67.2 24.7 C 67.2 24.7 68.5 24.7 68.5 24.7 C 68.7 24.7 68.8 24.6 68.8 24.4 C 68.78 24.44 68.8 24.1 68.8 24.1 L 70.2 24.1 C 70.2 24.1 70.16 25.18 70.2 25.2 C 70.2 25.8 69.9 26 69.4 26 C 69.36 26 64.6 26 64.6 26 L 64.6 25.2 Z M 71.4 21.4 C 71.4 21.3 71.3 21.2 71.1 21.2 C 71.15 21.18 70.7 21.2 70.7 21.2 L 70.7 19.9 C 70.7 19.9 72.07 19.88 72.1 19.9 C 72.6 19.9 72.9 20.1 72.9 20.6 C 72.9 20.6 72.9 20.7 72.9 20.7 C 72.9 20.9 72.9 21 72.9 21 C 72.9 21 72.9 21 72.9 21 C 73.2 20.4 73.9 19.7 74.9 19.7 C 75.8 19.7 76.4 20.2 76.7 21 C 76.7 21 76.7 21 76.7 21 C 77 20.3 77.8 19.7 78.8 19.7 C 80 19.7 80.8 20.5 80.8 22.1 C 80.8 22.1 80.8 24.5 80.8 24.5 C 80.8 24.6 80.9 24.7 81 24.7 C 81.03 24.72 81.5 24.7 81.5 24.7 L 81.5 26 C 81.5 26 80.06 26 80.1 26 C 79.5 26 79.2 25.8 79.2 25.2 C 79.2 25.2 79.2 22.4 79.2 22.4 C 79.2 21.7 79.1 21.1 78.4 21.1 C 77.7 21.1 77.1 21.8 76.9 22.5 C 76.9 22.8 76.8 23 76.8 23.3 C 76.85 23.31 76.8 26 76.8 26 L 75.3 26 C 75.3 26 75.32 22.35 75.3 22.4 C 75.3 21.7 75.2 21.1 74.5 21.1 C 73.7 21.1 73.2 21.8 73 22.5 C 73 22.8 72.9 23 72.9 23.3 C 72.92 23.31 72.9 26 72.9 26 L 71.4 26 C 71.4 26 71.41 21.44 71.4 21.4 Z M 85.2 19.7 C 87 19.7 87.9 21 87.9 22.6 C 87.93 22.82 87.9 23.2 87.9 23.2 C 87.9 23.2 83.67 23.2 83.7 23.2 C 83.8 24.3 84.6 24.8 85.5 24.8 C 86.5 24.85 87.2 24.2 87.2 24.2 L 87.9 25.2 C 87.9 25.2 86.93 26.14 85.4 26.1 C 83.4 26.1 82.1 24.7 82.1 22.9 C 82.1 21.1 83.4 19.7 85.2 19.7 Z M 86.4 22.1 C 86.4 21.4 85.8 20.9 85.2 20.9 C 84.4 20.9 83.9 21.4 83.7 22.1 C 83.7 22.1 86.4 22.1 86.4 22.1 Z M 89.4 21.4 C 89.4 21.3 89.3 21.2 89.1 21.2 C 89.15 21.18 88.7 21.2 88.7 21.2 L 88.7 19.9 C 88.7 19.9 90.07 19.88 90.1 19.9 C 90.6 19.9 90.9 20.1 90.9 20.6 C 90.9 20.6 90.9 20.7 90.9 20.7 C 90.9 20.9 90.9 21 90.9 21 C 90.9 21 90.9 21 90.9 21 C 91.1 20.5 91.8 19.7 93 19.7 C 94.4 19.7 95.2 20.4 95.2 22.1 C 95.2 22.1 95.2 24.5 95.2 24.5 C 95.2 24.6 95.3 24.7 95.4 24.7 C 95.43 24.72 95.9 24.7 95.9 24.7 L 95.9 26 C 95.9 26 94.46 26 94.5 26 C 93.9 26 93.6 25.8 93.6 25.2 C 93.6 25.2 93.6 22.4 93.6 22.4 C 93.6 21.6 93.5 21.1 92.7 21.1 C 91.9 21.1 91.3 21.6 91 22.4 C 91 22.6 90.9 22.9 90.9 23.2 C 90.92 23.19 90.9 26 90.9 26 L 89.4 26 C 89.4 26 89.41 21.44 89.4 21.4 Z M 97.5 27.2 C 97.9 27.2 98.3 27 98.5 26.5 C 98.49 26.46 98.7 26 98.7 26 C 98.7 26 96.66 21.39 96.7 21.4 C 96.6 21.2 96.5 21.2 96.3 21.2 C 96.34 21.18 96.2 21.2 96.2 21.2 L 96.2 19.9 C 96.2 19.9 97.16 19.88 97.2 19.9 C 97.6 19.9 97.8 20 98 20.5 C 98 20.5 99.2 23.5 99.2 23.5 C 99.29 23.83 99.4 24.3 99.4 24.3 L 99.4 24.3 C 99.4 24.3 99.5 23.83 99.6 23.5 C 99.6 23.5 100.7 20.5 100.7 20.5 C 100.8 20 101.1 19.9 101.5 19.9 C 101.47 19.88 102.5 19.9 102.5 19.9 L 102.5 21.2 C 102.5 21.2 102.32 21.18 102.3 21.2 C 102.1 21.2 102 21.2 102 21.4 C 102 21.4 99.8 26.9 99.8 26.9 C 99.3 28 98.5 28.5 97.6 28.5 C 96.61 28.52 96 27.9 96 27.9 L 96.6 26.8 C 96.6 26.8 96.98 27.24 97.5 27.2 Z M 106 24.7 C 106 24.7 106.15 24.67 106.2 24.7 C 106.4 24.7 106.5 24.6 106.5 24.4 C 106.52 24.4 109.1 17.5 109.1 17.5 L 110.7 17.5 C 110.7 17.5 113.22 24.4 113.2 24.4 C 113.3 24.6 113.4 24.7 113.6 24.7 C 113.59 24.67 113.8 24.7 113.8 24.7 L 113.8 26 C 113.8 26 112.85 26 112.8 26 C 112.2 26 112 25.8 111.8 25.3 C 111.84 25.3 111.3 23.8 111.3 23.8 L 108.4 23.8 C 108.4 23.8 107.9 25.3 107.9 25.3 C 107.7 25.8 107.5 26 106.9 26 C 106.91 26 106 26 106 26 L 106 24.7 Z M 111 22.5 C 111 22.5 110.22 20.38 110.2 20.4 C 110.06 19.92 109.9 19.1 109.9 19.1 L 109.9 19.1 C 109.9 19.1 109.68 19.92 109.5 20.4 C 109.52 20.38 108.8 22.5 108.8 22.5 L 111 22.5 Z M 115.1 18.8 L 114.3 18.8 L 114.3 17.5 C 114.3 17.5 118.22 17.48 118.2 17.5 C 119.8 17.5 120.9 18.6 120.9 20.3 C 120.9 21.9 119.8 23.1 118.2 23.1 C 118.22 23.06 116.7 23.1 116.7 23.1 L 116.7 26 L 115.1 26 L 115.1 18.8 Z M 117.9 21.7 C 118.8 21.7 119.3 21.1 119.3 20.3 C 119.3 19.4 118.8 18.8 118 18.8 C 117.96 18.81 116.7 18.8 116.7 18.8 L 116.7 21.7 C 116.7 21.7 117.93 21.72 117.9 21.7 Z M 125.9 17.3 C 126.9 17.3 129.1 17.8 129.1 19.2 C 129.08 19.24 129.1 20.2 129.1 20.2 L 127.7 20.2 C 127.7 20.2 127.66 19.71 127.7 19.7 C 127.7 19.1 126.6 18.8 125.9 18.8 C 124.4 18.8 123.2 19.9 123.2 21.7 C 123.2 23.3 124.4 24.7 125.9 24.7 C 127.55 24.68 128.5 23.6 128.5 23.6 L 129.3 24.7 C 129.3 24.7 128.11 26.14 125.9 26.1 C 123.3 26.1 121.5 24.2 121.5 21.7 C 121.5 19.2 123.4 17.3 125.9 17.3 Z M 133.9 21.4 C 133.9 21.3 133.8 21.2 133.6 21.2 C 133.6 21.18 133.1 21.2 133.1 21.2 L 133.1 19.9 C 133.1 19.9 134.51 19.88 134.5 19.9 C 135 19.9 135.3 20.1 135.3 20.6 C 135.3 20.6 135.3 21 135.3 21 C 135.32 21.21 135.3 21.4 135.3 21.4 C 135.3 21.4 135.32 21.37 135.3 21.4 C 135.6 20.5 136.3 19.8 137.3 19.8 C 137.4 19.8 137.5 19.8 137.5 19.8 L 137.5 21.3 C 137.5 21.3 137.39 21.3 137.2 21.3 C 136.5 21.3 135.8 21.7 135.5 22.6 C 135.4 22.9 135.4 23.2 135.4 23.6 C 135.37 23.58 135.4 26 135.4 26 L 133.9 26 C 133.9 26 133.86 21.44 133.9 21.4 Z M 141.1 19.7 C 142.8 19.7 143.8 21 143.8 22.6 C 143.78 22.82 143.7 23.2 143.7 23.2 C 143.7 23.2 139.52 23.2 139.5 23.2 C 139.6 24.3 140.4 24.8 141.4 24.8 C 142.34 24.85 143.1 24.2 143.1 24.2 L 143.7 25.2 C 143.7 25.2 142.77 26.14 141.3 26.1 C 139.2 26.1 138 24.7 138 22.9 C 138 21.1 139.2 19.7 141.1 19.7 Z M 142.2 22.1 C 142.2 21.4 141.7 20.9 141.1 20.9 C 140.3 20.9 139.7 21.4 139.6 22.1 C 139.6 22.1 142.2 22.1 142.2 22.1 Z M 144.6 25.2 C 144.6 25.2 147.41 21.74 147.4 21.7 C 147.68 21.39 147.9 21.2 147.9 21.2 L 147.9 21.2 C 147.9 21.2 147.74 21.18 147.4 21.2 C 147.4 21.2 146.3 21.2 146.3 21.2 C 146.1 21.2 146 21.3 146 21.4 C 145.99 21.44 146 21.8 146 21.8 L 144.6 21.8 C 144.6 21.8 144.61 20.7 144.6 20.7 C 144.6 20.1 144.9 19.9 145.4 19.9 C 145.43 19.88 149.9 19.9 149.9 19.9 L 149.9 20.7 C 149.9 20.7 147.09 24.15 147.1 24.2 C 146.82 24.49 146.6 24.7 146.6 24.7 L 146.6 24.7 C 146.6 24.7 146.76 24.7 147.2 24.7 C 147.2 24.7 148.5 24.7 148.5 24.7 C 148.7 24.7 148.8 24.6 148.8 24.4 C 148.76 24.44 148.8 24.1 148.8 24.1 L 150.1 24.1 C 150.1 24.1 150.14 25.18 150.1 25.2 C 150.1 25.8 149.9 26 149.3 26 C 149.34 26 144.6 26 144.6 26 L 144.6 25.2 Z M 151.5 17.5 L 152.8 17.5 L 152.8 18.9 L 151.5 18.9 L 151.5 17.5 Z M 151.4 21.4 C 151.4 21.3 151.3 21.2 151.2 21.2 C 151.17 21.18 150.7 21.2 150.7 21.2 L 150.7 19.9 C 150.7 19.9 152.15 19.88 152.1 19.9 C 152.7 19.9 152.9 20.1 152.9 20.7 C 152.9 20.7 152.9 24.5 152.9 24.5 C 152.9 24.6 153 24.7 153.2 24.7 C 153.21 24.72 153.7 24.7 153.7 24.7 L 153.7 26 C 153.7 26 152.24 26 152.2 26 C 151.7 26 151.4 25.8 151.4 25.2 C 151.4 25.2 151.4 21.4 151.4 21.4 Z M 155 24.1 C 155 24.1 155.78 24.96 156.8 25 C 157.3 25 157.7 24.8 157.7 24.4 C 157.7 23.5 154.4 23.5 154.4 21.5 C 154.4 20.3 155.5 19.7 156.8 19.7 C 157.6 19.7 158.9 20 158.9 21 C 158.95 21.01 158.9 21.6 158.9 21.6 L 157.6 21.6 C 157.6 21.6 157.61 21.34 157.6 21.3 C 157.6 21.1 157.2 20.9 156.8 20.9 C 156.3 20.9 155.9 21.1 155.9 21.5 C 155.9 22.4 159.2 22.2 159.2 24.3 C 159.2 25.4 158.2 26.1 156.8 26.1 C 155.15 26.14 154.3 25.1 154.3 25.1 L 155 24.1 Z M 160.6 21.1 L 159.8 21.1 L 159.8 19.9 L 160.7 19.9 L 160.7 18.2 L 162.1 18.2 L 162.1 19.9 L 163.5 19.9 L 163.5 21.1 L 162.1 21.1 C 162.1 21.1 162.14 23.56 162.1 23.6 C 162.1 24.6 162.9 24.7 163.4 24.7 C 163.52 24.72 163.6 24.7 163.6 24.7 L 163.6 26 C 163.6 26 163.44 26.06 163.2 26.1 C 162.3 26.1 160.6 25.8 160.6 23.8 C 160.62 23.76 160.6 21.1 160.6 21.1 Z M 167.4 19.7 C 169.2 19.7 170.1 21 170.1 22.6 C 170.15 22.82 170.1 23.2 170.1 23.2 C 170.1 23.2 165.89 23.2 165.9 23.2 C 166 24.3 166.8 24.8 167.7 24.8 C 168.71 24.85 169.4 24.2 169.4 24.2 L 170.1 25.2 C 170.1 25.2 169.14 26.14 167.6 26.1 C 165.6 26.1 164.3 24.7 164.3 22.9 C 164.3 21.1 165.6 19.7 167.4 19.7 Z M 168.6 22.1 C 168.6 21.4 168.1 20.9 167.4 20.9 C 166.7 20.9 166.1 21.4 165.9 22.1 C 165.9 22.1 168.6 22.1 168.6 22.1 Z M 171.6 21.4 C 171.6 21.3 171.5 21.2 171.4 21.2 C 171.36 21.18 170.9 21.2 170.9 21.2 L 170.9 19.9 C 170.9 19.9 172.28 19.88 172.3 19.9 C 172.8 19.9 173.1 20.1 173.1 20.6 C 173.1 20.6 173.1 20.7 173.1 20.7 C 173.1 20.9 173.1 21 173.1 21 C 173.1 21 173.1 21 173.1 21 C 173.3 20.5 174 19.7 175.2 19.7 C 176.6 19.7 177.4 20.4 177.4 22.1 C 177.4 22.1 177.4 24.5 177.4 24.5 C 177.4 24.6 177.5 24.7 177.6 24.7 C 177.65 24.72 178.1 24.7 178.1 24.7 L 178.1 26 C 178.1 26 176.67 26 176.7 26 C 176.1 26 175.9 25.8 175.9 25.2 C 175.9 25.2 175.9 22.4 175.9 22.4 C 175.9 21.6 175.7 21.1 174.9 21.1 C 174.1 21.1 173.5 21.6 173.3 22.4 C 173.2 22.6 173.1 22.9 173.1 23.2 C 173.13 23.19 173.1 26 173.1 26 L 171.6 26 C 171.6 26 171.62 21.44 171.6 21.4 Z M 182.1 19.7 C 182.9 19.7 184.3 20.1 184.3 21.1 C 184.29 21.12 184.3 21.8 184.3 21.8 L 183 21.8 C 183 21.8 182.95 21.5 183 21.5 C 183 21.2 182.4 21 182.1 21 C 181 21 180.3 21.8 180.3 22.9 C 180.3 24.2 181.2 24.8 182.2 24.8 C 183.21 24.81 184 24 184 24 L 184.6 25 C 184.6 25 183.71 26.14 182 26.1 C 180 26.1 178.7 24.7 178.7 22.9 C 178.7 21.2 180 19.7 182.1 19.7 Z M 185.9 17.5 L 187.2 17.5 L 187.2 18.9 L 185.9 18.9 L 185.9 17.5 Z M 185.8 21.4 C 185.8 21.3 185.7 21.2 185.6 21.2 C 185.58 21.18 185.1 21.2 185.1 21.2 L 185.1 19.9 C 185.1 19.9 186.55 19.88 186.5 19.9 C 187.1 19.9 187.4 20.1 187.4 20.7 C 187.4 20.7 187.4 24.5 187.4 24.5 C 187.4 24.6 187.4 24.7 187.6 24.7 C 187.62 24.72 188.1 24.7 188.1 24.7 L 188.1 26 C 188.1 26 186.65 26 186.6 26 C 186.1 26 185.8 25.8 185.8 25.2 C 185.8 25.2 185.8 21.4 185.8 21.4 Z M 191.9 19.7 C 193.6 19.7 194.6 21 194.6 22.6 C 194.59 22.82 194.6 23.2 194.6 23.2 C 194.6 23.2 190.33 23.2 190.3 23.2 C 190.4 24.3 191.2 24.8 192.2 24.8 C 193.15 24.85 193.9 24.2 193.9 24.2 L 194.5 25.2 C 194.5 25.2 193.58 26.14 192.1 26.1 C 190 26.1 188.8 24.7 188.8 22.9 C 188.8 21.1 190 19.7 191.9 19.7 Z M 193 22.1 C 193 21.4 192.5 20.9 191.9 20.9 C 191.1 20.9 190.5 21.4 190.4 22.1 C 190.4 22.1 193 22.1 193 22.1 Z M 199.2 21.4 C 199.2 21.3 199.1 21.2 199 21.2 C 198.96 21.18 198.5 21.2 198.5 21.2 L 198.5 19.9 C 198.5 19.9 199.93 19.88 199.9 19.9 C 200.5 19.9 200.7 20.1 200.7 20.7 C 200.7 20.7 200.7 23.5 200.7 23.5 C 200.7 24.2 200.9 24.8 201.7 24.8 C 202.8 24.8 203.4 23.8 203.4 22.7 C 203.4 22.69 203.4 19.9 203.4 19.9 L 204.9 19.9 C 204.9 19.9 204.92 24.45 204.9 24.5 C 204.9 24.6 205 24.7 205.2 24.7 C 205.18 24.72 205.7 24.7 205.7 24.7 L 205.7 26 C 205.7 26 204.26 26 204.3 26 C 203.7 26 203.5 25.7 203.5 25.3 C 203.5 25.3 203.5 25.1 203.5 25.1 C 203.5 25 203.5 24.9 203.5 24.9 C 203.5 24.9 203.4 24.9 203.4 24.9 C 203.2 25.5 202.4 26.1 201.3 26.1 C 200 26.1 199.2 25.5 199.2 23.8 C 199.2 23.8 199.2 21.4 199.2 21.4 Z M 206.9 19 C 206.9 18.9 206.8 18.8 206.6 18.8 C 206.59 18.78 206.1 18.8 206.1 18.8 L 206.1 17.5 C 206.1 17.5 207.56 17.48 207.6 17.5 C 208.1 17.5 208.4 17.6 208.4 18.2 C 208.38 18.18 208.4 22 208.4 22 C 208.4 22 208.83 22.04 208.8 22 C 209 22 209.3 22 209.4 21.8 C 209.41 21.81 210.7 19.9 210.7 19.9 L 212.3 19.9 C 212.3 19.9 210.8 22.18 210.8 22.2 C 210.54 22.57 210.3 22.7 210.3 22.7 L 210.3 22.7 C 210.3 22.7 210.56 22.77 210.8 23.2 C 210.8 23.2 211.5 24.5 211.5 24.5 C 211.6 24.7 211.7 24.7 212 24.7 C 211.98 24.72 212.4 24.7 212.4 24.7 L 212.4 26 C 212.4 26 211.26 26 211.3 26 C 210.7 26 210.5 25.9 210.3 25.5 C 210.3 25.5 209.3 23.6 209.3 23.6 C 209.2 23.3 208.9 23.3 208.7 23.3 C 208.71 23.32 208.4 23.3 208.4 23.3 L 208.4 26 L 206.9 26 C 206.9 26 206.85 19.04 206.9 19 Z M 216.5 22.2 C 216.54 22.16 216.7 22.2 216.7 22.2 C 216.7 22.2 216.73 22.11 216.7 22.1 C 216.7 21.2 216.4 20.9 215.6 20.9 C 215.3 20.9 214.8 21 214.8 21.3 C 214.78 21.32 214.8 21.6 214.8 21.6 L 213.4 21.6 C 213.4 21.6 213.37 21 213.4 21 C 213.4 19.9 215 19.7 215.6 19.7 C 217.7 19.7 218.3 20.8 218.3 22.2 C 218.3 22.2 218.3 24.5 218.3 24.5 C 218.3 24.6 218.3 24.7 218.5 24.7 C 218.52 24.72 219 24.7 219 24.7 L 219 26 C 219 26 217.63 26 217.6 26 C 217.1 26 216.9 25.7 216.9 25.3 C 216.9 25.2 216.9 25.1 216.9 25.1 C 216.86 25.06 216.8 25.1 216.8 25.1 C 216.8 25.1 216.37 26.14 215 26.1 C 213.9 26.1 212.9 25.5 212.9 24.2 C 212.9 22.3 215.5 22.2 216.5 22.2 Z M 215.4 25 C 216.2 25 216.8 24.1 216.8 23.3 C 216.75 23.35 216.8 23.2 216.8 23.2 C 216.8 23.2 216.49 23.2 216.5 23.2 C 215.7 23.2 214.4 23.3 214.4 24.2 C 214.4 24.6 214.7 25 215.4 25 Z M 219.6 25.2 C 219.6 25.2 222.37 21.74 222.4 21.7 C 222.65 21.39 222.9 21.2 222.9 21.2 L 222.9 21.2 C 222.9 21.2 222.71 21.18 222.3 21.2 C 222.3 21.2 221.2 21.2 221.2 21.2 C 221 21.2 221 21.3 221 21.4 C 220.95 21.44 221 21.8 221 21.8 L 219.6 21.8 C 219.6 21.8 219.57 20.7 219.6 20.7 C 219.6 20.1 219.8 19.9 220.4 19.9 C 220.39 19.88 224.9 19.9 224.9 19.9 L 224.9 20.7 C 224.9 20.7 222.06 24.15 222.1 24.2 C 221.78 24.49 221.5 24.7 221.5 24.7 L 221.5 24.7 C 221.5 24.7 221.72 24.7 222.1 24.7 C 222.1 24.7 223.5 24.7 223.5 24.7 C 223.6 24.7 223.7 24.6 223.7 24.4 C 223.73 24.44 223.7 24.1 223.7 24.1 L 225.1 24.1 C 225.1 24.1 225.1 25.18 225.1 25.2 C 225.1 25.8 224.9 26 224.3 26 C 224.3 26 219.6 26 219.6 26 L 219.6 25.2 Z M 226.3 21.4 C 226.3 21.3 226.2 21.2 226.1 21.2 C 226.07 21.18 225.6 21.2 225.6 21.2 L 225.6 19.9 C 225.6 19.9 227.04 19.88 227 19.9 C 227.6 19.9 227.8 20.1 227.8 20.7 C 227.8 20.7 227.8 23.5 227.8 23.5 C 227.8 24.2 228 24.8 228.8 24.8 C 229.9 24.8 230.5 23.8 230.5 22.7 C 230.51 22.69 230.5 19.9 230.5 19.9 L 232 19.9 C 232 19.9 232.03 24.45 232 24.5 C 232 24.6 232.1 24.7 232.3 24.7 C 232.29 24.72 232.8 24.7 232.8 24.7 L 232.8 26 C 232.8 26 231.37 26 231.4 26 C 230.8 26 230.6 25.7 230.6 25.3 C 230.6 25.3 230.6 25.1 230.6 25.1 C 230.6 25 230.6 24.9 230.6 24.9 C 230.6 24.9 230.6 24.9 230.6 24.9 C 230.3 25.5 229.5 26.1 228.4 26.1 C 227.1 26.1 226.3 25.5 226.3 23.8 C 226.3 23.8 226.3 21.4 226.3 21.4 Z M 234.3 17.5 L 235.7 17.5 L 235.7 18.9 L 234.3 18.9 L 234.3 17.5 Z M 233 27.2 C 233.5 27.2 234.3 27.1 234.3 26.1 C 234.3 26.1 234.3 21.4 234.3 21.4 C 234.3 21.3 234.2 21.2 234 21.2 C 234.01 21.18 233.5 21.2 233.5 21.2 L 233.5 19.9 C 233.5 19.9 234.98 19.88 235 19.9 C 235.6 19.9 235.8 20.1 235.8 20.7 C 235.8 20.7 235.8 26.2 235.8 26.2 C 235.8 28.2 234.1 28.5 233.2 28.5 C 233 28.5 232.8 28.4 232.8 28.4 C 232.79 28.45 232.8 27.2 232.8 27.2 C 232.8 27.2 232.89 27.19 233 27.2 Z M 240.2 19.7 C 241.9 19.7 242.9 21 242.9 22.6 C 242.88 22.82 242.8 23.2 242.8 23.2 C 242.8 23.2 238.62 23.2 238.6 23.2 C 238.7 24.3 239.5 24.8 240.5 24.8 C 241.44 24.85 242.2 24.2 242.2 24.2 L 242.8 25.2 C 242.8 25.2 241.87 26.14 240.3 26.1 C 238.3 26.1 237.1 24.7 237.1 22.9 C 237.1 21.1 238.3 19.7 240.2 19.7 Z M 241.3 22.1 C 241.3 21.4 240.8 20.9 240.2 20.9 C 239.4 20.9 238.8 21.4 238.7 22.1 C 238.7 22.1 241.3 22.1 241.3 22.1 Z M 247.7 18.8 L 246.9 18.8 L 246.9 17.5 C 246.9 17.5 250.41 17.48 250.4 17.5 C 253 17.5 254.8 19 254.8 21.7 C 254.8 24.4 253 26 250.4 26 C 250.4 26 248.5 26 248.5 26 C 248 26 247.7 25.8 247.7 25.2 C 247.73 25.18 247.7 18.8 247.7 18.8 Z M 249.6 24.7 C 249.6 24.7 250.3 24.7 250.3 24.7 C 252 24.7 253.1 23.6 253.1 21.7 C 253.1 19.8 252 18.8 250.3 18.8 C 250.33 18.81 249.3 18.8 249.3 18.8 C 249.3 18.8 249.3 24.4 249.3 24.4 C 249.3 24.6 249.4 24.7 249.6 24.7 Z M 256.2 21.4 C 256.2 21.3 256.1 21.2 255.9 21.2 C 255.93 21.18 255.5 21.2 255.5 21.2 L 255.5 19.9 C 255.5 19.9 256.84 19.88 256.8 19.9 C 257.4 19.9 257.7 20.1 257.7 20.6 C 257.7 20.6 257.7 21 257.7 21 C 257.66 21.21 257.6 21.4 257.6 21.4 C 257.6 21.4 257.66 21.37 257.7 21.4 C 257.9 20.5 258.7 19.8 259.6 19.8 C 259.74 19.8 259.9 19.8 259.9 19.8 L 259.9 21.3 C 259.9 21.3 259.72 21.3 259.5 21.3 C 258.9 21.3 258.1 21.7 257.8 22.6 C 257.8 22.9 257.7 23.2 257.7 23.6 C 257.71 23.58 257.7 26 257.7 26 L 256.2 26 C 256.2 26 256.2 21.44 256.2 21.4 Z M 263.6 19.7 C 265.5 19.7 267 21.1 267 22.9 C 267 24.8 265.5 26.1 263.6 26.1 C 261.8 26.1 260.3 24.8 260.3 22.9 C 260.3 21.1 261.8 19.7 263.6 19.7 Z M 263.6 24.8 C 264.6 24.8 265.5 24.1 265.5 22.9 C 265.5 21.8 264.6 21 263.6 21 C 262.7 21 261.8 21.8 261.8 22.9 C 261.8 24.1 262.7 24.8 263.6 24.8 Z M 267.9 21.4 C 267.8 21.2 267.7 21.2 267.5 21.2 C 267.55 21.18 267.4 21.2 267.4 21.2 L 267.4 19.9 C 267.4 19.9 268.29 19.88 268.3 19.9 C 268.8 19.9 269 20 269.2 20.5 C 269.2 20.5 270.3 23.7 270.3 23.7 C 270.48 24.03 270.6 24.5 270.6 24.5 L 270.6 24.5 C 270.6 24.5 270.69 24.03 270.8 23.7 C 270.8 23.7 272 20.5 272 20.5 C 272.1 20 272.4 19.9 272.9 19.9 C 272.86 19.88 273.7 19.9 273.7 19.9 L 273.7 21.2 C 273.7 21.2 273.54 21.18 273.5 21.2 C 273.4 21.2 273.3 21.2 273.2 21.4 C 273.2 21.39 271.4 26 271.4 26 L 269.6 26 C 269.6 26 267.89 21.39 267.9 21.4 Z M 277.2 19.7 C 278.9 19.7 279.9 21 279.9 22.6 C 279.9 22.82 279.9 23.2 279.9 23.2 C 279.9 23.2 275.64 23.2 275.6 23.2 C 275.8 24.3 276.5 24.8 277.5 24.8 C 278.46 24.85 279.2 24.2 279.2 24.2 L 279.8 25.2 C 279.8 25.2 278.89 26.14 277.4 26.1 C 275.3 26.1 274.1 24.7 274.1 22.9 C 274.1 21.1 275.3 19.7 277.2 19.7 Z M 278.3 22.1 C 278.3 21.4 277.8 20.9 277.2 20.9 C 276.4 20.9 275.9 21.4 275.7 22.1 C 275.7 22.1 278.3 22.1 278.3 22.1 Z M 281.3 19 C 281.3 18.9 281.2 18.8 281.1 18.8 C 281.07 18.78 280.6 18.8 280.6 18.8 L 280.6 17.5 C 280.6 17.5 282.04 17.48 282 17.5 C 282.6 17.5 282.9 17.7 282.9 18.3 C 282.9 18.3 282.9 24.5 282.9 24.5 C 282.9 24.6 283 24.7 283.1 24.7 C 283.12 24.72 283.6 24.7 283.6 24.7 L 283.6 26 C 283.6 26 282.15 26 282.2 26 C 281.6 26 281.3 25.8 281.3 25.2 C 281.3 25.2 281.3 19 281.3 19 Z M 285 17.5 L 286.3 17.5 L 286.3 18.9 L 285 18.9 L 285 17.5 Z M 284.9 21.4 C 284.9 21.3 284.8 21.2 284.6 21.2 C 284.65 21.18 284.2 21.2 284.2 21.2 L 284.2 19.9 C 284.2 19.9 285.62 19.88 285.6 19.9 C 286.2 19.9 286.4 20.1 286.4 20.7 C 286.4 20.7 286.4 24.5 286.4 24.5 C 286.4 24.6 286.5 24.7 286.7 24.7 C 286.69 24.72 287.2 24.7 287.2 24.7 L 287.2 26 C 287.2 26 285.72 26 285.7 26 C 285.2 26 284.9 25.8 284.9 25.2 C 284.9 25.2 284.9 21.4 284.9 21.4 Z M 288.5 24.1 C 288.5 24.1 289.26 24.96 290.3 25 C 290.8 25 291.1 24.8 291.1 24.4 C 291.1 23.5 287.9 23.5 287.9 21.5 C 287.9 20.3 289 19.7 290.3 19.7 C 291.1 19.7 292.4 20 292.4 21 C 292.42 21.01 292.4 21.6 292.4 21.6 L 291.1 21.6 C 291.1 21.6 291.08 21.34 291.1 21.3 C 291.1 21.1 290.6 20.9 290.3 20.9 C 289.8 20.9 289.4 21.1 289.4 21.5 C 289.4 22.4 292.7 22.2 292.7 24.3 C 292.7 25.4 291.6 26.1 290.3 26.1 C 288.62 26.14 287.8 25.1 287.8 25.1 L 288.5 24.1 Z M 293.9 24.5 L 295.4 24.5 L 295.4 26 L 293.9 26 L 293.9 24.5 Z " stroke="none" fill="#000"/>  </g>  <g id="Polygon75543">    <path d="M 4.7 0.3 C 6.79 0.34 7.8 1.4 7.8 1.4 L 6.9 2.5 C 6.9 2.5 6.04 1.79 4.7 1.8 C 3.3 1.8 2 3 2 4.7 C 2 6.5 3.3 7.7 4.8 7.7 C 6.16 7.68 7 6.8 7 6.8 C 7 6.8 6.96 6.16 7 6.2 C 7 6 6.9 5.9 6.7 5.9 C 6.7 5.89 6.2 5.9 6.2 5.9 L 6.2 4.6 C 6.2 4.6 7.56 4.56 7.6 4.6 C 8.1 4.6 8.4 4.8 8.4 5.4 C 8.38 5.36 8.4 9 8.4 9 L 7 9 C 7 9 7.03 8.59 7 8.6 C 7 8.4 7 8.2 7 8.2 C 7.04 8.23 7 8.2 7 8.2 C 7 8.2 6.11 9.14 4.5 9.1 C 2.3 9.1 0.4 7.4 0.4 4.7 C 0.4 2.2 2.2 0.3 4.7 0.3 Z M 10 4.4 C 10 4.3 9.9 4.2 9.7 4.2 C 9.74 4.18 9.3 4.2 9.3 4.2 L 9.3 2.9 C 9.3 2.9 10.66 2.88 10.7 2.9 C 11.2 2.9 11.5 3.1 11.5 3.6 C 11.5 3.6 11.5 4 11.5 4 C 11.47 4.21 11.4 4.4 11.4 4.4 C 11.4 4.4 11.47 4.37 11.5 4.4 C 11.7 3.5 12.5 2.8 13.4 2.8 C 13.55 2.8 13.7 2.8 13.7 2.8 L 13.7 4.3 C 13.7 4.3 13.53 4.3 13.3 4.3 C 12.7 4.3 11.9 4.7 11.7 5.6 C 11.6 5.9 11.5 6.2 11.5 6.6 C 11.52 6.58 11.5 9 11.5 9 L 10 9 C 10 9 10.01 4.44 10 4.4 Z M 17.6 5.2 C 17.63 5.16 17.8 5.2 17.8 5.2 C 17.8 5.2 17.82 5.11 17.8 5.1 C 17.8 4.2 17.5 3.9 16.7 3.9 C 16.4 3.9 15.9 4 15.9 4.3 C 15.87 4.32 15.9 4.6 15.9 4.6 L 14.5 4.6 C 14.5 4.6 14.46 4 14.5 4 C 14.5 2.9 16.1 2.7 16.7 2.7 C 18.7 2.7 19.3 3.8 19.3 5.2 C 19.3 5.2 19.3 7.5 19.3 7.5 C 19.3 7.6 19.4 7.7 19.6 7.7 C 19.61 7.72 20.1 7.7 20.1 7.7 L 20.1 9 C 20.1 9 18.72 9 18.7 9 C 18.2 9 17.9 8.7 17.9 8.3 C 17.9 8.2 18 8.1 18 8.1 C 17.95 8.06 17.9 8.1 17.9 8.1 C 17.9 8.1 17.46 9.14 16.1 9.1 C 15 9.1 14 8.5 14 7.2 C 14 5.3 16.6 5.2 17.6 5.2 Z M 16.5 8 C 17.3 8 17.8 7.1 17.8 6.3 C 17.84 6.35 17.8 6.2 17.8 6.2 C 17.8 6.2 17.58 6.2 17.6 6.2 C 16.8 6.2 15.5 6.3 15.5 7.2 C 15.5 7.6 15.8 8 16.5 8 Z M 21.3 4.1 L 20.6 4.1 L 20.6 2.9 L 21.3 2.9 C 21.3 2.9 21.31 2.7 21.3 2.7 C 21.3 0.7 23 0.4 23.8 0.4 C 24.1 0.4 24.3 0.5 24.3 0.5 C 24.32 0.48 24.3 1.8 24.3 1.8 C 24.3 1.8 24.19 1.74 24 1.7 C 23.6 1.7 22.8 1.8 22.8 2.7 C 22.83 2.74 22.8 2.9 22.8 2.9 L 24.1 2.9 L 24.1 4.1 L 22.8 4.1 L 22.8 9 L 21.3 9 L 21.3 4.1 Z M 28.6 4.4 C 28.6 4.3 28.5 4.2 28.3 4.2 C 28.34 4.18 27.9 4.2 27.9 4.2 L 27.9 2.9 C 27.9 2.9 29.32 2.88 29.3 2.9 C 29.9 2.9 30.1 3.1 30.1 3.7 C 30.1 3.7 30.1 6.5 30.1 6.5 C 30.1 7.2 30.3 7.8 31.1 7.8 C 32.2 7.8 32.8 6.8 32.8 5.7 C 32.78 5.69 32.8 2.9 32.8 2.9 L 34.3 2.9 C 34.3 2.9 34.31 7.45 34.3 7.5 C 34.3 7.6 34.4 7.7 34.6 7.7 C 34.57 7.72 35.1 7.7 35.1 7.7 L 35.1 9 C 35.1 9 33.65 9 33.6 9 C 33.1 9 32.8 8.7 32.8 8.3 C 32.8 8.3 32.8 8.1 32.8 8.1 C 32.8 8 32.9 7.9 32.9 7.9 C 32.9 7.9 32.8 7.9 32.8 7.9 C 32.5 8.5 31.8 9.1 30.7 9.1 C 29.4 9.1 28.6 8.5 28.6 6.8 C 28.6 6.8 28.6 4.4 28.6 4.4 Z M 36.2 2 C 36.2 1.9 36.1 1.8 36 1.8 C 35.98 1.78 35.5 1.8 35.5 1.8 L 35.5 0.5 C 35.5 0.5 36.95 0.48 36.9 0.5 C 37.5 0.5 37.8 0.6 37.8 1.2 C 37.76 1.18 37.8 5 37.8 5 C 37.8 5 38.22 5.04 38.2 5 C 38.4 5 38.7 5 38.8 4.8 C 38.79 4.81 40 2.9 40 2.9 L 41.7 2.9 C 41.7 2.9 40.19 5.18 40.2 5.2 C 39.92 5.57 39.7 5.7 39.7 5.7 L 39.7 5.7 C 39.7 5.7 39.95 5.77 40.2 6.2 C 40.2 6.2 40.9 7.5 40.9 7.5 C 41 7.7 41.1 7.7 41.4 7.7 C 41.36 7.72 41.8 7.7 41.8 7.7 L 41.8 9 C 41.8 9 40.64 9 40.6 9 C 40.1 9 39.9 8.9 39.7 8.5 C 39.7 8.5 38.7 6.6 38.7 6.6 C 38.5 6.3 38.3 6.3 38.1 6.3 C 38.1 6.32 37.8 6.3 37.8 6.3 L 37.8 9 L 36.2 9 C 36.2 9 36.24 2.04 36.2 2 Z M 45.9 5.2 C 45.92 5.16 46.1 5.2 46.1 5.2 C 46.1 5.2 46.12 5.11 46.1 5.1 C 46.1 4.2 45.8 3.9 45 3.9 C 44.7 3.9 44.2 4 44.2 4.3 C 44.17 4.32 44.2 4.6 44.2 4.6 L 42.8 4.6 C 42.8 4.6 42.76 4 42.8 4 C 42.8 2.9 44.4 2.7 45 2.7 C 47 2.7 47.6 3.8 47.6 5.2 C 47.6 5.2 47.6 7.5 47.6 7.5 C 47.6 7.6 47.7 7.7 47.9 7.7 C 47.9 7.72 48.4 7.7 48.4 7.7 L 48.4 9 C 48.4 9 47.02 9 47 9 C 46.5 9 46.2 8.7 46.2 8.3 C 46.2 8.2 46.2 8.1 46.2 8.1 C 46.25 8.06 46.2 8.1 46.2 8.1 C 46.2 8.1 45.76 9.14 44.4 9.1 C 43.3 9.1 42.3 8.5 42.3 7.2 C 42.3 5.3 44.9 5.2 45.9 5.2 Z M 44.7 8 C 45.6 8 46.1 7.1 46.1 6.3 C 46.14 6.35 46.1 6.2 46.1 6.2 C 46.1 6.2 45.88 6.2 45.9 6.2 C 45.1 6.2 43.8 6.3 43.8 7.2 C 43.8 7.6 44.1 8 44.7 8 Z M 48.9 8.2 C 48.9 8.2 51.76 4.74 51.8 4.7 C 52.03 4.39 52.3 4.2 52.3 4.2 L 52.3 4.2 C 52.3 4.2 52.09 4.18 51.7 4.2 C 51.7 4.2 50.6 4.2 50.6 4.2 C 50.4 4.2 50.3 4.3 50.3 4.4 C 50.34 4.44 50.3 4.8 50.3 4.8 L 49 4.8 C 49 4.8 48.96 3.7 49 3.7 C 49 3.1 49.2 2.9 49.8 2.9 C 49.78 2.88 54.3 2.9 54.3 2.9 L 54.3 3.7 C 54.3 3.7 51.44 7.15 51.4 7.2 C 51.17 7.49 50.9 7.7 50.9 7.7 L 50.9 7.7 C 50.9 7.7 51.11 7.7 51.5 7.7 C 51.5 7.7 52.8 7.7 52.8 7.7 C 53 7.7 53.1 7.6 53.1 7.4 C 53.11 7.44 53.1 7.1 53.1 7.1 L 54.5 7.1 C 54.5 7.1 54.49 8.18 54.5 8.2 C 54.5 8.8 54.3 9 53.7 9 C 53.69 9 48.9 9 48.9 9 L 48.9 8.2 Z M 55.7 4.4 C 55.7 4.3 55.6 4.2 55.5 4.2 C 55.45 4.18 55 4.2 55 4.2 L 55 2.9 C 55 2.9 56.42 2.88 56.4 2.9 C 57 2.9 57.2 3.1 57.2 3.7 C 57.2 3.7 57.2 6.5 57.2 6.5 C 57.2 7.2 57.4 7.8 58.2 7.8 C 59.3 7.8 59.9 6.8 59.9 5.7 C 59.89 5.69 59.9 2.9 59.9 2.9 L 61.4 2.9 C 61.4 2.9 61.41 7.45 61.4 7.5 C 61.4 7.6 61.5 7.7 61.7 7.7 C 61.68 7.72 62.2 7.7 62.2 7.7 L 62.2 9 C 62.2 9 60.75 9 60.8 9 C 60.2 9 60 8.7 60 8.3 C 60 8.3 60 8.1 60 8.1 C 60 8 60 7.9 60 7.9 C 60 7.9 59.9 7.9 59.9 7.9 C 59.7 8.5 58.9 9.1 57.8 9.1 C 56.5 9.1 55.7 8.5 55.7 6.8 C 55.7 6.8 55.7 4.4 55.7 4.4 Z M 63.7 0.5 L 65.1 0.5 L 65.1 1.9 L 63.7 1.9 L 63.7 0.5 Z M 62.4 10.2 C 62.9 10.2 63.7 10.1 63.7 9.1 C 63.7 9.1 63.7 4.4 63.7 4.4 C 63.7 4.3 63.6 4.2 63.4 4.2 C 63.4 4.18 62.9 4.2 62.9 4.2 L 62.9 2.9 C 62.9 2.9 64.37 2.88 64.4 2.9 C 64.9 2.9 65.2 3.1 65.2 3.7 C 65.2 3.7 65.2 9.2 65.2 9.2 C 65.2 11.2 63.5 11.5 62.6 11.5 C 62.4 11.5 62.2 11.4 62.2 11.4 C 62.17 11.45 62.2 10.2 62.2 10.2 C 62.2 10.2 62.28 10.19 62.4 10.2 Z M 69.6 2.7 C 71.3 2.7 72.3 4 72.3 5.6 C 72.26 5.82 72.2 6.2 72.2 6.2 C 72.2 6.2 68 6.2 68 6.2 C 68.1 7.3 68.9 7.8 69.8 7.8 C 70.82 7.85 71.6 7.2 71.6 7.2 L 72.2 8.2 C 72.2 8.2 71.25 9.14 69.7 9.1 C 67.7 9.1 66.4 7.7 66.4 5.9 C 66.4 4.1 67.7 2.7 69.6 2.7 Z M 70.7 5.1 C 70.7 4.4 70.2 3.9 69.6 3.9 C 68.8 3.9 68.2 4.4 68.1 5.1 C 68.1 5.1 70.7 5.1 70.7 5.1 Z M 76.2 8.2 C 76.2 8.2 79.07 4.74 79.1 4.7 C 79.34 4.39 79.6 4.2 79.6 4.2 L 79.6 4.2 C 79.6 4.2 79.4 4.18 79 4.2 C 79 4.2 77.9 4.2 77.9 4.2 C 77.7 4.2 77.6 4.3 77.6 4.4 C 77.65 4.44 77.6 4.8 77.6 4.8 L 76.3 4.8 C 76.3 4.8 76.27 3.7 76.3 3.7 C 76.3 3.1 76.5 2.9 77.1 2.9 C 77.09 2.88 81.6 2.9 81.6 2.9 L 81.6 3.7 C 81.6 3.7 78.75 7.15 78.8 7.2 C 78.48 7.49 78.2 7.7 78.2 7.7 L 78.2 7.7 C 78.2 7.7 78.42 7.7 78.8 7.7 C 78.8 7.7 80.2 7.7 80.2 7.7 C 80.3 7.7 80.4 7.6 80.4 7.4 C 80.42 7.44 80.4 7.1 80.4 7.1 L 81.8 7.1 C 81.8 7.1 81.8 8.18 81.8 8.2 C 81.8 8.8 81.6 9 81 9 C 81 9 76.2 9 76.2 9 L 76.2 8.2 Z M 83.1 4.4 C 83.1 4.3 83 4.2 82.8 4.2 C 82.79 4.18 82.3 4.2 82.3 4.2 L 82.3 2.9 C 82.3 2.9 83.71 2.88 83.7 2.9 C 84.3 2.9 84.5 3.1 84.5 3.6 C 84.5 3.6 84.5 3.7 84.5 3.7 C 84.5 3.9 84.5 4 84.5 4 C 84.5 4 84.5 4 84.5 4 C 84.8 3.4 85.5 2.7 86.5 2.7 C 87.4 2.7 88 3.2 88.3 4 C 88.3 4 88.3 4 88.3 4 C 88.6 3.3 89.4 2.7 90.4 2.7 C 91.7 2.7 92.4 3.5 92.4 5.1 C 92.4 5.1 92.4 7.5 92.4 7.5 C 92.4 7.6 92.5 7.7 92.7 7.7 C 92.67 7.72 93.1 7.7 93.1 7.7 L 93.1 9 C 93.1 9 91.7 9 91.7 9 C 91.1 9 90.9 8.8 90.9 8.2 C 90.9 8.2 90.9 5.4 90.9 5.4 C 90.9 4.7 90.8 4.1 90 4.1 C 89.3 4.1 88.7 4.8 88.6 5.5 C 88.5 5.8 88.5 6 88.5 6.3 C 88.49 6.31 88.5 9 88.5 9 L 87 9 C 87 9 86.96 5.35 87 5.4 C 87 4.7 86.9 4.1 86.1 4.1 C 85.4 4.1 84.8 4.8 84.7 5.5 C 84.6 5.8 84.6 6 84.6 6.3 C 84.56 6.31 84.6 9 84.6 9 L 83.1 9 C 83.1 9 83.05 4.44 83.1 4.4 Z M 96.9 2.7 C 98.6 2.7 99.6 4 99.6 5.6 C 99.57 5.82 99.5 6.2 99.5 6.2 C 99.5 6.2 95.31 6.2 95.3 6.2 C 95.4 7.3 96.2 7.8 97.2 7.8 C 98.14 7.85 98.9 7.2 98.9 7.2 L 99.5 8.2 C 99.5 8.2 98.57 9.14 97 9.1 C 95 9.1 93.8 7.7 93.8 5.9 C 93.8 4.1 95 2.7 96.9 2.7 Z M 98 5.1 C 98 4.4 97.5 3.9 96.9 3.9 C 96.1 3.9 95.5 4.4 95.4 5.1 C 95.4 5.1 98 5.1 98 5.1 Z M 101.1 4.4 C 101.1 4.3 101 4.2 100.8 4.2 C 100.79 4.18 100.3 4.2 100.3 4.2 L 100.3 2.9 C 100.3 2.9 101.71 2.88 101.7 2.9 C 102.2 2.9 102.5 3.1 102.5 3.6 C 102.5 3.6 102.5 3.7 102.5 3.7 C 102.5 3.9 102.5 4 102.5 4 C 102.5 4 102.5 4 102.5 4 C 102.8 3.5 103.4 2.7 104.7 2.7 C 106 2.7 106.8 3.4 106.8 5.1 C 106.8 5.1 106.8 7.5 106.8 7.5 C 106.8 7.6 106.9 7.7 107.1 7.7 C 107.07 7.72 107.6 7.7 107.6 7.7 L 107.6 9 C 107.6 9 106.1 9 106.1 9 C 105.5 9 105.3 8.8 105.3 8.2 C 105.3 8.2 105.3 5.4 105.3 5.4 C 105.3 4.6 105.1 4.1 104.3 4.1 C 103.5 4.1 102.9 4.6 102.7 5.4 C 102.6 5.6 102.6 5.9 102.6 6.2 C 102.56 6.19 102.6 9 102.6 9 L 101.1 9 C 101.1 9 101.05 4.44 101.1 4.4 Z M 109.1 10.2 C 109.5 10.2 109.9 10 110.1 9.5 C 110.13 9.46 110.3 9 110.3 9 C 110.3 9 108.3 4.39 108.3 4.4 C 108.2 4.2 108.1 4.2 108 4.2 C 107.97 4.18 107.8 4.2 107.8 4.2 L 107.8 2.9 C 107.8 2.9 108.8 2.88 108.8 2.9 C 109.2 2.9 109.5 3 109.6 3.5 C 109.6 3.5 110.8 6.5 110.8 6.5 C 110.93 6.83 111 7.3 111 7.3 L 111 7.3 C 111 7.3 111.14 6.83 111.3 6.5 C 111.3 6.5 112.3 3.5 112.3 3.5 C 112.4 3 112.7 2.9 113.1 2.9 C 113.11 2.88 114.1 2.9 114.1 2.9 L 114.1 4.2 C 114.1 4.2 113.96 4.18 114 4.2 C 113.8 4.2 113.7 4.2 113.6 4.4 C 113.6 4.4 111.4 9.9 111.4 9.9 C 111 11 110.1 11.5 109.2 11.5 C 108.25 11.52 107.7 10.9 107.7 10.9 L 108.3 9.8 C 108.3 9.8 108.62 10.24 109.1 10.2 Z M 117.6 7.7 C 117.6 7.7 117.79 7.67 117.8 7.7 C 118 7.7 118.1 7.6 118.2 7.4 C 118.16 7.4 120.7 0.5 120.7 0.5 L 122.3 0.5 C 122.3 0.5 124.86 7.4 124.9 7.4 C 124.9 7.6 125 7.7 125.2 7.7 C 125.23 7.67 125.4 7.7 125.4 7.7 L 125.4 9 C 125.4 9 124.49 9 124.5 9 C 123.9 9 123.7 8.8 123.5 8.3 C 123.48 8.3 122.9 6.8 122.9 6.8 L 120.1 6.8 C 120.1 6.8 119.54 8.3 119.5 8.3 C 119.4 8.8 119.1 9 118.5 9 C 118.55 9 117.6 9 117.6 9 L 117.6 7.7 Z M 122.6 5.5 C 122.6 5.5 121.86 3.38 121.9 3.4 C 121.7 2.92 121.5 2.1 121.5 2.1 L 121.5 2.1 C 121.5 2.1 121.32 2.92 121.2 3.4 C 121.16 3.38 120.4 5.5 120.4 5.5 L 122.6 5.5 Z M 126.7 1.8 L 126 1.8 L 126 0.5 C 126 0.5 129.86 0.48 129.9 0.5 C 131.5 0.5 132.6 1.6 132.6 3.3 C 132.6 4.9 131.5 6.1 129.9 6.1 C 129.86 6.06 128.3 6.1 128.3 6.1 L 128.3 9 L 126.7 9 L 126.7 1.8 Z M 129.6 4.7 C 130.5 4.7 131 4.1 131 3.3 C 131 2.4 130.5 1.8 129.6 1.8 C 129.6 1.81 128.3 1.8 128.3 1.8 L 128.3 4.7 C 128.3 4.7 129.57 4.72 129.6 4.7 Z M 137.5 0.3 C 138.6 0.3 140.7 0.8 140.7 2.2 C 140.72 2.24 140.7 3.2 140.7 3.2 L 139.3 3.2 C 139.3 3.2 139.29 2.71 139.3 2.7 C 139.3 2.1 138.3 1.8 137.5 1.8 C 136 1.8 134.8 2.9 134.8 4.7 C 134.8 6.3 136 7.7 137.6 7.7 C 139.19 7.68 140.2 6.6 140.2 6.6 L 141 7.7 C 141 7.7 139.75 9.14 137.6 9.1 C 134.9 9.1 133.2 7.2 133.2 4.7 C 133.2 2.2 135 0.3 137.5 0.3 Z M 145.5 4.4 C 145.5 4.3 145.4 4.2 145.2 4.2 C 145.23 4.18 144.8 4.2 144.8 4.2 L 144.8 2.9 C 144.8 2.9 146.15 2.88 146.1 2.9 C 146.7 2.9 147 3.1 147 3.6 C 147 3.6 147 4 147 4 C 146.96 4.21 146.9 4.4 146.9 4.4 C 146.9 4.4 146.96 4.37 147 4.4 C 147.2 3.5 148 2.8 148.9 2.8 C 149.04 2.8 149.2 2.8 149.2 2.8 L 149.2 4.3 C 149.2 4.3 149.03 4.3 148.8 4.3 C 148.2 4.3 147.4 4.7 147.1 5.6 C 147.1 5.9 147 6.2 147 6.6 C 147.01 6.58 147 9 147 9 L 145.5 9 C 145.5 9 145.5 4.44 145.5 4.4 Z M 152.7 2.7 C 154.5 2.7 155.4 4 155.4 5.6 C 155.42 5.82 155.4 6.2 155.4 6.2 C 155.4 6.2 151.16 6.2 151.2 6.2 C 151.3 7.3 152.1 7.8 153 7.8 C 153.98 7.85 154.7 7.2 154.7 7.2 L 155.3 8.2 C 155.3 8.2 154.41 9.14 152.9 9.1 C 150.9 9.1 149.6 7.7 149.6 5.9 C 149.6 4.1 150.9 2.7 152.7 2.7 Z M 153.9 5.1 C 153.8 4.4 153.3 3.9 152.7 3.9 C 151.9 3.9 151.4 4.4 151.2 5.1 C 151.2 5.1 153.9 5.1 153.9 5.1 Z M 156.2 8.2 C 156.2 8.2 159.05 4.74 159 4.7 C 159.32 4.39 159.6 4.2 159.6 4.2 L 159.6 4.2 C 159.6 4.2 159.38 4.18 159 4.2 C 159 4.2 157.9 4.2 157.9 4.2 C 157.7 4.2 157.6 4.3 157.6 4.4 C 157.63 4.44 157.6 4.8 157.6 4.8 L 156.3 4.8 C 156.3 4.8 156.25 3.7 156.3 3.7 C 156.3 3.1 156.5 2.9 157.1 2.9 C 157.07 2.88 161.6 2.9 161.6 2.9 L 161.6 3.7 C 161.6 3.7 158.73 7.15 158.7 7.2 C 158.46 7.49 158.2 7.7 158.2 7.7 L 158.2 7.7 C 158.2 7.7 158.4 7.7 158.8 7.7 C 158.8 7.7 160.1 7.7 160.1 7.7 C 160.3 7.7 160.4 7.6 160.4 7.4 C 160.4 7.44 160.4 7.1 160.4 7.1 L 161.8 7.1 C 161.8 7.1 161.78 8.18 161.8 8.2 C 161.8 8.8 161.5 9 161 9 C 160.98 9 156.2 9 156.2 9 L 156.2 8.2 Z M 163.2 0.5 L 164.5 0.5 L 164.5 1.9 L 163.2 1.9 L 163.2 0.5 Z M 163.1 4.4 C 163.1 4.3 163 4.2 162.8 4.2 C 162.81 4.18 162.3 4.2 162.3 4.2 L 162.3 2.9 C 162.3 2.9 163.79 2.88 163.8 2.9 C 164.3 2.9 164.6 3.1 164.6 3.7 C 164.6 3.7 164.6 7.5 164.6 7.5 C 164.6 7.6 164.7 7.7 164.9 7.7 C 164.85 7.72 165.3 7.7 165.3 7.7 L 165.3 9 C 165.3 9 163.88 9 163.9 9 C 163.3 9 163.1 8.8 163.1 8.2 C 163.1 8.2 163.1 4.4 163.1 4.4 Z M 166.6 7.1 C 166.6 7.1 167.42 7.96 168.5 8 C 168.9 8 169.3 7.8 169.3 7.4 C 169.3 6.5 166.1 6.5 166.1 4.5 C 166.1 3.3 167.2 2.7 168.4 2.7 C 169.3 2.7 170.6 3 170.6 4 C 170.59 4.01 170.6 4.6 170.6 4.6 L 169.2 4.6 C 169.2 4.6 169.25 4.34 169.2 4.3 C 169.2 4.1 168.8 3.9 168.5 3.9 C 167.9 3.9 167.6 4.1 167.6 4.5 C 167.6 5.4 170.8 5.2 170.8 7.3 C 170.8 8.4 169.8 9.1 168.5 9.1 C 166.79 9.14 165.9 8.1 165.9 8.1 L 166.6 7.1 Z M 172.3 4.1 L 171.5 4.1 L 171.5 2.9 L 172.3 2.9 L 172.3 1.2 L 173.8 1.2 L 173.8 2.9 L 175.2 2.9 L 175.2 4.1 L 173.8 4.1 C 173.8 4.1 173.78 6.56 173.8 6.6 C 173.8 7.6 174.6 7.7 175 7.7 C 175.16 7.72 175.3 7.7 175.3 7.7 L 175.3 9 C 175.3 9 175.08 9.06 174.8 9.1 C 173.9 9.1 172.3 8.8 172.3 6.8 C 172.26 6.76 172.3 4.1 172.3 4.1 Z M 179.1 2.7 C 180.8 2.7 181.8 4 181.8 5.6 C 181.78 5.82 181.7 6.2 181.7 6.2 C 181.7 6.2 177.52 6.2 177.5 6.2 C 177.6 7.3 178.4 7.8 179.4 7.8 C 180.35 7.85 181.1 7.2 181.1 7.2 L 181.7 8.2 C 181.7 8.2 180.78 9.14 179.3 9.1 C 177.2 9.1 176 7.7 176 5.9 C 176 4.1 177.2 2.7 179.1 2.7 Z M 180.2 5.1 C 180.2 4.4 179.7 3.9 179.1 3.9 C 178.3 3.9 177.7 4.4 177.6 5.1 C 177.6 5.1 180.2 5.1 180.2 5.1 Z M 183.3 4.4 C 183.3 4.3 183.2 4.2 183 4.2 C 183 4.18 182.5 4.2 182.5 4.2 L 182.5 2.9 C 182.5 2.9 183.92 2.88 183.9 2.9 C 184.5 2.9 184.7 3.1 184.7 3.6 C 184.7 3.6 184.7 3.7 184.7 3.7 C 184.7 3.9 184.7 4 184.7 4 C 184.7 4 184.7 4 184.7 4 C 185 3.5 185.6 2.7 186.9 2.7 C 188.2 2.7 189 3.4 189 5.1 C 189 5.1 189 7.5 189 7.5 C 189 7.6 189.1 7.7 189.3 7.7 C 189.28 7.72 189.8 7.7 189.8 7.7 L 189.8 9 C 189.8 9 188.31 9 188.3 9 C 187.7 9 187.5 8.8 187.5 8.2 C 187.5 8.2 187.5 5.4 187.5 5.4 C 187.5 4.6 187.3 4.1 186.5 4.1 C 185.7 4.1 185.1 4.6 184.9 5.4 C 184.8 5.6 184.8 5.9 184.8 6.2 C 184.77 6.19 184.8 9 184.8 9 L 183.3 9 C 183.3 9 183.26 4.44 183.3 4.4 Z M 193.7 2.7 C 194.5 2.7 195.9 3.1 195.9 4.1 C 195.93 4.12 195.9 4.8 195.9 4.8 L 194.6 4.8 C 194.6 4.8 194.59 4.5 194.6 4.5 C 194.6 4.2 194.1 4 193.7 4 C 192.7 4 191.9 4.8 191.9 5.9 C 191.9 7.2 192.8 7.8 193.8 7.8 C 194.85 7.81 195.6 7 195.6 7 L 196.3 8 C 196.3 8 195.35 9.14 193.7 9.1 C 191.7 9.1 190.4 7.7 190.4 5.9 C 190.4 4.2 191.6 2.7 193.7 2.7 Z M 197.6 0.5 L 198.9 0.5 L 198.9 1.9 L 197.6 1.9 L 197.6 0.5 Z M 197.5 4.4 C 197.5 4.3 197.4 4.2 197.2 4.2 C 197.22 4.18 196.7 4.2 196.7 4.2 L 196.7 2.9 C 196.7 2.9 198.19 2.88 198.2 2.9 C 198.8 2.9 199 3.1 199 3.7 C 199 3.7 199 7.5 199 7.5 C 199 7.6 199.1 7.7 199.3 7.7 C 199.26 7.72 199.7 7.7 199.7 7.7 L 199.7 9 C 199.7 9 198.29 9 198.3 9 C 197.7 9 197.5 8.8 197.5 8.2 C 197.5 8.2 197.5 4.4 197.5 4.4 Z M 203.5 2.7 C 205.3 2.7 206.2 4 206.2 5.6 C 206.23 5.82 206.2 6.2 206.2 6.2 C 206.2 6.2 201.97 6.2 202 6.2 C 202.1 7.3 202.9 7.8 203.8 7.8 C 204.79 7.85 205.5 7.2 205.5 7.2 L 206.2 8.2 C 206.2 8.2 205.22 9.14 203.7 9.1 C 201.7 9.1 200.4 7.7 200.4 5.9 C 200.4 4.1 201.7 2.7 203.5 2.7 Z M 204.7 5.1 C 204.6 4.4 204.1 3.9 203.5 3.9 C 202.7 3.9 202.2 4.4 202 5.1 C 202 5.1 204.7 5.1 204.7 5.1 Z M 210.9 4.4 C 210.9 4.3 210.8 4.2 210.6 4.2 C 210.62 4.18 210.1 4.2 210.1 4.2 L 210.1 2.9 C 210.1 2.9 211.5 2.88 211.5 2.9 C 212.1 2.9 212.3 3.1 212.3 3.5 C 212.3 3.6 212.3 3.7 212.3 3.7 C 212.26 3.71 212.3 3.7 212.3 3.7 C 212.3 3.7 212.8 2.74 214.2 2.7 C 215.9 2.7 217 4 217 5.9 C 217 7.9 215.8 9.1 214.1 9.1 C 212.94 9.14 212.4 8.3 212.4 8.3 L 212.4 8.3 C 212.4 8.3 212.4 8.56 212.4 8.9 C 212.4 8.87 212.4 11.4 212.4 11.4 L 210.9 11.4 C 210.9 11.4 210.89 4.44 210.9 4.4 Z M 213.9 7.9 C 214.7 7.9 215.4 7.2 215.4 6 C 215.4 4.8 214.8 4 213.9 4 C 213.1 4 212.4 4.6 212.4 6 C 212.4 6.9 212.9 7.9 213.9 7.9 Z M 221.1 2.7 C 222.9 2.7 224.4 4.1 224.4 5.9 C 224.4 7.8 222.9 9.1 221.1 9.1 C 219.2 9.1 217.7 7.8 217.7 5.9 C 217.7 4.1 219.2 2.7 221.1 2.7 Z M 221.1 7.8 C 222.1 7.8 222.9 7.1 222.9 5.9 C 222.9 4.8 222.1 4 221.1 4 C 220.1 4 219.3 4.8 219.3 5.9 C 219.3 7.1 220.1 7.8 221.1 7.8 Z M 228.4 5.2 C 228.4 2.9 229.7 0.3 232.3 0.3 C 233.4 0.34 234.1 0.7 234.1 0.7 L 233.6 2 C 233.6 2 233.06 1.76 232.4 1.8 C 231.1 1.8 230.4 2.9 230.2 4.1 C 230.2 4.1 230.2 4.1 230.2 4.1 C 230.5 3.7 231.2 3.5 231.8 3.5 C 233.4 3.5 234.5 4.8 234.5 6.3 C 234.5 7.9 233.4 9.1 231.7 9.1 C 229.9 9.1 228.4 7.7 228.4 5.2 Z M 231.7 7.7 C 232.5 7.7 233 7.1 233 6.3 C 233 5.4 232.4 4.7 231.4 4.7 C 230.6 4.7 230 5.1 230 5.7 C 230 6.7 230.8 7.7 231.7 7.7 Z M 241.8 2.7 C 242.6 2.7 244 3.1 244 4.1 C 244.03 4.12 244 4.8 244 4.8 L 242.7 4.8 C 242.7 4.8 242.69 4.5 242.7 4.5 C 242.7 4.2 242.2 4 241.8 4 C 240.8 4 240 4.8 240 5.9 C 240 7.2 240.9 7.8 241.9 7.8 C 242.95 7.81 243.7 7 243.7 7 L 244.4 8 C 244.4 8 243.44 9.14 241.8 9.1 C 239.8 9.1 238.5 7.7 238.5 5.9 C 238.5 4.2 239.7 2.7 241.8 2.7 Z M 245.9 10.2 C 246.4 10.2 246.7 10 247 9.5 C 246.96 9.46 247.2 9 247.2 9 C 247.2 9 245.12 4.39 245.1 4.4 C 245 4.2 245 4.2 244.8 4.2 C 244.8 4.18 244.6 4.2 244.6 4.2 L 244.6 2.9 C 244.6 2.9 245.63 2.88 245.6 2.9 C 246.1 2.9 246.3 3 246.4 3.5 C 246.4 3.5 247.6 6.5 247.6 6.5 C 247.75 6.83 247.8 7.3 247.8 7.3 L 247.9 7.3 C 247.9 7.3 247.96 6.83 248.1 6.5 C 248.1 6.5 249.1 3.5 249.1 3.5 C 249.3 3 249.5 2.9 249.9 2.9 C 249.93 2.88 251 2.9 251 2.9 L 251 4.2 C 251 4.2 250.78 4.18 250.8 4.2 C 250.6 4.2 250.5 4.2 250.4 4.4 C 250.4 4.4 248.2 9.9 248.2 9.9 C 247.8 11 246.9 11.5 246 11.5 C 245.07 11.52 244.5 10.9 244.5 10.9 L 245.1 9.8 C 245.1 9.8 245.45 10.24 245.9 10.2 Z M 252.1 2 C 252.1 1.9 252 1.8 251.8 1.8 C 251.79 1.78 251.3 1.8 251.3 1.8 L 251.3 0.5 C 251.3 0.5 252.76 0.48 252.8 0.5 C 253.3 0.5 253.6 0.6 253.6 1.2 C 253.58 1.18 253.6 5 253.6 5 C 253.6 5 254.04 5.04 254 5 C 254.2 5 254.5 5 254.6 4.8 C 254.61 4.81 255.9 2.9 255.9 2.9 L 257.6 2.9 C 257.6 2.9 256 5.18 256 5.2 C 255.74 5.57 255.5 5.7 255.5 5.7 L 255.5 5.7 C 255.5 5.7 255.76 5.77 256 6.2 C 256 6.2 256.7 7.5 256.7 7.5 C 256.8 7.7 256.9 7.7 257.2 7.7 C 257.18 7.72 257.6 7.7 257.6 7.7 L 257.6 9 C 257.6 9 256.46 9 256.5 9 C 255.9 9 255.7 8.9 255.5 8.5 C 255.5 8.5 254.5 6.6 254.5 6.6 C 254.4 6.3 254.1 6.3 253.9 6.3 C 253.92 6.32 253.6 6.3 253.6 6.3 L 253.6 9 L 252.1 9 C 252.1 9 252.06 2.04 252.1 2 Z M 258.6 2 C 258.6 1.9 258.5 1.8 258.4 1.8 C 258.37 1.78 257.9 1.8 257.9 1.8 L 257.9 0.5 C 257.9 0.5 259.34 0.48 259.3 0.5 C 259.9 0.5 260.2 0.7 260.2 1.3 C 260.2 1.3 260.2 7.5 260.2 7.5 C 260.2 7.6 260.3 7.7 260.4 7.7 C 260.42 7.72 260.9 7.7 260.9 7.7 L 260.9 9 C 260.9 9 259.45 9 259.4 9 C 258.9 9 258.6 8.8 258.6 8.2 C 258.6 8.2 258.6 2 258.6 2 Z M 264.9 2.7 C 266.8 2.7 268.3 4.1 268.3 5.9 C 268.3 7.8 266.8 9.1 264.9 9.1 C 263 9.1 261.5 7.8 261.5 5.9 C 261.5 4.1 263 2.7 264.9 2.7 Z M 264.9 7.8 C 265.9 7.8 266.7 7.1 266.7 5.9 C 266.7 4.8 265.9 4 264.9 4 C 263.9 4 263.1 4.8 263.1 5.9 C 263.1 7.1 263.9 7.8 264.9 7.8 Z M 272.4 2.7 C 273.2 2.7 274.6 3.1 274.6 4.1 C 274.59 4.12 274.6 4.8 274.6 4.8 L 273.2 4.8 C 273.2 4.8 273.25 4.5 273.2 4.5 C 273.2 4.2 272.7 4 272.4 4 C 271.3 4 270.6 4.8 270.6 5.9 C 270.6 7.2 271.5 7.8 272.5 7.8 C 273.51 7.81 274.3 7 274.3 7 L 274.9 8 C 274.9 8 274 9.14 272.3 9.1 C 270.3 9.1 269 7.7 269 5.9 C 269 4.2 270.3 2.7 272.4 2.7 Z M 276 2 C 276 1.9 275.9 1.8 275.7 1.8 C 275.75 1.78 275.3 1.8 275.3 1.8 L 275.3 0.5 C 275.3 0.5 276.72 0.48 276.7 0.5 C 277.3 0.5 277.5 0.7 277.5 1.3 C 277.5 1.3 277.5 3.4 277.5 3.4 C 277.53 3.73 277.5 3.9 277.5 3.9 C 277.5 3.9 277.53 3.95 277.5 3.9 C 277.8 3.4 278.6 2.7 279.6 2.7 C 281 2.7 281.8 3.4 281.8 5.1 C 281.8 5.1 281.8 7.5 281.8 7.5 C 281.8 7.6 281.9 7.7 282 7.7 C 282.03 7.72 282.5 7.7 282.5 7.7 L 282.5 9 C 282.5 9 281.06 9 281.1 9 C 280.5 9 280.3 8.8 280.3 8.2 C 280.3 8.2 280.3 5.4 280.3 5.4 C 280.3 4.6 280.1 4.1 279.3 4.1 C 278.5 4.1 277.9 4.7 277.6 5.4 C 277.6 5.6 277.5 5.9 277.5 6.2 C 277.53 6.19 277.5 9 277.5 9 L 276 9 C 276 9 276.01 2.04 276 2 Z M 286.9 4.4 C 286.9 4.3 286.8 4.2 286.6 4.2 C 286.63 4.18 286.1 4.2 286.1 4.2 L 286.1 2.9 C 286.1 2.9 287.6 2.88 287.6 2.9 C 288.2 2.9 288.4 3.1 288.4 3.7 C 288.4 3.7 288.4 6.5 288.4 6.5 C 288.4 7.2 288.6 7.8 289.4 7.8 C 290.5 7.8 291.1 6.8 291.1 5.7 C 291.07 5.69 291.1 2.9 291.1 2.9 L 292.6 2.9 C 292.6 2.9 292.59 7.45 292.6 7.5 C 292.6 7.6 292.7 7.7 292.9 7.7 C 292.86 7.72 293.3 7.7 293.3 7.7 L 293.3 9 C 293.3 9 291.93 9 291.9 9 C 291.4 9 291.1 8.7 291.1 8.3 C 291.1 8.3 291.1 8.1 291.1 8.1 C 291.1 8 291.1 7.9 291.1 7.9 C 291.1 7.9 291.1 7.9 291.1 7.9 C 290.8 8.5 290.1 9.1 289 9.1 C 287.7 9.1 286.9 8.5 286.9 6.8 C 286.9 6.8 286.9 4.4 286.9 4.4 Z M 293.9 8.2 C 293.9 8.2 296.72 4.74 296.7 4.7 C 297 4.39 297.2 4.2 297.2 4.2 L 297.2 4.2 C 297.2 4.2 297.06 4.18 296.7 4.2 C 296.7 4.2 295.6 4.2 295.6 4.2 C 295.4 4.2 295.3 4.3 295.3 4.4 C 295.3 4.44 295.3 4.8 295.3 4.8 L 293.9 4.8 C 293.9 4.8 293.92 3.7 293.9 3.7 C 293.9 3.1 294.2 2.9 294.7 2.9 C 294.74 2.88 299.2 2.9 299.2 2.9 L 299.2 3.7 C 299.2 3.7 296.41 7.15 296.4 7.2 C 296.13 7.49 295.9 7.7 295.9 7.7 L 295.9 7.7 C 295.9 7.7 296.07 7.7 296.5 7.7 C 296.5 7.7 297.8 7.7 297.8 7.7 C 298 7.7 298.1 7.6 298.1 7.4 C 298.08 7.44 298.1 7.1 298.1 7.1 L 299.5 7.1 C 299.5 7.1 299.46 8.18 299.5 8.2 C 299.5 8.8 299.2 9 298.7 9 C 298.65 9 293.9 9 293.9 9 L 293.9 8.2 Z M 295 0.5 L 296.1 0.5 L 296.7 1.5 L 296.7 1.5 L 297.3 0.5 L 298.5 0.5 L 297.4 2.1 L 296.1 2.1 L 295 0.5 Z M 300.8 4.4 C 300.8 4.3 300.7 4.2 300.5 4.2 C 300.5 4.18 300 4.2 300 4.2 L 300 2.9 C 300 2.9 301.47 2.88 301.5 2.9 C 302 2.9 302.3 3.1 302.3 3.7 C 302.3 3.7 302.3 7.5 302.3 7.5 C 302.3 7.6 302.4 7.7 302.6 7.7 C 302.55 7.72 303 7.7 303 7.7 L 303 9 C 303 9 301.58 9 301.6 9 C 301 9 300.8 8.8 300.8 8.2 C 300.8 8.2 300.8 4.4 300.8 4.4 Z M 301.8 0.5 L 303.2 0.5 L 302 2.1 L 300.8 2.1 L 301.8 0.5 Z M 303.9 4.4 C 303.8 4.2 303.7 4.2 303.5 4.2 C 303.55 4.18 303.4 4.2 303.4 4.2 L 303.4 2.9 C 303.4 2.9 304.29 2.88 304.3 2.9 C 304.8 2.9 305 3 305.2 3.5 C 305.2 3.5 306.3 6.7 306.3 6.7 C 306.48 7.03 306.6 7.5 306.6 7.5 L 306.6 7.5 C 306.6 7.5 306.69 7.03 306.8 6.7 C 306.8 6.7 308 3.5 308 3.5 C 308.1 3 308.4 2.9 308.9 2.9 C 308.86 2.88 309.7 2.9 309.7 2.9 L 309.7 4.2 C 309.7 4.2 309.54 4.18 309.5 4.2 C 309.4 4.2 309.3 4.2 309.2 4.4 C 309.2 4.39 307.4 9 307.4 9 L 305.6 9 C 305.6 9 303.88 4.39 303.9 4.4 Z M 313.8 5.2 C 313.78 5.16 314 5.2 314 5.2 C 314 5.2 313.98 5.11 314 5.1 C 314 4.2 313.6 3.9 312.8 3.9 C 312.6 3.9 312 4 312 4.3 C 312.03 4.32 312 4.6 312 4.6 L 310.6 4.6 C 310.6 4.6 310.62 4 310.6 4 C 310.6 2.9 312.2 2.7 312.9 2.7 C 314.9 2.7 315.5 3.8 315.5 5.2 C 315.5 5.2 315.5 7.5 315.5 7.5 C 315.5 7.6 315.6 7.7 315.8 7.7 C 315.76 7.72 316.2 7.7 316.2 7.7 L 316.2 9 C 316.2 9 314.88 9 314.9 9 C 314.3 9 314.1 8.7 314.1 8.3 C 314.1 8.2 314.1 8.1 314.1 8.1 C 314.11 8.06 314.1 8.1 314.1 8.1 C 314.1 8.1 313.62 9.14 312.2 9.1 C 311.1 9.1 310.1 8.5 310.1 7.2 C 310.1 5.3 312.8 5.2 313.8 5.2 Z M 312.6 8 C 313.4 8 314 7.1 314 6.3 C 314 6.35 314 6.2 314 6.2 C 314 6.2 313.74 6.2 313.7 6.2 C 312.9 6.2 311.7 6.3 311.7 7.2 C 311.7 7.6 312 8 312.6 8 Z M 317.5 4.4 C 317.5 4.3 317.4 4.2 317.2 4.2 C 317.2 4.18 316.7 4.2 316.7 4.2 L 316.7 2.9 C 316.7 2.9 318.13 2.88 318.1 2.9 C 318.7 2.9 318.9 3.1 318.9 3.6 C 318.9 3.6 318.9 3.7 318.9 3.7 C 318.9 3.9 318.9 4 318.9 4 C 318.9 4 318.9 4 318.9 4 C 319.2 3.5 319.9 2.7 321.1 2.7 C 322.4 2.7 323.2 3.4 323.2 5.1 C 323.2 5.1 323.2 7.5 323.2 7.5 C 323.2 7.6 323.3 7.7 323.5 7.7 C 323.49 7.72 324 7.7 324 7.7 L 324 9 C 324 9 322.52 9 322.5 9 C 321.9 9 321.7 8.8 321.7 8.2 C 321.7 8.2 321.7 5.4 321.7 5.4 C 321.7 4.6 321.5 4.1 320.7 4.1 C 319.9 4.1 319.3 4.6 319.1 5.4 C 319 5.6 319 5.9 319 6.2 C 318.98 6.19 319 9 319 9 L 317.5 9 C 317.5 9 317.47 4.44 317.5 4.4 Z M 325.3 0.5 L 326.6 0.5 L 326.6 1.9 L 325.3 1.9 L 325.3 0.5 Z M 325.2 4.4 C 325.2 4.3 325.1 4.2 325 4.2 C 324.97 4.18 324.5 4.2 324.5 4.2 L 324.5 2.9 C 324.5 2.9 325.94 2.88 325.9 2.9 C 326.5 2.9 326.7 3.1 326.7 3.7 C 326.7 3.7 326.7 7.5 326.7 7.5 C 326.7 7.6 326.8 7.7 327 7.7 C 327.01 7.72 327.5 7.7 327.5 7.7 L 327.5 9 C 327.5 9 326.04 9 326 9 C 325.5 9 325.2 8.8 325.2 8.2 C 325.2 8.2 325.2 4.4 325.2 4.4 Z M 331.8 5.2 C 331.81 5.16 332 5.2 332 5.2 C 332 5.2 332 5.11 332 5.1 C 332 4.2 331.7 3.9 330.9 3.9 C 330.6 3.9 330.1 4 330.1 4.3 C 330.06 4.32 330.1 4.6 330.1 4.6 L 328.6 4.6 C 328.6 4.6 328.64 4 328.6 4 C 328.6 2.9 330.2 2.7 330.9 2.7 C 332.9 2.7 333.5 3.8 333.5 5.2 C 333.5 5.2 333.5 7.5 333.5 7.5 C 333.5 7.6 333.6 7.7 333.8 7.7 C 333.79 7.72 334.3 7.7 334.3 7.7 L 334.3 9 C 334.3 9 332.9 9 332.9 9 C 332.3 9 332.1 8.7 332.1 8.3 C 332.1 8.2 332.1 8.1 332.1 8.1 C 332.13 8.06 332.1 8.1 332.1 8.1 C 332.1 8.1 331.64 9.14 330.3 9.1 C 329.2 9.1 328.2 8.5 328.2 7.2 C 328.2 5.3 330.8 5.2 331.8 5.2 Z M 330.6 8 C 331.4 8 332 7.1 332 6.3 C 332.02 6.35 332 6.2 332 6.2 C 332 6.2 331.76 6.2 331.8 6.2 C 331 6.2 329.7 6.3 329.7 7.2 C 329.7 7.6 330 8 330.6 8 Z M 341.7 5.2 C 341.71 5.16 341.9 5.2 341.9 5.2 C 341.9 5.2 341.9 5.11 341.9 5.1 C 341.9 4.2 341.6 3.9 340.8 3.9 C 340.5 3.9 340 4 340 4.3 C 339.96 4.32 340 4.6 340 4.6 L 338.5 4.6 C 338.5 4.6 338.54 4 338.5 4 C 338.5 2.9 340.1 2.7 340.8 2.7 C 342.8 2.7 343.4 3.8 343.4 5.2 C 343.4 5.2 343.4 7.5 343.4 7.5 C 343.4 7.6 343.5 7.7 343.7 7.7 C 343.69 7.72 344.2 7.7 344.2 7.7 L 344.2 9 C 344.2 9 342.8 9 342.8 9 C 342.2 9 342 8.7 342 8.3 C 342 8.2 342 8.1 342 8.1 C 342.03 8.06 342 8.1 342 8.1 C 342 8.1 341.54 9.14 340.2 9.1 C 339.1 9.1 338.1 8.5 338.1 7.2 C 338.1 5.3 340.7 5.2 341.7 5.2 Z M 340.5 8 C 341.3 8 341.9 7.1 341.9 6.3 C 341.92 6.35 341.9 6.2 341.9 6.2 C 341.9 6.2 341.66 6.2 341.7 6.2 C 340.9 6.2 339.6 6.3 339.6 7.2 C 339.6 7.6 339.9 8 340.5 8 Z M 345.4 4.4 C 345.4 4.3 345.3 4.2 345.1 4.2 C 345.13 4.18 344.6 4.2 344.6 4.2 L 344.6 2.9 C 344.6 2.9 346.05 2.88 346.1 2.9 C 346.6 2.9 346.9 3.1 346.9 3.6 C 346.9 3.6 346.9 3.7 346.9 3.7 C 346.9 3.9 346.8 4 346.8 4 C 346.8 4 346.9 4 346.9 4 C 347.1 3.5 347.8 2.7 349 2.7 C 350.4 2.7 351.2 3.4 351.2 5.1 C 351.2 5.1 351.2 7.5 351.2 7.5 C 351.2 7.6 351.2 7.7 351.4 7.7 C 351.42 7.72 351.9 7.7 351.9 7.7 L 351.9 9 C 351.9 9 350.44 9 350.4 9 C 349.9 9 349.6 8.8 349.6 8.2 C 349.6 8.2 349.6 5.4 349.6 5.4 C 349.6 4.6 349.4 4.1 348.7 4.1 C 347.9 4.1 347.2 4.6 347 5.4 C 346.9 5.6 346.9 5.9 346.9 6.2 C 346.9 6.19 346.9 9 346.9 9 L 345.4 9 C 345.4 9 345.39 4.44 345.4 4.4 Z M 353.1 4.1 L 352.3 4.1 L 352.3 2.9 L 353.2 2.9 L 353.2 1.2 L 354.7 1.2 L 354.7 2.9 L 356 2.9 L 356 4.1 L 354.7 4.1 C 354.7 4.1 354.65 6.56 354.7 6.6 C 354.7 7.6 355.4 7.7 355.9 7.7 C 356.03 7.72 356.1 7.7 356.1 7.7 L 356.1 9 C 356.1 9 355.95 9.06 355.7 9.1 C 354.8 9.1 353.1 8.8 353.1 6.8 C 353.13 6.76 353.1 4.1 353.1 4.1 Z M 357.7 0.5 L 359 0.5 L 359 1.9 L 357.7 1.9 L 357.7 0.5 Z M 357.6 4.4 C 357.6 4.3 357.5 4.2 357.3 4.2 C 357.33 4.18 356.9 4.2 356.9 4.2 L 356.9 2.9 C 356.9 2.9 358.3 2.88 358.3 2.9 C 358.9 2.9 359.1 3.1 359.1 3.7 C 359.1 3.7 359.1 7.5 359.1 7.5 C 359.1 7.6 359.2 7.7 359.4 7.7 C 359.37 7.72 359.9 7.7 359.9 7.7 L 359.9 9 C 359.9 9 358.4 9 358.4 9 C 357.8 9 357.6 8.8 357.6 8.2 C 357.6 8.2 357.6 4.4 357.6 4.4 Z M 361.1 2 C 361.1 1.9 361 1.8 360.8 1.8 C 360.82 1.78 360.3 1.8 360.3 1.8 L 360.3 0.5 C 360.3 0.5 361.8 0.48 361.8 0.5 C 362.4 0.5 362.6 0.6 362.6 1.2 C 362.61 1.18 362.6 5 362.6 5 C 362.6 5 363.07 5.04 363.1 5 C 363.3 5 363.5 5 363.6 4.8 C 363.64 4.81 364.9 2.9 364.9 2.9 L 366.6 2.9 C 366.6 2.9 365.03 5.18 365 5.2 C 364.77 5.57 364.6 5.7 364.6 5.7 L 364.6 5.7 C 364.6 5.7 364.79 5.77 365 6.2 C 365 6.2 365.7 7.5 365.7 7.5 C 365.8 7.7 365.9 7.7 366.2 7.7 C 366.21 7.72 366.6 7.7 366.6 7.7 L 366.6 9 C 366.6 9 365.49 9 365.5 9 C 365 9 364.8 8.9 364.5 8.5 C 364.5 8.5 363.5 6.6 363.5 6.6 C 363.4 6.3 363.1 6.3 362.9 6.3 C 362.95 6.32 362.6 6.3 362.6 6.3 L 362.6 9 L 361.1 9 C 361.1 9 361.09 2.04 361.1 2 Z M 370.4 2.7 C 372.3 2.7 373.8 4.1 373.8 5.9 C 373.8 7.8 372.3 9.1 370.4 9.1 C 368.6 9.1 367.1 7.8 367.1 5.9 C 367.1 4.1 368.6 2.7 370.4 2.7 Z M 370.4 7.8 C 371.4 7.8 372.2 7.1 372.2 5.9 C 372.2 4.8 371.4 4 370.4 4 C 369.4 4 368.6 4.8 368.6 5.9 C 368.6 7.1 369.4 7.8 370.4 7.8 Z M 375.2 4.4 C 375.2 4.3 375.1 4.2 374.9 4.2 C 374.89 4.18 374.4 4.2 374.4 4.2 L 374.4 2.9 C 374.4 2.9 375.81 2.88 375.8 2.9 C 376.4 2.9 376.6 3.1 376.6 3.6 C 376.6 3.6 376.6 3.7 376.6 3.7 C 376.6 3.9 376.6 4 376.6 4 C 376.6 4 376.6 4 376.6 4 C 376.9 3.5 377.5 2.7 378.8 2.7 C 380.1 2.7 380.9 3.4 380.9 5.1 C 380.9 5.1 380.9 7.5 380.9 7.5 C 380.9 7.6 381 7.7 381.2 7.7 C 381.17 7.72 381.7 7.7 381.7 7.7 L 381.7 9 C 381.7 9 380.2 9 380.2 9 C 379.6 9 379.4 8.8 379.4 8.2 C 379.4 8.2 379.4 5.4 379.4 5.4 C 379.4 4.6 379.2 4.1 378.4 4.1 C 377.6 4.1 377 4.6 376.8 5.4 C 376.7 5.6 376.7 5.9 376.7 6.2 C 376.66 6.19 376.7 9 376.7 9 L 375.2 9 C 375.2 9 375.15 4.44 375.2 4.4 Z M 385.6 2.7 C 386.4 2.7 387.8 3.1 387.8 4.1 C 387.82 4.12 387.8 4.8 387.8 4.8 L 386.5 4.8 C 386.5 4.8 386.48 4.5 386.5 4.5 C 386.5 4.2 386 4 385.6 4 C 384.5 4 383.8 4.8 383.8 5.9 C 383.8 7.2 384.7 7.8 385.7 7.8 C 386.74 7.81 387.5 7 387.5 7 L 388.1 8 C 388.1 8 387.24 9.14 385.6 9.1 C 383.6 9.1 382.3 7.7 382.3 5.9 C 382.3 4.2 383.5 2.7 385.6 2.7 Z M 391.8 2.7 C 393.6 2.7 394.5 4 394.5 5.6 C 394.53 5.82 394.5 6.2 394.5 6.2 C 394.5 6.2 390.27 6.2 390.3 6.2 C 390.4 7.3 391.2 7.8 392.1 7.8 C 393.09 7.85 393.8 7.2 393.8 7.2 L 394.5 8.2 C 394.5 8.2 393.52 9.14 392 9.1 C 390 9.1 388.7 7.7 388.7 5.9 C 388.7 4.1 390 2.7 391.8 2.7 Z M 393 5.1 C 392.9 4.4 392.4 3.9 391.8 3.9 C 391 3.9 390.5 4.4 390.3 5.1 C 390.3 5.1 393 5.1 393 5.1 Z M 396 4.4 C 396 4.3 395.9 4.2 395.7 4.2 C 395.74 4.18 395.3 4.2 395.3 4.2 L 395.3 2.9 C 395.3 2.9 396.62 2.88 396.6 2.9 C 397.2 2.9 397.4 3.1 397.4 3.5 C 397.4 3.6 397.4 3.7 397.4 3.7 C 397.39 3.71 397.4 3.7 397.4 3.7 C 397.4 3.7 397.93 2.74 399.4 2.7 C 401 2.7 402.1 4 402.1 5.9 C 402.1 7.9 400.9 9.1 399.3 9.1 C 398.06 9.14 397.5 8.3 397.5 8.3 L 397.5 8.3 C 397.5 8.3 397.52 8.56 397.5 8.9 C 397.52 8.87 397.5 11.4 397.5 11.4 L 396 11.4 C 396 11.4 396.01 4.44 396 4.4 Z M 399 7.9 C 399.8 7.9 400.5 7.2 400.5 6 C 400.5 4.8 399.9 4 399 4 C 398.2 4 397.5 4.6 397.5 6 C 397.5 6.9 398 7.9 399 7.9 Z M 406.2 2.7 C 407 2.7 408.4 3.1 408.4 4.1 C 408.41 4.12 408.4 4.8 408.4 4.8 L 407.1 4.8 C 407.1 4.8 407.07 4.5 407.1 4.5 C 407.1 4.2 406.6 4 406.2 4 C 405.1 4 404.4 4.8 404.4 5.9 C 404.4 7.2 405.3 7.8 406.3 7.8 C 407.34 7.81 408.1 7 408.1 7 L 408.7 8 C 408.7 8 407.83 9.14 406.2 9.1 C 404.1 9.1 402.8 7.7 402.8 5.9 C 402.8 4.2 404.1 2.7 406.2 2.7 Z M 410 0.5 L 411.4 0.5 L 411.4 1.9 L 410 1.9 L 410 0.5 Z M 410 4.4 C 410 4.3 409.9 4.2 409.7 4.2 C 409.7 4.18 409.2 4.2 409.2 4.2 L 409.2 2.9 C 409.2 2.9 410.67 2.88 410.7 2.9 C 411.2 2.9 411.5 3.1 411.5 3.7 C 411.5 3.7 411.5 7.5 411.5 7.5 C 411.5 7.6 411.6 7.7 411.7 7.7 C 411.74 7.72 412.2 7.7 412.2 7.7 L 412.2 9 C 412.2 9 410.77 9 410.8 9 C 410.2 9 410 8.8 410 8.2 C 410 8.2 410 4.4 410 4.4 Z M 416 2.7 C 417.8 2.7 418.7 4 418.7 5.6 C 418.71 5.82 418.7 6.2 418.7 6.2 C 418.7 6.2 414.45 6.2 414.5 6.2 C 414.6 7.3 415.4 7.8 416.3 7.8 C 417.27 7.85 418 7.2 418 7.2 L 418.6 8.2 C 418.6 8.2 417.7 9.14 416.2 9.1 C 414.2 9.1 412.9 7.7 412.9 5.9 C 412.9 4.1 414.2 2.7 416 2.7 Z M 417.2 5.1 C 417.1 4.4 416.6 3.9 416 3.9 C 415.2 3.9 414.7 4.4 414.5 5.1 C 414.5 5.1 417.2 5.1 417.2 5.1 Z M 423.4 7.1 C 423.4 7.1 424.17 7.96 425.2 8 C 425.7 8 426 7.8 426 7.4 C 426 6.5 422.8 6.5 422.8 4.5 C 422.8 3.3 423.9 2.7 425.2 2.7 C 426 2.7 427.3 3 427.3 4 C 427.34 4.01 427.3 4.6 427.3 4.6 L 426 4.6 C 426 4.6 426 4.34 426 4.3 C 426 4.1 425.6 3.9 425.2 3.9 C 424.7 3.9 424.3 4.1 424.3 4.5 C 424.3 5.4 427.6 5.2 427.6 7.3 C 427.6 8.4 426.5 9.1 425.2 9.1 C 423.53 9.14 422.7 8.1 422.7 8.1 L 423.4 7.1 Z M 432.2 4.4 C 432.2 4.3 432.1 4.2 431.9 4.2 C 431.9 4.18 431.4 4.2 431.4 4.2 L 431.4 2.9 C 431.4 2.9 432.81 2.88 432.8 2.9 C 433.4 2.9 433.6 3.1 433.6 3.6 C 433.6 3.6 433.6 4 433.6 4 C 433.63 4.21 433.6 4.4 433.6 4.4 C 433.6 4.4 433.63 4.37 433.6 4.4 C 433.9 3.5 434.6 2.8 435.6 2.8 C 435.7 2.8 435.8 2.8 435.8 2.8 L 435.8 4.3 C 435.8 4.3 435.69 4.3 435.5 4.3 C 434.8 4.3 434.1 4.7 433.8 5.6 C 433.7 5.9 433.7 6.2 433.7 6.6 C 433.67 6.58 433.7 9 433.7 9 L 432.2 9 C 432.2 9 432.16 4.44 432.2 4.4 Z M 439.6 2.7 C 441.5 2.7 443 4.1 443 5.9 C 443 7.8 441.5 9.1 439.6 9.1 C 437.8 9.1 436.3 7.8 436.3 5.9 C 436.3 4.1 437.8 2.7 439.6 2.7 Z M 439.6 7.8 C 440.6 7.8 441.4 7.1 441.4 5.9 C 441.4 4.8 440.6 4 439.6 4 C 438.6 4 437.8 4.8 437.8 5.9 C 437.8 7.1 438.6 7.8 439.6 7.8 Z M 439 0.5 L 440.3 0.5 L 441.4 2.1 L 440.2 2.1 L 439.6 1.1 L 439.6 1.1 L 439 2.1 L 437.9 2.1 L 439 0.5 Z M 443.6 8.2 C 443.6 8.2 446.38 4.74 446.4 4.7 C 446.66 4.39 446.9 4.2 446.9 4.2 L 446.9 4.2 C 446.9 4.2 446.72 4.18 446.3 4.2 C 446.3 4.2 445.2 4.2 445.2 4.2 C 445.1 4.2 445 4.3 445 4.4 C 444.97 4.44 445 4.8 445 4.8 L 443.6 4.8 C 443.6 4.8 443.59 3.7 443.6 3.7 C 443.6 3.1 443.8 2.9 444.4 2.9 C 444.4 2.88 448.9 2.9 448.9 2.9 L 448.9 3.7 C 448.9 3.7 446.07 7.15 446.1 7.2 C 445.79 7.49 445.6 7.7 445.6 7.7 L 445.6 7.7 C 445.6 7.7 445.73 7.7 446.1 7.7 C 446.1 7.7 447.5 7.7 447.5 7.7 C 447.6 7.7 447.7 7.6 447.7 7.4 C 447.74 7.44 447.7 7.1 447.7 7.1 L 449.1 7.1 C 449.1 7.1 449.12 8.18 449.1 8.2 C 449.1 8.8 448.9 9 448.3 9 C 448.31 9 443.6 9 443.6 9 L 443.6 8.2 Z M 450.4 4.4 C 450.4 4.3 450.3 4.2 450.1 4.2 C 450.1 4.18 449.6 4.2 449.6 4.2 L 449.6 2.9 C 449.6 2.9 451.03 2.88 451 2.9 C 451.6 2.9 451.8 3.1 451.8 3.6 C 451.8 3.6 451.8 3.7 451.8 3.7 C 451.8 3.9 451.8 4 451.8 4 C 451.8 4 451.8 4 451.8 4 C 452.1 3.5 452.8 2.7 454 2.7 C 455.3 2.7 456.1 3.4 456.1 5.1 C 456.1 5.1 456.1 7.5 456.1 7.5 C 456.1 7.6 456.2 7.7 456.4 7.7 C 456.39 7.72 456.9 7.7 456.9 7.7 L 456.9 9 C 456.9 9 455.42 9 455.4 9 C 454.8 9 454.6 8.8 454.6 8.2 C 454.6 8.2 454.6 5.4 454.6 5.4 C 454.6 4.6 454.4 4.1 453.6 4.1 C 452.8 4.1 452.2 4.6 452 5.4 C 451.9 5.6 451.9 5.9 451.9 6.2 C 451.88 6.19 451.9 9 451.9 9 L 450.4 9 C 450.4 9 450.37 4.44 450.4 4.4 Z M 458.4 10.2 C 458.9 10.2 459.2 10 459.5 9.5 C 459.45 9.46 459.7 9 459.7 9 C 459.7 9 457.61 4.39 457.6 4.4 C 457.5 4.2 457.5 4.2 457.3 4.2 C 457.29 4.18 457.1 4.2 457.1 4.2 L 457.1 2.9 C 457.1 2.9 458.12 2.88 458.1 2.9 C 458.6 2.9 458.8 3 458.9 3.5 C 458.9 3.5 460.1 6.5 460.1 6.5 C 460.24 6.83 460.3 7.3 460.3 7.3 L 460.4 7.3 C 460.4 7.3 460.46 6.83 460.6 6.5 C 460.6 6.5 461.6 3.5 461.6 3.5 C 461.8 3 462 2.9 462.4 2.9 C 462.43 2.88 463.5 2.9 463.5 2.9 L 463.5 4.2 C 463.5 4.2 463.28 4.18 463.3 4.2 C 463.1 4.2 463 4.2 462.9 4.4 C 462.9 4.4 460.7 9.9 460.7 9.9 C 460.3 11 459.4 11.5 458.5 11.5 C 457.57 11.52 457 10.9 457 10.9 L 457.6 9.8 C 457.6 9.8 457.94 10.24 458.4 10.2 Z M 464.6 4.4 C 464.6 4.3 464.5 4.2 464.3 4.2 C 464.33 4.18 463.9 4.2 463.9 4.2 L 463.9 2.9 C 463.9 2.9 465.26 2.88 465.3 2.9 C 465.8 2.9 466.1 3.1 466.1 3.6 C 466.1 3.6 466.1 3.7 466.1 3.7 C 466.1 3.9 466 4 466 4 C 466 4 466.1 4 466.1 4 C 466.4 3.4 467.1 2.7 468.1 2.7 C 469 2.7 469.6 3.2 469.8 4 C 469.8 4 469.9 4 469.9 4 C 470.2 3.3 471 2.7 472 2.7 C 473.2 2.7 474 3.5 474 5.1 C 474 5.1 474 7.5 474 7.5 C 474 7.6 474.1 7.7 474.2 7.7 C 474.22 7.72 474.7 7.7 474.7 7.7 L 474.7 9 C 474.7 9 473.25 9 473.2 9 C 472.7 9 472.4 8.8 472.4 8.2 C 472.4 8.2 472.4 5.4 472.4 5.4 C 472.4 4.7 472.3 4.1 471.6 4.1 C 470.8 4.1 470.3 4.8 470.1 5.5 C 470.1 5.8 470 6 470 6.3 C 470.03 6.31 470 9 470 9 L 468.5 9 C 468.5 9 468.51 5.35 468.5 5.4 C 468.5 4.7 468.4 4.1 467.7 4.1 C 466.9 4.1 466.4 4.8 466.2 5.5 C 466.1 5.8 466.1 6 466.1 6.3 C 466.11 6.31 466.1 9 466.1 9 L 464.6 9 C 464.6 9 464.6 4.44 464.6 4.4 Z M 478.4 8.2 C 478.4 8.2 481.24 4.74 481.2 4.7 C 481.52 4.39 481.8 4.2 481.8 4.2 L 481.8 4.2 C 481.8 4.2 481.58 4.18 481.2 4.2 C 481.2 4.2 480.1 4.2 480.1 4.2 C 479.9 4.2 479.8 4.3 479.8 4.4 C 479.83 4.44 479.8 4.8 479.8 4.8 L 478.4 4.8 C 478.4 4.8 478.45 3.7 478.4 3.7 C 478.4 3.1 478.7 2.9 479.3 2.9 C 479.26 2.88 483.7 2.9 483.7 2.9 L 483.7 3.7 C 483.7 3.7 480.93 7.15 480.9 7.2 C 480.65 7.49 480.4 7.7 480.4 7.7 L 480.4 7.7 C 480.4 7.7 480.59 7.7 481 7.7 C 481 7.7 482.3 7.7 482.3 7.7 C 482.5 7.7 482.6 7.6 482.6 7.4 C 482.6 7.44 482.6 7.1 482.6 7.1 L 484 7.1 C 484 7.1 483.98 8.18 484 8.2 C 484 8.8 483.7 9 483.2 9 C 483.17 9 478.4 9 478.4 9 L 478.4 8.2 Z M 485.2 2 C 485.2 1.9 485.1 1.8 484.9 1.8 C 484.93 1.78 484.4 1.8 484.4 1.8 L 484.4 0.5 C 484.4 0.5 485.9 0.48 485.9 0.5 C 486.5 0.5 486.7 0.7 486.7 1.3 C 486.7 1.3 486.7 7.5 486.7 7.5 C 486.7 7.6 486.8 7.7 487 7.7 C 486.98 7.72 487.4 7.7 487.4 7.7 L 487.4 9 C 487.4 9 486.01 9 486 9 C 485.4 9 485.2 8.8 485.2 8.2 C 485.2 8.2 485.2 2 485.2 2 Z M 491.5 2.7 C 493.3 2.7 494.8 4.1 494.8 5.9 C 494.8 7.8 493.3 9.1 491.5 9.1 C 489.6 9.1 488.1 7.8 488.1 5.9 C 488.1 4.1 489.6 2.7 491.5 2.7 Z M 491.5 7.8 C 492.4 7.8 493.3 7.1 493.3 5.9 C 493.3 4.8 492.4 4 491.5 4 C 490.5 4 489.6 4.8 489.6 5.9 C 489.6 7.1 490.5 7.8 491.5 7.8 Z M 495.4 8.2 C 495.4 8.2 498.22 4.74 498.2 4.7 C 498.5 4.39 498.7 4.2 498.7 4.2 L 498.7 4.2 C 498.7 4.2 498.56 4.18 498.2 4.2 C 498.2 4.2 497.1 4.2 497.1 4.2 C 496.9 4.2 496.8 4.3 496.8 4.4 C 496.8 4.44 496.8 4.8 496.8 4.8 L 495.4 4.8 C 495.4 4.8 495.43 3.7 495.4 3.7 C 495.4 3.1 495.7 2.9 496.2 2.9 C 496.24 2.88 500.7 2.9 500.7 2.9 L 500.7 3.7 C 500.7 3.7 497.91 7.15 497.9 7.2 C 497.63 7.49 497.4 7.7 497.4 7.7 L 497.4 7.7 C 497.4 7.7 497.57 7.7 498 7.7 C 498 7.7 499.3 7.7 499.3 7.7 C 499.5 7.7 499.6 7.6 499.6 7.4 C 499.58 7.44 499.6 7.1 499.6 7.1 L 501 7.1 C 501 7.1 500.96 8.18 501 8.2 C 501 8.8 500.7 9 500.2 9 C 500.15 9 495.4 9 495.4 9 L 495.4 8.2 Z M 496.5 0.5 L 497.6 0.5 L 498.2 1.5 L 498.2 1.5 L 498.8 0.5 L 500 0.5 L 498.9 2.1 L 497.6 2.1 L 496.5 0.5 Z M 504.6 2.7 C 506.3 2.7 507.3 4 507.3 5.6 C 507.29 5.82 507.3 6.2 507.3 6.2 C 507.3 6.2 503.03 6.2 503 6.2 C 503.2 7.3 503.9 7.8 504.9 7.8 C 505.85 7.85 506.6 7.2 506.6 7.2 L 507.2 8.2 C 507.2 8.2 506.29 9.14 504.8 9.1 C 502.7 9.1 501.5 7.7 501.5 5.9 C 501.5 4.1 502.7 2.7 504.6 2.7 Z M 505.7 5.1 C 505.7 4.4 505.2 3.9 504.6 3.9 C 503.8 3.9 503.2 4.4 503.1 5.1 C 503.1 5.1 505.7 5.1 505.7 5.1 Z M 508.8 4.4 C 508.8 4.3 508.7 4.2 508.5 4.2 C 508.51 4.18 508 4.2 508 4.2 L 508 2.9 C 508 2.9 509.43 2.88 509.4 2.9 C 510 2.9 510.2 3.1 510.2 3.6 C 510.2 3.6 510.2 3.7 510.2 3.7 C 510.2 3.9 510.2 4 510.2 4 C 510.2 4 510.2 4 510.2 4 C 510.5 3.5 511.2 2.7 512.4 2.7 C 513.7 2.7 514.5 3.4 514.5 5.1 C 514.5 5.1 514.5 7.5 514.5 7.5 C 514.5 7.6 514.6 7.7 514.8 7.7 C 514.79 7.72 515.3 7.7 515.3 7.7 L 515.3 9 C 515.3 9 513.82 9 513.8 9 C 513.2 9 513 8.8 513 8.2 C 513 8.2 513 5.4 513 5.4 C 513 4.6 512.8 4.1 512 4.1 C 511.2 4.1 510.6 4.6 510.4 5.4 C 510.3 5.6 510.3 5.9 510.3 6.2 C 510.28 6.19 510.3 9 510.3 9 L 508.8 9 C 508.8 9 508.77 4.44 508.8 4.4 Z M 516.5 4.4 C 516.5 4.3 516.4 4.2 516.3 4.2 C 516.28 4.18 515.8 4.2 515.8 4.2 L 515.8 2.9 C 515.8 2.9 517.25 2.88 517.3 2.9 C 517.8 2.9 518.1 3.1 518.1 3.7 C 518.1 3.7 518.1 7.5 518.1 7.5 C 518.1 7.6 518.2 7.7 518.3 7.7 C 518.33 7.72 518.8 7.7 518.8 7.7 L 518.8 9 C 518.8 9 517.36 9 517.4 9 C 516.8 9 516.5 8.8 516.5 8.2 C 516.5 8.2 516.5 4.4 516.5 4.4 Z M 517.5 0.5 L 519 0.5 L 517.7 2.1 L 516.6 2.1 L 517.5 0.5 Z M 520.1 4.4 C 520.1 4.3 520 4.2 519.8 4.2 C 519.85 4.18 519.4 4.2 519.4 4.2 L 519.4 2.9 C 519.4 2.9 520.77 2.88 520.8 2.9 C 521.3 2.9 521.6 3.1 521.6 3.6 C 521.6 3.6 521.6 3.7 521.6 3.7 C 521.6 3.9 521.6 4 521.6 4 C 521.6 4 521.6 4 521.6 4 C 521.9 3.4 522.6 2.7 523.6 2.7 C 524.5 2.7 525.1 3.2 525.4 4 C 525.4 4 525.4 4 525.4 4 C 525.7 3.3 526.5 2.7 527.5 2.7 C 528.7 2.7 529.5 3.5 529.5 5.1 C 529.5 5.1 529.5 7.5 529.5 7.5 C 529.5 7.6 529.6 7.7 529.7 7.7 C 529.73 7.72 530.2 7.7 530.2 7.7 L 530.2 9 C 530.2 9 528.76 9 528.8 9 C 528.2 9 527.9 8.8 527.9 8.2 C 527.9 8.2 527.9 5.4 527.9 5.4 C 527.9 4.7 527.8 4.1 527.1 4.1 C 526.3 4.1 525.8 4.8 525.6 5.5 C 525.6 5.8 525.5 6 525.5 6.3 C 525.54 6.31 525.5 9 525.5 9 L 524 9 C 524 9 524.02 5.35 524 5.4 C 524 4.7 523.9 4.1 523.2 4.1 C 522.4 4.1 521.9 4.8 521.7 5.5 C 521.7 5.8 521.6 6 521.6 6.3 C 521.62 6.31 521.6 9 521.6 9 L 520.1 9 C 520.1 9 520.11 4.44 520.1 4.4 Z M 531.3 7.5 L 532.8 7.5 L 532.8 9 L 531.3 9 L 531.3 7.5 Z " stroke="none" fill="#000"/>  </g></svg>