<?xml version="1.0" standalone="no"?><!DOCTYPE svg PUBLIC "-//W3C//DTD SVG 1.1//EN" "http://www.w3.org/Graphics/SVG/1.1/DTD/svg11.dtd"><svg xmlns="http://www.w3.org/2000/svg" version="1.1" width="113.4px" height="84px" viewBox="0 -1 113.4 84" style="top:-1px">  <desc>Metabolick profil</desc>  <defs/>  <g id="Polygon78201">    <path d="M 37.5 48.4 C 37.5 48.1 37.4 48 37.2 48 C 37.17 48 36.5 48 36.5 48 L 36.5 46.3 C 36.5 46.3 38.34 46.27 38.3 46.3 C 39.1 46.3 39.4 46.6 39.4 47.1 C 39.37 47.25 39.4 47.4 39.4 47.4 L 39.4 47.4 C 39.4 47.4 40.09 46.08 42 46.1 C 44.2 46.1 45.6 47.8 45.6 50.4 C 45.6 52.9 44 54.6 41.9 54.6 C 40.26 54.63 39.5 53.6 39.5 53.6 L 39.5 53.6 C 39.5 53.6 39.54 53.84 39.5 54.3 C 39.54 54.26 39.5 57.6 39.5 57.6 L 37.5 57.6 C 37.5 57.6 37.53 48.35 37.5 48.4 Z M 41.5 52.9 C 42.6 52.9 43.6 52 43.6 50.4 C 43.6 48.8 42.7 47.8 41.5 47.8 C 40.5 47.8 39.5 48.6 39.5 50.4 C 39.5 51.7 40.2 52.9 41.5 52.9 Z M 47.5 48.4 C 47.5 48.1 47.3 48 47.1 48 C 47.11 48 46.5 48 46.5 48 L 46.5 46.3 C 46.5 46.3 48.33 46.27 48.3 46.3 C 49 46.3 49.4 46.6 49.4 47.3 C 49.4 47.3 49.4 47.7 49.4 47.7 C 49.41 48.05 49.4 48.3 49.4 48.3 C 49.4 48.3 49.41 48.26 49.4 48.3 C 49.8 47.1 50.8 46.2 52 46.2 C 52.18 46.16 52.4 46.2 52.4 46.2 L 52.4 48.2 C 52.4 48.2 52.17 48.16 51.9 48.2 C 51 48.2 50 48.7 49.7 49.9 C 49.5 50.3 49.5 50.7 49.5 51.2 C 49.48 51.2 49.5 54.4 49.5 54.4 L 47.5 54.4 C 47.5 54.4 47.46 48.35 47.5 48.4 Z M 57.4 46.1 C 59.9 46.1 61.9 47.9 61.9 50.4 C 61.9 52.9 59.9 54.6 57.4 54.6 C 54.9 54.6 52.9 52.9 52.9 50.4 C 52.9 47.9 54.9 46.1 57.4 46.1 Z M 57.4 52.9 C 58.7 52.9 59.8 51.9 59.8 50.4 C 59.8 48.9 58.7 47.8 57.4 47.8 C 56.1 47.8 55 48.9 55 50.4 C 55 51.9 56.1 52.9 57.4 52.9 Z M 63.7 47.9 L 62.7 47.9 L 62.7 46.3 L 63.7 46.3 C 63.7 46.3 63.72 46.03 63.7 46 C 63.7 43.4 65.9 43 67 43 C 67.46 43.01 67.7 43.1 67.7 43.1 L 67.7 44.8 C 67.7 44.8 67.54 44.75 67.3 44.8 C 66.7 44.8 65.7 44.9 65.7 46.1 C 65.75 46.11 65.7 46.3 65.7 46.3 C 65.7 46.3 70.08 46.27 70.1 46.3 C 70.8 46.3 71.2 46.6 71.2 47.4 C 71.2 47.4 71.2 52.4 71.2 52.4 C 71.2 52.6 71.3 52.7 71.5 52.7 C 71.52 52.72 72.1 52.7 72.1 52.7 L 72.1 54.4 C 72.1 54.4 70.23 54.43 70.2 54.4 C 69.5 54.4 69.1 54.1 69.1 53.3 C 69.1 53.3 69.1 48.2 69.1 48.2 C 69.1 48 69 47.9 68.8 47.9 C 68.79 47.89 65.7 47.9 65.7 47.9 L 65.7 54.4 L 63.7 54.4 L 63.7 47.9 Z M 69.2 43.1 L 71 43.1 L 71 44.9 L 69.2 44.9 L 69.2 43.1 Z M 73.8 45.2 C 73.8 44.9 73.7 44.8 73.5 44.8 C 73.46 44.8 72.8 44.8 72.8 44.8 L 72.8 43.1 C 72.8 43.1 74.76 43.07 74.8 43.1 C 75.5 43.1 75.8 43.4 75.8 44.2 C 75.8 44.2 75.8 52.4 75.8 52.4 C 75.8 52.6 76 52.7 76.2 52.7 C 76.2 52.72 76.8 52.7 76.8 52.7 L 76.8 54.4 C 76.8 54.4 74.9 54.43 74.9 54.4 C 74.1 54.4 73.8 54.1 73.8 53.3 C 73.8 53.3 73.8 45.2 73.8 45.2 Z " stroke="none" fill="#ee3078"/>  </g>  <g id="Polygon78200">    <path d="M 10.5 33.5 C 10.5 33.5 11.02 33.46 11 33.5 C 11.2 33.5 11.4 33.3 11.4 33.1 C 11.37 33.11 12.1 23.9 12.1 23.9 L 14.3 23.9 C 14.3 23.9 16.62 29.28 16.6 29.3 C 16.89 29.94 17.2 30.8 17.2 30.8 L 17.2 30.8 C 17.2 30.8 17.5 29.94 17.8 29.3 C 17.77 29.28 20.1 23.9 20.1 23.9 L 22.3 23.9 C 22.3 23.9 23.02 33.11 23 33.1 C 23 33.3 23.1 33.5 23.4 33.5 C 23.37 33.46 23.9 33.5 23.9 33.5 L 23.9 35.2 C 23.9 35.2 22.06 35.23 22.1 35.2 C 21.3 35.2 21.1 34.9 21 34.1 C 21 34.1 20.6 29.1 20.6 29.1 C 20.54 28.34 20.6 27.3 20.6 27.3 L 20.6 27.3 C 20.6 27.3 20.22 28.45 19.9 29.1 C 19.93 29.09 18 33.3 18 33.3 L 16.3 33.3 C 16.3 33.3 14.46 29.09 14.5 29.1 C 14.17 28.45 13.8 27.3 13.8 27.3 L 13.8 27.3 C 13.8 27.3 13.85 28.34 13.8 29.1 C 13.8 29.1 13.4 34.1 13.4 34.1 C 13.4 34.9 13.1 35.2 12.3 35.2 C 12.33 35.23 10.5 35.2 10.5 35.2 L 10.5 33.5 Z M 28.8 26.9 C 31.1 26.9 32.4 28.6 32.4 30.8 C 32.43 30.99 32.4 31.5 32.4 31.5 C 32.4 31.5 26.75 31.51 26.7 31.5 C 26.9 32.9 28 33.7 29.2 33.7 C 30.51 33.7 31.5 32.8 31.5 32.8 L 32.3 34.2 C 32.3 34.2 31.09 35.43 29.1 35.4 C 26.3 35.4 24.7 33.5 24.7 31.2 C 24.7 28.6 26.4 26.9 28.8 26.9 Z M 30.3 30.1 C 30.3 29.1 29.6 28.5 28.8 28.5 C 27.8 28.5 27 29.1 26.8 30.1 C 26.8 30.1 30.3 30.1 30.3 30.1 Z M 34.4 28.7 L 33.4 28.7 L 33.4 27.1 L 34.5 27.1 L 34.5 24.9 L 36.5 24.9 L 36.5 27.1 L 38.3 27.1 L 38.3 28.7 L 36.5 28.7 C 36.5 28.7 36.46 31.99 36.5 32 C 36.5 33.3 37.5 33.5 38.1 33.5 C 38.3 33.52 38.4 33.5 38.4 33.5 L 38.4 35.3 C 38.4 35.3 38.19 35.31 37.8 35.3 C 36.7 35.3 34.4 35 34.4 32.2 C 34.43 32.24 34.4 28.7 34.4 28.7 Z M 44.3 30.1 C 44.32 30.11 44.6 30.1 44.6 30.1 C 44.6 30.1 44.57 30.05 44.6 30.1 C 44.6 28.9 44.1 28.5 43.1 28.5 C 42.7 28.5 42 28.5 42 29 C 41.98 28.99 42 29.4 42 29.4 L 40.1 29.4 C 40.1 29.4 40.09 28.56 40.1 28.6 C 40.1 27 42.2 26.9 43.1 26.9 C 45.8 26.9 46.6 28.3 46.6 30.1 C 46.6 30.1 46.6 33.2 46.6 33.2 C 46.6 33.4 46.7 33.5 47 33.5 C 46.96 33.52 47.6 33.5 47.6 33.5 L 47.6 35.2 C 47.6 35.2 45.77 35.23 45.8 35.2 C 45 35.2 44.7 34.8 44.7 34.3 C 44.73 34.13 44.7 34 44.7 34 L 44.7 34 C 44.7 34 44.09 35.43 42.3 35.4 C 40.8 35.4 39.5 34.5 39.5 32.9 C 39.5 30.3 43 30.1 44.3 30.1 Z M 42.7 33.8 C 43.8 33.8 44.6 32.7 44.6 31.7 C 44.61 31.7 44.6 31.5 44.6 31.5 C 44.6 31.5 44.25 31.51 44.3 31.5 C 43.2 31.5 41.5 31.7 41.5 32.8 C 41.5 33.3 41.9 33.8 42.7 33.8 Z M 49.2 26 C 49.2 25.7 49 25.6 48.8 25.6 C 48.81 25.6 48.2 25.6 48.2 25.6 L 48.2 23.9 C 48.2 23.9 50.11 23.87 50.1 23.9 C 50.9 23.9 51.2 24.2 51.2 25 C 51.2 25 51.2 27.3 51.2 27.3 C 51.2 27.73 51.2 28 51.2 28 L 51.2 28 C 51.2 28 51.92 26.88 53.6 26.9 C 55.9 26.9 57.3 28.6 57.3 31.2 C 57.3 33.7 55.7 35.4 53.5 35.4 C 51.82 35.43 51.1 34.3 51.1 34.3 L 51.1 34.3 C 51.1 34.3 51.09 34.5 51.1 34.8 C 51.09 34.82 51.1 35.2 51.1 35.2 L 49.2 35.2 C 49.2 35.2 49.17 25.95 49.2 26 Z M 53.2 33.7 C 54.3 33.7 55.2 32.8 55.2 31.2 C 55.2 29.6 54.4 28.6 53.2 28.6 C 52.1 28.6 51.1 29.4 51.1 31.2 C 51.1 32.5 51.8 33.7 53.2 33.7 Z M 62.8 26.9 C 65.3 26.9 67.2 28.7 67.2 31.2 C 67.2 33.7 65.3 35.4 62.8 35.4 C 60.3 35.4 58.3 33.7 58.3 31.2 C 58.3 28.7 60.3 26.9 62.8 26.9 Z M 62.8 33.7 C 64.1 33.7 65.2 32.7 65.2 31.2 C 65.2 29.7 64.1 28.6 62.8 28.6 C 61.5 28.6 60.3 29.7 60.3 31.2 C 60.3 32.7 61.5 33.7 62.8 33.7 Z M 68.9 26 C 68.9 25.7 68.8 25.6 68.6 25.6 C 68.56 25.6 67.9 25.6 67.9 25.6 L 67.9 23.9 C 67.9 23.9 69.85 23.87 69.9 23.9 C 70.6 23.9 70.9 24.2 70.9 25 C 70.9 25 70.9 33.2 70.9 33.2 C 70.9 33.4 71.1 33.5 71.3 33.5 C 71.29 33.52 71.9 33.5 71.9 33.5 L 71.9 35.2 C 71.9 35.2 70 35.23 70 35.2 C 69.2 35.2 68.9 34.9 68.9 34.1 C 68.9 34.1 68.9 26 68.9 26 Z M 73.8 23.9 L 75.5 23.9 L 75.5 25.7 L 73.8 25.7 L 73.8 23.9 Z M 73.7 29.2 C 73.7 28.9 73.5 28.8 73.3 28.8 C 73.32 28.8 72.7 28.8 72.7 28.8 L 72.7 27.1 C 72.7 27.1 74.62 27.07 74.6 27.1 C 75.4 27.1 75.7 27.4 75.7 28.2 C 75.7 28.2 75.7 33.2 75.7 33.2 C 75.7 33.4 75.8 33.5 76 33.5 C 76.04 33.52 76.7 33.5 76.7 33.5 L 76.7 35.2 C 76.7 35.2 74.75 35.23 74.7 35.2 C 74 35.2 73.7 34.9 73.7 34.1 C 73.7 34.1 73.7 29.2 73.7 29.2 Z M 82 26.9 C 83.1 26.9 85 27.3 85 28.7 C 85 28.72 85 29.7 85 29.7 L 83.2 29.7 C 83.2 29.7 83.21 29.23 83.2 29.2 C 83.2 28.8 82.5 28.6 82 28.6 C 80.6 28.6 79.6 29.7 79.6 31.1 C 79.6 32.8 80.9 33.7 82.2 33.7 C 83.56 33.65 84.6 32.5 84.6 32.5 L 85.4 34 C 85.4 34 84.22 35.43 82 35.4 C 79.3 35.4 77.6 33.5 77.6 31.2 C 77.6 28.9 79.2 26.9 82 26.9 Z M 86.9 26 C 86.9 25.7 86.8 25.6 86.5 25.6 C 86.54 25.6 85.9 25.6 85.9 25.6 L 85.9 23.9 C 85.9 23.9 87.84 23.87 87.8 23.9 C 88.6 23.9 88.9 24.1 88.9 24.8 C 88.92 24.8 88.9 30 88.9 30 C 88.9 30 89.53 29.95 89.5 30 C 89.8 30 90.1 29.9 90.3 29.7 C 90.3 29.65 92 27.1 92 27.1 L 94.2 27.1 C 94.2 27.1 92.16 30.15 92.2 30.1 C 91.8 30.66 91.5 30.8 91.5 30.8 L 91.5 30.8 C 91.5 30.8 91.84 30.93 92.1 31.5 C 92.1 31.5 93.1 33.2 93.1 33.2 C 93.2 33.5 93.3 33.5 93.7 33.5 C 93.72 33.52 94.3 33.5 94.3 33.5 L 94.3 35.2 C 94.3 35.2 92.76 35.23 92.8 35.2 C 92.1 35.2 91.8 35.1 91.5 34.5 C 91.5 34.5 90.1 32 90.1 32 C 90 31.7 89.6 31.7 89.4 31.7 C 89.37 31.67 88.9 31.7 88.9 31.7 L 88.9 35.2 L 86.9 35.2 C 86.9 35.2 86.89 25.95 86.9 26 Z M 96.3 36.9 C 96.8 36.9 97.3 36.5 97.6 35.8 C 97.61 35.84 97.9 35.2 97.9 35.2 C 97.9 35.2 95.16 29.09 95.2 29.1 C 95.1 28.9 95 28.8 94.7 28.8 C 94.73 28.8 94.5 28.8 94.5 28.8 L 94.5 27.1 C 94.5 27.1 95.84 27.07 95.8 27.1 C 96.4 27.1 96.7 27.3 96.9 27.8 C 96.9 27.8 98.5 31.9 98.5 31.9 C 98.67 32.34 98.8 33 98.8 33 L 98.8 33 C 98.8 33 98.96 32.34 99.1 31.9 C 99.1 31.9 100.5 27.8 100.5 27.8 C 100.7 27.3 101 27.1 101.6 27.1 C 101.58 27.07 103 27.1 103 27.1 L 103 28.8 C 103 28.8 102.72 28.8 102.7 28.8 C 102.5 28.8 102.3 28.9 102.3 29.1 C 102.3 29.1 99.3 36.5 99.3 36.5 C 98.7 37.9 97.6 38.6 96.4 38.6 C 95.1 38.59 94.3 37.8 94.3 37.8 L 95.1 36.3 C 95.1 36.3 95.6 36.88 96.3 36.9 Z M 99.2 23.9 L 101.1 23.9 L 99.5 26.1 L 98 26.1 L 99.2 23.9 Z " stroke="none" fill="#ee3078"/>  </g></svg>