<?xml version="1.0" standalone="no"?><!DOCTYPE svg PUBLIC "-//W3C//DTD SVG 1.1//EN" "http://www.w3.org/Graphics/SVG/1.1/DTD/svg11.dtd"><svg xmlns="http://www.w3.org/2000/svg" version="1.1" width="224px" height="53.5px" viewBox="0 -4 224 53.5" style="top:-4px">  <desc>Minim lny vplyv na libido</desc>  <defs/>  <g id="Polygon66854">    <path d="M 76.8 27.9 C 76.8 27.6 76.6 27.5 76.4 27.5 C 76.39 27.49 75.7 27.5 75.7 27.5 L 75.7 26 C 75.7 26 77.33 25.99 77.3 26 C 78.1 26 78.5 26.3 78.5 27 C 78.5 27 78.5 27.3 78.5 27.3 C 78.48 27.63 78.4 27.9 78.4 27.9 C 78.4 27.9 78.48 27.86 78.5 27.9 C 78.8 27.1 79.9 25.8 81.9 25.8 C 84.1 25.8 85 26.9 85 29.3 C 85 29.3 85 33.2 85 33.2 C 85 33.5 85.2 33.6 85.4 33.6 C 85.43 33.61 86.2 33.6 86.2 33.6 L 86.2 35.1 C 86.2 35.1 84.44 35.1 84.4 35.1 C 83.6 35.1 83.3 34.8 83.3 33.9 C 83.3 33.9 83.3 29.7 83.3 29.7 C 83.3 28.4 83 27.4 81.6 27.4 C 80.2 27.4 79.1 28.3 78.7 29.6 C 78.6 30 78.5 30.4 78.5 30.8 C 78.53 30.83 78.5 35.1 78.5 35.1 L 76.8 35.1 C 76.8 35.1 76.79 27.88 76.8 27.9 Z M 92.7 29.4 C 92.68 29.43 93.1 29.4 93.1 29.4 C 93.1 29.4 93.08 29.34 93.1 29.3 C 93.1 27.7 92.5 27.2 91.1 27.2 C 90.6 27.2 89.6 27.3 89.6 27.9 C 89.57 27.86 89.6 28.4 89.6 28.4 L 87.9 28.4 C 87.9 28.4 87.93 27.49 87.9 27.5 C 87.9 26 90.2 25.8 91.1 25.8 C 94 25.8 94.8 27.3 94.8 29.3 C 94.8 29.3 94.8 33.2 94.8 33.2 C 94.8 33.5 95 33.6 95.2 33.6 C 95.22 33.61 96 33.6 96 33.6 L 96 35.1 C 96 35.1 94.32 35.1 94.3 35.1 C 93.5 35.1 93.2 34.7 93.2 34.1 C 93.19 33.75 93.2 33.5 93.2 33.5 L 93.2 33.5 C 93.2 33.5 92.47 35.32 90.3 35.3 C 88.7 35.3 87.2 34.4 87.2 32.5 C 87.2 29.6 91.2 29.4 92.7 29.4 Z M 90.7 33.9 C 92.1 33.9 93.1 32.4 93.1 31 C 93.1 31.01 93.1 30.7 93.1 30.7 C 93.1 30.7 92.65 30.71 92.6 30.7 C 91.3 30.7 89 30.8 89 32.5 C 89 33.2 89.5 33.9 90.7 33.9 Z M 102.7 24.3 C 102.7 24 102.5 23.9 102.3 23.9 C 102.26 23.89 101.5 23.9 101.5 23.9 L 101.5 22.4 C 101.5 22.4 103.25 22.39 103.2 22.4 C 104.1 22.4 104.4 22.7 104.4 23.5 C 104.4 23.5 104.4 33.2 104.4 33.2 C 104.4 33.5 104.5 33.6 104.8 33.6 C 104.8 33.61 105.5 33.6 105.5 33.6 L 105.5 35.1 C 105.5 35.1 103.81 35.1 103.8 35.1 C 103 35.1 102.7 34.8 102.7 33.9 C 102.7 33.9 102.7 24.3 102.7 24.3 Z M 107.6 22.4 L 109.2 22.4 L 109.2 24.2 L 107.6 24.2 L 107.6 22.4 Z M 107.6 27.9 C 107.6 27.6 107.5 27.5 107.2 27.5 C 107.21 27.49 106.5 27.5 106.5 27.5 L 106.5 26 C 106.5 26 108.18 25.99 108.2 26 C 109 26 109.3 26.3 109.3 27.1 C 109.3 27.1 109.3 33.2 109.3 33.2 C 109.3 33.5 109.5 33.6 109.7 33.6 C 109.73 33.61 110.5 33.6 110.5 33.6 L 110.5 35.1 C 110.5 35.1 108.76 35.1 108.8 35.1 C 107.9 35.1 107.6 34.8 107.6 33.9 C 107.6 33.9 107.6 27.9 107.6 27.9 Z M 112.4 24.3 C 112.4 24 112.2 23.9 112 23.9 C 112 23.89 111.3 23.9 111.3 23.9 L 111.3 22.4 C 111.3 22.4 112.99 22.39 113 22.4 C 113.8 22.4 114.1 22.7 114.1 23.5 C 114.1 23.5 114.1 26.5 114.1 26.5 C 114.14 26.95 114.1 27.3 114.1 27.3 L 114.1 27.3 C 114.1 27.3 114.93 25.78 117.1 25.8 C 119.5 25.8 121.1 27.7 121.1 30.5 C 121.1 33.4 119.3 35.3 116.9 35.3 C 114.89 35.32 114.1 33.8 114.1 33.8 L 114 33.8 C 114 33.8 114.07 34.07 114.1 34.5 C 114.07 34.47 114.1 35.1 114.1 35.1 L 112.4 35.1 C 112.4 35.1 112.39 24.28 112.4 24.3 Z M 116.7 33.8 C 118.1 33.8 119.3 32.6 119.3 30.6 C 119.3 28.6 118.2 27.3 116.7 27.3 C 115.4 27.3 114.1 28.3 114.1 30.6 C 114.1 32.2 114.9 33.8 116.7 33.8 Z M 123.4 22.4 L 125 22.4 L 125 24.2 L 123.4 24.2 L 123.4 22.4 Z M 123.4 27.9 C 123.4 27.6 123.2 27.5 123 27.5 C 122.96 27.49 122.2 27.5 122.2 27.5 L 122.2 26 C 122.2 26 123.93 25.99 123.9 26 C 124.7 26 125.1 26.3 125.1 27.1 C 125.1 27.1 125.1 33.2 125.1 33.2 C 125.1 33.5 125.2 33.6 125.5 33.6 C 125.48 33.61 126.2 33.6 126.2 33.6 L 126.2 35.1 C 126.2 35.1 124.51 35.1 124.5 35.1 C 123.7 35.1 123.4 34.8 123.4 33.9 C 123.4 33.9 123.4 27.9 123.4 27.9 Z M 131.5 25.8 C 133.58 25.78 134.3 27.2 134.3 27.2 L 134.3 27.2 C 134.3 27.2 134.28 26.91 134.3 26.6 C 134.3 26.6 134.3 24.3 134.3 24.3 C 134.3 24 134.1 23.9 133.9 23.9 C 133.88 23.89 133.1 23.9 133.1 23.9 L 133.1 22.4 C 133.1 22.4 134.87 22.39 134.9 22.4 C 135.7 22.4 136 22.7 136 23.5 C 136 23.5 136 33.2 136 33.2 C 136 33.5 136.2 33.6 136.4 33.6 C 136.42 33.61 137.2 33.6 137.2 33.6 L 137.2 35.1 C 137.2 35.1 135.49 35.1 135.5 35.1 C 134.7 35.1 134.4 34.7 134.4 34.1 C 134.37 33.86 134.4 33.7 134.4 33.7 L 134.4 33.7 C 134.4 33.7 133.6 35.32 131.4 35.3 C 128.9 35.3 127.3 33.4 127.3 30.5 C 127.3 27.6 129.1 25.8 131.5 25.8 Z M 134.3 30.5 C 134.3 28.9 133.5 27.3 131.7 27.3 C 130.3 27.3 129.1 28.5 129.1 30.5 C 129.1 32.5 130.2 33.8 131.7 33.8 C 133.1 33.8 134.3 32.9 134.3 30.5 Z M 143.1 25.8 C 145.8 25.8 148 27.8 148 30.5 C 148 33.3 145.8 35.3 143.1 35.3 C 140.4 35.3 138.2 33.3 138.2 30.5 C 138.2 27.8 140.4 25.8 143.1 25.8 Z M 143.1 33.8 C 144.8 33.8 146.2 32.4 146.2 30.5 C 146.2 28.6 144.8 27.3 143.1 27.3 C 141.4 27.3 140 28.6 140 30.5 C 140 32.4 141.4 33.8 143.1 33.8 Z " stroke="none" fill="#ee3078"/>  </g>  <g id="Polygon66853">    <path d="M 43.2 12 C 43.2 12 43.78 11.95 43.8 12 C 44 12 44.2 11.8 44.2 11.6 C 44.17 11.56 45 0.8 45 0.8 L 46.9 0.8 C 46.9 0.8 49.88 7.52 49.9 7.5 C 50.18 8.21 50.5 9.1 50.5 9.1 L 50.5 9.1 C 50.5 9.1 50.87 8.21 51.2 7.5 C 51.17 7.52 54.2 0.8 54.2 0.8 L 56 0.8 C 56 0.8 56.88 11.56 56.9 11.6 C 56.9 11.8 57 12 57.3 12 C 57.28 11.95 57.9 12 57.9 12 L 57.9 13.5 C 57.9 13.5 56.27 13.5 56.3 13.5 C 55.5 13.5 55.2 13.2 55.1 12.3 C 55.1 12.3 54.6 5.6 54.6 5.6 C 54.54 4.88 54.6 3.8 54.6 3.8 L 54.5 3.8 C 54.5 3.8 54.16 4.95 53.9 5.6 C 53.86 5.63 51.3 11.2 51.3 11.2 L 49.8 11.2 C 49.8 11.2 47.2 5.63 47.2 5.6 C 46.89 4.97 46.5 3.7 46.5 3.7 L 46.5 3.7 C 46.5 3.7 46.49 4.88 46.4 5.6 C 46.4 5.6 45.9 12.3 45.9 12.3 C 45.9 13.2 45.6 13.5 44.8 13.5 C 44.77 13.5 43.2 13.5 43.2 13.5 L 43.2 12 Z M 59.9 0.8 L 61.5 0.8 L 61.5 2.6 L 59.9 2.6 L 59.9 0.8 Z M 59.9 6.3 C 59.9 6 59.7 5.9 59.5 5.9 C 59.45 5.89 58.7 5.9 58.7 5.9 L 58.7 4.4 C 58.7 4.4 60.43 4.39 60.4 4.4 C 61.2 4.4 61.6 4.7 61.6 5.5 C 61.6 5.5 61.6 11.6 61.6 11.6 C 61.6 11.9 61.7 12 62 12 C 61.97 12.01 62.7 12 62.7 12 L 62.7 13.5 C 62.7 13.5 61 13.5 61 13.5 C 60.2 13.5 59.9 13.2 59.9 12.3 C 59.9 12.3 59.9 6.3 59.9 6.3 Z M 64.7 6.3 C 64.7 6 64.6 5.9 64.3 5.9 C 64.31 5.89 63.6 5.9 63.6 5.9 L 63.6 4.4 C 63.6 4.4 65.25 4.39 65.3 4.4 C 66 4.4 66.4 4.7 66.4 5.4 C 66.4 5.4 66.4 5.7 66.4 5.7 C 66.4 6.03 66.4 6.3 66.4 6.3 C 66.4 6.3 66.4 6.26 66.4 6.3 C 66.8 5.5 67.8 4.2 69.8 4.2 C 72 4.2 73 5.3 73 7.7 C 73 7.7 73 11.6 73 11.6 C 73 11.9 73.1 12 73.4 12 C 73.35 12.01 74.1 12 74.1 12 L 74.1 13.5 C 74.1 13.5 72.36 13.5 72.4 13.5 C 71.6 13.5 71.2 13.2 71.2 12.3 C 71.2 12.3 71.2 8.1 71.2 8.1 C 71.2 6.8 71 5.8 69.5 5.8 C 68.1 5.8 67 6.7 66.6 8 C 66.5 8.4 66.5 8.8 66.5 9.2 C 66.46 9.23 66.5 13.5 66.5 13.5 L 64.7 13.5 C 64.7 13.5 64.71 6.28 64.7 6.3 Z M 76.1 0.8 L 77.7 0.8 L 77.7 2.6 L 76.1 2.6 L 76.1 0.8 Z M 76.1 6.3 C 76.1 6 75.9 5.9 75.7 5.9 C 75.67 5.89 74.9 5.9 74.9 5.9 L 74.9 4.4 C 74.9 4.4 76.64 4.39 76.6 4.4 C 77.5 4.4 77.8 4.7 77.8 5.5 C 77.8 5.5 77.8 11.6 77.8 11.6 C 77.8 11.9 77.9 12 78.2 12 C 78.19 12.01 78.9 12 78.9 12 L 78.9 13.5 C 78.9 13.5 77.22 13.5 77.2 13.5 C 76.4 13.5 76.1 13.2 76.1 12.3 C 76.1 12.3 76.1 6.3 76.1 6.3 Z M 80.9 6.3 C 80.9 6 80.8 5.9 80.5 5.9 C 80.53 5.89 79.8 5.9 79.8 5.9 L 79.8 4.4 C 79.8 4.4 81.47 4.39 81.5 4.4 C 82.3 4.4 82.6 4.7 82.6 5.4 C 82.6 5.4 82.6 5.7 82.6 5.7 C 82.62 6.03 82.6 6.3 82.6 6.3 C 82.6 6.3 82.64 6.26 82.6 6.3 C 83.1 5.2 84.3 4.2 85.8 4.2 C 87.3 4.2 88.2 4.9 88.5 6.2 C 88.5 6.2 88.5 6.2 88.5 6.2 C 89 5.1 90.3 4.2 91.8 4.2 C 93.8 4.2 94.8 5.3 94.8 7.7 C 94.8 7.7 94.8 11.6 94.8 11.6 C 94.8 11.9 94.9 12 95.2 12 C 95.17 12.01 95.9 12 95.9 12 L 95.9 13.5 C 95.9 13.5 94.18 13.5 94.2 13.5 C 93.4 13.5 93 13.2 93 12.3 C 93 12.3 93 8 93 8 C 93 6.8 92.8 5.8 91.4 5.8 C 90.2 5.8 89.2 6.9 88.9 8.1 C 88.8 8.5 88.7 8.9 88.7 9.3 C 88.72 9.34 88.7 13.5 88.7 13.5 L 87 13.5 C 87 13.5 86.98 8.05 87 8 C 87 6.9 86.8 5.8 85.4 5.8 C 84.1 5.8 83.1 6.9 82.8 8.2 C 82.7 8.5 82.7 8.9 82.7 9.3 C 82.67 9.34 82.7 13.5 82.7 13.5 L 80.9 13.5 C 80.9 13.5 80.93 6.28 80.9 6.3 Z M 102.4 7.8 C 102.42 7.83 102.8 7.8 102.8 7.8 C 102.8 7.8 102.82 7.74 102.8 7.7 C 102.8 6.1 102.2 5.6 100.8 5.6 C 100.4 5.6 99.3 5.7 99.3 6.3 C 99.31 6.26 99.3 6.8 99.3 6.8 L 97.7 6.8 C 97.7 6.8 97.67 5.89 97.7 5.9 C 97.7 4.4 99.9 4.2 100.8 4.2 C 103.8 4.2 104.6 5.7 104.6 7.7 C 104.6 7.7 104.6 11.6 104.6 11.6 C 104.6 11.9 104.7 12 105 12 C 104.96 12.01 105.7 12 105.7 12 L 105.7 13.5 C 105.7 13.5 104.06 13.5 104.1 13.5 C 103.2 13.5 102.9 13.1 102.9 12.5 C 102.92 12.15 103 11.9 103 11.9 L 102.9 11.9 C 102.9 11.9 102.2 13.72 100 13.7 C 98.5 13.7 96.9 12.8 96.9 10.9 C 96.9 8 100.9 7.8 102.4 7.8 Z M 100.4 12.3 C 101.9 12.3 102.8 10.8 102.8 9.4 C 102.83 9.41 102.8 9.1 102.8 9.1 C 102.8 9.1 102.38 9.11 102.4 9.1 C 101.1 9.1 98.7 9.2 98.7 10.9 C 98.7 11.6 99.3 12.3 100.4 12.3 Z M 101.6 0.8 L 103.4 0.8 L 101.7 3.1 L 100.3 3.1 L 101.6 0.8 Z M 107.5 2.7 C 107.5 2.4 107.4 2.3 107.2 2.3 C 107.15 2.29 106.4 2.3 106.4 2.3 L 106.4 0.8 C 106.4 0.8 108.14 0.79 108.1 0.8 C 109 0.8 109.3 1.1 109.3 1.9 C 109.3 1.9 109.3 11.6 109.3 11.6 C 109.3 11.9 109.4 12 109.7 12 C 109.69 12.01 110.4 12 110.4 12 L 110.4 13.5 C 110.4 13.5 108.7 13.5 108.7 13.5 C 107.9 13.5 107.5 13.2 107.5 12.3 C 107.5 12.3 107.5 2.7 107.5 2.7 Z M 112.4 6.3 C 112.4 6 112.3 5.9 112 5.9 C 112.01 5.89 111.3 5.9 111.3 5.9 L 111.3 4.4 C 111.3 4.4 112.95 4.39 112.9 4.4 C 113.7 4.4 114.1 4.7 114.1 5.4 C 114.1 5.4 114.1 5.7 114.1 5.7 C 114.1 6.03 114.1 6.3 114.1 6.3 C 114.1 6.3 114.1 6.26 114.1 6.3 C 114.5 5.5 115.5 4.2 117.5 4.2 C 119.7 4.2 120.7 5.3 120.7 7.7 C 120.7 7.7 120.7 11.6 120.7 11.6 C 120.7 11.9 120.8 12 121 12 C 121.05 12.01 121.8 12 121.8 12 L 121.8 13.5 C 121.8 13.5 120.06 13.5 120.1 13.5 C 119.2 13.5 118.9 13.2 118.9 12.3 C 118.9 12.3 118.9 8.1 118.9 8.1 C 118.9 6.8 118.7 5.8 117.2 5.8 C 115.8 5.8 114.7 6.7 114.3 8 C 114.2 8.4 114.2 8.8 114.2 9.2 C 114.16 9.23 114.2 13.5 114.2 13.5 L 112.4 13.5 C 112.4 13.5 112.41 6.28 112.4 6.3 Z M 124.1 15.8 C 124.8 15.8 125.4 15.3 125.7 14.5 C 125.69 14.45 126.1 13.5 126.1 13.5 C 126.1 13.5 122.99 6.25 123 6.2 C 122.9 6 122.7 5.9 122.4 5.9 C 122.42 5.89 122.2 5.9 122.2 5.9 L 122.2 4.4 C 122.2 4.4 123.23 4.39 123.2 4.4 C 124 4.4 124.2 4.6 124.5 5.3 C 124.5 5.3 126.6 10.4 126.6 10.4 C 126.77 10.91 126.9 11.5 126.9 11.5 L 127 11.5 C 127 11.5 127.08 10.91 127.3 10.4 C 127.3 10.4 129.1 5.3 129.1 5.3 C 129.4 4.6 129.7 4.4 130.5 4.4 C 130.48 4.39 131.5 4.4 131.5 4.4 L 131.5 5.9 C 131.5 5.9 131.29 5.89 131.3 5.9 C 131 5.9 130.8 6 130.7 6.2 C 130.7 6.2 127.1 15.1 127.1 15.1 C 126.6 16.5 125.5 17.3 124.2 17.3 C 122.83 17.28 122 16.4 122 16.4 C 122 16.4 122.76 15.12 122.8 15.1 C 122.8 15.1 123.3 15.8 124.1 15.8 Z M 137.6 6.2 C 137.5 6 137.3 5.9 137 5.9 C 137.03 5.89 136.9 5.9 136.9 5.9 L 136.9 4.4 C 136.9 4.4 137.75 4.39 137.8 4.4 C 138.6 4.4 138.9 4.6 139.1 5.3 C 139.1 5.3 141.1 10.5 141.1 10.5 C 141.28 11.05 141.4 11.7 141.4 11.7 L 141.5 11.7 C 141.5 11.7 141.61 11.05 141.8 10.5 C 141.8 10.5 143.7 5.3 143.7 5.3 C 144 4.6 144.3 4.4 145.1 4.4 C 145.12 4.39 146 4.4 146 4.4 L 146 5.9 C 146 5.9 145.78 5.89 145.8 5.9 C 145.5 5.9 145.3 6 145.2 6.2 C 145.19 6.25 142.4 13.5 142.4 13.5 L 140.4 13.5 C 140.4 13.5 137.59 6.25 137.6 6.2 Z M 147.7 6.3 C 147.7 6 147.6 5.9 147.3 5.9 C 147.33 5.89 146.6 5.9 146.6 5.9 L 146.6 4.4 C 146.6 4.4 148.23 4.39 148.2 4.4 C 149 4.4 149.3 4.7 149.3 5.3 C 149.35 5.58 149.3 5.8 149.3 5.8 L 149.4 5.8 C 149.4 5.8 150.12 4.18 152.4 4.2 C 154.8 4.2 156.4 6.1 156.4 8.9 C 156.4 11.8 154.6 13.7 152.3 13.7 C 150.25 13.72 149.5 12.3 149.5 12.3 L 149.4 12.3 C 149.4 12.3 149.47 12.58 149.5 13.1 C 149.47 13.05 149.5 17.1 149.5 17.1 L 147.7 17.1 C 147.7 17.1 147.73 6.28 147.7 6.3 Z M 152 12.2 C 153.4 12.2 154.6 11 154.6 9 C 154.6 7 153.6 5.7 152 5.7 C 150.7 5.7 149.4 6.7 149.4 9 C 149.4 10.6 150.3 12.2 152 12.2 Z M 158.4 2.7 C 158.4 2.4 158.3 2.3 158 2.3 C 158 2.29 157.3 2.3 157.3 2.3 L 157.3 0.8 C 157.3 0.8 158.99 0.79 159 0.8 C 159.8 0.8 160.1 1.1 160.1 1.9 C 160.1 1.9 160.1 11.6 160.1 11.6 C 160.1 11.9 160.3 12 160.5 12 C 160.54 12.01 161.3 12 161.3 12 L 161.3 13.5 C 161.3 13.5 159.55 13.5 159.6 13.5 C 158.7 13.5 158.4 13.2 158.4 12.3 C 158.4 12.3 158.4 2.7 158.4 2.7 Z M 163.9 15.8 C 164.6 15.8 165.1 15.3 165.5 14.5 C 165.47 14.45 165.9 13.5 165.9 13.5 C 165.9 13.5 162.77 6.25 162.8 6.2 C 162.6 6 162.5 5.9 162.2 5.9 C 162.2 5.89 162 5.9 162 5.9 L 162 4.4 C 162 4.4 163.01 4.39 163 4.4 C 163.7 4.4 164 4.6 164.3 5.3 C 164.3 5.3 166.4 10.4 166.4 10.4 C 166.55 10.91 166.7 11.5 166.7 11.5 L 166.7 11.5 C 166.7 11.5 166.86 10.91 167 10.4 C 167 10.4 168.9 5.3 168.9 5.3 C 169.2 4.6 169.5 4.4 170.3 4.4 C 170.26 4.39 171.3 4.4 171.3 4.4 L 171.3 5.9 C 171.3 5.9 171.07 5.89 171.1 5.9 C 170.8 5.9 170.6 6 170.5 6.2 C 170.5 6.2 166.9 15.1 166.9 15.1 C 166.3 16.5 165.2 17.3 164 17.3 C 162.61 17.28 161.8 16.4 161.8 16.4 C 161.8 16.4 162.54 15.12 162.5 15.1 C 162.5 15.1 163.1 15.8 163.9 15.8 Z M 172.5 6.2 C 172.4 6 172.3 5.9 172 5.9 C 171.97 5.89 171.8 5.9 171.8 5.9 L 171.8 4.4 C 171.8 4.4 172.69 4.39 172.7 4.4 C 173.5 4.4 173.8 4.6 174.1 5.3 C 174.1 5.3 176 10.5 176 10.5 C 176.22 11.05 176.4 11.7 176.4 11.7 L 176.4 11.7 C 176.4 11.7 176.54 11.05 176.7 10.5 C 176.7 10.5 178.7 5.3 178.7 5.3 C 178.9 4.6 179.3 4.4 180.1 4.4 C 180.05 4.39 180.9 4.4 180.9 4.4 L 180.9 5.9 C 180.9 5.9 180.72 5.89 180.7 5.9 C 180.4 5.9 180.2 6 180.1 6.2 C 180.12 6.25 177.4 13.5 177.4 13.5 L 175.3 13.5 C 175.3 13.5 172.53 6.25 172.5 6.2 Z " stroke="none" fill="#ee3078"/>  </g></svg>