<?xml version="1.0" standalone="no"?><!DOCTYPE svg PUBLIC "-//W3C//DTD SVG 1.1//EN" "http://www.w3.org/Graphics/SVG/1.1/DTD/svg11.dtd"><svg xmlns="http://www.w3.org/2000/svg" version="1.1" width="298px" height="22.5px" viewBox="0 -3 298 22.5" style="top:-3px">  <desc>Pred lie bou</desc>  <defs/>  <g id="Polygon74480">    <path d="M 108.3 2.1 L 107.4 2.1 L 107.4 0.6 C 107.4 0.6 111.95 0.56 111.9 0.6 C 113.8 0.6 115.1 1.9 115.1 3.8 C 115.1 5.7 113.8 7.1 111.9 7.1 C 111.95 7.07 110.1 7.1 110.1 7.1 L 110.1 10.5 L 108.3 10.5 L 108.3 2.1 Z M 111.6 5.5 C 112.6 5.5 113.2 4.8 113.2 3.8 C 113.2 2.8 112.6 2.1 111.6 2.1 C 111.64 2.11 110.1 2.1 110.1 2.1 L 110.1 5.5 C 110.1 5.5 111.61 5.5 111.6 5.5 Z M 116.6 5.2 C 116.6 5 116.4 4.9 116.2 4.9 C 116.24 4.87 115.7 4.9 115.7 4.9 L 115.7 3.4 C 115.7 3.4 117.31 3.36 117.3 3.4 C 117.9 3.4 118.3 3.6 118.3 4.2 C 118.3 4.2 118.3 4.6 118.3 4.6 C 118.26 4.91 118.2 5.1 118.2 5.1 C 118.2 5.1 118.26 5.1 118.3 5.1 C 118.6 4.1 119.4 3.3 120.5 3.3 C 120.68 3.26 120.8 3.3 120.8 3.3 L 120.8 5 C 120.8 5 120.67 5.01 120.4 5 C 119.7 5 118.8 5.4 118.5 6.5 C 118.4 6.9 118.3 7.3 118.3 7.7 C 118.31 7.67 118.3 10.5 118.3 10.5 L 116.6 10.5 C 116.6 10.5 116.55 5.18 116.6 5.2 Z M 125 3.2 C 127 3.2 128.1 4.7 128.1 6.6 C 128.13 6.79 128.1 7.2 128.1 7.2 C 128.1 7.2 123.16 7.24 123.2 7.2 C 123.3 8.5 124.2 9.2 125.3 9.2 C 126.45 9.16 127.3 8.4 127.3 8.4 L 128 9.6 C 128 9.6 126.95 10.67 125.2 10.7 C 122.8 10.7 121.3 9 121.3 6.9 C 121.3 4.7 122.8 3.2 125 3.2 Z M 126.3 6 C 126.3 5.2 125.7 4.6 125 4.6 C 124.1 4.6 123.4 5.1 123.2 6 C 123.2 6 126.3 6 126.3 6 Z M 132.4 3.2 C 133.94 3.19 134.4 4.1 134.4 4.1 L 134.5 4.1 C 134.5 4.1 134.46 3.88 134.5 3.6 C 134.5 3.6 134.5 2.4 134.5 2.4 C 134.5 2.2 134.3 2.1 134.1 2.1 C 134.15 2.07 133.6 2.1 133.6 2.1 L 133.6 0.6 C 133.6 0.6 135.28 0.56 135.3 0.6 C 135.9 0.6 136.2 0.9 136.2 1.5 C 136.2 1.5 136.2 8.7 136.2 8.7 C 136.2 8.9 136.3 9 136.5 9 C 136.54 9 137.1 9 137.1 9 L 137.1 10.5 C 137.1 10.5 135.45 10.5 135.5 10.5 C 134.8 10.5 134.6 10.2 134.6 9.8 C 134.6 9.6 134.6 9.5 134.6 9.5 C 134.57 9.51 134.5 9.5 134.5 9.5 C 134.5 9.5 133.95 10.67 132.3 10.7 C 130.4 10.7 129.1 9.1 129.1 6.9 C 129.1 4.7 130.5 3.2 132.4 3.2 Z M 134.5 6.9 C 134.5 5.8 133.9 4.7 132.7 4.7 C 131.8 4.7 130.9 5.5 130.9 6.9 C 130.9 8.3 131.7 9.2 132.7 9.2 C 133.6 9.2 134.5 8.5 134.5 6.9 Z M 142.2 2.4 C 142.2 2.2 142.1 2.1 141.9 2.1 C 141.92 2.07 141.4 2.1 141.4 2.1 L 141.4 0.6 C 141.4 0.6 143.05 0.56 143.1 0.6 C 143.7 0.6 144 0.9 144 1.5 C 144 1.5 144 8.7 144 8.7 C 144 8.9 144.1 9 144.3 9 C 144.31 9 144.9 9 144.9 9 L 144.9 10.5 C 144.9 10.5 143.18 10.5 143.2 10.5 C 142.5 10.5 142.2 10.2 142.2 9.5 C 142.2 9.5 142.2 2.4 142.2 2.4 Z M 146.5 0.6 L 148 0.6 L 148 2.2 L 146.5 2.2 L 146.5 0.6 Z M 146.4 5.2 C 146.4 5 146.3 4.9 146.1 4.9 C 146.09 4.87 145.5 4.9 145.5 4.9 L 145.5 3.4 C 145.5 3.4 147.22 3.36 147.2 3.4 C 147.9 3.4 148.2 3.7 148.2 4.3 C 148.2 4.3 148.2 8.7 148.2 8.7 C 148.2 8.9 148.3 9 148.5 9 C 148.47 9 149 9 149 9 L 149 10.5 C 149 10.5 147.34 10.5 147.3 10.5 C 146.7 10.5 146.4 10.2 146.4 9.5 C 146.4 9.5 146.4 5.2 146.4 5.2 Z M 153.4 3.2 C 155.5 3.2 156.6 4.7 156.6 6.6 C 156.6 6.79 156.6 7.2 156.6 7.2 C 156.6 7.2 151.63 7.24 151.6 7.2 C 151.8 8.5 152.7 9.2 153.8 9.2 C 154.93 9.16 155.8 8.4 155.8 8.4 L 156.5 9.6 C 156.5 9.6 155.43 10.67 153.7 10.7 C 151.3 10.7 149.8 9 149.8 6.9 C 149.8 4.7 151.3 3.2 153.4 3.2 Z M 154.8 6 C 154.8 5.2 154.2 4.6 153.4 4.6 C 152.5 4.6 151.9 5.1 151.7 6 C 151.7 6 154.8 6 154.8 6 Z M 161.5 3.2 C 162.4 3.2 164.1 3.6 164.1 4.8 C 164.11 4.8 164.1 5.6 164.1 5.6 L 162.5 5.6 C 162.5 5.6 162.54 5.25 162.5 5.2 C 162.5 4.9 162 4.7 161.5 4.7 C 160.3 4.7 159.4 5.6 159.4 6.9 C 159.4 8.4 160.5 9.1 161.6 9.1 C 162.85 9.11 163.7 8.1 163.7 8.1 L 164.5 9.4 C 164.5 9.4 163.42 10.67 161.5 10.7 C 159.1 10.7 157.6 9 157.6 6.9 C 157.6 4.9 159.1 3.2 161.5 3.2 Z M 159.2 0.6 L 160.5 0.6 L 161.2 1.7 L 161.3 1.7 L 162 0.6 L 163.3 0.6 L 162 2.5 L 160.5 2.5 L 159.2 0.6 Z M 165.8 2.4 C 165.8 2.2 165.7 2.1 165.5 2.1 C 165.5 2.07 164.9 2.1 164.9 2.1 L 164.9 0.6 C 164.9 0.6 166.63 0.56 166.6 0.6 C 167.3 0.6 167.6 0.9 167.6 1.5 C 167.6 1.5 167.6 3.6 167.6 3.6 C 167.58 3.93 167.6 4.2 167.6 4.2 L 167.6 4.2 C 167.6 4.2 168.21 3.19 169.7 3.2 C 171.7 3.2 172.9 4.7 172.9 6.9 C 172.9 9.2 171.5 10.7 169.6 10.7 C 168.13 10.67 167.5 9.7 167.5 9.7 L 167.5 9.7 C 167.5 9.7 167.48 9.86 167.5 10.1 C 167.48 10.14 167.5 10.5 167.5 10.5 L 165.8 10.5 C 165.8 10.5 165.8 2.38 165.8 2.4 Z M 169.3 9.2 C 170.3 9.2 171.1 8.4 171.1 7 C 171.1 5.6 170.4 4.7 169.3 4.7 C 168.4 4.7 167.5 5.4 167.5 7 C 167.5 8.1 168.1 9.2 169.3 9.2 Z M 177.7 3.2 C 179.9 3.2 181.6 4.7 181.6 6.9 C 181.6 9.1 179.9 10.7 177.7 10.7 C 175.5 10.7 173.8 9.1 173.8 6.9 C 173.8 4.7 175.5 3.2 177.7 3.2 Z M 177.7 9.2 C 178.9 9.2 179.8 8.3 179.8 6.9 C 179.8 5.6 178.9 4.7 177.7 4.7 C 176.6 4.7 175.6 5.6 175.6 6.9 C 175.6 8.3 176.6 9.2 177.7 9.2 Z M 183.2 5.2 C 183.2 5 183.1 4.9 182.9 4.9 C 182.9 4.87 182.3 4.9 182.3 4.9 L 182.3 3.4 C 182.3 3.4 184.03 3.36 184 3.4 C 184.7 3.4 185 3.7 185 4.3 C 185 4.3 185 7.6 185 7.6 C 185 8.5 185.2 9 186.1 9 C 187.4 9 188.1 7.9 188.1 6.6 C 188.08 6.64 188.1 3.4 188.1 3.4 L 189.9 3.4 C 189.9 3.4 189.85 8.69 189.9 8.7 C 189.9 8.9 190 9 190.2 9 C 190.16 9 190.7 9 190.7 9 L 190.7 10.5 C 190.7 10.5 189.08 10.5 189.1 10.5 C 188.5 10.5 188.1 10.2 188.1 9.7 C 188.1 9.7 188.1 9.5 188.1 9.5 C 188.1 9.3 188.2 9.2 188.2 9.2 C 188.2 9.2 188.1 9.2 188.1 9.2 C 187.8 9.9 186.9 10.7 185.7 10.7 C 184.1 10.7 183.2 9.9 183.2 8 C 183.2 8 183.2 5.2 183.2 5.2 Z " stroke="none" fill="#000"/>  </g></svg>