<?xml version="1.0" standalone="no"?><!DOCTYPE svg PUBLIC "-//W3C//DTD SVG 1.1//EN" "http://www.w3.org/Graphics/SVG/1.1/DTD/svg11.dtd"><svg xmlns="http://www.w3.org/2000/svg" version="1.1" width="137.1px" height="49.5px" viewBox="0 -3 137.1 49.5" style="top:-3px">  <desc>Pe e 3,5 Ovplyv uje metabolizmus tukov v pe eni</desc>  <defs/>  <g id="Polygon68177">    <path d="M 0.9 32.9 L 0.3 32.9 L 0.3 32.3 L 0.9 32.3 L 0.9 30.9 L 1.6 30.9 L 1.6 32.3 L 2.9 32.3 L 2.9 32.9 L 1.6 32.9 C 1.6 32.9 1.61 35.43 1.6 35.4 C 1.6 36.6 2.4 36.8 2.7 36.8 C 2.88 36.77 3 36.7 3 36.7 L 3 37.4 C 3 37.4 2.85 37.37 2.7 37.4 C 2.1 37.4 0.9 37.2 0.9 35.5 C 0.93 35.5 0.9 32.9 0.9 32.9 Z M 4.2 33.1 C 4.2 33 4.1 32.9 4 32.9 C 3.98 32.89 3.6 32.9 3.6 32.9 L 3.6 32.3 C 3.6 32.3 4.27 32.31 4.3 32.3 C 4.7 32.3 4.9 32.5 4.9 32.9 C 4.9 32.9 4.9 35.3 4.9 35.3 C 4.9 36.1 5 36.8 6 36.8 C 7.1 36.8 7.8 35.8 7.8 34.7 C 7.83 34.71 7.8 32.3 7.8 32.3 L 8.5 32.3 C 8.5 32.3 8.51 36.53 8.5 36.5 C 8.5 36.7 8.6 36.7 8.7 36.7 C 8.73 36.75 9.1 36.7 9.1 36.7 L 9.1 37.3 C 9.1 37.3 8.46 37.33 8.5 37.3 C 8 37.3 7.9 37.2 7.9 36.8 C 7.9 36.8 7.9 36.5 7.9 36.5 C 7.9 36.3 7.9 36.2 7.9 36.2 C 7.9 36.2 7.9 36.2 7.9 36.2 C 7.7 36.7 7 37.5 5.9 37.5 C 4.7 37.5 4.2 36.8 4.2 35.5 C 4.2 35.5 4.2 33.1 4.2 33.1 Z M 10.2 31.1 C 10.2 31 10.1 30.9 10 30.9 C 10 30.89 9.6 30.9 9.6 30.9 L 9.6 30.3 C 9.6 30.3 10.29 30.31 10.3 30.3 C 10.7 30.3 10.9 30.5 10.9 30.9 C 10.9 30.88 10.9 34.2 10.9 34.2 C 10.9 34.2 11.42 34.23 11.4 34.2 C 11.6 34.2 11.8 34.2 12 34 C 11.99 33.99 13.3 32.3 13.3 32.3 L 14.1 32.3 C 14.1 32.3 12.66 34.15 12.7 34.1 C 12.41 34.45 12.3 34.5 12.3 34.5 L 12.3 34.5 C 12.3 34.5 12.43 34.59 12.6 34.9 C 12.6 34.9 13.5 36.5 13.5 36.5 C 13.6 36.7 13.7 36.7 14 36.7 C 13.96 36.75 14.2 36.7 14.2 36.7 L 14.2 37.3 C 14.2 37.3 13.76 37.33 13.8 37.3 C 13.3 37.3 13.1 37.3 12.9 36.8 C 12.9 36.8 11.9 35 11.9 35 C 11.8 34.8 11.5 34.8 11.4 34.8 C 11.36 34.81 10.9 34.8 10.9 34.8 L 10.9 37.3 L 10.2 37.3 C 10.2 37.3 10.22 31.11 10.2 31.1 Z M 17.3 32.2 C 18.8 32.2 20 33.3 20 34.8 C 20 36.3 18.8 37.5 17.3 37.5 C 15.8 37.5 14.7 36.3 14.7 34.8 C 14.7 33.3 15.8 32.2 17.3 32.2 Z M 17.3 36.8 C 18.4 36.8 19.3 36 19.3 34.8 C 19.3 33.7 18.4 32.8 17.3 32.8 C 16.2 32.8 15.4 33.7 15.4 34.8 C 15.4 36 16.2 36.8 17.3 36.8 Z M 20.9 33.1 C 20.8 32.9 20.7 32.9 20.5 32.9 C 20.5 32.89 20.4 32.9 20.4 32.9 L 20.4 32.3 C 20.4 32.3 20.68 32.31 20.7 32.3 C 21.2 32.3 21.3 32.4 21.5 32.9 C 21.5 32.9 22.7 36 22.7 36 C 22.78 36.25 22.9 36.6 22.9 36.6 L 22.9 36.6 C 22.9 36.6 22.96 36.25 23 36 C 23 36 24.3 32.9 24.3 32.9 C 24.4 32.4 24.6 32.3 25 32.3 C 25.05 32.31 25.3 32.3 25.3 32.3 L 25.3 32.9 C 25.3 32.9 25.22 32.89 25.2 32.9 C 25 32.9 24.9 32.9 24.9 33.1 C 24.87 33.12 23.2 37.3 23.2 37.3 L 22.5 37.3 C 22.5 37.3 20.85 33.12 20.9 33.1 Z M 28.8 33.1 C 28.7 32.9 28.6 32.9 28.4 32.9 C 28.4 32.89 28.3 32.9 28.3 32.9 L 28.3 32.3 C 28.3 32.3 28.58 32.31 28.6 32.3 C 29.1 32.3 29.2 32.4 29.4 32.9 C 29.4 32.9 30.6 36 30.6 36 C 30.68 36.25 30.8 36.6 30.8 36.6 L 30.8 36.6 C 30.8 36.6 30.86 36.25 30.9 36 C 30.9 36 32.2 32.9 32.2 32.9 C 32.3 32.4 32.5 32.3 32.9 32.3 C 32.95 32.31 33.2 32.3 33.2 32.3 L 33.2 32.9 C 33.2 32.9 33.12 32.89 33.1 32.9 C 32.9 32.9 32.8 32.9 32.8 33.1 C 32.77 33.12 31.1 37.3 31.1 37.3 L 30.4 37.3 C 30.4 37.3 28.75 33.12 28.8 33.1 Z M 36.9 33.1 C 36.9 33 36.9 32.9 36.7 32.9 C 36.72 32.89 36.3 32.9 36.3 32.9 L 36.3 32.3 C 36.3 32.3 36.99 32.31 37 32.3 C 37.4 32.3 37.6 32.5 37.6 32.8 C 37.6 33 37.6 33.2 37.6 33.2 C 37.58 33.17 37.6 33.2 37.6 33.2 C 37.6 33.2 38 32.19 39.3 32.2 C 40.7 32.2 41.5 33.3 41.5 34.8 C 41.5 36.4 40.6 37.5 39.3 37.5 C 38.04 37.45 37.6 36.5 37.6 36.5 L 37.6 36.5 C 37.6 36.5 37.62 36.69 37.6 36.9 C 37.62 36.95 37.6 39.3 37.6 39.3 L 36.9 39.3 C 36.9 39.3 36.94 33.11 36.9 33.1 Z M 39.2 36.9 C 40.1 36.9 40.8 36.1 40.8 34.8 C 40.8 33.6 40.2 32.8 39.2 32.8 C 38.4 32.8 37.6 33.4 37.6 34.8 C 37.6 35.8 38.1 36.9 39.2 36.9 Z M 44.8 32.2 C 46.2 32.2 46.9 33.3 46.9 34.5 C 46.93 34.62 46.9 34.8 46.9 34.8 C 46.9 34.8 43.05 34.84 43 34.8 C 43.1 36.1 44 36.8 45 36.8 C 45.92 36.85 46.5 36.2 46.5 36.2 L 46.8 36.7 C 46.8 36.7 46.11 37.45 45 37.5 C 43.5 37.5 42.3 36.4 42.3 34.8 C 42.3 33.2 43.5 32.2 44.8 32.2 Z M 46.2 34.3 C 46.2 33.3 45.5 32.8 44.8 32.8 C 44 32.8 43.2 33.3 43.1 34.3 C 43.1 34.3 46.2 34.3 46.2 34.3 Z M 50.5 32.2 C 51 32.2 52.3 32.4 52.3 33.3 C 52.26 33.25 52.3 33.7 52.3 33.7 L 51.6 33.7 C 51.6 33.7 51.62 33.41 51.6 33.4 C 51.6 33 50.9 32.8 50.5 32.8 C 49.4 32.8 48.5 33.6 48.5 34.8 C 48.5 36.1 49.4 36.8 50.5 36.8 C 51.52 36.84 52.1 36.1 52.1 36.1 L 52.4 36.6 C 52.4 36.6 51.75 37.45 50.5 37.5 C 49 37.5 47.8 36.4 47.8 34.8 C 47.8 33.3 49 32.2 50.5 32.2 Z M 49.1 30.3 L 49.8 30.3 L 50.3 31.1 L 50.3 31.1 L 50.9 30.3 L 51.5 30.3 L 50.7 31.5 L 50 31.5 L 49.1 30.3 Z M 55.6 32.2 C 57 32.2 57.7 33.3 57.7 34.5 C 57.69 34.62 57.7 34.8 57.7 34.8 C 57.7 34.8 53.81 34.84 53.8 34.8 C 53.8 36.1 54.7 36.8 55.8 36.8 C 56.68 36.85 57.3 36.2 57.3 36.2 L 57.6 36.7 C 57.6 36.7 56.87 37.45 55.7 37.5 C 54.2 37.5 53.1 36.4 53.1 34.8 C 53.1 33.2 54.2 32.2 55.6 32.2 Z M 57 34.3 C 56.9 33.3 56.3 32.8 55.6 32.8 C 54.7 32.8 54 33.3 53.8 34.3 C 53.8 34.3 57 34.3 57 34.3 Z M 59 33.1 C 59 33 59 32.9 58.8 32.9 C 58.83 32.89 58.4 32.9 58.4 32.9 L 58.4 32.3 C 58.4 32.3 59.11 32.31 59.1 32.3 C 59.5 32.3 59.7 32.5 59.7 32.9 C 59.7 32.9 59.7 33.1 59.7 33.1 C 59.72 33.29 59.7 33.5 59.7 33.5 C 59.7 33.5 59.72 33.45 59.7 33.5 C 59.9 33 60.5 32.2 61.7 32.2 C 63 32.2 63.4 32.9 63.4 34.1 C 63.4 34.1 63.4 36.5 63.4 36.5 C 63.4 36.7 63.5 36.7 63.6 36.7 C 63.63 36.75 64 36.7 64 36.7 L 64 37.3 C 64 37.3 63.34 37.33 63.3 37.3 C 62.9 37.3 62.7 37.2 62.7 36.7 C 62.7 36.7 62.7 34.3 62.7 34.3 C 62.7 33.5 62.6 32.8 61.6 32.8 C 60.8 32.8 60 33.4 59.8 34.2 C 59.7 34.5 59.7 34.7 59.7 34.9 C 59.73 34.92 59.7 37.3 59.7 37.3 L 59 37.3 C 59 37.3 59.05 33.11 59 33.1 Z M 65.2 30.3 L 65.8 30.3 L 65.8 31.2 L 65.2 31.2 L 65.2 30.3 Z M 65.2 33.1 C 65.2 33 65.1 32.9 65 32.9 C 64.96 32.89 64.5 32.9 64.5 32.9 L 64.5 32.3 C 64.5 32.3 65.25 32.31 65.2 32.3 C 65.7 32.3 65.9 32.5 65.9 32.9 C 65.9 32.9 65.9 36.5 65.9 36.5 C 65.9 36.7 65.9 36.7 66.1 36.7 C 66.08 36.75 66.5 36.7 66.5 36.7 L 66.5 37.3 C 66.5 37.3 65.79 37.33 65.8 37.3 C 65.4 37.3 65.2 37.2 65.2 36.7 C 65.2 36.7 65.2 33.1 65.2 33.1 Z " stroke="none" fill="#000"/>  </g>  <g id="Polygon68176">    <path d="M 4 18.2 C 6 18.2 7.5 19.8 7.5 21.8 C 7.5 23.8 6 25.5 4 25.5 C 2 25.5 0.4 23.8 0.4 21.8 C 0.4 19.8 2 18.2 4 18.2 Z M 4 24.8 C 5.5 24.8 6.8 23.5 6.8 21.8 C 6.8 20.1 5.5 18.8 4 18.8 C 2.4 18.8 1.1 20.1 1.1 21.8 C 1.1 23.5 2.4 24.8 4 24.8 Z M 8.5 21.1 C 8.5 20.9 8.4 20.9 8.2 20.9 C 8.17 20.89 8.1 20.9 8.1 20.9 L 8.1 20.3 C 8.1 20.3 8.35 20.31 8.4 20.3 C 8.8 20.3 9 20.4 9.2 20.9 C 9.2 20.9 10.4 24 10.4 24 C 10.45 24.25 10.5 24.6 10.5 24.6 L 10.5 24.6 C 10.5 24.6 10.63 24.25 10.7 24 C 10.7 24 11.9 20.9 11.9 20.9 C 12.1 20.4 12.2 20.3 12.7 20.3 C 12.72 20.31 13 20.3 13 20.3 L 13 20.9 C 13 20.9 12.89 20.89 12.9 20.9 C 12.7 20.9 12.6 20.9 12.5 21.1 C 12.54 21.12 10.9 25.3 10.9 25.3 L 10.2 25.3 C 10.2 25.3 8.52 21.12 8.5 21.1 Z M 14 21.1 C 14 21 13.9 20.9 13.8 20.9 C 13.77 20.89 13.4 20.9 13.4 20.9 L 13.4 20.3 C 13.4 20.3 14.04 20.31 14 20.3 C 14.5 20.3 14.6 20.5 14.6 20.8 C 14.6 21 14.6 21.2 14.6 21.2 C 14.63 21.17 14.6 21.2 14.6 21.2 C 14.6 21.2 15.05 20.19 16.4 20.2 C 17.7 20.2 18.6 21.3 18.6 22.8 C 18.6 24.4 17.6 25.5 16.3 25.5 C 15.09 25.45 14.7 24.5 14.7 24.5 L 14.6 24.5 C 14.6 24.5 14.67 24.69 14.7 24.9 C 14.67 24.95 14.7 27.3 14.7 27.3 L 14 27.3 C 14 27.3 13.99 21.11 14 21.1 Z M 16.2 24.9 C 17.1 24.9 17.9 24.1 17.9 22.8 C 17.9 21.6 17.2 20.8 16.3 20.8 C 15.4 20.8 14.6 21.4 14.6 22.8 C 14.6 23.8 15.2 24.9 16.2 24.9 Z M 19.8 19.1 C 19.8 19 19.7 18.9 19.5 18.9 C 19.54 18.89 19.1 18.9 19.1 18.9 L 19.1 18.3 C 19.1 18.3 19.83 18.31 19.8 18.3 C 20.3 18.3 20.4 18.5 20.4 18.9 C 20.4 18.9 20.4 24.5 20.4 24.5 C 20.4 24.7 20.5 24.7 20.7 24.7 C 20.66 24.75 21.1 24.7 21.1 24.7 L 21.1 25.3 C 21.1 25.3 20.37 25.33 20.4 25.3 C 19.9 25.3 19.8 25.2 19.8 24.7 C 19.8 24.7 19.8 19.1 19.8 19.1 Z M 22.5 26.8 C 22.9 26.8 23.2 26.5 23.4 26 C 23.43 26.01 23.7 25.3 23.7 25.3 C 23.7 25.3 21.96 21.12 22 21.1 C 21.9 20.9 21.8 20.9 21.6 20.9 C 21.61 20.89 21.5 20.9 21.5 20.9 L 21.5 20.3 C 21.5 20.3 21.82 20.31 21.8 20.3 C 22.3 20.3 22.4 20.4 22.6 20.9 C 22.6 20.9 23.9 24 23.9 24 C 23.98 24.24 24.1 24.5 24.1 24.5 L 24.1 24.5 C 24.1 24.5 24.15 24.24 24.2 24 C 24.2 24 25.5 20.9 25.5 20.9 C 25.7 20.4 25.8 20.3 26.3 20.3 C 26.27 20.31 26.6 20.3 26.6 20.3 L 26.6 20.9 C 26.6 20.9 26.48 20.89 26.5 20.9 C 26.3 20.9 26.2 20.9 26.1 21.1 C 26.1 21.1 24 26.4 24 26.4 C 23.7 27 23.2 27.4 22.5 27.4 C 21.82 27.43 21.4 26.9 21.4 26.9 C 21.4 26.9 21.75 26.45 21.8 26.4 C 21.8 26.5 22.1 26.8 22.5 26.8 Z M 27.3 21.1 C 27.3 20.9 27.2 20.9 27 20.9 C 26.97 20.89 26.9 20.9 26.9 20.9 L 26.9 20.3 C 26.9 20.3 27.15 20.31 27.2 20.3 C 27.6 20.3 27.8 20.4 27.9 20.9 C 27.9 20.9 29.2 24 29.2 24 C 29.25 24.25 29.3 24.6 29.3 24.6 L 29.3 24.6 C 29.3 24.6 29.43 24.25 29.5 24 C 29.5 24 30.7 20.9 30.7 20.9 C 30.9 20.4 31 20.3 31.5 20.3 C 31.52 20.31 31.8 20.3 31.8 20.3 L 31.8 20.9 C 31.8 20.9 31.69 20.89 31.7 20.9 C 31.5 20.9 31.4 20.9 31.3 21.1 C 31.34 21.12 29.7 25.3 29.7 25.3 L 29 25.3 C 29 25.3 27.32 21.12 27.3 21.1 Z M 32.8 21.1 C 32.8 21 32.7 20.9 32.6 20.9 C 32.57 20.89 32.2 20.9 32.2 20.9 L 32.2 20.3 C 32.2 20.3 32.85 20.31 32.8 20.3 C 33.3 20.3 33.5 20.5 33.5 20.9 C 33.5 20.9 33.5 21.1 33.5 21.1 C 33.46 21.29 33.4 21.5 33.4 21.5 C 33.4 21.5 33.46 21.45 33.5 21.5 C 33.6 21 34.3 20.2 35.5 20.2 C 36.7 20.2 37.1 20.9 37.1 22.1 C 37.1 22.1 37.1 24.5 37.1 24.5 C 37.1 24.7 37.2 24.7 37.4 24.7 C 37.37 24.75 37.8 24.7 37.8 24.7 L 37.8 25.3 C 37.8 25.3 37.08 25.33 37.1 25.3 C 36.6 25.3 36.5 25.2 36.5 24.7 C 36.5 24.7 36.5 22.3 36.5 22.3 C 36.5 21.5 36.3 20.8 35.4 20.8 C 34.5 20.8 33.8 21.4 33.5 22.2 C 33.5 22.5 33.5 22.7 33.5 22.9 C 33.47 22.92 33.5 25.3 33.5 25.3 L 32.8 25.3 C 32.8 25.3 32.79 21.11 32.8 21.1 Z M 33.9 18.3 L 34.5 18.3 L 35.1 19.1 L 35.1 19.1 L 35.6 18.3 L 36.3 18.3 L 35.4 19.5 L 34.7 19.5 L 33.9 18.3 Z M 38.8 21.1 C 38.8 21 38.8 20.9 38.6 20.9 C 38.63 20.89 38.2 20.9 38.2 20.9 L 38.2 20.3 C 38.2 20.3 38.92 20.31 38.9 20.3 C 39.3 20.3 39.5 20.5 39.5 20.9 C 39.5 20.9 39.5 23.3 39.5 23.3 C 39.5 24.1 39.7 24.8 40.6 24.8 C 41.8 24.8 42.5 23.8 42.5 22.7 C 42.48 22.71 42.5 20.3 42.5 20.3 L 43.2 20.3 C 43.2 20.3 43.16 24.53 43.2 24.5 C 43.2 24.7 43.2 24.7 43.4 24.7 C 43.38 24.75 43.8 24.7 43.8 24.7 L 43.8 25.3 C 43.8 25.3 43.11 25.33 43.1 25.3 C 42.7 25.3 42.5 25.2 42.5 24.8 C 42.5 24.8 42.5 24.5 42.5 24.5 C 42.5 24.3 42.5 24.2 42.5 24.2 C 42.5 24.2 42.5 24.2 42.5 24.2 C 42.3 24.7 41.6 25.5 40.5 25.5 C 39.3 25.5 38.8 24.8 38.8 23.5 C 38.8 23.5 38.8 21.1 38.8 21.1 Z M 45.2 18.3 L 45.8 18.3 L 45.8 19.2 L 45.2 19.2 L 45.2 18.3 Z M 44 26.8 C 44.4 26.8 45.2 26.6 45.2 25.5 C 45.2 25.5 45.2 21.1 45.2 21.1 C 45.2 21 45.1 20.9 45 20.9 C 44.96 20.89 44.5 20.9 44.5 20.9 L 44.5 20.3 C 44.5 20.3 45.25 20.31 45.2 20.3 C 45.7 20.3 45.9 20.5 45.9 20.9 C 45.9 20.9 45.9 25.5 45.9 25.5 C 45.9 27.2 44.7 27.4 44.1 27.4 C 43.9 27.4 43.8 27.4 43.8 27.4 C 43.82 27.36 43.8 26.8 43.8 26.8 C 43.8 26.8 43.91 26.79 44 26.8 Z M 49.6 20.2 C 51 20.2 51.7 21.3 51.7 22.5 C 51.7 22.62 51.7 22.8 51.7 22.8 C 51.7 22.8 47.82 22.84 47.8 22.8 C 47.8 24.1 48.7 24.8 49.8 24.8 C 50.69 24.85 51.3 24.2 51.3 24.2 L 51.6 24.7 C 51.6 24.7 50.88 25.45 49.7 25.5 C 48.2 25.5 47.1 24.4 47.1 22.8 C 47.1 21.2 48.2 20.2 49.6 20.2 Z M 51 22.3 C 51 21.3 50.3 20.8 49.6 20.8 C 48.7 20.8 48 21.3 47.8 22.3 C 47.8 22.3 51 22.3 51 22.3 Z M 55.8 21.1 C 55.8 21 55.7 20.9 55.6 20.9 C 55.56 20.89 55.1 20.9 55.1 20.9 L 55.1 20.3 C 55.1 20.3 55.84 20.31 55.8 20.3 C 56.3 20.3 56.4 20.5 56.4 20.9 C 56.4 20.9 56.4 21.1 56.4 21.1 C 56.45 21.29 56.4 21.5 56.4 21.5 C 56.4 21.5 56.45 21.45 56.4 21.5 C 56.7 20.8 57.5 20.2 58.3 20.2 C 59.2 20.2 59.7 20.6 59.8 21.4 C 59.8 21.4 59.8 21.4 59.8 21.4 C 60.1 20.8 60.8 20.2 61.7 20.2 C 62.9 20.2 63.4 20.9 63.4 22.1 C 63.4 22.1 63.4 24.5 63.4 24.5 C 63.4 24.7 63.4 24.7 63.6 24.7 C 63.59 24.75 64 24.7 64 24.7 L 64 25.3 C 64 25.3 63.3 25.33 63.3 25.3 C 62.9 25.3 62.7 25.2 62.7 24.7 C 62.7 24.7 62.7 22.3 62.7 22.3 C 62.7 21.5 62.5 20.8 61.6 20.8 C 60.8 20.8 60.2 21.5 60 22.2 C 59.9 22.4 59.9 22.7 59.9 23 C 59.92 22.95 59.9 25.3 59.9 25.3 L 59.2 25.3 C 59.2 25.3 59.24 22.3 59.2 22.3 C 59.2 21.5 59.1 20.8 58.2 20.8 C 57.4 20.8 56.7 21.5 56.5 22.3 C 56.5 22.5 56.5 22.7 56.5 23 C 56.46 22.95 56.5 25.3 56.5 25.3 L 55.8 25.3 C 55.8 25.3 55.78 21.11 55.8 21.1 Z M 67.1 20.2 C 68.5 20.2 69.2 21.3 69.2 22.5 C 69.21 22.62 69.2 22.8 69.2 22.8 C 69.2 22.8 65.33 22.84 65.3 22.8 C 65.3 24.1 66.2 24.8 67.3 24.8 C 68.2 24.85 68.8 24.2 68.8 24.2 L 69.1 24.7 C 69.1 24.7 68.39 25.45 67.2 25.5 C 65.8 25.5 64.6 24.4 64.6 22.8 C 64.6 21.2 65.7 20.2 67.1 20.2 Z M 68.5 22.3 C 68.5 21.3 67.8 20.8 67.1 20.8 C 66.3 20.8 65.5 21.3 65.4 22.3 C 65.4 22.3 68.5 22.3 68.5 22.3 Z M 70.6 20.9 L 70 20.9 L 70 20.3 L 70.6 20.3 L 70.6 18.9 L 71.3 18.9 L 71.3 20.3 L 72.6 20.3 L 72.6 20.9 L 71.3 20.9 C 71.3 20.9 71.31 23.43 71.3 23.4 C 71.3 24.6 72.1 24.8 72.4 24.8 C 72.58 24.77 72.7 24.7 72.7 24.7 L 72.7 25.4 C 72.7 25.4 72.55 25.37 72.4 25.4 C 71.8 25.4 70.6 25.2 70.6 23.5 C 70.63 23.5 70.6 20.9 70.6 20.9 Z M 76.5 22.2 C 76.46 22.24 76.7 22.2 76.7 22.2 C 76.7 22.2 76.74 22.18 76.7 22.2 C 76.7 21.1 76.4 20.8 75.4 20.8 C 75.2 20.8 74.5 20.8 74.5 21.2 C 74.46 21.19 74.5 21.5 74.5 21.5 L 73.8 21.5 C 73.8 21.5 73.81 21.03 73.8 21 C 73.8 20.3 75 20.2 75.4 20.2 C 77 20.2 77.4 21 77.4 22.1 C 77.4 22.1 77.4 24.5 77.4 24.5 C 77.4 24.7 77.5 24.7 77.6 24.7 C 77.64 24.75 78.1 24.7 78.1 24.7 L 78.1 25.3 C 78.1 25.3 77.37 25.33 77.4 25.3 C 76.9 25.3 76.8 25.1 76.8 24.7 C 76.8 24.5 76.8 24.4 76.8 24.4 C 76.8 24.4 76.8 24.4 76.8 24.4 C 76.8 24.4 76.3 25.5 75.1 25.5 C 74.2 25.5 73.4 25 73.4 24 C 73.4 22.3 75.6 22.2 76.5 22.2 Z M 75.2 24.9 C 76.2 24.9 76.7 23.9 76.7 23 C 76.74 23 76.7 22.8 76.7 22.8 C 76.7 22.8 76.45 22.77 76.4 22.8 C 75.7 22.8 74.1 22.8 74.1 23.9 C 74.1 24.4 74.4 24.9 75.2 24.9 Z M 79.1 19.1 C 79.1 19 79 18.9 78.9 18.9 C 78.89 18.89 78.5 18.9 78.5 18.9 L 78.5 18.3 C 78.5 18.3 79.18 18.31 79.2 18.3 C 79.6 18.3 79.8 18.5 79.8 18.9 C 79.8 18.9 79.8 20.7 79.8 20.7 C 79.79 20.96 79.8 21.1 79.8 21.1 L 79.8 21.1 C 79.8 21.1 80.21 20.19 81.5 20.2 C 82.8 20.2 83.7 21.3 83.7 22.8 C 83.7 24.4 82.7 25.5 81.4 25.5 C 80.22 25.45 79.8 24.5 79.8 24.5 L 79.7 24.5 C 79.7 24.5 79.77 24.66 79.8 24.9 C 79.77 24.9 79.8 25.3 79.8 25.3 L 79.1 25.3 C 79.1 25.3 79.11 19.11 79.1 19.1 Z M 81.4 24.9 C 82.3 24.9 83 24.1 83 22.8 C 83 21.6 82.3 20.8 81.4 20.8 C 80.6 20.8 79.8 21.4 79.8 22.8 C 79.8 23.8 80.3 24.9 81.4 24.9 Z M 87.2 20.2 C 88.6 20.2 89.8 21.3 89.8 22.8 C 89.8 24.3 88.6 25.5 87.2 25.5 C 85.7 25.5 84.5 24.3 84.5 22.8 C 84.5 21.3 85.7 20.2 87.2 20.2 Z M 87.2 24.8 C 88.2 24.8 89.1 24 89.1 22.8 C 89.1 21.7 88.2 20.8 87.2 20.8 C 86.1 20.8 85.2 21.7 85.2 22.8 C 85.2 24 86.1 24.8 87.2 24.8 Z M 91 19.1 C 91 19 90.9 18.9 90.8 18.9 C 90.77 18.89 90.3 18.9 90.3 18.9 L 90.3 18.3 C 90.3 18.3 91.06 18.31 91.1 18.3 C 91.5 18.3 91.7 18.5 91.7 18.9 C 91.7 18.9 91.7 24.5 91.7 24.5 C 91.7 24.7 91.7 24.7 91.9 24.7 C 91.89 24.75 92.3 24.7 92.3 24.7 L 92.3 25.3 C 92.3 25.3 91.6 25.33 91.6 25.3 C 91.2 25.3 91 25.2 91 24.7 C 91 24.7 91 19.1 91 19.1 Z M 93.5 18.3 L 94.1 18.3 L 94.1 19.2 L 93.5 19.2 L 93.5 18.3 Z M 93.5 21.1 C 93.5 21 93.4 20.9 93.3 20.9 C 93.28 20.89 92.9 20.9 92.9 20.9 L 92.9 20.3 C 92.9 20.3 93.57 20.31 93.6 20.3 C 94 20.3 94.2 20.5 94.2 20.9 C 94.2 20.9 94.2 24.5 94.2 24.5 C 94.2 24.7 94.3 24.7 94.4 24.7 C 94.4 24.75 94.8 24.7 94.8 24.7 L 94.8 25.3 C 94.8 25.3 94.11 25.33 94.1 25.3 C 93.7 25.3 93.5 25.2 93.5 24.7 C 93.5 24.7 93.5 21.1 93.5 21.1 Z M 95.5 24.9 C 95.5 24.9 98.31 21.36 98.3 21.4 C 98.5 21.12 98.7 20.9 98.7 20.9 L 98.7 20.9 C 98.7 20.9 98.54 20.9 98.2 20.9 C 98.2 20.9 96.4 20.9 96.4 20.9 C 96.2 20.9 96.1 21 96.1 21.1 C 96.15 21.12 96.1 21.5 96.1 21.5 L 95.5 21.5 C 95.5 21.5 95.51 20.91 95.5 20.9 C 95.5 20.5 95.7 20.3 96.1 20.3 C 96.12 20.31 99.6 20.3 99.6 20.3 L 99.6 20.8 C 99.6 20.8 96.79 24.28 96.8 24.3 C 96.59 24.52 96.4 24.7 96.4 24.7 L 96.4 24.8 C 96.4 24.8 96.55 24.74 96.9 24.7 C 96.9 24.7 99 24.7 99 24.7 C 99.1 24.7 99.2 24.7 99.2 24.5 C 99.18 24.52 99.2 24.1 99.2 24.1 L 99.8 24.1 C 99.8 24.1 99.82 24.73 99.8 24.7 C 99.8 25.2 99.6 25.3 99.2 25.3 C 99.21 25.33 95.5 25.3 95.5 25.3 L 95.5 24.9 Z M 100.9 21.1 C 100.9 21 100.9 20.9 100.7 20.9 C 100.73 20.89 100.3 20.9 100.3 20.9 L 100.3 20.3 C 100.3 20.3 101.01 20.31 101 20.3 C 101.4 20.3 101.6 20.5 101.6 20.9 C 101.6 20.9 101.6 21.1 101.6 21.1 C 101.62 21.29 101.6 21.5 101.6 21.5 C 101.6 21.5 101.62 21.45 101.6 21.5 C 101.9 20.8 102.7 20.2 103.4 20.2 C 104.4 20.2 104.8 20.6 105 21.4 C 105 21.4 105 21.4 105 21.4 C 105.3 20.8 106 20.2 106.9 20.2 C 108.1 20.2 108.5 20.9 108.5 22.1 C 108.5 22.1 108.5 24.5 108.5 24.5 C 108.5 24.7 108.6 24.7 108.8 24.7 C 108.76 24.75 109.2 24.7 109.2 24.7 L 109.2 25.3 C 109.2 25.3 108.47 25.33 108.5 25.3 C 108 25.3 107.9 25.2 107.9 24.7 C 107.9 24.7 107.9 22.3 107.9 22.3 C 107.9 21.5 107.7 20.8 106.8 20.8 C 106 20.8 105.4 21.5 105.2 22.2 C 105.1 22.4 105.1 22.7 105.1 23 C 105.09 22.95 105.1 25.3 105.1 25.3 L 104.4 25.3 C 104.4 25.3 104.41 22.3 104.4 22.3 C 104.4 21.5 104.3 20.8 103.3 20.8 C 102.5 20.8 101.9 21.5 101.7 22.3 C 101.6 22.5 101.6 22.7 101.6 23 C 101.63 22.95 101.6 25.3 101.6 25.3 L 100.9 25.3 C 100.9 25.3 100.95 21.11 100.9 21.1 Z M 110.2 21.1 C 110.2 21 110.2 20.9 110 20.9 C 110.02 20.89 109.6 20.9 109.6 20.9 L 109.6 20.3 C 109.6 20.3 110.31 20.31 110.3 20.3 C 110.7 20.3 110.9 20.5 110.9 20.9 C 110.9 20.9 110.9 23.3 110.9 23.3 C 110.9 24.1 111 24.8 112 24.8 C 113.2 24.8 113.9 23.8 113.9 22.7 C 113.87 22.71 113.9 20.3 113.9 20.3 L 114.5 20.3 C 114.5 20.3 114.55 24.53 114.5 24.5 C 114.5 24.7 114.6 24.7 114.8 24.7 C 114.77 24.75 115.2 24.7 115.2 24.7 L 115.2 25.3 C 115.2 25.3 114.5 25.33 114.5 25.3 C 114.1 25.3 113.9 25.2 113.9 24.8 C 113.9 24.8 113.9 24.5 113.9 24.5 C 113.9 24.3 113.9 24.2 113.9 24.2 C 113.9 24.2 113.9 24.2 113.9 24.2 C 113.7 24.7 113 25.5 111.9 25.5 C 110.7 25.5 110.2 24.8 110.2 23.5 C 110.2 23.5 110.2 21.1 110.2 21.1 Z M 116.1 24.1 C 116.1 24.1 116.66 24.87 117.6 24.9 C 118.2 24.9 118.7 24.6 118.7 24.1 C 118.7 23 115.9 23.2 115.9 21.5 C 115.9 20.6 116.7 20.2 117.7 20.2 C 118.2 20.2 119.2 20.4 119.2 21.1 C 119.21 21.09 119.2 21.5 119.2 21.5 L 118.6 21.5 C 118.6 21.5 118.57 21.28 118.6 21.3 C 118.6 20.9 118 20.8 117.7 20.8 C 117 20.8 116.6 21 116.6 21.5 C 116.6 22.6 119.4 22.4 119.4 24 C 119.4 24.9 118.6 25.5 117.6 25.5 C 116.33 25.45 115.7 24.6 115.7 24.6 L 116.1 24.1 Z " stroke="none" fill="#000"/>  </g>  <g id="Polygon68175">    <path d="M 1.4 2.1 L 0.5 2.1 L 0.5 0.6 C 0.5 0.6 5.03 0.56 5 0.6 C 6.9 0.6 8.2 1.9 8.2 3.8 C 8.2 5.7 6.9 7.1 5 7.1 C 5.03 7.07 3.2 7.1 3.2 7.1 L 3.2 10.5 L 1.4 10.5 L 1.4 2.1 Z M 4.7 5.5 C 5.7 5.5 6.3 4.8 6.3 3.8 C 6.3 2.8 5.7 2.1 4.7 2.1 C 4.72 2.11 3.2 2.1 3.2 2.1 L 3.2 5.5 C 3.2 5.5 4.69 5.5 4.7 5.5 Z M 12.3 3.2 C 14.3 3.2 15.4 4.7 15.4 6.6 C 15.43 6.79 15.4 7.2 15.4 7.2 C 15.4 7.2 10.46 7.24 10.5 7.2 C 10.6 8.5 11.5 9.2 12.6 9.2 C 13.75 9.16 14.6 8.4 14.6 8.4 L 15.3 9.6 C 15.3 9.6 14.25 10.67 12.5 10.7 C 10.1 10.7 8.6 9 8.6 6.9 C 8.6 4.7 10.1 3.2 12.3 3.2 Z M 13.6 6 C 13.6 5.2 13 4.6 12.3 4.6 C 11.4 4.6 10.7 5.1 10.5 6 C 10.5 6 13.6 6 13.6 6 Z M 20.3 3.2 C 21.3 3.2 22.9 3.6 22.9 4.8 C 22.93 4.8 22.9 5.6 22.9 5.6 L 21.4 5.6 C 21.4 5.6 21.36 5.25 21.4 5.2 C 21.4 4.9 20.8 4.7 20.3 4.7 C 19.1 4.7 18.2 5.6 18.2 6.9 C 18.2 8.4 19.3 9.1 20.5 9.1 C 21.67 9.11 22.6 8.1 22.6 8.1 L 23.3 9.4 C 23.3 9.4 22.25 10.67 20.3 10.7 C 17.9 10.7 16.4 9 16.4 6.9 C 16.4 4.9 17.9 3.2 20.3 3.2 Z M 18 0.6 L 19.4 0.6 L 20.1 1.7 L 20.1 1.7 L 20.8 0.6 L 22.1 0.6 L 20.8 2.5 L 19.3 2.5 L 18 0.6 Z M 27.6 3.2 C 29.6 3.2 30.8 4.7 30.8 6.6 C 30.76 6.79 30.7 7.2 30.7 7.2 C 30.7 7.2 25.79 7.24 25.8 7.2 C 25.9 8.5 26.9 9.2 27.9 9.2 C 29.08 9.16 29.9 8.4 29.9 8.4 L 30.7 9.6 C 30.7 9.6 29.58 10.67 27.8 10.7 C 25.4 10.7 24 9 24 6.9 C 24 4.7 25.5 3.2 27.6 3.2 Z M 28.9 6 C 28.9 5.2 28.3 4.6 27.6 4.6 C 26.7 4.6 26 5.1 25.8 6 C 25.8 6 28.9 6 28.9 6 Z M 32.5 5.2 C 32.5 5 32.4 4.9 32.2 4.9 C 32.17 4.87 31.6 4.9 31.6 4.9 L 31.6 3.4 C 31.6 3.4 33.25 3.36 33.2 3.4 C 33.9 3.4 34.2 3.7 34.2 4.2 C 34.2 4.2 34.2 4.4 34.2 4.4 C 34.2 4.5 34.2 4.7 34.2 4.7 C 34.2 4.7 34.2 4.7 34.2 4.7 C 34.5 4.1 35.3 3.2 36.7 3.2 C 38.3 3.2 39.2 4 39.2 5.9 C 39.2 5.9 39.2 8.7 39.2 8.7 C 39.2 8.9 39.3 9 39.5 9 C 39.51 9 40.1 9 40.1 9 L 40.1 10.5 C 40.1 10.5 38.37 10.5 38.4 10.5 C 37.7 10.5 37.4 10.2 37.4 9.5 C 37.4 9.5 37.4 6.3 37.4 6.3 C 37.4 5.4 37.2 4.8 36.3 4.8 C 35.3 4.8 34.6 5.4 34.4 6.3 C 34.3 6.6 34.2 6.9 34.2 7.2 C 34.24 7.22 34.2 10.5 34.2 10.5 L 32.5 10.5 C 32.5 10.5 32.48 5.18 32.5 5.2 Z M 33.9 0.6 L 35.2 0.6 L 35.9 1.7 L 35.9 1.7 L 36.6 0.6 L 38 0.6 L 36.7 2.5 L 35.2 2.5 L 33.9 0.6 Z M 41.1 4.3 C 41.1 4.3 41.63 4.94 42.5 4.9 C 43.1 4.9 43.5 4.6 43.5 4.1 C 43.5 3.6 43 3.2 42.4 3.2 C 42.38 3.23 42 3.2 42 3.2 L 41.8 2.7 C 41.8 2.7 42.74 1.38 42.7 1.4 C 42.94 1.09 43.1 0.9 43.1 0.9 L 43.1 0.9 C 43.1 0.9 42.95 0.95 42.6 0.9 C 42.6 0.9 41.9 0.9 41.9 0.9 C 41.8 0.9 41.7 1 41.7 1.1 C 41.71 1.13 41.7 1.5 41.7 1.5 L 40.7 1.5 C 40.7 1.5 40.74 0.6 40.7 0.6 C 40.7 0.2 40.9 0 41.3 0 C 41.25 0.04 44.4 0 44.4 0 L 44.4 0.7 C 44.4 0.7 43.07 2.37 43.1 2.4 C 43.9 2.5 44.6 3.1 44.6 4.1 C 44.6 5 43.8 5.9 42.5 5.9 C 41.24 5.94 40.5 5.1 40.5 5.1 L 41.1 4.3 Z M 46.6 4.8 L 45.8 6.7 L 45 6.7 L 45.6 4.8 L 46.6 4.8 Z M 47.9 4.3 C 47.9 4.3 48.44 4.94 49.3 4.9 C 49.9 4.9 50.4 4.5 50.4 4 C 50.4 3.3 49.8 3 49.1 3 C 48.47 2.99 48 3.3 48 3.3 L 47.6 3.1 C 47.6 3.1 47.85 0.6 47.8 0.6 C 47.9 0.2 48 0 48.4 0 C 48.4 0 50.5 0 50.5 0 C 50.9 0 51.1 0.2 51.1 0.6 C 51.09 0.6 51.1 1.5 51.1 1.5 L 50.1 1.5 C 50.1 1.5 50.11 1.13 50.1 1.1 C 50.1 1 50 0.9 49.9 0.9 C 49.9 0.9 49 0.9 49 0.9 C 48.9 0.9 48.8 1 48.8 1.1 C 48.8 1.1 48.7 1.9 48.7 1.9 C 48.71 2.08 48.7 2.2 48.7 2.2 L 48.7 2.2 C 48.7 2.2 48.97 2.09 49.3 2.1 C 50.6 2.1 51.4 2.9 51.4 4 C 51.4 5 50.6 5.9 49.3 5.9 C 48.07 5.94 47.4 5.1 47.4 5.1 L 47.9 4.3 Z " stroke="none" fill="#5f0f50"/>  </g></svg>