<?xml version="1.0" standalone="no"?><!DOCTYPE svg PUBLIC "-//W3C//DTD SVG 1.1//EN" "http://www.w3.org/Graphics/SVG/1.1/DTD/svg11.dtd"><svg xmlns="http://www.w3.org/2000/svg" version="1.1" width="113.4px" height="80.3px" viewBox="0 0 113.4 80.3">  <desc>Estetrol („E4“)</desc>  <defs/>  <g id="Polygon70287">    <path d="M 42.8 41.6 C 42.8 41.6 43.9 41.6 43.9 41.6 C 43 43.2 42.5 44.9 42.5 46.8 C 42.5 48.7 43 50.6 44 52.4 C 44 52.4 42.9 52.4 42.9 52.4 C 41.9 50.8 41.3 48.8 41.3 46.8 C 41.3 44.9 41.8 43.1 42.8 41.6 Z M 47.5 49.8 L 48.7 49.8 L 47.9 52.3 L 47 52.3 L 47.5 49.8 Z M 46.9 49.8 L 46.1 52.3 L 45.2 52.3 L 45.7 49.8 L 46.9 49.8 Z M 50.4 43.1 L 49.6 43.1 L 49.6 41.9 C 49.6 41.9 54.96 41.95 55 41.9 C 55.5 41.9 55.8 42.2 55.8 42.8 C 55.79 42.78 55.8 43.9 55.8 43.9 L 54.6 43.9 C 54.6 43.9 54.61 43.35 54.6 43.4 C 54.6 43.2 54.5 43.1 54.3 43.1 C 54.32 43.06 51.7 43.1 51.7 43.1 L 51.7 45.9 L 54.9 45.9 L 54.9 47.1 L 51.7 47.1 C 51.7 47.1 51.71 49.72 51.7 49.7 C 51.7 49.9 51.8 50 52 50 C 52 50 54.7 50 54.7 50 C 54.9 50 55 49.9 55 49.7 C 54.96 49.72 55 49.1 55 49.1 L 56.2 49.1 C 56.2 49.1 56.15 50.29 56.2 50.3 C 56.2 50.9 55.9 51.1 55.3 51.1 C 55.3 51.1 51.2 51.1 51.2 51.1 C 50.7 51.1 50.4 50.9 50.4 50.3 C 50.41 50.29 50.4 43.1 50.4 43.1 Z M 56.7 47.9 L 60.8 41.9 L 62.3 41.9 L 62.3 47.6 L 63.7 47.6 L 63.7 48.7 L 62.3 48.7 L 62.3 51.1 L 61 51.1 L 61 48.7 L 56.7 48.7 L 56.7 47.9 Z M 61 44.4 C 61.01 44 61.1 43.5 61.1 43.5 L 61 43.5 C 61 43.5 60.8 43.92 60.6 44.2 C 60.6 44.2 58.6 47 58.6 47 C 58.33 47.33 58.1 47.6 58.1 47.6 L 58.1 47.6 C 58.1 47.6 58.46 47.58 58.9 47.6 C 58.86 47.58 61 47.6 61 47.6 C 61 47.6 61.01 44.42 61 44.4 Z M 66.9 41.8 L 67.8 41.8 L 67.3 44.3 L 66.1 44.3 L 66.9 41.8 Z M 65.1 41.8 L 66 41.8 L 65.5 44.3 L 64.3 44.3 L 65.1 41.8 Z M 70.5 46.8 C 70.5 44.9 70 43.2 69.1 41.6 C 69.1 41.6 70.2 41.6 70.2 41.6 C 71.2 43.1 71.7 44.9 71.7 46.8 C 71.7 48.8 71.1 50.8 70.1 52.4 C 70.1 52.4 69 52.4 69 52.4 C 70 50.6 70.5 48.7 70.5 46.8 Z " stroke="none" fill="#fff"/>  </g>  <g id="Polygon70286">    <path d="M 35 27.5 L 34.2 27.5 L 34.2 26.3 C 34.2 26.3 39.56 26.35 39.6 26.3 C 40.1 26.3 40.4 26.6 40.4 27.2 C 40.39 27.18 40.4 28.3 40.4 28.3 L 39.2 28.3 C 39.2 28.3 39.21 27.75 39.2 27.8 C 39.2 27.6 39.1 27.5 38.9 27.5 C 38.92 27.46 36.3 27.5 36.3 27.5 L 36.3 30.3 L 39.5 30.3 L 39.5 31.5 L 36.3 31.5 C 36.3 31.5 36.31 34.12 36.3 34.1 C 36.3 34.3 36.4 34.4 36.6 34.4 C 36.6 34.4 39.3 34.4 39.3 34.4 C 39.5 34.4 39.6 34.3 39.6 34.1 C 39.56 34.12 39.6 33.5 39.6 33.5 L 40.8 33.5 C 40.8 33.5 40.76 34.69 40.8 34.7 C 40.8 35.3 40.5 35.5 39.9 35.5 C 39.9 35.5 35.8 35.5 35.8 35.5 C 35.3 35.5 35 35.3 35 34.7 C 35.01 34.69 35 27.5 35 27.5 Z M 42.1 33.7 C 42.1 33.7 42.84 34.65 44 34.7 C 44.7 34.7 45.2 34.4 45.2 33.8 C 45.2 32.6 41.6 32.8 41.6 30.6 C 41.6 29.4 42.7 28.8 44 28.8 C 44.8 28.8 46.2 29.1 46.2 30.1 C 46.2 30.06 46.2 30.7 46.2 30.7 L 45.1 30.7 C 45.1 30.7 45.07 30.36 45.1 30.4 C 45.1 30 44.5 29.8 44.1 29.8 C 43.3 29.8 42.9 30.1 42.9 30.6 C 42.9 31.8 46.5 31.6 46.5 33.8 C 46.5 34.9 45.4 35.7 44 35.7 C 42.28 35.68 41.4 34.5 41.4 34.5 L 42.1 33.7 Z M 48.1 30 L 47.3 30 L 47.3 28.9 L 48.1 28.9 L 48.1 27.1 L 49.4 27.1 L 49.4 28.9 L 50.9 28.9 L 50.9 30 L 49.4 30 C 49.4 30 49.38 32.98 49.4 33 C 49.4 34.3 50.3 34.5 50.8 34.5 C 50.95 34.46 51.1 34.4 51.1 34.4 L 51.1 35.6 C 51.1 35.6 50.9 35.58 50.6 35.6 C 49.8 35.6 48.1 35.3 48.1 33.1 C 48.12 33.12 48.1 30 48.1 30 Z M 55.2 28.8 C 57 28.8 58 30.2 58 31.9 C 58.02 32.04 58 32.4 58 32.4 C 58 32.4 53.18 32.39 53.2 32.4 C 53.3 33.8 54.3 34.6 55.4 34.6 C 56.58 34.59 57.4 33.8 57.4 33.8 L 57.9 34.7 C 57.9 34.7 56.94 35.68 55.4 35.7 C 53.3 35.7 51.9 34.2 51.9 32.2 C 51.9 30.1 53.3 28.8 55.2 28.8 Z M 56.7 31.5 C 56.7 30.4 56 29.8 55.2 29.8 C 54.2 29.8 53.4 30.4 53.2 31.5 C 53.2 31.5 56.7 31.5 56.7 31.5 Z M 59.8 30 L 58.9 30 L 58.9 28.9 L 59.8 28.9 L 59.8 27.1 L 61 27.1 L 61 28.9 L 62.6 28.9 L 62.6 30 L 61 30 C 61 30 61.01 32.98 61 33 C 61 34.3 61.9 34.5 62.4 34.5 C 62.58 34.46 62.7 34.4 62.7 34.4 L 62.7 35.6 C 62.7 35.6 62.53 35.58 62.3 35.6 C 61.4 35.6 59.8 35.3 59.8 33.1 C 59.75 33.12 59.8 30 59.8 30 Z M 64.3 30.3 C 64.3 30.1 64.2 30 64 30 C 63.99 30.03 63.5 30 63.5 30 L 63.5 28.9 C 63.5 28.9 64.65 28.95 64.7 28.9 C 65.2 28.9 65.5 29.2 65.5 29.7 C 65.5 29.7 65.5 30.1 65.5 30.1 C 65.5 30.39 65.5 30.6 65.5 30.6 C 65.5 30.6 65.5 30.58 65.5 30.6 C 65.8 29.6 66.6 28.9 67.6 28.9 C 67.74 28.87 67.9 28.9 67.9 28.9 L 67.9 30.1 C 67.9 30.1 67.74 30.1 67.5 30.1 C 66.7 30.1 66 30.7 65.7 31.7 C 65.6 32 65.5 32.4 65.5 32.8 C 65.53 32.83 65.5 35.5 65.5 35.5 L 64.3 35.5 C 64.3 35.5 64.27 30.31 64.3 30.3 Z M 71.9 28.8 C 73.9 28.8 75.5 30.2 75.5 32.2 C 75.5 34.2 73.9 35.7 71.9 35.7 C 70 35.7 68.4 34.2 68.4 32.2 C 68.4 30.2 70 28.8 71.9 28.8 Z M 71.9 34.6 C 73.2 34.6 74.2 33.6 74.2 32.2 C 74.2 30.9 73.2 29.9 71.9 29.9 C 70.7 29.9 69.7 30.9 69.7 32.2 C 69.7 33.6 70.7 34.6 71.9 34.6 Z M 76.9 27.7 C 76.9 27.5 76.8 27.4 76.6 27.4 C 76.64 27.43 76.1 27.4 76.1 27.4 L 76.1 26.3 C 76.1 26.3 77.35 26.35 77.4 26.3 C 77.9 26.3 78.2 26.6 78.2 27.2 C 78.2 27.2 78.2 34.2 78.2 34.2 C 78.2 34.4 78.3 34.4 78.5 34.4 C 78.47 34.45 79 34.4 79 34.4 L 79 35.5 C 79 35.5 77.75 35.52 77.8 35.5 C 77.2 35.5 76.9 35.3 76.9 34.7 C 76.9 34.7 76.9 27.7 76.9 27.7 Z " stroke="none" fill="#fff"/>  </g></svg>