<?xml version="1.0" standalone="no"?><!DOCTYPE svg PUBLIC "-//W3C//DTD SVG 1.1//EN" "http://www.w3.org/Graphics/SVG/1.1/DTD/svg11.dtd"><svg xmlns="http://www.w3.org/2000/svg" version="1.1" width="55px" height="27.3px" viewBox="0 -3 55 27.3" style="top:-3px">  <desc>Promo</desc>  <defs/>  <g id="Polygon81593">    <path d="M 1.8 2.2 L 0.6 2.2 L 0.6 0.7 C 0.6 0.7 5.93 0.75 5.9 0.7 C 8.1 0.7 9.7 2.2 9.7 4.5 C 9.7 6.8 8.1 8.3 5.9 8.3 C 5.93 8.31 3.5 8.3 3.5 8.3 L 3.5 12.8 L 1.8 12.8 L 1.8 2.2 Z M 5.7 6.9 C 7.1 6.9 7.9 5.9 7.9 4.5 C 7.9 3.1 7.1 2.2 5.7 2.2 C 5.68 2.21 3.5 2.2 3.5 2.2 L 3.5 6.9 C 3.5 6.9 5.66 6.85 5.7 6.9 Z M 11.5 5.9 C 11.5 5.7 11.4 5.6 11.1 5.6 C 11.13 5.56 10.4 5.6 10.4 5.6 L 10.4 4.1 C 10.4 4.1 12 4.15 12 4.1 C 12.7 4.1 13.1 4.5 13.1 5.2 C 13.1 5.2 13.1 5.7 13.1 5.7 C 13.11 6.03 13.1 6.3 13.1 6.3 C 13.1 6.3 13.11 6.29 13.1 6.3 C 13.5 5 14.5 4 15.8 4 C 16.05 4.05 16.3 4.1 16.3 4.1 L 16.3 5.7 C 16.3 5.7 16.05 5.66 15.8 5.7 C 14.7 5.7 13.8 6.4 13.4 7.7 C 13.2 8.2 13.2 8.7 13.2 9.2 C 13.16 9.23 13.2 12.8 13.2 12.8 L 11.5 12.8 C 11.5 12.8 11.51 5.93 11.5 5.9 Z M 21.5 3.9 C 24.1 3.9 26.2 5.8 26.2 8.4 C 26.2 11 24.1 13 21.5 13 C 19 13 16.9 11 16.9 8.4 C 16.9 5.8 19 3.9 21.5 3.9 Z M 21.5 11.5 C 23.2 11.5 24.5 10.2 24.5 8.4 C 24.5 6.6 23.2 5.4 21.5 5.4 C 19.9 5.4 18.6 6.6 18.6 8.4 C 18.6 10.2 19.9 11.5 21.5 11.5 Z M 28.2 5.9 C 28.2 5.7 28.1 5.6 27.9 5.6 C 27.86 5.56 27.2 5.6 27.2 5.6 L 27.2 4.1 C 27.2 4.1 28.75 4.15 28.7 4.1 C 29.5 4.1 29.8 4.5 29.8 5.1 C 29.8 5.1 29.8 5.4 29.8 5.4 C 29.83 5.69 29.8 5.9 29.8 5.9 C 29.8 5.9 29.85 5.92 29.9 5.9 C 30.3 4.9 31.4 3.9 32.8 3.9 C 34.3 3.9 35.1 4.6 35.4 5.9 C 35.4 5.9 35.4 5.9 35.4 5.9 C 35.9 4.9 37.1 3.9 38.5 3.9 C 40.4 3.9 41.3 5 41.3 7.2 C 41.3 7.2 41.3 11 41.3 11 C 41.3 11.2 41.4 11.3 41.7 11.3 C 41.68 11.34 42.4 11.3 42.4 11.3 L 42.4 12.8 C 42.4 12.8 40.75 12.75 40.7 12.8 C 40 12.8 39.7 12.4 39.7 11.7 C 39.7 11.7 39.7 7.6 39.7 7.6 C 39.7 6.4 39.4 5.4 38.1 5.4 C 37 5.4 36 6.5 35.7 7.6 C 35.6 8 35.6 8.4 35.6 8.8 C 35.6 8.82 35.6 12.8 35.6 12.8 L 33.9 12.8 C 33.9 12.8 33.95 7.6 33.9 7.6 C 33.9 6.5 33.8 5.4 32.5 5.4 C 31.2 5.4 30.3 6.5 30 7.7 C 29.9 8.1 29.9 8.4 29.9 8.8 C 29.89 8.82 29.9 12.8 29.9 12.8 L 28.2 12.8 C 28.2 12.8 28.24 5.93 28.2 5.9 Z M 48 3.9 C 50.5 3.9 52.6 5.8 52.6 8.4 C 52.6 11 50.5 13 48 13 C 45.4 13 43.3 11 43.3 8.4 C 43.3 5.8 45.4 3.9 48 3.9 Z M 48 11.5 C 49.6 11.5 50.9 10.2 50.9 8.4 C 50.9 6.6 49.6 5.4 48 5.4 C 46.3 5.4 45 6.6 45 8.4 C 45 10.2 46.3 11.5 48 11.5 Z " stroke="none" fill="#ee3078"/>  </g></svg>