<?xml version="1.0" standalone="no"?><!DOCTYPE svg PUBLIC "-//W3C//DTD SVG 1.1//EN" "http://www.w3.org/Graphics/SVG/1.1/DTD/svg11.dtd"><svg xmlns="http://www.w3.org/2000/svg" version="1.1" width="116px" height="30px" viewBox="0 -4 116 30" style="top:-4px">  <desc>Estr n (E1)1 3</desc>  <defs/>  <g id="Polygon68715">    <path d="M 2.1 2.6 L 0.8 2.6 L 0.8 0.9 C 0.8 0.9 9.06 0.88 9.1 0.9 C 10 0.9 10.3 1.3 10.3 2.2 C 10.34 2.16 10.3 3.9 10.3 3.9 L 8.5 3.9 C 8.5 3.9 8.52 3.04 8.5 3 C 8.5 2.7 8.4 2.6 8.1 2.6 C 8.08 2.6 4.1 2.6 4.1 2.6 L 4.1 7 L 9 7 L 9 8.7 L 4.1 8.7 C 4.1 8.7 4.06 12.84 4.1 12.8 C 4.1 13.1 4.2 13.3 4.5 13.3 C 4.5 13.3 8.6 13.3 8.6 13.3 C 8.9 13.3 9.1 13.1 9.1 12.8 C 9.06 12.84 9.1 11.9 9.1 11.9 L 10.9 11.9 C 10.9 11.9 10.9 13.72 10.9 13.7 C 10.9 14.6 10.5 15 9.6 15 C 9.6 15 3.3 15 3.3 15 C 2.4 15 2.1 14.6 2.1 13.7 C 2.06 13.72 2.1 2.6 2.1 2.6 Z M 12.9 12.2 C 12.9 12.2 14.1 13.66 16 13.7 C 16.9 13.7 17.7 13.2 17.7 12.4 C 17.7 10.5 12.2 10.7 12.2 7.5 C 12.2 5.5 13.9 4.6 16 4.6 C 17.2 4.6 19.3 5.1 19.3 6.6 C 19.28 6.6 19.3 7.6 19.3 7.6 L 17.5 7.6 C 17.5 7.6 17.54 7.06 17.5 7.1 C 17.5 6.5 16.6 6.2 16 6.2 C 14.9 6.2 14.1 6.6 14.1 7.4 C 14.1 9.3 19.7 8.9 19.7 12.3 C 19.7 14.1 18.1 15.2 15.9 15.2 C 13.24 15.24 11.9 13.5 11.9 13.5 L 12.9 12.2 Z M 22.2 6.4 L 20.9 6.4 L 20.9 4.9 L 22.3 4.9 L 22.3 2.1 L 24.2 2.1 L 24.2 4.9 L 26.6 4.9 L 26.6 6.4 L 24.2 6.4 C 24.2 6.4 24.16 11.08 24.2 11.1 C 24.2 13.1 25.6 13.4 26.3 13.4 C 26.58 13.36 26.8 13.3 26.8 13.3 L 26.8 15 C 26.8 15 26.5 15.08 26.1 15.1 C 24.8 15.1 22.2 14.7 22.2 11.3 C 22.22 11.3 22.2 6.4 22.2 6.4 Z M 29.2 7 C 29.2 6.7 29 6.5 28.7 6.5 C 28.74 6.54 27.9 6.5 27.9 6.5 L 27.9 4.9 C 27.9 4.9 29.76 4.88 29.8 4.9 C 30.6 4.9 31.1 5.2 31.1 6.1 C 31.1 6.1 31.1 6.7 31.1 6.7 C 31.06 7.1 31 7.4 31 7.4 C 31 7.4 31.06 7.4 31.1 7.4 C 31.5 5.9 32.7 4.8 34.3 4.8 C 34.52 4.76 34.8 4.8 34.8 4.8 L 34.8 6.7 C 34.8 6.7 34.52 6.66 34.2 6.7 C 33 6.7 31.8 7.5 31.4 9 C 31.2 9.6 31.1 10.2 31.1 10.9 C 31.12 10.86 31.1 15 31.1 15 L 29.2 15 C 29.2 15 29.18 6.98 29.2 7 Z M 41 4.6 C 44 4.6 46.4 6.9 46.4 9.9 C 46.4 13 44 15.2 41 15.2 C 38 15.2 35.5 13 35.5 9.9 C 35.5 6.9 38 4.6 41 4.6 Z M 41 13.6 C 42.9 13.6 44.5 12 44.5 9.9 C 44.5 7.8 42.9 6.3 41 6.3 C 39.1 6.3 37.5 7.8 37.5 9.9 C 37.5 12 39.1 13.6 41 13.6 Z M 41.7 0.9 L 43.6 0.9 L 41.7 3.4 L 40.2 3.4 L 41.7 0.9 Z M 48.9 7 C 48.9 6.7 48.7 6.5 48.4 6.5 C 48.42 6.54 47.6 6.5 47.6 6.5 L 47.6 4.9 C 47.6 4.9 49.46 4.88 49.5 4.9 C 50.3 4.9 50.7 5.3 50.7 6 C 50.7 6 50.7 6.4 50.7 6.4 C 50.74 6.7 50.7 7 50.7 7 C 50.7 7 50.74 6.96 50.7 7 C 51.1 6.1 52.3 4.6 54.5 4.6 C 56.9 4.6 58 5.9 58 8.5 C 58 8.5 58 12.9 58 12.9 C 58 13.2 58.2 13.3 58.5 13.3 C 58.46 13.34 59.3 13.3 59.3 13.3 L 59.3 15 C 59.3 15 57.36 15 57.4 15 C 56.5 15 56.1 14.6 56.1 13.7 C 56.1 13.7 56.1 9 56.1 9 C 56.1 7.5 55.8 6.4 54.2 6.4 C 52.6 6.4 51.4 7.4 51 8.9 C 50.8 9.3 50.8 9.8 50.8 10.3 C 50.8 10.26 50.8 15 50.8 15 L 48.9 15 C 48.9 15 48.86 6.98 48.9 7 Z M 69 0.3 C 69 0.3 70.7 0.3 70.7 0.3 C 69.2 2.8 68.5 5.4 68.5 8.3 C 68.5 11.2 69.3 14.2 70.8 16.9 C 70.8 16.9 69.1 16.9 69.1 16.9 C 67.6 14.6 66.7 11.5 66.7 8.4 C 66.7 5.4 67.5 2.6 69 0.3 Z M 73.7 2.6 L 72.4 2.6 L 72.4 0.9 C 72.4 0.9 80.72 0.88 80.7 0.9 C 81.6 0.9 82 1.3 82 2.2 C 82 2.16 82 3.9 82 3.9 L 80.2 3.9 C 80.2 3.9 80.18 3.04 80.2 3 C 80.2 2.7 80 2.6 79.7 2.6 C 79.74 2.6 75.7 2.6 75.7 2.6 L 75.7 7 L 80.7 7 L 80.7 8.7 L 75.7 8.7 C 75.7 8.7 75.72 12.84 75.7 12.8 C 75.7 13.1 75.9 13.3 76.2 13.3 C 76.2 13.3 80.3 13.3 80.3 13.3 C 80.6 13.3 80.7 13.1 80.7 12.8 C 80.72 12.84 80.7 11.9 80.7 11.9 L 82.6 11.9 C 82.6 11.9 82.56 13.72 82.6 13.7 C 82.6 14.6 82.2 15 81.3 15 C 81.3 15 75 15 75 15 C 74.1 15 73.7 14.6 73.7 13.7 C 73.72 13.72 73.7 2.6 73.7 2.6 Z M 84.3 13.3 L 87.4 13.3 C 87.4 13.3 87.4 4.16 87.4 4.2 C 87.4 3.72 87.4 3.3 87.4 3.3 L 87.4 3.3 C 87.4 3.3 87.22 3.6 86.7 4.1 C 86.72 4.1 85.4 5.4 85.4 5.4 L 84.2 4.2 L 87.6 0.9 L 89.4 0.9 L 89.4 13.3 L 92.5 13.3 L 92.5 15 L 84.3 15 L 84.3 13.3 Z M 96.3 8.3 C 96.3 5.4 95.6 2.8 94.1 0.3 C 94.1 0.3 95.8 0.3 95.8 0.3 C 97.3 2.6 98 5.4 98 8.4 C 98 11.5 97.2 14.6 95.7 16.9 C 95.7 16.9 94 16.9 94 16.9 C 95.5 14.2 96.3 11.2 96.3 8.3 Z M 100.4 7.3 L 102.3 7.3 C 102.3 7.3 102.25 2.02 102.3 2 C 102.25 1.76 102.3 1.5 102.3 1.5 L 102.2 1.5 C 102.2 1.5 102.15 1.69 101.9 2 C 101.86 1.99 101.1 2.7 101.1 2.7 L 100.4 2 L 102.4 0.1 L 103.4 0.1 L 103.4 7.3 L 105.2 7.3 L 105.2 8.3 L 100.4 8.3 L 100.4 7.3 Z M 105.8 4.5 L 109.2 4.5 L 109.2 5.5 L 105.8 5.5 L 105.8 4.5 Z M 110.5 6.5 C 110.5 6.5 111.3 7.38 112.6 7.4 C 113.5 7.4 114.2 6.8 114.2 5.9 C 114.2 5 113.4 4.4 112.4 4.4 C 112.43 4.41 111.8 4.4 111.8 4.4 L 111.6 3.8 C 111.6 3.8 113.32 1.64 113.3 1.6 C 113.56 1.29 113.8 1.1 113.8 1.1 L 113.8 1.1 C 113.8 1.1 113.55 1.11 113.1 1.1 C 113.1 1.1 111.5 1.1 111.5 1.1 C 111.3 1.1 111.3 1.2 111.3 1.4 C 111.25 1.37 111.3 1.9 111.3 1.9 L 110.2 1.9 C 110.2 1.9 110.18 0.85 110.2 0.9 C 110.2 0.3 110.4 0.1 110.9 0.1 C 110.89 0.11 115.2 0.1 115.2 0.1 L 115.2 0.8 C 115.2 0.8 113.06 3.46 113.1 3.5 C 114.1 3.6 115.4 4.3 115.4 5.9 C 115.4 7.2 114.3 8.5 112.6 8.5 C 110.86 8.48 109.9 7.3 109.9 7.3 L 110.5 6.5 Z " stroke="none" fill="#ee3078"/>  </g></svg>