<?xml version="1.0" standalone="no"?><!DOCTYPE svg PUBLIC "-//W3C//DTD SVG 1.1//EN" "http://www.w3.org/Graphics/SVG/1.1/DTD/svg11.dtd"><svg xmlns="http://www.w3.org/2000/svg" version="1.1" width="723px" height="63px" viewBox="0 -4 723 63" style="top:-4px">  <desc>Hormon lna antikoncepcia DRSP only / eur pska t dia (re im u vania 24/4)</desc>  <defs/>  <g id="Polygon78731">    <path d="M 267.4 24.3 C 267.4 24.3 269.1 24.3 269.1 24.3 C 267.6 26.8 266.9 29.4 266.9 32.3 C 266.9 35.2 267.6 38.2 269.2 40.9 C 269.2 40.9 267.4 40.9 267.4 40.9 C 265.9 38.6 265.1 35.5 265.1 32.4 C 265.1 29.4 265.8 26.6 267.4 24.3 Z M 271.7 31 C 271.7 30.7 271.6 30.5 271.3 30.5 C 271.31 30.54 270.5 30.5 270.5 30.5 L 270.5 28.9 C 270.5 28.9 272.33 28.88 272.3 28.9 C 273.2 28.9 273.6 29.2 273.6 30.1 C 273.6 30.1 273.6 30.7 273.6 30.7 C 273.63 31.1 273.6 31.4 273.6 31.4 C 273.6 31.4 273.63 31.4 273.6 31.4 C 274.1 29.9 275.3 28.8 276.8 28.8 C 277.09 28.76 277.3 28.8 277.3 28.8 L 277.3 30.7 C 277.3 30.7 277.09 30.66 276.8 30.7 C 275.5 30.7 274.4 31.5 273.9 33 C 273.7 33.6 273.7 34.2 273.7 34.9 C 273.69 34.86 273.7 39 273.7 39 L 271.7 39 C 271.7 39 271.75 30.98 271.7 31 Z M 283.2 28.6 C 286 28.6 287.5 30.8 287.5 33.4 C 287.55 33.64 287.5 34.2 287.5 34.2 C 287.5 34.2 280.11 34.18 280.1 34.2 C 280.2 36.3 281.8 37.6 283.6 37.6 C 285.33 37.56 286.5 36.4 286.5 36.4 L 287.4 37.8 C 287.4 37.8 285.89 39.24 283.5 39.2 C 280.3 39.2 278.1 36.9 278.1 33.9 C 278.1 30.7 280.3 28.6 283.2 28.6 Z M 285.5 32.8 C 285.5 31.1 284.4 30.2 283.2 30.2 C 281.7 30.2 280.5 31.1 280.2 32.8 C 280.2 32.8 285.5 32.8 285.5 32.8 Z M 289.1 37.9 C 289.1 37.9 294.27 31.48 294.3 31.5 C 294.71 30.94 295.1 30.5 295.1 30.5 L 295.1 30.5 C 295.1 30.5 294.79 30.54 294.1 30.5 C 294.1 30.5 291.4 30.5 291.4 30.5 C 291.1 30.5 290.9 30.7 290.9 31 C 290.93 30.98 290.9 31.7 290.9 31.7 L 289.1 31.7 C 289.1 31.7 289.15 30.16 289.1 30.2 C 289.1 29.3 289.5 28.9 290.4 28.9 C 290.43 28.88 297.7 28.9 297.7 28.9 L 297.7 30 C 297.7 30 292.47 36.42 292.5 36.4 C 292.05 36.92 291.6 37.3 291.6 37.3 L 291.6 37.4 C 291.6 37.4 291.95 37.34 292.6 37.3 C 292.6 37.3 295.8 37.3 295.8 37.3 C 296.1 37.3 296.3 37.2 296.3 36.9 C 296.29 36.9 296.3 36.2 296.3 36.2 L 298 36.2 C 298 36.2 298.05 37.72 298 37.7 C 298 38.6 297.7 39 296.8 39 C 296.77 39 289.1 39 289.1 39 L 289.1 37.9 Z M 291 24.9 L 292.6 24.9 L 293.6 26.5 L 293.6 26.5 L 294.7 24.9 L 296.3 24.9 L 294.5 27.4 L 292.7 27.4 L 291 24.9 Z M 300.4 24.9 L 302.1 24.9 L 302.1 26.9 L 300.4 26.9 L 300.4 24.9 Z M 300.3 31 C 300.3 30.7 300.2 30.5 299.9 30.5 C 299.89 30.54 299.1 30.5 299.1 30.5 L 299.1 28.9 C 299.1 28.9 300.97 28.88 301 28.9 C 301.9 28.9 302.2 29.3 302.2 30.2 C 302.2 30.2 302.2 36.9 302.2 36.9 C 302.2 37.2 302.4 37.3 302.7 37.3 C 302.69 37.34 303.5 37.3 303.5 37.3 L 303.5 39 C 303.5 39 301.61 39 301.6 39 C 300.7 39 300.3 38.6 300.3 37.7 C 300.3 37.7 300.3 31 300.3 31 Z M 305.7 31 C 305.7 30.7 305.6 30.5 305.3 30.5 C 305.29 30.54 304.5 30.5 304.5 30.5 L 304.5 28.9 C 304.5 28.9 306.33 28.88 306.3 28.9 C 307.2 28.9 307.6 29.3 307.6 30 C 307.6 30 307.6 30.4 307.6 30.4 C 307.61 30.7 307.6 31 307.6 31 C 307.6 31 307.63 30.96 307.6 31 C 308.1 29.8 309.5 28.6 311.1 28.6 C 312.8 28.6 313.8 29.4 314.1 30.9 C 314.1 30.9 314.2 30.9 314.2 30.9 C 314.7 29.7 316.1 28.6 317.8 28.6 C 320 28.6 321.1 29.9 321.1 32.5 C 321.1 32.5 321.1 36.9 321.1 36.9 C 321.1 37.2 321.3 37.3 321.5 37.3 C 321.55 37.34 322.4 37.3 322.4 37.3 L 322.4 39 C 322.4 39 320.45 39 320.4 39 C 319.5 39 319.2 38.6 319.2 37.7 C 319.2 37.7 319.2 32.9 319.2 32.9 C 319.2 31.5 318.9 30.4 317.4 30.4 C 316 30.4 314.9 31.6 314.5 33 C 314.4 33.4 314.4 33.9 314.4 34.4 C 314.39 34.38 314.4 39 314.4 39 L 312.4 39 C 312.4 39 312.45 32.94 312.4 32.9 C 312.4 31.6 312.2 30.4 310.7 30.4 C 309.2 30.4 308.2 31.6 307.8 33.1 C 307.7 33.5 307.7 33.9 307.7 34.4 C 307.67 34.38 307.7 39 307.7 39 L 305.7 39 C 305.7 39 305.73 30.98 305.7 31 Z M 329.8 31 C 329.8 30.7 329.6 30.5 329.4 30.5 C 329.37 30.54 328.5 30.5 328.5 30.5 L 328.5 28.9 C 328.5 28.9 330.45 28.88 330.4 28.9 C 331.4 28.9 331.7 29.3 331.7 30.1 C 331.7 30.1 331.7 34.9 331.7 34.9 C 331.7 36.3 332 37.4 333.6 37.4 C 335.7 37.4 336.9 35.6 336.9 33.6 C 336.93 33.62 336.9 28.9 336.9 28.9 L 338.9 28.9 C 338.9 28.9 338.87 36.9 338.9 36.9 C 338.9 37.2 339 37.3 339.3 37.3 C 339.31 37.34 340.1 37.3 340.1 37.3 L 340.1 39 C 340.1 39 338.27 39 338.3 39 C 337.4 39 337 38.6 337 37.9 C 337 37.9 337 37.5 337 37.5 C 336.99 37.18 337 36.9 337 36.9 C 337 36.9 336.97 36.92 337 36.9 C 336.5 37.9 335.2 39.2 333.2 39.2 C 331 39.2 329.8 38 329.8 35.4 C 329.8 35.4 329.8 31 329.8 31 Z M 341.2 37.9 C 341.2 37.9 346.41 31.48 346.4 31.5 C 346.85 30.94 347.2 30.5 347.2 30.5 L 347.2 30.5 C 347.2 30.5 346.93 30.54 346.3 30.5 C 346.3 30.5 343.5 30.5 343.5 30.5 C 343.2 30.5 343.1 30.7 343.1 31 C 343.07 30.98 343.1 31.7 343.1 31.7 L 341.3 31.7 C 341.3 31.7 341.29 30.16 341.3 30.2 C 341.3 29.3 341.7 28.9 342.6 28.9 C 342.57 28.88 349.8 28.9 349.8 28.9 L 349.8 30 C 349.8 30 344.61 36.42 344.6 36.4 C 344.19 36.92 343.8 37.3 343.8 37.3 L 343.8 37.4 C 343.8 37.4 344.09 37.34 344.7 37.3 C 344.7 37.3 348 37.3 348 37.3 C 348.3 37.3 348.4 37.2 348.4 36.9 C 348.43 36.9 348.4 36.2 348.4 36.2 L 350.2 36.2 C 350.2 36.2 350.19 37.72 350.2 37.7 C 350.2 38.6 349.8 39 348.9 39 C 348.91 39 341.2 39 341.2 39 L 341.2 37.9 Z M 343.1 24.9 L 344.7 24.9 L 345.7 26.5 L 345.8 26.5 L 346.8 24.9 L 348.4 24.9 L 346.7 27.4 L 344.9 27.4 L 343.1 24.9 Z M 352.5 31 C 352.5 30.7 352.3 30.5 352 30.5 C 352.03 30.54 351.2 30.5 351.2 30.5 L 351.2 28.9 C 351.2 28.9 353.13 28.88 353.1 28.9 C 354 28.9 354.4 29.3 354.4 30.2 C 354.4 30.2 354.4 36.9 354.4 36.9 C 354.4 37.2 354.6 37.3 354.8 37.3 C 354.85 37.34 355.7 37.3 355.7 37.3 L 355.7 39 C 355.7 39 353.77 39 353.8 39 C 352.8 39 352.5 38.6 352.5 37.7 C 352.5 37.7 352.5 31 352.5 31 Z M 354 24.9 L 355.9 24.9 L 354 27.4 L 352.5 27.4 L 354 24.9 Z M 357.2 30.9 C 357.1 30.6 356.9 30.5 356.6 30.5 C 356.57 30.54 356.4 30.5 356.4 30.5 L 356.4 28.9 C 356.4 28.9 357.37 28.88 357.4 28.9 C 358.3 28.9 358.6 29.1 358.9 29.9 C 358.9 29.9 361.1 35.7 361.1 35.7 C 361.29 36.28 361.4 37 361.4 37 L 361.5 37 C 361.5 37 361.65 36.28 361.8 35.7 C 361.8 35.7 364 29.9 364 29.9 C 364.3 29.1 364.7 28.9 365.5 28.9 C 365.55 28.88 366.5 28.9 366.5 28.9 L 366.5 30.5 C 366.5 30.5 366.29 30.54 366.3 30.5 C 365.9 30.5 365.7 30.6 365.6 30.9 C 365.63 30.94 362.5 39 362.5 39 L 360.3 39 C 360.3 39 357.19 30.94 357.2 30.9 Z M 373.5 32.7 C 373.49 32.7 373.9 32.7 373.9 32.7 C 373.9 32.7 373.93 32.6 373.9 32.6 C 373.9 30.8 373.3 30.2 371.7 30.2 C 371.2 30.2 370 30.3 370 31 C 370.03 30.96 370 31.5 370 31.5 L 368.2 31.5 C 368.2 31.5 368.21 30.54 368.2 30.5 C 368.2 28.9 370.7 28.6 371.7 28.6 C 375 28.6 375.9 30.4 375.9 32.6 C 375.9 32.6 375.9 36.9 375.9 36.9 C 375.9 37.2 376 37.3 376.3 37.3 C 376.31 37.34 377.1 37.3 377.1 37.3 L 377.1 39 C 377.1 39 375.31 39 375.3 39 C 374.4 39 374 38.6 374 37.8 C 374.05 37.5 374.1 37.2 374.1 37.2 L 374 37.2 C 374 37.2 373.25 39.24 370.8 39.2 C 369.1 39.2 367.4 38.2 367.4 36.2 C 367.4 32.9 371.8 32.7 373.5 32.7 Z M 371.2 37.7 C 372.9 37.7 373.9 36 373.9 34.5 C 373.95 34.46 373.9 34.1 373.9 34.1 C 373.9 34.1 373.45 34.12 373.4 34.1 C 372 34.1 369.3 34.2 369.3 36.1 C 369.3 36.9 370 37.7 371.2 37.7 Z M 379.2 31 C 379.2 30.7 379.1 30.5 378.8 30.5 C 378.79 30.54 378 30.5 378 30.5 L 378 28.9 C 378 28.9 379.83 28.88 379.8 28.9 C 380.7 28.9 381.1 29.3 381.1 30 C 381.1 30 381.1 30.4 381.1 30.4 C 381.11 30.7 381.1 31 381.1 31 C 381.1 31 381.11 30.96 381.1 31 C 381.5 30.1 382.7 28.6 384.9 28.6 C 387.3 28.6 388.4 29.9 388.4 32.5 C 388.4 32.5 388.4 36.9 388.4 36.9 C 388.4 37.2 388.5 37.3 388.8 37.3 C 388.83 37.34 389.6 37.3 389.6 37.3 L 389.6 39 C 389.6 39 387.73 39 387.7 39 C 386.8 39 386.4 38.6 386.4 37.7 C 386.4 37.7 386.4 33 386.4 33 C 386.4 31.5 386.2 30.4 384.5 30.4 C 383 30.4 381.7 31.4 381.3 32.9 C 381.2 33.3 381.2 33.8 381.2 34.3 C 381.17 34.26 381.2 39 381.2 39 L 379.2 39 C 379.2 39 379.23 30.98 379.2 31 Z M 391.9 24.9 L 393.6 24.9 L 393.6 26.9 L 391.9 26.9 L 391.9 24.9 Z M 391.8 31 C 391.8 30.7 391.7 30.5 391.4 30.5 C 391.41 30.54 390.6 30.5 390.6 30.5 L 390.6 28.9 C 390.6 28.9 392.49 28.88 392.5 28.9 C 393.4 28.9 393.8 29.3 393.8 30.2 C 393.8 30.2 393.8 36.9 393.8 36.9 C 393.8 37.2 393.9 37.3 394.2 37.3 C 394.21 37.34 395 37.3 395 37.3 L 395 39 C 395 39 393.13 39 393.1 39 C 392.2 39 391.8 38.6 391.8 37.7 C 391.8 37.7 391.8 31 391.8 31 Z M 402.4 32.7 C 402.39 32.7 402.8 32.7 402.8 32.7 C 402.8 32.7 402.83 32.6 402.8 32.6 C 402.8 30.8 402.2 30.2 400.6 30.2 C 400.1 30.2 398.9 30.3 398.9 31 C 398.93 30.96 398.9 31.5 398.9 31.5 L 397.1 31.5 C 397.1 31.5 397.11 30.54 397.1 30.5 C 397.1 28.9 399.6 28.6 400.6 28.6 C 403.9 28.6 404.8 30.4 404.8 32.6 C 404.8 32.6 404.8 36.9 404.8 36.9 C 404.8 37.2 404.9 37.3 405.2 37.3 C 405.21 37.34 406 37.3 406 37.3 L 406 39 C 406 39 404.21 39 404.2 39 C 403.3 39 402.9 38.6 402.9 37.8 C 402.95 37.5 403 37.2 403 37.2 L 402.9 37.2 C 402.9 37.2 402.15 39.24 399.7 39.2 C 398 39.2 396.3 38.2 396.3 36.2 C 396.3 32.9 400.7 32.7 402.4 32.7 Z M 400.1 37.7 C 401.8 37.7 402.8 36 402.8 34.5 C 402.85 34.46 402.8 34.1 402.8 34.1 C 402.8 34.1 402.35 34.12 402.3 34.1 C 400.9 34.1 398.2 34.2 398.2 36.1 C 398.2 36.9 398.9 37.7 400.1 37.7 Z M 419.7 28.7 C 419.7 27.4 418.8 26.5 417.3 26.5 C 416 26.5 415.1 27.1 415.1 27.8 C 415.09 27.82 415.1 28.4 415.1 28.4 L 413.2 28.4 C 413.2 28.4 413.25 27.24 413.2 27.2 C 413.2 25.4 415.7 24.6 417.3 24.6 C 419.9 24.6 421.8 26.3 421.8 28.7 C 421.8 33.6 414.6 33.6 414.6 36.9 C 414.6 37.2 414.8 37.3 415.1 37.3 C 415.1 37.3 420.1 37.3 420.1 37.3 C 420.4 37.3 420.6 37.1 420.6 36.8 C 420.59 36.84 420.6 35.9 420.6 35.9 L 422.4 35.9 C 422.4 35.9 422.43 37.72 422.4 37.7 C 422.4 38.6 422 39 421.1 39 C 421.1 39 413.9 39 413.9 39 C 412.8 39 412.6 38.5 412.6 37.4 C 412.6 32.2 419.7 32.5 419.7 28.7 Z M 423.2 34 L 429.6 24.9 L 431.8 24.9 L 431.8 33.5 L 434 33.5 L 434 35.3 L 431.8 35.3 L 431.8 39 L 429.8 39 L 429.8 35.3 L 423.2 35.3 L 423.2 34 Z M 429.9 28.7 C 429.87 28.04 429.9 27.2 429.9 27.2 L 429.9 27.2 C 429.9 27.2 429.55 27.92 429.2 28.4 C 429.2 28.4 426.1 32.7 426.1 32.7 C 425.75 33.16 425.4 33.6 425.4 33.6 L 425.4 33.6 C 425.4 33.6 425.95 33.54 426.6 33.5 C 426.57 33.54 429.9 33.5 429.9 33.5 C 429.9 33.5 429.87 28.68 429.9 28.7 Z M 439.5 24.1 L 441.2 24.1 L 436.1 39.8 L 434.4 39.8 L 439.5 24.1 Z M 441.6 34 L 448 24.9 L 450.3 24.9 L 450.3 33.5 L 452.5 33.5 L 452.5 35.3 L 450.3 35.3 L 450.3 39 L 448.3 39 L 448.3 35.3 L 441.6 35.3 L 441.6 34 Z M 448.3 28.7 C 448.29 28.04 448.4 27.2 448.4 27.2 L 448.3 27.2 C 448.3 27.2 447.97 27.92 447.6 28.4 C 447.6 28.4 444.5 32.7 444.5 32.7 C 444.17 33.16 443.8 33.6 443.8 33.6 L 443.8 33.6 C 443.8 33.6 444.37 33.54 445 33.5 C 444.99 33.54 448.3 33.5 448.3 33.5 C 448.3 33.5 448.29 28.68 448.3 28.7 Z M 456 32.3 C 456 29.4 455.2 26.8 453.8 24.3 C 453.8 24.3 455.5 24.3 455.5 24.3 C 457 26.6 457.7 29.4 457.7 32.4 C 457.7 35.5 456.9 38.6 455.4 40.9 C 455.4 40.9 453.7 40.9 453.7 40.9 C 455.2 38.2 456 35.2 456 32.3 Z " stroke="none" fill="#ee3078"/>  </g>  <g id="Polygon78730">    <path d="M 102.1 3 C 102.1 2.7 102 2.6 101.7 2.6 C 101.69 2.6 100.8 2.6 100.8 2.6 L 100.8 0.9 C 100.8 0.9 102.85 0.88 102.9 0.9 C 103.8 0.9 104.1 1.3 104.1 2.2 C 104.13 2.16 104.1 7.1 104.1 7.1 L 111.3 7.1 C 111.3 7.1 111.31 2.16 111.3 2.2 C 111.3 1.3 111.7 0.9 112.6 0.9 C 112.59 0.88 114.6 0.9 114.6 0.9 L 114.6 2.6 C 114.6 2.6 113.75 2.6 113.8 2.6 C 113.5 2.6 113.3 2.7 113.3 3 C 113.31 3.04 113.3 15 113.3 15 L 111.3 15 L 111.3 8.8 L 104.1 8.8 L 104.1 15 L 102.1 15 C 102.1 15 102.13 3.04 102.1 3 Z M 121.4 4.6 C 124.5 4.6 126.9 6.9 126.9 9.9 C 126.9 13 124.5 15.2 121.4 15.2 C 118.4 15.2 116 13 116 9.9 C 116 6.9 118.4 4.6 121.4 4.6 Z M 121.4 13.6 C 123.4 13.6 124.9 12 124.9 9.9 C 124.9 7.8 123.4 6.3 121.4 6.3 C 119.5 6.3 118 7.8 118 9.9 C 118 12 119.5 13.6 121.4 13.6 Z M 129.3 7 C 129.3 6.7 129.2 6.5 128.9 6.5 C 128.87 6.54 128.1 6.5 128.1 6.5 L 128.1 4.9 C 128.1 4.9 129.89 4.88 129.9 4.9 C 130.8 4.9 131.2 5.2 131.2 6.1 C 131.2 6.1 131.2 6.7 131.2 6.7 C 131.19 7.1 131.2 7.4 131.2 7.4 C 131.2 7.4 131.19 7.4 131.2 7.4 C 131.7 5.9 132.8 4.8 134.4 4.8 C 134.65 4.76 134.9 4.8 134.9 4.8 L 134.9 6.7 C 134.9 6.7 134.65 6.66 134.3 6.7 C 133.1 6.7 132 7.5 131.5 9 C 131.3 9.6 131.3 10.2 131.3 10.9 C 131.25 10.86 131.3 15 131.3 15 L 129.3 15 C 129.3 15 129.31 6.98 129.3 7 Z M 137.2 7 C 137.2 6.7 137 6.5 136.8 6.5 C 136.75 6.54 135.9 6.5 135.9 6.5 L 135.9 4.9 C 135.9 4.9 137.79 4.88 137.8 4.9 C 138.7 4.9 139.1 5.3 139.1 6 C 139.1 6 139.1 6.4 139.1 6.4 C 139.07 6.7 139.1 7 139.1 7 C 139.1 7 139.09 6.96 139.1 7 C 139.6 5.8 141 4.6 142.6 4.6 C 144.3 4.6 145.3 5.4 145.6 6.9 C 145.6 6.9 145.6 6.9 145.6 6.9 C 146.2 5.7 147.6 4.6 149.2 4.6 C 151.5 4.6 152.6 5.9 152.6 8.5 C 152.6 8.5 152.6 12.9 152.6 12.9 C 152.6 13.2 152.7 13.3 153 13.3 C 153.01 13.34 153.8 13.3 153.8 13.3 L 153.8 15 C 153.8 15 151.91 15 151.9 15 C 151 15 150.6 14.6 150.6 13.7 C 150.6 13.7 150.6 8.9 150.6 8.9 C 150.6 7.5 150.4 6.4 148.9 6.4 C 147.5 6.4 146.4 7.6 146 9 C 145.9 9.4 145.9 9.9 145.9 10.4 C 145.85 10.38 145.9 15 145.9 15 L 143.9 15 C 143.9 15 143.91 8.94 143.9 8.9 C 143.9 7.6 143.7 6.4 142.2 6.4 C 140.7 6.4 139.7 7.6 139.3 9.1 C 139.2 9.5 139.1 9.9 139.1 10.4 C 139.13 10.38 139.1 15 139.1 15 L 137.2 15 C 137.2 15 137.19 6.98 137.2 7 Z M 160.4 4.6 C 163.4 4.6 165.9 6.9 165.9 9.9 C 165.9 13 163.4 15.2 160.4 15.2 C 157.4 15.2 155 13 155 9.9 C 155 6.9 157.4 4.6 160.4 4.6 Z M 160.4 13.6 C 162.3 13.6 163.9 12 163.9 9.9 C 163.9 7.8 162.3 6.3 160.4 6.3 C 158.5 6.3 156.9 7.8 156.9 9.9 C 156.9 12 158.5 13.6 160.4 13.6 Z M 168.3 7 C 168.3 6.7 168.1 6.5 167.8 6.5 C 167.83 6.54 167 6.5 167 6.5 L 167 4.9 C 167 4.9 168.87 4.88 168.9 4.9 C 169.7 4.9 170.2 5.3 170.2 6 C 170.2 6 170.2 6.4 170.2 6.4 C 170.15 6.7 170.1 7 170.1 7 C 170.1 7 170.15 6.96 170.2 7 C 170.6 6.1 171.8 4.6 174 4.6 C 176.4 4.6 177.4 5.9 177.4 8.5 C 177.4 8.5 177.4 12.9 177.4 12.9 C 177.4 13.2 177.6 13.3 177.9 13.3 C 177.87 13.34 178.7 13.3 178.7 13.3 L 178.7 15 C 178.7 15 176.77 15 176.8 15 C 175.9 15 175.5 14.6 175.5 13.7 C 175.5 13.7 175.5 9 175.5 9 C 175.5 7.5 175.2 6.4 173.6 6.4 C 172 6.4 170.8 7.4 170.4 8.9 C 170.3 9.3 170.2 9.8 170.2 10.3 C 170.21 10.26 170.2 15 170.2 15 L 168.3 15 C 168.3 15 168.27 6.98 168.3 7 Z M 185.9 8.7 C 185.93 8.7 186.4 8.7 186.4 8.7 C 186.4 8.7 186.37 8.6 186.4 8.6 C 186.4 6.8 185.7 6.2 184.1 6.2 C 183.7 6.2 182.5 6.3 182.5 7 C 182.47 6.96 182.5 7.5 182.5 7.5 L 180.7 7.5 C 180.7 7.5 180.65 6.54 180.7 6.5 C 180.7 4.9 183.2 4.6 184.2 4.6 C 187.4 4.6 188.3 6.4 188.3 8.6 C 188.3 8.6 188.3 12.9 188.3 12.9 C 188.3 13.2 188.5 13.3 188.8 13.3 C 188.75 13.34 189.6 13.3 189.6 13.3 L 189.6 15 C 189.6 15 187.75 15 187.8 15 C 186.9 15 186.5 14.6 186.5 13.8 C 186.49 13.5 186.5 13.2 186.5 13.2 L 186.5 13.2 C 186.5 13.2 185.69 15.24 183.3 15.2 C 181.5 15.2 179.8 14.2 179.8 12.2 C 179.8 8.9 184.2 8.7 185.9 8.7 Z M 183.7 13.7 C 185.3 13.7 186.4 12 186.4 10.5 C 186.39 10.46 186.4 10.1 186.4 10.1 C 186.4 10.1 185.89 10.12 185.9 10.1 C 184.4 10.1 181.8 10.2 181.8 12.1 C 181.8 12.9 182.4 13.7 183.7 13.7 Z M 185.1 0.9 L 187 0.9 L 185.1 3.4 L 183.6 3.4 L 185.1 0.9 Z M 191.6 3 C 191.6 2.7 191.5 2.5 191.2 2.5 C 191.19 2.54 190.4 2.5 190.4 2.5 L 190.4 0.9 C 190.4 0.9 192.29 0.88 192.3 0.9 C 193.2 0.9 193.6 1.3 193.6 2.2 C 193.6 2.2 193.6 12.9 193.6 12.9 C 193.6 13.2 193.7 13.3 194 13.3 C 194.01 13.34 194.8 13.3 194.8 13.3 L 194.8 15 C 194.8 15 192.91 15 192.9 15 C 192 15 191.6 14.6 191.6 13.7 C 191.6 13.7 191.6 3 191.6 3 Z M 197 7 C 197 6.7 196.9 6.5 196.6 6.5 C 196.59 6.54 195.8 6.5 195.8 6.5 L 195.8 4.9 C 195.8 4.9 197.63 4.88 197.6 4.9 C 198.5 4.9 198.9 5.3 198.9 6 C 198.9 6 198.9 6.4 198.9 6.4 C 198.91 6.7 198.9 7 198.9 7 C 198.9 7 198.91 6.96 198.9 7 C 199.3 6.1 200.5 4.6 202.7 4.6 C 205.1 4.6 206.2 5.9 206.2 8.5 C 206.2 8.5 206.2 12.9 206.2 12.9 C 206.2 13.2 206.3 13.3 206.6 13.3 C 206.63 13.34 207.4 13.3 207.4 13.3 L 207.4 15 C 207.4 15 205.53 15 205.5 15 C 204.6 15 204.2 14.6 204.2 13.7 C 204.2 13.7 204.2 9 204.2 9 C 204.2 7.5 204 6.4 202.3 6.4 C 200.8 6.4 199.5 7.4 199.1 8.9 C 199 9.3 199 9.8 199 10.3 C 198.97 10.26 199 15 199 15 L 197 15 C 197 15 197.03 6.98 197 7 Z M 214.7 8.7 C 214.69 8.7 215.1 8.7 215.1 8.7 C 215.1 8.7 215.13 8.6 215.1 8.6 C 215.1 6.8 214.5 6.2 212.9 6.2 C 212.4 6.2 211.2 6.3 211.2 7 C 211.23 6.96 211.2 7.5 211.2 7.5 L 209.4 7.5 C 209.4 7.5 209.41 6.54 209.4 6.5 C 209.4 4.9 211.9 4.6 212.9 4.6 C 216.2 4.6 217.1 6.4 217.1 8.6 C 217.1 8.6 217.1 12.9 217.1 12.9 C 217.1 13.2 217.2 13.3 217.5 13.3 C 217.51 13.34 218.3 13.3 218.3 13.3 L 218.3 15 C 218.3 15 216.51 15 216.5 15 C 215.6 15 215.2 14.6 215.2 13.8 C 215.25 13.5 215.3 13.2 215.3 13.2 L 215.2 13.2 C 215.2 13.2 214.45 15.24 212 15.2 C 210.3 15.2 208.6 14.2 208.6 12.2 C 208.6 8.9 213 8.7 214.7 8.7 Z M 212.4 13.7 C 214.1 13.7 215.1 12 215.1 10.5 C 215.15 10.46 215.1 10.1 215.1 10.1 C 215.1 10.1 214.65 10.12 214.6 10.1 C 213.2 10.1 210.5 10.2 210.5 12.1 C 210.5 12.9 211.2 13.7 212.4 13.7 Z M 230.9 8.7 C 230.95 8.7 231.4 8.7 231.4 8.7 C 231.4 8.7 231.39 8.6 231.4 8.6 C 231.4 6.8 230.7 6.2 229.1 6.2 C 228.7 6.2 227.5 6.3 227.5 7 C 227.49 6.96 227.5 7.5 227.5 7.5 L 225.7 7.5 C 225.7 7.5 225.67 6.54 225.7 6.5 C 225.7 4.9 228.2 4.6 229.2 4.6 C 232.4 4.6 233.3 6.4 233.3 8.6 C 233.3 8.6 233.3 12.9 233.3 12.9 C 233.3 13.2 233.5 13.3 233.8 13.3 C 233.77 13.34 234.6 13.3 234.6 13.3 L 234.6 15 C 234.6 15 232.77 15 232.8 15 C 231.9 15 231.5 14.6 231.5 13.8 C 231.51 13.5 231.5 13.2 231.5 13.2 L 231.5 13.2 C 231.5 13.2 230.71 15.24 228.3 15.2 C 226.5 15.2 224.8 14.2 224.8 12.2 C 224.8 8.9 229.2 8.7 230.9 8.7 Z M 228.7 13.7 C 230.3 13.7 231.4 12 231.4 10.5 C 231.41 10.46 231.4 10.1 231.4 10.1 C 231.4 10.1 230.91 10.12 230.9 10.1 C 229.4 10.1 226.8 10.2 226.8 12.1 C 226.8 12.9 227.4 13.7 228.7 13.7 Z M 236.7 7 C 236.7 6.7 236.5 6.5 236.2 6.5 C 236.25 6.54 235.4 6.5 235.4 6.5 L 235.4 4.9 C 235.4 4.9 237.29 4.88 237.3 4.9 C 238.1 4.9 238.6 5.3 238.6 6 C 238.6 6 238.6 6.4 238.6 6.4 C 238.57 6.7 238.5 7 238.5 7 C 238.5 7 238.57 6.96 238.6 7 C 239 6.1 240.2 4.6 242.4 4.6 C 244.8 4.6 245.8 5.9 245.8 8.5 C 245.8 8.5 245.8 12.9 245.8 12.9 C 245.8 13.2 246 13.3 246.3 13.3 C 246.29 13.34 247.1 13.3 247.1 13.3 L 247.1 15 C 247.1 15 245.19 15 245.2 15 C 244.3 15 243.9 14.6 243.9 13.7 C 243.9 13.7 243.9 9 243.9 9 C 243.9 7.5 243.6 6.4 242 6.4 C 240.4 6.4 239.2 7.4 238.8 8.9 C 238.7 9.3 238.6 9.8 238.6 10.3 C 238.63 10.26 238.6 15 238.6 15 L 236.7 15 C 236.7 15 236.69 6.98 236.7 7 Z M 249.3 6.4 L 248 6.4 L 248 4.9 L 249.3 4.9 L 249.3 2.1 L 251.2 2.1 L 251.2 4.9 L 253.6 4.9 L 253.6 6.4 L 251.2 6.4 C 251.2 6.4 251.23 11.08 251.2 11.1 C 251.2 13.1 252.6 13.4 253.4 13.4 C 253.65 13.36 253.8 13.3 253.8 13.3 L 253.8 15 C 253.8 15 253.57 15.08 253.1 15.1 C 251.9 15.1 249.3 14.7 249.3 11.3 C 249.29 11.3 249.3 6.4 249.3 6.4 Z M 256.4 0.9 L 258.1 0.9 L 258.1 2.9 L 256.4 2.9 L 256.4 0.9 Z M 256.3 7 C 256.3 6.7 256.2 6.5 255.9 6.5 C 255.91 6.54 255.1 6.5 255.1 6.5 L 255.1 4.9 C 255.1 4.9 256.99 4.88 257 4.9 C 257.9 4.9 258.3 5.3 258.3 6.2 C 258.3 6.2 258.3 12.9 258.3 12.9 C 258.3 13.2 258.4 13.3 258.7 13.3 C 258.71 13.34 259.5 13.3 259.5 13.3 L 259.5 15 C 259.5 15 257.63 15 257.6 15 C 256.7 15 256.3 14.6 256.3 13.7 C 256.3 13.7 256.3 7 256.3 7 Z M 261.7 3 C 261.7 2.7 261.5 2.5 261.2 2.5 C 261.23 2.54 260.4 2.5 260.4 2.5 L 260.4 0.9 C 260.4 0.9 262.33 0.88 262.3 0.9 C 263.2 0.9 263.6 1.1 263.6 2 C 263.61 2.04 263.6 8.6 263.6 8.6 C 263.6 8.6 264.51 8.6 264.5 8.6 C 264.9 8.6 265.3 8.5 265.6 8.2 C 265.57 8.16 267.9 4.9 267.9 4.9 L 270.1 4.9 C 270.1 4.9 267.39 8.64 267.4 8.6 C 266.93 9.26 266.6 9.4 266.6 9.4 L 266.6 9.4 C 266.6 9.4 266.97 9.56 267.3 10.2 C 267.3 10.2 268.8 12.9 268.8 12.9 C 269 13.3 269.2 13.3 269.7 13.3 C 269.67 13.34 270.3 13.3 270.3 13.3 L 270.3 15 C 270.3 15 268.89 15 268.9 15 C 267.9 15 267.6 14.8 267.2 14.1 C 267.2 14.1 265.4 10.7 265.4 10.7 C 265.1 10.3 264.7 10.2 264.4 10.2 C 264.37 10.24 263.6 10.2 263.6 10.2 L 263.6 15 L 261.7 15 C 261.7 15 261.67 2.98 261.7 3 Z M 276.5 4.6 C 279.5 4.6 282 6.9 282 9.9 C 282 13 279.5 15.2 276.5 15.2 C 273.5 15.2 271.1 13 271.1 9.9 C 271.1 6.9 273.5 4.6 276.5 4.6 Z M 276.5 13.6 C 278.4 13.6 280 12 280 9.9 C 280 7.8 278.4 6.3 276.5 6.3 C 274.6 6.3 273.1 7.8 273.1 9.9 C 273.1 12 274.6 13.6 276.5 13.6 Z M 284.4 7 C 284.4 6.7 284.2 6.5 284 6.5 C 283.97 6.54 283.1 6.5 283.1 6.5 L 283.1 4.9 C 283.1 4.9 285.01 4.88 285 4.9 C 285.9 4.9 286.3 5.3 286.3 6 C 286.3 6 286.3 6.4 286.3 6.4 C 286.29 6.7 286.2 7 286.2 7 C 286.2 7 286.29 6.96 286.3 7 C 286.7 6.1 287.9 4.6 290.1 4.6 C 292.5 4.6 293.6 5.9 293.6 8.5 C 293.6 8.5 293.6 12.9 293.6 12.9 C 293.6 13.2 293.7 13.3 294 13.3 C 294.01 13.34 294.8 13.3 294.8 13.3 L 294.8 15 C 294.8 15 292.91 15 292.9 15 C 292 15 291.6 14.6 291.6 13.7 C 291.6 13.7 291.6 9 291.6 9 C 291.6 7.5 291.3 6.4 289.7 6.4 C 288.2 6.4 286.9 7.4 286.5 8.9 C 286.4 9.3 286.3 9.8 286.3 10.3 C 286.35 10.26 286.3 15 286.3 15 L 284.4 15 C 284.4 15 284.41 6.98 284.4 7 Z M 301.4 4.6 C 302.6 4.6 305 5.1 305 6.9 C 305.03 6.86 305 7.9 305 7.9 L 303.3 7.9 C 303.3 7.9 303.27 7.34 303.3 7.3 C 303.3 6.6 302.1 6.3 301.4 6.3 C 299.4 6.3 297.9 7.8 297.9 9.9 C 297.9 12.2 299.6 13.5 301.5 13.5 C 303.39 13.52 304.6 12.1 304.6 12.1 L 305.5 13.5 C 305.5 13.5 304.03 15.24 301.3 15.2 C 298.2 15.2 295.9 13 295.9 9.9 C 295.9 7 298.1 4.6 301.4 4.6 Z M 311.7 4.6 C 314.5 4.6 316 6.8 316 9.4 C 316.05 9.64 316 10.2 316 10.2 C 316 10.2 308.61 10.18 308.6 10.2 C 308.7 12.3 310.3 13.6 312.1 13.6 C 313.83 13.56 315 12.4 315 12.4 L 315.9 13.8 C 315.9 13.8 314.39 15.24 312 15.2 C 308.8 15.2 306.6 12.9 306.6 9.9 C 306.6 6.7 308.8 4.6 311.7 4.6 Z M 314 8.8 C 314 7.1 312.9 6.2 311.7 6.2 C 310.2 6.2 309 7.1 308.7 8.8 C 308.7 8.8 314 8.8 314 8.8 Z M 318.6 7 C 318.6 6.7 318.5 6.5 318.2 6.5 C 318.19 6.54 317.4 6.5 317.4 6.5 L 317.4 4.9 C 317.4 4.9 319.19 4.88 319.2 4.9 C 320.1 4.9 320.4 5.3 320.4 5.9 C 320.43 6.2 320.4 6.4 320.4 6.4 L 320.4 6.4 C 320.4 6.4 321.29 4.64 323.8 4.6 C 326.5 4.6 328.3 6.8 328.3 9.9 C 328.3 13.2 326.3 15.2 323.7 15.2 C 321.43 15.24 320.6 13.6 320.6 13.6 L 320.5 13.6 C 320.5 13.6 320.57 13.98 320.6 14.5 C 320.57 14.5 320.6 19 320.6 19 L 318.6 19 C 318.6 19 318.63 6.98 318.6 7 Z M 323.4 13.6 C 325 13.6 326.3 12.3 326.3 10 C 326.3 7.8 325.1 6.3 323.4 6.3 C 321.9 6.3 320.5 7.4 320.5 10 C 320.5 11.8 321.5 13.6 323.4 13.6 Z M 335.2 4.6 C 336.4 4.6 338.8 5.1 338.8 6.9 C 338.81 6.86 338.8 7.9 338.8 7.9 L 337 7.9 C 337 7.9 337.05 7.34 337 7.3 C 337 6.6 335.9 6.3 335.2 6.3 C 333.2 6.3 331.7 7.8 331.7 9.9 C 331.7 12.2 333.4 13.5 335.3 13.5 C 337.17 13.52 338.4 12.1 338.4 12.1 L 339.2 13.5 C 339.2 13.5 337.81 15.24 335.1 15.2 C 331.9 15.2 329.7 13 329.7 9.9 C 329.7 7 331.9 4.6 335.2 4.6 Z M 341.5 0.9 L 343.2 0.9 L 343.2 2.9 L 341.5 2.9 L 341.5 0.9 Z M 341.5 7 C 341.5 6.7 341.3 6.5 341 6.5 C 341.03 6.54 340.2 6.5 340.2 6.5 L 340.2 4.9 C 340.2 4.9 342.11 4.88 342.1 4.9 C 343 4.9 343.4 5.3 343.4 6.2 C 343.4 6.2 343.4 12.9 343.4 12.9 C 343.4 13.2 343.5 13.3 343.8 13.3 C 343.83 13.34 344.6 13.3 344.6 13.3 L 344.6 15 C 344.6 15 342.75 15 342.7 15 C 341.8 15 341.5 14.6 341.5 13.7 C 341.5 13.7 341.5 7 341.5 7 Z M 352 8.7 C 352.01 8.7 352.4 8.7 352.4 8.7 C 352.4 8.7 352.45 8.6 352.4 8.6 C 352.4 6.8 351.8 6.2 350.2 6.2 C 349.7 6.2 348.5 6.3 348.5 7 C 348.55 6.96 348.5 7.5 348.5 7.5 L 346.7 7.5 C 346.7 7.5 346.73 6.54 346.7 6.5 C 346.7 4.9 349.2 4.6 350.2 4.6 C 353.5 4.6 354.4 6.4 354.4 8.6 C 354.4 8.6 354.4 12.9 354.4 12.9 C 354.4 13.2 354.5 13.3 354.8 13.3 C 354.83 13.34 355.6 13.3 355.6 13.3 L 355.6 15 C 355.6 15 353.83 15 353.8 15 C 352.9 15 352.6 14.6 352.6 13.8 C 352.57 13.5 352.6 13.2 352.6 13.2 L 352.6 13.2 C 352.6 13.2 351.77 15.24 349.3 15.2 C 347.6 15.2 345.9 14.2 345.9 12.2 C 345.9 8.9 350.3 8.7 352 8.7 Z M 349.8 13.7 C 351.4 13.7 352.5 12 352.5 10.5 C 352.47 10.46 352.5 10.1 352.5 10.1 C 352.5 10.1 351.97 10.12 352 10.1 C 350.5 10.1 347.9 10.2 347.9 12.1 C 347.9 12.9 348.5 13.7 349.8 13.7 Z M 363.5 2.6 L 362.2 2.6 L 362.2 0.9 C 362.2 0.9 367.91 0.88 367.9 0.9 C 372.2 0.9 375 3.5 375 7.9 C 375 12.4 372.2 15 367.9 15 C 367.9 15 364.8 15 364.8 15 C 363.9 15 363.5 14.6 363.5 13.7 C 363.49 13.72 363.5 2.6 363.5 2.6 Z M 365.9 13.3 C 365.9 13.3 367.8 13.3 367.8 13.3 C 370.9 13.3 373 11.4 373 7.9 C 373 4.5 370.9 2.6 367.8 2.6 C 367.77 2.6 365.5 2.6 365.5 2.6 C 365.5 2.6 365.49 12.84 365.5 12.8 C 365.5 13.1 365.6 13.3 365.9 13.3 Z M 377.8 2.6 L 376.5 2.6 L 376.5 0.9 C 376.5 0.9 382.65 0.88 382.6 0.9 C 385.1 0.9 386.9 2.4 386.9 5 C 386.9 7.4 385.3 8.5 384.3 8.8 C 384.33 8.76 384.3 8.8 384.3 8.8 C 384.3 8.8 384.69 8.98 384.9 9.4 C 384.9 9.4 386.6 12.8 386.6 12.8 C 386.8 13.2 387.1 13.3 387.6 13.3 C 387.63 13.28 387.9 13.3 387.9 13.3 L 387.9 15 C 387.9 15 386.91 15 386.9 15 C 385.8 15 385.4 14.9 384.9 13.9 C 384.9 13.9 383 10.1 383 10.1 C 382.7 9.5 382.4 9.4 381.6 9.4 C 381.63 9.38 379.8 9.4 379.8 9.4 L 379.8 15 L 377.8 15 L 377.8 2.6 Z M 382.4 7.7 C 383.9 7.7 384.8 6.7 384.8 5.1 C 384.8 3.5 383.9 2.6 382.4 2.6 C 382.43 2.6 379.8 2.6 379.8 2.6 L 379.8 7.7 C 379.8 7.7 382.39 7.66 382.4 7.7 Z M 389.9 11.7 C 389.9 11.7 391.39 13.42 393.5 13.4 C 394.8 13.4 395.9 12.6 395.9 11.3 C 395.9 8.4 389.1 8.8 389.1 4.4 C 389.1 2.3 390.9 0.6 393.6 0.6 C 395.1 0.6 397.6 1.3 397.6 3.2 C 397.63 3.24 397.6 4.4 397.6 4.4 L 395.8 4.4 C 395.8 4.4 395.79 3.74 395.8 3.7 C 395.8 3 394.7 2.5 393.6 2.5 C 392.1 2.5 391.1 3.3 391.1 4.4 C 391.1 7.2 397.9 6.6 397.9 11.2 C 397.9 13.4 396.2 15.2 393.4 15.2 C 390.45 15.24 388.8 13.1 388.8 13.1 L 389.9 11.7 Z M 400.8 2.6 L 399.5 2.6 L 399.5 0.9 C 399.5 0.9 405.73 0.88 405.7 0.9 C 408.3 0.9 410.1 2.6 410.1 5.3 C 410.1 8 408.3 9.8 405.7 9.8 C 405.73 9.78 402.8 9.8 402.8 9.8 L 402.8 15 L 400.8 15 L 400.8 2.6 Z M 405.4 8.1 C 407.1 8.1 408.1 7 408.1 5.3 C 408.1 3.6 407.1 2.6 405.4 2.6 C 405.43 2.6 402.8 2.6 402.8 2.6 L 402.8 8.1 C 402.8 8.1 405.41 8.06 405.4 8.1 Z M 422.1 4.6 C 425.1 4.6 427.6 6.9 427.6 9.9 C 427.6 13 425.1 15.2 422.1 15.2 C 419.1 15.2 416.7 13 416.7 9.9 C 416.7 6.9 419.1 4.6 422.1 4.6 Z M 422.1 13.6 C 424 13.6 425.6 12 425.6 9.9 C 425.6 7.8 424 6.3 422.1 6.3 C 420.2 6.3 418.7 7.8 418.7 9.9 C 418.7 12 420.2 13.6 422.1 13.6 Z M 430 7 C 430 6.7 429.8 6.5 429.6 6.5 C 429.57 6.54 428.7 6.5 428.7 6.5 L 428.7 4.9 C 428.7 4.9 430.61 4.88 430.6 4.9 C 431.5 4.9 431.9 5.3 431.9 6 C 431.9 6 431.9 6.4 431.9 6.4 C 431.89 6.7 431.8 7 431.8 7 C 431.8 7 431.89 6.96 431.9 7 C 432.3 6.1 433.5 4.6 435.7 4.6 C 438.1 4.6 439.2 5.9 439.2 8.5 C 439.2 8.5 439.2 12.9 439.2 12.9 C 439.2 13.2 439.3 13.3 439.6 13.3 C 439.61 13.34 440.4 13.3 440.4 13.3 L 440.4 15 C 440.4 15 438.51 15 438.5 15 C 437.6 15 437.2 14.6 437.2 13.7 C 437.2 13.7 437.2 9 437.2 9 C 437.2 7.5 436.9 6.4 435.3 6.4 C 433.8 6.4 432.5 7.4 432.1 8.9 C 432 9.3 431.9 9.8 431.9 10.3 C 431.95 10.26 431.9 15 431.9 15 L 430 15 C 430 15 430.01 6.98 430 7 Z M 442.5 3 C 442.5 2.7 442.3 2.5 442 2.5 C 442.05 2.54 441.2 2.5 441.2 2.5 L 441.2 0.9 C 441.2 0.9 443.15 0.88 443.1 0.9 C 444 0.9 444.4 1.3 444.4 2.2 C 444.4 2.2 444.4 12.9 444.4 12.9 C 444.4 13.2 444.6 13.3 444.9 13.3 C 444.87 13.34 445.7 13.3 445.7 13.3 L 445.7 15 C 445.7 15 443.77 15 443.8 15 C 442.9 15 442.5 14.6 442.5 13.7 C 442.5 13.7 442.5 3 442.5 3 Z M 448.6 17.5 C 449.3 17.5 450 17 450.3 16.1 C 450.35 16.06 450.8 15 450.8 15 C 450.8 15 447.35 6.94 447.3 6.9 C 447.2 6.6 447 6.5 446.7 6.5 C 446.71 6.54 446.5 6.5 446.5 6.5 L 446.5 4.9 C 446.5 4.9 447.61 4.88 447.6 4.9 C 448.4 4.9 448.7 5.1 449 5.9 C 449 5.9 451.3 11.6 451.3 11.6 C 451.55 12.12 451.7 12.8 451.7 12.8 L 451.7 12.8 C 451.7 12.8 451.89 12.12 452.1 11.6 C 452.1 11.6 454.2 5.9 454.2 5.9 C 454.5 5.1 454.8 4.9 455.7 4.9 C 455.67 4.88 456.8 4.9 456.8 4.9 L 456.8 6.5 C 456.8 6.5 456.57 6.54 456.6 6.5 C 456.2 6.5 456.1 6.6 455.9 6.9 C 455.9 6.9 451.9 16.8 451.9 16.8 C 451.3 18.4 450.1 19.2 448.7 19.2 C 447.17 19.2 446.3 18.2 446.3 18.2 C 446.3 18.2 447.09 16.8 447.1 16.8 C 447.1 16.8 447.7 17.5 448.6 17.5 Z M 467.6 0.1 L 469.3 0.1 L 464.2 15.8 L 462.5 15.8 L 467.6 0.1 Z M 480.6 4.6 C 483.4 4.6 484.9 6.8 484.9 9.4 C 484.95 9.64 484.9 10.2 484.9 10.2 C 484.9 10.2 477.51 10.18 477.5 10.2 C 477.6 12.3 479.2 13.6 481 13.6 C 482.73 13.56 483.9 12.4 483.9 12.4 L 484.8 13.8 C 484.8 13.8 483.29 15.24 480.9 15.2 C 477.7 15.2 475.5 12.9 475.5 9.9 C 475.5 6.7 477.7 4.6 480.6 4.6 Z M 482.9 8.8 C 482.9 7.1 481.8 6.2 480.6 6.2 C 479.1 6.2 477.9 7.1 477.6 8.8 C 477.6 8.8 482.9 8.8 482.9 8.8 Z M 487.5 7 C 487.5 6.7 487.3 6.5 487 6.5 C 487.05 6.54 486.2 6.5 486.2 6.5 L 486.2 4.9 C 486.2 4.9 488.13 4.88 488.1 4.9 C 489 4.9 489.4 5.3 489.4 6.1 C 489.4 6.1 489.4 10.9 489.4 10.9 C 489.4 12.3 489.7 13.4 491.3 13.4 C 493.4 13.4 494.6 11.6 494.6 9.6 C 494.61 9.62 494.6 4.9 494.6 4.9 L 496.5 4.9 C 496.5 4.9 496.55 12.9 496.5 12.9 C 496.5 13.2 496.7 13.3 497 13.3 C 496.99 13.34 497.8 13.3 497.8 13.3 L 497.8 15 C 497.8 15 495.95 15 495.9 15 C 495.1 15 494.7 14.6 494.7 13.9 C 494.7 13.9 494.7 13.5 494.7 13.5 C 494.67 13.18 494.7 12.9 494.7 12.9 C 494.7 12.9 494.65 12.92 494.6 12.9 C 494.2 13.9 492.9 15.2 490.9 15.2 C 488.6 15.2 487.5 14 487.5 11.4 C 487.5 11.4 487.5 7 487.5 7 Z M 499.9 7 C 499.9 6.7 499.8 6.5 499.5 6.5 C 499.51 6.54 498.7 6.5 498.7 6.5 L 498.7 4.9 C 498.7 4.9 500.53 4.88 500.5 4.9 C 501.4 4.9 501.8 5.2 501.8 6.1 C 501.8 6.1 501.8 6.7 501.8 6.7 C 501.83 7.1 501.8 7.4 501.8 7.4 C 501.8 7.4 501.83 7.4 501.8 7.4 C 502.3 5.9 503.5 4.8 505 4.8 C 505.29 4.76 505.5 4.8 505.5 4.8 L 505.5 6.7 C 505.5 6.7 505.29 6.66 505 6.7 C 503.7 6.7 502.6 7.5 502.1 9 C 501.9 9.6 501.9 10.2 501.9 10.9 C 501.89 10.86 501.9 15 501.9 15 L 499.9 15 C 499.9 15 499.95 6.98 499.9 7 Z M 511.7 4.6 C 514.8 4.6 517.2 6.9 517.2 9.9 C 517.2 13 514.8 15.2 511.7 15.2 C 508.7 15.2 506.3 13 506.3 9.9 C 506.3 6.9 508.7 4.6 511.7 4.6 Z M 511.7 13.6 C 513.7 13.6 515.2 12 515.2 9.9 C 515.2 7.8 513.7 6.3 511.7 6.3 C 509.8 6.3 508.3 7.8 508.3 9.9 C 508.3 12 509.8 13.6 511.7 13.6 Z M 512.4 0.9 L 514.4 0.9 L 512.5 3.4 L 511 3.4 L 512.4 0.9 Z M 519.6 7 C 519.6 6.7 519.5 6.5 519.2 6.5 C 519.19 6.54 518.4 6.5 518.4 6.5 L 518.4 4.9 C 518.4 4.9 520.19 4.88 520.2 4.9 C 521.1 4.9 521.4 5.3 521.4 5.9 C 521.43 6.2 521.4 6.4 521.4 6.4 L 521.4 6.4 C 521.4 6.4 522.29 4.64 524.8 4.6 C 527.5 4.6 529.3 6.8 529.3 9.9 C 529.3 13.2 527.3 15.2 524.7 15.2 C 522.43 15.24 521.6 13.6 521.6 13.6 L 521.5 13.6 C 521.5 13.6 521.57 13.98 521.6 14.5 C 521.57 14.5 521.6 19 521.6 19 L 519.6 19 C 519.6 19 519.63 6.98 519.6 7 Z M 524.4 13.6 C 526 13.6 527.3 12.3 527.3 10 C 527.3 7.8 526.1 6.3 524.4 6.3 C 522.9 6.3 521.5 7.4 521.5 10 C 521.5 11.8 522.5 13.6 524.4 13.6 Z M 531.5 12.2 C 531.5 12.2 532.74 13.66 534.6 13.7 C 535.5 13.7 536.4 13.2 536.4 12.4 C 536.4 10.5 530.8 10.7 530.8 7.5 C 530.8 5.5 532.5 4.6 534.6 4.6 C 535.8 4.6 537.9 5.1 537.9 6.6 C 537.92 6.6 537.9 7.6 537.9 7.6 L 536.2 7.6 C 536.2 7.6 536.18 7.06 536.2 7.1 C 536.2 6.5 535.3 6.2 534.7 6.2 C 533.5 6.2 532.8 6.6 532.8 7.4 C 532.8 9.3 538.3 8.9 538.3 12.3 C 538.3 14.1 536.7 15.2 534.6 15.2 C 531.88 15.24 530.5 13.5 530.5 13.5 L 531.5 12.2 Z M 540.7 3 C 540.7 2.7 540.5 2.5 540.3 2.5 C 540.26 2.54 539.4 2.5 539.4 2.5 L 539.4 0.9 C 539.4 0.9 541.36 0.88 541.4 0.9 C 542.3 0.9 542.6 1.1 542.6 2 C 542.64 2.04 542.6 8.6 542.6 8.6 C 542.6 8.6 543.54 8.6 543.5 8.6 C 543.9 8.6 544.3 8.5 544.6 8.2 C 544.6 8.16 546.9 4.9 546.9 4.9 L 549.2 4.9 C 549.2 4.9 546.42 8.64 546.4 8.6 C 545.96 9.26 545.7 9.4 545.7 9.4 L 545.7 9.4 C 545.7 9.4 546 9.56 546.3 10.2 C 546.3 10.2 547.8 12.9 547.8 12.9 C 548 13.3 548.2 13.3 548.7 13.3 C 548.7 13.34 549.3 13.3 549.3 13.3 L 549.3 15 C 549.3 15 547.92 15 547.9 15 C 547 15 546.7 14.8 546.2 14.1 C 546.2 14.1 544.4 10.7 544.4 10.7 C 544.2 10.3 543.7 10.2 543.4 10.2 C 543.4 10.24 542.6 10.2 542.6 10.2 L 542.6 15 L 540.7 15 C 540.7 15 540.7 2.98 540.7 3 Z M 556.3 8.7 C 556.32 8.7 556.8 8.7 556.8 8.7 C 556.8 8.7 556.76 8.6 556.8 8.6 C 556.8 6.8 556.1 6.2 554.5 6.2 C 554 6.2 552.9 6.3 552.9 7 C 552.86 6.96 552.9 7.5 552.9 7.5 L 551 7.5 C 551 7.5 551.04 6.54 551 6.5 C 551 4.9 553.6 4.6 554.5 4.6 C 557.8 4.6 558.7 6.4 558.7 8.6 C 558.7 8.6 558.7 12.9 558.7 12.9 C 558.7 13.2 558.9 13.3 559.1 13.3 C 559.14 13.34 560 13.3 560 13.3 L 560 15 C 560 15 558.14 15 558.1 15 C 557.2 15 556.9 14.6 556.9 13.8 C 556.88 13.5 556.9 13.2 556.9 13.2 L 556.9 13.2 C 556.9 13.2 556.08 15.24 553.7 15.2 C 551.9 15.2 550.2 14.2 550.2 12.2 C 550.2 8.9 554.6 8.7 556.3 8.7 Z M 554.1 13.7 C 555.7 13.7 556.8 12 556.8 10.5 C 556.78 10.46 556.8 10.1 556.8 10.1 C 556.8 10.1 556.28 10.12 556.3 10.1 C 554.8 10.1 552.2 10.2 552.2 12.1 C 552.2 12.9 552.8 13.7 554.1 13.7 Z M 567.3 12.2 C 567.3 12.2 568.48 13.66 570.3 13.7 C 571.3 13.7 572.1 13.2 572.1 12.4 C 572.1 10.5 566.6 10.7 566.6 7.5 C 566.6 5.5 568.3 4.6 570.3 4.6 C 571.6 4.6 573.7 5.1 573.7 6.6 C 573.66 6.6 573.7 7.6 573.7 7.6 L 571.9 7.6 C 571.9 7.6 571.92 7.06 571.9 7.1 C 571.9 6.5 571 6.2 570.4 6.2 C 569.3 6.2 568.5 6.6 568.5 7.4 C 568.5 9.3 574 8.9 574 12.3 C 574 14.1 572.4 15.2 570.3 15.2 C 567.62 15.24 566.3 13.5 566.3 13.5 L 567.3 12.2 Z M 567.6 0.9 L 569.2 0.9 L 570.2 2.5 L 570.3 2.5 L 571.3 0.9 L 572.9 0.9 L 571.1 3.4 L 569.4 3.4 L 567.6 0.9 Z M 576.6 6.4 L 575.3 6.4 L 575.3 4.9 L 576.6 4.9 L 576.6 2.1 L 578.5 2.1 L 578.5 4.9 L 581 4.9 L 581 6.4 L 578.5 6.4 C 578.5 6.4 578.54 11.08 578.5 11.1 C 578.5 13.1 579.9 13.4 580.7 13.4 C 580.96 13.36 581.1 13.3 581.1 13.3 L 581.1 15 C 581.1 15 580.88 15.08 580.5 15.1 C 579.2 15.1 576.6 14.7 576.6 11.3 C 576.6 11.3 576.6 6.4 576.6 6.4 Z M 583.5 7 C 583.5 6.7 583.4 6.5 583.1 6.5 C 583.08 6.54 582.3 6.5 582.3 6.5 L 582.3 4.9 C 582.3 4.9 584.16 4.88 584.2 4.9 C 585.1 4.9 585.5 5.3 585.5 6.1 C 585.5 6.1 585.5 10.9 585.5 10.9 C 585.5 12.3 585.7 13.4 587.3 13.4 C 589.4 13.4 590.6 11.6 590.6 9.6 C 590.64 9.62 590.6 4.9 590.6 4.9 L 592.6 4.9 C 592.6 4.9 592.58 12.9 592.6 12.9 C 592.6 13.2 592.7 13.3 593 13.3 C 593.02 13.34 593.8 13.3 593.8 13.3 L 593.8 15 C 593.8 15 591.98 15 592 15 C 591.1 15 590.7 14.6 590.7 13.9 C 590.7 13.9 590.7 13.5 590.7 13.5 C 590.7 13.18 590.7 12.9 590.7 12.9 C 590.7 12.9 590.68 12.92 590.7 12.9 C 590.3 13.9 589 15.2 587 15.2 C 584.7 15.2 583.5 14 583.5 11.4 C 583.5 11.4 583.5 7 583.5 7 Z M 588.6 0.9 L 590.6 0.9 L 588.7 3.4 L 587.2 3.4 L 588.6 0.9 Z M 599.6 4.6 C 601.94 4.64 602.7 6.2 602.7 6.2 L 602.8 6.2 C 602.8 6.2 602.72 5.9 602.7 5.5 C 602.7 5.5 602.7 3 602.7 3 C 602.7 2.7 602.6 2.5 602.3 2.5 C 602.28 2.54 601.5 2.5 601.5 2.5 L 601.5 0.9 C 601.5 0.9 603.38 0.88 603.4 0.9 C 604.3 0.9 604.7 1.3 604.7 2.2 C 604.7 2.2 604.7 12.9 604.7 12.9 C 604.7 13.2 604.8 13.3 605.1 13.3 C 605.1 13.34 605.9 13.3 605.9 13.3 L 605.9 15 C 605.9 15 604.06 15 604.1 15 C 603.2 15 602.8 14.6 602.8 13.9 C 602.82 13.62 602.8 13.4 602.8 13.4 L 602.8 13.4 C 602.8 13.4 601.96 15.24 599.5 15.2 C 596.7 15.2 595 13.1 595 9.9 C 595 6.7 596.9 4.6 599.6 4.6 Z M 602.8 9.9 C 602.8 8.1 601.8 6.3 599.9 6.3 C 598.3 6.3 597 7.6 597 9.9 C 597 12.1 598.2 13.6 599.9 13.6 C 601.4 13.6 602.8 12.5 602.8 9.9 Z M 608.2 0.9 L 610 0.9 L 610 2.9 L 608.2 2.9 L 608.2 0.9 Z M 608.2 7 C 608.2 6.7 608 6.5 607.7 6.5 C 607.74 6.54 606.9 6.5 606.9 6.5 L 606.9 4.9 C 606.9 4.9 608.82 4.88 608.8 4.9 C 609.7 4.9 610.1 5.3 610.1 6.2 C 610.1 6.2 610.1 12.9 610.1 12.9 C 610.1 13.2 610.3 13.3 610.5 13.3 C 610.54 13.34 611.4 13.3 611.4 13.3 L 611.4 15 C 611.4 15 609.46 15 609.5 15 C 608.6 15 608.2 14.6 608.2 13.7 C 608.2 13.7 608.2 7 608.2 7 Z M 618.7 8.7 C 618.72 8.7 619.2 8.7 619.2 8.7 C 619.2 8.7 619.16 8.6 619.2 8.6 C 619.2 6.8 618.5 6.2 616.9 6.2 C 616.4 6.2 615.3 6.3 615.3 7 C 615.26 6.96 615.3 7.5 615.3 7.5 L 613.4 7.5 C 613.4 7.5 613.44 6.54 613.4 6.5 C 613.4 4.9 616 4.6 616.9 4.6 C 620.2 4.6 621.1 6.4 621.1 8.6 C 621.1 8.6 621.1 12.9 621.1 12.9 C 621.1 13.2 621.3 13.3 621.5 13.3 C 621.54 13.34 622.4 13.3 622.4 13.3 L 622.4 15 C 622.4 15 620.54 15 620.5 15 C 619.6 15 619.3 14.6 619.3 13.8 C 619.28 13.5 619.3 13.2 619.3 13.2 L 619.3 13.2 C 619.3 13.2 618.48 15.24 616.1 15.2 C 614.3 15.2 612.6 14.2 612.6 12.2 C 612.6 8.9 617 8.7 618.7 8.7 Z M 616.5 13.7 C 618.1 13.7 619.2 12 619.2 10.5 C 619.18 10.46 619.2 10.1 619.2 10.1 C 619.2 10.1 618.68 10.12 618.7 10.1 C 617.2 10.1 614.6 10.2 614.6 12.1 C 614.6 12.9 615.2 13.7 616.5 13.7 Z " stroke="none" fill="#ee3078"/>  </g></svg>