<?xml version="1.0" standalone="no"?><!DOCTYPE svg PUBLIC "-//W3C//DTD SVG 1.1//EN" "http://www.w3.org/Graphics/SVG/1.1/DTD/svg11.dtd"><svg xmlns="http://www.w3.org/2000/svg" version="1.1" width="723px" height="40px" viewBox="0 -3 723 40" style="top:-3px">  <desc>Graf zobrazuje porovnanie APC rezistencie pri r znych typoch antikoncepcie a porovn va predikt vne riziko VTE (predik...</desc>  <defs/>  <g id="Polygon75595">    <path d="M 2.3 17.2 C 2.3 17.2 3.1 17.2 3.1 17.2 C 2.2 18.7 1.8 20.3 1.8 22 C 1.8 23.7 2.2 25.5 3.2 27.1 C 3.2 27.1 2.4 27.1 2.4 27.1 C 1.5 25.7 1 23.9 1 22 C 1 20.3 1.4 18.6 2.3 17.2 Z M 4.8 20.9 C 4.8 20.8 4.7 20.7 4.5 20.7 C 4.49 20.67 4 20.7 4 20.7 L 4 20 C 4 20 4.81 19.96 4.8 20 C 5.3 20 5.5 20.2 5.5 20.6 C 5.5 20.8 5.5 21 5.5 21 C 5.52 21.01 5.5 21 5.5 21 C 5.5 21 6.02 19.82 7.6 19.8 C 9.2 19.8 10.2 21.1 10.2 23 C 10.2 24.9 9.1 26.1 7.5 26.1 C 6.07 26.14 5.6 25 5.6 25 L 5.5 25 C 5.5 25 5.57 25.22 5.6 25.5 C 5.57 25.53 5.6 28.4 5.6 28.4 L 4.8 28.4 C 4.8 28.4 4.75 20.94 4.8 20.9 Z M 7.5 25.4 C 8.5 25.4 9.4 24.5 9.4 23 C 9.4 21.5 8.6 20.6 7.5 20.6 C 6.5 20.6 5.5 21.3 5.5 23 C 5.5 24.2 6.2 25.4 7.5 25.4 Z M 11.8 20.9 C 11.8 20.8 11.7 20.7 11.5 20.7 C 11.53 20.67 11 20.7 11 20.7 L 11 20 C 11 20 11.87 19.96 11.9 20 C 12.4 20 12.6 20.2 12.6 20.6 C 12.6 20.6 12.6 21.1 12.6 21.1 C 12.6 21.31 12.6 21.5 12.6 21.5 C 12.6 21.5 12.6 21.51 12.6 21.5 C 12.9 20.6 13.6 19.9 14.5 19.9 C 14.7 19.9 14.8 19.9 14.8 19.9 C 14.83 19.94 14.8 20.7 14.8 20.7 C 14.8 20.7 14.69 20.72 14.5 20.7 C 13.7 20.7 13 21.4 12.8 22.3 C 12.7 22.7 12.6 23.1 12.6 23.5 C 12.61 23.46 12.6 26 12.6 26 L 11.8 26 C 11.8 26 11.8 20.94 11.8 20.9 Z M 18.3 19.8 C 20 19.8 20.8 21.1 20.8 22.6 C 20.84 22.75 20.8 23 20.8 23 C 20.8 23 16.19 23.01 16.2 23 C 16.2 24.5 17.3 25.4 18.5 25.4 C 19.63 25.41 20.3 24.7 20.3 24.7 L 20.7 25.3 C 20.7 25.3 19.86 26.14 18.5 26.1 C 16.7 26.1 15.3 24.8 15.3 23 C 15.3 21 16.7 19.8 18.3 19.8 Z M 20 22.4 C 20 21.1 19.2 20.5 18.3 20.5 C 17.3 20.5 16.4 21.2 16.2 22.4 C 16.2 22.4 20 22.4 20 22.4 Z M 24.6 19.8 C 26.11 19.82 26.6 20.9 26.6 20.9 L 26.6 20.9 C 26.6 20.9 26.62 20.74 26.6 20.5 C 26.6 20.5 26.6 18.5 26.6 18.5 C 26.6 18.4 26.5 18.3 26.4 18.3 C 26.35 18.27 25.8 18.3 25.8 18.3 L 25.8 17.6 C 25.8 17.6 26.7 17.56 26.7 17.6 C 27.2 17.6 27.4 17.8 27.4 18.3 C 27.4 18.3 27.4 25 27.4 25 C 27.4 25.2 27.5 25.3 27.7 25.3 C 27.7 25.29 28.2 25.3 28.2 25.3 L 28.2 26 C 28.2 26 27.36 26 27.4 26 C 26.9 26 26.6 25.8 26.6 25.3 C 26.6 25.1 26.7 24.9 26.7 24.9 C 26.66 24.94 26.6 24.9 26.6 24.9 C 26.6 24.9 26.15 26.14 24.6 26.1 C 22.9 26.1 21.9 24.8 21.9 23 C 21.9 21.1 23.1 19.8 24.6 19.8 Z M 26.6 23 C 26.6 21.8 26 20.6 24.7 20.6 C 23.7 20.6 22.8 21.5 22.8 23 C 22.8 24.5 23.6 25.4 24.7 25.4 C 25.7 25.4 26.6 24.7 26.6 23 Z M 29.6 17.6 L 30.4 17.6 L 30.4 18.6 L 29.6 18.6 L 29.6 17.6 Z M 29.6 20.9 C 29.6 20.8 29.5 20.7 29.3 20.7 C 29.33 20.67 28.8 20.7 28.8 20.7 L 28.8 20 C 28.8 20 29.68 19.96 29.7 20 C 30.2 20 30.4 20.2 30.4 20.7 C 30.4 20.7 30.4 25 30.4 25 C 30.4 25.2 30.5 25.3 30.7 25.3 C 30.67 25.29 31.2 25.3 31.2 25.3 L 31.2 26 C 31.2 26 30.32 26 30.3 26 C 29.8 26 29.6 25.8 29.6 25.3 C 29.6 25.3 29.6 20.9 29.6 20.9 Z M 32.5 18.5 C 32.5 18.4 32.4 18.3 32.2 18.3 C 32.24 18.27 31.7 18.3 31.7 18.3 L 31.7 17.6 C 31.7 17.6 32.59 17.56 32.6 17.6 C 33.1 17.6 33.3 17.7 33.3 18.3 C 33.32 18.26 33.3 22.3 33.3 22.3 C 33.3 22.3 33.95 22.27 33.9 22.3 C 34.2 22.3 34.5 22.2 34.6 22 C 34.63 21.98 36.2 20 36.2 20 L 37.2 20 C 37.2 20 35.43 22.17 35.4 22.2 C 35.13 22.54 35 22.6 35 22.6 L 35 22.6 C 35 22.6 35.16 22.71 35.4 23.1 C 35.4 23.1 36.4 25 36.4 25 C 36.6 25.2 36.7 25.3 37 25.3 C 36.99 25.29 37.3 25.3 37.3 25.3 L 37.3 26 C 37.3 26 36.75 26 36.8 26 C 36.2 26 36 25.9 35.7 25.4 C 35.7 25.4 34.5 23.2 34.5 23.2 C 34.4 23 34.1 23 33.9 23 C 33.87 22.98 33.3 23 33.3 23 L 33.3 26 L 32.5 26 C 32.5 26 32.51 18.54 32.5 18.5 Z M 38.6 20.6 L 37.8 20.6 L 37.8 20 L 38.6 20 L 38.6 18.3 L 39.4 18.3 L 39.4 20 L 40.9 20 L 40.9 20.6 L 39.4 20.6 C 39.4 20.6 39.41 23.72 39.4 23.7 C 39.4 25.1 40.3 25.3 40.8 25.3 C 40.93 25.32 41 25.3 41 25.3 L 41 26 C 41 26 40.89 26.05 40.7 26 C 40 26 38.6 25.8 38.6 23.8 C 38.59 23.8 38.6 20.6 38.6 20.6 Z M 42.6 20.9 C 42.6 20.8 42.5 20.7 42.3 20.7 C 42.35 20.67 41.8 20.7 41.8 20.7 L 41.8 20 C 41.8 20 42.7 19.96 42.7 20 C 43.2 20 43.4 20.2 43.4 20.7 C 43.4 20.7 43.4 25 43.4 25 C 43.4 25.2 43.5 25.3 43.7 25.3 C 43.69 25.29 44.2 25.3 44.2 25.3 L 44.2 26 C 44.2 26 43.34 26 43.3 26 C 42.8 26 42.6 25.8 42.6 25.3 C 42.6 25.3 42.6 20.9 42.6 20.9 Z M 43.4 17.6 L 44.3 17.6 L 43.3 19 L 42.6 19 L 43.4 17.6 Z M 45.2 20.9 C 45.1 20.7 45 20.7 44.7 20.7 C 44.74 20.67 44.6 20.7 44.6 20.7 L 44.6 20 C 44.6 20 44.95 19.96 45 20 C 45.5 20 45.7 20.1 45.9 20.6 C 45.9 20.6 47.4 24.4 47.4 24.4 C 47.47 24.69 47.6 25.1 47.6 25.1 L 47.6 25.1 C 47.6 25.1 47.69 24.69 47.8 24.4 C 47.8 24.4 49.2 20.6 49.2 20.6 C 49.5 20.1 49.6 20 50.2 20 C 50.19 19.96 50.5 20 50.5 20 L 50.5 20.7 C 50.5 20.7 50.4 20.67 50.4 20.7 C 50.2 20.7 50.1 20.7 50 20.9 C 49.98 20.95 48 26 48 26 L 47.1 26 C 47.1 26 45.16 20.95 45.2 20.9 Z M 51.7 20.9 C 51.7 20.8 51.6 20.7 51.5 20.7 C 51.46 20.67 51 20.7 51 20.7 L 51 20 C 51 20 51.79 19.96 51.8 20 C 52.3 20 52.5 20.2 52.5 20.6 C 52.5 20.6 52.5 20.9 52.5 20.9 C 52.52 21.15 52.5 21.3 52.5 21.3 C 52.5 21.3 52.52 21.34 52.5 21.3 C 52.7 20.8 53.5 19.8 54.9 19.8 C 56.4 19.8 57 20.7 57 22.2 C 57 22.2 57 25 57 25 C 57 25.2 57 25.3 57.2 25.3 C 57.21 25.29 57.7 25.3 57.7 25.3 L 57.7 26 C 57.7 26 56.87 26 56.9 26 C 56.4 26 56.1 25.8 56.1 25.3 C 56.1 25.3 56.1 22.4 56.1 22.4 C 56.1 21.4 56 20.6 54.8 20.6 C 53.8 20.6 52.9 21.3 52.6 22.3 C 52.6 22.5 52.5 22.8 52.5 23.1 C 52.53 23.11 52.5 26 52.5 26 L 51.7 26 C 51.7 26 51.72 20.94 51.7 20.9 Z M 61.4 19.8 C 63.1 19.8 64 21.1 64 22.6 C 63.96 22.75 63.9 23 63.9 23 C 63.9 23 59.3 23.01 59.3 23 C 59.3 24.5 60.4 25.4 61.6 25.4 C 62.75 25.41 63.5 24.7 63.5 24.7 L 63.9 25.3 C 63.9 25.3 62.98 26.14 61.6 26.1 C 59.8 26.1 58.5 24.8 58.5 23 C 58.5 21 59.8 19.8 61.4 19.8 Z M 63.1 22.4 C 63.1 21.1 62.3 20.5 61.4 20.5 C 60.4 20.5 59.5 21.2 59.3 22.4 C 59.3 22.4 63.1 22.4 63.1 22.4 Z M 68.7 21.2 L 74.2 21.2 L 74.2 21.9 L 68.7 21.9 L 68.7 21.2 Z M 68.7 23.3 L 74.2 23.3 L 74.2 24 L 68.7 24 L 68.7 23.3 Z M 79.4 20.9 C 79.4 20.8 79.3 20.7 79.1 20.7 C 79.13 20.67 78.6 20.7 78.6 20.7 L 78.6 20 C 78.6 20 79.45 19.96 79.5 20 C 80 20 80.2 20.2 80.2 20.6 C 80.2 20.8 80.2 21 80.2 21 C 80.16 21.01 80.2 21 80.2 21 C 80.2 21 80.66 19.82 82.3 19.8 C 83.9 19.8 84.9 21.1 84.9 23 C 84.9 24.9 83.7 26.1 82.2 26.1 C 80.71 26.14 80.2 25 80.2 25 L 80.2 25 C 80.2 25 80.21 25.22 80.2 25.5 C 80.21 25.53 80.2 28.4 80.2 28.4 L 79.4 28.4 C 79.4 28.4 79.39 20.94 79.4 20.9 Z M 82.1 25.4 C 83.2 25.4 84 24.5 84 23 C 84 21.5 83.3 20.6 82.1 20.6 C 81.1 20.6 80.2 21.3 80.2 23 C 80.2 24.2 80.8 25.4 82.1 25.4 Z M 86.4 20.9 C 86.4 20.8 86.3 20.7 86.2 20.7 C 86.17 20.67 85.7 20.7 85.7 20.7 L 85.7 20 C 85.7 20 86.51 19.96 86.5 20 C 87 20 87.2 20.2 87.2 20.6 C 87.2 20.6 87.2 21.1 87.2 21.1 C 87.24 21.31 87.2 21.5 87.2 21.5 C 87.2 21.5 87.24 21.51 87.2 21.5 C 87.5 20.6 88.2 19.9 89.1 19.9 C 89.3 19.9 89.5 19.9 89.5 19.9 C 89.47 19.94 89.5 20.7 89.5 20.7 C 89.5 20.7 89.33 20.72 89.2 20.7 C 88.3 20.7 87.7 21.4 87.4 22.3 C 87.3 22.7 87.2 23.1 87.2 23.5 C 87.25 23.46 87.2 26 87.2 26 L 86.4 26 C 86.4 26 86.44 20.94 86.4 20.9 Z M 93 19.8 C 94.6 19.8 95.5 21.1 95.5 22.6 C 95.48 22.75 95.5 23 95.5 23 C 95.5 23 90.83 23.01 90.8 23 C 90.8 24.5 91.9 25.4 93.2 25.4 C 94.27 25.41 95 24.7 95 24.7 L 95.4 25.3 C 95.4 25.3 94.5 26.14 93.1 26.1 C 91.3 26.1 90 24.8 90 23 C 90 21 91.3 19.8 93 19.8 Z M 94.6 22.4 C 94.6 21.1 93.8 20.5 92.9 20.5 C 91.9 20.5 91.1 21.2 90.9 22.4 C 90.9 22.4 94.6 22.4 94.6 22.4 Z M 99.3 19.8 C 100.75 19.82 101.3 20.9 101.3 20.9 L 101.3 20.9 C 101.3 20.9 101.26 20.74 101.3 20.5 C 101.3 20.5 101.3 18.5 101.3 18.5 C 101.3 18.4 101.2 18.3 101 18.3 C 100.99 18.27 100.5 18.3 100.5 18.3 L 100.5 17.6 C 100.5 17.6 101.34 17.56 101.3 17.6 C 101.9 17.6 102.1 17.8 102.1 18.3 C 102.1 18.3 102.1 25 102.1 25 C 102.1 25.2 102.2 25.3 102.3 25.3 C 102.33 25.29 102.8 25.3 102.8 25.3 L 102.8 26 C 102.8 26 102 26 102 26 C 101.5 26 101.3 25.8 101.3 25.3 C 101.3 25.1 101.3 24.9 101.3 24.9 C 101.3 24.94 101.3 24.9 101.3 24.9 C 101.3 24.9 100.79 26.14 99.2 26.1 C 97.6 26.1 96.6 24.8 96.6 23 C 96.6 21.1 97.7 19.8 99.3 19.8 Z M 101.3 23 C 101.3 21.8 100.7 20.6 99.4 20.6 C 98.3 20.6 97.4 21.5 97.4 23 C 97.4 24.5 98.2 25.4 99.3 25.4 C 100.3 25.4 101.3 24.7 101.3 23 Z M 103.8 20.9 C 103.7 20.7 103.6 20.7 103.4 20.7 C 103.4 20.67 103.3 20.7 103.3 20.7 L 103.3 20 C 103.3 20 103.62 19.96 103.6 20 C 104.2 20 104.4 20.1 104.6 20.6 C 104.6 20.6 106 24.4 106 24.4 C 106.14 24.69 106.2 25.1 106.2 25.1 L 106.3 25.1 C 106.3 25.1 106.35 24.69 106.5 24.4 C 106.5 24.4 107.9 20.6 107.9 20.6 C 108.1 20.1 108.3 20 108.9 20 C 108.86 19.96 109.2 20 109.2 20 L 109.2 20.7 C 109.2 20.7 109.07 20.67 109.1 20.7 C 108.8 20.7 108.7 20.7 108.6 20.9 C 108.65 20.95 106.7 26 106.7 26 L 105.8 26 C 105.8 26 103.82 20.95 103.8 20.9 Z M 110.5 20.9 C 110.5 20.8 110.4 20.7 110.2 20.7 C 110.2 20.67 109.7 20.7 109.7 20.7 L 109.7 20 C 109.7 20 110.54 19.96 110.5 20 C 111.1 20 111.3 20.2 111.3 20.7 C 111.3 20.7 111.3 25 111.3 25 C 111.3 25.2 111.4 25.3 111.5 25.3 C 111.54 25.29 112 25.3 112 25.3 L 112 26 C 112 26 111.19 26 111.2 26 C 110.7 26 110.5 25.8 110.5 25.3 C 110.5 25.3 110.5 20.9 110.5 20.9 Z M 111.2 17.6 L 112.2 17.6 L 111.1 19 L 110.4 19 L 111.2 17.6 Z M 115.6 19.8 C 117.05 19.82 117.6 20.9 117.6 20.9 L 117.6 20.9 C 117.6 20.9 117.55 20.74 117.6 20.5 C 117.6 20.5 117.6 18.5 117.6 18.5 C 117.6 18.4 117.5 18.3 117.3 18.3 C 117.29 18.27 116.8 18.3 116.8 18.3 L 116.8 17.6 C 116.8 17.6 117.63 17.56 117.6 17.6 C 118.1 17.6 118.4 17.8 118.4 18.3 C 118.4 18.3 118.4 25 118.4 25 C 118.4 25.2 118.5 25.3 118.6 25.3 C 118.63 25.29 119.1 25.3 119.1 25.3 L 119.1 26 C 119.1 26 118.29 26 118.3 26 C 117.8 26 117.6 25.8 117.6 25.3 C 117.6 25.1 117.6 24.9 117.6 24.9 C 117.6 24.94 117.6 24.9 117.6 24.9 C 117.6 24.9 117.08 26.14 115.5 26.1 C 113.9 26.1 112.9 24.8 112.9 23 C 112.9 21.1 114 19.8 115.6 19.8 Z M 117.6 23 C 117.6 21.8 117 20.6 115.7 20.6 C 114.6 20.6 113.7 21.5 113.7 23 C 113.7 24.5 114.5 25.4 115.6 25.4 C 116.6 25.4 117.6 24.7 117.6 23 Z M 123.6 22.3 C 123.6 22.28 123.9 22.3 123.9 22.3 C 123.9 22.3 123.94 22.21 123.9 22.2 C 123.9 20.9 123.5 20.5 122.4 20.5 C 122.1 20.5 121.2 20.6 121.2 21 C 121.2 21.03 121.2 21.4 121.2 21.4 L 120.4 21.4 C 120.4 21.4 120.42 20.84 120.4 20.8 C 120.4 20 121.9 19.8 122.4 19.8 C 124.3 19.8 124.7 20.8 124.7 22.1 C 124.7 22.1 124.7 25 124.7 25 C 124.7 25.2 124.8 25.3 125 25.3 C 125.01 25.29 125.5 25.3 125.5 25.3 L 125.5 26 C 125.5 26 124.69 26 124.7 26 C 124.2 26 124 25.8 124 25.3 C 124 25 124 24.8 124 24.8 C 124 24.8 124 24.8 124 24.8 C 124 24.8 123.5 26.1 122 26.1 C 120.9 26.1 119.9 25.6 119.9 24.4 C 119.9 22.4 122.6 22.3 123.6 22.3 Z M 122.1 25.4 C 123.2 25.4 123.9 24.2 123.9 23.2 C 123.94 23.2 123.9 22.9 123.9 22.9 C 123.9 22.9 123.59 22.93 123.6 22.9 C 122.6 22.9 120.7 23 120.7 24.3 C 120.7 24.9 121.2 25.4 122.1 25.4 Z M 126.9 20.6 L 126.1 20.6 L 126.1 20 L 126.9 20 L 126.9 18.3 L 127.7 18.3 L 127.7 20 L 129.2 20 L 129.2 20.6 L 127.7 20.6 C 127.7 20.6 127.7 23.72 127.7 23.7 C 127.7 25.1 128.6 25.3 129.1 25.3 C 129.23 25.32 129.3 25.3 129.3 25.3 L 129.3 26 C 129.3 26 129.19 26.05 129 26 C 128.3 26 126.9 25.8 126.9 23.8 C 126.89 23.8 126.9 20.6 126.9 20.6 Z M 133.1 19.8 C 134.8 19.8 135.7 21.1 135.7 22.6 C 135.66 22.75 135.6 23 135.6 23 C 135.6 23 131 23.01 131 23 C 131 24.5 132.1 25.4 133.3 25.4 C 134.45 25.41 135.2 24.7 135.2 24.7 L 135.5 25.3 C 135.5 25.3 134.67 26.14 133.3 26.1 C 131.5 26.1 130.2 24.8 130.2 23 C 130.2 21 131.5 19.8 133.1 19.8 Z M 134.8 22.4 C 134.8 21.1 134 20.5 133.1 20.5 C 132.1 20.5 131.2 21.2 131 22.4 C 131 22.4 134.8 22.4 134.8 22.4 Z M 137.3 18.5 C 137.3 18.4 137.2 18.3 137 18.3 C 137.01 18.27 136.5 18.3 136.5 18.3 L 136.5 17.6 C 136.5 17.6 137.36 17.56 137.4 17.6 C 137.9 17.6 138.1 17.8 138.1 18.3 C 138.1 18.3 138.1 25 138.1 25 C 138.1 25.2 138.2 25.3 138.4 25.3 C 138.36 25.29 138.9 25.3 138.9 25.3 L 138.9 26 C 138.9 26 138.01 26 138 26 C 137.5 26 137.3 25.8 137.3 25.3 C 137.3 25.3 137.3 18.5 137.3 18.5 Z M 139.6 17.6 C 139.6 17.8 139.7 17.9 139.7 18.1 C 139.7 18.5 139.6 18.8 139.4 19.2 C 139.4 19.2 138.7 19.2 138.7 19.2 C 138.9 18.8 139 18.6 139 18.2 C 139 18 138.9 17.8 138.8 17.6 C 138.8 17.6 139.6 17.6 139.6 17.6 Z M 141.1 20.9 C 141.1 20.8 141 20.7 140.8 20.7 C 140.84 20.67 140.3 20.7 140.3 20.7 L 140.3 20 C 140.3 20 141.18 19.96 141.2 20 C 141.7 20 141.9 20.2 141.9 20.6 C 141.9 20.6 141.9 20.9 141.9 20.9 C 141.91 21.15 141.9 21.3 141.9 21.3 C 141.9 21.3 141.91 21.34 141.9 21.3 C 142.1 20.8 142.9 19.8 144.3 19.8 C 145.8 19.8 146.3 20.7 146.3 22.2 C 146.3 22.2 146.3 25 146.3 25 C 146.3 25.2 146.4 25.3 146.6 25.3 C 146.6 25.29 147.1 25.3 147.1 25.3 L 147.1 26 C 147.1 26 146.25 26 146.3 26 C 145.7 26 145.5 25.8 145.5 25.3 C 145.5 25.3 145.5 22.4 145.5 22.4 C 145.5 21.4 145.4 20.6 144.2 20.6 C 143.2 20.6 142.3 21.3 142 22.3 C 141.9 22.5 141.9 22.8 141.9 23.1 C 141.92 23.11 141.9 26 141.9 26 L 141.1 26 C 141.1 26 141.11 20.94 141.1 20.9 Z M 150.8 19.8 C 152.5 19.8 153.3 21.1 153.3 22.6 C 153.35 22.75 153.3 23 153.3 23 C 153.3 23 148.69 23.01 148.7 23 C 148.7 24.5 149.8 25.4 151 25.4 C 152.13 25.41 152.8 24.7 152.8 24.7 L 153.2 25.3 C 153.2 25.3 152.36 26.14 151 26.1 C 149.2 26.1 147.8 24.8 147.8 23 C 147.8 21 149.2 19.8 150.8 19.8 Z M 152.5 22.4 C 152.5 21.1 151.7 20.5 150.8 20.5 C 149.8 20.5 148.9 21.2 148.7 22.4 C 148.7 22.4 152.5 22.4 152.5 22.4 Z M 151.3 17.6 L 152.2 17.6 L 151.1 19 L 150.4 19 L 151.3 17.6 Z M 158.2 20.9 C 158.2 20.8 158.1 20.7 158 20.7 C 157.98 20.67 157.5 20.7 157.5 20.7 L 157.5 20 C 157.5 20 158.31 19.96 158.3 20 C 158.8 20 159 20.2 159 20.6 C 159 20.6 159 20.9 159 20.9 C 159.04 21.15 159 21.3 159 21.3 C 159 21.3 159.04 21.34 159 21.3 C 159.3 20.8 160 19.8 161.4 19.8 C 162.9 19.8 163.5 20.7 163.5 22.2 C 163.5 22.2 163.5 25 163.5 25 C 163.5 25.2 163.6 25.3 163.7 25.3 C 163.74 25.29 164.2 25.3 164.2 25.3 L 164.2 26 C 164.2 26 163.39 26 163.4 26 C 162.9 26 162.7 25.8 162.7 25.3 C 162.7 25.3 162.7 22.4 162.7 22.4 C 162.7 21.4 162.5 20.6 161.3 20.6 C 160.3 20.6 159.4 21.3 159.2 22.3 C 159.1 22.5 159.1 22.8 159.1 23.1 C 159.06 23.11 159.1 26 159.1 26 L 158.2 26 C 158.2 26 158.24 20.94 158.2 20.9 Z M 168.7 22.3 C 168.67 22.28 169 22.3 169 22.3 C 169 22.3 169.01 22.21 169 22.2 C 169 20.9 168.5 20.5 167.4 20.5 C 167.1 20.5 166.3 20.6 166.3 21 C 166.27 21.03 166.3 21.4 166.3 21.4 L 165.5 21.4 C 165.5 21.4 165.49 20.84 165.5 20.8 C 165.5 20 166.9 19.8 167.5 19.8 C 169.4 19.8 169.8 20.8 169.8 22.1 C 169.8 22.1 169.8 25 169.8 25 C 169.8 25.2 169.9 25.3 170.1 25.3 C 170.08 25.29 170.6 25.3 170.6 25.3 L 170.6 26 C 170.6 26 169.76 26 169.8 26 C 169.2 26 169 25.8 169 25.3 C 169 25 169.1 24.8 169.1 24.8 C 169.1 24.8 169 24.8 169 24.8 C 169 24.8 168.5 26.1 167 26.1 C 166 26.1 165 25.6 165 24.4 C 165 22.4 167.6 22.3 168.7 22.3 Z M 167.2 25.4 C 168.3 25.4 169 24.2 169 23.2 C 169.01 23.2 169 22.9 169 22.9 C 169 22.9 168.66 22.93 168.7 22.9 C 167.7 22.9 165.8 23 165.8 24.3 C 165.8 24.9 166.3 25.4 167.2 25.4 Z M 174.6 25.5 C 174.6 25.5 177.97 21.24 178 21.2 C 178.2 20.95 178.4 20.7 178.4 20.7 L 178.4 20.7 C 178.4 20.7 178.25 20.68 177.8 20.7 C 177.8 20.7 175.6 20.7 175.6 20.7 C 175.5 20.7 175.4 20.8 175.4 20.9 C 175.38 20.95 175.4 21.4 175.4 21.4 L 174.6 21.4 C 174.6 21.4 174.61 20.7 174.6 20.7 C 174.6 20.2 174.8 20 175.3 20 C 175.34 19.96 179.5 20 179.5 20 L 179.5 20.5 C 179.5 20.5 176.14 24.73 176.1 24.7 C 175.9 25.02 175.6 25.3 175.6 25.3 L 175.6 25.3 C 175.6 25.3 175.86 25.28 176.3 25.3 C 176.3 25.3 178.7 25.3 178.7 25.3 C 178.9 25.3 179 25.2 179 25 C 179.01 25.02 179 24.5 179 24.5 L 179.8 24.5 C 179.8 24.5 179.78 25.27 179.8 25.3 C 179.8 25.8 179.6 26 179 26 C 179.05 26 174.6 26 174.6 26 L 174.6 25.5 Z M 184.3 22.3 C 184.27 22.28 184.6 22.3 184.6 22.3 C 184.6 22.3 184.61 22.21 184.6 22.2 C 184.6 20.9 184.1 20.5 183 20.5 C 182.7 20.5 181.9 20.6 181.9 21 C 181.87 21.03 181.9 21.4 181.9 21.4 L 181.1 21.4 C 181.1 21.4 181.09 20.84 181.1 20.8 C 181.1 20 182.5 19.8 183.1 19.8 C 185 19.8 185.4 20.8 185.4 22.1 C 185.4 22.1 185.4 25 185.4 25 C 185.4 25.2 185.5 25.3 185.7 25.3 C 185.68 25.29 186.2 25.3 186.2 25.3 L 186.2 26 C 186.2 26 185.36 26 185.4 26 C 184.8 26 184.6 25.8 184.6 25.3 C 184.6 25 184.7 24.8 184.7 24.8 C 184.7 24.8 184.6 24.8 184.6 24.8 C 184.6 24.8 184.1 26.1 182.6 26.1 C 181.6 26.1 180.6 25.6 180.6 24.4 C 180.6 22.4 183.2 22.3 184.3 22.3 Z M 182.8 25.4 C 183.9 25.4 184.6 24.2 184.6 23.2 C 184.61 23.2 184.6 22.9 184.6 22.9 C 184.6 22.9 184.26 22.93 184.3 22.9 C 183.3 22.9 181.4 23 181.4 24.3 C 181.4 24.9 181.9 25.4 182.8 25.4 Z M 183.7 17.6 L 184.6 17.6 L 183.6 19 L 182.9 19 L 183.7 17.6 Z M 187.4 18.5 C 187.4 18.4 187.4 18.3 187.2 18.3 C 187.19 18.27 186.7 18.3 186.7 18.3 L 186.7 17.6 C 186.7 17.6 187.53 17.56 187.5 17.6 C 188 17.6 188.3 17.7 188.3 18.3 C 188.26 18.26 188.3 22.3 188.3 22.3 C 188.3 22.3 188.89 22.27 188.9 22.3 C 189.1 22.3 189.4 22.2 189.6 22 C 189.57 21.98 191.1 20 191.1 20 L 192.1 20 C 192.1 20 190.38 22.17 190.4 22.2 C 190.08 22.54 189.9 22.6 189.9 22.6 L 189.9 22.6 C 189.9 22.6 190.1 22.71 190.3 23.1 C 190.3 23.1 191.4 25 191.4 25 C 191.5 25.2 191.6 25.3 191.9 25.3 C 191.94 25.29 192.3 25.3 192.3 25.3 L 192.3 26 C 192.3 26 191.7 26 191.7 26 C 191.1 26 190.9 25.9 190.7 25.4 C 190.7 25.4 189.5 23.2 189.5 23.2 C 189.3 23 189 23 188.8 23 C 188.82 22.98 188.3 23 188.3 23 L 188.3 26 L 187.4 26 C 187.4 26 187.45 18.54 187.4 18.5 Z M 193.4 18.5 C 193.4 18.4 193.3 18.3 193.1 18.3 C 193.1 18.27 192.6 18.3 192.6 18.3 L 192.6 17.6 C 192.6 17.6 193.45 17.56 193.4 17.6 C 194 17.6 194.2 17.8 194.2 18.3 C 194.2 18.3 194.2 25 194.2 25 C 194.2 25.2 194.3 25.3 194.4 25.3 C 194.44 25.29 194.9 25.3 194.9 25.3 L 194.9 26 C 194.9 26 194.1 26 194.1 26 C 193.6 26 193.4 25.8 193.4 25.3 C 193.4 25.3 193.4 18.5 193.4 18.5 Z M 199.4 22.3 C 199.45 22.28 199.8 22.3 199.8 22.3 C 199.8 22.3 199.79 22.21 199.8 22.2 C 199.8 20.9 199.3 20.5 198.2 20.5 C 197.9 20.5 197 20.6 197 21 C 197.05 21.03 197 21.4 197 21.4 L 196.3 21.4 C 196.3 21.4 196.27 20.84 196.3 20.8 C 196.3 20 197.7 19.8 198.2 19.8 C 200.1 19.8 200.6 20.8 200.6 22.1 C 200.6 22.1 200.6 25 200.6 25 C 200.6 25.2 200.7 25.3 200.9 25.3 C 200.86 25.29 201.4 25.3 201.4 25.3 L 201.4 26 C 201.4 26 200.54 26 200.5 26 C 200 26 199.8 25.8 199.8 25.3 C 199.8 25 199.8 24.8 199.8 24.8 C 199.8 24.8 199.8 24.8 199.8 24.8 C 199.8 24.8 199.3 26.1 197.8 26.1 C 196.8 26.1 195.8 25.6 195.8 24.4 C 195.8 22.4 198.4 22.3 199.4 22.3 Z M 197.9 25.4 C 199.1 25.4 199.8 24.2 199.8 23.2 C 199.79 23.2 199.8 22.9 199.8 22.9 C 199.8 22.9 199.44 22.93 199.4 22.9 C 198.5 22.9 196.6 23 196.6 24.3 C 196.6 24.9 197 25.4 197.9 25.4 Z M 204.8 19.8 C 206.3 19.82 206.8 20.9 206.8 20.9 L 206.8 20.9 C 206.8 20.9 206.81 20.74 206.8 20.5 C 206.8 20.5 206.8 18.5 206.8 18.5 C 206.8 18.4 206.7 18.3 206.5 18.3 C 206.54 18.27 206 18.3 206 18.3 L 206 17.6 C 206 17.6 206.89 17.56 206.9 17.6 C 207.4 17.6 207.6 17.8 207.6 18.3 C 207.6 18.3 207.6 25 207.6 25 C 207.6 25.2 207.7 25.3 207.9 25.3 C 207.88 25.29 208.4 25.3 208.4 25.3 L 208.4 26 C 208.4 26 207.55 26 207.5 26 C 207 26 206.8 25.8 206.8 25.3 C 206.8 25.1 206.9 24.9 206.9 24.9 C 206.85 24.94 206.8 24.9 206.8 24.9 C 206.8 24.9 206.34 26.14 204.8 26.1 C 203.1 26.1 202.1 24.8 202.1 23 C 202.1 21.1 203.3 19.8 204.8 19.8 Z M 206.8 23 C 206.8 21.8 206.2 20.6 204.9 20.6 C 203.8 20.6 203 21.5 203 23 C 203 24.5 203.7 25.4 204.9 25.4 C 205.9 25.4 206.8 24.7 206.8 23 Z M 212.1 19.8 C 213.8 19.8 214.7 21.1 214.7 22.6 C 214.66 22.75 214.6 23 214.6 23 C 214.6 23 210.01 23.01 210 23 C 210 24.5 211.1 25.4 212.3 25.4 C 213.45 25.41 214.2 24.7 214.2 24.7 L 214.6 25.3 C 214.6 25.3 213.68 26.14 212.3 26.1 C 210.5 26.1 209.2 24.8 209.2 23 C 209.2 21 210.5 19.8 212.1 19.8 Z M 213.8 22.4 C 213.8 21.1 213 20.5 212.1 20.5 C 211.1 20.5 210.2 21.2 210 22.4 C 210 22.4 213.8 22.4 213.8 22.4 Z M 219.6 20.9 C 219.6 20.8 219.5 20.7 219.3 20.7 C 219.3 20.67 218.8 20.7 218.8 20.7 L 218.8 20 C 218.8 20 219.62 19.96 219.6 20 C 220.1 20 220.3 20.2 220.3 20.6 C 220.3 20.8 220.3 21 220.3 21 C 220.33 21.01 220.4 21 220.4 21 C 220.4 21 220.83 19.82 222.4 19.8 C 224 19.8 225.1 21.1 225.1 23 C 225.1 24.9 223.9 26.1 222.4 26.1 C 220.88 26.14 220.4 25 220.4 25 L 220.4 25 C 220.4 25 220.38 25.22 220.4 25.5 C 220.38 25.53 220.4 28.4 220.4 28.4 L 219.6 28.4 C 219.6 28.4 219.56 20.94 219.6 20.9 Z M 222.3 25.4 C 223.3 25.4 224.2 24.5 224.2 23 C 224.2 21.5 223.4 20.6 222.3 20.6 C 221.3 20.6 220.4 21.3 220.4 23 C 220.4 24.2 221 25.4 222.3 25.4 Z M 229.2 19.8 C 231 19.8 232.4 21.2 232.4 23 C 232.4 24.8 231 26.1 229.2 26.1 C 227.5 26.1 226 24.8 226 23 C 226 21.2 227.5 19.8 229.2 19.8 Z M 229.2 25.4 C 230.5 25.4 231.6 24.4 231.6 23 C 231.6 21.6 230.5 20.6 229.2 20.6 C 227.9 20.6 226.9 21.6 226.9 23 C 226.9 24.4 227.9 25.4 229.2 25.4 Z M 233.2 25.5 C 233.2 25.5 236.64 21.24 236.6 21.2 C 236.86 20.95 237.1 20.7 237.1 20.7 L 237.1 20.7 C 237.1 20.7 236.91 20.68 236.5 20.7 C 236.5 20.7 234.3 20.7 234.3 20.7 C 234.1 20.7 234 20.8 234 20.9 C 234.04 20.95 234 21.4 234 21.4 L 233.3 21.4 C 233.3 21.4 233.28 20.7 233.3 20.7 C 233.3 20.2 233.5 20 234 20 C 234.01 19.96 238.2 20 238.2 20 L 238.2 20.5 C 238.2 20.5 234.81 24.73 234.8 24.7 C 234.57 25.02 234.3 25.3 234.3 25.3 L 234.3 25.3 C 234.3 25.3 234.52 25.28 234.9 25.3 C 234.9 25.3 237.4 25.3 237.4 25.3 C 237.6 25.3 237.7 25.2 237.7 25 C 237.68 25.02 237.7 24.5 237.7 24.5 L 238.4 24.5 C 238.4 24.5 238.45 25.27 238.4 25.3 C 238.4 25.8 238.2 26 237.7 26 C 237.72 26 233.2 26 233.2 26 L 233.2 25.5 Z M 242.3 19.8 C 244.1 19.8 245.5 21.2 245.5 23 C 245.5 24.8 244.1 26.1 242.3 26.1 C 240.5 26.1 239.1 24.8 239.1 23 C 239.1 21.2 240.5 19.8 242.3 19.8 Z M 242.3 25.4 C 243.6 25.4 244.7 24.4 244.7 23 C 244.7 21.6 243.6 20.6 242.3 20.6 C 241 20.6 240 21.6 240 23 C 240 24.4 241 25.4 242.3 25.4 Z M 247 20.9 C 247 20.8 246.9 20.7 246.8 20.7 C 246.75 20.67 246.2 20.7 246.2 20.7 L 246.2 20 C 246.2 20 247.09 19.96 247.1 20 C 247.6 20 247.8 20.2 247.8 20.6 C 247.8 20.6 247.8 21.1 247.8 21.1 C 247.82 21.31 247.8 21.5 247.8 21.5 C 247.8 21.5 247.82 21.51 247.8 21.5 C 248.1 20.6 248.8 19.9 249.7 19.9 C 249.9 19.9 250.1 19.9 250.1 19.9 C 250.05 19.94 250.1 20.7 250.1 20.7 C 250.1 20.7 249.91 20.72 249.8 20.7 C 248.9 20.7 248.3 21.4 248 22.3 C 247.9 22.7 247.8 23.1 247.8 23.5 C 247.83 23.46 247.8 26 247.8 26 L 247 26 C 247 26 247.02 20.94 247 20.9 Z M 253.7 19.8 C 255.5 19.8 256.9 21.2 256.9 23 C 256.9 24.8 255.5 26.1 253.7 26.1 C 252 26.1 250.6 24.8 250.6 23 C 250.6 21.2 252 19.8 253.7 19.8 Z M 253.7 25.4 C 255 25.4 256.1 24.4 256.1 23 C 256.1 21.6 255 20.6 253.7 20.6 C 252.5 20.6 251.4 21.6 251.4 23 C 251.4 24.4 252.5 25.4 253.7 25.4 Z M 258 20.9 C 257.9 20.7 257.8 20.7 257.6 20.7 C 257.57 20.67 257.5 20.7 257.5 20.7 L 257.5 20 C 257.5 20 257.78 19.96 257.8 20 C 258.4 20 258.5 20.1 258.7 20.6 C 258.7 20.6 260.2 24.4 260.2 24.4 C 260.3 24.69 260.4 25.1 260.4 25.1 L 260.4 25.1 C 260.4 25.1 260.52 24.69 260.6 24.4 C 260.6 24.4 262.1 20.6 262.1 20.6 C 262.3 20.1 262.5 20 263 20 C 263.02 19.96 263.3 20 263.3 20 L 263.3 20.7 C 263.3 20.7 263.23 20.67 263.2 20.7 C 263 20.7 262.9 20.7 262.8 20.9 C 262.81 20.95 260.8 26 260.8 26 L 260 26 C 260 26 257.98 20.95 258 20.9 Z M 267.6 22.3 C 267.62 22.28 268 22.3 268 22.3 C 268 22.3 267.96 22.21 268 22.2 C 268 20.9 267.5 20.5 266.4 20.5 C 266.1 20.5 265.2 20.6 265.2 21 C 265.22 21.03 265.2 21.4 265.2 21.4 L 264.4 21.4 C 264.4 21.4 264.44 20.84 264.4 20.8 C 264.4 20 265.9 19.8 266.4 19.8 C 268.3 19.8 268.8 20.8 268.8 22.1 C 268.8 22.1 268.8 25 268.8 25 C 268.8 25.2 268.9 25.3 269 25.3 C 269.04 25.29 269.5 25.3 269.5 25.3 L 269.5 26 C 269.5 26 268.71 26 268.7 26 C 268.2 26 268 25.8 268 25.3 C 268 25 268 24.8 268 24.8 C 268 24.8 268 24.8 268 24.8 C 268 24.8 267.5 26.1 266 26.1 C 265 26.1 263.9 25.6 263.9 24.4 C 263.9 22.4 266.6 22.3 267.6 22.3 Z M 266.1 25.4 C 267.3 25.4 268 24.2 268 23.2 C 267.96 23.2 268 22.9 268 22.9 C 268 22.9 267.61 22.93 267.6 22.9 C 266.7 22.9 264.8 23 264.8 24.3 C 264.8 24.9 265.2 25.4 266.1 25.4 Z M 270.8 20.9 C 270.8 20.8 270.7 20.7 270.6 20.7 C 270.57 20.67 270.1 20.7 270.1 20.7 L 270.1 20 C 270.1 20 270.91 19.96 270.9 20 C 271.4 20 271.6 20.2 271.6 20.6 C 271.6 20.6 271.6 20.9 271.6 20.9 C 271.64 21.15 271.6 21.3 271.6 21.3 C 271.6 21.3 271.64 21.34 271.6 21.3 C 271.9 20.8 272.6 19.8 274 19.8 C 275.5 19.8 276.1 20.7 276.1 22.2 C 276.1 22.2 276.1 25 276.1 25 C 276.1 25.2 276.2 25.3 276.3 25.3 C 276.33 25.29 276.8 25.3 276.8 25.3 L 276.8 26 C 276.8 26 275.98 26 276 26 C 275.5 26 275.3 25.8 275.3 25.3 C 275.3 25.3 275.3 22.4 275.3 22.4 C 275.3 21.4 275.1 20.6 273.9 20.6 C 272.9 20.6 272 21.3 271.7 22.3 C 271.7 22.5 271.7 22.8 271.7 23.1 C 271.65 23.11 271.7 26 271.7 26 L 270.8 26 C 270.8 26 270.84 20.94 270.8 20.9 Z M 278.2 20.9 C 278.2 20.8 278.1 20.7 277.9 20.7 C 277.94 20.67 277.4 20.7 277.4 20.7 L 277.4 20 C 277.4 20 278.29 19.96 278.3 20 C 278.8 20 279 20.2 279 20.7 C 279 20.7 279 25 279 25 C 279 25.2 279.1 25.3 279.3 25.3 C 279.28 25.29 279.8 25.3 279.8 25.3 L 279.8 26 C 279.8 26 278.94 26 278.9 26 C 278.4 26 278.2 25.8 278.2 25.3 C 278.2 25.3 278.2 20.9 278.2 20.9 Z M 279 17.6 L 279.9 17.6 L 278.9 19 L 278.2 19 L 279 17.6 Z M 281.9 25 L 281.1 27.2 L 280.4 27.2 L 281.1 25 L 281.9 25 Z M 286.8 24.5 C 286.8 24.5 287.44 25.44 288.6 25.4 C 289.3 25.4 289.9 25.1 289.9 24.5 C 289.9 23.2 286.5 23.4 286.5 21.5 C 286.5 20.4 287.5 19.8 288.7 19.8 C 289.3 19.8 290.5 20.1 290.5 20.9 C 290.5 20.91 290.5 21.4 290.5 21.4 L 289.7 21.4 C 289.7 21.4 289.74 21.14 289.7 21.1 C 289.7 20.7 289.1 20.5 288.7 20.5 C 287.9 20.5 287.3 20.8 287.3 21.4 C 287.3 22.8 290.7 22.4 290.7 24.5 C 290.7 25.5 289.8 26.1 288.6 26.1 C 287.05 26.14 286.3 25.1 286.3 25.1 L 286.8 24.5 Z M 292.2 18.5 C 292.2 18.4 292.1 18.3 292 18.3 C 291.98 18.27 291.5 18.3 291.5 18.3 L 291.5 17.6 C 291.5 17.6 292.33 17.56 292.3 17.6 C 292.8 17.6 293.1 17.7 293.1 18.3 C 293.06 18.26 293.1 22.3 293.1 22.3 C 293.1 22.3 293.68 22.27 293.7 22.3 C 293.9 22.3 294.2 22.2 294.4 22 C 294.37 21.98 295.9 20 295.9 20 L 296.9 20 C 296.9 20 295.17 22.17 295.2 22.2 C 294.87 22.54 294.7 22.6 294.7 22.6 L 294.7 22.6 C 294.7 22.6 294.89 22.71 295.1 23.1 C 295.1 23.1 296.2 25 296.2 25 C 296.3 25.2 296.4 25.3 296.7 25.3 C 296.73 25.29 297.1 25.3 297.1 25.3 L 297.1 26 C 297.1 26 296.49 26 296.5 26 C 295.9 26 295.7 25.9 295.4 25.4 C 295.4 25.4 294.2 23.2 294.2 23.2 C 294.1 23 293.8 23 293.6 23 C 293.61 22.98 293.1 23 293.1 23 L 293.1 26 L 292.2 26 C 292.2 26 292.24 18.54 292.2 18.5 Z M 298.2 20.9 C 298.2 20.8 298.1 20.7 298 20.7 C 297.97 20.67 297.5 20.7 297.5 20.7 L 297.5 20 C 297.5 20 298.32 19.96 298.3 20 C 298.8 20 299 20.2 299 20.7 C 299 20.7 299 23.6 299 23.6 C 299 24.5 299.2 25.4 300.4 25.4 C 301.7 25.4 302.6 24.2 302.6 22.9 C 302.59 22.86 302.6 20 302.6 20 L 303.4 20 C 303.4 20 303.4 25.03 303.4 25 C 303.4 25.2 303.5 25.3 303.7 25.3 C 303.67 25.29 304.2 25.3 304.2 25.3 L 304.2 26 C 304.2 26 303.34 26 303.3 26 C 302.8 26 302.6 25.8 302.6 25.3 C 302.6 25.3 302.6 25.1 302.6 25.1 C 302.6 24.8 302.6 24.6 302.6 24.6 C 302.6 24.6 302.6 24.6 302.6 24.6 C 302.4 25.2 301.6 26.1 300.3 26.1 C 298.8 26.1 298.2 25.4 298.2 23.8 C 298.2 23.8 298.2 20.9 298.2 20.9 Z M 301.2 17.6 L 302.1 17.6 L 301.1 19 L 300.4 19 L 301.2 17.6 Z M 305.3 24.5 C 305.3 24.5 305.93 25.44 307.1 25.4 C 307.8 25.4 308.4 25.1 308.4 24.5 C 308.4 23.2 305 23.4 305 21.5 C 305 20.4 305.9 19.8 307.2 19.8 C 307.8 19.8 309 20.1 309 20.9 C 308.99 20.91 309 21.4 309 21.4 L 308.2 21.4 C 308.2 21.4 308.23 21.14 308.2 21.1 C 308.2 20.7 307.6 20.5 307.2 20.5 C 306.3 20.5 305.8 20.8 305.8 21.4 C 305.8 22.8 309.2 22.4 309.2 24.5 C 309.2 25.5 308.3 26.1 307.1 26.1 C 305.54 26.14 304.8 25.1 304.8 25.1 L 305.3 24.5 Z M 313.2 19.8 C 314.9 19.8 315.7 21.1 315.7 22.6 C 315.71 22.75 315.7 23 315.7 23 C 315.7 23 311.06 23.01 311.1 23 C 311.1 24.5 312.2 25.4 313.4 25.4 C 314.5 25.41 315.2 24.7 315.2 24.7 L 315.6 25.3 C 315.6 25.3 314.73 26.14 313.4 26.1 C 311.6 26.1 310.2 24.8 310.2 23 C 310.2 21 311.6 19.8 313.2 19.8 Z M 314.9 22.4 C 314.8 21.1 314.1 20.5 313.2 20.5 C 312.2 20.5 311.3 21.2 311.1 22.4 C 311.1 22.4 314.9 22.4 314.9 22.4 Z M 317.3 20.9 C 317.3 20.8 317.3 20.7 317.1 20.7 C 317.08 20.67 316.6 20.7 316.6 20.7 L 316.6 20 C 316.6 20 317.42 19.96 317.4 20 C 317.9 20 318.2 20.2 318.2 20.6 C 318.2 20.6 318.2 20.9 318.2 20.9 C 318.15 21.15 318.1 21.3 318.1 21.3 C 318.1 21.3 318.15 21.34 318.2 21.3 C 318.4 20.8 319.1 19.8 320.6 19.8 C 322.1 19.8 322.6 20.7 322.6 22.2 C 322.6 22.2 322.6 25 322.6 25 C 322.6 25.2 322.7 25.3 322.8 25.3 C 322.84 25.29 323.3 25.3 323.3 25.3 L 323.3 26 C 323.3 26 322.49 26 322.5 26 C 322 26 321.8 25.8 321.8 25.3 C 321.8 25.3 321.8 22.4 321.8 22.4 C 321.8 21.4 321.6 20.6 320.5 20.6 C 319.4 20.6 318.5 21.3 318.3 22.3 C 318.2 22.5 318.2 22.8 318.2 23.1 C 318.16 23.11 318.2 26 318.2 26 L 317.3 26 C 317.3 26 317.35 20.94 317.3 20.9 Z M 327.3 19.8 C 329 19.8 330.5 21.2 330.5 23 C 330.5 24.8 329 26.1 327.3 26.1 C 325.5 26.1 324.1 24.8 324.1 23 C 324.1 21.2 325.5 19.8 327.3 19.8 Z M 327.3 25.4 C 328.6 25.4 329.6 24.4 329.6 23 C 329.6 21.6 328.6 20.6 327.3 20.6 C 326 20.6 324.9 21.6 324.9 23 C 324.9 24.4 326 25.4 327.3 25.4 Z M 331.7 24.5 C 331.7 24.5 332.42 25.44 333.6 25.4 C 334.3 25.4 334.9 25.1 334.9 24.5 C 334.9 23.2 331.5 23.4 331.5 21.5 C 331.5 20.4 332.4 19.8 333.6 19.8 C 334.3 19.8 335.5 20.1 335.5 20.9 C 335.48 20.91 335.5 21.4 335.5 21.4 L 334.7 21.4 C 334.7 21.4 334.71 21.14 334.7 21.1 C 334.7 20.7 334.1 20.5 333.7 20.5 C 332.8 20.5 332.3 20.8 332.3 21.4 C 332.3 22.8 335.7 22.4 335.7 24.5 C 335.7 25.5 334.8 26.1 333.6 26.1 C 332.02 26.14 331.3 25.1 331.3 25.1 L 331.7 24.5 Z M 337.3 20.6 L 336.5 20.6 L 336.5 20 L 337.3 20 L 337.3 18.3 L 338.1 18.3 L 338.1 20 L 339.7 20 L 339.7 20.6 L 338.1 20.6 C 338.1 20.6 338.14 23.72 338.1 23.7 C 338.1 25.1 339 25.3 339.5 25.3 C 339.67 25.32 339.8 25.3 339.8 25.3 L 339.8 26 C 339.8 26 339.63 26.05 339.4 26 C 338.7 26 337.3 25.8 337.3 23.8 C 337.33 23.8 337.3 20.6 337.3 20.6 Z M 341.3 20.9 C 341.3 20.8 341.3 20.7 341.1 20.7 C 341.08 20.67 340.6 20.7 340.6 20.7 L 340.6 20 C 340.6 20 341.43 19.96 341.4 20 C 341.9 20 342.2 20.2 342.2 20.7 C 342.2 20.7 342.2 25 342.2 25 C 342.2 25.2 342.3 25.3 342.4 25.3 C 342.43 25.29 342.9 25.3 342.9 25.3 L 342.9 26 C 342.9 26 342.08 26 342.1 26 C 341.6 26 341.3 25.8 341.3 25.3 C 341.3 25.3 341.3 20.9 341.3 20.9 Z M 342.1 17.6 L 343 17.6 L 342 19 L 341.3 19 L 342.1 17.6 Z M 345.2 22 C 345.2 20.3 344.8 18.7 343.9 17.2 C 343.9 17.2 344.6 17.2 344.6 17.2 C 345.5 18.6 345.9 20.3 345.9 22 C 345.9 23.9 345.4 25.7 344.6 27.1 C 344.6 27.1 343.8 27.1 343.8 27.1 C 344.7 25.5 345.2 23.7 345.2 22 Z M 347.8 25 L 348.7 25 L 348.7 26 L 347.8 26 L 347.8 25 Z " stroke="none" fill="#000"/>  </g>  <g id="Polygon75594">    <path d="M 4.7 0.3 C 6.79 0.34 7.8 1.4 7.8 1.4 L 6.9 2.5 C 6.9 2.5 6.04 1.79 4.7 1.8 C 3.3 1.8 2 3 2 4.7 C 2 6.5 3.3 7.7 4.8 7.7 C 6.16 7.68 7 6.8 7 6.8 C 7 6.8 6.96 6.16 7 6.2 C 7 6 6.9 5.9 6.7 5.9 C 6.7 5.89 6.2 5.9 6.2 5.9 L 6.2 4.6 C 6.2 4.6 7.56 4.56 7.6 4.6 C 8.1 4.6 8.4 4.8 8.4 5.4 C 8.38 5.36 8.4 9 8.4 9 L 7 9 C 7 9 7.03 8.59 7 8.6 C 7 8.4 7 8.2 7 8.2 C 7.04 8.23 7 8.2 7 8.2 C 7 8.2 6.11 9.14 4.5 9.1 C 2.3 9.1 0.4 7.4 0.4 4.7 C 0.4 2.2 2.2 0.3 4.7 0.3 Z M 10 4.4 C 10 4.3 9.9 4.2 9.7 4.2 C 9.74 4.18 9.3 4.2 9.3 4.2 L 9.3 2.9 C 9.3 2.9 10.66 2.88 10.7 2.9 C 11.2 2.9 11.5 3.1 11.5 3.6 C 11.5 3.6 11.5 4 11.5 4 C 11.47 4.21 11.4 4.4 11.4 4.4 C 11.4 4.4 11.47 4.37 11.5 4.4 C 11.7 3.5 12.5 2.8 13.4 2.8 C 13.55 2.8 13.7 2.8 13.7 2.8 L 13.7 4.3 C 13.7 4.3 13.53 4.3 13.3 4.3 C 12.7 4.3 11.9 4.7 11.7 5.6 C 11.6 5.9 11.5 6.2 11.5 6.6 C 11.52 6.58 11.5 9 11.5 9 L 10 9 C 10 9 10.01 4.44 10 4.4 Z M 17.6 5.2 C 17.63 5.16 17.8 5.2 17.8 5.2 C 17.8 5.2 17.82 5.11 17.8 5.1 C 17.8 4.2 17.5 3.9 16.7 3.9 C 16.4 3.9 15.9 4 15.9 4.3 C 15.87 4.32 15.9 4.6 15.9 4.6 L 14.5 4.6 C 14.5 4.6 14.46 4 14.5 4 C 14.5 2.9 16.1 2.7 16.7 2.7 C 18.7 2.7 19.3 3.8 19.3 5.2 C 19.3 5.2 19.3 7.5 19.3 7.5 C 19.3 7.6 19.4 7.7 19.6 7.7 C 19.61 7.72 20.1 7.7 20.1 7.7 L 20.1 9 C 20.1 9 18.72 9 18.7 9 C 18.2 9 17.9 8.7 17.9 8.3 C 17.9 8.2 18 8.1 18 8.1 C 17.95 8.06 17.9 8.1 17.9 8.1 C 17.9 8.1 17.46 9.14 16.1 9.1 C 15 9.1 14 8.5 14 7.2 C 14 5.3 16.6 5.2 17.6 5.2 Z M 16.5 8 C 17.3 8 17.8 7.1 17.8 6.3 C 17.84 6.35 17.8 6.2 17.8 6.2 C 17.8 6.2 17.58 6.2 17.6 6.2 C 16.8 6.2 15.5 6.3 15.5 7.2 C 15.5 7.6 15.8 8 16.5 8 Z M 21.3 4.1 L 20.6 4.1 L 20.6 2.9 L 21.3 2.9 C 21.3 2.9 21.31 2.7 21.3 2.7 C 21.3 0.7 23 0.4 23.8 0.4 C 24.1 0.4 24.3 0.5 24.3 0.5 C 24.32 0.48 24.3 1.8 24.3 1.8 C 24.3 1.8 24.19 1.74 24 1.7 C 23.6 1.7 22.8 1.8 22.8 2.7 C 22.83 2.74 22.8 2.9 22.8 2.9 L 24.1 2.9 L 24.1 4.1 L 22.8 4.1 L 22.8 9 L 21.3 9 L 21.3 4.1 Z M 28 8.2 C 28 8.2 30.78 4.74 30.8 4.7 C 31.06 4.39 31.3 4.2 31.3 4.2 L 31.3 4.2 C 31.3 4.2 31.12 4.18 30.7 4.2 C 30.7 4.2 29.6 4.2 29.6 4.2 C 29.5 4.2 29.4 4.3 29.4 4.4 C 29.36 4.44 29.4 4.8 29.4 4.8 L 28 4.8 C 28 4.8 27.98 3.7 28 3.7 C 28 3.1 28.2 2.9 28.8 2.9 C 28.8 2.88 33.3 2.9 33.3 2.9 L 33.3 3.7 C 33.3 3.7 30.47 7.15 30.5 7.2 C 30.19 7.49 30 7.7 30 7.7 L 30 7.7 C 30 7.7 30.13 7.7 30.5 7.7 C 30.5 7.7 31.9 7.7 31.9 7.7 C 32 7.7 32.1 7.6 32.1 7.4 C 32.14 7.44 32.1 7.1 32.1 7.1 L 33.5 7.1 C 33.5 7.1 33.51 8.18 33.5 8.2 C 33.5 8.8 33.3 9 32.7 9 C 32.71 9 28 9 28 9 L 28 8.2 Z M 37.4 2.7 C 39.3 2.7 40.7 4.1 40.7 5.9 C 40.7 7.8 39.3 9.1 37.4 9.1 C 35.5 9.1 34 7.8 34 5.9 C 34 4.1 35.5 2.7 37.4 2.7 Z M 37.4 7.8 C 38.4 7.8 39.2 7.1 39.2 5.9 C 39.2 4.8 38.4 4 37.4 4 C 36.4 4 35.6 4.8 35.6 5.9 C 35.6 7.1 36.4 7.8 37.4 7.8 Z M 42 2 C 42 1.9 41.9 1.8 41.7 1.8 C 41.71 1.78 41.2 1.8 41.2 1.8 L 41.2 0.5 C 41.2 0.5 42.68 0.48 42.7 0.5 C 43.2 0.5 43.5 0.7 43.5 1.3 C 43.5 1.3 43.5 3.1 43.5 3.1 C 43.5 3.37 43.5 3.6 43.5 3.6 L 43.5 3.6 C 43.5 3.6 44.04 2.74 45.3 2.7 C 47 2.7 48 4 48 5.9 C 48 7.9 46.9 9.1 45.2 9.1 C 43.97 9.14 43.4 8.3 43.4 8.3 L 43.4 8.3 C 43.4 8.3 43.41 8.45 43.4 8.7 C 43.41 8.69 43.4 9 43.4 9 L 42 9 C 42 9 41.98 2.04 42 2 Z M 45 7.9 C 45.8 7.9 46.5 7.2 46.5 6 C 46.5 4.8 45.9 4 45 4 C 44.2 4 43.5 4.6 43.5 6 C 43.5 6.9 44 7.9 45 7.9 Z M 49.4 4.4 C 49.4 4.3 49.3 4.2 49.2 4.2 C 49.18 4.18 48.7 4.2 48.7 4.2 L 48.7 2.9 C 48.7 2.9 50.09 2.88 50.1 2.9 C 50.6 2.9 50.9 3.1 50.9 3.6 C 50.9 3.6 50.9 4 50.9 4 C 50.9 4.21 50.9 4.4 50.9 4.4 C 50.9 4.4 50.9 4.37 50.9 4.4 C 51.2 3.5 51.9 2.8 52.8 2.8 C 52.98 2.8 53.1 2.8 53.1 2.8 L 53.1 4.3 C 53.1 4.3 52.97 4.3 52.8 4.3 C 52.1 4.3 51.4 4.7 51.1 5.6 C 51 5.9 51 6.2 51 6.6 C 50.95 6.58 51 9 51 9 L 49.4 9 C 49.4 9 49.44 4.44 49.4 4.4 Z M 57.1 5.2 C 57.06 5.16 57.3 5.2 57.3 5.2 C 57.3 5.2 57.25 5.11 57.3 5.1 C 57.3 4.2 56.9 3.9 56.1 3.9 C 55.8 3.9 55.3 4 55.3 4.3 C 55.31 4.32 55.3 4.6 55.3 4.6 L 53.9 4.6 C 53.9 4.6 53.89 4 53.9 4 C 53.9 2.9 55.5 2.7 56.1 2.7 C 58.2 2.7 58.8 3.8 58.8 5.2 C 58.8 5.2 58.8 7.5 58.8 7.5 C 58.8 7.6 58.9 7.7 59 7.7 C 59.04 7.72 59.5 7.7 59.5 7.7 L 59.5 9 C 59.5 9 58.15 9 58.2 9 C 57.6 9 57.4 8.7 57.4 8.3 C 57.4 8.2 57.4 8.1 57.4 8.1 C 57.38 8.06 57.4 8.1 57.4 8.1 C 57.4 8.1 56.89 9.14 55.5 9.1 C 54.4 9.1 53.4 8.5 53.4 7.2 C 53.4 5.3 56.1 5.2 57.1 5.2 Z M 55.9 8 C 56.7 8 57.3 7.1 57.3 6.3 C 57.28 6.35 57.3 6.2 57.3 6.2 C 57.3 6.2 57.01 6.2 57 6.2 C 56.2 6.2 55 6.3 55 7.2 C 55 7.6 55.3 8 55.9 8 Z M 60.1 8.2 C 60.1 8.2 62.89 4.74 62.9 4.7 C 63.17 4.39 63.4 4.2 63.4 4.2 L 63.4 4.2 C 63.4 4.2 63.23 4.18 62.8 4.2 C 62.8 4.2 61.7 4.2 61.7 4.2 C 61.6 4.2 61.5 4.3 61.5 4.4 C 61.47 4.44 61.5 4.8 61.5 4.8 L 60.1 4.8 C 60.1 4.8 60.1 3.7 60.1 3.7 C 60.1 3.1 60.3 2.9 60.9 2.9 C 60.91 2.88 65.4 2.9 65.4 2.9 L 65.4 3.7 C 65.4 3.7 62.58 7.15 62.6 7.2 C 62.3 7.49 62.1 7.7 62.1 7.7 L 62.1 7.7 C 62.1 7.7 62.24 7.7 62.6 7.7 C 62.6 7.7 64 7.7 64 7.7 C 64.2 7.7 64.2 7.6 64.2 7.4 C 64.25 7.44 64.2 7.1 64.2 7.1 L 65.6 7.1 C 65.6 7.1 65.63 8.18 65.6 8.2 C 65.6 8.8 65.4 9 64.8 9 C 64.82 9 60.1 9 60.1 9 L 60.1 8.2 Z M 66.9 4.4 C 66.9 4.3 66.8 4.2 66.6 4.2 C 66.59 4.18 66.1 4.2 66.1 4.2 L 66.1 2.9 C 66.1 2.9 67.56 2.88 67.6 2.9 C 68.1 2.9 68.4 3.1 68.4 3.7 C 68.4 3.7 68.4 6.5 68.4 6.5 C 68.4 7.2 68.6 7.8 69.3 7.8 C 70.4 7.8 71 6.8 71 5.7 C 71.03 5.69 71 2.9 71 2.9 L 72.6 2.9 C 72.6 2.9 72.55 7.45 72.6 7.5 C 72.6 7.6 72.6 7.7 72.8 7.7 C 72.81 7.72 73.3 7.7 73.3 7.7 L 73.3 9 C 73.3 9 71.89 9 71.9 9 C 71.4 9 71.1 8.7 71.1 8.3 C 71.1 8.3 71.1 8.1 71.1 8.1 C 71.1 8 71.1 7.9 71.1 7.9 C 71.1 7.9 71.1 7.9 71.1 7.9 C 70.8 8.5 70 9.1 69 9.1 C 67.7 9.1 66.9 8.5 66.9 6.8 C 66.9 6.8 66.9 4.4 66.9 4.4 Z M 74.9 0.5 L 76.2 0.5 L 76.2 1.9 L 74.9 1.9 L 74.9 0.5 Z M 73.6 10.2 C 74 10.2 74.8 10.1 74.8 9.1 C 74.8 9.1 74.8 4.4 74.8 4.4 C 74.8 4.3 74.7 4.2 74.5 4.2 C 74.53 4.18 74.1 4.2 74.1 4.2 L 74.1 2.9 C 74.1 2.9 75.5 2.88 75.5 2.9 C 76.1 2.9 76.3 3.1 76.3 3.7 C 76.3 3.7 76.3 9.2 76.3 9.2 C 76.3 11.2 74.6 11.5 73.8 11.5 C 73.5 11.5 73.3 11.4 73.3 11.4 C 73.31 11.45 73.3 10.2 73.3 10.2 C 73.3 10.2 73.42 10.19 73.6 10.2 Z M 80.7 2.7 C 82.4 2.7 83.4 4 83.4 5.6 C 83.4 5.82 83.4 6.2 83.4 6.2 C 83.4 6.2 79.14 6.2 79.1 6.2 C 79.3 7.3 80.1 7.8 81 7.8 C 81.96 7.85 82.7 7.2 82.7 7.2 L 83.3 8.2 C 83.3 8.2 82.39 9.14 80.9 9.1 C 78.8 9.1 77.6 7.7 77.6 5.9 C 77.6 4.1 78.9 2.7 80.7 2.7 Z M 81.8 5.1 C 81.8 4.4 81.3 3.9 80.7 3.9 C 79.9 3.9 79.4 4.4 79.2 5.1 C 79.2 5.1 81.8 5.1 81.8 5.1 Z M 88.1 4.4 C 88.1 4.3 88 4.2 87.8 4.2 C 87.79 4.18 87.3 4.2 87.3 4.2 L 87.3 2.9 C 87.3 2.9 88.67 2.88 88.7 2.9 C 89.2 2.9 89.4 3.1 89.4 3.5 C 89.4 3.6 89.4 3.7 89.4 3.7 C 89.43 3.71 89.5 3.7 89.5 3.7 C 89.5 3.7 89.97 2.74 91.4 2.7 C 93.1 2.7 94.1 4 94.1 5.9 C 94.1 7.9 92.9 9.1 91.3 9.1 C 90.11 9.14 89.6 8.3 89.6 8.3 L 89.5 8.3 C 89.5 8.3 89.57 8.56 89.6 8.9 C 89.57 8.87 89.6 11.4 89.6 11.4 L 88.1 11.4 C 88.1 11.4 88.06 4.44 88.1 4.4 Z M 91 7.9 C 91.9 7.9 92.6 7.2 92.6 6 C 92.6 4.8 92 4 91.1 4 C 90.3 4 89.5 4.6 89.5 6 C 89.5 6.9 90 7.9 91 7.9 Z M 98.2 2.7 C 100.1 2.7 101.6 4.1 101.6 5.9 C 101.6 7.8 100.1 9.1 98.2 9.1 C 96.4 9.1 94.9 7.8 94.9 5.9 C 94.9 4.1 96.4 2.7 98.2 2.7 Z M 98.2 7.8 C 99.2 7.8 100.1 7.1 100.1 5.9 C 100.1 4.8 99.2 4 98.2 4 C 97.3 4 96.4 4.8 96.4 5.9 C 96.4 7.1 97.3 7.8 98.2 7.8 Z M 103 4.4 C 103 4.3 102.9 4.2 102.7 4.2 C 102.72 4.18 102.2 4.2 102.2 4.2 L 102.2 2.9 C 102.2 2.9 103.63 2.88 103.6 2.9 C 104.2 2.9 104.4 3.1 104.4 3.6 C 104.4 3.6 104.4 4 104.4 4 C 104.45 4.21 104.4 4.4 104.4 4.4 C 104.4 4.4 104.45 4.37 104.4 4.4 C 104.7 3.5 105.5 2.8 106.4 2.8 C 106.52 2.8 106.7 2.8 106.7 2.8 L 106.7 4.3 C 106.7 4.3 106.51 4.3 106.3 4.3 C 105.6 4.3 104.9 4.7 104.6 5.6 C 104.5 5.9 104.5 6.2 104.5 6.6 C 104.49 6.58 104.5 9 104.5 9 L 103 9 C 103 9 102.98 4.44 103 4.4 Z M 110.4 2.7 C 112.3 2.7 113.8 4.1 113.8 5.9 C 113.8 7.8 112.3 9.1 110.4 9.1 C 108.6 9.1 107.1 7.8 107.1 5.9 C 107.1 4.1 108.6 2.7 110.4 2.7 Z M 110.4 7.8 C 111.4 7.8 112.3 7.1 112.3 5.9 C 112.3 4.8 111.4 4 110.4 4 C 109.4 4 108.6 4.8 108.6 5.9 C 108.6 7.1 109.4 7.8 110.4 7.8 Z M 114.7 4.4 C 114.6 4.2 114.5 4.2 114.3 4.2 C 114.33 4.18 114.2 4.2 114.2 4.2 L 114.2 2.9 C 114.2 2.9 115.08 2.88 115.1 2.9 C 115.6 2.9 115.8 3 116 3.5 C 116 3.5 117.1 6.7 117.1 6.7 C 117.26 7.03 117.4 7.5 117.4 7.5 L 117.4 7.5 C 117.4 7.5 117.48 7.03 117.6 6.7 C 117.6 6.7 118.7 3.5 118.7 3.5 C 118.9 3 119.2 2.9 119.6 2.9 C 119.65 2.88 120.5 2.9 120.5 2.9 L 120.5 4.2 C 120.5 4.2 120.32 4.18 120.3 4.2 C 120.2 4.2 120 4.2 120 4.4 C 119.99 4.39 118.2 9 118.2 9 L 116.4 9 C 116.4 9 114.67 4.39 114.7 4.4 Z M 121.6 4.4 C 121.6 4.3 121.5 4.2 121.3 4.2 C 121.33 4.18 120.9 4.2 120.9 4.2 L 120.9 2.9 C 120.9 2.9 122.25 2.88 122.3 2.9 C 122.8 2.9 123.1 3.1 123.1 3.6 C 123.1 3.6 123.1 3.7 123.1 3.7 C 123.1 3.9 123 4 123 4 C 123 4 123.1 4 123.1 4 C 123.3 3.5 124 2.7 125.2 2.7 C 126.6 2.7 127.4 3.4 127.4 5.1 C 127.4 5.1 127.4 7.5 127.4 7.5 C 127.4 7.6 127.4 7.7 127.6 7.7 C 127.62 7.72 128.1 7.7 128.1 7.7 L 128.1 9 C 128.1 9 126.65 9 126.6 9 C 126.1 9 125.8 8.8 125.8 8.2 C 125.8 8.2 125.8 5.4 125.8 5.4 C 125.8 4.6 125.6 4.1 124.9 4.1 C 124.1 4.1 123.4 4.6 123.2 5.4 C 123.1 5.6 123.1 5.9 123.1 6.2 C 123.11 6.19 123.1 9 123.1 9 L 121.6 9 C 121.6 9 121.59 4.44 121.6 4.4 Z M 132.3 5.2 C 132.35 5.16 132.5 5.2 132.5 5.2 C 132.5 5.2 132.54 5.11 132.5 5.1 C 132.5 4.2 132.2 3.9 131.4 3.9 C 131.1 3.9 130.6 4 130.6 4.3 C 130.59 4.32 130.6 4.6 130.6 4.6 L 129.2 4.6 C 129.2 4.6 129.18 4 129.2 4 C 129.2 2.9 130.8 2.7 131.4 2.7 C 133.5 2.7 134.1 3.8 134.1 5.2 C 134.1 5.2 134.1 7.5 134.1 7.5 C 134.1 7.6 134.2 7.7 134.3 7.7 C 134.32 7.72 134.8 7.7 134.8 7.7 L 134.8 9 C 134.8 9 133.44 9 133.4 9 C 132.9 9 132.7 8.7 132.7 8.3 C 132.7 8.2 132.7 8.1 132.7 8.1 C 132.67 8.06 132.6 8.1 132.6 8.1 C 132.6 8.1 132.18 9.14 130.8 9.1 C 129.7 9.1 128.7 8.5 128.7 7.2 C 128.7 5.3 131.3 5.2 132.3 5.2 Z M 131.2 8 C 132 8 132.6 7.1 132.6 6.3 C 132.56 6.35 132.6 6.2 132.6 6.2 C 132.6 6.2 132.3 6.2 132.3 6.2 C 131.5 6.2 130.2 6.3 130.2 7.2 C 130.2 7.6 130.5 8 131.2 8 Z M 136 4.4 C 136 4.3 135.9 4.2 135.8 4.2 C 135.77 4.18 135.3 4.2 135.3 4.2 L 135.3 2.9 C 135.3 2.9 136.69 2.88 136.7 2.9 C 137.2 2.9 137.5 3.1 137.5 3.6 C 137.5 3.6 137.5 3.7 137.5 3.7 C 137.5 3.9 137.5 4 137.5 4 C 137.5 4 137.5 4 137.5 4 C 137.8 3.5 138.4 2.7 139.7 2.7 C 141 2.7 141.8 3.4 141.8 5.1 C 141.8 5.1 141.8 7.5 141.8 7.5 C 141.8 7.6 141.9 7.7 142.1 7.7 C 142.05 7.72 142.5 7.7 142.5 7.7 L 142.5 9 C 142.5 9 141.08 9 141.1 9 C 140.5 9 140.3 8.8 140.3 8.2 C 140.3 8.2 140.3 5.4 140.3 5.4 C 140.3 4.6 140.1 4.1 139.3 4.1 C 138.5 4.1 137.9 4.6 137.7 5.4 C 137.6 5.6 137.5 5.9 137.5 6.2 C 137.54 6.19 137.5 9 137.5 9 L 136 9 C 136 9 136.03 4.44 136 4.4 Z M 143.9 0.5 L 145.2 0.5 L 145.2 1.9 L 143.9 1.9 L 143.9 0.5 Z M 143.8 4.4 C 143.8 4.3 143.7 4.2 143.5 4.2 C 143.53 4.18 143.1 4.2 143.1 4.2 L 143.1 2.9 C 143.1 2.9 144.5 2.88 144.5 2.9 C 145.1 2.9 145.3 3.1 145.3 3.7 C 145.3 3.7 145.3 7.5 145.3 7.5 C 145.3 7.6 145.4 7.7 145.6 7.7 C 145.57 7.72 146 7.7 146 7.7 L 146 9 C 146 9 144.6 9 144.6 9 C 144 9 143.8 8.8 143.8 8.2 C 143.8 8.2 143.8 4.4 143.8 4.4 Z M 149.8 2.7 C 151.6 2.7 152.5 4 152.5 5.6 C 152.54 5.82 152.5 6.2 152.5 6.2 C 152.5 6.2 148.28 6.2 148.3 6.2 C 148.4 7.3 149.2 7.8 150.1 7.8 C 151.1 7.85 151.8 7.2 151.8 7.2 L 152.5 8.2 C 152.5 8.2 151.53 9.14 150 9.1 C 148 9.1 146.7 7.7 146.7 5.9 C 146.7 4.1 148 2.7 149.8 2.7 Z M 151 5.1 C 151 4.4 150.5 3.9 149.8 3.9 C 149 3.9 148.5 4.4 148.3 5.1 C 148.3 5.1 151 5.1 151 5.1 Z M 156.3 7.7 C 156.3 7.7 156.53 7.67 156.5 7.7 C 156.7 7.7 156.8 7.6 156.9 7.4 C 156.9 7.4 159.4 0.5 159.4 0.5 L 161.1 0.5 C 161.1 0.5 163.59 7.4 163.6 7.4 C 163.7 7.6 163.8 7.7 164 7.7 C 163.96 7.67 164.2 7.7 164.2 7.7 L 164.2 9 C 164.2 9 163.22 9 163.2 9 C 162.6 9 162.4 8.8 162.2 8.3 C 162.21 8.3 161.7 6.8 161.7 6.8 L 158.8 6.8 C 158.8 6.8 158.28 8.3 158.3 8.3 C 158.1 8.8 157.9 9 157.3 9 C 157.28 9 156.3 9 156.3 9 L 156.3 7.7 Z M 161.3 5.5 C 161.3 5.5 160.59 3.38 160.6 3.4 C 160.44 2.92 160.3 2.1 160.3 2.1 L 160.2 2.1 C 160.2 2.1 160.05 2.92 159.9 3.4 C 159.9 3.38 159.2 5.5 159.2 5.5 L 161.3 5.5 Z M 165.5 1.8 L 164.7 1.8 L 164.7 0.5 C 164.7 0.5 168.6 0.48 168.6 0.5 C 170.2 0.5 171.3 1.6 171.3 3.3 C 171.3 4.9 170.2 6.1 168.6 6.1 C 168.6 6.06 167 6.1 167 6.1 L 167 9 L 165.5 9 L 165.5 1.8 Z M 168.3 4.7 C 169.2 4.7 169.7 4.1 169.7 3.3 C 169.7 2.4 169.2 1.8 168.3 1.8 C 168.33 1.81 167 1.8 167 1.8 L 167 4.7 C 167 4.7 168.31 4.72 168.3 4.7 Z M 176.2 0.3 C 177.3 0.3 179.5 0.8 179.5 2.2 C 179.46 2.24 179.5 3.2 179.5 3.2 L 178 3.2 C 178 3.2 178.03 2.71 178 2.7 C 178 2.1 177 1.8 176.3 1.8 C 174.7 1.8 173.5 2.9 173.5 4.7 C 173.5 6.3 174.8 7.7 176.3 7.7 C 177.92 7.68 178.9 6.6 178.9 6.6 L 179.7 7.7 C 179.7 7.7 178.49 9.14 176.3 9.1 C 173.7 9.1 171.9 7.2 171.9 4.7 C 171.9 2.2 173.8 0.3 176.2 0.3 Z M 184.2 4.4 C 184.2 4.3 184.1 4.2 184 4.2 C 183.97 4.18 183.5 4.2 183.5 4.2 L 183.5 2.9 C 183.5 2.9 184.88 2.88 184.9 2.9 C 185.4 2.9 185.7 3.1 185.7 3.6 C 185.7 3.6 185.7 4 185.7 4 C 185.7 4.21 185.7 4.4 185.7 4.4 C 185.7 4.4 185.7 4.37 185.7 4.4 C 186 3.5 186.7 2.8 187.6 2.8 C 187.77 2.8 187.9 2.8 187.9 2.8 L 187.9 4.3 C 187.9 4.3 187.76 4.3 187.5 4.3 C 186.9 4.3 186.2 4.7 185.9 5.6 C 185.8 5.9 185.7 6.2 185.7 6.6 C 185.74 6.58 185.7 9 185.7 9 L 184.2 9 C 184.2 9 184.23 4.44 184.2 4.4 Z M 191.4 2.7 C 193.2 2.7 194.2 4 194.2 5.6 C 194.16 5.82 194.1 6.2 194.1 6.2 C 194.1 6.2 189.9 6.2 189.9 6.2 C 190 7.3 190.8 7.8 191.7 7.8 C 192.72 7.85 193.4 7.2 193.4 7.2 L 194.1 8.2 C 194.1 8.2 193.15 9.14 191.6 9.1 C 189.6 9.1 188.3 7.7 188.3 5.9 C 188.3 4.1 189.6 2.7 191.4 2.7 Z M 192.6 5.1 C 192.6 4.4 192.1 3.9 191.4 3.9 C 190.7 3.9 190.1 4.4 189.9 5.1 C 189.9 5.1 192.6 5.1 192.6 5.1 Z M 195 8.2 C 195 8.2 197.78 4.74 197.8 4.7 C 198.06 4.39 198.3 4.2 198.3 4.2 L 198.3 4.2 C 198.3 4.2 198.12 4.18 197.7 4.2 C 197.7 4.2 196.6 4.2 196.6 4.2 C 196.5 4.2 196.4 4.3 196.4 4.4 C 196.36 4.44 196.4 4.8 196.4 4.8 L 195 4.8 C 195 4.8 194.99 3.7 195 3.7 C 195 3.1 195.2 2.9 195.8 2.9 C 195.8 2.88 200.3 2.9 200.3 2.9 L 200.3 3.7 C 200.3 3.7 197.47 7.15 197.5 7.2 C 197.19 7.49 197 7.7 197 7.7 L 197 7.7 C 197 7.7 197.13 7.7 197.5 7.7 C 197.5 7.7 198.9 7.7 198.9 7.7 C 199 7.7 199.1 7.6 199.1 7.4 C 199.14 7.44 199.1 7.1 199.1 7.1 L 200.5 7.1 C 200.5 7.1 200.52 8.18 200.5 8.2 C 200.5 8.8 200.3 9 199.7 9 C 199.71 9 195 9 195 9 L 195 8.2 Z M 201.9 0.5 L 203.2 0.5 L 203.2 1.9 L 201.9 1.9 L 201.9 0.5 Z M 201.8 4.4 C 201.8 4.3 201.7 4.2 201.5 4.2 C 201.55 4.18 201.1 4.2 201.1 4.2 L 201.1 2.9 C 201.1 2.9 202.52 2.88 202.5 2.9 C 203.1 2.9 203.3 3.1 203.3 3.7 C 203.3 3.7 203.3 7.5 203.3 7.5 C 203.3 7.6 203.4 7.7 203.6 7.7 C 203.59 7.72 204.1 7.7 204.1 7.7 L 204.1 9 C 204.1 9 202.62 9 202.6 9 C 202.1 9 201.8 8.8 201.8 8.2 C 201.8 8.2 201.8 4.4 201.8 4.4 Z M 205.4 7.1 C 205.4 7.1 206.16 7.96 207.2 8 C 207.7 8 208 7.8 208 7.4 C 208 6.5 204.8 6.5 204.8 4.5 C 204.8 3.3 205.9 2.7 207.2 2.7 C 208 2.7 209.3 3 209.3 4 C 209.32 4.01 209.3 4.6 209.3 4.6 L 208 4.6 C 208 4.6 207.98 4.34 208 4.3 C 208 4.1 207.5 3.9 207.2 3.9 C 206.7 3.9 206.3 4.1 206.3 4.5 C 206.3 5.4 209.6 5.2 209.6 7.3 C 209.6 8.4 208.5 9.1 207.2 9.1 C 205.52 9.14 204.7 8.1 204.7 8.1 L 205.4 7.1 Z M 211 4.1 L 210.2 4.1 L 210.2 2.9 L 211 2.9 L 211 1.2 L 212.5 1.2 L 212.5 2.9 L 213.9 2.9 L 213.9 4.1 L 212.5 4.1 C 212.5 4.1 212.52 6.56 212.5 6.6 C 212.5 7.6 213.3 7.7 213.7 7.7 C 213.9 7.72 214 7.7 214 7.7 L 214 9 C 214 9 213.81 9.06 213.5 9.1 C 212.7 9.1 211 8.8 211 6.8 C 210.99 6.76 211 4.1 211 4.1 Z M 217.8 2.7 C 219.6 2.7 220.5 4 220.5 5.6 C 220.52 5.82 220.5 6.2 220.5 6.2 C 220.5 6.2 216.26 6.2 216.3 6.2 C 216.4 7.3 217.2 7.8 218.1 7.8 C 219.08 7.85 219.8 7.2 219.8 7.2 L 220.4 8.2 C 220.4 8.2 219.51 9.14 218 9.1 C 216 9.1 214.7 7.7 214.7 5.9 C 214.7 4.1 216 2.7 217.8 2.7 Z M 219 5.1 C 218.9 4.4 218.4 3.9 217.8 3.9 C 217 3.9 216.5 4.4 216.3 5.1 C 216.3 5.1 219 5.1 219 5.1 Z M 222 4.4 C 222 4.3 221.9 4.2 221.7 4.2 C 221.73 4.18 221.3 4.2 221.3 4.2 L 221.3 2.9 C 221.3 2.9 222.66 2.88 222.7 2.9 C 223.2 2.9 223.5 3.1 223.5 3.6 C 223.5 3.6 223.5 3.7 223.5 3.7 C 223.5 3.9 223.4 4 223.4 4 C 223.4 4 223.5 4 223.5 4 C 223.7 3.5 224.4 2.7 225.6 2.7 C 227 2.7 227.8 3.4 227.8 5.1 C 227.8 5.1 227.8 7.5 227.8 7.5 C 227.8 7.6 227.9 7.7 228 7.7 C 228.02 7.72 228.5 7.7 228.5 7.7 L 228.5 9 C 228.5 9 227.05 9 227 9 C 226.5 9 226.2 8.8 226.2 8.2 C 226.2 8.2 226.2 5.4 226.2 5.4 C 226.2 4.6 226 4.1 225.3 4.1 C 224.5 4.1 223.8 4.6 223.6 5.4 C 223.5 5.6 223.5 5.9 223.5 6.2 C 223.51 6.19 223.5 9 223.5 9 L 222 9 C 222 9 222 4.44 222 4.4 Z M 232.4 2.7 C 233.2 2.7 234.7 3.1 234.7 4.1 C 234.67 4.12 234.7 4.8 234.7 4.8 L 233.3 4.8 C 233.3 4.8 233.33 4.5 233.3 4.5 C 233.3 4.2 232.8 4 232.4 4 C 231.4 4 230.6 4.8 230.6 5.9 C 230.6 7.2 231.6 7.8 232.5 7.8 C 233.59 7.81 234.4 7 234.4 7 L 235 8 C 235 8 234.08 9.14 232.4 9.1 C 230.4 9.1 229.1 7.7 229.1 5.9 C 229.1 4.2 230.3 2.7 232.4 2.7 Z M 236.3 0.5 L 237.6 0.5 L 237.6 1.9 L 236.3 1.9 L 236.3 0.5 Z M 236.2 4.4 C 236.2 4.3 236.1 4.2 236 4.2 C 235.95 4.18 235.5 4.2 235.5 4.2 L 235.5 2.9 C 235.5 2.9 236.92 2.88 236.9 2.9 C 237.5 2.9 237.7 3.1 237.7 3.7 C 237.7 3.7 237.7 7.5 237.7 7.5 C 237.7 7.6 237.8 7.7 238 7.7 C 237.99 7.72 238.5 7.7 238.5 7.7 L 238.5 9 C 238.5 9 237.02 9 237 9 C 236.5 9 236.2 8.8 236.2 8.2 C 236.2 8.2 236.2 4.4 236.2 4.4 Z M 242.3 2.7 C 244 2.7 245 4 245 5.6 C 244.96 5.82 244.9 6.2 244.9 6.2 C 244.9 6.2 240.7 6.2 240.7 6.2 C 240.8 7.3 241.6 7.8 242.5 7.8 C 243.53 7.85 244.3 7.2 244.3 7.2 L 244.9 8.2 C 244.9 8.2 243.96 9.14 242.4 9.1 C 240.4 9.1 239.1 7.7 239.1 5.9 C 239.1 4.1 240.4 2.7 242.3 2.7 Z M 243.4 5.1 C 243.4 4.4 242.9 3.9 242.3 3.9 C 241.5 3.9 240.9 4.4 240.8 5.1 C 240.8 5.1 243.4 5.1 243.4 5.1 Z M 249.6 4.4 C 249.6 4.3 249.5 4.2 249.4 4.2 C 249.36 4.18 248.9 4.2 248.9 4.2 L 248.9 2.9 C 248.9 2.9 250.23 2.88 250.2 2.9 C 250.8 2.9 251 3.1 251 3.5 C 251 3.6 251 3.7 251 3.7 C 251 3.71 251 3.7 251 3.7 C 251 3.7 251.54 2.74 253 2.7 C 254.6 2.7 255.7 4 255.7 5.9 C 255.7 7.9 254.5 9.1 252.9 9.1 C 251.67 9.14 251.1 8.3 251.1 8.3 L 251.1 8.3 C 251.1 8.3 251.13 8.56 251.1 8.9 C 251.13 8.87 251.1 11.4 251.1 11.4 L 249.6 11.4 C 249.6 11.4 249.62 4.44 249.6 4.4 Z M 252.6 7.9 C 253.4 7.9 254.2 7.2 254.2 6 C 254.2 4.8 253.5 4 252.6 4 C 251.8 4 251.1 4.6 251.1 6 C 251.1 6.9 251.6 7.9 252.6 7.9 Z M 257.1 4.4 C 257.1 4.3 257 4.2 256.8 4.2 C 256.81 4.18 256.3 4.2 256.3 4.2 L 256.3 2.9 C 256.3 2.9 257.72 2.88 257.7 2.9 C 258.3 2.9 258.5 3.1 258.5 3.6 C 258.5 3.6 258.5 4 258.5 4 C 258.54 4.21 258.5 4.4 258.5 4.4 C 258.5 4.4 258.54 4.37 258.5 4.4 C 258.8 3.5 259.5 2.8 260.5 2.8 C 260.61 2.8 260.8 2.8 260.8 2.8 L 260.8 4.3 C 260.8 4.3 260.6 4.3 260.4 4.3 C 259.7 4.3 259 4.7 258.7 5.6 C 258.6 5.9 258.6 6.2 258.6 6.6 C 258.58 6.58 258.6 9 258.6 9 L 257.1 9 C 257.1 9 257.07 4.44 257.1 4.4 Z M 262.1 0.5 L 263.5 0.5 L 263.5 1.9 L 262.1 1.9 L 262.1 0.5 Z M 262.1 4.4 C 262.1 4.3 262 4.2 261.8 4.2 C 261.8 4.18 261.3 4.2 261.3 4.2 L 261.3 2.9 C 261.3 2.9 262.77 2.88 262.8 2.9 C 263.3 2.9 263.6 3.1 263.6 3.7 C 263.6 3.7 263.6 7.5 263.6 7.5 C 263.6 7.6 263.7 7.7 263.8 7.7 C 263.84 7.72 264.3 7.7 264.3 7.7 L 264.3 9 C 264.3 9 262.87 9 262.9 9 C 262.3 9 262.1 8.8 262.1 8.2 C 262.1 8.2 262.1 4.4 262.1 4.4 Z M 268.8 4.4 C 268.8 4.3 268.7 4.2 268.5 4.2 C 268.52 4.18 268 4.2 268 4.2 L 268 2.9 C 268 2.9 269.43 2.88 269.4 2.9 C 270 2.9 270.2 3.1 270.2 3.6 C 270.2 3.6 270.2 4 270.2 4 C 270.25 4.21 270.2 4.4 270.2 4.4 C 270.2 4.4 270.25 4.37 270.2 4.4 C 270.5 3.5 271.3 2.8 272.2 2.8 C 272.32 2.8 272.5 2.8 272.5 2.8 L 272.5 4.3 C 272.5 4.3 272.31 4.3 272.1 4.3 C 271.4 4.3 270.7 4.7 270.4 5.6 C 270.3 5.9 270.3 6.2 270.3 6.6 C 270.3 6.58 270.3 9 270.3 9 L 268.8 9 C 268.8 9 268.78 4.44 268.8 4.4 Z M 276.2 2.7 C 278.1 2.7 279.6 4.1 279.6 5.9 C 279.6 7.8 278.1 9.1 276.2 9.1 C 274.4 9.1 272.9 7.8 272.9 5.9 C 272.9 4.1 274.4 2.7 276.2 2.7 Z M 276.2 7.8 C 277.2 7.8 278.1 7.1 278.1 5.9 C 278.1 4.8 277.2 4 276.2 4 C 275.3 4 274.4 4.8 274.4 5.9 C 274.4 7.1 275.3 7.8 276.2 7.8 Z M 275.6 0.5 L 276.9 0.5 L 278 2.1 L 276.9 2.1 L 276.3 1.1 L 276.2 1.1 L 275.6 2.1 L 274.5 2.1 L 275.6 0.5 Z M 280.2 8.2 C 280.2 8.2 283 4.74 283 4.7 C 283.28 4.39 283.5 4.2 283.5 4.2 L 283.5 4.2 C 283.5 4.2 283.34 4.18 283 4.2 C 283 4.2 281.9 4.2 281.9 4.2 C 281.7 4.2 281.6 4.3 281.6 4.4 C 281.59 4.44 281.6 4.8 281.6 4.8 L 280.2 4.8 C 280.2 4.8 280.21 3.7 280.2 3.7 C 280.2 3.1 280.4 2.9 281 2.9 C 281.02 2.88 285.5 2.9 285.5 2.9 L 285.5 3.7 C 285.5 3.7 282.69 7.15 282.7 7.2 C 282.42 7.49 282.2 7.7 282.2 7.7 L 282.2 7.7 C 282.2 7.7 282.36 7.7 282.8 7.7 C 282.8 7.7 284.1 7.7 284.1 7.7 C 284.3 7.7 284.4 7.6 284.4 7.4 C 284.36 7.44 284.4 7.1 284.4 7.1 L 285.7 7.1 C 285.7 7.1 285.74 8.18 285.7 8.2 C 285.7 8.8 285.5 9 284.9 9 C 284.94 9 280.2 9 280.2 9 L 280.2 8.2 Z M 287 4.4 C 287 4.3 286.9 4.2 286.7 4.2 C 286.72 4.18 286.2 4.2 286.2 4.2 L 286.2 2.9 C 286.2 2.9 287.65 2.88 287.6 2.9 C 288.2 2.9 288.5 3.1 288.5 3.6 C 288.5 3.6 288.5 3.7 288.5 3.7 C 288.5 3.9 288.4 4 288.4 4 C 288.4 4 288.5 4 288.5 4 C 288.7 3.5 289.4 2.7 290.6 2.7 C 292 2.7 292.7 3.4 292.7 5.1 C 292.7 5.1 292.7 7.5 292.7 7.5 C 292.7 7.6 292.8 7.7 293 7.7 C 293.01 7.72 293.5 7.7 293.5 7.7 L 293.5 9 C 293.5 9 292.04 9 292 9 C 291.5 9 291.2 8.8 291.2 8.2 C 291.2 8.2 291.2 5.4 291.2 5.4 C 291.2 4.6 291 4.1 290.3 4.1 C 289.4 4.1 288.8 4.6 288.6 5.4 C 288.5 5.6 288.5 5.9 288.5 6.2 C 288.5 6.19 288.5 9 288.5 9 L 287 9 C 287 9 286.99 4.44 287 4.4 Z M 295.1 10.2 C 295.5 10.2 295.9 10 296.1 9.5 C 296.07 9.46 296.3 9 296.3 9 C 296.3 9 294.24 4.39 294.2 4.4 C 294.2 4.2 294.1 4.2 293.9 4.2 C 293.91 4.18 293.7 4.2 293.7 4.2 L 293.7 2.9 C 293.7 2.9 294.74 2.88 294.7 2.9 C 295.2 2.9 295.4 3 295.5 3.5 C 295.5 3.5 296.7 6.5 296.7 6.5 C 296.86 6.83 297 7.3 297 7.3 L 297 7.3 C 297 7.3 297.08 6.83 297.2 6.5 C 297.2 6.5 298.2 3.5 298.2 3.5 C 298.4 3 298.6 2.9 299 2.9 C 299.05 2.88 300.1 2.9 300.1 2.9 L 300.1 4.2 C 300.1 4.2 299.9 4.18 299.9 4.2 C 299.7 4.2 299.6 4.2 299.6 4.4 C 299.6 4.4 297.4 9.9 297.4 9.9 C 296.9 11 296.1 11.5 295.1 11.5 C 294.19 11.52 293.6 10.9 293.6 10.9 L 294.2 9.8 C 294.2 9.8 294.56 10.24 295.1 10.2 Z M 303.8 2.7 C 304.6 2.7 306.1 3.1 306.1 4.1 C 306.05 4.12 306.1 4.8 306.1 4.8 L 304.7 4.8 C 304.7 4.8 304.71 4.5 304.7 4.5 C 304.7 4.2 304.2 4 303.8 4 C 302.8 4 302 4.8 302 5.9 C 302 7.2 302.9 7.8 303.9 7.8 C 304.98 7.81 305.7 7 305.7 7 L 306.4 8 C 306.4 8 305.47 9.14 303.8 9.1 C 301.8 9.1 300.5 7.7 300.5 5.9 C 300.5 4.2 301.7 2.7 303.8 2.7 Z M 307.5 2 C 307.5 1.9 307.4 1.8 307.2 1.8 C 307.21 1.78 306.7 1.8 306.7 1.8 L 306.7 0.5 C 306.7 0.5 308.18 0.48 308.2 0.5 C 308.7 0.5 309 0.7 309 1.3 C 309 1.3 309 3.4 309 3.4 C 308.99 3.73 309 3.9 309 3.9 C 309 3.9 308.99 3.95 309 3.9 C 309.3 3.4 310 2.7 311.1 2.7 C 312.5 2.7 313.2 3.4 313.2 5.1 C 313.2 5.1 313.2 7.5 313.2 7.5 C 313.2 7.6 313.3 7.7 313.5 7.7 C 313.49 7.72 314 7.7 314 7.7 L 314 9 C 314 9 312.52 9 312.5 9 C 312 9 311.7 8.8 311.7 8.2 C 311.7 8.2 311.7 5.4 311.7 5.4 C 311.7 4.6 311.5 4.1 310.7 4.1 C 309.9 4.1 309.3 4.7 309.1 5.4 C 309 5.6 309 5.9 309 6.2 C 308.99 6.19 309 9 309 9 L 307.5 9 C 307.5 9 307.47 2.04 307.5 2 Z M 318.4 4.1 L 317.6 4.1 L 317.6 2.9 L 318.4 2.9 L 318.4 1.2 L 319.9 1.2 L 319.9 2.9 L 321.3 2.9 L 321.3 4.1 L 319.9 4.1 C 319.9 4.1 319.93 6.56 319.9 6.6 C 319.9 7.6 320.7 7.7 321.1 7.7 C 321.31 7.72 321.4 7.7 321.4 7.7 L 321.4 9 C 321.4 9 321.22 9.06 320.9 9.1 C 320.1 9.1 318.4 8.8 318.4 6.8 C 318.4 6.76 318.4 4.1 318.4 4.1 Z M 323.2 10.2 C 323.6 10.2 324 10 324.2 9.5 C 324.19 9.46 324.4 9 324.4 9 C 324.4 9 322.35 4.39 322.4 4.4 C 322.3 4.2 322.2 4.2 322 4.2 C 322.03 4.18 321.8 4.2 321.8 4.2 L 321.8 2.9 C 321.8 2.9 322.86 2.88 322.9 2.9 C 323.3 2.9 323.5 3 323.7 3.5 C 323.7 3.5 324.9 6.5 324.9 6.5 C 324.98 6.83 325.1 7.3 325.1 7.3 L 325.1 7.3 C 325.1 7.3 325.2 6.83 325.3 6.5 C 325.3 6.5 326.3 3.5 326.3 3.5 C 326.5 3 326.7 2.9 327.2 2.9 C 327.16 2.88 328.2 2.9 328.2 2.9 L 328.2 4.2 C 328.2 4.2 328.01 4.18 328 4.2 C 327.8 4.2 327.7 4.2 327.7 4.4 C 327.7 4.4 325.5 9.9 325.5 9.9 C 325 11 324.2 11.5 323.3 11.5 C 322.3 11.52 321.7 10.9 321.7 10.9 L 322.3 9.8 C 322.3 9.8 322.68 10.24 323.2 10.2 Z M 329.3 4.4 C 329.3 4.3 329.2 4.2 329.1 4.2 C 329.07 4.18 328.6 4.2 328.6 4.2 L 328.6 2.9 C 328.6 2.9 329.95 2.88 329.9 2.9 C 330.5 2.9 330.7 3.1 330.7 3.5 C 330.7 3.6 330.7 3.7 330.7 3.7 C 330.71 3.71 330.7 3.7 330.7 3.7 C 330.7 3.7 331.25 2.74 332.7 2.7 C 334.3 2.7 335.4 4 335.4 5.9 C 335.4 7.9 334.2 9.1 332.6 9.1 C 331.39 9.14 330.8 8.3 330.8 8.3 L 330.8 8.3 C 330.8 8.3 330.85 8.56 330.8 8.9 C 330.85 8.87 330.8 11.4 330.8 11.4 L 329.3 11.4 C 329.3 11.4 329.34 4.44 329.3 4.4 Z M 332.3 7.9 C 333.2 7.9 333.9 7.2 333.9 6 C 333.9 4.8 333.2 4 332.3 4 C 331.6 4 330.8 4.6 330.8 6 C 330.8 6.9 331.3 7.9 332.3 7.9 Z M 339.5 2.7 C 341.4 2.7 342.9 4.1 342.9 5.9 C 342.9 7.8 341.4 9.1 339.5 9.1 C 337.7 9.1 336.2 7.8 336.2 5.9 C 336.2 4.1 337.7 2.7 339.5 2.7 Z M 339.5 7.8 C 340.5 7.8 341.3 7.1 341.3 5.9 C 341.3 4.8 340.5 4 339.5 4 C 338.5 4 337.7 4.8 337.7 5.9 C 337.7 7.1 338.5 7.8 339.5 7.8 Z M 347 2.7 C 347.8 2.7 349.2 3.1 349.2 4.1 C 349.22 4.12 349.2 4.8 349.2 4.8 L 347.9 4.8 C 347.9 4.8 347.88 4.5 347.9 4.5 C 347.9 4.2 347.4 4 347 4 C 345.9 4 345.2 4.8 345.2 5.9 C 345.2 7.2 346.1 7.8 347.1 7.8 C 348.14 7.81 348.9 7 348.9 7 L 349.5 8 C 349.5 8 348.63 9.14 347 9.1 C 344.9 9.1 343.7 7.7 343.7 5.9 C 343.7 4.2 344.9 2.7 347 2.7 Z M 350.6 2 C 350.6 1.9 350.5 1.8 350.4 1.8 C 350.37 1.78 349.9 1.8 349.9 1.8 L 349.9 0.5 C 349.9 0.5 351.34 0.48 351.3 0.5 C 351.9 0.5 352.2 0.7 352.2 1.3 C 352.2 1.3 352.2 3.4 352.2 3.4 C 352.16 3.73 352.1 3.9 352.1 3.9 C 352.1 3.9 352.16 3.95 352.2 3.9 C 352.4 3.4 353.2 2.7 354.3 2.7 C 355.6 2.7 356.4 3.4 356.4 5.1 C 356.4 5.1 356.4 7.5 356.4 7.5 C 356.4 7.6 356.5 7.7 356.7 7.7 C 356.66 7.72 357.1 7.7 357.1 7.7 L 357.1 9 C 357.1 9 355.69 9 355.7 9 C 355.1 9 354.9 8.8 354.9 8.2 C 354.9 8.2 354.9 5.4 354.9 5.4 C 354.9 4.6 354.7 4.1 353.9 4.1 C 353.1 4.1 352.5 4.7 352.3 5.4 C 352.2 5.6 352.2 5.9 352.2 6.2 C 352.16 6.19 352.2 9 352.2 9 L 350.6 9 C 350.6 9 350.64 2.04 350.6 2 Z M 364.6 5.2 C 364.58 5.16 364.8 5.2 364.8 5.2 C 364.8 5.2 364.77 5.11 364.8 5.1 C 364.8 4.2 364.4 3.9 363.6 3.9 C 363.4 3.9 362.8 4 362.8 4.3 C 362.83 4.32 362.8 4.6 362.8 4.6 L 361.4 4.6 C 361.4 4.6 361.41 4 361.4 4 C 361.4 2.9 363 2.7 363.7 2.7 C 365.7 2.7 366.3 3.8 366.3 5.2 C 366.3 5.2 366.3 7.5 366.3 7.5 C 366.3 7.6 366.4 7.7 366.6 7.7 C 366.56 7.72 367 7.7 367 7.7 L 367 9 C 367 9 365.67 9 365.7 9 C 365.1 9 364.9 8.7 364.9 8.3 C 364.9 8.2 364.9 8.1 364.9 8.1 C 364.9 8.06 364.9 8.1 364.9 8.1 C 364.9 8.1 364.41 9.14 363 9.1 C 361.9 9.1 360.9 8.5 360.9 7.2 C 360.9 5.3 363.6 5.2 364.6 5.2 Z M 363.4 8 C 364.2 8 364.8 7.1 364.8 6.3 C 364.8 6.35 364.8 6.2 364.8 6.2 C 364.8 6.2 364.53 6.2 364.5 6.2 C 363.7 6.2 362.5 6.3 362.5 7.2 C 362.5 7.6 362.8 8 363.4 8 Z M 368.3 4.4 C 368.3 4.3 368.2 4.2 368 4.2 C 368 4.18 367.5 4.2 367.5 4.2 L 367.5 2.9 C 367.5 2.9 368.92 2.88 368.9 2.9 C 369.5 2.9 369.7 3.1 369.7 3.6 C 369.7 3.6 369.7 3.7 369.7 3.7 C 369.7 3.9 369.7 4 369.7 4 C 369.7 4 369.7 4 369.7 4 C 370 3.5 370.7 2.7 371.9 2.7 C 373.2 2.7 374 3.4 374 5.1 C 374 5.1 374 7.5 374 7.5 C 374 7.6 374.1 7.7 374.3 7.7 C 374.29 7.72 374.8 7.7 374.8 7.7 L 374.8 9 C 374.8 9 373.32 9 373.3 9 C 372.7 9 372.5 8.8 372.5 8.2 C 372.5 8.2 372.5 5.4 372.5 5.4 C 372.5 4.6 372.3 4.1 371.5 4.1 C 370.7 4.1 370.1 4.6 369.9 5.4 C 369.8 5.6 369.8 5.9 369.8 6.2 C 369.77 6.19 369.8 9 369.8 9 L 368.3 9 C 368.3 9 368.26 4.44 368.3 4.4 Z M 376 4.1 L 375.2 4.1 L 375.2 2.9 L 376 2.9 L 376 1.2 L 377.5 1.2 L 377.5 2.9 L 378.9 2.9 L 378.9 4.1 L 377.5 4.1 C 377.5 4.1 377.53 6.56 377.5 6.6 C 377.5 7.6 378.3 7.7 378.7 7.7 C 378.91 7.72 379 7.7 379 7.7 L 379 9 C 379 9 378.82 9.06 378.5 9.1 C 377.7 9.1 376 8.8 376 6.8 C 376 6.76 376 4.1 376 4.1 Z M 380.5 0.5 L 381.9 0.5 L 381.9 1.9 L 380.5 1.9 L 380.5 0.5 Z M 380.5 4.4 C 380.5 4.3 380.4 4.2 380.2 4.2 C 380.2 4.18 379.7 4.2 379.7 4.2 L 379.7 2.9 C 379.7 2.9 381.17 2.88 381.2 2.9 C 381.7 2.9 382 3.1 382 3.7 C 382 3.7 382 7.5 382 7.5 C 382 7.6 382.1 7.7 382.2 7.7 C 382.24 7.72 382.7 7.7 382.7 7.7 L 382.7 9 C 382.7 9 381.27 9 381.3 9 C 380.7 9 380.5 8.8 380.5 8.2 C 380.5 8.2 380.5 4.4 380.5 4.4 Z M 384 2 C 384 1.9 383.9 1.8 383.7 1.8 C 383.7 1.78 383.2 1.8 383.2 1.8 L 383.2 0.5 C 383.2 0.5 384.67 0.48 384.7 0.5 C 385.2 0.5 385.5 0.6 385.5 1.2 C 385.48 1.18 385.5 5 385.5 5 C 385.5 5 385.94 5.04 385.9 5 C 386.1 5 386.4 5 386.5 4.8 C 386.51 4.81 387.8 2.9 387.8 2.9 L 389.5 2.9 C 389.5 2.9 387.91 5.18 387.9 5.2 C 387.64 5.57 387.5 5.7 387.5 5.7 L 387.5 5.7 C 387.5 5.7 387.67 5.77 387.9 6.2 C 387.9 6.2 388.6 7.5 388.6 7.5 C 388.7 7.7 388.8 7.7 389.1 7.7 C 389.08 7.72 389.5 7.7 389.5 7.7 L 389.5 9 C 389.5 9 388.36 9 388.4 9 C 387.8 9 387.6 8.9 387.4 8.5 C 387.4 8.5 386.4 6.6 386.4 6.6 C 386.3 6.3 386 6.3 385.8 6.3 C 385.82 6.32 385.5 6.3 385.5 6.3 L 385.5 9 L 384 9 C 384 9 383.96 2.04 384 2 Z M 393.3 2.7 C 395.2 2.7 396.6 4.1 396.6 5.9 C 396.6 7.8 395.2 9.1 393.3 9.1 C 391.4 9.1 389.9 7.8 389.9 5.9 C 389.9 4.1 391.4 2.7 393.3 2.7 Z M 393.3 7.8 C 394.3 7.8 395.1 7.1 395.1 5.9 C 395.1 4.8 394.3 4 393.3 4 C 392.3 4 391.5 4.8 391.5 5.9 C 391.5 7.1 392.3 7.8 393.3 7.8 Z M 398 4.4 C 398 4.3 397.9 4.2 397.8 4.2 C 397.76 4.18 397.3 4.2 397.3 4.2 L 397.3 2.9 C 397.3 2.9 398.68 2.88 398.7 2.9 C 399.2 2.9 399.5 3.1 399.5 3.6 C 399.5 3.6 399.5 3.7 399.5 3.7 C 399.5 3.9 399.5 4 399.5 4 C 399.5 4 399.5 4 399.5 4 C 399.8 3.5 400.4 2.7 401.6 2.7 C 403 2.7 403.8 3.4 403.8 5.1 C 403.8 5.1 403.8 7.5 403.8 7.5 C 403.8 7.6 403.9 7.7 404 7.7 C 404.05 7.72 404.5 7.7 404.5 7.7 L 404.5 9 C 404.5 9 403.07 9 403.1 9 C 402.5 9 402.3 8.8 402.3 8.2 C 402.3 8.2 402.3 5.4 402.3 5.4 C 402.3 4.6 402.1 4.1 401.3 4.1 C 400.5 4.1 399.9 4.6 399.7 5.4 C 399.6 5.6 399.5 5.9 399.5 6.2 C 399.53 6.19 399.5 9 399.5 9 L 398 9 C 398 9 398.02 4.44 398 4.4 Z M 408.5 2.7 C 409.3 2.7 410.7 3.1 410.7 4.1 C 410.69 4.12 410.7 4.8 410.7 4.8 L 409.4 4.8 C 409.4 4.8 409.35 4.5 409.4 4.5 C 409.4 4.2 408.8 4 408.5 4 C 407.4 4 406.7 4.8 406.7 5.9 C 406.7 7.2 407.6 7.8 408.6 7.8 C 409.62 7.81 410.4 7 410.4 7 L 411 8 C 411 8 410.11 9.14 408.4 9.1 C 406.4 9.1 405.1 7.7 405.1 5.9 C 405.1 4.2 406.4 2.7 408.5 2.7 Z M 414.7 2.7 C 416.4 2.7 417.4 4 417.4 5.6 C 417.4 5.82 417.4 6.2 417.4 6.2 C 417.4 6.2 413.14 6.2 413.1 6.2 C 413.3 7.3 414.1 7.8 415 7.8 C 415.96 7.85 416.7 7.2 416.7 7.2 L 417.3 8.2 C 417.3 8.2 416.39 9.14 414.9 9.1 C 412.8 9.1 411.6 7.7 411.6 5.9 C 411.6 4.1 412.9 2.7 414.7 2.7 Z M 415.8 5.1 C 415.8 4.4 415.3 3.9 414.7 3.9 C 413.9 3.9 413.4 4.4 413.2 5.1 C 413.2 5.1 415.8 5.1 415.8 5.1 Z M 418.9 4.4 C 418.9 4.3 418.8 4.2 418.6 4.2 C 418.62 4.18 418.1 4.2 418.1 4.2 L 418.1 2.9 C 418.1 2.9 419.49 2.88 419.5 2.9 C 420.1 2.9 420.3 3.1 420.3 3.5 C 420.3 3.6 420.3 3.7 420.3 3.7 C 420.26 3.71 420.3 3.7 420.3 3.7 C 420.3 3.7 420.8 2.74 422.2 2.7 C 423.9 2.7 424.9 4 424.9 5.9 C 424.9 7.9 423.8 9.1 422.1 9.1 C 420.93 9.14 420.4 8.3 420.4 8.3 L 420.4 8.3 C 420.4 8.3 420.39 8.56 420.4 8.9 C 420.39 8.87 420.4 11.4 420.4 11.4 L 418.9 11.4 C 418.9 11.4 418.88 4.44 418.9 4.4 Z M 421.9 7.9 C 422.7 7.9 423.4 7.2 423.4 6 C 423.4 4.8 422.8 4 421.9 4 C 421.1 4 420.4 4.6 420.4 6 C 420.4 6.9 420.9 7.9 421.9 7.9 Z M 429.1 2.7 C 429.9 2.7 431.3 3.1 431.3 4.1 C 431.29 4.12 431.3 4.8 431.3 4.8 L 429.9 4.8 C 429.9 4.8 429.94 4.5 429.9 4.5 C 429.9 4.2 429.4 4 429.1 4 C 428 4 427.3 4.8 427.3 5.9 C 427.3 7.2 428.2 7.8 429.2 7.8 C 430.21 7.81 431 7 431 7 L 431.6 8 C 431.6 8 430.7 9.14 429 9.1 C 427 9.1 425.7 7.7 425.7 5.9 C 425.7 4.2 427 2.7 429.1 2.7 Z M 432.9 0.5 L 434.2 0.5 L 434.2 1.9 L 432.9 1.9 L 432.9 0.5 Z M 432.8 4.4 C 432.8 4.3 432.7 4.2 432.6 4.2 C 432.57 4.18 432.1 4.2 432.1 4.2 L 432.1 2.9 C 432.1 2.9 433.54 2.88 433.5 2.9 C 434.1 2.9 434.3 3.1 434.3 3.7 C 434.3 3.7 434.3 7.5 434.3 7.5 C 434.3 7.6 434.4 7.7 434.6 7.7 C 434.61 7.72 435.1 7.7 435.1 7.7 L 435.1 9 C 435.1 9 433.64 9 433.6 9 C 433.1 9 432.8 8.8 432.8 8.2 C 432.8 8.2 432.8 4.4 432.8 4.4 Z M 438.9 2.7 C 440.6 2.7 441.6 4 441.6 5.6 C 441.58 5.82 441.5 6.2 441.5 6.2 C 441.5 6.2 437.32 6.2 437.3 6.2 C 437.4 7.3 438.2 7.8 439.2 7.8 C 440.14 7.85 440.9 7.2 440.9 7.2 L 441.5 8.2 C 441.5 8.2 440.57 9.14 439.1 9.1 C 437 9.1 435.8 7.7 435.8 5.9 C 435.8 4.1 437 2.7 438.9 2.7 Z M 440 5.1 C 440 4.4 439.5 3.9 438.9 3.9 C 438.1 3.9 437.5 4.4 437.4 5.1 C 437.4 5.1 440 5.1 440 5.1 Z M 449.3 5.2 C 449.27 5.16 449.5 5.2 449.5 5.2 C 449.5 5.2 449.47 5.11 449.5 5.1 C 449.5 4.2 449.1 3.9 448.3 3.9 C 448.1 3.9 447.5 4 447.5 4.3 C 447.52 4.32 447.5 4.6 447.5 4.6 L 446.1 4.6 C 446.1 4.6 446.11 4 446.1 4 C 446.1 2.9 447.7 2.7 448.3 2.7 C 450.4 2.7 451 3.8 451 5.2 C 451 5.2 451 7.5 451 7.5 C 451 7.6 451.1 7.7 451.3 7.7 C 451.25 7.72 451.7 7.7 451.7 7.7 L 451.7 9 C 451.7 9 450.37 9 450.4 9 C 449.8 9 449.6 8.7 449.6 8.3 C 449.6 8.2 449.6 8.1 449.6 8.1 C 449.6 8.06 449.6 8.1 449.6 8.1 C 449.6 8.1 449.11 9.14 447.7 9.1 C 446.6 9.1 445.6 8.5 445.6 7.2 C 445.6 5.3 448.3 5.2 449.3 5.2 Z M 448.1 8 C 448.9 8 449.5 7.1 449.5 6.3 C 449.49 6.35 449.5 6.2 449.5 6.2 C 449.5 6.2 449.23 6.2 449.2 6.2 C 448.4 6.2 447.2 6.3 447.2 7.2 C 447.2 7.6 447.5 8 448.1 8 Z M 456.1 4.4 C 456.1 4.3 456 4.2 455.9 4.2 C 455.87 4.18 455.4 4.2 455.4 4.2 L 455.4 2.9 C 455.4 2.9 456.75 2.88 456.8 2.9 C 457.3 2.9 457.5 3.1 457.5 3.5 C 457.5 3.6 457.5 3.7 457.5 3.7 C 457.52 3.71 457.5 3.7 457.5 3.7 C 457.5 3.7 458.06 2.74 459.5 2.7 C 461.1 2.7 462.2 4 462.2 5.9 C 462.2 7.9 461 9.1 459.4 9.1 C 458.19 9.14 457.6 8.3 457.6 8.3 L 457.6 8.3 C 457.6 8.3 457.65 8.56 457.6 8.9 C 457.65 8.87 457.6 11.4 457.6 11.4 L 456.1 11.4 C 456.1 11.4 456.14 4.44 456.1 4.4 Z M 459.1 7.9 C 460 7.9 460.7 7.2 460.7 6 C 460.7 4.8 460.1 4 459.1 4 C 458.4 4 457.6 4.6 457.6 6 C 457.6 6.9 458.1 7.9 459.1 7.9 Z M 466.3 2.7 C 468.2 2.7 469.7 4.1 469.7 5.9 C 469.7 7.8 468.2 9.1 466.3 9.1 C 464.5 9.1 463 7.8 463 5.9 C 463 4.1 464.5 2.7 466.3 2.7 Z M 466.3 7.8 C 467.3 7.8 468.2 7.1 468.2 5.9 C 468.2 4.8 467.3 4 466.3 4 C 465.3 4 464.5 4.8 464.5 5.9 C 464.5 7.1 465.3 7.8 466.3 7.8 Z M 471.1 4.4 C 471.1 4.3 471 4.2 470.8 4.2 C 470.8 4.18 470.3 4.2 470.3 4.2 L 470.3 2.9 C 470.3 2.9 471.71 2.88 471.7 2.9 C 472.3 2.9 472.5 3.1 472.5 3.6 C 472.5 3.6 472.5 4 472.5 4 C 472.53 4.21 472.5 4.4 472.5 4.4 C 472.5 4.4 472.53 4.37 472.5 4.4 C 472.8 3.5 473.5 2.8 474.5 2.8 C 474.6 2.8 474.7 2.8 474.7 2.8 L 474.7 4.3 C 474.7 4.3 474.59 4.3 474.4 4.3 C 473.7 4.3 473 4.7 472.7 5.6 C 472.6 5.9 472.6 6.2 472.6 6.6 C 472.58 6.58 472.6 9 472.6 9 L 471.1 9 C 471.1 9 471.07 4.44 471.1 4.4 Z M 478.5 2.7 C 480.4 2.7 481.9 4.1 481.9 5.9 C 481.9 7.8 480.4 9.1 478.5 9.1 C 476.7 9.1 475.2 7.8 475.2 5.9 C 475.2 4.1 476.7 2.7 478.5 2.7 Z M 478.5 7.8 C 479.5 7.8 480.3 7.1 480.3 5.9 C 480.3 4.8 479.5 4 478.5 4 C 477.5 4 476.7 4.8 476.7 5.9 C 476.7 7.1 477.5 7.8 478.5 7.8 Z M 482.8 4.4 C 482.7 4.2 482.6 4.2 482.4 4.2 C 482.42 4.18 482.3 4.2 482.3 4.2 L 482.3 2.9 C 482.3 2.9 483.16 2.88 483.2 2.9 C 483.7 2.9 483.9 3 484.1 3.5 C 484.1 3.5 485.2 6.7 485.2 6.7 C 485.35 7.03 485.4 7.5 485.4 7.5 L 485.5 7.5 C 485.5 7.5 485.56 7.03 485.7 6.7 C 485.7 6.7 486.8 3.5 486.8 3.5 C 487 3 487.2 2.9 487.7 2.9 C 487.73 2.88 488.5 2.9 488.5 2.9 L 488.5 4.2 C 488.5 4.2 488.4 4.18 488.4 4.2 C 488.2 4.2 488.1 4.2 488.1 4.4 C 488.07 4.39 486.3 9 486.3 9 L 484.5 9 C 484.5 9 482.75 4.39 482.8 4.4 Z M 489.7 4.4 C 489.7 4.3 489.6 4.2 489.4 4.2 C 489.41 4.18 488.9 4.2 488.9 4.2 L 488.9 2.9 C 488.9 2.9 490.34 2.88 490.3 2.9 C 490.9 2.9 491.1 3.1 491.1 3.6 C 491.1 3.6 491.1 3.7 491.1 3.7 C 491.1 3.9 491.1 4 491.1 4 C 491.1 4 491.1 4 491.1 4 C 491.4 3.5 492.1 2.7 493.3 2.7 C 494.7 2.7 495.4 3.4 495.4 5.1 C 495.4 5.1 495.4 7.5 495.4 7.5 C 495.4 7.6 495.5 7.7 495.7 7.7 C 495.7 7.72 496.2 7.7 496.2 7.7 L 496.2 9 C 496.2 9 494.73 9 494.7 9 C 494.2 9 493.9 8.8 493.9 8.2 C 493.9 8.2 493.9 5.4 493.9 5.4 C 493.9 4.6 493.7 4.1 493 4.1 C 492.1 4.1 491.5 4.6 491.3 5.4 C 491.2 5.6 491.2 5.9 491.2 6.2 C 491.19 6.19 491.2 9 491.2 9 L 489.7 9 C 489.7 9 489.68 4.44 489.7 4.4 Z M 500.4 5.2 C 500.43 5.16 500.6 5.2 500.6 5.2 C 500.6 5.2 500.62 5.11 500.6 5.1 C 500.6 4.2 500.3 3.9 499.5 3.9 C 499.2 3.9 498.7 4 498.7 4.3 C 498.68 4.32 498.7 4.6 498.7 4.6 L 497.3 4.6 C 497.3 4.6 497.26 4 497.3 4 C 497.3 2.9 498.9 2.7 499.5 2.7 C 501.5 2.7 502.1 3.8 502.1 5.2 C 502.1 5.2 502.1 7.5 502.1 7.5 C 502.1 7.6 502.2 7.7 502.4 7.7 C 502.41 7.72 502.9 7.7 502.9 7.7 L 502.9 9 C 502.9 9 501.52 9 501.5 9 C 501 9 500.7 8.7 500.7 8.3 C 500.7 8.2 500.8 8.1 500.8 8.1 C 500.75 8.06 500.7 8.1 500.7 8.1 C 500.7 8.1 500.26 9.14 498.9 9.1 C 497.8 9.1 496.8 8.5 496.8 7.2 C 496.8 5.3 499.4 5.2 500.4 5.2 Z M 499.3 8 C 500.1 8 500.6 7.1 500.6 6.3 C 500.65 6.35 500.6 6.2 500.6 6.2 C 500.6 6.2 500.38 6.2 500.4 6.2 C 499.6 6.2 498.3 6.3 498.3 7.2 C 498.3 7.6 498.6 8 499.3 8 Z M 500 0.5 L 501.4 0.5 L 500.2 2.1 L 499.1 2.1 L 500 0.5 Z M 503.6 4.4 C 503.5 4.2 503.4 4.2 503.3 4.2 C 503.27 4.18 503.1 4.2 503.1 4.2 L 503.1 2.9 C 503.1 2.9 504.02 2.88 504 2.9 C 504.5 2.9 504.8 3 504.9 3.5 C 504.9 3.5 506.1 6.7 506.1 6.7 C 506.2 7.03 506.3 7.5 506.3 7.5 L 506.3 7.5 C 506.3 7.5 506.42 7.03 506.5 6.7 C 506.5 6.7 507.7 3.5 507.7 3.5 C 507.8 3 508.1 2.9 508.6 2.9 C 508.59 2.88 509.4 2.9 509.4 2.9 L 509.4 4.2 C 509.4 4.2 509.26 4.18 509.3 4.2 C 509.1 4.2 509 4.2 508.9 4.4 C 508.92 4.39 507.2 9 507.2 9 L 505.4 9 C 505.4 9 503.61 4.39 503.6 4.4 Z M 513.5 5.2 C 513.51 5.16 513.7 5.2 513.7 5.2 C 513.7 5.2 513.7 5.11 513.7 5.1 C 513.7 4.2 513.4 3.9 512.6 3.9 C 512.3 3.9 511.8 4 511.8 4.3 C 511.76 4.32 511.8 4.6 511.8 4.6 L 510.3 4.6 C 510.3 4.6 510.34 4 510.3 4 C 510.3 2.9 511.9 2.7 512.6 2.7 C 514.6 2.7 515.2 3.8 515.2 5.2 C 515.2 5.2 515.2 7.5 515.2 7.5 C 515.2 7.6 515.3 7.7 515.5 7.7 C 515.49 7.72 516 7.7 516 7.7 L 516 9 C 516 9 514.6 9 514.6 9 C 514 9 513.8 8.7 513.8 8.3 C 513.8 8.2 513.8 8.1 513.8 8.1 C 513.83 8.06 513.8 8.1 513.8 8.1 C 513.8 8.1 513.34 9.14 512 9.1 C 510.9 9.1 509.9 8.5 509.9 7.2 C 509.9 5.3 512.5 5.2 513.5 5.2 Z M 512.3 8 C 513.1 8 513.7 7.1 513.7 6.3 C 513.73 6.35 513.7 6.2 513.7 6.2 C 513.7 6.2 513.46 6.2 513.5 6.2 C 512.7 6.2 511.4 6.3 511.4 7.2 C 511.4 7.6 511.7 8 512.3 8 Z M 520.4 4.4 C 520.4 4.3 520.3 4.2 520.1 4.2 C 520.11 4.18 519.6 4.2 519.6 4.2 L 519.6 2.9 C 519.6 2.9 520.99 2.88 521 2.9 C 521.5 2.9 521.8 3.1 521.8 3.5 C 521.8 3.6 521.8 3.7 521.8 3.7 C 521.75 3.71 521.8 3.7 521.8 3.7 C 521.8 3.7 522.29 2.74 523.7 2.7 C 525.4 2.7 526.4 4 526.4 5.9 C 526.4 7.9 525.2 9.1 523.6 9.1 C 522.42 9.14 521.9 8.3 521.9 8.3 L 521.9 8.3 C 521.9 8.3 521.88 8.56 521.9 8.9 C 521.88 8.87 521.9 11.4 521.9 11.4 L 520.4 11.4 C 520.4 11.4 520.37 4.44 520.4 4.4 Z M 523.4 7.9 C 524.2 7.9 524.9 7.2 524.9 6 C 524.9 4.8 524.3 4 523.4 4 C 522.6 4 521.8 4.6 521.8 6 C 521.8 6.9 522.4 7.9 523.4 7.9 Z M 527.8 4.4 C 527.8 4.3 527.7 4.2 527.6 4.2 C 527.56 4.18 527.1 4.2 527.1 4.2 L 527.1 2.9 C 527.1 2.9 528.47 2.88 528.5 2.9 C 529 2.9 529.3 3.1 529.3 3.6 C 529.3 3.6 529.3 4 529.3 4 C 529.29 4.21 529.3 4.4 529.3 4.4 C 529.3 4.4 529.29 4.37 529.3 4.4 C 529.6 3.5 530.3 2.8 531.2 2.8 C 531.36 2.8 531.5 2.8 531.5 2.8 L 531.5 4.3 C 531.5 4.3 531.35 4.3 531.1 4.3 C 530.5 4.3 529.7 4.7 529.5 5.6 C 529.4 5.9 529.3 6.2 529.3 6.6 C 529.34 6.58 529.3 9 529.3 9 L 527.8 9 C 527.8 9 527.83 4.44 527.8 4.4 Z M 535 2.7 C 536.8 2.7 537.7 4 537.7 5.6 C 537.75 5.82 537.7 6.2 537.7 6.2 C 537.7 6.2 533.49 6.2 533.5 6.2 C 533.6 7.3 534.4 7.8 535.3 7.8 C 536.31 7.85 537 7.2 537 7.2 L 537.7 8.2 C 537.7 8.2 536.74 9.14 535.2 9.1 C 533.2 9.1 531.9 7.7 531.9 5.9 C 531.9 4.1 533.2 2.7 535 2.7 Z M 536.2 5.1 C 536.2 4.4 535.7 3.9 535 3.9 C 534.3 3.9 533.7 4.4 533.5 5.1 C 533.5 5.1 536.2 5.1 536.2 5.1 Z M 541.4 2.7 C 542.73 2.74 543.2 3.5 543.2 3.5 L 543.2 3.5 C 543.2 3.5 543.17 3.32 543.2 3.1 C 543.2 3.1 543.2 2 543.2 2 C 543.2 1.9 543.1 1.8 542.9 1.8 C 542.91 1.78 542.4 1.8 542.4 1.8 L 542.4 0.5 C 542.4 0.5 543.88 0.48 543.9 0.5 C 544.4 0.5 544.7 0.7 544.7 1.3 C 544.7 1.3 544.7 7.5 544.7 7.5 C 544.7 7.6 544.8 7.7 545 7.7 C 544.96 7.72 545.4 7.7 545.4 7.7 L 545.4 9 C 545.4 9 544.02 9 544 9 C 543.5 9 543.3 8.7 543.3 8.4 C 543.3 8.2 543.3 8.1 543.3 8.1 C 543.27 8.15 543.2 8.1 543.2 8.1 C 543.2 8.1 542.74 9.14 541.3 9.1 C 539.7 9.1 538.6 7.8 538.6 5.9 C 538.6 4 539.8 2.7 541.4 2.7 Z M 543.2 5.9 C 543.2 5 542.7 4 541.7 4 C 540.9 4 540.2 4.7 540.2 5.9 C 540.2 7.1 540.8 7.9 541.7 7.9 C 542.5 7.9 543.2 7.3 543.2 5.9 Z M 546.8 0.5 L 548.1 0.5 L 548.1 1.9 L 546.8 1.9 L 546.8 0.5 Z M 546.7 4.4 C 546.7 4.3 546.6 4.2 546.5 4.2 C 546.47 4.18 546 4.2 546 4.2 L 546 2.9 C 546 2.9 547.45 2.88 547.4 2.9 C 548 2.9 548.2 3.1 548.2 3.7 C 548.2 3.7 548.2 7.5 548.2 7.5 C 548.2 7.6 548.3 7.7 548.5 7.7 C 548.51 7.72 549 7.7 549 7.7 L 549 9 C 549 9 547.54 9 547.5 9 C 547 9 546.7 8.8 546.7 8.2 C 546.7 8.2 546.7 4.4 546.7 4.4 Z M 550.2 2 C 550.2 1.9 550.1 1.8 550 1.8 C 549.97 1.78 549.5 1.8 549.5 1.8 L 549.5 0.5 C 549.5 0.5 550.94 0.48 550.9 0.5 C 551.5 0.5 551.8 0.6 551.8 1.2 C 551.75 1.18 551.8 5 551.8 5 C 551.8 5 552.21 5.04 552.2 5 C 552.4 5 552.7 5 552.8 4.8 C 552.78 4.81 554 2.9 554 2.9 L 555.7 2.9 C 555.7 2.9 554.18 5.18 554.2 5.2 C 553.91 5.57 553.7 5.7 553.7 5.7 L 553.7 5.7 C 553.7 5.7 553.94 5.77 554.2 6.2 C 554.2 6.2 554.8 7.5 554.8 7.5 C 554.9 7.7 555.1 7.7 555.4 7.7 C 555.35 7.72 555.8 7.7 555.8 7.7 L 555.8 9 C 555.8 9 554.63 9 554.6 9 C 554.1 9 553.9 8.9 553.7 8.5 C 553.7 8.5 552.7 6.6 552.7 6.6 C 552.5 6.3 552.3 6.3 552.1 6.3 C 552.09 6.32 551.8 6.3 551.8 6.3 L 551.8 9 L 550.2 9 C 550.2 9 550.23 2.04 550.2 2 Z M 556.9 4.1 L 556.1 4.1 L 556.1 2.9 L 557 2.9 L 557 1.2 L 558.5 1.2 L 558.5 2.9 L 559.9 2.9 L 559.9 4.1 L 558.5 4.1 C 558.5 4.1 558.46 6.56 558.5 6.6 C 558.5 7.6 559.3 7.7 559.7 7.7 C 559.84 7.72 559.9 7.7 559.9 7.7 L 559.9 9 C 559.9 9 559.76 9.06 559.5 9.1 C 558.6 9.1 556.9 8.8 556.9 6.8 C 556.94 6.76 556.9 4.1 556.9 4.1 Z M 561.4 4.4 C 561.4 4.3 561.3 4.2 561.1 4.2 C 561.15 4.18 560.7 4.2 560.7 4.2 L 560.7 2.9 C 560.7 2.9 562.12 2.88 562.1 2.9 C 562.7 2.9 562.9 3.1 562.9 3.7 C 562.9 3.7 562.9 7.5 562.9 7.5 C 562.9 7.6 563 7.7 563.2 7.7 C 563.2 7.72 563.7 7.7 563.7 7.7 L 563.7 9 C 563.7 9 562.23 9 562.2 9 C 561.7 9 561.4 8.8 561.4 8.2 C 561.4 8.2 561.4 4.4 561.4 4.4 Z M 562.4 0.5 L 563.9 0.5 L 562.6 2.1 L 561.5 2.1 L 562.4 0.5 Z M 564.5 4.4 C 564.5 4.2 564.4 4.2 564.2 4.2 C 564.2 4.18 564.1 4.2 564.1 4.2 L 564.1 2.9 C 564.1 2.9 564.94 2.88 564.9 2.9 C 565.4 2.9 565.7 3 565.8 3.5 C 565.8 3.5 567 6.7 567 6.7 C 567.12 7.03 567.2 7.5 567.2 7.5 L 567.2 7.5 C 567.2 7.5 567.34 7.03 567.5 6.7 C 567.5 6.7 568.6 3.5 568.6 3.5 C 568.8 3 569 2.9 569.5 2.9 C 569.51 2.88 570.3 2.9 570.3 2.9 L 570.3 4.2 C 570.3 4.2 570.18 4.18 570.2 4.2 C 570 4.2 569.9 4.2 569.8 4.4 C 569.85 4.39 568.1 9 568.1 9 L 566.3 9 C 566.3 9 564.53 4.39 564.5 4.4 Z M 571.5 4.4 C 571.5 4.3 571.4 4.2 571.2 4.2 C 571.19 4.18 570.7 4.2 570.7 4.2 L 570.7 2.9 C 570.7 2.9 572.12 2.88 572.1 2.9 C 572.7 2.9 572.9 3.1 572.9 3.6 C 572.9 3.6 572.9 3.7 572.9 3.7 C 572.9 3.9 572.9 4 572.9 4 C 572.9 4 572.9 4 572.9 4 C 573.2 3.5 573.8 2.7 575.1 2.7 C 576.4 2.7 577.2 3.4 577.2 5.1 C 577.2 5.1 577.2 7.5 577.2 7.5 C 577.2 7.6 577.3 7.7 577.5 7.7 C 577.48 7.72 578 7.7 578 7.7 L 578 9 C 578 9 576.51 9 576.5 9 C 575.9 9 575.7 8.8 575.7 8.2 C 575.7 8.2 575.7 5.4 575.7 5.4 C 575.7 4.6 575.5 4.1 574.7 4.1 C 573.9 4.1 573.3 4.6 573.1 5.4 C 573 5.6 573 5.9 573 6.2 C 572.97 6.19 573 9 573 9 L 571.5 9 C 571.5 9 571.46 4.44 571.5 4.4 Z M 581.7 2.7 C 583.4 2.7 584.4 4 584.4 5.6 C 584.38 5.82 584.3 6.2 584.3 6.2 C 584.3 6.2 580.12 6.2 580.1 6.2 C 580.2 7.3 581 7.8 582 7.8 C 582.94 7.85 583.7 7.2 583.7 7.2 L 584.3 8.2 C 584.3 8.2 583.37 9.14 581.8 9.1 C 579.8 9.1 578.6 7.7 578.6 5.9 C 578.6 4.1 579.8 2.7 581.7 2.7 Z M 582.8 5.1 C 582.8 4.4 582.3 3.9 581.7 3.9 C 580.9 3.9 580.3 4.4 580.2 5.1 C 580.2 5.1 582.8 5.1 582.8 5.1 Z M 589 4.4 C 589 4.3 588.9 4.2 588.8 4.2 C 588.77 4.18 588.3 4.2 588.3 4.2 L 588.3 2.9 C 588.3 2.9 589.68 2.88 589.7 2.9 C 590.2 2.9 590.5 3.1 590.5 3.6 C 590.5 3.6 590.5 4 590.5 4 C 590.5 4.21 590.5 4.4 590.5 4.4 C 590.5 4.4 590.5 4.37 590.5 4.4 C 590.8 3.5 591.5 2.8 592.4 2.8 C 592.58 2.8 592.7 2.8 592.7 2.8 L 592.7 4.3 C 592.7 4.3 592.56 4.3 592.3 4.3 C 591.7 4.3 591 4.7 590.7 5.6 C 590.6 5.9 590.5 6.2 590.5 6.6 C 590.55 6.58 590.5 9 590.5 9 L 589 9 C 589 9 589.04 4.44 589 4.4 Z M 594.1 0.5 L 595.4 0.5 L 595.4 1.9 L 594.1 1.9 L 594.1 0.5 Z M 594 4.4 C 594 4.3 593.9 4.2 593.8 4.2 C 593.77 4.18 593.3 4.2 593.3 4.2 L 593.3 2.9 C 593.3 2.9 594.74 2.88 594.7 2.9 C 595.3 2.9 595.5 3.1 595.5 3.7 C 595.5 3.7 595.5 7.5 595.5 7.5 C 595.5 7.6 595.6 7.7 595.8 7.7 C 595.8 7.72 596.3 7.7 596.3 7.7 L 596.3 9 C 596.3 9 594.83 9 594.8 9 C 594.3 9 594 8.8 594 8.2 C 594 8.2 594 4.4 594 4.4 Z M 596.9 8.2 C 596.9 8.2 599.72 4.74 599.7 4.7 C 599.99 4.39 600.2 4.2 600.2 4.2 L 600.2 4.2 C 600.2 4.2 600.05 4.18 599.7 4.2 C 599.7 4.2 598.6 4.2 598.6 4.2 C 598.4 4.2 598.3 4.3 598.3 4.4 C 598.3 4.44 598.3 4.8 598.3 4.8 L 596.9 4.8 C 596.9 4.8 596.92 3.7 596.9 3.7 C 596.9 3.1 597.2 2.9 597.7 2.9 C 597.74 2.88 602.2 2.9 602.2 2.9 L 602.2 3.7 C 602.2 3.7 599.4 7.15 599.4 7.2 C 599.13 7.49 598.9 7.7 598.9 7.7 L 598.9 7.7 C 598.9 7.7 599.07 7.7 599.5 7.7 C 599.5 7.7 600.8 7.7 600.8 7.7 C 601 7.7 601.1 7.6 601.1 7.4 C 601.07 7.44 601.1 7.1 601.1 7.1 L 602.5 7.1 C 602.5 7.1 602.45 8.18 602.5 8.2 C 602.5 8.8 602.2 9 601.6 9 C 601.65 9 596.9 9 596.9 9 L 596.9 8.2 Z M 603.8 0.5 L 605.1 0.5 L 605.1 1.9 L 603.8 1.9 L 603.8 0.5 Z M 603.7 4.4 C 603.7 4.3 603.7 4.2 603.5 4.2 C 603.48 4.18 603 4.2 603 4.2 L 603 2.9 C 603 2.9 604.46 2.88 604.5 2.9 C 605 2.9 605.3 3.1 605.3 3.7 C 605.3 3.7 605.3 7.5 605.3 7.5 C 605.3 7.6 605.4 7.7 605.5 7.7 C 605.52 7.72 606 7.7 606 7.7 L 606 9 C 606 9 604.55 9 604.6 9 C 604 9 603.7 8.8 603.7 8.2 C 603.7 8.2 603.7 4.4 603.7 4.4 Z M 607.2 2 C 607.2 1.9 607.1 1.8 607 1.8 C 606.98 1.78 606.5 1.8 606.5 1.8 L 606.5 0.5 C 606.5 0.5 607.95 0.48 607.9 0.5 C 608.5 0.5 608.8 0.6 608.8 1.2 C 608.76 1.18 608.8 5 608.8 5 C 608.8 5 609.22 5.04 609.2 5 C 609.4 5 609.7 5 609.8 4.8 C 609.8 4.81 611 2.9 611 2.9 L 612.7 2.9 C 612.7 2.9 611.19 5.18 611.2 5.2 C 610.92 5.57 610.7 5.7 610.7 5.7 L 610.7 5.7 C 610.7 5.7 610.95 5.77 611.2 6.2 C 611.2 6.2 611.9 7.5 611.9 7.5 C 612 7.7 612.1 7.7 612.4 7.7 C 612.36 7.72 612.8 7.7 612.8 7.7 L 612.8 9 C 612.8 9 611.64 9 611.6 9 C 611.1 9 610.9 8.9 610.7 8.5 C 610.7 8.5 609.7 6.6 609.7 6.6 C 609.5 6.3 609.3 6.3 609.1 6.3 C 609.1 6.32 608.8 6.3 608.8 6.3 L 608.8 9 L 607.2 9 C 607.2 9 607.24 2.04 607.2 2 Z M 616.6 2.7 C 618.4 2.7 619.9 4.1 619.9 5.9 C 619.9 7.8 618.4 9.1 616.6 9.1 C 614.7 9.1 613.2 7.8 613.2 5.9 C 613.2 4.1 614.7 2.7 616.6 2.7 Z M 616.6 7.8 C 617.6 7.8 618.4 7.1 618.4 5.9 C 618.4 4.8 617.6 4 616.6 4 C 615.6 4 614.8 4.8 614.8 5.9 C 614.8 7.1 615.6 7.8 616.6 7.8 Z M 623.9 2.1 C 623.9 1.9 623.8 1.8 623.6 1.8 C 623.56 1.81 623.3 1.8 623.3 1.8 L 623.3 0.5 C 623.3 0.5 624.34 0.48 624.3 0.5 C 624.9 0.5 625.2 0.6 625.3 1.2 C 625.3 1.2 627 5.9 627 5.9 C 627.15 6.41 627.3 7.2 627.3 7.2 L 627.3 7.2 C 627.3 7.2 627.48 6.41 627.7 5.9 C 627.7 5.9 629.3 1.2 629.3 1.2 C 629.5 0.6 629.7 0.5 630.3 0.5 C 630.28 0.48 631.3 0.5 631.3 0.5 L 631.3 1.8 C 631.3 1.8 631.06 1.81 631.1 1.8 C 630.9 1.8 630.8 1.9 630.7 2.1 C 630.69 2.08 628.1 9 628.1 9 L 626.5 9 C 626.5 9 623.93 2.08 623.9 2.1 Z M 634.6 1.8 C 634.6 1.8 633.33 1.81 633.3 1.8 C 633.2 1.8 633.1 1.9 633.1 2.1 C 633.06 2.08 633.1 2.6 633.1 2.6 L 631.7 2.6 C 631.7 2.6 631.68 1.25 631.7 1.2 C 631.7 0.7 631.9 0.5 632.5 0.5 C 632.5 0.5 638.4 0.5 638.4 0.5 C 639 0.5 639.2 0.7 639.2 1.2 C 639.16 1.25 639.2 2.6 639.2 2.6 L 637.8 2.6 C 637.8 2.6 637.78 2.08 637.8 2.1 C 637.8 1.9 637.7 1.8 637.5 1.8 C 637.52 1.81 636.2 1.8 636.2 1.8 L 636.2 9 L 634.6 9 L 634.6 1.8 Z M 640.5 1.8 L 639.7 1.8 L 639.7 0.5 C 639.7 0.5 644.9 0.48 644.9 0.5 C 645.5 0.5 645.7 0.7 645.7 1.3 C 645.71 1.3 645.7 2.6 645.7 2.6 L 644.3 2.6 C 644.3 2.6 644.28 2.08 644.3 2.1 C 644.3 1.9 644.2 1.8 644 1.8 C 644.02 1.81 642.1 1.8 642.1 1.8 L 642.1 4 L 644.9 4 L 644.9 5.4 L 642.1 5.4 C 642.1 5.4 642.1 7.4 642.1 7.4 C 642.1 7.6 642.2 7.7 642.4 7.7 C 642.4 7.7 644.3 7.7 644.3 7.7 C 644.5 7.7 644.6 7.6 644.6 7.4 C 644.6 7.4 644.6 6.9 644.6 6.9 L 646 6.9 C 646 6.9 646.02 8.18 646 8.2 C 646 8.8 645.8 9 645.2 9 C 645.2 9 641.3 9 641.3 9 C 640.8 9 640.5 8.8 640.5 8.2 C 640.53 8.18 640.5 1.8 640.5 1.8 Z " stroke="none" fill="#000"/>  </g></svg>