<?xml version="1.0" standalone="no"?><!DOCTYPE svg PUBLIC "-//W3C//DTD SVG 1.1//EN" "http://www.w3.org/Graphics/SVG/1.1/DTD/svg11.dtd"><svg xmlns="http://www.w3.org/2000/svg" version="1.1" width="93px" height="16.8px" viewBox="0 -2 93 16.8" style="top:-2px">  <desc>F XIIa. Kallikrein</desc>  <defs/>  <g id="Polygon76535">    <path d="M 8.8 0.5 L 12.9 0.5 L 12.9 1.2 L 9.6 1.2 L 9.6 4.1 L 12.4 4.1 L 12.4 4.8 L 9.6 4.8 L 9.6 8.2 L 8.8 8.2 L 8.8 0.5 Z M 19.1 4.2 L 16.8 0.5 L 17.7 0.5 C 17.7 0.5 19.07 2.81 19.1 2.8 C 19.3 3.2 19.6 3.7 19.6 3.7 L 19.6 3.7 C 19.6 3.7 19.82 3.2 20.1 2.8 C 20.06 2.81 21.4 0.5 21.4 0.5 L 22.3 0.5 L 20.1 4.2 L 22.5 8.2 L 21.7 8.2 C 21.7 8.2 20.05 5.58 20 5.6 C 19.8 5.18 19.6 4.7 19.6 4.7 L 19.5 4.7 C 19.5 4.7 19.31 5.18 19.1 5.6 C 19.07 5.59 17.5 8.2 17.5 8.2 L 16.6 8.2 L 19.1 4.2 Z M 24 0.5 L 24.7 0.5 L 24.7 8.2 L 24 8.2 L 24 0.5 Z M 27 0.5 L 27.7 0.5 L 27.7 8.2 L 27 8.2 L 27 0.5 Z M 32.7 4.8 C 32.68 4.83 33 4.8 33 4.8 C 33 4.8 32.98 4.69 33 4.7 C 33 3.6 32.4 3.3 31.6 3.3 C 30.69 3.26 30 3.8 30 3.8 L 29.7 3.2 C 29.7 3.2 30.42 2.59 31.7 2.6 C 33 2.6 33.7 3.3 33.7 4.7 C 33.73 4.71 33.7 8.2 33.7 8.2 L 33 8.2 C 33 8.2 33.02 7.64 33 7.6 C 33 7.4 33 7.2 33 7.2 C 33.04 7.18 33 7.2 33 7.2 C 33 7.2 32.55 8.38 31.2 8.4 C 30.2 8.4 29.3 7.8 29.3 6.7 C 29.3 4.9 31.7 4.8 32.7 4.8 Z M 31.3 7.7 C 32.3 7.7 33 6.6 33 5.7 C 32.98 5.69 33 5.4 33 5.4 C 33 5.4 32.66 5.44 32.7 5.4 C 31.8 5.4 30.1 5.5 30.1 6.7 C 30.1 7.2 30.5 7.7 31.3 7.7 Z M 35.5 7.4 L 36.3 7.4 L 36.3 8.2 L 35.5 8.2 L 35.5 7.4 Z M 41.4 0.5 L 42.1 0.5 L 42.1 3.9 L 43.4 3.9 L 45.5 0.5 L 46.4 0.5 L 44.1 4.2 L 44.1 4.2 L 46.5 8.2 L 45.6 8.2 L 43.4 4.6 L 42.1 4.6 L 42.1 8.2 L 41.4 8.2 L 41.4 0.5 Z M 50.7 4.8 C 50.68 4.83 51 4.8 51 4.8 C 51 4.8 50.99 4.69 51 4.7 C 51 3.6 50.4 3.3 49.6 3.3 C 48.7 3.26 48.1 3.8 48.1 3.8 L 47.7 3.2 C 47.7 3.2 48.43 2.59 49.7 2.6 C 51 2.6 51.7 3.3 51.7 4.7 C 51.74 4.71 51.7 8.2 51.7 8.2 L 51 8.2 C 51 8.2 51.02 7.64 51 7.6 C 51 7.4 51 7.2 51 7.2 C 51.05 7.18 51 7.2 51 7.2 C 51 7.2 50.56 8.38 49.2 8.4 C 48.3 8.4 47.3 7.8 47.3 6.7 C 47.3 4.9 49.7 4.8 50.7 4.8 Z M 49.3 7.7 C 50.4 7.7 51 6.6 51 5.7 C 50.99 5.69 51 5.4 51 5.4 C 51 5.4 50.67 5.44 50.7 5.4 C 49.8 5.4 48.1 5.5 48.1 6.7 C 48.1 7.2 48.5 7.7 49.3 7.7 Z M 53.4 0.5 L 54.2 0.5 C 54.2 0.5 54.16 6.78 54.2 6.8 C 54.2 7.5 54.5 7.6 54.8 7.6 C 54.87 7.61 55 7.6 55 7.6 L 55 8.3 C 55 8.3 54.83 8.29 54.7 8.3 C 54.2 8.3 53.4 8.2 53.4 6.9 C 53.41 6.94 53.4 0.5 53.4 0.5 Z M 56.1 0.5 L 56.9 0.5 C 56.9 0.5 56.87 6.78 56.9 6.8 C 56.9 7.5 57.2 7.6 57.5 7.6 C 57.59 7.61 57.7 7.6 57.7 7.6 L 57.7 8.3 C 57.7 8.3 57.54 8.29 57.4 8.3 C 56.9 8.3 56.1 8.2 56.1 6.9 C 56.13 6.94 56.1 0.5 56.1 0.5 Z M 58.9 0.5 L 59.7 0.5 L 59.7 1.5 L 58.9 1.5 L 58.9 0.5 Z M 58.9 2.7 L 59.6 2.7 L 59.6 8.2 L 58.9 8.2 L 58.9 2.7 Z M 61.5 0.5 L 62.2 0.5 L 62.2 4.8 L 63.1 4.8 L 64.7 2.7 L 65.6 2.7 L 63.7 5.1 L 63.7 5.1 L 65.8 8.2 L 64.9 8.2 L 63.1 5.5 L 62.2 5.5 L 62.2 8.2 L 61.5 8.2 L 61.5 0.5 Z M 67 2.7 L 67.7 2.7 C 67.7 2.7 67.71 3.7 67.7 3.7 C 67.7 3.9 67.7 4.1 67.7 4.1 C 67.7 4.1 67.7 4.1 67.7 4.1 C 68 3.3 68.6 2.7 69.5 2.7 C 69.6 2.7 69.8 2.7 69.8 2.7 C 69.75 2.7 69.8 3.4 69.8 3.4 C 69.8 3.4 69.62 3.41 69.5 3.4 C 68.7 3.4 68.1 4 67.9 4.8 C 67.8 5.2 67.7 5.6 67.7 5.9 C 67.72 5.92 67.7 8.2 67.7 8.2 L 67 8.2 L 67 2.7 Z M 73.2 2.6 C 74.7 2.6 75.5 3.8 75.5 5.1 C 75.47 5.27 75.5 5.5 75.5 5.5 C 75.5 5.5 71.21 5.52 71.2 5.5 C 71.2 6.9 72.2 7.7 73.4 7.7 C 74.36 7.71 75 7 75 7 L 75.4 7.6 C 75.4 7.6 74.57 8.38 73.3 8.4 C 71.7 8.4 70.4 7.2 70.4 5.5 C 70.4 3.7 71.7 2.6 73.2 2.6 Z M 74.7 4.9 C 74.7 3.8 74 3.2 73.1 3.2 C 72.2 3.2 71.4 3.8 71.2 4.9 C 71.2 4.9 74.7 4.9 74.7 4.9 Z M 76.9 0.5 L 77.7 0.5 L 77.7 1.5 L 76.9 1.5 L 76.9 0.5 Z M 76.9 2.7 L 77.7 2.7 L 77.7 8.2 L 76.9 8.2 L 76.9 2.7 Z M 79.5 2.7 L 80.2 2.7 C 80.2 2.7 80.19 3.54 80.2 3.5 C 80.2 3.8 80.2 4 80.2 4 C 80.2 4 80.2 4 80.2 4 C 80.4 3.5 81.1 2.6 82.4 2.6 C 83.8 2.6 84.3 3.4 84.3 4.7 C 84.25 4.73 84.3 8.2 84.3 8.2 L 83.5 8.2 C 83.5 8.2 83.51 4.93 83.5 4.9 C 83.5 4.1 83.4 3.3 82.3 3.3 C 81.4 3.3 80.5 3.9 80.3 4.9 C 80.2 5.1 80.2 5.3 80.2 5.6 C 80.2 5.6 80.2 8.2 80.2 8.2 L 79.5 8.2 L 79.5 2.7 Z " stroke="none" fill="#000"/>  </g></svg>