<?xml version="1.0" standalone="no"?><!DOCTYPE svg PUBLIC "-//W3C//DTD SVG 1.1//EN" "http://www.w3.org/Graphics/SVG/1.1/DTD/svg11.dtd"><svg xmlns="http://www.w3.org/2000/svg" version="1.1" width="113.4px" height="78.9px" viewBox="0 0 113.4 78.9">  <desc>Nie</desc>  <defs/>  <g id="Polygon69652">    <path d="M 48.4 41.2 C 48.4 41.2 48.83 41.21 48.8 41.2 C 49 41.2 49.1 41.1 49.1 41 C 49.07 40.96 49.1 34.4 49.1 34.4 L 50.1 34.4 C 50.1 34.4 53.53 39.3 53.5 39.3 C 53.81 39.72 54.2 40.4 54.2 40.4 L 54.2 40.4 C 54.2 40.4 54.12 39.74 54.1 39.3 C 54.1 39.3 54.1 35.1 54.1 35.1 C 54.1 34.6 54.3 34.4 54.8 34.4 C 54.83 34.39 55.9 34.4 55.9 34.4 L 55.9 35.3 C 55.9 35.3 55.46 35.33 55.5 35.3 C 55.3 35.3 55.2 35.4 55.2 35.6 C 55.22 35.57 55.2 42.2 55.2 42.2 L 54.2 42.2 C 54.2 42.2 50.76 37.23 50.8 37.2 C 50.48 36.82 50.1 36.2 50.1 36.2 L 50.1 36.2 C 50.1 36.2 50.17 36.81 50.2 37.2 C 50.2 37.2 50.2 41.4 50.2 41.4 C 50.2 41.9 50 42.2 49.5 42.2 C 49.47 42.15 48.4 42.2 48.4 42.2 L 48.4 41.2 Z M 57.4 34.4 L 58.3 34.4 L 58.3 35.5 L 57.4 35.5 L 57.4 34.4 Z M 57.3 37.7 C 57.3 37.6 57.3 37.5 57.1 37.5 C 57.1 37.5 56.6 37.5 56.6 37.5 L 56.6 36.6 C 56.6 36.6 57.69 36.59 57.7 36.6 C 58.2 36.6 58.4 36.8 58.4 37.3 C 58.4 37.3 58.4 41 58.4 41 C 58.4 41.2 58.5 41.2 58.6 41.2 C 58.64 41.24 59.1 41.2 59.1 41.2 L 59.1 42.2 C 59.1 42.2 58.05 42.15 58 42.2 C 57.6 42.2 57.3 41.9 57.3 41.4 C 57.3 41.4 57.3 37.7 57.3 37.7 Z M 62.6 36.5 C 64.1 36.5 65 37.6 65 39.1 C 64.96 39.2 64.9 39.5 64.9 39.5 C 64.9 39.5 60.87 39.5 60.9 39.5 C 60.9 40.7 61.8 41.4 62.8 41.4 C 63.74 41.36 64.4 40.7 64.4 40.7 L 64.9 41.5 C 64.9 41.5 64.05 42.28 62.7 42.3 C 61 42.3 59.8 41 59.8 39.4 C 59.8 37.6 61 36.5 62.6 36.5 Z M 63.9 38.7 C 63.8 37.8 63.2 37.3 62.6 37.3 C 61.7 37.3 61.1 37.8 60.9 38.7 C 60.9 38.7 63.9 38.7 63.9 38.7 Z " stroke="none" fill="#fff"/>  </g></svg>