<?xml version="1.0" standalone="no"?><!DOCTYPE svg PUBLIC "-//W3C//DTD SVG 1.1//EN" "http://www.w3.org/Graphics/SVG/1.1/DTD/svg11.dtd"><svg xmlns="http://www.w3.org/2000/svg" version="1.1" width="107px" height="20.8px" viewBox="0 -2 107 20.8" style="top:-2px">  <desc>Prothoromobin (F II)</desc>  <defs/>  <g id="Polygon77515">    <path d="M 3.7 0.5 C 3.7 0.5 6.37 0.52 6.4 0.5 C 7.8 0.5 8.8 1.4 8.8 2.8 C 8.8 4.3 7.8 5.2 6.4 5.2 C 6.37 5.21 4.5 5.2 4.5 5.2 L 4.5 8.2 L 3.7 8.2 L 3.7 0.5 Z M 6.3 4.5 C 7.3 4.5 8 3.9 8 2.8 C 8 1.8 7.3 1.2 6.3 1.2 C 6.28 1.2 4.5 1.2 4.5 1.2 L 4.5 4.5 C 4.5 4.5 6.27 4.53 6.3 4.5 Z M 10.1 2.7 L 10.8 2.7 C 10.8 2.7 10.79 3.7 10.8 3.7 C 10.8 3.9 10.8 4.1 10.8 4.1 C 10.8 4.1 10.8 4.1 10.8 4.1 C 11.1 3.3 11.7 2.7 12.5 2.7 C 12.7 2.7 12.8 2.7 12.8 2.7 C 12.84 2.7 12.8 3.4 12.8 3.4 C 12.8 3.4 12.71 3.41 12.6 3.4 C 11.8 3.4 11.2 4 11 4.8 C 10.8 5.2 10.8 5.6 10.8 5.9 C 10.8 5.92 10.8 8.2 10.8 8.2 L 10.1 8.2 L 10.1 2.7 Z M 16.4 2.6 C 18 2.6 19.4 3.8 19.4 5.5 C 19.4 7.1 18 8.4 16.4 8.4 C 14.8 8.4 13.5 7.1 13.5 5.5 C 13.5 3.8 14.8 2.6 16.4 2.6 Z M 16.4 7.7 C 17.6 7.7 18.6 6.7 18.6 5.5 C 18.6 4.2 17.6 3.3 16.4 3.3 C 15.2 3.3 14.3 4.2 14.3 5.5 C 14.3 6.7 15.2 7.7 16.4 7.7 Z M 21 3.4 L 20.2 3.4 L 20.2 2.8 L 21 2.8 L 21 1.2 L 21.7 1.2 L 21.7 2.8 L 23.1 2.8 L 23.1 3.4 L 21.7 3.4 C 21.7 3.4 21.7 6.16 21.7 6.2 C 21.7 7.5 22.5 7.6 22.9 7.6 C 23.1 7.62 23.2 7.6 23.2 7.6 L 23.2 8.3 C 23.2 8.3 23.08 8.29 22.9 8.3 C 22.2 8.3 21 8.1 21 6.2 C 20.96 6.24 21 3.4 21 3.4 Z M 24.4 0.5 L 25.2 0.5 C 25.2 0.5 25.18 3.51 25.2 3.5 C 25.18 3.76 25.2 4 25.2 4 C 25.2 4 25.18 3.96 25.2 4 C 25.4 3.4 26.1 2.6 27.4 2.6 C 28.7 2.6 29.2 3.4 29.2 4.7 C 29.23 4.73 29.2 8.2 29.2 8.2 L 28.5 8.2 C 28.5 8.2 28.48 4.93 28.5 4.9 C 28.5 4.1 28.3 3.3 27.3 3.3 C 26.3 3.3 25.5 3.9 25.3 4.9 C 25.2 5.1 25.2 5.3 25.2 5.6 C 25.18 5.6 25.2 8.2 25.2 8.2 L 24.4 8.2 L 24.4 0.5 Z M 33.5 2.6 C 35.1 2.6 36.4 3.8 36.4 5.5 C 36.4 7.1 35.1 8.4 33.5 8.4 C 31.9 8.4 30.5 7.1 30.5 5.5 C 30.5 3.8 31.9 2.6 33.5 2.6 Z M 33.5 7.7 C 34.7 7.7 35.6 6.7 35.6 5.5 C 35.6 4.2 34.7 3.3 33.5 3.3 C 32.3 3.3 31.3 4.2 31.3 5.5 C 31.3 6.7 32.3 7.7 33.5 7.7 Z M 37.8 2.7 L 38.5 2.7 C 38.5 2.7 38.53 3.7 38.5 3.7 C 38.5 3.9 38.5 4.1 38.5 4.1 C 38.5 4.1 38.5 4.1 38.5 4.1 C 38.8 3.3 39.4 2.7 40.3 2.7 C 40.4 2.7 40.6 2.7 40.6 2.7 C 40.58 2.7 40.6 3.4 40.6 3.4 C 40.6 3.4 40.45 3.41 40.3 3.4 C 39.5 3.4 38.9 4 38.7 4.8 C 38.6 5.2 38.5 5.6 38.5 5.9 C 38.55 5.92 38.5 8.2 38.5 8.2 L 37.8 8.2 L 37.8 2.7 Z M 44.2 2.6 C 45.8 2.6 47.1 3.8 47.1 5.5 C 47.1 7.1 45.8 8.4 44.2 8.4 C 42.5 8.4 41.2 7.1 41.2 5.5 C 41.2 3.8 42.5 2.6 44.2 2.6 Z M 44.2 7.7 C 45.4 7.7 46.3 6.7 46.3 5.5 C 46.3 4.2 45.4 3.3 44.2 3.3 C 43 3.3 42 4.2 42 5.5 C 42 6.7 43 7.7 44.2 7.7 Z M 48.5 2.7 L 49.2 2.7 C 49.2 2.7 49.23 3.54 49.2 3.5 C 49.2 3.8 49.2 4 49.2 4 C 49.2 4 49.2 4 49.2 4 C 49.5 3.2 50.4 2.6 51.2 2.6 C 52.3 2.6 52.8 3.1 52.9 4 C 52.9 4 53 4 53 4 C 53.3 3.2 54.1 2.6 55 2.6 C 56.3 2.6 56.8 3.4 56.8 4.7 C 56.84 4.73 56.8 8.2 56.8 8.2 L 56.1 8.2 C 56.1 8.2 56.09 4.92 56.1 4.9 C 56.1 4 55.9 3.3 54.9 3.3 C 54 3.3 53.4 4 53.1 4.8 C 53.1 5.1 53 5.3 53 5.6 C 53.04 5.63 53 8.2 53 8.2 L 52.3 8.2 C 52.3 8.2 52.3 4.92 52.3 4.9 C 52.3 4.1 52.2 3.3 51.1 3.3 C 50.2 3.3 49.5 4 49.3 4.9 C 49.3 5.1 49.2 5.4 49.2 5.6 C 49.24 5.63 49.2 8.2 49.2 8.2 L 48.5 8.2 L 48.5 2.7 Z M 61.1 2.6 C 62.7 2.6 64 3.8 64 5.5 C 64 7.1 62.7 8.4 61.1 8.4 C 59.5 8.4 58.2 7.1 58.2 5.5 C 58.2 3.8 59.5 2.6 61.1 2.6 Z M 61.1 7.7 C 62.3 7.7 63.2 6.7 63.2 5.5 C 63.2 4.2 62.3 3.3 61.1 3.3 C 59.9 3.3 58.9 4.2 58.9 5.5 C 58.9 6.7 59.9 7.7 61.1 7.7 Z M 65.4 0.5 L 66.2 0.5 C 66.2 0.5 66.16 3.2 66.2 3.2 C 66.16 3.45 66.1 3.7 66.1 3.7 L 66.2 3.7 C 66.2 3.7 66.62 2.59 68 2.6 C 69.5 2.6 70.4 3.8 70.4 5.5 C 70.4 7.2 69.4 8.4 67.9 8.4 C 66.63 8.38 66.1 7.3 66.1 7.3 L 66.1 7.3 C 66.1 7.3 66.13 7.49 66.1 7.8 C 66.13 7.76 66.1 8.2 66.1 8.2 L 65.4 8.2 L 65.4 0.5 Z M 67.9 7.7 C 68.9 7.7 69.7 6.9 69.7 5.5 C 69.7 4.1 69 3.3 67.9 3.3 C 67 3.3 66.1 3.9 66.1 5.5 C 66.1 6.6 66.7 7.7 67.9 7.7 Z M 71.9 0.5 L 72.6 0.5 L 72.6 1.5 L 71.9 1.5 L 71.9 0.5 Z M 71.9 2.7 L 72.6 2.7 L 72.6 8.2 L 71.9 8.2 L 71.9 2.7 Z M 74.4 2.7 L 75.2 2.7 C 75.2 2.7 75.17 3.54 75.2 3.5 C 75.2 3.8 75.2 4 75.2 4 C 75.2 4 75.2 4 75.2 4 C 75.4 3.5 76.1 2.6 77.4 2.6 C 78.8 2.6 79.2 3.4 79.2 4.7 C 79.23 4.73 79.2 8.2 79.2 8.2 L 78.5 8.2 C 78.5 8.2 78.49 4.93 78.5 4.9 C 78.5 4.1 78.4 3.3 77.3 3.3 C 76.3 3.3 75.5 3.9 75.3 4.9 C 75.2 5.1 75.2 5.3 75.2 5.6 C 75.19 5.6 75.2 8.2 75.2 8.2 L 74.4 8.2 L 74.4 2.7 Z M 83.9 4.5 C 83.9 3 84.3 1.5 85.1 0.2 C 85.1 0.2 85.8 0.2 85.8 0.2 C 85 1.6 84.6 3 84.6 4.5 C 84.6 6.2 85 7.8 85.8 9.3 C 85.8 9.3 85.1 9.3 85.1 9.3 C 84.4 8 83.9 6.3 83.9 4.5 Z M 87.3 0.5 L 91.4 0.5 L 91.4 1.2 L 88.1 1.2 L 88.1 4.1 L 90.9 4.1 L 90.9 4.8 L 88.1 4.8 L 88.1 8.2 L 87.3 8.2 L 87.3 0.5 Z M 95.9 0.5 L 96.7 0.5 L 96.7 8.2 L 95.9 8.2 L 95.9 0.5 Z M 98.9 0.5 L 99.7 0.5 L 99.7 8.2 L 98.9 8.2 L 98.9 0.5 Z M 101.2 9.3 C 102 7.8 102.4 6.2 102.4 4.5 C 102.4 3 102 1.6 101.2 0.2 C 101.2 0.2 101.9 0.2 101.9 0.2 C 102.7 1.5 103.1 3 103.1 4.5 C 103.1 6.3 102.7 8 101.9 9.3 C 101.9 9.3 101.2 9.3 101.2 9.3 Z " stroke="none" fill="#000"/>  </g></svg>