<?xml version="1.0" standalone="no"?><!DOCTYPE svg PUBLIC "-//W3C//DTD SVG 1.1//EN" "http://www.w3.org/Graphics/SVG/1.1/DTD/svg11.dtd"><svg xmlns="http://www.w3.org/2000/svg" version="1.1" width="30px" height="16.8px" viewBox="0 -2 30 16.8" style="top:-2px">  <desc>F V</desc>  <defs/>  <g id="Polygon76829">    <path d="M 8.4 0.5 L 12.5 0.5 L 12.5 1.2 L 9.1 1.2 L 9.1 4.1 L 12 4.1 L 12 4.8 L 9.1 4.8 L 9.1 8.2 L 8.4 8.2 L 8.4 0.5 Z M 16 0.5 L 16.8 0.5 C 16.8 0.5 18.97 6.39 19 6.4 C 19.11 6.79 19.3 7.4 19.3 7.4 L 19.3 7.4 C 19.3 7.4 19.44 6.79 19.6 6.4 C 19.58 6.39 21.7 0.5 21.7 0.5 L 22.5 0.5 L 19.7 8.2 L 18.9 8.2 L 16 0.5 Z " stroke="none" fill="#000"/>  </g></svg>