<?xml version="1.0" standalone="no"?><!DOCTYPE svg PUBLIC "-//W3C//DTD SVG 1.1//EN" "http://www.w3.org/Graphics/SVG/1.1/DTD/svg11.dtd"><svg xmlns="http://www.w3.org/2000/svg" version="1.1" width="279.5px" height="43.5px" viewBox="0 -5 279.5 43.5" style="top:-5px">  <desc>innos</desc>  <defs/>  <g id="Polygon81111">    <path d="M 3 3.9 C 3 3.5 2.7 3.3 2.3 3.3 C 2.31 3.27 1 3.3 1 3.3 L 1 1.4 C 1 1.4 3.24 1.41 3.2 1.4 C 4.5 1.4 5.1 2 5.1 3.2 C 5.1 3.2 5.1 15.2 5.1 15.2 C 5.1 18.7 7.3 20.9 10.7 20.9 C 14.2 20.9 16.4 18.7 16.4 15.1 C 16.4 15.1 16.4 3.2 16.4 3.2 C 16.4 2 17 1.4 18.3 1.4 C 18.27 1.41 20.5 1.4 20.5 1.4 L 20.5 3.3 C 20.5 3.3 19.2 3.27 19.2 3.3 C 18.8 3.3 18.5 3.5 18.5 3.9 C 18.5 3.9 18.5 15.3 18.5 15.3 C 18.5 19.8 15.4 22.9 10.8 22.9 C 6.1 22.9 3 19.8 3 15.3 C 3 15.3 3 3.9 3 3.9 Z M 12 -3.6 L 14.3 -3.6 L 11.7 -0.1 L 9.9 -0.1 L 12 -3.6 Z M 30.7 7.1 C 32.4 7.1 36 7.8 36 10.3 C 36.03 10.26 36 11.6 36 11.6 L 34.1 11.6 C 34.1 11.6 34.11 10.74 34.1 10.7 C 34.1 9.5 31.9 8.9 30.7 8.9 C 27.4 8.9 24.8 11.3 24.8 15 C 24.8 18.7 27.5 21 30.7 21 C 33.81 21 35.6 18.9 35.6 18.9 L 36.5 20.4 C 36.5 20.4 34.5 22.86 30.6 22.9 C 26.1 22.9 22.7 19.7 22.7 15 C 22.7 10.4 26.2 7.1 30.7 7.1 Z M 26.7 1.4 L 28.6 1.4 L 30.2 3.8 L 30.3 3.8 L 31.9 1.4 L 33.8 1.4 L 31.3 5 L 29.2 5 L 26.7 1.4 Z M 40 1.4 L 42 1.4 L 42 4 L 40 4 L 40 1.4 Z M 40.1 9.8 C 40.1 9.4 39.9 9.2 39.4 9.2 C 39.45 9.18 38.2 9.2 38.2 9.2 L 38.2 7.4 C 38.2 7.4 40.32 7.41 40.3 7.4 C 41.6 7.4 42.1 8 42.1 9.2 C 42.1 9.2 42.1 20.1 42.1 20.1 C 42.1 20.5 42.4 20.7 42.8 20.7 C 42.81 20.73 44.1 20.7 44.1 20.7 L 44.1 22.5 C 44.1 22.5 41.94 22.5 41.9 22.5 C 40.6 22.5 40.1 22 40.1 20.7 C 40.1 20.7 40.1 9.8 40.1 9.8 Z M 47.5 9.8 C 47.5 9.4 47.2 9.2 46.8 9.2 C 46.83 9.18 45.6 9.2 45.6 9.2 L 45.6 7.4 C 45.6 7.4 47.67 7.41 47.7 7.4 C 48.9 7.4 49.5 8 49.5 9.1 C 49.5 9.1 49.5 9.8 49.5 9.8 C 49.5 10.38 49.4 10.9 49.4 10.9 C 49.4 10.9 49.5 10.86 49.5 10.9 C 50 9.5 52 7.1 55.5 7.1 C 59.2 7.1 60.6 9.2 60.6 12.9 C 60.6 12.9 60.6 20.1 60.6 20.1 C 60.6 20.5 60.8 20.7 61.2 20.7 C 61.23 20.73 62.5 20.7 62.5 20.7 L 62.5 22.5 C 62.5 22.5 60.36 22.5 60.4 22.5 C 59.1 22.5 58.5 22 58.5 20.7 C 58.5 20.7 58.5 13.4 58.5 13.4 C 58.5 11.1 58.2 9 55.3 9 C 52.7 9 50.5 10.7 49.8 13.2 C 49.6 13.9 49.5 14.6 49.5 15.3 C 49.53 15.27 49.5 22.5 49.5 22.5 L 47.5 22.5 C 47.5 22.5 47.49 9.84 47.5 9.8 Z M 65.7 9.8 C 65.7 9.4 65.5 9.2 65.1 9.2 C 65.07 9.18 63.8 9.2 63.8 9.2 L 63.8 7.4 C 63.8 7.4 65.91 7.41 65.9 7.4 C 67.2 7.4 67.7 8 67.7 9.1 C 67.7 9.1 67.7 9.8 67.7 9.8 C 67.74 10.38 67.7 10.9 67.7 10.9 C 67.7 10.9 67.74 10.86 67.7 10.9 C 68.3 9.5 70.2 7.1 73.7 7.1 C 77.5 7.1 78.8 9.2 78.8 12.9 C 78.8 12.9 78.8 20.1 78.8 20.1 C 78.8 20.5 79 20.7 79.5 20.7 C 79.47 20.73 80.7 20.7 80.7 20.7 L 80.7 22.5 C 80.7 22.5 78.6 22.5 78.6 22.5 C 77.3 22.5 76.8 22 76.8 20.7 C 76.8 20.7 76.8 13.4 76.8 13.4 C 76.8 11.1 76.4 9 73.5 9 C 70.9 9 68.7 10.7 68 13.2 C 67.8 13.9 67.8 14.6 67.8 15.3 C 67.77 15.27 67.8 22.5 67.8 22.5 L 65.7 22.5 C 65.7 22.5 65.73 9.84 65.7 9.8 Z M 90.5 7.1 C 94.9 7.1 98.5 10.4 98.5 14.9 C 98.5 19.4 94.9 22.9 90.5 22.9 C 86.1 22.9 82.6 19.4 82.6 14.9 C 82.6 10.4 86.1 7.1 90.5 7.1 Z M 90.5 21 C 93.7 21 96.4 18.4 96.4 14.9 C 96.4 11.5 93.7 8.9 90.5 8.9 C 87.3 8.9 84.7 11.5 84.7 14.9 C 84.7 18.4 87.3 21 90.5 21 Z M 101.7 18.8 C 101.7 18.8 103.41 21.09 106.4 21.1 C 108.1 21.1 109.6 20.3 109.6 18.7 C 109.6 15.4 101.1 16 101.1 11.1 C 101.1 8.4 103.4 7.1 106.5 7.1 C 108 7.1 111.1 7.7 111.1 9.8 C 111.06 9.78 111.1 11.1 111.1 11.1 L 109.1 11.1 C 109.1 11.1 109.14 10.35 109.1 10.4 C 109.1 9.2 107.5 8.8 106.5 8.8 C 104.4 8.8 103.2 9.5 103.2 11 C 103.2 14.4 111.6 13.6 111.6 18.6 C 111.6 21.1 109.3 22.9 106.3 22.9 C 102.42 22.86 100.6 20.2 100.6 20.2 L 101.7 18.8 Z M 115.7 9.1 L 113.7 9.1 L 113.7 7.4 L 115.7 7.4 L 115.7 3.2 L 117.7 3.2 L 117.7 7.4 L 121.5 7.4 L 121.5 9.1 L 117.7 9.1 C 117.7 9.1 117.75 16.8 117.7 16.8 C 117.7 20.3 120 20.8 121.1 20.8 C 121.56 20.79 121.8 20.7 121.8 20.7 L 121.8 22.6 C 121.8 22.6 121.47 22.62 121 22.6 C 119.2 22.6 115.7 22.1 115.7 17 C 115.71 17.01 115.7 9.1 115.7 9.1 Z M 121.6 1.4 C 121.8 1.9 121.9 2.4 121.9 2.9 C 121.9 3.8 121.6 4.5 121.1 5.5 C 121.1 5.5 119.5 5.5 119.5 5.5 C 119.9 4.6 120.1 3.9 120.1 3.1 C 120.1 2.6 120 2 119.8 1.4 C 119.8 1.4 121.6 1.4 121.6 1.4 Z " stroke="none" fill="#ee3078"/>  </g></svg>