<?xml version="1.0" standalone="no"?><!DOCTYPE svg PUBLIC "-//W3C//DTD SVG 1.1//EN" "http://www.w3.org/Graphics/SVG/1.1/DTD/svg11.dtd"><svg xmlns="http://www.w3.org/2000/svg" version="1.1" width="369px" height="33px" viewBox="0 -4 369 33" style="top:-4px">  <desc>Zr anie krvi – koagula n faktory</desc>  <defs/>  <g id="Polygon76339">    <path d="M 18.5 13.3 C 18.5 13.3 24.87 4.3 24.9 4.3 C 25.45 3.5 26 3 26 3 L 26 3 C 26 3 25.53 3.02 24.9 3 C 24.9 3 21.4 3 21.4 3 C 21.2 3 21 3.2 21 3.5 C 20.99 3.46 21 4.3 21 4.3 L 18.6 4.3 C 18.6 4.3 18.61 2.16 18.6 2.2 C 18.6 1.2 19 0.8 20 0.8 C 19.97 0.8 29.2 0.8 29.2 0.8 L 29.2 2.4 C 29.2 2.4 22.81 11.5 22.8 11.5 C 22.23 12.32 21.7 12.8 21.7 12.8 L 21.7 12.8 C 21.7 12.8 22.15 12.78 22.8 12.8 C 22.8 12.8 26.7 12.8 26.7 12.8 C 27 12.8 27.1 12.6 27.1 12.3 C 27.13 12.34 27.1 11.5 27.1 11.5 L 29.5 11.5 C 29.5 11.5 29.49 13.64 29.5 13.6 C 29.5 14.6 29.1 15 28.1 15 C 28.13 15 18.5 15 18.5 15 L 18.5 13.3 Z M 31.6 7.4 C 31.6 7.1 31.4 7 31.1 7 C 31.13 6.96 30.3 7 30.3 7 L 30.3 4.8 C 30.3 4.8 32.65 4.8 32.7 4.8 C 33.6 4.8 34 5.2 34 6 C 34 6 34 6.6 34 6.6 C 34.01 7.02 34 7.3 34 7.3 C 34 7.3 34.01 7.28 34 7.3 C 34.5 5.8 35.7 4.7 37.3 4.7 C 37.47 4.66 37.7 4.7 37.7 4.7 L 37.7 7.2 C 37.7 7.2 37.45 7.16 37.1 7.2 C 36 7.2 34.8 7.8 34.3 9.3 C 34.2 9.8 34.1 10.4 34.1 11 C 34.09 10.96 34.1 15 34.1 15 L 31.6 15 C 31.6 15 31.57 7.4 31.6 7.4 Z M 44.3 8.6 C 44.27 8.6 44.6 8.6 44.6 8.6 C 44.6 8.6 44.59 8.52 44.6 8.5 C 44.6 7.1 44 6.5 42.7 6.5 C 42.3 6.5 41.4 6.6 41.4 7.2 C 41.35 7.2 41.4 7.7 41.4 7.7 L 39 7.7 C 39 7.7 38.99 6.66 39 6.7 C 39 4.8 41.7 4.6 42.7 4.6 C 46.1 4.6 47.1 6.3 47.1 8.6 C 47.1 8.6 47.1 12.4 47.1 12.4 C 47.1 12.7 47.3 12.9 47.6 12.9 C 47.57 12.86 48.4 12.9 48.4 12.9 L 48.4 15 C 48.4 15 46.09 15 46.1 15 C 45.2 15 44.8 14.5 44.8 13.9 C 44.79 13.62 44.8 13.4 44.8 13.4 L 44.8 13.4 C 44.8 13.4 43.99 15.24 41.7 15.2 C 39.9 15.2 38.2 14.1 38.2 12.1 C 38.2 8.9 42.6 8.6 44.3 8.6 Z M 42.3 13.3 C 43.7 13.3 44.6 11.8 44.6 10.6 C 44.63 10.58 44.6 10.3 44.6 10.3 C 44.6 10.3 44.19 10.34 44.2 10.3 C 42.9 10.3 40.8 10.5 40.8 11.9 C 40.8 12.6 41.3 13.3 42.3 13.3 Z M 43.5 0.8 L 46 0.8 L 43.9 3.5 L 42 3.5 L 43.5 0.8 Z M 49.3 13.6 C 49.3 13.6 53.99 7.9 54 7.9 C 54.45 7.32 54.9 7 54.9 7 L 54.9 6.9 C 54.9 6.9 54.55 6.96 53.9 7 C 53.9 7 52.1 7 52.1 7 C 51.8 7 51.6 7.1 51.6 7.4 C 51.63 7.4 51.6 8 51.6 8 L 49.3 8 C 49.3 8 49.33 6.16 49.3 6.2 C 49.3 5.2 49.7 4.8 50.7 4.8 C 50.69 4.8 58.2 4.8 58.2 4.8 L 58.2 6.2 C 58.2 6.2 53.47 11.92 53.5 11.9 C 53.01 12.48 52.6 12.9 52.6 12.9 L 52.6 12.9 C 52.6 12.9 52.91 12.84 53.6 12.8 C 53.6 12.8 55.8 12.8 55.8 12.8 C 56.1 12.8 56.3 12.7 56.3 12.4 C 56.25 12.4 56.3 11.8 56.3 11.8 L 58.6 11.8 C 58.6 11.8 58.55 13.64 58.6 13.6 C 58.6 14.6 58.2 15 57.2 15 C 57.21 15 49.3 15 49.3 15 L 49.3 13.6 Z M 51.1 0.8 L 53 0.8 L 54 2.4 L 54 2.4 L 55 0.8 L 56.9 0.8 L 55.1 3.5 L 52.9 3.5 L 51.1 0.8 Z M 65.7 8.6 C 65.69 8.6 66 8.6 66 8.6 C 66 8.6 66.01 8.52 66 8.5 C 66 7.1 65.4 6.5 64.1 6.5 C 63.7 6.5 62.8 6.6 62.8 7.2 C 62.77 7.2 62.8 7.7 62.8 7.7 L 60.4 7.7 C 60.4 7.7 60.41 6.66 60.4 6.7 C 60.4 4.8 63.1 4.6 64.2 4.6 C 67.6 4.6 68.6 6.3 68.6 8.6 C 68.6 8.6 68.6 12.4 68.6 12.4 C 68.6 12.7 68.7 12.9 69 12.9 C 68.99 12.86 69.8 12.9 69.8 12.9 L 69.8 15 C 69.8 15 67.51 15 67.5 15 C 66.6 15 66.2 14.5 66.2 13.9 C 66.21 13.62 66.2 13.4 66.2 13.4 L 66.2 13.4 C 66.2 13.4 65.41 15.24 63.1 15.2 C 61.3 15.2 59.6 14.1 59.6 12.1 C 59.6 8.9 64 8.6 65.7 8.6 Z M 63.7 13.3 C 65.1 13.3 66.1 11.8 66.1 10.6 C 66.05 10.58 66.1 10.3 66.1 10.3 C 66.1 10.3 65.61 10.34 65.6 10.3 C 64.3 10.3 62.2 10.5 62.2 11.9 C 62.2 12.6 62.7 13.3 63.7 13.3 Z M 71.8 7.4 C 71.8 7.1 71.7 7 71.4 7 C 71.39 6.96 70.6 7 70.6 7 L 70.6 4.8 C 70.6 4.8 72.93 4.8 72.9 4.8 C 73.8 4.8 74.3 5.2 74.3 5.9 C 74.3 5.9 74.3 6.2 74.3 6.2 C 74.27 6.46 74.2 6.7 74.2 6.7 C 74.2 6.7 74.27 6.68 74.3 6.7 C 74.7 5.8 75.8 4.6 77.9 4.6 C 80.1 4.6 81.4 5.7 81.4 8.4 C 81.4 8.4 81.4 12.4 81.4 12.4 C 81.4 12.7 81.6 12.9 81.9 12.9 C 81.87 12.86 82.7 12.9 82.7 12.9 L 82.7 15 C 82.7 15 80.25 15 80.3 15 C 79.3 15 78.9 14.6 78.9 13.6 C 78.9 13.6 78.9 9 78.9 9 C 78.9 7.7 78.6 6.9 77.3 6.9 C 75.9 6.9 74.9 7.7 74.6 9 C 74.4 9.4 74.4 9.8 74.4 10.3 C 74.35 10.32 74.4 15 74.4 15 L 71.8 15 C 71.8 15 71.83 7.4 71.8 7.4 Z M 84.9 0.8 L 87.1 0.8 L 87.1 3.1 L 84.9 3.1 L 84.9 0.8 Z M 84.8 7.4 C 84.8 7.1 84.6 7 84.3 7 C 84.33 6.96 83.5 7 83.5 7 L 83.5 4.8 C 83.5 4.8 85.95 4.8 86 4.8 C 86.9 4.8 87.3 5.2 87.3 6.2 C 87.3 6.2 87.3 12.4 87.3 12.4 C 87.3 12.7 87.5 12.9 87.7 12.9 C 87.73 12.86 88.5 12.9 88.5 12.9 L 88.5 15 C 88.5 15 86.11 15 86.1 15 C 85.2 15 84.8 14.6 84.8 13.6 C 84.8 13.6 84.8 7.4 84.8 7.4 Z M 94.8 4.6 C 97.8 4.6 99.4 6.7 99.4 9.4 C 99.35 9.7 99.3 10.3 99.3 10.3 C 99.3 10.3 92.25 10.34 92.3 10.3 C 92.5 12.1 93.8 13.1 95.3 13.1 C 96.95 13.08 98.2 11.9 98.2 11.9 L 99.2 13.7 C 99.2 13.7 97.67 15.24 95.1 15.2 C 91.8 15.2 89.7 12.8 89.7 9.9 C 89.7 6.8 91.8 4.6 94.8 4.6 Z M 96.8 8.6 C 96.7 7.4 95.9 6.5 94.8 6.5 C 93.5 6.5 92.6 7.3 92.3 8.6 C 92.3 8.6 96.8 8.6 96.8 8.6 Z M 107 3.4 C 107 3.1 106.9 3 106.6 3 C 106.59 2.96 105.8 3 105.8 3 L 105.8 0.8 C 105.8 0.8 108.21 0.8 108.2 0.8 C 109.2 0.8 109.6 1 109.6 2 C 109.57 1.96 109.6 8.4 109.6 8.4 C 109.6 8.4 110.33 8.4 110.3 8.4 C 110.7 8.4 111.1 8.3 111.3 8 C 111.29 8.02 113.4 4.8 113.4 4.8 L 116.2 4.8 C 116.2 4.8 113.61 8.64 113.6 8.6 C 113.17 9.28 112.9 9.4 112.9 9.4 L 112.9 9.5 C 112.9 9.5 113.21 9.62 113.6 10.3 C 113.6 10.3 114.7 12.5 114.7 12.5 C 114.9 12.8 115.1 12.9 115.6 12.9 C 115.57 12.86 116.3 12.9 116.3 12.9 L 116.3 15 C 116.3 15 114.37 15 114.4 15 C 113.5 15 113.2 14.9 112.8 14.1 C 112.8 14.1 111.1 10.9 111.1 10.9 C 110.9 10.6 110.5 10.5 110.1 10.5 C 110.13 10.54 109.6 10.5 109.6 10.5 L 109.6 15 L 107 15 C 107 15 107.03 3.4 107 3.4 Z M 118.2 7.4 C 118.2 7.1 118 7 117.7 7 C 117.73 6.96 116.9 7 116.9 7 L 116.9 4.8 C 116.9 4.8 119.25 4.8 119.3 4.8 C 120.2 4.8 120.6 5.2 120.6 6 C 120.6 6 120.6 6.6 120.6 6.6 C 120.61 7.02 120.6 7.3 120.6 7.3 C 120.6 7.3 120.61 7.28 120.6 7.3 C 121.1 5.8 122.3 4.7 123.9 4.7 C 124.07 4.66 124.3 4.7 124.3 4.7 L 124.3 7.2 C 124.3 7.2 124.05 7.16 123.7 7.2 C 122.6 7.2 121.4 7.8 120.9 9.3 C 120.8 9.8 120.7 10.4 120.7 11 C 120.69 10.96 120.7 15 120.7 15 L 118.2 15 C 118.2 15 118.17 7.4 118.2 7.4 Z M 126 7.3 C 125.9 7.1 125.8 7 125.5 7 C 125.47 6.96 125.3 7 125.3 7 L 125.3 4.8 C 125.3 4.8 126.71 4.8 126.7 4.8 C 127.6 4.8 128 5.1 128.2 5.8 C 128.2 5.8 130.1 11.1 130.1 11.1 C 130.35 11.72 130.5 12.6 130.5 12.6 L 130.6 12.6 C 130.6 12.6 130.71 11.72 130.9 11.1 C 130.9 11.1 132.8 5.8 132.8 5.8 C 133.1 5.1 133.5 4.8 134.3 4.8 C 134.33 4.8 135.7 4.8 135.7 4.8 L 135.7 7 C 135.7 7 135.45 6.96 135.5 7 C 135.2 7 135 7.1 134.9 7.3 C 134.89 7.32 132 15 132 15 L 129 15 C 129 15 126.03 7.32 126 7.3 Z M 137.8 0.8 L 140 0.8 L 140 3.1 L 137.8 3.1 L 137.8 0.8 Z M 137.7 7.4 C 137.7 7.1 137.5 7 137.2 7 C 137.21 6.96 136.4 7 136.4 7 L 136.4 4.8 C 136.4 4.8 138.83 4.8 138.8 4.8 C 139.8 4.8 140.2 5.2 140.2 6.2 C 140.2 6.2 140.2 12.4 140.2 12.4 C 140.2 12.7 140.3 12.9 140.6 12.9 C 140.61 12.86 141.4 12.9 141.4 12.9 L 141.4 15 C 141.4 15 138.99 15 139 15 C 138.1 15 137.7 14.6 137.7 13.6 C 137.7 13.6 137.7 7.4 137.7 7.4 Z M 148.3 8.3 L 159.4 8.3 L 159.4 10.3 L 148.3 10.3 L 148.3 8.3 Z M 167.3 3.4 C 167.3 3.1 167.2 3 166.9 3 C 166.89 2.96 166.1 3 166.1 3 L 166.1 0.8 C 166.1 0.8 168.51 0.8 168.5 0.8 C 169.5 0.8 169.9 1 169.9 2 C 169.87 1.96 169.9 8.4 169.9 8.4 C 169.9 8.4 170.63 8.4 170.6 8.4 C 171 8.4 171.4 8.3 171.6 8 C 171.59 8.02 173.7 4.8 173.7 4.8 L 176.5 4.8 C 176.5 4.8 173.91 8.64 173.9 8.6 C 173.47 9.28 173.2 9.4 173.2 9.4 L 173.2 9.5 C 173.2 9.5 173.51 9.62 173.9 10.3 C 173.9 10.3 175 12.5 175 12.5 C 175.2 12.8 175.4 12.9 175.9 12.9 C 175.87 12.86 176.6 12.9 176.6 12.9 L 176.6 15 C 176.6 15 174.67 15 174.7 15 C 173.8 15 173.5 14.9 173.1 14.1 C 173.1 14.1 171.4 10.9 171.4 10.9 C 171.2 10.6 170.8 10.5 170.4 10.5 C 170.43 10.54 169.9 10.5 169.9 10.5 L 169.9 15 L 167.3 15 C 167.3 15 167.33 3.4 167.3 3.4 Z M 182.9 4.6 C 186 4.6 188.5 6.8 188.5 9.9 C 188.5 13 186 15.2 182.9 15.2 C 179.8 15.2 177.3 13 177.3 9.9 C 177.3 6.8 179.8 4.6 182.9 4.6 Z M 182.9 13.1 C 184.5 13.1 185.9 11.8 185.9 9.9 C 185.9 8 184.5 6.7 182.9 6.7 C 181.2 6.7 179.9 8 179.9 9.9 C 179.9 11.8 181.2 13.1 182.9 13.1 Z M 195.7 8.6 C 195.73 8.6 196.1 8.6 196.1 8.6 C 196.1 8.6 196.05 8.52 196.1 8.5 C 196.1 7.1 195.5 6.5 194.2 6.5 C 193.7 6.5 192.8 6.6 192.8 7.2 C 192.81 7.2 192.8 7.7 192.8 7.7 L 190.5 7.7 C 190.5 7.7 190.45 6.66 190.5 6.7 C 190.5 4.8 193.1 4.6 194.2 4.6 C 197.6 4.6 198.6 6.3 198.6 8.6 C 198.6 8.6 198.6 12.4 198.6 12.4 C 198.6 12.7 198.8 12.9 199 12.9 C 199.03 12.86 199.8 12.9 199.8 12.9 L 199.8 15 C 199.8 15 197.55 15 197.6 15 C 196.6 15 196.3 14.5 196.3 13.9 C 196.25 13.62 196.3 13.4 196.3 13.4 L 196.2 13.4 C 196.2 13.4 195.45 15.24 193.2 15.2 C 191.3 15.2 189.7 14.1 189.7 12.1 C 189.7 8.9 194.1 8.6 195.7 8.6 Z M 193.8 13.3 C 195.1 13.3 196.1 11.8 196.1 10.6 C 196.09 10.58 196.1 10.3 196.1 10.3 C 196.1 10.3 195.65 10.34 195.7 10.3 C 194.3 10.3 192.2 10.5 192.2 11.9 C 192.2 12.6 192.7 13.3 193.8 13.3 Z M 205.4 4.6 C 207.73 4.56 208.5 6 208.5 6 L 208.6 6 C 208.6 6 208.55 5.88 208.6 5.7 C 208.6 5.3 208.9 4.8 209.7 4.8 C 209.67 4.8 212 4.8 212 4.8 L 212 7 C 212 7 211.25 6.96 211.3 7 C 211 7 210.8 7.1 210.8 7.4 C 210.8 7.4 210.8 14.4 210.8 14.4 C 210.8 17.9 208.1 19.2 205.4 19.2 C 204.2 19.2 202.8 18.8 201.8 18.3 C 201.81 18.32 202.6 16.3 202.6 16.3 C 202.6 16.3 203.85 17 205.4 17 C 207 17 208.3 16.3 208.3 14.5 C 208.3 14.5 208.3 14 208.3 14 C 208.29 13.78 208.3 13.5 208.3 13.5 C 208.3 13.5 208.27 13.48 208.3 13.5 C 207.7 14.3 206.8 14.8 205.4 14.8 C 202.5 14.8 200.9 12.4 200.9 9.6 C 200.9 6.8 202.4 4.6 205.4 4.6 Z M 208.4 9.7 C 208.4 7.3 207.2 6.7 205.8 6.7 C 204.3 6.7 203.4 7.8 203.4 9.6 C 203.4 11.3 204.3 12.7 206 12.7 C 207.2 12.7 208.4 12 208.4 9.7 Z M 214.1 7.4 C 214.1 7.1 213.9 7 213.6 7 C 213.63 6.96 212.8 7 212.8 7 L 212.8 4.8 C 212.8 4.8 215.25 4.8 215.3 4.8 C 216.2 4.8 216.6 5.2 216.6 6.1 C 216.6 6.1 216.6 10.8 216.6 10.8 C 216.6 12.1 216.9 12.9 218.2 12.9 C 220 12.9 221 11.3 221 9.5 C 221.03 9.48 221 4.8 221 4.8 L 223.6 4.8 C 223.6 4.8 223.57 12.42 223.6 12.4 C 223.6 12.7 223.7 12.9 224 12.9 C 224.01 12.86 224.8 12.9 224.8 12.9 L 224.8 15 C 224.8 15 222.47 15 222.5 15 C 221.6 15 221.1 14.6 221.1 13.9 C 221.1 13.9 221.1 13.6 221.1 13.6 C 221.13 13.34 221.2 13.1 221.2 13.1 C 221.2 13.1 221.11 13.12 221.1 13.1 C 220.6 14.2 219.4 15.2 217.6 15.2 C 215.4 15.2 214.1 14.1 214.1 11.4 C 214.1 11.4 214.1 7.4 214.1 7.4 Z M 226.8 3.4 C 226.8 3.1 226.7 3 226.4 3 C 226.37 2.96 225.6 3 225.6 3 L 225.6 0.8 C 225.6 0.8 227.99 0.8 228 0.8 C 228.9 0.8 229.4 1.2 229.4 2.2 C 229.4 2.2 229.4 12.4 229.4 12.4 C 229.4 12.7 229.5 12.9 229.8 12.9 C 229.79 12.86 230.6 12.9 230.6 12.9 L 230.6 15 C 230.6 15 228.17 15 228.2 15 C 227.2 15 226.8 14.6 226.8 13.6 C 226.8 13.6 226.8 3.4 226.8 3.4 Z M 237.8 8.6 C 237.75 8.6 238.1 8.6 238.1 8.6 C 238.1 8.6 238.07 8.52 238.1 8.5 C 238.1 7.1 237.5 6.5 236.2 6.5 C 235.7 6.5 234.8 6.6 234.8 7.2 C 234.83 7.2 234.8 7.7 234.8 7.7 L 232.5 7.7 C 232.5 7.7 232.47 6.66 232.5 6.7 C 232.5 4.8 235.2 4.6 236.2 4.6 C 239.6 4.6 240.6 6.3 240.6 8.6 C 240.6 8.6 240.6 12.4 240.6 12.4 C 240.6 12.7 240.8 12.9 241.1 12.9 C 241.05 12.86 241.9 12.9 241.9 12.9 L 241.9 15 C 241.9 15 239.57 15 239.6 15 C 238.6 15 238.3 14.5 238.3 13.9 C 238.27 13.62 238.3 13.4 238.3 13.4 L 238.3 13.4 C 238.3 13.4 237.47 15.24 235.2 15.2 C 233.4 15.2 231.7 14.1 231.7 12.1 C 231.7 8.9 236.1 8.6 237.8 8.6 Z M 235.8 13.3 C 237.2 13.3 238.1 11.8 238.1 10.6 C 238.11 10.58 238.1 10.3 238.1 10.3 C 238.1 10.3 237.67 10.34 237.7 10.3 C 236.4 10.3 234.3 10.5 234.3 11.9 C 234.3 12.6 234.8 13.3 235.8 13.3 Z M 248.5 4.6 C 249.8 4.6 252.2 5.1 252.2 6.9 C 252.15 6.86 252.2 8.1 252.2 8.1 L 249.9 8.1 C 249.9 8.1 249.91 7.5 249.9 7.5 C 249.9 6.9 249.1 6.7 248.5 6.7 C 246.7 6.7 245.4 8 245.4 9.9 C 245.4 12 247 13 248.6 13 C 250.35 13.02 251.6 11.6 251.6 11.6 L 252.7 13.4 C 252.7 13.4 251.17 15.24 248.4 15.2 C 245 15.2 242.9 12.9 242.9 9.9 C 242.9 7 245 4.6 248.5 4.6 Z M 245.2 0.8 L 247.1 0.8 L 248.1 2.4 L 248.1 2.4 L 249.1 0.8 L 251 0.8 L 249.2 3.5 L 247 3.5 L 245.2 0.8 Z M 254.7 7.4 C 254.7 7.1 254.5 7 254.2 7 C 254.21 6.96 253.4 7 253.4 7 L 253.4 4.8 C 253.4 4.8 255.75 4.8 255.8 4.8 C 256.7 4.8 257.1 5.2 257.1 5.9 C 257.1 5.9 257.1 6.2 257.1 6.2 C 257.09 6.46 257.1 6.7 257.1 6.7 C 257.1 6.7 257.09 6.68 257.1 6.7 C 257.5 5.8 258.6 4.6 260.7 4.6 C 263 4.6 264.3 5.7 264.3 8.4 C 264.3 8.4 264.3 12.4 264.3 12.4 C 264.3 12.7 264.4 12.9 264.7 12.9 C 264.69 12.86 265.5 12.9 265.5 12.9 L 265.5 15 C 265.5 15 263.07 15 263.1 15 C 262.1 15 261.7 14.6 261.7 13.6 C 261.7 13.6 261.7 9 261.7 9 C 261.7 7.7 261.4 6.9 260.1 6.9 C 258.8 6.9 257.7 7.7 257.4 9 C 257.2 9.4 257.2 9.8 257.2 10.3 C 257.17 10.32 257.2 15 257.2 15 L 254.7 15 C 254.7 15 254.65 7.4 254.7 7.4 Z M 271.7 4.6 C 274.6 4.6 276.2 6.7 276.2 9.4 C 276.19 9.7 276.1 10.3 276.1 10.3 C 276.1 10.3 269.09 10.34 269.1 10.3 C 269.3 12.1 270.6 13.1 272.2 13.1 C 273.79 13.08 275 11.9 275 11.9 L 276.1 13.7 C 276.1 13.7 274.51 15.24 272 15.2 C 268.6 15.2 266.5 12.8 266.5 9.9 C 266.5 6.8 268.6 4.6 271.7 4.6 Z M 273.6 8.6 C 273.6 7.4 272.7 6.5 271.7 6.5 C 270.4 6.5 269.5 7.3 269.2 8.6 C 269.2 8.6 273.6 8.6 273.6 8.6 Z M 272.2 0.8 L 274.6 0.8 L 272.5 3.5 L 270.6 3.5 L 272.2 0.8 Z M 284 6.8 L 282.7 6.8 L 282.7 4.8 L 284 4.8 C 284 4.8 283.95 4.5 284 4.5 C 284 1.2 286.7 0.7 288.1 0.7 C 288.63 0.72 289 0.8 289 0.8 L 289 2.9 C 289 2.9 288.75 2.9 288.5 2.9 C 287.7 2.9 286.5 3.1 286.5 4.6 C 286.49 4.56 286.5 4.8 286.5 4.8 L 288.7 4.8 L 288.7 6.8 L 286.5 6.8 L 286.5 15 L 284 15 L 284 6.8 Z M 295.6 8.6 C 295.55 8.6 295.9 8.6 295.9 8.6 C 295.9 8.6 295.87 8.52 295.9 8.5 C 295.9 7.1 295.3 6.5 294 6.5 C 293.5 6.5 292.6 6.6 292.6 7.2 C 292.63 7.2 292.6 7.7 292.6 7.7 L 290.3 7.7 C 290.3 7.7 290.27 6.66 290.3 6.7 C 290.3 4.8 293 4.6 294 4.6 C 297.4 4.6 298.4 6.3 298.4 8.6 C 298.4 8.6 298.4 12.4 298.4 12.4 C 298.4 12.7 298.6 12.9 298.9 12.9 C 298.85 12.86 299.7 12.9 299.7 12.9 L 299.7 15 C 299.7 15 297.37 15 297.4 15 C 296.4 15 296.1 14.5 296.1 13.9 C 296.07 13.62 296.1 13.4 296.1 13.4 L 296.1 13.4 C 296.1 13.4 295.27 15.24 293 15.2 C 291.2 15.2 289.5 14.1 289.5 12.1 C 289.5 8.9 293.9 8.6 295.6 8.6 Z M 293.6 13.3 C 295 13.3 295.9 11.8 295.9 10.6 C 295.91 10.58 295.9 10.3 295.9 10.3 C 295.9 10.3 295.47 10.34 295.5 10.3 C 294.2 10.3 292.1 10.5 292.1 11.9 C 292.1 12.6 292.6 13.3 293.6 13.3 Z M 301.6 3.4 C 301.6 3.1 301.5 3 301.2 3 C 301.17 2.96 300.4 3 300.4 3 L 300.4 0.8 C 300.4 0.8 302.79 0.8 302.8 0.8 C 303.7 0.8 304.2 1 304.2 2 C 304.15 1.96 304.2 8.4 304.2 8.4 C 304.2 8.4 304.91 8.4 304.9 8.4 C 305.2 8.4 305.7 8.3 305.9 8 C 305.87 8.02 308 4.8 308 4.8 L 310.8 4.8 C 310.8 4.8 308.19 8.64 308.2 8.6 C 307.75 9.28 307.4 9.4 307.4 9.4 L 307.4 9.5 C 307.4 9.5 307.79 9.62 308.2 10.3 C 308.2 10.3 309.3 12.5 309.3 12.5 C 309.5 12.8 309.7 12.9 310.2 12.9 C 310.15 12.86 310.8 12.9 310.8 12.9 L 310.8 15 C 310.8 15 308.95 15 309 15 C 308.1 15 307.8 14.9 307.4 14.1 C 307.4 14.1 305.7 10.9 305.7 10.9 C 305.5 10.6 305 10.5 304.7 10.5 C 304.71 10.54 304.2 10.5 304.2 10.5 L 304.2 15 L 301.6 15 C 301.6 15 301.61 3.4 301.6 3.4 Z M 312.8 6.8 L 311.5 6.8 L 311.5 4.8 L 312.9 4.8 L 312.9 2 L 315.3 2 L 315.3 4.8 L 317.7 4.8 L 317.7 6.8 L 315.3 6.8 C 315.3 6.8 315.33 10.94 315.3 10.9 C 315.3 12.6 316.7 12.9 317.4 12.9 C 317.63 12.86 317.8 12.8 317.8 12.8 L 317.8 15 C 317.8 15 317.49 15.1 317 15.1 C 315.6 15.1 312.8 14.7 312.8 11.3 C 312.79 11.26 312.8 6.8 312.8 6.8 Z M 324.6 4.6 C 327.7 4.6 330.2 6.8 330.2 9.9 C 330.2 13 327.7 15.2 324.6 15.2 C 321.5 15.2 319 13 319 9.9 C 319 6.8 321.5 4.6 324.6 4.6 Z M 324.6 13.1 C 326.2 13.1 327.6 11.8 327.6 9.9 C 327.6 8 326.2 6.7 324.6 6.7 C 322.9 6.7 321.5 8 321.5 9.9 C 321.5 11.8 322.9 13.1 324.6 13.1 Z M 332.5 7.4 C 332.5 7.1 332.3 7 332 7 C 332.01 6.96 331.2 7 331.2 7 L 331.2 4.8 C 331.2 4.8 333.53 4.8 333.5 4.8 C 334.4 4.8 334.9 5.2 334.9 6 C 334.9 6 334.9 6.6 334.9 6.6 C 334.89 7.02 334.9 7.3 334.9 7.3 C 334.9 7.3 334.89 7.28 334.9 7.3 C 335.4 5.8 336.6 4.7 338.1 4.7 C 338.35 4.66 338.6 4.7 338.6 4.7 L 338.6 7.2 C 338.6 7.2 338.33 7.16 338 7.2 C 336.9 7.2 335.7 7.8 335.2 9.3 C 335.1 9.8 335 10.4 335 11 C 334.97 10.96 335 15 335 15 L 332.5 15 C 332.5 15 332.45 7.4 332.5 7.4 Z M 341.7 17.1 C 342.4 17.1 343.1 16.6 343.4 15.8 C 343.43 15.76 343.8 15 343.8 15 C 343.8 15 340.37 7.32 340.4 7.3 C 340.2 7 340.1 7 339.8 7 C 339.83 6.96 339.5 7 339.5 7 L 339.5 4.8 C 339.5 4.8 341.21 4.8 341.2 4.8 C 341.9 4.8 342.3 5.1 342.5 5.8 C 342.5 5.8 344.5 10.9 344.5 10.9 C 344.75 11.38 344.9 12.2 344.9 12.2 L 344.9 12.2 C 344.9 12.2 345.11 11.38 345.3 10.9 C 345.3 10.9 347 5.8 347 5.8 C 347.3 5.1 347.7 4.8 348.4 4.8 C 348.39 4.8 350.1 4.8 350.1 4.8 L 350.1 7 C 350.1 7 349.81 6.96 349.8 7 C 349.5 7 349.3 7 349.2 7.3 C 349.2 7.3 345.6 16.5 345.6 16.5 C 344.8 18.4 343.4 19.2 341.9 19.2 C 340.29 19.2 339.3 18.2 339.3 18.2 L 340.3 16.4 C 340.3 16.4 340.91 17.06 341.7 17.1 Z " stroke="none" fill="#fff"/>  </g></svg>