<?xml version="1.0" standalone="no"?><!DOCTYPE svg PUBLIC "-//W3C//DTD SVG 1.1//EN" "http://www.w3.org/Graphics/SVG/1.1/DTD/svg11.dtd"><svg xmlns="http://www.w3.org/2000/svg" version="1.1" width="70px" height="34.5px" viewBox="0 -2 70 34.5" style="top:-2px">  <desc>E4 30 µg/ LNg 150 µg</desc>  <defs/>  <g id="Polygon75942">    <path d="M 9.4 13.5 C 9.4 13.4 9.3 13.3 9.1 13.3 C 9.14 13.3 8.7 13.3 8.7 13.3 L 8.7 12.4 C 8.7 12.4 9.72 12.44 9.7 12.4 C 10.2 12.4 10.4 12.6 10.4 13.1 C 10.4 13.1 10.4 18.4 10.4 18.4 C 10.4 18.6 10.4 18.6 10.6 18.6 C 10.6 18.6 12.5 18.6 12.5 18.6 C 12.7 18.6 12.7 18.6 12.7 18.4 C 12.75 18.42 12.7 18 12.7 18 L 13.7 18 C 13.7 18 13.66 18.86 13.7 18.9 C 13.7 19.3 13.5 19.5 13 19.5 C 13 19.5 10 19.5 10 19.5 C 9.5 19.5 9.4 19.3 9.4 18.9 C 9.4 18.9 9.4 13.5 9.4 13.5 Z M 14.1 18.6 C 14.1 18.6 14.57 18.64 14.6 18.6 C 14.7 18.6 14.8 18.6 14.8 18.4 C 14.79 18.42 14.8 12.4 14.8 12.4 L 15.7 12.4 C 15.7 12.4 18.84 16.91 18.8 16.9 C 19.1 17.29 19.4 17.9 19.4 17.9 L 19.4 17.9 C 19.4 17.9 19.38 17.31 19.4 16.9 C 19.4 16.9 19.4 13.1 19.4 13.1 C 19.4 12.6 19.6 12.4 20 12.4 C 20.03 12.44 21 12.4 21 12.4 L 21 13.3 C 21 13.3 20.6 13.3 20.6 13.3 C 20.5 13.3 20.4 13.4 20.4 13.5 C 20.38 13.52 20.4 19.5 20.4 19.5 L 19.5 19.5 C 19.5 19.5 16.33 15.03 16.3 15 C 16.07 14.65 15.7 14.1 15.7 14.1 L 15.7 14.1 C 15.7 14.1 15.79 14.64 15.8 15 C 15.8 15 15.8 18.9 15.8 18.9 C 15.8 19.3 15.6 19.5 15.1 19.5 C 15.15 19.5 14.1 19.5 14.1 19.5 L 14.1 18.6 Z M 23.9 14.3 C 25.2 14.3 25.6 15.1 25.6 15.1 C 25.57 15.11 25.6 15.1 25.6 15.1 C 25.6 15.1 25.59 15.03 25.6 14.9 C 25.6 14.7 25.7 14.4 26.1 14.4 C 26.15 14.44 27.1 14.4 27.1 14.4 L 27.1 15.3 C 27.1 15.3 26.69 15.27 26.7 15.3 C 26.6 15.3 26.5 15.3 26.5 15.5 C 26.5 15.5 26.5 19.3 26.5 19.3 C 26.5 21 25.2 21.6 23.9 21.6 C 23.3 21.6 22.7 21.4 22.2 21.2 C 22.19 21.18 22.5 20.4 22.5 20.4 C 22.5 20.4 23.14 20.74 23.9 20.7 C 24.8 20.7 25.5 20.4 25.5 19.3 C 25.5 19.3 25.5 19 25.5 19 C 25.5 18.83 25.5 18.7 25.5 18.7 C 25.5 18.7 25.5 18.67 25.5 18.7 C 25.2 19.2 24.7 19.4 24 19.4 C 22.6 19.4 21.7 18.3 21.7 16.8 C 21.7 15.4 22.5 14.3 23.9 14.3 Z M 25.5 16.9 C 25.5 15.5 24.9 15.2 24.1 15.2 C 23.2 15.2 22.7 15.8 22.7 16.8 C 22.7 17.9 23.3 18.6 24.2 18.6 C 24.9 18.6 25.5 18.2 25.5 16.9 Z M 30.6 18.6 L 32.2 18.6 C 32.2 18.6 32.19 14.08 32.2 14.1 C 32.19 13.86 32.2 13.6 32.2 13.6 L 32.2 13.6 C 32.2 13.6 32.1 13.8 31.8 14.1 C 31.85 14.05 31.2 14.7 31.2 14.7 L 30.6 14.1 L 32.3 12.4 L 33.2 12.4 L 33.2 18.6 L 34.7 18.6 L 34.7 19.5 L 30.6 19.5 L 30.6 18.6 Z M 36 17.9 C 36 17.9 36.59 18.68 37.7 18.7 C 38.6 18.7 39.2 18.1 39.2 17.3 C 39.2 16.4 38.4 15.8 37.5 15.8 C 36.73 15.83 36.2 16.2 36.2 16.2 L 35.8 16 C 35.8 16 36.04 13.08 36 13.1 C 36.1 12.6 36.2 12.4 36.7 12.4 C 36.7 12.4 39.1 12.4 39.1 12.4 C 39.6 12.4 39.8 12.6 39.8 13.1 C 39.78 13.08 39.8 14 39.8 14 L 38.9 14 C 38.9 14 38.87 13.52 38.9 13.5 C 38.9 13.4 38.8 13.3 38.6 13.3 C 38.6 13.3 37.2 13.3 37.2 13.3 C 37 13.3 37 13.4 36.9 13.5 C 36.9 13.5 36.8 14.8 36.8 14.8 C 36.79 15.03 36.8 15.2 36.8 15.2 L 36.8 15.2 C 36.8 15.2 37.16 14.97 37.7 15 C 39.2 15 40.2 16 40.2 17.3 C 40.2 18.5 39.2 19.6 37.7 19.6 C 36.21 19.62 35.5 18.6 35.5 18.6 L 36 17.9 Z M 41.3 16 C 41.3 13.9 41.9 12.3 43.8 12.3 C 45.6 12.3 46.2 13.9 46.2 16 C 46.2 18 45.6 19.6 43.8 19.6 C 41.9 19.6 41.3 18 41.3 16 Z M 45.2 16 C 45.2 14.4 44.9 13.2 43.8 13.2 C 42.6 13.2 42.3 14.4 42.3 16 C 42.3 17.5 42.6 18.7 43.8 18.7 C 44.9 18.7 45.2 17.5 45.2 16 Z M 49.7 14.4 C 49.7 14.4 50.63 14.44 50.6 14.4 C 51.1 14.4 51.3 14.6 51.3 15.1 C 51.3 15.1 51.3 17.5 51.3 17.5 C 51.3 18.2 51.4 18.7 52.2 18.7 C 53.3 18.7 53.9 17.8 53.9 16.8 C 53.87 16.81 53.9 14.4 53.9 14.4 L 54.8 14.4 C 54.8 14.4 54.84 18.45 54.8 18.5 C 54.8 18.6 54.9 18.7 55.1 18.7 C 55.06 18.67 55.5 18.7 55.5 18.7 L 55.5 19.5 C 55.5 19.5 54.54 19.5 54.5 19.5 C 54.1 19.5 53.9 19.3 53.9 18.9 C 53.9 18.9 53.9 18.8 53.9 18.8 C 53.9 18.6 53.9 18.5 53.9 18.5 C 53.91 18.46 53.9 18.5 53.9 18.5 C 53.9 18.5 53.42 19.62 52 19.6 C 51.36 19.62 51.1 19.3 51.1 19.3 L 51.1 19.3 C 51.1 19.3 51.17 19.8 51.2 20.1 C 51.17 20.09 51.2 21.5 51.2 21.5 L 50.3 21.5 C 50.3 21.5 50.31 15.49 50.3 15.5 C 50.3 15.3 50.2 15.3 50.1 15.3 C 50.09 15.27 49.7 15.3 49.7 15.3 L 49.7 14.4 Z M 58.3 14.3 C 59.5 14.3 59.9 15.1 59.9 15.1 C 59.9 15.11 59.9 15.1 59.9 15.1 C 59.9 15.1 59.92 15.03 59.9 14.9 C 59.9 14.7 60.1 14.4 60.5 14.4 C 60.48 14.44 61.4 14.4 61.4 14.4 L 61.4 15.3 C 61.4 15.3 61.02 15.27 61 15.3 C 60.9 15.3 60.8 15.3 60.8 15.5 C 60.8 15.5 60.8 19.3 60.8 19.3 C 60.8 21 59.5 21.6 58.2 21.6 C 57.6 21.6 57 21.4 56.5 21.2 C 56.52 21.18 56.8 20.4 56.8 20.4 C 56.8 20.4 57.47 20.74 58.2 20.7 C 59.1 20.7 59.8 20.4 59.8 19.3 C 59.8 19.3 59.8 19 59.8 19 C 59.83 18.83 59.8 18.7 59.8 18.7 C 59.8 18.7 59.83 18.67 59.8 18.7 C 59.5 19.2 59.1 19.4 58.3 19.4 C 56.9 19.4 56.1 18.3 56.1 16.8 C 56.1 15.4 56.9 14.3 58.3 14.3 Z M 59.9 16.9 C 59.9 15.5 59.2 15.2 58.4 15.2 C 57.5 15.2 57 15.8 57 16.8 C 57 17.9 57.6 18.6 58.5 18.6 C 59.2 18.6 59.9 18.2 59.9 16.9 Z " stroke="none" fill="#000"/>  </g>  <g id="Polygon75941">    <path d="M 14.1 1.3 L 13.4 1.3 L 13.4 0.4 C 13.4 0.4 17.56 0.44 17.6 0.4 C 18 0.4 18.2 0.6 18.2 1.1 C 18.2 1.08 18.2 2 18.2 2 L 17.3 2 C 17.3 2 17.29 1.52 17.3 1.5 C 17.3 1.4 17.2 1.3 17.1 1.3 C 17.07 1.3 15.1 1.3 15.1 1.3 L 15.1 3.5 L 17.5 3.5 L 17.5 4.4 L 15.1 4.4 C 15.1 4.4 15.06 6.42 15.1 6.4 C 15.1 6.6 15.1 6.6 15.3 6.6 C 15.3 6.6 17.3 6.6 17.3 6.6 C 17.5 6.6 17.6 6.6 17.6 6.4 C 17.56 6.42 17.6 6 17.6 6 L 18.5 6 C 18.5 6 18.48 6.86 18.5 6.9 C 18.5 7.3 18.3 7.5 17.8 7.5 C 17.8 7.5 14.7 7.5 14.7 7.5 C 14.2 7.5 14.1 7.3 14.1 6.9 C 14.06 6.86 14.1 1.3 14.1 1.3 Z M 18.9 5 L 22.1 0.4 L 23.2 0.4 L 23.2 4.8 L 24.3 4.8 L 24.3 5.6 L 23.2 5.6 L 23.2 7.5 L 22.2 7.5 L 22.2 5.6 L 18.9 5.6 L 18.9 5 Z M 22.2 2.3 C 22.21 2.02 22.2 1.6 22.2 1.6 L 22.2 1.6 C 22.2 1.6 22.05 1.96 21.9 2.2 C 21.9 2.2 20.3 4.3 20.3 4.3 C 20.15 4.58 20 4.8 20 4.8 L 20 4.8 C 20 4.8 20.25 4.77 20.6 4.8 C 20.56 4.77 22.2 4.8 22.2 4.8 C 22.2 4.8 22.21 2.34 22.2 2.3 Z M 27.9 5.9 C 27.9 5.9 28.65 6.68 29.7 6.7 C 30.5 6.7 31.1 6.2 31.1 5.4 C 31.1 4.6 30.4 4.1 29.6 4.1 C 29.62 4.13 29.1 4.1 29.1 4.1 L 28.9 3.6 C 28.9 3.6 30.38 1.75 30.4 1.7 C 30.59 1.45 30.8 1.3 30.8 1.3 L 30.8 1.3 C 30.8 1.3 30.58 1.3 30.2 1.3 C 30.2 1.3 28.8 1.3 28.8 1.3 C 28.7 1.3 28.6 1.4 28.6 1.5 C 28.61 1.52 28.6 2 28.6 2 L 27.7 2 C 27.7 2 27.69 1.08 27.7 1.1 C 27.7 0.6 27.8 0.4 28.3 0.4 C 28.3 0.44 32 0.4 32 0.4 L 32 1.1 C 32 1.1 30.16 3.31 30.2 3.3 C 31.1 3.4 32.2 4 32.2 5.4 C 32.2 6.6 31.2 7.6 29.7 7.6 C 28.27 7.62 27.4 6.6 27.4 6.6 L 27.9 5.9 Z M 33.1 4 C 33.1 1.9 33.7 0.3 35.6 0.3 C 37.5 0.3 38.1 1.9 38.1 4 C 38.1 6 37.5 7.6 35.6 7.6 C 33.7 7.6 33.1 6 33.1 4 Z M 37.1 4 C 37.1 2.4 36.7 1.2 35.6 1.2 C 34.4 1.2 34.1 2.4 34.1 4 C 34.1 5.5 34.4 6.7 35.6 6.7 C 36.7 6.7 37.1 5.5 37.1 4 Z M 41.5 2.4 C 41.5 2.4 42.47 2.44 42.5 2.4 C 42.9 2.4 43.1 2.6 43.1 3.1 C 43.1 3.1 43.1 5.5 43.1 5.5 C 43.1 6.2 43.3 6.7 44.1 6.7 C 45.1 6.7 45.7 5.8 45.7 4.8 C 45.71 4.81 45.7 2.4 45.7 2.4 L 46.7 2.4 C 46.7 2.4 46.68 6.45 46.7 6.5 C 46.7 6.6 46.8 6.7 46.9 6.7 C 46.9 6.67 47.3 6.7 47.3 6.7 L 47.3 7.5 C 47.3 7.5 46.38 7.5 46.4 7.5 C 45.9 7.5 45.7 7.3 45.7 6.9 C 45.7 6.9 45.7 6.8 45.7 6.8 C 45.7 6.6 45.7 6.5 45.7 6.5 C 45.75 6.46 45.7 6.5 45.7 6.5 C 45.7 6.5 45.26 7.62 43.9 7.6 C 43.2 7.62 43 7.3 43 7.3 L 42.9 7.3 C 42.9 7.3 43.01 7.8 43 8.1 C 43.01 8.09 43 9.5 43 9.5 L 42.1 9.5 C 42.1 9.5 42.15 3.49 42.1 3.5 C 42.1 3.3 42.1 3.3 41.9 3.3 C 41.93 3.27 41.5 3.3 41.5 3.3 L 41.5 2.4 Z M 50.1 2.3 C 51.4 2.3 51.7 3.1 51.7 3.1 C 51.74 3.11 51.8 3.1 51.8 3.1 C 51.8 3.1 51.76 3.03 51.8 2.9 C 51.8 2.7 51.9 2.4 52.3 2.4 C 52.32 2.44 53.3 2.4 53.3 2.4 L 53.3 3.3 C 53.3 3.3 52.86 3.27 52.9 3.3 C 52.7 3.3 52.6 3.3 52.6 3.5 C 52.6 3.5 52.6 7.3 52.6 7.3 C 52.6 9 51.4 9.6 50.1 9.6 C 49.5 9.6 48.9 9.4 48.4 9.2 C 48.36 9.18 48.7 8.4 48.7 8.4 C 48.7 8.4 49.31 8.74 50.1 8.7 C 50.9 8.7 51.7 8.4 51.7 7.3 C 51.7 7.3 51.7 7 51.7 7 C 51.67 6.83 51.7 6.7 51.7 6.7 C 51.7 6.7 51.67 6.67 51.7 6.7 C 51.4 7.2 50.9 7.4 50.2 7.4 C 48.8 7.4 47.9 6.3 47.9 4.8 C 47.9 3.4 48.7 2.3 50.1 2.3 Z M 51.7 4.9 C 51.7 3.5 51 3.2 50.3 3.2 C 49.4 3.2 48.9 3.8 48.9 4.8 C 48.9 5.9 49.4 6.6 50.3 6.6 C 51 6.6 51.7 6.2 51.7 4.9 Z M 56 0.1 L 56.9 0.1 L 54.3 7.9 L 53.5 7.9 L 56 0.1 Z " stroke="none" fill="#000"/>  </g></svg>