<?xml version="1.0" standalone="no"?><!DOCTYPE svg PUBLIC "-//W3C//DTD SVG 1.1//EN" "http://www.w3.org/Graphics/SVG/1.1/DTD/svg11.dtd"><svg xmlns="http://www.w3.org/2000/svg" version="1.1" width="16px" height="15.5px" viewBox="0 -2 16 15.5" style="top:-2px">  <desc>40</desc>  <defs/>  <g id="Polygon72958">    <path d="M 4.1 5.1 L 7.5 0.5 L 8.3 0.5 L 8.3 4.9 L 9.4 4.9 L 9.4 5.6 L 8.3 5.6 L 8.3 7.5 L 7.6 7.5 L 7.6 5.6 L 4.1 5.6 L 4.1 5.1 Z M 7.6 2.1 C 7.58 1.77 7.6 1.4 7.6 1.4 L 7.6 1.4 C 7.6 1.4 7.42 1.68 7.2 1.9 C 7.2 1.9 5.3 4.5 5.3 4.5 C 5.09 4.76 4.9 5 4.9 5 L 4.9 5 C 4.9 5 5.19 4.94 5.5 4.9 C 5.49 4.94 7.6 4.9 7.6 4.9 C 7.6 4.9 7.58 2.07 7.6 2.1 Z M 10.2 4 C 10.2 2 10.8 0.4 12.6 0.4 C 14.4 0.4 15 2 15 4 C 15 6 14.4 7.6 12.6 7.6 C 10.8 7.6 10.2 6 10.2 4 Z M 14.3 4 C 14.3 2.3 13.9 1 12.6 1 C 11.3 1 10.9 2.3 10.9 4 C 10.9 5.7 11.3 7 12.6 7 C 13.9 7 14.3 5.7 14.3 4 Z " stroke="none" fill="#000"/>  </g></svg>