<?xml version="1.0" standalone="no"?><!DOCTYPE svg PUBLIC "-//W3C//DTD SVG 1.1//EN" "http://www.w3.org/Graphics/SVG/1.1/DTD/svg11.dtd"><svg xmlns="http://www.w3.org/2000/svg" version="1.1" width="571px" height="43px" viewBox="0 -1 571 43" style="top:-1px">  <desc>Hist ria estetrolu</desc>  <defs/>  <g id="Polygon67816">    <path d="M 207 13.5 C 207 13.2 206.9 13.1 206.6 13.1 C 206.61 13.1 205.7 13.1 205.7 13.1 L 205.7 11.4 C 205.7 11.4 207.77 11.38 207.8 11.4 C 208.7 11.4 209 11.8 209 12.7 C 209.05 12.66 209 17.6 209 17.6 L 216.2 17.6 C 216.2 17.6 216.23 12.66 216.2 12.7 C 216.2 11.8 216.6 11.4 217.5 11.4 C 217.51 11.38 219.5 11.4 219.5 11.4 L 219.5 13.1 C 219.5 13.1 218.67 13.1 218.7 13.1 C 218.4 13.1 218.2 13.2 218.2 13.5 C 218.23 13.54 218.2 25.5 218.2 25.5 L 216.2 25.5 L 216.2 19.3 L 209 19.3 L 209 25.5 L 207 25.5 C 207 25.5 207.05 13.54 207 13.5 Z M 222.1 11.4 L 223.9 11.4 L 223.9 13.4 L 222.1 13.4 L 222.1 11.4 Z M 222.1 17.5 C 222.1 17.2 221.9 17 221.6 17 C 221.65 17.04 220.8 17 220.8 17 L 220.8 15.4 C 220.8 15.4 222.73 15.38 222.7 15.4 C 223.6 15.4 224 15.8 224 16.7 C 224 16.7 224 23.4 224 23.4 C 224 23.7 224.2 23.8 224.4 23.8 C 224.45 23.84 225.3 23.8 225.3 23.8 L 225.3 25.5 C 225.3 25.5 223.37 25.5 223.4 25.5 C 222.5 25.5 222.1 25.1 222.1 24.2 C 222.1 24.2 222.1 17.5 222.1 17.5 Z M 227.3 22.7 C 227.3 22.7 228.53 24.16 230.4 24.2 C 231.3 24.2 232.1 23.7 232.1 22.9 C 232.1 21 226.6 21.2 226.6 18 C 226.6 16 228.3 15.1 230.4 15.1 C 231.6 15.1 233.7 15.6 233.7 17.1 C 233.71 17.1 233.7 18.1 233.7 18.1 L 232 18.1 C 232 18.1 231.97 17.56 232 17.6 C 232 17 231.1 16.7 230.4 16.7 C 229.3 16.7 228.6 17.1 228.6 17.9 C 228.6 19.8 234.1 19.4 234.1 22.8 C 234.1 24.6 232.5 25.7 230.4 25.7 C 227.67 25.74 226.3 24 226.3 24 L 227.3 22.7 Z M 236.6 16.9 L 235.3 16.9 L 235.3 15.4 L 236.7 15.4 L 236.7 12.6 L 238.6 12.6 L 238.6 15.4 L 241 15.4 L 241 16.9 L 238.6 16.9 C 238.6 16.9 238.59 21.58 238.6 21.6 C 238.6 23.6 240 23.9 240.7 23.9 C 241.01 23.86 241.2 23.8 241.2 23.8 L 241.2 25.5 C 241.2 25.5 240.93 25.58 240.5 25.6 C 239.2 25.6 236.6 25.2 236.6 21.8 C 236.65 21.8 236.6 16.9 236.6 16.9 Z M 247.9 15.1 C 250.9 15.1 253.3 17.4 253.3 20.4 C 253.3 23.5 250.9 25.7 247.9 25.7 C 244.9 25.7 242.4 23.5 242.4 20.4 C 242.4 17.4 244.9 15.1 247.9 15.1 Z M 247.9 24.1 C 249.8 24.1 251.4 22.5 251.4 20.4 C 251.4 18.3 249.8 16.8 247.9 16.8 C 246 16.8 244.4 18.3 244.4 20.4 C 244.4 22.5 246 24.1 247.9 24.1 Z M 248.6 11.4 L 250.5 11.4 L 248.6 13.9 L 247.1 13.9 L 248.6 11.4 Z M 255.8 17.5 C 255.8 17.2 255.6 17 255.3 17 C 255.33 17.04 254.5 17 254.5 17 L 254.5 15.4 C 254.5 15.4 256.35 15.38 256.3 15.4 C 257.2 15.4 257.6 15.7 257.6 16.6 C 257.6 16.6 257.6 17.2 257.6 17.2 C 257.65 17.6 257.6 17.9 257.6 17.9 C 257.6 17.9 257.65 17.9 257.6 17.9 C 258.1 16.4 259.3 15.3 260.8 15.3 C 261.11 15.26 261.4 15.3 261.4 15.3 L 261.4 17.2 C 261.4 17.2 261.11 17.16 260.8 17.2 C 259.5 17.2 258.4 18 257.9 19.5 C 257.8 20.1 257.7 20.7 257.7 21.4 C 257.71 21.36 257.7 25.5 257.7 25.5 L 255.8 25.5 C 255.8 25.5 255.77 17.48 255.8 17.5 Z M 263.6 11.4 L 265.4 11.4 L 265.4 13.4 L 263.6 13.4 L 263.6 11.4 Z M 263.6 17.5 C 263.6 17.2 263.4 17 263.2 17 C 263.17 17.04 262.3 17 262.3 17 L 262.3 15.4 C 262.3 15.4 264.25 15.38 264.2 15.4 C 265.1 15.4 265.5 15.8 265.5 16.7 C 265.5 16.7 265.5 23.4 265.5 23.4 C 265.5 23.7 265.7 23.8 266 23.8 C 265.97 23.84 266.8 23.8 266.8 23.8 L 266.8 25.5 C 266.8 25.5 264.89 25.5 264.9 25.5 C 264 25.5 263.6 25.1 263.6 24.2 C 263.6 24.2 263.6 17.5 263.6 17.5 Z M 274.1 19.2 C 274.15 19.2 274.6 19.2 274.6 19.2 C 274.6 19.2 274.59 19.1 274.6 19.1 C 274.6 17.3 273.9 16.7 272.3 16.7 C 271.9 16.7 270.7 16.8 270.7 17.5 C 270.69 17.46 270.7 18 270.7 18 L 268.9 18 C 268.9 18 268.87 17.04 268.9 17 C 268.9 15.4 271.4 15.1 272.4 15.1 C 275.6 15.1 276.5 16.9 276.5 19.1 C 276.5 19.1 276.5 23.4 276.5 23.4 C 276.5 23.7 276.7 23.8 277 23.8 C 276.97 23.84 277.8 23.8 277.8 23.8 L 277.8 25.5 C 277.8 25.5 275.97 25.5 276 25.5 C 275.1 25.5 274.7 25.1 274.7 24.3 C 274.71 24 274.7 23.7 274.7 23.7 L 274.7 23.7 C 274.7 23.7 273.91 25.74 271.5 25.7 C 269.7 25.7 268 24.7 268 22.7 C 268 19.4 272.4 19.2 274.1 19.2 Z M 271.9 24.2 C 273.5 24.2 274.6 22.5 274.6 21 C 274.61 20.96 274.6 20.6 274.6 20.6 C 274.6 20.6 274.11 20.62 274.1 20.6 C 272.6 20.6 270 20.7 270 22.6 C 270 23.4 270.6 24.2 271.9 24.2 Z M 289.4 15.1 C 292.2 15.1 293.7 17.3 293.7 19.9 C 293.73 20.14 293.7 20.7 293.7 20.7 C 293.7 20.7 286.29 20.68 286.3 20.7 C 286.4 22.8 288 24.1 289.8 24.1 C 291.51 24.06 292.7 22.9 292.7 22.9 L 293.6 24.3 C 293.6 24.3 292.06 25.74 289.7 25.7 C 286.5 25.7 284.3 23.4 284.3 20.4 C 284.3 17.2 286.5 15.1 289.4 15.1 Z M 291.7 19.3 C 291.7 17.6 290.6 16.7 289.3 16.7 C 287.9 16.7 286.7 17.6 286.4 19.3 C 286.4 19.3 291.7 19.3 291.7 19.3 Z M 296.1 22.7 C 296.1 22.7 297.34 24.16 299.2 24.2 C 300.1 24.2 301 23.7 301 22.9 C 301 21 295.4 21.2 295.4 18 C 295.4 16 297.1 15.1 299.2 15.1 C 300.4 15.1 302.5 15.6 302.5 17.1 C 302.52 17.1 302.5 18.1 302.5 18.1 L 300.8 18.1 C 300.8 18.1 300.78 17.56 300.8 17.6 C 300.8 17 299.9 16.7 299.3 16.7 C 298.1 16.7 297.4 17.1 297.4 17.9 C 297.4 19.8 302.9 19.4 302.9 22.8 C 302.9 24.6 301.3 25.7 299.2 25.7 C 296.48 25.74 295.1 24 295.1 24 L 296.1 22.7 Z M 305.5 16.9 L 304.1 16.9 L 304.1 15.4 L 305.5 15.4 L 305.5 12.6 L 307.4 12.6 L 307.4 15.4 L 309.8 15.4 L 309.8 16.9 L 307.4 16.9 C 307.4 16.9 307.4 21.58 307.4 21.6 C 307.4 23.6 308.8 23.9 309.5 23.9 C 309.82 23.86 310 23.8 310 23.8 L 310 25.5 C 310 25.5 309.74 25.58 309.3 25.6 C 308 25.6 305.5 25.2 305.5 21.8 C 305.46 21.8 305.5 16.9 305.5 16.9 Z M 316.3 15.1 C 319.2 15.1 320.7 17.3 320.7 19.9 C 320.7 20.14 320.6 20.7 320.6 20.7 C 320.6 20.7 313.26 20.68 313.3 20.7 C 313.4 22.8 314.9 24.1 316.7 24.1 C 318.48 24.06 319.7 22.9 319.7 22.9 L 320.5 24.3 C 320.5 24.3 319.04 25.74 316.6 25.7 C 313.4 25.7 311.3 23.4 311.3 20.4 C 311.3 17.2 313.5 15.1 316.3 15.1 Z M 318.7 19.3 C 318.6 17.6 317.6 16.7 316.3 16.7 C 314.8 16.7 313.6 17.6 313.3 19.3 C 313.3 19.3 318.7 19.3 318.7 19.3 Z M 323.4 16.9 L 322 16.9 L 322 15.4 L 323.4 15.4 L 323.4 12.6 L 325.3 12.6 L 325.3 15.4 L 327.7 15.4 L 327.7 16.9 L 325.3 16.9 C 325.3 16.9 325.3 21.58 325.3 21.6 C 325.3 23.6 326.7 23.9 327.4 23.9 C 327.72 23.86 327.9 23.8 327.9 23.8 L 327.9 25.5 C 327.9 25.5 327.64 25.58 327.2 25.6 C 325.9 25.6 323.4 25.2 323.4 21.8 C 323.36 21.8 323.4 16.9 323.4 16.9 Z M 330.3 17.5 C 330.3 17.2 330.2 17 329.9 17 C 329.88 17.04 329.1 17 329.1 17 L 329.1 15.4 C 329.1 15.4 330.9 15.38 330.9 15.4 C 331.8 15.4 332.2 15.7 332.2 16.6 C 332.2 16.6 332.2 17.2 332.2 17.2 C 332.2 17.6 332.2 17.9 332.2 17.9 C 332.2 17.9 332.2 17.9 332.2 17.9 C 332.7 16.4 333.8 15.3 335.4 15.3 C 335.66 15.26 335.9 15.3 335.9 15.3 L 335.9 17.2 C 335.9 17.2 335.66 17.16 335.3 17.2 C 334.1 17.2 333 18 332.5 19.5 C 332.3 20.1 332.3 20.7 332.3 21.4 C 332.26 21.36 332.3 25.5 332.3 25.5 L 330.3 25.5 C 330.3 25.5 330.32 17.48 330.3 17.5 Z M 342.1 15.1 C 345.1 15.1 347.6 17.4 347.6 20.4 C 347.6 23.5 345.1 25.7 342.1 25.7 C 339.1 25.7 336.7 23.5 336.7 20.4 C 336.7 17.4 339.1 15.1 342.1 15.1 Z M 342.1 24.1 C 344 24.1 345.6 22.5 345.6 20.4 C 345.6 18.3 344 16.8 342.1 16.8 C 340.2 16.8 338.7 18.3 338.7 20.4 C 338.7 22.5 340.2 24.1 342.1 24.1 Z M 349.8 13.5 C 349.8 13.2 349.6 13 349.3 13 C 349.34 13.04 348.5 13 348.5 13 L 348.5 11.4 C 348.5 11.4 350.44 11.38 350.4 11.4 C 351.3 11.4 351.7 11.8 351.7 12.7 C 351.7 12.7 351.7 23.4 351.7 23.4 C 351.7 23.7 351.9 23.8 352.2 23.8 C 352.16 23.84 353 23.8 353 23.8 L 353 25.5 C 353 25.5 351.06 25.5 351.1 25.5 C 350.2 25.5 349.8 25.1 349.8 24.2 C 349.8 24.2 349.8 13.5 349.8 13.5 Z M 355.1 17.5 C 355.1 17.2 355 17 354.7 17 C 354.7 17.04 353.9 17 353.9 17 L 353.9 15.4 C 353.9 15.4 355.78 15.38 355.8 15.4 C 356.7 15.4 357.1 15.8 357.1 16.6 C 357.1 16.6 357.1 21.4 357.1 21.4 C 357.1 22.8 357.4 23.9 359 23.9 C 361 23.9 362.3 22.1 362.3 20.1 C 362.26 20.12 362.3 15.4 362.3 15.4 L 364.2 15.4 C 364.2 15.4 364.2 23.4 364.2 23.4 C 364.2 23.7 364.4 23.8 364.6 23.8 C 364.64 23.84 365.5 23.8 365.5 23.8 L 365.5 25.5 C 365.5 25.5 363.6 25.5 363.6 25.5 C 362.7 25.5 362.3 25.1 362.3 24.4 C 362.3 24.4 362.3 24 362.3 24 C 362.32 23.68 362.3 23.4 362.3 23.4 C 362.3 23.4 362.3 23.42 362.3 23.4 C 361.9 24.4 360.6 25.7 358.6 25.7 C 356.3 25.7 355.1 24.5 355.1 21.9 C 355.1 21.9 355.1 17.5 355.1 17.5 Z " stroke="none" fill="#ee3078"/>  </g></svg>