<?xml version="1.0" standalone="no"?><!DOCTYPE svg PUBLIC "-//W3C//DTD SVG 1.1//EN" "http://www.w3.org/Graphics/SVG/1.1/DTD/svg11.dtd"><svg xmlns="http://www.w3.org/2000/svg" version="1.1" width="723px" height="58px" viewBox="0 -4 723 58" style="top:-4px">  <desc>Hormon lna antikoncepcia Drovelis / eur pska t dia (re im u vania 24/4)</desc>  <defs/>  <g id="Polygon78680">    <path d="M 267.4 24.3 C 267.4 24.3 269.1 24.3 269.1 24.3 C 267.6 26.8 266.9 29.4 266.9 32.3 C 266.9 35.2 267.6 38.2 269.2 40.9 C 269.2 40.9 267.4 40.9 267.4 40.9 C 265.9 38.6 265.1 35.5 265.1 32.4 C 265.1 29.4 265.8 26.6 267.4 24.3 Z M 271.7 31 C 271.7 30.7 271.6 30.5 271.3 30.5 C 271.31 30.54 270.5 30.5 270.5 30.5 L 270.5 28.9 C 270.5 28.9 272.33 28.88 272.3 28.9 C 273.2 28.9 273.6 29.2 273.6 30.1 C 273.6 30.1 273.6 30.7 273.6 30.7 C 273.63 31.1 273.6 31.4 273.6 31.4 C 273.6 31.4 273.63 31.4 273.6 31.4 C 274.1 29.9 275.3 28.8 276.8 28.8 C 277.09 28.76 277.3 28.8 277.3 28.8 L 277.3 30.7 C 277.3 30.7 277.09 30.66 276.8 30.7 C 275.5 30.7 274.4 31.5 273.9 33 C 273.7 33.6 273.7 34.2 273.7 34.9 C 273.69 34.86 273.7 39 273.7 39 L 271.7 39 C 271.7 39 271.75 30.98 271.7 31 Z M 283.2 28.6 C 286 28.6 287.5 30.8 287.5 33.4 C 287.55 33.64 287.5 34.2 287.5 34.2 C 287.5 34.2 280.11 34.18 280.1 34.2 C 280.2 36.3 281.8 37.6 283.6 37.6 C 285.33 37.56 286.5 36.4 286.5 36.4 L 287.4 37.8 C 287.4 37.8 285.89 39.24 283.5 39.2 C 280.3 39.2 278.1 36.9 278.1 33.9 C 278.1 30.7 280.3 28.6 283.2 28.6 Z M 285.5 32.8 C 285.5 31.1 284.4 30.2 283.2 30.2 C 281.7 30.2 280.5 31.1 280.2 32.8 C 280.2 32.8 285.5 32.8 285.5 32.8 Z M 289.1 37.9 C 289.1 37.9 294.27 31.48 294.3 31.5 C 294.71 30.94 295.1 30.5 295.1 30.5 L 295.1 30.5 C 295.1 30.5 294.79 30.54 294.1 30.5 C 294.1 30.5 291.4 30.5 291.4 30.5 C 291.1 30.5 290.9 30.7 290.9 31 C 290.93 30.98 290.9 31.7 290.9 31.7 L 289.1 31.7 C 289.1 31.7 289.15 30.16 289.1 30.2 C 289.1 29.3 289.5 28.9 290.4 28.9 C 290.43 28.88 297.7 28.9 297.7 28.9 L 297.7 30 C 297.7 30 292.47 36.42 292.5 36.4 C 292.05 36.92 291.6 37.3 291.6 37.3 L 291.6 37.4 C 291.6 37.4 291.95 37.34 292.6 37.3 C 292.6 37.3 295.8 37.3 295.8 37.3 C 296.1 37.3 296.3 37.2 296.3 36.9 C 296.29 36.9 296.3 36.2 296.3 36.2 L 298 36.2 C 298 36.2 298.05 37.72 298 37.7 C 298 38.6 297.7 39 296.8 39 C 296.77 39 289.1 39 289.1 39 L 289.1 37.9 Z M 291 24.9 L 292.6 24.9 L 293.6 26.5 L 293.6 26.5 L 294.7 24.9 L 296.3 24.9 L 294.5 27.4 L 292.7 27.4 L 291 24.9 Z M 300.4 24.9 L 302.1 24.9 L 302.1 26.9 L 300.4 26.9 L 300.4 24.9 Z M 300.3 31 C 300.3 30.7 300.2 30.5 299.9 30.5 C 299.89 30.54 299.1 30.5 299.1 30.5 L 299.1 28.9 C 299.1 28.9 300.97 28.88 301 28.9 C 301.9 28.9 302.2 29.3 302.2 30.2 C 302.2 30.2 302.2 36.9 302.2 36.9 C 302.2 37.2 302.4 37.3 302.7 37.3 C 302.69 37.34 303.5 37.3 303.5 37.3 L 303.5 39 C 303.5 39 301.61 39 301.6 39 C 300.7 39 300.3 38.6 300.3 37.7 C 300.3 37.7 300.3 31 300.3 31 Z M 305.7 31 C 305.7 30.7 305.6 30.5 305.3 30.5 C 305.29 30.54 304.5 30.5 304.5 30.5 L 304.5 28.9 C 304.5 28.9 306.33 28.88 306.3 28.9 C 307.2 28.9 307.6 29.3 307.6 30 C 307.6 30 307.6 30.4 307.6 30.4 C 307.61 30.7 307.6 31 307.6 31 C 307.6 31 307.63 30.96 307.6 31 C 308.1 29.8 309.5 28.6 311.1 28.6 C 312.8 28.6 313.8 29.4 314.1 30.9 C 314.1 30.9 314.2 30.9 314.2 30.9 C 314.7 29.7 316.1 28.6 317.8 28.6 C 320 28.6 321.1 29.9 321.1 32.5 C 321.1 32.5 321.1 36.9 321.1 36.9 C 321.1 37.2 321.3 37.3 321.5 37.3 C 321.55 37.34 322.4 37.3 322.4 37.3 L 322.4 39 C 322.4 39 320.45 39 320.4 39 C 319.5 39 319.2 38.6 319.2 37.7 C 319.2 37.7 319.2 32.9 319.2 32.9 C 319.2 31.5 318.9 30.4 317.4 30.4 C 316 30.4 314.9 31.6 314.5 33 C 314.4 33.4 314.4 33.9 314.4 34.4 C 314.39 34.38 314.4 39 314.4 39 L 312.4 39 C 312.4 39 312.45 32.94 312.4 32.9 C 312.4 31.6 312.2 30.4 310.7 30.4 C 309.2 30.4 308.2 31.6 307.8 33.1 C 307.7 33.5 307.7 33.9 307.7 34.4 C 307.67 34.38 307.7 39 307.7 39 L 305.7 39 C 305.7 39 305.73 30.98 305.7 31 Z M 329.8 31 C 329.8 30.7 329.6 30.5 329.4 30.5 C 329.37 30.54 328.5 30.5 328.5 30.5 L 328.5 28.9 C 328.5 28.9 330.45 28.88 330.4 28.9 C 331.4 28.9 331.7 29.3 331.7 30.1 C 331.7 30.1 331.7 34.9 331.7 34.9 C 331.7 36.3 332 37.4 333.6 37.4 C 335.7 37.4 336.9 35.6 336.9 33.6 C 336.93 33.62 336.9 28.9 336.9 28.9 L 338.9 28.9 C 338.9 28.9 338.87 36.9 338.9 36.9 C 338.9 37.2 339 37.3 339.3 37.3 C 339.31 37.34 340.1 37.3 340.1 37.3 L 340.1 39 C 340.1 39 338.27 39 338.3 39 C 337.4 39 337 38.6 337 37.9 C 337 37.9 337 37.5 337 37.5 C 336.99 37.18 337 36.9 337 36.9 C 337 36.9 336.97 36.92 337 36.9 C 336.5 37.9 335.2 39.2 333.2 39.2 C 331 39.2 329.8 38 329.8 35.4 C 329.8 35.4 329.8 31 329.8 31 Z M 341.2 37.9 C 341.2 37.9 346.41 31.48 346.4 31.5 C 346.85 30.94 347.2 30.5 347.2 30.5 L 347.2 30.5 C 347.2 30.5 346.93 30.54 346.3 30.5 C 346.3 30.5 343.5 30.5 343.5 30.5 C 343.2 30.5 343.1 30.7 343.1 31 C 343.07 30.98 343.1 31.7 343.1 31.7 L 341.3 31.7 C 341.3 31.7 341.29 30.16 341.3 30.2 C 341.3 29.3 341.7 28.9 342.6 28.9 C 342.57 28.88 349.8 28.9 349.8 28.9 L 349.8 30 C 349.8 30 344.61 36.42 344.6 36.4 C 344.19 36.92 343.8 37.3 343.8 37.3 L 343.8 37.4 C 343.8 37.4 344.09 37.34 344.7 37.3 C 344.7 37.3 348 37.3 348 37.3 C 348.3 37.3 348.4 37.2 348.4 36.9 C 348.43 36.9 348.4 36.2 348.4 36.2 L 350.2 36.2 C 350.2 36.2 350.19 37.72 350.2 37.7 C 350.2 38.6 349.8 39 348.9 39 C 348.91 39 341.2 39 341.2 39 L 341.2 37.9 Z M 343.1 24.9 L 344.7 24.9 L 345.7 26.5 L 345.8 26.5 L 346.8 24.9 L 348.4 24.9 L 346.7 27.4 L 344.9 27.4 L 343.1 24.9 Z M 352.5 31 C 352.5 30.7 352.3 30.5 352 30.5 C 352.03 30.54 351.2 30.5 351.2 30.5 L 351.2 28.9 C 351.2 28.9 353.13 28.88 353.1 28.9 C 354 28.9 354.4 29.3 354.4 30.2 C 354.4 30.2 354.4 36.9 354.4 36.9 C 354.4 37.2 354.6 37.3 354.8 37.3 C 354.85 37.34 355.7 37.3 355.7 37.3 L 355.7 39 C 355.7 39 353.77 39 353.8 39 C 352.8 39 352.5 38.6 352.5 37.7 C 352.5 37.7 352.5 31 352.5 31 Z M 354 24.9 L 355.9 24.9 L 354 27.4 L 352.5 27.4 L 354 24.9 Z M 357.2 30.9 C 357.1 30.6 356.9 30.5 356.6 30.5 C 356.57 30.54 356.4 30.5 356.4 30.5 L 356.4 28.9 C 356.4 28.9 357.37 28.88 357.4 28.9 C 358.3 28.9 358.6 29.1 358.9 29.9 C 358.9 29.9 361.1 35.7 361.1 35.7 C 361.29 36.28 361.4 37 361.4 37 L 361.5 37 C 361.5 37 361.65 36.28 361.8 35.7 C 361.8 35.7 364 29.9 364 29.9 C 364.3 29.1 364.7 28.9 365.5 28.9 C 365.55 28.88 366.5 28.9 366.5 28.9 L 366.5 30.5 C 366.5 30.5 366.29 30.54 366.3 30.5 C 365.9 30.5 365.7 30.6 365.6 30.9 C 365.63 30.94 362.5 39 362.5 39 L 360.3 39 C 360.3 39 357.19 30.94 357.2 30.9 Z M 373.5 32.7 C 373.49 32.7 373.9 32.7 373.9 32.7 C 373.9 32.7 373.93 32.6 373.9 32.6 C 373.9 30.8 373.3 30.2 371.7 30.2 C 371.2 30.2 370 30.3 370 31 C 370.03 30.96 370 31.5 370 31.5 L 368.2 31.5 C 368.2 31.5 368.21 30.54 368.2 30.5 C 368.2 28.9 370.7 28.6 371.7 28.6 C 375 28.6 375.9 30.4 375.9 32.6 C 375.9 32.6 375.9 36.9 375.9 36.9 C 375.9 37.2 376 37.3 376.3 37.3 C 376.31 37.34 377.1 37.3 377.1 37.3 L 377.1 39 C 377.1 39 375.31 39 375.3 39 C 374.4 39 374 38.6 374 37.8 C 374.05 37.5 374.1 37.2 374.1 37.2 L 374 37.2 C 374 37.2 373.25 39.24 370.8 39.2 C 369.1 39.2 367.4 38.2 367.4 36.2 C 367.4 32.9 371.8 32.7 373.5 32.7 Z M 371.2 37.7 C 372.9 37.7 373.9 36 373.9 34.5 C 373.95 34.46 373.9 34.1 373.9 34.1 C 373.9 34.1 373.45 34.12 373.4 34.1 C 372 34.1 369.3 34.2 369.3 36.1 C 369.3 36.9 370 37.7 371.2 37.7 Z M 379.2 31 C 379.2 30.7 379.1 30.5 378.8 30.5 C 378.79 30.54 378 30.5 378 30.5 L 378 28.9 C 378 28.9 379.83 28.88 379.8 28.9 C 380.7 28.9 381.1 29.3 381.1 30 C 381.1 30 381.1 30.4 381.1 30.4 C 381.11 30.7 381.1 31 381.1 31 C 381.1 31 381.11 30.96 381.1 31 C 381.5 30.1 382.7 28.6 384.9 28.6 C 387.3 28.6 388.4 29.9 388.4 32.5 C 388.4 32.5 388.4 36.9 388.4 36.9 C 388.4 37.2 388.5 37.3 388.8 37.3 C 388.83 37.34 389.6 37.3 389.6 37.3 L 389.6 39 C 389.6 39 387.73 39 387.7 39 C 386.8 39 386.4 38.6 386.4 37.7 C 386.4 37.7 386.4 33 386.4 33 C 386.4 31.5 386.2 30.4 384.5 30.4 C 383 30.4 381.7 31.4 381.3 32.9 C 381.2 33.3 381.2 33.8 381.2 34.3 C 381.17 34.26 381.2 39 381.2 39 L 379.2 39 C 379.2 39 379.23 30.98 379.2 31 Z M 391.9 24.9 L 393.6 24.9 L 393.6 26.9 L 391.9 26.9 L 391.9 24.9 Z M 391.8 31 C 391.8 30.7 391.7 30.5 391.4 30.5 C 391.41 30.54 390.6 30.5 390.6 30.5 L 390.6 28.9 C 390.6 28.9 392.49 28.88 392.5 28.9 C 393.4 28.9 393.8 29.3 393.8 30.2 C 393.8 30.2 393.8 36.9 393.8 36.9 C 393.8 37.2 393.9 37.3 394.2 37.3 C 394.21 37.34 395 37.3 395 37.3 L 395 39 C 395 39 393.13 39 393.1 39 C 392.2 39 391.8 38.6 391.8 37.7 C 391.8 37.7 391.8 31 391.8 31 Z M 402.4 32.7 C 402.39 32.7 402.8 32.7 402.8 32.7 C 402.8 32.7 402.83 32.6 402.8 32.6 C 402.8 30.8 402.2 30.2 400.6 30.2 C 400.1 30.2 398.9 30.3 398.9 31 C 398.93 30.96 398.9 31.5 398.9 31.5 L 397.1 31.5 C 397.1 31.5 397.11 30.54 397.1 30.5 C 397.1 28.9 399.6 28.6 400.6 28.6 C 403.9 28.6 404.8 30.4 404.8 32.6 C 404.8 32.6 404.8 36.9 404.8 36.9 C 404.8 37.2 404.9 37.3 405.2 37.3 C 405.21 37.34 406 37.3 406 37.3 L 406 39 C 406 39 404.21 39 404.2 39 C 403.3 39 402.9 38.6 402.9 37.8 C 402.95 37.5 403 37.2 403 37.2 L 402.9 37.2 C 402.9 37.2 402.15 39.24 399.7 39.2 C 398 39.2 396.3 38.2 396.3 36.2 C 396.3 32.9 400.7 32.7 402.4 32.7 Z M 400.1 37.7 C 401.8 37.7 402.8 36 402.8 34.5 C 402.85 34.46 402.8 34.1 402.8 34.1 C 402.8 34.1 402.35 34.12 402.3 34.1 C 400.9 34.1 398.2 34.2 398.2 36.1 C 398.2 36.9 398.9 37.7 400.1 37.7 Z M 419.7 28.7 C 419.7 27.4 418.8 26.5 417.3 26.5 C 416 26.5 415.1 27.1 415.1 27.8 C 415.09 27.82 415.1 28.4 415.1 28.4 L 413.2 28.4 C 413.2 28.4 413.25 27.24 413.2 27.2 C 413.2 25.4 415.7 24.6 417.3 24.6 C 419.9 24.6 421.8 26.3 421.8 28.7 C 421.8 33.6 414.6 33.6 414.6 36.9 C 414.6 37.2 414.8 37.3 415.1 37.3 C 415.1 37.3 420.1 37.3 420.1 37.3 C 420.4 37.3 420.6 37.1 420.6 36.8 C 420.59 36.84 420.6 35.9 420.6 35.9 L 422.4 35.9 C 422.4 35.9 422.43 37.72 422.4 37.7 C 422.4 38.6 422 39 421.1 39 C 421.1 39 413.9 39 413.9 39 C 412.8 39 412.6 38.5 412.6 37.4 C 412.6 32.2 419.7 32.5 419.7 28.7 Z M 423.2 34 L 429.6 24.9 L 431.8 24.9 L 431.8 33.5 L 434 33.5 L 434 35.3 L 431.8 35.3 L 431.8 39 L 429.8 39 L 429.8 35.3 L 423.2 35.3 L 423.2 34 Z M 429.9 28.7 C 429.87 28.04 429.9 27.2 429.9 27.2 L 429.9 27.2 C 429.9 27.2 429.55 27.92 429.2 28.4 C 429.2 28.4 426.1 32.7 426.1 32.7 C 425.75 33.16 425.4 33.6 425.4 33.6 L 425.4 33.6 C 425.4 33.6 425.95 33.54 426.6 33.5 C 426.57 33.54 429.9 33.5 429.9 33.5 C 429.9 33.5 429.87 28.68 429.9 28.7 Z M 439.5 24.1 L 441.2 24.1 L 436.1 39.8 L 434.4 39.8 L 439.5 24.1 Z M 441.6 34 L 448 24.9 L 450.3 24.9 L 450.3 33.5 L 452.5 33.5 L 452.5 35.3 L 450.3 35.3 L 450.3 39 L 448.3 39 L 448.3 35.3 L 441.6 35.3 L 441.6 34 Z M 448.3 28.7 C 448.29 28.04 448.4 27.2 448.4 27.2 L 448.3 27.2 C 448.3 27.2 447.97 27.92 447.6 28.4 C 447.6 28.4 444.5 32.7 444.5 32.7 C 444.17 33.16 443.8 33.6 443.8 33.6 L 443.8 33.6 C 443.8 33.6 444.37 33.54 445 33.5 C 444.99 33.54 448.3 33.5 448.3 33.5 C 448.3 33.5 448.29 28.68 448.3 28.7 Z M 456 32.3 C 456 29.4 455.2 26.8 453.8 24.3 C 453.8 24.3 455.5 24.3 455.5 24.3 C 457 26.6 457.7 29.4 457.7 32.4 C 457.7 35.5 456.9 38.6 455.4 40.9 C 455.4 40.9 453.7 40.9 453.7 40.9 C 455.2 38.2 456 35.2 456 32.3 Z " stroke="none" fill="#ee3078"/>  </g>  <g id="Polygon78679">    <path d="M 112.3 3 C 112.3 2.7 112.1 2.6 111.9 2.6 C 111.86 2.6 111 2.6 111 2.6 L 111 0.9 C 111 0.9 113.02 0.88 113 0.9 C 113.9 0.9 114.3 1.3 114.3 2.2 C 114.3 2.16 114.3 7.1 114.3 7.1 L 121.5 7.1 C 121.5 7.1 121.48 2.16 121.5 2.2 C 121.5 1.3 121.9 0.9 122.8 0.9 C 122.76 0.88 124.8 0.9 124.8 0.9 L 124.8 2.6 C 124.8 2.6 123.92 2.6 123.9 2.6 C 123.6 2.6 123.5 2.7 123.5 3 C 123.48 3.04 123.5 15 123.5 15 L 121.5 15 L 121.5 8.8 L 114.3 8.8 L 114.3 15 L 112.3 15 C 112.3 15 112.3 3.04 112.3 3 Z M 131.6 4.6 C 134.6 4.6 137.1 6.9 137.1 9.9 C 137.1 13 134.6 15.2 131.6 15.2 C 128.6 15.2 126.2 13 126.2 9.9 C 126.2 6.9 128.6 4.6 131.6 4.6 Z M 131.6 13.6 C 133.5 13.6 135.1 12 135.1 9.9 C 135.1 7.8 133.5 6.3 131.6 6.3 C 129.7 6.3 128.1 7.8 128.1 9.9 C 128.1 12 129.7 13.6 131.6 13.6 Z M 139.5 7 C 139.5 6.7 139.3 6.5 139 6.5 C 139.04 6.54 138.2 6.5 138.2 6.5 L 138.2 4.9 C 138.2 4.9 140.06 4.88 140.1 4.9 C 140.9 4.9 141.4 5.2 141.4 6.1 C 141.4 6.1 141.4 6.7 141.4 6.7 C 141.36 7.1 141.3 7.4 141.3 7.4 C 141.3 7.4 141.36 7.4 141.4 7.4 C 141.8 5.9 143 4.8 144.6 4.8 C 144.82 4.76 145.1 4.8 145.1 4.8 L 145.1 6.7 C 145.1 6.7 144.82 6.66 144.5 6.7 C 143.3 6.7 142.1 7.5 141.7 9 C 141.5 9.6 141.4 10.2 141.4 10.9 C 141.42 10.86 141.4 15 141.4 15 L 139.5 15 C 139.5 15 139.48 6.98 139.5 7 Z M 147.4 7 C 147.4 6.7 147.2 6.5 146.9 6.5 C 146.92 6.54 146.1 6.5 146.1 6.5 L 146.1 4.9 C 146.1 4.9 147.96 4.88 148 4.9 C 148.8 4.9 149.2 5.3 149.2 6 C 149.2 6 149.2 6.4 149.2 6.4 C 149.24 6.7 149.2 7 149.2 7 C 149.2 7 149.26 6.96 149.3 7 C 149.7 5.8 151.1 4.6 152.7 4.6 C 154.4 4.6 155.4 5.4 155.8 6.9 C 155.8 6.9 155.8 6.9 155.8 6.9 C 156.4 5.7 157.8 4.6 159.4 4.6 C 161.7 4.6 162.7 5.9 162.7 8.5 C 162.7 8.5 162.7 12.9 162.7 12.9 C 162.7 13.2 162.9 13.3 163.2 13.3 C 163.18 13.34 164 13.3 164 13.3 L 164 15 C 164 15 162.08 15 162.1 15 C 161.2 15 160.8 14.6 160.8 13.7 C 160.8 13.7 160.8 8.9 160.8 8.9 C 160.8 7.5 160.5 6.4 159 6.4 C 157.6 6.4 156.5 7.6 156.2 9 C 156.1 9.4 156 9.9 156 10.4 C 156.02 10.38 156 15 156 15 L 154.1 15 C 154.1 15 154.08 8.94 154.1 8.9 C 154.1 7.6 153.9 6.4 152.3 6.4 C 150.9 6.4 149.8 7.6 149.4 9.1 C 149.3 9.5 149.3 9.9 149.3 10.4 C 149.3 10.38 149.3 15 149.3 15 L 147.4 15 C 147.4 15 147.36 6.98 147.4 7 Z M 170.6 4.6 C 173.6 4.6 176 6.9 176 9.9 C 176 13 173.6 15.2 170.6 15.2 C 167.5 15.2 165.1 13 165.1 9.9 C 165.1 6.9 167.5 4.6 170.6 4.6 Z M 170.6 13.6 C 172.5 13.6 174 12 174 9.9 C 174 7.8 172.5 6.3 170.6 6.3 C 168.7 6.3 167.1 7.8 167.1 9.9 C 167.1 12 168.7 13.6 170.6 13.6 Z M 178.4 7 C 178.4 6.7 178.3 6.5 178 6.5 C 178 6.54 177.2 6.5 177.2 6.5 L 177.2 4.9 C 177.2 4.9 179.04 4.88 179 4.9 C 179.9 4.9 180.3 5.3 180.3 6 C 180.3 6 180.3 6.4 180.3 6.4 C 180.32 6.7 180.3 7 180.3 7 C 180.3 7 180.32 6.96 180.3 7 C 180.7 6.1 181.9 4.6 184.1 4.6 C 186.5 4.6 187.6 5.9 187.6 8.5 C 187.6 8.5 187.6 12.9 187.6 12.9 C 187.6 13.2 187.8 13.3 188 13.3 C 188.04 13.34 188.9 13.3 188.9 13.3 L 188.9 15 C 188.9 15 186.94 15 186.9 15 C 186 15 185.7 14.6 185.7 13.7 C 185.7 13.7 185.7 9 185.7 9 C 185.7 7.5 185.4 6.4 183.8 6.4 C 182.2 6.4 181 7.4 180.6 8.9 C 180.4 9.3 180.4 9.8 180.4 10.3 C 180.38 10.26 180.4 15 180.4 15 L 178.4 15 C 178.4 15 178.44 6.98 178.4 7 Z M 196.1 8.7 C 196.1 8.7 196.5 8.7 196.5 8.7 C 196.5 8.7 196.54 8.6 196.5 8.6 C 196.5 6.8 195.9 6.2 194.3 6.2 C 193.8 6.2 192.6 6.3 192.6 7 C 192.64 6.96 192.6 7.5 192.6 7.5 L 190.8 7.5 C 190.8 7.5 190.82 6.54 190.8 6.5 C 190.8 4.9 193.3 4.6 194.3 4.6 C 197.6 4.6 198.5 6.4 198.5 8.6 C 198.5 8.6 198.5 12.9 198.5 12.9 C 198.5 13.2 198.6 13.3 198.9 13.3 C 198.92 13.34 199.7 13.3 199.7 13.3 L 199.7 15 C 199.7 15 197.92 15 197.9 15 C 197 15 196.7 14.6 196.7 13.8 C 196.66 13.5 196.7 13.2 196.7 13.2 L 196.7 13.2 C 196.7 13.2 195.86 15.24 193.4 15.2 C 191.7 15.2 190 14.2 190 12.2 C 190 8.9 194.4 8.7 196.1 8.7 Z M 193.9 13.7 C 195.5 13.7 196.6 12 196.6 10.5 C 196.56 10.46 196.6 10.1 196.6 10.1 C 196.6 10.1 196.06 10.12 196.1 10.1 C 194.6 10.1 192 10.2 192 12.1 C 192 12.9 192.6 13.7 193.9 13.7 Z M 195.2 0.9 L 197.2 0.9 L 195.3 3.4 L 193.8 3.4 L 195.2 0.9 Z M 201.8 3 C 201.8 2.7 201.6 2.5 201.4 2.5 C 201.36 2.54 200.5 2.5 200.5 2.5 L 200.5 0.9 C 200.5 0.9 202.46 0.88 202.5 0.9 C 203.4 0.9 203.7 1.3 203.7 2.2 C 203.7 2.2 203.7 12.9 203.7 12.9 C 203.7 13.2 203.9 13.3 204.2 13.3 C 204.18 13.34 205 13.3 205 13.3 L 205 15 C 205 15 203.08 15 203.1 15 C 202.2 15 201.8 14.6 201.8 13.7 C 201.8 13.7 201.8 3 201.8 3 Z M 207.2 7 C 207.2 6.7 207 6.5 206.8 6.5 C 206.76 6.54 205.9 6.5 205.9 6.5 L 205.9 4.9 C 205.9 4.9 207.8 4.88 207.8 4.9 C 208.7 4.9 209.1 5.3 209.1 6 C 209.1 6 209.1 6.4 209.1 6.4 C 209.08 6.7 209 7 209 7 C 209 7 209.08 6.96 209.1 7 C 209.5 6.1 210.7 4.6 212.9 4.6 C 215.3 4.6 216.4 5.9 216.4 8.5 C 216.4 8.5 216.4 12.9 216.4 12.9 C 216.4 13.2 216.5 13.3 216.8 13.3 C 216.8 13.34 217.6 13.3 217.6 13.3 L 217.6 15 C 217.6 15 215.7 15 215.7 15 C 214.8 15 214.4 14.6 214.4 13.7 C 214.4 13.7 214.4 9 214.4 9 C 214.4 7.5 214.1 6.4 212.5 6.4 C 211 6.4 209.7 7.4 209.3 8.9 C 209.2 9.3 209.1 9.8 209.1 10.3 C 209.14 10.26 209.1 15 209.1 15 L 207.2 15 C 207.2 15 207.2 6.98 207.2 7 Z M 224.9 8.7 C 224.86 8.7 225.3 8.7 225.3 8.7 C 225.3 8.7 225.3 8.6 225.3 8.6 C 225.3 6.8 224.6 6.2 223.1 6.2 C 222.6 6.2 221.4 6.3 221.4 7 C 221.4 6.96 221.4 7.5 221.4 7.5 L 219.6 7.5 C 219.6 7.5 219.58 6.54 219.6 6.5 C 219.6 4.9 222.1 4.6 223.1 4.6 C 226.4 4.6 227.2 6.4 227.2 8.6 C 227.2 8.6 227.2 12.9 227.2 12.9 C 227.2 13.2 227.4 13.3 227.7 13.3 C 227.68 13.34 228.5 13.3 228.5 13.3 L 228.5 15 C 228.5 15 226.68 15 226.7 15 C 225.8 15 225.4 14.6 225.4 13.8 C 225.42 13.5 225.5 13.2 225.5 13.2 L 225.4 13.2 C 225.4 13.2 224.62 15.24 222.2 15.2 C 220.5 15.2 218.8 14.2 218.8 12.2 C 218.8 8.9 223.2 8.7 224.9 8.7 Z M 222.6 13.7 C 224.3 13.7 225.3 12 225.3 10.5 C 225.32 10.46 225.3 10.1 225.3 10.1 C 225.3 10.1 224.82 10.12 224.8 10.1 C 223.4 10.1 220.7 10.2 220.7 12.1 C 220.7 12.9 221.3 13.7 222.6 13.7 Z M 241.1 8.7 C 241.12 8.7 241.6 8.7 241.6 8.7 C 241.6 8.7 241.56 8.6 241.6 8.6 C 241.6 6.8 240.9 6.2 239.3 6.2 C 238.8 6.2 237.7 6.3 237.7 7 C 237.66 6.96 237.7 7.5 237.7 7.5 L 235.8 7.5 C 235.8 7.5 235.84 6.54 235.8 6.5 C 235.8 4.9 238.4 4.6 239.3 4.6 C 242.6 4.6 243.5 6.4 243.5 8.6 C 243.5 8.6 243.5 12.9 243.5 12.9 C 243.5 13.2 243.7 13.3 243.9 13.3 C 243.94 13.34 244.8 13.3 244.8 13.3 L 244.8 15 C 244.8 15 242.94 15 242.9 15 C 242 15 241.7 14.6 241.7 13.8 C 241.68 13.5 241.7 13.2 241.7 13.2 L 241.7 13.2 C 241.7 13.2 240.88 15.24 238.5 15.2 C 236.7 15.2 235 14.2 235 12.2 C 235 8.9 239.4 8.7 241.1 8.7 Z M 238.9 13.7 C 240.5 13.7 241.6 12 241.6 10.5 C 241.58 10.46 241.6 10.1 241.6 10.1 C 241.6 10.1 241.08 10.12 241.1 10.1 C 239.6 10.1 237 10.2 237 12.1 C 237 12.9 237.6 13.7 238.9 13.7 Z M 246.9 7 C 246.9 6.7 246.7 6.5 246.4 6.5 C 246.42 6.54 245.6 6.5 245.6 6.5 L 245.6 4.9 C 245.6 4.9 247.46 4.88 247.5 4.9 C 248.3 4.9 248.7 5.3 248.7 6 C 248.7 6 248.7 6.4 248.7 6.4 C 248.74 6.7 248.7 7 248.7 7 C 248.7 7 248.74 6.96 248.7 7 C 249.1 6.1 250.3 4.6 252.5 4.6 C 254.9 4.6 256 5.9 256 8.5 C 256 8.5 256 12.9 256 12.9 C 256 13.2 256.2 13.3 256.5 13.3 C 256.46 13.34 257.3 13.3 257.3 13.3 L 257.3 15 C 257.3 15 255.36 15 255.4 15 C 254.5 15 254.1 14.6 254.1 13.7 C 254.1 13.7 254.1 9 254.1 9 C 254.1 7.5 253.8 6.4 252.2 6.4 C 250.6 6.4 249.4 7.4 249 8.9 C 248.8 9.3 248.8 9.8 248.8 10.3 C 248.8 10.26 248.8 15 248.8 15 L 246.9 15 C 246.9 15 246.86 6.98 246.9 7 Z M 259.5 6.4 L 258.1 6.4 L 258.1 4.9 L 259.5 4.9 L 259.5 2.1 L 261.4 2.1 L 261.4 4.9 L 263.8 4.9 L 263.8 6.4 L 261.4 6.4 C 261.4 6.4 261.4 11.08 261.4 11.1 C 261.4 13.1 262.8 13.4 263.5 13.4 C 263.82 13.36 264 13.3 264 13.3 L 264 15 C 264 15 263.74 15.08 263.3 15.1 C 262 15.1 259.5 14.7 259.5 11.3 C 259.46 11.3 259.5 6.4 259.5 6.4 Z M 266.6 0.9 L 268.3 0.9 L 268.3 2.9 L 266.6 2.9 L 266.6 0.9 Z M 266.5 7 C 266.5 6.7 266.4 6.5 266.1 6.5 C 266.08 6.54 265.3 6.5 265.3 6.5 L 265.3 4.9 C 265.3 4.9 267.16 4.88 267.2 4.9 C 268.1 4.9 268.4 5.3 268.4 6.2 C 268.4 6.2 268.4 12.9 268.4 12.9 C 268.4 13.2 268.6 13.3 268.9 13.3 C 268.88 13.34 269.7 13.3 269.7 13.3 L 269.7 15 C 269.7 15 267.8 15 267.8 15 C 266.9 15 266.5 14.6 266.5 13.7 C 266.5 13.7 266.5 7 266.5 7 Z M 271.8 3 C 271.8 2.7 271.7 2.5 271.4 2.5 C 271.4 2.54 270.6 2.5 270.6 2.5 L 270.6 0.9 C 270.6 0.9 272.5 0.88 272.5 0.9 C 273.4 0.9 273.8 1.1 273.8 2 C 273.78 2.04 273.8 8.6 273.8 8.6 C 273.8 8.6 274.68 8.6 274.7 8.6 C 275 8.6 275.5 8.5 275.7 8.2 C 275.74 8.16 278.1 4.9 278.1 4.9 L 280.3 4.9 C 280.3 4.9 277.56 8.64 277.6 8.6 C 277.1 9.26 276.8 9.4 276.8 9.4 L 276.8 9.4 C 276.8 9.4 277.14 9.56 277.5 10.2 C 277.5 10.2 279 12.9 279 12.9 C 279.1 13.3 279.3 13.3 279.8 13.3 C 279.84 13.34 280.5 13.3 280.5 13.3 L 280.5 15 C 280.5 15 279.06 15 279.1 15 C 278.1 15 277.8 14.8 277.4 14.1 C 277.4 14.1 275.5 10.7 275.5 10.7 C 275.3 10.3 274.9 10.2 274.5 10.2 C 274.54 10.24 273.8 10.2 273.8 10.2 L 273.8 15 L 271.8 15 C 271.8 15 271.84 2.98 271.8 3 Z M 286.7 4.6 C 289.7 4.6 292.2 6.9 292.2 9.9 C 292.2 13 289.7 15.2 286.7 15.2 C 283.7 15.2 281.3 13 281.3 9.9 C 281.3 6.9 283.7 4.6 286.7 4.6 Z M 286.7 13.6 C 288.6 13.6 290.2 12 290.2 9.9 C 290.2 7.8 288.6 6.3 286.7 6.3 C 284.8 6.3 283.2 7.8 283.2 9.9 C 283.2 12 284.8 13.6 286.7 13.6 Z M 294.6 7 C 294.6 6.7 294.4 6.5 294.1 6.5 C 294.14 6.54 293.3 6.5 293.3 6.5 L 293.3 4.9 C 293.3 4.9 295.18 4.88 295.2 4.9 C 296 4.9 296.5 5.3 296.5 6 C 296.5 6 296.5 6.4 296.5 6.4 C 296.46 6.7 296.4 7 296.4 7 C 296.4 7 296.46 6.96 296.5 7 C 296.9 6.1 298.1 4.6 300.3 4.6 C 302.7 4.6 303.7 5.9 303.7 8.5 C 303.7 8.5 303.7 12.9 303.7 12.9 C 303.7 13.2 303.9 13.3 304.2 13.3 C 304.18 13.34 305 13.3 305 13.3 L 305 15 C 305 15 303.08 15 303.1 15 C 302.2 15 301.8 14.6 301.8 13.7 C 301.8 13.7 301.8 9 301.8 9 C 301.8 7.5 301.5 6.4 299.9 6.4 C 298.3 6.4 297.1 7.4 296.7 8.9 C 296.6 9.3 296.5 9.8 296.5 10.3 C 296.52 10.26 296.5 15 296.5 15 L 294.6 15 C 294.6 15 294.58 6.98 294.6 7 Z M 311.6 4.6 C 312.8 4.6 315.2 5.1 315.2 6.9 C 315.2 6.86 315.2 7.9 315.2 7.9 L 313.4 7.9 C 313.4 7.9 313.44 7.34 313.4 7.3 C 313.4 6.6 312.3 6.3 311.6 6.3 C 309.6 6.3 308.1 7.8 308.1 9.9 C 308.1 12.2 309.8 13.5 311.7 13.5 C 313.56 13.52 314.8 12.1 314.8 12.1 L 315.6 13.5 C 315.6 13.5 314.2 15.24 311.5 15.2 C 308.3 15.2 306.1 13 306.1 9.9 C 306.1 7 308.3 4.6 311.6 4.6 Z M 321.9 4.6 C 324.7 4.6 326.2 6.8 326.2 9.4 C 326.22 9.64 326.2 10.2 326.2 10.2 C 326.2 10.2 318.78 10.18 318.8 10.2 C 318.9 12.3 320.5 13.6 322.3 13.6 C 324 13.56 325.2 12.4 325.2 12.4 L 326.1 13.8 C 326.1 13.8 324.56 15.24 322.2 15.2 C 319 15.2 316.8 12.9 316.8 9.9 C 316.8 6.7 319 4.6 321.9 4.6 Z M 324.2 8.8 C 324.2 7.1 323.1 6.2 321.8 6.2 C 320.4 6.2 319.2 7.1 318.9 8.8 C 318.9 8.8 324.2 8.8 324.2 8.8 Z M 328.8 7 C 328.8 6.7 328.6 6.5 328.4 6.5 C 328.36 6.54 327.5 6.5 327.5 6.5 L 327.5 4.9 C 327.5 4.9 329.36 4.88 329.4 4.9 C 330.3 4.9 330.6 5.3 330.6 5.9 C 330.6 6.2 330.6 6.4 330.6 6.4 L 330.6 6.4 C 330.6 6.4 331.46 4.64 334 4.6 C 336.7 4.6 338.4 6.8 338.4 9.9 C 338.4 13.2 336.5 15.2 333.8 15.2 C 331.6 15.24 330.7 13.6 330.7 13.6 L 330.7 13.6 C 330.7 13.6 330.74 13.98 330.7 14.5 C 330.74 14.5 330.7 19 330.7 19 L 328.8 19 C 328.8 19 328.8 6.98 328.8 7 Z M 333.5 13.6 C 335.1 13.6 336.5 12.3 336.5 10 C 336.5 7.8 335.3 6.3 333.6 6.3 C 332.1 6.3 330.7 7.4 330.7 10 C 330.7 11.8 331.7 13.6 333.5 13.6 Z M 345.3 4.6 C 346.6 4.6 349 5.1 349 6.9 C 348.98 6.86 349 7.9 349 7.9 L 347.2 7.9 C 347.2 7.9 347.22 7.34 347.2 7.3 C 347.2 6.6 346.1 6.3 345.3 6.3 C 343.4 6.3 341.9 7.8 341.9 9.9 C 341.9 12.2 343.6 13.5 345.4 13.5 C 347.34 13.52 348.6 12.1 348.6 12.1 L 349.4 13.5 C 349.4 13.5 347.98 15.24 345.3 15.2 C 342.1 15.2 339.9 13 339.9 9.9 C 339.9 7 342.1 4.6 345.3 4.6 Z M 351.7 0.9 L 353.4 0.9 L 353.4 2.9 L 351.7 2.9 L 351.7 0.9 Z M 351.6 7 C 351.6 6.7 351.5 6.5 351.2 6.5 C 351.2 6.54 350.4 6.5 350.4 6.5 L 350.4 4.9 C 350.4 4.9 352.28 4.88 352.3 4.9 C 353.2 4.9 353.6 5.3 353.6 6.2 C 353.6 6.2 353.6 12.9 353.6 12.9 C 353.6 13.2 353.7 13.3 354 13.3 C 354 13.34 354.8 13.3 354.8 13.3 L 354.8 15 C 354.8 15 352.92 15 352.9 15 C 352 15 351.6 14.6 351.6 13.7 C 351.6 13.7 351.6 7 351.6 7 Z M 362.2 8.7 C 362.18 8.7 362.6 8.7 362.6 8.7 C 362.6 8.7 362.62 8.6 362.6 8.6 C 362.6 6.8 362 6.2 360.4 6.2 C 359.9 6.2 358.7 6.3 358.7 7 C 358.72 6.96 358.7 7.5 358.7 7.5 L 356.9 7.5 C 356.9 7.5 356.9 6.54 356.9 6.5 C 356.9 4.9 359.4 4.6 360.4 4.6 C 363.7 4.6 364.6 6.4 364.6 8.6 C 364.6 8.6 364.6 12.9 364.6 12.9 C 364.6 13.2 364.7 13.3 365 13.3 C 365 13.34 365.8 13.3 365.8 13.3 L 365.8 15 C 365.8 15 364 15 364 15 C 363.1 15 362.7 14.6 362.7 13.8 C 362.74 13.5 362.8 13.2 362.8 13.2 L 362.7 13.2 C 362.7 13.2 361.94 15.24 359.5 15.2 C 357.8 15.2 356.1 14.2 356.1 12.2 C 356.1 8.9 360.5 8.7 362.2 8.7 Z M 359.9 13.7 C 361.6 13.7 362.6 12 362.6 10.5 C 362.64 10.46 362.6 10.1 362.6 10.1 C 362.6 10.1 362.14 10.12 362.1 10.1 C 360.7 10.1 358 10.2 358 12.1 C 358 12.9 358.7 13.7 359.9 13.7 Z M 373.7 2.6 L 372.4 2.6 L 372.4 0.9 C 372.4 0.9 378.08 0.88 378.1 0.9 C 382.4 0.9 385.2 3.5 385.2 7.9 C 385.2 12.4 382.4 15 378.1 15 C 378.1 15 374.9 15 374.9 15 C 374 15 373.7 14.6 373.7 13.7 C 373.66 13.72 373.7 2.6 373.7 2.6 Z M 376.1 13.3 C 376.1 13.3 377.9 13.3 377.9 13.3 C 381.1 13.3 383.1 11.4 383.1 7.9 C 383.1 4.5 381.1 2.6 377.9 2.6 C 377.94 2.6 375.7 2.6 375.7 2.6 C 375.7 2.6 375.66 12.84 375.7 12.8 C 375.7 13.1 375.8 13.3 376.1 13.3 Z M 387.7 7 C 387.7 6.7 387.6 6.5 387.3 6.5 C 387.3 6.54 386.5 6.5 386.5 6.5 L 386.5 4.9 C 386.5 4.9 388.32 4.88 388.3 4.9 C 389.2 4.9 389.6 5.2 389.6 6.1 C 389.6 6.1 389.6 6.7 389.6 6.7 C 389.62 7.1 389.6 7.4 389.6 7.4 C 389.6 7.4 389.62 7.4 389.6 7.4 C 390.1 5.9 391.3 4.8 392.8 4.8 C 393.08 4.76 393.3 4.8 393.3 4.8 L 393.3 6.7 C 393.3 6.7 393.08 6.66 392.8 6.7 C 391.5 6.7 390.4 7.5 389.9 9 C 389.7 9.6 389.7 10.2 389.7 10.9 C 389.68 10.86 389.7 15 389.7 15 L 387.7 15 C 387.7 15 387.74 6.98 387.7 7 Z M 399.5 4.6 C 402.6 4.6 405 6.9 405 9.9 C 405 13 402.6 15.2 399.5 15.2 C 396.5 15.2 394.1 13 394.1 9.9 C 394.1 6.9 396.5 4.6 399.5 4.6 Z M 399.5 13.6 C 401.5 13.6 403 12 403 9.9 C 403 7.8 401.5 6.3 399.5 6.3 C 397.6 6.3 396.1 7.8 396.1 9.9 C 396.1 12 397.6 13.6 399.5 13.6 Z M 406.6 6.9 C 406.5 6.6 406.3 6.5 406 6.5 C 405.98 6.54 405.8 6.5 405.8 6.5 L 405.8 4.9 C 405.8 4.9 406.78 4.88 406.8 4.9 C 407.7 4.9 408 5.1 408.3 5.9 C 408.3 5.9 410.5 11.7 410.5 11.7 C 410.7 12.28 410.9 13 410.9 13 L 410.9 13 C 410.9 13 411.06 12.28 411.3 11.7 C 411.3 11.7 413.4 5.9 413.4 5.9 C 413.7 5.1 414.1 4.9 415 4.9 C 414.96 4.88 415.9 4.9 415.9 4.9 L 415.9 6.5 C 415.9 6.5 415.7 6.54 415.7 6.5 C 415.4 6.5 415.2 6.6 415 6.9 C 415.04 6.94 412 15 412 15 L 409.7 15 C 409.7 15 406.6 6.94 406.6 6.9 Z M 421.8 4.6 C 424.6 4.6 426.1 6.8 426.1 9.4 C 426.12 9.64 426.1 10.2 426.1 10.2 C 426.1 10.2 418.68 10.18 418.7 10.2 C 418.8 12.3 420.4 13.6 422.2 13.6 C 423.9 13.56 425.1 12.4 425.1 12.4 L 426 13.8 C 426 13.8 424.46 15.24 422.1 15.2 C 418.9 15.2 416.7 12.9 416.7 9.9 C 416.7 6.7 418.9 4.6 421.8 4.6 Z M 424.1 8.8 C 424.1 7.1 423 6.2 421.7 6.2 C 420.3 6.2 419.1 7.1 418.8 8.8 C 418.8 8.8 424.1 8.8 424.1 8.8 Z M 428.7 3 C 428.7 2.7 428.5 2.5 428.2 2.5 C 428.22 2.54 427.4 2.5 427.4 2.5 L 427.4 0.9 C 427.4 0.9 429.32 0.88 429.3 0.9 C 430.2 0.9 430.6 1.3 430.6 2.2 C 430.6 2.2 430.6 12.9 430.6 12.9 C 430.6 13.2 430.8 13.3 431 13.3 C 431.04 13.34 431.9 13.3 431.9 13.3 L 431.9 15 C 431.9 15 429.94 15 429.9 15 C 429 15 428.7 14.6 428.7 13.7 C 428.7 13.7 428.7 3 428.7 3 Z M 434.2 0.9 L 435.9 0.9 L 435.9 2.9 L 434.2 2.9 L 434.2 0.9 Z M 434.2 7 C 434.2 6.7 434 6.5 433.7 6.5 C 433.72 6.54 432.9 6.5 432.9 6.5 L 432.9 4.9 C 432.9 4.9 434.8 4.88 434.8 4.9 C 435.7 4.9 436.1 5.3 436.1 6.2 C 436.1 6.2 436.1 12.9 436.1 12.9 C 436.1 13.2 436.2 13.3 436.5 13.3 C 436.52 13.34 437.3 13.3 437.3 13.3 L 437.3 15 C 437.3 15 435.44 15 435.4 15 C 434.5 15 434.2 14.6 434.2 13.7 C 434.2 13.7 434.2 7 434.2 7 Z M 439.4 12.2 C 439.4 12.2 440.6 13.66 442.5 13.7 C 443.4 13.7 444.2 13.2 444.2 12.4 C 444.2 10.5 438.7 10.7 438.7 7.5 C 438.7 5.5 440.4 4.6 442.5 4.6 C 443.7 4.6 445.8 5.1 445.8 6.6 C 445.78 6.6 445.8 7.6 445.8 7.6 L 444 7.6 C 444 7.6 444.04 7.06 444 7.1 C 444 6.5 443.1 6.2 442.5 6.2 C 441.4 6.2 440.6 6.6 440.6 7.4 C 440.6 9.3 446.2 8.9 446.2 12.3 C 446.2 14.1 444.6 15.2 442.4 15.2 C 439.74 15.24 438.4 13.5 438.4 13.5 L 439.4 12.2 Z M 457.4 0.1 L 459.1 0.1 L 454.1 15.8 L 452.3 15.8 L 457.4 0.1 Z M 470.4 4.6 C 473.3 4.6 474.8 6.8 474.8 9.4 C 474.78 9.64 474.7 10.2 474.7 10.2 C 474.7 10.2 467.34 10.18 467.3 10.2 C 467.5 12.3 469 13.6 470.8 13.6 C 472.56 13.56 473.8 12.4 473.8 12.4 L 474.6 13.8 C 474.6 13.8 473.12 15.24 470.7 15.2 C 467.5 15.2 465.3 12.9 465.3 9.9 C 465.3 6.7 467.5 4.6 470.4 4.6 Z M 472.8 8.8 C 472.7 7.1 471.7 6.2 470.4 6.2 C 468.9 6.2 467.7 7.1 467.4 8.8 C 467.4 8.8 472.8 8.8 472.8 8.8 Z M 477.3 7 C 477.3 6.7 477.2 6.5 476.9 6.5 C 476.88 6.54 476.1 6.5 476.1 6.5 L 476.1 4.9 C 476.1 4.9 477.96 4.88 478 4.9 C 478.9 4.9 479.3 5.3 479.3 6.1 C 479.3 6.1 479.3 10.9 479.3 10.9 C 479.3 12.3 479.5 13.4 481.1 13.4 C 483.2 13.4 484.4 11.6 484.4 9.6 C 484.44 9.62 484.4 4.9 484.4 4.9 L 486.4 4.9 C 486.4 4.9 486.38 12.9 486.4 12.9 C 486.4 13.2 486.5 13.3 486.8 13.3 C 486.82 13.34 487.6 13.3 487.6 13.3 L 487.6 15 C 487.6 15 485.78 15 485.8 15 C 484.9 15 484.5 14.6 484.5 13.9 C 484.5 13.9 484.5 13.5 484.5 13.5 C 484.5 13.18 484.5 12.9 484.5 12.9 C 484.5 12.9 484.48 12.92 484.5 12.9 C 484.1 13.9 482.8 15.2 480.8 15.2 C 478.5 15.2 477.3 14 477.3 11.4 C 477.3 11.4 477.3 7 477.3 7 Z M 489.8 7 C 489.8 6.7 489.6 6.5 489.3 6.5 C 489.34 6.54 488.5 6.5 488.5 6.5 L 488.5 4.9 C 488.5 4.9 490.36 4.88 490.4 4.9 C 491.2 4.9 491.7 5.2 491.7 6.1 C 491.7 6.1 491.7 6.7 491.7 6.7 C 491.66 7.1 491.6 7.4 491.6 7.4 C 491.6 7.4 491.66 7.4 491.7 7.4 C 492.1 5.9 493.3 4.8 494.9 4.8 C 495.12 4.76 495.4 4.8 495.4 4.8 L 495.4 6.7 C 495.4 6.7 495.12 6.66 494.8 6.7 C 493.6 6.7 492.4 7.5 492 9 C 491.8 9.6 491.7 10.2 491.7 10.9 C 491.72 10.86 491.7 15 491.7 15 L 489.8 15 C 489.8 15 489.78 6.98 489.8 7 Z M 501.6 4.6 C 504.6 4.6 507 6.9 507 9.9 C 507 13 504.6 15.2 501.6 15.2 C 498.6 15.2 496.1 13 496.1 9.9 C 496.1 6.9 498.6 4.6 501.6 4.6 Z M 501.6 13.6 C 503.5 13.6 505.1 12 505.1 9.9 C 505.1 7.8 503.5 6.3 501.6 6.3 C 499.7 6.3 498.1 7.8 498.1 9.9 C 498.1 12 499.7 13.6 501.6 13.6 Z M 502.3 0.9 L 504.2 0.9 L 502.3 3.4 L 500.8 3.4 L 502.3 0.9 Z M 509.5 7 C 509.5 6.7 509.3 6.5 509 6.5 C 509.02 6.54 508.2 6.5 508.2 6.5 L 508.2 4.9 C 508.2 4.9 510.02 4.88 510 4.9 C 510.9 4.9 511.3 5.3 511.3 5.9 C 511.26 6.2 511.2 6.4 511.2 6.4 L 511.3 6.4 C 511.3 6.4 512.12 4.64 514.6 4.6 C 517.4 4.6 519.1 6.8 519.1 9.9 C 519.1 13.2 517.1 15.2 514.5 15.2 C 512.26 15.24 511.4 13.6 511.4 13.6 L 511.4 13.6 C 511.4 13.6 511.4 13.98 511.4 14.5 C 511.4 14.5 511.4 19 511.4 19 L 509.5 19 C 509.5 19 509.46 6.98 509.5 7 Z M 514.2 13.6 C 515.8 13.6 517.1 12.3 517.1 10 C 517.1 7.8 515.9 6.3 514.3 6.3 C 512.8 6.3 511.3 7.4 511.3 10 C 511.3 11.8 512.3 13.6 514.2 13.6 Z M 521.4 12.2 C 521.4 12.2 522.57 13.66 524.4 13.7 C 525.4 13.7 526.2 13.2 526.2 12.4 C 526.2 10.5 520.7 10.7 520.7 7.5 C 520.7 5.5 522.4 4.6 524.4 4.6 C 525.7 4.6 527.8 5.1 527.8 6.6 C 527.75 6.6 527.8 7.6 527.8 7.6 L 526 7.6 C 526 7.6 526.01 7.06 526 7.1 C 526 6.5 525.1 6.2 524.5 6.2 C 523.4 6.2 522.6 6.6 522.6 7.4 C 522.6 9.3 528.1 8.9 528.1 12.3 C 528.1 14.1 526.5 15.2 524.4 15.2 C 521.71 15.24 520.4 13.5 520.4 13.5 L 521.4 12.2 Z M 530.5 3 C 530.5 2.7 530.4 2.5 530.1 2.5 C 530.09 2.54 529.3 2.5 529.3 2.5 L 529.3 0.9 C 529.3 0.9 531.19 0.88 531.2 0.9 C 532.1 0.9 532.5 1.1 532.5 2 C 532.47 2.04 532.5 8.6 532.5 8.6 C 532.5 8.6 533.37 8.6 533.4 8.6 C 533.7 8.6 534.2 8.5 534.4 8.2 C 534.43 8.16 536.8 4.9 536.8 4.9 L 539 4.9 C 539 4.9 536.25 8.64 536.3 8.6 C 535.79 9.26 535.5 9.4 535.5 9.4 L 535.5 9.4 C 535.5 9.4 535.83 9.56 536.2 10.2 C 536.2 10.2 537.7 12.9 537.7 12.9 C 537.8 13.3 538 13.3 538.5 13.3 C 538.53 13.34 539.2 13.3 539.2 13.3 L 539.2 15 C 539.2 15 537.75 15 537.8 15 C 536.8 15 536.5 14.8 536.1 14.1 C 536.1 14.1 534.2 10.7 534.2 10.7 C 534 10.3 533.6 10.2 533.2 10.2 C 533.23 10.24 532.5 10.2 532.5 10.2 L 532.5 15 L 530.5 15 C 530.5 15 530.53 2.98 530.5 3 Z M 546.2 8.7 C 546.15 8.7 546.6 8.7 546.6 8.7 C 546.6 8.7 546.59 8.6 546.6 8.6 C 546.6 6.8 545.9 6.2 544.4 6.2 C 543.9 6.2 542.7 6.3 542.7 7 C 542.69 6.96 542.7 7.5 542.7 7.5 L 540.9 7.5 C 540.9 7.5 540.87 6.54 540.9 6.5 C 540.9 4.9 543.4 4.6 544.4 4.6 C 547.7 4.6 548.5 6.4 548.5 8.6 C 548.5 8.6 548.5 12.9 548.5 12.9 C 548.5 13.2 548.7 13.3 549 13.3 C 548.97 13.34 549.8 13.3 549.8 13.3 L 549.8 15 C 549.8 15 547.97 15 548 15 C 547.1 15 546.7 14.6 546.7 13.8 C 546.71 13.5 546.8 13.2 546.8 13.2 L 546.7 13.2 C 546.7 13.2 545.91 15.24 543.5 15.2 C 541.8 15.2 540.1 14.2 540.1 12.2 C 540.1 8.9 544.5 8.7 546.2 8.7 Z M 543.9 13.7 C 545.6 13.7 546.6 12 546.6 10.5 C 546.61 10.46 546.6 10.1 546.6 10.1 C 546.6 10.1 546.11 10.12 546.1 10.1 C 544.7 10.1 542 10.2 542 12.1 C 542 12.9 542.6 13.7 543.9 13.7 Z M 557.1 12.2 C 557.1 12.2 558.31 13.66 560.2 13.7 C 561.1 13.7 561.9 13.2 561.9 12.4 C 561.9 10.5 556.4 10.7 556.4 7.5 C 556.4 5.5 558.1 4.6 560.2 4.6 C 561.4 4.6 563.5 5.1 563.5 6.6 C 563.49 6.6 563.5 7.6 563.5 7.6 L 561.8 7.6 C 561.8 7.6 561.75 7.06 561.8 7.1 C 561.8 6.5 560.9 6.2 560.2 6.2 C 559.1 6.2 558.4 6.6 558.4 7.4 C 558.4 9.3 563.9 8.9 563.9 12.3 C 563.9 14.1 562.3 15.2 560.2 15.2 C 557.45 15.24 556.1 13.5 556.1 13.5 L 557.1 12.2 Z M 557.4 0.9 L 559 0.9 L 560.1 2.5 L 560.1 2.5 L 561.1 0.9 L 562.7 0.9 L 561 3.4 L 559.2 3.4 L 557.4 0.9 Z M 566.4 6.4 L 565.1 6.4 L 565.1 4.9 L 566.5 4.9 L 566.5 2.1 L 568.4 2.1 L 568.4 4.9 L 570.8 4.9 L 570.8 6.4 L 568.4 6.4 C 568.4 6.4 568.37 11.08 568.4 11.1 C 568.4 13.1 569.8 13.4 570.5 13.4 C 570.79 13.36 571 13.3 571 13.3 L 571 15 C 571 15 570.71 15.08 570.3 15.1 C 569 15.1 566.4 14.7 566.4 11.3 C 566.43 11.3 566.4 6.4 566.4 6.4 Z M 573.4 7 C 573.4 6.7 573.2 6.5 572.9 6.5 C 572.91 6.54 572.1 6.5 572.1 6.5 L 572.1 4.9 C 572.1 4.9 573.99 4.88 574 4.9 C 574.9 4.9 575.3 5.3 575.3 6.1 C 575.3 6.1 575.3 10.9 575.3 10.9 C 575.3 12.3 575.6 13.4 577.2 13.4 C 579.3 13.4 580.5 11.6 580.5 9.6 C 580.47 9.62 580.5 4.9 580.5 4.9 L 582.4 4.9 C 582.4 4.9 582.41 12.9 582.4 12.9 C 582.4 13.2 582.6 13.3 582.9 13.3 C 582.85 13.34 583.7 13.3 583.7 13.3 L 583.7 15 C 583.7 15 581.81 15 581.8 15 C 581 15 580.5 14.6 580.5 13.9 C 580.5 13.9 580.5 13.5 580.5 13.5 C 580.53 13.18 580.6 12.9 580.6 12.9 C 580.6 12.9 580.51 12.92 580.5 12.9 C 580.1 13.9 578.8 15.2 576.8 15.2 C 574.5 15.2 573.4 14 573.4 11.4 C 573.4 11.4 573.4 7 573.4 7 Z M 578.5 0.9 L 580.4 0.9 L 578.5 3.4 L 577 3.4 L 578.5 0.9 Z M 589.4 4.6 C 591.77 4.64 592.6 6.2 592.6 6.2 L 592.6 6.2 C 592.6 6.2 592.55 5.9 592.6 5.5 C 592.6 5.5 592.6 3 592.6 3 C 592.6 2.7 592.4 2.5 592.1 2.5 C 592.11 2.54 591.3 2.5 591.3 2.5 L 591.3 0.9 C 591.3 0.9 593.21 0.88 593.2 0.9 C 594.1 0.9 594.5 1.3 594.5 2.2 C 594.5 2.2 594.5 12.9 594.5 12.9 C 594.5 13.2 594.7 13.3 594.9 13.3 C 594.93 13.34 595.8 13.3 595.8 13.3 L 595.8 15 C 595.8 15 593.89 15 593.9 15 C 593 15 592.7 14.6 592.7 13.9 C 592.65 13.62 592.7 13.4 592.7 13.4 L 592.6 13.4 C 592.6 13.4 591.79 15.24 589.3 15.2 C 586.6 15.2 584.9 13.1 584.9 9.9 C 584.9 6.7 586.8 4.6 589.4 4.6 Z M 592.6 9.9 C 592.6 8.1 591.7 6.3 589.7 6.3 C 588.2 6.3 586.8 7.6 586.8 9.9 C 586.8 12.1 588 13.6 589.7 13.6 C 591.2 13.6 592.6 12.5 592.6 9.9 Z M 598.1 0.9 L 599.8 0.9 L 599.8 2.9 L 598.1 2.9 L 598.1 0.9 Z M 598 7 C 598 6.7 597.9 6.5 597.6 6.5 C 597.57 6.54 596.8 6.5 596.8 6.5 L 596.8 4.9 C 596.8 4.9 598.65 4.88 598.7 4.9 C 599.6 4.9 599.9 5.3 599.9 6.2 C 599.9 6.2 599.9 12.9 599.9 12.9 C 599.9 13.2 600.1 13.3 600.4 13.3 C 600.37 13.34 601.2 13.3 601.2 13.3 L 601.2 15 C 601.2 15 599.29 15 599.3 15 C 598.4 15 598 14.6 598 13.7 C 598 13.7 598 7 598 7 Z M 608.6 8.7 C 608.55 8.7 609 8.7 609 8.7 C 609 8.7 608.99 8.6 609 8.6 C 609 6.8 608.3 6.2 606.8 6.2 C 606.3 6.2 605.1 6.3 605.1 7 C 605.09 6.96 605.1 7.5 605.1 7.5 L 603.3 7.5 C 603.3 7.5 603.27 6.54 603.3 6.5 C 603.3 4.9 605.8 4.6 606.8 4.6 C 610.1 4.6 610.9 6.4 610.9 8.6 C 610.9 8.6 610.9 12.9 610.9 12.9 C 610.9 13.2 611.1 13.3 611.4 13.3 C 611.37 13.34 612.2 13.3 612.2 13.3 L 612.2 15 C 612.2 15 610.37 15 610.4 15 C 609.5 15 609.1 14.6 609.1 13.8 C 609.11 13.5 609.2 13.2 609.2 13.2 L 609.1 13.2 C 609.1 13.2 608.31 15.24 605.9 15.2 C 604.2 15.2 602.5 14.2 602.5 12.2 C 602.5 8.9 606.9 8.7 608.6 8.7 Z M 606.3 13.7 C 608 13.7 609 12 609 10.5 C 609.01 10.46 609 10.1 609 10.1 C 609 10.1 608.51 10.12 608.5 10.1 C 607.1 10.1 604.4 10.2 604.4 12.1 C 604.4 12.9 605 13.7 606.3 13.7 Z " stroke="none" fill="#ee3078"/>  </g></svg>