<?xml version="1.0" standalone="no"?><!DOCTYPE svg PUBLIC "-//W3C//DTD SVG 1.1//EN" "http://www.w3.org/Graphics/SVG/1.1/DTD/svg11.dtd"><svg xmlns="http://www.w3.org/2000/svg" version="1.1" width="92px" height="43.5px" viewBox="0 -5 92 43.5" style="top:-5px">  <desc>Promo</desc>  <defs/>  <g id="Polygon66717">    <path d="M 3.2 3.3 L 1.3 3.3 L 1.3 1.4 C 1.3 1.4 10.17 1.41 10.2 1.4 C 13.9 1.4 16.7 3.9 16.7 7.8 C 16.7 11.7 13.9 14.2 10.2 14.2 C 10.17 14.22 5.3 14.2 5.3 14.2 L 5.3 22.5 L 3.2 22.5 L 3.2 3.3 Z M 9.9 12.4 C 12.7 12.4 14.5 10.7 14.5 7.8 C 14.5 4.9 12.7 3.3 9.9 3.3 C 9.93 3.27 5.3 3.3 5.3 3.3 L 5.3 12.4 C 5.3 12.4 9.9 12.36 9.9 12.4 Z M 19.9 9.8 C 19.9 9.4 19.6 9.2 19.2 9.2 C 19.21 9.18 18 9.2 18 9.2 L 18 7.4 C 18 7.4 20.05 7.41 20.1 7.4 C 21.3 7.4 21.9 7.9 21.9 9.1 C 21.9 9.1 21.9 10.1 21.9 10.1 C 21.88 10.77 21.8 11.3 21.8 11.3 C 21.8 11.3 21.88 11.28 21.9 11.3 C 22.6 9 24.3 7.3 26.7 7.3 C 27.07 7.26 27.5 7.4 27.5 7.4 L 27.5 9.4 C 27.5 9.4 27.1 9.3 26.7 9.3 C 24.6 9.3 23 11 22.3 13.2 C 22 14.2 21.9 15.2 21.9 16.1 C 21.91 16.14 21.9 22.5 21.9 22.5 L 19.9 22.5 C 19.9 22.5 19.87 9.84 19.9 9.8 Z M 36.6 7.1 C 41 7.1 44.6 10.4 44.6 14.9 C 44.6 19.4 41 22.9 36.6 22.9 C 32.2 22.9 28.6 19.4 28.6 14.9 C 28.6 10.4 32.2 7.1 36.6 7.1 Z M 36.6 21 C 39.8 21 42.5 18.4 42.5 14.9 C 42.5 11.5 39.8 8.9 36.6 8.9 C 33.4 8.9 30.7 11.5 30.7 14.9 C 30.7 18.4 33.4 21 36.6 21 Z M 48.3 9.8 C 48.3 9.4 48 9.2 47.6 9.2 C 47.59 9.18 46.3 9.2 46.3 9.2 L 46.3 7.4 C 46.3 7.4 48.43 7.41 48.4 7.4 C 49.7 7.4 50.3 8 50.3 9.1 C 50.3 9.1 50.3 9.8 50.3 9.8 C 50.26 10.38 50.2 10.9 50.2 10.9 C 50.2 10.9 50.26 10.86 50.3 10.9 C 51 8.8 53.4 7.1 55.7 7.1 C 58.5 7.1 60 8.3 60.4 10.8 C 60.4 10.8 60.5 10.8 60.5 10.8 C 61.3 8.8 63.5 7.1 66 7.1 C 69.7 7.1 71 9.2 71 12.9 C 71 12.9 71 20.1 71 20.1 C 71 20.5 71.3 20.7 71.7 20.7 C 71.68 20.73 72.9 20.7 72.9 20.7 L 72.9 22.5 C 72.9 22.5 70.81 22.5 70.8 22.5 C 69.5 22.5 69 22 69 20.7 C 69 20.7 69 13.4 69 13.4 C 69 10.9 68.5 8.9 65.7 8.9 C 63.4 8.9 61.5 10.9 60.9 13.2 C 60.7 13.8 60.7 14.6 60.7 15.4 C 60.67 15.36 60.7 22.5 60.7 22.5 L 58.6 22.5 C 58.6 22.5 58.63 13.41 58.6 13.4 C 58.6 11.1 58.3 8.9 55.5 8.9 C 53 8.9 51.2 11 50.5 13.4 C 50.4 14 50.3 14.7 50.3 15.4 C 50.29 15.36 50.3 22.5 50.3 22.5 L 48.3 22.5 C 48.3 22.5 48.25 9.84 48.3 9.8 Z M 82.6 7.1 C 87 7.1 90.6 10.4 90.6 14.9 C 90.6 19.4 87 22.9 82.6 22.9 C 78.2 22.9 74.7 19.4 74.7 14.9 C 74.7 10.4 78.2 7.1 82.6 7.1 Z M 82.6 21 C 85.9 21 88.5 18.4 88.5 14.9 C 88.5 11.5 85.9 8.9 82.6 8.9 C 79.4 8.9 76.8 11.5 76.8 14.9 C 76.8 18.4 79.4 21 82.6 21 Z " stroke="none" fill="#ee3078"/>  </g></svg>