<?xml version="1.0" standalone="no"?><!DOCTYPE svg PUBLIC "-//W3C//DTD SVG 1.1//EN" "http://www.w3.org/Graphics/SVG/1.1/DTD/svg11.dtd"><svg xmlns="http://www.w3.org/2000/svg" version="1.1" width="353px" height="43.5px" viewBox="0 -5 353 43.5" style="top:-5px">  <desc>Minim lny vplyv na libido</desc>  <defs/>  <g id="Polygon65849">    <path d="M 0.7 20.6 C 0.7 20.6 1.77 20.64 1.8 20.6 C 2.2 20.6 2.4 20.4 2.4 20 C 2.43 19.98 3.9 1.4 3.9 1.4 L 6 1.4 C 6 1.4 11.61 13.68 11.6 13.7 C 12.12 14.76 12.7 16.2 12.7 16.2 L 12.7 16.2 C 12.7 16.2 13.26 14.76 13.7 13.7 C 13.74 13.68 19.3 1.4 19.3 1.4 L 21.4 1.4 C 21.4 1.4 22.92 19.98 22.9 20 C 22.9 20.4 23.2 20.6 23.6 20.6 C 23.58 20.64 24.7 20.6 24.7 20.6 L 24.7 22.5 C 24.7 22.5 22.68 22.5 22.7 22.5 C 21.4 22.5 20.9 22 20.9 20.7 C 20.9 20.7 19.9 7.9 19.9 7.9 C 19.77 6.72 19.8 4.9 19.8 4.9 L 19.7 4.9 C 19.7 4.9 19.14 6.78 18.6 7.9 C 18.63 7.86 13.6 18.6 13.6 18.6 L 11.7 18.6 C 11.7 18.6 6.75 7.86 6.8 7.9 C 6.27 6.81 5.6 4.9 5.6 4.9 L 5.6 4.9 C 5.6 4.9 5.58 6.72 5.5 7.9 C 5.5 7.9 4.5 20.7 4.5 20.7 C 4.4 22 4 22.5 2.7 22.5 C 2.67 22.5 0.7 22.5 0.7 22.5 L 0.7 20.6 Z M 28 1.4 L 30 1.4 L 30 4 L 28 4 L 28 1.4 Z M 28.1 9.8 C 28.1 9.4 27.9 9.2 27.4 9.2 C 27.45 9.18 26.2 9.2 26.2 9.2 L 26.2 7.4 C 26.2 7.4 28.32 7.41 28.3 7.4 C 29.6 7.4 30.1 8 30.1 9.2 C 30.1 9.2 30.1 20.1 30.1 20.1 C 30.1 20.5 30.4 20.7 30.8 20.7 C 30.81 20.73 32.1 20.7 32.1 20.7 L 32.1 22.5 C 32.1 22.5 29.94 22.5 29.9 22.5 C 28.6 22.5 28.1 22 28.1 20.7 C 28.1 20.7 28.1 9.8 28.1 9.8 Z M 35.5 9.8 C 35.5 9.4 35.2 9.2 34.8 9.2 C 34.83 9.18 33.6 9.2 33.6 9.2 L 33.6 7.4 C 33.6 7.4 35.67 7.41 35.7 7.4 C 36.9 7.4 37.5 8 37.5 9.1 C 37.5 9.1 37.5 9.8 37.5 9.8 C 37.5 10.38 37.4 10.9 37.4 10.9 C 37.4 10.9 37.5 10.86 37.5 10.9 C 38 9.5 40 7.1 43.5 7.1 C 47.2 7.1 48.6 9.2 48.6 12.9 C 48.6 12.9 48.6 20.1 48.6 20.1 C 48.6 20.5 48.8 20.7 49.2 20.7 C 49.23 20.73 50.5 20.7 50.5 20.7 L 50.5 22.5 C 50.5 22.5 48.36 22.5 48.4 22.5 C 47.1 22.5 46.5 22 46.5 20.7 C 46.5 20.7 46.5 13.4 46.5 13.4 C 46.5 11.1 46.2 9 43.3 9 C 40.7 9 38.5 10.7 37.8 13.2 C 37.6 13.9 37.5 14.6 37.5 15.3 C 37.53 15.27 37.5 22.5 37.5 22.5 L 35.5 22.5 C 35.5 22.5 35.49 9.84 35.5 9.8 Z M 53.8 1.4 L 55.8 1.4 L 55.8 4 L 53.8 4 L 53.8 1.4 Z M 53.9 9.8 C 53.9 9.4 53.6 9.2 53.2 9.2 C 53.22 9.18 52 9.2 52 9.2 L 52 7.4 C 52 7.4 54.09 7.41 54.1 7.4 C 55.4 7.4 55.9 8 55.9 9.2 C 55.9 9.2 55.9 20.1 55.9 20.1 C 55.9 20.5 56.2 20.7 56.6 20.7 C 56.58 20.73 57.8 20.7 57.8 20.7 L 57.8 22.5 C 57.8 22.5 55.71 22.5 55.7 22.5 C 54.4 22.5 53.9 22 53.9 20.7 C 53.9 20.7 53.9 9.8 53.9 9.8 Z M 61.3 9.8 C 61.3 9.4 61 9.2 60.6 9.2 C 60.6 9.18 59.3 9.2 59.3 9.2 L 59.3 7.4 C 59.3 7.4 61.44 7.41 61.4 7.4 C 62.7 7.4 63.3 8 63.3 9.1 C 63.3 9.1 63.3 9.8 63.3 9.8 C 63.27 10.38 63.2 10.9 63.2 10.9 C 63.2 10.9 63.27 10.86 63.3 10.9 C 64 8.8 66.4 7.1 68.7 7.1 C 71.5 7.1 73 8.3 73.4 10.8 C 73.4 10.8 73.5 10.8 73.5 10.8 C 74.3 8.8 76.5 7.1 79 7.1 C 82.7 7.1 84 9.2 84 12.9 C 84 12.9 84 20.1 84 20.1 C 84 20.5 84.3 20.7 84.7 20.7 C 84.69 20.73 85.9 20.7 85.9 20.7 L 85.9 22.5 C 85.9 22.5 83.82 22.5 83.8 22.5 C 82.5 22.5 82 22 82 20.7 C 82 20.7 82 13.4 82 13.4 C 82 10.9 81.5 8.9 78.7 8.9 C 76.4 8.9 74.5 10.9 73.9 13.2 C 73.7 13.8 73.7 14.6 73.7 15.4 C 73.68 15.36 73.7 22.5 73.7 22.5 L 71.6 22.5 C 71.6 22.5 71.64 13.41 71.6 13.4 C 71.6 11.1 71.3 8.9 68.5 8.9 C 66 8.9 64.2 11 63.5 13.4 C 63.4 14 63.3 14.7 63.3 15.4 C 63.3 15.36 63.3 22.5 63.3 22.5 L 61.3 22.5 C 61.3 22.5 61.26 9.84 61.3 9.8 Z M 97 13.2 C 97.02 13.2 97.9 13.2 97.9 13.2 C 97.9 13.2 97.86 13.02 97.9 13 C 97.9 9.9 96.7 8.8 94 8.8 C 93.2 8.8 91 9 91 10.1 C 91.02 10.08 91 11 91 11 L 89.1 11 C 89.1 11 89.07 9.6 89.1 9.6 C 89.1 7.5 92.7 7.1 94 7.1 C 98.8 7.1 99.9 9.6 99.9 12.8 C 99.9 12.8 99.9 20.1 99.9 20.1 C 99.9 20.5 100.1 20.7 100.6 20.7 C 100.56 20.73 101.8 20.7 101.8 20.7 L 101.8 22.5 C 101.8 22.5 99.75 22.5 99.7 22.5 C 98.5 22.5 97.9 21.9 97.9 20.7 C 97.95 20.04 98 19.6 98 19.6 C 98 19.6 97.92 19.59 97.9 19.6 C 97.9 19.6 96.7 22.9 92.9 22.9 C 90.4 22.9 87.8 21.4 87.8 18.4 C 87.8 13.4 94.4 13.2 97 13.2 Z M 93.2 21.1 C 96.1 21.1 97.9 18.1 97.9 15.5 C 97.86 15.51 97.9 14.8 97.9 14.8 C 97.9 14.8 96.99 14.82 97 14.8 C 94.6 14.8 89.9 14.9 89.9 18.3 C 89.9 19.7 91 21.1 93.2 21.1 Z M 95.6 1.4 L 97.9 1.4 L 95.2 5 L 93.5 5 L 95.6 1.4 Z M 105 3.8 C 105 3.4 104.8 3.2 104.4 3.2 C 104.37 3.18 103.1 3.2 103.1 3.2 L 103.1 1.4 C 103.1 1.4 105.24 1.41 105.2 1.4 C 106.5 1.4 107.1 2 107.1 3.2 C 107.1 3.2 107.1 20.1 107.1 20.1 C 107.1 20.5 107.3 20.7 107.7 20.7 C 107.73 20.73 109 20.7 109 20.7 L 109 22.5 C 109 22.5 106.86 22.5 106.9 22.5 C 105.6 22.5 105 22 105 20.7 C 105 20.7 105 3.8 105 3.8 Z M 112.4 9.8 C 112.4 9.4 112.2 9.2 111.7 9.2 C 111.75 9.18 110.5 9.2 110.5 9.2 L 110.5 7.4 C 110.5 7.4 112.59 7.41 112.6 7.4 C 113.8 7.4 114.4 8 114.4 9.1 C 114.4 9.1 114.4 9.8 114.4 9.8 C 114.42 10.38 114.4 10.9 114.4 10.9 C 114.4 10.9 114.42 10.86 114.4 10.9 C 115 9.5 116.9 7.1 120.4 7.1 C 124.2 7.1 125.5 9.2 125.5 12.9 C 125.5 12.9 125.5 20.1 125.5 20.1 C 125.5 20.5 125.7 20.7 126.1 20.7 C 126.15 20.73 127.4 20.7 127.4 20.7 L 127.4 22.5 C 127.4 22.5 125.28 22.5 125.3 22.5 C 124 22.5 123.4 22 123.4 20.7 C 123.4 20.7 123.4 13.4 123.4 13.4 C 123.4 11.1 123.1 9 120.2 9 C 117.6 9 115.4 10.7 114.7 13.2 C 114.5 13.9 114.4 14.6 114.4 15.3 C 114.45 15.27 114.4 22.5 114.4 22.5 L 112.4 22.5 C 112.4 22.5 112.41 9.84 112.4 9.8 Z M 131.1 27 C 132.4 27 133.3 25.9 133.9 24.5 C 133.92 24.51 134.8 22.4 134.8 22.4 C 134.8 22.4 129.51 9.87 129.5 9.9 C 129.3 9.3 129 9.2 128.5 9.2 C 128.46 9.18 128.2 9.2 128.2 9.2 L 128.2 7.4 C 128.2 7.4 129.09 7.41 129.1 7.4 C 130.4 7.4 130.9 7.7 131.4 9.1 C 131.4 9.1 135.3 18.5 135.3 18.5 C 135.57 19.23 135.8 20.1 135.8 20.1 L 135.9 20.1 C 135.9 20.1 136.08 19.23 136.4 18.5 C 136.4 18.5 140.1 9.1 140.1 9.1 C 140.6 7.7 141.1 7.4 142.4 7.4 C 142.44 7.41 143.4 7.4 143.4 7.4 L 143.4 9.2 C 143.4 9.2 143.07 9.18 143.1 9.2 C 142.5 9.2 142.2 9.3 142 9.9 C 142 9.9 135.5 25.6 135.5 25.6 C 134.7 27.6 133.2 28.8 131.2 28.8 C 129.09 28.8 127.9 27.3 127.9 27.3 C 127.9 27.3 128.88 25.83 128.9 25.8 C 128.9 25.9 129.8 27 131.1 27 Z M 153.7 9.9 C 153.5 9.3 153.2 9.2 152.7 9.2 C 152.7 9.18 152.4 9.2 152.4 9.2 L 152.4 7.4 C 152.4 7.4 153.24 7.41 153.2 7.4 C 154.7 7.4 155.1 7.7 155.6 9.1 C 155.6 9.1 159.3 18.5 159.3 18.5 C 159.54 19.23 159.8 20.3 159.8 20.3 L 159.8 20.3 C 159.8 20.3 160.08 19.23 160.3 18.5 C 160.3 18.5 164 9.1 164 9.1 C 164.5 7.7 164.9 7.4 166.3 7.4 C 166.35 7.41 167.1 7.4 167.1 7.4 L 167.1 9.2 C 167.1 9.2 166.86 9.18 166.9 9.2 C 166.3 9.2 166 9.3 165.8 9.9 C 165.81 9.87 160.9 22.5 160.9 22.5 L 158.7 22.5 C 158.7 22.5 153.75 9.87 153.7 9.9 Z M 170.2 9.8 C 170.2 9.4 169.9 9.2 169.5 9.2 C 169.5 9.18 168.2 9.2 168.2 9.2 L 168.2 7.4 C 168.2 7.4 170.31 7.41 170.3 7.4 C 171.6 7.4 172.1 8 172.1 9 C 172.11 9.6 172.1 10 172.1 10 L 172.1 10 C 172.1 10 173.34 7.05 177.3 7.1 C 181.4 7.1 183.9 10.3 183.9 15 C 183.9 19.7 181 22.9 177.1 22.9 C 173.46 22.86 172.2 20 172.2 20 L 172.1 20 C 172.1 20 172.2 20.55 172.2 21.3 C 172.2 21.33 172.2 28.5 172.2 28.5 L 170.2 28.5 C 170.2 28.5 170.16 9.84 170.2 9.8 Z M 176.9 21.1 C 179.6 21.1 181.8 18.8 181.8 15 C 181.8 11.3 179.8 8.9 177 8.9 C 174.5 8.9 172.1 10.7 172.1 15 C 172.1 18 173.8 21.1 176.9 21.1 Z M 187.5 3.8 C 187.5 3.4 187.2 3.2 186.8 3.2 C 186.81 3.18 185.5 3.2 185.5 3.2 L 185.5 1.4 C 185.5 1.4 187.68 1.41 187.7 1.4 C 189 1.4 189.5 2 189.5 3.2 C 189.5 3.2 189.5 20.1 189.5 20.1 C 189.5 20.5 189.7 20.7 190.2 20.7 C 190.17 20.73 191.4 20.7 191.4 20.7 L 191.4 22.5 C 191.4 22.5 189.3 22.5 189.3 22.5 C 188 22.5 187.5 22 187.5 20.7 C 187.5 20.7 187.5 3.8 187.5 3.8 Z M 195.7 27 C 197 27 197.9 25.9 198.5 24.5 C 198.48 24.51 199.4 22.4 199.4 22.4 C 199.4 22.4 194.07 9.87 194.1 9.9 C 193.8 9.3 193.6 9.2 193 9.2 C 193.02 9.18 192.7 9.2 192.7 9.2 L 192.7 7.4 C 192.7 7.4 193.65 7.41 193.6 7.4 C 195 7.4 195.4 7.7 196 9.1 C 196 9.1 199.8 18.5 199.8 18.5 C 200.13 19.23 200.4 20.1 200.4 20.1 L 200.4 20.1 C 200.4 20.1 200.64 19.23 200.9 18.5 C 200.9 18.5 204.7 9.1 204.7 9.1 C 205.2 7.7 205.6 7.4 207 7.4 C 207 7.41 207.9 7.4 207.9 7.4 L 207.9 9.2 C 207.9 9.2 207.63 9.18 207.6 9.2 C 207.1 9.2 206.8 9.3 206.6 9.9 C 206.6 9.9 200.1 25.6 200.1 25.6 C 199.3 27.6 197.8 28.8 195.7 28.8 C 193.65 28.8 192.5 27.3 192.5 27.3 C 192.5 27.3 193.44 25.83 193.4 25.8 C 193.4 25.9 194.4 27 195.7 27 Z M 210.1 9.9 C 209.9 9.3 209.6 9.2 209.1 9.2 C 209.1 9.18 208.8 9.2 208.8 9.2 L 208.8 7.4 C 208.8 7.4 209.64 7.41 209.6 7.4 C 211.1 7.4 211.5 7.7 212 9.1 C 212 9.1 215.7 18.5 215.7 18.5 C 215.94 19.23 216.2 20.3 216.2 20.3 L 216.2 20.3 C 216.2 20.3 216.48 19.23 216.7 18.5 C 216.7 18.5 220.4 9.1 220.4 9.1 C 220.9 7.7 221.3 7.4 222.7 7.4 C 222.75 7.41 223.5 7.4 223.5 7.4 L 223.5 9.2 C 223.5 9.2 223.26 9.18 223.3 9.2 C 222.7 9.2 222.4 9.3 222.2 9.9 C 222.21 9.87 217.3 22.5 217.3 22.5 L 215.1 22.5 C 215.1 22.5 210.15 9.87 210.1 9.9 Z M 234.7 9.8 C 234.7 9.4 234.5 9.2 234.1 9.2 C 234.06 9.18 232.8 9.2 232.8 9.2 L 232.8 7.4 C 232.8 7.4 234.9 7.41 234.9 7.4 C 236.2 7.4 236.7 8 236.7 9.1 C 236.7 9.1 236.7 9.8 236.7 9.8 C 236.73 10.38 236.7 10.9 236.7 10.9 C 236.7 10.9 236.73 10.86 236.7 10.9 C 237.3 9.5 239.2 7.1 242.7 7.1 C 246.5 7.1 247.8 9.2 247.8 12.9 C 247.8 12.9 247.8 20.1 247.8 20.1 C 247.8 20.5 248 20.7 248.5 20.7 C 248.46 20.73 249.7 20.7 249.7 20.7 L 249.7 22.5 C 249.7 22.5 247.59 22.5 247.6 22.5 C 246.3 22.5 245.8 22 245.8 20.7 C 245.8 20.7 245.8 13.4 245.8 13.4 C 245.8 11.1 245.4 9 242.5 9 C 239.9 9 237.7 10.7 237 13.2 C 236.8 13.9 236.8 14.6 236.8 15.3 C 236.76 15.27 236.8 22.5 236.8 22.5 L 234.7 22.5 C 234.7 22.5 234.72 9.84 234.7 9.8 Z M 260.8 13.2 C 260.79 13.2 261.6 13.2 261.6 13.2 C 261.6 13.2 261.63 13.02 261.6 13 C 261.6 9.9 260.5 8.8 257.7 8.8 C 257 8.8 254.8 9 254.8 10.1 C 254.79 10.08 254.8 11 254.8 11 L 252.8 11 C 252.8 11 252.84 9.6 252.8 9.6 C 252.8 7.5 256.4 7.1 257.8 7.1 C 262.5 7.1 263.7 9.6 263.7 12.8 C 263.7 12.8 263.7 20.1 263.7 20.1 C 263.7 20.5 263.9 20.7 264.3 20.7 C 264.33 20.73 265.6 20.7 265.6 20.7 L 265.6 22.5 C 265.6 22.5 263.52 22.5 263.5 22.5 C 262.2 22.5 261.7 21.9 261.7 20.7 C 261.72 20.04 261.7 19.6 261.7 19.6 C 261.7 19.6 261.69 19.59 261.7 19.6 C 261.7 19.6 260.5 22.9 256.7 22.9 C 254.2 22.9 251.5 21.4 251.5 18.4 C 251.5 13.4 258.2 13.2 260.8 13.2 Z M 257 21.1 C 259.9 21.1 261.6 18.1 261.6 15.5 C 261.63 15.51 261.6 14.8 261.6 14.8 C 261.6 14.8 260.76 14.82 260.8 14.8 C 258.4 14.8 253.6 14.9 253.6 18.3 C 253.6 19.7 254.8 21.1 257 21.1 Z M 277 3.8 C 277 3.4 276.7 3.2 276.3 3.2 C 276.29 3.18 275 3.2 275 3.2 L 275 1.4 C 275 1.4 277.16 1.41 277.2 1.4 C 278.5 1.4 279 2 279 3.2 C 279 3.2 279 20.1 279 20.1 C 279 20.5 279.2 20.7 279.7 20.7 C 279.65 20.73 280.9 20.7 280.9 20.7 L 280.9 22.5 C 280.9 22.5 278.78 22.5 278.8 22.5 C 277.5 22.5 277 22 277 20.7 C 277 20.7 277 3.8 277 3.8 Z M 284.4 1.4 L 286.4 1.4 L 286.4 4 L 284.4 4 L 284.4 1.4 Z M 284.5 9.8 C 284.5 9.4 284.2 9.2 283.8 9.2 C 283.82 9.18 282.6 9.2 282.6 9.2 L 282.6 7.4 C 282.6 7.4 284.69 7.41 284.7 7.4 C 286 7.4 286.5 8 286.5 9.2 C 286.5 9.2 286.5 20.1 286.5 20.1 C 286.5 20.5 286.8 20.7 287.2 20.7 C 287.18 20.73 288.4 20.7 288.4 20.7 L 288.4 22.5 C 288.4 22.5 286.31 22.5 286.3 22.5 C 285 22.5 284.5 22 284.5 20.7 C 284.5 20.7 284.5 9.8 284.5 9.8 Z M 291.8 3.8 C 291.8 3.4 291.5 3.2 291.1 3.2 C 291.11 3.18 289.9 3.2 289.9 3.2 L 289.9 1.4 C 289.9 1.4 291.98 1.41 292 1.4 C 293.3 1.4 293.8 2 293.8 3.2 C 293.8 3.2 293.8 8.7 293.8 8.7 C 293.81 9.39 293.8 9.9 293.8 9.9 L 293.8 9.9 C 293.8 9.9 295.07 7.05 298.9 7.1 C 303 7.1 305.5 10.3 305.5 15 C 305.5 19.7 302.7 22.9 298.7 22.9 C 295.1 22.86 293.8 20 293.8 20 L 293.7 20 C 293.7 20 293.75 20.46 293.8 21.2 C 293.75 21.18 293.8 22.5 293.8 22.5 L 291.8 22.5 C 291.8 22.5 291.77 3.84 291.8 3.8 Z M 298.6 21.1 C 301.2 21.1 303.4 18.8 303.4 15 C 303.4 11.3 301.4 8.9 298.6 8.9 C 296.1 8.9 293.8 10.7 293.8 15 C 293.8 18 295.3 21.1 298.6 21.1 Z M 309.5 1.4 L 311.5 1.4 L 311.5 4 L 309.5 4 L 309.5 1.4 Z M 309.5 9.8 C 309.5 9.4 309.3 9.2 308.9 9.2 C 308.87 9.18 307.6 9.2 307.6 9.2 L 307.6 7.4 C 307.6 7.4 309.74 7.41 309.7 7.4 C 311 7.4 311.6 8 311.6 9.2 C 311.6 9.2 311.6 20.1 311.6 20.1 C 311.6 20.5 311.8 20.7 312.2 20.7 C 312.23 20.73 313.5 20.7 313.5 20.7 L 313.5 22.5 C 313.5 22.5 311.36 22.5 311.4 22.5 C 310.1 22.5 309.5 22 309.5 20.7 C 309.5 20.7 309.5 9.8 309.5 9.8 Z M 322.3 7.1 C 326 7.05 327.3 9.9 327.3 9.9 L 327.3 9.9 C 327.3 9.9 327.26 9.36 327.3 8.7 C 327.3 8.7 327.3 3.8 327.3 3.8 C 327.3 3.4 327 3.2 326.6 3.2 C 326.6 3.18 325.3 3.2 325.3 3.2 L 325.3 1.4 C 325.3 1.4 327.47 1.41 327.5 1.4 C 328.8 1.4 329.3 2 329.3 3.2 C 329.3 3.2 329.3 20.1 329.3 20.1 C 329.3 20.5 329.5 20.7 330 20.7 C 329.96 20.73 331.2 20.7 331.2 20.7 L 331.2 22.5 C 331.2 22.5 329.12 22.5 329.1 22.5 C 327.9 22.5 327.3 21.9 327.3 20.8 C 327.32 20.25 327.4 19.9 327.4 19.9 L 327.3 19.9 C 327.3 19.9 326.09 22.86 322.1 22.9 C 318.1 22.9 315.6 19.6 315.6 14.9 C 315.6 10.2 318.4 7.1 322.3 7.1 Z M 327.3 14.9 C 327.3 11.9 325.8 8.9 322.5 8.9 C 319.9 8.9 317.7 11.1 317.7 14.9 C 317.7 18.7 319.6 21 322.4 21 C 325 21 327.3 19.2 327.3 14.9 Z M 341.1 7.1 C 345.5 7.1 349.1 10.4 349.1 14.9 C 349.1 19.4 345.5 22.9 341.1 22.9 C 336.7 22.9 333.1 19.4 333.1 14.9 C 333.1 10.4 336.7 7.1 341.1 7.1 Z M 341.1 21 C 344.3 21 347 18.4 347 14.9 C 347 11.5 344.3 8.9 341.1 8.9 C 337.9 8.9 335.2 11.5 335.2 14.9 C 335.2 18.4 337.9 21 341.1 21 Z " stroke="none" fill="#ee3078"/>  </g></svg>