<?xml version="1.0" standalone="no"?><!DOCTYPE svg PUBLIC "-//W3C//DTD SVG 1.1//EN" "http://www.w3.org/Graphics/SVG/1.1/DTD/svg11.dtd"><svg xmlns="http://www.w3.org/2000/svg" version="1.1" width="158.4px" height="84px" viewBox="0 -1 158.4 84" style="top:-1px">  <desc>NEST</desc>  <defs/>  <g id="Polygon70857">    <path d="M 59.5 43.1 C 59.5 43.1 60.2 43.06 60.2 43.1 C 60.4 43.1 60.5 42.9 60.5 42.7 C 60.55 42.71 60.5 33.5 60.5 33.5 L 62.4 33.5 C 62.4 33.5 66.74 39.76 66.7 39.8 C 67.19 40.42 67.7 41.4 67.7 41.4 L 67.7 41.4 C 67.7 41.4 67.6 40.42 67.6 39.8 C 67.6 39.8 67.6 34.6 67.6 34.6 C 67.6 33.8 67.9 33.5 68.7 33.5 C 68.69 33.47 70.7 33.5 70.7 33.5 L 70.7 35.3 C 70.7 35.3 70.05 35.25 70.1 35.3 C 69.8 35.3 69.7 35.4 69.7 35.6 C 69.7 35.6 69.7 44.8 69.7 44.8 L 67.8 44.8 C 67.8 44.8 63.51 38.56 63.5 38.6 C 63.06 37.92 62.6 37 62.6 37 L 62.5 37 C 62.5 37 62.64 37.91 62.6 38.6 C 62.6 38.6 62.6 43.7 62.6 43.7 C 62.6 44.5 62.3 44.8 61.6 44.8 C 61.56 44.83 59.5 44.8 59.5 44.8 L 59.5 43.1 Z M 72.9 35.3 L 71.8 35.3 L 71.8 33.5 C 71.8 33.5 78.69 33.47 78.7 33.5 C 79.4 33.5 79.8 33.8 79.8 34.6 C 79.78 34.56 79.8 36.3 79.8 36.3 L 77.9 36.3 C 77.9 36.3 77.88 35.6 77.9 35.6 C 77.9 35.4 77.7 35.3 77.5 35.3 C 77.52 35.25 75 35.3 75 35.3 L 75 38.2 L 78.6 38.2 L 78.6 40 L 75 40 C 75 40 74.96 42.71 75 42.7 C 75 42.9 75.1 43.1 75.3 43.1 C 75.3 43.1 77.9 43.1 77.9 43.1 C 78.2 43.1 78.3 42.9 78.3 42.7 C 78.29 42.71 78.3 42 78.3 42 L 80.2 42 C 80.2 42 80.2 43.75 80.2 43.7 C 80.2 44.5 79.9 44.8 79.1 44.8 C 79.1 44.8 74 44.8 74 44.8 C 73.2 44.8 72.9 44.5 72.9 43.7 C 72.87 43.75 72.9 35.3 72.9 35.3 Z M 82.2 41.8 C 82.2 41.8 83.4 43.14 85 43.1 C 85.8 43.1 86.6 42.7 86.6 41.8 C 86.6 39.9 81.3 40 81.3 36.5 C 81.3 34.6 82.9 33.3 85.1 33.3 C 86.4 33.3 88.4 33.9 88.4 35.5 C 88.44 35.52 88.4 36.6 88.4 36.6 L 86.5 36.6 C 86.5 36.6 86.55 36.07 86.5 36.1 C 86.5 35.5 85.8 35.2 85 35.2 C 84.1 35.2 83.4 35.7 83.4 36.4 C 83.4 38.3 88.7 38 88.7 41.7 C 88.7 43.5 87.3 45 84.9 45 C 82.44 45.03 81 43.3 81 43.3 L 82.2 41.8 Z M 93.5 35.3 C 93.5 35.3 91.75 35.25 91.7 35.3 C 91.5 35.3 91.4 35.4 91.4 35.6 C 91.4 35.6 91.4 36.3 91.4 36.3 L 89.6 36.3 C 89.6 36.3 89.56 34.5 89.6 34.5 C 89.6 33.7 89.8 33.5 90.6 33.5 C 90.6 33.5 98.5 33.5 98.5 33.5 C 99.3 33.5 99.5 33.7 99.5 34.5 C 99.52 34.5 99.5 36.3 99.5 36.3 L 97.7 36.3 C 97.7 36.3 97.68 35.6 97.7 35.6 C 97.7 35.4 97.6 35.3 97.3 35.3 C 97.33 35.25 95.6 35.3 95.6 35.3 L 95.6 44.8 L 93.5 44.8 L 93.5 35.3 Z " stroke="none" fill="#ee3078"/>  </g></svg>