<?xml version="1.0" standalone="no"?><!DOCTYPE svg PUBLIC "-//W3C//DTD SVG 1.1//EN" "http://www.w3.org/Graphics/SVG/1.1/DTD/svg11.dtd"><svg xmlns="http://www.w3.org/2000/svg" version="1.1" width="571px" height="43px" viewBox="0 -1 571 43" style="top:-1px">  <desc>V hodn p sobenie E4 ako NEST</desc>  <defs/>  <g id="Polygon67718">    <path d="M 131.6 13.5 C 131.5 13.2 131.3 13.1 130.9 13.1 C 130.95 13.1 130.7 13.1 130.7 13.1 L 130.7 11.4 C 130.7 11.4 131.79 11.38 131.8 11.4 C 132.8 11.4 133.1 11.6 133.4 12.5 C 133.4 12.5 136.5 21.2 136.5 21.2 C 136.81 22 137.1 23.2 137.1 23.2 L 137.1 23.2 C 137.1 23.2 137.39 22 137.7 21.2 C 137.7 21.2 140.8 12.5 140.8 12.5 C 141.1 11.6 141.4 11.4 142.4 11.4 C 142.43 11.38 143.5 11.4 143.5 11.4 L 143.5 13.1 C 143.5 13.1 143.27 13.1 143.3 13.1 C 142.9 13.1 142.7 13.2 142.6 13.5 C 142.61 13.54 138.2 25.5 138.2 25.5 L 136 25.5 C 136 25.5 131.61 13.54 131.6 13.5 Z M 146.2 28 C 146.9 28 147.6 27.5 147.9 26.6 C 147.95 26.56 148.4 25.5 148.4 25.5 C 148.4 25.5 144.95 17.44 144.9 17.4 C 144.8 17.1 144.6 17 144.3 17 C 144.31 17.04 144.1 17 144.1 17 L 144.1 15.4 C 144.1 15.4 145.21 15.38 145.2 15.4 C 146 15.4 146.3 15.6 146.6 16.4 C 146.6 16.4 148.9 22.1 148.9 22.1 C 149.15 22.62 149.3 23.3 149.3 23.3 L 149.3 23.3 C 149.3 23.3 149.49 22.62 149.7 22.1 C 149.7 22.1 151.8 16.4 151.8 16.4 C 152.1 15.6 152.4 15.4 153.3 15.4 C 153.27 15.38 154.4 15.4 154.4 15.4 L 154.4 17 C 154.4 17 154.17 17.04 154.2 17 C 153.8 17 153.7 17.1 153.5 17.4 C 153.5 17.4 149.5 27.3 149.5 27.3 C 148.9 28.9 147.7 29.7 146.3 29.7 C 144.77 29.7 143.9 28.7 143.9 28.7 C 143.9 28.7 144.69 27.3 144.7 27.3 C 144.7 27.3 145.3 28 146.2 28 Z M 149.9 11.4 L 151.9 11.4 L 150 13.9 L 148.5 13.9 L 149.9 11.4 Z M 156.3 13.5 C 156.3 13.2 156.2 13 155.9 13 C 155.89 13.04 155.1 13 155.1 13 L 155.1 11.4 C 155.1 11.4 156.99 11.38 157 11.4 C 157.9 11.4 158.3 11.8 158.3 12.6 C 158.3 12.6 158.3 16.6 158.3 16.6 C 158.27 17.04 158.2 17.4 158.2 17.4 C 158.2 17.4 158.27 17.4 158.3 17.4 C 158.7 16.4 160 15.1 162 15.1 C 164.4 15.1 165.5 16.4 165.5 19 C 165.5 19 165.5 23.4 165.5 23.4 C 165.5 23.7 165.6 23.8 165.9 23.8 C 165.93 23.84 166.7 23.8 166.7 23.8 L 166.7 25.5 C 166.7 25.5 164.85 25.5 164.8 25.5 C 163.9 25.5 163.6 25.1 163.6 24.2 C 163.6 24.2 163.6 19.5 163.6 19.5 C 163.6 18 163.3 16.9 161.6 16.9 C 160.1 16.9 158.9 18 158.4 19.4 C 158.3 19.8 158.3 20.3 158.3 20.8 C 158.27 20.76 158.3 25.5 158.3 25.5 L 156.3 25.5 C 156.3 25.5 156.33 13.48 156.3 13.5 Z M 173.3 15.1 C 176.3 15.1 178.8 17.4 178.8 20.4 C 178.8 23.5 176.3 25.7 173.3 25.7 C 170.3 25.7 167.9 23.5 167.9 20.4 C 167.9 17.4 170.3 15.1 173.3 15.1 Z M 173.3 24.1 C 175.2 24.1 176.8 22.5 176.8 20.4 C 176.8 18.3 175.2 16.8 173.3 16.8 C 171.4 16.8 169.8 18.3 169.8 20.4 C 169.8 22.5 171.4 24.1 173.3 24.1 Z M 184.8 15.1 C 187.15 15.14 187.9 16.7 187.9 16.7 L 188 16.7 C 188 16.7 187.93 16.4 187.9 16 C 187.9 16 187.9 13.5 187.9 13.5 C 187.9 13.2 187.8 13 187.5 13 C 187.49 13.04 186.7 13 186.7 13 L 186.7 11.4 C 186.7 11.4 188.59 11.38 188.6 11.4 C 189.5 11.4 189.9 11.8 189.9 12.7 C 189.9 12.7 189.9 23.4 189.9 23.4 C 189.9 23.7 190 23.8 190.3 23.8 C 190.31 23.84 191.1 23.8 191.1 23.8 L 191.1 25.5 C 191.1 25.5 189.27 25.5 189.3 25.5 C 188.4 25.5 188 25.1 188 24.4 C 188.03 24.12 188 23.9 188 23.9 L 188 23.9 C 188 23.9 187.17 25.74 184.7 25.7 C 181.9 25.7 180.2 23.6 180.2 20.4 C 180.2 17.2 182.1 15.1 184.8 15.1 Z M 188 20.4 C 188 18.6 187 16.8 185.1 16.8 C 183.5 16.8 182.2 18.1 182.2 20.4 C 182.2 22.6 183.4 24.1 185.1 24.1 C 186.6 24.1 188 23 188 20.4 Z M 193.3 17.5 C 193.3 17.2 193.1 17 192.8 17 C 192.85 17.04 192 17 192 17 L 192 15.4 C 192 15.4 193.89 15.38 193.9 15.4 C 194.7 15.4 195.2 15.8 195.2 16.5 C 195.2 16.5 195.2 16.9 195.2 16.9 C 195.17 17.2 195.1 17.5 195.1 17.5 C 195.1 17.5 195.17 17.46 195.2 17.5 C 195.6 16.6 196.8 15.1 199 15.1 C 201.4 15.1 202.4 16.4 202.4 19 C 202.4 19 202.4 23.4 202.4 23.4 C 202.4 23.7 202.6 23.8 202.9 23.8 C 202.89 23.84 203.7 23.8 203.7 23.8 L 203.7 25.5 C 203.7 25.5 201.79 25.5 201.8 25.5 C 200.9 25.5 200.5 25.1 200.5 24.2 C 200.5 24.2 200.5 19.5 200.5 19.5 C 200.5 18 200.2 16.9 198.6 16.9 C 197 16.9 195.8 17.9 195.4 19.4 C 195.3 19.8 195.2 20.3 195.2 20.8 C 195.23 20.76 195.2 25.5 195.2 25.5 L 193.3 25.5 C 193.3 25.5 193.29 17.48 193.3 17.5 Z M 209.9 15.1 C 212.7 15.1 214.3 17.3 214.3 19.9 C 214.27 20.14 214.2 20.7 214.2 20.7 C 214.2 20.7 206.83 20.68 206.8 20.7 C 206.9 22.8 208.5 24.1 210.3 24.1 C 212.05 24.06 213.3 22.9 213.3 22.9 L 214.1 24.3 C 214.1 24.3 212.61 25.74 210.2 25.7 C 207 25.7 204.8 23.4 204.8 20.4 C 204.8 17.2 207 15.1 209.9 15.1 Z M 212.3 19.3 C 212.2 17.6 211.1 16.7 209.9 16.7 C 208.4 16.7 207.2 17.6 206.9 19.3 C 206.9 19.3 212.3 19.3 212.3 19.3 Z M 210.5 11.4 L 212.5 11.4 L 210.6 13.9 L 209.1 13.9 L 210.5 11.4 Z M 222.2 17.5 C 222.2 17.2 222.1 17 221.8 17 C 221.79 17.04 221 17 221 17 L 221 15.4 C 221 15.4 222.79 15.38 222.8 15.4 C 223.7 15.4 224 15.8 224 16.4 C 224.03 16.7 224 16.9 224 16.9 L 224 16.9 C 224 16.9 224.89 15.14 227.4 15.1 C 230.1 15.1 231.9 17.3 231.9 20.4 C 231.9 23.7 229.9 25.7 227.3 25.7 C 225.03 25.74 224.2 24.1 224.2 24.1 L 224.1 24.1 C 224.1 24.1 224.17 24.48 224.2 25 C 224.17 25 224.2 29.5 224.2 29.5 L 222.2 29.5 C 222.2 29.5 222.23 17.48 222.2 17.5 Z M 227 24.1 C 228.6 24.1 229.9 22.8 229.9 20.5 C 229.9 18.3 228.7 16.8 227 16.8 C 225.5 16.8 224.1 17.9 224.1 20.5 C 224.1 22.3 225.1 24.1 227 24.1 Z M 238.8 15.1 C 241.8 15.1 244.2 17.4 244.2 20.4 C 244.2 23.5 241.8 25.7 238.8 25.7 C 235.7 25.7 233.3 23.5 233.3 20.4 C 233.3 17.4 235.7 15.1 238.8 15.1 Z M 238.8 24.1 C 240.7 24.1 242.2 22.5 242.2 20.4 C 242.2 18.3 240.7 16.8 238.8 16.8 C 236.9 16.8 235.3 18.3 235.3 20.4 C 235.3 22.5 236.9 24.1 238.8 24.1 Z M 237.9 11.4 L 239.7 11.4 L 241.4 13.9 L 239.8 13.9 L 238.8 12.3 L 238.8 12.3 L 237.7 13.9 L 236.1 13.9 L 237.9 11.4 Z M 246.5 22.7 C 246.5 22.7 247.69 24.16 249.5 24.2 C 250.5 24.2 251.3 23.7 251.3 22.9 C 251.3 21 245.8 21.2 245.8 18 C 245.8 16 247.5 15.1 249.5 15.1 C 250.8 15.1 252.9 15.6 252.9 17.1 C 252.87 17.1 252.9 18.1 252.9 18.1 L 251.1 18.1 C 251.1 18.1 251.13 17.56 251.1 17.6 C 251.1 17 250.2 16.7 249.6 16.7 C 248.5 16.7 247.7 17.1 247.7 17.9 C 247.7 19.8 253.2 19.4 253.2 22.8 C 253.2 24.6 251.6 25.7 249.5 25.7 C 246.83 25.74 245.5 24 245.5 24 L 246.5 22.7 Z M 260.2 15.1 C 263.2 15.1 265.6 17.4 265.6 20.4 C 265.6 23.5 263.2 25.7 260.2 25.7 C 257.2 25.7 254.7 23.5 254.7 20.4 C 254.7 17.4 257.2 15.1 260.2 15.1 Z M 260.2 24.1 C 262.1 24.1 263.7 22.5 263.7 20.4 C 263.7 18.3 262.1 16.8 260.2 16.8 C 258.3 16.8 256.7 18.3 256.7 20.4 C 256.7 22.5 258.3 24.1 260.2 24.1 Z M 267.8 13.5 C 267.8 13.2 267.6 13 267.4 13 C 267.37 13.04 266.5 13 266.5 13 L 266.5 11.4 C 266.5 11.4 268.47 11.38 268.5 11.4 C 269.4 11.4 269.7 11.8 269.7 12.7 C 269.7 12.7 269.7 16 269.7 16 C 269.75 16.44 269.7 16.8 269.7 16.8 L 269.7 16.8 C 269.7 16.8 270.63 15.14 273 15.1 C 275.7 15.1 277.4 17.3 277.4 20.4 C 277.4 23.7 275.5 25.7 272.8 25.7 C 270.59 25.74 269.7 24 269.7 24 L 269.6 24 C 269.6 24 269.67 24.36 269.7 24.8 C 269.67 24.8 269.7 25.5 269.7 25.5 L 267.8 25.5 C 267.8 25.5 267.81 13.48 267.8 13.5 Z M 272.6 24.1 C 274.2 24.1 275.5 22.8 275.5 20.5 C 275.5 18.3 274.3 16.8 272.6 16.8 C 271.1 16.8 269.7 17.9 269.7 20.5 C 269.7 22.3 270.6 24.1 272.6 24.1 Z M 284 15.1 C 286.8 15.1 288.3 17.3 288.3 19.9 C 288.34 20.14 288.3 20.7 288.3 20.7 C 288.3 20.7 280.9 20.68 280.9 20.7 C 281 22.8 282.6 24.1 284.4 24.1 C 286.12 24.06 287.3 22.9 287.3 22.9 L 288.2 24.3 C 288.2 24.3 286.68 25.74 284.3 25.7 C 281.1 25.7 278.9 23.4 278.9 20.4 C 278.9 17.2 281.1 15.1 284 15.1 Z M 286.3 19.3 C 286.3 17.6 285.2 16.7 284 16.7 C 282.5 16.7 281.3 17.6 281 19.3 C 281 19.3 286.3 19.3 286.3 19.3 Z M 290.9 17.5 C 290.9 17.2 290.8 17 290.5 17 C 290.48 17.04 289.7 17 289.7 17 L 289.7 15.4 C 289.7 15.4 291.52 15.38 291.5 15.4 C 292.4 15.4 292.8 15.8 292.8 16.5 C 292.8 16.5 292.8 16.9 292.8 16.9 C 292.8 17.2 292.8 17.5 292.8 17.5 C 292.8 17.5 292.8 17.46 292.8 17.5 C 293.2 16.6 294.4 15.1 296.6 15.1 C 299 15.1 300.1 16.4 300.1 19 C 300.1 19 300.1 23.4 300.1 23.4 C 300.1 23.7 300.2 23.8 300.5 23.8 C 300.52 23.84 301.3 23.8 301.3 23.8 L 301.3 25.5 C 301.3 25.5 299.42 25.5 299.4 25.5 C 298.5 25.5 298.1 25.1 298.1 24.2 C 298.1 24.2 298.1 19.5 298.1 19.5 C 298.1 18 297.9 16.9 296.2 16.9 C 294.7 16.9 293.4 17.9 293 19.4 C 292.9 19.8 292.9 20.3 292.9 20.8 C 292.86 20.76 292.9 25.5 292.9 25.5 L 290.9 25.5 C 290.9 25.5 290.92 17.48 290.9 17.5 Z M 303.6 11.4 L 305.3 11.4 L 305.3 13.4 L 303.6 13.4 L 303.6 11.4 Z M 303.5 17.5 C 303.5 17.2 303.4 17 303.1 17 C 303.1 17.04 302.3 17 302.3 17 L 302.3 15.4 C 302.3 15.4 304.18 15.38 304.2 15.4 C 305.1 15.4 305.5 15.8 305.5 16.7 C 305.5 16.7 305.5 23.4 305.5 23.4 C 305.5 23.7 305.6 23.8 305.9 23.8 C 305.9 23.84 306.7 23.8 306.7 23.8 L 306.7 25.5 C 306.7 25.5 304.82 25.5 304.8 25.5 C 303.9 25.5 303.5 25.1 303.5 24.2 C 303.5 24.2 303.5 17.5 303.5 17.5 Z M 313 15.1 C 315.9 15.1 317.4 17.3 317.4 19.9 C 317.4 20.14 317.3 20.7 317.3 20.7 C 317.3 20.7 309.96 20.68 310 20.7 C 310.1 22.8 311.6 24.1 313.4 24.1 C 315.18 24.06 316.4 22.9 316.4 22.9 L 317.2 24.3 C 317.2 24.3 315.74 25.74 313.3 25.7 C 310.1 25.7 308 23.4 308 20.4 C 308 17.2 310.2 15.1 313 15.1 Z M 315.4 19.3 C 315.3 17.6 314.3 16.7 313 16.7 C 311.5 16.7 310.3 17.6 310 19.3 C 310 19.3 315.4 19.3 315.4 19.3 Z M 325.7 13.1 L 324.4 13.1 L 324.4 11.4 C 324.4 11.4 332.72 11.38 332.7 11.4 C 333.6 11.4 334 11.8 334 12.7 C 334 12.66 334 14.4 334 14.4 L 332.2 14.4 C 332.2 14.4 332.18 13.54 332.2 13.5 C 332.2 13.2 332 13.1 331.7 13.1 C 331.74 13.1 327.7 13.1 327.7 13.1 L 327.7 17.5 L 332.7 17.5 L 332.7 19.2 L 327.7 19.2 C 327.7 19.2 327.72 23.34 327.7 23.3 C 327.7 23.6 327.9 23.8 328.2 23.8 C 328.2 23.8 332.3 23.8 332.3 23.8 C 332.6 23.8 332.7 23.6 332.7 23.3 C 332.72 23.34 332.7 22.4 332.7 22.4 L 334.6 22.4 C 334.6 22.4 334.56 24.22 334.6 24.2 C 334.6 25.1 334.2 25.5 333.3 25.5 C 333.3 25.5 327 25.5 327 25.5 C 326.1 25.5 325.7 25.1 325.7 24.2 C 325.72 24.22 325.7 13.1 325.7 13.1 Z M 335.4 20.5 L 341.7 11.4 L 344 11.4 L 344 20 L 346.2 20 L 346.2 21.8 L 344 21.8 L 344 25.5 L 342 25.5 L 342 21.8 L 335.4 21.8 L 335.4 20.5 Z M 342 15.2 C 342.02 14.54 342.1 13.7 342.1 13.7 L 342.1 13.7 C 342.1 13.7 341.7 14.42 341.3 14.9 C 341.3 14.9 338.3 19.2 338.3 19.2 C 337.9 19.66 337.5 20.1 337.5 20.1 L 337.5 20.1 C 337.5 20.1 338.1 20.04 338.7 20 C 338.72 20.04 342 20 342 20 C 342 20 342.02 15.18 342 15.2 Z M 358.7 19.2 C 358.74 19.2 359.2 19.2 359.2 19.2 C 359.2 19.2 359.18 19.1 359.2 19.1 C 359.2 17.3 358.5 16.7 356.9 16.7 C 356.5 16.7 355.3 16.8 355.3 17.5 C 355.28 17.46 355.3 18 355.3 18 L 353.5 18 C 353.5 18 353.46 17.04 353.5 17 C 353.5 15.4 356 15.1 357 15.1 C 360.2 15.1 361.1 16.9 361.1 19.1 C 361.1 19.1 361.1 23.4 361.1 23.4 C 361.1 23.7 361.3 23.8 361.6 23.8 C 361.56 23.84 362.4 23.8 362.4 23.8 L 362.4 25.5 C 362.4 25.5 360.56 25.5 360.6 25.5 C 359.7 25.5 359.3 25.1 359.3 24.3 C 359.3 24 359.3 23.7 359.3 23.7 L 359.3 23.7 C 359.3 23.7 358.5 25.74 356.1 25.7 C 354.3 25.7 352.6 24.7 352.6 22.7 C 352.6 19.4 357 19.2 358.7 19.2 Z M 356.5 24.2 C 358.1 24.2 359.2 22.5 359.2 21 C 359.2 20.96 359.2 20.6 359.2 20.6 C 359.2 20.6 358.7 20.62 358.7 20.6 C 357.2 20.6 354.6 20.7 354.6 22.6 C 354.6 23.4 355.2 24.2 356.5 24.2 Z M 364.4 13.5 C 364.4 13.2 364.2 13 364 13 C 363.96 13.04 363.1 13 363.1 13 L 363.1 11.4 C 363.1 11.4 365.06 11.38 365.1 11.4 C 366 11.4 366.3 11.6 366.3 12.5 C 366.34 12.54 366.3 19.1 366.3 19.1 C 366.3 19.1 367.24 19.1 367.2 19.1 C 367.6 19.1 368 19 368.3 18.7 C 368.3 18.66 370.6 15.4 370.6 15.4 L 372.9 15.4 C 372.9 15.4 370.12 19.14 370.1 19.1 C 369.66 19.76 369.4 19.9 369.4 19.9 L 369.4 19.9 C 369.4 19.9 369.7 20.06 370 20.7 C 370 20.7 371.5 23.4 371.5 23.4 C 371.7 23.8 371.9 23.8 372.4 23.8 C 372.4 23.84 373 23.8 373 23.8 L 373 25.5 C 373 25.5 371.62 25.5 371.6 25.5 C 370.7 25.5 370.4 25.3 369.9 24.6 C 369.9 24.6 368.1 21.2 368.1 21.2 C 367.9 20.8 367.4 20.7 367.1 20.7 C 367.1 20.74 366.3 20.7 366.3 20.7 L 366.3 25.5 L 364.4 25.5 C 364.4 25.5 364.4 13.48 364.4 13.5 Z M 379.3 15.1 C 382.3 15.1 384.7 17.4 384.7 20.4 C 384.7 23.5 382.3 25.7 379.3 25.7 C 376.2 25.7 373.8 23.5 373.8 20.4 C 373.8 17.4 376.2 15.1 379.3 15.1 Z M 379.3 24.1 C 381.2 24.1 382.7 22.5 382.7 20.4 C 382.7 18.3 381.2 16.8 379.3 16.8 C 377.4 16.8 375.8 18.3 375.8 20.4 C 375.8 22.5 377.4 24.1 379.3 24.1 Z M 391.6 23.8 C 391.6 23.8 392.44 23.78 392.4 23.8 C 392.7 23.8 392.9 23.6 392.9 23.3 C 392.88 23.34 392.9 11.4 392.9 11.4 L 394.7 11.4 C 394.7 11.4 400.98 20.32 401 20.3 C 401.5 21.08 402.2 22.2 402.2 22.2 L 402.2 22.2 C 402.2 22.2 402.06 21.12 402.1 20.3 C 402.1 20.3 402.1 12.7 402.1 12.7 C 402.1 11.8 402.4 11.4 403.4 11.4 C 403.36 11.38 405.4 11.4 405.4 11.4 L 405.4 13.1 C 405.4 13.1 404.5 13.1 404.5 13.1 C 404.2 13.1 404.1 13.2 404.1 13.5 C 404.06 13.54 404.1 25.5 404.1 25.5 L 402.3 25.5 C 402.3 25.5 395.96 16.56 396 16.6 C 395.44 15.8 394.8 14.6 394.8 14.6 L 394.8 14.6 C 394.8 14.6 394.88 15.78 394.9 16.6 C 394.9 16.6 394.9 24.2 394.9 24.2 C 394.9 25.1 394.5 25.5 393.6 25.5 C 393.6 25.5 391.6 25.5 391.6 25.5 L 391.6 23.8 Z M 408.2 13.1 L 406.9 13.1 L 406.9 11.4 C 406.9 11.4 415.18 11.38 415.2 11.4 C 416.1 11.4 416.5 11.8 416.5 12.7 C 416.46 12.66 416.5 14.4 416.5 14.4 L 414.6 14.4 C 414.6 14.4 414.64 13.54 414.6 13.5 C 414.6 13.2 414.5 13.1 414.2 13.1 C 414.2 13.1 410.2 13.1 410.2 13.1 L 410.2 17.5 L 415.1 17.5 L 415.1 19.2 L 410.2 19.2 C 410.2 19.2 410.18 23.34 410.2 23.3 C 410.2 23.6 410.3 23.8 410.6 23.8 C 410.6 23.8 414.7 23.8 414.7 23.8 C 415 23.8 415.2 23.6 415.2 23.3 C 415.18 23.34 415.2 22.4 415.2 22.4 L 417 22.4 C 417 22.4 417.02 24.22 417 24.2 C 417 25.1 416.6 25.5 415.7 25.5 C 415.7 25.5 409.5 25.5 409.5 25.5 C 408.6 25.5 408.2 25.1 408.2 24.2 C 408.18 24.22 408.2 13.1 408.2 13.1 Z M 419.3 22.2 C 419.3 22.2 420.78 23.92 422.9 23.9 C 424.2 23.9 425.3 23.1 425.3 21.8 C 425.3 18.9 418.5 19.3 418.5 14.9 C 418.5 12.8 420.3 11.1 423 11.1 C 424.5 11.1 427 11.8 427 13.7 C 427.02 13.74 427 14.9 427 14.9 L 425.2 14.9 C 425.2 14.9 425.18 14.24 425.2 14.2 C 425.2 13.5 424.1 13 423 13 C 421.5 13 420.5 13.8 420.5 14.9 C 420.5 17.7 427.3 17.1 427.3 21.7 C 427.3 23.9 425.6 25.7 422.8 25.7 C 419.84 25.74 418.2 23.6 418.2 23.6 L 419.3 22.2 Z M 433.5 13.1 C 433.5 13.1 430.66 13.1 430.7 13.1 C 430.4 13.1 430.2 13.2 430.2 13.5 C 430.22 13.54 430.2 14.4 430.2 14.4 L 428.4 14.4 C 428.4 14.4 428.44 12.58 428.4 12.6 C 428.4 11.7 428.7 11.4 429.6 11.4 C 429.6 11.4 439.4 11.4 439.4 11.4 C 440.3 11.4 440.6 11.7 440.6 12.6 C 440.56 12.58 440.6 14.4 440.6 14.4 L 438.8 14.4 C 438.8 14.4 438.78 13.54 438.8 13.5 C 438.8 13.2 438.6 13.1 438.3 13.1 C 438.34 13.1 435.5 13.1 435.5 13.1 L 435.5 25.5 L 433.5 25.5 L 433.5 13.1 Z " stroke="none" fill="#ee3078"/>  </g></svg>