<?xml version="1.0" standalone="no"?><!DOCTYPE svg PUBLIC "-//W3C//DTD SVG 1.1//EN" "http://www.w3.org/Graphics/SVG/1.1/DTD/svg11.dtd"><svg xmlns="http://www.w3.org/2000/svg" version="1.1" width="353px" height="43.5px" viewBox="0 -5 353 43.5" style="top:-5px">  <desc>Kontrola cyklu</desc>  <defs/>  <g id="Polygon66563">    <path d="M 3.2 3.9 C 3.2 3.5 3 3.3 2.5 3.3 C 2.55 3.27 1.3 3.3 1.3 3.3 L 1.3 1.4 C 1.3 1.4 3.48 1.41 3.5 1.4 C 4.8 1.4 5.3 2 5.3 3.2 C 5.31 3.24 5.3 10.6 5.3 10.6 C 5.3 10.6 7.83 10.56 7.8 10.6 C 8.6 10.6 9.2 10.4 9.6 9.8 C 9.6 9.81 14.7 1.4 14.7 1.4 L 17.1 1.4 C 17.1 1.4 11.67 10.26 11.7 10.3 C 11.13 11.13 10.6 11.4 10.6 11.4 L 10.6 11.5 C 10.6 11.5 11.1 11.67 11.6 12.7 C 11.6 12.7 15.3 20 15.3 20 C 15.6 20.6 16 20.6 16.8 20.6 C 16.8 20.64 17.4 20.6 17.4 20.6 L 17.4 22.5 C 17.4 22.5 16.29 22.5 16.3 22.5 C 14.6 22.5 14.1 22.3 13.4 20.9 C 13.4 20.9 9.5 13.2 9.5 13.2 C 9.2 12.5 8.5 12.4 7.6 12.4 C 7.62 12.42 5.3 12.4 5.3 12.4 L 5.3 22.5 L 3.2 22.5 C 3.2 22.5 3.21 3.93 3.2 3.9 Z M 26.6 7.1 C 31 7.1 34.6 10.4 34.6 14.9 C 34.6 19.4 31 22.9 26.6 22.9 C 22.2 22.9 18.6 19.4 18.6 14.9 C 18.6 10.4 22.2 7.1 26.6 7.1 Z M 26.6 21 C 29.8 21 32.5 18.4 32.5 14.9 C 32.5 11.5 29.8 8.9 26.6 8.9 C 23.4 8.9 20.7 11.5 20.7 14.9 C 20.7 18.4 23.4 21 26.6 21 Z M 38.4 9.8 C 38.4 9.4 38.1 9.2 37.7 9.2 C 37.71 9.18 36.5 9.2 36.5 9.2 L 36.5 7.4 C 36.5 7.4 38.55 7.41 38.6 7.4 C 39.8 7.4 40.4 8 40.4 9.1 C 40.4 9.1 40.4 9.8 40.4 9.8 C 40.38 10.38 40.3 10.9 40.3 10.9 C 40.3 10.9 40.38 10.86 40.4 10.9 C 40.9 9.5 42.8 7.1 46.4 7.1 C 50.1 7.1 51.5 9.2 51.5 12.9 C 51.5 12.9 51.5 20.1 51.5 20.1 C 51.5 20.5 51.7 20.7 52.1 20.7 C 52.11 20.73 53.4 20.7 53.4 20.7 L 53.4 22.5 C 53.4 22.5 51.24 22.5 51.2 22.5 C 50 22.5 49.4 22 49.4 20.7 C 49.4 20.7 49.4 13.4 49.4 13.4 C 49.4 11.1 49.1 9 46.1 9 C 43.6 9 41.3 10.7 40.7 13.2 C 40.5 13.9 40.4 14.6 40.4 15.3 C 40.41 15.27 40.4 22.5 40.4 22.5 L 38.4 22.5 C 38.4 22.5 38.37 9.84 38.4 9.8 Z M 56.8 9.1 L 54.8 9.1 L 54.8 7.4 L 56.8 7.4 L 56.8 3.2 L 58.8 3.2 L 58.8 7.4 L 62.6 7.4 L 62.6 9.1 L 58.8 9.1 C 58.8 9.1 58.83 16.8 58.8 16.8 C 58.8 20.3 61.1 20.8 62.2 20.8 C 62.64 20.79 62.9 20.7 62.9 20.7 L 62.9 22.6 C 62.9 22.6 62.55 22.62 62 22.6 C 60.3 22.6 56.8 22.1 56.8 17 C 56.79 17.01 56.8 9.1 56.8 9.1 Z M 66.7 9.8 C 66.7 9.4 66.4 9.2 66 9.2 C 66 9.18 64.7 9.2 64.7 9.2 L 64.7 7.4 C 64.7 7.4 66.84 7.41 66.8 7.4 C 68.1 7.4 68.7 7.9 68.7 9.1 C 68.7 9.1 68.7 10.1 68.7 10.1 C 68.67 10.77 68.6 11.3 68.6 11.3 C 68.6 11.3 68.67 11.28 68.7 11.3 C 69.4 9 71.1 7.3 73.4 7.3 C 73.86 7.26 74.2 7.4 74.2 7.4 L 74.2 9.4 C 74.2 9.4 73.89 9.3 73.5 9.3 C 71.4 9.3 69.8 11 69.1 13.2 C 68.8 14.2 68.7 15.2 68.7 16.1 C 68.7 16.14 68.7 22.5 68.7 22.5 L 66.7 22.5 C 66.7 22.5 66.66 9.84 66.7 9.8 Z M 83.5 7.1 C 87.9 7.1 91.4 10.4 91.4 14.9 C 91.4 19.4 87.9 22.9 83.5 22.9 C 79.1 22.9 75.5 19.4 75.5 14.9 C 75.5 10.4 79.1 7.1 83.5 7.1 Z M 83.5 21 C 86.7 21 89.3 18.4 89.3 14.9 C 89.3 11.5 86.7 8.9 83.5 8.9 C 80.2 8.9 77.6 11.5 77.6 14.9 C 77.6 18.4 80.2 21 83.5 21 Z M 94.9 3.8 C 94.9 3.4 94.7 3.2 94.3 3.2 C 94.29 3.18 93 3.2 93 3.2 L 93 1.4 C 93 1.4 95.16 1.41 95.2 1.4 C 96.4 1.4 97 2 97 3.2 C 97 3.2 97 20.1 97 20.1 C 97 20.5 97.2 20.7 97.6 20.7 C 97.65 20.73 98.9 20.7 98.9 20.7 L 98.9 22.5 C 98.9 22.5 96.78 22.5 96.8 22.5 C 95.5 22.5 94.9 22 94.9 20.7 C 94.9 20.7 94.9 3.8 94.9 3.8 Z M 110.2 13.2 C 110.16 13.2 111 13.2 111 13.2 C 111 13.2 111 13.02 111 13 C 111 9.9 109.9 8.8 107.1 8.8 C 106.3 8.8 104.2 9 104.2 10.1 C 104.16 10.08 104.2 11 104.2 11 L 102.2 11 C 102.2 11 102.21 9.6 102.2 9.6 C 102.2 7.5 105.8 7.1 107.1 7.1 C 111.9 7.1 113 9.6 113 12.8 C 113 12.8 113 20.1 113 20.1 C 113 20.5 113.3 20.7 113.7 20.7 C 113.7 20.73 115 20.7 115 20.7 L 115 22.5 C 115 22.5 112.89 22.5 112.9 22.5 C 111.6 22.5 111.1 21.9 111.1 20.7 C 111.09 20.04 111.1 19.6 111.1 19.6 C 111.1 19.6 111.06 19.59 111.1 19.6 C 111.1 19.6 109.8 22.9 106 22.9 C 103.5 22.9 100.9 21.4 100.9 18.4 C 100.9 13.4 107.5 13.2 110.2 13.2 Z M 106.4 21.1 C 109.3 21.1 111 18.1 111 15.5 C 111 15.51 111 14.8 111 14.8 C 111 14.8 110.13 14.82 110.1 14.8 C 107.8 14.8 103 14.9 103 18.3 C 103 19.7 104.1 21.1 106.4 21.1 Z M 132.9 7.1 C 134.6 7.1 138.3 7.8 138.3 10.3 C 138.27 10.26 138.3 11.6 138.3 11.6 L 136.3 11.6 C 136.3 11.6 136.35 10.74 136.3 10.7 C 136.3 9.5 134.2 8.9 132.9 8.9 C 129.7 8.9 127 11.3 127 15 C 127 18.7 129.8 21 133 21 C 136.05 21 137.8 18.9 137.8 18.9 L 138.8 20.4 C 138.8 20.4 136.74 22.86 132.9 22.9 C 128.4 22.9 124.9 19.7 124.9 15 C 124.9 10.4 128.4 7.1 132.9 7.1 Z M 142.9 27 C 144.2 27 145.1 25.9 145.7 24.5 C 145.68 24.51 146.6 22.4 146.6 22.4 C 146.6 22.4 141.27 9.87 141.3 9.9 C 141 9.3 140.8 9.2 140.2 9.2 C 140.22 9.18 139.9 9.2 139.9 9.2 L 139.9 7.4 C 139.9 7.4 140.85 7.41 140.8 7.4 C 142.2 7.4 142.6 7.7 143.2 9.1 C 143.2 9.1 147 18.5 147 18.5 C 147.33 19.23 147.6 20.1 147.6 20.1 L 147.6 20.1 C 147.6 20.1 147.84 19.23 148.1 18.5 C 148.1 18.5 151.9 9.1 151.9 9.1 C 152.4 7.7 152.8 7.4 154.2 7.4 C 154.2 7.41 155.1 7.4 155.1 7.4 L 155.1 9.2 C 155.1 9.2 154.83 9.18 154.8 9.2 C 154.3 9.2 154 9.3 153.8 9.9 C 153.8 9.9 147.3 25.6 147.3 25.6 C 146.5 27.6 145 28.8 142.9 28.8 C 140.85 28.8 139.7 27.3 139.7 27.3 C 139.7 27.3 140.64 25.83 140.6 25.8 C 140.6 25.9 141.6 27 142.9 27 Z M 158.1 3.8 C 158.1 3.4 157.9 3.2 157.5 3.2 C 157.47 3.18 156.2 3.2 156.2 3.2 L 156.2 1.4 C 156.2 1.4 158.34 1.41 158.3 1.4 C 159.6 1.4 160.2 1.9 160.2 3.1 C 160.17 3.15 160.2 13.2 160.2 13.2 C 160.2 13.2 161.73 13.17 161.7 13.2 C 162.3 13.2 163 13 163.4 12.4 C 163.44 12.45 167.3 7.4 167.3 7.4 L 169.8 7.4 C 169.8 7.4 165.45 12.93 165.4 12.9 C 164.7 13.86 164.3 14 164.3 14 L 164.3 14.1 C 164.3 14.1 164.76 14.28 165.2 15.2 C 165.2 15.2 168 20.1 168 20.1 C 168.2 20.6 168.5 20.7 169.3 20.7 C 169.35 20.73 170.2 20.7 170.2 20.7 L 170.2 22.5 C 170.2 22.5 168.75 22.5 168.7 22.5 C 167.2 22.5 166.8 22.3 166.1 21 C 166.1 21 163.1 15.6 163.1 15.6 C 162.8 15 162.1 14.9 161.5 14.9 C 161.55 14.94 160.2 14.9 160.2 14.9 L 160.2 22.5 L 158.1 22.5 C 158.1 22.5 158.13 3.84 158.1 3.8 Z M 172.9 3.8 C 172.9 3.4 172.7 3.2 172.3 3.2 C 172.26 3.18 171 3.2 171 3.2 L 171 1.4 C 171 1.4 173.13 1.41 173.1 1.4 C 174.4 1.4 175 2 175 3.2 C 175 3.2 175 20.1 175 20.1 C 175 20.5 175.2 20.7 175.6 20.7 C 175.62 20.73 176.9 20.7 176.9 20.7 L 176.9 22.5 C 176.9 22.5 174.75 22.5 174.7 22.5 C 173.5 22.5 172.9 22 172.9 20.7 C 172.9 20.7 172.9 3.8 172.9 3.8 Z M 180.2 9.8 C 180.2 9.4 180 9.2 179.6 9.2 C 179.58 9.18 178.3 9.2 178.3 9.2 L 178.3 7.4 C 178.3 7.4 180.45 7.41 180.4 7.4 C 181.7 7.4 182.3 8 182.3 9.2 C 182.3 9.2 182.3 16.5 182.3 16.5 C 182.3 18.8 182.7 20.9 185.6 20.9 C 189 20.9 191.1 17.9 191.1 14.6 C 191.13 14.64 191.1 7.4 191.1 7.4 L 193.2 7.4 C 193.2 7.4 193.17 20.07 193.2 20.1 C 193.2 20.5 193.4 20.7 193.8 20.7 C 193.83 20.73 195.1 20.7 195.1 20.7 L 195.1 22.5 C 195.1 22.5 193.02 22.5 193 22.5 C 191.8 22.5 191.2 22 191.2 20.8 C 191.2 20.8 191.2 20.1 191.2 20.1 C 191.19 19.53 191.2 19.1 191.2 19.1 C 191.2 19.1 191.19 19.05 191.2 19.1 C 190.6 20.5 188.6 22.9 185.3 22.9 C 181.7 22.9 180.2 20.9 180.2 17 C 180.2 17 180.2 9.8 180.2 9.8 Z " stroke="none" fill="#ee3078"/>  </g></svg>