<?xml version="1.0" standalone="no"?><!DOCTYPE svg PUBLIC "-//W3C//DTD SVG 1.1//EN" "http://www.w3.org/Graphics/SVG/1.1/DTD/svg11.dtd"><svg xmlns="http://www.w3.org/2000/svg" version="1.1" width="92px" height="43.5px" viewBox="0 -5 92 43.5" style="top:-5px">  <desc>Esterol</desc>  <defs/>  <g id="Polygon70340">    <path d="M 3.2 3.3 L 1.3 3.3 L 1.3 1.4 C 1.3 1.4 13.32 1.41 13.3 1.4 C 14.6 1.4 15.1 2 15.1 3.2 C 15.15 3.24 15.1 5.3 15.1 5.3 L 13.2 5.3 C 13.2 5.3 13.17 3.93 13.2 3.9 C 13.2 3.5 12.9 3.3 12.5 3.3 C 12.51 3.27 5.3 3.3 5.3 3.3 L 5.3 10.9 L 13.2 10.9 L 13.2 12.8 L 5.3 12.8 C 5.3 12.8 5.31 19.98 5.3 20 C 5.3 20.4 5.5 20.6 6 20.6 C 6 20.6 13.4 20.6 13.4 20.6 C 13.8 20.6 14 20.4 14 20 C 14.04 19.98 14 18.6 14 18.6 L 16 18.6 C 16 18.6 15.99 20.67 16 20.7 C 16 22 15.4 22.5 14.2 22.5 C 14.2 22.5 5 22.5 5 22.5 C 3.8 22.5 3.2 22 3.2 20.7 C 3.21 20.67 3.2 3.3 3.2 3.3 Z M 18.8 18.8 C 18.8 18.8 20.46 21.09 23.4 21.1 C 25.1 21.1 26.6 20.3 26.6 18.7 C 26.6 15.4 18.1 16 18.1 11.1 C 18.1 8.4 20.5 7.1 23.5 7.1 C 25 7.1 28.1 7.7 28.1 9.8 C 28.11 9.78 28.1 11.1 28.1 11.1 L 26.2 11.1 C 26.2 11.1 26.19 10.35 26.2 10.4 C 26.2 9.2 24.6 8.8 23.6 8.8 C 21.5 8.8 20.2 9.5 20.2 11 C 20.2 14.4 28.7 13.6 28.7 18.6 C 28.7 21.1 26.4 22.9 23.4 22.9 C 19.47 22.86 17.6 20.2 17.6 20.2 L 18.8 18.8 Z M 32.7 9.1 L 30.7 9.1 L 30.7 7.4 L 32.8 7.4 L 32.8 3.2 L 34.8 3.2 L 34.8 7.4 L 38.5 7.4 L 38.5 9.1 L 34.8 9.1 C 34.8 9.1 34.77 16.8 34.8 16.8 C 34.8 20.3 37 20.8 38.2 20.8 C 38.58 20.79 38.8 20.7 38.8 20.7 L 38.8 22.6 C 38.8 22.6 38.49 22.62 38 22.6 C 36.2 22.6 32.7 22.1 32.7 17 C 32.73 17.01 32.7 9.1 32.7 9.1 Z M 48.3 7.1 C 52.5 7.1 54.7 10.3 54.7 14 C 54.66 14.37 54.6 15 54.6 15 C 54.6 15 43.02 15.03 43 15 C 43.1 18.8 45.7 21 48.9 21 C 51.63 21.03 53.4 19.2 53.4 19.2 L 54.4 20.7 C 54.4 20.7 52.2 22.86 48.8 22.9 C 44.3 22.9 40.9 19.6 40.9 15 C 40.9 10 44.3 7.1 48.3 7.1 Z M 52.6 13.4 C 52.4 10.3 50.5 8.8 48.3 8.8 C 45.8 8.8 43.6 10.4 43.1 13.4 C 43.1 13.4 52.6 13.4 52.6 13.4 Z M 58.7 9.8 C 58.7 9.4 58.5 9.2 58.1 9.2 C 58.08 9.18 56.8 9.2 56.8 9.2 L 56.8 7.4 C 56.8 7.4 58.92 7.41 58.9 7.4 C 60.2 7.4 60.7 7.9 60.7 9.1 C 60.7 9.1 60.7 10.1 60.7 10.1 C 60.75 10.77 60.7 11.3 60.7 11.3 C 60.7 11.3 60.75 11.28 60.7 11.3 C 61.5 9 63.1 7.3 65.5 7.3 C 65.94 7.26 66.3 7.4 66.3 7.4 L 66.3 9.4 C 66.3 9.4 65.97 9.3 65.6 9.3 C 63.4 9.3 61.9 11 61.2 13.2 C 60.9 14.2 60.8 15.2 60.8 16.1 C 60.78 16.14 60.8 22.5 60.8 22.5 L 58.7 22.5 C 58.7 22.5 58.74 9.84 58.7 9.8 Z M 75.5 7.1 C 79.9 7.1 83.5 10.4 83.5 14.9 C 83.5 19.4 79.9 22.9 75.6 22.9 C 71.2 22.9 67.6 19.4 67.6 14.9 C 67.6 10.4 71.2 7.1 75.5 7.1 Z M 75.6 21 C 78.8 21 81.4 18.4 81.4 14.9 C 81.4 11.5 78.8 8.9 75.6 8.9 C 72.3 8.9 69.7 11.5 69.7 14.9 C 69.7 18.4 72.3 21 75.6 21 Z M 87 3.8 C 87 3.4 86.8 3.2 86.4 3.2 C 86.37 3.18 85.1 3.2 85.1 3.2 L 85.1 1.4 C 85.1 1.4 87.24 1.41 87.2 1.4 C 88.5 1.4 89.1 2 89.1 3.2 C 89.1 3.2 89.1 20.1 89.1 20.1 C 89.1 20.5 89.3 20.7 89.7 20.7 C 89.73 20.73 91 20.7 91 20.7 L 91 22.5 C 91 22.5 88.86 22.5 88.9 22.5 C 87.6 22.5 87 22 87 20.7 C 87 20.7 87 3.8 87 3.8 Z " stroke="none" fill="#ee3078"/>  </g></svg>