<?xml version="1.0" standalone="no"?><!DOCTYPE svg PUBLIC "-//W3C//DTD SVG 1.1//EN" "http://www.w3.org/Graphics/SVG/1.1/DTD/svg11.dtd"><svg xmlns="http://www.w3.org/2000/svg" version="1.1" width="113.4px" height="85px" viewBox="0 -1 113.4 85" style="top:-1px">  <desc>Stabilita cyklu</desc>  <defs/>  <g id="Polygon81169">    <path d="M 37.3 47.9 C 38.6 47.9 41 48.4 41 50.2 C 40.99 50.19 41 51.4 41 51.4 L 38.8 51.4 C 38.8 51.4 38.75 50.83 38.8 50.8 C 38.8 50.3 37.9 50 37.3 50 C 35.5 50 34.3 51.4 34.3 53.2 C 34.3 55.3 35.8 56.4 37.5 56.4 C 39.19 56.35 40.5 55 40.5 55 L 41.5 56.7 C 41.5 56.7 40.01 58.57 37.2 58.6 C 33.9 58.6 31.7 56.2 31.7 53.2 C 31.7 50.4 33.8 47.9 37.3 47.9 Z M 44.2 60.4 C 44.9 60.4 45.5 60 45.9 59.1 C 45.87 59.09 46.2 58.3 46.2 58.3 C 46.2 58.3 42.81 50.65 42.8 50.7 C 42.7 50.4 42.6 50.3 42.3 50.3 C 42.27 50.29 42 50.3 42 50.3 L 42 48.1 C 42 48.1 43.65 48.13 43.7 48.1 C 44.4 48.1 44.7 48.4 45 49.1 C 45 49.1 47 54.2 47 54.2 C 47.19 54.71 47.4 55.6 47.4 55.6 L 47.4 55.6 C 47.4 55.6 47.55 54.71 47.7 54.2 C 47.7 54.2 49.5 49.1 49.5 49.1 C 49.7 48.4 50.1 48.1 50.8 48.1 C 50.83 48.13 52.6 48.1 52.6 48.1 L 52.6 50.3 C 52.6 50.3 52.25 50.29 52.3 50.3 C 52 50.3 51.8 50.4 51.7 50.7 C 51.7 50.7 48 59.9 48 59.9 C 47.3 61.7 45.9 62.5 44.3 62.5 C 42.73 62.53 41.8 61.5 41.8 61.5 L 42.7 59.7 C 42.7 59.7 43.35 60.39 44.2 60.4 Z M 54.4 46.7 C 54.4 46.4 54.2 46.3 53.9 46.3 C 53.93 46.29 53.1 46.3 53.1 46.3 L 53.1 44.1 C 53.1 44.1 55.55 44.13 55.6 44.1 C 56.5 44.1 56.9 44.4 56.9 45.3 C 56.91 45.29 56.9 51.7 56.9 51.7 C 56.9 51.7 57.67 51.73 57.7 51.7 C 58 51.7 58.4 51.7 58.6 51.4 C 58.63 51.35 60.7 48.1 60.7 48.1 L 63.5 48.1 C 63.5 48.1 60.95 51.97 61 52 C 60.51 52.61 60.2 52.8 60.2 52.8 L 60.2 52.8 C 60.2 52.8 60.55 52.95 60.9 53.6 C 60.9 53.6 62.1 55.8 62.1 55.8 C 62.2 56.1 62.4 56.2 62.9 56.2 C 62.91 56.19 63.6 56.2 63.6 56.2 L 63.6 58.3 C 63.6 58.3 61.71 58.33 61.7 58.3 C 60.9 58.3 60.5 58.2 60.1 57.5 C 60.1 57.5 58.4 54.3 58.4 54.3 C 58.2 53.9 57.8 53.9 57.5 53.9 C 57.47 53.87 56.9 53.9 56.9 53.9 L 56.9 58.3 L 54.4 58.3 C 54.4 58.3 54.37 46.73 54.4 46.7 Z M 65.3 46.7 C 65.3 46.4 65.2 46.3 64.9 46.3 C 64.89 46.29 64.1 46.3 64.1 46.3 L 64.1 44.1 C 64.1 44.1 66.51 44.13 66.5 44.1 C 67.5 44.1 67.9 44.6 67.9 45.5 C 67.9 45.5 67.9 55.8 67.9 55.8 C 67.9 56 68 56.2 68.3 56.2 C 68.31 56.19 69.1 56.2 69.1 56.2 L 69.1 58.3 C 69.1 58.3 66.69 58.33 66.7 58.3 C 65.7 58.3 65.3 57.9 65.3 57 C 65.3 57 65.3 46.7 65.3 46.7 Z M 71.2 50.7 C 71.2 50.4 71 50.3 70.7 50.3 C 70.73 50.29 69.9 50.3 69.9 50.3 L 69.9 48.1 C 69.9 48.1 72.35 48.13 72.4 48.1 C 73.3 48.1 73.7 48.6 73.7 49.5 C 73.7 49.5 73.7 54.2 73.7 54.2 C 73.7 55.4 74 56.3 75.3 56.3 C 77.1 56.3 78.1 54.6 78.1 52.8 C 78.13 52.81 78.1 48.1 78.1 48.1 L 80.7 48.1 C 80.7 48.1 80.67 55.75 80.7 55.8 C 80.7 56 80.8 56.2 81.1 56.2 C 81.11 56.19 81.9 56.2 81.9 56.2 L 81.9 58.3 C 81.9 58.3 79.57 58.33 79.6 58.3 C 78.7 58.3 78.2 57.9 78.2 57.2 C 78.2 57.2 78.2 56.9 78.2 56.9 C 78.23 56.67 78.3 56.5 78.3 56.5 C 78.3 56.5 78.21 56.45 78.2 56.5 C 77.7 57.5 76.5 58.6 74.7 58.6 C 72.5 58.6 71.2 57.5 71.2 54.7 C 71.2 54.7 71.2 50.7 71.2 50.7 Z " stroke="none" fill="#ee3078"/>  </g>  <g id="Polygon81168">    <path d="M 19.7 30.5 C 19.7 30.5 21.17 32.21 23.2 32.2 C 24.2 32.2 25.2 31.6 25.2 30.5 C 25.2 28.1 18.5 28.3 18.5 23.9 C 18.5 21.6 20.5 19.9 23.3 19.9 C 24.9 19.9 27.5 20.7 27.5 22.7 C 27.47 22.69 27.5 24 27.5 24 L 25.1 24 C 25.1 24 25.11 23.37 25.1 23.4 C 25.1 22.7 24.2 22.3 23.2 22.3 C 22 22.3 21.2 22.9 21.2 23.8 C 21.2 26.2 27.8 25.7 27.8 30.4 C 27.8 32.7 26.1 34.6 23.1 34.6 C 19.97 34.57 18.2 32.4 18.2 32.4 L 19.7 30.5 Z M 30.3 26.2 L 29 26.2 L 29 24.1 L 30.3 24.1 L 30.3 21.4 L 32.8 21.4 L 32.8 24.1 L 35.1 24.1 L 35.1 26.2 L 32.8 26.2 C 32.8 26.2 32.81 30.27 32.8 30.3 C 32.8 32 34.1 32.2 34.8 32.2 C 35.11 32.19 35.3 32.2 35.3 32.2 L 35.3 34.4 C 35.3 34.4 34.97 34.43 34.5 34.4 C 33.1 34.4 30.3 34 30.3 30.6 C 30.27 30.59 30.3 26.2 30.3 26.2 Z M 42.6 27.9 C 42.63 27.93 43 27.9 43 27.9 C 43 27.9 42.95 27.85 43 27.9 C 43 26.4 42.4 25.9 41.1 25.9 C 40.6 25.9 39.7 26 39.7 26.5 C 39.71 26.53 39.7 27.1 39.7 27.1 L 37.4 27.1 C 37.4 27.1 37.35 25.99 37.4 26 C 37.4 24.1 40 23.9 41.1 23.9 C 44.5 23.9 45.5 25.7 45.5 28 C 45.5 28 45.5 31.8 45.5 31.8 C 45.5 32 45.7 32.2 45.9 32.2 C 45.93 32.19 46.7 32.2 46.7 32.2 L 46.7 34.3 C 46.7 34.3 44.45 34.33 44.5 34.3 C 43.5 34.3 43.2 33.8 43.2 33.2 C 43.15 32.95 43.2 32.8 43.2 32.8 L 43.1 32.8 C 43.1 32.8 42.35 34.57 40.1 34.6 C 38.2 34.6 36.6 33.4 36.6 31.4 C 36.6 28.2 41 27.9 42.6 27.9 Z M 40.7 32.6 C 42 32.6 43 31.2 43 29.9 C 42.99 29.91 43 29.7 43 29.7 C 43 29.7 42.55 29.67 42.6 29.7 C 41.2 29.7 39.1 29.9 39.1 31.3 C 39.1 32 39.6 32.6 40.7 32.6 Z M 48.7 22.7 C 48.7 22.4 48.5 22.3 48.3 22.3 C 48.25 22.29 47.5 22.3 47.5 22.3 L 47.5 20.1 C 47.5 20.1 49.87 20.13 49.9 20.1 C 50.8 20.1 51.2 20.6 51.2 21.5 C 51.2 21.5 51.2 24.5 51.2 24.5 C 51.23 24.95 51.2 25.3 51.2 25.3 L 51.2 25.3 C 51.2 25.3 52.13 23.89 54.3 23.9 C 57.1 23.9 58.8 26.1 58.8 29.2 C 58.8 32.5 56.8 34.6 54.1 34.6 C 52.01 34.57 51.1 33.1 51.1 33.1 L 51.1 33.1 C 51.1 33.1 51.09 33.41 51.1 33.8 C 51.09 33.81 51.1 34.3 51.1 34.3 L 48.7 34.3 C 48.7 34.3 48.69 22.73 48.7 22.7 Z M 53.7 32.4 C 55.1 32.4 56.3 31.3 56.3 29.3 C 56.3 27.3 55.2 26.1 53.7 26.1 C 52.4 26.1 51.2 27 51.2 29.3 C 51.2 30.9 52 32.4 53.7 32.4 Z M 61.3 20.1 L 63.5 20.1 L 63.5 22.5 L 61.3 22.5 L 61.3 20.1 Z M 61.2 26.7 C 61.2 26.4 61.1 26.3 60.8 26.3 C 60.77 26.29 60 26.3 60 26.3 L 60 24.1 C 60 24.1 62.39 24.13 62.4 24.1 C 63.3 24.1 63.7 24.6 63.7 25.5 C 63.7 25.5 63.7 31.8 63.7 31.8 C 63.7 32 63.9 32.2 64.2 32.2 C 64.17 32.19 65 32.2 65 32.2 L 65 34.3 C 65 34.3 62.55 34.33 62.6 34.3 C 61.6 34.3 61.2 33.9 61.2 33 C 61.2 33 61.2 26.7 61.2 26.7 Z M 67.1 22.7 C 67.1 22.4 66.9 22.3 66.6 22.3 C 66.61 22.29 65.8 22.3 65.8 22.3 L 65.8 20.1 C 65.8 20.1 68.23 20.13 68.2 20.1 C 69.2 20.1 69.6 20.6 69.6 21.5 C 69.6 21.5 69.6 31.8 69.6 31.8 C 69.6 32 69.8 32.2 70 32.2 C 70.03 32.19 70.8 32.2 70.8 32.2 L 70.8 34.3 C 70.8 34.3 68.41 34.33 68.4 34.3 C 67.5 34.3 67.1 33.9 67.1 33 C 67.1 33 67.1 22.7 67.1 22.7 Z M 73.1 20.1 L 75.3 20.1 L 75.3 22.5 L 73.1 22.5 L 73.1 20.1 Z M 73 26.7 C 73 26.4 72.9 26.3 72.6 26.3 C 72.57 26.29 71.8 26.3 71.8 26.3 L 71.8 24.1 C 71.8 24.1 74.19 24.13 74.2 24.1 C 75.1 24.1 75.5 24.6 75.5 25.5 C 75.5 25.5 75.5 31.8 75.5 31.8 C 75.5 32 75.7 32.2 76 32.2 C 75.97 32.19 76.8 32.2 76.8 32.2 L 76.8 34.3 C 76.8 34.3 74.35 34.33 74.4 34.3 C 73.4 34.3 73 33.9 73 33 C 73 33 73 26.7 73 26.7 Z M 79 26.2 L 77.6 26.2 L 77.6 24.1 L 79 24.1 L 79 21.4 L 81.5 21.4 L 81.5 24.1 L 83.8 24.1 L 83.8 26.2 L 81.5 26.2 C 81.5 26.2 81.49 30.27 81.5 30.3 C 81.5 32 82.8 32.2 83.5 32.2 C 83.79 32.19 84 32.2 84 32.2 L 84 34.4 C 84 34.4 83.65 34.43 83.2 34.4 C 81.8 34.4 79 34 79 30.6 C 78.95 30.59 79 26.2 79 26.2 Z M 91.3 27.9 C 91.31 27.93 91.6 27.9 91.6 27.9 C 91.6 27.9 91.63 27.85 91.6 27.9 C 91.6 26.4 91.1 25.9 89.8 25.9 C 89.3 25.9 88.4 26 88.4 26.5 C 88.39 26.53 88.4 27.1 88.4 27.1 L 86 27.1 C 86 27.1 86.03 25.99 86 26 C 86 24.1 88.7 23.9 89.8 23.9 C 93.2 23.9 94.2 25.7 94.2 28 C 94.2 28 94.2 31.8 94.2 31.8 C 94.2 32 94.3 32.2 94.6 32.2 C 94.61 32.19 95.4 32.2 95.4 32.2 L 95.4 34.3 C 95.4 34.3 93.13 34.33 93.1 34.3 C 92.2 34.3 91.8 33.8 91.8 33.2 C 91.83 32.95 91.9 32.8 91.9 32.8 L 91.8 32.8 C 91.8 32.8 91.03 34.57 88.7 34.6 C 86.9 34.6 85.3 33.4 85.3 31.4 C 85.3 28.2 89.7 27.9 91.3 27.9 Z M 89.4 32.6 C 90.7 32.6 91.7 31.2 91.7 29.9 C 91.67 29.91 91.7 29.7 91.7 29.7 C 91.7 29.7 91.23 29.67 91.2 29.7 C 89.9 29.7 87.8 29.9 87.8 31.3 C 87.8 32 88.3 32.6 89.4 32.6 Z " stroke="none" fill="#ee3078"/>  </g></svg>