<?xml version="1.0" standalone="no"?><!DOCTYPE svg PUBLIC "-//W3C//DTD SVG 1.1//EN" "http://www.w3.org/Graphics/SVG/1.1/DTD/svg11.dtd"><svg xmlns="http://www.w3.org/2000/svg" version="1.1" width="137.1px" height="39.5px" viewBox="0 -3 137.1 39.5" style="top:-3px">  <desc>Prsia2 Stimuluje rast</desc>  <defs/>  <g id="Polygon67919">    <path d="M 0.8 23.9 C 0.8 23.9 1.51 24.81 2.6 24.8 C 3.4 24.8 4 24.3 4 23.6 C 4 21.8 0.5 22.2 0.5 20 C 0.5 19 1.4 18.2 2.7 18.2 C 3.4 18.2 4.6 18.5 4.6 19.4 C 4.59 19.39 4.6 19.9 4.6 19.9 L 3.9 19.9 C 3.9 19.9 3.93 19.56 3.9 19.6 C 3.9 19.1 3.4 18.8 2.7 18.8 C 1.8 18.8 1.3 19.4 1.3 20 C 1.3 21.6 4.7 21.2 4.7 23.5 C 4.7 24.6 3.9 25.5 2.6 25.5 C 1.16 25.45 0.4 24.5 0.4 24.5 L 0.8 23.9 Z M 6.1 20.9 L 5.5 20.9 L 5.5 20.3 L 6.1 20.3 L 6.1 18.9 L 6.8 18.9 L 6.8 20.3 L 8 20.3 L 8 20.9 L 6.8 20.9 C 6.8 20.9 6.79 23.43 6.8 23.4 C 6.8 24.6 7.5 24.8 7.9 24.8 C 8.06 24.77 8.1 24.7 8.1 24.7 L 8.1 25.4 C 8.1 25.4 8.03 25.37 7.9 25.4 C 7.3 25.4 6.1 25.2 6.1 23.5 C 6.11 23.5 6.1 20.9 6.1 20.9 Z M 9.4 18.3 L 10.1 18.3 L 10.1 19.2 L 9.4 19.2 L 9.4 18.3 Z M 9.5 21.1 C 9.5 21 9.4 20.9 9.2 20.9 C 9.23 20.89 8.8 20.9 8.8 20.9 L 8.8 20.3 C 8.8 20.3 9.52 20.31 9.5 20.3 C 9.9 20.3 10.1 20.5 10.1 20.9 C 10.1 20.9 10.1 24.5 10.1 24.5 C 10.1 24.7 10.2 24.7 10.3 24.7 C 10.35 24.75 10.8 24.7 10.8 24.7 L 10.8 25.3 C 10.8 25.3 10.06 25.33 10.1 25.3 C 9.6 25.3 9.5 25.2 9.5 24.7 C 9.5 24.7 9.5 21.1 9.5 21.1 Z M 11.9 21.1 C 11.9 21 11.8 20.9 11.7 20.9 C 11.69 20.89 11.3 20.9 11.3 20.9 L 11.3 20.3 C 11.3 20.3 11.97 20.31 12 20.3 C 12.4 20.3 12.6 20.5 12.6 20.9 C 12.6 20.9 12.6 21.1 12.6 21.1 C 12.58 21.29 12.6 21.5 12.6 21.5 C 12.6 21.5 12.58 21.45 12.6 21.5 C 12.8 20.8 13.6 20.2 14.4 20.2 C 15.3 20.2 15.8 20.6 16 21.4 C 16 21.4 16 21.4 16 21.4 C 16.2 20.8 17 20.2 17.8 20.2 C 19 20.2 19.5 20.9 19.5 22.1 C 19.5 22.1 19.5 24.5 19.5 24.5 C 19.5 24.7 19.6 24.7 19.7 24.7 C 19.72 24.75 20.1 24.7 20.1 24.7 L 20.1 25.3 C 20.1 25.3 19.43 25.33 19.4 25.3 C 19 25.3 18.8 25.2 18.8 24.7 C 18.8 24.7 18.8 22.3 18.8 22.3 C 18.8 21.5 18.7 20.8 17.7 20.8 C 17 20.8 16.3 21.5 16.1 22.2 C 16.1 22.4 16 22.7 16 23 C 16.05 22.95 16 25.3 16 25.3 L 15.4 25.3 C 15.4 25.3 15.37 22.3 15.4 22.3 C 15.4 21.5 15.3 20.8 14.3 20.8 C 13.5 20.8 12.9 21.5 12.7 22.3 C 12.6 22.5 12.6 22.7 12.6 23 C 12.59 22.95 12.6 25.3 12.6 25.3 L 11.9 25.3 C 11.9 25.3 11.91 21.11 11.9 21.1 Z M 21.2 21.1 C 21.2 21 21.1 20.9 21 20.9 C 20.98 20.89 20.6 20.9 20.6 20.9 L 20.6 20.3 C 20.6 20.3 21.27 20.31 21.3 20.3 C 21.7 20.3 21.9 20.5 21.9 20.9 C 21.9 20.9 21.9 23.3 21.9 23.3 C 21.9 24.1 22 24.8 23 24.8 C 24.1 24.8 24.8 23.8 24.8 22.7 C 24.83 22.71 24.8 20.3 24.8 20.3 L 25.5 20.3 C 25.5 20.3 25.51 24.53 25.5 24.5 C 25.5 24.7 25.6 24.7 25.7 24.7 C 25.73 24.75 26.1 24.7 26.1 24.7 L 26.1 25.3 C 26.1 25.3 25.46 25.33 25.5 25.3 C 25 25.3 24.9 25.2 24.9 24.8 C 24.9 24.8 24.9 24.5 24.9 24.5 C 24.9 24.3 24.9 24.2 24.9 24.2 C 24.9 24.2 24.9 24.2 24.9 24.2 C 24.7 24.7 24 25.5 22.9 25.5 C 21.7 25.5 21.2 24.8 21.2 23.5 C 21.2 23.5 21.2 21.1 21.2 21.1 Z M 27.2 19.1 C 27.2 19 27.2 18.9 27 18.9 C 27.02 18.89 26.6 18.9 26.6 18.9 L 26.6 18.3 C 26.6 18.3 27.31 18.31 27.3 18.3 C 27.7 18.3 27.9 18.5 27.9 18.9 C 27.9 18.9 27.9 24.5 27.9 24.5 C 27.9 24.7 28 24.7 28.1 24.7 C 28.14 24.75 28.6 24.7 28.6 24.7 L 28.6 25.3 C 28.6 25.3 27.85 25.33 27.8 25.3 C 27.4 25.3 27.2 25.2 27.2 24.7 C 27.2 24.7 27.2 19.1 27.2 19.1 Z M 29.7 21.1 C 29.7 21 29.6 20.9 29.5 20.9 C 29.46 20.89 29 20.9 29 20.9 L 29 20.3 C 29 20.3 29.75 20.31 29.8 20.3 C 30.2 20.3 30.4 20.5 30.4 20.9 C 30.4 20.9 30.4 23.3 30.4 23.3 C 30.4 24.1 30.5 24.8 31.5 24.8 C 32.6 24.8 33.3 23.8 33.3 22.7 C 33.31 22.71 33.3 20.3 33.3 20.3 L 34 20.3 C 34 20.3 33.99 24.53 34 24.5 C 34 24.7 34.1 24.7 34.2 24.7 C 34.21 24.75 34.6 24.7 34.6 24.7 L 34.6 25.3 C 34.6 25.3 33.94 25.33 33.9 25.3 C 33.5 25.3 33.3 25.2 33.3 24.8 C 33.3 24.8 33.3 24.5 33.3 24.5 C 33.3 24.3 33.4 24.2 33.4 24.2 C 33.4 24.2 33.3 24.2 33.3 24.2 C 33.1 24.7 32.5 25.5 31.4 25.5 C 30.2 25.5 29.7 24.8 29.7 23.5 C 29.7 23.5 29.7 21.1 29.7 21.1 Z M 36 18.3 L 36.6 18.3 L 36.6 19.2 L 36 19.2 L 36 18.3 Z M 34.9 26.8 C 35.3 26.8 36 26.6 36 25.5 C 36 25.5 36 21.1 36 21.1 C 36 21 35.9 20.9 35.8 20.9 C 35.79 20.89 35.4 20.9 35.4 20.9 L 35.4 20.3 C 35.4 20.3 36.08 20.31 36.1 20.3 C 36.5 20.3 36.7 20.5 36.7 20.9 C 36.7 20.9 36.7 25.5 36.7 25.5 C 36.7 27.2 35.5 27.4 34.9 27.4 C 34.8 27.4 34.7 27.4 34.7 27.4 C 34.65 27.36 34.7 26.8 34.7 26.8 C 34.7 26.8 34.74 26.79 34.9 26.8 Z M 40.4 20.2 C 41.8 20.2 42.5 21.3 42.5 22.5 C 42.53 22.62 42.5 22.8 42.5 22.8 C 42.5 22.8 38.65 22.84 38.6 22.8 C 38.7 24.1 39.6 24.8 40.6 24.8 C 41.52 24.85 42.1 24.2 42.1 24.2 L 42.4 24.7 C 42.4 24.7 41.71 25.45 40.6 25.5 C 39.1 25.5 37.9 24.4 37.9 22.8 C 37.9 21.2 39.1 20.2 40.4 20.2 Z M 41.8 22.3 C 41.8 21.3 41.1 20.8 40.4 20.8 C 39.6 20.8 38.8 21.3 38.7 22.3 C 38.7 22.3 41.8 22.3 41.8 22.3 Z M 46.6 21.1 C 46.6 21 46.5 20.9 46.4 20.9 C 46.39 20.89 46 20.9 46 20.9 L 46 20.3 C 46 20.3 46.67 20.31 46.7 20.3 C 47.1 20.3 47.3 20.5 47.3 20.9 C 47.3 20.9 47.3 21.2 47.3 21.2 C 47.28 21.42 47.3 21.6 47.3 21.6 C 47.3 21.6 47.28 21.59 47.3 21.6 C 47.5 20.8 48.1 20.3 48.9 20.3 C 49 20.3 49.1 20.3 49.1 20.3 C 49.14 20.29 49.1 21 49.1 21 C 49.1 21 49.02 20.93 48.9 20.9 C 48.2 20.9 47.6 21.5 47.4 22.2 C 47.3 22.6 47.3 22.9 47.3 23.2 C 47.29 23.21 47.3 25.3 47.3 25.3 L 46.6 25.3 C 46.6 25.3 46.61 21.11 46.6 21.1 Z M 52.5 22.2 C 52.51 22.24 52.8 22.2 52.8 22.2 C 52.8 22.2 52.79 22.18 52.8 22.2 C 52.8 21.1 52.4 20.8 51.5 20.8 C 51.2 20.8 50.5 20.8 50.5 21.2 C 50.51 21.19 50.5 21.5 50.5 21.5 L 49.9 21.5 C 49.9 21.5 49.86 21.03 49.9 21 C 49.9 20.3 51.1 20.2 51.5 20.2 C 53.1 20.2 53.5 21 53.5 22.1 C 53.5 22.1 53.5 24.5 53.5 24.5 C 53.5 24.7 53.5 24.7 53.7 24.7 C 53.69 24.75 54.1 24.7 54.1 24.7 L 54.1 25.3 C 54.1 25.3 53.42 25.33 53.4 25.3 C 53 25.3 52.8 25.1 52.8 24.7 C 52.8 24.5 52.8 24.4 52.8 24.4 C 52.8 24.4 52.8 24.4 52.8 24.4 C 52.8 24.4 52.4 25.5 51.1 25.5 C 50.3 25.5 49.4 25 49.4 24 C 49.4 22.3 51.6 22.2 52.5 22.2 Z M 51.2 24.9 C 52.2 24.9 52.8 23.9 52.8 23 C 52.79 23 52.8 22.8 52.8 22.8 C 52.8 22.8 52.5 22.77 52.5 22.8 C 51.7 22.8 50.1 22.8 50.1 23.9 C 50.1 24.4 50.5 24.9 51.2 24.9 Z M 55 24.1 C 55 24.1 55.56 24.87 56.5 24.9 C 57.1 24.9 57.6 24.6 57.6 24.1 C 57.6 23 54.8 23.2 54.8 21.5 C 54.8 20.6 55.6 20.2 56.6 20.2 C 57.1 20.2 58.1 20.4 58.1 21.1 C 58.11 21.09 58.1 21.5 58.1 21.5 L 57.5 21.5 C 57.5 21.5 57.47 21.28 57.5 21.3 C 57.5 20.9 56.9 20.8 56.6 20.8 C 55.9 20.8 55.5 21 55.5 21.5 C 55.5 22.6 58.3 22.4 58.3 24 C 58.3 24.9 57.5 25.5 56.5 25.5 C 55.23 25.45 54.6 24.6 54.6 24.6 L 55 24.1 Z M 59.6 20.9 L 59 20.9 L 59 20.3 L 59.7 20.3 L 59.7 18.9 L 60.3 18.9 L 60.3 20.3 L 61.6 20.3 L 61.6 20.9 L 60.3 20.9 C 60.3 20.9 60.33 23.43 60.3 23.4 C 60.3 24.6 61.1 24.8 61.5 24.8 C 61.6 24.77 61.7 24.7 61.7 24.7 L 61.7 25.4 C 61.7 25.4 61.57 25.37 61.4 25.4 C 60.8 25.4 59.6 25.2 59.6 23.5 C 59.65 23.5 59.6 20.9 59.6 20.9 Z " stroke="none" fill="#000"/>  </g>  <g id="Polygon67918">    <path d="M 1.4 2.1 L 0.5 2.1 L 0.5 0.6 C 0.5 0.6 5.03 0.56 5 0.6 C 6.9 0.6 8.2 1.9 8.2 3.8 C 8.2 5.7 6.9 7.1 5 7.1 C 5.03 7.07 3.2 7.1 3.2 7.1 L 3.2 10.5 L 1.4 10.5 L 1.4 2.1 Z M 4.7 5.5 C 5.7 5.5 6.3 4.8 6.3 3.8 C 6.3 2.8 5.7 2.1 4.7 2.1 C 4.72 2.11 3.2 2.1 3.2 2.1 L 3.2 5.5 C 3.2 5.5 4.69 5.5 4.7 5.5 Z M 9.6 5.2 C 9.6 5 9.5 4.9 9.3 4.9 C 9.32 4.87 8.8 4.9 8.8 4.9 L 8.8 3.4 C 8.8 3.4 10.39 3.36 10.4 3.4 C 11 3.4 11.3 3.6 11.3 4.2 C 11.3 4.2 11.3 4.6 11.3 4.6 C 11.34 4.91 11.3 5.1 11.3 5.1 C 11.3 5.1 11.34 5.1 11.3 5.1 C 11.7 4.1 12.5 3.3 13.6 3.3 C 13.76 3.26 13.9 3.3 13.9 3.3 L 13.9 5 C 13.9 5 13.75 5.01 13.5 5 C 12.7 5 11.9 5.4 11.5 6.5 C 11.5 6.9 11.4 7.3 11.4 7.7 C 11.4 7.67 11.4 10.5 11.4 10.5 L 9.6 10.5 C 9.6 10.5 9.63 5.18 9.6 5.2 Z M 15.4 8.2 C 15.4 8.2 16.34 9.28 17.6 9.3 C 18.1 9.3 18.5 9.1 18.5 8.6 C 18.5 7.6 14.8 7.6 14.8 5.3 C 14.8 3.9 16 3.2 17.5 3.2 C 18.5 3.2 20 3.5 20 4.7 C 20.03 4.68 20 5.4 20 5.4 L 18.5 5.4 C 18.5 5.4 18.47 5.07 18.5 5.1 C 18.5 4.7 18 4.6 17.6 4.6 C 16.9 4.6 16.5 4.8 16.5 5.2 C 16.5 6.3 20.3 6.1 20.3 8.5 C 20.3 9.8 19.1 10.7 17.6 10.7 C 15.6 10.67 14.6 9.4 14.6 9.4 L 15.4 8.2 Z M 22.1 0.6 L 23.6 0.6 L 23.6 2.2 L 22.1 2.2 L 22.1 0.6 Z M 22 5.2 C 22 5 21.9 4.9 21.7 4.9 C 21.7 4.87 21.1 4.9 21.1 4.9 L 21.1 3.4 C 21.1 3.4 22.83 3.36 22.8 3.4 C 23.5 3.4 23.8 3.7 23.8 4.3 C 23.8 4.3 23.8 8.7 23.8 8.7 C 23.8 8.9 23.9 9 24.1 9 C 24.08 9 24.6 9 24.6 9 L 24.6 10.5 C 24.6 10.5 22.95 10.5 22.9 10.5 C 22.3 10.5 22 10.2 22 9.5 C 22 9.5 22 5.2 22 5.2 Z M 29.7 6 C 29.68 6.02 29.9 6 29.9 6 C 29.9 6 29.9 5.96 29.9 6 C 29.9 4.9 29.5 4.6 28.6 4.6 C 28.3 4.6 27.6 4.6 27.6 5 C 27.63 5.04 27.6 5.4 27.6 5.4 L 26 5.4 C 26 5.4 25.98 4.66 26 4.7 C 26 3.3 27.9 3.2 28.6 3.2 C 31 3.2 31.7 4.4 31.7 6 C 31.7 6 31.7 8.7 31.7 8.7 C 31.7 8.9 31.8 9 32 9 C 31.99 9 32.5 9 32.5 9 L 32.5 10.5 C 32.5 10.5 30.95 10.5 31 10.5 C 30.3 10.5 30 10.1 30 9.7 C 30 9.5 30.1 9.4 30.1 9.4 C 30.06 9.41 30 9.4 30 9.4 C 30 9.4 29.48 10.67 27.9 10.7 C 26.6 10.7 25.4 9.9 25.4 8.4 C 25.4 6.2 28.5 6 29.7 6 Z M 28.3 9.3 C 29.3 9.3 29.9 8.3 29.9 7.4 C 29.93 7.41 29.9 7.2 29.9 7.2 C 29.9 7.2 29.62 7.24 29.6 7.2 C 28.7 7.2 27.2 7.4 27.2 8.4 C 27.2 8.8 27.6 9.3 28.3 9.3 Z M 35.9 1.7 C 35.9 1.2 35.6 0.9 35.1 0.9 C 34.6 0.9 34.3 1.2 34.3 1.4 C 34.32 1.38 34.3 1.6 34.3 1.6 L 33.4 1.6 C 33.4 1.6 33.35 1.06 33.4 1.1 C 33.4 0.3 34.4 -0.1 35.1 -0.1 C 36.1 -0.1 37 0.6 37 1.7 C 37 3.6 34.2 3.7 34.2 4.8 C 34.2 4.9 34.3 4.9 34.4 4.9 C 34.4 4.9 36.1 4.9 36.1 4.9 C 36.2 4.9 36.3 4.9 36.3 4.8 C 36.29 4.75 36.3 4.4 36.3 4.4 L 37.3 4.4 C 37.3 4.4 37.26 5.28 37.3 5.3 C 37.3 5.7 37.1 5.8 36.7 5.8 C 36.7 5.8 33.7 5.8 33.7 5.8 C 33.2 5.8 33.1 5.6 33.1 5.1 C 33.1 3 35.9 3.1 35.9 1.7 Z " stroke="none" fill="#5f0f50"/>  </g></svg>