<?xml version="1.0" standalone="no"?><!DOCTYPE svg PUBLIC "-//W3C//DTD SVG 1.1//EN" "http://www.w3.org/Graphics/SVG/1.1/DTD/svg11.dtd"><svg xmlns="http://www.w3.org/2000/svg" version="1.1" width="152px" height="127.5px" viewBox="-54 -55 152 127.5" style="left:-54px;top:-55px">  <desc>31.9%</desc>  <defs/>  <g id="Polygon80064">    <path d="M 10.2 12.6 C 9.8 12.6 9.3 12.5 8.8 12.4 C 8.83 12.42 8.8 11.7 8.8 11.7 C 8.8 11.7 8.89 11.69 8.9 11.7 C 9.1 11.7 9.2 11.8 9.5 11.8 C 9.7 11.8 9.9 11.8 10.1 11.8 C 10.7 11.8 11.2 11.7 11.5 11.4 C 11.8 11.1 12 10.7 12 10.2 C 12 9.7 11.8 9.2 11.5 8.9 C 11.1 8.7 10.6 8.5 9.9 8.5 C 9.95 8.52 9.6 8.5 9.6 8.5 L 9.6 7.8 C 9.6 7.8 9.94 7.8 9.9 7.8 C 10.5 7.8 11 7.7 11.3 7.4 C 11.6 7.1 11.7 6.8 11.7 6.2 C 11.7 5.2 11.2 4.7 10.2 4.7 C 10 4.7 9.8 4.7 9.6 4.8 C 9.4 4.8 9.2 4.8 8.9 4.9 C 8.93 4.87 8.8 4.9 8.8 4.9 C 8.8 4.9 8.79 4.15 8.8 4.2 C 9 4.1 9.3 4 9.5 4 C 9.8 4 10 4 10.3 4 C 11 4 11.6 4.2 12 4.5 C 12.5 4.9 12.7 5.4 12.7 6.1 C 12.7 6.6 12.5 7.1 12.3 7.4 C 12.1 7.7 11.7 8 11.3 8.1 C 11.3 8.1 11.3 8.2 11.3 8.2 C 11.8 8.3 12.2 8.5 12.5 8.9 C 12.7 9.2 12.9 9.7 12.9 10.3 C 12.9 11 12.7 11.6 12.2 12 C 11.7 12.4 11.1 12.6 10.2 12.6 Z M 15.5 5.2 L 15.5 5.2 L 13.9 6.1 L 13.8 6.1 L 13.6 5.7 L 13.6 5.6 L 15.8 4.1 L 16.5 4.1 L 16.5 12.5 L 15.5 12.5 L 15.5 5.2 Z M 19.2 11.9 C 19.2 12.3 19 12.5 18.6 12.5 C 18.2 12.5 18 12.3 18 11.9 C 18 11.6 18.2 11.4 18.6 11.4 C 18.8 11.4 19 11.4 19.1 11.5 C 19.2 11.6 19.2 11.7 19.2 11.9 C 19.2 11.9 19.2 11.9 19.2 11.9 Z M 22.7 4 C 23.5 4 24.2 4.3 24.7 4.9 C 25.1 5.6 25.3 6.5 25.3 7.8 C 25.3 8.6 25.3 9.2 25.1 9.8 C 25 10.4 24.7 10.9 24.5 11.3 C 24.2 11.8 23.8 12.1 23.4 12.3 C 23 12.5 22.5 12.6 21.9 12.6 C 21.7 12.6 21.5 12.6 21.3 12.6 C 21.1 12.5 20.9 12.5 20.6 12.4 C 20.6 12.4 20.7 11.6 20.7 11.6 C 20.9 11.7 21.2 11.8 21.3 11.8 C 21.5 11.8 21.7 11.8 21.9 11.8 C 22.7 11.8 23.3 11.5 23.7 11 C 24.1 10.4 24.4 9.5 24.4 8.4 C 24.2 8.7 23.9 8.9 23.5 9 C 23.2 9.2 22.9 9.2 22.5 9.2 C 22.2 9.2 21.8 9.2 21.5 9.1 C 21.2 8.9 21 8.8 20.8 8.6 C 20.6 8.4 20.4 8.1 20.3 7.8 C 20.2 7.5 20.1 7.1 20.1 6.8 C 20.1 6.3 20.2 6 20.3 5.6 C 20.4 5.3 20.6 5 20.8 4.7 C 21 4.5 21.3 4.3 21.6 4.2 C 21.9 4 22.3 4 22.7 4 Z M 22.7 8.5 C 23 8.5 23.3 8.5 23.6 8.3 C 23.9 8.1 24.2 7.9 24.4 7.7 C 24.4 6.7 24.3 5.9 24 5.4 C 23.7 5 23.3 4.7 22.7 4.7 C 22.2 4.7 21.8 4.9 21.5 5.3 C 21.2 5.6 21.1 6.1 21.1 6.8 C 21.1 7.3 21.2 7.8 21.5 8.1 C 21.8 8.4 22.2 8.5 22.7 8.5 Z M 28.1 9.3 C 27.5 9.3 27.1 9.1 26.7 8.6 C 26.4 8.2 26.3 7.5 26.3 6.6 C 26.3 5.8 26.4 5.1 26.8 4.6 C 27.1 4.2 27.5 4 28.1 4 C 28.7 4 29.2 4.2 29.5 4.6 C 29.8 5.1 30 5.8 30 6.6 C 30 7.5 29.8 8.2 29.5 8.6 C 29.2 9.1 28.7 9.3 28.1 9.3 Z M 27 6.6 C 27 8 27.4 8.6 28.1 8.6 C 28.9 8.6 29.2 8 29.2 6.6 C 29.2 5.3 28.9 4.6 28.1 4.6 C 27.4 4.6 27 5.3 27 6.6 C 27 6.6 27 6.6 27 6.6 Z M 33.4 12.6 C 32.8 12.6 32.3 12.4 32 11.9 C 31.7 11.5 31.5 10.8 31.5 10 C 31.5 9.1 31.7 8.4 32 8 C 32.3 7.5 32.8 7.3 33.4 7.3 C 34 7.3 34.4 7.5 34.8 8 C 35.1 8.4 35.2 9.1 35.2 10 C 35.2 10.8 35.1 11.5 34.8 11.9 C 34.4 12.4 34 12.6 33.4 12.6 Z M 32.3 10 C 32.3 11.3 32.6 12 33.4 12 C 34.1 12 34.5 11.3 34.5 10 C 34.5 8.6 34.1 8 33.4 8 C 32.6 8 32.3 8.6 32.3 10 C 32.3 10 32.3 10 32.3 10 Z M 32 4.1 L 32.8 4.1 L 29.5 12.5 L 28.7 12.5 L 32 4.1 Z " stroke="none" fill="#ee3078"/>  </g></svg>