<?xml version="1.0" standalone="no"?><!DOCTYPE svg PUBLIC "-//W3C//DTD SVG 1.1//EN" "http://www.w3.org/Graphics/SVG/1.1/DTD/svg11.dtd"><svg xmlns="http://www.w3.org/2000/svg" version="1.1" width="44px" height="19.5px" viewBox="0 -1 44 19.5" style="top:-1px">  <desc>31.0%</desc>  <defs/>  <g id="Polygon80117">    <path d="M 10 12.6 C 9.6 12.6 9.1 12.5 8.6 12.4 C 8.64 12.42 8.6 11.7 8.6 11.7 C 8.6 11.7 8.71 11.69 8.7 11.7 C 8.9 11.7 9.1 11.8 9.3 11.8 C 9.5 11.8 9.7 11.8 9.9 11.8 C 10.5 11.8 11 11.7 11.3 11.4 C 11.6 11.1 11.8 10.7 11.8 10.2 C 11.8 9.7 11.6 9.2 11.3 8.9 C 11 8.7 10.4 8.5 9.8 8.5 C 9.76 8.52 9.4 8.5 9.4 8.5 L 9.4 7.8 C 9.4 7.8 9.75 7.8 9.7 7.8 C 10.3 7.8 10.8 7.7 11.1 7.4 C 11.4 7.1 11.6 6.8 11.6 6.2 C 11.6 5.2 11 4.7 10 4.7 C 9.8 4.7 9.6 4.7 9.4 4.8 C 9.2 4.8 9 4.8 8.7 4.9 C 8.74 4.87 8.7 4.9 8.7 4.9 C 8.7 4.9 8.6 4.15 8.6 4.2 C 8.8 4.1 9.1 4 9.3 4 C 9.6 4 9.8 4 10.1 4 C 10.8 4 11.4 4.2 11.9 4.5 C 12.3 4.9 12.5 5.4 12.5 6.1 C 12.5 6.6 12.4 7.1 12.1 7.4 C 11.9 7.7 11.5 8 11.1 8.1 C 11.1 8.1 11.1 8.2 11.1 8.2 C 11.6 8.3 12 8.5 12.3 8.9 C 12.6 9.2 12.7 9.7 12.7 10.3 C 12.7 11 12.5 11.6 12 12 C 11.5 12.4 10.9 12.6 10 12.6 Z M 15.4 5.2 L 15.3 5.2 L 13.7 6.1 L 13.6 6.1 L 13.4 5.7 L 13.4 5.6 L 15.6 4.1 L 16.3 4.1 L 16.3 12.5 L 15.4 12.5 L 15.4 5.2 Z M 19 11.9 C 19 12.3 18.8 12.5 18.4 12.5 C 18.1 12.5 17.9 12.3 17.9 11.9 C 17.9 11.6 18.1 11.4 18.4 11.4 C 18.6 11.4 18.8 11.4 18.9 11.5 C 19 11.6 19 11.7 19 11.9 C 19 11.9 19 11.9 19 11.9 Z M 22.8 12.6 C 21.9 12.6 21.2 12.2 20.7 11.5 C 20.2 10.8 20 9.7 20 8.3 C 20 6.9 20.2 5.8 20.7 5.1 C 21.2 4.3 21.9 4 22.8 4 C 23.7 4 24.3 4.3 24.8 5.1 C 25.3 5.8 25.5 6.9 25.5 8.3 C 25.5 9.7 25.3 10.8 24.8 11.5 C 24.3 12.2 23.7 12.6 22.8 12.6 Z M 22.8 11.8 C 23.4 11.8 23.8 11.5 24.1 10.9 C 24.4 10.4 24.6 9.5 24.6 8.3 C 24.6 7.1 24.4 6.2 24.1 5.6 C 23.8 5 23.4 4.8 22.8 4.8 C 21.5 4.8 20.9 5.9 20.9 8.3 C 20.9 9.5 21.1 10.4 21.4 10.9 C 21.7 11.5 22.1 11.8 22.8 11.8 Z M 28.3 9.3 C 27.7 9.3 27.2 9.1 26.9 8.6 C 26.6 8.2 26.5 7.5 26.5 6.6 C 26.5 5.8 26.6 5.1 26.9 4.6 C 27.3 4.2 27.7 4 28.3 4 C 28.9 4 29.4 4.2 29.7 4.6 C 30 5.1 30.1 5.8 30.1 6.6 C 30.1 7.5 30 8.2 29.7 8.6 C 29.4 9.1 28.9 9.3 28.3 9.3 Z M 27.2 6.6 C 27.2 8 27.6 8.6 28.3 8.6 C 29 8.6 29.4 8 29.4 6.6 C 29.4 5.3 29 4.6 28.3 4.6 C 27.6 4.6 27.2 5.3 27.2 6.6 C 27.2 6.6 27.2 6.6 27.2 6.6 Z M 33.6 12.6 C 33 12.6 32.5 12.4 32.2 11.9 C 31.9 11.5 31.7 10.8 31.7 10 C 31.7 9.1 31.9 8.4 32.2 8 C 32.5 7.5 33 7.3 33.6 7.3 C 34.2 7.3 34.6 7.5 34.9 8 C 35.3 8.4 35.4 9.1 35.4 10 C 35.4 10.8 35.3 11.5 34.9 11.9 C 34.6 12.4 34.2 12.6 33.6 12.6 Z M 32.5 10 C 32.5 11.3 32.8 12 33.6 12 C 34.3 12 34.7 11.3 34.7 10 C 34.7 8.6 34.3 8 33.6 8 C 32.8 8 32.5 8.6 32.5 10 C 32.5 10 32.5 10 32.5 10 Z M 32.1 4.1 L 32.9 4.1 L 29.7 12.5 L 28.9 12.5 L 32.1 4.1 Z " stroke="none" fill="#ee3078"/>  </g></svg>