<?xml version="1.0" standalone="no"?><!DOCTYPE svg PUBLIC "-//W3C//DTD SVG 1.1//EN" "http://www.w3.org/Graphics/SVG/1.1/DTD/svg11.dtd"><svg xmlns="http://www.w3.org/2000/svg" version="1.1" width="723px" height="84px" viewBox="0 -4 723 84" style="top:-4px">  <desc>Drovelis preukazuje maxim lnu metabolick neutralitu, preto e neovplyv uje metabolizmus gluk zy a tukov. Naopak, komb...</desc>  <defs/>  <g id="Polygon74319">    <path d="M 0.7 61.9 C 0.7 61.9 5.84 55.48 5.8 55.5 C 6.28 54.94 6.7 54.5 6.7 54.5 L 6.7 54.5 C 6.7 54.5 6.36 54.54 5.7 54.5 C 5.7 54.5 2.9 54.5 2.9 54.5 C 2.7 54.5 2.5 54.7 2.5 55 C 2.5 54.98 2.5 55.7 2.5 55.7 L 0.7 55.7 C 0.7 55.7 0.72 54.16 0.7 54.2 C 0.7 53.3 1.1 52.9 2 52.9 C 2 52.88 9.2 52.9 9.2 52.9 L 9.2 54 C 9.2 54 4.04 60.42 4 60.4 C 3.62 60.92 3.2 61.3 3.2 61.3 L 3.2 61.4 C 3.2 61.4 3.52 61.34 4.2 61.3 C 4.2 61.3 7.4 61.3 7.4 61.3 C 7.7 61.3 7.9 61.2 7.9 60.9 C 7.86 60.9 7.9 60.2 7.9 60.2 L 9.6 60.2 C 9.6 60.2 9.62 61.72 9.6 61.7 C 9.6 62.6 9.2 63 8.3 63 C 8.34 63 0.7 63 0.7 63 L 0.7 61.9 Z M 16.9 56.7 C 16.94 56.7 17.4 56.7 17.4 56.7 C 17.4 56.7 17.38 56.6 17.4 56.6 C 17.4 54.8 16.7 54.2 15.1 54.2 C 14.7 54.2 13.5 54.3 13.5 55 C 13.48 54.96 13.5 55.5 13.5 55.5 L 11.7 55.5 C 11.7 55.5 11.66 54.54 11.7 54.5 C 11.7 52.9 14.2 52.6 15.2 52.6 C 18.4 52.6 19.3 54.4 19.3 56.6 C 19.3 56.6 19.3 60.9 19.3 60.9 C 19.3 61.2 19.5 61.3 19.8 61.3 C 19.76 61.34 20.6 61.3 20.6 61.3 L 20.6 63 C 20.6 63 18.76 63 18.8 63 C 17.9 63 17.5 62.6 17.5 61.8 C 17.5 61.5 17.5 61.2 17.5 61.2 L 17.5 61.2 C 17.5 61.2 16.7 63.24 14.3 63.2 C 12.5 63.2 10.8 62.2 10.8 60.2 C 10.8 56.9 15.2 56.7 16.9 56.7 Z M 14.7 61.7 C 16.3 61.7 17.4 60 17.4 58.5 C 17.4 58.46 17.4 58.1 17.4 58.1 C 17.4 58.1 16.9 58.12 16.9 58.1 C 15.4 58.1 12.8 58.2 12.8 60.1 C 12.8 60.9 13.4 61.7 14.7 61.7 Z M 22.5 60.2 C 22.5 60.2 23.72 61.66 25.6 61.7 C 26.5 61.7 27.3 61.2 27.3 60.4 C 27.3 58.5 21.8 58.7 21.8 55.5 C 21.8 53.5 23.5 52.6 25.6 52.6 C 26.8 52.6 28.9 53.1 28.9 54.6 C 28.9 54.6 28.9 55.6 28.9 55.6 L 27.2 55.6 C 27.2 55.6 27.16 55.06 27.2 55.1 C 27.2 54.5 26.3 54.2 25.6 54.2 C 24.5 54.2 23.8 54.6 23.8 55.4 C 23.8 57.3 29.3 56.9 29.3 60.3 C 29.3 62.1 27.7 63.2 25.6 63.2 C 22.86 63.24 21.5 61.5 21.5 61.5 L 22.5 60.2 Z M 36.9 56.7 C 36.9 56.7 37.3 56.7 37.3 56.7 C 37.3 56.7 37.34 56.6 37.3 56.6 C 37.3 54.8 36.7 54.2 35.1 54.2 C 34.6 54.2 33.4 54.3 33.4 55 C 33.44 54.96 33.4 55.5 33.4 55.5 L 31.6 55.5 C 31.6 55.5 31.62 54.54 31.6 54.5 C 31.6 52.9 34.1 52.6 35.1 52.6 C 38.4 52.6 39.3 54.4 39.3 56.6 C 39.3 56.6 39.3 60.9 39.3 60.9 C 39.3 61.2 39.4 61.3 39.7 61.3 C 39.72 61.34 40.5 61.3 40.5 61.3 L 40.5 63 C 40.5 63 38.72 63 38.7 63 C 37.8 63 37.5 62.6 37.5 61.8 C 37.46 61.5 37.5 61.2 37.5 61.2 L 37.5 61.2 C 37.5 61.2 36.66 63.24 34.2 63.2 C 32.5 63.2 30.8 62.2 30.8 60.2 C 30.8 56.9 35.2 56.7 36.9 56.7 Z M 34.7 61.7 C 36.3 61.7 37.4 60 37.4 58.5 C 37.36 58.46 37.4 58.1 37.4 58.1 C 37.4 58.1 36.86 58.12 36.9 58.1 C 35.4 58.1 32.8 58.2 32.8 60.1 C 32.8 60.9 33.4 61.7 34.7 61.7 Z M 42.6 51 C 42.6 50.7 42.4 50.5 42.1 50.5 C 42.12 50.54 41.3 50.5 41.3 50.5 L 41.3 48.9 C 41.3 48.9 43.22 48.88 43.2 48.9 C 44.1 48.9 44.5 49.3 44.5 50.1 C 44.5 50.1 44.5 54.1 44.5 54.1 C 44.5 54.54 44.5 54.9 44.5 54.9 C 44.5 54.9 44.5 54.9 44.5 54.9 C 44.9 53.9 46.2 52.6 48.3 52.6 C 50.6 52.6 51.7 53.9 51.7 56.5 C 51.7 56.5 51.7 60.9 51.7 60.9 C 51.7 61.2 51.9 61.3 52.2 61.3 C 52.16 61.34 53 61.3 53 61.3 L 53 63 C 53 63 51.08 63 51.1 63 C 50.2 63 49.8 62.6 49.8 61.7 C 49.8 61.7 49.8 57 49.8 57 C 49.8 55.5 49.5 54.4 47.9 54.4 C 46.3 54.4 45.1 55.5 44.7 56.9 C 44.5 57.3 44.5 57.8 44.5 58.3 C 44.5 58.26 44.5 63 44.5 63 L 42.6 63 C 42.6 63 42.56 50.98 42.6 51 Z M 55 55 C 55 54.7 54.9 54.5 54.6 54.5 C 54.6 54.54 53.8 54.5 53.8 54.5 L 53.8 52.9 C 53.8 52.9 55.68 52.88 55.7 52.9 C 56.6 52.9 57 53.3 57 54.1 C 57 54.1 57 58.9 57 58.9 C 57 60.3 57.3 61.4 58.9 61.4 C 60.9 61.4 62.2 59.6 62.2 57.6 C 62.16 57.62 62.2 52.9 62.2 52.9 L 64.1 52.9 C 64.1 52.9 64.1 60.9 64.1 60.9 C 64.1 61.2 64.3 61.3 64.5 61.3 C 64.54 61.34 65.4 61.3 65.4 61.3 L 65.4 63 C 65.4 63 63.5 63 63.5 63 C 62.6 63 62.2 62.6 62.2 61.9 C 62.2 61.9 62.2 61.5 62.2 61.5 C 62.22 61.18 62.2 60.9 62.2 60.9 C 62.2 60.9 62.2 60.92 62.2 60.9 C 61.8 61.9 60.5 63.2 58.5 63.2 C 56.2 63.2 55 62 55 59.4 C 55 59.4 55 55 55 55 Z M 68 48.9 L 69.8 48.9 L 69.8 50.9 L 68 50.9 L 68 48.9 Z M 65.8 65.4 C 66.6 65.4 68 65.2 68 63.2 C 68 63.2 68 55 68 55 C 68 54.7 67.8 54.5 67.6 54.5 C 67.56 54.54 66.7 54.5 66.7 54.5 L 66.7 52.9 C 66.7 52.9 68.66 52.88 68.7 52.9 C 69.6 52.9 69.9 53.3 69.9 54.2 C 69.9 54.2 69.9 63.3 69.9 63.3 C 69.9 66.7 67.3 67.1 66.1 67.1 C 65.66 67.12 65.4 67.1 65.4 67.1 L 65.4 65.4 C 65.4 65.4 65.58 65.44 65.8 65.4 Z M 77.3 52.6 C 80.2 52.6 81.7 54.8 81.7 57.4 C 81.68 57.64 81.6 58.2 81.6 58.2 C 81.6 58.2 74.24 58.18 74.2 58.2 C 74.4 60.3 75.9 61.6 77.7 61.6 C 79.46 61.56 80.7 60.4 80.7 60.4 L 81.5 61.8 C 81.5 61.8 80.02 63.24 77.6 63.2 C 74.4 63.2 72.2 60.9 72.2 57.9 C 72.2 54.7 74.4 52.6 77.3 52.6 Z M 79.7 56.8 C 79.6 55.1 78.6 54.2 77.3 54.2 C 75.8 54.2 74.6 55.1 74.3 56.8 C 74.3 56.8 79.7 56.8 79.7 56.8 Z M 93.3 52.6 C 95.6 52.64 96.4 54.2 96.4 54.2 L 96.4 54.2 C 96.4 54.2 96.38 53.9 96.4 53.5 C 96.4 53.5 96.4 51 96.4 51 C 96.4 50.7 96.2 50.5 95.9 50.5 C 95.94 50.54 95.1 50.5 95.1 50.5 L 95.1 48.9 C 95.1 48.9 97.04 48.88 97 48.9 C 97.9 48.9 98.3 49.3 98.3 50.2 C 98.3 50.2 98.3 60.9 98.3 60.9 C 98.3 61.2 98.5 61.3 98.8 61.3 C 98.76 61.34 99.6 61.3 99.6 61.3 L 99.6 63 C 99.6 63 97.72 63 97.7 63 C 96.8 63 96.5 62.6 96.5 61.9 C 96.48 61.62 96.5 61.4 96.5 61.4 L 96.5 61.4 C 96.5 61.4 95.62 63.24 93.1 63.2 C 90.4 63.2 88.7 61.1 88.7 57.9 C 88.7 54.7 90.6 52.6 93.3 52.6 Z M 96.4 57.9 C 96.4 56.1 95.5 54.3 93.6 54.3 C 92 54.3 90.7 55.6 90.7 57.9 C 90.7 60.1 91.8 61.6 93.5 61.6 C 95 61.6 96.4 60.5 96.4 57.9 Z M 106.2 52.6 C 109.2 52.6 111.7 54.9 111.7 57.9 C 111.7 61 109.2 63.2 106.2 63.2 C 103.2 63.2 100.8 61 100.8 57.9 C 100.8 54.9 103.2 52.6 106.2 52.6 Z M 106.2 61.6 C 108.1 61.6 109.7 60 109.7 57.9 C 109.7 55.8 108.1 54.3 106.2 54.3 C 104.3 54.3 102.7 55.8 102.7 57.9 C 102.7 60 104.3 61.6 106.2 61.6 Z M 119.4 51 C 119.4 50.7 119.2 50.5 118.9 50.5 C 118.94 50.54 118.1 50.5 118.1 50.5 L 118.1 48.9 C 118.1 48.9 120.04 48.88 120 48.9 C 120.9 48.9 121.3 49.3 121.3 50.1 C 121.3 50.1 121.3 54.1 121.3 54.1 C 121.32 54.54 121.3 54.9 121.3 54.9 C 121.3 54.9 121.32 54.9 121.3 54.9 C 121.8 53.9 123.1 52.6 125.1 52.6 C 127.5 52.6 128.5 53.9 128.5 56.5 C 128.5 56.5 128.5 60.9 128.5 60.9 C 128.5 61.2 128.7 61.3 129 61.3 C 128.98 61.34 129.8 61.3 129.8 61.3 L 129.8 63 C 129.8 63 127.9 63 127.9 63 C 127 63 126.6 62.6 126.6 61.7 C 126.6 61.7 126.6 57 126.6 57 C 126.6 55.5 126.3 54.4 124.7 54.4 C 123.2 54.4 121.9 55.5 121.5 56.9 C 121.4 57.3 121.3 57.8 121.3 58.3 C 121.32 58.26 121.3 63 121.3 63 L 119.4 63 C 119.4 63 119.38 50.98 119.4 51 Z M 131.9 51 C 131.9 50.7 131.7 50.5 131.4 50.5 C 131.42 50.54 130.6 50.5 130.6 50.5 L 130.6 48.9 C 130.6 48.9 132.52 48.88 132.5 48.9 C 133.4 48.9 133.8 49.3 133.8 50.2 C 133.8 50.2 133.8 60.9 133.8 60.9 C 133.8 61.2 134 61.3 134.2 61.3 C 134.24 61.34 135.1 61.3 135.1 61.3 L 135.1 63 C 135.1 63 133.14 63 133.1 63 C 132.2 63 131.9 62.6 131.9 61.7 C 131.9 61.7 131.9 51 131.9 51 Z M 142.4 56.7 C 142.4 56.7 142.8 56.7 142.8 56.7 C 142.8 56.7 142.84 56.6 142.8 56.6 C 142.8 54.8 142.2 54.2 140.6 54.2 C 140.1 54.2 138.9 54.3 138.9 55 C 138.94 54.96 138.9 55.5 138.9 55.5 L 137.1 55.5 C 137.1 55.5 137.12 54.54 137.1 54.5 C 137.1 52.9 139.6 52.6 140.6 52.6 C 143.9 52.6 144.8 54.4 144.8 56.6 C 144.8 56.6 144.8 60.9 144.8 60.9 C 144.8 61.2 144.9 61.3 145.2 61.3 C 145.22 61.34 146 61.3 146 61.3 L 146 63 C 146 63 144.22 63 144.2 63 C 143.3 63 143 62.6 143 61.8 C 142.96 61.5 143 61.2 143 61.2 L 143 61.2 C 143 61.2 142.16 63.24 139.7 63.2 C 138 63.2 136.3 62.2 136.3 60.2 C 136.3 56.9 140.7 56.7 142.4 56.7 Z M 140.2 61.7 C 141.8 61.7 142.9 60 142.9 58.5 C 142.86 58.46 142.9 58.1 142.9 58.1 C 142.9 58.1 142.36 58.12 142.4 58.1 C 140.9 58.1 138.3 58.2 138.3 60.1 C 138.3 60.9 138.9 61.7 140.2 61.7 Z M 151.8 52.6 C 154.1 52.64 154.9 54.2 154.9 54.2 L 154.9 54.2 C 154.9 54.2 154.88 53.9 154.9 53.5 C 154.9 53.5 154.9 51 154.9 51 C 154.9 50.7 154.7 50.5 154.4 50.5 C 154.44 50.54 153.6 50.5 153.6 50.5 L 153.6 48.9 C 153.6 48.9 155.54 48.88 155.5 48.9 C 156.4 48.9 156.8 49.3 156.8 50.2 C 156.8 50.2 156.8 60.9 156.8 60.9 C 156.8 61.2 157 61.3 157.3 61.3 C 157.26 61.34 158.1 61.3 158.1 61.3 L 158.1 63 C 158.1 63 156.22 63 156.2 63 C 155.3 63 155 62.6 155 61.9 C 154.98 61.62 155 61.4 155 61.4 L 155 61.4 C 155 61.4 154.12 63.24 151.6 63.2 C 148.9 63.2 147.2 61.1 147.2 57.9 C 147.2 54.7 149.1 52.6 151.8 52.6 Z M 154.9 57.9 C 154.9 56.1 154 54.3 152.1 54.3 C 150.5 54.3 149.2 55.6 149.2 57.9 C 149.2 60.1 150.3 61.6 152 61.6 C 153.5 61.6 154.9 60.5 154.9 57.9 Z M 160.3 55 C 160.3 54.7 160.2 54.5 159.9 54.5 C 159.9 54.54 159.1 54.5 159.1 54.5 L 159.1 52.9 C 159.1 52.9 161 52.88 161 52.9 C 161.9 52.9 162.3 53.3 162.3 54.2 C 162.3 54.2 162.3 60.9 162.3 60.9 C 162.3 61.2 162.4 61.3 162.7 61.3 C 162.72 61.34 163.5 61.3 163.5 61.3 L 163.5 63 C 163.5 63 161.64 63 161.6 63 C 160.7 63 160.3 62.6 160.3 61.7 C 160.3 61.7 160.3 55 160.3 55 Z M 161.8 48.9 L 163.8 48.9 L 161.9 51.4 L 160.4 51.4 L 161.8 48.9 Z M 165.8 55 C 165.8 54.7 165.6 54.5 165.3 54.5 C 165.34 54.54 164.5 54.5 164.5 54.5 L 164.5 52.9 C 164.5 52.9 166.38 52.88 166.4 52.9 C 167.2 52.9 167.7 53.3 167.7 54 C 167.7 54 167.7 54.4 167.7 54.4 C 167.66 54.7 167.6 55 167.6 55 C 167.6 55 167.66 54.96 167.7 55 C 168.1 54.1 169.3 52.6 171.5 52.6 C 173.9 52.6 174.9 53.9 174.9 56.5 C 174.9 56.5 174.9 60.9 174.9 60.9 C 174.9 61.2 175.1 61.3 175.4 61.3 C 175.38 61.34 176.2 61.3 176.2 61.3 L 176.2 63 C 176.2 63 174.28 63 174.3 63 C 173.4 63 173 62.6 173 61.7 C 173 61.7 173 57 173 57 C 173 55.5 172.7 54.4 171.1 54.4 C 169.5 54.4 168.3 55.4 167.9 56.9 C 167.8 57.3 167.7 57.8 167.7 58.3 C 167.72 58.26 167.7 63 167.7 63 L 165.8 63 C 165.8 63 165.78 54.98 165.8 55 Z M 187.2 52.6 C 189.68 52.64 190.4 54.2 190.4 54.2 L 190.4 54.2 C 190.4 54.2 190.44 54.06 190.4 53.9 C 190.4 53.3 190.8 52.9 191.6 52.9 C 191.56 52.88 193.4 52.9 193.4 52.9 L 193.4 54.5 C 193.4 54.5 192.64 54.54 192.6 54.5 C 192.4 54.5 192.2 54.7 192.2 54.9 C 192.2 54.9 192.2 62.6 192.2 62.6 C 192.2 65.9 189.7 67.2 187.1 67.2 C 185.9 67.2 184.6 66.9 183.6 66.4 C 183.64 66.36 184.3 64.8 184.3 64.8 C 184.3 64.8 185.54 65.48 187.1 65.5 C 188.8 65.5 190.3 64.7 190.3 62.7 C 190.3 62.7 190.3 62 190.3 62 C 190.26 61.66 190.3 61.3 190.3 61.3 C 190.3 61.3 190.26 61.34 190.3 61.3 C 189.7 62.3 188.7 62.9 187.2 62.9 C 184.4 62.9 182.7 60.6 182.7 57.7 C 182.7 54.8 184.3 52.6 187.2 52.6 Z M 190.3 57.7 C 190.3 55.1 189 54.3 187.5 54.3 C 185.7 54.3 184.7 55.6 184.7 57.7 C 184.7 59.8 185.8 61.2 187.6 61.2 C 189 61.2 190.3 60.4 190.3 57.7 Z M 195.5 51 C 195.5 50.7 195.4 50.5 195.1 50.5 C 195.1 50.54 194.3 50.5 194.3 50.5 L 194.3 48.9 C 194.3 48.9 196.2 48.88 196.2 48.9 C 197.1 48.9 197.5 49.3 197.5 50.2 C 197.5 50.2 197.5 60.9 197.5 60.9 C 197.5 61.2 197.6 61.3 197.9 61.3 C 197.92 61.34 198.7 61.3 198.7 61.3 L 198.7 63 C 198.7 63 196.82 63 196.8 63 C 195.9 63 195.5 62.6 195.5 61.7 C 195.5 61.7 195.5 51 195.5 51 Z M 200.9 55 C 200.9 54.7 200.7 54.5 200.5 54.5 C 200.46 54.54 199.6 54.5 199.6 54.5 L 199.6 52.9 C 199.6 52.9 201.54 52.88 201.5 52.9 C 202.5 52.9 202.8 53.3 202.8 54.1 C 202.8 54.1 202.8 58.9 202.8 58.9 C 202.8 60.3 203.1 61.4 204.7 61.4 C 206.8 61.4 208 59.6 208 57.6 C 208.02 57.62 208 52.9 208 52.9 L 210 52.9 C 210 52.9 209.96 60.9 210 60.9 C 210 61.2 210.1 61.3 210.4 61.3 C 210.4 61.34 211.2 61.3 211.2 61.3 L 211.2 63 C 211.2 63 209.36 63 209.4 63 C 208.5 63 208.1 62.6 208.1 61.9 C 208.1 61.9 208.1 61.5 208.1 61.5 C 208.08 61.18 208.1 60.9 208.1 60.9 C 208.1 60.9 208.06 60.92 208.1 60.9 C 207.6 61.9 206.3 63.2 204.3 63.2 C 202.1 63.2 200.9 62 200.9 59.4 C 200.9 59.4 200.9 55 200.9 55 Z M 213.3 51 C 213.3 50.7 213.1 50.5 212.8 50.5 C 212.84 50.54 212 50.5 212 50.5 L 212 48.9 C 212 48.9 213.94 48.88 213.9 48.9 C 214.8 48.9 215.2 49.1 215.2 50 C 215.22 50.04 215.2 56.6 215.2 56.6 C 215.2 56.6 216.12 56.6 216.1 56.6 C 216.5 56.6 216.9 56.5 217.2 56.2 C 217.18 56.16 219.5 52.9 219.5 52.9 L 221.7 52.9 C 221.7 52.9 219 56.64 219 56.6 C 218.54 57.26 218.2 57.4 218.2 57.4 L 218.2 57.4 C 218.2 57.4 218.58 57.56 218.9 58.2 C 218.9 58.2 220.4 60.9 220.4 60.9 C 220.6 61.3 220.8 61.3 221.3 61.3 C 221.28 61.34 221.9 61.3 221.9 61.3 L 221.9 63 C 221.9 63 220.5 63 220.5 63 C 219.6 63 219.3 62.8 218.8 62.1 C 218.8 62.1 217 58.7 217 58.7 C 216.8 58.3 216.3 58.2 216 58.2 C 215.98 58.24 215.2 58.2 215.2 58.2 L 215.2 63 L 213.3 63 C 213.3 63 213.28 50.98 213.3 51 Z M 228.1 52.6 C 231.2 52.6 233.6 54.9 233.6 57.9 C 233.6 61 231.2 63.2 228.1 63.2 C 225.1 63.2 222.7 61 222.7 57.9 C 222.7 54.9 225.1 52.6 228.1 52.6 Z M 228.1 61.6 C 230.1 61.6 231.6 60 231.6 57.9 C 231.6 55.8 230.1 54.3 228.1 54.3 C 226.2 54.3 224.7 55.8 224.7 57.9 C 224.7 60 226.2 61.6 228.1 61.6 Z M 228.8 48.9 L 230.8 48.9 L 228.9 51.4 L 227.4 51.4 L 228.8 48.9 Z M 234.8 61.9 C 234.8 61.9 239.96 55.48 240 55.5 C 240.4 54.94 240.8 54.5 240.8 54.5 L 240.8 54.5 C 240.8 54.5 240.48 54.54 239.8 54.5 C 239.8 54.5 237.1 54.5 237.1 54.5 C 236.8 54.5 236.6 54.7 236.6 55 C 236.62 54.98 236.6 55.7 236.6 55.7 L 234.8 55.7 C 234.8 55.7 234.84 54.16 234.8 54.2 C 234.8 53.3 235.2 52.9 236.1 52.9 C 236.12 52.88 243.4 52.9 243.4 52.9 L 243.4 54 C 243.4 54 238.16 60.42 238.2 60.4 C 237.74 60.92 237.3 61.3 237.3 61.3 L 237.3 61.4 C 237.3 61.4 237.64 61.34 238.3 61.3 C 238.3 61.3 241.5 61.3 241.5 61.3 C 241.8 61.3 242 61.2 242 60.9 C 241.98 60.9 242 60.2 242 60.2 L 243.7 60.2 C 243.7 60.2 243.74 61.72 243.7 61.7 C 243.7 62.6 243.4 63 242.5 63 C 242.46 63 234.8 63 234.8 63 L 234.8 61.9 Z M 246.3 65.5 C 247.1 65.5 247.7 65 248.1 64.1 C 248.08 64.06 248.5 63 248.5 63 C 248.5 63 245.08 54.94 245.1 54.9 C 244.9 54.6 244.8 54.5 244.4 54.5 C 244.44 54.54 244.2 54.5 244.2 54.5 L 244.2 52.9 C 244.2 52.9 245.34 52.88 245.3 52.9 C 246.2 52.9 246.5 53.1 246.8 53.9 C 246.8 53.9 249.1 59.6 249.1 59.6 C 249.28 60.12 249.4 60.8 249.4 60.8 L 249.5 60.8 C 249.5 60.8 249.62 60.12 249.8 59.6 C 249.8 59.6 251.9 53.9 251.9 53.9 C 252.2 53.1 252.6 52.9 253.4 52.9 C 253.4 52.88 254.6 52.9 254.6 52.9 L 254.6 54.5 C 254.6 54.5 254.3 54.54 254.3 54.5 C 254 54.5 253.8 54.6 253.7 54.9 C 253.7 54.9 249.7 64.8 249.7 64.8 C 249 66.4 247.8 67.2 246.4 67.2 C 244.9 67.2 244 66.2 244 66.2 C 244 66.2 244.82 64.8 244.8 64.8 C 244.8 64.8 245.4 65.5 246.3 65.5 Z M 267.1 56.7 C 267.06 56.7 267.5 56.7 267.5 56.7 C 267.5 56.7 267.5 56.6 267.5 56.6 C 267.5 54.8 266.8 54.2 265.3 54.2 C 264.8 54.2 263.6 54.3 263.6 55 C 263.6 54.96 263.6 55.5 263.6 55.5 L 261.8 55.5 C 261.8 55.5 261.78 54.54 261.8 54.5 C 261.8 52.9 264.3 52.6 265.3 52.6 C 268.6 52.6 269.4 54.4 269.4 56.6 C 269.4 56.6 269.4 60.9 269.4 60.9 C 269.4 61.2 269.6 61.3 269.9 61.3 C 269.88 61.34 270.7 61.3 270.7 61.3 L 270.7 63 C 270.7 63 268.88 63 268.9 63 C 268 63 267.6 62.6 267.6 61.8 C 267.62 61.5 267.7 61.2 267.7 61.2 L 267.6 61.2 C 267.6 61.2 266.82 63.24 264.4 63.2 C 262.7 63.2 261 62.2 261 60.2 C 261 56.9 265.4 56.7 267.1 56.7 Z M 264.8 61.7 C 266.5 61.7 267.5 60 267.5 58.5 C 267.52 58.46 267.5 58.1 267.5 58.1 C 267.5 58.1 267.02 58.12 267 58.1 C 265.6 58.1 262.9 58.2 262.9 60.1 C 262.9 60.9 263.5 61.7 264.8 61.7 Z M 278.3 54.4 L 276.9 54.4 L 276.9 52.9 L 278.3 52.9 L 278.3 50.1 L 280.2 50.1 L 280.2 52.9 L 282.6 52.9 L 282.6 54.4 L 280.2 54.4 C 280.2 54.4 280.2 59.08 280.2 59.1 C 280.2 61.1 281.6 61.4 282.3 61.4 C 282.62 61.36 282.8 61.3 282.8 61.3 L 282.8 63 C 282.8 63 282.54 63.08 282.1 63.1 C 280.8 63.1 278.3 62.7 278.3 59.3 C 278.26 59.3 278.3 54.4 278.3 54.4 Z M 285.2 55 C 285.2 54.7 285 54.5 284.7 54.5 C 284.74 54.54 283.9 54.5 283.9 54.5 L 283.9 52.9 C 283.9 52.9 285.82 52.88 285.8 52.9 C 286.7 52.9 287.1 53.3 287.1 54.1 C 287.1 54.1 287.1 58.9 287.1 58.9 C 287.1 60.3 287.4 61.4 289 61.4 C 291.1 61.4 292.3 59.6 292.3 57.6 C 292.3 57.62 292.3 52.9 292.3 52.9 L 294.2 52.9 C 294.2 52.9 294.24 60.9 294.2 60.9 C 294.2 61.2 294.4 61.3 294.7 61.3 C 294.68 61.34 295.5 61.3 295.5 61.3 L 295.5 63 C 295.5 63 293.64 63 293.6 63 C 292.8 63 292.4 62.6 292.4 61.9 C 292.4 61.9 292.4 61.5 292.4 61.5 C 292.36 61.18 292.4 60.9 292.4 60.9 C 292.4 60.9 292.34 60.92 292.3 60.9 C 291.9 61.9 290.6 63.2 288.6 63.2 C 286.3 63.2 285.2 62 285.2 59.4 C 285.2 59.4 285.2 55 285.2 55 Z M 297.6 51 C 297.6 50.7 297.4 50.5 297.1 50.5 C 297.12 50.54 296.3 50.5 296.3 50.5 L 296.3 48.9 C 296.3 48.9 298.22 48.88 298.2 48.9 C 299.1 48.9 299.5 49.1 299.5 50 C 299.5 50.04 299.5 56.6 299.5 56.6 C 299.5 56.6 300.4 56.6 300.4 56.6 C 300.8 56.6 301.2 56.5 301.5 56.2 C 301.46 56.16 303.8 52.9 303.8 52.9 L 306 52.9 C 306 52.9 303.28 56.64 303.3 56.6 C 302.82 57.26 302.5 57.4 302.5 57.4 L 302.5 57.4 C 302.5 57.4 302.86 57.56 303.2 58.2 C 303.2 58.2 304.7 60.9 304.7 60.9 C 304.9 61.3 305.1 61.3 305.6 61.3 C 305.56 61.34 306.2 61.3 306.2 61.3 L 306.2 63 C 306.2 63 304.78 63 304.8 63 C 303.8 63 303.5 62.8 303.1 62.1 C 303.1 62.1 301.3 58.7 301.3 58.7 C 301 58.3 300.6 58.2 300.3 58.2 C 300.26 58.24 299.5 58.2 299.5 58.2 L 299.5 63 L 297.6 63 C 297.6 63 297.56 50.98 297.6 51 Z M 312.4 52.6 C 315.4 52.6 317.9 54.9 317.9 57.9 C 317.9 61 315.4 63.2 312.4 63.2 C 309.4 63.2 307 61 307 57.9 C 307 54.9 309.4 52.6 312.4 52.6 Z M 312.4 61.6 C 314.3 61.6 315.9 60 315.9 57.9 C 315.9 55.8 314.3 54.3 312.4 54.3 C 310.5 54.3 309 55.8 309 57.9 C 309 60 310.5 61.6 312.4 61.6 Z M 319.5 54.9 C 319.4 54.6 319.2 54.5 318.9 54.5 C 318.86 54.54 318.7 54.5 318.7 54.5 L 318.7 52.9 C 318.7 52.9 319.66 52.88 319.7 52.9 C 320.6 52.9 320.9 53.1 321.2 53.9 C 321.2 53.9 323.4 59.7 323.4 59.7 C 323.58 60.28 323.7 61 323.7 61 L 323.8 61 C 323.8 61 323.94 60.28 324.1 59.7 C 324.1 59.7 326.3 53.9 326.3 53.9 C 326.6 53.1 327 52.9 327.8 52.9 C 327.84 52.88 328.8 52.9 328.8 52.9 L 328.8 54.5 C 328.8 54.5 328.58 54.54 328.6 54.5 C 328.2 54.5 328 54.6 327.9 54.9 C 327.92 54.94 324.8 63 324.8 63 L 322.6 63 C 322.6 63 319.48 54.94 319.5 54.9 Z M 335.5 54.9 C 335.4 54.6 335.2 54.5 334.9 54.5 C 334.88 54.54 334.7 54.5 334.7 54.5 L 334.7 52.9 C 334.7 52.9 335.68 52.88 335.7 52.9 C 336.6 52.9 336.9 53.1 337.2 53.9 C 337.2 53.9 339.4 59.7 339.4 59.7 C 339.6 60.28 339.8 61 339.8 61 L 339.8 61 C 339.8 61 339.96 60.28 340.2 59.7 C 340.2 59.7 342.3 53.9 342.3 53.9 C 342.6 53.1 343 52.9 343.9 52.9 C 343.86 52.88 344.8 52.9 344.8 52.9 L 344.8 54.5 C 344.8 54.5 344.6 54.54 344.6 54.5 C 344.3 54.5 344.1 54.6 343.9 54.9 C 343.94 54.94 340.9 63 340.9 63 L 338.6 63 C 338.6 63 335.5 54.94 335.5 54.9 Z M 347.4 65.5 C 348.2 65.5 348.8 65 349.2 64.1 C 349.22 64.06 349.7 63 349.7 63 C 349.7 63 346.22 54.94 346.2 54.9 C 346.1 54.6 345.9 54.5 345.6 54.5 C 345.58 54.54 345.3 54.5 345.3 54.5 L 345.3 52.9 C 345.3 52.9 346.48 52.88 346.5 52.9 C 347.3 52.9 347.6 53.1 347.9 53.9 C 347.9 53.9 350.2 59.6 350.2 59.6 C 350.42 60.12 350.6 60.8 350.6 60.8 L 350.6 60.8 C 350.6 60.8 350.76 60.12 351 59.6 C 351 59.6 353.1 53.9 353.1 53.9 C 353.4 53.1 353.7 52.9 354.5 52.9 C 354.54 52.88 355.7 52.9 355.7 52.9 L 355.7 54.5 C 355.7 54.5 355.44 54.54 355.4 54.5 C 355.1 54.5 354.9 54.6 354.8 54.9 C 354.8 54.9 350.8 64.8 350.8 64.8 C 350.2 66.4 349 67.2 347.5 67.2 C 346.04 67.2 345.2 66.2 345.2 66.2 C 345.2 66.2 345.96 64.8 346 64.8 C 346 64.8 346.6 65.5 347.4 65.5 Z M 351.2 48.9 L 353.2 48.9 L 351.3 51.4 L 349.7 51.4 L 351.2 48.9 Z M 357.7 55 C 357.7 54.7 357.5 54.5 357.2 54.5 C 357.24 54.54 356.4 54.5 356.4 54.5 L 356.4 52.9 C 356.4 52.9 358.26 52.88 358.3 52.9 C 359.1 52.9 359.6 53.2 359.6 54.1 C 359.6 54.1 359.6 54.7 359.6 54.7 C 359.56 55.1 359.5 55.4 359.5 55.4 C 359.5 55.4 359.56 55.4 359.6 55.4 C 360 53.9 361.2 52.8 362.8 52.8 C 363.02 52.76 363.3 52.8 363.3 52.8 L 363.3 54.7 C 363.3 54.7 363.02 54.66 362.7 54.7 C 361.5 54.7 360.3 55.5 359.9 57 C 359.7 57.6 359.6 58.2 359.6 58.9 C 359.62 58.86 359.6 63 359.6 63 L 357.7 63 C 357.7 63 357.68 54.98 357.7 55 Z M 369.9 56.7 C 369.94 56.7 370.4 56.7 370.4 56.7 C 370.4 56.7 370.38 56.6 370.4 56.6 C 370.4 54.8 369.7 54.2 368.1 54.2 C 367.7 54.2 366.5 54.3 366.5 55 C 366.48 54.96 366.5 55.5 366.5 55.5 L 364.7 55.5 C 364.7 55.5 364.66 54.54 364.7 54.5 C 364.7 52.9 367.2 52.6 368.2 52.6 C 371.4 52.6 372.3 54.4 372.3 56.6 C 372.3 56.6 372.3 60.9 372.3 60.9 C 372.3 61.2 372.5 61.3 372.8 61.3 C 372.76 61.34 373.6 61.3 373.6 61.3 L 373.6 63 C 373.6 63 371.76 63 371.8 63 C 370.9 63 370.5 62.6 370.5 61.8 C 370.5 61.5 370.5 61.2 370.5 61.2 L 370.5 61.2 C 370.5 61.2 369.7 63.24 367.3 63.2 C 365.5 63.2 363.8 62.2 363.8 60.2 C 363.8 56.9 368.2 56.7 369.9 56.7 Z M 367.7 61.7 C 369.3 61.7 370.4 60 370.4 58.5 C 370.4 58.46 370.4 58.1 370.4 58.1 C 370.4 58.1 369.9 58.12 369.9 58.1 C 368.4 58.1 365.8 58.2 365.8 60.1 C 365.8 60.9 366.4 61.7 367.7 61.7 Z M 374.6 61.9 C 374.6 61.9 379.81 55.48 379.8 55.5 C 380.25 54.94 380.7 54.5 380.7 54.5 L 380.7 54.5 C 380.7 54.5 380.33 54.54 379.7 54.5 C 379.7 54.5 376.9 54.5 376.9 54.5 C 376.6 54.5 376.5 54.7 376.5 55 C 376.47 54.98 376.5 55.7 376.5 55.7 L 374.7 55.7 C 374.7 55.7 374.69 54.16 374.7 54.2 C 374.7 53.3 375.1 52.9 376 52.9 C 375.97 52.88 383.2 52.9 383.2 52.9 L 383.2 54 C 383.2 54 378.01 60.42 378 60.4 C 377.59 60.92 377.2 61.3 377.2 61.3 L 377.2 61.4 C 377.2 61.4 377.49 61.34 378.2 61.3 C 378.2 61.3 381.4 61.3 381.4 61.3 C 381.7 61.3 381.8 61.2 381.8 60.9 C 381.83 60.9 381.8 60.2 381.8 60.2 L 383.6 60.2 C 383.6 60.2 383.59 61.72 383.6 61.7 C 383.6 62.6 383.2 63 382.3 63 C 382.31 63 374.6 63 374.6 63 L 374.6 61.9 Z M 385.8 55 C 385.8 54.7 385.6 54.5 385.3 54.5 C 385.33 54.54 384.5 54.5 384.5 54.5 L 384.5 52.9 C 384.5 52.9 386.37 52.88 386.4 52.9 C 387.2 52.9 387.7 53.3 387.7 54 C 387.7 54 387.7 54.4 387.7 54.4 C 387.65 54.7 387.6 55 387.6 55 C 387.6 55 387.65 54.96 387.7 55 C 388.1 54.1 389.3 52.6 391.5 52.6 C 393.9 52.6 394.9 53.9 394.9 56.5 C 394.9 56.5 394.9 60.9 394.9 60.9 C 394.9 61.2 395.1 61.3 395.4 61.3 C 395.37 61.34 396.2 61.3 396.2 61.3 L 396.2 63 C 396.2 63 394.27 63 394.3 63 C 393.4 63 393 62.6 393 61.7 C 393 61.7 393 57 393 57 C 393 55.5 392.7 54.4 391.1 54.4 C 389.5 54.4 388.3 55.4 387.9 56.9 C 387.8 57.3 387.7 57.8 387.7 58.3 C 387.71 58.26 387.7 63 387.7 63 L 385.8 63 C 385.8 63 385.77 54.98 385.8 55 Z M 402.4 52.6 C 405.2 52.6 406.8 54.8 406.8 57.4 C 406.75 57.64 406.7 58.2 406.7 58.2 C 406.7 58.2 399.31 58.18 399.3 58.2 C 399.4 60.3 401 61.6 402.8 61.6 C 404.53 61.56 405.8 60.4 405.8 60.4 L 406.6 61.8 C 406.6 61.8 405.09 63.24 402.7 63.2 C 399.5 63.2 397.3 60.9 397.3 57.9 C 397.3 54.7 399.5 52.6 402.4 52.6 Z M 404.8 56.8 C 404.7 55.1 403.6 54.2 402.4 54.2 C 400.9 54.2 399.7 55.1 399.4 56.8 C 399.4 56.8 404.8 56.8 404.8 56.8 Z M 409.9 48.9 L 411.6 48.9 L 411.6 50.9 L 409.9 50.9 L 409.9 48.9 Z M 407.7 65.4 C 408.4 65.4 409.8 65.2 409.8 63.2 C 409.8 63.2 409.8 55 409.8 55 C 409.8 54.7 409.7 54.5 409.4 54.5 C 409.39 54.54 408.6 54.5 408.6 54.5 L 408.6 52.9 C 408.6 52.9 410.49 52.88 410.5 52.9 C 411.4 52.9 411.8 53.3 411.8 54.2 C 411.8 54.2 411.8 63.3 411.8 63.3 C 411.8 66.7 409.2 67.1 407.9 67.1 C 407.49 67.12 407.2 67.1 407.2 67.1 L 407.2 65.4 C 407.2 65.4 407.41 65.44 407.7 65.4 Z M 414.9 60.2 C 414.9 60.2 416.09 61.66 418 61.7 C 418.9 61.7 419.7 61.2 419.7 60.4 C 419.7 58.5 414.2 58.7 414.2 55.5 C 414.2 53.5 415.9 52.6 418 52.6 C 419.2 52.6 421.3 53.1 421.3 54.6 C 421.27 54.6 421.3 55.6 421.3 55.6 L 419.5 55.6 C 419.5 55.6 419.53 55.06 419.5 55.1 C 419.5 54.5 418.6 54.2 418 54.2 C 416.9 54.2 416.1 54.6 416.1 55.4 C 416.1 57.3 421.7 56.9 421.7 60.3 C 421.7 62.1 420.1 63.2 417.9 63.2 C 415.23 63.24 413.9 61.5 413.9 61.5 L 414.9 60.2 Z M 415.2 48.9 L 416.8 48.9 L 417.8 50.5 L 417.9 50.5 L 418.9 48.9 L 420.5 48.9 L 418.8 51.4 L 417 51.4 L 415.2 48.9 Z M 424.3 48.9 L 426 48.9 L 426 50.9 L 424.3 50.9 L 424.3 48.9 Z M 424.2 55 C 424.2 54.7 424.1 54.5 423.8 54.5 C 423.79 54.54 423 54.5 423 54.5 L 423 52.9 C 423 52.9 424.87 52.88 424.9 52.9 C 425.8 52.9 426.2 53.3 426.2 54.2 C 426.2 54.2 426.2 60.9 426.2 60.9 C 426.2 61.2 426.3 61.3 426.6 61.3 C 426.59 61.34 427.4 61.3 427.4 61.3 L 427.4 63 C 427.4 63 425.51 63 425.5 63 C 424.6 63 424.2 62.6 424.2 61.7 C 424.2 61.7 424.2 55 424.2 55 Z M 433.7 52.6 C 436.6 52.6 438.1 54.8 438.1 57.4 C 438.09 57.64 438 58.2 438 58.2 C 438 58.2 430.65 58.18 430.7 58.2 C 430.8 60.3 432.3 61.6 434.1 61.6 C 435.87 61.56 437.1 60.4 437.1 60.4 L 437.9 61.8 C 437.9 61.8 436.43 63.24 434 63.2 C 430.8 63.2 428.7 60.9 428.7 57.9 C 428.7 54.7 430.9 52.6 433.7 52.6 Z M 436.1 56.8 C 436 55.1 435 54.2 433.7 54.2 C 432.2 54.2 431 55.1 430.7 56.8 C 430.7 56.8 436.1 56.8 436.1 56.8 Z M 440.4 60.9 L 442.4 60.9 L 442.4 63 L 440.4 63 L 440.4 60.9 Z " stroke="none" fill="#ee3078"/>  </g>  <g id="Polygon74318">    <path d="M 1.7 31 C 1.7 30.7 1.5 30.5 1.3 30.5 C 1.26 30.54 0.4 30.5 0.4 30.5 L 0.4 28.9 C 0.4 28.9 2.3 28.88 2.3 28.9 C 3.2 28.9 3.6 29.3 3.6 30 C 3.6 30 3.6 30.4 3.6 30.4 C 3.58 30.7 3.5 31 3.5 31 C 3.5 31 3.58 30.96 3.6 31 C 4 30.1 5.2 28.6 7.4 28.6 C 9.8 28.6 10.9 29.9 10.9 32.5 C 10.9 32.5 10.9 36.9 10.9 36.9 C 10.9 37.2 11 37.3 11.3 37.3 C 11.3 37.34 12.1 37.3 12.1 37.3 L 12.1 39 C 12.1 39 10.2 39 10.2 39 C 9.3 39 8.9 38.6 8.9 37.7 C 8.9 37.7 8.9 33 8.9 33 C 8.9 31.5 8.6 30.4 7 30.4 C 5.5 30.4 4.2 31.4 3.8 32.9 C 3.7 33.3 3.6 33.8 3.6 34.3 C 3.64 34.26 3.6 39 3.6 39 L 1.7 39 C 1.7 39 1.7 30.98 1.7 31 Z M 18.3 28.6 C 21.2 28.6 22.7 30.8 22.7 33.4 C 22.68 33.64 22.6 34.2 22.6 34.2 C 22.6 34.2 15.24 34.18 15.2 34.2 C 15.4 36.3 16.9 37.6 18.7 37.6 C 20.46 37.56 21.7 36.4 21.7 36.4 L 22.5 37.8 C 22.5 37.8 21.02 39.24 18.6 39.2 C 15.4 39.2 13.2 36.9 13.2 33.9 C 13.2 30.7 15.4 28.6 18.3 28.6 Z M 20.7 32.8 C 20.6 31.1 19.6 30.2 18.3 30.2 C 16.8 30.2 15.6 31.1 15.3 32.8 C 15.3 32.8 20.7 32.8 20.7 32.8 Z M 29.7 28.6 C 32.7 28.6 35.2 30.9 35.2 33.9 C 35.2 37 32.7 39.2 29.7 39.2 C 26.7 39.2 24.3 37 24.3 33.9 C 24.3 30.9 26.7 28.6 29.7 28.6 Z M 29.7 37.6 C 31.6 37.6 33.2 36 33.2 33.9 C 33.2 31.8 31.6 30.3 29.7 30.3 C 27.8 30.3 26.3 31.8 26.3 33.9 C 26.3 36 27.8 37.6 29.7 37.6 Z M 36.8 30.9 C 36.7 30.6 36.5 30.5 36.2 30.5 C 36.16 30.54 36 30.5 36 30.5 L 36 28.9 C 36 28.9 36.96 28.88 37 28.9 C 37.9 28.9 38.2 29.1 38.5 29.9 C 38.5 29.9 40.7 35.7 40.7 35.7 C 40.88 36.28 41 37 41 37 L 41.1 37 C 41.1 37 41.24 36.28 41.4 35.7 C 41.4 35.7 43.6 29.9 43.6 29.9 C 43.9 29.1 44.3 28.9 45.1 28.9 C 45.14 28.88 46.1 28.9 46.1 28.9 L 46.1 30.5 C 46.1 30.5 45.88 30.54 45.9 30.5 C 45.5 30.5 45.3 30.6 45.2 30.9 C 45.22 30.94 42.1 39 42.1 39 L 39.9 39 C 39.9 39 36.78 30.94 36.8 30.9 Z M 48 31 C 48 30.7 47.9 30.5 47.6 30.5 C 47.6 30.54 46.8 30.5 46.8 30.5 L 46.8 28.9 C 46.8 28.9 48.6 28.88 48.6 28.9 C 49.5 28.9 49.8 29.3 49.8 29.9 C 49.84 30.2 49.8 30.4 49.8 30.4 L 49.9 30.4 C 49.9 30.4 50.7 28.64 53.2 28.6 C 55.9 28.6 57.7 30.8 57.7 33.9 C 57.7 37.2 55.7 39.2 53.1 39.2 C 50.84 39.24 50 37.6 50 37.6 L 49.9 37.6 C 49.9 37.6 49.98 37.98 50 38.5 C 49.98 38.5 50 43 50 43 L 48 43 C 48 43 48.04 30.98 48 31 Z M 52.8 37.6 C 54.4 37.6 55.7 36.3 55.7 34 C 55.7 31.8 54.5 30.3 52.8 30.3 C 51.3 30.3 49.9 31.4 49.9 34 C 49.9 35.8 50.9 37.6 52.8 37.6 Z M 59.9 27 C 59.9 26.7 59.7 26.5 59.5 26.5 C 59.46 26.54 58.6 26.5 58.6 26.5 L 58.6 24.9 C 58.6 24.9 60.56 24.88 60.6 24.9 C 61.5 24.9 61.8 25.3 61.8 26.2 C 61.8 26.2 61.8 36.9 61.8 36.9 C 61.8 37.2 62 37.3 62.3 37.3 C 62.28 37.34 63.1 37.3 63.1 37.3 L 63.1 39 C 63.1 39 61.18 39 61.2 39 C 60.3 39 59.9 38.6 59.9 37.7 C 59.9 37.7 59.9 27 59.9 27 Z M 66 41.5 C 66.8 41.5 67.4 41 67.8 40.1 C 67.76 40.06 68.2 39 68.2 39 C 68.2 39 64.76 30.94 64.8 30.9 C 64.6 30.6 64.4 30.5 64.1 30.5 C 64.12 30.54 63.9 30.5 63.9 30.5 L 63.9 28.9 C 63.9 28.9 65.02 28.88 65 28.9 C 65.8 28.9 66.1 29.1 66.5 29.9 C 66.5 29.9 68.8 35.6 68.8 35.6 C 68.96 36.12 69.1 36.8 69.1 36.8 L 69.2 36.8 C 69.2 36.8 69.3 36.12 69.5 35.6 C 69.5 35.6 71.6 29.9 71.6 29.9 C 71.9 29.1 72.3 28.9 73.1 28.9 C 73.08 28.88 74.2 28.9 74.2 28.9 L 74.2 30.5 C 74.2 30.5 73.98 30.54 74 30.5 C 73.7 30.5 73.5 30.6 73.3 30.9 C 73.3 30.9 69.3 40.8 69.3 40.8 C 68.7 42.4 67.5 43.2 66.1 43.2 C 64.58 43.2 63.7 42.2 63.7 42.2 C 63.7 42.2 64.5 40.8 64.5 40.8 C 64.5 40.8 65.1 41.5 66 41.5 Z M 75.6 30.9 C 75.5 30.6 75.3 30.5 75 30.5 C 74.98 30.54 74.8 30.5 74.8 30.5 L 74.8 28.9 C 74.8 28.9 75.78 28.88 75.8 28.9 C 76.7 28.9 77 29.1 77.3 29.9 C 77.3 29.9 79.5 35.7 79.5 35.7 C 79.7 36.28 79.9 37 79.9 37 L 79.9 37 C 79.9 37 80.06 36.28 80.3 35.7 C 80.3 35.7 82.4 29.9 82.4 29.9 C 82.7 29.1 83.1 28.9 84 28.9 C 83.96 28.88 84.9 28.9 84.9 28.9 L 84.9 30.5 C 84.9 30.5 84.7 30.54 84.7 30.5 C 84.4 30.5 84.2 30.6 84 30.9 C 84.04 30.94 81 39 81 39 L 78.7 39 C 78.7 39 75.6 30.94 75.6 30.9 Z M 86.9 31 C 86.9 30.7 86.7 30.5 86.4 30.5 C 86.42 30.54 85.6 30.5 85.6 30.5 L 85.6 28.9 C 85.6 28.9 87.46 28.88 87.5 28.9 C 88.3 28.9 88.7 29.3 88.7 30 C 88.7 30 88.7 30.4 88.7 30.4 C 88.74 30.7 88.7 31 88.7 31 C 88.7 31 88.74 30.96 88.7 31 C 89.1 30.1 90.3 28.6 92.5 28.6 C 94.9 28.6 96 29.9 96 32.5 C 96 32.5 96 36.9 96 36.9 C 96 37.2 96.2 37.3 96.5 37.3 C 96.46 37.34 97.3 37.3 97.3 37.3 L 97.3 39 C 97.3 39 95.36 39 95.4 39 C 94.5 39 94.1 38.6 94.1 37.7 C 94.1 37.7 94.1 33 94.1 33 C 94.1 31.5 93.8 30.4 92.2 30.4 C 90.6 30.4 89.4 31.4 89 32.9 C 88.8 33.3 88.8 33.8 88.8 34.3 C 88.8 34.26 88.8 39 88.8 39 L 86.9 39 C 86.9 39 86.86 30.98 86.9 31 Z M 89 24.9 L 90.5 24.9 L 91.6 26.5 L 91.6 26.5 L 92.7 24.9 L 94.3 24.9 L 92.5 27.4 L 90.7 27.4 L 89 24.9 Z M 99.3 31 C 99.3 30.7 99.2 30.5 98.9 30.5 C 98.9 30.54 98.1 30.5 98.1 30.5 L 98.1 28.9 C 98.1 28.9 99.98 28.88 100 28.9 C 100.9 28.9 101.3 29.3 101.3 30.1 C 101.3 30.1 101.3 34.9 101.3 34.9 C 101.3 36.3 101.6 37.4 103.2 37.4 C 105.2 37.4 106.5 35.6 106.5 33.6 C 106.46 33.62 106.5 28.9 106.5 28.9 L 108.4 28.9 C 108.4 28.9 108.4 36.9 108.4 36.9 C 108.4 37.2 108.6 37.3 108.8 37.3 C 108.84 37.34 109.7 37.3 109.7 37.3 L 109.7 39 C 109.7 39 107.8 39 107.8 39 C 106.9 39 106.5 38.6 106.5 37.9 C 106.5 37.9 106.5 37.5 106.5 37.5 C 106.52 37.18 106.5 36.9 106.5 36.9 C 106.5 36.9 106.5 36.92 106.5 36.9 C 106.1 37.9 104.8 39.2 102.8 39.2 C 100.5 39.2 99.3 38 99.3 35.4 C 99.3 35.4 99.3 31 99.3 31 Z M 112.3 24.9 L 114.1 24.9 L 114.1 26.9 L 112.3 26.9 L 112.3 24.9 Z M 110.1 41.4 C 110.9 41.4 112.3 41.2 112.3 39.2 C 112.3 39.2 112.3 31 112.3 31 C 112.3 30.7 112.1 30.5 111.9 30.5 C 111.86 30.54 111 30.5 111 30.5 L 111 28.9 C 111 28.9 112.96 28.88 113 28.9 C 113.9 28.9 114.2 29.3 114.2 30.2 C 114.2 30.2 114.2 39.3 114.2 39.3 C 114.2 42.7 111.6 43.1 110.4 43.1 C 109.96 43.12 109.7 43.1 109.7 43.1 L 109.7 41.4 C 109.7 41.4 109.88 41.44 110.1 41.4 Z M 121.6 28.6 C 124.5 28.6 126 30.8 126 33.4 C 125.98 33.64 125.9 34.2 125.9 34.2 C 125.9 34.2 118.54 34.18 118.5 34.2 C 118.7 36.3 120.2 37.6 122 37.6 C 123.76 37.56 125 36.4 125 36.4 L 125.8 37.8 C 125.8 37.8 124.32 39.24 121.9 39.2 C 118.7 39.2 116.5 36.9 116.5 33.9 C 116.5 30.7 118.7 28.6 121.6 28.6 Z M 124 32.8 C 123.9 31.1 122.9 30.2 121.6 30.2 C 120.1 30.2 118.9 31.1 118.6 32.8 C 118.6 32.8 124 32.8 124 32.8 Z M 133.9 31 C 133.9 30.7 133.8 30.5 133.5 30.5 C 133.5 30.54 132.7 30.5 132.7 30.5 L 132.7 28.9 C 132.7 28.9 134.54 28.88 134.5 28.9 C 135.4 28.9 135.8 29.3 135.8 30 C 135.8 30 135.8 30.4 135.8 30.4 C 135.82 30.7 135.8 31 135.8 31 C 135.8 31 135.84 30.96 135.8 31 C 136.3 29.8 137.7 28.6 139.3 28.6 C 141 28.6 142 29.4 142.3 30.9 C 142.3 30.9 142.4 30.9 142.4 30.9 C 142.9 29.7 144.3 28.6 146 28.6 C 148.3 28.6 149.3 29.9 149.3 32.5 C 149.3 32.5 149.3 36.9 149.3 36.9 C 149.3 37.2 149.5 37.3 149.8 37.3 C 149.76 37.34 150.6 37.3 150.6 37.3 L 150.6 39 C 150.6 39 148.66 39 148.7 39 C 147.8 39 147.4 38.6 147.4 37.7 C 147.4 37.7 147.4 32.9 147.4 32.9 C 147.4 31.5 147.1 30.4 145.6 30.4 C 144.2 30.4 143.1 31.6 142.8 33 C 142.7 33.4 142.6 33.9 142.6 34.4 C 142.6 34.38 142.6 39 142.6 39 L 140.7 39 C 140.7 39 140.66 32.94 140.7 32.9 C 140.7 31.6 140.5 30.4 138.9 30.4 C 137.4 30.4 136.4 31.6 136 33.1 C 135.9 33.5 135.9 33.9 135.9 34.4 C 135.88 34.38 135.9 39 135.9 39 L 133.9 39 C 133.9 39 133.94 30.98 133.9 31 Z M 156.8 28.6 C 159.6 28.6 161.1 30.8 161.1 33.4 C 161.14 33.64 161.1 34.2 161.1 34.2 C 161.1 34.2 153.7 34.18 153.7 34.2 C 153.8 36.3 155.4 37.6 157.2 37.6 C 158.92 37.56 160.1 36.4 160.1 36.4 L 161 37.8 C 161 37.8 159.48 39.24 157.1 39.2 C 153.9 39.2 151.7 36.9 151.7 33.9 C 151.7 30.7 153.9 28.6 156.8 28.6 Z M 159.1 32.8 C 159.1 31.1 158 30.2 156.8 30.2 C 155.3 30.2 154.1 31.1 153.8 32.8 C 153.8 32.8 159.1 32.8 159.1 32.8 Z M 163.8 30.4 L 162.5 30.4 L 162.5 28.9 L 163.8 28.9 L 163.8 26.1 L 165.7 26.1 L 165.7 28.9 L 168.2 28.9 L 168.2 30.4 L 165.7 30.4 C 165.7 30.4 165.74 35.08 165.7 35.1 C 165.7 37.1 167.1 37.4 167.9 37.4 C 168.16 37.36 168.3 37.3 168.3 37.3 L 168.3 39 C 168.3 39 168.08 39.08 167.7 39.1 C 166.4 39.1 163.8 38.7 163.8 35.3 C 163.8 35.3 163.8 30.4 163.8 30.4 Z M 175.8 32.7 C 175.8 32.7 176.2 32.7 176.2 32.7 C 176.2 32.7 176.24 32.6 176.2 32.6 C 176.2 30.8 175.6 30.2 174 30.2 C 173.5 30.2 172.3 30.3 172.3 31 C 172.34 30.96 172.3 31.5 172.3 31.5 L 170.5 31.5 C 170.5 31.5 170.52 30.54 170.5 30.5 C 170.5 28.9 173 28.6 174 28.6 C 177.3 28.6 178.2 30.4 178.2 32.6 C 178.2 32.6 178.2 36.9 178.2 36.9 C 178.2 37.2 178.3 37.3 178.6 37.3 C 178.62 37.34 179.4 37.3 179.4 37.3 L 179.4 39 C 179.4 39 177.62 39 177.6 39 C 176.7 39 176.4 38.6 176.4 37.8 C 176.36 37.5 176.4 37.2 176.4 37.2 L 176.4 37.2 C 176.4 37.2 175.56 39.24 173.1 39.2 C 171.4 39.2 169.7 38.2 169.7 36.2 C 169.7 32.9 174.1 32.7 175.8 32.7 Z M 173.6 37.7 C 175.2 37.7 176.3 36 176.3 34.5 C 176.26 34.46 176.3 34.1 176.3 34.1 C 176.3 34.1 175.76 34.12 175.8 34.1 C 174.3 34.1 171.7 34.2 171.7 36.1 C 171.7 36.9 172.3 37.7 173.6 37.7 Z M 181.5 27 C 181.5 26.7 181.3 26.5 181 26.5 C 181.02 26.54 180.2 26.5 180.2 26.5 L 180.2 24.9 C 180.2 24.9 182.12 24.88 182.1 24.9 C 183 24.9 183.4 25.3 183.4 26.2 C 183.4 26.2 183.4 29.5 183.4 29.5 C 183.4 29.94 183.4 30.3 183.4 30.3 L 183.4 30.3 C 183.4 30.3 184.28 28.64 186.7 28.6 C 189.4 28.6 191.1 30.8 191.1 33.9 C 191.1 37.2 189.2 39.2 186.5 39.2 C 184.24 39.24 183.3 37.5 183.3 37.5 L 183.3 37.5 C 183.3 37.5 183.32 37.86 183.3 38.3 C 183.32 38.3 183.3 39 183.3 39 L 181.5 39 C 181.5 39 181.46 26.98 181.5 27 Z M 186.2 37.6 C 187.8 37.6 189.1 36.3 189.1 34 C 189.1 31.8 188 30.3 186.3 30.3 C 184.8 30.3 183.4 31.4 183.4 34 C 183.4 35.8 184.3 37.6 186.2 37.6 Z M 198 28.6 C 201 28.6 203.5 30.9 203.5 33.9 C 203.5 37 201 39.2 198 39.2 C 195 39.2 192.6 37 192.6 33.9 C 192.6 30.9 195 28.6 198 28.6 Z M 198 37.6 C 199.9 37.6 201.5 36 201.5 33.9 C 201.5 31.8 199.9 30.3 198 30.3 C 196.1 30.3 194.5 31.8 194.5 33.9 C 194.5 36 196.1 37.6 198 37.6 Z M 205.7 27 C 205.7 26.7 205.5 26.5 205.2 26.5 C 205.22 26.54 204.4 26.5 204.4 26.5 L 204.4 24.9 C 204.4 24.9 206.32 24.88 206.3 24.9 C 207.2 24.9 207.6 25.3 207.6 26.2 C 207.6 26.2 207.6 36.9 207.6 36.9 C 207.6 37.2 207.8 37.3 208 37.3 C 208.04 37.34 208.9 37.3 208.9 37.3 L 208.9 39 C 208.9 39 206.94 39 206.9 39 C 206 39 205.7 38.6 205.7 37.7 C 205.7 37.7 205.7 27 205.7 27 Z M 211.2 24.9 L 212.9 24.9 L 212.9 26.9 L 211.2 26.9 L 211.2 24.9 Z M 211.2 31 C 211.2 30.7 211 30.5 210.7 30.5 C 210.72 30.54 209.9 30.5 209.9 30.5 L 209.9 28.9 C 209.9 28.9 211.8 28.88 211.8 28.9 C 212.7 28.9 213.1 29.3 213.1 30.2 C 213.1 30.2 213.1 36.9 213.1 36.9 C 213.1 37.2 213.2 37.3 213.5 37.3 C 213.52 37.34 214.3 37.3 214.3 37.3 L 214.3 39 C 214.3 39 212.44 39 212.4 39 C 211.5 39 211.2 38.6 211.2 37.7 C 211.2 37.7 211.2 31 211.2 31 Z M 215.5 37.9 C 215.5 37.9 220.7 31.48 220.7 31.5 C 221.14 30.94 221.5 30.5 221.5 30.5 L 221.5 30.5 C 221.5 30.5 221.22 30.54 220.6 30.5 C 220.6 30.5 217.8 30.5 217.8 30.5 C 217.5 30.5 217.4 30.7 217.4 31 C 217.36 30.98 217.4 31.7 217.4 31.7 L 215.6 31.7 C 215.6 31.7 215.58 30.16 215.6 30.2 C 215.6 29.3 216 28.9 216.9 28.9 C 216.86 28.88 224.1 28.9 224.1 28.9 L 224.1 30 C 224.1 30 218.9 36.42 218.9 36.4 C 218.48 36.92 218.1 37.3 218.1 37.3 L 218.1 37.4 C 218.1 37.4 218.38 37.34 219 37.3 C 219 37.3 222.3 37.3 222.3 37.3 C 222.6 37.3 222.7 37.2 222.7 36.9 C 222.72 36.9 222.7 36.2 222.7 36.2 L 224.5 36.2 C 224.5 36.2 224.48 37.72 224.5 37.7 C 224.5 38.6 224.1 39 223.2 39 C 223.2 39 215.5 39 215.5 39 L 215.5 37.9 Z M 226.7 31 C 226.7 30.7 226.5 30.5 226.2 30.5 C 226.22 30.54 225.4 30.5 225.4 30.5 L 225.4 28.9 C 225.4 28.9 227.26 28.88 227.3 28.9 C 228.1 28.9 228.5 29.3 228.5 30 C 228.5 30 228.5 30.4 228.5 30.4 C 228.54 30.7 228.5 31 228.5 31 C 228.5 31 228.56 30.96 228.6 31 C 229 29.8 230.4 28.6 232 28.6 C 233.7 28.6 234.7 29.4 235.1 30.9 C 235.1 30.9 235.1 30.9 235.1 30.9 C 235.7 29.7 237.1 28.6 238.7 28.6 C 241 28.6 242 29.9 242 32.5 C 242 32.5 242 36.9 242 36.9 C 242 37.2 242.2 37.3 242.5 37.3 C 242.48 37.34 243.3 37.3 243.3 37.3 L 243.3 39 C 243.3 39 241.38 39 241.4 39 C 240.5 39 240.1 38.6 240.1 37.7 C 240.1 37.7 240.1 32.9 240.1 32.9 C 240.1 31.5 239.8 30.4 238.3 30.4 C 236.9 30.4 235.8 31.6 235.5 33 C 235.4 33.4 235.3 33.9 235.3 34.4 C 235.32 34.38 235.3 39 235.3 39 L 233.4 39 C 233.4 39 233.38 32.94 233.4 32.9 C 233.4 31.6 233.2 30.4 231.6 30.4 C 230.2 30.4 229.1 31.6 228.7 33.1 C 228.6 33.5 228.6 33.9 228.6 34.4 C 228.6 34.38 228.6 39 228.6 39 L 226.7 39 C 226.7 39 226.66 30.98 226.7 31 Z M 245.4 31 C 245.4 30.7 245.2 30.5 244.9 30.5 C 244.92 30.54 244.1 30.5 244.1 30.5 L 244.1 28.9 C 244.1 28.9 246 28.88 246 28.9 C 246.9 28.9 247.3 29.3 247.3 30.1 C 247.3 30.1 247.3 34.9 247.3 34.9 C 247.3 36.3 247.6 37.4 249.2 37.4 C 251.3 37.4 252.5 35.6 252.5 33.6 C 252.48 33.62 252.5 28.9 252.5 28.9 L 254.4 28.9 C 254.4 28.9 254.42 36.9 254.4 36.9 C 254.4 37.2 254.6 37.3 254.9 37.3 C 254.86 37.34 255.7 37.3 255.7 37.3 L 255.7 39 C 255.7 39 253.82 39 253.8 39 C 253 39 252.5 38.6 252.5 37.9 C 252.5 37.9 252.5 37.5 252.5 37.5 C 252.54 37.18 252.6 36.9 252.6 36.9 C 252.6 36.9 252.52 36.92 252.5 36.9 C 252.1 37.9 250.8 39.2 248.8 39.2 C 246.5 39.2 245.4 38 245.4 35.4 C 245.4 35.4 245.4 31 245.4 31 Z M 257.7 36.2 C 257.7 36.2 258.86 37.66 260.7 37.7 C 261.7 37.7 262.5 37.2 262.5 36.4 C 262.5 34.5 257 34.7 257 31.5 C 257 29.5 258.7 28.6 260.7 28.6 C 261.9 28.6 264 29.1 264 30.6 C 264.04 30.6 264 31.6 264 31.6 L 262.3 31.6 C 262.3 31.6 262.3 31.06 262.3 31.1 C 262.3 30.5 261.4 30.2 260.8 30.2 C 259.6 30.2 258.9 30.6 258.9 31.4 C 258.9 33.3 264.4 32.9 264.4 36.3 C 264.4 38.1 262.8 39.2 260.7 39.2 C 258 39.24 256.7 37.5 256.7 37.5 L 257.7 36.2 Z M 275.8 28.6 C 278.28 28.64 279 30.2 279 30.2 L 279 30.2 C 279 30.2 279.04 30.06 279 29.9 C 279 29.3 279.4 28.9 280.2 28.9 C 280.16 28.88 282 28.9 282 28.9 L 282 30.5 C 282 30.5 281.24 30.54 281.2 30.5 C 281 30.5 280.8 30.7 280.8 30.9 C 280.8 30.9 280.8 38.6 280.8 38.6 C 280.8 41.9 278.3 43.2 275.7 43.2 C 274.5 43.2 273.2 42.9 272.2 42.4 C 272.24 42.36 272.9 40.8 272.9 40.8 C 272.9 40.8 274.14 41.48 275.7 41.5 C 277.4 41.5 278.9 40.7 278.9 38.7 C 278.9 38.7 278.9 38 278.9 38 C 278.86 37.66 278.9 37.3 278.9 37.3 C 278.9 37.3 278.86 37.34 278.9 37.3 C 278.3 38.3 277.3 38.9 275.8 38.9 C 273 38.9 271.3 36.6 271.3 33.7 C 271.3 30.8 272.9 28.6 275.8 28.6 Z M 278.9 33.7 C 278.9 31.1 277.6 30.3 276.1 30.3 C 274.3 30.3 273.3 31.6 273.3 33.7 C 273.3 35.8 274.4 37.2 276.2 37.2 C 277.6 37.2 278.9 36.4 278.9 33.7 Z M 284.1 27 C 284.1 26.7 284 26.5 283.7 26.5 C 283.7 26.54 282.9 26.5 282.9 26.5 L 282.9 24.9 C 282.9 24.9 284.8 24.88 284.8 24.9 C 285.7 24.9 286.1 25.3 286.1 26.2 C 286.1 26.2 286.1 36.9 286.1 36.9 C 286.1 37.2 286.2 37.3 286.5 37.3 C 286.52 37.34 287.3 37.3 287.3 37.3 L 287.3 39 C 287.3 39 285.42 39 285.4 39 C 284.5 39 284.1 38.6 284.1 37.7 C 284.1 37.7 284.1 27 284.1 27 Z M 289.5 31 C 289.5 30.7 289.3 30.5 289.1 30.5 C 289.06 30.54 288.2 30.5 288.2 30.5 L 288.2 28.9 C 288.2 28.9 290.14 28.88 290.1 28.9 C 291.1 28.9 291.4 29.3 291.4 30.1 C 291.4 30.1 291.4 34.9 291.4 34.9 C 291.4 36.3 291.7 37.4 293.3 37.4 C 295.4 37.4 296.6 35.6 296.6 33.6 C 296.62 33.62 296.6 28.9 296.6 28.9 L 298.6 28.9 C 298.6 28.9 298.56 36.9 298.6 36.9 C 298.6 37.2 298.7 37.3 299 37.3 C 299 37.34 299.8 37.3 299.8 37.3 L 299.8 39 C 299.8 39 297.96 39 298 39 C 297.1 39 296.7 38.6 296.7 37.9 C 296.7 37.9 296.7 37.5 296.7 37.5 C 296.68 37.18 296.7 36.9 296.7 36.9 C 296.7 36.9 296.66 36.92 296.7 36.9 C 296.2 37.9 294.9 39.2 292.9 39.2 C 290.7 39.2 289.5 38 289.5 35.4 C 289.5 35.4 289.5 31 289.5 31 Z M 301.9 27 C 301.9 26.7 301.7 26.5 301.4 26.5 C 301.44 26.54 300.6 26.5 300.6 26.5 L 300.6 24.9 C 300.6 24.9 302.54 24.88 302.5 24.9 C 303.4 24.9 303.8 25.1 303.8 26 C 303.82 26.04 303.8 32.6 303.8 32.6 C 303.8 32.6 304.72 32.6 304.7 32.6 C 305.1 32.6 305.5 32.5 305.8 32.2 C 305.78 32.16 308.1 28.9 308.1 28.9 L 310.3 28.9 C 310.3 28.9 307.6 32.64 307.6 32.6 C 307.14 33.26 306.8 33.4 306.8 33.4 L 306.8 33.4 C 306.8 33.4 307.18 33.56 307.5 34.2 C 307.5 34.2 309 36.9 309 36.9 C 309.2 37.3 309.4 37.3 309.9 37.3 C 309.88 37.34 310.5 37.3 310.5 37.3 L 310.5 39 C 310.5 39 309.1 39 309.1 39 C 308.2 39 307.9 38.8 307.4 38.1 C 307.4 38.1 305.6 34.7 305.6 34.7 C 305.4 34.3 304.9 34.2 304.6 34.2 C 304.58 34.24 303.8 34.2 303.8 34.2 L 303.8 39 L 301.9 39 C 301.9 39 301.88 26.98 301.9 27 Z M 316.7 28.6 C 319.8 28.6 322.2 30.9 322.2 33.9 C 322.2 37 319.8 39.2 316.7 39.2 C 313.7 39.2 311.3 37 311.3 33.9 C 311.3 30.9 313.7 28.6 316.7 28.6 Z M 316.7 37.6 C 318.7 37.6 320.2 36 320.2 33.9 C 320.2 31.8 318.7 30.3 316.7 30.3 C 314.8 30.3 313.3 31.8 313.3 33.9 C 313.3 36 314.8 37.6 316.7 37.6 Z M 317.4 24.9 L 319.4 24.9 L 317.5 27.4 L 316 27.4 L 317.4 24.9 Z M 323.4 37.9 C 323.4 37.9 328.56 31.48 328.6 31.5 C 329 30.94 329.4 30.5 329.4 30.5 L 329.4 30.5 C 329.4 30.5 329.08 30.54 328.4 30.5 C 328.4 30.5 325.7 30.5 325.7 30.5 C 325.4 30.5 325.2 30.7 325.2 31 C 325.22 30.98 325.2 31.7 325.2 31.7 L 323.4 31.7 C 323.4 31.7 323.44 30.16 323.4 30.2 C 323.4 29.3 323.8 28.9 324.7 28.9 C 324.72 28.88 332 28.9 332 28.9 L 332 30 C 332 30 326.76 36.42 326.8 36.4 C 326.34 36.92 325.9 37.3 325.9 37.3 L 325.9 37.4 C 325.9 37.4 326.24 37.34 326.9 37.3 C 326.9 37.3 330.1 37.3 330.1 37.3 C 330.4 37.3 330.6 37.2 330.6 36.9 C 330.58 36.9 330.6 36.2 330.6 36.2 L 332.3 36.2 C 332.3 36.2 332.34 37.72 332.3 37.7 C 332.3 38.6 332 39 331.1 39 C 331.06 39 323.4 39 323.4 39 L 323.4 37.9 Z M 334.9 41.5 C 335.7 41.5 336.3 41 336.7 40.1 C 336.68 40.06 337.1 39 337.1 39 C 337.1 39 333.68 30.94 333.7 30.9 C 333.5 30.6 333.4 30.5 333 30.5 C 333.04 30.54 332.8 30.5 332.8 30.5 L 332.8 28.9 C 332.8 28.9 333.94 28.88 333.9 28.9 C 334.8 28.9 335.1 29.1 335.4 29.9 C 335.4 29.9 337.7 35.6 337.7 35.6 C 337.88 36.12 338 36.8 338 36.8 L 338.1 36.8 C 338.1 36.8 338.22 36.12 338.4 35.6 C 338.4 35.6 340.5 29.9 340.5 29.9 C 340.8 29.1 341.2 28.9 342 28.9 C 342 28.88 343.2 28.9 343.2 28.9 L 343.2 30.5 C 343.2 30.5 342.9 30.54 342.9 30.5 C 342.6 30.5 342.4 30.6 342.3 30.9 C 342.3 30.9 338.3 40.8 338.3 40.8 C 337.6 42.4 336.4 43.2 335 43.2 C 333.5 43.2 332.6 42.2 332.6 42.2 C 332.6 42.2 333.42 40.8 333.4 40.8 C 333.4 40.8 334 41.5 334.9 41.5 Z M 355.7 32.7 C 355.66 32.7 356.1 32.7 356.1 32.7 C 356.1 32.7 356.1 32.6 356.1 32.6 C 356.1 30.8 355.4 30.2 353.9 30.2 C 353.4 30.2 352.2 30.3 352.2 31 C 352.2 30.96 352.2 31.5 352.2 31.5 L 350.4 31.5 C 350.4 31.5 350.38 30.54 350.4 30.5 C 350.4 28.9 352.9 28.6 353.9 28.6 C 357.2 28.6 358 30.4 358 32.6 C 358 32.6 358 36.9 358 36.9 C 358 37.2 358.2 37.3 358.5 37.3 C 358.48 37.34 359.3 37.3 359.3 37.3 L 359.3 39 C 359.3 39 357.48 39 357.5 39 C 356.6 39 356.2 38.6 356.2 37.8 C 356.22 37.5 356.3 37.2 356.3 37.2 L 356.2 37.2 C 356.2 37.2 355.42 39.24 353 39.2 C 351.3 39.2 349.6 38.2 349.6 36.2 C 349.6 32.9 354 32.7 355.7 32.7 Z M 353.4 37.7 C 355.1 37.7 356.1 36 356.1 34.5 C 356.12 34.46 356.1 34.1 356.1 34.1 C 356.1 34.1 355.62 34.12 355.6 34.1 C 354.2 34.1 351.5 34.2 351.5 36.1 C 351.5 36.9 352.1 37.7 353.4 37.7 Z M 366.9 30.4 L 365.5 30.4 L 365.5 28.9 L 366.9 28.9 L 366.9 26.1 L 368.8 26.1 L 368.8 28.9 L 371.2 28.9 L 371.2 30.4 L 368.8 30.4 C 368.8 30.4 368.8 35.08 368.8 35.1 C 368.8 37.1 370.2 37.4 370.9 37.4 C 371.22 37.36 371.4 37.3 371.4 37.3 L 371.4 39 C 371.4 39 371.14 39.08 370.7 39.1 C 369.4 39.1 366.9 38.7 366.9 35.3 C 366.86 35.3 366.9 30.4 366.9 30.4 Z M 373.8 31 C 373.8 30.7 373.6 30.5 373.3 30.5 C 373.33 30.54 372.5 30.5 372.5 30.5 L 372.5 28.9 C 372.5 28.9 374.41 28.88 374.4 28.9 C 375.3 28.9 375.7 29.3 375.7 30.1 C 375.7 30.1 375.7 34.9 375.7 34.9 C 375.7 36.3 376 37.4 377.6 37.4 C 379.7 37.4 380.9 35.6 380.9 33.6 C 380.89 33.62 380.9 28.9 380.9 28.9 L 382.8 28.9 C 382.8 28.9 382.83 36.9 382.8 36.9 C 382.8 37.2 383 37.3 383.3 37.3 C 383.27 37.34 384.1 37.3 384.1 37.3 L 384.1 39 C 384.1 39 382.23 39 382.2 39 C 381.4 39 381 38.6 381 37.9 C 381 37.9 381 37.5 381 37.5 C 380.95 37.18 381 36.9 381 36.9 C 381 36.9 380.93 36.92 380.9 36.9 C 380.5 37.9 379.2 39.2 377.2 39.2 C 374.9 39.2 373.8 38 373.8 35.4 C 373.8 35.4 373.8 31 373.8 31 Z M 386.2 27 C 386.2 26.7 386 26.5 385.7 26.5 C 385.71 26.54 384.9 26.5 384.9 26.5 L 384.9 24.9 C 384.9 24.9 386.81 24.88 386.8 24.9 C 387.7 24.9 388.1 25.1 388.1 26 C 388.09 26.04 388.1 32.6 388.1 32.6 C 388.1 32.6 388.99 32.6 389 32.6 C 389.4 32.6 389.8 32.5 390.1 32.2 C 390.05 32.16 392.4 28.9 392.4 28.9 L 394.6 28.9 C 394.6 28.9 391.87 32.64 391.9 32.6 C 391.41 33.26 391.1 33.4 391.1 33.4 L 391.1 33.4 C 391.1 33.4 391.45 33.56 391.8 34.2 C 391.8 34.2 393.3 36.9 393.3 36.9 C 393.5 37.3 393.7 37.3 394.2 37.3 C 394.15 37.34 394.8 37.3 394.8 37.3 L 394.8 39 C 394.8 39 393.37 39 393.4 39 C 392.4 39 392.1 38.8 391.7 38.1 C 391.7 38.1 389.9 34.7 389.9 34.7 C 389.6 34.3 389.2 34.2 388.9 34.2 C 388.85 34.24 388.1 34.2 388.1 34.2 L 388.1 39 L 386.2 39 C 386.2 39 386.15 26.98 386.2 27 Z M 401 28.6 C 404 28.6 406.5 30.9 406.5 33.9 C 406.5 37 404 39.2 401 39.2 C 398 39.2 395.6 37 395.6 33.9 C 395.6 30.9 398 28.6 401 28.6 Z M 401 37.6 C 402.9 37.6 404.5 36 404.5 33.9 C 404.5 31.8 402.9 30.3 401 30.3 C 399.1 30.3 397.6 31.8 397.6 33.9 C 397.6 36 399.1 37.6 401 37.6 Z M 408.1 30.9 C 408 30.6 407.8 30.5 407.5 30.5 C 407.45 30.54 407.3 30.5 407.3 30.5 L 407.3 28.9 C 407.3 28.9 408.25 28.88 408.3 28.9 C 409.2 28.9 409.5 29.1 409.8 29.9 C 409.8 29.9 412 35.7 412 35.7 C 412.17 36.28 412.3 37 412.3 37 L 412.4 37 C 412.4 37 412.53 36.28 412.7 35.7 C 412.7 35.7 414.9 29.9 414.9 29.9 C 415.2 29.1 415.6 28.9 416.4 28.9 C 416.43 28.88 417.4 28.9 417.4 28.9 L 417.4 30.5 C 417.4 30.5 417.17 30.54 417.2 30.5 C 416.8 30.5 416.6 30.6 416.5 30.9 C 416.51 30.94 413.4 39 413.4 39 L 411.2 39 C 411.2 39 408.07 30.94 408.1 30.9 Z M 418.2 36.9 L 420.2 36.9 L 420.2 39 L 418.2 39 L 418.2 36.9 Z M 427.8 37.3 C 427.8 37.3 428.63 37.28 428.6 37.3 C 428.9 37.3 429.1 37.1 429.1 36.8 C 429.07 36.84 429.1 24.9 429.1 24.9 L 430.9 24.9 C 430.9 24.9 437.17 33.82 437.2 33.8 C 437.69 34.58 438.4 35.7 438.4 35.7 L 438.4 35.7 C 438.4 35.7 438.25 34.62 438.3 33.8 C 438.3 33.8 438.3 26.2 438.3 26.2 C 438.3 25.3 438.6 24.9 439.6 24.9 C 439.55 24.88 441.6 24.9 441.6 24.9 L 441.6 26.6 C 441.6 26.6 440.69 26.6 440.7 26.6 C 440.4 26.6 440.3 26.7 440.3 27 C 440.25 27.04 440.3 39 440.3 39 L 438.5 39 C 438.5 39 432.15 30.06 432.2 30.1 C 431.63 29.3 431 28.1 431 28.1 L 431 28.1 C 431 28.1 431.07 29.28 431.1 30.1 C 431.1 30.1 431.1 37.7 431.1 37.7 C 431.1 38.6 430.7 39 429.8 39 C 429.79 39 427.8 39 427.8 39 L 427.8 37.3 Z M 449 32.7 C 448.95 32.7 449.4 32.7 449.4 32.7 C 449.4 32.7 449.39 32.6 449.4 32.6 C 449.4 30.8 448.7 30.2 447.2 30.2 C 446.7 30.2 445.5 30.3 445.5 31 C 445.49 30.96 445.5 31.5 445.5 31.5 L 443.7 31.5 C 443.7 31.5 443.67 30.54 443.7 30.5 C 443.7 28.9 446.2 28.6 447.2 28.6 C 450.5 28.6 451.3 30.4 451.3 32.6 C 451.3 32.6 451.3 36.9 451.3 36.9 C 451.3 37.2 451.5 37.3 451.8 37.3 C 451.77 37.34 452.6 37.3 452.6 37.3 L 452.6 39 C 452.6 39 450.77 39 450.8 39 C 449.9 39 449.5 38.6 449.5 37.8 C 449.51 37.5 449.6 37.2 449.6 37.2 L 449.5 37.2 C 449.5 37.2 448.71 39.24 446.3 39.2 C 444.6 39.2 442.9 38.2 442.9 36.2 C 442.9 32.9 447.3 32.7 449 32.7 Z M 446.7 37.7 C 448.4 37.7 449.4 36 449.4 34.5 C 449.41 34.46 449.4 34.1 449.4 34.1 C 449.4 34.1 448.91 34.12 448.9 34.1 C 447.5 34.1 444.8 34.2 444.8 36.1 C 444.8 36.9 445.4 37.7 446.7 37.7 Z M 459.2 28.6 C 462.2 28.6 464.6 30.9 464.6 33.9 C 464.6 37 462.2 39.2 459.2 39.2 C 456.1 39.2 453.7 37 453.7 33.9 C 453.7 30.9 456.1 28.6 459.2 28.6 Z M 459.2 37.6 C 461.1 37.6 462.6 36 462.6 33.9 C 462.6 31.8 461.1 30.3 459.2 30.3 C 457.3 30.3 455.7 31.8 455.7 33.9 C 455.7 36 457.3 37.6 459.2 37.6 Z M 467 31 C 467 30.7 466.9 30.5 466.6 30.5 C 466.59 30.54 465.8 30.5 465.8 30.5 L 465.8 28.9 C 465.8 28.9 467.59 28.88 467.6 28.9 C 468.5 28.9 468.8 29.3 468.8 29.9 C 468.83 30.2 468.8 30.4 468.8 30.4 L 468.9 30.4 C 468.9 30.4 469.69 28.64 472.2 28.6 C 474.9 28.6 476.7 30.8 476.7 33.9 C 476.7 37.2 474.7 39.2 472.1 39.2 C 469.83 39.24 469 37.6 469 37.6 L 468.9 37.6 C 468.9 37.6 468.97 37.98 469 38.5 C 468.97 38.5 469 43 469 43 L 467 43 C 467 43 467.03 30.98 467 31 Z M 471.8 37.6 C 473.4 37.6 474.7 36.3 474.7 34 C 474.7 31.8 473.5 30.3 471.8 30.3 C 470.3 30.3 468.9 31.4 468.9 34 C 468.9 35.8 469.9 37.6 471.8 37.6 Z M 484.2 32.7 C 484.15 32.7 484.6 32.7 484.6 32.7 C 484.6 32.7 484.59 32.6 484.6 32.6 C 484.6 30.8 483.9 30.2 482.4 30.2 C 481.9 30.2 480.7 30.3 480.7 31 C 480.69 30.96 480.7 31.5 480.7 31.5 L 478.9 31.5 C 478.9 31.5 478.87 30.54 478.9 30.5 C 478.9 28.9 481.4 28.6 482.4 28.6 C 485.7 28.6 486.5 30.4 486.5 32.6 C 486.5 32.6 486.5 36.9 486.5 36.9 C 486.5 37.2 486.7 37.3 487 37.3 C 486.97 37.34 487.8 37.3 487.8 37.3 L 487.8 39 C 487.8 39 485.97 39 486 39 C 485.1 39 484.7 38.6 484.7 37.8 C 484.71 37.5 484.8 37.2 484.8 37.2 L 484.7 37.2 C 484.7 37.2 483.91 39.24 481.5 39.2 C 479.8 39.2 478.1 38.2 478.1 36.2 C 478.1 32.9 482.5 32.7 484.2 32.7 Z M 481.9 37.7 C 483.6 37.7 484.6 36 484.6 34.5 C 484.61 34.46 484.6 34.1 484.6 34.1 C 484.6 34.1 484.11 34.12 484.1 34.1 C 482.7 34.1 480 34.2 480 36.1 C 480 36.9 480.6 37.7 481.9 37.7 Z M 489.8 27 C 489.8 26.7 489.7 26.5 489.4 26.5 C 489.37 26.54 488.6 26.5 488.6 26.5 L 488.6 24.9 C 488.6 24.9 490.47 24.88 490.5 24.9 C 491.4 24.9 491.8 25.1 491.8 26 C 491.75 26.04 491.8 32.6 491.8 32.6 C 491.8 32.6 492.65 32.6 492.7 32.6 C 493 32.6 493.5 32.5 493.7 32.2 C 493.71 32.16 496.1 28.9 496.1 28.9 L 498.3 28.9 C 498.3 28.9 495.53 32.64 495.5 32.6 C 495.07 33.26 494.8 33.4 494.8 33.4 L 494.8 33.4 C 494.8 33.4 495.11 33.56 495.5 34.2 C 495.5 34.2 497 36.9 497 36.9 C 497.1 37.3 497.3 37.3 497.8 37.3 C 497.81 37.34 498.4 37.3 498.4 37.3 L 498.4 39 C 498.4 39 497.03 39 497 39 C 496.1 39 495.8 38.8 495.4 38.1 C 495.4 38.1 493.5 34.7 493.5 34.7 C 493.3 34.3 492.8 34.2 492.5 34.2 C 492.51 34.24 491.8 34.2 491.8 34.2 L 491.8 39 L 489.8 39 C 489.8 39 489.81 26.98 489.8 27 Z M 502.3 36.9 L 500.6 41 L 499.1 41 L 500.4 36.9 L 502.3 36.9 Z M 510.5 27 C 510.5 26.7 510.3 26.5 510.1 26.5 C 510.05 26.54 509.2 26.5 509.2 26.5 L 509.2 24.9 C 509.2 24.9 511.15 24.88 511.2 24.9 C 512.1 24.9 512.4 25.1 512.4 26 C 512.43 26.04 512.4 32.6 512.4 32.6 C 512.4 32.6 513.33 32.6 513.3 32.6 C 513.7 32.6 514.1 32.5 514.4 32.2 C 514.39 32.16 516.7 28.9 516.7 28.9 L 519 28.9 C 519 28.9 516.21 32.64 516.2 32.6 C 515.75 33.26 515.5 33.4 515.5 33.4 L 515.5 33.4 C 515.5 33.4 515.79 33.56 516.1 34.2 C 516.1 34.2 517.6 36.9 517.6 36.9 C 517.8 37.3 518 37.3 518.5 37.3 C 518.49 37.34 519.1 37.3 519.1 37.3 L 519.1 39 C 519.1 39 517.71 39 517.7 39 C 516.8 39 516.5 38.8 516 38.1 C 516 38.1 514.2 34.7 514.2 34.7 C 514 34.3 513.5 34.2 513.2 34.2 C 513.19 34.24 512.4 34.2 512.4 34.2 L 512.4 39 L 510.5 39 C 510.5 39 510.49 26.98 510.5 27 Z M 525.4 28.6 C 528.4 28.6 530.8 30.9 530.8 33.9 C 530.8 37 528.4 39.2 525.4 39.2 C 522.3 39.2 519.9 37 519.9 33.9 C 519.9 30.9 522.3 28.6 525.4 28.6 Z M 525.4 37.6 C 527.3 37.6 528.8 36 528.8 33.9 C 528.8 31.8 527.3 30.3 525.4 30.3 C 523.5 30.3 521.9 31.8 521.9 33.9 C 521.9 36 523.5 37.6 525.4 37.6 Z M 533.2 31 C 533.2 30.7 533.1 30.5 532.8 30.5 C 532.79 30.54 532 30.5 532 30.5 L 532 28.9 C 532 28.9 533.83 28.88 533.8 28.9 C 534.7 28.9 535.1 29.3 535.1 30 C 535.1 30 535.1 30.4 535.1 30.4 C 535.11 30.7 535.1 31 535.1 31 C 535.1 31 535.13 30.96 535.1 31 C 535.6 29.8 537 28.6 538.6 28.6 C 540.3 28.6 541.3 29.4 541.6 30.9 C 541.6 30.9 541.7 30.9 541.7 30.9 C 542.2 29.7 543.6 28.6 545.3 28.6 C 547.6 28.6 548.6 29.9 548.6 32.5 C 548.6 32.5 548.6 36.9 548.6 36.9 C 548.6 37.2 548.8 37.3 549.1 37.3 C 549.05 37.34 549.9 37.3 549.9 37.3 L 549.9 39 C 549.9 39 547.95 39 548 39 C 547.1 39 546.7 38.6 546.7 37.7 C 546.7 37.7 546.7 32.9 546.7 32.9 C 546.7 31.5 546.4 30.4 544.9 30.4 C 543.5 30.4 542.4 31.6 542.1 33 C 542 33.4 541.9 33.9 541.9 34.4 C 541.89 34.38 541.9 39 541.9 39 L 540 39 C 540 39 539.95 32.94 540 32.9 C 540 31.6 539.8 30.4 538.2 30.4 C 536.7 30.4 535.7 31.6 535.3 33.1 C 535.2 33.5 535.2 33.9 535.2 34.4 C 535.17 34.38 535.2 39 535.2 39 L 533.2 39 C 533.2 39 533.23 30.98 533.2 31 Z M 551.9 27 C 551.9 26.7 551.7 26.5 551.5 26.5 C 551.45 26.54 550.6 26.5 550.6 26.5 L 550.6 24.9 C 550.6 24.9 552.55 24.88 552.6 24.9 C 553.5 24.9 553.8 25.3 553.8 26.2 C 553.8 26.2 553.8 29.5 553.8 29.5 C 553.83 29.94 553.8 30.3 553.8 30.3 L 553.8 30.3 C 553.8 30.3 554.71 28.64 557.1 28.6 C 559.8 28.6 561.5 30.8 561.5 33.9 C 561.5 37.2 559.6 39.2 556.9 39.2 C 554.67 39.24 553.8 37.5 553.8 37.5 L 553.7 37.5 C 553.7 37.5 553.75 37.86 553.8 38.3 C 553.75 38.3 553.8 39 553.8 39 L 551.9 39 C 551.9 39 551.89 26.98 551.9 27 Z M 556.7 37.6 C 558.3 37.6 559.6 36.3 559.6 34 C 559.6 31.8 558.4 30.3 556.7 30.3 C 555.2 30.3 553.8 31.4 553.8 34 C 553.8 35.8 554.7 37.6 556.7 37.6 Z M 564.1 24.9 L 565.9 24.9 L 565.9 26.9 L 564.1 26.9 L 564.1 24.9 Z M 564.1 31 C 564.1 30.7 563.9 30.5 563.6 30.5 C 563.63 30.54 562.8 30.5 562.8 30.5 L 562.8 28.9 C 562.8 28.9 564.71 28.88 564.7 28.9 C 565.6 28.9 566 29.3 566 30.2 C 566 30.2 566 36.9 566 36.9 C 566 37.2 566.2 37.3 566.4 37.3 C 566.43 37.34 567.3 37.3 567.3 37.3 L 567.3 39 C 567.3 39 565.35 39 565.4 39 C 564.5 39 564.1 38.6 564.1 37.7 C 564.1 37.7 564.1 31 564.1 31 Z M 569.5 31 C 569.5 30.7 569.3 30.5 569 30.5 C 569.03 30.54 568.2 30.5 568.2 30.5 L 568.2 28.9 C 568.2 28.9 570.07 28.88 570.1 28.9 C 570.9 28.9 571.4 29.3 571.4 30 C 571.4 30 571.4 30.4 571.4 30.4 C 571.35 30.7 571.3 31 571.3 31 C 571.3 31 571.35 30.96 571.4 31 C 571.8 30.1 573 28.6 575.2 28.6 C 577.6 28.6 578.6 29.9 578.6 32.5 C 578.6 32.5 578.6 36.9 578.6 36.9 C 578.6 37.2 578.8 37.3 579.1 37.3 C 579.07 37.34 579.9 37.3 579.9 37.3 L 579.9 39 C 579.9 39 577.97 39 578 39 C 577.1 39 576.7 38.6 576.7 37.7 C 576.7 37.7 576.7 33 576.7 33 C 576.7 31.5 576.4 30.4 574.8 30.4 C 573.2 30.4 572 31.4 571.6 32.9 C 571.5 33.3 571.4 33.8 571.4 34.3 C 571.41 34.26 571.4 39 571.4 39 L 569.5 39 C 569.5 39 569.47 30.98 569.5 31 Z M 587.1 32.7 C 587.13 32.7 587.6 32.7 587.6 32.7 C 587.6 32.7 587.57 32.6 587.6 32.6 C 587.6 30.8 586.9 30.2 585.3 30.2 C 584.9 30.2 583.7 30.3 583.7 31 C 583.67 30.96 583.7 31.5 583.7 31.5 L 581.9 31.5 C 581.9 31.5 581.85 30.54 581.9 30.5 C 581.9 28.9 584.4 28.6 585.4 28.6 C 588.6 28.6 589.5 30.4 589.5 32.6 C 589.5 32.6 589.5 36.9 589.5 36.9 C 589.5 37.2 589.7 37.3 590 37.3 C 589.95 37.34 590.8 37.3 590.8 37.3 L 590.8 39 C 590.8 39 588.95 39 589 39 C 588.1 39 587.7 38.6 587.7 37.8 C 587.69 37.5 587.7 37.2 587.7 37.2 L 587.7 37.2 C 587.7 37.2 586.89 39.24 584.5 39.2 C 582.7 39.2 581 38.2 581 36.2 C 581 32.9 585.4 32.7 587.1 32.7 Z M 584.9 37.7 C 586.5 37.7 587.6 36 587.6 34.5 C 587.59 34.46 587.6 34.1 587.6 34.1 C 587.6 34.1 587.09 34.12 587.1 34.1 C 585.6 34.1 583 34.2 583 36.1 C 583 36.9 583.6 37.7 584.9 37.7 Z M 586.3 24.9 L 588.2 24.9 L 586.3 27.4 L 584.8 27.4 L 586.3 24.9 Z M 597.3 28.6 C 598.6 28.6 601 29.1 601 30.9 C 600.97 30.86 601 31.9 601 31.9 L 599.2 31.9 C 599.2 31.9 599.21 31.34 599.2 31.3 C 599.2 30.6 598.1 30.3 597.3 30.3 C 595.4 30.3 593.9 31.8 593.9 33.9 C 593.9 36.2 595.6 37.5 597.4 37.5 C 599.33 37.52 600.6 36.1 600.6 36.1 L 601.4 37.5 C 601.4 37.5 599.97 39.24 597.3 39.2 C 594.1 39.2 591.9 37 591.9 33.9 C 591.9 31 594.1 28.6 597.3 28.6 Z M 603.7 24.9 L 605.4 24.9 L 605.4 26.9 L 603.7 26.9 L 603.7 24.9 Z M 603.6 31 C 603.6 30.7 603.5 30.5 603.2 30.5 C 603.19 30.54 602.4 30.5 602.4 30.5 L 602.4 28.9 C 602.4 28.9 604.27 28.88 604.3 28.9 C 605.2 28.9 605.6 29.3 605.6 30.2 C 605.6 30.2 605.6 36.9 605.6 36.9 C 605.6 37.2 605.7 37.3 606 37.3 C 605.99 37.34 606.8 37.3 606.8 37.3 L 606.8 39 C 606.8 39 604.91 39 604.9 39 C 604 39 603.6 38.6 603.6 37.7 C 603.6 37.7 603.6 31 603.6 31 Z M 614.2 32.7 C 614.17 32.7 614.6 32.7 614.6 32.7 C 614.6 32.7 614.61 32.6 614.6 32.6 C 614.6 30.8 614 30.2 612.4 30.2 C 611.9 30.2 610.7 30.3 610.7 31 C 610.71 30.96 610.7 31.5 610.7 31.5 L 608.9 31.5 C 608.9 31.5 608.89 30.54 608.9 30.5 C 608.9 28.9 611.4 28.6 612.4 28.6 C 615.7 28.6 616.6 30.4 616.6 32.6 C 616.6 32.6 616.6 36.9 616.6 36.9 C 616.6 37.2 616.7 37.3 617 37.3 C 616.99 37.34 617.8 37.3 617.8 37.3 L 617.8 39 C 617.8 39 615.99 39 616 39 C 615.1 39 614.7 38.6 614.7 37.8 C 614.73 37.5 614.8 37.2 614.8 37.2 L 614.7 37.2 C 614.7 37.2 613.93 39.24 611.5 39.2 C 609.8 39.2 608.1 38.2 608.1 36.2 C 608.1 32.9 612.5 32.7 614.2 32.7 Z M 611.9 37.7 C 613.6 37.7 614.6 36 614.6 34.5 C 614.63 34.46 614.6 34.1 614.6 34.1 C 614.6 34.1 614.13 34.12 614.1 34.1 C 612.7 34.1 610 34.2 610 36.1 C 610 36.9 610.7 37.7 611.9 37.7 Z M 625.7 26.6 L 624.4 26.6 L 624.4 24.9 C 624.4 24.9 632.65 24.88 632.7 24.9 C 633.6 24.9 633.9 25.3 633.9 26.2 C 633.93 26.16 633.9 27.9 633.9 27.9 L 632.1 27.9 C 632.1 27.9 632.11 27.04 632.1 27 C 632.1 26.7 632 26.6 631.7 26.6 C 631.67 26.6 627.7 26.6 627.7 26.6 L 627.7 31 L 632.6 31 L 632.6 32.7 L 627.7 32.7 C 627.7 32.7 627.65 36.84 627.7 36.8 C 627.7 37.1 627.8 37.3 628.1 37.3 C 628.1 37.3 632.2 37.3 632.2 37.3 C 632.5 37.3 632.7 37.1 632.7 36.8 C 632.65 36.84 632.7 35.9 632.7 35.9 L 634.5 35.9 C 634.5 35.9 634.49 37.72 634.5 37.7 C 634.5 38.6 634.1 39 633.2 39 C 633.2 39 626.9 39 626.9 39 C 626 39 625.7 38.6 625.7 37.7 C 625.65 37.72 625.7 26.6 625.7 26.6 Z M 637 26.6 L 635.7 26.6 L 635.7 24.9 C 635.7 24.9 644.01 24.88 644 24.9 C 644.9 24.9 645.3 25.3 645.3 26.2 C 645.29 26.16 645.3 27.9 645.3 27.9 L 643.5 27.9 C 643.5 27.9 643.47 27.04 643.5 27 C 643.5 26.7 643.3 26.6 643 26.6 C 643.03 26.6 639 26.6 639 26.6 L 639 31 L 644 31 L 644 32.7 L 639 32.7 C 639 32.7 639.01 36.84 639 36.8 C 639 37.1 639.2 37.3 639.5 37.3 C 639.5 37.3 643.6 37.3 643.6 37.3 C 643.9 37.3 644 37.1 644 36.8 C 644.01 36.84 644 35.9 644 35.9 L 645.9 35.9 C 645.9 35.9 645.85 37.72 645.9 37.7 C 645.9 38.6 645.5 39 644.6 39 C 644.6 39 638.3 39 638.3 39 C 637.4 39 637 38.6 637 37.7 C 637.01 37.72 637 26.6 637 26.6 Z M 651.4 24.1 L 653.1 24.1 L 648.1 39.8 L 646.3 39.8 L 651.4 24.1 Z M 655.3 27 C 655.3 26.7 655.1 26.6 654.9 26.6 C 654.85 26.6 654 26.6 654 26.6 L 654 24.9 C 654 24.9 656.01 24.88 656 24.9 C 656.9 24.9 657.3 25.3 657.3 26.2 C 657.3 26.2 657.3 36.8 657.3 36.8 C 657.3 37.1 657.5 37.3 657.7 37.3 C 657.7 37.3 661.6 37.3 661.6 37.3 C 661.9 37.3 662.1 37.1 662.1 36.8 C 662.07 36.84 662.1 35.9 662.1 35.9 L 663.9 35.9 C 663.9 35.9 663.89 37.72 663.9 37.7 C 663.9 38.6 663.5 39 662.6 39 C 662.6 39 656.6 39 656.6 39 C 655.7 39 655.3 38.6 655.3 37.7 C 655.3 37.7 655.3 27 655.3 27 Z M 664.9 37.3 C 664.9 37.3 665.71 37.28 665.7 37.3 C 666 37.3 666.2 37.1 666.2 36.8 C 666.15 36.84 666.2 24.9 666.2 24.9 L 668 24.9 C 668 24.9 674.25 33.82 674.3 33.8 C 674.77 34.58 675.4 35.7 675.4 35.7 L 675.5 35.7 C 675.5 35.7 675.33 34.62 675.3 33.8 C 675.3 33.8 675.3 26.2 675.3 26.2 C 675.3 25.3 675.7 24.9 676.6 24.9 C 676.63 24.88 678.6 24.9 678.6 24.9 L 678.6 26.6 C 678.6 26.6 677.77 26.6 677.8 26.6 C 677.5 26.6 677.3 26.7 677.3 27 C 677.33 27.04 677.3 39 677.3 39 L 675.5 39 C 675.5 39 669.23 30.06 669.2 30.1 C 668.71 29.3 668.1 28.1 668.1 28.1 L 668 28.1 C 668 28.1 668.15 29.28 668.2 30.1 C 668.2 30.1 668.2 37.7 668.2 37.7 C 668.2 38.6 667.8 39 666.9 39 C 666.87 39 664.9 39 664.9 39 L 664.9 37.3 Z M 687.2 24.6 C 690.59 24.64 692.3 26.4 692.3 26.4 L 691.1 27.8 C 691.1 27.8 689.59 26.48 687.3 26.5 C 684.4 26.5 682.2 28.7 682.2 31.9 C 682.2 35.2 684.4 37.4 687.3 37.4 C 689.81 37.36 691.3 35.6 691.3 35.6 C 691.3 35.6 691.31 34.18 691.3 34.2 C 691.3 33.9 691.2 33.7 690.9 33.7 C 690.87 33.74 690 33.7 690 33.7 L 690 32 C 690 32 691.87 32.02 691.9 32 C 692.8 32 693.2 32.4 693.2 33.3 C 693.15 33.3 693.2 39 693.2 39 L 691.4 39 C 691.4 39 691.39 38.12 691.4 38.1 C 691.39 37.82 691.4 37.5 691.4 37.5 L 691.4 37.5 C 691.4 37.5 689.79 39.24 687 39.2 C 683.2 39.2 680.1 36.3 680.1 31.9 C 680.1 27.8 683.2 24.6 687.2 24.6 Z " stroke="none" fill="#ee3078"/>  </g>  <g id="Polygon74317">    <path d="M 2.1 2.6 L 0.8 2.6 L 0.8 0.9 C 0.8 0.9 6.48 0.88 6.5 0.9 C 10.8 0.9 13.6 3.5 13.6 7.9 C 13.6 12.4 10.8 15 6.5 15 C 6.5 15 3.3 15 3.3 15 C 2.4 15 2.1 14.6 2.1 13.7 C 2.06 13.72 2.1 2.6 2.1 2.6 Z M 4.5 13.3 C 4.5 13.3 6.3 13.3 6.3 13.3 C 9.5 13.3 11.5 11.4 11.5 7.9 C 11.5 4.5 9.5 2.6 6.3 2.6 C 6.34 2.6 4.1 2.6 4.1 2.6 C 4.1 2.6 4.06 12.84 4.1 12.8 C 4.1 13.1 4.2 13.3 4.5 13.3 Z M 16.1 7 C 16.1 6.7 16 6.5 15.7 6.5 C 15.7 6.54 14.9 6.5 14.9 6.5 L 14.9 4.9 C 14.9 4.9 16.72 4.88 16.7 4.9 C 17.6 4.9 18 5.2 18 6.1 C 18 6.1 18 6.7 18 6.7 C 18.02 7.1 18 7.4 18 7.4 C 18 7.4 18.02 7.4 18 7.4 C 18.5 5.9 19.7 4.8 21.2 4.8 C 21.48 4.76 21.7 4.8 21.7 4.8 L 21.7 6.7 C 21.7 6.7 21.48 6.66 21.2 6.7 C 19.9 6.7 18.8 7.5 18.3 9 C 18.1 9.6 18.1 10.2 18.1 10.9 C 18.08 10.86 18.1 15 18.1 15 L 16.1 15 C 16.1 15 16.14 6.98 16.1 7 Z M 27.9 4.6 C 31 4.6 33.4 6.9 33.4 9.9 C 33.4 13 31 15.2 27.9 15.2 C 24.9 15.2 22.5 13 22.5 9.9 C 22.5 6.9 24.9 4.6 27.9 4.6 Z M 27.9 13.6 C 29.9 13.6 31.4 12 31.4 9.9 C 31.4 7.8 29.9 6.3 27.9 6.3 C 26 6.3 24.5 7.8 24.5 9.9 C 24.5 12 26 13.6 27.9 13.6 Z M 35 6.9 C 34.9 6.6 34.7 6.5 34.4 6.5 C 34.38 6.54 34.2 6.5 34.2 6.5 L 34.2 4.9 C 34.2 4.9 35.18 4.88 35.2 4.9 C 36.1 4.9 36.4 5.1 36.7 5.9 C 36.7 5.9 38.9 11.7 38.9 11.7 C 39.1 12.28 39.3 13 39.3 13 L 39.3 13 C 39.3 13 39.46 12.28 39.7 11.7 C 39.7 11.7 41.8 5.9 41.8 5.9 C 42.1 5.1 42.5 4.9 43.4 4.9 C 43.36 4.88 44.3 4.9 44.3 4.9 L 44.3 6.5 C 44.3 6.5 44.1 6.54 44.1 6.5 C 43.8 6.5 43.6 6.6 43.4 6.9 C 43.44 6.94 40.4 15 40.4 15 L 38.1 15 C 38.1 15 35 6.94 35 6.9 Z M 50.2 4.6 C 53 4.6 54.5 6.8 54.5 9.4 C 54.52 9.64 54.5 10.2 54.5 10.2 C 54.5 10.2 47.08 10.18 47.1 10.2 C 47.2 12.3 48.8 13.6 50.6 13.6 C 52.3 13.56 53.5 12.4 53.5 12.4 L 54.4 13.8 C 54.4 13.8 52.86 15.24 50.5 15.2 C 47.3 15.2 45.1 12.9 45.1 9.9 C 45.1 6.7 47.3 4.6 50.2 4.6 Z M 52.5 8.8 C 52.5 7.1 51.4 6.2 50.1 6.2 C 48.7 6.2 47.5 7.1 47.2 8.8 C 47.2 8.8 52.5 8.8 52.5 8.8 Z M 57.1 3 C 57.1 2.7 56.9 2.5 56.6 2.5 C 56.62 2.54 55.8 2.5 55.8 2.5 L 55.8 0.9 C 55.8 0.9 57.72 0.88 57.7 0.9 C 58.6 0.9 59 1.3 59 2.2 C 59 2.2 59 12.9 59 12.9 C 59 13.2 59.2 13.3 59.4 13.3 C 59.44 13.34 60.3 13.3 60.3 13.3 L 60.3 15 C 60.3 15 58.34 15 58.3 15 C 57.4 15 57.1 14.6 57.1 13.7 C 57.1 13.7 57.1 3 57.1 3 Z M 62.6 0.9 L 64.3 0.9 L 64.3 2.9 L 62.6 2.9 L 62.6 0.9 Z M 62.6 7 C 62.6 6.7 62.4 6.5 62.1 6.5 C 62.12 6.54 61.3 6.5 61.3 6.5 L 61.3 4.9 C 61.3 4.9 63.2 4.88 63.2 4.9 C 64.1 4.9 64.5 5.3 64.5 6.2 C 64.5 6.2 64.5 12.9 64.5 12.9 C 64.5 13.2 64.6 13.3 64.9 13.3 C 64.92 13.34 65.7 13.3 65.7 13.3 L 65.7 15 C 65.7 15 63.84 15 63.8 15 C 62.9 15 62.6 14.6 62.6 13.7 C 62.6 13.7 62.6 7 62.6 7 Z M 67.8 12.2 C 67.8 12.2 69 13.66 70.9 13.7 C 71.8 13.7 72.6 13.2 72.6 12.4 C 72.6 10.5 67.1 10.7 67.1 7.5 C 67.1 5.5 68.8 4.6 70.9 4.6 C 72.1 4.6 74.2 5.1 74.2 6.6 C 74.18 6.6 74.2 7.6 74.2 7.6 L 72.4 7.6 C 72.4 7.6 72.44 7.06 72.4 7.1 C 72.4 6.5 71.5 6.2 70.9 6.2 C 69.8 6.2 69 6.6 69 7.4 C 69 9.3 74.6 8.9 74.6 12.3 C 74.6 14.1 73 15.2 70.8 15.2 C 68.14 15.24 66.8 13.5 66.8 13.5 L 67.8 12.2 Z M 82.4 7 C 82.4 6.7 82.3 6.5 82 6.5 C 81.98 6.54 81.2 6.5 81.2 6.5 L 81.2 4.9 C 81.2 4.9 82.98 4.88 83 4.9 C 83.9 4.9 84.2 5.3 84.2 5.9 C 84.22 6.2 84.2 6.4 84.2 6.4 L 84.2 6.4 C 84.2 6.4 85.08 4.64 87.6 4.6 C 90.3 4.6 92.1 6.8 92.1 9.9 C 92.1 13.2 90.1 15.2 87.5 15.2 C 85.22 15.24 84.4 13.6 84.4 13.6 L 84.3 13.6 C 84.3 13.6 84.36 13.98 84.4 14.5 C 84.36 14.5 84.4 19 84.4 19 L 82.4 19 C 82.4 19 82.42 6.98 82.4 7 Z M 87.2 13.6 C 88.8 13.6 90.1 12.3 90.1 10 C 90.1 7.8 88.9 6.3 87.2 6.3 C 85.7 6.3 84.3 7.4 84.3 10 C 84.3 11.8 85.3 13.6 87.2 13.6 Z M 94.5 7 C 94.5 6.7 94.3 6.5 94.1 6.5 C 94.06 6.54 93.2 6.5 93.2 6.5 L 93.2 4.9 C 93.2 4.9 95.08 4.88 95.1 4.9 C 96 4.9 96.4 5.2 96.4 6.1 C 96.4 6.1 96.4 6.7 96.4 6.7 C 96.38 7.1 96.3 7.4 96.3 7.4 C 96.3 7.4 96.38 7.4 96.4 7.4 C 96.9 5.9 98 4.8 99.6 4.8 C 99.84 4.76 100.1 4.8 100.1 4.8 L 100.1 6.7 C 100.1 6.7 99.84 6.66 99.5 6.7 C 98.3 6.7 97.1 7.5 96.7 9 C 96.5 9.6 96.4 10.2 96.4 10.9 C 96.44 10.86 96.4 15 96.4 15 L 94.5 15 C 94.5 15 94.5 6.98 94.5 7 Z M 105.9 4.6 C 108.8 4.6 110.3 6.8 110.3 9.4 C 110.3 9.64 110.2 10.2 110.2 10.2 C 110.2 10.2 102.86 10.18 102.9 10.2 C 103 12.3 104.5 13.6 106.3 13.6 C 108.08 13.56 109.3 12.4 109.3 12.4 L 110.1 13.8 C 110.1 13.8 108.64 15.24 106.2 15.2 C 103 15.2 100.9 12.9 100.9 9.9 C 100.9 6.7 103.1 4.6 105.9 4.6 Z M 108.3 8.8 C 108.2 7.1 107.2 6.2 105.9 6.2 C 104.4 6.2 103.2 7.1 102.9 8.8 C 102.9 8.8 108.3 8.8 108.3 8.8 Z M 112.8 7 C 112.8 6.7 112.7 6.5 112.4 6.5 C 112.4 6.54 111.6 6.5 111.6 6.5 L 111.6 4.9 C 111.6 4.9 113.48 4.88 113.5 4.9 C 114.4 4.9 114.8 5.3 114.8 6.1 C 114.8 6.1 114.8 10.9 114.8 10.9 C 114.8 12.3 115.1 13.4 116.7 13.4 C 118.7 13.4 120 11.6 120 9.6 C 119.96 9.62 120 4.9 120 4.9 L 121.9 4.9 C 121.9 4.9 121.9 12.9 121.9 12.9 C 121.9 13.2 122.1 13.3 122.3 13.3 C 122.34 13.34 123.2 13.3 123.2 13.3 L 123.2 15 C 123.2 15 121.3 15 121.3 15 C 120.4 15 120 14.6 120 13.9 C 120 13.9 120 13.5 120 13.5 C 120.02 13.18 120 12.9 120 12.9 C 120 12.9 120 12.92 120 12.9 C 119.6 13.9 118.3 15.2 116.3 15.2 C 114 15.2 112.8 14 112.8 11.4 C 112.8 11.4 112.8 7 112.8 7 Z M 125.2 3 C 125.2 2.7 125.1 2.5 124.8 2.5 C 124.78 2.54 124 2.5 124 2.5 L 124 0.9 C 124 0.9 125.88 0.88 125.9 0.9 C 126.8 0.9 127.2 1.1 127.2 2 C 127.16 2.04 127.2 8.6 127.2 8.6 C 127.2 8.6 128.06 8.6 128.1 8.6 C 128.4 8.6 128.9 8.5 129.1 8.2 C 129.12 8.16 131.5 4.9 131.5 4.9 L 133.7 4.9 C 133.7 4.9 130.94 8.64 130.9 8.6 C 130.48 9.26 130.2 9.4 130.2 9.4 L 130.2 9.4 C 130.2 9.4 130.52 9.56 130.9 10.2 C 130.9 10.2 132.4 12.9 132.4 12.9 C 132.5 13.3 132.7 13.3 133.2 13.3 C 133.22 13.34 133.8 13.3 133.8 13.3 L 133.8 15 C 133.8 15 132.44 15 132.4 15 C 131.5 15 131.2 14.8 130.8 14.1 C 130.8 14.1 128.9 10.7 128.9 10.7 C 128.7 10.3 128.2 10.2 127.9 10.2 C 127.92 10.24 127.2 10.2 127.2 10.2 L 127.2 15 L 125.2 15 C 125.2 15 125.22 2.98 125.2 3 Z M 140.8 8.7 C 140.84 8.7 141.3 8.7 141.3 8.7 C 141.3 8.7 141.28 8.6 141.3 8.6 C 141.3 6.8 140.6 6.2 139 6.2 C 138.6 6.2 137.4 6.3 137.4 7 C 137.38 6.96 137.4 7.5 137.4 7.5 L 135.6 7.5 C 135.6 7.5 135.56 6.54 135.6 6.5 C 135.6 4.9 138.1 4.6 139.1 4.6 C 142.3 4.6 143.2 6.4 143.2 8.6 C 143.2 8.6 143.2 12.9 143.2 12.9 C 143.2 13.2 143.4 13.3 143.7 13.3 C 143.66 13.34 144.5 13.3 144.5 13.3 L 144.5 15 C 144.5 15 142.66 15 142.7 15 C 141.8 15 141.4 14.6 141.4 13.8 C 141.4 13.5 141.4 13.2 141.4 13.2 L 141.4 13.2 C 141.4 13.2 140.6 15.24 138.2 15.2 C 136.4 15.2 134.7 14.2 134.7 12.2 C 134.7 8.9 139.1 8.7 140.8 8.7 Z M 138.6 13.7 C 140.2 13.7 141.3 12 141.3 10.5 C 141.3 10.46 141.3 10.1 141.3 10.1 C 141.3 10.1 140.8 10.12 140.8 10.1 C 139.3 10.1 136.7 10.2 136.7 12.1 C 136.7 12.9 137.3 13.7 138.6 13.7 Z M 145.5 13.9 C 145.5 13.9 150.72 7.48 150.7 7.5 C 151.16 6.94 151.6 6.5 151.6 6.5 L 151.6 6.5 C 151.6 6.5 151.24 6.54 150.6 6.5 C 150.6 6.5 147.8 6.5 147.8 6.5 C 147.5 6.5 147.4 6.7 147.4 7 C 147.38 6.98 147.4 7.7 147.4 7.7 L 145.6 7.7 C 145.6 7.7 145.6 6.16 145.6 6.2 C 145.6 5.3 146 4.9 146.9 4.9 C 146.88 4.88 154.1 4.9 154.1 4.9 L 154.1 6 C 154.1 6 148.92 12.42 148.9 12.4 C 148.5 12.92 148.1 13.3 148.1 13.3 L 148.1 13.4 C 148.1 13.4 148.4 13.34 149.1 13.3 C 149.1 13.3 152.3 13.3 152.3 13.3 C 152.6 13.3 152.7 13.2 152.7 12.9 C 152.74 12.9 152.7 12.2 152.7 12.2 L 154.5 12.2 C 154.5 12.2 154.5 13.72 154.5 13.7 C 154.5 14.6 154.1 15 153.2 15 C 153.22 15 145.5 15 145.5 15 L 145.5 13.9 Z M 156.6 7 C 156.6 6.7 156.5 6.5 156.2 6.5 C 156.2 6.54 155.4 6.5 155.4 6.5 L 155.4 4.9 C 155.4 4.9 157.28 4.88 157.3 4.9 C 158.2 4.9 158.6 5.3 158.6 6.1 C 158.6 6.1 158.6 10.9 158.6 10.9 C 158.6 12.3 158.9 13.4 160.5 13.4 C 162.5 13.4 163.8 11.6 163.8 9.6 C 163.76 9.62 163.8 4.9 163.8 4.9 L 165.7 4.9 C 165.7 4.9 165.7 12.9 165.7 12.9 C 165.7 13.2 165.9 13.3 166.1 13.3 C 166.14 13.34 167 13.3 167 13.3 L 167 15 C 167 15 165.1 15 165.1 15 C 164.2 15 163.8 14.6 163.8 13.9 C 163.8 13.9 163.8 13.5 163.8 13.5 C 163.82 13.18 163.8 12.9 163.8 12.9 C 163.8 12.9 163.8 12.92 163.8 12.9 C 163.4 13.9 162.1 15.2 160.1 15.2 C 157.8 15.2 156.6 14 156.6 11.4 C 156.6 11.4 156.6 7 156.6 7 Z M 169.6 0.9 L 171.4 0.9 L 171.4 2.9 L 169.6 2.9 L 169.6 0.9 Z M 167.4 17.4 C 168.2 17.4 169.6 17.2 169.6 15.2 C 169.6 15.2 169.6 7 169.6 7 C 169.6 6.7 169.4 6.5 169.2 6.5 C 169.16 6.54 168.3 6.5 168.3 6.5 L 168.3 4.9 C 168.3 4.9 170.26 4.88 170.3 4.9 C 171.2 4.9 171.5 5.3 171.5 6.2 C 171.5 6.2 171.5 15.3 171.5 15.3 C 171.5 18.7 168.9 19.1 167.7 19.1 C 167.26 19.12 167 19.1 167 19.1 L 167 17.4 C 167 17.4 167.18 17.44 167.4 17.4 Z M 178.9 4.6 C 181.8 4.6 183.3 6.8 183.3 9.4 C 183.28 9.64 183.2 10.2 183.2 10.2 C 183.2 10.2 175.84 10.18 175.8 10.2 C 176 12.3 177.5 13.6 179.3 13.6 C 181.06 13.56 182.3 12.4 182.3 12.4 L 183.1 13.8 C 183.1 13.8 181.62 15.24 179.2 15.2 C 176 15.2 173.8 12.9 173.8 9.9 C 173.8 6.7 176 4.6 178.9 4.6 Z M 181.3 8.8 C 181.2 7.1 180.2 6.2 178.9 6.2 C 177.4 6.2 176.2 7.1 175.9 8.8 C 175.9 8.8 181.3 8.8 181.3 8.8 Z M 191.2 7 C 191.2 6.7 191.1 6.5 190.8 6.5 C 190.8 6.54 190 6.5 190 6.5 L 190 4.9 C 190 4.9 191.84 4.88 191.8 4.9 C 192.7 4.9 193.1 5.3 193.1 6 C 193.1 6 193.1 6.4 193.1 6.4 C 193.12 6.7 193.1 7 193.1 7 C 193.1 7 193.14 6.96 193.1 7 C 193.6 5.8 195 4.6 196.6 4.6 C 198.3 4.6 199.3 5.4 199.6 6.9 C 199.6 6.9 199.7 6.9 199.7 6.9 C 200.2 5.7 201.6 4.6 203.3 4.6 C 205.6 4.6 206.6 5.9 206.6 8.5 C 206.6 8.5 206.6 12.9 206.6 12.9 C 206.6 13.2 206.8 13.3 207.1 13.3 C 207.06 13.34 207.9 13.3 207.9 13.3 L 207.9 15 C 207.9 15 205.96 15 206 15 C 205.1 15 204.7 14.6 204.7 13.7 C 204.7 13.7 204.7 8.9 204.7 8.9 C 204.7 7.5 204.4 6.4 202.9 6.4 C 201.5 6.4 200.4 7.6 200.1 9 C 200 9.4 199.9 9.9 199.9 10.4 C 199.9 10.38 199.9 15 199.9 15 L 198 15 C 198 15 197.96 8.94 198 8.9 C 198 7.6 197.8 6.4 196.2 6.4 C 194.7 6.4 193.7 7.6 193.3 9.1 C 193.2 9.5 193.2 9.9 193.2 10.4 C 193.18 10.38 193.2 15 193.2 15 L 191.2 15 C 191.2 15 191.24 6.98 191.2 7 Z M 215.1 8.7 C 215.12 8.7 215.6 8.7 215.6 8.7 C 215.6 8.7 215.56 8.6 215.6 8.6 C 215.6 6.8 214.9 6.2 213.3 6.2 C 212.8 6.2 211.7 6.3 211.7 7 C 211.66 6.96 211.7 7.5 211.7 7.5 L 209.8 7.5 C 209.8 7.5 209.84 6.54 209.8 6.5 C 209.8 4.9 212.4 4.6 213.3 4.6 C 216.6 4.6 217.5 6.4 217.5 8.6 C 217.5 8.6 217.5 12.9 217.5 12.9 C 217.5 13.2 217.7 13.3 217.9 13.3 C 217.94 13.34 218.8 13.3 218.8 13.3 L 218.8 15 C 218.8 15 216.94 15 216.9 15 C 216 15 215.7 14.6 215.7 13.8 C 215.68 13.5 215.7 13.2 215.7 13.2 L 215.7 13.2 C 215.7 13.2 214.88 15.24 212.5 15.2 C 210.7 15.2 209 14.2 209 12.2 C 209 8.9 213.4 8.7 215.1 8.7 Z M 212.9 13.7 C 214.5 13.7 215.6 12 215.6 10.5 C 215.58 10.46 215.6 10.1 215.6 10.1 C 215.6 10.1 215.08 10.12 215.1 10.1 C 213.6 10.1 211 10.2 211 12.1 C 211 12.9 211.6 13.7 212.9 13.7 Z M 222.9 9.8 C 222.9 9.8 220.94 6.92 220.9 6.9 C 220.7 6.6 220.5 6.5 220.1 6.5 C 220.08 6.54 219.5 6.5 219.5 6.5 L 219.5 4.9 C 219.5 4.9 220.76 4.88 220.8 4.9 C 221.7 4.9 222 5.1 222.5 5.9 C 222.5 5.9 223.8 7.9 223.8 7.9 C 223.9 8.12 224.1 8.5 224.1 8.5 L 224.1 8.5 C 224.1 8.5 224.3 8.12 224.5 7.9 C 224.5 7.9 225.7 5.9 225.7 5.9 C 226.2 5 226.5 4.9 227.4 4.9 C 227.44 4.88 228.7 4.9 228.7 4.9 L 228.7 6.5 C 228.7 6.5 228.12 6.54 228.1 6.5 C 227.7 6.5 227.5 6.6 227.3 6.9 C 227.26 6.9 225.3 9.8 225.3 9.8 L 228.7 15 L 226.6 15 C 226.6 15 224.42 11.7 224.4 11.7 C 224.28 11.46 224.1 11.2 224.1 11.2 L 224.1 11.2 C 224.1 11.2 223.92 11.46 223.8 11.7 C 223.76 11.7 221.7 15 221.7 15 L 219.5 15 L 222.9 9.8 Z M 230.9 0.9 L 232.6 0.9 L 232.6 2.9 L 230.9 2.9 L 230.9 0.9 Z M 230.8 7 C 230.8 6.7 230.7 6.5 230.4 6.5 C 230.4 6.54 229.6 6.5 229.6 6.5 L 229.6 4.9 C 229.6 4.9 231.48 4.88 231.5 4.9 C 232.4 4.9 232.8 5.3 232.8 6.2 C 232.8 6.2 232.8 12.9 232.8 12.9 C 232.8 13.2 232.9 13.3 233.2 13.3 C 233.2 13.34 234 13.3 234 13.3 L 234 15 C 234 15 232.12 15 232.1 15 C 231.2 15 230.8 14.6 230.8 13.7 C 230.8 13.7 230.8 7 230.8 7 Z M 236.2 7 C 236.2 6.7 236.1 6.5 235.8 6.5 C 235.8 6.54 235 6.5 235 6.5 L 235 4.9 C 235 4.9 236.84 4.88 236.8 4.9 C 237.7 4.9 238.1 5.3 238.1 6 C 238.1 6 238.1 6.4 238.1 6.4 C 238.12 6.7 238.1 7 238.1 7 C 238.1 7 238.14 6.96 238.1 7 C 238.6 5.8 240 4.6 241.6 4.6 C 243.3 4.6 244.3 5.4 244.6 6.9 C 244.6 6.9 244.7 6.9 244.7 6.9 C 245.2 5.7 246.6 4.6 248.3 4.6 C 250.6 4.6 251.6 5.9 251.6 8.5 C 251.6 8.5 251.6 12.9 251.6 12.9 C 251.6 13.2 251.8 13.3 252.1 13.3 C 252.06 13.34 252.9 13.3 252.9 13.3 L 252.9 15 C 252.9 15 250.96 15 251 15 C 250.1 15 249.7 14.6 249.7 13.7 C 249.7 13.7 249.7 8.9 249.7 8.9 C 249.7 7.5 249.4 6.4 247.9 6.4 C 246.5 6.4 245.4 7.6 245.1 9 C 245 9.4 244.9 9.9 244.9 10.4 C 244.9 10.38 244.9 15 244.9 15 L 243 15 C 243 15 242.96 8.94 243 8.9 C 243 7.6 242.8 6.4 241.2 6.4 C 239.7 6.4 238.7 7.6 238.3 9.1 C 238.2 9.5 238.2 9.9 238.2 10.4 C 238.18 10.38 238.2 15 238.2 15 L 236.2 15 C 236.2 15 236.24 6.98 236.2 7 Z M 260.1 8.7 C 260.12 8.7 260.6 8.7 260.6 8.7 C 260.6 8.7 260.56 8.6 260.6 8.6 C 260.6 6.8 259.9 6.2 258.3 6.2 C 257.8 6.2 256.7 6.3 256.7 7 C 256.66 6.96 256.7 7.5 256.7 7.5 L 254.8 7.5 C 254.8 7.5 254.84 6.54 254.8 6.5 C 254.8 4.9 257.4 4.6 258.3 4.6 C 261.6 4.6 262.5 6.4 262.5 8.6 C 262.5 8.6 262.5 12.9 262.5 12.9 C 262.5 13.2 262.7 13.3 262.9 13.3 C 262.94 13.34 263.8 13.3 263.8 13.3 L 263.8 15 C 263.8 15 261.94 15 261.9 15 C 261 15 260.7 14.6 260.7 13.8 C 260.68 13.5 260.7 13.2 260.7 13.2 L 260.7 13.2 C 260.7 13.2 259.88 15.24 257.5 15.2 C 255.7 15.2 254 14.2 254 12.2 C 254 8.9 258.4 8.7 260.1 8.7 Z M 257.9 13.7 C 259.5 13.7 260.6 12 260.6 10.5 C 260.58 10.46 260.6 10.1 260.6 10.1 C 260.6 10.1 260.08 10.12 260.1 10.1 C 258.6 10.1 256 10.2 256 12.1 C 256 12.9 256.6 13.7 257.9 13.7 Z M 259.3 0.9 L 261.2 0.9 L 259.3 3.4 L 257.8 3.4 L 259.3 0.9 Z M 265.8 3 C 265.8 2.7 265.7 2.5 265.4 2.5 C 265.38 2.54 264.6 2.5 264.6 2.5 L 264.6 0.9 C 264.6 0.9 266.48 0.88 266.5 0.9 C 267.4 0.9 267.8 1.3 267.8 2.2 C 267.8 2.2 267.8 12.9 267.8 12.9 C 267.8 13.2 267.9 13.3 268.2 13.3 C 268.2 13.34 269 13.3 269 13.3 L 269 15 C 269 15 267.1 15 267.1 15 C 266.2 15 265.8 14.6 265.8 13.7 C 265.8 13.7 265.8 3 265.8 3 Z M 271.2 7 C 271.2 6.7 271.1 6.5 270.8 6.5 C 270.78 6.54 270 6.5 270 6.5 L 270 4.9 C 270 4.9 271.82 4.88 271.8 4.9 C 272.7 4.9 273.1 5.3 273.1 6 C 273.1 6 273.1 6.4 273.1 6.4 C 273.1 6.7 273.1 7 273.1 7 C 273.1 7 273.1 6.96 273.1 7 C 273.5 6.1 274.7 4.6 276.9 4.6 C 279.3 4.6 280.4 5.9 280.4 8.5 C 280.4 8.5 280.4 12.9 280.4 12.9 C 280.4 13.2 280.5 13.3 280.8 13.3 C 280.82 13.34 281.6 13.3 281.6 13.3 L 281.6 15 C 281.6 15 279.72 15 279.7 15 C 278.8 15 278.4 14.6 278.4 13.7 C 278.4 13.7 278.4 9 278.4 9 C 278.4 7.5 278.2 6.4 276.5 6.4 C 275 6.4 273.7 7.4 273.3 8.9 C 273.2 9.3 273.2 9.8 273.2 10.3 C 273.16 10.26 273.2 15 273.2 15 L 271.2 15 C 271.2 15 271.22 6.98 271.2 7 Z M 283.7 7 C 283.7 6.7 283.5 6.5 283.3 6.5 C 283.26 6.54 282.4 6.5 282.4 6.5 L 282.4 4.9 C 282.4 4.9 284.34 4.88 284.3 4.9 C 285.3 4.9 285.6 5.3 285.6 6.1 C 285.6 6.1 285.6 10.9 285.6 10.9 C 285.6 12.3 285.9 13.4 287.5 13.4 C 289.6 13.4 290.8 11.6 290.8 9.6 C 290.82 9.62 290.8 4.9 290.8 4.9 L 292.8 4.9 C 292.8 4.9 292.76 12.9 292.8 12.9 C 292.8 13.2 292.9 13.3 293.2 13.3 C 293.2 13.34 294 13.3 294 13.3 L 294 15 C 294 15 292.16 15 292.2 15 C 291.3 15 290.9 14.6 290.9 13.9 C 290.9 13.9 290.9 13.5 290.9 13.5 C 290.88 13.18 290.9 12.9 290.9 12.9 C 290.9 12.9 290.86 12.92 290.9 12.9 C 290.4 13.9 289.1 15.2 287.1 15.2 C 284.9 15.2 283.7 14 283.7 11.4 C 283.7 11.4 283.7 7 283.7 7 Z M 301.5 7 C 301.5 6.7 301.4 6.5 301.1 6.5 C 301.1 6.54 300.3 6.5 300.3 6.5 L 300.3 4.9 C 300.3 4.9 302.14 4.88 302.1 4.9 C 303 4.9 303.4 5.3 303.4 6 C 303.4 6 303.4 6.4 303.4 6.4 C 303.42 6.7 303.4 7 303.4 7 C 303.4 7 303.44 6.96 303.4 7 C 303.9 5.8 305.3 4.6 306.9 4.6 C 308.6 4.6 309.6 5.4 309.9 6.9 C 309.9 6.9 310 6.9 310 6.9 C 310.5 5.7 311.9 4.6 313.6 4.6 C 315.9 4.6 316.9 5.9 316.9 8.5 C 316.9 8.5 316.9 12.9 316.9 12.9 C 316.9 13.2 317.1 13.3 317.4 13.3 C 317.36 13.34 318.2 13.3 318.2 13.3 L 318.2 15 C 318.2 15 316.26 15 316.3 15 C 315.4 15 315 14.6 315 13.7 C 315 13.7 315 8.9 315 8.9 C 315 7.5 314.7 6.4 313.2 6.4 C 311.8 6.4 310.7 7.6 310.4 9 C 310.3 9.4 310.2 9.9 310.2 10.4 C 310.2 10.38 310.2 15 310.2 15 L 308.3 15 C 308.3 15 308.26 8.94 308.3 8.9 C 308.3 7.6 308.1 6.4 306.5 6.4 C 305 6.4 304 7.6 303.6 9.1 C 303.5 9.5 303.5 9.9 303.5 10.4 C 303.48 10.38 303.5 15 303.5 15 L 301.5 15 C 301.5 15 301.54 6.98 301.5 7 Z M 324.4 4.6 C 327.2 4.6 328.7 6.8 328.7 9.4 C 328.74 9.64 328.7 10.2 328.7 10.2 C 328.7 10.2 321.3 10.18 321.3 10.2 C 321.4 12.3 323 13.6 324.8 13.6 C 326.52 13.56 327.7 12.4 327.7 12.4 L 328.6 13.8 C 328.6 13.8 327.08 15.24 324.7 15.2 C 321.5 15.2 319.3 12.9 319.3 9.9 C 319.3 6.7 321.5 4.6 324.4 4.6 Z M 326.7 8.8 C 326.7 7.1 325.6 6.2 324.4 6.2 C 322.9 6.2 321.7 7.1 321.4 8.8 C 321.4 8.8 326.7 8.8 326.7 8.8 Z M 331.4 6.4 L 330.1 6.4 L 330.1 4.9 L 331.4 4.9 L 331.4 2.1 L 333.3 2.1 L 333.3 4.9 L 335.8 4.9 L 335.8 6.4 L 333.3 6.4 C 333.3 6.4 333.34 11.08 333.3 11.1 C 333.3 13.1 334.7 13.4 335.5 13.4 C 335.76 13.36 335.9 13.3 335.9 13.3 L 335.9 15 C 335.9 15 335.68 15.08 335.3 15.1 C 334 15.1 331.4 14.7 331.4 11.3 C 331.4 11.3 331.4 6.4 331.4 6.4 Z M 343.4 8.7 C 343.4 8.7 343.8 8.7 343.8 8.7 C 343.8 8.7 343.84 8.6 343.8 8.6 C 343.8 6.8 343.2 6.2 341.6 6.2 C 341.1 6.2 339.9 6.3 339.9 7 C 339.94 6.96 339.9 7.5 339.9 7.5 L 338.1 7.5 C 338.1 7.5 338.12 6.54 338.1 6.5 C 338.1 4.9 340.6 4.6 341.6 4.6 C 344.9 4.6 345.8 6.4 345.8 8.6 C 345.8 8.6 345.8 12.9 345.8 12.9 C 345.8 13.2 345.9 13.3 346.2 13.3 C 346.22 13.34 347 13.3 347 13.3 L 347 15 C 347 15 345.22 15 345.2 15 C 344.3 15 344 14.6 344 13.8 C 343.96 13.5 344 13.2 344 13.2 L 344 13.2 C 344 13.2 343.16 15.24 340.7 15.2 C 339 15.2 337.3 14.2 337.3 12.2 C 337.3 8.9 341.7 8.7 343.4 8.7 Z M 341.2 13.7 C 342.8 13.7 343.9 12 343.9 10.5 C 343.86 10.46 343.9 10.1 343.9 10.1 C 343.9 10.1 343.36 10.12 343.4 10.1 C 341.9 10.1 339.3 10.2 339.3 12.1 C 339.3 12.9 339.9 13.7 341.2 13.7 Z M 349.1 3 C 349.1 2.7 348.9 2.5 348.6 2.5 C 348.62 2.54 347.8 2.5 347.8 2.5 L 347.8 0.9 C 347.8 0.9 349.72 0.88 349.7 0.9 C 350.6 0.9 351 1.3 351 2.2 C 351 2.2 351 5.5 351 5.5 C 351 5.94 351 6.3 351 6.3 L 351 6.3 C 351 6.3 351.88 4.64 354.3 4.6 C 357 4.6 358.7 6.8 358.7 9.9 C 358.7 13.2 356.8 15.2 354.1 15.2 C 351.84 15.24 350.9 13.5 350.9 13.5 L 350.9 13.5 C 350.9 13.5 350.92 13.86 350.9 14.3 C 350.92 14.3 350.9 15 350.9 15 L 349.1 15 C 349.1 15 349.06 2.98 349.1 3 Z M 353.8 13.6 C 355.4 13.6 356.7 12.3 356.7 10 C 356.7 7.8 355.6 6.3 353.9 6.3 C 352.4 6.3 351 7.4 351 10 C 351 11.8 351.9 13.6 353.8 13.6 Z M 365.6 4.6 C 368.6 4.6 371.1 6.9 371.1 9.9 C 371.1 13 368.6 15.2 365.6 15.2 C 362.6 15.2 360.2 13 360.2 9.9 C 360.2 6.9 362.6 4.6 365.6 4.6 Z M 365.6 13.6 C 367.5 13.6 369.1 12 369.1 9.9 C 369.1 7.8 367.5 6.3 365.6 6.3 C 363.7 6.3 362.1 7.8 362.1 9.9 C 362.1 12 363.7 13.6 365.6 13.6 Z M 373.3 3 C 373.3 2.7 373.1 2.5 372.8 2.5 C 372.82 2.54 372 2.5 372 2.5 L 372 0.9 C 372 0.9 373.92 0.88 373.9 0.9 C 374.8 0.9 375.2 1.3 375.2 2.2 C 375.2 2.2 375.2 12.9 375.2 12.9 C 375.2 13.2 375.4 13.3 375.6 13.3 C 375.64 13.34 376.5 13.3 376.5 13.3 L 376.5 15 C 376.5 15 374.54 15 374.5 15 C 373.6 15 373.3 14.6 373.3 13.7 C 373.3 13.7 373.3 3 373.3 3 Z M 378.8 0.9 L 380.5 0.9 L 380.5 2.9 L 378.8 2.9 L 378.8 0.9 Z M 378.8 7 C 378.8 6.7 378.6 6.5 378.3 6.5 C 378.31 6.54 377.5 6.5 377.5 6.5 L 377.5 4.9 C 377.5 4.9 379.39 4.88 379.4 4.9 C 380.3 4.9 380.7 5.3 380.7 6.2 C 380.7 6.2 380.7 12.9 380.7 12.9 C 380.7 13.2 380.8 13.3 381.1 13.3 C 381.11 13.34 381.9 13.3 381.9 13.3 L 381.9 15 C 381.9 15 380.03 15 380 15 C 379.1 15 378.8 14.6 378.8 13.7 C 378.8 13.7 378.8 7 378.8 7 Z M 388.6 4.6 C 389.8 4.6 392.3 5.1 392.3 6.9 C 392.25 6.86 392.3 7.9 392.3 7.9 L 390.5 7.9 C 390.5 7.9 390.49 7.34 390.5 7.3 C 390.5 6.6 389.4 6.3 388.6 6.3 C 386.6 6.3 385.2 7.8 385.2 9.9 C 385.2 12.2 386.8 13.5 388.7 13.5 C 390.61 13.52 391.9 12.1 391.9 12.1 L 392.7 13.5 C 392.7 13.5 391.25 15.24 388.6 15.2 C 385.4 15.2 383.2 13 383.2 9.9 C 383.2 7 385.4 4.6 388.6 4.6 Z M 394.7 3 C 394.7 2.7 394.5 2.5 394.2 2.5 C 394.23 2.54 393.4 2.5 393.4 2.5 L 393.4 0.9 C 393.4 0.9 395.33 0.88 395.3 0.9 C 396.2 0.9 396.6 1.1 396.6 2 C 396.61 2.04 396.6 8.6 396.6 8.6 C 396.6 8.6 397.51 8.6 397.5 8.6 C 397.9 8.6 398.3 8.5 398.6 8.2 C 398.57 8.16 400.9 4.9 400.9 4.9 L 403.1 4.9 C 403.1 4.9 400.39 8.64 400.4 8.6 C 399.93 9.26 399.6 9.4 399.6 9.4 L 399.6 9.4 C 399.6 9.4 399.97 9.56 400.3 10.2 C 400.3 10.2 401.8 12.9 401.8 12.9 C 402 13.3 402.2 13.3 402.7 13.3 C 402.67 13.34 403.3 13.3 403.3 13.3 L 403.3 15 C 403.3 15 401.89 15 401.9 15 C 401 15 400.7 14.8 400.2 14.1 C 400.2 14.1 398.4 10.7 398.4 10.7 C 398.2 10.3 397.7 10.2 397.4 10.2 C 397.37 10.24 396.6 10.2 396.6 10.2 L 396.6 15 L 394.7 15 C 394.7 15 394.67 2.98 394.7 3 Z M 405.2 7 C 405.2 6.7 405.1 6.5 404.8 6.5 C 404.77 6.54 404 6.5 404 6.5 L 404 4.9 C 404 4.9 405.85 4.88 405.9 4.9 C 406.8 4.9 407.2 5.3 407.2 6.1 C 407.2 6.1 407.2 10.9 407.2 10.9 C 407.2 12.3 407.4 13.4 409 13.4 C 411.1 13.4 412.3 11.6 412.3 9.6 C 412.33 9.62 412.3 4.9 412.3 4.9 L 414.3 4.9 C 414.3 4.9 414.27 12.9 414.3 12.9 C 414.3 13.2 414.4 13.3 414.7 13.3 C 414.71 13.34 415.5 13.3 415.5 13.3 L 415.5 15 C 415.5 15 413.67 15 413.7 15 C 412.8 15 412.4 14.6 412.4 13.9 C 412.4 13.9 412.4 13.5 412.4 13.5 C 412.39 13.18 412.4 12.9 412.4 12.9 C 412.4 12.9 412.37 12.92 412.4 12.9 C 412 13.9 410.7 15.2 408.7 15.2 C 406.4 15.2 405.2 14 405.2 11.4 C 405.2 11.4 405.2 7 405.2 7 Z M 410.3 0.9 L 412.3 0.9 L 410.4 3.4 L 408.9 3.4 L 410.3 0.9 Z M 423.1 7 C 423.1 6.7 422.9 6.5 422.6 6.5 C 422.61 6.54 421.8 6.5 421.8 6.5 L 421.8 4.9 C 421.8 4.9 423.65 4.88 423.7 4.9 C 424.5 4.9 424.9 5.3 424.9 6 C 424.9 6 424.9 6.4 424.9 6.4 C 424.93 6.7 424.9 7 424.9 7 C 424.9 7 424.93 6.96 424.9 7 C 425.3 6.1 426.5 4.6 428.7 4.6 C 431.1 4.6 432.2 5.9 432.2 8.5 C 432.2 8.5 432.2 12.9 432.2 12.9 C 432.2 13.2 432.4 13.3 432.7 13.3 C 432.65 13.34 433.5 13.3 433.5 13.3 L 433.5 15 C 433.5 15 431.55 15 431.6 15 C 430.7 15 430.3 14.6 430.3 13.7 C 430.3 13.7 430.3 9 430.3 9 C 430.3 7.5 430 6.4 428.4 6.4 C 426.8 6.4 425.6 7.4 425.2 8.9 C 425 9.3 425 9.8 425 10.3 C 424.99 10.26 425 15 425 15 L 423.1 15 C 423.1 15 423.05 6.98 423.1 7 Z M 439.7 4.6 C 442.5 4.6 444 6.8 444 9.4 C 444.03 9.64 444 10.2 444 10.2 C 444 10.2 436.59 10.18 436.6 10.2 C 436.7 12.3 438.3 13.6 440.1 13.6 C 441.81 13.56 443 12.4 443 12.4 L 443.9 13.8 C 443.9 13.8 442.37 15.24 440 15.2 C 436.8 15.2 434.6 12.9 434.6 9.9 C 434.6 6.7 436.8 4.6 439.7 4.6 Z M 442 8.8 C 442 7.1 440.9 6.2 439.7 6.2 C 438.2 6.2 437 7.1 436.7 8.8 C 436.7 8.8 442 8.8 442 8.8 Z M 446.6 7 C 446.6 6.7 446.4 6.5 446.1 6.5 C 446.13 6.54 445.3 6.5 445.3 6.5 L 445.3 4.9 C 445.3 4.9 447.21 4.88 447.2 4.9 C 448.1 4.9 448.5 5.3 448.5 6.1 C 448.5 6.1 448.5 10.9 448.5 10.9 C 448.5 12.3 448.8 13.4 450.4 13.4 C 452.5 13.4 453.7 11.6 453.7 9.6 C 453.69 9.62 453.7 4.9 453.7 4.9 L 455.6 4.9 C 455.6 4.9 455.63 12.9 455.6 12.9 C 455.6 13.2 455.8 13.3 456.1 13.3 C 456.07 13.34 456.9 13.3 456.9 13.3 L 456.9 15 C 456.9 15 455.03 15 455 15 C 454.2 15 453.8 14.6 453.8 13.9 C 453.8 13.9 453.8 13.5 453.8 13.5 C 453.75 13.18 453.8 12.9 453.8 12.9 C 453.8 12.9 453.73 12.92 453.7 12.9 C 453.3 13.9 452 15.2 450 15.2 C 447.7 15.2 446.6 14 446.6 11.4 C 446.6 11.4 446.6 7 446.6 7 Z M 459.1 6.4 L 457.8 6.4 L 457.8 4.9 L 459.2 4.9 L 459.2 2.1 L 461.1 2.1 L 461.1 4.9 L 463.5 4.9 L 463.5 6.4 L 461.1 6.4 C 461.1 6.4 461.05 11.08 461.1 11.1 C 461.1 13.1 462.5 13.4 463.2 13.4 C 463.47 13.36 463.7 13.3 463.7 13.3 L 463.7 15 C 463.7 15 463.39 15.08 463 15.1 C 461.7 15.1 459.1 14.7 459.1 11.3 C 459.11 11.3 459.1 6.4 459.1 6.4 Z M 466.1 7 C 466.1 6.7 465.9 6.5 465.6 6.5 C 465.63 6.54 464.8 6.5 464.8 6.5 L 464.8 4.9 C 464.8 4.9 466.65 4.88 466.7 4.9 C 467.5 4.9 468 5.2 468 6.1 C 468 6.1 468 6.7 468 6.7 C 467.95 7.1 467.9 7.4 467.9 7.4 C 467.9 7.4 467.95 7.4 468 7.4 C 468.4 5.9 469.6 4.8 471.2 4.8 C 471.41 4.76 471.7 4.8 471.7 4.8 L 471.7 6.7 C 471.7 6.7 471.41 6.66 471.1 6.7 C 469.9 6.7 468.7 7.5 468.3 9 C 468.1 9.6 468 10.2 468 10.9 C 468.01 10.86 468 15 468 15 L 466.1 15 C 466.1 15 466.07 6.98 466.1 7 Z M 478.3 8.7 C 478.33 8.7 478.8 8.7 478.8 8.7 C 478.8 8.7 478.77 8.6 478.8 8.6 C 478.8 6.8 478.1 6.2 476.5 6.2 C 476.1 6.2 474.9 6.3 474.9 7 C 474.87 6.96 474.9 7.5 474.9 7.5 L 473.1 7.5 C 473.1 7.5 473.05 6.54 473.1 6.5 C 473.1 4.9 475.6 4.6 476.6 4.6 C 479.8 4.6 480.7 6.4 480.7 8.6 C 480.7 8.6 480.7 12.9 480.7 12.9 C 480.7 13.2 480.9 13.3 481.2 13.3 C 481.15 13.34 482 13.3 482 13.3 L 482 15 C 482 15 480.15 15 480.2 15 C 479.3 15 478.9 14.6 478.9 13.8 C 478.89 13.5 478.9 13.2 478.9 13.2 L 478.9 13.2 C 478.9 13.2 478.09 15.24 475.7 15.2 C 473.9 15.2 472.2 14.2 472.2 12.2 C 472.2 8.9 476.6 8.7 478.3 8.7 Z M 476.1 13.7 C 477.7 13.7 478.8 12 478.8 10.5 C 478.79 10.46 478.8 10.1 478.8 10.1 C 478.8 10.1 478.29 10.12 478.3 10.1 C 476.8 10.1 474.2 10.2 474.2 12.1 C 474.2 12.9 474.8 13.7 476.1 13.7 Z M 484 3 C 484 2.7 483.9 2.5 483.6 2.5 C 483.59 2.54 482.8 2.5 482.8 2.5 L 482.8 0.9 C 482.8 0.9 484.69 0.88 484.7 0.9 C 485.6 0.9 486 1.3 486 2.2 C 486 2.2 486 12.9 486 12.9 C 486 13.2 486.1 13.3 486.4 13.3 C 486.41 13.34 487.2 13.3 487.2 13.3 L 487.2 15 C 487.2 15 485.31 15 485.3 15 C 484.4 15 484 14.6 484 13.7 C 484 13.7 484 3 484 3 Z M 489.6 0.9 L 491.3 0.9 L 491.3 2.9 L 489.6 2.9 L 489.6 0.9 Z M 489.5 7 C 489.5 6.7 489.4 6.5 489.1 6.5 C 489.09 6.54 488.3 6.5 488.3 6.5 L 488.3 4.9 C 488.3 4.9 490.17 4.88 490.2 4.9 C 491.1 4.9 491.5 5.3 491.5 6.2 C 491.5 6.2 491.5 12.9 491.5 12.9 C 491.5 13.2 491.6 13.3 491.9 13.3 C 491.89 13.34 492.7 13.3 492.7 13.3 L 492.7 15 C 492.7 15 490.81 15 490.8 15 C 489.9 15 489.5 14.6 489.5 13.7 C 489.5 13.7 489.5 7 489.5 7 Z M 495 6.4 L 493.7 6.4 L 493.7 4.9 L 495.1 4.9 L 495.1 2.1 L 497 2.1 L 497 4.9 L 499.4 4.9 L 499.4 6.4 L 497 6.4 C 497 6.4 496.95 11.08 497 11.1 C 497 13.1 498.4 13.4 499.1 13.4 C 499.37 13.36 499.6 13.3 499.6 13.3 L 499.6 15 C 499.6 15 499.29 15.08 498.9 15.1 C 497.6 15.1 495 14.7 495 11.3 C 495.01 11.3 495 6.4 495 6.4 Z M 501.9 7 C 501.9 6.7 501.8 6.5 501.5 6.5 C 501.49 6.54 500.7 6.5 500.7 6.5 L 500.7 4.9 C 500.7 4.9 502.57 4.88 502.6 4.9 C 503.5 4.9 503.9 5.3 503.9 6.1 C 503.9 6.1 503.9 10.9 503.9 10.9 C 503.9 12.3 504.2 13.4 505.8 13.4 C 507.8 13.4 509.1 11.6 509.1 9.6 C 509.05 9.62 509.1 4.9 509.1 4.9 L 511 4.9 C 511 4.9 510.99 12.9 511 12.9 C 511 13.2 511.2 13.3 511.4 13.3 C 511.43 13.34 512.3 13.3 512.3 13.3 L 512.3 15 C 512.3 15 510.39 15 510.4 15 C 509.5 15 509.1 14.6 509.1 13.9 C 509.1 13.9 509.1 13.5 509.1 13.5 C 509.11 13.18 509.1 12.9 509.1 12.9 C 509.1 12.9 509.09 12.92 509.1 12.9 C 508.7 13.9 507.4 15.2 505.4 15.2 C 503.1 15.2 501.9 14 501.9 11.4 C 501.9 11.4 501.9 7 501.9 7 Z M 516.3 12.9 L 514.6 17 L 513.1 17 L 514.4 12.9 L 516.3 12.9 Z M 524.6 7 C 524.6 6.7 524.4 6.5 524.1 6.5 C 524.13 6.54 523.3 6.5 523.3 6.5 L 523.3 4.9 C 523.3 4.9 525.13 4.88 525.1 4.9 C 526 4.9 526.4 5.3 526.4 5.9 C 526.37 6.2 526.4 6.4 526.4 6.4 L 526.4 6.4 C 526.4 6.4 527.23 4.64 529.8 4.6 C 532.5 4.6 534.2 6.8 534.2 9.9 C 534.2 13.2 532.3 15.2 529.6 15.2 C 527.37 15.24 526.5 13.6 526.5 13.6 L 526.5 13.6 C 526.5 13.6 526.51 13.98 526.5 14.5 C 526.51 14.5 526.5 19 526.5 19 L 524.6 19 C 524.6 19 524.57 6.98 524.6 7 Z M 529.3 13.6 C 530.9 13.6 532.2 12.3 532.2 10 C 532.2 7.8 531.1 6.3 529.4 6.3 C 527.9 6.3 526.5 7.4 526.5 10 C 526.5 11.8 527.4 13.6 529.3 13.6 Z M 536.7 7 C 536.7 6.7 536.5 6.5 536.2 6.5 C 536.21 6.54 535.4 6.5 535.4 6.5 L 535.4 4.9 C 535.4 4.9 537.23 4.88 537.2 4.9 C 538.1 4.9 538.5 5.2 538.5 6.1 C 538.5 6.1 538.5 6.7 538.5 6.7 C 538.53 7.1 538.5 7.4 538.5 7.4 C 538.5 7.4 538.53 7.4 538.5 7.4 C 539 5.9 540.2 4.8 541.7 4.8 C 541.99 4.76 542.3 4.8 542.3 4.8 L 542.3 6.7 C 542.3 6.7 541.99 6.66 541.7 6.7 C 540.4 6.7 539.3 7.5 538.8 9 C 538.7 9.6 538.6 10.2 538.6 10.9 C 538.59 10.86 538.6 15 538.6 15 L 536.7 15 C 536.7 15 536.65 6.98 536.7 7 Z M 548.1 4.6 C 550.9 4.6 552.5 6.8 552.5 9.4 C 552.45 9.64 552.4 10.2 552.4 10.2 C 552.4 10.2 545.01 10.18 545 10.2 C 545.1 12.3 546.7 13.6 548.5 13.6 C 550.23 13.56 551.5 12.4 551.5 12.4 L 552.3 13.8 C 552.3 13.8 550.79 15.24 548.4 15.2 C 545.2 15.2 543 12.9 543 9.9 C 543 6.7 545.2 4.6 548.1 4.6 Z M 550.5 8.8 C 550.4 7.1 549.3 6.2 548.1 6.2 C 546.6 6.2 545.4 7.1 545.1 8.8 C 545.1 8.8 550.5 8.8 550.5 8.8 Z M 555.1 6.4 L 553.8 6.4 L 553.8 4.9 L 555.2 4.9 L 555.2 2.1 L 557.1 2.1 L 557.1 4.9 L 559.5 4.9 L 559.5 6.4 L 557.1 6.4 C 557.1 6.4 557.05 11.08 557.1 11.1 C 557.1 13.1 558.5 13.4 559.2 13.4 C 559.47 13.36 559.7 13.3 559.7 13.3 L 559.7 15 C 559.7 15 559.39 15.08 559 15.1 C 557.7 15.1 555.1 14.7 555.1 11.3 C 555.11 11.3 555.1 6.4 555.1 6.4 Z M 566.4 4.6 C 569.4 4.6 571.8 6.9 571.8 9.9 C 571.8 13 569.4 15.2 566.4 15.2 C 563.3 15.2 560.9 13 560.9 9.9 C 560.9 6.9 563.3 4.6 566.4 4.6 Z M 566.4 13.6 C 568.3 13.6 569.8 12 569.8 9.9 C 569.8 7.8 568.3 6.3 566.4 6.3 C 564.5 6.3 562.9 7.8 562.9 9.9 C 562.9 12 564.5 13.6 566.4 13.6 Z M 573 13.9 C 573 13.9 578.17 7.48 578.2 7.5 C 578.61 6.94 579 6.5 579 6.5 L 579 6.5 C 579 6.5 578.69 6.54 578 6.5 C 578 6.5 575.3 6.5 575.3 6.5 C 575 6.5 574.8 6.7 574.8 7 C 574.83 6.98 574.8 7.7 574.8 7.7 L 573.1 7.7 C 573.1 7.7 573.05 6.16 573.1 6.2 C 573.1 5.3 573.4 4.9 574.3 4.9 C 574.33 4.88 581.6 4.9 581.6 4.9 L 581.6 6 C 581.6 6 576.37 12.42 576.4 12.4 C 575.95 12.92 575.5 13.3 575.5 13.3 L 575.5 13.4 C 575.5 13.4 575.85 13.34 576.5 13.3 C 576.5 13.3 579.8 13.3 579.8 13.3 C 580 13.3 580.2 13.2 580.2 12.9 C 580.19 12.9 580.2 12.2 580.2 12.2 L 582 12.2 C 582 12.2 581.95 13.72 582 13.7 C 582 14.6 581.6 15 580.7 15 C 580.67 15 573 15 573 15 L 573 13.9 Z M 574.9 0.9 L 576.5 0.9 L 577.5 2.5 L 577.6 2.5 L 578.6 0.9 L 580.2 0.9 L 578.4 3.4 L 576.7 3.4 L 574.9 0.9 Z M 588 4.6 C 590.9 4.6 592.4 6.8 592.4 9.4 C 592.39 9.64 592.3 10.2 592.3 10.2 C 592.3 10.2 584.95 10.18 585 10.2 C 585.1 12.3 586.6 13.6 588.4 13.6 C 590.17 13.56 591.4 12.4 591.4 12.4 L 592.2 13.8 C 592.2 13.8 590.73 15.24 588.3 15.2 C 585.1 15.2 583 12.9 583 9.9 C 583 6.7 585.2 4.6 588 4.6 Z M 590.4 8.8 C 590.3 7.1 589.3 6.2 588 6.2 C 586.5 6.2 585.3 7.1 585 8.8 C 585 8.8 590.4 8.8 590.4 8.8 Z " stroke="none" fill="#ee3078"/>  </g></svg>