<?xml version="1.0" standalone="no"?><!DOCTYPE svg PUBLIC "-//W3C//DTD SVG 1.1//EN" "http://www.w3.org/Graphics/SVG/1.1/DTD/svg11.dtd"><svg xmlns="http://www.w3.org/2000/svg" version="1.1" width="44px" height="19.5px" viewBox="0 -1 44 19.5" style="top:-1px">  <desc>49.9%</desc>  <defs/>  <g id="Polygon79269">    <path d="M 7.2 10 L 7.2 9.9 L 9.9 4 L 10 4 L 10.8 4.1 L 10.8 4.2 L 8.1 9.7 L 8.1 9.7 L 10.8 9.7 L 11 6.8 L 11.7 6.8 L 11.7 9.7 L 12.6 9.7 L 12.6 10.5 L 11.7 10.5 L 11.7 12.5 L 10.8 12.5 L 10.8 10.5 L 7.4 10.5 L 7.2 10 Z M 15.8 4 C 16.7 4 17.4 4.3 17.8 4.9 C 18.3 5.6 18.5 6.5 18.5 7.8 C 18.5 8.6 18.4 9.2 18.3 9.8 C 18.1 10.4 17.9 10.9 17.6 11.3 C 17.3 11.8 17 12.1 16.5 12.3 C 16.1 12.5 15.6 12.6 15.1 12.6 C 14.9 12.6 14.7 12.6 14.5 12.6 C 14.2 12.5 14 12.5 13.8 12.4 C 13.8 12.4 13.8 11.6 13.8 11.6 C 14.1 11.7 14.3 11.8 14.5 11.8 C 14.7 11.8 14.9 11.8 15.1 11.8 C 15.8 11.8 16.4 11.5 16.8 11 C 17.3 10.4 17.5 9.5 17.6 8.4 C 17.3 8.7 17 8.9 16.7 9 C 16.3 9.2 16 9.2 15.7 9.2 C 15.3 9.2 15 9.2 14.7 9.1 C 14.4 8.9 14.2 8.8 13.9 8.6 C 13.7 8.4 13.6 8.1 13.5 7.8 C 13.4 7.5 13.3 7.1 13.3 6.8 C 13.3 6.3 13.4 6 13.5 5.6 C 13.6 5.3 13.8 5 14 4.7 C 14.2 4.5 14.5 4.3 14.8 4.2 C 15.1 4 15.4 4 15.8 4 Z M 15.8 8.5 C 16.1 8.5 16.4 8.5 16.8 8.3 C 17.1 8.1 17.4 7.9 17.6 7.7 C 17.6 6.7 17.4 5.9 17.2 5.4 C 16.9 5 16.4 4.7 15.8 4.7 C 15.3 4.7 14.9 4.9 14.6 5.3 C 14.4 5.6 14.2 6.1 14.2 6.8 C 14.2 7.3 14.3 7.8 14.6 8.1 C 14.9 8.4 15.3 8.5 15.8 8.5 Z M 20.6 11.9 C 20.6 12.3 20.4 12.5 20 12.5 C 19.6 12.5 19.4 12.3 19.4 11.9 C 19.4 11.6 19.6 11.4 20 11.4 C 20.2 11.4 20.3 11.4 20.4 11.5 C 20.5 11.6 20.6 11.7 20.6 11.9 C 20.6 11.9 20.6 11.9 20.6 11.9 Z M 24 4 C 24.9 4 25.5 4.3 26 4.9 C 26.4 5.6 26.7 6.5 26.7 7.8 C 26.7 8.6 26.6 9.2 26.4 9.8 C 26.3 10.4 26.1 10.9 25.8 11.3 C 25.5 11.8 25.1 12.1 24.7 12.3 C 24.3 12.5 23.8 12.6 23.3 12.6 C 23.1 12.6 22.9 12.6 22.6 12.6 C 22.4 12.5 22.2 12.5 22 12.4 C 22 12.4 22 11.6 22 11.6 C 22.3 11.7 22.5 11.8 22.7 11.8 C 22.9 11.8 23.1 11.8 23.3 11.8 C 24 11.8 24.6 11.5 25 11 C 25.4 10.4 25.7 9.5 25.8 8.4 C 25.5 8.7 25.2 8.9 24.9 9 C 24.5 9.2 24.2 9.2 23.9 9.2 C 23.5 9.2 23.2 9.2 22.9 9.1 C 22.6 8.9 22.3 8.8 22.1 8.6 C 21.9 8.4 21.8 8.1 21.7 7.8 C 21.5 7.5 21.5 7.1 21.5 6.8 C 21.5 6.3 21.5 6 21.7 5.6 C 21.8 5.3 21.9 5 22.2 4.7 C 22.4 4.5 22.6 4.3 23 4.2 C 23.3 4 23.6 4 24 4 Z M 24 8.5 C 24.3 8.5 24.6 8.5 24.9 8.3 C 25.3 8.1 25.5 7.9 25.8 7.7 C 25.8 6.7 25.6 5.9 25.3 5.4 C 25 5 24.6 4.7 24 4.7 C 23.5 4.7 23.1 4.9 22.8 5.3 C 22.5 5.6 22.4 6.1 22.4 6.8 C 22.4 7.3 22.5 7.8 22.8 8.1 C 23.1 8.4 23.5 8.5 24 8.5 Z M 29.5 9.3 C 28.8 9.3 28.4 9.1 28.1 8.6 C 27.8 8.2 27.6 7.5 27.6 6.6 C 27.6 5.8 27.8 5.1 28.1 4.6 C 28.4 4.2 28.9 4 29.5 4 C 30.1 4 30.5 4.2 30.8 4.6 C 31.1 5.1 31.3 5.8 31.3 6.6 C 31.3 7.5 31.1 8.2 30.8 8.6 C 30.5 9.1 30.1 9.3 29.5 9.3 Z M 28.3 6.6 C 28.3 8 28.7 8.6 29.5 8.6 C 30.2 8.6 30.6 8 30.6 6.6 C 30.6 5.3 30.2 4.6 29.5 4.6 C 28.7 4.6 28.3 5.3 28.3 6.6 C 28.3 6.6 28.3 6.6 28.3 6.6 Z M 34.7 12.6 C 34.1 12.6 33.7 12.4 33.3 11.9 C 33 11.5 32.9 10.8 32.9 10 C 32.9 9.1 33 8.4 33.3 8 C 33.7 7.5 34.1 7.3 34.7 7.3 C 35.3 7.3 35.8 7.5 36.1 8 C 36.4 8.4 36.6 9.1 36.6 10 C 36.6 10.8 36.4 11.5 36.1 11.9 C 35.8 12.4 35.3 12.6 34.7 12.6 Z M 33.6 10 C 33.6 11.3 34 12 34.7 12 C 35.5 12 35.8 11.3 35.8 10 C 35.8 8.6 35.5 8 34.7 8 C 34 8 33.6 8.6 33.6 10 C 33.6 10 33.6 10 33.6 10 Z M 33.3 4.1 L 34.1 4.1 L 30.8 12.5 L 30 12.5 L 33.3 4.1 Z " stroke="none" fill="#68adca"/>  </g></svg>