<?xml version="1.0" standalone="no"?><!DOCTYPE svg PUBLIC "-//W3C//DTD SVG 1.1//EN" "http://www.w3.org/Graphics/SVG/1.1/DTD/svg11.dtd"><svg xmlns="http://www.w3.org/2000/svg" version="1.1" width="723px" height="62px" viewBox="0 -4 723 62" style="top:-4px">  <desc>Estetrol je prirodzen produkt fet lnej pe ene, nem akt vne i kodliv metabolity. Do Drovelisu sa estetrol vyr ba ...</desc>  <defs/>  <g id="Polygon71289">    <path d="M 1.7 31 C 1.7 30.7 1.5 30.5 1.3 30.5 C 1.26 30.54 0.4 30.5 0.4 30.5 L 0.4 28.9 C 0.4 28.9 2.3 28.88 2.3 28.9 C 3.2 28.9 3.6 29.3 3.6 30 C 3.6 30 3.6 30.4 3.6 30.4 C 3.58 30.7 3.6 31 3.6 31 C 3.6 31 3.6 30.96 3.6 31 C 4.1 29.8 5.5 28.6 7.1 28.6 C 8.8 28.6 9.8 29.4 10.1 30.9 C 10.1 30.9 10.1 30.9 10.1 30.9 C 10.7 29.7 12.1 28.6 13.7 28.6 C 16 28.6 17.1 29.9 17.1 32.5 C 17.1 32.5 17.1 36.9 17.1 36.9 C 17.1 37.2 17.2 37.3 17.5 37.3 C 17.52 37.34 18.3 37.3 18.3 37.3 L 18.3 39 C 18.3 39 16.42 39 16.4 39 C 15.5 39 15.1 38.6 15.1 37.7 C 15.1 37.7 15.1 32.9 15.1 32.9 C 15.1 31.5 14.9 30.4 13.4 30.4 C 12 30.4 10.9 31.6 10.5 33 C 10.4 33.4 10.4 33.9 10.4 34.4 C 10.36 34.38 10.4 39 10.4 39 L 8.4 39 C 8.4 39 8.42 32.94 8.4 32.9 C 8.4 31.6 8.2 30.4 6.7 30.4 C 5.2 30.4 4.2 31.6 3.8 33.1 C 3.7 33.5 3.6 33.9 3.6 34.4 C 3.64 34.38 3.6 39 3.6 39 L 1.7 39 C 1.7 39 1.7 30.98 1.7 31 Z M 24.5 28.6 C 27.4 28.6 28.9 30.8 28.9 33.4 C 28.9 33.64 28.8 34.2 28.8 34.2 C 28.8 34.2 21.46 34.18 21.5 34.2 C 21.6 36.3 23.1 37.6 24.9 37.6 C 26.68 37.56 27.9 36.4 27.9 36.4 L 28.7 37.8 C 28.7 37.8 27.24 39.24 24.8 39.2 C 21.6 39.2 19.5 36.9 19.5 33.9 C 19.5 30.7 21.7 28.6 24.5 28.6 Z M 26.9 32.8 C 26.8 31.1 25.8 30.2 24.5 30.2 C 23 30.2 21.8 31.1 21.5 32.8 C 21.5 32.8 26.9 32.8 26.9 32.8 Z M 31.6 30.4 L 30.2 30.4 L 30.2 28.9 L 31.6 28.9 L 31.6 26.1 L 33.5 26.1 L 33.5 28.9 L 35.9 28.9 L 35.9 30.4 L 33.5 30.4 C 33.5 30.4 33.5 35.08 33.5 35.1 C 33.5 37.1 34.9 37.4 35.6 37.4 C 35.92 37.36 36.1 37.3 36.1 37.3 L 36.1 39 C 36.1 39 35.84 39.08 35.4 39.1 C 34.1 39.1 31.6 38.7 31.6 35.3 C 31.56 35.3 31.6 30.4 31.6 30.4 Z M 43.6 32.7 C 43.56 32.7 44 32.7 44 32.7 C 44 32.7 44 32.6 44 32.6 C 44 30.8 43.3 30.2 41.8 30.2 C 41.3 30.2 40.1 30.3 40.1 31 C 40.1 30.96 40.1 31.5 40.1 31.5 L 38.3 31.5 C 38.3 31.5 38.28 30.54 38.3 30.5 C 38.3 28.9 40.8 28.6 41.8 28.6 C 45.1 28.6 45.9 30.4 45.9 32.6 C 45.9 32.6 45.9 36.9 45.9 36.9 C 45.9 37.2 46.1 37.3 46.4 37.3 C 46.38 37.34 47.2 37.3 47.2 37.3 L 47.2 39 C 47.2 39 45.38 39 45.4 39 C 44.5 39 44.1 38.6 44.1 37.8 C 44.12 37.5 44.2 37.2 44.2 37.2 L 44.1 37.2 C 44.1 37.2 43.32 39.24 40.9 39.2 C 39.2 39.2 37.5 38.2 37.5 36.2 C 37.5 32.9 41.9 32.7 43.6 32.7 Z M 41.3 37.7 C 43 37.7 44 36 44 34.5 C 44.02 34.46 44 34.1 44 34.1 C 44 34.1 43.52 34.12 43.5 34.1 C 42.1 34.1 39.4 34.2 39.4 36.1 C 39.4 36.9 40 37.7 41.3 37.7 Z M 49.2 27 C 49.2 26.7 49.1 26.5 48.8 26.5 C 48.78 26.54 48 26.5 48 26.5 L 48 24.9 C 48 24.9 49.88 24.88 49.9 24.9 C 50.8 24.9 51.2 25.3 51.2 26.2 C 51.2 26.2 51.2 29.5 51.2 29.5 C 51.16 29.94 51.1 30.3 51.1 30.3 L 51.2 30.3 C 51.2 30.3 52.04 28.64 54.4 28.6 C 57.1 28.6 58.9 30.8 58.9 33.9 C 58.9 37.2 56.9 39.2 54.3 39.2 C 52 39.24 51.1 37.5 51.1 37.5 L 51 37.5 C 51 37.5 51.08 37.86 51.1 38.3 C 51.08 38.3 51.1 39 51.1 39 L 49.2 39 C 49.2 39 49.22 26.98 49.2 27 Z M 54 37.6 C 55.6 37.6 56.9 36.3 56.9 34 C 56.9 31.8 55.7 30.3 54 30.3 C 52.5 30.3 51.1 31.4 51.1 34 C 51.1 35.8 52.1 37.6 54 37.6 Z M 65.8 28.6 C 68.8 28.6 71.2 30.9 71.2 33.9 C 71.2 37 68.8 39.2 65.8 39.2 C 62.7 39.2 60.3 37 60.3 33.9 C 60.3 30.9 62.7 28.6 65.8 28.6 Z M 65.8 37.6 C 67.7 37.6 69.2 36 69.2 33.9 C 69.2 31.8 67.7 30.3 65.8 30.3 C 63.9 30.3 62.3 31.8 62.3 33.9 C 62.3 36 63.9 37.6 65.8 37.6 Z M 73.4 27 C 73.4 26.7 73.3 26.5 73 26.5 C 72.98 26.54 72.2 26.5 72.2 26.5 L 72.2 24.9 C 72.2 24.9 74.08 24.88 74.1 24.9 C 75 24.9 75.4 25.3 75.4 26.2 C 75.4 26.2 75.4 36.9 75.4 36.9 C 75.4 37.2 75.5 37.3 75.8 37.3 C 75.8 37.34 76.6 37.3 76.6 37.3 L 76.6 39 C 76.6 39 74.7 39 74.7 39 C 73.8 39 73.4 38.6 73.4 37.7 C 73.4 37.7 73.4 27 73.4 27 Z M 79 24.9 L 80.7 24.9 L 80.7 26.9 L 79 26.9 L 79 24.9 Z M 78.9 31 C 78.9 30.7 78.8 30.5 78.5 30.5 C 78.48 30.54 77.7 30.5 77.7 30.5 L 77.7 28.9 C 77.7 28.9 79.56 28.88 79.6 28.9 C 80.5 28.9 80.8 29.3 80.8 30.2 C 80.8 30.2 80.8 36.9 80.8 36.9 C 80.8 37.2 81 37.3 81.3 37.3 C 81.28 37.34 82.1 37.3 82.1 37.3 L 82.1 39 C 82.1 39 80.2 39 80.2 39 C 79.3 39 78.9 38.6 78.9 37.7 C 78.9 37.7 78.9 31 78.9 31 Z M 84.4 30.4 L 83.1 30.4 L 83.1 28.9 L 84.4 28.9 L 84.4 26.1 L 86.3 26.1 L 86.3 28.9 L 88.8 28.9 L 88.8 30.4 L 86.3 30.4 C 86.3 30.4 86.34 35.08 86.3 35.1 C 86.3 37.1 87.7 37.4 88.5 37.4 C 88.76 37.36 88.9 37.3 88.9 37.3 L 88.9 39 C 88.9 39 88.68 39.08 88.3 39.1 C 87 39.1 84.4 38.7 84.4 35.3 C 84.4 35.3 84.4 30.4 84.4 30.4 Z M 91.8 41.5 C 92.6 41.5 93.2 41 93.6 40.1 C 93.62 40.06 94.1 39 94.1 39 C 94.1 39 90.62 30.94 90.6 30.9 C 90.5 30.6 90.3 30.5 90 30.5 C 89.98 30.54 89.7 30.5 89.7 30.5 L 89.7 28.9 C 89.7 28.9 90.88 28.88 90.9 28.9 C 91.7 28.9 92 29.1 92.3 29.9 C 92.3 29.9 94.6 35.6 94.6 35.6 C 94.82 36.12 95 36.8 95 36.8 L 95 36.8 C 95 36.8 95.16 36.12 95.4 35.6 C 95.4 35.6 97.5 29.9 97.5 29.9 C 97.8 29.1 98.1 28.9 98.9 28.9 C 98.94 28.88 100.1 28.9 100.1 28.9 L 100.1 30.5 C 100.1 30.5 99.84 30.54 99.8 30.5 C 99.5 30.5 99.3 30.6 99.2 30.9 C 99.2 30.9 95.2 40.8 95.2 40.8 C 94.6 42.4 93.4 43.2 91.9 43.2 C 90.44 43.2 89.6 42.2 89.6 42.2 C 89.6 42.2 90.36 40.8 90.4 40.8 C 90.4 40.8 91 41.5 91.8 41.5 Z M 100.9 36.9 L 102.9 36.9 L 102.9 39 L 100.9 39 L 100.9 36.9 Z M 111.7 26.6 L 110.4 26.6 L 110.4 24.9 C 110.4 24.9 116.14 24.88 116.1 24.9 C 120.4 24.9 123.3 27.5 123.3 31.9 C 123.3 36.4 120.4 39 116.1 39 C 116.1 39 113 39 113 39 C 112.1 39 111.7 38.6 111.7 37.7 C 111.72 37.72 111.7 26.6 111.7 26.6 Z M 114.2 37.3 C 114.2 37.3 116 37.3 116 37.3 C 119.1 37.3 121.2 35.4 121.2 31.9 C 121.2 28.5 119.1 26.6 116 26.6 C 116 26.6 113.7 26.6 113.7 26.6 C 113.7 26.6 113.72 36.84 113.7 36.8 C 113.7 37.1 113.9 37.3 114.2 37.3 Z M 130.2 28.6 C 133.2 28.6 135.7 30.9 135.7 33.9 C 135.7 37 133.2 39.2 130.2 39.2 C 127.2 39.2 124.8 37 124.8 33.9 C 124.8 30.9 127.2 28.6 130.2 28.6 Z M 130.2 37.6 C 132.1 37.6 133.7 36 133.7 33.9 C 133.7 31.8 132.1 30.3 130.2 30.3 C 128.3 30.3 126.8 31.8 126.8 33.9 C 126.8 36 128.3 37.6 130.2 37.6 Z M 143.8 26.6 L 142.5 26.6 L 142.5 24.9 C 142.5 24.9 148.26 24.88 148.3 24.9 C 152.6 24.9 155.4 27.5 155.4 31.9 C 155.4 36.4 152.6 39 148.3 39 C 148.3 39 145.1 39 145.1 39 C 144.2 39 143.8 38.6 143.8 37.7 C 143.84 37.72 143.8 26.6 143.8 26.6 Z M 146.3 37.3 C 146.3 37.3 148.1 37.3 148.1 37.3 C 151.3 37.3 153.3 35.4 153.3 31.9 C 153.3 28.5 151.2 26.6 148.1 26.6 C 148.12 26.6 145.8 26.6 145.8 26.6 C 145.8 26.6 145.84 36.84 145.8 36.8 C 145.8 37.1 146 37.3 146.3 37.3 Z M 157.9 31 C 157.9 30.7 157.8 30.5 157.5 30.5 C 157.48 30.54 156.7 30.5 156.7 30.5 L 156.7 28.9 C 156.7 28.9 158.5 28.88 158.5 28.9 C 159.4 28.9 159.8 29.2 159.8 30.1 C 159.8 30.1 159.8 30.7 159.8 30.7 C 159.8 31.1 159.8 31.4 159.8 31.4 C 159.8 31.4 159.8 31.4 159.8 31.4 C 160.3 29.9 161.4 28.8 163 28.8 C 163.26 28.76 163.5 28.8 163.5 28.8 L 163.5 30.7 C 163.5 30.7 163.26 30.66 162.9 30.7 C 161.7 30.7 160.6 31.5 160.1 33 C 159.9 33.6 159.9 34.2 159.9 34.9 C 159.86 34.86 159.9 39 159.9 39 L 157.9 39 C 157.9 39 157.92 30.98 157.9 31 Z M 169.7 28.6 C 172.7 28.6 175.2 30.9 175.2 33.9 C 175.2 37 172.7 39.2 169.7 39.2 C 166.7 39.2 164.3 37 164.3 33.9 C 164.3 30.9 166.7 28.6 169.7 28.6 Z M 169.7 37.6 C 171.6 37.6 173.2 36 173.2 33.9 C 173.2 31.8 171.6 30.3 169.7 30.3 C 167.8 30.3 166.3 31.8 166.3 33.9 C 166.3 36 167.8 37.6 169.7 37.6 Z M 176.8 30.9 C 176.7 30.6 176.5 30.5 176.2 30.5 C 176.16 30.54 176 30.5 176 30.5 L 176 28.9 C 176 28.9 176.96 28.88 177 28.9 C 177.9 28.9 178.2 29.1 178.5 29.9 C 178.5 29.9 180.7 35.7 180.7 35.7 C 180.88 36.28 181 37 181 37 L 181.1 37 C 181.1 37 181.24 36.28 181.4 35.7 C 181.4 35.7 183.6 29.9 183.6 29.9 C 183.9 29.1 184.3 28.9 185.1 28.9 C 185.14 28.88 186.1 28.9 186.1 28.9 L 186.1 30.5 C 186.1 30.5 185.88 30.54 185.9 30.5 C 185.5 30.5 185.3 30.6 185.2 30.9 C 185.22 30.94 182.1 39 182.1 39 L 179.9 39 C 179.9 39 176.78 30.94 176.8 30.9 Z M 191.9 28.6 C 194.8 28.6 196.3 30.8 196.3 33.4 C 196.3 33.64 196.2 34.2 196.2 34.2 C 196.2 34.2 188.86 34.18 188.9 34.2 C 189 36.3 190.5 37.6 192.3 37.6 C 194.08 37.56 195.3 36.4 195.3 36.4 L 196.1 37.8 C 196.1 37.8 194.64 39.24 192.2 39.2 C 189 39.2 186.9 36.9 186.9 33.9 C 186.9 30.7 189.1 28.6 191.9 28.6 Z M 194.3 32.8 C 194.2 31.1 193.2 30.2 191.9 30.2 C 190.4 30.2 189.2 31.1 188.9 32.8 C 188.9 32.8 194.3 32.8 194.3 32.8 Z M 198.8 27 C 198.8 26.7 198.7 26.5 198.4 26.5 C 198.4 26.54 197.6 26.5 197.6 26.5 L 197.6 24.9 C 197.6 24.9 199.5 24.88 199.5 24.9 C 200.4 24.9 200.8 25.3 200.8 26.2 C 200.8 26.2 200.8 36.9 200.8 36.9 C 200.8 37.2 200.9 37.3 201.2 37.3 C 201.22 37.34 202 37.3 202 37.3 L 202 39 C 202 39 200.12 39 200.1 39 C 199.2 39 198.8 38.6 198.8 37.7 C 198.8 37.7 198.8 27 198.8 27 Z M 204.4 24.9 L 206.1 24.9 L 206.1 26.9 L 204.4 26.9 L 204.4 24.9 Z M 204.3 31 C 204.3 30.7 204.2 30.5 203.9 30.5 C 203.9 30.54 203.1 30.5 203.1 30.5 L 203.1 28.9 C 203.1 28.9 204.98 28.88 205 28.9 C 205.9 28.9 206.3 29.3 206.3 30.2 C 206.3 30.2 206.3 36.9 206.3 36.9 C 206.3 37.2 206.4 37.3 206.7 37.3 C 206.7 37.34 207.5 37.3 207.5 37.3 L 207.5 39 C 207.5 39 205.62 39 205.6 39 C 204.7 39 204.3 38.6 204.3 37.7 C 204.3 37.7 204.3 31 204.3 31 Z M 209.6 36.2 C 209.6 36.2 210.78 37.66 212.6 37.7 C 213.6 37.7 214.4 37.2 214.4 36.4 C 214.4 34.5 208.9 34.7 208.9 31.5 C 208.9 29.5 210.6 28.6 212.6 28.6 C 213.9 28.6 216 29.1 216 30.6 C 215.96 30.6 216 31.6 216 31.6 L 214.2 31.6 C 214.2 31.6 214.22 31.06 214.2 31.1 C 214.2 30.5 213.3 30.2 212.7 30.2 C 211.6 30.2 210.8 30.6 210.8 31.4 C 210.8 33.3 216.3 32.9 216.3 36.3 C 216.3 38.1 214.7 39.2 212.6 39.2 C 209.92 39.24 208.6 37.5 208.6 37.5 L 209.6 36.2 Z M 218.8 31 C 218.8 30.7 218.6 30.5 218.3 30.5 C 218.34 30.54 217.5 30.5 217.5 30.5 L 217.5 28.9 C 217.5 28.9 219.42 28.88 219.4 28.9 C 220.3 28.9 220.7 29.3 220.7 30.1 C 220.7 30.1 220.7 34.9 220.7 34.9 C 220.7 36.3 221 37.4 222.6 37.4 C 224.7 37.4 225.9 35.6 225.9 33.6 C 225.9 33.62 225.9 28.9 225.9 28.9 L 227.8 28.9 C 227.8 28.9 227.84 36.9 227.8 36.9 C 227.8 37.2 228 37.3 228.3 37.3 C 228.28 37.34 229.1 37.3 229.1 37.3 L 229.1 39 C 229.1 39 227.24 39 227.2 39 C 226.4 39 226 38.6 226 37.9 C 226 37.9 226 37.5 226 37.5 C 225.96 37.18 226 36.9 226 36.9 C 226 36.9 225.94 36.92 225.9 36.9 C 225.5 37.9 224.2 39.2 222.2 39.2 C 219.9 39.2 218.8 38 218.8 35.4 C 218.8 35.4 218.8 31 218.8 31 Z M 236.5 36.2 C 236.5 36.2 237.66 37.66 239.5 37.7 C 240.5 37.7 241.3 37.2 241.3 36.4 C 241.3 34.5 235.8 34.7 235.8 31.5 C 235.8 29.5 237.5 28.6 239.5 28.6 C 240.7 28.6 242.8 29.1 242.8 30.6 C 242.84 30.6 242.8 31.6 242.8 31.6 L 241.1 31.6 C 241.1 31.6 241.1 31.06 241.1 31.1 C 241.1 30.5 240.2 30.2 239.6 30.2 C 238.4 30.2 237.7 30.6 237.7 31.4 C 237.7 33.3 243.2 32.9 243.2 36.3 C 243.2 38.1 241.6 39.2 239.5 39.2 C 236.8 39.24 235.5 37.5 235.5 37.5 L 236.5 36.2 Z M 250.8 32.7 C 250.84 32.7 251.3 32.7 251.3 32.7 C 251.3 32.7 251.28 32.6 251.3 32.6 C 251.3 30.8 250.6 30.2 249 30.2 C 248.6 30.2 247.4 30.3 247.4 31 C 247.38 30.96 247.4 31.5 247.4 31.5 L 245.6 31.5 C 245.6 31.5 245.56 30.54 245.6 30.5 C 245.6 28.9 248.1 28.6 249.1 28.6 C 252.3 28.6 253.2 30.4 253.2 32.6 C 253.2 32.6 253.2 36.9 253.2 36.9 C 253.2 37.2 253.4 37.3 253.7 37.3 C 253.66 37.34 254.5 37.3 254.5 37.3 L 254.5 39 C 254.5 39 252.66 39 252.7 39 C 251.8 39 251.4 38.6 251.4 37.8 C 251.4 37.5 251.4 37.2 251.4 37.2 L 251.4 37.2 C 251.4 37.2 250.6 39.24 248.2 39.2 C 246.4 39.2 244.7 38.2 244.7 36.2 C 244.7 32.9 249.1 32.7 250.8 32.7 Z M 248.6 37.7 C 250.2 37.7 251.3 36 251.3 34.5 C 251.3 34.46 251.3 34.1 251.3 34.1 C 251.3 34.1 250.8 34.12 250.8 34.1 C 249.3 34.1 246.7 34.2 246.7 36.1 C 246.7 36.9 247.3 37.7 248.6 37.7 Z M 266.1 28.6 C 268.9 28.6 270.4 30.8 270.4 33.4 C 270.42 33.64 270.4 34.2 270.4 34.2 C 270.4 34.2 262.98 34.18 263 34.2 C 263.1 36.3 264.7 37.6 266.5 37.6 C 268.2 37.56 269.4 36.4 269.4 36.4 L 270.3 37.8 C 270.3 37.8 268.76 39.24 266.4 39.2 C 263.2 39.2 261 36.9 261 33.9 C 261 30.7 263.2 28.6 266.1 28.6 Z M 268.4 32.8 C 268.4 31.1 267.3 30.2 266 30.2 C 264.6 30.2 263.4 31.1 263.1 32.8 C 263.1 32.8 268.4 32.8 268.4 32.8 Z M 272.8 36.2 C 272.8 36.2 274.04 37.66 275.9 37.7 C 276.8 37.7 277.7 37.2 277.7 36.4 C 277.7 34.5 272.1 34.7 272.1 31.5 C 272.1 29.5 273.8 28.6 275.9 28.6 C 277.1 28.6 279.2 29.1 279.2 30.6 C 279.22 30.6 279.2 31.6 279.2 31.6 L 277.5 31.6 C 277.5 31.6 277.48 31.06 277.5 31.1 C 277.5 30.5 276.6 30.2 276 30.2 C 274.8 30.2 274.1 30.6 274.1 31.4 C 274.1 33.3 279.6 32.9 279.6 36.3 C 279.6 38.1 278 39.2 275.9 39.2 C 273.18 39.24 271.8 37.5 271.8 37.5 L 272.8 36.2 Z M 282.2 30.4 L 280.8 30.4 L 280.8 28.9 L 282.2 28.9 L 282.2 26.1 L 284.1 26.1 L 284.1 28.9 L 286.5 28.9 L 286.5 30.4 L 284.1 30.4 C 284.1 30.4 284.1 35.08 284.1 35.1 C 284.1 37.1 285.5 37.4 286.2 37.4 C 286.52 37.36 286.7 37.3 286.7 37.3 L 286.7 39 C 286.7 39 286.44 39.08 286 39.1 C 284.7 39.1 282.2 38.7 282.2 35.3 C 282.16 35.3 282.2 30.4 282.2 30.4 Z M 293 28.6 C 295.9 28.6 297.4 30.8 297.4 33.4 C 297.4 33.64 297.3 34.2 297.3 34.2 C 297.3 34.2 289.96 34.18 290 34.2 C 290.1 36.3 291.6 37.6 293.4 37.6 C 295.18 37.56 296.4 36.4 296.4 36.4 L 297.2 37.8 C 297.2 37.8 295.74 39.24 293.3 39.2 C 290.1 39.2 288 36.9 288 33.9 C 288 30.7 290.2 28.6 293 28.6 Z M 295.4 32.8 C 295.3 31.1 294.3 30.2 293 30.2 C 291.5 30.2 290.3 31.1 290 32.8 C 290 32.8 295.4 32.8 295.4 32.8 Z M 300.1 30.4 L 298.7 30.4 L 298.7 28.9 L 300.1 28.9 L 300.1 26.1 L 302 26.1 L 302 28.9 L 304.4 28.9 L 304.4 30.4 L 302 30.4 C 302 30.4 302 35.08 302 35.1 C 302 37.1 303.4 37.4 304.1 37.4 C 304.42 37.36 304.6 37.3 304.6 37.3 L 304.6 39 C 304.6 39 304.34 39.08 303.9 39.1 C 302.6 39.1 300.1 38.7 300.1 35.3 C 300.06 35.3 300.1 30.4 300.1 30.4 Z M 307 31 C 307 30.7 306.9 30.5 306.6 30.5 C 306.58 30.54 305.8 30.5 305.8 30.5 L 305.8 28.9 C 305.8 28.9 307.6 28.88 307.6 28.9 C 308.5 28.9 308.9 29.2 308.9 30.1 C 308.9 30.1 308.9 30.7 308.9 30.7 C 308.9 31.1 308.9 31.4 308.9 31.4 C 308.9 31.4 308.9 31.4 308.9 31.4 C 309.4 29.9 310.5 28.8 312.1 28.8 C 312.36 28.76 312.6 28.8 312.6 28.8 L 312.6 30.7 C 312.6 30.7 312.36 30.66 312 30.7 C 310.8 30.7 309.7 31.5 309.2 33 C 309 33.6 309 34.2 309 34.9 C 308.96 34.86 309 39 309 39 L 307 39 C 307 39 307.02 30.98 307 31 Z M 318.8 28.6 C 321.8 28.6 324.3 30.9 324.3 33.9 C 324.3 37 321.8 39.2 318.8 39.2 C 315.8 39.2 313.4 37 313.4 33.9 C 313.4 30.9 315.8 28.6 318.8 28.6 Z M 318.8 37.6 C 320.7 37.6 322.3 36 322.3 33.9 C 322.3 31.8 320.7 30.3 318.8 30.3 C 316.9 30.3 315.4 31.8 315.4 33.9 C 315.4 36 316.9 37.6 318.8 37.6 Z M 326.5 27 C 326.5 26.7 326.3 26.5 326 26.5 C 326.04 26.54 325.2 26.5 325.2 26.5 L 325.2 24.9 C 325.2 24.9 327.14 24.88 327.1 24.9 C 328 24.9 328.4 25.3 328.4 26.2 C 328.4 26.2 328.4 36.9 328.4 36.9 C 328.4 37.2 328.6 37.3 328.9 37.3 C 328.86 37.34 329.7 37.3 329.7 37.3 L 329.7 39 C 329.7 39 327.76 39 327.8 39 C 326.9 39 326.5 38.6 326.5 37.7 C 326.5 37.7 326.5 27 326.5 27 Z M 336.6 30.9 C 336.5 30.6 336.3 30.5 336 30.5 C 336.02 30.54 335.8 30.5 335.8 30.5 L 335.8 28.9 C 335.8 28.9 336.82 28.88 336.8 28.9 C 337.7 28.9 338.1 29.1 338.4 29.9 C 338.4 29.9 340.5 35.7 340.5 35.7 C 340.74 36.28 340.9 37 340.9 37 L 340.9 37 C 340.9 37 341.1 36.28 341.3 35.7 C 341.3 35.7 343.5 29.9 343.5 29.9 C 343.8 29.1 344.1 28.9 345 28.9 C 345 28.88 345.9 28.9 345.9 28.9 L 345.9 30.5 C 345.9 30.5 345.74 30.54 345.7 30.5 C 345.4 30.5 345.2 30.6 345.1 30.9 C 345.08 30.94 342 39 342 39 L 339.8 39 C 339.8 39 336.64 30.94 336.6 30.9 Z M 348.6 41.5 C 349.4 41.5 350 41 350.4 40.1 C 350.36 40.06 350.8 39 350.8 39 C 350.8 39 347.36 30.94 347.4 30.9 C 347.2 30.6 347 30.5 346.7 30.5 C 346.72 30.54 346.5 30.5 346.5 30.5 L 346.5 28.9 C 346.5 28.9 347.62 28.88 347.6 28.9 C 348.4 28.9 348.7 29.1 349.1 29.9 C 349.1 29.9 351.4 35.6 351.4 35.6 C 351.56 36.12 351.7 36.8 351.7 36.8 L 351.8 36.8 C 351.8 36.8 351.9 36.12 352.1 35.6 C 352.1 35.6 354.2 29.9 354.2 29.9 C 354.5 29.1 354.9 28.9 355.7 28.9 C 355.68 28.88 356.8 28.9 356.8 28.9 L 356.8 30.5 C 356.8 30.5 356.58 30.54 356.6 30.5 C 356.3 30.5 356.1 30.6 355.9 30.9 C 355.9 30.9 351.9 40.8 351.9 40.8 C 351.3 42.4 350.1 43.2 348.7 43.2 C 347.18 43.2 346.3 42.2 346.3 42.2 C 346.3 42.2 347.1 40.8 347.1 40.8 C 347.1 40.8 347.7 41.5 348.6 41.5 Z M 358.8 31 C 358.8 30.7 358.7 30.5 358.4 30.5 C 358.38 30.54 357.6 30.5 357.6 30.5 L 357.6 28.9 C 357.6 28.9 359.4 28.88 359.4 28.9 C 360.3 28.9 360.7 29.2 360.7 30.1 C 360.7 30.1 360.7 30.7 360.7 30.7 C 360.7 31.1 360.7 31.4 360.7 31.4 C 360.7 31.4 360.7 31.4 360.7 31.4 C 361.2 29.9 362.3 28.8 363.9 28.8 C 364.16 28.76 364.4 28.8 364.4 28.8 L 364.4 30.7 C 364.4 30.7 364.16 30.66 363.8 30.7 C 362.6 30.7 361.5 31.5 361 33 C 360.8 33.6 360.8 34.2 360.8 34.9 C 360.76 34.86 360.8 39 360.8 39 L 358.8 39 C 358.8 39 358.82 30.98 358.8 31 Z M 371.1 32.7 C 371.08 32.7 371.5 32.7 371.5 32.7 C 371.5 32.7 371.52 32.6 371.5 32.6 C 371.5 30.8 370.9 30.2 369.3 30.2 C 368.8 30.2 367.6 30.3 367.6 31 C 367.62 30.96 367.6 31.5 367.6 31.5 L 365.8 31.5 C 365.8 31.5 365.8 30.54 365.8 30.5 C 365.8 28.9 368.3 28.6 369.3 28.6 C 372.6 28.6 373.5 30.4 373.5 32.6 C 373.5 32.6 373.5 36.9 373.5 36.9 C 373.5 37.2 373.6 37.3 373.9 37.3 C 373.9 37.34 374.7 37.3 374.7 37.3 L 374.7 39 C 374.7 39 372.9 39 372.9 39 C 372 39 371.6 38.6 371.6 37.8 C 371.64 37.5 371.7 37.2 371.7 37.2 L 371.6 37.2 C 371.6 37.2 370.84 39.24 368.4 39.2 C 366.7 39.2 365 38.2 365 36.2 C 365 32.9 369.4 32.7 371.1 32.7 Z M 368.8 37.7 C 370.5 37.7 371.5 36 371.5 34.5 C 371.54 34.46 371.5 34.1 371.5 34.1 C 371.5 34.1 371.04 34.12 371 34.1 C 369.6 34.1 366.9 34.2 366.9 36.1 C 366.9 36.9 367.6 37.7 368.8 37.7 Z M 370.2 24.9 L 372.2 24.9 L 370.3 27.4 L 368.8 27.4 L 370.2 24.9 Z M 376.7 27 C 376.7 26.7 376.6 26.5 376.3 26.5 C 376.3 26.54 375.5 26.5 375.5 26.5 L 375.5 24.9 C 375.5 24.9 377.4 24.88 377.4 24.9 C 378.3 24.9 378.7 25.3 378.7 26.2 C 378.7 26.2 378.7 29.5 378.7 29.5 C 378.68 29.94 378.6 30.3 378.6 30.3 L 378.7 30.3 C 378.7 30.3 379.56 28.64 381.9 28.6 C 384.7 28.6 386.4 30.8 386.4 33.9 C 386.4 37.2 384.4 39.2 381.8 39.2 C 379.52 39.24 378.6 37.5 378.6 37.5 L 378.6 37.5 C 378.6 37.5 378.6 37.86 378.6 38.3 C 378.6 38.3 378.6 39 378.6 39 L 376.7 39 C 376.7 39 376.74 26.98 376.7 27 Z M 381.5 37.6 C 383.1 37.6 384.4 36.3 384.4 34 C 384.4 31.8 383.2 30.3 381.5 30.3 C 380 30.3 378.6 31.4 378.6 34 C 378.6 35.8 379.6 37.6 381.5 37.6 Z M 393.9 32.7 C 393.86 32.7 394.3 32.7 394.3 32.7 C 394.3 32.7 394.3 32.6 394.3 32.6 C 394.3 30.8 393.6 30.2 392.1 30.2 C 391.6 30.2 390.4 30.3 390.4 31 C 390.4 30.96 390.4 31.5 390.4 31.5 L 388.6 31.5 C 388.6 31.5 388.58 30.54 388.6 30.5 C 388.6 28.9 391.1 28.6 392.1 28.6 C 395.4 28.6 396.2 30.4 396.2 32.6 C 396.2 32.6 396.2 36.9 396.2 36.9 C 396.2 37.2 396.4 37.3 396.7 37.3 C 396.68 37.34 397.5 37.3 397.5 37.3 L 397.5 39 C 397.5 39 395.68 39 395.7 39 C 394.8 39 394.4 38.6 394.4 37.8 C 394.42 37.5 394.5 37.2 394.5 37.2 L 394.4 37.2 C 394.4 37.2 393.62 39.24 391.2 39.2 C 389.5 39.2 387.8 38.2 387.8 36.2 C 387.8 32.9 392.2 32.7 393.9 32.7 Z M 391.6 37.7 C 393.3 37.7 394.3 36 394.3 34.5 C 394.32 34.46 394.3 34.1 394.3 34.1 C 394.3 34.1 393.82 34.12 393.8 34.1 C 392.4 34.1 389.7 34.2 389.7 36.1 C 389.7 36.9 390.3 37.7 391.6 37.7 Z M 403.9 37.9 C 403.9 37.9 409.11 31.48 409.1 31.5 C 409.55 30.94 410 30.5 410 30.5 L 410 30.5 C 410 30.5 409.63 30.54 409 30.5 C 409 30.5 406.2 30.5 406.2 30.5 C 405.9 30.5 405.8 30.7 405.8 31 C 405.77 30.98 405.8 31.7 405.8 31.7 L 404 31.7 C 404 31.7 403.99 30.16 404 30.2 C 404 29.3 404.4 28.9 405.3 28.9 C 405.27 28.88 412.5 28.9 412.5 28.9 L 412.5 30 C 412.5 30 407.31 36.42 407.3 36.4 C 406.89 36.92 406.5 37.3 406.5 37.3 L 406.5 37.4 C 406.5 37.4 406.79 37.34 407.5 37.3 C 407.5 37.3 410.7 37.3 410.7 37.3 C 411 37.3 411.1 37.2 411.1 36.9 C 411.13 36.9 411.1 36.2 411.1 36.2 L 412.9 36.2 C 412.9 36.2 412.89 37.72 412.9 37.7 C 412.9 38.6 412.5 39 411.6 39 C 411.61 39 403.9 39 403.9 39 L 403.9 37.9 Z M 419.3 28.6 C 422.4 28.6 424.8 30.9 424.8 33.9 C 424.8 37 422.4 39.2 419.3 39.2 C 416.3 39.2 413.9 37 413.9 33.9 C 413.9 30.9 416.3 28.6 419.3 28.6 Z M 419.3 37.6 C 421.3 37.6 422.8 36 422.8 33.9 C 422.8 31.8 421.3 30.3 419.3 30.3 C 417.4 30.3 415.9 31.8 415.9 33.9 C 415.9 36 417.4 37.6 419.3 37.6 Z M 432.4 36.2 C 432.4 36.2 433.63 37.66 435.5 37.7 C 436.4 37.7 437.3 37.2 437.3 36.4 C 437.3 34.5 431.7 34.7 431.7 31.5 C 431.7 29.5 433.4 28.6 435.5 28.6 C 436.7 28.6 438.8 29.1 438.8 30.6 C 438.81 30.6 438.8 31.6 438.8 31.6 L 437.1 31.6 C 437.1 31.6 437.07 31.06 437.1 31.1 C 437.1 30.5 436.2 30.2 435.6 30.2 C 434.4 30.2 433.7 30.6 433.7 31.4 C 433.7 33.3 439.2 32.9 439.2 36.3 C 439.2 38.1 437.6 39.2 435.5 39.2 C 432.77 39.24 431.4 37.5 431.4 37.5 L 432.4 36.2 Z M 446.1 28.6 C 449.2 28.6 451.6 30.9 451.6 33.9 C 451.6 37 449.2 39.2 446.1 39.2 C 443.1 39.2 440.7 37 440.7 33.9 C 440.7 30.9 443.1 28.6 446.1 28.6 Z M 446.1 37.6 C 448.1 37.6 449.6 36 449.6 33.9 C 449.6 31.8 448.1 30.3 446.1 30.3 C 444.2 30.3 442.7 31.8 442.7 33.9 C 442.7 36 444.2 37.6 446.1 37.6 Z M 446.8 24.9 L 448.8 24.9 L 446.9 27.4 L 445.4 27.4 L 446.8 24.9 Z M 454.6 24.9 L 456.3 24.9 L 456.3 26.9 L 454.6 26.9 L 454.6 24.9 Z M 452.4 41.4 C 453.1 41.4 454.5 41.2 454.5 39.2 C 454.5 39.2 454.5 31 454.5 31 C 454.5 30.7 454.4 30.5 454.1 30.5 C 454.07 30.54 453.3 30.5 453.3 30.5 L 453.3 28.9 C 453.3 28.9 455.17 28.88 455.2 28.9 C 456.1 28.9 456.5 29.3 456.5 30.2 C 456.5 30.2 456.5 39.3 456.5 39.3 C 456.5 42.7 453.9 43.1 452.6 43.1 C 452.17 43.12 451.9 43.1 451.9 43.1 L 451.9 41.4 C 451.9 41.4 452.09 41.44 452.4 41.4 Z M 464.2 28.6 C 467.2 28.6 469.7 30.9 469.7 33.9 C 469.7 37 467.2 39.2 464.2 39.2 C 461.2 39.2 458.8 37 458.8 33.9 C 458.8 30.9 461.2 28.6 464.2 28.6 Z M 464.2 37.6 C 466.1 37.6 467.7 36 467.7 33.9 C 467.7 31.8 466.1 30.3 464.2 30.3 C 462.3 30.3 460.7 31.8 460.7 33.9 C 460.7 36 462.3 37.6 464.2 37.6 Z M 471.3 30.9 C 471.1 30.6 471 30.5 470.6 30.5 C 470.63 30.54 470.4 30.5 470.4 30.5 L 470.4 28.9 C 470.4 28.9 471.43 28.88 471.4 28.9 C 472.3 28.9 472.7 29.1 473 29.9 C 473 29.9 475.2 35.7 475.2 35.7 C 475.35 36.28 475.5 37 475.5 37 L 475.6 37 C 475.6 37 475.71 36.28 475.9 35.7 C 475.9 35.7 478.1 29.9 478.1 29.9 C 478.4 29.1 478.7 28.9 479.6 28.9 C 479.61 28.88 480.6 28.9 480.6 28.9 L 480.6 30.5 C 480.6 30.5 480.35 30.54 480.4 30.5 C 480 30.5 479.8 30.6 479.7 30.9 C 479.69 30.94 476.6 39 476.6 39 L 474.4 39 C 474.4 39 471.25 30.94 471.3 30.9 Z M 483.2 41.5 C 484 41.5 484.6 41 485 40.1 C 484.97 40.06 485.4 39 485.4 39 C 485.4 39 481.97 30.94 482 30.9 C 481.8 30.6 481.7 30.5 481.3 30.5 C 481.33 30.54 481.1 30.5 481.1 30.5 L 481.1 28.9 C 481.1 28.9 482.23 28.88 482.2 28.9 C 483.1 28.9 483.4 29.1 483.7 29.9 C 483.7 29.9 486 35.6 486 35.6 C 486.17 36.12 486.3 36.8 486.3 36.8 L 486.4 36.8 C 486.4 36.8 486.51 36.12 486.7 35.6 C 486.7 35.6 488.8 29.9 488.8 29.9 C 489.1 29.1 489.5 28.9 490.3 28.9 C 490.29 28.88 491.5 28.9 491.5 28.9 L 491.5 30.5 C 491.5 30.5 491.19 30.54 491.2 30.5 C 490.9 30.5 490.7 30.6 490.6 30.9 C 490.6 30.9 486.6 40.8 486.6 40.8 C 485.9 42.4 484.7 43.2 483.3 43.2 C 481.79 43.2 480.9 42.2 480.9 42.2 C 480.9 42.2 481.71 40.8 481.7 40.8 C 481.7 40.8 482.3 41.5 483.2 41.5 Z M 487 24.9 L 488.9 24.9 L 487 27.4 L 485.5 27.4 L 487 24.9 Z M 497.7 28.6 C 498.9 28.6 501.3 29.1 501.3 30.9 C 501.33 30.86 501.3 31.9 501.3 31.9 L 499.6 31.9 C 499.6 31.9 499.57 31.34 499.6 31.3 C 499.6 30.6 498.4 30.3 497.7 30.3 C 495.7 30.3 494.2 31.8 494.2 33.9 C 494.2 36.2 495.9 37.5 497.8 37.5 C 499.69 37.52 500.9 36.1 500.9 36.1 L 501.8 37.5 C 501.8 37.5 500.33 39.24 497.7 39.2 C 494.5 39.2 492.3 37 492.3 33.9 C 492.3 31 494.4 28.6 497.7 28.6 Z M 503.8 27 C 503.8 26.7 503.6 26.5 503.3 26.5 C 503.31 26.54 502.5 26.5 502.5 26.5 L 502.5 24.9 C 502.5 24.9 504.41 24.88 504.4 24.9 C 505.3 24.9 505.7 25.3 505.7 26.1 C 505.7 26.1 505.7 30.1 505.7 30.1 C 505.69 30.54 505.7 30.9 505.7 30.9 C 505.7 30.9 505.69 30.9 505.7 30.9 C 506.1 29.9 507.4 28.6 509.5 28.6 C 511.8 28.6 512.9 29.9 512.9 32.5 C 512.9 32.5 512.9 36.9 512.9 36.9 C 512.9 37.2 513.1 37.3 513.4 37.3 C 513.35 37.34 514.2 37.3 514.2 37.3 L 514.2 39 C 514.2 39 512.27 39 512.3 39 C 511.4 39 511 38.6 511 37.7 C 511 37.7 511 33 511 33 C 511 31.5 510.7 30.4 509.1 30.4 C 507.5 30.4 506.3 31.5 505.9 32.9 C 505.7 33.3 505.7 33.8 505.7 34.3 C 505.69 34.26 505.7 39 505.7 39 L 503.8 39 C 503.8 39 503.75 26.98 503.8 27 Z M 521.6 27 C 521.6 26.7 521.4 26.5 521.1 26.5 C 521.13 26.54 520.3 26.5 520.3 26.5 L 520.3 24.9 C 520.3 24.9 522.23 24.88 522.2 24.9 C 523.1 24.9 523.5 25.3 523.5 26.2 C 523.5 26.2 523.5 29.5 523.5 29.5 C 523.51 29.94 523.5 30.3 523.5 30.3 L 523.5 30.3 C 523.5 30.3 524.39 28.64 526.8 28.6 C 529.5 28.6 531.2 30.8 531.2 33.9 C 531.2 37.2 529.3 39.2 526.6 39.2 C 524.35 39.24 523.4 37.5 523.4 37.5 L 523.4 37.5 C 523.4 37.5 523.43 37.86 523.4 38.3 C 523.43 38.3 523.4 39 523.4 39 L 521.6 39 C 521.6 39 521.57 26.98 521.6 27 Z M 526.3 37.6 C 527.9 37.6 529.3 36.3 529.3 34 C 529.3 31.8 528.1 30.3 526.4 30.3 C 524.9 30.3 523.5 31.4 523.5 34 C 523.5 35.8 524.4 37.6 526.3 37.6 Z M 538.1 28.6 C 541.1 28.6 543.6 30.9 543.6 33.9 C 543.6 37 541.1 39.2 538.1 39.2 C 535.1 39.2 532.7 37 532.7 33.9 C 532.7 30.9 535.1 28.6 538.1 28.6 Z M 538.1 37.6 C 540 37.6 541.6 36 541.6 33.9 C 541.6 31.8 540 30.3 538.1 30.3 C 536.2 30.3 534.7 31.8 534.7 33.9 C 534.7 36 536.2 37.6 538.1 37.6 Z M 537.2 24.9 L 539 24.9 L 540.8 27.4 L 539.2 27.4 L 538.2 25.8 L 538.1 25.8 L 537.1 27.4 L 535.5 27.4 L 537.2 24.9 Z M 545.7 27 C 545.7 26.7 545.6 26.5 545.3 26.5 C 545.29 26.54 544.5 26.5 544.5 26.5 L 544.5 24.9 C 544.5 24.9 546.39 24.88 546.4 24.9 C 547.3 24.9 547.7 25.3 547.7 26.2 C 547.7 26.2 547.7 29.5 547.7 29.5 C 547.67 29.94 547.6 30.3 547.6 30.3 L 547.7 30.3 C 547.7 30.3 548.55 28.64 550.9 28.6 C 553.7 28.6 555.4 30.8 555.4 33.9 C 555.4 37.2 553.4 39.2 550.8 39.2 C 548.51 39.24 547.6 37.5 547.6 37.5 L 547.6 37.5 C 547.6 37.5 547.59 37.86 547.6 38.3 C 547.59 38.3 547.6 39 547.6 39 L 545.7 39 C 545.7 39 545.73 26.98 545.7 27 Z M 550.5 37.6 C 552.1 37.6 553.4 36.3 553.4 34 C 553.4 31.8 552.2 30.3 550.5 30.3 C 549 30.3 547.6 31.4 547.6 34 C 547.6 35.8 548.6 37.6 550.5 37.6 Z M 562.3 28.6 C 565.3 28.6 567.7 30.9 567.7 33.9 C 567.7 37 565.3 39.2 562.3 39.2 C 559.3 39.2 556.8 37 556.8 33.9 C 556.8 30.9 559.3 28.6 562.3 28.6 Z M 562.3 37.6 C 564.2 37.6 565.8 36 565.8 33.9 C 565.8 31.8 564.2 30.3 562.3 30.3 C 560.4 30.3 558.8 31.8 558.8 33.9 C 558.8 36 560.4 37.6 562.3 37.6 Z M 569.3 30.9 C 569.2 30.6 569 30.5 568.7 30.5 C 568.71 30.54 568.5 30.5 568.5 30.5 L 568.5 28.9 C 568.5 28.9 569.51 28.88 569.5 28.9 C 570.4 28.9 570.8 29.1 571.1 29.9 C 571.1 29.9 573.2 35.7 573.2 35.7 C 573.43 36.28 573.6 37 573.6 37 L 573.6 37 C 573.6 37 573.79 36.28 574 35.7 C 574 35.7 576.2 29.9 576.2 29.9 C 576.5 29.1 576.8 28.9 577.7 28.9 C 577.69 28.88 578.6 28.9 578.6 28.9 L 578.6 30.5 C 578.6 30.5 578.43 30.54 578.4 30.5 C 578.1 30.5 577.9 30.6 577.8 30.9 C 577.77 30.94 574.7 39 574.7 39 L 572.5 39 C 572.5 39 569.33 30.94 569.3 30.9 Z M 579.5 36.9 L 581.5 36.9 L 581.5 39 L 579.5 39 L 579.5 36.9 Z " stroke="none" fill="#ee3078"/>  </g>  <g id="Polygon71288">    <path d="M 2.1 2.6 L 0.8 2.6 L 0.8 0.9 C 0.8 0.9 9.06 0.88 9.1 0.9 C 10 0.9 10.3 1.3 10.3 2.2 C 10.34 2.16 10.3 3.9 10.3 3.9 L 8.5 3.9 C 8.5 3.9 8.52 3.04 8.5 3 C 8.5 2.7 8.4 2.6 8.1 2.6 C 8.08 2.6 4.1 2.6 4.1 2.6 L 4.1 7 L 9 7 L 9 8.7 L 4.1 8.7 C 4.1 8.7 4.06 12.84 4.1 12.8 C 4.1 13.1 4.2 13.3 4.5 13.3 C 4.5 13.3 8.6 13.3 8.6 13.3 C 8.9 13.3 9.1 13.1 9.1 12.8 C 9.06 12.84 9.1 11.9 9.1 11.9 L 10.9 11.9 C 10.9 11.9 10.9 13.72 10.9 13.7 C 10.9 14.6 10.5 15 9.6 15 C 9.6 15 3.3 15 3.3 15 C 2.4 15 2.1 14.6 2.1 13.7 C 2.06 13.72 2.1 2.6 2.1 2.6 Z M 12.9 12.2 C 12.9 12.2 14.1 13.66 16 13.7 C 16.9 13.7 17.7 13.2 17.7 12.4 C 17.7 10.5 12.2 10.7 12.2 7.5 C 12.2 5.5 13.9 4.6 16 4.6 C 17.2 4.6 19.3 5.1 19.3 6.6 C 19.28 6.6 19.3 7.6 19.3 7.6 L 17.5 7.6 C 17.5 7.6 17.54 7.06 17.5 7.1 C 17.5 6.5 16.6 6.2 16 6.2 C 14.9 6.2 14.1 6.6 14.1 7.4 C 14.1 9.3 19.7 8.9 19.7 12.3 C 19.7 14.1 18.1 15.2 15.9 15.2 C 13.24 15.24 11.9 13.5 11.9 13.5 L 12.9 12.2 Z M 22.2 6.4 L 20.9 6.4 L 20.9 4.9 L 22.3 4.9 L 22.3 2.1 L 24.2 2.1 L 24.2 4.9 L 26.6 4.9 L 26.6 6.4 L 24.2 6.4 C 24.2 6.4 24.16 11.08 24.2 11.1 C 24.2 13.1 25.6 13.4 26.3 13.4 C 26.58 13.36 26.8 13.3 26.8 13.3 L 26.8 15 C 26.8 15 26.5 15.08 26.1 15.1 C 24.8 15.1 22.2 14.7 22.2 11.3 C 22.22 11.3 22.2 6.4 22.2 6.4 Z M 33.1 4.6 C 35.9 4.6 37.5 6.8 37.5 9.4 C 37.46 9.64 37.4 10.2 37.4 10.2 C 37.4 10.2 30.02 10.18 30 10.2 C 30.1 12.3 31.7 13.6 33.5 13.6 C 35.24 13.56 36.5 12.4 36.5 12.4 L 37.3 13.8 C 37.3 13.8 35.8 15.24 33.4 15.2 C 30.2 15.2 28 12.9 28 9.9 C 28 6.7 30.2 4.6 33.1 4.6 Z M 35.5 8.8 C 35.4 7.1 34.3 6.2 33.1 6.2 C 31.6 6.2 30.4 7.1 30.1 8.8 C 30.1 8.8 35.5 8.8 35.5 8.8 Z M 40.1 6.4 L 38.8 6.4 L 38.8 4.9 L 40.2 4.9 L 40.2 2.1 L 42.1 2.1 L 42.1 4.9 L 44.5 4.9 L 44.5 6.4 L 42.1 6.4 C 42.1 6.4 42.06 11.08 42.1 11.1 C 42.1 13.1 43.5 13.4 44.2 13.4 C 44.48 13.36 44.7 13.3 44.7 13.3 L 44.7 15 C 44.7 15 44.4 15.08 44 15.1 C 42.7 15.1 40.1 14.7 40.1 11.3 C 40.12 11.3 40.1 6.4 40.1 6.4 Z M 47.1 7 C 47.1 6.7 46.9 6.5 46.6 6.5 C 46.64 6.54 45.8 6.5 45.8 6.5 L 45.8 4.9 C 45.8 4.9 47.66 4.88 47.7 4.9 C 48.5 4.9 49 5.2 49 6.1 C 49 6.1 49 6.7 49 6.7 C 48.96 7.1 48.9 7.4 48.9 7.4 C 48.9 7.4 48.96 7.4 49 7.4 C 49.4 5.9 50.6 4.8 52.2 4.8 C 52.42 4.76 52.7 4.8 52.7 4.8 L 52.7 6.7 C 52.7 6.7 52.42 6.66 52.1 6.7 C 50.9 6.7 49.7 7.5 49.3 9 C 49.1 9.6 49 10.2 49 10.9 C 49.02 10.86 49 15 49 15 L 47.1 15 C 47.1 15 47.08 6.98 47.1 7 Z M 58.9 4.6 C 61.9 4.6 64.3 6.9 64.3 9.9 C 64.3 13 61.9 15.2 58.9 15.2 C 55.9 15.2 53.4 13 53.4 9.9 C 53.4 6.9 55.9 4.6 58.9 4.6 Z M 58.9 13.6 C 60.8 13.6 62.4 12 62.4 9.9 C 62.4 7.8 60.8 6.3 58.9 6.3 C 57 6.3 55.4 7.8 55.4 9.9 C 55.4 12 57 13.6 58.9 13.6 Z M 66.5 3 C 66.5 2.7 66.4 2.5 66.1 2.5 C 66.1 2.54 65.3 2.5 65.3 2.5 L 65.3 0.9 C 65.3 0.9 67.2 0.88 67.2 0.9 C 68.1 0.9 68.5 1.3 68.5 2.2 C 68.5 2.2 68.5 12.9 68.5 12.9 C 68.5 13.2 68.6 13.3 68.9 13.3 C 68.92 13.34 69.7 13.3 69.7 13.3 L 69.7 15 C 69.7 15 67.82 15 67.8 15 C 66.9 15 66.5 14.6 66.5 13.7 C 66.5 13.7 66.5 3 66.5 3 Z M 77.9 0.9 L 79.6 0.9 L 79.6 2.9 L 77.9 2.9 L 77.9 0.9 Z M 75.7 17.4 C 76.4 17.4 77.8 17.2 77.8 15.2 C 77.8 15.2 77.8 7 77.8 7 C 77.8 6.7 77.7 6.5 77.4 6.5 C 77.38 6.54 76.6 6.5 76.6 6.5 L 76.6 4.9 C 76.6 4.9 78.48 4.88 78.5 4.9 C 79.4 4.9 79.8 5.3 79.8 6.2 C 79.8 6.2 79.8 15.3 79.8 15.3 C 79.8 18.7 77.2 19.1 75.9 19.1 C 75.48 19.12 75.2 19.1 75.2 19.1 L 75.2 17.4 C 75.2 17.4 75.4 17.44 75.7 17.4 Z M 87.1 4.6 C 90 4.6 91.5 6.8 91.5 9.4 C 91.5 9.64 91.4 10.2 91.4 10.2 C 91.4 10.2 84.06 10.18 84.1 10.2 C 84.2 12.3 85.7 13.6 87.5 13.6 C 89.28 13.56 90.5 12.4 90.5 12.4 L 91.3 13.8 C 91.3 13.8 89.84 15.24 87.4 15.2 C 84.2 15.2 82.1 12.9 82.1 9.9 C 82.1 6.7 84.3 4.6 87.1 4.6 Z M 89.5 8.8 C 89.4 7.1 88.4 6.2 87.1 6.2 C 85.6 6.2 84.4 7.1 84.1 8.8 C 84.1 8.8 89.5 8.8 89.5 8.8 Z M 99.5 7 C 99.5 6.7 99.3 6.5 99 6.5 C 99.02 6.54 98.2 6.5 98.2 6.5 L 98.2 4.9 C 98.2 4.9 100.02 4.88 100 4.9 C 100.9 4.9 101.3 5.3 101.3 5.9 C 101.26 6.2 101.2 6.4 101.2 6.4 L 101.3 6.4 C 101.3 6.4 102.12 4.64 104.6 4.6 C 107.4 4.6 109.1 6.8 109.1 9.9 C 109.1 13.2 107.1 15.2 104.5 15.2 C 102.26 15.24 101.4 13.6 101.4 13.6 L 101.4 13.6 C 101.4 13.6 101.4 13.98 101.4 14.5 C 101.4 14.5 101.4 19 101.4 19 L 99.5 19 C 99.5 19 99.46 6.98 99.5 7 Z M 104.2 13.6 C 105.8 13.6 107.1 12.3 107.1 10 C 107.1 7.8 105.9 6.3 104.3 6.3 C 102.8 6.3 101.3 7.4 101.3 10 C 101.3 11.8 102.3 13.6 104.2 13.6 Z M 111.5 7 C 111.5 6.7 111.4 6.5 111.1 6.5 C 111.1 6.54 110.3 6.5 110.3 6.5 L 110.3 4.9 C 110.3 4.9 112.12 4.88 112.1 4.9 C 113 4.9 113.4 5.2 113.4 6.1 C 113.4 6.1 113.4 6.7 113.4 6.7 C 113.42 7.1 113.4 7.4 113.4 7.4 C 113.4 7.4 113.42 7.4 113.4 7.4 C 113.9 5.9 115.1 4.8 116.6 4.8 C 116.88 4.76 117.1 4.8 117.1 4.8 L 117.1 6.7 C 117.1 6.7 116.88 6.66 116.6 6.7 C 115.3 6.7 114.2 7.5 113.7 9 C 113.5 9.6 113.5 10.2 113.5 10.9 C 113.48 10.86 113.5 15 113.5 15 L 111.5 15 C 111.5 15 111.54 6.98 111.5 7 Z M 119.4 0.9 L 121.2 0.9 L 121.2 2.9 L 119.4 2.9 L 119.4 0.9 Z M 119.4 7 C 119.4 6.7 119.2 6.5 118.9 6.5 C 118.94 6.54 118.1 6.5 118.1 6.5 L 118.1 4.9 C 118.1 4.9 120.02 4.88 120 4.9 C 120.9 4.9 121.3 5.3 121.3 6.2 C 121.3 6.2 121.3 12.9 121.3 12.9 C 121.3 13.2 121.5 13.3 121.7 13.3 C 121.74 13.34 122.6 13.3 122.6 13.3 L 122.6 15 C 122.6 15 120.66 15 120.7 15 C 119.8 15 119.4 14.6 119.4 13.7 C 119.4 13.7 119.4 7 119.4 7 Z M 124.8 7 C 124.8 6.7 124.6 6.5 124.3 6.5 C 124.34 6.54 123.5 6.5 123.5 6.5 L 123.5 4.9 C 123.5 4.9 125.36 4.88 125.4 4.9 C 126.2 4.9 126.7 5.2 126.7 6.1 C 126.7 6.1 126.7 6.7 126.7 6.7 C 126.66 7.1 126.6 7.4 126.6 7.4 C 126.6 7.4 126.66 7.4 126.7 7.4 C 127.1 5.9 128.3 4.8 129.9 4.8 C 130.12 4.76 130.4 4.8 130.4 4.8 L 130.4 6.7 C 130.4 6.7 130.12 6.66 129.8 6.7 C 128.6 6.7 127.4 7.5 127 9 C 126.8 9.6 126.7 10.2 126.7 10.9 C 126.72 10.86 126.7 15 126.7 15 L 124.8 15 C 124.8 15 124.78 6.98 124.8 7 Z M 136.6 4.6 C 139.6 4.6 142 6.9 142 9.9 C 142 13 139.6 15.2 136.6 15.2 C 133.6 15.2 131.1 13 131.1 9.9 C 131.1 6.9 133.6 4.6 136.6 4.6 Z M 136.6 13.6 C 138.5 13.6 140.1 12 140.1 9.9 C 140.1 7.8 138.5 6.3 136.6 6.3 C 134.7 6.3 133.1 7.8 133.1 9.9 C 133.1 12 134.7 13.6 136.6 13.6 Z M 148.1 4.6 C 150.42 4.64 151.2 6.2 151.2 6.2 L 151.2 6.2 C 151.2 6.2 151.2 5.9 151.2 5.5 C 151.2 5.5 151.2 3 151.2 3 C 151.2 2.7 151 2.5 150.8 2.5 C 150.76 2.54 149.9 2.5 149.9 2.5 L 149.9 0.9 C 149.9 0.9 151.86 0.88 151.9 0.9 C 152.8 0.9 153.1 1.3 153.1 2.2 C 153.1 2.2 153.1 12.9 153.1 12.9 C 153.1 13.2 153.3 13.3 153.6 13.3 C 153.58 13.34 154.4 13.3 154.4 13.3 L 154.4 15 C 154.4 15 152.54 15 152.5 15 C 151.7 15 151.3 14.6 151.3 13.9 C 151.3 13.62 151.3 13.4 151.3 13.4 L 151.3 13.4 C 151.3 13.4 150.44 15.24 148 15.2 C 145.2 15.2 143.5 13.1 143.5 9.9 C 143.5 6.7 145.4 4.6 148.1 4.6 Z M 151.3 9.9 C 151.3 8.1 150.3 6.3 148.4 6.3 C 146.8 6.3 145.5 7.6 145.5 9.9 C 145.5 12.1 146.7 13.6 148.3 13.6 C 149.8 13.6 151.3 12.5 151.3 9.9 Z M 155.5 13.9 C 155.5 13.9 160.7 7.48 160.7 7.5 C 161.14 6.94 161.5 6.5 161.5 6.5 L 161.5 6.5 C 161.5 6.5 161.22 6.54 160.6 6.5 C 160.6 6.5 157.8 6.5 157.8 6.5 C 157.5 6.5 157.4 6.7 157.4 7 C 157.36 6.98 157.4 7.7 157.4 7.7 L 155.6 7.7 C 155.6 7.7 155.58 6.16 155.6 6.2 C 155.6 5.3 156 4.9 156.9 4.9 C 156.86 4.88 164.1 4.9 164.1 4.9 L 164.1 6 C 164.1 6 158.9 12.42 158.9 12.4 C 158.48 12.92 158.1 13.3 158.1 13.3 L 158.1 13.4 C 158.1 13.4 158.38 13.34 159 13.3 C 159 13.3 162.3 13.3 162.3 13.3 C 162.6 13.3 162.7 13.2 162.7 12.9 C 162.72 12.9 162.7 12.2 162.7 12.2 L 164.5 12.2 C 164.5 12.2 164.48 13.72 164.5 13.7 C 164.5 14.6 164.1 15 163.2 15 C 163.2 15 155.5 15 155.5 15 L 155.5 13.9 Z M 170.6 4.6 C 173.4 4.6 174.9 6.8 174.9 9.4 C 174.92 9.64 174.9 10.2 174.9 10.2 C 174.9 10.2 167.48 10.18 167.5 10.2 C 167.6 12.3 169.2 13.6 171 13.6 C 172.7 13.56 173.9 12.4 173.9 12.4 L 174.8 13.8 C 174.8 13.8 173.26 15.24 170.9 15.2 C 167.7 15.2 165.5 12.9 165.5 9.9 C 165.5 6.7 167.7 4.6 170.6 4.6 Z M 172.9 8.8 C 172.9 7.1 171.8 6.2 170.5 6.2 C 169.1 6.2 167.9 7.1 167.6 8.8 C 167.6 8.8 172.9 8.8 172.9 8.8 Z M 177.5 7 C 177.5 6.7 177.3 6.5 177.1 6.5 C 177.06 6.54 176.2 6.5 176.2 6.5 L 176.2 4.9 C 176.2 4.9 178.1 4.88 178.1 4.9 C 179 4.9 179.4 5.3 179.4 6 C 179.4 6 179.4 6.4 179.4 6.4 C 179.38 6.7 179.3 7 179.3 7 C 179.3 7 179.38 6.96 179.4 7 C 179.8 6.1 181 4.6 183.2 4.6 C 185.6 4.6 186.7 5.9 186.7 8.5 C 186.7 8.5 186.7 12.9 186.7 12.9 C 186.7 13.2 186.8 13.3 187.1 13.3 C 187.1 13.34 187.9 13.3 187.9 13.3 L 187.9 15 C 187.9 15 186 15 186 15 C 185.1 15 184.7 14.6 184.7 13.7 C 184.7 13.7 184.7 9 184.7 9 C 184.7 7.5 184.4 6.4 182.8 6.4 C 181.3 6.4 180 7.4 179.6 8.9 C 179.5 9.3 179.4 9.8 179.4 10.3 C 179.44 10.26 179.4 15 179.4 15 L 177.5 15 C 177.5 15 177.5 6.98 177.5 7 Z M 190.5 17.5 C 191.3 17.5 191.9 17 192.3 16.1 C 192.26 16.06 192.7 15 192.7 15 C 192.7 15 189.26 6.94 189.3 6.9 C 189.1 6.6 188.9 6.5 188.6 6.5 C 188.62 6.54 188.4 6.5 188.4 6.5 L 188.4 4.9 C 188.4 4.9 189.52 4.88 189.5 4.9 C 190.3 4.9 190.6 5.1 191 5.9 C 191 5.9 193.3 11.6 193.3 11.6 C 193.46 12.12 193.6 12.8 193.6 12.8 L 193.7 12.8 C 193.7 12.8 193.8 12.12 194 11.6 C 194 11.6 196.1 5.9 196.1 5.9 C 196.4 5.1 196.8 4.9 197.6 4.9 C 197.58 4.88 198.7 4.9 198.7 4.9 L 198.7 6.5 C 198.7 6.5 198.48 6.54 198.5 6.5 C 198.2 6.5 198 6.6 197.8 6.9 C 197.8 6.9 193.8 16.8 193.8 16.8 C 193.2 18.4 192 19.2 190.6 19.2 C 189.08 19.2 188.2 18.2 188.2 18.2 C 188.2 18.2 189 16.8 189 16.8 C 189 16.8 189.6 17.5 190.5 17.5 Z M 194.2 0.9 L 196.2 0.9 L 194.3 3.4 L 192.8 3.4 L 194.2 0.9 Z M 206.1 7 C 206.1 6.7 205.9 6.5 205.7 6.5 C 205.66 6.54 204.8 6.5 204.8 6.5 L 204.8 4.9 C 204.8 4.9 206.66 4.88 206.7 4.9 C 207.6 4.9 207.9 5.3 207.9 5.9 C 207.9 6.2 207.9 6.4 207.9 6.4 L 207.9 6.4 C 207.9 6.4 208.76 4.64 211.3 4.6 C 214 4.6 215.7 6.8 215.7 9.9 C 215.7 13.2 213.8 15.2 211.1 15.2 C 208.9 15.24 208 13.6 208 13.6 L 208 13.6 C 208 13.6 208.04 13.98 208 14.5 C 208.04 14.5 208 19 208 19 L 206.1 19 C 206.1 19 206.1 6.98 206.1 7 Z M 210.8 13.6 C 212.4 13.6 213.8 12.3 213.8 10 C 213.8 7.8 212.6 6.3 210.9 6.3 C 209.4 6.3 208 7.4 208 10 C 208 11.8 209 13.6 210.8 13.6 Z M 218.2 7 C 218.2 6.7 218 6.5 217.7 6.5 C 217.74 6.54 216.9 6.5 216.9 6.5 L 216.9 4.9 C 216.9 4.9 218.76 4.88 218.8 4.9 C 219.6 4.9 220.1 5.2 220.1 6.1 C 220.1 6.1 220.1 6.7 220.1 6.7 C 220.06 7.1 220 7.4 220 7.4 C 220 7.4 220.06 7.4 220.1 7.4 C 220.5 5.9 221.7 4.8 223.3 4.8 C 223.52 4.76 223.8 4.8 223.8 4.8 L 223.8 6.7 C 223.8 6.7 223.52 6.66 223.2 6.7 C 222 6.7 220.8 7.5 220.4 9 C 220.2 9.6 220.1 10.2 220.1 10.9 C 220.12 10.86 220.1 15 220.1 15 L 218.2 15 C 218.2 15 218.18 6.98 218.2 7 Z M 230 4.6 C 233 4.6 235.4 6.9 235.4 9.9 C 235.4 13 233 15.2 230 15.2 C 227 15.2 224.5 13 224.5 9.9 C 224.5 6.9 227 4.6 230 4.6 Z M 230 13.6 C 231.9 13.6 233.5 12 233.5 9.9 C 233.5 7.8 231.9 6.3 230 6.3 C 228.1 6.3 226.5 7.8 226.5 9.9 C 226.5 12 228.1 13.6 230 13.6 Z M 241.5 4.6 C 243.82 4.64 244.6 6.2 244.6 6.2 L 244.6 6.2 C 244.6 6.2 244.6 5.9 244.6 5.5 C 244.6 5.5 244.6 3 244.6 3 C 244.6 2.7 244.4 2.5 244.2 2.5 C 244.16 2.54 243.3 2.5 243.3 2.5 L 243.3 0.9 C 243.3 0.9 245.26 0.88 245.3 0.9 C 246.2 0.9 246.5 1.3 246.5 2.2 C 246.5 2.2 246.5 12.9 246.5 12.9 C 246.5 13.2 246.7 13.3 247 13.3 C 246.98 13.34 247.8 13.3 247.8 13.3 L 247.8 15 C 247.8 15 245.94 15 245.9 15 C 245.1 15 244.7 14.6 244.7 13.9 C 244.7 13.62 244.7 13.4 244.7 13.4 L 244.7 13.4 C 244.7 13.4 243.84 15.24 241.4 15.2 C 238.6 15.2 236.9 13.1 236.9 9.9 C 236.9 6.7 238.8 4.6 241.5 4.6 Z M 244.7 9.9 C 244.7 8.1 243.7 6.3 241.8 6.3 C 240.2 6.3 238.9 7.6 238.9 9.9 C 238.9 12.1 240.1 13.6 241.7 13.6 C 243.2 13.6 244.7 12.5 244.7 9.9 Z M 249.9 7 C 249.9 6.7 249.8 6.5 249.5 6.5 C 249.48 6.54 248.7 6.5 248.7 6.5 L 248.7 4.9 C 248.7 4.9 250.56 4.88 250.6 4.9 C 251.5 4.9 251.9 5.3 251.9 6.1 C 251.9 6.1 251.9 10.9 251.9 10.9 C 251.9 12.3 252.1 13.4 253.7 13.4 C 255.8 13.4 257 11.6 257 9.6 C 257.04 9.62 257 4.9 257 4.9 L 259 4.9 C 259 4.9 258.98 12.9 259 12.9 C 259 13.2 259.1 13.3 259.4 13.3 C 259.42 13.34 260.2 13.3 260.2 13.3 L 260.2 15 C 260.2 15 258.38 15 258.4 15 C 257.5 15 257.1 14.6 257.1 13.9 C 257.1 13.9 257.1 13.5 257.1 13.5 C 257.1 13.18 257.1 12.9 257.1 12.9 C 257.1 12.9 257.08 12.92 257.1 12.9 C 256.7 13.9 255.4 15.2 253.4 15.2 C 251.1 15.2 249.9 14 249.9 11.4 C 249.9 11.4 249.9 7 249.9 7 Z M 262.3 3 C 262.3 2.7 262.1 2.5 261.9 2.5 C 261.86 2.54 261 2.5 261 2.5 L 261 0.9 C 261 0.9 262.96 0.88 263 0.9 C 263.9 0.9 264.2 1.1 264.2 2 C 264.24 2.04 264.2 8.6 264.2 8.6 C 264.2 8.6 265.14 8.6 265.1 8.6 C 265.5 8.6 265.9 8.5 266.2 8.2 C 266.2 8.16 268.5 4.9 268.5 4.9 L 270.8 4.9 C 270.8 4.9 268.02 8.64 268 8.6 C 267.56 9.26 267.3 9.4 267.3 9.4 L 267.3 9.4 C 267.3 9.4 267.6 9.56 267.9 10.2 C 267.9 10.2 269.4 12.9 269.4 12.9 C 269.6 13.3 269.8 13.3 270.3 13.3 C 270.3 13.34 270.9 13.3 270.9 13.3 L 270.9 15 C 270.9 15 269.52 15 269.5 15 C 268.6 15 268.3 14.8 267.8 14.1 C 267.8 14.1 266 10.7 266 10.7 C 265.8 10.3 265.3 10.2 265 10.2 C 265 10.24 264.2 10.2 264.2 10.2 L 264.2 15 L 262.3 15 C 262.3 15 262.3 2.98 262.3 3 Z M 273 6.4 L 271.6 6.4 L 271.6 4.9 L 273 4.9 L 273 2.1 L 274.9 2.1 L 274.9 4.9 L 277.3 4.9 L 277.3 6.4 L 274.9 6.4 C 274.9 6.4 274.9 11.08 274.9 11.1 C 274.9 13.1 276.3 13.4 277 13.4 C 277.32 13.36 277.5 13.3 277.5 13.3 L 277.5 15 C 277.5 15 277.24 15.08 276.8 15.1 C 275.5 15.1 273 14.7 273 11.3 C 272.96 11.3 273 6.4 273 6.4 Z M 285.3 6.4 L 284 6.4 L 284 4.9 L 285.3 4.9 C 285.3 4.9 285.3 4.54 285.3 4.5 C 285.3 1.2 287.8 0.8 289.1 0.8 C 289.56 0.78 289.9 0.8 289.9 0.8 L 289.9 2.5 C 289.9 2.5 289.66 2.46 289.4 2.5 C 288.6 2.5 287.2 2.7 287.2 4.6 C 287.24 4.58 287.2 4.9 287.2 4.9 L 289.6 4.9 L 289.6 6.4 L 287.2 6.4 L 287.2 15 L 285.3 15 L 285.3 6.4 Z M 295.5 4.6 C 298.3 4.6 299.8 6.8 299.8 9.4 C 299.82 9.64 299.8 10.2 299.8 10.2 C 299.8 10.2 292.38 10.18 292.4 10.2 C 292.5 12.3 294.1 13.6 295.9 13.6 C 297.6 13.56 298.8 12.4 298.8 12.4 L 299.7 13.8 C 299.7 13.8 298.16 15.24 295.8 15.2 C 292.6 15.2 290.4 12.9 290.4 9.9 C 290.4 6.7 292.6 4.6 295.5 4.6 Z M 297.8 8.8 C 297.8 7.1 296.7 6.2 295.4 6.2 C 294 6.2 292.8 7.1 292.5 8.8 C 292.5 8.8 297.8 8.8 297.8 8.8 Z M 302.5 6.4 L 301.2 6.4 L 301.2 4.9 L 302.5 4.9 L 302.5 2.1 L 304.4 2.1 L 304.4 4.9 L 306.8 4.9 L 306.8 6.4 L 304.4 6.4 C 304.4 6.4 304.42 11.08 304.4 11.1 C 304.4 13.1 305.8 13.4 306.6 13.4 C 306.84 13.36 307 13.3 307 13.3 L 307 15 C 307 15 306.76 15.08 306.3 15.1 C 305.1 15.1 302.5 14.7 302.5 11.3 C 302.48 11.3 302.5 6.4 302.5 6.4 Z M 314.5 8.7 C 314.48 8.7 314.9 8.7 314.9 8.7 C 314.9 8.7 314.92 8.6 314.9 8.6 C 314.9 6.8 314.3 6.2 312.7 6.2 C 312.2 6.2 311 6.3 311 7 C 311.02 6.96 311 7.5 311 7.5 L 309.2 7.5 C 309.2 7.5 309.2 6.54 309.2 6.5 C 309.2 4.9 311.7 4.6 312.7 4.6 C 316 4.6 316.9 6.4 316.9 8.6 C 316.9 8.6 316.9 12.9 316.9 12.9 C 316.9 13.2 317 13.3 317.3 13.3 C 317.3 13.34 318.1 13.3 318.1 13.3 L 318.1 15 C 318.1 15 316.3 15 316.3 15 C 315.4 15 315 14.6 315 13.8 C 315.04 13.5 315.1 13.2 315.1 13.2 L 315 13.2 C 315 13.2 314.24 15.24 311.8 15.2 C 310.1 15.2 308.4 14.2 308.4 12.2 C 308.4 8.9 312.8 8.7 314.5 8.7 Z M 312.2 13.7 C 313.9 13.7 314.9 12 314.9 10.5 C 314.94 10.46 314.9 10.1 314.9 10.1 C 314.9 10.1 314.44 10.12 314.4 10.1 C 313 10.1 310.3 10.2 310.3 12.1 C 310.3 12.9 311 13.7 312.2 13.7 Z M 313.6 0.9 L 315.6 0.9 L 313.7 3.4 L 312.2 3.4 L 313.6 0.9 Z M 320.2 3 C 320.2 2.7 320 2.5 319.7 2.5 C 319.74 2.54 318.9 2.5 318.9 2.5 L 318.9 0.9 C 318.9 0.9 320.84 0.88 320.8 0.9 C 321.7 0.9 322.1 1.3 322.1 2.2 C 322.1 2.2 322.1 12.9 322.1 12.9 C 322.1 13.2 322.3 13.3 322.6 13.3 C 322.56 13.34 323.4 13.3 323.4 13.3 L 323.4 15 C 323.4 15 321.46 15 321.5 15 C 320.6 15 320.2 14.6 320.2 13.7 C 320.2 13.7 320.2 3 320.2 3 Z M 325.6 7 C 325.6 6.7 325.4 6.5 325.1 6.5 C 325.14 6.54 324.3 6.5 324.3 6.5 L 324.3 4.9 C 324.3 4.9 326.18 4.88 326.2 4.9 C 327 4.9 327.5 5.3 327.5 6 C 327.5 6 327.5 6.4 327.5 6.4 C 327.46 6.7 327.4 7 327.4 7 C 327.4 7 327.46 6.96 327.5 7 C 327.9 6.1 329.1 4.6 331.3 4.6 C 333.7 4.6 334.7 5.9 334.7 8.5 C 334.7 8.5 334.7 12.9 334.7 12.9 C 334.7 13.2 334.9 13.3 335.2 13.3 C 335.18 13.34 336 13.3 336 13.3 L 336 15 C 336 15 334.08 15 334.1 15 C 333.2 15 332.8 14.6 332.8 13.7 C 332.8 13.7 332.8 9 332.8 9 C 332.8 7.5 332.5 6.4 330.9 6.4 C 329.3 6.4 328.1 7.4 327.7 8.9 C 327.6 9.3 327.5 9.8 327.5 10.3 C 327.52 10.26 327.5 15 327.5 15 L 325.6 15 C 325.6 15 325.58 6.98 325.6 7 Z M 342.2 4.6 C 345 4.6 346.6 6.8 346.6 9.4 C 346.56 9.64 346.5 10.2 346.5 10.2 C 346.5 10.2 339.12 10.18 339.1 10.2 C 339.2 12.3 340.8 13.6 342.6 13.6 C 344.34 13.56 345.6 12.4 345.6 12.4 L 346.4 13.8 C 346.4 13.8 344.9 15.24 342.5 15.2 C 339.3 15.2 337.1 12.9 337.1 9.9 C 337.1 6.7 339.3 4.6 342.2 4.6 Z M 344.6 8.8 C 344.5 7.1 343.4 6.2 342.2 6.2 C 340.7 6.2 339.5 7.1 339.2 8.8 C 339.2 8.8 344.6 8.8 344.6 8.8 Z M 349.7 0.9 L 351.4 0.9 L 351.4 2.9 L 349.7 2.9 L 349.7 0.9 Z M 347.5 17.4 C 348.2 17.4 349.6 17.2 349.6 15.2 C 349.6 15.2 349.6 7 349.6 7 C 349.6 6.7 349.5 6.5 349.2 6.5 C 349.2 6.54 348.4 6.5 348.4 6.5 L 348.4 4.9 C 348.4 4.9 350.3 4.88 350.3 4.9 C 351.2 4.9 351.6 5.3 351.6 6.2 C 351.6 6.2 351.6 15.3 351.6 15.3 C 351.6 18.7 349 19.1 347.7 19.1 C 347.3 19.12 347 19.1 347 19.1 L 347 17.4 C 347 17.4 347.22 17.44 347.5 17.4 Z M 360.2 7 C 360.2 6.7 360.1 6.5 359.8 6.5 C 359.8 6.54 359 6.5 359 6.5 L 359 4.9 C 359 4.9 360.8 4.88 360.8 4.9 C 361.7 4.9 362 5.3 362 5.9 C 362.04 6.2 362 6.4 362 6.4 L 362.1 6.4 C 362.1 6.4 362.9 4.64 365.4 4.6 C 368.1 4.6 369.9 6.8 369.9 9.9 C 369.9 13.2 367.9 15.2 365.3 15.2 C 363.04 15.24 362.2 13.6 362.2 13.6 L 362.1 13.6 C 362.1 13.6 362.18 13.98 362.2 14.5 C 362.18 14.5 362.2 19 362.2 19 L 360.2 19 C 360.2 19 360.24 6.98 360.2 7 Z M 365 13.6 C 366.6 13.6 367.9 12.3 367.9 10 C 367.9 7.8 366.7 6.3 365 6.3 C 363.5 6.3 362.1 7.4 362.1 10 C 362.1 11.8 363.1 13.6 365 13.6 Z M 376.4 4.6 C 379.3 4.6 380.8 6.8 380.8 9.4 C 380.78 9.64 380.7 10.2 380.7 10.2 C 380.7 10.2 373.34 10.18 373.3 10.2 C 373.5 12.3 375 13.6 376.8 13.6 C 378.56 13.56 379.8 12.4 379.8 12.4 L 380.6 13.8 C 380.6 13.8 379.12 15.24 376.7 15.2 C 373.5 15.2 371.3 12.9 371.3 9.9 C 371.3 6.7 373.5 4.6 376.4 4.6 Z M 378.8 8.8 C 378.7 7.1 377.7 6.2 376.4 6.2 C 374.9 6.2 373.7 7.1 373.4 8.8 C 373.4 8.8 378.8 8.8 378.8 8.8 Z M 387.8 4.6 C 389 4.6 391.5 5.1 391.5 6.9 C 391.45 6.86 391.5 7.9 391.5 7.9 L 389.7 7.9 C 389.7 7.9 389.69 7.34 389.7 7.3 C 389.7 6.6 388.6 6.3 387.8 6.3 C 385.8 6.3 384.4 7.8 384.4 9.9 C 384.4 12.2 386 13.5 387.9 13.5 C 389.81 13.52 391.1 12.1 391.1 12.1 L 391.9 13.5 C 391.9 13.5 390.45 15.24 387.8 15.2 C 384.6 15.2 382.4 13 382.4 9.9 C 382.4 7 384.6 4.6 387.8 4.6 Z M 384.8 0.9 L 386.4 0.9 L 387.5 2.5 L 387.5 2.5 L 388.5 0.9 L 390.1 0.9 L 388.4 3.4 L 386.6 3.4 L 384.8 0.9 Z M 398.1 4.6 C 401 4.6 402.5 6.8 402.5 9.4 C 402.47 9.64 402.4 10.2 402.4 10.2 C 402.4 10.2 395.03 10.18 395 10.2 C 395.2 12.3 396.7 13.6 398.5 13.6 C 400.25 13.56 401.5 12.4 401.5 12.4 L 402.3 13.8 C 402.3 13.8 400.81 15.24 398.4 15.2 C 395.2 15.2 393 12.9 393 9.9 C 393 6.7 395.2 4.6 398.1 4.6 Z M 400.5 8.8 C 400.4 7.1 399.4 6.2 398.1 6.2 C 396.6 6.2 395.4 7.1 395.1 8.8 C 395.1 8.8 400.5 8.8 400.5 8.8 Z M 405.1 7 C 405.1 6.7 404.9 6.5 404.6 6.5 C 404.61 6.54 403.8 6.5 403.8 6.5 L 403.8 4.9 C 403.8 4.9 405.65 4.88 405.7 4.9 C 406.5 4.9 406.9 5.3 406.9 6 C 406.9 6 406.9 6.4 406.9 6.4 C 406.93 6.7 406.9 7 406.9 7 C 406.9 7 406.93 6.96 406.9 7 C 407.3 6.1 408.5 4.6 410.7 4.6 C 413.1 4.6 414.2 5.9 414.2 8.5 C 414.2 8.5 414.2 12.9 414.2 12.9 C 414.2 13.2 414.4 13.3 414.7 13.3 C 414.65 13.34 415.5 13.3 415.5 13.3 L 415.5 15 C 415.5 15 413.55 15 413.6 15 C 412.7 15 412.3 14.6 412.3 13.7 C 412.3 13.7 412.3 9 412.3 9 C 412.3 7.5 412 6.4 410.4 6.4 C 408.8 6.4 407.6 7.4 407.2 8.9 C 407 9.3 407 9.8 407 10.3 C 406.99 10.26 407 15 407 15 L 405.1 15 C 405.1 15 405.05 6.98 405.1 7 Z M 421.7 4.6 C 424.5 4.6 426 6.8 426 9.4 C 426.03 9.64 426 10.2 426 10.2 C 426 10.2 418.59 10.18 418.6 10.2 C 418.7 12.3 420.3 13.6 422.1 13.6 C 423.81 13.56 425 12.4 425 12.4 L 425.9 13.8 C 425.9 13.8 424.37 15.24 422 15.2 C 418.8 15.2 416.6 12.9 416.6 9.9 C 416.6 6.7 418.8 4.6 421.7 4.6 Z M 424 8.8 C 424 7.1 422.9 6.2 421.7 6.2 C 420.2 6.2 419 7.1 418.7 8.8 C 418.7 8.8 424 8.8 424 8.8 Z M 430.6 12.9 L 428.9 17 L 427.4 17 L 428.6 12.9 L 430.6 12.9 Z M 438.8 7 C 438.8 6.7 438.6 6.5 438.4 6.5 C 438.35 6.54 437.5 6.5 437.5 6.5 L 437.5 4.9 C 437.5 4.9 439.39 4.88 439.4 4.9 C 440.3 4.9 440.7 5.3 440.7 6 C 440.7 6 440.7 6.4 440.7 6.4 C 440.67 6.7 440.6 7 440.6 7 C 440.6 7 440.67 6.96 440.7 7 C 441.1 6.1 442.3 4.6 444.5 4.6 C 446.9 4.6 448 5.9 448 8.5 C 448 8.5 448 12.9 448 12.9 C 448 13.2 448.1 13.3 448.4 13.3 C 448.39 13.34 449.2 13.3 449.2 13.3 L 449.2 15 C 449.2 15 447.29 15 447.3 15 C 446.4 15 446 14.6 446 13.7 C 446 13.7 446 9 446 9 C 446 7.5 445.7 6.4 444.1 6.4 C 442.6 6.4 441.3 7.4 440.9 8.9 C 440.8 9.3 440.7 9.8 440.7 10.3 C 440.73 10.26 440.7 15 440.7 15 L 438.8 15 C 438.8 15 438.79 6.98 438.8 7 Z M 455.4 4.6 C 458.3 4.6 459.8 6.8 459.8 9.4 C 459.77 9.64 459.7 10.2 459.7 10.2 C 459.7 10.2 452.33 10.18 452.3 10.2 C 452.5 12.3 454 13.6 455.8 13.6 C 457.55 13.56 458.8 12.4 458.8 12.4 L 459.6 13.8 C 459.6 13.8 458.11 15.24 455.7 15.2 C 452.5 15.2 450.3 12.9 450.3 9.9 C 450.3 6.7 452.5 4.6 455.4 4.6 Z M 457.8 8.8 C 457.7 7.1 456.7 6.2 455.4 6.2 C 453.9 6.2 452.7 7.1 452.4 8.8 C 452.4 8.8 457.8 8.8 457.8 8.8 Z M 462.4 7 C 462.4 6.7 462.2 6.5 461.9 6.5 C 461.91 6.54 461.1 6.5 461.1 6.5 L 461.1 4.9 C 461.1 4.9 462.95 4.88 463 4.9 C 463.8 4.9 464.2 5.3 464.2 6 C 464.2 6 464.2 6.4 464.2 6.4 C 464.23 6.7 464.2 7 464.2 7 C 464.2 7 464.25 6.96 464.3 7 C 464.7 5.8 466.1 4.6 467.7 4.6 C 469.4 4.6 470.4 5.4 470.8 6.9 C 470.8 6.9 470.8 6.9 470.8 6.9 C 471.4 5.7 472.8 4.6 474.4 4.6 C 476.7 4.6 477.7 5.9 477.7 8.5 C 477.7 8.5 477.7 12.9 477.7 12.9 C 477.7 13.2 477.9 13.3 478.2 13.3 C 478.17 13.34 479 13.3 479 13.3 L 479 15 C 479 15 477.07 15 477.1 15 C 476.2 15 475.8 14.6 475.8 13.7 C 475.8 13.7 475.8 8.9 475.8 8.9 C 475.8 7.5 475.5 6.4 474 6.4 C 472.6 6.4 471.5 7.6 471.2 9 C 471.1 9.4 471 9.9 471 10.4 C 471.01 10.38 471 15 471 15 L 469.1 15 C 469.1 15 469.07 8.94 469.1 8.9 C 469.1 7.6 468.9 6.4 467.3 6.4 C 465.9 6.4 464.8 7.6 464.4 9.1 C 464.3 9.5 464.3 9.9 464.3 10.4 C 464.29 10.38 464.3 15 464.3 15 L 462.4 15 C 462.4 15 462.35 6.98 462.4 7 Z M 486.2 8.7 C 486.23 8.7 486.7 8.7 486.7 8.7 C 486.7 8.7 486.67 8.6 486.7 8.6 C 486.7 6.8 486 6.2 484.4 6.2 C 484 6.2 482.8 6.3 482.8 7 C 482.77 6.96 482.8 7.5 482.8 7.5 L 481 7.5 C 481 7.5 480.95 6.54 481 6.5 C 481 4.9 483.5 4.6 484.5 4.6 C 487.7 4.6 488.6 6.4 488.6 8.6 C 488.6 8.6 488.6 12.9 488.6 12.9 C 488.6 13.2 488.8 13.3 489.1 13.3 C 489.05 13.34 489.9 13.3 489.9 13.3 L 489.9 15 C 489.9 15 488.05 15 488.1 15 C 487.2 15 486.8 14.6 486.8 13.8 C 486.79 13.5 486.8 13.2 486.8 13.2 L 486.8 13.2 C 486.8 13.2 485.99 15.24 483.6 15.2 C 481.8 15.2 480.1 14.2 480.1 12.2 C 480.1 8.9 484.5 8.7 486.2 8.7 Z M 484 13.7 C 485.6 13.7 486.7 12 486.7 10.5 C 486.69 10.46 486.7 10.1 486.7 10.1 C 486.7 10.1 486.19 10.12 486.2 10.1 C 484.7 10.1 482.1 10.2 482.1 12.1 C 482.1 12.9 482.7 13.7 484 13.7 Z M 485.4 0.9 L 487.3 0.9 L 485.4 3.4 L 483.9 3.4 L 485.4 0.9 Z M 502.5 8.7 C 502.49 8.7 502.9 8.7 502.9 8.7 C 502.9 8.7 502.93 8.6 502.9 8.6 C 502.9 6.8 502.3 6.2 500.7 6.2 C 500.2 6.2 499 6.3 499 7 C 499.03 6.96 499 7.5 499 7.5 L 497.2 7.5 C 497.2 7.5 497.21 6.54 497.2 6.5 C 497.2 4.9 499.7 4.6 500.7 4.6 C 504 4.6 504.9 6.4 504.9 8.6 C 504.9 8.6 504.9 12.9 504.9 12.9 C 504.9 13.2 505 13.3 505.3 13.3 C 505.31 13.34 506.1 13.3 506.1 13.3 L 506.1 15 C 506.1 15 504.31 15 504.3 15 C 503.4 15 503.1 14.6 503.1 13.8 C 503.05 13.5 503.1 13.2 503.1 13.2 L 503.1 13.2 C 503.1 13.2 502.25 15.24 499.8 15.2 C 498.1 15.2 496.4 14.2 496.4 12.2 C 496.4 8.9 500.8 8.7 502.5 8.7 Z M 500.3 13.7 C 501.9 13.7 503 12 503 10.5 C 502.95 10.46 503 10.1 503 10.1 C 503 10.1 502.45 10.12 502.5 10.1 C 501 10.1 498.4 10.2 498.4 12.1 C 498.4 12.9 499 13.7 500.3 13.7 Z M 508.2 3 C 508.2 2.7 508 2.5 507.7 2.5 C 507.71 2.54 506.9 2.5 506.9 2.5 L 506.9 0.9 C 506.9 0.9 508.81 0.88 508.8 0.9 C 509.7 0.9 510.1 1.1 510.1 2 C 510.09 2.04 510.1 8.6 510.1 8.6 C 510.1 8.6 510.99 8.6 511 8.6 C 511.4 8.6 511.8 8.5 512.1 8.2 C 512.05 8.16 514.4 4.9 514.4 4.9 L 516.6 4.9 C 516.6 4.9 513.87 8.64 513.9 8.6 C 513.41 9.26 513.1 9.4 513.1 9.4 L 513.1 9.4 C 513.1 9.4 513.45 9.56 513.8 10.2 C 513.8 10.2 515.3 12.9 515.3 12.9 C 515.5 13.3 515.7 13.3 516.2 13.3 C 516.15 13.34 516.8 13.3 516.8 13.3 L 516.8 15 C 516.8 15 515.37 15 515.4 15 C 514.4 15 514.1 14.8 513.7 14.1 C 513.7 14.1 511.9 10.7 511.9 10.7 C 511.6 10.3 511.2 10.2 510.9 10.2 C 510.85 10.24 510.1 10.2 510.1 10.2 L 510.1 15 L 508.2 15 C 508.2 15 508.15 2.98 508.2 3 Z M 518.8 6.4 L 517.5 6.4 L 517.5 4.9 L 518.9 4.9 L 518.9 2.1 L 520.8 2.1 L 520.8 4.9 L 523.2 4.9 L 523.2 6.4 L 520.8 6.4 C 520.8 6.4 520.75 11.08 520.8 11.1 C 520.8 13.1 522.2 13.4 522.9 13.4 C 523.17 13.36 523.4 13.3 523.4 13.3 L 523.4 15 C 523.4 15 523.09 15.08 522.7 15.1 C 521.4 15.1 518.8 14.7 518.8 11.3 C 518.81 11.3 518.8 6.4 518.8 6.4 Z M 525.9 7 C 525.9 6.7 525.7 6.5 525.4 6.5 C 525.43 6.54 524.6 6.5 524.6 6.5 L 524.6 4.9 C 524.6 4.9 526.53 4.88 526.5 4.9 C 527.4 4.9 527.8 5.3 527.8 6.2 C 527.8 6.2 527.8 12.9 527.8 12.9 C 527.8 13.2 528 13.3 528.3 13.3 C 528.25 13.34 529.1 13.3 529.1 13.3 L 529.1 15 C 529.1 15 527.17 15 527.2 15 C 526.3 15 525.9 14.6 525.9 13.7 C 525.9 13.7 525.9 7 525.9 7 Z M 527.4 0.9 L 529.3 0.9 L 527.4 3.4 L 525.9 3.4 L 527.4 0.9 Z M 530.6 6.9 C 530.5 6.6 530.3 6.5 530 6.5 C 529.97 6.54 529.8 6.5 529.8 6.5 L 529.8 4.9 C 529.8 4.9 530.77 4.88 530.8 4.9 C 531.7 4.9 532 5.1 532.3 5.9 C 532.3 5.9 534.5 11.7 534.5 11.7 C 534.69 12.28 534.9 13 534.9 13 L 534.9 13 C 534.9 13 535.05 12.28 535.3 11.7 C 535.3 11.7 537.4 5.9 537.4 5.9 C 537.7 5.1 538.1 4.9 539 4.9 C 538.95 4.88 539.9 4.9 539.9 4.9 L 539.9 6.5 C 539.9 6.5 539.69 6.54 539.7 6.5 C 539.4 6.5 539.2 6.6 539 6.9 C 539.03 6.94 536 15 536 15 L 533.7 15 C 533.7 15 530.59 6.94 530.6 6.9 Z M 541.9 7 C 541.9 6.7 541.7 6.5 541.4 6.5 C 541.41 6.54 540.6 6.5 540.6 6.5 L 540.6 4.9 C 540.6 4.9 542.45 4.88 542.5 4.9 C 543.3 4.9 543.7 5.3 543.7 6 C 543.7 6 543.7 6.4 543.7 6.4 C 543.73 6.7 543.7 7 543.7 7 C 543.7 7 543.73 6.96 543.7 7 C 544.1 6.1 545.3 4.6 547.5 4.6 C 549.9 4.6 551 5.9 551 8.5 C 551 8.5 551 12.9 551 12.9 C 551 13.2 551.2 13.3 551.5 13.3 C 551.45 13.34 552.3 13.3 552.3 13.3 L 552.3 15 C 552.3 15 550.35 15 550.4 15 C 549.5 15 549.1 14.6 549.1 13.7 C 549.1 13.7 549.1 9 549.1 9 C 549.1 7.5 548.8 6.4 547.2 6.4 C 545.6 6.4 544.4 7.4 544 8.9 C 543.8 9.3 543.8 9.8 543.8 10.3 C 543.79 10.26 543.8 15 543.8 15 L 541.9 15 C 541.9 15 541.85 6.98 541.9 7 Z M 558.5 4.6 C 561.3 4.6 562.8 6.8 562.8 9.4 C 562.83 9.64 562.8 10.2 562.8 10.2 C 562.8 10.2 555.39 10.18 555.4 10.2 C 555.5 12.3 557.1 13.6 558.9 13.6 C 560.61 13.56 561.8 12.4 561.8 12.4 L 562.7 13.8 C 562.7 13.8 561.17 15.24 558.8 15.2 C 555.6 15.2 553.4 12.9 553.4 9.9 C 553.4 6.7 555.6 4.6 558.5 4.6 Z M 560.8 8.8 C 560.8 7.1 559.7 6.2 558.5 6.2 C 557 6.2 555.8 7.1 555.5 8.8 C 555.5 8.8 560.8 8.8 560.8 8.8 Z M 575.3 4.6 C 576.5 4.6 578.9 5.1 578.9 6.9 C 578.89 6.86 578.9 7.9 578.9 7.9 L 577.1 7.9 C 577.1 7.9 577.13 7.34 577.1 7.3 C 577.1 6.6 576 6.3 575.3 6.3 C 573.3 6.3 571.8 7.8 571.8 9.9 C 571.8 12.2 573.5 13.5 575.4 13.5 C 577.25 13.52 578.5 12.1 578.5 12.1 L 579.3 13.5 C 579.3 13.5 577.89 15.24 575.2 15.2 C 572 15.2 569.8 13 569.8 9.9 C 569.8 7 572 4.6 575.3 4.6 Z M 572.3 0.9 L 573.9 0.9 L 574.9 2.5 L 574.9 2.5 L 576 0.9 L 577.6 0.9 L 575.8 3.4 L 574 3.4 L 572.3 0.9 Z M 581.6 0.9 L 583.3 0.9 L 583.3 2.9 L 581.6 2.9 L 581.6 0.9 Z M 581.6 7 C 581.6 6.7 581.4 6.5 581.1 6.5 C 581.11 6.54 580.3 6.5 580.3 6.5 L 580.3 4.9 C 580.3 4.9 582.19 4.88 582.2 4.9 C 583.1 4.9 583.5 5.3 583.5 6.2 C 583.5 6.2 583.5 12.9 583.5 12.9 C 583.5 13.2 583.6 13.3 583.9 13.3 C 583.91 13.34 584.7 13.3 584.7 13.3 L 584.7 15 C 584.7 15 582.83 15 582.8 15 C 581.9 15 581.6 14.6 581.6 13.7 C 581.6 13.7 581.6 7 581.6 7 Z M 592.2 12.2 C 592.2 12.2 593.37 13.66 595.2 13.7 C 596.2 13.7 597 13.2 597 12.4 C 597 10.5 591.5 10.7 591.5 7.5 C 591.5 5.5 593.2 4.6 595.2 4.6 C 596.5 4.6 598.6 5.1 598.6 6.6 C 598.55 6.6 598.6 7.6 598.6 7.6 L 596.8 7.6 C 596.8 7.6 596.81 7.06 596.8 7.1 C 596.8 6.5 595.9 6.2 595.3 6.2 C 594.2 6.2 593.4 6.6 593.4 7.4 C 593.4 9.3 598.9 8.9 598.9 12.3 C 598.9 14.1 597.3 15.2 595.2 15.2 C 592.51 15.24 591.2 13.5 591.2 13.5 L 592.2 12.2 Z M 592.5 0.9 L 594.1 0.9 L 595.1 2.5 L 595.2 2.5 L 596.2 0.9 L 597.8 0.9 L 596 3.4 L 594.3 3.4 L 592.5 0.9 Z M 601.3 3 C 601.3 2.7 601.2 2.5 600.9 2.5 C 600.89 2.54 600.1 2.5 600.1 2.5 L 600.1 0.9 C 600.1 0.9 601.99 0.88 602 0.9 C 602.9 0.9 603.3 1.1 603.3 2 C 603.27 2.04 603.3 8.6 603.3 8.6 C 603.3 8.6 604.17 8.6 604.2 8.6 C 604.5 8.6 605 8.5 605.2 8.2 C 605.23 8.16 607.6 4.9 607.6 4.9 L 609.8 4.9 C 609.8 4.9 607.05 8.64 607.1 8.6 C 606.59 9.26 606.3 9.4 606.3 9.4 L 606.3 9.4 C 606.3 9.4 606.63 9.56 607 10.2 C 607 10.2 608.5 12.9 608.5 12.9 C 608.6 13.3 608.8 13.3 609.3 13.3 C 609.33 13.34 610 13.3 610 13.3 L 610 15 C 610 15 608.55 15 608.6 15 C 607.6 15 607.3 14.8 606.9 14.1 C 606.9 14.1 605 10.7 605 10.7 C 604.8 10.3 604.4 10.2 604 10.2 C 604.03 10.24 603.3 10.2 603.3 10.2 L 603.3 15 L 601.3 15 C 601.3 15 601.33 2.98 601.3 3 Z M 616.2 4.6 C 619.2 4.6 621.7 6.9 621.7 9.9 C 621.7 13 619.2 15.2 616.2 15.2 C 613.2 15.2 610.8 13 610.8 9.9 C 610.8 6.9 613.2 4.6 616.2 4.6 Z M 616.2 13.6 C 618.1 13.6 619.7 12 619.7 9.9 C 619.7 7.8 618.1 6.3 616.2 6.3 C 614.3 6.3 612.7 7.8 612.7 9.9 C 612.7 12 614.3 13.6 616.2 13.6 Z M 627.7 4.6 C 630.03 4.64 630.8 6.2 630.8 6.2 L 630.9 6.2 C 630.9 6.2 630.81 5.9 630.8 5.5 C 630.8 5.5 630.8 3 630.8 3 C 630.8 2.7 630.7 2.5 630.4 2.5 C 630.37 2.54 629.6 2.5 629.6 2.5 L 629.6 0.9 C 629.6 0.9 631.47 0.88 631.5 0.9 C 632.4 0.9 632.8 1.3 632.8 2.2 C 632.8 2.2 632.8 12.9 632.8 12.9 C 632.8 13.2 632.9 13.3 633.2 13.3 C 633.19 13.34 634 13.3 634 13.3 L 634 15 C 634 15 632.15 15 632.2 15 C 631.3 15 630.9 14.6 630.9 13.9 C 630.91 13.62 630.9 13.4 630.9 13.4 L 630.9 13.4 C 630.9 13.4 630.05 15.24 627.6 15.2 C 624.8 15.2 623.1 13.1 623.1 9.9 C 623.1 6.7 625 4.6 627.7 4.6 Z M 630.9 9.9 C 630.9 8.1 629.9 6.3 628 6.3 C 626.4 6.3 625.1 7.6 625.1 9.9 C 625.1 12.1 626.3 13.6 628 13.6 C 629.5 13.6 630.9 12.5 630.9 9.9 Z M 636.1 3 C 636.1 2.7 636 2.5 635.7 2.5 C 635.69 2.54 634.9 2.5 634.9 2.5 L 634.9 0.9 C 634.9 0.9 636.79 0.88 636.8 0.9 C 637.7 0.9 638.1 1.3 638.1 2.2 C 638.1 2.2 638.1 12.9 638.1 12.9 C 638.1 13.2 638.2 13.3 638.5 13.3 C 638.51 13.34 639.3 13.3 639.3 13.3 L 639.3 15 C 639.3 15 637.41 15 637.4 15 C 636.5 15 636.1 14.6 636.1 13.7 C 636.1 13.7 636.1 3 636.1 3 Z M 641.7 0.9 L 643.4 0.9 L 643.4 2.9 L 641.7 2.9 L 641.7 0.9 Z M 641.6 7 C 641.6 6.7 641.5 6.5 641.2 6.5 C 641.19 6.54 640.4 6.5 640.4 6.5 L 640.4 4.9 C 640.4 4.9 642.27 4.88 642.3 4.9 C 643.2 4.9 643.6 5.3 643.6 6.2 C 643.6 6.2 643.6 12.9 643.6 12.9 C 643.6 13.2 643.7 13.3 644 13.3 C 643.99 13.34 644.8 13.3 644.8 13.3 L 644.8 15 C 644.8 15 642.91 15 642.9 15 C 642 15 641.6 14.6 641.6 13.7 C 641.6 13.7 641.6 7 641.6 7 Z M 646.3 6.9 C 646.2 6.6 646 6.5 645.7 6.5 C 645.69 6.54 645.5 6.5 645.5 6.5 L 645.5 4.9 C 645.5 4.9 646.49 4.88 646.5 4.9 C 647.4 4.9 647.7 5.1 648 5.9 C 648 5.9 650.2 11.7 650.2 11.7 C 650.41 12.28 650.6 13 650.6 13 L 650.6 13 C 650.6 13 650.77 12.28 651 11.7 C 651 11.7 653.1 5.9 653.1 5.9 C 653.4 5.1 653.8 4.9 654.7 4.9 C 654.67 4.88 655.6 4.9 655.6 4.9 L 655.6 6.5 C 655.6 6.5 655.41 6.54 655.4 6.5 C 655.1 6.5 654.9 6.6 654.8 6.9 C 654.75 6.94 651.7 15 651.7 15 L 649.4 15 C 649.4 15 646.31 6.94 646.3 6.9 Z M 661.5 4.6 C 664.3 4.6 665.8 6.8 665.8 9.4 C 665.83 9.64 665.8 10.2 665.8 10.2 C 665.8 10.2 658.39 10.18 658.4 10.2 C 658.5 12.3 660.1 13.6 661.9 13.6 C 663.61 13.56 664.8 12.4 664.8 12.4 L 665.7 13.8 C 665.7 13.8 664.17 15.24 661.8 15.2 C 658.6 15.2 656.4 12.9 656.4 9.9 C 656.4 6.7 658.6 4.6 661.5 4.6 Z M 663.8 8.8 C 663.8 7.1 662.7 6.2 661.5 6.2 C 660 6.2 658.8 7.1 658.5 8.8 C 658.5 8.8 663.8 8.8 663.8 8.8 Z M 662.1 0.9 L 664.1 0.9 L 662.2 3.4 L 660.6 3.4 L 662.1 0.9 Z " stroke="none" fill="#ee3078"/>  </g></svg>