<?xml version="1.0" standalone="no"?><!DOCTYPE svg PUBLIC "-//W3C//DTD SVG 1.1//EN" "http://www.w3.org/Graphics/SVG/1.1/DTD/svg11.dtd"><svg xmlns="http://www.w3.org/2000/svg" version="1.1" width="226.3px" height="59px" viewBox="0 -3 226.3 59" style="top:-3px">  <desc>Zlyhanie met dy: 0,26 Zlyhanie met dy a pou vate ky: 0,44 Cit cia SPC</desc>  <defs/>  <g id="Polygon80759">    <path d="M 4.6 40.6 C 5.8 40.6 7.8 41.1 7.8 42.3 C 7.78 42.35 7.8 43 7.8 43 L 7 43 C 7 43 6.98 42.57 7 42.6 C 7 41.8 5.6 41.3 4.6 41.3 C 2.8 41.3 1.3 42.8 1.3 44.9 C 1.3 46.9 2.8 48.5 4.7 48.5 C 6.42 48.49 7.4 47.3 7.4 47.3 L 7.9 47.9 C 7.9 47.9 6.76 49.28 4.7 49.3 C 2.2 49.3 0.5 47.3 0.5 44.9 C 0.5 42.4 2.2 40.6 4.6 40.6 Z M 9.4 40.7 L 10.2 40.7 L 10.2 41.7 L 9.4 41.7 L 9.4 40.7 Z M 9.4 44.1 C 9.4 43.9 9.3 43.8 9.2 43.8 C 9.17 43.81 8.7 43.8 8.7 43.8 L 8.7 43.1 C 8.7 43.1 9.52 43.1 9.5 43.1 C 10 43.1 10.2 43.3 10.2 43.8 C 10.2 43.8 10.2 48.2 10.2 48.2 C 10.2 48.3 10.3 48.4 10.5 48.4 C 10.51 48.43 11 48.4 11 48.4 L 11 49.1 C 11 49.1 10.16 49.14 10.2 49.1 C 9.6 49.1 9.4 48.9 9.4 48.4 C 9.4 48.4 9.4 44.1 9.4 44.1 Z M 12.5 43.8 L 11.7 43.8 L 11.7 43.1 L 12.5 43.1 L 12.5 41.4 L 13.3 41.4 L 13.3 43.1 L 14.8 43.1 L 14.8 43.8 L 13.3 43.8 C 13.3 43.8 13.27 46.86 13.3 46.9 C 13.3 48.3 14.2 48.5 14.6 48.5 C 14.79 48.46 14.9 48.4 14.9 48.4 L 14.9 49.2 C 14.9 49.2 14.76 49.19 14.6 49.2 C 13.9 49.2 12.5 49 12.5 46.9 C 12.46 46.94 12.5 43.8 12.5 43.8 Z M 19.5 45.4 C 19.45 45.42 19.8 45.4 19.8 45.4 C 19.8 45.4 19.79 45.35 19.8 45.3 C 19.8 44.1 19.3 43.6 18.2 43.6 C 17.9 43.6 17.1 43.7 17.1 44.2 C 17.05 44.17 17.1 44.6 17.1 44.6 L 16.3 44.6 C 16.3 44.6 16.27 43.98 16.3 44 C 16.3 43.1 17.7 43 18.2 43 C 20.1 43 20.6 44 20.6 45.3 C 20.6 45.3 20.6 48.2 20.6 48.2 C 20.6 48.3 20.7 48.4 20.9 48.4 C 20.87 48.43 21.4 48.4 21.4 48.4 L 21.4 49.1 C 21.4 49.1 20.54 49.14 20.5 49.1 C 20 49.1 19.8 48.9 19.8 48.4 C 19.8 48.2 19.8 48 19.8 48 C 19.8 48 19.8 48 19.8 48 C 19.8 48 19.3 49.3 17.8 49.3 C 16.8 49.3 15.8 48.7 15.8 47.5 C 15.8 45.5 18.4 45.4 19.5 45.4 Z M 17.9 48.6 C 19.1 48.6 19.8 47.4 19.8 46.3 C 19.79 46.34 19.8 46.1 19.8 46.1 C 19.8 46.1 19.44 46.07 19.4 46.1 C 18.5 46.1 16.6 46.1 16.6 47.4 C 16.6 48 17 48.6 17.9 48.6 Z M 18.9 40.7 L 19.8 40.7 L 18.7 42.1 L 18 42.1 L 18.9 40.7 Z M 25.3 43 C 26 43 27.4 43.2 27.4 44.2 C 27.43 44.24 27.4 44.8 27.4 44.8 L 26.7 44.8 C 26.7 44.8 26.66 44.43 26.7 44.4 C 26.7 43.9 25.8 43.7 25.3 43.7 C 24 43.7 22.9 44.7 22.9 46.1 C 22.9 47.6 24 48.5 25.3 48.5 C 26.54 48.54 27.3 47.7 27.3 47.7 L 27.6 48.3 C 27.6 48.3 26.82 49.28 25.3 49.3 C 23.5 49.3 22.1 48 22.1 46.1 C 22.1 44.3 23.5 43 25.3 43 Z M 29 40.7 L 29.8 40.7 L 29.8 41.7 L 29 41.7 L 29 40.7 Z M 29.1 44.1 C 29.1 43.9 29 43.8 28.8 43.8 C 28.8 43.81 28.3 43.8 28.3 43.8 L 28.3 43.1 C 28.3 43.1 29.15 43.1 29.1 43.1 C 29.7 43.1 29.9 43.3 29.9 43.8 C 29.9 43.8 29.9 48.2 29.9 48.2 C 29.9 48.3 30 48.4 30.1 48.4 C 30.14 48.43 30.6 48.4 30.6 48.4 L 30.6 49.1 C 30.6 49.1 29.8 49.14 29.8 49.1 C 29.3 49.1 29.1 48.9 29.1 48.4 C 29.1 48.4 29.1 44.1 29.1 44.1 Z M 35.1 45.4 C 35.15 45.42 35.5 45.4 35.5 45.4 C 35.5 45.4 35.48 45.35 35.5 45.3 C 35.5 44.1 35 43.6 33.9 43.6 C 33.6 43.6 32.7 43.7 32.7 44.2 C 32.75 44.17 32.7 44.6 32.7 44.6 L 32 44.6 C 32 44.6 31.97 43.98 32 44 C 32 43.1 33.4 43 33.9 43 C 35.8 43 36.3 44 36.3 45.3 C 36.3 45.3 36.3 48.2 36.3 48.2 C 36.3 48.3 36.4 48.4 36.6 48.4 C 36.56 48.43 37.1 48.4 37.1 48.4 L 37.1 49.1 C 37.1 49.1 36.24 49.14 36.2 49.1 C 35.7 49.1 35.5 48.9 35.5 48.4 C 35.5 48.2 35.5 48 35.5 48 C 35.5 48 35.5 48 35.5 48 C 35.5 48 35 49.3 33.5 49.3 C 32.5 49.3 31.5 48.7 31.5 47.5 C 31.5 45.5 34.1 45.4 35.1 45.4 Z M 33.6 48.6 C 34.8 48.6 35.5 47.4 35.5 46.3 C 35.48 46.34 35.5 46.1 35.5 46.1 C 35.5 46.1 35.14 46.07 35.1 46.1 C 34.2 46.1 32.3 46.1 32.3 47.4 C 32.3 48 32.7 48.6 33.6 48.6 Z M 41.5 47.5 C 41.5 47.5 42.39 48.5 43.7 48.5 C 44.7 48.5 45.4 47.9 45.4 47 C 45.4 44.9 41.2 45.3 41.2 42.7 C 41.2 41.5 42.3 40.6 43.8 40.6 C 44.6 40.6 46.1 40.9 46.1 42 C 46.09 42.01 46.1 42.6 46.1 42.6 L 45.3 42.6 C 45.3 42.6 45.3 42.21 45.3 42.2 C 45.3 41.7 44.6 41.3 43.8 41.3 C 42.7 41.3 42.1 42 42.1 42.7 C 42.1 44.7 46.3 44.2 46.3 47 C 46.3 48.2 45.3 49.3 43.7 49.3 C 41.97 49.28 41 48.1 41 48.1 L 41.5 47.5 Z M 48.1 41.4 L 47.3 41.4 L 47.3 40.7 C 47.3 40.7 50.87 40.7 50.9 40.7 C 52.4 40.7 53.5 41.7 53.5 43.2 C 53.5 44.8 52.4 45.8 50.9 45.8 C 50.87 45.83 48.9 45.8 48.9 45.8 L 48.9 49.1 L 48.1 49.1 L 48.1 41.4 Z M 50.8 45.1 C 51.9 45.1 52.6 44.4 52.6 43.2 C 52.6 42.1 51.9 41.4 50.8 41.4 C 50.77 41.45 48.9 41.4 48.9 41.4 L 48.9 45.1 C 48.9 45.1 50.76 45.08 50.8 45.1 Z M 58.4 40.6 C 59.6 40.6 61.5 41.1 61.5 42.3 C 61.52 42.35 61.5 43 61.5 43 L 60.7 43 C 60.7 43 60.73 42.57 60.7 42.6 C 60.7 41.8 59.4 41.3 58.4 41.3 C 56.5 41.3 55.1 42.8 55.1 44.9 C 55.1 46.9 56.5 48.5 58.4 48.5 C 60.17 48.49 61.2 47.3 61.2 47.3 L 61.7 47.9 C 61.7 47.9 60.5 49.28 58.4 49.3 C 55.9 49.3 54.2 47.3 54.2 44.9 C 54.2 42.4 56 40.6 58.4 40.6 Z " stroke="none" fill="#000"/>  </g>  <g id="Polygon80758">    <path d="M 0.2 28.1 C 0.2 28.1 4.03 22.65 4 22.6 C 4.38 22.17 4.7 21.9 4.7 21.9 L 4.7 21.9 C 4.7 21.9 4.43 21.88 4 21.9 C 4 21.9 2 21.9 2 21.9 C 1.8 21.9 1.7 22 1.7 22.1 C 1.7 22.14 1.7 22.7 1.7 22.7 L 0.3 22.7 C 0.3 22.7 0.28 21.37 0.3 21.4 C 0.3 20.8 0.5 20.6 1.1 20.6 C 1.09 20.55 6.6 20.6 6.6 20.6 L 6.6 21.5 C 6.6 21.5 2.8 26.97 2.8 27 C 2.45 27.46 2.1 27.7 2.1 27.7 L 2.1 27.8 C 2.1 27.8 2.4 27.74 2.8 27.7 C 2.8 27.7 5.1 27.7 5.1 27.7 C 5.3 27.7 5.4 27.6 5.4 27.5 C 5.39 27.47 5.4 27 5.4 27 L 6.8 27 C 6.8 27 6.8 28.25 6.8 28.3 C 6.8 28.8 6.6 29.1 6 29.1 C 5.99 29.07 0.2 29.1 0.2 29.1 L 0.2 28.1 Z M 8 22.1 C 8 21.9 7.9 21.8 7.8 21.8 C 7.75 21.84 7.3 21.8 7.3 21.8 L 7.3 20.6 C 7.3 20.6 8.72 20.55 8.7 20.6 C 9.3 20.6 9.5 20.8 9.5 21.4 C 9.5 21.4 9.5 27.5 9.5 27.5 C 9.5 27.7 9.6 27.8 9.8 27.8 C 9.8 27.79 10.3 27.8 10.3 27.8 L 10.3 29.1 C 10.3 29.1 8.83 29.07 8.8 29.1 C 8.3 29.1 8 28.8 8 28.3 C 8 28.3 8 22.1 8 22.1 Z M 12 30.3 C 12.4 30.3 12.8 30.1 13 29.5 C 13.03 29.53 13.2 29.1 13.2 29.1 C 13.2 29.1 11.2 24.46 11.2 24.5 C 11.1 24.3 11 24.2 10.9 24.2 C 10.87 24.24 10.7 24.2 10.7 24.2 L 10.7 23 C 10.7 23 11.7 22.95 11.7 23 C 12.1 23 12.3 23.1 12.5 23.5 C 12.5 23.5 13.7 26.6 13.7 26.6 C 13.82 26.9 13.9 27.4 13.9 27.4 L 13.9 27.4 C 13.9 27.4 14.04 26.9 14.1 26.6 C 14.1 26.6 15.2 23.5 15.2 23.5 C 15.3 23.1 15.6 23 16 23 C 16.01 22.95 17 23 17 23 L 17 24.2 C 17 24.2 16.86 24.24 16.9 24.2 C 16.7 24.2 16.6 24.3 16.5 24.5 C 16.5 24.5 14.3 30 14.3 30 C 13.9 31.1 13 31.6 12.1 31.6 C 11.15 31.59 10.6 31 10.6 31 L 11.1 29.9 C 11.1 29.9 11.52 30.31 12 30.3 Z M 18.1 22.1 C 18.1 21.9 18 21.8 17.9 21.8 C 17.87 21.84 17.4 21.8 17.4 21.8 L 17.4 20.6 C 17.4 20.6 18.84 20.55 18.8 20.6 C 19.4 20.6 19.7 20.8 19.7 21.4 C 19.7 21.4 19.7 23.5 19.7 23.5 C 19.65 23.8 19.6 24 19.6 24 C 19.6 24 19.65 24.02 19.7 24 C 19.9 23.4 20.7 22.8 21.8 22.8 C 23.1 22.8 23.9 23.5 23.9 25.1 C 23.9 25.1 23.9 27.5 23.9 27.5 C 23.9 27.7 24 27.8 24.2 27.8 C 24.15 27.79 24.6 27.8 24.6 27.8 L 24.6 29.1 C 24.6 29.1 23.18 29.07 23.2 29.1 C 22.6 29.1 22.4 28.8 22.4 28.3 C 22.4 28.3 22.4 25.4 22.4 25.4 C 22.4 24.7 22.2 24.2 21.4 24.2 C 20.6 24.2 20 24.7 19.8 25.5 C 19.7 25.7 19.7 26 19.7 26.3 C 19.65 26.26 19.7 29.1 19.7 29.1 L 18.1 29.1 C 18.1 29.1 18.13 22.11 18.1 22.1 Z M 28.9 25.2 C 28.9 25.23 29.1 25.2 29.1 25.2 C 29.1 25.2 29.09 25.18 29.1 25.2 C 29.1 24.3 28.7 24 28 24 C 27.7 24 27.1 24.1 27.1 24.4 C 27.14 24.39 27.1 24.7 27.1 24.7 L 25.7 24.7 C 25.7 24.7 25.73 24.06 25.7 24.1 C 25.7 22.9 27.3 22.8 28 22.8 C 30 22.8 30.6 23.9 30.6 25.2 C 30.6 25.2 30.6 27.5 30.6 27.5 C 30.6 27.7 30.7 27.8 30.9 27.8 C 30.87 27.79 31.4 27.8 31.4 27.8 L 31.4 29.1 C 31.4 29.1 29.99 29.07 30 29.1 C 29.4 29.1 29.2 28.8 29.2 28.4 C 29.2 28.2 29.2 28.1 29.2 28.1 C 29.22 28.13 29.2 28.1 29.2 28.1 C 29.2 28.1 28.73 29.21 27.3 29.2 C 26.3 29.2 25.3 28.5 25.3 27.3 C 25.3 25.4 27.9 25.2 28.9 25.2 Z M 27.7 28 C 28.5 28 29.1 27.2 29.1 26.4 C 29.11 26.42 29.1 26.3 29.1 26.3 C 29.1 26.3 28.85 26.27 28.8 26.3 C 28.1 26.3 26.8 26.4 26.8 27.2 C 26.8 27.6 27.1 28 27.7 28 Z M 32.6 24.5 C 32.6 24.3 32.5 24.2 32.3 24.2 C 32.32 24.24 31.8 24.2 31.8 24.2 L 31.8 23 C 31.8 23 33.24 22.95 33.2 23 C 33.8 23 34 23.2 34 23.6 C 34 23.6 34 23.8 34 23.8 C 34 23.9 34 24.1 34 24.1 C 34 24.1 34 24.1 34 24.1 C 34.3 23.6 35 22.8 36.2 22.8 C 37.6 22.8 38.3 23.5 38.3 25.1 C 38.3 25.1 38.3 27.5 38.3 27.5 C 38.3 27.7 38.4 27.8 38.6 27.8 C 38.6 27.79 39.1 27.8 39.1 27.8 L 39.1 29.1 C 39.1 29.1 37.63 29.07 37.6 29.1 C 37.1 29.1 36.8 28.8 36.8 28.3 C 36.8 28.3 36.8 25.4 36.8 25.4 C 36.8 24.7 36.6 24.2 35.9 24.2 C 35 24.2 34.4 24.7 34.2 25.4 C 34.1 25.7 34.1 26 34.1 26.3 C 34.09 26.26 34.1 29.1 34.1 29.1 L 32.6 29.1 C 32.6 29.1 32.58 24.51 32.6 24.5 Z M 40.4 20.6 L 41.7 20.6 L 41.7 22 L 40.4 22 L 40.4 20.6 Z M 40.3 24.5 C 40.3 24.3 40.2 24.2 40.1 24.2 C 40.08 24.24 39.6 24.2 39.6 24.2 L 39.6 23 C 39.6 23 41.05 22.95 41.1 23 C 41.6 23 41.9 23.2 41.9 23.8 C 41.9 23.8 41.9 27.5 41.9 27.5 C 41.9 27.7 42 27.8 42.1 27.8 C 42.12 27.79 42.6 27.8 42.6 27.8 L 42.6 29.1 C 42.6 29.1 41.15 29.07 41.1 29.1 C 40.6 29.1 40.3 28.8 40.3 28.3 C 40.3 28.3 40.3 24.5 40.3 24.5 Z M 46.4 22.8 C 48.1 22.8 49.1 24.1 49.1 25.7 C 49.09 25.89 49.1 26.3 49.1 26.3 C 49.1 26.3 44.83 26.27 44.8 26.3 C 45 27.4 45.7 27.9 46.7 27.9 C 47.65 27.92 48.4 27.2 48.4 27.2 L 49 28.3 C 49 28.3 48.08 29.21 46.6 29.2 C 44.5 29.2 43.3 27.7 43.3 26 C 43.3 24.1 44.5 22.8 46.4 22.8 Z M 47.5 25.2 C 47.5 24.5 47 24 46.4 24 C 45.6 24 45 24.4 44.9 25.2 C 44.9 25.2 47.5 25.2 47.5 25.2 Z M 53.7 24.5 C 53.7 24.3 53.7 24.2 53.5 24.2 C 53.48 24.24 53 24.2 53 24.2 L 53 23 C 53 23 54.41 22.95 54.4 23 C 54.9 23 55.2 23.2 55.2 23.6 C 55.2 23.6 55.2 23.8 55.2 23.8 C 55.2 23.9 55.2 24.1 55.2 24.1 C 55.2 24.1 55.2 24.1 55.2 24.1 C 55.5 23.5 56.2 22.8 57.2 22.8 C 58.1 22.8 58.7 23.2 59 24.1 C 59 24.1 59 24.1 59 24.1 C 59.3 23.4 60.1 22.8 61.1 22.8 C 62.4 22.8 63.1 23.5 63.1 25.1 C 63.1 25.1 63.1 27.5 63.1 27.5 C 63.1 27.7 63.2 27.8 63.4 27.8 C 63.37 27.79 63.8 27.8 63.8 27.8 L 63.8 29.1 C 63.8 29.1 62.4 29.07 62.4 29.1 C 61.8 29.1 61.6 28.8 61.6 28.3 C 61.6 28.3 61.6 25.4 61.6 25.4 C 61.6 24.7 61.5 24.2 60.7 24.2 C 60 24.2 59.4 24.8 59.3 25.6 C 59.2 25.8 59.2 26.1 59.2 26.4 C 59.18 26.38 59.2 29.1 59.2 29.1 L 57.7 29.1 C 57.7 29.1 57.66 25.42 57.7 25.4 C 57.7 24.8 57.6 24.2 56.8 24.2 C 56.1 24.2 55.5 24.8 55.4 25.6 C 55.3 25.9 55.3 26.1 55.3 26.4 C 55.26 26.38 55.3 29.1 55.3 29.1 L 53.7 29.1 C 53.7 29.1 53.75 24.51 53.7 24.5 Z M 67.6 22.8 C 69.3 22.8 70.3 24.1 70.3 25.7 C 70.27 25.89 70.2 26.3 70.2 26.3 C 70.2 26.3 66.01 26.27 66 26.3 C 66.1 27.4 66.9 27.9 67.8 27.9 C 68.83 27.92 69.6 27.2 69.6 27.2 L 70.2 28.3 C 70.2 28.3 69.26 29.21 67.7 29.2 C 65.7 29.2 64.5 27.7 64.5 26 C 64.5 24.1 65.7 22.8 67.6 22.8 Z M 68.7 25.2 C 68.7 24.5 68.2 24 67.6 24 C 66.8 24 66.2 24.4 66.1 25.2 C 66.1 25.2 68.7 25.2 68.7 25.2 Z M 71.8 24.2 L 71 24.2 L 71 23 L 71.8 23 L 71.8 21.3 L 73.3 21.3 L 73.3 23 L 74.7 23 L 74.7 24.2 L 73.3 24.2 C 73.3 24.2 73.29 26.63 73.3 26.6 C 73.3 27.6 74.1 27.8 74.5 27.8 C 74.67 27.79 74.8 27.8 74.8 27.8 L 74.8 29.1 C 74.8 29.1 74.59 29.13 74.3 29.1 C 73.5 29.1 71.8 28.9 71.8 26.8 C 71.77 26.82 71.8 24.2 71.8 24.2 Z M 78.8 22.8 C 80.7 22.8 82.2 24.1 82.2 26 C 82.2 27.9 80.7 29.2 78.8 29.2 C 77 29.2 75.5 27.9 75.5 26 C 75.5 24.1 77 22.8 78.8 22.8 Z M 78.8 27.9 C 79.8 27.9 80.7 27.1 80.7 26 C 80.7 24.9 79.8 24.1 78.8 24.1 C 77.8 24.1 77 24.9 77 26 C 77 27.1 77.8 27.9 78.8 27.9 Z M 79.2 20.6 L 80.6 20.6 L 79.4 22.2 L 78.3 22.2 L 79.2 20.6 Z M 85.7 22.8 C 87.07 22.81 87.5 23.5 87.5 23.5 L 87.5 23.5 C 87.5 23.5 87.52 23.39 87.5 23.2 C 87.5 23.2 87.5 22.1 87.5 22.1 C 87.5 21.9 87.4 21.8 87.3 21.8 C 87.25 21.84 86.8 21.8 86.8 21.8 L 86.8 20.6 C 86.8 20.6 88.22 20.55 88.2 20.6 C 88.8 20.6 89 20.8 89 21.4 C 89 21.4 89 27.5 89 27.5 C 89 27.7 89.1 27.8 89.3 27.8 C 89.3 27.79 89.8 27.8 89.8 27.8 L 89.8 29.1 C 89.8 29.1 88.37 29.07 88.4 29.1 C 87.8 29.1 87.6 28.8 87.6 28.4 C 87.6 28.3 87.6 28.2 87.6 28.2 C 87.61 28.22 87.6 28.2 87.6 28.2 C 87.6 28.2 87.08 29.21 85.7 29.2 C 84 29.2 83 27.9 83 26 C 83 24.1 84.1 22.8 85.7 22.8 Z M 87.6 26 C 87.6 25 87.1 24.1 86 24.1 C 85.2 24.1 84.5 24.8 84.5 26 C 84.5 27.2 85.1 27.9 86 27.9 C 86.8 27.9 87.6 27.4 87.6 26 Z M 91.5 30.3 C 91.9 30.3 92.3 30.1 92.5 29.5 C 92.52 29.53 92.7 29.1 92.7 29.1 C 92.7 29.1 90.68 24.46 90.7 24.5 C 90.6 24.3 90.5 24.2 90.4 24.2 C 90.36 24.24 90.2 24.2 90.2 24.2 L 90.2 23 C 90.2 23 91.19 22.95 91.2 23 C 91.6 23 91.8 23.1 92 23.5 C 92 23.5 93.2 26.6 93.2 26.6 C 93.31 26.9 93.4 27.4 93.4 27.4 L 93.4 27.4 C 93.4 27.4 93.53 26.9 93.6 26.6 C 93.6 26.6 94.7 23.5 94.7 23.5 C 94.8 23.1 95.1 23 95.5 23 C 95.49 22.95 96.5 23 96.5 23 L 96.5 24.2 C 96.5 24.2 96.35 24.24 96.3 24.2 C 96.2 24.2 96.1 24.3 96 24.5 C 96 24.5 93.8 30 93.8 30 C 93.4 31.1 92.5 31.6 91.6 31.6 C 90.64 31.59 90 31 90 31 L 90.6 29.9 C 90.6 29.9 91.01 30.31 91.5 30.3 Z M 103.9 25.2 C 103.88 25.23 104.1 25.2 104.1 25.2 C 104.1 25.2 104.08 25.18 104.1 25.2 C 104.1 24.3 103.7 24 102.9 24 C 102.7 24 102.1 24.1 102.1 24.4 C 102.13 24.39 102.1 24.7 102.1 24.7 L 100.7 24.7 C 100.7 24.7 100.72 24.06 100.7 24.1 C 100.7 22.9 102.3 22.8 103 22.8 C 105 22.8 105.6 23.9 105.6 25.2 C 105.6 25.2 105.6 27.5 105.6 27.5 C 105.6 27.7 105.7 27.8 105.9 27.8 C 105.86 27.79 106.3 27.8 106.3 27.8 L 106.3 29.1 C 106.3 29.1 104.97 29.07 105 29.1 C 104.4 29.1 104.2 28.8 104.2 28.4 C 104.2 28.2 104.2 28.1 104.2 28.1 C 104.21 28.13 104.2 28.1 104.2 28.1 C 104.2 28.1 103.72 29.21 102.3 29.2 C 101.2 29.2 100.2 28.5 100.2 27.3 C 100.2 25.4 102.9 25.2 103.9 25.2 Z M 102.7 28 C 103.5 28 104.1 27.2 104.1 26.4 C 104.1 26.42 104.1 26.3 104.1 26.3 C 104.1 26.3 103.84 26.27 103.8 26.3 C 103 26.3 101.8 26.4 101.8 27.2 C 101.8 27.6 102.1 28 102.7 28 Z M 110.7 24.5 C 110.7 24.3 110.7 24.2 110.5 24.2 C 110.48 24.24 110 24.2 110 24.2 L 110 23 C 110 23 111.36 22.95 111.4 23 C 111.9 23 112.1 23.2 112.1 23.5 C 112.1 23.7 112.1 23.8 112.1 23.8 C 112.13 23.78 112.2 23.8 112.2 23.8 C 112.2 23.8 112.67 22.81 114.1 22.8 C 115.8 22.8 116.8 24.1 116.8 26 C 116.8 28 115.6 29.2 114 29.2 C 112.8 29.21 112.3 28.4 112.3 28.4 L 112.2 28.4 C 112.2 28.4 112.26 28.63 112.3 28.9 C 112.26 28.94 112.3 31.5 112.3 31.5 L 110.7 31.5 C 110.7 31.5 110.75 24.51 110.7 24.5 Z M 113.7 27.9 C 114.6 27.9 115.3 27.2 115.3 26 C 115.3 24.9 114.7 24.1 113.8 24.1 C 113 24.1 112.2 24.7 112.2 26 C 112.2 27 112.7 27.9 113.7 27.9 Z M 120.9 22.8 C 122.8 22.8 124.3 24.1 124.3 26 C 124.3 27.9 122.8 29.2 120.9 29.2 C 119.1 29.2 117.6 27.9 117.6 26 C 117.6 24.1 119.1 22.8 120.9 22.8 Z M 120.9 27.9 C 121.9 27.9 122.8 27.1 122.8 26 C 122.8 24.9 121.9 24.1 120.9 24.1 C 120 24.1 119.1 24.9 119.1 26 C 119.1 27.1 120 27.9 120.9 27.9 Z M 125.7 24.5 C 125.7 24.3 125.6 24.2 125.4 24.2 C 125.39 24.24 124.9 24.2 124.9 24.2 L 124.9 23 C 124.9 23 126.36 22.95 126.4 23 C 126.9 23 127.2 23.2 127.2 23.8 C 127.2 23.8 127.2 26.6 127.2 26.6 C 127.2 27.3 127.4 27.8 128.1 27.8 C 129.2 27.8 129.8 26.8 129.8 25.8 C 129.83 25.76 129.8 23 129.8 23 L 131.3 23 C 131.3 23 131.35 27.52 131.3 27.5 C 131.3 27.7 131.4 27.8 131.6 27.8 C 131.61 27.79 132.1 27.8 132.1 27.8 L 132.1 29.1 C 132.1 29.1 130.69 29.07 130.7 29.1 C 130.2 29.1 129.9 28.8 129.9 28.4 C 129.9 28.4 129.9 28.2 129.9 28.2 C 129.9 28.1 129.9 27.9 129.9 27.9 C 129.9 27.9 129.9 27.9 129.9 27.9 C 129.6 28.6 128.8 29.2 127.8 29.2 C 126.5 29.2 125.7 28.6 125.7 26.9 C 125.7 26.9 125.7 24.5 125.7 24.5 Z M 132.7 28.3 C 132.7 28.3 135.48 24.81 135.5 24.8 C 135.75 24.46 136 24.2 136 24.2 L 136 24.2 C 136 24.2 135.81 24.24 135.4 24.2 C 135.4 24.2 134.3 24.2 134.3 24.2 C 134.2 24.2 134.1 24.3 134.1 24.5 C 134.06 24.51 134.1 24.9 134.1 24.9 L 132.7 24.9 C 132.7 24.9 132.68 23.77 132.7 23.8 C 132.7 23.2 132.9 23 133.5 23 C 133.5 22.95 138 23 138 23 L 138 23.8 C 138 23.8 135.17 27.22 135.2 27.2 C 134.89 27.56 134.6 27.8 134.6 27.8 L 134.6 27.8 C 134.6 27.8 134.83 27.77 135.2 27.8 C 135.2 27.8 136.6 27.8 136.6 27.8 C 136.7 27.8 136.8 27.7 136.8 27.5 C 136.84 27.51 136.8 27.2 136.8 27.2 L 138.2 27.2 C 138.2 27.2 138.21 28.25 138.2 28.3 C 138.2 28.8 138 29.1 137.4 29.1 C 137.41 29.07 132.7 29.1 132.7 29.1 L 132.7 28.3 Z M 133.7 20.6 L 134.9 20.6 L 135.5 21.5 L 135.5 21.5 L 136.1 20.6 L 137.2 20.6 L 136.1 22.2 L 134.8 22.2 L 133.7 20.6 Z M 139.5 24.5 C 139.5 24.3 139.4 24.2 139.3 24.2 C 139.26 24.24 138.8 24.2 138.8 24.2 L 138.8 23 C 138.8 23 140.23 22.95 140.2 23 C 140.8 23 141 23.2 141 23.8 C 141 23.8 141 27.5 141 27.5 C 141 27.7 141.1 27.8 141.3 27.8 C 141.31 27.79 141.8 27.8 141.8 27.8 L 141.8 29.1 C 141.8 29.1 140.34 29.07 140.3 29.1 C 139.8 29.1 139.5 28.8 139.5 28.3 C 139.5 28.3 139.5 24.5 139.5 24.5 Z M 140.5 20.6 L 142 20.6 L 140.7 22.2 L 139.6 22.2 L 140.5 20.6 Z M 142.6 24.5 C 142.6 24.3 142.5 24.2 142.3 24.2 C 142.31 24.24 142.2 24.2 142.2 24.2 L 142.2 23 C 142.2 23 143.05 22.95 143.1 23 C 143.6 23 143.8 23.1 144 23.5 C 144 23.5 145.1 26.7 145.1 26.7 C 145.23 27.1 145.3 27.6 145.3 27.6 L 145.4 27.6 C 145.4 27.6 145.45 27.1 145.6 26.7 C 145.6 26.7 146.7 23.5 146.7 23.5 C 146.9 23.1 147.1 23 147.6 23 C 147.62 22.95 148.4 23 148.4 23 L 148.4 24.2 C 148.4 24.2 148.29 24.24 148.3 24.2 C 148.1 24.2 148 24.3 148 24.5 C 147.96 24.46 146.2 29.1 146.2 29.1 L 144.4 29.1 C 144.4 29.1 142.64 24.46 142.6 24.5 Z M 152.5 25.2 C 152.54 25.23 152.7 25.2 152.7 25.2 C 152.7 25.2 152.73 25.18 152.7 25.2 C 152.7 24.3 152.4 24 151.6 24 C 151.3 24 150.8 24.1 150.8 24.4 C 150.79 24.39 150.8 24.7 150.8 24.7 L 149.4 24.7 C 149.4 24.7 149.38 24.06 149.4 24.1 C 149.4 22.9 151 22.8 151.6 22.8 C 153.7 22.8 154.3 23.9 154.3 25.2 C 154.3 25.2 154.3 27.5 154.3 27.5 C 154.3 27.7 154.4 27.8 154.5 27.8 C 154.52 27.79 155 27.8 155 27.8 L 155 29.1 C 155 29.1 153.63 29.07 153.6 29.1 C 153.1 29.1 152.9 28.8 152.9 28.4 C 152.9 28.2 152.9 28.1 152.9 28.1 C 152.87 28.13 152.8 28.1 152.8 28.1 C 152.8 28.1 152.37 29.21 151 29.2 C 149.9 29.2 148.9 28.5 148.9 27.3 C 148.9 25.4 151.5 25.2 152.5 25.2 Z M 151.4 28 C 152.2 28 152.8 27.2 152.8 26.4 C 152.76 26.42 152.8 26.3 152.8 26.3 C 152.8 26.3 152.49 26.27 152.5 26.3 C 151.7 26.3 150.4 26.4 150.4 27.2 C 150.4 27.6 150.7 28 151.4 28 Z M 156.3 24.2 L 155.5 24.2 L 155.5 23 L 156.3 23 L 156.3 21.3 L 157.8 21.3 L 157.8 23 L 159.2 23 L 159.2 24.2 L 157.8 24.2 C 157.8 24.2 157.77 26.63 157.8 26.6 C 157.8 27.6 158.6 27.8 159 27.8 C 159.15 27.79 159.3 27.8 159.3 27.8 L 159.3 29.1 C 159.3 29.1 159.07 29.13 158.8 29.1 C 157.9 29.1 156.3 28.9 156.3 26.8 C 156.25 26.82 156.3 24.2 156.3 24.2 Z M 163.1 22.8 C 164.8 22.8 165.8 24.1 165.8 25.7 C 165.78 25.89 165.7 26.3 165.7 26.3 C 165.7 26.3 161.52 26.27 161.5 26.3 C 161.6 27.4 162.4 27.9 163.4 27.9 C 164.34 27.92 165.1 27.2 165.1 27.2 L 165.7 28.3 C 165.7 28.3 164.77 29.21 163.2 29.2 C 161.2 29.2 160 27.7 160 26 C 160 24.1 161.2 22.8 163.1 22.8 Z M 164.2 25.2 C 164.2 24.5 163.7 24 163.1 24 C 162.3 24 161.7 24.4 161.6 25.2 C 161.6 25.2 164.2 25.2 164.2 25.2 Z M 167.2 22.1 C 167.2 21.9 167.1 21.8 167 21.8 C 166.95 21.84 166.5 21.8 166.5 21.8 L 166.5 20.6 C 166.5 20.6 167.93 20.55 167.9 20.6 C 168.5 20.6 168.7 20.8 168.7 21.4 C 168.7 21.4 168.7 27.5 168.7 27.5 C 168.7 27.7 168.8 27.8 169 27.8 C 169.01 27.79 169.5 27.8 169.5 27.8 L 169.5 29.1 C 169.5 29.1 168.03 29.07 168 29.1 C 167.5 29.1 167.2 28.8 167.2 28.3 C 167.2 28.3 167.2 22.1 167.2 22.1 Z M 170.5 20.6 C 170.6 20.8 170.6 21 170.6 21.2 C 170.6 21.5 170.5 21.9 170.3 22.3 C 170.3 22.3 169.3 22.3 169.3 22.3 C 169.4 21.9 169.5 21.6 169.5 21.3 C 169.5 21.1 169.5 20.8 169.4 20.6 C 169.4 20.6 170.5 20.6 170.5 20.6 Z M 171.9 22.1 C 171.9 21.9 171.8 21.8 171.6 21.8 C 171.63 21.84 171.2 21.8 171.2 21.8 L 171.2 20.6 C 171.2 20.6 172.61 20.55 172.6 20.6 C 173.2 20.6 173.4 20.7 173.4 21.2 C 173.42 21.25 173.4 25.1 173.4 25.1 C 173.4 25.1 173.88 25.11 173.9 25.1 C 174.1 25.1 174.3 25.1 174.5 24.9 C 174.45 24.88 175.7 23 175.7 23 L 177.4 23 C 177.4 23 175.85 25.25 175.8 25.3 C 175.58 25.64 175.4 25.7 175.4 25.7 L 175.4 25.8 C 175.4 25.8 175.61 25.84 175.8 26.2 C 175.8 26.2 176.5 27.6 176.5 27.6 C 176.6 27.7 176.7 27.8 177 27.8 C 177.02 27.79 177.4 27.8 177.4 27.8 L 177.4 29.1 C 177.4 29.1 176.3 29.07 176.3 29.1 C 175.8 29.1 175.6 29 175.3 28.5 C 175.3 28.5 174.3 26.6 174.3 26.6 C 174.2 26.4 173.9 26.4 173.8 26.4 C 173.76 26.39 173.4 26.4 173.4 26.4 L 173.4 29.1 L 171.9 29.1 C 171.9 29.1 171.9 22.11 171.9 22.1 Z M 178.9 30.3 C 179.4 30.3 179.7 30.1 179.9 29.5 C 179.94 29.53 180.1 29.1 180.1 29.1 C 180.1 29.1 178.1 24.46 178.1 24.5 C 178 24.3 177.9 24.2 177.8 24.2 C 177.78 24.24 177.6 24.2 177.6 24.2 L 177.6 23 C 177.6 23 178.61 22.95 178.6 23 C 179 23 179.3 23.1 179.4 23.5 C 179.4 23.5 180.6 26.6 180.6 26.6 C 180.73 26.9 180.8 27.4 180.8 27.4 L 180.9 27.4 C 180.9 27.4 180.95 26.9 181.1 26.6 C 181.1 26.6 182.1 23.5 182.1 23.5 C 182.2 23.1 182.5 23 182.9 23 C 182.91 22.95 183.9 23 183.9 23 L 183.9 24.2 C 183.9 24.2 183.77 24.24 183.8 24.2 C 183.6 24.2 183.5 24.3 183.4 24.5 C 183.4 24.5 181.2 30 181.2 30 C 180.8 31.1 179.9 31.6 179 31.6 C 178.05 31.59 177.5 31 177.5 31 L 178.1 29.9 C 178.1 29.9 178.43 30.31 178.9 30.3 Z M 185.2 23 L 186.7 23 L 186.7 24.5 L 185.2 24.5 L 185.2 23 Z M 185.2 27.5 L 186.7 27.5 L 186.7 29.1 L 185.2 29.1 L 185.2 27.5 Z M 191.5 24.8 C 191.5 22.3 192.3 20.4 194.6 20.4 C 196.9 20.4 197.7 22.3 197.7 24.8 C 197.7 27.2 196.9 29.2 194.6 29.2 C 192.3 29.2 191.5 27.2 191.5 24.8 Z M 196.1 24.8 C 196.1 23.1 195.8 21.8 194.6 21.8 C 193.4 21.8 193.1 23.1 193.1 24.8 C 193.1 26.5 193.4 27.8 194.6 27.8 C 195.8 27.8 196.1 26.5 196.1 24.8 Z M 200.3 27.5 L 199.2 30.3 L 198.1 30.3 L 198.9 27.5 L 200.3 27.5 Z M 201.1 25.9 L 204.6 20.6 L 206.5 20.6 L 206.5 25.6 L 207.8 25.6 L 207.8 26.9 L 206.5 26.9 L 206.5 29.1 L 204.9 29.1 L 204.9 26.9 L 201.1 26.9 L 201.1 25.9 Z M 204.9 23.2 C 204.91 22.8 205 22.3 205 22.3 L 204.9 22.3 C 204.9 22.3 204.71 22.76 204.5 23.1 C 204.5 23.1 203.2 25 203.2 25 C 202.93 25.36 202.7 25.6 202.7 25.6 L 202.7 25.6 C 202.7 25.6 203.07 25.59 203.5 25.6 C 203.47 25.59 204.9 25.6 204.9 25.6 C 204.9 25.6 204.91 23.22 204.9 23.2 Z M 208.5 25.9 L 212 20.6 L 213.9 20.6 L 213.9 25.6 L 215.2 25.6 L 215.2 26.9 L 213.9 26.9 L 213.9 29.1 L 212.3 29.1 L 212.3 26.9 L 208.5 26.9 L 208.5 25.9 Z M 212.3 23.2 C 212.34 22.8 212.4 22.3 212.4 22.3 L 212.4 22.3 C 212.4 22.3 212.13 22.76 211.9 23.1 C 211.9 23.1 210.6 25 210.6 25 C 210.36 25.36 210.2 25.6 210.2 25.6 L 210.2 25.6 C 210.2 25.6 210.5 25.59 210.9 25.6 C 210.9 25.59 212.3 25.6 212.3 25.6 C 212.3 25.6 212.34 23.22 212.3 23.2 Z " stroke="none" fill="#000"/>  </g>  <g id="Polygon80757">    <path d="M 0.2 8 C 0.2 8 4.03 2.58 4 2.6 C 4.38 2.1 4.7 1.8 4.7 1.8 L 4.7 1.8 C 4.7 1.8 4.43 1.81 4 1.8 C 4 1.8 2 1.8 2 1.8 C 1.8 1.8 1.7 1.9 1.7 2.1 C 1.7 2.08 1.7 2.6 1.7 2.6 L 0.3 2.6 C 0.3 2.6 0.28 1.3 0.3 1.3 C 0.3 0.7 0.5 0.5 1.1 0.5 C 1.09 0.48 6.6 0.5 6.6 0.5 L 6.6 1.5 C 6.6 1.5 2.8 6.9 2.8 6.9 C 2.45 7.39 2.1 7.7 2.1 7.7 L 2.1 7.7 C 2.1 7.7 2.4 7.67 2.8 7.7 C 2.8 7.7 5.1 7.7 5.1 7.7 C 5.3 7.7 5.4 7.6 5.4 7.4 C 5.39 7.4 5.4 6.9 5.4 6.9 L 6.8 6.9 C 6.8 6.9 6.8 8.18 6.8 8.2 C 6.8 8.8 6.6 9 6 9 C 5.99 9 0.2 9 0.2 9 L 0.2 8 Z M 8 2 C 8 1.9 7.9 1.8 7.8 1.8 C 7.75 1.78 7.3 1.8 7.3 1.8 L 7.3 0.5 C 7.3 0.5 8.72 0.48 8.7 0.5 C 9.3 0.5 9.5 0.7 9.5 1.3 C 9.5 1.3 9.5 7.5 9.5 7.5 C 9.5 7.6 9.6 7.7 9.8 7.7 C 9.8 7.72 10.3 7.7 10.3 7.7 L 10.3 9 C 10.3 9 8.83 9 8.8 9 C 8.3 9 8 8.8 8 8.2 C 8 8.2 8 2 8 2 Z M 12 10.2 C 12.4 10.2 12.8 10 13 9.5 C 13.03 9.46 13.2 9 13.2 9 C 13.2 9 11.2 4.39 11.2 4.4 C 11.1 4.2 11 4.2 10.9 4.2 C 10.87 4.18 10.7 4.2 10.7 4.2 L 10.7 2.9 C 10.7 2.9 11.7 2.88 11.7 2.9 C 12.1 2.9 12.3 3 12.5 3.5 C 12.5 3.5 13.7 6.5 13.7 6.5 C 13.82 6.83 13.9 7.3 13.9 7.3 L 13.9 7.3 C 13.9 7.3 14.04 6.83 14.1 6.5 C 14.1 6.5 15.2 3.5 15.2 3.5 C 15.3 3 15.6 2.9 16 2.9 C 16.01 2.88 17 2.9 17 2.9 L 17 4.2 C 17 4.2 16.86 4.18 16.9 4.2 C 16.7 4.2 16.6 4.2 16.5 4.4 C 16.5 4.4 14.3 9.9 14.3 9.9 C 13.9 11 13 11.5 12.1 11.5 C 11.15 11.52 10.6 10.9 10.6 10.9 L 11.1 9.8 C 11.1 9.8 11.52 10.24 12 10.2 Z M 18.1 2 C 18.1 1.9 18 1.8 17.9 1.8 C 17.87 1.78 17.4 1.8 17.4 1.8 L 17.4 0.5 C 17.4 0.5 18.84 0.48 18.8 0.5 C 19.4 0.5 19.7 0.7 19.7 1.3 C 19.7 1.3 19.7 3.4 19.7 3.4 C 19.65 3.73 19.6 3.9 19.6 3.9 C 19.6 3.9 19.65 3.95 19.7 3.9 C 19.9 3.4 20.7 2.7 21.8 2.7 C 23.1 2.7 23.9 3.4 23.9 5.1 C 23.9 5.1 23.9 7.5 23.9 7.5 C 23.9 7.6 24 7.7 24.2 7.7 C 24.15 7.72 24.6 7.7 24.6 7.7 L 24.6 9 C 24.6 9 23.18 9 23.2 9 C 22.6 9 22.4 8.8 22.4 8.2 C 22.4 8.2 22.4 5.4 22.4 5.4 C 22.4 4.6 22.2 4.1 21.4 4.1 C 20.6 4.1 20 4.7 19.8 5.4 C 19.7 5.6 19.7 5.9 19.7 6.2 C 19.65 6.19 19.7 9 19.7 9 L 18.1 9 C 18.1 9 18.13 2.04 18.1 2 Z M 28.9 5.2 C 28.9 5.16 29.1 5.2 29.1 5.2 C 29.1 5.2 29.09 5.11 29.1 5.1 C 29.1 4.2 28.7 3.9 28 3.9 C 27.7 3.9 27.1 4 27.1 4.3 C 27.14 4.32 27.1 4.6 27.1 4.6 L 25.7 4.6 C 25.7 4.6 25.73 4 25.7 4 C 25.7 2.9 27.3 2.7 28 2.7 C 30 2.7 30.6 3.8 30.6 5.2 C 30.6 5.2 30.6 7.5 30.6 7.5 C 30.6 7.6 30.7 7.7 30.9 7.7 C 30.87 7.72 31.4 7.7 31.4 7.7 L 31.4 9 C 31.4 9 29.99 9 30 9 C 29.4 9 29.2 8.7 29.2 8.3 C 29.2 8.2 29.2 8.1 29.2 8.1 C 29.22 8.06 29.2 8.1 29.2 8.1 C 29.2 8.1 28.73 9.14 27.3 9.1 C 26.3 9.1 25.3 8.5 25.3 7.2 C 25.3 5.3 27.9 5.2 28.9 5.2 Z M 27.7 8 C 28.5 8 29.1 7.1 29.1 6.3 C 29.11 6.35 29.1 6.2 29.1 6.2 C 29.1 6.2 28.85 6.2 28.8 6.2 C 28.1 6.2 26.8 6.3 26.8 7.2 C 26.8 7.6 27.1 8 27.7 8 Z M 32.6 4.4 C 32.6 4.3 32.5 4.2 32.3 4.2 C 32.32 4.18 31.8 4.2 31.8 4.2 L 31.8 2.9 C 31.8 2.9 33.24 2.88 33.2 2.9 C 33.8 2.9 34 3.1 34 3.6 C 34 3.6 34 3.7 34 3.7 C 34 3.9 34 4 34 4 C 34 4 34 4 34 4 C 34.3 3.5 35 2.7 36.2 2.7 C 37.6 2.7 38.3 3.4 38.3 5.1 C 38.3 5.1 38.3 7.5 38.3 7.5 C 38.3 7.6 38.4 7.7 38.6 7.7 C 38.6 7.72 39.1 7.7 39.1 7.7 L 39.1 9 C 39.1 9 37.63 9 37.6 9 C 37.1 9 36.8 8.8 36.8 8.2 C 36.8 8.2 36.8 5.4 36.8 5.4 C 36.8 4.6 36.6 4.1 35.9 4.1 C 35 4.1 34.4 4.6 34.2 5.4 C 34.1 5.6 34.1 5.9 34.1 6.2 C 34.09 6.19 34.1 9 34.1 9 L 32.6 9 C 32.6 9 32.58 4.44 32.6 4.4 Z M 40.4 0.5 L 41.7 0.5 L 41.7 1.9 L 40.4 1.9 L 40.4 0.5 Z M 40.3 4.4 C 40.3 4.3 40.2 4.2 40.1 4.2 C 40.08 4.18 39.6 4.2 39.6 4.2 L 39.6 2.9 C 39.6 2.9 41.05 2.88 41.1 2.9 C 41.6 2.9 41.9 3.1 41.9 3.7 C 41.9 3.7 41.9 7.5 41.9 7.5 C 41.9 7.6 42 7.7 42.1 7.7 C 42.12 7.72 42.6 7.7 42.6 7.7 L 42.6 9 C 42.6 9 41.15 9 41.1 9 C 40.6 9 40.3 8.8 40.3 8.2 C 40.3 8.2 40.3 4.4 40.3 4.4 Z M 46.4 2.7 C 48.1 2.7 49.1 4 49.1 5.6 C 49.09 5.82 49.1 6.2 49.1 6.2 C 49.1 6.2 44.83 6.2 44.8 6.2 C 45 7.3 45.7 7.8 46.7 7.8 C 47.65 7.85 48.4 7.2 48.4 7.2 L 49 8.2 C 49 8.2 48.08 9.14 46.6 9.1 C 44.5 9.1 43.3 7.7 43.3 5.9 C 43.3 4.1 44.5 2.7 46.4 2.7 Z M 47.5 5.1 C 47.5 4.4 47 3.9 46.4 3.9 C 45.6 3.9 45 4.4 44.9 5.1 C 44.9 5.1 47.5 5.1 47.5 5.1 Z M 53.7 4.4 C 53.7 4.3 53.7 4.2 53.5 4.2 C 53.48 4.18 53 4.2 53 4.2 L 53 2.9 C 53 2.9 54.41 2.88 54.4 2.9 C 54.9 2.9 55.2 3.1 55.2 3.6 C 55.2 3.6 55.2 3.7 55.2 3.7 C 55.2 3.9 55.2 4 55.2 4 C 55.2 4 55.2 4 55.2 4 C 55.5 3.4 56.2 2.7 57.2 2.7 C 58.1 2.7 58.7 3.2 59 4 C 59 4 59 4 59 4 C 59.3 3.3 60.1 2.7 61.1 2.7 C 62.4 2.7 63.1 3.5 63.1 5.1 C 63.1 5.1 63.1 7.5 63.1 7.5 C 63.1 7.6 63.2 7.7 63.4 7.7 C 63.37 7.72 63.8 7.7 63.8 7.7 L 63.8 9 C 63.8 9 62.4 9 62.4 9 C 61.8 9 61.6 8.8 61.6 8.2 C 61.6 8.2 61.6 5.4 61.6 5.4 C 61.6 4.7 61.5 4.1 60.7 4.1 C 60 4.1 59.4 4.8 59.3 5.5 C 59.2 5.8 59.2 6 59.2 6.3 C 59.18 6.31 59.2 9 59.2 9 L 57.7 9 C 57.7 9 57.66 5.35 57.7 5.4 C 57.7 4.7 57.6 4.1 56.8 4.1 C 56.1 4.1 55.5 4.8 55.4 5.5 C 55.3 5.8 55.3 6 55.3 6.3 C 55.26 6.31 55.3 9 55.3 9 L 53.7 9 C 53.7 9 53.75 4.44 53.7 4.4 Z M 67.6 2.7 C 69.3 2.7 70.3 4 70.3 5.6 C 70.27 5.82 70.2 6.2 70.2 6.2 C 70.2 6.2 66.01 6.2 66 6.2 C 66.1 7.3 66.9 7.8 67.8 7.8 C 68.83 7.85 69.6 7.2 69.6 7.2 L 70.2 8.2 C 70.2 8.2 69.26 9.14 67.7 9.1 C 65.7 9.1 64.5 7.7 64.5 5.9 C 64.5 4.1 65.7 2.7 67.6 2.7 Z M 68.7 5.1 C 68.7 4.4 68.2 3.9 67.6 3.9 C 66.8 3.9 66.2 4.4 66.1 5.1 C 66.1 5.1 68.7 5.1 68.7 5.1 Z M 71.8 4.1 L 71 4.1 L 71 2.9 L 71.8 2.9 L 71.8 1.2 L 73.3 1.2 L 73.3 2.9 L 74.7 2.9 L 74.7 4.1 L 73.3 4.1 C 73.3 4.1 73.29 6.56 73.3 6.6 C 73.3 7.6 74.1 7.7 74.5 7.7 C 74.67 7.72 74.8 7.7 74.8 7.7 L 74.8 9 C 74.8 9 74.59 9.06 74.3 9.1 C 73.5 9.1 71.8 8.8 71.8 6.8 C 71.77 6.76 71.8 4.1 71.8 4.1 Z M 78.8 2.7 C 80.7 2.7 82.2 4.1 82.2 5.9 C 82.2 7.8 80.7 9.1 78.8 9.1 C 77 9.1 75.5 7.8 75.5 5.9 C 75.5 4.1 77 2.7 78.8 2.7 Z M 78.8 7.8 C 79.8 7.8 80.7 7.1 80.7 5.9 C 80.7 4.8 79.8 4 78.8 4 C 77.8 4 77 4.8 77 5.9 C 77 7.1 77.8 7.8 78.8 7.8 Z M 79.2 0.5 L 80.6 0.5 L 79.4 2.1 L 78.3 2.1 L 79.2 0.5 Z M 85.7 2.7 C 87.07 2.74 87.5 3.5 87.5 3.5 L 87.5 3.5 C 87.5 3.5 87.52 3.32 87.5 3.1 C 87.5 3.1 87.5 2 87.5 2 C 87.5 1.9 87.4 1.8 87.3 1.8 C 87.25 1.78 86.8 1.8 86.8 1.8 L 86.8 0.5 C 86.8 0.5 88.22 0.48 88.2 0.5 C 88.8 0.5 89 0.7 89 1.3 C 89 1.3 89 7.5 89 7.5 C 89 7.6 89.1 7.7 89.3 7.7 C 89.3 7.72 89.8 7.7 89.8 7.7 L 89.8 9 C 89.8 9 88.37 9 88.4 9 C 87.8 9 87.6 8.7 87.6 8.4 C 87.6 8.2 87.6 8.1 87.6 8.1 C 87.61 8.15 87.6 8.1 87.6 8.1 C 87.6 8.1 87.08 9.14 85.7 9.1 C 84 9.1 83 7.8 83 5.9 C 83 4 84.1 2.7 85.7 2.7 Z M 87.6 5.9 C 87.6 5 87.1 4 86 4 C 85.2 4 84.5 4.7 84.5 5.9 C 84.5 7.1 85.1 7.9 86 7.9 C 86.8 7.9 87.6 7.3 87.6 5.9 Z M 91.5 10.2 C 91.9 10.2 92.3 10 92.5 9.5 C 92.52 9.46 92.7 9 92.7 9 C 92.7 9 90.68 4.39 90.7 4.4 C 90.6 4.2 90.5 4.2 90.4 4.2 C 90.36 4.18 90.2 4.2 90.2 4.2 L 90.2 2.9 C 90.2 2.9 91.19 2.88 91.2 2.9 C 91.6 2.9 91.8 3 92 3.5 C 92 3.5 93.2 6.5 93.2 6.5 C 93.31 6.83 93.4 7.3 93.4 7.3 L 93.4 7.3 C 93.4 7.3 93.53 6.83 93.6 6.5 C 93.6 6.5 94.7 3.5 94.7 3.5 C 94.8 3 95.1 2.9 95.5 2.9 C 95.49 2.88 96.5 2.9 96.5 2.9 L 96.5 4.2 C 96.5 4.2 96.35 4.18 96.3 4.2 C 96.2 4.2 96.1 4.2 96 4.4 C 96 4.4 93.8 9.9 93.8 9.9 C 93.4 11 92.5 11.5 91.6 11.5 C 90.64 11.52 90 10.9 90 10.9 L 90.6 9.8 C 90.6 9.8 91.01 10.24 91.5 10.2 Z M 97.8 2.9 L 99.2 2.9 L 99.2 4.4 L 97.8 4.4 L 97.8 2.9 Z M 97.8 7.5 L 99.2 7.5 L 99.2 9 L 97.8 9 L 97.8 7.5 Z M 104.1 4.7 C 104.1 2.3 104.9 0.3 107.2 0.3 C 109.5 0.3 110.3 2.3 110.3 4.7 C 110.3 7.2 109.5 9.1 107.2 9.1 C 104.9 9.1 104.1 7.2 104.1 4.7 Z M 108.7 4.7 C 108.7 3.1 108.4 1.8 107.2 1.8 C 106 1.8 105.7 3.1 105.7 4.7 C 105.7 6.4 106 7.7 107.2 7.7 C 108.4 7.7 108.7 6.4 108.7 4.7 Z M 112.9 7.5 L 111.8 10.3 L 110.7 10.3 L 111.5 7.5 L 112.9 7.5 Z M 118.1 2.9 C 118.1 2.2 117.6 1.8 116.9 1.8 C 116.2 1.8 115.8 2.1 115.8 2.4 C 115.77 2.45 115.8 2.8 115.8 2.8 L 114.4 2.8 C 114.4 2.8 114.36 1.98 114.4 2 C 114.4 0.9 115.8 0.3 117 0.3 C 118.4 0.3 119.7 1.3 119.7 2.9 C 119.7 5.7 115.6 5.9 115.6 7.5 C 115.6 7.6 115.7 7.7 115.9 7.7 C 115.9 7.7 118.4 7.7 118.4 7.7 C 118.6 7.7 118.7 7.6 118.7 7.4 C 118.68 7.4 118.7 6.9 118.7 6.9 L 120.1 6.9 C 120.1 6.9 120.09 8.18 120.1 8.2 C 120.1 8.8 119.9 9 119.3 9 C 119.3 9 114.8 9 114.8 9 C 114.1 9 114 8.7 114 7.9 C 114 4.8 118.1 5 118.1 2.9 Z M 120.9 5.2 C 120.9 2.9 122.2 0.3 124.9 0.3 C 125.94 0.34 126.6 0.7 126.6 0.7 L 126.2 2 C 126.2 2 125.6 1.76 125 1.8 C 123.6 1.8 122.9 2.9 122.7 4.1 C 122.7 4.1 122.7 4.1 122.7 4.1 C 123 3.7 123.7 3.5 124.3 3.5 C 126 3.5 127 4.8 127 6.3 C 127 7.9 125.9 9.1 124.2 9.1 C 122.5 9.1 120.9 7.7 120.9 5.2 Z M 124.2 7.7 C 125 7.7 125.5 7.1 125.5 6.3 C 125.5 5.4 125 4.7 123.9 4.7 C 123.2 4.7 122.6 5.1 122.6 5.7 C 122.6 6.7 123.3 7.7 124.2 7.7 Z " stroke="none" fill="#000"/>  </g></svg>