<?xml version="1.0" standalone="no"?><!DOCTYPE svg PUBLIC "-//W3C//DTD SVG 1.1//EN" "http://www.w3.org/Graphics/SVG/1.1/DTD/svg11.dtd"><svg xmlns="http://www.w3.org/2000/svg" version="1.1" width="526.1px" height="43.5px" viewBox="0 -5 526.1 43.5" style="top:-5px">  <desc>Prsia</desc>  <defs/>  <g id="Polygon75113">    <path d="M 2.3 18.8 L 13.3 14 L 13.3 13.9 L 2.3 9.2 L 2.3 7.2 L 15.9 13.2 L 15.9 14.7 L 2.3 20.8 L 2.3 18.8 Z M 29.5 3.3 L 27.6 3.3 L 27.6 1.4 C 27.6 1.4 36.51 1.41 36.5 1.4 C 40.3 1.4 43 3.9 43 7.8 C 43 11.7 40.3 14.2 36.5 14.2 C 36.51 14.22 31.6 14.2 31.6 14.2 L 31.6 22.5 L 29.5 22.5 L 29.5 3.3 Z M 36.2 12.4 C 39 12.4 40.9 10.7 40.9 7.8 C 40.9 4.9 39 3.3 36.3 3.3 C 36.27 3.27 31.6 3.3 31.6 3.3 L 31.6 12.4 C 31.6 12.4 36.24 12.36 36.2 12.4 Z M 46.3 9.8 C 46.3 9.4 46.1 9.2 45.7 9.2 C 45.66 9.18 44.4 9.2 44.4 9.2 L 44.4 7.4 C 44.4 7.4 46.5 7.41 46.5 7.4 C 47.8 7.4 48.3 7.9 48.3 9.1 C 48.3 9.1 48.3 10.1 48.3 10.1 C 48.33 10.77 48.3 11.3 48.3 11.3 C 48.3 11.3 48.33 11.28 48.3 11.3 C 49 9 50.7 7.3 53.1 7.3 C 53.52 7.26 53.9 7.4 53.9 7.4 L 53.9 9.4 C 53.9 9.4 53.55 9.3 53.2 9.3 C 51 9.3 49.4 11 48.8 13.2 C 48.5 14.2 48.4 15.2 48.4 16.1 C 48.36 16.14 48.4 22.5 48.4 22.5 L 46.3 22.5 C 46.3 22.5 46.32 9.84 46.3 9.8 Z M 56.6 18.8 C 56.6 18.8 58.29 21.09 61.3 21.1 C 62.9 21.1 64.4 20.3 64.4 18.7 C 64.4 15.4 56 16 56 11.1 C 56 8.4 58.3 7.1 61.3 7.1 C 62.9 7.1 65.9 7.7 65.9 9.8 C 65.94 9.78 65.9 11.1 65.9 11.1 L 64 11.1 C 64 11.1 64.02 10.35 64 10.4 C 64 9.2 62.4 8.8 61.4 8.8 C 59.3 8.8 58 9.5 58 11 C 58 14.4 66.5 13.6 66.5 18.6 C 66.5 21.1 64.2 22.9 61.2 22.9 C 57.3 22.86 55.4 20.2 55.4 20.2 L 56.6 18.8 Z M 70.5 1.4 L 72.4 1.4 L 72.4 4 L 70.5 4 L 70.5 1.4 Z M 70.5 9.8 C 70.5 9.4 70.3 9.2 69.9 9.2 C 69.87 9.18 68.6 9.2 68.6 9.2 L 68.6 7.4 C 68.6 7.4 70.74 7.41 70.7 7.4 C 72 7.4 72.6 8 72.6 9.2 C 72.6 9.2 72.6 20.1 72.6 20.1 C 72.6 20.5 72.8 20.7 73.2 20.7 C 73.23 20.73 74.5 20.7 74.5 20.7 L 74.5 22.5 C 74.5 22.5 72.36 22.5 72.4 22.5 C 71.1 22.5 70.5 22 70.5 20.7 C 70.5 20.7 70.5 9.8 70.5 9.8 Z M 85.7 13.2 C 85.74 13.2 86.6 13.2 86.6 13.2 C 86.6 13.2 86.58 13.02 86.6 13 C 86.6 9.9 85.4 8.8 82.7 8.8 C 81.9 8.8 79.7 9 79.7 10.1 C 79.74 10.08 79.7 11 79.7 11 L 77.8 11 C 77.8 11 77.79 9.6 77.8 9.6 C 77.8 7.5 81.4 7.1 82.7 7.1 C 87.5 7.1 88.6 9.6 88.6 12.8 C 88.6 12.8 88.6 20.1 88.6 20.1 C 88.6 20.5 88.9 20.7 89.3 20.7 C 89.28 20.73 90.5 20.7 90.5 20.7 L 90.5 22.5 C 90.5 22.5 88.47 22.5 88.5 22.5 C 87.2 22.5 86.7 21.9 86.7 20.7 C 86.67 20.04 86.7 19.6 86.7 19.6 C 86.7 19.6 86.64 19.59 86.6 19.6 C 86.7 19.6 85.4 22.9 81.6 22.9 C 79.1 22.9 76.5 21.4 76.5 18.4 C 76.5 13.4 83.1 13.2 85.7 13.2 Z M 82 21.1 C 84.8 21.1 86.6 18.1 86.6 15.5 C 86.58 15.51 86.6 14.8 86.6 14.8 C 86.6 14.8 85.71 14.82 85.7 14.8 C 83.3 14.8 78.6 14.9 78.6 18.3 C 78.6 19.7 79.7 21.1 82 21.1 Z " stroke="none" fill="#ee3078"/>  </g></svg>