<?xml version="1.0" standalone="no"?><!DOCTYPE svg PUBLIC "-//W3C//DTD SVG 1.1//EN" "http://www.w3.org/Graphics/SVG/1.1/DTD/svg11.dtd"><svg xmlns="http://www.w3.org/2000/svg" version="1.1" width="30px" height="16.8px" viewBox="0 -2 30 16.8" style="top:-2px">  <desc>F VIIa</desc>  <defs/>  <g id="Polygon76927">    <path d="M 2.5 0.5 L 6.6 0.5 L 6.6 1.2 L 3.3 1.2 L 3.3 4.1 L 6.1 4.1 L 6.1 4.8 L 3.3 4.8 L 3.3 8.2 L 2.5 8.2 L 2.5 0.5 Z M 10.1 0.5 L 11 0.5 C 11 0.5 13.1 6.39 13.1 6.4 C 13.25 6.79 13.4 7.4 13.4 7.4 L 13.4 7.4 C 13.4 7.4 13.58 6.79 13.7 6.4 C 13.72 6.39 15.9 0.5 15.9 0.5 L 16.7 0.5 L 13.8 8.2 L 13 8.2 L 10.1 0.5 Z M 17.9 0.5 L 18.7 0.5 L 18.7 8.2 L 17.9 8.2 L 17.9 0.5 Z M 20.9 0.5 L 21.7 0.5 L 21.7 8.2 L 20.9 8.2 L 20.9 0.5 Z M 26.7 4.8 C 26.66 4.83 27 4.8 27 4.8 C 27 4.8 26.96 4.69 27 4.7 C 27 3.6 26.4 3.3 25.6 3.3 C 24.67 3.26 24 3.8 24 3.8 L 23.7 3.2 C 23.7 3.2 24.4 2.59 25.6 2.6 C 27 2.6 27.7 3.3 27.7 4.7 C 27.71 4.71 27.7 8.2 27.7 8.2 L 27 8.2 C 27 8.2 27 7.64 27 7.6 C 27 7.4 27 7.2 27 7.2 C 27.02 7.18 27 7.2 27 7.2 C 27 7.2 26.53 8.38 25.1 8.4 C 24.2 8.4 23.3 7.8 23.3 6.7 C 23.3 4.9 25.7 4.8 26.7 4.8 Z M 25.3 7.7 C 26.3 7.7 27 6.6 27 5.7 C 26.96 5.69 27 5.4 27 5.4 C 27 5.4 26.64 5.44 26.6 5.4 C 25.8 5.4 24 5.5 24 6.7 C 24 7.2 24.4 7.7 25.3 7.7 Z " stroke="none" fill="#000"/>  </g></svg>