<?xml version="1.0" standalone="no"?><!DOCTYPE svg PUBLIC "-//W3C//DTD SVG 1.1//EN" "http://www.w3.org/Graphics/SVG/1.1/DTD/svg11.dtd"><svg xmlns="http://www.w3.org/2000/svg" version="1.1" width="526.1px" height="43.5px" viewBox="0 -5 526.1 43.5" style="top:-5px">  <desc>Drovelis Pearlov index</desc>  <defs/>  <g id="Polygon80656">    <path d="M 2.3 18.8 L 13.3 14 L 13.3 13.9 L 2.3 9.2 L 2.3 7.2 L 15.9 13.2 L 15.9 14.7 L 2.3 20.8 L 2.3 18.8 Z M 29.5 3.3 L 27.6 3.3 L 27.6 1.4 C 27.6 1.4 36.06 1.41 36.1 1.4 C 42.4 1.4 46.6 5.3 46.6 11.9 C 46.6 18.7 42.4 22.5 36.1 22.5 C 36.1 22.5 31.4 22.5 31.4 22.5 C 30.1 22.5 29.5 22 29.5 20.7 C 29.55 20.67 29.5 3.3 29.5 3.3 Z M 32.3 20.6 C 32.3 20.6 35.8 20.6 35.8 20.6 C 41 20.6 44.5 17.6 44.5 11.9 C 44.5 6.3 41 3.3 35.8 3.3 C 35.85 3.27 31.6 3.3 31.6 3.3 C 31.6 3.3 31.65 19.98 31.6 20 C 31.6 20.4 31.9 20.6 32.3 20.6 Z M 50.6 9.8 C 50.6 9.4 50.4 9.2 49.9 9.2 C 49.95 9.18 48.7 9.2 48.7 9.2 L 48.7 7.4 C 48.7 7.4 50.79 7.41 50.8 7.4 C 52 7.4 52.6 7.9 52.6 9.1 C 52.6 9.1 52.6 10.1 52.6 10.1 C 52.62 10.77 52.6 11.3 52.6 11.3 C 52.6 11.3 52.62 11.28 52.6 11.3 C 53.3 9 55 7.3 57.4 7.3 C 57.81 7.26 58.2 7.4 58.2 7.4 L 58.2 9.4 C 58.2 9.4 57.84 9.3 57.4 9.3 C 55.3 9.3 53.7 11 53.1 13.2 C 52.8 14.2 52.6 15.2 52.6 16.1 C 52.65 16.14 52.6 22.5 52.6 22.5 L 50.6 22.5 C 50.6 22.5 50.61 9.84 50.6 9.8 Z M 67.4 7.1 C 71.8 7.1 75.4 10.4 75.4 14.9 C 75.4 19.4 71.8 22.9 67.4 22.9 C 63 22.9 59.5 19.4 59.5 14.9 C 59.5 10.4 63 7.1 67.4 7.1 Z M 67.4 21 C 70.6 21 73.3 18.4 73.3 14.9 C 73.3 11.5 70.6 8.9 67.4 8.9 C 64.2 8.9 61.6 11.5 61.6 14.9 C 61.6 18.4 64.2 21 67.4 21 Z M 78 9.9 C 77.8 9.3 77.5 9.2 77 9.2 C 76.98 9.18 76.7 9.2 76.7 9.2 L 76.7 7.4 C 76.7 7.4 77.52 7.41 77.5 7.4 C 79 7.4 79.4 7.7 79.9 9.1 C 79.9 9.1 83.5 18.5 83.5 18.5 C 83.82 19.23 84.1 20.3 84.1 20.3 L 84.1 20.3 C 84.1 20.3 84.36 19.23 84.6 18.5 C 84.6 18.5 88.3 9.1 88.3 9.1 C 88.8 7.7 89.2 7.4 90.6 7.4 C 90.63 7.41 91.4 7.4 91.4 7.4 L 91.4 9.2 C 91.4 9.2 91.14 9.18 91.1 9.2 C 90.6 9.2 90.3 9.3 90.1 9.9 C 90.09 9.87 85.2 22.5 85.2 22.5 L 82.9 22.5 C 82.9 22.5 78.03 9.87 78 9.9 Z M 100.2 7.1 C 104.3 7.1 106.5 10.3 106.5 14 C 106.5 14.37 106.4 15 106.4 15 C 106.4 15 94.86 15.03 94.9 15 C 94.9 18.8 97.6 21 100.7 21 C 103.47 21.03 105.2 19.2 105.2 19.2 L 106.2 20.7 C 106.2 20.7 104.04 22.86 100.6 22.9 C 96.1 22.9 92.7 19.6 92.7 15 C 92.7 10 96.1 7.1 100.2 7.1 Z M 104.4 13.4 C 104.3 10.3 102.4 8.8 100.1 8.8 C 97.6 8.8 95.5 10.4 94.9 13.4 C 94.9 13.4 104.4 13.4 104.4 13.4 Z M 110.5 3.8 C 110.5 3.4 110.3 3.2 109.9 3.2 C 109.89 3.18 108.6 3.2 108.6 3.2 L 108.6 1.4 C 108.6 1.4 110.76 1.41 110.8 1.4 C 112 1.4 112.6 2 112.6 3.2 C 112.6 3.2 112.6 20.1 112.6 20.1 C 112.6 20.5 112.8 20.7 113.2 20.7 C 113.25 20.73 114.5 20.7 114.5 20.7 L 114.5 22.5 C 114.5 22.5 112.38 22.5 112.4 22.5 C 111.1 22.5 110.5 22 110.5 20.7 C 110.5 20.7 110.5 3.8 110.5 3.8 Z M 118 1.4 L 120 1.4 L 120 4 L 118 4 L 118 1.4 Z M 118.1 9.8 C 118.1 9.4 117.8 9.2 117.4 9.2 C 117.42 9.18 116.2 9.2 116.2 9.2 L 116.2 7.4 C 116.2 7.4 118.29 7.41 118.3 7.4 C 119.6 7.4 120.1 8 120.1 9.2 C 120.1 9.2 120.1 20.1 120.1 20.1 C 120.1 20.5 120.4 20.7 120.8 20.7 C 120.78 20.73 122 20.7 122 20.7 L 122 22.5 C 122 22.5 119.91 22.5 119.9 22.5 C 118.6 22.5 118.1 22 118.1 20.7 C 118.1 20.7 118.1 9.8 118.1 9.8 Z M 124.9 18.8 C 124.9 18.8 126.57 21.09 129.5 21.1 C 131.2 21.1 132.7 20.3 132.7 18.7 C 132.7 15.4 124.3 16 124.3 11.1 C 124.3 8.4 126.6 7.1 129.6 7.1 C 131.2 7.1 134.2 7.7 134.2 9.8 C 134.22 9.78 134.2 11.1 134.2 11.1 L 132.3 11.1 C 132.3 11.1 132.3 10.35 132.3 10.4 C 132.3 9.2 130.7 8.8 129.7 8.8 C 127.6 8.8 126.3 9.5 126.3 11 C 126.3 14.4 134.8 13.6 134.8 18.6 C 134.8 21.1 132.5 22.9 129.5 22.9 C 125.58 22.86 123.7 20.2 123.7 20.2 L 124.9 18.8 Z M 147.4 3.3 L 145.5 3.3 L 145.5 1.4 C 145.5 1.4 154.38 1.41 154.4 1.4 C 158.1 1.4 160.9 3.9 160.9 7.8 C 160.9 11.7 158.1 14.2 154.4 14.2 C 154.38 14.22 149.5 14.2 149.5 14.2 L 149.5 22.5 L 147.4 22.5 L 147.4 3.3 Z M 154.1 12.4 C 156.9 12.4 158.7 10.7 158.7 7.8 C 158.7 4.9 156.9 3.3 154.1 3.3 C 154.14 3.27 149.5 3.3 149.5 3.3 L 149.5 12.4 C 149.5 12.4 154.11 12.36 154.1 12.4 Z M 169.6 7.1 C 173.8 7.1 175.9 10.3 175.9 14 C 175.95 14.37 175.9 15 175.9 15 C 175.9 15 164.31 15.03 164.3 15 C 164.4 18.8 167 21 170.2 21 C 172.92 21.03 174.7 19.2 174.7 19.2 L 175.7 20.7 C 175.7 20.7 173.49 22.86 170.1 22.9 C 165.6 22.9 162.2 19.6 162.2 15 C 162.2 10 165.6 7.1 169.6 7.1 Z M 173.8 13.4 C 173.7 10.3 171.8 8.8 169.6 8.8 C 167.1 8.8 164.9 10.4 164.4 13.4 C 164.4 13.4 173.8 13.4 173.8 13.4 Z M 187.9 13.2 C 187.86 13.2 188.7 13.2 188.7 13.2 C 188.7 13.2 188.7 13.02 188.7 13 C 188.7 9.9 187.6 8.8 184.8 8.8 C 184 8.8 181.9 9 181.9 10.1 C 181.86 10.08 181.9 11 181.9 11 L 179.9 11 C 179.9 11 179.91 9.6 179.9 9.6 C 179.9 7.5 183.5 7.1 184.8 7.1 C 189.6 7.1 190.7 9.6 190.7 12.8 C 190.7 12.8 190.7 20.1 190.7 20.1 C 190.7 20.5 191 20.7 191.4 20.7 C 191.4 20.73 192.7 20.7 192.7 20.7 L 192.7 22.5 C 192.7 22.5 190.59 22.5 190.6 22.5 C 189.3 22.5 188.8 21.9 188.8 20.7 C 188.79 20.04 188.8 19.6 188.8 19.6 C 188.8 19.6 188.76 19.59 188.8 19.6 C 188.8 19.6 187.5 22.9 183.7 22.9 C 181.2 22.9 178.6 21.4 178.6 18.4 C 178.6 13.4 185.2 13.2 187.9 13.2 Z M 184.1 21.1 C 187 21.1 188.7 18.1 188.7 15.5 C 188.7 15.51 188.7 14.8 188.7 14.8 C 188.7 14.8 187.83 14.82 187.8 14.8 C 185.5 14.8 180.7 14.9 180.7 18.3 C 180.7 19.7 181.8 21.1 184.1 21.1 Z M 195.9 9.8 C 195.9 9.4 195.7 9.2 195.2 9.2 C 195.24 9.18 194 9.2 194 9.2 L 194 7.4 C 194 7.4 196.08 7.41 196.1 7.4 C 197.3 7.4 197.9 7.9 197.9 9.1 C 197.9 9.1 197.9 10.1 197.9 10.1 C 197.91 10.77 197.8 11.3 197.8 11.3 C 197.8 11.3 197.91 11.28 197.9 11.3 C 198.6 9 200.3 7.3 202.7 7.3 C 203.1 7.26 203.5 7.4 203.5 7.4 L 203.5 9.4 C 203.5 9.4 203.13 9.3 202.7 9.3 C 200.6 9.3 199 11 198.4 13.2 C 198.1 14.2 197.9 15.2 197.9 16.1 C 197.94 16.14 197.9 22.5 197.9 22.5 L 195.9 22.5 C 195.9 22.5 195.9 9.84 195.9 9.8 Z M 206.4 3.8 C 206.4 3.4 206.2 3.2 205.7 3.2 C 205.74 3.18 204.5 3.2 204.5 3.2 L 204.5 1.4 C 204.5 1.4 206.61 1.41 206.6 1.4 C 207.9 1.4 208.4 2 208.4 3.2 C 208.4 3.2 208.4 20.1 208.4 20.1 C 208.4 20.5 208.7 20.7 209.1 20.7 C 209.1 20.73 210.4 20.7 210.4 20.7 L 210.4 22.5 C 210.4 22.5 208.23 22.5 208.2 22.5 C 206.9 22.5 206.4 22 206.4 20.7 C 206.4 20.7 206.4 3.8 206.4 3.8 Z M 220.3 7.1 C 224.7 7.1 228.3 10.4 228.3 14.9 C 228.3 19.4 224.7 22.9 220.3 22.9 C 215.9 22.9 212.4 19.4 212.4 14.9 C 212.4 10.4 215.9 7.1 220.3 7.1 Z M 220.3 21 C 223.6 21 226.2 18.4 226.2 14.9 C 226.2 11.5 223.6 8.9 220.3 8.9 C 217.1 8.9 214.5 11.5 214.5 14.9 C 214.5 18.4 217.1 21 220.3 21 Z M 230.9 9.9 C 230.7 9.3 230.4 9.2 229.9 9.2 C 229.89 9.18 229.6 9.2 229.6 9.2 L 229.6 7.4 C 229.6 7.4 230.43 7.41 230.4 7.4 C 231.9 7.4 232.3 7.7 232.8 9.1 C 232.8 9.1 236.5 18.5 236.5 18.5 C 236.73 19.23 237 20.3 237 20.3 L 237 20.3 C 237 20.3 237.27 19.23 237.5 18.5 C 237.5 18.5 241.2 9.1 241.2 9.1 C 241.7 7.7 242.1 7.4 243.5 7.4 C 243.54 7.41 244.3 7.4 244.3 7.4 L 244.3 9.2 C 244.3 9.2 244.05 9.18 244 9.2 C 243.5 9.2 243.2 9.3 243 9.9 C 243 9.87 238.1 22.5 238.1 22.5 L 235.9 22.5 C 235.9 22.5 230.94 9.87 230.9 9.9 Z M 255.6 1.4 L 257.6 1.4 L 257.6 4 L 255.6 4 L 255.6 1.4 Z M 255.7 9.8 C 255.7 9.4 255.4 9.2 255 9.2 C 255 9.18 253.7 9.2 253.7 9.2 L 253.7 7.4 C 253.7 7.4 255.87 7.41 255.9 7.4 C 257.2 7.4 257.7 8 257.7 9.2 C 257.7 9.2 257.7 20.1 257.7 20.1 C 257.7 20.5 257.9 20.7 258.4 20.7 C 258.36 20.73 259.6 20.7 259.6 20.7 L 259.6 22.5 C 259.6 22.5 257.49 22.5 257.5 22.5 C 256.2 22.5 255.7 22 255.7 20.7 C 255.7 20.7 255.7 9.8 255.7 9.8 Z M 263 9.8 C 263 9.4 262.8 9.2 262.4 9.2 C 262.38 9.18 261.1 9.2 261.1 9.2 L 261.1 7.4 C 261.1 7.4 263.22 7.41 263.2 7.4 C 264.5 7.4 265 8 265 9.1 C 265 9.1 265 9.8 265 9.8 C 265.05 10.38 265 10.9 265 10.9 C 265 10.9 265.05 10.86 265 10.9 C 265.6 9.5 267.5 7.1 271 7.1 C 274.8 7.1 276.1 9.2 276.1 12.9 C 276.1 12.9 276.1 20.1 276.1 20.1 C 276.1 20.5 276.4 20.7 276.8 20.7 C 276.78 20.73 278 20.7 278 20.7 L 278 22.5 C 278 22.5 275.91 22.5 275.9 22.5 C 274.6 22.5 274.1 22 274.1 20.7 C 274.1 20.7 274.1 13.4 274.1 13.4 C 274.1 11.1 273.7 9 270.8 9 C 268.2 9 266 10.7 265.3 13.2 C 265.1 13.9 265.1 14.6 265.1 15.3 C 265.08 15.27 265.1 22.5 265.1 22.5 L 263 22.5 C 263 22.5 263.04 9.84 263 9.8 Z M 286.7 7.1 C 290.37 7.05 291.6 9.9 291.6 9.9 L 291.7 9.9 C 291.7 9.9 291.63 9.36 291.6 8.7 C 291.6 8.7 291.6 3.8 291.6 3.8 C 291.6 3.4 291.4 3.2 291 3.2 C 290.97 3.18 289.7 3.2 289.7 3.2 L 289.7 1.4 C 289.7 1.4 291.84 1.41 291.8 1.4 C 293.1 1.4 293.7 2 293.7 3.2 C 293.7 3.2 293.7 20.1 293.7 20.1 C 293.7 20.5 293.9 20.7 294.3 20.7 C 294.33 20.73 295.6 20.7 295.6 20.7 L 295.6 22.5 C 295.6 22.5 293.49 22.5 293.5 22.5 C 292.2 22.5 291.7 21.9 291.7 20.8 C 291.69 20.25 291.7 19.9 291.7 19.9 L 291.7 19.9 C 291.7 19.9 290.46 22.86 286.5 22.9 C 282.4 22.9 279.9 19.6 279.9 14.9 C 279.9 10.2 282.7 7.1 286.7 7.1 Z M 291.7 14.9 C 291.7 11.9 290.1 8.9 286.9 8.9 C 284.2 8.9 282 11.1 282 14.9 C 282 18.7 284 21 286.8 21 C 289.3 21 291.7 19.2 291.7 14.9 Z M 304.9 7.1 C 309.1 7.1 311.3 10.3 311.3 14 C 311.28 14.37 311.2 15 311.2 15 C 311.2 15 299.64 15.03 299.6 15 C 299.7 18.8 302.4 21 305.5 21 C 308.25 21.03 310 19.2 310 19.2 L 311 20.7 C 311 20.7 308.82 22.86 305.4 22.9 C 300.9 22.9 297.5 19.6 297.5 15 C 297.5 10 300.9 7.1 304.9 7.1 Z M 309.2 13.4 C 309.1 10.3 307.1 8.8 304.9 8.8 C 302.4 8.8 300.2 10.4 299.7 13.4 C 299.7 13.4 309.2 13.4 309.2 13.4 Z M 318.6 14.6 C 318.6 14.6 315.3 9.81 315.3 9.8 C 314.9 9.3 314.5 9.2 313.9 9.2 C 313.92 9.18 313.3 9.2 313.3 9.2 L 313.3 7.4 C 313.3 7.4 314.4 7.41 314.4 7.4 C 315.9 7.4 316.3 7.7 317.2 9.1 C 317.2 9.1 319.4 12.4 319.4 12.4 C 319.62 12.81 319.9 13.3 319.9 13.3 L 319.9 13.3 C 319.9 13.3 320.22 12.81 320.4 12.4 C 320.4 12.4 322.6 9.1 322.6 9.1 C 323.5 7.7 323.9 7.4 325.4 7.4 C 325.44 7.41 326.5 7.4 326.5 7.4 L 326.5 9.2 C 326.5 9.2 325.92 9.18 325.9 9.2 C 325.3 9.2 324.8 9.3 324.5 9.8 C 324.51 9.78 321.2 14.6 321.2 14.6 L 326.5 22.5 L 324.1 22.5 C 324.1 22.5 320.43 16.89 320.4 16.9 C 320.19 16.5 319.9 16.1 319.9 16.1 L 319.9 16.1 C 319.9 16.1 319.65 16.47 319.4 16.9 C 319.38 16.89 315.7 22.5 315.7 22.5 L 313.3 22.5 L 318.6 14.6 Z " stroke="none" fill="#ee3078"/>  </g></svg>