<?xml version="1.0" standalone="no"?><!DOCTYPE svg PUBLIC "-//W3C//DTD SVG 1.1//EN" "http://www.w3.org/Graphics/SVG/1.1/DTD/svg11.dtd"><svg xmlns="http://www.w3.org/2000/svg" version="1.1" width="113.4px" height="78.9px" viewBox="0 0 113.4 78.9">  <desc>Ve mi n zka (~ 5 %)</desc>  <defs/>  <g id="Polygon69939">    <path d="M 42.9 40.7 C 42.9 40.7 43.8 40.7 43.8 40.7 C 43 42 42.6 43.5 42.6 45.1 C 42.6 46.7 43 48.3 43.9 49.8 C 43.9 49.8 42.9 49.8 42.9 49.8 C 42.1 48.5 41.6 46.8 41.6 45.1 C 41.6 43.5 42 42 42.9 40.7 Z M 46.6 44.6 C 47.7 44.6 47.8 45.7 48.7 45.7 C 49.2 45.7 49.4 45.2 49.4 44.7 C 49.4 44.7 50.3 44.7 50.3 44.7 C 50.3 46 49.7 46.6 48.7 46.6 C 47.6 46.6 47.5 45.5 46.6 45.5 C 46.1 45.5 45.9 46.1 45.9 46.5 C 45.9 46.5 45 46.5 45 46.5 C 45 45.2 45.6 44.6 46.6 44.6 Z M 55.2 47 C 55.2 47 55.82 47.85 57 47.9 C 58 47.9 58.7 47.2 58.7 46.3 C 58.7 45.3 57.8 44.7 56.8 44.7 C 55.97 44.71 55.4 45.1 55.4 45.1 L 54.9 44.9 C 54.9 44.9 55.21 41.69 55.2 41.7 C 55.3 41.2 55.4 41 55.9 41 C 55.9 41 58.6 41 58.6 41 C 59.1 41 59.3 41.2 59.3 41.7 C 59.33 41.69 59.3 42.7 59.3 42.7 L 58.3 42.7 C 58.3 42.7 58.33 42.17 58.3 42.2 C 58.3 42 58.2 41.9 58.1 41.9 C 58.1 41.9 56.5 41.9 56.5 41.9 C 56.3 41.9 56.2 42 56.2 42.2 C 56.2 42.2 56.1 43.6 56.1 43.6 C 56.04 43.83 56 44 56 44 L 56 44 C 56 44 56.45 43.77 57 43.8 C 58.7 43.8 59.8 44.9 59.8 46.3 C 59.8 47.7 58.7 48.9 57 48.9 C 55.4 48.88 54.6 47.8 54.6 47.8 L 55.2 47 Z M 64 42.5 C 64 41.6 64.8 40.9 65.7 40.9 C 66.6 40.9 67.4 41.6 67.4 42.5 C 67.4 43.4 66.6 44.1 65.7 44.1 C 64.8 44.1 64 43.4 64 42.5 Z M 70.2 41 L 71.2 41 L 65.2 48.8 L 64.2 48.8 L 70.2 41 Z M 66.5 42.5 C 66.5 42 66.2 41.7 65.7 41.7 C 65.2 41.7 64.9 42 64.9 42.5 C 64.9 42.9 65.2 43.3 65.7 43.3 C 66.2 43.3 66.5 42.9 66.5 42.5 Z M 69.7 45.6 C 70.6 45.6 71.4 46.4 71.4 47.3 C 71.4 48.2 70.6 48.9 69.7 48.9 C 68.8 48.9 68 48.2 68 47.3 C 68 46.4 68.8 45.6 69.7 45.6 Z M 68.9 47.3 C 68.9 47.7 69.2 48.1 69.7 48.1 C 70.2 48.1 70.5 47.7 70.5 47.3 C 70.5 46.8 70.2 46.4 69.7 46.4 C 69.2 46.4 68.9 46.8 68.9 47.3 C 68.9 47.3 68.9 47.3 68.9 47.3 Z M 73.8 45.1 C 73.8 43.5 73.4 42 72.5 40.7 C 72.5 40.7 73.5 40.7 73.5 40.7 C 74.3 42 74.7 43.5 74.7 45.1 C 74.7 46.8 74.3 48.5 73.4 49.8 C 73.4 49.8 72.5 49.8 72.5 49.8 C 73.3 48.3 73.8 46.7 73.8 45.1 Z " stroke="none" fill="#323232"/>  </g>  <g id="Polygon69938">    <path d="M 27.2 29 C 27.2 28.8 27.1 28.7 26.9 28.7 C 26.87 28.73 26.7 28.7 26.7 28.7 L 26.7 27.8 C 26.7 27.8 27.33 27.79 27.3 27.8 C 27.9 27.8 28.1 27.9 28.2 28.4 C 28.2 28.4 30 33.2 30 33.2 C 30.1 33.63 30.2 34.3 30.2 34.3 L 30.3 34.3 C 30.3 34.3 30.41 33.63 30.6 33.2 C 30.6 33.2 32.3 28.4 32.3 28.4 C 32.5 27.9 32.6 27.8 33.2 27.8 C 33.19 27.79 33.8 27.8 33.8 27.8 L 33.8 28.7 C 33.8 28.7 33.65 28.73 33.6 28.7 C 33.4 28.7 33.4 28.8 33.3 29 C 33.28 28.97 30.8 35.6 30.8 35.6 L 29.7 35.6 C 29.7 35.6 27.24 28.97 27.2 29 Z M 36.5 29.9 C 38.1 29.9 38.9 31 38.9 32.5 C 38.94 32.6 38.9 32.9 38.9 32.9 C 38.9 32.9 34.85 32.9 34.8 32.9 C 34.9 34.1 35.8 34.8 36.8 34.8 C 37.72 34.76 38.4 34.1 38.4 34.1 L 38.9 34.9 C 38.9 34.9 38.03 35.68 36.7 35.7 C 34.9 35.7 33.7 34.4 33.7 32.8 C 33.7 31 35 29.9 36.5 29.9 Z M 37.8 32.1 C 37.8 31.2 37.2 30.7 36.5 30.7 C 35.7 30.7 35.1 31.2 34.9 32.1 C 34.9 32.1 37.8 32.1 37.8 32.1 Z M 40.3 28.9 C 40.3 28.8 40.2 28.7 40.1 28.7 C 40.09 28.7 39.6 28.7 39.6 28.7 L 39.6 27.8 C 39.6 27.8 40.7 27.79 40.7 27.8 C 41.2 27.8 41.4 28 41.4 28.5 C 41.4 28.5 41.4 34.4 41.4 34.4 C 41.4 34.6 41.5 34.6 41.6 34.6 C 41.64 34.64 42.1 34.6 42.1 34.6 L 42.1 35.6 C 42.1 35.6 41.04 35.55 41 35.6 C 40.5 35.6 40.3 35.3 40.3 34.8 C 40.3 34.8 40.3 28.9 40.3 28.9 Z M 42.9 27.8 C 42.9 28 43 28.2 43 28.3 C 43 28.7 42.9 29 42.7 29.3 C 42.7 29.3 41.9 29.3 41.9 29.3 C 42.1 29 42.1 28.7 42.1 28.4 C 42.1 28.2 42.1 28 42 27.8 C 42 27.8 42.9 27.8 42.9 27.8 Z M 44.3 31.1 C 44.3 31 44.2 30.9 44 30.9 C 44.01 30.9 43.6 30.9 43.6 30.9 L 43.6 30 C 43.6 30 44.58 29.99 44.6 30 C 45.1 30 45.3 30.2 45.3 30.6 C 45.3 30.6 45.3 30.8 45.3 30.8 C 45.29 30.99 45.3 31.1 45.3 31.1 C 45.3 31.1 45.3 31.13 45.3 31.1 C 45.6 30.5 46.3 29.9 47.2 29.9 C 48.1 29.9 48.7 30.3 48.9 31.1 C 48.9 31.1 48.9 31.1 48.9 31.1 C 49.2 30.4 50 29.9 50.9 29.9 C 52.1 29.9 52.7 30.6 52.7 32 C 52.7 32 52.7 34.4 52.7 34.4 C 52.7 34.6 52.8 34.6 53 34.6 C 52.95 34.64 53.4 34.6 53.4 34.6 L 53.4 35.6 C 53.4 35.6 52.35 35.55 52.3 35.6 C 51.9 35.6 51.6 35.3 51.6 34.8 C 51.6 34.8 51.6 32.2 51.6 32.2 C 51.6 31.4 51.5 30.8 50.7 30.8 C 49.9 30.8 49.3 31.5 49.1 32.3 C 49 32.5 49 32.7 49 33 C 49.01 33.01 49 35.6 49 35.6 L 47.9 35.6 C 47.9 35.6 47.95 32.22 47.9 32.2 C 47.9 31.5 47.8 30.8 47 30.8 C 46.2 30.8 45.6 31.5 45.4 32.3 C 45.3 32.5 45.3 32.8 45.3 33 C 45.32 33.01 45.3 35.6 45.3 35.6 L 44.3 35.6 C 44.3 35.6 44.25 31.14 44.3 31.1 Z M 54.6 27.8 L 55.6 27.8 L 55.6 28.9 L 54.6 28.9 L 54.6 27.8 Z M 54.6 31.1 C 54.6 31 54.5 30.9 54.4 30.9 C 54.37 30.9 53.9 30.9 53.9 30.9 L 53.9 30 C 53.9 30 54.97 29.99 55 30 C 55.5 30 55.7 30.2 55.7 30.7 C 55.7 30.7 55.7 34.4 55.7 34.4 C 55.7 34.6 55.8 34.6 55.9 34.6 C 55.91 34.64 56.4 34.6 56.4 34.6 L 56.4 35.6 C 56.4 35.6 55.32 35.55 55.3 35.6 C 54.8 35.6 54.6 35.3 54.6 34.8 C 54.6 34.8 54.6 31.1 54.6 31.1 Z M 60.5 31.1 C 60.5 31 60.5 30.9 60.3 30.9 C 60.3 30.9 59.9 30.9 59.9 30.9 L 59.9 30 C 59.9 30 60.87 29.99 60.9 30 C 61.3 30 61.6 30.2 61.6 30.6 C 61.6 30.6 61.6 30.8 61.6 30.8 C 61.58 30.99 61.6 31.1 61.6 31.1 C 61.6 31.1 61.58 31.13 61.6 31.1 C 61.8 30.6 62.5 29.9 63.7 29.9 C 65 29.9 65.6 30.6 65.6 32 C 65.6 32 65.6 34.4 65.6 34.4 C 65.6 34.6 65.7 34.6 65.8 34.6 C 65.82 34.64 66.3 34.6 66.3 34.6 L 66.3 35.6 C 66.3 35.6 65.22 35.55 65.2 35.6 C 64.7 35.6 64.5 35.3 64.5 34.8 C 64.5 34.8 64.5 32.2 64.5 32.2 C 64.5 31.4 64.4 30.8 63.5 30.8 C 62.6 30.8 61.9 31.4 61.7 32.2 C 61.6 32.4 61.6 32.7 61.6 32.9 C 61.61 32.94 61.6 35.6 61.6 35.6 L 60.5 35.6 C 60.5 35.6 60.54 31.14 60.5 31.1 Z M 67.5 31.1 C 67.5 31 67.4 30.9 67.2 30.9 C 67.24 30.9 66.8 30.9 66.8 30.9 L 66.8 30 C 66.8 30 67.85 29.99 67.8 30 C 68.3 30 68.6 30.2 68.6 30.7 C 68.6 30.7 68.6 34.4 68.6 34.4 C 68.6 34.6 68.6 34.6 68.8 34.6 C 68.79 34.64 69.2 34.6 69.2 34.6 L 69.2 35.6 C 69.2 35.6 68.2 35.55 68.2 35.6 C 67.7 35.6 67.5 35.3 67.5 34.8 C 67.5 34.8 67.5 31.1 67.5 31.1 Z M 68.3 27.8 L 69.4 27.8 L 68.3 29.2 L 67.5 29.2 L 68.3 27.8 Z M 69.9 34.9 C 69.9 34.9 72.75 31.41 72.8 31.4 C 73 31.12 73.2 30.9 73.2 30.9 L 73.2 30.9 C 73.2 30.9 73.04 30.9 72.7 30.9 C 72.7 30.9 71.2 30.9 71.2 30.9 C 71 30.9 70.9 31 70.9 31.1 C 70.92 31.14 70.9 31.5 70.9 31.5 L 69.9 31.5 C 69.9 31.5 69.94 30.69 69.9 30.7 C 69.9 30.2 70.1 30 70.6 30 C 70.64 29.99 74.6 30 74.6 30 L 74.6 30.6 C 74.6 30.6 71.76 34.13 71.8 34.1 C 71.53 34.41 71.3 34.6 71.3 34.6 L 71.3 34.7 C 71.3 34.7 71.48 34.64 71.8 34.6 C 71.8 34.6 73.6 34.6 73.6 34.6 C 73.8 34.6 73.9 34.6 73.9 34.4 C 73.86 34.4 73.9 34 73.9 34 L 74.8 34 C 74.8 34 74.83 34.85 74.8 34.8 C 74.8 35.3 74.6 35.6 74.1 35.6 C 74.13 35.55 69.9 35.6 69.9 35.6 L 69.9 34.9 Z M 76 28.9 C 76 28.8 75.9 28.7 75.7 28.7 C 75.75 28.7 75.3 28.7 75.3 28.7 L 75.3 27.8 C 75.3 27.8 76.35 27.79 76.3 27.8 C 76.8 27.8 77.1 27.9 77.1 28.4 C 77.05 28.42 77.1 32 77.1 32 C 77.1 32 77.55 32.03 77.5 32 C 77.7 32 78 32 78.1 31.8 C 78.13 31.79 79.4 30 79.4 30 L 80.6 30 C 80.6 30 79.13 32.05 79.1 32.1 C 78.88 32.39 78.7 32.5 78.7 32.5 L 78.7 32.5 C 78.7 32.5 78.9 32.56 79.1 32.9 C 79.1 32.9 79.9 34.4 79.9 34.4 C 80 34.6 80.1 34.6 80.4 34.6 C 80.39 34.64 80.7 34.6 80.7 34.6 L 80.7 35.6 C 80.7 35.6 79.96 35.55 80 35.6 C 79.4 35.6 79.3 35.5 79 35 C 79 35 78 33.2 78 33.2 C 77.9 33 77.6 32.9 77.5 32.9 C 77.47 32.93 77.1 32.9 77.1 32.9 L 77.1 35.6 L 76 35.6 C 76 35.6 75.99 28.94 76 28.9 Z M 84.6 32.1 C 84.58 32.09 84.8 32.1 84.8 32.1 C 84.8 32.1 84.82 32.03 84.8 32 C 84.8 31.1 84.5 30.7 83.6 30.7 C 83.3 30.7 82.7 30.8 82.7 31.1 C 82.67 31.13 82.7 31.4 82.7 31.4 L 81.7 31.4 C 81.7 31.4 81.67 30.9 81.7 30.9 C 81.7 30 83.1 29.9 83.6 29.9 C 85.4 29.9 85.9 30.8 85.9 32 C 85.9 32 85.9 34.4 85.9 34.4 C 85.9 34.6 86 34.6 86.1 34.6 C 86.13 34.64 86.6 34.6 86.6 34.6 L 86.6 35.6 C 86.6 35.6 85.58 35.55 85.6 35.6 C 85.1 35.6 84.9 35.3 84.9 34.9 C 84.9 34.7 84.9 34.6 84.9 34.6 C 84.91 34.58 84.9 34.6 84.9 34.6 C 84.9 34.6 84.45 35.68 83.1 35.7 C 82.2 35.7 81.2 35.1 81.2 34 C 81.2 32.2 83.6 32.1 84.6 32.1 Z M 83.3 34.8 C 84.2 34.8 84.8 33.9 84.8 33.1 C 84.83 33.05 84.8 32.9 84.8 32.9 C 84.8 32.9 84.56 32.87 84.6 32.9 C 83.8 32.9 82.3 32.9 82.3 33.9 C 82.3 34.4 82.6 34.8 83.3 34.8 Z " stroke="none" fill="#323232"/>  </g></svg>