<?xml version="1.0" standalone="no"?><!DOCTYPE svg PUBLIC "-//W3C//DTD SVG 1.1//EN" "http://www.w3.org/Graphics/SVG/1.1/DTD/svg11.dtd"><svg xmlns="http://www.w3.org/2000/svg" version="1.1" width="559.1px" height="28.7px" viewBox="0 -1 559.1 28.7" style="top:-1px">  <desc>￼ Pl novan krv canie,￼ Nepl novan krv canie,￼ Absencia pl novan ho krv cania</desc>  <defs/>  <g class="svg-tables">    <g class="svg-table-background"/>  </g>  <g id="Polygon80487">    <path d="M 401.4 14.9 L 404 6.6 L 405.3 6.6 L 408 14.9 L 408 15 L 407.1 15 L 406.3 12.5 L 403.1 12.5 L 402.3 15 L 401.4 15 L 401.4 14.9 Z M 406.1 11.7 L 405.1 8.7 L 404.7 7.4 L 404.6 7.4 L 404.2 8.7 L 403.3 11.7 L 406.1 11.7 Z M 410.7 15.1 C 410.2 15.1 409.5 15 408.8 14.8 C 408.81 14.82 408.8 5.8 408.8 5.8 L 409.7 5.8 C 409.7 5.8 409.7 9.51 409.7 9.5 C 410.1 9 410.7 8.8 411.4 8.8 C 412.1 8.8 412.6 9 413 9.5 C 413.3 10 413.5 10.8 413.5 11.8 C 413.5 12.3 413.5 12.7 413.4 13.1 C 413.3 13.5 413.1 13.9 412.9 14.2 C 412.6 14.4 412.4 14.7 412 14.8 C 411.7 15 411.2 15.1 410.7 15.1 Z M 409.7 14.3 C 410.1 14.4 410.4 14.4 410.8 14.4 C 411.4 14.4 411.8 14.2 412.1 13.8 C 412.5 13.4 412.6 12.8 412.6 11.9 C 412.6 11 412.5 10.4 412.2 10.1 C 412 9.7 411.6 9.5 411.1 9.5 C 411 9.5 410.8 9.5 410.6 9.6 C 410.4 9.6 410.3 9.7 410.1 9.8 C 410 9.9 409.9 10.1 409.8 10.2 C 409.7 10.4 409.7 10.6 409.7 10.8 C 409.7 10.8 409.7 14.3 409.7 14.3 C 409.7 14.3 409.7 14.3 409.7 14.3 Z M 416.2 15.1 C 415.9 15.1 415.7 15.1 415.4 15.1 C 415.1 15 414.8 15 414.5 14.9 C 414.5 14.9 414.5 14.1 414.5 14.1 C 414.7 14.2 415 14.3 415.3 14.3 C 415.6 14.4 415.9 14.4 416.1 14.4 C 416.5 14.4 416.8 14.3 417 14.1 C 417.2 13.9 417.3 13.7 417.3 13.4 C 417.3 13 417.2 12.8 417 12.6 C 416.9 12.5 416.6 12.3 416.3 12.3 C 416.1 12.2 415.9 12.2 415.7 12.1 C 415.4 12.1 415.3 12 415.1 11.8 C 414.9 11.7 414.8 11.6 414.7 11.3 C 414.6 11.1 414.5 10.8 414.5 10.5 C 414.5 9.9 414.7 9.5 415 9.2 C 415.4 8.9 415.8 8.7 416.5 8.7 C 416.7 8.7 416.9 8.7 417.1 8.8 C 417.3 8.8 417.6 8.9 418 8.9 C 418 8.9 417.9 9.7 417.9 9.7 C 417.6 9.6 417.4 9.5 417.2 9.5 C 417 9.5 416.8 9.5 416.6 9.5 C 416.2 9.5 415.9 9.5 415.7 9.7 C 415.5 9.9 415.4 10.1 415.4 10.4 C 415.4 10.6 415.4 10.8 415.4 10.9 C 415.5 11 415.6 11.1 415.7 11.2 C 415.8 11.3 415.9 11.3 416.1 11.4 C 416.2 11.4 416.4 11.5 416.5 11.5 C 416.8 11.6 417 11.7 417.2 11.7 C 417.4 11.8 417.6 11.9 417.7 12.1 C 417.9 12.2 418 12.4 418.1 12.6 C 418.1 12.8 418.2 13 418.2 13.3 C 418.2 13.9 418 14.3 417.6 14.6 C 417.3 15 416.8 15.1 416.2 15.1 Z M 421.6 15.1 C 420.8 15.1 420.1 14.8 419.7 14.3 C 419.3 13.8 419.1 13 419.1 12 C 419.1 11 419.3 10.2 419.7 9.6 C 420.1 9 420.7 8.8 421.5 8.8 C 422.2 8.8 422.7 9 423.1 9.4 C 423.4 9.9 423.6 10.6 423.6 11.4 C 423.6 11.6 423.6 11.8 423.6 11.9 C 423.6 12 423.5 12.2 423.5 12.3 C 423.5 12.3 420 12.3 420 12.3 C 420 13 420.2 13.5 420.4 13.9 C 420.7 14.2 421.1 14.4 421.7 14.4 C 422.2 14.4 422.7 14.2 423.3 14 C 423.3 14 423.3 14.7 423.3 14.7 C 423.1 14.8 422.8 14.9 422.5 15 C 422.2 15.1 421.9 15.1 421.6 15.1 Z M 421.5 9.5 C 420.6 9.5 420.1 10.2 420 11.6 C 420 11.6 422.8 11.6 422.8 11.6 C 422.7 10.8 422.6 10.3 422.4 10 C 422.2 9.6 421.9 9.5 421.5 9.5 Z M 424.8 8.9 L 425.5 8.9 L 425.6 9.6 C 425.6 9.6 425.66 9.55 425.7 9.6 C 426.1 9.3 426.5 9.1 426.8 8.9 C 427.2 8.8 427.5 8.8 427.8 8.8 C 428.3 8.8 428.7 8.9 428.9 9.1 C 429.1 9.4 429.2 9.8 429.2 10.4 C 429.22 10.39 429.2 15 429.2 15 L 428.3 15 C 428.3 15 428.33 10.64 428.3 10.6 C 428.3 10.2 428.3 10 428.1 9.8 C 428 9.6 427.8 9.6 427.5 9.6 C 427.2 9.6 426.9 9.6 426.6 9.7 C 426.3 9.8 426 10 425.7 10.2 C 425.68 10.19 425.7 15 425.7 15 L 424.8 15 L 424.8 8.9 Z M 433 15.1 C 432.2 15.1 431.5 14.8 431.1 14.3 C 430.6 13.8 430.4 13 430.4 11.9 C 430.4 9.8 431.3 8.8 433 8.8 C 433.4 8.8 433.8 8.8 434.2 8.9 C 434.2 8.9 434.2 9.7 434.2 9.7 C 434 9.6 433.8 9.6 433.6 9.6 C 433.5 9.5 433.3 9.5 433.1 9.5 C 432.5 9.5 432.1 9.7 431.8 10.1 C 431.5 10.5 431.3 11.1 431.3 11.9 C 431.3 12.8 431.5 13.4 431.8 13.8 C 432 14.1 432.5 14.3 433.1 14.3 C 433.3 14.3 433.5 14.3 433.6 14.3 C 433.8 14.3 434 14.2 434.2 14.2 C 434.2 14.2 434.2 14.9 434.2 14.9 C 434 15 433.9 15 433.6 15.1 C 433.4 15.1 433.2 15.1 433 15.1 Z M 436.4 7 C 436.4 7.3 436.2 7.5 435.8 7.5 C 435.5 7.5 435.3 7.3 435.3 7 C 435.3 6.6 435.5 6.4 435.8 6.4 C 436.2 6.4 436.4 6.6 436.4 7 C 436.4 7 436.4 7 436.4 7 Z M 435.4 8.9 L 436.3 8.9 L 436.3 15 L 435.4 15 L 435.4 8.9 Z M 438.9 15 C 438.5 15 438.1 14.9 437.8 14.6 C 437.5 14.3 437.4 13.9 437.4 13.4 C 437.4 12.9 437.6 12.4 437.9 12.1 C 438.3 11.8 438.9 11.6 439.6 11.6 C 439.61 11.57 440.8 11.5 440.8 11.5 C 440.8 11.5 440.83 10.9 440.8 10.9 C 440.8 10.4 440.7 10 440.5 9.8 C 440.3 9.6 440 9.5 439.5 9.5 C 439.3 9.5 439 9.5 438.7 9.6 C 438.5 9.6 438.2 9.6 437.9 9.7 C 437.9 9.7 437.8 9 437.8 9 C 438.5 8.9 439.1 8.8 439.6 8.8 C 440.4 8.8 440.9 8.9 441.2 9.3 C 441.5 9.6 441.7 10.1 441.7 10.7 C 441.71 10.73 441.7 15 441.7 15 L 441 15 L 440.9 14.2 C 440.9 14.2 440.81 14.24 440.8 14.2 C 440.5 14.5 440.2 14.7 439.9 14.8 C 439.6 15 439.3 15 438.9 15 Z M 438.3 13.4 C 438.3 14 438.6 14.3 439.2 14.3 C 439.4 14.3 439.5 14.3 439.6 14.3 C 439.8 14.2 439.9 14.2 440.1 14.1 C 440.2 14 440.3 14 440.5 13.9 C 440.6 13.8 440.7 13.7 440.8 13.7 C 440.83 13.65 440.8 12.1 440.8 12.1 C 440.8 12.1 439.82 12.18 439.8 12.2 C 439.3 12.2 438.9 12.3 438.7 12.5 C 438.4 12.7 438.3 13 438.3 13.4 C 438.3 13.4 438.3 13.4 438.3 13.4 Z M 445.5 8.9 L 446.3 8.9 L 446.4 9.5 C 446.4 9.5 446.44 9.52 446.4 9.5 C 446.6 9.3 446.9 9.1 447.1 9 C 447.4 8.8 447.7 8.8 448.1 8.8 C 448.8 8.8 449.3 9 449.7 9.5 C 450.1 10 450.2 10.8 450.2 11.8 C 450.2 12.3 450.2 12.7 450.1 13.1 C 450 13.5 449.8 13.9 449.6 14.2 C 449.4 14.5 449.1 14.7 448.7 14.9 C 448.4 15 448 15.1 447.5 15.1 C 447.3 15.1 447.1 15.1 446.9 15.1 C 446.8 15.1 446.6 15 446.4 15 C 446.42 15 446.4 17.5 446.4 17.5 L 445.5 17.5 L 445.5 8.9 Z M 446.4 14.3 C 446.8 14.4 447.2 14.4 447.5 14.4 C 448.1 14.4 448.6 14.2 448.9 13.8 C 449.2 13.4 449.3 12.8 449.3 11.9 C 449.3 11 449.2 10.4 449 10 C 448.7 9.7 448.4 9.5 447.9 9.5 C 447.7 9.5 447.5 9.5 447.3 9.6 C 447.1 9.6 447 9.7 446.9 9.8 C 446.7 9.9 446.6 10.1 446.5 10.2 C 446.5 10.4 446.4 10.6 446.4 10.8 C 446.42 10.81 446.4 14.3 446.4 14.3 C 446.4 14.3 446.42 14.29 446.4 14.3 Z M 451.5 5.8 L 452.4 5.8 L 452.4 15 L 451.5 15 L 451.5 5.8 Z M 455 15 C 454.6 15 454.2 14.9 453.9 14.6 C 453.7 14.3 453.5 13.9 453.5 13.4 C 453.5 12.9 453.7 12.4 454.1 12.1 C 454.4 11.8 455 11.6 455.7 11.6 C 455.73 11.57 456.9 11.5 456.9 11.5 C 456.9 11.5 456.94 10.9 456.9 10.9 C 456.9 10.4 456.8 10 456.6 9.8 C 456.5 9.6 456.1 9.5 455.6 9.5 C 455.4 9.5 455.2 9.5 454.9 9.6 C 454.6 9.6 454.3 9.6 454 9.7 C 454 9.7 453.9 9 453.9 9 C 454.6 8.9 455.2 8.8 455.8 8.8 C 456.5 8.8 457 8.9 457.3 9.3 C 457.7 9.6 457.8 10.1 457.8 10.7 C 457.83 10.73 457.8 15 457.8 15 L 457.1 15 L 457 14.2 C 457 14.2 456.93 14.24 456.9 14.2 C 456.7 14.5 456.4 14.7 456 14.8 C 455.7 15 455.4 15 455 15 Z M 454.4 13.4 C 454.4 14 454.7 14.3 455.4 14.3 C 455.5 14.3 455.6 14.3 455.8 14.3 C 455.9 14.2 456 14.2 456.2 14.1 C 456.3 14 456.5 14 456.6 13.9 C 456.7 13.8 456.8 13.7 456.9 13.7 C 456.94 13.65 456.9 12.1 456.9 12.1 C 456.9 12.1 455.93 12.18 455.9 12.2 C 455.4 12.2 455 12.3 454.8 12.5 C 454.6 12.7 454.4 13 454.4 13.4 C 454.4 13.4 454.4 13.4 454.4 13.4 Z M 455.6 8 L 456.4 5.9 L 457.3 5.9 L 456.2 8.1 L 455.6 8 Z M 459.3 8.9 L 460 8.9 L 460.1 9.6 C 460.1 9.6 460.17 9.55 460.2 9.6 C 460.6 9.3 461 9.1 461.4 8.9 C 461.7 8.8 462 8.8 462.3 8.8 C 462.8 8.8 463.2 8.9 463.4 9.1 C 463.6 9.4 463.7 9.8 463.7 10.4 C 463.73 10.39 463.7 15 463.7 15 L 462.8 15 C 462.8 15 462.85 10.64 462.8 10.6 C 462.8 10.2 462.8 10 462.6 9.8 C 462.5 9.6 462.3 9.6 462 9.6 C 461.7 9.6 461.5 9.6 461.2 9.7 C 460.9 9.8 460.5 10 460.2 10.2 C 460.2 10.19 460.2 15 460.2 15 L 459.3 15 L 459.3 8.9 Z M 467.4 15.1 C 466.6 15.1 466 14.8 465.6 14.3 C 465.1 13.8 464.9 13 464.9 11.9 C 464.9 10.9 465.1 10.1 465.6 9.6 C 466 9 466.6 8.8 467.4 8.8 C 468.2 8.8 468.9 9 469.3 9.6 C 469.7 10.1 469.9 10.9 469.9 11.9 C 469.9 13 469.7 13.8 469.3 14.3 C 468.9 14.8 468.2 15.1 467.4 15.1 Z M 467.4 14.4 C 468 14.4 468.4 14.2 468.6 13.8 C 468.9 13.4 469 12.8 469 11.9 C 469 11.1 468.9 10.5 468.6 10.1 C 468.4 9.7 468 9.5 467.4 9.5 C 466.9 9.5 466.5 9.7 466.2 10.1 C 466 10.5 465.8 11.1 465.8 11.9 C 465.8 12.8 466 13.4 466.2 13.8 C 466.5 14.2 466.9 14.4 467.4 14.4 Z M 470.4 9 L 470.4 8.9 L 471.4 8.9 L 472.8 13.5 L 473 14.2 L 473.1 14.2 L 473.3 13.5 L 474.8 8.9 L 475.7 8.9 L 475.7 9 L 473.6 15 L 472.5 15 L 470.4 9 Z M 477.7 15 C 477.2 15 476.8 14.9 476.5 14.6 C 476.3 14.3 476.1 13.9 476.1 13.4 C 476.1 12.9 476.3 12.4 476.7 12.1 C 477 11.8 477.6 11.6 478.3 11.6 C 478.34 11.57 479.6 11.5 479.6 11.5 C 479.6 11.5 479.55 10.9 479.6 10.9 C 479.6 10.4 479.5 10 479.3 9.8 C 479.1 9.6 478.7 9.5 478.2 9.5 C 478 9.5 477.8 9.5 477.5 9.6 C 477.2 9.6 476.9 9.6 476.6 9.7 C 476.6 9.7 476.6 9 476.6 9 C 477.2 8.9 477.8 8.8 478.4 8.8 C 479.1 8.8 479.6 8.9 479.9 9.3 C 480.3 9.6 480.4 10.1 480.4 10.7 C 480.44 10.73 480.4 15 480.4 15 L 479.7 15 L 479.6 14.2 C 479.6 14.2 479.54 14.24 479.5 14.2 C 479.3 14.5 479 14.7 478.6 14.8 C 478.3 15 478 15 477.7 15 Z M 477 13.4 C 477 14 477.4 14.3 478 14.3 C 478.1 14.3 478.2 14.3 478.4 14.3 C 478.5 14.2 478.6 14.2 478.8 14.1 C 478.9 14 479.1 14 479.2 13.9 C 479.3 13.8 479.4 13.7 479.6 13.7 C 479.55 13.65 479.6 12.1 479.6 12.1 C 479.6 12.1 478.55 12.18 478.5 12.2 C 478 12.2 477.6 12.3 477.4 12.5 C 477.2 12.7 477 13 477 13.4 C 477 13.4 477 13.4 477 13.4 Z M 481.9 8.9 L 482.7 8.9 L 482.7 9.6 C 482.7 9.6 482.78 9.55 482.8 9.6 C 483.2 9.3 483.6 9.1 484 8.9 C 484.3 8.8 484.6 8.8 484.9 8.8 C 485.4 8.8 485.8 8.9 486 9.1 C 486.2 9.4 486.3 9.8 486.3 10.4 C 486.34 10.39 486.3 15 486.3 15 L 485.5 15 C 485.5 15 485.46 10.64 485.5 10.6 C 485.5 10.2 485.4 10 485.3 9.8 C 485.1 9.6 484.9 9.6 484.6 9.6 C 484.4 9.6 484.1 9.6 483.8 9.7 C 483.5 9.8 483.1 10 482.8 10.2 C 482.81 10.19 482.8 15 482.8 15 L 481.9 15 L 481.9 8.9 Z M 489.6 8 L 490.4 5.9 L 491.4 5.9 L 490.3 8.1 L 489.6 8 Z M 490.1 15.1 C 489.2 15.1 488.6 14.8 488.2 14.3 C 487.8 13.8 487.5 13 487.5 12 C 487.5 11 487.8 10.2 488.2 9.6 C 488.6 9 489.2 8.8 490 8.8 C 490.7 8.8 491.2 9 491.6 9.4 C 491.9 9.9 492.1 10.6 492.1 11.4 C 492.1 11.6 492.1 11.8 492.1 11.9 C 492 12 492 12.2 492 12.3 C 492 12.3 488.4 12.3 488.4 12.3 C 488.5 13 488.6 13.5 488.9 13.9 C 489.2 14.2 489.6 14.4 490.1 14.4 C 490.6 14.4 491.2 14.2 491.8 14 C 491.8 14 491.8 14.7 491.8 14.7 C 491.6 14.8 491.3 14.9 491 15 C 490.7 15.1 490.4 15.1 490.1 15.1 Z M 490 9.5 C 489.1 9.5 488.5 10.2 488.5 11.6 C 488.5 11.6 491.2 11.6 491.2 11.6 C 491.2 10.8 491.1 10.3 490.9 10 C 490.7 9.6 490.4 9.5 490 9.5 Z M 493.3 5.8 L 494.2 5.8 C 494.2 5.8 494.15 9.54 494.2 9.5 C 494.6 9.3 495 9.1 495.3 9 C 495.7 8.8 496 8.8 496.3 8.8 C 496.8 8.8 497.1 8.9 497.4 9.1 C 497.6 9.4 497.7 9.8 497.7 10.4 C 497.7 10.39 497.7 15 497.7 15 L 496.8 15 C 496.8 15 496.82 10.64 496.8 10.6 C 496.8 10.2 496.7 10 496.6 9.8 C 496.5 9.6 496.3 9.6 496 9.6 C 495.7 9.6 495.4 9.6 495.1 9.7 C 494.8 9.8 494.5 10 494.2 10.2 C 494.15 10.19 494.2 15 494.2 15 L 493.3 15 L 493.3 5.8 Z M 501.4 15.1 C 500.6 15.1 499.9 14.8 499.5 14.3 C 499.1 13.8 498.9 13 498.9 11.9 C 498.9 10.9 499.1 10.1 499.5 9.6 C 500 9 500.6 8.8 501.4 8.8 C 502.2 8.8 502.8 9 503.3 9.6 C 503.7 10.1 503.9 10.9 503.9 11.9 C 503.9 13 503.7 13.8 503.3 14.3 C 502.8 14.8 502.2 15.1 501.4 15.1 Z M 501.4 14.4 C 501.9 14.4 502.3 14.2 502.6 13.8 C 502.9 13.4 503 12.8 503 11.9 C 503 11.1 502.9 10.5 502.6 10.1 C 502.3 9.7 501.9 9.5 501.4 9.5 C 500.8 9.5 500.4 9.7 500.2 10.1 C 499.9 10.5 499.8 11.1 499.8 11.9 C 499.8 12.8 499.9 13.4 500.2 13.8 C 500.4 14.2 500.8 14.4 501.4 14.4 Z M 507.5 5.8 L 508.4 5.8 L 508.4 11.5 L 509.2 11.5 L 511 8.9 L 512 8.9 L 510 11.7 L 509.8 11.8 L 509.8 11.9 L 510 12 L 512.2 15 L 511.2 15 L 509.2 12.2 L 508.4 12.2 L 508.4 15 L 507.5 15 L 507.5 5.8 Z M 512.9 8.9 L 513.7 8.9 L 513.7 9.6 C 513.7 9.6 513.8 9.64 513.8 9.6 C 514 9.5 514.3 9.3 514.6 9.1 C 515 9 515.3 8.9 515.6 8.8 C 515.64 8.77 515.9 8.8 515.9 8.8 L 515.9 9.7 C 515.9 9.7 515.54 9.68 515.5 9.7 C 515.2 9.7 514.9 9.8 514.6 9.9 C 514.3 10 514 10.2 513.8 10.3 C 513.82 10.31 513.8 15 513.8 15 L 512.9 15 L 512.9 8.9 Z M 516.2 9 L 516.2 8.9 L 517.1 8.9 L 518.6 13.5 L 518.8 14.2 L 518.9 14.2 L 519 13.5 L 520.5 8.9 L 521.4 8.9 L 521.4 9 L 519.4 15 L 518.2 15 L 516.2 9 Z M 523.4 15 C 522.9 15 522.5 14.9 522.3 14.6 C 522 14.3 521.9 13.9 521.9 13.4 C 521.9 12.9 522 12.4 522.4 12.1 C 522.8 11.8 523.3 11.6 524.1 11.6 C 524.06 11.57 525.3 11.5 525.3 11.5 C 525.3 11.5 525.28 10.9 525.3 10.9 C 525.3 10.4 525.2 10 525 9.8 C 524.8 9.6 524.4 9.5 523.9 9.5 C 523.7 9.5 523.5 9.5 523.2 9.6 C 522.9 9.6 522.6 9.6 522.4 9.7 C 522.4 9.7 522.3 9 522.3 9 C 522.9 8.9 523.6 8.8 524.1 8.8 C 524.8 8.8 525.3 8.9 525.7 9.3 C 526 9.6 526.2 10.1 526.2 10.7 C 526.16 10.73 526.2 15 526.2 15 L 525.4 15 L 525.3 14.2 C 525.3 14.2 525.27 14.24 525.3 14.2 C 525 14.5 524.7 14.7 524.4 14.8 C 524.1 15 523.7 15 523.4 15 Z M 522.8 13.4 C 522.8 14 523.1 14.3 523.7 14.3 C 523.8 14.3 524 14.3 524.1 14.3 C 524.2 14.2 524.4 14.2 524.5 14.1 C 524.7 14 524.8 14 524.9 13.9 C 525 13.8 525.2 13.7 525.3 13.7 C 525.28 13.65 525.3 12.1 525.3 12.1 C 525.3 12.1 524.27 12.18 524.3 12.2 C 523.7 12.2 523.3 12.3 523.1 12.5 C 522.9 12.7 522.8 13 522.8 13.4 C 522.8 13.4 522.8 13.4 522.8 13.4 Z M 523.9 8 L 524.7 5.9 L 525.7 5.9 L 524.6 8.1 L 523.9 8 Z M 530 15.1 C 529.1 15.1 528.4 14.8 528 14.3 C 527.6 13.8 527.4 13 527.4 11.9 C 527.4 9.8 528.2 8.8 530 8.8 C 530.3 8.8 530.7 8.8 531.1 8.9 C 531.1 8.9 531.1 9.7 531.1 9.7 C 530.9 9.6 530.8 9.6 530.6 9.6 C 530.4 9.5 530.2 9.5 530 9.5 C 529.4 9.5 529 9.7 528.7 10.1 C 528.4 10.5 528.3 11.1 528.3 11.9 C 528.3 12.8 528.4 13.4 528.7 13.8 C 529 14.1 529.4 14.3 530 14.3 C 530.2 14.3 530.4 14.3 530.6 14.3 C 530.7 14.3 530.9 14.2 531.1 14.2 C 531.1 14.2 531.1 14.9 531.1 14.9 C 531 15 530.8 15 530.6 15.1 C 530.4 15.1 530.2 15.1 530 15.1 Z M 533.4 15 C 533 15 532.6 14.9 532.3 14.6 C 532.1 14.3 531.9 13.9 531.9 13.4 C 531.9 12.9 532.1 12.4 532.5 12.1 C 532.8 11.8 533.4 11.6 534.1 11.6 C 534.12 11.57 535.3 11.5 535.3 11.5 C 535.3 11.5 535.33 10.9 535.3 10.9 C 535.3 10.4 535.2 10 535 9.8 C 534.8 9.6 534.5 9.5 534 9.5 C 533.8 9.5 533.5 9.5 533.3 9.6 C 533 9.6 532.7 9.6 532.4 9.7 C 532.4 9.7 532.3 9 532.3 9 C 533 8.9 533.6 8.8 534.2 8.8 C 534.9 8.8 535.4 8.9 535.7 9.3 C 536 9.6 536.2 10.1 536.2 10.7 C 536.21 10.73 536.2 15 536.2 15 L 535.5 15 L 535.4 14.2 C 535.4 14.2 535.32 14.24 535.3 14.2 C 535 14.5 534.7 14.7 534.4 14.8 C 534.1 15 533.8 15 533.4 15 Z M 532.8 13.4 C 532.8 14 533.1 14.3 533.7 14.3 C 533.9 14.3 534 14.3 534.1 14.3 C 534.3 14.2 534.4 14.2 534.6 14.1 C 534.7 14 534.8 14 535 13.9 C 535.1 13.8 535.2 13.7 535.3 13.7 C 535.33 13.65 535.3 12.1 535.3 12.1 C 535.3 12.1 534.32 12.18 534.3 12.2 C 533.8 12.2 533.4 12.3 533.2 12.5 C 532.9 12.7 532.8 13 532.8 13.4 C 532.8 13.4 532.8 13.4 532.8 13.4 Z M 537.7 8.9 L 538.4 8.9 L 538.5 9.6 C 538.5 9.6 538.56 9.55 538.6 9.6 C 539 9.3 539.4 9.1 539.7 8.9 C 540.1 8.8 540.4 8.8 540.7 8.8 C 541.2 8.8 541.6 8.9 541.8 9.1 C 542 9.4 542.1 9.8 542.1 10.4 C 542.12 10.39 542.1 15 542.1 15 L 541.2 15 C 541.2 15 541.24 10.64 541.2 10.6 C 541.2 10.2 541.2 10 541 9.8 C 540.9 9.6 540.7 9.6 540.4 9.6 C 540.1 9.6 539.8 9.6 539.5 9.7 C 539.2 9.8 538.9 10 538.6 10.2 C 538.58 10.19 538.6 15 538.6 15 L 537.7 15 L 537.7 8.9 Z M 544.6 7 C 544.6 7.3 544.4 7.5 544.1 7.5 C 543.7 7.5 543.5 7.3 543.5 7 C 543.5 6.6 543.7 6.4 544.1 6.4 C 544.4 6.4 544.6 6.6 544.6 7 C 544.6 7 544.6 7 544.6 7 Z M 543.6 8.9 L 544.5 8.9 L 544.5 15 L 543.6 15 L 543.6 8.9 Z M 547.2 15 C 546.7 15 546.3 14.9 546 14.6 C 545.8 14.3 545.6 13.9 545.6 13.4 C 545.6 12.9 545.8 12.4 546.2 12.1 C 546.5 11.8 547.1 11.6 547.8 11.6 C 547.83 11.57 549 11.5 549 11.5 C 549 11.5 549.04 10.9 549 10.9 C 549 10.4 548.9 10 548.8 9.8 C 548.6 9.6 548.2 9.5 547.7 9.5 C 547.5 9.5 547.3 9.5 547 9.6 C 546.7 9.6 546.4 9.6 546.1 9.7 C 546.1 9.7 546.1 9 546.1 9 C 546.7 8.9 547.3 8.8 547.9 8.8 C 548.6 8.8 549.1 8.9 549.4 9.3 C 549.8 9.6 549.9 10.1 549.9 10.7 C 549.93 10.73 549.9 15 549.9 15 L 549.2 15 L 549.1 14.2 C 549.1 14.2 549.03 14.24 549 14.2 C 548.8 14.5 548.5 14.7 548.1 14.8 C 547.8 15 547.5 15 547.2 15 Z M 546.5 13.4 C 546.5 14 546.8 14.3 547.5 14.3 C 547.6 14.3 547.7 14.3 547.9 14.3 C 548 14.2 548.1 14.2 548.3 14.1 C 548.4 14 548.6 14 548.7 13.9 C 548.8 13.8 548.9 13.7 549 13.7 C 549.04 13.65 549 12.1 549 12.1 C 549 12.1 548.04 12.18 548 12.2 C 547.5 12.2 547.1 12.3 546.9 12.5 C 546.7 12.7 546.5 13 546.5 13.4 C 546.5 13.4 546.5 13.4 546.5 13.4 Z " stroke="none" fill="#000"/>  </g>  <g id="Polygon80483">    <path d="M 215.5 6.6 L 216.3 6.6 L 220.1 12.5 L 220.7 13.5 L 220.8 13.5 L 220.8 6.6 L 221.6 6.6 L 221.6 15 L 220.8 15 L 217 9.1 L 216.4 8.1 L 216.3 8.1 L 216.3 15 L 215.5 15 L 215.5 6.6 Z M 225.4 15.1 C 224.6 15.1 224 14.8 223.5 14.3 C 223.1 13.8 222.9 13 222.9 12 C 222.9 11 223.1 10.2 223.5 9.6 C 224 9 224.6 8.8 225.4 8.8 C 226.1 8.8 226.6 9 226.9 9.4 C 227.3 9.9 227.4 10.6 227.4 11.4 C 227.4 11.6 227.4 11.8 227.4 11.9 C 227.4 12 227.4 12.2 227.4 12.3 C 227.4 12.3 223.8 12.3 223.8 12.3 C 223.8 13 224 13.5 224.3 13.9 C 224.5 14.2 225 14.4 225.5 14.4 C 226 14.4 226.5 14.2 227.1 14 C 227.1 14 227.2 14.7 227.2 14.7 C 226.9 14.8 226.7 14.9 226.3 15 C 226 15.1 225.7 15.1 225.4 15.1 Z M 225.4 9.5 C 224.4 9.5 223.9 10.2 223.8 11.6 C 223.8 11.6 226.6 11.6 226.6 11.6 C 226.6 10.8 226.5 10.3 226.3 10 C 226.1 9.6 225.8 9.5 225.4 9.5 Z M 228.6 8.9 L 229.4 8.9 L 229.5 9.5 C 229.5 9.5 229.53 9.52 229.5 9.5 C 229.7 9.3 230 9.1 230.2 9 C 230.5 8.8 230.8 8.8 231.2 8.8 C 231.9 8.8 232.4 9 232.8 9.5 C 233.2 10 233.3 10.8 233.3 11.8 C 233.3 12.3 233.3 12.7 233.2 13.1 C 233.1 13.5 232.9 13.9 232.7 14.2 C 232.5 14.5 232.2 14.7 231.8 14.9 C 231.5 15 231.1 15.1 230.6 15.1 C 230.4 15.1 230.2 15.1 230 15.1 C 229.9 15.1 229.7 15 229.5 15 C 229.52 15 229.5 17.5 229.5 17.5 L 228.6 17.5 L 228.6 8.9 Z M 229.5 14.3 C 229.9 14.4 230.3 14.4 230.6 14.4 C 231.2 14.4 231.7 14.2 232 13.8 C 232.3 13.4 232.4 12.8 232.4 11.9 C 232.4 11 232.3 10.4 232.1 10 C 231.8 9.7 231.5 9.5 231 9.5 C 230.8 9.5 230.6 9.5 230.4 9.6 C 230.2 9.6 230.1 9.7 230 9.8 C 229.8 9.9 229.7 10.1 229.6 10.2 C 229.6 10.4 229.5 10.6 229.5 10.8 C 229.52 10.81 229.5 14.3 229.5 14.3 C 229.5 14.3 229.52 14.29 229.5 14.3 Z M 234.6 5.8 L 235.5 5.8 L 235.5 15 L 234.6 15 L 234.6 5.8 Z M 238.1 15 C 237.7 15 237.3 14.9 237 14.6 C 236.8 14.3 236.6 13.9 236.6 13.4 C 236.6 12.9 236.8 12.4 237.2 12.1 C 237.5 11.8 238.1 11.6 238.8 11.6 C 238.83 11.57 240 11.5 240 11.5 C 240 11.5 240.04 10.9 240 10.9 C 240 10.4 239.9 10 239.7 9.8 C 239.5 9.6 239.2 9.5 238.7 9.5 C 238.5 9.5 238.3 9.5 238 9.6 C 237.7 9.6 237.4 9.6 237.1 9.7 C 237.1 9.7 237 9 237 9 C 237.7 8.9 238.3 8.8 238.9 8.8 C 239.6 8.8 240.1 8.9 240.4 9.3 C 240.8 9.6 240.9 10.1 240.9 10.7 C 240.92 10.73 240.9 15 240.9 15 L 240.2 15 L 240.1 14.2 C 240.1 14.2 240.03 14.24 240 14.2 C 239.7 14.5 239.5 14.7 239.1 14.8 C 238.8 15 238.5 15 238.1 15 Z M 237.5 13.4 C 237.5 14 237.8 14.3 238.5 14.3 C 238.6 14.3 238.7 14.3 238.9 14.3 C 239 14.2 239.1 14.2 239.3 14.1 C 239.4 14 239.5 14 239.7 13.9 C 239.8 13.8 239.9 13.7 240 13.7 C 240.04 13.65 240 12.1 240 12.1 C 240 12.1 239.03 12.18 239 12.2 C 238.5 12.2 238.1 12.3 237.9 12.5 C 237.6 12.7 237.5 13 237.5 13.4 C 237.5 13.4 237.5 13.4 237.5 13.4 Z M 238.7 8 L 239.5 5.9 L 240.4 5.9 L 239.3 8.1 L 238.7 8 Z M 242.4 8.9 L 243.1 8.9 L 243.2 9.6 C 243.2 9.6 243.27 9.55 243.3 9.6 C 243.7 9.3 244.1 9.1 244.5 8.9 C 244.8 8.8 245.1 8.8 245.4 8.8 C 245.9 8.8 246.3 8.9 246.5 9.1 C 246.7 9.4 246.8 9.8 246.8 10.4 C 246.83 10.39 246.8 15 246.8 15 L 245.9 15 C 245.9 15 245.95 10.64 245.9 10.6 C 245.9 10.2 245.9 10 245.7 9.8 C 245.6 9.6 245.4 9.6 245.1 9.6 C 244.8 9.6 244.6 9.6 244.3 9.7 C 244 9.8 243.6 10 243.3 10.2 C 243.29 10.19 243.3 15 243.3 15 L 242.4 15 L 242.4 8.9 Z M 250.5 15.1 C 249.7 15.1 249.1 14.8 248.7 14.3 C 248.2 13.8 248 13 248 11.9 C 248 10.9 248.2 10.1 248.7 9.6 C 249.1 9 249.7 8.8 250.5 8.8 C 251.3 8.8 252 9 252.4 9.6 C 252.8 10.1 253 10.9 253 11.9 C 253 13 252.8 13.8 252.4 14.3 C 252 14.8 251.3 15.1 250.5 15.1 Z M 250.5 14.4 C 251.1 14.4 251.5 14.2 251.7 13.8 C 252 13.4 252.1 12.8 252.1 11.9 C 252.1 11.1 252 10.5 251.7 10.1 C 251.5 9.7 251.1 9.5 250.5 9.5 C 250 9.5 249.6 9.7 249.3 10.1 C 249.1 10.5 248.9 11.1 248.9 11.9 C 248.9 12.8 249.1 13.4 249.3 13.8 C 249.6 14.2 250 14.4 250.5 14.4 Z M 253.5 9 L 253.5 8.9 L 254.5 8.9 L 255.9 13.5 L 256.1 14.2 L 256.2 14.2 L 256.4 13.5 L 257.9 8.9 L 258.8 8.9 L 258.8 9 L 256.7 15 L 255.6 15 L 253.5 9 Z M 260.8 15 C 260.3 15 259.9 14.9 259.6 14.6 C 259.4 14.3 259.2 13.9 259.2 13.4 C 259.2 12.9 259.4 12.4 259.8 12.1 C 260.1 11.8 260.7 11.6 261.4 11.6 C 261.44 11.57 262.7 11.5 262.7 11.5 C 262.7 11.5 262.65 10.9 262.7 10.9 C 262.7 10.4 262.6 10 262.4 9.8 C 262.2 9.6 261.8 9.5 261.3 9.5 C 261.1 9.5 260.9 9.5 260.6 9.6 C 260.3 9.6 260 9.6 259.7 9.7 C 259.7 9.7 259.7 9 259.7 9 C 260.3 8.9 260.9 8.8 261.5 8.8 C 262.2 8.8 262.7 8.9 263 9.3 C 263.4 9.6 263.5 10.1 263.5 10.7 C 263.54 10.73 263.5 15 263.5 15 L 262.8 15 L 262.7 14.2 C 262.7 14.2 262.64 14.24 262.6 14.2 C 262.4 14.5 262.1 14.7 261.7 14.8 C 261.4 15 261.1 15 260.8 15 Z M 260.1 13.4 C 260.1 14 260.5 14.3 261.1 14.3 C 261.2 14.3 261.3 14.3 261.5 14.3 C 261.6 14.2 261.7 14.2 261.9 14.1 C 262 14 262.2 14 262.3 13.9 C 262.4 13.8 262.5 13.7 262.7 13.7 C 262.65 13.65 262.7 12.1 262.7 12.1 C 262.7 12.1 261.64 12.18 261.6 12.2 C 261.1 12.2 260.7 12.3 260.5 12.5 C 260.3 12.7 260.1 13 260.1 13.4 C 260.1 13.4 260.1 13.4 260.1 13.4 Z M 265 8.9 L 265.8 8.9 L 265.8 9.6 C 265.8 9.6 265.88 9.55 265.9 9.6 C 266.3 9.3 266.7 9.1 267.1 8.9 C 267.4 8.8 267.7 8.8 268 8.8 C 268.5 8.8 268.9 8.9 269.1 9.1 C 269.3 9.4 269.4 9.8 269.4 10.4 C 269.44 10.39 269.4 15 269.4 15 L 268.6 15 C 268.6 15 268.56 10.64 268.6 10.6 C 268.6 10.2 268.5 10 268.4 9.8 C 268.2 9.6 268 9.6 267.7 9.6 C 267.5 9.6 267.2 9.6 266.9 9.7 C 266.6 9.8 266.2 10 265.9 10.2 C 265.91 10.19 265.9 15 265.9 15 L 265 15 L 265 8.9 Z M 272.7 8 L 273.5 5.9 L 274.5 5.9 L 273.4 8.1 L 272.7 8 Z M 273.2 15.1 C 272.3 15.1 271.7 14.8 271.3 14.3 C 270.9 13.8 270.6 13 270.6 12 C 270.6 11 270.9 10.2 271.3 9.6 C 271.7 9 272.3 8.8 273.1 8.8 C 273.8 8.8 274.3 9 274.7 9.4 C 275 9.9 275.2 10.6 275.2 11.4 C 275.2 11.6 275.2 11.8 275.1 11.9 C 275.1 12 275.1 12.2 275.1 12.3 C 275.1 12.3 271.5 12.3 271.5 12.3 C 271.6 13 271.7 13.5 272 13.9 C 272.3 14.2 272.7 14.4 273.2 14.4 C 273.7 14.4 274.3 14.2 274.9 14 C 274.9 14 274.9 14.7 274.9 14.7 C 274.7 14.8 274.4 14.9 274.1 15 C 273.8 15.1 273.5 15.1 273.2 15.1 Z M 273.1 9.5 C 272.2 9.5 271.6 10.2 271.5 11.6 C 271.5 11.6 274.3 11.6 274.3 11.6 C 274.3 10.8 274.2 10.3 274 10 C 273.8 9.6 273.5 9.5 273.1 9.5 Z M 278.7 5.8 L 279.6 5.8 L 279.6 11.5 L 280.5 11.5 L 282.2 8.9 L 283.2 8.9 L 281.2 11.7 L 281.1 11.8 L 281.1 11.9 L 281.3 12 L 283.4 15 L 282.4 15 L 280.4 12.2 L 279.6 12.2 L 279.6 15 L 278.7 15 L 278.7 5.8 Z M 284.2 8.9 L 284.9 8.9 L 285 9.6 C 285 9.6 285.04 9.64 285 9.6 C 285.3 9.5 285.6 9.3 285.9 9.1 C 286.2 9 286.5 8.9 286.9 8.8 C 286.89 8.77 287.1 8.8 287.1 8.8 L 287.1 9.7 C 287.1 9.7 286.78 9.68 286.8 9.7 C 286.5 9.7 286.1 9.8 285.8 9.9 C 285.5 10 285.3 10.2 285.1 10.3 C 285.06 10.31 285.1 15 285.1 15 L 284.2 15 L 284.2 8.9 Z M 287.4 9 L 287.4 8.9 L 288.3 8.9 L 289.8 13.5 L 290 14.2 L 290.1 14.2 L 290.3 13.5 L 291.8 8.9 L 292.7 8.9 L 292.7 9 L 290.6 15 L 289.5 15 L 287.4 9 Z M 294.6 15 C 294.2 15 293.8 14.9 293.5 14.6 C 293.2 14.3 293.1 13.9 293.1 13.4 C 293.1 12.9 293.3 12.4 293.6 12.1 C 294 11.8 294.6 11.6 295.3 11.6 C 295.31 11.57 296.5 11.5 296.5 11.5 C 296.5 11.5 296.52 10.9 296.5 10.9 C 296.5 10.4 296.4 10 296.2 9.8 C 296 9.6 295.7 9.5 295.2 9.5 C 295 9.5 294.7 9.5 294.4 9.6 C 294.1 9.6 293.9 9.6 293.6 9.7 C 293.6 9.7 293.5 9 293.5 9 C 294.2 8.9 294.8 8.8 295.3 8.8 C 296.1 8.8 296.6 8.9 296.9 9.3 C 297.2 9.6 297.4 10.1 297.4 10.7 C 297.4 10.73 297.4 15 297.4 15 L 296.7 15 L 296.6 14.2 C 296.6 14.2 296.51 14.24 296.5 14.2 C 296.2 14.5 295.9 14.7 295.6 14.8 C 295.3 15 295 15 294.6 15 Z M 294 13.4 C 294 14 294.3 14.3 294.9 14.3 C 295.1 14.3 295.2 14.3 295.3 14.3 C 295.5 14.2 295.6 14.2 295.8 14.1 C 295.9 14 296 14 296.2 13.9 C 296.3 13.8 296.4 13.7 296.5 13.7 C 296.52 13.65 296.5 12.1 296.5 12.1 C 296.5 12.1 295.51 12.18 295.5 12.2 C 295 12.2 294.6 12.3 294.4 12.5 C 294.1 12.7 294 13 294 13.4 C 294 13.4 294 13.4 294 13.4 Z M 295.2 8 L 296 5.9 L 296.9 5.9 L 295.8 8.1 L 295.2 8 Z M 301.2 15.1 C 300.3 15.1 299.7 14.8 299.2 14.3 C 298.8 13.8 298.6 13 298.6 11.9 C 298.6 9.8 299.5 8.8 301.2 8.8 C 301.5 8.8 301.9 8.8 302.4 8.9 C 302.4 8.9 302.4 9.7 302.4 9.7 C 302.2 9.6 302 9.6 301.8 9.6 C 301.6 9.5 301.5 9.5 301.3 9.5 C 300.7 9.5 300.2 9.7 299.9 10.1 C 299.7 10.5 299.5 11.1 299.5 11.9 C 299.5 12.8 299.7 13.4 299.9 13.8 C 300.2 14.1 300.7 14.3 301.3 14.3 C 301.5 14.3 301.6 14.3 301.8 14.3 C 302 14.3 302.2 14.2 302.4 14.2 C 302.4 14.2 302.4 14.9 302.4 14.9 C 302.2 15 302 15 301.8 15.1 C 301.6 15.1 301.4 15.1 301.2 15.1 Z M 304.7 15 C 304.2 15 303.8 14.9 303.6 14.6 C 303.3 14.3 303.2 13.9 303.2 13.4 C 303.2 12.9 303.3 12.4 303.7 12.1 C 304 11.8 304.6 11.6 305.4 11.6 C 305.36 11.57 306.6 11.5 306.6 11.5 C 306.6 11.5 306.57 10.9 306.6 10.9 C 306.6 10.4 306.5 10 306.3 9.8 C 306.1 9.6 305.7 9.5 305.2 9.5 C 305 9.5 304.8 9.5 304.5 9.6 C 304.2 9.6 303.9 9.6 303.7 9.7 C 303.7 9.7 303.6 9 303.6 9 C 304.2 8.9 304.9 8.8 305.4 8.8 C 306.1 8.8 306.6 8.9 307 9.3 C 307.3 9.6 307.5 10.1 307.5 10.7 C 307.46 10.73 307.5 15 307.5 15 L 306.7 15 L 306.6 14.2 C 306.6 14.2 306.56 14.24 306.6 14.2 C 306.3 14.5 306 14.7 305.7 14.8 C 305.3 15 305 15 304.7 15 Z M 304.1 13.4 C 304.1 14 304.4 14.3 305 14.3 C 305.1 14.3 305.2 14.3 305.4 14.3 C 305.5 14.2 305.7 14.2 305.8 14.1 C 305.9 14 306.1 14 306.2 13.9 C 306.3 13.8 306.5 13.7 306.6 13.7 C 306.57 13.65 306.6 12.1 306.6 12.1 C 306.6 12.1 305.56 12.18 305.6 12.2 C 305 12.2 304.6 12.3 304.4 12.5 C 304.2 12.7 304.1 13 304.1 13.4 C 304.1 13.4 304.1 13.4 304.1 13.4 Z M 308.9 8.9 L 309.7 8.9 L 309.7 9.6 C 309.7 9.6 309.8 9.55 309.8 9.6 C 310.3 9.3 310.7 9.1 311 8.9 C 311.3 8.8 311.7 8.8 312 8.8 C 312.4 8.8 312.8 8.9 313 9.1 C 313.2 9.4 313.4 9.8 313.4 10.4 C 313.36 10.39 313.4 15 313.4 15 L 312.5 15 C 312.5 15 312.48 10.64 312.5 10.6 C 312.5 10.2 312.4 10 312.3 9.8 C 312.1 9.6 311.9 9.6 311.6 9.6 C 311.4 9.6 311.1 9.6 310.8 9.7 C 310.5 9.8 310.2 10 309.8 10.2 C 309.83 10.19 309.8 15 309.8 15 L 308.9 15 L 308.9 8.9 Z M 315.9 7 C 315.9 7.3 315.7 7.5 315.3 7.5 C 314.9 7.5 314.7 7.3 314.7 7 C 314.7 6.6 314.9 6.4 315.3 6.4 C 315.7 6.4 315.9 6.6 315.9 7 C 315.9 7 315.9 7 315.9 7 Z M 314.9 8.9 L 315.7 8.9 L 315.7 15 L 314.9 15 L 314.9 8.9 Z M 319.5 15.1 C 318.7 15.1 318.1 14.8 317.6 14.3 C 317.2 13.8 317 13 317 12 C 317 11 317.2 10.2 317.6 9.6 C 318 9 318.7 8.8 319.5 8.8 C 320.2 8.8 320.7 9 321 9.4 C 321.3 9.9 321.5 10.6 321.5 11.4 C 321.5 11.6 321.5 11.8 321.5 11.9 C 321.5 12 321.5 12.2 321.5 12.3 C 321.5 12.3 317.9 12.3 317.9 12.3 C 317.9 13 318.1 13.5 318.4 13.9 C 318.6 14.2 319 14.4 319.6 14.4 C 320.1 14.4 320.6 14.2 321.2 14 C 321.2 14 321.3 14.7 321.3 14.7 C 321 14.8 320.7 14.9 320.4 15 C 320.1 15.1 319.8 15.1 319.5 15.1 Z M 319.4 9.5 C 318.5 9.5 318 10.2 317.9 11.6 C 317.9 11.6 320.7 11.6 320.7 11.6 C 320.7 10.8 320.6 10.3 320.4 10 C 320.2 9.6 319.9 9.5 319.4 9.5 Z " stroke="none" fill="#68adca"/>  </g>  <g id="Polygon80479">    <path d="M 29.1 6.7 C 29.8 6.5 30.4 6.5 31 6.5 C 32.2 6.5 33 6.7 33.5 7.2 C 34.1 7.6 34.3 8.4 34.3 9.4 C 34.3 10.4 34.1 11.1 33.5 11.6 C 33 12 32.1 12.3 31 12.3 C 30.7 12.3 30.4 12.2 30 12.2 C 30.05 12.23 30 15 30 15 L 29.1 15 C 29.1 15 29.14 6.66 29.1 6.7 Z M 31.1 11.5 C 31.9 11.5 32.5 11.3 32.9 11 C 33.2 10.7 33.4 10.1 33.4 9.4 C 33.4 8.6 33.2 8.1 32.9 7.8 C 32.5 7.4 32 7.3 31.2 7.3 C 31 7.3 30.8 7.3 30.6 7.3 C 30.4 7.3 30.2 7.3 30 7.4 C 30 7.4 30 11.4 30 11.4 C 30.2 11.4 30.4 11.4 30.6 11.5 C 30.8 11.5 30.9 11.5 31.1 11.5 Z M 35.5 5.8 L 36.4 5.8 L 36.4 15 L 35.5 15 L 35.5 5.8 Z M 39 15 C 38.5 15 38.2 14.9 37.9 14.6 C 37.6 14.3 37.5 13.9 37.5 13.4 C 37.5 12.9 37.7 12.4 38 12.1 C 38.4 11.8 38.9 11.6 39.7 11.6 C 39.69 11.57 40.9 11.5 40.9 11.5 C 40.9 11.5 40.9 10.9 40.9 10.9 C 40.9 10.4 40.8 10 40.6 9.8 C 40.4 9.6 40.1 9.5 39.6 9.5 C 39.4 9.5 39.1 9.5 38.8 9.6 C 38.5 9.6 38.3 9.6 38 9.7 C 38 9.7 37.9 9 37.9 9 C 38.6 8.9 39.2 8.8 39.7 8.8 C 40.4 8.8 41 8.9 41.3 9.3 C 41.6 9.6 41.8 10.1 41.8 10.7 C 41.79 10.73 41.8 15 41.8 15 L 41.1 15 L 41 14.2 C 41 14.2 40.89 14.24 40.9 14.2 C 40.6 14.5 40.3 14.7 40 14.8 C 39.7 15 39.4 15 39 15 Z M 38.4 13.4 C 38.4 14 38.7 14.3 39.3 14.3 C 39.4 14.3 39.6 14.3 39.7 14.3 C 39.9 14.2 40 14.2 40.1 14.1 C 40.3 14 40.4 14 40.5 13.9 C 40.7 13.8 40.8 13.7 40.9 13.7 C 40.9 13.65 40.9 12.1 40.9 12.1 C 40.9 12.1 39.9 12.18 39.9 12.2 C 39.4 12.2 39 12.3 38.7 12.5 C 38.5 12.7 38.4 13 38.4 13.4 C 38.4 13.4 38.4 13.4 38.4 13.4 Z M 39.5 8 L 40.3 5.9 L 41.3 5.9 L 40.2 8.1 L 39.5 8 Z M 43.3 8.9 L 44 8.9 L 44.1 9.6 C 44.1 9.6 44.14 9.55 44.1 9.6 C 44.6 9.3 45 9.1 45.3 8.9 C 45.7 8.8 46 8.8 46.3 8.8 C 46.8 8.8 47.1 8.9 47.4 9.1 C 47.6 9.4 47.7 9.8 47.7 10.4 C 47.69 10.39 47.7 15 47.7 15 L 46.8 15 C 46.8 15 46.81 10.64 46.8 10.6 C 46.8 10.2 46.7 10 46.6 9.8 C 46.5 9.6 46.3 9.6 46 9.6 C 45.7 9.6 45.4 9.6 45.1 9.7 C 44.8 9.8 44.5 10 44.2 10.2 C 44.16 10.19 44.2 15 44.2 15 L 43.3 15 L 43.3 8.9 Z M 51.4 15.1 C 50.6 15.1 49.9 14.8 49.5 14.3 C 49.1 13.8 48.9 13 48.9 11.9 C 48.9 10.9 49.1 10.1 49.5 9.6 C 50 9 50.6 8.8 51.4 8.8 C 52.2 8.8 52.8 9 53.2 9.6 C 53.7 10.1 53.9 10.9 53.9 11.9 C 53.9 13 53.7 13.8 53.2 14.3 C 52.8 14.8 52.2 15.1 51.4 15.1 Z M 51.4 14.4 C 51.9 14.4 52.3 14.2 52.6 13.8 C 52.8 13.4 53 12.8 53 11.9 C 53 11.1 52.8 10.5 52.6 10.1 C 52.3 9.7 51.9 9.5 51.4 9.5 C 50.8 9.5 50.4 9.7 50.2 10.1 C 49.9 10.5 49.8 11.1 49.8 11.9 C 49.8 12.8 49.9 13.4 50.2 13.8 C 50.4 14.2 50.8 14.4 51.4 14.4 Z M 54.4 9 L 54.4 8.9 L 55.3 8.9 L 56.8 13.5 L 57 14.2 L 57.1 14.2 L 57.3 13.5 L 58.8 8.9 L 59.7 8.9 L 59.7 9 L 57.6 15 L 56.5 15 L 54.4 9 Z M 61.6 15 C 61.1 15 60.8 14.9 60.5 14.6 C 60.2 14.3 60.1 13.9 60.1 13.4 C 60.1 12.9 60.3 12.4 60.6 12.1 C 61 11.8 61.5 11.6 62.3 11.6 C 62.3 11.57 63.5 11.5 63.5 11.5 C 63.5 11.5 63.52 10.9 63.5 10.9 C 63.5 10.4 63.4 10 63.2 9.8 C 63 9.6 62.7 9.5 62.2 9.5 C 62 9.5 61.7 9.5 61.4 9.6 C 61.1 9.6 60.9 9.6 60.6 9.7 C 60.6 9.7 60.5 9 60.5 9 C 61.2 8.9 61.8 8.8 62.3 8.8 C 63 8.8 63.6 8.9 63.9 9.3 C 64.2 9.6 64.4 10.1 64.4 10.7 C 64.4 10.73 64.4 15 64.4 15 L 63.7 15 L 63.6 14.2 C 63.6 14.2 63.51 14.24 63.5 14.2 C 63.2 14.5 62.9 14.7 62.6 14.8 C 62.3 15 62 15 61.6 15 Z M 61 13.4 C 61 14 61.3 14.3 61.9 14.3 C 62.1 14.3 62.2 14.3 62.3 14.3 C 62.5 14.2 62.6 14.2 62.8 14.1 C 62.9 14 63 14 63.2 13.9 C 63.3 13.8 63.4 13.7 63.5 13.7 C 63.52 13.65 63.5 12.1 63.5 12.1 C 63.5 12.1 62.51 12.18 62.5 12.2 C 62 12.2 61.6 12.3 61.4 12.5 C 61.1 12.7 61 13 61 13.4 C 61 13.4 61 13.4 61 13.4 Z M 65.9 8.9 L 66.6 8.9 L 66.7 9.6 C 66.7 9.6 66.75 9.55 66.7 9.6 C 67.2 9.3 67.6 9.1 67.9 8.9 C 68.3 8.8 68.6 8.8 68.9 8.8 C 69.4 8.8 69.7 8.9 70 9.1 C 70.2 9.4 70.3 9.8 70.3 10.4 C 70.31 10.39 70.3 15 70.3 15 L 69.4 15 C 69.4 15 69.42 10.64 69.4 10.6 C 69.4 10.2 69.4 10 69.2 9.8 C 69.1 9.6 68.9 9.6 68.6 9.6 C 68.3 9.6 68 9.6 67.7 9.7 C 67.4 9.8 67.1 10 66.8 10.2 C 66.77 10.19 66.8 15 66.8 15 L 65.9 15 L 65.9 8.9 Z M 73.6 8 L 74.4 5.9 L 75.3 5.9 L 74.2 8.1 L 73.6 8 Z M 74 15.1 C 73.2 15.1 72.6 14.8 72.2 14.3 C 71.7 13.8 71.5 13 71.5 12 C 71.5 11 71.7 10.2 72.1 9.6 C 72.6 9 73.2 8.8 74 8.8 C 74.7 8.8 75.2 9 75.5 9.4 C 75.9 9.9 76 10.6 76 11.4 C 76 11.6 76 11.8 76 11.9 C 76 12 76 12.2 76 12.3 C 76 12.3 72.4 12.3 72.4 12.3 C 72.4 13 72.6 13.5 72.9 13.9 C 73.1 14.2 73.6 14.4 74.1 14.4 C 74.6 14.4 75.2 14.2 75.7 14 C 75.7 14 75.8 14.7 75.8 14.7 C 75.5 14.8 75.3 14.9 75 15 C 74.6 15.1 74.3 15.1 74 15.1 Z M 74 9.5 C 73 9.5 72.5 10.2 72.4 11.6 C 72.4 11.6 75.2 11.6 75.2 11.6 C 75.2 10.8 75.1 10.3 74.9 10 C 74.7 9.6 74.4 9.5 74 9.5 Z M 79.6 5.8 L 80.5 5.8 L 80.5 11.5 L 81.3 11.5 L 83.1 8.9 L 84.1 8.9 L 82.1 11.7 L 81.9 11.8 L 81.9 11.9 L 82.1 12 L 84.3 15 L 83.3 15 L 81.3 12.2 L 80.5 12.2 L 80.5 15 L 79.6 15 L 79.6 5.8 Z M 85 8.9 L 85.8 8.9 L 85.8 9.6 C 85.8 9.6 85.9 9.64 85.9 9.6 C 86.1 9.5 86.4 9.3 86.7 9.1 C 87.1 9 87.4 8.9 87.7 8.8 C 87.75 8.77 88 8.8 88 8.8 L 88 9.7 C 88 9.7 87.65 9.68 87.6 9.7 C 87.3 9.7 87 9.8 86.7 9.9 C 86.4 10 86.1 10.2 85.9 10.3 C 85.92 10.31 85.9 15 85.9 15 L 85 15 L 85 8.9 Z M 88.3 9 L 88.3 8.9 L 89.2 8.9 L 90.7 13.5 L 90.9 14.2 L 91 14.2 L 91.1 13.5 L 92.6 8.9 L 93.5 8.9 L 93.5 9 L 91.5 15 L 90.3 15 L 88.3 9 Z M 95.5 15 C 95 15 94.6 14.9 94.4 14.6 C 94.1 14.3 94 13.9 94 13.4 C 94 12.9 94.1 12.4 94.5 12.1 C 94.9 11.8 95.4 11.6 96.2 11.6 C 96.17 11.57 97.4 11.5 97.4 11.5 C 97.4 11.5 97.38 10.9 97.4 10.9 C 97.4 10.4 97.3 10 97.1 9.8 C 96.9 9.6 96.5 9.5 96 9.5 C 95.8 9.5 95.6 9.5 95.3 9.6 C 95 9.6 94.7 9.6 94.5 9.7 C 94.5 9.7 94.4 9 94.4 9 C 95.1 8.9 95.7 8.8 96.2 8.8 C 96.9 8.8 97.4 8.9 97.8 9.3 C 98.1 9.6 98.3 10.1 98.3 10.7 C 98.27 10.73 98.3 15 98.3 15 L 97.5 15 L 97.4 14.2 C 97.4 14.2 97.37 14.24 97.4 14.2 C 97.1 14.5 96.8 14.7 96.5 14.8 C 96.2 15 95.8 15 95.5 15 Z M 94.9 13.4 C 94.9 14 95.2 14.3 95.8 14.3 C 95.9 14.3 96.1 14.3 96.2 14.3 C 96.3 14.2 96.5 14.2 96.6 14.1 C 96.8 14 96.9 14 97 13.9 C 97.1 13.8 97.3 13.7 97.4 13.7 C 97.38 13.65 97.4 12.1 97.4 12.1 C 97.4 12.1 96.38 12.18 96.4 12.2 C 95.8 12.2 95.4 12.3 95.2 12.5 C 95 12.7 94.9 13 94.9 13.4 C 94.9 13.4 94.9 13.4 94.9 13.4 Z M 96 8 L 96.8 5.9 L 97.8 5.9 L 96.7 8.1 L 96 8 Z M 102.1 15.1 C 101.2 15.1 100.5 14.8 100.1 14.3 C 99.7 13.8 99.5 13 99.5 11.9 C 99.5 9.8 100.3 8.8 102.1 8.8 C 102.4 8.8 102.8 8.8 103.2 8.9 C 103.2 8.9 103.2 9.7 103.2 9.7 C 103 9.6 102.9 9.6 102.7 9.6 C 102.5 9.5 102.3 9.5 102.2 9.5 C 101.5 9.5 101.1 9.7 100.8 10.1 C 100.5 10.5 100.4 11.1 100.4 11.9 C 100.4 12.8 100.5 13.4 100.8 13.8 C 101.1 14.1 101.5 14.3 102.1 14.3 C 102.3 14.3 102.5 14.3 102.7 14.3 C 102.8 14.3 103 14.2 103.2 14.2 C 103.2 14.2 103.2 14.9 103.2 14.9 C 103.1 15 102.9 15 102.7 15.1 C 102.5 15.1 102.3 15.1 102.1 15.1 Z M 105.5 15 C 105.1 15 104.7 14.9 104.4 14.6 C 104.2 14.3 104 13.9 104 13.4 C 104 12.9 104.2 12.4 104.6 12.1 C 104.9 11.8 105.5 11.6 106.2 11.6 C 106.22 11.57 107.4 11.5 107.4 11.5 C 107.4 11.5 107.44 10.9 107.4 10.9 C 107.4 10.4 107.3 10 107.1 9.8 C 106.9 9.6 106.6 9.5 106.1 9.5 C 105.9 9.5 105.6 9.5 105.4 9.6 C 105.1 9.6 104.8 9.6 104.5 9.7 C 104.5 9.7 104.4 9 104.4 9 C 105.1 8.9 105.7 8.8 106.3 8.8 C 107 8.8 107.5 8.9 107.8 9.3 C 108.2 9.6 108.3 10.1 108.3 10.7 C 108.32 10.73 108.3 15 108.3 15 L 107.6 15 L 107.5 14.2 C 107.5 14.2 107.43 14.24 107.4 14.2 C 107.1 14.5 106.8 14.7 106.5 14.8 C 106.2 15 105.9 15 105.5 15 Z M 104.9 13.4 C 104.9 14 105.2 14.3 105.9 14.3 C 106 14.3 106.1 14.3 106.3 14.3 C 106.4 14.2 106.5 14.2 106.7 14.1 C 106.8 14 106.9 14 107.1 13.9 C 107.2 13.8 107.3 13.7 107.4 13.7 C 107.44 13.65 107.4 12.1 107.4 12.1 C 107.4 12.1 106.43 12.18 106.4 12.2 C 105.9 12.2 105.5 12.3 105.3 12.5 C 105 12.7 104.9 13 104.9 13.4 C 104.9 13.4 104.9 13.4 104.9 13.4 Z M 109.8 8.9 L 110.5 8.9 L 110.6 9.6 C 110.6 9.6 110.67 9.55 110.7 9.6 C 111.1 9.3 111.5 9.1 111.9 8.9 C 112.2 8.8 112.5 8.8 112.8 8.8 C 113.3 8.8 113.7 8.9 113.9 9.1 C 114.1 9.4 114.2 9.8 114.2 10.4 C 114.23 10.39 114.2 15 114.2 15 L 113.3 15 C 113.3 15 113.34 10.64 113.3 10.6 C 113.3 10.2 113.3 10 113.1 9.8 C 113 9.6 112.8 9.6 112.5 9.6 C 112.2 9.6 112 9.6 111.7 9.7 C 111.4 9.8 111 10 110.7 10.2 C 110.69 10.19 110.7 15 110.7 15 L 109.8 15 L 109.8 8.9 Z M 116.7 7 C 116.7 7.3 116.6 7.5 116.2 7.5 C 115.8 7.5 115.6 7.3 115.6 7 C 115.6 6.6 115.8 6.4 116.2 6.4 C 116.6 6.4 116.7 6.6 116.7 7 C 116.7 7 116.7 7 116.7 7 Z M 115.7 8.9 L 116.6 8.9 L 116.6 15 L 115.7 15 L 115.7 8.9 Z M 120.4 15.1 C 119.6 15.1 118.9 14.8 118.5 14.3 C 118.1 13.8 117.9 13 117.9 12 C 117.9 11 118.1 10.2 118.5 9.6 C 118.9 9 119.5 8.8 120.3 8.8 C 121 8.8 121.5 9 121.9 9.4 C 122.2 9.9 122.4 10.6 122.4 11.4 C 122.4 11.6 122.4 11.8 122.4 11.9 C 122.3 12 122.3 12.2 122.3 12.3 C 122.3 12.3 118.7 12.3 118.7 12.3 C 118.8 13 118.9 13.5 119.2 13.9 C 119.5 14.2 119.9 14.4 120.4 14.4 C 121 14.4 121.5 14.2 122.1 14 C 122.1 14 122.1 14.7 122.1 14.7 C 121.9 14.8 121.6 14.9 121.3 15 C 121 15.1 120.7 15.1 120.4 15.1 Z M 120.3 9.5 C 119.4 9.5 118.8 10.2 118.8 11.6 C 118.8 11.6 121.5 11.6 121.5 11.6 C 121.5 10.8 121.4 10.3 121.2 10 C 121 9.6 120.7 9.5 120.3 9.5 Z " stroke="none" fill="#ee3078"/>  </g>  <g id="Group80476">    <path d="M 18.2 8.4 L 18.2 15 L 11.6 15 L 11.6 8.4 L 18.2 8.4 Z " stroke="none" fill="#ee3078"/>    <path d="M 26.5 11.7 L 3.3 11.7 " style="stroke-width:1.244023326755pt; stroke:#ee3078;" fill="none"/>  </g>  <g id="Group80480">    <path d="M 198 11.7 C 198 9.8 199.4 8.4 201.3 8.4 C 203.1 8.4 204.6 9.8 204.6 11.7 C 204.6 13.5 203.1 15 201.3 15 C 199.4 15 198 13.5 198 11.7 Z " stroke="none" fill="#68adca"/>    <path d="M 212.9 11.7 L 189.7 11.7 " style="stroke-width:1.244023326755pt; stroke:#68adca;" fill="none"/>  </g>  <g id="Group80484">    <path d="M 390.9 15 L 384.3 15 L 387.6 8.4 L 390.9 15 Z " stroke="none" fill="#bbbdc0"/>    <path d="M 399.2 11.7 L 376 11.7 " style="stroke-width:0.82934888450333pt; stroke:#bbbdc0;" fill="none"/>  </g></svg>