<?xml version="1.0" standalone="no"?><!DOCTYPE svg PUBLIC "-//W3C//DTD SVG 1.1//EN" "http://www.w3.org/Graphics/SVG/1.1/DTD/svg11.dtd"><svg xmlns="http://www.w3.org/2000/svg" version="1.1" width="723px" height="62px" viewBox="0 -4 723 62" style="top:-4px">  <desc>Estetrol sa vylu uje v mo i v podobe neakt vnych metabolitov, nekumuluje sa vo vode a v ivotnom prostred .</desc>  <defs/>  <g id="Polygon71033">    <path d="M 1.5 36.2 C 1.5 36.2 2.74 37.66 4.6 37.7 C 5.5 37.7 6.4 37.2 6.4 36.4 C 6.4 34.5 0.8 34.7 0.8 31.5 C 0.8 29.5 2.5 28.6 4.6 28.6 C 5.8 28.6 7.9 29.1 7.9 30.6 C 7.92 30.6 7.9 31.6 7.9 31.6 L 6.2 31.6 C 6.2 31.6 6.18 31.06 6.2 31.1 C 6.2 30.5 5.3 30.2 4.7 30.2 C 3.5 30.2 2.8 30.6 2.8 31.4 C 2.8 33.3 8.3 32.9 8.3 36.3 C 8.3 38.1 6.7 39.2 4.6 39.2 C 1.88 39.24 0.5 37.5 0.5 37.5 L 1.5 36.2 Z M 15.9 32.7 C 15.92 32.7 16.4 32.7 16.4 32.7 C 16.4 32.7 16.36 32.6 16.4 32.6 C 16.4 30.8 15.7 30.2 14.1 30.2 C 13.6 30.2 12.5 30.3 12.5 31 C 12.46 30.96 12.5 31.5 12.5 31.5 L 10.6 31.5 C 10.6 31.5 10.64 30.54 10.6 30.5 C 10.6 28.9 13.2 28.6 14.1 28.6 C 17.4 28.6 18.3 30.4 18.3 32.6 C 18.3 32.6 18.3 36.9 18.3 36.9 C 18.3 37.2 18.5 37.3 18.7 37.3 C 18.74 37.34 19.6 37.3 19.6 37.3 L 19.6 39 C 19.6 39 17.74 39 17.7 39 C 16.8 39 16.5 38.6 16.5 37.8 C 16.48 37.5 16.5 37.2 16.5 37.2 L 16.5 37.2 C 16.5 37.2 15.68 39.24 13.3 39.2 C 11.5 39.2 9.8 38.2 9.8 36.2 C 9.8 32.9 14.2 32.7 15.9 32.7 Z M 13.7 37.7 C 15.3 37.7 16.4 36 16.4 34.5 C 16.38 34.46 16.4 34.1 16.4 34.1 C 16.4 34.1 15.88 34.12 15.9 34.1 C 14.4 34.1 11.8 34.2 11.8 36.1 C 11.8 36.9 12.4 37.7 13.7 37.7 Z M 26.4 30.9 C 26.3 30.6 26.1 30.5 25.8 30.5 C 25.8 30.54 25.6 30.5 25.6 30.5 L 25.6 28.9 C 25.6 28.9 26.6 28.88 26.6 28.9 C 27.5 28.9 27.8 29.1 28.1 29.9 C 28.1 29.9 30.3 35.7 30.3 35.7 C 30.52 36.28 30.7 37 30.7 37 L 30.7 37 C 30.7 37 30.88 36.28 31.1 35.7 C 31.1 35.7 33.2 29.9 33.2 29.9 C 33.5 29.1 33.9 28.9 34.8 28.9 C 34.78 28.88 35.7 28.9 35.7 28.9 L 35.7 30.5 C 35.7 30.5 35.52 30.54 35.5 30.5 C 35.2 30.5 35 30.6 34.9 30.9 C 34.86 30.94 31.8 39 31.8 39 L 29.5 39 C 29.5 39 26.42 30.94 26.4 30.9 Z M 41.9 28.6 C 45 28.6 47.4 30.9 47.4 33.9 C 47.4 37 45 39.2 41.9 39.2 C 38.9 39.2 36.5 37 36.5 33.9 C 36.5 30.9 38.9 28.6 41.9 28.6 Z M 41.9 37.6 C 43.9 37.6 45.4 36 45.4 33.9 C 45.4 31.8 43.9 30.3 41.9 30.3 C 40 30.3 38.5 31.8 38.5 33.9 C 38.5 36 40 37.6 41.9 37.6 Z M 54.6 30.9 C 54.5 30.6 54.3 30.5 54 30.5 C 53.96 30.54 53.8 30.5 53.8 30.5 L 53.8 28.9 C 53.8 28.9 54.76 28.88 54.8 28.9 C 55.7 28.9 56 29.1 56.3 29.9 C 56.3 29.9 58.5 35.7 58.5 35.7 C 58.68 36.28 58.8 37 58.8 37 L 58.9 37 C 58.9 37 59.04 36.28 59.2 35.7 C 59.2 35.7 61.4 29.9 61.4 29.9 C 61.7 29.1 62.1 28.9 62.9 28.9 C 62.94 28.88 63.9 28.9 63.9 28.9 L 63.9 30.5 C 63.9 30.5 63.68 30.54 63.7 30.5 C 63.3 30.5 63.1 30.6 63 30.9 C 63.02 30.94 59.9 39 59.9 39 L 57.7 39 C 57.7 39 54.58 30.94 54.6 30.9 Z M 70.1 28.6 C 73.1 28.6 75.6 30.9 75.6 33.9 C 75.6 37 73.1 39.2 70.1 39.2 C 67.1 39.2 64.7 37 64.7 33.9 C 64.7 30.9 67.1 28.6 70.1 28.6 Z M 70.1 37.6 C 72 37.6 73.6 36 73.6 33.9 C 73.6 31.8 72 30.3 70.1 30.3 C 68.2 30.3 66.6 31.8 66.6 33.9 C 66.6 36 68.2 37.6 70.1 37.6 Z M 81.6 28.6 C 83.94 28.64 84.7 30.2 84.7 30.2 L 84.8 30.2 C 84.8 30.2 84.72 29.9 84.7 29.5 C 84.7 29.5 84.7 27 84.7 27 C 84.7 26.7 84.6 26.5 84.3 26.5 C 84.28 26.54 83.5 26.5 83.5 26.5 L 83.5 24.9 C 83.5 24.9 85.38 24.88 85.4 24.9 C 86.3 24.9 86.7 25.3 86.7 26.2 C 86.7 26.2 86.7 36.9 86.7 36.9 C 86.7 37.2 86.8 37.3 87.1 37.3 C 87.1 37.34 87.9 37.3 87.9 37.3 L 87.9 39 C 87.9 39 86.06 39 86.1 39 C 85.2 39 84.8 38.6 84.8 37.9 C 84.82 37.62 84.8 37.4 84.8 37.4 L 84.8 37.4 C 84.8 37.4 83.96 39.24 81.5 39.2 C 78.7 39.2 77 37.1 77 33.9 C 77 30.7 78.9 28.6 81.6 28.6 Z M 84.8 33.9 C 84.8 32.1 83.8 30.3 81.9 30.3 C 80.3 30.3 79 31.6 79 33.9 C 79 36.1 80.2 37.6 81.9 37.6 C 83.4 37.6 84.8 36.5 84.8 33.9 Z M 94.2 28.6 C 97 28.6 98.5 30.8 98.5 33.4 C 98.54 33.64 98.5 34.2 98.5 34.2 C 98.5 34.2 91.1 34.18 91.1 34.2 C 91.2 36.3 92.8 37.6 94.6 37.6 C 96.32 37.56 97.5 36.4 97.5 36.4 L 98.4 37.8 C 98.4 37.8 96.88 39.24 94.5 39.2 C 91.3 39.2 89.1 36.9 89.1 33.9 C 89.1 30.7 91.3 28.6 94.2 28.6 Z M 96.5 32.8 C 96.5 31.1 95.4 30.2 94.2 30.2 C 92.7 30.2 91.5 31.1 91.2 32.8 C 91.2 32.8 96.5 32.8 96.5 32.8 Z M 111.6 32.7 C 111.64 32.7 112.1 32.7 112.1 32.7 C 112.1 32.7 112.08 32.6 112.1 32.6 C 112.1 30.8 111.4 30.2 109.8 30.2 C 109.4 30.2 108.2 30.3 108.2 31 C 108.18 30.96 108.2 31.5 108.2 31.5 L 106.4 31.5 C 106.4 31.5 106.36 30.54 106.4 30.5 C 106.4 28.9 108.9 28.6 109.9 28.6 C 113.1 28.6 114 30.4 114 32.6 C 114 32.6 114 36.9 114 36.9 C 114 37.2 114.2 37.3 114.5 37.3 C 114.46 37.34 115.3 37.3 115.3 37.3 L 115.3 39 C 115.3 39 113.46 39 113.5 39 C 112.6 39 112.2 38.6 112.2 37.8 C 112.2 37.5 112.2 37.2 112.2 37.2 L 112.2 37.2 C 112.2 37.2 111.4 39.24 109 39.2 C 107.2 39.2 105.5 38.2 105.5 36.2 C 105.5 32.9 109.9 32.7 111.6 32.7 Z M 109.4 37.7 C 111 37.7 112.1 36 112.1 34.5 C 112.1 34.46 112.1 34.1 112.1 34.1 C 112.1 34.1 111.6 34.12 111.6 34.1 C 110.1 34.1 107.5 34.2 107.5 36.1 C 107.5 36.9 108.1 37.7 109.4 37.7 Z M 122.1 30.9 C 122 30.6 121.8 30.5 121.5 30.5 C 121.52 30.54 121.3 30.5 121.3 30.5 L 121.3 28.9 C 121.3 28.9 122.32 28.88 122.3 28.9 C 123.2 28.9 123.6 29.1 123.9 29.9 C 123.9 29.9 126 35.7 126 35.7 C 126.24 36.28 126.4 37 126.4 37 L 126.4 37 C 126.4 37 126.6 36.28 126.8 35.7 C 126.8 35.7 129 29.9 129 29.9 C 129.3 29.1 129.6 28.9 130.5 28.9 C 130.5 28.88 131.4 28.9 131.4 28.9 L 131.4 30.5 C 131.4 30.5 131.24 30.54 131.2 30.5 C 130.9 30.5 130.7 30.6 130.6 30.9 C 130.58 30.94 127.5 39 127.5 39 L 125.3 39 C 125.3 39 122.14 30.94 122.1 30.9 Z M 137.7 37.9 C 137.7 37.9 142.92 31.48 142.9 31.5 C 143.36 30.94 143.8 30.5 143.8 30.5 L 143.8 30.5 C 143.8 30.5 143.44 30.54 142.8 30.5 C 142.8 30.5 140 30.5 140 30.5 C 139.7 30.5 139.6 30.7 139.6 31 C 139.58 30.98 139.6 31.7 139.6 31.7 L 137.8 31.7 C 137.8 31.7 137.8 30.16 137.8 30.2 C 137.8 29.3 138.2 28.9 139.1 28.9 C 139.08 28.88 146.3 28.9 146.3 28.9 L 146.3 30 C 146.3 30 141.12 36.42 141.1 36.4 C 140.7 36.92 140.3 37.3 140.3 37.3 L 140.3 37.4 C 140.3 37.4 140.6 37.34 141.3 37.3 C 141.3 37.3 144.5 37.3 144.5 37.3 C 144.8 37.3 144.9 37.2 144.9 36.9 C 144.94 36.9 144.9 36.2 144.9 36.2 L 146.7 36.2 C 146.7 36.2 146.7 37.72 146.7 37.7 C 146.7 38.6 146.3 39 145.4 39 C 145.42 39 137.7 39 137.7 39 L 137.7 37.9 Z M 139.6 24.9 L 141.2 24.9 L 142.3 26.5 L 142.3 26.5 L 143.3 24.9 L 144.9 24.9 L 143.2 27.4 L 141.4 27.4 L 139.6 24.9 Z M 149 24.9 L 150.8 24.9 L 150.8 26.9 L 149 26.9 L 149 24.9 Z M 149 31 C 149 30.7 148.8 30.5 148.5 30.5 C 148.54 30.54 147.7 30.5 147.7 30.5 L 147.7 28.9 C 147.7 28.9 149.62 28.88 149.6 28.9 C 150.5 28.9 150.9 29.3 150.9 30.2 C 150.9 30.2 150.9 36.9 150.9 36.9 C 150.9 37.2 151.1 37.3 151.3 37.3 C 151.34 37.34 152.2 37.3 152.2 37.3 L 152.2 39 C 152.2 39 150.26 39 150.3 39 C 149.4 39 149 38.6 149 37.7 C 149 37.7 149 31 149 31 Z M 153.7 30.9 C 153.5 30.6 153.4 30.5 153 30.5 C 153.04 30.54 152.8 30.5 152.8 30.5 L 152.8 28.9 C 152.8 28.9 153.84 28.88 153.8 28.9 C 154.7 28.9 155.1 29.1 155.4 29.9 C 155.4 29.9 157.6 35.7 157.6 35.7 C 157.76 36.28 157.9 37 157.9 37 L 158 37 C 158 37 158.12 36.28 158.3 35.7 C 158.3 35.7 160.5 29.9 160.5 29.9 C 160.8 29.1 161.1 28.9 162 28.9 C 162.02 28.88 163 28.9 163 28.9 L 163 30.5 C 163 30.5 162.76 30.54 162.8 30.5 C 162.4 30.5 162.2 30.6 162.1 30.9 C 162.1 30.94 159 39 159 39 L 156.8 39 C 156.8 39 153.66 30.94 153.7 30.9 Z M 169.2 28.6 C 172.2 28.6 174.6 30.9 174.6 33.9 C 174.6 37 172.2 39.2 169.2 39.2 C 166.2 39.2 163.7 37 163.7 33.9 C 163.7 30.9 166.2 28.6 169.2 28.6 Z M 169.2 37.6 C 171.1 37.6 172.7 36 172.7 33.9 C 172.7 31.8 171.1 30.3 169.2 30.3 C 167.3 30.3 165.7 31.8 165.7 33.9 C 165.7 36 167.3 37.6 169.2 37.6 Z M 177.1 30.4 L 175.8 30.4 L 175.8 28.9 L 177.2 28.9 L 177.2 26.1 L 179.1 26.1 L 179.1 28.9 L 181.5 28.9 L 181.5 30.4 L 179.1 30.4 C 179.1 30.4 179.08 35.08 179.1 35.1 C 179.1 37.1 180.5 37.4 181.2 37.4 C 181.5 37.36 181.7 37.3 181.7 37.3 L 181.7 39 C 181.7 39 181.42 39.08 181 39.1 C 179.7 39.1 177.1 38.7 177.1 35.3 C 177.14 35.3 177.1 30.4 177.1 30.4 Z M 184.1 31 C 184.1 30.7 183.9 30.5 183.7 30.5 C 183.66 30.54 182.8 30.5 182.8 30.5 L 182.8 28.9 C 182.8 28.9 184.7 28.88 184.7 28.9 C 185.6 28.9 186 29.3 186 30 C 186 30 186 30.4 186 30.4 C 185.98 30.7 185.9 31 185.9 31 C 185.9 31 185.98 30.96 186 31 C 186.4 30.1 187.6 28.6 189.8 28.6 C 192.2 28.6 193.3 29.9 193.3 32.5 C 193.3 32.5 193.3 36.9 193.3 36.9 C 193.3 37.2 193.4 37.3 193.7 37.3 C 193.7 37.34 194.5 37.3 194.5 37.3 L 194.5 39 C 194.5 39 192.6 39 192.6 39 C 191.7 39 191.3 38.6 191.3 37.7 C 191.3 37.7 191.3 33 191.3 33 C 191.3 31.5 191 30.4 189.4 30.4 C 187.9 30.4 186.6 31.4 186.2 32.9 C 186.1 33.3 186 33.8 186 34.3 C 186.04 34.26 186 39 186 39 L 184.1 39 C 184.1 39 184.1 30.98 184.1 31 Z M 201.1 28.6 C 204.1 28.6 206.5 30.9 206.5 33.9 C 206.5 37 204.1 39.2 201.1 39.2 C 198.1 39.2 195.6 37 195.6 33.9 C 195.6 30.9 198.1 28.6 201.1 28.6 Z M 201.1 37.6 C 203 37.6 204.6 36 204.6 33.9 C 204.6 31.8 203 30.3 201.1 30.3 C 199.2 30.3 197.6 31.8 197.6 33.9 C 197.6 36 199.2 37.6 201.1 37.6 Z M 209 31 C 209 30.7 208.8 30.5 208.5 30.5 C 208.52 30.54 207.7 30.5 207.7 30.5 L 207.7 28.9 C 207.7 28.9 209.56 28.88 209.6 28.9 C 210.4 28.9 210.8 29.3 210.8 30 C 210.8 30 210.8 30.4 210.8 30.4 C 210.84 30.7 210.8 31 210.8 31 C 210.8 31 210.86 30.96 210.9 31 C 211.3 29.8 212.7 28.6 214.3 28.6 C 216 28.6 217 29.4 217.4 30.9 C 217.4 30.9 217.4 30.9 217.4 30.9 C 218 29.7 219.4 28.6 221 28.6 C 223.3 28.6 224.3 29.9 224.3 32.5 C 224.3 32.5 224.3 36.9 224.3 36.9 C 224.3 37.2 224.5 37.3 224.8 37.3 C 224.78 37.34 225.6 37.3 225.6 37.3 L 225.6 39 C 225.6 39 223.68 39 223.7 39 C 222.8 39 222.4 38.6 222.4 37.7 C 222.4 37.7 222.4 32.9 222.4 32.9 C 222.4 31.5 222.1 30.4 220.6 30.4 C 219.2 30.4 218.1 31.6 217.8 33 C 217.7 33.4 217.6 33.9 217.6 34.4 C 217.62 34.38 217.6 39 217.6 39 L 215.7 39 C 215.7 39 215.68 32.94 215.7 32.9 C 215.7 31.6 215.5 30.4 213.9 30.4 C 212.5 30.4 211.4 31.6 211 33.1 C 210.9 33.5 210.9 33.9 210.9 34.4 C 210.9 34.38 210.9 39 210.9 39 L 209 39 C 209 39 208.96 30.98 209 31 Z M 233.1 31 C 233.1 30.7 232.9 30.5 232.6 30.5 C 232.64 30.54 231.8 30.5 231.8 30.5 L 231.8 28.9 C 231.8 28.9 233.64 28.88 233.6 28.9 C 234.5 28.9 234.9 29.3 234.9 29.9 C 234.88 30.2 234.9 30.4 234.9 30.4 L 234.9 30.4 C 234.9 30.4 235.74 28.64 238.3 28.6 C 241 28.6 242.7 30.8 242.7 33.9 C 242.7 37.2 240.8 39.2 238.1 39.2 C 235.88 39.24 235 37.6 235 37.6 L 235 37.6 C 235 37.6 235.02 37.98 235 38.5 C 235.02 38.5 235 43 235 43 L 233.1 43 C 233.1 43 233.08 30.98 233.1 31 Z M 237.8 37.6 C 239.4 37.6 240.7 36.3 240.7 34 C 240.7 31.8 239.6 30.3 237.9 30.3 C 236.4 30.3 235 31.4 235 34 C 235 35.8 235.9 37.6 237.8 37.6 Z M 245.2 31 C 245.2 30.7 245 30.5 244.7 30.5 C 244.72 30.54 243.9 30.5 243.9 30.5 L 243.9 28.9 C 243.9 28.9 245.74 28.88 245.7 28.9 C 246.6 28.9 247 29.2 247 30.1 C 247 30.1 247 30.7 247 30.7 C 247.04 31.1 247 31.4 247 31.4 C 247 31.4 247.04 31.4 247 31.4 C 247.5 29.9 248.7 28.8 250.2 28.8 C 250.5 28.76 250.8 28.8 250.8 28.8 L 250.8 30.7 C 250.8 30.7 250.5 30.66 250.2 30.7 C 248.9 30.7 247.8 31.5 247.3 33 C 247.2 33.6 247.1 34.2 247.1 34.9 C 247.1 34.86 247.1 39 247.1 39 L 245.2 39 C 245.2 39 245.16 30.98 245.2 31 Z M 257 28.6 C 260 28.6 262.4 30.9 262.4 33.9 C 262.4 37 260 39.2 257 39.2 C 253.9 39.2 251.5 37 251.5 33.9 C 251.5 30.9 253.9 28.6 257 28.6 Z M 257 37.6 C 258.9 37.6 260.4 36 260.4 33.9 C 260.4 31.8 258.9 30.3 257 30.3 C 255.1 30.3 253.5 31.8 253.5 33.9 C 253.5 36 255.1 37.6 257 37.6 Z M 264.7 36.2 C 264.7 36.2 265.88 37.66 267.7 37.7 C 268.7 37.7 269.5 37.2 269.5 36.4 C 269.5 34.5 264 34.7 264 31.5 C 264 29.5 265.7 28.6 267.7 28.6 C 269 28.6 271.1 29.1 271.1 30.6 C 271.06 30.6 271.1 31.6 271.1 31.6 L 269.3 31.6 C 269.3 31.6 269.32 31.06 269.3 31.1 C 269.3 30.5 268.4 30.2 267.8 30.2 C 266.7 30.2 265.9 30.6 265.9 31.4 C 265.9 33.3 271.4 32.9 271.4 36.3 C 271.4 38.1 269.8 39.2 267.7 39.2 C 265.02 39.24 263.7 37.5 263.7 37.5 L 264.7 36.2 Z M 274 30.4 L 272.7 30.4 L 272.7 28.9 L 274 28.9 L 274 26.1 L 275.9 26.1 L 275.9 28.9 L 278.4 28.9 L 278.4 30.4 L 275.9 30.4 C 275.9 30.4 275.94 35.08 275.9 35.1 C 275.9 37.1 277.3 37.4 278.1 37.4 C 278.36 37.36 278.5 37.3 278.5 37.3 L 278.5 39 C 278.5 39 278.28 39.08 277.9 39.1 C 276.6 39.1 274 38.7 274 35.3 C 274 35.3 274 30.4 274 30.4 Z M 281 31 C 281 30.7 280.8 30.5 280.5 30.5 C 280.52 30.54 279.7 30.5 279.7 30.5 L 279.7 28.9 C 279.7 28.9 281.54 28.88 281.5 28.9 C 282.4 28.9 282.8 29.2 282.8 30.1 C 282.8 30.1 282.8 30.7 282.8 30.7 C 282.84 31.1 282.8 31.4 282.8 31.4 C 282.8 31.4 282.84 31.4 282.8 31.4 C 283.3 29.9 284.5 28.8 286 28.8 C 286.3 28.76 286.6 28.8 286.6 28.8 L 286.6 30.7 C 286.6 30.7 286.3 30.66 286 30.7 C 284.7 30.7 283.6 31.5 283.1 33 C 283 33.6 282.9 34.2 282.9 34.9 C 282.9 34.86 282.9 39 282.9 39 L 281 39 C 281 39 280.96 30.98 281 31 Z M 292.4 28.6 C 295.2 28.6 296.8 30.8 296.8 33.4 C 296.76 33.64 296.7 34.2 296.7 34.2 C 296.7 34.2 289.32 34.18 289.3 34.2 C 289.4 36.3 291 37.6 292.8 37.6 C 294.54 37.56 295.8 36.4 295.8 36.4 L 296.6 37.8 C 296.6 37.8 295.1 39.24 292.7 39.2 C 289.5 39.2 287.3 36.9 287.3 33.9 C 287.3 30.7 289.5 28.6 292.4 28.6 Z M 294.8 32.8 C 294.7 31.1 293.6 30.2 292.4 30.2 C 290.9 30.2 289.7 31.1 289.4 32.8 C 289.4 32.8 294.8 32.8 294.8 32.8 Z M 303 28.6 C 305.3 28.64 306.1 30.2 306.1 30.2 L 306.1 30.2 C 306.1 30.2 306.08 29.9 306.1 29.5 C 306.1 29.5 306.1 27 306.1 27 C 306.1 26.7 305.9 26.5 305.6 26.5 C 305.64 26.54 304.8 26.5 304.8 26.5 L 304.8 24.9 C 304.8 24.9 306.74 24.88 306.7 24.9 C 307.6 24.9 308 25.3 308 26.2 C 308 26.2 308 36.9 308 36.9 C 308 37.2 308.2 37.3 308.5 37.3 C 308.46 37.34 309.3 37.3 309.3 37.3 L 309.3 39 C 309.3 39 307.42 39 307.4 39 C 306.5 39 306.2 38.6 306.2 37.9 C 306.18 37.62 306.2 37.4 306.2 37.4 L 306.2 37.4 C 306.2 37.4 305.32 39.24 302.8 39.2 C 300.1 39.2 298.4 37.1 298.4 33.9 C 298.4 30.7 300.3 28.6 303 28.6 Z M 306.1 33.9 C 306.1 32.1 305.2 30.3 303.3 30.3 C 301.7 30.3 300.4 31.6 300.4 33.9 C 300.4 36.1 301.5 37.6 303.2 37.6 C 304.7 37.6 306.1 36.5 306.1 33.9 Z M 311.5 31 C 311.5 30.7 311.4 30.5 311.1 30.5 C 311.1 30.54 310.3 30.5 310.3 30.5 L 310.3 28.9 C 310.3 28.9 312.2 28.88 312.2 28.9 C 313.1 28.9 313.5 29.3 313.5 30.2 C 313.5 30.2 313.5 36.9 313.5 36.9 C 313.5 37.2 313.6 37.3 313.9 37.3 C 313.92 37.34 314.7 37.3 314.7 37.3 L 314.7 39 C 314.7 39 312.84 39 312.8 39 C 311.9 39 311.5 38.6 311.5 37.7 C 311.5 37.7 311.5 31 311.5 31 Z M 313 24.9 L 315 24.9 L 313.1 27.4 L 311.6 27.4 L 313 24.9 Z M 316.7 36.9 L 318.7 36.9 L 318.7 39 L 316.7 39 L 316.7 36.9 Z " stroke="none" fill="#ee3078"/>  </g>  <g id="Polygon71032">    <path d="M 2.1 2.6 L 0.8 2.6 L 0.8 0.9 C 0.8 0.9 9.06 0.88 9.1 0.9 C 10 0.9 10.3 1.3 10.3 2.2 C 10.34 2.16 10.3 3.9 10.3 3.9 L 8.5 3.9 C 8.5 3.9 8.52 3.04 8.5 3 C 8.5 2.7 8.4 2.6 8.1 2.6 C 8.08 2.6 4.1 2.6 4.1 2.6 L 4.1 7 L 9 7 L 9 8.7 L 4.1 8.7 C 4.1 8.7 4.06 12.84 4.1 12.8 C 4.1 13.1 4.2 13.3 4.5 13.3 C 4.5 13.3 8.6 13.3 8.6 13.3 C 8.9 13.3 9.1 13.1 9.1 12.8 C 9.06 12.84 9.1 11.9 9.1 11.9 L 10.9 11.9 C 10.9 11.9 10.9 13.72 10.9 13.7 C 10.9 14.6 10.5 15 9.6 15 C 9.6 15 3.3 15 3.3 15 C 2.4 15 2.1 14.6 2.1 13.7 C 2.06 13.72 2.1 2.6 2.1 2.6 Z M 12.9 12.2 C 12.9 12.2 14.1 13.66 16 13.7 C 16.9 13.7 17.7 13.2 17.7 12.4 C 17.7 10.5 12.2 10.7 12.2 7.5 C 12.2 5.5 13.9 4.6 16 4.6 C 17.2 4.6 19.3 5.1 19.3 6.6 C 19.28 6.6 19.3 7.6 19.3 7.6 L 17.5 7.6 C 17.5 7.6 17.54 7.06 17.5 7.1 C 17.5 6.5 16.6 6.2 16 6.2 C 14.9 6.2 14.1 6.6 14.1 7.4 C 14.1 9.3 19.7 8.9 19.7 12.3 C 19.7 14.1 18.1 15.2 15.9 15.2 C 13.24 15.24 11.9 13.5 11.9 13.5 L 12.9 12.2 Z M 22.2 6.4 L 20.9 6.4 L 20.9 4.9 L 22.3 4.9 L 22.3 2.1 L 24.2 2.1 L 24.2 4.9 L 26.6 4.9 L 26.6 6.4 L 24.2 6.4 C 24.2 6.4 24.16 11.08 24.2 11.1 C 24.2 13.1 25.6 13.4 26.3 13.4 C 26.58 13.36 26.8 13.3 26.8 13.3 L 26.8 15 C 26.8 15 26.5 15.08 26.1 15.1 C 24.8 15.1 22.2 14.7 22.2 11.3 C 22.22 11.3 22.2 6.4 22.2 6.4 Z M 33.1 4.6 C 35.9 4.6 37.5 6.8 37.5 9.4 C 37.46 9.64 37.4 10.2 37.4 10.2 C 37.4 10.2 30.02 10.18 30 10.2 C 30.1 12.3 31.7 13.6 33.5 13.6 C 35.24 13.56 36.5 12.4 36.5 12.4 L 37.3 13.8 C 37.3 13.8 35.8 15.24 33.4 15.2 C 30.2 15.2 28 12.9 28 9.9 C 28 6.7 30.2 4.6 33.1 4.6 Z M 35.5 8.8 C 35.4 7.1 34.3 6.2 33.1 6.2 C 31.6 6.2 30.4 7.1 30.1 8.8 C 30.1 8.8 35.5 8.8 35.5 8.8 Z M 40.1 6.4 L 38.8 6.4 L 38.8 4.9 L 40.2 4.9 L 40.2 2.1 L 42.1 2.1 L 42.1 4.9 L 44.5 4.9 L 44.5 6.4 L 42.1 6.4 C 42.1 6.4 42.06 11.08 42.1 11.1 C 42.1 13.1 43.5 13.4 44.2 13.4 C 44.48 13.36 44.7 13.3 44.7 13.3 L 44.7 15 C 44.7 15 44.4 15.08 44 15.1 C 42.7 15.1 40.1 14.7 40.1 11.3 C 40.12 11.3 40.1 6.4 40.1 6.4 Z M 47.1 7 C 47.1 6.7 46.9 6.5 46.6 6.5 C 46.64 6.54 45.8 6.5 45.8 6.5 L 45.8 4.9 C 45.8 4.9 47.66 4.88 47.7 4.9 C 48.5 4.9 49 5.2 49 6.1 C 49 6.1 49 6.7 49 6.7 C 48.96 7.1 48.9 7.4 48.9 7.4 C 48.9 7.4 48.96 7.4 49 7.4 C 49.4 5.9 50.6 4.8 52.2 4.8 C 52.42 4.76 52.7 4.8 52.7 4.8 L 52.7 6.7 C 52.7 6.7 52.42 6.66 52.1 6.7 C 50.9 6.7 49.7 7.5 49.3 9 C 49.1 9.6 49 10.2 49 10.9 C 49.02 10.86 49 15 49 15 L 47.1 15 C 47.1 15 47.08 6.98 47.1 7 Z M 58.9 4.6 C 61.9 4.6 64.3 6.9 64.3 9.9 C 64.3 13 61.9 15.2 58.9 15.2 C 55.9 15.2 53.4 13 53.4 9.9 C 53.4 6.9 55.9 4.6 58.9 4.6 Z M 58.9 13.6 C 60.8 13.6 62.4 12 62.4 9.9 C 62.4 7.8 60.8 6.3 58.9 6.3 C 57 6.3 55.4 7.8 55.4 9.9 C 55.4 12 57 13.6 58.9 13.6 Z M 66.5 3 C 66.5 2.7 66.4 2.5 66.1 2.5 C 66.1 2.54 65.3 2.5 65.3 2.5 L 65.3 0.9 C 65.3 0.9 67.2 0.88 67.2 0.9 C 68.1 0.9 68.5 1.3 68.5 2.2 C 68.5 2.2 68.5 12.9 68.5 12.9 C 68.5 13.2 68.6 13.3 68.9 13.3 C 68.92 13.34 69.7 13.3 69.7 13.3 L 69.7 15 C 69.7 15 67.82 15 67.8 15 C 66.9 15 66.5 14.6 66.5 13.7 C 66.5 13.7 66.5 3 66.5 3 Z M 77.2 12.2 C 77.2 12.2 78.36 13.66 80.2 13.7 C 81.2 13.7 82 13.2 82 12.4 C 82 10.5 76.5 10.7 76.5 7.5 C 76.5 5.5 78.2 4.6 80.2 4.6 C 81.4 4.6 83.5 5.1 83.5 6.6 C 83.54 6.6 83.5 7.6 83.5 7.6 L 81.8 7.6 C 81.8 7.6 81.8 7.06 81.8 7.1 C 81.8 6.5 80.9 6.2 80.3 6.2 C 79.1 6.2 78.4 6.6 78.4 7.4 C 78.4 9.3 83.9 8.9 83.9 12.3 C 83.9 14.1 82.3 15.2 80.2 15.2 C 77.5 15.24 76.2 13.5 76.2 13.5 L 77.2 12.2 Z M 91.5 8.7 C 91.54 8.7 92 8.7 92 8.7 C 92 8.7 91.98 8.6 92 8.6 C 92 6.8 91.3 6.2 89.7 6.2 C 89.3 6.2 88.1 6.3 88.1 7 C 88.08 6.96 88.1 7.5 88.1 7.5 L 86.3 7.5 C 86.3 7.5 86.26 6.54 86.3 6.5 C 86.3 4.9 88.8 4.6 89.8 4.6 C 93 4.6 93.9 6.4 93.9 8.6 C 93.9 8.6 93.9 12.9 93.9 12.9 C 93.9 13.2 94.1 13.3 94.4 13.3 C 94.36 13.34 95.2 13.3 95.2 13.3 L 95.2 15 C 95.2 15 93.36 15 93.4 15 C 92.5 15 92.1 14.6 92.1 13.8 C 92.1 13.5 92.1 13.2 92.1 13.2 L 92.1 13.2 C 92.1 13.2 91.3 15.24 88.9 15.2 C 87.1 15.2 85.4 14.2 85.4 12.2 C 85.4 8.9 89.8 8.7 91.5 8.7 Z M 89.3 13.7 C 90.9 13.7 92 12 92 10.5 C 92 10.46 92 10.1 92 10.1 C 92 10.1 91.5 10.12 91.5 10.1 C 90 10.1 87.4 10.2 87.4 12.1 C 87.4 12.9 88 13.7 89.3 13.7 Z M 102 6.9 C 101.9 6.6 101.7 6.5 101.4 6.5 C 101.42 6.54 101.2 6.5 101.2 6.5 L 101.2 4.9 C 101.2 4.9 102.22 4.88 102.2 4.9 C 103.1 4.9 103.5 5.1 103.8 5.9 C 103.8 5.9 105.9 11.7 105.9 11.7 C 106.14 12.28 106.3 13 106.3 13 L 106.3 13 C 106.3 13 106.5 12.28 106.7 11.7 C 106.7 11.7 108.9 5.9 108.9 5.9 C 109.2 5.1 109.5 4.9 110.4 4.9 C 110.4 4.88 111.3 4.9 111.3 4.9 L 111.3 6.5 C 111.3 6.5 111.14 6.54 111.1 6.5 C 110.8 6.5 110.6 6.6 110.5 6.9 C 110.48 6.94 107.4 15 107.4 15 L 105.2 15 C 105.2 15 102.04 6.94 102 6.9 Z M 114 17.5 C 114.8 17.5 115.4 17 115.8 16.1 C 115.76 16.06 116.2 15 116.2 15 C 116.2 15 112.76 6.94 112.8 6.9 C 112.6 6.6 112.4 6.5 112.1 6.5 C 112.12 6.54 111.9 6.5 111.9 6.5 L 111.9 4.9 C 111.9 4.9 113.02 4.88 113 4.9 C 113.8 4.9 114.1 5.1 114.5 5.9 C 114.5 5.9 116.8 11.6 116.8 11.6 C 116.96 12.12 117.1 12.8 117.1 12.8 L 117.2 12.8 C 117.2 12.8 117.3 12.12 117.5 11.6 C 117.5 11.6 119.6 5.9 119.6 5.9 C 119.9 5.1 120.3 4.9 121.1 4.9 C 121.08 4.88 122.2 4.9 122.2 4.9 L 122.2 6.5 C 122.2 6.5 121.98 6.54 122 6.5 C 121.7 6.5 121.5 6.6 121.3 6.9 C 121.3 6.9 117.3 16.8 117.3 16.8 C 116.7 18.4 115.5 19.2 114.1 19.2 C 112.58 19.2 111.7 18.2 111.7 18.2 C 111.7 18.2 112.5 16.8 112.5 16.8 C 112.5 16.8 113.1 17.5 114 17.5 Z M 124.2 3 C 124.2 2.7 124 2.5 123.7 2.5 C 123.74 2.54 122.9 2.5 122.9 2.5 L 122.9 0.9 C 122.9 0.9 124.84 0.88 124.8 0.9 C 125.7 0.9 126.1 1.3 126.1 2.2 C 126.1 2.2 126.1 12.9 126.1 12.9 C 126.1 13.2 126.3 13.3 126.6 13.3 C 126.56 13.34 127.4 13.3 127.4 13.3 L 127.4 15 C 127.4 15 125.46 15 125.5 15 C 124.6 15 124.2 14.6 124.2 13.7 C 124.2 13.7 124.2 3 124.2 3 Z M 129.5 7 C 129.5 6.7 129.4 6.5 129.1 6.5 C 129.1 6.54 128.3 6.5 128.3 6.5 L 128.3 4.9 C 128.3 4.9 130.18 4.88 130.2 4.9 C 131.1 4.9 131.5 5.3 131.5 6.1 C 131.5 6.1 131.5 10.9 131.5 10.9 C 131.5 12.3 131.8 13.4 133.4 13.4 C 135.4 13.4 136.7 11.6 136.7 9.6 C 136.66 9.62 136.7 4.9 136.7 4.9 L 138.6 4.9 C 138.6 4.9 138.6 12.9 138.6 12.9 C 138.6 13.2 138.8 13.3 139 13.3 C 139.04 13.34 139.9 13.3 139.9 13.3 L 139.9 15 C 139.9 15 138 15 138 15 C 137.1 15 136.7 14.6 136.7 13.9 C 136.7 13.9 136.7 13.5 136.7 13.5 C 136.72 13.18 136.7 12.9 136.7 12.9 C 136.7 12.9 136.7 12.92 136.7 12.9 C 136.3 13.9 135 15.2 133 15.2 C 130.7 15.2 129.5 14 129.5 11.4 C 129.5 11.4 129.5 7 129.5 7 Z M 146.5 4.6 C 147.7 4.6 150.1 5.1 150.1 6.9 C 150.1 6.86 150.1 7.9 150.1 7.9 L 148.3 7.9 C 148.3 7.9 148.34 7.34 148.3 7.3 C 148.3 6.6 147.2 6.3 146.5 6.3 C 144.5 6.3 143 7.8 143 9.9 C 143 12.2 144.7 13.5 146.6 13.5 C 148.46 13.52 149.7 12.1 149.7 12.1 L 150.5 13.5 C 150.5 13.5 149.1 15.24 146.4 15.2 C 143.2 15.2 141 13 141 9.9 C 141 7 143.2 4.6 146.5 4.6 Z M 143.5 0.9 L 145.1 0.9 L 146.1 2.5 L 146.1 2.5 L 147.2 0.9 L 148.8 0.9 L 147 3.4 L 145.2 3.4 L 143.5 0.9 Z M 152.6 7 C 152.6 6.7 152.5 6.5 152.2 6.5 C 152.18 6.54 151.4 6.5 151.4 6.5 L 151.4 4.9 C 151.4 4.9 153.26 4.88 153.3 4.9 C 154.2 4.9 154.6 5.3 154.6 6.1 C 154.6 6.1 154.6 10.9 154.6 10.9 C 154.6 12.3 154.8 13.4 156.4 13.4 C 158.5 13.4 159.7 11.6 159.7 9.6 C 159.74 9.62 159.7 4.9 159.7 4.9 L 161.7 4.9 C 161.7 4.9 161.68 12.9 161.7 12.9 C 161.7 13.2 161.8 13.3 162.1 13.3 C 162.12 13.34 162.9 13.3 162.9 13.3 L 162.9 15 C 162.9 15 161.08 15 161.1 15 C 160.2 15 159.8 14.6 159.8 13.9 C 159.8 13.9 159.8 13.5 159.8 13.5 C 159.8 13.18 159.8 12.9 159.8 12.9 C 159.8 12.9 159.78 12.92 159.8 12.9 C 159.4 13.9 158.1 15.2 156.1 15.2 C 153.8 15.2 152.6 14 152.6 11.4 C 152.6 11.4 152.6 7 152.6 7 Z M 165.6 0.9 L 167.4 0.9 L 167.4 2.9 L 165.6 2.9 L 165.6 0.9 Z M 163.4 17.4 C 164.2 17.4 165.6 17.2 165.6 15.2 C 165.6 15.2 165.6 7 165.6 7 C 165.6 6.7 165.4 6.5 165.1 6.5 C 165.14 6.54 164.3 6.5 164.3 6.5 L 164.3 4.9 C 164.3 4.9 166.24 4.88 166.2 4.9 C 167.1 4.9 167.5 5.3 167.5 6.2 C 167.5 6.2 167.5 15.3 167.5 15.3 C 167.5 18.7 164.9 19.1 163.6 19.1 C 163.24 19.12 163 19.1 163 19.1 L 163 17.4 C 163 17.4 163.16 17.44 163.4 17.4 Z M 174.9 4.6 C 177.7 4.6 179.3 6.8 179.3 9.4 C 179.26 9.64 179.2 10.2 179.2 10.2 C 179.2 10.2 171.82 10.18 171.8 10.2 C 171.9 12.3 173.5 13.6 175.3 13.6 C 177.04 13.56 178.3 12.4 178.3 12.4 L 179.1 13.8 C 179.1 13.8 177.6 15.24 175.2 15.2 C 172 15.2 169.8 12.9 169.8 9.9 C 169.8 6.7 172 4.6 174.9 4.6 Z M 177.3 8.8 C 177.2 7.1 176.1 6.2 174.9 6.2 C 173.4 6.2 172.2 7.1 171.9 8.8 C 171.9 8.8 177.3 8.8 177.3 8.8 Z M 186.6 6.9 C 186.5 6.6 186.3 6.5 186 6.5 C 185.98 6.54 185.8 6.5 185.8 6.5 L 185.8 4.9 C 185.8 4.9 186.78 4.88 186.8 4.9 C 187.7 4.9 188 5.1 188.3 5.9 C 188.3 5.9 190.5 11.7 190.5 11.7 C 190.7 12.28 190.9 13 190.9 13 L 190.9 13 C 190.9 13 191.06 12.28 191.3 11.7 C 191.3 11.7 193.4 5.9 193.4 5.9 C 193.7 5.1 194.1 4.9 195 4.9 C 194.96 4.88 195.9 4.9 195.9 4.9 L 195.9 6.5 C 195.9 6.5 195.7 6.54 195.7 6.5 C 195.4 6.5 195.2 6.6 195 6.9 C 195.04 6.94 192 15 192 15 L 189.7 15 C 189.7 15 186.6 6.94 186.6 6.9 Z M 203.2 7 C 203.2 6.7 203.1 6.5 202.8 6.5 C 202.8 6.54 202 6.5 202 6.5 L 202 4.9 C 202 4.9 203.84 4.88 203.8 4.9 C 204.7 4.9 205.1 5.3 205.1 6 C 205.1 6 205.1 6.4 205.1 6.4 C 205.12 6.7 205.1 7 205.1 7 C 205.1 7 205.14 6.96 205.1 7 C 205.6 5.8 207 4.6 208.6 4.6 C 210.3 4.6 211.3 5.4 211.6 6.9 C 211.6 6.9 211.7 6.9 211.7 6.9 C 212.2 5.7 213.6 4.6 215.3 4.6 C 217.6 4.6 218.6 5.9 218.6 8.5 C 218.6 8.5 218.6 12.9 218.6 12.9 C 218.6 13.2 218.8 13.3 219.1 13.3 C 219.06 13.34 219.9 13.3 219.9 13.3 L 219.9 15 C 219.9 15 217.96 15 218 15 C 217.1 15 216.7 14.6 216.7 13.7 C 216.7 13.7 216.7 8.9 216.7 8.9 C 216.7 7.5 216.4 6.4 214.9 6.4 C 213.5 6.4 212.4 7.6 212.1 9 C 212 9.4 211.9 9.9 211.9 10.4 C 211.9 10.38 211.9 15 211.9 15 L 210 15 C 210 15 209.96 8.94 210 8.9 C 210 7.6 209.8 6.4 208.2 6.4 C 206.7 6.4 205.7 7.6 205.3 9.1 C 205.2 9.5 205.2 9.9 205.2 10.4 C 205.18 10.38 205.2 15 205.2 15 L 203.2 15 C 203.2 15 203.24 6.98 203.2 7 Z M 226.4 4.6 C 229.5 4.6 231.9 6.9 231.9 9.9 C 231.9 13 229.5 15.2 226.4 15.2 C 223.4 15.2 221 13 221 9.9 C 221 6.9 223.4 4.6 226.4 4.6 Z M 226.4 13.6 C 228.4 13.6 229.9 12 229.9 9.9 C 229.9 7.8 228.4 6.3 226.4 6.3 C 224.5 6.3 223 7.8 223 9.9 C 223 12 224.5 13.6 226.4 13.6 Z M 238.8 4.6 C 240 4.6 242.4 5.1 242.4 6.9 C 242.42 6.86 242.4 7.9 242.4 7.9 L 240.7 7.9 C 240.7 7.9 240.66 7.34 240.7 7.3 C 240.7 6.6 239.5 6.3 238.8 6.3 C 236.8 6.3 235.3 7.8 235.3 9.9 C 235.3 12.2 237 13.5 238.9 13.5 C 240.78 13.52 242 12.1 242 12.1 L 242.9 13.5 C 242.9 13.5 241.42 15.24 238.7 15.2 C 235.6 15.2 233.3 13 233.3 9.9 C 233.3 7 235.5 4.6 238.8 4.6 Z M 235.8 0.9 L 237.4 0.9 L 238.4 2.5 L 238.5 2.5 L 239.5 0.9 L 241.1 0.9 L 239.3 3.4 L 237.6 3.4 L 235.8 0.9 Z M 245.1 0.9 L 246.9 0.9 L 246.9 2.9 L 245.1 2.9 L 245.1 0.9 Z M 245.1 7 C 245.1 6.7 244.9 6.5 244.6 6.5 C 244.64 6.54 243.8 6.5 243.8 6.5 L 243.8 4.9 C 243.8 4.9 245.72 4.88 245.7 4.9 C 246.6 4.9 247 5.3 247 6.2 C 247 6.2 247 12.9 247 12.9 C 247 13.2 247.2 13.3 247.4 13.3 C 247.44 13.34 248.3 13.3 248.3 13.3 L 248.3 15 C 248.3 15 246.36 15 246.4 15 C 245.5 15 245.1 14.6 245.1 13.7 C 245.1 13.7 245.1 7 245.1 7 Z M 255.2 6.9 C 255.1 6.6 254.9 6.5 254.6 6.5 C 254.62 6.54 254.4 6.5 254.4 6.5 L 254.4 4.9 C 254.4 4.9 255.42 4.88 255.4 4.9 C 256.3 4.9 256.7 5.1 257 5.9 C 257 5.9 259.1 11.7 259.1 11.7 C 259.34 12.28 259.5 13 259.5 13 L 259.5 13 C 259.5 13 259.7 12.28 259.9 11.7 C 259.9 11.7 262.1 5.9 262.1 5.9 C 262.4 5.1 262.7 4.9 263.6 4.9 C 263.6 4.88 264.5 4.9 264.5 4.9 L 264.5 6.5 C 264.5 6.5 264.34 6.54 264.3 6.5 C 264 6.5 263.8 6.6 263.7 6.9 C 263.68 6.94 260.6 15 260.6 15 L 258.4 15 C 258.4 15 255.24 6.94 255.2 6.9 Z M 271.9 7 C 271.9 6.7 271.7 6.5 271.4 6.5 C 271.44 6.54 270.6 6.5 270.6 6.5 L 270.6 4.9 C 270.6 4.9 272.44 4.88 272.4 4.9 C 273.3 4.9 273.7 5.3 273.7 5.9 C 273.68 6.2 273.7 6.4 273.7 6.4 L 273.7 6.4 C 273.7 6.4 274.54 4.64 277.1 4.6 C 279.8 4.6 281.5 6.8 281.5 9.9 C 281.5 13.2 279.6 15.2 276.9 15.2 C 274.68 15.24 273.8 13.6 273.8 13.6 L 273.8 13.6 C 273.8 13.6 273.82 13.98 273.8 14.5 C 273.82 14.5 273.8 19 273.8 19 L 271.9 19 C 271.9 19 271.88 6.98 271.9 7 Z M 276.6 13.6 C 278.2 13.6 279.5 12.3 279.5 10 C 279.5 7.8 278.4 6.3 276.7 6.3 C 275.2 6.3 273.8 7.4 273.8 10 C 273.8 11.8 274.7 13.6 276.6 13.6 Z M 288.4 4.6 C 291.4 4.6 293.9 6.9 293.9 9.9 C 293.9 13 291.4 15.2 288.4 15.2 C 285.4 15.2 283 13 283 9.9 C 283 6.9 285.4 4.6 288.4 4.6 Z M 288.4 13.6 C 290.3 13.6 291.9 12 291.9 9.9 C 291.9 7.8 290.3 6.3 288.4 6.3 C 286.5 6.3 285 7.8 285 9.9 C 285 12 286.5 13.6 288.4 13.6 Z M 299.9 4.6 C 302.26 4.64 303 6.2 303 6.2 L 303.1 6.2 C 303.1 6.2 303.04 5.9 303 5.5 C 303 5.5 303 3 303 3 C 303 2.7 302.9 2.5 302.6 2.5 C 302.6 2.54 301.8 2.5 301.8 2.5 L 301.8 0.9 C 301.8 0.9 303.7 0.88 303.7 0.9 C 304.6 0.9 305 1.3 305 2.2 C 305 2.2 305 12.9 305 12.9 C 305 13.2 305.1 13.3 305.4 13.3 C 305.42 13.34 306.2 13.3 306.2 13.3 L 306.2 15 C 306.2 15 304.38 15 304.4 15 C 303.5 15 303.1 14.6 303.1 13.9 C 303.14 13.62 303.2 13.4 303.2 13.4 L 303.1 13.4 C 303.1 13.4 302.28 15.24 299.8 15.2 C 297.1 15.2 295.3 13.1 295.3 9.9 C 295.3 6.7 297.2 4.6 299.9 4.6 Z M 303.1 9.9 C 303.1 8.1 302.2 6.3 300.2 6.3 C 298.6 6.3 297.3 7.6 297.3 9.9 C 297.3 12.1 298.5 13.6 300.2 13.6 C 301.7 13.6 303.1 12.5 303.1 9.9 Z M 312.9 4.6 C 315.9 4.6 318.3 6.9 318.3 9.9 C 318.3 13 315.9 15.2 312.9 15.2 C 309.8 15.2 307.4 13 307.4 9.9 C 307.4 6.9 309.8 4.6 312.9 4.6 Z M 312.9 13.6 C 314.8 13.6 316.3 12 316.3 9.9 C 316.3 7.8 314.8 6.3 312.9 6.3 C 311 6.3 309.4 7.8 309.4 9.9 C 309.4 12 311 13.6 312.9 13.6 Z M 320.5 3 C 320.5 2.7 320.3 2.5 320 2.5 C 320.04 2.54 319.2 2.5 319.2 2.5 L 319.2 0.9 C 319.2 0.9 321.14 0.88 321.1 0.9 C 322 0.9 322.4 1.3 322.4 2.2 C 322.4 2.2 322.4 5.5 322.4 5.5 C 322.42 5.94 322.4 6.3 322.4 6.3 L 322.4 6.3 C 322.4 6.3 323.3 4.64 325.7 4.6 C 328.4 4.6 330.1 6.8 330.1 9.9 C 330.1 13.2 328.2 15.2 325.5 15.2 C 323.26 15.24 322.3 13.5 322.3 13.5 L 322.3 13.5 C 322.3 13.5 322.34 13.86 322.3 14.3 C 322.34 14.3 322.3 15 322.3 15 L 320.5 15 C 320.5 15 320.48 2.98 320.5 3 Z M 325.2 13.6 C 326.8 13.6 328.2 12.3 328.2 10 C 328.2 7.8 327 6.3 325.3 6.3 C 323.8 6.3 322.4 7.4 322.4 10 C 322.4 11.8 323.3 13.6 325.2 13.6 Z M 336.7 4.6 C 339.5 4.6 341 6.8 341 9.4 C 341.02 9.64 341 10.2 341 10.2 C 341 10.2 333.58 10.18 333.6 10.2 C 333.7 12.3 335.3 13.6 337.1 13.6 C 338.8 13.56 340 12.4 340 12.4 L 340.9 13.8 C 340.9 13.8 339.36 15.24 337 15.2 C 333.8 15.2 331.6 12.9 331.6 9.9 C 331.6 6.7 333.8 4.6 336.7 4.6 Z M 339 8.8 C 339 7.1 337.9 6.2 336.6 6.2 C 335.2 6.2 334 7.1 333.7 8.8 C 333.7 8.8 339 8.8 339 8.8 Z M 349 7 C 349 6.7 348.8 6.5 348.5 6.5 C 348.54 6.54 347.7 6.5 347.7 6.5 L 347.7 4.9 C 347.7 4.9 349.58 4.88 349.6 4.9 C 350.4 4.9 350.9 5.3 350.9 6 C 350.9 6 350.9 6.4 350.9 6.4 C 350.86 6.7 350.8 7 350.8 7 C 350.8 7 350.86 6.96 350.9 7 C 351.3 6.1 352.5 4.6 354.7 4.6 C 357.1 4.6 358.1 5.9 358.1 8.5 C 358.1 8.5 358.1 12.9 358.1 12.9 C 358.1 13.2 358.3 13.3 358.6 13.3 C 358.58 13.34 359.4 13.3 359.4 13.3 L 359.4 15 C 359.4 15 357.48 15 357.5 15 C 356.6 15 356.2 14.6 356.2 13.7 C 356.2 13.7 356.2 9 356.2 9 C 356.2 7.5 355.9 6.4 354.3 6.4 C 352.7 6.4 351.5 7.4 351.1 8.9 C 351 9.3 350.9 9.8 350.9 10.3 C 350.92 10.26 350.9 15 350.9 15 L 349 15 C 349 15 348.98 6.98 349 7 Z M 365.6 4.6 C 368.4 4.6 370 6.8 370 9.4 C 369.96 9.64 369.9 10.2 369.9 10.2 C 369.9 10.2 362.52 10.18 362.5 10.2 C 362.6 12.3 364.2 13.6 366 13.6 C 367.74 13.56 369 12.4 369 12.4 L 369.8 13.8 C 369.8 13.8 368.3 15.24 365.9 15.2 C 362.7 15.2 360.5 12.9 360.5 9.9 C 360.5 6.7 362.7 4.6 365.6 4.6 Z M 368 8.8 C 367.9 7.1 366.8 6.2 365.6 6.2 C 364.1 6.2 362.9 7.1 362.6 8.8 C 362.6 8.8 368 8.8 368 8.8 Z M 377.7 8.7 C 377.67 8.7 378.1 8.7 378.1 8.7 C 378.1 8.7 378.11 8.6 378.1 8.6 C 378.1 6.8 377.5 6.2 375.9 6.2 C 375.4 6.2 374.2 6.3 374.2 7 C 374.21 6.96 374.2 7.5 374.2 7.5 L 372.4 7.5 C 372.4 7.5 372.39 6.54 372.4 6.5 C 372.4 4.9 374.9 4.6 375.9 4.6 C 379.2 4.6 380.1 6.4 380.1 8.6 C 380.1 8.6 380.1 12.9 380.1 12.9 C 380.1 13.2 380.2 13.3 380.5 13.3 C 380.49 13.34 381.3 13.3 381.3 13.3 L 381.3 15 C 381.3 15 379.49 15 379.5 15 C 378.6 15 378.2 14.6 378.2 13.8 C 378.23 13.5 378.3 13.2 378.3 13.2 L 378.2 13.2 C 378.2 13.2 377.43 15.24 375 15.2 C 373.3 15.2 371.6 14.2 371.6 12.2 C 371.6 8.9 376 8.7 377.7 8.7 Z M 375.4 13.7 C 377.1 13.7 378.1 12 378.1 10.5 C 378.13 10.46 378.1 10.1 378.1 10.1 C 378.1 10.1 377.63 10.12 377.6 10.1 C 376.2 10.1 373.5 10.2 373.5 12.1 C 373.5 12.9 374.2 13.7 375.4 13.7 Z M 383.3 3 C 383.3 2.7 383.2 2.5 382.9 2.5 C 382.89 2.54 382.1 2.5 382.1 2.5 L 382.1 0.9 C 382.1 0.9 383.99 0.88 384 0.9 C 384.9 0.9 385.3 1.1 385.3 2 C 385.27 2.04 385.3 8.6 385.3 8.6 C 385.3 8.6 386.17 8.6 386.2 8.6 C 386.5 8.6 387 8.5 387.2 8.2 C 387.23 8.16 389.6 4.9 389.6 4.9 L 391.8 4.9 C 391.8 4.9 389.05 8.64 389.1 8.6 C 388.59 9.26 388.3 9.4 388.3 9.4 L 388.3 9.4 C 388.3 9.4 388.63 9.56 389 10.2 C 389 10.2 390.5 12.9 390.5 12.9 C 390.6 13.3 390.8 13.3 391.3 13.3 C 391.33 13.34 392 13.3 392 13.3 L 392 15 C 392 15 390.55 15 390.6 15 C 389.6 15 389.3 14.8 388.9 14.1 C 388.9 14.1 387 10.7 387 10.7 C 386.8 10.3 386.4 10.2 386 10.2 C 386.03 10.24 385.3 10.2 385.3 10.2 L 385.3 15 L 383.3 15 C 383.3 15 383.33 2.98 383.3 3 Z M 394 6.4 L 392.7 6.4 L 392.7 4.9 L 394 4.9 L 394 2.1 L 395.9 2.1 L 395.9 4.9 L 398.4 4.9 L 398.4 6.4 L 395.9 6.4 C 395.9 6.4 395.93 11.08 395.9 11.1 C 395.9 13.1 397.3 13.4 398.1 13.4 C 398.35 13.36 398.5 13.3 398.5 13.3 L 398.5 15 C 398.5 15 398.27 15.08 397.9 15.1 C 396.6 15.1 394 14.7 394 11.3 C 393.99 11.3 394 6.4 394 6.4 Z M 401.1 7 C 401.1 6.7 400.9 6.5 400.6 6.5 C 400.61 6.54 399.8 6.5 399.8 6.5 L 399.8 4.9 C 399.8 4.9 401.71 4.88 401.7 4.9 C 402.6 4.9 403 5.3 403 6.2 C 403 6.2 403 12.9 403 12.9 C 403 13.2 403.2 13.3 403.4 13.3 C 403.43 13.34 404.3 13.3 404.3 13.3 L 404.3 15 C 404.3 15 402.35 15 402.4 15 C 401.4 15 401.1 14.6 401.1 13.7 C 401.1 13.7 401.1 7 401.1 7 Z M 402.6 0.9 L 404.5 0.9 L 402.6 3.4 L 401.1 3.4 L 402.6 0.9 Z M 405.8 6.9 C 405.7 6.6 405.5 6.5 405.2 6.5 C 405.15 6.54 405 6.5 405 6.5 L 405 4.9 C 405 4.9 405.95 4.88 406 4.9 C 406.9 4.9 407.2 5.1 407.5 5.9 C 407.5 5.9 409.7 11.7 409.7 11.7 C 409.87 12.28 410 13 410 13 L 410.1 13 C 410.1 13 410.23 12.28 410.4 11.7 C 410.4 11.7 412.6 5.9 412.6 5.9 C 412.9 5.1 413.3 4.9 414.1 4.9 C 414.13 4.88 415.1 4.9 415.1 4.9 L 415.1 6.5 C 415.1 6.5 414.87 6.54 414.9 6.5 C 414.5 6.5 414.3 6.6 414.2 6.9 C 414.21 6.94 411.1 15 411.1 15 L 408.9 15 C 408.9 15 405.77 6.94 405.8 6.9 Z M 417 7 C 417 6.7 416.9 6.5 416.6 6.5 C 416.59 6.54 415.8 6.5 415.8 6.5 L 415.8 4.9 C 415.8 4.9 417.63 4.88 417.6 4.9 C 418.5 4.9 418.9 5.3 418.9 6 C 418.9 6 418.9 6.4 418.9 6.4 C 418.91 6.7 418.9 7 418.9 7 C 418.9 7 418.91 6.96 418.9 7 C 419.3 6.1 420.5 4.6 422.7 4.6 C 425.1 4.6 426.2 5.9 426.2 8.5 C 426.2 8.5 426.2 12.9 426.2 12.9 C 426.2 13.2 426.4 13.3 426.6 13.3 C 426.63 13.34 427.5 13.3 427.5 13.3 L 427.5 15 C 427.5 15 425.53 15 425.5 15 C 424.6 15 424.3 14.6 424.3 13.7 C 424.3 13.7 424.3 9 424.3 9 C 424.3 7.5 424 6.4 422.4 6.4 C 420.8 6.4 419.6 7.4 419.2 8.9 C 419 9.3 419 9.8 419 10.3 C 418.97 10.26 419 15 419 15 L 417 15 C 417 15 417.03 6.98 417 7 Z M 430 17.5 C 430.8 17.5 431.4 17 431.8 16.1 C 431.79 16.06 432.3 15 432.3 15 C 432.3 15 428.79 6.94 428.8 6.9 C 428.7 6.6 428.5 6.5 428.2 6.5 C 428.15 6.54 427.9 6.5 427.9 6.5 L 427.9 4.9 C 427.9 4.9 429.05 4.88 429.1 4.9 C 429.9 4.9 430.2 5.1 430.5 5.9 C 430.5 5.9 432.8 11.6 432.8 11.6 C 432.99 12.12 433.2 12.8 433.2 12.8 L 433.2 12.8 C 433.2 12.8 433.33 12.12 433.5 11.6 C 433.5 11.6 435.6 5.9 435.6 5.9 C 435.9 5.1 436.3 4.9 437.1 4.9 C 437.11 4.88 438.3 4.9 438.3 4.9 L 438.3 6.5 C 438.3 6.5 438.01 6.54 438 6.5 C 437.7 6.5 437.5 6.6 437.4 6.9 C 437.4 6.9 433.4 16.8 433.4 16.8 C 432.8 18.4 431.5 19.2 430.1 19.2 C 428.61 19.2 427.7 18.2 427.7 18.2 C 427.7 18.2 428.53 16.8 428.5 16.8 C 428.5 16.8 429.2 17.5 430 17.5 Z M 444.5 4.6 C 445.7 4.6 448.2 5.1 448.2 6.9 C 448.15 6.86 448.2 7.9 448.2 7.9 L 446.4 7.9 C 446.4 7.9 446.39 7.34 446.4 7.3 C 446.4 6.6 445.3 6.3 444.5 6.3 C 442.5 6.3 441.1 7.8 441.1 9.9 C 441.1 12.2 442.7 13.5 444.6 13.5 C 446.51 13.52 447.8 12.1 447.8 12.1 L 448.6 13.5 C 448.6 13.5 447.15 15.24 444.5 15.2 C 441.3 15.2 439.1 13 439.1 9.9 C 439.1 7 441.3 4.6 444.5 4.6 Z M 450.6 3 C 450.6 2.7 450.4 2.5 450.1 2.5 C 450.13 2.54 449.3 2.5 449.3 2.5 L 449.3 0.9 C 449.3 0.9 451.23 0.88 451.2 0.9 C 452.1 0.9 452.5 1.3 452.5 2.1 C 452.5 2.1 452.5 6.1 452.5 6.1 C 452.51 6.54 452.5 6.9 452.5 6.9 C 452.5 6.9 452.51 6.9 452.5 6.9 C 453 5.9 454.3 4.6 456.3 4.6 C 458.7 4.6 459.7 5.9 459.7 8.5 C 459.7 8.5 459.7 12.9 459.7 12.9 C 459.7 13.2 459.9 13.3 460.2 13.3 C 460.17 13.34 461 13.3 461 13.3 L 461 15 C 461 15 459.09 15 459.1 15 C 458.2 15 457.8 14.6 457.8 13.7 C 457.8 13.7 457.8 9 457.8 9 C 457.8 7.5 457.5 6.4 455.9 6.4 C 454.4 6.4 453.1 7.5 452.7 8.9 C 452.6 9.3 452.5 9.8 452.5 10.3 C 452.51 10.26 452.5 15 452.5 15 L 450.6 15 C 450.6 15 450.57 2.98 450.6 3 Z M 468.5 7 C 468.5 6.7 468.3 6.5 468 6.5 C 468.03 6.54 467.2 6.5 467.2 6.5 L 467.2 4.9 C 467.2 4.9 469.07 4.88 469.1 4.9 C 470 4.9 470.4 5.3 470.4 6 C 470.4 6 470.4 6.4 470.4 6.4 C 470.35 6.7 470.3 7 470.3 7 C 470.3 7 470.37 6.96 470.4 7 C 470.9 5.8 472.3 4.6 473.8 4.6 C 475.6 4.6 476.5 5.4 476.9 6.9 C 476.9 6.9 476.9 6.9 476.9 6.9 C 477.5 5.7 478.9 4.6 480.5 4.6 C 482.8 4.6 483.9 5.9 483.9 8.5 C 483.9 8.5 483.9 12.9 483.9 12.9 C 483.9 13.2 484 13.3 484.3 13.3 C 484.29 13.34 485.1 13.3 485.1 13.3 L 485.1 15 C 485.1 15 483.19 15 483.2 15 C 482.3 15 481.9 14.6 481.9 13.7 C 481.9 13.7 481.9 8.9 481.9 8.9 C 481.9 7.5 481.6 6.4 480.1 6.4 C 478.7 6.4 477.7 7.6 477.3 9 C 477.2 9.4 477.1 9.9 477.1 10.4 C 477.13 10.38 477.1 15 477.1 15 L 475.2 15 C 475.2 15 475.19 8.94 475.2 8.9 C 475.2 7.6 475 6.4 473.5 6.4 C 472 6.4 470.9 7.6 470.6 9.1 C 470.5 9.5 470.4 9.9 470.4 10.4 C 470.41 10.38 470.4 15 470.4 15 L 468.5 15 C 468.5 15 468.47 6.98 468.5 7 Z M 491.3 4.6 C 494.2 4.6 495.7 6.8 495.7 9.4 C 495.67 9.64 495.6 10.2 495.6 10.2 C 495.6 10.2 488.23 10.18 488.2 10.2 C 488.4 12.3 489.9 13.6 491.7 13.6 C 493.45 13.56 494.7 12.4 494.7 12.4 L 495.5 13.8 C 495.5 13.8 494.01 15.24 491.6 15.2 C 488.4 15.2 486.2 12.9 486.2 9.9 C 486.2 6.7 488.4 4.6 491.3 4.6 Z M 493.7 8.8 C 493.6 7.1 492.6 6.2 491.3 6.2 C 489.8 6.2 488.6 7.1 488.3 8.8 C 488.3 8.8 493.7 8.8 493.7 8.8 Z M 498.3 6.4 L 497 6.4 L 497 4.9 L 498.4 4.9 L 498.4 2.1 L 500.3 2.1 L 500.3 4.9 L 502.7 4.9 L 502.7 6.4 L 500.3 6.4 C 500.3 6.4 500.27 11.08 500.3 11.1 C 500.3 13.1 501.7 13.4 502.4 13.4 C 502.69 13.36 502.9 13.3 502.9 13.3 L 502.9 15 C 502.9 15 502.61 15.08 502.2 15.1 C 500.9 15.1 498.3 14.7 498.3 11.3 C 498.33 11.3 498.3 6.4 498.3 6.4 Z M 510.3 8.7 C 510.33 8.7 510.8 8.7 510.8 8.7 C 510.8 8.7 510.77 8.6 510.8 8.6 C 510.8 6.8 510.1 6.2 508.5 6.2 C 508.1 6.2 506.9 6.3 506.9 7 C 506.87 6.96 506.9 7.5 506.9 7.5 L 505.1 7.5 C 505.1 7.5 505.05 6.54 505.1 6.5 C 505.1 4.9 507.6 4.6 508.6 4.6 C 511.8 4.6 512.7 6.4 512.7 8.6 C 512.7 8.6 512.7 12.9 512.7 12.9 C 512.7 13.2 512.9 13.3 513.2 13.3 C 513.15 13.34 514 13.3 514 13.3 L 514 15 C 514 15 512.15 15 512.2 15 C 511.3 15 510.9 14.6 510.9 13.8 C 510.89 13.5 510.9 13.2 510.9 13.2 L 510.9 13.2 C 510.9 13.2 510.09 15.24 507.7 15.2 C 505.9 15.2 504.2 14.2 504.2 12.2 C 504.2 8.9 508.6 8.7 510.3 8.7 Z M 508.1 13.7 C 509.7 13.7 510.8 12 510.8 10.5 C 510.79 10.46 510.8 10.1 510.8 10.1 C 510.8 10.1 510.29 10.12 510.3 10.1 C 508.8 10.1 506.2 10.2 506.2 12.1 C 506.2 12.9 506.8 13.7 508.1 13.7 Z M 516 3 C 516 2.7 515.8 2.5 515.6 2.5 C 515.55 2.54 514.7 2.5 514.7 2.5 L 514.7 0.9 C 514.7 0.9 516.65 0.88 516.7 0.9 C 517.6 0.9 517.9 1.3 517.9 2.2 C 517.9 2.2 517.9 5.5 517.9 5.5 C 517.93 5.94 517.9 6.3 517.9 6.3 L 517.9 6.3 C 517.9 6.3 518.81 4.64 521.2 4.6 C 523.9 4.6 525.6 6.8 525.6 9.9 C 525.6 13.2 523.7 15.2 521 15.2 C 518.77 15.24 517.9 13.5 517.9 13.5 L 517.8 13.5 C 517.8 13.5 517.85 13.86 517.9 14.3 C 517.85 14.3 517.9 15 517.9 15 L 516 15 C 516 15 515.99 2.98 516 3 Z M 520.8 13.6 C 522.4 13.6 523.7 12.3 523.7 10 C 523.7 7.8 522.5 6.3 520.8 6.3 C 519.3 6.3 517.9 7.4 517.9 10 C 517.9 11.8 518.8 13.6 520.8 13.6 Z M 532.5 4.6 C 535.6 4.6 538 6.9 538 9.9 C 538 13 535.6 15.2 532.5 15.2 C 529.5 15.2 527.1 13 527.1 9.9 C 527.1 6.9 529.5 4.6 532.5 4.6 Z M 532.5 13.6 C 534.5 13.6 536 12 536 9.9 C 536 7.8 534.5 6.3 532.5 6.3 C 530.6 6.3 529.1 7.8 529.1 9.9 C 529.1 12 530.6 13.6 532.5 13.6 Z M 540.2 3 C 540.2 2.7 540 2.5 539.8 2.5 C 539.75 2.54 538.9 2.5 538.9 2.5 L 538.9 0.9 C 538.9 0.9 540.85 0.88 540.9 0.9 C 541.8 0.9 542.1 1.3 542.1 2.2 C 542.1 2.2 542.1 12.9 542.1 12.9 C 542.1 13.2 542.3 13.3 542.6 13.3 C 542.57 13.34 543.4 13.3 543.4 13.3 L 543.4 15 C 543.4 15 541.47 15 541.5 15 C 540.6 15 540.2 14.6 540.2 13.7 C 540.2 13.7 540.2 3 540.2 3 Z M 545.7 0.9 L 547.5 0.9 L 547.5 2.9 L 545.7 2.9 L 545.7 0.9 Z M 545.7 7 C 545.7 6.7 545.5 6.5 545.3 6.5 C 545.25 6.54 544.4 6.5 544.4 6.5 L 544.4 4.9 C 544.4 4.9 546.33 4.88 546.3 4.9 C 547.2 4.9 547.6 5.3 547.6 6.2 C 547.6 6.2 547.6 12.9 547.6 12.9 C 547.6 13.2 547.8 13.3 548.1 13.3 C 548.05 13.34 548.9 13.3 548.9 13.3 L 548.9 15 C 548.9 15 546.97 15 547 15 C 546.1 15 545.7 14.6 545.7 13.7 C 545.7 13.7 545.7 7 545.7 7 Z M 551.2 6.4 L 549.9 6.4 L 549.9 4.9 L 551.2 4.9 L 551.2 2.1 L 553.1 2.1 L 553.1 4.9 L 555.5 4.9 L 555.5 6.4 L 553.1 6.4 C 553.1 6.4 553.11 11.08 553.1 11.1 C 553.1 13.1 554.5 13.4 555.3 13.4 C 555.53 13.36 555.7 13.3 555.7 13.3 L 555.7 15 C 555.7 15 555.45 15.08 555 15.1 C 553.8 15.1 551.2 14.7 551.2 11.3 C 551.17 11.3 551.2 6.4 551.2 6.4 Z M 562.4 4.6 C 565.4 4.6 567.9 6.9 567.9 9.9 C 567.9 13 565.4 15.2 562.4 15.2 C 559.4 15.2 557 13 557 9.9 C 557 6.9 559.4 4.6 562.4 4.6 Z M 562.4 13.6 C 564.3 13.6 565.9 12 565.9 9.9 C 565.9 7.8 564.3 6.3 562.4 6.3 C 560.5 6.3 559 7.8 559 9.9 C 559 12 560.5 13.6 562.4 13.6 Z M 569.5 6.9 C 569.4 6.6 569.2 6.5 568.9 6.5 C 568.85 6.54 568.7 6.5 568.7 6.5 L 568.7 4.9 C 568.7 4.9 569.65 4.88 569.7 4.9 C 570.6 4.9 570.9 5.1 571.2 5.9 C 571.2 5.9 573.4 11.7 573.4 11.7 C 573.57 12.28 573.7 13 573.7 13 L 573.8 13 C 573.8 13 573.93 12.28 574.1 11.7 C 574.1 11.7 576.3 5.9 576.3 5.9 C 576.6 5.1 577 4.9 577.8 4.9 C 577.83 4.88 578.8 4.9 578.8 4.9 L 578.8 6.5 C 578.8 6.5 578.57 6.54 578.6 6.5 C 578.2 6.5 578 6.6 577.9 6.9 C 577.91 6.94 574.8 15 574.8 15 L 572.6 15 C 572.6 15 569.47 6.94 569.5 6.9 Z M 581.9 12.9 L 580.2 17 L 578.7 17 L 579.9 12.9 L 581.9 12.9 Z M 590.1 7 C 590.1 6.7 590 6.5 589.7 6.5 C 589.67 6.54 588.9 6.5 588.9 6.5 L 588.9 4.9 C 588.9 4.9 590.71 4.88 590.7 4.9 C 591.6 4.9 592 5.3 592 6 C 592 6 592 6.4 592 6.4 C 591.99 6.7 592 7 592 7 C 592 7 591.99 6.96 592 7 C 592.4 6.1 593.6 4.6 595.8 4.6 C 598.2 4.6 599.3 5.9 599.3 8.5 C 599.3 8.5 599.3 12.9 599.3 12.9 C 599.3 13.2 599.4 13.3 599.7 13.3 C 599.71 13.34 600.5 13.3 600.5 13.3 L 600.5 15 C 600.5 15 598.61 15 598.6 15 C 597.7 15 597.3 14.6 597.3 13.7 C 597.3 13.7 597.3 9 597.3 9 C 597.3 7.5 597.1 6.4 595.4 6.4 C 593.9 6.4 592.6 7.4 592.2 8.9 C 592.1 9.3 592.1 9.8 592.1 10.3 C 592.05 10.26 592.1 15 592.1 15 L 590.1 15 C 590.1 15 590.11 6.98 590.1 7 Z M 606.7 4.6 C 609.6 4.6 611.1 6.8 611.1 9.4 C 611.09 9.64 611 10.2 611 10.2 C 611 10.2 603.65 10.18 603.7 10.2 C 603.8 12.3 605.3 13.6 607.1 13.6 C 608.87 13.56 610.1 12.4 610.1 12.4 L 610.9 13.8 C 610.9 13.8 609.43 15.24 607 15.2 C 603.8 15.2 601.7 12.9 601.7 9.9 C 601.7 6.7 603.9 4.6 606.7 4.6 Z M 609.1 8.8 C 609 7.1 608 6.2 606.7 6.2 C 605.2 6.2 604 7.1 603.7 8.8 C 603.7 8.8 609.1 8.8 609.1 8.8 Z M 613.6 3 C 613.6 2.7 613.4 2.5 613.2 2.5 C 613.15 2.54 612.3 2.5 612.3 2.5 L 612.3 0.9 C 612.3 0.9 614.25 0.88 614.3 0.9 C 615.2 0.9 615.5 1.1 615.5 2 C 615.53 2.04 615.5 8.6 615.5 8.6 C 615.5 8.6 616.43 8.6 616.4 8.6 C 616.8 8.6 617.2 8.5 617.5 8.2 C 617.49 8.16 619.8 4.9 619.8 4.9 L 622.1 4.9 C 622.1 4.9 619.31 8.64 619.3 8.6 C 618.85 9.26 618.6 9.4 618.6 9.4 L 618.6 9.4 C 618.6 9.4 618.89 9.56 619.2 10.2 C 619.2 10.2 620.7 12.9 620.7 12.9 C 620.9 13.3 621.1 13.3 621.6 13.3 C 621.59 13.34 622.2 13.3 622.2 13.3 L 622.2 15 C 622.2 15 620.81 15 620.8 15 C 619.9 15 619.6 14.8 619.1 14.1 C 619.1 14.1 617.3 10.7 617.3 10.7 C 617.1 10.3 616.6 10.2 616.3 10.2 C 616.29 10.24 615.5 10.2 615.5 10.2 L 615.5 15 L 613.6 15 C 613.6 15 613.59 2.98 613.6 3 Z M 624.1 7 C 624.1 6.7 624 6.5 623.7 6.5 C 623.69 6.54 622.9 6.5 622.9 6.5 L 622.9 4.9 C 622.9 4.9 624.77 4.88 624.8 4.9 C 625.7 4.9 626.1 5.3 626.1 6.1 C 626.1 6.1 626.1 10.9 626.1 10.9 C 626.1 12.3 626.4 13.4 628 13.4 C 630 13.4 631.3 11.6 631.3 9.6 C 631.25 9.62 631.3 4.9 631.3 4.9 L 633.2 4.9 C 633.2 4.9 633.19 12.9 633.2 12.9 C 633.2 13.2 633.4 13.3 633.6 13.3 C 633.63 13.34 634.5 13.3 634.5 13.3 L 634.5 15 C 634.5 15 632.59 15 632.6 15 C 631.7 15 631.3 14.6 631.3 13.9 C 631.3 13.9 631.3 13.5 631.3 13.5 C 631.31 13.18 631.3 12.9 631.3 12.9 C 631.3 12.9 631.29 12.92 631.3 12.9 C 630.9 13.9 629.6 15.2 627.6 15.2 C 625.3 15.2 624.1 14 624.1 11.4 C 624.1 11.4 624.1 7 624.1 7 Z M 636.6 7 C 636.6 6.7 636.4 6.5 636.2 6.5 C 636.15 6.54 635.3 6.5 635.3 6.5 L 635.3 4.9 C 635.3 4.9 637.19 4.88 637.2 4.9 C 638.1 4.9 638.5 5.3 638.5 6 C 638.5 6 638.5 6.4 638.5 6.4 C 638.47 6.7 638.5 7 638.5 7 C 638.5 7 638.49 6.96 638.5 7 C 639 5.8 640.4 4.6 642 4.6 C 643.7 4.6 644.7 5.4 645 6.9 C 645 6.9 645 6.9 645 6.9 C 645.6 5.7 647 4.6 648.6 4.6 C 650.9 4.6 652 5.9 652 8.5 C 652 8.5 652 12.9 652 12.9 C 652 13.2 652.1 13.3 652.4 13.3 C 652.41 13.34 653.2 13.3 653.2 13.3 L 653.2 15 C 653.2 15 651.31 15 651.3 15 C 650.4 15 650 14.6 650 13.7 C 650 13.7 650 8.9 650 8.9 C 650 7.5 649.8 6.4 648.3 6.4 C 646.9 6.4 645.8 7.6 645.4 9 C 645.3 9.4 645.3 9.9 645.3 10.4 C 645.25 10.38 645.3 15 645.3 15 L 643.3 15 C 643.3 15 643.31 8.94 643.3 8.9 C 643.3 7.6 643.1 6.4 641.6 6.4 C 640.1 6.4 639.1 7.6 638.7 9.1 C 638.6 9.5 638.5 9.9 638.5 10.4 C 638.53 10.38 638.5 15 638.5 15 L 636.6 15 C 636.6 15 636.59 6.98 636.6 7 Z M 655.3 7 C 655.3 6.7 655.1 6.5 654.9 6.5 C 654.85 6.54 654 6.5 654 6.5 L 654 4.9 C 654 4.9 655.93 4.88 655.9 4.9 C 656.9 4.9 657.2 5.3 657.2 6.1 C 657.2 6.1 657.2 10.9 657.2 10.9 C 657.2 12.3 657.5 13.4 659.1 13.4 C 661.2 13.4 662.4 11.6 662.4 9.6 C 662.41 9.62 662.4 4.9 662.4 4.9 L 664.4 4.9 C 664.4 4.9 664.35 12.9 664.4 12.9 C 664.4 13.2 664.5 13.3 664.8 13.3 C 664.79 13.34 665.6 13.3 665.6 13.3 L 665.6 15 C 665.6 15 663.75 15 663.8 15 C 662.9 15 662.5 14.6 662.5 13.9 C 662.5 13.9 662.5 13.5 662.5 13.5 C 662.47 13.18 662.5 12.9 662.5 12.9 C 662.5 12.9 662.45 12.92 662.5 12.9 C 662 13.9 660.7 15.2 658.7 15.2 C 656.5 15.2 655.3 14 655.3 11.4 C 655.3 11.4 655.3 7 655.3 7 Z M 667.7 3 C 667.7 2.7 667.6 2.5 667.3 2.5 C 667.27 2.54 666.5 2.5 666.5 2.5 L 666.5 0.9 C 666.5 0.9 668.37 0.88 668.4 0.9 C 669.3 0.9 669.7 1.3 669.7 2.2 C 669.7 2.2 669.7 12.9 669.7 12.9 C 669.7 13.2 669.8 13.3 670.1 13.3 C 670.09 13.34 670.9 13.3 670.9 13.3 L 670.9 15 C 670.9 15 668.99 15 669 15 C 668.1 15 667.7 14.6 667.7 13.7 C 667.7 13.7 667.7 3 667.7 3 Z M 673.1 7 C 673.1 6.7 672.9 6.5 672.6 6.5 C 672.63 6.54 671.8 6.5 671.8 6.5 L 671.8 4.9 C 671.8 4.9 673.71 4.88 673.7 4.9 C 674.6 4.9 675 5.3 675 6.1 C 675 6.1 675 10.9 675 10.9 C 675 12.3 675.3 13.4 676.9 13.4 C 679 13.4 680.2 11.6 680.2 9.6 C 680.19 9.62 680.2 4.9 680.2 4.9 L 682.1 4.9 C 682.1 4.9 682.13 12.9 682.1 12.9 C 682.1 13.2 682.3 13.3 682.6 13.3 C 682.57 13.34 683.4 13.3 683.4 13.3 L 683.4 15 C 683.4 15 681.53 15 681.5 15 C 680.7 15 680.3 14.6 680.3 13.9 C 680.3 13.9 680.3 13.5 680.3 13.5 C 680.25 13.18 680.3 12.9 680.3 12.9 C 680.3 12.9 680.23 12.92 680.2 12.9 C 679.8 13.9 678.5 15.2 676.5 15.2 C 674.2 15.2 673.1 14 673.1 11.4 C 673.1 11.4 673.1 7 673.1 7 Z M 686.1 0.9 L 687.8 0.9 L 687.8 2.9 L 686.1 2.9 L 686.1 0.9 Z M 683.9 17.4 C 684.6 17.4 686 17.2 686 15.2 C 686 15.2 686 7 686 7 C 686 6.7 685.9 6.5 685.6 6.5 C 685.59 6.54 684.8 6.5 684.8 6.5 L 684.8 4.9 C 684.8 4.9 686.69 4.88 686.7 4.9 C 687.6 4.9 688 5.3 688 6.2 C 688 6.2 688 15.3 688 15.3 C 688 18.7 685.4 19.1 684.1 19.1 C 683.69 19.12 683.4 19.1 683.4 19.1 L 683.4 17.4 C 683.4 17.4 683.61 17.44 683.9 17.4 Z M 695.4 4.6 C 698.2 4.6 699.7 6.8 699.7 9.4 C 699.71 9.64 699.7 10.2 699.7 10.2 C 699.7 10.2 692.27 10.18 692.3 10.2 C 692.4 12.3 694 13.6 695.8 13.6 C 697.49 13.56 698.7 12.4 698.7 12.4 L 699.6 13.8 C 699.6 13.8 698.05 15.24 695.7 15.2 C 692.5 15.2 690.3 12.9 690.3 9.9 C 690.3 6.7 692.5 4.6 695.4 4.6 Z M 697.7 8.8 C 697.7 7.1 696.6 6.2 695.3 6.2 C 693.9 6.2 692.7 7.1 692.4 8.8 C 692.4 8.8 697.7 8.8 697.7 8.8 Z " stroke="none" fill="#ee3078"/>  </g></svg>