<?xml version="1.0" standalone="no"?><!DOCTYPE svg PUBLIC "-//W3C//DTD SVG 1.1//EN" "http://www.w3.org/Graphics/SVG/1.1/DTD/svg11.dtd"><svg xmlns="http://www.w3.org/2000/svg" version="1.1" width="176px" height="31.5px" viewBox="0 -4 176 31.5" style="top:-4px">  <desc>spokojnos</desc>  <defs/>  <g id="Polygon72566">    <path d="M 42.8 10.9 C 42.8 10.9 43.88 12.29 45.6 12.3 C 46.4 12.3 47.1 11.9 47.1 11.1 C 47.1 9.5 42.2 9.7 42.2 6.7 C 42.2 5 43.7 4.2 45.6 4.2 C 46.7 4.2 48.5 4.6 48.5 5.9 C 48.54 5.94 48.5 6.8 48.5 6.8 L 47 6.8 C 47 6.8 46.98 6.35 47 6.4 C 47 5.8 46.2 5.6 45.6 5.6 C 44.6 5.6 43.9 5.9 43.9 6.7 C 43.9 8.4 48.9 8 48.9 11.1 C 48.9 12.7 47.4 13.7 45.5 13.7 C 43.11 13.72 41.9 12.1 41.9 12.1 L 42.8 10.9 Z M 51.1 6.3 C 51.1 6 51 5.9 50.7 5.9 C 50.72 5.89 50 5.9 50 5.9 L 50 4.4 C 50 4.4 51.62 4.39 51.6 4.4 C 52.4 4.4 52.7 4.7 52.7 5.3 C 52.74 5.58 52.7 5.8 52.7 5.8 L 52.8 5.8 C 52.8 5.8 53.51 4.18 55.8 4.2 C 58.2 4.2 59.8 6.1 59.8 8.9 C 59.8 11.8 58 13.7 55.7 13.7 C 53.64 13.72 52.9 12.3 52.9 12.3 L 52.8 12.3 C 52.8 12.3 52.86 12.58 52.9 13.1 C 52.86 13.05 52.9 17.1 52.9 17.1 L 51.1 17.1 C 51.1 17.1 51.12 6.28 51.1 6.3 Z M 55.4 12.2 C 56.8 12.2 58 11 58 9 C 58 7 57 5.7 55.4 5.7 C 54.1 5.7 52.8 6.7 52.8 9 C 52.8 10.6 53.7 12.2 55.4 12.2 Z M 66 4.2 C 68.7 4.2 70.9 6.2 70.9 8.9 C 70.9 11.7 68.7 13.7 66 13.7 C 63.3 13.7 61.1 11.7 61.1 8.9 C 61.1 6.2 63.3 4.2 66 4.2 Z M 66 12.2 C 67.7 12.2 69.1 10.8 69.1 8.9 C 69.1 7 67.7 5.7 66 5.7 C 64.3 5.7 62.9 7 62.9 8.9 C 62.9 10.8 64.3 12.2 66 12.2 Z M 72.9 2.7 C 72.9 2.4 72.7 2.3 72.5 2.3 C 72.47 2.29 71.7 2.3 71.7 2.3 L 71.7 0.8 C 71.7 0.8 73.46 0.79 73.5 0.8 C 74.3 0.8 74.6 1 74.6 1.8 C 74.61 1.84 74.6 7.7 74.6 7.7 C 74.6 7.7 75.42 7.74 75.4 7.7 C 75.7 7.7 76.1 7.7 76.4 7.3 C 76.37 7.34 78.5 4.4 78.5 4.4 L 80.5 4.4 C 80.5 4.4 78.01 7.78 78 7.8 C 77.6 8.33 77.3 8.5 77.3 8.5 L 77.3 8.5 C 77.3 8.5 77.63 8.6 77.9 9.2 C 77.9 9.2 79.3 11.6 79.3 11.6 C 79.4 11.9 79.6 12 80.1 12 C 80.06 12.01 80.6 12 80.6 12 L 80.6 13.5 C 80.6 13.5 79.36 13.5 79.4 13.5 C 78.5 13.5 78.2 13.4 77.8 12.7 C 77.8 12.7 76.2 9.6 76.2 9.6 C 76 9.3 75.6 9.2 75.3 9.2 C 75.29 9.22 74.6 9.2 74.6 9.2 L 74.6 13.5 L 72.9 13.5 C 72.9 13.5 72.86 2.68 72.9 2.7 Z M 86.2 4.2 C 89 4.2 91.2 6.2 91.2 8.9 C 91.2 11.7 89 13.7 86.2 13.7 C 83.5 13.7 81.3 11.7 81.3 8.9 C 81.3 6.2 83.5 4.2 86.2 4.2 Z M 86.2 12.2 C 88 12.2 89.4 10.8 89.4 8.9 C 89.4 7 88 5.7 86.2 5.7 C 84.5 5.7 83.1 7 83.1 8.9 C 83.1 10.8 84.5 12.2 86.2 12.2 Z M 93.8 0.8 L 95.4 0.8 L 95.4 2.6 L 93.8 2.6 L 93.8 0.8 Z M 91.8 15.7 C 92.5 15.7 93.8 15.5 93.8 13.7 C 93.8 13.7 93.8 6.3 93.8 6.3 C 93.8 6 93.6 5.9 93.4 5.9 C 93.38 5.89 92.6 5.9 92.6 5.9 L 92.6 4.4 C 92.6 4.4 94.37 4.39 94.4 4.4 C 95.2 4.4 95.5 4.7 95.5 5.5 C 95.5 5.5 95.5 13.8 95.5 13.8 C 95.5 16.8 93.2 17.2 92 17.2 C 91.67 17.21 91.4 17.2 91.4 17.2 L 91.4 15.7 C 91.4 15.7 91.6 15.7 91.8 15.7 Z M 98.5 6.3 C 98.5 6 98.3 5.9 98.1 5.9 C 98.08 5.89 97.3 5.9 97.3 5.9 L 97.3 4.4 C 97.3 4.4 99.02 4.39 99 4.4 C 99.8 4.4 100.2 4.7 100.2 5.4 C 100.2 5.4 100.2 5.7 100.2 5.7 C 100.17 6.03 100.1 6.3 100.1 6.3 C 100.1 6.3 100.17 6.26 100.2 6.3 C 100.5 5.5 101.6 4.2 103.6 4.2 C 105.7 4.2 106.7 5.3 106.7 7.7 C 106.7 7.7 106.7 11.6 106.7 11.6 C 106.7 11.9 106.9 12 107.1 12 C 107.12 12.01 107.9 12 107.9 12 L 107.9 13.5 C 107.9 13.5 106.13 13.5 106.1 13.5 C 105.3 13.5 105 13.2 105 12.3 C 105 12.3 105 8.1 105 8.1 C 105 6.8 104.7 5.8 103.3 5.8 C 101.9 5.8 100.7 6.7 100.4 8 C 100.3 8.4 100.2 8.8 100.2 9.2 C 100.22 9.23 100.2 13.5 100.2 13.5 L 98.5 13.5 C 98.5 13.5 98.48 6.28 98.5 6.3 Z M 113.8 4.2 C 116.5 4.2 118.7 6.2 118.7 8.9 C 118.7 11.7 116.5 13.7 113.8 13.7 C 111 13.7 108.9 11.7 108.9 8.9 C 108.9 6.2 111 4.2 113.8 4.2 Z M 113.8 12.2 C 115.5 12.2 116.9 10.8 116.9 8.9 C 116.9 7 115.5 5.7 113.8 5.7 C 112 5.7 110.6 7 110.6 8.9 C 110.6 10.8 112 12.2 113.8 12.2 Z M 120.7 10.9 C 120.7 10.9 121.79 12.29 123.5 12.3 C 124.3 12.3 125 11.9 125 11.1 C 125 9.5 120.1 9.7 120.1 6.7 C 120.1 5 121.6 4.2 123.5 4.2 C 124.6 4.2 126.4 4.6 126.4 5.9 C 126.45 5.94 126.4 6.8 126.4 6.8 L 124.9 6.8 C 124.9 6.8 124.88 6.35 124.9 6.4 C 124.9 5.8 124.1 5.6 123.5 5.6 C 122.5 5.6 121.8 5.9 121.8 6.7 C 121.8 8.4 126.8 8 126.8 11.1 C 126.8 12.7 125.3 13.7 123.4 13.7 C 121.01 13.72 119.8 12.1 119.8 12.1 L 120.7 10.9 Z M 129.1 5.8 L 127.9 5.8 L 127.9 4.4 L 129.2 4.4 L 129.2 1.9 L 130.9 1.9 L 130.9 4.4 L 133.1 4.4 L 133.1 5.8 L 130.9 5.8 C 130.9 5.8 130.88 9.97 130.9 10 C 130.9 11.8 132.1 12 132.8 12 C 133.05 12.02 133.2 12 133.2 12 L 133.2 13.5 C 133.2 13.5 132.98 13.57 132.6 13.6 C 131.5 13.6 129.1 13.2 129.1 10.2 C 129.13 10.17 129.1 5.8 129.1 5.8 Z M 133.4 0.8 C 133.5 1.1 133.5 1.4 133.5 1.7 C 133.5 2.2 133.4 2.7 133.1 3.3 C 133.1 3.3 131.9 3.3 131.9 3.3 C 132.1 2.8 132.2 2.3 132.2 1.9 C 132.2 1.5 132.2 1.2 132 0.8 C 132 0.8 133.4 0.8 133.4 0.8 Z " stroke="none" fill="#e62a70"/>  </g></svg>