<?xml version="1.0" standalone="no"?><!DOCTYPE svg PUBLIC "-//W3C//DTD SVG 1.1//EN" "http://www.w3.org/Graphics/SVG/1.1/DTD/svg11.dtd"><svg xmlns="http://www.w3.org/2000/svg" version="1.1" width="526.1px" height="43.5px" viewBox="0 -5 526.1 43.5" style="top:-5px">  <desc>VTE</desc>  <defs/>  <g id="Polygon75376">    <path d="M 2.3 18.8 L 13.3 14 L 13.3 13.9 L 2.3 9.2 L 2.3 7.2 L 15.9 13.2 L 15.9 14.7 L 2.3 20.8 L 2.3 18.8 Z M 27.4 3.9 C 27.2 3.4 26.9 3.3 26.3 3.3 C 26.31 3.27 26 3.3 26 3.3 L 26 1.4 C 26 1.4 26.94 1.41 26.9 1.4 C 28.4 1.4 28.9 1.7 29.4 3.1 C 29.4 3.1 34.6 17.3 34.6 17.3 C 34.98 18.42 35.4 20.1 35.4 20.1 L 35.5 20.1 C 35.5 20.1 35.88 18.42 36.3 17.3 C 36.3 17.3 41.5 3.1 41.5 3.1 C 42 1.7 42.4 1.4 43.9 1.4 C 43.95 1.41 44.8 1.4 44.8 1.4 L 44.8 3.3 C 44.8 3.3 44.58 3.27 44.6 3.3 C 44 3.3 43.7 3.4 43.5 3.9 C 43.5 3.93 36.6 22.5 36.6 22.5 L 34.3 22.5 C 34.3 22.5 27.39 3.93 27.4 3.9 Z M 53.7 3.3 C 53.7 3.3 48.48 3.27 48.5 3.3 C 48.1 3.3 47.8 3.5 47.8 3.9 C 47.82 3.93 47.8 5.3 47.8 5.3 L 45.9 5.3 C 45.9 5.3 45.9 3.12 45.9 3.1 C 45.9 1.8 46.3 1.4 47.6 1.4 C 47.6 1.4 61.9 1.4 61.9 1.4 C 63.2 1.4 63.6 1.8 63.6 3.1 C 63.6 3.12 63.6 5.3 63.6 5.3 L 61.6 5.3 C 61.6 5.3 61.65 3.93 61.6 3.9 C 61.6 3.5 61.4 3.3 61 3.3 C 60.99 3.27 55.8 3.3 55.8 3.3 L 55.8 22.5 L 53.7 22.5 L 53.7 3.3 Z M 67.3 3.3 L 65.3 3.3 L 65.3 1.4 C 65.3 1.4 77.37 1.41 77.4 1.4 C 78.7 1.4 79.2 2 79.2 3.2 C 79.2 3.24 79.2 5.3 79.2 5.3 L 77.2 5.3 C 77.2 5.3 77.22 3.93 77.2 3.9 C 77.2 3.5 77 3.3 76.6 3.3 C 76.56 3.27 69.4 3.3 69.4 3.3 L 69.4 10.9 L 77.3 10.9 L 77.3 12.8 L 69.4 12.8 C 69.4 12.8 69.36 19.98 69.4 20 C 69.4 20.4 69.6 20.6 70 20.6 C 70 20.6 77.4 20.6 77.4 20.6 C 77.8 20.6 78.1 20.4 78.1 20 C 78.09 19.98 78.1 18.6 78.1 18.6 L 80 18.6 C 80 18.6 80.04 20.67 80 20.7 C 80 22 79.5 22.5 78.2 22.5 C 78.2 22.5 69.1 22.5 69.1 22.5 C 67.8 22.5 67.3 22 67.3 20.7 C 67.26 20.67 67.3 3.3 67.3 3.3 Z " stroke="none" fill="#ee3078"/>  </g></svg>