<?xml version="1.0" standalone="no"?><!DOCTYPE svg PUBLIC "-//W3C//DTD SVG 1.1//EN" "http://www.w3.org/Graphics/SVG/1.1/DTD/svg11.dtd"><svg xmlns="http://www.w3.org/2000/svg" version="1.1" width="353px" height="43.5px" viewBox="0 -5 353 43.5" style="top:-5px">  <desc>P sobenie F4</desc>  <defs/>  <g id="Polygon66155">    <path d="M 3.2 3.3 L 1.3 3.3 L 1.3 1.4 C 1.3 1.4 10.17 1.41 10.2 1.4 C 13.9 1.4 16.7 3.9 16.7 7.8 C 16.7 11.7 13.9 14.2 10.2 14.2 C 10.17 14.22 5.3 14.2 5.3 14.2 L 5.3 22.5 L 3.2 22.5 L 3.2 3.3 Z M 9.9 12.4 C 12.7 12.4 14.5 10.7 14.5 7.8 C 14.5 4.9 12.7 3.3 9.9 3.3 C 9.93 3.27 5.3 3.3 5.3 3.3 L 5.3 12.4 C 5.3 12.4 9.9 12.36 9.9 12.4 Z M 25.9 7.1 C 30.3 7.1 33.9 10.4 33.9 14.9 C 33.9 19.4 30.3 22.9 26 22.9 C 21.5 22.9 18 19.4 18 14.9 C 18 10.4 21.5 7.1 25.9 7.1 Z M 26 21 C 29.2 21 31.8 18.4 31.8 14.9 C 31.8 11.5 29.2 8.9 26 8.9 C 22.7 8.9 20.1 11.5 20.1 14.9 C 20.1 18.4 22.7 21 26 21 Z M 24.9 1.4 L 27 1.4 L 29.5 5 L 27.6 5 L 26 2.6 L 25.9 2.6 L 24.3 5 L 22.4 5 L 24.9 1.4 Z M 37.1 18.8 C 37.1 18.8 38.82 21.09 41.8 21.1 C 43.5 21.1 45 20.3 45 18.7 C 45 15.4 36.5 16 36.5 11.1 C 36.5 8.4 38.8 7.1 41.9 7.1 C 43.4 7.1 46.5 7.7 46.5 9.8 C 46.47 9.78 46.5 11.1 46.5 11.1 L 44.5 11.1 C 44.5 11.1 44.55 10.35 44.5 10.4 C 44.5 9.2 42.9 8.8 41.9 8.8 C 39.8 8.8 38.6 9.5 38.6 11 C 38.6 14.4 47 13.6 47 18.6 C 47 21.1 44.8 22.9 41.8 22.9 C 37.83 22.86 36 20.2 36 20.2 L 37.1 18.8 Z M 57.4 7.1 C 61.9 7.1 65.4 10.4 65.4 14.9 C 65.4 19.4 61.9 22.9 57.5 22.9 C 53.1 22.9 49.5 19.4 49.5 14.9 C 49.5 10.4 53.1 7.1 57.4 7.1 Z M 57.5 21 C 60.7 21 63.3 18.4 63.3 14.9 C 63.3 11.5 60.7 8.9 57.5 8.9 C 54.2 8.9 51.6 11.5 51.6 14.9 C 51.6 18.4 54.2 21 57.5 21 Z M 68.9 3.8 C 68.9 3.4 68.6 3.2 68.2 3.2 C 68.22 3.18 67 3.2 67 3.2 L 67 1.4 C 67 1.4 69.09 1.41 69.1 1.4 C 70.4 1.4 70.9 2 70.9 3.2 C 70.9 3.2 70.9 8.7 70.9 8.7 C 70.92 9.39 70.9 9.9 70.9 9.9 L 70.9 9.9 C 70.9 9.9 72.18 7.05 76 7.1 C 80.1 7.1 82.6 10.3 82.6 15 C 82.6 19.7 79.8 22.9 75.8 22.9 C 72.21 22.86 70.9 20 70.9 20 L 70.8 20 C 70.8 20 70.86 20.46 70.9 21.2 C 70.86 21.18 70.9 22.5 70.9 22.5 L 68.9 22.5 C 68.9 22.5 68.88 3.84 68.9 3.8 Z M 75.7 21.1 C 78.3 21.1 80.5 18.8 80.5 15 C 80.5 11.3 78.5 8.9 75.7 8.9 C 73.2 8.9 70.9 10.7 70.9 15 C 70.9 18 72.4 21.1 75.7 21.1 Z M 92.5 7.1 C 96.7 7.1 98.8 10.3 98.8 14 C 98.85 14.37 98.8 15 98.8 15 C 98.8 15 87.21 15.03 87.2 15 C 87.3 18.8 89.9 21 93.1 21 C 95.82 21.03 97.6 19.2 97.6 19.2 L 98.6 20.7 C 98.6 20.7 96.39 22.86 93 22.9 C 88.5 22.9 85.1 19.6 85.1 15 C 85.1 10 88.5 7.1 92.5 7.1 Z M 96.7 13.4 C 96.6 10.3 94.7 8.8 92.5 8.8 C 90 8.8 87.8 10.4 87.3 13.4 C 87.3 13.4 96.7 13.4 96.7 13.4 Z M 102.9 9.8 C 102.9 9.4 102.7 9.2 102.3 9.2 C 102.27 9.18 101 9.2 101 9.2 L 101 7.4 C 101 7.4 103.11 7.41 103.1 7.4 C 104.4 7.4 104.9 8 104.9 9.1 C 104.9 9.1 104.9 9.8 104.9 9.8 C 104.94 10.38 104.9 10.9 104.9 10.9 C 104.9 10.9 104.94 10.86 104.9 10.9 C 105.5 9.5 107.4 7.1 110.9 7.1 C 114.7 7.1 116 9.2 116 12.9 C 116 12.9 116 20.1 116 20.1 C 116 20.5 116.2 20.7 116.7 20.7 C 116.67 20.73 117.9 20.7 117.9 20.7 L 117.9 22.5 C 117.9 22.5 115.8 22.5 115.8 22.5 C 114.5 22.5 114 22 114 20.7 C 114 20.7 114 13.4 114 13.4 C 114 11.1 113.6 9 110.7 9 C 108.1 9 105.9 10.7 105.2 13.2 C 105 13.9 105 14.6 105 15.3 C 104.97 15.27 105 22.5 105 22.5 L 102.9 22.5 C 102.9 22.5 102.93 9.84 102.9 9.8 Z M 121.3 1.4 L 123.2 1.4 L 123.2 4 L 121.3 4 L 121.3 1.4 Z M 121.3 9.8 C 121.3 9.4 121.1 9.2 120.7 9.2 C 120.66 9.18 119.4 9.2 119.4 9.2 L 119.4 7.4 C 119.4 7.4 121.53 7.41 121.5 7.4 C 122.8 7.4 123.4 8 123.4 9.2 C 123.4 9.2 123.4 20.1 123.4 20.1 C 123.4 20.5 123.6 20.7 124 20.7 C 124.02 20.73 125.3 20.7 125.3 20.7 L 125.3 22.5 C 125.3 22.5 123.15 22.5 123.1 22.5 C 121.9 22.5 121.3 22 121.3 20.7 C 121.3 20.7 121.3 9.8 121.3 9.8 Z M 134.7 7.1 C 138.9 7.1 141.1 10.3 141.1 14 C 141.06 14.37 141 15 141 15 C 141 15 129.42 15.03 129.4 15 C 129.5 18.8 132.1 21 135.3 21 C 138.03 21.03 139.8 19.2 139.8 19.2 L 140.8 20.7 C 140.8 20.7 138.6 22.86 135.2 22.9 C 130.7 22.9 127.3 19.6 127.3 15 C 127.3 10 130.7 7.1 134.7 7.1 Z M 139 13.4 C 138.8 10.3 136.9 8.8 134.7 8.8 C 132.2 8.8 130 10.4 129.5 13.4 C 129.5 13.4 139 13.4 139 13.4 Z M 153.9 3.3 L 151.9 3.3 L 151.9 1.4 C 151.9 1.4 163.17 1.41 163.2 1.4 C 164.5 1.4 165 2 165 3.2 C 164.97 3.24 165 5.3 165 5.3 L 163 5.3 C 163 5.3 163.02 3.93 163 3.9 C 163 3.5 162.8 3.3 162.4 3.3 C 162.36 3.27 156 3.3 156 3.3 L 156 11.2 L 163.6 11.2 L 163.6 13.1 L 156 13.1 L 156 22.5 L 153.9 22.5 L 153.9 3.3 Z M 166.1 15.3 L 176.4 1.4 L 178.6 1.4 L 178.6 14.8 L 182 14.8 L 182 16.7 L 178.6 16.7 L 178.6 22.5 L 176.5 22.5 L 176.5 16.7 L 166.1 16.7 L 166.1 15.3 Z M 176.5 6.2 C 176.55 5.31 176.6 4.2 176.6 4.2 L 176.6 4.2 C 176.6 4.2 176.07 5.04 175.5 5.8 C 175.5 5.8 169.6 13.5 169.6 13.5 C 169.08 14.28 168.5 14.9 168.5 14.9 L 168.5 14.9 C 168.5 14.9 169.38 14.82 170.3 14.8 C 170.28 14.82 176.5 14.8 176.5 14.8 C 176.5 14.8 176.55 6.21 176.5 6.2 Z " stroke="none" fill="#ee3078"/>  </g></svg>