<?xml version="1.0" standalone="no"?><!DOCTYPE svg PUBLIC "-//W3C//DTD SVG 1.1//EN" "http://www.w3.org/Graphics/SVG/1.1/DTD/svg11.dtd"><svg xmlns="http://www.w3.org/2000/svg" version="1.1" width="113.4px" height="78.9px" viewBox="0 0 113.4 78.9">  <desc>24 48 hod n</desc>  <defs/>  <g id="Polygon69605">    <path d="M 26.6 36.5 C 26.6 35.8 26.1 35.3 25.2 35.3 C 24.6 35.3 24 35.6 24 36 C 24.04 36 24 36.3 24 36.3 L 23 36.3 C 23 36.3 23.03 35.68 23 35.7 C 23 34.7 24.4 34.3 25.3 34.3 C 26.7 34.3 27.7 35.2 27.7 36.5 C 27.7 39.2 23.8 39.2 23.8 41 C 23.8 41.2 23.9 41.2 24.1 41.2 C 24.1 41.2 26.8 41.2 26.8 41.2 C 27 41.2 27.1 41.1 27.1 41 C 27.07 40.96 27.1 40.5 27.1 40.5 L 28.1 40.5 C 28.1 40.5 28.08 41.45 28.1 41.4 C 28.1 41.9 27.9 42.2 27.4 42.2 C 27.4 42.2 23.4 42.2 23.4 42.2 C 22.8 42.2 22.7 41.9 22.7 41.3 C 22.7 38.4 26.6 38.6 26.6 36.5 Z M 28.5 39.4 L 32 34.4 L 33.3 34.4 L 33.3 39.1 L 34.5 39.1 L 34.5 40.1 L 33.3 40.1 L 33.3 42.2 L 32.2 42.2 L 32.2 40.1 L 28.5 40.1 L 28.5 39.4 Z M 32.2 36.5 C 32.18 36.12 32.2 35.7 32.2 35.7 L 32.2 35.7 C 32.2 35.7 32 36.06 31.8 36.3 C 31.8 36.3 30.1 38.7 30.1 38.7 C 29.91 38.94 29.7 39.2 29.7 39.2 L 29.7 39.2 C 29.7 39.2 30.02 39.15 30.4 39.1 C 30.36 39.15 32.2 39.1 32.2 39.1 C 32.2 39.1 32.18 36.48 32.2 36.5 Z M 38.4 38.5 L 41.6 38.5 L 41.6 39.5 L 38.4 39.5 L 38.4 38.5 Z M 45.5 39.4 L 49 34.4 L 50.2 34.4 L 50.2 39.1 L 51.5 39.1 L 51.5 40.1 L 50.2 40.1 L 50.2 42.2 L 49.1 42.2 L 49.1 40.1 L 45.5 40.1 L 45.5 39.4 Z M 49.2 36.5 C 49.16 36.12 49.2 35.7 49.2 35.7 L 49.2 35.7 C 49.2 35.7 48.98 36.06 48.8 36.3 C 48.8 36.3 47.1 38.7 47.1 38.7 C 46.89 38.94 46.7 39.2 46.7 39.2 L 46.7 39.2 C 46.7 39.2 47 39.15 47.3 39.1 C 47.34 39.15 49.2 39.1 49.2 39.1 C 49.2 39.1 49.16 36.48 49.2 36.5 Z M 53.4 37.9 C 53.37 37.94 53.4 37.9 53.4 37.9 C 53.4 37.9 52.41 37.41 52.4 36.3 C 52.4 35.3 53.3 34.3 54.8 34.3 C 56.3 34.3 57.3 35.1 57.3 36.4 C 57.3 37.5 56.3 38.2 56.3 38.2 C 56.3 38.2 56.3 38.2 56.3 38.2 C 57 38.6 57.5 39.2 57.5 40 C 57.5 41.2 56.4 42.3 54.8 42.3 C 53.3 42.3 52.1 41.4 52.1 39.9 C 52.1 38.7 53.4 37.9 53.4 37.9 Z M 55.4 37.8 C 55.6 37.8 56.2 37.1 56.2 36.4 C 56.2 35.7 55.6 35.3 54.8 35.3 C 54 35.3 53.5 35.7 53.5 36.4 C 53.5 37 54.1 37.3 54.8 37.6 C 54.9 37.6 55.2 37.8 55.4 37.8 Z M 54.8 41.3 C 55.6 41.3 56.4 40.7 56.4 40 C 56.4 39.3 55.8 39 55.1 38.7 C 54.8 38.6 54.4 38.4 54.3 38.4 C 54 38.4 53.2 39 53.2 39.9 C 53.2 40.7 54 41.3 54.8 41.3 Z M 61.8 35.5 C 61.8 35.4 61.7 35.3 61.6 35.3 C 61.58 35.3 61.1 35.3 61.1 35.3 L 61.1 34.4 C 61.1 34.4 62.18 34.39 62.2 34.4 C 62.7 34.4 62.9 34.6 62.9 35.1 C 62.9 35.1 62.9 37.2 62.9 37.2 C 62.89 37.5 62.9 37.7 62.9 37.7 C 62.9 37.7 62.89 37.7 62.9 37.7 C 63.1 37.2 63.8 36.5 65 36.5 C 66.3 36.5 66.9 37.2 66.9 38.6 C 66.9 38.6 66.9 41 66.9 41 C 66.9 41.2 66.9 41.2 67.1 41.2 C 67.1 41.24 67.5 41.2 67.5 41.2 L 67.5 42.2 C 67.5 42.2 66.5 42.15 66.5 42.2 C 66 42.2 65.8 41.9 65.8 41.4 C 65.8 41.4 65.8 38.8 65.8 38.8 C 65.8 38 65.6 37.4 64.7 37.4 C 63.9 37.4 63.2 38 63 38.8 C 62.9 39 62.9 39.3 62.9 39.5 C 62.89 39.54 62.9 42.2 62.9 42.2 L 61.8 42.2 C 61.8 42.2 61.82 35.54 61.8 35.5 Z M 71.2 36.5 C 72.8 36.5 74.2 37.7 74.2 39.4 C 74.2 41.1 72.8 42.3 71.2 42.3 C 69.5 42.3 68.2 41.1 68.2 39.4 C 68.2 37.7 69.5 36.5 71.2 36.5 Z M 71.2 41.4 C 72.2 41.4 73.1 40.5 73.1 39.4 C 73.1 38.2 72.2 37.4 71.2 37.4 C 70.1 37.4 69.3 38.2 69.3 39.4 C 69.3 40.5 70.1 41.4 71.2 41.4 Z M 77.5 36.5 C 78.77 36.45 79.2 37.3 79.2 37.3 L 79.2 37.3 C 79.2 37.3 79.2 37.15 79.2 36.9 C 79.2 36.9 79.2 35.5 79.2 35.5 C 79.2 35.4 79.1 35.3 79 35.3 C 78.96 35.3 78.5 35.3 78.5 35.3 L 78.5 34.4 C 78.5 34.4 79.56 34.39 79.6 34.4 C 80.1 34.4 80.3 34.6 80.3 35.1 C 80.3 35.1 80.3 41 80.3 41 C 80.3 41.2 80.4 41.2 80.5 41.2 C 80.51 41.24 81 41.2 81 41.2 L 81 42.2 C 81 42.2 79.94 42.15 79.9 42.2 C 79.5 42.2 79.3 41.9 79.3 41.6 C 79.3 41.4 79.3 41.3 79.3 41.3 C 79.27 41.27 79.2 41.3 79.2 41.3 C 79.2 41.3 78.78 42.28 77.4 42.3 C 75.9 42.3 75 41.1 75 39.4 C 75 37.6 76 36.5 77.5 36.5 Z M 79.2 39.4 C 79.2 38.4 78.7 37.4 77.6 37.4 C 76.8 37.4 76.1 38.1 76.1 39.4 C 76.1 40.6 76.7 41.4 77.6 41.4 C 78.5 41.4 79.2 40.8 79.2 39.4 Z M 82.2 37.7 C 82.2 37.6 82.1 37.5 82 37.5 C 81.96 37.5 81.5 37.5 81.5 37.5 L 81.5 36.6 C 81.5 36.6 82.57 36.59 82.6 36.6 C 83.1 36.6 83.3 36.8 83.3 37.3 C 83.3 37.3 83.3 41 83.3 41 C 83.3 41.2 83.4 41.2 83.5 41.2 C 83.51 41.24 84 41.2 84 41.2 L 84 42.2 C 84 42.2 82.92 42.15 82.9 42.2 C 82.4 42.2 82.2 41.9 82.2 41.4 C 82.2 41.4 82.2 37.7 82.2 37.7 Z M 83 34.4 L 84.1 34.4 L 83.1 35.8 L 82.2 35.8 L 83 34.4 Z M 85.2 37.7 C 85.2 37.6 85.1 37.5 85 37.5 C 84.95 37.5 84.5 37.5 84.5 37.5 L 84.5 36.6 C 84.5 36.6 85.52 36.59 85.5 36.6 C 86 36.6 86.2 36.8 86.2 37.2 C 86.2 37.2 86.2 37.4 86.2 37.4 C 86.23 37.59 86.2 37.7 86.2 37.7 C 86.2 37.7 86.23 37.73 86.2 37.7 C 86.4 37.2 87.1 36.5 88.3 36.5 C 89.6 36.5 90.2 37.2 90.2 38.6 C 90.2 38.6 90.2 41 90.2 41 C 90.2 41.2 90.3 41.2 90.5 41.2 C 90.47 41.24 90.9 41.2 90.9 41.2 L 90.9 42.2 C 90.9 42.2 89.87 42.15 89.9 42.2 C 89.4 42.2 89.2 41.9 89.2 41.4 C 89.2 41.4 89.2 38.8 89.2 38.8 C 89.2 38 89 37.4 88.1 37.4 C 87.3 37.4 86.6 38 86.4 38.8 C 86.3 39 86.3 39.3 86.3 39.5 C 86.26 39.54 86.3 42.2 86.3 42.2 L 85.2 42.2 C 85.2 42.2 85.19 37.74 85.2 37.7 Z " stroke="none" fill="#fff"/>  </g></svg>