<?xml version="1.0" standalone="no"?><!DOCTYPE svg PUBLIC "-//W3C//DTD SVG 1.1//EN" "http://www.w3.org/Graphics/SVG/1.1/DTD/svg11.dtd"><svg xmlns="http://www.w3.org/2000/svg" version="1.1" width="53px" height="20.5px" viewBox="0 -2 53 20.5" style="top:-2px">  <desc>15E4/DRSP</desc>  <defs/>  <g id="Polygon72713">    <path d="M 1.9 6.6 L 3.4 6.6 C 3.4 6.6 3.45 2.08 3.4 2.1 C 3.45 1.86 3.5 1.6 3.5 1.6 L 3.4 1.6 C 3.4 1.6 3.36 1.8 3.1 2.1 C 3.11 2.05 2.4 2.7 2.4 2.7 L 1.8 2.1 L 3.5 0.4 L 4.4 0.4 L 4.4 6.6 L 6 6.6 L 6 7.5 L 1.9 7.5 L 1.9 6.6 Z M 7.3 5.9 C 7.3 5.9 7.85 6.68 8.9 6.7 C 9.8 6.7 10.4 6.1 10.4 5.3 C 10.4 4.4 9.7 3.8 8.8 3.8 C 7.99 3.83 7.4 4.2 7.4 4.2 L 7 4 C 7 4 7.3 1.08 7.3 1.1 C 7.3 0.6 7.5 0.4 7.9 0.4 C 7.9 0.4 10.4 0.4 10.4 0.4 C 10.8 0.4 11 0.6 11 1.1 C 11.04 1.08 11 2 11 2 L 10.1 2 C 10.1 2 10.13 1.52 10.1 1.5 C 10.1 1.4 10 1.3 9.9 1.3 C 9.9 1.3 8.4 1.3 8.4 1.3 C 8.3 1.3 8.2 1.4 8.2 1.5 C 8.2 1.5 8.1 2.8 8.1 2.8 C 8.05 3.03 8 3.2 8 3.2 L 8 3.2 C 8 3.2 8.42 2.97 8.9 3 C 10.5 3 11.5 4 11.5 5.3 C 11.5 6.5 10.5 7.6 8.9 7.6 C 7.47 7.62 6.7 6.6 6.7 6.6 L 7.3 5.9 Z M 13.1 1.3 L 12.4 1.3 L 12.4 0.4 C 12.4 0.4 16.58 0.44 16.6 0.4 C 17 0.4 17.2 0.6 17.2 1.1 C 17.22 1.08 17.2 2 17.2 2 L 16.3 2 C 16.3 2 16.31 1.52 16.3 1.5 C 16.3 1.4 16.2 1.3 16.1 1.3 C 16.09 1.3 14.1 1.3 14.1 1.3 L 14.1 3.5 L 16.5 3.5 L 16.5 4.4 L 14.1 4.4 C 14.1 4.4 14.08 6.42 14.1 6.4 C 14.1 6.6 14.2 6.6 14.3 6.6 C 14.3 6.6 16.4 6.6 16.4 6.6 C 16.5 6.6 16.6 6.6 16.6 6.4 C 16.58 6.42 16.6 6 16.6 6 L 17.5 6 C 17.5 6 17.5 6.86 17.5 6.9 C 17.5 7.3 17.3 7.5 16.9 7.5 C 16.9 7.5 13.7 7.5 13.7 7.5 C 13.3 7.5 13.1 7.3 13.1 6.9 C 13.08 6.86 13.1 1.3 13.1 1.3 Z M 17.9 5 L 21.1 0.4 L 22.2 0.4 L 22.2 4.8 L 23.3 4.8 L 23.3 5.6 L 22.2 5.6 L 22.2 7.5 L 21.2 7.5 L 21.2 5.6 L 17.9 5.6 L 17.9 5 Z M 21.2 2.3 C 21.23 2.02 21.3 1.6 21.3 1.6 L 21.2 1.6 C 21.2 1.6 21.07 1.96 20.9 2.2 C 20.9 2.2 19.3 4.3 19.3 4.3 C 19.17 4.58 19 4.8 19 4.8 L 19 4.8 C 19 4.8 19.27 4.77 19.6 4.8 C 19.58 4.77 21.2 4.8 21.2 4.8 C 21.2 4.8 21.23 2.34 21.2 2.3 Z M 26 0.1 L 26.9 0.1 L 24.3 7.9 L 23.5 7.9 L 26 0.1 Z M 28 1.3 L 27.3 1.3 L 27.3 0.4 C 27.3 0.4 30.18 0.44 30.2 0.4 C 32.3 0.4 33.7 1.7 33.7 4 C 33.7 6.2 32.3 7.5 30.2 7.5 C 30.2 7.5 28.6 7.5 28.6 7.5 C 28.2 7.5 28 7.3 28 6.9 C 27.97 6.86 28 1.3 28 1.3 Z M 29.2 6.6 C 29.2 6.6 30.1 6.6 30.1 6.6 C 31.7 6.6 32.7 5.7 32.7 4 C 32.7 2.2 31.7 1.3 30.1 1.3 C 30.11 1.3 29 1.3 29 1.3 C 29 1.3 28.97 6.42 29 6.4 C 29 6.6 29 6.6 29.2 6.6 Z M 35.1 1.3 L 34.5 1.3 L 34.5 0.4 C 34.5 0.4 37.55 0.44 37.5 0.4 C 38.8 0.4 39.7 1.2 39.7 2.5 C 39.7 3.7 38.9 4.3 38.4 4.4 C 38.39 4.38 38.4 4.4 38.4 4.4 C 38.4 4.4 38.57 4.49 38.7 4.7 C 38.7 4.7 39.5 6.4 39.5 6.4 C 39.6 6.6 39.8 6.6 40 6.6 C 40.04 6.64 40.2 6.6 40.2 6.6 L 40.2 7.5 C 40.2 7.5 39.68 7.5 39.7 7.5 C 39.1 7.5 38.9 7.4 38.7 7 C 38.7 7 37.7 5.1 37.7 5.1 C 37.6 4.7 37.4 4.7 37 4.7 C 37.04 4.69 36.1 4.7 36.1 4.7 L 36.1 7.5 L 35.1 7.5 L 35.1 1.3 Z M 37.4 3.8 C 38.2 3.8 38.6 3.3 38.6 2.6 C 38.6 1.8 38.2 1.3 37.4 1.3 C 37.44 1.3 36.1 1.3 36.1 1.3 L 36.1 3.8 C 36.1 3.8 37.42 3.83 37.4 3.8 Z M 41.2 5.9 C 41.2 5.9 41.92 6.71 43 6.7 C 43.6 6.7 44.2 6.3 44.2 5.7 C 44.2 4.2 40.8 4.4 40.8 2.2 C 40.8 1.1 41.7 0.3 43 0.3 C 43.8 0.3 45 0.7 45 1.6 C 45.04 1.62 45 2.2 45 2.2 L 44.1 2.2 C 44.1 2.2 44.12 1.87 44.1 1.9 C 44.1 1.5 43.6 1.2 43 1.2 C 42.3 1.2 41.8 1.6 41.8 2.2 C 41.8 3.6 45.2 3.3 45.2 5.6 C 45.2 6.7 44.3 7.6 42.9 7.6 C 41.45 7.62 40.6 6.6 40.6 6.6 L 41.2 5.9 Z M 46.6 1.3 L 46 1.3 L 46 0.4 C 46 0.4 49.09 0.44 49.1 0.4 C 50.4 0.4 51.3 1.3 51.3 2.6 C 51.3 4 50.4 4.9 49.1 4.9 C 49.09 4.89 47.6 4.9 47.6 4.9 L 47.6 7.5 L 46.6 7.5 L 46.6 1.3 Z M 48.9 4 C 49.8 4 50.3 3.5 50.3 2.6 C 50.3 1.8 49.8 1.3 48.9 1.3 C 48.94 1.3 47.6 1.3 47.6 1.3 L 47.6 4 C 47.6 4 48.93 4.03 48.9 4 Z " stroke="none" fill="#000"/>  </g></svg>