<?xml version="1.0" standalone="no"?><!DOCTYPE svg PUBLIC "-//W3C//DTD SVG 1.1//EN" "http://www.w3.org/Graphics/SVG/1.1/DTD/svg11.dtd"><svg xmlns="http://www.w3.org/2000/svg" version="1.1" width="18px" height="15.5px" viewBox="0 -2 18 15.5" style="top:-2px">  <desc>%</desc>  <defs/>  <g id="Polygon73791">    <path d="M 10.8 1.7 C 10.8 1 11.4 0.4 12.2 0.4 C 12.9 0.4 13.6 1 13.6 1.7 C 13.6 2.5 12.9 3.1 12.2 3.1 C 11.4 3.1 10.8 2.5 10.8 1.7 Z M 16.2 0.5 L 16.9 0.5 L 11.5 7.5 L 10.8 7.5 L 16.2 0.5 Z M 13 1.7 C 13 1.3 12.6 0.9 12.2 0.9 C 11.7 0.9 11.4 1.3 11.4 1.7 C 11.4 2.2 11.7 2.6 12.2 2.6 C 12.6 2.6 13 2.2 13 1.7 Z M 15.5 4.8 C 16.3 4.8 17 5.5 17 6.2 C 17 7 16.3 7.6 15.5 7.6 C 14.8 7.6 14.1 7 14.1 6.2 C 14.1 5.5 14.8 4.8 15.5 4.8 Z M 14.7 6.2 C 14.7 6.7 15.1 7.1 15.5 7.1 C 16 7.1 16.4 6.7 16.4 6.2 C 16.4 5.8 16 5.4 15.5 5.4 C 15.1 5.4 14.7 5.8 14.7 6.2 C 14.7 6.2 14.7 6.2 14.7 6.2 Z " stroke="none" fill="#000"/>  </g></svg>