<?xml version="1.0" standalone="no"?><!DOCTYPE svg PUBLIC "-//W3C//DTD SVG 1.1//EN" "http://www.w3.org/Graphics/SVG/1.1/DTD/svg11.dtd"><svg xmlns="http://www.w3.org/2000/svg" version="1.1" width="154px" height="69.5px" viewBox="0 -3 154 69.5" style="top:-3px">  <desc>Cievna s stava2,3 Regeneruje a udr iava tkaniv Regeneruje cievny tonus</desc>  <defs/>  <g id="Polygon67971">    <path d="M 30 30.9 L 29.4 30.9 L 29.4 30.3 C 29.4 30.3 32.35 30.31 32.3 30.3 C 33.5 30.3 34.4 31.1 34.4 32.3 C 34.4 33.4 33.7 34 33 34.2 C 33.01 34.18 33 34.2 33 34.2 C 33 34.2 33.15 34.28 33.2 34.5 C 33.2 34.5 34.3 36.5 34.3 36.5 C 34.4 36.7 34.5 36.7 34.8 36.7 C 34.76 36.72 34.9 36.7 34.9 36.7 L 34.9 37.3 C 34.9 37.3 34.59 37.33 34.6 37.3 C 34 37.3 33.8 37.3 33.6 36.8 C 33.6 36.8 32.6 34.8 32.6 34.8 C 32.4 34.4 32.3 34.4 31.9 34.4 C 31.9 34.37 30.7 34.4 30.7 34.4 L 30.7 37.3 L 30 37.3 L 30 30.9 Z M 32.3 33.8 C 33.1 33.8 33.6 33.2 33.6 32.3 C 33.6 31.5 33.1 30.9 32.3 30.9 C 32.29 30.92 30.7 30.9 30.7 30.9 L 30.7 33.8 C 30.7 33.8 32.28 33.76 32.3 33.8 Z M 37.8 32.2 C 39.2 32.2 39.9 33.3 39.9 34.5 C 39.92 34.62 39.9 34.8 39.9 34.8 C 39.9 34.8 36.04 34.84 36 34.8 C 36.1 36.1 36.9 36.8 38 36.8 C 38.91 36.85 39.5 36.2 39.5 36.2 L 39.8 36.7 C 39.8 36.7 39.1 37.45 38 37.5 C 36.5 37.5 35.3 36.4 35.3 34.8 C 35.3 33.2 36.5 32.2 37.8 32.2 Z M 39.2 34.3 C 39.2 33.3 38.5 32.8 37.8 32.8 C 37 32.8 36.2 33.3 36.1 34.3 C 36.1 34.3 39.2 34.3 39.2 34.3 Z M 43 32.2 C 44.36 32.19 44.7 33 44.7 33 L 44.7 33 C 44.7 33 44.7 32.95 44.7 32.9 C 44.7 32.5 44.9 32.3 45.3 32.3 C 45.27 32.31 46 32.3 46 32.3 L 46 32.9 C 46 32.9 45.56 32.89 45.6 32.9 C 45.4 32.9 45.3 33 45.3 33.1 C 45.3 33.1 45.3 37.2 45.3 37.2 C 45.3 38.8 44.2 39.4 42.9 39.4 C 42.3 39.4 41.8 39.3 41.3 39 C 41.28 39.03 41.5 38.5 41.5 38.5 C 41.5 38.5 42.16 38.82 42.9 38.8 C 43.9 38.8 44.7 38.4 44.7 37.2 C 44.7 37.2 44.7 36.8 44.7 36.8 C 44.66 36.61 44.7 36.4 44.7 36.4 C 44.7 36.4 44.65 36.44 44.6 36.4 C 44.3 37 43.8 37.3 43.1 37.3 C 41.7 37.3 40.8 36.2 40.8 34.7 C 40.8 33.2 41.7 32.2 43 32.2 Z M 44.7 34.7 C 44.7 33.3 44 32.8 43.1 32.8 C 42.1 32.8 41.5 33.5 41.5 34.7 C 41.5 35.9 42.2 36.7 43.2 36.7 C 44 36.7 44.7 36.2 44.7 34.7 Z M 49.1 32.2 C 50.5 32.2 51.2 33.3 51.2 34.5 C 51.19 34.62 51.2 34.8 51.2 34.8 C 51.2 34.8 47.31 34.84 47.3 34.8 C 47.3 36.1 48.2 36.8 49.3 36.8 C 50.18 36.85 50.8 36.2 50.8 36.2 L 51.1 36.7 C 51.1 36.7 50.37 37.45 49.2 37.5 C 47.7 37.5 46.6 36.4 46.6 34.8 C 46.6 33.2 47.7 32.2 49.1 32.2 Z M 50.5 34.3 C 50.4 33.3 49.8 32.8 49.1 32.8 C 48.2 32.8 47.5 33.3 47.3 34.3 C 47.3 34.3 50.5 34.3 50.5 34.3 Z M 52.5 33.1 C 52.5 33 52.5 32.9 52.3 32.9 C 52.33 32.89 51.9 32.9 51.9 32.9 L 51.9 32.3 C 51.9 32.3 52.61 32.31 52.6 32.3 C 53 32.3 53.2 32.5 53.2 32.9 C 53.2 32.9 53.2 33.1 53.2 33.1 C 53.22 33.29 53.2 33.5 53.2 33.5 C 53.2 33.5 53.22 33.45 53.2 33.5 C 53.4 33 54 32.2 55.2 32.2 C 56.5 32.2 56.9 32.9 56.9 34.1 C 56.9 34.1 56.9 36.5 56.9 36.5 C 56.9 36.7 57 36.7 57.1 36.7 C 57.13 36.75 57.5 36.7 57.5 36.7 L 57.5 37.3 C 57.5 37.3 56.84 37.33 56.8 37.3 C 56.4 37.3 56.2 37.2 56.2 36.7 C 56.2 36.7 56.2 34.3 56.2 34.3 C 56.2 33.5 56.1 32.8 55.1 32.8 C 54.3 32.8 53.5 33.4 53.3 34.2 C 53.2 34.5 53.2 34.7 53.2 34.9 C 53.23 34.92 53.2 37.3 53.2 37.3 L 52.5 37.3 C 52.5 37.3 52.55 33.11 52.5 33.1 Z M 60.6 32.2 C 62 32.2 62.7 33.3 62.7 34.5 C 62.75 34.62 62.7 34.8 62.7 34.8 C 62.7 34.8 58.87 34.84 58.9 34.8 C 58.9 36.1 59.8 36.8 60.8 36.8 C 61.74 36.85 62.3 36.2 62.3 36.2 L 62.7 36.7 C 62.7 36.7 61.93 37.45 60.8 37.5 C 59.3 37.5 58.2 36.4 58.2 34.8 C 58.2 33.2 59.3 32.2 60.6 32.2 Z M 62 34.3 C 62 33.3 61.4 32.8 60.6 32.8 C 59.8 32.8 59.1 33.3 58.9 34.3 C 58.9 34.3 62 34.3 62 34.3 Z M 64.1 33.1 C 64.1 33 64 32.9 63.9 32.9 C 63.89 32.89 63.5 32.9 63.5 32.9 L 63.5 32.3 C 63.5 32.3 64.17 32.31 64.2 32.3 C 64.6 32.3 64.8 32.5 64.8 32.9 C 64.8 32.9 64.8 33.2 64.8 33.2 C 64.78 33.42 64.8 33.6 64.8 33.6 C 64.8 33.6 64.78 33.59 64.8 33.6 C 65 32.8 65.6 32.3 66.4 32.3 C 66.5 32.3 66.6 32.3 66.6 32.3 C 66.64 32.29 66.6 33 66.6 33 C 66.6 33 66.52 32.93 66.4 32.9 C 65.7 32.9 65.1 33.5 64.9 34.2 C 64.8 34.6 64.8 34.9 64.8 35.2 C 64.79 35.21 64.8 37.3 64.8 37.3 L 64.1 37.3 C 64.1 37.3 64.11 33.11 64.1 33.1 Z M 67.8 33.1 C 67.8 33 67.7 32.9 67.6 32.9 C 67.56 32.89 67.1 32.9 67.1 32.9 L 67.1 32.3 C 67.1 32.3 67.85 32.31 67.8 32.3 C 68.3 32.3 68.5 32.5 68.5 32.9 C 68.5 32.9 68.5 35.3 68.5 35.3 C 68.5 36.1 68.6 36.8 69.6 36.8 C 70.7 36.8 71.4 35.8 71.4 34.7 C 71.41 34.71 71.4 32.3 71.4 32.3 L 72.1 32.3 C 72.1 32.3 72.09 36.53 72.1 36.5 C 72.1 36.7 72.2 36.7 72.3 36.7 C 72.31 36.75 72.7 36.7 72.7 36.7 L 72.7 37.3 C 72.7 37.3 72.04 37.33 72 37.3 C 71.6 37.3 71.4 37.2 71.4 36.8 C 71.4 36.8 71.4 36.5 71.4 36.5 C 71.4 36.3 71.4 36.2 71.4 36.2 C 71.4 36.2 71.4 36.2 71.4 36.2 C 71.2 36.7 70.6 37.5 69.5 37.5 C 68.3 37.5 67.8 36.8 67.8 35.5 C 67.8 35.5 67.8 33.1 67.8 33.1 Z M 74.1 30.3 L 74.7 30.3 L 74.7 31.2 L 74.1 31.2 L 74.1 30.3 Z M 73 38.8 C 73.4 38.8 74.1 38.6 74.1 37.5 C 74.1 37.5 74.1 33.1 74.1 33.1 C 74.1 33 74 32.9 73.9 32.9 C 73.89 32.89 73.5 32.9 73.5 32.9 L 73.5 32.3 C 73.5 32.3 74.18 32.31 74.2 32.3 C 74.6 32.3 74.8 32.5 74.8 32.9 C 74.8 32.9 74.8 37.5 74.8 37.5 C 74.8 39.2 73.6 39.4 73 39.4 C 72.9 39.4 72.7 39.4 72.7 39.4 C 72.75 39.36 72.7 38.8 72.7 38.8 C 72.7 38.8 72.84 38.79 73 38.8 Z M 78.5 32.2 C 79.9 32.2 80.6 33.3 80.6 34.5 C 80.63 34.62 80.6 34.8 80.6 34.8 C 80.6 34.8 76.75 34.84 76.7 34.8 C 76.8 36.1 77.7 36.8 78.7 36.8 C 79.62 36.85 80.2 36.2 80.2 36.2 L 80.5 36.7 C 80.5 36.7 79.81 37.45 78.7 37.5 C 77.2 37.5 76 36.4 76 34.8 C 76 33.2 77.2 32.2 78.5 32.2 Z M 79.9 34.3 C 79.9 33.3 79.2 32.8 78.5 32.8 C 77.7 32.8 76.9 33.3 76.8 34.3 C 76.8 34.3 79.9 34.3 79.9 34.3 Z M 86.9 32.2 C 87.5 32.2 88.7 32.4 88.7 33.3 C 88.67 33.25 88.7 33.7 88.7 33.7 L 88 33.7 C 88 33.7 88.04 33.41 88 33.4 C 88 33 87.3 32.8 86.9 32.8 C 85.8 32.8 84.9 33.6 84.9 34.8 C 84.9 36.1 85.8 36.8 86.9 36.8 C 87.94 36.84 88.5 36.1 88.5 36.1 L 88.8 36.6 C 88.8 36.6 88.17 37.45 86.9 37.5 C 85.4 37.5 84.2 36.4 84.2 34.8 C 84.2 33.3 85.4 32.2 86.9 32.2 Z M 90 30.3 L 90.7 30.3 L 90.7 31.2 L 90 31.2 L 90 30.3 Z M 90 33.1 C 90 33 90 32.9 89.8 32.9 C 89.82 32.89 89.4 32.9 89.4 32.9 L 89.4 32.3 C 89.4 32.3 90.11 32.31 90.1 32.3 C 90.5 32.3 90.7 32.5 90.7 32.9 C 90.7 32.9 90.7 36.5 90.7 36.5 C 90.7 36.7 90.8 36.7 90.9 36.7 C 90.93 36.75 91.4 36.7 91.4 36.7 L 91.4 37.3 C 91.4 37.3 90.64 37.33 90.6 37.3 C 90.2 37.3 90 37.2 90 36.7 C 90 36.7 90 33.1 90 33.1 Z M 94.5 32.2 C 95.9 32.2 96.6 33.3 96.6 34.5 C 96.61 34.62 96.6 34.8 96.6 34.8 C 96.6 34.8 92.73 34.84 92.7 34.8 C 92.8 36.1 93.6 36.8 94.7 36.8 C 95.61 36.85 96.2 36.2 96.2 36.2 L 96.5 36.7 C 96.5 36.7 95.8 37.45 94.7 37.5 C 93.2 37.5 92 36.4 92 34.8 C 92 33.2 93.2 32.2 94.5 32.2 Z M 95.9 34.3 C 95.9 33.3 95.2 32.8 94.5 32.8 C 93.7 32.8 92.9 33.3 92.8 34.3 C 92.8 34.3 95.9 34.3 95.9 34.3 Z M 97.7 33.1 C 97.6 32.9 97.5 32.9 97.3 32.9 C 97.34 32.89 97.2 32.9 97.2 32.9 L 97.2 32.3 C 97.2 32.3 97.52 32.31 97.5 32.3 C 98 32.3 98.1 32.4 98.3 32.9 C 98.3 32.9 99.5 36 99.5 36 C 99.62 36.25 99.7 36.6 99.7 36.6 L 99.7 36.6 C 99.7 36.6 99.8 36.25 99.9 36 C 99.9 36 101.1 32.9 101.1 32.9 C 101.3 32.4 101.4 32.3 101.9 32.3 C 101.88 32.31 102.1 32.3 102.1 32.3 L 102.1 32.9 C 102.1 32.9 102.05 32.89 102.1 32.9 C 101.9 32.9 101.8 32.9 101.7 33.1 C 101.7 33.12 100.1 37.3 100.1 37.3 L 99.3 37.3 C 99.3 37.3 97.69 33.12 97.7 33.1 Z M 103.2 33.1 C 103.2 33 103.1 32.9 102.9 32.9 C 102.94 32.89 102.5 32.9 102.5 32.9 L 102.5 32.3 C 102.5 32.3 103.22 32.31 103.2 32.3 C 103.6 32.3 103.8 32.5 103.8 32.9 C 103.8 32.9 103.8 33.1 103.8 33.1 C 103.82 33.29 103.8 33.5 103.8 33.5 C 103.8 33.5 103.82 33.45 103.8 33.5 C 104 33 104.6 32.2 105.8 32.2 C 107.1 32.2 107.5 32.9 107.5 34.1 C 107.5 34.1 107.5 36.5 107.5 36.5 C 107.5 36.7 107.6 36.7 107.7 36.7 C 107.73 36.75 108.2 36.7 108.2 36.7 L 108.2 37.3 C 108.2 37.3 107.44 37.33 107.4 37.3 C 107 37.3 106.8 37.2 106.8 36.7 C 106.8 36.7 106.8 34.3 106.8 34.3 C 106.8 33.5 106.7 32.8 105.7 32.8 C 104.9 32.8 104.1 33.4 103.9 34.2 C 103.9 34.5 103.8 34.7 103.8 34.9 C 103.83 34.92 103.8 37.3 103.8 37.3 L 103.2 37.3 C 103.2 37.3 103.16 33.11 103.2 33.1 Z M 109.4 38.8 C 109.8 38.8 110.1 38.5 110.3 38 C 110.33 38.01 110.6 37.3 110.6 37.3 C 110.6 37.3 108.86 33.12 108.9 33.1 C 108.8 32.9 108.7 32.9 108.5 32.9 C 108.51 32.89 108.4 32.9 108.4 32.9 L 108.4 32.3 C 108.4 32.3 108.72 32.31 108.7 32.3 C 109.2 32.3 109.3 32.4 109.5 32.9 C 109.5 32.9 110.8 36 110.8 36 C 110.88 36.24 111 36.5 111 36.5 L 111 36.5 C 111 36.5 111.05 36.24 111.1 36 C 111.1 36 112.4 32.9 112.4 32.9 C 112.6 32.4 112.7 32.3 113.2 32.3 C 113.16 32.31 113.5 32.3 113.5 32.3 L 113.5 32.9 C 113.5 32.9 113.37 32.89 113.4 32.9 C 113.2 32.9 113.1 32.9 113 33.1 C 113 33.1 110.9 38.4 110.9 38.4 C 110.6 39 110.1 39.4 109.4 39.4 C 108.72 39.43 108.3 38.9 108.3 38.9 C 108.3 38.9 108.65 38.45 108.6 38.4 C 108.6 38.5 109 38.8 109.4 38.8 Z M 117.3 32.9 L 116.6 32.9 L 116.6 32.3 L 117.3 32.3 L 117.3 30.9 L 118 30.9 L 118 32.3 L 119.2 32.3 L 119.2 32.9 L 118 32.9 C 118 32.9 117.96 35.43 118 35.4 C 118 36.6 118.7 36.8 119.1 36.8 C 119.23 36.77 119.3 36.7 119.3 36.7 L 119.3 37.4 C 119.3 37.4 119.2 37.37 119 37.4 C 118.5 37.4 117.3 37.2 117.3 35.5 C 117.29 35.5 117.3 32.9 117.3 32.9 Z M 122.7 32.2 C 124.1 32.2 125.3 33.3 125.3 34.8 C 125.3 36.3 124.1 37.5 122.7 37.5 C 121.2 37.5 120 36.3 120 34.8 C 120 33.3 121.2 32.2 122.7 32.2 Z M 122.7 36.8 C 123.7 36.8 124.6 36 124.6 34.8 C 124.6 33.7 123.7 32.8 122.7 32.8 C 121.6 32.8 120.7 33.7 120.7 34.8 C 120.7 36 121.6 36.8 122.7 36.8 Z M 126.6 33.1 C 126.6 33 126.5 32.9 126.4 32.9 C 126.37 32.89 125.9 32.9 125.9 32.9 L 125.9 32.3 C 125.9 32.3 126.65 32.31 126.6 32.3 C 127.1 32.3 127.3 32.5 127.3 32.9 C 127.3 32.9 127.3 33.1 127.3 33.1 C 127.25 33.29 127.2 33.5 127.2 33.5 C 127.2 33.5 127.25 33.45 127.3 33.5 C 127.4 33 128.1 32.2 129.3 32.2 C 130.5 32.2 130.9 32.9 130.9 34.1 C 130.9 34.1 130.9 36.5 130.9 36.5 C 130.9 36.7 131 36.7 131.2 36.7 C 131.16 36.75 131.6 36.7 131.6 36.7 L 131.6 37.3 C 131.6 37.3 130.87 37.33 130.9 37.3 C 130.4 37.3 130.3 37.2 130.3 36.7 C 130.3 36.7 130.3 34.3 130.3 34.3 C 130.3 33.5 130.1 32.8 129.2 32.8 C 128.3 32.8 127.6 33.4 127.3 34.2 C 127.3 34.5 127.3 34.7 127.3 34.9 C 127.26 34.92 127.3 37.3 127.3 37.3 L 126.6 37.3 C 126.6 37.3 126.59 33.11 126.6 33.1 Z M 132.6 33.1 C 132.6 33 132.6 32.9 132.4 32.9 C 132.43 32.89 132 32.9 132 32.9 L 132 32.3 C 132 32.3 132.72 32.31 132.7 32.3 C 133.1 32.3 133.3 32.5 133.3 32.9 C 133.3 32.9 133.3 35.3 133.3 35.3 C 133.3 36.1 133.5 36.8 134.4 36.8 C 135.6 36.8 136.3 35.8 136.3 34.7 C 136.28 34.71 136.3 32.3 136.3 32.3 L 137 32.3 C 137 32.3 136.95 36.53 137 36.5 C 137 36.7 137 36.7 137.2 36.7 C 137.17 36.75 137.6 36.7 137.6 36.7 L 137.6 37.3 C 137.6 37.3 136.9 37.33 136.9 37.3 C 136.5 37.3 136.3 37.2 136.3 36.8 C 136.3 36.8 136.3 36.5 136.3 36.5 C 136.3 36.3 136.3 36.2 136.3 36.2 C 136.3 36.2 136.3 36.2 136.3 36.2 C 136.1 36.7 135.4 37.5 134.3 37.5 C 133.1 37.5 132.6 36.8 132.6 35.5 C 132.6 35.5 132.6 33.1 132.6 33.1 Z M 138.5 36.1 C 138.5 36.1 139.06 36.87 140.1 36.9 C 140.6 36.9 141.1 36.6 141.1 36.1 C 141.1 35 138.3 35.2 138.3 33.5 C 138.3 32.6 139.1 32.2 140.1 32.2 C 140.6 32.2 141.6 32.4 141.6 33.1 C 141.61 33.09 141.6 33.5 141.6 33.5 L 141 33.5 C 141 33.5 140.98 33.28 141 33.3 C 141 32.9 140.4 32.8 140.1 32.8 C 139.4 32.8 139 33 139 33.5 C 139 34.6 141.8 34.4 141.8 36 C 141.8 36.9 141 37.5 140 37.5 C 138.73 37.45 138.1 36.6 138.1 36.6 L 138.5 36.1 Z " stroke="none" fill="#000"/>  </g>  <g id="Polygon67970">    <path d="M 6.6 18.9 L 6 18.9 L 6 18.3 C 6 18.3 8.95 18.31 8.9 18.3 C 10.1 18.3 11 19.1 11 20.3 C 11 21.4 10.3 22 9.6 22.2 C 9.61 22.18 9.6 22.2 9.6 22.2 C 9.6 22.2 9.75 22.28 9.8 22.5 C 9.8 22.5 10.9 24.5 10.9 24.5 C 11 24.7 11.1 24.7 11.4 24.7 C 11.36 24.72 11.5 24.7 11.5 24.7 L 11.5 25.3 C 11.5 25.3 11.19 25.33 11.2 25.3 C 10.6 25.3 10.4 25.3 10.2 24.8 C 10.2 24.8 9.2 22.8 9.2 22.8 C 9 22.4 8.9 22.4 8.5 22.4 C 8.5 22.37 7.3 22.4 7.3 22.4 L 7.3 25.3 L 6.6 25.3 L 6.6 18.9 Z M 8.9 21.8 C 9.7 21.8 10.2 21.2 10.2 20.3 C 10.2 19.5 9.7 18.9 8.9 18.9 C 8.89 18.92 7.3 18.9 7.3 18.9 L 7.3 21.8 C 7.3 21.8 8.88 21.76 8.9 21.8 Z M 14.4 20.2 C 15.8 20.2 16.5 21.3 16.5 22.5 C 16.52 22.62 16.5 22.8 16.5 22.8 C 16.5 22.8 12.64 22.84 12.6 22.8 C 12.7 24.1 13.5 24.8 14.6 24.8 C 15.51 24.85 16.1 24.2 16.1 24.2 L 16.4 24.7 C 16.4 24.7 15.7 25.45 14.6 25.5 C 13.1 25.5 11.9 24.4 11.9 22.8 C 11.9 21.2 13.1 20.2 14.4 20.2 Z M 15.8 22.3 C 15.8 21.3 15.1 20.8 14.4 20.8 C 13.6 20.8 12.8 21.3 12.7 22.3 C 12.7 22.3 15.8 22.3 15.8 22.3 Z M 19.6 20.2 C 20.96 20.19 21.3 21 21.3 21 L 21.3 21 C 21.3 21 21.3 20.95 21.3 20.9 C 21.3 20.5 21.5 20.3 21.9 20.3 C 21.87 20.31 22.6 20.3 22.6 20.3 L 22.6 20.9 C 22.6 20.9 22.16 20.89 22.2 20.9 C 22 20.9 21.9 21 21.9 21.1 C 21.9 21.1 21.9 25.2 21.9 25.2 C 21.9 26.8 20.8 27.4 19.5 27.4 C 18.9 27.4 18.4 27.3 17.9 27 C 17.88 27.03 18.1 26.5 18.1 26.5 C 18.1 26.5 18.76 26.82 19.5 26.8 C 20.5 26.8 21.3 26.4 21.3 25.2 C 21.3 25.2 21.3 24.8 21.3 24.8 C 21.26 24.61 21.3 24.4 21.3 24.4 C 21.3 24.4 21.25 24.44 21.2 24.4 C 20.9 25 20.4 25.3 19.7 25.3 C 18.3 25.3 17.4 24.2 17.4 22.7 C 17.4 21.2 18.3 20.2 19.6 20.2 Z M 21.3 22.7 C 21.3 21.3 20.6 20.8 19.7 20.8 C 18.7 20.8 18.1 21.5 18.1 22.7 C 18.1 23.9 18.8 24.7 19.8 24.7 C 20.6 24.7 21.3 24.2 21.3 22.7 Z M 25.7 20.2 C 27.1 20.2 27.8 21.3 27.8 22.5 C 27.79 22.62 27.8 22.8 27.8 22.8 C 27.8 22.8 23.91 22.84 23.9 22.8 C 23.9 24.1 24.8 24.8 25.9 24.8 C 26.78 24.85 27.4 24.2 27.4 24.2 L 27.7 24.7 C 27.7 24.7 26.97 25.45 25.8 25.5 C 24.3 25.5 23.2 24.4 23.2 22.8 C 23.2 21.2 24.3 20.2 25.7 20.2 Z M 27.1 22.3 C 27 21.3 26.4 20.8 25.7 20.8 C 24.8 20.8 24.1 21.3 23.9 22.3 C 23.9 22.3 27.1 22.3 27.1 22.3 Z M 29.1 21.1 C 29.1 21 29.1 20.9 28.9 20.9 C 28.93 20.89 28.5 20.9 28.5 20.9 L 28.5 20.3 C 28.5 20.3 29.21 20.31 29.2 20.3 C 29.6 20.3 29.8 20.5 29.8 20.9 C 29.8 20.9 29.8 21.1 29.8 21.1 C 29.82 21.29 29.8 21.5 29.8 21.5 C 29.8 21.5 29.82 21.45 29.8 21.5 C 30 21 30.6 20.2 31.8 20.2 C 33.1 20.2 33.5 20.9 33.5 22.1 C 33.5 22.1 33.5 24.5 33.5 24.5 C 33.5 24.7 33.6 24.7 33.7 24.7 C 33.73 24.75 34.1 24.7 34.1 24.7 L 34.1 25.3 C 34.1 25.3 33.44 25.33 33.4 25.3 C 33 25.3 32.8 25.2 32.8 24.7 C 32.8 24.7 32.8 22.3 32.8 22.3 C 32.8 21.5 32.7 20.8 31.7 20.8 C 30.9 20.8 30.1 21.4 29.9 22.2 C 29.8 22.5 29.8 22.7 29.8 22.9 C 29.83 22.92 29.8 25.3 29.8 25.3 L 29.1 25.3 C 29.1 25.3 29.15 21.11 29.1 21.1 Z M 37.2 20.2 C 38.6 20.2 39.3 21.3 39.3 22.5 C 39.35 22.62 39.3 22.8 39.3 22.8 C 39.3 22.8 35.47 22.84 35.5 22.8 C 35.5 24.1 36.4 24.8 37.4 24.8 C 38.34 24.85 38.9 24.2 38.9 24.2 L 39.3 24.7 C 39.3 24.7 38.53 25.45 37.4 25.5 C 35.9 25.5 34.8 24.4 34.8 22.8 C 34.8 21.2 35.9 20.2 37.2 20.2 Z M 38.6 22.3 C 38.6 21.3 38 20.8 37.2 20.8 C 36.4 20.8 35.7 21.3 35.5 22.3 C 35.5 22.3 38.6 22.3 38.6 22.3 Z M 40.7 21.1 C 40.7 21 40.6 20.9 40.5 20.9 C 40.49 20.89 40.1 20.9 40.1 20.9 L 40.1 20.3 C 40.1 20.3 40.77 20.31 40.8 20.3 C 41.2 20.3 41.4 20.5 41.4 20.9 C 41.4 20.9 41.4 21.2 41.4 21.2 C 41.38 21.42 41.4 21.6 41.4 21.6 C 41.4 21.6 41.38 21.59 41.4 21.6 C 41.6 20.8 42.2 20.3 43 20.3 C 43.1 20.3 43.2 20.3 43.2 20.3 C 43.24 20.29 43.2 21 43.2 21 C 43.2 21 43.12 20.93 43 20.9 C 42.3 20.9 41.7 21.5 41.5 22.2 C 41.4 22.6 41.4 22.9 41.4 23.2 C 41.39 23.21 41.4 25.3 41.4 25.3 L 40.7 25.3 C 40.7 25.3 40.71 21.11 40.7 21.1 Z M 44.4 21.1 C 44.4 21 44.3 20.9 44.2 20.9 C 44.16 20.89 43.7 20.9 43.7 20.9 L 43.7 20.3 C 43.7 20.3 44.45 20.31 44.4 20.3 C 44.9 20.3 45.1 20.5 45.1 20.9 C 45.1 20.9 45.1 23.3 45.1 23.3 C 45.1 24.1 45.2 24.8 46.2 24.8 C 47.3 24.8 48 23.8 48 22.7 C 48.01 22.71 48 20.3 48 20.3 L 48.7 20.3 C 48.7 20.3 48.69 24.53 48.7 24.5 C 48.7 24.7 48.8 24.7 48.9 24.7 C 48.91 24.75 49.3 24.7 49.3 24.7 L 49.3 25.3 C 49.3 25.3 48.64 25.33 48.6 25.3 C 48.2 25.3 48 25.2 48 24.8 C 48 24.8 48 24.5 48 24.5 C 48 24.3 48 24.2 48 24.2 C 48 24.2 48 24.2 48 24.2 C 47.8 24.7 47.2 25.5 46.1 25.5 C 44.9 25.5 44.4 24.8 44.4 23.5 C 44.4 23.5 44.4 21.1 44.4 21.1 Z M 50.7 18.3 L 51.3 18.3 L 51.3 19.2 L 50.7 19.2 L 50.7 18.3 Z M 49.6 26.8 C 50 26.8 50.7 26.6 50.7 25.5 C 50.7 25.5 50.7 21.1 50.7 21.1 C 50.7 21 50.6 20.9 50.5 20.9 C 50.49 20.89 50.1 20.9 50.1 20.9 L 50.1 20.3 C 50.1 20.3 50.78 20.31 50.8 20.3 C 51.2 20.3 51.4 20.5 51.4 20.9 C 51.4 20.9 51.4 25.5 51.4 25.5 C 51.4 27.2 50.2 27.4 49.6 27.4 C 49.5 27.4 49.3 27.4 49.3 27.4 C 49.35 27.36 49.3 26.8 49.3 26.8 C 49.3 26.8 49.44 26.79 49.6 26.8 Z M 55.1 20.2 C 56.5 20.2 57.2 21.3 57.2 22.5 C 57.22 22.62 57.2 22.8 57.2 22.8 C 57.2 22.8 53.34 22.84 53.3 22.8 C 53.4 24.1 54.3 24.8 55.3 24.8 C 56.22 24.85 56.8 24.2 56.8 24.2 L 57.1 24.7 C 57.1 24.7 56.41 25.45 55.3 25.5 C 53.8 25.5 52.6 24.4 52.6 22.8 C 52.6 21.2 53.8 20.2 55.1 20.2 Z M 56.5 22.3 C 56.5 21.3 55.8 20.8 55.1 20.8 C 54.3 20.8 53.5 21.3 53.4 22.3 C 53.4 22.3 56.5 22.3 56.5 22.3 Z M 63.9 22.2 C 63.92 22.24 64.2 22.2 64.2 22.2 C 64.2 22.2 64.2 22.18 64.2 22.2 C 64.2 21.1 63.8 20.8 62.9 20.8 C 62.6 20.8 61.9 20.8 61.9 21.2 C 61.91 21.19 61.9 21.5 61.9 21.5 L 61.3 21.5 C 61.3 21.5 61.27 21.03 61.3 21 C 61.3 20.3 62.5 20.2 62.9 20.2 C 64.5 20.2 64.9 21 64.9 22.1 C 64.9 22.1 64.9 24.5 64.9 24.5 C 64.9 24.7 65 24.7 65.1 24.7 C 65.09 24.75 65.5 24.7 65.5 24.7 L 65.5 25.3 C 65.5 25.3 64.82 25.33 64.8 25.3 C 64.4 25.3 64.2 25.1 64.2 24.7 C 64.2 24.5 64.2 24.4 64.2 24.4 C 64.2 24.4 64.2 24.4 64.2 24.4 C 64.2 24.4 63.8 25.5 62.5 25.5 C 61.7 25.5 60.8 25 60.8 24 C 60.8 22.3 63 22.2 63.9 22.2 Z M 62.7 24.9 C 63.6 24.9 64.2 23.9 64.2 23 C 64.2 23 64.2 22.8 64.2 22.8 C 64.2 22.8 63.91 22.77 63.9 22.8 C 63.1 22.8 61.5 22.8 61.5 23.9 C 61.5 24.4 61.9 24.9 62.7 24.9 Z M 69.3 21.1 C 69.3 21 69.2 20.9 69.1 20.9 C 69.08 20.89 68.7 20.9 68.7 20.9 L 68.7 20.3 C 68.7 20.3 69.37 20.31 69.4 20.3 C 69.8 20.3 70 20.5 70 20.9 C 70 20.9 70 23.3 70 23.3 C 70 24.1 70.1 24.8 71.1 24.8 C 72.2 24.8 72.9 23.8 72.9 22.7 C 72.93 22.71 72.9 20.3 72.9 20.3 L 73.6 20.3 C 73.6 20.3 73.6 24.53 73.6 24.5 C 73.6 24.7 73.7 24.7 73.8 24.7 C 73.82 24.75 74.2 24.7 74.2 24.7 L 74.2 25.3 C 74.2 25.3 73.55 25.33 73.6 25.3 C 73.1 25.3 72.9 25.2 72.9 24.8 C 72.9 24.8 72.9 24.5 72.9 24.5 C 72.9 24.3 73 24.2 73 24.2 C 73 24.2 72.9 24.2 72.9 24.2 C 72.7 24.7 72.1 25.5 71 25.5 C 69.8 25.5 69.3 24.8 69.3 23.5 C 69.3 23.5 69.3 21.1 69.3 21.1 Z M 77.2 20.2 C 78.38 20.19 78.8 21.1 78.8 21.1 L 78.8 21.1 C 78.8 21.1 78.8 20.95 78.8 20.7 C 78.8 20.7 78.8 19.1 78.8 19.1 C 78.8 19 78.7 18.9 78.6 18.9 C 78.58 18.89 78.2 18.9 78.2 18.9 L 78.2 18.3 C 78.2 18.3 78.87 18.31 78.9 18.3 C 79.3 18.3 79.5 18.5 79.5 18.9 C 79.5 18.9 79.5 24.5 79.5 24.5 C 79.5 24.7 79.6 24.7 79.7 24.7 C 79.69 24.75 80.1 24.7 80.1 24.7 L 80.1 25.3 C 80.1 25.3 79.41 25.33 79.4 25.3 C 79 25.3 78.8 25.1 78.8 24.8 C 78.8 24.6 78.8 24.5 78.8 24.5 C 78.84 24.46 78.8 24.5 78.8 24.5 C 78.8 24.5 78.41 25.45 77.1 25.5 C 75.7 25.5 74.9 24.4 74.9 22.8 C 74.9 21.2 75.8 20.2 77.2 20.2 Z M 78.8 22.8 C 78.8 21.8 78.3 20.8 77.2 20.8 C 76.3 20.8 75.6 21.5 75.6 22.8 C 75.6 24.1 76.2 24.8 77.2 24.8 C 78 24.8 78.8 24.2 78.8 22.8 Z M 81.2 21.1 C 81.2 21 81.1 20.9 81 20.9 C 81.01 20.89 80.6 20.9 80.6 20.9 L 80.6 20.3 C 80.6 20.3 81.29 20.31 81.3 20.3 C 81.7 20.3 81.9 20.5 81.9 20.9 C 81.9 20.9 81.9 21.2 81.9 21.2 C 81.89 21.42 81.9 21.6 81.9 21.6 C 81.9 21.6 81.89 21.59 81.9 21.6 C 82.1 20.8 82.7 20.3 83.5 20.3 C 83.6 20.3 83.8 20.3 83.8 20.3 C 83.75 20.29 83.8 21 83.8 21 C 83.8 21 83.63 20.93 83.5 20.9 C 82.8 20.9 82.3 21.5 82 22.2 C 81.9 22.6 81.9 22.9 81.9 23.2 C 81.9 23.21 81.9 25.3 81.9 25.3 L 81.2 25.3 C 81.2 25.3 81.23 21.11 81.2 21.1 Z M 84.4 24.9 C 84.4 24.9 87.2 21.36 87.2 21.4 C 87.39 21.12 87.6 20.9 87.6 20.9 L 87.6 20.9 C 87.6 20.9 87.43 20.9 87.1 20.9 C 87.1 20.9 85.3 20.9 85.3 20.9 C 85.1 20.9 85 21 85 21.1 C 85.03 21.12 85 21.5 85 21.5 L 84.4 21.5 C 84.4 21.5 84.4 20.91 84.4 20.9 C 84.4 20.5 84.6 20.3 85 20.3 C 85 20.31 88.5 20.3 88.5 20.3 L 88.5 20.8 C 88.5 20.8 85.67 24.28 85.7 24.3 C 85.47 24.52 85.3 24.7 85.3 24.7 L 85.3 24.8 C 85.3 24.8 85.43 24.74 85.8 24.7 C 85.8 24.7 87.8 24.7 87.8 24.7 C 88 24.7 88.1 24.7 88.1 24.5 C 88.07 24.52 88.1 24.1 88.1 24.1 L 88.7 24.1 C 88.7 24.1 88.7 24.73 88.7 24.7 C 88.7 25.2 88.5 25.3 88.1 25.3 C 88.1 25.33 84.4 25.3 84.4 25.3 L 84.4 24.9 Z M 85.4 18.3 L 86 18.3 L 86.5 19.1 L 86.6 19.1 L 87.1 18.3 L 87.7 18.3 L 86.9 19.5 L 86.2 19.5 L 85.4 18.3 Z M 89.9 18.3 L 90.5 18.3 L 90.5 19.2 L 89.9 19.2 L 89.9 18.3 Z M 89.9 21.1 C 89.9 21 89.8 20.9 89.7 20.9 C 89.67 20.89 89.2 20.9 89.2 20.9 L 89.2 20.3 C 89.2 20.3 89.96 20.31 90 20.3 C 90.4 20.3 90.6 20.5 90.6 20.9 C 90.6 20.9 90.6 24.5 90.6 24.5 C 90.6 24.7 90.6 24.7 90.8 24.7 C 90.78 24.75 91.2 24.7 91.2 24.7 L 91.2 25.3 C 91.2 25.3 90.49 25.33 90.5 25.3 C 90.1 25.3 89.9 25.2 89.9 24.7 C 89.9 24.7 89.9 21.1 89.9 21.1 Z M 95 22.2 C 94.96 22.24 95.2 22.2 95.2 22.2 C 95.2 22.2 95.24 22.18 95.2 22.2 C 95.2 21.1 94.9 20.8 93.9 20.8 C 93.7 20.8 93 20.8 93 21.2 C 92.95 21.19 93 21.5 93 21.5 L 92.3 21.5 C 92.3 21.5 92.31 21.03 92.3 21 C 92.3 20.3 93.5 20.2 93.9 20.2 C 95.5 20.2 95.9 21 95.9 22.1 C 95.9 22.1 95.9 24.5 95.9 24.5 C 95.9 24.7 96 24.7 96.1 24.7 C 96.13 24.75 96.6 24.7 96.6 24.7 L 96.6 25.3 C 96.6 25.3 95.86 25.33 95.9 25.3 C 95.4 25.3 95.3 25.1 95.3 24.7 C 95.3 24.5 95.3 24.4 95.3 24.4 C 95.3 24.4 95.3 24.4 95.3 24.4 C 95.3 24.4 94.8 25.5 93.6 25.5 C 92.7 25.5 91.9 25 91.9 24 C 91.9 22.3 94.1 22.2 95 22.2 Z M 93.7 24.9 C 94.7 24.9 95.2 23.9 95.2 23 C 95.24 23 95.2 22.8 95.2 22.8 C 95.2 22.8 94.95 22.77 94.9 22.8 C 94.2 22.8 92.6 22.8 92.6 23.9 C 92.6 24.4 92.9 24.9 93.7 24.9 Z M 97.2 21.1 C 97.2 20.9 97.1 20.9 96.9 20.9 C 96.88 20.89 96.8 20.9 96.8 20.9 L 96.8 20.3 C 96.8 20.3 97.06 20.31 97.1 20.3 C 97.5 20.3 97.7 20.4 97.9 20.9 C 97.9 20.9 99.1 24 99.1 24 C 99.15 24.25 99.2 24.6 99.2 24.6 L 99.3 24.6 C 99.3 24.6 99.33 24.25 99.4 24 C 99.4 24 100.6 20.9 100.6 20.9 C 100.8 20.4 101 20.3 101.4 20.3 C 101.42 20.31 101.7 20.3 101.7 20.3 L 101.7 20.9 C 101.7 20.9 101.59 20.89 101.6 20.9 C 101.4 20.9 101.3 20.9 101.2 21.1 C 101.24 21.12 99.6 25.3 99.6 25.3 L 98.9 25.3 C 98.9 25.3 97.23 21.12 97.2 21.1 Z M 105.3 22.2 C 105.26 22.24 105.5 22.2 105.5 22.2 C 105.5 22.2 105.54 22.18 105.5 22.2 C 105.5 21.1 105.2 20.8 104.2 20.8 C 104 20.8 103.3 20.8 103.3 21.2 C 103.25 21.19 103.3 21.5 103.3 21.5 L 102.6 21.5 C 102.6 21.5 102.61 21.03 102.6 21 C 102.6 20.3 103.8 20.2 104.2 20.2 C 105.8 20.2 106.2 21 106.2 22.1 C 106.2 22.1 106.2 24.5 106.2 24.5 C 106.2 24.7 106.3 24.7 106.4 24.7 C 106.43 24.75 106.9 24.7 106.9 24.7 L 106.9 25.3 C 106.9 25.3 106.16 25.33 106.2 25.3 C 105.7 25.3 105.6 25.1 105.6 24.7 C 105.6 24.5 105.6 24.4 105.6 24.4 C 105.6 24.4 105.6 24.4 105.6 24.4 C 105.6 24.4 105.1 25.5 103.9 25.5 C 103 25.5 102.2 25 102.2 24 C 102.2 22.3 104.4 22.2 105.3 22.2 Z M 104 24.9 C 105 24.9 105.5 23.9 105.5 23 C 105.54 23 105.5 22.8 105.5 22.8 C 105.5 22.8 105.25 22.77 105.2 22.8 C 104.5 22.8 102.9 22.8 102.9 23.9 C 102.9 24.4 103.2 24.9 104 24.9 Z M 110.7 20.9 L 110.1 20.9 L 110.1 20.3 L 110.7 20.3 L 110.7 18.9 L 111.4 18.9 L 111.4 20.3 L 112.7 20.3 L 112.7 20.9 L 111.4 20.9 C 111.4 20.9 111.39 23.43 111.4 23.4 C 111.4 24.6 112.1 24.8 112.5 24.8 C 112.66 24.77 112.8 24.7 112.8 24.7 L 112.8 25.4 C 112.8 25.4 112.63 25.37 112.5 25.4 C 111.9 25.4 110.7 25.2 110.7 23.5 C 110.72 23.5 110.7 20.9 110.7 20.9 Z M 113.9 19.1 C 113.9 19 113.8 18.9 113.7 18.9 C 113.69 18.89 113.3 18.9 113.3 18.9 L 113.3 18.3 C 113.3 18.3 113.98 18.31 114 18.3 C 114.4 18.3 114.6 18.5 114.6 18.9 C 114.58 18.88 114.6 22.2 114.6 22.2 C 114.6 22.2 115.1 22.23 115.1 22.2 C 115.3 22.2 115.5 22.2 115.7 22 C 115.67 21.99 117 20.3 117 20.3 L 117.8 20.3 C 117.8 20.3 116.34 22.15 116.3 22.1 C 116.09 22.45 116 22.5 116 22.5 L 116 22.5 C 116 22.5 116.11 22.59 116.3 22.9 C 116.3 22.9 117.2 24.5 117.2 24.5 C 117.3 24.7 117.4 24.7 117.6 24.7 C 117.64 24.75 117.9 24.7 117.9 24.7 L 117.9 25.3 C 117.9 25.3 117.44 25.33 117.4 25.3 C 116.9 25.3 116.8 25.3 116.6 24.8 C 116.6 24.8 115.6 23 115.6 23 C 115.5 22.8 115.2 22.8 115 22.8 C 115.04 22.81 114.6 22.8 114.6 22.8 L 114.6 25.3 L 113.9 25.3 C 113.9 25.3 113.91 19.11 113.9 19.1 Z M 121.5 22.2 C 121.46 22.24 121.7 22.2 121.7 22.2 C 121.7 22.2 121.74 22.18 121.7 22.2 C 121.7 21.1 121.4 20.8 120.4 20.8 C 120.2 20.8 119.5 20.8 119.5 21.2 C 119.45 21.19 119.5 21.5 119.5 21.5 L 118.8 21.5 C 118.8 21.5 118.81 21.03 118.8 21 C 118.8 20.3 120 20.2 120.4 20.2 C 122 20.2 122.4 21 122.4 22.1 C 122.4 22.1 122.4 24.5 122.4 24.5 C 122.4 24.7 122.5 24.7 122.6 24.7 C 122.63 24.75 123.1 24.7 123.1 24.7 L 123.1 25.3 C 123.1 25.3 122.36 25.33 122.4 25.3 C 121.9 25.3 121.8 25.1 121.8 24.7 C 121.8 24.5 121.8 24.4 121.8 24.4 C 121.8 24.4 121.8 24.4 121.8 24.4 C 121.8 24.4 121.3 25.5 120.1 25.5 C 119.2 25.5 118.4 25 118.4 24 C 118.4 22.3 120.6 22.2 121.5 22.2 Z M 120.2 24.9 C 121.2 24.9 121.7 23.9 121.7 23 C 121.74 23 121.7 22.8 121.7 22.8 C 121.7 22.8 121.45 22.77 121.4 22.8 C 120.7 22.8 119.1 22.8 119.1 23.9 C 119.1 24.4 119.4 24.9 120.2 24.9 Z M 124.1 21.1 C 124.1 21 124.1 20.9 123.9 20.9 C 123.92 20.89 123.5 20.9 123.5 20.9 L 123.5 20.3 C 123.5 20.3 124.2 20.31 124.2 20.3 C 124.6 20.3 124.8 20.5 124.8 20.9 C 124.8 20.9 124.8 21.1 124.8 21.1 C 124.8 21.29 124.8 21.5 124.8 21.5 C 124.8 21.5 124.8 21.45 124.8 21.5 C 125 21 125.6 20.2 126.8 20.2 C 128.1 20.2 128.5 20.9 128.5 22.1 C 128.5 22.1 128.5 24.5 128.5 24.5 C 128.5 24.7 128.6 24.7 128.7 24.7 C 128.71 24.75 129.1 24.7 129.1 24.7 L 129.1 25.3 C 129.1 25.3 128.42 25.33 128.4 25.3 C 128 25.3 127.8 25.2 127.8 24.7 C 127.8 24.7 127.8 22.3 127.8 22.3 C 127.8 21.5 127.7 20.8 126.7 20.8 C 125.9 20.8 125.1 21.4 124.9 22.2 C 124.8 22.5 124.8 22.7 124.8 22.9 C 124.81 22.92 124.8 25.3 124.8 25.3 L 124.1 25.3 C 124.1 25.3 124.14 21.11 124.1 21.1 Z M 130.2 18.3 L 130.9 18.3 L 130.9 19.2 L 130.2 19.2 L 130.2 18.3 Z M 130.3 21.1 C 130.3 21 130.2 20.9 130 20.9 C 130.05 20.89 129.6 20.9 129.6 20.9 L 129.6 20.3 C 129.6 20.3 130.33 20.31 130.3 20.3 C 130.8 20.3 130.9 20.5 130.9 20.9 C 130.9 20.9 130.9 24.5 130.9 24.5 C 130.9 24.7 131 24.7 131.2 24.7 C 131.16 24.75 131.6 24.7 131.6 24.7 L 131.6 25.3 C 131.6 25.3 130.87 25.33 130.9 25.3 C 130.4 25.3 130.3 25.2 130.3 24.7 C 130.3 24.7 130.3 21.1 130.3 21.1 Z M 132.4 21.1 C 132.3 20.9 132.2 20.9 132 20.9 C 132.04 20.89 131.9 20.9 131.9 20.9 L 131.9 20.3 C 131.9 20.3 132.22 20.31 132.2 20.3 C 132.7 20.3 132.8 20.4 133 20.9 C 133 20.9 134.2 24 134.2 24 C 134.31 24.25 134.4 24.6 134.4 24.6 L 134.4 24.6 C 134.4 24.6 134.49 24.25 134.6 24 C 134.6 24 135.8 20.9 135.8 20.9 C 136 20.4 136.1 20.3 136.6 20.3 C 136.58 20.31 136.8 20.3 136.8 20.3 L 136.8 20.9 C 136.8 20.9 136.75 20.89 136.8 20.9 C 136.6 20.9 136.5 20.9 136.4 21.1 C 136.4 21.12 134.8 25.3 134.8 25.3 L 134 25.3 C 134 25.3 132.39 21.12 132.4 21.1 Z M 140.4 22.2 C 140.41 22.24 140.7 22.2 140.7 22.2 C 140.7 22.2 140.7 22.18 140.7 22.2 C 140.7 21.1 140.3 20.8 139.4 20.8 C 139.1 20.8 138.4 20.8 138.4 21.2 C 138.41 21.19 138.4 21.5 138.4 21.5 L 137.8 21.5 C 137.8 21.5 137.77 21.03 137.8 21 C 137.8 20.3 139 20.2 139.4 20.2 C 141 20.2 141.4 21 141.4 22.1 C 141.4 22.1 141.4 24.5 141.4 24.5 C 141.4 24.7 141.5 24.7 141.6 24.7 C 141.59 24.75 142 24.7 142 24.7 L 142 25.3 C 142 25.3 141.32 25.33 141.3 25.3 C 140.9 25.3 140.7 25.1 140.7 24.7 C 140.7 24.5 140.7 24.4 140.7 24.4 C 140.7 24.4 140.7 24.4 140.7 24.4 C 140.7 24.4 140.3 25.5 139 25.5 C 138.2 25.5 137.3 25 137.3 24 C 137.3 22.3 139.5 22.2 140.4 22.2 Z M 139.2 24.9 C 140.1 24.9 140.7 23.9 140.7 23 C 140.7 23 140.7 22.8 140.7 22.8 C 140.7 22.8 140.4 22.77 140.4 22.8 C 139.6 22.8 138 22.8 138 23.9 C 138 24.4 138.4 24.9 139.2 24.9 Z M 139.9 18.3 L 140.7 18.3 L 139.8 19.5 L 139.2 19.5 L 139.9 18.3 Z " stroke="none" fill="#000"/>  </g>  <g id="Polygon67969">    <path d="M 47.2 0.4 C 48.5 0.4 51 0.9 51 2.6 C 50.98 2.62 51 3.7 51 3.7 L 49.3 3.7 C 49.3 3.7 49.32 3.16 49.3 3.2 C 49.3 2.4 48.1 2.1 47.3 2.1 C 45.5 2.1 44.1 3.4 44.1 5.4 C 44.1 7.4 45.5 9 47.3 9 C 49.19 8.96 50.3 7.6 50.3 7.6 L 51.3 9 C 51.3 9 49.85 10.67 47.3 10.7 C 44.2 10.7 42.2 8.4 42.2 5.4 C 42.2 2.6 44.3 0.4 47.2 0.4 Z M 53 0.6 L 54.5 0.6 L 54.5 2.2 L 53 2.2 L 53 0.6 Z M 52.9 5.2 C 52.9 5 52.8 4.9 52.6 4.9 C 52.59 4.87 52 4.9 52 4.9 L 52 3.4 C 52 3.4 53.72 3.36 53.7 3.4 C 54.4 3.4 54.7 3.7 54.7 4.3 C 54.7 4.3 54.7 8.7 54.7 8.7 C 54.7 8.9 54.8 9 55 9 C 54.97 9 55.5 9 55.5 9 L 55.5 10.5 C 55.5 10.5 53.84 10.5 53.8 10.5 C 53.2 10.5 52.9 10.2 52.9 9.5 C 52.9 9.5 52.9 5.2 52.9 5.2 Z M 59.9 3.2 C 62 3.2 63.1 4.7 63.1 6.6 C 63.1 6.79 63.1 7.2 63.1 7.2 C 63.1 7.2 58.13 7.24 58.1 7.2 C 58.3 8.5 59.2 9.2 60.3 9.2 C 61.43 9.16 62.3 8.4 62.3 8.4 L 63 9.6 C 63 9.6 61.93 10.67 60.2 10.7 C 57.8 10.7 56.3 9 56.3 6.9 C 56.3 4.7 57.8 3.2 59.9 3.2 Z M 61.3 6 C 61.3 5.2 60.7 4.6 59.9 4.6 C 59 4.6 58.4 5.1 58.2 6 C 58.2 6 61.3 6 61.3 6 Z M 64.4 5.1 C 64.3 4.9 64.2 4.9 64 4.9 C 63.99 4.87 63.8 4.9 63.8 4.9 L 63.8 3.4 C 63.8 3.4 64.86 3.36 64.9 3.4 C 65.4 3.4 65.7 3.5 65.9 4 C 65.9 4 67.2 7.8 67.2 7.8 C 67.4 8.2 67.5 8.8 67.5 8.8 L 67.5 8.8 C 67.5 8.8 67.65 8.2 67.8 7.8 C 67.8 7.8 69.1 4 69.1 4 C 69.3 3.5 69.6 3.4 70.2 3.4 C 70.19 3.36 71.1 3.4 71.1 3.4 L 71.1 4.9 C 71.1 4.9 70.97 4.87 71 4.9 C 70.8 4.9 70.6 4.9 70.6 5.1 C 70.58 5.12 68.5 10.5 68.5 10.5 L 66.4 10.5 C 66.4 10.5 64.38 5.12 64.4 5.1 Z M 72.5 5.2 C 72.5 5 72.3 4.9 72.1 4.9 C 72.15 4.87 71.6 4.9 71.6 4.9 L 71.6 3.4 C 71.6 3.4 73.23 3.36 73.2 3.4 C 73.9 3.4 74.2 3.7 74.2 4.2 C 74.2 4.2 74.2 4.4 74.2 4.4 C 74.2 4.5 74.1 4.7 74.1 4.7 C 74.1 4.7 74.2 4.7 74.2 4.7 C 74.5 4.1 75.2 3.2 76.7 3.2 C 78.3 3.2 79.2 4 79.2 5.9 C 79.2 5.9 79.2 8.7 79.2 8.7 C 79.2 8.9 79.3 9 79.5 9 C 79.48 9 80 9 80 9 L 80 10.5 C 80 10.5 78.35 10.5 78.4 10.5 C 77.7 10.5 77.4 10.2 77.4 9.5 C 77.4 9.5 77.4 6.3 77.4 6.3 C 77.4 5.4 77.2 4.8 76.3 4.8 C 75.3 4.8 74.6 5.4 74.4 6.3 C 74.3 6.6 74.2 6.9 74.2 7.2 C 74.22 7.22 74.2 10.5 74.2 10.5 L 72.5 10.5 C 72.5 10.5 72.46 5.18 72.5 5.2 Z M 85 6 C 85 6.02 85.2 6 85.2 6 C 85.2 6 85.23 5.96 85.2 6 C 85.2 4.9 84.8 4.6 83.9 4.6 C 83.6 4.6 83 4.6 83 5 C 82.96 5.04 83 5.4 83 5.4 L 81.3 5.4 C 81.3 5.4 81.31 4.66 81.3 4.7 C 81.3 3.3 83.2 3.2 83.9 3.2 C 86.3 3.2 87 4.4 87 6 C 87 6 87 8.7 87 8.7 C 87 8.9 87.1 9 87.3 9 C 87.31 9 87.9 9 87.9 9 L 87.9 10.5 C 87.9 10.5 86.27 10.5 86.3 10.5 C 85.6 10.5 85.4 10.1 85.4 9.7 C 85.4 9.5 85.4 9.4 85.4 9.4 C 85.38 9.41 85.4 9.4 85.4 9.4 C 85.4 9.4 84.8 10.67 83.2 10.7 C 81.9 10.7 80.8 9.9 80.8 8.4 C 80.8 6.2 83.8 6 85 6 Z M 83.6 9.3 C 84.6 9.3 85.3 8.3 85.3 7.4 C 85.25 7.41 85.3 7.2 85.3 7.2 C 85.3 7.2 84.95 7.24 84.9 7.2 C 84 7.2 82.5 7.4 82.5 8.4 C 82.5 8.8 82.9 9.3 83.6 9.3 Z M 93 8.2 C 93 8.2 93.95 9.28 95.2 9.3 C 95.7 9.3 96.1 9.1 96.1 8.6 C 96.1 7.6 92.4 7.6 92.4 5.3 C 92.4 3.9 93.7 3.2 95.1 3.2 C 96.1 3.2 97.6 3.5 97.6 4.7 C 97.64 4.68 97.6 5.4 97.6 5.4 L 96.1 5.4 C 96.1 5.4 96.08 5.07 96.1 5.1 C 96.1 4.7 95.6 4.6 95.2 4.6 C 94.5 4.6 94.1 4.8 94.1 5.2 C 94.1 6.3 97.9 6.1 97.9 8.5 C 97.9 9.8 96.7 10.7 95.2 10.7 C 93.2 10.67 92.2 9.4 92.2 9.4 L 93 8.2 Z M 99.5 5.2 C 99.5 5 99.4 4.9 99.2 4.9 C 99.23 4.87 98.7 4.9 98.7 4.9 L 98.7 3.4 C 98.7 3.4 100.36 3.36 100.4 3.4 C 101 3.4 101.3 3.7 101.3 4.3 C 101.3 4.3 101.3 7.6 101.3 7.6 C 101.3 8.5 101.5 9 102.4 9 C 103.7 9 104.4 7.9 104.4 6.6 C 104.41 6.64 104.4 3.4 104.4 3.4 L 106.2 3.4 C 106.2 3.4 106.18 8.69 106.2 8.7 C 106.2 8.9 106.3 9 106.5 9 C 106.49 9 107 9 107 9 L 107 10.5 C 107 10.5 105.41 10.5 105.4 10.5 C 104.8 10.5 104.5 10.2 104.5 9.7 C 104.5 9.7 104.5 9.5 104.5 9.5 C 104.5 9.3 104.5 9.2 104.5 9.2 C 104.5 9.2 104.5 9.2 104.5 9.2 C 104.1 9.9 103.2 10.7 102 10.7 C 100.5 10.7 99.5 9.9 99.5 8 C 99.5 8 99.5 5.2 99.5 5.2 Z M 103.2 0.6 L 104.9 0.6 L 103.4 2.5 L 102.1 2.5 L 103.2 0.6 Z M 108.5 8.2 C 108.5 8.2 109.43 9.28 110.6 9.3 C 111.2 9.3 111.6 9.1 111.6 8.6 C 111.6 7.6 107.8 7.6 107.8 5.3 C 107.8 3.9 109.1 3.2 110.6 3.2 C 111.6 3.2 113.1 3.5 113.1 4.7 C 113.13 4.68 113.1 5.4 113.1 5.4 L 111.6 5.4 C 111.6 5.4 111.56 5.07 111.6 5.1 C 111.6 4.7 111.1 4.6 110.7 4.6 C 110 4.6 109.6 4.8 109.6 5.2 C 109.6 6.3 113.4 6.1 113.4 8.5 C 113.4 9.8 112.2 10.7 110.6 10.7 C 108.69 10.67 107.7 9.4 107.7 9.4 L 108.5 8.2 Z M 115.1 4.8 L 114.1 4.8 L 114.1 3.4 L 115.1 3.4 L 115.1 1.4 L 116.8 1.4 L 116.8 3.4 L 118.5 3.4 L 118.5 4.8 L 116.8 4.8 C 116.8 4.8 116.85 7.66 116.8 7.7 C 116.8 8.8 117.8 9 118.3 9 C 118.46 9 118.6 9 118.6 9 L 118.6 10.5 C 118.6 10.5 118.36 10.57 118 10.6 C 117 10.6 115.1 10.3 115.1 7.9 C 115.07 7.88 115.1 4.8 115.1 4.8 Z M 123.7 6 C 123.72 6.02 123.9 6 123.9 6 C 123.9 6 123.95 5.96 123.9 6 C 123.9 4.9 123.5 4.6 122.6 4.6 C 122.3 4.6 121.7 4.6 121.7 5 C 121.68 5.04 121.7 5.4 121.7 5.4 L 120 5.4 C 120 5.4 120.03 4.66 120 4.7 C 120 3.3 121.9 3.2 122.6 3.2 C 125 3.2 125.7 4.4 125.7 6 C 125.7 6 125.7 8.7 125.7 8.7 C 125.7 8.9 125.8 9 126 9 C 126.03 9 126.6 9 126.6 9 L 126.6 10.5 C 126.6 10.5 125 10.5 125 10.5 C 124.3 10.5 124.1 10.1 124.1 9.7 C 124.1 9.5 124.1 9.4 124.1 9.4 C 124.1 9.41 124.1 9.4 124.1 9.4 C 124.1 9.4 123.53 10.67 121.9 10.7 C 120.6 10.7 119.5 9.9 119.5 8.4 C 119.5 6.2 122.6 6 123.7 6 Z M 122.4 9.3 C 123.3 9.3 124 8.3 124 7.4 C 123.98 7.41 124 7.2 124 7.2 C 124 7.2 123.67 7.24 123.7 7.2 C 122.7 7.2 121.3 7.4 121.3 8.4 C 121.3 8.8 121.6 9.3 122.4 9.3 Z M 127.4 5.1 C 127.4 4.9 127.2 4.9 127 4.9 C 127.04 4.87 126.9 4.9 126.9 4.9 L 126.9 3.4 C 126.9 3.4 127.91 3.36 127.9 3.4 C 128.5 3.4 128.8 3.5 129 4 C 129 4 130.3 7.8 130.3 7.8 C 130.46 8.2 130.6 8.8 130.6 8.8 L 130.6 8.8 C 130.6 8.8 130.71 8.2 130.8 7.8 C 130.8 7.8 132.2 4 132.2 4 C 132.4 3.5 132.7 3.4 133.2 3.4 C 133.24 3.36 134.2 3.4 134.2 3.4 L 134.2 4.9 C 134.2 4.9 134.03 4.87 134 4.9 C 133.8 4.9 133.7 4.9 133.6 5.1 C 133.64 5.12 131.6 10.5 131.6 10.5 L 129.5 10.5 C 129.5 10.5 127.43 5.12 127.4 5.1 Z M 139 6 C 138.98 6.02 139.2 6 139.2 6 C 139.2 6 139.21 5.96 139.2 6 C 139.2 4.9 138.8 4.6 137.9 4.6 C 137.6 4.6 136.9 4.6 136.9 5 C 136.94 5.04 136.9 5.4 136.9 5.4 L 135.3 5.4 C 135.3 5.4 135.29 4.66 135.3 4.7 C 135.3 3.3 137.2 3.2 137.9 3.2 C 140.3 3.2 141 4.4 141 6 C 141 6 141 8.7 141 8.7 C 141 8.9 141.1 9 141.3 9 C 141.29 9 141.9 9 141.9 9 L 141.9 10.5 C 141.9 10.5 140.26 10.5 140.3 10.5 C 139.6 10.5 139.3 10.1 139.3 9.7 C 139.3 9.5 139.4 9.4 139.4 9.4 C 139.36 9.41 139.3 9.4 139.3 9.4 C 139.3 9.4 138.79 10.67 137.2 10.7 C 135.9 10.7 134.7 9.9 134.7 8.4 C 134.7 6.2 137.8 6 139 6 Z M 137.6 9.3 C 138.6 9.3 139.2 8.3 139.2 7.4 C 139.24 7.41 139.2 7.2 139.2 7.2 C 139.2 7.2 138.93 7.24 138.9 7.2 C 138 7.2 136.5 7.4 136.5 8.4 C 136.5 8.8 136.9 9.3 137.6 9.3 Z M 145.2 1.7 C 145.2 1.2 144.9 0.9 144.4 0.9 C 143.9 0.9 143.6 1.2 143.6 1.4 C 143.62 1.38 143.6 1.6 143.6 1.6 L 142.7 1.6 C 142.7 1.6 142.66 1.06 142.7 1.1 C 142.7 0.3 143.7 -0.1 144.4 -0.1 C 145.4 -0.1 146.3 0.6 146.3 1.7 C 146.3 3.6 143.5 3.7 143.5 4.8 C 143.5 4.9 143.6 4.9 143.7 4.9 C 143.7 4.9 145.4 4.9 145.4 4.9 C 145.5 4.9 145.6 4.9 145.6 4.8 C 145.6 4.75 145.6 4.4 145.6 4.4 L 146.6 4.4 C 146.6 4.4 146.56 5.28 146.6 5.3 C 146.6 5.7 146.4 5.8 146 5.8 C 146 5.8 143 5.8 143 5.8 C 142.5 5.8 142.4 5.6 142.4 5.1 C 142.4 3 145.2 3.1 145.2 1.7 Z M 148.6 4.8 L 147.8 6.7 L 147 6.7 L 147.6 4.8 L 148.6 4.8 Z M 149.8 4.3 C 149.8 4.3 150.34 4.94 151.2 4.9 C 151.8 4.9 152.2 4.6 152.2 4.1 C 152.2 3.6 151.7 3.2 151.1 3.2 C 151.09 3.23 150.7 3.2 150.7 3.2 L 150.5 2.7 C 150.5 2.7 151.45 1.38 151.4 1.4 C 151.65 1.09 151.8 0.9 151.8 0.9 L 151.8 0.9 C 151.8 0.9 151.65 0.95 151.3 0.9 C 151.3 0.9 150.6 0.9 150.6 0.9 C 150.5 0.9 150.4 1 150.4 1.1 C 150.41 1.13 150.4 1.5 150.4 1.5 L 149.4 1.5 C 149.4 1.5 149.45 0.6 149.4 0.6 C 149.4 0.2 149.6 0 150 0 C 149.96 0.04 153.1 0 153.1 0 L 153.1 0.7 C 153.1 0.7 151.78 2.37 151.8 2.4 C 152.6 2.5 153.3 3.1 153.3 4.1 C 153.3 5 152.5 5.9 151.2 5.9 C 149.95 5.94 149.2 5.1 149.2 5.1 L 149.8 4.3 Z " stroke="none" fill="#5f0f50"/>  </g></svg>