<?xml version="1.0" standalone="no"?><!DOCTYPE svg PUBLIC "-//W3C//DTD SVG 1.1//EN" "http://www.w3.org/Graphics/SVG/1.1/DTD/svg11.dtd"><svg xmlns="http://www.w3.org/2000/svg" version="1.1" width="137.1px" height="49.5px" viewBox="0 -3 137.1 49.5" style="top:-3px">  <desc>Cievna s stava2,3 Predch dza vzniku a rastu aterosklerotick ch pl tov</desc>  <defs/>  <g id="Polygon68125">    <path d="M 3.5 34.2 C 3.48 34.24 3.8 34.2 3.8 34.2 C 3.8 34.2 3.76 34.18 3.8 34.2 C 3.8 33.1 3.4 32.8 2.5 32.8 C 2.2 32.8 1.5 32.8 1.5 33.2 C 1.48 33.19 1.5 33.5 1.5 33.5 L 0.8 33.5 C 0.8 33.5 0.83 33.03 0.8 33 C 0.8 32.3 2 32.2 2.5 32.2 C 4.1 32.2 4.4 33 4.4 34.1 C 4.4 34.1 4.4 36.5 4.4 36.5 C 4.4 36.7 4.5 36.7 4.7 36.7 C 4.66 36.75 5.1 36.7 5.1 36.7 L 5.1 37.3 C 5.1 37.3 4.39 37.33 4.4 37.3 C 4 37.3 3.8 37.1 3.8 36.7 C 3.8 36.5 3.8 36.4 3.8 36.4 C 3.8 36.4 3.8 36.4 3.8 36.4 C 3.8 36.4 3.4 37.5 2.1 37.5 C 1.3 37.5 0.4 37 0.4 36 C 0.4 34.3 2.6 34.2 3.5 34.2 Z M 2.2 36.9 C 3.2 36.9 3.8 35.9 3.8 35 C 3.76 35 3.8 34.8 3.8 34.8 C 3.8 34.8 3.47 34.77 3.5 34.8 C 2.7 34.8 1.1 34.8 1.1 35.9 C 1.1 36.4 1.5 36.9 2.2 36.9 Z M 6.2 32.9 L 5.6 32.9 L 5.6 32.3 L 6.2 32.3 L 6.2 30.9 L 6.9 30.9 L 6.9 32.3 L 8.2 32.3 L 8.2 32.9 L 6.9 32.9 C 6.9 32.9 6.9 35.43 6.9 35.4 C 6.9 36.6 7.6 36.8 8 36.8 C 8.17 36.77 8.3 36.7 8.3 36.7 L 8.3 37.4 C 8.3 37.4 8.14 37.37 8 37.4 C 7.4 37.4 6.2 37.2 6.2 35.5 C 6.22 35.5 6.2 32.9 6.2 32.9 Z M 11.4 32.2 C 12.8 32.2 13.5 33.3 13.5 34.5 C 13.53 34.62 13.5 34.8 13.5 34.8 C 13.5 34.8 9.65 34.84 9.6 34.8 C 9.7 36.1 10.6 36.8 11.6 36.8 C 12.52 36.85 13.1 36.2 13.1 36.2 L 13.4 36.7 C 13.4 36.7 12.71 37.45 11.6 37.5 C 10.1 37.5 8.9 36.4 8.9 34.8 C 8.9 33.2 10.1 32.2 11.4 32.2 Z M 12.8 34.3 C 12.8 33.3 12.2 32.8 11.4 32.8 C 10.6 32.8 9.8 33.3 9.7 34.3 C 9.7 34.3 12.8 34.3 12.8 34.3 Z M 14.9 33.1 C 14.9 33 14.8 32.9 14.7 32.9 C 14.67 32.89 14.3 32.9 14.3 32.9 L 14.3 32.3 C 14.3 32.3 14.95 32.31 15 32.3 C 15.4 32.3 15.6 32.5 15.6 32.9 C 15.6 32.9 15.6 33.2 15.6 33.2 C 15.56 33.42 15.5 33.6 15.5 33.6 C 15.5 33.6 15.56 33.59 15.6 33.6 C 15.8 32.8 16.4 32.3 17.1 32.3 C 17.3 32.3 17.4 32.3 17.4 32.3 C 17.42 32.29 17.4 33 17.4 33 C 17.4 33 17.3 32.93 17.2 32.9 C 16.5 32.9 15.9 33.5 15.7 34.2 C 15.6 34.6 15.6 34.9 15.6 35.2 C 15.57 35.21 15.6 37.3 15.6 37.3 L 14.9 37.3 C 14.9 37.3 14.89 33.11 14.9 33.1 Z M 20.5 32.2 C 22 32.2 23.1 33.3 23.1 34.8 C 23.1 36.3 22 37.5 20.5 37.5 C 19 37.5 17.8 36.3 17.8 34.8 C 17.8 33.3 19 32.2 20.5 32.2 Z M 20.5 36.8 C 21.6 36.8 22.5 36 22.5 34.8 C 22.5 33.7 21.6 32.8 20.5 32.8 C 19.4 32.8 18.5 33.7 18.5 34.8 C 18.5 36 19.4 36.8 20.5 36.8 Z M 24.2 36.1 C 24.2 36.1 24.79 36.87 25.8 36.9 C 26.3 36.9 26.8 36.6 26.8 36.1 C 26.8 35 24 35.2 24 33.5 C 24 32.6 24.8 32.2 25.8 32.2 C 26.3 32.2 27.3 32.4 27.3 33.1 C 27.34 33.09 27.3 33.5 27.3 33.5 L 26.7 33.5 C 26.7 33.5 26.7 33.28 26.7 33.3 C 26.7 32.9 26.2 32.8 25.8 32.8 C 25.1 32.8 24.7 33 24.7 33.5 C 24.7 34.6 27.5 34.4 27.5 36 C 27.5 36.9 26.8 37.5 25.8 37.5 C 24.46 37.45 23.8 36.6 23.8 36.6 L 24.2 36.1 Z M 28.8 31.1 C 28.8 31 28.7 30.9 28.6 30.9 C 28.57 30.89 28.2 30.9 28.2 30.9 L 28.2 30.3 C 28.2 30.3 28.86 30.31 28.9 30.3 C 29.3 30.3 29.5 30.5 29.5 30.9 C 29.47 30.88 29.5 34.2 29.5 34.2 C 29.5 34.2 29.99 34.23 30 34.2 C 30.2 34.2 30.4 34.2 30.6 34 C 30.56 33.99 31.8 32.3 31.8 32.3 L 32.7 32.3 C 32.7 32.3 31.23 34.15 31.2 34.1 C 30.98 34.45 30.8 34.5 30.8 34.5 L 30.8 34.5 C 30.8 34.5 31 34.59 31.2 34.9 C 31.2 34.9 32.1 36.5 32.1 36.5 C 32.2 36.7 32.3 36.7 32.5 36.7 C 32.53 36.75 32.8 36.7 32.8 36.7 L 32.8 37.3 C 32.8 37.3 32.33 37.33 32.3 37.3 C 31.8 37.3 31.7 37.3 31.5 36.8 C 31.5 36.8 30.5 35 30.5 35 C 30.3 34.8 30.1 34.8 29.9 34.8 C 29.93 34.81 29.5 34.8 29.5 34.8 L 29.5 37.3 L 28.8 37.3 C 28.8 37.3 28.79 31.11 28.8 31.1 Z M 33.7 31.1 C 33.7 31 33.6 30.9 33.5 30.9 C 33.5 30.89 33.1 30.9 33.1 30.9 L 33.1 30.3 C 33.1 30.3 33.79 30.31 33.8 30.3 C 34.2 30.3 34.4 30.5 34.4 30.9 C 34.4 30.9 34.4 36.5 34.4 36.5 C 34.4 36.7 34.5 36.7 34.6 36.7 C 34.62 36.75 35 36.7 35 36.7 L 35 37.3 C 35 37.3 34.33 37.33 34.3 37.3 C 33.9 37.3 33.7 37.2 33.7 36.7 C 33.7 36.7 33.7 31.1 33.7 31.1 Z M 38.2 32.2 C 39.6 32.2 40.3 33.3 40.3 34.5 C 40.3 34.62 40.3 34.8 40.3 34.8 C 40.3 34.8 36.42 34.84 36.4 34.8 C 36.4 36.1 37.3 36.8 38.4 36.8 C 39.29 36.85 39.9 36.2 39.9 36.2 L 40.2 36.7 C 40.2 36.7 39.48 37.45 38.3 37.5 C 36.8 37.5 35.7 36.4 35.7 34.8 C 35.7 33.2 36.8 32.2 38.2 32.2 Z M 39.6 34.3 C 39.6 33.3 38.9 32.8 38.2 32.8 C 37.3 32.8 36.6 33.3 36.4 34.3 C 36.4 34.3 39.6 34.3 39.6 34.3 Z M 41.7 33.1 C 41.7 33 41.6 32.9 41.4 32.9 C 41.44 32.89 41 32.9 41 32.9 L 41 32.3 C 41 32.3 41.72 32.31 41.7 32.3 C 42.1 32.3 42.3 32.5 42.3 32.9 C 42.3 32.9 42.3 33.2 42.3 33.2 C 42.33 33.42 42.3 33.6 42.3 33.6 C 42.3 33.6 42.33 33.59 42.3 33.6 C 42.6 32.8 43.1 32.3 43.9 32.3 C 44.1 32.3 44.2 32.3 44.2 32.3 C 44.19 32.29 44.2 33 44.2 33 C 44.2 33 44.07 32.93 43.9 32.9 C 43.2 32.9 42.7 33.5 42.5 34.2 C 42.4 34.6 42.3 34.9 42.3 35.2 C 42.34 35.21 42.3 37.3 42.3 37.3 L 41.7 37.3 C 41.7 37.3 41.66 33.11 41.7 33.1 Z M 47.3 32.2 C 48.7 32.2 49.9 33.3 49.9 34.8 C 49.9 36.3 48.7 37.5 47.3 37.5 C 45.8 37.5 44.6 36.3 44.6 34.8 C 44.6 33.3 45.8 32.2 47.3 32.2 Z M 47.3 36.8 C 48.3 36.8 49.2 36 49.2 34.8 C 49.2 33.7 48.3 32.8 47.3 32.8 C 46.2 32.8 45.3 33.7 45.3 34.8 C 45.3 36 46.2 36.8 47.3 36.8 Z M 51.3 32.9 L 50.6 32.9 L 50.6 32.3 L 51.3 32.3 L 51.3 30.9 L 51.9 30.9 L 51.9 32.3 L 53.2 32.3 L 53.2 32.9 L 51.9 32.9 C 51.9 32.9 51.93 35.43 51.9 35.4 C 51.9 36.6 52.7 36.8 53.1 36.8 C 53.2 36.77 53.3 36.7 53.3 36.7 L 53.3 37.4 C 53.3 37.4 53.17 37.37 53 37.4 C 52.4 37.4 51.3 37.2 51.3 35.5 C 51.25 35.5 51.3 32.9 51.3 32.9 Z M 54.6 30.3 L 55.2 30.3 L 55.2 31.2 L 54.6 31.2 L 54.6 30.3 Z M 54.6 33.1 C 54.6 33 54.5 32.9 54.4 32.9 C 54.37 32.89 54 32.9 54 32.9 L 54 32.3 C 54 32.3 54.66 32.31 54.7 32.3 C 55.1 32.3 55.3 32.5 55.3 32.9 C 55.3 32.9 55.3 36.5 55.3 36.5 C 55.3 36.7 55.3 36.7 55.5 36.7 C 55.49 36.75 55.9 36.7 55.9 36.7 L 55.9 37.3 C 55.9 37.3 55.2 37.33 55.2 37.3 C 54.8 37.3 54.6 37.2 54.6 36.7 C 54.6 36.7 54.6 33.1 54.6 33.1 Z M 59.2 32.2 C 59.8 32.2 61 32.4 61 33.3 C 61.02 33.25 61 33.7 61 33.7 L 60.4 33.7 C 60.4 33.7 60.38 33.41 60.4 33.4 C 60.4 33 59.6 32.8 59.2 32.8 C 58.1 32.8 57.3 33.6 57.3 34.8 C 57.3 36.1 58.2 36.8 59.2 36.8 C 60.28 36.84 60.9 36.1 60.9 36.1 L 61.2 36.6 C 61.2 36.6 60.51 37.45 59.2 37.5 C 57.7 37.5 56.6 36.4 56.6 34.8 C 56.6 33.3 57.7 32.2 59.2 32.2 Z M 62.3 31.1 C 62.3 31 62.2 30.9 62.1 30.9 C 62.05 30.89 61.6 30.9 61.6 30.9 L 61.6 30.3 C 61.6 30.3 62.34 30.31 62.3 30.3 C 62.8 30.3 62.9 30.5 62.9 30.9 C 62.95 30.88 62.9 34.2 62.9 34.2 C 62.9 34.2 63.47 34.23 63.5 34.2 C 63.7 34.2 63.9 34.2 64 34 C 64.04 33.99 65.3 32.3 65.3 32.3 L 66.2 32.3 C 66.2 32.3 64.71 34.15 64.7 34.1 C 64.46 34.45 64.3 34.5 64.3 34.5 L 64.3 34.5 C 64.3 34.5 64.48 34.59 64.6 34.9 C 64.6 34.9 65.5 36.5 65.5 36.5 C 65.6 36.7 65.7 36.7 66 36.7 C 66.01 36.75 66.3 36.7 66.3 36.7 L 66.3 37.3 C 66.3 37.3 65.81 37.33 65.8 37.3 C 65.3 37.3 65.2 37.3 64.9 36.8 C 64.9 36.8 63.9 35 63.9 35 C 63.8 34.8 63.6 34.8 63.4 34.8 C 63.41 34.81 62.9 34.8 62.9 34.8 L 62.9 37.3 L 62.3 37.3 C 62.3 37.3 62.27 31.11 62.3 31.1 Z M 67.4 38.8 C 67.9 38.8 68.2 38.5 68.4 38 C 68.38 38.01 68.7 37.3 68.7 37.3 C 68.7 37.3 66.91 33.12 66.9 33.1 C 66.8 32.9 66.7 32.9 66.6 32.9 C 66.56 32.89 66.5 32.9 66.5 32.9 L 66.5 32.3 C 66.5 32.3 66.77 32.31 66.8 32.3 C 67.2 32.3 67.4 32.4 67.5 32.9 C 67.5 32.9 68.8 36 68.8 36 C 68.93 36.24 69 36.5 69 36.5 L 69 36.5 C 69 36.5 69.1 36.24 69.2 36 C 69.2 36 70.4 32.9 70.4 32.9 C 70.6 32.4 70.8 32.3 71.2 32.3 C 71.22 32.31 71.5 32.3 71.5 32.3 L 71.5 32.9 C 71.5 32.9 71.43 32.89 71.4 32.9 C 71.2 32.9 71.1 32.9 71.1 33.1 C 71.1 33.1 68.9 38.4 68.9 38.4 C 68.6 39 68.1 39.4 67.5 39.4 C 66.77 39.43 66.4 38.9 66.4 38.9 C 66.4 38.9 66.7 38.45 66.7 38.4 C 66.7 38.5 67 38.8 67.4 38.8 Z M 69.4 30.3 L 70.1 30.3 L 69.3 31.5 L 68.7 31.5 L 69.4 30.3 Z M 74.6 32.2 C 75.2 32.2 76.4 32.4 76.4 33.3 C 76.43 33.25 76.4 33.7 76.4 33.7 L 75.8 33.7 C 75.8 33.7 75.79 33.41 75.8 33.4 C 75.8 33 75.1 32.8 74.6 32.8 C 73.6 32.8 72.7 33.6 72.7 34.8 C 72.7 36.1 73.6 36.8 74.7 36.8 C 75.69 36.84 76.3 36.1 76.3 36.1 L 76.6 36.6 C 76.6 36.6 75.92 37.45 74.6 37.5 C 73.1 37.5 72 36.4 72 34.8 C 72 33.3 73.1 32.2 74.6 32.2 Z M 77.7 31.1 C 77.7 31 77.6 30.9 77.5 30.9 C 77.46 30.89 77 30.9 77 30.9 L 77 30.3 C 77 30.3 77.75 30.31 77.7 30.3 C 78.2 30.3 78.4 30.5 78.4 30.9 C 78.4 30.9 78.4 33 78.4 33 C 78.36 33.25 78.3 33.4 78.3 33.4 C 78.3 33.4 78.36 33.43 78.4 33.4 C 78.5 33 79.2 32.2 80.3 32.2 C 81.6 32.2 82 32.9 82 34.1 C 82 34.1 82 36.5 82 36.5 C 82 36.7 82.1 36.7 82.3 36.7 C 82.26 36.75 82.7 36.7 82.7 36.7 L 82.7 37.3 C 82.7 37.3 81.97 37.33 82 37.3 C 81.5 37.3 81.4 37.2 81.4 36.7 C 81.4 36.7 81.4 34.3 81.4 34.3 C 81.4 33.5 81.2 32.8 80.3 32.8 C 79.4 32.8 78.7 33.4 78.4 34.3 C 78.4 34.5 78.4 34.7 78.4 34.9 C 78.36 34.92 78.4 37.3 78.4 37.3 L 77.7 37.3 C 77.7 37.3 77.68 31.11 77.7 31.1 Z M 86.5 33.1 C 86.5 33 86.4 32.9 86.3 32.9 C 86.26 32.89 85.8 32.9 85.8 32.9 L 85.8 32.3 C 85.8 32.3 86.53 32.31 86.5 32.3 C 87 32.3 87.1 32.5 87.1 32.8 C 87.1 33 87.1 33.2 87.1 33.2 C 87.12 33.17 87.1 33.2 87.1 33.2 C 87.1 33.2 87.54 32.19 88.9 32.2 C 90.2 32.2 91.1 33.3 91.1 34.8 C 91.1 36.4 90.1 37.5 88.8 37.5 C 87.58 37.45 87.2 36.5 87.2 36.5 L 87.1 36.5 C 87.1 36.5 87.16 36.69 87.2 36.9 C 87.16 36.95 87.2 39.3 87.2 39.3 L 86.5 39.3 C 86.5 39.3 86.48 33.11 86.5 33.1 Z M 88.7 36.9 C 89.6 36.9 90.4 36.1 90.4 34.8 C 90.4 33.6 89.7 32.8 88.8 32.8 C 87.9 32.8 87.1 33.4 87.1 34.8 C 87.1 35.8 87.7 36.9 88.7 36.9 Z M 92.2 31.1 C 92.2 31 92.2 30.9 92 30.9 C 92.03 30.89 91.6 30.9 91.6 30.9 L 91.6 30.3 C 91.6 30.3 92.32 30.31 92.3 30.3 C 92.7 30.3 92.9 30.5 92.9 30.9 C 92.9 30.9 92.9 36.5 92.9 36.5 C 92.9 36.7 93 36.7 93.1 36.7 C 93.15 36.75 93.6 36.7 93.6 36.7 L 93.6 37.3 C 93.6 37.3 92.86 37.33 92.9 37.3 C 92.4 37.3 92.2 37.2 92.2 36.7 C 92.2 36.7 92.2 31.1 92.2 31.1 Z M 97.3 34.2 C 97.32 34.24 97.6 34.2 97.6 34.2 C 97.6 34.2 97.6 34.18 97.6 34.2 C 97.6 33.1 97.2 32.8 96.3 32.8 C 96 32.8 95.3 32.8 95.3 33.2 C 95.32 33.19 95.3 33.5 95.3 33.5 L 94.7 33.5 C 94.7 33.5 94.67 33.03 94.7 33 C 94.7 32.3 95.9 32.2 96.3 32.2 C 97.9 32.2 98.3 33 98.3 34.1 C 98.3 34.1 98.3 36.5 98.3 36.5 C 98.3 36.7 98.4 36.7 98.5 36.7 C 98.5 36.75 98.9 36.7 98.9 36.7 L 98.9 37.3 C 98.9 37.3 98.23 37.33 98.2 37.3 C 97.8 37.3 97.6 37.1 97.6 36.7 C 97.6 36.5 97.6 36.4 97.6 36.4 C 97.6 36.4 97.6 36.4 97.6 36.4 C 97.6 36.4 97.2 37.5 95.9 37.5 C 95.1 37.5 94.2 37 94.2 36 C 94.2 34.3 96.4 34.2 97.3 34.2 Z M 96.1 36.9 C 97 36.9 97.6 35.9 97.6 35 C 97.6 35 97.6 34.8 97.6 34.8 C 97.6 34.8 97.31 34.77 97.3 34.8 C 96.5 34.8 94.9 34.8 94.9 35.9 C 94.9 36.4 95.3 36.9 96.1 36.9 Z M 96.8 30.3 L 97.6 30.3 L 96.7 31.5 L 96.1 31.5 L 96.8 30.3 Z M 100.1 32.9 L 99.4 32.9 L 99.4 32.3 L 100.1 32.3 L 100.1 30.9 L 100.7 30.9 L 100.7 32.3 L 102 32.3 L 102 32.9 L 100.7 32.9 C 100.7 32.9 100.74 35.43 100.7 35.4 C 100.7 36.6 101.5 36.8 101.9 36.8 C 102.01 36.77 102.1 36.7 102.1 36.7 L 102.1 37.4 C 102.1 37.4 101.98 37.37 101.8 37.4 C 101.2 37.4 100.1 37.2 100.1 35.5 C 100.06 35.5 100.1 32.9 100.1 32.9 Z M 105.4 32.2 C 106.9 32.2 108.1 33.3 108.1 34.8 C 108.1 36.3 106.9 37.5 105.4 37.5 C 104 37.5 102.8 36.3 102.8 34.8 C 102.8 33.3 104 32.2 105.4 32.2 Z M 105.4 36.8 C 106.5 36.8 107.4 36 107.4 34.8 C 107.4 33.7 106.5 32.8 105.4 32.8 C 104.4 32.8 103.5 33.7 103.5 34.8 C 103.5 36 104.4 36.8 105.4 36.8 Z M 109 33.1 C 108.9 32.9 108.8 32.9 108.6 32.9 C 108.62 32.89 108.5 32.9 108.5 32.9 L 108.5 32.3 C 108.5 32.3 108.8 32.31 108.8 32.3 C 109.3 32.3 109.4 32.4 109.6 32.9 C 109.6 32.9 110.8 36 110.8 36 C 110.9 36.25 111 36.6 111 36.6 L 111 36.6 C 111 36.6 111.08 36.25 111.2 36 C 111.2 36 112.4 32.9 112.4 32.9 C 112.5 32.4 112.7 32.3 113.2 32.3 C 113.17 32.31 113.4 32.3 113.4 32.3 L 113.4 32.9 C 113.4 32.9 113.34 32.89 113.3 32.9 C 113.2 32.9 113 32.9 113 33.1 C 112.99 33.12 111.3 37.3 111.3 37.3 L 110.6 37.3 C 110.6 37.3 108.97 33.12 109 33.1 Z " stroke="none" fill="#000"/>  </g>  <g id="Polygon68124">    <path d="M 1.1 18.9 L 0.4 18.9 L 0.4 18.3 C 0.4 18.3 3.39 18.31 3.4 18.3 C 4.6 18.3 5.6 19.1 5.6 20.4 C 5.6 21.7 4.6 22.6 3.4 22.6 C 3.39 22.57 1.8 22.6 1.8 22.6 L 1.8 25.3 L 1.1 25.3 L 1.1 18.9 Z M 3.3 22 C 4.2 22 4.8 21.4 4.8 20.4 C 4.8 19.5 4.2 18.9 3.3 18.9 C 3.31 18.92 1.8 18.9 1.8 18.9 L 1.8 22 C 1.8 22 3.3 21.96 3.3 22 Z M 6.7 21.1 C 6.7 21 6.6 20.9 6.4 20.9 C 6.44 20.89 6 20.9 6 20.9 L 6 20.3 C 6 20.3 6.72 20.31 6.7 20.3 C 7.1 20.3 7.3 20.5 7.3 20.9 C 7.3 20.9 7.3 21.2 7.3 21.2 C 7.33 21.42 7.3 21.6 7.3 21.6 C 7.3 21.6 7.33 21.59 7.3 21.6 C 7.6 20.8 8.1 20.3 8.9 20.3 C 9.1 20.3 9.2 20.3 9.2 20.3 C 9.19 20.29 9.2 21 9.2 21 C 9.2 21 9.07 20.93 8.9 20.9 C 8.2 20.9 7.7 21.5 7.5 22.2 C 7.4 22.6 7.3 22.9 7.3 23.2 C 7.34 23.21 7.3 25.3 7.3 25.3 L 6.7 25.3 C 6.7 25.3 6.66 21.11 6.7 21.1 Z M 12.1 20.2 C 13.5 20.2 14.2 21.3 14.2 22.5 C 14.2 22.62 14.2 22.8 14.2 22.8 C 14.2 22.8 10.32 22.84 10.3 22.8 C 10.3 24.1 11.2 24.8 12.3 24.8 C 13.19 24.85 13.8 24.2 13.8 24.2 L 14.1 24.7 C 14.1 24.7 13.38 25.45 12.2 25.5 C 10.7 25.5 9.6 24.4 9.6 22.8 C 9.6 21.2 10.7 20.2 12.1 20.2 Z M 13.5 22.3 C 13.5 21.3 12.8 20.8 12.1 20.8 C 11.2 20.8 10.5 21.3 10.3 22.3 C 10.3 22.3 13.5 22.3 13.5 22.3 Z M 17.4 20.2 C 18.59 20.19 19 21.1 19 21.1 L 19 21.1 C 19 21.1 19.01 20.95 19 20.7 C 19 20.7 19 19.1 19 19.1 C 19 19 18.9 18.9 18.8 18.9 C 18.79 18.89 18.4 18.9 18.4 18.9 L 18.4 18.3 C 18.4 18.3 19.08 18.31 19.1 18.3 C 19.5 18.3 19.7 18.5 19.7 18.9 C 19.7 18.9 19.7 24.5 19.7 24.5 C 19.7 24.7 19.8 24.7 19.9 24.7 C 19.91 24.75 20.3 24.7 20.3 24.7 L 20.3 25.3 C 20.3 25.3 19.63 25.33 19.6 25.3 C 19.2 25.3 19 25.1 19 24.8 C 19 24.6 19.1 24.5 19.1 24.5 C 19.05 24.46 19 24.5 19 24.5 C 19 24.5 18.62 25.45 17.3 25.5 C 15.9 25.5 15.1 24.4 15.1 22.8 C 15.1 21.2 16 20.2 17.4 20.2 Z M 19 22.8 C 19 21.8 18.5 20.8 17.4 20.8 C 16.5 20.8 15.8 21.5 15.8 22.8 C 15.8 24.1 16.5 24.8 17.4 24.8 C 18.2 24.8 19 24.2 19 22.8 Z M 23.6 20.2 C 24.2 20.2 25.4 20.4 25.4 21.3 C 25.41 21.25 25.4 21.7 25.4 21.7 L 24.8 21.7 C 24.8 21.7 24.77 21.41 24.8 21.4 C 24.8 21 24 20.8 23.6 20.8 C 22.5 20.8 21.7 21.6 21.7 22.8 C 21.7 24.1 22.6 24.8 23.6 24.8 C 24.67 24.84 25.3 24.1 25.3 24.1 L 25.6 24.6 C 25.6 24.6 24.9 25.45 23.6 25.5 C 22.1 25.5 21 24.4 21 22.8 C 21 21.3 22.1 20.2 23.6 20.2 Z M 26.7 19.1 C 26.7 19 26.6 18.9 26.4 18.9 C 26.44 18.89 26 18.9 26 18.9 L 26 18.3 C 26 18.3 26.73 18.31 26.7 18.3 C 27.2 18.3 27.3 18.5 27.3 18.9 C 27.3 18.9 27.3 21 27.3 21 C 27.34 21.25 27.3 21.4 27.3 21.4 C 27.3 21.4 27.34 21.43 27.3 21.4 C 27.5 21 28.2 20.2 29.3 20.2 C 30.6 20.2 31 20.9 31 22.1 C 31 22.1 31 24.5 31 24.5 C 31 24.7 31.1 24.7 31.2 24.7 C 31.24 24.75 31.7 24.7 31.7 24.7 L 31.7 25.3 C 31.7 25.3 30.95 25.33 30.9 25.3 C 30.5 25.3 30.3 25.2 30.3 24.7 C 30.3 24.7 30.3 22.3 30.3 22.3 C 30.3 21.5 30.2 20.8 29.2 20.8 C 28.4 20.8 27.6 21.4 27.4 22.3 C 27.4 22.5 27.3 22.7 27.3 22.9 C 27.34 22.92 27.3 25.3 27.3 25.3 L 26.7 25.3 C 26.7 25.3 26.66 19.11 26.7 19.1 Z M 35.4 22.2 C 35.35 22.24 35.6 22.2 35.6 22.2 C 35.6 22.2 35.63 22.18 35.6 22.2 C 35.6 21.1 35.3 20.8 34.3 20.8 C 34.1 20.8 33.3 20.8 33.3 21.2 C 33.35 21.19 33.3 21.5 33.3 21.5 L 32.7 21.5 C 32.7 21.5 32.7 21.03 32.7 21 C 32.7 20.3 33.9 20.2 34.3 20.2 C 35.9 20.2 36.3 21 36.3 22.1 C 36.3 22.1 36.3 24.5 36.3 24.5 C 36.3 24.7 36.4 24.7 36.5 24.7 C 36.53 24.75 36.9 24.7 36.9 24.7 L 36.9 25.3 C 36.9 25.3 36.26 25.33 36.3 25.3 C 35.8 25.3 35.7 25.1 35.7 24.7 C 35.7 24.5 35.7 24.4 35.7 24.4 C 35.7 24.4 35.7 24.4 35.7 24.4 C 35.7 24.4 35.2 25.5 34 25.5 C 33.1 25.5 32.3 25 32.3 24 C 32.3 22.3 34.5 22.2 35.4 22.2 Z M 34.1 24.9 C 35.1 24.9 35.6 23.9 35.6 23 C 35.63 23 35.6 22.8 35.6 22.8 C 35.6 22.8 35.34 22.77 35.3 22.8 C 34.6 22.8 33 22.8 33 23.9 C 33 24.4 33.3 24.9 34.1 24.9 Z M 34.9 18.3 L 35.6 18.3 L 34.8 19.5 L 34.2 19.5 L 34.9 18.3 Z M 39.8 20.2 C 41.06 20.19 41.5 21.1 41.5 21.1 L 41.5 21.1 C 41.5 21.1 41.48 20.95 41.5 20.7 C 41.5 20.7 41.5 19.1 41.5 19.1 C 41.5 19 41.4 18.9 41.3 18.9 C 41.26 18.89 40.8 18.9 40.8 18.9 L 40.8 18.3 C 40.8 18.3 41.55 18.31 41.6 18.3 C 42 18.3 42.2 18.5 42.2 18.9 C 42.2 18.9 42.2 24.5 42.2 24.5 C 42.2 24.7 42.2 24.7 42.4 24.7 C 42.38 24.75 42.8 24.7 42.8 24.7 L 42.8 25.3 C 42.8 25.3 42.1 25.33 42.1 25.3 C 41.7 25.3 41.5 25.1 41.5 24.8 C 41.5 24.6 41.5 24.5 41.5 24.5 C 41.52 24.46 41.5 24.5 41.5 24.5 C 41.5 24.5 41.09 25.45 39.8 25.5 C 38.4 25.5 37.6 24.4 37.6 22.8 C 37.6 21.2 38.5 20.2 39.8 20.2 Z M 41.5 22.8 C 41.5 21.8 41 20.8 39.9 20.8 C 39 20.8 38.3 21.5 38.3 22.8 C 38.3 24.1 38.9 24.8 39.9 24.8 C 40.7 24.8 41.5 24.2 41.5 22.8 Z M 43.4 24.9 C 43.4 24.9 46.26 21.36 46.3 21.4 C 46.45 21.12 46.7 20.9 46.7 20.9 L 46.7 20.9 C 46.7 20.9 46.49 20.9 46.2 20.9 C 46.2 20.9 44.3 20.9 44.3 20.9 C 44.2 20.9 44.1 21 44.1 21.1 C 44.1 21.12 44.1 21.5 44.1 21.5 L 43.5 21.5 C 43.5 21.5 43.46 20.91 43.5 20.9 C 43.5 20.5 43.6 20.3 44.1 20.3 C 44.07 20.31 47.6 20.3 47.6 20.3 L 47.6 20.8 C 47.6 20.8 44.74 24.28 44.7 24.3 C 44.54 24.52 44.3 24.7 44.3 24.7 L 44.3 24.8 C 44.3 24.8 44.5 24.74 44.8 24.7 C 44.8 24.7 46.9 24.7 46.9 24.7 C 47.1 24.7 47.1 24.7 47.1 24.5 C 47.13 24.52 47.1 24.1 47.1 24.1 L 47.8 24.1 C 47.8 24.1 47.77 24.73 47.8 24.7 C 47.8 25.2 47.6 25.3 47.2 25.3 C 47.16 25.33 43.4 25.3 43.4 25.3 L 43.4 24.9 Z M 51.5 22.2 C 51.51 22.24 51.8 22.2 51.8 22.2 C 51.8 22.2 51.79 22.18 51.8 22.2 C 51.8 21.1 51.4 20.8 50.5 20.8 C 50.2 20.8 49.5 20.8 49.5 21.2 C 49.51 21.19 49.5 21.5 49.5 21.5 L 48.9 21.5 C 48.9 21.5 48.86 21.03 48.9 21 C 48.9 20.3 50.1 20.2 50.5 20.2 C 52.1 20.2 52.5 21 52.5 22.1 C 52.5 22.1 52.5 24.5 52.5 24.5 C 52.5 24.7 52.5 24.7 52.7 24.7 C 52.69 24.75 53.1 24.7 53.1 24.7 L 53.1 25.3 C 53.1 25.3 52.42 25.33 52.4 25.3 C 52 25.3 51.8 25.1 51.8 24.7 C 51.8 24.5 51.8 24.4 51.8 24.4 C 51.8 24.4 51.8 24.4 51.8 24.4 C 51.8 24.4 51.4 25.5 50.1 25.5 C 49.3 25.5 48.4 25 48.4 24 C 48.4 22.3 50.6 22.2 51.5 22.2 Z M 50.2 24.9 C 51.2 24.9 51.8 23.9 51.8 23 C 51.79 23 51.8 22.8 51.8 22.8 C 51.8 22.8 51.5 22.77 51.5 22.8 C 50.7 22.8 49.1 22.8 49.1 23.9 C 49.1 24.4 49.5 24.9 50.2 24.9 Z M 56.6 21.1 C 56.6 20.9 56.5 20.9 56.3 20.9 C 56.27 20.89 56.2 20.9 56.2 20.9 L 56.2 20.3 C 56.2 20.3 56.45 20.31 56.5 20.3 C 56.9 20.3 57.1 20.4 57.2 20.9 C 57.2 20.9 58.5 24 58.5 24 C 58.55 24.25 58.6 24.6 58.6 24.6 L 58.6 24.6 C 58.6 24.6 58.73 24.25 58.8 24 C 58.8 24 60 20.9 60 20.9 C 60.2 20.4 60.3 20.3 60.8 20.3 C 60.82 20.31 61.1 20.3 61.1 20.3 L 61.1 20.9 C 61.1 20.9 60.99 20.89 61 20.9 C 60.8 20.9 60.7 20.9 60.6 21.1 C 60.64 21.12 59 25.3 59 25.3 L 58.3 25.3 C 58.3 25.3 56.62 21.12 56.6 21.1 Z M 61.6 24.9 C 61.6 24.9 64.44 21.36 64.4 21.4 C 64.63 21.12 64.8 20.9 64.8 20.9 L 64.8 20.9 C 64.8 20.9 64.67 20.9 64.3 20.9 C 64.3 20.9 62.5 20.9 62.5 20.9 C 62.4 20.9 62.3 21 62.3 21.1 C 62.28 21.12 62.3 21.5 62.3 21.5 L 61.6 21.5 C 61.6 21.5 61.64 20.91 61.6 20.9 C 61.6 20.5 61.8 20.3 62.2 20.3 C 62.25 20.31 65.7 20.3 65.7 20.3 L 65.7 20.8 C 65.7 20.8 62.92 24.28 62.9 24.3 C 62.72 24.52 62.5 24.7 62.5 24.7 L 62.5 24.8 C 62.5 24.8 62.68 24.74 63 24.7 C 63 24.7 65.1 24.7 65.1 24.7 C 65.2 24.7 65.3 24.7 65.3 24.5 C 65.31 24.52 65.3 24.1 65.3 24.1 L 65.9 24.1 C 65.9 24.1 65.95 24.73 65.9 24.7 C 65.9 25.2 65.8 25.3 65.3 25.3 C 65.34 25.33 61.6 25.3 61.6 25.3 L 61.6 24.9 Z M 67.1 21.1 C 67.1 21 67 20.9 66.9 20.9 C 66.86 20.89 66.4 20.9 66.4 20.9 L 66.4 20.3 C 66.4 20.3 67.14 20.31 67.1 20.3 C 67.6 20.3 67.7 20.5 67.7 20.9 C 67.7 20.9 67.7 21.1 67.7 21.1 C 67.75 21.29 67.7 21.5 67.7 21.5 C 67.7 21.5 67.75 21.45 67.7 21.5 C 67.9 21 68.6 20.2 69.7 20.2 C 71 20.2 71.4 20.9 71.4 22.1 C 71.4 22.1 71.4 24.5 71.4 24.5 C 71.4 24.7 71.5 24.7 71.7 24.7 C 71.66 24.75 72.1 24.7 72.1 24.7 L 72.1 25.3 C 72.1 25.3 71.37 25.33 71.4 25.3 C 70.9 25.3 70.8 25.2 70.8 24.7 C 70.8 24.7 70.8 22.3 70.8 22.3 C 70.8 21.5 70.6 20.8 69.7 20.8 C 68.8 20.8 68.1 21.4 67.8 22.2 C 67.8 22.5 67.8 22.7 67.8 22.9 C 67.76 22.92 67.8 25.3 67.8 25.3 L 67.1 25.3 C 67.1 25.3 67.08 21.11 67.1 21.1 Z M 73.2 18.3 L 73.8 18.3 L 73.8 19.2 L 73.2 19.2 L 73.2 18.3 Z M 73.2 21.1 C 73.2 21 73.1 20.9 73 20.9 C 72.99 20.89 72.6 20.9 72.6 20.9 L 72.6 20.3 C 72.6 20.3 73.28 20.31 73.3 20.3 C 73.7 20.3 73.9 20.5 73.9 20.9 C 73.9 20.9 73.9 24.5 73.9 24.5 C 73.9 24.7 74 24.7 74.1 24.7 C 74.11 24.75 74.5 24.7 74.5 24.7 L 74.5 25.3 C 74.5 25.3 73.82 25.33 73.8 25.3 C 73.4 25.3 73.2 25.2 73.2 24.7 C 73.2 24.7 73.2 21.1 73.2 21.1 Z M 75.6 19.1 C 75.6 19 75.6 18.9 75.4 18.9 C 75.42 18.89 75 18.9 75 18.9 L 75 18.3 C 75 18.3 75.71 18.31 75.7 18.3 C 76.1 18.3 76.3 18.5 76.3 18.9 C 76.32 18.88 76.3 22.2 76.3 22.2 C 76.3 22.2 76.84 22.23 76.8 22.2 C 77 22.2 77.3 22.2 77.4 22 C 77.41 21.99 78.7 20.3 78.7 20.3 L 79.5 20.3 C 79.5 20.3 78.08 22.15 78.1 22.1 C 77.83 22.45 77.7 22.5 77.7 22.5 L 77.7 22.5 C 77.7 22.5 77.85 22.59 78 22.9 C 78 22.9 78.9 24.5 78.9 24.5 C 79 24.7 79.1 24.7 79.4 24.7 C 79.38 24.75 79.6 24.7 79.6 24.7 L 79.6 25.3 C 79.6 25.3 79.18 25.33 79.2 25.3 C 78.7 25.3 78.5 25.3 78.3 24.8 C 78.3 24.8 77.3 23 77.3 23 C 77.2 22.8 77 22.8 76.8 22.8 C 76.78 22.81 76.3 22.8 76.3 22.8 L 76.3 25.3 L 75.6 25.3 C 75.6 25.3 75.64 19.11 75.6 19.1 Z M 80.6 21.1 C 80.6 21 80.5 20.9 80.4 20.9 C 80.41 20.89 80 20.9 80 20.9 L 80 20.3 C 80 20.3 80.7 20.31 80.7 20.3 C 81.1 20.3 81.3 20.5 81.3 20.9 C 81.3 20.9 81.3 23.3 81.3 23.3 C 81.3 24.1 81.4 24.8 82.4 24.8 C 83.5 24.8 84.3 23.8 84.3 22.7 C 84.26 22.71 84.3 20.3 84.3 20.3 L 84.9 20.3 C 84.9 20.3 84.94 24.53 84.9 24.5 C 84.9 24.7 85 24.7 85.2 24.7 C 85.16 24.75 85.6 24.7 85.6 24.7 L 85.6 25.3 C 85.6 25.3 84.89 25.33 84.9 25.3 C 84.5 25.3 84.3 25.2 84.3 24.8 C 84.3 24.8 84.3 24.5 84.3 24.5 C 84.3 24.3 84.3 24.2 84.3 24.2 C 84.3 24.2 84.3 24.2 84.3 24.2 C 84.1 24.7 83.4 25.5 82.3 25.5 C 81.1 25.5 80.6 24.8 80.6 23.5 C 80.6 23.5 80.6 21.1 80.6 21.1 Z M 92 22.2 C 92.01 22.24 92.3 22.2 92.3 22.2 C 92.3 22.2 92.29 22.18 92.3 22.2 C 92.3 21.1 91.9 20.8 91 20.8 C 90.7 20.8 90 20.8 90 21.2 C 90.01 21.19 90 21.5 90 21.5 L 89.4 21.5 C 89.4 21.5 89.36 21.03 89.4 21 C 89.4 20.3 90.6 20.2 91 20.2 C 92.6 20.2 93 21 93 22.1 C 93 22.1 93 24.5 93 24.5 C 93 24.7 93 24.7 93.2 24.7 C 93.19 24.75 93.6 24.7 93.6 24.7 L 93.6 25.3 C 93.6 25.3 92.92 25.33 92.9 25.3 C 92.5 25.3 92.3 25.1 92.3 24.7 C 92.3 24.5 92.3 24.4 92.3 24.4 C 92.3 24.4 92.3 24.4 92.3 24.4 C 92.3 24.4 91.9 25.5 90.6 25.5 C 89.8 25.5 88.9 25 88.9 24 C 88.9 22.3 91.1 22.2 92 22.2 Z M 90.7 24.9 C 91.7 24.9 92.3 23.9 92.3 23 C 92.29 23 92.3 22.8 92.3 22.8 C 92.3 22.8 92 22.77 92 22.8 C 91.2 22.8 89.6 22.8 89.6 23.9 C 89.6 24.4 90 24.9 90.7 24.9 Z M 97.4 21.1 C 97.4 21 97.3 20.9 97.2 20.9 C 97.19 20.89 96.8 20.9 96.8 20.9 L 96.8 20.3 C 96.8 20.3 97.47 20.31 97.5 20.3 C 97.9 20.3 98.1 20.5 98.1 20.9 C 98.1 20.9 98.1 21.2 98.1 21.2 C 98.08 21.42 98.1 21.6 98.1 21.6 C 98.1 21.6 98.08 21.59 98.1 21.6 C 98.3 20.8 98.9 20.3 99.7 20.3 C 99.8 20.3 99.9 20.3 99.9 20.3 C 99.94 20.29 99.9 21 99.9 21 C 99.9 21 99.82 20.93 99.7 20.9 C 99 20.9 98.4 21.5 98.2 22.2 C 98.1 22.6 98.1 22.9 98.1 23.2 C 98.09 23.21 98.1 25.3 98.1 25.3 L 97.4 25.3 C 97.4 25.3 97.41 21.11 97.4 21.1 Z M 103.3 22.2 C 103.31 22.24 103.6 22.2 103.6 22.2 C 103.6 22.2 103.59 22.18 103.6 22.2 C 103.6 21.1 103.2 20.8 102.3 20.8 C 102 20.8 101.3 20.8 101.3 21.2 C 101.31 21.19 101.3 21.5 101.3 21.5 L 100.7 21.5 C 100.7 21.5 100.66 21.03 100.7 21 C 100.7 20.3 101.9 20.2 102.3 20.2 C 103.9 20.2 104.3 21 104.3 22.1 C 104.3 22.1 104.3 24.5 104.3 24.5 C 104.3 24.7 104.3 24.7 104.5 24.7 C 104.49 24.75 104.9 24.7 104.9 24.7 L 104.9 25.3 C 104.9 25.3 104.22 25.33 104.2 25.3 C 103.8 25.3 103.6 25.1 103.6 24.7 C 103.6 24.5 103.6 24.4 103.6 24.4 C 103.6 24.4 103.6 24.4 103.6 24.4 C 103.6 24.4 103.2 25.5 101.9 25.5 C 101.1 25.5 100.2 25 100.2 24 C 100.2 22.3 102.4 22.2 103.3 22.2 Z M 102 24.9 C 103 24.9 103.6 23.9 103.6 23 C 103.59 23 103.6 22.8 103.6 22.8 C 103.6 22.8 103.3 22.77 103.3 22.8 C 102.5 22.8 100.9 22.8 100.9 23.9 C 100.9 24.4 101.3 24.9 102 24.9 Z M 105.8 24.1 C 105.8 24.1 106.36 24.87 107.3 24.9 C 107.9 24.9 108.4 24.6 108.4 24.1 C 108.4 23 105.6 23.2 105.6 21.5 C 105.6 20.6 106.4 20.2 107.4 20.2 C 107.9 20.2 108.9 20.4 108.9 21.1 C 108.91 21.09 108.9 21.5 108.9 21.5 L 108.3 21.5 C 108.3 21.5 108.27 21.28 108.3 21.3 C 108.3 20.9 107.7 20.8 107.4 20.8 C 106.7 20.8 106.3 21 106.3 21.5 C 106.3 22.6 109.1 22.4 109.1 24 C 109.1 24.9 108.3 25.5 107.3 25.5 C 106.03 25.45 105.4 24.6 105.4 24.6 L 105.8 24.1 Z M 110.4 20.9 L 109.8 20.9 L 109.8 20.3 L 110.5 20.3 L 110.5 18.9 L 111.1 18.9 L 111.1 20.3 L 112.4 20.3 L 112.4 20.9 L 111.1 20.9 C 111.1 20.9 111.13 23.43 111.1 23.4 C 111.1 24.6 111.9 24.8 112.3 24.8 C 112.4 24.77 112.5 24.7 112.5 24.7 L 112.5 25.4 C 112.5 25.4 112.37 25.37 112.2 25.4 C 111.6 25.4 110.4 25.2 110.4 23.5 C 110.45 23.5 110.4 20.9 110.4 20.9 Z M 113.7 21.1 C 113.7 21 113.6 20.9 113.5 20.9 C 113.5 20.89 113.1 20.9 113.1 20.9 L 113.1 20.3 C 113.1 20.3 113.79 20.31 113.8 20.3 C 114.2 20.3 114.4 20.5 114.4 20.9 C 114.4 20.9 114.4 23.3 114.4 23.3 C 114.4 24.1 114.5 24.8 115.5 24.8 C 116.6 24.8 117.3 23.8 117.3 22.7 C 117.35 22.71 117.3 20.3 117.3 20.3 L 118 20.3 C 118 20.3 118.03 24.53 118 24.5 C 118 24.7 118.1 24.7 118.2 24.7 C 118.25 24.75 118.7 24.7 118.7 24.7 L 118.7 25.3 C 118.7 25.3 117.98 25.33 118 25.3 C 117.6 25.3 117.4 25.2 117.4 24.8 C 117.4 24.8 117.4 24.5 117.4 24.5 C 117.4 24.3 117.4 24.2 117.4 24.2 C 117.4 24.2 117.4 24.2 117.4 24.2 C 117.2 24.7 116.5 25.5 115.4 25.5 C 114.2 25.5 113.7 24.8 113.7 23.5 C 113.7 23.5 113.7 21.1 113.7 21.1 Z " stroke="none" fill="#000"/>  </g>  <g id="Polygon68123">    <path d="M 5.5 0.4 C 6.7 0.4 9.2 0.9 9.2 2.6 C 9.23 2.62 9.2 3.7 9.2 3.7 L 7.6 3.7 C 7.6 3.7 7.56 3.16 7.6 3.2 C 7.6 2.4 6.4 2.1 5.5 2.1 C 3.7 2.1 2.3 3.4 2.3 5.4 C 2.3 7.4 3.8 9 5.6 9 C 7.43 8.96 8.6 7.6 8.6 7.6 L 9.5 9 C 9.5 9 8.09 10.67 5.5 10.7 C 2.5 10.7 0.4 8.4 0.4 5.4 C 0.4 2.6 2.6 0.4 5.5 0.4 Z M 11.2 0.6 L 12.8 0.6 L 12.8 2.2 L 11.2 2.2 L 11.2 0.6 Z M 11.1 5.2 C 11.1 5 11 4.9 10.8 4.9 C 10.84 4.87 10.3 4.9 10.3 4.9 L 10.3 3.4 C 10.3 3.4 11.97 3.36 12 3.4 C 12.6 3.4 12.9 3.7 12.9 4.3 C 12.9 4.3 12.9 8.7 12.9 8.7 C 12.9 8.9 13 9 13.2 9 C 13.22 9 13.8 9 13.8 9 L 13.8 10.5 C 13.8 10.5 12.08 10.5 12.1 10.5 C 11.4 10.5 11.1 10.2 11.1 9.5 C 11.1 9.5 11.1 5.2 11.1 5.2 Z M 18.2 3.2 C 20.2 3.2 21.3 4.7 21.3 6.6 C 21.35 6.79 21.3 7.2 21.3 7.2 C 21.3 7.2 16.38 7.24 16.4 7.2 C 16.5 8.5 17.4 9.2 18.5 9.2 C 19.67 9.16 20.5 8.4 20.5 8.4 L 21.3 9.6 C 21.3 9.6 20.17 10.67 18.4 10.7 C 16 10.7 14.6 9 14.6 6.9 C 14.6 4.7 16 3.2 18.2 3.2 Z M 19.5 6 C 19.5 5.2 18.9 4.6 18.2 4.6 C 17.3 4.6 16.6 5.1 16.4 6 C 16.4 6 19.5 6 19.5 6 Z M 22.6 5.1 C 22.6 4.9 22.4 4.9 22.2 4.9 C 22.23 4.87 22.1 4.9 22.1 4.9 L 22.1 3.4 C 22.1 3.4 23.1 3.36 23.1 3.4 C 23.7 3.4 24 3.5 24.2 4 C 24.2 4 25.5 7.8 25.5 7.8 C 25.65 8.2 25.8 8.8 25.8 8.8 L 25.8 8.8 C 25.8 8.8 25.9 8.2 26 7.8 C 26 7.8 27.4 4 27.4 4 C 27.6 3.5 27.9 3.4 28.4 3.4 C 28.43 3.36 29.4 3.4 29.4 3.4 L 29.4 4.9 C 29.4 4.9 29.22 4.87 29.2 4.9 C 29 4.9 28.9 4.9 28.8 5.1 C 28.83 5.12 26.8 10.5 26.8 10.5 L 24.7 10.5 C 24.7 10.5 22.62 5.12 22.6 5.1 Z M 30.7 5.2 C 30.7 5 30.6 4.9 30.4 4.9 C 30.39 4.87 29.8 4.9 29.8 4.9 L 29.8 3.4 C 29.8 3.4 31.47 3.36 31.5 3.4 C 32.1 3.4 32.4 3.7 32.4 4.2 C 32.4 4.2 32.4 4.4 32.4 4.4 C 32.4 4.5 32.4 4.7 32.4 4.7 C 32.4 4.7 32.4 4.7 32.4 4.7 C 32.7 4.1 33.5 3.2 34.9 3.2 C 36.5 3.2 37.4 4 37.4 5.9 C 37.4 5.9 37.4 8.7 37.4 8.7 C 37.4 8.9 37.5 9 37.7 9 C 37.73 9 38.3 9 38.3 9 L 38.3 10.5 C 38.3 10.5 36.6 10.5 36.6 10.5 C 35.9 10.5 35.6 10.2 35.6 9.5 C 35.6 9.5 35.6 6.3 35.6 6.3 C 35.6 5.4 35.4 4.8 34.5 4.8 C 33.6 4.8 32.9 5.4 32.6 6.3 C 32.5 6.6 32.5 6.9 32.5 7.2 C 32.46 7.22 32.5 10.5 32.5 10.5 L 30.7 10.5 C 30.7 10.5 30.7 5.18 30.7 5.2 Z M 43.2 6 C 43.25 6.02 43.5 6 43.5 6 C 43.5 6 43.47 5.96 43.5 6 C 43.5 4.9 43.1 4.6 42.2 4.6 C 41.8 4.6 41.2 4.6 41.2 5 C 41.2 5.04 41.2 5.4 41.2 5.4 L 39.6 5.4 C 39.6 5.4 39.55 4.66 39.6 4.7 C 39.6 3.3 41.4 3.2 42.2 3.2 C 44.5 3.2 45.2 4.4 45.2 6 C 45.2 6 45.2 8.7 45.2 8.7 C 45.2 8.9 45.4 9 45.6 9 C 45.55 9 46.1 9 46.1 9 L 46.1 10.5 C 46.1 10.5 44.52 10.5 44.5 10.5 C 43.9 10.5 43.6 10.1 43.6 9.7 C 43.6 9.5 43.6 9.4 43.6 9.4 C 43.62 9.41 43.6 9.4 43.6 9.4 C 43.6 9.4 43.05 10.67 41.4 10.7 C 40.2 10.7 39 9.9 39 8.4 C 39 6.2 42.1 6 43.2 6 Z M 41.9 9.3 C 42.8 9.3 43.5 8.3 43.5 7.4 C 43.5 7.41 43.5 7.2 43.5 7.2 C 43.5 7.2 43.19 7.24 43.2 7.2 C 42.3 7.2 40.8 7.4 40.8 8.4 C 40.8 8.8 41.1 9.3 41.9 9.3 Z M 51.3 8.2 C 51.3 8.2 52.19 9.28 53.4 9.3 C 54 9.3 54.4 9.1 54.4 8.6 C 54.4 7.6 50.6 7.6 50.6 5.3 C 50.6 3.9 51.9 3.2 53.4 3.2 C 54.3 3.2 55.9 3.5 55.9 4.7 C 55.89 4.68 55.9 5.4 55.9 5.4 L 54.3 5.4 C 54.3 5.4 54.32 5.07 54.3 5.1 C 54.3 4.7 53.8 4.6 53.4 4.6 C 52.8 4.6 52.4 4.8 52.4 5.2 C 52.4 6.3 56.2 6.1 56.2 8.5 C 56.2 9.8 55 10.7 53.4 10.7 C 51.45 10.67 50.4 9.4 50.4 9.4 L 51.3 8.2 Z M 57.8 5.2 C 57.8 5 57.7 4.9 57.5 4.9 C 57.47 4.87 56.9 4.9 56.9 4.9 L 56.9 3.4 C 56.9 3.4 58.6 3.36 58.6 3.4 C 59.3 3.4 59.5 3.7 59.5 4.3 C 59.5 4.3 59.5 7.6 59.5 7.6 C 59.5 8.5 59.8 9 60.6 9 C 61.9 9 62.7 7.9 62.7 6.6 C 62.65 6.64 62.7 3.4 62.7 3.4 L 64.4 3.4 C 64.4 3.4 64.43 8.69 64.4 8.7 C 64.4 8.9 64.5 9 64.7 9 C 64.73 9 65.3 9 65.3 9 L 65.3 10.5 C 65.3 10.5 63.66 10.5 63.7 10.5 C 63 10.5 62.7 10.2 62.7 9.7 C 62.7 9.7 62.7 9.5 62.7 9.5 C 62.7 9.3 62.7 9.2 62.7 9.2 C 62.7 9.2 62.7 9.2 62.7 9.2 C 62.4 9.9 61.5 10.7 60.2 10.7 C 58.7 10.7 57.8 9.9 57.8 8 C 57.8 8 57.8 5.2 57.8 5.2 Z M 61.4 0.6 L 63.1 0.6 L 61.6 2.5 L 60.3 2.5 L 61.4 0.6 Z M 66.8 8.2 C 66.8 8.2 67.67 9.28 68.9 9.3 C 69.4 9.3 69.9 9.1 69.9 8.6 C 69.9 7.6 66.1 7.6 66.1 5.3 C 66.1 3.9 67.4 3.2 68.9 3.2 C 69.8 3.2 71.4 3.5 71.4 4.7 C 71.37 4.68 71.4 5.4 71.4 5.4 L 69.8 5.4 C 69.8 5.4 69.8 5.07 69.8 5.1 C 69.8 4.7 69.3 4.6 68.9 4.6 C 68.3 4.6 67.8 4.8 67.8 5.2 C 67.8 6.3 71.6 6.1 71.6 8.5 C 71.6 9.8 70.4 10.7 68.9 10.7 C 66.93 10.67 65.9 9.4 65.9 9.4 L 66.8 8.2 Z M 73.3 4.8 L 72.4 4.8 L 72.4 3.4 L 73.4 3.4 L 73.4 1.4 L 75.1 1.4 L 75.1 3.4 L 76.7 3.4 L 76.7 4.8 L 75.1 4.8 C 75.1 4.8 75.09 7.66 75.1 7.7 C 75.1 8.8 76 9 76.5 9 C 76.7 9 76.8 9 76.8 9 L 76.8 10.5 C 76.8 10.5 76.61 10.57 76.3 10.6 C 75.3 10.6 73.3 10.3 73.3 7.9 C 73.32 7.88 73.3 4.8 73.3 4.8 Z M 82 6 C 81.97 6.02 82.2 6 82.2 6 C 82.2 6 82.19 5.96 82.2 6 C 82.2 4.9 81.8 4.6 80.9 4.6 C 80.6 4.6 79.9 4.6 79.9 5 C 79.92 5.04 79.9 5.4 79.9 5.4 L 78.3 5.4 C 78.3 5.4 78.27 4.66 78.3 4.7 C 78.3 3.3 80.1 3.2 80.9 3.2 C 83.3 3.2 84 4.4 84 6 C 84 6 84 8.7 84 8.7 C 84 8.9 84.1 9 84.3 9 C 84.28 9 84.8 9 84.8 9 L 84.8 10.5 C 84.8 10.5 83.24 10.5 83.2 10.5 C 82.6 10.5 82.3 10.1 82.3 9.7 C 82.3 9.5 82.3 9.4 82.3 9.4 C 82.35 9.41 82.3 9.4 82.3 9.4 C 82.3 9.4 81.77 10.67 80.2 10.7 C 78.9 10.7 77.7 9.9 77.7 8.4 C 77.7 6.2 80.8 6 82 6 Z M 80.6 9.3 C 81.5 9.3 82.2 8.3 82.2 7.4 C 82.22 7.41 82.2 7.2 82.2 7.2 C 82.2 7.2 81.91 7.24 81.9 7.2 C 81 7.2 79.5 7.4 79.5 8.4 C 79.5 8.8 79.9 9.3 80.6 9.3 Z M 85.7 5.1 C 85.6 4.9 85.5 4.9 85.3 4.9 C 85.29 4.87 85.1 4.9 85.1 4.9 L 85.1 3.4 C 85.1 3.4 86.16 3.36 86.2 3.4 C 86.7 3.4 87 3.5 87.2 4 C 87.2 4 88.5 7.8 88.5 7.8 C 88.7 8.2 88.8 8.8 88.8 8.8 L 88.8 8.8 C 88.8 8.8 88.96 8.2 89.1 7.8 C 89.1 7.8 90.4 4 90.4 4 C 90.6 3.5 90.9 3.4 91.5 3.4 C 91.49 3.36 92.4 3.4 92.4 3.4 L 92.4 4.9 C 92.4 4.9 92.27 4.87 92.3 4.9 C 92.1 4.9 92 4.9 91.9 5.1 C 91.88 5.12 89.8 10.5 89.8 10.5 L 87.7 10.5 C 87.7 10.5 85.68 5.12 85.7 5.1 Z M 97.2 6 C 97.23 6.02 97.5 6 97.5 6 C 97.5 6 97.45 5.96 97.5 6 C 97.5 4.9 97 4.6 96.1 4.6 C 95.8 4.6 95.2 4.6 95.2 5 C 95.18 5.04 95.2 5.4 95.2 5.4 L 93.5 5.4 C 93.5 5.4 93.53 4.66 93.5 4.7 C 93.5 3.3 95.4 3.2 96.2 3.2 C 98.5 3.2 99.2 4.4 99.2 6 C 99.2 6 99.2 8.7 99.2 8.7 C 99.2 8.9 99.3 9 99.5 9 C 99.54 9 100.1 9 100.1 9 L 100.1 10.5 C 100.1 10.5 98.5 10.5 98.5 10.5 C 97.8 10.5 97.6 10.1 97.6 9.7 C 97.6 9.5 97.6 9.4 97.6 9.4 C 97.61 9.41 97.6 9.4 97.6 9.4 C 97.6 9.4 97.03 10.67 95.4 10.7 C 94.1 10.7 93 9.9 93 8.4 C 93 6.2 96.1 6 97.2 6 Z M 95.9 9.3 C 96.8 9.3 97.5 8.3 97.5 7.4 C 97.48 7.41 97.5 7.2 97.5 7.2 C 97.5 7.2 97.17 7.24 97.2 7.2 C 96.2 7.2 94.8 7.4 94.8 8.4 C 94.8 8.8 95.1 9.3 95.9 9.3 Z M 103.5 1.7 C 103.5 1.2 103.1 0.9 102.6 0.9 C 102.2 0.9 101.9 1.2 101.9 1.4 C 101.87 1.38 101.9 1.6 101.9 1.6 L 100.9 1.6 C 100.9 1.6 100.9 1.06 100.9 1.1 C 100.9 0.3 101.9 -0.1 102.7 -0.1 C 103.7 -0.1 104.5 0.6 104.5 1.7 C 104.5 3.6 101.7 3.7 101.7 4.8 C 101.7 4.9 101.8 4.9 102 4.9 C 102 4.9 103.7 4.9 103.7 4.9 C 103.8 4.9 103.8 4.9 103.8 4.8 C 103.84 4.75 103.8 4.4 103.8 4.4 L 104.8 4.4 C 104.8 4.4 104.8 5.28 104.8 5.3 C 104.8 5.7 104.6 5.8 104.3 5.8 C 104.3 5.8 101.2 5.8 101.2 5.8 C 100.7 5.8 100.6 5.6 100.6 5.1 C 100.6 3 103.5 3.1 103.5 1.7 Z M 106.8 4.8 L 106 6.7 L 105.3 6.7 L 105.8 4.8 L 106.8 4.8 Z M 108 4.3 C 108 4.3 108.58 4.94 109.4 4.9 C 110 4.9 110.4 4.6 110.4 4.1 C 110.4 3.6 110 3.2 109.3 3.2 C 109.34 3.23 108.9 3.2 108.9 3.2 L 108.7 2.7 C 108.7 2.7 109.69 1.38 109.7 1.4 C 109.89 1.09 110.1 0.9 110.1 0.9 L 110.1 0.9 C 110.1 0.9 109.9 0.95 109.6 0.9 C 109.6 0.9 108.8 0.9 108.8 0.9 C 108.7 0.9 108.7 1 108.7 1.1 C 108.66 1.13 108.7 1.5 108.7 1.5 L 107.7 1.5 C 107.7 1.5 107.7 0.6 107.7 0.6 C 107.7 0.2 107.8 0 108.2 0 C 108.2 0.04 111.4 0 111.4 0 L 111.4 0.7 C 111.4 0.7 110.02 2.37 110 2.4 C 110.8 2.5 111.5 3.1 111.5 4.1 C 111.5 5 110.8 5.9 109.4 5.9 C 108.19 5.94 107.5 5.1 107.5 5.1 L 108 4.3 Z " stroke="none" fill="#5f0f50"/>  </g></svg>