<?xml version="1.0" standalone="no"?><!DOCTYPE svg PUBLIC "-//W3C//DTD SVG 1.1//EN" "http://www.w3.org/Graphics/SVG/1.1/DTD/svg11.dtd"><svg xmlns="http://www.w3.org/2000/svg" version="1.1" width="298px" height="22.5px" viewBox="0 -3 298 22.5" style="top:-3px">  <desc>Po iestich cykloch lie by</desc>  <defs/>  <g id="Polygon74603">    <path d="M 64.9 2.1 L 64 2.1 L 64 0.6 C 64 0.6 68.54 0.56 68.5 0.6 C 70.4 0.6 71.7 1.9 71.7 3.8 C 71.7 5.7 70.4 7.1 68.5 7.1 C 68.54 7.07 66.7 7.1 66.7 7.1 L 66.7 10.5 L 64.9 10.5 L 64.9 2.1 Z M 68.2 5.5 C 69.2 5.5 69.8 4.8 69.8 3.8 C 69.8 2.8 69.2 2.1 68.2 2.1 C 68.23 2.11 66.7 2.1 66.7 2.1 L 66.7 5.5 C 66.7 5.5 68.2 5.5 68.2 5.5 Z M 76.1 3.2 C 78.2 3.2 80 4.7 80 6.9 C 80 9.1 78.2 10.7 76.1 10.7 C 73.9 10.7 72.2 9.1 72.2 6.9 C 72.2 4.7 73.9 3.2 76.1 3.2 Z M 76.1 9.2 C 77.2 9.2 78.2 8.3 78.2 6.9 C 78.2 5.6 77.2 4.7 76.1 4.7 C 74.9 4.7 73.9 5.6 73.9 6.9 C 73.9 8.3 74.9 9.2 76.1 9.2 Z M 85.3 8.2 C 85.3 8.2 86.23 9.28 87.5 9.3 C 88 9.3 88.4 9.1 88.4 8.6 C 88.4 7.6 84.7 7.6 84.7 5.3 C 84.7 3.9 85.9 3.2 87.4 3.2 C 88.4 3.2 89.9 3.5 89.9 4.7 C 89.93 4.68 89.9 5.4 89.9 5.4 L 88.4 5.4 C 88.4 5.4 88.36 5.07 88.4 5.1 C 88.4 4.7 87.9 4.6 87.5 4.6 C 86.8 4.6 86.4 4.8 86.4 5.2 C 86.4 6.3 90.2 6.1 90.2 8.5 C 90.2 9.8 89 10.7 87.5 10.7 C 85.49 10.67 84.5 9.4 84.5 9.4 L 85.3 8.2 Z M 85.3 0.6 L 86.7 0.6 L 87.4 1.7 L 87.4 1.7 L 88.1 0.6 L 89.4 0.6 L 88.1 2.5 L 86.6 2.5 L 85.3 0.6 Z M 92 0.6 L 93.5 0.6 L 93.5 2.2 L 92 2.2 L 92 0.6 Z M 91.9 5.2 C 91.9 5 91.8 4.9 91.6 4.9 C 91.6 4.87 91 4.9 91 4.9 L 91 3.4 C 91 3.4 92.73 3.36 92.7 3.4 C 93.4 3.4 93.7 3.7 93.7 4.3 C 93.7 4.3 93.7 8.7 93.7 8.7 C 93.7 8.9 93.8 9 94 9 C 93.98 9 94.5 9 94.5 9 L 94.5 10.5 C 94.5 10.5 92.84 10.5 92.8 10.5 C 92.2 10.5 91.9 10.2 91.9 9.5 C 91.9 9.5 91.9 5.2 91.9 5.2 Z M 98.9 3.2 C 101 3.2 102.1 4.7 102.1 6.6 C 102.11 6.79 102.1 7.2 102.1 7.2 C 102.1 7.2 97.14 7.24 97.1 7.2 C 97.3 8.5 98.2 9.2 99.3 9.2 C 100.43 9.16 101.3 8.4 101.3 8.4 L 102 9.6 C 102 9.6 100.93 10.67 99.2 10.7 C 96.8 10.7 95.3 9 95.3 6.9 C 95.3 4.7 96.8 3.2 98.9 3.2 Z M 100.3 6 C 100.3 5.2 99.7 4.6 98.9 4.6 C 98 4.6 97.4 5.1 97.2 6 C 97.2 6 100.3 6 100.3 6 Z M 103.9 8.2 C 103.9 8.2 104.77 9.28 106 9.3 C 106.5 9.3 107 9.1 107 8.6 C 107 7.6 103.2 7.6 103.2 5.3 C 103.2 3.9 104.5 3.2 106 3.2 C 106.9 3.2 108.5 3.5 108.5 4.7 C 108.47 4.68 108.5 5.4 108.5 5.4 L 106.9 5.4 C 106.9 5.4 106.9 5.07 106.9 5.1 C 106.9 4.7 106.4 4.6 106 4.6 C 105.4 4.6 104.9 4.8 104.9 5.2 C 104.9 6.3 108.7 6.1 108.7 8.5 C 108.7 9.8 107.5 10.7 106 10.7 C 104.03 10.67 103 9.4 103 9.4 L 103.9 8.2 Z M 110.4 4.8 L 109.5 4.8 L 109.5 3.4 L 110.5 3.4 L 110.5 1.4 L 112.2 1.4 L 112.2 3.4 L 113.8 3.4 L 113.8 4.8 L 112.2 4.8 C 112.2 4.8 112.19 7.66 112.2 7.7 C 112.2 8.8 113.1 9 113.6 9 C 113.8 9 113.9 9 113.9 9 L 113.9 10.5 C 113.9 10.5 113.7 10.57 113.4 10.6 C 112.4 10.6 110.4 10.3 110.4 7.9 C 110.41 7.88 110.4 4.8 110.4 4.8 Z M 115.7 0.6 L 117.2 0.6 L 117.2 2.2 L 115.7 2.2 L 115.7 0.6 Z M 115.6 5.2 C 115.6 5 115.5 4.9 115.3 4.9 C 115.31 4.87 114.8 4.9 114.8 4.9 L 114.8 3.4 C 114.8 3.4 116.45 3.36 116.4 3.4 C 117.1 3.4 117.4 3.7 117.4 4.3 C 117.4 4.3 117.4 8.7 117.4 8.7 C 117.4 8.9 117.5 9 117.7 9 C 117.69 9 118.3 9 118.3 9 L 118.3 10.5 C 118.3 10.5 116.56 10.5 116.6 10.5 C 115.9 10.5 115.6 10.2 115.6 9.5 C 115.6 9.5 115.6 5.2 115.6 5.2 Z M 122.9 3.2 C 123.9 3.2 125.5 3.6 125.5 4.8 C 125.53 4.8 125.5 5.6 125.5 5.6 L 124 5.6 C 124 5.6 123.96 5.25 124 5.2 C 124 4.9 123.4 4.7 122.9 4.7 C 121.7 4.7 120.8 5.6 120.8 6.9 C 120.8 8.4 121.9 9.1 123.1 9.1 C 124.27 9.11 125.2 8.1 125.2 8.1 L 125.9 9.4 C 125.9 9.4 124.85 10.67 122.9 10.7 C 120.5 10.7 119 9 119 6.9 C 119 4.9 120.5 3.2 122.9 3.2 Z M 127.2 2.4 C 127.2 2.2 127.1 2.1 126.9 2.1 C 126.88 2.07 126.3 2.1 126.3 2.1 L 126.3 0.6 C 126.3 0.6 128.01 0.56 128 0.6 C 128.7 0.6 129 0.9 129 1.5 C 129 1.5 129 4 129 4 C 128.96 4.35 128.9 4.6 128.9 4.6 C 128.9 4.6 128.96 4.61 129 4.6 C 129.3 3.9 130.2 3.2 131.4 3.2 C 133 3.2 133.9 4 133.9 5.9 C 133.9 5.9 133.9 8.7 133.9 8.7 C 133.9 8.9 134 9 134.2 9 C 134.21 9 134.8 9 134.8 9 L 134.8 10.5 C 134.8 10.5 133.08 10.5 133.1 10.5 C 132.4 10.5 132.1 10.2 132.1 9.5 C 132.1 9.5 132.1 6.3 132.1 6.3 C 132.1 5.4 131.9 4.8 131 4.8 C 130.1 4.8 129.3 5.4 129.1 6.3 C 129 6.6 129 6.9 129 7.2 C 128.96 7.22 129 10.5 129 10.5 L 127.2 10.5 C 127.2 10.5 127.18 2.38 127.2 2.4 Z M 143.1 3.2 C 144 3.2 145.7 3.6 145.7 4.8 C 145.69 4.8 145.7 5.6 145.7 5.6 L 144.1 5.6 C 144.1 5.6 144.12 5.25 144.1 5.2 C 144.1 4.9 143.5 4.7 143.1 4.7 C 141.9 4.7 141 5.6 141 6.9 C 141 8.4 142.1 9.1 143.2 9.1 C 144.43 9.11 145.3 8.1 145.3 8.1 L 146.1 9.4 C 146.1 9.4 145.01 10.67 143.1 10.7 C 140.7 10.7 139.2 9 139.2 6.9 C 139.2 4.9 140.7 3.2 143.1 3.2 Z M 147.9 11.9 C 148.4 11.9 148.9 11.6 149.1 11 C 149.11 11.03 149.3 10.5 149.3 10.5 C 149.3 10.5 146.97 5.12 147 5.1 C 146.9 4.9 146.8 4.9 146.6 4.9 C 146.59 4.87 146.4 4.9 146.4 4.9 L 146.4 3.4 C 146.4 3.4 147.55 3.36 147.6 3.4 C 148.1 3.4 148.3 3.5 148.5 4 C 148.5 4 149.9 7.6 149.9 7.6 C 150.03 7.97 150.1 8.6 150.1 8.6 L 150.2 8.6 C 150.2 8.6 150.28 7.97 150.4 7.6 C 150.4 7.6 151.6 4 151.6 4 C 151.8 3.5 152.1 3.4 152.6 3.4 C 152.58 3.36 153.8 3.4 153.8 3.4 L 153.8 4.9 C 153.8 4.9 153.57 4.87 153.6 4.9 C 153.4 4.9 153.3 4.9 153.2 5.1 C 153.2 5.1 150.6 11.6 150.6 11.6 C 150.1 12.9 149.1 13.4 148 13.4 C 146.91 13.44 146.2 12.7 146.2 12.7 L 146.9 11.5 C 146.9 11.5 147.34 11.94 147.9 11.9 Z M 155.1 2.4 C 155.1 2.2 154.9 2.1 154.8 2.1 C 154.75 2.07 154.2 2.1 154.2 2.1 L 154.2 0.6 C 154.2 0.6 155.88 0.56 155.9 0.6 C 156.5 0.6 156.8 0.7 156.8 1.4 C 156.83 1.37 156.8 5.9 156.8 5.9 C 156.8 5.9 157.37 5.88 157.4 5.9 C 157.6 5.9 157.9 5.8 158 5.6 C 158.04 5.61 159.5 3.4 159.5 3.4 L 161.5 3.4 C 161.5 3.4 159.66 6.05 159.7 6 C 159.35 6.5 159.1 6.6 159.1 6.6 L 159.1 6.6 C 159.1 6.6 159.38 6.73 159.6 7.2 C 159.6 7.2 160.4 8.7 160.4 8.7 C 160.6 8.9 160.7 9 161 9 C 161.03 9 161.5 9 161.5 9 L 161.5 10.5 C 161.5 10.5 160.19 10.5 160.2 10.5 C 159.6 10.5 159.4 10.4 159.1 9.9 C 159.1 9.9 157.9 7.6 157.9 7.6 C 157.7 7.4 157.5 7.4 157.2 7.4 C 157.23 7.38 156.8 7.4 156.8 7.4 L 156.8 10.5 L 155.1 10.5 C 155.1 10.5 155.06 2.38 155.1 2.4 Z M 162.7 2.4 C 162.7 2.2 162.6 2.1 162.4 2.1 C 162.42 2.07 161.9 2.1 161.9 2.1 L 161.9 0.6 C 161.9 0.6 163.56 0.56 163.6 0.6 C 164.2 0.6 164.5 0.9 164.5 1.5 C 164.5 1.5 164.5 8.7 164.5 8.7 C 164.5 8.9 164.6 9 164.8 9 C 164.81 9 165.4 9 165.4 9 L 165.4 10.5 C 165.4 10.5 163.68 10.5 163.7 10.5 C 163 10.5 162.7 10.2 162.7 9.5 C 162.7 9.5 162.7 2.4 162.7 2.4 Z M 170 3.2 C 172.2 3.2 174 4.7 174 6.9 C 174 9.1 172.2 10.7 170 10.7 C 167.9 10.7 166.1 9.1 166.1 6.9 C 166.1 4.7 167.9 3.2 170 3.2 Z M 170 9.2 C 171.2 9.2 172.2 8.3 172.2 6.9 C 172.2 5.6 171.2 4.7 170 4.7 C 168.9 4.7 167.9 5.6 167.9 6.9 C 167.9 8.3 168.9 9.2 170 9.2 Z M 178.8 3.2 C 179.7 3.2 181.3 3.6 181.3 4.8 C 181.35 4.8 181.3 5.6 181.3 5.6 L 179.8 5.6 C 179.8 5.6 179.78 5.25 179.8 5.2 C 179.8 4.9 179.2 4.7 178.8 4.7 C 177.5 4.7 176.6 5.6 176.6 6.9 C 176.6 8.4 177.7 9.1 178.9 9.1 C 180.09 9.11 181 8.1 181 8.1 L 181.7 9.4 C 181.7 9.4 180.66 10.67 178.7 10.7 C 176.4 10.7 174.9 9 174.9 6.9 C 174.9 4.9 176.3 3.2 178.8 3.2 Z M 183 2.4 C 183 2.2 182.9 2.1 182.7 2.1 C 182.69 2.07 182.1 2.1 182.1 2.1 L 182.1 0.6 C 182.1 0.6 183.83 0.56 183.8 0.6 C 184.5 0.6 184.8 0.9 184.8 1.5 C 184.8 1.5 184.8 4 184.8 4 C 184.78 4.35 184.8 4.6 184.8 4.6 C 184.8 4.6 184.78 4.61 184.8 4.6 C 185.1 3.9 186 3.2 187.2 3.2 C 188.8 3.2 189.7 4 189.7 5.9 C 189.7 5.9 189.7 8.7 189.7 8.7 C 189.7 8.9 189.8 9 190 9 C 190.03 9 190.6 9 190.6 9 L 190.6 10.5 C 190.6 10.5 188.9 10.5 188.9 10.5 C 188.2 10.5 188 10.2 188 9.5 C 188 9.5 188 6.3 188 6.3 C 188 5.4 187.7 4.8 186.8 4.8 C 185.9 4.8 185.2 5.4 184.9 6.3 C 184.8 6.6 184.8 6.9 184.8 7.2 C 184.78 7.22 184.8 10.5 184.8 10.5 L 183 10.5 C 183 10.5 183 2.38 183 2.4 Z M 195.7 2.4 C 195.7 2.2 195.6 2.1 195.4 2.1 C 195.38 2.07 194.8 2.1 194.8 2.1 L 194.8 0.6 C 194.8 0.6 196.51 0.56 196.5 0.6 C 197.2 0.6 197.5 0.9 197.5 1.5 C 197.5 1.5 197.5 8.7 197.5 8.7 C 197.5 8.9 197.6 9 197.8 9 C 197.77 9 198.3 9 198.3 9 L 198.3 10.5 C 198.3 10.5 196.64 10.5 196.6 10.5 C 196 10.5 195.7 10.2 195.7 9.5 C 195.7 9.5 195.7 2.4 195.7 2.4 Z M 199.9 0.6 L 201.5 0.6 L 201.5 2.2 L 199.9 2.2 L 199.9 0.6 Z M 199.9 5.2 C 199.9 5 199.7 4.9 199.5 4.9 C 199.55 4.87 199 4.9 199 4.9 L 199 3.4 C 199 3.4 200.68 3.36 200.7 3.4 C 201.3 3.4 201.6 3.7 201.6 4.3 C 201.6 4.3 201.6 8.7 201.6 8.7 C 201.6 8.9 201.7 9 201.9 9 C 201.93 9 202.5 9 202.5 9 L 202.5 10.5 C 202.5 10.5 200.8 10.5 200.8 10.5 C 200.1 10.5 199.9 10.2 199.9 9.5 C 199.9 9.5 199.9 5.2 199.9 5.2 Z M 206.9 3.2 C 208.9 3.2 210.1 4.7 210.1 6.6 C 210.06 6.79 210 7.2 210 7.2 C 210 7.2 205.09 7.24 205.1 7.2 C 205.2 8.5 206.2 9.2 207.2 9.2 C 208.38 9.16 209.2 8.4 209.2 8.4 L 210 9.6 C 210 9.6 208.89 10.67 207.1 10.7 C 204.7 10.7 203.3 9 203.3 6.9 C 203.3 4.7 204.8 3.2 206.9 3.2 Z M 208.2 6 C 208.2 5.2 207.6 4.6 206.9 4.6 C 206 4.6 205.3 5.1 205.1 6 C 205.1 6 208.2 6 208.2 6 Z M 215 3.2 C 215.9 3.2 217.6 3.6 217.6 4.8 C 217.57 4.8 217.6 5.6 217.6 5.6 L 216 5.6 C 216 5.6 216 5.25 216 5.2 C 216 4.9 215.4 4.7 215 4.7 C 213.7 4.7 212.9 5.6 212.9 6.9 C 212.9 8.4 213.9 9.1 215.1 9.1 C 216.31 9.11 217.2 8.1 217.2 8.1 L 217.9 9.4 C 217.9 9.4 216.88 10.67 214.9 10.7 C 212.6 10.7 211.1 9 211.1 6.9 C 211.1 4.9 212.5 3.2 215 3.2 Z M 212.7 0.6 L 214 0.6 L 214.7 1.7 L 214.7 1.7 L 215.4 0.6 L 216.8 0.6 L 215.5 2.5 L 214 2.5 L 212.7 0.6 Z M 219.3 2.4 C 219.3 2.2 219.1 2.1 219 2.1 C 218.95 2.07 218.4 2.1 218.4 2.1 L 218.4 0.6 C 218.4 0.6 220.09 0.56 220.1 0.6 C 220.7 0.6 221 0.9 221 1.5 C 221 1.5 221 3.6 221 3.6 C 221.04 3.93 221 4.2 221 4.2 L 221 4.2 C 221 4.2 221.67 3.19 223.2 3.2 C 225.1 3.2 226.3 4.7 226.3 6.9 C 226.3 9.2 225 10.7 223.1 10.7 C 221.58 10.67 220.9 9.7 220.9 9.7 L 220.9 9.7 C 220.9 9.7 220.94 9.86 220.9 10.1 C 220.94 10.14 220.9 10.5 220.9 10.5 L 219.3 10.5 C 219.3 10.5 219.26 2.38 219.3 2.4 Z M 222.8 9.2 C 223.7 9.2 224.6 8.4 224.6 7 C 224.6 5.6 223.8 4.7 222.8 4.7 C 221.9 4.7 221 5.4 221 7 C 221 8.1 221.6 9.2 222.8 9.2 Z M 228.4 11.9 C 228.9 11.9 229.3 11.6 229.6 11 C 229.57 11.03 229.8 10.5 229.8 10.5 C 229.8 10.5 227.42 5.12 227.4 5.1 C 227.3 4.9 227.2 4.9 227 4.9 C 227.05 4.87 226.8 4.9 226.8 4.9 L 226.8 3.4 C 226.8 3.4 228.01 3.36 228 3.4 C 228.5 3.4 228.8 3.5 228.9 4 C 228.9 4 230.3 7.6 230.3 7.6 C 230.49 7.97 230.6 8.6 230.6 8.6 L 230.6 8.6 C 230.6 8.6 230.74 7.97 230.9 7.6 C 230.9 7.6 232.1 4 232.1 4 C 232.3 3.5 232.5 3.4 233 3.4 C 233.04 3.36 234.2 3.4 234.2 3.4 L 234.2 4.9 C 234.2 4.9 234.03 4.87 234 4.9 C 233.8 4.9 233.7 4.9 233.6 5.1 C 233.6 5.1 231.1 11.6 231.1 11.6 C 230.6 12.9 229.6 13.4 228.5 13.4 C 227.37 13.44 226.7 12.7 226.7 12.7 L 227.4 11.5 C 227.4 11.5 227.8 11.94 228.4 11.9 Z " stroke="none" fill="#000"/>  </g></svg>