<?xml version="1.0" standalone="no"?><!DOCTYPE svg PUBLIC "-//W3C//DTD SVG 1.1//EN" "http://www.w3.org/Graphics/SVG/1.1/DTD/svg11.dtd"><svg xmlns="http://www.w3.org/2000/svg" version="1.1" width="572px" height="115px" viewBox="0 0 572 115">  <desc>Native oEstrogen with Selective Tissue Action = nat vny estrog n so selekt vnym inkom na tkaniv</desc>  <defs/>  <g id="Polygon67668">    <path d="M 41.6 74.5 C 41.6 74.2 41.4 74 41.1 74 C 41.13 74.03 40.3 74 40.3 74 L 40.3 72.4 C 40.3 72.4 42.17 72.37 42.2 72.4 C 43 72.4 43.5 72.8 43.5 73.5 C 43.5 73.5 43.5 73.9 43.5 73.9 C 43.45 74.19 43.4 74.5 43.4 74.5 C 43.4 74.5 43.45 74.45 43.5 74.5 C 43.9 73.6 45.1 72.1 47.3 72.1 C 49.7 72.1 50.7 73.4 50.7 76 C 50.7 76 50.7 80.4 50.7 80.4 C 50.7 80.7 50.9 80.8 51.2 80.8 C 51.17 80.83 52 80.8 52 80.8 L 52 82.5 C 52 82.5 50.07 82.49 50.1 82.5 C 49.2 82.5 48.8 82.1 48.8 81.2 C 48.8 81.2 48.8 76.5 48.8 76.5 C 48.8 75 48.5 73.9 46.9 73.9 C 45.3 73.9 44.1 74.9 43.7 76.4 C 43.6 76.8 43.5 77.3 43.5 77.8 C 43.51 77.75 43.5 82.5 43.5 82.5 L 41.6 82.5 C 41.6 82.5 41.57 74.47 41.6 74.5 Z M 59.2 76.2 C 59.23 76.19 59.7 76.2 59.7 76.2 C 59.7 76.2 59.67 76.09 59.7 76.1 C 59.7 74.3 59 73.7 57.4 73.7 C 57 73.7 55.8 73.8 55.8 74.5 C 55.77 74.45 55.8 75 55.8 75 L 54 75 C 54 75 53.95 74.03 54 74 C 54 72.4 56.5 72.1 57.5 72.1 C 60.7 72.1 61.6 73.9 61.6 76.1 C 61.6 76.1 61.6 80.4 61.6 80.4 C 61.6 80.7 61.8 80.8 62.1 80.8 C 62.05 80.83 62.9 80.8 62.9 80.8 L 62.9 82.5 C 62.9 82.5 61.05 82.49 61.1 82.5 C 60.2 82.5 59.8 82.1 59.8 81.3 C 59.79 80.99 59.8 80.7 59.8 80.7 L 59.8 80.7 C 59.8 80.7 58.99 82.73 56.6 82.7 C 54.8 82.7 53.1 81.7 53.1 79.7 C 53.1 76.4 57.5 76.2 59.2 76.2 Z M 57 81.2 C 58.6 81.2 59.7 79.5 59.7 78 C 59.69 77.95 59.7 77.6 59.7 77.6 C 59.7 77.6 59.19 77.61 59.2 77.6 C 57.7 77.6 55.1 77.7 55.1 79.6 C 55.1 80.4 55.7 81.2 57 81.2 Z M 65.1 73.9 L 63.7 73.9 L 63.7 72.4 L 65.1 72.4 L 65.1 69.6 L 67 69.6 L 67 72.4 L 69.4 72.4 L 69.4 73.9 L 67 73.9 C 67 73.9 66.99 78.57 67 78.6 C 67 80.6 68.4 80.9 69.1 80.9 C 69.41 80.85 69.6 80.8 69.6 80.8 L 69.6 82.5 C 69.6 82.5 69.33 82.57 68.9 82.6 C 67.6 82.6 65.1 82.2 65.1 78.8 C 65.05 78.79 65.1 73.9 65.1 73.9 Z M 72.1 74.5 C 72.1 74.2 72 74 71.7 74 C 71.67 74.03 70.9 74 70.9 74 L 70.9 72.4 C 70.9 72.4 72.77 72.37 72.8 72.4 C 73.7 72.4 74.1 72.8 74.1 73.7 C 74.1 73.7 74.1 80.4 74.1 80.4 C 74.1 80.7 74.2 80.8 74.5 80.8 C 74.49 80.83 75.3 80.8 75.3 80.8 L 75.3 82.5 C 75.3 82.5 73.41 82.49 73.4 82.5 C 72.5 82.5 72.1 82.1 72.1 81.2 C 72.1 81.2 72.1 74.5 72.1 74.5 Z M 73.6 68.4 L 75.6 68.4 L 73.7 70.9 L 72.2 70.9 L 73.6 68.4 Z M 76.8 74.4 C 76.7 74.1 76.5 74 76.2 74 C 76.21 74.03 76 74 76 74 L 76 72.4 C 76 72.4 77.01 72.37 77 72.4 C 77.9 72.4 78.3 72.6 78.6 73.4 C 78.6 73.4 80.7 79.2 80.7 79.2 C 80.93 79.77 81.1 80.5 81.1 80.5 L 81.1 80.5 C 81.1 80.5 81.29 79.77 81.5 79.2 C 81.5 79.2 83.7 73.4 83.7 73.4 C 84 72.6 84.3 72.4 85.2 72.4 C 85.19 72.37 86.1 72.4 86.1 72.4 L 86.1 74 C 86.1 74 85.93 74.03 85.9 74 C 85.6 74 85.4 74.1 85.3 74.4 C 85.27 74.43 82.2 82.5 82.2 82.5 L 80 82.5 C 80 82.5 76.83 74.43 76.8 74.4 Z M 88.1 74.5 C 88.1 74.2 87.9 74 87.7 74 C 87.65 74.03 86.8 74 86.8 74 L 86.8 72.4 C 86.8 72.4 88.69 72.37 88.7 72.4 C 89.6 72.4 90 72.8 90 73.5 C 90 73.5 90 73.9 90 73.9 C 89.97 74.19 89.9 74.5 89.9 74.5 C 89.9 74.5 89.97 74.45 90 74.5 C 90.4 73.6 91.6 72.1 93.8 72.1 C 96.2 72.1 97.3 73.4 97.3 76 C 97.3 76 97.3 80.4 97.3 80.4 C 97.3 80.7 97.4 80.8 97.7 80.8 C 97.69 80.83 98.5 80.8 98.5 80.8 L 98.5 82.5 C 98.5 82.5 96.59 82.49 96.6 82.5 C 95.7 82.5 95.3 82.1 95.3 81.2 C 95.3 81.2 95.3 76.5 95.3 76.5 C 95.3 75 95 73.9 93.4 73.9 C 91.9 73.9 90.6 74.9 90.2 76.4 C 90.1 76.8 90 77.3 90 77.8 C 90.03 77.75 90 82.5 90 82.5 L 88.1 82.5 C 88.1 82.5 88.09 74.47 88.1 74.5 Z M 101.1 85 C 101.9 85 102.5 84.5 102.9 83.6 C 102.85 83.55 103.3 82.5 103.3 82.5 C 103.3 82.5 99.85 74.43 99.9 74.4 C 99.7 74.1 99.5 74 99.2 74 C 99.21 74.03 99 74 99 74 L 99 72.4 C 99 72.4 100.11 72.37 100.1 72.4 C 100.9 72.4 101.2 72.6 101.6 73.4 C 101.6 73.4 103.9 79.1 103.9 79.1 C 104.05 79.61 104.2 80.3 104.2 80.3 L 104.3 80.3 C 104.3 80.3 104.39 79.61 104.6 79.1 C 104.6 79.1 106.7 73.4 106.7 73.4 C 107 72.6 107.4 72.4 108.2 72.4 C 108.17 72.37 109.3 72.4 109.3 72.4 L 109.3 74 C 109.3 74 109.07 74.03 109.1 74 C 108.8 74 108.6 74.1 108.4 74.4 C 108.4 74.4 104.4 84.3 104.4 84.3 C 103.8 85.9 102.6 86.7 101.2 86.7 C 99.67 86.69 98.8 85.7 98.8 85.7 C 98.8 85.7 99.59 84.29 99.6 84.3 C 99.6 84.3 100.2 85 101.1 85 Z M 120.8 72.1 C 123.6 72.1 125.2 74.3 125.2 76.9 C 125.15 77.13 125.1 77.7 125.1 77.7 C 125.1 77.7 117.71 77.67 117.7 77.7 C 117.8 79.8 119.4 81.1 121.2 81.1 C 122.93 81.05 124.2 79.9 124.2 79.9 L 125 81.3 C 125 81.3 123.49 82.73 121.1 82.7 C 117.9 82.7 115.7 80.4 115.7 77.4 C 115.7 74.2 117.9 72.1 120.8 72.1 Z M 123.2 76.3 C 123.1 74.6 122 73.7 120.8 73.7 C 119.3 73.7 118.1 74.6 117.8 76.3 C 117.8 76.3 123.2 76.3 123.2 76.3 Z M 127.6 79.7 C 127.6 79.7 128.77 81.15 130.6 81.2 C 131.6 81.2 132.4 80.7 132.4 79.9 C 132.4 78 126.9 78.2 126.9 75 C 126.9 73 128.6 72.1 130.6 72.1 C 131.9 72.1 134 72.6 134 74.1 C 133.95 74.09 134 75.1 134 75.1 L 132.2 75.1 C 132.2 75.1 132.21 74.55 132.2 74.6 C 132.2 74 131.3 73.7 130.7 73.7 C 129.6 73.7 128.8 74.1 128.8 74.9 C 128.8 76.8 134.3 76.4 134.3 79.8 C 134.3 81.6 132.7 82.7 130.6 82.7 C 127.91 82.73 126.6 81 126.6 81 L 127.6 79.7 Z M 136.9 73.9 L 135.6 73.9 L 135.6 72.4 L 136.9 72.4 L 136.9 69.6 L 138.8 69.6 L 138.8 72.4 L 141.3 72.4 L 141.3 73.9 L 138.8 73.9 C 138.8 73.9 138.83 78.57 138.8 78.6 C 138.8 80.6 140.2 80.9 141 80.9 C 141.25 80.85 141.4 80.8 141.4 80.8 L 141.4 82.5 C 141.4 82.5 141.17 82.57 140.8 82.6 C 139.5 82.6 136.9 82.2 136.9 78.8 C 136.89 78.79 136.9 73.9 136.9 73.9 Z M 143.9 74.5 C 143.9 74.2 143.7 74 143.4 74 C 143.41 74.03 142.6 74 142.6 74 L 142.6 72.4 C 142.6 72.4 144.43 72.37 144.4 72.4 C 145.3 72.4 145.7 72.7 145.7 73.6 C 145.7 73.6 145.7 74.2 145.7 74.2 C 145.73 74.59 145.7 74.9 145.7 74.9 C 145.7 74.9 145.73 74.89 145.7 74.9 C 146.2 73.4 147.4 72.3 148.9 72.3 C 149.19 72.25 149.5 72.3 149.5 72.3 L 149.5 74.2 C 149.5 74.2 149.19 74.15 148.9 74.2 C 147.6 74.2 146.5 75 146 76.5 C 145.9 77.1 145.8 77.7 145.8 78.4 C 145.79 78.35 145.8 82.5 145.8 82.5 L 143.9 82.5 C 143.9 82.5 143.85 74.47 143.9 74.5 Z M 155.7 72.1 C 158.7 72.1 161.1 74.4 161.1 77.4 C 161.1 80.5 158.7 82.7 155.7 82.7 C 152.6 82.7 150.2 80.5 150.2 77.4 C 150.2 74.4 152.6 72.1 155.7 72.1 Z M 155.7 81.1 C 157.6 81.1 159.1 79.5 159.1 77.4 C 159.1 75.3 157.6 73.8 155.7 73.8 C 153.8 73.8 152.2 75.3 152.2 77.4 C 152.2 79.5 153.8 81.1 155.7 81.1 Z M 167 72.1 C 169.53 72.13 170.3 73.7 170.3 73.7 L 170.3 73.7 C 170.3 73.7 170.29 73.55 170.3 73.4 C 170.3 72.8 170.6 72.4 171.4 72.4 C 171.41 72.37 173.3 72.4 173.3 72.4 L 173.3 74 C 173.3 74 172.49 74.03 172.5 74 C 172.2 74 172.1 74.2 172.1 74.4 C 172.1 74.4 172.1 82.1 172.1 82.1 C 172.1 85.4 169.5 86.7 167 86.7 C 165.7 86.7 164.5 86.4 163.5 85.9 C 163.49 85.85 164.2 84.3 164.2 84.3 C 164.2 84.3 165.39 84.97 166.9 85 C 168.7 85 170.1 84.2 170.1 82.2 C 170.1 82.2 170.1 81.5 170.1 81.5 C 170.11 81.15 170.2 80.8 170.2 80.8 C 170.2 80.8 170.11 80.83 170.1 80.8 C 169.5 81.8 168.6 82.4 167.1 82.4 C 164.3 82.4 162.6 80.1 162.6 77.2 C 162.6 74.3 164.2 72.1 167 72.1 Z M 170.2 77.2 C 170.2 74.6 168.9 73.8 167.3 73.8 C 165.6 73.8 164.6 75.1 164.6 77.2 C 164.6 79.3 165.7 80.7 167.5 80.7 C 168.9 80.7 170.2 79.9 170.2 77.2 Z M 179.5 72.1 C 182.4 72.1 183.9 74.3 183.9 76.9 C 183.89 77.13 183.8 77.7 183.8 77.7 C 183.8 77.7 176.45 77.67 176.5 77.7 C 176.6 79.8 178.1 81.1 179.9 81.1 C 181.67 81.05 182.9 79.9 182.9 79.9 L 183.7 81.3 C 183.7 81.3 182.23 82.73 179.8 82.7 C 176.6 82.7 174.5 80.4 174.5 77.4 C 174.5 74.2 176.7 72.1 179.5 72.1 Z M 181.9 76.3 C 181.8 74.6 180.8 73.7 179.5 73.7 C 178 73.7 176.8 74.6 176.5 76.3 C 176.5 76.3 181.9 76.3 181.9 76.3 Z M 180.2 68.4 L 182.1 68.4 L 180.2 70.9 L 178.7 70.9 L 180.2 68.4 Z M 186.5 74.5 C 186.5 74.2 186.3 74 186 74 C 186.03 74.03 185.2 74 185.2 74 L 185.2 72.4 C 185.2 72.4 187.07 72.37 187.1 72.4 C 187.9 72.4 188.4 72.8 188.4 73.5 C 188.4 73.5 188.4 73.9 188.4 73.9 C 188.35 74.19 188.3 74.5 188.3 74.5 C 188.3 74.5 188.35 74.45 188.4 74.5 C 188.8 73.6 190 72.1 192.2 72.1 C 194.6 72.1 195.6 73.4 195.6 76 C 195.6 76 195.6 80.4 195.6 80.4 C 195.6 80.7 195.8 80.8 196.1 80.8 C 196.07 80.83 196.9 80.8 196.9 80.8 L 196.9 82.5 C 196.9 82.5 194.97 82.49 195 82.5 C 194.1 82.5 193.7 82.1 193.7 81.2 C 193.7 81.2 193.7 76.5 193.7 76.5 C 193.7 75 193.4 73.9 191.8 73.9 C 190.2 73.9 189 74.9 188.6 76.4 C 188.5 76.8 188.4 77.3 188.4 77.8 C 188.41 77.75 188.4 82.5 188.4 82.5 L 186.5 82.5 C 186.5 82.5 186.47 74.47 186.5 74.5 Z M 204.2 79.7 C 204.2 79.7 205.41 81.15 207.3 81.2 C 208.2 81.2 209 80.7 209 79.9 C 209 78 203.5 78.2 203.5 75 C 203.5 73 205.2 72.1 207.3 72.1 C 208.5 72.1 210.6 72.6 210.6 74.1 C 210.59 74.09 210.6 75.1 210.6 75.1 L 208.9 75.1 C 208.9 75.1 208.85 74.55 208.9 74.6 C 208.9 74 208 73.7 207.3 73.7 C 206.2 73.7 205.5 74.1 205.5 74.9 C 205.5 76.8 211 76.4 211 79.8 C 211 81.6 209.4 82.7 207.3 82.7 C 204.55 82.73 203.2 81 203.2 81 L 204.2 79.7 Z M 217.9 72.1 C 220.9 72.1 223.4 74.4 223.4 77.4 C 223.4 80.5 220.9 82.7 217.9 82.7 C 214.9 82.7 212.5 80.5 212.5 77.4 C 212.5 74.4 214.9 72.1 217.9 72.1 Z M 217.9 81.1 C 219.8 81.1 221.4 79.5 221.4 77.4 C 221.4 75.3 219.8 73.8 217.9 73.8 C 216 73.8 214.5 75.3 214.5 77.4 C 214.5 79.5 216 81.1 217.9 81.1 Z M 231 79.7 C 231 79.7 232.21 81.15 234.1 81.2 C 235 81.2 235.8 80.7 235.8 79.9 C 235.8 78 230.3 78.2 230.3 75 C 230.3 73 232 72.1 234.1 72.1 C 235.3 72.1 237.4 72.6 237.4 74.1 C 237.39 74.09 237.4 75.1 237.4 75.1 L 235.7 75.1 C 235.7 75.1 235.65 74.55 235.7 74.6 C 235.7 74 234.8 73.7 234.1 73.7 C 233 73.7 232.3 74.1 232.3 74.9 C 232.3 76.8 237.8 76.4 237.8 79.8 C 237.8 81.6 236.2 82.7 234.1 82.7 C 231.35 82.73 230 81 230 81 L 231 79.7 Z M 244.4 72.1 C 247.2 72.1 248.7 74.3 248.7 76.9 C 248.71 77.13 248.7 77.7 248.7 77.7 C 248.7 77.7 241.27 77.67 241.3 77.7 C 241.4 79.8 243 81.1 244.8 81.1 C 246.49 81.05 247.7 79.9 247.7 79.9 L 248.6 81.3 C 248.6 81.3 247.05 82.73 244.7 82.7 C 241.5 82.7 239.3 80.4 239.3 77.4 C 239.3 74.2 241.5 72.1 244.4 72.1 Z M 246.7 76.3 C 246.7 74.6 245.6 73.7 244.3 73.7 C 242.9 73.7 241.7 74.6 241.4 76.3 C 241.4 76.3 246.7 76.3 246.7 76.3 Z M 251.2 70.5 C 251.2 70.2 251.1 70 250.8 70 C 250.81 70.03 250 70 250 70 L 250 68.4 C 250 68.4 251.91 68.37 251.9 68.4 C 252.8 68.4 253.2 68.8 253.2 69.7 C 253.2 69.7 253.2 80.4 253.2 80.4 C 253.2 80.7 253.3 80.8 253.6 80.8 C 253.63 80.83 254.4 80.8 254.4 80.8 L 254.4 82.5 C 254.4 82.5 252.53 82.49 252.5 82.5 C 251.6 82.5 251.2 82.1 251.2 81.2 C 251.2 81.2 251.2 70.5 251.2 70.5 Z M 260.7 72.1 C 263.6 72.1 265.1 74.3 265.1 76.9 C 265.11 77.13 265 77.7 265 77.7 C 265 77.7 257.67 77.67 257.7 77.7 C 257.8 79.8 259.3 81.1 261.1 81.1 C 262.89 81.05 264.1 79.9 264.1 79.9 L 264.9 81.3 C 264.9 81.3 263.45 82.73 261 82.7 C 257.8 82.7 255.7 80.4 255.7 77.4 C 255.7 74.2 257.9 72.1 260.7 72.1 Z M 263.1 76.3 C 263 74.6 262 73.7 260.7 73.7 C 259.2 73.7 258 74.6 257.7 76.3 C 257.7 76.3 263.1 76.3 263.1 76.3 Z M 267.6 70.5 C 267.6 70.2 267.4 70 267.2 70 C 267.17 70.03 266.3 70 266.3 70 L 266.3 68.4 C 266.3 68.4 268.27 68.37 268.3 68.4 C 269.2 68.4 269.5 68.6 269.5 69.5 C 269.55 69.53 269.5 76.1 269.5 76.1 C 269.5 76.1 270.45 76.09 270.4 76.1 C 270.8 76.1 271.2 76 271.5 75.7 C 271.51 75.65 273.8 72.4 273.8 72.4 L 276.1 72.4 C 276.1 72.4 273.33 76.13 273.3 76.1 C 272.87 76.75 272.6 76.9 272.6 76.9 L 272.6 76.9 C 272.6 76.9 272.91 77.05 273.2 77.7 C 273.2 77.7 274.7 80.4 274.7 80.4 C 274.9 80.8 275.1 80.8 275.6 80.8 C 275.61 80.83 276.2 80.8 276.2 80.8 L 276.2 82.5 C 276.2 82.5 274.83 82.49 274.8 82.5 C 273.9 82.5 273.6 82.3 273.1 81.6 C 273.1 81.6 271.3 78.2 271.3 78.2 C 271.1 77.8 270.6 77.7 270.3 77.7 C 270.31 77.73 269.5 77.7 269.5 77.7 L 269.5 82.5 L 267.6 82.5 C 267.6 82.5 267.61 70.47 267.6 70.5 Z M 278.3 73.9 L 276.9 73.9 L 276.9 72.4 L 278.3 72.4 L 278.3 69.6 L 280.2 69.6 L 280.2 72.4 L 282.6 72.4 L 282.6 73.9 L 280.2 73.9 C 280.2 73.9 280.21 78.57 280.2 78.6 C 280.2 80.6 281.6 80.9 282.3 80.9 C 282.63 80.85 282.8 80.8 282.8 80.8 L 282.8 82.5 C 282.8 82.5 282.55 82.57 282.1 82.6 C 280.8 82.6 278.3 82.2 278.3 78.8 C 278.27 78.79 278.3 73.9 278.3 73.9 Z M 285.3 74.5 C 285.3 74.2 285.2 74 284.9 74 C 284.89 74.03 284.1 74 284.1 74 L 284.1 72.4 C 284.1 72.4 285.99 72.37 286 72.4 C 286.9 72.4 287.3 72.8 287.3 73.7 C 287.3 73.7 287.3 80.4 287.3 80.4 C 287.3 80.7 287.4 80.8 287.7 80.8 C 287.71 80.83 288.5 80.8 288.5 80.8 L 288.5 82.5 C 288.5 82.5 286.63 82.49 286.6 82.5 C 285.7 82.5 285.3 82.1 285.3 81.2 C 285.3 81.2 285.3 74.5 285.3 74.5 Z M 286.8 68.4 L 288.8 68.4 L 286.9 70.9 L 285.4 70.9 L 286.8 68.4 Z M 290 74.4 C 289.9 74.1 289.7 74 289.4 74 C 289.43 74.03 289.2 74 289.2 74 L 289.2 72.4 C 289.2 72.4 290.23 72.37 290.2 72.4 C 291.1 72.4 291.5 72.6 291.8 73.4 C 291.8 73.4 293.9 79.2 293.9 79.2 C 294.15 79.77 294.3 80.5 294.3 80.5 L 294.3 80.5 C 294.3 80.5 294.51 79.77 294.7 79.2 C 294.7 79.2 296.9 73.4 296.9 73.4 C 297.2 72.6 297.5 72.4 298.4 72.4 C 298.41 72.37 299.3 72.4 299.3 72.4 L 299.3 74 C 299.3 74 299.15 74.03 299.1 74 C 298.8 74 298.6 74.1 298.5 74.4 C 298.49 74.43 295.4 82.5 295.4 82.5 L 293.2 82.5 C 293.2 82.5 290.05 74.43 290 74.4 Z M 301.3 74.5 C 301.3 74.2 301.1 74 300.9 74 C 300.87 74.03 300 74 300 74 L 300 72.4 C 300 72.4 301.91 72.37 301.9 72.4 C 302.8 72.4 303.2 72.8 303.2 73.5 C 303.2 73.5 303.2 73.9 303.2 73.9 C 303.19 74.19 303.1 74.5 303.1 74.5 C 303.1 74.5 303.19 74.45 303.2 74.5 C 303.6 73.6 304.8 72.1 307 72.1 C 309.4 72.1 310.5 73.4 310.5 76 C 310.5 76 310.5 80.4 310.5 80.4 C 310.5 80.7 310.6 80.8 310.9 80.8 C 310.91 80.83 311.7 80.8 311.7 80.8 L 311.7 82.5 C 311.7 82.5 309.81 82.49 309.8 82.5 C 308.9 82.5 308.5 82.1 308.5 81.2 C 308.5 81.2 308.5 76.5 308.5 76.5 C 308.5 75 308.2 73.9 306.6 73.9 C 305.1 73.9 303.8 74.9 303.4 76.4 C 303.3 76.8 303.2 77.3 303.2 77.8 C 303.25 77.75 303.2 82.5 303.2 82.5 L 301.3 82.5 C 301.3 82.5 301.31 74.47 301.3 74.5 Z M 314.3 85 C 315.1 85 315.7 84.5 316.1 83.6 C 316.07 83.55 316.5 82.5 316.5 82.5 C 316.5 82.5 313.07 74.43 313.1 74.4 C 312.9 74.1 312.7 74 312.4 74 C 312.43 74.03 312.2 74 312.2 74 L 312.2 72.4 C 312.2 72.4 313.33 72.37 313.3 72.4 C 314.1 72.4 314.4 72.6 314.8 73.4 C 314.8 73.4 317.1 79.1 317.1 79.1 C 317.27 79.61 317.4 80.3 317.4 80.3 L 317.5 80.3 C 317.5 80.3 317.61 79.61 317.8 79.1 C 317.8 79.1 319.9 73.4 319.9 73.4 C 320.2 72.6 320.6 72.4 321.4 72.4 C 321.39 72.37 322.5 72.4 322.5 72.4 L 322.5 74 C 322.5 74 322.29 74.03 322.3 74 C 322 74 321.8 74.1 321.6 74.4 C 321.6 74.4 317.6 84.3 317.6 84.3 C 317 85.9 315.8 86.7 314.4 86.7 C 312.89 86.69 312 85.7 312 85.7 C 312 85.7 312.81 84.29 312.8 84.3 C 312.8 84.3 313.4 85 314.3 85 Z M 324.5 74.5 C 324.5 74.2 324.4 74 324.1 74 C 324.09 74.03 323.3 74 323.3 74 L 323.3 72.4 C 323.3 72.4 325.13 72.37 325.1 72.4 C 326 72.4 326.4 72.8 326.4 73.5 C 326.4 73.5 326.4 73.9 326.4 73.9 C 326.41 74.19 326.4 74.5 326.4 74.5 C 326.4 74.5 326.43 74.45 326.4 74.5 C 326.9 73.3 328.3 72.1 329.9 72.1 C 331.6 72.1 332.6 72.9 332.9 74.4 C 332.9 74.4 333 74.4 333 74.4 C 333.5 73.2 334.9 72.1 336.6 72.1 C 338.8 72.1 339.9 73.4 339.9 76 C 339.9 76 339.9 80.4 339.9 80.4 C 339.9 80.7 340.1 80.8 340.3 80.8 C 340.35 80.83 341.2 80.8 341.2 80.8 L 341.2 82.5 C 341.2 82.5 339.25 82.49 339.2 82.5 C 338.3 82.5 338 82.1 338 81.2 C 338 81.2 338 76.4 338 76.4 C 338 75 337.7 73.9 336.2 73.9 C 334.8 73.9 333.7 75.1 333.3 76.5 C 333.2 76.9 333.2 77.4 333.2 77.9 C 333.19 77.87 333.2 82.5 333.2 82.5 L 331.2 82.5 C 331.2 82.5 331.25 76.43 331.2 76.4 C 331.2 75.1 331 73.9 329.5 73.9 C 328 73.9 327 75.1 326.6 76.6 C 326.5 77 326.5 77.4 326.5 77.9 C 326.47 77.87 326.5 82.5 326.5 82.5 L 324.5 82.5 C 324.5 82.5 324.53 74.47 324.5 74.5 Z M 348.6 74.5 C 348.6 74.2 348.4 74 348.2 74 C 348.17 74.03 347.3 74 347.3 74 L 347.3 72.4 C 347.3 72.4 349.25 72.37 349.2 72.4 C 350.2 72.4 350.5 72.8 350.5 73.6 C 350.5 73.6 350.5 78.4 350.5 78.4 C 350.5 79.8 350.8 80.9 352.4 80.9 C 354.5 80.9 355.7 79.1 355.7 77.1 C 355.73 77.11 355.7 72.4 355.7 72.4 L 357.7 72.4 C 357.7 72.4 357.67 80.39 357.7 80.4 C 357.7 80.7 357.8 80.8 358.1 80.8 C 358.11 80.83 358.9 80.8 358.9 80.8 L 358.9 82.5 C 358.9 82.5 357.07 82.49 357.1 82.5 C 356.2 82.5 355.8 82.1 355.8 81.4 C 355.8 81.4 355.8 81 355.8 81 C 355.79 80.67 355.8 80.4 355.8 80.4 C 355.8 80.4 355.77 80.41 355.8 80.4 C 355.3 81.4 354 82.7 352 82.7 C 349.8 82.7 348.6 81.5 348.6 78.9 C 348.6 78.9 348.6 74.5 348.6 74.5 Z M 353.7 68.4 L 355.7 68.4 L 353.8 70.9 L 352.2 70.9 L 353.7 68.4 Z M 365.5 72.1 C 366.7 72.1 369.2 72.6 369.2 74.4 C 369.17 74.35 369.2 75.4 369.2 75.4 L 367.4 75.4 C 367.4 75.4 367.41 74.83 367.4 74.8 C 367.4 74.1 366.3 73.8 365.5 73.8 C 363.5 73.8 362.1 75.3 362.1 77.4 C 362.1 79.7 363.7 81 365.6 81 C 367.53 81.01 368.8 79.6 368.8 79.6 L 369.6 81 C 369.6 81 368.17 82.73 365.5 82.7 C 362.3 82.7 360.1 80.5 360.1 77.4 C 360.1 74.5 362.3 72.1 365.5 72.1 Z M 362.5 68.4 L 364.1 68.4 L 365.2 70 L 365.2 70 L 366.2 68.4 L 367.8 68.4 L 366.1 70.9 L 364.3 70.9 L 362.5 68.4 Z M 371.9 68.4 L 373.6 68.4 L 373.6 70.4 L 371.9 70.4 L 371.9 68.4 Z M 371.8 74.5 C 371.8 74.2 371.7 74 371.4 74 C 371.39 74.03 370.6 74 370.6 74 L 370.6 72.4 C 370.6 72.4 372.47 72.37 372.5 72.4 C 373.4 72.4 373.7 72.8 373.7 73.7 C 373.7 73.7 373.7 80.4 373.7 80.4 C 373.7 80.7 373.9 80.8 374.2 80.8 C 374.19 80.83 375 80.8 375 80.8 L 375 82.5 C 375 82.5 373.11 82.49 373.1 82.5 C 372.2 82.5 371.8 82.1 371.8 81.2 C 371.8 81.2 371.8 74.5 371.8 74.5 Z M 377.2 74.5 C 377.2 74.2 377.1 74 376.8 74 C 376.79 74.03 376 74 376 74 L 376 72.4 C 376 72.4 377.83 72.37 377.8 72.4 C 378.7 72.4 379.1 72.8 379.1 73.5 C 379.1 73.5 379.1 73.9 379.1 73.9 C 379.11 74.19 379.1 74.5 379.1 74.5 C 379.1 74.5 379.11 74.45 379.1 74.5 C 379.5 73.6 380.7 72.1 382.9 72.1 C 385.3 72.1 386.4 73.4 386.4 76 C 386.4 76 386.4 80.4 386.4 80.4 C 386.4 80.7 386.5 80.8 386.8 80.8 C 386.83 80.83 387.6 80.8 387.6 80.8 L 387.6 82.5 C 387.6 82.5 385.73 82.49 385.7 82.5 C 384.8 82.5 384.4 82.1 384.4 81.2 C 384.4 81.2 384.4 76.5 384.4 76.5 C 384.4 75 384.2 73.9 382.5 73.9 C 381 73.9 379.7 74.9 379.3 76.4 C 379.2 76.8 379.2 77.3 379.2 77.8 C 379.17 77.75 379.2 82.5 379.2 82.5 L 377.2 82.5 C 377.2 82.5 377.23 74.47 377.2 74.5 Z M 389.7 70.5 C 389.7 70.2 389.5 70 389.2 70 C 389.23 70.03 388.4 70 388.4 70 L 388.4 68.4 C 388.4 68.4 390.33 68.37 390.3 68.4 C 391.2 68.4 391.6 68.6 391.6 69.5 C 391.61 69.53 391.6 76.1 391.6 76.1 C 391.6 76.1 392.51 76.09 392.5 76.1 C 392.9 76.1 393.3 76 393.6 75.7 C 393.57 75.65 395.9 72.4 395.9 72.4 L 398.1 72.4 C 398.1 72.4 395.39 76.13 395.4 76.1 C 394.93 76.75 394.6 76.9 394.6 76.9 L 394.6 76.9 C 394.6 76.9 394.97 77.05 395.3 77.7 C 395.3 77.7 396.8 80.4 396.8 80.4 C 397 80.8 397.2 80.8 397.7 80.8 C 397.67 80.83 398.3 80.8 398.3 80.8 L 398.3 82.5 C 398.3 82.5 396.89 82.49 396.9 82.5 C 395.9 82.5 395.6 82.3 395.2 81.6 C 395.2 81.6 393.4 78.2 393.4 78.2 C 393.1 77.8 392.7 77.7 392.4 77.7 C 392.37 77.73 391.6 77.7 391.6 77.7 L 391.6 82.5 L 389.7 82.5 C 389.7 82.5 389.67 70.47 389.7 70.5 Z M 404.5 72.1 C 407.5 72.1 410 74.4 410 77.4 C 410 80.5 407.5 82.7 404.5 82.7 C 401.5 82.7 399.1 80.5 399.1 77.4 C 399.1 74.4 401.5 72.1 404.5 72.1 Z M 404.5 81.1 C 406.4 81.1 408 79.5 408 77.4 C 408 75.3 406.4 73.8 404.5 73.8 C 402.6 73.8 401.1 75.3 401.1 77.4 C 401.1 79.5 402.6 81.1 404.5 81.1 Z M 412.4 74.5 C 412.4 74.2 412.2 74 412 74 C 411.97 74.03 411.1 74 411.1 74 L 411.1 72.4 C 411.1 72.4 413.01 72.37 413 72.4 C 413.9 72.4 414.3 72.8 414.3 73.5 C 414.3 73.5 414.3 73.9 414.3 73.9 C 414.29 74.19 414.3 74.5 414.3 74.5 C 414.3 74.5 414.31 74.45 414.3 74.5 C 414.8 73.3 416.2 72.1 417.8 72.1 C 419.5 72.1 420.5 72.9 420.8 74.4 C 420.8 74.4 420.8 74.4 420.8 74.4 C 421.4 73.2 422.8 72.1 424.4 72.1 C 426.7 72.1 427.8 73.4 427.8 76 C 427.8 76 427.8 80.4 427.8 80.4 C 427.8 80.7 427.9 80.8 428.2 80.8 C 428.23 80.83 429 80.8 429 80.8 L 429 82.5 C 429 82.5 427.13 82.49 427.1 82.5 C 426.2 82.5 425.8 82.1 425.8 81.2 C 425.8 81.2 425.8 76.4 425.8 76.4 C 425.8 75 425.6 73.9 424.1 73.9 C 422.7 73.9 421.6 75.1 421.2 76.5 C 421.1 76.9 421.1 77.4 421.1 77.9 C 421.07 77.87 421.1 82.5 421.1 82.5 L 419.1 82.5 C 419.1 82.5 419.13 76.43 419.1 76.4 C 419.1 75.1 418.9 73.9 417.4 73.9 C 415.9 73.9 414.9 75.1 414.5 76.6 C 414.4 77 414.3 77.4 414.3 77.9 C 414.35 77.87 414.3 82.5 414.3 82.5 L 412.4 82.5 C 412.4 82.5 412.41 74.47 412.4 74.5 Z M 436.5 74.5 C 436.5 74.2 436.4 74 436.1 74 C 436.09 74.03 435.3 74 435.3 74 L 435.3 72.4 C 435.3 72.4 437.13 72.37 437.1 72.4 C 438 72.4 438.4 72.8 438.4 73.5 C 438.4 73.5 438.4 73.9 438.4 73.9 C 438.41 74.19 438.4 74.5 438.4 74.5 C 438.4 74.5 438.41 74.45 438.4 74.5 C 438.8 73.6 440 72.1 442.2 72.1 C 444.6 72.1 445.7 73.4 445.7 76 C 445.7 76 445.7 80.4 445.7 80.4 C 445.7 80.7 445.8 80.8 446.1 80.8 C 446.13 80.83 446.9 80.8 446.9 80.8 L 446.9 82.5 C 446.9 82.5 445.03 82.49 445 82.5 C 444.1 82.5 443.7 82.1 443.7 81.2 C 443.7 81.2 443.7 76.5 443.7 76.5 C 443.7 75 443.5 73.9 441.8 73.9 C 440.3 73.9 439 74.9 438.6 76.4 C 438.5 76.8 438.5 77.3 438.5 77.8 C 438.47 77.75 438.5 82.5 438.5 82.5 L 436.5 82.5 C 436.5 82.5 436.53 74.47 436.5 74.5 Z M 454.2 76.2 C 454.19 76.19 454.6 76.2 454.6 76.2 C 454.6 76.2 454.63 76.09 454.6 76.1 C 454.6 74.3 454 73.7 452.4 73.7 C 451.9 73.7 450.7 73.8 450.7 74.5 C 450.73 74.45 450.7 75 450.7 75 L 448.9 75 C 448.9 75 448.91 74.03 448.9 74 C 448.9 72.4 451.4 72.1 452.4 72.1 C 455.7 72.1 456.6 73.9 456.6 76.1 C 456.6 76.1 456.6 80.4 456.6 80.4 C 456.6 80.7 456.7 80.8 457 80.8 C 457.01 80.83 457.8 80.8 457.8 80.8 L 457.8 82.5 C 457.8 82.5 456.01 82.49 456 82.5 C 455.1 82.5 454.7 82.1 454.7 81.3 C 454.75 80.99 454.8 80.7 454.8 80.7 L 454.7 80.7 C 454.7 80.7 453.95 82.73 451.5 82.7 C 449.8 82.7 448.1 81.7 448.1 79.7 C 448.1 76.4 452.5 76.2 454.2 76.2 Z M 451.9 81.2 C 453.6 81.2 454.6 79.5 454.6 78 C 454.65 77.95 454.6 77.6 454.6 77.6 C 454.6 77.6 454.15 77.61 454.1 77.6 C 452.7 77.6 450 77.7 450 79.6 C 450 80.4 450.7 81.2 451.9 81.2 Z M 465.4 73.9 L 464.1 73.9 L 464.1 72.4 L 465.4 72.4 L 465.4 69.6 L 467.3 69.6 L 467.3 72.4 L 469.7 72.4 L 469.7 73.9 L 467.3 73.9 C 467.3 73.9 467.33 78.57 467.3 78.6 C 467.3 80.6 468.7 80.9 469.5 80.9 C 469.75 80.85 469.9 80.8 469.9 80.8 L 469.9 82.5 C 469.9 82.5 469.67 82.57 469.2 82.6 C 468 82.6 465.4 82.2 465.4 78.8 C 465.39 78.79 465.4 73.9 465.4 73.9 Z M 472.1 70.5 C 472.1 70.2 472 70 471.7 70 C 471.69 70.03 470.9 70 470.9 70 L 470.9 68.4 C 470.9 68.4 472.79 68.37 472.8 68.4 C 473.7 68.4 474.1 68.6 474.1 69.5 C 474.07 69.53 474.1 76.1 474.1 76.1 C 474.1 76.1 474.97 76.09 475 76.1 C 475.3 76.1 475.8 76 476 75.7 C 476.03 75.65 478.4 72.4 478.4 72.4 L 480.6 72.4 C 480.6 72.4 477.85 76.13 477.8 76.1 C 477.39 76.75 477.1 76.9 477.1 76.9 L 477.1 76.9 C 477.1 76.9 477.43 77.05 477.8 77.7 C 477.8 77.7 479.3 80.4 479.3 80.4 C 479.4 80.8 479.6 80.8 480.1 80.8 C 480.13 80.83 480.7 80.8 480.7 80.8 L 480.7 82.5 C 480.7 82.5 479.35 82.49 479.3 82.5 C 478.4 82.5 478.1 82.3 477.7 81.6 C 477.7 81.6 475.8 78.2 475.8 78.2 C 475.6 77.8 475.1 77.7 474.8 77.7 C 474.83 77.73 474.1 77.7 474.1 77.7 L 474.1 82.5 L 472.1 82.5 C 472.1 82.5 472.13 70.47 472.1 70.5 Z M 487.7 76.2 C 487.75 76.19 488.2 76.2 488.2 76.2 C 488.2 76.2 488.19 76.09 488.2 76.1 C 488.2 74.3 487.5 73.7 485.9 73.7 C 485.5 73.7 484.3 73.8 484.3 74.5 C 484.29 74.45 484.3 75 484.3 75 L 482.5 75 C 482.5 75 482.47 74.03 482.5 74 C 482.5 72.4 485 72.1 486 72.1 C 489.2 72.1 490.1 73.9 490.1 76.1 C 490.1 76.1 490.1 80.4 490.1 80.4 C 490.1 80.7 490.3 80.8 490.6 80.8 C 490.57 80.83 491.4 80.8 491.4 80.8 L 491.4 82.5 C 491.4 82.5 489.57 82.49 489.6 82.5 C 488.7 82.5 488.3 82.1 488.3 81.3 C 488.31 80.99 488.3 80.7 488.3 80.7 L 488.3 80.7 C 488.3 80.7 487.51 82.73 485.1 82.7 C 483.3 82.7 481.6 81.7 481.6 79.7 C 481.6 76.4 486 76.2 487.7 76.2 Z M 485.5 81.2 C 487.1 81.2 488.2 79.5 488.2 78 C 488.21 77.95 488.2 77.6 488.2 77.6 C 488.2 77.6 487.71 77.61 487.7 77.6 C 486.2 77.6 483.6 77.7 483.6 79.6 C 483.6 80.4 484.2 81.2 485.5 81.2 Z M 493.5 74.5 C 493.5 74.2 493.3 74 493 74 C 493.05 74.03 492.2 74 492.2 74 L 492.2 72.4 C 492.2 72.4 494.09 72.37 494.1 72.4 C 494.9 72.4 495.4 72.8 495.4 73.5 C 495.4 73.5 495.4 73.9 495.4 73.9 C 495.37 74.19 495.3 74.5 495.3 74.5 C 495.3 74.5 495.37 74.45 495.4 74.5 C 495.8 73.6 497 72.1 499.2 72.1 C 501.6 72.1 502.6 73.4 502.6 76 C 502.6 76 502.6 80.4 502.6 80.4 C 502.6 80.7 502.8 80.8 503.1 80.8 C 503.09 80.83 503.9 80.8 503.9 80.8 L 503.9 82.5 C 503.9 82.5 501.99 82.49 502 82.5 C 501.1 82.5 500.7 82.1 500.7 81.2 C 500.7 81.2 500.7 76.5 500.7 76.5 C 500.7 75 500.4 73.9 498.8 73.9 C 497.2 73.9 496 74.9 495.6 76.4 C 495.5 76.8 495.4 77.3 495.4 77.8 C 495.43 77.75 495.4 82.5 495.4 82.5 L 493.5 82.5 C 493.5 82.5 493.49 74.47 493.5 74.5 Z M 506.1 68.4 L 507.9 68.4 L 507.9 70.4 L 506.1 70.4 L 506.1 68.4 Z M 506.1 74.5 C 506.1 74.2 505.9 74 505.7 74 C 505.67 74.03 504.8 74 504.8 74 L 504.8 72.4 C 504.8 72.4 506.75 72.37 506.7 72.4 C 507.6 72.4 508 72.8 508 73.7 C 508 73.7 508 80.4 508 80.4 C 508 80.7 508.2 80.8 508.5 80.8 C 508.47 80.83 509.3 80.8 509.3 80.8 L 509.3 82.5 C 509.3 82.5 507.39 82.49 507.4 82.5 C 506.5 82.5 506.1 82.1 506.1 81.2 C 506.1 81.2 506.1 74.5 506.1 74.5 Z M 510.8 74.4 C 510.7 74.1 510.5 74 510.2 74 C 510.17 74.03 510 74 510 74 L 510 72.4 C 510 72.4 510.97 72.37 511 72.4 C 511.9 72.4 512.2 72.6 512.5 73.4 C 512.5 73.4 514.7 79.2 514.7 79.2 C 514.89 79.77 515 80.5 515 80.5 L 515.1 80.5 C 515.1 80.5 515.25 79.77 515.4 79.2 C 515.4 79.2 517.6 73.4 517.6 73.4 C 517.9 72.6 518.3 72.4 519.1 72.4 C 519.15 72.37 520.1 72.4 520.1 72.4 L 520.1 74 C 520.1 74 519.89 74.03 519.9 74 C 519.5 74 519.3 74.1 519.2 74.4 C 519.23 74.43 516.1 82.5 516.1 82.5 L 513.9 82.5 C 513.9 82.5 510.79 74.43 510.8 74.4 Z M 527.1 76.2 C 527.09 76.19 527.5 76.2 527.5 76.2 C 527.5 76.2 527.53 76.09 527.5 76.1 C 527.5 74.3 526.9 73.7 525.3 73.7 C 524.8 73.7 523.6 73.8 523.6 74.5 C 523.63 74.45 523.6 75 523.6 75 L 521.8 75 C 521.8 75 521.81 74.03 521.8 74 C 521.8 72.4 524.3 72.1 525.3 72.1 C 528.6 72.1 529.5 73.9 529.5 76.1 C 529.5 76.1 529.5 80.4 529.5 80.4 C 529.5 80.7 529.6 80.8 529.9 80.8 C 529.91 80.83 530.7 80.8 530.7 80.8 L 530.7 82.5 C 530.7 82.5 528.91 82.49 528.9 82.5 C 528 82.5 527.6 82.1 527.6 81.3 C 527.65 80.99 527.7 80.7 527.7 80.7 L 527.6 80.7 C 527.6 80.7 526.85 82.73 524.4 82.7 C 522.7 82.7 521 81.7 521 79.7 C 521 76.4 525.4 76.2 527.1 76.2 Z M 524.8 81.2 C 526.5 81.2 527.5 79.5 527.5 78 C 527.55 77.95 527.5 77.6 527.5 77.6 C 527.5 77.6 527.05 77.61 527 77.6 C 525.6 77.6 522.9 77.7 522.9 79.6 C 522.9 80.4 523.6 81.2 524.8 81.2 Z M 526.2 68.4 L 528.2 68.4 L 526.3 70.9 L 524.8 70.9 L 526.2 68.4 Z " stroke="none" fill="#ee3078"/>  </g>  <g id="Polygon67667">    <path d="M 280.7 54.1 L 290.3 54.1 L 290.3 55.7 L 280.7 55.7 L 280.7 54.1 Z M 280.7 57.9 L 290.3 57.9 L 290.3 59.5 L 280.7 59.5 L 280.7 57.9 Z " stroke="none" fill="#ee3078"/>  </g>  <g id="Polygon67666">    <path d="M 73.2 40.8 C 73.2 40.8 74.01 40.77 74 40.8 C 74.3 40.8 74.5 40.6 74.5 40.3 C 74.45 40.33 74.5 28.4 74.5 28.4 L 76.3 28.4 C 76.3 28.4 82.55 37.31 82.6 37.3 C 83.07 38.07 83.7 39.2 83.7 39.2 L 83.8 39.2 C 83.8 39.2 83.63 38.11 83.6 37.3 C 83.6 37.3 83.6 29.7 83.6 29.7 C 83.6 28.8 84 28.4 84.9 28.4 C 84.93 28.37 86.9 28.4 86.9 28.4 L 86.9 30.1 C 86.9 30.1 86.07 30.09 86.1 30.1 C 85.8 30.1 85.6 30.2 85.6 30.5 C 85.63 30.53 85.6 42.5 85.6 42.5 L 83.8 42.5 C 83.8 42.5 77.53 33.55 77.5 33.6 C 77.01 32.79 76.4 31.6 76.4 31.6 L 76.3 31.6 C 76.3 31.6 76.45 32.77 76.5 33.6 C 76.5 33.6 76.5 41.2 76.5 41.2 C 76.5 42.1 76.1 42.5 75.2 42.5 C 75.17 42.49 73.2 42.5 73.2 42.5 L 73.2 40.8 Z M 94.3 36.2 C 94.33 36.19 94.8 36.2 94.8 36.2 C 94.8 36.2 94.77 36.09 94.8 36.1 C 94.8 34.3 94.1 33.7 92.5 33.7 C 92.1 33.7 90.9 33.8 90.9 34.5 C 90.87 34.45 90.9 35 90.9 35 L 89.1 35 C 89.1 35 89.05 34.03 89.1 34 C 89.1 32.4 91.6 32.1 92.6 32.1 C 95.8 32.1 96.7 33.9 96.7 36.1 C 96.7 36.1 96.7 40.4 96.7 40.4 C 96.7 40.7 96.9 40.8 97.2 40.8 C 97.15 40.83 98 40.8 98 40.8 L 98 42.5 C 98 42.5 96.15 42.49 96.2 42.5 C 95.3 42.5 94.9 42.1 94.9 41.3 C 94.89 40.99 94.9 40.7 94.9 40.7 L 94.9 40.7 C 94.9 40.7 94.09 42.73 91.7 42.7 C 89.9 42.7 88.2 41.7 88.2 39.7 C 88.2 36.4 92.6 36.2 94.3 36.2 Z M 92.1 41.2 C 93.7 41.2 94.8 39.5 94.8 38 C 94.79 37.95 94.8 37.6 94.8 37.6 C 94.8 37.6 94.29 37.61 94.3 37.6 C 92.8 37.6 90.2 37.7 90.2 39.6 C 90.2 40.4 90.8 41.2 92.1 41.2 Z M 100.2 33.9 L 98.8 33.9 L 98.8 32.4 L 100.2 32.4 L 100.2 29.6 L 102.1 29.6 L 102.1 32.4 L 104.5 32.4 L 104.5 33.9 L 102.1 33.9 C 102.1 33.9 102.09 38.57 102.1 38.6 C 102.1 40.6 103.5 40.9 104.2 40.9 C 104.51 40.85 104.7 40.8 104.7 40.8 L 104.7 42.5 C 104.7 42.5 104.43 42.57 104 42.6 C 102.7 42.6 100.2 42.2 100.2 38.8 C 100.15 38.79 100.2 33.9 100.2 33.9 Z M 107.3 28.4 L 109 28.4 L 109 30.4 L 107.3 30.4 L 107.3 28.4 Z M 107.2 34.5 C 107.2 34.2 107.1 34 106.8 34 C 106.77 34.03 106 34 106 34 L 106 32.4 C 106 32.4 107.85 32.37 107.9 32.4 C 108.8 32.4 109.1 32.8 109.1 33.7 C 109.1 33.7 109.1 40.4 109.1 40.4 C 109.1 40.7 109.3 40.8 109.6 40.8 C 109.57 40.83 110.4 40.8 110.4 40.8 L 110.4 42.5 C 110.4 42.5 108.49 42.49 108.5 42.5 C 107.6 42.5 107.2 42.1 107.2 41.2 C 107.2 41.2 107.2 34.5 107.2 34.5 Z M 111.9 34.4 C 111.8 34.1 111.6 34 111.3 34 C 111.27 34.03 111.1 34 111.1 34 L 111.1 32.4 C 111.1 32.4 112.07 32.37 112.1 32.4 C 113 32.4 113.3 32.6 113.6 33.4 C 113.6 33.4 115.8 39.2 115.8 39.2 C 115.99 39.77 116.2 40.5 116.2 40.5 L 116.2 40.5 C 116.2 40.5 116.35 39.77 116.6 39.2 C 116.6 39.2 118.7 33.4 118.7 33.4 C 119 32.6 119.4 32.4 120.3 32.4 C 120.25 32.37 121.2 32.4 121.2 32.4 L 121.2 34 C 121.2 34 120.99 34.03 121 34 C 120.7 34 120.5 34.1 120.3 34.4 C 120.33 34.43 117.3 42.5 117.3 42.5 L 115 42.5 C 115 42.5 111.89 34.43 111.9 34.4 Z M 127.1 32.1 C 129.9 32.1 131.4 34.3 131.4 36.9 C 131.41 37.13 131.4 37.7 131.4 37.7 C 131.4 37.7 123.97 37.67 124 37.7 C 124.1 39.8 125.7 41.1 127.5 41.1 C 129.19 41.05 130.4 39.9 130.4 39.9 L 131.3 41.3 C 131.3 41.3 129.75 42.73 127.4 42.7 C 124.2 42.7 122 40.4 122 37.4 C 122 34.2 124.2 32.1 127.1 32.1 Z M 129.4 36.3 C 129.4 34.6 128.3 33.7 127 33.7 C 125.6 33.7 124.4 34.6 124.1 36.3 C 124.1 36.3 129.4 36.3 129.4 36.3 Z M 143.8 32.1 C 146.9 32.1 149.3 34.4 149.3 37.4 C 149.3 40.5 146.9 42.7 143.8 42.7 C 140.8 42.7 138.4 40.5 138.4 37.4 C 138.4 34.4 140.8 32.1 143.8 32.1 Z M 143.8 41.1 C 145.8 41.1 147.3 39.5 147.3 37.4 C 147.3 35.3 145.8 33.8 143.8 33.8 C 141.9 33.8 140.4 35.3 140.4 37.4 C 140.4 39.5 141.9 41.1 143.8 41.1 Z M 152.1 30.1 L 150.8 30.1 L 150.8 28.4 C 150.8 28.4 159.07 28.37 159.1 28.4 C 160 28.4 160.4 28.8 160.4 29.7 C 160.35 29.65 160.4 31.4 160.4 31.4 L 158.5 31.4 C 158.5 31.4 158.53 30.53 158.5 30.5 C 158.5 30.2 158.4 30.1 158.1 30.1 C 158.09 30.09 154.1 30.1 154.1 30.1 L 154.1 34.5 L 159 34.5 L 159 36.2 L 154.1 36.2 C 154.1 36.2 154.07 40.33 154.1 40.3 C 154.1 40.6 154.2 40.8 154.5 40.8 C 154.5 40.8 158.6 40.8 158.6 40.8 C 158.9 40.8 159.1 40.6 159.1 40.3 C 159.07 40.33 159.1 39.4 159.1 39.4 L 160.9 39.4 C 160.9 39.4 160.91 41.21 160.9 41.2 C 160.9 42.1 160.5 42.5 159.6 42.5 C 159.6 42.5 153.4 42.5 153.4 42.5 C 152.5 42.5 152.1 42.1 152.1 41.2 C 152.07 41.21 152.1 30.1 152.1 30.1 Z M 162.9 39.7 C 162.9 39.7 164.11 41.15 166 41.2 C 166.9 41.2 167.7 40.7 167.7 39.9 C 167.7 38 162.2 38.2 162.2 35 C 162.2 33 163.9 32.1 166 32.1 C 167.2 32.1 169.3 32.6 169.3 34.1 C 169.29 34.09 169.3 35.1 169.3 35.1 L 167.6 35.1 C 167.6 35.1 167.55 34.55 167.6 34.6 C 167.6 34 166.7 33.7 166 33.7 C 164.9 33.7 164.2 34.1 164.2 34.9 C 164.2 36.8 169.7 36.4 169.7 39.8 C 169.7 41.6 168.1 42.7 166 42.7 C 163.25 42.73 161.9 41 161.9 41 L 162.9 39.7 Z M 172.2 33.9 L 170.9 33.9 L 170.9 32.4 L 172.3 32.4 L 172.3 29.6 L 174.2 29.6 L 174.2 32.4 L 176.6 32.4 L 176.6 33.9 L 174.2 33.9 C 174.2 33.9 174.17 38.57 174.2 38.6 C 174.2 40.6 175.6 40.9 176.3 40.9 C 176.59 40.85 176.8 40.8 176.8 40.8 L 176.8 42.5 C 176.8 42.5 176.51 42.57 176.1 42.6 C 174.8 42.6 172.2 42.2 172.2 38.8 C 172.23 38.79 172.2 33.9 172.2 33.9 Z M 179.2 34.5 C 179.2 34.2 179 34 178.8 34 C 178.75 34.03 177.9 34 177.9 34 L 177.9 32.4 C 177.9 32.4 179.77 32.37 179.8 32.4 C 180.7 32.4 181.1 32.7 181.1 33.6 C 181.1 33.6 181.1 34.2 181.1 34.2 C 181.07 34.59 181 34.9 181 34.9 C 181 34.9 181.07 34.89 181.1 34.9 C 181.6 33.4 182.7 32.3 184.3 32.3 C 184.53 32.25 184.8 32.3 184.8 32.3 L 184.8 34.2 C 184.8 34.2 184.53 34.15 184.2 34.2 C 183 34.2 181.8 35 181.4 36.5 C 181.2 37.1 181.1 37.7 181.1 38.4 C 181.13 38.35 181.1 42.5 181.1 42.5 L 179.2 42.5 C 179.2 42.5 179.19 34.47 179.2 34.5 Z M 191 32.1 C 194 32.1 196.5 34.4 196.5 37.4 C 196.5 40.5 194 42.7 191 42.7 C 188 42.7 185.6 40.5 185.6 37.4 C 185.6 34.4 188 32.1 191 32.1 Z M 191 41.1 C 192.9 41.1 194.5 39.5 194.5 37.4 C 194.5 35.3 192.9 33.8 191 33.8 C 189.1 33.8 187.5 35.3 187.5 37.4 C 187.5 39.5 189.1 41.1 191 41.1 Z M 202.4 32.1 C 204.87 32.13 205.6 33.7 205.6 33.7 L 205.6 33.7 C 205.6 33.7 205.63 33.55 205.6 33.4 C 205.6 32.8 206 32.4 206.8 32.4 C 206.75 32.37 208.6 32.4 208.6 32.4 L 208.6 34 C 208.6 34 207.83 34.03 207.8 34 C 207.6 34 207.4 34.2 207.4 34.4 C 207.4 34.4 207.4 42.1 207.4 42.1 C 207.4 45.4 204.9 46.7 202.3 46.7 C 201.1 46.7 199.8 46.4 198.8 45.9 C 198.83 45.85 199.5 44.3 199.5 44.3 C 199.5 44.3 200.73 44.97 202.3 45 C 204 45 205.5 44.2 205.5 42.2 C 205.5 42.2 205.5 41.5 205.5 41.5 C 205.45 41.15 205.5 40.8 205.5 40.8 C 205.5 40.8 205.45 40.83 205.5 40.8 C 204.9 41.8 203.9 42.4 202.4 42.4 C 199.6 42.4 197.9 40.1 197.9 37.2 C 197.9 34.3 199.5 32.1 202.4 32.1 Z M 205.5 37.2 C 205.5 34.6 204.2 33.8 202.7 33.8 C 200.9 33.8 199.9 35.1 199.9 37.2 C 199.9 39.3 201 40.7 202.8 40.7 C 204.2 40.7 205.5 39.9 205.5 37.2 Z M 214.9 32.1 C 217.7 32.1 219.2 34.3 219.2 36.9 C 219.23 37.13 219.2 37.7 219.2 37.7 C 219.2 37.7 211.79 37.67 211.8 37.7 C 211.9 39.8 213.5 41.1 215.3 41.1 C 217.01 41.05 218.2 39.9 218.2 39.9 L 219.1 41.3 C 219.1 41.3 217.57 42.73 215.2 42.7 C 212 42.7 209.8 40.4 209.8 37.4 C 209.8 34.2 212 32.1 214.9 32.1 Z M 217.2 36.3 C 217.2 34.6 216.1 33.7 214.9 33.7 C 213.4 33.7 212.2 34.6 211.9 36.3 C 211.9 36.3 217.2 36.3 217.2 36.3 Z M 221.8 34.5 C 221.8 34.2 221.7 34 221.4 34 C 221.37 34.03 220.6 34 220.6 34 L 220.6 32.4 C 220.6 32.4 222.41 32.37 222.4 32.4 C 223.3 32.4 223.7 32.8 223.7 33.5 C 223.7 33.5 223.7 33.9 223.7 33.9 C 223.69 34.19 223.7 34.5 223.7 34.5 C 223.7 34.5 223.69 34.45 223.7 34.5 C 224.1 33.6 225.3 32.1 227.5 32.1 C 229.9 32.1 231 33.4 231 36 C 231 36 231 40.4 231 40.4 C 231 40.7 231.1 40.8 231.4 40.8 C 231.41 40.83 232.2 40.8 232.2 40.8 L 232.2 42.5 C 232.2 42.5 230.31 42.49 230.3 42.5 C 229.4 42.5 229 42.1 229 41.2 C 229 41.2 229 36.5 229 36.5 C 229 35 228.8 33.9 227.1 33.9 C 225.6 33.9 224.3 34.9 223.9 36.4 C 223.8 36.8 223.8 37.3 223.8 37.8 C 223.75 37.75 223.8 42.5 223.8 42.5 L 221.8 42.5 C 221.8 42.5 221.81 34.47 221.8 34.5 Z M 239.1 34.4 C 239 34.1 238.8 34 238.5 34 C 238.49 34.03 238.2 34 238.2 34 L 238.2 32.4 C 238.2 32.4 239.43 32.37 239.4 32.4 C 240.3 32.4 240.7 32.6 240.9 33.5 C 240.9 33.5 242.7 39.5 242.7 39.5 C 242.89 39.99 243 40.6 243 40.6 L 243 40.6 C 243 40.6 243.13 39.99 243.3 39.5 C 243.29 39.47 245.5 32.4 245.5 32.4 L 247.3 32.4 C 247.3 32.4 249.45 39.47 249.5 39.5 C 249.61 39.99 249.7 40.6 249.7 40.6 L 249.8 40.6 C 249.8 40.6 249.83 39.99 250 39.5 C 250 39.5 251.8 33.5 251.8 33.5 C 252 32.6 252.4 32.4 253.3 32.4 C 253.29 32.37 254.5 32.4 254.5 32.4 L 254.5 34 C 254.5 34 254.21 34.03 254.2 34 C 253.9 34 253.7 34.1 253.6 34.4 C 253.59 34.43 250.9 42.5 250.9 42.5 L 248.8 42.5 C 248.8 42.5 246.65 35.99 246.7 36 C 246.49 35.47 246.4 34.9 246.4 34.9 L 246.3 34.9 C 246.3 34.9 246.21 35.47 246.1 36 C 246.05 35.99 244 42.5 244 42.5 L 241.8 42.5 C 241.8 42.5 239.11 34.43 239.1 34.4 Z M 256.5 28.4 L 258.3 28.4 L 258.3 30.4 L 256.5 30.4 L 256.5 28.4 Z M 256.5 34.5 C 256.5 34.2 256.3 34 256.1 34 C 256.05 34.03 255.2 34 255.2 34 L 255.2 32.4 C 255.2 32.4 257.13 32.37 257.1 32.4 C 258 32.4 258.4 32.8 258.4 33.7 C 258.4 33.7 258.4 40.4 258.4 40.4 C 258.4 40.7 258.6 40.8 258.9 40.8 C 258.85 40.83 259.7 40.8 259.7 40.8 L 259.7 42.5 C 259.7 42.5 257.77 42.49 257.8 42.5 C 256.9 42.5 256.5 42.1 256.5 41.2 C 256.5 41.2 256.5 34.5 256.5 34.5 Z M 262 33.9 L 260.7 33.9 L 260.7 32.4 L 262 32.4 L 262 29.6 L 263.9 29.6 L 263.9 32.4 L 266.3 32.4 L 266.3 33.9 L 263.9 33.9 C 263.9 33.9 263.91 38.57 263.9 38.6 C 263.9 40.6 265.3 40.9 266.1 40.9 C 266.33 40.85 266.5 40.8 266.5 40.8 L 266.5 42.5 C 266.5 42.5 266.25 42.57 265.8 42.6 C 264.6 42.6 262 42.2 262 38.8 C 261.97 38.79 262 33.9 262 33.9 Z M 268.7 30.5 C 268.7 30.2 268.6 30 268.3 30 C 268.27 30.03 267.5 30 267.5 30 L 267.5 28.4 C 267.5 28.4 269.37 28.37 269.4 28.4 C 270.3 28.4 270.7 28.8 270.7 29.6 C 270.7 29.6 270.7 33.6 270.7 33.6 C 270.65 34.03 270.6 34.4 270.6 34.4 C 270.6 34.4 270.65 34.39 270.7 34.4 C 271.1 33.4 272.4 32.1 274.4 32.1 C 276.8 32.1 277.9 33.4 277.9 36 C 277.9 36 277.9 40.4 277.9 40.4 C 277.9 40.7 278 40.8 278.3 40.8 C 278.31 40.83 279.1 40.8 279.1 40.8 L 279.1 42.5 C 279.1 42.5 277.23 42.49 277.2 42.5 C 276.3 42.5 276 42.1 276 41.2 C 276 41.2 276 36.5 276 36.5 C 276 35 275.7 33.9 274 33.9 C 272.5 33.9 271.3 35 270.8 36.4 C 270.7 36.8 270.7 37.3 270.7 37.8 C 270.65 37.75 270.7 42.5 270.7 42.5 L 268.7 42.5 C 268.7 42.5 268.71 30.47 268.7 30.5 Z M 286.8 39.2 C 286.8 39.2 288.21 40.91 290.3 40.9 C 291.6 40.9 292.7 40.1 292.7 38.8 C 292.7 35.9 285.9 36.3 285.9 31.9 C 285.9 29.8 287.8 28.1 290.4 28.1 C 291.9 28.1 294.5 28.8 294.5 30.7 C 294.45 30.73 294.5 31.9 294.5 31.9 L 292.6 31.9 C 292.6 31.9 292.61 31.23 292.6 31.2 C 292.6 30.5 291.6 30 290.4 30 C 288.9 30 288 30.8 288 31.9 C 288 34.7 294.8 34.1 294.8 38.7 C 294.8 40.9 293.1 42.7 290.3 42.7 C 287.27 42.73 285.6 40.6 285.6 40.6 L 286.8 39.2 Z M 301.5 32.1 C 304.3 32.1 305.8 34.3 305.8 36.9 C 305.83 37.13 305.8 37.7 305.8 37.7 C 305.8 37.7 298.39 37.67 298.4 37.7 C 298.5 39.8 300.1 41.1 301.9 41.1 C 303.61 41.05 304.8 39.9 304.8 39.9 L 305.7 41.3 C 305.7 41.3 304.17 42.73 301.8 42.7 C 298.6 42.7 296.4 40.4 296.4 37.4 C 296.4 34.2 298.6 32.1 301.5 32.1 Z M 303.8 36.3 C 303.8 34.6 302.7 33.7 301.5 33.7 C 300 33.7 298.8 34.6 298.5 36.3 C 298.5 36.3 303.8 36.3 303.8 36.3 Z M 308.4 30.5 C 308.4 30.2 308.2 30 307.9 30 C 307.93 30.03 307.1 30 307.1 30 L 307.1 28.4 C 307.1 28.4 309.03 28.37 309 28.4 C 309.9 28.4 310.3 28.8 310.3 29.7 C 310.3 29.7 310.3 40.4 310.3 40.4 C 310.3 40.7 310.5 40.8 310.8 40.8 C 310.75 40.83 311.6 40.8 311.6 40.8 L 311.6 42.5 C 311.6 42.5 309.65 42.49 309.7 42.5 C 308.8 42.5 308.4 42.1 308.4 41.2 C 308.4 41.2 308.4 30.5 308.4 30.5 Z M 317.9 32.1 C 320.7 32.1 322.2 34.3 322.2 36.9 C 322.23 37.13 322.2 37.7 322.2 37.7 C 322.2 37.7 314.79 37.67 314.8 37.7 C 314.9 39.8 316.5 41.1 318.3 41.1 C 320.01 41.05 321.2 39.9 321.2 39.9 L 322.1 41.3 C 322.1 41.3 320.57 42.73 318.2 42.7 C 315 42.7 312.8 40.4 312.8 37.4 C 312.8 34.2 315 32.1 317.9 32.1 Z M 320.2 36.3 C 320.2 34.6 319.1 33.7 317.8 33.7 C 316.4 33.7 315.2 34.6 314.9 36.3 C 314.9 36.3 320.2 36.3 320.2 36.3 Z M 329.3 32.1 C 330.5 32.1 332.9 32.6 332.9 34.4 C 332.91 34.35 332.9 35.4 332.9 35.4 L 331.1 35.4 C 331.1 35.4 331.15 34.83 331.1 34.8 C 331.1 34.1 330 33.8 329.3 33.8 C 327.3 33.8 325.8 35.3 325.8 37.4 C 325.8 39.7 327.5 41 329.4 41 C 331.27 41.01 332.5 39.6 332.5 39.6 L 333.3 41 C 333.3 41 331.91 42.73 329.2 42.7 C 326 42.7 323.8 40.5 323.8 37.4 C 323.8 34.5 326 32.1 329.3 32.1 Z M 335.5 33.9 L 334.2 33.9 L 334.2 32.4 L 335.6 32.4 L 335.6 29.6 L 337.5 29.6 L 337.5 32.4 L 339.9 32.4 L 339.9 33.9 L 337.5 33.9 C 337.5 33.9 337.49 38.57 337.5 38.6 C 337.5 40.6 338.9 40.9 339.6 40.9 C 339.91 40.85 340.1 40.8 340.1 40.8 L 340.1 42.5 C 340.1 42.5 339.83 42.57 339.4 42.6 C 338.1 42.6 335.5 42.2 335.5 38.8 C 335.55 38.79 335.5 33.9 335.5 33.9 Z M 342.6 28.4 L 344.4 28.4 L 344.4 30.4 L 342.6 30.4 L 342.6 28.4 Z M 342.6 34.5 C 342.6 34.2 342.4 34 342.2 34 C 342.17 34.03 341.3 34 341.3 34 L 341.3 32.4 C 341.3 32.4 343.25 32.37 343.2 32.4 C 344.1 32.4 344.5 32.8 344.5 33.7 C 344.5 33.7 344.5 40.4 344.5 40.4 C 344.5 40.7 344.7 40.8 345 40.8 C 344.97 40.83 345.8 40.8 345.8 40.8 L 345.8 42.5 C 345.8 42.5 343.89 42.49 343.9 42.5 C 343 42.5 342.6 42.1 342.6 41.2 C 342.6 41.2 342.6 34.5 342.6 34.5 Z M 347.3 34.4 C 347.2 34.1 347 34 346.7 34 C 346.67 34.03 346.5 34 346.5 34 L 346.5 32.4 C 346.5 32.4 347.47 32.37 347.5 32.4 C 348.4 32.4 348.7 32.6 349 33.4 C 349 33.4 351.2 39.2 351.2 39.2 C 351.39 39.77 351.5 40.5 351.5 40.5 L 351.6 40.5 C 351.6 40.5 351.75 39.77 351.9 39.2 C 351.9 39.2 354.1 33.4 354.1 33.4 C 354.4 32.6 354.8 32.4 355.6 32.4 C 355.65 32.37 356.6 32.4 356.6 32.4 L 356.6 34 C 356.6 34 356.39 34.03 356.4 34 C 356 34 355.8 34.1 355.7 34.4 C 355.73 34.43 352.6 42.5 352.6 42.5 L 350.4 42.5 C 350.4 42.5 347.29 34.43 347.3 34.4 Z M 362.4 32.1 C 365.3 32.1 366.8 34.3 366.8 36.9 C 366.81 37.13 366.7 37.7 366.7 37.7 C 366.7 37.7 359.37 37.67 359.4 37.7 C 359.5 39.8 361 41.1 362.8 41.1 C 364.59 41.05 365.8 39.9 365.8 39.9 L 366.6 41.3 C 366.6 41.3 365.15 42.73 362.7 42.7 C 359.5 42.7 357.4 40.4 357.4 37.4 C 357.4 34.2 359.6 32.1 362.4 32.1 Z M 364.8 36.3 C 364.7 34.6 363.7 33.7 362.4 33.7 C 360.9 33.7 359.7 34.6 359.4 36.3 C 359.4 36.3 364.8 36.3 364.8 36.3 Z M 378 30.1 C 378 30.1 375.19 30.09 375.2 30.1 C 374.9 30.1 374.7 30.2 374.7 30.5 C 374.75 30.53 374.7 31.4 374.7 31.4 L 373 31.4 C 373 31.4 372.97 29.57 373 29.6 C 373 28.7 373.3 28.4 374.2 28.4 C 374.2 28.4 383.9 28.4 383.9 28.4 C 384.8 28.4 385.1 28.7 385.1 29.6 C 385.09 29.57 385.1 31.4 385.1 31.4 L 383.3 31.4 C 383.3 31.4 383.31 30.53 383.3 30.5 C 383.3 30.2 383.1 30.1 382.9 30.1 C 382.87 30.09 380 30.1 380 30.1 L 380 42.5 L 378 42.5 L 378 30.1 Z M 386.6 28.4 L 388.3 28.4 L 388.3 30.4 L 386.6 30.4 L 386.6 28.4 Z M 386.5 34.5 C 386.5 34.2 386.4 34 386.1 34 C 386.11 34.03 385.3 34 385.3 34 L 385.3 32.4 C 385.3 32.4 387.19 32.37 387.2 32.4 C 388.1 32.4 388.5 32.8 388.5 33.7 C 388.5 33.7 388.5 40.4 388.5 40.4 C 388.5 40.7 388.6 40.8 388.9 40.8 C 388.91 40.83 389.7 40.8 389.7 40.8 L 389.7 42.5 C 389.7 42.5 387.83 42.49 387.8 42.5 C 386.9 42.5 386.5 42.1 386.5 41.2 C 386.5 41.2 386.5 34.5 386.5 34.5 Z M 391.8 39.7 C 391.8 39.7 392.99 41.15 394.8 41.2 C 395.8 41.2 396.6 40.7 396.6 39.9 C 396.6 38 391.1 38.2 391.1 35 C 391.1 33 392.8 32.1 394.8 32.1 C 396.1 32.1 398.2 32.6 398.2 34.1 C 398.17 34.09 398.2 35.1 398.2 35.1 L 396.4 35.1 C 396.4 35.1 396.43 34.55 396.4 34.6 C 396.4 34 395.5 33.7 394.9 33.7 C 393.8 33.7 393 34.1 393 34.9 C 393 36.8 398.5 36.4 398.5 39.8 C 398.5 41.6 396.9 42.7 394.8 42.7 C 392.13 42.73 390.8 41 390.8 41 L 391.8 39.7 Z M 400.9 39.7 C 400.9 39.7 402.07 41.15 403.9 41.2 C 404.9 41.2 405.7 40.7 405.7 39.9 C 405.7 38 400.2 38.2 400.2 35 C 400.2 33 401.9 32.1 403.9 32.1 C 405.1 32.1 407.2 32.6 407.2 34.1 C 407.25 34.09 407.2 35.1 407.2 35.1 L 405.5 35.1 C 405.5 35.1 405.51 34.55 405.5 34.6 C 405.5 34 404.6 33.7 404 33.7 C 402.8 33.7 402.1 34.1 402.1 34.9 C 402.1 36.8 407.6 36.4 407.6 39.8 C 407.6 41.6 406 42.7 403.9 42.7 C 401.21 42.73 399.9 41 399.9 41 L 400.9 39.7 Z M 410.1 34.5 C 410.1 34.2 409.9 34 409.6 34 C 409.63 34.03 408.8 34 408.8 34 L 408.8 32.4 C 408.8 32.4 410.71 32.37 410.7 32.4 C 411.6 32.4 412 32.8 412 33.6 C 412 33.6 412 38.4 412 38.4 C 412 39.8 412.3 40.9 413.9 40.9 C 416 40.9 417.2 39.1 417.2 37.1 C 417.19 37.11 417.2 32.4 417.2 32.4 L 419.1 32.4 C 419.1 32.4 419.13 40.39 419.1 40.4 C 419.1 40.7 419.3 40.8 419.6 40.8 C 419.57 40.83 420.4 40.8 420.4 40.8 L 420.4 42.5 C 420.4 42.5 418.53 42.49 418.5 42.5 C 417.7 42.5 417.2 42.1 417.2 41.4 C 417.2 41.4 417.2 41 417.2 41 C 417.25 40.67 417.3 40.4 417.3 40.4 C 417.3 40.4 417.23 40.41 417.2 40.4 C 416.8 41.4 415.5 42.7 413.5 42.7 C 411.2 42.7 410.1 41.5 410.1 38.9 C 410.1 38.9 410.1 34.5 410.1 34.5 Z M 426.6 32.1 C 429.5 32.1 431 34.3 431 36.9 C 430.99 37.13 430.9 37.7 430.9 37.7 C 430.9 37.7 423.55 37.67 423.5 37.7 C 423.7 39.8 425.2 41.1 427 41.1 C 428.77 41.05 430 39.9 430 39.9 L 430.8 41.3 C 430.8 41.3 429.33 42.73 426.9 42.7 C 423.7 42.7 421.5 40.4 421.5 37.4 C 421.5 34.2 423.7 32.1 426.6 32.1 Z M 429 36.3 C 428.9 34.6 427.9 33.7 426.6 33.7 C 425.1 33.7 423.9 34.6 423.6 36.3 C 423.6 36.3 429 36.3 429 36.3 Z M 437.5 40.8 C 437.5 40.8 437.77 40.77 437.8 40.8 C 438.1 40.8 438.3 40.7 438.4 40.3 C 438.43 40.33 442.8 28.4 442.8 28.4 L 444.9 28.4 C 444.9 28.4 449.37 40.33 449.4 40.3 C 449.5 40.7 449.7 40.8 450 40.8 C 450.03 40.77 450.3 40.8 450.3 40.8 L 450.3 42.5 C 450.3 42.5 449.21 42.49 449.2 42.5 C 448.2 42.5 447.9 42.3 447.6 41.3 C 447.57 41.33 446.5 38.4 446.5 38.4 L 441.3 38.4 C 441.3 38.4 440.25 41.33 440.2 41.3 C 439.9 42.3 439.6 42.5 438.6 42.5 C 438.59 42.49 437.5 42.5 437.5 42.5 L 437.5 40.8 Z M 446 36.8 C 446 36.8 444.47 32.45 444.5 32.5 C 444.21 31.71 443.9 30.5 443.9 30.5 L 443.9 30.5 C 443.9 30.5 443.59 31.71 443.3 32.5 C 443.33 32.45 441.8 36.8 441.8 36.8 L 446 36.8 Z M 456.7 32.1 C 457.9 32.1 460.3 32.6 460.3 34.4 C 460.35 34.35 460.3 35.4 460.3 35.4 L 458.6 35.4 C 458.6 35.4 458.59 34.83 458.6 34.8 C 458.6 34.1 457.4 33.8 456.7 33.8 C 454.7 33.8 453.2 35.3 453.2 37.4 C 453.2 39.7 454.9 41 456.8 41 C 458.71 41.01 459.9 39.6 459.9 39.6 L 460.8 41 C 460.8 41 459.35 42.73 456.7 42.7 C 453.5 42.7 451.3 40.5 451.3 37.4 C 451.3 34.5 453.4 32.1 456.7 32.1 Z M 463 33.9 L 461.7 33.9 L 461.7 32.4 L 463 32.4 L 463 29.6 L 464.9 29.6 L 464.9 32.4 L 467.3 32.4 L 467.3 33.9 L 464.9 33.9 C 464.9 33.9 464.93 38.57 464.9 38.6 C 464.9 40.6 466.3 40.9 467.1 40.9 C 467.35 40.85 467.5 40.8 467.5 40.8 L 467.5 42.5 C 467.5 42.5 467.27 42.57 466.8 42.6 C 465.6 42.6 463 42.2 463 38.8 C 462.99 38.79 463 33.9 463 33.9 Z M 470.1 28.4 L 471.8 28.4 L 471.8 30.4 L 470.1 30.4 L 470.1 28.4 Z M 470 34.5 C 470 34.2 469.9 34 469.6 34 C 469.61 34.03 468.8 34 468.8 34 L 468.8 32.4 C 468.8 32.4 470.69 32.37 470.7 32.4 C 471.6 32.4 472 32.8 472 33.7 C 472 33.7 472 40.4 472 40.4 C 472 40.7 472.1 40.8 472.4 40.8 C 472.41 40.83 473.2 40.8 473.2 40.8 L 473.2 42.5 C 473.2 42.5 471.33 42.49 471.3 42.5 C 470.4 42.5 470 42.1 470 41.2 C 470 41.2 470 34.5 470 34.5 Z M 479.9 32.1 C 482.9 32.1 485.4 34.4 485.4 37.4 C 485.4 40.5 482.9 42.7 479.9 42.7 C 476.9 42.7 474.5 40.5 474.5 37.4 C 474.5 34.4 476.9 32.1 479.9 32.1 Z M 479.9 41.1 C 481.8 41.1 483.4 39.5 483.4 37.4 C 483.4 35.3 481.8 33.8 479.9 33.8 C 478 33.8 476.4 35.3 476.4 37.4 C 476.4 39.5 478 41.1 479.9 41.1 Z M 487.8 34.5 C 487.8 34.2 487.6 34 487.3 34 C 487.35 34.03 486.5 34 486.5 34 L 486.5 32.4 C 486.5 32.4 488.39 32.37 488.4 32.4 C 489.2 32.4 489.7 32.8 489.7 33.5 C 489.7 33.5 489.7 33.9 489.7 33.9 C 489.67 34.19 489.6 34.5 489.6 34.5 C 489.6 34.5 489.67 34.45 489.7 34.5 C 490.1 33.6 491.3 32.1 493.5 32.1 C 495.9 32.1 496.9 33.4 496.9 36 C 496.9 36 496.9 40.4 496.9 40.4 C 496.9 40.7 497.1 40.8 497.4 40.8 C 497.39 40.83 498.2 40.8 498.2 40.8 L 498.2 42.5 C 498.2 42.5 496.29 42.49 496.3 42.5 C 495.4 42.5 495 42.1 495 41.2 C 495 41.2 495 36.5 495 36.5 C 495 35 494.7 33.9 493.1 33.9 C 491.5 33.9 490.3 34.9 489.9 36.4 C 489.8 36.8 489.7 37.3 489.7 37.8 C 489.73 37.75 489.7 42.5 489.7 42.5 L 487.8 42.5 C 487.8 42.5 487.79 34.47 487.8 34.5 Z " stroke="none" fill="#ee3078"/>  </g></svg>