<?xml version="1.0" standalone="no"?><!DOCTYPE svg PUBLIC "-//W3C//DTD SVG 1.1//EN" "http://www.w3.org/Graphics/SVG/1.1/DTD/svg11.dtd"><svg xmlns="http://www.w3.org/2000/svg" version="1.1" width="113.4px" height="84px" viewBox="0 -1 113.4 84" style="top:-1px">  <desc>Bio</desc>  <defs/>  <g id="Polygon74064">    <path d="M 45.9 35.3 L 44.8 35.3 L 44.8 33.5 C 44.8 33.5 49.73 33.47 49.7 33.5 C 51.8 33.5 53.2 34.5 53.2 36.4 C 53.2 37.7 52.6 38.5 51.9 38.8 C 51.9 38.8 51.9 38.9 51.9 38.9 C 53.1 39.2 53.7 40.4 53.7 41.5 C 53.7 43.8 51.9 44.8 49.8 44.8 C 49.8 44.8 46.9 44.8 46.9 44.8 C 46.2 44.8 45.9 44.5 45.9 43.7 C 45.85 43.75 45.9 35.3 45.9 35.3 Z M 49.7 38.1 C 50.6 38.1 51.1 37.5 51.1 36.7 C 51.1 35.8 50.6 35.3 49.7 35.3 C 49.71 35.25 47.9 35.3 47.9 35.3 L 47.9 38.1 C 47.9 38.1 49.74 38.11 49.7 38.1 Z M 48.3 43.1 C 48.3 43.1 49.9 43.1 49.9 43.1 C 51 43.1 51.5 42.4 51.5 41.4 C 51.5 40.5 50.9 39.8 49.9 39.8 C 49.93 39.78 47.9 39.8 47.9 39.8 C 47.9 39.8 47.95 42.71 47.9 42.7 C 47.9 42.9 48.1 43.1 48.3 43.1 Z M 55.8 33.5 L 57.6 33.5 L 57.6 35.3 L 55.8 35.3 L 55.8 33.5 Z M 55.7 38.8 C 55.7 38.5 55.6 38.4 55.4 38.4 C 55.39 38.4 54.7 38.4 54.7 38.4 L 54.7 36.7 C 54.7 36.7 56.69 36.67 56.7 36.7 C 57.4 36.7 57.8 37 57.8 37.8 C 57.8 37.8 57.8 42.8 57.8 42.8 C 57.8 43 57.9 43.1 58.1 43.1 C 58.11 43.12 58.7 43.1 58.7 43.1 L 58.7 44.8 C 58.7 44.8 56.81 44.83 56.8 44.8 C 56.1 44.8 55.7 44.5 55.7 43.7 C 55.7 43.7 55.7 38.8 55.7 38.8 Z M 64.1 36.5 C 66.6 36.5 68.6 38.3 68.6 40.8 C 68.6 43.3 66.6 45 64.1 45 C 61.6 45 59.6 43.3 59.6 40.8 C 59.6 38.3 61.6 36.5 64.1 36.5 Z M 64.1 43.3 C 65.4 43.3 66.5 42.3 66.5 40.8 C 66.5 39.3 65.4 38.2 64.1 38.2 C 62.8 38.2 61.7 39.3 61.7 40.8 C 61.7 42.3 62.8 43.3 64.1 43.3 Z " stroke="none" fill="#ee3078"/>  </g></svg>