<?xml version="1.0" standalone="no"?><!DOCTYPE svg PUBLIC "-//W3C//DTD SVG 1.1//EN" "http://www.w3.org/Graphics/SVG/1.1/DTD/svg11.dtd"><svg xmlns="http://www.w3.org/2000/svg" version="1.1" width="150.2px" height="30.5px" viewBox="0 -3 150.2 30.5" style="top:-3px">  <desc>E1 estr n</desc>  <defs/>  <g id="Polygon70442">    <path d="M 45.5 2.1 L 44.6 2.1 L 44.6 0.6 C 44.6 0.6 50.59 0.56 50.6 0.6 C 51.2 0.6 51.5 0.9 51.5 1.5 C 51.54 1.51 51.5 3 51.5 3 L 49.9 3 C 49.9 3 49.88 2.42 49.9 2.4 C 49.9 2.2 49.8 2.1 49.6 2.1 C 49.57 2.11 47.3 2.1 47.3 2.1 L 47.3 4.7 L 50.5 4.7 L 50.5 6.3 L 47.3 6.3 C 47.3 6.3 47.33 8.64 47.3 8.6 C 47.3 8.8 47.4 8.9 47.6 8.9 C 47.6 8.9 49.9 8.9 49.9 8.9 C 50.1 8.9 50.2 8.8 50.2 8.6 C 50.24 8.64 50.2 8 50.2 8 L 51.9 8 C 51.9 8 51.91 9.55 51.9 9.5 C 51.9 10.2 51.6 10.5 51 10.5 C 51 10.5 46.4 10.5 46.4 10.5 C 45.8 10.5 45.5 10.2 45.5 9.5 C 45.5 9.55 45.5 2.1 45.5 2.1 Z M 53.1 8.9 L 55.2 8.9 C 55.2 8.9 55.24 3.43 55.2 3.4 C 55.24 3.09 55.3 2.8 55.3 2.8 L 55.2 2.8 C 55.2 2.8 55.11 3 54.8 3.3 C 54.79 3.32 54 4.1 54 4.1 L 52.9 3 L 55.4 0.6 L 57.1 0.6 L 57.1 8.9 L 59.2 8.9 L 59.2 10.5 L 53.1 10.5 L 53.1 8.9 Z M 67.4 3.2 C 69.5 3.2 70.6 4.7 70.6 6.6 C 70.61 6.79 70.6 7.2 70.6 7.2 C 70.6 7.2 65.64 7.24 65.6 7.2 C 65.8 8.5 66.7 9.2 67.8 9.2 C 68.93 9.16 69.8 8.4 69.8 8.4 L 70.5 9.6 C 70.5 9.6 69.43 10.67 67.7 10.7 C 65.3 10.7 63.8 9 63.8 6.9 C 63.8 4.7 65.3 3.2 67.4 3.2 Z M 68.8 6 C 68.8 5.2 68.2 4.6 67.4 4.6 C 66.5 4.6 65.9 5.1 65.7 6 C 65.7 6 68.8 6 68.8 6 Z M 72.4 8.2 C 72.4 8.2 73.27 9.28 74.5 9.3 C 75 9.3 75.5 9.1 75.5 8.6 C 75.5 7.6 71.7 7.6 71.7 5.3 C 71.7 3.9 73 3.2 74.5 3.2 C 75.4 3.2 77 3.5 77 4.7 C 76.97 4.68 77 5.4 77 5.4 L 75.4 5.4 C 75.4 5.4 75.4 5.07 75.4 5.1 C 75.4 4.7 74.9 4.6 74.5 4.6 C 73.9 4.6 73.4 4.8 73.4 5.2 C 73.4 6.3 77.2 6.1 77.2 8.5 C 77.2 9.8 76 10.7 74.5 10.7 C 72.53 10.67 71.5 9.4 71.5 9.4 L 72.4 8.2 Z M 78.9 4.8 L 78 4.8 L 78 3.4 L 79 3.4 L 79 1.4 L 80.7 1.4 L 80.7 3.4 L 82.3 3.4 L 82.3 4.8 L 80.7 4.8 C 80.7 4.8 80.69 7.66 80.7 7.7 C 80.7 8.8 81.6 9 82.1 9 C 82.3 9 82.4 9 82.4 9 L 82.4 10.5 C 82.4 10.5 82.2 10.57 81.9 10.6 C 80.9 10.6 78.9 10.3 78.9 7.9 C 78.91 7.88 78.9 4.8 78.9 4.8 Z M 84.1 5.2 C 84.1 5 84 4.9 83.8 4.9 C 83.76 4.87 83.2 4.9 83.2 4.9 L 83.2 3.4 C 83.2 3.4 84.82 3.36 84.8 3.4 C 85.4 3.4 85.8 3.6 85.8 4.2 C 85.8 4.2 85.8 4.6 85.8 4.6 C 85.77 4.91 85.7 5.1 85.7 5.1 C 85.7 5.1 85.77 5.1 85.8 5.1 C 86.1 4.1 86.9 3.3 88 3.3 C 88.19 3.26 88.4 3.3 88.4 3.3 L 88.4 5 C 88.4 5 88.18 5.01 87.9 5 C 87.2 5 86.3 5.4 86 6.5 C 85.9 6.9 85.8 7.3 85.8 7.7 C 85.83 7.67 85.8 10.5 85.8 10.5 L 84.1 10.5 C 84.1 10.5 84.06 5.18 84.1 5.2 Z M 92.8 3.2 C 94.9 3.2 96.7 4.7 96.7 6.9 C 96.7 9.1 94.9 10.7 92.8 10.7 C 90.6 10.7 88.9 9.1 88.9 6.9 C 88.9 4.7 90.6 3.2 92.8 3.2 Z M 92.8 9.2 C 93.9 9.2 94.9 8.3 94.9 6.9 C 94.9 5.6 93.9 4.7 92.8 4.7 C 91.6 4.7 90.6 5.6 90.6 6.9 C 90.6 8.3 91.6 9.2 92.8 9.2 Z M 93.2 0.6 L 94.9 0.6 L 93.4 2.5 L 92.1 2.5 L 93.2 0.6 Z M 98.3 5.2 C 98.3 5 98.2 4.9 98 4.9 C 97.98 4.87 97.4 4.9 97.4 4.9 L 97.4 3.4 C 97.4 3.4 99.06 3.36 99.1 3.4 C 99.7 3.4 100 3.7 100 4.2 C 100 4.2 100 4.4 100 4.4 C 100 4.5 100 4.7 100 4.7 C 100 4.7 100 4.7 100 4.7 C 100.3 4.1 101.1 3.2 102.5 3.2 C 104.1 3.2 105 4 105 5.9 C 105 5.9 105 8.7 105 8.7 C 105 8.9 105.1 9 105.3 9 C 105.31 9 105.9 9 105.9 9 L 105.9 10.5 C 105.9 10.5 104.18 10.5 104.2 10.5 C 103.5 10.5 103.2 10.2 103.2 9.5 C 103.2 9.5 103.2 6.3 103.2 6.3 C 103.2 5.4 103 4.8 102.1 4.8 C 101.2 4.8 100.4 5.4 100.2 6.3 C 100.1 6.6 100.1 6.9 100.1 7.2 C 100.05 7.22 100.1 10.5 100.1 10.5 L 98.3 10.5 C 98.3 10.5 98.29 5.18 98.3 5.2 Z " stroke="none" fill="#5f0f50"/>  </g></svg>