<?xml version="1.0" standalone="no"?><!DOCTYPE svg PUBLIC "-//W3C//DTD SVG 1.1//EN" "http://www.w3.org/Graphics/SVG/1.1/DTD/svg11.dtd"><svg xmlns="http://www.w3.org/2000/svg" version="1.1" width="158.4px" height="84px" viewBox="0 -1 158.4 84" style="top:-1px">  <desc>Spokojnos a zn anlivos</desc>  <defs/>  <g id="Polygon73903">    <path d="M 29.9 49.3 C 29.91 49.31 30.2 49.3 30.2 49.3 C 30.2 49.3 30.16 49.25 30.2 49.3 C 30.2 48.1 29.7 47.7 28.7 47.7 C 28.3 47.7 27.6 47.7 27.6 48.2 C 27.57 48.19 27.6 48.6 27.6 48.6 L 25.7 48.6 C 25.7 48.6 25.68 47.76 25.7 47.8 C 25.7 46.2 27.8 46.1 28.7 46.1 C 31.4 46.1 32.2 47.5 32.2 49.3 C 32.2 49.3 32.2 52.4 32.2 52.4 C 32.2 52.6 32.3 52.7 32.5 52.7 C 32.55 52.72 33.2 52.7 33.2 52.7 L 33.2 54.4 C 33.2 54.4 31.36 54.43 31.4 54.4 C 30.6 54.4 30.3 54 30.3 53.5 C 30.32 53.33 30.3 53.2 30.3 53.2 L 30.3 53.2 C 30.3 53.2 29.68 54.63 27.8 54.6 C 26.4 54.6 25.1 53.7 25.1 52.1 C 25.1 49.5 28.6 49.3 29.9 49.3 Z M 28.3 53 C 29.4 53 30.2 51.9 30.2 50.9 C 30.2 50.9 30.2 50.7 30.2 50.7 C 30.2 50.7 29.84 50.71 29.8 50.7 C 28.8 50.7 27.1 50.9 27.1 52 C 27.1 52.5 27.5 53 28.3 53 Z M 38.2 53.3 C 38.2 53.3 41.92 48.75 41.9 48.8 C 42.29 48.29 42.6 48 42.6 48 L 42.6 48 C 42.6 48 42.37 48 41.9 48 C 41.9 48 40.4 48 40.4 48 C 40.2 48 40 48.1 40 48.4 C 40.04 48.35 40 48.8 40 48.8 L 38.2 48.8 C 38.2 48.8 38.2 47.36 38.2 47.4 C 38.2 46.6 38.5 46.3 39.3 46.3 C 39.28 46.27 45.3 46.3 45.3 46.3 L 45.3 47.4 C 45.3 47.4 41.51 51.97 41.5 52 C 41.14 52.42 40.8 52.7 40.8 52.7 L 40.8 52.8 C 40.8 52.8 41.06 52.71 41.6 52.7 C 41.6 52.7 43.4 52.7 43.4 52.7 C 43.6 52.7 43.7 52.6 43.7 52.4 C 43.73 52.35 43.7 51.9 43.7 51.9 L 45.6 51.9 C 45.6 51.9 45.57 53.35 45.6 53.3 C 45.6 54.1 45.3 54.4 44.5 54.4 C 44.5 54.43 38.2 54.4 38.2 54.4 L 38.2 53.3 Z M 47.2 48.4 C 47.2 48.1 47.1 48 46.9 48 C 46.88 48 46.2 48 46.2 48 L 46.2 46.3 C 46.2 46.3 48.12 46.27 48.1 46.3 C 48.8 46.3 49.2 46.6 49.2 47.2 C 49.2 47.2 49.2 47.4 49.2 47.4 C 49.19 47.6 49.2 47.8 49.2 47.8 C 49.2 47.8 49.19 47.78 49.2 47.8 C 49.5 47.1 50.4 46.1 52.1 46.1 C 53.9 46.1 54.9 47 54.9 49.2 C 54.9 49.2 54.9 52.4 54.9 52.4 C 54.9 52.6 55 52.7 55.3 52.7 C 55.27 52.72 55.9 52.7 55.9 52.7 L 55.9 54.4 C 55.9 54.4 53.97 54.43 54 54.4 C 53.2 54.4 52.9 54.1 52.9 53.3 C 52.9 53.3 52.9 49.6 52.9 49.6 C 52.9 48.6 52.6 47.9 51.6 47.9 C 50.5 47.9 49.7 48.6 49.4 49.6 C 49.3 49.9 49.3 50.3 49.3 50.7 C 49.25 50.69 49.3 54.4 49.3 54.4 L 47.2 54.4 C 47.2 54.4 47.24 48.35 47.2 48.4 Z M 61.6 49.3 C 61.57 49.31 61.8 49.3 61.8 49.3 C 61.8 49.3 61.83 49.25 61.8 49.3 C 61.8 48.1 61.4 47.7 60.3 47.7 C 60 47.7 59.2 47.7 59.2 48.2 C 59.24 48.19 59.2 48.6 59.2 48.6 L 57.3 48.6 C 57.3 48.6 57.35 47.76 57.3 47.8 C 57.3 46.2 59.5 46.1 60.3 46.1 C 63.1 46.1 63.9 47.5 63.9 49.3 C 63.9 49.3 63.9 52.4 63.9 52.4 C 63.9 52.6 64 52.7 64.2 52.7 C 64.21 52.72 64.9 52.7 64.9 52.7 L 64.9 54.4 C 64.9 54.4 63.03 54.43 63 54.4 C 62.3 54.4 62 54 62 53.5 C 61.99 53.33 62 53.2 62 53.2 L 62 53.2 C 62 53.2 61.35 54.63 59.5 54.6 C 58.1 54.6 56.7 53.7 56.7 52.1 C 56.7 49.5 60.2 49.3 61.6 49.3 Z M 60 53 C 61.1 53 61.9 51.9 61.9 50.9 C 61.86 50.9 61.9 50.7 61.9 50.7 C 61.9 50.7 61.51 50.71 61.5 50.7 C 60.5 50.7 58.8 50.9 58.8 52 C 58.8 52.5 59.2 53 60 53 Z M 61 43.1 L 62.9 43.1 L 61.2 45.3 L 59.7 45.3 L 61 43.1 Z M 66.5 51.8 C 66.5 51.8 67.56 53.04 68.9 53 C 69.6 53 70.1 52.8 70.1 52.2 C 70.1 51.1 65.7 51.1 65.7 48.5 C 65.7 46.8 67.2 46.1 68.9 46.1 C 70 46.1 71.8 46.5 71.8 47.8 C 71.78 47.78 71.8 48.6 71.8 48.6 L 70 48.6 C 70 48.6 69.99 48.23 70 48.2 C 70 47.8 69.4 47.7 69 47.7 C 68.2 47.7 67.7 47.9 67.7 48.4 C 67.7 49.7 72.1 49.4 72.1 52.1 C 72.1 53.7 70.7 54.6 68.9 54.6 C 66.71 54.63 65.6 53.2 65.6 53.2 L 66.5 51.8 Z M 66.5 43.1 L 68 43.1 L 68.8 44.4 L 68.9 44.4 L 69.7 43.1 L 71.2 43.1 L 69.7 45.3 L 68 45.3 L 66.5 43.1 Z M 78 49.3 C 78.02 49.31 78.3 49.3 78.3 49.3 C 78.3 49.3 78.28 49.25 78.3 49.3 C 78.3 48.1 77.8 47.7 76.8 47.7 C 76.4 47.7 75.7 47.7 75.7 48.2 C 75.68 48.19 75.7 48.6 75.7 48.6 L 73.8 48.6 C 73.8 48.6 73.8 47.76 73.8 47.8 C 73.8 46.2 75.9 46.1 76.8 46.1 C 79.5 46.1 80.3 47.5 80.3 49.3 C 80.3 49.3 80.3 52.4 80.3 52.4 C 80.3 52.6 80.4 52.7 80.7 52.7 C 80.66 52.72 81.3 52.7 81.3 52.7 L 81.3 54.4 C 81.3 54.4 79.48 54.43 79.5 54.4 C 78.7 54.4 78.4 54 78.4 53.5 C 78.44 53.33 78.5 53.2 78.5 53.2 L 78.4 53.2 C 78.4 53.2 77.8 54.63 76 54.6 C 74.5 54.6 73.2 53.7 73.2 52.1 C 73.2 49.5 76.7 49.3 78 49.3 Z M 76.5 53 C 77.5 53 78.3 51.9 78.3 50.9 C 78.31 50.9 78.3 50.7 78.3 50.7 C 78.3 50.7 77.96 50.71 78 50.7 C 76.9 50.7 75.2 50.9 75.2 52 C 75.2 52.5 75.6 53 76.5 53 Z M 82.9 48.4 C 82.9 48.1 82.8 48 82.6 48 C 82.58 48 81.9 48 81.9 48 L 81.9 46.3 C 81.9 46.3 83.81 46.27 83.8 46.3 C 84.5 46.3 84.9 46.6 84.9 47.2 C 84.9 47.2 84.9 47.4 84.9 47.4 C 84.88 47.6 84.9 47.8 84.9 47.8 C 84.9 47.8 84.88 47.78 84.9 47.8 C 85.2 47.1 86.1 46.1 87.8 46.1 C 89.6 46.1 90.6 47 90.6 49.2 C 90.6 49.2 90.6 52.4 90.6 52.4 C 90.6 52.6 90.7 52.7 91 52.7 C 90.96 52.72 91.6 52.7 91.6 52.7 L 91.6 54.4 C 91.6 54.4 89.67 54.43 89.7 54.4 C 88.9 54.4 88.6 54.1 88.6 53.3 C 88.6 53.3 88.6 49.6 88.6 49.6 C 88.6 48.6 88.3 47.9 87.3 47.9 C 86.2 47.9 85.4 48.6 85.1 49.6 C 85 49.9 84.9 50.3 84.9 50.7 C 84.95 50.69 84.9 54.4 84.9 54.4 L 82.9 54.4 C 82.9 54.4 82.93 48.35 82.9 48.4 Z M 93.2 45.2 C 93.2 44.9 93 44.8 92.8 44.8 C 92.82 44.8 92.2 44.8 92.2 44.8 L 92.2 43.1 C 92.2 43.1 94.12 43.07 94.1 43.1 C 94.9 43.1 95.2 43.4 95.2 44.2 C 95.2 44.2 95.2 52.4 95.2 52.4 C 95.2 52.6 95.3 52.7 95.6 52.7 C 95.56 52.72 96.2 52.7 96.2 52.7 L 96.2 54.4 C 96.2 54.4 94.26 54.43 94.3 54.4 C 93.5 54.4 93.2 54.1 93.2 53.3 C 93.2 53.3 93.2 45.2 93.2 45.2 Z M 98 43.1 L 99.8 43.1 L 99.8 44.9 L 98 44.9 L 98 43.1 Z M 97.9 48.4 C 97.9 48.1 97.8 48 97.6 48 C 97.59 48 96.9 48 96.9 48 L 96.9 46.3 C 96.9 46.3 98.88 46.27 98.9 46.3 C 99.6 46.3 100 46.6 100 47.4 C 100 47.4 100 52.4 100 52.4 C 100 52.6 100.1 52.7 100.3 52.7 C 100.31 52.72 100.9 52.7 100.9 52.7 L 100.9 54.4 C 100.9 54.4 99.01 54.43 99 54.4 C 98.3 54.4 97.9 54.1 97.9 53.3 C 97.9 53.3 97.9 48.4 97.9 48.4 Z M 102.1 48.3 C 102 48.1 101.8 48 101.6 48 C 101.62 48 101.4 48 101.4 48 L 101.4 46.3 C 101.4 46.3 102.61 46.27 102.6 46.3 C 103.3 46.3 103.6 46.5 103.8 47 C 103.8 47 105.3 51.3 105.3 51.3 C 105.52 51.81 105.7 52.5 105.7 52.5 L 105.7 52.5 C 105.7 52.5 105.81 51.81 106 51.3 C 106 51.3 107.5 47 107.5 47 C 107.7 46.5 108.1 46.3 108.7 46.3 C 108.71 46.27 109.8 46.3 109.8 46.3 L 109.8 48 C 109.8 48 109.6 48 109.6 48 C 109.4 48 109.2 48.1 109.2 48.3 C 109.16 48.29 106.8 54.4 106.8 54.4 L 104.4 54.4 C 104.4 54.4 102.07 48.29 102.1 48.3 Z M 114.8 46.1 C 117.3 46.1 119.3 47.9 119.3 50.4 C 119.3 52.9 117.3 54.6 114.8 54.6 C 112.3 54.6 110.3 52.9 110.3 50.4 C 110.3 47.9 112.3 46.1 114.8 46.1 Z M 114.8 52.9 C 116.1 52.9 117.2 51.9 117.2 50.4 C 117.2 48.9 116.1 47.8 114.8 47.8 C 113.5 47.8 112.4 48.9 112.4 50.4 C 112.4 51.9 113.5 52.9 114.8 52.9 Z M 121.1 51.8 C 121.1 51.8 122.18 53.04 123.6 53 C 124.2 53 124.7 52.8 124.7 52.2 C 124.7 51.1 120.4 51.1 120.4 48.5 C 120.4 46.8 121.8 46.1 123.5 46.1 C 124.6 46.1 126.4 46.5 126.4 47.8 C 126.4 47.78 126.4 48.6 126.4 48.6 L 124.6 48.6 C 124.6 48.6 124.61 48.23 124.6 48.2 C 124.6 47.8 124 47.7 123.6 47.7 C 122.9 47.7 122.4 47.9 122.4 48.4 C 122.4 49.7 126.7 49.4 126.7 52.1 C 126.7 53.7 125.3 54.6 123.6 54.6 C 121.33 54.63 120.2 53.2 120.2 53.2 L 121.1 51.8 Z M 128.7 47.9 L 127.6 47.9 L 127.6 46.3 L 128.7 46.3 L 128.7 44.1 L 130.7 44.1 L 130.7 46.3 L 132.6 46.3 L 132.6 47.9 L 130.7 47.9 C 130.7 47.9 130.71 51.19 130.7 51.2 C 130.7 52.5 131.8 52.7 132.3 52.7 C 132.55 52.72 132.7 52.7 132.7 52.7 L 132.7 54.5 C 132.7 54.5 132.43 54.51 132.1 54.5 C 130.9 54.5 128.7 54.2 128.7 51.4 C 128.67 51.44 128.7 47.9 128.7 47.9 Z M 133.1 43.1 C 133.2 43.4 133.3 43.6 133.3 43.9 C 133.3 44.4 133.1 44.8 132.8 45.4 C 132.8 45.4 131.5 45.4 131.5 45.4 C 131.7 44.9 131.8 44.5 131.8 44.1 C 131.8 43.7 131.7 43.4 131.6 43.1 C 131.6 43.1 133.1 43.1 133.1 43.1 Z " stroke="none" fill="#ee3078"/>  </g>  <g id="Polygon73902">    <path d="M 37.6 32.2 C 37.6 32.2 38.79 33.54 40.4 33.5 C 41.2 33.5 42 33.1 42 32.2 C 42 30.3 36.7 30.4 36.7 26.9 C 36.7 25 38.3 23.7 40.5 23.7 C 41.8 23.7 43.8 24.3 43.8 25.9 C 43.83 25.92 43.8 27 43.8 27 L 41.9 27 C 41.9 27 41.94 26.47 41.9 26.5 C 41.9 25.9 41.2 25.6 40.4 25.6 C 39.5 25.6 38.8 26.1 38.8 26.8 C 38.8 28.7 44.1 28.4 44.1 32.1 C 44.1 33.9 42.7 35.4 40.3 35.4 C 37.83 35.43 36.4 33.7 36.4 33.7 L 37.6 32.2 Z M 46.1 29.2 C 46.1 28.9 46 28.8 45.8 28.8 C 45.76 28.8 45.1 28.8 45.1 28.8 L 45.1 27.1 C 45.1 27.1 46.93 27.07 46.9 27.1 C 47.7 27.1 48 27.4 48 27.9 C 47.96 28.05 48 28.2 48 28.2 L 48 28.2 C 48 28.2 48.68 26.88 50.6 26.9 C 52.8 26.9 54.2 28.6 54.2 31.2 C 54.2 33.7 52.6 35.4 50.5 35.4 C 48.85 35.43 48.1 34.4 48.1 34.4 L 48.1 34.4 C 48.1 34.4 48.13 34.64 48.1 35.1 C 48.13 35.06 48.1 38.4 48.1 38.4 L 46.1 38.4 C 46.1 38.4 46.12 29.15 46.1 29.2 Z M 50.1 33.7 C 51.2 33.7 52.2 32.8 52.2 31.2 C 52.2 29.6 51.3 28.6 50.1 28.6 C 49.1 28.6 48.1 29.4 48.1 31.2 C 48.1 32.5 48.8 33.7 50.1 33.7 Z M 59.7 26.9 C 62.2 26.9 64.2 28.7 64.2 31.2 C 64.2 33.7 62.2 35.4 59.7 35.4 C 57.2 35.4 55.2 33.7 55.2 31.2 C 55.2 28.7 57.2 26.9 59.7 26.9 Z M 59.7 33.7 C 61 33.7 62.1 32.7 62.1 31.2 C 62.1 29.7 61 28.6 59.7 28.6 C 58.4 28.6 57.3 29.7 57.3 31.2 C 57.3 32.7 58.4 33.7 59.7 33.7 Z M 65.8 26 C 65.8 25.7 65.7 25.6 65.5 25.6 C 65.48 25.6 64.8 25.6 64.8 25.6 L 64.8 23.9 C 64.8 23.9 66.77 23.87 66.8 23.9 C 67.5 23.9 67.9 24.1 67.9 24.8 C 67.86 24.8 67.9 30 67.9 30 C 67.9 30 68.47 29.95 68.5 30 C 68.7 30 69.1 29.9 69.2 29.7 C 69.24 29.65 70.9 27.1 70.9 27.1 L 73.2 27.1 C 73.2 27.1 71.09 30.15 71.1 30.1 C 70.74 30.66 70.5 30.8 70.5 30.8 L 70.5 30.8 C 70.5 30.8 70.77 30.93 71.1 31.5 C 71.1 31.5 72 33.2 72 33.2 C 72.1 33.5 72.3 33.5 72.7 33.5 C 72.66 33.52 73.2 33.5 73.2 33.5 L 73.2 35.2 C 73.2 35.2 71.7 35.23 71.7 35.2 C 71 35.2 70.7 35.1 70.4 34.5 C 70.4 34.5 69.1 32 69.1 32 C 68.9 31.7 68.6 31.7 68.3 31.7 C 68.31 31.67 67.9 31.7 67.9 31.7 L 67.9 35.2 L 65.8 35.2 C 65.8 35.2 65.83 25.95 65.8 26 Z M 78.3 26.9 C 80.8 26.9 82.7 28.7 82.7 31.2 C 82.7 33.7 80.8 35.4 78.3 35.4 C 75.8 35.4 73.8 33.7 73.8 31.2 C 73.8 28.7 75.8 26.9 78.3 26.9 Z M 78.3 33.7 C 79.6 33.7 80.7 32.7 80.7 31.2 C 80.7 29.7 79.6 28.6 78.3 28.6 C 76.9 28.6 75.8 29.7 75.8 31.2 C 75.8 32.7 76.9 33.7 78.3 33.7 Z M 85 23.9 L 86.8 23.9 L 86.8 25.7 L 85 25.7 L 85 23.9 Z M 83.3 36.8 C 83.9 36.8 84.9 36.6 84.9 35.3 C 84.9 35.3 84.9 29.2 84.9 29.2 C 84.9 28.9 84.8 28.8 84.6 28.8 C 84.58 28.8 83.9 28.8 83.9 28.8 L 83.9 27.1 C 83.9 27.1 85.88 27.07 85.9 27.1 C 86.6 27.1 87 27.4 87 28.2 C 87 28.2 87 35.5 87 35.5 C 87 38.2 84.7 38.5 83.6 38.5 C 83.19 38.55 82.9 38.5 82.9 38.5 L 82.9 36.8 C 82.9 36.8 83.09 36.82 83.3 36.8 Z M 89.5 29.2 C 89.5 28.9 89.3 28.8 89.1 28.8 C 89.11 28.8 88.5 28.8 88.5 28.8 L 88.5 27.1 C 88.5 27.1 90.34 27.07 90.3 27.1 C 91.1 27.1 91.4 27.4 91.4 28 C 91.4 28 91.4 28.2 91.4 28.2 C 91.41 28.4 91.4 28.6 91.4 28.6 C 91.4 28.6 91.41 28.58 91.4 28.6 C 91.8 27.9 92.6 26.9 94.3 26.9 C 96.1 26.9 97.1 27.8 97.1 30 C 97.1 30 97.1 33.2 97.1 33.2 C 97.1 33.4 97.3 33.5 97.5 33.5 C 97.49 33.52 98.1 33.5 98.1 33.5 L 98.1 35.2 C 98.1 35.2 96.2 35.23 96.2 35.2 C 95.4 35.2 95.1 34.9 95.1 34.1 C 95.1 34.1 95.1 30.4 95.1 30.4 C 95.1 29.4 94.9 28.7 93.8 28.7 C 92.7 28.7 91.9 29.4 91.6 30.4 C 91.5 30.7 91.5 31.1 91.5 31.5 C 91.48 31.49 91.5 35.2 91.5 35.2 L 89.5 35.2 C 89.5 35.2 89.46 29.15 89.5 29.2 Z M 103.4 26.9 C 105.9 26.9 107.9 28.7 107.9 31.2 C 107.9 33.7 105.9 35.4 103.4 35.4 C 100.9 35.4 98.9 33.7 98.9 31.2 C 98.9 28.7 100.9 26.9 103.4 26.9 Z M 103.4 33.7 C 104.7 33.7 105.8 32.7 105.8 31.2 C 105.8 29.7 104.7 28.6 103.4 28.6 C 102.1 28.6 101 29.7 101 31.2 C 101 32.7 102.1 33.7 103.4 33.7 Z M 109.7 32.6 C 109.7 32.6 110.79 33.84 112.2 33.8 C 112.8 33.8 113.3 33.6 113.3 33 C 113.3 31.9 109 31.9 109 29.3 C 109 27.6 110.5 26.9 112.1 26.9 C 113.3 26.9 115 27.3 115 28.6 C 115.01 28.58 115 29.4 115 29.4 L 113.2 29.4 C 113.2 29.4 113.22 29.03 113.2 29 C 113.2 28.6 112.6 28.5 112.2 28.5 C 111.5 28.5 111 28.7 111 29.2 C 111 30.5 115.3 30.2 115.3 32.9 C 115.3 34.5 114 35.4 112.2 35.4 C 109.94 35.43 108.8 34 108.8 34 L 109.7 32.6 Z M 117.3 28.7 L 116.2 28.7 L 116.2 27.1 L 117.3 27.1 L 117.3 24.9 L 119.3 24.9 L 119.3 27.1 L 121.2 27.1 L 121.2 28.7 L 119.3 28.7 C 119.3 28.7 119.31 31.99 119.3 32 C 119.3 33.3 120.4 33.5 120.9 33.5 C 121.15 33.52 121.3 33.5 121.3 33.5 L 121.3 35.3 C 121.3 35.3 121.04 35.31 120.7 35.3 C 119.5 35.3 117.3 35 117.3 32.2 C 117.28 32.24 117.3 28.7 117.3 28.7 Z M 121.7 23.9 C 121.8 24.2 121.9 24.4 121.9 24.7 C 121.9 25.2 121.7 25.6 121.4 26.2 C 121.4 26.2 120.1 26.2 120.1 26.2 C 120.3 25.7 120.4 25.3 120.4 24.9 C 120.4 24.5 120.4 24.2 120.2 23.9 C 120.2 23.9 121.7 23.9 121.7 23.9 Z " stroke="none" fill="#ee3078"/>  </g></svg>