<?xml version="1.0" standalone="no"?><!DOCTYPE svg PUBLIC "-//W3C//DTD SVG 1.1//EN" "http://www.w3.org/Graphics/SVG/1.1/DTD/svg11.dtd"><svg xmlns="http://www.w3.org/2000/svg" version="1.1" width="44px" height="28px" viewBox="0 0 44 28">  <desc>Pla</desc>  <defs/>  <g id="Polygon72235">    <path d="M 11.1 9.3 L 10.3 9.3 L 10.3 8.3 C 10.3 8.3 14.07 8.31 14.1 8.3 C 15.6 8.3 16.7 9.3 16.7 11 C 16.7 12.6 15.6 13.6 14.1 13.6 C 14.07 13.64 12.3 13.6 12.3 13.6 L 12.3 16.8 L 11.1 16.8 L 11.1 9.3 Z M 13.9 12.6 C 14.9 12.6 15.5 12 15.5 11 C 15.5 9.9 14.9 9.3 13.9 9.3 C 13.89 9.34 12.3 9.3 12.3 9.3 L 12.3 12.6 C 12.3 12.6 13.87 12.61 13.9 12.6 Z M 18 9.6 C 18 9.4 17.9 9.3 17.7 9.3 C 17.71 9.3 17.2 9.3 17.2 9.3 L 17.2 8.3 C 17.2 8.3 18.37 8.31 18.4 8.3 C 18.9 8.3 19.1 8.5 19.1 9.1 C 19.1 9.1 19.1 15.5 19.1 15.5 C 19.1 15.7 19.2 15.8 19.4 15.8 C 19.41 15.78 19.9 15.8 19.9 15.8 L 19.9 16.8 C 19.9 16.8 18.75 16.78 18.7 16.8 C 18.2 16.8 18 16.5 18 16 C 18 16 18 9.6 18 9.6 Z M 24.3 13 C 24.3 13 24.6 13 24.6 13 C 24.6 13 24.57 12.94 24.6 12.9 C 24.6 11.9 24.2 11.5 23.2 11.5 C 22.9 11.5 22.2 11.6 22.2 12 C 22.23 11.95 22.2 12.3 22.2 12.3 L 21.1 12.3 C 21.1 12.3 21.13 11.7 21.1 11.7 C 21.1 10.7 22.6 10.6 23.2 10.6 C 25.2 10.6 25.7 11.6 25.7 12.9 C 25.7 12.9 25.7 15.5 25.7 15.5 C 25.7 15.7 25.8 15.8 26 15.8 C 25.99 15.78 26.5 15.8 26.5 15.8 L 26.5 16.8 C 26.5 16.8 25.39 16.78 25.4 16.8 C 24.9 16.8 24.6 16.5 24.6 16.1 C 24.6 15.9 24.7 15.7 24.7 15.7 C 24.66 15.72 24.6 15.7 24.6 15.7 C 24.6 15.7 24.16 16.92 22.7 16.9 C 21.7 16.9 20.6 16.3 20.6 15.1 C 20.6 13.1 23.3 13 24.3 13 Z M 23 16 C 23.9 16 24.6 15 24.6 14.1 C 24.58 14.05 24.6 13.8 24.6 13.8 C 24.6 13.8 24.28 13.85 24.3 13.8 C 23.4 13.8 21.8 13.9 21.8 15 C 21.8 15.5 22.2 16 23 16 Z M 30.4 10.6 C 31.2 10.6 32.6 10.9 32.6 11.9 C 32.61 11.89 32.6 12.5 32.6 12.5 L 31.6 12.5 C 31.6 12.5 31.55 12.18 31.6 12.2 C 31.6 11.7 30.9 11.6 30.4 11.6 C 29.2 11.6 28.3 12.4 28.3 13.7 C 28.3 15.1 29.4 15.9 30.5 15.9 C 31.62 15.89 32.4 15 32.4 15 L 32.9 15.9 C 32.9 15.9 32.01 16.92 30.4 16.9 C 28.5 16.9 27.2 15.6 27.2 13.7 C 27.2 12 28.5 10.6 30.4 10.6 Z M 28.6 8.3 L 29.6 8.3 L 30.2 9.3 L 30.2 9.3 L 30.9 8.3 L 31.8 8.3 L 30.8 9.8 L 29.7 9.8 L 28.6 8.3 Z " stroke="none" fill="#000"/>  </g></svg>