<?xml version="1.0" standalone="no"?><!DOCTYPE svg PUBLIC "-//W3C//DTD SVG 1.1//EN" "http://www.w3.org/Graphics/SVG/1.1/DTD/svg11.dtd"><svg xmlns="http://www.w3.org/2000/svg" version="1.1" width="113.4px" height="84px" viewBox="0 -1 113.4 84" style="top:-1px">  <desc>Eko</desc>  <defs/>  <g id="Polygon74143">    <path d="M 44.3 35.3 L 43.3 35.3 L 43.3 33.5 C 43.3 33.5 50.13 33.47 50.1 33.5 C 50.9 33.5 51.2 33.8 51.2 34.6 C 51.22 34.56 51.2 36.3 51.2 36.3 L 49.3 36.3 C 49.3 36.3 49.32 35.6 49.3 35.6 C 49.3 35.4 49.2 35.3 49 35.3 C 48.97 35.25 46.4 35.3 46.4 35.3 L 46.4 38.2 L 50.1 38.2 L 50.1 40 L 46.4 40 C 46.4 40 46.41 42.71 46.4 42.7 C 46.4 42.9 46.5 43.1 46.8 43.1 C 46.8 43.1 49.4 43.1 49.4 43.1 C 49.6 43.1 49.7 42.9 49.7 42.7 C 49.73 42.71 49.7 42 49.7 42 L 51.6 42 C 51.6 42 51.64 43.75 51.6 43.7 C 51.6 44.5 51.3 44.8 50.5 44.8 C 50.5 44.8 45.4 44.8 45.4 44.8 C 44.6 44.8 44.3 44.5 44.3 43.7 C 44.31 43.75 44.3 35.3 44.3 35.3 Z M 53.2 35.6 C 53.2 35.3 53.1 35.2 52.9 35.2 C 52.88 35.2 52.2 35.2 52.2 35.2 L 52.2 33.5 C 52.2 33.5 54.18 33.47 54.2 33.5 C 54.9 33.5 55.3 33.7 55.3 34.4 C 55.27 34.4 55.3 39.6 55.3 39.6 C 55.3 39.6 55.88 39.55 55.9 39.6 C 56.1 39.6 56.5 39.5 56.6 39.3 C 56.64 39.25 58.3 36.7 58.3 36.7 L 60.6 36.7 C 60.6 36.7 58.5 39.75 58.5 39.7 C 58.15 40.26 57.9 40.4 57.9 40.4 L 57.9 40.4 C 57.9 40.4 58.18 40.53 58.5 41.1 C 58.5 41.1 59.4 42.8 59.4 42.8 C 59.5 43.1 59.7 43.1 60.1 43.1 C 60.07 43.12 60.6 43.1 60.6 43.1 L 60.6 44.8 C 60.6 44.8 59.11 44.83 59.1 44.8 C 58.4 44.8 58.1 44.7 57.8 44.1 C 57.8 44.1 56.5 41.6 56.5 41.6 C 56.3 41.3 56 41.3 55.7 41.3 C 55.72 41.27 55.3 41.3 55.3 41.3 L 55.3 44.8 L 53.2 44.8 C 53.2 44.8 53.24 35.55 53.2 35.6 Z M 65.7 36.5 C 68.2 36.5 70.1 38.3 70.1 40.8 C 70.1 43.3 68.2 45 65.7 45 C 63.2 45 61.2 43.3 61.2 40.8 C 61.2 38.3 63.2 36.5 65.7 36.5 Z M 65.7 43.3 C 67 43.3 68.1 42.3 68.1 40.8 C 68.1 39.3 67 38.2 65.7 38.2 C 64.4 38.2 63.3 39.3 63.3 40.8 C 63.3 42.3 64.4 43.3 65.7 43.3 Z " stroke="none" fill="#ee3078"/>  </g></svg>