<?xml version="1.0" standalone="no"?><!DOCTYPE svg PUBLIC "-//W3C//DTD SVG 1.1//EN" "http://www.w3.org/Graphics/SVG/1.1/DTD/svg11.dtd"><svg xmlns="http://www.w3.org/2000/svg" version="1.1" width="526.1px" height="43.5px" viewBox="0 -5 526.1 43.5" style="top:-5px">  <desc>Bio</desc>  <defs/>  <g id="Polygon71235">    <path d="M 2.3 18.8 L 13.3 14 L 13.3 13.9 L 2.3 9.2 L 2.3 7.2 L 15.9 13.2 L 15.9 14.7 L 2.3 20.8 L 2.3 18.8 Z M 29.5 3.3 L 27.5 3.3 L 27.5 1.4 C 27.5 1.4 36.51 1.41 36.5 1.4 C 39.8 1.4 42.2 3.4 42.2 6.7 C 42.2 9 41 10.6 39.5 11.3 C 39.5 11.3 39.5 11.4 39.5 11.4 C 41.7 12 43 14 43 16.6 C 43 20.3 40.3 22.5 36.7 22.5 C 36.7 22.5 31.3 22.5 31.3 22.5 C 30 22.5 29.5 22 29.5 20.7 C 29.49 20.67 29.5 3.3 29.5 3.3 Z M 36.5 10.6 C 38.6 10.6 40 9.1 40 6.9 C 40 4.7 38.7 3.3 36.4 3.3 C 36.45 3.27 31.6 3.3 31.6 3.3 L 31.6 10.6 C 31.6 10.6 36.48 10.56 36.5 10.6 Z M 32.2 20.6 C 32.2 20.6 36.7 20.6 36.7 20.6 C 39.3 20.6 40.9 19.1 40.9 16.5 C 40.9 14 39.2 12.4 36.7 12.4 C 36.72 12.36 31.6 12.4 31.6 12.4 C 31.6 12.4 31.59 19.98 31.6 20 C 31.6 20.4 31.8 20.6 32.2 20.6 Z M 47.2 1.4 L 49.2 1.4 L 49.2 4 L 47.2 4 L 47.2 1.4 Z M 47.3 9.8 C 47.3 9.4 47 9.2 46.6 9.2 C 46.62 9.18 45.4 9.2 45.4 9.2 L 45.4 7.4 C 45.4 7.4 47.49 7.41 47.5 7.4 C 48.8 7.4 49.3 8 49.3 9.2 C 49.3 9.2 49.3 20.1 49.3 20.1 C 49.3 20.5 49.6 20.7 50 20.7 C 49.98 20.73 51.2 20.7 51.2 20.7 L 51.2 22.5 C 51.2 22.5 49.11 22.5 49.1 22.5 C 47.8 22.5 47.3 22 47.3 20.7 C 47.3 20.7 47.3 9.8 47.3 9.8 Z M 61.2 7.1 C 65.6 7.1 69.2 10.4 69.2 14.9 C 69.2 19.4 65.6 22.9 61.2 22.9 C 56.8 22.9 53.2 19.4 53.2 14.9 C 53.2 10.4 56.8 7.1 61.2 7.1 Z M 61.2 21 C 64.4 21 67.1 18.4 67.1 14.9 C 67.1 11.5 64.4 8.9 61.2 8.9 C 58 8.9 55.3 11.5 55.3 14.9 C 55.3 18.4 58 21 61.2 21 Z " stroke="none" fill="#ee3078"/>  </g></svg>