<?xml version="1.0" standalone="no"?><!DOCTYPE svg PUBLIC "-//W3C//DTD SVG 1.1//EN" "http://www.w3.org/Graphics/SVG/1.1/DTD/svg11.dtd"><svg xmlns="http://www.w3.org/2000/svg" version="1.1" width="44px" height="19.5px" viewBox="0 -1 44 19.5" style="top:-1px">  <desc>54.4%</desc>  <defs/>  <g id="Polygon79163">    <path d="M 9.3 12.6 C 8.9 12.6 8.4 12.6 7.9 12.4 C 7.88 12.44 7.9 11.7 7.9 11.7 C 7.9 11.7 8.08 11.69 8.1 11.7 C 8.5 11.8 8.9 11.8 9.2 11.8 C 10.5 11.8 11.1 11.2 11.1 10 C 11.1 9.7 11 9.5 11 9.2 C 10.9 9 10.7 8.8 10.5 8.7 C 10.4 8.6 10.1 8.5 9.8 8.4 C 9.5 8.3 9.2 8.3 8.8 8.3 C 8.76 8.31 8.1 8.3 8.1 8.3 L 8 8.2 L 8.3 4.1 L 11.7 4.1 L 11.7 4.9 L 9 4.9 C 9 4.9 8.84 7.59 8.8 7.6 C 9.4 7.6 9.9 7.6 10.3 7.7 C 10.7 7.8 11 8 11.3 8.2 C 11.5 8.4 11.7 8.6 11.8 8.9 C 12 9.2 12 9.6 12 10 C 12 10.9 11.8 11.5 11.3 12 C 10.8 12.4 10.2 12.6 9.3 12.6 Z M 12.7 10 L 12.7 9.9 L 15.5 4 L 15.5 4 L 16.3 4.1 L 16.4 4.2 L 13.7 9.7 L 13.7 9.7 L 16.3 9.7 L 16.5 6.8 L 17.2 6.8 L 17.2 9.7 L 18.2 9.7 L 18.2 10.5 L 17.2 10.5 L 17.2 12.5 L 16.3 12.5 L 16.3 10.5 L 12.9 10.5 L 12.7 10 Z M 20.3 11.9 C 20.3 12.3 20.1 12.5 19.7 12.5 C 19.3 12.5 19.1 12.3 19.1 11.9 C 19.1 11.6 19.3 11.4 19.7 11.4 C 19.8 11.4 20 11.4 20.1 11.5 C 20.2 11.6 20.3 11.7 20.3 11.9 C 20.3 11.9 20.3 11.9 20.3 11.9 Z M 21 10 L 21 9.9 L 23.8 4 L 23.9 4 L 24.7 4.1 L 24.7 4.2 L 22 9.7 L 22 9.7 L 24.6 9.7 L 24.9 6.8 L 25.5 6.8 L 25.5 9.7 L 26.5 9.7 L 26.5 10.5 L 25.5 10.5 L 25.5 12.5 L 24.6 12.5 L 24.6 10.5 L 21.2 10.5 L 21 10 Z M 29 9.3 C 28.4 9.3 28 9.1 27.7 8.6 C 27.4 8.2 27.2 7.5 27.2 6.6 C 27.2 5.8 27.4 5.1 27.7 4.6 C 28 4.2 28.4 4 29 4 C 29.7 4 30.1 4.2 30.4 4.6 C 30.7 5.1 30.9 5.8 30.9 6.6 C 30.9 7.5 30.7 8.2 30.4 8.6 C 30.1 9.1 29.7 9.3 29 9.3 Z M 27.9 6.6 C 27.9 8 28.3 8.6 29 8.6 C 29.8 8.6 30.2 8 30.2 6.6 C 30.2 5.3 29.8 4.6 29 4.6 C 28.3 4.6 27.9 5.3 27.9 6.6 C 27.9 6.6 27.9 6.6 27.9 6.6 Z M 34.3 12.6 C 33.7 12.6 33.2 12.4 32.9 11.9 C 32.6 11.5 32.5 10.8 32.5 10 C 32.5 9.1 32.6 8.4 32.9 8 C 33.2 7.5 33.7 7.3 34.3 7.3 C 34.9 7.3 35.4 7.5 35.7 8 C 36 8.4 36.1 9.1 36.1 10 C 36.1 10.8 36 11.5 35.7 11.9 C 35.4 12.4 34.9 12.6 34.3 12.6 Z M 33.2 10 C 33.2 11.3 33.6 12 34.3 12 C 35.1 12 35.4 11.3 35.4 10 C 35.4 8.6 35.1 8 34.3 8 C 33.6 8 33.2 8.6 33.2 10 C 33.2 10 33.2 10 33.2 10 Z M 32.9 4.1 L 33.7 4.1 L 30.4 12.5 L 29.6 12.5 L 32.9 4.1 Z " stroke="none" fill="#68adca"/>  </g></svg>