<?xml version="1.0" standalone="no"?><!DOCTYPE svg PUBLIC "-//W3C//DTD SVG 1.1//EN" "http://www.w3.org/Graphics/SVG/1.1/DTD/svg11.dtd"><svg xmlns="http://www.w3.org/2000/svg" version="1.1" width="139px" height="51.5px" viewBox="0 -4 139 51.5" style="top:-4px">  <desc>Dodr iavanie u vania lie by</desc>  <defs/>  <g id="Polygon67093">    <path d="M 8.4 27.9 C 8.4 27.6 8.3 27.5 8 27.5 C 8.02 27.49 7.3 27.5 7.3 27.5 L 7.3 26 C 7.3 26 9 25.99 9 26 C 9.8 26 10.2 26.3 10.2 27.1 C 10.2 27.1 10.2 31.4 10.2 31.4 C 10.2 32.7 10.4 33.7 11.9 33.7 C 13.7 33.7 14.8 32.1 14.8 30.3 C 14.83 30.26 14.8 26 14.8 26 L 16.6 26 C 16.6 26 16.57 33.21 16.6 33.2 C 16.6 33.5 16.7 33.6 17 33.6 C 16.97 33.61 17.7 33.6 17.7 33.6 L 17.7 35.1 C 17.7 35.1 16.03 35.1 16 35.1 C 15.3 35.1 14.9 34.7 14.9 34.1 C 14.9 34.1 14.9 33.8 14.9 33.8 C 14.88 33.46 14.9 33.2 14.9 33.2 C 14.9 33.2 14.86 33.23 14.9 33.2 C 14.5 34.1 13.3 35.3 11.5 35.3 C 9.5 35.3 8.4 34.2 8.4 31.8 C 8.4 31.8 8.4 27.9 8.4 27.9 Z M 18.7 34.1 C 18.7 34.1 23.36 28.33 23.4 28.3 C 23.76 27.85 24.1 27.5 24.1 27.5 L 24.1 27.5 C 24.1 27.5 23.83 27.49 23.2 27.5 C 23.2 27.5 20.8 27.5 20.8 27.5 C 20.5 27.5 20.4 27.6 20.4 27.9 C 20.35 27.88 20.4 28.5 20.4 28.5 L 18.8 28.5 C 18.8 28.5 18.75 27.14 18.8 27.1 C 18.8 26.3 19.1 26 19.9 26 C 19.9 25.99 26.4 26 26.4 26 L 26.4 27 C 26.4 27 21.74 32.78 21.7 32.8 C 21.36 33.23 21 33.6 21 33.6 L 21 33.6 C 21 33.6 21.27 33.61 21.9 33.6 C 21.9 33.6 24.8 33.6 24.8 33.6 C 25 33.6 25.2 33.5 25.2 33.2 C 25.18 33.21 25.2 32.6 25.2 32.6 L 26.8 32.6 C 26.8 32.6 26.76 33.95 26.8 33.9 C 26.8 34.8 26.4 35.1 25.6 35.1 C 25.61 35.1 18.7 35.1 18.7 35.1 L 18.7 34.1 Z M 20.4 22.4 L 21.8 22.4 L 22.8 23.9 L 22.8 23.9 L 23.7 22.4 L 25.2 22.4 L 23.6 24.7 L 22 24.7 L 20.4 22.4 Z M 28.8 27.9 C 28.8 27.6 28.7 27.5 28.4 27.5 C 28.42 27.49 27.7 27.5 27.7 27.5 L 27.7 26 C 27.7 26 29.41 25.99 29.4 26 C 30.2 26 30.6 26.3 30.6 27.1 C 30.6 27.1 30.6 33.2 30.6 33.2 C 30.6 33.5 30.7 33.6 31 33.6 C 30.96 33.61 31.7 33.6 31.7 33.6 L 31.7 35.1 C 31.7 35.1 29.98 35.1 30 35.1 C 29.2 35.1 28.8 34.8 28.8 33.9 C 28.8 33.9 28.8 27.9 28.8 27.9 Z M 30.2 22.4 L 31.9 22.4 L 30.2 24.7 L 28.9 24.7 L 30.2 22.4 Z M 33.1 27.8 C 33 27.6 32.8 27.5 32.5 27.5 C 32.5 27.49 32.3 27.5 32.3 27.5 L 32.3 26 C 32.3 26 33.22 25.99 33.2 26 C 34 26 34.3 26.2 34.6 26.9 C 34.6 26.9 36.6 32.1 36.6 32.1 C 36.75 32.65 36.9 33.3 36.9 33.3 L 36.9 33.3 C 36.9 33.3 37.08 32.65 37.3 32.1 C 37.3 32.1 39.2 26.9 39.2 26.9 C 39.5 26.2 39.8 26 40.6 26 C 40.59 25.99 41.4 26 41.4 26 L 41.4 27.5 C 41.4 27.5 41.25 27.49 41.3 27.5 C 40.9 27.5 40.8 27.6 40.7 27.8 C 40.66 27.85 37.9 35.1 37.9 35.1 L 35.9 35.1 C 35.9 35.1 33.06 27.85 33.1 27.8 Z M 47.7 29.4 C 47.73 29.43 48.1 29.4 48.1 29.4 C 48.1 29.4 48.13 29.34 48.1 29.3 C 48.1 27.7 47.5 27.2 46.1 27.2 C 45.7 27.2 44.6 27.3 44.6 27.9 C 44.62 27.86 44.6 28.4 44.6 28.4 L 43 28.4 C 43 28.4 42.98 27.49 43 27.5 C 43 26 45.2 25.8 46.1 25.8 C 49.1 25.8 49.9 27.3 49.9 29.3 C 49.9 29.3 49.9 33.2 49.9 33.2 C 49.9 33.5 50 33.6 50.3 33.6 C 50.27 33.61 51 33.6 51 33.6 L 51 35.1 C 51 35.1 49.37 35.1 49.4 35.1 C 48.6 35.1 48.2 34.7 48.2 34.1 C 48.24 33.75 48.3 33.5 48.3 33.5 L 48.2 33.5 C 48.2 33.5 47.52 35.32 45.3 35.3 C 43.8 35.3 42.2 34.4 42.2 32.5 C 42.2 29.6 46.2 29.4 47.7 29.4 Z M 45.7 33.9 C 47.2 33.9 48.1 32.4 48.1 31 C 48.15 31.01 48.1 30.7 48.1 30.7 C 48.1 30.7 47.7 30.71 47.7 30.7 C 46.4 30.7 44 30.8 44 32.5 C 44 33.2 44.6 33.9 45.7 33.9 Z M 52.9 27.9 C 52.9 27.6 52.8 27.5 52.5 27.5 C 52.5 27.49 51.8 27.5 51.8 27.5 L 51.8 26 C 51.8 26 53.44 25.99 53.4 26 C 54.2 26 54.6 26.3 54.6 27 C 54.6 27 54.6 27.3 54.6 27.3 C 54.59 27.63 54.6 27.9 54.6 27.9 C 54.6 27.9 54.59 27.86 54.6 27.9 C 55 27.1 56 25.8 58 25.8 C 60.2 25.8 61.1 26.9 61.1 29.3 C 61.1 29.3 61.1 33.2 61.1 33.2 C 61.1 33.5 61.3 33.6 61.5 33.6 C 61.54 33.61 62.3 33.6 62.3 33.6 L 62.3 35.1 C 62.3 35.1 60.55 35.1 60.5 35.1 C 59.7 35.1 59.4 34.8 59.4 33.9 C 59.4 33.9 59.4 29.7 59.4 29.7 C 59.4 28.4 59.1 27.4 57.7 27.4 C 56.3 27.4 55.2 28.3 54.8 29.6 C 54.7 30 54.6 30.4 54.6 30.8 C 54.64 30.83 54.6 35.1 54.6 35.1 L 52.9 35.1 C 52.9 35.1 52.9 27.88 52.9 27.9 Z M 64.3 22.4 L 65.9 22.4 L 65.9 24.2 L 64.3 24.2 L 64.3 22.4 Z M 64.3 27.9 C 64.3 27.6 64.1 27.5 63.9 27.5 C 63.86 27.49 63.1 27.5 63.1 27.5 L 63.1 26 C 63.1 26 64.83 25.99 64.8 26 C 65.6 26 66 26.3 66 27.1 C 66 27.1 66 33.2 66 33.2 C 66 33.5 66.1 33.6 66.4 33.6 C 66.38 33.61 67.1 33.6 67.1 33.6 L 67.1 35.1 C 67.1 35.1 65.41 35.1 65.4 35.1 C 64.6 35.1 64.3 34.8 64.3 33.9 C 64.3 33.9 64.3 27.9 64.3 27.9 Z M 73.7 29.4 C 73.74 29.43 74.1 29.4 74.1 29.4 C 74.1 29.4 74.14 29.34 74.1 29.3 C 74.1 27.7 73.5 27.2 72.1 27.2 C 71.7 27.2 70.6 27.3 70.6 27.9 C 70.63 27.86 70.6 28.4 70.6 28.4 L 69 28.4 C 69 28.4 68.99 27.49 69 27.5 C 69 26 71.3 25.8 72.1 25.8 C 75.1 25.8 75.9 27.3 75.9 29.3 C 75.9 29.3 75.9 33.2 75.9 33.2 C 75.9 33.5 76 33.6 76.3 33.6 C 76.28 33.61 77 33.6 77 33.6 L 77 35.1 C 77 35.1 75.38 35.1 75.4 35.1 C 74.6 35.1 74.2 34.7 74.2 34.1 C 74.25 33.75 74.3 33.5 74.3 33.5 L 74.2 33.5 C 74.2 33.5 73.53 35.32 71.3 35.3 C 69.8 35.3 68.3 34.4 68.3 32.5 C 68.3 29.6 72.2 29.4 73.7 29.4 Z M 71.7 33.9 C 73.2 33.9 74.2 32.4 74.2 31 C 74.16 31.01 74.2 30.7 74.2 30.7 C 74.2 30.7 73.71 30.71 73.7 30.7 C 72.4 30.7 70 30.8 70 32.5 C 70 33.2 70.6 33.9 71.7 33.9 Z M 83.7 24.3 C 83.7 24 83.6 23.9 83.3 23.9 C 83.32 23.89 82.6 23.9 82.6 23.9 L 82.6 22.4 C 82.6 22.4 84.31 22.39 84.3 22.4 C 85.1 22.4 85.5 22.7 85.5 23.5 C 85.5 23.5 85.5 33.2 85.5 33.2 C 85.5 33.5 85.6 33.6 85.9 33.6 C 85.86 33.61 86.6 33.6 86.6 33.6 L 86.6 35.1 C 86.6 35.1 84.87 35.1 84.9 35.1 C 84.1 35.1 83.7 34.8 83.7 33.9 C 83.7 33.9 83.7 24.3 83.7 24.3 Z M 88.7 22.4 L 90.3 22.4 L 90.3 24.2 L 88.7 24.2 L 88.7 22.4 Z M 88.7 27.9 C 88.7 27.6 88.5 27.5 88.3 27.5 C 88.27 27.49 87.5 27.5 87.5 27.5 L 87.5 26 C 87.5 26 89.24 25.99 89.2 26 C 90 26 90.4 26.3 90.4 27.1 C 90.4 27.1 90.4 33.2 90.4 33.2 C 90.4 33.5 90.5 33.6 90.8 33.6 C 90.79 33.61 91.5 33.6 91.5 33.6 L 91.5 35.1 C 91.5 35.1 89.82 35.1 89.8 35.1 C 89 35.1 88.7 34.8 88.7 33.9 C 88.7 33.9 88.7 27.9 88.7 27.9 Z M 97.2 25.8 C 99.8 25.8 101.1 27.7 101.1 30 C 101.14 30.28 101.1 30.8 101.1 30.8 C 101.1 30.8 94.44 30.76 94.4 30.8 C 94.5 32.7 96 33.8 97.6 33.8 C 99.14 33.8 100.2 32.7 100.2 32.7 L 101 34 C 101 34 99.64 35.32 97.5 35.3 C 94.6 35.3 92.6 33.2 92.6 30.5 C 92.6 27.6 94.6 25.8 97.2 25.8 Z M 99.3 29.5 C 99.3 28 98.3 27.2 97.2 27.2 C 95.9 27.2 94.8 28 94.5 29.5 C 94.5 29.5 99.3 29.5 99.3 29.5 Z M 107.5 25.8 C 108.6 25.8 110.7 26.2 110.7 27.8 C 110.75 27.77 110.7 28.7 110.7 28.7 L 109.2 28.7 C 109.2 28.7 109.17 28.21 109.2 28.2 C 109.2 27.6 108.1 27.3 107.5 27.3 C 105.7 27.3 104.4 28.6 104.4 30.5 C 104.4 32.6 105.9 33.8 107.6 33.8 C 109.27 33.77 110.4 32.5 110.4 32.5 L 111.1 33.8 C 111.1 33.8 109.85 35.32 107.4 35.3 C 104.6 35.3 102.6 33.3 102.6 30.5 C 102.6 27.9 104.5 25.8 107.5 25.8 Z M 104.8 22.4 L 106.2 22.4 L 107.1 23.9 L 107.2 23.9 L 108.1 22.4 L 109.6 22.4 L 108 24.7 L 106.4 24.7 L 104.8 22.4 Z M 113 24.3 C 113 24 112.8 23.9 112.6 23.9 C 112.59 23.89 111.8 23.9 111.8 23.9 L 111.8 22.4 C 111.8 22.4 113.58 22.39 113.6 22.4 C 114.4 22.4 114.7 22.7 114.7 23.5 C 114.7 23.5 114.7 26.5 114.7 26.5 C 114.73 26.95 114.7 27.3 114.7 27.3 L 114.7 27.3 C 114.7 27.3 115.52 25.78 117.7 25.8 C 120.1 25.8 121.7 27.7 121.7 30.5 C 121.7 33.4 119.9 35.3 117.5 35.3 C 115.48 35.32 114.7 33.8 114.7 33.8 L 114.6 33.8 C 114.6 33.8 114.66 34.07 114.7 34.5 C 114.66 34.47 114.7 35.1 114.7 35.1 L 113 35.1 C 113 35.1 112.98 24.28 113 24.3 Z M 117.3 33.8 C 118.7 33.8 119.9 32.6 119.9 30.6 C 119.9 28.6 118.8 27.3 117.3 27.3 C 116 27.3 114.7 28.3 114.7 30.6 C 114.7 32.2 115.5 33.8 117.3 33.8 Z M 124.3 37.4 C 125 37.4 125.5 36.9 125.9 36.1 C 125.89 36.05 126.3 35.1 126.3 35.1 C 126.3 35.1 123.19 27.85 123.2 27.8 C 123.1 27.6 122.9 27.5 122.6 27.5 C 122.61 27.49 122.4 27.5 122.4 27.5 L 122.4 26 C 122.4 26 123.42 25.99 123.4 26 C 124.2 26 124.4 26.2 124.7 26.9 C 124.7 26.9 126.8 32 126.8 32 C 126.97 32.51 127.1 33.1 127.1 33.1 L 127.1 33.1 C 127.1 33.1 127.27 32.51 127.5 32 C 127.5 32 129.3 26.9 129.3 26.9 C 129.6 26.2 129.9 26 130.7 26 C 130.68 25.99 131.7 26 131.7 26 L 131.7 27.5 C 131.7 27.5 131.49 27.49 131.5 27.5 C 131.2 27.5 131 27.6 130.9 27.8 C 130.9 27.8 127.3 36.7 127.3 36.7 C 126.8 38.1 125.7 38.9 124.4 38.9 C 123.03 38.88 122.2 38 122.2 38 C 122.2 38 122.95 36.72 123 36.7 C 123 36.7 123.5 37.4 124.3 37.4 Z " stroke="none" fill="#ee3078"/>  </g>  <g id="Polygon67092">    <path d="M 15.8 2.3 L 14.6 2.3 L 14.6 0.8 C 14.6 0.8 19.79 0.79 19.8 0.8 C 23.7 0.8 26.2 3.1 26.2 7.1 C 26.2 11.2 23.7 13.5 19.8 13.5 C 19.8 13.5 17 13.5 17 13.5 C 16.2 13.5 15.8 13.2 15.8 12.3 C 15.81 12.35 15.8 2.3 15.8 2.3 Z M 18 12 C 18 12 19.7 12 19.7 12 C 22.5 12 24.3 10.3 24.3 7.1 C 24.3 4 22.5 2.3 19.7 2.3 C 19.66 2.34 17.6 2.3 17.6 2.3 C 17.6 2.3 17.61 11.56 17.6 11.6 C 17.6 11.8 17.8 12 18 12 Z M 32.5 4.2 C 35.2 4.2 37.4 6.2 37.4 8.9 C 37.4 11.7 35.2 13.7 32.5 13.7 C 29.7 13.7 27.6 11.7 27.6 8.9 C 27.6 6.2 29.7 4.2 32.5 4.2 Z M 32.5 12.2 C 34.2 12.2 35.6 10.8 35.6 8.9 C 35.6 7 34.2 5.7 32.5 5.7 C 30.7 5.7 29.3 7 29.3 8.9 C 29.3 10.8 30.7 12.2 32.5 12.2 Z M 42.8 4.2 C 44.92 4.18 45.6 5.6 45.6 5.6 L 45.7 5.6 C 45.7 5.6 45.62 5.31 45.6 5 C 45.6 5 45.6 2.7 45.6 2.7 C 45.6 2.4 45.5 2.3 45.2 2.3 C 45.22 2.29 44.5 2.3 44.5 2.3 L 44.5 0.8 C 44.5 0.8 46.21 0.79 46.2 0.8 C 47 0.8 47.4 1.1 47.4 1.9 C 47.4 1.9 47.4 11.6 47.4 11.6 C 47.4 11.9 47.5 12 47.8 12 C 47.76 12.01 48.5 12 48.5 12 L 48.5 13.5 C 48.5 13.5 46.82 13.5 46.8 13.5 C 46 13.5 45.7 13.1 45.7 12.5 C 45.71 12.26 45.7 12.1 45.7 12.1 L 45.7 12.1 C 45.7 12.1 44.93 13.72 42.7 13.7 C 40.2 13.7 38.7 11.8 38.7 8.9 C 38.7 6 40.4 4.2 42.8 4.2 Z M 45.7 8.9 C 45.7 7.3 44.8 5.7 43.1 5.7 C 41.7 5.7 40.5 6.9 40.5 8.9 C 40.5 10.9 41.5 12.2 43 12.2 C 44.4 12.2 45.7 11.3 45.7 8.9 Z M 50.4 6.3 C 50.4 6 50.3 5.9 50 5.9 C 50.04 5.89 49.3 5.9 49.3 5.9 L 49.3 4.4 C 49.3 4.4 50.96 4.39 51 4.4 C 51.8 4.4 52.1 4.7 52.1 5.5 C 52.1 5.5 52.1 6 52.1 6 C 52.13 6.39 52.1 6.7 52.1 6.7 C 52.1 6.7 52.13 6.66 52.1 6.7 C 52.6 5.3 53.6 4.3 55 4.3 C 55.25 4.28 55.5 4.3 55.5 4.3 L 55.5 6 C 55.5 6 55.25 5.99 55 6 C 53.8 6 52.8 6.8 52.4 8.1 C 52.2 8.7 52.2 9.2 52.2 9.8 C 52.19 9.77 52.2 13.5 52.2 13.5 L 50.4 13.5 C 50.4 13.5 50.44 6.28 50.4 6.3 Z M 56.5 12.5 C 56.5 12.5 61.13 6.73 61.1 6.7 C 61.53 6.25 61.9 5.9 61.9 5.9 L 61.9 5.9 C 61.9 5.9 61.6 5.89 61 5.9 C 61 5.9 58.5 5.9 58.5 5.9 C 58.3 5.9 58.1 6 58.1 6.3 C 58.13 6.28 58.1 6.9 58.1 6.9 L 56.5 6.9 C 56.5 6.9 56.52 5.54 56.5 5.5 C 56.5 4.7 56.9 4.4 57.7 4.4 C 57.68 4.39 64.2 4.4 64.2 4.4 L 64.2 5.4 C 64.2 5.4 59.51 11.18 59.5 11.2 C 59.13 11.63 58.8 12 58.8 12 L 58.8 12 C 58.8 12 59.04 12.01 59.6 12 C 59.6 12 62.6 12 62.6 12 C 62.8 12 63 11.9 63 11.6 C 62.95 11.61 63 11 63 11 L 64.5 11 C 64.5 11 64.53 12.35 64.5 12.3 C 64.5 13.2 64.2 13.5 63.4 13.5 C 63.38 13.5 56.5 13.5 56.5 13.5 L 56.5 12.5 Z M 58.2 0.8 L 59.6 0.8 L 60.5 2.3 L 60.6 2.3 L 61.5 0.8 L 63 0.8 L 61.4 3.1 L 59.8 3.1 L 58.2 0.8 Z M 66.6 0.8 L 68.2 0.8 L 68.2 2.6 L 66.6 2.6 L 66.6 0.8 Z M 66.6 6.3 C 66.6 6 66.4 5.9 66.2 5.9 C 66.19 5.89 65.5 5.9 65.5 5.9 L 65.5 4.4 C 65.5 4.4 67.16 4.39 67.2 4.4 C 68 4.4 68.3 4.7 68.3 5.5 C 68.3 5.5 68.3 11.6 68.3 11.6 C 68.3 11.9 68.5 12 68.7 12 C 68.71 12.01 69.4 12 69.4 12 L 69.4 13.5 C 69.4 13.5 67.74 13.5 67.7 13.5 C 66.9 13.5 66.6 13.2 66.6 12.3 C 66.6 12.3 66.6 6.3 66.6 6.3 Z M 76.1 7.8 C 76.07 7.83 76.5 7.8 76.5 7.8 C 76.5 7.8 76.47 7.74 76.5 7.7 C 76.5 6.1 75.9 5.6 74.5 5.6 C 74 5.6 73 5.7 73 6.3 C 72.96 6.26 73 6.8 73 6.8 L 71.3 6.8 C 71.3 6.8 71.32 5.89 71.3 5.9 C 71.3 4.4 73.6 4.2 74.5 4.2 C 77.4 4.2 78.2 5.7 78.2 7.7 C 78.2 7.7 78.2 11.6 78.2 11.6 C 78.2 11.9 78.4 12 78.6 12 C 78.61 12.01 79.3 12 79.3 12 L 79.3 13.5 C 79.3 13.5 77.71 13.5 77.7 13.5 C 76.9 13.5 76.6 13.1 76.6 12.5 C 76.58 12.15 76.6 11.9 76.6 11.9 L 76.6 11.9 C 76.6 11.9 75.86 13.72 73.7 13.7 C 72.1 13.7 70.6 12.8 70.6 10.9 C 70.6 8 74.5 7.8 76.1 7.8 Z M 74.1 12.3 C 75.5 12.3 76.5 10.8 76.5 9.4 C 76.49 9.41 76.5 9.1 76.5 9.1 C 76.5 9.1 76.04 9.11 76 9.1 C 74.7 9.1 72.3 9.2 72.3 10.9 C 72.3 11.6 72.9 12.3 74.1 12.3 Z M 80.5 6.2 C 80.4 6 80.2 5.9 79.9 5.9 C 79.92 5.89 79.7 5.9 79.7 5.9 L 79.7 4.4 C 79.7 4.4 80.64 4.39 80.6 4.4 C 81.5 4.4 81.8 4.6 82 5.3 C 82 5.3 84 10.5 84 10.5 C 84.17 11.05 84.3 11.7 84.3 11.7 L 84.4 11.7 C 84.4 11.7 84.5 11.05 84.7 10.5 C 84.7 10.5 86.6 5.3 86.6 5.3 C 86.9 4.6 87.2 4.4 88 4.4 C 88.01 4.39 88.9 4.4 88.9 4.4 L 88.9 5.9 C 88.9 5.9 88.67 5.89 88.7 5.9 C 88.4 5.9 88.2 6 88.1 6.2 C 88.08 6.25 85.3 13.5 85.3 13.5 L 83.3 13.5 C 83.3 13.5 80.48 6.25 80.5 6.2 Z M 95.2 7.8 C 95.15 7.83 95.5 7.8 95.5 7.8 C 95.5 7.8 95.55 7.74 95.5 7.7 C 95.5 6.1 95 5.6 93.5 5.6 C 93.1 5.6 92 5.7 92 6.3 C 92.04 6.26 92 6.8 92 6.8 L 90.4 6.8 C 90.4 6.8 90.4 5.89 90.4 5.9 C 90.4 4.4 92.7 4.2 93.6 4.2 C 96.5 4.2 97.3 5.7 97.3 7.7 C 97.3 7.7 97.3 11.6 97.3 11.6 C 97.3 11.9 97.4 12 97.7 12 C 97.69 12.01 98.4 12 98.4 12 L 98.4 13.5 C 98.4 13.5 96.79 13.5 96.8 13.5 C 96 13.5 95.7 13.1 95.7 12.5 C 95.66 12.15 95.7 11.9 95.7 11.9 L 95.7 11.9 C 95.7 11.9 94.94 13.72 92.8 13.7 C 91.2 13.7 89.7 12.8 89.7 10.9 C 89.7 8 93.6 7.8 95.2 7.8 Z M 93.1 12.3 C 94.6 12.3 95.6 10.8 95.6 9.4 C 95.57 9.41 95.6 9.1 95.6 9.1 C 95.6 9.1 95.12 9.11 95.1 9.1 C 93.8 9.1 91.4 9.2 91.4 10.9 C 91.4 11.6 92 12.3 93.1 12.3 Z M 100.3 6.3 C 100.3 6 100.2 5.9 99.9 5.9 C 99.92 5.89 99.2 5.9 99.2 5.9 L 99.2 4.4 C 99.2 4.4 100.86 4.39 100.9 4.4 C 101.6 4.4 102 4.7 102 5.4 C 102 5.4 102 5.7 102 5.7 C 102.01 6.03 102 6.3 102 6.3 C 102 6.3 102.01 6.26 102 6.3 C 102.4 5.5 103.5 4.2 105.4 4.2 C 107.6 4.2 108.6 5.3 108.6 7.7 C 108.6 7.7 108.6 11.6 108.6 11.6 C 108.6 11.9 108.7 12 109 12 C 108.96 12.01 109.7 12 109.7 12 L 109.7 13.5 C 109.7 13.5 107.97 13.5 108 13.5 C 107.2 13.5 106.8 13.2 106.8 12.3 C 106.8 12.3 106.8 8.1 106.8 8.1 C 106.8 6.8 106.6 5.8 105.1 5.8 C 103.7 5.8 102.6 6.7 102.2 8 C 102.1 8.4 102.1 8.8 102.1 9.2 C 102.06 9.23 102.1 13.5 102.1 13.5 L 100.3 13.5 C 100.3 13.5 100.32 6.28 100.3 6.3 Z M 111.7 0.8 L 113.3 0.8 L 113.3 2.6 L 111.7 2.6 L 111.7 0.8 Z M 111.7 6.3 C 111.7 6 111.5 5.9 111.3 5.9 C 111.28 5.89 110.5 5.9 110.5 5.9 L 110.5 4.4 C 110.5 4.4 112.25 4.39 112.3 4.4 C 113.1 4.4 113.4 4.7 113.4 5.5 C 113.4 5.5 113.4 11.6 113.4 11.6 C 113.4 11.9 113.5 12 113.8 12 C 113.8 12.01 114.5 12 114.5 12 L 114.5 13.5 C 114.5 13.5 112.83 13.5 112.8 13.5 C 112 13.5 111.7 13.2 111.7 12.3 C 111.7 12.3 111.7 6.3 111.7 6.3 Z M 120.2 4.2 C 122.8 4.2 124.2 6.1 124.2 8.4 C 124.15 8.68 124.1 9.2 124.1 9.2 C 124.1 9.2 117.45 9.16 117.5 9.2 C 117.6 11.1 119 12.2 120.6 12.2 C 122.15 12.2 123.3 11.1 123.3 11.1 L 124 12.4 C 124 12.4 122.66 13.72 120.5 13.7 C 117.6 13.7 115.7 11.6 115.7 8.9 C 115.7 6 117.6 4.2 120.2 4.2 Z M 122.4 7.9 C 122.3 6.4 121.3 5.6 120.2 5.6 C 118.9 5.6 117.8 6.4 117.5 7.9 C 117.5 7.9 122.4 7.9 122.4 7.9 Z " stroke="none" fill="#ee3078"/>  </g></svg>