<?xml version="1.0" standalone="no"?><!DOCTYPE svg PUBLIC "-//W3C//DTD SVG 1.1//EN" "http://www.w3.org/Graphics/SVG/1.1/DTD/svg11.dtd"><svg xmlns="http://www.w3.org/2000/svg" version="1.1" width="93px" height="19px" viewBox="0 -3 93 19" style="top:-3px">  <desc>Cellular injury:</desc>  <defs/>  <g id="Polygon76437">    <path d="M 8 0.3 C 9.1 0.3 11.2 0.8 11.2 2.2 C 11.2 2.24 11.2 3.2 11.2 3.2 L 9.8 3.2 C 9.8 3.2 9.78 2.71 9.8 2.7 C 9.8 2.1 8.8 1.8 8 1.8 C 6.5 1.8 5.3 2.9 5.3 4.7 C 5.3 6.3 6.5 7.7 8.1 7.7 C 9.67 7.68 10.6 6.6 10.6 6.6 L 11.5 7.7 C 11.5 7.7 10.23 9.14 8 9.1 C 5.4 9.1 3.7 7.2 3.7 4.7 C 3.7 2.2 5.5 0.3 8 0.3 Z M 15.3 2.7 C 17 2.7 18 4 18 5.6 C 18.01 5.82 18 6.2 18 6.2 C 18 6.2 13.75 6.2 13.7 6.2 C 13.9 7.3 14.7 7.8 15.6 7.8 C 16.57 7.85 17.3 7.2 17.3 7.2 L 17.9 8.2 C 17.9 8.2 17 9.14 15.5 9.1 C 13.4 9.1 12.2 7.7 12.2 5.9 C 12.2 4.1 13.5 2.7 15.3 2.7 Z M 16.4 5.1 C 16.4 4.4 15.9 3.9 15.3 3.9 C 14.5 3.9 14 4.4 13.8 5.1 C 13.8 5.1 16.4 5.1 16.4 5.1 Z M 19.4 2 C 19.4 1.9 19.4 1.8 19.2 1.8 C 19.18 1.78 18.7 1.8 18.7 1.8 L 18.7 0.5 C 18.7 0.5 20.15 0.48 20.2 0.5 C 20.7 0.5 21 0.7 21 1.3 C 21 1.3 21 7.5 21 7.5 C 21 7.6 21.1 7.7 21.2 7.7 C 21.23 7.72 21.7 7.7 21.7 7.7 L 21.7 9 C 21.7 9 20.26 9 20.3 9 C 19.7 9 19.4 8.8 19.4 8.2 C 19.4 8.2 19.4 2 19.4 2 Z M 22.9 2 C 22.9 1.9 22.8 1.8 22.7 1.8 C 22.67 1.78 22.2 1.8 22.2 1.8 L 22.2 0.5 C 22.2 0.5 23.65 0.48 23.6 0.5 C 24.2 0.5 24.5 0.7 24.5 1.3 C 24.5 1.3 24.5 7.5 24.5 7.5 C 24.5 7.6 24.6 7.7 24.7 7.7 C 24.73 7.72 25.2 7.7 25.2 7.7 L 25.2 9 C 25.2 9 23.75 9 23.8 9 C 23.2 9 22.9 8.8 22.9 8.2 C 22.9 8.2 22.9 2 22.9 2 Z M 26.4 4.4 C 26.4 4.3 26.3 4.2 26.2 4.2 C 26.18 4.18 25.7 4.2 25.7 4.2 L 25.7 2.9 C 25.7 2.9 27.15 2.88 27.2 2.9 C 27.7 2.9 28 3.1 28 3.7 C 28 3.7 28 6.5 28 6.5 C 28 7.2 28.1 7.8 28.9 7.8 C 30 7.8 30.6 6.8 30.6 5.7 C 30.62 5.69 30.6 2.9 30.6 2.9 L 32.1 2.9 C 32.1 2.9 32.14 7.45 32.1 7.5 C 32.1 7.6 32.2 7.7 32.4 7.7 C 32.41 7.72 32.9 7.7 32.9 7.7 L 32.9 9 C 32.9 9 31.48 9 31.5 9 C 31 9 30.7 8.7 30.7 8.3 C 30.7 8.3 30.7 8.1 30.7 8.1 C 30.7 8 30.7 7.9 30.7 7.9 C 30.7 7.9 30.7 7.9 30.7 7.9 C 30.4 8.5 29.6 9.1 28.6 9.1 C 27.2 9.1 26.4 8.5 26.4 6.8 C 26.4 6.8 26.4 4.4 26.4 4.4 Z M 34.1 2 C 34.1 1.9 34 1.8 33.8 1.8 C 33.82 1.78 33.3 1.8 33.3 1.8 L 33.3 0.5 C 33.3 0.5 34.79 0.48 34.8 0.5 C 35.4 0.5 35.6 0.7 35.6 1.3 C 35.6 1.3 35.6 7.5 35.6 7.5 C 35.6 7.6 35.7 7.7 35.9 7.7 C 35.87 7.72 36.3 7.7 36.3 7.7 L 36.3 9 C 36.3 9 34.9 9 34.9 9 C 34.3 9 34.1 8.8 34.1 8.2 C 34.1 8.2 34.1 2 34.1 2 Z M 40.7 5.2 C 40.65 5.16 40.8 5.2 40.8 5.2 C 40.8 5.2 40.84 5.11 40.8 5.1 C 40.8 4.2 40.5 3.9 39.7 3.9 C 39.4 3.9 38.9 4 38.9 4.3 C 38.9 4.32 38.9 4.6 38.9 4.6 L 37.5 4.6 C 37.5 4.6 37.48 4 37.5 4 C 37.5 2.9 39.1 2.7 39.7 2.7 C 41.8 2.7 42.4 3.8 42.4 5.2 C 42.4 5.2 42.4 7.5 42.4 7.5 C 42.4 7.6 42.5 7.7 42.6 7.7 C 42.63 7.72 43.1 7.7 43.1 7.7 L 43.1 9 C 43.1 9 41.74 9 41.7 9 C 41.2 9 41 8.7 41 8.3 C 41 8.2 41 8.1 41 8.1 C 40.97 8.06 41 8.1 41 8.1 C 41 8.1 40.48 9.14 39.1 9.1 C 38 9.1 37 8.5 37 7.2 C 37 5.3 39.7 5.2 40.7 5.2 Z M 39.5 8 C 40.3 8 40.9 7.1 40.9 6.3 C 40.87 6.35 40.9 6.2 40.9 6.2 C 40.9 6.2 40.6 6.2 40.6 6.2 C 39.8 6.2 38.5 6.3 38.5 7.2 C 38.5 7.6 38.8 8 39.5 8 Z M 44.3 4.4 C 44.3 4.3 44.2 4.2 44.1 4.2 C 44.07 4.18 43.6 4.2 43.6 4.2 L 43.6 2.9 C 43.6 2.9 44.98 2.88 45 2.9 C 45.5 2.9 45.8 3.1 45.8 3.6 C 45.8 3.6 45.8 4 45.8 4 C 45.8 4.21 45.8 4.4 45.8 4.4 C 45.8 4.4 45.8 4.37 45.8 4.4 C 46.1 3.5 46.8 2.8 47.7 2.8 C 47.87 2.8 48 2.8 48 2.8 L 48 4.3 C 48 4.3 47.86 4.3 47.6 4.3 C 47 4.3 46.3 4.7 46 5.6 C 45.9 5.9 45.8 6.2 45.8 6.6 C 45.84 6.58 45.8 9 45.8 9 L 44.3 9 C 44.3 9 44.33 4.44 44.3 4.4 Z M 52.6 0.5 L 53.9 0.5 L 53.9 1.9 L 52.6 1.9 L 52.6 0.5 Z M 52.5 4.4 C 52.5 4.3 52.4 4.2 52.2 4.2 C 52.24 4.18 51.8 4.2 51.8 4.2 L 51.8 2.9 C 51.8 2.9 53.21 2.88 53.2 2.9 C 53.8 2.9 54 3.1 54 3.7 C 54 3.7 54 7.5 54 7.5 C 54 7.6 54.1 7.7 54.3 7.7 C 54.28 7.72 54.8 7.7 54.8 7.7 L 54.8 9 C 54.8 9 53.31 9 53.3 9 C 52.7 9 52.5 8.8 52.5 8.2 C 52.5 8.2 52.5 4.4 52.5 4.4 Z M 56 4.4 C 56 4.3 56 4.2 55.8 4.2 C 55.78 4.18 55.3 4.2 55.3 4.2 L 55.3 2.9 C 55.3 2.9 56.71 2.88 56.7 2.9 C 57.2 2.9 57.5 3.1 57.5 3.6 C 57.5 3.6 57.5 3.7 57.5 3.7 C 57.5 3.9 57.5 4 57.5 4 C 57.5 4 57.5 4 57.5 4 C 57.8 3.5 58.4 2.7 59.7 2.7 C 61 2.7 61.8 3.4 61.8 5.1 C 61.8 5.1 61.8 7.5 61.8 7.5 C 61.8 7.6 61.9 7.7 62.1 7.7 C 62.07 7.72 62.5 7.7 62.5 7.7 L 62.5 9 C 62.5 9 61.1 9 61.1 9 C 60.5 9 60.3 8.8 60.3 8.2 C 60.3 8.2 60.3 5.4 60.3 5.4 C 60.3 4.6 60.1 4.1 59.3 4.1 C 58.5 4.1 57.9 4.6 57.7 5.4 C 57.6 5.6 57.6 5.9 57.6 6.2 C 57.56 6.19 57.6 9 57.6 9 L 56 9 C 56 9 56.05 4.44 56 4.4 Z M 64.1 0.5 L 65.4 0.5 L 65.4 1.9 L 64.1 1.9 L 64.1 0.5 Z M 62.8 10.2 C 63.2 10.2 64 10.1 64 9.1 C 64 9.1 64 4.4 64 4.4 C 64 4.3 63.9 4.2 63.8 4.2 C 63.76 4.18 63.3 4.2 63.3 4.2 L 63.3 2.9 C 63.3 2.9 64.73 2.88 64.7 2.9 C 65.3 2.9 65.5 3.1 65.5 3.7 C 65.5 3.7 65.5 9.2 65.5 9.2 C 65.5 11.2 63.8 11.5 63 11.5 C 62.7 11.5 62.5 11.4 62.5 11.4 C 62.54 11.45 62.5 10.2 62.5 10.2 C 62.5 10.2 62.65 10.19 62.8 10.2 Z M 67.4 4.4 C 67.4 4.3 67.3 4.2 67.1 4.2 C 67.13 4.18 66.7 4.2 66.7 4.2 L 66.7 2.9 C 66.7 2.9 68.11 2.88 68.1 2.9 C 68.7 2.9 68.9 3.1 68.9 3.7 C 68.9 3.7 68.9 6.5 68.9 6.5 C 68.9 7.2 69.1 7.8 69.9 7.8 C 71 7.8 71.6 6.8 71.6 5.7 C 71.57 5.69 71.6 2.9 71.6 2.9 L 73.1 2.9 C 73.1 2.9 73.1 7.45 73.1 7.5 C 73.1 7.6 73.2 7.7 73.4 7.7 C 73.36 7.72 73.8 7.7 73.8 7.7 L 73.8 9 C 73.8 9 72.44 9 72.4 9 C 71.9 9 71.6 8.7 71.6 8.3 C 71.6 8.3 71.6 8.1 71.6 8.1 C 71.6 8 71.6 7.9 71.6 7.9 C 71.6 7.9 71.6 7.9 71.6 7.9 C 71.3 8.5 70.6 9.1 69.5 9.1 C 68.2 9.1 67.4 8.5 67.4 6.8 C 67.4 6.8 67.4 4.4 67.4 4.4 Z M 75.1 4.4 C 75.1 4.3 75 4.2 74.8 4.2 C 74.81 4.18 74.3 4.2 74.3 4.2 L 74.3 2.9 C 74.3 2.9 75.73 2.88 75.7 2.9 C 76.3 2.9 76.5 3.1 76.5 3.6 C 76.5 3.6 76.5 4 76.5 4 C 76.54 4.21 76.5 4.4 76.5 4.4 C 76.5 4.4 76.54 4.37 76.5 4.4 C 76.8 3.5 77.5 2.8 78.5 2.8 C 78.62 2.8 78.8 2.8 78.8 2.8 L 78.8 4.3 C 78.8 4.3 78.6 4.3 78.4 4.3 C 77.7 4.3 77 4.7 76.7 5.6 C 76.6 5.9 76.6 6.2 76.6 6.6 C 76.59 6.58 76.6 9 76.6 9 L 75.1 9 C 75.1 9 75.08 4.44 75.1 4.4 Z M 80.7 10.2 C 81.1 10.2 81.4 10 81.7 9.5 C 81.66 9.46 81.9 9 81.9 9 C 81.9 9 79.83 4.39 79.8 4.4 C 79.8 4.2 79.7 4.2 79.5 4.2 C 79.51 4.18 79.3 4.2 79.3 4.2 L 79.3 2.9 C 79.3 2.9 80.33 2.88 80.3 2.9 C 80.8 2.9 81 3 81.1 3.5 C 81.1 3.5 82.3 6.5 82.3 6.5 C 82.46 6.83 82.6 7.3 82.6 7.3 L 82.6 7.3 C 82.6 7.3 82.67 6.83 82.8 6.5 C 82.8 6.5 83.8 3.5 83.8 3.5 C 84 3 84.2 2.9 84.6 2.9 C 84.64 2.88 85.7 2.9 85.7 2.9 L 85.7 4.2 C 85.7 4.2 85.49 4.18 85.5 4.2 C 85.3 4.2 85.2 4.2 85.1 4.4 C 85.1 4.4 82.9 9.9 82.9 9.9 C 82.5 11 81.7 11.5 80.7 11.5 C 79.78 11.52 79.2 10.9 79.2 10.9 L 79.8 9.8 C 79.8 9.8 80.15 10.24 80.7 10.2 Z M 86.9 2.9 L 88.4 2.9 L 88.4 4.4 L 86.9 4.4 L 86.9 2.9 Z M 86.9 7.5 L 88.4 7.5 L 88.4 9 L 86.9 9 L 86.9 7.5 Z " stroke="none" fill="#67aeca"/>  </g></svg>