<?xml version="1.0" standalone="no"?><!DOCTYPE svg PUBLIC "-//W3C//DTD SVG 1.1//EN" "http://www.w3.org/Graphics/SVG/1.1/DTD/svg11.dtd"><svg xmlns="http://www.w3.org/2000/svg" version="1.1" width="150.2px" height="30.5px" viewBox="0 -3 150.2 30.5" style="top:-3px">  <desc>E4 estetrol</desc>  <defs/>  <g id="Polygon70589">    <path d="M 41.2 2.1 L 40.3 2.1 L 40.3 0.6 C 40.3 0.6 46.29 0.56 46.3 0.6 C 46.9 0.6 47.2 0.9 47.2 1.5 C 47.24 1.51 47.2 3 47.2 3 L 45.6 3 C 45.6 3 45.57 2.42 45.6 2.4 C 45.6 2.2 45.5 2.1 45.3 2.1 C 45.26 2.11 43 2.1 43 2.1 L 43 4.7 L 46.2 4.7 L 46.2 6.3 L 43 6.3 C 43 6.3 43.02 8.64 43 8.6 C 43 8.8 43.1 8.9 43.3 8.9 C 43.3 8.9 45.6 8.9 45.6 8.9 C 45.8 8.9 45.9 8.8 45.9 8.6 C 45.94 8.64 45.9 8 45.9 8 L 47.6 8 C 47.6 8 47.6 9.55 47.6 9.5 C 47.6 10.2 47.3 10.5 46.6 10.5 C 46.6 10.5 42.1 10.5 42.1 10.5 C 41.5 10.5 41.2 10.2 41.2 9.5 C 41.19 9.55 41.2 2.1 41.2 2.1 Z M 48.1 6.8 L 52.3 0.6 L 54.4 0.6 L 54.4 6.4 L 55.9 6.4 L 55.9 8 L 54.4 8 L 54.4 10.5 L 52.6 10.5 L 52.6 8 L 48.1 8 L 48.1 6.8 Z M 52.6 3.7 C 52.61 3.19 52.7 2.6 52.7 2.6 L 52.7 2.6 C 52.7 2.6 52.38 3.14 52.1 3.5 C 52.1 3.5 50.6 5.8 50.6 5.8 C 50.3 6.17 50.1 6.5 50.1 6.5 L 50.1 6.5 C 50.1 6.5 50.47 6.44 50.9 6.4 C 50.93 6.44 52.6 6.4 52.6 6.4 C 52.6 6.4 52.61 3.68 52.6 3.7 Z M 63.9 3.2 C 66 3.2 67.1 4.7 67.1 6.6 C 67.09 6.79 67 7.2 67 7.2 C 67 7.2 62.12 7.24 62.1 7.2 C 62.3 8.5 63.2 9.2 64.3 9.2 C 65.41 9.16 66.3 8.4 66.3 8.4 L 67 9.6 C 67 9.6 65.91 10.67 64.1 10.7 C 61.8 10.7 60.3 9 60.3 6.9 C 60.3 4.7 61.8 3.2 63.9 3.2 Z M 65.3 6 C 65.2 5.2 64.7 4.6 63.9 4.6 C 63 4.6 62.4 5.1 62.2 6 C 62.2 6 65.3 6 65.3 6 Z M 68.8 8.2 C 68.8 8.2 69.75 9.28 71 9.3 C 71.5 9.3 71.9 9.1 71.9 8.6 C 71.9 7.6 68.2 7.6 68.2 5.3 C 68.2 3.9 69.5 3.2 70.9 3.2 C 71.9 3.2 73.4 3.5 73.4 4.7 C 73.44 4.68 73.4 5.4 73.4 5.4 L 71.9 5.4 C 71.9 5.4 71.88 5.07 71.9 5.1 C 71.9 4.7 71.4 4.6 71 4.6 C 70.4 4.6 69.9 4.8 69.9 5.2 C 69.9 6.3 73.7 6.1 73.7 8.5 C 73.7 9.8 72.5 10.7 71 10.7 C 69.01 10.67 68 9.4 68 9.4 L 68.8 8.2 Z M 75.4 4.8 L 74.5 4.8 L 74.5 3.4 L 75.4 3.4 L 75.4 1.4 L 77.2 1.4 L 77.2 3.4 L 78.8 3.4 L 78.8 4.8 L 77.2 4.8 C 77.2 4.8 77.17 7.66 77.2 7.7 C 77.2 8.8 78.1 9 78.6 9 C 78.78 9 78.9 9 78.9 9 L 78.9 10.5 C 78.9 10.5 78.68 10.57 78.4 10.6 C 77.4 10.6 75.4 10.3 75.4 7.9 C 75.39 7.88 75.4 4.8 75.4 4.8 Z M 83.3 3.2 C 85.4 3.2 86.5 4.7 86.5 6.6 C 86.51 6.79 86.5 7.2 86.5 7.2 C 86.5 7.2 81.54 7.24 81.5 7.2 C 81.7 8.5 82.6 9.2 83.7 9.2 C 84.83 9.16 85.7 8.4 85.7 8.4 L 86.4 9.6 C 86.4 9.6 85.33 10.67 83.6 10.7 C 81.2 10.7 79.7 9 79.7 6.9 C 79.7 4.7 81.2 3.2 83.3 3.2 Z M 84.7 6 C 84.7 5.2 84.1 4.6 83.3 4.6 C 82.4 4.6 81.8 5.1 81.6 6 C 81.6 6 84.7 6 84.7 6 Z M 88.3 4.8 L 87.3 4.8 L 87.3 3.4 L 88.3 3.4 L 88.3 1.4 L 90 1.4 L 90 3.4 L 91.7 3.4 L 91.7 4.8 L 90 4.8 C 90 4.8 90.03 7.66 90 7.7 C 90 8.8 91 9 91.4 9 C 91.64 9 91.8 9 91.8 9 L 91.8 10.5 C 91.8 10.5 91.55 10.57 91.2 10.6 C 90.2 10.6 88.3 10.3 88.3 7.9 C 88.26 7.88 88.3 4.8 88.3 4.8 Z M 93.4 5.2 C 93.4 5 93.3 4.9 93.1 4.9 C 93.1 4.87 92.5 4.9 92.5 4.9 L 92.5 3.4 C 92.5 3.4 94.17 3.36 94.2 3.4 C 94.8 3.4 95.1 3.6 95.1 4.2 C 95.1 4.2 95.1 4.6 95.1 4.6 C 95.12 4.91 95.1 5.1 95.1 5.1 C 95.1 5.1 95.12 5.1 95.1 5.1 C 95.4 4.1 96.3 3.3 97.4 3.3 C 97.54 3.26 97.7 3.3 97.7 3.3 L 97.7 5 C 97.7 5 97.52 5.01 97.3 5 C 96.5 5 95.6 5.4 95.3 6.5 C 95.2 6.9 95.2 7.3 95.2 7.7 C 95.17 7.67 95.2 10.5 95.2 10.5 L 93.4 10.5 C 93.4 10.5 93.41 5.18 93.4 5.2 Z M 102.1 3.2 C 104.3 3.2 106 4.7 106 6.9 C 106 9.1 104.3 10.7 102.1 10.7 C 99.9 10.7 98.2 9.1 98.2 6.9 C 98.2 4.7 99.9 3.2 102.1 3.2 Z M 102.1 9.2 C 103.3 9.2 104.2 8.3 104.2 6.9 C 104.2 5.6 103.3 4.7 102.1 4.7 C 101 4.7 100 5.6 100 6.9 C 100 8.3 101 9.2 102.1 9.2 Z M 107.5 2.4 C 107.5 2.2 107.4 2.1 107.2 2.1 C 107.17 2.07 106.6 2.1 106.6 2.1 L 106.6 0.6 C 106.6 0.6 108.3 0.56 108.3 0.6 C 109 0.6 109.3 0.9 109.3 1.5 C 109.3 1.5 109.3 8.7 109.3 8.7 C 109.3 8.9 109.4 9 109.6 9 C 109.56 9 110.1 9 110.1 9 L 110.1 10.5 C 110.1 10.5 108.43 10.5 108.4 10.5 C 107.8 10.5 107.5 10.2 107.5 9.5 C 107.5 9.5 107.5 2.4 107.5 2.4 Z " stroke="none" fill="#5f0f50"/>  </g></svg>