<?xml version="1.0" standalone="no"?><!DOCTYPE svg PUBLIC "-//W3C//DTD SVG 1.1//EN" "http://www.w3.org/Graphics/SVG/1.1/DTD/svg11.dtd"><svg xmlns="http://www.w3.org/2000/svg" version="1.1" width="526.1px" height="43.5px" viewBox="0 -5 526.1 43.5" style="top:-5px">  <desc>Spokojnos a zn anlivos</desc>  <defs/>  <g id="Polygon71757">    <path d="M 2.3 18.8 L 13.3 14 L 13.3 13.9 L 2.3 9.2 L 2.3 7.2 L 15.9 13.2 L 15.9 14.7 L 2.3 20.8 L 2.3 18.8 Z M 28.7 18.3 C 28.7 18.3 30.87 20.91 34.2 20.9 C 36.5 20.9 38.4 19.4 38.4 17.2 C 38.4 11.9 28 13 28 6.5 C 28 3.5 30.5 1.1 34.4 1.1 C 36.4 1.1 40.1 1.9 40.1 4.7 C 40.11 4.68 40.1 6.2 40.1 6.2 L 38.1 6.2 C 38.1 6.2 38.13 5.19 38.1 5.2 C 38.1 3.9 36.4 3 34.4 3 C 31.7 3 30.1 4.6 30.1 6.4 C 30.1 11.3 40.5 10.1 40.5 17 C 40.5 20.2 38.1 22.9 34.1 22.9 C 29.82 22.86 27.4 19.9 27.4 19.9 L 28.7 18.3 Z M 44.6 9.8 C 44.6 9.4 44.4 9.2 44 9.2 C 43.98 9.18 42.7 9.2 42.7 9.2 L 42.7 7.4 C 42.7 7.4 44.79 7.41 44.8 7.4 C 46.1 7.4 46.6 8 46.6 9 C 46.59 9.6 46.6 10 46.6 10 L 46.6 10 C 46.6 10 47.82 7.05 51.8 7.1 C 55.9 7.1 58.4 10.3 58.4 15 C 58.4 19.7 55.5 22.9 51.6 22.9 C 47.94 22.86 46.7 20 46.7 20 L 46.6 20 C 46.6 20 46.68 20.55 46.7 21.3 C 46.68 21.33 46.7 28.5 46.7 28.5 L 44.6 28.5 C 44.6 28.5 44.64 9.84 44.6 9.8 Z M 51.4 21.1 C 54.1 21.1 56.3 18.8 56.3 15 C 56.3 11.3 54.3 8.9 51.5 8.9 C 49 8.9 46.6 10.7 46.6 15 C 46.6 18 48.3 21.1 51.4 21.1 Z M 68.8 7.1 C 73.2 7.1 76.8 10.4 76.8 14.9 C 76.8 19.4 73.2 22.9 68.8 22.9 C 64.4 22.9 60.8 19.4 60.8 14.9 C 60.8 10.4 64.4 7.1 68.8 7.1 Z M 68.8 21 C 72 21 74.7 18.4 74.7 14.9 C 74.7 11.5 72 8.9 68.8 8.9 C 65.6 8.9 62.9 11.5 62.9 14.9 C 62.9 18.4 65.6 21 68.8 21 Z M 80.2 3.8 C 80.2 3.4 80 3.2 79.6 3.2 C 79.56 3.18 78.3 3.2 78.3 3.2 L 78.3 1.4 C 78.3 1.4 80.43 1.41 80.4 1.4 C 81.7 1.4 82.3 1.9 82.3 3.1 C 82.26 3.15 82.3 13.2 82.3 13.2 C 82.3 13.2 83.82 13.17 83.8 13.2 C 84.4 13.2 85.1 13 85.5 12.4 C 85.53 12.45 89.4 7.4 89.4 7.4 L 91.9 7.4 C 91.9 7.4 87.54 12.93 87.5 12.9 C 86.79 13.86 86.4 14 86.4 14 L 86.4 14.1 C 86.4 14.1 86.85 14.28 87.3 15.2 C 87.3 15.2 90.1 20.1 90.1 20.1 C 90.3 20.6 90.6 20.7 91.4 20.7 C 91.44 20.73 92.2 20.7 92.2 20.7 L 92.2 22.5 C 92.2 22.5 90.84 22.5 90.8 22.5 C 89.3 22.5 88.9 22.3 88.2 21 C 88.2 21 85.2 15.6 85.2 15.6 C 84.9 15 84.2 14.9 83.6 14.9 C 83.64 14.94 82.3 14.9 82.3 14.9 L 82.3 22.5 L 80.2 22.5 C 80.2 22.5 80.22 3.84 80.2 3.8 Z M 101.5 7.1 C 105.9 7.1 109.5 10.4 109.5 14.9 C 109.5 19.4 105.9 22.9 101.5 22.9 C 97.1 22.9 93.5 19.4 93.5 14.9 C 93.5 10.4 97.1 7.1 101.5 7.1 Z M 101.5 21 C 104.7 21 107.4 18.4 107.4 14.9 C 107.4 11.5 104.7 8.9 101.5 8.9 C 98.3 8.9 95.6 11.5 95.6 14.9 C 95.6 18.4 98.3 21 101.5 21 Z M 114.1 1.4 L 116 1.4 L 116 4 L 114.1 4 L 114.1 1.4 Z M 110.7 26.8 C 111.9 26.8 114.1 26.4 114.1 23 C 114.1 23 114.1 9.8 114.1 9.8 C 114.1 9.4 113.9 9.2 113.5 9.2 C 113.46 9.18 112.2 9.2 112.2 9.2 L 112.2 7.4 C 112.2 7.4 114.33 7.41 114.3 7.4 C 115.6 7.4 116.2 8 116.2 9.2 C 116.2 9.2 116.2 23.1 116.2 23.1 C 116.2 28.1 112.6 28.7 110.9 28.7 C 110.37 28.68 110 28.6 110 28.6 L 110 26.8 C 110 26.8 110.31 26.85 110.7 26.8 Z M 121.3 9.8 C 121.3 9.4 121.1 9.2 120.7 9.2 C 120.66 9.18 119.4 9.2 119.4 9.2 L 119.4 7.4 C 119.4 7.4 121.5 7.41 121.5 7.4 C 122.8 7.4 123.3 8 123.3 9.1 C 123.3 9.1 123.3 9.8 123.3 9.8 C 123.33 10.38 123.3 10.9 123.3 10.9 C 123.3 10.9 123.33 10.86 123.3 10.9 C 123.9 9.5 125.8 7.1 129.3 7.1 C 133.1 7.1 134.4 9.2 134.4 12.9 C 134.4 12.9 134.4 20.1 134.4 20.1 C 134.4 20.5 134.6 20.7 135.1 20.7 C 135.06 20.73 136.3 20.7 136.3 20.7 L 136.3 22.5 C 136.3 22.5 134.19 22.5 134.2 22.5 C 132.9 22.5 132.4 22 132.4 20.7 C 132.4 20.7 132.4 13.4 132.4 13.4 C 132.4 11.1 132 9 129.1 9 C 126.5 9 124.3 10.7 123.6 13.2 C 123.4 13.9 123.4 14.6 123.4 15.3 C 123.36 15.27 123.4 22.5 123.4 22.5 L 121.3 22.5 C 121.3 22.5 121.32 9.84 121.3 9.8 Z M 146.1 7.1 C 150.5 7.1 154.1 10.4 154.1 14.9 C 154.1 19.4 150.5 22.9 146.1 22.9 C 141.7 22.9 138.1 19.4 138.1 14.9 C 138.1 10.4 141.7 7.1 146.1 7.1 Z M 146.1 21 C 149.3 21 152 18.4 152 14.9 C 152 11.5 149.3 8.9 146.1 8.9 C 142.9 8.9 140.2 11.5 140.2 14.9 C 140.2 18.4 142.9 21 146.1 21 Z M 157.3 18.8 C 157.3 18.8 159 21.09 162 21.1 C 163.6 21.1 165.1 20.3 165.1 18.7 C 165.1 15.4 156.7 16 156.7 11.1 C 156.7 8.4 159 7.1 162.1 7.1 C 163.6 7.1 166.6 7.7 166.6 9.8 C 166.65 9.78 166.6 11.1 166.6 11.1 L 164.7 11.1 C 164.7 11.1 164.73 10.35 164.7 10.4 C 164.7 9.2 163.1 8.8 162.1 8.8 C 160 8.8 158.8 9.5 158.8 11 C 158.8 14.4 167.2 13.6 167.2 18.6 C 167.2 21.1 164.9 22.9 161.9 22.9 C 158.01 22.86 156.1 20.2 156.1 20.2 L 157.3 18.8 Z M 171.3 9.1 L 169.3 9.1 L 169.3 7.4 L 171.3 7.4 L 171.3 3.2 L 173.3 3.2 L 173.3 7.4 L 177.1 7.4 L 177.1 9.1 L 173.3 9.1 C 173.3 9.1 173.34 16.8 173.3 16.8 C 173.3 20.3 175.6 20.8 176.7 20.8 C 177.15 20.79 177.4 20.7 177.4 20.7 L 177.4 22.6 C 177.4 22.6 177.06 22.62 176.5 22.6 C 174.8 22.6 171.3 22.1 171.3 17 C 171.3 17.01 171.3 9.1 171.3 9.1 Z M 177.2 1.4 C 177.4 1.9 177.4 2.4 177.4 2.9 C 177.4 3.8 177.2 4.5 176.7 5.5 C 176.7 5.5 175.1 5.5 175.1 5.5 C 175.5 4.6 175.7 3.9 175.7 3.1 C 175.7 2.6 175.6 2 175.4 1.4 C 175.4 1.4 177.2 1.4 177.2 1.4 Z M 197.5 13.2 C 197.52 13.2 198.4 13.2 198.4 13.2 C 198.4 13.2 198.36 13.02 198.4 13 C 198.4 9.9 197.2 8.8 194.5 8.8 C 193.7 8.8 191.5 9 191.5 10.1 C 191.52 10.08 191.5 11 191.5 11 L 189.6 11 C 189.6 11 189.57 9.6 189.6 9.6 C 189.6 7.5 193.2 7.1 194.5 7.1 C 199.3 7.1 200.4 9.6 200.4 12.8 C 200.4 12.8 200.4 20.1 200.4 20.1 C 200.4 20.5 200.6 20.7 201.1 20.7 C 201.06 20.73 202.3 20.7 202.3 20.7 L 202.3 22.5 C 202.3 22.5 200.25 22.5 200.2 22.5 C 199 22.5 198.4 21.9 198.4 20.7 C 198.45 20.04 198.5 19.6 198.5 19.6 C 198.5 19.6 198.42 19.59 198.4 19.6 C 198.4 19.6 197.2 22.9 193.4 22.9 C 190.9 22.9 188.3 21.4 188.3 18.4 C 188.3 13.4 194.9 13.2 197.5 13.2 Z M 193.7 21.1 C 196.6 21.1 198.4 18.1 198.4 15.5 C 198.36 15.51 198.4 14.8 198.4 14.8 C 198.4 14.8 197.49 14.82 197.5 14.8 C 195.1 14.8 190.4 14.9 190.4 18.3 C 190.4 19.7 191.5 21.1 193.7 21.1 Z M 212.3 21.2 C 212.3 21.2 220.77 10.59 220.8 10.6 C 221.34 9.87 222 9.2 222 9.2 L 222 9.2 C 222 9.2 221.46 9.21 220.5 9.2 C 220.5 9.2 214.9 9.2 214.9 9.2 C 214.5 9.2 214.3 9.4 214.3 9.9 C 214.29 9.87 214.3 11 214.3 11 L 212.4 11 C 212.4 11 212.37 9.24 212.4 9.2 C 212.4 8 212.9 7.4 214.2 7.4 C 214.2 7.41 224.7 7.4 224.7 7.4 L 224.7 8.8 C 224.7 8.8 216.21 19.32 216.2 19.3 C 215.61 20.04 214.9 20.7 214.9 20.7 L 214.9 20.8 C 214.9 20.8 215.49 20.7 216.5 20.7 C 216.5 20.7 222.7 20.7 222.7 20.7 C 223.1 20.7 223.4 20.5 223.4 20 C 223.38 20.04 223.4 18.9 223.4 18.9 L 225.3 18.9 C 225.3 18.9 225.3 20.67 225.3 20.7 C 225.3 22 224.8 22.5 223.5 22.5 C 223.47 22.5 212.3 22.5 212.3 22.5 L 212.3 21.2 Z M 228.7 9.8 C 228.7 9.4 228.4 9.2 228 9.2 C 228.03 9.18 226.8 9.2 226.8 9.2 L 226.8 7.4 C 226.8 7.4 228.87 7.41 228.9 7.4 C 230.1 7.4 230.7 8 230.7 9.1 C 230.7 9.1 230.7 9.8 230.7 9.8 C 230.7 10.38 230.6 10.9 230.6 10.9 C 230.6 10.9 230.7 10.86 230.7 10.9 C 231.2 9.5 233.2 7.1 236.7 7.1 C 240.4 7.1 241.8 9.2 241.8 12.9 C 241.8 12.9 241.8 20.1 241.8 20.1 C 241.8 20.5 242 20.7 242.4 20.7 C 242.43 20.73 243.7 20.7 243.7 20.7 L 243.7 22.5 C 243.7 22.5 241.56 22.5 241.6 22.5 C 240.3 22.5 239.7 22 239.7 20.7 C 239.7 20.7 239.7 13.4 239.7 13.4 C 239.7 11.1 239.4 9 236.5 9 C 233.9 9 231.7 10.7 231 13.2 C 230.8 13.9 230.7 14.6 230.7 15.3 C 230.73 15.27 230.7 22.5 230.7 22.5 L 228.7 22.5 C 228.7 22.5 228.69 9.84 228.7 9.8 Z M 254.8 13.2 C 254.75 13.2 255.6 13.2 255.6 13.2 C 255.6 13.2 255.59 13.02 255.6 13 C 255.6 9.9 254.5 8.8 251.7 8.8 C 250.9 8.8 248.8 9 248.8 10.1 C 248.75 10.08 248.8 11 248.8 11 L 246.8 11 C 246.8 11 246.8 9.6 246.8 9.6 C 246.8 7.5 250.4 7.1 251.7 7.1 C 256.5 7.1 257.6 9.6 257.6 12.8 C 257.6 12.8 257.6 20.1 257.6 20.1 C 257.6 20.5 257.9 20.7 258.3 20.7 C 258.29 20.73 259.6 20.7 259.6 20.7 L 259.6 22.5 C 259.6 22.5 257.48 22.5 257.5 22.5 C 256.2 22.5 255.7 21.9 255.7 20.7 C 255.68 20.04 255.7 19.6 255.7 19.6 C 255.7 19.6 255.65 19.59 255.7 19.6 C 255.7 19.6 254.4 22.9 250.6 22.9 C 248.1 22.9 245.5 21.4 245.5 18.4 C 245.5 13.4 252.1 13.2 254.8 13.2 Z M 251 21.1 C 253.9 21.1 255.6 18.1 255.6 15.5 C 255.59 15.51 255.6 14.8 255.6 14.8 C 255.6 14.8 254.72 14.82 254.7 14.8 C 252.4 14.8 247.6 14.9 247.6 18.3 C 247.6 19.7 248.7 21.1 251 21.1 Z M 253.3 1.4 L 255.6 1.4 L 253 5 L 251.2 5 L 253.3 1.4 Z M 262.2 18.8 C 262.2 18.8 263.9 21.09 266.9 21.1 C 268.6 21.1 270.1 20.3 270.1 18.7 C 270.1 15.4 261.6 16 261.6 11.1 C 261.6 8.4 263.9 7.1 267 7.1 C 268.5 7.1 271.6 7.7 271.6 9.8 C 271.55 9.78 271.6 11.1 271.6 11.1 L 269.6 11.1 C 269.6 11.1 269.63 10.35 269.6 10.4 C 269.6 9.2 268 8.8 267 8.8 C 264.9 8.8 263.7 9.5 263.7 11 C 263.7 14.4 272.1 13.6 272.1 18.6 C 272.1 21.1 269.8 22.9 266.8 22.9 C 262.91 22.86 261.1 20.2 261.1 20.2 L 262.2 18.8 Z M 263.2 1.4 L 265.1 1.4 L 266.8 3.8 L 266.8 3.8 L 268.4 1.4 L 270.3 1.4 L 267.8 5 L 265.7 5 L 263.2 1.4 Z M 283.8 13.2 C 283.82 13.2 284.7 13.2 284.7 13.2 C 284.7 13.2 284.66 13.02 284.7 13 C 284.7 9.9 283.5 8.8 280.8 8.8 C 280 8.8 277.8 9 277.8 10.1 C 277.82 10.08 277.8 11 277.8 11 L 275.9 11 C 275.9 11 275.87 9.6 275.9 9.6 C 275.9 7.5 279.5 7.1 280.8 7.1 C 285.6 7.1 286.7 9.6 286.7 12.8 C 286.7 12.8 286.7 20.1 286.7 20.1 C 286.7 20.5 286.9 20.7 287.4 20.7 C 287.36 20.73 288.6 20.7 288.6 20.7 L 288.6 22.5 C 288.6 22.5 286.55 22.5 286.6 22.5 C 285.3 22.5 284.8 21.9 284.8 20.7 C 284.75 20.04 284.8 19.6 284.8 19.6 C 284.8 19.6 284.72 19.59 284.7 19.6 C 284.8 19.6 283.5 22.9 279.7 22.9 C 277.2 22.9 274.6 21.4 274.6 18.4 C 274.6 13.4 281.2 13.2 283.8 13.2 Z M 280 21.1 C 282.9 21.1 284.7 18.1 284.7 15.5 C 284.66 15.51 284.7 14.8 284.7 14.8 C 284.7 14.8 283.79 14.82 283.8 14.8 C 281.4 14.8 276.7 14.9 276.7 18.3 C 276.7 19.7 277.8 21.1 280 21.1 Z M 291.9 9.8 C 291.9 9.4 291.6 9.2 291.2 9.2 C 291.2 9.18 289.9 9.2 289.9 9.2 L 289.9 7.4 C 289.9 7.4 292.04 7.41 292 7.4 C 293.3 7.4 293.9 8 293.9 9.1 C 293.9 9.1 293.9 9.8 293.9 9.8 C 293.87 10.38 293.8 10.9 293.8 10.9 C 293.8 10.9 293.87 10.86 293.9 10.9 C 294.4 9.5 296.3 7.1 299.9 7.1 C 303.6 7.1 304.9 9.2 304.9 12.9 C 304.9 12.9 304.9 20.1 304.9 20.1 C 304.9 20.5 305.2 20.7 305.6 20.7 C 305.6 20.73 306.9 20.7 306.9 20.7 L 306.9 22.5 C 306.9 22.5 304.73 22.5 304.7 22.5 C 303.4 22.5 302.9 22 302.9 20.7 C 302.9 20.7 302.9 13.4 302.9 13.4 C 302.9 11.1 302.5 9 299.6 9 C 297.1 9 294.8 10.7 294.1 13.2 C 294 13.9 293.9 14.6 293.9 15.3 C 293.9 15.27 293.9 22.5 293.9 22.5 L 291.9 22.5 C 291.9 22.5 291.86 9.84 291.9 9.8 Z M 310.1 3.8 C 310.1 3.4 309.8 3.2 309.4 3.2 C 309.41 3.18 308.2 3.2 308.2 3.2 L 308.2 1.4 C 308.2 1.4 310.28 1.41 310.3 1.4 C 311.6 1.4 312.1 2 312.1 3.2 C 312.1 3.2 312.1 20.1 312.1 20.1 C 312.1 20.5 312.4 20.7 312.8 20.7 C 312.77 20.73 314 20.7 314 20.7 L 314 22.5 C 314 22.5 311.9 22.5 311.9 22.5 C 310.6 22.5 310.1 22 310.1 20.7 C 310.1 20.7 310.1 3.8 310.1 3.8 Z M 317.5 1.4 L 319.5 1.4 L 319.5 4 L 317.5 4 L 317.5 1.4 Z M 317.6 9.8 C 317.6 9.4 317.4 9.2 316.9 9.2 C 316.94 9.18 315.7 9.2 315.7 9.2 L 315.7 7.4 C 315.7 7.4 317.81 7.41 317.8 7.4 C 319.1 7.4 319.6 8 319.6 9.2 C 319.6 9.2 319.6 20.1 319.6 20.1 C 319.6 20.5 319.9 20.7 320.3 20.7 C 320.3 20.73 321.6 20.7 321.6 20.7 L 321.6 22.5 C 321.6 22.5 319.43 22.5 319.4 22.5 C 318.1 22.5 317.6 22 317.6 20.7 C 317.6 20.7 317.6 9.8 317.6 9.8 Z M 324 9.9 C 323.8 9.3 323.5 9.2 322.9 9.2 C 322.91 9.18 322.6 9.2 322.6 9.2 L 322.6 7.4 C 322.6 7.4 323.45 7.41 323.5 7.4 C 324.9 7.4 325.3 7.7 325.9 9.1 C 325.9 9.1 329.5 18.5 329.5 18.5 C 329.75 19.23 330 20.3 330 20.3 L 330.1 20.3 C 330.1 20.3 330.29 19.23 330.6 18.5 C 330.6 18.5 334.2 9.1 334.2 9.1 C 334.7 7.7 335.2 7.4 336.6 7.4 C 336.56 7.41 337.3 7.4 337.3 7.4 L 337.3 9.2 C 337.3 9.2 337.07 9.18 337.1 9.2 C 336.5 9.2 336.2 9.3 336 9.9 C 336.02 9.87 331.1 22.5 331.1 22.5 L 328.9 22.5 C 328.9 22.5 323.96 9.87 324 9.9 Z M 346.6 7.1 C 351 7.1 354.6 10.4 354.6 14.9 C 354.6 19.4 351 22.9 346.6 22.9 C 342.2 22.9 338.7 19.4 338.7 14.9 C 338.7 10.4 342.2 7.1 346.6 7.1 Z M 346.6 21 C 349.9 21 352.5 18.4 352.5 14.9 C 352.5 11.5 349.9 8.9 346.6 8.9 C 343.4 8.9 340.8 11.5 340.8 14.9 C 340.8 18.4 343.4 21 346.6 21 Z M 357.8 18.8 C 357.8 18.8 359.51 21.09 362.5 21.1 C 364.2 21.1 365.7 20.3 365.7 18.7 C 365.7 15.4 357.2 16 357.2 11.1 C 357.2 8.4 359.5 7.1 362.6 7.1 C 364.1 7.1 367.2 7.7 367.2 9.8 C 367.16 9.78 367.2 11.1 367.2 11.1 L 365.2 11.1 C 365.2 11.1 365.24 10.35 365.2 10.4 C 365.2 9.2 363.6 8.8 362.6 8.8 C 360.5 8.8 359.3 9.5 359.3 11 C 359.3 14.4 367.7 13.6 367.7 18.6 C 367.7 21.1 365.5 22.9 362.5 22.9 C 358.52 22.86 356.7 20.2 356.7 20.2 L 357.8 18.8 Z M 371.8 9.1 L 369.8 9.1 L 369.8 7.4 L 371.8 7.4 L 371.8 3.2 L 373.9 3.2 L 373.9 7.4 L 377.6 7.4 L 377.6 9.1 L 373.9 9.1 C 373.9 9.1 373.85 16.8 373.9 16.8 C 373.9 20.3 376.1 20.8 377.2 20.8 C 377.66 20.79 377.9 20.7 377.9 20.7 L 377.9 22.6 C 377.9 22.6 377.57 22.62 377.1 22.6 C 375.3 22.6 371.8 22.1 371.8 17 C 371.81 17.01 371.8 9.1 371.8 9.1 Z M 377.8 1.4 C 377.9 1.9 378 2.4 378 2.9 C 378 3.8 377.7 4.5 377.2 5.5 C 377.2 5.5 375.7 5.5 375.7 5.5 C 376 4.6 376.2 3.9 376.2 3.1 C 376.2 2.6 376.1 2 375.9 1.4 C 375.9 1.4 377.8 1.4 377.8 1.4 Z " stroke="none" fill="#ee3078"/>  </g></svg>