<?xml version="1.0" standalone="no"?><!DOCTYPE svg PUBLIC "-//W3C//DTD SVG 1.1//EN" "http://www.w3.org/Graphics/SVG/1.1/DTD/svg11.dtd"><svg xmlns="http://www.w3.org/2000/svg" version="1.1" width="722.3px" height="42px" viewBox="0 -3 722.3 42" style="top:-3px">  <desc>Pou vate ky hodnotili spokojnos s antikoncepciou pomocou dotazn ka MDQ (Menstrual Distress Questionnaire), ktor ma...</desc>  <defs/>  <g id="Polygon71866">    <path d="M 153.7 17.1 C 153.7 17.1 155 17.1 155 17.1 C 154.1 18.6 153.6 20.3 153.6 22 C 153.6 23.8 154.1 25.5 155 27.1 C 155 27.1 153.7 27.1 153.7 27.1 C 152.8 25.7 152.3 23.9 152.3 22.1 C 152.3 20.3 152.7 18.5 153.7 17.1 Z M 155.7 24.7 C 155.7 24.7 156.09 24.67 156.1 24.7 C 156.3 24.7 156.3 24.6 156.4 24.4 C 156.36 24.4 156.9 17.5 156.9 17.5 L 158.5 17.5 C 158.5 17.5 160.29 21.54 160.3 21.5 C 160.5 22.03 160.7 22.7 160.7 22.7 L 160.7 22.7 C 160.7 22.7 160.95 22.03 161.2 21.5 C 161.16 21.54 162.9 17.5 162.9 17.5 L 164.5 17.5 C 164.5 17.5 165.09 24.4 165.1 24.4 C 165.1 24.6 165.2 24.7 165.4 24.7 C 165.36 24.67 165.7 24.7 165.7 24.7 L 165.7 26 C 165.7 26 164.37 26 164.4 26 C 163.8 26 163.6 25.8 163.6 25.2 C 163.6 25.2 163.3 21.4 163.3 21.4 C 163.23 20.83 163.3 20.1 163.3 20.1 L 163.2 20.1 C 163.2 20.1 162.99 20.91 162.8 21.4 C 162.78 21.39 161.4 24.5 161.4 24.5 L 160.1 24.5 C 160.1 24.5 158.67 21.39 158.7 21.4 C 158.46 20.91 158.2 20.1 158.2 20.1 L 158.2 20.1 C 158.2 20.1 158.22 20.83 158.2 21.4 C 158.2 21.4 157.9 25.2 157.9 25.2 C 157.8 25.8 157.6 26 157.1 26 C 157.08 26 155.7 26 155.7 26 L 155.7 24.7 Z M 169.4 19.7 C 171.2 19.7 172.1 21 172.1 22.6 C 172.15 22.82 172.1 23.2 172.1 23.2 C 172.1 23.2 167.89 23.2 167.9 23.2 C 168 24.3 168.8 24.8 169.7 24.8 C 170.71 24.85 171.4 24.2 171.4 24.2 L 172.1 25.2 C 172.1 25.2 171.14 26.14 169.6 26.1 C 167.6 26.1 166.3 24.7 166.3 22.9 C 166.3 21.1 167.6 19.7 169.4 19.7 Z M 170.6 22.1 C 170.6 21.4 170.1 20.9 169.4 20.9 C 168.7 20.9 168.1 21.4 167.9 22.1 C 167.9 22.1 170.6 22.1 170.6 22.1 Z M 173.6 21.4 C 173.6 21.3 173.5 21.2 173.4 21.2 C 173.36 21.18 172.9 21.2 172.9 21.2 L 172.9 19.9 C 172.9 19.9 174.29 19.88 174.3 19.9 C 174.8 19.9 175.1 20.1 175.1 20.6 C 175.1 20.6 175.1 20.7 175.1 20.7 C 175.1 20.9 175.1 21 175.1 21 C 175.1 21 175.1 21 175.1 21 C 175.4 20.5 176 19.7 177.2 19.7 C 178.6 19.7 179.4 20.4 179.4 22.1 C 179.4 22.1 179.4 24.5 179.4 24.5 C 179.4 24.6 179.5 24.7 179.6 24.7 C 179.65 24.72 180.1 24.7 180.1 24.7 L 180.1 26 C 180.1 26 178.68 26 178.7 26 C 178.1 26 177.9 25.8 177.9 25.2 C 177.9 25.2 177.9 22.4 177.9 22.4 C 177.9 21.6 177.7 21.1 176.9 21.1 C 176.1 21.1 175.5 21.6 175.3 22.4 C 175.2 22.6 175.1 22.9 175.1 23.2 C 175.14 23.19 175.1 26 175.1 26 L 173.6 26 C 173.6 26 173.63 21.44 173.6 21.4 Z M 181.4 24.1 C 181.4 24.1 182.14 24.96 183.2 25 C 183.7 25 184 24.8 184 24.4 C 184 23.5 180.8 23.5 180.8 21.5 C 180.8 20.3 181.9 19.7 183.2 19.7 C 184 19.7 185.3 20 185.3 21 C 185.31 21.01 185.3 21.6 185.3 21.6 L 184 21.6 C 184 21.6 183.97 21.34 184 21.3 C 184 21.1 183.5 20.9 183.2 20.9 C 182.7 20.9 182.3 21.1 182.3 21.5 C 182.3 22.4 185.5 22.2 185.5 24.3 C 185.5 25.4 184.5 26.1 183.2 26.1 C 181.51 26.14 180.6 25.1 180.6 25.1 L 181.4 24.1 Z M 187 21.1 L 186.2 21.1 L 186.2 19.9 L 187 19.9 L 187 18.2 L 188.5 18.2 L 188.5 19.9 L 189.9 19.9 L 189.9 21.1 L 188.5 21.1 C 188.5 21.1 188.5 23.56 188.5 23.6 C 188.5 24.6 189.3 24.7 189.7 24.7 C 189.88 24.72 190 24.7 190 24.7 L 190 26 C 190 26 189.8 26.06 189.5 26.1 C 188.7 26.1 187 25.8 187 23.8 C 186.98 23.76 187 21.1 187 21.1 Z M 191.4 21.4 C 191.4 21.3 191.3 21.2 191.1 21.2 C 191.13 21.18 190.7 21.2 190.7 21.2 L 190.7 19.9 C 190.7 19.9 192.04 19.88 192 19.9 C 192.6 19.9 192.9 20.1 192.9 20.6 C 192.9 20.6 192.9 21 192.9 21 C 192.86 21.21 192.8 21.4 192.8 21.4 C 192.8 21.4 192.86 21.37 192.9 21.4 C 193.1 20.5 193.9 19.8 194.8 19.8 C 194.94 19.8 195.1 19.8 195.1 19.8 L 195.1 21.3 C 195.1 21.3 194.92 21.3 194.7 21.3 C 194.1 21.3 193.3 21.7 193 22.6 C 193 22.9 192.9 23.2 192.9 23.6 C 192.91 23.58 192.9 26 192.9 26 L 191.4 26 C 191.4 26 191.4 21.44 191.4 21.4 Z M 196.4 21.4 C 196.4 21.3 196.3 21.2 196.1 21.2 C 196.13 21.18 195.6 21.2 195.6 21.2 L 195.6 19.9 C 195.6 19.9 197.1 19.88 197.1 19.9 C 197.7 19.9 197.9 20.1 197.9 20.7 C 197.9 20.7 197.9 23.5 197.9 23.5 C 197.9 24.2 198.1 24.8 198.8 24.8 C 200 24.8 200.6 23.8 200.6 22.7 C 200.57 22.69 200.6 19.9 200.6 19.9 L 202.1 19.9 C 202.1 19.9 202.09 24.45 202.1 24.5 C 202.1 24.6 202.2 24.7 202.4 24.7 C 202.35 24.72 202.8 24.7 202.8 24.7 L 202.8 26 C 202.8 26 201.43 26 201.4 26 C 200.9 26 200.6 25.7 200.6 25.3 C 200.6 25.3 200.6 25.1 200.6 25.1 C 200.6 25 200.6 24.9 200.6 24.9 C 200.6 24.9 200.6 24.9 200.6 24.9 C 200.3 25.5 199.6 26.1 198.5 26.1 C 197.2 26.1 196.4 25.5 196.4 23.8 C 196.4 23.8 196.4 21.4 196.4 21.4 Z M 207.1 22.2 C 207.1 22.16 207.3 22.2 207.3 22.2 C 207.3 22.2 207.3 22.11 207.3 22.1 C 207.3 21.2 206.9 20.9 206.2 20.9 C 205.9 20.9 205.4 21 205.4 21.3 C 205.35 21.32 205.4 21.6 205.4 21.6 L 203.9 21.6 C 203.9 21.6 203.94 21 203.9 21 C 203.9 19.9 205.5 19.7 206.2 19.7 C 208.2 19.7 208.8 20.8 208.8 22.2 C 208.8 22.2 208.8 24.5 208.8 24.5 C 208.8 24.6 208.9 24.7 209.1 24.7 C 209.08 24.72 209.6 24.7 209.6 24.7 L 209.6 26 C 209.6 26 208.2 26 208.2 26 C 207.6 26 207.4 25.7 207.4 25.3 C 207.4 25.2 207.4 25.1 207.4 25.1 C 207.43 25.06 207.4 25.1 207.4 25.1 C 207.4 25.1 206.94 26.14 205.6 26.1 C 204.5 26.1 203.5 25.5 203.5 24.2 C 203.5 22.3 206.1 22.2 207.1 22.2 Z M 205.9 25 C 206.7 25 207.3 24.1 207.3 23.3 C 207.32 23.35 207.3 23.2 207.3 23.2 C 207.3 23.2 207.06 23.2 207.1 23.2 C 206.3 23.2 205 23.3 205 24.2 C 205 24.6 205.3 25 205.9 25 Z M 210.8 19 C 210.8 18.9 210.7 18.8 210.5 18.8 C 210.49 18.78 210 18.8 210 18.8 L 210 17.5 C 210 17.5 211.46 17.48 211.5 17.5 C 212 17.5 212.3 17.7 212.3 18.3 C 212.3 18.3 212.3 24.5 212.3 24.5 C 212.3 24.6 212.4 24.7 212.5 24.7 C 212.54 24.72 213 24.7 213 24.7 L 213 26 C 213 26 211.57 26 211.6 26 C 211 26 210.8 25.8 210.8 25.2 C 210.8 25.2 210.8 19 210.8 19 Z M 217.7 18.8 L 216.9 18.8 L 216.9 17.5 C 216.9 17.5 220.34 17.48 220.3 17.5 C 223 17.5 224.7 19 224.7 21.7 C 224.7 24.4 223 26 220.3 26 C 220.3 26 218.5 26 218.5 26 C 217.9 26 217.7 25.8 217.7 25.2 C 217.65 25.18 217.7 18.8 217.7 18.8 Z M 219.5 24.7 C 219.5 24.7 220.3 24.7 220.3 24.7 C 222 24.7 223.1 23.6 223.1 21.7 C 223.1 19.8 221.9 18.8 220.3 18.8 C 220.26 18.81 219.2 18.8 219.2 18.8 C 219.2 18.8 219.22 24.4 219.2 24.4 C 219.2 24.6 219.3 24.7 219.5 24.7 Z M 226.2 17.5 L 227.6 17.5 L 227.6 18.9 L 226.2 18.9 L 226.2 17.5 Z M 226.2 21.4 C 226.2 21.3 226.1 21.2 225.9 21.2 C 225.91 21.18 225.4 21.2 225.4 21.2 L 225.4 19.9 C 225.4 19.9 226.88 19.88 226.9 19.9 C 227.4 19.9 227.7 20.1 227.7 20.7 C 227.7 20.7 227.7 24.5 227.7 24.5 C 227.7 24.6 227.8 24.7 227.9 24.7 C 227.95 24.72 228.4 24.7 228.4 24.7 L 228.4 26 C 228.4 26 226.98 26 227 26 C 226.4 26 226.2 25.8 226.2 25.2 C 226.2 25.2 226.2 21.4 226.2 21.4 Z M 229.7 24.1 C 229.7 24.1 230.52 24.96 231.6 25 C 232 25 232.4 24.8 232.4 24.4 C 232.4 23.5 229.2 23.5 229.2 21.5 C 229.2 20.3 230.3 19.7 231.5 19.7 C 232.4 19.7 233.7 20 233.7 21 C 233.68 21.01 233.7 21.6 233.7 21.6 L 232.3 21.6 C 232.3 21.6 232.34 21.34 232.3 21.3 C 232.3 21.1 231.9 20.9 231.6 20.9 C 231 20.9 230.7 21.1 230.7 21.5 C 230.7 22.4 233.9 22.2 233.9 24.3 C 233.9 25.4 232.9 26.1 231.6 26.1 C 229.88 26.14 229 25.1 229 25.1 L 229.7 24.1 Z M 235.4 21.1 L 234.6 21.1 L 234.6 19.9 L 235.4 19.9 L 235.4 18.2 L 236.9 18.2 L 236.9 19.9 L 238.3 19.9 L 238.3 21.1 L 236.9 21.1 C 236.9 21.1 236.87 23.56 236.9 23.6 C 236.9 24.6 237.7 24.7 238.1 24.7 C 238.25 24.72 238.4 24.7 238.4 24.7 L 238.4 26 C 238.4 26 238.17 26.06 237.9 26.1 C 237 26.1 235.4 25.8 235.4 23.8 C 235.35 23.76 235.4 21.1 235.4 21.1 Z M 239.8 21.4 C 239.8 21.3 239.7 21.2 239.5 21.2 C 239.5 21.18 239 21.2 239 21.2 L 239 19.9 C 239 19.9 240.42 19.88 240.4 19.9 C 241 19.9 241.2 20.1 241.2 20.6 C 241.2 20.6 241.2 21 241.2 21 C 241.23 21.21 241.2 21.4 241.2 21.4 C 241.2 21.4 241.23 21.37 241.2 21.4 C 241.5 20.5 242.2 19.8 243.2 19.8 C 243.31 19.8 243.5 19.8 243.5 19.8 L 243.5 21.3 C 243.5 21.3 243.29 21.3 243.1 21.3 C 242.4 21.3 241.7 21.7 241.4 22.6 C 241.3 22.9 241.3 23.2 241.3 23.6 C 241.28 23.58 241.3 26 241.3 26 L 239.8 26 C 239.8 26 239.77 21.44 239.8 21.4 Z M 247 19.7 C 248.7 19.7 249.7 21 249.7 22.6 C 249.69 22.82 249.7 23.2 249.7 23.2 C 249.7 23.2 245.43 23.2 245.4 23.2 C 245.6 24.3 246.3 24.8 247.3 24.8 C 248.25 24.85 249 24.2 249 24.2 L 249.6 25.2 C 249.6 25.2 248.68 26.14 247.2 26.1 C 245.1 26.1 243.9 24.7 243.9 22.9 C 243.9 21.1 245.1 19.7 247 19.7 Z M 248.1 22.1 C 248.1 21.4 247.6 20.9 247 20.9 C 246.2 20.9 245.6 21.4 245.5 22.1 C 245.5 22.1 248.1 22.1 248.1 22.1 Z M 251.2 24.1 C 251.2 24.1 251.97 24.96 253 25 C 253.5 25 253.8 24.8 253.8 24.4 C 253.8 23.5 250.6 23.5 250.6 21.5 C 250.6 20.3 251.7 19.7 253 19.7 C 253.8 19.7 255.1 20 255.1 21 C 255.14 21.01 255.1 21.6 255.1 21.6 L 253.8 21.6 C 253.8 21.6 253.8 21.34 253.8 21.3 C 253.8 21.1 253.4 20.9 253 20.9 C 252.5 20.9 252.1 21.1 252.1 21.5 C 252.1 22.4 255.4 22.2 255.4 24.3 C 255.4 25.4 254.3 26.1 253 26.1 C 251.34 26.14 250.5 25.1 250.5 25.1 L 251.2 24.1 Z M 256.8 24.1 C 256.8 24.1 257.59 24.96 258.6 25 C 259.1 25 259.5 24.8 259.5 24.4 C 259.5 23.5 256.2 23.5 256.2 21.5 C 256.2 20.3 257.3 19.7 258.6 19.7 C 259.4 19.7 260.8 20 260.8 21 C 260.75 21.01 260.8 21.6 260.8 21.6 L 259.4 21.6 C 259.4 21.6 259.41 21.34 259.4 21.3 C 259.4 21.1 259 20.9 258.6 20.9 C 258.1 20.9 257.7 21.1 257.7 21.5 C 257.7 22.4 261 22.2 261 24.3 C 261 25.4 260 26.1 258.6 26.1 C 256.95 26.14 256.1 25.1 256.1 25.1 L 256.8 24.1 Z M 269.3 17.3 C 271.9 17.3 273.8 19.2 273.8 21.7 C 273.8 22.7 273.4 23.6 272.8 24.4 C 272.82 24.38 273.7 25.2 273.7 25.2 L 272.8 26.2 C 272.8 26.2 271.88 25.33 271.9 25.3 C 271.2 25.9 270.3 26.1 269.3 26.1 C 266.8 26.1 264.9 24.2 264.9 21.7 C 264.9 19.2 266.8 17.3 269.3 17.3 Z M 269.3 24.7 C 270.24 24.68 270.7 24.3 270.7 24.3 L 269.9 23.5 L 270.8 22.4 C 270.8 22.4 271.66 23.31 271.7 23.3 C 272 22.9 272.1 22.3 272.1 21.7 C 272.1 20 270.9 18.8 269.3 18.8 C 267.8 18.8 266.6 20 266.6 21.7 C 266.6 23.4 267.8 24.7 269.3 24.7 Z M 275.2 21.4 C 275.2 21.3 275.1 21.2 274.9 21.2 C 274.9 21.18 274.4 21.2 274.4 21.2 L 274.4 19.9 C 274.4 19.9 275.87 19.88 275.9 19.9 C 276.4 19.9 276.7 20.1 276.7 20.7 C 276.7 20.7 276.7 23.5 276.7 23.5 C 276.7 24.2 276.9 24.8 277.6 24.8 C 278.7 24.8 279.3 23.8 279.3 22.7 C 279.34 22.69 279.3 19.9 279.3 19.9 L 280.9 19.9 C 280.9 19.9 280.87 24.45 280.9 24.5 C 280.9 24.6 281 24.7 281.1 24.7 C 281.13 24.72 281.6 24.7 281.6 24.7 L 281.6 26 C 281.6 26 280.21 26 280.2 26 C 279.7 26 279.4 25.7 279.4 25.3 C 279.4 25.3 279.4 25.1 279.4 25.1 C 279.4 25 279.4 24.9 279.4 24.9 C 279.4 24.9 279.4 24.9 279.4 24.9 C 279.1 25.5 278.3 26.1 277.3 26.1 C 276 26.1 275.2 25.5 275.2 23.8 C 275.2 23.8 275.2 21.4 275.2 21.4 Z M 285.3 19.7 C 287.1 19.7 288.1 21 288.1 22.6 C 288.05 22.82 288 23.2 288 23.2 C 288 23.2 283.79 23.2 283.8 23.2 C 283.9 24.3 284.7 24.8 285.6 24.8 C 286.62 24.85 287.3 24.2 287.3 24.2 L 288 25.2 C 288 25.2 287.05 26.14 285.5 26.1 C 283.5 26.1 282.2 24.7 282.2 22.9 C 282.2 21.1 283.5 19.7 285.3 19.7 Z M 286.5 22.1 C 286.5 21.4 286 20.9 285.3 20.9 C 284.6 20.9 284 21.4 283.8 22.1 C 283.8 22.1 286.5 22.1 286.5 22.1 Z M 289.6 24.1 C 289.6 24.1 290.33 24.96 291.4 25 C 291.8 25 292.2 24.8 292.2 24.4 C 292.2 23.5 289 23.5 289 21.5 C 289 20.3 290.1 19.7 291.4 19.7 C 292.2 19.7 293.5 20 293.5 21 C 293.5 21.01 293.5 21.6 293.5 21.6 L 292.2 21.6 C 292.2 21.6 292.16 21.34 292.2 21.3 C 292.2 21.1 291.7 20.9 291.4 20.9 C 290.9 20.9 290.5 21.1 290.5 21.5 C 290.5 22.4 293.7 22.2 293.7 24.3 C 293.7 25.4 292.7 26.1 291.4 26.1 C 289.7 26.14 288.8 25.1 288.8 25.1 L 289.6 24.1 Z M 295.2 21.1 L 294.4 21.1 L 294.4 19.9 L 295.2 19.9 L 295.2 18.2 L 296.7 18.2 L 296.7 19.9 L 298.1 19.9 L 298.1 21.1 L 296.7 21.1 C 296.7 21.1 296.69 23.56 296.7 23.6 C 296.7 24.6 297.5 24.7 297.9 24.7 C 298.07 24.72 298.2 24.7 298.2 24.7 L 298.2 26 C 298.2 26 297.99 26.06 297.7 26.1 C 296.9 26.1 295.2 25.8 295.2 23.8 C 295.17 23.76 295.2 21.1 295.2 21.1 Z M 299.7 17.5 L 301 17.5 L 301 18.9 L 299.7 18.9 L 299.7 17.5 Z M 299.6 21.4 C 299.6 21.3 299.5 21.2 299.4 21.2 C 299.37 21.18 298.9 21.2 298.9 21.2 L 298.9 19.9 C 298.9 19.9 300.34 19.88 300.3 19.9 C 300.9 19.9 301.1 20.1 301.1 20.7 C 301.1 20.7 301.1 24.5 301.1 24.5 C 301.1 24.6 301.2 24.7 301.4 24.7 C 301.41 24.72 301.9 24.7 301.9 24.7 L 301.9 26 C 301.9 26 300.44 26 300.4 26 C 299.9 26 299.6 25.8 299.6 25.2 C 299.6 25.2 299.6 21.4 299.6 21.4 Z M 305.9 19.7 C 307.8 19.7 309.3 21.1 309.3 22.9 C 309.3 24.8 307.8 26.1 305.9 26.1 C 304 26.1 302.6 24.8 302.6 22.9 C 302.6 21.1 304 19.7 305.9 19.7 Z M 305.9 24.8 C 306.9 24.8 307.7 24.1 307.7 22.9 C 307.7 21.8 306.9 21 305.9 21 C 304.9 21 304.1 21.8 304.1 22.9 C 304.1 24.1 304.9 24.8 305.9 24.8 Z M 310.7 21.4 C 310.7 21.3 310.6 21.2 310.4 21.2 C 310.39 21.18 309.9 21.2 309.9 21.2 L 309.9 19.9 C 309.9 19.9 311.31 19.88 311.3 19.9 C 311.8 19.9 312.1 20.1 312.1 20.6 C 312.1 20.6 312.1 20.7 312.1 20.7 C 312.1 20.9 312.1 21 312.1 21 C 312.1 21 312.1 21 312.1 21 C 312.4 20.5 313 19.7 314.3 19.7 C 315.6 19.7 316.4 20.4 316.4 22.1 C 316.4 22.1 316.4 24.5 316.4 24.5 C 316.4 24.6 316.5 24.7 316.7 24.7 C 316.67 24.72 317.2 24.7 317.2 24.7 L 317.2 26 C 317.2 26 315.7 26 315.7 26 C 315.1 26 314.9 25.8 314.9 25.2 C 314.9 25.2 314.9 22.4 314.9 22.4 C 314.9 21.6 314.7 21.1 313.9 21.1 C 313.1 21.1 312.5 21.6 312.3 22.4 C 312.2 22.6 312.2 22.9 312.2 23.2 C 312.16 23.19 312.2 26 312.2 26 L 310.7 26 C 310.7 26 310.65 21.44 310.7 21.4 Z M 318.4 21.4 C 318.4 21.3 318.3 21.2 318.1 21.2 C 318.1 21.18 317.6 21.2 317.6 21.2 L 317.6 19.9 C 317.6 19.9 319.03 19.88 319 19.9 C 319.6 19.9 319.8 20.1 319.8 20.6 C 319.8 20.6 319.8 20.7 319.8 20.7 C 319.8 20.9 319.8 21 319.8 21 C 319.8 21 319.8 21 319.8 21 C 320.1 20.5 320.8 19.7 322 19.7 C 323.3 19.7 324.1 20.4 324.1 22.1 C 324.1 22.1 324.1 24.5 324.1 24.5 C 324.1 24.6 324.2 24.7 324.4 24.7 C 324.39 24.72 324.9 24.7 324.9 24.7 L 324.9 26 C 324.9 26 323.42 26 323.4 26 C 322.8 26 322.6 25.8 322.6 25.2 C 322.6 25.2 322.6 22.4 322.6 22.4 C 322.6 21.6 322.4 21.1 321.6 21.1 C 320.8 21.1 320.2 21.6 320 22.4 C 319.9 22.6 319.9 22.9 319.9 23.2 C 319.88 23.19 319.9 26 319.9 26 L 318.4 26 C 318.4 26 318.37 21.44 318.4 21.4 Z M 329.1 22.2 C 329.12 22.16 329.3 22.2 329.3 22.2 C 329.3 22.2 329.31 22.11 329.3 22.1 C 329.3 21.2 329 20.9 328.2 20.9 C 327.9 20.9 327.4 21 327.4 21.3 C 327.37 21.32 327.4 21.6 327.4 21.6 L 326 21.6 C 326 21.6 325.95 21 326 21 C 326 19.9 327.6 19.7 328.2 19.7 C 330.2 19.7 330.8 20.8 330.8 22.2 C 330.8 22.2 330.8 24.5 330.8 24.5 C 330.8 24.6 330.9 24.7 331.1 24.7 C 331.1 24.72 331.6 24.7 331.6 24.7 L 331.6 26 C 331.6 26 330.21 26 330.2 26 C 329.6 26 329.4 25.7 329.4 25.3 C 329.4 25.2 329.4 25.1 329.4 25.1 C 329.44 25.06 329.4 25.1 329.4 25.1 C 329.4 25.1 328.95 26.14 327.6 26.1 C 326.5 26.1 325.5 25.5 325.5 24.2 C 325.5 22.3 328.1 22.2 329.1 22.2 Z M 327.9 25 C 328.8 25 329.3 24.1 329.3 23.3 C 329.33 23.35 329.3 23.2 329.3 23.2 C 329.3 23.2 329.07 23.2 329.1 23.2 C 328.3 23.2 327 23.3 327 24.2 C 327 24.6 327.3 25 327.9 25 Z M 332.9 17.5 L 334.2 17.5 L 334.2 18.9 L 332.9 18.9 L 332.9 17.5 Z M 332.9 21.4 C 332.9 21.3 332.8 21.2 332.6 21.2 C 332.59 21.18 332.1 21.2 332.1 21.2 L 332.1 19.9 C 332.1 19.9 333.56 19.88 333.6 19.9 C 334.1 19.9 334.4 20.1 334.4 20.7 C 334.4 20.7 334.4 24.5 334.4 24.5 C 334.4 24.6 334.5 24.7 334.6 24.7 C 334.63 24.72 335.1 24.7 335.1 24.7 L 335.1 26 C 335.1 26 333.65 26 333.7 26 C 333.1 26 332.9 25.8 332.9 25.2 C 332.9 25.2 332.9 21.4 332.9 21.4 Z M 336.4 21.4 C 336.4 21.3 336.3 21.2 336.1 21.2 C 336.13 21.18 335.6 21.2 335.6 21.2 L 335.6 19.9 C 335.6 19.9 337.04 19.88 337 19.9 C 337.6 19.9 337.9 20.1 337.9 20.6 C 337.9 20.6 337.9 21 337.9 21 C 337.85 21.21 337.8 21.4 337.8 21.4 C 337.8 21.4 337.85 21.37 337.9 21.4 C 338.1 20.5 338.9 19.8 339.8 19.8 C 339.93 19.8 340.1 19.8 340.1 19.8 L 340.1 21.3 C 340.1 21.3 339.92 21.3 339.7 21.3 C 339.1 21.3 338.3 21.7 338 22.6 C 337.9 22.9 337.9 23.2 337.9 23.6 C 337.9 23.58 337.9 26 337.9 26 L 336.4 26 C 336.4 26 336.39 21.44 336.4 21.4 Z M 343.6 19.7 C 345.4 19.7 346.3 21 346.3 22.6 C 346.31 22.82 346.3 23.2 346.3 23.2 C 346.3 23.2 342.05 23.2 342.1 23.2 C 342.2 24.3 343 24.8 343.9 24.8 C 344.87 24.85 345.6 24.2 345.6 24.2 L 346.2 25.2 C 346.2 25.2 345.31 26.14 343.8 26.1 C 341.8 26.1 340.5 24.7 340.5 22.9 C 340.5 21.1 341.8 19.7 343.6 19.7 Z M 344.8 22.1 C 344.7 21.4 344.2 20.9 343.6 20.9 C 342.8 20.9 342.3 21.4 342.1 22.1 C 342.1 22.1 344.8 22.1 344.8 22.1 Z M 348.7 22 C 348.7 20.3 348.2 18.6 347.3 17.1 C 347.3 17.1 348.6 17.1 348.6 17.1 C 349.6 18.5 350 20.3 350 22.1 C 350 23.9 349.6 25.7 348.6 27.1 C 348.6 27.1 347.3 27.1 347.3 27.1 C 348.2 25.5 348.7 23.8 348.7 22 Z M 353.5 24.5 L 352.4 27.3 L 351.3 27.3 L 352.1 24.5 L 353.5 24.5 Z M 358.3 19 C 358.3 18.9 358.2 18.8 358.1 18.8 C 358.05 18.78 357.6 18.8 357.6 18.8 L 357.6 17.5 C 357.6 17.5 359.02 17.48 359 17.5 C 359.6 17.5 359.8 17.6 359.8 18.2 C 359.84 18.18 359.8 22 359.8 22 C 359.8 22 360.29 22.04 360.3 22 C 360.5 22 360.7 22 360.9 21.8 C 360.87 21.81 362.1 19.9 362.1 19.9 L 363.8 19.9 C 363.8 19.9 362.26 22.18 362.3 22.2 C 362 22.57 361.8 22.7 361.8 22.7 L 361.8 22.7 C 361.8 22.7 362.02 22.77 362.2 23.2 C 362.2 23.2 362.9 24.5 362.9 24.5 C 363 24.7 363.1 24.7 363.4 24.7 C 363.44 24.72 363.8 24.7 363.8 24.7 L 363.8 26 C 363.8 26 362.72 26 362.7 26 C 362.2 26 362 25.9 361.8 25.5 C 361.8 25.5 360.7 23.6 360.7 23.6 C 360.6 23.3 360.4 23.3 360.2 23.3 C 360.17 23.32 359.8 23.3 359.8 23.3 L 359.8 26 L 358.3 26 C 358.3 26 358.31 19.04 358.3 19 Z M 365 21.1 L 364.2 21.1 L 364.2 19.9 L 365.1 19.9 L 365.1 18.2 L 366.5 18.2 L 366.5 19.9 L 367.9 19.9 L 367.9 21.1 L 366.5 21.1 C 366.5 21.1 366.54 23.56 366.5 23.6 C 366.5 24.6 367.3 24.7 367.8 24.7 C 367.92 24.72 368 24.7 368 24.7 L 368 26 C 368 26 367.84 26.06 367.6 26.1 C 366.7 26.1 365 25.8 365 23.8 C 365.02 23.76 365 21.1 365 21.1 Z M 372.1 19.7 C 374 19.7 375.4 21.1 375.4 22.9 C 375.4 24.8 374 26.1 372.1 26.1 C 370.2 26.1 368.7 24.8 368.7 22.9 C 368.7 21.1 370.2 19.7 372.1 19.7 Z M 372.1 24.8 C 373.1 24.8 373.9 24.1 373.9 22.9 C 373.9 21.8 373.1 21 372.1 21 C 371.1 21 370.3 21.8 370.3 22.9 C 370.3 24.1 371.1 24.8 372.1 24.8 Z M 376.8 21.4 C 376.8 21.3 376.7 21.2 376.6 21.2 C 376.55 21.18 376.1 21.2 376.1 21.2 L 376.1 19.9 C 376.1 19.9 377.47 19.88 377.5 19.9 C 378 19.9 378.3 20.1 378.3 20.6 C 378.3 20.6 378.3 21 378.3 21 C 378.28 21.21 378.3 21.4 378.3 21.4 C 378.3 21.4 378.28 21.37 378.3 21.4 C 378.6 20.5 379.3 19.8 380.2 19.8 C 380.36 19.8 380.5 19.8 380.5 19.8 L 380.5 21.3 C 380.5 21.3 380.34 21.3 380.1 21.3 C 379.5 21.3 378.7 21.7 378.5 22.6 C 378.4 22.9 378.3 23.2 378.3 23.6 C 378.33 23.58 378.3 26 378.3 26 L 376.8 26 C 376.8 26 376.82 21.44 376.8 21.4 Z M 382.4 27.2 C 382.8 27.2 383.2 27 383.4 26.5 C 383.41 26.46 383.6 26 383.6 26 C 383.6 26 381.57 21.39 381.6 21.4 C 381.5 21.2 381.4 21.2 381.2 21.2 C 381.25 21.18 381.1 21.2 381.1 21.2 L 381.1 19.9 C 381.1 19.9 382.07 19.88 382.1 19.9 C 382.5 19.9 382.7 20 382.9 20.5 C 382.9 20.5 384.1 23.5 384.1 23.5 C 384.2 23.83 384.3 24.3 384.3 24.3 L 384.3 24.3 C 384.3 24.3 384.41 23.83 384.5 23.5 C 384.5 23.5 385.6 20.5 385.6 20.5 C 385.7 20 386 19.9 386.4 19.9 C 386.38 19.88 387.4 19.9 387.4 19.9 L 387.4 21.2 C 387.4 21.2 387.23 21.18 387.2 21.2 C 387.1 21.2 387 21.2 386.9 21.4 C 386.9 21.4 384.7 26.9 384.7 26.9 C 384.3 28 383.4 28.5 382.5 28.5 C 381.52 28.52 380.9 27.9 380.9 27.9 L 381.5 26.8 C 381.5 26.8 381.89 27.24 382.4 27.2 Z M 384.6 17.5 L 386.1 17.5 L 384.8 19.1 L 383.7 19.1 L 384.6 17.5 Z M 391.7 21.4 C 391.7 21.3 391.6 21.2 391.5 21.2 C 391.47 21.18 391 21.2 391 21.2 L 391 19.9 C 391 19.9 392.39 19.88 392.4 19.9 C 392.9 19.9 393.2 20.1 393.2 20.6 C 393.2 20.6 393.2 20.7 393.2 20.7 C 393.2 20.9 393.2 21 393.2 21 C 393.2 21 393.2 21 393.2 21 C 393.5 20.4 394.2 19.7 395.2 19.7 C 396.1 19.7 396.7 20.2 397 21 C 397 21 397 21 397 21 C 397.3 20.3 398.1 19.7 399.1 19.7 C 400.4 19.7 401.1 20.5 401.1 22.1 C 401.1 22.1 401.1 24.5 401.1 24.5 C 401.1 24.6 401.2 24.7 401.4 24.7 C 401.36 24.72 401.8 24.7 401.8 24.7 L 401.8 26 C 401.8 26 400.38 26 400.4 26 C 399.8 26 399.6 25.8 399.6 25.2 C 399.6 25.2 399.6 22.4 399.6 22.4 C 399.6 21.7 399.4 21.1 398.7 21.1 C 398 21.1 397.4 21.8 397.3 22.5 C 397.2 22.8 397.2 23 397.2 23.3 C 397.17 23.31 397.2 26 397.2 26 L 395.6 26 C 395.6 26 395.65 22.35 395.6 22.4 C 395.6 21.7 395.5 21.1 394.8 21.1 C 394 21.1 393.5 21.8 393.3 22.5 C 393.3 22.8 393.2 23 393.2 23.3 C 393.24 23.31 393.2 26 393.2 26 L 391.7 26 C 391.7 26 391.73 21.44 391.7 21.4 Z M 406.1 22.2 C 406.09 22.16 406.3 22.2 406.3 22.2 C 406.3 22.2 406.28 22.11 406.3 22.1 C 406.3 21.2 405.9 20.9 405.1 20.9 C 404.9 20.9 404.3 21 404.3 21.3 C 404.33 21.32 404.3 21.6 404.3 21.6 L 402.9 21.6 C 402.9 21.6 402.92 21 402.9 21 C 402.9 19.9 404.5 19.7 405.2 19.7 C 407.2 19.7 407.8 20.8 407.8 22.2 C 407.8 22.2 407.8 24.5 407.8 24.5 C 407.8 24.6 407.9 24.7 408.1 24.7 C 408.06 24.72 408.5 24.7 408.5 24.7 L 408.5 26 C 408.5 26 407.18 26 407.2 26 C 406.6 26 406.4 25.7 406.4 25.3 C 406.4 25.2 406.4 25.1 406.4 25.1 C 406.41 25.06 406.4 25.1 406.4 25.1 C 406.4 25.1 405.92 26.14 404.5 26.1 C 403.4 26.1 402.4 25.5 402.4 24.2 C 402.4 22.3 405.1 22.2 406.1 22.2 Z M 404.9 25 C 405.7 25 406.3 24.1 406.3 23.3 C 406.3 23.35 406.3 23.2 406.3 23.2 C 406.3 23.2 406.04 23.2 406 23.2 C 405.2 23.2 404 23.3 404 24.2 C 404 24.6 404.3 25 404.9 25 Z M 409.7 19 C 409.7 18.9 409.6 18.8 409.5 18.8 C 409.47 18.78 409 18.8 409 18.8 L 409 17.5 C 409 17.5 410.44 17.48 410.4 17.5 C 411 17.5 411.3 17.7 411.3 18.3 C 411.3 18.3 411.3 24.5 411.3 24.5 C 411.3 24.6 411.4 24.7 411.5 24.7 C 411.52 24.72 412 24.7 412 24.7 L 412 26 C 412 26 410.55 26 410.5 26 C 410 26 409.7 25.8 409.7 25.2 C 409.7 25.2 409.7 19 409.7 19 Z M 416.4 21.4 C 416.4 21.3 416.3 21.2 416.2 21.2 C 416.18 21.18 415.7 21.2 415.7 21.2 L 415.7 19.9 C 415.7 19.9 417.1 19.88 417.1 19.9 C 417.6 19.9 417.9 20.1 417.9 20.6 C 417.9 20.6 417.9 20.7 417.9 20.7 C 417.9 20.9 417.9 21 417.9 21 C 417.9 21 417.9 21 417.9 21 C 418.2 20.5 418.8 19.7 420.1 19.7 C 421.4 19.7 422.2 20.4 422.2 22.1 C 422.2 22.1 422.2 24.5 422.2 24.5 C 422.2 24.6 422.3 24.7 422.5 24.7 C 422.46 24.72 422.9 24.7 422.9 24.7 L 422.9 26 C 422.9 26 421.49 26 421.5 26 C 420.9 26 420.7 25.8 420.7 25.2 C 420.7 25.2 420.7 22.4 420.7 22.4 C 420.7 21.6 420.5 21.1 419.7 21.1 C 418.9 21.1 418.3 21.6 418.1 22.4 C 418 22.6 418 22.9 418 23.2 C 417.95 23.19 418 26 418 26 L 416.4 26 C 416.4 26 416.44 21.44 416.4 21.4 Z M 427.2 22.2 C 427.19 22.16 427.4 22.2 427.4 22.2 C 427.4 22.2 427.39 22.11 427.4 22.1 C 427.4 21.2 427 20.9 426.3 20.9 C 426 20.9 425.4 21 425.4 21.3 C 425.44 21.32 425.4 21.6 425.4 21.6 L 424 21.6 C 424 21.6 424.03 21 424 21 C 424 19.9 425.6 19.7 426.3 19.7 C 428.3 19.7 428.9 20.8 428.9 22.2 C 428.9 22.2 428.9 24.5 428.9 24.5 C 428.9 24.6 429 24.7 429.2 24.7 C 429.17 24.72 429.7 24.7 429.7 24.7 L 429.7 26 C 429.7 26 428.28 26 428.3 26 C 427.7 26 427.5 25.7 427.5 25.3 C 427.5 25.2 427.5 25.1 427.5 25.1 C 427.52 25.06 427.5 25.1 427.5 25.1 C 427.5 25.1 427.02 26.14 425.6 26.1 C 424.6 26.1 423.6 25.5 423.6 24.2 C 423.6 22.3 426.2 22.2 427.2 22.2 Z M 426 25 C 426.8 25 427.4 24.1 427.4 23.3 C 427.41 23.35 427.4 23.2 427.4 23.2 C 427.4 23.2 427.15 23.2 427.1 23.2 C 426.4 23.2 425.1 23.3 425.1 24.2 C 425.1 24.6 425.4 25 426 25 Z M 430.9 24.1 C 430.9 24.1 431.68 24.96 432.7 25 C 433.2 25 433.6 24.8 433.6 24.4 C 433.6 23.5 430.3 23.5 430.3 21.5 C 430.3 20.3 431.4 19.7 432.7 19.7 C 433.5 19.7 434.8 20 434.8 21 C 434.85 21.01 434.8 21.6 434.8 21.6 L 433.5 21.6 C 433.5 21.6 433.51 21.34 433.5 21.3 C 433.5 21.1 433.1 20.9 432.7 20.9 C 432.2 20.9 431.8 21.1 431.8 21.5 C 431.8 22.4 435.1 22.2 435.1 24.3 C 435.1 25.4 434.1 26.1 432.7 26.1 C 431.04 26.14 430.2 25.1 430.2 25.1 L 430.9 24.1 Z M 436.5 19 C 436.5 18.9 436.4 18.8 436.2 18.8 C 436.19 18.78 435.7 18.8 435.7 18.8 L 435.7 17.5 C 435.7 17.5 437.16 17.48 437.2 17.5 C 437.7 17.5 438 17.7 438 18.3 C 438 18.3 438 24.5 438 24.5 C 438 24.6 438.1 24.7 438.2 24.7 C 438.24 24.72 438.7 24.7 438.7 24.7 L 438.7 26 C 438.7 26 437.27 26 437.3 26 C 436.7 26 436.5 25.8 436.5 25.2 C 436.5 25.2 436.5 19 436.5 19 Z M 442.5 19.7 C 444.2 19.7 445.2 21 445.2 22.6 C 445.19 22.82 445.2 23.2 445.2 23.2 C 445.2 23.2 440.93 23.2 440.9 23.2 C 441.1 24.3 441.8 24.8 442.8 24.8 C 443.75 24.85 444.5 24.2 444.5 24.2 L 445.1 25.2 C 445.1 25.2 444.18 26.14 442.7 26.1 C 440.6 26.1 439.4 24.7 439.4 22.9 C 439.4 21.1 440.6 19.7 442.5 19.7 Z M 443.6 22.1 C 443.6 21.4 443.1 20.9 442.5 20.9 C 441.7 20.9 441.1 21.4 441 22.1 C 441 22.1 443.6 22.1 443.6 22.1 Z M 448.8 19.7 C 450.17 19.74 450.6 20.5 450.6 20.5 L 450.6 20.5 C 450.6 20.5 450.62 20.32 450.6 20.1 C 450.6 20.1 450.6 19 450.6 19 C 450.6 18.9 450.5 18.8 450.4 18.8 C 450.35 18.78 449.9 18.8 449.9 18.8 L 449.9 17.5 C 449.9 17.5 451.32 17.48 451.3 17.5 C 451.9 17.5 452.1 17.7 452.1 18.3 C 452.1 18.3 452.1 24.5 452.1 24.5 C 452.1 24.6 452.2 24.7 452.4 24.7 C 452.4 24.72 452.9 24.7 452.9 24.7 L 452.9 26 C 452.9 26 451.47 26 451.5 26 C 450.9 26 450.7 25.7 450.7 25.4 C 450.7 25.2 450.7 25.1 450.7 25.1 C 450.71 25.15 450.7 25.1 450.7 25.1 C 450.7 25.1 450.18 26.14 448.8 26.1 C 447.1 26.1 446.1 24.8 446.1 22.9 C 446.1 21 447.2 19.7 448.8 19.7 Z M 450.7 22.9 C 450.7 22 450.2 21 449.1 21 C 448.3 21 447.6 21.7 447.6 22.9 C 447.6 24.1 448.2 24.9 449.1 24.9 C 449.9 24.9 450.7 24.3 450.7 22.9 Z M 456.9 19.7 C 458.7 19.7 460.2 21.1 460.2 22.9 C 460.2 24.8 458.7 26.1 456.9 26.1 C 455 26.1 453.5 24.8 453.5 22.9 C 453.5 21.1 455 19.7 456.9 19.7 Z M 456.9 24.8 C 457.9 24.8 458.7 24.1 458.7 22.9 C 458.7 21.8 457.9 21 456.9 21 C 455.9 21 455.1 21.8 455.1 22.9 C 455.1 24.1 455.9 24.8 456.9 24.8 Z M 461.1 21.4 C 461 21.2 460.9 21.2 460.8 21.2 C 460.77 21.18 460.6 21.2 460.6 21.2 L 460.6 19.9 C 460.6 19.9 461.51 19.88 461.5 19.9 C 462 19.9 462.3 20 462.4 20.5 C 462.4 20.5 463.6 23.7 463.6 23.7 C 463.7 24.03 463.8 24.5 463.8 24.5 L 463.8 24.5 C 463.8 24.5 463.91 24.03 464 23.7 C 464 23.7 465.2 20.5 465.2 20.5 C 465.3 20 465.6 19.9 466.1 19.9 C 466.08 19.88 466.9 19.9 466.9 19.9 L 466.9 21.2 C 466.9 21.2 466.76 21.18 466.8 21.2 C 466.6 21.2 466.5 21.2 466.4 21.4 C 466.42 21.39 464.7 26 464.7 26 L 462.9 26 C 462.9 26 461.1 21.39 461.1 21.4 Z M 468 21.4 C 468 21.3 467.9 21.2 467.8 21.2 C 467.76 21.18 467.3 21.2 467.3 21.2 L 467.3 19.9 C 467.3 19.9 468.69 19.88 468.7 19.9 C 469.2 19.9 469.5 20.1 469.5 20.6 C 469.5 20.6 469.5 20.7 469.5 20.7 C 469.5 20.9 469.5 21 469.5 21 C 469.5 21 469.5 21 469.5 21 C 469.8 20.5 470.4 19.7 471.7 19.7 C 473 19.7 473.8 20.4 473.8 22.1 C 473.8 22.1 473.8 24.5 473.8 24.5 C 473.8 24.6 473.9 24.7 474.1 24.7 C 474.05 24.72 474.5 24.7 474.5 24.7 L 474.5 26 C 474.5 26 473.08 26 473.1 26 C 472.5 26 472.3 25.8 472.3 25.2 C 472.3 25.2 472.3 22.4 472.3 22.4 C 472.3 21.6 472.1 21.1 471.3 21.1 C 470.5 21.1 469.9 21.6 469.7 22.4 C 469.6 22.6 469.5 22.9 469.5 23.2 C 469.54 23.19 469.5 26 469.5 26 L 468 26 C 468 26 468.03 21.44 468 21.4 Z M 478.2 19.7 C 480 19.7 481 21 481 22.6 C 480.95 22.82 480.9 23.2 480.9 23.2 C 480.9 23.2 476.69 23.2 476.7 23.2 C 476.8 24.3 477.6 24.8 478.5 24.8 C 479.51 24.85 480.2 24.2 480.2 24.2 L 480.9 25.2 C 480.9 25.2 479.94 26.14 478.4 26.1 C 476.4 26.1 475.1 24.7 475.1 22.9 C 475.1 21.1 476.4 19.7 478.2 19.7 Z M 479.4 22.1 C 479.4 21.4 478.9 20.9 478.2 20.9 C 477.5 20.9 476.9 21.4 476.7 22.1 C 476.7 22.1 479.4 22.1 479.4 22.1 Z M 478.5 17.5 L 480 17.5 L 478.7 19.1 L 477.6 19.1 L 478.5 17.5 Z M 488.3 19.7 C 490.2 19.7 491.7 21.1 491.7 22.9 C 491.7 24.8 490.2 26.1 488.3 26.1 C 486.5 26.1 485 24.8 485 22.9 C 485 21.1 486.5 19.7 488.3 19.7 Z M 488.3 24.8 C 489.3 24.8 490.2 24.1 490.2 22.9 C 490.2 21.8 489.3 21 488.3 21 C 487.4 21 486.5 21.8 486.5 22.9 C 486.5 24.1 487.4 24.8 488.3 24.8 Z M 492.9 19 C 492.9 18.9 492.8 18.8 492.7 18.8 C 492.68 18.78 492.2 18.8 492.2 18.8 L 492.2 17.5 C 492.2 17.5 493.65 17.48 493.6 17.5 C 494.2 17.5 494.5 17.6 494.5 18.2 C 494.46 18.18 494.5 22 494.5 22 C 494.5 22 494.92 22.04 494.9 22 C 495.1 22 495.4 22 495.5 21.8 C 495.49 21.81 496.7 19.9 496.7 19.9 L 498.4 19.9 C 498.4 19.9 496.89 22.18 496.9 22.2 C 496.62 22.57 496.4 22.7 496.4 22.7 L 496.4 22.7 C 496.4 22.7 496.65 22.77 496.9 23.2 C 496.9 23.2 497.6 24.5 497.6 24.5 C 497.7 24.7 497.8 24.7 498.1 24.7 C 498.06 24.72 498.5 24.7 498.5 24.7 L 498.5 26 C 498.5 26 497.34 26 497.3 26 C 496.8 26 496.6 25.9 496.4 25.5 C 496.4 25.5 495.4 23.6 495.4 23.6 C 495.2 23.3 495 23.3 494.8 23.3 C 494.8 23.32 494.5 23.3 494.5 23.3 L 494.5 26 L 492.9 26 C 492.9 26 492.94 19.04 492.9 19 Z M 499.6 21.4 C 499.6 21.3 499.5 21.2 499.4 21.2 C 499.36 21.18 498.9 21.2 498.9 21.2 L 498.9 19.9 C 498.9 19.9 500.27 19.88 500.3 19.9 C 500.8 19.9 501.1 20.1 501.1 20.6 C 501.1 20.6 501.1 21 501.1 21 C 501.09 21.21 501.1 21.4 501.1 21.4 C 501.1 21.4 501.09 21.37 501.1 21.4 C 501.4 20.5 502.1 19.8 503 19.8 C 503.16 19.8 503.3 19.8 503.3 19.8 L 503.3 21.3 C 503.3 21.3 503.15 21.3 502.9 21.3 C 502.3 21.3 501.5 21.7 501.3 22.6 C 501.2 22.9 501.1 23.2 501.1 23.6 C 501.13 23.58 501.1 26 501.1 26 L 499.6 26 C 499.6 26 499.62 21.44 499.6 21.4 Z M 504.6 21.4 C 504.6 21.3 504.5 21.2 504.4 21.2 C 504.35 21.18 503.9 21.2 503.9 21.2 L 503.9 19.9 C 503.9 19.9 505.32 19.88 505.3 19.9 C 505.9 19.9 506.1 20.1 506.1 20.7 C 506.1 20.7 506.1 23.5 506.1 23.5 C 506.1 24.2 506.3 24.8 507.1 24.8 C 508.2 24.8 508.8 23.8 508.8 22.7 C 508.79 22.69 508.8 19.9 508.8 19.9 L 510.3 19.9 C 510.3 19.9 510.31 24.45 510.3 24.5 C 510.3 24.6 510.4 24.7 510.6 24.7 C 510.58 24.72 511.1 24.7 511.1 24.7 L 511.1 26 C 511.1 26 509.66 26 509.7 26 C 509.1 26 508.9 25.7 508.9 25.3 C 508.9 25.3 508.9 25.1 508.9 25.1 C 508.9 25 508.9 24.9 508.9 24.9 C 508.9 24.9 508.8 24.9 508.8 24.9 C 508.6 25.5 507.8 26.1 506.7 26.1 C 505.4 26.1 504.6 25.5 504.6 23.8 C 504.6 23.8 504.6 21.4 504.6 21.4 Z M 512.2 19 C 512.2 18.9 512.2 18.8 512 18.8 C 511.98 18.78 511.5 18.8 511.5 18.8 L 511.5 17.5 C 511.5 17.5 512.96 17.48 513 17.5 C 513.5 17.5 513.8 17.7 513.8 18.3 C 513.8 18.3 513.8 20.4 513.8 20.4 C 513.77 20.73 513.7 20.9 513.7 20.9 C 513.7 20.9 513.77 20.95 513.8 20.9 C 514.1 20.4 514.8 19.7 515.9 19.7 C 517.2 19.7 518 20.4 518 22.1 C 518 22.1 518 24.5 518 24.5 C 518 24.6 518.1 24.7 518.3 24.7 C 518.27 24.72 518.8 24.7 518.8 24.7 L 518.8 26 C 518.8 26 517.3 26 517.3 26 C 516.7 26 516.5 25.8 516.5 25.2 C 516.5 25.2 516.5 22.4 516.5 22.4 C 516.5 21.6 516.3 21.1 515.5 21.1 C 514.7 21.1 514.1 21.7 513.9 22.4 C 513.8 22.6 513.8 22.9 513.8 23.2 C 513.77 23.19 513.8 26 513.8 26 L 512.2 26 C 512.2 26 512.25 19.04 512.2 19 Z M 520.3 27.2 C 520.8 27.2 521.1 27 521.3 26.5 C 521.34 26.46 521.5 26 521.5 26 C 521.5 26 519.51 21.39 519.5 21.4 C 519.4 21.2 519.4 21.2 519.2 21.2 C 519.18 21.18 519 21.2 519 21.2 L 519 19.9 C 519 19.9 520.01 19.88 520 19.9 C 520.4 19.9 520.7 20 520.8 20.5 C 520.8 20.5 522 23.5 522 23.5 C 522.14 23.83 522.2 24.3 522.2 24.3 L 522.3 24.3 C 522.3 24.3 522.35 23.83 522.5 23.5 C 522.5 23.5 523.5 20.5 523.5 20.5 C 523.6 20 523.9 19.9 524.3 19.9 C 524.32 19.88 525.4 19.9 525.4 19.9 L 525.4 21.2 C 525.4 21.2 525.17 21.18 525.2 21.2 C 525 21.2 524.9 21.2 524.8 21.4 C 524.8 21.4 522.6 26.9 522.6 26.9 C 522.2 28 521.3 28.5 520.4 28.5 C 519.46 28.52 518.9 27.9 518.9 27.9 L 519.5 26.8 C 519.5 26.8 519.83 27.24 520.3 27.2 Z M 532.4 19.7 C 534.3 19.7 535.8 21.1 535.8 22.9 C 535.8 24.8 534.3 26.1 532.4 26.1 C 530.5 26.1 529.1 24.8 529.1 22.9 C 529.1 21.1 530.5 19.7 532.4 19.7 Z M 532.4 24.8 C 533.4 24.8 534.2 24.1 534.2 22.9 C 534.2 21.8 533.4 21 532.4 21 C 531.4 21 530.6 21.8 530.6 22.9 C 530.6 24.1 531.4 24.8 532.4 24.8 Z M 537.2 21.1 L 536.4 21.1 L 536.4 19.9 L 537.2 19.9 L 537.2 18.2 L 538.7 18.2 L 538.7 19.9 L 540.1 19.9 L 540.1 21.1 L 538.7 21.1 C 538.7 21.1 538.69 23.56 538.7 23.6 C 538.7 24.6 539.5 24.7 539.9 24.7 C 540.07 24.72 540.2 24.7 540.2 24.7 L 540.2 26 C 540.2 26 539.99 26.06 539.7 26.1 C 538.9 26.1 537.2 25.8 537.2 23.8 C 537.17 23.76 537.2 21.1 537.2 21.1 Z M 544.6 22.2 C 544.59 22.16 544.8 22.2 544.8 22.2 C 544.8 22.2 544.78 22.11 544.8 22.1 C 544.8 21.2 544.4 20.9 543.7 20.9 C 543.4 20.9 542.8 21 542.8 21.3 C 542.83 21.32 542.8 21.6 542.8 21.6 L 541.4 21.6 C 541.4 21.6 541.42 21 541.4 21 C 541.4 19.9 543 19.7 543.7 19.7 C 545.7 19.7 546.3 20.8 546.3 22.2 C 546.3 22.2 546.3 24.5 546.3 24.5 C 546.3 24.6 546.4 24.7 546.6 24.7 C 546.57 24.72 547 24.7 547 24.7 L 547 26 C 547 26 545.68 26 545.7 26 C 545.1 26 544.9 25.7 544.9 25.3 C 544.9 25.2 544.9 25.1 544.9 25.1 C 544.91 25.06 544.9 25.1 544.9 25.1 C 544.9 25.1 544.42 26.14 543 26.1 C 541.9 26.1 541 25.5 541 24.2 C 541 22.3 543.6 22.2 544.6 22.2 Z M 543.4 25 C 544.2 25 544.8 24.1 544.8 23.3 C 544.8 23.35 544.8 23.2 544.8 23.2 C 544.8 23.2 544.54 23.2 544.5 23.2 C 543.7 23.2 542.5 23.3 542.5 24.2 C 542.5 24.6 542.8 25 543.4 25 Z M 544.1 17.5 L 545.6 17.5 L 544.3 19.1 L 543.2 19.1 L 544.1 17.5 Z M 547.6 25.2 C 547.6 25.2 550.42 21.74 550.4 21.7 C 550.7 21.39 550.9 21.2 550.9 21.2 L 550.9 21.2 C 550.9 21.2 550.76 21.18 550.4 21.2 C 550.4 21.2 549.3 21.2 549.3 21.2 C 549.1 21.2 549 21.3 549 21.4 C 549 21.44 549 21.8 549 21.8 L 547.6 21.8 C 547.6 21.8 547.62 20.7 547.6 20.7 C 547.6 20.1 547.9 19.9 548.4 19.9 C 548.44 19.88 552.9 19.9 552.9 19.9 L 552.9 20.7 C 552.9 20.7 550.11 24.15 550.1 24.2 C 549.83 24.49 549.6 24.7 549.6 24.7 L 549.6 24.7 C 549.6 24.7 549.77 24.7 550.2 24.7 C 550.2 24.7 551.5 24.7 551.5 24.7 C 551.7 24.7 551.8 24.6 551.8 24.4 C 551.78 24.44 551.8 24.1 551.8 24.1 L 553.2 24.1 C 553.2 24.1 553.15 25.18 553.2 25.2 C 553.2 25.8 552.9 26 552.4 26 C 552.35 26 547.6 26 547.6 26 L 547.6 25.2 Z M 557 19.7 C 558.9 19.7 560.4 21.1 560.4 22.9 C 560.4 24.8 558.9 26.1 557 26.1 C 555.2 26.1 553.7 24.8 553.7 22.9 C 553.7 21.1 555.2 19.7 557 19.7 Z M 557 24.8 C 558 24.8 558.8 24.1 558.8 22.9 C 558.8 21.8 558 21 557 21 C 556 21 555.2 21.8 555.2 22.9 C 555.2 24.1 556 24.8 557 24.8 Z M 561.6 19 C 561.6 18.9 561.5 18.8 561.4 18.8 C 561.35 18.78 560.9 18.8 560.9 18.8 L 560.9 17.5 C 560.9 17.5 562.32 17.48 562.3 17.5 C 562.9 17.5 563.1 17.6 563.1 18.2 C 563.14 18.18 563.1 22 563.1 22 C 563.1 22 563.59 22.04 563.6 22 C 563.8 22 564 22 564.2 21.8 C 564.17 21.81 565.4 19.9 565.4 19.9 L 567.1 19.9 C 567.1 19.9 565.56 22.18 565.6 22.2 C 565.3 22.57 565.1 22.7 565.1 22.7 L 565.1 22.7 C 565.1 22.7 565.32 22.77 565.5 23.2 C 565.5 23.2 566.2 24.5 566.2 24.5 C 566.3 24.7 566.4 24.7 566.7 24.7 C 566.74 24.72 567.1 24.7 567.1 24.7 L 567.1 26 C 567.1 26 566.02 26 566 26 C 565.5 26 565.3 25.9 565.1 25.5 C 565.1 25.5 564 23.6 564 23.6 C 563.9 23.3 563.7 23.3 563.5 23.3 C 563.47 23.32 563.1 23.3 563.1 23.3 L 563.1 26 L 561.6 26 C 561.6 26 561.62 19.04 561.6 19 Z M 568.4 19.9 L 569.9 19.9 L 569.9 21.4 L 568.4 21.4 L 568.4 19.9 Z M 568.4 24.5 L 569.9 24.5 L 569.9 26 L 568.4 26 L 568.4 24.5 Z " stroke="none" fill="#000"/>  </g>  <g id="Polygon71865">    <path d="M 137.7 1.8 L 136.9 1.8 L 136.9 0.5 C 136.9 0.5 140.81 0.48 140.8 0.5 C 142.4 0.5 143.5 1.6 143.5 3.3 C 143.5 4.9 142.4 6.1 140.8 6.1 C 140.81 6.06 139.3 6.1 139.3 6.1 L 139.3 9 L 137.7 9 L 137.7 1.8 Z M 140.5 4.7 C 141.4 4.7 141.9 4.1 141.9 3.3 C 141.9 2.4 141.4 1.8 140.5 1.8 C 140.55 1.81 139.3 1.8 139.3 1.8 L 139.3 4.7 C 139.3 4.7 140.52 4.72 140.5 4.7 Z M 147.3 2.7 C 149.1 2.7 150.6 4.1 150.6 5.9 C 150.6 7.8 149.1 9.1 147.3 9.1 C 145.4 9.1 143.9 7.8 143.9 5.9 C 143.9 4.1 145.4 2.7 147.3 2.7 Z M 147.3 7.8 C 148.3 7.8 149.1 7.1 149.1 5.9 C 149.1 4.8 148.3 4 147.3 4 C 146.3 4 145.4 4.8 145.4 5.9 C 145.4 7.1 146.3 7.8 147.3 7.8 Z M 152 4.4 C 152 4.3 151.9 4.2 151.7 4.2 C 151.71 4.18 151.2 4.2 151.2 4.2 L 151.2 2.9 C 151.2 2.9 152.68 2.88 152.7 2.9 C 153.2 2.9 153.5 3.1 153.5 3.7 C 153.5 3.7 153.5 6.5 153.5 6.5 C 153.5 7.2 153.7 7.8 154.4 7.8 C 155.5 7.8 156.1 6.8 156.1 5.7 C 156.15 5.69 156.1 2.9 156.1 2.9 L 157.7 2.9 C 157.7 2.9 157.67 7.45 157.7 7.5 C 157.7 7.6 157.8 7.7 157.9 7.7 C 157.93 7.72 158.4 7.7 158.4 7.7 L 158.4 9 C 158.4 9 157.01 9 157 9 C 156.5 9 156.2 8.7 156.2 8.3 C 156.2 8.3 156.2 8.1 156.2 8.1 C 156.2 8 156.2 7.9 156.2 7.9 C 156.2 7.9 156.2 7.9 156.2 7.9 C 155.9 8.5 155.1 9.1 154.1 9.1 C 152.8 9.1 152 8.5 152 6.8 C 152 6.8 152 4.4 152 4.4 Z M 159 8.2 C 159 8.2 161.8 4.74 161.8 4.7 C 162.07 4.39 162.3 4.2 162.3 4.2 L 162.3 4.2 C 162.3 4.2 162.13 4.18 161.8 4.2 C 161.8 4.2 160.6 4.2 160.6 4.2 C 160.5 4.2 160.4 4.3 160.4 4.4 C 160.38 4.44 160.4 4.8 160.4 4.8 L 159 4.8 C 159 4.8 159 3.7 159 3.7 C 159 3.1 159.2 2.9 159.8 2.9 C 159.82 2.88 164.3 2.9 164.3 2.9 L 164.3 3.7 C 164.3 3.7 161.49 7.15 161.5 7.2 C 161.21 7.49 161 7.7 161 7.7 L 161 7.7 C 161 7.7 161.15 7.7 161.5 7.7 C 161.5 7.7 162.9 7.7 162.9 7.7 C 163.1 7.7 163.2 7.6 163.2 7.4 C 163.16 7.44 163.2 7.1 163.2 7.1 L 164.5 7.1 C 164.5 7.1 164.53 8.18 164.5 8.2 C 164.5 8.8 164.3 9 163.7 9 C 163.73 9 159 9 159 9 L 159 8.2 Z M 160 0.5 L 161.2 0.5 L 161.8 1.5 L 161.8 1.5 L 162.4 0.5 L 163.6 0.5 L 162.4 2.1 L 161.2 2.1 L 160 0.5 Z M 165.8 4.4 C 165.8 4.3 165.7 4.2 165.6 4.2 C 165.58 4.18 165.1 4.2 165.1 4.2 L 165.1 2.9 C 165.1 2.9 166.55 2.88 166.6 2.9 C 167.1 2.9 167.4 3.1 167.4 3.7 C 167.4 3.7 167.4 7.5 167.4 7.5 C 167.4 7.6 167.5 7.7 167.6 7.7 C 167.63 7.72 168.1 7.7 168.1 7.7 L 168.1 9 C 168.1 9 166.66 9 166.7 9 C 166.1 9 165.8 8.8 165.8 8.2 C 165.8 8.2 165.8 4.4 165.8 4.4 Z M 166.8 0.5 L 168.3 0.5 L 167 2.1 L 165.9 2.1 L 166.8 0.5 Z M 169 4.4 C 168.9 4.2 168.8 4.2 168.6 4.2 C 168.63 4.18 168.5 4.2 168.5 4.2 L 168.5 2.9 C 168.5 2.9 169.37 2.88 169.4 2.9 C 169.9 2.9 170.1 3 170.3 3.5 C 170.3 3.5 171.4 6.7 171.4 6.7 C 171.55 7.03 171.7 7.5 171.7 7.5 L 171.7 7.5 C 171.7 7.5 171.77 7.03 171.9 6.7 C 171.9 6.7 173 3.5 173 3.5 C 173.2 3 173.4 2.9 173.9 2.9 C 173.94 2.88 174.8 2.9 174.8 2.9 L 174.8 4.2 C 174.8 4.2 174.61 4.18 174.6 4.2 C 174.4 4.2 174.3 4.2 174.3 4.4 C 174.28 4.39 172.5 9 172.5 9 L 170.7 9 C 170.7 9 168.96 4.39 169 4.4 Z M 178.9 5.2 C 178.86 5.16 179.1 5.2 179.1 5.2 C 179.1 5.2 179.06 5.11 179.1 5.1 C 179.1 4.2 178.7 3.9 177.9 3.9 C 177.7 3.9 177.1 4 177.1 4.3 C 177.11 4.32 177.1 4.6 177.1 4.6 L 175.7 4.6 C 175.7 4.6 175.7 4 175.7 4 C 175.7 2.9 177.3 2.7 177.9 2.7 C 180 2.7 180.6 3.8 180.6 5.2 C 180.6 5.2 180.6 7.5 180.6 7.5 C 180.6 7.6 180.7 7.7 180.8 7.7 C 180.84 7.72 181.3 7.7 181.3 7.7 L 181.3 9 C 181.3 9 179.95 9 180 9 C 179.4 9 179.2 8.7 179.2 8.3 C 179.2 8.2 179.2 8.1 179.2 8.1 C 179.19 8.06 179.2 8.1 179.2 8.1 C 179.2 8.1 178.7 9.14 177.3 9.1 C 176.2 9.1 175.2 8.5 175.2 7.2 C 175.2 5.3 177.9 5.2 178.9 5.2 Z M 177.7 8 C 178.5 8 179.1 7.1 179.1 6.3 C 179.08 6.35 179.1 6.2 179.1 6.2 C 179.1 6.2 178.82 6.2 178.8 6.2 C 178 6.2 176.8 6.3 176.8 7.2 C 176.8 7.6 177.1 8 177.7 8 Z M 182.6 4.1 L 181.8 4.1 L 181.8 2.9 L 182.6 2.9 L 182.6 1.2 L 184.1 1.2 L 184.1 2.9 L 185.5 2.9 L 185.5 4.1 L 184.1 4.1 C 184.1 4.1 184.09 6.56 184.1 6.6 C 184.1 7.6 184.9 7.7 185.3 7.7 C 185.47 7.72 185.6 7.7 185.6 7.7 L 185.6 9 C 185.6 9 185.39 9.06 185.1 9.1 C 184.3 9.1 182.6 8.8 182.6 6.8 C 182.57 6.76 182.6 4.1 182.6 4.1 Z M 189.4 2.7 C 191.1 2.7 192.1 4 192.1 5.6 C 192.1 5.82 192.1 6.2 192.1 6.2 C 192.1 6.2 187.84 6.2 187.8 6.2 C 188 7.3 188.8 7.8 189.7 7.8 C 190.66 7.85 191.4 7.2 191.4 7.2 L 192 8.2 C 192 8.2 191.09 9.14 189.6 9.1 C 187.5 9.1 186.3 7.7 186.3 5.9 C 186.3 4.1 187.6 2.7 189.4 2.7 Z M 190.5 5.1 C 190.5 4.4 190 3.9 189.4 3.9 C 188.6 3.9 188.1 4.4 187.9 5.1 C 187.9 5.1 190.5 5.1 190.5 5.1 Z M 193.5 2 C 193.5 1.9 193.4 1.8 193.3 1.8 C 193.28 1.78 192.8 1.8 192.8 1.8 L 192.8 0.5 C 192.8 0.5 194.25 0.48 194.2 0.5 C 194.8 0.5 195.1 0.7 195.1 1.3 C 195.1 1.3 195.1 7.5 195.1 7.5 C 195.1 7.6 195.2 7.7 195.3 7.7 C 195.33 7.72 195.8 7.7 195.8 7.7 L 195.8 9 C 195.8 9 194.35 9 194.4 9 C 193.8 9 193.5 8.8 193.5 8.2 C 193.5 8.2 193.5 2 193.5 2 Z M 196.8 0.5 C 196.9 0.7 196.9 0.9 196.9 1.1 C 196.9 1.5 196.8 1.8 196.6 2.2 C 196.6 2.2 195.6 2.2 195.6 2.2 C 195.7 1.8 195.8 1.5 195.8 1.2 C 195.8 1 195.8 0.8 195.7 0.5 C 195.7 0.5 196.8 0.5 196.8 0.5 Z M 198.2 2 C 198.2 1.9 198.1 1.8 198 1.8 C 197.96 1.78 197.5 1.8 197.5 1.8 L 197.5 0.5 C 197.5 0.5 198.93 0.48 198.9 0.5 C 199.5 0.5 199.7 0.6 199.7 1.2 C 199.74 1.18 199.7 5 199.7 5 C 199.7 5 200.2 5.04 200.2 5 C 200.4 5 200.6 5 200.8 4.8 C 200.77 4.81 202 2.9 202 2.9 L 203.7 2.9 C 203.7 2.9 202.17 5.18 202.2 5.2 C 201.9 5.57 201.7 5.7 201.7 5.7 L 201.7 5.7 C 201.7 5.7 201.93 5.77 202.1 6.2 C 202.1 6.2 202.8 7.5 202.8 7.5 C 202.9 7.7 203.1 7.7 203.3 7.7 C 203.34 7.72 203.7 7.7 203.7 7.7 L 203.7 9 C 203.7 9 202.62 9 202.6 9 C 202.1 9 201.9 8.9 201.7 8.5 C 201.7 8.5 200.6 6.6 200.6 6.6 C 200.5 6.3 200.3 6.3 200.1 6.3 C 200.08 6.32 199.7 6.3 199.7 6.3 L 199.7 9 L 198.2 9 C 198.2 9 198.22 2.04 198.2 2 Z M 205.3 10.2 C 205.7 10.2 206 10 206.3 9.5 C 206.26 9.46 206.5 9 206.5 9 C 206.5 9 204.42 4.39 204.4 4.4 C 204.4 4.2 204.3 4.2 204.1 4.2 C 204.1 4.18 203.9 4.2 203.9 4.2 L 203.9 2.9 C 203.9 2.9 204.93 2.88 204.9 2.9 C 205.4 2.9 205.6 3 205.7 3.5 C 205.7 3.5 206.9 6.5 206.9 6.5 C 207.05 6.83 207.1 7.3 207.1 7.3 L 207.2 7.3 C 207.2 7.3 207.27 6.83 207.4 6.5 C 207.4 6.5 208.4 3.5 208.4 3.5 C 208.6 3 208.8 2.9 209.2 2.9 C 209.23 2.88 210.3 2.9 210.3 2.9 L 210.3 4.2 C 210.3 4.2 210.09 4.18 210.1 4.2 C 209.9 4.2 209.8 4.2 209.7 4.4 C 209.7 4.4 207.5 9.9 207.5 9.9 C 207.1 11 206.2 11.5 205.3 11.5 C 204.38 11.52 203.8 10.9 203.8 10.9 L 204.4 9.8 C 204.4 9.8 204.75 10.24 205.3 10.2 Z M 214.5 2 C 214.5 1.9 214.4 1.8 214.3 1.8 C 214.28 1.78 213.8 1.8 213.8 1.8 L 213.8 0.5 C 213.8 0.5 215.25 0.48 215.2 0.5 C 215.8 0.5 216.1 0.7 216.1 1.3 C 216.1 1.3 216.1 3.4 216.1 3.4 C 216.06 3.73 216 3.9 216 3.9 C 216 3.9 216.06 3.95 216.1 3.9 C 216.3 3.4 217.1 2.7 218.2 2.7 C 219.5 2.7 220.3 3.4 220.3 5.1 C 220.3 5.1 220.3 7.5 220.3 7.5 C 220.3 7.6 220.4 7.7 220.6 7.7 C 220.56 7.72 221 7.7 221 7.7 L 221 9 C 221 9 219.59 9 219.6 9 C 219 9 218.8 8.8 218.8 8.2 C 218.8 8.2 218.8 5.4 218.8 5.4 C 218.8 4.6 218.6 4.1 217.8 4.1 C 217 4.1 216.4 4.7 216.2 5.4 C 216.1 5.6 216.1 5.9 216.1 6.2 C 216.06 6.19 216.1 9 216.1 9 L 214.5 9 C 214.5 9 214.54 2.04 214.5 2 Z M 225 2.7 C 226.9 2.7 228.4 4.1 228.4 5.9 C 228.4 7.8 226.9 9.1 225 9.1 C 223.1 9.1 221.7 7.8 221.7 5.9 C 221.7 4.1 223.1 2.7 225 2.7 Z M 225 7.8 C 226 7.8 226.8 7.1 226.8 5.9 C 226.8 4.8 226 4 225 4 C 224 4 223.2 4.8 223.2 5.9 C 223.2 7.1 224 7.8 225 7.8 Z M 231.9 2.7 C 233.25 2.74 233.7 3.5 233.7 3.5 L 233.7 3.5 C 233.7 3.5 233.69 3.32 233.7 3.1 C 233.7 3.1 233.7 2 233.7 2 C 233.7 1.9 233.6 1.8 233.4 1.8 C 233.43 1.78 232.9 1.8 232.9 1.8 L 232.9 0.5 C 232.9 0.5 234.4 0.48 234.4 0.5 C 235 0.5 235.2 0.7 235.2 1.3 C 235.2 1.3 235.2 7.5 235.2 7.5 C 235.2 7.6 235.3 7.7 235.5 7.7 C 235.48 7.72 235.9 7.7 235.9 7.7 L 235.9 9 C 235.9 9 234.54 9 234.5 9 C 234 9 233.8 8.7 233.8 8.4 C 233.8 8.2 233.8 8.1 233.8 8.1 C 233.79 8.15 233.8 8.1 233.8 8.1 C 233.8 8.1 233.26 9.14 231.9 9.1 C 230.2 9.1 229.1 7.8 229.1 5.9 C 229.1 4 230.3 2.7 231.9 2.7 Z M 233.7 5.9 C 233.7 5 233.2 4 232.2 4 C 231.4 4 230.7 4.7 230.7 5.9 C 230.7 7.1 231.3 7.9 232.2 7.9 C 233 7.9 233.7 7.3 233.7 5.9 Z M 237.2 4.4 C 237.2 4.3 237.1 4.2 236.9 4.2 C 236.94 4.18 236.5 4.2 236.5 4.2 L 236.5 2.9 C 236.5 2.9 237.87 2.88 237.9 2.9 C 238.4 2.9 238.7 3.1 238.7 3.6 C 238.7 3.6 238.7 3.7 238.7 3.7 C 238.7 3.9 238.6 4 238.6 4 C 238.6 4 238.7 4 238.7 4 C 238.9 3.5 239.6 2.7 240.8 2.7 C 242.2 2.7 243 3.4 243 5.1 C 243 5.1 243 7.5 243 7.5 C 243 7.6 243.1 7.7 243.2 7.7 C 243.23 7.72 243.7 7.7 243.7 7.7 L 243.7 9 C 243.7 9 242.26 9 242.3 9 C 241.7 9 241.4 8.8 241.4 8.2 C 241.4 8.2 241.4 5.4 241.4 5.4 C 241.4 4.6 241.3 4.1 240.5 4.1 C 239.7 4.1 239.1 4.6 238.8 5.4 C 238.8 5.6 238.7 5.9 238.7 6.2 C 238.72 6.19 238.7 9 238.7 9 L 237.2 9 C 237.2 9 237.21 4.44 237.2 4.4 Z M 247.7 2.7 C 249.5 2.7 251 4.1 251 5.9 C 251 7.8 249.5 9.1 247.7 9.1 C 245.8 9.1 244.3 7.8 244.3 5.9 C 244.3 4.1 245.8 2.7 247.7 2.7 Z M 247.7 7.8 C 248.7 7.8 249.5 7.1 249.5 5.9 C 249.5 4.8 248.7 4 247.7 4 C 246.7 4 245.8 4.8 245.8 5.9 C 245.8 7.1 246.7 7.8 247.7 7.8 Z M 252.4 4.1 L 251.6 4.1 L 251.6 2.9 L 252.5 2.9 L 252.5 1.2 L 253.9 1.2 L 253.9 2.9 L 255.3 2.9 L 255.3 4.1 L 253.9 4.1 C 253.9 4.1 253.95 6.56 253.9 6.6 C 253.9 7.6 254.7 7.7 255.2 7.7 C 255.33 7.72 255.4 7.7 255.4 7.7 L 255.4 9 C 255.4 9 255.24 9.06 255 9.1 C 254.1 9.1 252.4 8.8 252.4 6.8 C 252.42 6.76 252.4 4.1 252.4 4.1 Z M 257 0.5 L 258.3 0.5 L 258.3 1.9 L 257 1.9 L 257 0.5 Z M 256.9 4.4 C 256.9 4.3 256.8 4.2 256.6 4.2 C 256.62 4.18 256.1 4.2 256.1 4.2 L 256.1 2.9 C 256.1 2.9 257.59 2.88 257.6 2.9 C 258.2 2.9 258.4 3.1 258.4 3.7 C 258.4 3.7 258.4 7.5 258.4 7.5 C 258.4 7.6 258.5 7.7 258.7 7.7 C 258.66 7.72 259.1 7.7 259.1 7.7 L 259.1 9 C 259.1 9 257.69 9 257.7 9 C 257.1 9 256.9 8.8 256.9 8.2 C 256.9 8.2 256.9 4.4 256.9 4.4 Z M 260.4 2 C 260.4 1.9 260.3 1.8 260.1 1.8 C 260.13 1.78 259.6 1.8 259.6 1.8 L 259.6 0.5 C 259.6 0.5 261.1 0.48 261.1 0.5 C 261.7 0.5 261.9 0.7 261.9 1.3 C 261.9 1.3 261.9 7.5 261.9 7.5 C 261.9 7.6 262 7.7 262.2 7.7 C 262.18 7.72 262.6 7.7 262.6 7.7 L 262.6 9 C 262.6 9 261.21 9 261.2 9 C 260.6 9 260.4 8.8 260.4 8.2 C 260.4 8.2 260.4 2 260.4 2 Z M 264 0.5 L 265.4 0.5 L 265.4 1.9 L 264 1.9 L 264 0.5 Z M 264 4.4 C 264 4.3 263.9 4.2 263.7 4.2 C 263.7 4.18 263.2 4.2 263.2 4.2 L 263.2 2.9 C 263.2 2.9 264.67 2.88 264.7 2.9 C 265.2 2.9 265.5 3.1 265.5 3.7 C 265.5 3.7 265.5 7.5 265.5 7.5 C 265.5 7.6 265.6 7.7 265.7 7.7 C 265.74 7.72 266.2 7.7 266.2 7.7 L 266.2 9 C 266.2 9 264.77 9 264.8 9 C 264.2 9 264 8.8 264 8.2 C 264 8.2 264 4.4 264 4.4 Z M 270.7 7.1 C 270.7 7.1 271.49 7.96 272.5 8 C 273 8 273.4 7.8 273.4 7.4 C 273.4 6.5 270.1 6.5 270.1 4.5 C 270.1 3.3 271.2 2.7 272.5 2.7 C 273.3 2.7 274.7 3 274.7 4 C 274.66 4.01 274.7 4.6 274.7 4.6 L 273.3 4.6 C 273.3 4.6 273.31 4.34 273.3 4.3 C 273.3 4.1 272.9 3.9 272.5 3.9 C 272 3.9 271.6 4.1 271.6 4.5 C 271.6 5.4 274.9 5.2 274.9 7.3 C 274.9 8.4 273.9 9.1 272.5 9.1 C 270.85 9.14 270 8.1 270 8.1 L 270.7 7.1 Z M 276.3 4.4 C 276.3 4.3 276.2 4.2 276 4.2 C 276.04 4.18 275.6 4.2 275.6 4.2 L 275.6 2.9 C 275.6 2.9 276.91 2.88 276.9 2.9 C 277.5 2.9 277.7 3.1 277.7 3.5 C 277.7 3.6 277.7 3.7 277.7 3.7 C 277.68 3.71 277.7 3.7 277.7 3.7 C 277.7 3.7 278.22 2.74 279.6 2.7 C 281.3 2.7 282.4 4 282.4 5.9 C 282.4 7.9 281.2 9.1 279.6 9.1 C 278.35 9.14 277.8 8.3 277.8 8.3 L 277.8 8.3 C 277.8 8.3 277.81 8.56 277.8 8.9 C 277.81 8.87 277.8 11.4 277.8 11.4 L 276.3 11.4 C 276.3 11.4 276.3 4.44 276.3 4.4 Z M 279.3 7.9 C 280.1 7.9 280.8 7.2 280.8 6 C 280.8 4.8 280.2 4 279.3 4 C 278.5 4 277.8 4.6 277.8 6 C 277.8 6.9 278.3 7.9 279.3 7.9 Z M 286.5 2.7 C 288.4 2.7 289.8 4.1 289.8 5.9 C 289.8 7.8 288.4 9.1 286.5 9.1 C 284.6 9.1 283.1 7.8 283.1 5.9 C 283.1 4.1 284.6 2.7 286.5 2.7 Z M 286.5 7.8 C 287.5 7.8 288.3 7.1 288.3 5.9 C 288.3 4.8 287.5 4 286.5 4 C 285.5 4 284.7 4.8 284.7 5.9 C 284.7 7.1 285.5 7.8 286.5 7.8 Z M 291.1 2 C 291.1 1.9 291 1.8 290.8 1.8 C 290.82 1.78 290.3 1.8 290.3 1.8 L 290.3 0.5 C 290.3 0.5 291.79 0.48 291.8 0.5 C 292.4 0.5 292.6 0.6 292.6 1.2 C 292.61 1.18 292.6 5 292.6 5 C 292.6 5 293.06 5.04 293.1 5 C 293.3 5 293.5 5 293.6 4.8 C 293.64 4.81 294.9 2.9 294.9 2.9 L 296.6 2.9 C 296.6 2.9 295.03 5.18 295 5.2 C 294.77 5.57 294.6 5.7 294.6 5.7 L 294.6 5.7 C 294.6 5.7 294.79 5.77 295 6.2 C 295 6.2 295.7 7.5 295.7 7.5 C 295.8 7.7 295.9 7.7 296.2 7.7 C 296.21 7.72 296.6 7.7 296.6 7.7 L 296.6 9 C 296.6 9 295.49 9 295.5 9 C 295 9 294.8 8.9 294.5 8.5 C 294.5 8.5 293.5 6.6 293.5 6.6 C 293.4 6.3 293.1 6.3 292.9 6.3 C 292.94 6.32 292.6 6.3 292.6 6.3 L 292.6 9 L 291.1 9 C 291.1 9 291.09 2.04 291.1 2 Z M 300.4 2.7 C 302.3 2.7 303.8 4.1 303.8 5.9 C 303.8 7.8 302.3 9.1 300.4 9.1 C 298.5 9.1 297.1 7.8 297.1 5.9 C 297.1 4.1 298.5 2.7 300.4 2.7 Z M 300.4 7.8 C 301.4 7.8 302.2 7.1 302.2 5.9 C 302.2 4.8 301.4 4 300.4 4 C 299.4 4 298.6 4.8 298.6 5.9 C 298.6 7.1 299.4 7.8 300.4 7.8 Z M 305.5 0.5 L 306.8 0.5 L 306.8 1.9 L 305.5 1.9 L 305.5 0.5 Z M 304.2 10.2 C 304.6 10.2 305.4 10.1 305.4 9.1 C 305.4 9.1 305.4 4.4 305.4 4.4 C 305.4 4.3 305.3 4.2 305.1 4.2 C 305.15 4.18 304.7 4.2 304.7 4.2 L 304.7 2.9 C 304.7 2.9 306.12 2.88 306.1 2.9 C 306.7 2.9 306.9 3.1 306.9 3.7 C 306.9 3.7 306.9 9.2 306.9 9.2 C 306.9 11.2 305.2 11.5 304.4 11.5 C 304.1 11.5 303.9 11.4 303.9 11.4 C 303.93 11.45 303.9 10.2 303.9 10.2 C 303.9 10.2 304.03 10.19 304.2 10.2 Z M 308.8 4.4 C 308.8 4.3 308.7 4.2 308.5 4.2 C 308.55 4.18 308.1 4.2 308.1 4.2 L 308.1 2.9 C 308.1 2.9 309.47 2.88 309.5 2.9 C 310 2.9 310.3 3.1 310.3 3.6 C 310.3 3.6 310.3 3.7 310.3 3.7 C 310.3 3.9 310.2 4 310.2 4 C 310.2 4 310.3 4 310.3 4 C 310.5 3.5 311.2 2.7 312.4 2.7 C 313.8 2.7 314.6 3.4 314.6 5.1 C 314.6 5.1 314.6 7.5 314.6 7.5 C 314.6 7.6 314.7 7.7 314.8 7.7 C 314.83 7.72 315.3 7.7 315.3 7.7 L 315.3 9 C 315.3 9 313.86 9 313.9 9 C 313.3 9 313 8.8 313 8.2 C 313 8.2 313 5.4 313 5.4 C 313 4.6 312.9 4.1 312.1 4.1 C 311.3 4.1 310.7 4.6 310.4 5.4 C 310.4 5.6 310.3 5.9 310.3 6.2 C 310.32 6.19 310.3 9 310.3 9 L 308.8 9 C 308.8 9 308.81 4.44 308.8 4.4 Z M 319.3 2.7 C 321.1 2.7 322.6 4.1 322.6 5.9 C 322.6 7.8 321.1 9.1 319.3 9.1 C 317.4 9.1 315.9 7.8 315.9 5.9 C 315.9 4.1 317.4 2.7 319.3 2.7 Z M 319.3 7.8 C 320.3 7.8 321.1 7.1 321.1 5.9 C 321.1 4.8 320.3 4 319.3 4 C 318.3 4 317.4 4.8 317.4 5.9 C 317.4 7.1 318.3 7.8 319.3 7.8 Z M 324 7.1 C 324 7.1 324.8 7.96 325.8 8 C 326.3 8 326.7 7.8 326.7 7.4 C 326.7 6.5 323.4 6.5 323.4 4.5 C 323.4 3.3 324.6 2.7 325.8 2.7 C 326.7 2.7 328 3 328 4 C 327.97 4.01 328 4.6 328 4.6 L 326.6 4.6 C 326.6 4.6 326.63 4.34 326.6 4.3 C 326.6 4.1 326.2 3.9 325.9 3.9 C 325.3 3.9 324.9 4.1 324.9 4.5 C 324.9 5.4 328.2 5.2 328.2 7.3 C 328.2 8.4 327.2 9.1 325.8 9.1 C 324.17 9.14 323.3 8.1 323.3 8.1 L 324 7.1 Z M 329.7 4.1 L 328.9 4.1 L 328.9 2.9 L 329.7 2.9 L 329.7 1.2 L 331.2 1.2 L 331.2 2.9 L 332.6 2.9 L 332.6 4.1 L 331.2 4.1 C 331.2 4.1 331.2 6.56 331.2 6.6 C 331.2 7.6 332 7.7 332.4 7.7 C 332.58 7.72 332.7 7.7 332.7 7.7 L 332.7 9 C 332.7 9 332.5 9.06 332.2 9.1 C 331.4 9.1 329.7 8.8 329.7 6.8 C 329.68 6.76 329.7 4.1 329.7 4.1 Z M 333 0.5 C 333.1 0.7 333.1 0.9 333.1 1.1 C 333.1 1.5 333 1.8 332.8 2.2 C 332.8 2.2 331.8 2.2 331.8 2.2 C 331.9 1.8 332 1.5 332 1.2 C 332 1 332 0.8 331.9 0.5 C 331.9 0.5 333 0.5 333 0.5 Z M 337.8 7.1 C 337.8 7.1 338.56 7.96 339.6 8 C 340.1 8 340.4 7.8 340.4 7.4 C 340.4 6.5 337.2 6.5 337.2 4.5 C 337.2 3.3 338.3 2.7 339.6 2.7 C 340.4 2.7 341.7 3 341.7 4 C 341.72 4.01 341.7 4.6 341.7 4.6 L 340.4 4.6 C 340.4 4.6 340.38 4.34 340.4 4.3 C 340.4 4.1 339.9 3.9 339.6 3.9 C 339.1 3.9 338.7 4.1 338.7 4.5 C 338.7 5.4 342 5.2 342 7.3 C 342 8.4 340.9 9.1 339.6 9.1 C 337.92 9.14 337.1 8.1 337.1 8.1 L 337.8 7.1 Z M 349.6 5.2 C 349.58 5.16 349.8 5.2 349.8 5.2 C 349.8 5.2 349.78 5.11 349.8 5.1 C 349.8 4.2 349.4 3.9 348.6 3.9 C 348.4 3.9 347.8 4 347.8 4.3 C 347.83 4.32 347.8 4.6 347.8 4.6 L 346.4 4.6 C 346.4 4.6 346.42 4 346.4 4 C 346.4 2.9 348 2.7 348.7 2.7 C 350.7 2.7 351.3 3.8 351.3 5.2 C 351.3 5.2 351.3 7.5 351.3 7.5 C 351.3 7.6 351.4 7.7 351.6 7.7 C 351.56 7.72 352 7.7 352 7.7 L 352 9 C 352 9 350.68 9 350.7 9 C 350.1 9 349.9 8.7 349.9 8.3 C 349.9 8.2 349.9 8.1 349.9 8.1 C 349.91 8.06 349.9 8.1 349.9 8.1 C 349.9 8.1 349.42 9.14 348 9.1 C 346.9 9.1 345.9 8.5 345.9 7.2 C 345.9 5.3 348.6 5.2 349.6 5.2 Z M 348.4 8 C 349.2 8 349.8 7.1 349.8 6.3 C 349.8 6.35 349.8 6.2 349.8 6.2 C 349.8 6.2 349.54 6.2 349.5 6.2 C 348.7 6.2 347.5 6.3 347.5 7.2 C 347.5 7.6 347.8 8 348.4 8 Z M 353.3 4.4 C 353.3 4.3 353.2 4.2 353 4.2 C 353 4.18 352.5 4.2 352.5 4.2 L 352.5 2.9 C 352.5 2.9 353.93 2.88 353.9 2.9 C 354.5 2.9 354.7 3.1 354.7 3.6 C 354.7 3.6 354.7 3.7 354.7 3.7 C 354.7 3.9 354.7 4 354.7 4 C 354.7 4 354.7 4 354.7 4 C 355 3.5 355.7 2.7 356.9 2.7 C 358.2 2.7 359 3.4 359 5.1 C 359 5.1 359 7.5 359 7.5 C 359 7.6 359.1 7.7 359.3 7.7 C 359.29 7.72 359.8 7.7 359.8 7.7 L 359.8 9 C 359.8 9 358.32 9 358.3 9 C 357.7 9 357.5 8.8 357.5 8.2 C 357.5 8.2 357.5 5.4 357.5 5.4 C 357.5 4.6 357.3 4.1 356.5 4.1 C 355.7 4.1 355.1 4.6 354.9 5.4 C 354.8 5.6 354.8 5.9 354.8 6.2 C 354.78 6.19 354.8 9 354.8 9 L 353.3 9 C 353.3 9 353.27 4.44 353.3 4.4 Z M 361 4.1 L 360.2 4.1 L 360.2 2.9 L 361 2.9 L 361 1.2 L 362.5 1.2 L 362.5 2.9 L 363.9 2.9 L 363.9 4.1 L 362.5 4.1 C 362.5 4.1 362.53 6.56 362.5 6.6 C 362.5 7.6 363.3 7.7 363.7 7.7 C 363.91 7.72 364 7.7 364 7.7 L 364 9 C 364 9 363.83 9.06 363.6 9.1 C 362.7 9.1 361 8.8 361 6.8 C 361.01 6.76 361 4.1 361 4.1 Z M 365.5 0.5 L 366.9 0.5 L 366.9 1.9 L 365.5 1.9 L 365.5 0.5 Z M 365.5 4.4 C 365.5 4.3 365.4 4.2 365.2 4.2 C 365.21 4.18 364.7 4.2 364.7 4.2 L 364.7 2.9 C 364.7 2.9 366.18 2.88 366.2 2.9 C 366.7 2.9 367 3.1 367 3.7 C 367 3.7 367 7.5 367 7.5 C 367 7.6 367.1 7.7 367.2 7.7 C 367.25 7.72 367.7 7.7 367.7 7.7 L 367.7 9 C 367.7 9 366.28 9 366.3 9 C 365.7 9 365.5 8.8 365.5 8.2 C 365.5 8.2 365.5 4.4 365.5 4.4 Z M 369 2 C 369 1.9 368.9 1.8 368.7 1.8 C 368.7 1.78 368.2 1.8 368.2 1.8 L 368.2 0.5 C 368.2 0.5 369.67 0.48 369.7 0.5 C 370.2 0.5 370.5 0.6 370.5 1.2 C 370.49 1.18 370.5 5 370.5 5 C 370.5 5 370.94 5.04 370.9 5 C 371.1 5 371.4 5 371.5 4.8 C 371.52 4.81 372.8 2.9 372.8 2.9 L 374.5 2.9 C 374.5 2.9 372.91 5.18 372.9 5.2 C 372.65 5.57 372.5 5.7 372.5 5.7 L 372.5 5.7 C 372.5 5.7 372.67 5.77 372.9 6.2 C 372.9 6.2 373.6 7.5 373.6 7.5 C 373.7 7.7 373.8 7.7 374.1 7.7 C 374.09 7.72 374.5 7.7 374.5 7.7 L 374.5 9 C 374.5 9 373.37 9 373.4 9 C 372.9 9 372.6 8.9 372.4 8.5 C 372.4 8.5 371.4 6.6 371.4 6.6 C 371.3 6.3 371 6.3 370.8 6.3 C 370.82 6.32 370.5 6.3 370.5 6.3 L 370.5 9 L 369 9 C 369 9 368.96 2.04 369 2 Z M 378.3 2.7 C 380.2 2.7 381.6 4.1 381.6 5.9 C 381.6 7.8 380.2 9.1 378.3 9.1 C 376.4 9.1 374.9 7.8 374.9 5.9 C 374.9 4.1 376.4 2.7 378.3 2.7 Z M 378.3 7.8 C 379.3 7.8 380.1 7.1 380.1 5.9 C 380.1 4.8 379.3 4 378.3 4 C 377.3 4 376.5 4.8 376.5 5.9 C 376.5 7.1 377.3 7.8 378.3 7.8 Z M 383 4.4 C 383 4.3 382.9 4.2 382.8 4.2 C 382.76 4.18 382.3 4.2 382.3 4.2 L 382.3 2.9 C 382.3 2.9 383.69 2.88 383.7 2.9 C 384.2 2.9 384.5 3.1 384.5 3.6 C 384.5 3.6 384.5 3.7 384.5 3.7 C 384.5 3.9 384.5 4 384.5 4 C 384.5 4 384.5 4 384.5 4 C 384.8 3.5 385.4 2.7 386.7 2.7 C 388 2.7 388.8 3.4 388.8 5.1 C 388.8 5.1 388.8 7.5 388.8 7.5 C 388.8 7.6 388.9 7.7 389.1 7.7 C 389.05 7.72 389.5 7.7 389.5 7.7 L 389.5 9 C 389.5 9 388.08 9 388.1 9 C 387.5 9 387.3 8.8 387.3 8.2 C 387.3 8.2 387.3 5.4 387.3 5.4 C 387.3 4.6 387.1 4.1 386.3 4.1 C 385.5 4.1 384.9 4.6 384.7 5.4 C 384.6 5.6 384.5 5.9 384.5 6.2 C 384.54 6.19 384.5 9 384.5 9 L 383 9 C 383 9 383.03 4.44 383 4.4 Z M 393.5 2.7 C 394.3 2.7 395.7 3.1 395.7 4.1 C 395.7 4.12 395.7 4.8 395.7 4.8 L 394.4 4.8 C 394.4 4.8 394.36 4.5 394.4 4.5 C 394.4 4.2 393.9 4 393.5 4 C 392.4 4 391.7 4.8 391.7 5.9 C 391.7 7.2 392.6 7.8 393.6 7.8 C 394.62 7.81 395.4 7 395.4 7 L 396 8 C 396 8 395.11 9.14 393.4 9.1 C 391.4 9.1 390.1 7.7 390.1 5.9 C 390.1 4.2 391.4 2.7 393.5 2.7 Z M 399.7 2.7 C 401.4 2.7 402.4 4 402.4 5.6 C 402.41 5.82 402.4 6.2 402.4 6.2 C 402.4 6.2 398.15 6.2 398.1 6.2 C 398.3 7.3 399.1 7.8 400 7.8 C 400.97 7.85 401.7 7.2 401.7 7.2 L 402.3 8.2 C 402.3 8.2 401.4 9.14 399.9 9.1 C 397.8 9.1 396.6 7.7 396.6 5.9 C 396.6 4.1 397.9 2.7 399.7 2.7 Z M 400.8 5.1 C 400.8 4.4 400.3 3.9 399.7 3.9 C 398.9 3.9 398.4 4.4 398.2 5.1 C 398.2 5.1 400.8 5.1 400.8 5.1 Z M 403.9 4.4 C 403.9 4.3 403.8 4.2 403.6 4.2 C 403.62 4.18 403.1 4.2 403.1 4.2 L 403.1 2.9 C 403.1 2.9 404.5 2.88 404.5 2.9 C 405.1 2.9 405.3 3.1 405.3 3.5 C 405.3 3.6 405.3 3.7 405.3 3.7 C 405.26 3.71 405.3 3.7 405.3 3.7 C 405.3 3.7 405.8 2.74 407.2 2.7 C 408.9 2.7 410 4 410 5.9 C 410 7.9 408.8 9.1 407.1 9.1 C 405.93 9.14 405.4 8.3 405.4 8.3 L 405.4 8.3 C 405.4 8.3 405.39 8.56 405.4 8.9 C 405.39 8.87 405.4 11.4 405.4 11.4 L 403.9 11.4 C 403.9 11.4 403.88 4.44 403.9 4.4 Z M 406.9 7.9 C 407.7 7.9 408.4 7.2 408.4 6 C 408.4 4.8 407.8 4 406.9 4 C 406.1 4 405.4 4.6 405.4 6 C 405.4 6.9 405.9 7.9 406.9 7.9 Z M 414.1 2.7 C 414.9 2.7 416.3 3.1 416.3 4.1 C 416.29 4.12 416.3 4.8 416.3 4.8 L 414.9 4.8 C 414.9 4.8 414.95 4.5 414.9 4.5 C 414.9 4.2 414.4 4 414.1 4 C 413 4 412.3 4.8 412.3 5.9 C 412.3 7.2 413.2 7.8 414.2 7.8 C 415.21 7.81 416 7 416 7 L 416.6 8 C 416.6 8 415.7 9.14 414 9.1 C 412 9.1 410.7 7.7 410.7 5.9 C 410.7 4.2 412 2.7 414.1 2.7 Z M 417.9 0.5 L 419.2 0.5 L 419.2 1.9 L 417.9 1.9 L 417.9 0.5 Z M 417.8 4.4 C 417.8 4.3 417.7 4.2 417.6 4.2 C 417.58 4.18 417.1 4.2 417.1 4.2 L 417.1 2.9 C 417.1 2.9 418.55 2.88 418.5 2.9 C 419.1 2.9 419.4 3.1 419.4 3.7 C 419.4 3.7 419.4 7.5 419.4 7.5 C 419.4 7.6 419.4 7.7 419.6 7.7 C 419.61 7.72 420.1 7.7 420.1 7.7 L 420.1 9 C 420.1 9 418.64 9 418.6 9 C 418.1 9 417.8 8.8 417.8 8.2 C 417.8 8.2 417.8 4.4 417.8 4.4 Z M 424.1 2.7 C 426 2.7 427.5 4.1 427.5 5.9 C 427.5 7.8 426 9.1 424.1 9.1 C 422.3 9.1 420.8 7.8 420.8 5.9 C 420.8 4.1 422.3 2.7 424.1 2.7 Z M 424.1 7.8 C 425.1 7.8 425.9 7.1 425.9 5.9 C 425.9 4.8 425.1 4 424.1 4 C 423.1 4 422.3 4.8 422.3 5.9 C 422.3 7.1 423.1 7.8 424.1 7.8 Z M 428.8 4.4 C 428.8 4.3 428.7 4.2 428.6 4.2 C 428.57 4.18 428.1 4.2 428.1 4.2 L 428.1 2.9 C 428.1 2.9 429.54 2.88 429.5 2.9 C 430.1 2.9 430.3 3.1 430.3 3.7 C 430.3 3.7 430.3 6.5 430.3 6.5 C 430.3 7.2 430.5 7.8 431.3 7.8 C 432.4 7.8 433 6.8 433 5.7 C 433.01 5.69 433 2.9 433 2.9 L 434.5 2.9 C 434.5 2.9 434.53 7.45 434.5 7.5 C 434.5 7.6 434.6 7.7 434.8 7.7 C 434.79 7.72 435.3 7.7 435.3 7.7 L 435.3 9 C 435.3 9 433.87 9 433.9 9 C 433.3 9 433.1 8.7 433.1 8.3 C 433.1 8.3 433.1 8.1 433.1 8.1 C 433.1 8 433.1 7.9 433.1 7.9 C 433.1 7.9 433.1 7.9 433.1 7.9 C 432.8 8.5 432 9.1 430.9 9.1 C 429.6 9.1 428.8 8.5 428.8 6.8 C 428.8 6.8 428.8 4.4 428.8 4.4 Z M 439.7 4.4 C 439.7 4.3 439.6 4.2 439.4 4.2 C 439.43 4.18 438.9 4.2 438.9 4.2 L 438.9 2.9 C 438.9 2.9 440.3 2.88 440.3 2.9 C 440.9 2.9 441.1 3.1 441.1 3.5 C 441.1 3.6 441.1 3.7 441.1 3.7 C 441.07 3.71 441.1 3.7 441.1 3.7 C 441.1 3.7 441.61 2.74 443 2.7 C 444.7 2.7 445.8 4 445.8 5.9 C 445.8 7.9 444.6 9.1 443 9.1 C 441.74 9.14 441.2 8.3 441.2 8.3 L 441.2 8.3 C 441.2 8.3 441.2 8.56 441.2 8.9 C 441.2 8.87 441.2 11.4 441.2 11.4 L 439.7 11.4 C 439.7 11.4 439.69 4.44 439.7 4.4 Z M 442.7 7.9 C 443.5 7.9 444.2 7.2 444.2 6 C 444.2 4.8 443.6 4 442.7 4 C 441.9 4 441.2 4.6 441.2 6 C 441.2 6.9 441.7 7.9 442.7 7.9 Z M 449.9 2.7 C 451.8 2.7 453.2 4.1 453.2 5.9 C 453.2 7.8 451.8 9.1 449.9 9.1 C 448 9.1 446.5 7.8 446.5 5.9 C 446.5 4.1 448 2.7 449.9 2.7 Z M 449.9 7.8 C 450.9 7.8 451.7 7.1 451.7 5.9 C 451.7 4.8 450.9 4 449.9 4 C 448.9 4 448.1 4.8 448.1 5.9 C 448.1 7.1 448.9 7.8 449.9 7.8 Z M 454.6 4.4 C 454.6 4.3 454.5 4.2 454.4 4.2 C 454.36 4.18 453.9 4.2 453.9 4.2 L 453.9 2.9 C 453.9 2.9 455.28 2.88 455.3 2.9 C 455.8 2.9 456.1 3.1 456.1 3.6 C 456.1 3.6 456.1 3.7 456.1 3.7 C 456.1 3.9 456.1 4 456.1 4 C 456.1 4 456.1 4 456.1 4 C 456.4 3.4 457.1 2.7 458.1 2.7 C 459 2.7 459.6 3.2 459.9 4 C 459.9 4 459.9 4 459.9 4 C 460.2 3.3 461 2.7 462 2.7 C 463.2 2.7 464 3.5 464 5.1 C 464 5.1 464 7.5 464 7.5 C 464 7.6 464.1 7.7 464.2 7.7 C 464.24 7.72 464.7 7.7 464.7 7.7 L 464.7 9 C 464.7 9 463.27 9 463.3 9 C 462.7 9 462.5 8.8 462.5 8.2 C 462.5 8.2 462.5 5.4 462.5 5.4 C 462.5 4.7 462.3 4.1 461.6 4.1 C 460.9 4.1 460.3 4.8 460.1 5.5 C 460.1 5.8 460.1 6 460.1 6.3 C 460.05 6.31 460.1 9 460.1 9 L 458.5 9 C 458.5 9 458.53 5.35 458.5 5.4 C 458.5 4.7 458.4 4.1 457.7 4.1 C 456.9 4.1 456.4 4.8 456.2 5.5 C 456.2 5.8 456.1 6 456.1 6.3 C 456.13 6.31 456.1 9 456.1 9 L 454.6 9 C 454.6 9 454.62 4.44 454.6 4.4 Z M 468.7 2.7 C 470.5 2.7 472 4.1 472 5.9 C 472 7.8 470.5 9.1 468.7 9.1 C 466.8 9.1 465.3 7.8 465.3 5.9 C 465.3 4.1 466.8 2.7 468.7 2.7 Z M 468.7 7.8 C 469.7 7.8 470.5 7.1 470.5 5.9 C 470.5 4.8 469.7 4 468.7 4 C 467.7 4 466.9 4.8 466.9 5.9 C 466.9 7.1 467.7 7.8 468.7 7.8 Z M 476.1 2.7 C 476.9 2.7 478.4 3.1 478.4 4.1 C 478.37 4.12 478.4 4.8 478.4 4.8 L 477 4.8 C 477 4.8 477.02 4.5 477 4.5 C 477 4.2 476.5 4 476.1 4 C 475.1 4 474.3 4.8 474.3 5.9 C 474.3 7.2 475.3 7.8 476.2 7.8 C 477.29 7.81 478.1 7 478.1 7 L 478.7 8 C 478.7 8 477.78 9.14 476.1 9.1 C 474.1 9.1 472.8 7.7 472.8 5.9 C 472.8 4.2 474 2.7 476.1 2.7 Z M 482.6 2.7 C 484.5 2.7 486 4.1 486 5.9 C 486 7.8 484.5 9.1 482.6 9.1 C 480.7 9.1 479.3 7.8 479.3 5.9 C 479.3 4.1 480.7 2.7 482.6 2.7 Z M 482.6 7.8 C 483.6 7.8 484.4 7.1 484.4 5.9 C 484.4 4.8 483.6 4 482.6 4 C 481.6 4 480.8 4.8 480.8 5.9 C 480.8 7.1 481.6 7.8 482.6 7.8 Z M 487.3 4.4 C 487.3 4.3 487.2 4.2 487.1 4.2 C 487.05 4.18 486.6 4.2 486.6 4.2 L 486.6 2.9 C 486.6 2.9 488.03 2.88 488 2.9 C 488.6 2.9 488.8 3.1 488.8 3.7 C 488.8 3.7 488.8 6.5 488.8 6.5 C 488.8 7.2 489 7.8 489.8 7.8 C 490.9 7.8 491.5 6.8 491.5 5.7 C 491.49 5.69 491.5 2.9 491.5 2.9 L 493 2.9 C 493 2.9 493.02 7.45 493 7.5 C 493 7.6 493.1 7.7 493.3 7.7 C 493.28 7.72 493.8 7.7 493.8 7.7 L 493.8 9 C 493.8 9 492.36 9 492.4 9 C 491.8 9 491.6 8.7 491.6 8.3 C 491.6 8.3 491.6 8.1 491.6 8.1 C 491.6 8 491.6 7.9 491.6 7.9 C 491.6 7.9 491.5 7.9 491.5 7.9 C 491.3 8.5 490.5 9.1 489.4 9.1 C 488.1 9.1 487.3 8.5 487.3 6.8 C 487.3 6.8 487.3 4.4 487.3 4.4 Z M 500.3 2.7 C 501.68 2.74 502.1 3.5 502.1 3.5 L 502.1 3.5 C 502.1 3.5 502.13 3.32 502.1 3.1 C 502.1 3.1 502.1 2 502.1 2 C 502.1 1.9 502 1.8 501.9 1.8 C 501.86 1.78 501.4 1.8 501.4 1.8 L 501.4 0.5 C 501.4 0.5 502.83 0.48 502.8 0.5 C 503.4 0.5 503.6 0.7 503.6 1.3 C 503.6 1.3 503.6 7.5 503.6 7.5 C 503.6 7.6 503.7 7.7 503.9 7.7 C 503.91 7.72 504.4 7.7 504.4 7.7 L 504.4 9 C 504.4 9 502.98 9 503 9 C 502.4 9 502.2 8.7 502.2 8.4 C 502.2 8.2 502.2 8.1 502.2 8.1 C 502.22 8.15 502.2 8.1 502.2 8.1 C 502.2 8.1 501.69 9.14 500.3 9.1 C 498.6 9.1 497.6 7.8 497.6 5.9 C 497.6 4 498.7 2.7 500.3 2.7 Z M 502.2 5.9 C 502.2 5 501.7 4 500.6 4 C 499.8 4 499.1 4.7 499.1 5.9 C 499.1 7.1 499.7 7.9 500.6 7.9 C 501.4 7.9 502.2 7.3 502.2 5.9 Z M 508.4 2.7 C 510.3 2.7 511.7 4.1 511.7 5.9 C 511.7 7.8 510.3 9.1 508.4 9.1 C 506.5 9.1 505 7.8 505 5.9 C 505 4.1 506.5 2.7 508.4 2.7 Z M 508.4 7.8 C 509.4 7.8 510.2 7.1 510.2 5.9 C 510.2 4.8 509.4 4 508.4 4 C 507.4 4 506.6 4.8 506.6 5.9 C 506.6 7.1 507.4 7.8 508.4 7.8 Z M 513.1 4.1 L 512.4 4.1 L 512.4 2.9 L 513.2 2.9 L 513.2 1.2 L 514.7 1.2 L 514.7 2.9 L 516.1 2.9 L 516.1 4.1 L 514.7 4.1 C 514.7 4.1 514.66 6.56 514.7 6.6 C 514.7 7.6 515.5 7.7 515.9 7.7 C 516.04 7.72 516.2 7.7 516.2 7.7 L 516.2 9 C 516.2 9 515.96 9.06 515.7 9.1 C 514.8 9.1 513.1 8.8 513.1 6.8 C 513.14 6.76 513.1 4.1 513.1 4.1 Z M 520.6 5.2 C 520.56 5.16 520.8 5.2 520.8 5.2 C 520.8 5.2 520.75 5.11 520.8 5.1 C 520.8 4.2 520.4 3.9 519.6 3.9 C 519.3 3.9 518.8 4 518.8 4.3 C 518.8 4.32 518.8 4.6 518.8 4.6 L 517.4 4.6 C 517.4 4.6 517.39 4 517.4 4 C 517.4 2.9 519 2.7 519.6 2.7 C 521.7 2.7 522.3 3.8 522.3 5.2 C 522.3 5.2 522.3 7.5 522.3 7.5 C 522.3 7.6 522.4 7.7 522.5 7.7 C 522.54 7.72 523 7.7 523 7.7 L 523 9 C 523 9 521.65 9 521.6 9 C 521.1 9 520.9 8.7 520.9 8.3 C 520.9 8.2 520.9 8.1 520.9 8.1 C 520.88 8.06 520.9 8.1 520.9 8.1 C 520.9 8.1 520.39 9.14 519 9.1 C 517.9 9.1 516.9 8.5 516.9 7.2 C 516.9 5.3 519.6 5.2 520.6 5.2 Z M 519.4 8 C 520.2 8 520.8 7.1 520.8 6.3 C 520.77 6.35 520.8 6.2 520.8 6.2 C 520.8 6.2 520.51 6.2 520.5 6.2 C 519.7 6.2 518.5 6.3 518.5 7.2 C 518.5 7.6 518.8 8 519.4 8 Z M 523.6 8.2 C 523.6 8.2 526.39 4.74 526.4 4.7 C 526.67 4.39 526.9 4.2 526.9 4.2 L 526.9 4.2 C 526.9 4.2 526.73 4.18 526.3 4.2 C 526.3 4.2 525.2 4.2 525.2 4.2 C 525.1 4.2 525 4.3 525 4.4 C 524.97 4.44 525 4.8 525 4.8 L 523.6 4.8 C 523.6 4.8 523.59 3.7 523.6 3.7 C 523.6 3.1 523.8 2.9 524.4 2.9 C 524.41 2.88 528.9 2.9 528.9 2.9 L 528.9 3.7 C 528.9 3.7 526.08 7.15 526.1 7.2 C 525.8 7.49 525.6 7.7 525.6 7.7 L 525.6 7.7 C 525.6 7.7 525.74 7.7 526.1 7.7 C 526.1 7.7 527.5 7.7 527.5 7.7 C 527.7 7.7 527.7 7.6 527.7 7.4 C 527.75 7.44 527.7 7.1 527.7 7.1 L 529.1 7.1 C 529.1 7.1 529.12 8.18 529.1 8.2 C 529.1 8.8 528.9 9 528.3 9 C 528.32 9 523.6 9 523.6 9 L 523.6 8.2 Z M 530.4 4.4 C 530.4 4.3 530.3 4.2 530.1 4.2 C 530.11 4.18 529.6 4.2 529.6 4.2 L 529.6 2.9 C 529.6 2.9 531.03 2.88 531 2.9 C 531.6 2.9 531.8 3.1 531.8 3.6 C 531.8 3.6 531.8 3.7 531.8 3.7 C 531.8 3.9 531.8 4 531.8 4 C 531.8 4 531.8 4 531.8 4 C 532.1 3.5 532.8 2.7 534 2.7 C 535.4 2.7 536.1 3.4 536.1 5.1 C 536.1 5.1 536.1 7.5 536.1 7.5 C 536.1 7.6 536.2 7.7 536.4 7.7 C 536.4 7.72 536.9 7.7 536.9 7.7 L 536.9 9 C 536.9 9 535.43 9 535.4 9 C 534.8 9 534.6 8.8 534.6 8.2 C 534.6 8.2 534.6 5.4 534.6 5.4 C 534.6 4.6 534.4 4.1 533.6 4.1 C 532.8 4.1 532.2 4.6 532 5.4 C 531.9 5.6 531.9 5.9 531.9 6.2 C 531.88 6.19 531.9 9 531.9 9 L 530.4 9 C 530.4 9 530.37 4.44 530.4 4.4 Z M 538.1 4.4 C 538.1 4.3 538.1 4.2 537.9 4.2 C 537.89 4.18 537.4 4.2 537.4 4.2 L 537.4 2.9 C 537.4 2.9 538.86 2.88 538.9 2.9 C 539.4 2.9 539.7 3.1 539.7 3.7 C 539.7 3.7 539.7 7.5 539.7 7.5 C 539.7 7.6 539.8 7.7 539.9 7.7 C 539.94 7.72 540.4 7.7 540.4 7.7 L 540.4 9 C 540.4 9 538.97 9 539 9 C 538.4 9 538.1 8.8 538.1 8.2 C 538.1 8.2 538.1 4.4 538.1 4.4 Z M 539.1 0.5 L 540.6 0.5 L 539.3 2.1 L 538.2 2.1 L 539.1 0.5 Z M 541.7 2 C 541.7 1.9 541.6 1.8 541.4 1.8 C 541.4 1.78 540.9 1.8 540.9 1.8 L 540.9 0.5 C 540.9 0.5 542.37 0.48 542.4 0.5 C 542.9 0.5 543.2 0.6 543.2 1.2 C 543.19 1.18 543.2 5 543.2 5 C 543.2 5 543.64 5.04 543.6 5 C 543.8 5 544.1 5 544.2 4.8 C 544.22 4.81 545.5 2.9 545.5 2.9 L 547.2 2.9 C 547.2 2.9 545.61 5.18 545.6 5.2 C 545.35 5.57 545.2 5.7 545.2 5.7 L 545.2 5.7 C 545.2 5.7 545.37 5.77 545.6 6.2 C 545.6 6.2 546.3 7.5 546.3 7.5 C 546.4 7.7 546.5 7.7 546.8 7.7 C 546.79 7.72 547.2 7.7 547.2 7.7 L 547.2 9 C 547.2 9 546.07 9 546.1 9 C 545.6 9 545.3 8.9 545.1 8.5 C 545.1 8.5 544.1 6.6 544.1 6.6 C 544 6.3 543.7 6.3 543.5 6.3 C 543.52 6.32 543.2 6.3 543.2 6.3 L 543.2 9 L 541.7 9 C 541.7 9 541.67 2.04 541.7 2 Z M 551.3 5.2 C 551.35 5.16 551.5 5.2 551.5 5.2 C 551.5 5.2 551.54 5.11 551.5 5.1 C 551.5 4.2 551.2 3.9 550.4 3.9 C 550.1 3.9 549.6 4 549.6 4.3 C 549.6 4.32 549.6 4.6 549.6 4.6 L 548.2 4.6 C 548.2 4.6 548.18 4 548.2 4 C 548.2 2.9 549.8 2.7 550.4 2.7 C 552.5 2.7 553.1 3.8 553.1 5.2 C 553.1 5.2 553.1 7.5 553.1 7.5 C 553.1 7.6 553.2 7.7 553.3 7.7 C 553.33 7.72 553.8 7.7 553.8 7.7 L 553.8 9 C 553.8 9 552.44 9 552.4 9 C 551.9 9 551.7 8.7 551.7 8.3 C 551.7 8.2 551.7 8.1 551.7 8.1 C 551.67 8.06 551.6 8.1 551.6 8.1 C 551.6 8.1 551.18 9.14 549.8 9.1 C 548.7 9.1 547.7 8.5 547.7 7.2 C 547.7 5.3 550.4 5.2 551.3 5.2 Z M 550.2 8 C 551 8 551.6 7.1 551.6 6.3 C 551.57 6.35 551.6 6.2 551.6 6.2 C 551.6 6.2 551.3 6.2 551.3 6.2 C 550.5 6.2 549.2 6.3 549.2 7.2 C 549.2 7.6 549.5 8 550.2 8 Z M 557.4 7.7 C 557.4 7.7 557.81 7.67 557.8 7.7 C 558 7.7 558.1 7.6 558.1 7.4 C 558.07 7.4 558.6 0.5 558.6 0.5 L 560.3 0.5 C 560.3 0.5 562.01 4.54 562 4.5 C 562.21 5.03 562.4 5.7 562.4 5.7 L 562.4 5.7 C 562.4 5.7 562.66 5.03 562.9 4.5 C 562.87 4.54 564.6 0.5 564.6 0.5 L 566.3 0.5 C 566.3 0.5 566.8 7.4 566.8 7.4 C 566.8 7.6 566.9 7.7 567.1 7.7 C 567.07 7.67 567.4 7.7 567.4 7.7 L 567.4 9 C 567.4 9 566.08 9 566.1 9 C 565.5 9 565.3 8.8 565.3 8.2 C 565.3 8.2 565 4.4 565 4.4 C 564.94 3.83 565 3.1 565 3.1 L 565 3.1 C 565 3.1 564.7 3.91 564.5 4.4 C 564.49 4.39 563.1 7.5 563.1 7.5 L 561.8 7.5 C 561.8 7.5 560.39 4.39 560.4 4.4 C 560.17 3.91 559.9 3.1 559.9 3.1 L 559.9 3.1 C 559.9 3.1 559.93 3.83 559.9 4.4 C 559.9 4.4 559.6 8.2 559.6 8.2 C 559.6 8.8 559.4 9 558.8 9 C 558.79 9 557.4 9 557.4 9 L 557.4 7.7 Z M 568.8 1.8 L 568.1 1.8 L 568.1 0.5 C 568.1 0.5 571.53 0.48 571.5 0.5 C 574.2 0.5 575.9 2 575.9 4.7 C 575.9 7.4 574.2 9 571.5 9 C 571.5 9 569.7 9 569.7 9 C 569.1 9 568.8 8.8 568.8 8.2 C 568.85 8.18 568.8 1.8 568.8 1.8 Z M 570.7 7.7 C 570.7 7.7 571.4 7.7 571.4 7.7 C 573.2 7.7 574.2 6.6 574.2 4.7 C 574.2 2.8 573.1 1.8 571.4 1.8 C 571.45 1.81 570.4 1.8 570.4 1.8 C 570.4 1.8 570.42 7.4 570.4 7.4 C 570.4 7.6 570.5 7.7 570.7 7.7 Z M 581 0.3 C 583.5 0.3 585.4 2.2 585.4 4.7 C 585.4 5.7 585 6.6 584.5 7.4 C 584.47 7.38 585.4 8.2 585.4 8.2 L 584.5 9.2 C 584.5 9.2 583.53 8.33 583.5 8.3 C 582.8 8.9 581.9 9.1 581 9.1 C 578.5 9.1 576.6 7.2 576.6 4.7 C 576.6 2.2 578.5 0.3 581 0.3 Z M 581 7.7 C 581.89 7.68 582.4 7.3 582.4 7.3 L 581.5 6.5 L 582.5 5.4 C 582.5 5.4 583.32 6.31 583.3 6.3 C 583.6 5.9 583.8 5.3 583.8 4.7 C 583.8 3 582.5 1.8 581 1.8 C 579.5 1.8 578.2 3 578.2 4.7 C 578.2 6.4 579.5 7.7 581 7.7 Z " stroke="none" fill="#000"/>  </g></svg>