<?xml version="1.0" standalone="no"?><!DOCTYPE svg PUBLIC "-//W3C//DTD SVG 1.1//EN" "http://www.w3.org/Graphics/SVG/1.1/DTD/svg11.dtd"><svg xmlns="http://www.w3.org/2000/svg" version="1.1" width="448.2px" height="120px" viewBox="0 -3 448.2 120" style="top:-3px">  <desc>Vytv ra sa vo ve kom mno stve po as tehotenstva U netehotn ch ien je v obehu v malom mno stve Mo no ho z ska z E1 a...</desc>  <defs/>  <g id="Polygon69070">    <path d="M 1.3 86.1 C 1.3 86.1 2.15 87.07 3.3 87.1 C 4 87.1 4.6 86.7 4.6 86.1 C 4.6 84.6 0.6 84.7 0.6 82.1 C 0.6 80.7 1.8 79.7 3.4 79.7 C 4.4 79.7 5.9 80.1 5.9 81.4 C 5.93 81.35 5.9 82.1 5.9 82.1 L 4.5 82.1 C 4.5 82.1 4.51 81.76 4.5 81.8 C 4.5 81.4 3.9 81.1 3.4 81.1 C 2.7 81.1 2.1 81.5 2.1 82 C 2.1 83.5 6.1 83.2 6.1 86 C 6.1 87.3 5.1 88.5 3.3 88.5 C 1.43 88.48 0.4 87.2 0.4 87.2 L 1.3 86.1 Z M 7.7 79.8 L 9 79.8 L 9 81.2 L 7.7 81.2 L 7.7 79.8 Z M 7.6 83.8 C 7.6 83.6 7.5 83.5 7.4 83.5 C 7.37 83.51 6.9 83.5 6.9 83.5 L 6.9 82.2 C 6.9 82.2 8.34 82.22 8.3 82.2 C 8.9 82.2 9.1 82.5 9.1 83 C 9.1 83 9.1 86.8 9.1 86.8 C 9.1 87 9.2 87.1 9.4 87.1 C 9.41 87.06 9.9 87.1 9.9 87.1 L 9.9 88.3 C 9.9 88.3 8.44 88.34 8.4 88.3 C 7.9 88.3 7.6 88.1 7.6 87.5 C 7.6 87.5 7.6 83.8 7.6 83.8 Z M 11.1 81.4 C 11.1 81.2 11 81.1 10.9 81.1 C 10.87 81.11 10.4 81.1 10.4 81.1 L 10.4 79.8 C 10.4 79.8 11.84 79.82 11.8 79.8 C 12.4 79.8 12.7 80.1 12.7 80.6 C 12.7 80.6 12.7 86.8 12.7 86.8 C 12.7 87 12.8 87.1 12.9 87.1 C 12.92 87.06 13.4 87.1 13.4 87.1 L 13.4 88.3 C 13.4 88.3 11.95 88.34 12 88.3 C 11.4 88.3 11.1 88.1 11.1 87.5 C 11.1 87.5 11.1 81.4 11.1 81.4 Z M 17.7 84.5 C 17.7 84.5 17.9 84.5 17.9 84.5 C 17.9 84.5 17.89 84.45 17.9 84.5 C 17.9 83.6 17.5 83.2 16.8 83.2 C 16.5 83.2 15.9 83.3 15.9 83.7 C 15.95 83.66 15.9 84 15.9 84 L 14.5 84 C 14.5 84 14.53 83.33 14.5 83.3 C 14.5 82.2 16.1 82.1 16.8 82.1 C 18.8 82.1 19.4 83.1 19.4 84.5 C 19.4 84.5 19.4 86.8 19.4 86.8 C 19.4 87 19.5 87.1 19.7 87.1 C 19.68 87.06 20.2 87.1 20.2 87.1 L 20.2 88.3 C 20.2 88.3 18.79 88.34 18.8 88.3 C 18.2 88.3 18 88 18 87.7 C 18 87.5 18 87.4 18 87.4 C 18.02 87.4 18 87.4 18 87.4 C 18 87.4 17.53 88.48 16.2 88.5 C 15.1 88.5 14.1 87.8 14.1 86.6 C 14.1 84.7 16.7 84.5 17.7 84.5 Z M 16.5 87.3 C 17.3 87.3 17.9 86.4 17.9 85.7 C 17.92 85.69 17.9 85.5 17.9 85.5 C 17.9 85.5 17.65 85.54 17.7 85.5 C 16.9 85.5 15.6 85.6 15.6 86.5 C 15.6 86.9 15.9 87.3 16.5 87.3 Z M 21.5 82.2 L 23 82.2 L 23 83.7 L 21.5 83.7 L 21.5 82.2 Z M 21.5 86.8 L 23 86.8 L 23 88.3 L 21.5 88.3 L 21.5 86.8 Z M 28 87 L 29.8 87 C 29.8 87 29.84 82.28 29.8 82.3 C 29.84 81.99 29.9 81.7 29.9 81.7 L 29.8 81.7 C 29.8 81.7 29.74 81.91 29.5 82.2 C 29.46 82.18 28.8 82.8 28.8 82.8 L 27.9 81.9 L 30 79.8 L 31.4 79.8 L 31.4 87 L 33.3 87 L 33.3 88.3 L 28 88.3 L 28 87 Z M 37.5 81.6 C 37.5 80.5 38.4 79.7 39.4 79.7 C 40.5 79.7 41.4 80.5 41.4 81.6 C 41.4 82.6 40.5 83.5 39.4 83.5 C 38.4 83.5 37.5 82.6 37.5 81.6 Z M 44.3 79.8 L 45.7 79.8 L 39.2 88.3 L 37.8 88.3 L 44.3 79.8 Z M 40.2 81.6 C 40.2 81.1 39.9 80.8 39.4 80.8 C 39 80.8 38.6 81.1 38.6 81.6 C 38.6 82 39 82.4 39.4 82.4 C 39.9 82.4 40.2 82 40.2 81.6 Z M 44.1 84.7 C 45.2 84.7 46 85.6 46 86.6 C 46 87.6 45.2 88.5 44.1 88.5 C 43 88.5 42.1 87.6 42.1 86.6 C 42.1 85.6 43 84.7 44.1 84.7 Z M 43.3 86.6 C 43.3 87 43.6 87.4 44.1 87.4 C 44.5 87.4 44.9 87 44.9 86.6 C 44.9 86.2 44.5 85.8 44.1 85.8 C 43.6 85.8 43.3 86.2 43.3 86.6 C 43.3 86.6 43.3 86.6 43.3 86.6 Z M 50.9 86.4 C 50.9 86.4 51.69 87.3 52.7 87.3 C 53.2 87.3 53.6 87.1 53.6 86.7 C 53.6 85.8 50.3 85.8 50.3 83.9 C 50.3 82.6 51.4 82.1 52.7 82.1 C 53.5 82.1 54.9 82.4 54.9 83.3 C 54.86 83.35 54.9 84 54.9 84 L 53.5 84 C 53.5 84 53.52 83.68 53.5 83.7 C 53.5 83.4 53.1 83.2 52.8 83.2 C 52.2 83.2 51.8 83.4 51.8 83.8 C 51.8 84.8 55.1 84.6 55.1 86.6 C 55.1 87.8 54.1 88.5 52.7 88.5 C 51.06 88.48 50.2 87.4 50.2 87.4 L 50.9 86.4 Z M 56.6 79.8 L 57.9 79.8 L 57.9 81.2 L 56.6 81.2 L 56.6 79.8 Z M 56.6 83.8 C 56.6 83.6 56.5 83.5 56.3 83.5 C 56.29 83.51 55.8 83.5 55.8 83.5 L 55.8 82.2 C 55.8 82.2 57.26 82.22 57.3 82.2 C 57.8 82.2 58.1 82.5 58.1 83 C 58.1 83 58.1 86.8 58.1 86.8 C 58.1 87 58.2 87.1 58.3 87.1 C 58.33 87.06 58.8 87.1 58.8 87.1 L 58.8 88.3 C 58.8 88.3 57.36 88.34 57.4 88.3 C 56.8 88.3 56.6 88.1 56.6 87.5 C 56.6 87.5 56.6 83.8 56.6 83.8 Z M 60.1 81.4 C 60.1 81.2 60 81.1 59.8 81.1 C 59.8 81.11 59.3 81.1 59.3 81.1 L 59.3 79.8 C 59.3 79.8 60.77 79.82 60.8 79.8 C 61.3 79.8 61.6 80.1 61.6 80.6 C 61.6 80.6 61.6 86.8 61.6 86.8 C 61.6 87 61.7 87.1 61.8 87.1 C 61.85 87.06 62.3 87.1 62.3 87.1 L 62.3 88.3 C 62.3 88.3 60.88 88.34 60.9 88.3 C 60.3 88.3 60.1 88.1 60.1 87.5 C 60.1 87.5 60.1 81.4 60.1 81.4 Z M 64.1 89.6 C 64.5 89.6 64.9 89.3 65.1 88.8 C 65.08 88.8 65.3 88.3 65.3 88.3 C 65.3 88.3 63.24 83.73 63.2 83.7 C 63.2 83.5 63.1 83.5 62.9 83.5 C 62.92 83.51 62.7 83.5 62.7 83.5 L 62.7 82.2 C 62.7 82.2 63.74 82.22 63.7 82.2 C 64.2 82.2 64.4 82.4 64.5 82.8 C 64.5 82.8 65.7 85.9 65.7 85.9 C 65.87 86.17 66 86.7 66 86.7 L 66 86.7 C 66 86.7 66.08 86.17 66.2 85.9 C 66.2 85.9 67.2 82.8 67.2 82.8 C 67.4 82.4 67.6 82.2 68.1 82.2 C 68.05 82.22 69.1 82.2 69.1 82.2 L 69.1 83.5 C 69.1 83.5 68.9 83.51 68.9 83.5 C 68.7 83.5 68.6 83.5 68.6 83.7 C 68.6 83.7 66.4 89.3 66.4 89.3 C 65.9 90.4 65.1 90.9 64.2 90.9 C 63.19 90.86 62.6 90.2 62.6 90.2 L 63.2 89.2 C 63.2 89.2 63.56 89.58 64.1 89.6 Z M 73.6 81.1 L 72.8 81.1 L 72.8 79.8 C 72.8 79.8 77.96 79.82 78 79.8 C 78.5 79.8 78.8 80.1 78.8 80.6 C 78.78 80.63 78.8 81.9 78.8 81.9 L 77.4 81.9 C 77.4 81.9 77.35 81.41 77.4 81.4 C 77.4 81.2 77.3 81.1 77.1 81.1 C 77.09 81.15 75.2 81.1 75.2 81.1 L 75.2 83.4 L 77.9 83.4 L 77.9 84.7 L 75.2 84.7 C 75.2 84.7 75.17 86.74 75.2 86.7 C 75.2 86.9 75.3 87 75.4 87 C 75.4 87 77.4 87 77.4 87 C 77.6 87 77.7 86.9 77.7 86.7 C 77.66 86.74 77.7 86.2 77.7 86.2 L 79.1 86.2 C 79.1 86.2 79.09 87.52 79.1 87.5 C 79.1 88.1 78.8 88.3 78.3 88.3 C 78.3 88.3 74.4 88.3 74.4 88.3 C 73.8 88.3 73.6 88.1 73.6 87.5 C 73.6 87.52 73.6 81.1 73.6 81.1 Z M 83.9 82.2 C 83.9 81.5 83.4 81.1 82.7 81.1 C 82 81.1 81.6 81.5 81.6 81.8 C 81.55 81.79 81.6 82.2 81.6 82.2 L 80.1 82.2 C 80.1 82.2 80.14 81.32 80.1 81.3 C 80.1 80.2 81.6 79.7 82.7 79.7 C 84.2 79.7 85.5 80.6 85.5 82.2 C 85.5 85.1 81.4 85.2 81.4 86.8 C 81.4 86.9 81.5 87 81.7 87 C 81.7 87 84.2 87 84.2 87 C 84.4 87 84.5 86.9 84.5 86.7 C 84.46 86.74 84.5 86.2 84.5 86.2 L 85.9 86.2 C 85.9 86.2 85.87 87.52 85.9 87.5 C 85.9 88.1 85.6 88.3 85.1 88.3 C 85.1 88.3 80.6 88.3 80.6 88.3 C 79.9 88.3 79.7 88 79.7 87.2 C 79.7 84.1 83.9 84.3 83.9 82.2 Z " stroke="none" fill="#5f0f50"/>  </g>  <g id="Polygon69069">    <path d="M 1.2 61.3 L 0.4 61.3 L 0.4 60 C 0.4 60 4.31 59.98 4.3 60 C 5.9 60 7 61.1 7 62.8 C 7 64.4 5.9 65.6 4.3 65.6 C 4.31 65.56 2.8 65.6 2.8 65.6 L 2.8 68.5 L 1.2 68.5 L 1.2 61.3 Z M 4 64.2 C 4.9 64.2 5.4 63.6 5.4 62.8 C 5.4 61.9 4.9 61.3 4 61.3 C 4.04 61.32 2.8 61.3 2.8 61.3 L 2.8 64.2 C 2.8 64.2 4.02 64.22 4 64.2 Z M 10.5 62.2 C 12.3 62.2 13.2 63.5 13.2 65.1 C 13.22 65.32 13.2 65.7 13.2 65.7 C 13.2 65.7 8.96 65.71 9 65.7 C 9.1 66.8 9.9 67.4 10.8 67.4 C 11.78 67.35 12.5 66.7 12.5 66.7 L 13.2 67.7 C 13.2 67.7 12.22 68.65 10.7 68.6 C 8.7 68.6 7.4 67.2 7.4 65.4 C 7.4 63.6 8.7 62.2 10.5 62.2 Z M 11.7 64.7 C 11.6 63.9 11.1 63.4 10.5 63.4 C 9.7 63.4 9.2 63.9 9 64.7 C 9 64.7 11.7 64.7 11.7 64.7 Z M 14.7 63.9 C 14.7 63.8 14.6 63.7 14.4 63.7 C 14.44 63.68 14 63.7 14 63.7 L 14 62.4 C 14 62.4 15.35 62.38 15.3 62.4 C 15.9 62.4 16.2 62.6 16.2 63.1 C 16.2 63.1 16.2 63.5 16.2 63.5 C 16.16 63.72 16.1 63.9 16.1 63.9 C 16.1 63.9 16.16 63.87 16.2 63.9 C 16.4 63 17.2 62.3 18.1 62.3 C 18.24 62.3 18.4 62.3 18.4 62.3 L 18.4 63.8 C 18.4 63.8 18.23 63.8 18 63.8 C 17.4 63.8 16.6 64.2 16.3 65.1 C 16.3 65.4 16.2 65.7 16.2 66.1 C 16.21 66.08 16.2 68.5 16.2 68.5 L 14.7 68.5 C 14.7 68.5 14.7 63.94 14.7 63.9 Z M 22.2 62.2 C 24 62.2 25.5 63.6 25.5 65.4 C 25.5 67.3 24 68.6 22.2 68.6 C 20.3 68.6 18.8 67.3 18.8 65.4 C 18.8 63.6 20.3 62.2 22.2 62.2 Z M 22.2 67.4 C 23.1 67.4 24 66.6 24 65.4 C 24 64.3 23.1 63.5 22.2 63.5 C 21.2 63.5 20.3 64.3 20.3 65.4 C 20.3 66.6 21.2 67.4 22.2 67.4 Z M 26.9 63.9 C 26.9 63.8 26.8 63.7 26.6 63.7 C 26.63 63.68 26.1 63.7 26.1 63.7 L 26.1 62.4 C 26.1 62.4 27.54 62.38 27.5 62.4 C 28.1 62.4 28.4 62.6 28.4 63.1 C 28.4 63.1 28.4 63.5 28.4 63.5 C 28.35 63.72 28.3 63.9 28.3 63.9 C 28.3 63.9 28.35 63.87 28.4 63.9 C 28.6 63 29.4 62.3 30.3 62.3 C 30.43 62.3 30.6 62.3 30.6 62.3 L 30.6 63.8 C 30.6 63.8 30.42 63.8 30.2 63.8 C 29.6 63.8 28.8 64.2 28.5 65.1 C 28.5 65.4 28.4 65.7 28.4 66.1 C 28.4 66.08 28.4 68.5 28.4 68.5 L 26.9 68.5 C 26.9 68.5 26.89 63.94 26.9 63.9 Z M 34.5 64.7 C 34.51 64.66 34.7 64.7 34.7 64.7 C 34.7 64.7 34.7 64.62 34.7 64.6 C 34.7 63.7 34.4 63.4 33.6 63.4 C 33.3 63.4 32.8 63.5 32.8 63.8 C 32.76 63.82 32.8 64.1 32.8 64.1 L 31.3 64.1 C 31.3 64.1 31.34 63.5 31.3 63.5 C 31.3 62.4 33 62.2 33.6 62.2 C 35.6 62.2 36.2 63.3 36.2 64.7 C 36.2 64.7 36.2 67 36.2 67 C 36.2 67.1 36.3 67.2 36.5 67.2 C 36.49 67.22 37 67.2 37 67.2 L 37 68.5 C 37 68.5 35.6 68.5 35.6 68.5 C 35 68.5 34.8 68.2 34.8 67.8 C 34.8 67.7 34.8 67.6 34.8 67.6 C 34.84 67.57 34.8 67.6 34.8 67.6 C 34.8 67.6 34.34 68.65 33 68.6 C 31.9 68.6 30.9 68 30.9 66.7 C 30.9 64.8 33.5 64.7 34.5 64.7 Z M 33.3 67.5 C 34.2 67.5 34.7 66.6 34.7 65.9 C 34.73 65.85 34.7 65.7 34.7 65.7 C 34.7 65.7 34.46 65.71 34.5 65.7 C 33.7 65.7 32.4 65.8 32.4 66.7 C 32.4 67.1 32.7 67.5 33.3 67.5 Z M 34.1 60 L 35.5 60 L 34.3 61.6 L 33.1 61.6 L 34.1 60 Z M 38.2 61.5 C 38.2 61.4 38.1 61.3 37.9 61.3 C 37.9 61.28 37.4 61.3 37.4 61.3 L 37.4 60 C 37.4 60 38.87 59.98 38.9 60 C 39.4 60 39.7 60.2 39.7 60.8 C 39.7 60.8 39.7 67 39.7 67 C 39.7 67.1 39.8 67.2 39.9 67.2 C 39.95 67.22 40.4 67.2 40.4 67.2 L 40.4 68.5 C 40.4 68.5 38.98 68.5 39 68.5 C 38.4 68.5 38.2 68.3 38.2 67.7 C 38.2 67.7 38.2 61.5 38.2 61.5 Z M 41.7 63.9 C 41.7 63.8 41.6 63.7 41.4 63.7 C 41.42 63.68 40.9 63.7 40.9 63.7 L 40.9 62.4 C 40.9 62.4 42.35 62.38 42.3 62.4 C 42.9 62.4 43.2 62.6 43.2 63.1 C 43.2 63.1 43.2 63.2 43.2 63.2 C 43.2 63.4 43.1 63.5 43.1 63.5 C 43.1 63.5 43.2 63.5 43.2 63.5 C 43.4 63 44.1 62.2 45.3 62.2 C 46.7 62.2 47.4 62.9 47.4 64.6 C 47.4 64.6 47.4 67 47.4 67 C 47.4 67.1 47.5 67.2 47.7 67.2 C 47.71 67.22 48.2 67.2 48.2 67.2 L 48.2 68.5 C 48.2 68.5 46.74 68.5 46.7 68.5 C 46.2 68.5 45.9 68.3 45.9 67.7 C 45.9 67.7 45.9 64.9 45.9 64.9 C 45.9 64.1 45.7 63.6 45 63.6 C 44.1 63.6 43.5 64.1 43.3 64.9 C 43.2 65.1 43.2 65.4 43.2 65.7 C 43.2 65.7 43.2 68.5 43.2 68.5 L 41.7 68.5 C 41.7 68.5 41.69 63.94 41.7 63.9 Z M 52.4 64.7 C 52.44 64.66 52.6 64.7 52.6 64.7 C 52.6 64.7 52.63 64.62 52.6 64.6 C 52.6 63.7 52.3 63.4 51.5 63.4 C 51.2 63.4 50.7 63.5 50.7 63.8 C 50.69 63.82 50.7 64.1 50.7 64.1 L 49.3 64.1 C 49.3 64.1 49.27 63.5 49.3 63.5 C 49.3 62.4 50.9 62.2 51.5 62.2 C 53.6 62.2 54.2 63.3 54.2 64.7 C 54.2 64.7 54.2 67 54.2 67 C 54.2 67.1 54.3 67.2 54.4 67.2 C 54.42 67.22 54.9 67.2 54.9 67.2 L 54.9 68.5 C 54.9 68.5 53.53 68.5 53.5 68.5 C 53 68.5 52.8 68.2 52.8 67.8 C 52.8 67.7 52.8 67.6 52.8 67.6 C 52.76 67.57 52.7 67.6 52.7 67.6 C 52.7 67.6 52.27 68.65 50.9 68.6 C 49.8 68.6 48.8 68 48.8 66.7 C 48.8 64.8 51.4 64.7 52.4 64.7 Z M 51.3 67.5 C 52.1 67.5 52.7 66.6 52.7 65.9 C 52.66 65.85 52.7 65.7 52.7 65.7 C 52.7 65.7 52.39 65.71 52.4 65.7 C 51.6 65.7 50.3 65.8 50.3 66.7 C 50.3 67.1 50.6 67.5 51.3 67.5 Z M 59.3 61.5 C 59.3 61.4 59.2 61.3 59 61.3 C 58.99 61.28 58.5 61.3 58.5 61.3 L 58.5 60 C 58.5 60 59.96 59.98 60 60 C 60.5 60 60.8 60.2 60.8 60.8 C 60.8 60.8 60.8 62.6 60.8 62.6 C 60.78 62.88 60.8 63.1 60.8 63.1 L 60.8 63.1 C 60.8 63.1 61.32 62.24 62.6 62.2 C 64.3 62.2 65.3 63.5 65.3 65.4 C 65.3 67.4 64.1 68.6 62.5 68.6 C 61.25 68.65 60.7 67.8 60.7 67.8 L 60.7 67.8 C 60.7 67.8 60.69 67.95 60.7 68.2 C 60.69 68.19 60.7 68.5 60.7 68.5 L 59.3 68.5 C 59.3 68.5 59.26 61.54 59.3 61.5 Z M 62.3 67.4 C 63.1 67.4 63.8 66.7 63.8 65.5 C 63.8 64.3 63.2 63.5 62.3 63.5 C 61.5 63.5 60.7 64.1 60.7 65.5 C 60.7 66.4 61.2 67.4 62.3 67.4 Z M 66.8 60 L 68.2 60 L 68.2 61.4 L 66.8 61.4 L 66.8 60 Z M 66.8 63.9 C 66.8 63.8 66.7 63.7 66.5 63.7 C 66.5 63.68 66 63.7 66 63.7 L 66 62.4 C 66 62.4 67.48 62.38 67.5 62.4 C 68 62.4 68.3 62.6 68.3 63.2 C 68.3 63.2 68.3 67 68.3 67 C 68.3 67.1 68.4 67.2 68.5 67.2 C 68.54 67.22 69 67.2 69 67.2 L 69 68.5 C 69 68.5 67.57 68.5 67.6 68.5 C 67 68.5 66.8 68.3 66.8 67.7 C 66.8 67.7 66.8 63.9 66.8 63.9 Z M 73 62.2 C 74.9 62.2 76.4 63.6 76.4 65.4 C 76.4 67.3 74.9 68.6 73 68.6 C 71.2 68.6 69.7 67.3 69.7 65.4 C 69.7 63.6 71.2 62.2 73 62.2 Z M 73 67.4 C 74 67.4 74.9 66.6 74.9 65.4 C 74.9 64.3 74 63.5 73 63.5 C 72.1 63.5 71.2 64.3 71.2 65.4 C 71.2 66.6 72.1 67.4 73 67.4 Z M 77.7 61.5 C 77.7 61.4 77.6 61.3 77.4 61.3 C 77.39 61.28 76.9 61.3 76.9 61.3 L 76.9 60 C 76.9 60 78.36 59.98 78.4 60 C 78.9 60 79.2 60.2 79.2 60.8 C 79.2 60.8 79.2 67 79.2 67 C 79.2 67.1 79.3 67.2 79.4 67.2 C 79.44 67.22 79.9 67.2 79.9 67.2 L 79.9 68.5 C 79.9 68.5 78.47 68.5 78.5 68.5 C 77.9 68.5 77.7 68.3 77.7 67.7 C 77.7 67.7 77.7 61.5 77.7 61.5 Z M 83.9 62.2 C 85.8 62.2 87.3 63.6 87.3 65.4 C 87.3 67.3 85.8 68.6 83.9 68.6 C 82.1 68.6 80.6 67.3 80.6 65.4 C 80.6 63.6 82.1 62.2 83.9 62.2 Z M 83.9 67.4 C 84.9 67.4 85.7 66.6 85.7 65.4 C 85.7 64.3 84.9 63.5 83.9 63.5 C 82.9 63.5 82.1 64.3 82.1 65.4 C 82.1 66.6 82.9 67.4 83.9 67.4 Z M 90.8 62.2 C 92.2 62.2 92.6 63.1 92.6 63.1 C 92.64 63.1 92.7 63.1 92.7 63.1 C 92.7 63.1 92.66 63.03 92.7 62.9 C 92.7 62.7 92.9 62.4 93.3 62.4 C 93.33 62.38 94.7 62.4 94.7 62.4 L 94.7 63.7 C 94.7 63.7 94.28 63.68 94.3 63.7 C 94.1 63.7 94 63.8 94 63.9 C 94 63.9 94 68.1 94 68.1 C 94 70.2 92.4 71 90.8 71 C 90 71 89.2 70.8 88.6 70.5 C 88.62 70.5 89.1 69.3 89.1 69.3 C 89.1 69.3 89.84 69.7 90.8 69.7 C 91.7 69.7 92.5 69.3 92.5 68.2 C 92.5 68.2 92.5 67.9 92.5 67.9 C 92.51 67.77 92.5 67.6 92.5 67.6 C 92.5 67.6 92.5 67.59 92.5 67.6 C 92.1 68.1 91.6 68.4 90.8 68.4 C 89 68.4 88 67 88 65.3 C 88 63.6 89 62.2 90.8 62.2 Z M 92.5 65.3 C 92.5 63.9 91.8 63.5 91 63.5 C 90.1 63.5 89.6 64.2 89.6 65.2 C 89.6 66.3 90.1 67.1 91.1 67.1 C 91.8 67.1 92.5 66.7 92.5 65.3 Z M 96.1 60 L 97.4 60 L 97.4 61.4 L 96.1 61.4 L 96.1 60 Z M 96 63.9 C 96 63.8 96 63.7 95.8 63.7 C 95.78 63.68 95.3 63.7 95.3 63.7 L 95.3 62.4 C 95.3 62.4 96.75 62.38 96.8 62.4 C 97.3 62.4 97.6 62.6 97.6 63.2 C 97.6 63.2 97.6 67 97.6 67 C 97.6 67.1 97.7 67.2 97.8 67.2 C 97.82 67.22 98.3 67.2 98.3 67.2 L 98.3 68.5 C 98.3 68.5 96.85 68.5 96.9 68.5 C 96.3 68.5 96 68.3 96 67.7 C 96 67.7 96 63.9 96 63.9 Z M 102.3 62.2 C 103.1 62.2 104.5 62.6 104.5 63.6 C 104.54 63.62 104.5 64.3 104.5 64.3 L 103.2 64.3 C 103.2 64.3 103.2 64 103.2 64 C 103.2 63.7 102.7 63.5 102.3 63.5 C 101.3 63.5 100.5 64.3 100.5 65.4 C 100.5 66.7 101.4 67.3 102.4 67.3 C 103.46 67.32 104.2 66.5 104.2 66.5 L 104.9 67.5 C 104.9 67.5 103.95 68.65 102.3 68.6 C 100.3 68.6 99 67.2 99 65.4 C 99 63.7 100.2 62.2 102.3 62.2 Z M 106 61.5 C 106 61.4 105.9 61.3 105.7 61.3 C 105.7 61.28 105.2 61.3 105.2 61.3 L 105.2 60 C 105.2 60 106.67 59.98 106.7 60 C 107.2 60 107.5 60.1 107.5 60.7 C 107.48 60.68 107.5 64.5 107.5 64.5 C 107.5 64.5 107.94 64.54 107.9 64.5 C 108.1 64.5 108.4 64.5 108.5 64.3 C 108.51 64.32 109.8 62.4 109.8 62.4 L 111.5 62.4 C 111.5 62.4 109.91 64.69 109.9 64.7 C 109.64 65.07 109.4 65.2 109.4 65.2 L 109.4 65.2 C 109.4 65.2 109.67 65.28 109.9 65.7 C 109.9 65.7 110.6 67 110.6 67 C 110.7 67.2 110.8 67.2 111.1 67.2 C 111.08 67.22 111.5 67.2 111.5 67.2 L 111.5 68.5 C 111.5 68.5 110.36 68.5 110.4 68.5 C 109.8 68.5 109.6 68.4 109.4 68 C 109.4 68 108.4 66.1 108.4 66.1 C 108.3 65.8 108 65.8 107.8 65.8 C 107.82 65.83 107.5 65.8 107.5 65.8 L 107.5 68.5 L 106 68.5 C 106 68.5 105.96 61.54 106 61.5 Z M 115.6 64.7 C 115.64 64.66 115.8 64.7 115.8 64.7 C 115.8 64.7 115.84 64.62 115.8 64.6 C 115.8 63.7 115.5 63.4 114.7 63.4 C 114.4 63.4 113.9 63.5 113.9 63.8 C 113.89 63.82 113.9 64.1 113.9 64.1 L 112.5 64.1 C 112.5 64.1 112.48 63.5 112.5 63.5 C 112.5 62.4 114.1 62.2 114.7 62.2 C 116.8 62.2 117.4 63.3 117.4 64.7 C 117.4 64.7 117.4 67 117.4 67 C 117.4 67.1 117.5 67.2 117.6 67.2 C 117.62 67.22 118.1 67.2 118.1 67.2 L 118.1 68.5 C 118.1 68.5 116.73 68.5 116.7 68.5 C 116.2 68.5 116 68.2 116 67.8 C 116 67.7 116 67.6 116 67.6 C 115.97 67.57 115.9 67.6 115.9 67.6 C 115.9 67.6 115.48 68.65 114.1 68.6 C 113 68.6 112 68 112 66.7 C 112 64.8 114.6 64.7 115.6 64.7 Z M 114.5 67.5 C 115.3 67.5 115.9 66.6 115.9 65.9 C 115.86 65.85 115.9 65.7 115.9 65.7 C 115.9 65.7 115.6 65.71 115.6 65.7 C 114.8 65.7 113.5 65.8 113.5 66.7 C 113.5 67.1 113.8 67.5 114.5 67.5 Z M 115.2 60 L 116.6 60 L 115.4 61.6 L 114.3 61.6 L 115.2 60 Z M 124.7 62.2 C 126.01 62.24 126.4 63 126.4 63 L 126.5 63 C 126.5 63 126.46 62.83 126.5 62.6 C 126.5 62.6 126.5 61.5 126.5 61.5 C 126.5 61.4 126.4 61.3 126.2 61.3 C 126.19 61.28 125.7 61.3 125.7 61.3 L 125.7 60 C 125.7 60 127.16 59.98 127.2 60 C 127.7 60 128 60.2 128 60.8 C 128 60.8 128 67 128 67 C 128 67.1 128.1 67.2 128.2 67.2 C 128.24 67.22 128.7 67.2 128.7 67.2 L 128.7 68.5 C 128.7 68.5 127.31 68.5 127.3 68.5 C 126.8 68.5 126.6 68.2 126.6 67.9 C 126.6 67.7 126.6 67.7 126.6 67.7 C 126.55 67.65 126.5 67.7 126.5 67.7 C 126.5 67.7 126.02 68.65 124.6 68.6 C 123 68.6 121.9 67.3 121.9 65.4 C 121.9 63.5 123.1 62.2 124.7 62.2 Z M 126.5 65.4 C 126.5 64.5 126 63.5 125 63.5 C 124.1 63.5 123.4 64.2 123.4 65.4 C 123.4 66.6 124.1 67.4 125 67.4 C 125.7 67.4 126.5 66.8 126.5 65.4 Z M 132.7 62.2 C 134.6 62.2 136.1 63.6 136.1 65.4 C 136.1 67.3 134.6 68.6 132.7 68.6 C 130.8 68.6 129.4 67.3 129.4 65.4 C 129.4 63.6 130.8 62.2 132.7 62.2 Z M 132.7 67.4 C 133.7 67.4 134.5 66.6 134.5 65.4 C 134.5 64.3 133.7 63.5 132.7 63.5 C 131.7 63.5 130.9 64.3 130.9 65.4 C 130.9 66.6 131.7 67.4 132.7 67.4 Z M 137.5 66.6 C 137.5 66.6 138.25 67.46 139.3 67.5 C 139.8 67.5 140.1 67.3 140.1 66.9 C 140.1 66 136.9 66 136.9 64 C 136.9 62.8 138 62.2 139.3 62.2 C 140.1 62.2 141.4 62.5 141.4 63.5 C 141.42 63.51 141.4 64.1 141.4 64.1 L 140.1 64.1 C 140.1 64.1 140.08 63.85 140.1 63.8 C 140.1 63.6 139.6 63.4 139.3 63.4 C 138.8 63.4 138.4 63.6 138.4 64 C 138.4 64.9 141.6 64.7 141.6 66.8 C 141.6 67.9 140.6 68.6 139.3 68.6 C 137.61 68.65 136.8 67.6 136.8 67.6 L 137.5 66.6 Z M 143.1 63.6 L 142.3 63.6 L 142.3 62.4 L 143.1 62.4 L 143.1 60.7 L 144.6 60.7 L 144.6 62.4 L 146 62.4 L 146 63.6 L 144.6 63.6 C 144.6 63.6 144.61 66.07 144.6 66.1 C 144.6 67.1 145.4 67.2 145.8 67.2 C 145.99 67.22 146.1 67.2 146.1 67.2 L 146.1 68.5 C 146.1 68.5 145.91 68.56 145.6 68.6 C 144.8 68.6 143.1 68.3 143.1 66.3 C 143.09 66.26 143.1 63.6 143.1 63.6 Z M 147.5 63.9 C 147.5 63.8 147.4 63.7 147.2 63.7 C 147.21 63.68 146.7 63.7 146.7 63.7 L 146.7 62.4 C 146.7 62.4 148.19 62.38 148.2 62.4 C 148.7 62.4 149 62.6 149 63.2 C 149 63.2 149 66 149 66 C 149 66.8 149.2 67.3 149.9 67.3 C 151 67.3 151.7 66.3 151.7 65.2 C 151.65 65.19 151.7 62.4 151.7 62.4 L 153.2 62.4 C 153.2 62.4 153.18 66.96 153.2 67 C 153.2 67.1 153.3 67.2 153.4 67.2 C 153.44 67.22 153.9 67.2 153.9 67.2 L 153.9 68.5 C 153.9 68.5 152.52 68.5 152.5 68.5 C 152 68.5 151.7 68.3 151.7 67.8 C 151.7 67.8 151.7 67.7 151.7 67.7 C 151.7 67.5 151.7 67.4 151.7 67.4 C 151.7 67.4 151.7 67.4 151.7 67.4 C 151.4 68 150.6 68.6 149.6 68.6 C 148.3 68.6 147.5 68 147.5 66.3 C 147.5 66.3 147.5 63.9 147.5 63.9 Z M 155.2 63.9 C 155.2 63.8 155.1 63.7 154.9 63.7 C 154.89 63.68 154.4 63.7 154.4 63.7 L 154.4 62.4 C 154.4 62.4 155.77 62.38 155.8 62.4 C 156.3 62.4 156.5 62.6 156.5 63 C 156.5 63.1 156.5 63.2 156.5 63.2 C 156.54 63.21 156.6 63.2 156.6 63.2 C 156.6 63.2 157.08 62.24 158.5 62.2 C 160.2 62.2 161.2 63.5 161.2 65.4 C 161.2 67.4 160 68.6 158.4 68.6 C 157.21 68.65 156.7 67.8 156.7 67.8 L 156.6 67.8 C 156.6 67.8 156.67 68.06 156.7 68.4 C 156.67 68.37 156.7 70.9 156.7 70.9 L 155.2 70.9 C 155.2 70.9 155.16 63.94 155.2 63.9 Z M 158.1 67.4 C 159 67.4 159.7 66.7 159.7 65.5 C 159.7 64.3 159.1 63.5 158.2 63.5 C 157.4 63.5 156.6 64.1 156.6 65.5 C 156.6 66.4 157.1 67.4 158.1 67.4 Z M 162.6 63.9 C 162.6 63.8 162.5 63.7 162.3 63.7 C 162.35 63.68 161.9 63.7 161.9 63.7 L 161.9 62.4 C 161.9 62.4 163.27 62.38 163.3 62.4 C 163.8 62.4 164.1 62.6 164.1 63.1 C 164.1 63.1 164.1 63.2 164.1 63.2 C 164.1 63.4 164 63.5 164 63.5 C 164 63.5 164.1 63.5 164.1 63.5 C 164.3 63 165 62.2 166.2 62.2 C 167.6 62.2 168.4 62.9 168.4 64.6 C 168.4 64.6 168.4 67 168.4 67 C 168.4 67.1 168.5 67.2 168.6 67.2 C 168.63 67.22 169.1 67.2 169.1 67.2 L 169.1 68.5 C 169.1 68.5 167.66 68.5 167.7 68.5 C 167.1 68.5 166.8 68.3 166.8 67.7 C 166.8 67.7 166.8 64.9 166.8 64.9 C 166.8 64.1 166.7 63.6 165.9 63.6 C 165.1 63.6 164.5 64.1 164.2 64.9 C 164.2 65.1 164.1 65.4 164.1 65.7 C 164.12 65.7 164.1 68.5 164.1 68.5 L 162.6 68.5 C 162.6 68.5 162.61 63.94 162.6 63.9 Z M 173.1 62.2 C 174.9 62.2 176.4 63.6 176.4 65.4 C 176.4 67.3 174.9 68.6 173.1 68.6 C 171.2 68.6 169.7 67.3 169.7 65.4 C 169.7 63.6 171.2 62.2 173.1 62.2 Z M 173.1 67.4 C 174.1 67.4 174.9 66.6 174.9 65.4 C 174.9 64.3 174.1 63.5 173.1 63.5 C 172.1 63.5 171.2 64.3 171.2 65.4 C 171.2 66.6 172.1 67.4 173.1 67.4 Z M 177.8 66.6 C 177.8 66.6 178.6 67.46 179.6 67.5 C 180.1 67.5 180.5 67.3 180.5 66.9 C 180.5 66 177.3 66 177.3 64 C 177.3 62.8 178.4 62.2 179.6 62.2 C 180.5 62.2 181.8 62.5 181.8 63.5 C 181.77 63.51 181.8 64.1 181.8 64.1 L 180.4 64.1 C 180.4 64.1 180.43 63.85 180.4 63.8 C 180.4 63.6 180 63.4 179.7 63.4 C 179.1 63.4 178.7 63.6 178.7 64 C 178.7 64.9 182 64.7 182 66.8 C 182 67.9 181 68.6 179.6 68.6 C 177.97 68.65 177.1 67.6 177.1 67.6 L 177.8 66.6 Z M 183.5 63.6 L 182.7 63.6 L 182.7 62.4 L 183.5 62.4 L 183.5 60.7 L 185 60.7 L 185 62.4 L 186.4 62.4 L 186.4 63.6 L 185 63.6 C 185 63.6 185 66.07 185 66.1 C 185 67.1 185.8 67.2 186.2 67.2 C 186.38 67.22 186.5 67.2 186.5 67.2 L 186.5 68.5 C 186.5 68.5 186.3 68.56 186 68.6 C 185.2 68.6 183.5 68.3 183.5 66.3 C 183.48 66.26 183.5 63.6 183.5 63.6 Z M 186.8 60 C 186.9 60.2 186.9 60.4 186.9 60.6 C 186.9 61 186.8 61.3 186.6 61.7 C 186.6 61.7 185.6 61.7 185.6 61.7 C 185.7 61.3 185.8 61 185.8 60.7 C 185.8 60.5 185.8 60.3 185.7 60 C 185.7 60 186.8 60 186.8 60 Z M 188.5 62.4 L 189.9 62.4 L 189.9 63.9 L 188.5 63.9 L 188.5 62.4 Z M 188.5 67 L 189.9 67 L 189.9 68.5 L 188.5 68.5 L 188.5 67 Z M 195 64.6 L 200.8 62 L 200.8 63.3 L 196.6 65.1 L 196.6 65.1 L 200.8 66.8 L 200.8 68.1 L 195 65.6 L 195 64.6 Z M 203 66.3 C 203 66.3 203.75 67.18 205 67.2 C 205.9 67.2 206.6 66.5 206.6 65.8 C 206.6 64.8 205.7 64.3 204.7 64.3 C 203.78 64.32 203.1 64.7 203.1 64.7 L 202.6 64.4 C 202.6 64.4 202.87 60.8 202.9 60.8 C 202.9 60.2 203.1 60 203.7 60 C 203.7 60 206.8 60 206.8 60 C 207.4 60 207.6 60.2 207.6 60.8 C 207.63 60.8 207.6 62.1 207.6 62.1 L 206.2 62.1 C 206.2 62.1 206.21 61.58 206.2 61.6 C 206.2 61.4 206.1 61.3 205.9 61.3 C 205.9 61.3 204.5 61.3 204.5 61.3 C 204.4 61.3 204.3 61.4 204.3 61.6 C 204.3 61.6 204.2 62.8 204.2 62.8 C 204.14 62.98 204.1 63.2 204.1 63.2 L 204.1 63.2 C 204.1 63.2 204.53 63 205 63 C 207 63 208.1 64.2 208.1 65.8 C 208.1 67.3 207 68.7 205 68.7 C 203.19 68.66 202.2 67.5 202.2 67.5 L 203 66.3 Z M 212.6 61.7 C 212.6 60.7 213.5 59.8 214.6 59.8 C 215.7 59.8 216.6 60.7 216.6 61.7 C 216.6 62.8 215.7 63.6 214.6 63.6 C 213.5 63.6 212.6 62.8 212.6 61.7 Z M 219.5 60 L 220.9 60 L 214.3 68.5 L 212.9 68.5 L 219.5 60 Z M 215.4 61.7 C 215.4 61.3 215 60.9 214.6 60.9 C 214.1 60.9 213.8 61.3 213.8 61.7 C 213.8 62.2 214.1 62.5 214.6 62.5 C 215 62.5 215.4 62.2 215.4 61.7 Z M 219.2 64.9 C 220.3 64.9 221.2 65.7 221.2 66.8 C 221.2 67.8 220.3 68.6 219.2 68.6 C 218.2 68.6 217.3 67.8 217.3 66.8 C 217.3 65.7 218.2 64.9 219.2 64.9 Z M 218.5 66.8 C 218.5 67.2 218.8 67.5 219.2 67.5 C 219.7 67.5 220.1 67.2 220.1 66.8 C 220.1 66.3 219.7 66 219.2 66 C 218.8 66 218.5 66.3 218.5 66.8 C 218.5 66.8 218.5 66.8 218.5 66.8 Z " stroke="none" fill="#5f0f50"/>  </g>  <g id="Polygon69068">    <path d="M 0.2 47.3 C 0.2 47.3 0.59 47.34 0.6 47.3 C 0.8 47.3 0.8 47.2 0.9 47.1 C 0.85 47.07 1.4 40.2 1.4 40.2 L 3 40.2 C 3 40.2 4.79 44.21 4.8 44.2 C 4.99 44.7 5.2 45.3 5.2 45.3 L 5.2 45.3 C 5.2 45.3 5.45 44.7 5.7 44.2 C 5.65 44.21 7.4 40.2 7.4 40.2 L 9 40.2 C 9 40.2 9.59 47.07 9.6 47.1 C 9.6 47.2 9.7 47.3 9.9 47.3 C 9.85 47.34 10.2 47.3 10.2 47.3 L 10.2 48.7 C 10.2 48.7 8.87 48.67 8.9 48.7 C 8.3 48.7 8.1 48.4 8.1 47.9 C 8.1 47.9 7.8 44.1 7.8 44.1 C 7.73 43.5 7.8 42.7 7.8 42.7 L 7.7 42.7 C 7.7 42.7 7.49 43.58 7.3 44.1 C 7.27 44.06 5.9 47.2 5.9 47.2 L 4.6 47.2 C 4.6 47.2 3.17 44.06 3.2 44.1 C 2.95 43.58 2.7 42.7 2.7 42.7 L 2.7 42.7 C 2.7 42.7 2.71 43.5 2.7 44.1 C 2.7 44.1 2.4 47.9 2.4 47.9 C 2.3 48.4 2.1 48.7 1.6 48.7 C 1.57 48.67 0.2 48.7 0.2 48.7 L 0.2 47.3 Z M 14.2 42.4 C 16 42.4 17.5 43.7 17.5 45.6 C 17.5 47.5 16 48.8 14.2 48.8 C 12.3 48.8 10.8 47.5 10.8 45.6 C 10.8 43.7 12.3 42.4 14.2 42.4 Z M 14.2 47.5 C 15.2 47.5 16 46.7 16 45.6 C 16 44.5 15.2 43.7 14.2 43.7 C 13.2 43.7 12.4 44.5 12.4 45.6 C 12.4 46.7 13.2 47.5 14.2 47.5 Z M 18.1 47.9 C 18.1 47.9 20.94 44.41 20.9 44.4 C 21.22 44.06 21.5 43.8 21.5 43.8 L 21.5 43.8 C 21.5 43.8 21.28 43.84 20.9 43.8 C 20.9 43.8 19.8 43.8 19.8 43.8 C 19.6 43.8 19.5 43.9 19.5 44.1 C 19.52 44.11 19.5 44.5 19.5 44.5 L 18.1 44.5 C 18.1 44.5 18.14 43.37 18.1 43.4 C 18.1 42.8 18.4 42.6 19 42.6 C 18.96 42.55 23.4 42.6 23.4 42.6 L 23.4 43.4 C 23.4 43.4 20.63 46.82 20.6 46.8 C 20.35 47.16 20.1 47.4 20.1 47.4 L 20.1 47.4 C 20.1 47.4 20.29 47.37 20.7 47.4 C 20.7 47.4 22 47.4 22 47.4 C 22.2 47.4 22.3 47.3 22.3 47.1 C 22.3 47.11 22.3 46.8 22.3 46.8 L 23.7 46.8 C 23.7 46.8 23.68 47.85 23.7 47.9 C 23.7 48.4 23.4 48.7 22.9 48.7 C 22.87 48.67 18.1 48.7 18.1 48.7 L 18.1 47.9 Z M 19.2 40.2 L 20.3 40.2 L 20.9 41.1 L 21 41.1 L 21.6 40.2 L 22.7 40.2 L 21.6 41.8 L 20.3 41.8 L 19.2 40.2 Z M 24.9 44.1 C 24.9 43.9 24.8 43.8 24.7 43.8 C 24.66 43.84 24.2 43.8 24.2 43.8 L 24.2 42.6 C 24.2 42.6 25.58 42.55 25.6 42.6 C 26.1 42.6 26.4 42.8 26.4 43.2 C 26.4 43.2 26.4 43.4 26.4 43.4 C 26.4 43.5 26.4 43.7 26.4 43.7 C 26.4 43.7 26.4 43.7 26.4 43.7 C 26.7 43.2 27.3 42.4 28.5 42.4 C 29.9 42.4 30.7 43.1 30.7 44.7 C 30.7 44.7 30.7 47.1 30.7 47.1 C 30.7 47.3 30.8 47.4 30.9 47.4 C 30.95 47.39 31.4 47.4 31.4 47.4 L 31.4 48.7 C 31.4 48.7 29.98 48.67 30 48.7 C 29.4 48.7 29.2 48.4 29.2 47.9 C 29.2 47.9 29.2 45 29.2 45 C 29.2 44.3 29 43.8 28.2 43.8 C 27.4 43.8 26.8 44.3 26.6 45 C 26.5 45.3 26.4 45.6 26.4 45.9 C 26.43 45.86 26.4 48.7 26.4 48.7 L 24.9 48.7 C 24.9 48.7 24.92 44.11 24.9 44.1 Z M 35.4 42.4 C 37.2 42.4 38.7 43.7 38.7 45.6 C 38.7 47.5 37.2 48.8 35.4 48.8 C 33.5 48.8 32 47.5 32 45.6 C 32 43.7 33.5 42.4 35.4 42.4 Z M 35.4 47.5 C 36.4 47.5 37.2 46.7 37.2 45.6 C 37.2 44.5 36.4 43.7 35.4 43.7 C 34.4 43.7 33.6 44.5 33.6 45.6 C 33.6 46.7 34.4 47.5 35.4 47.5 Z M 43.2 41.7 C 43.2 41.5 43.2 41.4 43 41.4 C 42.98 41.44 42.5 41.4 42.5 41.4 L 42.5 40.2 C 42.5 40.2 43.96 40.15 44 40.2 C 44.5 40.2 44.8 40.4 44.8 41 C 44.8 41 44.8 43.1 44.8 43.1 C 44.77 43.4 44.7 43.6 44.7 43.6 C 44.7 43.6 44.77 43.62 44.8 43.6 C 45.1 43 45.8 42.4 46.9 42.4 C 48.2 42.4 49 43.1 49 44.7 C 49 44.7 49 47.1 49 47.1 C 49 47.3 49.1 47.4 49.3 47.4 C 49.27 47.39 49.8 47.4 49.8 47.4 L 49.8 48.7 C 49.8 48.7 48.3 48.67 48.3 48.7 C 47.7 48.7 47.5 48.4 47.5 47.9 C 47.5 47.9 47.5 45 47.5 45 C 47.5 44.3 47.3 43.8 46.5 43.8 C 45.7 43.8 45.1 44.3 44.9 45.1 C 44.8 45.3 44.8 45.6 44.8 45.9 C 44.77 45.86 44.8 48.7 44.8 48.7 L 43.2 48.7 C 43.2 48.7 43.25 41.71 43.2 41.7 Z M 53.7 42.4 C 55.6 42.4 57.1 43.7 57.1 45.6 C 57.1 47.5 55.6 48.8 53.7 48.8 C 51.9 48.8 50.4 47.5 50.4 45.6 C 50.4 43.7 51.9 42.4 53.7 42.4 Z M 53.7 47.5 C 54.7 47.5 55.5 46.7 55.5 45.6 C 55.5 44.5 54.7 43.7 53.7 43.7 C 52.7 43.7 51.9 44.5 51.9 45.6 C 51.9 46.7 52.7 47.5 53.7 47.5 Z M 61 47.9 C 61 47.9 63.78 44.41 63.8 44.4 C 64.06 44.06 64.3 43.8 64.3 43.8 L 64.3 43.8 C 64.3 43.8 64.12 43.84 63.7 43.8 C 63.7 43.8 62.6 43.8 62.6 43.8 C 62.5 43.8 62.4 43.9 62.4 44.1 C 62.36 44.11 62.4 44.5 62.4 44.5 L 61 44.5 C 61 44.5 60.98 43.37 61 43.4 C 61 42.8 61.2 42.6 61.8 42.6 C 61.8 42.55 66.3 42.6 66.3 42.6 L 66.3 43.4 C 66.3 43.4 63.47 46.82 63.5 46.8 C 63.19 47.16 63 47.4 63 47.4 L 63 47.4 C 63 47.4 63.13 47.37 63.5 47.4 C 63.5 47.4 64.9 47.4 64.9 47.4 C 65 47.4 65.1 47.3 65.1 47.1 C 65.14 47.11 65.1 46.8 65.1 46.8 L 66.5 46.8 C 66.5 46.8 66.51 47.85 66.5 47.9 C 66.5 48.4 66.3 48.7 65.7 48.7 C 65.71 48.67 61 48.7 61 48.7 L 61 47.9 Z M 67.8 44.1 C 67.8 43.9 67.7 43.8 67.6 43.8 C 67.56 43.84 67.1 43.8 67.1 43.8 L 67.1 42.6 C 67.1 42.6 68.53 42.55 68.5 42.6 C 69.1 42.6 69.3 42.8 69.3 43.4 C 69.3 43.4 69.3 47.1 69.3 47.1 C 69.3 47.3 69.4 47.4 69.6 47.4 C 69.61 47.39 70.1 47.4 70.1 47.4 L 70.1 48.7 C 70.1 48.7 68.64 48.67 68.6 48.7 C 68.1 48.7 67.8 48.4 67.8 47.9 C 67.8 47.9 67.8 44.1 67.8 44.1 Z M 68.8 40.2 L 70.3 40.2 L 69 41.8 L 67.9 41.8 L 68.8 40.2 Z M 71.4 46.7 C 71.4 46.7 72.19 47.63 73.2 47.6 C 73.7 47.6 74.1 47.4 74.1 47 C 74.1 46.2 70.8 46.2 70.8 44.2 C 70.8 43 71.9 42.4 73.2 42.4 C 74 42.4 75.4 42.7 75.4 43.7 C 75.36 43.68 75.4 44.3 75.4 44.3 L 74 44.3 C 74 44.3 74.02 44.01 74 44 C 74 43.7 73.6 43.6 73.2 43.6 C 72.7 43.6 72.3 43.8 72.3 44.1 C 72.3 45.1 75.6 44.9 75.6 46.9 C 75.6 48.1 74.6 48.8 73.2 48.8 C 71.55 48.81 70.7 47.7 70.7 47.7 L 71.4 46.7 Z M 77 41.7 C 77 41.5 76.9 41.4 76.7 41.4 C 76.69 41.44 76.2 41.4 76.2 41.4 L 76.2 40.2 C 76.2 40.2 77.66 40.15 77.7 40.2 C 78.2 40.2 78.5 40.3 78.5 40.8 C 78.48 40.85 78.5 44.7 78.5 44.7 C 78.5 44.7 78.93 44.71 78.9 44.7 C 79.1 44.7 79.4 44.7 79.5 44.5 C 79.51 44.48 80.8 42.6 80.8 42.6 L 82.4 42.6 C 82.4 42.6 80.9 44.85 80.9 44.9 C 80.64 45.24 80.4 45.3 80.4 45.3 L 80.4 45.4 C 80.4 45.4 80.66 45.44 80.9 45.8 C 80.9 45.8 81.6 47.2 81.6 47.2 C 81.7 47.3 81.8 47.4 82.1 47.4 C 82.08 47.39 82.5 47.4 82.5 47.4 L 82.5 48.7 C 82.5 48.7 81.36 48.67 81.4 48.7 C 80.8 48.7 80.6 48.6 80.4 48.1 C 80.4 48.1 79.4 46.2 79.4 46.2 C 79.3 46 79 46 78.8 46 C 78.81 45.99 78.5 46 78.5 46 L 78.5 48.7 L 77 48.7 C 77 48.7 76.96 41.71 77 41.7 Z M 86.6 44.8 C 86.64 44.83 86.8 44.8 86.8 44.8 C 86.8 44.8 86.83 44.78 86.8 44.8 C 86.8 43.9 86.5 43.6 85.7 43.6 C 85.4 43.6 84.9 43.7 84.9 44 C 84.89 43.99 84.9 44.3 84.9 44.3 L 83.5 44.3 C 83.5 44.3 83.47 43.66 83.5 43.7 C 83.5 42.5 85.1 42.4 85.7 42.4 C 87.8 42.4 88.4 43.5 88.4 44.8 C 88.4 44.8 88.4 47.1 88.4 47.1 C 88.4 47.3 88.4 47.4 88.6 47.4 C 88.62 47.39 89.1 47.4 89.1 47.4 L 89.1 48.7 C 89.1 48.7 87.73 48.67 87.7 48.7 C 87.2 48.7 87 48.4 87 48 C 87 47.8 87 47.7 87 47.7 C 86.96 47.73 86.9 47.7 86.9 47.7 C 86.9 47.7 86.47 48.81 85.1 48.8 C 84 48.8 83 48.1 83 46.9 C 83 45 85.6 44.8 86.6 44.8 Z M 85.5 47.6 C 86.3 47.6 86.9 46.8 86.9 46 C 86.86 46.02 86.9 45.9 86.9 45.9 C 86.9 45.9 86.59 45.87 86.6 45.9 C 85.8 45.9 84.5 46 84.5 46.8 C 84.5 47.2 84.8 47.6 85.5 47.6 Z M 90.4 43.8 L 89.6 43.8 L 89.6 42.6 L 90.4 42.6 L 90.4 40.9 L 91.9 40.9 L 91.9 42.6 L 93.3 42.6 L 93.3 43.8 L 91.9 43.8 C 91.9 43.8 91.91 46.23 91.9 46.2 C 91.9 47.2 92.7 47.4 93.1 47.4 C 93.29 47.39 93.4 47.4 93.4 47.4 L 93.4 48.7 C 93.4 48.7 93.2 48.73 92.9 48.7 C 92.1 48.7 90.4 48.5 90.4 46.4 C 90.38 46.42 90.4 43.8 90.4 43.8 Z M 93.7 40.2 C 93.8 40.4 93.8 40.6 93.8 40.8 C 93.8 41.1 93.7 41.5 93.5 41.9 C 93.5 41.9 92.5 41.9 92.5 41.9 C 92.6 41.5 92.7 41.2 92.7 40.9 C 92.7 40.7 92.7 40.4 92.6 40.2 C 92.6 40.2 93.7 40.2 93.7 40.2 Z M 97.8 47.9 C 97.8 47.9 100.61 44.41 100.6 44.4 C 100.88 44.06 101.1 43.8 101.1 43.8 L 101.1 43.8 C 101.1 43.8 100.94 43.84 100.6 43.8 C 100.6 43.8 99.5 43.8 99.5 43.8 C 99.3 43.8 99.2 43.9 99.2 44.1 C 99.19 44.11 99.2 44.5 99.2 44.5 L 97.8 44.5 C 97.8 44.5 97.81 43.37 97.8 43.4 C 97.8 42.8 98.1 42.6 98.6 42.6 C 98.63 42.55 103.1 42.6 103.1 42.6 L 103.1 43.4 C 103.1 43.4 100.29 46.82 100.3 46.8 C 100.02 47.16 99.8 47.4 99.8 47.4 L 99.8 47.4 C 99.8 47.4 99.96 47.37 100.4 47.4 C 100.4 47.4 101.7 47.4 101.7 47.4 C 101.9 47.4 102 47.3 102 47.1 C 101.96 47.11 102 46.8 102 46.8 L 103.3 46.8 C 103.3 46.8 103.34 47.85 103.3 47.9 C 103.3 48.4 103.1 48.7 102.5 48.7 C 102.54 48.67 97.8 48.7 97.8 48.7 L 97.8 47.9 Z M 108 41.5 L 107.2 41.5 L 107.2 40.2 C 107.2 40.2 112.33 40.15 112.3 40.2 C 112.9 40.2 113.1 40.4 113.1 41 C 113.15 40.97 113.1 42.3 113.1 42.3 L 111.7 42.3 C 111.7 42.3 111.72 41.74 111.7 41.7 C 111.7 41.6 111.6 41.5 111.5 41.5 C 111.46 41.48 109.5 41.5 109.5 41.5 L 109.5 43.7 L 112.3 43.7 L 112.3 45 L 109.5 45 C 109.5 45 109.53 47.07 109.5 47.1 C 109.5 47.2 109.6 47.3 109.8 47.3 C 109.8 47.3 111.8 47.3 111.8 47.3 C 111.9 47.3 112 47.2 112 47.1 C 112.03 47.07 112 46.6 112 46.6 L 113.5 46.6 C 113.5 46.6 113.46 47.85 113.5 47.9 C 113.5 48.4 113.2 48.7 112.6 48.7 C 112.6 48.7 108.8 48.7 108.8 48.7 C 108.2 48.7 108 48.4 108 47.9 C 107.96 47.85 108 41.5 108 41.5 Z M 114.5 47.3 L 116.3 47.3 C 116.3 47.3 116.32 42.61 116.3 42.6 C 116.32 42.32 116.3 42 116.3 42 L 116.3 42 C 116.3 42 116.21 42.24 115.9 42.5 C 115.93 42.51 115.2 43.2 115.2 43.2 L 114.3 42.2 L 116.5 40.2 L 117.9 40.2 L 117.9 47.3 L 119.7 47.3 L 119.7 48.7 L 114.5 48.7 L 114.5 47.3 Z M 127.3 44.8 C 127.32 44.83 127.5 44.8 127.5 44.8 C 127.5 44.8 127.51 44.78 127.5 44.8 C 127.5 43.9 127.2 43.6 126.4 43.6 C 126.1 43.6 125.6 43.7 125.6 44 C 125.57 43.99 125.6 44.3 125.6 44.3 L 124.2 44.3 C 124.2 44.3 124.15 43.66 124.2 43.7 C 124.2 42.5 125.8 42.4 126.4 42.4 C 128.4 42.4 129 43.5 129 44.8 C 129 44.8 129 47.1 129 47.1 C 129 47.3 129.1 47.4 129.3 47.4 C 129.3 47.39 129.8 47.4 129.8 47.4 L 129.8 48.7 C 129.8 48.7 128.41 48.67 128.4 48.7 C 127.8 48.7 127.6 48.4 127.6 48 C 127.6 47.8 127.6 47.7 127.6 47.7 C 127.64 47.73 127.6 47.7 127.6 47.7 C 127.6 47.7 127.15 48.81 125.8 48.8 C 124.7 48.8 123.7 48.1 123.7 46.9 C 123.7 45 126.3 44.8 127.3 44.8 Z M 126.1 47.6 C 127 47.6 127.5 46.8 127.5 46 C 127.53 46.02 127.5 45.9 127.5 45.9 C 127.5 45.9 127.27 45.87 127.3 45.9 C 126.5 45.9 125.2 46 125.2 46.8 C 125.2 47.2 125.5 47.6 126.1 47.6 Z M 134.4 41.5 L 133.6 41.5 L 133.6 40.2 C 133.6 40.2 138.74 40.15 138.7 40.2 C 139.3 40.2 139.6 40.4 139.6 41 C 139.56 40.97 139.6 42.3 139.6 42.3 L 138.1 42.3 C 138.1 42.3 138.13 41.74 138.1 41.7 C 138.1 41.6 138 41.5 137.9 41.5 C 137.87 41.48 135.9 41.5 135.9 41.5 L 135.9 43.7 L 138.7 43.7 L 138.7 45 L 135.9 45 C 135.9 45 135.95 47.07 135.9 47.1 C 135.9 47.2 136 47.3 136.2 47.3 C 136.2 47.3 138.2 47.3 138.2 47.3 C 138.3 47.3 138.4 47.2 138.4 47.1 C 138.44 47.07 138.4 46.6 138.4 46.6 L 139.9 46.6 C 139.9 46.6 139.87 47.85 139.9 47.9 C 139.9 48.4 139.6 48.7 139.1 48.7 C 139.1 48.7 135.2 48.7 135.2 48.7 C 134.6 48.7 134.4 48.4 134.4 47.9 C 134.37 47.85 134.4 41.5 134.4 41.5 Z M 144.7 42.5 C 144.7 41.9 144.2 41.4 143.4 41.4 C 142.8 41.4 142.3 41.8 142.3 42.1 C 142.33 42.12 142.3 42.5 142.3 42.5 L 140.9 42.5 C 140.9 42.5 140.91 41.65 140.9 41.6 C 140.9 40.5 142.4 40 143.5 40 C 145 40 146.3 40.9 146.3 42.5 C 146.3 45.4 142.1 45.6 142.1 47.1 C 142.1 47.3 142.2 47.3 142.5 47.3 C 142.5 47.3 145 47.3 145 47.3 C 145.1 47.3 145.2 47.2 145.2 47.1 C 145.23 47.07 145.2 46.6 145.2 46.6 L 146.6 46.6 C 146.6 46.6 146.65 47.85 146.6 47.9 C 146.6 48.4 146.4 48.7 145.8 48.7 C 145.8 48.7 141.4 48.7 141.4 48.7 C 140.7 48.7 140.5 48.3 140.5 47.5 C 140.5 44.5 144.7 44.6 144.7 42.5 Z " stroke="none" fill="#5f0f50"/>  </g>  <g id="Polygon69067">    <path d="M 1.1 21.9 C 1.1 21.7 1 21.6 0.8 21.6 C 0.83 21.65 0.3 21.6 0.3 21.6 L 0.3 20.3 C 0.3 20.3 1.85 20.32 1.8 20.3 C 2.4 20.3 2.7 20.6 2.7 21.1 C 2.7 21.1 2.7 25.8 2.7 25.8 C 2.7 26.9 3.4 27.5 4.4 27.5 C 5.5 27.5 6.2 26.9 6.2 25.7 C 6.2 25.7 6.2 21.1 6.2 21.1 C 6.2 20.6 6.5 20.3 7 20.3 C 7.03 20.32 8.6 20.3 8.6 20.3 L 8.6 21.6 C 8.6 21.6 8.05 21.65 8.1 21.6 C 7.9 21.6 7.8 21.7 7.8 21.9 C 7.8 21.9 7.8 25.8 7.8 25.8 C 7.8 27.7 6.5 29 4.5 29 C 2.4 29 1.1 27.7 1.1 25.8 C 1.1 25.8 1.1 21.9 1.1 21.9 Z M 13.1 24.3 C 13.1 24.1 13 24 12.8 24 C 12.79 24.01 12.3 24 12.3 24 L 12.3 22.7 C 12.3 22.7 13.72 22.72 13.7 22.7 C 14.3 22.7 14.5 23 14.5 23.4 C 14.5 23.4 14.5 23.6 14.5 23.6 C 14.5 23.7 14.5 23.8 14.5 23.8 C 14.5 23.8 14.5 23.8 14.5 23.8 C 14.8 23.3 15.4 22.6 16.7 22.6 C 18 22.6 18.8 23.3 18.8 24.9 C 18.8 24.9 18.8 27.3 18.8 27.3 C 18.8 27.5 18.9 27.6 19.1 27.6 C 19.08 27.55 19.6 27.6 19.6 27.6 L 19.6 28.8 C 19.6 28.8 18.11 28.83 18.1 28.8 C 17.5 28.8 17.3 28.6 17.3 28 C 17.3 28 17.3 25.2 17.3 25.2 C 17.3 24.5 17.1 24 16.3 24 C 15.5 24 14.9 24.5 14.7 25.2 C 14.6 25.5 14.6 25.7 14.6 26 C 14.57 26.03 14.6 28.8 14.6 28.8 L 13.1 28.8 C 13.1 28.8 13.06 24.27 13.1 24.3 Z M 23.3 22.6 C 25 22.6 26 23.9 26 25.5 C 25.98 25.65 25.9 26 25.9 26 C 25.9 26 21.72 26.04 21.7 26 C 21.8 27.1 22.6 27.7 23.6 27.7 C 24.54 27.68 25.3 27 25.3 27 L 25.9 28.1 C 25.9 28.1 24.97 28.98 23.4 29 C 21.4 29 20.2 27.5 20.2 25.8 C 20.2 23.9 21.4 22.6 23.3 22.6 Z M 24.4 25 C 24.4 24.3 23.9 23.7 23.3 23.7 C 22.5 23.7 21.9 24.2 21.8 25 C 21.8 25 24.4 25 24.4 25 Z M 27.5 23.9 L 26.7 23.9 L 26.7 22.7 L 27.5 22.7 L 27.5 21 L 29 21 L 29 22.7 L 30.4 22.7 L 30.4 23.9 L 29 23.9 C 29 23.9 29 26.4 29 26.4 C 29 27.4 29.8 27.6 30.2 27.6 C 30.38 27.55 30.5 27.5 30.5 27.5 L 30.5 28.9 C 30.5 28.9 30.3 28.89 30 28.9 C 29.2 28.9 27.5 28.6 27.5 26.6 C 27.48 26.59 27.5 23.9 27.5 23.9 Z M 34.3 22.6 C 36 22.6 37 23.9 37 25.5 C 37.01 25.65 37 26 37 26 C 37 26 32.75 26.04 32.7 26 C 32.9 27.1 33.7 27.7 34.6 27.7 C 35.57 27.68 36.3 27 36.3 27 L 36.9 28.1 C 36.9 28.1 36 28.98 34.5 29 C 32.4 29 31.2 27.5 31.2 25.8 C 31.2 23.9 32.5 22.6 34.3 22.6 Z M 35.4 25 C 35.4 24.3 34.9 23.7 34.3 23.7 C 33.5 23.7 33 24.2 32.8 25 C 32.8 25 35.4 25 35.4 25 Z M 38.4 21.9 C 38.4 21.7 38.3 21.6 38.2 21.6 C 38.17 21.61 37.7 21.6 37.7 21.6 L 37.7 20.3 C 37.7 20.3 39.14 20.32 39.1 20.3 C 39.7 20.3 40 20.6 40 21.1 C 40 21.1 40 23.3 40 23.3 C 39.96 23.57 39.9 23.8 39.9 23.8 C 39.9 23.8 39.96 23.78 40 23.8 C 40.2 23.2 41 22.6 42.1 22.6 C 43.4 22.6 44.2 23.3 44.2 24.9 C 44.2 24.9 44.2 27.3 44.2 27.3 C 44.2 27.5 44.3 27.6 44.5 27.6 C 44.46 27.55 44.9 27.6 44.9 27.6 L 44.9 28.8 C 44.9 28.8 43.49 28.83 43.5 28.8 C 42.9 28.8 42.7 28.6 42.7 28 C 42.7 28 42.7 25.2 42.7 25.2 C 42.7 24.5 42.5 24 41.7 24 C 40.9 24 40.3 24.5 40.1 25.2 C 40 25.5 40 25.7 40 26 C 39.96 26.03 40 28.8 40 28.8 L 38.4 28.8 C 38.4 28.8 38.44 21.87 38.4 21.9 Z M 48.9 22.6 C 50.8 22.6 52.3 23.9 52.3 25.8 C 52.3 27.7 50.8 29 48.9 29 C 47 29 45.6 27.7 45.6 25.8 C 45.6 23.9 47 22.6 48.9 22.6 Z M 48.9 27.7 C 49.9 27.7 50.7 26.9 50.7 25.8 C 50.7 24.6 49.9 23.9 48.9 23.9 C 47.9 23.9 47.1 24.6 47.1 25.8 C 47.1 26.9 47.9 27.7 48.9 27.7 Z M 53.7 23.9 L 52.9 23.9 L 52.9 22.7 L 53.7 22.7 L 53.7 21 L 55.2 21 L 55.2 22.7 L 56.6 22.7 L 56.6 23.9 L 55.2 23.9 C 55.2 23.9 55.19 26.4 55.2 26.4 C 55.2 27.4 56 27.6 56.4 27.6 C 56.57 27.55 56.7 27.5 56.7 27.5 L 56.7 28.9 C 56.7 28.9 56.48 28.89 56.2 28.9 C 55.4 28.9 53.7 28.6 53.7 26.6 C 53.66 26.59 53.7 23.9 53.7 23.9 Z M 58.1 24.3 C 58.1 24.1 58 24 57.8 24 C 57.82 24.01 57.3 24 57.3 24 L 57.3 22.7 C 57.3 22.7 58.74 22.72 58.7 22.7 C 59.3 22.7 59.5 23 59.5 23.4 C 59.5 23.4 59.5 23.6 59.5 23.6 C 59.5 23.7 59.5 23.8 59.5 23.8 C 59.5 23.8 59.5 23.8 59.5 23.8 C 59.8 23.3 60.5 22.6 61.7 22.6 C 63.1 22.6 63.8 23.3 63.8 24.9 C 63.8 24.9 63.8 27.3 63.8 27.3 C 63.8 27.5 63.9 27.6 64.1 27.6 C 64.1 27.55 64.6 27.6 64.6 27.6 L 64.6 28.8 C 64.6 28.8 63.13 28.83 63.1 28.8 C 62.6 28.8 62.3 28.6 62.3 28 C 62.3 28 62.3 25.2 62.3 25.2 C 62.3 24.5 62.1 24 61.4 24 C 60.5 24 59.9 24.5 59.7 25.2 C 59.6 25.5 59.6 25.7 59.6 26 C 59.59 26.03 59.6 28.8 59.6 28.8 L 58.1 28.8 C 58.1 28.8 58.08 24.27 58.1 24.3 Z M 66.2 30.1 C 66.6 30.1 66.9 29.8 67.2 29.3 C 67.16 29.29 67.4 28.8 67.4 28.8 C 67.4 28.8 65.33 24.23 65.3 24.2 C 65.3 24 65.2 24 65 24 C 65 24.01 64.8 24 64.8 24 L 64.8 22.7 C 64.8 22.7 65.83 22.72 65.8 22.7 C 66.3 22.7 66.5 22.9 66.6 23.3 C 66.6 23.3 67.8 26.4 67.8 26.4 C 67.96 26.66 68.1 27.2 68.1 27.2 L 68.1 27.2 C 68.1 27.2 68.17 26.66 68.3 26.4 C 68.3 26.4 69.3 23.3 69.3 23.3 C 69.5 22.9 69.7 22.7 70.1 22.7 C 70.14 22.72 71.2 22.7 71.2 22.7 L 71.2 24 C 71.2 24 70.99 24.01 71 24 C 70.8 24 70.7 24 70.6 24.2 C 70.6 24.2 68.4 29.8 68.4 29.8 C 68 30.9 67.2 31.4 66.2 31.4 C 65.28 31.35 64.7 30.7 64.7 30.7 L 65.3 29.7 C 65.3 29.7 65.65 30.07 66.2 30.1 Z M 68.4 20.3 L 69.8 20.3 L 68.6 21.9 L 67.4 21.9 L 68.4 20.3 Z M 74.9 22.6 C 75.7 22.6 77.1 22.9 77.1 23.9 C 77.15 23.95 77.1 24.7 77.1 24.7 L 75.8 24.7 C 75.8 24.7 75.8 24.33 75.8 24.3 C 75.8 24 75.3 23.9 74.9 23.9 C 73.9 23.9 73.1 24.7 73.1 25.8 C 73.1 27 74 27.6 75 27.6 C 76.07 27.65 76.8 26.8 76.8 26.8 L 77.5 27.9 C 77.5 27.9 76.56 28.98 74.9 29 C 72.9 29 71.6 27.6 71.6 25.8 C 71.6 24 72.8 22.6 74.9 22.6 Z M 78.6 21.9 C 78.6 21.7 78.5 21.6 78.3 21.6 C 78.3 21.61 77.8 21.6 77.8 21.6 L 77.8 20.3 C 77.8 20.3 79.27 20.32 79.3 20.3 C 79.8 20.3 80.1 20.6 80.1 21.1 C 80.1 21.1 80.1 23.3 80.1 23.3 C 80.09 23.57 80.1 23.8 80.1 23.8 C 80.1 23.8 80.09 23.78 80.1 23.8 C 80.4 23.2 81.1 22.6 82.2 22.6 C 83.6 22.6 84.3 23.3 84.3 24.9 C 84.3 24.9 84.3 27.3 84.3 27.3 C 84.3 27.5 84.4 27.6 84.6 27.6 C 84.59 27.55 85.1 27.6 85.1 27.6 L 85.1 28.8 C 85.1 28.8 83.62 28.83 83.6 28.8 C 83.1 28.8 82.8 28.6 82.8 28 C 82.8 28 82.8 25.2 82.8 25.2 C 82.8 24.5 82.6 24 81.8 24 C 81 24 80.4 24.5 80.2 25.2 C 80.1 25.5 80.1 25.7 80.1 26 C 80.09 26.03 80.1 28.8 80.1 28.8 L 78.6 28.8 C 78.6 28.8 78.56 21.87 78.6 21.9 Z M 88.8 28 C 88.8 28 91.62 24.57 91.6 24.6 C 91.9 24.23 92.1 24 92.1 24 L 92.1 24 C 92.1 24 91.96 24.01 91.6 24 C 91.6 24 90.5 24 90.5 24 C 90.3 24 90.2 24.1 90.2 24.3 C 90.2 24.27 90.2 24.6 90.2 24.6 L 88.8 24.6 C 88.8 24.6 88.82 23.53 88.8 23.5 C 88.8 23 89.1 22.7 89.6 22.7 C 89.64 22.72 94.1 22.7 94.1 22.7 L 94.1 23.5 C 94.1 23.5 91.31 26.99 91.3 27 C 91.03 27.32 90.8 27.6 90.8 27.6 L 90.8 27.6 C 90.8 27.6 90.97 27.54 91.4 27.5 C 91.4 27.5 92.7 27.5 92.7 27.5 C 92.9 27.5 93 27.5 93 27.3 C 92.98 27.28 93 26.9 93 26.9 L 94.4 26.9 C 94.4 26.9 94.35 28.02 94.4 28 C 94.4 28.6 94.1 28.8 93.6 28.8 C 93.55 28.83 88.8 28.8 88.8 28.8 L 88.8 28 Z M 89.9 20.3 L 91 20.3 L 91.6 21.3 L 91.6 21.3 L 92.2 20.3 L 93.4 20.3 L 92.3 21.9 L 91 21.9 L 89.9 20.3 Z M 95.7 20.3 L 97 20.3 L 97 21.7 L 95.7 21.7 L 95.7 20.3 Z M 95.7 24.3 C 95.7 24.1 95.6 24 95.4 24 C 95.39 24.01 94.9 24 94.9 24 L 94.9 22.7 C 94.9 22.7 96.36 22.72 96.4 22.7 C 96.9 22.7 97.2 23 97.2 23.5 C 97.2 23.5 97.2 27.3 97.2 27.3 C 97.2 27.5 97.3 27.6 97.4 27.6 C 97.43 27.55 97.9 27.6 97.9 27.6 L 97.9 28.8 C 97.9 28.8 96.46 28.83 96.5 28.8 C 95.9 28.8 95.7 28.6 95.7 28 C 95.7 28 95.7 24.3 95.7 24.3 Z M 101.7 22.6 C 103.4 22.6 104.4 23.9 104.4 25.5 C 104.4 25.65 104.4 26 104.4 26 C 104.4 26 100.14 26.04 100.1 26 C 100.3 27.1 101.1 27.7 102 27.7 C 102.96 27.68 103.7 27 103.7 27 L 104.3 28.1 C 104.3 28.1 103.39 28.98 101.9 29 C 99.8 29 98.6 27.5 98.6 25.8 C 98.6 23.9 99.9 22.6 101.7 22.6 Z M 102.8 25 C 102.8 24.3 102.3 23.7 101.7 23.7 C 100.9 23.7 100.4 24.2 100.2 25 C 100.2 25 102.8 25 102.8 25 Z M 105.9 24.3 C 105.9 24.1 105.8 24 105.6 24 C 105.61 24.01 105.1 24 105.1 24 L 105.1 22.7 C 105.1 22.7 106.54 22.72 106.5 22.7 C 107.1 22.7 107.3 23 107.3 23.4 C 107.3 23.4 107.3 23.6 107.3 23.6 C 107.3 23.7 107.3 23.8 107.3 23.8 C 107.3 23.8 107.3 23.8 107.3 23.8 C 107.6 23.3 108.3 22.6 109.5 22.6 C 110.9 22.6 111.6 23.3 111.6 24.9 C 111.6 24.9 111.6 27.3 111.6 27.3 C 111.6 27.5 111.7 27.6 111.9 27.6 C 111.9 27.55 112.4 27.6 112.4 27.6 L 112.4 28.8 C 112.4 28.8 110.93 28.83 110.9 28.8 C 110.4 28.8 110.1 28.6 110.1 28 C 110.1 28 110.1 25.2 110.1 25.2 C 110.1 24.5 109.9 24 109.2 24 C 108.3 24 107.7 24.5 107.5 25.2 C 107.4 25.5 107.4 25.7 107.4 26 C 107.39 26.03 107.4 28.8 107.4 28.8 L 105.9 28.8 C 105.9 28.8 105.88 24.27 105.9 24.3 Z M 117.1 20.3 L 118.4 20.3 L 118.4 21.7 L 117.1 21.7 L 117.1 20.3 Z M 115.8 30 C 116.2 30 117 29.9 117 28.9 C 117 28.9 117 24.3 117 24.3 C 117 24.1 116.9 24 116.8 24 C 116.77 24.01 116.3 24 116.3 24 L 116.3 22.7 C 116.3 22.7 117.74 22.72 117.7 22.7 C 118.3 22.7 118.6 23 118.6 23.5 C 118.6 23.5 118.6 29 118.6 29 C 118.6 31.1 116.8 31.3 116 31.3 C 115.7 31.3 115.5 31.3 115.5 31.3 C 115.55 31.28 115.5 30 115.5 30 C 115.5 30 115.66 30.02 115.8 30 Z M 122.9 22.6 C 124.7 22.6 125.6 23.9 125.6 25.5 C 125.64 25.65 125.6 26 125.6 26 C 125.6 26 121.38 26.04 121.4 26 C 121.5 27.1 122.3 27.7 123.2 27.7 C 124.2 27.68 124.9 27 124.9 27 L 125.6 28.1 C 125.6 28.1 124.63 28.98 123.1 29 C 121.1 29 119.8 27.5 119.8 25.8 C 119.8 23.9 121.1 22.6 122.9 22.6 Z M 124.1 25 C 124.1 24.3 123.6 23.7 122.9 23.7 C 122.1 23.7 121.6 24.2 121.4 25 C 121.4 25 124.1 25 124.1 25 Z M 129.9 24.2 C 129.9 24.1 129.7 24 129.6 24 C 129.58 24.01 129.4 24 129.4 24 L 129.4 22.7 C 129.4 22.7 130.32 22.72 130.3 22.7 C 130.8 22.7 131.1 22.9 131.2 23.3 C 131.2 23.3 132.4 26.5 132.4 26.5 C 132.5 26.87 132.6 27.4 132.6 27.4 L 132.6 27.4 C 132.6 27.4 132.72 26.87 132.8 26.5 C 132.8 26.5 134 23.3 134 23.3 C 134.1 22.9 134.4 22.7 134.9 22.7 C 134.89 22.72 135.7 22.7 135.7 22.7 L 135.7 24 C 135.7 24 135.56 24.01 135.6 24 C 135.4 24 135.3 24.1 135.2 24.2 C 135.23 24.23 133.5 28.8 133.5 28.8 L 131.7 28.8 C 131.7 28.8 129.91 24.23 129.9 24.2 Z M 142.8 22.6 C 144.6 22.6 146.1 23.9 146.1 25.8 C 146.1 27.7 144.6 29 142.8 29 C 140.9 29 139.4 27.7 139.4 25.8 C 139.4 23.9 140.9 22.6 142.8 22.6 Z M 142.8 27.7 C 143.7 27.7 144.6 26.9 144.6 25.8 C 144.6 24.6 143.7 23.9 142.8 23.9 C 141.8 23.9 140.9 24.6 140.9 25.8 C 140.9 26.9 141.8 27.7 142.8 27.7 Z M 147.3 21.9 C 147.3 21.7 147.3 21.6 147.1 21.6 C 147.08 21.61 146.6 21.6 146.6 21.6 L 146.6 20.3 C 146.6 20.3 148.05 20.32 148.1 20.3 C 148.6 20.3 148.9 20.6 148.9 21.1 C 148.9 21.1 148.9 22.9 148.9 22.9 C 148.87 23.21 148.8 23.4 148.8 23.4 L 148.9 23.4 C 148.9 23.4 149.41 22.57 150.7 22.6 C 152.4 22.6 153.4 23.9 153.4 25.8 C 153.4 27.7 152.2 29 150.6 29 C 149.34 28.98 148.8 28.1 148.8 28.1 L 148.8 28.1 C 148.8 28.1 148.79 28.28 148.8 28.5 C 148.79 28.52 148.8 28.8 148.8 28.8 L 147.3 28.8 C 147.3 28.8 147.35 21.87 147.3 21.9 Z M 150.3 27.7 C 151.2 27.7 151.9 27 151.9 25.8 C 151.9 24.6 151.3 23.9 150.4 23.9 C 149.6 23.9 148.8 24.5 148.8 25.8 C 148.8 26.8 149.3 27.7 150.3 27.7 Z M 157.3 22.6 C 159.1 22.6 160 23.9 160 25.5 C 160.02 25.65 160 26 160 26 C 160 26 155.76 26.04 155.8 26 C 155.9 27.1 156.7 27.7 157.6 27.7 C 158.58 27.68 159.3 27 159.3 27 L 159.9 28.1 C 159.9 28.1 159.01 28.98 157.5 29 C 155.5 29 154.2 27.5 154.2 25.8 C 154.2 23.9 155.5 22.6 157.3 22.6 Z M 158.5 25 C 158.4 24.3 157.9 23.7 157.3 23.7 C 156.5 23.7 156 24.2 155.8 25 C 155.8 25 158.5 25 158.5 25 Z M 161.4 21.9 C 161.4 21.7 161.4 21.6 161.2 21.6 C 161.18 21.61 160.7 21.6 160.7 21.6 L 160.7 20.3 C 160.7 20.3 162.15 20.32 162.2 20.3 C 162.7 20.3 163 20.6 163 21.1 C 163 21.1 163 23.3 163 23.3 C 162.97 23.57 162.9 23.8 162.9 23.8 C 162.9 23.8 162.97 23.78 163 23.8 C 163.3 23.2 164 22.6 165.1 22.6 C 166.4 22.6 167.2 23.3 167.2 24.9 C 167.2 24.9 167.2 27.3 167.2 27.3 C 167.2 27.5 167.3 27.6 167.5 27.6 C 167.47 27.55 167.9 27.6 167.9 27.6 L 167.9 28.8 C 167.9 28.8 166.5 28.83 166.5 28.8 C 165.9 28.8 165.7 28.6 165.7 28 C 165.7 28 165.7 25.2 165.7 25.2 C 165.7 24.5 165.5 24 164.7 24 C 163.9 24 163.3 24.5 163.1 25.2 C 163 25.5 163 25.7 163 26 C 162.97 26.03 163 28.8 163 28.8 L 161.4 28.8 C 161.4 28.8 161.45 21.87 161.4 21.9 Z M 169.2 24.3 C 169.2 24.1 169.1 24 168.9 24 C 168.89 24.01 168.4 24 168.4 24 L 168.4 22.7 C 168.4 22.7 169.86 22.72 169.9 22.7 C 170.4 22.7 170.7 23 170.7 23.5 C 170.7 23.5 170.7 26.3 170.7 26.3 C 170.7 27.1 170.9 27.6 171.6 27.6 C 172.7 27.6 173.3 26.6 173.3 25.5 C 173.33 25.52 173.3 22.7 173.3 22.7 L 174.8 22.7 C 174.8 22.7 174.85 27.29 174.8 27.3 C 174.8 27.5 174.9 27.6 175.1 27.6 C 175.11 27.55 175.6 27.6 175.6 27.6 L 175.6 28.8 C 175.6 28.8 174.19 28.83 174.2 28.8 C 173.7 28.8 173.4 28.6 173.4 28.2 C 173.4 28.2 173.4 28 173.4 28 C 173.4 27.8 173.4 27.7 173.4 27.7 C 173.4 27.7 173.4 27.7 173.4 27.7 C 173.1 28.3 172.3 29 171.3 29 C 170 29 169.2 28.3 169.2 26.7 C 169.2 26.7 169.2 24.3 169.2 24.3 Z M 179.6 24.2 C 179.6 24.1 179.5 24 179.3 24 C 179.29 24.01 179.2 24 179.2 24 L 179.2 22.7 C 179.2 22.7 180.03 22.72 180 22.7 C 180.5 22.7 180.8 22.9 180.9 23.3 C 180.9 23.3 182.1 26.5 182.1 26.5 C 182.22 26.87 182.3 27.4 182.3 27.4 L 182.3 27.4 C 182.3 27.4 182.43 26.87 182.6 26.5 C 182.6 26.5 183.7 23.3 183.7 23.3 C 183.9 22.9 184.1 22.7 184.6 22.7 C 184.61 22.72 185.4 22.7 185.4 22.7 L 185.4 24 C 185.4 24 185.28 24.01 185.3 24 C 185.1 24 185 24.1 184.9 24.2 C 184.94 24.23 183.2 28.8 183.2 28.8 L 181.4 28.8 C 181.4 28.8 179.63 24.23 179.6 24.2 Z M 189.7 24.3 C 189.7 24.1 189.6 24 189.5 24 C 189.47 24.01 189 24 189 24 L 189 22.7 C 189 22.7 190.39 22.72 190.4 22.7 C 190.9 22.7 191.2 23 191.2 23.4 C 191.2 23.4 191.2 23.6 191.2 23.6 C 191.2 23.7 191.2 23.8 191.2 23.8 C 191.2 23.8 191.2 23.8 191.2 23.8 C 191.5 23.2 192.2 22.6 193.2 22.6 C 194.1 22.6 194.7 23 195 23.8 C 195 23.8 195 23.8 195 23.8 C 195.3 23.2 196.1 22.6 197.1 22.6 C 198.4 22.6 199.1 23.3 199.1 24.9 C 199.1 24.9 199.1 27.3 199.1 27.3 C 199.1 27.5 199.2 27.6 199.4 27.6 C 199.35 27.55 199.8 27.6 199.8 27.6 L 199.8 28.8 C 199.8 28.8 198.38 28.83 198.4 28.8 C 197.8 28.8 197.6 28.6 197.6 28 C 197.6 28 197.6 25.2 197.6 25.2 C 197.6 24.5 197.4 24 196.7 24 C 196 24 195.4 24.6 195.3 25.4 C 195.2 25.6 195.2 25.9 195.2 26.1 C 195.17 26.15 195.2 28.8 195.2 28.8 L 193.6 28.8 C 193.6 28.8 193.64 25.19 193.6 25.2 C 193.6 24.5 193.5 24 192.8 24 C 192 24 191.5 24.6 191.3 25.4 C 191.3 25.6 191.2 25.9 191.2 26.1 C 191.24 26.15 191.2 28.8 191.2 28.8 L 189.7 28.8 C 189.7 28.8 189.73 24.27 189.7 24.3 Z M 204.1 25 C 204.08 25 204.3 25 204.3 25 C 204.3 25 204.27 24.95 204.3 24.9 C 204.3 24.1 203.9 23.7 203.1 23.7 C 202.9 23.7 202.3 23.8 202.3 24.2 C 202.33 24.15 202.3 24.5 202.3 24.5 L 200.9 24.5 C 200.9 24.5 200.91 23.83 200.9 23.8 C 200.9 22.7 202.5 22.6 203.2 22.6 C 205.2 22.6 205.8 23.6 205.8 25 C 205.8 25 205.8 27.3 205.8 27.3 C 205.8 27.5 205.9 27.6 206.1 27.6 C 206.06 27.55 206.5 27.6 206.5 27.6 L 206.5 28.8 C 206.5 28.8 205.17 28.83 205.2 28.8 C 204.6 28.8 204.4 28.5 204.4 28.2 C 204.4 28 204.4 27.9 204.4 27.9 C 204.41 27.9 204.4 27.9 204.4 27.9 C 204.4 27.9 203.91 28.98 202.5 29 C 201.4 29 200.4 28.3 200.4 27.1 C 200.4 25.2 203.1 25 204.1 25 Z M 202.9 27.8 C 203.7 27.8 204.3 26.9 204.3 26.2 C 204.3 26.18 204.3 26 204.3 26 C 204.3 26 204.03 26.04 204 26 C 203.2 26 202 26.1 202 27 C 202 27.4 202.3 27.8 202.9 27.8 Z M 207.7 21.9 C 207.7 21.7 207.6 21.6 207.5 21.6 C 207.47 21.61 207 21.6 207 21.6 L 207 20.3 C 207 20.3 208.44 20.32 208.4 20.3 C 209 20.3 209.3 20.6 209.3 21.1 C 209.3 21.1 209.3 27.3 209.3 27.3 C 209.3 27.5 209.3 27.6 209.5 27.6 C 209.52 27.55 210 27.6 210 27.6 L 210 28.8 C 210 28.8 208.55 28.83 208.5 28.8 C 208 28.8 207.7 28.6 207.7 28 C 207.7 28 207.7 21.9 207.7 21.9 Z M 214 22.6 C 215.9 22.6 217.4 23.9 217.4 25.8 C 217.4 27.7 215.9 29 214 29 C 212.1 29 210.6 27.7 210.6 25.8 C 210.6 23.9 212.1 22.6 214 22.6 Z M 214 27.7 C 215 27.7 215.8 26.9 215.8 25.8 C 215.8 24.6 215 23.9 214 23.9 C 213 23.9 212.2 24.6 212.2 25.8 C 212.2 26.9 213 27.7 214 27.7 Z M 218.7 24.3 C 218.7 24.1 218.6 24 218.5 24 C 218.47 24.01 218 24 218 24 L 218 22.7 C 218 22.7 219.39 22.72 219.4 22.7 C 219.9 22.7 220.2 23 220.2 23.4 C 220.2 23.4 220.2 23.6 220.2 23.6 C 220.2 23.7 220.2 23.8 220.2 23.8 C 220.2 23.8 220.2 23.8 220.2 23.8 C 220.5 23.2 221.2 22.6 222.2 22.6 C 223.1 22.6 223.7 23 224 23.8 C 224 23.8 224 23.8 224 23.8 C 224.3 23.2 225.1 22.6 226.1 22.6 C 227.4 22.6 228.1 23.3 228.1 24.9 C 228.1 24.9 228.1 27.3 228.1 27.3 C 228.1 27.5 228.2 27.6 228.4 27.6 C 228.36 27.55 228.8 27.6 228.8 27.6 L 228.8 28.8 C 228.8 28.8 227.39 28.83 227.4 28.8 C 226.8 28.8 226.6 28.6 226.6 28 C 226.6 28 226.6 25.2 226.6 25.2 C 226.6 24.5 226.4 24 225.7 24 C 225 24 224.4 24.6 224.3 25.4 C 224.2 25.6 224.2 25.9 224.2 26.1 C 224.17 26.15 224.2 28.8 224.2 28.8 L 222.6 28.8 C 222.6 28.8 222.65 25.19 222.6 25.2 C 222.6 24.5 222.6 24 221.8 24 C 221 24 220.5 24.6 220.3 25.4 C 220.3 25.6 220.2 25.9 220.2 26.1 C 220.24 26.15 220.2 28.8 220.2 28.8 L 218.7 28.8 C 218.7 28.8 218.73 24.27 218.7 24.3 Z M 233.2 24.3 C 233.2 24.1 233.1 24 233 24 C 232.97 24.01 232.5 24 232.5 24 L 232.5 22.7 C 232.5 22.7 233.89 22.72 233.9 22.7 C 234.4 22.7 234.7 23 234.7 23.4 C 234.7 23.4 234.7 23.6 234.7 23.6 C 234.7 23.7 234.7 23.8 234.7 23.8 C 234.7 23.8 234.7 23.8 234.7 23.8 C 235 23.2 235.7 22.6 236.7 22.6 C 237.6 22.6 238.2 23 238.5 23.8 C 238.5 23.8 238.5 23.8 238.5 23.8 C 238.8 23.2 239.6 22.6 240.6 22.6 C 241.9 22.6 242.6 23.3 242.6 24.9 C 242.6 24.9 242.6 27.3 242.6 27.3 C 242.6 27.5 242.7 27.6 242.9 27.6 C 242.85 27.55 243.3 27.6 243.3 27.6 L 243.3 28.8 C 243.3 28.8 241.88 28.83 241.9 28.8 C 241.3 28.8 241.1 28.6 241.1 28 C 241.1 28 241.1 25.2 241.1 25.2 C 241.1 24.5 240.9 24 240.2 24 C 239.5 24 238.9 24.6 238.8 25.4 C 238.7 25.6 238.7 25.9 238.7 26.1 C 238.66 26.15 238.7 28.8 238.7 28.8 L 237.1 28.8 C 237.1 28.8 237.14 25.19 237.1 25.2 C 237.1 24.5 237 24 236.3 24 C 235.5 24 235 24.6 234.8 25.4 C 234.8 25.6 234.7 25.9 234.7 26.1 C 234.74 26.15 234.7 28.8 234.7 28.8 L 233.2 28.8 C 233.2 28.8 233.23 24.27 233.2 24.3 Z M 244.5 24.3 C 244.5 24.1 244.5 24 244.3 24 C 244.28 24.01 243.8 24 243.8 24 L 243.8 22.7 C 243.8 22.7 245.21 22.72 245.2 22.7 C 245.7 22.7 246 23 246 23.4 C 246 23.4 246 23.6 246 23.6 C 246 23.7 246 23.8 246 23.8 C 246 23.8 246 23.8 246 23.8 C 246.3 23.3 246.9 22.6 248.2 22.6 C 249.5 22.6 250.3 23.3 250.3 24.9 C 250.3 24.9 250.3 27.3 250.3 27.3 C 250.3 27.5 250.4 27.6 250.6 27.6 C 250.57 27.55 251 27.6 251 27.6 L 251 28.8 C 251 28.8 249.6 28.83 249.6 28.8 C 249 28.8 248.8 28.6 248.8 28 C 248.8 28 248.8 25.2 248.8 25.2 C 248.8 24.5 248.6 24 247.8 24 C 247 24 246.4 24.5 246.2 25.2 C 246.1 25.5 246.1 25.7 246.1 26 C 246.06 26.03 246.1 28.8 246.1 28.8 L 244.5 28.8 C 244.5 28.8 244.55 24.27 244.5 24.3 Z M 255 22.6 C 256.9 22.6 258.4 23.9 258.4 25.8 C 258.4 27.7 256.9 29 255 29 C 253.1 29 251.7 27.7 251.7 25.8 C 251.7 23.9 253.1 22.6 255 22.6 Z M 255 27.7 C 256 27.7 256.8 26.9 256.8 25.8 C 256.8 24.6 256 23.9 255 23.9 C 254 23.9 253.2 24.6 253.2 25.8 C 253.2 26.9 254 27.7 255 27.7 Z M 258.9 28 C 258.9 28 261.77 24.57 261.8 24.6 C 262.04 24.23 262.3 24 262.3 24 L 262.3 24 C 262.3 24 262.1 24.01 261.7 24 C 261.7 24 260.6 24 260.6 24 C 260.4 24 260.3 24.1 260.3 24.3 C 260.35 24.27 260.3 24.6 260.3 24.6 L 259 24.6 C 259 24.6 258.97 23.53 259 23.5 C 259 23 259.2 22.7 259.8 22.7 C 259.79 22.72 264.3 22.7 264.3 22.7 L 264.3 23.5 C 264.3 23.5 261.45 26.99 261.5 27 C 261.18 27.32 260.9 27.6 260.9 27.6 L 260.9 27.6 C 260.9 27.6 261.12 27.54 261.5 27.5 C 261.5 27.5 262.9 27.5 262.9 27.5 C 263 27.5 263.1 27.5 263.1 27.3 C 263.12 27.28 263.1 26.9 263.1 26.9 L 264.5 26.9 C 264.5 26.9 264.5 28.02 264.5 28 C 264.5 28.6 264.3 28.8 263.7 28.8 C 263.7 28.83 258.9 28.8 258.9 28.8 L 258.9 28 Z M 260 20.3 L 261.2 20.3 L 261.8 21.3 L 261.8 21.3 L 262.4 20.3 L 263.5 20.3 L 262.4 21.9 L 261.1 21.9 L 260 20.3 Z M 265.8 26.9 C 265.8 26.9 266.55 27.79 267.6 27.8 C 268.1 27.8 268.4 27.6 268.4 27.2 C 268.4 26.3 265.2 26.3 265.2 24.4 C 265.2 23.1 266.3 22.6 267.6 22.6 C 268.4 22.6 269.7 22.8 269.7 23.8 C 269.72 23.84 269.7 24.5 269.7 24.5 L 268.4 24.5 C 268.4 24.5 268.38 24.18 268.4 24.2 C 268.4 23.9 267.9 23.7 267.6 23.7 C 267.1 23.7 266.7 23.9 266.7 24.3 C 266.7 25.3 269.9 25.1 269.9 27.1 C 269.9 28.3 268.9 29 267.6 29 C 265.92 28.98 265.1 27.9 265.1 27.9 L 265.8 26.9 Z M 271.4 23.9 L 270.6 23.9 L 270.6 22.7 L 271.4 22.7 L 271.4 21 L 272.9 21 L 272.9 22.7 L 274.3 22.7 L 274.3 23.9 L 272.9 23.9 C 272.9 23.9 272.91 26.4 272.9 26.4 C 272.9 27.4 273.7 27.6 274.1 27.6 C 274.29 27.55 274.4 27.5 274.4 27.5 L 274.4 28.9 C 274.4 28.9 274.21 28.89 273.9 28.9 C 273.1 28.9 271.4 28.6 271.4 26.6 C 271.39 26.59 271.4 23.9 271.4 23.9 Z M 275.3 24.2 C 275.2 24.1 275.1 24 275 24 C 274.97 24.01 274.8 24 274.8 24 L 274.8 22.7 C 274.8 22.7 275.71 22.72 275.7 22.7 C 276.2 22.7 276.5 22.9 276.6 23.3 C 276.6 23.3 277.8 26.5 277.8 26.5 C 277.89 26.87 278 27.4 278 27.4 L 278 27.4 C 278 27.4 278.11 26.87 278.2 26.5 C 278.2 26.5 279.4 23.3 279.4 23.3 C 279.5 22.9 279.8 22.7 280.3 22.7 C 280.28 22.72 281.1 22.7 281.1 22.7 L 281.1 24 C 281.1 24 280.95 24.01 281 24 C 280.8 24 280.7 24.1 280.6 24.2 C 280.62 24.23 278.9 28.8 278.9 28.8 L 277.1 28.8 C 277.1 28.8 275.3 24.23 275.3 24.2 Z M 284.6 22.6 C 286.4 22.6 287.3 23.9 287.3 25.5 C 287.31 25.65 287.3 26 287.3 26 C 287.3 26 283.05 26.04 283.1 26 C 283.2 27.1 284 27.7 284.9 27.7 C 285.87 27.68 286.6 27 286.6 27 L 287.2 28.1 C 287.2 28.1 286.31 28.98 284.8 29 C 282.8 29 281.5 27.5 281.5 25.8 C 281.5 23.9 282.8 22.6 284.6 22.6 Z M 285.8 25 C 285.7 24.3 285.2 23.7 284.6 23.7 C 283.8 23.7 283.3 24.2 283.1 25 C 283.1 25 285.8 25 285.8 25 Z " stroke="none" fill="#5f0f50"/>  </g>  <g id="Polygon69066">    <path d="M 0.7 2.1 C 0.6 1.9 0.6 1.8 0.3 1.8 C 0.35 1.81 0.1 1.8 0.1 1.8 L 0.1 0.5 C 0.1 0.5 1.13 0.48 1.1 0.5 C 1.7 0.5 1.9 0.6 2.1 1.2 C 2.1 1.2 3.8 5.9 3.8 5.9 C 3.94 6.41 4.1 7.2 4.1 7.2 L 4.1 7.2 C 4.1 7.2 4.27 6.41 4.4 5.9 C 4.4 5.9 6.1 1.2 6.1 1.2 C 6.3 0.6 6.5 0.5 7.1 0.5 C 7.07 0.48 8.1 0.5 8.1 0.5 L 8.1 1.8 C 8.1 1.8 7.85 1.81 7.8 1.8 C 7.6 1.8 7.5 1.9 7.5 2.1 C 7.48 2.08 4.9 9 4.9 9 L 3.3 9 C 3.3 9 0.72 2.08 0.7 2.1 Z M 9.7 10.2 C 10.1 10.2 10.5 10 10.7 9.5 C 10.69 9.46 10.9 9 10.9 9 C 10.9 9 8.86 4.39 8.9 4.4 C 8.8 4.2 8.7 4.2 8.5 4.2 C 8.53 4.18 8.4 4.2 8.4 4.2 L 8.4 2.9 C 8.4 2.9 9.36 2.88 9.4 2.9 C 9.8 2.9 10 3 10.2 3.5 C 10.2 3.5 11.4 6.5 11.4 6.5 C 11.48 6.83 11.6 7.3 11.6 7.3 L 11.6 7.3 C 11.6 7.3 11.7 6.83 11.8 6.5 C 11.8 6.5 12.9 3.5 12.9 3.5 C 13 3 13.2 2.9 13.7 2.9 C 13.67 2.88 14.7 2.9 14.7 2.9 L 14.7 4.2 C 14.7 4.2 14.52 4.18 14.5 4.2 C 14.3 4.2 14.2 4.2 14.2 4.4 C 14.2 4.4 12 9.9 12 9.9 C 11.5 11 10.7 11.5 9.8 11.5 C 8.81 11.52 8.2 10.9 8.2 10.9 L 8.8 9.8 C 8.8 9.8 9.18 10.24 9.7 10.2 Z M 15.9 4.1 L 15.1 4.1 L 15.1 2.9 L 15.9 2.9 L 15.9 1.2 L 17.4 1.2 L 17.4 2.9 L 18.8 2.9 L 18.8 4.1 L 17.4 4.1 C 17.4 4.1 17.39 6.56 17.4 6.6 C 17.4 7.6 18.2 7.7 18.6 7.7 C 18.77 7.72 18.9 7.7 18.9 7.7 L 18.9 9 C 18.9 9 18.68 9.06 18.4 9.1 C 17.6 9.1 15.9 8.8 15.9 6.8 C 15.86 6.76 15.9 4.1 15.9 4.1 Z M 19.8 4.4 C 19.7 4.2 19.6 4.2 19.4 4.2 C 19.44 4.18 19.3 4.2 19.3 4.2 L 19.3 2.9 C 19.3 2.9 20.18 2.88 20.2 2.9 C 20.7 2.9 20.9 3 21.1 3.5 C 21.1 3.5 22.2 6.7 22.2 6.7 C 22.37 7.03 22.5 7.5 22.5 7.5 L 22.5 7.5 C 22.5 7.5 22.58 7.03 22.7 6.7 C 22.7 6.7 23.9 3.5 23.9 3.5 C 24 3 24.3 2.9 24.8 2.9 C 24.76 2.88 25.6 2.9 25.6 2.9 L 25.6 4.2 C 25.6 4.2 25.43 4.18 25.4 4.2 C 25.3 4.2 25.2 4.2 25.1 4.4 C 25.09 4.39 23.3 9 23.3 9 L 21.5 9 C 21.5 9 19.78 4.39 19.8 4.4 Z M 29.7 5.2 C 29.68 5.16 29.9 5.2 29.9 5.2 C 29.9 5.2 29.87 5.11 29.9 5.1 C 29.9 4.2 29.5 3.9 28.7 3.9 C 28.5 3.9 27.9 4 27.9 4.3 C 27.92 4.32 27.9 4.6 27.9 4.6 L 26.5 4.6 C 26.5 4.6 26.51 4 26.5 4 C 26.5 2.9 28.1 2.7 28.8 2.7 C 30.8 2.7 31.4 3.8 31.4 5.2 C 31.4 5.2 31.4 7.5 31.4 7.5 C 31.4 7.6 31.5 7.7 31.7 7.7 C 31.66 7.72 32.1 7.7 32.1 7.7 L 32.1 9 C 32.1 9 30.77 9 30.8 9 C 30.2 9 30 8.7 30 8.3 C 30 8.2 30 8.1 30 8.1 C 30 8.06 30 8.1 30 8.1 C 30 8.1 29.51 9.14 28.1 9.1 C 27 9.1 26 8.5 26 7.2 C 26 5.3 28.7 5.2 29.7 5.2 Z M 28.5 8 C 29.3 8 29.9 7.1 29.9 6.3 C 29.89 6.35 29.9 6.2 29.9 6.2 C 29.9 6.2 29.63 6.2 29.6 6.2 C 28.8 6.2 27.6 6.3 27.6 7.2 C 27.6 7.6 27.9 8 28.5 8 Z M 29.2 0.5 L 30.7 0.5 L 29.4 2.1 L 28.3 2.1 L 29.2 0.5 Z M 33.4 4.4 C 33.4 4.3 33.3 4.2 33.1 4.2 C 33.1 4.18 32.6 4.2 32.6 4.2 L 32.6 2.9 C 32.6 2.9 34.01 2.88 34 2.9 C 34.5 2.9 34.8 3.1 34.8 3.6 C 34.8 3.6 34.8 4 34.8 4 C 34.82 4.21 34.8 4.4 34.8 4.4 C 34.8 4.4 34.82 4.37 34.8 4.4 C 35.1 3.5 35.8 2.8 36.8 2.8 C 36.9 2.8 37 2.8 37 2.8 L 37 4.3 C 37 4.3 36.89 4.3 36.7 4.3 C 36 4.3 35.3 4.7 35 5.6 C 34.9 5.9 34.9 6.2 34.9 6.6 C 34.87 6.58 34.9 9 34.9 9 L 33.4 9 C 33.4 9 33.36 4.44 33.4 4.4 Z M 41 5.2 C 40.98 5.16 41.2 5.2 41.2 5.2 C 41.2 5.2 41.17 5.11 41.2 5.1 C 41.2 4.2 40.8 3.9 40 3.9 C 39.8 3.9 39.2 4 39.2 4.3 C 39.23 4.32 39.2 4.6 39.2 4.6 L 37.8 4.6 C 37.8 4.6 37.81 4 37.8 4 C 37.8 2.9 39.4 2.7 40.1 2.7 C 42.1 2.7 42.7 3.8 42.7 5.2 C 42.7 5.2 42.7 7.5 42.7 7.5 C 42.7 7.6 42.8 7.7 43 7.7 C 42.96 7.72 43.4 7.7 43.4 7.7 L 43.4 9 C 43.4 9 42.07 9 42.1 9 C 41.5 9 41.3 8.7 41.3 8.3 C 41.3 8.2 41.3 8.1 41.3 8.1 C 41.3 8.06 41.3 8.1 41.3 8.1 C 41.3 8.1 40.81 9.14 39.4 9.1 C 38.3 9.1 37.3 8.5 37.3 7.2 C 37.3 5.3 40 5.2 41 5.2 Z M 39.8 8 C 40.6 8 41.2 7.1 41.2 6.3 C 41.2 6.35 41.2 6.2 41.2 6.2 C 41.2 6.2 40.93 6.2 40.9 6.2 C 40.1 6.2 38.9 6.3 38.9 7.2 C 38.9 7.6 39.2 8 39.8 8 Z M 47.9 7.1 C 47.9 7.1 48.65 7.96 49.7 8 C 50.2 8 50.5 7.8 50.5 7.4 C 50.5 6.5 47.3 6.5 47.3 4.5 C 47.3 3.3 48.4 2.7 49.7 2.7 C 50.5 2.7 51.8 3 51.8 4 C 51.81 4.01 51.8 4.6 51.8 4.6 L 50.5 4.6 C 50.5 4.6 50.47 4.34 50.5 4.3 C 50.5 4.1 50 3.9 49.7 3.9 C 49.2 3.9 48.8 4.1 48.8 4.5 C 48.8 5.4 52 5.2 52 7.3 C 52 8.4 51 9.1 49.7 9.1 C 48.01 9.14 47.1 8.1 47.1 8.1 L 47.9 7.1 Z M 56.5 5.2 C 56.5 5.16 56.7 5.2 56.7 5.2 C 56.7 5.2 56.69 5.11 56.7 5.1 C 56.7 4.2 56.3 3.9 55.6 3.9 C 55.3 3.9 54.7 4 54.7 4.3 C 54.74 4.32 54.7 4.6 54.7 4.6 L 53.3 4.6 C 53.3 4.6 53.33 4 53.3 4 C 53.3 2.9 54.9 2.7 55.6 2.7 C 57.6 2.7 58.2 3.8 58.2 5.2 C 58.2 5.2 58.2 7.5 58.2 7.5 C 58.2 7.6 58.3 7.7 58.5 7.7 C 58.47 7.72 59 7.7 59 7.7 L 59 9 C 59 9 57.59 9 57.6 9 C 57 9 56.8 8.7 56.8 8.3 C 56.8 8.2 56.8 8.1 56.8 8.1 C 56.82 8.06 56.8 8.1 56.8 8.1 C 56.8 8.1 56.33 9.14 54.9 9.1 C 53.9 9.1 52.9 8.5 52.9 7.2 C 52.9 5.3 55.5 5.2 56.5 5.2 Z M 55.3 8 C 56.1 8 56.7 7.1 56.7 6.3 C 56.71 6.35 56.7 6.2 56.7 6.2 C 56.7 6.2 56.45 6.2 56.4 6.2 C 55.7 6.2 54.4 6.3 54.4 7.2 C 54.4 7.6 54.7 8 55.3 8 Z M 63 4.4 C 62.9 4.2 62.8 4.2 62.6 4.2 C 62.64 4.18 62.5 4.2 62.5 4.2 L 62.5 2.9 C 62.5 2.9 63.38 2.88 63.4 2.9 C 63.9 2.9 64.1 3 64.3 3.5 C 64.3 3.5 65.4 6.7 65.4 6.7 C 65.57 7.03 65.7 7.5 65.7 7.5 L 65.7 7.5 C 65.7 7.5 65.78 7.03 65.9 6.7 C 65.9 6.7 67.1 3.5 67.1 3.5 C 67.2 3 67.5 2.9 68 2.9 C 67.95 2.88 68.8 2.9 68.8 2.9 L 68.8 4.2 C 68.8 4.2 68.63 4.18 68.6 4.2 C 68.5 4.2 68.4 4.2 68.3 4.4 C 68.29 4.39 66.5 9 66.5 9 L 64.7 9 C 64.7 9 62.98 4.39 63 4.4 Z M 72.5 2.7 C 74.4 2.7 75.9 4.1 75.9 5.9 C 75.9 7.8 74.4 9.1 72.5 9.1 C 70.7 9.1 69.2 7.8 69.2 5.9 C 69.2 4.1 70.7 2.7 72.5 2.7 Z M 72.5 7.8 C 73.5 7.8 74.3 7.1 74.3 5.9 C 74.3 4.8 73.5 4 72.5 4 C 71.5 4 70.7 4.8 70.7 5.9 C 70.7 7.1 71.5 7.8 72.5 7.8 Z M 80.1 4.4 C 80 4.2 79.9 4.2 79.7 4.2 C 79.72 4.18 79.6 4.2 79.6 4.2 L 79.6 2.9 C 79.6 2.9 80.46 2.88 80.5 2.9 C 81 2.9 81.2 3 81.4 3.5 C 81.4 3.5 82.5 6.7 82.5 6.7 C 82.64 7.03 82.7 7.5 82.7 7.5 L 82.8 7.5 C 82.8 7.5 82.86 7.03 83 6.7 C 83 6.7 84.1 3.5 84.1 3.5 C 84.3 3 84.5 2.9 85 2.9 C 85.03 2.88 85.8 2.9 85.8 2.9 L 85.8 4.2 C 85.8 4.2 85.7 4.18 85.7 4.2 C 85.5 4.2 85.4 4.2 85.4 4.4 C 85.37 4.39 83.6 9 83.6 9 L 81.8 9 C 81.8 9 80.05 4.39 80.1 4.4 Z M 89.4 2.7 C 91.1 2.7 92.1 4 92.1 5.6 C 92.06 5.82 92 6.2 92 6.2 C 92 6.2 87.8 6.2 87.8 6.2 C 87.9 7.3 88.7 7.8 89.6 7.8 C 90.62 7.85 91.4 7.2 91.4 7.2 L 92 8.2 C 92 8.2 91.06 9.14 89.5 9.1 C 87.5 9.1 86.2 7.7 86.2 5.9 C 86.2 4.1 87.5 2.7 89.4 2.7 Z M 90.5 5.1 C 90.5 4.4 90 3.9 89.4 3.9 C 88.6 3.9 88 4.4 87.9 5.1 C 87.9 5.1 90.5 5.1 90.5 5.1 Z M 93.5 2 C 93.5 1.9 93.4 1.8 93.2 1.8 C 93.24 1.78 92.8 1.8 92.8 1.8 L 92.8 0.5 C 92.8 0.5 94.21 0.48 94.2 0.5 C 94.8 0.5 95 0.7 95 1.3 C 95 1.3 95 7.5 95 7.5 C 95 7.6 95.1 7.7 95.3 7.7 C 95.29 7.72 95.8 7.7 95.8 7.7 L 95.8 9 C 95.8 9 94.32 9 94.3 9 C 93.7 9 93.5 8.8 93.5 8.2 C 93.5 8.2 93.5 2 93.5 2 Z M 96.8 0.5 C 96.8 0.7 96.9 0.9 96.9 1.1 C 96.9 1.5 96.8 1.8 96.6 2.2 C 96.6 2.2 95.5 2.2 95.5 2.2 C 95.7 1.8 95.8 1.5 95.8 1.2 C 95.8 1 95.7 0.8 95.6 0.5 C 95.6 0.5 96.8 0.5 96.8 0.5 Z M 98.2 2 C 98.2 1.9 98.1 1.8 97.9 1.8 C 97.92 1.78 97.4 1.8 97.4 1.8 L 97.4 0.5 C 97.4 0.5 98.89 0.48 98.9 0.5 C 99.5 0.5 99.7 0.6 99.7 1.2 C 99.71 1.18 99.7 5 99.7 5 C 99.7 5 100.16 5.04 100.2 5 C 100.4 5 100.6 5 100.7 4.8 C 100.74 4.81 102 2.9 102 2.9 L 103.7 2.9 C 103.7 2.9 102.13 5.18 102.1 5.2 C 101.87 5.57 101.7 5.7 101.7 5.7 L 101.7 5.7 C 101.7 5.7 101.89 5.77 102.1 6.2 C 102.1 6.2 102.8 7.5 102.8 7.5 C 102.9 7.7 103 7.7 103.3 7.7 C 103.31 7.72 103.7 7.7 103.7 7.7 L 103.7 9 C 103.7 9 102.59 9 102.6 9 C 102.1 9 101.9 8.9 101.6 8.5 C 101.6 8.5 100.6 6.6 100.6 6.6 C 100.5 6.3 100.2 6.3 100 6.3 C 100.04 6.32 99.7 6.3 99.7 6.3 L 99.7 9 L 98.2 9 C 98.2 9 98.18 2.04 98.2 2 Z M 107.5 2.7 C 109.4 2.7 110.9 4.1 110.9 5.9 C 110.9 7.8 109.4 9.1 107.5 9.1 C 105.6 9.1 104.2 7.8 104.2 5.9 C 104.2 4.1 105.6 2.7 107.5 2.7 Z M 107.5 7.8 C 108.5 7.8 109.3 7.1 109.3 5.9 C 109.3 4.8 108.5 4 107.5 4 C 106.5 4 105.7 4.8 105.7 5.9 C 105.7 7.1 106.5 7.8 107.5 7.8 Z M 112.2 4.4 C 112.2 4.3 112.2 4.2 112 4.2 C 111.98 4.18 111.5 4.2 111.5 4.2 L 111.5 2.9 C 111.5 2.9 112.91 2.88 112.9 2.9 C 113.4 2.9 113.7 3.1 113.7 3.6 C 113.7 3.6 113.7 3.7 113.7 3.7 C 113.7 3.9 113.7 4 113.7 4 C 113.7 4 113.7 4 113.7 4 C 114 3.4 114.7 2.7 115.7 2.7 C 116.6 2.7 117.2 3.2 117.5 4 C 117.5 4 117.5 4 117.5 4 C 117.8 3.3 118.6 2.7 119.6 2.7 C 120.9 2.7 121.6 3.5 121.6 5.1 C 121.6 5.1 121.6 7.5 121.6 7.5 C 121.6 7.6 121.7 7.7 121.9 7.7 C 121.87 7.72 122.3 7.7 122.3 7.7 L 122.3 9 C 122.3 9 120.9 9 120.9 9 C 120.3 9 120.1 8.8 120.1 8.2 C 120.1 8.2 120.1 5.4 120.1 5.4 C 120.1 4.7 120 4.1 119.2 4.1 C 118.5 4.1 117.9 4.8 117.8 5.5 C 117.7 5.8 117.7 6 117.7 6.3 C 117.68 6.31 117.7 9 117.7 9 L 116.2 9 C 116.2 9 116.16 5.35 116.2 5.4 C 116.2 4.7 116.1 4.1 115.3 4.1 C 114.6 4.1 114 4.8 113.9 5.5 C 113.8 5.8 113.8 6 113.8 6.3 C 113.76 6.31 113.8 9 113.8 9 L 112.2 9 C 112.2 9 112.25 4.44 112.2 4.4 Z M 126.7 4.4 C 126.7 4.3 126.6 4.2 126.5 4.2 C 126.48 4.18 126 4.2 126 4.2 L 126 2.9 C 126 2.9 127.4 2.88 127.4 2.9 C 127.9 2.9 128.2 3.1 128.2 3.6 C 128.2 3.6 128.2 3.7 128.2 3.7 C 128.2 3.9 128.2 4 128.2 4 C 128.2 4 128.2 4 128.2 4 C 128.5 3.4 129.2 2.7 130.2 2.7 C 131.1 2.7 131.7 3.2 132 4 C 132 4 132 4 132 4 C 132.3 3.3 133.1 2.7 134.1 2.7 C 135.4 2.7 136.1 3.5 136.1 5.1 C 136.1 5.1 136.1 7.5 136.1 7.5 C 136.1 7.6 136.2 7.7 136.4 7.7 C 136.37 7.72 136.8 7.7 136.8 7.7 L 136.8 9 C 136.8 9 135.39 9 135.4 9 C 134.8 9 134.6 8.8 134.6 8.2 C 134.6 8.2 134.6 5.4 134.6 5.4 C 134.6 4.7 134.4 4.1 133.7 4.1 C 133 4.1 132.4 4.8 132.3 5.5 C 132.2 5.8 132.2 6 132.2 6.3 C 132.18 6.31 132.2 9 132.2 9 L 130.7 9 C 130.7 9 130.66 5.35 130.7 5.4 C 130.7 4.7 130.6 4.1 129.8 4.1 C 129.1 4.1 128.5 4.8 128.4 5.5 C 128.3 5.8 128.3 6 128.3 6.3 C 128.25 6.31 128.3 9 128.3 9 L 126.7 9 C 126.7 9 126.74 4.44 126.7 4.4 Z M 138.1 4.4 C 138.1 4.3 138 4.2 137.8 4.2 C 137.8 4.18 137.3 4.2 137.3 4.2 L 137.3 2.9 C 137.3 2.9 138.72 2.88 138.7 2.9 C 139.3 2.9 139.5 3.1 139.5 3.6 C 139.5 3.6 139.5 3.7 139.5 3.7 C 139.5 3.9 139.5 4 139.5 4 C 139.5 4 139.5 4 139.5 4 C 139.8 3.5 140.4 2.7 141.7 2.7 C 143 2.7 143.8 3.4 143.8 5.1 C 143.8 5.1 143.8 7.5 143.8 7.5 C 143.8 7.6 143.9 7.7 144.1 7.7 C 144.08 7.72 144.6 7.7 144.6 7.7 L 144.6 9 C 144.6 9 143.11 9 143.1 9 C 142.5 9 142.3 8.8 142.3 8.2 C 142.3 8.2 142.3 5.4 142.3 5.4 C 142.3 4.6 142.1 4.1 141.3 4.1 C 140.5 4.1 139.9 4.6 139.7 5.4 C 139.6 5.6 139.6 5.9 139.6 6.2 C 139.57 6.19 139.6 9 139.6 9 L 138.1 9 C 138.1 9 138.06 4.44 138.1 4.4 Z M 148.5 2.7 C 150.4 2.7 151.9 4.1 151.9 5.9 C 151.9 7.8 150.4 9.1 148.5 9.1 C 146.7 9.1 145.2 7.8 145.2 5.9 C 145.2 4.1 146.7 2.7 148.5 2.7 Z M 148.5 7.8 C 149.5 7.8 150.3 7.1 150.3 5.9 C 150.3 4.8 149.5 4 148.5 4 C 147.5 4 146.7 4.8 146.7 5.9 C 146.7 7.1 147.5 7.8 148.5 7.8 Z M 152.5 8.2 C 152.5 8.2 155.28 4.74 155.3 4.7 C 155.55 4.39 155.8 4.2 155.8 4.2 L 155.8 4.2 C 155.8 4.2 155.61 4.18 155.2 4.2 C 155.2 4.2 154.1 4.2 154.1 4.2 C 154 4.2 153.9 4.3 153.9 4.4 C 153.86 4.44 153.9 4.8 153.9 4.8 L 152.5 4.8 C 152.5 4.8 152.48 3.7 152.5 3.7 C 152.5 3.1 152.7 2.9 153.3 2.9 C 153.3 2.88 157.8 2.9 157.8 2.9 L 157.8 3.7 C 157.8 3.7 154.97 7.15 155 7.2 C 154.69 7.49 154.5 7.7 154.5 7.7 L 154.5 7.7 C 154.5 7.7 154.63 7.7 155 7.7 C 155 7.7 156.4 7.7 156.4 7.7 C 156.5 7.7 156.6 7.6 156.6 7.4 C 156.64 7.44 156.6 7.1 156.6 7.1 L 158 7.1 C 158 7.1 158.01 8.18 158 8.2 C 158 8.8 157.8 9 157.2 9 C 157.21 9 152.5 9 152.5 9 L 152.5 8.2 Z M 153.5 0.5 L 154.7 0.5 L 155.3 1.5 L 155.3 1.5 L 155.9 0.5 L 157 0.5 L 155.9 2.1 L 154.6 2.1 L 153.5 0.5 Z M 159.3 7.1 C 159.3 7.1 160.07 7.96 161.1 8 C 161.6 8 161.9 7.8 161.9 7.4 C 161.9 6.5 158.7 6.5 158.7 4.5 C 158.7 3.3 159.8 2.7 161.1 2.7 C 161.9 2.7 163.2 3 163.2 4 C 163.23 4.01 163.2 4.6 163.2 4.6 L 161.9 4.6 C 161.9 4.6 161.89 4.34 161.9 4.3 C 161.9 4.1 161.5 3.9 161.1 3.9 C 160.6 3.9 160.2 4.1 160.2 4.5 C 160.2 5.4 163.5 5.2 163.5 7.3 C 163.5 8.4 162.4 9.1 161.1 9.1 C 159.43 9.14 158.6 8.1 158.6 8.1 L 159.3 7.1 Z M 164.9 4.1 L 164.1 4.1 L 164.1 2.9 L 164.9 2.9 L 164.9 1.2 L 166.4 1.2 L 166.4 2.9 L 167.8 2.9 L 167.8 4.1 L 166.4 4.1 C 166.4 4.1 166.43 6.56 166.4 6.6 C 166.4 7.6 167.2 7.7 167.6 7.7 C 167.81 7.72 167.9 7.7 167.9 7.7 L 167.9 9 C 167.9 9 167.72 9.06 167.4 9.1 C 166.6 9.1 164.9 8.8 164.9 6.8 C 164.9 6.76 164.9 4.1 164.9 4.1 Z M 168.8 4.4 C 168.8 4.2 168.6 4.2 168.5 4.2 C 168.48 4.18 168.3 4.2 168.3 4.2 L 168.3 2.9 C 168.3 2.9 169.22 2.88 169.2 2.9 C 169.7 2.9 170 3 170.1 3.5 C 170.1 3.5 171.3 6.7 171.3 6.7 C 171.41 7.03 171.5 7.5 171.5 7.5 L 171.5 7.5 C 171.5 7.5 171.62 7.03 171.7 6.7 C 171.7 6.7 172.9 3.5 172.9 3.5 C 173 3 173.3 2.9 173.8 2.9 C 173.79 2.88 174.6 2.9 174.6 2.9 L 174.6 4.2 C 174.6 4.2 174.47 4.18 174.5 4.2 C 174.3 4.2 174.2 4.2 174.1 4.4 C 174.13 4.39 172.4 9 172.4 9 L 170.6 9 C 170.6 9 168.81 4.39 168.8 4.4 Z M 178.1 2.7 C 179.9 2.7 180.8 4 180.8 5.6 C 180.83 5.82 180.8 6.2 180.8 6.2 C 180.8 6.2 176.57 6.2 176.6 6.2 C 176.7 7.3 177.5 7.8 178.4 7.8 C 179.39 7.85 180.1 7.2 180.1 7.2 L 180.8 8.2 C 180.8 8.2 179.82 9.14 178.3 9.1 C 176.3 9.1 175 7.7 175 5.9 C 175 4.1 176.3 2.7 178.1 2.7 Z M 179.3 5.1 C 179.2 4.4 178.7 3.9 178.1 3.9 C 177.3 3.9 176.8 4.4 176.6 5.1 C 176.6 5.1 179.3 5.1 179.3 5.1 Z M 185.5 4.4 C 185.5 4.3 185.4 4.2 185.2 4.2 C 185.22 4.18 184.7 4.2 184.7 4.2 L 184.7 2.9 C 184.7 2.9 186.09 2.88 186.1 2.9 C 186.7 2.9 186.9 3.1 186.9 3.5 C 186.9 3.6 186.9 3.7 186.9 3.7 C 186.86 3.71 186.9 3.7 186.9 3.7 C 186.9 3.7 187.4 2.74 188.8 2.7 C 190.5 2.7 191.6 4 191.6 5.9 C 191.6 7.9 190.4 9.1 188.7 9.1 C 187.53 9.14 187 8.3 187 8.3 L 187 8.3 C 187 8.3 186.99 8.56 187 8.9 C 186.99 8.87 187 11.4 187 11.4 L 185.5 11.4 C 185.5 11.4 185.48 4.44 185.5 4.4 Z M 188.5 7.9 C 189.3 7.9 190 7.2 190 6 C 190 4.8 189.4 4 188.5 4 C 187.7 4 187 4.6 187 6 C 187 6.9 187.5 7.9 188.5 7.9 Z M 195.7 2.7 C 197.5 2.7 199 4.1 199 5.9 C 199 7.8 197.5 9.1 195.7 9.1 C 193.8 9.1 192.3 7.8 192.3 5.9 C 192.3 4.1 193.8 2.7 195.7 2.7 Z M 195.7 7.8 C 196.7 7.8 197.5 7.1 197.5 5.9 C 197.5 4.8 196.7 4 195.7 4 C 194.7 4 193.9 4.8 193.9 5.9 C 193.9 7.1 194.7 7.8 195.7 7.8 Z M 203.1 2.7 C 203.9 2.7 205.4 3.1 205.4 4.1 C 205.37 4.12 205.4 4.8 205.4 4.8 L 204 4.8 C 204 4.8 204.02 4.5 204 4.5 C 204 4.2 203.5 4 203.1 4 C 202.1 4 201.3 4.8 201.3 5.9 C 201.3 7.2 202.3 7.8 203.2 7.8 C 204.29 7.81 205.1 7 205.1 7 L 205.7 8 C 205.7 8 204.78 9.14 203.1 9.1 C 201.1 9.1 199.8 7.7 199.8 5.9 C 199.8 4.2 201 2.7 203.1 2.7 Z M 201.2 0.5 L 202.3 0.5 L 202.9 1.5 L 202.9 1.5 L 203.5 0.5 L 204.7 0.5 L 203.6 2.1 L 202.3 2.1 L 201.2 0.5 Z M 209.9 5.2 C 209.9 5.16 210.1 5.2 210.1 5.2 C 210.1 5.2 210.09 5.11 210.1 5.1 C 210.1 4.2 209.7 3.9 209 3.9 C 208.7 3.9 208.1 4 208.1 4.3 C 208.15 4.32 208.1 4.6 208.1 4.6 L 206.7 4.6 C 206.7 4.6 206.73 4 206.7 4 C 206.7 2.9 208.3 2.7 209 2.7 C 211 2.7 211.6 3.8 211.6 5.2 C 211.6 5.2 211.6 7.5 211.6 7.5 C 211.6 7.6 211.7 7.7 211.9 7.7 C 211.88 7.72 212.4 7.7 212.4 7.7 L 212.4 9 C 212.4 9 210.99 9 211 9 C 210.4 9 210.2 8.7 210.2 8.3 C 210.2 8.2 210.2 8.1 210.2 8.1 C 210.23 8.06 210.2 8.1 210.2 8.1 C 210.2 8.1 209.73 9.14 208.4 9.1 C 207.3 9.1 206.3 8.5 206.3 7.2 C 206.3 5.3 208.9 5.2 209.9 5.2 Z M 208.7 8 C 209.5 8 210.1 7.1 210.1 6.3 C 210.12 6.35 210.1 6.2 210.1 6.2 C 210.1 6.2 209.85 6.2 209.9 6.2 C 209.1 6.2 207.8 6.3 207.8 7.2 C 207.8 7.6 208.1 8 208.7 8 Z M 213.6 7.1 C 213.6 7.1 214.39 7.96 215.4 8 C 215.9 8 216.3 7.8 216.3 7.4 C 216.3 6.5 213 6.5 213 4.5 C 213 3.3 214.1 2.7 215.4 2.7 C 216.2 2.7 217.6 3 217.6 4 C 217.56 4.01 217.6 4.6 217.6 4.6 L 216.2 4.6 C 216.2 4.6 216.21 4.34 216.2 4.3 C 216.2 4.1 215.8 3.9 215.4 3.9 C 214.9 3.9 214.5 4.1 214.5 4.5 C 214.5 5.4 217.8 5.2 217.8 7.3 C 217.8 8.4 216.8 9.1 215.4 9.1 C 213.75 9.14 212.9 8.1 212.9 8.1 L 213.6 7.1 Z M 222.4 4.1 L 221.6 4.1 L 221.6 2.9 L 222.4 2.9 L 222.4 1.2 L 223.9 1.2 L 223.9 2.9 L 225.3 2.9 L 225.3 4.1 L 223.9 4.1 C 223.9 4.1 223.93 6.56 223.9 6.6 C 223.9 7.6 224.7 7.7 225.1 7.7 C 225.31 7.72 225.4 7.7 225.4 7.7 L 225.4 9 C 225.4 9 225.22 9.06 224.9 9.1 C 224.1 9.1 222.4 8.8 222.4 6.8 C 222.41 6.76 222.4 4.1 222.4 4.1 Z M 229.2 2.7 C 231 2.7 231.9 4 231.9 5.6 C 231.93 5.82 231.9 6.2 231.9 6.2 C 231.9 6.2 227.67 6.2 227.7 6.2 C 227.8 7.3 228.6 7.8 229.5 7.8 C 230.49 7.85 231.2 7.2 231.2 7.2 L 231.9 8.2 C 231.9 8.2 230.93 9.14 229.4 9.1 C 227.4 9.1 226.1 7.7 226.1 5.9 C 226.1 4.1 227.4 2.7 229.2 2.7 Z M 230.4 5.1 C 230.4 4.4 229.8 3.9 229.2 3.9 C 228.4 3.9 227.9 4.4 227.7 5.1 C 227.7 5.1 230.4 5.1 230.4 5.1 Z M 233.4 2 C 233.4 1.9 233.3 1.8 233.1 1.8 C 233.1 1.78 232.6 1.8 232.6 1.8 L 232.6 0.5 C 232.6 0.5 234.07 0.48 234.1 0.5 C 234.6 0.5 234.9 0.7 234.9 1.3 C 234.9 1.3 234.9 3.4 234.9 3.4 C 234.88 3.73 234.9 3.9 234.9 3.9 C 234.9 3.9 234.88 3.95 234.9 3.9 C 235.2 3.4 235.9 2.7 237 2.7 C 238.4 2.7 239.1 3.4 239.1 5.1 C 239.1 5.1 239.1 7.5 239.1 7.5 C 239.1 7.6 239.2 7.7 239.4 7.7 C 239.38 7.72 239.9 7.7 239.9 7.7 L 239.9 9 C 239.9 9 238.41 9 238.4 9 C 237.9 9 237.6 8.8 237.6 8.2 C 237.6 8.2 237.6 5.4 237.6 5.4 C 237.6 4.6 237.4 4.1 236.6 4.1 C 235.8 4.1 235.2 4.7 235 5.4 C 234.9 5.6 234.9 5.9 234.9 6.2 C 234.88 6.19 234.9 9 234.9 9 L 233.4 9 C 233.4 9 233.36 2.04 233.4 2 Z M 243.8 2.7 C 245.7 2.7 247.2 4.1 247.2 5.9 C 247.2 7.8 245.7 9.1 243.8 9.1 C 242 9.1 240.5 7.8 240.5 5.9 C 240.5 4.1 242 2.7 243.8 2.7 Z M 243.8 7.8 C 244.8 7.8 245.7 7.1 245.7 5.9 C 245.7 4.8 244.8 4 243.8 4 C 242.8 4 242 4.8 242 5.9 C 242 7.1 242.8 7.8 243.8 7.8 Z M 248.6 4.1 L 247.8 4.1 L 247.8 2.9 L 248.6 2.9 L 248.6 1.2 L 250.1 1.2 L 250.1 2.9 L 251.5 2.9 L 251.5 4.1 L 250.1 4.1 C 250.1 4.1 250.11 6.56 250.1 6.6 C 250.1 7.6 250.9 7.7 251.3 7.7 C 251.49 7.72 251.6 7.7 251.6 7.7 L 251.6 9 C 251.6 9 251.41 9.06 251.1 9.1 C 250.3 9.1 248.6 8.8 248.6 6.8 C 248.59 6.76 248.6 4.1 248.6 4.1 Z M 255.4 2.7 C 257.2 2.7 258.1 4 258.1 5.6 C 258.12 5.82 258.1 6.2 258.1 6.2 C 258.1 6.2 253.86 6.2 253.9 6.2 C 254 7.3 254.8 7.8 255.7 7.8 C 256.68 7.85 257.4 7.2 257.4 7.2 L 258 8.2 C 258 8.2 257.11 9.14 255.6 9.1 C 253.6 9.1 252.3 7.7 252.3 5.9 C 252.3 4.1 253.6 2.7 255.4 2.7 Z M 256.6 5.1 C 256.5 4.4 256 3.9 255.4 3.9 C 254.6 3.9 254.1 4.4 253.9 5.1 C 253.9 5.1 256.6 5.1 256.6 5.1 Z M 259.6 4.4 C 259.6 4.3 259.5 4.2 259.3 4.2 C 259.33 4.18 258.9 4.2 258.9 4.2 L 258.9 2.9 C 258.9 2.9 260.25 2.88 260.3 2.9 C 260.8 2.9 261.1 3.1 261.1 3.6 C 261.1 3.6 261.1 3.7 261.1 3.7 C 261.1 3.9 261 4 261 4 C 261 4 261.1 4 261.1 4 C 261.3 3.5 262 2.7 263.2 2.7 C 264.6 2.7 265.4 3.4 265.4 5.1 C 265.4 5.1 265.4 7.5 265.4 7.5 C 265.4 7.6 265.4 7.7 265.6 7.7 C 265.62 7.72 266.1 7.7 266.1 7.7 L 266.1 9 C 266.1 9 264.65 9 264.6 9 C 264.1 9 263.8 8.8 263.8 8.2 C 263.8 8.2 263.8 5.4 263.8 5.4 C 263.8 4.6 263.6 4.1 262.9 4.1 C 262.1 4.1 261.4 4.6 261.2 5.4 C 261.1 5.6 261.1 5.9 261.1 6.2 C 261.1 6.19 261.1 9 261.1 9 L 259.6 9 C 259.6 9 259.59 4.44 259.6 4.4 Z M 267.3 7.1 C 267.3 7.1 268.11 7.96 269.2 8 C 269.6 8 270 7.8 270 7.4 C 270 6.5 266.8 6.5 266.8 4.5 C 266.8 3.3 267.9 2.7 269.1 2.7 C 270 2.7 271.3 3 271.3 4 C 271.28 4.01 271.3 4.6 271.3 4.6 L 269.9 4.6 C 269.9 4.6 269.94 4.34 269.9 4.3 C 269.9 4.1 269.5 3.9 269.2 3.9 C 268.6 3.9 268.3 4.1 268.3 4.5 C 268.3 5.4 271.5 5.2 271.5 7.3 C 271.5 8.4 270.5 9.1 269.2 9.1 C 267.48 9.14 266.6 8.1 266.6 8.1 L 267.3 7.1 Z M 272.9 4.1 L 272.2 4.1 L 272.2 2.9 L 273 2.9 L 273 1.2 L 274.5 1.2 L 274.5 2.9 L 275.9 2.9 L 275.9 4.1 L 274.5 4.1 C 274.5 4.1 274.47 6.56 274.5 6.6 C 274.5 7.6 275.3 7.7 275.7 7.7 C 275.85 7.72 276 7.7 276 7.7 L 276 9 C 276 9 275.77 9.06 275.5 9.1 C 274.6 9.1 272.9 8.8 272.9 6.8 C 272.95 6.76 272.9 4.1 272.9 4.1 Z M 276.9 4.4 C 276.8 4.2 276.7 4.2 276.5 4.2 C 276.53 4.18 276.4 4.2 276.4 4.2 L 276.4 2.9 C 276.4 2.9 277.27 2.88 277.3 2.9 C 277.8 2.9 278 3 278.2 3.5 C 278.2 3.5 279.3 6.7 279.3 6.7 C 279.45 7.03 279.5 7.5 279.5 7.5 L 279.6 7.5 C 279.6 7.5 279.67 7.03 279.8 6.7 C 279.8 6.7 280.9 3.5 280.9 3.5 C 281.1 3 281.3 2.9 281.8 2.9 C 281.84 2.88 282.7 2.9 282.7 2.9 L 282.7 4.2 C 282.7 4.2 282.51 4.18 282.5 4.2 C 282.3 4.2 282.2 4.2 282.2 4.4 C 282.18 4.39 280.4 9 280.4 9 L 278.6 9 C 278.6 9 276.86 4.39 276.9 4.4 Z M 286.8 5.2 C 286.76 5.16 287 5.2 287 5.2 C 287 5.2 286.95 5.11 287 5.1 C 287 4.2 286.6 3.9 285.8 3.9 C 285.5 3.9 285 4 285 4.3 C 285.01 4.32 285 4.6 285 4.6 L 283.6 4.6 C 283.6 4.6 283.59 4 283.6 4 C 283.6 2.9 285.2 2.7 285.8 2.7 C 287.9 2.7 288.5 3.8 288.5 5.2 C 288.5 5.2 288.5 7.5 288.5 7.5 C 288.5 7.6 288.6 7.7 288.7 7.7 C 288.74 7.72 289.2 7.7 289.2 7.7 L 289.2 9 C 289.2 9 287.85 9 287.9 9 C 287.3 9 287.1 8.7 287.1 8.3 C 287.1 8.2 287.1 8.1 287.1 8.1 C 287.09 8.06 287.1 8.1 287.1 8.1 C 287.1 8.1 286.59 9.14 285.2 9.1 C 284.1 9.1 283.1 8.5 283.1 7.2 C 283.1 5.3 285.8 5.2 286.8 5.2 Z M 285.6 8 C 286.4 8 287 7.1 287 6.3 C 286.98 6.35 287 6.2 287 6.2 C 287 6.2 286.71 6.2 286.7 6.2 C 285.9 6.2 284.7 6.3 284.7 7.2 C 284.7 7.6 285 8 285.6 8 Z " stroke="none" fill="#5f0f50"/>  </g></svg>