<?xml version="1.0" standalone="no"?><!DOCTYPE svg PUBLIC "-//W3C//DTD SVG 1.1//EN" "http://www.w3.org/Graphics/SVG/1.1/DTD/svg11.dtd"><svg xmlns="http://www.w3.org/2000/svg" version="1.1" width="44px" height="19.5px" viewBox="0 -1 44 19.5" style="top:-1px">  <desc>46.3%</desc>  <defs/>  <g id="Polygon79799">    <path d="M 0.2 10 L 0.2 9.9 L 3 4 L 3.1 4 L 3.9 4.1 L 3.9 4.2 L 1.2 9.7 L 1.2 9.7 L 3.8 9.7 L 4.1 6.8 L 4.7 6.8 L 4.7 9.7 L 5.7 9.7 L 5.7 10.5 L 4.7 10.5 L 4.7 12.5 L 3.8 12.5 L 3.8 10.5 L 0.4 10.5 L 0.2 10 Z M 9.2 12.6 C 8.3 12.6 7.7 12.3 7.2 11.6 C 6.8 11 6.5 10 6.5 8.8 C 6.5 8 6.6 7.3 6.8 6.7 C 6.9 6.1 7.1 5.6 7.4 5.2 C 7.7 4.8 8.1 4.5 8.5 4.3 C 8.9 4.1 9.4 4 9.9 4 C 10.1 4 10.3 4 10.6 4 C 10.8 4 11 4.1 11.2 4.2 C 11.2 4.2 11.2 4.9 11.2 4.9 C 10.9 4.8 10.7 4.8 10.5 4.8 C 10.3 4.7 10.1 4.7 9.9 4.7 C 9.2 4.7 8.6 5 8.2 5.6 C 7.8 6.2 7.5 7 7.4 8.1 C 7.7 7.9 8 7.7 8.3 7.5 C 8.7 7.4 9 7.3 9.4 7.3 C 9.7 7.3 10 7.4 10.3 7.5 C 10.6 7.6 10.9 7.8 11.1 8 C 11.3 8.2 11.4 8.5 11.6 8.8 C 11.7 9.1 11.7 9.4 11.7 9.8 C 11.7 10.2 11.7 10.6 11.5 10.9 C 11.4 11.3 11.3 11.6 11 11.8 C 10.8 12.1 10.6 12.3 10.2 12.4 C 9.9 12.5 9.6 12.6 9.2 12.6 Z M 9.2 8 C 8.9 8 8.6 8.1 8.3 8.3 C 7.9 8.4 7.7 8.6 7.4 8.9 C 7.4 9.9 7.6 10.6 7.9 11.1 C 8.2 11.6 8.6 11.8 9.2 11.8 C 9.7 11.8 10.1 11.7 10.4 11.3 C 10.7 10.9 10.8 10.4 10.8 9.8 C 10.8 9.2 10.7 8.8 10.4 8.5 C 10.1 8.2 9.7 8 9.2 8 Z M 13.9 11.9 C 13.9 12.3 13.7 12.5 13.3 12.5 C 12.9 12.5 12.7 12.3 12.7 11.9 C 12.7 11.6 12.9 11.4 13.3 11.4 C 13.5 11.4 13.7 11.4 13.8 11.5 C 13.9 11.6 13.9 11.7 13.9 11.9 C 13.9 11.9 13.9 11.9 13.9 11.9 Z M 16.5 12.6 C 16 12.6 15.5 12.5 15.1 12.4 C 15.09 12.42 15.1 11.7 15.1 11.7 C 15.1 11.7 15.15 11.69 15.2 11.7 C 15.3 11.7 15.5 11.8 15.7 11.8 C 16 11.8 16.2 11.8 16.4 11.8 C 17 11.8 17.4 11.7 17.8 11.4 C 18.1 11.1 18.2 10.7 18.2 10.2 C 18.2 9.7 18.1 9.2 17.7 8.9 C 17.4 8.7 16.9 8.5 16.2 8.5 C 16.21 8.52 15.8 8.5 15.8 8.5 L 15.8 7.8 C 15.8 7.8 16.2 7.8 16.2 7.8 C 16.8 7.8 17.2 7.7 17.5 7.4 C 17.8 7.1 18 6.8 18 6.2 C 18 5.2 17.5 4.7 16.4 4.7 C 16.3 4.7 16.1 4.7 15.9 4.8 C 15.7 4.8 15.4 4.8 15.2 4.9 C 15.19 4.87 15.1 4.9 15.1 4.9 C 15.1 4.9 15.05 4.15 15.1 4.2 C 15.3 4.1 15.5 4 15.8 4 C 16 4 16.3 4 16.5 4 C 17.3 4 17.9 4.2 18.3 4.5 C 18.7 4.9 18.9 5.4 18.9 6.1 C 18.9 6.6 18.8 7.1 18.6 7.4 C 18.3 7.7 18 8 17.6 8.1 C 17.6 8.1 17.6 8.2 17.6 8.2 C 18.1 8.3 18.5 8.5 18.7 8.9 C 19 9.2 19.1 9.7 19.1 10.3 C 19.1 11 18.9 11.6 18.4 12 C 18 12.4 17.3 12.6 16.5 12.6 Z M 21.9 9.3 C 21.3 9.3 20.8 9.1 20.5 8.6 C 20.2 8.2 20.1 7.5 20.1 6.6 C 20.1 5.8 20.2 5.1 20.5 4.6 C 20.9 4.2 21.3 4 21.9 4 C 22.5 4 23 4.2 23.3 4.6 C 23.6 5.1 23.7 5.8 23.7 6.6 C 23.7 7.5 23.6 8.2 23.3 8.6 C 23 9.1 22.5 9.3 21.9 9.3 Z M 20.8 6.6 C 20.8 8 21.2 8.6 21.9 8.6 C 22.6 8.6 23 8 23 6.6 C 23 5.3 22.6 4.6 21.9 4.6 C 21.2 4.6 20.8 5.3 20.8 6.6 C 20.8 6.6 20.8 6.6 20.8 6.6 Z M 27.2 12.6 C 26.6 12.6 26.1 12.4 25.8 11.9 C 25.5 11.5 25.3 10.8 25.3 10 C 25.3 9.1 25.5 8.4 25.8 8 C 26.1 7.5 26.6 7.3 27.2 7.3 C 27.8 7.3 28.2 7.5 28.6 8 C 28.9 8.4 29 9.1 29 10 C 29 10.8 28.9 11.5 28.6 11.9 C 28.2 12.4 27.8 12.6 27.2 12.6 Z M 26.1 10 C 26.1 11.3 26.4 12 27.2 12 C 27.9 12 28.3 11.3 28.3 10 C 28.3 8.6 27.9 8 27.2 8 C 26.4 8 26.1 8.6 26.1 10 C 26.1 10 26.1 10 26.1 10 Z M 25.8 4.1 L 26.5 4.1 L 23.3 12.5 L 22.5 12.5 L 25.8 4.1 Z " stroke="none" fill="#ee3078"/>  </g></svg>