<?xml version="1.0" standalone="no"?><!DOCTYPE svg PUBLIC "-//W3C//DTD SVG 1.1//EN" "http://www.w3.org/Graphics/SVG/1.1/DTD/svg11.dtd"><svg xmlns="http://www.w3.org/2000/svg" version="1.1" width="113.4px" height="84px" viewBox="0 -1 113.4 84" style="top:-1px">  <desc>Hmotnostn stabilita</desc>  <defs/>  <g id="Polygon73984">    <path d="M 27.4 51.8 C 27.4 51.8 28.46 53.04 29.9 53 C 30.5 53 31 52.8 31 52.2 C 31 51.1 26.7 51.1 26.7 48.5 C 26.7 46.8 28.1 46.1 29.8 46.1 C 30.9 46.1 32.7 46.5 32.7 47.8 C 32.69 47.78 32.7 48.6 32.7 48.6 L 30.9 48.6 C 30.9 48.6 30.89 48.23 30.9 48.2 C 30.9 47.8 30.3 47.7 29.9 47.7 C 29.1 47.7 28.7 47.9 28.7 48.4 C 28.7 49.7 33 49.4 33 52.1 C 33 53.7 31.6 54.6 29.9 54.6 C 27.61 54.63 26.5 53.2 26.5 53.2 L 27.4 51.8 Z M 34.9 47.9 L 33.9 47.9 L 33.9 46.3 L 35 46.3 L 35 44.1 L 36.9 44.1 L 36.9 46.3 L 38.8 46.3 L 38.8 47.9 L 36.9 47.9 C 36.9 47.9 36.94 51.19 36.9 51.2 C 36.9 52.5 38 52.7 38.6 52.7 C 38.78 52.72 38.9 52.7 38.9 52.7 L 38.9 54.5 C 38.9 54.5 38.67 54.51 38.3 54.5 C 37.2 54.5 34.9 54.2 34.9 51.4 C 34.91 51.44 34.9 47.9 34.9 47.9 Z M 44.8 49.3 C 44.8 49.31 45.1 49.3 45.1 49.3 C 45.1 49.3 45.05 49.25 45.1 49.3 C 45.1 48.1 44.6 47.7 43.5 47.7 C 43.2 47.7 42.5 47.7 42.5 48.2 C 42.46 48.19 42.5 48.6 42.5 48.6 L 40.6 48.6 C 40.6 48.6 40.57 47.76 40.6 47.8 C 40.6 46.2 42.7 46.1 43.6 46.1 C 46.3 46.1 47.1 47.5 47.1 49.3 C 47.1 49.3 47.1 52.4 47.1 52.4 C 47.1 52.6 47.2 52.7 47.4 52.7 C 47.44 52.72 48.1 52.7 48.1 52.7 L 48.1 54.4 C 48.1 54.4 46.25 54.43 46.3 54.4 C 45.5 54.4 45.2 54 45.2 53.5 C 45.21 53.33 45.2 53.2 45.2 53.2 L 45.2 53.2 C 45.2 53.2 44.57 54.63 42.7 54.6 C 41.3 54.6 39.9 53.7 39.9 52.1 C 39.9 49.5 43.5 49.3 44.8 49.3 Z M 43.2 53 C 44.3 53 45.1 51.9 45.1 50.9 C 45.09 50.9 45.1 50.7 45.1 50.7 C 45.1 50.7 44.73 50.71 44.7 50.7 C 43.7 50.7 42 50.9 42 52 C 42 52.5 42.4 53 43.2 53 Z M 49.6 45.2 C 49.6 44.9 49.5 44.8 49.3 44.8 C 49.29 44.8 48.7 44.8 48.7 44.8 L 48.7 43.1 C 48.7 43.1 50.59 43.07 50.6 43.1 C 51.3 43.1 51.7 43.4 51.7 44.2 C 51.7 44.2 51.7 46.5 51.7 46.5 C 51.68 46.93 51.6 47.2 51.6 47.2 L 51.7 47.2 C 51.7 47.2 52.4 46.08 54.1 46.1 C 56.3 46.1 57.7 47.8 57.7 50.4 C 57.7 52.9 56.2 54.6 54 54.6 C 52.3 54.63 51.6 53.5 51.6 53.5 L 51.5 53.5 C 51.5 53.5 51.57 53.7 51.6 54 C 51.57 54.02 51.6 54.4 51.6 54.4 L 49.6 54.4 C 49.6 54.4 49.65 45.15 49.6 45.2 Z M 53.6 52.9 C 54.7 52.9 55.7 52 55.7 50.4 C 55.7 48.8 54.9 47.8 53.7 47.8 C 52.6 47.8 51.6 48.6 51.6 50.4 C 51.6 51.7 52.3 52.9 53.6 52.9 Z M 59.8 43.1 L 61.5 43.1 L 61.5 44.9 L 59.8 44.9 L 59.8 43.1 Z M 59.7 48.4 C 59.7 48.1 59.5 48 59.3 48 C 59.31 48 58.7 48 58.7 48 L 58.7 46.3 C 58.7 46.3 60.6 46.27 60.6 46.3 C 61.4 46.3 61.7 46.6 61.7 47.4 C 61.7 47.4 61.7 52.4 61.7 52.4 C 61.7 52.6 61.8 52.7 62 52.7 C 62.03 52.72 62.7 52.7 62.7 52.7 L 62.7 54.4 C 62.7 54.4 60.73 54.43 60.7 54.4 C 60 54.4 59.7 54.1 59.7 53.3 C 59.7 53.3 59.7 48.4 59.7 48.4 Z M 64.3 45.2 C 64.3 44.9 64.2 44.8 64 44.8 C 63.98 44.8 63.3 44.8 63.3 44.8 L 63.3 43.1 C 63.3 43.1 65.28 43.07 65.3 43.1 C 66 43.1 66.4 43.4 66.4 44.2 C 66.4 44.2 66.4 52.4 66.4 52.4 C 66.4 52.6 66.5 52.7 66.7 52.7 C 66.72 52.72 67.3 52.7 67.3 52.7 L 67.3 54.4 C 67.3 54.4 65.42 54.43 65.4 54.4 C 64.7 54.4 64.3 54.1 64.3 53.3 C 64.3 53.3 64.3 45.2 64.3 45.2 Z M 69.2 43.1 L 71 43.1 L 71 44.9 L 69.2 44.9 L 69.2 43.1 Z M 69.1 48.4 C 69.1 48.1 69 48 68.7 48 C 68.75 48 68.1 48 68.1 48 L 68.1 46.3 C 68.1 46.3 70.04 46.27 70 46.3 C 70.8 46.3 71.1 46.6 71.1 47.4 C 71.1 47.4 71.1 52.4 71.1 52.4 C 71.1 52.6 71.2 52.7 71.5 52.7 C 71.47 52.72 72.1 52.7 72.1 52.7 L 72.1 54.4 C 72.1 54.4 70.17 54.43 70.2 54.4 C 69.4 54.4 69.1 54.1 69.1 53.3 C 69.1 53.3 69.1 48.4 69.1 48.4 Z M 73.9 47.9 L 72.8 47.9 L 72.8 46.3 L 73.9 46.3 L 73.9 44.1 L 75.9 44.1 L 75.9 46.3 L 77.7 46.3 L 77.7 47.9 L 75.9 47.9 C 75.9 47.9 75.88 51.19 75.9 51.2 C 75.9 52.5 76.9 52.7 77.5 52.7 C 77.72 52.72 77.9 52.7 77.9 52.7 L 77.9 54.5 C 77.9 54.5 77.61 54.51 77.2 54.5 C 76.1 54.5 73.9 54.2 73.9 51.4 C 73.85 51.44 73.9 47.9 73.9 47.9 Z M 83.7 49.3 C 83.74 49.31 84 49.3 84 49.3 C 84 49.3 84 49.25 84 49.3 C 84 48.1 83.5 47.7 82.5 47.7 C 82.1 47.7 81.4 47.7 81.4 48.2 C 81.4 48.19 81.4 48.6 81.4 48.6 L 79.5 48.6 C 79.5 48.6 79.52 47.76 79.5 47.8 C 79.5 46.2 81.7 46.1 82.5 46.1 C 85.2 46.1 86 47.5 86 49.3 C 86 49.3 86 52.4 86 52.4 C 86 52.6 86.2 52.7 86.4 52.7 C 86.38 52.72 87 52.7 87 52.7 L 87 54.4 C 87 54.4 85.2 54.43 85.2 54.4 C 84.4 54.4 84.2 54 84.2 53.5 C 84.16 53.33 84.2 53.2 84.2 53.2 L 84.1 53.2 C 84.1 53.2 83.52 54.63 81.7 54.6 C 80.2 54.6 78.9 53.7 78.9 52.1 C 78.9 49.5 82.4 49.3 83.7 49.3 Z M 82.2 53 C 83.3 53 84 51.9 84 50.9 C 84.03 50.9 84 50.7 84 50.7 C 84 50.7 83.68 50.71 83.7 50.7 C 82.6 50.7 80.9 50.9 80.9 52 C 80.9 52.5 81.3 53 82.2 53 Z " stroke="none" fill="#ee3078"/>  </g>  <g id="Polygon73983">    <path d="M 10.1 26 C 10.1 25.8 10 25.7 9.8 25.7 C 9.8 25.65 9.1 25.7 9.1 25.7 L 9.1 23.9 C 9.1 23.9 11.16 23.87 11.2 23.9 C 11.9 23.9 12.2 24.2 12.2 25 C 12.25 24.96 12.2 28.7 12.2 28.7 L 17.3 28.7 C 17.3 28.7 17.25 24.96 17.3 25 C 17.3 24.2 17.6 23.9 18.3 23.9 C 18.34 23.87 20.4 23.9 20.4 23.9 L 20.4 25.7 C 20.4 25.7 19.7 25.65 19.7 25.7 C 19.5 25.7 19.3 25.8 19.3 26 C 19.35 26 19.3 35.2 19.3 35.2 L 17.3 35.2 L 17.3 30.5 L 12.2 30.5 L 12.2 35.2 L 10.1 35.2 C 10.1 35.2 10.15 26 10.1 26 Z M 22.3 29.2 C 22.3 28.9 22.1 28.8 21.9 28.8 C 21.91 28.8 21.3 28.8 21.3 28.8 L 21.3 27.1 C 21.3 27.1 23.14 27.07 23.1 27.1 C 23.9 27.1 24.2 27.4 24.2 28 C 24.2 28 24.2 28.2 24.2 28.2 C 24.21 28.4 24.2 28.6 24.2 28.6 C 24.2 28.6 24.23 28.58 24.2 28.6 C 24.6 27.8 25.6 26.9 26.9 26.9 C 28.1 26.9 28.9 27.5 29.3 28.6 C 29.3 28.6 29.3 28.6 29.3 28.6 C 29.7 27.7 30.8 26.9 32.1 26.9 C 33.8 26.9 34.7 27.8 34.7 30 C 34.7 30 34.7 33.2 34.7 33.2 C 34.7 33.4 34.9 33.5 35.1 33.5 C 35.09 33.52 35.7 33.5 35.7 33.5 L 35.7 35.2 C 35.7 35.2 33.8 35.23 33.8 35.2 C 33 35.2 32.7 34.9 32.7 34.1 C 32.7 34.1 32.7 30.4 32.7 30.4 C 32.7 29.4 32.5 28.7 31.6 28.7 C 30.6 28.7 29.9 29.6 29.6 30.6 C 29.5 30.9 29.5 31.3 29.5 31.7 C 29.51 31.65 29.5 35.2 29.5 35.2 L 27.5 35.2 C 27.5 35.2 27.48 30.37 27.5 30.4 C 27.5 29.5 27.3 28.7 26.4 28.7 C 25.3 28.7 24.7 29.6 24.4 30.6 C 24.3 30.9 24.3 31.3 24.3 31.7 C 24.28 31.65 24.3 35.2 24.3 35.2 L 22.3 35.2 C 22.3 35.2 22.26 29.15 22.3 29.2 Z M 41 26.9 C 43.5 26.9 45.5 28.7 45.5 31.2 C 45.5 33.7 43.5 35.4 41 35.4 C 38.5 35.4 36.5 33.7 36.5 31.2 C 36.5 28.7 38.5 26.9 41 26.9 Z M 41 33.7 C 42.3 33.7 43.4 32.7 43.4 31.2 C 43.4 29.7 42.3 28.6 41 28.6 C 39.7 28.6 38.6 29.7 38.6 31.2 C 38.6 32.7 39.7 33.7 41 33.7 Z M 47.3 28.7 L 46.3 28.7 L 46.3 27.1 L 47.4 27.1 L 47.4 24.9 L 49.4 24.9 L 49.4 27.1 L 51.2 27.1 L 51.2 28.7 L 49.4 28.7 C 49.4 28.7 49.38 31.99 49.4 32 C 49.4 33.3 50.4 33.5 51 33.5 C 51.22 33.52 51.4 33.5 51.4 33.5 L 51.4 35.3 C 51.4 35.3 51.11 35.31 50.7 35.3 C 49.6 35.3 47.3 35 47.3 32.2 C 47.35 32.24 47.3 28.7 47.3 28.7 Z M 53.2 29.2 C 53.2 28.9 53.1 28.8 52.9 28.8 C 52.89 28.8 52.2 28.8 52.2 28.8 L 52.2 27.1 C 52.2 27.1 54.12 27.07 54.1 27.1 C 54.8 27.1 55.2 27.4 55.2 28 C 55.2 28 55.2 28.2 55.2 28.2 C 55.19 28.4 55.2 28.6 55.2 28.6 C 55.2 28.6 55.19 28.58 55.2 28.6 C 55.5 27.9 56.4 26.9 58.1 26.9 C 59.9 26.9 60.9 27.8 60.9 30 C 60.9 30 60.9 33.2 60.9 33.2 C 60.9 33.4 61 33.5 61.3 33.5 C 61.27 33.52 61.9 33.5 61.9 33.5 L 61.9 35.2 C 61.9 35.2 59.97 35.23 60 35.2 C 59.2 35.2 58.9 34.9 58.9 34.1 C 58.9 34.1 58.9 30.4 58.9 30.4 C 58.9 29.4 58.6 28.7 57.6 28.7 C 56.5 28.7 55.7 29.4 55.4 30.4 C 55.3 30.7 55.3 31.1 55.3 31.5 C 55.25 31.49 55.3 35.2 55.3 35.2 L 53.2 35.2 C 53.2 35.2 53.24 29.15 53.2 29.2 Z M 67.2 26.9 C 69.7 26.9 71.7 28.7 71.7 31.2 C 71.7 33.7 69.7 35.4 67.2 35.4 C 64.7 35.4 62.7 33.7 62.7 31.2 C 62.7 28.7 64.7 26.9 67.2 26.9 Z M 67.2 33.7 C 68.5 33.7 69.6 32.7 69.6 31.2 C 69.6 29.7 68.5 28.6 67.2 28.6 C 65.9 28.6 64.8 29.7 64.8 31.2 C 64.8 32.7 65.9 33.7 67.2 33.7 Z M 73.5 32.6 C 73.5 32.6 74.56 33.84 76 33.8 C 76.6 33.8 77.1 33.6 77.1 33 C 77.1 31.9 72.8 31.9 72.8 29.3 C 72.8 27.6 74.2 26.9 75.9 26.9 C 77 26.9 78.8 27.3 78.8 28.6 C 78.79 28.58 78.8 29.4 78.8 29.4 L 77 29.4 C 77 29.4 77 29.03 77 29 C 77 28.6 76.4 28.5 76 28.5 C 75.3 28.5 74.8 28.7 74.8 29.2 C 74.8 30.5 79.1 30.2 79.1 32.9 C 79.1 34.5 77.7 35.4 76 35.4 C 73.72 35.43 72.6 34 72.6 34 L 73.5 32.6 Z M 81 28.7 L 80 28.7 L 80 27.1 L 81.1 27.1 L 81.1 24.9 L 83 24.9 L 83 27.1 L 84.9 27.1 L 84.9 28.7 L 83 28.7 C 83 28.7 83.04 31.99 83 32 C 83 33.3 84.1 33.5 84.7 33.5 C 84.88 33.52 85 33.5 85 33.5 L 85 35.3 C 85 35.3 84.77 35.31 84.4 35.3 C 83.3 35.3 81 35 81 32.2 C 81.01 32.24 81 28.7 81 28.7 Z M 86.9 29.2 C 86.9 28.9 86.8 28.8 86.5 28.8 C 86.55 28.8 85.9 28.8 85.9 28.8 L 85.9 27.1 C 85.9 27.1 87.78 27.07 87.8 27.1 C 88.5 27.1 88.9 27.4 88.9 28 C 88.9 28 88.9 28.2 88.9 28.2 C 88.85 28.4 88.8 28.6 88.8 28.6 C 88.8 28.6 88.85 28.58 88.9 28.6 C 89.2 27.9 90.1 26.9 91.7 26.9 C 93.5 26.9 94.6 27.8 94.6 30 C 94.6 30 94.6 33.2 94.6 33.2 C 94.6 33.4 94.7 33.5 94.9 33.5 C 94.93 33.52 95.6 33.5 95.6 33.5 L 95.6 35.2 C 95.6 35.2 93.64 35.23 93.6 35.2 C 92.9 35.2 92.5 34.9 92.5 34.1 C 92.5 34.1 92.5 30.4 92.5 30.4 C 92.5 29.4 92.3 28.7 91.3 28.7 C 90.2 28.7 89.4 29.4 89.1 30.4 C 89 30.7 88.9 31.1 88.9 31.5 C 88.92 31.49 88.9 35.2 88.9 35.2 L 86.9 35.2 C 86.9 35.2 86.9 29.15 86.9 29.2 Z M 101.2 30.1 C 101.24 30.11 101.5 30.1 101.5 30.1 C 101.5 30.1 101.49 30.05 101.5 30.1 C 101.5 28.9 101 28.5 100 28.5 C 99.6 28.5 98.9 28.5 98.9 29 C 98.9 28.99 98.9 29.4 98.9 29.4 L 97 29.4 C 97 29.4 97.01 28.56 97 28.6 C 97 27 99.2 26.9 100 26.9 C 102.7 26.9 103.5 28.3 103.5 30.1 C 103.5 30.1 103.5 33.2 103.5 33.2 C 103.5 33.4 103.7 33.5 103.9 33.5 C 103.88 33.52 104.5 33.5 104.5 33.5 L 104.5 35.2 C 104.5 35.2 102.69 35.23 102.7 35.2 C 101.9 35.2 101.7 34.8 101.7 34.3 C 101.65 34.13 101.7 34 101.7 34 L 101.6 34 C 101.6 34 101.01 35.43 99.2 35.4 C 97.7 35.4 96.4 34.5 96.4 32.9 C 96.4 30.3 99.9 30.1 101.2 30.1 Z M 99.7 33.8 C 100.8 33.8 101.5 32.7 101.5 31.7 C 101.52 31.7 101.5 31.5 101.5 31.5 C 101.5 31.5 101.17 31.51 101.2 31.5 C 100.1 31.5 98.4 31.7 98.4 32.8 C 98.4 33.3 98.8 33.8 99.7 33.8 Z M 100.6 23.9 L 102.6 23.9 L 100.9 26.1 L 99.4 26.1 L 100.6 23.9 Z " stroke="none" fill="#ee3078"/>  </g></svg>