<?xml version="1.0" standalone="no"?><!DOCTYPE svg PUBLIC "-//W3C//DTD SVG 1.1//EN" "http://www.w3.org/Graphics/SVG/1.1/DTD/svg11.dtd"><svg xmlns="http://www.w3.org/2000/svg" version="1.1" width="158.4px" height="84px" viewBox="0 -1 158.4 84" style="top:-1px">  <desc>4 typy estrog nov</desc>  <defs/>  <g id="Polygon70695">    <path d="M 40.8 46.1 C 43.1 46.1 44.4 47.8 44.4 50 C 44.43 50.19 44.4 50.7 44.4 50.7 C 44.4 50.7 38.75 50.71 38.7 50.7 C 38.9 52.1 40 52.9 41.2 52.9 C 42.51 52.9 43.5 52 43.5 52 L 44.3 53.4 C 44.3 53.4 43.08 54.63 41.1 54.6 C 38.3 54.6 36.7 52.7 36.7 50.4 C 36.7 47.8 38.4 46.1 40.8 46.1 Z M 42.3 49.3 C 42.3 48.3 41.6 47.7 40.8 47.7 C 39.8 47.7 39 48.3 38.8 49.3 C 38.8 49.3 42.3 49.3 42.3 49.3 Z M 46.4 51.8 C 46.4 51.8 47.47 53.04 48.9 53 C 49.5 53 50 52.8 50 52.2 C 50 51.1 45.7 51.1 45.7 48.5 C 45.7 46.8 47.1 46.1 48.8 46.1 C 49.9 46.1 51.7 46.5 51.7 47.8 C 51.69 47.78 51.7 48.6 51.7 48.6 L 49.9 48.6 C 49.9 48.6 49.9 48.23 49.9 48.2 C 49.9 47.8 49.3 47.7 48.9 47.7 C 48.2 47.7 47.7 47.9 47.7 48.4 C 47.7 49.7 52 49.4 52 52.1 C 52 53.7 50.6 54.6 48.9 54.6 C 46.62 54.63 45.5 53.2 45.5 53.2 L 46.4 51.8 Z M 53.9 47.9 L 52.9 47.9 L 52.9 46.3 L 54 46.3 L 54 44.1 L 55.9 44.1 L 55.9 46.3 L 57.8 46.3 L 57.8 47.9 L 55.9 47.9 C 55.9 47.9 55.95 51.19 55.9 51.2 C 55.9 52.5 57 52.7 57.6 52.7 C 57.79 52.72 57.9 52.7 57.9 52.7 L 57.9 54.5 C 57.9 54.5 57.68 54.51 57.3 54.5 C 56.2 54.5 53.9 54.2 53.9 51.4 C 53.92 51.44 53.9 47.9 53.9 47.9 Z M 59.8 48.4 C 59.8 48.1 59.7 48 59.5 48 C 59.45 48 58.8 48 58.8 48 L 58.8 46.3 C 58.8 46.3 60.67 46.27 60.7 46.3 C 61.4 46.3 61.8 46.6 61.8 47.3 C 61.8 47.3 61.8 47.7 61.8 47.7 C 61.76 48.05 61.7 48.3 61.7 48.3 C 61.7 48.3 61.76 48.26 61.8 48.3 C 62.1 47.1 63.1 46.2 64.3 46.2 C 64.52 46.16 64.7 46.2 64.7 46.2 L 64.7 48.2 C 64.7 48.2 64.51 48.16 64.2 48.2 C 63.4 48.2 62.4 48.7 62 49.9 C 61.9 50.3 61.8 50.7 61.8 51.2 C 61.82 51.2 61.8 54.4 61.8 54.4 L 59.8 54.4 C 59.8 54.4 59.8 48.35 59.8 48.4 Z M 69.7 46.1 C 72.2 46.1 74.2 47.9 74.2 50.4 C 74.2 52.9 72.2 54.6 69.7 54.6 C 67.3 54.6 65.3 52.9 65.3 50.4 C 65.3 47.9 67.3 46.1 69.7 46.1 Z M 69.7 52.9 C 71.1 52.9 72.2 51.9 72.2 50.4 C 72.2 48.9 71.1 47.8 69.7 47.8 C 68.4 47.8 67.3 48.9 67.3 50.4 C 67.3 51.9 68.4 52.9 69.7 52.9 Z M 78.9 46.1 C 80.75 46.08 81.4 47.2 81.4 47.2 L 81.4 47.2 C 81.4 47.2 81.4 47.14 81.4 47 C 81.4 46.7 81.7 46.3 82.3 46.3 C 82.3 46.27 84.2 46.3 84.2 46.3 L 84.2 48 C 84.2 48 83.56 48 83.6 48 C 83.4 48 83.2 48.1 83.2 48.3 C 83.2 48.3 83.2 53.9 83.2 53.9 C 83.2 56.7 81 57.8 78.9 57.8 C 77.9 57.8 76.8 57.5 76 57.1 C 76.01 57.09 76.6 55.5 76.6 55.5 C 76.6 55.5 77.64 56.03 78.9 56 C 80.1 56 81.2 55.5 81.2 54 C 81.2 54 81.2 53.7 81.2 53.7 C 81.2 53.46 81.2 53.2 81.2 53.2 C 81.2 53.2 81.18 53.22 81.2 53.2 C 80.7 53.9 80 54.3 78.9 54.3 C 76.6 54.3 75.2 52.4 75.2 50.1 C 75.2 47.9 76.5 46.1 78.9 46.1 Z M 81.2 50.2 C 81.2 48.3 80.3 47.8 79.2 47.8 C 78 47.8 77.3 48.7 77.3 50.1 C 77.3 51.5 78 52.6 79.3 52.6 C 80.3 52.6 81.2 52 81.2 50.2 Z M 89.2 46.1 C 91.5 46.1 92.8 47.8 92.8 50 C 92.8 50.19 92.7 50.7 92.7 50.7 C 92.7 50.7 87.12 50.71 87.1 50.7 C 87.3 52.1 88.3 52.9 89.6 52.9 C 90.88 52.9 91.9 52 91.9 52 L 92.7 53.4 C 92.7 53.4 91.45 54.63 89.4 54.6 C 86.7 54.6 85 52.7 85 50.4 C 85 47.8 86.7 46.1 89.2 46.1 Z M 90.7 49.3 C 90.7 48.3 90 47.7 89.2 47.7 C 88.1 47.7 87.4 48.3 87.2 49.3 C 87.2 49.3 90.7 49.3 90.7 49.3 Z M 89.6 43.1 L 91.5 43.1 L 89.8 45.3 L 88.3 45.3 L 89.6 43.1 Z M 94.8 48.4 C 94.8 48.1 94.6 48 94.4 48 C 94.41 48 93.8 48 93.8 48 L 93.8 46.3 C 93.8 46.3 95.64 46.27 95.6 46.3 C 96.4 46.3 96.7 46.6 96.7 47.2 C 96.7 47.2 96.7 47.4 96.7 47.4 C 96.72 47.6 96.7 47.8 96.7 47.8 C 96.7 47.8 96.72 47.78 96.7 47.8 C 97.1 47.1 97.9 46.1 99.6 46.1 C 101.4 46.1 102.4 47 102.4 49.2 C 102.4 49.2 102.4 52.4 102.4 52.4 C 102.4 52.6 102.6 52.7 102.8 52.7 C 102.8 52.72 103.4 52.7 103.4 52.7 L 103.4 54.4 C 103.4 54.4 101.5 54.43 101.5 54.4 C 100.7 54.4 100.4 54.1 100.4 53.3 C 100.4 53.3 100.4 49.6 100.4 49.6 C 100.4 48.6 100.2 47.9 99.1 47.9 C 98 47.9 97.2 48.6 96.9 49.6 C 96.8 49.9 96.8 50.3 96.8 50.7 C 96.78 50.69 96.8 54.4 96.8 54.4 L 94.8 54.4 C 94.8 54.4 94.76 48.35 94.8 48.4 Z M 108.7 46.1 C 111.2 46.1 113.2 47.9 113.2 50.4 C 113.2 52.9 111.2 54.6 108.7 54.6 C 106.2 54.6 104.2 52.9 104.2 50.4 C 104.2 47.9 106.2 46.1 108.7 46.1 Z M 108.7 52.9 C 110 52.9 111.1 51.9 111.1 50.4 C 111.1 48.9 110 47.8 108.7 47.8 C 107.4 47.8 106.3 48.9 106.3 50.4 C 106.3 51.9 107.4 52.9 108.7 52.9 Z M 114.3 48.3 C 114.3 48.1 114.1 48 113.9 48 C 113.9 48 113.7 48 113.7 48 L 113.7 46.3 C 113.7 46.3 114.89 46.27 114.9 46.3 C 115.6 46.3 115.9 46.5 116.1 47 C 116.1 47 117.6 51.3 117.6 51.3 C 117.8 51.81 117.9 52.5 117.9 52.5 L 118 52.5 C 118 52.5 118.09 51.81 118.3 51.3 C 118.3 51.3 119.8 47 119.8 47 C 120 46.5 120.3 46.3 121 46.3 C 120.99 46.27 122.1 46.3 122.1 46.3 L 122.1 48 C 122.1 48 121.88 48 121.9 48 C 121.7 48 121.5 48.1 121.4 48.3 C 121.43 48.29 119.1 54.4 119.1 54.4 L 116.7 54.4 C 116.7 54.4 114.35 48.29 114.3 48.3 Z " stroke="none" fill="#ee3078"/>  </g>  <g id="Polygon70694">    <path d="M 56 31 L 60.7 23.9 L 63.2 23.9 L 63.2 30.6 L 65 30.6 L 65 32.4 L 63.2 32.4 L 63.2 35.2 L 61.1 35.2 L 61.1 32.4 L 56 32.4 L 56 31 Z M 61.1 27.4 C 61.15 26.88 61.2 26.2 61.2 26.2 L 61.2 26.2 C 61.2 26.2 60.88 26.82 60.6 27.2 C 60.6 27.2 58.8 29.9 58.8 29.9 C 58.51 30.29 58.2 30.6 58.2 30.6 L 58.2 30.6 C 58.2 30.6 58.7 30.59 59.2 30.6 C 59.23 30.59 61.1 30.6 61.1 30.6 C 61.1 30.6 61.15 27.44 61.1 27.4 Z M 70.8 28.7 L 69.7 28.7 L 69.7 27.1 L 70.8 27.1 L 70.8 24.9 L 72.8 24.9 L 72.8 27.1 L 74.7 27.1 L 74.7 28.7 L 72.8 28.7 C 72.8 28.7 72.81 31.99 72.8 32 C 72.8 33.3 73.9 33.5 74.4 33.5 C 74.65 33.52 74.8 33.5 74.8 33.5 L 74.8 35.3 C 74.8 35.3 74.54 35.31 74.2 35.3 C 73 35.3 70.8 35 70.8 32.2 C 70.78 32.24 70.8 28.7 70.8 28.7 Z M 77.1 36.9 C 77.7 36.9 78.2 36.5 78.5 35.8 C 78.49 35.84 78.8 35.2 78.8 35.2 C 78.8 35.2 76.04 29.09 76 29.1 C 75.9 28.9 75.8 28.8 75.6 28.8 C 75.61 28.8 75.4 28.8 75.4 28.8 L 75.4 27.1 C 75.4 27.1 76.72 27.07 76.7 27.1 C 77.3 27.1 77.6 27.3 77.8 27.8 C 77.8 27.8 79.4 31.9 79.4 31.9 C 79.55 32.34 79.7 33 79.7 33 L 79.7 33 C 79.7 33 79.84 32.34 80 31.9 C 80 31.9 81.4 27.8 81.4 27.8 C 81.6 27.3 81.9 27.1 82.5 27.1 C 82.46 27.07 83.8 27.1 83.8 27.1 L 83.8 28.8 C 83.8 28.8 83.6 28.8 83.6 28.8 C 83.4 28.8 83.2 28.9 83.1 29.1 C 83.1 29.1 80.2 36.5 80.2 36.5 C 79.6 37.9 78.5 38.6 77.3 38.6 C 75.98 38.59 75.2 37.8 75.2 37.8 L 76 36.3 C 76 36.3 76.48 36.88 77.1 36.9 Z M 85.4 29.2 C 85.4 28.9 85.2 28.8 85 28.8 C 85 28.8 84.4 28.8 84.4 28.8 L 84.4 27.1 C 84.4 27.1 86.17 27.07 86.2 27.1 C 86.9 27.1 87.2 27.4 87.2 27.9 C 87.2 28.05 87.2 28.2 87.2 28.2 L 87.2 28.2 C 87.2 28.2 87.92 26.88 89.8 26.9 C 92 26.9 93.5 28.6 93.5 31.2 C 93.5 33.7 91.9 35.4 89.7 35.4 C 88.09 35.43 87.4 34.4 87.4 34.4 L 87.3 34.4 C 87.3 34.4 87.37 34.64 87.4 35.1 C 87.37 35.06 87.4 38.4 87.4 38.4 L 85.4 38.4 C 85.4 38.4 85.36 29.15 85.4 29.2 Z M 89.3 33.7 C 90.5 33.7 91.4 32.8 91.4 31.2 C 91.4 29.6 90.6 28.6 89.4 28.6 C 88.3 28.6 87.3 29.4 87.3 31.2 C 87.3 32.5 88 33.7 89.3 33.7 Z M 95.8 36.9 C 96.3 36.9 96.8 36.5 97.1 35.8 C 97.12 35.84 97.4 35.2 97.4 35.2 C 97.4 35.2 94.67 29.09 94.7 29.1 C 94.6 28.9 94.5 28.8 94.2 28.8 C 94.24 28.8 94 28.8 94 28.8 L 94 27.1 C 94 27.1 95.34 27.07 95.3 27.1 C 95.9 27.1 96.2 27.3 96.4 27.8 C 96.4 27.8 98 31.9 98 31.9 C 98.17 32.34 98.3 33 98.3 33 L 98.3 33 C 98.3 33 98.46 32.34 98.6 31.9 C 98.6 31.9 100 27.8 100 27.8 C 100.2 27.3 100.5 27.1 101.1 27.1 C 101.08 27.07 102.5 27.1 102.5 27.1 L 102.5 28.8 C 102.5 28.8 102.22 28.8 102.2 28.8 C 102 28.8 101.9 28.9 101.8 29.1 C 101.8 29.1 98.8 36.5 98.8 36.5 C 98.3 37.9 97.1 38.6 95.9 38.6 C 94.6 38.59 93.8 37.8 93.8 37.8 L 94.6 36.3 C 94.6 36.3 95.1 36.88 95.8 36.9 Z " stroke="none" fill="#ee3078"/>  </g></svg>