<?xml version="1.0" standalone="no"?><!DOCTYPE svg PUBLIC "-//W3C//DTD SVG 1.1//EN" "http://www.w3.org/Graphics/SVG/1.1/DTD/svg11.dtd"><svg xmlns="http://www.w3.org/2000/svg" version="1.1" width="72.4px" height="16.8px" viewBox="0 -3 72.4 16.8" style="top:-3px">  <desc>Fibrinogen</desc>  <defs/>  <g id="Polygon77172">    <path d="M 9.9 8.3 L 9.9 0.5 L 14.2 0.5 L 14.2 1.4 L 11 1.4 L 11 4 L 13.7 4 L 13.7 4.9 L 11 4.9 L 11 8.3 L 9.9 8.3 Z M 15.4 1.6 L 15.4 0.5 L 16.5 0.5 L 16.5 1.6 L 15.4 1.6 Z M 15.5 8.3 L 15.5 2.7 L 16.5 2.7 L 16.5 8.3 L 15.5 8.3 Z M 18.2 8.3 L 18.2 0.5 L 19.3 0.5 L 19.3 3 L 19.2 3.5 C 19.2 3.5 19.25 3.51 19.3 3.5 C 19.3 3.5 19.3 3.4 19.3 3.4 C 19.3 3.4 19.4 3.3 19.5 3.2 C 19.6 3.1 19.7 3 19.8 2.9 C 20 2.8 20.1 2.7 20.3 2.7 C 20.6 2.6 20.8 2.6 21 2.6 C 21.8 2.6 22.4 2.8 22.8 3.4 C 23.3 3.9 23.5 4.6 23.5 5.5 C 23.5 6.4 23.2 7.1 22.8 7.6 C 22.3 8.1 21.7 8.4 20.9 8.4 C 20.7 8.4 20.5 8.4 20.3 8.3 C 20.1 8.2 19.9 8.1 19.8 8 C 19.7 8 19.6 7.9 19.5 7.8 C 19.4 7.7 19.3 7.6 19.3 7.5 C 19.26 7.53 19.2 7.4 19.2 7.4 C 19.2 7.4 19.18 7.43 19.2 7.4 C 19.2 7.6 19.2 7.7 19.2 7.8 C 19.2 7.85 19.2 8.3 19.2 8.3 L 18.2 8.3 Z M 19.2 5.5 C 19.2 5.8 19.3 6.2 19.4 6.5 C 19.5 6.7 19.7 7 19.9 7.2 C 20.2 7.4 20.5 7.5 20.8 7.5 C 21.3 7.5 21.6 7.3 21.9 6.9 C 22.2 6.6 22.4 6.1 22.4 5.5 C 22.4 4.9 22.3 4.4 22 4 C 21.7 3.7 21.3 3.5 20.8 3.5 C 20.4 3.5 20 3.7 19.7 4 C 19.4 4.3 19.2 4.8 19.2 5.5 Z M 24.8 8.3 L 24.8 2.7 L 25.8 2.7 L 25.8 3.7 L 25.8 4.1 C 25.8 4.1 25.81 4.07 25.8 4.1 C 25.9 3.6 26.2 3.3 26.5 3 C 26.8 2.8 27.2 2.6 27.6 2.6 C 27.58 2.62 27.8 2.6 27.8 2.6 C 27.8 2.6 27.85 3.7 27.8 3.7 C 27.8 3.7 27.7 3.7 27.5 3.7 C 27.2 3.7 26.9 3.8 26.6 4 C 26.3 4.2 26.1 4.6 26 5 C 25.9 5.3 25.8 5.6 25.8 6 C 25.85 5.97 25.8 8.3 25.8 8.3 L 24.8 8.3 Z M 28.9 1.6 L 28.9 0.5 L 30 0.5 L 30 1.6 L 28.9 1.6 Z M 28.9 8.3 L 28.9 2.7 L 30 2.7 L 30 8.3 L 28.9 8.3 Z M 31.6 8.3 L 31.6 2.7 L 32.7 2.7 L 32.7 3.4 L 32.7 3.8 C 32.7 3.8 32.67 3.83 32.7 3.8 C 32.7 3.7 32.8 3.6 32.9 3.4 C 33 3.3 33.2 3.1 33.3 3 C 33.5 2.9 33.7 2.8 34 2.7 C 34.2 2.6 34.5 2.6 34.8 2.6 C 35.4 2.6 35.9 2.7 36.2 3.1 C 36.5 3.4 36.7 4 36.7 4.7 C 36.67 4.68 36.7 8.3 36.7 8.3 L 35.6 8.3 C 35.6 8.3 35.61 4.93 35.6 4.9 C 35.6 4.7 35.6 4.5 35.6 4.4 C 35.5 4.2 35.5 4.1 35.4 3.9 C 35.3 3.8 35.2 3.7 35.1 3.6 C 34.9 3.6 34.8 3.5 34.6 3.5 C 34.1 3.5 33.8 3.7 33.4 3.9 C 33.1 4.2 32.9 4.5 32.8 4.9 C 32.7 5.1 32.7 5.4 32.7 5.6 C 32.71 5.65 32.7 8.3 32.7 8.3 L 31.6 8.3 Z M 37.9 5.5 C 37.9 5 37.9 4.7 38.1 4.3 C 38.3 3.9 38.5 3.6 38.7 3.4 C 39 3.1 39.3 2.9 39.7 2.8 C 40.1 2.6 40.4 2.6 40.9 2.6 C 41.3 2.6 41.7 2.6 42 2.8 C 42.4 2.9 42.7 3.1 43 3.4 C 43.3 3.6 43.5 3.9 43.6 4.3 C 43.8 4.7 43.9 5 43.9 5.5 C 43.9 6 43.7 6.5 43.5 7 C 43.2 7.4 42.8 7.8 42.4 8 C 41.9 8.3 41.4 8.4 40.9 8.4 C 40.3 8.4 39.8 8.3 39.4 8 C 38.9 7.8 38.5 7.4 38.3 7 C 38 6.5 37.9 6 37.9 5.5 Z M 38.9 5.5 C 38.9 6 39.1 6.5 39.5 6.9 C 39.9 7.3 40.3 7.5 40.9 7.5 C 41.4 7.5 41.9 7.3 42.2 6.9 C 42.6 6.5 42.8 6 42.8 5.5 C 42.8 4.9 42.6 4.4 42.2 4 C 41.9 3.7 41.4 3.5 40.9 3.5 C 40.3 3.5 39.9 3.7 39.5 4 C 39.1 4.4 38.9 4.9 38.9 5.5 Z M 44.8 5.3 C 44.8 4.5 45 3.8 45.4 3.3 C 45.9 2.8 46.4 2.6 47.2 2.6 C 47.4 2.6 47.7 2.6 47.9 2.6 C 48.1 2.7 48.3 2.8 48.4 2.8 C 48.5 2.9 48.6 3 48.7 3.1 C 48.8 3.2 48.9 3.2 48.9 3.3 C 48.89 3.29 48.9 3.4 48.9 3.4 C 48.9 3.4 48.96 3.38 49 3.4 C 49 3.3 49 3.3 49 3.2 C 48.95 3.2 49 2.7 49 2.7 L 50 2.7 C 50 2.7 49.96 8.02 50 8 C 50 8.5 49.9 8.8 49.7 9.2 C 49.6 9.5 49.4 9.8 49.1 10 C 48.8 10.2 48.5 10.3 48.2 10.4 C 47.9 10.5 47.5 10.6 47.2 10.6 C 46.5 10.6 45.9 10.4 45.3 10.1 C 45.3 10.1 45.6 9.3 45.6 9.3 C 45.7 9.3 45.7 9.3 45.8 9.4 C 45.9 9.4 46.1 9.5 46.4 9.5 C 46.6 9.6 46.9 9.6 47.2 9.6 C 47.7 9.6 48.1 9.5 48.4 9.3 C 48.7 9 48.9 8.6 48.9 8.1 C 48.91 8.07 48.9 7.7 48.9 7.7 L 48.9 7.3 C 48.9 7.3 48.9 7.32 48.9 7.3 C 48.6 7.9 48 8.2 47.3 8.2 C 46.7 8.2 46.3 8.1 45.9 7.8 C 45.5 7.6 45.3 7.2 45.1 6.8 C 44.9 6.4 44.8 5.9 44.8 5.3 Z M 45.8 5.3 C 45.8 5.9 46 6.4 46.3 6.7 C 46.6 7.1 47 7.3 47.5 7.3 C 47.9 7.3 48.2 7.1 48.5 6.8 C 48.8 6.5 48.9 6 48.9 5.3 C 48.9 4.1 48.4 3.5 47.4 3.5 C 46.9 3.5 46.5 3.6 46.2 4 C 46 4.3 45.8 4.7 45.8 5.3 Z M 51.3 5.5 C 51.3 4.6 51.5 3.9 52 3.4 C 52.6 2.8 53.2 2.6 54 2.6 C 54.5 2.6 55 2.7 55.3 2.9 C 55.7 3.1 56 3.5 56.2 3.8 C 56.4 4.2 56.4 4.7 56.4 5.2 C 56.44 5.16 56.4 5.6 56.4 5.6 C 56.4 5.6 52.35 5.62 52.3 5.6 C 52.4 6.2 52.6 6.7 52.9 7 C 53.3 7.3 53.7 7.5 54.3 7.5 C 54.4 7.5 54.6 7.4 54.8 7.4 C 55 7.3 55.1 7.3 55.3 7.2 C 55.4 7.2 55.5 7.1 55.6 7 C 55.7 7 55.8 6.9 55.8 6.9 C 55.84 6.88 55.9 6.8 55.9 6.8 C 55.9 6.8 56.35 7.59 56.3 7.6 C 56.3 7.6 56.3 7.6 56.3 7.7 C 56.2 7.7 56.1 7.8 56 7.9 C 55.8 8 55.7 8 55.5 8.1 C 55.4 8.2 55.2 8.2 54.9 8.3 C 54.7 8.4 54.4 8.4 54.2 8.4 C 53.6 8.4 53.1 8.3 52.7 8 C 52.2 7.7 51.9 7.4 51.6 7 C 51.4 6.5 51.3 6 51.3 5.5 Z M 52.4 4.8 C 52.4 4.8 55.4 4.8 55.4 4.8 C 55.3 4.4 55.2 4 55 3.8 C 54.7 3.5 54.4 3.4 54 3.4 C 53.6 3.4 53.2 3.5 52.9 3.8 C 52.6 4 52.5 4.4 52.4 4.8 Z M 57.8 8.3 L 57.8 2.7 L 58.8 2.7 L 58.8 3.4 L 58.8 3.8 C 58.8 3.8 58.78 3.83 58.8 3.8 C 58.8 3.7 58.9 3.6 59 3.4 C 59.1 3.3 59.3 3.1 59.5 3 C 59.6 2.9 59.8 2.8 60.1 2.7 C 60.3 2.6 60.6 2.6 60.9 2.6 C 61.5 2.6 62 2.7 62.3 3.1 C 62.6 3.4 62.8 4 62.8 4.7 C 62.78 4.68 62.8 8.3 62.8 8.3 L 61.7 8.3 C 61.7 8.3 61.72 4.93 61.7 4.9 C 61.7 4.7 61.7 4.5 61.7 4.4 C 61.6 4.2 61.6 4.1 61.5 3.9 C 61.5 3.8 61.3 3.7 61.2 3.6 C 61.1 3.6 60.9 3.5 60.7 3.5 C 60.2 3.5 59.9 3.7 59.6 3.9 C 59.2 4.2 59 4.5 58.9 4.9 C 58.8 5.1 58.8 5.4 58.8 5.6 C 58.81 5.65 58.8 8.3 58.8 8.3 L 57.8 8.3 Z " stroke="none" fill="#000"/>  </g></svg>