<?xml version="1.0" standalone="no"?><!DOCTYPE svg PUBLIC "-//W3C//DTD SVG 1.1//EN" "http://www.w3.org/Graphics/SVG/1.1/DTD/svg11.dtd"><svg xmlns="http://www.w3.org/2000/svg" version="1.1" width="53px" height="34.5px" viewBox="0 -2 53 34.5" style="top:-2px">  <desc>EE 20 µg/DRSP 3 mg</desc>  <defs/>  <g id="Polygon75993">    <path d="M 2.1 13.3 L 1.4 13.3 L 1.4 12.4 C 1.4 12.4 4.28 12.44 4.3 12.4 C 6.4 12.4 7.9 13.7 7.9 16 C 7.9 18.2 6.4 19.5 4.3 19.5 C 4.3 19.5 2.7 19.5 2.7 19.5 C 2.3 19.5 2.1 19.3 2.1 18.9 C 2.07 18.86 2.1 13.3 2.1 13.3 Z M 3.3 18.6 C 3.3 18.6 4.2 18.6 4.2 18.6 C 5.8 18.6 6.8 17.7 6.8 16 C 6.8 14.2 5.8 13.3 4.2 13.3 C 4.21 13.3 3.1 13.3 3.1 13.3 C 3.1 13.3 3.07 18.42 3.1 18.4 C 3.1 18.6 3.2 18.6 3.3 18.6 Z M 9.2 13.3 L 8.6 13.3 L 8.6 12.4 C 8.6 12.4 11.65 12.44 11.7 12.4 C 12.9 12.4 13.8 13.2 13.8 14.5 C 13.8 15.7 13 16.3 12.5 16.4 C 12.49 16.38 12.5 16.4 12.5 16.4 C 12.5 16.4 12.67 16.49 12.8 16.7 C 12.8 16.7 13.6 18.4 13.6 18.4 C 13.7 18.6 13.9 18.6 14.1 18.6 C 14.14 18.64 14.3 18.6 14.3 18.6 L 14.3 19.5 C 14.3 19.5 13.78 19.5 13.8 19.5 C 13.2 19.5 13 19.4 12.8 19 C 12.8 19 11.8 17.1 11.8 17.1 C 11.7 16.7 11.5 16.7 11.1 16.7 C 11.14 16.69 10.2 16.7 10.2 16.7 L 10.2 19.5 L 9.2 19.5 L 9.2 13.3 Z M 11.5 15.8 C 12.3 15.8 12.7 15.3 12.7 14.6 C 12.7 13.8 12.3 13.3 11.5 13.3 C 11.54 13.3 10.2 13.3 10.2 13.3 L 10.2 15.8 C 10.2 15.8 11.52 15.83 11.5 15.8 Z M 15.3 17.9 C 15.3 17.9 16.02 18.71 17.1 18.7 C 17.7 18.7 18.3 18.3 18.3 17.7 C 18.3 16.2 14.9 16.4 14.9 14.2 C 14.9 13.1 15.8 12.3 17.1 12.3 C 17.9 12.3 19.1 12.7 19.1 13.6 C 19.14 13.62 19.1 14.2 19.1 14.2 L 18.2 14.2 C 18.2 14.2 18.22 13.87 18.2 13.9 C 18.2 13.5 17.7 13.2 17.1 13.2 C 16.4 13.2 15.9 13.6 15.9 14.2 C 15.9 15.6 19.3 15.3 19.3 17.6 C 19.3 18.7 18.5 19.6 17.1 19.6 C 15.55 19.62 14.7 18.6 14.7 18.6 L 15.3 17.9 Z M 20.7 13.3 L 20.1 13.3 L 20.1 12.4 C 20.1 12.4 23.19 12.44 23.2 12.4 C 24.5 12.4 25.4 13.3 25.4 14.6 C 25.4 16 24.5 16.9 23.2 16.9 C 23.19 16.89 21.7 16.9 21.7 16.9 L 21.7 19.5 L 20.7 19.5 L 20.7 13.3 Z M 23 16 C 23.9 16 24.4 15.5 24.4 14.6 C 24.4 13.8 23.9 13.3 23 13.3 C 23.04 13.3 21.7 13.3 21.7 13.3 L 21.7 16 C 21.7 16 23.03 16.03 23 16 Z M 29.1 17.9 C 29.1 17.9 29.81 18.68 30.9 18.7 C 31.7 18.7 32.3 18.2 32.3 17.4 C 32.3 16.6 31.6 16.1 30.8 16.1 C 30.78 16.13 30.3 16.1 30.3 16.1 L 30.1 15.6 C 30.1 15.6 31.54 13.75 31.5 13.7 C 31.75 13.45 32 13.3 32 13.3 L 32 13.3 C 32 13.3 31.74 13.3 31.4 13.3 C 31.4 13.3 30 13.3 30 13.3 C 29.9 13.3 29.8 13.4 29.8 13.5 C 29.77 13.52 29.8 14 29.8 14 L 28.9 14 C 28.9 14 28.85 13.08 28.9 13.1 C 28.9 12.6 29 12.4 29.5 12.4 C 29.46 12.44 33.2 12.4 33.2 12.4 L 33.2 13.1 C 33.2 13.1 31.32 15.31 31.3 15.3 C 32.2 15.4 33.3 16 33.3 17.4 C 33.3 18.6 32.4 19.6 30.9 19.6 C 29.43 19.62 28.6 18.6 28.6 18.6 L 29.1 17.9 Z M 37.3 15.5 C 37.3 15.3 37.2 15.3 37 15.3 C 37.04 15.27 36.6 15.3 36.6 15.3 L 36.6 14.4 C 36.6 14.4 37.56 14.44 37.6 14.4 C 38 14.4 38.2 14.6 38.2 15 C 38.2 15 38.2 15.2 38.2 15.2 C 38.2 15.35 38.2 15.5 38.2 15.5 C 38.2 15.5 38.21 15.48 38.2 15.5 C 38.5 14.9 39.2 14.3 39.9 14.3 C 40.8 14.3 41.3 14.7 41.5 15.5 C 41.5 15.5 41.5 15.5 41.5 15.5 C 41.8 14.9 42.5 14.3 43.3 14.3 C 44.4 14.3 45 15 45 16.3 C 45 16.3 45 18.5 45 18.5 C 45 18.6 45 18.7 45.2 18.7 C 45.17 18.67 45.6 18.7 45.6 18.7 L 45.6 19.5 C 45.6 19.5 44.62 19.5 44.6 19.5 C 44.2 19.5 44 19.3 44 18.9 C 44 18.9 44 16.5 44 16.5 C 44 15.8 43.8 15.2 43.1 15.2 C 42.4 15.2 41.9 15.8 41.7 16.5 C 41.6 16.7 41.6 16.9 41.6 17.2 C 41.59 17.19 41.6 19.5 41.6 19.5 L 40.6 19.5 C 40.6 19.5 40.62 16.47 40.6 16.5 C 40.6 15.8 40.5 15.2 39.8 15.2 C 39 15.2 38.5 15.8 38.3 16.5 C 38.3 16.7 38.2 17 38.2 17.2 C 38.23 17.19 38.2 19.5 38.2 19.5 L 37.3 19.5 C 37.3 19.5 37.26 15.49 37.3 15.5 Z M 48.4 14.3 C 49.6 14.3 50 15.1 50 15.1 C 49.99 15.11 50 15.1 50 15.1 C 50 15.1 50.01 15.03 50 14.9 C 50 14.7 50.2 14.4 50.6 14.4 C 50.57 14.44 51.5 14.4 51.5 14.4 L 51.5 15.3 C 51.5 15.3 51.11 15.27 51.1 15.3 C 51 15.3 50.9 15.3 50.9 15.5 C 50.9 15.5 50.9 19.3 50.9 19.3 C 50.9 21 49.6 21.6 48.3 21.6 C 47.7 21.6 47.1 21.4 46.6 21.2 C 46.61 21.18 46.9 20.4 46.9 20.4 C 46.9 20.4 47.56 20.74 48.3 20.7 C 49.2 20.7 49.9 20.4 49.9 19.3 C 49.9 19.3 49.9 19 49.9 19 C 49.92 18.83 49.9 18.7 49.9 18.7 C 49.9 18.7 49.92 18.67 49.9 18.7 C 49.6 19.2 49.2 19.4 48.4 19.4 C 47 19.4 46.2 18.3 46.2 16.8 C 46.2 15.4 47 14.3 48.4 14.3 Z M 50 16.9 C 50 15.5 49.3 15.2 48.5 15.2 C 47.6 15.2 47.1 15.8 47.1 16.8 C 47.1 17.9 47.7 18.6 48.6 18.6 C 49.3 18.6 50 18.2 50 16.9 Z " stroke="none" fill="#000"/>  </g>  <g id="Polygon75992">    <path d="M 5.4 1.3 L 4.7 1.3 L 4.7 0.4 C 4.7 0.4 8.86 0.44 8.9 0.4 C 9.3 0.4 9.5 0.6 9.5 1.1 C 9.5 1.08 9.5 2 9.5 2 L 8.6 2 C 8.6 2 8.59 1.52 8.6 1.5 C 8.6 1.4 8.5 1.3 8.4 1.3 C 8.37 1.3 6.4 1.3 6.4 1.3 L 6.4 3.5 L 8.8 3.5 L 8.8 4.4 L 6.4 4.4 C 6.4 4.4 6.36 6.42 6.4 6.4 C 6.4 6.6 6.4 6.6 6.6 6.6 C 6.6 6.6 8.6 6.6 8.6 6.6 C 8.8 6.6 8.9 6.6 8.9 6.4 C 8.86 6.42 8.9 6 8.9 6 L 9.8 6 C 9.8 6 9.78 6.86 9.8 6.9 C 9.8 7.3 9.6 7.5 9.1 7.5 C 9.1 7.5 6 7.5 6 7.5 C 5.6 7.5 5.4 7.3 5.4 6.9 C 5.36 6.86 5.4 1.3 5.4 1.3 Z M 11 1.3 L 10.4 1.3 L 10.4 0.4 C 10.4 0.4 14.54 0.44 14.5 0.4 C 15 0.4 15.2 0.6 15.2 1.1 C 15.18 1.08 15.2 2 15.2 2 L 14.3 2 C 14.3 2 14.27 1.52 14.3 1.5 C 14.3 1.4 14.2 1.3 14.1 1.3 C 14.05 1.3 12 1.3 12 1.3 L 12 3.5 L 14.5 3.5 L 14.5 4.4 L 12 4.4 C 12 4.4 12.04 6.42 12 6.4 C 12 6.6 12.1 6.6 12.3 6.6 C 12.3 6.6 14.3 6.6 14.3 6.6 C 14.5 6.6 14.5 6.6 14.5 6.4 C 14.54 6.42 14.5 6 14.5 6 L 15.5 6 C 15.5 6 15.46 6.86 15.5 6.9 C 15.5 7.3 15.3 7.5 14.8 7.5 C 14.8 7.5 11.7 7.5 11.7 7.5 C 11.2 7.5 11 7.3 11 6.9 C 11.04 6.86 11 1.3 11 1.3 Z M 22.4 2.4 C 22.4 1.7 21.9 1.2 21.1 1.2 C 20.5 1.2 20 1.6 20 1.9 C 20.02 1.91 20 2.2 20 2.2 L 19.1 2.2 C 19.1 2.2 19.1 1.62 19.1 1.6 C 19.1 0.7 20.3 0.3 21.2 0.3 C 22.4 0.3 23.4 1.1 23.4 2.3 C 23.4 4.8 19.8 4.8 19.8 6.5 C 19.8 6.6 19.9 6.6 20 6.6 C 20 6.6 22.6 6.6 22.6 6.6 C 22.7 6.6 22.8 6.6 22.8 6.4 C 22.77 6.42 22.8 6 22.8 6 L 23.7 6 C 23.7 6 23.69 6.86 23.7 6.9 C 23.7 7.3 23.5 7.5 23.1 7.5 C 23.1 7.5 19.4 7.5 19.4 7.5 C 18.9 7.5 18.8 7.3 18.8 6.7 C 18.8 4.1 22.4 4.3 22.4 2.4 Z M 24.6 4 C 24.6 1.9 25.2 0.3 27.1 0.3 C 29 0.3 29.6 1.9 29.6 4 C 29.6 6 29 7.6 27.1 7.6 C 25.2 7.6 24.6 6 24.6 4 Z M 28.6 4 C 28.6 2.4 28.3 1.2 27.1 1.2 C 25.9 1.2 25.6 2.4 25.6 4 C 25.6 5.5 25.9 6.7 27.1 6.7 C 28.3 6.7 28.6 5.5 28.6 4 Z M 33 2.4 C 33 2.4 33.97 2.44 34 2.4 C 34.4 2.4 34.6 2.6 34.6 3.1 C 34.6 3.1 34.6 5.5 34.6 5.5 C 34.6 6.2 34.8 6.7 35.6 6.7 C 36.6 6.7 37.2 5.8 37.2 4.8 C 37.21 4.81 37.2 2.4 37.2 2.4 L 38.2 2.4 C 38.2 2.4 38.18 6.45 38.2 6.5 C 38.2 6.6 38.3 6.7 38.4 6.7 C 38.4 6.67 38.8 6.7 38.8 6.7 L 38.8 7.5 C 38.8 7.5 37.88 7.5 37.9 7.5 C 37.4 7.5 37.2 7.3 37.2 6.9 C 37.2 6.9 37.2 6.8 37.2 6.8 C 37.2 6.6 37.3 6.5 37.3 6.5 C 37.25 6.46 37.2 6.5 37.2 6.5 C 37.2 6.5 36.76 7.62 35.4 7.6 C 34.7 7.62 34.5 7.3 34.5 7.3 L 34.4 7.3 C 34.4 7.3 34.51 7.8 34.5 8.1 C 34.51 8.09 34.5 9.5 34.5 9.5 L 33.7 9.5 C 33.7 9.5 33.65 3.49 33.7 3.5 C 33.7 3.3 33.6 3.3 33.4 3.3 C 33.43 3.27 33 3.3 33 3.3 L 33 2.4 Z M 41.6 2.3 C 42.9 2.3 43.2 3.1 43.2 3.1 C 43.24 3.11 43.3 3.1 43.3 3.1 C 43.3 3.1 43.26 3.03 43.3 2.9 C 43.3 2.7 43.4 2.4 43.8 2.4 C 43.82 2.44 44.8 2.4 44.8 2.4 L 44.8 3.3 C 44.8 3.3 44.36 3.27 44.4 3.3 C 44.2 3.3 44.1 3.3 44.1 3.5 C 44.1 3.5 44.1 7.3 44.1 7.3 C 44.1 9 42.9 9.6 41.6 9.6 C 41 9.6 40.4 9.4 39.9 9.2 C 39.86 9.18 40.2 8.4 40.2 8.4 C 40.2 8.4 40.81 8.74 41.6 8.7 C 42.5 8.7 43.2 8.4 43.2 7.3 C 43.2 7.3 43.2 7 43.2 7 C 43.17 6.83 43.2 6.7 43.2 6.7 C 43.2 6.7 43.17 6.67 43.2 6.7 C 42.9 7.2 42.4 7.4 41.7 7.4 C 40.3 7.4 39.4 6.3 39.4 4.8 C 39.4 3.4 40.2 2.3 41.6 2.3 Z M 43.2 4.9 C 43.2 3.5 42.6 3.2 41.8 3.2 C 40.9 3.2 40.4 3.8 40.4 4.8 C 40.4 5.9 40.9 6.6 41.9 6.6 C 42.6 6.6 43.2 6.2 43.2 4.9 Z M 47.5 0.1 L 48.4 0.1 L 45.9 7.9 L 45 7.9 L 47.5 0.1 Z " stroke="none" fill="#000"/>  </g></svg>