<?xml version="1.0" standalone="no"?><!DOCTYPE svg PUBLIC "-//W3C//DTD SVG 1.1//EN" "http://www.w3.org/Graphics/SVG/1.1/DTD/svg11.dtd"><svg xmlns="http://www.w3.org/2000/svg" version="1.1" width="526.1px" height="43.5px" viewBox="0 -5 526.1 43.5" style="top:-5px">  <desc>Metabolick profil</desc>  <defs/>  <g id="Polygon74264">    <path d="M 2.3 18.8 L 13.3 14 L 13.3 13.9 L 2.3 9.2 L 2.3 7.2 L 15.9 13.2 L 15.9 14.7 L 2.3 20.8 L 2.3 18.8 Z M 27 20.6 C 27 20.6 28.11 20.64 28.1 20.6 C 28.5 20.6 28.7 20.4 28.8 20 C 28.77 19.98 30.2 1.4 30.2 1.4 L 32.4 1.4 C 32.4 1.4 37.95 13.68 37.9 13.7 C 38.46 14.76 39 16.2 39 16.2 L 39.1 16.2 C 39.1 16.2 39.6 14.76 40.1 13.7 C 40.08 13.68 45.7 1.4 45.7 1.4 L 47.8 1.4 C 47.8 1.4 49.26 19.98 49.3 20 C 49.3 20.4 49.5 20.6 49.9 20.6 C 49.92 20.64 51.1 20.6 51.1 20.6 L 51.1 22.5 C 51.1 22.5 49.02 22.5 49 22.5 C 47.7 22.5 47.3 22 47.2 20.7 C 47.2 20.7 46.2 7.9 46.2 7.9 C 46.11 6.72 46.1 4.9 46.1 4.9 L 46 4.9 C 46 4.9 45.48 6.78 45 7.9 C 44.97 7.86 40 18.6 40 18.6 L 38.1 18.6 C 38.1 18.6 33.09 7.86 33.1 7.9 C 32.61 6.81 32 4.9 32 4.9 L 31.9 4.9 C 31.9 4.9 31.92 6.72 31.8 7.9 C 31.8 7.9 30.8 20.7 30.8 20.7 C 30.7 22 30.3 22.5 29 22.5 C 29.01 22.5 27 22.5 27 22.5 L 27 20.6 Z M 60.3 7.1 C 64.5 7.1 66.7 10.3 66.7 14 C 66.66 14.37 66.6 15 66.6 15 C 66.6 15 55.02 15.03 55 15 C 55.1 18.8 57.7 21 60.9 21 C 63.63 21.03 65.4 19.2 65.4 19.2 L 66.4 20.7 C 66.4 20.7 64.2 22.86 60.8 22.9 C 56.3 22.9 52.9 19.6 52.9 15 C 52.9 10 56.3 7.1 60.3 7.1 Z M 64.6 13.4 C 64.4 10.3 62.5 8.8 60.3 8.8 C 57.8 8.8 55.6 10.4 55.1 13.4 C 55.1 13.4 64.6 13.4 64.6 13.4 Z M 70.9 9.1 L 68.9 9.1 L 68.9 7.4 L 70.9 7.4 L 70.9 3.2 L 73 3.2 L 73 7.4 L 76.7 7.4 L 76.7 9.1 L 73 9.1 C 73 9.1 72.96 16.8 73 16.8 C 73 20.3 75.2 20.8 76.3 20.8 C 76.77 20.79 77 20.7 77 20.7 L 77 22.6 C 77 22.6 76.68 22.62 76.2 22.6 C 74.4 22.6 70.9 22.1 70.9 17 C 70.92 17.01 70.9 9.1 70.9 9.1 Z M 88.4 13.2 C 88.41 13.2 89.2 13.2 89.2 13.2 C 89.2 13.2 89.25 13.02 89.2 13 C 89.2 9.9 88.1 8.8 85.3 8.8 C 84.6 8.8 82.4 9 82.4 10.1 C 82.41 10.08 82.4 11 82.4 11 L 80.5 11 C 80.5 11 80.46 9.6 80.5 9.6 C 80.5 7.5 84.1 7.1 85.4 7.1 C 90.1 7.1 91.3 9.6 91.3 12.8 C 91.3 12.8 91.3 20.1 91.3 20.1 C 91.3 20.5 91.5 20.7 91.9 20.7 C 91.95 20.73 93.2 20.7 93.2 20.7 L 93.2 22.5 C 93.2 22.5 91.14 22.5 91.1 22.5 C 89.8 22.5 89.3 21.9 89.3 20.7 C 89.34 20.04 89.4 19.6 89.4 19.6 C 89.4 19.6 89.31 19.59 89.3 19.6 C 89.3 19.6 88.1 22.9 84.3 22.9 C 81.8 22.9 79.2 21.4 79.2 18.4 C 79.2 13.4 85.8 13.2 88.4 13.2 Z M 84.6 21.1 C 87.5 21.1 89.2 18.1 89.2 15.5 C 89.25 15.51 89.2 14.8 89.2 14.8 C 89.2 14.8 88.38 14.82 88.4 14.8 C 86 14.8 81.3 14.9 81.3 18.3 C 81.3 19.7 82.4 21.1 84.6 21.1 Z M 96.4 3.8 C 96.4 3.4 96.1 3.2 95.7 3.2 C 95.7 3.18 94.4 3.2 94.4 3.2 L 94.4 1.4 C 94.4 1.4 96.57 1.41 96.6 1.4 C 97.9 1.4 98.4 2 98.4 3.2 C 98.4 3.2 98.4 8.7 98.4 8.7 C 98.4 9.39 98.3 9.9 98.3 9.9 L 98.4 9.9 C 98.4 9.9 99.66 7.05 103.5 7.1 C 107.6 7.1 110.1 10.3 110.1 15 C 110.1 19.7 107.2 22.9 103.3 22.9 C 99.69 22.86 98.3 20 98.3 20 L 98.3 20 C 98.3 20 98.34 20.46 98.3 21.2 C 98.34 21.18 98.3 22.5 98.3 22.5 L 96.4 22.5 C 96.4 22.5 96.36 3.84 96.4 3.8 Z M 103.1 21.1 C 105.8 21.1 108 18.8 108 15 C 108 11.3 106 8.9 103.2 8.9 C 100.7 8.9 98.3 10.7 98.3 15 C 98.3 18 99.9 21.1 103.1 21.1 Z M 120.5 7.1 C 124.9 7.1 128.5 10.4 128.5 14.9 C 128.5 19.4 124.9 22.9 120.5 22.9 C 116.1 22.9 112.6 19.4 112.6 14.9 C 112.6 10.4 116.1 7.1 120.5 7.1 Z M 120.5 21 C 123.7 21 126.4 18.4 126.4 14.9 C 126.4 11.5 123.7 8.9 120.5 8.9 C 117.3 8.9 114.7 11.5 114.7 14.9 C 114.7 18.4 117.3 21 120.5 21 Z M 132 3.8 C 132 3.4 131.8 3.2 131.3 3.2 C 131.34 3.18 130.1 3.2 130.1 3.2 L 130.1 1.4 C 130.1 1.4 132.21 1.41 132.2 1.4 C 133.5 1.4 134 2 134 3.2 C 134 3.2 134 20.1 134 20.1 C 134 20.5 134.3 20.7 134.7 20.7 C 134.7 20.73 136 20.7 136 20.7 L 136 22.5 C 136 22.5 133.83 22.5 133.8 22.5 C 132.5 22.5 132 22 132 20.7 C 132 20.7 132 3.8 132 3.8 Z M 139.5 1.4 L 141.4 1.4 L 141.4 4 L 139.5 4 L 139.5 1.4 Z M 139.5 9.8 C 139.5 9.4 139.3 9.2 138.9 9.2 C 138.87 9.18 137.6 9.2 137.6 9.2 L 137.6 7.4 C 137.6 7.4 139.74 7.41 139.7 7.4 C 141 7.4 141.6 8 141.6 9.2 C 141.6 9.2 141.6 20.1 141.6 20.1 C 141.6 20.5 141.8 20.7 142.2 20.7 C 142.23 20.73 143.5 20.7 143.5 20.7 L 143.5 22.5 C 143.5 22.5 141.36 22.5 141.4 22.5 C 140.1 22.5 139.5 22 139.5 20.7 C 139.5 20.7 139.5 9.8 139.5 9.8 Z M 153.4 7.1 C 155.2 7.1 158.8 7.8 158.8 10.3 C 158.82 10.26 158.8 11.6 158.8 11.6 L 156.9 11.6 C 156.9 11.6 156.9 10.74 156.9 10.7 C 156.9 9.5 154.7 8.9 153.4 8.9 C 150.2 8.9 147.6 11.3 147.6 15 C 147.6 18.7 150.3 21 153.5 21 C 156.6 21 158.4 18.9 158.4 18.9 L 159.3 20.4 C 159.3 20.4 157.29 22.86 153.4 22.9 C 148.9 22.9 145.5 19.7 145.5 15 C 145.5 10.4 148.9 7.1 153.4 7.1 Z M 162.6 3.8 C 162.6 3.4 162.3 3.2 161.9 3.2 C 161.91 3.18 160.6 3.2 160.6 3.2 L 160.6 1.4 C 160.6 1.4 162.78 1.41 162.8 1.4 C 164.1 1.4 164.6 1.9 164.6 3.1 C 164.61 3.15 164.6 13.2 164.6 13.2 C 164.6 13.2 166.17 13.17 166.2 13.2 C 166.7 13.2 167.5 13 167.9 12.4 C 167.88 12.45 171.7 7.4 171.7 7.4 L 174.2 7.4 C 174.2 7.4 169.89 12.93 169.9 12.9 C 169.14 13.86 168.7 14 168.7 14 L 168.7 14.1 C 168.7 14.1 169.2 14.28 169.7 15.2 C 169.7 15.2 172.4 20.1 172.4 20.1 C 172.7 20.6 173 20.7 173.8 20.7 C 173.79 20.73 174.6 20.7 174.6 20.7 L 174.6 22.5 C 174.6 22.5 173.19 22.5 173.2 22.5 C 171.7 22.5 171.3 22.3 170.6 21 C 170.6 21 167.6 15.6 167.6 15.6 C 167.2 15 166.5 14.9 166 14.9 C 165.99 14.94 164.6 14.9 164.6 14.9 L 164.6 22.5 L 162.6 22.5 C 162.6 22.5 162.57 3.84 162.6 3.8 Z M 178.1 27 C 179.4 27 180.3 25.9 180.9 24.5 C 180.9 24.51 181.8 22.4 181.8 22.4 C 181.8 22.4 176.49 9.87 176.5 9.9 C 176.2 9.3 176 9.2 175.4 9.2 C 175.44 9.18 175.1 9.2 175.1 9.2 L 175.1 7.4 C 175.1 7.4 176.07 7.41 176.1 7.4 C 177.4 7.4 177.8 7.7 178.4 9.1 C 178.4 9.1 182.2 18.5 182.2 18.5 C 182.55 19.23 182.8 20.1 182.8 20.1 L 182.8 20.1 C 182.8 20.1 183.06 19.23 183.4 18.5 C 183.4 18.5 187.1 9.1 187.1 9.1 C 187.6 7.7 188 7.4 189.4 7.4 C 189.42 7.41 190.3 7.4 190.3 7.4 L 190.3 9.2 C 190.3 9.2 190.05 9.18 190 9.2 C 189.5 9.2 189.2 9.3 189 9.9 C 189 9.9 182.5 25.6 182.5 25.6 C 181.7 27.6 180.2 28.8 178.2 28.8 C 176.07 28.8 174.9 27.3 174.9 27.3 C 174.9 27.3 175.86 25.83 175.9 25.8 C 175.9 25.9 176.8 27 178.1 27 Z M 183.9 1.4 L 186.2 1.4 L 183.6 5 L 181.8 5 L 183.9 1.4 Z M 201.6 9.8 C 201.6 9.4 201.4 9.2 200.9 9.2 C 200.94 9.18 199.7 9.2 199.7 9.2 L 199.7 7.4 C 199.7 7.4 201.75 7.41 201.7 7.4 C 203 7.4 203.5 8 203.5 9 C 203.55 9.6 203.5 10 203.5 10 L 203.6 10 C 203.6 10 204.78 7.05 208.8 7.1 C 212.8 7.1 215.3 10.3 215.3 15 C 215.3 19.7 212.5 22.9 208.6 22.9 C 204.9 22.86 203.6 20 203.6 20 L 203.6 20 C 203.6 20 203.64 20.55 203.6 21.3 C 203.64 21.33 203.6 28.5 203.6 28.5 L 201.6 28.5 C 201.6 28.5 201.6 9.84 201.6 9.8 Z M 208.4 21.1 C 211 21.1 213.2 18.8 213.2 15 C 213.2 11.3 211.3 8.9 208.5 8.9 C 205.9 8.9 203.6 10.7 203.6 15 C 203.6 18 205.2 21.1 208.4 21.1 Z M 219.2 9.8 C 219.2 9.4 219 9.2 218.5 9.2 C 218.55 9.18 217.3 9.2 217.3 9.2 L 217.3 7.4 C 217.3 7.4 219.39 7.41 219.4 7.4 C 220.6 7.4 221.2 7.9 221.2 9.1 C 221.2 9.1 221.2 10.1 221.2 10.1 C 221.22 10.77 221.2 11.3 221.2 11.3 C 221.2 11.3 221.22 11.28 221.2 11.3 C 221.9 9 223.6 7.3 226 7.3 C 226.41 7.26 226.8 7.4 226.8 7.4 L 226.8 9.4 C 226.8 9.4 226.44 9.3 226 9.3 C 223.9 9.3 222.3 11 221.7 13.2 C 221.4 14.2 221.2 15.2 221.2 16.1 C 221.25 16.14 221.2 22.5 221.2 22.5 L 219.2 22.5 C 219.2 22.5 219.21 9.84 219.2 9.8 Z M 236 7.1 C 240.4 7.1 244 10.4 244 14.9 C 244 19.4 240.4 22.9 236 22.9 C 231.6 22.9 228.1 19.4 228.1 14.9 C 228.1 10.4 231.6 7.1 236 7.1 Z M 236 21 C 239.2 21 241.9 18.4 241.9 14.9 C 241.9 11.5 239.2 8.9 236 8.9 C 232.8 8.9 230.2 11.5 230.2 14.9 C 230.2 18.4 232.8 21 236 21 Z M 247.8 9.1 L 245.9 9.1 L 245.9 7.4 L 247.8 7.4 C 247.8 7.4 247.83 6.87 247.8 6.9 C 247.8 1.9 251.3 1.3 253 1.3 C 253.59 1.26 253.9 1.3 253.9 1.3 L 253.9 3.1 C 253.9 3.1 253.65 3.09 253.2 3.1 C 252.1 3.1 249.9 3.5 249.9 6.9 C 249.87 6.87 249.9 7.4 249.9 7.4 C 249.9 7.4 257.01 7.41 257 7.4 C 258.3 7.4 258.8 8 258.8 9.2 C 258.8 9.2 258.8 20.1 258.8 20.1 C 258.8 20.5 259.1 20.7 259.5 20.7 C 259.5 20.73 260.8 20.7 260.8 20.7 L 260.8 22.5 C 260.8 22.5 258.63 22.5 258.6 22.5 C 257.3 22.5 256.8 22 256.8 20.7 C 256.8 20.7 256.8 9.8 256.8 9.8 C 256.8 9.4 256.6 9.1 256.1 9.1 C 256.14 9.12 249.9 9.1 249.9 9.1 L 249.9 22.5 L 247.8 22.5 L 247.8 9.1 Z M 256.7 1.4 L 258.7 1.4 L 258.7 4 L 256.7 4 L 256.7 1.4 Z M 264.1 3.8 C 264.1 3.4 263.9 3.2 263.5 3.2 C 263.49 3.18 262.2 3.2 262.2 3.2 L 262.2 1.4 C 262.2 1.4 264.36 1.41 264.4 1.4 C 265.6 1.4 266.2 2 266.2 3.2 C 266.2 3.2 266.2 20.1 266.2 20.1 C 266.2 20.5 266.4 20.7 266.8 20.7 C 266.85 20.73 268.1 20.7 268.1 20.7 L 268.1 22.5 C 268.1 22.5 265.98 22.5 266 22.5 C 264.7 22.5 264.1 22 264.1 20.7 C 264.1 20.7 264.1 3.8 264.1 3.8 Z " stroke="none" fill="#ee3078"/>  </g></svg>