<?xml version="1.0" standalone="no"?><!DOCTYPE svg PUBLIC "-//W3C//DTD SVG 1.1//EN" "http://www.w3.org/Graphics/SVG/1.1/DTD/svg11.dtd"><svg xmlns="http://www.w3.org/2000/svg" version="1.1" width="150.2px" height="30.5px" viewBox="0 -3 150.2 30.5" style="top:-3px">  <desc>E2 estradiol</desc>  <defs/>  <g id="Polygon70540">    <path d="M 37.4 2.1 L 36.5 2.1 L 36.5 0.6 C 36.5 0.6 42.48 0.56 42.5 0.6 C 43.1 0.6 43.4 0.9 43.4 1.5 C 43.44 1.51 43.4 3 43.4 3 L 41.8 3 C 41.8 3 41.77 2.42 41.8 2.4 C 41.8 2.2 41.7 2.1 41.5 2.1 C 41.46 2.11 39.2 2.1 39.2 2.1 L 39.2 4.7 L 42.4 4.7 L 42.4 6.3 L 39.2 6.3 C 39.2 6.3 39.22 8.64 39.2 8.6 C 39.2 8.8 39.3 8.9 39.5 8.9 C 39.5 8.9 41.8 8.9 41.8 8.9 C 42 8.9 42.1 8.8 42.1 8.6 C 42.14 8.64 42.1 8 42.1 8 L 43.8 8 C 43.8 8 43.8 9.55 43.8 9.5 C 43.8 10.2 43.5 10.5 42.8 10.5 C 42.8 10.5 38.3 10.5 38.3 10.5 C 37.7 10.5 37.4 10.2 37.4 9.5 C 37.39 9.55 37.4 2.1 37.4 2.1 Z M 49.4 3.4 C 49.4 2.6 48.8 2.1 48 2.1 C 47.2 2.1 46.7 2.5 46.7 2.9 C 46.67 2.86 46.7 3.3 46.7 3.3 L 45 3.3 C 45 3.3 45.02 2.31 45 2.3 C 45 1 46.8 0.4 48 0.4 C 49.8 0.4 51.3 1.5 51.3 3.3 C 51.3 6.7 46.5 6.9 46.5 8.7 C 46.5 8.9 46.6 8.9 46.8 8.9 C 46.8 8.9 49.8 8.9 49.8 8.9 C 49.9 8.9 50.1 8.8 50.1 8.6 C 50.06 8.64 50.1 8 50.1 8 L 51.7 8 C 51.7 8 51.71 9.55 51.7 9.5 C 51.7 10.2 51.4 10.5 50.8 10.5 C 50.8 10.5 45.6 10.5 45.6 10.5 C 44.7 10.5 44.6 10.1 44.6 9.2 C 44.6 5.6 49.4 5.8 49.4 3.4 Z M 60 3.2 C 62.1 3.2 63.2 4.7 63.2 6.6 C 63.18 6.79 63.1 7.2 63.1 7.2 C 63.1 7.2 58.21 7.24 58.2 7.2 C 58.3 8.5 59.3 9.2 60.3 9.2 C 61.5 9.16 62.4 8.4 62.4 8.4 L 63.1 9.6 C 63.1 9.6 62 10.67 60.2 10.7 C 57.9 10.7 56.4 9 56.4 6.9 C 56.4 4.7 57.9 3.2 60 3.2 Z M 61.4 6 C 61.3 5.2 60.7 4.6 60 4.6 C 59.1 4.6 58.5 5.1 58.3 6 C 58.3 6 61.4 6 61.4 6 Z M 64.9 8.2 C 64.9 8.2 65.84 9.28 67.1 9.3 C 67.6 9.3 68 9.1 68 8.6 C 68 7.6 64.3 7.6 64.3 5.3 C 64.3 3.9 65.5 3.2 67 3.2 C 68 3.2 69.5 3.5 69.5 4.7 C 69.53 4.68 69.5 5.4 69.5 5.4 L 68 5.4 C 68 5.4 67.97 5.07 68 5.1 C 68 4.7 67.5 4.6 67.1 4.6 C 66.4 4.6 66 4.8 66 5.2 C 66 6.3 69.8 6.1 69.8 8.5 C 69.8 9.8 68.6 10.7 67.1 10.7 C 65.09 10.67 64.1 9.4 64.1 9.4 L 64.9 8.2 Z M 71.5 4.8 L 70.6 4.8 L 70.6 3.4 L 71.5 3.4 L 71.5 1.4 L 73.3 1.4 L 73.3 3.4 L 74.9 3.4 L 74.9 4.8 L 73.3 4.8 C 73.3 4.8 73.26 7.66 73.3 7.7 C 73.3 8.8 74.2 9 74.7 9 C 74.87 9 75 9 75 9 L 75 10.5 C 75 10.5 74.77 10.57 74.4 10.6 C 73.5 10.6 71.5 10.3 71.5 7.9 C 71.48 7.88 71.5 4.8 71.5 4.8 Z M 76.6 5.2 C 76.6 5 76.5 4.9 76.3 4.9 C 76.32 4.87 75.8 4.9 75.8 4.9 L 75.8 3.4 C 75.8 3.4 77.39 3.36 77.4 3.4 C 78 3.4 78.3 3.6 78.3 4.2 C 78.3 4.2 78.3 4.6 78.3 4.6 C 78.34 4.91 78.3 5.1 78.3 5.1 C 78.3 5.1 78.34 5.1 78.3 5.1 C 78.7 4.1 79.5 3.3 80.6 3.3 C 80.76 3.26 80.9 3.3 80.9 3.3 L 80.9 5 C 80.9 5 80.75 5.01 80.5 5 C 79.7 5 78.9 5.4 78.5 6.5 C 78.4 6.9 78.4 7.3 78.4 7.7 C 78.39 7.67 78.4 10.5 78.4 10.5 L 76.6 10.5 C 76.6 10.5 76.63 5.18 76.6 5.2 Z M 85.5 6 C 85.52 6.02 85.7 6 85.7 6 C 85.7 6 85.74 5.96 85.7 6 C 85.7 4.9 85.3 4.6 84.4 4.6 C 84.1 4.6 83.5 4.6 83.5 5 C 83.48 5.04 83.5 5.4 83.5 5.4 L 81.8 5.4 C 81.8 5.4 81.82 4.66 81.8 4.7 C 81.8 3.3 83.7 3.2 84.4 3.2 C 86.8 3.2 87.5 4.4 87.5 6 C 87.5 6 87.5 8.7 87.5 8.7 C 87.5 8.9 87.6 9 87.8 9 C 87.83 9 88.4 9 88.4 9 L 88.4 10.5 C 88.4 10.5 86.79 10.5 86.8 10.5 C 86.1 10.5 85.9 10.1 85.9 9.7 C 85.9 9.5 85.9 9.4 85.9 9.4 C 85.9 9.41 85.9 9.4 85.9 9.4 C 85.9 9.4 85.32 10.67 83.7 10.7 C 82.4 10.7 81.3 9.9 81.3 8.4 C 81.3 6.2 84.4 6 85.5 6 Z M 84.1 9.3 C 85.1 9.3 85.8 8.3 85.8 7.4 C 85.77 7.41 85.8 7.2 85.8 7.2 C 85.8 7.2 85.46 7.24 85.5 7.2 C 84.5 7.2 83.1 7.4 83.1 8.4 C 83.1 8.8 83.4 9.3 84.1 9.3 Z M 92.4 3.2 C 93.91 3.19 94.4 4.1 94.4 4.1 L 94.4 4.1 C 94.4 4.1 94.42 3.88 94.4 3.6 C 94.4 3.6 94.4 2.4 94.4 2.4 C 94.4 2.2 94.3 2.1 94.1 2.1 C 94.12 2.07 93.6 2.1 93.6 2.1 L 93.6 0.6 C 93.6 0.6 95.25 0.56 95.2 0.6 C 95.9 0.6 96.2 0.9 96.2 1.5 C 96.2 1.5 96.2 8.7 96.2 8.7 C 96.2 8.9 96.3 9 96.5 9 C 96.51 9 97.1 9 97.1 9 L 97.1 10.5 C 97.1 10.5 95.42 10.5 95.4 10.5 C 94.8 10.5 94.5 10.2 94.5 9.8 C 94.5 9.6 94.5 9.5 94.5 9.5 C 94.54 9.51 94.5 9.5 94.5 9.5 C 94.5 9.5 93.92 10.67 92.3 10.7 C 90.3 10.7 89.1 9.1 89.1 6.9 C 89.1 4.7 90.5 3.2 92.4 3.2 Z M 94.5 6.9 C 94.5 5.8 93.9 4.7 92.7 4.7 C 91.7 4.7 90.9 5.5 90.9 6.9 C 90.9 8.3 91.6 9.2 92.7 9.2 C 93.6 9.2 94.5 8.5 94.5 6.9 Z M 98.7 0.6 L 100.2 0.6 L 100.2 2.2 L 98.7 2.2 L 98.7 0.6 Z M 98.6 5.2 C 98.6 5 98.5 4.9 98.3 4.9 C 98.27 4.87 97.7 4.9 97.7 4.9 L 97.7 3.4 C 97.7 3.4 99.41 3.36 99.4 3.4 C 100.1 3.4 100.3 3.7 100.3 4.3 C 100.3 4.3 100.3 8.7 100.3 8.7 C 100.3 8.9 100.5 9 100.7 9 C 100.65 9 101.2 9 101.2 9 L 101.2 10.5 C 101.2 10.5 99.52 10.5 99.5 10.5 C 98.9 10.5 98.6 10.2 98.6 9.5 C 98.6 9.5 98.6 5.2 98.6 5.2 Z M 105.9 3.2 C 108.1 3.2 109.8 4.7 109.8 6.9 C 109.8 9.1 108.1 10.7 105.9 10.7 C 103.7 10.7 102 9.1 102 6.9 C 102 4.7 103.7 3.2 105.9 3.2 Z M 105.9 9.2 C 107.1 9.2 108 8.3 108 6.9 C 108 5.6 107.1 4.7 105.9 4.7 C 104.8 4.7 103.8 5.6 103.8 6.9 C 103.8 8.3 104.8 9.2 105.9 9.2 Z M 111.3 2.4 C 111.3 2.2 111.2 2.1 111 2.1 C 110.97 2.07 110.4 2.1 110.4 2.1 L 110.4 0.6 C 110.4 0.6 112.11 0.56 112.1 0.6 C 112.8 0.6 113.1 0.9 113.1 1.5 C 113.1 1.5 113.1 8.7 113.1 8.7 C 113.1 8.9 113.2 9 113.4 9 C 113.36 9 113.9 9 113.9 9 L 113.9 10.5 C 113.9 10.5 112.23 10.5 112.2 10.5 C 111.6 10.5 111.3 10.2 111.3 9.5 C 111.3 9.5 111.3 2.4 111.3 2.4 Z " stroke="none" fill="#5f0f50"/>  </g></svg>