<?xml version="1.0" standalone="no"?><!DOCTYPE svg PUBLIC "-//W3C//DTD SVG 1.1//EN" "http://www.w3.org/Graphics/SVG/1.1/DTD/svg11.dtd"><svg xmlns="http://www.w3.org/2000/svg" version="1.1" width="139px" height="30px" viewBox="0 -4 139 30" style="top:-4px">  <desc>Estradiol (E2)1 4</desc>  <defs/>  <g id="Polygon68764">    <path d="M 2.1 2.6 L 0.8 2.6 L 0.8 0.9 C 0.8 0.9 9.06 0.88 9.1 0.9 C 10 0.9 10.3 1.3 10.3 2.2 C 10.34 2.16 10.3 3.9 10.3 3.9 L 8.5 3.9 C 8.5 3.9 8.52 3.04 8.5 3 C 8.5 2.7 8.4 2.6 8.1 2.6 C 8.08 2.6 4.1 2.6 4.1 2.6 L 4.1 7 L 9 7 L 9 8.7 L 4.1 8.7 C 4.1 8.7 4.06 12.84 4.1 12.8 C 4.1 13.1 4.2 13.3 4.5 13.3 C 4.5 13.3 8.6 13.3 8.6 13.3 C 8.9 13.3 9.1 13.1 9.1 12.8 C 9.06 12.84 9.1 11.9 9.1 11.9 L 10.9 11.9 C 10.9 11.9 10.9 13.72 10.9 13.7 C 10.9 14.6 10.5 15 9.6 15 C 9.6 15 3.3 15 3.3 15 C 2.4 15 2.1 14.6 2.1 13.7 C 2.06 13.72 2.1 2.6 2.1 2.6 Z M 12.9 12.2 C 12.9 12.2 14.1 13.66 16 13.7 C 16.9 13.7 17.7 13.2 17.7 12.4 C 17.7 10.5 12.2 10.7 12.2 7.5 C 12.2 5.5 13.9 4.6 16 4.6 C 17.2 4.6 19.3 5.1 19.3 6.6 C 19.28 6.6 19.3 7.6 19.3 7.6 L 17.5 7.6 C 17.5 7.6 17.54 7.06 17.5 7.1 C 17.5 6.5 16.6 6.2 16 6.2 C 14.9 6.2 14.1 6.6 14.1 7.4 C 14.1 9.3 19.7 8.9 19.7 12.3 C 19.7 14.1 18.1 15.2 15.9 15.2 C 13.24 15.24 11.9 13.5 11.9 13.5 L 12.9 12.2 Z M 22.2 6.4 L 20.9 6.4 L 20.9 4.9 L 22.3 4.9 L 22.3 2.1 L 24.2 2.1 L 24.2 4.9 L 26.6 4.9 L 26.6 6.4 L 24.2 6.4 C 24.2 6.4 24.16 11.08 24.2 11.1 C 24.2 13.1 25.6 13.4 26.3 13.4 C 26.58 13.36 26.8 13.3 26.8 13.3 L 26.8 15 C 26.8 15 26.5 15.08 26.1 15.1 C 24.8 15.1 22.2 14.7 22.2 11.3 C 22.22 11.3 22.2 6.4 22.2 6.4 Z M 29.2 7 C 29.2 6.7 29 6.5 28.7 6.5 C 28.74 6.54 27.9 6.5 27.9 6.5 L 27.9 4.9 C 27.9 4.9 29.76 4.88 29.8 4.9 C 30.6 4.9 31.1 5.2 31.1 6.1 C 31.1 6.1 31.1 6.7 31.1 6.7 C 31.06 7.1 31 7.4 31 7.4 C 31 7.4 31.06 7.4 31.1 7.4 C 31.5 5.9 32.7 4.8 34.3 4.8 C 34.52 4.76 34.8 4.8 34.8 4.8 L 34.8 6.7 C 34.8 6.7 34.52 6.66 34.2 6.7 C 33 6.7 31.8 7.5 31.4 9 C 31.2 9.6 31.1 10.2 31.1 10.9 C 31.12 10.86 31.1 15 31.1 15 L 29.2 15 C 29.2 15 29.18 6.98 29.2 7 Z M 41.4 8.7 C 41.44 8.7 41.9 8.7 41.9 8.7 C 41.9 8.7 41.88 8.6 41.9 8.6 C 41.9 6.8 41.2 6.2 39.6 6.2 C 39.2 6.2 38 6.3 38 7 C 37.98 6.96 38 7.5 38 7.5 L 36.2 7.5 C 36.2 7.5 36.16 6.54 36.2 6.5 C 36.2 4.9 38.7 4.6 39.7 4.6 C 42.9 4.6 43.8 6.4 43.8 8.6 C 43.8 8.6 43.8 12.9 43.8 12.9 C 43.8 13.2 44 13.3 44.3 13.3 C 44.26 13.34 45.1 13.3 45.1 13.3 L 45.1 15 C 45.1 15 43.26 15 43.3 15 C 42.4 15 42 14.6 42 13.8 C 42 13.5 42 13.2 42 13.2 L 42 13.2 C 42 13.2 41.2 15.24 38.8 15.2 C 37 15.2 35.3 14.2 35.3 12.2 C 35.3 8.9 39.7 8.7 41.4 8.7 Z M 39.2 13.7 C 40.8 13.7 41.9 12 41.9 10.5 C 41.9 10.46 41.9 10.1 41.9 10.1 C 41.9 10.1 41.4 10.12 41.4 10.1 C 39.9 10.1 37.3 10.2 37.3 12.1 C 37.3 12.9 37.9 13.7 39.2 13.7 Z M 50.8 4.6 C 53.14 4.64 53.9 6.2 53.9 6.2 L 54 6.2 C 54 6.2 53.92 5.9 53.9 5.5 C 53.9 5.5 53.9 3 53.9 3 C 53.9 2.7 53.8 2.5 53.5 2.5 C 53.48 2.54 52.7 2.5 52.7 2.5 L 52.7 0.9 C 52.7 0.9 54.58 0.88 54.6 0.9 C 55.5 0.9 55.9 1.3 55.9 2.2 C 55.9 2.2 55.9 12.9 55.9 12.9 C 55.9 13.2 56 13.3 56.3 13.3 C 56.3 13.34 57.1 13.3 57.1 13.3 L 57.1 15 C 57.1 15 55.26 15 55.3 15 C 54.4 15 54 14.6 54 13.9 C 54.02 13.62 54 13.4 54 13.4 L 54 13.4 C 54 13.4 53.16 15.24 50.7 15.2 C 47.9 15.2 46.2 13.1 46.2 9.9 C 46.2 6.7 48.1 4.6 50.8 4.6 Z M 54 9.9 C 54 8.1 53 6.3 51.1 6.3 C 49.5 6.3 48.2 7.6 48.2 9.9 C 48.2 12.1 49.4 13.6 51.1 13.6 C 52.6 13.6 54 12.5 54 9.9 Z M 59.4 0.9 L 61.2 0.9 L 61.2 2.9 L 59.4 2.9 L 59.4 0.9 Z M 59.4 7 C 59.4 6.7 59.2 6.5 58.9 6.5 C 58.94 6.54 58.1 6.5 58.1 6.5 L 58.1 4.9 C 58.1 4.9 60.02 4.88 60 4.9 C 60.9 4.9 61.3 5.3 61.3 6.2 C 61.3 6.2 61.3 12.9 61.3 12.9 C 61.3 13.2 61.5 13.3 61.7 13.3 C 61.74 13.34 62.6 13.3 62.6 13.3 L 62.6 15 C 62.6 15 60.66 15 60.7 15 C 59.8 15 59.4 14.6 59.4 13.7 C 59.4 13.7 59.4 7 59.4 7 Z M 69.2 4.6 C 72.3 4.6 74.7 6.9 74.7 9.9 C 74.7 13 72.3 15.2 69.2 15.2 C 66.2 15.2 63.8 13 63.8 9.9 C 63.8 6.9 66.2 4.6 69.2 4.6 Z M 69.2 13.6 C 71.2 13.6 72.7 12 72.7 9.9 C 72.7 7.8 71.2 6.3 69.2 6.3 C 67.3 6.3 65.8 7.8 65.8 9.9 C 65.8 12 67.3 13.6 69.2 13.6 Z M 76.9 3 C 76.9 2.7 76.7 2.5 76.5 2.5 C 76.46 2.54 75.6 2.5 75.6 2.5 L 75.6 0.9 C 75.6 0.9 77.56 0.88 77.6 0.9 C 78.5 0.9 78.8 1.3 78.8 2.2 C 78.8 2.2 78.8 12.9 78.8 12.9 C 78.8 13.2 79 13.3 79.3 13.3 C 79.28 13.34 80.1 13.3 80.1 13.3 L 80.1 15 C 80.1 15 78.18 15 78.2 15 C 77.3 15 76.9 14.6 76.9 13.7 C 76.9 13.7 76.9 3 76.9 3 Z M 89.9 0.3 C 89.9 0.3 91.6 0.3 91.6 0.3 C 90.1 2.8 89.4 5.4 89.4 8.3 C 89.4 11.2 90.2 14.2 91.7 16.9 C 91.7 16.9 90 16.9 90 16.9 C 88.5 14.6 87.6 11.5 87.6 8.4 C 87.6 5.4 88.4 2.6 89.9 0.3 Z M 94.6 2.6 L 93.3 2.6 L 93.3 0.9 C 93.3 0.9 101.64 0.88 101.6 0.9 C 102.5 0.9 102.9 1.3 102.9 2.2 C 102.92 2.16 102.9 3.9 102.9 3.9 L 101.1 3.9 C 101.1 3.9 101.1 3.04 101.1 3 C 101.1 2.7 100.9 2.6 100.7 2.6 C 100.66 2.6 96.6 2.6 96.6 2.6 L 96.6 7 L 101.6 7 L 101.6 8.7 L 96.6 8.7 C 96.6 8.7 96.64 12.84 96.6 12.8 C 96.6 13.1 96.8 13.3 97.1 13.3 C 97.1 13.3 101.2 13.3 101.2 13.3 C 101.5 13.3 101.6 13.1 101.6 12.8 C 101.64 12.84 101.6 11.9 101.6 11.9 L 103.5 11.9 C 103.5 11.9 103.48 13.72 103.5 13.7 C 103.5 14.6 103.1 15 102.2 15 C 102.2 15 95.9 15 95.9 15 C 95 15 94.6 14.6 94.6 13.7 C 94.64 13.72 94.6 2.6 94.6 2.6 Z M 111.9 4.7 C 111.9 3.4 110.9 2.5 109.4 2.5 C 108.1 2.5 107.2 3.1 107.2 3.8 C 107.22 3.82 107.2 4.4 107.2 4.4 L 105.4 4.4 C 105.4 4.4 105.38 3.24 105.4 3.2 C 105.4 1.4 107.8 0.6 109.5 0.6 C 112.1 0.6 113.9 2.3 113.9 4.7 C 113.9 9.6 106.8 9.6 106.8 12.9 C 106.8 13.2 106.9 13.3 107.3 13.3 C 107.3 13.3 112.3 13.3 112.3 13.3 C 112.6 13.3 112.7 13.1 112.7 12.8 C 112.72 12.84 112.7 11.9 112.7 11.9 L 114.6 11.9 C 114.6 11.9 114.56 13.72 114.6 13.7 C 114.6 14.6 114.2 15 113.3 15 C 113.3 15 106 15 106 15 C 104.9 15 104.7 14.5 104.7 13.4 C 104.7 8.2 111.9 8.5 111.9 4.7 Z M 118.6 8.3 C 118.6 5.4 117.9 2.8 116.4 0.3 C 116.4 0.3 118.1 0.3 118.1 0.3 C 119.6 2.6 120.3 5.4 120.3 8.4 C 120.3 11.5 119.5 14.6 118 16.9 C 118 16.9 116.3 16.9 116.3 16.9 C 117.8 14.2 118.6 11.2 118.6 8.3 Z M 122.7 7.3 L 124.6 7.3 C 124.6 7.3 124.55 2.02 124.6 2 C 124.55 1.76 124.6 1.5 124.6 1.5 L 124.5 1.5 C 124.5 1.5 124.45 1.69 124.2 2 C 124.16 1.99 123.4 2.7 123.4 2.7 L 122.7 2 L 124.7 0.1 L 125.7 0.1 L 125.7 7.3 L 127.5 7.3 L 127.5 8.3 L 122.7 8.3 L 122.7 7.3 Z M 128.1 4.5 L 131.5 4.5 L 131.5 5.5 L 128.1 5.5 L 128.1 4.5 Z M 132.5 5.4 L 136.2 0.1 L 137.6 0.1 L 137.6 5.2 L 138.8 5.2 L 138.8 6.2 L 137.6 6.2 L 137.6 8.3 L 136.4 8.3 L 136.4 6.2 L 132.5 6.2 L 132.5 5.4 Z M 136.4 2.3 C 136.4 1.95 136.4 1.5 136.4 1.5 L 136.4 1.5 C 136.4 1.5 136.21 1.88 136 2.2 C 136 2.2 134.2 4.6 134.2 4.6 C 134 4.94 133.8 5.2 133.8 5.2 L 133.8 5.2 C 133.8 5.2 134.11 5.16 134.5 5.2 C 134.48 5.16 136.4 5.2 136.4 5.2 C 136.4 5.2 136.4 2.32 136.4 2.3 Z " stroke="none" fill="#ee3078"/>  </g></svg>