<?xml version="1.0" standalone="no"?><!DOCTYPE svg PUBLIC "-//W3C//DTD SVG 1.1//EN" "http://www.w3.org/Graphics/SVG/1.1/DTD/svg11.dtd"><svg xmlns="http://www.w3.org/2000/svg" version="1.1" width="705.3px" height="107px" viewBox="0 -5 705.3 107" style="top:-5px">  <desc>ANTAGONISTA na membr nov ch ERα Blokuje membr nov estrog nov receptor α1,2,3 Na rozdiel od in ch estrog nov m neut...</desc>  <defs/>  <g id="Polygon67868">    <path d="M 203.4 86.3 C 203.4 86.3 203.87 86.27 203.9 86.3 C 204 86.3 204.1 86.2 204.1 86 C 204.13 86 204.7 78.6 204.7 78.6 L 205.6 78.6 C 205.6 78.6 207.81 83.48 207.8 83.5 C 208.01 83.92 208.2 84.5 208.2 84.5 L 208.2 84.5 C 208.2 84.5 208.47 83.92 208.7 83.5 C 208.66 83.48 210.9 78.6 210.9 78.6 L 211.7 78.6 C 211.7 78.6 212.33 86 212.3 86 C 212.3 86.2 212.4 86.3 212.6 86.3 C 212.59 86.27 213 86.3 213 86.3 L 213 87 C 213 87 212.23 87.01 212.2 87 C 211.7 87 211.5 86.8 211.5 86.3 C 211.5 86.3 211.1 81.2 211.1 81.2 C 211.07 80.7 211.1 80 211.1 80 L 211 80 C 211 80 210.82 80.72 210.6 81.2 C 210.61 81.16 208.6 85.4 208.6 85.4 L 207.9 85.4 C 207.9 85.4 205.86 81.16 205.9 81.2 C 205.67 80.74 205.4 80 205.4 80 L 205.4 80 C 205.4 80 205.39 80.7 205.4 81.2 C 205.4 81.2 205 86.3 205 86.3 C 204.9 86.8 204.7 87 204.2 87 C 204.23 87.01 203.4 87 203.4 87 L 203.4 86.3 Z M 217.5 83.3 C 217.48 83.29 217.8 83.3 217.8 83.3 C 217.8 83.3 217.81 83.22 217.8 83.2 C 217.8 82 217.4 81.5 216.3 81.5 C 216 81.5 215.1 81.6 215.1 82 C 215.08 82.04 215.1 82.4 215.1 82.4 L 214.3 82.4 C 214.3 82.4 214.3 81.85 214.3 81.9 C 214.3 81 215.7 80.8 216.3 80.8 C 218.2 80.8 218.6 81.9 218.6 83.1 C 218.6 83.1 218.6 86 218.6 86 C 218.6 86.2 218.7 86.3 218.9 86.3 C 218.89 86.3 219.4 86.3 219.4 86.3 L 219.4 87 C 219.4 87 218.57 87.01 218.6 87 C 218.1 87 217.8 86.8 217.8 86.3 C 217.8 86 217.9 85.8 217.9 85.8 C 217.9 85.8 217.8 85.8 217.8 85.8 C 217.8 85.8 217.3 87.2 215.8 87.2 C 214.8 87.2 213.8 86.6 213.8 85.4 C 213.8 83.4 216.4 83.3 217.5 83.3 Z M 216 86.5 C 217.1 86.5 217.8 85.3 217.8 84.2 C 217.81 84.22 217.8 83.9 217.8 83.9 C 217.8 83.9 217.47 83.94 217.5 83.9 C 216.5 83.9 214.6 84 214.6 85.3 C 214.6 85.9 215.1 86.5 216 86.5 Z M 216.9 78.6 L 217.8 78.6 L 216.8 80 L 216.1 80 L 216.9 78.6 Z M 224 81.9 C 224 81.8 223.9 81.7 223.7 81.7 C 223.69 81.68 223.2 81.7 223.2 81.7 L 223.2 81 C 223.2 81 224.03 80.98 224 81 C 224.5 81 224.8 81.2 224.8 81.6 C 224.8 81.6 224.8 81.9 224.8 81.9 C 224.76 82.16 224.7 82.4 224.7 82.4 C 224.7 82.4 224.76 82.36 224.8 82.4 C 225.1 81.5 226 80.8 226.9 80.8 C 228.1 80.8 228.6 81.3 228.8 82.3 C 228.8 82.3 228.8 82.3 228.8 82.3 C 229.2 81.5 230 80.8 231.1 80.8 C 232.5 80.8 233.1 81.7 233.1 83.2 C 233.1 83.2 233.1 86 233.1 86 C 233.1 86.2 233.2 86.3 233.3 86.3 C 233.33 86.3 233.8 86.3 233.8 86.3 L 233.8 87 C 233.8 87 232.98 87.01 233 87 C 232.5 87 232.2 86.8 232.2 86.3 C 232.2 86.3 232.2 83.4 232.2 83.4 C 232.2 82.4 232 81.6 230.9 81.6 C 230 81.6 229.3 82.4 229 83.3 C 228.9 83.5 228.9 83.8 228.9 84.2 C 228.92 84.16 228.9 87 228.9 87 L 228.1 87 C 228.1 87 228.11 83.38 228.1 83.4 C 228.1 82.5 228 81.6 226.8 81.6 C 225.9 81.6 225.1 82.4 224.9 83.4 C 224.8 83.6 224.8 83.9 224.8 84.2 C 224.77 84.16 224.8 87 224.8 87 L 224 87 C 224 87 223.96 81.95 224 81.9 Z M 238.3 83.3 C 238.26 83.29 238.6 83.3 238.6 83.3 C 238.6 83.3 238.6 83.22 238.6 83.2 C 238.6 82 238.1 81.5 237 81.5 C 236.7 81.5 235.9 81.6 235.9 82 C 235.86 82.04 235.9 82.4 235.9 82.4 L 235.1 82.4 C 235.1 82.4 235.08 81.85 235.1 81.9 C 235.1 81 236.5 80.8 237 80.8 C 239 80.8 239.4 81.9 239.4 83.1 C 239.4 83.1 239.4 86 239.4 86 C 239.4 86.2 239.5 86.3 239.7 86.3 C 239.68 86.3 240.2 86.3 240.2 86.3 L 240.2 87 C 240.2 87 239.35 87.01 239.4 87 C 238.8 87 238.6 86.8 238.6 86.3 C 238.6 86 238.6 85.8 238.6 85.8 C 238.6 85.8 238.6 85.8 238.6 85.8 C 238.6 85.8 238.1 87.2 236.6 87.2 C 235.6 87.2 234.6 86.6 234.6 85.4 C 234.6 83.4 237.2 83.3 238.3 83.3 Z M 236.7 86.5 C 237.9 86.5 238.6 85.3 238.6 84.2 C 238.6 84.22 238.6 83.9 238.6 83.9 C 238.6 83.9 238.25 83.94 238.2 83.9 C 237.3 83.9 235.4 84 235.4 85.3 C 235.4 85.9 235.8 86.5 236.7 86.5 Z M 241.5 79.5 C 241.5 79.4 241.4 79.3 241.2 79.3 C 241.2 79.28 240.7 79.3 240.7 79.3 L 240.7 78.6 C 240.7 78.6 241.55 78.58 241.5 78.6 C 242.1 78.6 242.3 78.8 242.3 79.3 C 242.3 79.3 242.3 86 242.3 86 C 242.3 86.2 242.4 86.3 242.5 86.3 C 242.54 86.3 243 86.3 243 86.3 L 243 87 C 243 87 242.2 87.01 242.2 87 C 241.7 87 241.5 86.8 241.5 86.3 C 241.5 86.3 241.5 79.5 241.5 79.5 Z M 244.8 88.8 C 245.3 88.8 245.6 88.4 245.9 87.8 C 245.87 87.82 246.2 87 246.2 87 C 246.2 87 244.11 81.96 244.1 82 C 244 81.7 243.9 81.7 243.7 81.7 C 243.69 81.68 243.6 81.7 243.6 81.7 L 243.6 81 C 243.6 81 243.94 80.98 243.9 81 C 244.5 81 244.6 81.1 244.9 81.6 C 244.9 81.6 246.4 85.4 246.4 85.4 C 246.53 85.7 246.6 86.1 246.6 86.1 L 246.6 86.1 C 246.6 86.1 246.73 85.7 246.9 85.4 C 246.9 85.4 248.3 81.6 248.3 81.6 C 248.5 81.1 248.7 81 249.3 81 C 249.28 80.98 249.6 81 249.6 81 L 249.6 81.7 C 249.6 81.7 249.53 81.68 249.5 81.7 C 249.3 81.7 249.2 81.7 249.1 82 C 249.1 82 246.5 88.3 246.5 88.3 C 246.2 89 245.6 89.5 244.8 89.5 C 243.94 89.53 243.5 88.9 243.5 88.9 C 243.5 88.9 243.85 88.34 243.9 88.3 C 243.9 88.4 244.2 88.8 244.8 88.8 Z M 247.1 78.6 L 248 78.6 L 246.9 80 L 246.2 80 L 247.1 78.6 Z M 253.8 82 C 253.7 81.7 253.6 81.7 253.4 81.7 C 253.38 81.68 253.3 81.7 253.3 81.7 L 253.3 81 C 253.3 81 253.6 80.98 253.6 81 C 254.2 81 254.4 81.1 254.6 81.6 C 254.6 81.6 256 85.4 256 85.4 C 256.12 85.7 256.2 86.1 256.2 86.1 L 256.2 86.1 C 256.2 86.1 256.33 85.7 256.4 85.4 C 256.4 85.4 257.9 81.6 257.9 81.6 C 258.1 81.1 258.3 81 258.8 81 C 258.84 80.98 259.2 81 259.2 81 L 259.2 81.7 C 259.2 81.7 259.04 81.68 259 81.7 C 258.8 81.7 258.7 81.7 258.6 82 C 258.62 81.96 256.7 87 256.7 87 L 255.8 87 C 255.8 87 253.8 81.96 253.8 82 Z M 260.4 81.9 C 260.4 81.8 260.3 81.7 260.1 81.7 C 260.1 81.68 259.6 81.7 259.6 81.7 L 259.6 81 C 259.6 81 260.42 80.98 260.4 81 C 260.9 81 261.1 81.2 261.1 81.6 C 261.1 81.9 261.1 82 261.1 82 C 261.13 82.02 261.2 82 261.2 82 C 261.2 82 261.64 80.83 263.2 80.8 C 264.9 80.8 265.9 82.1 265.9 84 C 265.9 85.9 264.7 87.2 263.2 87.2 C 261.68 87.16 261.2 86 261.2 86 L 261.2 86 C 261.2 86 261.18 86.23 261.2 86.5 C 261.18 86.54 261.2 89.4 261.2 89.4 L 260.4 89.4 C 260.4 89.4 260.36 81.95 260.4 81.9 Z M 263.1 86.4 C 264.1 86.4 265 85.5 265 84 C 265 82.5 264.2 81.6 263.1 81.6 C 262.1 81.6 261.2 82.3 261.2 84 C 261.2 85.2 261.8 86.4 263.1 86.4 Z M 267.3 79.5 C 267.3 79.4 267.2 79.3 267 79.3 C 267.02 79.28 266.5 79.3 266.5 79.3 L 266.5 78.6 C 266.5 78.6 267.37 78.58 267.4 78.6 C 267.9 78.6 268.1 78.8 268.1 79.3 C 268.1 79.3 268.1 86 268.1 86 C 268.1 86.2 268.2 86.3 268.4 86.3 C 268.37 86.3 268.9 86.3 268.9 86.3 L 268.9 87 C 268.9 87 268.02 87.01 268 87 C 267.5 87 267.3 86.8 267.3 86.3 C 267.3 86.3 267.3 79.5 267.3 79.5 Z M 270.6 88.8 C 271.1 88.8 271.5 88.4 271.7 87.8 C 271.69 87.82 272.1 87 272.1 87 C 272.1 87 269.93 81.96 269.9 82 C 269.8 81.7 269.7 81.7 269.5 81.7 C 269.51 81.68 269.4 81.7 269.4 81.7 L 269.4 81 C 269.4 81 269.76 80.98 269.8 81 C 270.3 81 270.5 81.1 270.7 81.6 C 270.7 81.6 272.2 85.4 272.2 85.4 C 272.35 85.7 272.4 86.1 272.4 86.1 L 272.5 86.1 C 272.5 86.1 272.56 85.7 272.7 85.4 C 272.7 85.4 274.2 81.6 274.2 81.6 C 274.4 81.1 274.5 81 275.1 81 C 275.1 80.98 275.5 81 275.5 81 L 275.5 81.7 C 275.5 81.7 275.35 81.68 275.4 81.7 C 275.1 81.7 275 81.7 274.9 82 C 274.9 82 272.3 88.3 272.3 88.3 C 272 89 271.4 89.5 270.6 89.5 C 269.76 89.53 269.3 88.9 269.3 88.9 C 269.3 88.9 269.68 88.34 269.7 88.3 C 269.7 88.4 270.1 88.8 270.6 88.8 Z M 276.4 82 C 276.3 81.7 276.2 81.7 275.9 81.7 C 275.94 81.68 275.8 81.7 275.8 81.7 L 275.8 81 C 275.8 81 276.16 80.98 276.2 81 C 276.7 81 276.9 81.1 277.1 81.6 C 277.1 81.6 278.6 85.4 278.6 85.4 C 278.68 85.7 278.8 86.1 278.8 86.1 L 278.8 86.1 C 278.8 86.1 278.89 85.7 279 85.4 C 279 85.4 280.5 81.6 280.5 81.6 C 280.7 81.1 280.8 81 281.4 81 C 281.4 80.98 281.7 81 281.7 81 L 281.7 81.7 C 281.7 81.7 281.6 81.68 281.6 81.7 C 281.4 81.7 281.3 81.7 281.2 82 C 281.18 81.96 279.2 87 279.2 87 L 278.3 87 C 278.3 87 276.36 81.96 276.4 82 Z M 286.2 81.9 C 286.2 81.8 286.1 81.7 285.9 81.7 C 285.92 81.68 285.4 81.7 285.4 81.7 L 285.4 81 C 285.4 81 286.26 80.98 286.3 81 C 286.8 81 287 81.2 287 81.6 C 287 81.6 287 81.9 287 81.9 C 286.99 82.16 287 82.4 287 82.4 C 287 82.4 286.99 82.36 287 82.4 C 287.2 81.8 288 80.8 289.4 80.8 C 290.9 80.8 291.4 81.7 291.4 83.2 C 291.4 83.2 291.4 86 291.4 86 C 291.4 86.2 291.5 86.3 291.7 86.3 C 291.68 86.3 292.2 86.3 292.2 86.3 L 292.2 87 C 292.2 87 291.34 87.01 291.3 87 C 290.8 87 290.6 86.8 290.6 86.3 C 290.6 86.3 290.6 83.4 290.6 83.4 C 290.6 82.4 290.5 81.6 289.3 81.6 C 288.3 81.6 287.4 82.3 287.1 83.3 C 287 83.6 287 83.8 287 84.1 C 287 84.12 287 87 287 87 L 286.2 87 C 286.2 87 286.19 81.95 286.2 81.9 Z M 296.6 83.3 C 296.62 83.29 297 83.3 297 83.3 C 297 83.3 296.95 83.22 297 83.2 C 297 82 296.5 81.5 295.4 81.5 C 295.1 81.5 294.2 81.6 294.2 82 C 294.21 82.04 294.2 82.4 294.2 82.4 L 293.4 82.4 C 293.4 82.4 293.44 81.85 293.4 81.9 C 293.4 81 294.9 80.8 295.4 80.8 C 297.3 80.8 297.8 81.9 297.8 83.1 C 297.8 83.1 297.8 86 297.8 86 C 297.8 86.2 297.9 86.3 298 86.3 C 298.03 86.3 298.5 86.3 298.5 86.3 L 298.5 87 C 298.5 87 297.71 87.01 297.7 87 C 297.2 87 297 86.8 297 86.3 C 297 86 297 85.8 297 85.8 C 297 85.8 297 85.8 297 85.8 C 297 85.8 296.5 87.2 295 87.2 C 294 87.2 292.9 86.6 292.9 85.4 C 292.9 83.4 295.6 83.3 296.6 83.3 Z M 295.1 86.5 C 296.3 86.5 297 85.3 297 84.2 C 296.95 84.22 297 83.9 297 83.9 C 297 83.9 296.6 83.94 296.6 83.9 C 295.7 83.9 293.8 84 293.8 85.3 C 293.8 85.9 294.2 86.5 295.1 86.5 Z M 303.1 81.9 C 303.1 81.8 303 81.7 302.8 81.7 C 302.83 81.68 302.3 81.7 302.3 81.7 L 302.3 81 C 302.3 81 303.17 80.98 303.2 81 C 303.7 81 303.9 81.2 303.9 81.6 C 303.9 81.6 303.9 81.9 303.9 81.9 C 303.9 82.16 303.9 82.4 303.9 82.4 C 303.9 82.4 303.9 82.36 303.9 82.4 C 304.1 81.8 304.9 80.8 306.3 80.8 C 307.8 80.8 308.3 81.7 308.3 83.2 C 308.3 83.2 308.3 86 308.3 86 C 308.3 86.2 308.4 86.3 308.6 86.3 C 308.59 86.3 309.1 86.3 309.1 86.3 L 309.1 87 C 309.1 87 308.24 87.01 308.2 87 C 307.7 87 307.5 86.8 307.5 86.3 C 307.5 86.3 307.5 83.4 307.5 83.4 C 307.5 82.4 307.4 81.6 306.2 81.6 C 305.2 81.6 304.3 82.3 304 83.3 C 303.9 83.6 303.9 83.8 303.9 84.1 C 303.91 84.12 303.9 87 303.9 87 L 303.1 87 C 303.1 87 303.1 81.95 303.1 81.9 Z M 313 80.8 C 314.8 80.8 316.2 82.2 316.2 84 C 316.2 85.8 314.8 87.2 313 87.2 C 311.3 87.2 309.8 85.8 309.8 84 C 309.8 82.2 311.3 80.8 313 80.8 Z M 313 86.4 C 314.3 86.4 315.4 85.4 315.4 84 C 315.4 82.6 314.3 81.6 313 81.6 C 311.7 81.6 310.7 82.6 310.7 84 C 310.7 85.4 311.7 86.4 313 86.4 Z M 317.7 81.9 C 317.7 81.8 317.6 81.7 317.5 81.7 C 317.46 81.68 317 81.7 317 81.7 L 317 81 C 317 81 317.8 80.98 317.8 81 C 318.3 81 318.5 81.2 318.5 81.7 C 318.5 81.7 318.5 82.1 318.5 82.1 C 318.53 82.32 318.5 82.5 318.5 82.5 C 318.5 82.5 318.53 82.52 318.5 82.5 C 318.8 81.6 319.5 80.9 320.4 80.9 C 320.6 80.9 320.8 81 320.8 81 C 320.76 80.95 320.8 81.8 320.8 81.8 C 320.8 81.8 320.61 81.73 320.5 81.7 C 319.6 81.7 319 82.4 318.7 83.3 C 318.6 83.7 318.5 84.1 318.5 84.5 C 318.54 84.47 318.5 87 318.5 87 L 317.7 87 C 317.7 87 317.72 81.95 317.7 81.9 Z M 322.2 81.9 C 322.2 81.8 322.1 81.7 321.9 81.7 C 321.89 81.68 321.4 81.7 321.4 81.7 L 321.4 81 C 321.4 81 322.22 80.98 322.2 81 C 322.7 81 323 81.2 323 81.6 C 323 81.6 323 81.9 323 81.9 C 322.95 82.16 322.9 82.4 322.9 82.4 C 322.9 82.4 322.95 82.36 323 82.4 C 323.3 81.5 324.2 80.8 325.1 80.8 C 326.3 80.8 326.8 81.3 327 82.3 C 327 82.3 327 82.3 327 82.3 C 327.4 81.5 328.2 80.8 329.3 80.8 C 330.7 80.8 331.3 81.7 331.3 83.2 C 331.3 83.2 331.3 86 331.3 86 C 331.3 86.2 331.4 86.3 331.5 86.3 C 331.52 86.3 332 86.3 332 86.3 L 332 87 C 332 87 331.17 87.01 331.2 87 C 330.7 87 330.4 86.8 330.4 86.3 C 330.4 86.3 330.4 83.4 330.4 83.4 C 330.4 82.4 330.2 81.6 329.1 81.6 C 328.2 81.6 327.5 82.4 327.2 83.3 C 327.1 83.5 327.1 83.8 327.1 84.2 C 327.12 84.16 327.1 87 327.1 87 L 326.3 87 C 326.3 87 326.3 83.38 326.3 83.4 C 326.3 82.5 326.2 81.6 325 81.6 C 324 81.6 323.3 82.4 323.1 83.4 C 323 83.6 323 83.9 323 84.2 C 322.97 84.16 323 87 323 87 L 322.2 87 C 322.2 87 322.15 81.95 322.2 81.9 Z M 336.5 83.3 C 336.46 83.29 336.8 83.3 336.8 83.3 C 336.8 83.3 336.79 83.22 336.8 83.2 C 336.8 82 336.3 81.5 335.2 81.5 C 334.9 81.5 334.1 81.6 334.1 82 C 334.05 82.04 334.1 82.4 334.1 82.4 L 333.3 82.4 C 333.3 82.4 333.28 81.85 333.3 81.9 C 333.3 81 334.7 80.8 335.2 80.8 C 337.2 80.8 337.6 81.9 337.6 83.1 C 337.6 83.1 337.6 86 337.6 86 C 337.6 86.2 337.7 86.3 337.9 86.3 C 337.87 86.3 338.4 86.3 338.4 86.3 L 338.4 87 C 338.4 87 337.55 87.01 337.5 87 C 337 87 336.8 86.8 336.8 86.3 C 336.8 86 336.8 85.8 336.8 85.8 C 336.8 85.8 336.8 85.8 336.8 85.8 C 336.8 85.8 336.3 87.2 334.8 87.2 C 333.8 87.2 332.8 86.6 332.8 85.4 C 332.8 83.4 335.4 83.3 336.5 83.3 Z M 334.9 86.5 C 336.1 86.5 336.8 85.3 336.8 84.2 C 336.79 84.22 336.8 83.9 336.8 83.9 C 336.8 83.9 336.44 83.94 336.4 83.9 C 335.5 83.9 333.6 84 333.6 85.3 C 333.6 85.9 334 86.5 334.9 86.5 Z M 335.9 78.6 L 336.8 78.6 L 335.7 80 L 335 80 L 335.9 78.6 Z M 339.7 79.5 C 339.7 79.4 339.6 79.3 339.4 79.3 C 339.4 79.28 338.9 79.3 338.9 79.3 L 338.9 78.6 C 338.9 78.6 339.74 78.58 339.7 78.6 C 340.3 78.6 340.5 78.8 340.5 79.3 C 340.5 79.3 340.5 86 340.5 86 C 340.5 86.2 340.6 86.3 340.7 86.3 C 340.74 86.3 341.2 86.3 341.2 86.3 L 341.2 87 C 341.2 87 340.39 87.01 340.4 87 C 339.9 87 339.7 86.8 339.7 86.3 C 339.7 86.3 339.7 79.5 339.7 79.5 Z M 342.6 81.9 C 342.6 81.8 342.5 81.7 342.3 81.7 C 342.35 81.68 341.8 81.7 341.8 81.7 L 341.8 81 C 341.8 81 342.68 80.98 342.7 81 C 343.2 81 343.4 81.2 343.4 81.6 C 343.4 81.6 343.4 81.9 343.4 81.9 C 343.41 82.16 343.4 82.4 343.4 82.4 C 343.4 82.4 343.41 82.36 343.4 82.4 C 343.6 81.8 344.4 80.8 345.8 80.8 C 347.3 80.8 347.8 81.7 347.8 83.2 C 347.8 83.2 347.8 86 347.8 86 C 347.8 86.2 347.9 86.3 348.1 86.3 C 348.11 86.3 348.6 86.3 348.6 86.3 L 348.6 87 C 348.6 87 347.76 87.01 347.8 87 C 347.2 87 347 86.8 347 86.3 C 347 86.3 347 83.4 347 83.4 C 347 82.4 346.9 81.6 345.7 81.6 C 344.7 81.6 343.8 82.3 343.5 83.3 C 343.4 83.6 343.4 83.8 343.4 84.1 C 343.43 84.12 343.4 87 343.4 87 L 342.6 87 C 342.6 87 342.61 81.95 342.6 81.9 Z M 352.3 80.8 C 354 80.8 354.8 82.1 354.8 83.6 C 354.85 83.76 354.8 84 354.8 84 C 354.8 84 350.19 84.02 350.2 84 C 350.2 85.5 351.3 86.4 352.5 86.4 C 353.64 86.42 354.3 85.7 354.3 85.7 L 354.7 86.3 C 354.7 86.3 353.87 87.16 352.5 87.2 C 350.7 87.2 349.3 85.9 349.3 84 C 349.3 82 350.7 80.8 352.3 80.8 Z M 354 83.4 C 354 82.1 353.2 81.5 352.3 81.5 C 351.3 81.5 350.4 82.2 350.2 83.4 C 350.2 83.4 354 83.4 354 83.4 Z M 362.9 83.3 C 362.88 83.29 363.2 83.3 363.2 83.3 C 363.2 83.3 363.22 83.22 363.2 83.2 C 363.2 82 362.8 81.5 361.7 81.5 C 361.4 81.5 360.5 81.6 360.5 82 C 360.48 82.04 360.5 82.4 360.5 82.4 L 359.7 82.4 C 359.7 82.4 359.7 81.85 359.7 81.9 C 359.7 81 361.1 80.8 361.7 80.8 C 363.6 80.8 364 81.9 364 83.1 C 364 83.1 364 86 364 86 C 364 86.2 364.1 86.3 364.3 86.3 C 364.29 86.3 364.8 86.3 364.8 86.3 L 364.8 87 C 364.8 87 363.97 87.01 364 87 C 363.5 87 363.3 86.8 363.3 86.3 C 363.3 86 363.3 85.8 363.3 85.8 C 363.3 85.8 363.2 85.8 363.2 85.8 C 363.3 85.8 362.7 87.2 361.2 87.2 C 360.2 87.2 359.2 86.6 359.2 85.4 C 359.2 83.4 361.8 83.3 362.9 83.3 Z M 361.4 86.5 C 362.5 86.5 363.2 85.3 363.2 84.2 C 363.22 84.22 363.2 83.9 363.2 83.9 C 363.2 83.9 362.87 83.94 362.9 83.9 C 361.9 83.9 360 84 360 85.3 C 360 85.9 360.5 86.5 361.4 86.5 Z M 366.4 78.6 L 367.2 78.6 L 367.2 79.6 L 366.4 79.6 L 366.4 78.6 Z M 365.1 88.8 C 365.5 88.8 366.4 88.6 366.4 87.2 C 366.4 87.2 366.4 81.9 366.4 81.9 C 366.4 81.8 366.3 81.7 366.2 81.7 C 366.17 81.68 365.7 81.7 365.7 81.7 L 365.7 81 C 365.7 81 366.51 80.98 366.5 81 C 367 81 367.2 81.2 367.2 81.7 C 367.2 81.7 367.2 87.2 367.2 87.2 C 367.2 89.2 365.8 89.5 365.1 89.5 C 364.9 89.5 364.8 89.4 364.8 89.4 C 364.8 89.45 364.8 88.7 364.8 88.7 C 364.8 88.7 364.91 88.75 365.1 88.8 Z M 372.6 81.9 C 372.6 81.8 372.5 81.7 372.3 81.7 C 372.31 81.68 371.8 81.7 371.8 81.7 L 371.8 81 C 371.8 81 372.65 80.98 372.6 81 C 373.1 81 373.4 81.2 373.4 81.6 C 373.4 81.6 373.4 81.9 373.4 81.9 C 373.38 82.16 373.4 82.4 373.4 82.4 C 373.4 82.4 373.38 82.36 373.4 82.4 C 373.7 81.5 374.6 80.8 375.6 80.8 C 376.7 80.8 377.3 81.3 377.4 82.3 C 377.4 82.3 377.5 82.3 377.5 82.3 C 377.8 81.5 378.7 80.8 379.7 80.8 C 381.1 80.8 381.7 81.7 381.7 83.2 C 381.7 83.2 381.7 86 381.7 86 C 381.7 86.2 381.8 86.3 381.9 86.3 C 381.95 86.3 382.4 86.3 382.4 86.3 L 382.4 87 C 382.4 87 381.6 87.01 381.6 87 C 381.1 87 380.9 86.8 380.9 86.3 C 380.9 86.3 380.9 83.4 380.9 83.4 C 380.9 82.4 380.7 81.6 379.6 81.6 C 378.6 81.6 377.9 82.4 377.6 83.3 C 377.6 83.5 377.5 83.8 377.5 84.2 C 377.54 84.16 377.5 87 377.5 87 L 376.7 87 C 376.7 87 376.73 83.38 376.7 83.4 C 376.7 82.5 376.6 81.6 375.5 81.6 C 374.5 81.6 373.7 82.4 373.5 83.4 C 373.4 83.6 373.4 83.9 373.4 84.2 C 373.39 84.16 373.4 87 373.4 87 L 372.6 87 C 372.6 87 372.57 81.95 372.6 81.9 Z M 386.9 83.3 C 386.88 83.29 387.2 83.3 387.2 83.3 C 387.2 83.3 387.21 83.22 387.2 83.2 C 387.2 82 386.8 81.5 385.7 81.5 C 385.4 81.5 384.5 81.6 384.5 82 C 384.48 82.04 384.5 82.4 384.5 82.4 L 383.7 82.4 C 383.7 82.4 383.7 81.85 383.7 81.9 C 383.7 81 385.1 80.8 385.7 80.8 C 387.6 80.8 388 81.9 388 83.1 C 388 83.1 388 86 388 86 C 388 86.2 388.1 86.3 388.3 86.3 C 388.29 86.3 388.8 86.3 388.8 86.3 L 388.8 87 C 388.8 87 387.97 87.01 388 87 C 387.5 87 387.3 86.8 387.3 86.3 C 387.3 86 387.3 85.8 387.3 85.8 C 387.3 85.8 387.2 85.8 387.2 85.8 C 387.3 85.8 386.7 87.2 385.2 87.2 C 384.2 87.2 383.2 86.6 383.2 85.4 C 383.2 83.4 385.8 83.3 386.9 83.3 Z M 385.4 86.5 C 386.5 86.5 387.2 85.3 387.2 84.2 C 387.21 84.22 387.2 83.9 387.2 83.9 C 387.2 83.9 386.87 83.94 386.9 83.9 C 385.9 83.9 384 84 384 85.3 C 384 85.9 384.5 86.5 385.4 86.5 Z M 390.1 79.5 C 390.1 79.4 390 79.3 389.8 79.3 C 389.82 79.28 389.3 79.3 389.3 79.3 L 389.3 78.6 C 389.3 78.6 390.17 78.58 390.2 78.6 C 390.7 78.6 390.9 78.8 390.9 79.3 C 390.9 79.3 390.9 86 390.9 86 C 390.9 86.2 391 86.3 391.2 86.3 C 391.16 86.3 391.7 86.3 391.7 86.3 L 391.7 87 C 391.7 87 390.81 87.01 390.8 87 C 390.3 87 390.1 86.8 390.1 86.3 C 390.1 86.3 390.1 79.5 390.1 79.5 Z M 393.1 81.9 C 393.1 81.8 393 81.7 392.8 81.7 C 392.84 81.68 392.3 81.7 392.3 81.7 L 392.3 81 C 392.3 81 393.19 80.98 393.2 81 C 393.7 81 393.9 81.2 393.9 81.7 C 393.9 81.7 393.9 86 393.9 86 C 393.9 86.2 394 86.3 394.2 86.3 C 394.19 86.3 394.7 86.3 394.7 86.3 L 394.7 87 C 394.7 87 393.84 87.01 393.8 87 C 393.3 87 393.1 86.8 393.1 86.3 C 393.1 86.3 393.1 81.9 393.1 81.9 Z M 393.9 78.6 L 394.8 78.6 L 393.8 80 L 393.1 80 L 393.9 78.6 Z M 398.1 80.8 C 399.75 80.83 400.1 81.9 400.1 81.9 L 400.2 81.9 C 400.2 81.9 400.16 81.76 400.2 81.6 C 400.2 81.2 400.4 81 400.8 81 C 400.85 80.98 401.7 81 401.7 81 L 401.7 81.7 C 401.7 81.7 401.19 81.68 401.2 81.7 C 401 81.7 400.9 81.8 400.9 81.9 C 400.9 81.9 400.9 86.9 400.9 86.9 C 400.9 88.8 399.5 89.5 398 89.5 C 397.3 89.5 396.6 89.4 396.1 89.1 C 396.06 89.05 396.4 88.4 396.4 88.4 C 396.4 88.4 397.11 88.79 398 88.8 C 399.2 88.8 400.1 88.2 400.1 86.9 C 400.1 86.9 400.1 86.4 400.1 86.4 C 400.11 86.14 400.1 85.9 400.1 85.9 C 400.1 85.9 400.1 85.93 400.1 85.9 C 399.7 86.6 399.1 87 398.2 87 C 396.6 87 395.5 85.7 395.5 83.9 C 395.5 82.1 396.5 80.8 398.1 80.8 Z M 400.1 83.9 C 400.1 82.1 399.3 81.6 398.2 81.6 C 397 81.6 396.4 82.4 396.4 83.9 C 396.4 85.3 397.1 86.2 398.3 86.2 C 399.3 86.2 400.1 85.7 400.1 83.9 Z M 403 81.9 C 403 81.8 402.9 81.7 402.7 81.7 C 402.74 81.68 402.2 81.7 402.2 81.7 L 402.2 81 C 402.2 81 403.08 80.98 403.1 81 C 403.6 81 403.8 81.2 403.8 81.6 C 403.8 81.6 403.8 81.9 403.8 81.9 C 403.81 82.16 403.8 82.4 403.8 82.4 C 403.8 82.4 403.81 82.36 403.8 82.4 C 404 81.8 404.8 80.8 406.2 80.8 C 407.7 80.8 408.2 81.7 408.2 83.2 C 408.2 83.2 408.2 86 408.2 86 C 408.2 86.2 408.3 86.3 408.5 86.3 C 408.5 86.3 409 86.3 409 86.3 L 409 87 C 409 87 408.15 87.01 408.2 87 C 407.6 87 407.4 86.8 407.4 86.3 C 407.4 86.3 407.4 83.4 407.4 83.4 C 407.4 82.4 407.3 81.6 406.1 81.6 C 405.1 81.6 404.2 82.3 403.9 83.3 C 403.8 83.6 403.8 83.8 403.8 84.1 C 403.82 84.12 403.8 87 403.8 87 L 403 87 C 403 87 403.01 81.95 403 81.9 Z M 412.7 80.8 C 414.4 80.8 415.2 82.1 415.2 83.6 C 415.24 83.76 415.2 84 415.2 84 C 415.2 84 410.59 84.02 410.6 84 C 410.6 85.5 411.7 86.4 412.9 86.4 C 414.03 86.42 414.7 85.7 414.7 85.7 L 415.1 86.3 C 415.1 86.3 414.26 87.16 412.9 87.2 C 411.1 87.2 409.7 85.9 409.7 84 C 409.7 82 411.1 80.8 412.7 80.8 Z M 414.4 83.4 C 414.4 82.1 413.6 81.5 412.7 81.5 C 411.7 81.5 410.8 82.2 410.6 83.4 C 410.6 83.4 414.4 83.4 414.4 83.4 Z M 420.1 81.9 C 420.1 81.8 420 81.7 419.9 81.7 C 419.88 81.68 419.4 81.7 419.4 81.7 L 419.4 81 C 419.4 81 420.2 80.98 420.2 81 C 420.7 81 420.9 81.2 420.9 81.6 C 420.9 81.9 420.9 82 420.9 82 C 420.91 82.02 420.9 82 420.9 82 C 420.9 82 421.41 80.83 423 80.8 C 424.6 80.8 425.6 82.1 425.6 84 C 425.6 85.9 424.5 87.2 422.9 87.2 C 421.46 87.16 421 86 421 86 L 420.9 86 C 420.9 86 420.96 86.23 421 86.5 C 420.96 86.54 421 89.4 421 89.4 L 420.1 89.4 C 420.1 89.4 420.14 81.95 420.1 81.9 Z M 422.9 86.4 C 423.9 86.4 424.8 85.5 424.8 84 C 424.8 82.5 424 81.6 422.9 81.6 C 421.9 81.6 420.9 82.3 420.9 84 C 420.9 85.2 421.6 86.4 422.9 86.4 Z M 427.2 81.9 C 427.2 81.8 427.1 81.7 426.9 81.7 C 426.92 81.68 426.4 81.7 426.4 81.7 L 426.4 81 C 426.4 81 427.26 80.98 427.3 81 C 427.8 81 428 81.2 428 81.7 C 428 81.7 428 82.1 428 82.1 C 427.99 82.32 428 82.5 428 82.5 C 428 82.5 427.99 82.52 428 82.5 C 428.3 81.6 428.9 80.9 429.9 80.9 C 430.1 80.9 430.2 81 430.2 81 C 430.22 80.95 430.2 81.8 430.2 81.8 C 430.2 81.8 430.08 81.73 429.9 81.7 C 429.1 81.7 428.4 82.4 428.2 83.3 C 428 83.7 428 84.1 428 84.5 C 428 84.47 428 87 428 87 L 427.2 87 C 427.2 87 427.19 81.95 427.2 81.9 Z M 431.3 85.5 C 431.3 85.5 431.97 86.45 433.2 86.4 C 433.8 86.4 434.4 86.1 434.4 85.5 C 434.4 84.2 431 84.4 431 82.5 C 431 81.4 432 80.8 433.2 80.8 C 433.8 80.8 435 81.1 435 81.9 C 435.03 81.92 435 82.4 435 82.4 L 434.3 82.4 C 434.3 82.4 434.27 82.15 434.3 82.2 C 434.3 81.7 433.6 81.5 433.2 81.5 C 432.4 81.5 431.9 81.8 431.9 82.4 C 431.9 83.8 435.3 83.5 435.3 85.5 C 435.3 86.5 434.3 87.2 433.1 87.2 C 431.58 87.16 430.8 86.1 430.8 86.1 L 431.3 85.5 Z M 436.8 81.9 C 436.8 81.8 436.7 81.7 436.5 81.7 C 436.55 81.68 436 81.7 436 81.7 L 436 81 C 436 81 436.88 80.98 436.9 81 C 437.4 81 437.6 81.2 437.6 81.6 C 437.6 81.6 437.6 81.9 437.6 81.9 C 437.61 82.16 437.6 82.4 437.6 82.4 C 437.6 82.4 437.61 82.36 437.6 82.4 C 437.8 81.8 438.6 80.8 440 80.8 C 441.5 80.8 442 81.7 442 83.2 C 442 83.2 442 86 442 86 C 442 86.2 442.1 86.3 442.3 86.3 C 442.3 86.3 442.8 86.3 442.8 86.3 L 442.8 87 C 442.8 87 441.96 87.01 442 87 C 441.4 87 441.2 86.8 441.2 86.3 C 441.2 86.3 441.2 83.4 441.2 83.4 C 441.2 82.4 441.1 81.6 439.9 81.6 C 438.9 81.6 438 82.3 437.7 83.3 C 437.6 83.6 437.6 83.8 437.6 84.1 C 437.62 84.12 437.6 87 437.6 87 L 436.8 87 C 436.8 87 436.81 81.95 436.8 81.9 Z M 446.5 80.8 C 448.2 80.8 449 82.1 449 83.6 C 449.05 83.76 449 84 449 84 C 449 84 444.39 84.02 444.4 84 C 444.4 85.5 445.5 86.4 446.7 86.4 C 447.84 86.42 448.5 85.7 448.5 85.7 L 448.9 86.3 C 448.9 86.3 448.07 87.16 446.7 87.2 C 444.9 87.2 443.5 85.9 443.5 84 C 443.5 82 444.9 80.8 446.5 80.8 Z M 448.2 83.4 C 448.2 82.1 447.4 81.5 446.5 81.5 C 445.5 81.5 444.6 82.2 444.4 83.4 C 444.4 83.4 448.2 83.4 448.2 83.4 Z M 447 78.6 L 447.9 78.6 L 446.8 80 L 446.1 80 L 447 78.6 Z M 454 81.7 L 453.2 81.7 L 453.2 81 L 454 81 L 454 79.3 L 454.8 79.3 L 454.8 81 L 456.3 81 L 456.3 81.7 L 454.8 81.7 C 454.8 81.7 454.83 84.73 454.8 84.7 C 454.8 86.1 455.7 86.3 456.2 86.3 C 456.36 86.33 456.5 86.3 456.5 86.3 L 456.5 87 C 456.5 87 456.32 87.06 456.1 87.1 C 455.4 87.1 454 86.8 454 84.8 C 454.02 84.82 454 81.7 454 81.7 Z M 457.8 79.5 C 457.8 79.4 457.7 79.3 457.6 79.3 C 457.58 79.28 457.1 79.3 457.1 79.3 L 457.1 78.6 C 457.1 78.6 457.93 78.58 457.9 78.6 C 458.4 78.6 458.7 78.8 458.7 79.3 C 458.66 79.27 458.7 83.3 458.7 83.3 C 458.7 83.3 459.28 83.28 459.3 83.3 C 459.5 83.3 459.8 83.2 460 83 C 459.97 82.99 461.5 81 461.5 81 L 462.5 81 C 462.5 81 460.77 83.18 460.8 83.2 C 460.47 83.56 460.3 83.6 460.3 83.6 L 460.3 83.6 C 460.3 83.6 460.5 83.72 460.7 84.1 C 460.7 84.1 461.8 86 461.8 86 C 461.9 86.2 462 86.3 462.3 86.3 C 462.33 86.3 462.7 86.3 462.7 86.3 L 462.7 87 C 462.7 87 462.09 87.01 462.1 87 C 461.5 87 461.3 86.9 461 86.4 C 461 86.4 459.8 84.3 459.8 84.3 C 459.7 84 459.4 84 459.2 84 C 459.21 83.99 458.7 84 458.7 84 L 458.7 87 L 457.8 87 C 457.8 87 457.85 79.55 457.8 79.5 Z M 466.9 83.3 C 466.91 83.29 467.2 83.3 467.2 83.3 C 467.2 83.3 467.24 83.22 467.2 83.2 C 467.2 82 466.8 81.5 465.7 81.5 C 465.4 81.5 464.5 81.6 464.5 82 C 464.5 82.04 464.5 82.4 464.5 82.4 L 463.7 82.4 C 463.7 82.4 463.73 81.85 463.7 81.9 C 463.7 81 465.2 80.8 465.7 80.8 C 467.6 80.8 468.1 81.9 468.1 83.1 C 468.1 83.1 468.1 86 468.1 86 C 468.1 86.2 468.2 86.3 468.3 86.3 C 468.32 86.3 468.8 86.3 468.8 86.3 L 468.8 87 C 468.8 87 468 87.01 468 87 C 467.5 87 467.3 86.8 467.3 86.3 C 467.3 86 467.3 85.8 467.3 85.8 C 467.3 85.8 467.3 85.8 467.3 85.8 C 467.3 85.8 466.8 87.2 465.3 87.2 C 464.3 87.2 463.2 86.6 463.2 85.4 C 463.2 83.4 465.9 83.3 466.9 83.3 Z M 465.4 86.5 C 466.5 86.5 467.2 85.3 467.2 84.2 C 467.24 84.22 467.2 83.9 467.2 83.9 C 467.2 83.9 466.89 83.94 466.9 83.9 C 465.9 83.9 464 84 464 85.3 C 464 85.9 464.5 86.5 465.4 86.5 Z M 470.1 81.9 C 470.1 81.8 470 81.7 469.9 81.7 C 469.86 81.68 469.4 81.7 469.4 81.7 L 469.4 81 C 469.4 81 470.19 80.98 470.2 81 C 470.7 81 470.9 81.2 470.9 81.6 C 470.9 81.6 470.9 81.9 470.9 81.9 C 470.92 82.16 470.9 82.4 470.9 82.4 C 470.9 82.4 470.92 82.36 470.9 82.4 C 471.1 81.8 471.9 80.8 473.3 80.8 C 474.8 80.8 475.4 81.7 475.4 83.2 C 475.4 83.2 475.4 86 475.4 86 C 475.4 86.2 475.4 86.3 475.6 86.3 C 475.62 86.3 476.1 86.3 476.1 86.3 L 476.1 87 C 476.1 87 475.27 87.01 475.3 87 C 474.8 87 474.5 86.8 474.5 86.3 C 474.5 86.3 474.5 83.4 474.5 83.4 C 474.5 82.4 474.4 81.6 473.2 81.6 C 472.2 81.6 471.3 82.3 471 83.3 C 471 83.6 470.9 83.8 470.9 84.1 C 470.94 84.12 470.9 87 470.9 87 L 470.1 87 C 470.1 87 470.12 81.95 470.1 81.9 Z M 477.5 78.6 L 478.2 78.6 L 478.2 79.6 L 477.5 79.6 L 477.5 78.6 Z M 477.5 81.9 C 477.5 81.8 477.4 81.7 477.2 81.7 C 477.21 81.68 476.7 81.7 476.7 81.7 L 476.7 81 C 476.7 81 477.56 80.98 477.6 81 C 478.1 81 478.3 81.2 478.3 81.7 C 478.3 81.7 478.3 86 478.3 86 C 478.3 86.2 478.4 86.3 478.6 86.3 C 478.56 86.3 479.1 86.3 479.1 86.3 L 479.1 87 C 479.1 87 478.21 87.01 478.2 87 C 477.7 87 477.5 86.8 477.5 86.3 C 477.5 86.3 477.5 81.9 477.5 81.9 Z M 480 82 C 479.9 81.7 479.8 81.7 479.6 81.7 C 479.6 81.68 479.5 81.7 479.5 81.7 L 479.5 81 C 479.5 81 479.82 80.98 479.8 81 C 480.4 81 480.6 81.1 480.8 81.6 C 480.8 81.6 482.2 85.4 482.2 85.4 C 482.34 85.7 482.4 86.1 482.4 86.1 L 482.5 86.1 C 482.5 86.1 482.55 85.7 482.7 85.4 C 482.7 85.4 484.1 81.6 484.1 81.6 C 484.3 81.1 484.5 81 485.1 81 C 485.06 80.98 485.4 81 485.4 81 L 485.4 81.7 C 485.4 81.7 485.26 81.68 485.3 81.7 C 485 81.7 484.9 81.7 484.8 82 C 484.84 81.96 482.9 87 482.9 87 L 482 87 C 482 87 480.02 81.96 480 82 Z M 489.1 80.8 C 490.8 80.8 492.3 82.2 492.3 84 C 492.3 85.8 490.8 87.2 489.1 87.2 C 487.3 87.2 485.9 85.8 485.9 84 C 485.9 82.2 487.3 80.8 489.1 80.8 Z M 489.1 86.4 C 490.4 86.4 491.4 85.4 491.4 84 C 491.4 82.6 490.4 81.6 489.1 81.6 C 487.8 81.6 486.7 82.6 486.7 84 C 486.7 85.4 487.8 86.4 489.1 86.4 Z M 492.9 81.3 L 495.3 78.1 L 495.8 78.1 L 495.8 81.2 L 496.6 81.2 L 496.6 81.7 L 495.8 81.7 L 495.8 83 L 495.3 83 L 495.3 81.7 L 492.9 81.7 L 492.9 81.3 Z M 495.3 79.2 C 495.29 79.01 495.3 78.7 495.3 78.7 L 495.3 78.7 C 495.3 78.7 495.18 78.94 495 79.1 C 495 79.1 493.7 80.9 493.7 80.9 C 493.55 81.1 493.4 81.2 493.4 81.2 L 493.4 81.2 C 493.4 81.2 493.62 81.23 493.8 81.2 C 493.83 81.23 495.3 81.2 495.3 81.2 C 495.3 81.2 495.29 79.22 495.3 79.2 Z M 497.7 82.4 L 497.2 83.7 L 496.8 83.7 L 497.2 82.4 L 497.7 82.4 Z M 498.8 82.1 C 498.8 82.1 499.17 82.64 499.9 82.6 C 500.6 82.6 501.2 82.1 501.2 81.5 C 501.2 80.8 500.6 80.3 499.9 80.3 C 499.34 80.34 499 80.6 499 80.6 L 498.7 80.5 C 498.7 80.5 498.91 78.52 498.9 78.5 C 498.9 78.2 499 78.1 499.3 78.1 C 499.3 78.1 501 78.1 501 78.1 C 501.2 78.1 501.4 78.2 501.4 78.5 C 501.37 78.52 501.4 79 501.4 79 L 500.9 79 C 500.9 79 500.92 78.68 500.9 78.7 C 500.9 78.6 500.9 78.5 500.8 78.5 C 500.8 78.5 499.5 78.5 499.5 78.5 C 499.4 78.5 499.4 78.6 499.4 78.7 C 499.4 78.7 499.2 79.8 499.2 79.8 C 499.22 79.97 499.2 80.1 499.2 80.1 L 499.2 80.1 C 499.2 80.1 499.52 79.9 500 79.9 C 501 79.9 501.7 80.6 501.7 81.5 C 501.7 82.4 500.9 83.1 499.9 83.1 C 498.97 83.1 498.5 82.4 498.5 82.4 L 498.8 82.1 Z " stroke="none" fill="#000"/>  </g>  <g id="Polygon67867">    <path d="M 179.5 60.8 C 179.5 60.8 180.03 60.76 180 60.8 C 180.2 60.8 180.3 60.7 180.3 60.5 C 180.3 60.5 180.3 53.1 180.3 53.1 L 181.1 53.1 C 181.1 53.1 185.37 59.08 185.4 59.1 C 185.66 59.5 186.1 60.2 186.1 60.2 L 186.1 60.2 C 186.1 60.2 186.02 59.53 186 59.1 C 186 59.1 186 53.8 186 53.8 C 186 53.3 186.2 53.1 186.8 53.1 C 186.75 53.07 187.6 53.1 187.6 53.1 L 187.6 53.8 C 187.6 53.8 187.12 53.82 187.1 53.8 C 187 53.8 186.9 53.9 186.9 54.1 C 186.86 54.08 186.9 61.5 186.9 61.5 L 186.1 61.5 C 186.1 61.5 181.78 55.5 181.8 55.5 C 181.48 55.09 181.1 54.4 181.1 54.4 L 181.1 54.4 C 181.1 54.4 181.13 55.05 181.1 55.5 C 181.1 55.5 181.1 60.8 181.1 60.8 C 181.1 61.3 180.9 61.5 180.4 61.5 C 180.4 61.51 179.5 61.5 179.5 61.5 L 179.5 60.8 Z M 192.2 57.8 C 192.19 57.79 192.5 57.8 192.5 57.8 C 192.5 57.8 192.52 57.72 192.5 57.7 C 192.5 56.5 192.1 56 191 56 C 190.7 56 189.8 56.1 189.8 56.5 C 189.79 56.54 189.8 56.9 189.8 56.9 L 189 56.9 C 189 56.9 189.01 56.35 189 56.3 C 189 55.5 190.4 55.3 191 55.3 C 192.9 55.3 193.3 56.3 193.3 57.6 C 193.3 57.6 193.3 60.5 193.3 60.5 C 193.3 60.7 193.4 60.8 193.6 60.8 C 193.6 60.8 194.1 60.8 194.1 60.8 L 194.1 61.5 C 194.1 61.5 193.28 61.51 193.3 61.5 C 192.8 61.5 192.6 61.3 192.6 60.8 C 192.6 60.5 192.6 60.3 192.6 60.3 C 192.6 60.3 192.5 60.3 192.5 60.3 C 192.6 60.3 192.1 61.7 190.5 61.7 C 189.5 61.7 188.5 61.1 188.5 59.9 C 188.5 57.9 191.1 57.8 192.2 57.8 Z M 190.7 61 C 191.8 61 192.5 59.8 192.5 58.7 C 192.52 58.71 192.5 58.4 192.5 58.4 C 192.5 58.4 192.18 58.44 192.2 58.4 C 191.2 58.4 189.3 58.5 189.3 59.8 C 189.3 60.4 189.8 61 190.7 61 Z M 198.7 56.4 C 198.7 56.3 198.6 56.2 198.4 56.2 C 198.4 56.18 197.9 56.2 197.9 56.2 L 197.9 55.5 C 197.9 55.5 198.74 55.47 198.7 55.5 C 199.2 55.5 199.5 55.7 199.5 56.2 C 199.5 56.2 199.5 56.6 199.5 56.6 C 199.47 56.82 199.4 57 199.4 57 C 199.4 57 199.47 57.02 199.5 57 C 199.8 56.1 200.4 55.4 201.4 55.4 C 201.5 55.4 201.7 55.4 201.7 55.4 C 201.7 55.45 201.7 56.3 201.7 56.3 C 201.7 56.3 201.56 56.23 201.4 56.2 C 200.6 56.2 199.9 56.9 199.7 57.8 C 199.5 58.2 199.5 58.6 199.5 59 C 199.48 58.96 199.5 61.5 199.5 61.5 L 198.7 61.5 C 198.7 61.5 198.67 56.44 198.7 56.4 Z M 205.4 55.3 C 207.2 55.3 208.6 56.7 208.6 58.5 C 208.6 60.3 207.2 61.7 205.4 61.7 C 203.6 61.7 202.2 60.3 202.2 58.5 C 202.2 56.7 203.6 55.3 205.4 55.3 Z M 205.4 60.9 C 206.7 60.9 207.7 59.9 207.7 58.5 C 207.7 57.1 206.7 56.1 205.4 56.1 C 204.1 56.1 203 57.1 203 58.5 C 203 59.9 204.1 60.9 205.4 60.9 Z M 209.4 61 C 209.4 61 212.8 56.74 212.8 56.7 C 213.03 56.46 213.3 56.2 213.3 56.2 L 213.3 56.2 C 213.3 56.2 213.08 56.19 212.7 56.2 C 212.7 56.2 210.5 56.2 210.5 56.2 C 210.3 56.2 210.2 56.3 210.2 56.5 C 210.21 56.46 210.2 56.9 210.2 56.9 L 209.4 56.9 C 209.4 56.9 209.44 56.2 209.4 56.2 C 209.4 55.7 209.7 55.5 210.2 55.5 C 210.17 55.47 214.4 55.5 214.4 55.5 L 214.4 56 C 214.4 56 210.98 60.24 211 60.2 C 210.74 60.52 210.5 60.8 210.5 60.8 L 210.5 60.8 C 210.5 60.8 210.69 60.79 211.1 60.8 C 211.1 60.8 213.6 60.8 213.6 60.8 C 213.8 60.8 213.8 60.7 213.8 60.5 C 213.85 60.52 213.8 60.1 213.8 60.1 L 214.6 60.1 C 214.6 60.1 214.61 60.78 214.6 60.8 C 214.6 61.3 214.4 61.5 213.9 61.5 C 213.88 61.51 209.4 61.5 209.4 61.5 L 209.4 61 Z M 218 55.3 C 219.49 55.33 220 56.5 220 56.5 L 220 56.5 C 220 56.5 219.99 56.25 220 56 C 220 56 220 54 220 54 C 220 53.9 219.9 53.8 219.7 53.8 C 219.73 53.78 219.2 53.8 219.2 53.8 L 219.2 53.1 C 219.2 53.1 220.08 53.07 220.1 53.1 C 220.6 53.1 220.8 53.3 220.8 53.8 C 220.8 53.8 220.8 60.5 220.8 60.5 C 220.8 60.7 220.9 60.8 221.1 60.8 C 221.07 60.8 221.6 60.8 221.6 60.8 L 221.6 61.5 C 221.6 61.5 220.73 61.51 220.7 61.5 C 220.2 61.5 220 61.3 220 60.8 C 220 60.6 220 60.5 220 60.5 C 220.04 60.45 220 60.5 220 60.5 C 220 60.5 219.52 61.65 217.9 61.7 C 216.3 61.7 215.3 60.4 215.3 58.5 C 215.3 56.6 216.4 55.3 218 55.3 Z M 220 58.5 C 220 57.3 219.4 56.1 218.1 56.1 C 217 56.1 216.2 57 216.2 58.5 C 216.2 60 216.9 60.9 218.1 60.9 C 219.1 60.9 220 60.2 220 58.5 Z M 222.9 53.1 L 223.7 53.1 L 223.7 54.1 L 222.9 54.1 L 222.9 53.1 Z M 223 56.4 C 223 56.3 222.9 56.2 222.7 56.2 C 222.7 56.18 222.2 56.2 222.2 56.2 L 222.2 55.5 C 222.2 55.5 223.05 55.47 223.1 55.5 C 223.6 55.5 223.8 55.7 223.8 56.2 C 223.8 56.2 223.8 60.5 223.8 60.5 C 223.8 60.7 223.9 60.8 224 60.8 C 224.05 60.8 224.6 60.8 224.6 60.8 L 224.6 61.5 C 224.6 61.5 223.7 61.51 223.7 61.5 C 223.2 61.5 223 61.3 223 60.8 C 223 60.8 223 56.4 223 56.4 Z M 228.3 55.3 C 230 55.3 230.9 56.6 230.9 58.1 C 230.86 58.26 230.8 58.5 230.8 58.5 C 230.8 58.5 226.21 58.52 226.2 58.5 C 226.2 60 227.3 60.9 228.5 60.9 C 229.65 60.92 230.4 60.2 230.4 60.2 L 230.8 60.8 C 230.8 60.8 229.88 61.65 228.5 61.7 C 226.7 61.7 225.4 60.4 225.4 58.5 C 225.4 56.5 226.7 55.3 228.3 55.3 Z M 230 57.9 C 230 56.6 229.2 56 228.3 56 C 227.3 56 226.4 56.7 226.2 57.9 C 226.2 57.9 230 57.9 230 57.9 Z M 232.5 54 C 232.5 53.9 232.4 53.8 232.2 53.8 C 232.22 53.78 231.7 53.8 231.7 53.8 L 231.7 53.1 C 231.7 53.1 232.57 53.07 232.6 53.1 C 233.1 53.1 233.3 53.3 233.3 53.8 C 233.3 53.8 233.3 60.5 233.3 60.5 C 233.3 60.7 233.4 60.8 233.6 60.8 C 233.56 60.8 234.1 60.8 234.1 60.8 L 234.1 61.5 C 234.1 61.5 233.21 61.51 233.2 61.5 C 232.7 61.5 232.5 61.3 232.5 60.8 C 232.5 60.8 232.5 54 232.5 54 Z M 241.3 55.3 C 243.1 55.3 244.5 56.7 244.5 58.5 C 244.5 60.3 243.1 61.7 241.3 61.7 C 239.6 61.7 238.1 60.3 238.1 58.5 C 238.1 56.7 239.6 55.3 241.3 55.3 Z M 241.3 60.9 C 242.6 60.9 243.7 59.9 243.7 58.5 C 243.7 57.1 242.6 56.1 241.3 56.1 C 240 56.1 239 57.1 239 58.5 C 239 59.9 240 60.9 241.3 60.9 Z M 248.2 55.3 C 249.67 55.33 250.2 56.5 250.2 56.5 L 250.2 56.5 C 250.2 56.5 250.17 56.25 250.2 56 C 250.2 56 250.2 54 250.2 54 C 250.2 53.9 250.1 53.8 249.9 53.8 C 249.91 53.78 249.4 53.8 249.4 53.8 L 249.4 53.1 C 249.4 53.1 250.26 53.07 250.3 53.1 C 250.8 53.1 251 53.3 251 53.8 C 251 53.8 251 60.5 251 60.5 C 251 60.7 251.1 60.8 251.2 60.8 C 251.25 60.8 251.8 60.8 251.8 60.8 L 251.8 61.5 C 251.8 61.5 250.91 61.51 250.9 61.5 C 250.4 61.5 250.2 61.3 250.2 60.8 C 250.2 60.6 250.2 60.5 250.2 60.5 C 250.22 60.45 250.2 60.5 250.2 60.5 C 250.2 60.5 249.7 61.65 248.1 61.7 C 246.5 61.7 245.5 60.4 245.5 58.5 C 245.5 56.6 246.6 55.3 248.2 55.3 Z M 250.2 58.5 C 250.2 57.3 249.6 56.1 248.3 56.1 C 247.2 56.1 246.3 57 246.3 58.5 C 246.3 60 247.1 60.9 248.2 60.9 C 249.2 60.9 250.2 60.2 250.2 58.5 Z M 256.4 53.1 L 257.2 53.1 L 257.2 54.1 L 256.4 54.1 L 256.4 53.1 Z M 256.4 56.4 C 256.4 56.3 256.3 56.2 256.1 56.2 C 256.15 56.18 255.6 56.2 255.6 56.2 L 255.6 55.5 C 255.6 55.5 256.5 55.47 256.5 55.5 C 257 55.5 257.2 55.7 257.2 56.2 C 257.2 56.2 257.2 60.5 257.2 60.5 C 257.2 60.7 257.3 60.8 257.5 60.8 C 257.49 60.8 258 60.8 258 60.8 L 258 61.5 C 258 61.5 257.14 61.51 257.1 61.5 C 256.6 61.5 256.4 61.3 256.4 60.8 C 256.4 60.8 256.4 56.4 256.4 56.4 Z M 259.4 56.4 C 259.4 56.3 259.3 56.2 259.1 56.2 C 259.1 56.18 258.6 56.2 258.6 56.2 L 258.6 55.5 C 258.6 55.5 259.44 55.47 259.4 55.5 C 259.9 55.5 260.2 55.7 260.2 56.1 C 260.2 56.1 260.2 56.4 260.2 56.4 C 260.17 56.66 260.1 56.9 260.1 56.9 C 260.1 56.9 260.17 56.85 260.2 56.9 C 260.4 56.3 261.2 55.3 262.6 55.3 C 264.1 55.3 264.6 56.2 264.6 57.7 C 264.6 57.7 264.6 60.5 264.6 60.5 C 264.6 60.7 264.7 60.8 264.9 60.8 C 264.86 60.8 265.4 60.8 265.4 60.8 L 265.4 61.5 C 265.4 61.5 264.51 61.51 264.5 61.5 C 264 61.5 263.8 61.3 263.8 60.8 C 263.8 60.8 263.8 57.9 263.8 57.9 C 263.8 56.9 263.6 56.1 262.5 56.1 C 261.4 56.1 260.5 56.8 260.3 57.8 C 260.2 58.1 260.2 58.3 260.2 58.6 C 260.18 58.62 260.2 61.5 260.2 61.5 L 259.4 61.5 C 259.4 61.5 259.36 56.44 259.4 56.4 Z M 266.9 63.3 C 267.4 63.3 267.7 62.9 268 62.3 C 267.97 62.31 268.3 61.5 268.3 61.5 C 268.3 61.5 266.2 56.46 266.2 56.5 C 266.1 56.2 266 56.2 265.8 56.2 C 265.78 56.18 265.7 56.2 265.7 56.2 L 265.7 55.5 C 265.7 55.5 266.03 55.47 266 55.5 C 266.6 55.5 266.7 55.6 267 56.1 C 267 56.1 268.5 59.9 268.5 59.9 C 268.63 60.2 268.7 60.5 268.7 60.5 L 268.7 60.5 C 268.7 60.5 268.83 60.2 269 59.9 C 269 59.9 270.4 56.1 270.4 56.1 C 270.6 55.6 270.8 55.5 271.4 55.5 C 271.37 55.47 271.7 55.5 271.7 55.5 L 271.7 56.2 C 271.7 56.2 271.63 56.18 271.6 56.2 C 271.4 56.2 271.3 56.2 271.2 56.5 C 271.2 56.5 268.6 62.8 268.6 62.8 C 268.3 63.5 267.7 64 266.9 64 C 266.03 64.03 265.6 63.4 265.6 63.4 C 265.6 63.4 265.95 62.84 266 62.8 C 266 62.9 266.3 63.3 266.9 63.3 Z M 269.2 53.1 L 270.1 53.1 L 269 54.5 L 268.3 54.5 L 269.2 53.1 Z M 275.5 55.3 C 276.2 55.3 277.6 55.6 277.6 56.6 C 277.63 56.61 277.6 57.2 277.6 57.2 L 276.9 57.2 C 276.9 57.2 276.86 56.8 276.9 56.8 C 276.9 56.3 276 56.1 275.5 56.1 C 274.2 56.1 273.1 57 273.1 58.5 C 273.1 60 274.2 60.9 275.5 60.9 C 276.74 60.91 277.4 60.1 277.4 60.1 L 277.8 60.7 C 277.8 60.7 277.01 61.65 275.5 61.7 C 273.7 61.7 272.3 60.4 272.3 58.5 C 272.3 56.6 273.7 55.3 275.5 55.3 Z M 279.1 54 C 279.1 53.9 279 53.8 278.9 53.8 C 278.86 53.78 278.4 53.8 278.4 53.8 L 278.4 53.1 C 278.4 53.1 279.21 53.07 279.2 53.1 C 279.7 53.1 279.9 53.3 279.9 53.8 C 279.9 53.8 279.9 56.3 279.9 56.3 C 279.94 56.61 279.9 56.8 279.9 56.8 C 279.9 56.8 279.94 56.83 279.9 56.8 C 280.2 56.3 281 55.3 282.3 55.3 C 283.8 55.3 284.4 56.2 284.4 57.7 C 284.4 57.7 284.4 60.5 284.4 60.5 C 284.4 60.7 284.5 60.8 284.6 60.8 C 284.62 60.8 285.1 60.8 285.1 60.8 L 285.1 61.5 C 285.1 61.5 284.27 61.51 284.3 61.5 C 283.8 61.5 283.5 61.3 283.5 60.8 C 283.5 60.8 283.5 57.9 283.5 57.9 C 283.5 56.9 283.4 56.1 282.2 56.1 C 281.2 56.1 280.3 56.8 280 57.8 C 280 58.1 279.9 58.3 279.9 58.6 C 279.94 58.62 279.9 61.5 279.9 61.5 L 279.1 61.5 C 279.1 61.5 279.13 54.04 279.1 54 Z M 292.1 55.3 C 293.8 55.3 294.6 56.6 294.6 58.1 C 294.63 58.26 294.6 58.5 294.6 58.5 C 294.6 58.5 289.97 58.52 290 58.5 C 290 60 291.1 60.9 292.3 60.9 C 293.42 60.92 294.1 60.2 294.1 60.2 L 294.5 60.8 C 294.5 60.8 293.65 61.65 292.3 61.7 C 290.5 61.7 289.1 60.4 289.1 58.5 C 289.1 56.5 290.5 55.3 292.1 55.3 Z M 293.8 57.9 C 293.7 56.6 293 56 292.1 56 C 291.1 56 290.2 56.7 290 57.9 C 290 57.9 293.8 57.9 293.8 57.9 Z M 296 60 C 296 60 296.71 60.94 297.9 60.9 C 298.6 60.9 299.2 60.6 299.2 60 C 299.2 58.7 295.8 58.9 295.8 57 C 295.8 55.9 296.7 55.3 297.9 55.3 C 298.5 55.3 299.8 55.6 299.8 56.4 C 299.77 56.42 299.8 56.9 299.8 56.9 L 299 56.9 C 299 56.9 299 56.65 299 56.6 C 299 56.2 298.4 56 298 56 C 297.1 56 296.6 56.3 296.6 56.9 C 296.6 58.3 300 58 300 60 C 300 61 299.1 61.7 297.9 61.7 C 296.31 61.65 295.6 60.6 295.6 60.6 L 296 60 Z M 301.6 56.2 L 300.8 56.2 L 300.8 55.5 L 301.6 55.5 L 301.6 53.8 L 302.4 53.8 L 302.4 55.5 L 303.9 55.5 L 303.9 56.2 L 302.4 56.2 C 302.4 56.2 302.43 59.23 302.4 59.2 C 302.4 60.6 303.3 60.8 303.8 60.8 C 303.95 60.82 304.1 60.8 304.1 60.8 L 304.1 61.5 C 304.1 61.5 303.92 61.56 303.7 61.6 C 303 61.6 301.6 61.3 301.6 59.3 C 301.61 59.31 301.6 56.2 301.6 56.2 Z M 305.6 56.4 C 305.6 56.3 305.5 56.2 305.3 56.2 C 305.3 56.18 304.8 56.2 304.8 56.2 L 304.8 55.5 C 304.8 55.5 305.63 55.47 305.6 55.5 C 306.1 55.5 306.4 55.7 306.4 56.2 C 306.4 56.2 306.4 56.6 306.4 56.6 C 306.37 56.82 306.3 57 306.3 57 C 306.3 57 306.37 57.02 306.4 57 C 306.7 56.1 307.3 55.4 308.3 55.4 C 308.4 55.4 308.6 55.4 308.6 55.4 C 308.6 55.45 308.6 56.3 308.6 56.3 C 308.6 56.3 308.45 56.23 308.3 56.2 C 307.4 56.2 306.8 56.9 306.5 57.8 C 306.4 58.2 306.4 58.6 306.4 59 C 306.38 58.96 306.4 61.5 306.4 61.5 L 305.6 61.5 C 305.6 61.5 305.56 56.44 305.6 56.4 Z M 312.3 55.3 C 314 55.3 315.5 56.7 315.5 58.5 C 315.5 60.3 314 61.7 312.3 61.7 C 310.5 61.7 309.1 60.3 309.1 58.5 C 309.1 56.7 310.5 55.3 312.3 55.3 Z M 312.3 60.9 C 313.6 60.9 314.6 59.9 314.6 58.5 C 314.6 57.1 313.6 56.1 312.3 56.1 C 311 56.1 309.9 57.1 309.9 58.5 C 309.9 59.9 311 60.9 312.3 60.9 Z M 319.1 55.3 C 320.69 55.33 321.1 56.4 321.1 56.4 L 321.1 56.4 C 321.1 56.4 321.1 56.25 321.1 56.1 C 321.1 55.7 321.3 55.5 321.8 55.5 C 321.79 55.47 322.6 55.5 322.6 55.5 L 322.6 56.2 C 322.6 56.2 322.13 56.18 322.1 56.2 C 322 56.2 321.9 56.3 321.9 56.4 C 321.9 56.4 321.9 61.4 321.9 61.4 C 321.9 63.3 320.5 64 319 64 C 318.3 64 317.6 63.8 317 63.5 C 317 63.55 317.3 62.9 317.3 62.9 C 317.3 62.9 318.05 63.28 318.9 63.3 C 320.1 63.3 321.1 62.7 321.1 61.4 C 321.1 61.4 321.1 60.9 321.1 60.9 C 321.05 60.63 321.1 60.4 321.1 60.4 C 321.1 60.4 321.04 60.43 321 60.4 C 320.7 61.1 320.1 61.5 319.1 61.5 C 317.5 61.5 316.5 60.2 316.5 58.4 C 316.5 56.6 317.5 55.3 319.1 55.3 Z M 321.1 58.4 C 321.1 56.6 320.2 56.1 319.2 56.1 C 318 56.1 317.3 56.9 317.3 58.4 C 317.3 59.8 318.1 60.7 319.3 60.7 C 320.2 60.7 321.1 60.2 321.1 58.4 Z M 326.4 55.3 C 328 55.3 328.9 56.6 328.9 58.1 C 328.89 58.26 328.9 58.5 328.9 58.5 C 328.9 58.5 324.23 58.52 324.2 58.5 C 324.3 60 325.3 60.9 326.6 60.9 C 327.68 60.92 328.4 60.2 328.4 60.2 L 328.8 60.8 C 328.8 60.8 327.91 61.65 326.5 61.7 C 324.7 61.7 323.4 60.4 323.4 58.5 C 323.4 56.5 324.7 55.3 326.4 55.3 Z M 328.1 57.9 C 328 56.6 327.2 56 326.3 56 C 325.3 56 324.5 56.7 324.3 57.9 C 324.3 57.9 328.1 57.9 328.1 57.9 Z M 326.8 53.1 L 327.7 53.1 L 326.7 54.5 L 326 54.5 L 326.8 53.1 Z M 330.5 56.4 C 330.5 56.3 330.4 56.2 330.3 56.2 C 330.26 56.18 329.8 56.2 329.8 56.2 L 329.8 55.5 C 329.8 55.5 330.59 55.47 330.6 55.5 C 331.1 55.5 331.3 55.7 331.3 56.1 C 331.3 56.1 331.3 56.4 331.3 56.4 C 331.32 56.66 331.3 56.9 331.3 56.9 C 331.3 56.9 331.32 56.85 331.3 56.9 C 331.5 56.3 332.3 55.3 333.7 55.3 C 335.2 55.3 335.8 56.2 335.8 57.7 C 335.8 57.7 335.8 60.5 335.8 60.5 C 335.8 60.7 335.8 60.8 336 60.8 C 336.02 60.8 336.5 60.8 336.5 60.8 L 336.5 61.5 C 336.5 61.5 335.67 61.51 335.7 61.5 C 335.2 61.5 334.9 61.3 334.9 60.8 C 334.9 60.8 334.9 57.9 334.9 57.9 C 334.9 56.9 334.8 56.1 333.6 56.1 C 332.6 56.1 331.7 56.8 331.4 57.8 C 331.4 58.1 331.3 58.3 331.3 58.6 C 331.34 58.62 331.3 61.5 331.3 61.5 L 330.5 61.5 C 330.5 61.5 330.52 56.44 330.5 56.4 Z M 340.4 55.3 C 342.2 55.3 343.6 56.7 343.6 58.5 C 343.6 60.3 342.2 61.7 340.4 61.7 C 338.7 61.7 337.3 60.3 337.3 58.5 C 337.3 56.7 338.7 55.3 340.4 55.3 Z M 340.4 60.9 C 341.7 60.9 342.8 59.9 342.8 58.5 C 342.8 57.1 341.7 56.1 340.4 56.1 C 339.1 56.1 338.1 57.1 338.1 58.5 C 338.1 59.9 339.1 60.9 340.4 60.9 Z M 344.7 56.5 C 344.6 56.2 344.5 56.2 344.3 56.2 C 344.26 56.18 344.2 56.2 344.2 56.2 L 344.2 55.5 C 344.2 55.5 344.48 55.47 344.5 55.5 C 345.1 55.5 345.2 55.6 345.4 56.1 C 345.4 56.1 346.9 59.9 346.9 59.9 C 347 60.2 347.1 60.6 347.1 60.6 L 347.1 60.6 C 347.1 60.6 347.21 60.2 347.3 59.9 C 347.3 59.9 348.8 56.1 348.8 56.1 C 349 55.6 349.2 55.5 349.7 55.5 C 349.72 55.47 350 55.5 350 55.5 L 350 56.2 C 350 56.2 349.92 56.18 349.9 56.2 C 349.7 56.2 349.6 56.2 349.5 56.5 C 349.5 56.46 347.5 61.5 347.5 61.5 L 346.6 61.5 C 346.6 61.5 344.68 56.46 344.7 56.5 Z M 354.5 56.4 C 354.5 56.3 354.4 56.2 354.2 56.2 C 354.25 56.18 353.7 56.2 353.7 56.2 L 353.7 55.5 C 353.7 55.5 354.58 55.47 354.6 55.5 C 355.1 55.5 355.3 55.7 355.3 56.1 C 355.3 56.1 355.3 56.4 355.3 56.4 C 355.31 56.66 355.3 56.9 355.3 56.9 C 355.3 56.9 355.31 56.85 355.3 56.9 C 355.6 56 356.6 55.3 357.5 55.3 C 358.6 55.3 359.2 55.8 359.4 56.8 C 359.4 56.8 359.4 56.8 359.4 56.8 C 359.7 56 360.6 55.3 361.6 55.3 C 363.1 55.3 363.6 56.2 363.6 57.7 C 363.6 57.7 363.6 60.5 363.6 60.5 C 363.6 60.7 363.7 60.8 363.9 60.8 C 363.88 60.8 364.4 60.8 364.4 60.8 L 364.4 61.5 C 364.4 61.5 363.53 61.51 363.5 61.5 C 363 61.5 362.8 61.3 362.8 60.8 C 362.8 60.8 362.8 57.9 362.8 57.9 C 362.8 56.9 362.6 56.1 361.5 56.1 C 360.6 56.1 359.8 56.9 359.6 57.8 C 359.5 58 359.5 58.3 359.5 58.7 C 359.48 58.65 359.5 61.5 359.5 61.5 L 358.7 61.5 C 358.7 61.5 358.66 57.87 358.7 57.9 C 358.7 57 358.5 56.1 357.4 56.1 C 356.4 56.1 355.7 56.9 355.4 57.8 C 355.3 58.1 355.3 58.4 355.3 58.7 C 355.32 58.65 355.3 61.5 355.3 61.5 L 354.5 61.5 C 354.5 61.5 354.51 56.44 354.5 56.4 Z M 368.8 57.8 C 368.81 57.79 369.1 57.8 369.1 57.8 C 369.1 57.8 369.15 57.72 369.1 57.7 C 369.1 56.5 368.7 56 367.6 56 C 367.3 56 366.4 56.1 366.4 56.5 C 366.41 56.54 366.4 56.9 366.4 56.9 L 365.6 56.9 C 365.6 56.9 365.63 56.35 365.6 56.3 C 365.6 55.5 367.1 55.3 367.6 55.3 C 369.5 55.3 370 56.3 370 57.6 C 370 57.6 370 60.5 370 60.5 C 370 60.7 370.1 60.8 370.2 60.8 C 370.23 60.8 370.7 60.8 370.7 60.8 L 370.7 61.5 C 370.7 61.5 369.9 61.51 369.9 61.5 C 369.4 61.5 369.2 61.3 369.2 60.8 C 369.2 60.5 369.2 60.3 369.2 60.3 C 369.2 60.3 369.2 60.3 369.2 60.3 C 369.2 60.3 368.7 61.7 367.2 61.7 C 366.2 61.7 365.1 61.1 365.1 59.9 C 365.1 57.9 367.8 57.8 368.8 57.8 Z M 367.3 61 C 368.5 61 369.1 59.8 369.1 58.7 C 369.15 58.71 369.1 58.4 369.1 58.4 C 369.1 58.4 368.8 58.44 368.8 58.4 C 367.9 58.4 366 58.5 366 59.8 C 366 60.4 366.4 61 367.3 61 Z M 368.2 53.1 L 369.1 53.1 L 368.1 54.5 L 367.4 54.5 L 368.2 53.1 Z M 375.3 56.4 C 375.3 56.3 375.2 56.2 375 56.2 C 375.03 56.18 374.5 56.2 374.5 56.2 L 374.5 55.5 C 374.5 55.5 375.37 55.47 375.4 55.5 C 375.9 55.5 376.1 55.7 376.1 56.1 C 376.1 56.1 376.1 56.4 376.1 56.4 C 376.1 56.66 376.1 56.9 376.1 56.9 C 376.1 56.9 376.1 56.85 376.1 56.9 C 376.3 56.3 377.1 55.3 378.5 55.3 C 380 55.3 380.5 56.2 380.5 57.7 C 380.5 57.7 380.5 60.5 380.5 60.5 C 380.5 60.7 380.6 60.8 380.8 60.8 C 380.79 60.8 381.3 60.8 381.3 60.8 L 381.3 61.5 C 381.3 61.5 380.44 61.51 380.4 61.5 C 379.9 61.5 379.7 61.3 379.7 60.8 C 379.7 60.8 379.7 57.9 379.7 57.9 C 379.7 56.9 379.6 56.1 378.4 56.1 C 377.4 56.1 376.5 56.8 376.2 57.8 C 376.1 58.1 376.1 58.3 376.1 58.6 C 376.11 58.62 376.1 61.5 376.1 61.5 L 375.3 61.5 C 375.3 61.5 375.29 56.44 375.3 56.4 Z M 385 55.3 C 386.7 55.3 387.5 56.6 387.5 58.1 C 387.53 58.26 387.5 58.5 387.5 58.5 C 387.5 58.5 382.88 58.52 382.9 58.5 C 382.9 60 384 60.9 385.2 60.9 C 386.32 60.92 387 60.2 387 60.2 L 387.4 60.8 C 387.4 60.8 386.55 61.65 385.2 61.7 C 383.4 61.7 382 60.4 382 58.5 C 382 56.5 383.4 55.3 385 55.3 Z M 386.7 57.9 C 386.6 56.6 385.9 56 385 56 C 384 56 383.1 56.7 382.9 57.9 C 382.9 57.9 386.7 57.9 386.7 57.9 Z M 389.1 56.4 C 389.1 56.3 389 56.2 388.9 56.2 C 388.88 56.18 388.4 56.2 388.4 56.2 L 388.4 55.5 C 388.4 55.5 389.23 55.47 389.2 55.5 C 389.7 55.5 390 55.7 390 56.2 C 390 56.2 390 59.1 390 59.1 C 390 60 390.1 60.9 391.3 60.9 C 392.6 60.9 393.5 59.7 393.5 58.4 C 393.5 58.36 393.5 55.5 393.5 55.5 L 394.3 55.5 C 394.3 55.5 394.31 60.54 394.3 60.5 C 394.3 60.7 394.4 60.8 394.6 60.8 C 394.58 60.8 395.1 60.8 395.1 60.8 L 395.1 61.5 C 395.1 61.5 394.25 61.51 394.3 61.5 C 393.7 61.5 393.5 61.3 393.5 60.8 C 393.5 60.8 393.5 60.6 393.5 60.6 C 393.5 60.3 393.5 60.1 393.5 60.1 C 393.5 60.1 393.5 60.1 393.5 60.1 C 393.3 60.7 392.5 61.7 391.2 61.7 C 389.7 61.7 389.1 60.9 389.1 59.3 C 389.1 59.3 389.1 56.4 389.1 56.4 Z M 396.5 56.2 L 395.7 56.2 L 395.7 55.5 L 396.5 55.5 L 396.5 53.8 L 397.3 53.8 L 397.3 55.5 L 398.8 55.5 L 398.8 56.2 L 397.3 56.2 C 397.3 56.2 397.29 59.23 397.3 59.2 C 397.3 60.6 398.2 60.8 398.6 60.8 C 398.81 60.82 398.9 60.8 398.9 60.8 L 398.9 61.5 C 398.9 61.5 398.78 61.56 398.6 61.6 C 397.9 61.6 396.5 61.3 396.5 59.3 C 396.47 59.31 396.5 56.2 396.5 56.2 Z M 400.4 56.4 C 400.4 56.3 400.3 56.2 400.2 56.2 C 400.16 56.18 399.7 56.2 399.7 56.2 L 399.7 55.5 C 399.7 55.5 400.49 55.47 400.5 55.5 C 401 55.5 401.2 55.7 401.2 56.2 C 401.2 56.2 401.2 56.6 401.2 56.6 C 401.22 56.82 401.2 57 401.2 57 C 401.2 57 401.22 57.02 401.2 57 C 401.5 56.1 402.2 55.4 403.1 55.4 C 403.3 55.4 403.5 55.4 403.5 55.4 C 403.46 55.45 403.5 56.3 403.5 56.3 C 403.5 56.3 403.31 56.23 403.2 56.2 C 402.3 56.2 401.7 56.9 401.4 57.8 C 401.3 58.2 401.2 58.6 401.2 59 C 401.24 58.96 401.2 61.5 401.2 61.5 L 400.4 61.5 C 400.4 61.5 400.42 56.44 400.4 56.4 Z M 407.5 57.8 C 407.5 57.79 407.8 57.8 407.8 57.8 C 407.8 57.8 407.84 57.72 407.8 57.7 C 407.8 56.5 407.4 56 406.3 56 C 406 56 405.1 56.1 405.1 56.5 C 405.1 56.54 405.1 56.9 405.1 56.9 L 404.3 56.9 C 404.3 56.9 404.32 56.35 404.3 56.3 C 404.3 55.5 405.8 55.3 406.3 55.3 C 408.2 55.3 408.7 56.3 408.7 57.6 C 408.7 57.6 408.7 60.5 408.7 60.5 C 408.7 60.7 408.7 60.8 408.9 60.8 C 408.92 60.8 409.4 60.8 409.4 60.8 L 409.4 61.5 C 409.4 61.5 408.59 61.51 408.6 61.5 C 408.1 61.5 407.9 61.3 407.9 60.8 C 407.9 60.5 407.9 60.3 407.9 60.3 C 407.9 60.3 407.9 60.3 407.9 60.3 C 407.9 60.3 407.4 61.7 405.9 61.7 C 404.8 61.7 403.8 61.1 403.8 59.9 C 403.8 57.9 406.5 57.8 407.5 57.8 Z M 406 61 C 407.1 61 407.8 59.8 407.8 58.7 C 407.84 58.71 407.8 58.4 407.8 58.4 C 407.8 58.4 407.49 58.44 407.5 58.4 C 406.5 58.4 404.6 58.5 404.6 59.8 C 404.6 60.4 405.1 61 406 61 Z M 406.9 53.1 L 407.8 53.1 L 406.8 54.5 L 406.1 54.5 L 406.9 53.1 Z M 410.7 54 C 410.7 53.9 410.6 53.8 410.4 53.8 C 410.44 53.78 409.9 53.8 409.9 53.8 L 409.9 53.1 C 409.9 53.1 410.79 53.07 410.8 53.1 C 411.3 53.1 411.5 53.3 411.5 53.8 C 411.5 53.8 411.5 60.5 411.5 60.5 C 411.5 60.7 411.6 60.8 411.8 60.8 C 411.78 60.8 412.3 60.8 412.3 60.8 L 412.3 61.5 C 412.3 61.5 411.44 61.51 411.4 61.5 C 410.9 61.5 410.7 61.3 410.7 60.8 C 410.7 60.8 410.7 54 410.7 54 Z M 413.7 56.4 C 413.7 56.3 413.6 56.2 413.4 56.2 C 413.39 56.18 412.9 56.2 412.9 56.2 L 412.9 55.5 C 412.9 55.5 413.73 55.47 413.7 55.5 C 414.2 55.5 414.5 55.7 414.5 56.1 C 414.5 56.1 414.5 56.4 414.5 56.4 C 414.46 56.66 414.4 56.9 414.4 56.9 C 414.4 56.9 414.46 56.85 414.5 56.9 C 414.7 56.3 415.4 55.3 416.9 55.3 C 418.4 55.3 418.9 56.2 418.9 57.7 C 418.9 57.7 418.9 60.5 418.9 60.5 C 418.9 60.7 419 60.8 419.2 60.8 C 419.15 60.8 419.7 60.8 419.7 60.8 L 419.7 61.5 C 419.7 61.5 418.8 61.51 418.8 61.5 C 418.3 61.5 418.1 61.3 418.1 60.8 C 418.1 60.8 418.1 57.9 418.1 57.9 C 418.1 56.9 417.9 56.1 416.8 56.1 C 415.7 56.1 414.8 56.8 414.6 57.8 C 414.5 58.1 414.5 58.3 414.5 58.6 C 414.47 58.62 414.5 61.5 414.5 61.5 L 413.7 61.5 C 413.7 61.5 413.66 56.44 413.7 56.4 Z M 421.1 63.3 C 421.7 63.3 422 62.9 422.3 62.3 C 422.26 62.31 422.6 61.5 422.6 61.5 C 422.6 61.5 420.5 56.46 420.5 56.5 C 420.4 56.2 420.3 56.2 420.1 56.2 C 420.08 56.18 420 56.2 420 56.2 L 420 55.5 C 420 55.5 420.33 55.47 420.3 55.5 C 420.9 55.5 421 55.6 421.3 56.1 C 421.3 56.1 422.8 59.9 422.8 59.9 C 422.92 60.2 423 60.5 423 60.5 L 423 60.5 C 423 60.5 423.12 60.2 423.2 59.9 C 423.2 59.9 424.7 56.1 424.7 56.1 C 424.9 55.6 425.1 55.5 425.7 55.5 C 425.67 55.47 426 55.5 426 55.5 L 426 56.2 C 426 56.2 425.92 56.18 425.9 56.2 C 425.7 56.2 425.6 56.2 425.5 56.5 C 425.5 56.5 422.9 62.8 422.9 62.8 C 422.6 63.5 422 64 421.2 64 C 420.33 64.03 419.9 63.4 419.9 63.4 C 419.9 63.4 420.25 62.84 420.2 62.8 C 420.2 62.9 420.6 63.3 421.1 63.3 Z M 430.2 56.5 C 430.1 56.2 430 56.2 429.8 56.2 C 429.77 56.18 429.7 56.2 429.7 56.2 L 429.7 55.5 C 429.7 55.5 429.99 55.47 430 55.5 C 430.6 55.5 430.7 55.6 430.9 56.1 C 430.9 56.1 432.4 59.9 432.4 59.9 C 432.51 60.2 432.6 60.6 432.6 60.6 L 432.6 60.6 C 432.6 60.6 432.72 60.2 432.8 59.9 C 432.8 59.9 434.3 56.1 434.3 56.1 C 434.5 55.6 434.7 55.5 435.2 55.5 C 435.23 55.47 435.5 55.5 435.5 55.5 L 435.5 56.2 C 435.5 56.2 435.44 56.18 435.4 56.2 C 435.2 56.2 435.1 56.2 435 56.5 C 435.02 56.46 433 61.5 433 61.5 L 432.2 61.5 C 432.2 61.5 430.19 56.46 430.2 56.5 Z M 436.8 56.4 C 436.8 56.3 436.7 56.2 436.5 56.2 C 436.49 56.18 436 56.2 436 56.2 L 436 55.5 C 436 55.5 436.82 55.47 436.8 55.5 C 437.3 55.5 437.5 55.7 437.5 56.1 C 437.5 56.3 437.5 56.5 437.5 56.5 C 437.52 56.52 437.5 56.5 437.5 56.5 C 437.5 56.5 438.03 55.33 439.6 55.3 C 441.2 55.3 442.3 56.6 442.3 58.5 C 442.3 60.4 441.1 61.7 439.6 61.7 C 438.08 61.65 437.6 60.5 437.6 60.5 L 437.5 60.5 C 437.5 60.5 437.57 60.73 437.6 61 C 437.57 61.04 437.6 63.9 437.6 63.9 L 436.8 63.9 C 436.8 63.9 436.76 56.44 436.8 56.4 Z M 439.5 60.9 C 440.5 60.9 441.4 60 441.4 58.5 C 441.4 57 440.6 56.1 439.5 56.1 C 438.5 56.1 437.5 56.8 437.5 58.5 C 437.5 59.7 438.2 60.9 439.5 60.9 Z M 443.7 54 C 443.7 53.9 443.6 53.8 443.4 53.8 C 443.42 53.78 442.9 53.8 442.9 53.8 L 442.9 53.1 C 442.9 53.1 443.76 53.07 443.8 53.1 C 444.3 53.1 444.5 53.3 444.5 53.8 C 444.5 53.8 444.5 60.5 444.5 60.5 C 444.5 60.7 444.6 60.8 444.8 60.8 C 444.76 60.8 445.3 60.8 445.3 60.8 L 445.3 61.5 C 445.3 61.5 444.41 61.51 444.4 61.5 C 443.9 61.5 443.7 61.3 443.7 60.8 C 443.7 60.8 443.7 54 443.7 54 Z M 447 63.3 C 447.5 63.3 447.9 62.9 448.1 62.3 C 448.08 62.31 448.4 61.5 448.4 61.5 C 448.4 61.5 446.32 56.46 446.3 56.5 C 446.2 56.2 446.1 56.2 445.9 56.2 C 445.9 56.18 445.8 56.2 445.8 56.2 L 445.8 55.5 C 445.8 55.5 446.15 55.47 446.2 55.5 C 446.7 55.5 446.9 55.6 447.1 56.1 C 447.1 56.1 448.6 59.9 448.6 59.9 C 448.74 60.2 448.8 60.5 448.8 60.5 L 448.9 60.5 C 448.9 60.5 448.95 60.2 449.1 59.9 C 449.1 59.9 450.6 56.1 450.6 56.1 C 450.8 55.6 450.9 55.5 451.5 55.5 C 451.49 55.47 451.9 55.5 451.9 55.5 L 451.9 56.2 C 451.9 56.2 451.74 56.18 451.7 56.2 C 451.5 56.2 451.4 56.2 451.3 56.5 C 451.3 56.5 448.7 62.8 448.7 62.8 C 448.4 63.5 447.8 64 447 64 C 446.15 64.03 445.7 63.4 445.7 63.4 C 445.7 63.4 446.07 62.84 446.1 62.8 C 446.1 62.9 446.5 63.3 447 63.3 Z M 452.8 56.5 C 452.7 56.2 452.5 56.2 452.3 56.2 C 452.33 56.18 452.2 56.2 452.2 56.2 L 452.2 55.5 C 452.2 55.5 452.55 55.47 452.5 55.5 C 453.1 55.5 453.3 55.6 453.5 56.1 C 453.5 56.1 455 59.9 455 59.9 C 455.07 60.2 455.2 60.6 455.2 60.6 L 455.2 60.6 C 455.2 60.6 455.28 60.2 455.4 59.9 C 455.4 59.9 456.8 56.1 456.8 56.1 C 457 55.6 457.2 55.5 457.8 55.5 C 457.79 55.47 458.1 55.5 458.1 55.5 L 458.1 56.2 C 458.1 56.2 457.99 56.18 458 56.2 C 457.8 56.2 457.6 56.2 457.6 56.5 C 457.58 56.46 455.6 61.5 455.6 61.5 L 454.7 61.5 C 454.7 61.5 452.75 56.46 452.8 56.5 Z M 462.6 56.4 C 462.6 56.3 462.5 56.2 462.3 56.2 C 462.32 56.18 461.8 56.2 461.8 56.2 L 461.8 55.5 C 461.8 55.5 462.65 55.47 462.7 55.5 C 463.2 55.5 463.4 55.7 463.4 56.1 C 463.4 56.1 463.4 56.4 463.4 56.4 C 463.38 56.66 463.4 56.9 463.4 56.9 C 463.4 56.9 463.38 56.85 463.4 56.9 C 463.6 56.3 464.4 55.3 465.8 55.3 C 467.3 55.3 467.8 56.2 467.8 57.7 C 467.8 57.7 467.8 60.5 467.8 60.5 C 467.8 60.7 467.9 60.8 468.1 60.8 C 468.07 60.8 468.6 60.8 468.6 60.8 L 468.6 61.5 C 468.6 61.5 467.73 61.51 467.7 61.5 C 467.2 61.5 467 61.3 467 60.8 C 467 60.8 467 57.9 467 57.9 C 467 56.9 466.9 56.1 465.7 56.1 C 464.7 56.1 463.8 56.8 463.5 57.8 C 463.4 58.1 463.4 58.3 463.4 58.6 C 463.39 58.62 463.4 61.5 463.4 61.5 L 462.6 61.5 C 462.6 61.5 462.58 56.44 462.6 56.4 Z M 473 57.8 C 473.01 57.79 473.3 57.8 473.3 57.8 C 473.3 57.8 473.34 57.72 473.3 57.7 C 473.3 56.5 472.9 56 471.8 56 C 471.5 56 470.6 56.1 470.6 56.5 C 470.61 56.54 470.6 56.9 470.6 56.9 L 469.8 56.9 C 469.8 56.9 469.83 56.35 469.8 56.3 C 469.8 55.5 471.3 55.3 471.8 55.3 C 473.7 55.3 474.2 56.3 474.2 57.6 C 474.2 57.6 474.2 60.5 474.2 60.5 C 474.2 60.7 474.3 60.8 474.4 60.8 C 474.42 60.8 474.9 60.8 474.9 60.8 L 474.9 61.5 C 474.9 61.5 474.1 61.51 474.1 61.5 C 473.6 61.5 473.4 61.3 473.4 60.8 C 473.4 60.5 473.4 60.3 473.4 60.3 C 473.4 60.3 473.4 60.3 473.4 60.3 C 473.4 60.3 472.9 61.7 471.4 61.7 C 470.4 61.7 469.3 61.1 469.3 59.9 C 469.3 57.9 472 57.8 473 57.8 Z M 471.5 61 C 472.6 61 473.3 59.8 473.3 58.7 C 473.34 58.71 473.3 58.4 473.3 58.4 C 473.3 58.4 473 58.44 473 58.4 C 472 58.4 470.2 58.5 470.2 59.8 C 470.2 60.4 470.6 61 471.5 61 Z M 479.5 56.4 C 479.5 56.3 479.4 56.2 479.2 56.2 C 479.22 56.18 478.7 56.2 478.7 56.2 L 478.7 55.5 C 478.7 55.5 479.55 55.47 479.5 55.5 C 480.1 55.5 480.3 55.7 480.3 56.1 C 480.3 56.3 480.3 56.5 480.3 56.5 C 480.25 56.52 480.3 56.5 480.3 56.5 C 480.3 56.5 480.76 55.33 482.4 55.3 C 484 55.3 485 56.6 485 58.5 C 485 60.4 483.8 61.7 482.3 61.7 C 480.81 61.65 480.3 60.5 480.3 60.5 L 480.3 60.5 C 480.3 60.5 480.3 60.73 480.3 61 C 480.3 61.04 480.3 63.9 480.3 63.9 L 479.5 63.9 C 479.5 63.9 479.49 56.44 479.5 56.4 Z M 482.2 60.9 C 483.3 60.9 484.1 60 484.1 58.5 C 484.1 57 483.4 56.1 482.2 56.1 C 481.2 56.1 480.3 56.8 480.3 58.5 C 480.3 59.7 480.9 60.9 482.2 60.9 Z M 488.9 55.3 C 490.6 55.3 491.5 56.6 491.5 58.1 C 491.47 58.26 491.5 58.5 491.5 58.5 C 491.5 58.5 486.82 58.52 486.8 58.5 C 486.8 60 487.9 60.9 489.2 60.9 C 490.26 60.92 491 60.2 491 60.2 L 491.4 60.8 C 491.4 60.8 490.49 61.65 489.1 61.7 C 487.3 61.7 486 60.4 486 58.5 C 486 56.5 487.3 55.3 488.9 55.3 Z M 490.6 57.9 C 490.6 56.6 489.8 56 488.9 56 C 487.9 56 487.1 56.7 486.9 57.9 C 486.9 57.9 490.6 57.9 490.6 57.9 Z M 495.7 55.3 C 496.4 55.3 497.9 55.6 497.9 56.6 C 497.87 56.61 497.9 57.2 497.9 57.2 L 497.1 57.2 C 497.1 57.2 497.1 56.8 497.1 56.8 C 497.1 56.3 496.2 56.1 495.7 56.1 C 494.4 56.1 493.4 57 493.4 58.5 C 493.4 60 494.5 60.9 495.7 60.9 C 496.98 60.91 497.7 60.1 497.7 60.1 L 498.1 60.7 C 498.1 60.7 497.26 61.65 495.7 61.7 C 493.9 61.7 492.5 60.4 492.5 58.5 C 492.5 56.6 493.9 55.3 495.7 55.3 Z M 494.1 53.1 L 494.9 53.1 L 495.5 54 L 495.6 54 L 496.2 53.1 L 497 53.1 L 496 54.5 L 495.1 54.5 L 494.1 53.1 Z M 501.9 55.3 C 503.5 55.3 504.4 56.6 504.4 58.1 C 504.39 58.26 504.4 58.5 504.4 58.5 C 504.4 58.5 499.73 58.52 499.7 58.5 C 499.8 60 500.8 60.9 502.1 60.9 C 503.18 60.92 503.9 60.2 503.9 60.2 L 504.3 60.8 C 504.3 60.8 503.4 61.65 502 61.7 C 500.2 61.7 498.9 60.4 498.9 58.5 C 498.9 56.5 500.2 55.3 501.9 55.3 Z M 503.5 57.9 C 503.5 56.6 502.7 56 501.8 56 C 500.8 56 500 56.7 499.8 57.9 C 499.8 57.9 503.5 57.9 503.5 57.9 Z M 506 56.4 C 506 56.3 505.9 56.2 505.8 56.2 C 505.76 56.18 505.3 56.2 505.3 56.2 L 505.3 55.5 C 505.3 55.5 506.09 55.47 506.1 55.5 C 506.6 55.5 506.8 55.7 506.8 56.1 C 506.8 56.1 506.8 56.4 506.8 56.4 C 506.82 56.66 506.8 56.9 506.8 56.9 C 506.8 56.9 506.82 56.85 506.8 56.9 C 507 56.3 507.8 55.3 509.2 55.3 C 510.7 55.3 511.2 56.2 511.2 57.7 C 511.2 57.7 511.2 60.5 511.2 60.5 C 511.2 60.7 511.3 60.8 511.5 60.8 C 511.51 60.8 512 60.8 512 60.8 L 512 61.5 C 512 61.5 511.17 61.51 511.2 61.5 C 510.7 61.5 510.4 61.3 510.4 60.8 C 510.4 60.8 510.4 57.9 510.4 57.9 C 510.4 56.9 510.3 56.1 509.1 56.1 C 508.1 56.1 507.2 56.8 506.9 57.8 C 506.9 58.1 506.8 58.3 506.8 58.6 C 506.83 58.62 506.8 61.5 506.8 61.5 L 506 61.5 C 506 61.5 506.02 56.44 506 56.4 Z M 507.4 53.1 L 508.1 53.1 L 508.8 54 L 508.8 54 L 509.4 53.1 L 510.2 53.1 L 509.2 54.5 L 508.4 54.5 L 507.4 53.1 Z M 512.7 57.1 L 513.8 57.1 C 513.8 57.1 513.82 53.47 513.8 53.5 C 513.82 53.33 513.8 53.2 513.8 53.2 L 513.8 53.2 C 513.8 53.2 513.76 53.3 513.6 53.5 C 513.57 53.49 513 54 513 54 L 512.7 53.7 L 513.8 52.6 L 514.3 52.6 L 514.3 57.1 L 515.4 57.1 L 515.4 57.5 L 512.7 57.5 L 512.7 57.1 Z M 516.7 56.9 L 516.2 58.2 L 515.8 58.2 L 516.2 56.9 L 516.7 56.9 Z M 520 53.9 C 520 53.4 519.6 53 519 53 C 518.5 53 518.1 53.2 518.1 53.5 C 518.12 53.5 518.1 53.7 518.1 53.7 L 517.7 53.7 C 517.7 53.7 517.66 53.37 517.7 53.4 C 517.7 52.7 518.5 52.5 519 52.5 C 519.9 52.5 520.5 53.1 520.5 53.9 C 520.5 55.6 517.9 55.6 517.9 56.9 C 517.9 57 518 57.1 518.1 57.1 C 518.1 57.1 520.1 57.1 520.1 57.1 C 520.2 57.1 520.3 57 520.3 56.9 C 520.27 56.92 520.3 56.6 520.3 56.6 L 520.7 56.6 C 520.7 56.6 520.73 57.09 520.7 57.1 C 520.7 57.4 520.6 57.5 520.3 57.5 C 520.3 57.5 517.8 57.5 517.8 57.5 C 517.5 57.5 517.4 57.4 517.4 57 C 517.4 55.2 520 55.4 520 53.9 Z M 522.1 56.9 L 521.6 58.2 L 521.2 58.2 L 521.6 56.9 L 522.1 56.9 Z M 523 56.5 C 523 56.5 523.53 57.13 524.3 57.1 C 524.9 57.1 525.4 56.7 525.4 56.1 C 525.4 55.4 524.9 55 524.2 55 C 524.23 55.03 523.9 55 523.9 55 L 523.8 54.7 C 523.8 54.7 524.99 53.29 525 53.3 C 525.11 53.13 525.2 53 525.2 53 L 525.2 53 C 525.2 53 525.1 53.03 524.8 53 C 524.8 53 523.6 53 523.6 53 C 523.5 53 523.4 53.1 523.4 53.2 C 523.41 53.18 523.4 53.5 523.4 53.5 L 523 53.5 C 523 53.5 522.95 53.02 523 53 C 523 52.7 523.1 52.6 523.4 52.6 C 523.37 52.59 525.9 52.6 525.9 52.6 L 525.9 52.9 C 525.9 52.9 524.42 54.62 524.4 54.6 C 525 54.7 525.9 55 525.9 56.1 C 525.9 56.9 525.2 57.6 524.3 57.6 C 523.34 57.6 522.7 56.9 522.7 56.9 L 523 56.5 Z " stroke="none" fill="#000"/>  </g>  <g id="Polygon67866">    <path d="M 222.9 28.3 L 222.1 28.3 L 222.1 27.6 C 222.1 27.6 225.67 27.57 225.7 27.6 C 227 27.6 227.9 28.4 227.9 29.7 C 227.9 30.6 227.5 31.2 226.9 31.5 C 226.9 31.5 226.9 31.6 226.9 31.6 C 227.7 31.8 228.3 32.6 228.3 33.6 C 228.3 35.1 227.2 36 225.8 36 C 225.8 36 223.6 36 223.6 36 C 223.1 36 222.9 35.8 222.9 35.3 C 222.86 35.27 222.9 28.3 222.9 28.3 Z M 225.7 31.2 C 226.5 31.2 227.1 30.6 227.1 29.8 C 227.1 28.9 226.5 28.3 225.6 28.3 C 225.64 28.31 223.7 28.3 223.7 28.3 L 223.7 31.2 C 223.7 31.2 225.65 31.23 225.7 31.2 Z M 224 35.3 C 224 35.3 225.8 35.3 225.8 35.3 C 226.8 35.3 227.4 34.6 227.4 33.6 C 227.4 32.6 226.7 31.9 225.7 31.9 C 225.75 31.95 223.7 31.9 223.7 31.9 C 223.7 31.9 223.7 35 223.7 35 C 223.7 35.2 223.8 35.3 224 35.3 Z M 229.9 28.5 C 229.9 28.4 229.8 28.3 229.6 28.3 C 229.64 28.28 229.1 28.3 229.1 28.3 L 229.1 27.6 C 229.1 27.6 229.99 27.57 230 27.6 C 230.5 27.6 230.7 27.8 230.7 28.3 C 230.7 28.3 230.7 35 230.7 35 C 230.7 35.2 230.8 35.3 231 35.3 C 230.98 35.3 231.5 35.3 231.5 35.3 L 231.5 36 C 231.5 36 230.63 36 230.6 36 C 230.1 36 229.9 35.8 229.9 35.3 C 229.9 35.3 229.9 28.5 229.9 28.5 Z M 235.5 29.8 C 237.2 29.8 238.7 31.2 238.7 33 C 238.7 34.8 237.2 36.1 235.5 36.1 C 233.7 36.1 232.3 34.8 232.3 33 C 232.3 31.2 233.7 29.8 235.5 29.8 Z M 235.5 35.4 C 236.8 35.4 237.8 34.4 237.8 33 C 237.8 31.6 236.8 30.6 235.5 30.6 C 234.2 30.6 233.1 31.6 233.1 33 C 233.1 34.4 234.2 35.4 235.5 35.4 Z M 240 28.5 C 240 28.4 239.9 28.3 239.8 28.3 C 239.78 28.28 239.3 28.3 239.3 28.3 L 239.3 27.6 C 239.3 27.6 240.13 27.57 240.1 27.6 C 240.6 27.6 240.9 27.7 240.9 28.3 C 240.86 28.26 240.9 32.3 240.9 32.3 C 240.9 32.3 241.48 32.27 241.5 32.3 C 241.7 32.3 242 32.2 242.2 32 C 242.16 31.98 243.7 30 243.7 30 L 244.7 30 C 244.7 30 242.97 32.18 243 32.2 C 242.67 32.55 242.5 32.6 242.5 32.6 L 242.5 32.6 C 242.5 32.6 242.69 32.72 242.9 33.1 C 242.9 33.1 244 35 244 35 C 244.1 35.2 244.2 35.3 244.5 35.3 C 244.53 35.3 244.9 35.3 244.9 35.3 L 244.9 36 C 244.9 36 244.29 36 244.3 36 C 243.7 36 243.5 35.9 243.2 35.4 C 243.2 35.4 242 33.2 242 33.2 C 241.9 33 241.6 33 241.4 33 C 241.41 32.98 240.9 33 240.9 33 L 240.9 36 L 240 36 C 240 36 240.04 28.54 240 28.5 Z M 246 30.9 C 246 30.8 245.9 30.7 245.8 30.7 C 245.77 30.68 245.3 30.7 245.3 30.7 L 245.3 30 C 245.3 30 246.11 29.97 246.1 30 C 246.6 30 246.8 30.2 246.8 30.7 C 246.8 30.7 246.8 33.6 246.8 33.6 C 246.8 34.5 247 35.4 248.2 35.4 C 249.5 35.4 250.4 34.2 250.4 32.9 C 250.39 32.86 250.4 30 250.4 30 L 251.2 30 C 251.2 30 251.2 35.03 251.2 35 C 251.2 35.2 251.3 35.3 251.5 35.3 C 251.46 35.3 252 35.3 252 35.3 L 252 36 C 252 36 251.14 36 251.1 36 C 250.6 36 250.4 35.8 250.4 35.3 C 250.4 35.3 250.4 35.1 250.4 35.1 C 250.4 34.8 250.4 34.6 250.4 34.6 C 250.4 34.6 250.4 34.6 250.4 34.6 C 250.2 35.2 249.4 36.1 248.1 36.1 C 246.6 36.1 246 35.4 246 33.8 C 246 33.8 246 30.9 246 30.9 Z M 253.6 27.6 L 254.4 27.6 L 254.4 28.6 L 253.6 28.6 L 253.6 27.6 Z M 252.3 37.7 C 252.7 37.7 253.6 37.6 253.6 36.2 C 253.6 36.2 253.6 30.9 253.6 30.9 C 253.6 30.8 253.5 30.7 253.4 30.7 C 253.36 30.68 252.9 30.7 252.9 30.7 L 252.9 30 C 252.9 30 253.71 29.97 253.7 30 C 254.2 30 254.4 30.2 254.4 30.7 C 254.4 30.7 254.4 36.2 254.4 36.2 C 254.4 38.2 253 38.5 252.3 38.5 C 252.1 38.5 252 38.4 252 38.4 C 251.99 38.44 252 37.7 252 37.7 C 252 37.7 252.1 37.74 252.3 37.7 Z M 258.9 29.8 C 260.6 29.8 261.4 31.1 261.4 32.6 C 261.45 32.75 261.4 33 261.4 33 C 261.4 33 256.79 33.02 256.8 33 C 256.8 34.5 257.9 35.4 259.1 35.4 C 260.24 35.42 260.9 34.7 260.9 34.7 L 261.3 35.3 C 261.3 35.3 260.47 36.15 259.1 36.1 C 257.3 36.1 255.9 34.9 255.9 33 C 255.9 31 257.3 29.8 258.9 29.8 Z M 260.6 32.4 C 260.6 31.1 259.8 30.5 258.9 30.5 C 257.9 30.5 257 31.2 256.8 32.4 C 256.8 32.4 260.6 32.4 260.6 32.4 Z M 266.3 30.9 C 266.3 30.8 266.2 30.7 266.1 30.7 C 266.08 30.68 265.6 30.7 265.6 30.7 L 265.6 30 C 265.6 30 266.42 29.97 266.4 30 C 266.9 30 267.1 30.2 267.1 30.6 C 267.1 30.6 267.1 30.9 267.1 30.9 C 267.15 31.16 267.1 31.3 267.1 31.3 C 267.1 31.3 267.15 31.35 267.1 31.3 C 267.4 30.5 268.4 29.8 269.3 29.8 C 270.4 29.8 271 30.3 271.2 31.3 C 271.2 31.3 271.2 31.3 271.2 31.3 C 271.6 30.5 272.4 29.8 273.4 29.8 C 274.9 29.8 275.5 30.7 275.5 32.2 C 275.5 32.2 275.5 35 275.5 35 C 275.5 35.2 275.5 35.3 275.7 35.3 C 275.72 35.3 276.2 35.3 276.2 35.3 L 276.2 36 C 276.2 36 275.37 36 275.4 36 C 274.9 36 274.6 35.8 274.6 35.3 C 274.6 35.3 274.6 32.4 274.6 32.4 C 274.6 31.4 274.4 30.6 273.3 30.6 C 272.4 30.6 271.7 31.4 271.4 32.3 C 271.3 32.5 271.3 32.8 271.3 33.1 C 271.31 33.15 271.3 36 271.3 36 L 270.5 36 C 270.5 36 270.5 32.37 270.5 32.4 C 270.5 31.5 270.4 30.6 269.2 30.6 C 268.2 30.6 267.5 31.4 267.3 32.3 C 267.2 32.6 267.2 32.9 267.2 33.1 C 267.16 33.15 267.2 36 267.2 36 L 266.3 36 C 266.3 36 266.35 30.94 266.3 30.9 Z M 279.9 29.8 C 281.6 29.8 282.5 31.1 282.5 32.6 C 282.46 32.75 282.4 33 282.4 33 C 282.4 33 277.8 33.02 277.8 33 C 277.8 34.5 278.9 35.4 280.1 35.4 C 281.25 35.42 282 34.7 282 34.7 L 282.4 35.3 C 282.4 35.3 281.48 36.15 280.1 36.1 C 278.3 36.1 277 34.9 277 33 C 277 31 278.3 29.8 279.9 29.8 Z M 281.6 32.4 C 281.6 31.1 280.8 30.5 279.9 30.5 C 278.9 30.5 278 31.2 277.8 32.4 C 277.8 32.4 281.6 32.4 281.6 32.4 Z M 284.1 30.9 C 284.1 30.8 284 30.7 283.8 30.7 C 283.83 30.68 283.3 30.7 283.3 30.7 L 283.3 30 C 283.3 30 284.17 29.97 284.2 30 C 284.7 30 284.9 30.2 284.9 30.6 C 284.9 30.6 284.9 30.9 284.9 30.9 C 284.9 31.16 284.9 31.3 284.9 31.3 C 284.9 31.3 284.9 31.35 284.9 31.3 C 285.2 30.5 286.1 29.8 287.1 29.8 C 288.2 29.8 288.8 30.3 289 31.3 C 289 31.3 289 31.3 289 31.3 C 289.3 30.5 290.2 29.8 291.2 29.8 C 292.7 29.8 293.2 30.7 293.2 32.2 C 293.2 32.2 293.2 35 293.2 35 C 293.2 35.2 293.3 35.3 293.5 35.3 C 293.46 35.3 294 35.3 294 35.3 L 294 36 C 294 36 293.12 36 293.1 36 C 292.6 36 292.4 35.8 292.4 35.3 C 292.4 35.3 292.4 32.4 292.4 32.4 C 292.4 31.4 292.2 30.6 291.1 30.6 C 290.2 30.6 289.4 31.4 289.2 32.3 C 289.1 32.5 289.1 32.8 289.1 33.1 C 289.06 33.15 289.1 36 289.1 36 L 288.2 36 C 288.2 36 288.25 32.37 288.2 32.4 C 288.2 31.5 288.1 30.6 287 30.6 C 286 30.6 285.3 31.4 285 32.3 C 284.9 32.6 284.9 32.9 284.9 33.1 C 284.91 33.15 284.9 36 284.9 36 L 284.1 36 C 284.1 36 284.09 30.94 284.1 30.9 Z M 295.2 28.5 C 295.2 28.4 295.1 28.3 295 28.3 C 294.97 28.28 294.5 28.3 294.5 28.3 L 294.5 27.6 C 294.5 27.6 295.31 27.57 295.3 27.6 C 295.8 27.6 296 27.8 296 28.3 C 296 28.3 296 30.5 296 30.5 C 296.04 30.76 296 31 296 31 L 296 31 C 296 31 296.55 29.82 298.1 29.8 C 299.7 29.8 300.7 31.1 300.7 33 C 300.7 34.9 299.6 36.1 298 36.1 C 296.56 36.15 296 35 296 35 L 296 35 C 296 35 296.02 35.19 296 35.5 C 296.02 35.48 296 36 296 36 L 295.2 36 C 295.2 36 295.23 28.54 295.2 28.5 Z M 297.9 35.4 C 299 35.4 299.9 34.5 299.9 33 C 299.9 31.5 299.1 30.6 298 30.6 C 297 30.6 296 31.3 296 33 C 296 34.2 296.6 35.4 297.9 35.4 Z M 302.3 30.9 C 302.3 30.8 302.2 30.7 302 30.7 C 302.01 30.68 301.5 30.7 301.5 30.7 L 301.5 30 C 301.5 30 302.35 29.97 302.3 30 C 302.8 30 303.1 30.2 303.1 30.7 C 303.1 30.7 303.1 31.1 303.1 31.1 C 303.08 31.31 303.1 31.5 303.1 31.5 C 303.1 31.5 303.08 31.52 303.1 31.5 C 303.4 30.6 304 29.9 305 29.9 C 305.2 29.9 305.3 29.9 305.3 29.9 C 305.31 29.94 305.3 30.7 305.3 30.7 C 305.3 30.7 305.16 30.72 305 30.7 C 304.2 30.7 303.5 31.4 303.3 32.3 C 303.1 32.7 303.1 33.1 303.1 33.5 C 303.09 33.46 303.1 36 303.1 36 L 302.3 36 C 302.3 36 302.27 30.94 302.3 30.9 Z M 309.4 32.3 C 309.35 32.28 309.7 32.3 309.7 32.3 C 309.7 32.3 309.69 32.21 309.7 32.2 C 309.7 31 309.2 30.5 308.1 30.5 C 307.8 30.5 307 30.6 307 31 C 306.95 31.04 307 31.4 307 31.4 L 306.2 31.4 C 306.2 31.4 306.17 30.84 306.2 30.8 C 306.2 30 307.6 29.8 308.1 29.8 C 310 29.8 310.5 30.8 310.5 32.1 C 310.5 32.1 310.5 35 310.5 35 C 310.5 35.2 310.6 35.3 310.8 35.3 C 310.77 35.3 311.3 35.3 311.3 35.3 L 311.3 36 C 311.3 36 310.44 36 310.4 36 C 309.9 36 309.7 35.8 309.7 35.3 C 309.7 35 309.7 34.8 309.7 34.8 C 309.7 34.8 309.7 34.8 309.7 34.8 C 309.7 34.8 309.2 36.1 307.7 36.1 C 306.7 36.1 305.7 35.6 305.7 34.4 C 305.7 32.4 308.3 32.3 309.4 32.3 Z M 307.8 35.5 C 309 35.5 309.7 34.3 309.7 33.2 C 309.69 33.21 309.7 32.9 309.7 32.9 C 309.7 32.9 309.34 32.93 309.3 32.9 C 308.4 32.9 306.5 33 306.5 34.3 C 306.5 34.9 306.9 35.5 307.8 35.5 Z M 308.8 27.6 L 309.7 27.6 L 308.6 29 L 307.9 29 L 308.8 27.6 Z M 312.6 30.9 C 312.6 30.8 312.5 30.7 312.3 30.7 C 312.31 30.68 311.8 30.7 311.8 30.7 L 311.8 30 C 311.8 30 312.64 29.97 312.6 30 C 313.1 30 313.4 30.2 313.4 30.6 C 313.4 30.6 313.4 30.9 313.4 30.9 C 313.37 31.16 313.3 31.3 313.3 31.3 C 313.3 31.3 313.37 31.35 313.4 31.3 C 313.6 30.8 314.4 29.8 315.8 29.8 C 317.3 29.8 317.8 30.7 317.8 32.2 C 317.8 32.2 317.8 35 317.8 35 C 317.8 35.2 317.9 35.3 318.1 35.3 C 318.06 35.3 318.6 35.3 318.6 35.3 L 318.6 36 C 318.6 36 317.72 36 317.7 36 C 317.2 36 317 35.8 317 35.3 C 317 35.3 317 32.4 317 32.4 C 317 31.4 316.8 30.6 315.7 30.6 C 314.6 30.6 313.8 31.3 313.5 32.3 C 313.4 32.5 313.4 32.8 313.4 33.1 C 313.38 33.11 313.4 36 313.4 36 L 312.6 36 C 312.6 36 312.57 30.94 312.6 30.9 Z M 322.5 29.8 C 324.2 29.8 325.7 31.2 325.7 33 C 325.7 34.8 324.2 36.1 322.5 36.1 C 320.7 36.1 319.3 34.8 319.3 33 C 319.3 31.2 320.7 29.8 322.5 29.8 Z M 322.5 35.4 C 323.8 35.4 324.8 34.4 324.8 33 C 324.8 31.6 323.8 30.6 322.5 30.6 C 321.2 30.6 320.1 31.6 320.1 33 C 320.1 34.4 321.2 35.4 322.5 35.4 Z M 326.7 31 C 326.6 30.7 326.5 30.7 326.3 30.7 C 326.31 30.68 326.2 30.7 326.2 30.7 L 326.2 30 C 326.2 30 326.53 29.97 326.5 30 C 327.1 30 327.3 30.1 327.5 30.6 C 327.5 30.6 328.9 34.4 328.9 34.4 C 329.04 34.7 329.1 35.1 329.1 35.1 L 329.2 35.1 C 329.2 35.1 329.26 34.7 329.4 34.4 C 329.4 34.4 330.8 30.6 330.8 30.6 C 331 30.1 331.2 30 331.8 30 C 331.77 29.97 332.1 30 332.1 30 L 332.1 30.7 C 332.1 30.7 331.97 30.68 332 30.7 C 331.8 30.7 331.6 30.7 331.6 31 C 331.55 30.95 329.6 36 329.6 36 L 328.7 36 C 328.7 36 326.73 30.95 326.7 31 Z M 333.6 37.8 C 334.2 37.8 334.5 37.4 334.7 36.8 C 334.74 36.81 335.1 36 335.1 36 C 335.1 36 332.98 30.95 333 31 C 332.9 30.7 332.8 30.7 332.6 30.7 C 332.56 30.68 332.4 30.7 332.4 30.7 L 332.4 30 C 332.4 30 332.81 29.97 332.8 30 C 333.4 30 333.5 30.1 333.7 30.6 C 333.7 30.6 335.3 34.4 335.3 34.4 C 335.4 34.7 335.5 35 335.5 35 L 335.5 35 C 335.5 35 335.61 34.7 335.7 34.4 C 335.7 34.4 337.2 30.6 337.2 30.6 C 337.4 30.1 337.6 30 338.2 30 C 338.15 29.97 338.5 30 338.5 30 L 338.5 30.7 C 338.5 30.7 338.4 30.68 338.4 30.7 C 338.2 30.7 338.1 30.7 338 31 C 338 31 335.4 37.3 335.4 37.3 C 335.1 38 334.5 38.5 333.7 38.5 C 332.81 38.52 332.3 37.9 332.3 37.9 C 332.3 37.9 332.73 37.34 332.7 37.3 C 332.7 37.3 333.1 37.8 333.6 37.8 Z M 335.9 27.6 L 336.9 27.6 L 335.8 29 L 335.1 29 L 335.9 27.6 Z M 345.4 29.8 C 347.1 29.8 348 31.1 348 32.6 C 347.97 32.75 347.9 33 347.9 33 C 347.9 33 343.31 33.02 343.3 33 C 343.3 34.5 344.4 35.4 345.7 35.4 C 346.76 35.42 347.5 34.7 347.5 34.7 L 347.9 35.3 C 347.9 35.3 346.99 36.15 345.6 36.1 C 343.8 36.1 342.5 34.9 342.5 33 C 342.5 31 343.8 29.8 345.4 29.8 Z M 347.1 32.4 C 347.1 31.1 346.3 30.5 345.4 30.5 C 344.4 30.5 343.6 31.2 343.3 32.4 C 343.3 32.4 347.1 32.4 347.1 32.4 Z M 349.4 34.5 C 349.4 34.5 350.04 35.44 351.2 35.4 C 351.9 35.4 352.5 35.1 352.5 34.5 C 352.5 33.2 349.1 33.4 349.1 31.5 C 349.1 30.4 350.1 29.8 351.3 29.8 C 351.9 29.8 353.1 30.1 353.1 30.9 C 353.1 30.92 353.1 31.4 353.1 31.4 L 352.3 31.4 C 352.3 31.4 352.34 31.14 352.3 31.1 C 352.3 30.7 351.7 30.5 351.3 30.5 C 350.5 30.5 349.9 30.8 349.9 31.4 C 349.9 32.8 353.3 32.5 353.3 34.5 C 353.3 35.5 352.4 36.1 351.2 36.1 C 349.65 36.15 348.9 35.1 348.9 35.1 L 349.4 34.5 Z M 355 30.7 L 354.2 30.7 L 354.2 30 L 355 30 L 355 28.3 L 355.8 28.3 L 355.8 30 L 357.3 30 L 357.3 30.7 L 355.8 30.7 C 355.8 30.7 355.77 33.72 355.8 33.7 C 355.8 35.1 356.7 35.3 357.1 35.3 C 357.29 35.32 357.4 35.3 357.4 35.3 L 357.4 36 C 357.4 36 357.26 36.05 357.1 36.1 C 356.4 36.1 355 35.8 355 33.8 C 354.95 33.81 355 30.7 355 30.7 Z M 358.9 30.9 C 358.9 30.8 358.8 30.7 358.6 30.7 C 358.64 30.68 358.1 30.7 358.1 30.7 L 358.1 30 C 358.1 30 358.97 29.97 359 30 C 359.5 30 359.7 30.2 359.7 30.7 C 359.7 30.7 359.7 31.1 359.7 31.1 C 359.7 31.31 359.7 31.5 359.7 31.5 C 359.7 31.5 359.7 31.52 359.7 31.5 C 360 30.6 360.7 29.9 361.6 29.9 C 361.8 29.9 361.9 29.9 361.9 29.9 C 361.94 29.94 361.9 30.7 361.9 30.7 C 361.9 30.7 361.79 30.72 361.6 30.7 C 360.8 30.7 360.1 31.4 359.9 32.3 C 359.8 32.7 359.7 33.1 359.7 33.5 C 359.72 33.46 359.7 36 359.7 36 L 358.9 36 C 358.9 36 358.9 30.94 358.9 30.9 Z M 365.6 29.8 C 367.4 29.8 368.8 31.2 368.8 33 C 368.8 34.8 367.4 36.1 365.6 36.1 C 363.9 36.1 362.4 34.8 362.4 33 C 362.4 31.2 363.9 29.8 365.6 29.8 Z M 365.6 35.4 C 366.9 35.4 368 34.4 368 33 C 368 31.6 366.9 30.6 365.6 30.6 C 364.3 30.6 363.3 31.6 363.3 33 C 363.3 34.4 364.3 35.4 365.6 35.4 Z M 372.4 29.8 C 374.03 29.82 374.4 30.9 374.4 30.9 L 374.4 30.9 C 374.4 30.9 374.44 30.75 374.4 30.6 C 374.4 30.2 374.6 30 375.1 30 C 375.12 29.97 376 30 376 30 L 376 30.7 C 376 30.7 375.47 30.68 375.5 30.7 C 375.3 30.7 375.2 30.8 375.2 30.9 C 375.2 30.9 375.2 35.9 375.2 35.9 C 375.2 37.8 373.8 38.5 372.3 38.5 C 371.6 38.5 370.9 38.3 370.3 38 C 370.34 38.04 370.6 37.4 370.6 37.4 C 370.6 37.4 371.39 37.78 372.3 37.8 C 373.5 37.8 374.4 37.2 374.4 35.9 C 374.4 35.9 374.4 35.4 374.4 35.4 C 374.39 35.13 374.4 34.9 374.4 34.9 C 374.4 34.9 374.38 34.92 374.4 34.9 C 374 35.6 373.4 36 372.5 36 C 370.9 36 369.8 34.7 369.8 32.9 C 369.8 31.1 370.8 29.8 372.4 29.8 Z M 374.4 32.9 C 374.4 31.1 373.6 30.6 372.5 30.6 C 371.3 30.6 370.6 31.4 370.6 32.9 C 370.6 34.3 371.4 35.2 372.6 35.2 C 373.6 35.2 374.4 34.6 374.4 32.9 Z M 379.7 29.8 C 381.4 29.8 382.2 31.1 382.2 32.6 C 382.23 32.75 382.2 33 382.2 33 C 382.2 33 377.57 33.02 377.6 33 C 377.6 34.5 378.7 35.4 379.9 35.4 C 381.02 35.42 381.7 34.7 381.7 34.7 L 382.1 35.3 C 382.1 35.3 381.24 36.15 379.9 36.1 C 378.1 36.1 376.7 34.9 376.7 33 C 376.7 31 378.1 29.8 379.7 29.8 Z M 381.4 32.4 C 381.3 31.1 380.6 30.5 379.7 30.5 C 378.7 30.5 377.8 31.2 377.6 32.4 C 377.6 32.4 381.4 32.4 381.4 32.4 Z M 380.2 27.6 L 381.1 27.6 L 380 29 L 379.3 29 L 380.2 27.6 Z M 383.9 30.9 C 383.9 30.8 383.8 30.7 383.6 30.7 C 383.6 30.68 383.1 30.7 383.1 30.7 L 383.1 30 C 383.1 30 383.93 29.97 383.9 30 C 384.4 30 384.7 30.2 384.7 30.6 C 384.7 30.6 384.7 30.9 384.7 30.9 C 384.66 31.16 384.6 31.3 384.6 31.3 C 384.6 31.3 384.66 31.35 384.7 31.3 C 384.9 30.8 385.6 29.8 387.1 29.8 C 388.6 29.8 389.1 30.7 389.1 32.2 C 389.1 32.2 389.1 35 389.1 35 C 389.1 35.2 389.2 35.3 389.4 35.3 C 389.36 35.3 389.9 35.3 389.9 35.3 L 389.9 36 C 389.9 36 389.01 36 389 36 C 388.5 36 388.3 35.8 388.3 35.3 C 388.3 35.3 388.3 32.4 388.3 32.4 C 388.3 31.4 388.1 30.6 387 30.6 C 385.9 30.6 385 31.3 384.8 32.3 C 384.7 32.5 384.7 32.8 384.7 33.1 C 384.68 33.11 384.7 36 384.7 36 L 383.9 36 C 383.9 36 383.86 30.94 383.9 30.9 Z M 393.8 29.8 C 395.5 29.8 397 31.2 397 33 C 397 34.8 395.5 36.1 393.8 36.1 C 392 36.1 390.6 34.8 390.6 33 C 390.6 31.2 392 29.8 393.8 29.8 Z M 393.8 35.4 C 395.1 35.4 396.1 34.4 396.1 33 C 396.1 31.6 395.1 30.6 393.8 30.6 C 392.5 30.6 391.4 31.6 391.4 33 C 391.4 34.4 392.5 35.4 393.8 35.4 Z M 398 31 C 397.9 30.7 397.8 30.7 397.6 30.7 C 397.6 30.68 397.5 30.7 397.5 30.7 L 397.5 30 C 397.5 30 397.82 29.97 397.8 30 C 398.4 30 398.6 30.1 398.8 30.6 C 398.8 30.6 400.2 34.4 400.2 34.4 C 400.34 34.7 400.4 35.1 400.4 35.1 L 400.5 35.1 C 400.5 35.1 400.55 34.7 400.7 34.4 C 400.7 34.4 402.1 30.6 402.1 30.6 C 402.3 30.1 402.5 30 403.1 30 C 403.06 29.97 403.4 30 403.4 30 L 403.4 30.7 C 403.4 30.7 403.26 30.68 403.3 30.7 C 403 30.7 402.9 30.7 402.8 31 C 402.84 30.95 400.9 36 400.9 36 L 400 36 C 400 36 398.02 30.95 398 31 Z M 404.9 37.8 C 405.4 37.8 405.8 37.4 406 36.8 C 406.04 36.81 406.4 36 406.4 36 C 406.4 36 404.27 30.95 404.3 31 C 404.2 30.7 404.1 30.7 403.9 30.7 C 403.85 30.68 403.7 30.7 403.7 30.7 L 403.7 30 C 403.7 30 404.1 29.97 404.1 30 C 404.6 30 404.8 30.1 405 30.6 C 405 30.6 406.6 34.4 406.6 34.4 C 406.7 34.7 406.8 35 406.8 35 L 406.8 35 C 406.8 35 406.9 34.7 407 34.4 C 407 34.4 408.5 30.6 408.5 30.6 C 408.7 30.1 408.9 30 409.4 30 C 409.44 29.97 409.8 30 409.8 30 L 409.8 30.7 C 409.8 30.7 409.69 30.68 409.7 30.7 C 409.5 30.7 409.4 30.7 409.3 31 C 409.3 31 406.7 37.3 406.7 37.3 C 406.4 38 405.7 38.5 404.9 38.5 C 404.1 38.52 403.6 37.9 403.6 37.9 C 403.6 37.9 404.02 37.34 404 37.3 C 404 37.3 404.4 37.8 404.9 37.8 Z M 407.2 27.6 L 408.1 27.6 L 407.1 29 L 406.4 29 L 407.2 27.6 Z M 414.3 30.9 C 414.3 30.8 414.2 30.7 414.1 30.7 C 414.05 30.68 413.5 30.7 413.5 30.7 L 413.5 30 C 413.5 30 414.39 29.97 414.4 30 C 414.9 30 415.1 30.2 415.1 30.7 C 415.1 30.7 415.1 31.1 415.1 31.1 C 415.12 31.31 415.1 31.5 415.1 31.5 C 415.1 31.5 415.12 31.52 415.1 31.5 C 415.4 30.6 416.1 29.9 417 29.9 C 417.2 29.9 417.4 29.9 417.4 29.9 C 417.35 29.94 417.4 30.7 417.4 30.7 C 417.4 30.7 417.21 30.72 417.1 30.7 C 416.2 30.7 415.6 31.4 415.3 32.3 C 415.2 32.7 415.1 33.1 415.1 33.5 C 415.13 33.46 415.1 36 415.1 36 L 414.3 36 C 414.3 36 414.32 30.94 414.3 30.9 Z M 420.8 29.8 C 422.5 29.8 423.4 31.1 423.4 32.6 C 423.36 32.75 423.3 33 423.3 33 C 423.3 33 418.71 33.02 418.7 33 C 418.7 34.5 419.8 35.4 421 35.4 C 422.15 35.42 422.9 34.7 422.9 34.7 L 423.3 35.3 C 423.3 35.3 422.38 36.15 421 36.1 C 419.2 36.1 417.9 34.9 417.9 33 C 417.9 31 419.2 29.8 420.8 29.8 Z M 422.5 32.4 C 422.5 31.1 421.7 30.5 420.8 30.5 C 419.8 30.5 418.9 31.2 418.7 32.4 C 418.7 32.4 422.5 32.4 422.5 32.4 Z M 427.6 29.8 C 428.3 29.8 429.8 30.1 429.8 31.1 C 429.76 31.11 429.8 31.6 429.8 31.6 L 429 31.6 C 429 31.6 428.99 31.3 429 31.3 C 429 30.8 428.1 30.6 427.6 30.6 C 426.3 30.6 425.3 31.5 425.3 33 C 425.3 34.5 426.4 35.4 427.6 35.4 C 428.87 35.4 429.6 34.6 429.6 34.6 L 430 35.2 C 430 35.2 429.15 36.15 427.6 36.1 C 425.8 36.1 424.4 34.9 424.4 33 C 424.4 31.1 425.8 29.8 427.6 29.8 Z M 433.7 29.8 C 435.4 29.8 436.3 31.1 436.3 32.6 C 436.27 32.75 436.3 33 436.3 33 C 436.3 33 431.62 33.02 431.6 33 C 431.6 34.5 432.7 35.4 434 35.4 C 435.06 35.42 435.8 34.7 435.8 34.7 L 436.2 35.3 C 436.2 35.3 435.29 36.15 433.9 36.1 C 432.1 36.1 430.8 34.9 430.8 33 C 430.8 31 432.1 29.8 433.7 29.8 Z M 435.4 32.4 C 435.4 31.1 434.6 30.5 433.7 30.5 C 432.7 30.5 431.9 31.2 431.7 32.4 C 431.7 32.4 435.4 32.4 435.4 32.4 Z M 437.9 30.9 C 437.9 30.8 437.8 30.7 437.6 30.7 C 437.64 30.68 437.1 30.7 437.1 30.7 L 437.1 30 C 437.1 30 437.97 29.97 438 30 C 438.5 30 438.7 30.2 438.7 30.6 C 438.7 30.8 438.7 31 438.7 31 C 438.67 31.01 438.7 31 438.7 31 C 438.7 31 439.18 29.82 440.8 29.8 C 442.4 29.8 443.4 31.1 443.4 33 C 443.4 34.9 442.3 36.1 440.7 36.1 C 439.23 36.15 438.7 35 438.7 35 L 438.7 35 C 438.7 35 438.72 35.22 438.7 35.5 C 438.72 35.54 438.7 38.4 438.7 38.4 L 437.9 38.4 C 437.9 38.4 437.91 30.94 437.9 30.9 Z M 440.6 35.4 C 441.7 35.4 442.6 34.5 442.6 33 C 442.6 31.5 441.8 30.6 440.7 30.6 C 439.6 30.6 438.7 31.3 438.7 33 C 438.7 34.2 439.4 35.4 440.6 35.4 Z M 445 30.7 L 444.2 30.7 L 444.2 30 L 445 30 L 445 28.3 L 445.8 28.3 L 445.8 30 L 447.4 30 L 447.4 30.7 L 445.8 30.7 C 445.8 30.7 445.84 33.72 445.8 33.7 C 445.8 35.1 446.7 35.3 447.2 35.3 C 447.36 35.32 447.5 35.3 447.5 35.3 L 447.5 36 C 447.5 36 447.33 36.05 447.1 36.1 C 446.4 36.1 445 35.8 445 33.8 C 445.02 33.81 445 30.7 445 30.7 Z M 451.5 29.8 C 453.2 29.8 454.7 31.2 454.7 33 C 454.7 34.8 453.2 36.1 451.5 36.1 C 449.7 36.1 448.3 34.8 448.3 33 C 448.3 31.2 449.7 29.8 451.5 29.8 Z M 451.5 35.4 C 452.8 35.4 453.8 34.4 453.8 33 C 453.8 31.6 452.8 30.6 451.5 30.6 C 450.2 30.6 449.1 31.6 449.1 33 C 449.1 34.4 450.2 35.4 451.5 35.4 Z M 456.2 30.9 C 456.2 30.8 456.1 30.7 455.9 30.7 C 455.92 30.68 455.4 30.7 455.4 30.7 L 455.4 30 C 455.4 30 456.26 29.97 456.3 30 C 456.8 30 457 30.2 457 30.7 C 457 30.7 457 31.1 457 31.1 C 456.99 31.31 457 31.5 457 31.5 C 457 31.5 456.99 31.52 457 31.5 C 457.3 30.6 457.9 29.9 458.9 29.9 C 459.1 29.9 459.2 29.9 459.2 29.9 C 459.22 29.94 459.2 30.7 459.2 30.7 C 459.2 30.7 459.07 30.72 458.9 30.7 C 458.1 30.7 457.4 31.4 457.2 32.3 C 457 32.7 457 33.1 457 33.5 C 457 33.46 457 36 457 36 L 456.2 36 C 456.2 36 456.18 30.94 456.2 30.9 Z M 467.8 30.8 C 467.9 30.7 468 30.3 468.2 29.8 C 468.2 29.8 469.2 29.8 469.2 29.8 C 469 30.6 468.7 31.7 468.5 32.9 C 468.8 34.4 469 35.4 469.2 36 C 469.2 36 468.2 36 468.2 36 C 468 35.6 467.9 35.2 467.8 34.9 C 467.5 35.7 466.8 36.1 465.8 36.1 C 465 36.1 464.4 35.9 463.9 35.3 C 463.4 34.7 463.2 33.9 463.2 32.9 C 463.2 31.8 463.4 31.1 463.9 30.5 C 464.4 29.9 465 29.6 465.8 29.6 C 466.3 29.6 466.7 29.7 467 29.9 C 467.3 30.1 467.6 30.4 467.8 30.8 C 467.8 30.8 467.8 30.8 467.8 30.8 Z M 466 30.5 C 465.5 30.5 465.1 30.7 464.8 31.1 C 464.5 31.5 464.3 32.1 464.3 32.9 C 464.3 33.6 464.5 34.2 464.7 34.6 C 465 35.1 465.4 35.3 465.9 35.3 C 466.4 35.3 466.8 35.1 467.1 34.6 C 467.4 34.2 467.6 33.6 467.6 32.8 C 467.6 32.1 467.5 31.5 467.1 31.1 C 466.8 30.7 466.5 30.5 466 30.5 Z M 470.1 31.6 L 471.2 31.6 C 471.2 31.6 471.23 27.96 471.2 28 C 471.23 27.82 471.2 27.7 471.2 27.7 L 471.2 27.7 C 471.2 27.7 471.17 27.8 471 28 C 470.98 27.99 470.5 28.5 470.5 28.5 L 470.1 28.2 L 471.3 27.1 L 471.7 27.1 L 471.7 31.6 L 472.8 31.6 L 472.8 32 L 470.1 32 L 470.1 31.6 Z M 474.1 31.4 L 473.6 32.7 L 473.2 32.7 L 473.6 31.4 L 474.1 31.4 Z M 477.4 28.4 C 477.4 27.9 477 27.5 476.4 27.5 C 475.9 27.5 475.5 27.7 475.5 28 C 475.53 28 475.5 28.2 475.5 28.2 L 475.1 28.2 C 475.1 28.2 475.07 27.87 475.1 27.9 C 475.1 27.2 475.9 27 476.4 27 C 477.4 27 477.9 27.6 477.9 28.4 C 477.9 30.1 475.3 30.1 475.3 31.4 C 475.3 31.5 475.4 31.6 475.5 31.6 C 475.5 31.6 477.5 31.6 477.5 31.6 C 477.6 31.6 477.7 31.5 477.7 31.4 C 477.69 31.42 477.7 31.1 477.7 31.1 L 478.1 31.1 C 478.1 31.1 478.14 31.58 478.1 31.6 C 478.1 31.9 478 32 477.7 32 C 477.7 32 475.3 32 475.3 32 C 474.9 32 474.8 31.9 474.8 31.5 C 474.8 29.7 477.4 29.8 477.4 28.4 Z M 479.5 31.4 L 479 32.7 L 478.6 32.7 L 479 31.4 L 479.5 31.4 Z M 480.4 31 C 480.4 31 480.95 31.63 481.7 31.6 C 482.3 31.6 482.8 31.2 482.8 30.6 C 482.8 29.9 482.3 29.5 481.6 29.5 C 481.65 29.53 481.3 29.5 481.3 29.5 L 481.2 29.2 C 481.2 29.2 482.4 27.79 482.4 27.8 C 482.52 27.63 482.7 27.5 482.7 27.5 L 482.7 27.5 C 482.7 27.5 482.51 27.52 482.3 27.5 C 482.3 27.5 481 27.5 481 27.5 C 480.9 27.5 480.8 27.6 480.8 27.7 C 480.82 27.68 480.8 28 480.8 28 L 480.4 28 C 480.4 28 480.37 27.52 480.4 27.5 C 480.4 27.2 480.5 27.1 480.8 27.1 C 480.78 27.09 483.3 27.1 483.3 27.1 L 483.3 27.4 C 483.3 27.4 481.83 29.11 481.8 29.1 C 482.4 29.1 483.3 29.5 483.3 30.6 C 483.3 31.4 482.7 32.1 481.7 32.1 C 480.75 32.09 480.2 31.4 480.2 31.4 L 480.4 31 Z " stroke="none" fill="#000"/>  </g>  <g id="Polygon67865">    <path d="M 223.6 8.9 C 223.6 8.9 223.83 8.95 223.8 8.9 C 224.1 8.9 224.2 8.9 224.3 8.6 C 224.26 8.64 227.2 0.6 227.2 0.6 L 229.1 0.6 C 229.1 0.6 232.07 8.64 232.1 8.6 C 232.2 8.9 232.3 8.9 232.5 8.9 C 232.5 8.95 232.7 8.9 232.7 8.9 L 232.7 10.5 C 232.7 10.5 231.64 10.5 231.6 10.5 C 230.9 10.5 230.7 10.3 230.5 9.7 C 230.46 9.69 229.8 8 229.8 8 L 226.5 8 C 226.5 8 225.87 9.69 225.9 9.7 C 225.6 10.3 225.4 10.5 224.7 10.5 C 224.71 10.5 223.6 10.5 223.6 10.5 L 223.6 8.9 Z M 229.4 6.4 C 229.4 6.4 228.57 3.95 228.6 3.9 C 228.39 3.4 228.2 2.5 228.2 2.5 L 228.2 2.5 C 228.2 2.5 227.94 3.4 227.8 3.9 C 227.76 3.95 226.9 6.4 226.9 6.4 L 229.4 6.4 Z M 233.4 8.9 C 233.4 8.9 233.96 8.95 234 8.9 C 234.2 8.9 234.3 8.8 234.3 8.6 C 234.27 8.64 234.3 0.6 234.3 0.6 L 235.9 0.6 C 235.9 0.6 239.69 6.06 239.7 6.1 C 240.08 6.64 240.5 7.5 240.5 7.5 L 240.5 7.5 C 240.5 7.5 240.44 6.64 240.4 6.1 C 240.4 6.1 240.4 1.5 240.4 1.5 C 240.4 0.9 240.7 0.6 241.4 0.6 C 241.4 0.56 243.2 0.6 243.2 0.6 L 243.2 2.1 C 243.2 2.1 242.58 2.11 242.6 2.1 C 242.4 2.1 242.3 2.2 242.3 2.4 C 242.28 2.42 242.3 10.5 242.3 10.5 L 240.6 10.5 C 240.6 10.5 236.86 5.01 236.9 5 C 236.47 4.45 236 3.6 236 3.6 L 236 3.6 C 236 3.6 236.1 4.44 236.1 5 C 236.1 5 236.1 9.5 236.1 9.5 C 236.1 10.2 235.8 10.5 235.2 10.5 C 235.15 10.5 233.4 10.5 233.4 10.5 L 233.4 8.9 Z M 247.3 2.1 C 247.3 2.1 245.79 2.11 245.8 2.1 C 245.6 2.1 245.5 2.2 245.5 2.4 C 245.48 2.42 245.5 3 245.5 3 L 243.9 3 C 243.9 3 243.87 1.46 243.9 1.5 C 243.9 0.8 244.1 0.6 244.8 0.6 C 244.8 0.6 251.7 0.6 251.7 0.6 C 252.4 0.6 252.6 0.8 252.6 1.5 C 252.59 1.46 252.6 3 252.6 3 L 251 3 C 251 3 250.99 2.42 251 2.4 C 251 2.2 250.9 2.1 250.7 2.1 C 250.68 2.11 249.2 2.1 249.2 2.1 L 249.2 10.5 L 247.3 10.5 L 247.3 2.1 Z M 251.8 8.9 C 251.8 8.9 251.98 8.95 252 8.9 C 252.2 8.9 252.3 8.9 252.4 8.6 C 252.41 8.64 255.4 0.6 255.4 0.6 L 257.3 0.6 C 257.3 0.6 260.22 8.64 260.2 8.6 C 260.3 8.9 260.4 8.9 260.7 8.9 C 260.66 8.95 260.9 8.9 260.9 8.9 L 260.9 10.5 C 260.9 10.5 259.79 10.5 259.8 10.5 C 259.1 10.5 258.8 10.3 258.6 9.7 C 258.62 9.69 258 8 258 8 L 254.6 8 C 254.6 8 254.02 9.69 254 9.7 C 253.8 10.3 253.6 10.5 252.9 10.5 C 252.86 10.5 251.8 10.5 251.8 10.5 L 251.8 8.9 Z M 257.6 6.4 C 257.6 6.4 256.73 3.95 256.7 3.9 C 256.54 3.4 256.3 2.5 256.3 2.5 L 256.3 2.5 C 256.3 2.5 256.1 3.4 255.9 3.9 C 255.91 3.95 255.1 6.4 255.1 6.4 L 257.6 6.4 Z M 266.3 0.4 C 268.78 0.39 270 1.7 270 1.7 L 268.9 3 C 268.9 3 267.9 2.09 266.4 2.1 C 264.7 2.1 263.2 3.4 263.2 5.5 C 263.2 7.6 264.7 9 266.5 9 C 268.04 8.96 269 7.9 269 7.9 C 269 7.9 268.98 7.18 269 7.2 C 269 7 268.9 6.9 268.7 6.9 C 268.67 6.87 268.1 6.9 268.1 6.9 L 268.1 5.3 C 268.1 5.3 269.68 5.32 269.7 5.3 C 270.3 5.3 270.6 5.6 270.6 6.3 C 270.63 6.26 270.6 10.5 270.6 10.5 L 269.1 10.5 C 269.1 10.5 269.06 10.02 269.1 10 C 269.1 9.8 269.1 9.6 269.1 9.6 C 269.07 9.6 269 9.6 269 9.6 C 269 9.6 267.98 10.67 266.1 10.7 C 263.5 10.7 261.3 8.7 261.3 5.5 C 261.3 2.6 263.5 0.4 266.3 0.4 Z M 276.8 0.4 C 279.7 0.4 281.9 2.6 281.9 5.5 C 281.9 8.4 279.7 10.7 276.8 10.7 C 273.9 10.7 271.7 8.4 271.7 5.5 C 271.7 2.6 273.9 0.4 276.8 0.4 Z M 276.8 9 C 278.6 9 280 7.4 280 5.5 C 280 3.6 278.6 2.1 276.8 2.1 C 275 2.1 273.6 3.6 273.6 5.5 C 273.6 7.4 275 9 276.8 9 Z M 282.8 8.9 C 282.8 8.9 283.44 8.95 283.4 8.9 C 283.6 8.9 283.7 8.8 283.7 8.6 C 283.75 8.64 283.7 0.6 283.7 0.6 L 285.4 0.6 C 285.4 0.6 289.16 6.06 289.2 6.1 C 289.56 6.64 290 7.5 290 7.5 L 290 7.5 C 290 7.5 289.92 6.64 289.9 6.1 C 289.9 6.1 289.9 1.5 289.9 1.5 C 289.9 0.9 290.2 0.6 290.9 0.6 C 290.87 0.56 292.7 0.6 292.7 0.6 L 292.7 2.1 C 292.7 2.1 292.06 2.11 292.1 2.1 C 291.9 2.1 291.8 2.2 291.8 2.4 C 291.75 2.42 291.8 10.5 291.8 10.5 L 290.1 10.5 C 290.1 10.5 286.33 5.01 286.3 5 C 285.94 4.45 285.5 3.6 285.5 3.6 L 285.5 3.6 C 285.5 3.6 285.58 4.44 285.6 5 C 285.6 5 285.6 9.5 285.6 9.5 C 285.6 10.2 285.3 10.5 284.6 10.5 C 284.63 10.5 282.8 10.5 282.8 10.5 L 282.8 8.9 Z M 293.7 8.9 L 294.7 8.9 L 294.7 2.1 L 293.7 2.1 L 293.7 0.6 L 297.4 0.6 L 297.4 2.1 L 296.4 2.1 L 296.4 8.9 L 297.4 8.9 L 297.4 10.5 L 293.7 10.5 L 293.7 8.9 Z M 299.4 7.8 C 299.4 7.8 300.43 9.02 301.8 9 C 302.6 9 303.2 8.6 303.2 7.8 C 303.2 6.1 298.6 6.3 298.6 3.2 C 298.6 1.6 300 0.4 301.9 0.4 C 303.1 0.4 304.8 0.9 304.8 2.4 C 304.84 2.35 304.8 3.3 304.8 3.3 L 303.2 3.3 C 303.2 3.3 303.19 2.83 303.2 2.8 C 303.2 2.4 302.5 2.1 301.9 2.1 C 301 2.1 300.4 2.5 300.4 3.1 C 300.4 4.8 305.1 4.5 305.1 7.7 C 305.1 9.3 303.9 10.7 301.8 10.7 C 299.59 10.67 298.4 9.1 298.4 9.1 L 299.4 7.8 Z M 309.3 2.1 C 309.3 2.1 307.74 2.11 307.7 2.1 C 307.5 2.1 307.4 2.2 307.4 2.4 C 307.43 2.42 307.4 3 307.4 3 L 305.8 3 C 305.8 3 305.82 1.46 305.8 1.5 C 305.8 0.8 306 0.6 306.7 0.6 C 306.7 0.6 313.6 0.6 313.6 0.6 C 314.3 0.6 314.5 0.8 314.5 1.5 C 314.54 1.46 314.5 3 314.5 3 L 312.9 3 C 312.9 3 312.94 2.42 312.9 2.4 C 312.9 2.2 312.8 2.1 312.6 2.1 C 312.63 2.11 311.1 2.1 311.1 2.1 L 311.1 10.5 L 309.3 10.5 L 309.3 2.1 Z M 313.7 8.9 C 313.7 8.9 313.93 8.95 313.9 8.9 C 314.2 8.9 314.3 8.9 314.4 8.6 C 314.36 8.64 317.3 0.6 317.3 0.6 L 319.2 0.6 C 319.2 0.6 322.17 8.64 322.2 8.6 C 322.3 8.9 322.4 8.9 322.6 8.9 C 322.61 8.95 322.8 8.9 322.8 8.9 L 322.8 10.5 C 322.8 10.5 321.74 10.5 321.7 10.5 C 321 10.5 320.8 10.3 320.6 9.7 C 320.56 9.69 319.9 8 319.9 8 L 316.6 8 C 316.6 8 315.97 9.69 316 9.7 C 315.7 10.3 315.5 10.5 314.8 10.5 C 314.81 10.5 313.7 10.5 313.7 10.5 L 313.7 8.9 Z M 319.5 6.4 C 319.5 6.4 318.67 3.95 318.7 3.9 C 318.49 3.4 318.3 2.5 318.3 2.5 L 318.3 2.5 C 318.3 2.5 318.05 3.4 317.9 3.9 C 317.86 3.95 317 6.4 317 6.4 L 319.5 6.4 Z M 327.9 5.2 C 327.9 5 327.7 4.9 327.6 4.9 C 327.55 4.87 327 4.9 327 4.9 L 327 3.4 C 327 3.4 328.63 3.36 328.6 3.4 C 329.3 3.4 329.6 3.7 329.6 4.2 C 329.6 4.2 329.6 4.4 329.6 4.4 C 329.6 4.5 329.5 4.7 329.5 4.7 C 329.5 4.7 329.6 4.7 329.6 4.7 C 329.9 4.1 330.6 3.2 332.1 3.2 C 333.7 3.2 334.6 4 334.6 5.9 C 334.6 5.9 334.6 8.7 334.6 8.7 C 334.6 8.9 334.7 9 334.9 9 C 334.89 9 335.4 9 335.4 9 L 335.4 10.5 C 335.4 10.5 333.75 10.5 333.8 10.5 C 333.1 10.5 332.8 10.2 332.8 9.5 C 332.8 9.5 332.8 6.3 332.8 6.3 C 332.8 5.4 332.6 4.8 331.7 4.8 C 330.7 4.8 330 5.4 329.8 6.3 C 329.7 6.6 329.6 6.9 329.6 7.2 C 329.62 7.22 329.6 10.5 329.6 10.5 L 327.9 10.5 C 327.9 10.5 327.86 5.18 327.9 5.2 Z M 340.4 6 C 340.4 6.02 340.6 6 340.6 6 C 340.6 6 340.63 5.96 340.6 6 C 340.6 4.9 340.2 4.6 339.3 4.6 C 339 4.6 338.4 4.6 338.4 5 C 338.36 5.04 338.4 5.4 338.4 5.4 L 336.7 5.4 C 336.7 5.4 336.71 4.66 336.7 4.7 C 336.7 3.3 338.6 3.2 339.3 3.2 C 341.7 3.2 342.4 4.4 342.4 6 C 342.4 6 342.4 8.7 342.4 8.7 C 342.4 8.9 342.5 9 342.7 9 C 342.71 9 343.3 9 343.3 9 L 343.3 10.5 C 343.3 10.5 341.68 10.5 341.7 10.5 C 341 10.5 340.8 10.1 340.8 9.7 C 340.8 9.5 340.8 9.4 340.8 9.4 C 340.78 9.41 340.8 9.4 340.8 9.4 C 340.8 9.4 340.21 10.67 338.6 10.7 C 337.3 10.7 336.2 9.9 336.2 8.4 C 336.2 6.2 339.2 6 340.4 6 Z M 339 9.3 C 340 9.3 340.7 8.3 340.7 7.4 C 340.66 7.41 340.7 7.2 340.7 7.2 C 340.7 7.2 340.35 7.24 340.3 7.2 C 339.4 7.2 338 7.4 338 8.4 C 338 8.8 338.3 9.3 339 9.3 Z M 348.4 5.2 C 348.4 5 348.3 4.9 348.1 4.9 C 348.1 4.87 347.5 4.9 347.5 4.9 L 347.5 3.4 C 347.5 3.4 349.18 3.36 349.2 3.4 C 349.8 3.4 350.1 3.7 350.1 4.2 C 350.1 4.2 350.1 4.4 350.1 4.4 C 350.1 4.5 350.1 4.7 350.1 4.7 C 350.1 4.7 350.1 4.7 350.1 4.7 C 350.5 4 351.3 3.2 352.4 3.2 C 353.5 3.2 354.2 3.7 354.5 4.7 C 354.5 4.7 354.6 4.7 354.6 4.7 C 354.9 3.9 355.9 3.2 357 3.2 C 358.5 3.2 359.3 4 359.3 5.9 C 359.3 5.9 359.3 8.7 359.3 8.7 C 359.3 8.9 359.4 9 359.6 9 C 359.64 9 360.2 9 360.2 9 L 360.2 10.5 C 360.2 10.5 358.5 10.5 358.5 10.5 C 357.8 10.5 357.6 10.2 357.6 9.5 C 357.6 9.5 357.6 6.2 357.6 6.2 C 357.6 5.4 357.4 4.8 356.6 4.8 C 355.7 4.8 355.1 5.6 354.9 6.5 C 354.8 6.7 354.8 7 354.8 7.4 C 354.75 7.36 354.8 10.5 354.8 10.5 L 353 10.5 C 353 10.5 352.98 6.24 353 6.2 C 353 5.5 352.9 4.8 352 4.8 C 351.1 4.8 350.5 5.6 350.3 6.5 C 350.2 6.7 350.2 7 350.2 7.4 C 350.17 7.36 350.2 10.5 350.2 10.5 L 348.4 10.5 C 348.4 10.5 348.41 5.18 348.4 5.2 Z M 364.5 3.2 C 366.6 3.2 367.7 4.7 367.7 6.6 C 367.69 6.79 367.6 7.2 367.6 7.2 C 367.6 7.2 362.72 7.24 362.7 7.2 C 362.9 8.5 363.8 9.2 364.9 9.2 C 366.01 9.16 366.9 8.4 366.9 8.4 L 367.6 9.6 C 367.6 9.6 366.51 10.67 364.7 10.7 C 362.4 10.7 360.9 9 360.9 6.9 C 360.9 4.7 362.4 3.2 364.5 3.2 Z M 365.9 6 C 365.8 5.2 365.3 4.6 364.5 4.6 C 363.6 4.6 363 5.1 362.8 6 C 362.8 6 365.9 6 365.9 6 Z M 369.4 5.2 C 369.4 5 369.3 4.9 369.1 4.9 C 369.1 4.87 368.5 4.9 368.5 4.9 L 368.5 3.4 C 368.5 3.4 370.18 3.36 370.2 3.4 C 370.8 3.4 371.1 3.7 371.1 4.2 C 371.1 4.2 371.1 4.4 371.1 4.4 C 371.1 4.5 371.1 4.7 371.1 4.7 C 371.1 4.7 371.1 4.7 371.1 4.7 C 371.5 4 372.3 3.2 373.4 3.2 C 374.5 3.2 375.2 3.7 375.5 4.7 C 375.5 4.7 375.6 4.7 375.6 4.7 C 375.9 3.9 376.9 3.2 378 3.2 C 379.5 3.2 380.3 4 380.3 5.9 C 380.3 5.9 380.3 8.7 380.3 8.7 C 380.3 8.9 380.4 9 380.6 9 C 380.64 9 381.2 9 381.2 9 L 381.2 10.5 C 381.2 10.5 379.5 10.5 379.5 10.5 C 378.8 10.5 378.6 10.2 378.6 9.5 C 378.6 9.5 378.6 6.2 378.6 6.2 C 378.6 5.4 378.4 4.8 377.6 4.8 C 376.7 4.8 376.1 5.6 375.9 6.5 C 375.8 6.7 375.8 7 375.8 7.4 C 375.75 7.36 375.8 10.5 375.8 10.5 L 374 10.5 C 374 10.5 373.98 6.24 374 6.2 C 374 5.5 373.9 4.8 373 4.8 C 372.1 4.8 371.5 5.6 371.3 6.5 C 371.2 6.7 371.2 7 371.2 7.4 C 371.17 7.36 371.2 10.5 371.2 10.5 L 369.4 10.5 C 369.4 10.5 369.41 5.18 369.4 5.2 Z M 382.6 2.4 C 382.6 2.2 382.4 2.1 382.2 2.1 C 382.25 2.07 381.7 2.1 381.7 2.1 L 381.7 0.6 C 381.7 0.6 383.38 0.56 383.4 0.6 C 384 0.6 384.3 0.9 384.3 1.5 C 384.3 1.5 384.3 3.6 384.3 3.6 C 384.33 3.93 384.3 4.2 384.3 4.2 L 384.3 4.2 C 384.3 4.2 384.96 3.19 386.5 3.2 C 388.4 3.2 389.6 4.7 389.6 6.9 C 389.6 9.2 388.3 10.7 386.4 10.7 C 384.88 10.67 384.2 9.7 384.2 9.7 L 384.2 9.7 C 384.2 9.7 384.24 9.86 384.2 10.1 C 384.24 10.14 384.2 10.5 384.2 10.5 L 382.6 10.5 C 382.6 10.5 382.56 2.38 382.6 2.4 Z M 386.1 9.2 C 387 9.2 387.8 8.4 387.8 7 C 387.8 5.6 387.1 4.7 386.1 4.7 C 385.1 4.7 384.3 5.4 384.3 7 C 384.3 8.1 384.9 9.2 386.1 9.2 Z M 391.3 5.2 C 391.3 5 391.2 4.9 391 4.9 C 390.96 4.87 390.4 4.9 390.4 4.9 L 390.4 3.4 C 390.4 3.4 392.02 3.36 392 3.4 C 392.7 3.4 393 3.6 393 4.2 C 393 4.2 393 4.6 393 4.6 C 392.97 4.91 392.9 5.1 392.9 5.1 C 392.9 5.1 392.97 5.1 393 5.1 C 393.3 4.1 394.1 3.3 395.2 3.3 C 395.39 3.26 395.6 3.3 395.6 3.3 L 395.6 5 C 395.6 5 395.38 5.01 395.1 5 C 394.4 5 393.5 5.4 393.2 6.5 C 393.1 6.9 393 7.3 393 7.7 C 393.03 7.67 393 10.5 393 10.5 L 391.3 10.5 C 391.3 10.5 391.27 5.18 391.3 5.2 Z M 400.2 6 C 400.16 6.02 400.4 6 400.4 6 C 400.4 6 400.38 5.96 400.4 6 C 400.4 4.9 400 4.6 399.1 4.6 C 398.7 4.6 398.1 4.6 398.1 5 C 398.11 5.04 398.1 5.4 398.1 5.4 L 396.5 5.4 C 396.5 5.4 396.46 4.66 396.5 4.7 C 396.5 3.3 398.3 3.2 399.1 3.2 C 401.5 3.2 402.2 4.4 402.2 6 C 402.2 6 402.2 8.7 402.2 8.7 C 402.2 8.9 402.3 9 402.5 9 C 402.46 9 403 9 403 9 L 403 10.5 C 403 10.5 401.43 10.5 401.4 10.5 C 400.8 10.5 400.5 10.1 400.5 9.7 C 400.5 9.5 400.5 9.4 400.5 9.4 C 400.53 9.41 400.5 9.4 400.5 9.4 C 400.5 9.4 399.96 10.67 398.3 10.7 C 397.1 10.7 395.9 9.9 395.9 8.4 C 395.9 6.2 399 6 400.2 6 Z M 398.8 9.3 C 399.7 9.3 400.4 8.3 400.4 7.4 C 400.41 7.41 400.4 7.2 400.4 7.2 C 400.4 7.2 400.1 7.24 400.1 7.2 C 399.2 7.2 397.7 7.4 397.7 8.4 C 397.7 8.8 398.1 9.3 398.8 9.3 Z M 399.6 0.6 L 401.3 0.6 L 399.9 2.5 L 398.6 2.5 L 399.6 0.6 Z M 404.5 5.2 C 404.5 5 404.3 4.9 404.1 4.9 C 404.15 4.87 403.6 4.9 403.6 4.9 L 403.6 3.4 C 403.6 3.4 405.22 3.36 405.2 3.4 C 405.9 3.4 406.2 3.7 406.2 4.2 C 406.2 4.2 406.2 4.4 406.2 4.4 C 406.2 4.5 406.1 4.7 406.1 4.7 C 406.1 4.7 406.2 4.7 406.2 4.7 C 406.5 4.1 407.2 3.2 408.7 3.2 C 410.3 3.2 411.2 4 411.2 5.9 C 411.2 5.9 411.2 8.7 411.2 8.7 C 411.2 8.9 411.3 9 411.5 9 C 411.48 9 412 9 412 9 L 412 10.5 C 412 10.5 410.35 10.5 410.3 10.5 C 409.7 10.5 409.4 10.2 409.4 9.5 C 409.4 9.5 409.4 6.3 409.4 6.3 C 409.4 5.4 409.2 4.8 408.3 4.8 C 407.3 4.8 406.6 5.4 406.4 6.3 C 406.3 6.6 406.2 6.9 406.2 7.2 C 406.22 7.22 406.2 10.5 406.2 10.5 L 404.5 10.5 C 404.5 10.5 404.45 5.18 404.5 5.2 Z M 416.6 3.2 C 418.8 3.2 420.6 4.7 420.6 6.9 C 420.6 9.1 418.8 10.7 416.6 10.7 C 414.5 10.7 412.7 9.1 412.7 6.9 C 412.7 4.7 414.5 3.2 416.6 3.2 Z M 416.6 9.2 C 417.8 9.2 418.8 8.3 418.8 6.9 C 418.8 5.6 417.8 4.7 416.6 4.7 C 415.5 4.7 414.5 5.6 414.5 6.9 C 414.5 8.3 415.5 9.2 416.6 9.2 Z M 421.6 5.1 C 421.5 4.9 421.4 4.9 421.2 4.9 C 421.2 4.87 421 4.9 421 4.9 L 421 3.4 C 421 3.4 422.06 3.36 422.1 3.4 C 422.7 3.4 422.9 3.5 423.1 4 C 423.1 4 424.5 7.8 424.5 7.8 C 424.61 8.2 424.7 8.8 424.7 8.8 L 424.8 8.8 C 424.8 8.8 424.86 8.2 425 7.8 C 425 7.8 426.3 4 426.3 4 C 426.5 3.5 426.8 3.4 427.4 3.4 C 427.4 3.36 428.3 3.4 428.3 3.4 L 428.3 4.9 C 428.3 4.9 428.18 4.87 428.2 4.9 C 428 4.9 427.9 4.9 427.8 5.1 C 427.79 5.12 425.7 10.5 425.7 10.5 L 423.6 10.5 C 423.6 10.5 421.59 5.12 421.6 5.1 Z M 430.2 11.9 C 430.7 11.9 431.2 11.6 431.4 11 C 431.4 11.03 431.6 10.5 431.6 10.5 C 431.6 10.5 429.26 5.12 429.3 5.1 C 429.2 4.9 429.1 4.9 428.9 4.9 C 428.88 4.87 428.7 4.9 428.7 4.9 L 428.7 3.4 C 428.7 3.4 429.85 3.36 429.8 3.4 C 430.4 3.4 430.6 3.5 430.8 4 C 430.8 4 432.2 7.6 432.2 7.6 C 432.33 7.97 432.4 8.6 432.4 8.6 L 432.5 8.6 C 432.5 8.6 432.58 7.97 432.7 7.6 C 432.7 7.6 433.9 4 433.9 4 C 434.1 3.5 434.4 3.4 434.9 3.4 C 434.87 3.36 436.1 3.4 436.1 3.4 L 436.1 4.9 C 436.1 4.9 435.87 4.87 435.9 4.9 C 435.7 4.9 435.5 4.9 435.5 5.1 C 435.5 5.1 432.9 11.6 432.9 11.6 C 432.4 12.9 431.4 13.4 430.3 13.4 C 429.2 13.44 428.5 12.7 428.5 12.7 L 429.2 11.5 C 429.2 11.5 429.64 11.94 430.2 11.9 Z M 432.8 0.6 L 434.5 0.6 L 433 2.5 L 431.7 2.5 L 432.8 0.6 Z M 440.5 3.2 C 441.4 3.2 443 3.6 443 4.8 C 443.05 4.8 443 5.6 443 5.6 L 441.5 5.6 C 441.5 5.6 441.48 5.25 441.5 5.2 C 441.5 4.9 440.9 4.7 440.5 4.7 C 439.2 4.7 438.3 5.6 438.3 6.9 C 438.3 8.4 439.4 9.1 440.6 9.1 C 441.79 9.11 442.7 8.1 442.7 8.1 L 443.4 9.4 C 443.4 9.4 442.36 10.67 440.4 10.7 C 438.1 10.7 436.6 9 436.6 6.9 C 436.6 4.9 438 3.2 440.5 3.2 Z M 444.7 2.4 C 444.7 2.2 444.6 2.1 444.4 2.1 C 444.39 2.07 443.8 2.1 443.8 2.1 L 443.8 0.6 C 443.8 0.6 445.53 0.56 445.5 0.6 C 446.2 0.6 446.5 0.9 446.5 1.5 C 446.5 1.5 446.5 4 446.5 4 C 446.48 4.35 446.5 4.6 446.5 4.6 C 446.5 4.6 446.48 4.61 446.5 4.6 C 446.8 3.9 447.7 3.2 448.9 3.2 C 450.5 3.2 451.4 4 451.4 5.9 C 451.4 5.9 451.4 8.7 451.4 8.7 C 451.4 8.9 451.5 9 451.7 9 C 451.73 9 452.3 9 452.3 9 L 452.3 10.5 C 452.3 10.5 450.6 10.5 450.6 10.5 C 449.9 10.5 449.7 10.2 449.7 9.5 C 449.7 9.5 449.7 6.3 449.7 6.3 C 449.7 5.4 449.4 4.8 448.5 4.8 C 447.6 4.8 446.9 5.4 446.6 6.3 C 446.5 6.6 446.5 6.9 446.5 7.2 C 446.48 7.22 446.5 10.5 446.5 10.5 L 444.7 10.5 C 444.7 10.5 444.7 2.38 444.7 2.4 Z M 457.7 2.1 L 456.7 2.1 L 456.7 0.6 C 456.7 0.6 462.75 0.56 462.7 0.6 C 463.4 0.6 463.7 0.9 463.7 1.5 C 463.7 1.51 463.7 3 463.7 3 L 462 3 C 462 3 462.03 2.42 462 2.4 C 462 2.2 461.9 2.1 461.7 2.1 C 461.73 2.11 459.5 2.1 459.5 2.1 L 459.5 4.7 L 462.7 4.7 L 462.7 6.3 L 459.5 6.3 C 459.5 6.3 459.49 8.64 459.5 8.6 C 459.5 8.8 459.6 8.9 459.8 8.9 C 459.8 8.9 462.1 8.9 462.1 8.9 C 462.3 8.9 462.4 8.8 462.4 8.6 C 462.4 8.64 462.4 8 462.4 8 L 464.1 8 C 464.1 8 464.06 9.55 464.1 9.5 C 464.1 10.2 463.8 10.5 463.1 10.5 C 463.1 10.5 458.6 10.5 458.6 10.5 C 457.9 10.5 457.7 10.2 457.7 9.5 C 457.65 9.55 457.7 2.1 457.7 2.1 Z M 465.7 2.1 L 464.8 2.1 L 464.8 0.6 C 464.8 0.6 469.29 0.56 469.3 0.6 C 471.1 0.6 472.4 1.7 472.4 3.6 C 472.4 5.3 471.1 6.1 470.7 6.2 C 470.73 6.17 470.7 6.2 470.7 6.2 C 470.7 6.2 471.04 6.34 471.2 6.7 C 471.2 6.7 472.2 8.6 472.2 8.6 C 472.3 8.9 472.6 8.9 472.9 8.9 C 472.88 8.95 473.1 8.9 473.1 8.9 L 473.1 10.5 C 473.1 10.5 472.1 10.5 472.1 10.5 C 471.4 10.5 471 10.4 470.7 9.8 C 470.7 9.8 469.4 7.3 469.4 7.3 C 469.2 6.9 469 6.8 468.5 6.8 C 468.5 6.79 467.6 6.8 467.6 6.8 L 467.6 10.5 L 465.7 10.5 L 465.7 2.1 Z M 469 5.2 C 470 5.2 470.5 4.6 470.5 3.7 C 470.5 2.7 470 2.1 469.1 2.1 C 469.06 2.11 467.6 2.1 467.6 2.1 L 467.6 5.2 C 467.6 5.2 469.03 5.22 469 5.2 Z M 479.3 4.5 C 479.4 4.2 479.5 3.7 479.7 3.2 C 479.7 3.2 481.4 3.2 481.4 3.2 C 481.1 3.8 480.9 4.4 480.7 5.3 C 480.5 6.1 480.4 6.7 480.4 7 C 480.4 7.4 480.5 8 480.7 8.7 C 480.8 9.3 481 10 481.3 10.5 C 481.3 10.5 479.7 10.5 479.7 10.5 C 479.6 10.4 479.6 10.3 479.5 10.1 C 479.4 9.8 479.4 9.6 479.3 9.3 C 478.7 10.2 477.9 10.7 476.9 10.7 C 475.9 10.7 475.1 10.3 474.6 9.5 C 474 8.7 473.7 7.7 473.7 6.7 C 473.7 5.7 474 4.8 474.6 4.1 C 475.1 3.4 475.9 3.1 476.9 3.1 C 477.9 3.1 478.7 3.5 479.3 4.5 C 479.3 4.5 479.3 4.5 479.3 4.5 Z M 475.7 6.9 C 475.7 7.6 475.9 8.1 476.1 8.5 C 476.4 8.9 476.8 9.1 477.2 9.1 C 477.7 9.1 478 9 478.3 8.6 C 478.6 8.2 478.7 7.7 478.7 6.9 C 478.7 6.1 478.6 5.6 478.3 5.2 C 478 4.8 477.6 4.6 477.2 4.6 C 476.8 4.6 476.4 4.8 476.1 5.2 C 475.9 5.6 475.7 6.2 475.7 6.9 Z " stroke="none" fill="#5f0f50"/>  </g></svg>