<?xml version="1.0" standalone="no"?><!DOCTYPE svg PUBLIC "-//W3C//DTD SVG 1.1//EN" "http://www.w3.org/Graphics/SVG/1.1/DTD/svg11.dtd"><svg xmlns="http://www.w3.org/2000/svg" version="1.1" width="429px" height="63px" viewBox="0 -8 429 63" style="top:-8px">  <desc>prelomov formA</desc>  <defs/>  <g id="Polygon65387">    <path d="M 4.4 6.6 L 1.5 6.6 L 1.5 1.8 C 1.5 1.8 15.8 1.76 15.8 1.8 C 21.6 1.8 25.7 5.9 25.7 11.9 C 25.7 18 21.6 22.2 15.8 22.2 C 15.8 22.22 10.1 22.2 10.1 22.2 L 10.1 33 L 4.4 33 L 4.4 6.6 Z M 14.7 17.3 C 18 17.3 19.8 15.2 19.8 11.9 C 19.8 8.7 18 6.6 14.8 6.6 C 14.83 6.64 10.1 6.6 10.1 6.6 L 10.1 17.3 C 10.1 17.3 14.74 17.29 14.7 17.3 Z M 30.5 6.6 L 27.7 6.6 L 27.7 1.8 C 27.7 1.8 41.67 1.76 41.7 1.8 C 47.4 1.8 51.4 5.3 51.4 11.2 C 51.4 16.8 47.5 19.1 46.2 19.4 C 46.2 19.4 46.2 19.5 46.2 19.5 C 46.2 19.5 47.17 19.93 47.7 21.1 C 47.7 21.1 50.8 27.1 50.8 27.1 C 51.3 28 52 28.1 53 28.1 C 52.98 28.12 53.5 28.1 53.5 28.1 L 53.5 33 C 53.5 33 50.51 33 50.5 33 C 48.2 33 47.2 32.6 46.2 30.7 C 46.2 30.7 42.2 22.8 42.2 22.8 C 41.5 21.6 40.8 21.3 39.2 21.3 C 39.2 21.34 36.3 21.3 36.3 21.3 L 36.3 33 L 30.5 33 L 30.5 6.6 Z M 40.9 16.4 C 43.8 16.4 45.5 14.6 45.5 11.5 C 45.5 8.4 43.8 6.6 41 6.6 C 40.96 6.64 36.3 6.6 36.3 6.6 L 36.3 16.4 C 36.3 16.4 40.88 16.41 40.9 16.4 Z M 57.9 6.6 L 55 6.6 L 55 1.8 C 55 1.8 73.92 1.76 73.9 1.8 C 76 1.8 76.9 2.7 76.9 4.8 C 76.91 4.75 76.9 9.5 76.9 9.5 L 71.7 9.5 C 71.7 9.5 71.68 7.61 71.7 7.6 C 71.7 7 71.3 6.6 70.7 6.6 C 70.71 6.64 63.7 6.6 63.7 6.6 L 63.7 14.8 L 73.8 14.8 L 73.8 19.7 L 63.7 19.7 C 63.7 19.7 63.67 27.15 63.7 27.1 C 63.7 27.8 64 28.1 64.6 28.1 C 64.6 28.1 71.9 28.1 71.9 28.1 C 72.5 28.1 72.8 27.8 72.8 27.1 C 72.82 27.15 72.8 25.3 72.8 25.3 L 78.1 25.3 C 78.1 25.3 78.06 30.01 78.1 30 C 78.1 32.1 77.1 33 75.1 33 C 75.1 33 60.9 33 60.9 33 C 58.8 33 57.9 32.1 57.9 30 C 57.9 30.01 57.9 6.6 57.9 6.6 Z M 82.9 7.6 C 82.9 7 82.5 6.6 81.9 6.6 C 81.93 6.64 80 6.6 80 6.6 L 80 1.8 C 80 1.8 85.67 1.76 85.7 1.8 C 87.8 1.8 88.7 2.7 88.7 4.8 C 88.7 4.8 88.7 27.1 88.7 27.1 C 88.7 27.8 89 28.1 89.6 28.1 C 89.6 28.1 96.4 28.1 96.4 28.1 C 97.1 28.1 97.4 27.8 97.4 27.1 C 97.41 27.15 97.4 25.3 97.4 25.3 L 102.7 25.3 C 102.7 25.3 102.65 30.01 102.7 30 C 102.7 32.1 101.8 33 99.7 33 C 99.7 33 85.9 33 85.9 33 C 83.8 33 82.9 32.1 82.9 30 C 82.9 30 82.9 7.6 82.9 7.6 Z M 119.2 1.2 C 128.4 1.2 135.4 8.2 135.4 17.2 C 135.4 26.4 128.4 33.5 119.2 33.5 C 110 33.5 103.1 26.4 103.1 17.2 C 103.1 8.2 110 1.2 119.2 1.2 Z M 119.2 28.2 C 124.9 28.2 129.4 23.4 129.4 17.2 C 129.4 11.2 124.9 6.6 119.2 6.6 C 113.6 6.6 109.1 11.2 109.1 17.2 C 109.1 23.4 113.6 28.2 119.2 28.2 Z M 137.1 28.1 C 137.1 28.1 138.42 28.12 138.4 28.1 C 139 28.1 139.3 27.8 139.4 27.1 C 139.39 27.15 141.4 1.8 141.4 1.8 L 147.4 1.8 C 147.4 1.8 153.82 16.63 153.8 16.6 C 154.57 18.44 155.4 20.8 155.4 20.8 L 155.5 20.8 C 155.5 20.8 156.24 18.44 157 16.6 C 156.99 16.63 163.4 1.8 163.4 1.8 L 169.4 1.8 C 169.4 1.8 171.42 27.15 171.4 27.1 C 171.5 27.8 171.8 28.1 172.4 28.1 C 172.39 28.12 173.8 28.1 173.8 28.1 L 173.8 33 C 173.8 33 168.78 33 168.8 33 C 166.7 33 166 32.1 165.8 30 C 165.8 30 164.8 16.1 164.8 16.1 C 164.6 14.04 164.7 11.3 164.7 11.3 L 164.6 11.3 C 164.6 11.3 163.72 14.34 162.9 16.1 C 162.93 16.1 157.7 27.6 157.7 27.6 L 153.1 27.6 C 153.1 27.6 147.88 16.1 147.9 16.1 C 147.09 14.34 146.2 11.2 146.2 11.2 L 146.1 11.2 C 146.1 11.2 146.21 14.04 146 16.1 C 146 16.1 145 30 145 30 C 144.8 32.1 144.1 33 142 33 C 142.03 33 137.1 33 137.1 33 L 137.1 28.1 Z M 191.6 1.2 C 200.8 1.2 207.7 8.2 207.7 17.2 C 207.7 26.4 200.8 33.5 191.6 33.5 C 182.4 33.5 175.4 26.4 175.4 17.2 C 175.4 8.2 182.4 1.2 191.6 1.2 Z M 191.6 28.2 C 197.2 28.2 201.7 23.4 201.7 17.2 C 201.7 11.2 197.2 6.6 191.6 6.6 C 185.9 6.6 181.4 11.2 181.4 17.2 C 181.4 23.4 185.9 28.2 191.6 28.2 Z M 210.8 7.6 C 210.5 6.9 210.2 6.6 209.4 6.6 C 209.44 6.64 208.6 6.6 208.6 6.6 L 208.6 1.8 C 208.6 1.8 212.3 1.76 212.3 1.8 C 214.5 1.8 215.3 2.3 216 4.3 C 216 4.3 222 21.7 222 21.7 C 222.59 23.5 223.2 26.3 223.2 26.3 L 223.3 26.3 C 223.3 26.3 223.83 23.5 224.4 21.7 C 224.4 21.7 230.4 4.3 230.4 4.3 C 231.1 2.3 231.9 1.8 234.1 1.8 C 234.08 1.76 237.8 1.8 237.8 1.8 L 237.8 6.6 C 237.8 6.6 236.94 6.64 236.9 6.6 C 236.2 6.6 235.8 6.9 235.6 7.6 C 235.57 7.61 226.2 33 226.2 33 L 220.2 33 C 220.2 33 210.8 7.61 210.8 7.6 Z M 236.9 28.1 C 236.9 28.1 237.64 28.12 237.6 28.1 C 238.4 28.1 238.7 27.9 239 27.1 C 239.01 27.15 248.3 1.8 248.3 1.8 L 254.3 1.8 C 254.3 1.8 263.56 27.15 263.6 27.1 C 263.8 27.9 264.2 28.1 264.9 28.1 C 264.92 28.12 265.6 28.1 265.6 28.1 L 265.6 33 C 265.6 33 262.19 33 262.2 33 C 260 33 259.2 32.4 258.5 30.4 C 258.5 30.45 256.6 25 256.6 25 L 246 25 C 246 25 244.07 30.45 244.1 30.4 C 243.4 32.4 242.6 33 240.4 33 C 240.41 33 236.9 33 236.9 33 L 236.9 28.1 Z M 255.2 20.2 C 255.2 20.2 252.56 12.41 252.6 12.4 C 251.99 10.69 251.3 7.7 251.3 7.7 L 251.2 7.7 C 251.2 7.7 250.58 10.69 250 12.4 C 250.01 12.41 247.3 20.2 247.3 20.2 L 255.2 20.2 Z M 252.5 -6.3 L 257.8 -6.3 L 253.2 -0.3 L 249.1 -0.3 L 252.5 -6.3 Z M 281.2 6.6 L 278.4 6.6 L 278.4 1.8 C 278.4 1.8 296.21 1.76 296.2 1.8 C 298.3 1.8 299.2 2.7 299.2 4.8 C 299.2 4.75 299.2 9.5 299.2 9.5 L 294 9.5 C 294 9.5 294.01 7.61 294 7.6 C 294 7 293.7 6.6 293 6.6 C 293.04 6.64 287 6.6 287 6.6 L 287 15.5 L 297 15.5 L 297 20.4 L 287 20.4 L 287 33 L 281.2 33 L 281.2 6.6 Z M 316.6 1.2 C 325.8 1.2 332.8 8.2 332.8 17.2 C 332.8 26.4 325.8 33.5 316.6 33.5 C 307.4 33.5 300.5 26.4 300.5 17.2 C 300.5 8.2 307.4 1.2 316.6 1.2 Z M 316.6 28.2 C 322.3 28.2 326.8 23.4 326.8 17.2 C 326.8 11.2 322.3 6.6 316.6 6.6 C 311 6.6 306.5 11.2 306.5 17.2 C 306.5 23.4 311 28.2 316.6 28.2 Z M 338 6.6 L 335.1 6.6 L 335.1 1.8 C 335.1 1.8 349.14 1.76 349.1 1.8 C 354.9 1.8 358.9 5.3 358.9 11.2 C 358.9 16.8 355 19.1 353.7 19.4 C 353.67 19.4 353.7 19.5 353.7 19.5 C 353.7 19.5 354.64 19.93 355.2 21.1 C 355.2 21.1 358.2 27.1 358.2 27.1 C 358.7 28 359.5 28.1 360.4 28.1 C 360.45 28.12 361 28.1 361 28.1 L 361 33 C 361 33 357.98 33 358 33 C 355.6 33 354.6 32.6 353.6 30.7 C 353.6 30.7 349.6 22.8 349.6 22.8 C 349 21.6 348.3 21.3 346.7 21.3 C 346.67 21.34 343.8 21.3 343.8 21.3 L 343.8 33 L 338 33 L 338 6.6 Z M 348.3 16.4 C 351.2 16.4 353 14.6 353 11.5 C 353 8.4 351.2 6.6 348.4 6.6 C 348.43 6.64 343.8 6.6 343.8 6.6 L 343.8 16.4 C 343.8 16.4 348.35 16.41 348.3 16.4 Z M 361.8 28.1 C 361.8 28.1 363.17 28.12 363.2 28.1 C 363.8 28.1 364.1 27.8 364.1 27.1 C 364.14 27.15 366.2 1.8 366.2 1.8 L 372.1 1.8 C 372.1 1.8 378.57 16.63 378.6 16.6 C 379.32 18.44 380.1 20.8 380.1 20.8 L 380.2 20.8 C 380.2 20.8 380.99 18.44 381.7 16.6 C 381.74 16.63 388.2 1.8 388.2 1.8 L 394.1 1.8 C 394.1 1.8 396.17 27.15 396.2 27.1 C 396.2 27.8 396.5 28.1 397.1 28.1 C 397.14 28.12 398.5 28.1 398.5 28.1 L 398.5 33 C 398.5 33 393.53 33 393.5 33 C 391.5 33 390.8 32.1 390.6 30 C 390.6 30 389.5 16.1 389.5 16.1 C 389.35 14.04 389.5 11.3 389.5 11.3 L 389.4 11.3 C 389.4 11.3 388.47 14.34 387.7 16.1 C 387.68 16.1 382.5 27.6 382.5 27.6 L 377.8 27.6 C 377.8 27.6 372.63 16.1 372.6 16.1 C 371.84 14.34 370.9 11.2 370.9 11.2 L 370.8 11.2 C 370.8 11.2 370.96 14.04 370.8 16.1 C 370.8 16.1 369.8 30 369.8 30 C 369.6 32.1 368.8 33 366.8 33 C 366.78 33 361.8 33 361.8 33 L 361.8 28.1 Z M 399.3 28.1 C 399.3 28.1 400.04 28.12 400 28.1 C 400.8 28.1 401.1 27.9 401.4 27.1 C 401.41 27.15 410.7 1.8 410.7 1.8 L 416.7 1.8 C 416.7 1.8 425.96 27.15 426 27.1 C 426.2 27.9 426.6 28.1 427.3 28.1 C 427.32 28.12 428 28.1 428 28.1 L 428 33 C 428 33 424.6 33 424.6 33 C 422.4 33 421.6 32.4 420.9 30.4 C 420.9 30.45 419 25 419 25 L 408.4 25 C 408.4 25 406.47 30.45 406.5 30.4 C 405.8 32.4 405 33 402.8 33 C 402.82 33 399.3 33 399.3 33 L 399.3 28.1 Z M 417.6 20.2 C 417.6 20.2 414.96 12.41 415 12.4 C 414.39 10.69 413.7 7.7 413.7 7.7 L 413.6 7.7 C 413.6 7.7 412.98 10.69 412.4 12.4 C 412.41 12.41 409.7 20.2 409.7 20.2 L 417.6 20.2 Z " stroke="none" fill="#e52a6f"/>  </g></svg>