<?xml version="1.0" standalone="no"?><!DOCTYPE svg PUBLIC "-//W3C//DTD SVG 1.1//EN" "http://www.w3.org/Graphics/SVG/1.1/DTD/svg11.dtd"><svg xmlns="http://www.w3.org/2000/svg" version="1.1" width="353px" height="43.5px" viewBox="0 -5 353 43.5" style="top:-5px">  <desc>Metabolick profil</desc>  <defs/>  <g id="Polygon66461">    <path d="M 0.7 20.6 C 0.7 20.6 1.77 20.64 1.8 20.6 C 2.2 20.6 2.4 20.4 2.4 20 C 2.43 19.98 3.9 1.4 3.9 1.4 L 6 1.4 C 6 1.4 11.61 13.68 11.6 13.7 C 12.12 14.76 12.7 16.2 12.7 16.2 L 12.7 16.2 C 12.7 16.2 13.26 14.76 13.7 13.7 C 13.74 13.68 19.3 1.4 19.3 1.4 L 21.4 1.4 C 21.4 1.4 22.92 19.98 22.9 20 C 22.9 20.4 23.2 20.6 23.6 20.6 C 23.58 20.64 24.7 20.6 24.7 20.6 L 24.7 22.5 C 24.7 22.5 22.68 22.5 22.7 22.5 C 21.4 22.5 20.9 22 20.9 20.7 C 20.9 20.7 19.9 7.9 19.9 7.9 C 19.77 6.72 19.8 4.9 19.8 4.9 L 19.7 4.9 C 19.7 4.9 19.14 6.78 18.6 7.9 C 18.63 7.86 13.6 18.6 13.6 18.6 L 11.7 18.6 C 11.7 18.6 6.75 7.86 6.8 7.9 C 6.27 6.81 5.6 4.9 5.6 4.9 L 5.6 4.9 C 5.6 4.9 5.58 6.72 5.5 7.9 C 5.5 7.9 4.5 20.7 4.5 20.7 C 4.4 22 4 22.5 2.7 22.5 C 2.67 22.5 0.7 22.5 0.7 22.5 L 0.7 20.6 Z M 34 7.1 C 38.2 7.1 40.3 10.3 40.3 14 C 40.32 14.37 40.3 15 40.3 15 C 40.3 15 28.68 15.03 28.7 15 C 28.7 18.8 31.4 21 34.5 21 C 37.29 21.03 39.1 19.2 39.1 19.2 L 40 20.7 C 40 20.7 37.86 22.86 34.4 22.9 C 30 22.9 26.5 19.6 26.5 15 C 26.5 10 29.9 7.1 34 7.1 Z M 38.2 13.4 C 38.1 10.3 36.2 8.8 34 8.8 C 31.5 8.8 29.3 10.4 28.8 13.4 C 28.8 13.4 38.2 13.4 38.2 13.4 Z M 44.6 9.1 L 42.6 9.1 L 42.6 7.4 L 44.6 7.4 L 44.6 3.2 L 46.6 3.2 L 46.6 7.4 L 50.4 7.4 L 50.4 9.1 L 46.6 9.1 C 46.6 9.1 46.62 16.8 46.6 16.8 C 46.6 20.3 48.9 20.8 50 20.8 C 50.43 20.79 50.7 20.7 50.7 20.7 L 50.7 22.6 C 50.7 22.6 50.34 22.62 49.8 22.6 C 48.1 22.6 44.6 22.1 44.6 17 C 44.58 17.01 44.6 9.1 44.6 9.1 Z M 62.1 13.2 C 62.07 13.2 62.9 13.2 62.9 13.2 C 62.9 13.2 62.91 13.02 62.9 13 C 62.9 9.9 61.8 8.8 59 8.8 C 58.3 8.8 56.1 9 56.1 10.1 C 56.07 10.08 56.1 11 56.1 11 L 54.1 11 C 54.1 11 54.12 9.6 54.1 9.6 C 54.1 7.5 57.7 7.1 59 7.1 C 63.8 7.1 64.9 9.6 64.9 12.8 C 64.9 12.8 64.9 20.1 64.9 20.1 C 64.9 20.5 65.2 20.7 65.6 20.7 C 65.61 20.73 66.9 20.7 66.9 20.7 L 66.9 22.5 C 66.9 22.5 64.8 22.5 64.8 22.5 C 63.5 22.5 63 21.9 63 20.7 C 63 20.04 63 19.6 63 19.6 C 63 19.6 62.97 19.59 63 19.6 C 63 19.6 61.7 22.9 58 22.9 C 55.4 22.9 52.8 21.4 52.8 18.4 C 52.8 13.4 59.5 13.2 62.1 13.2 Z M 58.3 21.1 C 61.2 21.1 62.9 18.1 62.9 15.5 C 62.91 15.51 62.9 14.8 62.9 14.8 C 62.9 14.8 62.04 14.82 62 14.8 C 59.7 14.8 54.9 14.9 54.9 18.3 C 54.9 19.7 56 21.1 58.3 21.1 Z M 70 3.8 C 70 3.4 69.8 3.2 69.4 3.2 C 69.36 3.18 68.1 3.2 68.1 3.2 L 68.1 1.4 C 68.1 1.4 70.23 1.41 70.2 1.4 C 71.5 1.4 72.1 2 72.1 3.2 C 72.1 3.2 72.1 8.7 72.1 8.7 C 72.06 9.39 72 9.9 72 9.9 L 72.1 9.9 C 72.1 9.9 73.32 7.05 77.2 7.1 C 81.2 7.1 83.8 10.3 83.8 15 C 83.8 19.7 80.9 22.9 76.9 22.9 C 73.35 22.86 72 20 72 20 L 71.9 20 C 71.9 20 72 20.46 72 21.2 C 72 21.18 72 22.5 72 22.5 L 70 22.5 C 70 22.5 70.02 3.84 70 3.8 Z M 76.8 21.1 C 79.5 21.1 81.7 18.8 81.7 15 C 81.7 11.3 79.7 8.9 76.9 8.9 C 74.4 8.9 72 10.7 72 15 C 72 18 73.6 21.1 76.8 21.1 Z M 94.2 7.1 C 98.6 7.1 102.1 10.4 102.1 14.9 C 102.1 19.4 98.6 22.9 94.2 22.9 C 89.8 22.9 86.2 19.4 86.2 14.9 C 86.2 10.4 89.8 7.1 94.2 7.1 Z M 94.2 21 C 97.4 21 100 18.4 100 14.9 C 100 11.5 97.4 8.9 94.2 8.9 C 91 8.9 88.3 11.5 88.3 14.9 C 88.3 18.4 91 21 94.2 21 Z M 105.7 3.8 C 105.7 3.4 105.4 3.2 105 3.2 C 105 3.18 103.7 3.2 103.7 3.2 L 103.7 1.4 C 103.7 1.4 105.87 1.41 105.9 1.4 C 107.2 1.4 107.7 2 107.7 3.2 C 107.7 3.2 107.7 20.1 107.7 20.1 C 107.7 20.5 107.9 20.7 108.4 20.7 C 108.36 20.73 109.6 20.7 109.6 20.7 L 109.6 22.5 C 109.6 22.5 107.49 22.5 107.5 22.5 C 106.2 22.5 105.7 22 105.7 20.7 C 105.7 20.7 105.7 3.8 105.7 3.8 Z M 113.1 1.4 L 115.1 1.4 L 115.1 4 L 113.1 4 L 113.1 1.4 Z M 113.2 9.8 C 113.2 9.4 112.9 9.2 112.5 9.2 C 112.53 9.18 111.3 9.2 111.3 9.2 L 111.3 7.4 C 111.3 7.4 113.4 7.41 113.4 7.4 C 114.7 7.4 115.2 8 115.2 9.2 C 115.2 9.2 115.2 20.1 115.2 20.1 C 115.2 20.5 115.5 20.7 115.9 20.7 C 115.89 20.73 117.1 20.7 117.1 20.7 L 117.1 22.5 C 117.1 22.5 115.02 22.5 115 22.5 C 113.7 22.5 113.2 22 113.2 20.7 C 113.2 20.7 113.2 9.8 113.2 9.8 Z M 127.1 7.1 C 128.8 7.1 132.5 7.8 132.5 10.3 C 132.48 10.26 132.5 11.6 132.5 11.6 L 130.6 11.6 C 130.6 11.6 130.56 10.74 130.6 10.7 C 130.6 9.5 128.4 8.9 127.1 8.9 C 123.9 8.9 121.3 11.3 121.3 15 C 121.3 18.7 124 21 127.2 21 C 130.26 21 132 18.9 132 18.9 L 133 20.4 C 133 20.4 130.95 22.86 127.1 22.9 C 122.6 22.9 119.2 19.7 119.2 15 C 119.2 10.4 122.6 7.1 127.1 7.1 Z M 136.2 3.8 C 136.2 3.4 136 3.2 135.6 3.2 C 135.57 3.18 134.3 3.2 134.3 3.2 L 134.3 1.4 C 134.3 1.4 136.44 1.41 136.4 1.4 C 137.7 1.4 138.3 1.9 138.3 3.1 C 138.27 3.15 138.3 13.2 138.3 13.2 C 138.3 13.2 139.83 13.17 139.8 13.2 C 140.4 13.2 141.1 13 141.5 12.4 C 141.54 12.45 145.4 7.4 145.4 7.4 L 147.9 7.4 C 147.9 7.4 143.55 12.93 143.5 12.9 C 142.8 13.86 142.4 14 142.4 14 L 142.4 14.1 C 142.4 14.1 142.86 14.28 143.3 15.2 C 143.3 15.2 146.1 20.1 146.1 20.1 C 146.3 20.6 146.6 20.7 147.4 20.7 C 147.45 20.73 148.3 20.7 148.3 20.7 L 148.3 22.5 C 148.3 22.5 146.85 22.5 146.8 22.5 C 145.3 22.5 144.9 22.3 144.2 21 C 144.2 21 141.2 15.6 141.2 15.6 C 140.9 15 140.2 14.9 139.6 14.9 C 139.65 14.94 138.3 14.9 138.3 14.9 L 138.3 22.5 L 136.2 22.5 C 136.2 22.5 136.23 3.84 136.2 3.8 Z M 151.8 27 C 153.1 27 154 25.9 154.6 24.5 C 154.56 24.51 155.5 22.4 155.5 22.4 C 155.5 22.4 150.15 9.87 150.1 9.9 C 149.9 9.3 149.6 9.2 149.1 9.2 C 149.1 9.18 148.8 9.2 148.8 9.2 L 148.8 7.4 C 148.8 7.4 149.73 7.41 149.7 7.4 C 151.1 7.4 151.5 7.7 152 9.1 C 152 9.1 155.9 18.5 155.9 18.5 C 156.21 19.23 156.4 20.1 156.4 20.1 L 156.5 20.1 C 156.5 20.1 156.72 19.23 157 18.5 C 157 18.5 160.7 9.1 160.7 9.1 C 161.2 7.7 161.7 7.4 163.1 7.4 C 163.08 7.41 164 7.4 164 7.4 L 164 9.2 C 164 9.2 163.71 9.18 163.7 9.2 C 163.2 9.2 162.9 9.3 162.7 9.9 C 162.7 9.9 156.1 25.6 156.1 25.6 C 155.4 27.6 153.8 28.8 151.8 28.8 C 149.73 28.8 148.6 27.3 148.6 27.3 C 148.6 27.3 149.52 25.83 149.5 25.8 C 149.5 25.9 150.5 27 151.8 27 Z M 157.6 1.4 L 159.8 1.4 L 157.2 5 L 155.5 5 L 157.6 1.4 Z M 175.3 9.8 C 175.3 9.4 175 9.2 174.6 9.2 C 174.6 9.18 173.3 9.2 173.3 9.2 L 173.3 7.4 C 173.3 7.4 175.41 7.41 175.4 7.4 C 176.7 7.4 177.2 8 177.2 9 C 177.21 9.6 177.2 10 177.2 10 L 177.2 10 C 177.2 10 178.44 7.05 182.4 7.1 C 186.5 7.1 189 10.3 189 15 C 189 19.7 186.1 22.9 182.2 22.9 C 178.56 22.86 177.3 20 177.3 20 L 177.2 20 C 177.2 20 177.3 20.55 177.3 21.3 C 177.3 21.33 177.3 28.5 177.3 28.5 L 175.3 28.5 C 175.3 28.5 175.26 9.84 175.3 9.8 Z M 182 21.1 C 184.7 21.1 186.9 18.8 186.9 15 C 186.9 11.3 184.9 8.9 182.1 8.9 C 179.6 8.9 177.2 10.7 177.2 15 C 177.2 18 178.9 21.1 182 21.1 Z M 192.9 9.8 C 192.9 9.4 192.6 9.2 192.2 9.2 C 192.21 9.18 190.9 9.2 190.9 9.2 L 190.9 7.4 C 190.9 7.4 193.05 7.41 193 7.4 C 194.3 7.4 194.9 7.9 194.9 9.1 C 194.9 9.1 194.9 10.1 194.9 10.1 C 194.88 10.77 194.8 11.3 194.8 11.3 C 194.8 11.3 194.88 11.28 194.9 11.3 C 195.6 9 197.3 7.3 199.6 7.3 C 200.07 7.26 200.5 7.4 200.5 7.4 L 200.5 9.4 C 200.5 9.4 200.1 9.3 199.7 9.3 C 197.6 9.3 196 11 195.3 13.2 C 195 14.2 194.9 15.2 194.9 16.1 C 194.91 16.14 194.9 22.5 194.9 22.5 L 192.9 22.5 C 192.9 22.5 192.87 9.84 192.9 9.8 Z M 209.7 7.1 C 214.1 7.1 217.6 10.4 217.6 14.9 C 217.6 19.4 214.1 22.9 209.7 22.9 C 205.3 22.9 201.7 19.4 201.7 14.9 C 201.7 10.4 205.3 7.1 209.7 7.1 Z M 209.7 21 C 212.9 21 215.5 18.4 215.5 14.9 C 215.5 11.5 212.9 8.9 209.7 8.9 C 206.5 8.9 203.8 11.5 203.8 14.9 C 203.8 18.4 206.5 21 209.7 21 Z M 221.5 9.1 L 219.6 9.1 L 219.6 7.4 L 221.5 7.4 C 221.5 7.4 221.49 6.87 221.5 6.9 C 221.5 1.9 225 1.3 226.7 1.3 C 227.25 1.26 227.6 1.3 227.6 1.3 L 227.6 3.1 C 227.6 3.1 227.31 3.09 226.9 3.1 C 225.7 3.1 223.5 3.5 223.5 6.9 C 223.53 6.87 223.5 7.4 223.5 7.4 C 223.5 7.4 230.67 7.41 230.7 7.4 C 232 7.4 232.5 8 232.5 9.2 C 232.5 9.2 232.5 20.1 232.5 20.1 C 232.5 20.5 232.7 20.7 233.2 20.7 C 233.16 20.73 234.4 20.7 234.4 20.7 L 234.4 22.5 C 234.4 22.5 232.29 22.5 232.3 22.5 C 231 22.5 230.5 22 230.5 20.7 C 230.5 20.7 230.5 9.8 230.5 9.8 C 230.5 9.4 230.2 9.1 229.8 9.1 C 229.8 9.12 223.5 9.1 223.5 9.1 L 223.5 22.5 L 221.5 22.5 L 221.5 9.1 Z M 230.4 1.4 L 232.4 1.4 L 232.4 4 L 230.4 4 L 230.4 1.4 Z M 237.8 3.8 C 237.8 3.4 237.6 3.2 237.1 3.2 C 237.15 3.18 235.9 3.2 235.9 3.2 L 235.9 1.4 C 235.9 1.4 238.02 1.41 238 1.4 C 239.3 1.4 239.8 2 239.8 3.2 C 239.8 3.2 239.8 20.1 239.8 20.1 C 239.8 20.5 240.1 20.7 240.5 20.7 C 240.51 20.73 241.8 20.7 241.8 20.7 L 241.8 22.5 C 241.8 22.5 239.64 22.5 239.6 22.5 C 238.3 22.5 237.8 22 237.8 20.7 C 237.8 20.7 237.8 3.8 237.8 3.8 Z " stroke="none" fill="#ee3078"/>  </g></svg>