<?xml version="1.0" standalone="no"?><!DOCTYPE svg PUBLIC "-//W3C//DTD SVG 1.1//EN" "http://www.w3.org/Graphics/SVG/1.1/DTD/svg11.dtd"><svg xmlns="http://www.w3.org/2000/svg" version="1.1" width="30px" height="16.8px" viewBox="0 -2 30 16.8" style="top:-2px">  <desc>TFPI</desc>  <defs/>  <g id="Polygon77025">    <path d="M 7 1.2 L 4.2 1.2 L 4.2 0.5 L 10.5 0.5 L 10.5 1.2 L 7.7 1.2 L 7.7 8.2 L 7 8.2 L 7 1.2 Z M 11.7 0.5 L 15.8 0.5 L 15.8 1.2 L 12.5 1.2 L 12.5 4.1 L 15.3 4.1 L 15.3 4.8 L 12.5 4.8 L 12.5 8.2 L 11.7 8.2 L 11.7 0.5 Z M 17.4 0.5 C 17.4 0.5 20.03 0.52 20 0.5 C 21.4 0.5 22.4 1.4 22.4 2.8 C 22.4 4.3 21.4 5.2 20 5.2 C 20.03 5.21 18.1 5.2 18.1 5.2 L 18.1 8.2 L 17.4 8.2 L 17.4 0.5 Z M 19.9 4.5 C 21 4.5 21.6 3.9 21.6 2.8 C 21.6 1.8 21 1.2 19.9 1.2 C 19.94 1.2 18.1 1.2 18.1 1.2 L 18.1 4.5 C 18.1 4.5 19.93 4.53 19.9 4.5 Z M 23.9 0.5 L 24.7 0.5 L 24.7 8.2 L 23.9 8.2 L 23.9 0.5 Z " stroke="none" fill="#000"/>  </g></svg>