<?xml version="1.0" standalone="no"?><!DOCTYPE svg PUBLIC "-//W3C//DTD SVG 1.1//EN" "http://www.w3.org/Graphics/SVG/1.1/DTD/svg11.dtd"><svg xmlns="http://www.w3.org/2000/svg" version="1.1" width="164.4px" height="20.5px" viewBox="0 -2 164.4 20.5" style="top:-2px">  <desc>as po po it 75 g gluk zy (min)</desc>  <defs/>  <g id="Polygon74554">    <path d="M 13 2.4 C 13.5 2.4 14.8 2.6 14.8 3.4 C 14.77 3.42 14.8 3.9 14.8 3.9 L 14.1 3.9 C 14.1 3.9 14.13 3.58 14.1 3.6 C 14.1 3.2 13.4 3 13 3 C 11.9 3 11 3.8 11 5 C 11 6.2 11.9 7 13 7 C 14.03 7 14.6 6.3 14.6 6.3 L 14.9 6.8 C 14.9 6.8 14.26 7.62 13 7.6 C 11.5 7.6 10.3 6.6 10.3 5 C 10.3 3.4 11.5 2.4 13 2.4 Z M 11.6 0.5 L 12.3 0.5 L 12.8 1.3 L 12.8 1.3 L 13.4 0.5 L 14 0.5 L 13.2 1.7 L 12.5 1.7 L 11.6 0.5 Z M 18.7 4.4 C 18.69 4.4 19 4.4 19 4.4 C 19 4.4 18.97 4.34 19 4.3 C 19 3.3 18.6 2.9 17.7 2.9 C 17.4 2.9 16.7 3 16.7 3.4 C 16.69 3.36 16.7 3.7 16.7 3.7 L 16 3.7 C 16 3.7 16.04 3.2 16 3.2 C 16 2.5 17.2 2.4 17.7 2.4 C 19.3 2.4 19.6 3.2 19.6 4.3 C 19.6 4.3 19.6 6.7 19.6 6.7 C 19.6 6.8 19.7 6.9 19.9 6.9 C 19.87 6.91 20.3 6.9 20.3 6.9 L 20.3 7.5 C 20.3 7.5 19.6 7.5 19.6 7.5 C 19.2 7.5 19 7.3 19 6.9 C 19 6.7 19 6.5 19 6.5 C 19 6.5 19 6.5 19 6.5 C 19 6.5 18.6 7.6 17.3 7.6 C 16.5 7.6 15.6 7.1 15.6 6.1 C 15.6 4.5 17.8 4.4 18.7 4.4 Z M 17.4 7 C 18.4 7 19 6 19 5.2 C 18.97 5.17 19 4.9 19 4.9 C 19 4.9 18.68 4.94 18.7 4.9 C 17.9 4.9 16.3 5 16.3 6.1 C 16.3 6.6 16.7 7 17.4 7 Z M 21.2 6.3 C 21.2 6.3 21.74 7.03 22.7 7 C 23.3 7 23.8 6.8 23.8 6.2 C 23.8 5.1 21 5.3 21 3.7 C 21 2.8 21.7 2.4 22.8 2.4 C 23.3 2.4 24.3 2.6 24.3 3.3 C 24.29 3.26 24.3 3.7 24.3 3.7 L 23.6 3.7 C 23.6 3.7 23.65 3.45 23.6 3.4 C 23.6 3.1 23.1 2.9 22.8 2.9 C 22.1 2.9 21.7 3.2 21.7 3.7 C 21.7 4.8 24.5 4.5 24.5 6.2 C 24.5 7.1 23.7 7.6 22.7 7.6 C 21.41 7.62 20.8 6.7 20.8 6.7 L 21.2 6.3 Z M 28.5 3.3 C 28.5 3.1 28.4 3.1 28.3 3.1 C 28.27 3.06 27.8 3.1 27.8 3.1 L 27.8 2.5 C 27.8 2.5 28.54 2.47 28.5 2.5 C 29 2.5 29.1 2.7 29.1 3 C 29.1 3.2 29.1 3.3 29.1 3.3 C 29.13 3.34 29.1 3.3 29.1 3.3 C 29.1 3.3 29.55 2.35 30.9 2.4 C 32.2 2.4 33.1 3.4 33.1 5 C 33.1 6.6 32.1 7.6 30.8 7.6 C 29.59 7.62 29.2 6.7 29.2 6.7 L 29.1 6.7 C 29.1 6.7 29.17 6.85 29.2 7.1 C 29.17 7.11 29.2 9.5 29.2 9.5 L 28.5 9.5 C 28.5 9.5 28.49 3.28 28.5 3.3 Z M 30.7 7 C 31.6 7 32.4 6.3 32.4 5 C 32.4 3.8 31.7 3 30.8 3 C 29.9 3 29.1 3.6 29.1 5 C 29.1 6 29.7 7 30.7 7 Z M 36.5 2.4 C 38 2.4 39.2 3.5 39.2 5 C 39.2 6.5 38 7.6 36.5 7.6 C 35.1 7.6 33.9 6.5 33.9 5 C 33.9 3.5 35.1 2.4 36.5 2.4 Z M 36.5 7 C 37.6 7 38.5 6.1 38.5 5 C 38.5 3.8 37.6 3 36.5 3 C 35.5 3 34.6 3.8 34.6 5 C 34.6 6.1 35.5 7 36.5 7 Z M 43.2 3.3 C 43.2 3.1 43.1 3.1 43 3.1 C 42.97 3.06 42.5 3.1 42.5 3.1 L 42.5 2.5 C 42.5 2.5 43.24 2.47 43.2 2.5 C 43.7 2.5 43.8 2.7 43.8 3 C 43.8 3.2 43.8 3.3 43.8 3.3 C 43.82 3.34 43.8 3.3 43.8 3.3 C 43.8 3.3 44.24 2.35 45.6 2.4 C 46.9 2.4 47.8 3.4 47.8 5 C 47.8 6.6 46.8 7.6 45.5 7.6 C 44.28 7.62 43.9 6.7 43.9 6.7 L 43.8 6.7 C 43.8 6.7 43.86 6.85 43.9 7.1 C 43.86 7.11 43.9 9.5 43.9 9.5 L 43.2 9.5 C 43.2 9.5 43.19 3.28 43.2 3.3 Z M 45.4 7 C 46.3 7 47.1 6.3 47.1 5 C 47.1 3.8 46.4 3 45.5 3 C 44.6 3 43.8 3.6 43.8 5 C 43.8 6 44.4 7 45.4 7 Z M 51.2 2.4 C 52.7 2.4 53.9 3.5 53.9 5 C 53.9 6.5 52.7 7.6 51.2 7.6 C 49.8 7.6 48.6 6.5 48.6 5 C 48.6 3.5 49.8 2.4 51.2 2.4 Z M 51.2 7 C 52.3 7 53.2 6.1 53.2 5 C 53.2 3.8 52.3 3 51.2 3 C 50.2 3 49.3 3.8 49.3 5 C 49.3 6.1 50.2 7 51.2 7 Z M 54.6 7.1 C 54.6 7.1 57.42 3.53 57.4 3.5 C 57.61 3.29 57.8 3.1 57.8 3.1 L 57.8 3 C 57.8 3 57.65 3.07 57.3 3.1 C 57.3 3.1 55.5 3.1 55.5 3.1 C 55.3 3.1 55.3 3.1 55.3 3.3 C 55.25 3.29 55.3 3.7 55.3 3.7 L 54.6 3.7 C 54.6 3.7 54.62 3.08 54.6 3.1 C 54.6 2.7 54.8 2.5 55.2 2.5 C 55.22 2.47 58.7 2.5 58.7 2.5 L 58.7 2.9 C 58.7 2.9 55.89 6.44 55.9 6.4 C 55.69 6.68 55.5 6.9 55.5 6.9 L 55.5 6.9 C 55.5 6.9 55.65 6.9 56 6.9 C 56 6.9 58.1 6.9 58.1 6.9 C 58.2 6.9 58.3 6.8 58.3 6.7 C 58.29 6.68 58.3 6.3 58.3 6.3 L 58.9 6.3 C 58.9 6.3 58.92 6.89 58.9 6.9 C 58.9 7.3 58.7 7.5 58.3 7.5 C 58.32 7.5 54.6 7.5 54.6 7.5 L 54.6 7.1 Z M 55.6 0.5 L 56.2 0.5 L 56.8 1.3 L 56.8 1.3 L 57.3 0.5 L 58 0.5 L 57.1 1.7 L 56.4 1.7 L 55.6 0.5 Z M 60.1 0.5 L 60.7 0.5 L 60.7 1.3 L 60.1 1.3 L 60.1 0.5 Z M 60.1 3.3 C 60.1 3.1 60 3.1 59.9 3.1 C 59.89 3.06 59.5 3.1 59.5 3.1 L 59.5 2.5 C 59.5 2.5 60.18 2.47 60.2 2.5 C 60.6 2.5 60.8 2.7 60.8 3.1 C 60.8 3.1 60.8 6.7 60.8 6.7 C 60.8 6.8 60.9 6.9 61 6.9 C 61 6.91 61.4 6.9 61.4 6.9 L 61.4 7.5 C 61.4 7.5 60.71 7.5 60.7 7.5 C 60.3 7.5 60.1 7.3 60.1 6.9 C 60.1 6.9 60.1 3.3 60.1 3.3 Z M 62.6 3 L 62 3 L 62 2.5 L 62.6 2.5 L 62.6 1.1 L 63.3 1.1 L 63.3 2.5 L 64.6 2.5 L 64.6 3 L 63.3 3 C 63.3 3 63.3 5.6 63.3 5.6 C 63.3 6.8 64.1 6.9 64.4 6.9 C 64.57 6.93 64.7 6.9 64.7 6.9 L 64.7 7.5 C 64.7 7.5 64.54 7.54 64.4 7.5 C 63.8 7.5 62.6 7.3 62.6 5.7 C 62.63 5.67 62.6 3 62.6 3 Z M 66 3.3 C 66 3.1 65.9 3.1 65.8 3.1 C 65.76 3.06 65.3 3.1 65.3 3.1 L 65.3 2.5 C 65.3 2.5 66.05 2.47 66 2.5 C 66.5 2.5 66.7 2.7 66.7 3.1 C 66.7 3.1 66.7 6.7 66.7 6.7 C 66.7 6.8 66.7 6.9 66.9 6.9 C 66.87 6.91 67.3 6.9 67.3 6.9 L 67.3 7.5 C 67.3 7.5 66.58 7.5 66.6 7.5 C 66.2 7.5 66 7.3 66 6.9 C 66 6.9 66 3.3 66 3.3 Z M 66.6 0.5 L 67.4 0.5 L 66.5 1.7 L 65.9 1.7 L 66.6 0.5 Z M 74.1 1.7 C 74.33 1.36 74.5 1.1 74.5 1.1 L 74.5 1.1 C 74.5 1.1 74.34 1.09 74 1.1 C 74 1.1 71.5 1.1 71.5 1.1 C 71.3 1.1 71.2 1.2 71.2 1.3 C 71.24 1.31 71.2 1.8 71.2 1.8 L 70.6 1.8 C 70.6 1.8 70.59 1.08 70.6 1.1 C 70.6 0.7 70.8 0.5 71.2 0.5 C 71.18 0.47 75.3 0.5 75.3 0.5 L 75.3 0.9 L 71.9 7.5 L 71.1 7.5 C 71.1 7.5 74.13 1.74 74.1 1.7 Z M 76.4 6.1 C 76.4 6.1 76.89 6.96 78 7 C 79 7 79.7 6.3 79.7 5.3 C 79.7 4.3 78.9 3.7 77.9 3.7 C 77.13 3.67 76.6 4.1 76.6 4.1 L 76.2 3.9 C 76.2 3.9 76.51 1.08 76.5 1.1 C 76.5 0.7 76.7 0.5 77.1 0.5 C 77.1 0.5 79.4 0.5 79.4 0.5 C 79.8 0.5 80 0.7 80 1.1 C 80.03 1.08 80 1.8 80 1.8 L 79.4 1.8 C 79.4 1.8 79.38 1.31 79.4 1.3 C 79.4 1.2 79.3 1.1 79.2 1.1 C 79.2 1.1 77.4 1.1 77.4 1.1 C 77.2 1.1 77.2 1.2 77.2 1.3 C 77.2 1.3 77 2.9 77 2.9 C 76.95 3.15 76.9 3.3 76.9 3.3 L 76.9 3.3 C 76.9 3.3 77.38 3.04 78 3 C 79.4 3 80.5 4.1 80.5 5.3 C 80.5 6.6 79.4 7.6 78 7.6 C 76.59 7.62 75.9 6.6 75.9 6.6 L 76.4 6.1 Z M 86.4 2.4 C 87.74 2.35 88.1 3.2 88.1 3.2 L 88.1 3.2 C 88.1 3.2 88.08 3.12 88.1 3 C 88.1 2.7 88.2 2.5 88.6 2.5 C 88.64 2.47 89.3 2.5 89.3 2.5 L 89.3 3.1 C 89.3 3.1 88.93 3.06 88.9 3.1 C 88.8 3.1 88.7 3.1 88.7 3.3 C 88.7 3.3 88.7 7.4 88.7 7.4 C 88.7 9 87.5 9.6 86.3 9.6 C 85.7 9.6 85.1 9.4 84.7 9.2 C 84.65 9.2 84.9 8.6 84.9 8.6 C 84.9 8.6 85.53 8.98 86.3 9 C 87.3 9 88 8.5 88 7.4 C 88 7.4 88 7 88 7 C 88.04 6.77 88 6.6 88 6.6 C 88 6.6 88.03 6.6 88 6.6 C 87.7 7.2 87.2 7.5 86.4 7.5 C 85.1 7.5 84.2 6.4 84.2 4.9 C 84.2 3.4 85 2.4 86.4 2.4 Z M 88 4.9 C 88 3.4 87.3 3 86.5 3 C 85.5 3 84.9 3.7 84.9 4.9 C 84.9 6.1 85.6 6.9 86.5 6.9 C 87.3 6.9 88 6.4 88 4.9 Z M 94.9 2.4 C 96.24 2.35 96.6 3.2 96.6 3.2 L 96.6 3.2 C 96.6 3.2 96.58 3.12 96.6 3 C 96.6 2.7 96.7 2.5 97.2 2.5 C 97.15 2.47 97.9 2.5 97.9 2.5 L 97.9 3.1 C 97.9 3.1 97.44 3.06 97.4 3.1 C 97.3 3.1 97.2 3.1 97.2 3.3 C 97.2 3.3 97.2 7.4 97.2 7.4 C 97.2 9 96 9.6 94.8 9.6 C 94.2 9.6 93.7 9.4 93.2 9.2 C 93.16 9.2 93.4 8.6 93.4 8.6 C 93.4 8.6 94.04 8.98 94.8 9 C 95.8 9 96.5 8.5 96.5 7.4 C 96.5 7.4 96.5 7 96.5 7 C 96.55 6.77 96.6 6.6 96.6 6.6 C 96.6 6.6 96.54 6.6 96.5 6.6 C 96.2 7.2 95.7 7.5 95 7.5 C 93.6 7.5 92.7 6.4 92.7 4.9 C 92.7 3.4 93.5 2.4 94.9 2.4 Z M 96.6 4.9 C 96.6 3.4 95.9 3 95 3 C 94 3 93.4 3.7 93.4 4.9 C 93.4 6.1 94.1 6.9 95.1 6.9 C 95.9 6.9 96.6 6.4 96.6 4.9 Z M 98.9 1.3 C 98.9 1.1 98.9 1.1 98.7 1.1 C 98.73 1.06 98.3 1.1 98.3 1.1 L 98.3 0.5 C 98.3 0.5 99.01 0.47 99 0.5 C 99.4 0.5 99.6 0.7 99.6 1.1 C 99.6 1.1 99.6 6.7 99.6 6.7 C 99.6 6.8 99.7 6.9 99.8 6.9 C 99.84 6.91 100.3 6.9 100.3 6.9 L 100.3 7.5 C 100.3 7.5 99.55 7.5 99.6 7.5 C 99.1 7.5 98.9 7.3 98.9 6.9 C 98.9 6.9 98.9 1.3 98.9 1.3 Z M 101.4 3.3 C 101.4 3.1 101.3 3.1 101.2 3.1 C 101.16 3.06 100.7 3.1 100.7 3.1 L 100.7 2.5 C 100.7 2.5 101.45 2.47 101.5 2.5 C 101.9 2.5 102.1 2.7 102.1 3.1 C 102.1 3.1 102.1 5.5 102.1 5.5 C 102.1 6.3 102.2 7 103.2 7 C 104.3 7 105 6 105 4.9 C 105.01 4.88 105 2.5 105 2.5 L 105.7 2.5 C 105.7 2.5 105.69 6.69 105.7 6.7 C 105.7 6.8 105.8 6.9 105.9 6.9 C 105.91 6.91 106.3 6.9 106.3 6.9 L 106.3 7.5 C 106.3 7.5 105.64 7.5 105.6 7.5 C 105.2 7.5 105 7.3 105 6.9 C 105 6.9 105 6.7 105 6.7 C 105 6.5 105.1 6.4 105.1 6.4 C 105.1 6.4 105 6.4 105 6.4 C 104.8 6.8 104.2 7.6 103.1 7.6 C 101.9 7.6 101.4 7 101.4 5.7 C 101.4 5.7 101.4 3.3 101.4 3.3 Z M 107.4 1.3 C 107.4 1.1 107.3 1.1 107.2 1.1 C 107.18 1.06 106.8 1.1 106.8 1.1 L 106.8 0.5 C 106.8 0.5 107.47 0.47 107.5 0.5 C 107.9 0.5 108.1 0.6 108.1 1 C 108.08 1.05 108.1 4.4 108.1 4.4 C 108.1 4.4 108.6 4.39 108.6 4.4 C 108.8 4.4 109 4.3 109.2 4.2 C 109.17 4.15 110.5 2.5 110.5 2.5 L 111.3 2.5 C 111.3 2.5 109.84 4.31 109.8 4.3 C 109.59 4.62 109.5 4.7 109.5 4.7 L 109.5 4.7 C 109.5 4.7 109.61 4.76 109.8 5.1 C 109.8 5.1 110.7 6.7 110.7 6.7 C 110.8 6.9 110.9 6.9 111.1 6.9 C 111.14 6.91 111.4 6.9 111.4 6.9 L 111.4 7.5 C 111.4 7.5 110.94 7.5 110.9 7.5 C 110.4 7.5 110.3 7.4 110.1 7 C 110.1 7 109.1 5.2 109.1 5.2 C 109 5 108.7 5 108.5 5 C 108.54 4.98 108.1 5 108.1 5 L 108.1 7.5 L 107.4 7.5 C 107.4 7.5 107.4 1.28 107.4 1.3 Z M 114.5 2.4 C 116 2.4 117.2 3.5 117.2 5 C 117.2 6.5 116 7.6 114.5 7.6 C 113 7.6 111.8 6.5 111.8 5 C 111.8 3.5 113 2.4 114.5 2.4 Z M 114.5 7 C 115.6 7 116.5 6.1 116.5 5 C 116.5 3.8 115.6 3 114.5 3 C 113.4 3 112.5 3.8 112.5 5 C 112.5 6.1 113.4 7 114.5 7 Z M 114.9 0.5 L 115.7 0.5 L 114.8 1.7 L 114.2 1.7 L 114.9 0.5 Z M 117.8 7.1 C 117.8 7.1 120.67 3.53 120.7 3.5 C 120.86 3.29 121.1 3.1 121.1 3.1 L 121.1 3 C 121.1 3 120.9 3.07 120.6 3.1 C 120.6 3.1 118.7 3.1 118.7 3.1 C 118.6 3.1 118.5 3.1 118.5 3.3 C 118.51 3.29 118.5 3.7 118.5 3.7 L 117.9 3.7 C 117.9 3.7 117.87 3.08 117.9 3.1 C 117.9 2.7 118.1 2.5 118.5 2.5 C 118.48 2.47 122 2.5 122 2.5 L 122 2.9 C 122 2.9 119.15 6.44 119.2 6.4 C 118.95 6.68 118.7 6.9 118.7 6.9 L 118.7 6.9 C 118.7 6.9 118.91 6.9 119.2 6.9 C 119.2 6.9 121.3 6.9 121.3 6.9 C 121.5 6.9 121.5 6.8 121.5 6.7 C 121.54 6.68 121.5 6.3 121.5 6.3 L 122.2 6.3 C 122.2 6.3 122.18 6.89 122.2 6.9 C 122.2 7.3 122 7.5 121.6 7.5 C 121.57 7.5 117.8 7.5 117.8 7.5 L 117.8 7.1 Z M 123.4 9 C 123.9 9 124.2 8.6 124.4 8.2 C 124.37 8.17 124.7 7.5 124.7 7.5 C 124.7 7.5 122.9 3.29 122.9 3.3 C 122.8 3.1 122.7 3.1 122.6 3.1 C 122.55 3.06 122.5 3.1 122.5 3.1 L 122.5 2.5 C 122.5 2.5 122.76 2.47 122.8 2.5 C 123.2 2.5 123.4 2.6 123.5 3 C 123.5 3 124.8 6.2 124.8 6.2 C 124.92 6.41 125 6.7 125 6.7 L 125 6.7 C 125 6.7 125.09 6.41 125.2 6.2 C 125.2 6.2 126.4 3 126.4 3 C 126.6 2.6 126.8 2.5 127.2 2.5 C 127.21 2.47 127.5 2.5 127.5 2.5 L 127.5 3.1 C 127.5 3.1 127.42 3.06 127.4 3.1 C 127.2 3.1 127.1 3.1 127.1 3.3 C 127.1 3.3 124.9 8.6 124.9 8.6 C 124.6 9.2 124.1 9.6 123.5 9.6 C 122.76 9.6 122.4 9.1 122.4 9.1 C 122.4 9.1 122.69 8.61 122.7 8.6 C 122.7 8.6 123 9 123.4 9 Z M 132.3 0.2 C 132.3 0.2 133 0.2 133 0.2 C 132.2 1.4 131.9 2.7 131.9 4.1 C 131.9 5.6 132.3 7.1 133 8.4 C 133 8.4 132.4 8.4 132.4 8.4 C 131.7 7.3 131.3 5.7 131.3 4.2 C 131.3 2.7 131.6 1.4 132.3 0.2 Z M 134.4 3.3 C 134.4 3.1 134.3 3.1 134.1 3.1 C 134.14 3.06 133.7 3.1 133.7 3.1 L 133.7 2.5 C 133.7 2.5 134.42 2.47 134.4 2.5 C 134.8 2.5 135 2.7 135 3 C 135 3 135 3.3 135 3.3 C 135.03 3.46 135 3.6 135 3.6 C 135 3.6 135.03 3.62 135 3.6 C 135.3 2.9 136.1 2.4 136.9 2.4 C 137.8 2.4 138.3 2.8 138.4 3.6 C 138.4 3.6 138.4 3.6 138.4 3.6 C 138.7 2.9 139.4 2.4 140.3 2.4 C 141.5 2.4 142 3.1 142 4.3 C 142 4.3 142 6.7 142 6.7 C 142 6.8 142 6.9 142.2 6.9 C 142.17 6.91 142.6 6.9 142.6 6.9 L 142.6 7.5 C 142.6 7.5 141.88 7.5 141.9 7.5 C 141.5 7.5 141.3 7.3 141.3 6.9 C 141.3 6.9 141.3 4.5 141.3 4.5 C 141.3 3.6 141.1 3 140.2 3 C 139.4 3 138.8 3.6 138.6 4.4 C 138.5 4.6 138.5 4.8 138.5 5.1 C 138.5 5.12 138.5 7.5 138.5 7.5 L 137.8 7.5 C 137.8 7.5 137.82 4.47 137.8 4.5 C 137.8 3.7 137.7 3 136.8 3 C 135.9 3 135.3 3.7 135.1 4.4 C 135.1 4.7 135 4.9 135 5.1 C 135.04 5.12 135 7.5 135 7.5 L 134.4 7.5 C 134.4 7.5 134.36 3.28 134.4 3.3 Z M 143.7 0.5 L 144.4 0.5 L 144.4 1.3 L 143.7 1.3 L 143.7 0.5 Z M 143.7 3.3 C 143.7 3.1 143.6 3.1 143.5 3.1 C 143.5 3.06 143.1 3.1 143.1 3.1 L 143.1 2.5 C 143.1 2.5 143.79 2.47 143.8 2.5 C 144.2 2.5 144.4 2.7 144.4 3.1 C 144.4 3.1 144.4 6.7 144.4 6.7 C 144.4 6.8 144.5 6.9 144.6 6.9 C 144.62 6.91 145 6.9 145 6.9 L 145 7.5 C 145 7.5 144.33 7.5 144.3 7.5 C 143.9 7.5 143.7 7.3 143.7 6.9 C 143.7 6.9 143.7 3.3 143.7 3.3 Z M 146.2 3.3 C 146.2 3.1 146.1 3.1 146 3.1 C 145.96 3.06 145.5 3.1 145.5 3.1 L 145.5 2.5 C 145.5 2.5 146.24 2.47 146.2 2.5 C 146.7 2.5 146.9 2.7 146.9 3 C 146.9 3 146.9 3.3 146.9 3.3 C 146.85 3.46 146.8 3.6 146.8 3.6 C 146.8 3.6 146.85 3.62 146.9 3.6 C 147 3.2 147.7 2.4 148.9 2.4 C 150.1 2.4 150.5 3.1 150.5 4.3 C 150.5 4.3 150.5 6.7 150.5 6.7 C 150.5 6.8 150.6 6.9 150.8 6.9 C 150.76 6.91 151.2 6.9 151.2 6.9 L 151.2 7.5 C 151.2 7.5 150.47 7.5 150.5 7.5 C 150 7.5 149.9 7.3 149.9 6.9 C 149.9 6.9 149.9 4.5 149.9 4.5 C 149.9 3.7 149.7 3 148.8 3 C 147.9 3 147.2 3.6 146.9 4.4 C 146.9 4.6 146.9 4.8 146.9 5.1 C 146.86 5.09 146.9 7.5 146.9 7.5 L 146.2 7.5 C 146.2 7.5 146.18 3.28 146.2 3.3 Z M 153 4.1 C 153 2.7 152.6 1.4 151.9 0.2 C 151.9 0.2 152.6 0.2 152.6 0.2 C 153.3 1.4 153.6 2.7 153.6 4.2 C 153.6 5.7 153.2 7.3 152.5 8.4 C 152.5 8.4 151.9 8.4 151.9 8.4 C 152.6 7.1 153 5.6 153 4.1 Z " stroke="none" fill="#000"/>  </g></svg>