<?xml version="1.0" standalone="no"?><!DOCTYPE svg PUBLIC "-//W3C//DTD SVG 1.1//EN" "http://www.w3.org/Graphics/SVG/1.1/DTD/svg11.dtd"><svg xmlns="http://www.w3.org/2000/svg" version="1.1" width="98.4px" height="17.8px" viewBox="0 -3 98.4 17.8" style="top:-3px">  <desc>Crosslinked fibrin</desc>  <defs/>  <g id="Polygon77221">    <path d="M 5.3 4.3 C 5.3 3.8 5.4 3.2 5.6 2.8 C 5.8 2.3 6.1 1.8 6.5 1.5 C 6.8 1.1 7.2 0.9 7.7 0.7 C 8.2 0.5 8.7 0.4 9.3 0.4 C 9.6 0.4 10 0.4 10.3 0.5 C 10.6 0.5 10.9 0.6 11.1 0.7 C 11.3 0.8 11.5 0.9 11.6 1 C 11.8 1.1 11.9 1.2 12 1.3 C 12 1.26 12.1 1.4 12.1 1.4 C 12.1 1.4 11.57 2.18 11.6 2.2 C 11.5 2.2 11.5 2.1 11.5 2.1 C 11.4 2.1 11.3 2 11.2 1.9 C 11 1.8 10.9 1.7 10.7 1.6 C 10.5 1.6 10.3 1.5 10.1 1.4 C 9.8 1.4 9.6 1.3 9.3 1.3 C 8.8 1.3 8.3 1.5 7.8 1.7 C 7.4 2 7 2.4 6.8 2.8 C 6.6 3.3 6.5 3.8 6.5 4.3 C 6.5 4.9 6.6 5.4 6.8 5.8 C 7 6.3 7.4 6.7 7.8 7 C 8.3 7.2 8.8 7.4 9.3 7.4 C 9.6 7.4 9.9 7.3 10.1 7.3 C 10.4 7.2 10.6 7.1 10.8 7 C 11 6.9 11.2 6.8 11.3 6.7 C 11.4 6.6 11.6 6.5 11.6 6.5 C 11.62 6.48 11.7 6.4 11.7 6.4 C 11.7 6.4 12.32 7.15 12.3 7.1 C 12.3 7.2 12.2 7.2 12.2 7.3 C 12.1 7.3 12 7.4 11.8 7.6 C 11.6 7.7 11.4 7.8 11.2 8 C 11 8.1 10.7 8.2 10.4 8.3 C 10 8.3 9.7 8.4 9.3 8.4 C 8.5 8.4 7.9 8.2 7.2 7.8 C 6.6 7.5 6.2 7 5.8 6.4 C 5.5 5.8 5.3 5.1 5.3 4.3 Z M 13.6 8.3 L 13.6 2.7 L 14.6 2.7 L 14.6 3.7 L 14.6 4.1 C 14.6 4.1 14.61 4.07 14.6 4.1 C 14.7 3.6 15 3.3 15.3 3 C 15.6 2.8 16 2.6 16.4 2.6 C 16.37 2.62 16.6 2.6 16.6 2.6 C 16.6 2.6 16.65 3.7 16.6 3.7 C 16.6 3.7 16.5 3.7 16.3 3.7 C 16 3.7 15.7 3.8 15.4 4 C 15.1 4.2 14.9 4.6 14.8 5 C 14.7 5.3 14.6 5.6 14.6 6 C 14.64 5.97 14.6 8.3 14.6 8.3 L 13.6 8.3 Z M 17.3 5.5 C 17.3 5 17.3 4.7 17.5 4.3 C 17.7 3.9 17.9 3.6 18.1 3.4 C 18.4 3.1 18.7 2.9 19.1 2.8 C 19.5 2.6 19.9 2.6 20.3 2.6 C 20.7 2.6 21.1 2.6 21.4 2.8 C 21.8 2.9 22.1 3.1 22.4 3.4 C 22.7 3.6 22.9 3.9 23 4.3 C 23.2 4.7 23.3 5 23.3 5.5 C 23.3 6 23.1 6.5 22.9 7 C 22.6 7.4 22.2 7.8 21.8 8 C 21.3 8.3 20.8 8.4 20.3 8.4 C 19.7 8.4 19.2 8.3 18.8 8 C 18.3 7.8 17.9 7.4 17.7 7 C 17.4 6.5 17.3 6 17.3 5.5 Z M 18.3 5.5 C 18.3 6 18.5 6.5 18.9 6.9 C 19.3 7.3 19.7 7.5 20.3 7.5 C 20.8 7.5 21.3 7.3 21.6 6.9 C 22 6.5 22.2 6 22.2 5.5 C 22.2 4.9 22 4.4 21.6 4 C 21.3 3.7 20.8 3.5 20.3 3.5 C 19.7 3.5 19.3 3.7 18.9 4 C 18.5 4.4 18.3 4.9 18.3 5.5 Z M 24.1 7.6 C 24.1 7.6 24.59 6.81 24.6 6.8 C 24.6 6.8 24.6 6.9 24.7 6.9 C 24.7 6.9 24.8 7 24.9 7 C 25 7.1 25.1 7.2 25.2 7.2 C 25.3 7.3 25.5 7.3 25.7 7.4 C 25.8 7.4 26 7.5 26.2 7.5 C 26.4 7.5 26.7 7.4 26.8 7.3 C 27 7.2 27.1 7 27.1 6.8 C 27.1 6.6 27.1 6.5 27 6.4 C 26.8 6.3 26.7 6.2 26.5 6.1 C 26.4 6 26.2 6 26 5.9 C 25.8 5.8 25.6 5.7 25.4 5.6 C 25.2 5.5 25 5.4 24.8 5.3 C 24.7 5.2 24.5 5 24.4 4.8 C 24.3 4.6 24.3 4.4 24.3 4.1 C 24.3 3.6 24.4 3.3 24.8 3 C 25.2 2.7 25.7 2.6 26.3 2.6 C 26.5 2.6 26.7 2.6 26.9 2.6 C 27.1 2.7 27.3 2.7 27.4 2.8 C 27.6 2.8 27.7 2.9 27.8 2.9 C 27.9 3 27.9 3.1 28 3.1 C 27.98 3.1 28.1 3.2 28.1 3.2 C 28.1 3.2 27.63 3.97 27.6 4 C 27.6 4 27.6 3.9 27.6 3.9 C 27.5 3.9 27.5 3.9 27.4 3.8 C 27.3 3.7 27.2 3.7 27.1 3.6 C 27 3.6 26.9 3.6 26.7 3.5 C 26.6 3.5 26.4 3.5 26.3 3.5 C 26 3.5 25.8 3.5 25.6 3.6 C 25.4 3.8 25.3 3.9 25.3 4.2 C 25.3 4.3 25.4 4.4 25.5 4.5 C 25.6 4.6 25.7 4.7 25.9 4.8 C 26.1 4.9 26.3 4.9 26.5 5 C 26.7 5.1 26.9 5.2 27.1 5.3 C 27.3 5.4 27.5 5.5 27.6 5.6 C 27.8 5.7 27.9 5.9 28 6.1 C 28.1 6.3 28.2 6.5 28.2 6.8 C 28.2 7.2 28 7.6 27.6 7.9 C 27.3 8.2 26.8 8.4 26.2 8.4 C 25.9 8.4 25.7 8.4 25.4 8.3 C 25.2 8.2 25 8.2 24.9 8.1 C 24.7 8 24.6 7.9 24.4 7.9 C 24.3 7.8 24.2 7.7 24.2 7.6 C 24.16 7.65 24.1 7.6 24.1 7.6 Z M 29 7.6 C 29 7.6 29.52 6.81 29.5 6.8 C 29.5 6.8 29.6 6.9 29.6 6.9 C 29.6 6.9 29.7 7 29.8 7 C 29.9 7.1 30 7.2 30.1 7.2 C 30.2 7.3 30.4 7.3 30.6 7.4 C 30.8 7.4 30.9 7.5 31.1 7.5 C 31.4 7.5 31.6 7.4 31.8 7.3 C 31.9 7.2 32 7 32 6.8 C 32 6.6 32 6.5 31.9 6.4 C 31.8 6.3 31.6 6.2 31.5 6.1 C 31.3 6 31.1 6 30.9 5.9 C 30.7 5.8 30.5 5.7 30.3 5.6 C 30.1 5.5 29.9 5.4 29.7 5.3 C 29.6 5.2 29.4 5 29.3 4.8 C 29.2 4.6 29.2 4.4 29.2 4.1 C 29.2 3.6 29.4 3.3 29.8 3 C 30.1 2.7 30.6 2.6 31.2 2.6 C 31.4 2.6 31.6 2.6 31.8 2.6 C 32 2.7 32.2 2.7 32.3 2.8 C 32.5 2.8 32.6 2.9 32.7 2.9 C 32.8 3 32.9 3.1 32.9 3.1 C 32.91 3.1 33 3.2 33 3.2 C 33 3.2 32.55 3.97 32.6 4 C 32.5 4 32.5 3.9 32.5 3.9 C 32.5 3.9 32.4 3.9 32.3 3.8 C 32.2 3.7 32.1 3.7 32 3.6 C 31.9 3.6 31.8 3.6 31.7 3.5 C 31.5 3.5 31.3 3.5 31.2 3.5 C 30.9 3.5 30.7 3.5 30.5 3.6 C 30.4 3.8 30.3 3.9 30.3 4.2 C 30.3 4.3 30.3 4.4 30.4 4.5 C 30.5 4.6 30.7 4.7 30.8 4.8 C 31 4.9 31.2 4.9 31.4 5 C 31.6 5.1 31.8 5.2 32 5.3 C 32.2 5.4 32.4 5.5 32.6 5.6 C 32.7 5.7 32.9 5.9 33 6.1 C 33.1 6.3 33.1 6.5 33.1 6.8 C 33.1 7.2 32.9 7.6 32.6 7.9 C 32.2 8.2 31.7 8.4 31.1 8.4 C 30.9 8.4 30.6 8.4 30.4 8.3 C 30.1 8.2 29.9 8.2 29.8 8.1 C 29.6 8 29.5 7.9 29.4 7.9 C 29.2 7.8 29.1 7.7 29.1 7.6 C 29.09 7.65 29 7.6 29 7.6 Z M 34.3 6.7 C 34.31 6.73 34.3 0.5 34.3 0.5 L 35.4 0.5 C 35.4 0.5 35.37 6.56 35.4 6.6 C 35.4 6.9 35.4 7.1 35.5 7.2 C 35.6 7.3 35.8 7.3 36 7.3 C 35.97 7.35 36.2 7.3 36.2 7.3 C 36.2 7.3 36.15 8.27 36.2 8.3 C 36 8.3 35.9 8.3 35.8 8.3 C 35.7 8.3 35.5 8.3 35.4 8.3 C 35.3 8.2 35.2 8.2 35 8.1 C 34.9 8.1 34.8 8 34.7 7.9 C 34.6 7.8 34.5 7.6 34.4 7.4 C 34.3 7.2 34.3 7 34.3 6.7 Z M 37.3 1.6 L 37.3 0.5 L 38.4 0.5 L 38.4 1.6 L 37.3 1.6 Z M 37.3 8.3 L 37.3 2.7 L 38.4 2.7 L 38.4 8.3 L 37.3 8.3 Z M 40 8.3 L 40 2.7 L 41.1 2.7 L 41.1 3.4 L 41 3.8 C 41 3.8 41.06 3.83 41.1 3.8 C 41.1 3.7 41.2 3.6 41.3 3.4 C 41.4 3.3 41.6 3.1 41.7 3 C 41.9 2.9 42.1 2.8 42.3 2.7 C 42.6 2.6 42.9 2.6 43.1 2.6 C 43.8 2.6 44.3 2.7 44.6 3.1 C 44.9 3.4 45.1 4 45.1 4.7 C 45.06 4.68 45.1 8.3 45.1 8.3 L 44 8.3 C 44 8.3 44 4.93 44 4.9 C 44 4.7 44 4.5 44 4.4 C 43.9 4.2 43.9 4.1 43.8 3.9 C 43.7 3.8 43.6 3.7 43.5 3.6 C 43.3 3.6 43.2 3.5 42.9 3.5 C 42.5 3.5 42.2 3.7 41.8 3.9 C 41.5 4.2 41.3 4.5 41.2 4.9 C 41.1 5.1 41.1 5.4 41.1 5.6 C 41.09 5.65 41.1 8.3 41.1 8.3 L 40 8.3 Z M 46.7 8.3 L 46.7 0.5 L 47.7 0.5 L 47.7 4.7 L 48.5 4.7 L 50 2.7 L 51.2 2.7 L 49.4 5.1 L 49.4 5.2 L 51.4 8.3 L 50.2 8.3 L 48.5 5.6 L 47.7 5.6 L 47.7 8.3 L 46.7 8.3 Z M 52 5.5 C 52 4.6 52.2 3.9 52.7 3.4 C 53.3 2.8 53.9 2.6 54.7 2.6 C 55.2 2.6 55.7 2.7 56.1 2.9 C 56.4 3.1 56.7 3.5 56.9 3.8 C 57.1 4.2 57.1 4.7 57.1 5.2 C 57.14 5.16 57.1 5.6 57.1 5.6 C 57.1 5.6 53.05 5.62 53.1 5.6 C 53.1 6.2 53.3 6.7 53.6 7 C 54 7.3 54.4 7.5 55 7.5 C 55.1 7.5 55.3 7.4 55.5 7.4 C 55.7 7.3 55.8 7.3 56 7.2 C 56.1 7.2 56.2 7.1 56.3 7 C 56.4 7 56.5 6.9 56.5 6.9 C 56.54 6.88 56.6 6.8 56.6 6.8 C 56.6 6.8 57.05 7.59 57.1 7.6 C 57 7.6 57 7.6 57 7.7 C 56.9 7.7 56.8 7.8 56.7 7.9 C 56.5 8 56.4 8 56.2 8.1 C 56.1 8.2 55.9 8.2 55.6 8.3 C 55.4 8.4 55.1 8.4 54.9 8.4 C 54.3 8.4 53.8 8.3 53.4 8 C 52.9 7.7 52.6 7.4 52.3 7 C 52.1 6.5 52 6 52 5.5 Z M 53.1 4.8 C 53.1 4.8 56.1 4.8 56.1 4.8 C 56 4.4 55.9 4 55.7 3.8 C 55.4 3.5 55.1 3.4 54.7 3.4 C 54.3 3.4 53.9 3.5 53.6 3.8 C 53.3 4 53.2 4.4 53.1 4.8 Z M 58.1 5.5 C 58.1 4.6 58.3 3.9 58.8 3.4 C 59.3 2.8 59.9 2.6 60.6 2.6 C 60.8 2.6 61.1 2.6 61.3 2.6 C 61.5 2.7 61.7 2.8 61.8 2.9 C 61.9 2.9 62 3 62.1 3.1 C 62.2 3.2 62.2 3.3 62.3 3.3 C 62.28 3.34 62.3 3.4 62.3 3.4 C 62.3 3.4 62.35 3.43 62.3 3.4 C 62.3 3.3 62.3 3.2 62.3 3.1 C 62.33 3.06 62.3 0.5 62.3 0.5 L 63.4 0.5 L 63.4 8.3 L 62.4 8.3 L 62.4 7.7 L 62.4 7.3 C 62.4 7.3 62.37 7.35 62.4 7.3 C 62.4 7.4 62.3 7.4 62.3 7.5 C 62.3 7.5 62.2 7.6 62.1 7.7 C 62 7.8 61.9 7.9 61.8 8 C 61.7 8.1 61.5 8.2 61.3 8.3 C 61 8.3 60.8 8.4 60.5 8.4 C 59.8 8.4 59.2 8.1 58.8 7.6 C 58.3 7 58.1 6.3 58.1 5.5 Z M 59.2 5.5 C 59.2 6.1 59.3 6.5 59.6 6.9 C 59.9 7.3 60.3 7.5 60.8 7.5 C 61 7.5 61.2 7.4 61.4 7.3 C 61.5 7.3 61.7 7.2 61.9 7 C 62 6.8 62.1 6.6 62.2 6.4 C 62.3 6.1 62.4 5.8 62.4 5.5 C 62.4 5.1 62.3 4.8 62.2 4.5 C 62.1 4.2 61.9 4 61.7 3.8 C 61.4 3.6 61.1 3.5 60.8 3.5 C 60.3 3.5 59.9 3.7 59.6 4 C 59.3 4.4 59.2 4.9 59.2 5.5 Z M 67.5 3.6 L 67.5 2.8 L 68.2 2.8 C 68.2 2.8 68.18 2.5 68.2 2.5 C 68.2 2.2 68.2 1.8 68.3 1.6 C 68.4 1.3 68.6 1.1 68.7 1 C 68.9 0.8 69 0.7 69.2 0.6 C 69.4 0.5 69.6 0.5 69.8 0.5 C 69.9 0.4 70.1 0.4 70.3 0.4 C 70.3 0.4 70.4 0.4 70.5 0.4 C 70.6 0.4 70.6 0.4 70.6 0.5 C 70.64 0.45 70.7 0.5 70.7 0.5 C 70.7 0.5 70.68 1.38 70.7 1.4 C 70.6 1.4 70.5 1.4 70.4 1.4 C 70.3 1.4 70.2 1.4 70.1 1.4 C 70 1.4 69.9 1.4 69.8 1.5 C 69.7 1.5 69.6 1.6 69.5 1.7 C 69.5 1.7 69.4 1.9 69.3 2 C 69.3 2.1 69.2 2.3 69.2 2.5 C 69.24 2.52 69.2 2.8 69.2 2.8 L 70.6 2.8 L 70.6 3.6 L 69.2 3.6 L 69.2 8.3 L 68.2 8.3 L 68.2 3.6 L 67.5 3.6 Z M 71.6 1.6 L 71.6 0.5 L 72.6 0.5 L 72.6 1.6 L 71.6 1.6 Z M 71.6 8.3 L 71.6 2.7 L 72.6 2.7 L 72.6 8.3 L 71.6 8.3 Z M 74.3 8.3 L 74.3 0.5 L 75.4 0.5 L 75.4 3 L 75.4 3.5 C 75.4 3.5 75.38 3.51 75.4 3.5 C 75.4 3.5 75.4 3.4 75.4 3.4 C 75.5 3.4 75.5 3.3 75.6 3.2 C 75.7 3.1 75.8 3 76 2.9 C 76.1 2.8 76.3 2.7 76.5 2.7 C 76.7 2.6 76.9 2.6 77.2 2.6 C 77.9 2.6 78.5 2.8 78.9 3.4 C 79.4 3.9 79.6 4.6 79.6 5.5 C 79.6 6.4 79.4 7.1 78.9 7.6 C 78.4 8.1 77.8 8.4 77.1 8.4 C 76.8 8.4 76.6 8.4 76.4 8.3 C 76.2 8.2 76 8.1 75.9 8 C 75.8 8 75.7 7.9 75.6 7.8 C 75.5 7.7 75.4 7.6 75.4 7.5 C 75.38 7.53 75.3 7.4 75.3 7.4 C 75.3 7.4 75.3 7.43 75.3 7.4 C 75.3 7.6 75.3 7.7 75.3 7.8 C 75.32 7.85 75.3 8.3 75.3 8.3 L 74.3 8.3 Z M 75.3 5.5 C 75.3 5.8 75.4 6.2 75.5 6.5 C 75.6 6.7 75.8 7 76 7.2 C 76.3 7.4 76.6 7.5 76.9 7.5 C 77.4 7.5 77.8 7.3 78.1 6.9 C 78.4 6.6 78.5 6.1 78.5 5.5 C 78.5 4.9 78.4 4.4 78.1 4 C 77.8 3.7 77.4 3.5 77 3.5 C 76.5 3.5 76.1 3.7 75.8 4 C 75.5 4.3 75.3 4.8 75.3 5.5 Z M 80.9 8.3 L 80.9 2.7 L 81.9 2.7 L 81.9 3.7 L 81.9 4.1 C 81.9 4.1 81.94 4.07 81.9 4.1 C 82.1 3.6 82.3 3.3 82.6 3 C 82.9 2.8 83.3 2.6 83.7 2.6 C 83.7 2.62 84 2.6 84 2.6 C 84 2.6 83.98 3.7 84 3.7 C 83.9 3.7 83.8 3.7 83.7 3.7 C 83.3 3.7 83 3.8 82.7 4 C 82.4 4.2 82.2 4.6 82.1 5 C 82 5.3 82 5.6 82 6 C 81.97 5.97 82 8.3 82 8.3 L 80.9 8.3 Z M 85 1.6 L 85 0.5 L 86.1 0.5 L 86.1 1.6 L 85 1.6 Z M 85 8.3 L 85 2.7 L 86.1 2.7 L 86.1 8.3 L 85 8.3 Z M 87.8 8.3 L 87.8 2.7 L 88.8 2.7 L 88.8 3.4 L 88.8 3.8 C 88.8 3.8 88.8 3.83 88.8 3.8 C 88.9 3.7 88.9 3.6 89.1 3.4 C 89.2 3.3 89.3 3.1 89.5 3 C 89.6 2.9 89.8 2.8 90.1 2.7 C 90.3 2.6 90.6 2.6 90.9 2.6 C 91.5 2.6 92 2.7 92.3 3.1 C 92.6 3.4 92.8 4 92.8 4.7 C 92.8 4.68 92.8 8.3 92.8 8.3 L 91.7 8.3 C 91.7 8.3 91.74 4.93 91.7 4.9 C 91.7 4.7 91.7 4.5 91.7 4.4 C 91.7 4.2 91.6 4.1 91.5 3.9 C 91.5 3.8 91.4 3.7 91.2 3.6 C 91.1 3.6 90.9 3.5 90.7 3.5 C 90.3 3.5 89.9 3.7 89.6 3.9 C 89.3 4.2 89 4.5 88.9 4.9 C 88.9 5.1 88.8 5.4 88.8 5.6 C 88.83 5.65 88.8 8.3 88.8 8.3 L 87.8 8.3 Z " stroke="none" fill="#000"/>  </g></svg>