<?xml version="1.0" standalone="no"?><!DOCTYPE svg PUBLIC "-//W3C//DTD SVG 1.1//EN" "http://www.w3.org/Graphics/SVG/1.1/DTD/svg11.dtd"><svg xmlns="http://www.w3.org/2000/svg" version="1.1" width="543.2px" height="28.6px" viewBox="0 -1 543.2 28.6" style="top:-1px">  <desc>￼ Pl novan krv canie,￼ Nepl novan krv canie,￼ Absencia pl novan ho krv cania</desc>  <defs/>  <g class="svg-tables">    <g class="svg-table-background"/>  </g>  <g id="Polygon78615">    <path d="M 390 14.5 L 392.5 6.4 L 393.8 6.4 L 396.4 14.5 L 396.4 14.6 L 395.5 14.6 L 394.7 12.1 L 391.6 12.1 L 390.8 14.6 L 390 14.6 L 390 14.5 Z M 394.5 11.4 L 393.6 8.4 L 393.2 7.2 L 393.1 7.2 L 392.8 8.4 L 391.8 11.4 L 394.5 11.4 Z M 399.1 14.7 C 398.5 14.7 397.9 14.6 397.2 14.4 C 397.19 14.4 397.2 5.7 397.2 5.7 L 398.1 5.7 C 398.1 5.7 398.06 9.24 398.1 9.2 C 398.5 8.8 399 8.5 399.7 8.5 C 400.4 8.5 400.9 8.8 401.2 9.3 C 401.6 9.7 401.8 10.5 401.8 11.5 C 401.8 11.9 401.7 12.4 401.6 12.7 C 401.5 13.1 401.4 13.5 401.1 13.8 C 400.9 14 400.6 14.3 400.3 14.4 C 400 14.6 399.6 14.7 399.1 14.7 Z M 398.1 13.9 C 398.4 14 398.8 14 399.1 14 C 399.7 14 400.1 13.8 400.4 13.4 C 400.7 13 400.9 12.4 400.9 11.5 C 400.9 10.7 400.8 10.1 400.5 9.8 C 400.3 9.4 399.9 9.2 399.5 9.2 C 399.3 9.2 399.1 9.2 398.9 9.3 C 398.8 9.4 398.6 9.4 398.5 9.6 C 398.4 9.7 398.3 9.8 398.2 10 C 398.1 10.1 398.1 10.3 398.1 10.5 C 398.06 10.49 398.1 13.9 398.1 13.9 C 398.1 13.9 398.06 13.89 398.1 13.9 Z M 404.3 14.7 C 404.1 14.7 403.9 14.7 403.6 14.6 C 403.4 14.6 403 14.5 402.7 14.4 C 402.7 14.4 402.7 13.7 402.7 13.7 C 403 13.8 403.2 13.9 403.5 13.9 C 403.8 14 404 14 404.3 14 C 404.7 14 405 13.9 405.2 13.7 C 405.4 13.6 405.5 13.3 405.5 13 C 405.5 12.7 405.4 12.4 405.2 12.3 C 405 12.1 404.8 12 404.4 11.9 C 404.2 11.9 404 11.8 403.8 11.8 C 403.6 11.7 403.5 11.6 403.3 11.5 C 403.1 11.4 403 11.2 402.9 11 C 402.8 10.8 402.7 10.5 402.7 10.2 C 402.7 9.6 402.9 9.2 403.2 8.9 C 403.6 8.6 404 8.5 404.6 8.5 C 404.8 8.5 405 8.5 405.3 8.5 C 405.5 8.6 405.7 8.6 406.1 8.7 C 406.1 8.7 406.1 9.4 406.1 9.4 C 405.8 9.3 405.5 9.3 405.3 9.2 C 405.1 9.2 404.9 9.2 404.7 9.2 C 404.4 9.2 404.1 9.3 403.9 9.4 C 403.7 9.6 403.6 9.8 403.6 10.2 C 403.6 10.3 403.6 10.5 403.6 10.6 C 403.7 10.7 403.8 10.8 403.9 10.9 C 404 11 404.1 11 404.3 11.1 C 404.4 11.1 404.5 11.2 404.7 11.2 C 404.9 11.3 405.1 11.3 405.3 11.4 C 405.5 11.5 405.7 11.6 405.9 11.7 C 406 11.9 406.1 12 406.2 12.2 C 406.3 12.4 406.3 12.6 406.3 12.9 C 406.3 13.5 406.1 13.9 405.8 14.2 C 405.4 14.5 405 14.7 404.3 14.7 Z M 409.6 14.7 C 408.8 14.7 408.2 14.4 407.8 13.9 C 407.4 13.4 407.2 12.7 407.2 11.7 C 407.2 10.7 407.4 9.9 407.8 9.3 C 408.2 8.8 408.8 8.5 409.6 8.5 C 410.2 8.5 410.7 8.7 411.1 9.2 C 411.4 9.6 411.6 10.3 411.6 11.1 C 411.6 11.3 411.5 11.5 411.5 11.6 C 411.5 11.7 411.5 11.8 411.5 11.9 C 411.5 11.9 408 11.9 408 11.9 C 408.1 12.6 408.2 13.1 408.5 13.5 C 408.8 13.8 409.2 13.9 409.7 13.9 C 410.2 13.9 410.7 13.8 411.3 13.6 C 411.3 13.6 411.3 14.3 411.3 14.3 C 411.1 14.4 410.8 14.5 410.5 14.6 C 410.2 14.6 409.9 14.7 409.6 14.7 Z M 409.5 9.2 C 408.6 9.2 408.1 9.9 408 11.3 C 408 11.3 410.7 11.3 410.7 11.3 C 410.7 10.5 410.6 10 410.4 9.7 C 410.2 9.4 410 9.2 409.5 9.2 Z M 412.7 8.6 L 413.4 8.6 L 413.5 9.3 C 413.5 9.3 413.57 9.28 413.6 9.3 C 414 9 414.4 8.8 414.7 8.7 C 415 8.6 415.4 8.5 415.7 8.5 C 416.1 8.5 416.5 8.6 416.7 8.9 C 416.9 9.1 417 9.5 417 10.1 C 417.03 10.09 417 14.6 417 14.6 L 416.2 14.6 C 416.2 14.6 416.17 10.34 416.2 10.3 C 416.2 10 416.1 9.7 416 9.5 C 415.8 9.4 415.6 9.3 415.4 9.3 C 415.1 9.3 414.8 9.3 414.5 9.4 C 414.2 9.5 413.9 9.7 413.6 9.9 C 413.59 9.9 413.6 14.6 413.6 14.6 L 412.7 14.6 L 412.7 8.6 Z M 420.7 14.7 C 419.9 14.7 419.2 14.4 418.8 13.9 C 418.4 13.4 418.2 12.6 418.2 11.6 C 418.2 9.5 419 8.5 420.7 8.5 C 421.1 8.5 421.4 8.6 421.9 8.7 C 421.9 8.7 421.9 9.4 421.9 9.4 C 421.7 9.3 421.5 9.3 421.3 9.3 C 421.2 9.3 421 9.3 420.8 9.3 C 420.2 9.3 419.8 9.5 419.5 9.8 C 419.2 10.2 419.1 10.8 419.1 11.6 C 419.1 12.4 419.2 13 419.5 13.4 C 419.8 13.7 420.2 13.9 420.8 13.9 C 421 13.9 421.1 13.9 421.3 13.9 C 421.5 13.9 421.7 13.8 421.9 13.8 C 421.9 13.8 421.9 14.5 421.9 14.5 C 421.7 14.6 421.5 14.6 421.3 14.6 C 421.1 14.7 420.9 14.7 420.7 14.7 Z M 424 6.8 C 424 7.1 423.8 7.3 423.5 7.3 C 423.1 7.3 422.9 7.1 422.9 6.8 C 422.9 6.4 423.1 6.2 423.5 6.2 C 423.8 6.2 424 6.4 424 6.8 C 424 6.8 424 6.8 424 6.8 Z M 423 8.6 L 423.9 8.6 L 423.9 14.6 L 423 14.6 L 423 8.6 Z M 426.5 14.6 C 426 14.6 425.6 14.5 425.4 14.2 C 425.1 13.9 425 13.5 425 13.1 C 425 12.5 425.2 12.1 425.5 11.8 C 425.8 11.5 426.4 11.3 427.1 11.2 C 427.12 11.24 428.3 11.2 428.3 11.2 C 428.3 11.2 428.3 10.59 428.3 10.6 C 428.3 10.1 428.2 9.7 428 9.5 C 427.8 9.3 427.5 9.2 427 9.2 C 426.8 9.2 426.6 9.3 426.3 9.3 C 426 9.3 425.7 9.4 425.5 9.4 C 425.5 9.4 425.4 8.7 425.4 8.7 C 426 8.6 426.6 8.5 427.2 8.5 C 427.8 8.5 428.4 8.7 428.7 9 C 429 9.3 429.2 9.8 429.2 10.4 C 429.16 10.43 429.2 14.6 429.2 14.6 L 428.4 14.6 L 428.4 13.8 C 428.4 13.8 428.29 13.84 428.3 13.8 C 428 14.1 427.7 14.2 427.4 14.4 C 427.1 14.5 426.8 14.6 426.5 14.6 Z M 425.9 13 C 425.9 13.6 426.2 13.9 426.8 13.9 C 426.9 13.9 427 13.9 427.2 13.9 C 427.3 13.8 427.4 13.8 427.6 13.7 C 427.7 13.6 427.8 13.6 427.9 13.5 C 428.1 13.4 428.2 13.3 428.3 13.3 C 428.3 13.27 428.3 11.7 428.3 11.7 C 428.3 11.7 427.32 11.83 427.3 11.8 C 426.8 11.9 426.4 12 426.2 12.2 C 426 12.3 425.9 12.6 425.9 13 C 425.9 13 425.9 13 425.9 13 Z M 432.9 8.6 L 433.6 8.6 L 433.7 9.2 C 433.7 9.2 433.75 9.25 433.8 9.2 C 433.9 9 434.2 8.8 434.4 8.7 C 434.7 8.6 435 8.5 435.4 8.5 C 436.1 8.5 436.6 8.8 436.9 9.3 C 437.3 9.7 437.5 10.5 437.5 11.5 C 437.5 11.9 437.4 12.4 437.3 12.8 C 437.2 13.1 437 13.5 436.8 13.8 C 436.6 14.1 436.3 14.3 436 14.4 C 435.6 14.6 435.2 14.7 434.8 14.7 C 434.6 14.7 434.4 14.7 434.2 14.6 C 434.1 14.6 433.9 14.6 433.7 14.6 C 433.74 14.58 433.7 17 433.7 17 L 432.9 17 L 432.9 8.6 Z M 433.7 13.9 C 434.1 14 434.5 14 434.8 14 C 435.4 14 435.8 13.8 436.1 13.4 C 436.4 13 436.6 12.4 436.6 11.5 C 436.6 10.7 436.4 10.1 436.2 9.8 C 436 9.4 435.6 9.2 435.1 9.2 C 435 9.2 434.8 9.2 434.6 9.3 C 434.4 9.3 434.3 9.4 434.2 9.5 C 434 9.7 433.9 9.8 433.9 10 C 433.8 10.1 433.7 10.3 433.7 10.5 C 433.74 10.5 433.7 13.9 433.7 13.9 C 433.7 13.9 433.74 13.88 433.7 13.9 Z M 438.7 5.7 L 439.5 5.7 L 439.5 14.6 L 438.7 14.6 L 438.7 5.7 Z M 442.1 14.6 C 441.7 14.6 441.3 14.5 441 14.2 C 440.8 13.9 440.6 13.5 440.6 13.1 C 440.6 12.5 440.8 12.1 441.2 11.8 C 441.5 11.5 442 11.3 442.8 11.2 C 442.78 11.24 444 11.2 444 11.2 C 444 11.2 443.96 10.59 444 10.6 C 444 10.1 443.9 9.7 443.7 9.5 C 443.5 9.3 443.1 9.2 442.7 9.2 C 442.5 9.2 442.2 9.3 441.9 9.3 C 441.7 9.3 441.4 9.4 441.1 9.4 C 441.1 9.4 441.1 8.7 441.1 8.7 C 441.7 8.6 442.3 8.5 442.8 8.5 C 443.5 8.5 444 8.7 444.3 9 C 444.7 9.3 444.8 9.8 444.8 10.4 C 444.82 10.43 444.8 14.6 444.8 14.6 L 444.1 14.6 L 444 13.8 C 444 13.8 443.95 13.84 443.9 13.8 C 443.7 14.1 443.4 14.2 443.1 14.4 C 442.8 14.5 442.5 14.6 442.1 14.6 Z M 441.5 13 C 441.5 13.6 441.8 13.9 442.4 13.9 C 442.5 13.9 442.7 13.9 442.8 13.9 C 442.9 13.8 443.1 13.8 443.2 13.7 C 443.4 13.6 443.5 13.6 443.6 13.5 C 443.7 13.4 443.9 13.3 444 13.3 C 443.96 13.27 444 11.7 444 11.7 C 444 11.7 442.98 11.83 443 11.8 C 442.5 11.9 442.1 12 441.9 12.2 C 441.6 12.3 441.5 12.6 441.5 13 C 441.5 13 441.5 13 441.5 13 Z M 442.6 7.8 L 443.4 5.7 L 444.3 5.7 L 443.3 7.8 L 442.6 7.8 Z M 446.3 8.6 L 447 8.6 L 447 9.3 C 447 9.3 447.1 9.28 447.1 9.3 C 447.5 9 447.9 8.8 448.3 8.7 C 448.6 8.6 448.9 8.5 449.2 8.5 C 449.7 8.5 450 8.6 450.2 8.9 C 450.4 9.1 450.6 9.5 450.6 10.1 C 450.56 10.09 450.6 14.6 450.6 14.6 L 449.7 14.6 C 449.7 14.6 449.7 10.34 449.7 10.3 C 449.7 10 449.6 9.7 449.5 9.5 C 449.4 9.4 449.2 9.3 448.9 9.3 C 448.6 9.3 448.4 9.3 448.1 9.4 C 447.8 9.5 447.5 9.7 447.1 9.9 C 447.12 9.9 447.1 14.6 447.1 14.6 L 446.3 14.6 L 446.3 8.6 Z M 454.1 14.7 C 453.3 14.7 452.7 14.4 452.3 13.9 C 451.9 13.4 451.7 12.6 451.7 11.6 C 451.7 10.6 451.9 9.8 452.3 9.3 C 452.8 8.8 453.4 8.5 454.1 8.5 C 454.9 8.5 455.5 8.8 456 9.3 C 456.4 9.8 456.6 10.6 456.6 11.6 C 456.6 12.6 456.4 13.4 456 13.9 C 455.5 14.4 454.9 14.7 454.1 14.7 Z M 454.1 13.9 C 454.7 13.9 455.1 13.8 455.3 13.4 C 455.6 13 455.7 12.4 455.7 11.6 C 455.7 10.8 455.6 10.2 455.3 9.8 C 455.1 9.4 454.7 9.2 454.1 9.2 C 453.6 9.2 453.2 9.4 453 9.8 C 452.7 10.2 452.6 10.8 452.6 11.6 C 452.6 12.4 452.7 13 453 13.4 C 453.2 13.8 453.6 13.9 454.1 13.9 Z M 457.1 8.7 L 457.1 8.6 L 458 8.6 L 459.4 13.1 L 459.6 13.8 L 459.7 13.8 L 459.9 13.1 L 461.3 8.6 L 462.2 8.6 L 462.2 8.7 L 460.2 14.6 L 459.1 14.6 L 457.1 8.7 Z M 464.1 14.6 C 463.6 14.6 463.3 14.5 463 14.2 C 462.7 13.9 462.6 13.5 462.6 13.1 C 462.6 12.5 462.8 12.1 463.1 11.8 C 463.5 11.5 464 11.3 464.8 11.2 C 464.75 11.24 465.9 11.2 465.9 11.2 C 465.9 11.2 465.93 10.59 465.9 10.6 C 465.9 10.1 465.8 9.7 465.6 9.5 C 465.5 9.3 465.1 9.2 464.6 9.2 C 464.4 9.2 464.2 9.3 463.9 9.3 C 463.6 9.3 463.4 9.4 463.1 9.4 C 463.1 9.4 463 8.7 463 8.7 C 463.7 8.6 464.3 8.5 464.8 8.5 C 465.5 8.5 466 8.7 466.3 9 C 466.6 9.3 466.8 9.8 466.8 10.4 C 466.79 10.43 466.8 14.6 466.8 14.6 L 466.1 14.6 L 466 13.8 C 466 13.8 465.92 13.84 465.9 13.8 C 465.6 14.1 465.4 14.2 465 14.4 C 464.7 14.5 464.4 14.6 464.1 14.6 Z M 463.5 13 C 463.5 13.6 463.8 13.9 464.4 13.9 C 464.5 13.9 464.6 13.9 464.8 13.9 C 464.9 13.8 465.1 13.8 465.2 13.7 C 465.3 13.6 465.5 13.6 465.6 13.5 C 465.7 13.4 465.8 13.3 465.9 13.3 C 465.93 13.27 465.9 11.7 465.9 11.7 C 465.9 11.7 464.95 11.83 465 11.8 C 464.4 11.9 464 12 463.8 12.2 C 463.6 12.3 463.5 12.6 463.5 13 C 463.5 13 463.5 13 463.5 13 Z M 468.2 8.6 L 468.9 8.6 L 469 9.3 C 469 9.3 469.07 9.28 469.1 9.3 C 469.5 9 469.9 8.8 470.2 8.7 C 470.5 8.6 470.9 8.5 471.2 8.5 C 471.6 8.5 472 8.6 472.2 8.9 C 472.4 9.1 472.5 9.5 472.5 10.1 C 472.53 10.09 472.5 14.6 472.5 14.6 L 471.7 14.6 C 471.7 14.6 471.67 10.34 471.7 10.3 C 471.7 10 471.6 9.7 471.5 9.5 C 471.3 9.4 471.1 9.3 470.9 9.3 C 470.6 9.3 470.3 9.3 470 9.4 C 469.7 9.5 469.4 9.7 469.1 9.9 C 469.09 9.9 469.1 14.6 469.1 14.6 L 468.2 14.6 L 468.2 8.6 Z M 475.7 7.8 L 476.5 5.7 L 477.4 5.7 L 476.3 7.8 L 475.7 7.8 Z M 476.2 14.7 C 475.3 14.7 474.7 14.4 474.3 13.9 C 473.9 13.4 473.7 12.7 473.7 11.7 C 473.7 10.7 473.9 9.9 474.3 9.3 C 474.7 8.8 475.3 8.5 476.1 8.5 C 476.8 8.5 477.3 8.7 477.6 9.2 C 477.9 9.6 478.1 10.3 478.1 11.1 C 478.1 11.3 478.1 11.5 478.1 11.6 C 478.1 11.7 478 11.8 478 11.9 C 478 11.9 474.6 11.9 474.6 11.9 C 474.6 12.6 474.8 13.1 475 13.5 C 475.3 13.8 475.7 13.9 476.2 13.9 C 476.7 13.9 477.2 13.8 477.8 13.6 C 477.8 13.6 477.9 14.3 477.9 14.3 C 477.6 14.4 477.3 14.5 477 14.6 C 476.7 14.6 476.4 14.7 476.2 14.7 Z M 476.1 9.2 C 475.2 9.2 474.7 9.9 474.6 11.3 C 474.6 11.3 477.3 11.3 477.3 11.3 C 477.3 10.5 477.2 10 477 9.7 C 476.8 9.4 476.5 9.2 476.1 9.2 Z M 479.3 5.7 L 480.1 5.7 C 480.1 5.7 480.11 9.27 480.1 9.3 C 480.6 9 480.9 8.8 481.3 8.7 C 481.6 8.6 481.9 8.5 482.2 8.5 C 482.7 8.5 483 8.6 483.2 8.9 C 483.5 9.1 483.6 9.5 483.6 10.1 C 483.56 10.09 483.6 14.6 483.6 14.6 L 482.7 14.6 C 482.7 14.6 482.7 10.34 482.7 10.3 C 482.7 10 482.6 9.7 482.5 9.5 C 482.4 9.4 482.2 9.3 481.9 9.3 C 481.6 9.3 481.4 9.3 481.1 9.4 C 480.8 9.5 480.5 9.7 480.1 9.9 C 480.11 9.9 480.1 14.6 480.1 14.6 L 479.3 14.6 L 479.3 5.7 Z M 487.2 14.7 C 486.4 14.7 485.7 14.4 485.3 13.9 C 484.9 13.4 484.7 12.6 484.7 11.6 C 484.7 10.6 484.9 9.8 485.3 9.3 C 485.8 8.8 486.4 8.5 487.2 8.5 C 487.9 8.5 488.5 8.8 489 9.3 C 489.4 9.8 489.6 10.6 489.6 11.6 C 489.6 12.6 489.4 13.4 489 13.9 C 488.5 14.4 487.9 14.7 487.2 14.7 Z M 487.2 13.9 C 487.7 13.9 488.1 13.8 488.3 13.4 C 488.6 13 488.7 12.4 488.7 11.6 C 488.7 10.8 488.6 10.2 488.3 9.8 C 488.1 9.4 487.7 9.2 487.2 9.2 C 486.6 9.2 486.2 9.4 486 9.8 C 485.7 10.2 485.6 10.8 485.6 11.6 C 485.6 12.4 485.7 13 486 13.4 C 486.2 13.8 486.6 13.9 487.2 13.9 Z M 493.1 5.7 L 493.9 5.7 L 493.9 11.2 L 494.7 11.2 L 496.5 8.6 L 497.4 8.6 L 495.5 11.4 L 495.3 11.5 L 495.3 11.5 L 495.5 11.6 L 497.6 14.6 L 496.7 14.6 L 494.7 11.8 L 493.9 11.8 L 493.9 14.6 L 493.1 14.6 L 493.1 5.7 Z M 498.4 8.6 L 499.1 8.6 L 499.1 9.4 C 499.1 9.4 499.2 9.37 499.2 9.4 C 499.4 9.2 499.7 9 500 8.9 C 500.3 8.7 500.7 8.6 501 8.5 C 500.99 8.52 501.2 8.5 501.2 8.5 L 501.2 9.4 C 501.2 9.4 500.89 9.4 500.9 9.4 C 500.6 9.5 500.3 9.5 500 9.6 C 499.7 9.7 499.4 9.9 499.2 10 C 499.22 10.02 499.2 14.6 499.2 14.6 L 498.4 14.6 L 498.4 8.6 Z M 501.5 8.7 L 501.5 8.6 L 502.4 8.6 L 503.8 13.1 L 504 13.8 L 504.1 13.8 L 504.3 13.1 L 505.7 8.6 L 506.6 8.6 L 506.6 8.7 L 504.6 14.6 L 503.5 14.6 L 501.5 8.7 Z M 508.5 14.6 C 508.1 14.6 507.7 14.5 507.4 14.2 C 507.2 13.9 507 13.5 507 13.1 C 507 12.5 507.2 12.1 507.6 11.8 C 507.9 11.5 508.4 11.3 509.2 11.2 C 509.18 11.24 510.4 11.2 510.4 11.2 C 510.4 11.2 510.35 10.59 510.4 10.6 C 510.4 10.1 510.3 9.7 510.1 9.5 C 509.9 9.3 509.5 9.2 509.1 9.2 C 508.9 9.2 508.6 9.3 508.3 9.3 C 508.1 9.3 507.8 9.4 507.5 9.4 C 507.5 9.4 507.4 8.7 507.4 8.7 C 508.1 8.6 508.7 8.5 509.2 8.5 C 509.9 8.5 510.4 8.7 510.7 9 C 511.1 9.3 511.2 9.8 511.2 10.4 C 511.21 10.43 511.2 14.6 511.2 14.6 L 510.5 14.6 L 510.4 13.8 C 510.4 13.8 510.34 13.84 510.3 13.8 C 510.1 14.1 509.8 14.2 509.5 14.4 C 509.2 14.5 508.8 14.6 508.5 14.6 Z M 507.9 13 C 507.9 13.6 508.2 13.9 508.8 13.9 C 508.9 13.9 509.1 13.9 509.2 13.9 C 509.3 13.8 509.5 13.8 509.6 13.7 C 509.7 13.6 509.9 13.6 510 13.5 C 510.1 13.4 510.2 13.3 510.4 13.3 C 510.35 13.27 510.4 11.7 510.4 11.7 C 510.4 11.7 509.37 11.83 509.4 11.8 C 508.8 11.9 508.5 12 508.3 12.2 C 508 12.3 507.9 12.6 507.9 13 C 507.9 13 507.9 13 507.9 13 Z M 509 7.8 L 509.8 5.7 L 510.7 5.7 L 509.6 7.8 L 509 7.8 Z M 514.9 14.7 C 514.1 14.7 513.4 14.4 513 13.9 C 512.6 13.4 512.4 12.6 512.4 11.6 C 512.4 9.5 513.2 8.5 514.9 8.5 C 515.2 8.5 515.6 8.6 516 8.7 C 516 8.7 516 9.4 516 9.4 C 515.9 9.3 515.7 9.3 515.5 9.3 C 515.3 9.3 515.2 9.3 515 9.3 C 514.4 9.3 514 9.5 513.7 9.8 C 513.4 10.2 513.3 10.8 513.3 11.6 C 513.3 12.4 513.4 13 513.7 13.4 C 513.9 13.7 514.4 13.9 515 13.9 C 515.1 13.9 515.3 13.9 515.5 13.9 C 515.6 13.9 515.8 13.8 516 13.8 C 516 13.8 516 14.5 516 14.5 C 515.9 14.6 515.7 14.6 515.5 14.6 C 515.3 14.7 515.1 14.7 514.9 14.7 Z M 518.3 14.6 C 517.8 14.6 517.5 14.5 517.2 14.2 C 516.9 13.9 516.8 13.5 516.8 13.1 C 516.8 12.5 517 12.1 517.3 11.8 C 517.7 11.5 518.2 11.3 518.9 11.2 C 518.94 11.24 520.1 11.2 520.1 11.2 C 520.1 11.2 520.12 10.59 520.1 10.6 C 520.1 10.1 520 9.7 519.8 9.5 C 519.6 9.3 519.3 9.2 518.8 9.2 C 518.6 9.2 518.4 9.3 518.1 9.3 C 517.8 9.3 517.5 9.4 517.3 9.4 C 517.3 9.4 517.2 8.7 517.2 8.7 C 517.9 8.6 518.4 8.5 519 8.5 C 519.7 8.5 520.2 8.7 520.5 9 C 520.8 9.3 521 9.8 521 10.4 C 520.98 10.43 521 14.6 521 14.6 L 520.3 14.6 L 520.2 13.8 C 520.2 13.8 520.11 13.84 520.1 13.8 C 519.8 14.1 519.5 14.2 519.2 14.4 C 518.9 14.5 518.6 14.6 518.3 14.6 Z M 517.7 13 C 517.7 13.6 518 13.9 518.6 13.9 C 518.7 13.9 518.8 13.9 519 13.9 C 519.1 13.8 519.2 13.8 519.4 13.7 C 519.5 13.6 519.6 13.6 519.8 13.5 C 519.9 13.4 520 13.3 520.1 13.3 C 520.12 13.27 520.1 11.7 520.1 11.7 C 520.1 11.7 519.14 11.83 519.1 11.8 C 518.6 11.9 518.2 12 518 12.2 C 517.8 12.3 517.7 12.6 517.7 13 C 517.7 13 517.7 13 517.7 13 Z M 522.4 8.6 L 523.1 8.6 L 523.2 9.3 C 523.2 9.3 523.26 9.28 523.3 9.3 C 523.7 9 524.1 8.8 524.4 8.7 C 524.7 8.6 525.1 8.5 525.4 8.5 C 525.8 8.5 526.2 8.6 526.4 8.9 C 526.6 9.1 526.7 9.5 526.7 10.1 C 526.72 10.09 526.7 14.6 526.7 14.6 L 525.9 14.6 C 525.9 14.6 525.86 10.34 525.9 10.3 C 525.9 10 525.8 9.7 525.7 9.5 C 525.5 9.4 525.3 9.3 525 9.3 C 524.8 9.3 524.5 9.3 524.2 9.4 C 523.9 9.5 523.6 9.7 523.3 9.9 C 523.28 9.9 523.3 14.6 523.3 14.6 L 522.4 14.6 L 522.4 8.6 Z M 529.2 6.8 C 529.2 7.1 529 7.3 528.6 7.3 C 528.2 7.3 528.1 7.1 528.1 6.8 C 528.1 6.4 528.2 6.2 528.6 6.2 C 529 6.2 529.2 6.4 529.2 6.8 C 529.2 6.8 529.2 6.8 529.2 6.8 Z M 528.2 8.6 L 529 8.6 L 529 14.6 L 528.2 14.6 L 528.2 8.6 Z M 531.6 14.6 C 531.1 14.6 530.8 14.5 530.5 14.2 C 530.3 13.9 530.1 13.5 530.1 13.1 C 530.1 12.5 530.3 12.1 530.6 11.8 C 531 11.5 531.5 11.3 532.3 11.2 C 532.27 11.24 533.4 11.2 533.4 11.2 C 533.4 11.2 533.45 10.59 533.4 10.6 C 533.4 10.1 533.4 9.7 533.2 9.5 C 533 9.3 532.6 9.2 532.1 9.2 C 531.9 9.2 531.7 9.3 531.4 9.3 C 531.1 9.3 530.9 9.4 530.6 9.4 C 530.6 9.4 530.5 8.7 530.5 8.7 C 531.2 8.6 531.8 8.5 532.3 8.5 C 533 8.5 533.5 8.7 533.8 9 C 534.1 9.3 534.3 9.8 534.3 10.4 C 534.31 10.43 534.3 14.6 534.3 14.6 L 533.6 14.6 L 533.5 13.8 C 533.5 13.8 533.44 13.84 533.4 13.8 C 533.2 14.1 532.9 14.2 532.6 14.4 C 532.3 14.5 531.9 14.6 531.6 14.6 Z M 531 13 C 531 13.6 531.3 13.9 531.9 13.9 C 532 13.9 532.2 13.9 532.3 13.9 C 532.4 13.8 532.6 13.8 532.7 13.7 C 532.8 13.6 533 13.6 533.1 13.5 C 533.2 13.4 533.3 13.3 533.4 13.3 C 533.45 13.27 533.4 11.7 533.4 11.7 C 533.4 11.7 532.47 11.83 532.5 11.8 C 531.9 11.9 531.6 12 531.3 12.2 C 531.1 12.3 531 12.6 531 13 C 531 13 531 13 531 13 Z " stroke="none" fill="#000"/>  </g>  <g id="Polygon78611">    <path d="M 209.4 6.4 L 210.2 6.4 L 213.9 12.2 L 214.4 13.1 L 214.5 13.1 L 214.5 6.4 L 215.3 6.4 L 215.3 14.6 L 214.5 14.6 L 210.8 8.9 L 210.2 7.9 L 210.2 7.9 L 210.2 14.6 L 209.4 14.6 L 209.4 6.4 Z M 219 14.7 C 218.2 14.7 217.6 14.4 217.2 13.9 C 216.8 13.4 216.6 12.7 216.6 11.7 C 216.6 10.7 216.8 9.9 217.2 9.3 C 217.6 8.8 218.2 8.5 219 8.5 C 219.6 8.5 220.1 8.7 220.5 9.2 C 220.8 9.6 221 10.3 221 11.1 C 221 11.3 221 11.5 220.9 11.6 C 220.9 11.7 220.9 11.8 220.9 11.9 C 220.9 11.9 217.4 11.9 217.4 11.9 C 217.5 12.6 217.6 13.1 217.9 13.5 C 218.2 13.8 218.6 13.9 219.1 13.9 C 219.6 13.9 220.1 13.8 220.7 13.6 C 220.7 13.6 220.7 14.3 220.7 14.3 C 220.5 14.4 220.2 14.5 219.9 14.6 C 219.6 14.6 219.3 14.7 219 14.7 Z M 219 9.2 C 218 9.2 217.5 9.9 217.5 11.3 C 217.5 11.3 220.2 11.3 220.2 11.3 C 220.1 10.5 220 10 219.9 9.7 C 219.7 9.4 219.4 9.2 219 9.2 Z M 222.1 8.6 L 222.9 8.6 L 223 9.2 C 223 9.2 223.01 9.25 223 9.2 C 223.2 9 223.4 8.8 223.7 8.7 C 224 8.6 224.3 8.5 224.6 8.5 C 225.3 8.5 225.8 8.8 226.2 9.3 C 226.5 9.7 226.7 10.5 226.7 11.5 C 226.7 11.9 226.7 12.4 226.6 12.8 C 226.5 13.1 226.3 13.5 226.1 13.8 C 225.9 14.1 225.6 14.3 225.2 14.4 C 224.9 14.6 224.5 14.7 224 14.7 C 223.9 14.7 223.7 14.7 223.5 14.6 C 223.3 14.6 223.2 14.6 223 14.6 C 223 14.58 223 17 223 17 L 222.1 17 L 222.1 8.6 Z M 223 13.9 C 223.4 14 223.7 14 224.1 14 C 224.7 14 225.1 13.8 225.4 13.4 C 225.7 13 225.8 12.4 225.8 11.5 C 225.8 10.7 225.7 10.1 225.5 9.8 C 225.2 9.4 224.9 9.2 224.4 9.2 C 224.2 9.2 224 9.2 223.9 9.3 C 223.7 9.3 223.6 9.4 223.4 9.5 C 223.3 9.7 223.2 9.8 223.1 10 C 223 10.1 223 10.3 223 10.5 C 223 10.5 223 13.9 223 13.9 C 223 13.9 223 13.88 223 13.9 Z M 227.9 5.7 L 228.8 5.7 L 228.8 14.6 L 227.9 14.6 L 227.9 5.7 Z M 231.4 14.6 C 230.9 14.6 230.6 14.5 230.3 14.2 C 230 13.9 229.9 13.5 229.9 13.1 C 229.9 12.5 230.1 12.1 230.4 11.8 C 230.8 11.5 231.3 11.3 232 11.2 C 232.04 11.24 233.2 11.2 233.2 11.2 C 233.2 11.2 233.22 10.59 233.2 10.6 C 233.2 10.1 233.1 9.7 232.9 9.5 C 232.7 9.3 232.4 9.2 231.9 9.2 C 231.7 9.2 231.5 9.3 231.2 9.3 C 230.9 9.3 230.6 9.4 230.4 9.4 C 230.4 9.4 230.3 8.7 230.3 8.7 C 231 8.6 231.5 8.5 232.1 8.5 C 232.8 8.5 233.3 8.7 233.6 9 C 233.9 9.3 234.1 9.8 234.1 10.4 C 234.08 10.43 234.1 14.6 234.1 14.6 L 233.4 14.6 L 233.3 13.8 C 233.3 13.8 233.21 13.84 233.2 13.8 C 232.9 14.1 232.6 14.2 232.3 14.4 C 232 14.5 231.7 14.6 231.4 14.6 Z M 230.8 13 C 230.8 13.6 231.1 13.9 231.7 13.9 C 231.8 13.9 231.9 13.9 232.1 13.9 C 232.2 13.8 232.3 13.8 232.5 13.7 C 232.6 13.6 232.7 13.6 232.9 13.5 C 233 13.4 233.1 13.3 233.2 13.3 C 233.22 13.27 233.2 11.7 233.2 11.7 C 233.2 11.7 232.24 11.83 232.2 11.8 C 231.7 11.9 231.3 12 231.1 12.2 C 230.9 12.3 230.8 12.6 230.8 13 C 230.8 13 230.8 13 230.8 13 Z M 231.9 7.8 L 232.7 5.7 L 233.6 5.7 L 232.5 7.8 L 231.9 7.8 Z M 235.5 8.6 L 236.2 8.6 L 236.3 9.3 C 236.3 9.3 236.36 9.28 236.4 9.3 C 236.8 9 237.2 8.8 237.5 8.7 C 237.8 8.6 238.2 8.5 238.5 8.5 C 238.9 8.5 239.3 8.6 239.5 8.9 C 239.7 9.1 239.8 9.5 239.8 10.1 C 239.82 10.09 239.8 14.6 239.8 14.6 L 239 14.6 C 239 14.6 238.96 10.34 239 10.3 C 239 10 238.9 9.7 238.8 9.5 C 238.6 9.4 238.4 9.3 238.1 9.3 C 237.9 9.3 237.6 9.3 237.3 9.4 C 237 9.5 236.7 9.7 236.4 9.9 C 236.38 9.9 236.4 14.6 236.4 14.6 L 235.5 14.6 L 235.5 8.6 Z M 243.4 14.7 C 242.6 14.7 242 14.4 241.6 13.9 C 241.2 13.4 241 12.6 241 11.6 C 241 10.6 241.2 9.8 241.6 9.3 C 242 8.8 242.6 8.5 243.4 8.5 C 244.2 8.5 244.8 8.8 245.2 9.3 C 245.6 9.8 245.8 10.6 245.8 11.6 C 245.8 12.6 245.6 13.4 245.2 13.9 C 244.8 14.4 244.2 14.7 243.4 14.7 Z M 243.4 13.9 C 243.9 13.9 244.3 13.8 244.6 13.4 C 244.8 13 244.9 12.4 244.9 11.6 C 244.9 10.8 244.8 10.2 244.6 9.8 C 244.3 9.4 243.9 9.2 243.4 9.2 C 242.9 9.2 242.5 9.4 242.2 9.8 C 242 10.2 241.9 10.8 241.9 11.6 C 241.9 12.4 242 13 242.2 13.4 C 242.5 13.8 242.9 13.9 243.4 13.9 Z M 246.3 8.7 L 246.3 8.6 L 247.2 8.6 L 248.7 13.1 L 248.9 13.8 L 248.9 13.8 L 249.1 13.1 L 250.6 8.6 L 251.5 8.6 L 251.5 8.7 L 249.5 14.6 L 248.3 14.6 L 246.3 8.7 Z M 253.4 14.6 C 252.9 14.6 252.5 14.5 252.3 14.2 C 252 13.9 251.9 13.5 251.9 13.1 C 251.9 12.5 252 12.1 252.4 11.8 C 252.7 11.5 253.3 11.3 254 11.2 C 254.01 11.24 255.2 11.2 255.2 11.2 C 255.2 11.2 255.19 10.59 255.2 10.6 C 255.2 10.1 255.1 9.7 254.9 9.5 C 254.7 9.3 254.4 9.2 253.9 9.2 C 253.7 9.2 253.5 9.3 253.2 9.3 C 252.9 9.3 252.6 9.4 252.4 9.4 C 252.4 9.4 252.3 8.7 252.3 8.7 C 252.9 8.6 253.5 8.5 254 8.5 C 254.7 8.5 255.2 8.7 255.6 9 C 255.9 9.3 256 9.8 256 10.4 C 256.05 10.43 256 14.6 256 14.6 L 255.3 14.6 L 255.2 13.8 C 255.2 13.8 255.18 13.84 255.2 13.8 C 254.9 14.1 254.6 14.2 254.3 14.4 C 254 14.5 253.7 14.6 253.4 14.6 Z M 252.8 13 C 252.8 13.6 253.1 13.9 253.6 13.9 C 253.8 13.9 253.9 13.9 254 13.9 C 254.2 13.8 254.3 13.8 254.4 13.7 C 254.6 13.6 254.7 13.6 254.8 13.5 C 255 13.4 255.1 13.3 255.2 13.3 C 255.19 13.27 255.2 11.7 255.2 11.7 C 255.2 11.7 254.21 11.83 254.2 11.8 C 253.7 11.9 253.3 12 253.1 12.2 C 252.9 12.3 252.8 12.6 252.8 13 C 252.8 13 252.8 13 252.8 13 Z M 257.5 8.6 L 258.2 8.6 L 258.3 9.3 C 258.3 9.3 258.33 9.28 258.3 9.3 C 258.8 9 259.2 8.8 259.5 8.7 C 259.8 8.6 260.1 8.5 260.4 8.5 C 260.9 8.5 261.2 8.6 261.5 8.9 C 261.7 9.1 261.8 9.5 261.8 10.1 C 261.79 10.09 261.8 14.6 261.8 14.6 L 260.9 14.6 C 260.9 14.6 260.93 10.34 260.9 10.3 C 260.9 10 260.9 9.7 260.7 9.5 C 260.6 9.4 260.4 9.3 260.1 9.3 C 259.9 9.3 259.6 9.3 259.3 9.4 C 259 9.5 258.7 9.7 258.4 9.9 C 258.35 9.9 258.4 14.6 258.4 14.6 L 257.5 14.6 L 257.5 8.6 Z M 265 7.8 L 265.8 5.7 L 266.7 5.7 L 265.6 7.8 L 265 7.8 Z M 265.4 14.7 C 264.6 14.7 264 14.4 263.6 13.9 C 263.2 13.4 263 12.7 263 11.7 C 263 10.7 263.2 9.9 263.6 9.3 C 264 8.8 264.6 8.5 265.4 8.5 C 266 8.5 266.5 8.7 266.9 9.2 C 267.2 9.6 267.3 10.3 267.3 11.1 C 267.3 11.3 267.3 11.5 267.3 11.6 C 267.3 11.7 267.3 11.8 267.3 11.9 C 267.3 11.9 263.8 11.9 263.8 11.9 C 263.9 12.6 264 13.1 264.3 13.5 C 264.5 13.8 264.9 13.9 265.5 13.9 C 266 13.9 266.5 13.8 267.1 13.6 C 267.1 13.6 267.1 14.3 267.1 14.3 C 266.9 14.4 266.6 14.5 266.3 14.6 C 266 14.6 265.7 14.7 265.4 14.7 Z M 265.3 9.2 C 264.4 9.2 263.9 9.9 263.8 11.3 C 263.8 11.3 266.5 11.3 266.5 11.3 C 266.5 10.5 266.4 10 266.2 9.7 C 266 9.4 265.7 9.2 265.3 9.2 Z M 270.8 5.7 L 271.7 5.7 L 271.7 11.2 L 272.5 11.2 L 274.2 8.6 L 275.2 8.6 L 273.3 11.4 L 273.1 11.5 L 273.1 11.5 L 273.3 11.6 L 275.4 14.6 L 274.4 14.6 L 272.5 11.8 L 271.7 11.8 L 271.7 14.6 L 270.8 14.6 L 270.8 5.7 Z M 276.1 8.6 L 276.8 8.6 L 276.9 9.4 C 276.9 9.4 276.94 9.37 276.9 9.4 C 277.2 9.2 277.4 9 277.8 8.9 C 278.1 8.7 278.4 8.6 278.7 8.5 C 278.73 8.52 279 8.5 279 8.5 L 279 9.4 C 279 9.4 278.64 9.4 278.6 9.4 C 278.3 9.5 278 9.5 277.7 9.6 C 277.4 9.7 277.2 9.9 277 10 C 276.96 10.02 277 14.6 277 14.6 L 276.1 14.6 L 276.1 8.6 Z M 279.2 8.7 L 279.2 8.6 L 280.1 8.6 L 281.6 13.1 L 281.8 13.8 L 281.9 13.8 L 282 13.1 L 283.5 8.6 L 284.4 8.6 L 284.4 8.7 L 282.4 14.6 L 281.2 14.6 L 279.2 8.7 Z M 286.3 14.6 C 285.8 14.6 285.4 14.5 285.2 14.2 C 284.9 13.9 284.8 13.5 284.8 13.1 C 284.8 12.5 285 12.1 285.3 11.8 C 285.6 11.5 286.2 11.3 286.9 11.2 C 286.92 11.24 288.1 11.2 288.1 11.2 C 288.1 11.2 288.1 10.59 288.1 10.6 C 288.1 10.1 288 9.7 287.8 9.5 C 287.6 9.3 287.3 9.2 286.8 9.2 C 286.6 9.2 286.4 9.3 286.1 9.3 C 285.8 9.3 285.5 9.4 285.3 9.4 C 285.3 9.4 285.2 8.7 285.2 8.7 C 285.8 8.6 286.4 8.5 287 8.5 C 287.6 8.5 288.1 8.7 288.5 9 C 288.8 9.3 289 9.8 289 10.4 C 288.95 10.43 289 14.6 289 14.6 L 288.2 14.6 L 288.2 13.8 C 288.2 13.8 288.08 13.84 288.1 13.8 C 287.8 14.1 287.5 14.2 287.2 14.4 C 286.9 14.5 286.6 14.6 286.3 14.6 Z M 285.7 13 C 285.7 13.6 286 13.9 286.6 13.9 C 286.7 13.9 286.8 13.9 286.9 13.9 C 287.1 13.8 287.2 13.8 287.4 13.7 C 287.5 13.6 287.6 13.6 287.7 13.5 C 287.9 13.4 288 13.3 288.1 13.3 C 288.1 13.27 288.1 11.7 288.1 11.7 C 288.1 11.7 287.12 11.83 287.1 11.8 C 286.6 11.9 286.2 12 286 12.2 C 285.8 12.3 285.7 12.6 285.7 13 C 285.7 13 285.7 13 285.7 13 Z M 286.8 7.8 L 287.6 5.7 L 288.5 5.7 L 287.4 7.8 L 286.8 7.8 Z M 292.7 14.7 C 291.8 14.7 291.2 14.4 290.7 13.9 C 290.3 13.4 290.1 12.6 290.1 11.6 C 290.1 9.5 291 8.5 292.7 8.5 C 293 8.5 293.4 8.6 293.8 8.7 C 293.8 8.7 293.8 9.4 293.8 9.4 C 293.6 9.3 293.4 9.3 293.2 9.3 C 293.1 9.3 292.9 9.3 292.7 9.3 C 292.1 9.3 291.7 9.5 291.4 9.8 C 291.1 10.2 291 10.8 291 11.6 C 291 12.4 291.1 13 291.4 13.4 C 291.7 13.7 292.1 13.9 292.7 13.9 C 292.9 13.9 293.1 13.9 293.2 13.9 C 293.4 13.9 293.6 13.8 293.8 13.8 C 293.8 13.8 293.8 14.5 293.8 14.5 C 293.6 14.6 293.4 14.6 293.2 14.6 C 293 14.7 292.8 14.7 292.7 14.7 Z M 296 14.6 C 295.6 14.6 295.2 14.5 294.9 14.2 C 294.7 13.9 294.5 13.5 294.5 13.1 C 294.5 12.5 294.7 12.1 295.1 11.8 C 295.4 11.5 296 11.3 296.7 11.2 C 296.69 11.24 297.9 11.2 297.9 11.2 C 297.9 11.2 297.86 10.59 297.9 10.6 C 297.9 10.1 297.8 9.7 297.6 9.5 C 297.4 9.3 297 9.2 296.6 9.2 C 296.4 9.2 296.1 9.3 295.8 9.3 C 295.6 9.3 295.3 9.4 295 9.4 C 295 9.4 295 8.7 295 8.7 C 295.6 8.6 296.2 8.5 296.7 8.5 C 297.4 8.5 297.9 8.7 298.2 9 C 298.6 9.3 298.7 9.8 298.7 10.4 C 298.72 10.43 298.7 14.6 298.7 14.6 L 298 14.6 L 297.9 13.8 C 297.9 13.8 297.85 13.84 297.9 13.8 C 297.6 14.1 297.3 14.2 297 14.4 C 296.7 14.5 296.4 14.6 296 14.6 Z M 295.4 13 C 295.4 13.6 295.7 13.9 296.3 13.9 C 296.4 13.9 296.6 13.9 296.7 13.9 C 296.8 13.8 297 13.8 297.1 13.7 C 297.3 13.6 297.4 13.6 297.5 13.5 C 297.6 13.4 297.8 13.3 297.9 13.3 C 297.86 13.27 297.9 11.7 297.9 11.7 C 297.9 11.7 296.88 11.83 296.9 11.8 C 296.4 11.9 296 12 295.8 12.2 C 295.5 12.3 295.4 12.6 295.4 13 C 295.4 13 295.4 13 295.4 13 Z M 300.2 8.6 L 300.9 8.6 L 300.9 9.3 C 300.9 9.3 301 9.28 301 9.3 C 301.4 9 301.8 8.8 302.2 8.7 C 302.5 8.6 302.8 8.5 303.1 8.5 C 303.6 8.5 303.9 8.6 304.1 8.9 C 304.3 9.1 304.5 9.5 304.5 10.1 C 304.46 10.09 304.5 14.6 304.5 14.6 L 303.6 14.6 C 303.6 14.6 303.6 10.34 303.6 10.3 C 303.6 10 303.5 9.7 303.4 9.5 C 303.3 9.4 303.1 9.3 302.8 9.3 C 302.5 9.3 302.3 9.3 302 9.4 C 301.7 9.5 301.4 9.7 301 9.9 C 301.02 9.9 301 14.6 301 14.6 L 300.2 14.6 L 300.2 8.6 Z M 306.9 6.8 C 306.9 7.1 306.7 7.3 306.3 7.3 C 306 7.3 305.8 7.1 305.8 6.8 C 305.8 6.4 306 6.2 306.3 6.2 C 306.7 6.2 306.9 6.4 306.9 6.8 C 306.9 6.8 306.9 6.8 306.9 6.8 Z M 305.9 8.6 L 306.8 8.6 L 306.8 14.6 L 305.9 14.6 L 305.9 8.6 Z M 310.4 14.7 C 309.6 14.7 309 14.4 308.6 13.9 C 308.2 13.4 308 12.7 308 11.7 C 308 10.7 308.2 9.9 308.6 9.3 C 309 8.8 309.6 8.5 310.4 8.5 C 311.1 8.5 311.6 8.7 311.9 9.2 C 312.2 9.6 312.4 10.3 312.4 11.1 C 312.4 11.3 312.4 11.5 312.4 11.6 C 312.4 11.7 312.3 11.8 312.3 11.9 C 312.3 11.9 308.9 11.9 308.9 11.9 C 308.9 12.6 309 13.1 309.3 13.5 C 309.6 13.8 310 13.9 310.5 13.9 C 311 13.9 311.5 13.8 312.1 13.6 C 312.1 13.6 312.1 14.3 312.1 14.3 C 311.9 14.4 311.6 14.5 311.3 14.6 C 311 14.6 310.7 14.7 310.4 14.7 Z M 310.4 9.2 C 309.4 9.2 308.9 9.9 308.9 11.3 C 308.9 11.3 311.6 11.3 311.6 11.3 C 311.6 10.5 311.5 10 311.3 9.7 C 311.1 9.4 310.8 9.2 310.4 9.2 Z " stroke="none" fill="#68adca"/>  </g>  <g id="Polygon78607">    <path d="M 28.3 6.5 C 28.9 6.4 29.6 6.3 30.1 6.3 C 31.2 6.3 32.1 6.5 32.6 7 C 33.1 7.4 33.4 8.1 33.4 9.1 C 33.4 10.1 33.1 10.8 32.6 11.2 C 32.1 11.7 31.2 11.9 30.1 11.9 C 29.8 11.9 29.5 11.9 29.2 11.9 C 29.19 11.88 29.2 14.6 29.2 14.6 L 28.3 14.6 C 28.3 14.6 28.31 6.47 28.3 6.5 Z M 30.2 11.2 C 31 11.2 31.6 11 31.9 10.7 C 32.3 10.4 32.5 9.8 32.5 9.1 C 32.5 8.4 32.3 7.9 31.9 7.5 C 31.6 7.2 31.1 7.1 30.3 7.1 C 30.1 7.1 29.9 7.1 29.7 7.1 C 29.6 7.1 29.4 7.1 29.2 7.1 C 29.2 7.1 29.2 11.1 29.2 11.1 C 29.3 11.1 29.5 11.1 29.7 11.1 C 29.9 11.2 30.1 11.2 30.2 11.2 Z M 34.5 5.7 L 35.3 5.7 L 35.3 14.6 L 34.5 14.6 L 34.5 5.7 Z M 37.9 14.6 C 37.4 14.6 37.1 14.5 36.8 14.2 C 36.6 13.9 36.4 13.5 36.4 13.1 C 36.4 12.5 36.6 12.1 36.9 11.8 C 37.3 11.5 37.8 11.3 38.6 11.2 C 38.56 11.24 39.7 11.2 39.7 11.2 C 39.7 11.2 39.74 10.59 39.7 10.6 C 39.7 10.1 39.6 9.7 39.5 9.5 C 39.3 9.3 38.9 9.2 38.4 9.2 C 38.2 9.2 38 9.3 37.7 9.3 C 37.4 9.3 37.2 9.4 36.9 9.4 C 36.9 9.4 36.8 8.7 36.8 8.7 C 37.5 8.6 38.1 8.5 38.6 8.5 C 39.3 8.5 39.8 8.7 40.1 9 C 40.4 9.3 40.6 9.8 40.6 10.4 C 40.6 10.43 40.6 14.6 40.6 14.6 L 39.9 14.6 L 39.8 13.8 C 39.8 13.8 39.73 13.84 39.7 13.8 C 39.5 14.1 39.2 14.2 38.9 14.4 C 38.6 14.5 38.2 14.6 37.9 14.6 Z M 37.3 13 C 37.3 13.6 37.6 13.9 38.2 13.9 C 38.3 13.9 38.5 13.9 38.6 13.9 C 38.7 13.8 38.9 13.8 39 13.7 C 39.1 13.6 39.3 13.6 39.4 13.5 C 39.5 13.4 39.6 13.3 39.7 13.3 C 39.74 13.27 39.7 11.7 39.7 11.7 C 39.7 11.7 38.76 11.83 38.8 11.8 C 38.2 11.9 37.9 12 37.6 12.2 C 37.4 12.3 37.3 12.6 37.3 13 C 37.3 13 37.3 13 37.3 13 Z M 38.4 7.8 L 39.2 5.7 L 40.1 5.7 L 39 7.8 L 38.4 7.8 Z M 42 8.6 L 42.8 8.6 L 42.8 9.3 C 42.8 9.3 42.88 9.28 42.9 9.3 C 43.3 9 43.7 8.8 44 8.7 C 44.4 8.6 44.7 8.5 45 8.5 C 45.4 8.5 45.8 8.6 46 8.9 C 46.2 9.1 46.3 9.5 46.3 10.1 C 46.34 10.09 46.3 14.6 46.3 14.6 L 45.5 14.6 C 45.5 14.6 45.48 10.34 45.5 10.3 C 45.5 10 45.4 9.7 45.3 9.5 C 45.1 9.4 44.9 9.3 44.7 9.3 C 44.4 9.3 44.1 9.3 43.8 9.4 C 43.5 9.5 43.2 9.7 42.9 9.9 C 42.9 9.9 42.9 14.6 42.9 14.6 L 42 14.6 L 42 8.6 Z M 49.9 14.7 C 49.1 14.7 48.5 14.4 48.1 13.9 C 47.7 13.4 47.5 12.6 47.5 11.6 C 47.5 10.6 47.7 9.8 48.1 9.3 C 48.5 8.8 49.1 8.5 49.9 8.5 C 50.7 8.5 51.3 8.8 51.7 9.3 C 52.1 9.8 52.4 10.6 52.4 11.6 C 52.4 12.6 52.1 13.4 51.7 13.9 C 51.3 14.4 50.7 14.7 49.9 14.7 Z M 49.9 13.9 C 50.5 13.9 50.9 13.8 51.1 13.4 C 51.3 13 51.5 12.4 51.5 11.6 C 51.5 10.8 51.3 10.2 51.1 9.8 C 50.8 9.4 50.5 9.2 49.9 9.2 C 49.4 9.2 49 9.4 48.8 9.8 C 48.5 10.2 48.4 10.8 48.4 11.6 C 48.4 12.4 48.5 13 48.8 13.4 C 49 13.8 49.4 13.9 49.9 13.9 Z M 52.9 8.7 L 52.9 8.6 L 53.8 8.6 L 55.2 13.1 L 55.4 13.8 L 55.5 13.8 L 55.7 13.1 L 57.1 8.6 L 58 8.6 L 58 8.7 L 56 14.6 L 54.9 14.6 L 52.9 8.7 Z M 59.9 14.6 C 59.4 14.6 59 14.5 58.8 14.2 C 58.5 13.9 58.4 13.5 58.4 13.1 C 58.4 12.5 58.6 12.1 58.9 11.8 C 59.3 11.5 59.8 11.3 60.5 11.2 C 60.53 11.24 61.7 11.2 61.7 11.2 C 61.7 11.2 61.71 10.59 61.7 10.6 C 61.7 10.1 61.6 9.7 61.4 9.5 C 61.2 9.3 60.9 9.2 60.4 9.2 C 60.2 9.2 60 9.3 59.7 9.3 C 59.4 9.3 59.1 9.4 58.9 9.4 C 58.9 9.4 58.8 8.7 58.8 8.7 C 59.5 8.6 60 8.5 60.6 8.5 C 61.3 8.5 61.8 8.7 62.1 9 C 62.4 9.3 62.6 9.8 62.6 10.4 C 62.57 10.43 62.6 14.6 62.6 14.6 L 61.9 14.6 L 61.8 13.8 C 61.8 13.8 61.7 13.84 61.7 13.8 C 61.4 14.1 61.1 14.2 60.8 14.4 C 60.5 14.5 60.2 14.6 59.9 14.6 Z M 59.3 13 C 59.3 13.6 59.6 13.9 60.2 13.9 C 60.3 13.9 60.4 13.9 60.6 13.9 C 60.7 13.8 60.8 13.8 61 13.7 C 61.1 13.6 61.2 13.6 61.4 13.5 C 61.5 13.4 61.6 13.3 61.7 13.3 C 61.71 13.27 61.7 11.7 61.7 11.7 C 61.7 11.7 60.73 11.83 60.7 11.8 C 60.2 11.9 59.8 12 59.6 12.2 C 59.4 12.3 59.3 12.6 59.3 13 C 59.3 13 59.3 13 59.3 13 Z M 64 8.6 L 64.7 8.6 L 64.8 9.3 C 64.8 9.3 64.85 9.28 64.9 9.3 C 65.3 9 65.7 8.8 66 8.7 C 66.3 8.6 66.6 8.5 67 8.5 C 67.4 8.5 67.8 8.6 68 8.9 C 68.2 9.1 68.3 9.5 68.3 10.1 C 68.31 10.09 68.3 14.6 68.3 14.6 L 67.4 14.6 C 67.4 14.6 67.45 10.34 67.4 10.3 C 67.4 10 67.4 9.7 67.3 9.5 C 67.1 9.4 66.9 9.3 66.6 9.3 C 66.4 9.3 66.1 9.3 65.8 9.4 C 65.5 9.5 65.2 9.7 64.9 9.9 C 64.87 9.9 64.9 14.6 64.9 14.6 L 64 14.6 L 64 8.6 Z M 71.5 7.8 L 72.3 5.7 L 73.2 5.7 L 72.1 7.8 L 71.5 7.8 Z M 71.9 14.7 C 71.1 14.7 70.5 14.4 70.1 13.9 C 69.7 13.4 69.5 12.7 69.5 11.7 C 69.5 10.7 69.7 9.9 70.1 9.3 C 70.5 8.8 71.1 8.5 71.9 8.5 C 72.5 8.5 73 8.7 73.4 9.2 C 73.7 9.6 73.9 10.3 73.9 11.1 C 73.9 11.3 73.9 11.5 73.9 11.6 C 73.8 11.7 73.8 11.8 73.8 11.9 C 73.8 11.9 70.3 11.9 70.3 11.9 C 70.4 12.6 70.5 13.1 70.8 13.5 C 71.1 13.8 71.5 13.9 72 13.9 C 72.5 13.9 73 13.8 73.6 13.6 C 73.6 13.6 73.6 14.3 73.6 14.3 C 73.4 14.4 73.1 14.5 72.8 14.6 C 72.5 14.6 72.2 14.7 71.9 14.7 Z M 71.9 9.2 C 70.9 9.2 70.4 9.9 70.4 11.3 C 70.4 11.3 73.1 11.3 73.1 11.3 C 73.1 10.5 72.9 10 72.8 9.7 C 72.6 9.4 72.3 9.2 71.9 9.2 Z M 77.3 5.7 L 78.2 5.7 L 78.2 11.2 L 79 11.2 L 80.8 8.6 L 81.7 8.6 L 79.8 11.4 L 79.6 11.5 L 79.6 11.5 L 79.8 11.6 L 81.9 14.6 L 80.9 14.6 L 79 11.8 L 78.2 11.8 L 78.2 14.6 L 77.3 14.6 L 77.3 5.7 Z M 82.6 8.6 L 83.3 8.6 L 83.4 9.4 C 83.4 9.4 83.46 9.37 83.5 9.4 C 83.7 9.2 84 9 84.3 8.9 C 84.6 8.7 84.9 8.6 85.3 8.5 C 85.26 8.52 85.5 8.5 85.5 8.5 L 85.5 9.4 C 85.5 9.4 85.16 9.4 85.2 9.4 C 84.8 9.5 84.5 9.5 84.2 9.6 C 83.9 9.7 83.7 9.9 83.5 10 C 83.48 10.02 83.5 14.6 83.5 14.6 L 82.6 14.6 L 82.6 8.6 Z M 85.8 8.7 L 85.8 8.6 L 86.7 8.6 L 88.1 13.1 L 88.3 13.8 L 88.4 13.8 L 88.6 13.1 L 90 8.6 L 90.9 8.6 L 90.9 8.7 L 88.9 14.6 L 87.8 14.6 L 85.8 8.7 Z M 92.8 14.6 C 92.3 14.6 92 14.5 91.7 14.2 C 91.4 13.9 91.3 13.5 91.3 13.1 C 91.3 12.5 91.5 12.1 91.8 11.8 C 92.2 11.5 92.7 11.3 93.4 11.2 C 93.44 11.24 94.6 11.2 94.6 11.2 C 94.6 11.2 94.62 10.59 94.6 10.6 C 94.6 10.1 94.5 9.7 94.3 9.5 C 94.1 9.3 93.8 9.2 93.3 9.2 C 93.1 9.2 92.9 9.3 92.6 9.3 C 92.3 9.3 92 9.4 91.8 9.4 C 91.8 9.4 91.7 8.7 91.7 8.7 C 92.4 8.6 92.9 8.5 93.5 8.5 C 94.2 8.5 94.7 8.7 95 9 C 95.3 9.3 95.5 9.8 95.5 10.4 C 95.48 10.43 95.5 14.6 95.5 14.6 L 94.8 14.6 L 94.7 13.8 C 94.7 13.8 94.61 13.84 94.6 13.8 C 94.3 14.1 94 14.2 93.7 14.4 C 93.4 14.5 93.1 14.6 92.8 14.6 Z M 92.2 13 C 92.2 13.6 92.5 13.9 93.1 13.9 C 93.2 13.9 93.3 13.9 93.5 13.9 C 93.6 13.8 93.7 13.8 93.9 13.7 C 94 13.6 94.1 13.6 94.3 13.5 C 94.4 13.4 94.5 13.3 94.6 13.3 C 94.62 13.27 94.6 11.7 94.6 11.7 C 94.6 11.7 93.64 11.83 93.6 11.8 C 93.1 11.9 92.7 12 92.5 12.2 C 92.3 12.3 92.2 12.6 92.2 13 C 92.2 13 92.2 13 92.2 13 Z M 93.3 7.8 L 94.1 5.7 L 95 5.7 L 93.9 7.8 L 93.3 7.8 Z M 99.2 14.7 C 98.3 14.7 97.7 14.4 97.3 13.9 C 96.8 13.4 96.6 12.6 96.6 11.6 C 96.6 9.5 97.5 8.5 99.2 8.5 C 99.5 8.5 99.9 8.6 100.3 8.7 C 100.3 8.7 100.3 9.4 100.3 9.4 C 100.1 9.3 99.9 9.3 99.8 9.3 C 99.6 9.3 99.4 9.3 99.3 9.3 C 98.7 9.3 98.2 9.5 97.9 9.8 C 97.7 10.2 97.5 10.8 97.5 11.6 C 97.5 12.4 97.7 13 97.9 13.4 C 98.2 13.7 98.6 13.9 99.2 13.9 C 99.4 13.9 99.6 13.9 99.7 13.9 C 99.9 13.9 100.1 13.8 100.3 13.8 C 100.3 13.8 100.3 14.5 100.3 14.5 C 100.1 14.6 100 14.6 99.8 14.6 C 99.6 14.7 99.4 14.7 99.2 14.7 Z M 102.5 14.6 C 102.1 14.6 101.7 14.5 101.5 14.2 C 101.2 13.9 101.1 13.5 101.1 13.1 C 101.1 12.5 101.2 12.1 101.6 11.8 C 101.9 11.5 102.5 11.3 103.2 11.2 C 103.21 11.24 104.4 11.2 104.4 11.2 C 104.4 11.2 104.39 10.59 104.4 10.6 C 104.4 10.1 104.3 9.7 104.1 9.5 C 103.9 9.3 103.6 9.2 103.1 9.2 C 102.9 9.2 102.6 9.3 102.4 9.3 C 102.1 9.3 101.8 9.4 101.6 9.4 C 101.6 9.4 101.5 8.7 101.5 8.7 C 102.1 8.6 102.7 8.5 103.2 8.5 C 103.9 8.5 104.4 8.7 104.8 9 C 105.1 9.3 105.2 9.8 105.2 10.4 C 105.24 10.43 105.2 14.6 105.2 14.6 L 104.5 14.6 L 104.4 13.8 C 104.4 13.8 104.37 13.84 104.4 13.8 C 104.1 14.1 103.8 14.2 103.5 14.4 C 103.2 14.5 102.9 14.6 102.5 14.6 Z M 102 13 C 102 13.6 102.2 13.9 102.8 13.9 C 103 13.9 103.1 13.9 103.2 13.9 C 103.4 13.8 103.5 13.8 103.6 13.7 C 103.8 13.6 103.9 13.6 104 13.5 C 104.2 13.4 104.3 13.3 104.4 13.3 C 104.39 13.27 104.4 11.7 104.4 11.7 C 104.4 11.7 103.41 11.83 103.4 11.8 C 102.9 11.9 102.5 12 102.3 12.2 C 102.1 12.3 102 12.6 102 13 C 102 13 102 13 102 13 Z M 106.7 8.6 L 107.4 8.6 L 107.5 9.3 C 107.5 9.3 107.52 9.28 107.5 9.3 C 108 9 108.3 8.8 108.7 8.7 C 109 8.6 109.3 8.5 109.6 8.5 C 110.1 8.5 110.4 8.6 110.7 8.9 C 110.9 9.1 111 9.5 111 10.1 C 110.98 10.09 111 14.6 111 14.6 L 110.1 14.6 C 110.1 14.6 110.12 10.34 110.1 10.3 C 110.1 10 110.1 9.7 109.9 9.5 C 109.8 9.4 109.6 9.3 109.3 9.3 C 109.1 9.3 108.8 9.3 108.5 9.4 C 108.2 9.5 107.9 9.7 107.5 9.9 C 107.55 9.9 107.5 14.6 107.5 14.6 L 106.7 14.6 L 106.7 8.6 Z M 113.4 6.8 C 113.4 7.1 113.2 7.3 112.9 7.3 C 112.5 7.3 112.3 7.1 112.3 6.8 C 112.3 6.4 112.5 6.2 112.9 6.2 C 113.2 6.2 113.4 6.4 113.4 6.8 C 113.4 6.8 113.4 6.8 113.4 6.8 Z M 112.4 8.6 L 113.3 8.6 L 113.3 14.6 L 112.4 14.6 L 112.4 8.6 Z M 117 14.7 C 116.2 14.7 115.6 14.4 115.1 13.9 C 114.7 13.4 114.5 12.7 114.5 11.7 C 114.5 10.7 114.7 9.9 115.1 9.3 C 115.5 8.8 116.1 8.5 116.9 8.5 C 117.6 8.5 118.1 8.7 118.4 9.2 C 118.7 9.6 118.9 10.3 118.9 11.1 C 118.9 11.3 118.9 11.5 118.9 11.6 C 118.9 11.7 118.9 11.8 118.8 11.9 C 118.8 11.9 115.4 11.9 115.4 11.9 C 115.4 12.6 115.6 13.1 115.8 13.5 C 116.1 13.8 116.5 13.9 117 13.9 C 117.5 13.9 118 13.8 118.6 13.6 C 118.6 13.6 118.7 14.3 118.7 14.3 C 118.4 14.4 118.2 14.5 117.9 14.6 C 117.6 14.6 117.3 14.7 117 14.7 Z M 116.9 9.2 C 116 9.2 115.5 9.9 115.4 11.3 C 115.4 11.3 118.1 11.3 118.1 11.3 C 118.1 10.5 118 10 117.8 9.7 C 117.6 9.4 117.3 9.2 116.9 9.2 Z " stroke="none" fill="#ee3078"/>  </g>  <g id="Group78604">    <path d="M 17.7 8.1 L 17.7 14.6 L 11.3 14.6 L 11.3 8.1 L 17.7 8.1 Z " stroke="none" fill="#ee3078"/>    <path d="M 25.8 11.3 L 3.2 11.3 " style="stroke-width:1.20868175497219pt; stroke:#ee3078;" fill="none"/>  </g>  <g id="Group78608">    <path d="M 192.3 11.3 C 192.3 9.6 193.8 8.1 195.6 8.1 C 197.3 8.1 198.8 9.6 198.8 11.3 C 198.8 13.1 197.3 14.6 195.6 14.6 C 193.8 14.6 192.3 13.1 192.3 11.3 Z " stroke="none" fill="#68adca"/>    <path d="M 206.8 11.3 L 184.3 11.3 " style="stroke-width:1.20868175497219pt; stroke:#68adca;" fill="none"/>  </g>  <g id="Group78612">    <path d="M 379.8 14.6 L 373.4 14.6 L 376.6 8.1 L 379.8 14.6 Z " stroke="none" fill="#bbbdc0"/>    <path d="M 387.9 11.3 L 365.3 11.3 " style="stroke-width:0.80578783664813pt; stroke:#bbbdc0;" fill="none"/>  </g></svg>