<?xml version="1.0" standalone="no"?><!DOCTYPE svg PUBLIC "-//W3C//DTD SVG 1.1//EN" "http://www.w3.org/Graphics/SVG/1.1/DTD/svg11.dtd"><svg xmlns="http://www.w3.org/2000/svg" version="1.1" width="93px" height="16.8px" viewBox="0 -2 93 16.8" style="top:-2px">  <desc>Tissue Factor (TF)</desc>  <defs/>  <g id="Polygon76584">    <path d="M 5.5 1.2 L 2.7 1.2 L 2.7 0.5 L 9 0.5 L 9 1.2 L 6.2 1.2 L 6.2 8.2 L 5.5 8.2 L 5.5 1.2 Z M 9.9 0.5 L 10.7 0.5 L 10.7 1.5 L 9.9 1.5 L 9.9 0.5 Z M 10 2.7 L 10.7 2.7 L 10.7 8.2 L 10 8.2 L 10 2.7 Z M 12.5 7 C 12.5 7 13.09 7.71 14.1 7.7 C 14.7 7.7 15.2 7.4 15.2 6.8 C 15.2 5.6 12.3 5.9 12.3 4.1 C 12.3 3.1 13.1 2.6 14.1 2.6 C 15.31 2.59 15.9 3.2 15.9 3.2 L 15.5 3.8 C 15.5 3.8 15.04 3.26 14.1 3.3 C 13.6 3.3 13 3.5 13 4.1 C 13 5.3 16 5 16 6.8 C 16 7.7 15.2 8.4 14.1 8.4 C 12.77 8.38 12.1 7.6 12.1 7.6 L 12.5 7 Z M 17.3 7 C 17.3 7 17.96 7.71 19 7.7 C 19.6 7.7 20.1 7.4 20.1 6.8 C 20.1 5.6 17.1 5.9 17.1 4.1 C 17.1 3.1 18 2.6 19 2.6 C 20.19 2.59 20.7 3.2 20.7 3.2 L 20.4 3.8 C 20.4 3.8 19.91 3.26 19 3.3 C 18.4 3.3 17.9 3.5 17.9 4.1 C 17.9 5.3 20.9 5 20.9 6.8 C 20.9 7.7 20.1 8.4 19 8.4 C 17.64 8.38 16.9 7.6 16.9 7.6 L 17.3 7 Z M 22.2 2.7 L 22.9 2.7 C 22.9 2.7 22.93 6.04 22.9 6 C 22.9 6.9 23.1 7.7 24.1 7.7 C 25.4 7.7 26.2 6.6 26.2 5.4 C 26.18 5.37 26.2 2.7 26.2 2.7 L 26.9 2.7 L 26.9 8.2 L 26.2 8.2 C 26.2 8.2 26.2 7.42 26.2 7.4 C 26.2 7.2 26.2 7 26.2 7 C 26.2 7 26.2 7 26.2 7 C 26 7.5 25.3 8.4 24 8.4 C 22.7 8.4 22.2 7.7 22.2 6.2 C 22.19 6.24 22.2 2.7 22.2 2.7 Z M 31.1 2.6 C 32.6 2.6 33.4 3.8 33.4 5.1 C 33.38 5.27 33.4 5.5 33.4 5.5 C 33.4 5.5 29.12 5.52 29.1 5.5 C 29.1 6.9 30.1 7.7 31.3 7.7 C 32.27 7.71 32.9 7 32.9 7 L 33.3 7.6 C 33.3 7.6 32.48 8.38 31.2 8.4 C 29.6 8.4 28.3 7.2 28.3 5.5 C 28.3 3.7 29.6 2.6 31.1 2.6 Z M 32.6 4.9 C 32.6 3.8 31.9 3.2 31.1 3.2 C 30.1 3.2 29.3 3.8 29.1 4.9 C 29.1 4.9 32.6 4.9 32.6 4.9 Z M 38 0.5 L 42.1 0.5 L 42.1 1.2 L 38.8 1.2 L 38.8 4.1 L 41.6 4.1 L 41.6 4.8 L 38.8 4.8 L 38.8 8.2 L 38 8.2 L 38 0.5 Z M 46.2 4.8 C 46.2 4.83 46.5 4.8 46.5 4.8 C 46.5 4.8 46.51 4.69 46.5 4.7 C 46.5 3.6 45.9 3.3 45.1 3.3 C 44.22 3.26 43.6 3.8 43.6 3.8 L 43.2 3.2 C 43.2 3.2 43.94 2.59 45.2 2.6 C 46.5 2.6 47.3 3.3 47.3 4.7 C 47.25 4.71 47.3 8.2 47.3 8.2 L 46.5 8.2 C 46.5 8.2 46.54 7.64 46.5 7.6 C 46.5 7.4 46.6 7.2 46.6 7.2 C 46.56 7.18 46.5 7.2 46.5 7.2 C 46.5 7.2 46.08 8.38 44.7 8.4 C 43.8 8.4 42.8 7.8 42.8 6.7 C 42.8 4.9 45.2 4.8 46.2 4.8 Z M 44.8 7.7 C 45.9 7.7 46.5 6.6 46.5 5.7 C 46.51 5.69 46.5 5.4 46.5 5.4 C 46.5 5.4 46.19 5.44 46.2 5.4 C 45.3 5.4 43.6 5.5 43.6 6.7 C 43.6 7.2 44 7.7 44.8 7.7 Z M 51.5 2.6 C 52.85 2.59 53.5 3.4 53.5 3.4 L 53.1 3.9 C 53.1 3.9 52.52 3.27 51.5 3.3 C 50.3 3.3 49.4 4.2 49.4 5.5 C 49.4 6.8 50.3 7.7 51.5 7.7 C 52.67 7.71 53.3 6.9 53.3 6.9 L 53.7 7.5 C 53.7 7.5 52.91 8.38 51.5 8.4 C 49.9 8.4 48.6 7.2 48.6 5.5 C 48.6 3.8 49.9 2.6 51.5 2.6 Z M 55.2 3.4 L 54.5 3.4 L 54.5 2.8 L 55.2 2.8 L 55.2 1.2 L 56 1.2 L 56 2.8 L 57.4 2.8 L 57.4 3.4 L 56 3.4 C 56 3.4 55.98 6.16 56 6.2 C 56 7.5 56.8 7.6 57.2 7.6 C 57.37 7.62 57.5 7.6 57.5 7.6 L 57.5 8.3 C 57.5 8.3 57.35 8.29 57.2 8.3 C 56.5 8.3 55.2 8.1 55.2 6.2 C 55.23 6.24 55.2 3.4 55.2 3.4 Z M 61.2 2.6 C 62.8 2.6 64.2 3.8 64.2 5.5 C 64.2 7.1 62.8 8.4 61.2 8.4 C 59.6 8.4 58.3 7.1 58.3 5.5 C 58.3 3.8 59.6 2.6 61.2 2.6 Z M 61.2 7.7 C 62.4 7.7 63.4 6.7 63.4 5.5 C 63.4 4.2 62.4 3.3 61.2 3.3 C 60 3.3 59.1 4.2 59.1 5.5 C 59.1 6.7 60 7.7 61.2 7.7 Z M 65.5 2.7 L 66.3 2.7 C 66.3 2.7 66.28 3.7 66.3 3.7 C 66.3 3.9 66.3 4.1 66.3 4.1 C 66.3 4.1 66.3 4.1 66.3 4.1 C 66.5 3.3 67.2 2.7 68 2.7 C 68.2 2.7 68.3 2.7 68.3 2.7 C 68.33 2.7 68.3 3.4 68.3 3.4 C 68.3 3.4 68.2 3.41 68.1 3.4 C 67.3 3.4 66.7 4 66.4 4.8 C 66.3 5.2 66.3 5.6 66.3 5.9 C 66.3 5.92 66.3 8.2 66.3 8.2 L 65.5 8.2 L 65.5 2.7 Z M 72.4 4.5 C 72.4 3 72.9 1.5 73.6 0.2 C 73.6 0.2 74.3 0.2 74.3 0.2 C 73.5 1.6 73.1 3 73.1 4.5 C 73.1 6.2 73.5 7.8 74.3 9.3 C 74.3 9.3 73.6 9.3 73.6 9.3 C 72.9 8 72.4 6.3 72.4 4.5 Z M 77.7 1.2 L 75 1.2 L 75 0.5 L 81.3 0.5 L 81.3 1.2 L 78.5 1.2 L 78.5 8.2 L 77.7 8.2 L 77.7 1.2 Z M 82.5 0.5 L 86.5 0.5 L 86.5 1.2 L 83.2 1.2 L 83.2 4.1 L 86.1 4.1 L 86.1 4.8 L 83.2 4.8 L 83.2 8.2 L 82.5 8.2 L 82.5 0.5 Z M 87.4 9.3 C 88.2 7.8 88.6 6.2 88.6 4.5 C 88.6 3 88.2 1.6 87.4 0.2 C 87.4 0.2 88.1 0.2 88.1 0.2 C 88.9 1.5 89.3 3 89.3 4.5 C 89.3 6.3 88.8 8 88.1 9.3 C 88.1 9.3 87.4 9.3 87.4 9.3 Z " stroke="none" fill="#000"/>  </g></svg>