<?xml version="1.0" standalone="no"?><!DOCTYPE svg PUBLIC "-//W3C//DTD SVG 1.1//EN" "http://www.w3.org/Graphics/SVG/1.1/DTD/svg11.dtd"><svg xmlns="http://www.w3.org/2000/svg" version="1.1" width="18.1px" height="16.8px" viewBox="0 -2 18.1 16.8" style="top:-2px">  <desc>F XI</desc>  <defs/>  <g id="Polygon76633">    <path d="M 1.1 0.5 L 5.2 0.5 L 5.2 1.2 L 1.9 1.2 L 1.9 4.1 L 4.7 4.1 L 4.7 4.8 L 1.9 4.8 L 1.9 8.2 L 1.1 8.2 L 1.1 0.5 Z M 11.4 4.2 L 9.1 0.5 L 10 0.5 C 10 0.5 11.36 2.81 11.4 2.8 C 11.59 3.2 11.9 3.7 11.9 3.7 L 11.9 3.7 C 11.9 3.7 12.11 3.2 12.4 2.8 C 12.35 2.81 13.7 0.5 13.7 0.5 L 14.6 0.5 L 12.4 4.2 L 14.8 8.2 L 13.9 8.2 C 13.9 8.2 12.34 5.58 12.3 5.6 C 12.1 5.18 11.9 4.7 11.9 4.7 L 11.8 4.7 C 11.8 4.7 11.6 5.18 11.4 5.6 C 11.36 5.59 9.8 8.2 9.8 8.2 L 8.9 8.2 L 11.4 4.2 Z M 16.2 0.5 L 17 0.5 L 17 8.2 L 16.2 8.2 L 16.2 0.5 Z " stroke="none" fill="#000"/>  </g></svg>