<?xml version="1.0" standalone="no"?><!DOCTYPE svg PUBLIC "-//W3C//DTD SVG 1.1//EN" "http://www.w3.org/Graphics/SVG/1.1/DTD/svg11.dtd"><svg xmlns="http://www.w3.org/2000/svg" version="1.1" width="121.2px" height="29px" viewBox="0 0 121.2 29">  <desc>N rast hmotnosti</desc>  <defs/>  <g id="Polygon72423">    <path d="M 12.2 16.2 C 12.2 16.2 12.72 16.22 12.7 16.2 C 12.9 16.2 13 16.1 13 16 C 12.98 15.96 13 8.8 13 8.8 L 14.1 8.8 C 14.1 8.8 17.84 14.15 17.8 14.1 C 18.15 14.6 18.5 15.3 18.5 15.3 L 18.6 15.3 C 18.6 15.3 18.49 14.63 18.5 14.1 C 18.5 14.1 18.5 9.6 18.5 9.6 C 18.5 9 18.7 8.8 19.3 8.8 C 19.27 8.78 20.5 8.8 20.5 8.8 L 20.5 9.8 C 20.5 9.8 19.95 9.82 20 9.8 C 19.8 9.8 19.7 9.9 19.7 10.1 C 19.69 10.08 19.7 17.3 19.7 17.3 L 18.6 17.3 C 18.6 17.3 14.83 11.89 14.8 11.9 C 14.52 11.44 14.1 10.7 14.1 10.7 L 14.1 10.7 C 14.1 10.7 14.18 11.42 14.2 11.9 C 14.2 11.9 14.2 16.5 14.2 16.5 C 14.2 17 14 17.3 13.4 17.3 C 13.41 17.26 12.2 17.3 12.2 17.3 L 12.2 16.2 Z M 24.9 13.5 C 24.91 13.48 25.2 13.5 25.2 13.5 C 25.2 13.5 25.17 13.42 25.2 13.4 C 25.2 12.3 24.8 12 23.8 12 C 23.5 12 22.8 12 22.8 12.4 C 22.83 12.43 22.8 12.8 22.8 12.8 L 21.7 12.8 C 21.7 12.8 21.74 12.18 21.7 12.2 C 21.7 11.2 23.3 11 23.8 11 C 25.8 11 26.3 12.1 26.3 13.4 C 26.3 13.4 26.3 16 26.3 16 C 26.3 16.2 26.4 16.3 26.6 16.3 C 26.6 16.26 27.1 16.3 27.1 16.3 L 27.1 17.3 C 27.1 17.3 26 17.26 26 17.3 C 25.5 17.3 25.2 17 25.2 16.6 C 25.2 16.4 25.3 16.2 25.3 16.2 C 25.27 16.2 25.2 16.2 25.2 16.2 C 25.2 16.2 24.77 17.4 23.3 17.4 C 22.3 17.4 21.2 16.8 21.2 15.6 C 21.2 13.6 23.9 13.5 24.9 13.5 Z M 23.6 16.5 C 24.5 16.5 25.2 15.4 25.2 14.5 C 25.19 14.53 25.2 14.3 25.2 14.3 C 25.2 14.3 24.89 14.33 24.9 14.3 C 24 14.3 22.4 14.4 22.4 15.5 C 22.4 16 22.8 16.5 23.6 16.5 Z M 24.4 8.8 L 25.6 8.8 L 24.4 10.3 L 23.5 10.3 L 24.4 8.8 Z M 28.4 12.4 C 28.4 12.3 28.3 12.2 28.1 12.2 C 28.09 12.18 27.6 12.2 27.6 12.2 L 27.6 11.2 C 27.6 11.2 28.7 11.18 28.7 11.2 C 29.2 11.2 29.5 11.4 29.5 11.9 C 29.5 11.9 29.5 12.3 29.5 12.3 C 29.48 12.52 29.5 12.7 29.5 12.7 C 29.5 12.7 29.48 12.7 29.5 12.7 C 29.8 11.8 30.5 11.1 31.4 11.1 C 31.56 11.11 31.7 11.1 31.7 11.1 L 31.7 12.3 C 31.7 12.3 31.56 12.25 31.4 12.3 C 30.6 12.3 29.9 12.8 29.7 13.7 C 29.6 14 29.5 14.4 29.5 14.8 C 29.52 14.77 29.5 17.3 29.5 17.3 L 28.4 17.3 C 28.4 17.3 28.35 12.44 28.4 12.4 Z M 35.7 13.5 C 35.71 13.48 36 13.5 36 13.5 C 36 13.5 35.97 13.42 36 13.4 C 36 12.3 35.6 12 34.6 12 C 34.3 12 33.6 12 33.6 12.4 C 33.63 12.43 33.6 12.8 33.6 12.8 L 32.5 12.8 C 32.5 12.8 32.54 12.18 32.5 12.2 C 32.5 11.2 34.1 11 34.6 11 C 36.6 11 37.1 12.1 37.1 13.4 C 37.1 13.4 37.1 16 37.1 16 C 37.1 16.2 37.2 16.3 37.4 16.3 C 37.4 16.26 37.9 16.3 37.9 16.3 L 37.9 17.3 C 37.9 17.3 36.8 17.26 36.8 17.3 C 36.3 17.3 36 17 36 16.6 C 36 16.4 36.1 16.2 36.1 16.2 C 36.07 16.2 36 16.2 36 16.2 C 36 16.2 35.57 17.4 34.1 17.4 C 33.1 17.4 32 16.8 32 15.6 C 32 13.6 34.7 13.5 35.7 13.5 Z M 34.4 16.5 C 35.3 16.5 36 15.4 36 14.5 C 35.99 14.53 36 14.3 36 14.3 C 36 14.3 35.69 14.33 35.7 14.3 C 34.8 14.3 33.2 14.4 33.2 15.5 C 33.2 16 33.6 16.5 34.4 16.5 Z M 39.1 15.6 C 39.1 15.6 39.78 16.45 40.9 16.5 C 41.5 16.5 41.9 16.2 41.9 15.7 C 41.9 14.6 38.6 14.7 38.6 12.7 C 38.6 11.6 39.7 11 40.9 11 C 41.6 11 42.9 11.3 42.9 12.2 C 42.88 12.22 42.9 12.8 42.9 12.8 L 41.8 12.8 C 41.8 12.8 41.84 12.49 41.8 12.5 C 41.8 12.1 41.3 12 40.9 12 C 40.2 12 39.8 12.2 39.8 12.7 C 39.8 13.8 43.1 13.6 43.1 15.6 C 43.1 16.7 42.2 17.4 40.9 17.4 C 39.26 17.4 38.5 16.3 38.5 16.3 L 39.1 15.6 Z M 44.6 12.1 L 43.9 12.1 L 43.9 11.2 L 44.7 11.2 L 44.7 9.5 L 45.8 9.5 L 45.8 11.2 L 47.3 11.2 L 47.3 12.1 L 45.8 12.1 C 45.8 12.1 45.81 14.9 45.8 14.9 C 45.8 16.1 46.7 16.3 47.1 16.3 C 47.26 16.27 47.4 16.2 47.4 16.2 L 47.4 17.3 C 47.4 17.3 47.22 17.3 47 17.3 C 46.2 17.3 44.6 17.1 44.6 15 C 44.65 15.04 44.6 12.1 44.6 12.1 Z M 52 10 C 52 9.9 51.9 9.8 51.7 9.8 C 51.74 9.78 51.2 9.8 51.2 9.8 L 51.2 8.8 C 51.2 8.8 52.4 8.78 52.4 8.8 C 52.9 8.8 53.2 9 53.2 9.5 C 53.2 9.5 53.2 11.9 53.2 11.9 C 53.17 12.18 53.1 12.4 53.1 12.4 C 53.1 12.4 53.17 12.4 53.2 12.4 C 53.4 11.8 54.2 11 55.4 11 C 56.9 11 57.5 11.8 57.5 13.4 C 57.5 13.4 57.5 16 57.5 16 C 57.5 16.2 57.6 16.3 57.8 16.3 C 57.76 16.26 58.3 16.3 58.3 16.3 L 58.3 17.3 C 58.3 17.3 57.12 17.26 57.1 17.3 C 56.6 17.3 56.3 17 56.3 16.5 C 56.3 16.5 56.3 13.6 56.3 13.6 C 56.3 12.8 56.2 12.1 55.2 12.1 C 54.3 12.1 53.5 12.7 53.3 13.6 C 53.2 13.8 53.2 14.1 53.2 14.4 C 53.17 14.41 53.2 17.3 53.2 17.3 L 52 17.3 C 52 17.3 52.01 10.04 52 10 Z M 59.5 12.4 C 59.5 12.3 59.4 12.2 59.3 12.2 C 59.25 12.18 58.8 12.2 58.8 12.2 L 58.8 11.2 C 58.8 11.2 59.88 11.18 59.9 11.2 C 60.4 11.2 60.6 11.4 60.6 11.9 C 60.6 11.9 60.6 12.1 60.6 12.1 C 60.64 12.28 60.6 12.4 60.6 12.4 C 60.6 12.4 60.66 12.43 60.7 12.4 C 60.9 11.7 61.8 11 62.7 11 C 63.8 11 64.4 11.5 64.6 12.4 C 64.6 12.4 64.6 12.4 64.6 12.4 C 64.9 11.7 65.8 11 66.7 11 C 68.1 11 68.7 11.8 68.7 13.4 C 68.7 13.4 68.7 16 68.7 16 C 68.7 16.2 68.8 16.3 69 16.3 C 69.01 16.26 69.5 16.3 69.5 16.3 L 69.5 17.3 C 69.5 17.3 68.35 17.26 68.3 17.3 C 67.8 17.3 67.6 17 67.6 16.5 C 67.6 16.5 67.6 13.6 67.6 13.6 C 67.6 12.8 67.4 12.1 66.5 12.1 C 65.7 12.1 65 12.8 64.8 13.7 C 64.7 13.9 64.7 14.2 64.7 14.5 C 64.71 14.48 64.7 17.3 64.7 17.3 L 63.5 17.3 C 63.5 17.3 63.55 13.62 63.5 13.6 C 63.5 12.8 63.4 12.1 62.5 12.1 C 61.6 12.1 61 12.8 60.8 13.7 C 60.7 13.9 60.7 14.2 60.7 14.5 C 60.68 14.48 60.7 17.3 60.7 17.3 L 59.5 17.3 C 59.5 17.3 59.52 12.44 59.5 12.4 Z M 73.4 11 C 75.2 11 76.7 12.4 76.7 14.2 C 76.7 16.1 75.2 17.4 73.4 17.4 C 71.6 17.4 70.2 16.1 70.2 14.2 C 70.2 12.4 71.6 11 73.4 11 Z M 73.4 16.4 C 74.6 16.4 75.5 15.5 75.5 14.2 C 75.5 12.9 74.6 12 73.4 12 C 72.3 12 71.4 12.9 71.4 14.2 C 71.4 15.5 72.3 16.4 73.4 16.4 Z M 78.2 12.1 L 77.4 12.1 L 77.4 11.2 L 78.2 11.2 L 78.2 9.5 L 79.4 9.5 L 79.4 11.2 L 80.8 11.2 L 80.8 12.1 L 79.4 12.1 C 79.4 12.1 79.38 14.9 79.4 14.9 C 79.4 16.1 80.2 16.3 80.7 16.3 C 80.83 16.27 80.9 16.2 80.9 16.2 L 80.9 17.3 C 80.9 17.3 80.78 17.3 80.5 17.3 C 79.8 17.3 78.2 17.1 78.2 15 C 78.21 15.04 78.2 12.1 78.2 12.1 Z M 82.4 12.4 C 82.4 12.3 82.3 12.2 82.1 12.2 C 82.12 12.18 81.6 12.2 81.6 12.2 L 81.6 11.2 C 81.6 11.2 82.75 11.18 82.7 11.2 C 83.3 11.2 83.5 11.4 83.5 11.9 C 83.5 11.9 83.5 12.1 83.5 12.1 C 83.52 12.28 83.5 12.4 83.5 12.4 C 83.5 12.4 83.52 12.43 83.5 12.4 C 83.8 11.9 84.5 11 85.8 11 C 87.2 11 87.9 11.8 87.9 13.4 C 87.9 13.4 87.9 16 87.9 16 C 87.9 16.2 88 16.3 88.1 16.3 C 88.15 16.26 88.6 16.3 88.6 16.3 L 88.6 17.3 C 88.6 17.3 87.49 17.26 87.5 17.3 C 86.9 17.3 86.7 17 86.7 16.5 C 86.7 16.5 86.7 13.6 86.7 13.6 C 86.7 12.8 86.6 12.1 85.6 12.1 C 84.6 12.1 83.9 12.7 83.7 13.6 C 83.6 13.8 83.6 14.1 83.6 14.4 C 83.55 14.41 83.6 17.3 83.6 17.3 L 82.4 17.3 C 82.4 17.3 82.39 12.44 82.4 12.4 Z M 92.6 11 C 94.4 11 95.9 12.4 95.9 14.2 C 95.9 16.1 94.4 17.4 92.6 17.4 C 90.8 17.4 89.3 16.1 89.3 14.2 C 89.3 12.4 90.8 11 92.6 11 Z M 92.6 16.4 C 93.7 16.4 94.7 15.5 94.7 14.2 C 94.7 12.9 93.7 12 92.6 12 C 91.4 12 90.5 12.9 90.5 14.2 C 90.5 15.5 91.4 16.4 92.6 16.4 Z M 97.2 15.6 C 97.2 15.6 97.93 16.45 99 16.5 C 99.6 16.5 100.1 16.2 100.1 15.7 C 100.1 14.6 96.8 14.7 96.8 12.7 C 96.8 11.6 97.8 11 99 11 C 99.8 11 101 11.3 101 12.2 C 101.03 12.22 101 12.8 101 12.8 L 100 12.8 C 100 12.8 99.99 12.49 100 12.5 C 100 12.1 99.5 12 99.1 12 C 98.4 12 98 12.2 98 12.7 C 98 13.8 101.3 13.6 101.3 15.6 C 101.3 16.7 100.3 17.4 99 17.4 C 97.41 17.4 96.6 16.3 96.6 16.3 L 97.2 15.6 Z M 102.8 12.1 L 102 12.1 L 102 11.2 L 102.8 11.2 L 102.8 9.5 L 104 9.5 L 104 11.2 L 105.4 11.2 L 105.4 12.1 L 104 12.1 C 104 12.1 103.96 14.9 104 14.9 C 104 16.1 104.8 16.3 105.2 16.3 C 105.41 16.27 105.5 16.2 105.5 16.2 L 105.5 17.3 C 105.5 17.3 105.37 17.3 105.1 17.3 C 104.3 17.3 102.8 17.1 102.8 15 C 102.8 15.04 102.8 12.1 102.8 12.1 Z M 107.1 8.8 L 108.1 8.8 L 108.1 10 L 107.1 10 L 107.1 8.8 Z M 107 12.4 C 107 12.3 106.9 12.2 106.8 12.2 C 106.77 12.18 106.3 12.2 106.3 12.2 L 106.3 11.2 C 106.3 11.2 107.42 11.18 107.4 11.2 C 108 11.2 108.2 11.4 108.2 12 C 108.2 12 108.2 16 108.2 16 C 108.2 16.2 108.3 16.3 108.5 16.3 C 108.45 16.26 108.9 16.3 108.9 16.3 L 108.9 17.3 C 108.9 17.3 107.8 17.26 107.8 17.3 C 107.3 17.3 107 17 107 16.5 C 107 16.5 107 12.4 107 12.4 Z " stroke="none" fill="#000"/>  </g></svg>