<?xml version="1.0" standalone="no"?><!DOCTYPE svg PUBLIC "-//W3C//DTD SVG 1.1//EN" "http://www.w3.org/Graphics/SVG/1.1/DTD/svg11.dtd"><svg xmlns="http://www.w3.org/2000/svg" version="1.1" width="129.3px" height="80.3px" viewBox="0 0 129.3 80.3">  <desc>Termin lny pol as Indik tor d ky biologickej aktivity</desc>  <defs/>  <g id="Polygon69413">    <path d="M 10.2 49.4 C 10.2 49.3 10.2 49.2 10 49.2 C 10.04 49.19 9.7 49.2 9.7 49.2 L 9.7 48.4 C 9.7 48.4 10.53 48.45 10.5 48.4 C 10.9 48.4 11.1 48.6 11.1 49 C 11.1 49 11.1 50.5 11.1 50.5 C 11.11 50.72 11.1 50.9 11.1 50.9 L 11.1 50.9 C 11.1 50.9 11.5 50.14 12.6 50.1 C 13.8 50.1 14.6 51.1 14.6 52.5 C 14.6 54 13.7 54.9 12.5 54.9 C 11.48 54.91 11.1 54.1 11.1 54.1 L 11.1 54.1 C 11.1 54.1 11.07 54.29 11.1 54.5 C 11.07 54.49 11.1 54.8 11.1 54.8 L 10.2 54.8 C 10.2 54.8 10.23 49.39 10.2 49.4 Z M 12.4 54.2 C 13.1 54.2 13.7 53.6 13.7 52.5 C 13.7 51.5 13.2 50.9 12.4 50.9 C 11.7 50.9 11.1 51.4 11.1 52.5 C 11.1 53.4 11.5 54.2 12.4 54.2 Z M 15.7 48.4 L 16.5 48.4 L 16.5 49.4 L 15.7 49.4 L 15.7 48.4 Z M 15.7 51.2 C 15.7 51.1 15.6 51 15.5 51 C 15.52 50.99 15.1 51 15.1 51 L 15.1 50.2 C 15.1 50.2 16 50.25 16 50.2 C 16.4 50.2 16.6 50.4 16.6 50.8 C 16.6 50.8 16.6 53.9 16.6 53.9 C 16.6 54 16.6 54.1 16.8 54.1 C 16.78 54.06 17.1 54.1 17.1 54.1 L 17.1 54.8 C 17.1 54.8 16.29 54.8 16.3 54.8 C 15.9 54.8 15.7 54.6 15.7 54.2 C 15.7 54.2 15.7 51.2 15.7 51.2 Z M 20.2 50.1 C 21.5 50.1 22.6 51.1 22.6 52.5 C 22.6 53.9 21.5 54.9 20.2 54.9 C 18.8 54.9 17.7 53.9 17.7 52.5 C 17.7 51.1 18.8 50.1 20.2 50.1 Z M 20.2 54.2 C 21 54.2 21.7 53.5 21.7 52.5 C 21.7 51.6 21 50.9 20.2 50.9 C 19.3 50.9 18.6 51.6 18.6 52.5 C 18.6 53.5 19.3 54.2 20.2 54.2 Z M 23.6 49.4 C 23.6 49.3 23.5 49.2 23.4 49.2 C 23.4 49.19 23 49.2 23 49.2 L 23 48.4 C 23 48.4 23.89 48.45 23.9 48.4 C 24.3 48.4 24.5 48.6 24.5 49 C 24.5 49 24.5 53.9 24.5 53.9 C 24.5 54 24.5 54.1 24.7 54.1 C 24.67 54.06 25 54.1 25 54.1 L 25 54.8 C 25 54.8 24.17 54.8 24.2 54.8 C 23.8 54.8 23.6 54.6 23.6 54.2 C 23.6 54.2 23.6 49.4 23.6 49.4 Z M 28 50.1 C 29.4 50.1 30.5 51.1 30.5 52.5 C 30.5 53.9 29.4 54.9 28 54.9 C 26.7 54.9 25.6 53.9 25.6 52.5 C 25.6 51.1 26.7 50.1 28 50.1 Z M 28 54.2 C 28.9 54.2 29.6 53.5 29.6 52.5 C 29.6 51.6 28.9 50.9 28 50.9 C 27.2 50.9 26.5 51.6 26.5 52.5 C 26.5 53.5 27.2 54.2 28 54.2 Z M 33.1 50.1 C 34.3 50.1 34.6 50.9 34.6 50.9 C 34.61 50.85 34.6 50.9 34.6 50.9 C 34.6 50.9 34.62 50.78 34.6 50.7 C 34.6 50.4 34.8 50.2 35.1 50.2 C 35.13 50.25 36 50.2 36 50.2 L 36 51 C 36 51 35.61 50.99 35.6 51 C 35.5 51 35.4 51.1 35.4 51.2 C 35.4 51.2 35.4 54.6 35.4 54.6 C 35.4 56.1 34.3 56.7 33.1 56.7 C 32.6 56.7 32 56.5 31.6 56.3 C 31.56 56.31 31.9 55.6 31.9 55.6 C 31.9 55.6 32.42 55.92 33.1 55.9 C 33.9 55.9 34.5 55.6 34.5 54.6 C 34.5 54.6 34.5 54.3 34.5 54.3 C 34.54 54.2 34.6 54.1 34.6 54.1 C 34.6 54.1 34.54 54.06 34.5 54.1 C 34.3 54.5 33.8 54.7 33.2 54.7 C 31.9 54.7 31.1 53.7 31.1 52.4 C 31.1 51.1 31.9 50.1 33.1 50.1 Z M 34.6 52.4 C 34.6 51.2 34 50.9 33.3 50.9 C 32.5 50.9 32 51.5 32 52.4 C 32 53.3 32.5 54 33.4 54 C 34 54 34.6 53.6 34.6 52.4 Z M 37 48.4 L 37.8 48.4 L 37.8 49.4 L 37 49.4 L 37 48.4 Z M 37 51.2 C 37 51.1 36.9 51 36.8 51 C 36.78 50.99 36.4 51 36.4 51 L 36.4 50.2 C 36.4 50.2 37.27 50.25 37.3 50.2 C 37.7 50.2 37.8 50.4 37.8 50.8 C 37.8 50.8 37.8 53.9 37.8 53.9 C 37.8 54 37.9 54.1 38 54.1 C 38.04 54.06 38.4 54.1 38.4 54.1 L 38.4 54.8 C 38.4 54.8 37.56 54.8 37.6 54.8 C 37.2 54.8 37 54.6 37 54.2 C 37 54.2 37 51.2 37 51.2 Z M 41.4 50.1 C 42 50.1 43.1 50.4 43.1 51.1 C 43.05 51.14 43.1 51.6 43.1 51.6 L 42.3 51.6 C 42.3 51.6 42.26 51.35 42.3 51.4 C 42.3 51 41.8 50.9 41.4 50.9 C 40.5 50.9 39.9 51.6 39.9 52.5 C 39.9 53.6 40.6 54.1 41.5 54.1 C 42.32 54.14 42.9 53.5 42.9 53.5 L 43.3 54.1 C 43.3 54.1 42.61 54.91 41.4 54.9 C 40 54.9 39 53.9 39 52.5 C 39 51.2 39.9 50.1 41.4 50.1 Z M 44.1 49.4 C 44.1 49.3 44.1 49.2 43.9 49.2 C 43.95 49.19 43.6 49.2 43.6 49.2 L 43.6 48.4 C 43.6 48.4 44.44 48.45 44.4 48.4 C 44.8 48.4 45 48.6 45 49 C 45.02 48.97 45 51.9 45 51.9 C 45 51.9 45.42 51.92 45.4 51.9 C 45.6 51.9 45.8 51.9 45.9 51.7 C 45.9 51.72 47 50.2 47 50.2 L 48 50.2 C 48 50.2 46.72 51.94 46.7 51.9 C 46.51 52.22 46.4 52.3 46.4 52.3 L 46.4 52.3 C 46.4 52.3 46.53 52.35 46.7 52.6 C 46.7 52.6 47.4 53.9 47.4 53.9 C 47.4 54 47.5 54.1 47.7 54.1 C 47.74 54.06 48 54.1 48 54.1 L 48 54.8 C 48 54.8 47.39 54.8 47.4 54.8 C 47 54.8 46.8 54.7 46.6 54.4 C 46.6 54.4 45.8 52.8 45.8 52.8 C 45.7 52.7 45.5 52.7 45.4 52.7 C 45.36 52.66 45 52.7 45 52.7 L 45 54.8 L 44.1 54.8 C 44.1 54.8 44.14 49.39 44.1 49.4 Z M 50.7 50.1 C 51.9 50.1 52.6 51.1 52.6 52.3 C 52.63 52.39 52.6 52.6 52.6 52.6 C 52.6 52.6 49.28 52.63 49.3 52.6 C 49.3 53.6 50 54.2 50.8 54.2 C 51.63 54.15 52.2 53.6 52.2 53.6 L 52.6 54.2 C 52.6 54.2 51.88 54.91 50.8 54.9 C 49.4 54.9 48.4 53.9 48.4 52.5 C 48.4 51.1 49.4 50.1 50.7 50.1 Z M 51.7 52 C 51.7 51.2 51.2 50.8 50.7 50.8 C 50 50.8 49.5 51.2 49.3 52 C 49.3 52 51.7 52 51.7 52 Z M 54 48.4 L 54.8 48.4 L 54.8 49.4 L 54 49.4 L 54 48.4 Z M 53 55.9 C 53.4 55.9 54 55.8 54 54.9 C 54 54.9 54 51.2 54 51.2 C 54 51.1 53.9 51 53.8 51 C 53.82 50.99 53.5 51 53.5 51 L 53.5 50.2 C 53.5 50.2 54.31 50.25 54.3 50.2 C 54.7 50.2 54.9 50.4 54.9 50.8 C 54.9 50.8 54.9 55 54.9 55 C 54.9 56.5 53.7 56.7 53.1 56.7 C 52.96 56.66 52.8 56.6 52.8 56.6 L 52.8 55.9 C 52.8 55.9 52.93 55.9 53 55.9 Z M 61.1 52 C 61.1 51.97 61.3 52 61.3 52 C 61.3 52 61.3 51.92 61.3 51.9 C 61.3 51.1 61 50.8 60.3 50.8 C 60.1 50.8 59.5 50.9 59.5 51.2 C 59.54 51.18 59.5 51.4 59.5 51.4 L 58.7 51.4 C 58.7 51.4 58.72 50.99 58.7 51 C 58.7 50.2 59.9 50.1 60.3 50.1 C 61.8 50.1 62.2 50.9 62.2 51.9 C 62.2 51.9 62.2 53.9 62.2 53.9 C 62.2 54 62.2 54.1 62.4 54.1 C 62.37 54.06 62.7 54.1 62.7 54.1 L 62.7 54.8 C 62.7 54.8 61.92 54.8 61.9 54.8 C 61.5 54.8 61.4 54.6 61.4 54.3 C 61.4 54.1 61.4 54 61.4 54 C 61.37 54.01 61.4 54 61.4 54 C 61.4 54 60.99 54.91 59.9 54.9 C 59.1 54.9 58.4 54.4 58.4 53.5 C 58.4 52.1 60.3 52 61.1 52 Z M 60.1 54.2 C 60.8 54.2 61.3 53.4 61.3 52.8 C 61.31 52.76 61.3 52.6 61.3 52.6 C 61.3 52.6 61.08 52.61 61.1 52.6 C 60.4 52.6 59.2 52.6 59.2 53.5 C 59.2 53.8 59.5 54.2 60.1 54.2 Z M 63.6 49.4 C 63.6 49.3 63.6 49.2 63.4 49.2 C 63.45 49.19 63.1 49.2 63.1 49.2 L 63.1 48.4 C 63.1 48.4 63.94 48.45 63.9 48.4 C 64.3 48.4 64.5 48.6 64.5 49 C 64.52 48.97 64.5 51.9 64.5 51.9 C 64.5 51.9 64.92 51.92 64.9 51.9 C 65.1 51.9 65.3 51.9 65.4 51.7 C 65.4 51.72 66.5 50.2 66.5 50.2 L 67.5 50.2 C 67.5 50.2 66.22 51.94 66.2 51.9 C 66.01 52.22 65.9 52.3 65.9 52.3 L 65.9 52.3 C 65.9 52.3 66.03 52.35 66.2 52.6 C 66.2 52.6 66.9 53.9 66.9 53.9 C 66.9 54 67 54.1 67.2 54.1 C 67.25 54.06 67.5 54.1 67.5 54.1 L 67.5 54.8 C 67.5 54.8 66.9 54.8 66.9 54.8 C 66.5 54.8 66.3 54.7 66.1 54.4 C 66.1 54.4 65.3 52.8 65.3 52.8 C 65.2 52.7 65 52.7 64.9 52.7 C 64.86 52.66 64.5 52.7 64.5 52.7 L 64.5 54.8 L 63.6 54.8 C 63.6 54.8 63.65 49.39 63.6 49.4 Z M 68.4 50.9 L 67.9 50.9 L 67.9 50.2 L 68.5 50.2 L 68.5 49 L 69.3 49 L 69.3 50.2 L 70.4 50.2 L 70.4 50.9 L 69.3 50.9 C 69.3 50.9 69.32 53.04 69.3 53 C 69.3 53.9 69.9 54.1 70.3 54.1 C 70.41 54.06 70.5 54 70.5 54 L 70.5 54.8 C 70.5 54.8 70.37 54.84 70.2 54.8 C 69.6 54.8 68.4 54.7 68.4 53.1 C 68.44 53.14 68.4 50.9 68.4 50.9 Z M 71.6 48.4 L 72.4 48.4 L 72.4 49.4 L 71.6 49.4 L 71.6 48.4 Z M 71.6 51.2 C 71.6 51.1 71.5 51 71.4 51 C 71.42 50.99 71.1 51 71.1 51 L 71.1 50.2 C 71.1 50.2 71.91 50.25 71.9 50.2 C 72.3 50.2 72.5 50.4 72.5 50.8 C 72.5 50.8 72.5 53.9 72.5 53.9 C 72.5 54 72.6 54.1 72.7 54.1 C 72.68 54.06 73.1 54.1 73.1 54.1 L 73.1 54.8 C 73.1 54.8 72.2 54.8 72.2 54.8 C 71.8 54.8 71.6 54.6 71.6 54.2 C 71.6 54.2 71.6 51.2 71.6 51.2 Z M 73.7 51.2 C 73.7 51 73.6 51 73.4 51 C 73.45 50.99 73.4 51 73.4 51 L 73.4 50.2 C 73.4 50.2 73.81 50.25 73.8 50.2 C 74.2 50.2 74.4 50.3 74.5 50.7 C 74.5 50.7 75.5 53.3 75.5 53.3 C 75.57 53.58 75.6 53.9 75.6 53.9 L 75.7 53.9 C 75.7 53.9 75.73 53.58 75.8 53.3 C 75.8 53.3 76.8 50.7 76.8 50.7 C 76.9 50.3 77.1 50.2 77.5 50.2 C 77.49 50.25 77.9 50.2 77.9 50.2 L 77.9 51 C 77.9 51 77.82 50.99 77.8 51 C 77.7 51 77.6 51 77.5 51.2 C 77.52 51.17 76.1 54.8 76.1 54.8 L 75.1 54.8 C 75.1 54.8 73.73 51.17 73.7 51.2 Z M 78.9 48.4 L 79.6 48.4 L 79.6 49.4 L 78.9 49.4 L 78.9 48.4 Z M 78.8 51.2 C 78.8 51.1 78.8 51 78.6 51 C 78.64 50.99 78.3 51 78.3 51 L 78.3 50.2 C 78.3 50.2 79.13 50.25 79.1 50.2 C 79.5 50.2 79.7 50.4 79.7 50.8 C 79.7 50.8 79.7 53.9 79.7 53.9 C 79.7 54 79.8 54.1 79.9 54.1 C 79.9 54.06 80.3 54.1 80.3 54.1 L 80.3 54.8 C 80.3 54.8 79.41 54.8 79.4 54.8 C 79 54.8 78.8 54.6 78.8 54.2 C 78.8 54.2 78.8 51.2 78.8 51.2 Z M 81.3 50.9 L 80.7 50.9 L 80.7 50.2 L 81.3 50.2 L 81.3 49 L 82.2 49 L 82.2 50.2 L 83.3 50.2 L 83.3 50.9 L 82.2 50.9 C 82.2 50.9 82.18 53.04 82.2 53 C 82.2 53.9 82.8 54.1 83.1 54.1 C 83.27 54.06 83.3 54 83.3 54 L 83.3 54.8 C 83.3 54.8 83.23 54.84 83 54.8 C 82.5 54.8 81.3 54.7 81.3 53.1 C 81.31 53.14 81.3 50.9 81.3 50.9 Z M 84.7 55.9 C 85 55.9 85.3 55.7 85.5 55.3 C 85.45 55.28 85.7 54.8 85.7 54.8 C 85.7 54.8 84.1 51.17 84.1 51.2 C 84 51 84 51 83.8 51 C 83.82 50.99 83.7 51 83.7 51 L 83.7 50.2 C 83.7 50.2 84.22 50.25 84.2 50.2 C 84.6 50.2 84.7 50.3 84.9 50.7 C 84.9 50.7 85.9 53.3 85.9 53.3 C 85.99 53.51 86.1 53.8 86.1 53.8 L 86.1 53.8 C 86.1 53.8 86.15 53.51 86.2 53.3 C 86.2 53.3 87.2 50.7 87.2 50.7 C 87.3 50.3 87.5 50.2 87.8 50.2 C 87.85 50.25 88.4 50.2 88.4 50.2 L 88.4 51 C 88.4 51 88.25 50.99 88.3 51 C 88.1 51 88 51 88 51.2 C 88 51.2 86.2 55.6 86.2 55.6 C 85.9 56.3 85.3 56.7 84.7 56.7 C 84.02 56.69 83.6 56.2 83.6 56.2 C 83.6 56.2 83.99 55.61 84 55.6 C 84 55.6 84.3 55.9 84.7 55.9 Z " stroke="none" fill="#323232"/>  </g>  <g id="Polygon69412">    <path d="M 9.9 43.2 L 10.5 43.2 L 10.5 38.4 L 9.9 38.4 L 9.9 37.6 L 12 37.6 L 12 38.4 L 11.4 38.4 L 11.4 43.2 L 12 43.2 L 12 44 L 9.9 44 L 9.9 43.2 Z M 13.1 40.4 C 13.1 40.3 13.1 40.2 12.9 40.2 C 12.92 40.19 12.6 40.2 12.6 40.2 L 12.6 39.4 C 12.6 39.4 13.39 39.45 13.4 39.4 C 13.8 39.4 14 39.6 14 40 C 14 40 14 40.1 14 40.1 C 13.97 40.27 13.9 40.4 13.9 40.4 C 13.9 40.4 13.97 40.38 14 40.4 C 14.1 40 14.7 39.3 15.7 39.3 C 16.8 39.3 17.2 39.9 17.2 41.1 C 17.2 41.1 17.2 43.1 17.2 43.1 C 17.2 43.2 17.3 43.3 17.4 43.3 C 17.44 43.26 17.8 43.3 17.8 43.3 L 17.8 44 C 17.8 44 16.95 44 16.9 44 C 16.5 44 16.4 43.8 16.4 43.4 C 16.4 43.4 16.4 41.3 16.4 41.3 C 16.4 40.6 16.2 40.1 15.5 40.1 C 14.8 40.1 14.3 40.6 14.1 41.3 C 14 41.4 14 41.6 14 41.9 C 13.99 41.87 14 44 14 44 L 13.1 44 C 13.1 44 13.12 40.39 13.1 40.4 Z M 20.4 39.3 C 21.44 39.34 21.8 40 21.8 40 L 21.8 40 C 21.8 40 21.79 39.91 21.8 39.7 C 21.8 39.7 21.8 38.6 21.8 38.6 C 21.8 38.5 21.7 38.4 21.6 38.4 C 21.59 38.39 21.2 38.4 21.2 38.4 L 21.2 37.6 C 21.2 37.6 22.09 37.65 22.1 37.6 C 22.5 37.6 22.7 37.8 22.7 38.2 C 22.7 38.2 22.7 43.1 22.7 43.1 C 22.7 43.2 22.7 43.3 22.9 43.3 C 22.86 43.26 23.2 43.3 23.2 43.3 L 23.2 44 C 23.2 44 22.39 44 22.4 44 C 22 44 21.8 43.8 21.8 43.5 C 21.8 43.4 21.8 43.3 21.8 43.3 C 21.84 43.28 21.8 43.3 21.8 43.3 C 21.8 43.3 21.45 44.11 20.3 44.1 C 19.1 44.1 18.3 43.1 18.3 41.7 C 18.3 40.3 19.2 39.3 20.4 39.3 Z M 21.8 41.7 C 21.8 40.9 21.4 40.1 20.5 40.1 C 19.8 40.1 19.2 40.7 19.2 41.7 C 19.2 42.7 19.7 43.4 20.5 43.4 C 21.2 43.4 21.8 42.9 21.8 41.7 Z M 24.3 37.6 L 25 37.6 L 25 38.6 L 24.3 38.6 L 24.3 37.6 Z M 24.2 40.4 C 24.2 40.3 24.2 40.2 24 40.2 C 24.05 40.19 23.7 40.2 23.7 40.2 L 23.7 39.4 C 23.7 39.4 24.53 39.45 24.5 39.4 C 24.9 39.4 25.1 39.6 25.1 40 C 25.1 40 25.1 43.1 25.1 43.1 C 25.1 43.2 25.2 43.3 25.3 43.3 C 25.31 43.26 25.7 43.3 25.7 43.3 L 25.7 44 C 25.7 44 24.82 44 24.8 44 C 24.4 44 24.2 43.8 24.2 43.4 C 24.2 43.4 24.2 40.4 24.2 40.4 Z M 26.6 38.6 C 26.6 38.5 26.6 38.4 26.4 38.4 C 26.44 38.39 26.1 38.4 26.1 38.4 L 26.1 37.6 C 26.1 37.6 26.94 37.65 26.9 37.6 C 27.3 37.6 27.5 37.8 27.5 38.2 C 27.51 38.17 27.5 41.1 27.5 41.1 C 27.5 41.1 27.92 41.12 27.9 41.1 C 28.1 41.1 28.3 41.1 28.4 40.9 C 28.39 40.92 29.4 39.4 29.4 39.4 L 30.4 39.4 C 30.4 39.4 29.21 41.14 29.2 41.1 C 29.01 41.42 28.9 41.5 28.9 41.5 L 28.9 41.5 C 28.9 41.5 29.02 41.55 29.2 41.8 C 29.2 41.8 29.9 43.1 29.9 43.1 C 29.9 43.2 30 43.3 30.2 43.3 C 30.24 43.26 30.5 43.3 30.5 43.3 L 30.5 44 C 30.5 44 29.89 44 29.9 44 C 29.5 44 29.3 43.9 29.1 43.6 C 29.1 43.6 28.3 42 28.3 42 C 28.2 41.9 28 41.9 27.9 41.9 C 27.85 41.86 27.5 41.9 27.5 41.9 L 27.5 44 L 26.6 44 C 26.6 44 26.64 38.59 26.6 38.6 Z M 33.7 41.2 C 33.67 41.17 33.9 41.2 33.9 41.2 C 33.9 41.2 33.87 41.12 33.9 41.1 C 33.9 40.3 33.6 40 32.9 40 C 32.6 40 32.1 40.1 32.1 40.4 C 32.11 40.38 32.1 40.6 32.1 40.6 L 31.3 40.6 C 31.3 40.6 31.29 40.19 31.3 40.2 C 31.3 39.4 32.4 39.3 32.9 39.3 C 34.3 39.3 34.7 40.1 34.7 41.1 C 34.7 41.1 34.7 43.1 34.7 43.1 C 34.7 43.2 34.8 43.3 34.9 43.3 C 34.94 43.26 35.3 43.3 35.3 43.3 L 35.3 44 C 35.3 44 34.49 44 34.5 44 C 34.1 44 33.9 43.8 33.9 43.5 C 33.9 43.3 33.9 43.2 33.9 43.2 C 33.94 43.21 33.9 43.2 33.9 43.2 C 33.9 43.2 33.56 44.11 32.5 44.1 C 31.7 44.1 30.9 43.6 30.9 42.7 C 30.9 41.3 32.9 41.2 33.7 41.2 Z M 32.7 43.4 C 33.4 43.4 33.9 42.6 33.9 42 C 33.88 41.96 33.9 41.8 33.9 41.8 C 33.9 41.8 33.65 41.81 33.7 41.8 C 33 41.8 31.8 41.8 31.8 42.7 C 31.8 43 32.1 43.4 32.7 43.4 Z M 33.3 37.6 L 34.2 37.6 L 33.3 38.8 L 32.6 38.8 L 33.3 37.6 Z M 36.3 40.1 L 35.7 40.1 L 35.7 39.4 L 36.3 39.4 L 36.3 38.2 L 37.2 38.2 L 37.2 39.4 L 38.2 39.4 L 38.2 40.1 L 37.2 40.1 C 37.2 40.1 37.16 42.24 37.2 42.2 C 37.2 43.1 37.8 43.3 38.1 43.3 C 38.25 43.26 38.3 43.2 38.3 43.2 L 38.3 44 C 38.3 44 38.21 44.04 38 44 C 37.4 44 36.3 43.9 36.3 42.3 C 36.29 42.34 36.3 40.1 36.3 40.1 Z M 41.3 39.3 C 42.7 39.3 43.8 40.3 43.8 41.7 C 43.8 43.1 42.7 44.1 41.3 44.1 C 40 44.1 38.9 43.1 38.9 41.7 C 38.9 40.3 40 39.3 41.3 39.3 Z M 41.3 43.4 C 42.2 43.4 42.9 42.7 42.9 41.7 C 42.9 40.8 42.2 40.1 41.3 40.1 C 40.5 40.1 39.8 40.8 39.8 41.7 C 39.8 42.7 40.5 43.4 41.3 43.4 Z M 44.9 40.4 C 44.9 40.3 44.8 40.2 44.7 40.2 C 44.69 40.19 44.3 40.2 44.3 40.2 L 44.3 39.4 C 44.3 39.4 45.15 39.45 45.2 39.4 C 45.5 39.4 45.7 39.6 45.7 40 C 45.7 40 45.7 40.3 45.7 40.3 C 45.74 40.45 45.7 40.6 45.7 40.6 C 45.7 40.6 45.74 40.58 45.7 40.6 C 46 39.9 46.5 39.4 47.2 39.4 C 47.29 39.39 47.4 39.4 47.4 39.4 L 47.4 40.3 C 47.4 40.3 47.29 40.25 47.1 40.2 C 46.6 40.2 46.1 40.6 45.9 41.3 C 45.8 41.6 45.8 41.9 45.8 42.1 C 45.76 42.14 45.8 44 45.8 44 L 44.9 44 C 44.9 44 44.89 40.39 44.9 40.4 Z M 52.4 39.3 C 53.48 39.34 53.8 40 53.8 40 L 53.8 40 C 53.8 40 53.83 39.91 53.8 39.7 C 53.8 39.7 53.8 38.6 53.8 38.6 C 53.8 38.5 53.8 38.4 53.6 38.4 C 53.63 38.39 53.3 38.4 53.3 38.4 L 53.3 37.6 C 53.3 37.6 54.13 37.65 54.1 37.6 C 54.5 37.6 54.7 37.8 54.7 38.2 C 54.7 38.2 54.7 43.1 54.7 43.1 C 54.7 43.2 54.8 43.3 54.9 43.3 C 54.9 43.26 55.3 43.3 55.3 43.3 L 55.3 44 C 55.3 44 54.43 44 54.4 44 C 54 44 53.9 43.8 53.9 43.5 C 53.9 43.4 53.9 43.3 53.9 43.3 C 53.88 43.28 53.9 43.3 53.9 43.3 C 53.9 43.3 53.49 44.11 52.4 44.1 C 51.1 44.1 50.4 43.1 50.4 41.7 C 50.4 40.3 51.2 39.3 52.4 39.3 Z M 53.9 41.7 C 53.9 40.9 53.4 40.1 52.6 40.1 C 51.8 40.1 51.3 40.7 51.3 41.7 C 51.3 42.7 51.8 43.4 52.5 43.4 C 53.2 43.4 53.9 42.9 53.9 41.7 Z M 56.2 38.6 C 56.2 38.5 56.2 38.4 56 38.4 C 56.02 38.39 55.7 38.4 55.7 38.4 L 55.7 37.6 C 55.7 37.6 56.52 37.65 56.5 37.6 C 56.9 37.6 57.1 37.8 57.1 38.2 C 57.1 38.2 57.1 43.1 57.1 43.1 C 57.1 43.2 57.2 43.3 57.3 43.3 C 57.29 43.26 57.7 43.3 57.7 43.3 L 57.7 44 C 57.7 44 56.8 44 56.8 44 C 56.4 44 56.2 43.8 56.2 43.4 C 56.2 43.4 56.2 38.6 56.2 38.6 Z M 56.8 36.1 L 57.7 36.1 L 56.8 37.2 L 56.1 37.2 L 56.8 36.1 Z M 58.2 43.5 C 58.2 43.5 60.52 40.62 60.5 40.6 C 60.71 40.37 60.9 40.2 60.9 40.2 L 60.9 40.2 C 60.9 40.2 60.75 40.19 60.5 40.2 C 60.5 40.2 59.2 40.2 59.2 40.2 C 59.1 40.2 59 40.3 59 40.4 C 59.01 40.39 59 40.7 59 40.7 L 58.2 40.7 C 58.2 40.7 58.21 40.02 58.2 40 C 58.2 39.6 58.4 39.4 58.8 39.4 C 58.79 39.45 62 39.4 62 39.4 L 62 40 C 62 40 59.71 42.84 59.7 42.8 C 59.52 43.07 59.3 43.3 59.3 43.3 L 59.3 43.3 C 59.3 43.3 59.47 43.26 59.8 43.3 C 59.8 43.3 61.2 43.3 61.2 43.3 C 61.4 43.3 61.4 43.2 61.4 43.1 C 61.42 43.06 61.4 42.8 61.4 42.8 L 62.2 42.8 C 62.2 42.8 62.22 43.43 62.2 43.4 C 62.2 43.8 62 44 61.6 44 C 61.64 44 58.2 44 58.2 44 L 58.2 43.5 Z M 59 37.6 L 59.8 37.6 L 60.2 38.4 L 60.2 38.4 L 60.7 37.6 L 61.4 37.6 L 60.6 38.8 L 59.8 38.8 L 59 37.6 Z M 63.2 38.6 C 63.2 38.5 63.1 38.4 63 38.4 C 62.96 38.39 62.6 38.4 62.6 38.4 L 62.6 37.6 C 62.6 37.6 63.46 37.65 63.5 37.6 C 63.9 37.6 64 37.8 64 38.2 C 64.03 38.17 64 41.1 64 41.1 C 64 41.1 64.44 41.12 64.4 41.1 C 64.6 41.1 64.8 41.1 64.9 40.9 C 64.92 40.92 66 39.4 66 39.4 L 67 39.4 C 67 39.4 65.73 41.14 65.7 41.1 C 65.53 41.42 65.4 41.5 65.4 41.5 L 65.4 41.5 C 65.4 41.5 65.55 41.55 65.7 41.8 C 65.7 41.8 66.4 43.1 66.4 43.1 C 66.4 43.2 66.5 43.3 66.8 43.3 C 66.76 43.26 67 43.3 67 43.3 L 67 44 C 67 44 66.41 44 66.4 44 C 66 44 65.9 43.9 65.7 43.6 C 65.7 43.6 64.8 42 64.8 42 C 64.7 41.9 64.5 41.9 64.4 41.9 C 64.38 41.86 64 41.9 64 41.9 L 64 44 L 63.2 44 C 63.2 44 63.16 38.59 63.2 38.6 Z M 68.1 45.1 C 68.5 45.1 68.8 44.9 68.9 44.5 C 68.93 44.48 69.1 44 69.1 44 C 69.1 44 67.58 40.37 67.6 40.4 C 67.5 40.2 67.4 40.2 67.3 40.2 C 67.29 40.19 67.2 40.2 67.2 40.2 L 67.2 39.4 C 67.2 39.4 67.7 39.45 67.7 39.4 C 68.1 39.4 68.2 39.5 68.3 39.9 C 68.3 39.9 69.4 42.5 69.4 42.5 C 69.47 42.71 69.5 43 69.5 43 L 69.6 43 C 69.6 43 69.62 42.71 69.7 42.5 C 69.7 42.5 70.7 39.9 70.7 39.9 C 70.8 39.5 71 39.4 71.3 39.4 C 71.32 39.45 71.8 39.4 71.8 39.4 L 71.8 40.2 C 71.8 40.2 71.73 40.19 71.7 40.2 C 71.6 40.2 71.5 40.2 71.4 40.4 C 71.4 40.4 69.6 44.8 69.6 44.8 C 69.4 45.5 68.8 45.9 68.2 45.9 C 67.5 45.89 67.1 45.4 67.1 45.4 C 67.1 45.4 67.46 44.81 67.5 44.8 C 67.5 44.8 67.7 45.1 68.1 45.1 Z " stroke="none" fill="#323232"/>  </g>  <g id="Polygon69411">    <path d="M 12 24.7 C 12 24.7 11.42 24.72 11.4 24.7 C 11.3 24.7 11.2 24.8 11.2 24.9 C 11.2 24.94 11.2 25.3 11.2 25.3 L 9.7 25.3 C 9.7 25.3 9.65 23.91 9.7 23.9 C 9.7 23.4 9.8 23.2 10.3 23.2 C 10.3 23.2 15.5 23.2 15.5 23.2 C 16 23.2 16.1 23.4 16.1 23.9 C 16.14 23.91 16.1 25.3 16.1 25.3 L 14.6 25.3 C 14.6 25.3 14.59 24.94 14.6 24.9 C 14.6 24.8 14.5 24.7 14.4 24.7 C 14.37 24.72 13.8 24.7 13.8 24.7 L 13.8 30.4 L 12 30.4 L 12 24.7 Z M 18.5 25.1 C 20 25.1 20.9 26.2 20.9 27.6 C 20.85 27.76 20.8 28.1 20.8 28.1 C 20.8 28.1 17.56 28.11 17.6 28.1 C 17.7 28.8 18.2 29 18.8 29 C 19.5 29.05 20.1 28.5 20.1 28.5 L 20.8 29.7 C 20.8 29.7 19.99 30.49 18.6 30.5 C 16.8 30.5 15.8 29.2 15.8 27.8 C 15.8 26.3 16.8 25.1 18.5 25.1 Z M 19.1 27.1 C 19.1 26.7 18.8 26.4 18.5 26.4 C 18 26.4 17.7 26.7 17.6 27.1 C 17.6 27.1 19.1 27.1 19.1 27.1 Z M 22 26.9 C 22 26.7 21.9 26.7 21.8 26.7 C 21.75 26.67 21.4 26.7 21.4 26.7 L 21.4 25.2 C 21.4 25.2 22.9 25.22 22.9 25.2 C 23.4 25.2 23.6 25.4 23.6 25.9 C 23.6 25.9 23.6 26.1 23.6 26.1 C 23.6 26.3 23.6 26.4 23.6 26.4 C 23.6 26.4 23.6 26.4 23.6 26.4 C 23.9 25.7 24.5 25.1 25.3 25.1 C 25.37 25.13 25.5 25.1 25.5 25.1 L 25.5 26.8 C 25.5 26.8 25.33 26.82 25.1 26.8 C 24.7 26.8 24 26.9 23.8 27.7 C 23.7 27.9 23.7 28.1 23.7 28.4 C 23.7 28.42 23.7 30.4 23.7 30.4 L 22 30.4 C 22 30.4 21.97 26.89 22 26.9 Z M 26.5 26.9 C 26.5 26.7 26.5 26.7 26.3 26.7 C 26.31 26.67 25.9 26.7 25.9 26.7 L 25.9 25.2 C 25.9 25.2 27.48 25.22 27.5 25.2 C 28 25.2 28.2 25.4 28.2 25.8 C 28.2 25.8 28.2 25.9 28.2 25.9 C 28.2 25.9 28.2 26 28.2 26 C 28.2 26 28.2 26 28.2 26 C 28.5 25.6 28.9 25.1 29.7 25.1 C 30.4 25.1 30.9 25.4 31.2 26 C 31.2 26 31.2 26 31.2 26 C 31.5 25.5 32.1 25.1 32.8 25.1 C 33.8 25.1 34.5 25.6 34.5 27 C 34.5 27 34.5 28.7 34.5 28.7 C 34.5 28.8 34.6 28.9 34.7 28.9 C 34.72 28.92 35.1 28.9 35.1 28.9 L 35.1 30.4 C 35.1 30.4 33.5 30.37 33.5 30.4 C 33 30.4 32.8 30.1 32.8 29.6 C 32.8 29.6 32.8 27.3 32.8 27.3 C 32.8 26.9 32.7 26.7 32.4 26.7 C 31.9 26.7 31.6 27.1 31.4 27.7 C 31.4 27.8 31.4 28 31.4 28.2 C 31.38 28.24 31.4 30.4 31.4 30.4 L 29.7 30.4 C 29.7 30.4 29.65 27.32 29.7 27.3 C 29.7 26.9 29.6 26.7 29.3 26.7 C 28.7 26.7 28.5 27.1 28.3 27.6 C 28.3 27.8 28.3 28 28.3 28.2 C 28.26 28.24 28.3 30.4 28.3 30.4 L 26.5 30.4 C 26.5 30.4 26.53 26.89 26.5 26.9 Z M 36.2 23.2 L 37.7 23.2 L 37.7 24.6 L 36.2 24.6 L 36.2 23.2 Z M 36.1 26.9 C 36.1 26.7 36 26.7 35.9 26.7 C 35.87 26.67 35.5 26.7 35.5 26.7 L 35.5 25.2 C 35.5 25.2 37.09 25.22 37.1 25.2 C 37.6 25.2 37.8 25.4 37.8 25.9 C 37.8 25.9 37.8 28.7 37.8 28.7 C 37.8 28.8 37.9 28.9 38 28.9 C 38.04 28.92 38.4 28.9 38.4 28.9 L 38.4 30.4 C 38.4 30.4 36.82 30.37 36.8 30.4 C 36.3 30.4 36.1 30.1 36.1 29.6 C 36.1 29.6 36.1 26.9 36.1 26.9 Z M 39.4 26.9 C 39.4 26.7 39.4 26.7 39.2 26.7 C 39.21 26.67 38.8 26.7 38.8 26.7 L 38.8 25.2 C 38.8 25.2 40.37 25.22 40.4 25.2 C 40.8 25.2 41.1 25.4 41.1 25.8 C 41.1 25.8 41.1 25.9 41.1 25.9 C 41.1 25.9 41.1 26 41.1 26 C 41.1 26 41.1 26 41.1 26 C 41.3 25.6 41.8 25.1 42.7 25.1 C 43.8 25.1 44.6 25.6 44.6 27 C 44.6 27 44.6 28.7 44.6 28.7 C 44.6 28.8 44.7 28.9 44.8 28.9 C 44.8 28.92 45.2 28.9 45.2 28.9 L 45.2 30.4 C 45.2 30.4 43.58 30.37 43.6 30.4 C 43.1 30.4 42.9 30.1 42.9 29.6 C 42.9 29.6 42.9 27.3 42.9 27.3 C 42.9 26.9 42.7 26.7 42.3 26.7 C 41.7 26.7 41.4 27 41.3 27.4 C 41.2 27.6 41.2 27.8 41.2 28.1 C 41.16 28.09 41.2 30.4 41.2 30.4 L 39.4 30.4 C 39.4 30.4 39.43 26.89 39.4 26.9 Z M 48.6 27.1 C 48.62 27.13 48.7 27.1 48.7 27.1 C 48.7 27.1 48.69 27.07 48.7 27.1 C 48.7 26.6 48.5 26.4 48 26.4 C 47.8 26.4 47.6 26.4 47.6 26.6 C 47.58 26.65 47.6 26.9 47.6 26.9 L 46 26.9 C 46 26.9 45.98 26.31 46 26.3 C 46 25.2 47.4 25.1 48 25.1 C 49.8 25.1 50.4 26 50.4 27.2 C 50.4 27.2 50.4 28.7 50.4 28.7 C 50.4 28.8 50.5 28.9 50.6 28.9 C 50.64 28.92 51 28.9 51 28.9 L 51 30.4 C 51 30.4 49.52 30.37 49.5 30.4 C 49 30.4 48.8 30.1 48.8 29.8 C 48.84 29.79 48.8 29.7 48.8 29.7 L 48.8 29.7 C 48.8 29.7 48.46 30.49 47.4 30.5 C 46.4 30.5 45.6 29.8 45.6 28.8 C 45.6 27.3 47.8 27.1 48.6 27.1 Z M 47.9 29.2 C 48.3 29.2 48.7 28.7 48.7 28.3 C 48.71 28.26 48.7 28.2 48.7 28.2 C 48.7 28.2 48.55 28.18 48.6 28.2 C 48 28.2 47.4 28.3 47.4 28.7 C 47.4 29 47.5 29.2 47.9 29.2 Z M 48.3 23.2 L 49.9 23.2 L 48.7 24.7 L 47.5 24.7 L 48.3 23.2 Z M 51.9 24.9 C 51.9 24.7 51.9 24.7 51.7 24.7 C 51.72 24.67 51.3 24.7 51.3 24.7 L 51.3 23.2 C 51.3 23.2 52.94 23.22 52.9 23.2 C 53.5 23.2 53.7 23.4 53.7 23.9 C 53.7 23.9 53.7 28.7 53.7 28.7 C 53.7 28.8 53.8 28.9 53.9 28.9 C 53.89 28.92 54.3 28.9 54.3 28.9 L 54.3 30.4 C 54.3 30.4 52.67 30.37 52.7 30.4 C 52.2 30.4 51.9 30.1 51.9 29.6 C 51.9 29.6 51.9 24.9 51.9 24.9 Z M 55.3 26.9 C 55.3 26.7 55.2 26.7 55 26.7 C 55.04 26.67 54.7 26.7 54.7 26.7 L 54.7 25.2 C 54.7 25.2 56.2 25.22 56.2 25.2 C 56.7 25.2 56.9 25.4 56.9 25.8 C 56.9 25.8 56.9 25.9 56.9 25.9 C 56.9 25.9 56.9 26 56.9 26 C 56.9 26 56.9 26 56.9 26 C 57.2 25.6 57.7 25.1 58.6 25.1 C 59.6 25.1 60.4 25.6 60.4 27 C 60.4 27 60.4 28.7 60.4 28.7 C 60.4 28.8 60.5 28.9 60.6 28.9 C 60.63 28.92 61 28.9 61 28.9 L 61 30.4 C 61 30.4 59.41 30.37 59.4 30.4 C 58.9 30.4 58.7 30.1 58.7 29.6 C 58.7 29.6 58.7 27.3 58.7 27.3 C 58.7 26.9 58.5 26.7 58.1 26.7 C 57.6 26.7 57.2 27 57.1 27.4 C 57 27.6 57 27.8 57 28.1 C 56.99 28.09 57 30.4 57 30.4 L 55.3 30.4 C 55.3 30.4 55.26 26.89 55.3 26.9 Z M 62.4 31 C 62.7 31 63 30.9 63.2 30.5 C 63.16 30.52 63.2 30.4 63.2 30.4 C 63.2 30.4 61.59 26.83 61.6 26.8 C 61.5 26.7 61.5 26.7 61.4 26.7 C 61.37 26.67 61.2 26.7 61.2 26.7 L 61.2 25.2 C 61.2 25.2 62.44 25.22 62.4 25.2 C 62.7 25.2 62.9 25.4 63 25.6 C 63 25.6 63.8 27.7 63.8 27.7 C 63.9 28 64 28.5 64 28.5 L 64 28.5 C 64 28.5 64.1 28 64.2 27.7 C 64.2 27.7 64.8 25.6 64.8 25.6 C 64.8 25.4 65.1 25.2 65.4 25.2 C 65.36 25.22 66.7 25.2 66.7 25.2 L 66.7 26.7 C 66.7 26.7 66.46 26.67 66.5 26.7 C 66.3 26.7 66.3 26.7 66.2 26.8 C 66.2 26.8 64.7 30.9 64.7 30.9 C 64.2 32.1 63.3 32.5 62.5 32.5 C 61.62 32.47 61.1 31.9 61.1 31.9 L 61.7 30.7 C 61.7 30.7 61.98 31.03 62.4 31 Z M 70.1 26.9 C 70.1 26.7 70.1 26.7 69.9 26.7 C 69.92 26.67 69.5 26.7 69.5 26.7 L 69.5 25.2 C 69.5 25.2 71.03 25.22 71 25.2 C 71.5 25.2 71.7 25.4 71.7 25.7 C 71.7 25.73 71.7 25.8 71.7 25.8 L 71.7 25.8 C 71.7 25.8 72.17 25.1 73.3 25.1 C 74.7 25.1 75.6 26.2 75.6 27.8 C 75.6 29.4 74.6 30.5 73.2 30.5 C 72.34 30.49 71.9 30 71.9 30 L 71.9 30 C 71.9 30 71.87 30.23 71.9 30.5 C 71.87 30.49 71.9 32.4 71.9 32.4 L 70.1 32.4 C 70.1 32.4 70.14 26.89 70.1 26.9 Z M 71.8 27.8 C 71.8 28.4 72.2 29.1 72.8 29.1 C 73.4 29.1 73.8 28.6 73.8 27.8 C 73.8 27.1 73.4 26.6 72.8 26.6 C 72.3 26.6 71.8 26.9 71.8 27.8 C 71.8 27.8 71.8 27.8 71.8 27.8 Z M 79 25.1 C 80.6 25.1 81.9 26.2 81.9 27.8 C 81.9 29.4 80.6 30.5 79 30.5 C 77.4 30.5 76.1 29.4 76.1 27.8 C 76.1 26.2 77.4 25.1 79 25.1 Z M 79 29 C 79.6 29 80.2 28.6 80.2 27.8 C 80.2 27 79.6 26.5 79 26.5 C 78.4 26.5 77.8 27 77.8 27.8 C 77.8 28.6 78.4 29 79 29 Z M 82.8 24.9 C 82.8 24.7 82.8 24.7 82.6 24.7 C 82.61 24.67 82.2 24.7 82.2 24.7 L 82.2 23.2 C 82.2 23.2 83.83 23.22 83.8 23.2 C 84.3 23.2 84.6 23.4 84.6 23.9 C 84.6 23.9 84.6 28.7 84.6 28.7 C 84.6 28.8 84.6 28.9 84.8 28.9 C 84.78 28.92 85.2 28.9 85.2 28.9 L 85.2 30.4 C 85.2 30.4 83.56 30.37 83.6 30.4 C 83.1 30.4 82.8 30.1 82.8 29.6 C 82.8 29.6 82.8 24.9 82.8 24.9 Z M 88.5 25.1 C 89.2 25.1 90.4 25.4 90.4 26.3 C 90.42 26.31 90.4 27 90.4 27 L 88.9 27 C 88.9 27 88.92 26.75 88.9 26.7 C 88.9 26.6 88.7 26.5 88.5 26.5 C 87.8 26.5 87.4 27.1 87.4 27.8 C 87.4 28.6 88 29 88.7 29 C 89.39 29 90.1 28.3 90.1 28.3 L 90.8 29.5 C 90.8 29.5 89.95 30.49 88.5 30.5 C 86.6 30.5 85.6 29.2 85.6 27.8 C 85.6 26.4 86.6 25.1 88.5 25.1 Z M 86.6 23.2 L 87.8 23.2 L 88.3 24 L 88.3 24 L 88.8 23.2 L 90 23.2 L 89 24.7 L 87.6 24.7 L 86.6 23.2 Z M 94.1 27.1 C 94.09 27.13 94.2 27.1 94.2 27.1 C 94.2 27.1 94.16 27.07 94.2 27.1 C 94.2 26.6 93.9 26.4 93.5 26.4 C 93.3 26.4 93.1 26.4 93.1 26.6 C 93.05 26.65 93.1 26.9 93.1 26.9 L 91.5 26.9 C 91.5 26.9 91.45 26.31 91.5 26.3 C 91.5 25.2 92.9 25.1 93.5 25.1 C 95.3 25.1 95.9 26 95.9 27.2 C 95.9 27.2 95.9 28.7 95.9 28.7 C 95.9 28.8 96 28.9 96.1 28.9 C 96.11 28.92 96.5 28.9 96.5 28.9 L 96.5 30.4 C 96.5 30.4 94.99 30.37 95 30.4 C 94.5 30.4 94.3 30.1 94.3 29.8 C 94.31 29.79 94.3 29.7 94.3 29.7 L 94.3 29.7 C 94.3 29.7 93.93 30.49 92.9 30.5 C 91.9 30.5 91.1 29.8 91.1 28.8 C 91.1 27.3 93.3 27.1 94.1 27.1 Z M 93.3 29.2 C 93.8 29.2 94.2 28.7 94.2 28.3 C 94.18 28.26 94.2 28.2 94.2 28.2 C 94.2 28.2 94.02 28.18 94 28.2 C 93.5 28.2 92.8 28.3 92.8 28.7 C 92.8 29 93 29.2 93.3 29.2 Z M 97.6 28.4 C 97.6 28.4 98.36 29.18 99.2 29.2 C 99.4 29.2 99.5 29.1 99.5 28.9 C 99.5 28.5 97 28.4 97 26.7 C 97 25.6 98 25.1 99.1 25.1 C 99.9 25.1 101.1 25.3 101.1 26.3 C 101.08 26.27 101.1 26.9 101.1 26.9 L 99.6 26.9 C 99.6 26.9 99.58 26.63 99.6 26.6 C 99.6 26.5 99.4 26.4 99.1 26.4 C 98.9 26.4 98.7 26.5 98.7 26.6 C 98.7 27.2 101.3 27.1 101.3 28.8 C 101.3 29.9 100.4 30.5 99.2 30.5 C 97.67 30.49 96.9 29.5 96.9 29.5 L 97.6 28.4 Z " stroke="none" fill="#5f0f50"/>  </g></svg>