<?xml version="1.0" standalone="no"?><!DOCTYPE svg PUBLIC "-//W3C//DTD SVG 1.1//EN" "http://www.w3.org/Graphics/SVG/1.1/DTD/svg11.dtd"><svg xmlns="http://www.w3.org/2000/svg" version="1.1" width="526.1px" height="43.5px" viewBox="0 -5 526.1 43.5" style="top:-5px">  <desc>4 typy estrog nov</desc>  <defs/>  <g id="Polygon70389">    <path d="M 2.3 18.8 L 13.3 14 L 13.3 13.9 L 2.3 9.2 L 2.3 7.2 L 15.9 13.2 L 15.9 14.7 L 2.3 20.8 L 2.3 18.8 Z M 26.8 15.3 L 37 1.4 L 39.3 1.4 L 39.3 14.8 L 42.7 14.8 L 42.7 16.7 L 39.3 16.7 L 39.3 22.5 L 37.2 22.5 L 37.2 16.7 L 26.8 16.7 L 26.8 15.3 Z M 37.2 6.2 C 37.23 5.31 37.3 4.2 37.3 4.2 L 37.3 4.2 C 37.3 4.2 36.75 5.04 36.2 5.8 C 36.2 5.8 30.3 13.5 30.3 13.5 C 29.76 14.28 29.2 14.9 29.2 14.9 L 29.2 14.9 C 29.2 14.9 30.06 14.82 31 14.8 C 30.96 14.82 37.2 14.8 37.2 14.8 C 37.2 14.8 37.23 6.21 37.2 6.2 Z M 54.1 9.1 L 52.2 9.1 L 52.2 7.4 L 54.2 7.4 L 54.2 3.2 L 56.2 3.2 L 56.2 7.4 L 60 7.4 L 60 9.1 L 56.2 9.1 C 56.2 9.1 56.19 16.8 56.2 16.8 C 56.2 20.3 58.4 20.8 59.6 20.8 C 60 20.79 60.3 20.7 60.3 20.7 L 60.3 22.6 C 60.3 22.6 59.91 22.62 59.4 22.6 C 57.7 22.6 54.1 22.1 54.1 17 C 54.15 17.01 54.1 9.1 54.1 9.1 Z M 64.6 27 C 65.9 27 66.8 25.9 67.3 24.5 C 67.35 24.51 68.2 22.4 68.2 22.4 C 68.2 22.4 62.94 9.87 62.9 9.9 C 62.7 9.3 62.4 9.2 61.9 9.2 C 61.89 9.18 61.6 9.2 61.6 9.2 L 61.6 7.4 C 61.6 7.4 62.52 7.41 62.5 7.4 C 63.9 7.4 64.3 7.7 64.8 9.1 C 64.8 9.1 68.7 18.5 68.7 18.5 C 69 19.23 69.2 20.1 69.2 20.1 L 69.3 20.1 C 69.3 20.1 69.51 19.23 69.8 18.5 C 69.8 18.5 73.5 9.1 73.5 9.1 C 74 7.7 74.5 7.4 75.9 7.4 C 75.87 7.41 76.8 7.4 76.8 7.4 L 76.8 9.2 C 76.8 9.2 76.5 9.18 76.5 9.2 C 76 9.2 75.7 9.3 75.4 9.9 C 75.4 9.9 68.9 25.6 68.9 25.6 C 68.2 27.6 66.6 28.8 64.6 28.8 C 62.52 28.8 61.3 27.3 61.3 27.3 C 61.3 27.3 62.31 25.83 62.3 25.8 C 62.3 25.9 63.3 27 64.6 27 Z M 79.9 9.8 C 79.9 9.4 79.6 9.2 79.2 9.2 C 79.23 9.18 78 9.2 78 9.2 L 78 7.4 C 78 7.4 80.04 7.41 80 7.4 C 81.3 7.4 81.8 8 81.8 9 C 81.84 9.6 81.8 10 81.8 10 L 81.9 10 C 81.9 10 83.07 7.05 87.1 7.1 C 91.1 7.1 93.6 10.3 93.6 15 C 93.6 19.7 90.8 22.9 86.9 22.9 C 83.19 22.86 81.9 20 81.9 20 L 81.9 20 C 81.9 20 81.93 20.55 81.9 21.3 C 81.93 21.33 81.9 28.5 81.9 28.5 L 79.9 28.5 C 79.9 28.5 79.89 9.84 79.9 9.8 Z M 86.7 21.1 C 89.3 21.1 91.5 18.8 91.5 15 C 91.5 11.3 89.6 8.9 86.8 8.9 C 84.2 8.9 81.9 10.7 81.9 15 C 81.9 18 83.5 21.1 86.7 21.1 Z M 98 27 C 99.4 27 100.3 25.9 100.8 24.5 C 100.83 24.51 101.7 22.4 101.7 22.4 C 101.7 22.4 96.42 9.87 96.4 9.9 C 96.2 9.3 95.9 9.2 95.4 9.2 C 95.37 9.18 95.1 9.2 95.1 9.2 L 95.1 7.4 C 95.1 7.4 96 7.41 96 7.4 C 97.3 7.4 97.8 7.7 98.3 9.1 C 98.3 9.1 102.2 18.5 102.2 18.5 C 102.48 19.23 102.7 20.1 102.7 20.1 L 102.8 20.1 C 102.8 20.1 102.99 19.23 103.3 18.5 C 103.3 18.5 107 9.1 107 9.1 C 107.5 7.7 108 7.4 109.3 7.4 C 109.35 7.41 110.3 7.4 110.3 7.4 L 110.3 9.2 C 110.3 9.2 109.98 9.18 110 9.2 C 109.4 9.2 109.1 9.3 108.9 9.9 C 108.9 9.9 102.4 25.6 102.4 25.6 C 101.6 27.6 100.1 28.8 98.1 28.8 C 96 28.8 94.8 27.3 94.8 27.3 C 94.8 27.3 95.79 25.83 95.8 25.8 C 95.8 25.9 96.7 27 98 27 Z M 127.6 7.1 C 131.7 7.1 133.9 10.3 133.9 14 C 133.89 14.37 133.8 15 133.8 15 C 133.8 15 122.25 15.03 122.2 15 C 122.3 18.8 125 21 128.1 21 C 130.86 21.03 132.6 19.2 132.6 19.2 L 133.6 20.7 C 133.6 20.7 131.43 22.86 128 22.9 C 123.5 22.9 120.1 19.6 120.1 15 C 120.1 10 123.5 7.1 127.6 7.1 Z M 131.8 13.4 C 131.7 10.3 129.7 8.8 127.5 8.8 C 125 8.8 122.8 10.4 122.3 13.4 C 122.3 13.4 131.8 13.4 131.8 13.4 Z M 137.4 18.8 C 137.4 18.8 139.08 21.09 142 21.1 C 143.7 21.1 145.2 20.3 145.2 18.7 C 145.2 15.4 136.8 16 136.8 11.1 C 136.8 8.4 139.1 7.1 142.1 7.1 C 143.7 7.1 146.7 7.7 146.7 9.8 C 146.73 9.78 146.7 11.1 146.7 11.1 L 144.8 11.1 C 144.8 11.1 144.81 10.35 144.8 10.4 C 144.8 9.2 143.2 8.8 142.2 8.8 C 140.1 8.8 138.8 9.5 138.8 11 C 138.8 14.4 147.3 13.6 147.3 18.6 C 147.3 21.1 145 22.9 142 22.9 C 138.09 22.86 136.2 20.2 136.2 20.2 L 137.4 18.8 Z M 151.3 9.1 L 149.4 9.1 L 149.4 7.4 L 151.4 7.4 L 151.4 3.2 L 153.4 3.2 L 153.4 7.4 L 157.2 7.4 L 157.2 9.1 L 153.4 9.1 C 153.4 9.1 153.39 16.8 153.4 16.8 C 153.4 20.3 155.6 20.8 156.8 20.8 C 157.2 20.79 157.5 20.7 157.5 20.7 L 157.5 22.6 C 157.5 22.6 157.11 22.62 156.6 22.6 C 154.9 22.6 151.3 22.1 151.3 17 C 151.35 17.01 151.3 9.1 151.3 9.1 Z M 161.2 9.8 C 161.2 9.4 161 9.2 160.6 9.2 C 160.56 9.18 159.3 9.2 159.3 9.2 L 159.3 7.4 C 159.3 7.4 161.4 7.41 161.4 7.4 C 162.7 7.4 163.2 7.9 163.2 9.1 C 163.2 9.1 163.2 10.1 163.2 10.1 C 163.23 10.77 163.2 11.3 163.2 11.3 C 163.2 11.3 163.23 11.28 163.2 11.3 C 163.9 9 165.6 7.3 168 7.3 C 168.42 7.26 168.8 7.4 168.8 7.4 L 168.8 9.4 C 168.8 9.4 168.45 9.3 168.1 9.3 C 165.9 9.3 164.3 11 163.7 13.2 C 163.4 14.2 163.3 15.2 163.3 16.1 C 163.26 16.14 163.3 22.5 163.3 22.5 L 161.2 22.5 C 161.2 22.5 161.22 9.84 161.2 9.8 Z M 178 7.1 C 182.4 7.1 186 10.4 186 14.9 C 186 19.4 182.4 22.9 178 22.9 C 173.6 22.9 170.1 19.4 170.1 14.9 C 170.1 10.4 173.6 7.1 178 7.1 Z M 178 21 C 181.3 21 183.9 18.4 183.9 14.9 C 183.9 11.5 181.3 8.9 178 8.9 C 174.8 8.9 172.2 11.5 172.2 14.9 C 172.2 18.4 174.8 21 178 21 Z M 195 7.1 C 199.05 7.05 200 9.6 200 9.6 L 200.1 9.6 C 200.1 9.6 200.07 9.36 200.1 9.1 C 200.1 8 200.5 7.4 201.8 7.4 C 201.78 7.41 203.9 7.4 203.9 7.4 L 203.9 9.2 C 203.9 9.2 202.65 9.18 202.6 9.2 C 202.2 9.2 202 9.4 202 9.8 C 202 9.8 202 22.1 202 22.1 C 202 26.9 198.4 28.8 194.7 28.8 C 193 28.8 191.3 28.3 189.8 27.6 C 189.81 27.6 190.6 25.9 190.6 25.9 C 190.6 25.9 192.45 26.94 194.7 26.9 C 197.6 26.9 199.9 25.6 199.9 22.2 C 199.9 22.2 199.9 20.9 199.9 20.9 C 199.95 20.31 200 19.8 200 19.8 C 200 19.8 199.92 19.8 199.9 19.8 C 199 21.5 197.5 22.4 195.2 22.4 C 191.1 22.4 188.5 19.2 188.5 14.7 C 188.5 10.1 190.9 7.1 195 7.1 Z M 200 14.7 C 200 10.3 197.9 8.9 195.2 8.9 C 192.3 8.9 190.6 11 190.6 14.6 C 190.6 18.2 192.5 20.6 195.5 20.6 C 197.9 20.6 200 19.1 200 14.7 Z M 213.2 7.1 C 217.4 7.1 219.5 10.3 219.5 14 C 219.54 14.37 219.5 15 219.5 15 C 219.5 15 207.9 15.03 207.9 15 C 208 18.8 210.6 21 213.7 21 C 216.51 21.03 218.3 19.2 218.3 19.2 L 219.3 20.7 C 219.3 20.7 217.08 22.86 213.7 22.9 C 209.2 22.9 205.8 19.6 205.8 15 C 205.8 10 209.2 7.1 213.2 7.1 Z M 217.4 13.4 C 217.3 10.3 215.4 8.8 213.2 8.8 C 210.7 8.8 208.5 10.4 208 13.4 C 208 13.4 217.4 13.4 217.4 13.4 Z M 214.3 1.4 L 216.6 1.4 L 214 5 L 212.2 5 L 214.3 1.4 Z M 223.6 9.8 C 223.6 9.4 223.4 9.2 223 9.2 C 222.96 9.18 221.7 9.2 221.7 9.2 L 221.7 7.4 C 221.7 7.4 223.8 7.41 223.8 7.4 C 225.1 7.4 225.6 8 225.6 9.1 C 225.6 9.1 225.6 9.8 225.6 9.8 C 225.63 10.38 225.6 10.9 225.6 10.9 C 225.6 10.9 225.63 10.86 225.6 10.9 C 226.2 9.5 228.1 7.1 231.6 7.1 C 235.4 7.1 236.7 9.2 236.7 12.9 C 236.7 12.9 236.7 20.1 236.7 20.1 C 236.7 20.5 236.9 20.7 237.4 20.7 C 237.36 20.73 238.6 20.7 238.6 20.7 L 238.6 22.5 C 238.6 22.5 236.49 22.5 236.5 22.5 C 235.2 22.5 234.7 22 234.7 20.7 C 234.7 20.7 234.7 13.4 234.7 13.4 C 234.7 11.1 234.3 9 231.4 9 C 228.8 9 226.6 10.7 225.9 13.2 C 225.7 13.9 225.7 14.6 225.7 15.3 C 225.66 15.27 225.7 22.5 225.7 22.5 L 223.6 22.5 C 223.6 22.5 223.62 9.84 223.6 9.8 Z M 248.4 7.1 C 252.8 7.1 256.4 10.4 256.4 14.9 C 256.4 19.4 252.8 22.9 248.4 22.9 C 244 22.9 240.4 19.4 240.4 14.9 C 240.4 10.4 244 7.1 248.4 7.1 Z M 248.4 21 C 251.6 21 254.3 18.4 254.3 14.9 C 254.3 11.5 251.6 8.9 248.4 8.9 C 245.2 8.9 242.5 11.5 242.5 14.9 C 242.5 18.4 245.2 21 248.4 21 Z M 259 9.9 C 258.8 9.3 258.5 9.2 258 9.2 C 257.97 9.18 257.7 9.2 257.7 9.2 L 257.7 7.4 C 257.7 7.4 258.51 7.41 258.5 7.4 C 259.9 7.4 260.4 7.7 260.9 9.1 C 260.9 9.1 264.5 18.5 264.5 18.5 C 264.81 19.23 265 20.3 265 20.3 L 265.1 20.3 C 265.1 20.3 265.35 19.23 265.6 18.5 C 265.6 18.5 269.2 9.1 269.2 9.1 C 269.8 7.7 270.2 7.4 271.6 7.4 C 271.62 7.41 272.4 7.4 272.4 7.4 L 272.4 9.2 C 272.4 9.2 272.13 9.18 272.1 9.2 C 271.6 9.2 271.3 9.3 271.1 9.9 C 271.08 9.87 266.2 22.5 266.2 22.5 L 263.9 22.5 C 263.9 22.5 259.02 9.87 259 9.9 Z " stroke="none" fill="#ee3078"/>  </g></svg>