<?xml version="1.0" standalone="no"?><!DOCTYPE svg PUBLIC "-//W3C//DTD SVG 1.1//EN" "http://www.w3.org/Graphics/SVG/1.1/DTD/svg11.dtd"><svg xmlns="http://www.w3.org/2000/svg" version="1.1" width="67px" height="25.3px" viewBox="0 -3 67 25.3" style="top:-3px">  <desc>etrnos</desc>  <defs/>  <g id="Polygon81447">    <path d="M 1.6 10 C 1.6 10 2.81 11.41 4.6 11.4 C 5.7 11.4 6.6 10.7 6.6 9.6 C 6.6 7.1 0.9 7.5 0.9 3.8 C 0.9 2 2.4 0.5 4.7 0.5 C 6 0.5 8.1 1.1 8.1 2.8 C 8.11 2.75 8.1 3.7 8.1 3.7 L 6.5 3.7 C 6.5 3.7 6.55 3.18 6.5 3.2 C 6.5 2.5 5.6 2.1 4.7 2.1 C 3.4 2.1 2.6 2.8 2.6 3.7 C 2.6 6.1 8.4 5.6 8.4 9.5 C 8.4 11.4 6.9 13 4.6 13 C 2.01 12.95 0.6 11.2 0.6 11.2 L 1.6 10 Z M 2.4 -2.2 L 3.7 -2.2 L 4.6 -0.9 L 4.7 -0.9 L 5.5 -2.2 L 6.9 -2.2 L 5.4 -0.1 L 3.9 -0.1 L 2.4 -2.2 Z M 14.1 3.9 C 16.5 3.9 17.8 5.7 17.8 8 C 17.78 8.19 17.7 8.7 17.7 8.7 C 17.7 8.7 11.46 8.65 11.5 8.7 C 11.6 10.5 12.9 11.5 14.4 11.5 C 15.89 11.53 16.9 10.5 16.9 10.5 L 17.6 11.7 C 17.6 11.7 16.37 12.95 14.3 13 C 11.6 13 9.8 11 9.8 8.4 C 9.8 5.7 11.6 3.9 14.1 3.9 Z M 16.1 7.4 C 16 6 15.1 5.3 14.1 5.3 C 12.8 5.3 11.8 6 11.5 7.4 C 11.5 7.4 16.1 7.4 16.1 7.4 Z M 20 5.5 L 18.9 5.5 L 18.9 4.1 L 20.1 4.1 L 20.1 1.8 L 21.7 1.8 L 21.7 4.1 L 23.7 4.1 L 23.7 5.5 L 21.7 5.5 C 21.7 5.5 21.69 9.42 21.7 9.4 C 21.7 11.1 22.9 11.4 23.5 11.4 C 23.75 11.36 23.9 11.3 23.9 11.3 L 23.9 12.8 C 23.9 12.8 23.68 12.82 23.3 12.8 C 22.2 12.8 20 12.5 20 9.6 C 20.04 9.6 20 5.5 20 5.5 Z M 26 5.9 C 26 5.7 25.8 5.6 25.6 5.6 C 25.58 5.56 24.9 5.6 24.9 5.6 L 24.9 4.1 C 24.9 4.1 26.45 4.15 26.5 4.1 C 27.2 4.1 27.6 4.5 27.6 5.2 C 27.6 5.2 27.6 5.7 27.6 5.7 C 27.56 6.03 27.5 6.3 27.5 6.3 C 27.5 6.3 27.56 6.29 27.6 6.3 C 28 5 29 4 30.3 4 C 30.5 4.05 30.7 4.1 30.7 4.1 L 30.7 5.7 C 30.7 5.7 30.5 5.66 30.2 5.7 C 29.2 5.7 28.2 6.4 27.8 7.7 C 27.7 8.2 27.6 8.7 27.6 9.2 C 27.61 9.23 27.6 12.8 27.6 12.8 L 26 12.8 C 26 12.8 25.96 5.93 26 5.9 Z M 32.7 5.9 C 32.7 5.7 32.5 5.6 32.3 5.6 C 32.28 5.56 31.6 5.6 31.6 5.6 L 31.6 4.1 C 31.6 4.1 33.17 4.15 33.2 4.1 C 33.9 4.1 34.3 4.5 34.3 5.1 C 34.3 5.1 34.3 5.4 34.3 5.4 C 34.25 5.69 34.2 5.9 34.2 5.9 C 34.2 5.9 34.25 5.92 34.3 5.9 C 34.6 5.2 35.6 3.9 37.5 3.9 C 39.5 3.9 40.4 5 40.4 7.2 C 40.4 7.2 40.4 11 40.4 11 C 40.4 11.2 40.6 11.3 40.8 11.3 C 40.82 11.34 41.5 11.3 41.5 11.3 L 41.5 12.8 C 41.5 12.8 39.88 12.75 39.9 12.8 C 39.1 12.8 38.8 12.4 38.8 11.7 C 38.8 11.7 38.8 7.6 38.8 7.6 C 38.8 6.4 38.6 5.5 37.2 5.5 C 35.9 5.5 34.8 6.3 34.5 7.6 C 34.3 7.9 34.3 8.3 34.3 8.7 C 34.3 8.72 34.3 12.8 34.3 12.8 L 32.7 12.8 C 32.7 12.8 32.66 5.93 32.7 5.9 Z M 47.1 3.9 C 49.7 3.9 51.7 5.8 51.7 8.4 C 51.7 11 49.7 13 47.1 13 C 44.5 13 42.5 11 42.5 8.4 C 42.5 5.8 44.5 3.9 47.1 3.9 Z M 47.1 11.5 C 48.7 11.5 50 10.2 50 8.4 C 50 6.6 48.7 5.4 47.1 5.4 C 45.5 5.4 44.1 6.6 44.1 8.4 C 44.1 10.2 45.5 11.5 47.1 11.5 Z M 53.7 10.3 C 53.7 10.3 54.67 11.61 56.3 11.6 C 57.1 11.6 57.7 11.3 57.7 10.5 C 57.7 9 53.1 9.1 53.1 6.4 C 53.1 4.7 54.5 3.9 56.3 3.9 C 57.3 3.9 59.1 4.3 59.1 5.6 C 59.07 5.61 59.1 6.4 59.1 6.4 L 57.6 6.4 C 57.6 6.4 57.59 6 57.6 6 C 57.6 5.5 56.8 5.3 56.3 5.3 C 55.3 5.3 54.7 5.6 54.7 6.3 C 54.7 7.9 59.4 7.6 59.4 10.4 C 59.4 12 58 13 56.2 13 C 53.94 12.95 52.8 11.4 52.8 11.4 L 53.7 10.3 Z M 61.6 5.5 L 60.5 5.5 L 60.5 4.1 L 61.6 4.1 L 61.6 1.8 L 63.3 1.8 L 63.3 4.1 L 65.3 4.1 L 65.3 5.5 L 63.3 5.5 C 63.3 5.5 63.26 9.42 63.3 9.4 C 63.3 11.1 64.4 11.4 65.1 11.4 C 65.31 11.36 65.5 11.3 65.5 11.3 L 65.5 12.8 C 65.5 12.8 65.24 12.82 64.9 12.8 C 63.8 12.8 61.6 12.5 61.6 9.6 C 61.61 9.6 61.6 5.5 61.6 5.5 Z M 65.7 0.7 C 65.7 1.1 65.8 1.3 65.8 1.6 C 65.8 2.1 65.6 2.6 65.4 3.1 C 65.4 3.1 64.2 3.1 64.2 3.1 C 64.4 2.6 64.5 2.2 64.5 1.8 C 64.5 1.4 64.5 1.1 64.3 0.7 C 64.3 0.7 65.7 0.7 65.7 0.7 Z " stroke="none" fill="#ee3078"/>  </g></svg>