<?xml version="1.0" standalone="no"?><!DOCTYPE svg PUBLIC "-//W3C//DTD SVG 1.1//EN" "http://www.w3.org/Graphics/SVG/1.1/DTD/svg11.dtd"><svg xmlns="http://www.w3.org/2000/svg" version="1.1" width="44px" height="19.5px" viewBox="0 -1 44 19.5" style="top:-1px">  <desc>38.2%</desc>  <defs/>  <g id="Polygon79587">    <path d="M 9.5 12.6 C 9.1 12.6 8.6 12.5 8.1 12.4 C 8.13 12.42 8.1 11.7 8.1 11.7 C 8.1 11.7 8.2 11.69 8.2 11.7 C 8.4 11.7 8.6 11.8 8.8 11.8 C 9 11.8 9.2 11.8 9.4 11.8 C 10 11.8 10.5 11.7 10.8 11.4 C 11.1 11.1 11.3 10.7 11.3 10.2 C 11.3 9.7 11.1 9.2 10.8 8.9 C 10.5 8.7 9.9 8.5 9.3 8.5 C 9.26 8.52 8.9 8.5 8.9 8.5 L 8.9 7.8 C 8.9 7.8 9.25 7.8 9.2 7.8 C 9.8 7.8 10.3 7.7 10.6 7.4 C 10.9 7.1 11 6.8 11 6.2 C 11 5.2 10.5 4.7 9.5 4.7 C 9.3 4.7 9.1 4.7 8.9 4.8 C 8.7 4.8 8.5 4.8 8.2 4.9 C 8.24 4.87 8.2 4.9 8.2 4.9 C 8.2 4.9 8.1 4.15 8.1 4.2 C 8.3 4.1 8.6 4 8.8 4 C 9.1 4 9.3 4 9.6 4 C 10.3 4 10.9 4.2 11.3 4.5 C 11.8 4.9 12 5.4 12 6.1 C 12 6.6 11.8 7.1 11.6 7.4 C 11.4 7.7 11 8 10.6 8.1 C 10.6 8.1 10.6 8.2 10.6 8.2 C 11.1 8.3 11.5 8.5 11.8 8.9 C 12.1 9.2 12.2 9.7 12.2 10.3 C 12.2 11 12 11.6 11.5 12 C 11 12.4 10.4 12.6 9.5 12.6 Z M 15.8 12.5 C 15 12.5 14.4 12.3 13.9 12 C 13.5 11.6 13.2 11.1 13.2 10.4 C 13.2 10.1 13.3 9.8 13.4 9.6 C 13.4 9.3 13.5 9.1 13.6 9 C 13.8 8.8 13.9 8.6 14.1 8.5 C 14.3 8.3 14.4 8.2 14.6 8.1 C 14.3 7.9 14 7.7 13.8 7.4 C 13.6 7.1 13.5 6.6 13.5 6.1 C 13.5 5.4 13.7 4.9 14.1 4.5 C 14.5 4.2 15.1 4 15.8 4 C 16.5 4 17 4.2 17.4 4.5 C 17.8 4.9 18 5.4 18 6.1 C 18 6.7 17.9 7.1 17.7 7.4 C 17.5 7.7 17.2 8 16.9 8.2 C 17.3 8.4 17.6 8.6 17.9 9 C 18.1 9.3 18.3 9.7 18.3 10.3 C 18.3 11 18 11.5 17.6 11.9 C 17.2 12.3 16.5 12.5 15.8 12.5 Z M 15.3 8.4 C 15 8.6 14.7 8.8 14.5 9.1 C 14.2 9.4 14.1 9.8 14.1 10.3 C 14.1 10.8 14.2 11.2 14.5 11.4 C 14.9 11.7 15.3 11.8 15.8 11.8 C 16.2 11.8 16.7 11.7 17 11.4 C 17.3 11.2 17.4 10.8 17.4 10.4 C 17.4 10.1 17.4 9.9 17.3 9.7 C 17.2 9.5 17.1 9.3 17 9.2 C 16.8 9 16.6 8.9 16.4 8.8 C 16.2 8.7 15.9 8.6 15.6 8.5 C 15.6 8.5 15.3 8.4 15.3 8.4 Z M 14.3 6.2 C 14.3 6.4 14.3 6.6 14.4 6.8 C 14.5 7 14.6 7.1 14.8 7.3 C 14.9 7.4 15.1 7.5 15.3 7.6 C 15.5 7.7 15.8 7.8 16.1 7.9 C 16.1 7.9 16.1 7.9 16.1 7.9 C 16.4 7.8 16.7 7.5 16.9 7.3 C 17.1 7 17.2 6.6 17.2 6.1 C 17.2 5.7 17.1 5.3 16.8 5 C 16.6 4.8 16.2 4.7 15.8 4.7 C 15.3 4.7 15 4.8 14.7 5.1 C 14.4 5.3 14.3 5.7 14.3 6.2 Z M 20.6 11.9 C 20.6 12.3 20.4 12.5 20 12.5 C 19.6 12.5 19.4 12.3 19.4 11.9 C 19.4 11.6 19.6 11.4 20 11.4 C 20.2 11.4 20.3 11.4 20.4 11.5 C 20.5 11.6 20.6 11.7 20.6 11.9 C 20.6 11.9 20.6 11.9 20.6 11.9 Z M 21.7 11.3 C 21.7 11 21.7 10.7 21.8 10.4 C 21.8 10.1 22 9.9 22.1 9.6 C 22.3 9.3 22.5 9.1 22.8 8.9 C 23 8.6 23.3 8.4 23.7 8.2 C 24.2 7.8 24.6 7.5 24.8 7.2 C 25 6.9 25.1 6.5 25.1 6.1 C 25.1 5.2 24.6 4.8 23.6 4.8 C 23.1 4.8 22.6 4.9 22 5.1 C 22 5.1 21.9 4.3 21.9 4.3 C 22.2 4.2 22.6 4.1 22.9 4.1 C 23.2 4 23.5 4 23.8 4 C 25.3 4 26 4.7 26 6.1 C 26 6.3 26 6.6 25.9 6.8 C 25.9 7 25.8 7.3 25.6 7.5 C 25.5 7.7 25.3 7.9 25.1 8.1 C 24.8 8.3 24.6 8.5 24.3 8.7 C 24 8.9 23.7 9.2 23.5 9.4 C 23.3 9.6 23.1 9.7 23 9.9 C 22.8 10.1 22.7 10.3 22.7 10.5 C 22.6 10.7 22.6 10.9 22.6 11.2 C 22.57 11.18 22.6 11.7 22.6 11.7 L 26 11.7 L 26 12.5 L 21.7 12.5 C 21.7 12.5 21.66 11.35 21.7 11.3 Z M 28.8 9.3 C 28.2 9.3 27.7 9.1 27.4 8.6 C 27.1 8.2 27 7.5 27 6.6 C 27 5.8 27.1 5.1 27.4 4.6 C 27.8 4.2 28.2 4 28.8 4 C 29.4 4 29.9 4.2 30.2 4.6 C 30.5 5.1 30.6 5.8 30.6 6.6 C 30.6 7.5 30.5 8.2 30.2 8.6 C 29.9 9.1 29.4 9.3 28.8 9.3 Z M 27.7 6.6 C 27.7 8 28.1 8.6 28.8 8.6 C 29.5 8.6 29.9 8 29.9 6.6 C 29.9 5.3 29.5 4.6 28.8 4.6 C 28.1 4.6 27.7 5.3 27.7 6.6 C 27.7 6.6 27.7 6.6 27.7 6.6 Z M 34.1 12.6 C 33.5 12.6 33 12.4 32.7 11.9 C 32.4 11.5 32.2 10.8 32.2 10 C 32.2 9.1 32.4 8.4 32.7 8 C 33 7.5 33.5 7.3 34.1 7.3 C 34.7 7.3 35.1 7.5 35.5 8 C 35.8 8.4 35.9 9.1 35.9 10 C 35.9 10.8 35.8 11.5 35.5 11.9 C 35.1 12.4 34.7 12.6 34.1 12.6 Z M 33 10 C 33 11.3 33.3 12 34.1 12 C 34.8 12 35.2 11.3 35.2 10 C 35.2 8.6 34.8 8 34.1 8 C 33.3 8 33 8.6 33 10 C 33 10 33 10 33 10 Z M 32.7 4.1 L 33.4 4.1 L 30.2 12.5 L 29.4 12.5 L 32.7 4.1 Z " stroke="none" fill="#68adca"/>  </g></svg>