<?xml version="1.0" standalone="no"?><!DOCTYPE svg PUBLIC "-//W3C//DTD SVG 1.1//EN" "http://www.w3.org/Graphics/SVG/1.1/DTD/svg11.dtd"><svg xmlns="http://www.w3.org/2000/svg" version="1.1" width="723px" height="84px" viewBox="0 -4 723 84" style="top:-4px">  <desc>Drovelis nesp sobuje iadnu zmenu telesnej hmotnosti, pr padne len minim lnu, v aka spolo n mu p sobeniu estetrolu a ...</desc>  <defs/>  <g id="Polygon71547">    <path d="M 6.8 56.7 C 6.84 56.7 7.3 56.7 7.3 56.7 C 7.3 56.7 7.28 56.6 7.3 56.6 C 7.3 54.8 6.6 54.2 5 54.2 C 4.6 54.2 3.4 54.3 3.4 55 C 3.38 54.96 3.4 55.5 3.4 55.5 L 1.6 55.5 C 1.6 55.5 1.56 54.54 1.6 54.5 C 1.6 52.9 4.1 52.6 5.1 52.6 C 8.3 52.6 9.2 54.4 9.2 56.6 C 9.2 56.6 9.2 60.9 9.2 60.9 C 9.2 61.2 9.4 61.3 9.7 61.3 C 9.66 61.34 10.5 61.3 10.5 61.3 L 10.5 63 C 10.5 63 8.66 63 8.7 63 C 7.8 63 7.4 62.6 7.4 61.8 C 7.4 61.5 7.4 61.2 7.4 61.2 L 7.4 61.2 C 7.4 61.2 6.6 63.24 4.2 63.2 C 2.4 63.2 0.7 62.2 0.7 60.2 C 0.7 56.9 5.1 56.7 6.8 56.7 Z M 4.6 61.7 C 6.2 61.7 7.3 60 7.3 58.5 C 7.3 58.46 7.3 58.1 7.3 58.1 C 7.3 58.1 6.8 58.12 6.8 58.1 C 5.3 58.1 2.7 58.2 2.7 60.1 C 2.7 60.9 3.3 61.7 4.6 61.7 Z M 23.1 56.7 C 23.1 56.7 23.5 56.7 23.5 56.7 C 23.5 56.7 23.54 56.6 23.5 56.6 C 23.5 54.8 22.9 54.2 21.3 54.2 C 20.8 54.2 19.6 54.3 19.6 55 C 19.64 54.96 19.6 55.5 19.6 55.5 L 17.8 55.5 C 17.8 55.5 17.82 54.54 17.8 54.5 C 17.8 52.9 20.3 52.6 21.3 52.6 C 24.6 52.6 25.5 54.4 25.5 56.6 C 25.5 56.6 25.5 60.9 25.5 60.9 C 25.5 61.2 25.6 61.3 25.9 61.3 C 25.92 61.34 26.7 61.3 26.7 61.3 L 26.7 63 C 26.7 63 24.92 63 24.9 63 C 24 63 23.7 62.6 23.7 61.8 C 23.66 61.5 23.7 61.2 23.7 61.2 L 23.7 61.2 C 23.7 61.2 22.86 63.24 20.4 63.2 C 18.7 63.2 17 62.2 17 60.2 C 17 56.9 21.4 56.7 23.1 56.7 Z M 20.9 61.7 C 22.5 61.7 23.6 60 23.6 58.5 C 23.56 58.46 23.6 58.1 23.6 58.1 C 23.6 58.1 23.06 58.12 23.1 58.1 C 21.6 58.1 19 58.2 19 60.1 C 19 60.9 19.6 61.7 20.9 61.7 Z M 28.8 55 C 28.8 54.7 28.7 54.5 28.4 54.5 C 28.4 54.54 27.6 54.5 27.6 54.5 L 27.6 52.9 C 27.6 52.9 29.44 52.88 29.4 52.9 C 30.3 52.9 30.7 53.3 30.7 54 C 30.7 54 30.7 54.4 30.7 54.4 C 30.72 54.7 30.7 55 30.7 55 C 30.7 55 30.72 54.96 30.7 55 C 31.1 54.1 32.3 52.6 34.5 52.6 C 36.9 52.6 38 53.9 38 56.5 C 38 56.5 38 60.9 38 60.9 C 38 61.2 38.2 61.3 38.4 61.3 C 38.44 61.34 39.3 61.3 39.3 61.3 L 39.3 63 C 39.3 63 37.34 63 37.3 63 C 36.4 63 36.1 62.6 36.1 61.7 C 36.1 61.7 36.1 57 36.1 57 C 36.1 55.5 35.8 54.4 34.2 54.4 C 32.6 54.4 31.4 55.4 31 56.9 C 30.8 57.3 30.8 57.8 30.8 58.3 C 30.78 58.26 30.8 63 30.8 63 L 28.8 63 C 28.8 63 28.84 54.98 28.8 55 Z M 41.4 54.4 L 40.1 54.4 L 40.1 52.9 L 41.5 52.9 L 41.5 50.1 L 43.4 50.1 L 43.4 52.9 L 45.8 52.9 L 45.8 54.4 L 43.4 54.4 C 43.4 54.4 43.38 59.08 43.4 59.1 C 43.4 61.1 44.8 61.4 45.5 61.4 C 45.8 61.36 46 61.3 46 61.3 L 46 63 C 46 63 45.72 63.08 45.3 63.1 C 44 63.1 41.4 62.7 41.4 59.3 C 41.44 59.3 41.4 54.4 41.4 54.4 Z M 48.5 48.9 L 50.3 48.9 L 50.3 50.9 L 48.5 50.9 L 48.5 48.9 Z M 48.5 55 C 48.5 54.7 48.3 54.5 48.1 54.5 C 48.06 54.54 47.2 54.5 47.2 54.5 L 47.2 52.9 C 47.2 52.9 49.14 52.88 49.1 52.9 C 50 52.9 50.4 53.3 50.4 54.2 C 50.4 54.2 50.4 60.9 50.4 60.9 C 50.4 61.2 50.6 61.3 50.9 61.3 C 50.86 61.34 51.7 61.3 51.7 61.3 L 51.7 63 C 51.7 63 49.78 63 49.8 63 C 48.9 63 48.5 62.6 48.5 61.7 C 48.5 61.7 48.5 55 48.5 55 Z M 53.9 55 C 53.9 54.7 53.7 54.5 53.5 54.5 C 53.46 54.54 52.6 54.5 52.6 54.5 L 52.6 52.9 C 52.6 52.9 54.5 52.88 54.5 52.9 C 55.4 52.9 55.8 53.3 55.8 54 C 55.8 54 55.8 54.4 55.8 54.4 C 55.78 54.7 55.8 55 55.8 55 C 55.8 55 55.8 54.96 55.8 55 C 56.3 53.8 57.7 52.6 59.3 52.6 C 61 52.6 62 53.4 62.3 54.9 C 62.3 54.9 62.3 54.9 62.3 54.9 C 62.9 53.7 64.3 52.6 65.9 52.6 C 68.2 52.6 69.3 53.9 69.3 56.5 C 69.3 56.5 69.3 60.9 69.3 60.9 C 69.3 61.2 69.4 61.3 69.7 61.3 C 69.72 61.34 70.5 61.3 70.5 61.3 L 70.5 63 C 70.5 63 68.62 63 68.6 63 C 67.7 63 67.3 62.6 67.3 61.7 C 67.3 61.7 67.3 56.9 67.3 56.9 C 67.3 55.5 67.1 54.4 65.6 54.4 C 64.2 54.4 63.1 55.6 62.7 57 C 62.6 57.4 62.6 57.9 62.6 58.4 C 62.56 58.38 62.6 63 62.6 63 L 60.6 63 C 60.6 63 60.62 56.94 60.6 56.9 C 60.6 55.6 60.4 54.4 58.9 54.4 C 57.4 54.4 56.4 55.6 56 57.1 C 55.9 57.5 55.8 57.9 55.8 58.4 C 55.84 58.38 55.8 63 55.8 63 L 53.9 63 C 53.9 63 53.9 54.98 53.9 55 Z M 72.8 48.9 L 74.5 48.9 L 74.5 50.9 L 72.8 50.9 L 72.8 48.9 Z M 72.7 55 C 72.7 54.7 72.6 54.5 72.3 54.5 C 72.3 54.54 71.5 54.5 71.5 54.5 L 71.5 52.9 C 71.5 52.9 73.38 52.88 73.4 52.9 C 74.3 52.9 74.7 53.3 74.7 54.2 C 74.7 54.2 74.7 60.9 74.7 60.9 C 74.7 61.2 74.8 61.3 75.1 61.3 C 75.1 61.34 75.9 61.3 75.9 61.3 L 75.9 63 C 75.9 63 74.02 63 74 63 C 73.1 63 72.7 62.6 72.7 61.7 C 72.7 61.7 72.7 55 72.7 55 Z M 78.1 55 C 78.1 54.7 78 54.5 77.7 54.5 C 77.7 54.54 76.9 54.5 76.9 54.5 L 76.9 52.9 C 76.9 52.9 78.74 52.88 78.7 52.9 C 79.6 52.9 80 53.3 80 54 C 80 54 80 54.4 80 54.4 C 80.02 54.7 80 55 80 55 C 80 55 80.02 54.96 80 55 C 80.4 54.1 81.6 52.6 83.8 52.6 C 86.2 52.6 87.3 53.9 87.3 56.5 C 87.3 56.5 87.3 60.9 87.3 60.9 C 87.3 61.2 87.5 61.3 87.7 61.3 C 87.74 61.34 88.6 61.3 88.6 61.3 L 88.6 63 C 88.6 63 86.64 63 86.6 63 C 85.7 63 85.4 62.6 85.4 61.7 C 85.4 61.7 85.4 57 85.4 57 C 85.4 55.5 85.1 54.4 83.5 54.4 C 81.9 54.4 80.7 55.4 80.3 56.9 C 80.1 57.3 80.1 57.8 80.1 58.3 C 80.08 58.26 80.1 63 80.1 63 L 78.1 63 C 78.1 63 78.14 54.98 78.1 55 Z M 94.8 52.6 C 97.6 52.6 99.1 54.8 99.1 57.4 C 99.12 57.64 99.1 58.2 99.1 58.2 C 99.1 58.2 91.68 58.18 91.7 58.2 C 91.8 60.3 93.4 61.6 95.2 61.6 C 96.9 61.56 98.1 60.4 98.1 60.4 L 99 61.8 C 99 61.8 97.46 63.24 95.1 63.2 C 91.9 63.2 89.7 60.9 89.7 57.9 C 89.7 54.7 91.9 52.6 94.8 52.6 Z M 97.1 56.8 C 97.1 55.1 96 54.2 94.7 54.2 C 93.3 54.2 92.1 55.1 91.8 56.8 C 91.8 56.8 97.1 56.8 97.1 56.8 Z M 101.7 55 C 101.7 54.7 101.5 54.5 101.3 54.5 C 101.26 54.54 100.4 54.5 100.4 54.5 L 100.4 52.9 C 100.4 52.9 102.28 52.88 102.3 52.9 C 103.2 52.9 103.6 53.2 103.6 54.1 C 103.6 54.1 103.6 54.7 103.6 54.7 C 103.58 55.1 103.5 55.4 103.5 55.4 C 103.5 55.4 103.58 55.4 103.6 55.4 C 104.1 53.9 105.2 52.8 106.8 52.8 C 107.04 52.76 107.3 52.8 107.3 52.8 L 107.3 54.7 C 107.3 54.7 107.04 54.66 106.7 54.7 C 105.5 54.7 104.3 55.5 103.9 57 C 103.7 57.6 103.6 58.2 103.6 58.9 C 103.64 58.86 103.6 63 103.6 63 L 101.7 63 C 101.7 63 101.7 54.98 101.7 55 Z M 114 56.7 C 113.96 56.7 114.4 56.7 114.4 56.7 C 114.4 56.7 114.4 56.6 114.4 56.6 C 114.4 54.8 113.7 54.2 112.2 54.2 C 111.7 54.2 110.5 54.3 110.5 55 C 110.5 54.96 110.5 55.5 110.5 55.5 L 108.7 55.5 C 108.7 55.5 108.68 54.54 108.7 54.5 C 108.7 52.9 111.2 52.6 112.2 52.6 C 115.5 52.6 116.3 54.4 116.3 56.6 C 116.3 56.6 116.3 60.9 116.3 60.9 C 116.3 61.2 116.5 61.3 116.8 61.3 C 116.78 61.34 117.6 61.3 117.6 61.3 L 117.6 63 C 117.6 63 115.78 63 115.8 63 C 114.9 63 114.5 62.6 114.5 61.8 C 114.52 61.5 114.6 61.2 114.6 61.2 L 114.5 61.2 C 114.5 61.2 113.72 63.24 111.3 63.2 C 109.6 63.2 107.9 62.2 107.9 60.2 C 107.9 56.9 112.3 56.7 114 56.7 Z M 111.7 61.7 C 113.4 61.7 114.4 60 114.4 58.5 C 114.42 58.46 114.4 58.1 114.4 58.1 C 114.4 58.1 113.92 58.12 113.9 58.1 C 112.5 58.1 109.8 58.2 109.8 60.1 C 109.8 60.9 110.4 61.7 111.7 61.7 Z M 119.7 51 C 119.7 50.7 119.5 50.5 119.2 50.5 C 119.22 50.54 118.4 50.5 118.4 50.5 L 118.4 48.9 C 118.4 48.9 120.32 48.88 120.3 48.9 C 121.2 48.9 121.6 49.3 121.6 50.2 C 121.6 50.2 121.6 60.9 121.6 60.9 C 121.6 61.2 121.8 61.3 122 61.3 C 122.04 61.34 122.9 61.3 122.9 61.3 L 122.9 63 C 122.9 63 120.94 63 120.9 63 C 120 63 119.7 62.6 119.7 61.7 C 119.7 61.7 119.7 51 119.7 51 Z M 129.5 52.6 C 132.5 52.6 135 54.9 135 57.9 C 135 61 132.5 63.2 129.5 63.2 C 126.5 63.2 124.1 61 124.1 57.9 C 124.1 54.9 126.5 52.6 129.5 52.6 Z M 129.5 61.6 C 131.4 61.6 133 60 133 57.9 C 133 55.8 131.4 54.3 129.5 54.3 C 127.6 54.3 126.1 55.8 126.1 57.9 C 126.1 60 127.6 61.6 129.5 61.6 Z M 137.1 51 C 137.1 50.7 137 50.5 136.7 50.5 C 136.7 50.54 135.9 50.5 135.9 50.5 L 135.9 48.9 C 135.9 48.9 137.8 48.88 137.8 48.9 C 138.7 48.9 139.1 49.1 139.1 50 C 139.08 50.04 139.1 56.6 139.1 56.6 C 139.1 56.6 139.98 56.6 140 56.6 C 140.3 56.6 140.8 56.5 141 56.2 C 141.04 56.16 143.4 52.9 143.4 52.9 L 145.6 52.9 C 145.6 52.9 142.86 56.64 142.9 56.6 C 142.4 57.26 142.1 57.4 142.1 57.4 L 142.1 57.4 C 142.1 57.4 142.44 57.56 142.8 58.2 C 142.8 58.2 144.3 60.9 144.3 60.9 C 144.4 61.3 144.6 61.3 145.1 61.3 C 145.14 61.34 145.8 61.3 145.8 61.3 L 145.8 63 C 145.8 63 144.36 63 144.4 63 C 143.4 63 143.1 62.8 142.7 62.1 C 142.7 62.1 140.8 58.7 140.8 58.7 C 140.6 58.3 140.2 58.2 139.8 58.2 C 139.84 58.24 139.1 58.2 139.1 58.2 L 139.1 63 L 137.1 63 C 137.1 63 137.14 50.98 137.1 51 Z M 152 52.6 C 155 52.6 157.5 54.9 157.5 57.9 C 157.5 61 155 63.2 152 63.2 C 149 63.2 146.6 61 146.6 57.9 C 146.6 54.9 149 52.6 152 52.6 Z M 152 61.6 C 153.9 61.6 155.5 60 155.5 57.9 C 155.5 55.8 153.9 54.3 152 54.3 C 150.1 54.3 148.5 55.8 148.5 57.9 C 148.5 60 150.1 61.6 152 61.6 Z M 159.9 55 C 159.9 54.7 159.7 54.5 159.4 54.5 C 159.44 54.54 158.6 54.5 158.6 54.5 L 158.6 52.9 C 158.6 52.9 160.46 52.88 160.5 52.9 C 161.3 52.9 161.8 53.2 161.8 54.1 C 161.8 54.1 161.8 54.7 161.8 54.7 C 161.76 55.1 161.7 55.4 161.7 55.4 C 161.7 55.4 161.76 55.4 161.8 55.4 C 162.2 53.9 163.4 52.8 165 52.8 C 165.22 52.76 165.5 52.8 165.5 52.8 L 165.5 54.7 C 165.5 54.7 165.22 54.66 164.9 54.7 C 163.7 54.7 162.5 55.5 162.1 57 C 161.9 57.6 161.8 58.2 161.8 58.9 C 161.82 58.86 161.8 63 161.8 63 L 159.9 63 C 159.9 63 159.88 54.98 159.9 55 Z M 167.7 54.4 L 166.4 54.4 L 166.4 52.9 L 167.7 52.9 L 167.7 50.1 L 169.6 50.1 L 169.6 52.9 L 172.1 52.9 L 172.1 54.4 L 169.6 54.4 C 169.6 54.4 169.64 59.08 169.6 59.1 C 169.6 61.1 171 61.4 171.8 61.4 C 172.06 61.36 172.2 61.3 172.2 61.3 L 172.2 63 C 172.2 63 171.98 63.08 171.6 63.1 C 170.3 63.1 167.7 62.7 167.7 59.3 C 167.7 59.3 167.7 54.4 167.7 54.4 Z M 174.8 48.9 L 176.5 48.9 L 176.5 50.9 L 174.8 50.9 L 174.8 48.9 Z M 174.8 55 C 174.8 54.7 174.6 54.5 174.3 54.5 C 174.32 54.54 173.5 54.5 173.5 54.5 L 173.5 52.9 C 173.5 52.9 175.4 52.88 175.4 52.9 C 176.3 52.9 176.7 53.3 176.7 54.2 C 176.7 54.2 176.7 60.9 176.7 60.9 C 176.7 61.2 176.8 61.3 177.1 61.3 C 177.12 61.34 177.9 61.3 177.9 61.3 L 177.9 63 C 177.9 63 176.04 63 176 63 C 175.1 63 174.8 62.6 174.8 61.7 C 174.8 61.7 174.8 55 174.8 55 Z M 180.1 51 C 180.1 50.7 179.9 50.5 179.6 50.5 C 179.64 50.54 178.8 50.5 178.8 50.5 L 178.8 48.9 C 178.8 48.9 180.74 48.88 180.7 48.9 C 181.6 48.9 182 49.1 182 50 C 182.02 50.04 182 56.6 182 56.6 C 182 56.6 182.92 56.6 182.9 56.6 C 183.3 56.6 183.7 56.5 184 56.2 C 183.98 56.16 186.3 52.9 186.3 52.9 L 188.5 52.9 C 188.5 52.9 185.8 56.64 185.8 56.6 C 185.34 57.26 185 57.4 185 57.4 L 185 57.4 C 185 57.4 185.38 57.56 185.7 58.2 C 185.7 58.2 187.2 60.9 187.2 60.9 C 187.4 61.3 187.6 61.3 188.1 61.3 C 188.08 61.34 188.7 61.3 188.7 61.3 L 188.7 63 C 188.7 63 187.3 63 187.3 63 C 186.4 63 186.1 62.8 185.6 62.1 C 185.6 62.1 183.8 58.7 183.8 58.7 C 183.6 58.3 183.1 58.2 182.8 58.2 C 182.78 58.24 182 58.2 182 58.2 L 182 63 L 180.1 63 C 180.1 63 180.08 50.98 180.1 51 Z M 194.9 52.6 C 198 52.6 200.4 54.9 200.4 57.9 C 200.4 61 198 63.2 194.9 63.2 C 191.9 63.2 189.5 61 189.5 57.9 C 189.5 54.9 191.9 52.6 194.9 52.6 Z M 194.9 61.6 C 196.9 61.6 198.4 60 198.4 57.9 C 198.4 55.8 196.9 54.3 194.9 54.3 C 193 54.3 191.5 55.8 191.5 57.9 C 191.5 60 193 61.6 194.9 61.6 Z M 203 48.9 L 204.7 48.9 L 204.7 50.9 L 203 50.9 L 203 48.9 Z M 202.9 55 C 202.9 54.7 202.8 54.5 202.5 54.5 C 202.48 54.54 201.7 54.5 201.7 54.5 L 201.7 52.9 C 201.7 52.9 203.56 52.88 203.6 52.9 C 204.5 52.9 204.8 53.3 204.8 54.2 C 204.8 54.2 204.8 60.9 204.8 60.9 C 204.8 61.2 205 61.3 205.3 61.3 C 205.28 61.34 206.1 61.3 206.1 61.3 L 206.1 63 C 206.1 63 204.2 63 204.2 63 C 203.3 63 202.9 62.6 202.9 61.7 C 202.9 61.7 202.9 55 202.9 55 Z M 211.9 52.6 C 214.28 52.64 215.1 54.2 215.1 54.2 L 215.1 54.2 C 215.1 54.2 215.06 53.9 215.1 53.5 C 215.1 53.5 215.1 51 215.1 51 C 215.1 50.7 214.9 50.5 214.6 50.5 C 214.62 50.54 213.8 50.5 213.8 50.5 L 213.8 48.9 C 213.8 48.9 215.72 48.88 215.7 48.9 C 216.6 48.9 217 49.3 217 50.2 C 217 50.2 217 60.9 217 60.9 C 217 61.2 217.2 61.3 217.4 61.3 C 217.44 61.34 218.3 61.3 218.3 61.3 L 218.3 63 C 218.3 63 216.4 63 216.4 63 C 215.5 63 215.2 62.6 215.2 61.9 C 215.16 61.62 215.2 61.4 215.2 61.4 L 215.1 61.4 C 215.1 61.4 214.3 63.24 211.8 63.2 C 209.1 63.2 207.4 61.1 207.4 57.9 C 207.4 54.7 209.3 52.6 211.9 52.6 Z M 215.1 57.9 C 215.1 56.1 214.2 54.3 212.2 54.3 C 210.7 54.3 209.3 55.6 209.3 57.9 C 209.3 60.1 210.5 61.6 212.2 61.6 C 213.7 61.6 215.1 60.5 215.1 57.9 Z M 220.4 55 C 220.4 54.7 220.3 54.5 220 54.5 C 219.98 54.54 219.2 54.5 219.2 54.5 L 219.2 52.9 C 219.2 52.9 221.02 52.88 221 52.9 C 221.9 52.9 222.3 53.3 222.3 54 C 222.3 54 222.3 54.4 222.3 54.4 C 222.3 54.7 222.3 55 222.3 55 C 222.3 55 222.3 54.96 222.3 55 C 222.7 54.1 223.9 52.6 226.1 52.6 C 228.5 52.6 229.6 53.9 229.6 56.5 C 229.6 56.5 229.6 60.9 229.6 60.9 C 229.6 61.2 229.7 61.3 230 61.3 C 230.02 61.34 230.8 61.3 230.8 61.3 L 230.8 63 C 230.8 63 228.92 63 228.9 63 C 228 63 227.6 62.6 227.6 61.7 C 227.6 61.7 227.6 57 227.6 57 C 227.6 55.5 227.4 54.4 225.7 54.4 C 224.2 54.4 222.9 55.4 222.5 56.9 C 222.4 57.3 222.4 57.8 222.4 58.3 C 222.36 58.26 222.4 63 222.4 63 L 220.4 63 C 220.4 63 220.42 54.98 220.4 55 Z M 237 52.6 C 239.9 52.6 241.4 54.8 241.4 57.4 C 241.4 57.64 241.3 58.2 241.3 58.2 C 241.3 58.2 233.96 58.18 234 58.2 C 234.1 60.3 235.6 61.6 237.4 61.6 C 239.18 61.56 240.4 60.4 240.4 60.4 L 241.2 61.8 C 241.2 61.8 239.74 63.24 237.3 63.2 C 234.1 63.2 232 60.9 232 57.9 C 232 54.7 234.2 52.6 237 52.6 Z M 239.4 56.8 C 239.3 55.1 238.3 54.2 237 54.2 C 235.5 54.2 234.3 55.1 234 56.8 C 234 56.8 239.4 56.8 239.4 56.8 Z M 237.7 48.9 L 239.6 48.9 L 237.7 51.4 L 236.2 51.4 L 237.7 48.9 Z M 244 55 C 244 54.7 243.8 54.5 243.5 54.5 C 243.54 54.54 242.7 54.5 242.7 54.5 L 242.7 52.9 C 242.7 52.9 244.58 52.88 244.6 52.9 C 245.5 52.9 245.9 53.3 245.9 54 C 245.9 54 245.9 54.4 245.9 54.4 C 245.86 54.7 245.8 55 245.8 55 C 245.8 55 245.88 54.96 245.9 55 C 246.4 53.8 247.8 52.6 249.3 52.6 C 251.1 52.6 252 53.4 252.4 54.9 C 252.4 54.9 252.4 54.9 252.4 54.9 C 253 53.7 254.4 52.6 256 52.6 C 258.3 52.6 259.4 53.9 259.4 56.5 C 259.4 56.5 259.4 60.9 259.4 60.9 C 259.4 61.2 259.5 61.3 259.8 61.3 C 259.8 61.34 260.6 61.3 260.6 61.3 L 260.6 63 C 260.6 63 258.7 63 258.7 63 C 257.8 63 257.4 62.6 257.4 61.7 C 257.4 61.7 257.4 56.9 257.4 56.9 C 257.4 55.5 257.1 54.4 255.6 54.4 C 254.2 54.4 253.2 55.6 252.8 57 C 252.7 57.4 252.6 57.9 252.6 58.4 C 252.64 58.38 252.6 63 252.6 63 L 250.7 63 C 250.7 63 250.7 56.94 250.7 56.9 C 250.7 55.6 250.5 54.4 249 54.4 C 247.5 54.4 246.4 55.6 246.1 57.1 C 246 57.5 245.9 57.9 245.9 58.4 C 245.92 58.38 245.9 63 245.9 63 L 244 63 C 244 63 243.98 54.98 244 55 Z M 262.7 55 C 262.7 54.7 262.5 54.5 262.2 54.5 C 262.24 54.54 261.4 54.5 261.4 54.5 L 261.4 52.9 C 261.4 52.9 263.32 52.88 263.3 52.9 C 264.2 52.9 264.6 53.3 264.6 54.1 C 264.6 54.1 264.6 58.9 264.6 58.9 C 264.6 60.3 264.9 61.4 266.5 61.4 C 268.6 61.4 269.8 59.6 269.8 57.6 C 269.8 57.62 269.8 52.9 269.8 52.9 L 271.7 52.9 C 271.7 52.9 271.74 60.9 271.7 60.9 C 271.7 61.2 271.9 61.3 272.2 61.3 C 272.18 61.34 273 61.3 273 61.3 L 273 63 C 273 63 271.14 63 271.1 63 C 270.3 63 269.9 62.6 269.9 61.9 C 269.9 61.9 269.9 61.5 269.9 61.5 C 269.86 61.18 269.9 60.9 269.9 60.9 C 269.9 60.9 269.84 60.92 269.8 60.9 C 269.4 61.9 268.1 63.2 266.1 63.2 C 263.8 63.2 262.7 62 262.7 59.4 C 262.7 59.4 262.7 55 262.7 55 Z M 280.5 55 C 280.5 54.7 280.3 54.5 280 54.5 C 280.04 54.54 279.2 54.5 279.2 54.5 L 279.2 52.9 C 279.2 52.9 281.12 52.88 281.1 52.9 C 282 52.9 282.4 53.3 282.4 54.1 C 282.4 54.1 282.4 58.9 282.4 58.9 C 282.4 60.3 282.7 61.4 284.3 61.4 C 286.4 61.4 287.6 59.6 287.6 57.6 C 287.6 57.62 287.6 52.9 287.6 52.9 L 289.5 52.9 C 289.5 52.9 289.54 60.9 289.5 60.9 C 289.5 61.2 289.7 61.3 290 61.3 C 289.98 61.34 290.8 61.3 290.8 61.3 L 290.8 63 C 290.8 63 288.94 63 288.9 63 C 288.1 63 287.7 62.6 287.7 61.9 C 287.7 61.9 287.7 61.5 287.7 61.5 C 287.66 61.18 287.7 60.9 287.7 60.9 C 287.7 60.9 287.64 60.92 287.6 60.9 C 287.2 61.9 285.9 63.2 283.9 63.2 C 281.6 63.2 280.5 62 280.5 59.4 C 280.5 59.4 280.5 55 280.5 55 Z M 285.6 48.9 L 287.5 48.9 L 285.6 51.4 L 284.1 51.4 L 285.6 48.9 Z M 297.4 52.6 C 298.6 52.6 301 53.1 301 54.9 C 301.04 54.86 301 55.9 301 55.9 L 299.3 55.9 C 299.3 55.9 299.28 55.34 299.3 55.3 C 299.3 54.6 298.1 54.3 297.4 54.3 C 295.4 54.3 293.9 55.8 293.9 57.9 C 293.9 60.2 295.6 61.5 297.5 61.5 C 299.4 61.52 300.6 60.1 300.6 60.1 L 301.5 61.5 C 301.5 61.5 300.04 63.24 297.4 63.2 C 294.2 63.2 292 61 292 57.9 C 292 55 294.1 52.6 297.4 52.6 Z M 294.4 48.9 L 296 48.9 L 297 50.5 L 297.1 50.5 L 298.1 48.9 L 299.7 48.9 L 298 51.4 L 296.2 51.4 L 294.4 48.9 Z M 303.7 48.9 L 305.5 48.9 L 305.5 50.9 L 303.7 50.9 L 303.7 48.9 Z M 303.7 55 C 303.7 54.7 303.5 54.5 303.3 54.5 C 303.26 54.54 302.4 54.5 302.4 54.5 L 302.4 52.9 C 302.4 52.9 304.34 52.88 304.3 52.9 C 305.2 52.9 305.6 53.3 305.6 54.2 C 305.6 54.2 305.6 60.9 305.6 60.9 C 305.6 61.2 305.8 61.3 306.1 61.3 C 306.06 61.34 306.9 61.3 306.9 61.3 L 306.9 63 C 306.9 63 304.98 63 305 63 C 304.1 63 303.7 62.6 303.7 61.7 C 303.7 61.7 303.7 55 303.7 55 Z M 309.1 55 C 309.1 54.7 308.9 54.5 308.7 54.5 C 308.66 54.54 307.8 54.5 307.8 54.5 L 307.8 52.9 C 307.8 52.9 309.7 52.88 309.7 52.9 C 310.6 52.9 311 53.3 311 54 C 311 54 311 54.4 311 54.4 C 310.98 54.7 310.9 55 310.9 55 C 310.9 55 310.98 54.96 311 55 C 311.4 54.1 312.6 52.6 314.8 52.6 C 317.2 52.6 318.3 53.9 318.3 56.5 C 318.3 56.5 318.3 60.9 318.3 60.9 C 318.3 61.2 318.4 61.3 318.7 61.3 C 318.7 61.34 319.5 61.3 319.5 61.3 L 319.5 63 C 319.5 63 317.6 63 317.6 63 C 316.7 63 316.3 62.6 316.3 61.7 C 316.3 61.7 316.3 57 316.3 57 C 316.3 55.5 316 54.4 314.4 54.4 C 312.9 54.4 311.6 55.4 311.2 56.9 C 311.1 57.3 311 57.8 311 58.3 C 311.04 58.26 311 63 311 63 L 309.1 63 C 309.1 63 309.1 54.98 309.1 55 Z M 321.5 51 C 321.5 50.7 321.4 50.5 321.1 50.5 C 321.1 50.54 320.3 50.5 320.3 50.5 L 320.3 48.9 C 320.3 48.9 322.2 48.88 322.2 48.9 C 323.1 48.9 323.5 49.1 323.5 50 C 323.48 50.04 323.5 56.6 323.5 56.6 C 323.5 56.6 324.38 56.6 324.4 56.6 C 324.7 56.6 325.2 56.5 325.4 56.2 C 325.44 56.16 327.8 52.9 327.8 52.9 L 330 52.9 C 330 52.9 327.26 56.64 327.3 56.6 C 326.8 57.26 326.5 57.4 326.5 57.4 L 326.5 57.4 C 326.5 57.4 326.84 57.56 327.2 58.2 C 327.2 58.2 328.7 60.9 328.7 60.9 C 328.8 61.3 329 61.3 329.5 61.3 C 329.54 61.34 330.2 61.3 330.2 61.3 L 330.2 63 C 330.2 63 328.76 63 328.8 63 C 327.8 63 327.5 62.8 327.1 62.1 C 327.1 62.1 325.2 58.7 325.2 58.7 C 325 58.3 324.6 58.2 324.2 58.2 C 324.24 58.24 323.5 58.2 323.5 58.2 L 323.5 63 L 321.5 63 C 321.5 63 321.54 50.98 321.5 51 Z M 332.1 55 C 332.1 54.7 331.9 54.5 331.6 54.5 C 331.64 54.54 330.8 54.5 330.8 54.5 L 330.8 52.9 C 330.8 52.9 332.72 52.88 332.7 52.9 C 333.6 52.9 334 53.3 334 54.1 C 334 54.1 334 58.9 334 58.9 C 334 60.3 334.3 61.4 335.9 61.4 C 338 61.4 339.2 59.6 339.2 57.6 C 339.2 57.62 339.2 52.9 339.2 52.9 L 341.1 52.9 C 341.1 52.9 341.14 60.9 341.1 60.9 C 341.1 61.2 341.3 61.3 341.6 61.3 C 341.58 61.34 342.4 61.3 342.4 61.3 L 342.4 63 C 342.4 63 340.54 63 340.5 63 C 339.7 63 339.3 62.6 339.3 61.9 C 339.3 61.9 339.3 61.5 339.3 61.5 C 339.26 61.18 339.3 60.9 339.3 60.9 C 339.3 60.9 339.24 60.92 339.2 60.9 C 338.8 61.9 337.5 63.2 335.5 63.2 C 333.2 63.2 332.1 62 332.1 59.4 C 332.1 59.4 332.1 55 332.1 55 Z M 350.3 50.6 L 349 50.6 L 349 48.9 C 349 48.9 354.7 48.88 354.7 48.9 C 359 48.9 361.8 51.5 361.8 55.9 C 361.8 60.4 359 63 354.7 63 C 354.7 63 351.6 63 351.6 63 C 350.7 63 350.3 62.6 350.3 61.7 C 350.28 61.72 350.3 50.6 350.3 50.6 Z M 352.7 61.3 C 352.7 61.3 354.6 61.3 354.6 61.3 C 357.7 61.3 359.8 59.4 359.8 55.9 C 359.8 52.5 357.7 50.6 354.6 50.6 C 354.56 50.6 352.3 50.6 352.3 50.6 C 352.3 50.6 352.28 60.84 352.3 60.8 C 352.3 61.1 352.4 61.3 352.7 61.3 Z M 364.6 50.6 L 363.3 50.6 L 363.3 48.9 C 363.3 48.9 369.44 48.88 369.4 48.9 C 371.9 48.9 373.7 50.4 373.7 53 C 373.7 55.4 372.1 56.5 371.1 56.8 C 371.12 56.76 371.1 56.8 371.1 56.8 C 371.1 56.8 371.48 56.98 371.7 57.4 C 371.7 57.4 373.4 60.8 373.4 60.8 C 373.6 61.2 373.9 61.3 374.4 61.3 C 374.42 61.28 374.7 61.3 374.7 61.3 L 374.7 63 C 374.7 63 373.7 63 373.7 63 C 372.6 63 372.2 62.9 371.7 61.9 C 371.7 61.9 369.8 58.1 369.8 58.1 C 369.5 57.5 369.2 57.4 368.4 57.4 C 368.42 57.38 366.6 57.4 366.6 57.4 L 366.6 63 L 364.6 63 L 364.6 50.6 Z M 369.2 55.7 C 370.7 55.7 371.6 54.7 371.6 53.1 C 371.6 51.5 370.7 50.6 369.2 50.6 C 369.22 50.6 366.6 50.6 366.6 50.6 L 366.6 55.7 C 366.6 55.7 369.18 55.66 369.2 55.7 Z M 376.7 59.7 C 376.7 59.7 378.18 61.42 380.3 61.4 C 381.6 61.4 382.7 60.6 382.7 59.3 C 382.7 56.4 375.9 56.8 375.9 52.4 C 375.9 50.3 377.7 48.6 380.4 48.6 C 381.9 48.6 384.4 49.3 384.4 51.2 C 384.42 51.24 384.4 52.4 384.4 52.4 L 382.6 52.4 C 382.6 52.4 382.58 51.74 382.6 51.7 C 382.6 51 381.5 50.5 380.4 50.5 C 378.9 50.5 377.9 51.3 377.9 52.4 C 377.9 55.2 384.7 54.6 384.7 59.2 C 384.7 61.4 383 63.2 380.2 63.2 C 377.24 63.24 375.6 61.1 375.6 61.1 L 376.7 59.7 Z M 387.6 50.6 L 386.3 50.6 L 386.3 48.9 C 386.3 48.9 392.51 48.88 392.5 48.9 C 395.1 48.9 396.9 50.6 396.9 53.3 C 396.9 56 395.1 57.8 392.5 57.8 C 392.51 57.78 389.6 57.8 389.6 57.8 L 389.6 63 L 387.6 63 L 387.6 50.6 Z M 392.2 56.1 C 393.9 56.1 394.9 55 394.9 53.3 C 394.9 51.6 393.9 50.6 392.2 50.6 C 392.21 50.6 389.6 50.6 389.6 50.6 L 389.6 56.1 C 389.6 56.1 392.19 56.06 392.2 56.1 Z M 396.7 60.9 L 398.7 60.9 L 398.7 63 L 396.7 63 L 396.7 60.9 Z " stroke="none" fill="#ee3078"/>  </g>  <g id="Polygon71546">    <path d="M 1.7 31 C 1.7 30.7 1.5 30.5 1.3 30.5 C 1.26 30.54 0.4 30.5 0.4 30.5 L 0.4 28.9 C 0.4 28.9 2.26 28.88 2.3 28.9 C 3.2 28.9 3.5 29.3 3.5 29.9 C 3.5 30.2 3.5 30.4 3.5 30.4 L 3.5 30.4 C 3.5 30.4 4.36 28.64 6.9 28.6 C 9.6 28.6 11.3 30.8 11.3 33.9 C 11.3 37.2 9.4 39.2 6.7 39.2 C 4.5 39.24 3.6 37.6 3.6 37.6 L 3.6 37.6 C 3.6 37.6 3.64 37.98 3.6 38.5 C 3.64 38.5 3.6 43 3.6 43 L 1.7 43 C 1.7 43 1.7 30.98 1.7 31 Z M 6.4 37.6 C 8 37.6 9.4 36.3 9.4 34 C 9.4 31.8 8.2 30.3 6.5 30.3 C 5 30.3 3.6 31.4 3.6 34 C 3.6 35.8 4.6 37.6 6.4 37.6 Z M 13.8 31 C 13.8 30.7 13.6 30.5 13.3 30.5 C 13.34 30.54 12.5 30.5 12.5 30.5 L 12.5 28.9 C 12.5 28.9 14.36 28.88 14.4 28.9 C 15.2 28.9 15.7 29.2 15.7 30.1 C 15.7 30.1 15.7 30.7 15.7 30.7 C 15.66 31.1 15.6 31.4 15.6 31.4 C 15.6 31.4 15.66 31.4 15.7 31.4 C 16.1 29.9 17.3 28.8 18.9 28.8 C 19.12 28.76 19.4 28.8 19.4 28.8 L 19.4 30.7 C 19.4 30.7 19.12 30.66 18.8 30.7 C 17.6 30.7 16.4 31.5 16 33 C 15.8 33.6 15.7 34.2 15.7 34.9 C 15.72 34.86 15.7 39 15.7 39 L 13.8 39 C 13.8 39 13.78 30.98 13.8 31 Z M 21.6 31 C 21.6 30.7 21.5 30.5 21.2 30.5 C 21.18 30.54 20.4 30.5 20.4 30.5 L 20.4 28.9 C 20.4 28.9 22.28 28.88 22.3 28.9 C 23.2 28.9 23.6 29.3 23.6 30.2 C 23.6 30.2 23.6 36.9 23.6 36.9 C 23.6 37.2 23.7 37.3 24 37.3 C 24 37.34 24.8 37.3 24.8 37.3 L 24.8 39 C 24.8 39 22.92 39 22.9 39 C 22 39 21.6 38.6 21.6 37.7 C 21.6 37.7 21.6 31 21.6 31 Z M 23.1 24.9 L 25.1 24.9 L 23.2 27.4 L 21.7 27.4 L 23.1 24.9 Z M 27.1 31 C 27.1 30.7 26.9 30.5 26.6 30.5 C 26.62 30.54 25.8 30.5 25.8 30.5 L 25.8 28.9 C 25.8 28.9 27.62 28.88 27.6 28.9 C 28.5 28.9 28.9 29.3 28.9 29.9 C 28.86 30.2 28.8 30.4 28.8 30.4 L 28.9 30.4 C 28.9 30.4 29.72 28.64 32.2 28.6 C 35 28.6 36.7 30.8 36.7 33.9 C 36.7 37.2 34.7 39.2 32.1 39.2 C 29.86 39.24 29 37.6 29 37.6 L 29 37.6 C 29 37.6 29 37.98 29 38.5 C 29 38.5 29 43 29 43 L 27.1 43 C 27.1 43 27.06 30.98 27.1 31 Z M 31.8 37.6 C 33.4 37.6 34.7 36.3 34.7 34 C 34.7 31.8 33.5 30.3 31.9 30.3 C 30.4 30.3 28.9 31.4 28.9 34 C 28.9 35.8 29.9 37.6 31.8 37.6 Z M 44.2 32.7 C 44.18 32.7 44.6 32.7 44.6 32.7 C 44.6 32.7 44.62 32.6 44.6 32.6 C 44.6 30.8 44 30.2 42.4 30.2 C 41.9 30.2 40.7 30.3 40.7 31 C 40.72 30.96 40.7 31.5 40.7 31.5 L 38.9 31.5 C 38.9 31.5 38.9 30.54 38.9 30.5 C 38.9 28.9 41.4 28.6 42.4 28.6 C 45.7 28.6 46.6 30.4 46.6 32.6 C 46.6 32.6 46.6 36.9 46.6 36.9 C 46.6 37.2 46.7 37.3 47 37.3 C 47 37.34 47.8 37.3 47.8 37.3 L 47.8 39 C 47.8 39 46 39 46 39 C 45.1 39 44.7 38.6 44.7 37.8 C 44.74 37.5 44.8 37.2 44.8 37.2 L 44.7 37.2 C 44.7 37.2 43.94 39.24 41.5 39.2 C 39.8 39.2 38.1 38.2 38.1 36.2 C 38.1 32.9 42.5 32.7 44.2 32.7 Z M 41.9 37.7 C 43.6 37.7 44.6 36 44.6 34.5 C 44.64 34.46 44.6 34.1 44.6 34.1 C 44.6 34.1 44.14 34.12 44.1 34.1 C 42.7 34.1 40 34.2 40 36.1 C 40 36.9 40.7 37.7 41.9 37.7 Z M 53.5 28.6 C 55.88 28.64 56.7 30.2 56.7 30.2 L 56.7 30.2 C 56.7 30.2 56.66 29.9 56.7 29.5 C 56.7 29.5 56.7 27 56.7 27 C 56.7 26.7 56.5 26.5 56.2 26.5 C 56.22 26.54 55.4 26.5 55.4 26.5 L 55.4 24.9 C 55.4 24.9 57.32 24.88 57.3 24.9 C 58.2 24.9 58.6 25.3 58.6 26.2 C 58.6 26.2 58.6 36.9 58.6 36.9 C 58.6 37.2 58.8 37.3 59 37.3 C 59.04 37.34 59.9 37.3 59.9 37.3 L 59.9 39 C 59.9 39 58 39 58 39 C 57.1 39 56.8 38.6 56.8 37.9 C 56.76 37.62 56.8 37.4 56.8 37.4 L 56.7 37.4 C 56.7 37.4 55.9 39.24 53.4 39.2 C 50.7 39.2 49 37.1 49 33.9 C 49 30.7 50.9 28.6 53.5 28.6 Z M 56.7 33.9 C 56.7 32.1 55.8 30.3 53.8 30.3 C 52.3 30.3 50.9 31.6 50.9 33.9 C 50.9 36.1 52.1 37.6 53.8 37.6 C 55.3 37.6 56.7 36.5 56.7 33.9 Z M 62 31 C 62 30.7 61.9 30.5 61.6 30.5 C 61.58 30.54 60.8 30.5 60.8 30.5 L 60.8 28.9 C 60.8 28.9 62.62 28.88 62.6 28.9 C 63.5 28.9 63.9 29.3 63.9 30 C 63.9 30 63.9 30.4 63.9 30.4 C 63.9 30.7 63.9 31 63.9 31 C 63.9 31 63.9 30.96 63.9 31 C 64.3 30.1 65.5 28.6 67.7 28.6 C 70.1 28.6 71.2 29.9 71.2 32.5 C 71.2 32.5 71.2 36.9 71.2 36.9 C 71.2 37.2 71.3 37.3 71.6 37.3 C 71.62 37.34 72.4 37.3 72.4 37.3 L 72.4 39 C 72.4 39 70.52 39 70.5 39 C 69.6 39 69.2 38.6 69.2 37.7 C 69.2 37.7 69.2 33 69.2 33 C 69.2 31.5 69 30.4 67.3 30.4 C 65.8 30.4 64.5 31.4 64.1 32.9 C 64 33.3 64 33.8 64 34.3 C 63.96 34.26 64 39 64 39 L 62 39 C 62 39 62.02 30.98 62 31 Z M 78.6 28.6 C 81.5 28.6 83 30.8 83 33.4 C 83 33.64 82.9 34.2 82.9 34.2 C 82.9 34.2 75.56 34.18 75.6 34.2 C 75.7 36.3 77.2 37.6 79 37.6 C 80.78 37.56 82 36.4 82 36.4 L 82.8 37.8 C 82.8 37.8 81.34 39.24 78.9 39.2 C 75.7 39.2 73.6 36.9 73.6 33.9 C 73.6 30.7 75.8 28.6 78.6 28.6 Z M 81 32.8 C 80.9 31.1 79.9 30.2 78.6 30.2 C 77.1 30.2 75.9 31.1 75.6 32.8 C 75.6 32.8 81 32.8 81 32.8 Z M 90.9 27 C 90.9 26.7 90.8 26.5 90.5 26.5 C 90.48 26.54 89.7 26.5 89.7 26.5 L 89.7 24.9 C 89.7 24.9 91.58 24.88 91.6 24.9 C 92.5 24.9 92.9 25.3 92.9 26.2 C 92.9 26.2 92.9 36.9 92.9 36.9 C 92.9 37.2 93 37.3 93.3 37.3 C 93.3 37.34 94.1 37.3 94.1 37.3 L 94.1 39 C 94.1 39 92.2 39 92.2 39 C 91.3 39 90.9 38.6 90.9 37.7 C 90.9 37.7 90.9 27 90.9 27 Z M 100.4 28.6 C 103.3 28.6 104.8 30.8 104.8 33.4 C 104.78 33.64 104.7 34.2 104.7 34.2 C 104.7 34.2 97.34 34.18 97.3 34.2 C 97.5 36.3 99 37.6 100.8 37.6 C 102.56 37.56 103.8 36.4 103.8 36.4 L 104.6 37.8 C 104.6 37.8 103.12 39.24 100.7 39.2 C 97.5 39.2 95.3 36.9 95.3 33.9 C 95.3 30.7 97.5 28.6 100.4 28.6 Z M 102.8 32.8 C 102.7 31.1 101.7 30.2 100.4 30.2 C 98.9 30.2 97.7 31.1 97.4 32.8 C 97.4 32.8 102.8 32.8 102.8 32.8 Z M 107.4 31 C 107.4 30.7 107.2 30.5 106.9 30.5 C 106.92 30.54 106.1 30.5 106.1 30.5 L 106.1 28.9 C 106.1 28.9 107.96 28.88 108 28.9 C 108.8 28.9 109.2 29.3 109.2 30 C 109.2 30 109.2 30.4 109.2 30.4 C 109.24 30.7 109.2 31 109.2 31 C 109.2 31 109.24 30.96 109.2 31 C 109.6 30.1 110.8 28.6 113 28.6 C 115.4 28.6 116.5 29.9 116.5 32.5 C 116.5 32.5 116.5 36.9 116.5 36.9 C 116.5 37.2 116.7 37.3 117 37.3 C 116.96 37.34 117.8 37.3 117.8 37.3 L 117.8 39 C 117.8 39 115.86 39 115.9 39 C 115 39 114.6 38.6 114.6 37.7 C 114.6 37.7 114.6 33 114.6 33 C 114.6 31.5 114.3 30.4 112.7 30.4 C 111.1 30.4 109.9 31.4 109.5 32.9 C 109.3 33.3 109.3 33.8 109.3 34.3 C 109.3 34.26 109.3 39 109.3 39 L 107.4 39 C 107.4 39 107.36 30.98 107.4 31 Z M 125.3 31 C 125.3 30.7 125.1 30.5 124.8 30.5 C 124.82 30.54 124 30.5 124 30.5 L 124 28.9 C 124 28.9 125.86 28.88 125.9 28.9 C 126.7 28.9 127.1 29.3 127.1 30 C 127.1 30 127.1 30.4 127.1 30.4 C 127.14 30.7 127.1 31 127.1 31 C 127.1 31 127.16 30.96 127.2 31 C 127.6 29.8 129 28.6 130.6 28.6 C 132.3 28.6 133.3 29.4 133.7 30.9 C 133.7 30.9 133.7 30.9 133.7 30.9 C 134.3 29.7 135.7 28.6 137.3 28.6 C 139.6 28.6 140.6 29.9 140.6 32.5 C 140.6 32.5 140.6 36.9 140.6 36.9 C 140.6 37.2 140.8 37.3 141.1 37.3 C 141.08 37.34 141.9 37.3 141.9 37.3 L 141.9 39 C 141.9 39 139.98 39 140 39 C 139.1 39 138.7 38.6 138.7 37.7 C 138.7 37.7 138.7 32.9 138.7 32.9 C 138.7 31.5 138.4 30.4 136.9 30.4 C 135.5 30.4 134.4 31.6 134.1 33 C 134 33.4 133.9 33.9 133.9 34.4 C 133.92 34.38 133.9 39 133.9 39 L 132 39 C 132 39 131.98 32.94 132 32.9 C 132 31.6 131.8 30.4 130.2 30.4 C 128.8 30.4 127.7 31.6 127.3 33.1 C 127.2 33.5 127.2 33.9 127.2 34.4 C 127.2 34.38 127.2 39 127.2 39 L 125.3 39 C 125.3 39 125.26 30.98 125.3 31 Z M 144.1 24.9 L 145.9 24.9 L 145.9 26.9 L 144.1 26.9 L 144.1 24.9 Z M 144.1 31 C 144.1 30.7 143.9 30.5 143.7 30.5 C 143.66 30.54 142.8 30.5 142.8 30.5 L 142.8 28.9 C 142.8 28.9 144.74 28.88 144.7 28.9 C 145.6 28.9 146 29.3 146 30.2 C 146 30.2 146 36.9 146 36.9 C 146 37.2 146.2 37.3 146.5 37.3 C 146.46 37.34 147.3 37.3 147.3 37.3 L 147.3 39 C 147.3 39 145.38 39 145.4 39 C 144.5 39 144.1 38.6 144.1 37.7 C 144.1 37.7 144.1 31 144.1 31 Z M 149.5 31 C 149.5 30.7 149.3 30.5 149.1 30.5 C 149.06 30.54 148.2 30.5 148.2 30.5 L 148.2 28.9 C 148.2 28.9 150.1 28.88 150.1 28.9 C 151 28.9 151.4 29.3 151.4 30 C 151.4 30 151.4 30.4 151.4 30.4 C 151.38 30.7 151.3 31 151.3 31 C 151.3 31 151.38 30.96 151.4 31 C 151.8 30.1 153 28.6 155.2 28.6 C 157.6 28.6 158.7 29.9 158.7 32.5 C 158.7 32.5 158.7 36.9 158.7 36.9 C 158.7 37.2 158.8 37.3 159.1 37.3 C 159.1 37.34 159.9 37.3 159.9 37.3 L 159.9 39 C 159.9 39 158 39 158 39 C 157.1 39 156.7 38.6 156.7 37.7 C 156.7 37.7 156.7 33 156.7 33 C 156.7 31.5 156.4 30.4 154.8 30.4 C 153.3 30.4 152 31.4 151.6 32.9 C 151.5 33.3 151.4 33.8 151.4 34.3 C 151.44 34.26 151.4 39 151.4 39 L 149.5 39 C 149.5 39 149.5 30.98 149.5 31 Z M 162.2 24.9 L 163.9 24.9 L 163.9 26.9 L 162.2 26.9 L 162.2 24.9 Z M 162.1 31 C 162.1 30.7 162 30.5 161.7 30.5 C 161.68 30.54 160.9 30.5 160.9 30.5 L 160.9 28.9 C 160.9 28.9 162.76 28.88 162.8 28.9 C 163.7 28.9 164 29.3 164 30.2 C 164 30.2 164 36.9 164 36.9 C 164 37.2 164.2 37.3 164.5 37.3 C 164.48 37.34 165.3 37.3 165.3 37.3 L 165.3 39 C 165.3 39 163.4 39 163.4 39 C 162.5 39 162.1 38.6 162.1 37.7 C 162.1 37.7 162.1 31 162.1 31 Z M 167.5 31 C 167.5 30.7 167.4 30.5 167.1 30.5 C 167.08 30.54 166.3 30.5 166.3 30.5 L 166.3 28.9 C 166.3 28.9 168.12 28.88 168.1 28.9 C 169 28.9 169.4 29.3 169.4 30 C 169.4 30 169.4 30.4 169.4 30.4 C 169.4 30.7 169.4 31 169.4 31 C 169.4 31 169.42 30.96 169.4 31 C 169.9 29.8 171.3 28.6 172.9 28.6 C 174.6 28.6 175.6 29.4 175.9 30.9 C 175.9 30.9 176 30.9 176 30.9 C 176.5 29.7 177.9 28.6 179.6 28.6 C 181.8 28.6 182.9 29.9 182.9 32.5 C 182.9 32.5 182.9 36.9 182.9 36.9 C 182.9 37.2 183.1 37.3 183.3 37.3 C 183.34 37.34 184.2 37.3 184.2 37.3 L 184.2 39 C 184.2 39 182.24 39 182.2 39 C 181.3 39 181 38.6 181 37.7 C 181 37.7 181 32.9 181 32.9 C 181 31.5 180.7 30.4 179.2 30.4 C 177.8 30.4 176.7 31.6 176.3 33 C 176.2 33.4 176.2 33.9 176.2 34.4 C 176.18 34.38 176.2 39 176.2 39 L 174.2 39 C 174.2 39 174.24 32.94 174.2 32.9 C 174.2 31.6 174 30.4 172.5 30.4 C 171 30.4 170 31.6 169.6 33.1 C 169.5 33.5 169.5 33.9 169.5 34.4 C 169.46 34.38 169.5 39 169.5 39 L 167.5 39 C 167.5 39 167.52 30.98 167.5 31 Z M 191.4 32.7 C 191.4 32.7 191.8 32.7 191.8 32.7 C 191.8 32.7 191.84 32.6 191.8 32.6 C 191.8 30.8 191.2 30.2 189.6 30.2 C 189.1 30.2 187.9 30.3 187.9 31 C 187.94 30.96 187.9 31.5 187.9 31.5 L 186.1 31.5 C 186.1 31.5 186.12 30.54 186.1 30.5 C 186.1 28.9 188.6 28.6 189.6 28.6 C 192.9 28.6 193.8 30.4 193.8 32.6 C 193.8 32.6 193.8 36.9 193.8 36.9 C 193.8 37.2 193.9 37.3 194.2 37.3 C 194.22 37.34 195 37.3 195 37.3 L 195 39 C 195 39 193.22 39 193.2 39 C 192.3 39 192 38.6 192 37.8 C 191.96 37.5 192 37.2 192 37.2 L 192 37.2 C 192 37.2 191.16 39.24 188.7 39.2 C 187 39.2 185.3 38.2 185.3 36.2 C 185.3 32.9 189.7 32.7 191.4 32.7 Z M 189.2 37.7 C 190.8 37.7 191.9 36 191.9 34.5 C 191.86 34.46 191.9 34.1 191.9 34.1 C 191.9 34.1 191.36 34.12 191.4 34.1 C 189.9 34.1 187.3 34.2 187.3 36.1 C 187.3 36.9 187.9 37.7 189.2 37.7 Z M 190.5 24.9 L 192.5 24.9 L 190.6 27.4 L 189.1 27.4 L 190.5 24.9 Z M 197.1 27 C 197.1 26.7 196.9 26.5 196.7 26.5 C 196.66 26.54 195.8 26.5 195.8 26.5 L 195.8 24.9 C 195.8 24.9 197.76 24.88 197.8 24.9 C 198.7 24.9 199 25.3 199 26.2 C 199 26.2 199 36.9 199 36.9 C 199 37.2 199.2 37.3 199.5 37.3 C 199.48 37.34 200.3 37.3 200.3 37.3 L 200.3 39 C 200.3 39 198.38 39 198.4 39 C 197.5 39 197.1 38.6 197.1 37.7 C 197.1 37.7 197.1 27 197.1 27 Z M 202.5 31 C 202.5 30.7 202.3 30.5 202.1 30.5 C 202.06 30.54 201.2 30.5 201.2 30.5 L 201.2 28.9 C 201.2 28.9 203.1 28.88 203.1 28.9 C 204 28.9 204.4 29.3 204.4 30 C 204.4 30 204.4 30.4 204.4 30.4 C 204.38 30.7 204.3 31 204.3 31 C 204.3 31 204.38 30.96 204.4 31 C 204.8 30.1 206 28.6 208.2 28.6 C 210.6 28.6 211.7 29.9 211.7 32.5 C 211.7 32.5 211.7 36.9 211.7 36.9 C 211.7 37.2 211.8 37.3 212.1 37.3 C 212.1 37.34 212.9 37.3 212.9 37.3 L 212.9 39 C 212.9 39 211 39 211 39 C 210.1 39 209.7 38.6 209.7 37.7 C 209.7 37.7 209.7 33 209.7 33 C 209.7 31.5 209.4 30.4 207.8 30.4 C 206.3 30.4 205 31.4 204.6 32.9 C 204.5 33.3 204.4 33.8 204.4 34.3 C 204.44 34.26 204.4 39 204.4 39 L 202.5 39 C 202.5 39 202.5 30.98 202.5 31 Z M 215 31 C 215 30.7 214.8 30.5 214.5 30.5 C 214.54 30.54 213.7 30.5 213.7 30.5 L 213.7 28.9 C 213.7 28.9 215.62 28.88 215.6 28.9 C 216.5 28.9 216.9 29.3 216.9 30.1 C 216.9 30.1 216.9 34.9 216.9 34.9 C 216.9 36.3 217.2 37.4 218.8 37.4 C 220.9 37.4 222.1 35.6 222.1 33.6 C 222.1 33.62 222.1 28.9 222.1 28.9 L 224 28.9 C 224 28.9 224.04 36.9 224 36.9 C 224 37.2 224.2 37.3 224.5 37.3 C 224.48 37.34 225.3 37.3 225.3 37.3 L 225.3 39 C 225.3 39 223.44 39 223.4 39 C 222.6 39 222.2 38.6 222.2 37.9 C 222.2 37.9 222.2 37.5 222.2 37.5 C 222.16 37.18 222.2 36.9 222.2 36.9 C 222.2 36.9 222.14 36.92 222.1 36.9 C 221.7 37.9 220.4 39.2 218.4 39.2 C 216.1 39.2 215 38 215 35.4 C 215 35.4 215 31 215 31 Z M 229.4 36.9 L 227.7 41 L 226.2 41 L 227.4 36.9 L 229.4 36.9 Z M 237 30.9 C 236.9 30.6 236.7 30.5 236.4 30.5 C 236.38 30.54 236.2 30.5 236.2 30.5 L 236.2 28.9 C 236.2 28.9 237.18 28.88 237.2 28.9 C 238.1 28.9 238.4 29.1 238.7 29.9 C 238.7 29.9 240.9 35.7 240.9 35.7 C 241.1 36.28 241.3 37 241.3 37 L 241.3 37 C 241.3 37 241.46 36.28 241.7 35.7 C 241.7 35.7 243.8 29.9 243.8 29.9 C 244.1 29.1 244.5 28.9 245.4 28.9 C 245.36 28.88 246.3 28.9 246.3 28.9 L 246.3 30.5 C 246.3 30.5 246.1 30.54 246.1 30.5 C 245.8 30.5 245.6 30.6 245.4 30.9 C 245.44 30.94 242.4 39 242.4 39 L 240.1 39 C 240.1 39 237 30.94 237 30.9 Z M 251.7 28.6 C 254.02 28.64 254.8 30.2 254.8 30.2 L 254.8 30.2 C 254.8 30.2 254.8 29.9 254.8 29.5 C 254.8 29.5 254.8 27 254.8 27 C 254.8 26.7 254.6 26.5 254.4 26.5 C 254.36 26.54 253.5 26.5 253.5 26.5 L 253.5 24.9 C 253.5 24.9 255.46 24.88 255.5 24.9 C 256.4 24.9 256.7 25.3 256.7 26.2 C 256.7 26.2 256.7 36.9 256.7 36.9 C 256.7 37.2 256.9 37.3 257.2 37.3 C 257.18 37.34 258 37.3 258 37.3 L 258 39 C 258 39 256.14 39 256.1 39 C 255.3 39 254.9 38.6 254.9 37.9 C 254.9 37.62 254.9 37.4 254.9 37.4 L 254.9 37.4 C 254.9 37.4 254.04 39.24 251.6 39.2 C 248.8 39.2 247.1 37.1 247.1 33.9 C 247.1 30.7 249 28.6 251.7 28.6 Z M 254.9 33.9 C 254.9 32.1 253.9 30.3 252 30.3 C 250.4 30.3 249.1 31.6 249.1 33.9 C 249.1 36.1 250.3 37.6 251.9 37.6 C 253.4 37.6 254.9 36.5 254.9 33.9 Z M 259.4 24.9 C 259.5 25.2 259.5 25.6 259.5 25.9 C 259.5 26.5 259.4 27 259.1 27.7 C 259.1 27.7 257.7 27.7 257.7 27.7 C 257.9 27.1 258.1 26.6 258.1 26.1 C 258.1 25.7 258 25.3 257.8 24.9 C 257.8 24.9 259.4 24.9 259.4 24.9 Z M 267 32.7 C 267.02 32.7 267.5 32.7 267.5 32.7 C 267.5 32.7 267.46 32.6 267.5 32.6 C 267.5 30.8 266.8 30.2 265.2 30.2 C 264.7 30.2 263.6 30.3 263.6 31 C 263.56 30.96 263.6 31.5 263.6 31.5 L 261.7 31.5 C 261.7 31.5 261.74 30.54 261.7 30.5 C 261.7 28.9 264.3 28.6 265.2 28.6 C 268.5 28.6 269.4 30.4 269.4 32.6 C 269.4 32.6 269.4 36.9 269.4 36.9 C 269.4 37.2 269.6 37.3 269.8 37.3 C 269.84 37.34 270.7 37.3 270.7 37.3 L 270.7 39 C 270.7 39 268.84 39 268.8 39 C 267.9 39 267.6 38.6 267.6 37.8 C 267.58 37.5 267.6 37.2 267.6 37.2 L 267.6 37.2 C 267.6 37.2 266.78 39.24 264.4 39.2 C 262.6 39.2 260.9 38.2 260.9 36.2 C 260.9 32.9 265.3 32.7 267 32.7 Z M 264.8 37.7 C 266.4 37.7 267.5 36 267.5 34.5 C 267.48 34.46 267.5 34.1 267.5 34.1 C 267.5 34.1 266.98 34.12 267 34.1 C 265.5 34.1 262.9 34.2 262.9 36.1 C 262.9 36.9 263.5 37.7 264.8 37.7 Z M 272.7 27 C 272.7 26.7 272.5 26.5 272.2 26.5 C 272.24 26.54 271.4 26.5 271.4 26.5 L 271.4 24.9 C 271.4 24.9 273.34 24.88 273.3 24.9 C 274.2 24.9 274.6 25.1 274.6 26 C 274.62 26.04 274.6 32.6 274.6 32.6 C 274.6 32.6 275.52 32.6 275.5 32.6 C 275.9 32.6 276.3 32.5 276.6 32.2 C 276.58 32.16 278.9 28.9 278.9 28.9 L 281.1 28.9 C 281.1 28.9 278.4 32.64 278.4 32.6 C 277.94 33.26 277.6 33.4 277.6 33.4 L 277.6 33.4 C 277.6 33.4 277.98 33.56 278.3 34.2 C 278.3 34.2 279.8 36.9 279.8 36.9 C 280 37.3 280.2 37.3 280.7 37.3 C 280.68 37.34 281.3 37.3 281.3 37.3 L 281.3 39 C 281.3 39 279.9 39 279.9 39 C 279 39 278.7 38.8 278.2 38.1 C 278.2 38.1 276.4 34.7 276.4 34.7 C 276.2 34.3 275.7 34.2 275.4 34.2 C 275.38 34.24 274.6 34.2 274.6 34.2 L 274.6 39 L 272.7 39 C 272.7 39 272.68 26.98 272.7 27 Z M 288.3 32.7 C 288.3 32.7 288.7 32.7 288.7 32.7 C 288.7 32.7 288.74 32.6 288.7 32.6 C 288.7 30.8 288.1 30.2 286.5 30.2 C 286 30.2 284.8 30.3 284.8 31 C 284.84 30.96 284.8 31.5 284.8 31.5 L 283 31.5 C 283 31.5 283.02 30.54 283 30.5 C 283 28.9 285.5 28.6 286.5 28.6 C 289.8 28.6 290.7 30.4 290.7 32.6 C 290.7 32.6 290.7 36.9 290.7 36.9 C 290.7 37.2 290.8 37.3 291.1 37.3 C 291.12 37.34 291.9 37.3 291.9 37.3 L 291.9 39 C 291.9 39 290.12 39 290.1 39 C 289.2 39 288.9 38.6 288.9 37.8 C 288.86 37.5 288.9 37.2 288.9 37.2 L 288.9 37.2 C 288.9 37.2 288.06 39.24 285.6 39.2 C 283.9 39.2 282.2 38.2 282.2 36.2 C 282.2 32.9 286.6 32.7 288.3 32.7 Z M 286.1 37.7 C 287.7 37.7 288.8 36 288.8 34.5 C 288.76 34.46 288.8 34.1 288.8 34.1 C 288.8 34.1 288.26 34.12 288.3 34.1 C 286.8 34.1 284.2 34.2 284.2 36.1 C 284.2 36.9 284.8 37.7 286.1 37.7 Z M 299.3 36.2 C 299.3 36.2 300.46 37.66 302.3 37.7 C 303.3 37.7 304.1 37.2 304.1 36.4 C 304.1 34.5 298.6 34.7 298.6 31.5 C 298.6 29.5 300.3 28.6 302.3 28.6 C 303.5 28.6 305.6 29.1 305.6 30.6 C 305.64 30.6 305.6 31.6 305.6 31.6 L 303.9 31.6 C 303.9 31.6 303.9 31.06 303.9 31.1 C 303.9 30.5 303 30.2 302.4 30.2 C 301.2 30.2 300.5 30.6 300.5 31.4 C 300.5 33.3 306 32.9 306 36.3 C 306 38.1 304.4 39.2 302.3 39.2 C 299.6 39.24 298.3 37.5 298.3 37.5 L 299.3 36.2 Z M 308.5 31 C 308.5 30.7 308.3 30.5 308.1 30.5 C 308.06 30.54 307.2 30.5 307.2 30.5 L 307.2 28.9 C 307.2 28.9 309.06 28.88 309.1 28.9 C 310 28.9 310.3 29.3 310.3 29.9 C 310.3 30.2 310.3 30.4 310.3 30.4 L 310.3 30.4 C 310.3 30.4 311.16 28.64 313.7 28.6 C 316.4 28.6 318.1 30.8 318.1 33.9 C 318.1 37.2 316.2 39.2 313.5 39.2 C 311.3 39.24 310.4 37.6 310.4 37.6 L 310.4 37.6 C 310.4 37.6 310.44 37.98 310.4 38.5 C 310.44 38.5 310.4 43 310.4 43 L 308.5 43 C 308.5 43 308.5 30.98 308.5 31 Z M 313.2 37.6 C 314.8 37.6 316.2 36.3 316.2 34 C 316.2 31.8 315 30.3 313.3 30.3 C 311.8 30.3 310.4 31.4 310.4 34 C 310.4 35.8 311.4 37.6 313.2 37.6 Z M 325 28.6 C 328.1 28.6 330.5 30.9 330.5 33.9 C 330.5 37 328.1 39.2 325 39.2 C 322 39.2 319.6 37 319.6 33.9 C 319.6 30.9 322 28.6 325 28.6 Z M 325 37.6 C 327 37.6 328.5 36 328.5 33.9 C 328.5 31.8 327 30.3 325 30.3 C 323.1 30.3 321.6 31.8 321.6 33.9 C 321.6 36 323.1 37.6 325 37.6 Z M 332.7 27 C 332.7 26.7 332.5 26.5 332.3 26.5 C 332.26 26.54 331.4 26.5 331.4 26.5 L 331.4 24.9 C 331.4 24.9 333.36 24.88 333.4 24.9 C 334.3 24.9 334.6 25.3 334.6 26.2 C 334.6 26.2 334.6 36.9 334.6 36.9 C 334.6 37.2 334.8 37.3 335.1 37.3 C 335.08 37.34 335.9 37.3 335.9 37.3 L 335.9 39 C 335.9 39 333.98 39 334 39 C 333.1 39 332.7 38.6 332.7 37.7 C 332.7 37.7 332.7 27 332.7 27 Z M 342.6 28.6 C 345.6 28.6 348 30.9 348 33.9 C 348 37 345.6 39.2 342.6 39.2 C 339.5 39.2 337.1 37 337.1 33.9 C 337.1 30.9 339.5 28.6 342.6 28.6 Z M 342.6 37.6 C 344.5 37.6 346 36 346 33.9 C 346 31.8 344.5 30.3 342.6 30.3 C 340.7 30.3 339.1 31.8 339.1 33.9 C 339.1 36 340.7 37.6 342.6 37.6 Z M 354.9 28.6 C 356.1 28.6 358.5 29.1 358.5 30.9 C 358.54 30.86 358.5 31.9 358.5 31.9 L 356.8 31.9 C 356.8 31.9 356.78 31.34 356.8 31.3 C 356.8 30.6 355.6 30.3 354.9 30.3 C 352.9 30.3 351.4 31.8 351.4 33.9 C 351.4 36.2 353.1 37.5 355 37.5 C 356.9 37.52 358.1 36.1 358.1 36.1 L 359 37.5 C 359 37.5 357.54 39.24 354.9 39.2 C 351.7 39.2 349.5 37 349.5 33.9 C 349.5 31 351.6 28.6 354.9 28.6 Z M 351.9 24.9 L 353.5 24.9 L 354.5 26.5 L 354.6 26.5 L 355.6 24.9 L 357.2 24.9 L 355.5 27.4 L 353.7 27.4 L 351.9 24.9 Z M 361.1 31 C 361.1 30.7 360.9 30.5 360.7 30.5 C 360.66 30.54 359.8 30.5 359.8 30.5 L 359.8 28.9 C 359.8 28.9 361.7 28.88 361.7 28.9 C 362.6 28.9 363 29.3 363 30 C 363 30 363 30.4 363 30.4 C 362.98 30.7 362.9 31 362.9 31 C 362.9 31 362.98 30.96 363 31 C 363.4 30.1 364.6 28.6 366.8 28.6 C 369.2 28.6 370.3 29.9 370.3 32.5 C 370.3 32.5 370.3 36.9 370.3 36.9 C 370.3 37.2 370.4 37.3 370.7 37.3 C 370.7 37.34 371.5 37.3 371.5 37.3 L 371.5 39 C 371.5 39 369.6 39 369.6 39 C 368.7 39 368.3 38.6 368.3 37.7 C 368.3 37.7 368.3 33 368.3 33 C 368.3 31.5 368 30.4 366.4 30.4 C 364.9 30.4 363.6 31.4 363.2 32.9 C 363.1 33.3 363 33.8 363 34.3 C 363.04 34.26 363 39 363 39 L 361.1 39 C 361.1 39 361.1 30.98 361.1 31 Z M 377.7 28.6 C 380.6 28.6 382.1 30.8 382.1 33.4 C 382.07 33.64 382 34.2 382 34.2 C 382 34.2 374.63 34.18 374.6 34.2 C 374.8 36.3 376.3 37.6 378.1 37.6 C 379.85 37.56 381.1 36.4 381.1 36.4 L 381.9 37.8 C 381.9 37.8 380.41 39.24 378 39.2 C 374.8 39.2 372.6 36.9 372.6 33.9 C 372.6 30.7 374.8 28.6 377.7 28.6 Z M 380.1 32.8 C 380 31.1 379 30.2 377.7 30.2 C 376.2 30.2 375 31.1 374.7 32.8 C 374.7 32.8 380.1 32.8 380.1 32.8 Z M 378.3 24.9 L 380.3 24.9 L 378.4 27.4 L 376.9 27.4 L 378.3 24.9 Z M 384.7 31 C 384.7 30.7 384.5 30.5 384.2 30.5 C 384.21 30.54 383.4 30.5 383.4 30.5 L 383.4 28.9 C 383.4 28.9 385.25 28.88 385.3 28.9 C 386.1 28.9 386.5 29.3 386.5 30 C 386.5 30 386.5 30.4 386.5 30.4 C 386.53 30.7 386.5 31 386.5 31 C 386.5 31 386.55 30.96 386.6 31 C 387 29.8 388.4 28.6 390 28.6 C 391.7 28.6 392.7 29.4 393.1 30.9 C 393.1 30.9 393.1 30.9 393.1 30.9 C 393.7 29.7 395.1 28.6 396.7 28.6 C 399 28.6 400 29.9 400 32.5 C 400 32.5 400 36.9 400 36.9 C 400 37.2 400.2 37.3 400.5 37.3 C 400.47 37.34 401.3 37.3 401.3 37.3 L 401.3 39 C 401.3 39 399.37 39 399.4 39 C 398.5 39 398.1 38.6 398.1 37.7 C 398.1 37.7 398.1 32.9 398.1 32.9 C 398.1 31.5 397.8 30.4 396.3 30.4 C 394.9 30.4 393.8 31.6 393.5 33 C 393.4 33.4 393.3 33.9 393.3 34.4 C 393.31 34.38 393.3 39 393.3 39 L 391.4 39 C 391.4 39 391.37 32.94 391.4 32.9 C 391.4 31.6 391.2 30.4 389.6 30.4 C 388.2 30.4 387.1 31.6 386.7 33.1 C 386.6 33.5 386.6 33.9 386.6 34.4 C 386.59 34.38 386.6 39 386.6 39 L 384.7 39 C 384.7 39 384.65 30.98 384.7 31 Z M 403.4 31 C 403.4 30.7 403.2 30.5 402.9 30.5 C 402.91 30.54 402.1 30.5 402.1 30.5 L 402.1 28.9 C 402.1 28.9 403.99 28.88 404 28.9 C 404.9 28.9 405.3 29.3 405.3 30.1 C 405.3 30.1 405.3 34.9 405.3 34.9 C 405.3 36.3 405.6 37.4 407.2 37.4 C 409.3 37.4 410.5 35.6 410.5 33.6 C 410.47 33.62 410.5 28.9 410.5 28.9 L 412.4 28.9 C 412.4 28.9 412.41 36.9 412.4 36.9 C 412.4 37.2 412.6 37.3 412.9 37.3 C 412.85 37.34 413.7 37.3 413.7 37.3 L 413.7 39 C 413.7 39 411.81 39 411.8 39 C 411 39 410.5 38.6 410.5 37.9 C 410.5 37.9 410.5 37.5 410.5 37.5 C 410.53 37.18 410.6 36.9 410.6 36.9 C 410.6 36.9 410.51 36.92 410.5 36.9 C 410.1 37.9 408.8 39.2 406.8 39.2 C 404.5 39.2 403.4 38 403.4 35.4 C 403.4 35.4 403.4 31 403.4 31 Z M 421.2 31 C 421.2 30.7 421 30.5 420.8 30.5 C 420.75 30.54 419.9 30.5 419.9 30.5 L 419.9 28.9 C 419.9 28.9 421.75 28.88 421.8 28.9 C 422.7 28.9 423 29.3 423 29.9 C 422.99 30.2 423 30.4 423 30.4 L 423 30.4 C 423 30.4 423.85 28.64 426.4 28.6 C 429.1 28.6 430.8 30.8 430.8 33.9 C 430.8 37.2 428.9 39.2 426.2 39.2 C 423.99 39.24 423.1 37.6 423.1 37.6 L 423.1 37.6 C 423.1 37.6 423.13 37.98 423.1 38.5 C 423.13 38.5 423.1 43 423.1 43 L 421.2 43 C 421.2 43 421.19 30.98 421.2 31 Z M 425.9 37.6 C 427.5 37.6 428.9 36.3 428.9 34 C 428.9 31.8 427.7 30.3 426 30.3 C 424.5 30.3 423.1 31.4 423.1 34 C 423.1 35.8 424.1 37.6 425.9 37.6 Z M 437.7 28.6 C 440.8 28.6 443.2 30.9 443.2 33.9 C 443.2 37 440.8 39.2 437.7 39.2 C 434.7 39.2 432.3 37 432.3 33.9 C 432.3 30.9 434.7 28.6 437.7 28.6 Z M 437.7 37.6 C 439.7 37.6 441.2 36 441.2 33.9 C 441.2 31.8 439.7 30.3 437.7 30.3 C 435.8 30.3 434.3 31.8 434.3 33.9 C 434.3 36 435.8 37.6 437.7 37.6 Z M 436.9 24.9 L 438.6 24.9 L 440.4 27.4 L 438.8 27.4 L 437.8 25.8 L 437.7 25.8 L 436.7 27.4 L 435.1 27.4 L 436.9 24.9 Z M 445.5 36.2 C 445.5 36.2 446.65 37.66 448.5 37.7 C 449.5 37.7 450.3 37.2 450.3 36.4 C 450.3 34.5 444.8 34.7 444.8 31.5 C 444.8 29.5 446.5 28.6 448.5 28.6 C 449.7 28.6 451.8 29.1 451.8 30.6 C 451.83 30.6 451.8 31.6 451.8 31.6 L 450.1 31.6 C 450.1 31.6 450.09 31.06 450.1 31.1 C 450.1 30.5 449.2 30.2 448.6 30.2 C 447.4 30.2 446.7 30.6 446.7 31.4 C 446.7 33.3 452.2 32.9 452.2 36.3 C 452.2 38.1 450.6 39.2 448.5 39.2 C 445.79 39.24 444.5 37.5 444.5 37.5 L 445.5 36.2 Z M 459.2 28.6 C 462.2 28.6 464.6 30.9 464.6 33.9 C 464.6 37 462.2 39.2 459.2 39.2 C 456.1 39.2 453.7 37 453.7 33.9 C 453.7 30.9 456.1 28.6 459.2 28.6 Z M 459.2 37.6 C 461.1 37.6 462.6 36 462.6 33.9 C 462.6 31.8 461.1 30.3 459.2 30.3 C 457.3 30.3 455.7 31.8 455.7 33.9 C 455.7 36 457.3 37.6 459.2 37.6 Z M 466.8 27 C 466.8 26.7 466.6 26.5 466.3 26.5 C 466.33 26.54 465.5 26.5 465.5 26.5 L 465.5 24.9 C 465.5 24.9 467.43 24.88 467.4 24.9 C 468.3 24.9 468.7 25.3 468.7 26.2 C 468.7 26.2 468.7 29.5 468.7 29.5 C 468.71 29.94 468.7 30.3 468.7 30.3 L 468.7 30.3 C 468.7 30.3 469.59 28.64 472 28.6 C 474.7 28.6 476.4 30.8 476.4 33.9 C 476.4 37.2 474.5 39.2 471.8 39.2 C 469.55 39.24 468.6 37.5 468.6 37.5 L 468.6 37.5 C 468.6 37.5 468.63 37.86 468.6 38.3 C 468.63 38.3 468.6 39 468.6 39 L 466.8 39 C 466.8 39 466.77 26.98 466.8 27 Z M 471.5 37.6 C 473.1 37.6 474.5 36.3 474.5 34 C 474.5 31.8 473.3 30.3 471.6 30.3 C 470.1 30.3 468.7 31.4 468.7 34 C 468.7 35.8 469.6 37.6 471.5 37.6 Z M 483 28.6 C 485.8 28.6 487.3 30.8 487.3 33.4 C 487.31 33.64 487.3 34.2 487.3 34.2 C 487.3 34.2 479.87 34.18 479.9 34.2 C 480 36.3 481.6 37.6 483.4 37.6 C 485.09 37.56 486.3 36.4 486.3 36.4 L 487.2 37.8 C 487.2 37.8 485.65 39.24 483.3 39.2 C 480.1 39.2 477.9 36.9 477.9 33.9 C 477.9 30.7 480.1 28.6 483 28.6 Z M 485.3 32.8 C 485.3 31.1 484.2 30.2 482.9 30.2 C 481.5 30.2 480.3 31.1 480 32.8 C 480 32.8 485.3 32.8 485.3 32.8 Z M 489.9 31 C 489.9 30.7 489.7 30.5 489.5 30.5 C 489.45 30.54 488.6 30.5 488.6 30.5 L 488.6 28.9 C 488.6 28.9 490.49 28.88 490.5 28.9 C 491.4 28.9 491.8 29.3 491.8 30 C 491.8 30 491.8 30.4 491.8 30.4 C 491.77 30.7 491.7 31 491.7 31 C 491.7 31 491.77 30.96 491.8 31 C 492.2 30.1 493.4 28.6 495.6 28.6 C 498 28.6 499.1 29.9 499.1 32.5 C 499.1 32.5 499.1 36.9 499.1 36.9 C 499.1 37.2 499.2 37.3 499.5 37.3 C 499.49 37.34 500.3 37.3 500.3 37.3 L 500.3 39 C 500.3 39 498.39 39 498.4 39 C 497.5 39 497.1 38.6 497.1 37.7 C 497.1 37.7 497.1 33 497.1 33 C 497.1 31.5 496.8 30.4 495.2 30.4 C 493.7 30.4 492.4 31.4 492 32.9 C 491.9 33.3 491.8 33.8 491.8 34.3 C 491.83 34.26 491.8 39 491.8 39 L 489.9 39 C 489.9 39 489.89 30.98 489.9 31 Z M 502.6 24.9 L 504.3 24.9 L 504.3 26.9 L 502.6 26.9 L 502.6 24.9 Z M 502.5 31 C 502.5 30.7 502.4 30.5 502.1 30.5 C 502.07 30.54 501.3 30.5 501.3 30.5 L 501.3 28.9 C 501.3 28.9 503.15 28.88 503.2 28.9 C 504.1 28.9 504.4 29.3 504.4 30.2 C 504.4 30.2 504.4 36.9 504.4 36.9 C 504.4 37.2 504.6 37.3 504.9 37.3 C 504.87 37.34 505.7 37.3 505.7 37.3 L 505.7 39 C 505.7 39 503.79 39 503.8 39 C 502.9 39 502.5 38.6 502.5 37.7 C 502.5 37.7 502.5 31 502.5 31 Z M 507.9 31 C 507.9 30.7 507.7 30.5 507.4 30.5 C 507.43 30.54 506.6 30.5 506.6 30.5 L 506.6 28.9 C 506.6 28.9 508.51 28.88 508.5 28.9 C 509.4 28.9 509.8 29.3 509.8 30.1 C 509.8 30.1 509.8 34.9 509.8 34.9 C 509.8 36.3 510.1 37.4 511.7 37.4 C 513.8 37.4 515 35.6 515 33.6 C 514.99 33.62 515 28.9 515 28.9 L 516.9 28.9 C 516.9 28.9 516.93 36.9 516.9 36.9 C 516.9 37.2 517.1 37.3 517.4 37.3 C 517.37 37.34 518.2 37.3 518.2 37.3 L 518.2 39 C 518.2 39 516.33 39 516.3 39 C 515.5 39 515.1 38.6 515.1 37.9 C 515.1 37.9 515.1 37.5 515.1 37.5 C 515.05 37.18 515.1 36.9 515.1 36.9 C 515.1 36.9 515.03 36.92 515 36.9 C 514.6 37.9 513.3 39.2 511.3 39.2 C 509 39.2 507.9 38 507.9 35.4 C 507.9 35.4 507.9 31 507.9 31 Z M 529.8 28.6 C 532.7 28.6 534.2 30.8 534.2 33.4 C 534.17 33.64 534.1 34.2 534.1 34.2 C 534.1 34.2 526.73 34.18 526.7 34.2 C 526.9 36.3 528.4 37.6 530.2 37.6 C 531.95 37.56 533.2 36.4 533.2 36.4 L 534 37.8 C 534 37.8 532.51 39.24 530.1 39.2 C 526.9 39.2 524.7 36.9 524.7 33.9 C 524.7 30.7 526.9 28.6 529.8 28.6 Z M 532.2 32.8 C 532.1 31.1 531.1 30.2 529.8 30.2 C 528.3 30.2 527.1 31.1 526.8 32.8 C 526.8 32.8 532.2 32.8 532.2 32.8 Z M 536.6 36.2 C 536.6 36.2 537.79 37.66 539.7 37.7 C 540.6 37.7 541.4 37.2 541.4 36.4 C 541.4 34.5 535.9 34.7 535.9 31.5 C 535.9 29.5 537.6 28.6 539.7 28.6 C 540.9 28.6 543 29.1 543 30.6 C 542.97 30.6 543 31.6 543 31.6 L 541.2 31.6 C 541.2 31.6 541.23 31.06 541.2 31.1 C 541.2 30.5 540.3 30.2 539.7 30.2 C 538.6 30.2 537.8 30.6 537.8 31.4 C 537.8 33.3 543.4 32.9 543.4 36.3 C 543.4 38.1 541.8 39.2 539.6 39.2 C 536.93 39.24 535.6 37.5 535.6 37.5 L 536.6 36.2 Z M 545.9 30.4 L 544.6 30.4 L 544.6 28.9 L 546 28.9 L 546 26.1 L 547.9 26.1 L 547.9 28.9 L 550.3 28.9 L 550.3 30.4 L 547.9 30.4 C 547.9 30.4 547.85 35.08 547.9 35.1 C 547.9 37.1 549.3 37.4 550 37.4 C 550.27 37.36 550.5 37.3 550.5 37.3 L 550.5 39 C 550.5 39 550.19 39.08 549.8 39.1 C 548.5 39.1 545.9 38.7 545.9 35.3 C 545.91 35.3 545.9 30.4 545.9 30.4 Z M 556.8 28.6 C 559.6 28.6 561.2 30.8 561.2 33.4 C 561.15 33.64 561.1 34.2 561.1 34.2 C 561.1 34.2 553.71 34.18 553.7 34.2 C 553.8 36.3 555.4 37.6 557.2 37.6 C 558.93 37.56 560.2 36.4 560.2 36.4 L 561 37.8 C 561 37.8 559.49 39.24 557.1 39.2 C 553.9 39.2 551.7 36.9 551.7 33.9 C 551.7 30.7 553.9 28.6 556.8 28.6 Z M 559.2 32.8 C 559.1 31.1 558 30.2 556.8 30.2 C 555.3 30.2 554.1 31.1 553.8 32.8 C 553.8 32.8 559.2 32.8 559.2 32.8 Z M 563.8 30.4 L 562.5 30.4 L 562.5 28.9 L 563.9 28.9 L 563.9 26.1 L 565.8 26.1 L 565.8 28.9 L 568.2 28.9 L 568.2 30.4 L 565.8 30.4 C 565.8 30.4 565.75 35.08 565.8 35.1 C 565.8 37.1 567.2 37.4 567.9 37.4 C 568.17 37.36 568.4 37.3 568.4 37.3 L 568.4 39 C 568.4 39 568.09 39.08 567.7 39.1 C 566.4 39.1 563.8 38.7 563.8 35.3 C 563.81 35.3 563.8 30.4 563.8 30.4 Z M 570.8 31 C 570.8 30.7 570.6 30.5 570.3 30.5 C 570.33 30.54 569.5 30.5 569.5 30.5 L 569.5 28.9 C 569.5 28.9 571.35 28.88 571.4 28.9 C 572.2 28.9 572.7 29.2 572.7 30.1 C 572.7 30.1 572.7 30.7 572.7 30.7 C 572.65 31.1 572.6 31.4 572.6 31.4 C 572.6 31.4 572.65 31.4 572.7 31.4 C 573.1 29.9 574.3 28.8 575.9 28.8 C 576.11 28.76 576.4 28.8 576.4 28.8 L 576.4 30.7 C 576.4 30.7 576.11 30.66 575.8 30.7 C 574.6 30.7 573.4 31.5 573 33 C 572.8 33.6 572.7 34.2 572.7 34.9 C 572.71 34.86 572.7 39 572.7 39 L 570.8 39 C 570.8 39 570.77 30.98 570.8 31 Z M 582.6 28.6 C 585.6 28.6 588 30.9 588 33.9 C 588 37 585.6 39.2 582.6 39.2 C 579.6 39.2 577.1 37 577.1 33.9 C 577.1 30.9 579.6 28.6 582.6 28.6 Z M 582.6 37.6 C 584.5 37.6 586.1 36 586.1 33.9 C 586.1 31.8 584.5 30.3 582.6 30.3 C 580.7 30.3 579.1 31.8 579.1 33.9 C 579.1 36 580.7 37.6 582.6 37.6 Z M 590.2 27 C 590.2 26.7 590.1 26.5 589.8 26.5 C 589.79 26.54 589 26.5 589 26.5 L 589 24.9 C 589 24.9 590.89 24.88 590.9 24.9 C 591.8 24.9 592.2 25.3 592.2 26.2 C 592.2 26.2 592.2 36.9 592.2 36.9 C 592.2 37.2 592.3 37.3 592.6 37.3 C 592.61 37.34 593.4 37.3 593.4 37.3 L 593.4 39 C 593.4 39 591.51 39 591.5 39 C 590.6 39 590.2 38.6 590.2 37.7 C 590.2 37.7 590.2 27 590.2 27 Z M 595.6 31 C 595.6 30.7 595.4 30.5 595.2 30.5 C 595.15 30.54 594.3 30.5 594.3 30.5 L 594.3 28.9 C 594.3 28.9 596.23 28.88 596.2 28.9 C 597.2 28.9 597.5 29.3 597.5 30.1 C 597.5 30.1 597.5 34.9 597.5 34.9 C 597.5 36.3 597.8 37.4 599.4 37.4 C 601.5 37.4 602.7 35.6 602.7 33.6 C 602.71 33.62 602.7 28.9 602.7 28.9 L 604.7 28.9 C 604.7 28.9 604.65 36.9 604.7 36.9 C 604.7 37.2 604.8 37.3 605.1 37.3 C 605.09 37.34 605.9 37.3 605.9 37.3 L 605.9 39 C 605.9 39 604.05 39 604.1 39 C 603.2 39 602.8 38.6 602.8 37.9 C 602.8 37.9 602.8 37.5 602.8 37.5 C 602.77 37.18 602.8 36.9 602.8 36.9 C 602.8 36.9 602.75 36.92 602.8 36.9 C 602.3 37.9 601 39.2 599 39.2 C 596.8 39.2 595.6 38 595.6 35.4 C 595.6 35.4 595.6 31 595.6 31 Z " stroke="none" fill="#ee3078"/>  </g>  <g id="Polygon71545">    <path d="M 2.1 2.6 L 0.8 2.6 L 0.8 0.9 C 0.8 0.9 6.48 0.88 6.5 0.9 C 10.8 0.9 13.6 3.5 13.6 7.9 C 13.6 12.4 10.8 15 6.5 15 C 6.5 15 3.3 15 3.3 15 C 2.4 15 2.1 14.6 2.1 13.7 C 2.06 13.72 2.1 2.6 2.1 2.6 Z M 4.5 13.3 C 4.5 13.3 6.3 13.3 6.3 13.3 C 9.5 13.3 11.5 11.4 11.5 7.9 C 11.5 4.5 9.5 2.6 6.3 2.6 C 6.34 2.6 4.1 2.6 4.1 2.6 C 4.1 2.6 4.06 12.84 4.1 12.8 C 4.1 13.1 4.2 13.3 4.5 13.3 Z M 16.1 7 C 16.1 6.7 16 6.5 15.7 6.5 C 15.7 6.54 14.9 6.5 14.9 6.5 L 14.9 4.9 C 14.9 4.9 16.72 4.88 16.7 4.9 C 17.6 4.9 18 5.2 18 6.1 C 18 6.1 18 6.7 18 6.7 C 18.02 7.1 18 7.4 18 7.4 C 18 7.4 18.02 7.4 18 7.4 C 18.5 5.9 19.7 4.8 21.2 4.8 C 21.48 4.76 21.7 4.8 21.7 4.8 L 21.7 6.7 C 21.7 6.7 21.48 6.66 21.2 6.7 C 19.9 6.7 18.8 7.5 18.3 9 C 18.1 9.6 18.1 10.2 18.1 10.9 C 18.08 10.86 18.1 15 18.1 15 L 16.1 15 C 16.1 15 16.14 6.98 16.1 7 Z M 27.9 4.6 C 31 4.6 33.4 6.9 33.4 9.9 C 33.4 13 31 15.2 27.9 15.2 C 24.9 15.2 22.5 13 22.5 9.9 C 22.5 6.9 24.9 4.6 27.9 4.6 Z M 27.9 13.6 C 29.9 13.6 31.4 12 31.4 9.9 C 31.4 7.8 29.9 6.3 27.9 6.3 C 26 6.3 24.5 7.8 24.5 9.9 C 24.5 12 26 13.6 27.9 13.6 Z M 35 6.9 C 34.9 6.6 34.7 6.5 34.4 6.5 C 34.38 6.54 34.2 6.5 34.2 6.5 L 34.2 4.9 C 34.2 4.9 35.18 4.88 35.2 4.9 C 36.1 4.9 36.4 5.1 36.7 5.9 C 36.7 5.9 38.9 11.7 38.9 11.7 C 39.1 12.28 39.3 13 39.3 13 L 39.3 13 C 39.3 13 39.46 12.28 39.7 11.7 C 39.7 11.7 41.8 5.9 41.8 5.9 C 42.1 5.1 42.5 4.9 43.4 4.9 C 43.36 4.88 44.3 4.9 44.3 4.9 L 44.3 6.5 C 44.3 6.5 44.1 6.54 44.1 6.5 C 43.8 6.5 43.6 6.6 43.4 6.9 C 43.44 6.94 40.4 15 40.4 15 L 38.1 15 C 38.1 15 35 6.94 35 6.9 Z M 50.2 4.6 C 53 4.6 54.5 6.8 54.5 9.4 C 54.52 9.64 54.5 10.2 54.5 10.2 C 54.5 10.2 47.08 10.18 47.1 10.2 C 47.2 12.3 48.8 13.6 50.6 13.6 C 52.3 13.56 53.5 12.4 53.5 12.4 L 54.4 13.8 C 54.4 13.8 52.86 15.24 50.5 15.2 C 47.3 15.2 45.1 12.9 45.1 9.9 C 45.1 6.7 47.3 4.6 50.2 4.6 Z M 52.5 8.8 C 52.5 7.1 51.4 6.2 50.1 6.2 C 48.7 6.2 47.5 7.1 47.2 8.8 C 47.2 8.8 52.5 8.8 52.5 8.8 Z M 57.1 3 C 57.1 2.7 56.9 2.5 56.6 2.5 C 56.62 2.54 55.8 2.5 55.8 2.5 L 55.8 0.9 C 55.8 0.9 57.72 0.88 57.7 0.9 C 58.6 0.9 59 1.3 59 2.2 C 59 2.2 59 12.9 59 12.9 C 59 13.2 59.2 13.3 59.4 13.3 C 59.44 13.34 60.3 13.3 60.3 13.3 L 60.3 15 C 60.3 15 58.34 15 58.3 15 C 57.4 15 57.1 14.6 57.1 13.7 C 57.1 13.7 57.1 3 57.1 3 Z M 62.6 0.9 L 64.3 0.9 L 64.3 2.9 L 62.6 2.9 L 62.6 0.9 Z M 62.6 7 C 62.6 6.7 62.4 6.5 62.1 6.5 C 62.12 6.54 61.3 6.5 61.3 6.5 L 61.3 4.9 C 61.3 4.9 63.2 4.88 63.2 4.9 C 64.1 4.9 64.5 5.3 64.5 6.2 C 64.5 6.2 64.5 12.9 64.5 12.9 C 64.5 13.2 64.6 13.3 64.9 13.3 C 64.92 13.34 65.7 13.3 65.7 13.3 L 65.7 15 C 65.7 15 63.84 15 63.8 15 C 62.9 15 62.6 14.6 62.6 13.7 C 62.6 13.7 62.6 7 62.6 7 Z M 67.8 12.2 C 67.8 12.2 69 13.66 70.9 13.7 C 71.8 13.7 72.6 13.2 72.6 12.4 C 72.6 10.5 67.1 10.7 67.1 7.5 C 67.1 5.5 68.8 4.6 70.9 4.6 C 72.1 4.6 74.2 5.1 74.2 6.6 C 74.18 6.6 74.2 7.6 74.2 7.6 L 72.4 7.6 C 72.4 7.6 72.44 7.06 72.4 7.1 C 72.4 6.5 71.5 6.2 70.9 6.2 C 69.8 6.2 69 6.6 69 7.4 C 69 9.3 74.6 8.9 74.6 12.3 C 74.6 14.1 73 15.2 70.8 15.2 C 68.14 15.24 66.8 13.5 66.8 13.5 L 67.8 12.2 Z M 82.4 7 C 82.4 6.7 82.3 6.5 82 6.5 C 81.98 6.54 81.2 6.5 81.2 6.5 L 81.2 4.9 C 81.2 4.9 83.02 4.88 83 4.9 C 83.9 4.9 84.3 5.3 84.3 6 C 84.3 6 84.3 6.4 84.3 6.4 C 84.3 6.7 84.3 7 84.3 7 C 84.3 7 84.3 6.96 84.3 7 C 84.7 6.1 85.9 4.6 88.1 4.6 C 90.5 4.6 91.6 5.9 91.6 8.5 C 91.6 8.5 91.6 12.9 91.6 12.9 C 91.6 13.2 91.7 13.3 92 13.3 C 92.02 13.34 92.8 13.3 92.8 13.3 L 92.8 15 C 92.8 15 90.92 15 90.9 15 C 90 15 89.6 14.6 89.6 13.7 C 89.6 13.7 89.6 9 89.6 9 C 89.6 7.5 89.4 6.4 87.7 6.4 C 86.2 6.4 84.9 7.4 84.5 8.9 C 84.4 9.3 84.4 9.8 84.4 10.3 C 84.36 10.26 84.4 15 84.4 15 L 82.4 15 C 82.4 15 82.42 6.98 82.4 7 Z M 99 4.6 C 101.9 4.6 103.4 6.8 103.4 9.4 C 103.4 9.64 103.3 10.2 103.3 10.2 C 103.3 10.2 95.96 10.18 96 10.2 C 96.1 12.3 97.6 13.6 99.4 13.6 C 101.18 13.56 102.4 12.4 102.4 12.4 L 103.2 13.8 C 103.2 13.8 101.74 15.24 99.3 15.2 C 96.1 15.2 94 12.9 94 9.9 C 94 6.7 96.2 4.6 99 4.6 Z M 101.4 8.8 C 101.3 7.1 100.3 6.2 99 6.2 C 97.5 6.2 96.3 7.1 96 8.8 C 96 8.8 101.4 8.8 101.4 8.8 Z M 105.8 12.2 C 105.8 12.2 107.02 13.66 108.9 13.7 C 109.8 13.7 110.6 13.2 110.6 12.4 C 110.6 10.5 105.1 10.7 105.1 7.5 C 105.1 5.5 106.8 4.6 108.9 4.6 C 110.1 4.6 112.2 5.1 112.2 6.6 C 112.2 6.6 112.2 7.6 112.2 7.6 L 110.5 7.6 C 110.5 7.6 110.46 7.06 110.5 7.1 C 110.5 6.5 109.6 6.2 108.9 6.2 C 107.8 6.2 107.1 6.6 107.1 7.4 C 107.1 9.3 112.6 8.9 112.6 12.3 C 112.6 14.1 111 15.2 108.9 15.2 C 106.16 15.24 104.8 13.5 104.8 13.5 L 105.8 12.2 Z M 115.1 7 C 115.1 6.7 114.9 6.5 114.6 6.5 C 114.62 6.54 113.8 6.5 113.8 6.5 L 113.8 4.9 C 113.8 4.9 115.62 4.88 115.6 4.9 C 116.5 4.9 116.9 5.3 116.9 5.9 C 116.86 6.2 116.8 6.4 116.8 6.4 L 116.9 6.4 C 116.9 6.4 117.72 4.64 120.2 4.6 C 123 4.6 124.7 6.8 124.7 9.9 C 124.7 13.2 122.7 15.2 120.1 15.2 C 117.86 15.24 117 13.6 117 13.6 L 117 13.6 C 117 13.6 117 13.98 117 14.5 C 117 14.5 117 19 117 19 L 115.1 19 C 115.1 19 115.06 6.98 115.1 7 Z M 119.8 13.6 C 121.4 13.6 122.7 12.3 122.7 10 C 122.7 7.8 121.5 6.3 119.9 6.3 C 118.4 6.3 116.9 7.4 116.9 10 C 116.9 11.8 117.9 13.6 119.8 13.6 Z M 131.6 4.6 C 134.6 4.6 137.1 6.9 137.1 9.9 C 137.1 13 134.6 15.2 131.6 15.2 C 128.6 15.2 126.2 13 126.2 9.9 C 126.2 6.9 128.6 4.6 131.6 4.6 Z M 131.6 13.6 C 133.5 13.6 135.1 12 135.1 9.9 C 135.1 7.8 133.5 6.3 131.6 6.3 C 129.7 6.3 128.1 7.8 128.1 9.9 C 128.1 12 129.7 13.6 131.6 13.6 Z M 130.7 0.9 L 132.5 0.9 L 134.3 3.4 L 132.7 3.4 L 131.6 1.8 L 131.6 1.8 L 130.5 3.4 L 129 3.4 L 130.7 0.9 Z M 139.3 12.2 C 139.3 12.2 140.52 13.66 142.4 13.7 C 143.3 13.7 144.1 13.2 144.1 12.4 C 144.1 10.5 138.6 10.7 138.6 7.5 C 138.6 5.5 140.3 4.6 142.4 4.6 C 143.6 4.6 145.7 5.1 145.7 6.6 C 145.7 6.6 145.7 7.6 145.7 7.6 L 144 7.6 C 144 7.6 143.96 7.06 144 7.1 C 144 6.5 143.1 6.2 142.4 6.2 C 141.3 6.2 140.6 6.6 140.6 7.4 C 140.6 9.3 146.1 8.9 146.1 12.3 C 146.1 14.1 144.5 15.2 142.4 15.2 C 139.66 15.24 138.3 13.5 138.3 13.5 L 139.3 12.2 Z M 153 4.6 C 156 4.6 158.5 6.9 158.5 9.9 C 158.5 13 156 15.2 153 15.2 C 150 15.2 147.6 13 147.6 9.9 C 147.6 6.9 150 4.6 153 4.6 Z M 153 13.6 C 154.9 13.6 156.5 12 156.5 9.9 C 156.5 7.8 154.9 6.3 153 6.3 C 151.1 6.3 149.6 7.8 149.6 9.9 C 149.6 12 151.1 13.6 153 13.6 Z M 160.6 3 C 160.6 2.7 160.5 2.5 160.2 2.5 C 160.2 2.54 159.4 2.5 159.4 2.5 L 159.4 0.9 C 159.4 0.9 161.3 0.88 161.3 0.9 C 162.2 0.9 162.6 1.3 162.6 2.2 C 162.6 2.2 162.6 5.5 162.6 5.5 C 162.58 5.94 162.5 6.3 162.5 6.3 L 162.6 6.3 C 162.6 6.3 163.46 4.64 165.8 4.6 C 168.6 4.6 170.3 6.8 170.3 9.9 C 170.3 13.2 168.3 15.2 165.7 15.2 C 163.42 15.24 162.5 13.5 162.5 13.5 L 162.5 13.5 C 162.5 13.5 162.5 13.86 162.5 14.3 C 162.5 14.3 162.5 15 162.5 15 L 160.6 15 C 160.6 15 160.64 2.98 160.6 3 Z M 165.4 13.6 C 167 13.6 168.3 12.3 168.3 10 C 168.3 7.8 167.1 6.3 165.4 6.3 C 163.9 6.3 162.5 7.4 162.5 10 C 162.5 11.8 163.5 13.6 165.4 13.6 Z M 172.7 7 C 172.7 6.7 172.5 6.5 172.2 6.5 C 172.24 6.54 171.4 6.5 171.4 6.5 L 171.4 4.9 C 171.4 4.9 173.32 4.88 173.3 4.9 C 174.2 4.9 174.6 5.3 174.6 6.1 C 174.6 6.1 174.6 10.9 174.6 10.9 C 174.6 12.3 174.9 13.4 176.5 13.4 C 178.6 13.4 179.8 11.6 179.8 9.6 C 179.8 9.62 179.8 4.9 179.8 4.9 L 181.7 4.9 C 181.7 4.9 181.74 12.9 181.7 12.9 C 181.7 13.2 181.9 13.3 182.2 13.3 C 182.18 13.34 183 13.3 183 13.3 L 183 15 C 183 15 181.14 15 181.1 15 C 180.3 15 179.9 14.6 179.9 13.9 C 179.9 13.9 179.9 13.5 179.9 13.5 C 179.86 13.18 179.9 12.9 179.9 12.9 C 179.9 12.9 179.84 12.92 179.8 12.9 C 179.4 13.9 178.1 15.2 176.1 15.2 C 173.8 15.2 172.7 14 172.7 11.4 C 172.7 11.4 172.7 7 172.7 7 Z M 185.7 0.9 L 187.4 0.9 L 187.4 2.9 L 185.7 2.9 L 185.7 0.9 Z M 183.5 17.4 C 184.2 17.4 185.6 17.2 185.6 15.2 C 185.6 15.2 185.6 7 185.6 7 C 185.6 6.7 185.5 6.5 185.2 6.5 C 185.2 6.54 184.4 6.5 184.4 6.5 L 184.4 4.9 C 184.4 4.9 186.3 4.88 186.3 4.9 C 187.2 4.9 187.6 5.3 187.6 6.2 C 187.6 6.2 187.6 15.3 187.6 15.3 C 187.6 18.7 185 19.1 183.7 19.1 C 183.3 19.12 183 19.1 183 19.1 L 183 17.4 C 183 17.4 183.22 17.44 183.5 17.4 Z M 195 4.6 C 197.8 4.6 199.3 6.8 199.3 9.4 C 199.32 9.64 199.3 10.2 199.3 10.2 C 199.3 10.2 191.88 10.18 191.9 10.2 C 192 12.3 193.6 13.6 195.4 13.6 C 197.1 13.56 198.3 12.4 198.3 12.4 L 199.2 13.8 C 199.2 13.8 197.66 15.24 195.3 15.2 C 192.1 15.2 189.9 12.9 189.9 9.9 C 189.9 6.7 192.1 4.6 195 4.6 Z M 197.3 8.8 C 197.3 7.1 196.2 6.2 194.9 6.2 C 193.5 6.2 192.3 7.1 192 8.8 C 192 8.8 197.3 8.8 197.3 8.8 Z M 206.2 13.9 C 206.2 13.9 211.42 7.48 211.4 7.5 C 211.86 6.94 212.3 6.5 212.3 6.5 L 212.3 6.5 C 212.3 6.5 211.94 6.54 211.3 6.5 C 211.3 6.5 208.5 6.5 208.5 6.5 C 208.2 6.5 208.1 6.7 208.1 7 C 208.08 6.98 208.1 7.7 208.1 7.7 L 206.3 7.7 C 206.3 7.7 206.3 6.16 206.3 6.2 C 206.3 5.3 206.7 4.9 207.6 4.9 C 207.58 4.88 214.8 4.9 214.8 4.9 L 214.8 6 C 214.8 6 209.62 12.42 209.6 12.4 C 209.2 12.92 208.8 13.3 208.8 13.3 L 208.8 13.4 C 208.8 13.4 209.1 13.34 209.8 13.3 C 209.8 13.3 213 13.3 213 13.3 C 213.3 13.3 213.4 13.2 213.4 12.9 C 213.44 12.9 213.4 12.2 213.4 12.2 L 215.2 12.2 C 215.2 12.2 215.2 13.72 215.2 13.7 C 215.2 14.6 214.8 15 213.9 15 C 213.92 15 206.2 15 206.2 15 L 206.2 13.9 Z M 208.1 0.9 L 209.7 0.9 L 210.8 2.5 L 210.8 2.5 L 211.8 0.9 L 213.4 0.9 L 211.7 3.4 L 209.9 3.4 L 208.1 0.9 Z M 217.5 0.9 L 219.3 0.9 L 219.3 2.9 L 217.5 2.9 L 217.5 0.9 Z M 217.5 7 C 217.5 6.7 217.3 6.5 217 6.5 C 217.04 6.54 216.2 6.5 216.2 6.5 L 216.2 4.9 C 216.2 4.9 218.12 4.88 218.1 4.9 C 219 4.9 219.4 5.3 219.4 6.2 C 219.4 6.2 219.4 12.9 219.4 12.9 C 219.4 13.2 219.6 13.3 219.8 13.3 C 219.84 13.34 220.7 13.3 220.7 13.3 L 220.7 15 C 220.7 15 218.76 15 218.8 15 C 217.9 15 217.5 14.6 217.5 13.7 C 217.5 13.7 217.5 7 217.5 7 Z M 228 8.7 C 228.02 8.7 228.5 8.7 228.5 8.7 C 228.5 8.7 228.46 8.6 228.5 8.6 C 228.5 6.8 227.8 6.2 226.2 6.2 C 225.7 6.2 224.6 6.3 224.6 7 C 224.56 6.96 224.6 7.5 224.6 7.5 L 222.7 7.5 C 222.7 7.5 222.74 6.54 222.7 6.5 C 222.7 4.9 225.3 4.6 226.2 4.6 C 229.5 4.6 230.4 6.4 230.4 8.6 C 230.4 8.6 230.4 12.9 230.4 12.9 C 230.4 13.2 230.6 13.3 230.8 13.3 C 230.84 13.34 231.7 13.3 231.7 13.3 L 231.7 15 C 231.7 15 229.84 15 229.8 15 C 228.9 15 228.6 14.6 228.6 13.8 C 228.58 13.5 228.6 13.2 228.6 13.2 L 228.6 13.2 C 228.6 13.2 227.78 15.24 225.4 15.2 C 223.6 15.2 221.9 14.2 221.9 12.2 C 221.9 8.9 226.3 8.7 228 8.7 Z M 225.8 13.7 C 227.4 13.7 228.5 12 228.5 10.5 C 228.48 10.46 228.5 10.1 228.5 10.1 C 228.5 10.1 227.98 10.12 228 10.1 C 226.5 10.1 223.9 10.2 223.9 12.1 C 223.9 12.9 224.5 13.7 225.8 13.7 Z M 237.4 4.6 C 239.72 4.64 240.5 6.2 240.5 6.2 L 240.5 6.2 C 240.5 6.2 240.5 5.9 240.5 5.5 C 240.5 5.5 240.5 3 240.5 3 C 240.5 2.7 240.3 2.5 240.1 2.5 C 240.06 2.54 239.2 2.5 239.2 2.5 L 239.2 0.9 C 239.2 0.9 241.16 0.88 241.2 0.9 C 242.1 0.9 242.4 1.3 242.4 2.2 C 242.4 2.2 242.4 12.9 242.4 12.9 C 242.4 13.2 242.6 13.3 242.9 13.3 C 242.88 13.34 243.7 13.3 243.7 13.3 L 243.7 15 C 243.7 15 241.84 15 241.8 15 C 241 15 240.6 14.6 240.6 13.9 C 240.6 13.62 240.6 13.4 240.6 13.4 L 240.6 13.4 C 240.6 13.4 239.74 15.24 237.3 15.2 C 234.5 15.2 232.8 13.1 232.8 9.9 C 232.8 6.7 234.7 4.6 237.4 4.6 Z M 240.6 9.9 C 240.6 8.1 239.6 6.3 237.7 6.3 C 236.1 6.3 234.8 7.6 234.8 9.9 C 234.8 12.1 236 13.6 237.6 13.6 C 239.1 13.6 240.6 12.5 240.6 9.9 Z M 245.9 7 C 245.9 6.7 245.7 6.5 245.4 6.5 C 245.42 6.54 244.6 6.5 244.6 6.5 L 244.6 4.9 C 244.6 4.9 246.46 4.88 246.5 4.9 C 247.3 4.9 247.7 5.3 247.7 6 C 247.7 6 247.7 6.4 247.7 6.4 C 247.74 6.7 247.7 7 247.7 7 C 247.7 7 247.74 6.96 247.7 7 C 248.1 6.1 249.3 4.6 251.5 4.6 C 253.9 4.6 255 5.9 255 8.5 C 255 8.5 255 12.9 255 12.9 C 255 13.2 255.2 13.3 255.5 13.3 C 255.46 13.34 256.3 13.3 256.3 13.3 L 256.3 15 C 256.3 15 254.36 15 254.4 15 C 253.5 15 253.1 14.6 253.1 13.7 C 253.1 13.7 253.1 9 253.1 9 C 253.1 7.5 252.8 6.4 251.2 6.4 C 249.6 6.4 248.4 7.4 248 8.9 C 247.8 9.3 247.8 9.8 247.8 10.3 C 247.8 10.26 247.8 15 247.8 15 L 245.9 15 C 245.9 15 245.86 6.98 245.9 7 Z M 258.3 7 C 258.3 6.7 258.2 6.5 257.9 6.5 C 257.9 6.54 257.1 6.5 257.1 6.5 L 257.1 4.9 C 257.1 4.9 258.98 4.88 259 4.9 C 259.9 4.9 260.3 5.3 260.3 6.1 C 260.3 6.1 260.3 10.9 260.3 10.9 C 260.3 12.3 260.6 13.4 262.2 13.4 C 264.2 13.4 265.5 11.6 265.5 9.6 C 265.46 9.62 265.5 4.9 265.5 4.9 L 267.4 4.9 C 267.4 4.9 267.4 12.9 267.4 12.9 C 267.4 13.2 267.6 13.3 267.8 13.3 C 267.84 13.34 268.7 13.3 268.7 13.3 L 268.7 15 C 268.7 15 266.8 15 266.8 15 C 265.9 15 265.5 14.6 265.5 13.9 C 265.5 13.9 265.5 13.5 265.5 13.5 C 265.52 13.18 265.5 12.9 265.5 12.9 C 265.5 12.9 265.5 12.92 265.5 12.9 C 265.1 13.9 263.8 15.2 261.8 15.2 C 259.5 15.2 258.3 14 258.3 11.4 C 258.3 11.4 258.3 7 258.3 7 Z M 275.1 13.9 C 275.1 13.9 280.32 7.48 280.3 7.5 C 280.76 6.94 281.2 6.5 281.2 6.5 L 281.2 6.5 C 281.2 6.5 280.84 6.54 280.2 6.5 C 280.2 6.5 277.4 6.5 277.4 6.5 C 277.1 6.5 277 6.7 277 7 C 276.98 6.98 277 7.7 277 7.7 L 275.2 7.7 C 275.2 7.7 275.2 6.16 275.2 6.2 C 275.2 5.3 275.6 4.9 276.5 4.9 C 276.48 4.88 283.7 4.9 283.7 4.9 L 283.7 6 C 283.7 6 278.52 12.42 278.5 12.4 C 278.1 12.92 277.7 13.3 277.7 13.3 L 277.7 13.4 C 277.7 13.4 278 13.34 278.7 13.3 C 278.7 13.3 281.9 13.3 281.9 13.3 C 282.2 13.3 282.3 13.2 282.3 12.9 C 282.34 12.9 282.3 12.2 282.3 12.2 L 284.1 12.2 C 284.1 12.2 284.1 13.72 284.1 13.7 C 284.1 14.6 283.7 15 282.8 15 C 282.82 15 275.1 15 275.1 15 L 275.1 13.9 Z M 286.3 7 C 286.3 6.7 286.1 6.5 285.8 6.5 C 285.84 6.54 285 6.5 285 6.5 L 285 4.9 C 285 4.9 286.88 4.88 286.9 4.9 C 287.8 4.9 288.2 5.3 288.2 6 C 288.2 6 288.2 6.4 288.2 6.4 C 288.16 6.7 288.1 7 288.1 7 C 288.1 7 288.18 6.96 288.2 7 C 288.7 5.8 290.1 4.6 291.6 4.6 C 293.4 4.6 294.3 5.4 294.7 6.9 C 294.7 6.9 294.7 6.9 294.7 6.9 C 295.3 5.7 296.7 4.6 298.3 4.6 C 300.6 4.6 301.7 5.9 301.7 8.5 C 301.7 8.5 301.7 12.9 301.7 12.9 C 301.7 13.2 301.8 13.3 302.1 13.3 C 302.1 13.34 302.9 13.3 302.9 13.3 L 302.9 15 C 302.9 15 301 15 301 15 C 300.1 15 299.7 14.6 299.7 13.7 C 299.7 13.7 299.7 8.9 299.7 8.9 C 299.7 7.5 299.4 6.4 297.9 6.4 C 296.5 6.4 295.5 7.6 295.1 9 C 295 9.4 294.9 9.9 294.9 10.4 C 294.94 10.38 294.9 15 294.9 15 L 293 15 C 293 15 293 8.94 293 8.9 C 293 7.6 292.8 6.4 291.3 6.4 C 289.8 6.4 288.7 7.6 288.4 9.1 C 288.3 9.5 288.2 9.9 288.2 10.4 C 288.22 10.38 288.2 15 288.2 15 L 286.3 15 C 286.3 15 286.28 6.98 286.3 7 Z M 309.1 4.6 C 312 4.6 313.5 6.8 313.5 9.4 C 313.48 9.64 313.4 10.2 313.4 10.2 C 313.4 10.2 306.04 10.18 306 10.2 C 306.2 12.3 307.7 13.6 309.5 13.6 C 311.26 13.56 312.5 12.4 312.5 12.4 L 313.3 13.8 C 313.3 13.8 311.82 15.24 309.4 15.2 C 306.2 15.2 304 12.9 304 9.9 C 304 6.7 306.2 4.6 309.1 4.6 Z M 311.5 8.8 C 311.4 7.1 310.4 6.2 309.1 6.2 C 307.6 6.2 306.4 7.1 306.1 8.8 C 306.1 8.8 311.5 8.8 311.5 8.8 Z M 316.1 7 C 316.1 6.7 315.9 6.5 315.6 6.5 C 315.62 6.54 314.8 6.5 314.8 6.5 L 314.8 4.9 C 314.8 4.9 316.66 4.88 316.7 4.9 C 317.5 4.9 317.9 5.3 317.9 6 C 317.9 6 317.9 6.4 317.9 6.4 C 317.94 6.7 317.9 7 317.9 7 C 317.9 7 317.94 6.96 317.9 7 C 318.3 6.1 319.5 4.6 321.7 4.6 C 324.1 4.6 325.2 5.9 325.2 8.5 C 325.2 8.5 325.2 12.9 325.2 12.9 C 325.2 13.2 325.4 13.3 325.7 13.3 C 325.66 13.34 326.5 13.3 326.5 13.3 L 326.5 15 C 326.5 15 324.56 15 324.6 15 C 323.7 15 323.3 14.6 323.3 13.7 C 323.3 13.7 323.3 9 323.3 9 C 323.3 7.5 323 6.4 321.4 6.4 C 319.8 6.4 318.6 7.4 318.2 8.9 C 318 9.3 318 9.8 318 10.3 C 318 10.26 318 15 318 15 L 316.1 15 C 316.1 15 316.06 6.98 316.1 7 Z M 328.5 7 C 328.5 6.7 328.4 6.5 328.1 6.5 C 328.1 6.54 327.3 6.5 327.3 6.5 L 327.3 4.9 C 327.3 4.9 329.18 4.88 329.2 4.9 C 330.1 4.9 330.5 5.3 330.5 6.1 C 330.5 6.1 330.5 10.9 330.5 10.9 C 330.5 12.3 330.8 13.4 332.4 13.4 C 334.4 13.4 335.7 11.6 335.7 9.6 C 335.66 9.62 335.7 4.9 335.7 4.9 L 337.6 4.9 C 337.6 4.9 337.6 12.9 337.6 12.9 C 337.6 13.2 337.8 13.3 338 13.3 C 338.04 13.34 338.9 13.3 338.9 13.3 L 338.9 15 C 338.9 15 337 15 337 15 C 336.1 15 335.7 14.6 335.7 13.9 C 335.7 13.9 335.7 13.5 335.7 13.5 C 335.72 13.18 335.7 12.9 335.7 12.9 C 335.7 12.9 335.7 12.92 335.7 12.9 C 335.3 13.9 334 15.2 332 15.2 C 329.7 15.2 328.5 14 328.5 11.4 C 328.5 11.4 328.5 7 328.5 7 Z M 346.5 6.4 L 345.1 6.4 L 345.1 4.9 L 346.5 4.9 L 346.5 2.1 L 348.4 2.1 L 348.4 4.9 L 350.8 4.9 L 350.8 6.4 L 348.4 6.4 C 348.4 6.4 348.39 11.08 348.4 11.1 C 348.4 13.1 349.8 13.4 350.5 13.4 C 350.82 13.36 351 13.3 351 13.3 L 351 15 C 351 15 350.73 15.08 350.3 15.1 C 349 15.1 346.5 14.7 346.5 11.3 C 346.45 11.3 346.5 6.4 346.5 6.4 Z M 357.3 4.6 C 360.2 4.6 361.7 6.8 361.7 9.4 C 361.7 9.64 361.6 10.2 361.6 10.2 C 361.6 10.2 354.26 10.18 354.3 10.2 C 354.4 12.3 355.9 13.6 357.7 13.6 C 359.48 13.56 360.7 12.4 360.7 12.4 L 361.5 13.8 C 361.5 13.8 360.04 15.24 357.6 15.2 C 354.4 15.2 352.3 12.9 352.3 9.9 C 352.3 6.7 354.5 4.6 357.3 4.6 Z M 359.7 8.8 C 359.6 7.1 358.6 6.2 357.3 6.2 C 355.8 6.2 354.6 7.1 354.3 8.8 C 354.3 8.8 359.7 8.8 359.7 8.8 Z M 364.2 3 C 364.2 2.7 364.1 2.5 363.8 2.5 C 363.79 2.54 363 2.5 363 2.5 L 363 0.9 C 363 0.9 364.89 0.88 364.9 0.9 C 365.8 0.9 366.2 1.3 366.2 2.2 C 366.2 2.2 366.2 12.9 366.2 12.9 C 366.2 13.2 366.3 13.3 366.6 13.3 C 366.61 13.34 367.4 13.3 367.4 13.3 L 367.4 15 C 367.4 15 365.51 15 365.5 15 C 364.6 15 364.2 14.6 364.2 13.7 C 364.2 13.7 364.2 3 364.2 3 Z M 373.7 4.6 C 376.6 4.6 378.1 6.8 378.1 9.4 C 378.09 9.64 378 10.2 378 10.2 C 378 10.2 370.65 10.18 370.7 10.2 C 370.8 12.3 372.3 13.6 374.1 13.6 C 375.87 13.56 377.1 12.4 377.1 12.4 L 377.9 13.8 C 377.9 13.8 376.43 15.24 374 15.2 C 370.8 15.2 368.7 12.9 368.7 9.9 C 368.7 6.7 370.9 4.6 373.7 4.6 Z M 376.1 8.8 C 376 7.1 375 6.2 373.7 6.2 C 372.2 6.2 371 7.1 370.7 8.8 C 370.7 8.8 376.1 8.8 376.1 8.8 Z M 380.5 12.2 C 380.5 12.2 381.71 13.66 383.6 13.7 C 384.5 13.7 385.3 13.2 385.3 12.4 C 385.3 10.5 379.8 10.7 379.8 7.5 C 379.8 5.5 381.5 4.6 383.6 4.6 C 384.8 4.6 386.9 5.1 386.9 6.6 C 386.89 6.6 386.9 7.6 386.9 7.6 L 385.2 7.6 C 385.2 7.6 385.15 7.06 385.2 7.1 C 385.2 6.5 384.3 6.2 383.6 6.2 C 382.5 6.2 381.8 6.6 381.8 7.4 C 381.8 9.3 387.3 8.9 387.3 12.3 C 387.3 14.1 385.7 15.2 383.6 15.2 C 380.85 15.24 379.5 13.5 379.5 13.5 L 380.5 12.2 Z M 389.8 7 C 389.8 6.7 389.6 6.5 389.3 6.5 C 389.31 6.54 388.5 6.5 388.5 6.5 L 388.5 4.9 C 388.5 4.9 390.35 4.88 390.4 4.9 C 391.2 4.9 391.6 5.3 391.6 6 C 391.6 6 391.6 6.4 391.6 6.4 C 391.63 6.7 391.6 7 391.6 7 C 391.6 7 391.63 6.96 391.6 7 C 392 6.1 393.2 4.6 395.4 4.6 C 397.8 4.6 398.9 5.9 398.9 8.5 C 398.9 8.5 398.9 12.9 398.9 12.9 C 398.9 13.2 399.1 13.3 399.4 13.3 C 399.35 13.34 400.2 13.3 400.2 13.3 L 400.2 15 C 400.2 15 398.25 15 398.3 15 C 397.4 15 397 14.6 397 13.7 C 397 13.7 397 9 397 9 C 397 7.5 396.7 6.4 395.1 6.4 C 393.5 6.4 392.3 7.4 391.9 8.9 C 391.7 9.3 391.7 9.8 391.7 10.3 C 391.69 10.26 391.7 15 391.7 15 L 389.8 15 C 389.8 15 389.75 6.98 389.8 7 Z M 406.4 4.6 C 409.2 4.6 410.7 6.8 410.7 9.4 C 410.73 9.64 410.7 10.2 410.7 10.2 C 410.7 10.2 403.29 10.18 403.3 10.2 C 403.4 12.3 405 13.6 406.8 13.6 C 408.51 13.56 409.7 12.4 409.7 12.4 L 410.6 13.8 C 410.6 13.8 409.07 15.24 406.7 15.2 C 403.5 15.2 401.3 12.9 401.3 9.9 C 401.3 6.7 403.5 4.6 406.4 4.6 Z M 408.7 8.8 C 408.7 7.1 407.6 6.2 406.4 6.2 C 404.9 6.2 403.7 7.1 403.4 8.8 C 403.4 8.8 408.7 8.8 408.7 8.8 Z M 413.9 0.9 L 415.6 0.9 L 415.6 2.9 L 413.9 2.9 L 413.9 0.9 Z M 411.7 17.4 C 412.4 17.4 413.8 17.2 413.8 15.2 C 413.8 15.2 413.8 7 413.8 7 C 413.8 6.7 413.7 6.5 413.4 6.5 C 413.37 6.54 412.6 6.5 412.6 6.5 L 412.6 4.9 C 412.6 4.9 414.47 4.88 414.5 4.9 C 415.4 4.9 415.8 5.3 415.8 6.2 C 415.8 6.2 415.8 15.3 415.8 15.3 C 415.8 18.7 413.2 19.1 411.9 19.1 C 411.47 19.12 411.2 19.1 411.2 19.1 L 411.2 17.4 C 411.2 17.4 411.39 17.44 411.7 17.4 Z M 424.3 3 C 424.3 2.7 424.2 2.5 423.9 2.5 C 423.89 2.54 423.1 2.5 423.1 2.5 L 423.1 0.9 C 423.1 0.9 424.99 0.88 425 0.9 C 425.9 0.9 426.3 1.3 426.3 2.1 C 426.3 2.1 426.3 6.1 426.3 6.1 C 426.27 6.54 426.2 6.9 426.2 6.9 C 426.2 6.9 426.27 6.9 426.3 6.9 C 426.7 5.9 428 4.6 430 4.6 C 432.4 4.6 433.5 5.9 433.5 8.5 C 433.5 8.5 433.5 12.9 433.5 12.9 C 433.5 13.2 433.7 13.3 433.9 13.3 C 433.93 13.34 434.8 13.3 434.8 13.3 L 434.8 15 C 434.8 15 432.85 15 432.9 15 C 432 15 431.6 14.6 431.6 13.7 C 431.6 13.7 431.6 9 431.6 9 C 431.6 7.5 431.3 6.4 429.7 6.4 C 428.1 6.4 426.9 7.5 426.5 8.9 C 426.3 9.3 426.3 9.8 426.3 10.3 C 426.27 10.26 426.3 15 426.3 15 L 424.3 15 C 424.3 15 424.33 2.98 424.3 3 Z M 436.9 7 C 436.9 6.7 436.7 6.5 436.4 6.5 C 436.41 6.54 435.6 6.5 435.6 6.5 L 435.6 4.9 C 435.6 4.9 437.45 4.88 437.5 4.9 C 438.3 4.9 438.7 5.3 438.7 6 C 438.7 6 438.7 6.4 438.7 6.4 C 438.73 6.7 438.7 7 438.7 7 C 438.7 7 438.75 6.96 438.8 7 C 439.2 5.8 440.6 4.6 442.2 4.6 C 443.9 4.6 444.9 5.4 445.3 6.9 C 445.3 6.9 445.3 6.9 445.3 6.9 C 445.9 5.7 447.3 4.6 448.9 4.6 C 451.2 4.6 452.2 5.9 452.2 8.5 C 452.2 8.5 452.2 12.9 452.2 12.9 C 452.2 13.2 452.4 13.3 452.7 13.3 C 452.67 13.34 453.5 13.3 453.5 13.3 L 453.5 15 C 453.5 15 451.57 15 451.6 15 C 450.7 15 450.3 14.6 450.3 13.7 C 450.3 13.7 450.3 8.9 450.3 8.9 C 450.3 7.5 450 6.4 448.5 6.4 C 447.1 6.4 446 7.6 445.7 9 C 445.6 9.4 445.5 9.9 445.5 10.4 C 445.51 10.38 445.5 15 445.5 15 L 443.6 15 C 443.6 15 443.57 8.94 443.6 8.9 C 443.6 7.6 443.4 6.4 441.8 6.4 C 440.4 6.4 439.3 7.6 438.9 9.1 C 438.8 9.5 438.8 9.9 438.8 10.4 C 438.79 10.38 438.8 15 438.8 15 L 436.9 15 C 436.9 15 436.85 6.98 436.9 7 Z M 460.1 4.6 C 463.1 4.6 465.5 6.9 465.5 9.9 C 465.5 13 463.1 15.2 460.1 15.2 C 457 15.2 454.6 13 454.6 9.9 C 454.6 6.9 457 4.6 460.1 4.6 Z M 460.1 13.6 C 462 13.6 463.5 12 463.5 9.9 C 463.5 7.8 462 6.3 460.1 6.3 C 458.2 6.3 456.6 7.8 456.6 9.9 C 456.6 12 458.2 13.6 460.1 13.6 Z M 468 6.4 L 466.7 6.4 L 466.7 4.9 L 468.1 4.9 L 468.1 2.1 L 470 2.1 L 470 4.9 L 472.4 4.9 L 472.4 6.4 L 470 6.4 C 470 6.4 469.95 11.08 470 11.1 C 470 13.1 471.4 13.4 472.1 13.4 C 472.37 13.36 472.6 13.3 472.6 13.3 L 472.6 15 C 472.6 15 472.29 15.08 471.9 15.1 C 470.6 15.1 468 14.7 468 11.3 C 468.01 11.3 468 6.4 468 6.4 Z M 475 7 C 475 6.7 474.8 6.5 474.5 6.5 C 474.53 6.54 473.7 6.5 473.7 6.5 L 473.7 4.9 C 473.7 4.9 475.57 4.88 475.6 4.9 C 476.4 4.9 476.9 5.3 476.9 6 C 476.9 6 476.9 6.4 476.9 6.4 C 476.85 6.7 476.8 7 476.8 7 C 476.8 7 476.85 6.96 476.9 7 C 477.3 6.1 478.5 4.6 480.7 4.6 C 483.1 4.6 484.1 5.9 484.1 8.5 C 484.1 8.5 484.1 12.9 484.1 12.9 C 484.1 13.2 484.3 13.3 484.6 13.3 C 484.57 13.34 485.4 13.3 485.4 13.3 L 485.4 15 C 485.4 15 483.47 15 483.5 15 C 482.6 15 482.2 14.6 482.2 13.7 C 482.2 13.7 482.2 9 482.2 9 C 482.2 7.5 481.9 6.4 480.3 6.4 C 478.7 6.4 477.5 7.4 477.1 8.9 C 477 9.3 476.9 9.8 476.9 10.3 C 476.91 10.26 476.9 15 476.9 15 L 475 15 C 475 15 474.97 6.98 475 7 Z M 492 4.6 C 495 4.6 497.4 6.9 497.4 9.9 C 497.4 13 495 15.2 492 15.2 C 488.9 15.2 486.5 13 486.5 9.9 C 486.5 6.9 488.9 4.6 492 4.6 Z M 492 13.6 C 493.9 13.6 495.4 12 495.4 9.9 C 495.4 7.8 493.9 6.3 492 6.3 C 490.1 6.3 488.5 7.8 488.5 9.9 C 488.5 12 490.1 13.6 492 13.6 Z M 499.7 12.2 C 499.7 12.2 500.87 13.66 502.7 13.7 C 503.7 13.7 504.5 13.2 504.5 12.4 C 504.5 10.5 499 10.7 499 7.5 C 499 5.5 500.7 4.6 502.7 4.6 C 504 4.6 506.1 5.1 506.1 6.6 C 506.05 6.6 506.1 7.6 506.1 7.6 L 504.3 7.6 C 504.3 7.6 504.31 7.06 504.3 7.1 C 504.3 6.5 503.4 6.2 502.8 6.2 C 501.7 6.2 500.9 6.6 500.9 7.4 C 500.9 9.3 506.4 8.9 506.4 12.3 C 506.4 14.1 504.8 15.2 502.7 15.2 C 500.01 15.24 498.7 13.5 498.7 13.5 L 499.7 12.2 Z M 509 6.4 L 507.7 6.4 L 507.7 4.9 L 509 4.9 L 509 2.1 L 510.9 2.1 L 510.9 4.9 L 513.4 4.9 L 513.4 6.4 L 510.9 6.4 C 510.9 6.4 510.93 11.08 510.9 11.1 C 510.9 13.1 512.3 13.4 513.1 13.4 C 513.35 13.36 513.5 13.3 513.5 13.3 L 513.5 15 C 513.5 15 513.27 15.08 512.9 15.1 C 511.6 15.1 509 14.7 509 11.3 C 508.99 11.3 509 6.4 509 6.4 Z M 516.1 0.9 L 517.8 0.9 L 517.8 2.9 L 516.1 2.9 L 516.1 0.9 Z M 516.1 7 C 516.1 6.7 515.9 6.5 515.6 6.5 C 515.61 6.54 514.8 6.5 514.8 6.5 L 514.8 4.9 C 514.8 4.9 516.69 4.88 516.7 4.9 C 517.6 4.9 518 5.3 518 6.2 C 518 6.2 518 12.9 518 12.9 C 518 13.2 518.1 13.3 518.4 13.3 C 518.41 13.34 519.2 13.3 519.2 13.3 L 519.2 15 C 519.2 15 517.33 15 517.3 15 C 516.4 15 516.1 14.6 516.1 13.7 C 516.1 13.7 516.1 7 516.1 7 Z M 523.4 12.9 L 521.7 17 L 520.2 17 L 521.4 12.9 L 523.4 12.9 Z " stroke="none" fill="#ee3078"/>  </g></svg>