<?xml version="1.0" standalone="no"?><!DOCTYPE svg PUBLIC "-//W3C//DTD SVG 1.1//EN" "http://www.w3.org/Graphics/SVG/1.1/DTD/svg11.dtd"><svg xmlns="http://www.w3.org/2000/svg" version="1.1" width="292px" height="83.7px" viewBox="0 -10 292 83.7" style="top:-10px">  <desc>Modern</desc>  <defs/>  <g id="Polygon65436">    <path d="M 1.1 37.5 C 1.1 37.5 2.87 37.47 2.9 37.5 C 3.7 37.5 4.1 37 4.2 36.2 C 4.16 36.18 6.9 2.3 6.9 2.3 L 14.8 2.3 C 14.8 2.3 23.4 22.17 23.4 22.2 C 24.4 24.57 25.5 27.7 25.5 27.7 L 25.6 27.7 C 25.6 27.7 26.62 24.57 27.6 22.2 C 27.62 22.17 36.2 2.3 36.2 2.3 L 44.2 2.3 C 44.2 2.3 46.86 36.18 46.9 36.2 C 46.9 37 47.3 37.5 48.1 37.5 C 48.15 37.47 50 37.5 50 37.5 L 50 44 C 50 44 43.34 43.98 43.3 44 C 40.6 44 39.6 42.8 39.4 40 C 39.4 40 38 21.5 38 21.5 C 37.77 18.71 37.9 15 37.9 15 L 37.8 15 C 37.8 15 36.59 19.12 35.5 21.5 C 35.54 21.46 28.6 36.8 28.6 36.8 L 22.4 36.8 C 22.4 36.8 15.48 21.46 15.5 21.5 C 14.43 19.12 13.2 15 13.2 15 L 13.1 15 C 13.1 15 13.25 18.71 13 21.5 C 13 21.5 11.7 40 11.7 40 C 11.4 42.8 10.4 44 7.7 44 C 7.68 43.98 1.1 44 1.1 44 L 1.1 37.5 Z M 73.7 1.6 C 86 1.6 95.2 11 95.2 22.9 C 95.2 35.1 86 44.7 73.7 44.7 C 61.5 44.7 52.2 35.1 52.2 22.9 C 52.2 11 61.5 1.6 73.7 1.6 Z M 73.7 37.5 C 81.2 37.5 87.3 31.2 87.3 22.9 C 87.3 14.9 81.2 8.8 73.7 8.8 C 66.2 8.8 60.2 14.9 60.2 22.9 C 60.2 31.2 66.2 37.5 73.7 37.5 Z M 102.2 8.9 L 98.4 8.9 L 98.4 2.3 C 98.4 2.3 115.35 2.35 115.4 2.3 C 128.2 2.3 136.6 10 136.6 23.1 C 136.6 36.2 128.2 44 115.4 44 C 115.4 44 106.2 44 106.2 44 C 103.4 44 102.2 42.8 102.2 40 C 102.21 39.99 102.2 8.9 102.2 8.9 Z M 111.2 37.5 C 111.2 37.5 114.9 37.5 114.9 37.5 C 123.3 37.5 128.6 32.5 128.6 23.1 C 128.6 13.8 123.1 8.9 114.9 8.9 C 114.94 8.86 109.9 8.9 109.9 8.9 C 109.9 8.9 109.9 36.18 109.9 36.2 C 109.9 37 110.4 37.5 111.2 37.5 Z M 143.6 8.9 L 139.7 8.9 L 139.7 2.3 C 139.7 2.3 164.9 2.35 164.9 2.3 C 167.7 2.3 168.9 3.6 168.9 6.3 C 168.89 6.33 168.9 12.7 168.9 12.7 L 161.9 12.7 C 161.9 12.7 161.91 10.15 161.9 10.1 C 161.9 9.3 161.4 8.9 160.6 8.9 C 160.62 8.86 151.2 8.9 151.2 8.9 L 151.2 19.8 L 164.7 19.8 L 164.7 26.3 L 151.2 26.3 C 151.2 26.3 151.24 36.18 151.2 36.2 C 151.2 37 151.7 37.5 152.5 37.5 C 152.5 37.5 162.1 37.5 162.1 37.5 C 163 37.5 163.4 37 163.4 36.2 C 163.44 36.18 163.4 33.7 163.4 33.7 L 170.4 33.7 C 170.4 33.7 170.42 39.99 170.4 40 C 170.4 42.8 169.2 44 166.4 44 C 166.4 44 147.5 44 147.5 44 C 144.7 44 143.6 42.8 143.6 40 C 143.56 39.99 143.6 8.9 143.6 8.9 Z M 176.9 8.9 L 173.1 8.9 L 173.1 2.3 C 173.1 2.3 191.7 2.35 191.7 2.3 C 199.3 2.3 204.7 7 204.7 14.9 C 204.7 22.4 199.5 25.5 197.7 25.9 C 197.74 25.86 197.7 26 197.7 26 C 197.7 26 199.03 26.57 199.8 28.1 C 199.8 28.1 203.8 36.1 203.8 36.1 C 204.5 37.4 205.5 37.5 206.8 37.5 C 206.77 37.47 207.5 37.5 207.5 37.5 L 207.5 44 C 207.5 44 203.49 43.98 203.5 44 C 200.4 44 199 43.5 197.7 40.9 C 197.7 40.9 192.3 30.4 192.3 30.4 C 191.5 28.7 190.6 28.4 188.4 28.4 C 188.42 28.44 184.5 28.4 184.5 28.4 L 184.5 44 L 176.9 44 L 176.9 8.9 Z M 190.6 21.9 C 194.5 21.9 196.8 19.5 196.8 15.3 C 196.8 11.2 194.5 8.9 190.8 8.9 C 190.76 8.86 184.5 8.9 184.5 8.9 L 184.5 21.9 C 184.5 21.9 190.65 21.87 190.6 21.9 Z M 209.5 37.5 C 209.5 37.5 212.05 37.47 212.1 37.5 C 212.9 37.5 213.3 37 213.3 36.2 C 213.34 36.18 213.3 2.3 213.3 2.3 L 220.3 2.3 C 220.3 2.3 236.04 25.39 236 25.4 C 237.68 27.8 239.5 31.3 239.5 31.3 L 239.6 31.3 C 239.6 31.3 239.2 27.8 239.2 25.4 C 239.2 25.4 239.2 6.3 239.2 6.3 C 239.2 3.6 240.4 2.3 243.2 2.3 C 243.19 2.35 250.7 2.3 250.7 2.3 L 250.7 8.9 C 250.7 8.9 248.18 8.86 248.2 8.9 C 247.4 8.9 246.9 9.3 246.9 10.1 C 246.89 10.15 246.9 44 246.9 44 L 240 44 C 240 44 224.19 20.99 224.2 21 C 222.55 18.65 220.7 15.1 220.7 15.1 L 220.6 15.1 C 220.6 15.1 221.02 18.59 221 21 C 221 21 221 40 221 40 C 221 42.8 219.9 44 217 44 C 217.04 43.98 209.5 44 209.5 44 L 209.5 37.5 Z M 252.7 37.5 C 252.7 37.5 253.69 37.47 253.7 37.5 C 254.7 37.5 255.2 37.2 255.5 36.2 C 255.51 36.18 267.9 2.3 267.9 2.3 L 275.9 2.3 C 275.9 2.3 288.23 36.18 288.2 36.2 C 288.6 37.2 289 37.5 290 37.5 C 290.05 37.47 291 37.5 291 37.5 L 291 44 C 291 44 286.41 43.98 286.4 44 C 283.5 44 282.4 43.2 281.5 40.6 C 281.48 40.58 278.9 33.3 278.9 33.3 L 264.8 33.3 C 264.8 33.3 262.25 40.58 262.2 40.6 C 261.3 43.2 260.3 44 257.4 44 C 257.38 43.98 252.7 44 252.7 44 L 252.7 37.5 Z M 277.1 27 C 277.1 27 273.57 16.54 273.6 16.5 C 272.81 14.25 271.9 10.3 271.9 10.3 L 271.8 10.3 C 271.8 10.3 270.93 14.25 270.2 16.5 C 270.17 16.54 266.6 27 266.6 27 L 277.1 27 Z M 273.5 -8.4 L 280.6 -8.4 L 274.4 -0.4 L 269 -0.4 L 273.5 -8.4 Z " stroke="none" fill="#5f0f50"/>  </g></svg>