<?xml version="1.0" standalone="no"?><!DOCTYPE svg PUBLIC "-//W3C//DTD SVG 1.1//EN" "http://www.w3.org/Graphics/SVG/1.1/DTD/svg11.dtd"><svg xmlns="http://www.w3.org/2000/svg" version="1.1" width="150.2px" height="30.5px" viewBox="0 -3 150.2 30.5" style="top:-3px">  <desc>E3 estriol</desc>  <defs/>  <g id="Polygon70491">    <path d="M 45.6 2.1 L 44.7 2.1 L 44.7 0.6 C 44.7 0.6 50.72 0.56 50.7 0.6 C 51.4 0.6 51.7 0.9 51.7 1.5 C 51.67 1.51 51.7 3 51.7 3 L 50 3 C 50 3 50.01 2.42 50 2.4 C 50 2.2 49.9 2.1 49.7 2.1 C 49.7 2.11 47.5 2.1 47.5 2.1 L 47.5 4.7 L 50.7 4.7 L 50.7 6.3 L 47.5 6.3 C 47.5 6.3 47.46 8.64 47.5 8.6 C 47.5 8.8 47.6 8.9 47.8 8.9 C 47.8 8.9 50.1 8.9 50.1 8.9 C 50.3 8.9 50.4 8.8 50.4 8.6 C 50.37 8.64 50.4 8 50.4 8 L 52 8 C 52 8 52.04 9.55 52 9.5 C 52 10.2 51.7 10.5 51.1 10.5 C 51.1 10.5 46.6 10.5 46.6 10.5 C 45.9 10.5 45.6 10.2 45.6 9.5 C 45.63 9.55 45.6 2.1 45.6 2.1 Z M 53.6 7.9 C 53.6 7.9 54.59 8.96 56.1 9 C 57 9 57.8 8.3 57.8 7.5 C 57.8 6.6 56.9 6 55.9 6 C 55.88 6.02 55.2 6 55.2 6 L 54.8 5.1 C 54.8 5.1 56.49 2.86 56.5 2.9 C 56.83 2.35 57.2 2.1 57.2 2.1 L 57.2 2.1 C 57.2 2.1 56.84 2.11 56.3 2.1 C 56.3 2.1 55 2.1 55 2.1 C 54.8 2.1 54.7 2.2 54.7 2.4 C 54.71 2.42 54.7 3 54.7 3 L 53.1 3 C 53.1 3 53.06 1.51 53.1 1.5 C 53.1 0.9 53.3 0.6 53.9 0.6 C 53.93 0.56 59.3 0.6 59.3 0.6 L 59.3 1.7 C 59.3 1.7 57.05 4.55 57.1 4.5 C 58.4 4.8 59.6 5.8 59.6 7.4 C 59.6 9.1 58.3 10.7 56.1 10.7 C 53.92 10.67 52.7 9.3 52.7 9.3 L 53.6 7.9 Z M 67.9 3.2 C 69.9 3.2 71.1 4.7 71.1 6.6 C 71.06 6.79 71 7.2 71 7.2 C 71 7.2 66.09 7.24 66.1 7.2 C 66.2 8.5 67.2 9.2 68.2 9.2 C 69.39 9.16 70.2 8.4 70.2 8.4 L 71 9.6 C 71 9.6 69.89 10.67 68.1 10.7 C 65.7 10.7 64.3 9 64.3 6.9 C 64.3 4.7 65.8 3.2 67.9 3.2 Z M 69.2 6 C 69.2 5.2 68.6 4.6 67.9 4.6 C 67 4.6 66.3 5.1 66.2 6 C 66.2 6 69.2 6 69.2 6 Z M 72.8 8.2 C 72.8 8.2 73.72 9.28 74.9 9.3 C 75.5 9.3 75.9 9.1 75.9 8.6 C 75.9 7.6 72.1 7.6 72.1 5.3 C 72.1 3.9 73.4 3.2 74.9 3.2 C 75.9 3.2 77.4 3.5 77.4 4.7 C 77.42 4.68 77.4 5.4 77.4 5.4 L 75.9 5.4 C 75.9 5.4 75.85 5.07 75.9 5.1 C 75.9 4.7 75.3 4.6 75 4.6 C 74.3 4.6 73.9 4.8 73.9 5.2 C 73.9 6.3 77.7 6.1 77.7 8.5 C 77.7 9.8 76.5 10.7 74.9 10.7 C 72.98 10.67 72 9.4 72 9.4 L 72.8 8.2 Z M 79.4 4.8 L 78.4 4.8 L 78.4 3.4 L 79.4 3.4 L 79.4 1.4 L 81.1 1.4 L 81.1 3.4 L 82.8 3.4 L 82.8 4.8 L 81.1 4.8 C 81.1 4.8 81.14 7.66 81.1 7.7 C 81.1 8.8 82.1 9 82.6 9 C 82.75 9 82.9 9 82.9 9 L 82.9 10.5 C 82.9 10.5 82.66 10.57 82.3 10.6 C 81.3 10.6 79.4 10.3 79.4 7.9 C 79.37 7.88 79.4 4.8 79.4 4.8 Z M 84.5 5.2 C 84.5 5 84.4 4.9 84.2 4.9 C 84.21 4.87 83.7 4.9 83.7 4.9 L 83.7 3.4 C 83.7 3.4 85.28 3.36 85.3 3.4 C 85.9 3.4 86.2 3.6 86.2 4.2 C 86.2 4.2 86.2 4.6 86.2 4.6 C 86.23 4.91 86.2 5.1 86.2 5.1 C 86.2 5.1 86.23 5.1 86.2 5.1 C 86.5 4.1 87.4 3.3 88.5 3.3 C 88.65 3.26 88.8 3.3 88.8 3.3 L 88.8 5 C 88.8 5 88.63 5.01 88.4 5 C 87.6 5 86.8 5.4 86.4 6.5 C 86.3 6.9 86.3 7.3 86.3 7.7 C 86.28 7.67 86.3 10.5 86.3 10.5 L 84.5 10.5 C 84.5 10.5 84.52 5.18 84.5 5.2 Z M 90.4 0.6 L 92 0.6 L 92 2.2 L 90.4 2.2 L 90.4 0.6 Z M 90.3 5.2 C 90.3 5 90.2 4.9 90 4.9 C 90.04 4.87 89.5 4.9 89.5 4.9 L 89.5 3.4 C 89.5 3.4 91.17 3.36 91.2 3.4 C 91.8 3.4 92.1 3.7 92.1 4.3 C 92.1 4.3 92.1 8.7 92.1 8.7 C 92.1 8.9 92.2 9 92.4 9 C 92.41 9 93 9 93 9 L 93 10.5 C 93 10.5 91.28 10.5 91.3 10.5 C 90.6 10.5 90.3 10.2 90.3 9.5 C 90.3 9.5 90.3 5.2 90.3 5.2 Z M 97.7 3.2 C 99.8 3.2 101.6 4.7 101.6 6.9 C 101.6 9.1 99.8 10.7 97.7 10.7 C 95.5 10.7 93.8 9.1 93.8 6.9 C 93.8 4.7 95.5 3.2 97.7 3.2 Z M 97.7 9.2 C 98.8 9.2 99.8 8.3 99.8 6.9 C 99.8 5.6 98.8 4.7 97.7 4.7 C 96.5 4.7 95.6 5.6 95.6 6.9 C 95.6 8.3 96.5 9.2 97.7 9.2 Z M 103 2.4 C 103 2.2 102.9 2.1 102.7 2.1 C 102.73 2.07 102.2 2.1 102.2 2.1 L 102.2 0.6 C 102.2 0.6 103.87 0.56 103.9 0.6 C 104.5 0.6 104.8 0.9 104.8 1.5 C 104.8 1.5 104.8 8.7 104.8 8.7 C 104.8 8.9 104.9 9 105.1 9 C 105.13 9 105.7 9 105.7 9 L 105.7 10.5 C 105.7 10.5 103.99 10.5 104 10.5 C 103.3 10.5 103 10.2 103 9.5 C 103 9.5 103 2.4 103 2.4 Z " stroke="none" fill="#5f0f50"/>  </g></svg>