<?xml version="1.0" standalone="no"?><!DOCTYPE svg PUBLIC "-//W3C//DTD SVG 1.1//EN" "http://www.w3.org/Graphics/SVG/1.1/DTD/svg11.dtd"><svg xmlns="http://www.w3.org/2000/svg" version="1.1" width="158.4px" height="84px" viewBox="0 -1 158.4 84" style="top:-1px">  <desc>Rozdiely v typoch estrog nov</desc>  <defs/>  <g id="Polygon70777">    <path d="M 40.8 55.7 C 43.1 55.7 44.4 57.4 44.4 59.6 C 44.43 59.79 44.4 60.3 44.4 60.3 C 44.4 60.3 38.75 60.31 38.7 60.3 C 38.9 61.7 40 62.5 41.2 62.5 C 42.51 62.5 43.5 61.6 43.5 61.6 L 44.3 63 C 44.3 63 43.08 64.23 41.1 64.2 C 38.3 64.2 36.7 62.3 36.7 60 C 36.7 57.4 38.4 55.7 40.8 55.7 Z M 42.3 58.9 C 42.3 57.9 41.6 57.3 40.8 57.3 C 39.8 57.3 39 57.9 38.8 58.9 C 38.8 58.9 42.3 58.9 42.3 58.9 Z M 46.4 61.4 C 46.4 61.4 47.47 62.64 48.9 62.6 C 49.5 62.6 50 62.4 50 61.8 C 50 60.7 45.7 60.7 45.7 58.1 C 45.7 56.4 47.1 55.7 48.8 55.7 C 49.9 55.7 51.7 56.1 51.7 57.4 C 51.69 57.38 51.7 58.2 51.7 58.2 L 49.9 58.2 C 49.9 58.2 49.9 57.83 49.9 57.8 C 49.9 57.4 49.3 57.3 48.9 57.3 C 48.2 57.3 47.7 57.5 47.7 58 C 47.7 59.3 52 59 52 61.7 C 52 63.3 50.6 64.2 48.9 64.2 C 46.62 64.23 45.5 62.8 45.5 62.8 L 46.4 61.4 Z M 53.9 57.5 L 52.9 57.5 L 52.9 55.9 L 54 55.9 L 54 53.7 L 55.9 53.7 L 55.9 55.9 L 57.8 55.9 L 57.8 57.5 L 55.9 57.5 C 55.9 57.5 55.95 60.79 55.9 60.8 C 55.9 62.1 57 62.3 57.6 62.3 C 57.79 62.32 57.9 62.3 57.9 62.3 L 57.9 64.1 C 57.9 64.1 57.68 64.11 57.3 64.1 C 56.2 64.1 53.9 63.8 53.9 61 C 53.92 61.04 53.9 57.5 53.9 57.5 Z M 59.8 58 C 59.8 57.7 59.7 57.6 59.5 57.6 C 59.45 57.6 58.8 57.6 58.8 57.6 L 58.8 55.9 C 58.8 55.9 60.67 55.87 60.7 55.9 C 61.4 55.9 61.8 56.2 61.8 56.9 C 61.8 56.9 61.8 57.3 61.8 57.3 C 61.76 57.65 61.7 57.9 61.7 57.9 C 61.7 57.9 61.76 57.86 61.8 57.9 C 62.1 56.7 63.1 55.8 64.3 55.8 C 64.52 55.76 64.7 55.8 64.7 55.8 L 64.7 57.8 C 64.7 57.8 64.51 57.76 64.2 57.8 C 63.4 57.8 62.4 58.3 62 59.5 C 61.9 59.9 61.8 60.3 61.8 60.8 C 61.82 60.8 61.8 64 61.8 64 L 59.8 64 C 59.8 64 59.8 57.95 59.8 58 Z M 69.7 55.7 C 72.2 55.7 74.2 57.5 74.2 60 C 74.2 62.5 72.2 64.2 69.7 64.2 C 67.3 64.2 65.3 62.5 65.3 60 C 65.3 57.5 67.3 55.7 69.7 55.7 Z M 69.7 62.5 C 71.1 62.5 72.2 61.5 72.2 60 C 72.2 58.5 71.1 57.4 69.7 57.4 C 68.4 57.4 67.3 58.5 67.3 60 C 67.3 61.5 68.4 62.5 69.7 62.5 Z M 78.9 55.7 C 80.75 55.68 81.4 56.8 81.4 56.8 L 81.4 56.8 C 81.4 56.8 81.4 56.74 81.4 56.6 C 81.4 56.3 81.7 55.9 82.3 55.9 C 82.3 55.87 84.2 55.9 84.2 55.9 L 84.2 57.6 C 84.2 57.6 83.56 57.6 83.6 57.6 C 83.4 57.6 83.2 57.7 83.2 57.9 C 83.2 57.9 83.2 63.5 83.2 63.5 C 83.2 66.3 81 67.4 78.9 67.4 C 77.9 67.4 76.8 67.1 76 66.7 C 76.01 66.69 76.6 65.1 76.6 65.1 C 76.6 65.1 77.64 65.63 78.9 65.6 C 80.1 65.6 81.2 65.1 81.2 63.6 C 81.2 63.6 81.2 63.3 81.2 63.3 C 81.2 63.06 81.2 62.8 81.2 62.8 C 81.2 62.8 81.18 62.82 81.2 62.8 C 80.7 63.5 80 63.9 78.9 63.9 C 76.6 63.9 75.2 62 75.2 59.7 C 75.2 57.5 76.5 55.7 78.9 55.7 Z M 81.2 59.8 C 81.2 57.9 80.3 57.4 79.2 57.4 C 78 57.4 77.3 58.3 77.3 59.7 C 77.3 61.1 78 62.2 79.3 62.2 C 80.3 62.2 81.2 61.6 81.2 59.8 Z M 89.2 55.7 C 91.5 55.7 92.8 57.4 92.8 59.6 C 92.8 59.79 92.7 60.3 92.7 60.3 C 92.7 60.3 87.12 60.31 87.1 60.3 C 87.3 61.7 88.3 62.5 89.6 62.5 C 90.88 62.5 91.9 61.6 91.9 61.6 L 92.7 63 C 92.7 63 91.45 64.23 89.4 64.2 C 86.7 64.2 85 62.3 85 60 C 85 57.4 86.7 55.7 89.2 55.7 Z M 90.7 58.9 C 90.7 57.9 90 57.3 89.2 57.3 C 88.1 57.3 87.4 57.9 87.2 58.9 C 87.2 58.9 90.7 58.9 90.7 58.9 Z M 89.6 52.7 L 91.5 52.7 L 89.8 54.9 L 88.3 54.9 L 89.6 52.7 Z M 94.8 58 C 94.8 57.7 94.6 57.6 94.4 57.6 C 94.41 57.6 93.8 57.6 93.8 57.6 L 93.8 55.9 C 93.8 55.9 95.64 55.87 95.6 55.9 C 96.4 55.9 96.7 56.2 96.7 56.8 C 96.7 56.8 96.7 57 96.7 57 C 96.72 57.2 96.7 57.4 96.7 57.4 C 96.7 57.4 96.72 57.38 96.7 57.4 C 97.1 56.7 97.9 55.7 99.6 55.7 C 101.4 55.7 102.4 56.6 102.4 58.8 C 102.4 58.8 102.4 62 102.4 62 C 102.4 62.2 102.6 62.3 102.8 62.3 C 102.8 62.32 103.4 62.3 103.4 62.3 L 103.4 64 C 103.4 64 101.5 64.03 101.5 64 C 100.7 64 100.4 63.7 100.4 62.9 C 100.4 62.9 100.4 59.2 100.4 59.2 C 100.4 58.2 100.2 57.5 99.1 57.5 C 98 57.5 97.2 58.2 96.9 59.2 C 96.8 59.5 96.8 59.9 96.8 60.3 C 96.78 60.29 96.8 64 96.8 64 L 94.8 64 C 94.8 64 94.76 57.95 94.8 58 Z M 108.7 55.7 C 111.2 55.7 113.2 57.5 113.2 60 C 113.2 62.5 111.2 64.2 108.7 64.2 C 106.2 64.2 104.2 62.5 104.2 60 C 104.2 57.5 106.2 55.7 108.7 55.7 Z M 108.7 62.5 C 110 62.5 111.1 61.5 111.1 60 C 111.1 58.5 110 57.4 108.7 57.4 C 107.4 57.4 106.3 58.5 106.3 60 C 106.3 61.5 107.4 62.5 108.7 62.5 Z M 114.3 57.9 C 114.3 57.7 114.1 57.6 113.9 57.6 C 113.9 57.6 113.7 57.6 113.7 57.6 L 113.7 55.9 C 113.7 55.9 114.89 55.87 114.9 55.9 C 115.6 55.9 115.9 56.1 116.1 56.6 C 116.1 56.6 117.6 60.9 117.6 60.9 C 117.8 61.41 117.9 62.1 117.9 62.1 L 118 62.1 C 118 62.1 118.09 61.41 118.3 60.9 C 118.3 60.9 119.8 56.6 119.8 56.6 C 120 56.1 120.3 55.9 121 55.9 C 120.99 55.87 122.1 55.9 122.1 55.9 L 122.1 57.6 C 122.1 57.6 121.88 57.6 121.9 57.6 C 121.7 57.6 121.5 57.7 121.4 57.9 C 121.43 57.89 119.1 64 119.1 64 L 116.7 64 C 116.7 64 114.35 57.89 114.3 57.9 Z " stroke="none" fill="#ee3078"/>  </g>  <g id="Polygon70776">    <path d="M 46.9 38.7 C 46.8 38.5 46.7 38.4 46.4 38.4 C 46.44 38.4 46.3 38.4 46.3 38.4 L 46.3 36.7 C 46.3 36.7 47.43 36.67 47.4 36.7 C 48.1 36.7 48.4 36.9 48.6 37.4 C 48.6 37.4 50.2 41.7 50.2 41.7 C 50.34 42.21 50.5 42.9 50.5 42.9 L 50.5 42.9 C 50.5 42.9 50.63 42.21 50.8 41.7 C 50.8 41.7 52.3 37.4 52.3 37.4 C 52.5 36.9 52.9 36.7 53.5 36.7 C 53.52 36.67 54.6 36.7 54.6 36.7 L 54.6 38.4 C 54.6 38.4 54.42 38.4 54.4 38.4 C 54.2 38.4 54.1 38.5 54 38.7 C 53.97 38.69 51.6 44.8 51.6 44.8 L 49.2 44.8 C 49.2 44.8 46.88 38.69 46.9 38.7 Z M 60.4 38.3 L 59.3 38.3 L 59.3 36.7 L 60.4 36.7 L 60.4 34.5 L 62.4 34.5 L 62.4 36.7 L 64.3 36.7 L 64.3 38.3 L 62.4 38.3 C 62.4 38.3 62.42 41.59 62.4 41.6 C 62.4 42.9 63.5 43.1 64 43.1 C 64.26 43.12 64.4 43.1 64.4 43.1 L 64.4 44.9 C 64.4 44.9 64.15 44.91 63.8 44.9 C 62.6 44.9 60.4 44.6 60.4 41.8 C 60.39 41.84 60.4 38.3 60.4 38.3 Z M 66.8 46.5 C 67.3 46.5 67.8 46.1 68.1 45.4 C 68.1 45.44 68.4 44.8 68.4 44.8 C 68.4 44.8 65.65 38.69 65.7 38.7 C 65.6 38.5 65.4 38.4 65.2 38.4 C 65.22 38.4 65 38.4 65 38.4 L 65 36.7 C 65 36.7 66.32 36.67 66.3 36.7 C 66.9 36.7 67.2 36.9 67.4 37.4 C 67.4 37.4 69 41.5 69 41.5 C 69.16 41.94 69.3 42.6 69.3 42.6 L 69.3 42.6 C 69.3 42.6 69.44 41.94 69.6 41.5 C 69.6 41.5 71 37.4 71 37.4 C 71.2 36.9 71.5 36.7 72.1 36.7 C 72.07 36.67 73.4 36.7 73.4 36.7 L 73.4 38.4 C 73.4 38.4 73.2 38.4 73.2 38.4 C 73 38.4 72.8 38.5 72.7 38.7 C 72.7 38.7 69.8 46.1 69.8 46.1 C 69.2 47.5 68.1 48.2 66.9 48.2 C 65.59 48.19 64.8 47.4 64.8 47.4 L 65.6 45.9 C 65.6 45.9 66.08 46.48 66.8 46.5 Z M 75 38.8 C 75 38.5 74.8 38.4 74.6 38.4 C 74.61 38.4 74 38.4 74 38.4 L 74 36.7 C 74 36.7 75.78 36.67 75.8 36.7 C 76.5 36.7 76.8 37 76.8 37.5 C 76.8 37.65 76.8 37.8 76.8 37.8 L 76.8 37.8 C 76.8 37.8 77.52 36.48 79.4 36.5 C 81.6 36.5 83.1 38.2 83.1 40.8 C 83.1 43.3 81.5 45 79.3 45 C 77.7 45.03 77 44 77 44 L 76.9 44 C 76.9 44 76.98 44.24 77 44.7 C 76.98 44.66 77 48 77 48 L 75 48 C 75 48 74.96 38.75 75 38.8 Z M 78.9 43.3 C 80.1 43.3 81 42.4 81 40.8 C 81 39.2 80.2 38.2 79 38.2 C 77.9 38.2 76.9 39 76.9 40.8 C 76.9 42.1 77.6 43.3 78.9 43.3 Z M 88.5 36.5 C 91 36.5 93 38.3 93 40.8 C 93 43.3 91 45 88.5 45 C 86.1 45 84.1 43.3 84.1 40.8 C 84.1 38.3 86.1 36.5 88.5 36.5 Z M 88.5 43.3 C 89.9 43.3 91 42.3 91 40.8 C 91 39.3 89.9 38.2 88.5 38.2 C 87.2 38.2 86.1 39.3 86.1 40.8 C 86.1 42.3 87.2 43.3 88.5 43.3 Z M 98.5 36.5 C 99.6 36.5 101.5 36.9 101.5 38.3 C 101.48 38.32 101.5 39.3 101.5 39.3 L 99.7 39.3 C 99.7 39.3 99.68 38.83 99.7 38.8 C 99.7 38.4 99 38.2 98.5 38.2 C 97.1 38.2 96.1 39.3 96.1 40.7 C 96.1 42.4 97.3 43.3 98.6 43.3 C 100.04 43.25 101.1 42.1 101.1 42.1 L 101.9 43.6 C 101.9 43.6 100.69 45.03 98.5 45 C 95.8 45 94.1 43.1 94.1 40.8 C 94.1 38.5 95.7 36.5 98.5 36.5 Z M 103.4 35.6 C 103.4 35.3 103.2 35.2 103 35.2 C 103.01 35.2 102.4 35.2 102.4 35.2 L 102.4 33.5 C 102.4 33.5 104.31 33.47 104.3 33.5 C 105.1 33.5 105.4 33.8 105.4 34.5 C 105.4 34.5 105.4 37.4 105.4 37.4 C 105.4 37.81 105.4 38.1 105.4 38.1 C 105.4 38.1 105.4 38.1 105.4 38.1 C 105.8 37.3 106.8 36.5 108.2 36.5 C 110 36.5 111 37.4 111 39.6 C 111 39.6 111 42.8 111 42.8 C 111 43 111.2 43.1 111.4 43.1 C 111.4 43.12 112 43.1 112 43.1 L 112 44.8 C 112 44.8 110.1 44.83 110.1 44.8 C 109.3 44.8 109 44.5 109 43.7 C 109 43.7 109 40 109 40 C 109 39 108.8 38.3 107.7 38.3 C 106.7 38.3 105.8 39 105.5 40 C 105.4 40.4 105.4 40.7 105.4 41.1 C 105.4 41.09 105.4 44.8 105.4 44.8 L 103.4 44.8 C 103.4 44.8 103.36 35.55 103.4 35.6 Z " stroke="none" fill="#ee3078"/>  </g>  <g id="Polygon70775">    <path d="M 48.3 16.1 L 47.3 16.1 L 47.3 14.3 C 47.3 14.3 52.35 14.27 52.3 14.3 C 54.4 14.3 55.9 15.6 55.9 17.7 C 55.9 19.7 54.5 20.6 54 20.7 C 54 20.69 54 20.7 54 20.7 C 54 20.7 54.35 20.88 54.6 21.3 C 54.6 21.3 55.7 23.5 55.7 23.5 C 55.8 23.8 56.1 23.9 56.5 23.9 C 56.46 23.86 56.7 23.9 56.7 23.9 L 56.7 25.6 C 56.7 25.6 55.56 25.63 55.6 25.6 C 54.7 25.6 54.3 25.5 54 24.8 C 54 24.8 52.5 21.9 52.5 21.9 C 52.3 21.5 52 21.4 51.5 21.4 C 51.45 21.39 50.4 21.4 50.4 21.4 L 50.4 25.6 L 48.3 25.6 L 48.3 16.1 Z M 52.1 19.6 C 53.1 19.6 53.7 18.9 53.7 17.8 C 53.7 16.7 53.1 16.1 52.1 16.1 C 52.09 16.05 50.4 16.1 50.4 16.1 L 50.4 19.6 C 50.4 19.6 52.06 19.6 52.1 19.6 Z M 61.7 17.3 C 64.2 17.3 66.2 19.1 66.2 21.6 C 66.2 24.1 64.2 25.8 61.7 25.8 C 59.2 25.8 57.2 24.1 57.2 21.6 C 57.2 19.1 59.2 17.3 61.7 17.3 Z M 61.7 24.1 C 63 24.1 64.1 23.1 64.1 21.6 C 64.1 20.1 63 19 61.7 19 C 60.4 19 59.3 20.1 59.3 21.6 C 59.3 23.1 60.4 24.1 61.7 24.1 Z M 67 24.5 C 67 24.5 70.72 19.95 70.7 20 C 71.08 19.49 71.4 19.2 71.4 19.2 L 71.4 19.2 C 71.4 19.2 71.16 19.2 70.7 19.2 C 70.7 19.2 69.2 19.2 69.2 19.2 C 69 19.2 68.8 19.3 68.8 19.6 C 68.83 19.55 68.8 20 68.8 20 L 67 20 C 67 20 66.99 18.56 67 18.6 C 67 17.8 67.3 17.5 68.1 17.5 C 68.08 17.47 74.1 17.5 74.1 17.5 L 74.1 18.6 C 74.1 18.6 70.3 23.17 70.3 23.2 C 69.93 23.62 69.6 23.9 69.6 23.9 L 69.6 24 C 69.6 24 69.85 23.91 70.4 23.9 C 70.4 23.9 72.2 23.9 72.2 23.9 C 72.4 23.9 72.5 23.8 72.5 23.6 C 72.52 23.55 72.5 23.1 72.5 23.1 L 74.4 23.1 C 74.4 23.1 74.36 24.55 74.4 24.5 C 74.4 25.3 74 25.6 73.3 25.6 C 73.29 25.63 67 25.6 67 25.6 L 67 24.5 Z M 78.8 17.3 C 80.54 17.28 81.1 18.3 81.1 18.3 L 81.1 18.3 C 81.1 18.3 81.13 18.07 81.1 17.8 C 81.1 17.8 81.1 16.4 81.1 16.4 C 81.1 16.1 81 16 80.8 16 C 80.78 16 80.1 16 80.1 16 L 80.1 14.3 C 80.1 14.3 82.08 14.27 82.1 14.3 C 82.8 14.3 83.2 14.6 83.2 15.4 C 83.2 15.4 83.2 23.6 83.2 23.6 C 83.2 23.8 83.3 23.9 83.5 23.9 C 83.52 23.92 84.1 23.9 84.1 23.9 L 84.1 25.6 C 84.1 25.6 82.27 25.63 82.3 25.6 C 81.5 25.6 81.3 25.3 81.3 24.8 C 81.26 24.63 81.3 24.5 81.3 24.5 L 81.2 24.5 C 81.2 24.5 80.56 25.83 78.7 25.8 C 76.5 25.8 75.1 24.1 75.1 21.6 C 75.1 19 76.6 17.3 78.8 17.3 Z M 81.2 21.5 C 81.2 20.3 80.5 19 79.2 19 C 78 19 77.1 19.9 77.1 21.6 C 77.1 23.1 77.9 24.1 79.1 24.1 C 80.2 24.1 81.2 23.3 81.2 21.5 Z M 86 14.3 L 87.7 14.3 L 87.7 16.1 L 86 16.1 L 86 14.3 Z M 85.9 19.6 C 85.9 19.3 85.8 19.2 85.5 19.2 C 85.53 19.2 84.9 19.2 84.9 19.2 L 84.9 17.5 C 84.9 17.5 86.83 17.47 86.8 17.5 C 87.6 17.5 87.9 17.8 87.9 18.6 C 87.9 18.6 87.9 23.6 87.9 23.6 C 87.9 23.8 88 23.9 88.3 23.9 C 88.25 23.92 88.9 23.9 88.9 23.9 L 88.9 25.6 C 88.9 25.6 86.96 25.63 87 25.6 C 86.2 25.6 85.9 25.3 85.9 24.5 C 85.9 24.5 85.9 19.6 85.9 19.6 Z M 93.9 17.3 C 96.3 17.3 97.5 19 97.5 21.2 C 97.55 21.39 97.5 21.9 97.5 21.9 C 97.5 21.9 91.87 21.91 91.9 21.9 C 92 23.3 93.1 24.1 94.3 24.1 C 95.63 24.1 96.6 23.2 96.6 23.2 L 97.5 24.6 C 97.5 24.6 96.2 25.83 94.2 25.8 C 91.5 25.8 89.8 23.9 89.8 21.6 C 89.8 19 91.5 17.3 93.9 17.3 Z M 95.5 20.5 C 95.4 19.5 94.8 18.9 93.9 18.9 C 92.9 18.9 92.2 19.5 91.9 20.5 C 91.9 20.5 95.5 20.5 95.5 20.5 Z M 99.5 16.4 C 99.5 16.1 99.3 16 99.1 16 C 99.12 16 98.5 16 98.5 16 L 98.5 14.3 C 98.5 14.3 100.41 14.27 100.4 14.3 C 101.2 14.3 101.5 14.6 101.5 15.4 C 101.5 15.4 101.5 23.6 101.5 23.6 C 101.5 23.8 101.6 23.9 101.9 23.9 C 101.85 23.92 102.5 23.9 102.5 23.9 L 102.5 25.6 C 102.5 25.6 100.56 25.63 100.6 25.6 C 99.8 25.6 99.5 25.3 99.5 24.5 C 99.5 24.5 99.5 16.4 99.5 16.4 Z M 104.8 27.3 C 105.4 27.3 105.9 26.9 106.2 26.2 C 106.15 26.24 106.4 25.6 106.4 25.6 C 106.4 25.6 103.71 19.49 103.7 19.5 C 103.6 19.3 103.5 19.2 103.3 19.2 C 103.27 19.2 103 19.2 103 19.2 L 103 17.5 C 103 17.5 104.38 17.47 104.4 17.5 C 105 17.5 105.2 17.7 105.5 18.2 C 105.5 18.2 107.1 22.3 107.1 22.3 C 107.21 22.74 107.3 23.4 107.3 23.4 L 107.4 23.4 C 107.4 23.4 107.5 22.74 107.6 22.3 C 107.6 22.3 109 18.2 109 18.2 C 109.2 17.7 109.6 17.5 110.1 17.5 C 110.12 17.47 111.5 17.5 111.5 17.5 L 111.5 19.2 C 111.5 19.2 111.26 19.2 111.3 19.2 C 111 19.2 110.9 19.3 110.8 19.5 C 110.8 19.5 107.9 26.9 107.9 26.9 C 107.3 28.3 106.1 29 104.9 29 C 103.64 28.99 102.9 28.2 102.9 28.2 L 103.6 26.7 C 103.6 26.7 104.14 27.28 104.8 27.3 Z " stroke="none" fill="#ee3078"/>  </g></svg>