<?xml version="1.0" standalone="no"?><!DOCTYPE svg PUBLIC "-//W3C//DTD SVG 1.1//EN" "http://www.w3.org/Graphics/SVG/1.1/DTD/svg11.dtd"><svg xmlns="http://www.w3.org/2000/svg" version="1.1" width="113.4px" height="78.9px" viewBox="0 0 113.4 78.9">  <desc>13 20 hod n</desc>  <defs/>  <g id="Polygon69508">    <path d="M 23.3 41.2 L 25 41.2 C 25 41.2 25 36.19 25 36.2 C 25 35.95 25 35.7 25 35.7 L 25 35.7 C 25 35.7 24.9 35.88 24.6 36.2 C 24.62 36.16 23.9 36.9 23.9 36.9 L 23.2 36.2 L 25.1 34.4 L 26.1 34.4 L 26.1 41.2 L 27.8 41.2 L 27.8 42.2 L 23.3 42.2 L 23.3 41.2 Z M 29 40.4 C 29 40.4 29.74 41.25 30.9 41.3 C 31.8 41.3 32.5 40.7 32.5 39.8 C 32.5 39 31.7 38.4 30.8 38.4 C 30.8 38.44 30.3 38.4 30.3 38.4 L 30 37.9 C 30 37.9 31.64 35.83 31.6 35.8 C 31.87 35.5 32.1 35.3 32.1 35.3 L 32.1 35.3 C 32.1 35.3 31.86 35.33 31.4 35.3 C 31.4 35.3 29.9 35.3 29.9 35.3 C 29.8 35.3 29.7 35.4 29.7 35.6 C 29.69 35.57 29.7 36.1 29.7 36.1 L 28.7 36.1 C 28.7 36.1 28.68 35.09 28.7 35.1 C 28.7 34.6 28.9 34.4 29.4 34.4 C 29.35 34.39 33.4 34.4 33.4 34.4 L 33.4 35.1 C 33.4 35.1 31.4 37.54 31.4 37.5 C 32.4 37.7 33.6 38.3 33.6 39.8 C 33.6 41.1 32.6 42.3 30.9 42.3 C 29.32 42.28 28.4 41.2 28.4 41.2 L 29 40.4 Z M 37.8 38.5 L 41 38.5 L 41 39.5 L 37.8 39.5 L 37.8 38.5 Z M 49.1 36.5 C 49.1 35.8 48.5 35.3 47.7 35.3 C 47 35.3 46.5 35.6 46.5 36 C 46.5 36 46.5 36.3 46.5 36.3 L 45.5 36.3 C 45.5 36.3 45.49 35.68 45.5 35.7 C 45.5 34.7 46.8 34.3 47.7 34.3 C 49.2 34.3 50.2 35.2 50.2 36.5 C 50.2 39.2 46.2 39.2 46.2 41 C 46.2 41.2 46.3 41.2 46.5 41.2 C 46.5 41.2 49.3 41.2 49.3 41.2 C 49.4 41.2 49.5 41.1 49.5 41 C 49.53 40.96 49.5 40.5 49.5 40.5 L 50.5 40.5 C 50.5 40.5 50.54 41.45 50.5 41.4 C 50.5 41.9 50.3 42.2 49.8 42.2 C 49.8 42.2 45.9 42.2 45.9 42.2 C 45.2 42.2 45.1 41.9 45.1 41.3 C 45.1 38.4 49.1 38.6 49.1 36.5 Z M 51.5 38.3 C 51.5 36 52.2 34.3 54.3 34.3 C 56.4 34.3 57 36 57 38.3 C 57 40.5 56.4 42.3 54.3 42.3 C 52.2 42.3 51.5 40.5 51.5 38.3 Z M 55.9 38.3 C 55.9 36.6 55.6 35.3 54.3 35.3 C 53 35.3 52.6 36.6 52.6 38.3 C 52.6 40 53 41.3 54.3 41.3 C 55.6 41.3 55.9 40 55.9 38.3 Z M 61.5 35.5 C 61.5 35.4 61.4 35.3 61.2 35.3 C 61.23 35.3 60.8 35.3 60.8 35.3 L 60.8 34.4 C 60.8 34.4 61.84 34.39 61.8 34.4 C 62.3 34.4 62.5 34.6 62.5 35.1 C 62.5 35.1 62.5 37.2 62.5 37.2 C 62.54 37.5 62.5 37.7 62.5 37.7 C 62.5 37.7 62.54 37.7 62.5 37.7 C 62.8 37.2 63.5 36.5 64.6 36.5 C 65.9 36.5 66.5 37.2 66.5 38.6 C 66.5 38.6 66.5 41 66.5 41 C 66.5 41.2 66.6 41.2 66.8 41.2 C 66.75 41.24 67.2 41.2 67.2 41.2 L 67.2 42.2 C 67.2 42.2 66.16 42.15 66.2 42.2 C 65.7 42.2 65.5 41.9 65.5 41.4 C 65.5 41.4 65.5 38.8 65.5 38.8 C 65.5 38 65.3 37.4 64.4 37.4 C 63.6 37.4 62.9 38 62.6 38.8 C 62.6 39 62.5 39.3 62.5 39.5 C 62.54 39.54 62.5 42.2 62.5 42.2 L 61.5 42.2 C 61.5 42.2 61.47 35.54 61.5 35.5 Z M 70.8 36.5 C 72.5 36.5 73.8 37.7 73.8 39.4 C 73.8 41.1 72.5 42.3 70.8 42.3 C 69.1 42.3 67.8 41.1 67.8 39.4 C 67.8 37.7 69.1 36.5 70.8 36.5 Z M 70.8 41.4 C 71.9 41.4 72.7 40.5 72.7 39.4 C 72.7 38.2 71.9 37.4 70.8 37.4 C 69.8 37.4 68.9 38.2 68.9 39.4 C 68.9 40.5 69.8 41.4 70.8 41.4 Z M 77.1 36.5 C 78.42 36.45 78.9 37.3 78.9 37.3 L 78.9 37.3 C 78.9 37.3 78.85 37.15 78.9 36.9 C 78.9 36.9 78.9 35.5 78.9 35.5 C 78.9 35.4 78.8 35.3 78.6 35.3 C 78.61 35.3 78.2 35.3 78.2 35.3 L 78.2 34.4 C 78.2 34.4 79.22 34.39 79.2 34.4 C 79.7 34.4 79.9 34.6 79.9 35.1 C 79.9 35.1 79.9 41 79.9 41 C 79.9 41.2 80 41.2 80.2 41.2 C 80.16 41.24 80.6 41.2 80.6 41.2 L 80.6 42.2 C 80.6 42.2 79.59 42.15 79.6 42.2 C 79.1 42.2 78.9 41.9 78.9 41.6 C 78.9 41.4 78.9 41.3 78.9 41.3 C 78.92 41.27 78.9 41.3 78.9 41.3 C 78.9 41.3 78.43 42.28 77.1 42.3 C 75.6 42.3 74.6 41.1 74.6 39.4 C 74.6 37.6 75.7 36.5 77.1 36.5 Z M 78.9 39.4 C 78.9 38.4 78.4 37.4 77.3 37.4 C 76.4 37.4 75.7 38.1 75.7 39.4 C 75.7 40.6 76.4 41.4 77.3 41.4 C 78.1 41.4 78.9 40.8 78.9 39.4 Z M 81.9 37.7 C 81.9 37.6 81.8 37.5 81.6 37.5 C 81.61 37.5 81.2 37.5 81.2 37.5 L 81.2 36.6 C 81.2 36.6 82.22 36.59 82.2 36.6 C 82.7 36.6 82.9 36.8 82.9 37.3 C 82.9 37.3 82.9 41 82.9 41 C 82.9 41.2 83 41.2 83.2 41.2 C 83.16 41.24 83.6 41.2 83.6 41.2 L 83.6 42.2 C 83.6 42.2 82.57 42.15 82.6 42.2 C 82.1 42.2 81.9 41.9 81.9 41.4 C 81.9 41.4 81.9 37.7 81.9 37.7 Z M 82.7 34.4 L 83.8 34.4 L 82.7 35.8 L 81.9 35.8 L 82.7 34.4 Z M 84.8 37.7 C 84.8 37.6 84.8 37.5 84.6 37.5 C 84.61 37.5 84.2 37.5 84.2 37.5 L 84.2 36.6 C 84.2 36.6 85.18 36.59 85.2 36.6 C 85.6 36.6 85.9 36.8 85.9 37.2 C 85.9 37.2 85.9 37.4 85.9 37.4 C 85.88 37.59 85.9 37.7 85.9 37.7 C 85.9 37.7 85.88 37.73 85.9 37.7 C 86.1 37.2 86.8 36.5 88 36.5 C 89.3 36.5 89.9 37.2 89.9 38.6 C 89.9 38.6 89.9 41 89.9 41 C 89.9 41.2 90 41.2 90.1 41.2 C 90.13 41.24 90.6 41.2 90.6 41.2 L 90.6 42.2 C 90.6 42.2 89.52 42.15 89.5 42.2 C 89 42.2 88.8 41.9 88.8 41.4 C 88.8 41.4 88.8 38.8 88.8 38.8 C 88.8 38 88.7 37.4 87.8 37.4 C 86.9 37.4 86.2 38 86 38.8 C 85.9 39 85.9 39.3 85.9 39.5 C 85.91 39.54 85.9 42.2 85.9 42.2 L 84.8 42.2 C 84.8 42.2 84.85 37.74 84.8 37.7 Z " stroke="none" fill="#323232"/>  </g></svg>