<?xml version="1.0" standalone="no"?><!DOCTYPE svg PUBLIC "-//W3C//DTD SVG 1.1//EN" "http://www.w3.org/Graphics/SVG/1.1/DTD/svg11.dtd"><svg xmlns="http://www.w3.org/2000/svg" version="1.1" width="113.4px" height="80.3px" viewBox="0 0 113.4 80.3">  <desc>Etinylestradiol („EE“)</desc>  <defs/>  <g id="Polygon70140">    <path d="M 42.7 41.6 C 42.7 41.6 43.8 41.6 43.8 41.6 C 42.9 43.2 42.4 44.9 42.4 46.8 C 42.4 48.7 42.9 50.6 43.9 52.4 C 43.9 52.4 42.8 52.4 42.8 52.4 C 41.8 50.8 41.3 48.8 41.3 46.8 C 41.3 44.9 41.7 43.1 42.7 41.6 Z M 47.4 49.8 L 48.6 49.8 L 47.8 52.3 L 46.9 52.3 L 47.4 49.8 Z M 46.8 49.8 L 46 52.3 L 45.1 52.3 L 45.6 49.8 L 46.8 49.8 Z M 50.3 43.1 L 49.5 43.1 L 49.5 41.9 C 49.5 41.9 54.88 41.95 54.9 41.9 C 55.5 41.9 55.7 42.2 55.7 42.8 C 55.71 42.78 55.7 43.9 55.7 43.9 L 54.5 43.9 C 54.5 43.9 54.52 43.35 54.5 43.4 C 54.5 43.2 54.4 43.1 54.2 43.1 C 54.24 43.06 51.6 43.1 51.6 43.1 L 51.6 45.9 L 54.8 45.9 L 54.8 47.1 L 51.6 47.1 C 51.6 47.1 51.62 49.72 51.6 49.7 C 51.6 49.9 51.7 50 51.9 50 C 51.9 50 54.6 50 54.6 50 C 54.8 50 54.9 49.9 54.9 49.7 C 54.88 49.72 54.9 49.1 54.9 49.1 L 56.1 49.1 C 56.1 49.1 56.07 50.29 56.1 50.3 C 56.1 50.9 55.8 51.1 55.2 51.1 C 55.2 51.1 51.2 51.1 51.2 51.1 C 50.6 51.1 50.3 50.9 50.3 50.3 C 50.33 50.29 50.3 43.1 50.3 43.1 Z M 57.7 43.1 L 56.9 43.1 L 56.9 41.9 C 56.9 41.9 62.26 41.95 62.3 41.9 C 62.8 41.9 63.1 42.2 63.1 42.8 C 63.09 42.78 63.1 43.9 63.1 43.9 L 61.9 43.9 C 61.9 43.9 61.91 43.35 61.9 43.4 C 61.9 43.2 61.8 43.1 61.6 43.1 C 61.62 43.06 59 43.1 59 43.1 L 59 45.9 L 62.2 45.9 L 62.2 47.1 L 59 47.1 C 59 47.1 59.01 49.72 59 49.7 C 59 49.9 59.1 50 59.3 50 C 59.3 50 62 50 62 50 C 62.2 50 62.3 49.9 62.3 49.7 C 62.26 49.72 62.3 49.1 62.3 49.1 L 63.5 49.1 C 63.5 49.1 63.45 50.29 63.5 50.3 C 63.5 50.9 63.2 51.1 62.6 51.1 C 62.6 51.1 58.5 51.1 58.5 51.1 C 58 51.1 57.7 50.9 57.7 50.3 C 57.71 50.29 57.7 43.1 57.7 43.1 Z M 67 41.8 L 67.9 41.8 L 67.4 44.3 L 66.2 44.3 L 67 41.8 Z M 65.2 41.8 L 66.1 41.8 L 65.5 44.3 L 64.4 44.3 L 65.2 41.8 Z M 70.6 46.8 C 70.6 44.9 70.1 43.2 69.2 41.6 C 69.2 41.6 70.3 41.6 70.3 41.6 C 71.3 43.1 71.7 44.9 71.7 46.8 C 71.7 48.8 71.2 50.8 70.2 52.4 C 70.2 52.4 69.1 52.4 69.1 52.4 C 70.1 50.6 70.6 48.7 70.6 46.8 Z " stroke="none" fill="#fff"/>  </g>  <g id="Polygon70139">    <path d="M 14.7 27.5 L 13.8 27.5 L 13.8 26.3 C 13.8 26.3 19.24 26.35 19.2 26.3 C 19.8 26.3 20.1 26.6 20.1 27.2 C 20.07 27.18 20.1 28.3 20.1 28.3 L 18.9 28.3 C 18.9 28.3 18.89 27.75 18.9 27.8 C 18.9 27.6 18.8 27.5 18.6 27.5 C 18.61 27.46 16 27.5 16 27.5 L 16 30.3 L 19.2 30.3 L 19.2 31.5 L 16 31.5 C 16 31.5 15.99 34.12 16 34.1 C 16 34.3 16.1 34.4 16.3 34.4 C 16.3 34.4 19 34.4 19 34.4 C 19.1 34.4 19.2 34.3 19.2 34.1 C 19.24 34.12 19.2 33.5 19.2 33.5 L 20.4 33.5 C 20.4 33.5 20.44 34.69 20.4 34.7 C 20.4 35.3 20.2 35.5 19.6 35.5 C 19.6 35.5 15.5 35.5 15.5 35.5 C 14.9 35.5 14.7 35.3 14.7 34.7 C 14.69 34.69 14.7 27.5 14.7 27.5 Z M 21.9 30 L 21 30 L 21 28.9 L 21.9 28.9 L 21.9 27.1 L 23.2 27.1 L 23.2 28.9 L 24.7 28.9 L 24.7 30 L 23.2 30 C 23.2 30 23.15 32.98 23.2 33 C 23.2 34.3 24.1 34.5 24.5 34.5 C 24.73 34.46 24.8 34.4 24.8 34.4 L 24.8 35.6 C 24.8 35.6 24.68 35.58 24.4 35.6 C 23.6 35.6 21.9 35.3 21.9 33.1 C 21.9 33.12 21.9 30 21.9 30 Z M 26.5 26.3 L 27.6 26.3 L 27.6 27.7 L 26.5 27.7 L 26.5 26.3 Z M 26.5 30.3 C 26.5 30.1 26.4 30 26.2 30 C 26.2 30.03 25.7 30 25.7 30 L 25.7 28.9 C 25.7 28.9 26.9 28.95 26.9 28.9 C 27.5 28.9 27.7 29.2 27.7 29.8 C 27.7 29.8 27.7 34.2 27.7 34.2 C 27.7 34.4 27.8 34.4 28 34.4 C 28.02 34.45 28.5 34.4 28.5 34.4 L 28.5 35.5 C 28.5 35.5 27.32 35.52 27.3 35.5 C 26.7 35.5 26.5 35.3 26.5 34.7 C 26.5 34.7 26.5 30.3 26.5 30.3 Z M 30 30.3 C 30 30.1 29.9 30 29.7 30 C 29.71 30.03 29.2 30 29.2 30 L 29.2 28.9 C 29.2 28.9 30.38 28.95 30.4 28.9 C 30.9 28.9 31.2 29.2 31.2 29.7 C 31.2 29.7 31.2 29.9 31.2 29.9 C 31.21 30.13 31.2 30.3 31.2 30.3 C 31.2 30.3 31.21 30.3 31.2 30.3 C 31.5 29.7 32.3 28.8 33.7 28.8 C 35.2 28.8 35.9 29.6 35.9 31.3 C 35.9 31.3 35.9 34.2 35.9 34.2 C 35.9 34.4 36.1 34.4 36.2 34.4 C 36.23 34.45 36.8 34.4 36.8 34.4 L 36.8 35.5 C 36.8 35.5 35.52 35.52 35.5 35.5 C 34.9 35.5 34.7 35.3 34.7 34.7 C 34.7 34.7 34.7 31.6 34.7 31.6 C 34.7 30.7 34.5 29.9 33.5 29.9 C 32.4 29.9 31.6 30.6 31.4 31.6 C 31.3 31.8 31.3 32.1 31.3 32.4 C 31.25 32.44 31.3 35.5 31.3 35.5 L 30 35.5 C 30 35.5 29.99 30.31 30 30.3 Z M 38.4 37.2 C 38.9 37.2 39.3 36.8 39.6 36.2 C 39.59 36.21 39.9 35.5 39.9 35.5 C 39.9 35.5 37.64 30.29 37.6 30.3 C 37.5 30.1 37.4 30 37.2 30 C 37.22 30.03 37.1 30 37.1 30 L 37.1 28.9 C 37.1 28.9 37.81 28.95 37.8 28.9 C 38.3 28.9 38.5 29.1 38.7 29.6 C 38.7 29.6 40.2 33.3 40.2 33.3 C 40.37 33.65 40.5 34.1 40.5 34.1 L 40.5 34.1 C 40.5 34.1 40.59 33.65 40.7 33.3 C 40.7 33.3 42.1 29.6 42.1 29.6 C 42.3 29.1 42.5 28.9 43 28.9 C 43.04 28.95 43.8 28.9 43.8 28.9 L 43.8 30 C 43.8 30 43.63 30.03 43.6 30 C 43.4 30 43.3 30.1 43.2 30.3 C 43.2 30.3 40.6 36.7 40.6 36.7 C 40.2 37.7 39.4 38.3 38.5 38.3 C 37.52 38.25 36.9 37.6 36.9 37.6 C 36.9 37.6 37.47 36.7 37.5 36.7 C 37.5 36.7 37.9 37.2 38.4 37.2 Z M 45.1 27.7 C 45.1 27.5 45 27.4 44.8 27.4 C 44.78 27.43 44.2 27.4 44.2 27.4 L 44.2 26.3 C 44.2 26.3 45.49 26.35 45.5 26.3 C 46.1 26.3 46.3 26.6 46.3 27.2 C 46.3 27.2 46.3 34.2 46.3 34.2 C 46.3 34.4 46.4 34.4 46.6 34.4 C 46.61 34.45 47.1 34.4 47.1 34.4 L 47.1 35.5 C 47.1 35.5 45.89 35.52 45.9 35.5 C 45.3 35.5 45.1 35.3 45.1 34.7 C 45.1 34.7 45.1 27.7 45.1 27.7 Z M 51.2 28.8 C 53.1 28.8 54.1 30.2 54.1 31.9 C 54.07 32.04 54 32.4 54 32.4 C 54 32.4 49.23 32.39 49.2 32.4 C 49.3 33.8 50.3 34.6 51.5 34.6 C 52.63 34.59 53.4 33.8 53.4 33.8 L 54 34.7 C 54 34.7 52.99 35.68 51.4 35.7 C 49.3 35.7 47.9 34.2 47.9 32.2 C 47.9 30.1 49.4 28.8 51.2 28.8 Z M 52.8 31.5 C 52.7 30.4 52 29.8 51.2 29.8 C 50.3 29.8 49.5 30.4 49.3 31.5 C 49.3 31.5 52.8 31.5 52.8 31.5 Z M 55.6 33.7 C 55.6 33.7 56.42 34.65 57.6 34.7 C 58.2 34.7 58.8 34.4 58.8 33.8 C 58.8 32.6 55.2 32.8 55.2 30.6 C 55.2 29.4 56.3 28.8 57.6 28.8 C 58.4 28.8 59.8 29.1 59.8 30.1 C 59.79 30.06 59.8 30.7 59.8 30.7 L 58.7 30.7 C 58.7 30.7 58.66 30.36 58.7 30.4 C 58.7 30 58.1 29.8 57.7 29.8 C 56.9 29.8 56.4 30.1 56.4 30.6 C 56.4 31.8 60 31.6 60 33.8 C 60 34.9 59 35.7 57.6 35.7 C 55.86 35.68 55 34.5 55 34.5 L 55.6 33.7 Z M 61.7 30 L 60.8 30 L 60.8 28.9 L 61.7 28.9 L 61.7 27.1 L 63 27.1 L 63 28.9 L 64.5 28.9 L 64.5 30 L 63 30 C 63 30 62.96 32.98 63 33 C 63 34.3 63.9 34.5 64.4 34.5 C 64.53 34.46 64.7 34.4 64.7 34.4 L 64.7 35.6 C 64.7 35.6 64.48 35.58 64.2 35.6 C 63.4 35.6 61.7 35.3 61.7 33.1 C 61.7 33.12 61.7 30 61.7 30 Z M 66.2 30.3 C 66.2 30.1 66.1 30 65.9 30 C 65.94 30.03 65.4 30 65.4 30 L 65.4 28.9 C 65.4 28.9 66.6 28.95 66.6 28.9 C 67.2 28.9 67.4 29.2 67.4 29.7 C 67.4 29.7 67.4 30.1 67.4 30.1 C 67.44 30.39 67.4 30.6 67.4 30.6 C 67.4 30.6 67.44 30.58 67.4 30.6 C 67.8 29.6 68.5 28.9 69.5 28.9 C 69.69 28.87 69.9 28.9 69.9 28.9 L 69.9 30.1 C 69.9 30.1 69.69 30.1 69.5 30.1 C 68.7 30.1 67.9 30.7 67.6 31.7 C 67.5 32 67.5 32.4 67.5 32.8 C 67.48 32.83 67.5 35.5 67.5 35.5 L 66.2 35.5 C 66.2 35.5 66.22 30.31 66.2 30.3 Z M 74.2 31.4 C 74.19 31.43 74.5 31.4 74.5 31.4 C 74.5 31.4 74.48 31.37 74.5 31.4 C 74.5 30.2 74.1 29.8 73 29.8 C 72.7 29.8 71.9 29.9 71.9 30.3 C 71.94 30.3 71.9 30.7 71.9 30.7 L 70.8 30.7 C 70.8 30.7 70.76 30.03 70.8 30 C 70.8 28.9 72.4 28.8 73 28.8 C 75.2 28.8 75.7 29.9 75.7 31.4 C 75.7 31.4 75.7 34.2 75.7 34.2 C 75.7 34.4 75.8 34.4 76 34.4 C 76.02 34.45 76.6 34.4 76.6 34.4 L 76.6 35.5 C 76.6 35.5 75.38 35.52 75.4 35.5 C 74.8 35.5 74.6 35.2 74.6 34.8 C 74.6 34.6 74.6 34.4 74.6 34.4 C 74.58 34.38 74.6 34.4 74.6 34.4 C 74.6 34.4 74.04 35.68 72.5 35.7 C 71.3 35.7 70.2 35 70.2 33.7 C 70.2 31.6 73.1 31.4 74.2 31.4 Z M 72.7 34.7 C 73.8 34.7 74.5 33.5 74.5 32.6 C 74.49 32.57 74.5 32.4 74.5 32.4 C 74.5 32.4 74.17 32.35 74.2 32.4 C 73.2 32.4 71.5 32.4 71.5 33.6 C 71.5 34.1 71.9 34.7 72.7 34.7 Z M 80.3 28.8 C 81.8 28.79 82.3 29.8 82.3 29.8 L 82.3 29.8 C 82.3 29.8 82.31 29.61 82.3 29.4 C 82.3 29.4 82.3 27.7 82.3 27.7 C 82.3 27.5 82.2 27.4 82 27.4 C 82.02 27.43 81.5 27.4 81.5 27.4 L 81.5 26.3 C 81.5 26.3 82.73 26.35 82.7 26.3 C 83.3 26.3 83.6 26.6 83.6 27.2 C 83.6 27.2 83.6 34.2 83.6 34.2 C 83.6 34.4 83.7 34.4 83.9 34.4 C 83.85 34.45 84.4 34.4 84.4 34.4 L 84.4 35.5 C 84.4 35.5 83.18 35.52 83.2 35.5 C 82.6 35.5 82.4 35.3 82.4 34.8 C 82.4 34.6 82.4 34.5 82.4 34.5 C 82.38 34.49 82.4 34.5 82.4 34.5 C 82.4 34.5 81.81 35.68 80.2 35.7 C 78.4 35.7 77.3 34.3 77.3 32.2 C 77.3 30.1 78.5 28.8 80.3 28.8 Z M 82.3 32.2 C 82.3 31.1 81.7 29.9 80.5 29.9 C 79.4 29.9 78.6 30.7 78.6 32.2 C 78.6 33.7 79.4 34.6 80.4 34.6 C 81.4 34.6 82.3 33.9 82.3 32.2 Z M 85.9 26.3 L 87 26.3 L 87 27.7 L 85.9 27.7 L 85.9 26.3 Z M 85.9 30.3 C 85.9 30.1 85.8 30 85.6 30 C 85.57 30.03 85 30 85 30 L 85 28.9 C 85 28.9 86.27 28.95 86.3 28.9 C 86.9 28.9 87.1 29.2 87.1 29.8 C 87.1 29.8 87.1 34.2 87.1 34.2 C 87.1 34.4 87.2 34.4 87.4 34.4 C 87.39 34.45 87.9 34.4 87.9 34.4 L 87.9 35.5 C 87.9 35.5 86.69 35.52 86.7 35.5 C 86.1 35.5 85.9 35.3 85.9 34.7 C 85.9 34.7 85.9 30.3 85.9 30.3 Z M 92.3 28.8 C 94.2 28.8 95.8 30.2 95.8 32.2 C 95.8 34.2 94.2 35.7 92.3 35.7 C 90.3 35.7 88.7 34.2 88.7 32.2 C 88.7 30.2 90.3 28.8 92.3 28.8 Z M 92.3 34.6 C 93.5 34.6 94.5 33.6 94.5 32.2 C 94.5 30.9 93.5 29.9 92.3 29.9 C 91 29.9 90 30.9 90 32.2 C 90 33.6 91 34.6 92.3 34.6 Z M 97.2 27.7 C 97.2 27.5 97.1 27.4 97 27.4 C 96.96 27.43 96.4 27.4 96.4 27.4 L 96.4 26.3 C 96.4 26.3 97.67 26.35 97.7 26.3 C 98.3 26.3 98.5 26.6 98.5 27.2 C 98.5 27.2 98.5 34.2 98.5 34.2 C 98.5 34.4 98.6 34.4 98.8 34.4 C 98.79 34.45 99.3 34.4 99.3 34.4 L 99.3 35.5 C 99.3 35.5 98.07 35.52 98.1 35.5 C 97.5 35.5 97.2 35.3 97.2 34.7 C 97.2 34.7 97.2 27.7 97.2 27.7 Z " stroke="none" fill="#fff"/>  </g></svg>