<?xml version="1.0" standalone="no"?><!DOCTYPE svg PUBLIC "-//W3C//DTD SVG 1.1//EN" "http://www.w3.org/Graphics/SVG/1.1/DTD/svg11.dtd"><svg xmlns="http://www.w3.org/2000/svg" version="1.1" width="154.2px" height="29px" viewBox="0 0 154.2 29">  <desc>Opuchy (prsia, brucho)</desc>  <defs/>  <g id="Polygon72094">    <path d="M 17 8.6 C 19.4 8.6 21.3 10.5 21.3 13 C 21.3 15.5 19.4 17.4 17 17.4 C 14.5 17.4 12.6 15.5 12.6 13 C 12.6 10.5 14.5 8.6 17 8.6 Z M 17 16.3 C 18.7 16.3 20.1 14.8 20.1 13 C 20.1 11.1 18.7 9.8 17 9.8 C 15.2 9.8 13.9 11.1 13.9 13 C 13.9 14.8 15.2 16.3 17 16.3 Z M 22.8 12.4 C 22.8 12.3 22.7 12.2 22.6 12.2 C 22.57 12.18 22.1 12.2 22.1 12.2 L 22.1 11.2 C 22.1 11.2 23.17 11.18 23.2 11.2 C 23.7 11.2 23.9 11.4 23.9 11.8 C 23.9 12 23.9 12.1 23.9 12.1 C 23.9 12.12 23.9 12.1 23.9 12.1 C 23.9 12.1 24.43 11.04 25.9 11 C 27.6 11 28.6 12.3 28.6 14.2 C 28.6 16.2 27.4 17.4 25.9 17.4 C 24.51 17.4 24 16.4 24 16.4 L 24 16.4 C 24 16.4 24 16.64 24 17 C 24 16.96 24 19.7 24 19.7 L 22.8 19.7 C 22.8 19.7 22.83 12.44 22.8 12.4 Z M 25.7 16.4 C 26.6 16.4 27.4 15.6 27.4 14.2 C 27.4 12.9 26.7 12.1 25.7 12.1 C 24.8 12.1 24 12.7 24 14.2 C 24 15.3 24.5 16.4 25.7 16.4 Z M 30.1 12.4 C 30.1 12.3 30 12.2 29.8 12.2 C 29.79 12.18 29.3 12.2 29.3 12.2 L 29.3 11.2 C 29.3 11.2 30.44 11.18 30.4 11.2 C 31 11.2 31.2 11.4 31.2 11.9 C 31.2 11.9 31.2 14.8 31.2 14.8 C 31.2 15.6 31.4 16.3 32.3 16.3 C 33.6 16.3 34.3 15.2 34.3 14 C 34.33 14.03 34.3 11.2 34.3 11.2 L 35.5 11.2 C 35.5 11.2 35.49 16 35.5 16 C 35.5 16.2 35.6 16.3 35.8 16.3 C 35.76 16.26 36.2 16.3 36.2 16.3 L 36.2 17.3 C 36.2 17.3 35.13 17.26 35.1 17.3 C 34.6 17.3 34.4 17 34.4 16.6 C 34.4 16.6 34.4 16.4 34.4 16.4 C 34.4 16.2 34.4 16 34.4 16 C 34.4 16 34.4 16 34.4 16 C 34.1 16.6 33.3 17.4 32.1 17.4 C 30.8 17.4 30.1 16.7 30.1 15.1 C 30.1 15.1 30.1 12.4 30.1 12.4 Z M 40.2 11 C 40.9 11 42.4 11.3 42.4 12.4 C 42.39 12.37 42.4 13 42.4 13 L 41.3 13 C 41.3 13 41.34 12.66 41.3 12.7 C 41.3 12.2 40.7 12 40.2 12 C 39 12 38.1 12.9 38.1 14.2 C 38.1 15.6 39.1 16.4 40.3 16.4 C 41.41 16.37 42.2 15.5 42.2 15.5 L 42.7 16.4 C 42.7 16.4 41.79 17.4 40.2 17.4 C 38.3 17.4 36.9 16 36.9 14.2 C 36.9 12.4 38.3 11 40.2 11 Z M 43.8 10 C 43.8 9.9 43.7 9.8 43.6 9.8 C 43.58 9.78 43.1 9.8 43.1 9.8 L 43.1 8.8 C 43.1 8.8 44.24 8.78 44.2 8.8 C 44.8 8.8 45 9 45 9.5 C 45 9.5 45 11.9 45 11.9 C 45.01 12.18 45 12.4 45 12.4 C 45 12.4 45.01 12.4 45 12.4 C 45.3 11.8 46.1 11 47.3 11 C 48.7 11 49.3 11.8 49.3 13.4 C 49.3 13.4 49.3 16 49.3 16 C 49.3 16.2 49.4 16.3 49.6 16.3 C 49.6 16.26 50.1 16.3 50.1 16.3 L 50.1 17.3 C 50.1 17.3 48.96 17.26 49 17.3 C 48.4 17.3 48.2 17 48.2 16.5 C 48.2 16.5 48.2 13.6 48.2 13.6 C 48.2 12.8 48 12.1 47 12.1 C 46.1 12.1 45.4 12.7 45.1 13.6 C 45 13.8 45 14.1 45 14.4 C 45.01 14.41 45 17.3 45 17.3 L 43.8 17.3 C 43.8 17.3 43.85 10.04 43.8 10 Z M 51.6 18.8 C 52.1 18.8 52.5 18.4 52.7 17.9 C 52.7 17.89 53 17.2 53 17.2 C 53 17.2 50.9 12.42 50.9 12.4 C 50.8 12.2 50.7 12.2 50.5 12.2 C 50.52 12.18 50.4 12.2 50.4 12.2 L 50.4 11.2 C 50.4 11.2 51.06 11.18 51.1 11.2 C 51.5 11.2 51.7 11.3 51.9 11.8 C 51.9 11.8 53.3 15.2 53.3 15.2 C 53.42 15.53 53.5 15.9 53.5 15.9 L 53.5 15.9 C 53.5 15.9 53.62 15.53 53.7 15.2 C 53.7 15.2 55 11.8 55 11.8 C 55.2 11.3 55.4 11.2 55.9 11.2 C 55.89 11.18 56.6 11.2 56.6 11.2 L 56.6 12.2 C 56.6 12.2 56.43 12.18 56.4 12.2 C 56.2 12.2 56.1 12.2 56 12.4 C 56 12.4 53.6 18.3 53.6 18.3 C 53.3 19.3 52.5 19.8 51.7 19.8 C 50.79 19.78 50.3 19.2 50.3 19.2 C 50.3 19.2 50.75 18.34 50.7 18.3 C 50.7 18.3 51.1 18.8 51.6 18.8 Z M 62.3 8.4 C 62.3 8.4 63.4 8.4 63.4 8.4 C 62.5 9.9 62 11.5 62 13.2 C 62 15 62.5 16.8 63.4 18.4 C 63.4 18.4 62.4 18.4 62.4 18.4 C 61.5 17 61 15.2 61 13.3 C 61 11.5 61.4 9.8 62.3 8.4 Z M 65 12.4 C 65 12.3 64.9 12.2 64.7 12.2 C 64.7 12.18 64.2 12.2 64.2 12.2 L 64.2 11.2 C 64.2 11.2 65.3 11.18 65.3 11.2 C 65.8 11.2 66 11.4 66 11.8 C 66 12 66 12.1 66 12.1 C 66.03 12.12 66.1 12.1 66.1 12.1 C 66.1 12.1 66.56 11.04 68.1 11 C 69.7 11 70.7 12.3 70.7 14.2 C 70.7 16.2 69.6 17.4 68 17.4 C 66.64 17.4 66.1 16.4 66.1 16.4 L 66.1 16.4 C 66.1 16.4 66.13 16.64 66.1 17 C 66.13 16.96 66.1 19.7 66.1 19.7 L 65 19.7 C 65 19.7 64.97 12.44 65 12.4 Z M 67.8 16.4 C 68.8 16.4 69.6 15.6 69.6 14.2 C 69.6 12.9 68.9 12.1 67.8 12.1 C 66.9 12.1 66.1 12.7 66.1 14.2 C 66.1 15.3 66.7 16.4 67.8 16.4 Z M 72.2 12.4 C 72.2 12.3 72.1 12.2 71.9 12.2 C 71.95 12.18 71.5 12.2 71.5 12.2 L 71.5 11.2 C 71.5 11.2 72.56 11.18 72.6 11.2 C 73.1 11.2 73.3 11.4 73.3 11.9 C 73.3 11.9 73.3 12.3 73.3 12.3 C 73.34 12.52 73.3 12.7 73.3 12.7 C 73.3 12.7 73.34 12.7 73.3 12.7 C 73.6 11.8 74.3 11.1 75.3 11.1 C 75.42 11.11 75.6 11.1 75.6 11.1 L 75.6 12.3 C 75.6 12.3 75.42 12.25 75.2 12.3 C 74.5 12.3 73.8 12.8 73.5 13.7 C 73.4 14 73.4 14.4 73.4 14.8 C 73.38 14.77 73.4 17.3 73.4 17.3 L 72.2 17.3 C 72.2 17.3 72.21 12.44 72.2 12.4 Z M 76.8 15.6 C 76.8 15.6 77.48 16.45 78.6 16.5 C 79.2 16.5 79.7 16.2 79.7 15.7 C 79.7 14.6 76.3 14.7 76.3 12.7 C 76.3 11.6 77.4 11 78.6 11 C 79.3 11 80.6 11.3 80.6 12.2 C 80.59 12.22 80.6 12.8 80.6 12.8 L 79.5 12.8 C 79.5 12.8 79.54 12.49 79.5 12.5 C 79.5 12.1 79 12 78.6 12 C 77.9 12 77.5 12.2 77.5 12.7 C 77.5 13.8 80.8 13.6 80.8 15.6 C 80.8 16.7 79.9 17.4 78.6 17.4 C 76.96 17.4 76.2 16.3 76.2 16.3 L 76.8 15.6 Z M 82.4 8.8 L 83.4 8.8 L 83.4 10 L 82.4 10 L 82.4 8.8 Z M 82.4 12.4 C 82.4 12.3 82.3 12.2 82.1 12.2 C 82.1 12.18 81.6 12.2 81.6 12.2 L 81.6 11.2 C 81.6 11.2 82.75 11.18 82.7 11.2 C 83.3 11.2 83.5 11.4 83.5 12 C 83.5 12 83.5 16 83.5 16 C 83.5 16.2 83.6 16.3 83.8 16.3 C 83.78 16.26 84.3 16.3 84.3 16.3 L 84.3 17.3 C 84.3 17.3 83.13 17.26 83.1 17.3 C 82.6 17.3 82.4 17 82.4 16.5 C 82.4 16.5 82.4 12.4 82.4 12.4 Z M 88.7 13.5 C 88.69 13.48 89 13.5 89 13.5 C 89 13.5 88.95 13.42 89 13.4 C 89 12.3 88.6 12 87.6 12 C 87.3 12 86.6 12 86.6 12.4 C 86.61 12.43 86.6 12.8 86.6 12.8 L 85.5 12.8 C 85.5 12.8 85.52 12.18 85.5 12.2 C 85.5 11.2 87 11 87.6 11 C 89.6 11 90.1 12.1 90.1 13.4 C 90.1 13.4 90.1 16 90.1 16 C 90.1 16.2 90.2 16.3 90.4 16.3 C 90.38 16.26 90.9 16.3 90.9 16.3 L 90.9 17.3 C 90.9 17.3 89.78 17.26 89.8 17.3 C 89.2 17.3 89 17 89 16.6 C 89 16.4 89 16.2 89 16.2 C 89.05 16.2 89 16.2 89 16.2 C 89 16.2 88.54 17.4 87.1 17.4 C 86 17.4 85 16.8 85 15.6 C 85 13.6 87.7 13.5 88.7 13.5 Z M 87.3 16.5 C 88.3 16.5 89 15.4 89 14.5 C 88.96 14.53 89 14.3 89 14.3 C 89 14.3 88.66 14.33 88.7 14.3 C 87.8 14.3 86.2 14.4 86.2 15.5 C 86.2 16 86.6 16.5 87.3 16.5 Z M 93.3 16 L 92.3 18.5 L 91.4 18.5 L 92.1 16 L 93.3 16 Z M 98.2 10 C 98.2 9.9 98.1 9.8 97.9 9.8 C 97.93 9.78 97.4 9.8 97.4 9.8 L 97.4 8.8 C 97.4 8.8 98.59 8.78 98.6 8.8 C 99.1 8.8 99.4 9 99.4 9.6 C 99.4 9.6 99.4 11.5 99.4 11.5 C 99.36 11.82 99.3 12 99.3 12 L 99.4 12 C 99.4 12 99.88 11.04 101.3 11 C 102.9 11 104 12.3 104 14.2 C 104 16.2 102.8 17.4 101.2 17.4 C 99.86 17.4 99.3 16.4 99.3 16.4 L 99.3 16.4 C 99.3 16.4 99.31 16.57 99.3 16.8 C 99.31 16.84 99.3 17.3 99.3 17.3 L 98.2 17.3 C 98.2 17.3 98.19 10.04 98.2 10 Z M 101 16.4 C 102 16.4 102.8 15.6 102.8 14.2 C 102.8 12.9 102.1 12.1 101.1 12.1 C 100.2 12.1 99.3 12.7 99.3 14.2 C 99.3 15.3 99.9 16.4 101 16.4 Z M 105.4 12.4 C 105.4 12.3 105.3 12.2 105.2 12.2 C 105.18 12.18 104.7 12.2 104.7 12.2 L 104.7 11.2 C 104.7 11.2 105.79 11.18 105.8 11.2 C 106.3 11.2 106.6 11.4 106.6 11.9 C 106.6 11.9 106.6 12.3 106.6 12.3 C 106.57 12.52 106.5 12.7 106.5 12.7 C 106.5 12.7 106.57 12.7 106.6 12.7 C 106.9 11.8 107.6 11.1 108.5 11.1 C 108.64 11.11 108.8 11.1 108.8 11.1 L 108.8 12.3 C 108.8 12.3 108.64 12.25 108.5 12.3 C 107.7 12.3 107 12.8 106.7 13.7 C 106.6 14 106.6 14.4 106.6 14.8 C 106.6 14.77 106.6 17.3 106.6 17.3 L 105.4 17.3 C 105.4 17.3 105.44 12.44 105.4 12.4 Z M 110.1 12.4 C 110.1 12.3 110 12.2 109.9 12.2 C 109.88 12.18 109.4 12.2 109.4 12.2 L 109.4 11.2 C 109.4 11.2 110.53 11.18 110.5 11.2 C 111.1 11.2 111.3 11.4 111.3 11.9 C 111.3 11.9 111.3 14.8 111.3 14.8 C 111.3 15.6 111.5 16.3 112.4 16.3 C 113.7 16.3 114.4 15.2 114.4 14 C 114.42 14.03 114.4 11.2 114.4 11.2 L 115.6 11.2 C 115.6 11.2 115.58 16 115.6 16 C 115.6 16.2 115.7 16.3 115.8 16.3 C 115.84 16.26 116.3 16.3 116.3 16.3 L 116.3 17.3 C 116.3 17.3 115.22 17.26 115.2 17.3 C 114.7 17.3 114.5 17 114.5 16.6 C 114.5 16.6 114.5 16.4 114.5 16.4 C 114.5 16.2 114.5 16 114.5 16 C 114.5 16 114.4 16 114.4 16 C 114.2 16.6 113.4 17.4 112.2 17.4 C 110.8 17.4 110.1 16.7 110.1 15.1 C 110.1 15.1 110.1 12.4 110.1 12.4 Z M 120.3 11 C 121 11 122.5 11.3 122.5 12.4 C 122.48 12.37 122.5 13 122.5 13 L 121.4 13 C 121.4 13 121.42 12.66 121.4 12.7 C 121.4 12.2 120.7 12 120.3 12 C 119.1 12 118.2 12.9 118.2 14.2 C 118.2 15.6 119.2 16.4 120.4 16.4 C 121.5 16.37 122.2 15.5 122.2 15.5 L 122.7 16.4 C 122.7 16.4 121.88 17.4 120.3 17.4 C 118.4 17.4 117 16 117 14.2 C 117 12.4 118.3 11 120.3 11 Z M 123.9 10 C 123.9 9.9 123.8 9.8 123.7 9.8 C 123.67 9.78 123.2 9.8 123.2 9.8 L 123.2 8.8 C 123.2 8.8 124.33 8.78 124.3 8.8 C 124.9 8.8 125.1 9 125.1 9.5 C 125.1 9.5 125.1 11.9 125.1 11.9 C 125.09 12.18 125.1 12.4 125.1 12.4 C 125.1 12.4 125.09 12.4 125.1 12.4 C 125.4 11.8 126.1 11 127.4 11 C 128.8 11 129.4 11.8 129.4 13.4 C 129.4 13.4 129.4 16 129.4 16 C 129.4 16.2 129.5 16.3 129.7 16.3 C 129.69 16.26 130.2 16.3 130.2 16.3 L 130.2 17.3 C 130.2 17.3 129.04 17.26 129 17.3 C 128.5 17.3 128.3 17 128.3 16.5 C 128.3 16.5 128.3 13.6 128.3 13.6 C 128.3 12.8 128.1 12.1 127.1 12.1 C 126.2 12.1 125.5 12.7 125.2 13.6 C 125.1 13.8 125.1 14.1 125.1 14.4 C 125.09 14.41 125.1 17.3 125.1 17.3 L 123.9 17.3 C 123.9 17.3 123.93 10.04 123.9 10 Z M 134.1 11 C 135.9 11 137.4 12.4 137.4 14.2 C 137.4 16.1 135.9 17.4 134.1 17.4 C 132.3 17.4 130.9 16.1 130.9 14.2 C 130.9 12.4 132.3 11 134.1 11 Z M 134.1 16.4 C 135.3 16.4 136.2 15.5 136.2 14.2 C 136.2 12.9 135.3 12 134.1 12 C 133 12 132 12.9 132 14.2 C 132 15.5 133 16.4 134.1 16.4 Z M 139.7 13.2 C 139.7 11.5 139.3 9.9 138.4 8.4 C 138.4 8.4 139.4 8.4 139.4 8.4 C 140.3 9.8 140.8 11.5 140.8 13.3 C 140.8 15.2 140.3 17 139.4 18.4 C 139.4 18.4 138.4 18.4 138.4 18.4 C 139.3 16.8 139.7 15 139.7 13.2 Z " stroke="none" fill="#000"/>  </g></svg>