<?xml version="1.0" standalone="no"?><!DOCTYPE svg PUBLIC "-//W3C//DTD SVG 1.1//EN" "http://www.w3.org/Graphics/SVG/1.1/DTD/svg11.dtd"><svg xmlns="http://www.w3.org/2000/svg" version="1.1" width="93px" height="16.8px" viewBox="0 -2 93 16.8" style="top:-2px">  <desc>Factor XIIIa</desc>  <defs/>  <g id="Polygon77368">    <path d="M 19.6 0.5 L 23.6 0.5 L 23.6 1.2 L 20.3 1.2 L 20.3 4.1 L 23.2 4.1 L 23.2 4.8 L 20.3 4.8 L 20.3 8.2 L 19.6 8.2 L 19.6 0.5 Z M 27.8 4.8 C 27.77 4.83 28.1 4.8 28.1 4.8 C 28.1 4.8 28.08 4.69 28.1 4.7 C 28.1 3.6 27.5 3.3 26.7 3.3 C 25.79 3.26 25.1 3.8 25.1 3.8 L 24.8 3.2 C 24.8 3.2 25.52 2.59 26.8 2.6 C 28.1 2.6 28.8 3.3 28.8 4.7 C 28.83 4.71 28.8 8.2 28.8 8.2 L 28.1 8.2 C 28.1 8.2 28.12 7.64 28.1 7.6 C 28.1 7.4 28.1 7.2 28.1 7.2 C 28.14 7.18 28.1 7.2 28.1 7.2 C 28.1 7.2 27.65 8.38 26.3 8.4 C 25.3 8.4 24.4 7.8 24.4 6.7 C 24.4 4.9 26.8 4.8 27.8 4.8 Z M 26.4 7.7 C 27.4 7.7 28.1 6.6 28.1 5.7 C 28.08 5.69 28.1 5.4 28.1 5.4 C 28.1 5.4 27.76 5.44 27.8 5.4 C 26.9 5.4 25.2 5.5 25.2 6.7 C 25.2 7.2 25.6 7.7 26.4 7.7 Z M 33.1 2.6 C 34.43 2.59 35.1 3.4 35.1 3.4 L 34.7 3.9 C 34.7 3.9 34.1 3.27 33.1 3.3 C 31.9 3.3 30.9 4.2 30.9 5.5 C 30.9 6.8 31.9 7.7 33.1 7.7 C 34.24 7.71 34.9 6.9 34.9 6.9 L 35.2 7.5 C 35.2 7.5 34.48 8.38 33.1 8.4 C 31.4 8.4 30.2 7.2 30.2 5.5 C 30.2 3.8 31.4 2.6 33.1 2.6 Z M 36.8 3.4 L 36.1 3.4 L 36.1 2.8 L 36.8 2.8 L 36.8 1.2 L 37.6 1.2 L 37.6 2.8 L 38.9 2.8 L 38.9 3.4 L 37.6 3.4 C 37.6 3.4 37.55 6.16 37.6 6.2 C 37.6 7.5 38.4 7.6 38.8 7.6 C 38.95 7.62 39 7.6 39 7.6 L 39 8.3 C 39 8.3 38.93 8.29 38.7 8.3 C 38.1 8.3 36.8 8.1 36.8 6.2 C 36.81 6.24 36.8 3.4 36.8 3.4 Z M 42.8 2.6 C 44.4 2.6 45.7 3.8 45.7 5.5 C 45.7 7.1 44.4 8.4 42.8 8.4 C 41.2 8.4 39.9 7.1 39.9 5.5 C 39.9 3.8 41.2 2.6 42.8 2.6 Z M 42.8 7.7 C 44 7.7 45 6.7 45 5.5 C 45 4.2 44 3.3 42.8 3.3 C 41.6 3.3 40.6 4.2 40.6 5.5 C 40.6 6.7 41.6 7.7 42.8 7.7 Z M 47.1 2.7 L 47.9 2.7 C 47.9 2.7 47.86 3.7 47.9 3.7 C 47.9 3.9 47.8 4.1 47.8 4.1 C 47.8 4.1 47.9 4.1 47.9 4.1 C 48.1 3.3 48.7 2.7 49.6 2.7 C 49.8 2.7 49.9 2.7 49.9 2.7 C 49.91 2.7 49.9 3.4 49.9 3.4 C 49.9 3.4 49.77 3.41 49.6 3.4 C 48.8 3.4 48.3 4 48 4.8 C 47.9 5.2 47.9 5.6 47.9 5.9 C 47.87 5.92 47.9 8.2 47.9 8.2 L 47.1 8.2 L 47.1 2.7 Z M 55.8 4.2 L 53.6 0.5 L 54.5 0.5 C 54.5 0.5 55.85 2.81 55.8 2.8 C 56.08 3.2 56.4 3.7 56.4 3.7 L 56.4 3.7 C 56.4 3.7 56.59 3.2 56.8 2.8 C 56.84 2.81 58.2 0.5 58.2 0.5 L 59.1 0.5 L 56.8 4.2 L 59.3 8.2 L 58.4 8.2 C 58.4 8.2 56.82 5.58 56.8 5.6 C 56.58 5.18 56.3 4.7 56.3 4.7 L 56.3 4.7 C 56.3 4.7 56.09 5.18 55.8 5.6 C 55.85 5.59 54.3 8.2 54.3 8.2 L 53.4 8.2 L 55.8 4.2 Z M 60.7 0.5 L 61.5 0.5 L 61.5 8.2 L 60.7 8.2 L 60.7 0.5 Z M 63.7 0.5 L 64.5 0.5 L 64.5 8.2 L 63.7 8.2 L 63.7 0.5 Z M 66.7 0.5 L 67.5 0.5 L 67.5 8.2 L 66.7 8.2 L 66.7 0.5 Z M 72.5 4.8 C 72.46 4.83 72.8 4.8 72.8 4.8 C 72.8 4.8 72.76 4.69 72.8 4.7 C 72.8 3.6 72.2 3.3 71.4 3.3 C 70.48 3.26 69.8 3.8 69.8 3.8 L 69.5 3.2 C 69.5 3.2 70.2 2.59 71.4 2.6 C 72.8 2.6 73.5 3.3 73.5 4.7 C 73.51 4.71 73.5 8.2 73.5 8.2 L 72.8 8.2 C 72.8 8.2 72.8 7.64 72.8 7.6 C 72.8 7.4 72.8 7.2 72.8 7.2 C 72.82 7.18 72.8 7.2 72.8 7.2 C 72.8 7.2 72.34 8.38 70.9 8.4 C 70 8.4 69.1 7.8 69.1 6.7 C 69.1 4.9 71.5 4.8 72.5 4.8 Z M 71.1 7.7 C 72.1 7.7 72.8 6.6 72.8 5.7 C 72.76 5.69 72.8 5.4 72.8 5.4 C 72.8 5.4 72.45 5.44 72.4 5.4 C 71.6 5.4 69.8 5.5 69.8 6.7 C 69.8 7.2 70.2 7.7 71.1 7.7 Z " stroke="none" fill="#000"/>  </g></svg>