<?xml version="1.0" standalone="no"?><!DOCTYPE svg PUBLIC "-//W3C//DTD SVG 1.1//EN" "http://www.w3.org/Graphics/SVG/1.1/DTD/svg11.dtd"><svg xmlns="http://www.w3.org/2000/svg" version="1.1" width="30px" height="16.8px" viewBox="0 -2 30 16.8" style="top:-2px">  <desc>F VIII</desc>  <defs/>  <g id="Polygon77760">    <path d="M 3.9 0.5 L 7.9 0.5 L 7.9 1.2 L 4.6 1.2 L 4.6 4.1 L 7.5 4.1 L 7.5 4.8 L 4.6 4.8 L 4.6 8.2 L 3.9 8.2 L 3.9 0.5 Z M 11.5 0.5 L 12.3 0.5 C 12.3 0.5 14.46 6.39 14.5 6.4 C 14.6 6.79 14.8 7.4 14.8 7.4 L 14.8 7.4 C 14.8 7.4 14.93 6.79 15.1 6.4 C 15.08 6.39 17.2 0.5 17.2 0.5 L 18 0.5 L 15.2 8.2 L 14.4 8.2 L 11.5 0.5 Z M 19.3 0.5 L 20 0.5 L 20 8.2 L 19.3 8.2 L 19.3 0.5 Z M 22.3 0.5 L 23.1 0.5 L 23.1 8.2 L 22.3 8.2 L 22.3 0.5 Z M 25.3 0.5 L 26.1 0.5 L 26.1 8.2 L 25.3 8.2 L 25.3 0.5 Z " stroke="none" fill="#000"/>  </g></svg>