<?xml version="1.0" standalone="no"?><!DOCTYPE svg PUBLIC "-//W3C//DTD SVG 1.1//EN" "http://www.w3.org/Graphics/SVG/1.1/DTD/svg11.dtd"><svg xmlns="http://www.w3.org/2000/svg" version="1.1" width="68px" height="43.5px" viewBox="0 -5 68 43.5" style="top:-5px">  <desc>SPC</desc>  <defs/>  <g id="Polygon65561">    <path d="M 2.4 18.3 C 2.4 18.3 4.53 20.91 7.9 20.9 C 10.2 20.9 12 19.4 12 17.2 C 12 11.9 1.6 13 1.6 6.5 C 1.6 3.5 4.2 1.1 8.1 1.1 C 10.1 1.1 13.8 1.9 13.8 4.7 C 13.77 4.68 13.8 6.2 13.8 6.2 L 11.8 6.2 C 11.8 6.2 11.79 5.19 11.8 5.2 C 11.8 3.9 10.1 3 8.1 3 C 5.4 3 3.8 4.6 3.8 6.4 C 3.8 11.3 14.2 10.1 14.2 17 C 14.2 20.2 11.8 22.9 7.8 22.9 C 3.48 22.86 1.1 19.9 1.1 19.9 L 2.4 18.3 Z M 18.7 3.3 L 16.8 3.3 L 16.8 1.4 C 16.8 1.4 25.71 1.41 25.7 1.4 C 29.5 1.4 32.2 3.9 32.2 7.8 C 32.2 11.7 29.5 14.2 25.7 14.2 C 25.71 14.22 20.8 14.2 20.8 14.2 L 20.8 22.5 L 18.7 22.5 L 18.7 3.3 Z M 25.4 12.4 C 28.2 12.4 30.1 10.7 30.1 7.8 C 30.1 4.9 28.2 3.3 25.5 3.3 C 25.47 3.27 20.8 3.3 20.8 3.3 L 20.8 12.4 C 20.8 12.4 25.44 12.36 25.4 12.4 Z M 44.5 1.1 C 47.5 1.1 52.3 2.3 52.3 5.5 C 52.35 5.52 52.3 7.3 52.3 7.3 L 50.4 7.3 C 50.4 7.3 50.37 6.09 50.4 6.1 C 50.4 4.1 46.9 3 44.5 3 C 39.8 3 36.2 6.7 36.2 11.8 C 36.2 16.8 39.8 20.9 44.6 20.9 C 48.96 20.88 51.5 17.9 51.5 17.9 L 52.7 19.4 C 52.7 19.4 49.8 22.86 44.6 22.9 C 38.4 22.9 34 17.9 34 11.8 C 34 5.7 38.5 1.1 44.5 1.1 Z " stroke="none" fill="#ee3078"/>  </g></svg>