<?xml version="1.0" standalone="no"?><!DOCTYPE svg PUBLIC "-//W3C//DTD SVG 1.1//EN" "http://www.w3.org/Graphics/SVG/1.1/DTD/svg11.dtd"><svg xmlns="http://www.w3.org/2000/svg" version="1.1" width="218.3px" height="37.5px" viewBox="0 -4 218.3 37.5" style="top:-4px">  <desc>Hmotnostn stabilita</desc>  <defs/>  <g id="Polygon67410">    <path d="M 22.7 2.7 C 22.7 2.5 22.5 2.3 22.3 2.3 C 22.28 2.34 21.5 2.3 21.5 2.3 L 21.5 0.8 C 21.5 0.8 23.32 0.79 23.3 0.8 C 24.1 0.8 24.5 1.1 24.5 1.9 C 24.47 1.94 24.5 6.4 24.5 6.4 L 30.9 6.4 C 30.9 6.4 30.93 1.94 30.9 1.9 C 30.9 1.1 31.3 0.8 32.1 0.8 C 32.09 0.79 33.9 0.8 33.9 0.8 L 33.9 2.3 C 33.9 2.3 33.13 2.34 33.1 2.3 C 32.9 2.3 32.7 2.5 32.7 2.7 C 32.73 2.74 32.7 13.5 32.7 13.5 L 30.9 13.5 L 30.9 7.9 L 24.5 7.9 L 24.5 13.5 L 22.7 13.5 C 22.7 13.5 22.67 2.74 22.7 2.7 Z M 36.1 6.3 C 36.1 6 36 5.9 35.7 5.9 C 35.72 5.89 35 5.9 35 5.9 L 35 4.4 C 35 4.4 36.66 4.39 36.7 4.4 C 37.5 4.4 37.8 4.7 37.8 5.4 C 37.8 5.4 37.8 5.7 37.8 5.7 C 37.81 6.03 37.8 6.3 37.8 6.3 C 37.8 6.3 37.83 6.26 37.8 6.3 C 38.3 5.2 39.5 4.2 40.9 4.2 C 42.5 4.2 43.4 4.9 43.7 6.2 C 43.7 6.2 43.7 6.2 43.7 6.2 C 44.2 5.1 45.5 4.2 47 4.2 C 49 4.2 50 5.3 50 7.7 C 50 7.7 50 11.6 50 11.6 C 50 11.9 50.1 12 50.4 12 C 50.36 12.01 51.1 12 51.1 12 L 51.1 13.5 C 51.1 13.5 49.37 13.5 49.4 13.5 C 48.6 13.5 48.2 13.2 48.2 12.3 C 48.2 12.3 48.2 8 48.2 8 C 48.2 6.8 48 5.8 46.6 5.8 C 45.4 5.8 44.4 6.9 44.1 8.1 C 44 8.5 43.9 8.9 43.9 9.3 C 43.91 9.34 43.9 13.5 43.9 13.5 L 42.2 13.5 C 42.2 13.5 42.17 8.05 42.2 8 C 42.2 6.9 42 5.8 40.6 5.8 C 39.3 5.8 38.3 6.9 38 8.2 C 37.9 8.5 37.9 8.9 37.9 9.3 C 37.86 9.34 37.9 13.5 37.9 13.5 L 36.1 13.5 C 36.1 13.5 36.12 6.28 36.1 6.3 Z M 57 4.2 C 59.7 4.2 61.9 6.2 61.9 8.9 C 61.9 11.7 59.7 13.7 57 13.7 C 54.3 13.7 52.1 11.7 52.1 8.9 C 52.1 6.2 54.3 4.2 57 4.2 Z M 57 12.2 C 58.7 12.2 60.1 10.8 60.1 8.9 C 60.1 7 58.7 5.7 57 5.7 C 55.3 5.7 53.9 7 53.9 8.9 C 53.9 10.8 55.3 12.2 57 12.2 Z M 64.2 5.8 L 63 5.8 L 63 4.4 L 64.2 4.4 L 64.2 1.9 L 65.9 1.9 L 65.9 4.4 L 68.1 4.4 L 68.1 5.8 L 65.9 5.8 C 65.9 5.8 65.91 9.97 65.9 10 C 65.9 11.8 67.2 12 67.8 12 C 68.09 12.02 68.2 12 68.2 12 L 68.2 13.5 C 68.2 13.5 68.01 13.57 67.6 13.6 C 66.5 13.6 64.2 13.2 64.2 10.2 C 64.16 10.17 64.2 5.8 64.2 5.8 Z M 70.4 6.3 C 70.4 6 70.3 5.9 70 5.9 C 70.03 5.89 69.3 5.9 69.3 5.9 L 69.3 4.4 C 69.3 4.4 70.97 4.39 71 4.4 C 71.7 4.4 72.1 4.7 72.1 5.4 C 72.1 5.4 72.1 5.7 72.1 5.7 C 72.12 6.03 72.1 6.3 72.1 6.3 C 72.1 6.3 72.12 6.26 72.1 6.3 C 72.5 5.5 73.6 4.2 75.5 4.2 C 77.7 4.2 78.7 5.3 78.7 7.7 C 78.7 7.7 78.7 11.6 78.7 11.6 C 78.7 11.9 78.8 12 79.1 12 C 79.07 12.01 79.8 12 79.8 12 L 79.8 13.5 C 79.8 13.5 78.08 13.5 78.1 13.5 C 77.3 13.5 76.9 13.2 76.9 12.3 C 76.9 12.3 76.9 8.1 76.9 8.1 C 76.9 6.8 76.7 5.8 75.2 5.8 C 73.8 5.8 72.7 6.7 72.3 8 C 72.2 8.4 72.2 8.8 72.2 9.2 C 72.17 9.23 72.2 13.5 72.2 13.5 L 70.4 13.5 C 70.4 13.5 70.43 6.28 70.4 6.3 Z M 85.7 4.2 C 88.4 4.2 90.6 6.2 90.6 8.9 C 90.6 11.7 88.4 13.7 85.7 13.7 C 83 13.7 80.8 11.7 80.8 8.9 C 80.8 6.2 83 4.2 85.7 4.2 Z M 85.7 12.2 C 87.4 12.2 88.8 10.8 88.8 8.9 C 88.8 7 87.4 5.7 85.7 5.7 C 84 5.7 82.6 7 82.6 8.9 C 82.6 10.8 84 12.2 85.7 12.2 Z M 92.7 10.9 C 92.7 10.9 93.74 12.29 95.4 12.3 C 96.3 12.3 97 11.9 97 11.1 C 97 9.5 92 9.7 92 6.7 C 92 5 93.6 4.2 95.4 4.2 C 96.5 4.2 98.4 4.6 98.4 5.9 C 98.4 5.94 98.4 6.8 98.4 6.8 L 96.8 6.8 C 96.8 6.8 96.83 6.35 96.8 6.4 C 96.8 5.8 96 5.6 95.5 5.6 C 94.4 5.6 93.8 5.9 93.8 6.7 C 93.8 8.4 98.7 8 98.7 11.1 C 98.7 12.7 97.3 13.7 95.4 13.7 C 92.96 13.72 91.8 12.1 91.8 12.1 L 92.7 10.9 Z M 101 5.8 L 99.9 5.8 L 99.9 4.4 L 101.1 4.4 L 101.1 1.9 L 102.8 1.9 L 102.8 4.4 L 105 4.4 L 105 5.8 L 102.8 5.8 C 102.8 5.8 102.79 9.97 102.8 10 C 102.8 11.8 104 12 104.7 12 C 104.97 12.02 105.1 12 105.1 12 L 105.1 13.5 C 105.1 13.5 104.9 13.57 104.5 13.6 C 103.4 13.6 101 13.2 101 10.2 C 101.04 10.17 101 5.8 101 5.8 Z M 107.3 6.3 C 107.3 6 107.2 5.9 106.9 5.9 C 106.91 5.89 106.2 5.9 106.2 5.9 L 106.2 4.4 C 106.2 4.4 107.85 4.39 107.8 4.4 C 108.6 4.4 109 4.7 109 5.4 C 109 5.4 109 5.7 109 5.7 C 109 6.03 109 6.3 109 6.3 C 109 6.3 109 6.26 109 6.3 C 109.4 5.5 110.4 4.2 112.4 4.2 C 114.6 4.2 115.6 5.3 115.6 7.7 C 115.6 7.7 115.6 11.6 115.6 11.6 C 115.6 11.9 115.7 12 115.9 12 C 115.95 12.01 116.7 12 116.7 12 L 116.7 13.5 C 116.7 13.5 114.96 13.5 115 13.5 C 114.1 13.5 113.8 13.2 113.8 12.3 C 113.8 12.3 113.8 8.1 113.8 8.1 C 113.8 6.8 113.6 5.8 112.1 5.8 C 110.7 5.8 109.6 6.7 109.2 8 C 109.1 8.4 109.1 8.8 109.1 9.2 C 109.05 9.23 109.1 13.5 109.1 13.5 L 107.3 13.5 C 107.3 13.5 107.31 6.28 107.3 6.3 Z M 123.2 7.8 C 123.2 7.83 123.6 7.8 123.6 7.8 C 123.6 7.8 123.6 7.74 123.6 7.7 C 123.6 6.1 123 5.6 121.6 5.6 C 121.1 5.6 120.1 5.7 120.1 6.3 C 120.09 6.26 120.1 6.8 120.1 6.8 L 118.4 6.8 C 118.4 6.8 118.45 5.89 118.4 5.9 C 118.4 4.4 120.7 4.2 121.6 4.2 C 124.6 4.2 125.3 5.7 125.3 7.7 C 125.3 7.7 125.3 11.6 125.3 11.6 C 125.3 11.9 125.5 12 125.7 12 C 125.74 12.01 126.5 12 126.5 12 L 126.5 13.5 C 126.5 13.5 124.84 13.5 124.8 13.5 C 124 13.5 123.7 13.1 123.7 12.5 C 123.7 12.15 123.7 11.9 123.7 11.9 L 123.7 11.9 C 123.7 11.9 122.98 13.72 120.8 13.7 C 119.2 13.7 117.7 12.8 117.7 10.9 C 117.7 8 121.7 7.8 123.2 7.8 Z M 121.2 12.3 C 122.7 12.3 123.6 10.8 123.6 9.4 C 123.61 9.41 123.6 9.1 123.6 9.1 C 123.6 9.1 123.16 9.11 123.2 9.1 C 121.9 9.1 119.5 9.2 119.5 10.9 C 119.5 11.6 120 12.3 121.2 12.3 Z M 122.4 0.8 L 124.2 0.8 L 122.5 3.1 L 121.1 3.1 L 122.4 0.8 Z M 133.1 10.9 C 133.1 10.9 134.14 12.29 135.8 12.3 C 136.7 12.3 137.4 11.9 137.4 11.1 C 137.4 9.5 132.4 9.7 132.4 6.7 C 132.4 5 134 4.2 135.8 4.2 C 136.9 4.2 138.8 4.6 138.8 5.9 C 138.81 5.94 138.8 6.8 138.8 6.8 L 137.2 6.8 C 137.2 6.8 137.24 6.35 137.2 6.4 C 137.2 5.8 136.4 5.6 135.9 5.6 C 134.8 5.6 134.2 5.9 134.2 6.7 C 134.2 8.4 139.1 8 139.1 11.1 C 139.1 12.7 137.7 13.7 135.8 13.7 C 133.37 13.72 132.2 12.1 132.2 12.1 L 133.1 10.9 Z M 141.5 5.8 L 140.3 5.8 L 140.3 4.4 L 141.5 4.4 L 141.5 1.9 L 143.2 1.9 L 143.2 4.4 L 145.4 4.4 L 145.4 5.8 L 143.2 5.8 C 143.2 5.8 143.2 9.97 143.2 10 C 143.2 11.8 144.5 12 145.1 12 C 145.38 12.02 145.5 12 145.5 12 L 145.5 13.5 C 145.5 13.5 145.3 13.57 144.9 13.6 C 143.8 13.6 141.5 13.2 141.5 10.2 C 141.45 10.17 141.5 5.8 141.5 5.8 Z M 152.3 7.8 C 152.25 7.83 152.6 7.8 152.6 7.8 C 152.6 7.8 152.65 7.74 152.6 7.7 C 152.6 6.1 152.1 5.6 150.6 5.6 C 150.2 5.6 149.1 5.7 149.1 6.3 C 149.14 6.26 149.1 6.8 149.1 6.8 L 147.5 6.8 C 147.5 6.8 147.5 5.89 147.5 5.9 C 147.5 4.4 149.8 4.2 150.7 4.2 C 153.6 4.2 154.4 5.7 154.4 7.7 C 154.4 7.7 154.4 11.6 154.4 11.6 C 154.4 11.9 154.5 12 154.8 12 C 154.79 12.01 155.5 12 155.5 12 L 155.5 13.5 C 155.5 13.5 153.89 13.5 153.9 13.5 C 153.1 13.5 152.8 13.1 152.8 12.5 C 152.76 12.15 152.8 11.9 152.8 11.9 L 152.8 11.9 C 152.8 11.9 152.04 13.72 149.9 13.7 C 148.3 13.7 146.8 12.8 146.8 10.9 C 146.8 8 150.7 7.8 152.3 7.8 Z M 150.2 12.3 C 151.7 12.3 152.7 10.8 152.7 9.4 C 152.67 9.41 152.7 9.1 152.7 9.1 C 152.7 9.1 152.22 9.11 152.2 9.1 C 150.9 9.1 148.5 9.2 148.5 10.9 C 148.5 11.6 149.1 12.3 150.2 12.3 Z M 157.3 2.7 C 157.3 2.4 157.2 2.3 157 2.3 C 156.95 2.29 156.2 2.3 156.2 2.3 L 156.2 0.8 C 156.2 0.8 157.94 0.79 157.9 0.8 C 158.8 0.8 159.1 1.1 159.1 1.9 C 159.1 1.9 159.1 4.9 159.1 4.9 C 159.09 5.35 159.1 5.7 159.1 5.7 L 159.1 5.7 C 159.1 5.7 159.88 4.18 162 4.2 C 164.5 4.2 166 6.1 166 8.9 C 166 11.8 164.3 13.7 161.9 13.7 C 159.85 13.72 159 12.2 159 12.2 L 159 12.2 C 159 12.2 159.02 12.47 159 12.9 C 159.02 12.87 159 13.5 159 13.5 L 157.3 13.5 C 157.3 13.5 157.35 2.68 157.3 2.7 Z M 161.6 12.2 C 163.1 12.2 164.3 11 164.3 9 C 164.3 7 163.2 5.7 161.7 5.7 C 160.3 5.7 159.1 6.7 159.1 9 C 159.1 10.6 159.9 12.2 161.6 12.2 Z M 168.3 0.8 L 169.9 0.8 L 169.9 2.6 L 168.3 2.6 L 168.3 0.8 Z M 168.3 6.3 C 168.3 6 168.2 5.9 167.9 5.9 C 167.91 5.89 167.2 5.9 167.2 5.9 L 167.2 4.4 C 167.2 4.4 168.88 4.39 168.9 4.4 C 169.7 4.4 170 4.7 170 5.5 C 170 5.5 170 11.6 170 11.6 C 170 11.9 170.2 12 170.4 12 C 170.43 12.01 171.2 12 171.2 12 L 171.2 13.5 C 171.2 13.5 169.46 13.5 169.5 13.5 C 168.7 13.5 168.3 13.2 168.3 12.3 C 168.3 12.3 168.3 6.3 168.3 6.3 Z M 173.1 2.7 C 173.1 2.4 173 2.3 172.7 2.3 C 172.74 2.29 172 2.3 172 2.3 L 172 0.8 C 172 0.8 173.73 0.79 173.7 0.8 C 174.5 0.8 174.9 1.1 174.9 1.9 C 174.9 1.9 174.9 11.6 174.9 11.6 C 174.9 11.9 175 12 175.3 12 C 175.27 12.01 176 12 176 12 L 176 13.5 C 176 13.5 174.28 13.5 174.3 13.5 C 173.5 13.5 173.1 13.2 173.1 12.3 C 173.1 12.3 173.1 2.7 173.1 2.7 Z M 178.1 0.8 L 179.7 0.8 L 179.7 2.6 L 178.1 2.6 L 178.1 0.8 Z M 178.1 6.3 C 178.1 6 177.9 5.9 177.7 5.9 C 177.69 5.89 176.9 5.9 176.9 5.9 L 176.9 4.4 C 176.9 4.4 178.66 4.39 178.7 4.4 C 179.5 4.4 179.8 4.7 179.8 5.5 C 179.8 5.5 179.8 11.6 179.8 11.6 C 179.8 11.9 180 12 180.2 12 C 180.21 12.01 180.9 12 180.9 12 L 180.9 13.5 C 180.9 13.5 179.23 13.5 179.2 13.5 C 178.4 13.5 178.1 13.2 178.1 12.3 C 178.1 12.3 178.1 6.3 178.1 6.3 Z M 183 5.8 L 181.8 5.8 L 181.8 4.4 L 183 4.4 L 183 1.9 L 184.8 1.9 L 184.8 4.4 L 186.9 4.4 L 186.9 5.8 L 184.8 5.8 C 184.8 5.8 184.76 9.97 184.8 10 C 184.8 11.8 186 12 186.7 12 C 186.94 12.02 187.1 12 187.1 12 L 187.1 13.5 C 187.1 13.5 186.87 13.57 186.5 13.6 C 185.3 13.6 183 13.2 183 10.2 C 183.01 10.17 183 5.8 183 5.8 Z M 193.8 7.8 C 193.81 7.83 194.2 7.8 194.2 7.8 C 194.2 7.8 194.21 7.74 194.2 7.7 C 194.2 6.1 193.6 5.6 192.2 5.6 C 191.8 5.6 190.7 5.7 190.7 6.3 C 190.7 6.26 190.7 6.8 190.7 6.8 L 189.1 6.8 C 189.1 6.8 189.06 5.89 189.1 5.9 C 189.1 4.4 191.3 4.2 192.2 4.2 C 195.2 4.2 196 5.7 196 7.7 C 196 7.7 196 11.6 196 11.6 C 196 11.9 196.1 12 196.4 12 C 196.35 12.01 197.1 12 197.1 12 L 197.1 13.5 C 197.1 13.5 195.45 13.5 195.5 13.5 C 194.6 13.5 194.3 13.1 194.3 12.5 C 194.32 12.15 194.4 11.9 194.4 11.9 L 194.3 11.9 C 194.3 11.9 193.6 13.72 191.4 13.7 C 189.9 13.7 188.3 12.8 188.3 10.9 C 188.3 8 192.3 7.8 193.8 7.8 Z M 191.8 12.3 C 193.3 12.3 194.2 10.8 194.2 9.4 C 194.23 9.41 194.2 9.1 194.2 9.1 C 194.2 9.1 193.78 9.11 193.8 9.1 C 192.5 9.1 190.1 9.2 190.1 10.9 C 190.1 11.6 190.6 12.3 191.8 12.3 Z " stroke="none" fill="#ee3078"/>  </g></svg>