<?xml version="1.0" standalone="no"?><!DOCTYPE svg PUBLIC "-//W3C//DTD SVG 1.1//EN" "http://www.w3.org/Graphics/SVG/1.1/DTD/svg11.dtd"><svg xmlns="http://www.w3.org/2000/svg" version="1.1" width="44px" height="19.5px" viewBox="0 -1 44 19.5" style="top:-1px">  <desc>44.2%</desc>  <defs/>  <g id="Polygon79481">    <path d="M 7.4 10 L 7.4 9.9 L 10.2 4 L 10.3 4 L 11 4.1 L 11.1 4.2 L 8.4 9.7 L 8.4 9.7 L 11 9.7 L 11.3 6.8 L 11.9 6.8 L 11.9 9.7 L 12.9 9.7 L 12.9 10.5 L 11.9 10.5 L 11.9 12.5 L 11 12.5 L 11 10.5 L 7.6 10.5 L 7.4 10 Z M 13.4 10 L 13.4 9.9 L 16.2 4 L 16.3 4 L 17.1 4.1 L 17.1 4.2 L 14.4 9.7 L 14.4 9.7 L 17 9.7 L 17.3 6.8 L 17.9 6.8 L 17.9 9.7 L 18.9 9.7 L 18.9 10.5 L 17.9 10.5 L 17.9 12.5 L 17 12.5 L 17 10.5 L 13.6 10.5 L 13.4 10 Z M 21 11.9 C 21 12.3 20.8 12.5 20.4 12.5 C 20 12.5 19.8 12.3 19.8 11.9 C 19.8 11.6 20 11.4 20.4 11.4 C 20.6 11.4 20.7 11.4 20.8 11.5 C 20.9 11.6 21 11.7 21 11.9 C 21 11.9 21 11.9 21 11.9 Z M 22.1 11.3 C 22.1 11 22.1 10.7 22.2 10.4 C 22.2 10.1 22.4 9.9 22.5 9.6 C 22.7 9.3 22.9 9.1 23.2 8.9 C 23.4 8.6 23.7 8.4 24.1 8.2 C 24.6 7.8 25 7.5 25.2 7.2 C 25.4 6.9 25.5 6.5 25.5 6.1 C 25.5 5.2 25 4.8 24 4.8 C 23.5 4.8 23 4.9 22.4 5.1 C 22.4 5.1 22.3 4.3 22.3 4.3 C 22.6 4.2 23 4.1 23.3 4.1 C 23.6 4 23.9 4 24.2 4 C 25.7 4 26.4 4.7 26.4 6.1 C 26.4 6.3 26.4 6.6 26.3 6.8 C 26.3 7 26.2 7.3 26 7.5 C 25.9 7.7 25.7 7.9 25.5 8.1 C 25.2 8.3 25 8.5 24.7 8.7 C 24.3 8.9 24.1 9.2 23.9 9.4 C 23.7 9.6 23.5 9.7 23.4 9.9 C 23.2 10.1 23.1 10.3 23.1 10.5 C 23 10.7 23 10.9 23 11.2 C 22.97 11.18 23 11.7 23 11.7 L 26.4 11.7 L 26.4 12.5 L 22.1 12.5 C 22.1 12.5 22.05 11.35 22.1 11.3 Z M 29.2 9.3 C 28.6 9.3 28.1 9.1 27.8 8.6 C 27.5 8.2 27.4 7.5 27.4 6.6 C 27.4 5.8 27.5 5.1 27.8 4.6 C 28.2 4.2 28.6 4 29.2 4 C 29.8 4 30.3 4.2 30.6 4.6 C 30.9 5.1 31 5.8 31 6.6 C 31 7.5 30.9 8.2 30.6 8.6 C 30.3 9.1 29.8 9.3 29.2 9.3 Z M 28.1 6.6 C 28.1 8 28.5 8.6 29.2 8.6 C 29.9 8.6 30.3 8 30.3 6.6 C 30.3 5.3 29.9 4.6 29.2 4.6 C 28.5 4.6 28.1 5.3 28.1 6.6 C 28.1 6.6 28.1 6.6 28.1 6.6 Z M 34.5 12.6 C 33.9 12.6 33.4 12.4 33.1 11.9 C 32.8 11.5 32.6 10.8 32.6 10 C 32.6 9.1 32.8 8.4 33.1 8 C 33.4 7.5 33.9 7.3 34.5 7.3 C 35.1 7.3 35.5 7.5 35.8 8 C 36.2 8.4 36.3 9.1 36.3 10 C 36.3 10.8 36.2 11.5 35.8 11.9 C 35.5 12.4 35.1 12.6 34.5 12.6 Z M 33.4 10 C 33.4 11.3 33.7 12 34.5 12 C 35.2 12 35.6 11.3 35.6 10 C 35.6 8.6 35.2 8 34.5 8 C 33.7 8 33.4 8.6 33.4 10 C 33.4 10 33.4 10 33.4 10 Z M 33 4.1 L 33.8 4.1 L 30.6 12.5 L 29.8 12.5 L 33 4.1 Z " stroke="none" fill="#68adca"/>  </g></svg>