<?xml version="1.0" standalone="no"?><!DOCTYPE svg PUBLIC "-//W3C//DTD SVG 1.1//EN" "http://www.w3.org/Graphics/SVG/1.1/DTD/svg11.dtd"><svg xmlns="http://www.w3.org/2000/svg" version="1.1" width="152px" height="127.5px" viewBox="-54 -55 152 127.5" style="left:-54px;top:-55px">  <desc>27.8%</desc>  <defs/>  <g id="Polygon80276">    <path d="M 8.6 11.3 C 8.6 11 8.6 10.7 8.7 10.4 C 8.8 10.1 8.9 9.9 9.1 9.6 C 9.2 9.3 9.4 9.1 9.7 8.9 C 9.9 8.6 10.2 8.4 10.6 8.2 C 11.1 7.8 11.5 7.5 11.7 7.2 C 11.9 6.9 12 6.5 12 6.1 C 12 5.2 11.5 4.8 10.5 4.8 C 10.1 4.8 9.5 4.9 8.9 5.1 C 8.9 5.1 8.8 4.3 8.8 4.3 C 9.2 4.2 9.5 4.1 9.8 4.1 C 10.1 4 10.4 4 10.7 4 C 12.2 4 13 4.7 13 6.1 C 13 6.3 12.9 6.6 12.9 6.8 C 12.8 7 12.7 7.3 12.5 7.5 C 12.4 7.7 12.2 7.9 12 8.1 C 11.8 8.3 11.5 8.5 11.2 8.7 C 10.9 8.9 10.6 9.2 10.4 9.4 C 10.2 9.6 10 9.7 9.9 9.9 C 9.8 10.1 9.7 10.3 9.6 10.5 C 9.5 10.7 9.5 10.9 9.5 11.2 C 9.51 11.18 9.5 11.7 9.5 11.7 L 13 11.7 L 13 12.5 L 8.6 12.5 C 8.6 12.5 8.59 11.35 8.6 11.3 Z M 15.2 12.6 L 14.4 12.5 L 14.4 12.3 L 17.1 4.9 L 13.8 4.9 L 13.8 4.2 L 13.8 4.1 L 17.8 4.1 L 18 4.6 L 18 4.9 L 15.4 12.5 L 15.2 12.6 Z M 19.3 11.9 C 19.3 12.3 19.1 12.5 18.7 12.5 C 18.4 12.5 18.2 12.3 18.2 11.9 C 18.2 11.6 18.4 11.4 18.7 11.4 C 18.9 11.4 19.1 11.4 19.2 11.5 C 19.3 11.6 19.3 11.7 19.3 11.9 C 19.3 11.9 19.3 11.9 19.3 11.9 Z M 23 12.5 C 22.2 12.5 21.6 12.3 21.1 12 C 20.7 11.6 20.5 11.1 20.5 10.4 C 20.5 10.1 20.5 9.8 20.6 9.6 C 20.7 9.3 20.8 9.1 20.9 9 C 21 8.8 21.2 8.6 21.3 8.5 C 21.5 8.3 21.7 8.2 21.9 8.1 C 21.5 7.9 21.2 7.7 21 7.4 C 20.8 7.1 20.7 6.6 20.7 6.1 C 20.7 5.4 20.9 4.9 21.3 4.5 C 21.7 4.2 22.3 4 23 4 C 23.7 4 24.3 4.2 24.7 4.5 C 25.1 4.9 25.3 5.4 25.3 6.1 C 25.3 6.7 25.2 7.1 24.9 7.4 C 24.7 7.7 24.4 8 24.1 8.2 C 24.5 8.4 24.9 8.6 25.1 9 C 25.4 9.3 25.5 9.7 25.5 10.3 C 25.5 11 25.3 11.5 24.8 11.9 C 24.4 12.3 23.8 12.5 23 12.5 Z M 22.6 8.4 C 22.2 8.6 21.9 8.8 21.7 9.1 C 21.4 9.4 21.3 9.8 21.3 10.3 C 21.3 10.8 21.5 11.2 21.8 11.4 C 22.1 11.7 22.5 11.8 23 11.8 C 23.5 11.8 23.9 11.7 24.2 11.4 C 24.5 11.2 24.6 10.8 24.6 10.4 C 24.6 10.1 24.6 9.9 24.5 9.7 C 24.4 9.5 24.3 9.3 24.2 9.2 C 24 9 23.8 8.9 23.6 8.8 C 23.4 8.7 23.2 8.6 22.9 8.5 C 22.9 8.5 22.6 8.4 22.6 8.4 Z M 21.5 6.2 C 21.5 6.4 21.6 6.6 21.7 6.8 C 21.7 7 21.8 7.1 22 7.3 C 22.1 7.4 22.3 7.5 22.6 7.6 C 22.8 7.7 23 7.8 23.3 7.9 C 23.3 7.9 23.3 7.9 23.3 7.9 C 23.6 7.8 23.9 7.5 24.1 7.3 C 24.3 7 24.4 6.6 24.4 6.1 C 24.4 5.7 24.3 5.3 24 5 C 23.8 4.8 23.4 4.7 23 4.7 C 22.5 4.7 22.2 4.8 21.9 5.1 C 21.7 5.3 21.5 5.7 21.5 6.2 Z M 28.3 9.3 C 27.7 9.3 27.2 9.1 26.9 8.6 C 26.6 8.2 26.4 7.5 26.4 6.6 C 26.4 5.8 26.6 5.1 26.9 4.6 C 27.2 4.2 27.7 4 28.3 4 C 28.9 4 29.3 4.2 29.6 4.6 C 29.9 5.1 30.1 5.8 30.1 6.6 C 30.1 7.5 29.9 8.2 29.6 8.6 C 29.3 9.1 28.9 9.3 28.3 9.3 Z M 27.1 6.6 C 27.1 8 27.5 8.6 28.3 8.6 C 29 8.6 29.4 8 29.4 6.6 C 29.4 5.3 29 4.6 28.3 4.6 C 27.5 4.6 27.1 5.3 27.1 6.6 C 27.1 6.6 27.1 6.6 27.1 6.6 Z M 33.5 12.6 C 32.9 12.6 32.5 12.4 32.2 11.9 C 31.8 11.5 31.7 10.8 31.7 10 C 31.7 9.1 31.8 8.4 32.2 8 C 32.5 7.5 32.9 7.3 33.5 7.3 C 34.1 7.3 34.6 7.5 34.9 8 C 35.2 8.4 35.4 9.1 35.4 10 C 35.4 10.8 35.2 11.5 34.9 11.9 C 34.6 12.4 34.1 12.6 33.5 12.6 Z M 32.4 10 C 32.4 11.3 32.8 12 33.5 12 C 34.3 12 34.6 11.3 34.6 10 C 34.6 8.6 34.3 8 33.5 8 C 32.8 8 32.4 8.6 32.4 10 C 32.4 10 32.4 10 32.4 10 Z M 32.1 4.1 L 32.9 4.1 L 29.6 12.5 L 28.8 12.5 L 32.1 4.1 Z " stroke="none" fill="#ee3078"/>  </g></svg>