<?xml version="1.0" standalone="no"?><!DOCTYPE svg PUBLIC "-//W3C//DTD SVG 1.1//EN" "http://www.w3.org/Graphics/SVG/1.1/DTD/svg11.dtd"><svg xmlns="http://www.w3.org/2000/svg" version="1.1" width="44px" height="19.5px" viewBox="0 -1 44 19.5" style="top:-1px">  <desc>44.4%</desc>  <defs/>  <g id="Polygon79534">    <path d="M 7.1 10 L 7.1 9.9 L 9.9 4 L 10 4 L 10.8 4.1 L 10.8 4.2 L 8.1 9.7 L 8.1 9.7 L 10.7 9.7 L 11 6.8 L 11.6 6.8 L 11.6 9.7 L 12.6 9.7 L 12.6 10.5 L 11.6 10.5 L 11.6 12.5 L 10.7 12.5 L 10.7 10.5 L 7.3 10.5 L 7.1 10 Z M 13.1 10 L 13.1 9.9 L 15.9 4 L 16 4 L 16.8 4.1 L 16.8 4.2 L 14.1 9.7 L 14.1 9.7 L 16.7 9.7 L 17 6.8 L 17.6 6.8 L 17.6 9.7 L 18.6 9.7 L 18.6 10.5 L 17.6 10.5 L 17.6 12.5 L 16.7 12.5 L 16.7 10.5 L 13.3 10.5 L 13.1 10 Z M 20.7 11.9 C 20.7 12.3 20.5 12.5 20.1 12.5 C 19.7 12.5 19.5 12.3 19.5 11.9 C 19.5 11.6 19.7 11.4 20.1 11.4 C 20.3 11.4 20.4 11.4 20.5 11.5 C 20.7 11.6 20.7 11.7 20.7 11.9 C 20.7 11.9 20.7 11.9 20.7 11.9 Z M 21.5 10 L 21.5 9.9 L 24.3 4 L 24.3 4 L 25.1 4.1 L 25.1 4.2 L 22.4 9.7 L 22.4 9.7 L 25.1 9.7 L 25.3 6.8 L 26 6.8 L 26 9.7 L 27 9.7 L 27 10.5 L 26 10.5 L 26 12.5 L 25.1 12.5 L 25.1 10.5 L 21.7 10.5 L 21.5 10 Z M 29.5 9.3 C 28.9 9.3 28.4 9.1 28.1 8.6 C 27.8 8.2 27.7 7.5 27.7 6.6 C 27.7 5.8 27.8 5.1 28.1 4.6 C 28.4 4.2 28.9 4 29.5 4 C 30.1 4 30.6 4.2 30.9 4.6 C 31.2 5.1 31.3 5.8 31.3 6.6 C 31.3 7.5 31.2 8.2 30.9 8.6 C 30.6 9.1 30.1 9.3 29.5 9.3 Z M 28.4 6.6 C 28.4 8 28.7 8.6 29.5 8.6 C 30.2 8.6 30.6 8 30.6 6.6 C 30.6 5.3 30.2 4.6 29.5 4.6 C 28.7 4.6 28.4 5.3 28.4 6.6 C 28.4 6.6 28.4 6.6 28.4 6.6 Z M 34.8 12.6 C 34.2 12.6 33.7 12.4 33.4 11.9 C 33.1 11.5 32.9 10.8 32.9 10 C 32.9 9.1 33.1 8.4 33.4 8 C 33.7 7.5 34.2 7.3 34.8 7.3 C 35.4 7.3 35.8 7.5 36.1 8 C 36.4 8.4 36.6 9.1 36.6 10 C 36.6 10.8 36.4 11.5 36.1 11.9 C 35.8 12.4 35.4 12.6 34.8 12.6 Z M 33.6 10 C 33.6 11.3 34 12 34.8 12 C 35.5 12 35.9 11.3 35.9 10 C 35.9 8.6 35.5 8 34.8 8 C 34 8 33.6 8.6 33.6 10 C 33.6 10 33.6 10 33.6 10 Z M 33.3 4.1 L 34.1 4.1 L 30.9 12.5 L 30.1 12.5 L 33.3 4.1 Z " stroke="none" fill="#68adca"/>  </g></svg>