<?xml version="1.0" standalone="no"?><!DOCTYPE svg PUBLIC "-//W3C//DTD SVG 1.1//EN" "http://www.w3.org/Graphics/SVG/1.1/DTD/svg11.dtd"><svg xmlns="http://www.w3.org/2000/svg" version="1.1" width="224px" height="34.5px" viewBox="0 -4 224 34.5" style="top:-4px">  <desc>Hemostatick profil</desc>  <defs/>  <g id="Polygon66774">    <path d="M 31.5 2.7 C 31.5 2.5 31.4 2.3 31.1 2.3 C 31.14 2.34 30.4 2.3 30.4 2.3 L 30.4 0.8 C 30.4 0.8 32.18 0.79 32.2 0.8 C 33 0.8 33.3 1.1 33.3 1.9 C 33.34 1.94 33.3 6.4 33.3 6.4 L 39.8 6.4 C 39.8 6.4 39.8 1.94 39.8 1.9 C 39.8 1.1 40.1 0.8 41 0.8 C 40.95 0.79 42.8 0.8 42.8 0.8 L 42.8 2.3 C 42.8 2.3 41.99 2.34 42 2.3 C 41.7 2.3 41.6 2.5 41.6 2.7 C 41.6 2.74 41.6 13.5 41.6 13.5 L 39.8 13.5 L 39.8 7.9 L 33.3 7.9 L 33.3 13.5 L 31.5 13.5 C 31.5 13.5 31.54 2.74 31.5 2.7 Z M 48.6 4.2 C 51.1 4.2 52.5 6.1 52.5 8.4 C 52.51 8.68 52.5 9.2 52.5 9.2 C 52.5 9.2 45.81 9.16 45.8 9.2 C 45.9 11.1 47.3 12.2 48.9 12.2 C 50.51 12.2 51.6 11.1 51.6 11.1 L 52.4 12.4 C 52.4 12.4 51.01 13.72 48.9 13.7 C 46 13.7 44 11.6 44 8.9 C 44 6 46 4.2 48.6 4.2 Z M 50.7 7.9 C 50.7 6.4 49.7 5.6 48.6 5.6 C 47.2 5.6 46.2 6.4 45.9 7.9 C 45.9 7.9 50.7 7.9 50.7 7.9 Z M 54.8 6.3 C 54.8 6 54.7 5.9 54.4 5.9 C 54.43 5.89 53.7 5.9 53.7 5.9 L 53.7 4.4 C 53.7 4.4 55.37 4.39 55.4 4.4 C 56.2 4.4 56.5 4.7 56.5 5.4 C 56.5 5.4 56.5 5.7 56.5 5.7 C 56.52 6.03 56.5 6.3 56.5 6.3 C 56.5 6.3 56.54 6.26 56.5 6.3 C 57 5.2 58.2 4.2 59.7 4.2 C 61.2 4.2 62.1 4.9 62.4 6.2 C 62.4 6.2 62.4 6.2 62.4 6.2 C 62.9 5.1 64.2 4.2 65.7 4.2 C 67.7 4.2 68.7 5.3 68.7 7.7 C 68.7 7.7 68.7 11.6 68.7 11.6 C 68.7 11.9 68.8 12 69.1 12 C 69.07 12.01 69.8 12 69.8 12 L 69.8 13.5 C 69.8 13.5 68.08 13.5 68.1 13.5 C 67.3 13.5 66.9 13.2 66.9 12.3 C 66.9 12.3 66.9 8 66.9 8 C 66.9 6.8 66.7 5.8 65.3 5.8 C 64.1 5.8 63.1 6.9 62.8 8.1 C 62.7 8.5 62.6 8.9 62.6 9.3 C 62.62 9.34 62.6 13.5 62.6 13.5 L 60.9 13.5 C 60.9 13.5 60.88 8.05 60.9 8 C 60.9 6.9 60.7 5.8 59.3 5.8 C 58 5.8 57 6.9 56.7 8.2 C 56.6 8.5 56.6 8.9 56.6 9.3 C 56.57 9.34 56.6 13.5 56.6 13.5 L 54.8 13.5 C 54.8 13.5 54.83 6.28 54.8 6.3 Z M 75.7 4.2 C 78.4 4.2 80.6 6.2 80.6 8.9 C 80.6 11.7 78.4 13.7 75.7 13.7 C 73 13.7 70.8 11.7 70.8 8.9 C 70.8 6.2 73 4.2 75.7 4.2 Z M 75.7 12.2 C 77.4 12.2 78.8 10.8 78.8 8.9 C 78.8 7 77.4 5.7 75.7 5.7 C 74 5.7 72.6 7 72.6 8.9 C 72.6 10.8 74 12.2 75.7 12.2 Z M 82.7 10.9 C 82.7 10.9 83.74 12.29 85.4 12.3 C 86.3 12.3 87 11.9 87 11.1 C 87 9.5 82 9.7 82 6.7 C 82 5 83.6 4.2 85.4 4.2 C 86.5 4.2 88.4 4.6 88.4 5.9 C 88.4 5.94 88.4 6.8 88.4 6.8 L 86.8 6.8 C 86.8 6.8 86.83 6.35 86.8 6.4 C 86.8 5.8 86 5.6 85.5 5.6 C 84.4 5.6 83.8 5.9 83.8 6.7 C 83.8 8.4 88.7 8 88.7 11.1 C 88.7 12.7 87.3 13.7 85.4 13.7 C 82.96 13.72 81.8 12.1 81.8 12.1 L 82.7 10.9 Z M 91 5.8 L 89.9 5.8 L 89.9 4.4 L 91.1 4.4 L 91.1 1.9 L 92.8 1.9 L 92.8 4.4 L 95 4.4 L 95 5.8 L 92.8 5.8 C 92.8 5.8 92.79 9.97 92.8 10 C 92.8 11.8 94 12 94.7 12 C 94.97 12.02 95.1 12 95.1 12 L 95.1 13.5 C 95.1 13.5 94.9 13.57 94.5 13.6 C 93.4 13.6 91 13.2 91 10.2 C 91.04 10.17 91 5.8 91 5.8 Z M 101.8 7.8 C 101.84 7.83 102.2 7.8 102.2 7.8 C 102.2 7.8 102.24 7.74 102.2 7.7 C 102.2 6.1 101.6 5.6 100.2 5.6 C 99.8 5.6 98.7 5.7 98.7 6.3 C 98.73 6.26 98.7 6.8 98.7 6.8 L 97.1 6.8 C 97.1 6.8 97.09 5.89 97.1 5.9 C 97.1 4.4 99.4 4.2 100.2 4.2 C 103.2 4.2 104 5.7 104 7.7 C 104 7.7 104 11.6 104 11.6 C 104 11.9 104.1 12 104.4 12 C 104.38 12.01 105.1 12 105.1 12 L 105.1 13.5 C 105.1 13.5 103.48 13.5 103.5 13.5 C 102.7 13.5 102.3 13.1 102.3 12.5 C 102.35 12.15 102.4 11.9 102.4 11.9 L 102.3 11.9 C 102.3 11.9 101.63 13.72 99.4 13.7 C 97.9 13.7 96.4 12.8 96.4 10.9 C 96.4 8 100.3 7.8 101.8 7.8 Z M 99.8 12.3 C 101.3 12.3 102.3 10.8 102.3 9.4 C 102.26 9.41 102.3 9.1 102.3 9.1 C 102.3 9.1 101.81 9.11 101.8 9.1 C 100.5 9.1 98.1 9.2 98.1 10.9 C 98.1 11.6 98.7 12.3 99.8 12.3 Z M 107.1 5.8 L 105.9 5.8 L 105.9 4.4 L 107.1 4.4 L 107.1 1.9 L 108.8 1.9 L 108.8 4.4 L 111 4.4 L 111 5.8 L 108.8 5.8 C 108.8 5.8 108.83 9.97 108.8 10 C 108.8 11.8 110.1 12 110.8 12 C 111.01 12.02 111.2 12 111.2 12 L 111.2 13.5 C 111.2 13.5 110.93 13.57 110.6 13.6 C 109.4 13.6 107.1 13.2 107.1 10.2 C 107.08 10.17 107.1 5.8 107.1 5.8 Z M 113.5 0.8 L 115 0.8 L 115 2.6 L 113.5 2.6 L 113.5 0.8 Z M 113.4 6.3 C 113.4 6 113.3 5.9 113 5.9 C 113.04 5.89 112.3 5.9 112.3 5.9 L 112.3 4.4 C 112.3 4.4 114.01 4.39 114 4.4 C 114.8 4.4 115.2 4.7 115.2 5.5 C 115.2 5.5 115.2 11.6 115.2 11.6 C 115.2 11.9 115.3 12 115.6 12 C 115.56 12.01 116.3 12 116.3 12 L 116.3 13.5 C 116.3 13.5 114.59 13.5 114.6 13.5 C 113.8 13.5 113.4 13.2 113.4 12.3 C 113.4 12.3 113.4 6.3 113.4 6.3 Z M 122.3 4.2 C 123.4 4.2 125.6 4.6 125.6 6.2 C 125.59 6.17 125.6 7.1 125.6 7.1 L 124 7.1 C 124 7.1 124 6.61 124 6.6 C 124 6 123 5.7 122.3 5.7 C 120.5 5.7 119.2 7 119.2 8.9 C 119.2 11 120.7 12.2 122.4 12.2 C 124.11 12.17 125.2 10.9 125.2 10.9 L 126 12.2 C 126 12.2 124.69 13.72 122.3 13.7 C 119.4 13.7 117.4 11.7 117.4 8.9 C 117.4 6.3 119.4 4.2 122.3 4.2 Z M 127.8 2.7 C 127.8 2.4 127.6 2.3 127.4 2.3 C 127.37 2.29 126.6 2.3 126.6 2.3 L 126.6 0.8 C 126.6 0.8 128.36 0.79 128.4 0.8 C 129.2 0.8 129.5 1 129.5 1.8 C 129.51 1.84 129.5 7.7 129.5 7.7 C 129.5 7.7 130.32 7.74 130.3 7.7 C 130.6 7.7 131 7.7 131.3 7.3 C 131.27 7.34 133.4 4.4 133.4 4.4 L 135.4 4.4 C 135.4 4.4 132.91 7.78 132.9 7.8 C 132.5 8.33 132.2 8.5 132.2 8.5 L 132.2 8.5 C 132.2 8.5 132.53 8.6 132.8 9.2 C 132.8 9.2 134.2 11.6 134.2 11.6 C 134.3 11.9 134.5 12 135 12 C 134.96 12.01 135.5 12 135.5 12 L 135.5 13.5 C 135.5 13.5 134.26 13.5 134.3 13.5 C 133.4 13.5 133.1 13.4 132.7 12.7 C 132.7 12.7 131.1 9.6 131.1 9.6 C 130.9 9.3 130.5 9.2 130.2 9.2 C 130.19 9.22 129.5 9.2 129.5 9.2 L 129.5 13.5 L 127.8 13.5 C 127.8 13.5 127.76 2.68 127.8 2.7 Z M 137.7 15.8 C 138.4 15.8 139 15.3 139.3 14.5 C 139.3 14.45 139.7 13.5 139.7 13.5 C 139.7 13.5 136.6 6.25 136.6 6.2 C 136.5 6 136.3 5.9 136 5.9 C 136.03 5.89 135.8 5.9 135.8 5.9 L 135.8 4.4 C 135.8 4.4 136.84 4.39 136.8 4.4 C 137.6 4.4 137.8 4.6 138.1 5.3 C 138.1 5.3 140.2 10.4 140.2 10.4 C 140.38 10.91 140.5 11.5 140.5 11.5 L 140.6 11.5 C 140.6 11.5 140.69 10.91 140.9 10.4 C 140.9 10.4 142.8 5.3 142.8 5.3 C 143 4.6 143.4 4.4 144.1 4.4 C 144.09 4.39 145.1 4.4 145.1 4.4 L 145.1 5.9 C 145.1 5.9 144.9 5.89 144.9 5.9 C 144.6 5.9 144.4 6 144.3 6.2 C 144.3 6.2 140.7 15.1 140.7 15.1 C 140.2 16.5 139.1 17.3 137.8 17.3 C 136.44 17.28 135.6 16.4 135.6 16.4 C 135.6 16.4 136.37 15.12 136.4 15.1 C 136.4 15.1 136.9 15.8 137.7 15.8 Z M 141.1 0.8 L 142.8 0.8 L 141.1 3.1 L 139.8 3.1 L 141.1 0.8 Z M 151.8 6.3 C 151.8 6 151.6 5.9 151.4 5.9 C 151.36 5.89 150.6 5.9 150.6 5.9 L 150.6 4.4 C 150.6 4.4 152.26 4.39 152.3 4.4 C 153.1 4.4 153.4 4.7 153.4 5.3 C 153.38 5.58 153.4 5.8 153.4 5.8 L 153.4 5.8 C 153.4 5.8 154.15 4.18 156.4 4.2 C 158.9 4.2 160.4 6.1 160.4 8.9 C 160.4 11.8 158.7 13.7 156.3 13.7 C 154.28 13.72 153.5 12.3 153.5 12.3 L 153.5 12.3 C 153.5 12.3 153.5 12.58 153.5 13.1 C 153.5 13.05 153.5 17.1 153.5 17.1 L 151.8 17.1 C 151.8 17.1 151.76 6.28 151.8 6.3 Z M 156 12.2 C 157.5 12.2 158.7 11 158.7 9 C 158.7 7 157.6 5.7 156.1 5.7 C 154.7 5.7 153.4 6.7 153.4 9 C 153.4 10.6 154.3 12.2 156 12.2 Z M 162.6 6.3 C 162.6 6 162.5 5.9 162.2 5.9 C 162.23 5.89 161.5 5.9 161.5 5.9 L 161.5 4.4 C 161.5 4.4 163.15 4.39 163.2 4.4 C 163.9 4.4 164.3 4.7 164.3 5.5 C 164.3 5.5 164.3 6 164.3 6 C 164.32 6.39 164.3 6.7 164.3 6.7 C 164.3 6.7 164.32 6.66 164.3 6.7 C 164.8 5.3 165.8 4.3 167.2 4.3 C 167.44 4.28 167.7 4.3 167.7 4.3 L 167.7 6 C 167.7 6 167.44 5.99 167.1 6 C 166 6 165 6.8 164.6 8.1 C 164.4 8.7 164.4 9.2 164.4 9.8 C 164.38 9.77 164.4 13.5 164.4 13.5 L 162.6 13.5 C 162.6 13.5 162.63 6.28 162.6 6.3 Z M 173.2 4.2 C 176 4.2 178.2 6.2 178.2 8.9 C 178.2 11.7 176 13.7 173.2 13.7 C 170.5 13.7 168.4 11.7 168.4 8.9 C 168.4 6.2 170.5 4.2 173.2 4.2 Z M 173.2 12.2 C 175 12.2 176.4 10.8 176.4 8.9 C 176.4 7 175 5.7 173.2 5.7 C 171.5 5.7 170.1 7 170.1 8.9 C 170.1 10.8 171.5 12.2 173.2 12.2 Z M 180.3 5.8 L 179.2 5.8 L 179.2 4.4 L 180.3 4.4 C 180.3 4.4 180.34 4.09 180.3 4.1 C 180.3 1.1 182.6 0.7 183.8 0.7 C 184.17 0.7 184.4 0.8 184.4 0.8 L 184.4 2.3 C 184.4 2.3 184.25 2.21 184 2.2 C 183.3 2.2 182.1 2.4 182.1 4.1 C 182.09 4.14 182.1 4.4 182.1 4.4 C 182.1 4.4 186.68 4.39 186.7 4.4 C 187.5 4.4 187.8 4.7 187.8 5.5 C 187.8 5.5 187.8 11.6 187.8 11.6 C 187.8 11.9 188 12 188.2 12 C 188.22 12.01 189 12 189 12 L 189 13.5 C 189 13.5 187.25 13.5 187.3 13.5 C 186.4 13.5 186.1 13.2 186.1 12.3 C 186.1 12.3 186.1 6.2 186.1 6.2 C 186.1 5.9 185.9 5.8 185.7 5.8 C 185.69 5.8 182.1 5.8 182.1 5.8 L 182.1 13.5 L 180.3 13.5 L 180.3 5.8 Z M 186.1 0.8 L 187.7 0.8 L 187.7 2.6 L 186.1 2.6 L 186.1 0.8 Z M 190.9 2.7 C 190.9 2.4 190.8 2.3 190.5 2.3 C 190.53 2.29 189.8 2.3 189.8 2.3 L 189.8 0.8 C 189.8 0.8 191.52 0.79 191.5 0.8 C 192.3 0.8 192.7 1.1 192.7 1.9 C 192.7 1.9 192.7 11.6 192.7 11.6 C 192.7 11.9 192.8 12 193.1 12 C 193.07 12.01 193.8 12 193.8 12 L 193.8 13.5 C 193.8 13.5 192.08 13.5 192.1 13.5 C 191.3 13.5 190.9 13.2 190.9 12.3 C 190.9 12.3 190.9 2.7 190.9 2.7 Z " stroke="none" fill="#ee3078"/>  </g></svg>