<?xml version="1.0" standalone="no"?><!DOCTYPE svg PUBLIC "-//W3C//DTD SVG 1.1//EN" "http://www.w3.org/Graphics/SVG/1.1/DTD/svg11.dtd"><svg xmlns="http://www.w3.org/2000/svg" version="1.1" width="113.4px" height="78.4px" viewBox="0 0 113.4 78.4">  <desc>3,6 + 1,5 hod n (po intraven znom podan )</desc>  <defs/>  <g id="Polygon69557">    <path d="M 41.2 49.3 C 41.2 49.2 41.2 49.1 41 49.1 C 41.05 49.14 40.7 49.1 40.7 49.1 L 40.7 48.4 C 40.7 48.4 41.5 48.4 41.5 48.4 C 41.9 48.4 42.1 48.6 42.1 48.9 C 42.1 49 42 49.1 42 49.1 C 42.05 49.1 42.1 49.1 42.1 49.1 C 42.1 49.1 42.44 48.29 43.6 48.3 C 44.8 48.3 45.6 49.3 45.6 50.7 C 45.6 52.1 44.7 53.1 43.5 53.1 C 42.5 53.06 42.1 52.3 42.1 52.3 L 42.1 52.3 C 42.1 52.3 42.12 52.49 42.1 52.7 C 42.12 52.73 42.1 54.8 42.1 54.8 L 41.2 54.8 C 41.2 54.8 41.25 49.34 41.2 49.3 Z M 43.4 52.3 C 44.1 52.3 44.7 51.7 44.7 50.7 C 44.7 49.7 44.2 49.1 43.4 49.1 C 42.7 49.1 42.1 49.5 42.1 50.7 C 42.1 51.5 42.5 52.3 43.4 52.3 Z M 48.7 48.3 C 50 48.3 51.1 49.3 51.1 50.7 C 51.1 52.1 50 53.1 48.7 53.1 C 47.3 53.1 46.2 52.1 46.2 50.7 C 46.2 49.3 47.3 48.3 48.7 48.3 Z M 48.7 52.3 C 49.6 52.3 50.3 51.6 50.3 50.7 C 50.3 49.7 49.6 49 48.7 49 C 47.8 49 47.1 49.7 47.1 50.7 C 47.1 51.6 47.8 52.3 48.7 52.3 Z M 53.9 48.3 C 54.92 48.29 55.3 49 55.3 49 L 55.3 49 C 55.3 49 55.27 48.86 55.3 48.7 C 55.3 48.7 55.3 47.5 55.3 47.5 C 55.3 47.4 55.2 47.3 55.1 47.3 C 55.07 47.34 54.7 47.3 54.7 47.3 L 54.7 46.6 C 54.7 46.6 55.56 46.6 55.6 46.6 C 56 46.6 56.1 46.8 56.1 47.2 C 56.1 47.2 56.1 52 56.1 52 C 56.1 52.1 56.2 52.2 56.3 52.2 C 56.34 52.2 56.7 52.2 56.7 52.2 L 56.7 53 C 56.7 53 55.87 52.95 55.9 53 C 55.5 53 55.3 52.8 55.3 52.5 C 55.3 52.3 55.3 52.2 55.3 52.2 C 55.32 52.23 55.3 52.2 55.3 52.2 C 55.3 52.2 54.92 53.06 53.8 53.1 C 52.6 53.1 51.8 52.1 51.8 50.7 C 51.8 49.2 52.7 48.3 53.9 48.3 Z M 55.3 50.7 C 55.3 49.9 54.9 49 54 49 C 53.3 49 52.7 49.6 52.7 50.7 C 52.7 51.7 53.2 52.3 54 52.3 C 54.7 52.3 55.3 51.8 55.3 50.7 Z M 60 50.1 C 59.99 50.12 60.2 50.1 60.2 50.1 C 60.2 50.1 60.19 50.07 60.2 50.1 C 60.2 49.3 59.9 49 59.2 49 C 59 49 58.4 49 58.4 49.3 C 58.43 49.33 58.4 49.6 58.4 49.6 L 57.6 49.6 C 57.6 49.6 57.62 49.14 57.6 49.1 C 57.6 48.4 58.7 48.3 59.2 48.3 C 60.7 48.3 61.1 49.1 61.1 50.1 C 61.1 50.1 61.1 52 61.1 52 C 61.1 52.1 61.1 52.2 61.3 52.2 C 61.26 52.2 61.6 52.2 61.6 52.2 L 61.6 53 C 61.6 53 60.81 52.95 60.8 53 C 60.4 53 60.2 52.8 60.2 52.4 C 60.2 52.3 60.3 52.2 60.3 52.2 C 60.26 52.16 60.2 52.2 60.2 52.2 C 60.2 52.2 59.88 53.06 58.8 53.1 C 58 53.1 57.2 52.6 57.2 51.7 C 57.2 50.2 59.2 50.1 60 50.1 Z M 59 52.4 C 59.7 52.4 60.2 51.6 60.2 50.9 C 60.2 50.91 60.2 50.8 60.2 50.8 C 60.2 50.8 59.97 50.75 60 50.8 C 59.3 50.8 58.1 50.8 58.1 51.6 C 58.1 52 58.4 52.4 59 52.4 Z M 62.6 49.3 C 62.6 49.2 62.5 49.1 62.4 49.1 C 62.38 49.14 62 49.1 62 49.1 L 62 48.4 C 62 48.4 62.84 48.4 62.8 48.4 C 63.2 48.4 63.4 48.6 63.4 48.9 C 63.4 48.9 63.4 49.1 63.4 49.1 C 63.42 49.22 63.4 49.3 63.4 49.3 C 63.4 49.3 63.42 49.33 63.4 49.3 C 63.6 48.9 64.1 48.3 65.1 48.3 C 66.2 48.3 66.7 48.9 66.7 50 C 66.7 50 66.7 52 66.7 52 C 66.7 52.1 66.8 52.2 66.9 52.2 C 66.89 52.2 67.3 52.2 67.3 52.2 L 67.3 53 C 67.3 53 66.4 52.95 66.4 53 C 66 53 65.8 52.8 65.8 52.4 C 65.8 52.4 65.8 50.2 65.8 50.2 C 65.8 49.6 65.7 49.1 65 49.1 C 64.3 49.1 63.7 49.5 63.5 50.2 C 63.5 50.4 63.4 50.6 63.4 50.8 C 63.45 50.82 63.4 53 63.4 53 L 62.6 53 C 62.6 53 62.57 49.34 62.6 49.3 Z M 68.3 49.3 C 68.3 49.2 68.2 49.1 68.1 49.1 C 68.06 49.14 67.7 49.1 67.7 49.1 L 67.7 48.4 C 67.7 48.4 68.55 48.4 68.6 48.4 C 69 48.4 69.1 48.6 69.1 49 C 69.1 49 69.1 52 69.1 52 C 69.1 52.1 69.2 52.2 69.3 52.2 C 69.32 52.2 69.7 52.2 69.7 52.2 L 69.7 53 C 69.7 53 68.84 52.95 68.8 53 C 68.4 53 68.3 52.8 68.3 52.4 C 68.3 52.4 68.3 49.3 68.3 49.3 Z M 68.9 46.6 L 69.8 46.6 L 69 47.7 L 68.3 47.7 L 68.9 46.6 Z M 71.4 49.9 C 71.4 48.6 71 47.5 70.4 46.3 C 70.4 46.3 71.1 46.3 71.1 46.3 C 71.8 47.4 72.2 48.6 72.2 50 C 72.2 51.4 71.8 52.8 71.1 53.8 C 71.1 53.8 70.3 53.8 70.3 53.8 C 71 52.6 71.4 51.3 71.4 49.9 Z " stroke="none" fill="#323232"/>  </g>  <g id="Polygon69556">    <path d="M 18.2 35.5 C 18.2 35.5 18.9 35.5 18.9 35.5 C 18.3 36.7 17.9 37.8 17.9 39.1 C 17.9 40.5 18.3 41.8 19 43 C 19 43 18.2 43 18.2 43 C 17.5 42 17.1 40.6 17.1 39.2 C 17.1 37.8 17.5 36.6 18.2 35.5 Z M 20.1 38.5 C 20.1 38.4 20.1 38.3 19.9 38.3 C 19.94 38.34 19.6 38.3 19.6 38.3 L 19.6 37.6 C 19.6 37.6 20.39 37.6 20.4 37.6 C 20.8 37.6 20.9 37.8 20.9 38.1 C 20.9 38.2 20.9 38.3 20.9 38.3 C 20.94 38.3 21 38.3 21 38.3 C 21 38.3 21.33 37.49 22.5 37.5 C 23.7 37.5 24.5 38.5 24.5 39.9 C 24.5 41.3 23.6 42.3 22.4 42.3 C 21.39 42.26 21 41.5 21 41.5 L 21 41.5 C 21 41.5 21.01 41.69 21 41.9 C 21.01 41.93 21 44 21 44 L 20.1 44 C 20.1 44 20.14 38.54 20.1 38.5 Z M 22.3 41.5 C 23 41.5 23.6 40.9 23.6 39.9 C 23.6 38.9 23.1 38.3 22.3 38.3 C 21.6 38.3 21 38.7 21 39.9 C 21 40.7 21.4 41.5 22.3 41.5 Z M 27.6 37.5 C 28.9 37.5 30 38.5 30 39.9 C 30 41.3 28.9 42.3 27.6 42.3 C 26.2 42.3 25.1 41.3 25.1 39.9 C 25.1 38.5 26.2 37.5 27.6 37.5 Z M 27.6 41.5 C 28.4 41.5 29.1 40.8 29.1 39.9 C 29.1 38.9 28.4 38.2 27.6 38.2 C 26.7 38.2 26 38.9 26 39.9 C 26 40.8 26.7 41.5 27.6 41.5 Z M 33.6 35.8 L 34.4 35.8 L 34.4 36.7 L 33.6 36.7 L 33.6 35.8 Z M 33.6 38.5 C 33.6 38.4 33.5 38.3 33.4 38.3 C 33.39 38.34 33 38.3 33 38.3 L 33 37.6 C 33 37.6 33.88 37.6 33.9 37.6 C 34.3 37.6 34.5 37.8 34.5 38.2 C 34.5 38.2 34.5 41.2 34.5 41.2 C 34.5 41.3 34.5 41.4 34.7 41.4 C 34.65 41.4 35 41.4 35 41.4 L 35 42.2 C 35 42.2 34.17 42.15 34.2 42.2 C 33.8 42.2 33.6 42 33.6 41.6 C 33.6 41.6 33.6 38.5 33.6 38.5 Z M 36 38.5 C 36 38.4 35.9 38.3 35.8 38.3 C 35.82 38.34 35.5 38.3 35.5 38.3 L 35.5 37.6 C 35.5 37.6 36.29 37.6 36.3 37.6 C 36.7 37.6 36.9 37.8 36.9 38.1 C 36.9 38.1 36.9 38.3 36.9 38.3 C 36.87 38.42 36.8 38.5 36.8 38.5 C 36.8 38.5 36.87 38.53 36.9 38.5 C 37 38.1 37.6 37.5 38.6 37.5 C 39.7 37.5 40.1 38.1 40.1 39.2 C 40.1 39.2 40.1 41.2 40.1 41.2 C 40.1 41.3 40.2 41.4 40.3 41.4 C 40.34 41.4 40.7 41.4 40.7 41.4 L 40.7 42.2 C 40.7 42.2 39.84 42.15 39.8 42.2 C 39.4 42.2 39.3 42 39.3 41.6 C 39.3 41.6 39.3 39.4 39.3 39.4 C 39.3 38.8 39.1 38.3 38.4 38.3 C 37.7 38.3 37.2 38.7 37 39.4 C 36.9 39.6 36.9 39.8 36.9 40 C 36.89 40.02 36.9 42.2 36.9 42.2 L 36 42.2 C 36 42.2 36.02 38.54 36 38.5 Z M 41.7 38.3 L 41.1 38.3 L 41.1 37.6 L 41.7 37.6 L 41.7 36.3 L 42.6 36.3 L 42.6 37.6 L 43.7 37.6 L 43.7 38.3 L 42.6 38.3 C 42.6 38.3 42.56 40.39 42.6 40.4 C 42.6 41.3 43.2 41.4 43.5 41.4 C 43.65 41.41 43.7 41.4 43.7 41.4 L 43.7 42.2 C 43.7 42.2 43.62 42.19 43.4 42.2 C 42.9 42.2 41.7 42 41.7 40.5 C 41.69 40.49 41.7 38.3 41.7 38.3 Z M 44.8 38.5 C 44.8 38.4 44.8 38.3 44.6 38.3 C 44.62 38.34 44.3 38.3 44.3 38.3 L 44.3 37.6 C 44.3 37.6 45.08 37.6 45.1 37.6 C 45.5 37.6 45.7 37.8 45.7 38.1 C 45.7 38.1 45.7 38.4 45.7 38.4 C 45.67 38.6 45.6 38.7 45.6 38.7 C 45.6 38.7 45.67 38.73 45.7 38.7 C 45.9 38.1 46.4 37.5 47.1 37.5 C 47.22 37.54 47.3 37.6 47.3 37.6 L 47.3 38.4 C 47.3 38.4 47.22 38.4 47.1 38.4 C 46.5 38.4 46 38.8 45.8 39.5 C 45.7 39.7 45.7 40 45.7 40.3 C 45.69 40.29 45.7 42.2 45.7 42.2 L 44.8 42.2 C 44.8 42.2 44.82 38.54 44.8 38.5 Z M 50.3 39.3 C 50.34 39.32 50.5 39.3 50.5 39.3 C 50.5 39.3 50.54 39.27 50.5 39.3 C 50.5 38.5 50.2 38.2 49.5 38.2 C 49.3 38.2 48.8 38.2 48.8 38.5 C 48.78 38.53 48.8 38.8 48.8 38.8 L 48 38.8 C 48 38.8 47.96 38.34 48 38.3 C 48 37.6 49.1 37.5 49.5 37.5 C 51 37.5 51.4 38.3 51.4 39.3 C 51.4 39.3 51.4 41.2 51.4 41.2 C 51.4 41.3 51.5 41.4 51.6 41.4 C 51.61 41.4 52 41.4 52 41.4 L 52 42.2 C 52 42.2 51.16 42.15 51.2 42.2 C 50.8 42.2 50.6 42 50.6 41.6 C 50.6 41.5 50.6 41.4 50.6 41.4 C 50.61 41.36 50.6 41.4 50.6 41.4 C 50.6 41.4 50.23 42.26 49.1 42.3 C 48.4 42.3 47.6 41.8 47.6 40.9 C 47.6 39.4 49.6 39.3 50.3 39.3 Z M 49.3 41.6 C 50.1 41.6 50.5 40.8 50.5 40.1 C 50.55 40.11 50.5 40 50.5 40 C 50.5 40 50.32 39.95 50.3 40 C 49.7 40 48.5 40 48.5 40.8 C 48.5 41.2 48.8 41.6 49.3 41.6 Z M 52.5 38.5 C 52.5 38.4 52.4 38.3 52.3 38.3 C 52.27 38.34 52.2 38.3 52.2 38.3 L 52.2 37.6 C 52.2 37.6 52.63 37.6 52.6 37.6 C 53 37.6 53.2 37.7 53.3 38.1 C 53.3 38.1 54.3 40.7 54.3 40.7 C 54.39 40.93 54.5 41.3 54.5 41.3 L 54.5 41.3 C 54.5 41.3 54.55 40.93 54.6 40.7 C 54.6 40.7 55.6 38.1 55.6 38.1 C 55.7 37.7 55.9 37.6 56.3 37.6 C 56.31 37.6 56.7 37.6 56.7 37.6 L 56.7 38.3 C 56.7 38.3 56.64 38.34 56.6 38.3 C 56.5 38.3 56.4 38.4 56.3 38.5 C 56.34 38.52 55 42.2 55 42.2 L 53.9 42.2 C 53.9 42.2 52.54 38.52 52.5 38.5 Z M 59.4 37.5 C 60.6 37.5 61.3 38.4 61.3 39.6 C 61.33 39.74 61.3 40 61.3 40 C 61.3 40 57.98 39.98 58 40 C 58 41 58.7 41.5 59.5 41.5 C 60.33 41.5 60.9 41 60.9 41 L 61.3 41.6 C 61.3 41.6 60.58 42.26 59.5 42.3 C 58.1 42.3 57.1 41.2 57.1 39.9 C 57.1 38.4 58.1 37.5 59.4 37.5 Z M 60.4 39.3 C 60.4 38.6 59.9 38.2 59.4 38.2 C 58.7 38.2 58.2 38.6 58 39.3 C 58 39.3 60.4 39.3 60.4 39.3 Z M 62.5 38.5 C 62.5 38.4 62.4 38.3 62.3 38.3 C 62.29 38.34 61.9 38.3 61.9 38.3 L 61.9 37.6 C 61.9 37.6 62.76 37.6 62.8 37.6 C 63.1 37.6 63.3 37.8 63.3 38.1 C 63.3 38.1 63.3 38.3 63.3 38.3 C 63.33 38.42 63.3 38.5 63.3 38.5 C 63.3 38.5 63.33 38.53 63.3 38.5 C 63.5 38.1 64.1 37.5 65 37.5 C 66.1 37.5 66.6 38.1 66.6 39.2 C 66.6 39.2 66.6 41.2 66.6 41.2 C 66.6 41.3 66.7 41.4 66.8 41.4 C 66.81 41.4 67.2 41.4 67.2 41.4 L 67.2 42.2 C 67.2 42.2 66.31 42.15 66.3 42.2 C 65.9 42.2 65.7 42 65.7 41.6 C 65.7 41.6 65.7 39.4 65.7 39.4 C 65.7 38.8 65.6 38.3 64.9 38.3 C 64.2 38.3 63.6 38.7 63.4 39.4 C 63.4 39.6 63.4 39.8 63.4 40 C 63.36 40.02 63.4 42.2 63.4 42.2 L 62.5 42.2 C 62.5 42.2 62.49 38.54 62.5 38.5 Z M 70.1 37.5 C 71.5 37.5 72.6 38.5 72.6 39.9 C 72.6 41.3 71.5 42.3 70.1 42.3 C 68.8 42.3 67.7 41.3 67.7 39.9 C 67.7 38.5 68.8 37.5 70.1 37.5 Z M 70.1 41.5 C 71 41.5 71.7 40.8 71.7 39.9 C 71.7 38.9 71 38.2 70.1 38.2 C 69.3 38.2 68.6 38.9 68.6 39.9 C 68.6 40.8 69.3 41.5 70.1 41.5 Z M 70.4 35.8 L 71.3 35.8 L 70.5 36.9 L 69.8 36.9 L 70.4 35.8 Z M 73.1 41.6 C 73.1 41.6 75.45 38.77 75.4 38.8 C 75.65 38.52 75.8 38.3 75.8 38.3 L 75.8 38.3 C 75.8 38.3 75.68 38.34 75.4 38.3 C 75.4 38.3 74.1 38.3 74.1 38.3 C 74 38.3 73.9 38.4 73.9 38.5 C 73.95 38.54 73.9 38.8 73.9 38.8 L 73.1 38.8 C 73.1 38.8 73.15 38.17 73.1 38.2 C 73.1 37.8 73.3 37.6 73.7 37.6 C 73.72 37.6 77 37.6 77 37.6 L 77 38.1 C 77 38.1 74.64 40.99 74.6 41 C 74.45 41.22 74.3 41.4 74.3 41.4 L 74.3 41.4 C 74.3 41.4 74.4 41.4 74.7 41.4 C 74.7 41.4 76.2 41.4 76.2 41.4 C 76.3 41.4 76.4 41.3 76.4 41.2 C 76.36 41.21 76.4 40.9 76.4 40.9 L 77.1 40.9 C 77.1 40.9 77.15 41.58 77.1 41.6 C 77.1 42 77 42.2 76.6 42.2 C 76.57 42.15 73.1 42.2 73.1 42.2 L 73.1 41.6 Z M 78.1 38.5 C 78.1 38.4 78.1 38.3 77.9 38.3 C 77.93 38.34 77.6 38.3 77.6 38.3 L 77.6 37.6 C 77.6 37.6 78.4 37.6 78.4 37.6 C 78.8 37.6 79 37.8 79 38.1 C 79 38.1 79 38.3 79 38.3 C 78.98 38.42 79 38.5 79 38.5 C 79 38.5 78.98 38.53 79 38.5 C 79.2 38.1 79.7 37.5 80.7 37.5 C 81.8 37.5 82.3 38.1 82.3 39.2 C 82.3 39.2 82.3 41.2 82.3 41.2 C 82.3 41.3 82.3 41.4 82.5 41.4 C 82.45 41.4 82.8 41.4 82.8 41.4 L 82.8 42.2 C 82.8 42.2 81.96 42.15 82 42.2 C 81.6 42.2 81.4 42 81.4 41.6 C 81.4 41.6 81.4 39.4 81.4 39.4 C 81.4 38.8 81.3 38.3 80.5 38.3 C 79.8 38.3 79.3 38.7 79.1 39.4 C 79 39.6 79 39.8 79 40 C 79 40.02 79 42.2 79 42.2 L 78.1 42.2 C 78.1 42.2 78.13 38.54 78.1 38.5 Z M 85.8 37.5 C 87.1 37.5 88.2 38.5 88.2 39.9 C 88.2 41.3 87.1 42.3 85.8 42.3 C 84.4 42.3 83.3 41.3 83.3 39.9 C 83.3 38.5 84.4 37.5 85.8 37.5 Z M 85.8 41.5 C 86.6 41.5 87.3 40.8 87.3 39.9 C 87.3 38.9 86.6 38.2 85.8 38.2 C 84.9 38.2 84.2 38.9 84.2 39.9 C 84.2 40.8 84.9 41.5 85.8 41.5 Z M 89.3 38.5 C 89.3 38.4 89.2 38.3 89.1 38.3 C 89.12 38.34 88.8 38.3 88.8 38.3 L 88.8 37.6 C 88.8 37.6 89.59 37.6 89.6 37.6 C 90 37.6 90.2 37.8 90.2 38.1 C 90.2 38.1 90.2 38.3 90.2 38.3 C 90.16 38.42 90.2 38.5 90.2 38.5 C 90.2 38.5 90.17 38.53 90.2 38.5 C 90.4 38 91 37.5 91.7 37.5 C 92.5 37.5 92.9 37.8 93.1 38.5 C 93.1 38.5 93.1 38.5 93.1 38.5 C 93.4 38 94 37.5 94.7 37.5 C 95.8 37.5 96.2 38.1 96.2 39.2 C 96.2 39.2 96.2 41.2 96.2 41.2 C 96.2 41.3 96.3 41.4 96.4 41.4 C 96.44 41.4 96.8 41.4 96.8 41.4 L 96.8 42.2 C 96.8 42.2 95.94 42.15 95.9 42.2 C 95.5 42.2 95.4 42 95.4 41.6 C 95.4 41.6 95.4 39.4 95.4 39.4 C 95.4 38.8 95.2 38.3 94.6 38.3 C 93.9 38.3 93.4 38.8 93.3 39.5 C 93.2 39.6 93.2 39.8 93.2 40.1 C 93.21 40.07 93.2 42.2 93.2 42.2 L 92.3 42.2 C 92.3 42.2 92.34 39.42 92.3 39.4 C 92.3 38.8 92.3 38.3 91.6 38.3 C 90.9 38.3 90.4 38.8 90.3 39.5 C 90.2 39.7 90.2 39.9 90.2 40.1 C 90.19 40.07 90.2 42.2 90.2 42.2 L 89.3 42.2 C 89.3 42.2 89.32 38.54 89.3 38.5 Z " stroke="none" fill="#323232"/>  </g>  <g id="Polygon69555">    <path d="M 17.6 29.6 C 17.6 29.6 18.4 30.45 19.6 30.5 C 20.4 30.5 21.1 29.9 21.1 29 C 21.1 28.2 20.4 27.6 19.5 27.6 C 19.47 27.64 18.9 27.6 18.9 27.6 L 18.7 27.1 C 18.7 27.1 20.31 25.03 20.3 25 C 20.54 24.7 20.8 24.5 20.8 24.5 L 20.8 24.5 C 20.8 24.5 20.53 24.53 20.1 24.5 C 20.1 24.5 18.6 24.5 18.6 24.5 C 18.4 24.5 18.4 24.6 18.4 24.8 C 18.36 24.77 18.4 25.3 18.4 25.3 L 17.3 25.3 C 17.3 25.3 17.35 24.29 17.3 24.3 C 17.3 23.8 17.5 23.6 18 23.6 C 18.02 23.59 22.1 23.6 22.1 23.6 L 22.1 24.3 C 22.1 24.3 20.06 26.74 20.1 26.7 C 21.1 26.9 22.3 27.5 22.3 29 C 22.3 30.3 21.2 31.5 19.6 31.5 C 17.98 31.48 17 30.4 17 30.4 L 17.6 29.6 Z M 24.7 30.2 L 23.8 32.5 L 22.9 32.5 L 23.6 30.2 L 24.7 30.2 Z M 25.7 27.9 C 25.7 25.9 26.7 23.5 29.1 23.5 C 30.07 23.45 30.7 23.8 30.7 23.8 L 30.3 24.7 C 30.3 24.7 29.81 24.45 29.2 24.5 C 27.8 24.5 27 25.8 26.9 27.1 C 26.9 27.1 26.9 27.1 26.9 27.1 C 27.2 26.6 27.9 26.4 28.6 26.4 C 30.1 26.4 31.1 27.5 31.1 28.9 C 31.1 30.4 30 31.5 28.6 31.5 C 26.9 31.5 25.7 30.1 25.7 27.9 Z M 28.5 30.5 C 29.4 30.5 30 29.8 30 28.9 C 30 28 29.4 27.3 28.4 27.3 C 27.5 27.3 26.8 27.8 26.8 28.4 C 26.8 29.4 27.6 30.5 28.5 30.5 Z M 34.9 27.8 L 37.4 27.8 L 37.4 25.1 L 38.3 25.1 L 38.3 27.8 L 40.7 27.8 L 40.7 28.6 L 38.3 28.6 L 38.3 31.4 L 37.4 31.4 L 37.4 28.6 L 34.9 28.6 L 34.9 27.8 Z M 41.9 27.7 L 45.2 27.7 L 45.2 28.7 L 41.9 28.7 L 41.9 27.7 Z M 49.6 30.4 L 51.3 30.4 C 51.3 30.4 51.28 25.39 51.3 25.4 C 51.28 25.15 51.3 24.9 51.3 24.9 L 51.3 24.9 C 51.3 24.9 51.18 25.08 50.9 25.4 C 50.91 25.36 50.2 26.1 50.2 26.1 L 49.5 25.4 L 51.4 23.6 L 52.4 23.6 L 52.4 30.4 L 54.1 30.4 L 54.1 31.4 L 49.6 31.4 L 49.6 30.4 Z M 56.4 30.2 L 55.5 32.5 L 54.7 32.5 L 55.3 30.2 L 56.4 30.2 Z M 58.2 29.6 C 58.2 29.6 58.84 30.45 60 30.5 C 61 30.5 61.7 29.8 61.7 28.9 C 61.7 27.9 60.9 27.3 59.9 27.3 C 58.99 27.31 58.4 27.7 58.4 27.7 L 57.9 27.5 C 57.9 27.5 58.23 24.29 58.2 24.3 C 58.3 23.8 58.4 23.6 58.9 23.6 C 58.9 23.6 61.6 23.6 61.6 23.6 C 62.1 23.6 62.3 23.8 62.3 24.3 C 62.35 24.29 62.3 25.3 62.3 25.3 L 61.3 25.3 C 61.3 25.3 61.35 24.77 61.3 24.8 C 61.3 24.6 61.3 24.5 61.1 24.5 C 61.1 24.5 59.5 24.5 59.5 24.5 C 59.3 24.5 59.3 24.6 59.2 24.8 C 59.2 24.8 59.1 26.2 59.1 26.2 C 59.06 26.44 59 26.6 59 26.6 L 59 26.6 C 59 26.6 59.47 26.37 60 26.4 C 61.7 26.4 62.8 27.5 62.8 28.9 C 62.8 30.3 61.7 31.5 60 31.5 C 58.42 31.48 57.6 30.4 57.6 30.4 L 58.2 29.6 Z M 67.3 24.7 C 67.3 24.6 67.2 24.5 67.1 24.5 C 67.07 24.5 66.6 24.5 66.6 24.5 L 66.6 23.6 C 66.6 23.6 67.67 23.59 67.7 23.6 C 68.2 23.6 68.4 23.8 68.4 24.3 C 68.4 24.3 68.4 26.4 68.4 26.4 C 68.37 26.7 68.4 26.9 68.4 26.9 C 68.4 26.9 68.37 26.9 68.4 26.9 C 68.6 26.4 69.3 25.7 70.4 25.7 C 71.8 25.7 72.3 26.4 72.3 27.8 C 72.3 27.8 72.3 30.2 72.3 30.2 C 72.3 30.4 72.4 30.4 72.6 30.4 C 72.59 30.44 73 30.4 73 30.4 L 73 31.4 C 73 31.4 71.99 31.35 72 31.4 C 71.5 31.4 71.3 31.1 71.3 30.6 C 71.3 30.6 71.3 28 71.3 28 C 71.3 27.2 71.1 26.6 70.2 26.6 C 69.4 26.6 68.7 27.2 68.5 28 C 68.4 28.2 68.4 28.5 68.4 28.7 C 68.37 28.74 68.4 31.4 68.4 31.4 L 67.3 31.4 C 67.3 31.4 67.31 24.74 67.3 24.7 Z M 76.6 25.7 C 78.3 25.7 79.6 26.9 79.6 28.6 C 79.6 30.3 78.3 31.5 76.6 31.5 C 75 31.5 73.7 30.3 73.7 28.6 C 73.7 26.9 75 25.7 76.6 25.7 Z M 76.6 30.6 C 77.7 30.6 78.6 29.7 78.6 28.6 C 78.6 27.4 77.7 26.6 76.6 26.6 C 75.6 26.6 74.7 27.4 74.7 28.6 C 74.7 29.7 75.6 30.6 76.6 30.6 Z M 83 25.7 C 84.26 25.65 84.7 26.5 84.7 26.5 L 84.7 26.5 C 84.7 26.5 84.69 26.35 84.7 26.1 C 84.7 26.1 84.7 24.7 84.7 24.7 C 84.7 24.6 84.6 24.5 84.4 24.5 C 84.45 24.5 84 24.5 84 24.5 L 84 23.6 C 84 23.6 85.05 23.59 85.1 23.6 C 85.5 23.6 85.8 23.8 85.8 24.3 C 85.8 24.3 85.8 30.2 85.8 30.2 C 85.8 30.4 85.8 30.4 86 30.4 C 86 30.44 86.4 30.4 86.4 30.4 L 86.4 31.4 C 86.4 31.4 85.42 31.35 85.4 31.4 C 84.9 31.4 84.7 31.1 84.7 30.8 C 84.7 30.6 84.8 30.5 84.8 30.5 C 84.75 30.47 84.7 30.5 84.7 30.5 C 84.7 30.5 84.27 31.48 82.9 31.5 C 81.4 31.5 80.5 30.3 80.5 28.6 C 80.5 26.8 81.5 25.7 83 25.7 Z M 84.7 28.6 C 84.7 27.6 84.2 26.6 83.1 26.6 C 82.3 26.6 81.5 27.3 81.5 28.6 C 81.5 29.8 82.2 30.6 83.1 30.6 C 83.9 30.6 84.7 30 84.7 28.6 Z M 87.7 26.9 C 87.7 26.8 87.6 26.7 87.4 26.7 C 87.45 26.7 87 26.7 87 26.7 L 87 25.8 C 87 25.8 88.05 25.79 88.1 25.8 C 88.5 25.8 88.8 26 88.8 26.5 C 88.8 26.5 88.8 30.2 88.8 30.2 C 88.8 30.4 88.8 30.4 89 30.4 C 89 30.44 89.4 30.4 89.4 30.4 L 89.4 31.4 C 89.4 31.4 88.41 31.35 88.4 31.4 C 87.9 31.4 87.7 31.1 87.7 30.6 C 87.7 30.6 87.7 26.9 87.7 26.9 Z M 88.5 23.6 L 89.6 23.6 L 88.5 25 L 87.7 25 L 88.5 23.6 Z M 90.7 26.9 C 90.7 26.8 90.6 26.7 90.4 26.7 C 90.44 26.7 90 26.7 90 26.7 L 90 25.8 C 90 25.8 91.01 25.79 91 25.8 C 91.5 25.8 91.7 26 91.7 26.4 C 91.7 26.4 91.7 26.6 91.7 26.6 C 91.72 26.79 91.7 26.9 91.7 26.9 C 91.7 26.9 91.72 26.93 91.7 26.9 C 91.9 26.4 92.6 25.7 93.8 25.7 C 95.1 25.7 95.7 26.4 95.7 27.8 C 95.7 27.8 95.7 30.2 95.7 30.2 C 95.7 30.4 95.8 30.4 96 30.4 C 95.96 30.44 96.4 30.4 96.4 30.4 L 96.4 31.4 C 96.4 31.4 95.36 31.35 95.4 31.4 C 94.9 31.4 94.7 31.1 94.7 30.6 C 94.7 30.6 94.7 28 94.7 28 C 94.7 27.2 94.5 26.6 93.6 26.6 C 92.8 26.6 92.1 27.2 91.8 28 C 91.8 28.2 91.7 28.5 91.7 28.7 C 91.75 28.74 91.7 31.4 91.7 31.4 L 90.7 31.4 C 90.7 31.4 90.68 26.94 90.7 26.9 Z " stroke="none" fill="#323232"/>  </g></svg>