<?xml version="1.0" standalone="no"?><!DOCTYPE svg PUBLIC "-//W3C//DTD SVG 1.1//EN" "http://www.w3.org/Graphics/SVG/1.1/DTD/svg11.dtd"><svg xmlns="http://www.w3.org/2000/svg" version="1.1" width="113.4px" height="78.9px" viewBox="0 0 113.4 78.9">  <desc>13 27 hod n</desc>  <defs/>  <g id="Polygon69461">    <path d="M 23.7 41.2 L 25.4 41.2 C 25.4 41.2 25.44 36.19 25.4 36.2 C 25.44 35.95 25.4 35.7 25.4 35.7 L 25.4 35.7 C 25.4 35.7 25.34 35.88 25.1 36.2 C 25.06 36.16 24.3 36.9 24.3 36.9 L 23.7 36.2 L 25.5 34.4 L 26.5 34.4 L 26.5 41.2 L 28.2 41.2 L 28.2 42.2 L 23.7 42.2 L 23.7 41.2 Z M 29.4 40.4 C 29.4 40.4 30.18 41.25 31.4 41.3 C 32.2 41.3 32.9 40.7 32.9 39.8 C 32.9 39 32.1 38.4 31.2 38.4 C 31.24 38.44 30.7 38.4 30.7 38.4 L 30.5 37.9 C 30.5 37.9 32.08 35.83 32.1 35.8 C 32.31 35.5 32.5 35.3 32.5 35.3 L 32.5 35.3 C 32.5 35.3 32.3 35.33 31.9 35.3 C 31.9 35.3 30.4 35.3 30.4 35.3 C 30.2 35.3 30.1 35.4 30.1 35.6 C 30.13 35.57 30.1 36.1 30.1 36.1 L 29.1 36.1 C 29.1 36.1 29.12 35.09 29.1 35.1 C 29.1 34.6 29.3 34.4 29.8 34.4 C 29.79 34.39 33.9 34.4 33.9 34.4 L 33.9 35.1 C 33.9 35.1 31.84 37.54 31.8 37.5 C 32.9 37.7 34 38.3 34 39.8 C 34 41.1 33 42.3 31.4 42.3 C 29.76 42.28 28.8 41.2 28.8 41.2 L 29.4 40.4 Z M 38.2 38.5 L 41.4 38.5 L 41.4 39.5 L 38.2 39.5 L 38.2 38.5 Z M 49.5 36.5 C 49.5 35.8 49 35.3 48.1 35.3 C 47.4 35.3 46.9 35.6 46.9 36 C 46.94 36 46.9 36.3 46.9 36.3 L 45.9 36.3 C 45.9 36.3 45.93 35.68 45.9 35.7 C 45.9 34.7 47.3 34.3 48.2 34.3 C 49.6 34.3 50.6 35.2 50.6 36.5 C 50.6 39.2 46.7 39.2 46.7 41 C 46.7 41.2 46.8 41.2 47 41.2 C 47 41.2 49.7 41.2 49.7 41.2 C 49.9 41.2 50 41.1 50 41 C 49.97 40.96 50 40.5 50 40.5 L 51 40.5 C 51 40.5 50.98 41.45 51 41.4 C 51 41.9 50.8 42.2 50.3 42.2 C 50.3 42.2 46.3 42.2 46.3 42.2 C 45.7 42.2 45.6 41.9 45.6 41.3 C 45.6 38.4 49.5 38.6 49.5 36.5 Z M 55.4 36 C 55.64 35.59 55.9 35.3 55.9 35.3 L 55.9 35.3 C 55.9 35.3 55.67 35.33 55.3 35.3 C 55.3 35.3 52.9 35.3 52.9 35.3 C 52.8 35.3 52.7 35.4 52.7 35.6 C 52.7 35.57 52.7 36.1 52.7 36.1 L 51.7 36.1 C 51.7 36.1 51.69 35.09 51.7 35.1 C 51.7 34.6 51.9 34.4 52.4 34.4 C 52.36 34.39 57.1 34.4 57.1 34.4 L 57.1 35.1 L 53.3 42.2 L 52.1 42.2 C 52.1 42.2 55.4 36.03 55.4 36 Z M 61 35.5 C 61 35.4 60.9 35.3 60.8 35.3 C 60.79 35.3 60.3 35.3 60.3 35.3 L 60.3 34.4 C 60.3 34.4 61.4 34.39 61.4 34.4 C 61.9 34.4 62.1 34.6 62.1 35.1 C 62.1 35.1 62.1 37.2 62.1 37.2 C 62.1 37.5 62.1 37.7 62.1 37.7 C 62.1 37.7 62.1 37.7 62.1 37.7 C 62.3 37.2 63.1 36.5 64.2 36.5 C 65.5 36.5 66.1 37.2 66.1 38.6 C 66.1 38.6 66.1 41 66.1 41 C 66.1 41.2 66.2 41.2 66.3 41.2 C 66.31 41.24 66.8 41.2 66.8 41.2 L 66.8 42.2 C 66.8 42.2 65.72 42.15 65.7 42.2 C 65.2 42.2 65 41.9 65 41.4 C 65 41.4 65 38.8 65 38.8 C 65 38 64.9 37.4 64 37.4 C 63.1 37.4 62.4 38 62.2 38.8 C 62.1 39 62.1 39.3 62.1 39.5 C 62.1 39.54 62.1 42.2 62.1 42.2 L 61 42.2 C 61 42.2 61.03 35.54 61 35.5 Z M 70.4 36.5 C 72 36.5 73.4 37.7 73.4 39.4 C 73.4 41.1 72 42.3 70.4 42.3 C 68.7 42.3 67.4 41.1 67.4 39.4 C 67.4 37.7 68.7 36.5 70.4 36.5 Z M 70.4 41.4 C 71.4 41.4 72.3 40.5 72.3 39.4 C 72.3 38.2 71.4 37.4 70.4 37.4 C 69.3 37.4 68.5 38.2 68.5 39.4 C 68.5 40.5 69.3 41.4 70.4 41.4 Z M 76.7 36.5 C 77.98 36.45 78.4 37.3 78.4 37.3 L 78.4 37.3 C 78.4 37.3 78.41 37.15 78.4 36.9 C 78.4 36.9 78.4 35.5 78.4 35.5 C 78.4 35.4 78.3 35.3 78.2 35.3 C 78.17 35.3 77.7 35.3 77.7 35.3 L 77.7 34.4 C 77.7 34.4 78.78 34.39 78.8 34.4 C 79.3 34.4 79.5 34.6 79.5 35.1 C 79.5 35.1 79.5 41 79.5 41 C 79.5 41.2 79.6 41.2 79.7 41.2 C 79.72 41.24 80.2 41.2 80.2 41.2 L 80.2 42.2 C 80.2 42.2 79.15 42.15 79.1 42.2 C 78.7 42.2 78.5 41.9 78.5 41.6 C 78.5 41.4 78.5 41.3 78.5 41.3 C 78.48 41.27 78.5 41.3 78.5 41.3 C 78.5 41.3 77.99 42.28 76.6 42.3 C 75.1 42.3 74.2 41.1 74.2 39.4 C 74.2 37.6 75.2 36.5 76.7 36.5 Z M 78.4 39.4 C 78.4 38.4 77.9 37.4 76.9 37.4 C 76 37.4 75.3 38.1 75.3 39.4 C 75.3 40.6 75.9 41.4 76.8 41.4 C 77.7 41.4 78.4 40.8 78.4 39.4 Z M 81.4 37.7 C 81.4 37.6 81.3 37.5 81.2 37.5 C 81.17 37.5 80.7 37.5 80.7 37.5 L 80.7 36.6 C 80.7 36.6 81.78 36.59 81.8 36.6 C 82.3 36.6 82.5 36.8 82.5 37.3 C 82.5 37.3 82.5 41 82.5 41 C 82.5 41.2 82.6 41.2 82.7 41.2 C 82.72 41.24 83.2 41.2 83.2 41.2 L 83.2 42.2 C 83.2 42.2 82.13 42.15 82.1 42.2 C 81.6 42.2 81.4 41.9 81.4 41.4 C 81.4 41.4 81.4 37.7 81.4 37.7 Z M 82.2 34.4 L 83.3 34.4 L 82.3 35.8 L 81.4 35.8 L 82.2 34.4 Z M 84.4 37.7 C 84.4 37.6 84.3 37.5 84.2 37.5 C 84.17 37.5 83.7 37.5 83.7 37.5 L 83.7 36.6 C 83.7 36.6 84.74 36.59 84.7 36.6 C 85.2 36.6 85.4 36.8 85.4 37.2 C 85.4 37.2 85.4 37.4 85.4 37.4 C 85.44 37.59 85.4 37.7 85.4 37.7 C 85.4 37.7 85.44 37.73 85.4 37.7 C 85.7 37.2 86.3 36.5 87.5 36.5 C 88.9 36.5 89.4 37.2 89.4 38.6 C 89.4 38.6 89.4 41 89.4 41 C 89.4 41.2 89.5 41.2 89.7 41.2 C 89.69 41.24 90.1 41.2 90.1 41.2 L 90.1 42.2 C 90.1 42.2 89.08 42.15 89.1 42.2 C 88.6 42.2 88.4 41.9 88.4 41.4 C 88.4 41.4 88.4 38.8 88.4 38.8 C 88.4 38 88.2 37.4 87.3 37.4 C 86.5 37.4 85.8 38 85.6 38.8 C 85.5 39 85.5 39.3 85.5 39.5 C 85.47 39.54 85.5 42.2 85.5 42.2 L 84.4 42.2 C 84.4 42.2 84.41 37.74 84.4 37.7 Z " stroke="none" fill="#323232"/>  </g></svg>