<?xml version="1.0" standalone="no"?><!DOCTYPE svg PUBLIC "-//W3C//DTD SVG 1.1//EN" "http://www.w3.org/Graphics/SVG/1.1/DTD/svg11.dtd"><svg xmlns="http://www.w3.org/2000/svg" version="1.1" width="135.2px" height="81.8px" viewBox="0 0 135.2 81.8">  <desc>3 zlyhania met dy</desc>  <defs/>  <g id="Polygon81057">    <path d="M 42.4 47.1 C 42.4 46.9 42.2 46.7 42 46.7 C 42.03 46.73 41.4 46.7 41.4 46.7 L 41.4 45.8 C 41.4 45.8 42.45 45.85 42.4 45.8 C 43.1 45.8 43.4 46.1 43.4 46.7 C 43.4 46.7 43.4 47 43.4 47 C 43.36 47.33 43.3 47.6 43.3 47.6 C 43.3 47.6 43.36 47.57 43.4 47.6 C 43.7 46.6 44.9 45.7 46.1 45.7 C 47.5 45.7 48.2 46.3 48.4 47.6 C 48.4 47.6 48.5 47.6 48.5 47.6 C 48.9 46.5 50 45.7 51.2 45.7 C 53.1 45.7 53.7 46.7 53.7 48.6 C 53.7 48.6 53.7 52.2 53.7 52.2 C 53.7 52.4 53.9 52.5 54.1 52.5 C 54.07 52.51 54.7 52.5 54.7 52.5 L 54.7 53.4 C 54.7 53.4 53.63 53.39 53.6 53.4 C 53 53.4 52.7 53.1 52.7 52.5 C 52.7 52.5 52.7 48.8 52.7 48.8 C 52.7 47.6 52.5 46.6 51.1 46.6 C 49.9 46.6 49 47.6 48.7 48.7 C 48.6 49.1 48.6 49.4 48.6 49.8 C 48.56 49.82 48.6 53.4 48.6 53.4 L 47.5 53.4 C 47.5 53.4 47.55 48.85 47.5 48.8 C 47.5 47.7 47.4 46.6 46 46.6 C 44.7 46.6 43.8 47.7 43.5 48.8 C 43.4 49.1 43.4 49.5 43.4 49.8 C 43.37 49.82 43.4 53.4 43.4 53.4 L 42.4 53.4 C 42.4 53.4 42.36 47.06 42.4 47.1 Z M 59.3 45.7 C 61.4 45.7 62.5 47.3 62.5 49.1 C 62.5 49.33 62.5 49.7 62.5 49.7 C 62.5 49.7 56.68 49.66 56.7 49.7 C 56.7 51.6 58 52.7 59.6 52.7 C 60.99 52.66 61.9 51.7 61.9 51.7 L 62.4 52.5 C 62.4 52.5 61.27 53.57 59.6 53.6 C 57.3 53.6 55.6 52 55.6 49.6 C 55.6 47.2 57.3 45.7 59.3 45.7 Z M 61.5 48.8 C 61.4 47.3 60.4 46.5 59.3 46.5 C 58.1 46.5 57 47.3 56.7 48.8 C 56.7 48.8 61.5 48.8 61.5 48.8 Z M 64.6 46.7 L 63.6 46.7 L 63.6 45.8 L 64.6 45.8 L 64.6 43.8 L 65.6 43.8 L 65.6 45.8 L 67.5 45.8 L 67.5 46.7 L 65.6 46.7 C 65.6 46.7 65.65 50.54 65.6 50.5 C 65.6 52.3 66.8 52.5 67.3 52.5 C 67.55 52.54 67.7 52.5 67.7 52.5 L 67.7 53.4 C 67.7 53.4 67.51 53.45 67.3 53.5 C 66.4 53.5 64.6 53.2 64.6 50.6 C 64.63 50.65 64.6 46.7 64.6 46.7 Z M 72.7 45.7 C 74.9 45.7 76.7 47.3 76.7 49.6 C 76.7 51.9 74.9 53.6 72.7 53.6 C 70.5 53.6 68.7 51.9 68.7 49.6 C 68.7 47.3 70.5 45.7 72.7 45.7 Z M 72.7 52.7 C 74.3 52.7 75.6 51.3 75.6 49.6 C 75.6 47.9 74.3 46.6 72.7 46.6 C 71.1 46.6 69.8 47.9 69.8 49.6 C 69.8 51.3 71.1 52.7 72.7 52.7 Z M 73.3 42.8 L 74.4 42.8 L 73.1 44.6 L 72.3 44.6 L 73.3 42.8 Z M 81.3 45.7 C 83.12 45.67 83.8 47.1 83.8 47.1 L 83.8 47.1 C 83.8 47.1 83.76 46.82 83.8 46.5 C 83.8 46.5 83.8 44.1 83.8 44.1 C 83.8 43.9 83.6 43.7 83.4 43.7 C 83.42 43.73 82.8 43.7 82.8 43.7 L 82.8 42.8 C 82.8 42.8 83.86 42.85 83.9 42.8 C 84.5 42.8 84.8 43.1 84.8 43.8 C 84.8 43.8 84.8 52.2 84.8 52.2 C 84.8 52.4 84.9 52.5 85.1 52.5 C 85.1 52.51 85.7 52.5 85.7 52.5 L 85.7 53.4 C 85.7 53.4 84.68 53.39 84.7 53.4 C 84.1 53.4 83.8 53.1 83.8 52.6 C 83.8 52.3 83.8 52.1 83.8 52.1 C 83.81 52.07 83.8 52.1 83.8 52.1 C 83.8 52.1 83.17 53.57 81.2 53.6 C 79.2 53.6 77.9 52 77.9 49.6 C 77.9 47.2 79.3 45.7 81.3 45.7 Z M 83.8 49.6 C 83.8 48.1 83 46.6 81.4 46.6 C 80 46.6 79 47.7 79 49.6 C 79 51.5 79.9 52.7 81.3 52.7 C 82.6 52.7 83.8 51.8 83.8 49.6 Z M 87.8 55.6 C 88.5 55.6 88.9 55.1 89.2 54.4 C 89.21 54.4 89.7 53.4 89.7 53.4 C 89.7 53.4 87.01 47.08 87 47.1 C 86.9 46.8 86.8 46.7 86.5 46.7 C 86.48 46.73 86.3 46.7 86.3 46.7 L 86.3 45.8 C 86.3 45.8 86.8 45.85 86.8 45.8 C 87.5 45.8 87.7 46 88 46.7 C 88 46.7 89.9 51.4 89.9 51.4 C 90.04 51.76 90.2 52.2 90.2 52.2 L 90.2 52.2 C 90.2 52.2 90.29 51.76 90.4 51.4 C 90.4 51.4 92.3 46.7 92.3 46.7 C 92.6 46 92.8 45.8 93.5 45.8 C 93.47 45.85 93.9 45.8 93.9 45.8 L 93.9 46.7 C 93.9 46.7 93.79 46.73 93.8 46.7 C 93.5 46.7 93.4 46.8 93.3 47.1 C 93.3 47.1 90 55 90 55 C 89.6 55.9 88.9 56.5 87.8 56.5 C 86.8 56.54 86.2 55.8 86.2 55.8 C 86.2 55.8 86.69 55.06 86.7 55.1 C 86.7 55.1 87.2 55.6 87.8 55.6 Z " stroke="none" fill="#000"/>  </g>  <g id="Polygon81056">    <path d="M 34.1 33.3 C 34.1 33.3 35.18 34.58 36.9 34.6 C 38.1 34.6 39.2 33.7 39.2 32.3 C 39.2 30.9 38 30.1 36.7 30.1 C 36.68 30.08 35.9 30.1 35.9 30.1 L 35.7 29.5 C 35.7 29.5 38.3 26.35 38.3 26.3 C 38.55 26 38.8 25.8 38.8 25.8 L 38.8 25.7 C 38.8 25.7 38.54 25.78 38 25.8 C 38 25.8 35.2 25.8 35.2 25.8 C 35 25.8 34.9 25.9 34.9 26.1 C 34.91 26.11 34.9 26.8 34.9 26.8 L 33.9 26.8 C 33.9 26.8 33.93 25.76 33.9 25.8 C 33.9 25.1 34.2 24.8 34.8 24.8 C 34.82 24.85 40.2 24.8 40.2 24.8 L 40.2 25.5 C 40.2 25.5 37.07 29.18 37.1 29.2 C 38.4 29.3 40.3 30 40.3 32.3 C 40.3 34.1 38.8 35.6 36.8 35.6 C 34.76 35.57 33.5 34.1 33.5 34.1 L 34.1 33.3 Z M 45.7 34.7 C 45.7 34.7 49.91 29.44 49.9 29.4 C 50.19 29.08 50.5 28.7 50.5 28.7 L 50.5 28.7 C 50.5 28.7 50.25 28.75 49.8 28.7 C 49.8 28.7 47 28.7 47 28.7 C 46.8 28.7 46.7 28.9 46.7 29.1 C 46.67 29.08 46.7 29.7 46.7 29.7 L 45.7 29.7 C 45.7 29.7 45.71 28.76 45.7 28.8 C 45.7 28.1 46 27.8 46.6 27.8 C 46.62 27.85 51.9 27.8 51.9 27.8 L 51.9 28.5 C 51.9 28.5 47.63 33.8 47.6 33.8 C 47.33 34.16 47 34.5 47 34.5 L 47 34.5 C 47 34.5 47.27 34.49 47.8 34.5 C 47.8 34.5 50.9 34.5 50.9 34.5 C 51.1 34.5 51.2 34.4 51.2 34.2 C 51.21 34.16 51.2 33.6 51.2 33.6 L 52.2 33.6 C 52.2 33.6 52.17 34.48 52.2 34.5 C 52.2 35.1 51.9 35.4 51.3 35.4 C 51.26 35.39 45.7 35.4 45.7 35.4 L 45.7 34.7 Z M 53.9 26.1 C 53.9 25.9 53.7 25.7 53.5 25.7 C 53.52 25.73 52.9 25.7 52.9 25.7 L 52.9 24.8 C 52.9 24.8 53.96 24.85 54 24.8 C 54.6 24.8 54.9 25.1 54.9 25.8 C 54.9 25.8 54.9 34.2 54.9 34.2 C 54.9 34.4 55 34.5 55.2 34.5 C 55.2 34.51 55.8 34.5 55.8 34.5 L 55.8 35.4 C 55.8 35.4 54.77 35.39 54.8 35.4 C 54.1 35.4 53.9 35.1 53.9 34.5 C 53.9 34.5 53.9 26.1 53.9 26.1 Z M 58 37.6 C 58.6 37.6 59.1 37.1 59.4 36.4 C 59.36 36.4 59.8 35.4 59.8 35.4 C 59.8 35.4 57.15 29.08 57.2 29.1 C 57 28.8 56.9 28.7 56.6 28.7 C 56.63 28.73 56.5 28.7 56.5 28.7 L 56.5 27.8 C 56.5 27.8 56.94 27.85 56.9 27.8 C 57.6 27.8 57.8 28 58.1 28.7 C 58.1 28.7 60 33.4 60 33.4 C 60.18 33.76 60.3 34.2 60.3 34.2 L 60.3 34.2 C 60.3 34.2 60.44 33.76 60.6 33.4 C 60.6 33.4 62.4 28.7 62.4 28.7 C 62.7 28 62.9 27.8 63.6 27.8 C 63.62 27.85 64.1 27.8 64.1 27.8 L 64.1 28.7 C 64.1 28.7 63.93 28.73 63.9 28.7 C 63.7 28.7 63.5 28.8 63.4 29.1 C 63.4 29.1 60.2 37 60.2 37 C 59.8 37.9 59 38.5 58 38.5 C 56.94 38.54 56.4 37.8 56.4 37.8 C 56.4 37.8 56.84 37.06 56.8 37.1 C 56.8 37.1 57.3 37.6 58 37.6 Z M 65.6 26.1 C 65.6 25.9 65.5 25.7 65.3 25.7 C 65.25 25.73 64.6 25.7 64.6 25.7 L 64.6 24.8 C 64.6 24.8 65.69 24.85 65.7 24.8 C 66.3 24.8 66.6 25.1 66.6 25.7 C 66.6 25.7 66.6 28.9 66.6 28.9 C 66.6 29.27 66.6 29.5 66.6 29.5 C 66.6 29.5 66.6 29.54 66.6 29.5 C 66.9 28.8 67.9 27.7 69.6 27.7 C 71.5 27.7 72.1 28.7 72.1 30.6 C 72.1 30.6 72.1 34.2 72.1 34.2 C 72.1 34.4 72.2 34.5 72.5 34.5 C 72.45 34.51 73.1 34.5 73.1 34.5 L 73.1 35.4 C 73.1 35.4 72.02 35.39 72 35.4 C 71.4 35.4 71.1 35.1 71.1 34.5 C 71.1 34.5 71.1 30.9 71.1 30.9 C 71.1 29.7 70.9 28.6 69.5 28.6 C 68.2 28.6 67.1 29.5 66.7 30.8 C 66.6 31.1 66.6 31.4 66.6 31.8 C 66.6 31.78 66.6 35.4 66.6 35.4 L 65.6 35.4 C 65.6 35.4 65.58 26.06 65.6 26.1 Z M 78.6 30.7 C 78.62 30.74 79 30.7 79 30.7 C 79 30.7 79.04 30.65 79 30.7 C 79 29.1 78.5 28.5 77.1 28.5 C 76.7 28.5 75.6 28.6 75.6 29.2 C 75.62 29.18 75.6 29.7 75.6 29.7 L 74.6 29.7 C 74.6 29.7 74.64 28.94 74.6 28.9 C 74.6 27.9 76.4 27.7 77.1 27.7 C 79.5 27.7 80.1 28.9 80.1 30.6 C 80.1 30.6 80.1 34.2 80.1 34.2 C 80.1 34.4 80.2 34.5 80.4 34.5 C 80.39 34.51 81 34.5 81 34.5 L 81 35.4 C 81 35.4 79.98 35.39 80 35.4 C 79.3 35.4 79.1 35.1 79.1 34.5 C 79.1 34.2 79.1 33.9 79.1 33.9 C 79.1 33.9 79.1 33.9 79.1 33.9 C 79.1 33.9 78.5 35.6 76.6 35.6 C 75.3 35.6 74 34.8 74 33.3 C 74 30.8 77.3 30.7 78.6 30.7 Z M 76.7 34.7 C 78.2 34.7 79 33.2 79 31.9 C 79.04 31.9 79 31.6 79 31.6 C 79 31.6 78.6 31.55 78.6 31.6 C 77.4 31.6 75 31.6 75 33.3 C 75 34 75.6 34.7 76.7 34.7 Z M 82.6 29.1 C 82.6 28.9 82.5 28.7 82.3 28.7 C 82.31 28.73 81.7 28.7 81.7 28.7 L 81.7 27.8 C 81.7 27.8 82.73 27.85 82.7 27.8 C 83.4 27.8 83.6 28.1 83.6 28.7 C 83.6 28.7 83.6 29 83.6 29 C 83.64 29.33 83.6 29.6 83.6 29.6 C 83.6 29.6 83.64 29.57 83.6 29.6 C 83.9 28.9 84.9 27.7 86.6 27.7 C 88.5 27.7 89.2 28.7 89.2 30.6 C 89.2 30.6 89.2 34.2 89.2 34.2 C 89.2 34.4 89.3 34.5 89.5 34.5 C 89.51 34.51 90.1 34.5 90.1 34.5 L 90.1 35.4 C 90.1 35.4 89.07 35.39 89.1 35.4 C 88.4 35.4 88.2 35.1 88.2 34.5 C 88.2 34.5 88.2 30.9 88.2 30.9 C 88.2 29.7 88 28.6 86.5 28.6 C 85.2 28.6 84.1 29.5 83.8 30.8 C 83.7 31.1 83.7 31.4 83.7 31.8 C 83.66 31.78 83.7 35.4 83.7 35.4 L 82.6 35.4 C 82.6 35.4 82.64 29.06 82.6 29.1 Z M 91.8 24.8 L 92.8 24.8 L 92.8 26.1 L 91.8 26.1 L 91.8 24.8 Z M 91.8 29.1 C 91.8 28.9 91.7 28.7 91.5 28.7 C 91.5 28.73 90.9 28.7 90.9 28.7 L 90.9 27.8 C 90.9 27.8 91.94 27.85 91.9 27.8 C 92.6 27.8 92.9 28.1 92.9 28.8 C 92.9 28.8 92.9 34.2 92.9 34.2 C 92.9 34.4 93 34.5 93.2 34.5 C 93.18 34.51 93.8 34.5 93.8 34.5 L 93.8 35.4 C 93.8 35.4 92.75 35.39 92.7 35.4 C 92.1 35.4 91.8 35.1 91.8 34.5 C 91.8 34.5 91.8 29.1 91.8 29.1 Z M 99.4 30.7 C 99.44 30.74 99.9 30.7 99.9 30.7 C 99.9 30.7 99.86 30.65 99.9 30.7 C 99.9 29.1 99.3 28.5 97.9 28.5 C 97.5 28.5 96.4 28.6 96.4 29.2 C 96.44 29.18 96.4 29.7 96.4 29.7 L 95.5 29.7 C 95.5 29.7 95.46 28.94 95.5 28.9 C 95.5 27.9 97.3 27.7 97.9 27.7 C 100.3 27.7 100.9 28.9 100.9 30.6 C 100.9 30.6 100.9 34.2 100.9 34.2 C 100.9 34.4 101 34.5 101.2 34.5 C 101.21 34.51 101.8 34.5 101.8 34.5 L 101.8 35.4 C 101.8 35.4 100.8 35.39 100.8 35.4 C 100.2 35.4 99.9 35.1 99.9 34.5 C 99.9 34.2 99.9 33.9 99.9 33.9 C 99.9 33.9 99.9 33.9 99.9 33.9 C 99.9 33.9 99.3 35.6 97.4 35.6 C 96.1 35.6 94.8 34.8 94.8 33.3 C 94.8 30.8 98.1 30.7 99.4 30.7 Z M 97.5 34.7 C 99 34.7 99.9 33.2 99.9 31.9 C 99.86 31.9 99.9 31.6 99.9 31.6 C 99.9 31.6 99.42 31.55 99.4 31.6 C 98.2 31.6 95.9 31.6 95.9 33.3 C 95.9 34 96.4 34.7 97.5 34.7 Z " stroke="none" fill="#000"/>  </g></svg>