<?xml version="1.0" standalone="no"?><!DOCTYPE svg PUBLIC "-//W3C//DTD SVG 1.1//EN" "http://www.w3.org/Graphics/SVG/1.1/DTD/svg11.dtd"><svg xmlns="http://www.w3.org/2000/svg" version="1.1" width="216.4px" height="84.2px" viewBox="0 0 216.4 84.2">  <desc>Pearlov index zlyhania met dy a pou vate ky 0,44</desc>  <defs/>  <g id="Polygon80910">    <path d="M 15 48.5 C 15 48.3 14.9 48.1 14.6 48.1 C 14.64 48.15 14 48.1 14 48.1 L 14 47.3 C 14 47.3 15.06 47.27 15.1 47.3 C 15.7 47.3 16 47.5 16 48.1 C 16 48.1 16 48.4 16 48.4 C 15.97 48.75 15.9 49 15.9 49 C 15.9 49 15.97 48.99 16 49 C 16.3 48 17.5 47.1 18.7 47.1 C 20.1 47.1 20.8 47.7 21 49 C 21 49 21.1 49 21.1 49 C 21.5 48 22.6 47.1 23.9 47.1 C 25.7 47.1 26.4 48.1 26.4 50 C 26.4 50 26.4 53.6 26.4 53.6 C 26.4 53.8 26.5 53.9 26.7 53.9 C 26.68 53.93 27.3 53.9 27.3 53.9 L 27.3 54.8 C 27.3 54.8 26.25 54.81 26.2 54.8 C 25.6 54.8 25.3 54.5 25.3 53.9 C 25.3 53.9 25.3 50.3 25.3 50.3 C 25.3 49 25.1 48 23.7 48 C 22.6 48 21.6 49 21.3 50.1 C 21.2 50.5 21.2 50.8 21.2 51.2 C 21.18 51.24 21.2 54.8 21.2 54.8 L 20.2 54.8 C 20.2 54.8 20.16 50.26 20.2 50.3 C 20.2 49.1 20 48 18.6 48 C 17.3 48 16.4 49.1 16.1 50.2 C 16 50.5 16 50.9 16 51.2 C 15.99 51.24 16 54.8 16 54.8 L 15 54.8 C 15 54.8 14.97 48.48 15 48.5 Z M 32 47.1 C 34 47.1 35.1 48.7 35.1 50.6 C 35.11 50.74 35.1 51.1 35.1 51.1 C 35.1 51.1 29.29 51.07 29.3 51.1 C 29.3 53 30.7 54.1 32.2 54.1 C 33.6 54.08 34.5 53.1 34.5 53.1 L 35 53.9 C 35 53.9 33.89 54.99 32.2 55 C 29.9 55 28.2 53.4 28.2 51 C 28.2 48.6 29.9 47.1 32 47.1 Z M 34.1 50.3 C 34 48.7 33 47.9 31.9 47.9 C 30.7 47.9 29.6 48.7 29.3 50.3 C 29.3 50.3 34.1 50.3 34.1 50.3 Z M 37.2 48.1 L 36.3 48.1 L 36.3 47.3 L 37.3 47.3 L 37.3 45.2 L 38.3 45.2 L 38.3 47.3 L 40.2 47.3 L 40.2 48.1 L 38.3 48.1 C 38.3 48.1 38.26 51.96 38.3 52 C 38.3 53.7 39.4 54 40 54 C 40.17 53.96 40.3 53.9 40.3 53.9 L 40.3 54.8 C 40.3 54.8 40.12 54.87 39.9 54.9 C 39 54.9 37.2 54.6 37.2 52.1 C 37.25 52.07 37.2 48.1 37.2 48.1 Z M 45.3 47.1 C 47.5 47.1 49.3 48.8 49.3 51 C 49.3 53.3 47.5 55 45.3 55 C 43.1 55 41.3 53.3 41.3 51 C 41.3 48.8 43.1 47.1 45.3 47.1 Z M 45.3 54.1 C 46.9 54.1 48.2 52.8 48.2 51 C 48.2 49.3 46.9 48 45.3 48 C 43.7 48 42.4 49.3 42.4 51 C 42.4 52.8 43.7 54.1 45.3 54.1 Z M 45.9 44.3 L 47.1 44.3 L 45.8 46 L 44.9 46 L 45.9 44.3 Z M 53.9 47.1 C 55.74 47.09 56.4 48.5 56.4 48.5 L 56.4 48.5 C 56.4 48.5 56.37 48.24 56.4 47.9 C 56.4 47.9 56.4 45.5 56.4 45.5 C 56.4 45.3 56.3 45.1 56 45.1 C 56.04 45.15 55.4 45.1 55.4 45.1 L 55.4 44.3 C 55.4 44.3 56.48 44.27 56.5 44.3 C 57.1 44.3 57.4 44.5 57.4 45.2 C 57.4 45.2 57.4 53.6 57.4 53.6 C 57.4 53.8 57.5 53.9 57.7 53.9 C 57.72 53.93 58.3 53.9 58.3 53.9 L 58.3 54.8 C 58.3 54.8 57.3 54.81 57.3 54.8 C 56.7 54.8 56.4 54.5 56.4 54 C 56.4 53.7 56.4 53.5 56.4 53.5 C 56.43 53.49 56.4 53.5 56.4 53.5 C 56.4 53.5 55.79 54.99 53.8 55 C 51.8 55 50.5 53.4 50.5 51 C 50.5 48.6 51.9 47.1 53.9 47.1 Z M 56.4 51 C 56.4 49.5 55.6 48 54 48 C 52.7 48 51.6 49.1 51.6 51 C 51.6 52.9 52.5 54.1 54 54.1 C 55.2 54.1 56.4 53.2 56.4 51 Z M 60.4 57 C 61.1 57 61.5 56.5 61.8 55.8 C 61.83 55.82 62.3 54.8 62.3 54.8 C 62.3 54.8 59.63 48.49 59.6 48.5 C 59.5 48.2 59.4 48.1 59.1 48.1 C 59.1 48.15 59 48.1 59 48.1 L 59 47.3 C 59 47.3 59.42 47.27 59.4 47.3 C 60.1 47.3 60.3 47.4 60.6 48.1 C 60.6 48.1 62.5 52.8 62.5 52.8 C 62.65 53.18 62.8 53.6 62.8 53.6 L 62.8 53.6 C 62.8 53.6 62.91 53.18 63.1 52.8 C 63.1 52.8 64.9 48.1 64.9 48.1 C 65.2 47.4 65.4 47.3 66.1 47.3 C 66.09 47.27 66.6 47.3 66.6 47.3 L 66.6 48.1 C 66.6 48.1 66.4 48.15 66.4 48.1 C 66.1 48.1 66 48.2 65.9 48.5 C 65.9 48.5 62.6 56.4 62.6 56.4 C 62.2 57.3 61.5 58 60.5 58 C 59.42 57.96 58.8 57.2 58.8 57.2 C 58.8 57.2 59.31 56.48 59.3 56.5 C 59.3 56.5 59.8 57 60.4 57 Z M 76.1 50.2 C 76.1 50.16 76.5 50.2 76.5 50.2 C 76.5 50.2 76.52 50.07 76.5 50.1 C 76.5 48.5 75.9 47.9 74.6 47.9 C 74.2 47.9 73.1 48 73.1 48.6 C 73.09 48.6 73.1 49.1 73.1 49.1 L 72.1 49.1 C 72.1 49.1 72.12 48.36 72.1 48.4 C 72.1 47.3 73.9 47.1 74.6 47.1 C 77 47.1 77.5 48.4 77.5 50 C 77.5 50 77.5 53.6 77.5 53.6 C 77.5 53.8 77.7 53.9 77.9 53.9 C 77.86 53.93 78.5 53.9 78.5 53.9 L 78.5 54.8 C 78.5 54.8 77.46 54.81 77.5 54.8 C 76.8 54.8 76.6 54.5 76.6 53.9 C 76.6 53.6 76.6 53.4 76.6 53.4 C 76.6 53.4 76.5 53.4 76.5 53.4 C 76.6 53.4 75.9 55 74 55 C 72.8 55 71.5 54.3 71.5 52.8 C 71.5 50.3 74.8 50.2 76.1 50.2 Z M 74.2 54.1 C 75.6 54.1 76.5 52.6 76.5 51.3 C 76.52 51.31 76.5 51 76.5 51 C 76.5 51 76.08 50.97 76.1 51 C 74.9 51 72.5 51 72.5 52.7 C 72.5 53.4 73.1 54.1 74.2 54.1 Z M 84.2 48.5 C 84.2 48.3 84.1 48.1 83.9 48.1 C 83.87 48.15 83.2 48.1 83.2 48.1 L 83.2 47.3 C 83.2 47.3 84.27 47.27 84.3 47.3 C 84.9 47.3 85.2 47.5 85.2 48.1 C 85.2 48.4 85.2 48.6 85.2 48.6 C 85.15 48.57 85.2 48.6 85.2 48.6 C 85.2 48.6 85.78 47.09 87.8 47.1 C 89.8 47.1 91.1 48.7 91.1 51 C 91.1 53.4 89.6 55 87.7 55 C 85.84 54.99 85.2 53.6 85.2 53.6 L 85.2 53.6 C 85.2 53.6 85.21 53.84 85.2 54.2 C 85.21 54.23 85.2 57.8 85.2 57.8 L 84.2 57.8 C 84.2 57.8 84.2 48.48 84.2 48.5 Z M 87.6 54.1 C 88.9 54.1 90 53 90 51 C 90 49.2 89 48 87.6 48 C 86.4 48 85.2 48.9 85.2 51.1 C 85.2 52.6 86 54.1 87.6 54.1 Z M 96.3 47.1 C 98.5 47.1 100.3 48.8 100.3 51 C 100.3 53.3 98.5 55 96.3 55 C 94.1 55 92.3 53.3 92.3 51 C 92.3 48.8 94.1 47.1 96.3 47.1 Z M 96.3 54.1 C 97.9 54.1 99.2 52.8 99.2 51 C 99.2 49.3 97.9 48 96.3 48 C 94.7 48 93.3 49.3 93.3 51 C 93.3 52.8 94.7 54.1 96.3 54.1 Z M 102.1 48.5 C 102.1 48.3 102 48.1 101.8 48.1 C 101.8 48.15 101.2 48.1 101.2 48.1 L 101.2 47.3 C 101.2 47.3 102.24 47.27 102.2 47.3 C 102.9 47.3 103.2 47.5 103.2 48.1 C 103.2 48.1 103.2 51.8 103.2 51.8 C 103.2 53 103.3 54 104.8 54 C 106.5 54 107.6 52.5 107.6 50.9 C 107.58 50.88 107.6 47.3 107.6 47.3 L 108.6 47.3 C 108.6 47.3 108.6 53.6 108.6 53.6 C 108.6 53.8 108.7 53.9 108.9 53.9 C 108.93 53.93 109.6 53.9 109.6 53.9 L 109.6 54.8 C 109.6 54.8 108.52 54.81 108.5 54.8 C 107.9 54.8 107.6 54.5 107.6 54 C 107.6 54 107.6 53.6 107.6 53.6 C 107.6 53.3 107.6 53.1 107.6 53.1 C 107.6 53.1 107.6 53.1 107.6 53.1 C 107.3 53.8 106.3 55 104.7 55 C 102.9 55 102.1 54 102.1 52.1 C 102.1 52.1 102.1 48.5 102.1 48.5 Z M 110.5 54.2 C 110.5 54.2 114.73 48.85 114.7 48.9 C 115.02 48.49 115.3 48.2 115.3 48.2 L 115.3 48.1 C 115.3 48.1 115.08 48.16 114.6 48.2 C 114.6 48.2 111.8 48.2 111.8 48.2 C 111.6 48.2 111.5 48.3 111.5 48.5 C 111.49 48.49 111.5 49.1 111.5 49.1 L 110.5 49.1 C 110.5 49.1 110.53 48.18 110.5 48.2 C 110.5 47.5 110.8 47.3 111.4 47.3 C 111.45 47.27 116.7 47.3 116.7 47.3 L 116.7 47.9 C 116.7 47.9 112.45 53.22 112.5 53.2 C 112.15 53.58 111.8 53.9 111.8 53.9 L 111.8 53.9 C 111.8 53.9 112.09 53.91 112.6 53.9 C 112.6 53.9 115.7 53.9 115.7 53.9 C 115.9 53.9 116 53.8 116 53.6 C 116.04 53.58 116 53 116 53 L 117 53 C 117 53 117 53.9 117 53.9 C 117 54.5 116.7 54.8 116.1 54.8 C 116.08 54.81 110.5 54.8 110.5 54.8 L 110.5 54.2 Z M 112 44.3 L 112.9 44.3 L 113.8 45.5 L 113.8 45.5 L 114.6 44.3 L 115.5 44.3 L 114.3 46 L 113.2 46 L 112 44.3 Z M 118.8 48.5 C 118.8 48.3 118.7 48.1 118.5 48.1 C 118.45 48.15 117.8 48.1 117.8 48.1 L 117.8 47.3 C 117.8 47.3 118.89 47.27 118.9 47.3 C 119.5 47.3 119.8 47.5 119.8 48.2 C 119.8 48.2 119.8 53.6 119.8 53.6 C 119.8 53.8 119.9 53.9 120.1 53.9 C 120.13 53.93 120.8 53.9 120.8 53.9 L 120.8 54.8 C 120.8 54.8 119.7 54.81 119.7 54.8 C 119.1 54.8 118.8 54.5 118.8 53.9 C 118.8 53.9 118.8 48.5 118.8 48.5 Z M 119.8 44.3 L 120.9 44.3 L 119.6 46 L 118.7 46 L 119.8 44.3 Z M 122 48.5 C 121.9 48.2 121.7 48.1 121.4 48.1 C 121.44 48.15 121.3 48.1 121.3 48.1 L 121.3 47.3 C 121.3 47.3 121.71 47.27 121.7 47.3 C 122.4 47.3 122.7 47.4 122.9 48.1 C 122.9 48.1 124.7 52.8 124.7 52.8 C 124.86 53.18 125 53.7 125 53.7 L 125 53.7 C 125 53.7 125.13 53.18 125.3 52.8 C 125.3 52.8 127.1 48.1 127.1 48.1 C 127.3 47.4 127.6 47.3 128.3 47.3 C 128.26 47.27 128.7 47.3 128.7 47.3 L 128.7 48.1 C 128.7 48.1 128.52 48.15 128.5 48.1 C 128.2 48.1 128.1 48.2 128 48.5 C 127.99 48.49 125.5 54.8 125.5 54.8 L 124.4 54.8 C 124.4 54.8 121.96 48.49 122 48.5 Z M 134 50.2 C 134.01 50.16 134.4 50.2 134.4 50.2 C 134.4 50.2 134.43 50.07 134.4 50.1 C 134.4 48.5 133.9 47.9 132.5 47.9 C 132.1 47.9 131 48 131 48.6 C 131.01 48.6 131 49.1 131 49.1 L 130 49.1 C 130 49.1 130.03 48.36 130 48.4 C 130 47.3 131.8 47.1 132.5 47.1 C 134.9 47.1 135.4 48.4 135.4 50 C 135.4 50 135.4 53.6 135.4 53.6 C 135.4 53.8 135.6 53.9 135.8 53.9 C 135.78 53.93 136.4 53.9 136.4 53.9 L 136.4 54.8 C 136.4 54.8 135.37 54.81 135.4 54.8 C 134.7 54.8 134.5 54.5 134.5 53.9 C 134.5 53.6 134.5 53.4 134.5 53.4 C 134.5 53.4 134.5 53.4 134.5 53.4 C 134.5 53.4 133.8 55 132 55 C 130.7 55 129.4 54.3 129.4 52.8 C 129.4 50.3 132.7 50.2 134 50.2 Z M 132.1 54.1 C 133.6 54.1 134.4 52.6 134.4 51.3 C 134.43 51.31 134.4 51 134.4 51 C 134.4 51 133.99 50.97 134 51 C 132.8 51 130.4 51 130.4 52.7 C 130.4 53.4 131 54.1 132.1 54.1 Z M 138.1 48.1 L 137.1 48.1 L 137.1 47.3 L 138.1 47.3 L 138.1 45.2 L 139.1 45.2 L 139.1 47.3 L 141 47.3 L 141 48.1 L 139.1 48.1 C 139.1 48.1 139.14 51.96 139.1 52 C 139.1 53.7 140.3 54 140.8 54 C 141.04 53.96 141.2 53.9 141.2 53.9 L 141.2 54.8 C 141.2 54.8 141 54.87 140.7 54.9 C 139.9 54.9 138.1 54.6 138.1 52.1 C 138.12 52.07 138.1 48.1 138.1 48.1 Z M 145.9 47.1 C 148 47.1 149.1 48.7 149.1 50.6 C 149.08 50.74 149.1 51.1 149.1 51.1 C 149.1 51.1 143.26 51.07 143.3 51.1 C 143.3 53 144.6 54.1 146.2 54.1 C 147.57 54.08 148.5 53.1 148.5 53.1 L 148.9 53.9 C 148.9 53.9 147.85 54.99 146.1 55 C 143.9 55 142.2 53.4 142.2 51 C 142.2 48.6 143.9 47.1 145.9 47.1 Z M 148 50.3 C 148 48.7 147 47.9 145.9 47.9 C 144.7 47.9 143.6 48.7 143.3 50.3 C 143.3 50.3 148 50.3 148 50.3 Z M 151.1 45.5 C 151.1 45.3 151 45.1 150.8 45.1 C 150.78 45.15 150.1 45.1 150.1 45.1 L 150.1 44.3 C 150.1 44.3 151.21 44.27 151.2 44.3 C 151.9 44.3 152.1 44.5 152.1 45.2 C 152.1 45.2 152.1 53.6 152.1 53.6 C 152.1 53.8 152.2 53.9 152.5 53.9 C 152.46 53.93 153.1 53.9 153.1 53.9 L 153.1 54.8 C 153.1 54.8 152.02 54.81 152 54.8 C 151.4 54.8 151.1 54.5 151.1 53.9 C 151.1 53.9 151.1 45.5 151.1 45.5 Z M 154 44.3 C 154.1 44.5 154.1 44.7 154.1 45 C 154.1 45.4 154 45.8 153.7 46.3 C 153.7 46.3 152.9 46.3 152.9 46.3 C 153.1 45.9 153.2 45.5 153.2 45.1 C 153.2 44.9 153.2 44.6 153.1 44.3 C 153.1 44.3 154 44.3 154 44.3 Z M 155.8 45.5 C 155.8 45.3 155.7 45.1 155.5 45.1 C 155.52 45.15 154.9 45.1 154.9 45.1 L 154.9 44.3 C 154.9 44.3 155.95 44.27 156 44.3 C 156.6 44.3 156.9 44.5 156.9 45.1 C 156.87 45.13 156.9 50.1 156.9 50.1 C 156.9 50.1 157.65 50.15 157.6 50.1 C 157.9 50.1 158.3 50.1 158.5 49.8 C 158.5 49.79 160.4 47.3 160.4 47.3 L 161.7 47.3 C 161.7 47.3 159.51 50.03 159.5 50 C 159.13 50.49 158.9 50.6 158.9 50.6 L 158.9 50.6 C 158.9 50.6 159.16 50.7 159.4 51.1 C 159.4 51.1 160.8 53.6 160.8 53.6 C 160.9 53.9 161.1 53.9 161.5 53.9 C 161.46 53.93 161.9 53.9 161.9 53.9 L 161.9 54.8 C 161.9 54.8 161.16 54.81 161.2 54.8 C 160.4 54.8 160.2 54.7 159.9 54.1 C 159.9 54.1 158.4 51.4 158.4 51.4 C 158.2 51.1 157.8 51 157.6 51 C 157.56 51.03 156.9 51 156.9 51 L 156.9 54.8 L 155.8 54.8 C 155.8 54.8 155.85 45.48 155.8 45.5 Z M 163.6 57 C 164.3 57 164.7 56.5 165 55.8 C 165.01 55.82 165.5 54.8 165.5 54.8 C 165.5 54.8 162.81 48.49 162.8 48.5 C 162.7 48.2 162.6 48.1 162.3 48.1 C 162.28 48.15 162.1 48.1 162.1 48.1 L 162.1 47.3 C 162.1 47.3 162.6 47.27 162.6 47.3 C 163.3 47.3 163.5 47.4 163.8 48.1 C 163.8 48.1 165.7 52.8 165.7 52.8 C 165.84 53.18 166 53.6 166 53.6 L 166 53.6 C 166 53.6 166.09 53.18 166.2 52.8 C 166.2 52.8 168.1 48.1 168.1 48.1 C 168.4 47.4 168.6 47.3 169.3 47.3 C 169.27 47.27 169.7 47.3 169.7 47.3 L 169.7 48.1 C 169.7 48.1 169.59 48.15 169.6 48.1 C 169.3 48.1 169.2 48.2 169.1 48.5 C 169.1 48.5 165.8 56.4 165.8 56.4 C 165.4 57.3 164.7 58 163.6 58 C 162.6 57.96 162 57.2 162 57.2 C 162 57.2 162.49 56.48 162.5 56.5 C 162.5 56.5 163 57 163.6 57 Z M 174.9 49.5 C 174.9 46.5 175.8 44.1 178.6 44.1 C 181.3 44.1 182.2 46.5 182.2 49.5 C 182.2 52.6 181.3 55 178.6 55 C 175.8 55 174.9 52.6 174.9 49.5 Z M 181.1 49.5 C 181.1 47 180.6 45.1 178.6 45.1 C 176.6 45.1 176 47 176 49.5 C 176 52.1 176.6 54 178.6 54 C 180.6 54 181.1 52.1 181.1 49.5 Z M 184.8 53.6 L 183.7 56.3 L 182.8 56.3 L 183.7 53.6 L 184.8 53.6 Z M 185.7 51.2 L 190.8 44.3 L 191.9 44.3 L 191.9 51 L 193.6 51 L 193.6 51.9 L 191.9 51.9 L 191.9 54.8 L 190.9 54.8 L 190.9 51.9 L 185.7 51.9 L 185.7 51.2 Z M 190.9 46.7 C 190.9 46.21 190.9 45.6 190.9 45.6 L 190.9 45.6 C 190.9 45.6 190.66 46.08 190.4 46.5 C 190.4 46.5 187.5 50.3 187.5 50.3 C 187.17 50.7 186.9 51 186.9 51 L 186.9 51 C 186.9 51 187.32 50.97 187.8 51 C 187.77 50.97 190.9 51 190.9 51 C 190.9 51 190.9 46.66 190.9 46.7 Z M 194.6 51.2 L 199.7 44.3 L 200.8 44.3 L 200.8 51 L 202.5 51 L 202.5 51.9 L 200.8 51.9 L 200.8 54.8 L 199.8 54.8 L 199.8 51.9 L 194.6 51.9 L 194.6 51.2 Z M 199.8 46.7 C 199.78 46.21 199.8 45.6 199.8 45.6 L 199.8 45.6 C 199.8 45.6 199.54 46.08 199.3 46.5 C 199.3 46.5 196.3 50.3 196.3 50.3 C 196.05 50.7 195.8 51 195.8 51 L 195.8 51 C 195.8 51 196.2 50.97 196.6 51 C 196.65 50.97 199.8 51 199.8 51 C 199.8 51 199.78 46.66 199.8 46.7 Z " stroke="none" fill="#fff"/>  </g>  <g id="Polygon80909">    <path d="M 33.5 27.2 L 32.6 27.2 L 32.6 26.3 C 32.6 26.3 37.01 26.27 37 26.3 C 38.9 26.3 40.3 27.5 40.3 29.4 C 40.3 31.4 38.9 32.7 37 32.7 C 37.01 32.67 34.6 32.7 34.6 32.7 L 34.6 36.8 L 33.5 36.8 L 33.5 27.2 Z M 36.9 31.7 C 38.3 31.7 39.2 30.9 39.2 29.4 C 39.2 28 38.3 27.2 36.9 27.2 C 36.89 27.19 34.6 27.2 34.6 27.2 L 34.6 31.7 C 34.6 31.7 36.88 31.74 36.9 31.7 Z M 44.6 29.1 C 46.7 29.1 47.8 30.7 47.8 32.6 C 47.8 32.74 47.8 33.1 47.8 33.1 C 47.8 33.1 41.98 33.07 42 33.1 C 42 35 43.3 36.1 44.9 36.1 C 46.28 36.08 47.2 35.1 47.2 35.1 L 47.7 35.9 C 47.7 35.9 46.57 36.99 44.9 37 C 42.6 37 40.9 35.4 40.9 33 C 40.9 30.6 42.6 29.1 44.6 29.1 Z M 46.7 32.3 C 46.7 30.7 45.7 29.9 44.6 29.9 C 43.4 29.9 42.3 30.7 42 32.3 C 42 32.3 46.7 32.3 46.7 32.3 Z M 53.8 32.2 C 53.75 32.16 54.2 32.2 54.2 32.2 C 54.2 32.2 54.17 32.07 54.2 32.1 C 54.2 30.5 53.6 29.9 52.2 29.9 C 51.8 29.9 50.8 30 50.8 30.6 C 50.75 30.6 50.8 31.1 50.8 31.1 L 49.8 31.1 C 49.8 31.1 49.78 30.36 49.8 30.4 C 49.8 29.3 51.6 29.1 52.2 29.1 C 54.6 29.1 55.2 30.4 55.2 32 C 55.2 32 55.2 35.6 55.2 35.6 C 55.2 35.8 55.3 35.9 55.5 35.9 C 55.52 35.93 56.2 35.9 56.2 35.9 L 56.2 36.8 C 56.2 36.8 55.12 36.81 55.1 36.8 C 54.5 36.8 54.2 36.5 54.2 35.9 C 54.2 35.6 54.2 35.4 54.2 35.4 C 54.2 35.4 54.2 35.4 54.2 35.4 C 54.2 35.4 53.6 37 51.7 37 C 50.4 37 49.1 36.3 49.1 34.8 C 49.1 32.3 52.4 32.2 53.8 32.2 Z M 51.9 36.1 C 53.3 36.1 54.2 34.6 54.2 33.3 C 54.17 33.31 54.2 33 54.2 33 C 54.2 33 53.74 32.97 53.7 33 C 52.6 33 50.2 33 50.2 34.7 C 50.2 35.4 50.7 36.1 51.9 36.1 Z M 57.8 30.5 C 57.8 30.3 57.7 30.1 57.4 30.1 C 57.44 30.15 56.8 30.1 56.8 30.1 L 56.8 29.3 C 56.8 29.3 57.86 29.27 57.9 29.3 C 58.5 29.3 58.8 29.5 58.8 30.1 C 58.8 30.1 58.8 30.6 58.8 30.6 C 58.78 30.94 58.7 31.2 58.7 31.2 C 58.7 31.2 58.78 31.2 58.8 31.2 C 59.1 30.1 60 29.2 61.2 29.2 C 61.4 29.2 61.6 29.2 61.6 29.2 C 61.57 29.24 61.6 30.2 61.6 30.2 C 61.6 30.2 61.39 30.21 61.2 30.2 C 60.1 30.2 59.3 31 59 32.2 C 58.9 32.6 58.8 33.1 58.8 33.6 C 58.79 33.63 58.8 36.8 58.8 36.8 L 57.8 36.8 C 57.8 36.8 57.77 30.48 57.8 30.5 Z M 63 27.5 C 63 27.3 62.9 27.1 62.7 27.1 C 62.69 27.15 62.1 27.1 62.1 27.1 L 62.1 26.3 C 62.1 26.3 63.13 26.27 63.1 26.3 C 63.8 26.3 64 26.5 64 27.2 C 64 27.2 64 35.6 64 35.6 C 64 35.8 64.2 35.9 64.4 35.9 C 64.37 35.93 65 35.9 65 35.9 L 65 36.8 C 65 36.8 63.94 36.81 63.9 36.8 C 63.3 36.8 63 36.5 63 35.9 C 63 35.9 63 27.5 63 27.5 Z M 70 29.1 C 72.2 29.1 74 30.8 74 33 C 74 35.3 72.2 37 70 37 C 67.8 37 66 35.3 66 33 C 66 30.8 67.8 29.1 70 29.1 Z M 70 36.1 C 71.6 36.1 72.9 34.8 72.9 33 C 72.9 31.3 71.6 30 70 30 C 68.4 30 67.1 31.3 67.1 33 C 67.1 34.8 68.4 36.1 70 36.1 Z M 75.3 30.5 C 75.2 30.2 75 30.1 74.8 30.1 C 74.77 30.15 74.6 30.1 74.6 30.1 L 74.6 29.3 C 74.6 29.3 75.04 29.27 75 29.3 C 75.8 29.3 76 29.4 76.2 30.1 C 76.2 30.1 78.1 34.8 78.1 34.8 C 78.19 35.18 78.3 35.7 78.3 35.7 L 78.3 35.7 C 78.3 35.7 78.46 35.18 78.6 34.8 C 78.6 34.8 80.4 30.1 80.4 30.1 C 80.7 29.4 80.9 29.3 81.6 29.3 C 81.59 29.27 82 29.3 82 29.3 L 82 30.1 C 82 30.1 81.85 30.15 81.8 30.1 C 81.6 30.1 81.4 30.2 81.3 30.5 C 81.32 30.49 78.9 36.8 78.9 36.8 L 77.8 36.8 C 77.8 36.8 75.29 30.49 75.3 30.5 Z M 87.6 26.3 L 88.6 26.3 L 88.6 27.6 L 87.6 27.6 L 87.6 26.3 Z M 87.7 30.5 C 87.7 30.3 87.5 30.1 87.3 30.1 C 87.32 30.15 86.7 30.1 86.7 30.1 L 86.7 29.3 C 86.7 29.3 87.76 29.27 87.8 29.3 C 88.4 29.3 88.7 29.5 88.7 30.2 C 88.7 30.2 88.7 35.6 88.7 35.6 C 88.7 35.8 88.8 35.9 89 35.9 C 89 35.93 89.6 35.9 89.6 35.9 L 89.6 36.8 C 89.6 36.8 88.57 36.81 88.6 36.8 C 87.9 36.8 87.7 36.5 87.7 35.9 C 87.7 35.9 87.7 30.5 87.7 30.5 Z M 91.3 30.5 C 91.3 30.3 91.2 30.1 91 30.1 C 91.01 30.15 90.4 30.1 90.4 30.1 L 90.4 29.3 C 90.4 29.3 91.43 29.27 91.4 29.3 C 92.1 29.3 92.3 29.5 92.3 30.1 C 92.3 30.1 92.3 30.4 92.3 30.4 C 92.35 30.75 92.3 31 92.3 31 C 92.3 31 92.35 30.99 92.3 31 C 92.6 30.3 93.6 29.1 95.3 29.1 C 97.2 29.1 97.9 30.1 97.9 32 C 97.9 32 97.9 35.6 97.9 35.6 C 97.9 35.8 98 35.9 98.2 35.9 C 98.21 35.93 98.8 35.9 98.8 35.9 L 98.8 36.8 C 98.8 36.8 97.78 36.81 97.8 36.8 C 97.1 36.8 96.9 36.5 96.9 35.9 C 96.9 35.9 96.9 32.3 96.9 32.3 C 96.9 31.1 96.7 30 95.2 30 C 93.9 30 92.8 30.9 92.5 32.2 C 92.4 32.5 92.4 32.8 92.4 33.2 C 92.36 33.2 92.4 36.8 92.4 36.8 L 91.3 36.8 C 91.3 36.8 91.34 30.48 91.3 30.5 Z M 103.2 29.1 C 105.01 29.09 105.6 30.5 105.6 30.5 L 105.7 30.5 C 105.7 30.5 105.64 30.24 105.6 29.9 C 105.6 29.9 105.6 27.5 105.6 27.5 C 105.6 27.3 105.5 27.1 105.3 27.1 C 105.31 27.15 104.7 27.1 104.7 27.1 L 104.7 26.3 C 104.7 26.3 105.74 26.27 105.7 26.3 C 106.4 26.3 106.7 26.5 106.7 27.2 C 106.7 27.2 106.7 35.6 106.7 35.6 C 106.7 35.8 106.8 35.9 107 35.9 C 106.99 35.93 107.6 35.9 107.6 35.9 L 107.6 36.8 C 107.6 36.8 106.57 36.81 106.6 36.8 C 105.9 36.8 105.7 36.5 105.7 36 C 105.7 35.7 105.7 35.5 105.7 35.5 C 105.7 35.49 105.7 35.5 105.7 35.5 C 105.7 35.5 105.05 36.99 103.1 37 C 101 37 99.8 35.4 99.8 33 C 99.8 30.6 101.2 29.1 103.2 29.1 Z M 105.7 33 C 105.7 31.5 104.9 30 103.3 30 C 101.9 30 100.8 31.1 100.8 33 C 100.8 34.9 101.8 36.1 103.2 36.1 C 104.5 36.1 105.7 35.2 105.7 33 Z M 112.3 29.1 C 114.4 29.1 115.5 30.7 115.5 32.6 C 115.46 32.74 115.4 33.1 115.4 33.1 C 115.4 33.1 109.64 33.07 109.6 33.1 C 109.7 35 111 36.1 112.6 36.1 C 113.95 36.08 114.8 35.1 114.8 35.1 L 115.3 35.9 C 115.3 35.9 114.23 36.99 112.5 37 C 110.3 37 108.6 35.4 108.6 33 C 108.6 30.6 110.3 29.1 112.3 29.1 Z M 114.4 32.3 C 114.4 30.7 113.4 29.9 112.3 29.9 C 111 29.9 109.9 30.7 109.7 32.3 C 109.7 32.3 114.4 32.3 114.4 32.3 Z M 119.1 32.9 C 119.1 32.9 117.47 30.46 117.5 30.5 C 117.3 30.2 117.1 30.1 116.8 30.1 C 116.78 30.15 116.5 30.1 116.5 30.1 L 116.5 29.3 C 116.5 29.3 117.02 29.27 117 29.3 C 117.8 29.3 118 29.4 118.4 30.1 C 118.4 30.1 119.5 31.8 119.5 31.8 C 119.63 31.96 119.8 32.2 119.8 32.2 L 119.8 32.2 C 119.8 32.2 119.93 31.96 120 31.8 C 120 31.8 121.1 30.1 121.1 30.1 C 121.6 29.4 121.8 29.3 122.5 29.3 C 122.54 29.27 123.1 29.3 123.1 29.3 L 123.1 30.1 C 123.1 30.1 122.78 30.15 122.8 30.1 C 122.5 30.1 122.2 30.2 122.1 30.4 C 122.08 30.45 120.4 32.9 120.4 32.9 L 123.1 36.8 L 121.9 36.8 C 121.9 36.8 120.04 34 120 34 C 119.92 33.81 119.8 33.6 119.8 33.6 L 119.8 33.6 C 119.8 33.6 119.65 33.79 119.5 34 C 119.51 34 117.7 36.8 117.7 36.8 L 116.5 36.8 L 119.1 32.9 Z M 128 36.2 C 128 36.2 132.26 30.85 132.3 30.9 C 132.55 30.49 132.9 30.2 132.9 30.2 L 132.9 30.1 C 132.9 30.1 132.61 30.16 132.1 30.2 C 132.1 30.2 129.4 30.2 129.4 30.2 C 129.1 30.2 129 30.3 129 30.5 C 129.02 30.49 129 31.1 129 31.1 L 128.1 31.1 C 128.1 31.1 128.06 30.18 128.1 30.2 C 128.1 29.5 128.3 29.3 129 29.3 C 128.98 29.27 134.2 29.3 134.2 29.3 L 134.2 29.9 C 134.2 29.9 129.98 35.22 130 35.2 C 129.68 35.58 129.4 35.9 129.4 35.9 L 129.4 35.9 C 129.4 35.9 129.62 35.91 130.1 35.9 C 130.1 35.9 133.2 35.9 133.2 35.9 C 133.4 35.9 133.6 35.8 133.6 35.6 C 133.57 35.58 133.6 35 133.6 35 L 134.5 35 C 134.5 35 134.53 35.9 134.5 35.9 C 134.5 36.5 134.3 36.8 133.6 36.8 C 133.61 36.81 128 36.8 128 36.8 L 128 36.2 Z M 136.2 27.5 C 136.2 27.3 136.1 27.1 135.9 27.1 C 135.88 27.15 135.2 27.1 135.2 27.1 L 135.2 26.3 C 135.2 26.3 136.31 26.27 136.3 26.3 C 137 26.3 137.2 26.5 137.2 27.2 C 137.2 27.2 137.2 35.6 137.2 35.6 C 137.2 35.8 137.3 35.9 137.6 35.9 C 137.56 35.93 138.2 35.9 138.2 35.9 L 138.2 36.8 C 138.2 36.8 137.12 36.81 137.1 36.8 C 136.5 36.8 136.2 36.5 136.2 35.9 C 136.2 35.9 136.2 27.5 136.2 27.5 Z M 140.3 39 C 141 39 141.4 38.5 141.7 37.8 C 141.71 37.82 142.2 36.8 142.2 36.8 C 142.2 36.8 139.51 30.49 139.5 30.5 C 139.4 30.2 139.3 30.1 139 30.1 C 138.98 30.15 138.8 30.1 138.8 30.1 L 138.8 29.3 C 138.8 29.3 139.3 29.27 139.3 29.3 C 140 29.3 140.2 29.4 140.5 30.1 C 140.5 30.1 142.4 34.8 142.4 34.8 C 142.54 35.18 142.7 35.6 142.7 35.6 L 142.7 35.6 C 142.7 35.6 142.79 35.18 142.9 34.8 C 142.9 34.8 144.8 30.1 144.8 30.1 C 145.1 29.4 145.3 29.3 146 29.3 C 145.97 29.27 146.4 29.3 146.4 29.3 L 146.4 30.1 C 146.4 30.1 146.29 30.15 146.3 30.1 C 146 30.1 145.9 30.2 145.8 30.5 C 145.8 30.5 142.5 38.4 142.5 38.4 C 142.1 39.3 141.4 40 140.3 40 C 139.3 39.96 138.7 39.2 138.7 39.2 C 138.7 39.2 139.19 38.48 139.2 38.5 C 139.2 38.5 139.7 39 140.3 39 Z M 147.9 27.5 C 147.9 27.3 147.8 27.1 147.6 27.1 C 147.61 27.15 147 27.1 147 27.1 L 147 26.3 C 147 26.3 148.04 26.27 148 26.3 C 148.7 26.3 149 26.5 149 27.1 C 149 27.1 149 30.3 149 30.3 C 148.96 30.69 148.9 31 148.9 31 C 148.9 31 148.96 30.96 149 31 C 149.2 30.2 150.2 29.1 151.9 29.1 C 153.8 29.1 154.5 30.1 154.5 32 C 154.5 32 154.5 35.6 154.5 35.6 C 154.5 35.8 154.6 35.9 154.8 35.9 C 154.81 35.93 155.4 35.9 155.4 35.9 L 155.4 36.8 C 155.4 36.8 154.37 36.81 154.4 36.8 C 153.7 36.8 153.5 36.5 153.5 35.9 C 153.5 35.9 153.5 32.3 153.5 32.3 C 153.5 31.1 153.3 30 151.8 30 C 150.5 30 149.4 30.9 149.1 32.2 C 149 32.5 149 32.8 149 33.2 C 148.96 33.2 149 36.8 149 36.8 L 147.9 36.8 C 147.9 36.8 147.94 27.48 147.9 27.5 Z M 161 32.2 C 160.97 32.16 161.4 32.2 161.4 32.2 C 161.4 32.2 161.39 32.07 161.4 32.1 C 161.4 30.5 160.8 29.9 159.4 29.9 C 159.1 29.9 158 30 158 30.6 C 157.97 30.6 158 31.1 158 31.1 L 157 31.1 C 157 31.1 157 30.36 157 30.4 C 157 29.3 158.8 29.1 159.5 29.1 C 161.8 29.1 162.4 30.4 162.4 32 C 162.4 32 162.4 35.6 162.4 35.6 C 162.4 35.8 162.5 35.9 162.7 35.9 C 162.74 35.93 163.4 35.9 163.4 35.9 L 163.4 36.8 C 163.4 36.8 162.34 36.81 162.3 36.8 C 161.7 36.8 161.4 36.5 161.4 35.9 C 161.4 35.6 161.5 35.4 161.5 35.4 C 161.5 35.4 161.4 35.4 161.4 35.4 C 161.4 35.4 160.8 37 158.9 37 C 157.7 37 156.4 36.3 156.4 34.8 C 156.4 32.3 159.7 32.2 161 32.2 Z M 159.1 36.1 C 160.5 36.1 161.4 34.6 161.4 33.3 C 161.39 33.31 161.4 33 161.4 33 C 161.4 33 160.96 32.97 161 33 C 159.8 33 157.4 33 157.4 34.7 C 157.4 35.4 158 36.1 159.1 36.1 Z M 165 30.5 C 165 30.3 164.9 30.1 164.7 30.1 C 164.66 30.15 164 30.1 164 30.1 L 164 29.3 C 164 29.3 165.08 29.27 165.1 29.3 C 165.7 29.3 166 29.5 166 30.1 C 166 30.1 166 30.4 166 30.4 C 165.99 30.75 166 31 166 31 C 166 31 165.99 30.99 166 31 C 166.3 30.3 167.2 29.1 169 29.1 C 170.9 29.1 171.5 30.1 171.5 32 C 171.5 32 171.5 35.6 171.5 35.6 C 171.5 35.8 171.6 35.9 171.9 35.9 C 171.86 35.93 172.5 35.9 172.5 35.9 L 172.5 36.8 C 172.5 36.8 171.43 36.81 171.4 36.8 C 170.8 36.8 170.5 36.5 170.5 35.9 C 170.5 35.9 170.5 32.3 170.5 32.3 C 170.5 31.1 170.3 30 168.9 30 C 167.6 30 166.5 30.9 166.1 32.2 C 166 32.5 166 32.8 166 33.2 C 166.01 33.2 166 36.8 166 36.8 L 165 36.8 C 165 36.8 164.99 30.48 165 30.5 Z M 174.2 26.3 L 175.1 26.3 L 175.1 27.6 L 174.2 27.6 L 174.2 26.3 Z M 174.2 30.5 C 174.2 30.3 174.1 30.1 173.9 30.1 C 173.86 30.15 173.2 30.1 173.2 30.1 L 173.2 29.3 C 173.2 29.3 174.29 29.27 174.3 29.3 C 174.9 29.3 175.2 29.5 175.2 30.2 C 175.2 30.2 175.2 35.6 175.2 35.6 C 175.2 35.8 175.3 35.9 175.5 35.9 C 175.53 35.93 176.2 35.9 176.2 35.9 L 176.2 36.8 C 176.2 36.8 175.1 36.81 175.1 36.8 C 174.5 36.8 174.2 36.5 174.2 35.9 C 174.2 35.9 174.2 30.5 174.2 30.5 Z M 181.8 32.2 C 181.79 32.16 182.2 32.2 182.2 32.2 C 182.2 32.2 182.21 32.07 182.2 32.1 C 182.2 30.5 181.6 29.9 180.3 29.9 C 179.9 29.9 178.8 30 178.8 30.6 C 178.79 30.6 178.8 31.1 178.8 31.1 L 177.8 31.1 C 177.8 31.1 177.82 30.36 177.8 30.4 C 177.8 29.3 179.6 29.1 180.3 29.1 C 182.7 29.1 183.2 30.4 183.2 32 C 183.2 32 183.2 35.6 183.2 35.6 C 183.2 35.8 183.3 35.9 183.6 35.9 C 183.56 35.93 184.2 35.9 184.2 35.9 L 184.2 36.8 C 184.2 36.8 183.15 36.81 183.2 36.8 C 182.5 36.8 182.3 36.5 182.3 35.9 C 182.3 35.6 182.3 35.4 182.3 35.4 C 182.3 35.4 182.2 35.4 182.2 35.4 C 182.3 35.4 181.6 37 179.7 37 C 178.5 37 177.2 36.3 177.2 34.8 C 177.2 32.3 180.5 32.2 181.8 32.2 Z M 179.9 36.1 C 181.3 36.1 182.2 34.6 182.2 33.3 C 182.21 33.31 182.2 33 182.2 33 C 182.2 33 181.78 32.97 181.8 33 C 180.6 33 178.2 33 178.2 34.7 C 178.2 35.4 178.8 36.1 179.9 36.1 Z " stroke="none" fill="#fff"/>  </g></svg>