<?xml version="1.0" standalone="no"?><!DOCTYPE svg PUBLIC "-//W3C//DTD SVG 1.1//EN" "http://www.w3.org/Graphics/SVG/1.1/DTD/svg11.dtd"><svg xmlns="http://www.w3.org/2000/svg" version="1.1" width="92.5px" height="25.3px" viewBox="0 -3 92.5 25.3" style="top:-3px">  <desc>Bezpe nos</desc>  <defs/>  <g id="Polygon81374">    <path d="M 1.7 2.2 L 0.6 2.2 L 0.6 0.7 C 0.6 0.7 5.76 0.75 5.8 0.7 C 7.8 0.7 9.2 1.9 9.2 3.8 C 9.2 5.1 8.6 6 7.8 6.4 C 7.8 6.4 7.8 6.4 7.8 6.4 C 9 6.8 9.7 8 9.7 9.3 C 9.7 11.6 8 12.8 5.9 12.8 C 5.9 12.8 2.8 12.8 2.8 12.8 C 2.1 12.8 1.7 12.4 1.7 11.7 C 1.73 11.66 1.7 2.2 1.7 2.2 Z M 5.8 5.8 C 6.8 5.8 7.5 5 7.5 4 C 7.5 2.9 6.9 2.2 5.7 2.2 C 5.75 2.21 3.4 2.2 3.4 2.2 L 3.4 5.8 C 3.4 5.8 5.78 5.8 5.8 5.8 Z M 3.8 11.3 C 3.8 11.3 6 11.3 6 11.3 C 7.2 11.3 8 10.5 8 9.2 C 8 8 7.2 7.2 6 7.2 C 5.95 7.19 3.4 7.2 3.4 7.2 C 3.4 7.2 3.43 10.91 3.4 10.9 C 3.4 11.2 3.6 11.3 3.8 11.3 Z M 15.4 3.9 C 17.8 3.9 19.1 5.7 19.1 8 C 19.12 8.19 19.1 8.7 19.1 8.7 C 19.1 8.7 12.8 8.65 12.8 8.7 C 12.9 10.5 14.2 11.5 15.8 11.5 C 17.24 11.53 18.3 10.5 18.3 10.5 L 19 11.7 C 19 11.7 17.71 12.95 15.7 13 C 13 13 11.1 11 11.1 8.4 C 11.1 5.7 13 3.9 15.4 3.9 Z M 17.4 7.4 C 17.4 6 16.5 5.3 15.4 5.3 C 14.1 5.3 13.1 6 12.9 7.4 C 12.9 7.4 17.4 7.4 17.4 7.4 Z M 20.4 11.8 C 20.4 11.8 24.84 6.36 24.8 6.4 C 25.21 5.9 25.6 5.6 25.6 5.6 L 25.6 5.5 C 25.6 5.5 25.28 5.56 24.7 5.6 C 24.7 5.6 22.4 5.6 22.4 5.6 C 22.1 5.6 22 5.7 22 5.9 C 22 5.93 22 6.5 22 6.5 L 20.5 6.5 C 20.5 6.5 20.48 5.24 20.5 5.2 C 20.5 4.5 20.8 4.1 21.6 4.1 C 21.57 4.15 27.7 4.1 27.7 4.1 L 27.7 5.1 C 27.7 5.1 23.31 10.56 23.3 10.6 C 22.95 10.98 22.6 11.3 22.6 11.3 L 22.6 11.4 C 22.6 11.4 22.86 11.34 23.4 11.3 C 23.4 11.3 26.2 11.3 26.2 11.3 C 26.4 11.3 26.6 11.2 26.6 11 C 26.55 10.96 26.6 10.4 26.6 10.4 L 28 10.4 C 28 10.4 28.05 11.66 28 11.7 C 28 12.4 27.7 12.8 27 12.8 C 26.96 12.75 20.4 12.8 20.4 12.8 L 20.4 11.8 Z M 29.9 5.9 C 29.9 5.7 29.8 5.6 29.5 5.6 C 29.53 5.56 28.8 5.6 28.8 5.6 L 28.8 4.1 C 28.8 4.1 30.38 4.15 30.4 4.1 C 31.1 4.1 31.4 4.5 31.4 5 C 31.43 5.27 31.4 5.5 31.4 5.5 L 31.4 5.5 C 31.4 5.5 32.16 3.94 34.3 3.9 C 36.6 3.9 38.1 5.8 38.1 8.4 C 38.1 11.2 36.4 13 34.2 13 C 32.28 12.95 31.6 11.6 31.6 11.6 L 31.5 11.6 C 31.5 11.6 31.55 11.88 31.6 12.3 C 31.55 12.32 31.6 16.2 31.6 16.2 L 29.9 16.2 C 29.9 16.2 29.9 5.93 29.9 5.9 Z M 33.9 11.5 C 35.3 11.5 36.4 10.4 36.4 8.5 C 36.4 6.6 35.4 5.4 34 5.4 C 32.7 5.4 31.5 6.3 31.5 8.5 C 31.5 10 32.3 11.5 33.9 11.5 Z M 43.7 3.9 C 46.1 3.9 47.4 5.7 47.4 8 C 47.36 8.19 47.3 8.7 47.3 8.7 C 47.3 8.7 41.04 8.65 41 8.7 C 41.1 10.5 42.5 11.5 44 11.5 C 45.47 11.53 46.5 10.5 46.5 10.5 L 47.2 11.7 C 47.2 11.7 45.95 12.95 43.9 13 C 41.2 13 39.3 11 39.3 8.4 C 39.3 5.7 41.2 3.9 43.7 3.9 Z M 45.7 7.4 C 45.6 6 44.7 5.3 43.6 5.3 C 42.4 5.3 41.4 6 41.1 7.4 C 41.1 7.4 45.7 7.4 45.7 7.4 Z M 53.3 3.9 C 54.4 3.9 56.4 4.4 56.4 5.8 C 56.44 5.83 56.4 6.7 56.4 6.7 L 54.9 6.7 C 54.9 6.7 54.94 6.24 54.9 6.2 C 54.9 5.6 54 5.4 53.3 5.4 C 51.7 5.4 50.4 6.6 50.4 8.4 C 50.4 10.4 51.8 11.5 53.4 11.5 C 55.04 11.49 56.1 10.3 56.1 10.3 L 56.8 11.5 C 56.8 11.5 55.59 12.95 53.3 13 C 50.6 13 48.7 11 48.7 8.4 C 48.7 5.9 50.6 3.9 53.3 3.9 Z M 50.8 0.7 L 52.2 0.7 L 53 2.1 L 53.1 2.1 L 54 0.7 L 55.3 0.7 L 53.8 2.9 L 52.3 2.9 L 50.8 0.7 Z M 58.6 5.9 C 58.6 5.7 58.5 5.6 58.2 5.6 C 58.24 5.56 57.5 5.6 57.5 5.6 L 57.5 4.1 C 57.5 4.1 59.12 4.15 59.1 4.1 C 59.9 4.1 60.2 4.5 60.2 5.1 C 60.2 5.1 60.2 5.4 60.2 5.4 C 60.21 5.69 60.2 5.9 60.2 5.9 C 60.2 5.9 60.21 5.92 60.2 5.9 C 60.6 5.2 61.6 3.9 63.4 3.9 C 65.5 3.9 66.4 5 66.4 7.2 C 66.4 7.2 66.4 11 66.4 11 C 66.4 11.2 66.5 11.3 66.8 11.3 C 66.77 11.34 67.5 11.3 67.5 11.3 L 67.5 12.8 C 67.5 12.8 65.84 12.75 65.8 12.8 C 65.1 12.8 64.8 12.4 64.8 11.7 C 64.8 11.7 64.8 7.6 64.8 7.6 C 64.8 6.4 64.5 5.5 63.1 5.5 C 61.8 5.5 60.8 6.3 60.4 7.6 C 60.3 7.9 60.3 8.3 60.3 8.7 C 60.26 8.72 60.3 12.8 60.3 12.8 L 58.6 12.8 C 58.6 12.8 58.61 5.93 58.6 5.9 Z M 73 3.9 C 75.6 3.9 77.7 5.8 77.7 8.4 C 77.7 11 75.6 13 73 13 C 70.5 13 68.4 11 68.4 8.4 C 68.4 5.8 70.5 3.9 73 3.9 Z M 73 11.5 C 74.7 11.5 76 10.2 76 8.4 C 76 6.6 74.7 5.4 73 5.4 C 71.4 5.4 70.1 6.6 70.1 8.4 C 70.1 10.2 71.4 11.5 73 11.5 Z M 79.6 10.3 C 79.6 10.3 80.63 11.61 82.2 11.6 C 83 11.6 83.7 11.3 83.7 10.5 C 83.7 9 79 9.1 79 6.4 C 79 4.7 80.5 3.9 82.2 3.9 C 83.2 3.9 85 4.3 85 5.6 C 85.03 5.61 85 6.4 85 6.4 L 83.6 6.4 C 83.6 6.4 83.55 6 83.6 6 C 83.6 5.5 82.8 5.3 82.3 5.3 C 81.3 5.3 80.7 5.6 80.7 6.3 C 80.7 7.9 85.4 7.6 85.4 10.4 C 85.4 12 84 13 82.2 13 C 79.9 12.95 78.8 11.4 78.8 11.4 L 79.6 10.3 Z M 87.6 5.5 L 86.4 5.5 L 86.4 4.1 L 87.6 4.1 L 87.6 1.8 L 89.2 1.8 L 89.2 4.1 L 91.3 4.1 L 91.3 5.5 L 89.2 5.5 C 89.2 5.5 89.21 9.42 89.2 9.4 C 89.2 11.1 90.4 11.4 91 11.4 C 91.27 11.36 91.4 11.3 91.4 11.3 L 91.4 12.8 C 91.4 12.8 91.2 12.82 90.8 12.8 C 89.8 12.8 87.6 12.5 87.6 9.6 C 87.57 9.6 87.6 5.5 87.6 5.5 Z M 91.6 0.7 C 91.7 1.1 91.7 1.3 91.7 1.6 C 91.7 2.1 91.6 2.6 91.3 3.1 C 91.3 3.1 90.1 3.1 90.1 3.1 C 90.4 2.6 90.5 2.2 90.5 1.8 C 90.5 1.4 90.4 1.1 90.3 0.7 C 90.3 0.7 91.6 0.7 91.6 0.7 Z " stroke="none" fill="#ee3078"/>  </g></svg>