<?xml version="1.0" standalone="no"?><!DOCTYPE svg PUBLIC "-//W3C//DTD SVG 1.1//EN" "http://www.w3.org/Graphics/SVG/1.1/DTD/svg11.dtd"><svg xmlns="http://www.w3.org/2000/svg" version="1.1" width="152px" height="127.5px" viewBox="-54 -55 152 127.5" style="left:-54px;top:-55px">  <desc>41.6%</desc>  <defs/>  <g id="Polygon79693">    <path d="M 8.3 10 L 8.3 9.9 L 11 4 L 11.1 4 L 11.9 4.1 L 11.9 4.2 L 9.2 9.7 L 9.2 9.7 L 11.8 9.7 L 12.1 6.8 L 12.8 6.8 L 12.8 9.7 L 13.7 9.7 L 13.7 10.5 L 12.8 10.5 L 12.8 12.5 L 11.8 12.5 L 11.8 10.5 L 8.5 10.5 L 8.3 10 Z M 15.8 5.2 L 15.8 5.2 L 14.2 6.1 L 14.1 6.1 L 13.9 5.7 L 13.9 5.6 L 16.1 4.1 L 16.8 4.1 L 16.8 12.5 L 15.8 12.5 L 15.8 5.2 Z M 19.5 11.9 C 19.5 12.3 19.3 12.5 18.9 12.5 C 18.5 12.5 18.3 12.3 18.3 11.9 C 18.3 11.6 18.5 11.4 18.9 11.4 C 19.1 11.4 19.3 11.4 19.4 11.5 C 19.5 11.6 19.5 11.7 19.5 11.9 C 19.5 11.9 19.5 11.9 19.5 11.9 Z M 23.2 12.6 C 22.3 12.6 21.7 12.3 21.2 11.6 C 20.8 11 20.5 10 20.5 8.8 C 20.5 8 20.6 7.3 20.7 6.7 C 20.9 6.1 21.1 5.6 21.4 5.2 C 21.7 4.8 22.1 4.5 22.5 4.3 C 22.9 4.1 23.4 4 23.9 4 C 24.1 4 24.3 4 24.5 4 C 24.8 4 25 4.1 25.2 4.2 C 25.2 4.2 25.2 4.9 25.2 4.9 C 24.9 4.8 24.7 4.8 24.5 4.8 C 24.3 4.7 24.1 4.7 23.9 4.7 C 23.2 4.7 22.6 5 22.2 5.6 C 21.7 6.2 21.5 7 21.4 8.1 C 21.7 7.9 22 7.7 22.3 7.5 C 22.7 7.4 23 7.3 23.3 7.3 C 23.7 7.3 24 7.4 24.3 7.5 C 24.6 7.6 24.9 7.8 25.1 8 C 25.3 8.2 25.4 8.5 25.5 8.8 C 25.7 9.1 25.7 9.4 25.7 9.8 C 25.7 10.2 25.6 10.6 25.5 10.9 C 25.4 11.3 25.2 11.6 25 11.8 C 24.8 12.1 24.5 12.3 24.2 12.4 C 23.9 12.5 23.6 12.6 23.2 12.6 Z M 23.2 8 C 22.9 8 22.6 8.1 22.3 8.3 C 21.9 8.4 21.7 8.6 21.4 8.9 C 21.4 9.9 21.6 10.6 21.9 11.1 C 22.2 11.6 22.6 11.8 23.2 11.8 C 23.7 11.8 24.1 11.7 24.4 11.3 C 24.7 10.9 24.8 10.4 24.8 9.8 C 24.8 9.2 24.7 8.8 24.4 8.5 C 24.1 8.2 23.7 8 23.2 8 Z M 28.4 9.3 C 27.8 9.3 27.3 9.1 27 8.6 C 26.7 8.2 26.5 7.5 26.5 6.6 C 26.5 5.8 26.7 5.1 27 4.6 C 27.3 4.2 27.8 4 28.4 4 C 29 4 29.4 4.2 29.7 4.6 C 30 5.1 30.2 5.8 30.2 6.6 C 30.2 7.5 30 8.2 29.7 8.6 C 29.4 9.1 29 9.3 28.4 9.3 Z M 27.2 6.6 C 27.2 8 27.6 8.6 28.4 8.6 C 29.1 8.6 29.5 8 29.5 6.6 C 29.5 5.3 29.1 4.6 28.4 4.6 C 27.6 4.6 27.2 5.3 27.2 6.6 C 27.2 6.6 27.2 6.6 27.2 6.6 Z M 33.6 12.6 C 33 12.6 32.6 12.4 32.3 11.9 C 31.9 11.5 31.8 10.8 31.8 10 C 31.8 9.1 31.9 8.4 32.3 8 C 32.6 7.5 33 7.3 33.6 7.3 C 34.2 7.3 34.7 7.5 35 8 C 35.3 8.4 35.5 9.1 35.5 10 C 35.5 10.8 35.3 11.5 35 11.9 C 34.7 12.4 34.2 12.6 33.6 12.6 Z M 32.5 10 C 32.5 11.3 32.9 12 33.6 12 C 34.4 12 34.7 11.3 34.7 10 C 34.7 8.6 34.4 8 33.6 8 C 32.9 8 32.5 8.6 32.5 10 C 32.5 10 32.5 10 32.5 10 Z M 32.2 4.1 L 33 4.1 L 29.7 12.5 L 28.9 12.5 L 32.2 4.1 Z " stroke="none" fill="#68adca"/>  </g></svg>