<?xml version="1.0" standalone="no"?><!DOCTYPE svg PUBLIC "-//W3C//DTD SVG 1.1//EN" "http://www.w3.org/Graphics/SVG/1.1/DTD/svg11.dtd"><svg xmlns="http://www.w3.org/2000/svg" version="1.1" width="113.4px" height="78.9px" viewBox="0 0 113.4 78.9">  <desc>no</desc>  <defs/>  <g id="Polygon69842">    <path d="M 46.3 41.2 C 46.3 41.2 46.49 41.21 46.5 41.2 C 46.7 41.2 46.8 41.2 46.8 41 C 46.85 40.96 49.3 34.4 49.3 34.4 L 50.4 34.4 C 50.4 34.4 52.86 40.96 52.9 41 C 52.9 41.2 53 41.2 53.2 41.2 C 53.23 41.21 53.4 41.2 53.4 41.2 L 53.4 42.2 C 53.4 42.2 52.78 42.15 52.8 42.2 C 52.2 42.2 52.1 42 51.9 41.5 C 51.87 41.51 51.3 39.9 51.3 39.9 L 48.4 39.9 C 48.4 39.9 47.85 41.51 47.8 41.5 C 47.7 42 47.5 42.2 46.9 42.2 C 46.94 42.15 46.3 42.2 46.3 42.2 L 46.3 41.2 Z M 51 39 C 51 39 50.17 36.63 50.2 36.6 C 50.03 36.22 49.9 35.5 49.9 35.5 L 49.8 35.5 C 49.8 35.5 49.69 36.22 49.5 36.6 C 49.54 36.63 48.7 39 48.7 39 L 51 39 Z M 50.2 32.5 L 51.3 32.5 L 50.3 33.8 L 49.4 33.8 L 50.2 32.5 Z M 54.4 37.7 C 54.4 37.6 54.4 37.5 54.2 37.5 C 54.21 37.5 53.8 37.5 53.8 37.5 L 53.8 36.6 C 53.8 36.6 54.78 36.59 54.8 36.6 C 55.3 36.6 55.5 36.8 55.5 37.2 C 55.5 37.2 55.5 37.4 55.5 37.4 C 55.48 37.59 55.5 37.7 55.5 37.7 C 55.5 37.7 55.48 37.73 55.5 37.7 C 55.7 37.2 56.4 36.5 57.6 36.5 C 58.9 36.5 59.5 37.2 59.5 38.6 C 59.5 38.6 59.5 41 59.5 41 C 59.5 41.2 59.6 41.2 59.7 41.2 C 59.73 41.24 60.2 41.2 60.2 41.2 L 60.2 42.2 C 60.2 42.2 59.12 42.15 59.1 42.2 C 58.6 42.2 58.4 41.9 58.4 41.4 C 58.4 41.4 58.4 38.8 58.4 38.8 C 58.4 38 58.3 37.4 57.4 37.4 C 56.5 37.4 55.8 38 55.6 38.8 C 55.5 39 55.5 39.3 55.5 39.5 C 55.52 39.54 55.5 42.2 55.5 42.2 L 54.4 42.2 C 54.4 42.2 54.45 37.74 54.4 37.7 Z M 63.8 36.5 C 65.4 36.5 66.8 37.7 66.8 39.4 C 66.8 41.1 65.4 42.3 63.8 42.3 C 62.1 42.3 60.8 41.1 60.8 39.4 C 60.8 37.7 62.1 36.5 63.8 36.5 Z M 63.8 41.4 C 64.8 41.4 65.7 40.5 65.7 39.4 C 65.7 38.2 64.8 37.4 63.8 37.4 C 62.7 37.4 61.9 38.2 61.9 39.4 C 61.9 40.5 62.7 41.4 63.8 41.4 Z " stroke="none" fill="#323232"/>  </g></svg>