<?xml version="1.0" standalone="no"?><!DOCTYPE svg PUBLIC "-//W3C//DTD SVG 1.1//EN" "http://www.w3.org/Graphics/SVG/1.1/DTD/svg11.dtd"><svg xmlns="http://www.w3.org/2000/svg" version="1.1" width="353px" height="43.5px" viewBox="0 -5 353 43.5" style="top:-5px">  <desc>Spokojnos</desc>  <defs/>  <g id="Polygon66359">    <path d="M 2.4 18.3 C 2.4 18.3 4.53 20.91 7.9 20.9 C 10.2 20.9 12 19.4 12 17.2 C 12 11.9 1.6 13 1.6 6.5 C 1.6 3.5 4.2 1.1 8.1 1.1 C 10.1 1.1 13.8 1.9 13.8 4.7 C 13.77 4.68 13.8 6.2 13.8 6.2 L 11.8 6.2 C 11.8 6.2 11.79 5.19 11.8 5.2 C 11.8 3.9 10.1 3 8.1 3 C 5.4 3 3.8 4.6 3.8 6.4 C 3.8 11.3 14.2 10.1 14.2 17 C 14.2 20.2 11.8 22.9 7.8 22.9 C 3.48 22.86 1.1 19.9 1.1 19.9 L 2.4 18.3 Z M 18.3 9.8 C 18.3 9.4 18.1 9.2 17.6 9.2 C 17.64 9.18 16.4 9.2 16.4 9.2 L 16.4 7.4 C 16.4 7.4 18.45 7.41 18.4 7.4 C 19.7 7.4 20.2 8 20.2 9 C 20.25 9.6 20.2 10 20.2 10 L 20.3 10 C 20.3 10 21.48 7.05 25.5 7.1 C 29.5 7.1 32 10.3 32 15 C 32 19.7 29.2 22.9 25.3 22.9 C 21.6 22.86 20.3 20 20.3 20 L 20.3 20 C 20.3 20 20.34 20.55 20.3 21.3 C 20.34 21.33 20.3 28.5 20.3 28.5 L 18.3 28.5 C 18.3 28.5 18.3 9.84 18.3 9.8 Z M 25.1 21.1 C 27.7 21.1 29.9 18.8 29.9 15 C 29.9 11.3 28 8.9 25.2 8.9 C 22.6 8.9 20.3 10.7 20.3 15 C 20.3 18 21.9 21.1 25.1 21.1 Z M 42.4 7.1 C 46.9 7.1 50.4 10.4 50.4 14.9 C 50.4 19.4 46.9 22.9 42.5 22.9 C 38.1 22.9 34.5 19.4 34.5 14.9 C 34.5 10.4 38.1 7.1 42.4 7.1 Z M 42.5 21 C 45.7 21 48.3 18.4 48.3 14.9 C 48.3 11.5 45.7 8.9 42.5 8.9 C 39.2 8.9 36.6 11.5 36.6 14.9 C 36.6 18.4 39.2 21 42.5 21 Z M 53.9 3.8 C 53.9 3.4 53.6 3.2 53.2 3.2 C 53.22 3.18 52 3.2 52 3.2 L 52 1.4 C 52 1.4 54.09 1.41 54.1 1.4 C 55.4 1.4 55.9 1.9 55.9 3.1 C 55.92 3.15 55.9 13.2 55.9 13.2 C 55.9 13.2 57.48 13.17 57.5 13.2 C 58 13.2 58.8 13 59.2 12.4 C 59.19 12.45 63.1 7.4 63.1 7.4 L 65.5 7.4 C 65.5 7.4 61.2 12.93 61.2 12.9 C 60.45 13.86 60.1 14 60.1 14 L 60.1 14.1 C 60.1 14.1 60.51 14.28 61 15.2 C 61 15.2 63.7 20.1 63.7 20.1 C 64 20.6 64.3 20.7 65.1 20.7 C 65.1 20.73 65.9 20.7 65.9 20.7 L 65.9 22.5 C 65.9 22.5 64.5 22.5 64.5 22.5 C 63 22.5 62.6 22.3 61.9 21 C 61.9 21 58.9 15.6 58.9 15.6 C 58.6 15 57.8 14.9 57.3 14.9 C 57.3 14.94 55.9 14.9 55.9 14.9 L 55.9 22.5 L 53.9 22.5 C 53.9 22.5 53.88 3.84 53.9 3.8 Z M 75.1 7.1 C 79.6 7.1 83.1 10.4 83.1 14.9 C 83.1 19.4 79.6 22.9 75.2 22.9 C 70.8 22.9 67.2 19.4 67.2 14.9 C 67.2 10.4 70.8 7.1 75.1 7.1 Z M 75.2 21 C 78.4 21 81 18.4 81 14.9 C 81 11.5 78.4 8.9 75.2 8.9 C 71.9 8.9 69.3 11.5 69.3 14.9 C 69.3 18.4 71.9 21 75.2 21 Z M 87.7 1.4 L 89.7 1.4 L 89.7 4 L 87.7 4 L 87.7 1.4 Z M 84.4 26.8 C 85.5 26.8 87.8 26.4 87.8 23 C 87.8 23 87.8 9.8 87.8 9.8 C 87.8 9.4 87.5 9.2 87.1 9.2 C 87.12 9.18 85.9 9.2 85.9 9.2 L 85.9 7.4 C 85.9 7.4 87.99 7.41 88 7.4 C 89.3 7.4 89.8 8 89.8 9.2 C 89.8 9.2 89.8 23.1 89.8 23.1 C 89.8 28.1 86.3 28.7 84.6 28.7 C 84.03 28.68 83.7 28.6 83.7 28.6 L 83.7 26.8 C 83.7 26.8 83.97 26.85 84.4 26.8 Z M 95 9.8 C 95 9.4 94.7 9.2 94.3 9.2 C 94.32 9.18 93.1 9.2 93.1 9.2 L 93.1 7.4 C 93.1 7.4 95.16 7.41 95.2 7.4 C 96.4 7.4 97 8 97 9.1 C 97 9.1 97 9.8 97 9.8 C 96.99 10.38 96.9 10.9 96.9 10.9 C 96.9 10.9 96.99 10.86 97 10.9 C 97.5 9.5 99.4 7.1 103 7.1 C 106.7 7.1 108.1 9.2 108.1 12.9 C 108.1 12.9 108.1 20.1 108.1 20.1 C 108.1 20.5 108.3 20.7 108.7 20.7 C 108.72 20.73 110 20.7 110 20.7 L 110 22.5 C 110 22.5 107.85 22.5 107.8 22.5 C 106.6 22.5 106 22 106 20.7 C 106 20.7 106 13.4 106 13.4 C 106 11.1 105.7 9 102.7 9 C 100.2 9 97.9 10.7 97.3 13.2 C 97.1 13.9 97 14.6 97 15.3 C 97.02 15.27 97 22.5 97 22.5 L 95 22.5 C 95 22.5 94.98 9.84 95 9.8 Z M 119.8 7.1 C 124.2 7.1 127.7 10.4 127.7 14.9 C 127.7 19.4 124.2 22.9 119.8 22.9 C 115.4 22.9 111.8 19.4 111.8 14.9 C 111.8 10.4 115.4 7.1 119.8 7.1 Z M 119.8 21 C 123 21 125.6 18.4 125.6 14.9 C 125.6 11.5 123 8.9 119.8 8.9 C 116.5 8.9 113.9 11.5 113.9 14.9 C 113.9 18.4 116.5 21 119.8 21 Z M 131 18.8 C 131 18.8 132.66 21.09 135.6 21.1 C 137.3 21.1 138.8 20.3 138.8 18.7 C 138.8 15.4 130.3 16 130.3 11.1 C 130.3 8.4 132.7 7.1 135.7 7.1 C 137.2 7.1 140.3 7.7 140.3 9.8 C 140.31 9.78 140.3 11.1 140.3 11.1 L 138.4 11.1 C 138.4 11.1 138.39 10.35 138.4 10.4 C 138.4 9.2 136.8 8.8 135.8 8.8 C 133.7 8.8 132.4 9.5 132.4 11 C 132.4 14.4 140.9 13.6 140.9 18.6 C 140.9 21.1 138.6 22.9 135.6 22.9 C 131.67 22.86 129.8 20.2 129.8 20.2 L 131 18.8 Z M 145 9.1 L 143 9.1 L 143 7.4 L 145 7.4 L 145 3.2 L 147 3.2 L 147 7.4 L 150.8 7.4 L 150.8 9.1 L 147 9.1 C 147 9.1 147 16.8 147 16.8 C 147 20.3 149.2 20.8 150.4 20.8 C 150.81 20.79 151.1 20.7 151.1 20.7 L 151.1 22.6 C 151.1 22.6 150.72 22.62 150.2 22.6 C 148.5 22.6 145 22.1 145 17 C 144.96 17.01 145 9.1 145 9.1 Z M 150.9 1.4 C 151 1.9 151.1 2.4 151.1 2.9 C 151.1 3.8 150.8 4.5 150.4 5.5 C 150.4 5.5 148.8 5.5 148.8 5.5 C 149.2 4.6 149.4 3.9 149.4 3.1 C 149.4 2.6 149.3 2 149 1.4 C 149 1.4 150.9 1.4 150.9 1.4 Z " stroke="none" fill="#ee3078"/>  </g></svg>