<?xml version="1.0" standalone="no"?><!DOCTYPE svg PUBLIC "-//W3C//DTD SVG 1.1//EN" "http://www.w3.org/Graphics/SVG/1.1/DTD/svg11.dtd"><svg xmlns="http://www.w3.org/2000/svg" version="1.1" width="37px" height="25.3px" viewBox="0 -3 37 25.3" style="top:-3px">  <desc>SPC</desc>  <defs/>  <g id="Polygon81666">    <path d="M 1.6 10 C 1.6 10 2.81 11.41 4.6 11.4 C 5.7 11.4 6.6 10.7 6.6 9.6 C 6.6 7.1 0.9 7.5 0.9 3.8 C 0.9 2 2.4 0.5 4.7 0.5 C 6 0.5 8.1 1.1 8.1 2.8 C 8.11 2.75 8.1 3.7 8.1 3.7 L 6.5 3.7 C 6.5 3.7 6.55 3.18 6.5 3.2 C 6.5 2.5 5.6 2.1 4.7 2.1 C 3.4 2.1 2.6 2.8 2.6 3.7 C 2.6 6.1 8.4 5.6 8.4 9.5 C 8.4 11.4 6.9 13 4.6 13 C 2.01 12.95 0.6 11.2 0.6 11.2 L 1.6 10 Z M 10.8 2.2 L 9.7 2.2 L 9.7 0.7 C 9.7 0.7 14.99 0.75 15 0.7 C 17.2 0.7 18.8 2.2 18.8 4.5 C 18.8 6.8 17.2 8.3 15 8.3 C 14.99 8.31 12.5 8.3 12.5 8.3 L 12.5 12.8 L 10.8 12.8 L 10.8 2.2 Z M 14.7 6.9 C 16.1 6.9 17 5.9 17 4.5 C 17 3.1 16.1 2.2 14.7 2.2 C 14.74 2.21 12.5 2.2 12.5 2.2 L 12.5 6.9 C 12.5 6.9 14.72 6.85 14.7 6.9 Z M 25.7 0.5 C 27.3 0.5 30.2 1.2 30.2 3.1 C 30.23 3.14 30.2 4.3 30.2 4.3 L 28.7 4.3 C 28.7 4.3 28.66 3.64 28.7 3.6 C 28.7 2.6 27 2.1 25.8 2.1 C 23.3 2.1 21.5 3.9 21.5 6.6 C 21.5 9.3 23.4 11.4 25.8 11.4 C 28.19 11.36 29.6 9.7 29.6 9.7 L 30.5 10.9 C 30.5 10.9 28.81 12.95 25.8 13 C 22.2 13 19.7 10.2 19.7 6.6 C 19.7 3.2 22.3 0.5 25.7 0.5 Z " stroke="none" fill="#ee3078"/>  </g></svg>