<?xml version="1.0" standalone="no"?><!DOCTYPE svg PUBLIC "-//W3C//DTD SVG 1.1//EN" "http://www.w3.org/Graphics/SVG/1.1/DTD/svg11.dtd"><svg xmlns="http://www.w3.org/2000/svg" version="1.1" width="93px" height="16.8px" viewBox="0 -2 93 16.8" style="top:-2px">  <desc>Fibrin monomer</desc>  <defs/>  <g id="Polygon77270">    <path d="M 7 0.5 L 11.1 0.5 L 11.1 1.2 L 7.8 1.2 L 7.8 4.1 L 10.6 4.1 L 10.6 4.8 L 7.8 4.8 L 7.8 8.2 L 7 8.2 L 7 0.5 Z M 12.4 0.5 L 13.2 0.5 L 13.2 1.5 L 12.4 1.5 L 12.4 0.5 Z M 12.5 2.7 L 13.2 2.7 L 13.2 8.2 L 12.5 8.2 L 12.5 2.7 Z M 15 0.5 L 15.8 0.5 C 15.8 0.5 15.75 3.2 15.8 3.2 C 15.75 3.45 15.7 3.7 15.7 3.7 L 15.8 3.7 C 15.8 3.7 16.21 2.59 17.6 2.6 C 19.1 2.6 20 3.8 20 5.5 C 20 7.2 19 8.4 17.5 8.4 C 16.22 8.38 15.7 7.3 15.7 7.3 L 15.7 7.3 C 15.7 7.3 15.73 7.49 15.7 7.8 C 15.73 7.76 15.7 8.2 15.7 8.2 L 15 8.2 L 15 0.5 Z M 17.5 7.7 C 18.5 7.7 19.3 6.9 19.3 5.5 C 19.3 4.1 18.6 3.3 17.5 3.3 C 16.6 3.3 15.7 3.9 15.7 5.5 C 15.7 6.6 16.3 7.7 17.5 7.7 Z M 21.5 2.7 L 22.2 2.7 C 22.2 2.7 22.22 3.7 22.2 3.7 C 22.2 3.9 22.2 4.1 22.2 4.1 C 22.2 4.1 22.2 4.1 22.2 4.1 C 22.5 3.3 23.1 2.7 24 2.7 C 24.1 2.7 24.3 2.7 24.3 2.7 C 24.26 2.7 24.3 3.4 24.3 3.4 C 24.3 3.4 24.13 3.41 24 3.4 C 23.2 3.4 22.6 4 22.4 4.8 C 22.3 5.2 22.2 5.6 22.2 5.9 C 22.23 5.92 22.2 8.2 22.2 8.2 L 21.5 8.2 L 21.5 2.7 Z M 25.4 0.5 L 26.2 0.5 L 26.2 1.5 L 25.4 1.5 L 25.4 0.5 Z M 25.4 2.7 L 26.1 2.7 L 26.1 8.2 L 25.4 8.2 L 25.4 2.7 Z M 28 2.7 L 28.7 2.7 C 28.7 2.7 28.69 3.54 28.7 3.5 C 28.7 3.8 28.7 4 28.7 4 C 28.7 4 28.7 4 28.7 4 C 28.9 3.5 29.6 2.6 30.9 2.6 C 32.3 2.6 32.7 3.4 32.7 4.7 C 32.75 4.73 32.7 8.2 32.7 8.2 L 32 8.2 C 32 8.2 32 4.93 32 4.9 C 32 4.1 31.9 3.3 30.8 3.3 C 29.9 3.3 29 3.9 28.8 4.9 C 28.7 5.1 28.7 5.3 28.7 5.6 C 28.7 5.6 28.7 8.2 28.7 8.2 L 28 8.2 L 28 2.7 Z M 37.4 2.7 L 38.2 2.7 C 38.2 2.7 38.17 3.54 38.2 3.5 C 38.2 3.8 38.1 4 38.1 4 C 38.1 4 38.2 4 38.2 4 C 38.4 3.2 39.3 2.6 40.2 2.6 C 41.2 2.6 41.7 3.1 41.9 4 C 41.9 4 41.9 4 41.9 4 C 42.2 3.2 43 2.6 43.9 2.6 C 45.3 2.6 45.8 3.4 45.8 4.7 C 45.78 4.73 45.8 8.2 45.8 8.2 L 45 8.2 C 45 8.2 45.03 4.92 45 4.9 C 45 4 44.8 3.3 43.8 3.3 C 43 3.3 42.3 4 42.1 4.8 C 42 5.1 42 5.3 42 5.6 C 41.99 5.63 42 8.2 42 8.2 L 41.2 8.2 C 41.2 8.2 41.24 4.92 41.2 4.9 C 41.2 4.1 41.1 3.3 40.1 3.3 C 39.2 3.3 38.5 4 38.3 4.9 C 38.2 5.1 38.2 5.4 38.2 5.6 C 38.18 5.63 38.2 8.2 38.2 8.2 L 37.4 8.2 L 37.4 2.7 Z M 50 2.6 C 51.6 2.6 53 3.8 53 5.5 C 53 7.1 51.6 8.4 50 8.4 C 48.4 8.4 47.1 7.1 47.1 5.5 C 47.1 3.8 48.4 2.6 50 2.6 Z M 50 7.7 C 51.2 7.7 52.2 6.7 52.2 5.5 C 52.2 4.2 51.2 3.3 50 3.3 C 48.8 3.3 47.9 4.2 47.9 5.5 C 47.9 6.7 48.8 7.7 50 7.7 Z M 54.4 2.7 L 55.1 2.7 C 55.1 2.7 55.09 3.54 55.1 3.5 C 55.1 3.8 55.1 4 55.1 4 C 55.1 4 55.1 4 55.1 4 C 55.3 3.5 56 2.6 57.3 2.6 C 58.7 2.6 59.1 3.4 59.1 4.7 C 59.15 4.73 59.1 8.2 59.1 8.2 L 58.4 8.2 C 58.4 8.2 58.4 4.93 58.4 4.9 C 58.4 4.1 58.3 3.3 57.2 3.3 C 56.3 3.3 55.4 3.9 55.2 4.9 C 55.1 5.1 55.1 5.3 55.1 5.6 C 55.1 5.6 55.1 8.2 55.1 8.2 L 54.4 8.2 L 54.4 2.7 Z M 63.4 2.6 C 65 2.6 66.3 3.8 66.3 5.5 C 66.3 7.1 65 8.4 63.4 8.4 C 61.8 8.4 60.5 7.1 60.5 5.5 C 60.5 3.8 61.8 2.6 63.4 2.6 Z M 63.4 7.7 C 64.6 7.7 65.5 6.7 65.5 5.5 C 65.5 4.2 64.6 3.3 63.4 3.3 C 62.2 3.3 61.2 4.2 61.2 5.5 C 61.2 6.7 62.2 7.7 63.4 7.7 Z M 67.7 2.7 L 68.5 2.7 C 68.5 2.7 68.45 3.54 68.5 3.5 C 68.5 3.8 68.4 4 68.4 4 C 68.4 4 68.5 4 68.5 4 C 68.7 3.2 69.6 2.6 70.5 2.6 C 71.5 2.6 72 3.1 72.2 4 C 72.2 4 72.2 4 72.2 4 C 72.5 3.2 73.3 2.6 74.2 2.6 C 75.6 2.6 76.1 3.4 76.1 4.7 C 76.06 4.73 76.1 8.2 76.1 8.2 L 75.3 8.2 C 75.3 8.2 75.32 4.92 75.3 4.9 C 75.3 4 75.1 3.3 74.1 3.3 C 73.3 3.3 72.6 4 72.4 4.8 C 72.3 5.1 72.3 5.3 72.3 5.6 C 72.27 5.63 72.3 8.2 72.3 8.2 L 71.5 8.2 C 71.5 8.2 71.52 4.92 71.5 4.9 C 71.5 4.1 71.4 3.3 70.4 3.3 C 69.5 3.3 68.8 4 68.5 4.9 C 68.5 5.1 68.5 5.4 68.5 5.6 C 68.46 5.63 68.5 8.2 68.5 8.2 L 67.7 8.2 L 67.7 2.7 Z M 80.1 2.6 C 81.7 2.6 82.4 3.8 82.4 5.1 C 82.44 5.27 82.4 5.5 82.4 5.5 C 82.4 5.5 78.17 5.52 78.2 5.5 C 78.2 6.9 79.2 7.7 80.3 7.7 C 81.33 7.71 82 7 82 7 L 82.3 7.6 C 82.3 7.6 81.54 8.38 80.3 8.4 C 78.6 8.4 77.4 7.2 77.4 5.5 C 77.4 3.7 78.6 2.6 80.1 2.6 Z M 81.7 4.9 C 81.6 3.8 80.9 3.2 80.1 3.2 C 79.2 3.2 78.4 3.8 78.2 4.9 C 78.2 4.9 81.7 4.9 81.7 4.9 Z M 83.9 2.7 L 84.6 2.7 C 84.6 2.7 84.61 3.7 84.6 3.7 C 84.6 3.9 84.6 4.1 84.6 4.1 C 84.6 4.1 84.6 4.1 84.6 4.1 C 84.9 3.3 85.5 2.7 86.4 2.7 C 86.5 2.7 86.7 2.7 86.7 2.7 C 86.66 2.7 86.7 3.4 86.7 3.4 C 86.7 3.4 86.52 3.41 86.4 3.4 C 85.6 3.4 85 4 84.8 4.8 C 84.7 5.2 84.6 5.6 84.6 5.9 C 84.62 5.92 84.6 8.2 84.6 8.2 L 83.9 8.2 L 83.9 2.7 Z " stroke="none" fill="#000"/>  </g></svg>